<svg width="93" height="92" viewBox="0 0 93 92" fill="none" xmlns="http://www.w3.org/2000/svg">
<rect x="0.5" width="92" height="92" rx="46" fill="black"/>
<path d="M53.6938 19.6918C51.9492 18.6913 50.2809 18.5515 48.9963 19.2972L27.5057 31.8008C25.8693 32.619 25.2802 34.323 25.2802 36.1451C25.2802 36.3468 25.3875 36.5337 25.5621 36.6348L29.0037 38.627C29.1795 38.7287 29.3928 38.7293 29.5686 38.6287C29.7433 38.5286 29.8527 38.3429 29.8538 38.1417C29.8572 37.6447 30.0075 37.2755 30.2662 37.1273C30.5293 36.9786 30.9317 37.0378 31.3718 37.2921C32.4983 37.9383 33.4413 39.5673 33.4314 40.8525L33.3739 61.9319C33.3617 65.7404 36.0493 70.3948 39.3626 72.3063C40.8115 73.1456 42.5454 73.5523 43.9959 72.717C43.9985 72.7155 44.0006 72.7134 44.0031 72.712C44.0058 72.7105 44.0088 72.7113 44.0114 72.7098L58.6875 64.1822C58.9584 64.0252 59.0501 63.6792 58.8931 63.4089C58.735 63.1369 58.3868 63.0473 58.1192 63.2038L45.7128 70.4119C45.8572 69.9319 45.9684 69.0499 45.9715 68.5507C45.9716 68.4367 45.9725 67.1477 45.9724 67.2617L66.58 55.2881L66.5766 55.9149C66.5766 57.4417 66.0836 58.5716 65.1903 59.095L63.6016 60.0176C63.3308 60.1751 63.239 60.5212 63.396 60.7915C63.553 61.0623 63.9001 61.1502 64.1699 60.9971L65.7608 60.0729C67.0167 59.3366 67.7087 57.8601 67.7087 55.9183C67.7095 55.7911 67.7056 56.4426 67.7183 54.3026C67.7183 54.3006 67.7198 54.299 67.7198 54.297C67.7198 54.0947 67.6114 53.9084 67.4368 53.8072L63.9797 51.8112C63.8039 51.71 63.5862 51.71 63.4126 51.8123L60.4851 53.5135C60.0055 52.8031 59.7068 51.9851 59.7068 51.2822L59.7632 30.2144C59.7742 26.3583 57.0524 21.6387 53.6938 19.6918ZM49.5646 20.2756C50.4844 19.7416 51.7491 19.8825 53.1277 20.6725C56.1735 22.4369 58.6411 26.7159 58.6311 30.2111L58.5747 51.2805C58.5747 52.1909 58.9097 53.203 59.489 54.0858L41.6752 64.4418C41.6749 64.4419 41.6755 64.4416 41.6752 64.4418C41.6749 64.4419 41.6739 64.4425 41.6736 64.4427L41.671 64.4442C41.5564 64.5106 41.3858 64.7044 41.3858 64.9384C41.3858 65.4418 41.3781 66.6687 41.378 66.5525C41.378 67.4998 40.8361 67.8813 39.9386 67.3628C38.8961 66.7661 37.9597 65.1953 37.9597 63.9279L38.0161 42.8485C38.0282 38.9869 35.3053 34.2712 31.9511 32.3392C31.3241 31.9724 30.6817 31.7216 30.1125 31.5924L49.5646 20.2756ZM39.9286 71.3262C36.9282 69.5949 34.4949 65.3822 34.506 61.9352L34.5635 40.8586C34.5756 39.161 33.4214 37.1633 31.9367 36.3115C31.2422 35.9083 30.4014 35.7472 29.7046 36.1445C29.3011 36.3756 29.0125 36.7498 28.8566 37.2335L26.42 35.8228C26.4853 34.4154 26.9861 33.3884 27.8816 32.8909C28.4319 32.524 29.7988 32.3913 31.3817 33.3182C34.4264 35.0716 36.895 39.3451 36.884 42.8452L36.8276 63.9262C36.8276 65.6247 37.9899 67.5535 39.3748 68.3445C40.9817 69.2724 42.5101 68.4305 42.5101 66.5563L42.5144 65.9163C42.6282 65.982 44.9898 67.3468 44.8394 67.2599C44.8387 67.3739 44.8298 68.657 44.8306 68.543C44.8215 71.7259 42.731 72.948 39.9286 71.3262ZM63.6978 52.9554L66.025 54.2992L45.4088 66.2799C45.2951 66.2141 42.934 64.8476 43.0844 64.9346L63.6978 52.9554Z" fill="white"/>
<path d="M61.8051 61.0623L60.2021 61.9937C59.9312 62.1507 59.8395 62.4968 59.9965 62.7671C60.1513 63.0344 60.4964 63.1311 60.7703 62.9722L62.3734 62.0407C62.6442 61.8837 62.736 61.5377 62.579 61.2674C62.4209 60.9949 62.0727 60.9064 61.8051 61.0623Z" fill="white"/>
<path d="M37.8933 33.9959L53.979 24.6579C54.2498 24.5009 54.3416 24.1543 54.1846 23.884C54.0265 23.6126 53.6783 23.5214 53.4107 23.6784L37.3251 33.0164C37.0542 33.1734 36.9625 33.5199 37.1194 33.7902C37.2772 34.0617 37.6246 34.1518 37.8933 33.9959Z" fill="white"/>
<path d="M46.5807 55.9608L40.1453 59.7003C39.8745 59.8573 39.7827 60.2039 39.9397 60.4737C40.0945 60.741 40.4396 60.8377 40.7136 60.6787L47.1489 56.9392C47.4198 56.7822 47.5116 56.4357 47.3546 56.1659C47.1965 55.8934 46.8482 55.8038 46.5807 55.9608Z" fill="white"/>
<path d="M39.1813 38.9023C39.3369 39.1701 39.6807 39.2655 39.9552 39.1079L56.0409 29.7694C56.3117 29.6124 56.4035 29.2658 56.2465 28.9955C56.0884 28.7241 55.7401 28.6357 55.4726 28.7899L39.387 38.1284C39.1161 38.2854 39.0243 38.632 39.1813 38.9023Z" fill="white"/>
<path d="M46.5807 51.322L40.1453 55.0615C39.8745 55.2185 39.7827 55.565 39.9397 55.8348C40.0945 56.1021 40.4396 56.1988 40.7136 56.0399L47.1489 52.3004C47.4198 52.1434 47.5116 51.7968 47.3546 51.5271C47.1965 51.2551 46.8482 51.1655 46.5807 51.322Z" fill="white"/>
<path d="M49.0184 39.8791L56.0408 35.8024C56.3117 35.6454 56.4035 35.2988 56.2465 35.0285C56.0884 34.7571 55.7401 34.667 55.4726 34.8229L48.4502 38.8996C48.1793 39.0565 48.0876 39.4031 48.2446 39.6734C48.3496 39.8542 48.5397 39.9553 48.7343 39.9553C48.8316 39.9553 48.9289 39.931 49.0184 39.8791Z" fill="white"/>
<path d="M55.4726 40.8552L49.1843 44.5057C48.9134 44.6627 48.8216 45.0093 48.9786 45.2796C49.1342 45.5474 49.478 45.6428 49.7525 45.4852L56.0408 41.8347C56.3117 41.6777 56.4035 41.3312 56.2465 41.0608C56.0884 40.7894 55.7401 40.6999 55.4726 40.8552Z" fill="white"/>
<path d="M40.6241 51.4568C40.7213 51.4568 40.8197 51.4314 40.9071 51.3811L46.9776 47.876C47.1534 47.7742 47.2617 47.5869 47.2606 47.384L47.2374 39.1366C47.2363 38.9349 47.1291 38.7486 46.9533 38.6474C46.7786 38.5468 46.563 38.5474 46.3884 38.648L40.3167 42.1531C40.1409 42.2548 40.0326 42.4422 40.0337 42.6451L40.058 50.8924C40.0597 51.2058 40.3132 51.4568 40.6241 51.4568ZM46.1076 40.1173L46.1274 47.0595L41.1868 49.9118L41.1669 42.9696L46.1076 40.1173Z" fill="white"/>
<path d="M54.9452 46.5581C54.8689 46.5709 54.7551 46.5897 54.7628 46.6002C54.7407 46.5874 54.6821 46.5349 54.6445 46.5001C54.4643 46.3365 54.1315 46.033 53.644 46.1375C53.5279 46.1601 53.4118 46.2049 53.2902 46.2746L53.2869 46.2762C52.9222 46.4885 52.5539 46.9221 52.3184 47.0579C52.2289 47.1098 52.1117 47.1374 51.9757 47.1701C51.7966 47.2132 51.5722 47.2662 51.3522 47.3934C50.8875 47.6604 50.662 48.1141 50.4313 48.5951C50.1851 49.1028 50.1753 49.1257 49.7779 49.5199C49.5303 49.7648 49.2506 50.0428 49.0748 50.4193C48.9023 50.7979 48.8946 51.1566 48.8868 51.4728C48.8824 51.6475 48.8791 51.8122 48.8459 51.9493C48.7454 52.3659 48.3191 52.9794 48.3208 53.5833C48.3219 54.0664 48.5917 54.3577 48.7542 54.5319C48.7951 54.5766 48.8581 54.6446 48.8647 54.6585C48.8879 54.7259 48.8935 54.9017 48.8968 55.0294C48.909 55.3914 48.9222 55.801 49.2019 56.0747C49.538 56.4223 50.0057 56.3433 50.2898 56.2947C50.3638 56.2819 50.4766 56.2632 50.4611 56.2499C50.5792 56.3174 50.8807 56.7396 51.3997 56.7396C51.8427 56.7396 52.1816 56.4271 52.5097 56.1288C52.8982 55.7737 52.9212 55.7687 53.2571 55.6861C53.4461 55.6402 53.6606 55.5877 53.8795 55.4611C53.9812 55.4025 54.0763 55.3323 54.1669 55.2472C54.6219 54.8091 54.8024 54.1306 55.0679 53.7547C55.339 53.373 55.8738 53.0363 56.1492 52.438C56.3205 52.0654 56.3305 51.7094 56.3393 51.3954C56.3437 51.2169 56.3482 51.0489 56.3846 50.8991C56.4818 50.4932 56.906 49.8793 56.9042 49.2778C56.9031 48.8013 56.6389 48.5105 56.4819 48.337C56.4388 48.2905 56.3758 48.2203 56.3614 48.1822C56.3404 48.1214 56.3349 47.9401 56.3305 47.8201C56.3194 47.4625 56.3072 47.0567 56.022 46.7721C55.6892 46.4349 55.2393 46.5101 54.9452 46.5581ZM55.5466 49.9317C55.4383 50.1782 55.3344 50.4231 55.2846 50.6354C55.2205 50.898 55.2139 51.1456 55.2072 51.3645C55.2006 51.5994 55.1951 51.8028 55.121 51.9648C55.0348 52.1527 54.8501 52.3357 54.6545 52.5292C54.4709 52.7116 54.2885 52.8962 54.1437 53.1013C53.8025 53.5818 53.6687 54.1675 53.3156 54.4794C53.2349 54.5263 53.12 54.5545 52.9873 54.5866C52.8027 54.6319 52.5716 54.6883 52.3406 54.8221C51.9769 55.0319 51.6797 55.3868 51.4119 55.5766C51.3898 55.5573 51.3655 55.5352 51.3456 55.5169C51.2162 55.3986 51.0382 55.2361 50.7762 55.1659C50.5302 55.1029 50.2905 55.1449 50.0377 55.1891C50.0193 54.915 50.0372 54.6001 49.9371 54.2947C49.7946 53.8865 49.4529 53.6883 49.4529 53.58C49.4529 53.4396 49.5789 53.1549 49.6806 52.9255C49.958 52.2957 50.0029 52.1223 50.0189 51.4994C50.0324 50.9174 50.052 50.8414 50.575 50.3242C51.0613 49.8409 51.1503 49.7088 51.4517 49.086C51.5755 48.8284 51.7038 48.5614 51.9171 48.3751C51.9967 48.3292 52.1084 48.3021 52.2388 48.2712C52.4235 48.227 52.6523 48.1722 52.8845 48.0385C53.099 47.9146 53.2935 47.7372 53.4804 47.5658C53.6009 47.4558 53.7236 47.3431 53.8176 47.2795C53.8397 47.2983 53.864 47.3199 53.8828 47.3376C54.0132 47.457 54.1934 47.62 54.4544 47.6869C54.7097 47.7516 54.95 47.7033 55.1906 47.6653C55.2094 47.9376 55.1898 48.2638 55.289 48.5454C55.4269 48.9671 55.7722 49.1701 55.7722 49.2811C55.7722 49.4209 55.6472 49.704 55.5466 49.9317Z" fill="white"/>
</svg>
