<svg width="93" height="92" viewBox="0 0 93 92" fill="none" xmlns="http://www.w3.org/2000/svg">
<rect x="0.5" width="92" height="92" rx="46" fill="white"/>
<path d="M69.1535 64.937C69.4846 64.937 69.8434 64.8364 70.1993 64.6325C70.566 64.4161 70.92 64.0918 71.2293 63.6976L72.8189 64.6197C73.0892 64.7766 73.436 64.6839 73.5928 64.4141C73.7498 64.1438 73.6575 63.7972 73.3872 63.6402L71.817 62.7293C72.0432 62.224 72.165 61.7044 72.165 61.2246C72.165 60.5976 71.9558 60.0926 71.6375 59.8446L65.5715 50.9702C65.2775 50.5307 64.8529 50.2173 64.3665 50.0796C64.3626 50.078 64.3582 50.0758 64.3538 50.0741C35.2844 32.9748 49.6823 41.444 45.5195 38.9953L45.9454 38.7478C46.119 38.6467 46.2262 38.4609 46.2268 38.2597C46.2285 37.3647 46.2316 35.5488 46.2328 35.665C46.2316 35.5518 46.0885 35.2603 45.9498 35.1803C45.8325 35.1126 31.5903 27.1928 31.4766 27.1347C31.3008 27.0374 31.088 27.039 30.9167 27.1402C30.8021 27.2068 27.61 29.0622 27.7246 28.9956C27.7244 28.9958 27.7248 28.9955 27.7246 28.9956C27.5266 29.1114 27.4445 29.3574 27.4441 29.4823L27.4406 30.7441C27.3745 30.779 27.3095 30.8098 27.2424 30.8482C27.0406 30.9656 26.8501 31.1167 26.6553 31.2559L24.4807 29.9748C23.8285 29.6006 22.9717 29.6675 22.127 30.1567C20.5588 31.0621 19.3306 33.1864 19.3306 34.994C19.3306 35.9685 19.6926 36.7136 20.3455 37.0901L22.4068 38.301C22.3556 38.6645 22.3194 39.0264 22.3194 39.3797C22.3316 41.012 22.9142 42.2458 23.9567 42.8516C24.0712 42.919 57.278 62.4592 57.0113 62.3022C57.3414 62.6771 57.792 62.9335 58.3065 63.0167L68.3803 64.6825C68.6094 64.8344 68.8643 64.937 69.1535 64.937ZM70.4713 61.9488C70.1988 61.7912 69.8533 61.8841 69.6974 62.1544C69.5404 62.4247 69.6327 62.7713 69.903 62.9283L70.2275 63.1165C70.0348 63.3394 69.8332 63.5342 69.6311 63.6535C69.107 63.9525 68.7798 63.8186 68.7798 63.177C68.771 62.3191 69.426 61.1865 70.1922 60.7476C70.6765 60.4566 71.0329 60.558 71.0329 61.2246C71.0329 61.5082 70.9414 61.8272 70.813 62.147L70.4713 61.9488ZM50.4798 57.1432C49.8037 56.7334 49.4295 55.8545 49.4273 54.6594C49.4185 51.89 51.3731 48.5065 53.7848 47.1157C54.8527 46.4977 55.8267 46.3822 56.5304 46.7901C56.533 46.7916 56.5361 46.7914 56.5387 46.7929L58.7372 48.0866C58.3215 48.206 57.8949 48.3826 57.4613 48.6319C54.693 50.2311 52.5306 53.9778 52.5383 57.1618C52.5399 57.6279 52.6015 58.0505 52.6952 58.4467L50.4798 57.1432ZM47.0051 55.0989C46.3175 54.6958 45.9354 53.8111 45.9316 52.6053C45.9249 49.8353 47.8795 46.4502 50.288 45.0588C50.9397 44.6835 51.556 44.4939 52.0955 44.4939C52.4427 44.4939 52.7583 44.5724 53.0314 44.7305L54.4813 45.584C54.0695 45.7039 53.6466 45.888 53.2188 46.1356C50.4936 47.7066 48.2853 51.5318 48.2952 54.6621C48.2963 55.1209 48.3433 55.5481 48.4331 55.9391L47.0051 55.0989ZM53.6704 57.159C53.6637 54.3891 55.6183 51.0039 58.0268 49.6126C58.8631 49.1309 59.9364 48.8004 60.7702 49.2848L62.2201 50.1377C61.9448 50.218 61.663 50.3377 61.3793 50.4753C61.3761 50.4767 61.3748 50.4773 61.3716 50.4788C61.368 50.4805 61.3646 50.4829 61.361 50.4846C57.9549 52.15 55.2936 56.957 56.1214 60.4625L54.7417 59.6507C54.0557 59.247 53.6742 58.3629 53.6704 57.159ZM30.5043 34.1525L32.0411 35.0008L30.4986 35.8979L30.5043 34.1525ZM30.2146 32.695C29.8305 32.483 29.3734 32.7692 29.3722 33.1925L29.3639 35.8995L28.5596 35.4351L28.5735 30.4448L41.9089 37.8578C41.9086 37.9718 41.9055 39.2668 41.9057 39.1528C26.1352 30.4416 31.2699 33.2779 30.2146 32.695ZM43.038 39.1256C43.0382 39.0116 43.0414 37.7372 43.0411 37.8512L45.0985 36.6556L45.0952 37.9325C44.8541 38.0723 42.917 39.1957 43.038 39.1256ZM31.2074 28.2806L44.5214 35.6815C44.4068 35.7481 42.3383 36.9502 42.4696 36.8739L34.3458 32.3581L29.1555 29.4729L31.2074 28.2806ZM22.6461 37.1282L20.9148 36.1117C20.6274 35.9458 20.4626 35.5384 20.4626 34.994C20.4626 33.601 21.4842 31.8349 22.6942 31.1367C23.0503 30.9298 23.557 30.7504 23.9114 30.9532L25.7118 32.014C24.4062 33.2504 23.2212 35.1255 22.6716 37.0567C22.6647 37.0807 22.6528 37.1042 22.6461 37.1282ZM23.4515 39.3752C23.4515 36.6992 25.3145 33.5061 27.4342 32.0648L27.4248 35.7623C27.4242 35.9652 27.532 36.1526 27.7073 36.2537L29.6436 37.3748C29.6434 37.3746 29.6438 37.3749 29.6436 37.3748C29.8179 37.4745 30.0686 37.4558 30.2091 37.3759C30.2097 37.3756 30.2098 37.3749 30.2103 37.3746C31.058 36.8817 33.3415 35.5539 33.1962 35.6384C39.0663 38.88 33.4156 35.7568 42.1959 40.6085C42.3745 40.7082 42.5957 40.6945 42.7542 40.6024L42.7559 40.6014L44.3965 39.648L50.9983 43.5328C50.5825 43.6522 50.1559 43.8289 49.7225 44.0782C46.9542 45.6774 44.7918 49.4241 44.7995 52.608C44.8011 53.0744 44.8628 53.4973 44.9566 53.8936L24.5288 41.8749C23.8428 41.4763 23.4603 40.5869 23.4515 39.3752ZM58.244 61.71L58.2263 61.6995C57.4139 61.2156 57.168 60.1634 57.1666 59.2131C57.1565 56.2261 59.4794 52.4464 62.1527 51.3773C63.2547 50.8933 64.3629 51.1998 64.6335 51.6042L70.0716 59.5597C69.9207 59.6105 69.7687 59.6813 69.6195 59.7708C68.454 60.4382 67.5355 62.0612 67.6577 63.4158C56.1808 61.3722 59.0013 62.1544 58.244 61.71Z" fill="black"/>
</svg>
