<svg width="93" height="92" viewBox="0 0 93 92" fill="none" xmlns="http://www.w3.org/2000/svg">
<rect x="0.5" width="92" height="92" rx="46" fill="black"/>
<path d="M31.7401 60.28C29.7001 61.48 28.6201 63.04 28.6201 64.72V68.44C28.6201 70.24 29.7001 71.8 31.7401 73C35.7001 75.28 42.1801 75.28 46.1401 73C48.1801 71.8 49.2601 70.24 49.2601 68.56V64.84C49.2601 63.16 48.1801 61.48 46.1401 60.28C44.9401 59.56 43.5001 59.08 41.8201 58.84V49L47.3401 45.52C47.5801 45.4 47.7001 44.92 47.5801 44.68C47.4601 44.44 46.9801 44.32 46.7401 44.44L41.9401 47.44C41.9401 45.88 41.9401 53.2 41.9401 31.84L62.1001 35.08L51.9001 41.44C51.6601 41.56 51.5401 42.04 51.6601 42.28C51.7801 42.52 52.2601 42.64 52.5001 42.52L64.0201 35.32C64.2601 35.2 64.3801 34.96 64.2601 34.72C64.2601 34.48 64.0201 34.24 63.7801 34.24L41.7001 31V29.56C43.5001 28.36 44.8201 26.32 44.8201 24.04C44.8201 20.44 41.8201 17.44 38.2201 17.44C34.6201 17.44 31.6201 20.44 31.6201 24.04C31.6201 26.44 32.9401 28.48 34.7401 29.68L34.6201 59.32C33.7801 59.32 32.5801 59.8 31.7401 60.28ZM48.0601 67.84V68.56C48.0601 69.88 47.1001 71.08 45.5401 72.04C41.9401 74.2 36.0601 74.2 32.3401 72.04C30.6601 71.08 29.8201 69.88 29.8201 68.56V67.84C30.3001 68.44 31.1401 69.04 31.7401 69.4C35.7001 71.68 42.1801 71.68 46.1401 69.4C46.8601 68.92 47.5801 68.44 48.0601 67.84ZM45.5401 61.36C48.9001 63.28 49.0201 66.28 45.5401 68.32C41.9401 70.48 35.9401 70.48 32.3401 68.32C28.8601 66.4 28.8601 63.28 32.3401 61.36C33.0601 60.88 34.0201 60.52 34.9801 60.28V64.6C34.9801 65.32 35.3401 65.92 36.1801 66.28C37.5001 67 39.5401 67 40.8601 66.28C41.5801 65.8 41.9401 65.2 41.9401 64.6V60.04C43.2601 60.28 44.4601 60.76 45.5401 61.36ZM33.0601 23.8C33.0601 20.8 35.4601 18.4 38.4601 18.4C41.4601 18.4 43.8601 20.8 43.8601 23.8C43.7401 30.88 33.0601 30.88 33.0601 23.8ZM40.5001 30.04H40.6201C40.6201 44.92 40.6201 44.32 40.5001 59.44V64.72C40.5001 64.96 40.2601 65.2 40.0201 65.32C39.0601 65.8 37.5001 65.8 36.5401 65.32C36.1801 65.08 35.9401 64.84 36.0601 64.72L36.1801 30.04H36.3001C37.7401 30.52 39.1801 30.4 40.5001 30.04Z" fill="white"/>
<path d="M50.3401 42.4L48.6601 43.48C48.4201 43.6 48.3001 44.08 48.4201 44.32C48.5401 44.56 49.0201 44.68 49.2601 44.56L50.9401 43.48C51.1801 43.36 51.3001 42.88 51.1801 42.64C51.0601 42.4 50.5801 42.16 50.3401 42.4Z" fill="white"/>
</svg>
