<svg width="93" height="92" viewBox="0 0 93 92" fill="none" xmlns="http://www.w3.org/2000/svg">
<path d="M22.6906 62.486C23.1686 62.4843 23.5568 62.0944 23.5551 61.6155L23.5484 59.3728C23.5467 58.8939 23.1585 58.5074 22.6804 58.5074H22.677C22.199 58.5091 21.8108 58.899 21.8125 59.3779L21.8193 61.6206C21.821 62.0995 22.2092 62.486 22.6872 62.486H22.6906Z" fill="white"/>
<path d="M71.1233 13.4712C71.1233 12.3007 70.6113 11.3912 69.8604 11.0895L60.6387 5.72342C59.886 5.28946 58.9622 5.35302 58.0349 5.89717L57.656 6.11595L57.6535 5.20724C57.6518 4.89787 57.4874 4.61224 57.2178 4.45713C56.95 4.30287 56.6194 4.30372 56.3516 4.45798L45.0516 10.9818C44.7821 11.1378 44.616 11.4251 44.6177 11.7362L44.6231 13.6264L24.5893 25.1983C22.9704 26.123 21.7177 28.3106 21.738 30.1719L21.8075 56.2622C21.8092 56.7403 22.1974 57.1276 22.6755 57.1276C23.1552 57.1259 23.5451 56.7369 23.5434 56.2571L23.4739 30.1601C23.4603 28.9285 24.3842 27.3147 25.4538 26.7036L44.6287 15.6279L44.6538 24.4423L33.928 30.6313C32.3193 31.5493 31.0597 33.7259 31.0597 35.588L31.1971 84.7096L23.84 80.4158C23.7519 80.37 23.6129 80.12 23.6129 79.6385L23.562 64.4677C23.5603 63.9888 23.1721 63.6023 22.6941 63.6023C22.6924 63.6023 22.6924 63.6023 22.6907 63.6023C22.2127 63.604 21.8245 63.9939 21.8262 64.4728L21.877 79.6411C21.877 80.7285 22.3008 81.5727 23.0026 81.9355C33.6421 88.0985 32.1347 87.3352 32.5531 87.4496C33.1932 87.7371 33.9504 87.7861 34.9485 87.2151L68.3975 67.9122C70.0101 66.9835 71.2623 64.7968 71.2623 62.9429C71.2623 62.6713 71.1245 13.7578 71.1233 13.4712ZM58.9096 7.39655C59.2724 7.18296 59.586 7.12193 59.7674 7.22533L67.088 11.4779L57.6867 16.8987L57.6618 8.11752L58.9096 7.39655ZM55.9227 6.71085C55.9987 34.098 55.9099 1.88371 55.9683 23.7574L46.4026 29.2803L46.3552 12.2337L55.9227 6.71085ZM34.0839 85.7098C33.3236 86.1445 32.9346 85.9241 32.9346 85.0724L32.7956 35.5854C32.7956 34.3556 33.7262 32.7452 34.7925 32.1366L44.6567 26.4451L44.6671 30.2822L42.731 31.4001C42.3156 31.6399 42.1733 32.1705 42.414 32.5859C42.6502 32.9993 43.1812 33.1435 43.5989 32.9037C49.7008 29.4157 60.1829 23.3419 59.7606 23.5727C60.1759 23.3328 60.3183 22.8022 60.0776 22.3869C59.8386 21.969 59.3063 21.8292 58.8927 22.069L57.7033 22.7557L57.6924 18.8997L68.2347 12.8211C68.9655 12.4057 69.3874 12.5796 69.3874 13.4737L69.5264 62.9429C69.5264 64.0279 68.6906 65.7388 67.5295 66.4086L34.0839 85.7098Z" fill="white"/>
<path d="M65.1885 23.7905L36.4334 40.3921C36.3079 40.4641 36.2045 40.5667 36.1283 40.6888C35.9859 40.9201 35.9859 40.9201 35.9587 79.8013C35.9587 80.1115 36.1232 80.3988 36.3927 80.554C36.5266 80.6311 36.6775 80.6701 36.8267 80.6701C36.9758 80.6701 37.1267 80.6311 37.2606 80.554L66.0208 63.9498C66.2519 63.8169 66.4904 63.4907 66.4904 63.137V24.5423C66.4904 24.2321 66.3242 23.9456 66.0564 23.7905C65.7886 23.6362 65.4563 23.6362 65.1885 23.7905ZM64.7545 62.6767L37.6963 78.2985C37.7048 65.8543 37.7217 45.0708 37.7319 41.6465L64.7545 26.0459V62.6767Z" fill="white"/>
<path d="M42.8479 66.8511L60.4692 56.6775C60.8845 56.4377 61.0269 55.9071 60.7862 55.4918C60.5471 55.0748 60.0149 54.9358 59.6012 55.1739L41.98 65.3475C41.5647 65.5873 41.4223 66.1179 41.663 66.5332C41.8993 66.9467 42.4302 67.0909 42.8479 66.8511Z" fill="white"/>
<path d="M42.8479 71.6611L60.4692 61.4867C60.8845 61.2469 61.0269 60.7163 60.7862 60.3009C60.5471 59.8839 60.0149 59.7424 59.6012 59.9831L41.98 70.1575C41.5647 70.3974 41.4223 70.9279 41.663 71.3433C41.8993 71.7567 42.4302 71.9009 42.8479 71.6611Z" fill="white"/>
<path d="M45.6756 59.8094C45.8247 59.8094 45.9756 59.7704 46.1095 59.6932L57.1942 53.2931C57.4637 53.1372 57.6282 52.8499 57.6282 52.5388L57.6265 51.8845C57.6159 47.698 54.4212 45.8563 50.7645 47.9669C47.4114 49.902 44.7941 54.4357 44.8059 58.2896L44.8076 58.944C44.8076 59.4252 45.2027 59.8094 45.6756 59.8094ZM51.6324 49.4706C54.0852 48.0546 55.8835 49.0005 55.8906 51.8896V52.0413L46.5943 57.4082C46.9554 54.3984 49.1134 50.9242 51.6324 49.4706Z" fill="white"/>
<path d="M51.6205 45.5962C53.4598 44.5342 54.8973 42.0499 54.8905 39.9403C54.8834 37.4815 52.9014 36.3212 50.7339 37.5654C48.8998 38.6249 47.4674 41.1108 47.4741 43.2255C47.4813 45.6905 49.4786 46.8305 51.6205 45.5962ZM51.6019 39.069C52.5738 38.5079 53.151 38.7959 53.1546 39.9454C53.158 41.4397 52.0596 43.3391 50.7526 44.0926C49.7596 44.6652 49.2135 44.3265 49.21 43.2205C49.2066 41.7211 50.3017 39.82 51.6019 39.069Z" fill="white"/>
<path d="M48.2301 15.2104C48.4664 15.6239 48.9973 15.7681 49.4151 15.5283L53.7225 13.0415C54.1378 12.8016 54.2802 12.271 54.0395 11.8557C53.8005 11.4387 53.2682 11.298 52.8546 11.5378L48.5471 14.0246C48.1318 14.2645 47.9894 14.7951 48.2301 15.2104Z" fill="white"/>
</svg>
