<svg width="93" height="92" viewBox="0 0 93 92" fill="none" xmlns="http://www.w3.org/2000/svg">
<path d="M32.4117 54.7068C30.6709 56.3151 29.728 58.2137 29.7064 60.1573C29.7044 60.1809 29.6925 60.2012 29.6925 60.2253L29.6812 66.1418C29.6798 66.1618 29.6696 66.1787 29.6696 66.1991C29.6696 66.245 29.6799 66.2896 29.6809 66.3353L29.6696 72.1712C29.6696 76.1313 33.1008 78.8362 36.7593 80.3964C38.0583 84.6866 41.9959 87.6599 46.5085 87.6599C50.9505 87.6599 54.8737 84.7251 56.2273 80.4906C56.9336 80.1949 57.6341 79.8912 58.2679 79.5222C61.5141 77.6448 63.3093 75.0894 63.3237 72.3212L63.3348 60.3431C63.3349 60.3008 63.3166 60.2644 63.3108 60.2236C63.2703 58.1283 62.1709 56.0987 60.1623 54.4085C60.839 51.328 62.3377 48.4519 64.5714 46.0783C70.4748 39.802 72.6556 30.9532 70.4044 22.407C69.6806 19.6719 68.4974 17.1063 66.8853 14.7822C66.6132 14.3898 66.0707 14.2889 65.6775 14.5644C65.2842 14.8373 65.1859 15.378 65.4596 15.7722C66.9556 17.9293 68.0549 20.311 68.7262 22.8503C70.8231 30.8125 68.7974 39.0519 63.3068 44.8883C59.6888 48.7342 58.0001 53.6002 58.0001 58.1157C58.0001 60.0411 56.5047 61.5181 54.8004 62.418C53.8612 62.9702 52.7764 63.3797 51.6356 63.7023V31.3262C51.6356 30.9168 51.3499 30.5633 50.9499 30.4777C50.5507 30.393 50.1447 30.5981 49.976 30.9702L46.239 39.2841L42.8877 35.6158C42.6461 35.353 42.2664 35.2666 41.9333 35.392C41.5993 35.5217 41.379 35.8429 41.379 36.2015V63.6935C38.6867 62.937 35.3638 61.2925 35.0278 58.5303C34.9079 57.5129 34.4235 55.5434 34.2262 54.7745C34.2217 54.757 34.2064 54.7455 34.2008 54.7284C33.4057 51.6025 32.002 47.2702 29.9595 45.1612C25.769 40.8462 23.4619 35.1504 23.4619 29.1233C23.4619 14.0411 37.7168 2.71714 53.1205 6.98189C54.9293 7.48281 56.6719 8.21512 58.2976 9.15848C58.7129 9.39835 59.2435 9.25595 59.4842 8.84318C59.7249 8.42787 59.5834 7.89728 59.1689 7.65657C57.4144 6.63947 55.5353 5.84952 53.5833 5.30876C45.7949 3.15167 37.7513 4.63578 31.519 9.37801C25.2952 14.1126 21.7261 21.3094 21.7261 29.1233C21.7261 35.6048 24.2078 41.7302 28.7127 46.3691C30.352 48.0618 31.6325 51.8193 32.4117 54.7068ZM43.3226 65.8592C47.326 66.4494 52.1872 65.9653 55.654 63.9403C58.4534 62.4526 59.7444 60.1924 59.7444 58.1225C59.7444 57.9673 59.7624 57.8144 59.7665 57.6596C60.7159 58.8153 61.1784 60.0788 61.0836 61.328C61.0143 62.2377 60.649 63.1269 60.0343 63.9637C59.3591 64.7158 58.4859 65.4201 57.4093 66.044L57.4068 66.0457C49.9909 70.3733 37.5358 69.0377 32.9439 63.8005C32.3698 63.0025 32.0167 62.1611 31.9352 61.3018C31.8183 60.0717 32.2267 58.8586 33.1256 57.7362C33.2973 58.5966 33.2555 58.7119 33.3583 59.1856C34.2258 63.2021 39.1887 65.2534 43.3226 65.8592ZM61.5934 66.3173C61.5931 66.3268 61.5879 66.3346 61.5879 66.344C61.5769 68.4664 60.0894 70.4912 57.3966 72.0483C48.0321 77.5011 31.6213 73.6445 31.4167 66.3259L31.4198 64.6824C31.4613 64.7333 31.5063 64.7832 31.5492 64.8336C34.5965 69.0379 41.3486 70.765 46.6281 70.765C50.7058 70.765 54.7716 69.8488 57.9323 68.0146C59.4345 67.1429 60.6172 66.1121 61.4462 64.9806C61.497 64.9218 61.546 64.8627 61.5948 64.8032L61.5934 66.3173ZM54.0495 81.2971C52.6077 84.089 49.7124 85.924 46.5085 85.924C43.2462 85.924 40.3314 84.0593 38.921 81.2259C43.5053 82.614 49.3706 82.6839 54.0495 81.2971ZM57.3966 78.0203C54.2517 79.8514 49.8597 80.638 46.2218 80.5802C40.5092 80.4935 31.4055 77.8534 31.4055 72.1729L31.4083 70.6916C34.7325 74.7529 41.2929 76.3396 46.6281 76.3396C50.8583 76.3396 55.0734 75.4106 58.2679 73.5502C59.6543 72.7484 60.7579 71.8175 61.5893 70.8049L61.5879 72.3161C61.5769 74.4384 60.0894 76.4633 57.3966 78.0203ZM43.1148 38.4382L45.8483 41.4302C46.2803 41.8991 47.0301 41.7584 47.2807 41.2005L49.8997 35.3742V64.0937C49.7927 64.1123 49.6867 64.132 49.579 64.1488C48.1117 64.3765 46.5947 64.4373 45.0881 64.3302C44.4199 64.2823 43.765 64.1991 43.1148 64.0852V38.4382Z" fill="white"/>
<path d="M39.9882 10.6799C35.2892 12.3488 31.4318 15.7095 29.1264 20.144C28.906 20.5686 29.0713 21.0933 29.4968 21.3145C29.9229 21.5346 30.4456 21.3694 30.6673 20.9441C32.7685 16.9012 36.2851 13.8371 40.5696 12.3157C41.0214 12.1555 41.257 11.6589 41.0968 11.2071C40.9358 10.7553 40.4408 10.5197 39.9882 10.6799Z" fill="white"/>
<path d="M63.3279 13.1455C63.6606 13.4963 64.2077 13.5076 64.5552 13.1811C64.9036 12.8514 64.9197 12.3022 64.5908 11.9538C63.9195 11.2427 63.2008 10.5689 62.4566 9.95181C62.0862 9.64499 61.5395 9.69838 61.2344 10.0654C60.9284 10.4349 60.9793 10.9816 61.348 11.2876C62.0387 11.8606 62.7049 12.4861 63.3279 13.1455Z" fill="white"/>
</svg>
