<svg width="93" height="92" viewBox="0 0 93 92" fill="none" xmlns="http://www.w3.org/2000/svg">
<path d="M21.2806 40.3449C21.2823 40.823 21.6705 41.2103 22.1485 41.2103H22.151C22.6299 41.2086 23.0181 40.8196 23.0164 40.3399L22.9825 28.3028L32.4853 33.8254L32.6313 85.2821L23.1275 79.7592L23.0605 55.8193C23.0588 55.3412 22.6706 54.9539 22.1926 54.9539H22.19C21.7111 54.9556 21.323 55.3446 21.3246 55.8243L21.3933 80.2618C21.3941 80.5704 21.5586 80.8551 21.8247 81.0094C21.9001 81.0532 20.7613 80.3915 33.0704 87.5451C33.3344 87.6971 33.6659 87.7007 33.9375 87.5443L71.3235 65.9589C71.5931 65.8029 71.7584 65.5156 71.7575 65.2045L71.6058 11.7382C71.6052 11.5633 71.443 11.1465 71.1744 10.9906L71.1724 10.9894L71.171 10.9881L71.1692 10.9875L59.9329 4.45744C59.6625 4.29979 59.3311 4.30149 59.0624 4.45575L21.6764 26.0403C21.3699 26.2177 21.2429 26.6164 21.2424 26.7912L21.2429 26.7929L21.2424 26.7946L21.2806 40.3449ZM34.3672 85.2914L34.2215 33.8255C42.9491 28.7867 61.54 18.0534 69.8742 13.2418L70.02 64.707L34.3672 85.2914ZM59.4947 6.21024L69.0061 11.7382L33.3531 32.3221C33.1214 32.1875 23.6584 26.688 23.842 26.7946L59.4947 6.21024Z" fill="white"/>
<path d="M22.1807 51.6314C22.6604 51.6297 23.0477 51.2406 23.046 50.7609L23.0308 45.55C23.0291 45.0711 22.6409 44.6846 22.1629 44.6846H22.1603C21.6806 44.6863 21.2932 45.0753 21.2949 45.555L21.3102 50.766C21.3119 51.2449 21.7001 51.6314 22.1781 51.6314H22.1807Z" fill="white"/>
<path d="M49.7289 45.4432C49.4602 45.288 49.1288 45.2906 48.8618 45.444L38.2933 51.5457C38.0238 51.7017 37.8585 51.989 37.8594 52.3001L37.889 62.9C37.8899 63.2093 38.056 63.495 38.3239 63.6501C38.5878 63.8021 38.9193 63.8057 39.1909 63.6492L49.7594 57.5475C50.029 57.3915 50.1942 57.1042 50.1934 56.7931L50.1637 46.1933C50.1629 45.8839 49.9968 45.5983 49.7289 45.4432ZM39.6207 61.3964L39.5969 52.7976L48.4321 47.6969L48.4559 56.2956L39.6207 61.3964Z" fill="white"/>
<path d="M65.1734 36.0443L54.5752 42.146C54.3057 42.3012 54.1395 42.5893 54.1404 42.9004L54.1709 53.5003C54.1717 53.8096 54.3379 54.0953 54.6057 54.2504C54.8697 54.4024 55.2011 54.406 55.4728 54.2495L66.0404 48.1478C66.3091 47.9927 66.4744 47.7062 66.4744 47.396V36.7961C66.4744 36.4859 66.3091 36.2003 66.0413 36.0443C65.7718 35.89 65.4412 35.8892 65.1734 36.0443ZM64.7386 46.895L55.9025 51.9966L55.8779 43.3988L64.7386 38.2972V46.895Z" fill="white"/>
<path d="M65.1734 51.8458L54.5752 57.9467C54.3065 58.101 54.1404 58.3883 54.1404 58.6985V69.2992C54.1404 69.6094 54.3057 69.8959 54.5735 70.051C54.8489 70.2087 55.1776 70.203 55.4414 70.051L66.0396 63.9484C66.3083 63.7942 66.4744 63.5068 66.4744 63.1966V52.5976C66.4744 52.2874 66.3091 52.0017 66.0413 51.8466C65.7718 51.6898 65.4412 51.6907 65.1734 51.8458ZM64.7386 62.6949L55.8762 67.7981V59.2003L64.7386 54.0987V62.6949Z" fill="white"/>
<path d="M48.8924 61.2455L38.2942 67.3464C38.0247 67.5015 37.8585 67.7897 37.8594 68.1007L37.889 78.7014C37.8899 79.0108 38.056 79.2964 38.3239 79.4516C38.5878 79.6036 38.9193 79.6072 39.1909 79.4507L49.7594 73.3481C50.0281 73.193 50.1934 72.9065 50.1934 72.5963V61.9973C50.1934 61.6871 50.0281 61.4014 49.7603 61.2463C49.4908 61.0904 49.1602 61.0895 48.8924 61.2455ZM48.4576 72.0954L39.6207 77.1978L39.5969 68.5991L48.4576 63.4984V72.0954Z" fill="white"/>
<path d="M66.9559 19.0808C66.6872 18.9257 66.3558 18.9282 66.0888 19.0816L37.254 35.729C36.9845 35.885 36.8192 36.1723 36.8201 36.4834L36.8506 47.4011C36.8514 47.7104 37.0176 47.9961 37.2854 48.1512C37.4193 48.2283 37.5693 48.2664 37.7185 48.2664C37.8685 48.2664 38.0186 48.2275 38.1525 48.1503L66.9872 31.5021C67.2568 31.3462 67.422 31.0588 67.4212 30.7478L67.3907 19.8309C67.3898 19.5215 67.2237 19.2359 66.9559 19.0808ZM38.5822 45.8975L38.5576 36.9809L65.6591 21.3345L65.6836 30.2502L38.5822 45.8975Z" fill="white"/>
<path d="M58.7234 47.0637L62.7596 44.7337C63.1749 44.4938 63.3173 43.9633 63.0775 43.5479C62.8367 43.1326 62.3053 42.9902 61.8917 43.2301L57.8555 45.5601C57.4402 45.8 57.2978 46.3306 57.5377 46.7459C57.7798 47.164 58.3121 47.3013 58.7234 47.0637Z" fill="white"/>
<path d="M58.9649 61.354L62.5179 59.3028C62.9333 59.063 63.0757 58.5324 62.8358 58.1171C62.5942 57.7009 62.0636 57.5577 61.65 57.7992L58.097 59.8504C57.6816 60.0902 57.5392 60.6208 57.7791 61.0361C58.0213 61.4542 58.5536 61.5916 58.9649 61.354Z" fill="white"/>
<path d="M58.9649 64.0976L62.5179 62.0464C62.9333 61.8066 63.0757 61.276 62.8358 60.8607C62.5942 60.4454 62.0636 60.3021 61.65 60.5428L58.097 62.594C57.6816 62.8338 57.5392 63.3644 57.7791 63.7797C58.0213 64.1978 58.5536 64.3352 58.9649 64.0976Z" fill="white"/>
<path d="M41.8632 70.1536L42.8521 70.7633L41.8344 72.72C41.6132 73.1447 41.7784 73.6693 42.2031 73.8897C42.6223 74.109 43.1503 73.9507 43.3736 73.5202L44.3327 71.676L45.2781 72.259C45.6822 72.5082 46.2182 72.3864 46.4723 71.975C46.7232 71.5673 46.5969 71.0325 46.1893 70.7808L45.136 70.1314L46.2571 67.9761C46.4783 67.5515 46.313 67.0268 45.8884 66.8065C45.4603 66.581 44.9374 66.7497 44.7179 67.176L43.6555 69.2186L42.7743 68.6754C42.365 68.4228 41.8318 68.5508 41.5801 68.9593C41.3292 69.367 41.4555 69.9018 41.8632 70.1536Z" fill="white"/>
<path d="M45.6597 52.6798L44.8943 53.0928V52.2221C44.8943 51.7424 44.5061 51.3542 44.0264 51.3542C43.5467 51.3542 43.1585 51.7424 43.1585 52.2221V54.0294L41.5693 54.8869C41.1472 55.1141 40.9895 55.6413 41.2175 56.0625C41.4485 56.4907 41.9811 56.639 42.3931 56.4143L43.1585 56.0013V56.8711C43.1585 57.3508 43.5467 57.739 44.0264 57.739C44.5061 57.739 44.8943 57.3508 44.8943 56.8711V55.0647L46.4835 54.2071C46.9056 53.98 47.0633 53.4528 46.8353 53.0316C46.6081 52.6095 46.0792 52.451 45.6597 52.6798Z" fill="white"/>
</svg>
