<svg width="93" height="92" viewBox="0 0 93 92" fill="none" xmlns="http://www.w3.org/2000/svg">
<path d="M66.0852 39.3522C71.5266 36.2094 75.9391 28.5659 75.9222 22.3124C75.9137 19.1085 74.7763 16.6929 72.7234 15.5114C68.4361 13.0525 65.8791 11.5308 61.7964 9.15622C60.1177 8.17992 57.9664 8.17091 55.7063 9.09679L48.9555 5.17767C46.6721 3.84188 43.6785 4.10124 40.5288 5.90829C40.1135 6.14731 39.9694 6.67789 40.2085 7.09321C40.4475 7.50852 40.9798 7.64753 41.3934 7.41359C43.9802 5.92863 46.3551 5.66588 48.0825 6.67789L55.1844 10.8011C55.1897 10.8043 55.1917 10.8109 55.1971 10.8141L55.2291 10.8326C53.0695 11.2284 50.842 12.5076 49.1033 13.9524C44.5928 17.698 41.0511 24.1088 40.5274 29.8817L39.1794 29.0985L31.258 24.4873C31.3851 20.6613 33.0769 16.2386 35.8383 12.5483C36.1248 12.1634 36.0468 11.621 35.6637 11.3328C35.2823 11.048 34.7382 11.1243 34.4483 11.5074C31.4668 15.4919 29.6646 20.3002 29.5387 24.4863C28.6869 24.7187 27.8129 25.0543 26.915 25.5722C21.4735 28.715 17.061 36.3535 17.0779 42.6001C17.0864 45.7972 18.2171 48.2111 20.2614 49.3994L31.2139 55.7631C31.2151 55.7637 31.2163 55.7634 31.2175 55.764C31.2223 55.7668 31.2261 55.7705 31.2309 55.7733C33.598 57.1345 36.417 56.4795 38.7947 55.1088L49.8862 48.705L49.8782 55.5333L35.4213 63.8795C35.1518 64.0338 34.9873 64.322 34.9873 64.6322L34.9983 69.271C34.548 69.4209 34.0894 69.6253 33.6261 69.8974C30.2528 71.8773 27.6371 76.4746 27.6727 80.3684C27.6964 82.4009 28.4406 83.9401 29.7408 84.6843C29.9156 84.7948 32.7139 86.5571 33.705 87.1813C33.7065 87.1822 33.7076 87.1837 33.7092 87.1847C35.2426 88.0524 37.0368 87.6436 38.5506 86.7558C41.924 84.7758 44.5362 80.1735 44.4972 76.2763C44.4791 74.2972 43.7568 72.8002 42.4835 72.0205C42.4638 72.0055 42.4521 71.984 42.4308 71.9706L38.4794 69.4787C37.9519 69.1768 37.3559 69.0574 36.7337 69.0349L36.7249 65.1306L64.7765 48.9367L64.7835 52.0281C64.2017 52.1751 63.6083 52.388 63.0016 52.744C59.6283 54.7223 57.0126 59.3195 57.0465 63.215C57.0703 65.2475 57.8144 66.7867 59.1146 67.5309C59.2901 67.6418 62.8903 69.9224 63.0661 70.0228C63.069 70.0245 63.0726 70.0237 63.0756 70.0254C63.0784 70.0269 63.0803 70.0297 63.083 70.0313C64.6136 70.9 66.4148 70.4878 67.9244 69.6024C71.2978 67.6242 73.91 63.0218 73.8727 59.1229C73.8529 57.1421 73.1308 55.6465 71.8572 54.867C71.639 54.7016 68.9949 53.0489 67.8515 52.3236C67.442 52.0882 66.9892 51.9673 66.5191 51.9021L66.5089 47.433C66.5089 47.1228 66.3428 46.8363 66.075 46.6821C65.8038 46.5295 65.4749 46.5278 65.2071 46.6838L51.6152 54.5305L51.6232 47.702L66.0852 39.3522ZM37.6725 85.2573C35.1147 86.7641 33.3584 85.6279 33.3312 82.8247C33.3007 79.6073 35.6332 75.5067 38.4268 73.8691C40.7766 72.4861 42.7318 73.2636 42.7614 76.2932C42.7936 79.5157 40.4627 83.6214 37.6725 85.2573ZM37.5843 70.9653L38.8472 71.7621C38.4201 71.9112 37.9861 72.1147 37.547 72.3706C34.3215 74.2653 31.558 78.935 31.5936 82.8434C31.597 83.1943 31.6224 83.5299 31.6699 83.8503L30.6359 83.1976C29.8595 82.7518 29.4238 81.7415 29.4086 80.3498C29.3797 77.134 31.7123 73.0317 34.5059 71.3942C34.6776 71.2933 34.8362 71.2453 35.0026 71.1672L35.0043 71.8705C35.006 72.3503 35.3942 72.7368 35.8722 72.7368C36.352 72.7351 36.7418 72.3469 36.7401 71.8672L36.7376 70.7388C37.049 70.7571 37.3385 70.824 37.5843 70.9653ZM67.0463 68.1039C64.7098 69.4772 63.1582 68.6204 62.793 66.621C62.1988 63.3275 64.7252 58.5177 67.8007 56.7158C70.1653 55.3235 72.1076 56.1432 72.1369 59.1399C72.1674 62.3624 69.8366 66.4681 67.0463 68.1039ZM66.9582 53.8103L68.2228 54.6087C64.0199 56.0764 60.3946 62.1529 61.0437 66.6969L60.0097 66.0443C59.2333 65.5984 58.7976 64.5881 58.7824 63.1981C58.7553 59.979 61.0895 55.8784 63.8814 54.2408C64.1945 54.0567 64.4934 53.9346 64.7876 53.8259L64.7884 54.1527C64.79 54.6324 65.1782 55.0189 65.6563 55.0189C66.136 55.0172 66.5259 54.629 66.5242 54.1493L66.523 53.6384C66.6776 53.6788 66.8242 53.7341 66.9582 53.8103ZM60.9234 10.6564L68.2607 14.9395C66.8815 15.2366 65.1385 15.9985 63.3254 17.4252C62.9688 14.5876 61.659 12.6444 60.0555 11.6464C59.8736 11.4781 59.4185 11.2585 57.7257 10.2691C58.9419 10.0148 60.04 10.1437 60.9234 10.6564ZM21.1328 47.8975C19.6444 47.033 18.8206 45.1497 18.8138 42.5967C18.7968 36.9027 22.8211 29.9406 27.7829 27.0758C28.635 26.5845 29.4568 26.2441 30.2309 26.0609L39.1892 31.2682C33.0816 33.9052 28.0106 42.2829 28.0287 48.9655C28.0312 49.9405 28.1899 51.1849 28.4752 52.1081C28.4814 52.1284 28.4834 52.1526 28.4898 52.1727L21.1328 47.8975ZM37.9268 53.6035C33.2222 56.3156 29.7784 54.1769 29.7645 48.9621C29.7423 41.5021 36.1992 33.3206 41.4866 32.363C41.735 32.3173 42.1966 32.0165 42.1978 31.3559C42.1978 31.3548 42.1986 31.3538 42.1986 31.3527C42.1823 25.6466 45.6926 19.066 50.0987 15.3724C55.961 10.4631 61.655 11.717 61.6913 19.2458C61.6913 19.9931 62.5708 20.3817 63.1268 19.8935C64.0389 19.0925 65.0416 18.2579 66.0343 17.6863C70.4933 15.0793 74.1719 16.8614 74.1863 22.3158C74.2033 28.0166 70.179 34.9838 65.2172 37.8503L37.9268 53.6035Z" fill="white"/>
<path d="M37.486 10.5819C37.9793 10.0581 38.4929 9.56477 39.015 9.11555C39.3795 8.80364 39.4219 8.2561 39.1083 7.89334C38.7963 7.53057 38.2488 7.48989 37.886 7.8001C37.3165 8.28831 36.7571 8.82398 36.2214 9.39186C35.8925 9.74107 35.9095 10.2903 36.2587 10.6192C36.6072 10.9466 37.1559 10.9315 37.486 10.5819Z" fill="white"/>
</svg>
