<svg width="93" height="92" viewBox="0 0 93 92" fill="none" xmlns="http://www.w3.org/2000/svg">
<path d="M44.6184 10.7528C43.7488 11.4046 42.8928 12.1319 42.0723 12.915C41.7248 13.2464 41.7112 13.7957 42.0435 14.1423C42.37 14.4868 42.9204 14.5039 43.2691 14.1711C44.0421 13.4346 44.8456 12.7523 45.6593 12.1412C46.0424 11.8538 46.1204 11.3097 45.8339 10.9266C45.544 10.5409 45.0015 10.4664 44.6184 10.7528Z" fill="white"/>
<path d="M8.63005 75.3971C13.2468 78.0805 24.1323 84.4047 23.7475 84.1832C26.5688 85.8076 29.9552 85.0035 32.7862 83.3686C34.2932 82.4999 76.1078 58.3573 78.4709 56.9927C83.831 53.8973 88.1774 46.3666 88.1604 40.2063C88.1519 37.044 87.0297 34.6589 85.0006 33.4918C80.9488 31.1533 81.7716 31.6146 78.6904 29.8232C78.772 29.007 78.8254 28.1998 78.8234 27.4121C78.8099 22.4147 77.0588 18.6599 73.8956 16.8393C73.8841 16.8327 73.8712 16.829 73.8597 16.8224L58.829 8.07448C55.8845 6.36999 52.0297 6.57426 47.9664 8.64745C47.5392 8.86528 47.3697 9.38824 47.5883 9.81542C47.8087 10.2426 48.3325 10.4121 48.7563 10.1934C52.2772 8.39572 55.5471 8.17789 57.956 9.57555L68.5338 15.7315C68.5135 15.7332 68.4921 15.7392 68.4717 15.741C68.3801 15.7493 68.2846 15.7729 68.1923 15.7835C66.3268 15.998 64.3396 16.6786 62.3009 17.8341C62.24 17.8685 62.1802 17.8933 62.1193 17.9285C55.3048 21.8625 49.7176 29.9496 47.4967 37.8014C47.4934 37.8128 47.4885 37.8238 47.4854 37.8351C47.3069 37.7313 33.0474 29.4357 33.9456 29.9582C35.0899 25.6372 37.3072 21.2451 40.233 17.525C40.5297 17.1487 40.4653 16.6029 40.0889 16.3062C39.7143 16.0138 39.1668 16.0748 38.8701 16.452C35.8088 20.3435 33.4988 24.9408 32.2913 29.4746C30.4264 29.3475 28.3558 29.8788 26.2174 31.1126C20.7069 34.293 16.0231 41.2199 14.7072 48.0518C8.95648 52.4651 4.82133 60.4846 4.83966 67.2663C4.84983 71.0965 6.19579 73.9842 8.63005 75.3971ZM78.4454 31.6907L80.5813 32.9358C80.5614 32.94 80.5405 32.9492 80.5206 32.9537C79.6949 33.1394 78.7465 33.5047 77.9994 33.8977C77.991 33.902 77.9826 33.9047 77.9743 33.909C78.1492 33.2181 78.288 32.5367 78.4091 31.8601C78.4194 31.8035 78.4355 31.7471 78.4454 31.6907ZM77.0876 27.4172C77.0943 29.9943 76.4923 33.1271 75.6569 35.6311C75.4698 36.191 75.8882 36.7736 76.4807 36.7736C76.485 36.7736 76.4885 36.7698 76.4927 36.7697C76.6108 36.7691 76.7166 36.7075 76.826 36.6589C78.0132 36.1266 81.1126 33.2524 84.1344 34.9963C85.6041 35.8421 86.4178 37.6941 86.4246 40.2114C86.4415 45.8173 82.4833 52.6709 77.6029 55.4891C75.2399 56.8537 33.4201 80.9988 31.9182 81.865C29.1127 83.4881 26.514 83.7729 24.6138 82.6787C22.4183 81.4161 21.6777 78.5865 21.671 76.0328C21.654 69.7624 25.7038 62.0155 31.091 58.0132C31.2331 57.9077 31.4027 57.6119 31.4283 57.4674C33.0652 48.1904 41.7174 38.8783 47.8748 40.0089C47.9059 40.015 47.9353 40.0074 47.9661 40.01C48.4282 40.0477 48.7939 39.707 48.8784 39.3655C50.8702 31.1635 56.5422 23.1513 62.994 19.4287C63.0171 19.4154 63.0394 19.406 63.0624 19.3928C70.7789 14.9811 77.0625 18.2396 77.0876 27.4172ZM27.0853 32.6162C29.1076 31.4491 31.0249 30.9635 32.6353 31.2126C32.8103 31.3144 45.824 38.8784 45.0003 38.3996C44.9276 38.4155 44.8506 38.4516 44.7774 38.4693C37.7085 40.1877 31.6314 48.8482 29.9671 55.9595L16.9076 48.3711L16.4481 48.1041C17.7382 41.9117 22.1371 35.4726 27.0853 32.6162ZM15.5463 49.5874L29.0381 57.4275C27.1753 59.0008 24.9425 61.5604 23.1959 64.6899C21.2984 68.0916 19.9236 72.1108 19.9351 76.0379C19.9383 77.2137 20.1115 78.8248 20.6194 80.237C20.6355 80.2816 20.6406 80.336 20.6572 80.3801L9.50136 73.8969C7.62312 72.8061 6.58398 70.4489 6.57551 67.2612C6.55856 61.1654 10.3845 53.6761 15.5463 49.5874Z" fill="white"/>
<path d="M58.9325 50.6799C60.0649 48.8771 60.7056 46.8658 60.7006 45.0926C60.69 41.3775 57.8118 39.7191 54.581 41.5854C51.6331 43.2881 49.3294 47.2718 49.3396 50.6545C49.3446 52.4166 49.9905 53.7719 51.1076 54.4449L48.848 62.5774C48.753 62.9173 48.8734 63.2801 49.1514 63.4962C49.424 63.7066 49.8047 63.7414 50.1176 63.5615L61.2701 57.1215C61.6685 56.891 61.8194 56.3892 61.6109 55.9781L58.9325 50.6799ZM51.089 60.9967L52.9808 54.183C53.1091 53.727 52.8438 53.2416 52.3705 53.1125C51.5517 52.8913 51.0788 51.9937 51.0754 50.6494C51.0686 47.9244 53.0706 44.462 55.4489 43.089C57.4925 41.9092 58.9576 42.699 58.9647 45.0977C58.9698 46.648 58.3155 48.5296 57.2153 50.1315C57.0356 50.3934 57.0136 50.7316 57.156 51.0147L59.6919 56.029L51.089 60.9967Z" fill="white"/>
</svg>
