<svg width="93" height="92" viewBox="0 0 93 92" fill="none" xmlns="http://www.w3.org/2000/svg">
<path d="M26.8457 18.7889L24.5708 23.2819C24.3547 23.7099 24.5259 24.232 24.9531 24.449C25.3816 24.6647 25.9031 24.4938 26.1202 24.0668L28.3951 19.5737C28.6112 19.1457 28.44 18.6236 28.0129 18.4066C27.5831 18.1922 27.0636 18.3617 26.8457 18.7889Z" fill="white"/>
<path d="M73.8865 47.1142C73.8744 47.1073 73.861 47.1036 73.8488 47.0969L67.7882 43.6213C64.7564 41.8863 60.81 42.2669 56.6806 44.6952C54.761 45.8211 52.9352 47.3314 51.2579 49.0904L51.2145 34.5581L60.8473 28.9777C61.0787 28.8437 61.2355 28.6107 61.272 28.3454C61.3092 28.0801 61.2211 27.8131 61.0346 27.6215L43.0547 9.14009C43.0404 9.12124 43.0212 9.10693 43.0052 9.08924L42.982 9.0654C42.9775 9.06085 42.971 9.0601 42.9664 9.05565C42.9154 9.00533 42.8676 8.95204 42.8031 8.91453L35.1308 4.4554C34.9249 4.33504 34.6791 4.30707 34.4477 4.37318C34.2188 4.44099 34.0281 4.60034 33.9196 4.81393L28.8146 14.8993C28.5985 15.3265 28.7697 15.8486 29.1977 16.0656C29.6283 16.2826 30.1479 16.1105 30.364 15.6825L35.0537 6.4184L41.2479 10.0187C23.7995 48.2998 24.5741 46.5505 24.5301 46.7328L24.0704 47.7495L16.3908 43.2874L23.9529 28.3479C24.169 27.9207 23.9978 27.3986 23.5698 27.1816C23.1435 26.9655 22.6205 27.1376 22.4035 27.5647L14.4718 43.2348C14.2642 43.6451 14.4125 44.146 14.8109 44.3765L24.0351 49.7366C24.0452 49.7426 24.0579 49.74 24.0682 49.7455C24.1489 49.7876 24.232 49.814 24.3203 49.8289C24.3471 49.8335 24.3695 49.841 24.3966 49.843C24.4192 49.8448 24.4405 49.8553 24.4631 49.8553C24.4651 49.8553 24.4666 49.8538 24.4685 49.8538C24.4693 49.8538 24.47 49.8545 24.4708 49.8545C24.4869 49.8545 24.5023 49.8479 24.5184 49.847L24.6021 81.4328C24.603 81.7405 24.7674 82.0253 25.0336 82.1804L34.251 87.5439C34.2518 87.5443 34.2526 87.5441 34.2534 87.5445C34.2542 87.545 34.2544 87.546 34.2553 87.5465C34.3892 87.6236 34.5384 87.6617 34.6875 87.6617C34.8376 87.6617 34.9867 87.6227 35.1215 87.5456C35.1212 87.5458 35.1218 87.5454 35.1215 87.5456L47.1149 80.6108L52.8783 83.9146L52.8821 83.9081C52.8933 83.9146 52.9027 83.9235 52.9139 83.9298C56.406 85.9082 60.5679 84.8514 64.0029 82.8364C72.1541 78.0552 78.7118 66.5018 78.6211 57.0818C78.5754 52.3582 76.8937 48.8179 73.8865 47.1142ZM26.3363 80.9302L26.2524 48.9662L33.7018 44.6571L33.8154 85.2826L26.3363 80.9302ZM35.5512 85.2919L35.4334 43.1526C35.4316 42.4812 34.7028 42.0738 34.1307 42.4042L26.3797 46.8871L42.6263 11.189L59.014 28.0335L49.9101 33.308C49.6414 33.4639 49.4762 33.7512 49.477 34.0615L49.5279 51.0207C45.0586 56.5069 41.4647 64.9277 42.1318 72.0006C42.3605 74.414 43.1577 76.9815 44.7657 78.7837C44.7716 78.7904 44.7787 78.7958 44.7847 78.8025C45.0164 79.0605 45.2595 79.3048 45.5188 79.5283L35.5512 85.2919ZM45.9931 77.5474C40.3032 70.9552 46.2702 52.8137 57.5595 46.1921C59.7116 44.9275 61.7746 44.2875 63.6138 44.2875C64.8276 44.2875 65.9447 44.5664 66.9253 45.1275L68.6527 46.1183C66.6345 46.3361 64.5427 47.1845 62.8044 48.2042C54.7159 52.948 48.0834 64.5221 48.1675 73.936C48.1946 76.3773 48.6913 78.4377 49.3482 79.8902C47.9174 79.0258 46.9854 78.6976 45.9931 77.5474ZM63.1248 81.3396C59.5548 83.4306 56.2314 83.8154 53.7692 82.4194C50.9007 80.7956 49.9414 77.2191 49.9093 73.9199C49.8248 65.1902 55.9547 54.2347 63.6825 49.7019C71.0203 45.391 76.8045 48.6446 76.8853 57.0987C76.9709 65.9645 70.7979 76.8389 63.1248 81.3396Z" fill="white"/>
<path d="M62.9621 64.766C62.5442 65.0101 62.1637 65.0838 61.9458 64.9618C61.7314 64.8406 61.6009 64.4837 61.5966 64.0074C61.5831 62.6267 62.5841 60.8679 63.7809 60.1653C64.1945 59.9204 64.5691 59.8475 64.7895 59.9729C65.0039 60.0941 65.1353 60.4518 65.1395 60.9281C65.1438 61.4045 65.532 61.7876 66.0075 61.7876H66.0159C66.4948 61.7833 66.8796 61.3909 66.8754 60.9112C66.8644 59.7915 66.416 58.899 65.6447 58.4625C65.219 58.2217 64.7222 58.1514 64.2019 58.2183L64.1911 56.5851C64.1877 56.1079 63.8004 55.7231 63.3232 55.7231H63.3172C62.8383 55.7265 62.4518 56.1172 62.4552 56.597L62.4709 58.9708C60.9624 60.0946 59.8437 62.2041 59.8608 64.0243C59.8841 66.3879 61.8132 67.4546 63.8402 66.2628C64.2547 66.0196 64.6301 65.9467 64.848 66.0704C65.0624 66.1925 65.1938 66.5493 65.198 67.0265C65.2116 68.4021 64.214 70.1558 63.0206 70.8559C62.6002 71.1017 62.2188 71.1737 62.0026 71.0508C61.7899 70.9296 61.6594 70.577 61.6551 70.1057C61.6509 69.6277 61.3356 69.2488 60.7787 69.2463C60.2998 69.2505 59.915 69.643 59.9193 70.1227C59.9303 71.2364 60.3778 72.1247 61.1466 72.5612C61.4797 72.7494 61.8551 72.8434 62.2518 72.8434C62.3535 72.8434 62.4613 72.8082 62.5654 72.796L62.5764 74.4589C62.5798 74.9361 62.9672 75.3209 63.4444 75.3209H63.4503C63.9292 75.3175 64.3157 74.9268 64.3123 74.4471L64.2966 72.074C65.818 70.9595 66.951 68.8389 66.9339 67.0095C66.9107 64.6537 64.9925 63.5776 62.9621 64.766Z" fill="white"/>
</svg>
