<svg width="93" height="92" viewBox="0 0 93 92" fill="none" xmlns="http://www.w3.org/2000/svg">
<path d="M52.5422 53.2317C50.2961 54.5285 48.5416 57.5679 48.5501 60.1505C48.557 63.0716 50.8527 64.4452 53.4339 62.9551C55.6816 61.6583 57.4361 58.613 57.4277 56.0219C57.4207 53.1094 55.123 51.7468 52.5422 53.2317ZM52.5659 61.4515C51.1805 62.252 50.2895 61.7538 50.2859 60.1454C50.2808 58.1943 51.7116 55.7159 53.4101 54.7353C54.7573 53.9503 55.6882 54.3944 55.6918 56.027C55.6969 57.9866 54.2662 60.4709 52.5659 61.4515Z" fill="white"/>
<path d="M57.6243 25.4827L47.3313 31.4259C47.0347 31.598 46.8668 31.9277 46.9024 32.2693L48.8281 50.4965C48.8931 51.1171 49.5784 51.4716 50.1249 51.1568L56.6751 47.3749C56.9192 47.2333 57.0802 46.9816 57.1056 46.7002L58.9228 26.3116C58.9517 25.9887 58.7991 25.6768 58.5245 25.503C58.2549 25.3292 57.904 25.3216 57.6243 25.4827ZM55.4172 46.0967L50.4131 48.9853L48.6874 32.6473L57.0463 27.8211L55.4172 46.0967Z" fill="white"/>
<path d="M36.3721 10.0075C35.2211 10.8356 34.0717 11.7552 32.958 12.741C32.5986 13.058 32.5647 13.6063 32.8817 13.9657C33.2042 14.3277 33.7517 14.3565 34.1073 14.0411C35.1787 13.0944 36.2822 12.2112 37.3858 11.4162C37.7757 11.1365 37.8638 10.594 37.5841 10.205C37.2993 9.8151 36.7569 9.72865 36.3721 10.0075Z" fill="white"/>
<path d="M71.2334 13.6471C71.2137 13.6334 71.2018 13.6127 71.1806 13.6004L71.1773 13.5987C71.1722 13.5945 71.1654 13.5911 71.1586 13.5868L58.3584 6.16117C53.3051 3.2209 46.6364 3.84473 39.5896 7.92499C39.1759 8.16485 39.0335 8.69629 39.2743 9.11076C39.515 9.52692 40.0472 9.66423 40.4609 9.4269C46.9449 5.67211 52.9898 5.04575 57.4871 7.66224L64.5865 11.7806C60.4515 11.6967 56.0867 13.2583 52.4995 15.3168C52.4684 15.3347 52.4378 15.3471 52.4067 15.3651C38.4913 23.3983 26.8245 43.1933 26.8792 59.5512C26.8792 59.5522 26.8793 59.5529 26.8793 59.5539C26.8793 59.555 26.8792 59.5561 26.8792 59.5572C26.8903 63.2416 27.4984 67.0624 29.1327 70.3459C29.1509 70.3827 29.1631 70.4256 29.1816 70.4622C29.0059 70.36 19.095 64.5984 19.7222 64.9631C17.1676 62.0109 15.8098 57.5696 15.7928 52.1078C15.7674 40.5247 21.7835 26.7142 31.1205 16.9221C31.4511 16.5746 31.4375 16.0253 31.09 15.6948C30.7442 15.3651 30.1949 15.3769 29.8627 15.7236C20.2342 25.8225 14.0299 40.1052 14.057 52.112C14.0749 57.8459 15.5173 62.5645 18.2086 65.8294L14.435 79.1109C14.3282 79.4923 14.4909 79.8992 14.8351 80.0983L27.6539 87.5486C27.9822 87.7398 28.378 87.6856 28.6422 87.4681L39.9591 78.143C44.0614 78.6134 48.7095 77.4191 53.4391 74.6874C67.5479 66.5413 78.9886 46.7163 78.9428 30.4944C78.9209 22.528 76.1814 16.5569 71.2334 13.6471ZM19.6934 66.9557C19.8687 67.0576 31.7116 73.9434 30.9638 73.5086C30.8817 73.7976 27.4498 85.8716 27.5595 85.4858L16.2895 78.9363L19.6934 66.9557ZM52.5711 73.1838C48.0281 75.8045 43.6207 76.908 39.8167 76.3758C39.5743 76.3385 39.3336 76.4105 39.1437 76.5656L29.6861 84.358C30.0313 83.1428 32.4728 74.5498 32.8191 73.3312C32.8812 73.109 32.8449 72.7625 32.6363 72.5239C32.6353 72.5228 32.6352 72.5213 32.6343 72.5201C32.3077 72.1499 32.0002 71.7559 31.7121 71.3391C29.6971 68.4157 28.6305 64.3774 28.6152 59.5493C28.5716 43.6071 39.9689 24.5512 53.2814 16.8661C58.5047 13.8476 65.0831 12.0944 70.267 15.0811C74.7218 17.6451 77.1866 23.1204 77.207 30.4995C77.251 46.1671 66.2003 65.3148 52.5711 73.1838Z" fill="white"/>
</svg>
