<svg width="93" height="92" viewBox="0 0 93 92" fill="none" xmlns="http://www.w3.org/2000/svg">
<path d="M51.6626 10.4691L54.2494 8.96632C54.6647 8.7256 54.8054 8.19502 54.5647 7.78055C54.3223 7.36269 53.7883 7.22538 53.3781 7.4661L50.7912 8.96886C50.3759 9.20957 50.2352 9.74016 50.4759 10.1546C50.7134 10.5645 51.2425 10.7128 51.6626 10.4691Z" fill="white"/>
<path d="M52.9934 42.3111L52.3255 44.7258C52.3153 44.7555 52.2662 44.8394 52.2238 44.8784C51.4965 45.4793 50.7846 46.1735 50.1845 46.8956L48.6521 46.7176C48.3859 46.6626 48.1011 46.7058 47.7265 46.899C47.4858 47.0491 47.2569 47.2737 47.0671 47.5568L45.733 49.6884C45.3736 50.2766 45.3363 50.9242 45.6313 51.5201L46.3517 52.9194L46.3483 52.9253C45.9245 53.9213 45.6008 54.8867 45.416 55.7012C45.3499 55.8876 45.2804 55.9826 45.255 56.0063L43.3089 57.6633C42.8631 58.0193 42.5664 58.5838 42.5325 59.1525L42.4478 61.2274C42.4139 61.7987 42.6817 62.1259 42.8427 62.2708C43.0462 62.4522 43.3987 62.6471 43.9531 62.5513L45.1922 62.3784C45.3719 63.0345 45.5906 63.5845 45.7889 63.9566L44.7481 66.5384C44.4379 67.2385 44.5854 67.9572 45.0956 68.3132L46.3585 69.2337C46.7743 69.4688 47.247 69.4205 47.6621 69.1879C47.7892 69.1116 47.957 68.9981 48.0842 68.8362L49.92 66.8452C50.3981 66.9079 50.8982 66.9088 51.3898 66.852L51.7576 68.4403C51.8644 68.7862 52.0983 69.0548 52.4153 69.1947C52.7476 69.343 53.1273 69.3278 53.5138 69.1481L55.3327 68.2284C55.6633 68.0386 56.1057 67.625 56.3413 66.7392L56.9974 64.3516C57.0194 64.2702 57.0669 64.2041 57.1177 64.1643C57.8924 63.5447 58.5993 62.8022 59.2129 62.1462L61.1064 62.3962C61.4404 62.4429 61.776 62.2844 61.9557 61.997L63.9238 58.855C64.0865 58.594 64.1001 58.266 63.9577 57.9922L63.0101 56.0894C63.4661 54.9409 63.7594 54.0586 63.9662 53.211C63.9747 53.1805 64.0272 53.0923 64.0781 53.0457L66.0631 51.3548C66.4716 51.009 66.7666 50.425 66.8005 49.8893L66.9039 47.7907C66.9344 47.266 66.7174 46.9473 66.5293 46.7719C66.3343 46.5905 65.9767 46.393 65.4071 46.4659L65.3969 46.4668L64.2171 46.6354C64.0628 46.0294 63.7967 45.5327 63.5577 45.0835C63.5543 45.0776 63.5509 45.0691 63.5441 45.0589L64.6375 42.4246C64.8833 41.6457 64.7138 40.9922 64.2493 40.7185L63.105 39.8912C62.7135 39.5657 62.1608 39.5429 61.7065 39.8293C61.5251 39.9378 61.3692 40.0726 61.2522 40.2133L59.452 42.1924C58.9621 42.128 58.4637 42.1297 57.9636 42.189L57.5991 40.6964C57.4368 39.8957 56.6206 39.4983 55.8379 39.8861L53.9867 40.8219C53.507 41.0956 53.1798 41.5881 52.9934 42.3111ZM65.6495 48.1848C65.6495 48.1848 65.6478 48.1848 65.641 48.1848L65.519 47.3262L65.6495 48.1848ZM54.6699 42.7611C54.7614 42.4136 54.8394 42.3424 54.8157 42.3475L56.0616 41.7178L56.3769 43.0052C56.4922 43.6562 57.0889 44.1215 57.7737 43.9791C58.3179 43.8664 58.8569 43.8486 59.335 43.9283C59.5435 43.9723 59.8673 43.9791 60.2182 43.7816C60.408 43.6842 60.547 43.5451 60.686 43.4053L62.4117 41.5287L62.9677 41.9297L61.9252 44.4317C61.7167 44.992 61.7591 45.5319 62.0252 45.8997C62.288 46.3905 62.5134 46.8151 62.5829 47.2762C62.6117 47.6364 62.7982 47.9814 63.0813 48.1984C63.3441 48.4001 63.6712 48.4755 63.9492 48.4272L65.1426 48.2569L65.068 49.7893C65.0613 49.8529 64.9884 49.9885 64.9392 50.0317L62.9304 51.743C62.7728 51.8871 62.3914 52.282 62.2761 52.8177C62.093 53.5661 61.8218 54.3773 61.4048 55.4283C61.2082 55.8876 61.1895 56.3386 61.3828 56.8098L62.188 58.3541L60.781 60.6028L59.2706 60.4027C58.9349 60.351 58.6145 60.4197 58.4315 60.5527C58.2348 60.6511 58.084 60.8019 57.9331 60.9536C57.1771 61.7902 56.5905 62.3623 56.065 62.7853C55.7141 63.0396 55.4446 63.4464 55.3225 63.8956L54.6648 66.2866C54.5885 66.574 54.4936 66.7011 54.5089 66.7011L53.2782 67.3232L52.951 65.9112C52.7798 65.3484 52.2441 64.9958 51.5847 65.0687C51.0117 65.1738 50.4727 65.1856 49.9811 65.0992C49.6573 65.0466 49.325 65.1246 49.125 65.2661C48.9131 65.3721 48.7453 65.5043 48.6453 65.6323L46.9433 67.5173L46.389 67.1088L47.4044 64.5906C47.5824 64.1262 47.5926 63.693 47.3756 63.1811C47.1298 62.7675 46.9247 62.2123 46.7755 61.5732C46.6602 60.9342 46.1381 60.5248 45.455 60.59L44.2039 60.7646L44.2667 59.2381C44.2701 59.189 44.326 59.0729 44.4125 59.0034L46.3687 57.3379C46.7264 57.0446 46.9366 56.6039 47.0773 56.1919C47.2688 55.3799 47.5604 54.5095 47.9418 53.6119C48.1689 53.0906 48.1605 52.5702 47.9553 52.2481L47.2095 50.6004L48.5232 48.5018C48.5351 48.4832 48.5487 48.4662 48.5605 48.451L49.9268 48.6111C50.3184 48.6815 50.6812 48.6137 50.8727 48.4764C51.1304 48.373 51.3016 48.1992 51.4067 48.0907C52.0254 47.3898 52.673 46.7592 53.3561 46.193C53.5172 46.0489 53.9037 45.6522 54.0088 45.1411L54.6699 42.7611Z" fill="white"/>
<path d="M50.7794 52.171C48.7062 55.6562 48.8011 59.4144 50.9777 60.7172C53.5512 62.3375 56.9 59.6851 58.572 56.8615C60.6215 53.3856 60.5299 49.6223 58.3584 48.2941C55.7152 46.7022 52.3552 49.4606 50.7794 52.171ZM57.4566 49.7783C58.5958 50.4741 58.7195 53.1923 57.0769 55.9783C56.0619 57.6946 53.509 60.2586 51.8846 59.2373C50.737 58.5507 50.6149 55.8444 52.2762 53.0508C53.2816 51.3178 55.8427 48.8024 57.4566 49.7783Z" fill="white"/>
<path d="M78.5598 23.2184L73.5421 20.2672C73.2675 20.1078 72.9335 20.1061 72.6657 20.2655L64.8945 24.7822L64.9256 8.1374C64.9256 7.82242 64.6533 7.49174 64.4781 7.38983L59.4265 4.45635C59.1586 4.3004 58.823 4.29955 58.5551 4.4572L56.165 5.84639C55.7496 6.0871 55.6089 6.61853 55.8497 7.033C56.0904 7.44916 56.6227 7.58393 57.0363 7.34661L58.9908 6.21085L62.3098 8.13867L41.3577 20.3206C41.1839 20.1557 38.6598 17.7613 38.8336 17.9261L48.7351 12.171C49.1504 11.9303 49.2911 11.3989 49.0504 10.9844C48.8079 10.5691 48.2757 10.4318 47.8637 10.6708L37.5169 16.684C37.1329 16.3296 36.5557 15.7486 36.2009 15.4724C35.8749 15.2132 33.8303 14.0835 31.0307 12.4516C30.7629 12.2973 30.4307 12.2973 30.1628 12.4516L14.5332 21.4747C14.528 21.4776 14.5216 21.4762 14.5165 21.4792C14.2486 21.6335 14.0825 21.9199 14.0825 22.2293L14.013 68.9574C13.996 75.2897 18.473 83.0408 23.9958 86.237C26.4699 87.6628 29.2344 88.2736 31.7393 86.8541L75.6509 61.3283C77.7156 60.14 78.8632 57.704 78.8819 54.4688C78.8843 53.7549 78.987 23.714 78.987 23.9694C78.987 23.5963 78.7395 23.325 78.5598 23.2184ZM34.156 39.9793L30.7976 38.0427L44.6955 30.0211L48.0465 31.9544C47.871 32.0558 33.4334 40.3968 34.156 39.9793ZM73.098 22.0208L76.4002 23.9626L55.4699 36.1339L52.9458 33.7344L73.098 22.0208ZM51.6312 32.491C51.2609 32.154 50.6576 31.546 50.2908 31.2761C49.9996 31.0555 46.6468 29.1505 45.1294 28.2675C44.8616 28.1132 44.5294 28.1132 44.2615 28.2675C44.0879 28.3678 28.4155 37.4402 28.5903 37.3259C28.3414 37.4887 28.188 37.8052 28.188 38.046C28.188 42.6285 28.1089 76.9068 28.1083 77.084C28.1083 79.3859 26.6308 79.9644 24.879 78.9182C22.677 77.6485 20.8174 74.4319 20.8174 71.8951L20.9029 25.6769L35.5534 17.2116C35.7275 17.3767 40.9676 22.3476 40.6339 22.031C40.8543 22.2403 41.3109 22.3597 41.6679 22.1522L63.1863 9.64186L63.1568 25.7922L51.6312 32.491ZM30.5968 14.2052L33.943 16.136L20.0391 24.1642L16.6915 22.2332L30.5968 14.2052ZM24.8637 84.7343C19.8206 81.8161 15.7319 74.7404 15.7488 68.9616L15.8166 23.7361L19.1663 25.6684L19.0815 71.8934C19.0815 75.0812 21.2463 78.8275 24.0009 80.415C26.9228 82.1714 29.8441 80.7016 29.8441 77.0857L29.9272 39.5508L33.2971 41.4946L33.1599 80.0124C33.1281 85.4325 29.5343 87.4225 24.8637 84.7343ZM77.146 54.4603C77.1308 57.0514 76.2934 58.9559 74.783 59.8255L34.4194 83.2883C34.4411 83.2201 34.4488 83.1393 34.4692 83.0698C34.7578 82.0927 34.8905 80.9175 34.8957 80.0226C34.8948 80.2842 34.9128 75.2922 35.0347 41.479L49.6582 33.0302C49.9445 33.3008 55.0777 38.1526 54.7499 37.8427L54.7614 37.8536C54.9873 38.0596 55.4323 38.1635 55.7802 37.9613L77.246 25.4789L77.146 54.4603Z" fill="white"/>
</svg>
