<svg width="93" height="92" viewBox="0 0 93 92" fill="none" xmlns="http://www.w3.org/2000/svg">
<path d="M18.9176 65.3555C19.3965 65.3538 19.7839 64.9656 19.783 64.4859L19.7754 61.3753C19.7746 60.8955 19.3855 60.509 18.9075 60.509H18.9049C18.426 60.5107 18.0387 60.8989 18.0396 61.3787L18.0472 64.4893C18.048 64.969 18.4371 65.3555 18.9151 65.3555H18.9176Z" fill="white"/>
<path d="M71.0109 52.4383C73.2688 51.1348 75.0318 48.0801 75.0242 45.4848L74.9394 10.8729C74.9353 9.49313 74.4287 8.43926 73.5267 7.87318C73.5032 7.85613 73.4885 7.83144 73.4629 7.8165L68.1011 4.6974C67.1332 4.13969 65.9135 4.22953 64.6752 4.95337L21.9791 29.5943C19.7202 30.9114 17.9615 33.9695 17.9759 36.5529L18.031 58.1968C18.0319 58.6765 18.4209 59.063 18.8989 59.063C18.8998 59.063 18.9006 59.063 18.9015 59.063C19.3804 59.0613 19.7677 58.6715 19.7669 58.1934L19.7118 36.5462C19.7007 34.5899 21.1399 32.093 22.8504 31.0945L65.5465 6.45359C66.2279 6.05692 66.828 5.96369 67.2315 6.20101L70.2345 7.94703C70.1675 7.98263 70.1006 8.01823 70.0336 8.05721L27.3417 32.7083C24.9982 34.0605 23.3235 37.2209 23.3309 39.672L23.3648 53.5137L23.4106 74.2873C23.4115 74.3466 23.4132 74.406 23.4157 74.4653L20.4009 72.7125C20.0194 72.4955 19.8008 71.9344 19.8008 71.1716L19.7914 67.6423C19.7906 67.1625 19.4016 66.776 18.9235 66.776C18.9227 66.776 18.9218 66.776 18.921 66.776C18.4421 66.7777 18.0547 67.1676 18.0556 67.6457L18.0649 71.1733C18.0649 72.5955 18.5896 73.6787 19.5346 74.2178L24.8939 77.3335C24.8961 77.3348 24.8987 77.3342 24.9009 77.3354C24.9024 77.3363 24.9034 77.3378 24.9049 77.3386C25.9874 77.9603 27.2399 77.7103 28.3207 77.086L29.6026 76.3459C29.7565 76.6002 29.9738 76.8619 30.3286 77.1132C30.5031 77.2362 44.3382 87.0027 44.512 87.1045C45.7997 87.8327 47.792 87.852 49.1017 87.1502C50.5372 86.5573 55.5731 83.3967 63.9251 78.5354C64.6896 78.0777 65.1278 77.4013 65.1278 76.6826C65.1383 73.8422 65.1351 74.6933 65.1456 71.8717C65.1456 71.1394 64.7184 70.4817 63.942 70.0172C63.8313 69.946 61.5433 68.8705 55.5718 66.0257L55.5591 61.3597L71.0109 52.4383ZM53.8261 62.3771L53.8549 73.1193L48.0414 76.4769C48.0408 76.2987 48.0035 65.0524 48.0058 65.7403C48.2006 65.6277 54.0004 62.2764 53.8261 62.3771ZM46.2987 76.4707L44.5146 75.4299L44.4993 67.7745L46.2658 66.7494C46.2664 66.9277 46.3009 77.107 46.2987 76.4707ZM27.4536 75.5824C26.0036 76.426 25.1567 75.8253 25.1516 74.2788L25.1008 53.5422L25.0702 39.6636C25.0596 37.813 26.4443 35.2334 28.2122 34.2119L70.9024 9.56591C71.1038 9.4499 71.2982 9.36578 71.4845 9.30337C71.5255 9.28992 71.5639 9.28282 71.604 9.27201C71.7385 9.23483 71.8662 9.21353 71.9876 9.20654C72.0384 9.20389 72.0884 9.20293 72.1367 9.20569C72.2897 9.21353 72.4311 9.2433 72.5509 9.30581C72.5622 9.31164 72.5768 9.31206 72.5879 9.31831C72.9763 9.54801 73.201 10.1141 73.2035 10.878L73.2883 45.4898C73.2942 47.4529 71.8534 49.9481 70.1429 50.9364C25.8511 76.5074 68.2452 52.0285 27.4536 75.5824ZM63.0436 77.0403C49.5465 84.8818 48.4425 85.4991 48.2685 85.628C47.4998 86.0314 46.2174 86.0348 45.4334 85.628C45.196 85.4442 34.6707 78.0475 31.3287 75.6943C31.2041 75.6061 31.1346 75.535 31.0973 75.4875C31.2713 75.3867 33.3368 74.1896 33.1628 74.2904L44.1755 82.0207C45.0243 82.8629 47.6352 83.1705 49.1841 82.2845C49.1926 82.2796 49.2043 82.2782 49.2127 82.2732L63.4021 74.0241L63.3919 76.6792C63.3902 76.7097 63.3207 76.8741 63.0436 77.0403ZM63.0504 71.5055C63.3123 71.6632 63.4097 71.8141 63.4097 71.8717C63.4097 71.9276 63.3173 72.0683 63.0597 72.2141C62.8845 72.3157 47.3689 81.3181 48.3406 80.7544C46.8563 81.597 45.458 80.7403 45.2833 80.6916L34.8204 73.3334L42.7655 68.7461L42.7796 75.9316C42.7804 76.2401 42.944 76.5249 43.211 76.6792C43.4652 76.8273 46.9574 78.8621 46.7347 78.7324C46.736 78.7331 46.7365 78.7347 46.7378 78.7354C47.0125 78.8919 47.3499 78.8802 47.604 78.7354C47.6035 78.7357 47.6045 78.7351 47.604 78.7354C47.6066 78.7339 47.6108 78.7335 47.6133 78.732L55.1645 74.3755C55.434 74.2212 55.5993 73.933 55.5984 73.6228L55.584 67.9542L63.0504 71.5055Z" fill="white"/>
<path d="M70.1243 44.7592C70.3938 44.6049 70.5591 44.3168 70.5583 44.0066L70.4735 14.4785C70.4727 14.1683 70.3065 13.8818 70.0387 13.7275C69.77 13.575 69.4386 13.5733 69.1716 13.7292L28.2308 37.3666C27.9613 37.5209 27.796 37.809 27.7969 38.1192L27.8816 67.6456C27.8829 68.1203 28.2659 68.5119 28.7496 68.5119C28.8996 68.5119 29.0496 68.4729 29.1835 68.3949L70.1243 44.7592ZM68.7419 15.9804L68.8207 43.5082L29.6132 66.1437L29.5344 38.6176L68.7419 15.9804Z" fill="white"/>
<path d="M50.0119 58.5562L47.5598 59.9717C47.1445 60.2107 47.0021 60.7413 47.242 61.1566C47.4837 61.5738 48.0173 61.7132 48.4278 61.4736L50.8798 60.0581C51.2951 59.8191 51.4375 59.2885 51.1977 58.8732C50.9561 58.4579 50.4247 58.3138 50.0119 58.5562Z" fill="white"/>
<path d="M33.4739 42.9573L65.749 24.3223C66.1643 24.0833 66.3067 23.5527 66.0669 23.1374C65.8261 22.7221 65.293 22.5763 64.8811 22.8204L32.606 41.4553C32.1907 41.6944 32.0483 42.2249 32.2881 42.6403C32.5298 43.0575 33.0634 43.1969 33.4739 42.9573Z" fill="white"/>
<path d="M37.1085 51.0619C34.815 52.3875 33.0249 55.4897 33.0325 58.1239L33.0333 58.5562C33.0346 59.0303 33.4176 59.4224 33.9013 59.4224C34.0513 59.4224 34.2013 59.3835 34.3352 59.3055L41.6439 55.0845C41.9126 54.9303 42.0787 54.6421 42.0779 54.3319L42.077 53.9013C42.0683 50.9294 39.7337 49.5482 37.1085 51.0619ZM34.9073 56.9712C35.3133 55.232 36.5534 53.3877 37.9764 52.5638C39.347 51.7744 40.305 52.188 40.3404 53.8335L34.9073 56.9712Z" fill="white"/>
<path d="M37.9695 49.443C39.2654 48.6954 40.2766 46.946 40.2723 45.4594C40.267 43.5839 38.6861 42.7108 37.0897 43.6371C35.7971 44.3846 34.7868 46.1357 34.791 47.6241C34.7964 49.4921 36.3731 50.366 37.9695 49.443ZM37.9576 45.139C38.4055 44.8815 38.5351 44.9521 38.5365 45.4627C38.539 46.3408 37.8686 47.4969 37.1015 47.9394C36.6412 48.2085 36.5282 48.1013 36.5269 47.6207C36.5243 46.7409 37.1931 45.5831 37.9576 45.139Z" fill="white"/>
<path d="M48.7312 44.3524C46.4368 45.6764 44.6467 48.7768 44.6543 51.4145L44.656 51.8468C44.6573 52.3284 45.0498 52.7113 45.5239 52.7113C45.674 52.7113 45.824 52.6723 45.9579 52.5943L53.2666 48.3751C53.5361 48.2208 53.7014 47.9326 53.7006 47.6207L53.6989 47.1901C53.6918 44.1978 51.3338 42.8437 48.7312 44.3524ZM46.5292 50.2601C46.9343 48.5209 48.1752 46.6765 49.5991 45.8544C50.985 45.0578 51.9289 45.4905 51.9622 47.124L46.5292 50.2601Z" fill="white"/>
<path d="M49.5917 42.7335C50.8876 41.9859 51.8996 40.2348 51.8954 38.7482C51.89 36.8808 50.3147 35.9976 48.7119 36.9276C47.4193 37.6734 46.4098 39.4245 46.4141 40.9146C46.4194 42.7735 47.9898 43.6616 49.5917 42.7335ZM49.5798 38.4312C50.042 38.1665 50.1582 38.2582 50.1595 38.7516C50.1621 39.6296 49.4908 40.7874 48.7237 41.2299C48.2976 41.4762 48.1515 41.4338 48.1499 40.9112C48.1474 40.0297 48.8153 38.8702 49.5798 38.4312Z" fill="white"/>
<path d="M60.3534 37.6412C58.0598 38.9635 56.2697 42.0673 56.2774 44.7033L56.2782 45.1339C56.2791 45.4441 56.4443 45.7289 56.713 45.8848C56.9822 46.0381 57.3117 46.0394 57.5801 45.8831L64.8888 41.6639C65.1575 41.5096 65.3236 41.2214 65.3228 40.9112L65.3219 40.4806C65.3132 37.5173 62.99 36.122 60.3534 37.6412ZM58.1531 43.5489C58.5582 41.8097 59.7982 39.9653 61.2213 39.1432C62.6067 38.3442 63.5502 38.7818 63.5852 40.4128L58.1531 43.5489Z" fill="white"/>
<path d="M61.2146 36.0224C62.5105 35.2748 63.5217 33.5254 63.5175 32.0387C63.5121 30.1725 61.935 29.2829 60.3339 30.2164C59.0414 30.9623 58.0319 32.7134 58.0361 34.2035C58.0415 36.0653 59.6146 36.9493 61.2146 36.0224ZM61.2019 31.72C61.6627 31.4556 61.7803 31.5445 61.7816 32.0421C61.7842 32.9202 61.1137 34.0763 60.3467 34.5188C59.9218 34.7692 59.7735 34.7215 59.772 34.2001C59.7695 33.3186 60.4373 32.1591 61.2019 31.72Z" fill="white"/>
</svg>
