<svg width="93" height="92" viewBox="0 0 93 92" fill="none" xmlns="http://www.w3.org/2000/svg">
<rect x="0.5" width="92" height="92" rx="46" fill="white"/>
<path d="M27.2984 45.678C27.2995 45.9898 27.5526 46.2424 27.8644 46.2424C28.1773 46.2413 28.4315 45.9876 28.4304 45.6747L28.4094 38.2593L33.5358 41.2387L33.5579 71.6179L28.4957 68.6683L28.4537 53.5638C28.4525 53.2521 28.1994 52.9995 27.8876 52.9995C27.5747 53.0006 27.3205 53.2543 27.3216 53.5672L27.3647 68.9956C27.3658 69.1962 27.4719 69.3819 27.6455 69.4831L33.8399 73.0927C34.0176 73.196 34.2344 73.1937 34.407 73.0944L65.4407 55.2448C65.6176 55.1431 65.7259 54.9557 65.7248 54.7523C65.7156 51.491 65.758 66.5014 65.6353 23.0326C65.6353 22.8415 65.4667 22.6107 65.3533 22.5451L65.352 22.5443C65.3516 22.5441 65.3515 22.5436 65.3511 22.5434C62.926 21.1345 58.8372 18.759 59.0916 18.9067C58.9191 18.805 58.7013 18.805 58.5244 18.9056L27.5582 36.7839C27.3812 36.8864 27.2751 37.0749 27.2751 37.2737C27.2751 37.2741 27.2754 37.2744 27.2754 37.2748C27.2754 37.2752 27.2751 37.2755 27.2751 37.2759L27.2984 45.678ZM64.5242 30.847L34.6878 48.0735L34.669 41.2394L64.5054 24.0135L64.5242 30.847ZM34.6911 71.6251V49.3796L64.5286 32.1525L64.5916 54.4273L34.6911 71.6251ZM58.8063 20.0499L63.9394 23.0326L52.1695 29.8282L34.1026 40.259L28.9699 37.2759L58.8063 20.0499Z" fill="black"/>
<path d="M27.881 51.549C28.1939 51.5479 28.4471 51.2942 28.446 50.9813L28.4382 48.1506C28.4371 47.8388 28.184 47.5862 27.8722 47.5862C27.5593 47.5873 27.3051 47.841 27.3062 48.1539L27.3139 50.9846C27.315 51.2964 27.5693 51.549 27.881 51.549Z" fill="black"/>
<path d="M56.6041 34.3252C57.557 33.7758 58.3011 32.4861 58.2989 31.3883C58.2942 30.0597 57.1946 29.4187 56.0292 30.091C55.0729 30.6421 54.3267 31.9334 54.3289 33.0306C54.3312 34.3553 55.4436 34.9966 56.6041 34.3252ZM56.5952 31.0716C57.0233 30.8238 57.1648 30.9692 57.1668 31.3922C57.169 32.0848 56.6417 32.9969 56.038 33.3446C55.6586 33.5627 55.463 33.5034 55.4609 33.0273C55.4587 32.3347 55.9894 31.4209 56.5952 31.0716Z" fill="black"/>
<path d="M51.3516 37.3567C52.3057 36.8061 53.0497 35.5159 53.0453 34.4204C53.043 33.0818 51.9295 32.4532 50.7756 33.1224C49.8194 33.6747 49.0731 34.9654 49.0753 36.0626C49.08 37.3841 50.1861 38.0289 51.3516 37.3567ZM51.3417 34.1031C51.7259 33.8799 51.9111 33.9477 51.9132 34.4242C51.9155 35.1157 51.3892 36.0278 50.7856 36.3761C50.4011 36.5985 50.2095 36.529 50.2074 36.0588C50.2052 35.3667 50.7358 34.453 51.3417 34.1031Z" fill="black"/>
<path d="M61.851 31.295C62.8073 30.7428 63.5536 29.4515 63.5513 28.3548C63.549 27.0268 62.4408 26.3878 61.2761 27.0602C60.3198 27.6124 59.5736 28.9037 59.5758 30.0004C59.5781 31.3259 60.6902 31.9646 61.851 31.295ZM61.8422 28.0408C62.266 27.7954 62.4174 27.9363 62.4193 28.3581C62.4215 29.0502 61.8908 29.9645 61.285 30.3144C60.9064 30.5312 60.71 30.4748 60.7079 29.9971C60.7057 29.305 61.2363 28.3907 61.8422 28.0408Z" fill="black"/>
<path d="M36.5661 43.7339C36.7227 44.0051 37.0682 44.0977 37.34 43.9417L47.648 37.9995C47.9189 37.8436 48.0118 37.4975 47.8559 37.2267C47.6989 36.9553 47.3529 36.8624 47.082 37.0188L36.7739 42.9611C36.5031 43.117 36.4102 43.463 36.5661 43.7339Z" fill="black"/>
<path d="M59.9859 43.2441C59.6775 43.1761 59.3779 43.3696 59.3105 43.673L58.4559 47.5098L57.7351 45.171C57.6599 44.9251 57.4167 44.741 57.1723 44.7719C56.9159 44.7819 56.6981 44.9638 56.6417 45.2142L55.7871 49.052L55.0652 46.7116C54.9745 46.4131 54.6561 46.2467 54.3576 46.3374C54.0591 46.4297 53.8911 46.7464 53.984 47.0455L55.3338 51.4268C55.4068 51.6644 55.6268 51.8259 55.8744 51.8259C55.8822 51.8259 55.8899 51.8259 55.8965 51.8253C56.153 51.8154 56.3708 51.6335 56.4272 51.3831L57.2818 47.5457L58.0026 49.8851C58.0778 50.1305 58.3099 50.2864 58.5653 50.2842C58.8218 50.2742 59.0396 50.0924 59.096 49.842L60.416 43.9196C60.4834 43.6144 60.2911 43.3121 59.9859 43.2441Z" fill="black"/>
<path d="M52.4339 47.6044C52.1255 47.5325 51.8259 47.7299 51.7585 48.0334L50.9039 51.8712L50.182 49.5308C50.1068 49.2854 49.8282 49.1008 49.6192 49.1323C49.3627 49.1422 49.145 49.3241 49.0886 49.5745L48.234 53.4118L47.5132 51.0725C47.4225 50.7734 47.1085 50.6065 46.8056 50.6977C46.5071 50.79 46.3391 51.1068 46.432 51.4053L47.7807 55.7865C47.8537 56.0248 48.0737 56.1862 48.3213 56.1862C48.3291 56.1862 48.3357 56.1862 48.3434 56.1856C48.5999 56.1757 48.8177 55.9938 48.8741 55.7434L49.7287 51.9055L50.4506 54.2459C50.5258 54.4908 50.7944 54.6462 51.0133 54.6445C51.2698 54.6345 51.4876 54.4527 51.544 54.2023L52.864 48.2799C52.9314 47.9748 52.7391 47.6724 52.4339 47.6044Z" fill="black"/>
<path d="M44.8821 51.9647C44.5769 51.8939 44.274 52.0896 44.2066 52.3936L43.352 56.2315L42.6301 53.8911C42.5549 53.6457 42.2763 53.4605 42.0674 53.4925C41.8109 53.5025 41.5931 53.6844 41.5367 53.9348L40.6821 57.7715L39.9613 55.4328C39.8706 55.1343 39.5578 54.9662 39.2537 55.058C38.9552 55.1503 38.7872 55.467 38.8801 55.7655L40.2288 60.1468C40.3018 60.385 40.5218 60.5465 40.7694 60.5465C40.7772 60.5465 40.7838 60.5465 40.7916 60.5459C41.048 60.536 41.2658 60.3541 41.3222 60.1037L42.1768 56.2658L42.8987 58.6062C42.9739 58.8511 43.2425 59.0241 43.4614 59.0048C43.7179 58.9948 43.9357 58.813 43.9921 58.5626L45.3121 52.6402C45.3796 52.335 45.1872 52.0327 44.8821 51.9647Z" fill="black"/>
</svg>
