<svg width="93" height="92" viewBox="0 0 93 92" fill="none" xmlns="http://www.w3.org/2000/svg">
<rect x="0.5" width="92" height="92" rx="46" fill="black"/>
<path d="M40.1498 73.1035C40.8242 73.4974 41.6907 73.6945 42.5555 73.6945C43.4108 73.6945 44.2643 73.5019 44.9303 73.1159C45.6706 72.6866 46.0948 72.059 46.0948 71.3953L46.1166 63.5688C48.8754 63.2108 51.4211 62.4292 53.5101 61.2734C54.5727 61.2012 55.7116 60.8422 56.902 60.1549C59.0874 58.8934 61.2661 56.6488 62.8853 53.9873C65.4386 49.595 66.9981 45.4743 66.3119 39.6409C66.2481 39.4997 66.2389 39.336 66.0234 39.2104L62.4802 37.1498C62.015 34.7757 60.8847 32.6688 58.7832 31.4473L54.6991 29.0737C54.1238 28.7396 53.4788 28.4686 52.7813 28.2692C52.6443 28.2293 52.456 28.2431 52.2896 28.3634C52.117 28.4885 52.0441 28.657 52.0518 28.8458C52.0917 29.8281 52.1187 30.5058 51.9354 31.9109L43.0209 18.5618C42.9139 18.4018 42.7336 18.3054 42.5409 18.3054C42.3482 18.3054 42.1673 18.4023 42.0603 18.5629L40.1335 21.4588C39.9571 21.7241 40.0292 22.0819 40.2946 22.2588C40.5588 22.4346 40.9177 22.3636 41.0946 22.0977L42.542 19.9224C46.4433 25.7357 50.7707 32.2916 51.6503 33.4823C51.4008 34.565 51.2465 35.1352 50.751 36.365C50.2202 37.672 48.9602 39.4579 47.584 39.4988L46.6819 38.9761C46.5303 38.8882 46.3483 38.873 46.1867 38.9366C46.0244 38.9986 45.8982 39.131 45.8441 39.2966C45.712 39.7019 45.5479 40.2263 45.4154 40.6594C43.7928 40.9358 41.991 40.9634 40.4571 40.7688C38.9114 40.5729 37.2785 40.139 35.8944 39.4104C35.7786 39.3373 34.8825 38.9198 34.0139 38.0738C32.7326 36.8005 32.4294 35.343 33.1636 33.9646C33.3269 33.6523 32.6041 34.7987 37.7244 27.1407C37.9013 26.8753 37.8297 26.5176 37.5644 26.3407C37.2973 26.1637 36.9407 26.2347 36.7643 26.5007C36.6866 26.6162 32.2032 33.3109 32.1427 33.4266C31.2354 35.1294 31.517 36.965 32.8829 38.5341C32.8353 38.604 30.2756 42.4178 30.2277 42.5069C29.4412 43.9834 29.4251 45.5911 30.1525 47.0736C30.0744 47.1897 27.3778 51.1779 27.2845 51.3585C25.4405 54.8386 27.0152 58.5728 31.3923 61.1036C33.4986 62.3308 36.1239 63.1625 38.9969 63.5538L38.9751 71.3705C38.9751 72.0472 39.405 72.6804 40.1498 73.1035ZM44.941 71.3936C44.941 71.6331 44.7207 71.9035 44.3511 72.1176C43.3713 72.6849 41.7144 72.6804 40.7256 72.1041C40.3464 71.8883 40.129 71.6207 40.129 71.3722L40.1504 63.7004C41.6345 63.8327 43.2965 63.8571 44.9624 63.7116L44.941 71.3936ZM46.6812 40.4805L49.7373 42.2566C48.6471 45.7024 47.4896 50.2554 47.4808 53.8847C47.4783 55.1364 47.5994 56.6521 48.1888 57.8637L47.1771 57.2776C46.4274 56.8484 45.6686 55.9117 45.2744 55.2165C43.4483 51.9758 45.5593 44.0238 46.6812 40.4805ZM51.7316 37.0436C52.6737 34.7816 53.2658 32.3037 53.2449 29.8529L56.1362 31.5332C56.2905 34.1221 55.7368 36.6067 54.7526 38.9727C54.2816 40.0955 53.4765 41.0685 52.5987 41.575C52.0183 41.9096 51.3236 42.0704 50.9508 41.5209C50.9497 41.5193 50.9477 41.519 50.9465 41.5174C50.8994 41.4492 50.8426 41.3872 50.7671 41.3435L48.9354 40.282C50.1441 39.648 51.2063 38.3034 51.7316 37.0436ZM55.6681 47.742C55.9583 48.5443 56.4496 49.1871 57.1234 49.6379C57.4902 49.8875 57.8609 50.2407 58.2575 50.7168C58.3961 50.8835 58.6153 50.9551 58.826 50.9112C59.0367 50.8644 59.2035 50.7038 59.2587 50.4948L59.7184 48.7516C60.1562 49.8621 60.2503 51.2689 60.0114 52.9901C59.2767 56.0573 57.8198 58.1548 55.4833 59.5594C53.5261 60.4462 52.9255 59.7357 52.6404 59.1177C52.3491 58.5097 52.321 57.5103 52.5604 56.3029C52.7497 55.3485 52.7818 54.5496 52.7717 54.0217C53.1075 54.0831 53.3807 54.2335 53.632 54.4888C53.8117 54.6724 54.0906 54.7135 54.3154 54.5919C54.5408 54.4713 54.6596 54.2161 54.6072 53.9654C54.2224 52.1247 54.5791 50.0368 55.6681 47.742ZM62.7123 38.6194L64.8516 39.8634L62.7152 42.4156C62.8243 41.0128 62.801 39.5492 62.7123 38.6194ZM61.4244 37.7023C61.7675 39.6922 61.6331 42.1778 61.3619 44.1701C61.3275 44.4247 61.4655 44.6715 61.7005 44.7751C61.8934 44.8621 62.2024 44.8054 62.3635 44.6262C62.468 44.5099 65.3968 41.0289 65.2876 41.1452C65.5316 45.3132 64.5265 48.8683 61.8937 53.3974C61.4381 54.1462 60.9321 54.8531 60.3978 55.5163C60.6954 54.8067 60.9444 54.0397 61.1438 53.2042C61.5303 50.4424 61.1466 48.377 59.9708 46.8907C59.8356 46.7194 59.6176 46.6394 59.4007 46.684C59.1866 46.7285 59.0164 46.8902 58.9607 47.1014L58.4085 49.1945C58.1961 48.9978 57.9837 48.8277 57.7691 48.6818C56.4772 47.8166 56.5392 46.0902 56.5121 45.9724C56.4969 45.7188 56.3172 45.5053 56.0704 45.4462C55.8208 45.3881 55.5662 45.4969 55.4383 45.716C53.9047 48.3387 53.1942 50.7731 53.3171 52.9715C52.9554 52.8583 52.5576 52.8183 52.1176 52.8453C51.9581 52.856 51.8105 52.9321 51.7097 53.056C51.6083 53.1794 51.5632 53.3394 51.584 53.4972C51.5897 53.5411 51.7238 54.5902 51.4291 56.0787C51.1824 57.3188 51.0974 58.76 51.7237 59.8564C49.3818 58.911 48.6476 56.3754 48.6512 53.8793C48.6573 50.3829 49.7208 46.1957 50.7669 42.8483C51.3352 43.1256 52.2514 43.1084 53.1756 42.5745C54.2641 41.9457 55.2512 40.7665 55.8169 39.4172C56.759 37.1549 57.3928 34.5032 57.3272 32.024C57.6467 32.2722 60.613 32.9583 61.4244 37.7023ZM31.2452 43.0511C31.3088 42.9329 33.6379 39.4785 33.7203 39.3575C34.493 39.9916 35.233 40.3547 35.3491 40.4274C36.5485 41.0588 38.3265 41.6633 40.4312 41.9164C41.9364 42.0973 43.5506 42.0979 45.0531 41.8922C44.426 44.3892 43.4151 47.7609 43.3971 51.464C42.208 51.508 41.0509 51.4723 39.8168 51.2993C37.8508 51.0065 35.9524 50.5191 34.1417 49.4683C32.8464 48.7156 31.8706 47.804 31.3179 46.8293C30.6109 45.5966 30.5855 44.2895 31.2452 43.0511ZM28.3071 51.8932C28.3791 51.7536 28.2249 51.9432 30.8171 48.1544C31.3761 48.8804 32.3533 49.763 33.5625 50.4661C36.4307 52.1304 39.7722 52.4769 39.6568 52.4419C40.887 52.6148 42.4129 52.6768 43.4355 52.6379C43.5114 53.6566 43.7443 54.8454 44.2394 55.7249C44.7143 56.5969 45.6173 57.7076 46.5968 58.2833C47.8915 59.0274 50.7575 60.7505 51.4458 61.0025C49.673 61.7533 47.6428 62.2654 45.4768 62.5009C43.8008 62.6879 41.6559 62.7138 39.6388 62.4896C39.6387 62.4896 39.6389 62.4896 39.6388 62.4896C36.7207 62.152 34.0699 61.3279 31.9715 60.1053C28.1865 57.9176 26.7809 54.7727 28.3071 51.8932Z" fill="white"/>
<path d="M39.7566 23.0516C39.4906 22.8746 39.1323 22.9479 38.9565 23.2127C38.879 23.3289 37.8289 24.9048 37.9063 24.7885C37.7279 25.0562 37.8047 25.4191 38.0675 25.5936C38.3341 25.7703 38.6916 25.6968 38.8675 25.4325C38.9449 25.3162 39.9934 23.7415 39.916 23.8578C40.0889 23.5986 40.0298 23.2331 39.7566 23.0516Z" fill="white"/>
</svg>
