<svg width="93" height="92" viewBox="0 0 93 92" fill="none" xmlns="http://www.w3.org/2000/svg">
<rect x="0.5" width="92" height="92" rx="46" fill="black"/>
<path d="M38.4665 24.9511C39.0998 24.4187 39.7494 23.9128 40.3973 23.4486C40.6559 23.2632 40.7156 22.9026 40.5297 22.6435C40.3438 22.3849 39.9843 22.3246 39.7246 22.5111C39.053 22.9922 38.3798 23.5167 37.724 24.0689C37.48 24.2739 37.4485 24.6379 37.6541 24.8813C37.8572 25.1235 38.2213 25.1581 38.4665 24.9511Z" fill="white"/>
<path d="M64.2804 24.3077C64.2657 24.2994 64.2494 24.2949 64.2348 24.2867L56.1488 19.6512C52.2974 17.4438 47.247 17.9497 41.924 21.0789C41.6497 21.2406 41.5578 21.5938 41.719 21.8688C41.8801 22.1431 42.2339 22.2367 42.5088 22.0738C47.4589 19.165 52.1002 18.6613 55.5752 20.6518L59.6605 22.9939C56.4055 22.8279 52.9944 24.0621 50.1488 25.7236C50.1286 25.7354 50.1086 25.7438 50.0883 25.7557C39.4525 31.9931 30.7535 47.2013 30.8639 59.5496C30.8997 62.7704 31.5779 66.3327 33.3541 69.0198L29.2644 66.6749C25.8395 64.7087 23.9188 60.5125 23.8563 54.8593C23.7735 45.6877 28.7421 34.4991 36.219 27.0188C36.4444 26.7934 36.4444 26.4284 36.219 26.203C35.9937 25.9776 35.6286 25.9776 35.4032 26.203C27.7212 33.8884 22.6174 45.4088 22.7025 54.8706C22.7701 60.9502 24.8963 65.498 28.6903 67.6755L36.8506 72.3546C36.8595 72.3597 36.871 72.3576 36.8801 72.3622C36.8858 72.3654 36.8905 72.3699 36.8962 72.3732C41.3355 74.8875 46.68 73.5114 51.0985 70.9196C61.8042 64.6405 70.4169 49.467 70.2975 37.0947C70.2389 31.0139 68.1019 26.4723 64.2804 24.3077ZM50.5148 69.9246C45.5732 72.8239 40.9386 73.3366 37.4647 71.3692C33.466 69.1041 32.0708 64.1614 32.0262 59.54C31.9096 47.496 40.3726 32.793 50.6708 26.7529C54.7038 24.384 59.736 23.0391 63.7356 25.3303L63.7372 25.3309C63.7385 25.3316 63.74 25.3315 63.7413 25.3322C67.17 27.2931 69.0891 31.4712 69.1436 37.1059C69.2597 49.1098 60.9028 63.832 50.5148 69.9246Z" fill="white"/>
<path d="M51.747 29.8843C42.7163 35.1803 35.1712 48.445 35.2715 58.8499C35.362 68.2616 41.3121 71.5581 49.4388 66.791C58.4617 61.4996 65.9994 48.2224 65.8986 37.7989C65.808 28.318 59.7683 25.1793 51.747 29.8843ZM48.8551 65.7961C41.4018 70.1666 36.5057 67.1724 36.4253 58.8386C36.3284 48.7965 43.6121 35.9927 52.3307 30.8793C59.7864 26.5086 64.6654 29.5271 64.7447 37.8102C64.8422 47.8714 57.5653 60.6871 48.8551 65.7961Z" fill="white"/>
<path d="M48.8053 44.3237C48.8774 44.5316 49.0611 44.6803 49.2791 44.7074C49.508 44.734 49.7162 44.6295 49.833 44.4522C50.1783 43.9259 50.5366 43.5468 50.8696 43.3547C51.2223 43.1507 51.4651 43.2008 51.6161 43.2555C51.7699 43.313 51.9412 43.2994 52.086 43.2217C52.2308 43.1445 52.3356 43.0087 52.3739 42.8493L54.1773 35.3904C54.3086 34.8957 54.1914 34.4507 53.8647 34.2005C53.5655 33.9712 53.1638 33.9644 52.7914 34.1785L47.7433 37.093C47.1568 37.4316 46.6971 38.3133 46.9517 38.9663L48.8053 44.3237ZM48.3202 38.0925L52.9886 35.3972L51.3789 42.0543C51.0443 42.0459 50.6476 42.1501 50.2921 42.3557C50.0409 42.5011 49.793 42.6994 49.5513 42.9501L48.0397 38.5855C48.0244 38.4784 48.1625 38.1838 48.3202 38.0925Z" fill="white"/>
<path d="M50.2899 45.5159C48.9912 46.2657 47.9777 48.0224 47.9822 49.5149C47.9869 51.2241 49.3824 52.0356 50.8798 51.1713C52.1784 50.4214 53.192 48.6647 53.1875 47.1723C53.1828 45.4436 51.8114 44.6369 50.2899 45.5159ZM50.3028 50.1718C49.5878 50.5864 49.1384 50.3423 49.136 49.5115C49.1327 48.4309 49.9254 47.059 50.8668 46.5153C51.6046 46.0877 52.0313 46.3327 52.0336 47.1756C52.037 48.2562 51.2443 49.6281 50.3028 50.1718Z" fill="white"/>
<path d="M52.3864 52.364C52.3149 52.1561 52.1318 52.0074 51.9143 51.9792C51.6951 51.9539 51.4816 52.0497 51.3605 52.2328C51.0151 52.7534 50.6562 53.1303 50.3232 53.3224C50.0517 53.479 49.8106 53.5117 49.5683 53.4289C49.4139 53.3748 49.246 53.3883 49.1029 53.4672C48.9604 53.5449 48.8567 53.679 48.8184 53.8373L47.0037 61.29C46.8724 61.7847 46.9896 62.2298 47.3164 62.4799C47.6341 62.7235 48.0411 62.7023 48.3897 62.5019L53.4366 59.5874C54.0242 59.2494 54.4845 58.3676 54.2293 57.7158L52.3864 52.364ZM52.8602 58.5879L48.193 61.2821L49.8139 54.6267C50.2162 54.6323 50.5458 54.5269 50.9002 54.3219C51.1503 54.1776 51.3971 53.9804 51.6377 53.7331L53.1414 58.0955C53.1566 58.202 53.0186 58.4967 52.8602 58.5879Z" fill="white"/>
<path d="M61.3168 38.4502C61.0238 38.2806 60.6627 38.2958 60.3263 38.4896L60.3252 38.4908C60.0564 38.6452 60.3277 38.4497 54.4687 44.0369C54.3492 44.1513 54.285 44.3107 54.2912 44.4758C54.2974 44.6403 54.374 44.7947 54.5013 44.8995C55.0388 45.3412 54.7205 46.2995 54.3588 47.0257C54.2608 47.2229 54.2833 47.459 54.4174 47.6342C54.5458 47.802 54.7619 47.893 54.9892 47.8489C61.1508 46.5983 60.688 46.7377 60.9466 46.5891C61.4295 46.3102 61.7929 45.677 61.7912 45.1158L61.7748 39.3162C61.7737 38.9325 61.6069 38.617 61.3168 38.4502ZM60.341 45.5958L55.8022 46.5085C56.0648 45.5857 55.9329 44.9406 55.6597 44.4944L60.6221 39.746L60.6373 45.1192C60.6379 45.282 60.4869 45.522 60.341 45.5958Z" fill="white"/>
<path d="M46.8223 49.6541C46.9204 49.4569 46.8978 49.2214 46.7643 49.0467C46.6302 48.8721 46.4077 48.7859 46.1936 48.8309L40.617 49.9352C39.9335 50.0801 39.3766 50.8932 39.3787 51.5837L39.395 57.3839C39.3961 57.7653 39.5618 58.0786 39.8486 58.2437C40.1575 58.4202 40.5183 58.3832 40.8328 58.202C41.1009 58.0475 40.6947 58.3766 46.7119 52.6435C46.8297 52.5313 46.8945 52.3747 46.8905 52.2125C46.8866 52.0496 46.8139 51.8964 46.6911 51.7905C46.153 51.3245 46.4657 50.3718 46.8223 49.6541ZM40.5477 56.9371L40.5325 51.5803C40.532 51.4203 40.688 51.16 40.8362 51.075L40.8492 51.0659L45.3834 50.1679C45.1265 51.0828 45.2583 51.7285 45.5276 52.1792L40.5477 56.9371Z" fill="white"/>
</svg>
