<svg width="93" height="92" viewBox="0 0 93 92" fill="none" xmlns="http://www.w3.org/2000/svg">
<path d="M20.833 72.8256C20.8338 73.1341 20.9983 73.4189 21.2644 73.5732L26.3864 76.5499C26.386 76.5496 26.3867 76.5501 26.3864 76.5499C26.3873 76.5504 26.3888 76.5519 26.3897 76.5524C26.5237 76.6295 26.6737 76.6677 26.8229 76.6677C26.9729 76.6677 27.1229 76.6287 27.2568 76.5516L28.7014 75.7174L28.6875 85.2808C28.6536 85.986 29.0808 86.6539 29.8665 87.1167C31.1173 87.8387 33.0749 87.8406 34.3257 87.1184C35.0766 86.6878 35.508 86.0335 35.508 85.324L35.5252 71.7778L45.729 65.8864C46.1444 65.6466 46.2868 65.116 46.0469 64.7007C45.8062 64.2836 45.273 64.1413 44.8611 64.3828L27.6866 74.2987L27.5865 38.9242C42.0763 30.5585 57.0563 21.9099 70.4352 14.1856L70.5352 49.5603L51.4282 60.5916C51.0129 60.8314 50.8705 61.362 51.1103 61.7773C51.3511 62.1927 51.8799 62.3334 52.2961 62.0952L57.4471 59.1212L57.4325 68.7284C57.4325 69.4285 57.8605 70.0811 58.6114 70.521C59.8607 71.2445 61.8211 71.2456 63.0714 70.5235C63.8224 70.093 64.2538 69.4386 64.2538 68.7292L64.271 55.1815L71.8388 50.8122C72.1084 50.6562 72.2736 50.3689 72.2728 50.0578L72.1668 12.682C72.166 12.4316 71.906 12.0334 71.7354 11.9344L71.7334 11.9332C71.7329 11.9329 71.7326 11.9322 71.732 11.9319C71.7315 11.9315 71.7308 11.9317 71.7302 11.9313L66.6135 8.95769C66.3431 8.80089 66.0117 8.80089 65.743 8.956L64.3233 9.77561V6.68872C64.3233 6.67706 64.3172 6.66753 64.3167 6.65598C64.3029 5.9617 63.8778 5.31913 63.1375 4.89184C61.8602 4.15614 59.9422 4.15783 58.6716 4.89354C57.9241 5.32835 57.496 5.98098 57.4969 6.68363C57.4969 6.69476 57.5018 6.70514 57.502 6.71626V13.714L35.5775 26.372V23.2835C35.5775 23.2683 35.5696 23.2555 35.5689 23.2404C35.5511 22.5492 35.1275 21.9107 34.3909 21.4858C33.1128 20.7476 31.1947 20.7501 29.9267 21.4867C29.1783 21.9215 28.7503 22.5733 28.7511 23.2759C28.7511 23.2871 28.756 23.2977 28.7562 23.309V30.3103L21.161 34.6954C21.0269 34.773 20.9187 34.8834 20.8438 35.0132C20.8082 35.075 20.8078 35.1505 20.7882 35.2196C20.7666 35.2955 20.7273 35.3652 20.7271 35.4463C20.7271 35.447 20.7275 35.4474 20.7275 35.448C20.7275 35.4487 20.7271 35.4491 20.7271 35.4497L20.833 72.8256ZM33.7722 85.3206C33.7688 85.3469 33.7052 85.4732 33.4603 85.6131C32.7348 86.0326 31.4608 86.0326 30.7404 85.6164C30.5107 85.4817 30.4285 85.3613 30.4225 85.3249L30.4387 74.7157L33.7883 72.784L33.7722 85.3206ZM62.518 68.7267C62.5146 68.7521 62.451 68.8784 62.2052 69.0191C61.4797 69.4386 60.2074 69.4386 59.4853 69.0208C59.2404 68.8775 59.1725 68.7504 59.1683 68.7301L59.1844 58.1209L62.5341 56.1892L62.518 68.7267ZM22.4671 36.9579L25.8504 38.9241L25.9507 74.2894L22.5672 72.323L22.4671 36.9579ZM59.5438 6.39461C60.2667 5.97378 61.5397 5.97446 62.2696 6.39545C62.5196 6.54039 62.5832 6.66668 62.5858 6.68956C62.5832 6.71245 62.5213 6.83535 62.2789 6.97605C61.0858 7.66926 59.2469 7.06232 59.2386 6.67304C59.2479 6.64146 59.3113 6.5299 59.5438 6.39461ZM59.2378 8.74071C59.5487 8.85561 60.3268 9.02827 60.9092 9.02932C60.913 9.02932 60.9166 9.03059 60.9203 9.03059C60.9333 9.03059 60.9458 9.02614 60.9588 9.02603C61.5693 9.0213 62.324 8.84 62.5875 8.74156V10.7779L59.2378 12.7117V8.74071ZM30.7989 22.9877C31.5253 22.5665 32.7984 22.5698 33.523 22.9894C33.773 23.1335 33.8366 23.2606 33.8392 23.2827C33.8366 23.3056 33.7747 23.4293 33.5332 23.57C32.6614 24.0755 31.1135 23.9354 30.5788 23.395C30.5734 23.3892 30.5576 23.3802 30.553 23.3745C30.5502 23.3716 30.5515 23.3718 30.5491 23.3688C30.5077 23.3179 30.4922 23.2794 30.4922 23.2668C30.5016 23.235 30.5652 23.1237 30.7989 22.9877ZM30.4921 25.3355C31.5199 25.7168 32.9263 25.6772 33.8417 25.3364V27.3742L30.4921 29.3082V25.3355ZM66.1753 10.7105L69.5672 12.682L26.7182 37.4208L23.8453 35.7512L23.3266 35.4497C29.9665 31.6162 4.29861 46.4358 66.1753 10.7105Z" fill="white"/>
<path d="M49.1846 61.8867L47.3106 62.9691C46.8953 63.2089 46.7529 63.7395 46.9927 64.1548C47.2332 64.5712 47.7654 64.7113 48.1785 64.4727L50.0525 63.3903C50.4678 63.1504 50.6102 62.6198 50.3703 62.2045C50.1296 61.7875 49.5965 61.6468 49.1846 61.8867Z" fill="white"/>
<path d="M68.3247 47.6304L68.245 19.6533C68.2442 19.344 68.0781 19.0583 67.8102 18.9032C67.5415 18.7481 67.2101 18.7507 66.9431 18.9041L30.2301 40.0996C29.9606 40.2555 29.7953 40.5429 29.7961 40.8539L29.8758 68.8309C29.8767 69.1403 30.0428 69.4259 30.3106 69.5811C30.4445 69.6582 30.5946 69.6963 30.7437 69.6963C30.8938 69.6963 31.0438 69.6573 31.1777 69.5802L67.8907 48.3847C68.1603 48.2287 68.3256 47.9414 68.3247 47.6304ZM31.6074 67.3273L31.5337 41.3515L66.5134 21.157L66.5872 47.1328L31.6074 67.3273Z" fill="white"/>
<path d="M61.0363 33.3248C60.7676 33.1706 60.4379 33.1706 60.1692 33.3248L59.0292 33.9829V31.9975C59.0292 31.5178 58.641 31.1296 58.1613 31.1296C57.6816 31.1296 57.2934 31.5178 57.2934 31.9975V34.9849L55.2914 36.1405C55.0219 36.2965 54.8566 36.5838 54.8574 36.8949L54.8837 46.12C54.8855 46.782 55.6039 47.2021 56.1856 46.8692L57.3281 46.2096V48.1931C57.3281 48.6729 57.7163 49.0611 58.1961 49.0611C58.6758 49.0611 59.064 48.6729 59.064 48.1931V45.2074L61.0626 44.0535C61.3321 43.8976 61.4974 43.6103 61.4965 43.2992L61.4711 34.0741C61.4703 33.7647 61.3041 33.4791 61.0363 33.3248ZM56.6153 44.6172L56.595 37.3924L59.7395 35.5769L59.759 42.8017L56.6153 44.6172Z" fill="white"/>
<path d="M42.8031 42.8491C42.5345 42.694 42.2048 42.6957 41.9361 42.8491L40.7952 43.5076L40.7851 41.5057C40.7825 41.0277 40.3943 40.642 39.9171 40.642H39.9129C39.4332 40.6446 39.0467 41.0353 39.0492 41.5142L39.0645 44.5067L37.0582 45.6648C36.7887 45.8208 36.6234 46.1081 36.6243 46.4192L36.6505 55.6358C36.6514 55.9451 36.8175 56.2308 37.0854 56.3859C37.3493 56.5379 37.6808 56.5415 37.9524 56.385L39.0916 55.7274L39.1018 57.7276C39.1043 58.2056 39.4925 58.5913 39.9697 58.5913H39.9739C40.4536 58.5887 40.8401 58.198 40.8376 57.7191L40.8223 54.7281L42.8294 53.5694C43.099 53.4134 43.2642 53.1261 43.2634 52.815L43.238 43.5984C43.2371 43.289 43.071 43.0034 42.8031 42.8491ZM38.3822 54.1322L38.3618 46.9167L41.5063 45.1012L41.5258 52.3175L38.3822 54.1322Z" fill="white"/>
<path d="M51.9078 35.4302C51.6391 35.2743 51.3094 35.276 51.0407 35.4302L49.9084 36.0839L49.8982 34.0936C49.8957 33.6156 49.5075 33.2299 49.0303 33.2299H49.026C48.5463 33.2325 48.1598 33.6232 48.1624 34.1021L48.1776 37.083L46.1705 38.2417C45.901 38.3968 45.7357 38.685 45.7366 38.996L45.7629 48.2211C45.7647 48.8832 46.4831 49.3033 47.0647 48.9704L48.2047 48.3122L48.2149 50.2977C48.2174 50.7757 48.6056 51.1614 49.0828 51.1614H49.0871C49.5668 51.1588 49.9533 50.7681 49.9508 50.2892L49.9356 47.3131L51.9349 46.1589C52.2045 46.003 52.3698 45.7157 52.3689 45.4046L52.3426 36.1795C52.3418 35.8701 52.1757 35.5845 51.9078 35.4302ZM47.4945 46.7183L47.4741 39.4944L50.611 37.6823L50.6314 44.9071C50.443 45.0158 47.2958 46.8331 47.4945 46.7183Z" fill="white"/>
</svg>
