<svg width="93" height="92" viewBox="0 0 93 92" fill="none" xmlns="http://www.w3.org/2000/svg">
<rect x="0.5" width="92" height="92" rx="46" fill="black"/>
<path d="M30.8052 36.3182L31.882 34.452C32.0384 34.1811 31.9456 33.8351 31.6747 33.6787C31.4044 33.5217 31.0578 33.6151 30.9014 33.886L29.8246 35.7521C29.6681 36.023 29.761 36.369 30.0319 36.5255C30.2997 36.6802 30.647 36.5912 30.8052 36.3182Z" fill="white"/>
<path d="M69.0277 42.2676L68.9978 31.7484C68.9973 31.6003 68.8892 31.3617 68.7126 31.2592C67.0353 30.2851 65.1111 29.1677 65.232 29.2379C65.3058 29.1239 66.7091 26.9477 66.643 27.0626C66.7934 26.8013 66.71 26.4502 66.4368 26.2914C65.1224 25.536 71.1983 29.0279 53.5821 18.9037C53.2949 18.7398 52.952 18.8706 52.8116 19.1137C52.7461 19.227 51.5433 21.5944 51.6114 21.4811L48.1268 19.4559C47.9505 19.3531 47.7344 19.3542 47.5591 19.4548C46.1913 20.2443 39.7417 23.9682 38.3859 24.7503C38.2402 24.8427 38.1219 25.1211 38.1217 25.2296C38.1214 25.3436 38.4359 29.141 38.4412 29.0271C37.5054 29.8838 36.6181 30.8222 35.7787 31.806L33.5176 30.4903C33.3877 30.4151 33.233 30.3947 33.087 30.4323C32.9416 30.4709 32.8173 30.566 32.7421 30.6965L32.1081 31.7954C31.9516 32.0662 32.0445 32.4123 32.3154 32.5687C32.584 32.7229 32.9317 32.6317 33.0887 32.3614L33.4386 31.755C34.3873 32.307 38.9366 34.9537 38.8157 34.8834C38.2146 35.9238 40.9935 31.1148 32.9363 45.0577C32.8217 44.9912 27.4486 41.8694 27.5632 41.936L29.6162 38.3783C29.7726 38.1075 29.6797 37.7614 29.4089 37.605C29.1386 37.448 28.792 37.5414 28.6356 37.8123L26.3007 41.8586C26.1448 42.1289 26.2371 42.4744 26.5068 42.6308L28.781 43.9523C28.3559 45.1686 27.993 46.3886 27.724 47.5897L24.2969 49.2033C24.1067 49.2928 23.9818 49.4802 23.9724 49.6902C23.9718 49.7023 23.98 49.7122 23.9803 49.7242L23.9796 49.7267L24.0094 60.246C24.01 60.4472 24.1172 60.6329 24.2913 60.7335L27.7703 62.755L26.3841 64.8942C26.2995 65.0241 26.2725 65.1833 26.3084 65.3337C26.3443 65.4846 26.4405 65.6139 26.5748 65.6913C27.8878 66.4483 21.8185 62.9491 39.4157 73.0946C39.6984 73.2559 40.0555 73.1458 40.2006 72.8602L41.3933 70.5212L44.881 72.5407C45.0396 72.6331 45.2557 72.6426 45.4293 72.5512C45.544 72.4908 54.7163 67.257 54.6025 67.254C54.7927 67.144 54.9027 66.9339 54.8833 66.7145L54.5589 62.9728C55.5903 62.0204 56.5676 60.9889 57.4714 59.8983L59.4105 61.4576C59.6772 61.6708 60.0786 61.6053 60.2557 61.2995L66.7077 50.1242C66.8808 49.8241 66.7456 49.4354 66.4175 49.3116L64.1008 48.4371C64.5801 47.1226 64.9781 45.7661 65.2854 44.3925L68.7032 42.7812C68.9016 42.6877 69.0282 42.4876 69.0277 42.2676ZM67.3695 31.7888L65.0704 33.3536C64.7774 32.5306 64.4192 31.7876 64.0002 31.1354L64.6146 30.189L67.3695 31.7888ZM39.5676 28.9149L39.3446 26.2666L44.5009 29.2634L44.7241 31.9113L39.5676 28.9149ZM53.5379 20.1883C53.6525 20.2549 59.2511 23.5072 58.9109 23.3096C58.8508 23.4277 56.8424 27.372 56.9651 27.1311C56.1764 27.0957 55.3502 27.1662 54.4927 27.331C54.5205 26.9535 54.3914 28.6984 54.7634 23.6392C54.764 23.426 54.6115 23.2302 54.4981 23.1594C54.384 23.0883 52.4783 21.979 52.5918 22.0509L53.5379 20.1883ZM47.841 20.599C48.1954 20.8049 53.2263 23.7291 53.068 23.637L45.0463 28.2681L39.8188 25.2307L47.841 20.599ZM39.1143 29.9601L44.4404 33.055C43.5041 33.9543 43.0059 34.4357 41.8838 35.7792C41.7696 35.6888 39.7523 34.0915 39.8795 34.1922L36.7625 32.3784C37.5046 31.5201 38.2961 30.7158 39.1143 29.9601ZM32.8576 46.3211C32.8654 46.3257 32.8752 46.3238 32.8833 46.328L32.9085 46.3427C32.9215 46.3488 32.9304 46.3607 32.9439 46.3659L35.2627 47.2492C35.1547 47.5449 35.0669 47.8478 34.9674 48.1468C34.6726 49.0266 34.4127 49.9138 34.198 50.8073L28.8676 47.7086C29.1082 46.6568 29.4031 45.5918 29.7682 44.5259L32.8576 46.3211ZM28.1879 48.6229L33.352 51.6248L30.9269 52.7775L25.7545 49.7682L28.1879 48.6229ZM25.1144 50.7101L30.3362 53.7447L30.3623 62.9489C27.3732 61.2187 28.1219 61.6487 25.1404 59.9182L25.1144 50.7101ZM28.7502 63.3243C28.8894 63.4052 30.5382 64.3631 30.6675 64.4382C30.7812 64.4976 31.0282 64.5347 31.2142 64.4277C31.3593 64.3442 34.1568 62.4217 34.2932 62.3281C34.5874 63.1558 34.9446 63.8999 35.3611 64.5501L33.029 68.1329L27.6572 65.0114L28.7502 63.3243ZM42.3919 68.5628C43.1256 68.5923 43.9081 68.5251 44.736 68.377C44.779 68.3691 44.8195 68.3678 44.8627 68.3596L44.6648 71.1074L41.9083 69.5113L42.3919 68.5628ZM64.5508 43.4876C64.3916 43.5628 64.276 43.7082 64.239 43.8806C63.8957 45.477 63.4264 47.0524 62.8444 48.5637C62.7301 48.8569 62.8803 49.1868 63.1721 49.2967L65.3937 50.1352L59.6057 60.1614L57.7423 58.6634C57.6251 58.5689 57.4764 58.5285 57.3255 58.5418C57.1757 58.5584 57.0392 58.6335 56.9452 58.7513C55.9214 60.0315 54.7932 61.2338 53.5904 62.3238C53.4594 62.4427 53.3914 62.6162 53.4069 62.7926L53.7242 66.4536L45.8068 71.0256L46.0467 67.6846C46.0745 67.3063 45.7254 67.002 45.3458 67.0948C44.3062 67.3529 43.1866 67.4987 42.1022 67.4104C41.8647 67.3926 41.6429 67.5305 41.5472 67.7183C41.4885 67.8337 39.3865 71.9658 39.4621 71.8171L34.0124 68.7039L36.5148 64.8555C36.6502 64.6479 36.5828 64.334 36.5031 64.2204C35.9443 63.4238 35.4877 62.4316 35.145 61.2719C35.0274 60.875 34.5626 60.7715 34.2788 60.9646C34.1634 61.0434 31.3132 62.9907 31.4945 62.8669L31.4685 53.7763C31.5821 53.7226 35.0244 52.0957 34.81 52.1971C34.9234 52.1433 35.0872 51.9675 35.124 51.7974C35.3722 50.6438 35.7112 49.5033 36.0913 48.377C36.2335 47.9588 36.3618 47.5365 36.5219 47.1243C36.6366 46.83 36.4881 46.5012 36.1964 46.3902C36.0789 46.3456 33.8303 45.4921 33.9681 45.5445C41.9072 31.8298 39.169 36.56 39.7614 35.5367L41.6146 37.0119C41.8777 37.2208 42.2518 37.1223 42.4084 36.9323C42.7549 36.536 43.8282 35.1231 45.7643 33.3686C45.8412 33.2984 45.9617 33.068 45.9478 32.9015L45.6371 29.2344C45.7601 29.1634 53.763 24.5432 53.5545 24.6635C53.2527 28.9039 53.3146 27.7319 53.3146 28.0474C53.3141 28.3968 53.5979 28.6131 53.8696 28.6131C54.1617 28.6131 55.4432 28.141 57.2503 28.2908C57.4825 28.3185 57.6986 28.1897 57.8031 27.9835C57.8611 27.8698 60.0378 23.6057 59.8992 23.8773C60.0617 23.9697 65.4658 27.0414 65.3505 26.9759C64.4723 28.3288 62.7678 30.9546 62.8471 30.8325C62.7211 31.027 62.7261 31.278 62.8593 31.467C63.427 32.2713 63.8852 33.2602 64.2213 34.4056C64.3302 34.7745 64.7672 34.9308 65.0831 34.714L67.8685 32.818L67.8945 41.9111L64.5508 43.4876Z" fill="white"/>
<path d="M49.4938 36.0379C43.9291 39.2512 39.4168 47.0403 39.4351 53.4016C39.4534 60.0019 44.2806 62.8098 50.1234 59.4362C55.6296 56.2572 60.0943 48.4957 60.0761 42.1344C60.0578 35.4929 55.2507 32.7162 49.4938 36.0379ZM49.5574 58.4555C44.4941 61.3784 40.5832 59.1464 40.5671 53.3982C40.55 47.3985 44.8085 40.051 50.0599 37.0185C55.0729 34.1228 58.9281 36.3923 58.944 42.1377C58.9611 48.1375 54.7501 55.4579 49.5574 58.4555Z" fill="white"/>
<path d="M49.5021 51.4934C48.4524 52.0992 47.6326 53.5198 47.6359 54.7271C47.6394 56.1656 48.8139 56.8586 50.0781 56.13C51.1278 55.5242 51.9476 54.1008 51.9442 52.8902C51.9408 51.4502 50.7604 50.7691 49.5021 51.4934ZM49.512 55.1494C49.025 55.4324 48.7692 55.3041 48.768 54.7238C48.7658 53.9123 49.3611 52.882 50.0681 52.474C50.5338 52.2052 50.8109 52.2935 50.8122 52.8936C50.8144 53.7083 50.219 54.7415 49.512 55.1494Z" fill="white"/>
<path d="M51.7613 39.1528L47.1838 41.7956C46.9903 41.9078 46.8803 42.1228 46.9041 42.3456L47.7609 50.452C47.7808 50.6421 47.8958 50.8096 48.0666 50.8969C48.2387 50.9836 48.4407 50.9781 48.6066 50.8826L51.5192 49.201C51.6789 49.1087 51.7834 48.9446 51.8 48.761L52.6081 39.6934C52.6269 39.4828 52.5269 39.2794 52.3489 39.166C52.1709 39.0527 51.9454 39.0483 51.7613 39.1528ZM50.6983 48.3675L48.7951 49.4664L48.0682 42.5921L51.3837 40.6779L50.6983 48.3675Z" fill="white"/>
</svg>
