<svg width="93" height="92" viewBox="0 0 93 92" fill="none" xmlns="http://www.w3.org/2000/svg">
<rect x="0.5" width="92" height="92" rx="46" fill="black"/>
<path d="M51.7366 20.6445C51.4442 20.5433 51.1186 20.6975 51.0158 20.9927C50.913 21.2879 51.0689 21.6107 51.3641 21.7135L55.4756 23.148C55.764 23.2493 56.0921 23.0999 56.1964 22.7997C56.2992 22.5045 56.1433 22.1817 55.8482 22.0789L51.7366 20.6445Z" fill="white"/>
<path d="M23.5569 34.3543C23.5569 34.4724 23.5607 48.5213 23.5591 48.4069C23.5624 48.6387 23.6526 48.6662 23.7067 48.78L46.0265 72.9875C46.2505 73.23 46.6338 73.2313 46.859 72.9875C46.9677 72.8696 69.3972 48.5262 69.2994 48.6415C69.3884 48.5366 69.4357 48.3618 69.4371 48.2896C69.4394 48.1756 69.448 34.1912 69.4391 34.0779C69.4391 33.9547 69.3988 33.8342 69.3242 33.7358L62.2592 24.416C62.2535 24.4086 62.2429 24.407 62.2369 24.3999C62.175 24.3258 62.0986 24.2673 62.0066 24.2326C62.0018 24.2307 61.9993 24.2254 61.9944 24.2237L59.0509 23.1966C58.7585 23.0938 58.4335 23.2491 58.3301 23.5449C58.2273 23.84 58.3832 24.1629 58.6783 24.2657L61.2405 25.1596L61.2017 34.9993L46.4433 40.1567L31.7933 35.0002L31.7422 25.3223L46.4461 19.9972L48.4333 20.6904C48.7274 20.7943 49.0507 20.6378 49.1541 20.3421C49.2569 20.0469 49.101 19.7241 48.8058 19.6213L46.629 18.8618C46.5058 18.8192 46.3731 18.8192 46.2498 18.864L30.9812 24.3934C30.9769 24.3949 30.9747 24.3997 30.9705 24.4013C30.8795 24.4367 30.8045 24.4961 30.7434 24.5701C30.7373 24.5774 30.7266 24.5792 30.7208 24.5868L23.6697 34.0155C23.5967 34.1133 23.5569 34.2321 23.5569 34.3543ZM31.4953 36.0955L45.8767 41.1574V56.0408L24.9312 48.0978L31.4953 36.0955ZM61.5013 36.0939L68.0634 47.9836L47.0088 56.0381V41.1585L61.5013 36.0939ZM45.8767 71.1547L26.1649 49.7759L45.8767 57.2514L45.8767 71.1547ZM47.0088 57.2502L66.82 49.671L47.0088 71.1548V57.2502ZM68.3071 46.082L62.3327 35.2564L62.3675 26.433L68.3071 34.2681V46.082ZM30.617 26.6163L30.6626 35.2591L24.689 46.1822V34.5428L30.617 26.6163Z" fill="white"/>
</svg>
