<svg width="93" height="92" viewBox="0 0 93 92" fill="none" xmlns="http://www.w3.org/2000/svg">
<rect x="0.5" width="92" height="92" rx="46" fill="black"/>
<path d="M67.2823 43.023C67.4807 42.9291 67.6073 42.729 67.6067 42.5101L67.5974 39.22C67.5962 38.9071 67.3431 38.655 67.0313 38.655H67.0297C66.7173 38.6561 66.4642 38.9104 66.4653 39.2222L66.4736 42.153L63.367 43.6178C63.2078 43.693 63.0923 43.8378 63.0552 44.0103C62.7346 45.5017 62.2963 46.9742 61.7523 48.3849C61.6395 48.6773 61.7872 49.0074 62.0807 49.1179L64.1182 49.8873L58.7469 59.1905L57.0372 57.8163C56.7932 57.6197 56.4363 57.6597 56.2407 57.9036C55.2866 59.0987 54.2319 60.222 53.107 61.2413C52.976 61.3596 52.908 61.5331 52.9235 61.7089L53.2187 65.1107L45.8928 69.3405L46.1128 66.2847C46.1411 65.8985 45.7817 65.6025 45.4119 65.6944C44.3877 65.9501 43.3596 66.0662 42.3899 65.9896C42.3871 65.9897 42.3871 65.9896 42.3871 65.9896C42.2372 65.9799 41.9576 66.0556 41.8349 66.2969C41.7673 66.4299 39.8262 70.2465 39.9024 70.0967L34.8722 67.2222L37.1916 63.6558C37.3133 63.4697 37.2599 63.1348 37.1806 63.0212C36.6598 62.2783 36.2337 61.354 35.9147 60.2739C35.8038 59.8994 35.3603 59.7538 35.0491 59.9666C34.9336 60.0454 32.3414 61.8152 32.5016 61.7059C32.5013 61.5925 32.4762 52.8142 32.4776 53.2957C33.3642 52.877 35.7339 51.758 35.5819 51.8298C35.7137 51.7677 35.8703 51.5498 35.8959 51.4307C36.2823 49.6331 37.0855 47.3653 37.2021 47.0649C37.3164 46.7686 37.1654 46.4409 36.876 46.3319C36.7619 46.2886 34.7012 45.505 34.8318 45.5547C34.8993 45.4382 40.5658 35.651 40.2077 36.2695C40.3217 36.3602 42.0225 37.7135 41.9086 37.6228L41.9123 37.6258C42.1463 37.8115 42.5294 37.7517 42.7011 37.5429C43.0254 37.172 44.0254 35.8556 45.8364 34.213C45.9628 34.0985 46.0303 33.8696 46.0199 33.7464L45.7319 30.3402L53.0561 26.1104C52.8847 28.5637 52.801 29.1747 52.8444 29.3475C52.9017 29.5717 53.1248 29.7753 53.3928 29.7753C53.6407 29.7753 54.9138 29.3345 56.5519 29.4735C56.7846 29.4967 57.0002 29.3718 57.1046 29.1662C57.1649 29.0481 59.1704 25.1187 59.0475 25.3595L64.079 28.2198C63.8778 28.5297 61.6843 31.909 61.759 31.794C61.6329 31.9886 61.6379 32.2396 61.7711 32.4286C62.299 33.176 62.7252 34.0969 63.0398 35.1659C63.149 35.5388 63.5897 35.6888 63.901 35.4744L66.4498 33.7409L66.4531 34.9072C66.4542 35.219 66.7074 35.4711 67.0191 35.4711H67.0208C67.3337 35.47 67.5863 35.2157 67.5852 34.9028L67.5786 32.6707C67.578 32.4998 67.4649 32.2814 67.2939 32.1821L64.0716 30.3103C64.291 29.9712 65.441 28.1849 65.3713 28.306C65.5076 28.0691 65.4565 27.7043 65.1646 27.5344C63.9353 26.828 69.6179 30.0933 53.1418 20.6258C52.9308 20.5051 52.6797 20.5388 52.5042 20.6839C52.4979 20.6891 52.4943 20.6966 52.4883 20.7021C52.4448 20.7413 52.402 20.7823 52.3713 20.8359C52.3673 20.8427 52.3677 20.8504 52.3641 20.8573C52.3628 20.8597 52.3603 20.8611 52.3591 20.8635L51.2657 23.0159L48.0398 21.141C47.8634 21.0393 47.6473 21.0393 47.4721 21.141C47.2342 21.2784 38.7751 26.1675 38.8914 26.0939C38.7456 26.1862 38.6274 26.4601 38.6272 26.5737C38.6269 26.6877 38.9198 30.2253 38.9246 30.1114C38.0593 30.9046 37.2405 31.7711 36.4653 32.6784L34.3764 31.4635C34.247 31.3883 34.0928 31.3695 33.9457 31.4049C33.8004 31.4436 33.676 31.5387 33.6008 31.6691L27.5762 42.1087C27.4203 42.3785 27.5126 42.7245 27.7823 42.8815L29.8831 44.1023C29.4913 45.2269 29.1561 46.3541 28.9072 47.4618L25.7183 48.9631C25.5281 49.0527 25.4032 49.2406 25.3938 49.4507C25.3887 49.5643 25.3854 59.4377 25.4281 59.3243C25.4286 59.5255 25.5359 59.7112 25.71 59.8129L28.9304 61.684L27.6547 63.6525C27.4802 63.9192 27.5623 64.2842 27.8454 64.4495C29.0734 65.1576 23.3966 61.8845 39.856 71.3747C40.1366 71.533 40.4927 71.4298 40.6409 71.1403L41.7392 68.986L44.9674 70.8551C45.122 70.945 45.338 70.9598 45.5158 70.865C45.63 70.8041 54.211 65.8798 54.097 65.91C54.2872 65.8005 54.3972 65.5905 54.3778 65.3716L54.0755 61.8891C55.029 61.008 55.9317 60.0561 56.7663 59.0512L58.5529 60.4862C58.8237 60.7047 59.2236 60.6273 59.3975 60.3281L65.4321 49.8763C65.6062 49.5746 65.4682 49.1868 65.1419 49.0637L63.0088 48.2578C63.4499 47.0439 63.8169 45.7913 64.1016 44.5233L67.2823 43.023ZM65.9503 32.7112L63.8871 34.1146C63.618 33.3683 63.2913 32.6928 62.9121 32.097L63.4544 31.2614L65.9503 32.7112ZM40.051 29.9975L39.8502 27.6118L44.5952 30.3695L44.7966 32.7555L40.051 29.9975ZM53.0976 21.9094L58.0593 24.7922C57.9992 24.9103 56.1498 28.5434 56.2661 28.3149C56.133 28.3093 54.9228 28.3291 54.0152 28.4962C54.0409 28.1476 53.9214 29.759 54.2656 25.0867C54.2662 24.8741 54.1135 24.6767 54.0003 24.6058C53.8864 24.5344 52.1327 23.5135 52.2461 23.5857L53.0976 21.9094ZM47.754 22.2853C48.2197 22.5559 52.7996 25.2178 52.5703 25.0845L45.1417 29.3734L40.3248 26.5746L47.754 22.2853ZM39.5972 31.0441L44.5124 33.9007C43.7537 34.6356 43.2975 35.0539 42.1771 36.3898C42.0635 36.2998 40.5854 35.1293 40.3258 34.9238L37.4494 33.2509C38.1267 32.4692 38.85 31.7358 39.5972 31.0441ZM34.2973 32.7271C35.0863 33.1861 39.3838 35.6864 39.2629 35.6162C39.1975 35.7294 33.4342 45.703 33.8008 45.0686C33.6862 45.0021 28.7241 42.1196 28.8387 42.1861L34.2973 32.7271ZM33.7219 46.333C33.8437 46.38 36.0851 47.2444 35.9435 47.1898C35.7723 47.6599 35.261 49.2414 34.9707 50.4399L30.0506 47.5803C30.271 46.6214 30.5389 45.6504 30.871 44.6763L33.7219 46.333ZM29.3698 48.4951L34.1244 51.2585L31.937 52.2983L27.176 49.528L29.3698 48.4951ZM26.5353 50.4689L31.3453 53.2647L31.3698 61.7882C31.2562 61.7224 26.2409 58.8124 26.5591 58.997L26.5353 50.4689ZM29.9102 62.2532C32.034 63.4526 31.4729 63.2107 31.7833 63.3012C31.8968 63.3344 32.0251 63.3809 32.2216 63.2666C32.403 63.1611 34.8919 61.4474 35.065 61.3287C35.3346 62.0794 35.6607 62.7563 36.0384 63.3506L33.8888 66.6518L28.9277 63.7685L29.9102 62.2532ZM42.6801 67.1403C43.4256 67.1703 44.1924 67.0949 44.9288 66.9581L44.7513 69.4223L42.2541 67.976L42.6801 67.1403Z" fill="white"/>
<path d="M67.0236 36.2848C66.7107 36.2859 66.4581 36.5391 66.4586 36.8519L66.4603 37.5495C66.4608 37.8624 66.7146 38.1145 67.0263 38.1145C67.3392 38.1134 67.5929 37.8602 67.5924 37.5473L67.5907 36.8497C67.5902 36.5369 67.3353 36.2848 67.0236 36.2848Z" fill="white"/>
<path d="M49.2818 36.6518C44.0675 39.6622 39.8388 46.9621 39.8554 52.9221C39.8738 59.1366 44.4293 61.7645 49.9076 58.599C55.0677 55.6196 59.2516 48.3462 59.2345 42.3851C59.2162 36.1474 54.6891 33.5272 49.2818 36.6518ZM58.1024 42.3873C58.1184 47.988 54.1882 54.8203 49.3415 57.6195C44.6423 60.3326 41.0025 58.2804 40.9875 52.9198C40.972 47.3203 44.947 40.4615 49.8479 37.6313C54.5097 34.9425 58.0876 37.0373 58.1024 42.3873Z" fill="white"/>
<path d="M51.0402 47.0218C50.541 46.7355 49.8948 46.7797 49.2641 47.1423C48.9949 47.2982 48.7528 47.3424 48.6141 47.2639C48.4781 47.1854 48.3968 46.9566 48.3957 46.6525C48.3935 45.7637 49.0452 44.6349 49.8191 44.1883C50.0867 44.0346 50.3282 43.9926 50.4642 44.0689C50.6002 44.1474 50.682 44.3762 50.6831 44.6825C50.6842 44.9942 50.9512 45.2562 51.2508 45.2463C51.5637 45.2452 51.8163 44.9909 51.8152 44.678C51.813 43.9539 51.5261 43.3746 51.0286 43.0883C50.7551 42.9299 50.4364 42.8809 50.1021 42.9201V41.8755C50.1021 41.5626 49.849 41.3094 49.5361 41.3094C49.2232 41.3094 48.9701 41.5626 48.9701 41.8755V43.4029C47.9917 44.1228 47.2606 45.4799 47.2637 46.6559C47.2659 47.38 47.5522 47.9593 48.0497 48.2456C48.5477 48.5309 49.1972 48.4877 49.8302 48.1229C50.0966 47.9692 50.3376 47.9239 50.4758 48.0035C50.6118 48.082 50.693 48.3108 50.6941 48.616C50.6969 49.5004 50.0474 50.6259 49.2757 51.0714C49.006 51.2273 48.7622 51.2715 48.624 51.193C48.4891 51.1156 48.4079 50.889 48.4068 50.5861C48.4057 50.2743 48.1525 50.0222 47.8407 50.0222H47.8391C47.5262 50.0233 47.2736 50.2776 47.2747 50.5905C47.2769 51.3113 47.5633 51.8884 48.0596 52.1747C48.2774 52.2996 48.524 52.3616 48.7849 52.3616C48.8449 52.3616 48.9087 52.3405 48.9701 52.3339V53.3997C48.9701 53.7125 49.2232 53.9657 49.5361 53.9657C49.849 53.9657 50.1021 53.7125 50.1021 53.3997V51.8712C51.0894 51.1572 51.8298 49.7932 51.8262 48.6116C51.824 47.8874 51.5377 47.3081 51.0402 47.0218Z" fill="white"/>
<path d="M35.1124 21.2681L34.32 24.681C34.2384 25.0328 34.5021 25.3753 34.8716 25.3753C35.1287 25.3753 35.3619 25.1984 35.4222 24.9375L36.5471 20.0941C36.5836 19.9382 36.5521 19.7735 36.4603 19.642C36.3685 19.5104 36.2248 19.4242 36.0656 19.4043L31.4914 18.8349C31.1896 18.7929 30.8983 19.0162 30.8602 19.3269C30.8215 19.6364 31.0415 19.9195 31.3521 19.9581L34.4575 20.3449C26.1479 25.7093 19.5548 37.4559 19.5825 47.1456C19.5836 47.4585 19.8368 47.7106 20.1486 47.7106H20.1502C20.4625 47.7095 20.7157 47.4552 20.7146 47.1434C20.6879 37.7797 27.0746 26.4245 35.1124 21.2681Z" fill="white"/>
<path d="M72.8514 44.5366H72.8498C72.5375 44.5377 72.2843 44.792 72.2854 45.1038C72.3118 54.3596 66.0812 65.5624 58.1821 70.8051L58.9912 67.3196C59.062 67.0145 58.873 66.7105 58.5684 66.6397C58.2644 66.5701 57.9587 66.7591 57.889 67.0632C56.7066 72.1548 56.7896 71.773 56.7632 71.953C56.7215 72.2647 56.9236 72.5561 57.2456 72.5964C57.2992 72.6031 61.836 73.1702 61.89 73.1702C62.1713 73.1702 62.4157 72.9601 62.451 72.6738C62.4897 72.3642 62.2697 72.0812 61.9591 72.0425L58.9351 71.6659C67.0596 66.1892 73.4448 54.6463 73.4175 45.1016C73.4164 44.7887 73.1632 44.5366 72.8514 44.5366Z" fill="white"/>
</svg>
