<svg width="93" height="92" viewBox="0 0 93 92" fill="none" xmlns="http://www.w3.org/2000/svg">
<rect x="0.5" width="92" height="92" rx="46" fill="black"/>
<path d="M55.0872 55.5152L63.2307 50.8144C63.5015 50.6585 63.5944 50.3125 63.4379 50.0417C63.2815 49.7708 62.9338 49.6768 62.6646 49.8349L54.5212 54.5357C54.2503 54.6916 54.1575 55.0376 54.3139 55.3085C54.4715 55.5805 54.8195 55.6715 55.0872 55.5152Z" fill="white"/>
<path d="M59.955 58.2681C58.9307 58.8595 58.1314 60.2492 58.1353 61.4299C58.1388 62.8423 59.3021 63.5015 60.5304 62.7919C61.5503 62.2038 62.3463 60.8252 62.343 59.6522C62.3395 58.2261 61.1699 57.5623 59.955 58.2681ZM59.9649 61.8113C59.4983 62.0785 59.2686 61.9688 59.2673 61.4266C59.2646 60.6395 59.8389 59.6423 60.521 59.2476C60.9987 58.9736 61.2097 59.1241 61.2109 59.6544C61.2131 60.4327 60.6426 61.42 59.9649 61.8113Z" fill="white"/>
<path d="M73.3475 43.6378C73.0459 43.4632 67.7203 40.3692 67.8351 40.4354L67.8176 32.3342C67.817 32.1319 67.7092 31.9456 67.534 31.845C67.5265 31.8406 67.5174 31.8424 67.5097 31.8385L45.6382 19.1279C45.4618 19.0262 45.2457 19.0262 45.0705 19.1268C44.9567 19.1925 26.0333 30.1167 27.2326 29.4227C27.0623 29.5213 26.9479 29.7106 26.9473 29.9169C26.9473 29.92 26.9495 29.9224 26.9495 29.9254L26.9808 39.9005L25.8418 39.2389C25.6671 39.1366 25.4504 39.1371 25.2746 39.2378C25.1164 39.3289 26.3756 38.6037 19.6137 42.498C19.5068 42.5594 19.331 42.8496 19.3307 42.9872L19.331 42.9886C19.331 43.1021 19.3631 56.3001 19.365 56.4162C19.3655 56.6185 19.4733 56.8043 19.6474 56.9049C28.0134 61.7658 48.3707 73.5797 47.1307 72.8733C47.3062 72.9733 47.5211 72.9741 47.6961 72.8722L73.3862 58.0403C73.562 57.9397 73.6698 57.7517 73.6692 57.5494L73.6311 44.127C73.6304 43.9199 73.5163 43.7356 73.3475 43.6378ZM53.5926 55.5915C53.5663 55.4473 53.3941 55.2452 53.3167 55.2001L50.009 53.2786C50.0086 53.1604 49.9771 42.8509 49.9774 42.9653L66.6883 33.3175L66.7253 48.0583L66.1643 51.9523L54.1923 58.8639L53.5926 55.5915ZM52.9238 24.6712L36.2224 34.3137L32.8624 32.3629L49.5654 22.7194L52.9238 24.6712ZM57.416 27.2819L40.7165 36.923L37.3515 34.9693L54.0524 25.3271L57.416 27.2819ZM61.9178 29.8981L45.2105 39.544L41.8358 37.5843L58.5446 27.9377L61.9178 29.8981ZM66.1155 32.3375L49.4109 41.9832L46.3395 40.1996L63.0464 30.5539L66.1155 32.3375ZM36.7981 45.6032L36.7782 35.9559L40.1504 37.9155L40.1704 47.5629C39.8182 47.3583 36.5931 45.484 36.7981 45.6032ZM41.2839 38.5742L44.645 40.5274L44.6649 50.174L41.3038 48.2213L41.2839 38.5742ZM45.7784 41.186L48.8452 42.9682L48.8739 52.6191L45.7983 50.8324L45.7784 41.186ZM31.1618 32.6922L31.1817 42.3391L28.1148 40.5567L28.0849 30.9042L31.1618 32.6922ZM32.2952 33.3509L35.6448 35.2973L35.6647 44.9444L32.3151 42.9978L32.2952 33.3509ZM71.9357 44.127L67.8482 46.4875L67.838 41.7457L71.9357 44.127ZM45.3524 20.2711L48.4369 22.0636L31.7334 31.7074L28.648 29.916L45.3524 20.2711ZM25.5554 40.382C31.0154 43.554 42.8127 50.4076 51.9033 55.6888L47.3732 58.3076L21.0267 42.9905L25.5554 40.382ZM20.4655 43.9739C29.73 49.3603 41.5985 56.2607 46.8073 59.2891C46.858 75.8788 46.8405 70.1482 46.8443 71.3896C37.9986 66.2524 26.1525 59.3727 20.4965 56.0879L20.4655 43.9739ZM47.9803 71.4018C47.9764 70.1631 47.9944 75.889 47.9421 59.2873L52.6241 56.5843L53.2239 59.8567C53.257 60.038 53.3759 60.1917 53.5428 60.269C53.7097 60.3442 53.9043 60.3365 54.0635 60.2447C54.1767 60.1793 67.0969 52.7097 66.9834 52.7802C67.1213 52.6945 67.2276 52.5143 67.246 52.3865C67.3007 52.0129 67.9669 47.4589 67.9243 47.75C68.0411 47.6826 72.7957 44.9379 72.5018 45.1076L72.536 57.2244L47.9803 71.4018Z" fill="white"/>
<path d="M57.127 45.9456C57.5593 46.1889 58.1126 46.1513 58.6477 45.8384C58.8345 45.7289 58.981 45.7113 59.0324 45.7422C59.086 45.7721 59.1441 45.9025 59.1463 46.1181C59.1524 46.7648 58.6659 47.6216 58.1043 47.95C57.9142 48.0627 57.7682 48.0793 57.7141 48.0484C57.661 48.0185 57.6035 47.8892 57.6018 47.6769C57.5991 47.3663 57.3459 47.1164 57.0358 47.1164H57.0308C56.718 47.1197 56.467 47.3751 56.4698 47.688C56.4753 48.2993 56.7252 48.7891 57.1558 49.0334C57.3437 49.1395 57.5554 49.1926 57.7782 49.1926C57.7892 49.1926 57.8012 49.1878 57.8123 49.1875L57.8169 49.8869C57.8191 50.1987 58.0717 50.4496 58.3829 50.4496H58.3868C58.6991 50.4474 58.9512 50.192 58.949 49.8803L58.9415 48.742C59.7172 48.1435 60.2873 47.0511 60.2784 46.107C60.2723 45.4935 60.0213 45.0004 59.5902 44.7572C59.1579 44.5095 58.6046 44.5504 58.0745 44.8622C57.8838 44.975 57.74 44.9916 57.6853 44.9606C57.6323 44.9307 57.5742 44.8003 57.572 44.5847C57.5659 43.9358 58.054 43.0768 58.6173 42.7462C58.8058 42.6367 58.9512 42.6202 59.0026 42.6495C59.0562 42.6799 59.1142 42.8103 59.1164 43.0259C59.1198 43.3366 59.3724 43.5864 59.6825 43.5864H59.688C60.0003 43.5831 60.2513 43.3277 60.2485 43.0148C60.2424 42.4007 59.992 41.9087 59.5609 41.6644C59.3594 41.5503 59.1309 41.504 58.8922 41.5116L58.8876 40.8214C58.8854 40.5102 58.6328 40.2593 58.3216 40.2593H58.3177C58.0054 40.2615 57.7533 40.5163 57.7555 40.8292L57.763 41.9672C56.9942 42.5694 56.431 43.6564 56.4399 44.5958C56.446 45.2093 56.6964 45.7013 57.127 45.9456Z" fill="white"/>
</svg>
