<svg width="93" height="92" viewBox="0 0 93 92" fill="none" xmlns="http://www.w3.org/2000/svg">
<rect x="0.5" width="92" height="92" rx="46" fill="black"/>
<path d="M31.3723 59.3696C31.3734 59.6825 31.6266 59.9346 31.9383 59.9346C31.9389 59.9346 31.9394 59.9346 31.94 59.9346C32.2523 59.9335 32.5055 59.6792 32.5044 59.3674L32.432 33.755L36.9678 36.391C37.0647 70.3825 37.0075 50.3505 37.0685 71.8125L32.532 69.1758L32.5232 66.0648C32.5221 65.7519 32.2689 65.4999 31.9571 65.4999C31.9566 65.4999 31.956 65.4999 31.9555 65.4999C31.6432 65.501 31.39 65.7552 31.3911 66.067L31.401 69.503C31.4016 69.7042 31.5088 69.89 31.6824 69.9917C31.797 70.0583 37.4688 73.3543 37.3542 73.2877C37.354 73.2876 37.3545 73.2879 37.3542 73.2877C37.5298 73.3877 37.7454 73.3892 37.9204 73.2873L61.4198 59.719C61.5956 59.6184 61.7034 59.4304 61.7029 59.2281C61.6935 55.9361 61.6079 25.654 61.5989 22.4959C61.5983 22.2989 61.4928 22.1095 61.3154 22.0067C61.3147 22.0063 61.3138 22.0065 61.3131 22.0061L55.6467 18.7133C55.4715 18.611 55.2548 18.611 55.0795 18.7122L31.5801 32.2794C31.3803 32.3951 31.2974 32.6551 31.2971 32.7692C31.2971 32.7696 31.2974 32.7699 31.2974 32.7703C31.2974 32.7707 31.2971 32.771 31.2971 32.7714L31.3723 59.3696ZM60.4696 23.4765L60.4873 29.8836L38.1183 42.7982L38.1001 36.3911C40.9214 34.7623 53.9912 27.2167 60.4696 23.4765ZM38.2007 71.8191L38.1222 44.1044L60.4912 31.1894L60.5697 58.9031L38.2007 71.8191ZM55.3615 19.8564L59.9035 22.4959L37.5338 35.4106C37.3893 35.3267 32.7719 32.6432 32.9925 32.7714L55.3615 19.8564Z" fill="white"/>
<path d="M31.9527 64.5093C32.265 64.5082 32.5182 64.2539 32.5171 63.9421L32.511 61.7134C32.5099 61.4005 32.2567 61.1484 31.9449 61.1484H31.9433C31.631 61.1495 31.3778 61.4038 31.3789 61.7156L31.385 63.9444C31.3861 64.2572 31.6393 64.5093 31.951 64.5093H31.9527Z" fill="white"/>
<path d="M58.2121 37.3274C58.0374 37.2268 57.8207 37.2268 57.646 37.3274L40.4797 47.2386C40.3045 47.3392 40.1967 47.526 40.1967 47.7283V53.549C40.1967 53.9866 40.6731 54.2558 41.0458 54.0388L58.2121 44.1282C58.3873 44.027 58.4951 43.8402 58.4951 43.6378V37.8177C58.4951 37.6154 58.3873 37.4286 58.2121 37.3274ZM57.363 43.3112L41.3288 52.5684V48.0556L57.363 38.7983V43.3112Z" fill="white"/>
<path d="M57.6461 48.9675L40.4797 58.8787C40.2089 59.0346 40.116 59.3806 40.2725 59.6515C40.4301 59.9235 40.7781 60.0145 41.0458 59.8582L58.2121 49.947C58.483 49.7911 58.5758 49.4451 58.4194 49.1742C58.263 48.9034 57.9153 48.8094 57.6461 48.9675Z" fill="white"/>
<path d="M57.6461 54.7883L40.4797 64.6995C40.2089 64.8554 40.116 65.2014 40.2725 65.4723C40.4301 65.7443 40.7781 65.8353 41.0458 65.679L58.2121 55.7678C58.483 55.6119 58.5758 55.2659 58.4194 54.995C58.263 54.7242 57.9153 54.6291 57.6461 54.7883Z" fill="white"/>
<path d="M49.1256 35.3749C50.0062 34.8663 50.6933 33.6751 50.6905 32.6624C50.687 31.3994 49.6347 30.7967 48.5513 31.4231C47.6564 31.9394 46.9836 33.1124 46.9864 34.1511C46.9899 35.4083 48.0372 36.0028 49.1256 35.3749ZM49.1173 32.4038C49.4417 32.2153 49.5575 32.2886 49.5584 32.6658C49.5601 33.2782 49.093 34.0858 48.5596 34.3943C48.2431 34.5766 48.1195 34.5415 48.1185 34.1477C48.1168 33.527 48.5834 32.7116 49.1173 32.4038Z" fill="white"/>
<path d="M53.4036 32.9052C54.2841 32.3967 54.9712 31.2055 54.9685 30.1928C54.965 28.9346 53.9206 28.3257 52.8292 28.9535C51.9453 29.4637 51.2549 30.6638 51.2577 31.6853C51.2612 32.9346 52.3065 33.5377 53.4036 32.9052ZM53.3953 29.9341C53.7284 29.7413 53.8354 29.8188 53.8364 30.1961C53.838 30.8086 53.3709 31.6162 52.8375 31.9246C52.5092 32.1136 52.3908 32.0622 52.3898 31.682C52.3881 31.0606 52.858 30.2442 53.3953 29.9341Z" fill="white"/>
<path d="M57.6814 30.4348C58.5626 29.9262 59.2497 28.735 59.2463 27.7229C59.2429 26.4622 58.1963 25.8565 57.1071 26.483C56.2232 26.9938 55.5328 28.1939 55.5356 29.2148C55.5391 30.4707 56.5909 31.0656 57.6814 30.4348ZM57.6732 27.4636C58.0132 27.2671 58.1133 27.3593 58.1143 27.7262C58.1165 28.3387 57.6494 29.1463 57.1154 29.4542C56.7857 29.6447 56.6687 29.5913 56.6677 29.2115C56.666 28.5907 57.1359 27.7743 57.6732 27.4636Z" fill="white"/>
</svg>
