<svg width="93" height="92" viewBox="0 0 93 92" fill="none" xmlns="http://www.w3.org/2000/svg">
<rect x="0.5" width="92" height="92" rx="46" fill="white"/>
<path d="M30.3695 59.9644L43.6747 70.336L48.8564 73.3475C49.1378 73.5129 49.4782 73.3889 49.6227 73.1436C50.8218 71.1185 46.4047 79.4322 62.7917 47.5525C62.9209 47.3014 62.7906 46.9347 62.5706 46.8057L57.3978 43.7942C57.222 43.6924 57.0053 43.6924 56.8295 43.7931L56.1459 44.1878L56.0833 22.1521C56.0827 22.0386 56.0094 21.7822 55.7981 21.6606C55.415 21.4402 50.5045 18.588 50.6197 18.6536C50.4472 18.5519 50.2295 18.5519 50.0526 18.6525L37.0414 26.1641C36.8645 26.2665 36.7584 26.455 36.7584 26.6538C36.7584 26.7701 36.7778 33.9041 36.7783 33.7879C36.7794 34.0997 37.0326 34.3523 37.3444 34.3523C37.6572 34.3512 37.9115 34.0974 37.9104 33.7846L37.8927 27.6394L41.941 29.9919C41.9538 34.2646 42.0025 51.7627 42.019 57.6821L37.9712 55.3305L37.9303 40.8927C37.9292 40.5809 37.676 40.3283 37.3643 40.3283C37.0514 40.3294 36.7971 40.5831 36.7982 40.896L36.8393 55.3303C36.1833 55.7095 39.2159 53.9571 30.4238 59.0389C30.0877 59.2436 30.0689 59.7296 30.3695 59.9644ZM48.9503 71.9896C32.4446 59.1177 38.1461 63.564 36.911 62.6008L42.871 59.1623C43.0513 59.0585 43.1551 58.8599 43.1551 58.6681C43.1551 56.208 43.1824 68.3569 43.0755 29.9942C44.2928 29.291 38.6712 32.5383 54.9534 23.133L54.9536 23.1703L55.0286 51.156C55.0286 51.6073 55.5214 51.8541 55.8821 51.6463L60.901 48.7486C59.6587 51.1645 65.3534 40.0898 48.9503 71.9896ZM56.1507 45.4928L57.1115 44.9378L61.1565 47.2926L56.1629 50.1733C56.1626 50.0594 56.1499 45.1819 56.1507 45.4928ZM50.3345 19.7967L54.3855 22.151C38.107 31.553 43.7215 28.3102 42.5069 29.0117L38.4532 26.656L50.3345 19.7967ZM37.4052 56.3106L41.4592 58.6659C41.3455 58.7315 35.5318 62.0883 35.9002 61.8757L31.8465 59.5199L37.4052 56.3106Z" fill="black"/>
<path d="M37.3565 38.5738C37.6693 38.5727 37.9236 38.3189 37.9225 38.0061L37.917 36.0962C37.9159 35.7839 37.6627 35.5319 37.351 35.5319C37.0381 35.533 36.7838 35.7867 36.7849 36.0996L36.7904 38.0094C36.7915 38.3211 37.0447 38.5738 37.3565 38.5738Z" fill="black"/>
<path d="M51.074 40.2382C50.4406 39.8739 49.6368 39.932 48.8143 40.4062C48.3577 40.6694 47.9431 40.7302 47.6778 40.5771C47.4125 40.4245 47.2599 40.0414 47.2588 39.5251C47.2555 38.2106 48.2195 36.5413 49.3649 35.8796C49.8148 35.6198 50.2283 35.5584 50.4936 35.7121C50.759 35.8647 50.9115 36.2483 50.9126 36.7646C50.9137 37.0769 51.1669 37.3295 51.4787 37.3295C51.7915 37.329 52.0458 37.0747 52.0447 36.7624C52.0425 35.8171 51.692 35.0958 51.0586 34.7309C50.6474 34.4942 50.1611 34.4548 49.6479 34.5727V32.8377C49.6479 32.5248 49.3947 32.2717 49.0818 32.2717C48.769 32.2717 48.5158 32.5248 48.5158 32.8377V35.0944C47.1527 36.0419 46.1215 37.9128 46.1267 39.5284C46.1289 40.4731 46.4794 41.1939 47.1129 41.5582C47.7508 41.9242 48.5556 41.8617 49.3803 41.3869C49.8292 41.1282 50.2438 41.064 50.5091 41.2194C50.7744 41.3719 50.9281 41.7556 50.9292 42.2719C50.9325 43.5836 49.9707 45.2474 48.8298 45.9058C48.3743 46.1694 47.9597 46.2308 47.6911 46.0766C47.428 45.9246 47.2754 45.5443 47.2743 45.0324C47.2732 44.7201 47.02 44.468 46.7082 44.468C46.3954 44.4691 46.1411 44.7228 46.1422 45.0357C46.1444 45.976 46.4949 46.694 47.1272 47.0577C47.4014 47.2158 47.7077 47.2943 48.0338 47.2943C48.1891 47.2943 48.3528 47.2561 48.5158 47.2203V48.9687C48.5158 49.2815 48.769 49.5347 49.0818 49.5347C49.3947 49.5347 49.6479 49.2815 49.6479 48.9687V46.7124C51.0209 45.7752 52.0644 43.894 52.0613 42.2691C52.0591 41.3238 51.7075 40.603 51.074 40.2382Z" fill="black"/>
</svg>
