<svg width="93" height="92" viewBox="0 0 93 92" fill="none" xmlns="http://www.w3.org/2000/svg">
<rect x="0.5" width="92" height="92" rx="46" fill="black"/>
<path d="M24.0481 52.4733L23.1173 51.9324C22.8441 51.7724 22.4891 51.8654 22.3291 52.1414C22.1686 52.4164 22.2627 52.7696 22.5382 52.9296L23.4689 53.4705C23.741 53.6294 24.0958 53.5398 24.2571 53.2615C24.4177 52.9865 24.3236 52.6333 24.0481 52.4733Z" fill="white"/>
<path d="M73.8865 41.0627C73.882 41.0601 73.8765 41.0613 73.872 41.0588C20.8933 10.2306 96.7311 54.3465 43.7901 23.5725C43.6115 23.4677 43.3918 23.4688 43.2121 23.5713L27.4509 32.6635C27.2736 32.7659 27.1628 33.0471 27.1625 33.1627C27.1625 33.1624 27.1625 33.163 27.1625 33.1627C27.1625 33.2789 27.1689 37.7493 27.169 37.6331L19.0968 42.2982C18.9009 42.4114 18.8083 42.6542 18.8083 42.7974C18.8083 42.7971 18.8083 42.7977 18.8083 42.7974C18.8083 42.9159 18.8198 50.5562 18.8202 50.4377C18.8207 50.6428 18.93 50.8326 19.1081 50.9357L20.7808 51.9048C21.0515 52.0628 21.4074 51.9736 21.569 51.6946C21.729 51.4191 21.6349 51.0659 21.3589 50.9064L19.9735 50.1036L19.9639 43.8012L29.1807 49.1531L29.1617 55.4467L25.8024 53.4919C25.5263 53.333 25.1731 53.4248 25.0137 53.7003C24.8536 53.9758 24.9466 54.3291 25.2221 54.4891C48.9049 68.2988 25.5413 54.686 49.2129 68.4288C49.3911 68.5315 49.609 68.5319 49.7892 68.4288L65.5509 59.336C65.7295 59.2329 65.84 59.0414 65.8394 58.8346L65.8284 54.3667L73.9034 49.7047C74.0825 49.6016 74.1924 49.41 74.1918 49.2038L74.1755 41.5613C74.1749 41.3551 74.0651 41.1652 73.8865 41.0627ZM60.8711 37.6525L67.5736 41.55L57.8436 47.1739L51.1256 43.2729C54.3125 41.435 61.3184 37.3945 60.8711 37.6525ZM57.2628 50.9862L57.2759 57.3009C49.7531 52.9214 52.295 54.405 47.9885 51.9082C47.9908 51.7897 48.1157 45.2687 48.108 45.6696C48.2267 45.7386 57.3841 51.0566 57.2628 50.9862ZM45.0736 51.5744C45.3678 51.7442 52.2414 55.7126 51.803 55.4595L49.4906 56.7962L42.7835 52.8968L45.0736 51.5744ZM40.3387 54.3089C40.4542 54.2422 41.7475 53.495 41.6321 53.5617L49.1994 57.9619C49.3772 58.0659 49.5986 58.0663 49.778 57.963L52.9536 56.1274L54.2426 56.8758L49.4899 59.6234L40.3387 54.3089ZM62.1402 35.5778C60.619 36.4561 67.6508 32.3961 47.2629 44.1676C47.2612 44.1686 47.2605 44.1709 47.2587 44.172C47.0835 44.2734 46.9739 44.4589 46.97 44.6611C46.9677 44.7773 46.8351 51.6826 46.8435 51.2449C46.7249 51.1759 38.5471 46.4164 38.6683 46.4869C38.6687 46.3684 38.6894 39.0631 38.6881 39.5204L53.8609 30.7524C53.9772 30.8202 62.6927 35.8998 62.1402 35.5778ZM37.5322 39.5171C37.5318 39.6355 37.5145 46.2163 37.5155 45.8153C35.0977 44.4072 28.2122 40.4143 28.3276 40.4813C28.3274 40.3628 28.3178 34.0481 28.318 34.1666L37.5322 39.5171ZM27.7195 41.4628L34.507 45.4094L32.1942 46.7463L25.4052 42.7997L27.7195 41.4628ZM30.3344 49.1548L35.657 46.0781C35.8716 46.2034 44.3689 51.1661 43.923 50.9057L43.9212 50.9067C43.8042 50.9743 38.7913 53.8705 38.9083 53.8029C38.7922 53.9152 38.6448 53.9839 38.6271 54.2778C38.6201 54.3937 38.477 60.9842 38.4901 60.8687L30.3136 56.1168L30.3344 49.1548ZM57.8442 49.9892L48.6943 44.6751C48.8097 44.6085 50.0874 43.8707 49.972 43.9374L57.5535 48.3396C57.7359 48.4451 57.9562 48.4411 58.1315 48.3401L69.0125 42.0515C69.1911 41.9484 69.3009 41.7585 69.3009 41.5523C69.3009 41.3466 69.1917 41.1562 69.0142 41.0531L62.0233 36.988L63.299 36.2524L72.4413 41.5619L57.8442 49.9892ZM43.4994 24.7376L52.7003 30.0814L51.4167 30.8239L43.7789 26.3878C43.6003 26.283 43.3794 26.2841 43.2008 26.3866L32.3204 32.6753C32.1418 32.7784 32.0319 32.9689 32.0319 33.1745C32.0319 33.3801 32.1412 33.5706 32.3193 33.6737L39.3901 37.7803L38.1124 38.5194L28.8913 33.1648L43.4994 24.7376ZM40.5359 37.1121L33.7599 33.1762L43.4887 27.5529L50.2653 31.4894L40.5359 37.1121ZM27.1732 40.4459L23.9663 42.2982C23.7883 42.4013 23.6784 42.5912 23.6778 42.7974C23.6773 43.003 23.7871 43.1935 23.9646 43.2966L31.043 47.412L29.7592 48.1542C29.5845 48.0528 19.9994 42.4872 20.5364 42.799L27.171 38.965L27.1732 40.4459ZM39.6305 61.5311L39.7542 55.3041L48.9131 60.6231C48.9132 60.7412 48.9227 67.3102 48.9222 66.9262L39.6305 61.5311ZM50.0762 66.9311C50.0757 66.5671 50.0666 60.3732 50.067 60.6234L55.3934 57.5439L57.5653 58.8048C57.7409 58.9064 57.9607 58.9099 58.1433 58.8053L64.676 55.0345L64.685 58.5033L50.0762 66.9311ZM58.4303 57.3057L58.4205 50.9921L73.0239 42.5602L73.0374 48.8726L58.4303 57.3057Z" fill="white"/>
<path d="M40.1973 30.9502C38.8032 31.7545 38.7968 33.2583 40.1843 34.0652C41.3753 34.756 43.2351 34.7475 44.416 34.0658C45.8169 33.2563 45.8096 31.7518 44.429 30.9513C43.2475 30.264 41.3878 30.264 40.1973 30.9502ZM43.8391 33.0663C43.0171 33.5402 41.5793 33.5413 40.7641 33.0675C40.1302 32.6994 40.1714 32.2976 40.7742 31.9497C41.6106 31.4667 43.018 31.4655 43.8498 31.9485C44.4666 32.3074 44.4578 32.7093 43.8391 33.0663Z" fill="white"/>
<path d="M61.1394 43.7845C62.5398 42.976 62.5334 41.4712 61.1529 40.67C59.9703 39.9821 58.1117 39.9827 56.9212 40.6689C55.5259 41.4745 55.5219 42.9783 56.9083 43.7834C58.099 44.4763 59.9573 44.4662 61.1394 43.7845ZM57.4981 41.6684C58.3359 41.1847 59.7432 41.1847 60.5732 41.6678C61.1874 42.0239 61.1836 42.4266 60.5625 42.785C59.7405 43.2589 58.3038 43.26 57.4874 42.7862C56.8506 42.4157 56.8983 42.0146 57.4981 41.6684Z" fill="white"/>
</svg>
