<svg width="93" height="92" viewBox="0 0 93 92" fill="none" xmlns="http://www.w3.org/2000/svg">
<rect x="0.5" width="92" height="92" rx="46" fill="black"/>
<path d="M68.1248 22.3654C68.1244 22.2467 68.0527 21.9923 67.8358 21.8667C67.5035 21.6744 61.7275 18.3187 61.8446 18.3861C61.666 18.2813 61.4451 18.2824 61.2665 18.3849L25.0792 39.2781C24.8989 39.3825 24.7913 39.5747 24.7908 39.7773C24.7908 39.7777 24.7911 39.778 24.7911 39.7784C24.7911 39.8976 24.8485 60.2977 24.8494 60.4355C24.8505 60.7533 25.1085 61.0107 25.4263 61.0107C25.4269 61.0107 25.4274 61.0107 25.428 61.0107C25.7463 61.0096 26.0043 60.751 26.0032 60.4321L25.9474 40.782L30.784 43.5927C30.8914 81.4632 30.8449 65.0563 30.8648 72.1115L26.028 69.3004L26.0173 65.3771C26.0162 65.0594 25.7581 64.8019 25.4404 64.8019C25.4398 64.8019 25.4392 64.8019 25.4387 64.8019C25.1204 64.803 24.8623 65.0616 24.8635 65.3805L24.8753 69.6347C24.8754 69.6515 24.8864 69.6652 24.8879 69.6816C24.8938 69.7492 24.9108 69.8124 24.9397 69.8738C24.9506 69.8974 24.9585 69.9198 24.9725 69.9417C25.0204 70.0164 25.0802 70.084 25.1621 70.1317L31.1544 73.614C31.1543 73.614 31.1545 73.614 31.1544 73.614C31.1552 73.6145 31.1559 73.6152 31.1566 73.6157C31.3321 73.7168 31.5524 73.7192 31.733 73.6152C34.0529 72.2755 21.4654 79.5432 67.9208 52.722C68.1006 52.6181 68.2093 52.4245 68.2093 52.2223C68.2093 52.222 68.2093 52.2225 68.2093 52.2223C68.2093 52.222 68.2093 52.2208 68.2093 52.2206C68.1477 30.5277 68.2269 58.4511 68.1248 22.3654ZM54.7289 35.7635L54.7203 30.4394L58.2454 28.4042L58.2625 33.7234L54.7289 35.7635ZM53.5761 36.4291L50.0419 38.4696L50.0334 33.1454L53.5676 31.1049L53.5761 36.4291ZM48.8891 39.1351L45.3641 41.1703L45.347 35.8511L48.8806 33.8109L48.8891 39.1351ZM44.2124 41.8352L40.6788 43.8754L40.6702 38.5512L44.1953 36.516L44.2124 41.8352ZM39.526 44.541L35.9918 46.5814L35.9833 41.2573L39.5175 39.2168L39.526 44.541ZM64.092 30.3577L64.0835 25.0336L66.9738 23.3648L66.9884 28.6855L64.092 30.3577ZM62.9392 31.0232L59.4142 33.0584L59.3971 27.7392L62.9307 25.6991L62.9392 31.0232ZM34.8305 41.9229L34.839 47.247L31.9529 48.9133C31.9526 48.7948 31.9371 43.2468 31.9381 43.5928L34.8305 41.9229ZM32.004 66.8048L34.8981 65.1339L34.9066 70.4503L32.0186 72.1176C32.0183 71.9992 32.0033 66.557 32.004 66.8048ZM36.0509 64.4683L39.5851 62.4278L39.5936 67.7442L36.0594 69.7847L36.0509 64.4683ZM40.7378 61.7623L44.2629 59.727L44.28 65.0385L40.7464 67.0787L40.7378 61.7623ZM45.4146 59.0621L48.9482 57.0219L48.9567 62.3384L45.4317 64.3736L45.4146 59.0621ZM50.101 56.3563L53.6352 54.3159L53.6437 59.6324L50.1095 61.6728L50.101 56.3563ZM54.788 53.6503L58.3134 51.6148L58.3301 56.9267L54.7965 58.9668L54.788 53.6503ZM59.4652 50.9498L62.9988 48.9097L63.0069 54.2265L59.4819 56.2617L59.4652 50.9498ZM66.9924 30.0158L67.0352 45.2466C60.0151 49.2997 44.2616 58.3953 32.0001 65.4746C31.9914 62.4185 31.9719 55.5772 31.9567 50.2437C48.3331 40.7887 57.1851 35.678 66.9924 30.0158ZM64.1516 48.2441L67.0391 46.577L67.0543 51.8897L64.1597 53.5609L64.1516 48.2441ZM61.5538 19.5512L66.3968 22.3654L31.3609 42.5934L26.5187 39.7795L61.5538 19.5512Z" fill="white"/>
<path d="M25.4348 63.9777H25.4365C25.7554 63.9765 26.0128 63.7174 26.0117 63.399L26.0083 62.3072C26.0072 61.9888 25.7492 61.7319 25.4314 61.7319H25.4297C25.1108 61.7331 24.8534 61.9922 24.8545 62.3105L24.8579 63.4024C24.859 63.7207 25.117 63.9777 25.4348 63.9777Z" fill="white"/>
<path d="M46.2658 54.1124C46.4922 54.1914 46.7529 54.12 46.9075 53.9231L53.0171 46.1392C53.1455 45.9752 53.176 45.7544 53.096 45.5617C53.0159 45.3696 52.8379 45.2349 52.6311 45.2101L46.4974 44.4811C46.3323 44.4585 46.1678 44.5132 46.0455 44.6231C45.9222 44.7329 45.8517 44.8907 45.8523 45.0557L45.8765 53.5687C45.8771 53.8144 46.0337 54.0324 46.2658 54.1124ZM51.475 46.2349L47.0259 51.9039L47.0078 45.7037L51.475 46.2349Z" fill="white"/>
</svg>
