<svg width="93" height="92" viewBox="0 0 93 92" fill="none" xmlns="http://www.w3.org/2000/svg">
<rect x="0.5" width="92" height="92" rx="46" fill="black"/>
<path d="M42.7555 25.4803L44.1111 24.6978C44.3871 24.5383 44.4818 24.1856 44.3224 23.9096C44.1624 23.6329 43.8091 23.5383 43.5342 23.6983L42.1786 24.4809C41.9025 24.6403 41.8079 24.993 41.9673 25.2691C42.1283 25.547 42.4821 25.6383 42.7555 25.4803Z" fill="white"/>
<path d="M61.186 22.3332C60.8539 22.0395 60.4682 21.8818 54.8607 18.604C54.0516 18.1409 53.0167 18.2248 51.9473 18.8412L45.3837 22.6301C45.1076 22.7895 45.013 23.1422 45.1724 23.4183C45.3319 23.6943 45.6846 23.7879 45.9606 23.6295L52.5243 19.8407C53.2212 19.439 53.8477 19.3539 54.2843 19.6035L58.48 22.0453C58.4682 22.0501 58.456 22.0581 58.4442 22.0631C58.273 22.1346 58.101 22.2165 57.9284 22.3162L40.6539 32.2895C40.5382 32.2223 35.5023 29.2956 35.8234 29.4822L40.9419 26.5265C41.2179 26.3671 41.3126 26.0144 41.1531 25.7383C40.9926 25.4612 40.6393 25.3676 40.3649 25.5271L34.3844 28.9802C34.3843 28.9802 34.3846 28.9801 34.3844 28.9802C34.3842 28.9803 34.3835 28.9806 34.3833 28.9807C32.382 30.1356 30.8195 32.8421 30.8246 35.1428C30.8246 35.1439 30.8237 35.1449 30.8237 35.146L30.9201 67.3089C30.9201 68.7489 31.5571 69.6194 32.1725 69.9214L38.1513 73.401C38.1637 73.4082 38.178 73.4054 38.1906 73.4116C39.1028 73.9149 40.1604 73.6812 41.0545 73.1655L58.618 63.0254C60.6203 61.8693 62.1832 59.161 62.1765 56.8595L62.0858 24.6904C62.0824 23.6346 61.7663 22.8154 61.186 22.3332ZM34.6836 30.1543C34.7992 30.2216 39.9055 33.1927 39.5815 33.0041C38.2629 34.0942 37.1782 35.9394 36.8876 37.6661L31.99 34.8198C32.1162 33.1014 33.2537 31.1312 34.6836 30.1543ZM32.7207 68.9067C32.237 68.668 32.0739 67.8747 32.0739 67.3072L31.9804 36.1494L36.8031 38.9563C36.8033 39.0719 36.8812 70.9438 36.9338 71.3575L32.7207 68.9067ZM58.0411 62.0259L40.4776 72.166C39.0308 73.0021 38.0527 72.3932 38.0527 70.7874C37.9253 26.7042 37.9693 41.909 37.9598 38.6194C37.9547 36.7274 39.2885 34.4154 40.935 33.4606C40.9366 33.4597 40.9385 33.4601 40.9402 33.4592L58.5048 23.3191C59.8449 22.5422 60.9263 22.9743 60.9319 24.6938L61.0226 56.8629C61.0282 58.7576 59.6907 61.0738 58.0411 62.0259Z" fill="white"/>
<path d="M59.4462 27.2263C59.3386 26.9547 59.1369 26.7558 58.8778 26.6657C58.591 26.5649 58.2608 26.6105 57.9482 26.7913L54.0235 29.0579C53.9165 29.1199 53.8319 29.2145 53.7829 29.3278L52.7542 31.6986L45.8271 35.6976L45.0243 34.7877C44.8423 34.5809 44.5392 34.5325 44.3031 34.6694L40.3706 36.9399C39.8004 37.27 39.3711 38.0104 39.3728 38.6628C39.3867 41.7087 39.3252 28.24 39.4951 65.4119C39.6691 66.074 40.3448 66.3701 41.0275 65.9759L58.6045 55.8279C59.1792 55.4961 59.6119 54.7501 59.6102 54.0926L59.5353 27.6866C59.5353 27.4922 59.4975 27.3204 59.4462 27.2263ZM58.0276 54.8285L40.601 64.8835L40.5267 38.6594C40.5261 38.4194 40.7351 38.0622 40.9481 37.9388L44.471 35.9049L45.2739 36.8148C45.4553 37.0205 45.7561 37.0689 45.995 36.9331L53.4962 32.6028C53.6032 32.5409 53.6877 32.4462 53.7367 32.333L54.7655 29.9622L58.382 27.8736L58.4563 54.096C58.4569 54.3405 58.2445 54.7034 58.0276 54.8285Z" fill="white"/>
<path d="M46.768 34.0265L51.482 31.3047C51.758 31.1453 51.8527 30.7926 51.6932 30.5165C51.5338 30.2393 51.1794 30.1458 50.905 30.3052L46.1911 33.027C45.915 33.1865 45.8203 33.5392 45.9798 33.8152C46.1396 34.092 46.4934 34.1851 46.768 34.0265Z" fill="white"/>
<path d="M52.0363 60.8738L47.7967 63.3223C47.0333 63.7623 46.4603 64.7522 46.4631 65.625C46.4655 66.7239 47.4074 67.2745 48.3798 66.7146L52.62 64.2666C53.3823 63.826 53.9553 62.8361 53.953 61.9634C53.9506 60.8596 53.003 60.3155 52.0363 60.8738ZM52.0431 63.2671L47.8035 65.7151C47.7133 65.7669 47.6559 65.7793 47.6423 65.79C47.6328 65.7669 47.617 65.7151 47.617 65.6216C47.6153 65.1618 47.9686 64.5551 48.3731 64.3218L52.6132 61.8733C52.7028 61.8214 52.7603 61.809 52.7738 61.7983C52.7834 61.8214 52.7992 61.8733 52.7992 61.9668C52.8003 62.426 52.447 63.0339 52.0431 63.2671Z" fill="white"/>
<path d="M54.0336 23.869C55.0946 23.2523 55.0959 22.0584 54.024 21.4396C53.1665 20.9455 51.8279 20.9461 50.9749 21.4402C49.9125 22.0577 49.9136 23.2515 50.9844 23.8701C51.8557 24.3728 53.1656 24.3729 54.0336 23.869ZM51.554 22.4385C52.0548 22.1471 52.9405 22.1469 53.4471 22.4391C53.7378 22.6063 53.745 22.7022 53.4538 22.8712C52.9518 23.1636 52.0667 23.1619 51.5614 22.8707C51.2564 22.6943 51.2771 22.5985 51.554 22.4385Z" fill="white"/>
<path d="M34.0098 39.6167C33.6633 39.5693 33.4329 39.8758 33.4329 40.1953L33.4379 42.241C33.4385 42.5588 33.6971 42.8162 34.0149 42.8162H34.0165C34.3349 42.8157 34.5923 42.5565 34.5918 42.2376L34.5867 40.1919C34.5861 39.8741 34.3275 39.6167 34.0098 39.6167Z" fill="white"/>
<path d="M34.0098 44.4518H34.0081C33.6898 44.4523 33.4323 44.7115 33.4329 45.0304L33.4379 47.0755C33.4385 47.3933 33.6971 47.6508 34.0149 47.6508H34.0165C34.3349 47.6502 34.5923 47.391 34.5918 47.0721L34.5867 45.027C34.5861 44.7092 34.3275 44.4518 34.0098 44.4518Z" fill="white"/>
<path d="M47.4492 47.4119C47.6228 47.4119 47.7918 47.333 47.9033 47.191L53.4433 40.1327C53.5717 39.9688 53.6021 39.7479 53.5221 39.5553C53.4421 39.3626 53.2641 39.2285 53.0573 39.2037L47.4954 38.5428C47.3253 38.5186 47.1664 38.5744 47.0436 38.6848C46.9202 38.7947 46.8498 38.9524 46.8503 39.1175L46.8723 46.8367C46.8731 47.1569 47.1348 47.4119 47.4492 47.4119ZM51.9012 40.2285L48.0217 45.1718L48.0059 39.7654L51.9012 40.2285Z" fill="white"/>
<path d="M48.0339 50.8621C47.8553 50.759 47.635 50.7607 47.4576 50.8627L42.205 53.8955C42.0258 53.9992 41.9159 54.1902 41.9165 54.3969L41.934 60.4326C41.9348 60.7465 42.1889 61.0079 42.5109 61.0079C42.6106 61.0079 42.7103 60.982 42.7994 60.9307L48.0519 57.8979C48.2311 57.7942 48.341 57.6032 48.3404 57.3965L48.3229 51.3608C48.3224 51.1551 48.212 50.9652 48.0339 50.8621ZM43.085 59.4332L43.0715 54.7276L47.1719 52.3602L47.1854 57.0658L43.085 59.4332Z" fill="white"/>
<path d="M56.76 45.8242C56.5814 45.7216 56.3611 45.7222 56.1836 45.8247L50.931 48.8575C50.7519 48.9612 50.642 49.1522 50.6426 49.359L50.6595 55.3947C50.66 55.6003 50.7705 55.7902 50.9485 55.8933C51.124 55.9944 51.3443 55.9967 51.5249 55.8927L56.7775 52.8599C56.9566 52.7563 57.0665 52.5653 57.0659 52.3585L57.049 46.3228C57.0485 46.1172 56.938 45.9273 56.76 45.8242ZM51.8105 54.3952L51.7976 49.6897L55.898 47.3223L55.9109 52.0278L51.8105 54.3952Z" fill="white"/>
</svg>
