<svg width="93" height="92" viewBox="0 0 93 92" fill="none" xmlns="http://www.w3.org/2000/svg">
<rect x="0.5" width="92" height="92" rx="46" fill="black"/>
<path d="M28.4638 57.4812C28.7826 57.4807 29.0418 57.2215 29.0407 56.9026L28.9945 39.3814C28.9866 38.1059 29.9252 36.4771 31.0419 35.8258L58.9562 19.7142C59.4013 19.4573 59.7878 19.3992 60.0503 19.5485L61.9974 20.6815C61.9591 20.7018 61.9197 20.7232 61.8814 20.7452L33.9682 36.8636C32.4398 37.7452 31.3363 39.8102 31.3416 41.4249C31.4127 76.2523 31.3881 64.2219 31.3935 66.8281C31.3935 66.8613 31.3946 66.8946 31.3957 66.9272L29.4396 65.7897C29.1928 65.6494 29.052 65.286 29.052 64.7891L29.0384 62.22C29.0373 61.9022 28.7793 61.6459 28.4615 61.6459C28.4604 61.6459 28.4593 61.6459 28.4581 61.6459C28.1404 61.6476 27.8835 61.9073 27.8846 62.2256L27.8981 64.7919C27.8981 65.7266 28.2429 66.4371 28.8649 66.7898L32.3681 68.827C32.3695 68.8279 32.3712 68.8274 32.3726 68.8282C32.3739 68.829 32.3748 68.8303 32.376 68.831C33.0844 69.2393 33.9122 69.0732 34.6184 68.6659L37.8781 66.7839L37.8737 67.427C37.8737 69.1696 39.0005 70.7769 41.0456 71.9528C45.0381 74.2667 51.5132 74.2664 55.4822 71.9528C57.4981 70.7848 58.6091 69.1938 58.6091 67.4771L58.6317 64.6387C58.6317 64.637 58.6317 64.6359 58.6317 64.6342C58.6317 62.8859 57.5003 61.2701 55.4473 60.0847C54.6895 59.647 53.8383 59.3102 52.9355 59.049L52.7767 58.1822L62.5304 52.5509C64.0099 51.6968 65.1649 49.6962 65.1592 47.9964L65.1029 22.5965C65.1007 21.681 64.7639 20.9816 64.159 20.6125C63.9753 20.4904 62.1108 19.4158 60.6284 18.5502C59.9917 18.1834 59.1939 18.2415 58.3781 18.7158L30.4627 34.8274C28.9821 35.6911 27.8305 37.6946 27.8406 39.3865L27.8868 56.906C27.888 57.2238 28.146 57.4812 28.4638 57.4812ZM44.3931 63.0224L46.0482 62.0668L45.3181 67.0431L43.9246 66.2354L44.3931 63.0224ZM57.4541 67.5413C57.4226 68.8084 56.52 70.018 54.9019 70.955C51.2522 73.0841 45.2971 73.0835 41.6226 70.9533C39.9673 70.0017 39.0467 68.7656 39.0275 67.472C39.5827 68.134 40.3055 68.6764 41.058 69.1149C45.0364 71.4085 51.5121 71.4234 55.4946 69.1143C56.0943 68.7668 56.8766 68.1898 57.4192 67.5747C57.4294 67.5631 57.4441 67.553 57.4541 67.5413ZM54.8704 61.0842C58.4464 63.1492 58.2142 66.2039 54.9155 68.116C51.2657 70.2321 45.3072 70.2338 41.6372 68.1166C40.6887 67.5665 39.8713 66.8916 39.3883 65.912L43.1192 63.758L42.7257 66.4551C42.6919 66.6889 42.8035 66.9193 43.0074 67.0377L45.4762 68.4681C45.6311 68.5572 45.846 68.5704 46.0171 68.4884C46.133 68.4329 53.6018 64.1501 53.4855 64.1767C53.6974 64.0544 53.8089 63.8122 53.7639 63.5722L53.167 60.3131C53.7758 60.523 54.3456 60.7814 54.8704 61.0842ZM52.5559 63.3812L46.5103 66.8727L47.3235 61.3306L51.7137 58.7959C51.7621 59.0594 52.6101 63.6761 52.5559 63.3812ZM61.9535 51.5514C43.2002 62.3725 50.5959 58.1028 34.0414 67.6664C33.1055 68.2056 32.553 67.8124 32.5507 66.8224C32.5452 64.2146 32.5703 76.2494 32.4977 41.4192C32.4913 40.2163 33.3902 38.5315 34.5474 37.8636L62.4594 21.7486C63.3321 21.2445 63.9466 21.5177 63.949 22.5988L64.0054 47.9992C64.0088 49.2804 63.0701 50.9069 61.9535 51.5514Z" fill="white"/>
<path d="M28.4648 60.9851C28.7837 60.9845 29.0429 60.7259 29.0418 60.407L29.0384 58.6763C29.0372 58.3579 28.7792 58.1005 28.4614 58.1005C28.1426 58.101 27.8834 58.3596 27.8845 58.6785L27.8879 60.4093C27.889 60.7276 28.1471 60.9851 28.4648 60.9851Z" fill="white"/>
<path d="M61.3179 24.4547L34.5507 39.9087C34.3715 40.0124 34.2622 40.2034 34.2622 40.4102L34.3174 62.4859C34.3174 62.6916 34.4278 62.8814 34.607 62.984C34.786 63.087 35.0044 63.0867 35.1828 62.984L61.95 47.5299C62.1292 47.4262 62.2385 47.2352 62.2385 47.0284L62.1833 24.9527C62.1833 24.5117 61.7017 24.2336 61.3179 24.4547ZM35.469 61.4864L35.4172 40.7409L61.0317 25.9522L61.0835 46.6977L35.469 61.4864Z" fill="white"/>
<path d="M48.7631 56.5336L47.1596 57.4593C46.8836 57.6187 46.7889 57.9714 46.9489 58.2475C47.1059 58.5213 47.4581 58.6186 47.7366 58.4588L49.34 57.5331C49.6161 57.3736 49.7107 57.021 49.5507 56.7449C49.3918 56.4688 49.0392 56.3747 48.7631 56.5336Z" fill="white"/>
<path d="M53.8361 46.5163L42.9805 52.7841L42.9534 40.2462C42.9523 39.9279 42.6942 39.6704 42.3765 39.6704C42.0576 39.671 41.7984 39.9301 41.7996 40.2485L41.8288 53.7831C41.8288 53.9893 41.9393 54.1791 42.1173 54.2817C42.3044 54.3881 42.5218 54.381 42.6942 54.2817L54.413 47.5158C54.6891 47.3563 54.7837 47.0036 54.6237 46.7276C54.4648 46.4509 54.111 46.3569 53.8361 46.5163Z" fill="white"/>
<path d="M44.3404 49.6539C44.6191 49.8041 44.9708 49.7004 45.1213 49.4189L48.3271 43.4503L49.5406 43.9951C49.8178 44.1196 50.1469 44.0075 50.2888 43.7353L53.9633 36.6878C54.1109 36.4055 54.0005 36.0567 53.7188 35.9097C53.436 35.7643 53.0878 35.8714 52.9402 36.1548L49.517 42.7195L48.3102 42.1775C48.0352 42.0536 47.7085 42.1629 47.5654 42.4305L44.1049 48.8724C43.9539 49.1536 44.0599 49.5029 44.3404 49.6539Z" fill="white"/>
</svg>
