<svg width="93" height="92" viewBox="0 0 93 92" fill="none" xmlns="http://www.w3.org/2000/svg">
<rect x="0.5" width="92" height="92" rx="46" fill="black"/>
<path d="M64.486 22.6315C64.485 22.4653 64.3141 22.2016 64.1986 22.1346L64.1973 22.1339C64.1969 22.1336 64.1968 22.1331 64.1964 22.1329C61.7247 20.6967 57.4884 18.2351 57.7477 18.3858C57.5708 18.2821 57.3488 18.2821 57.1696 18.3846L28.7055 34.8179C28.5013 34.9361 28.417 35.2011 28.417 35.3171C28.417 35.3175 28.4173 35.3178 28.4173 35.3182C28.4173 35.3186 28.417 35.3189 28.417 35.3193C28.4232 37.4729 28.4821 58.0579 28.4902 60.9169C28.4914 61.2352 28.7494 61.4922 29.0672 61.4922C29.386 61.491 29.6452 61.2324 29.6441 60.9135L29.6082 48.2665L34.9035 51.3438L34.9615 72.1111L29.6666 69.0333L29.6599 66.4647C29.6587 66.147 29.4007 65.8895 29.0829 65.8895C28.764 65.8906 28.5049 66.1492 28.506 66.4681L28.5139 69.3674C28.5139 69.5725 28.6232 69.7618 28.8012 69.8643C28.918 69.9322 35.3698 73.6818 35.253 73.614C35.2536 73.6143 35.2538 73.6151 35.2544 73.6154C35.4324 73.7179 35.6522 73.7174 35.8302 73.6149L64.2944 57.1816C64.4736 57.0779 64.584 56.8869 64.5829 56.6801C64.5791 55.3631 64.4966 26.385 64.486 22.6315ZM36.0539 50.0136C36.0536 49.8975 36.0225 38.8443 36.024 39.3991C42.4274 35.7022 56.8474 27.3769 63.3355 23.631L63.3648 34.2454L47.087 43.6436L46.2047 41.4452C46.0742 41.1177 45.6842 40.9862 45.381 41.1601L40.0997 44.2087C39.9588 44.2904 39.8585 44.4273 39.8247 44.5862L39.0191 48.3018L36.0539 50.0136ZM57.457 19.5509L62.7583 22.6313L35.4468 38.3998L30.1455 35.3193L57.457 19.5509ZM29.6044 46.9304L29.5742 36.3217C29.691 36.3896 35.2167 39.6003 34.87 39.3988C34.8703 39.5188 34.9014 50.7053 34.8995 50.0078L29.6044 46.9304ZM36.1164 72.1173L36.0578 51.3442L39.8169 49.1734C39.9577 49.0917 40.058 48.9548 40.0918 48.7959L40.8975 45.0803L45.3821 42.492L46.2644 44.6904C46.3936 45.0146 46.7814 45.1514 47.0881 44.9755L63.3693 35.5757L63.4279 56.3494L36.1164 72.1173Z" fill="white"/>
<path d="M29.0761 64.9638C29.3949 64.9627 29.6541 64.7041 29.653 64.3852L29.6485 62.793C29.6474 62.4752 29.3893 62.2178 29.0716 62.2178C28.7527 62.2189 28.4935 62.4775 28.4946 62.7964L28.4991 64.3886C28.5003 64.7063 28.7583 64.9638 29.0761 64.9638Z" fill="white"/>
<path d="M54.5239 36.1814C55.5685 35.578 56.3843 34.1649 56.3798 32.9655C56.3774 31.5252 55.1931 30.8427 53.9368 31.5677C52.8878 32.1733 52.0697 33.588 52.0742 34.7875C52.0766 36.2213 53.2683 36.9061 54.5239 36.1814ZM54.5138 32.5671C55.0074 32.2808 55.2236 32.4413 55.2259 32.9683C55.2282 33.7525 54.631 34.7869 53.947 35.1819C53.4746 35.4568 53.2306 35.3384 53.2281 34.7847C53.2258 34.0004 53.8264 32.9638 54.5138 32.5671Z" fill="white"/>
<path d="M48.6892 39.5483C49.7337 38.9454 50.5495 37.533 50.545 36.3324C50.5427 34.9041 49.37 34.2055 48.1021 34.9346C47.0531 35.5402 46.235 36.9549 46.2395 38.1544C46.2419 39.5882 47.4336 40.273 48.6892 39.5483ZM48.679 35.9341C49.1467 35.6639 49.3887 35.7701 49.3912 36.3352C49.3934 37.12 48.7962 38.1544 48.1123 38.5488C47.6213 38.8346 47.3957 38.6831 47.3934 38.1516C47.3911 37.3674 47.9917 36.3307 48.679 35.9341Z" fill="white"/>
<path d="M60.3518 32.815C61.4008 32.2093 62.2189 30.7946 62.2144 29.5952C62.212 28.1546 61.0179 27.4746 59.7647 28.2013C58.7157 28.807 57.8976 30.2217 57.9021 31.4211C57.9045 32.8549 59.0962 33.5397 60.3518 32.815ZM60.3416 29.2008C60.8165 28.9256 61.0581 29.04 61.0605 29.598C61.0628 30.3822 60.4622 31.4189 59.7749 31.8155C59.295 32.0911 59.0584 31.9652 59.056 31.4183C59.0537 30.6341 59.6543 29.5974 60.3416 29.2008Z" fill="white"/>
</svg>
