<svg width="93" height="92" viewBox="0 0 93 92" fill="none" xmlns="http://www.w3.org/2000/svg">
<path d="M82.6282 60.3284L82.5181 21.6574C82.5175 21.4826 82.3553 21.0658 82.0866 20.9099L82.0846 20.9087C82.0841 20.9084 82.0838 20.9077 82.0832 20.9073C82.0827 20.907 82.082 20.9071 82.0814 20.9068L63.9026 10.3422C63.6322 10.1846 63.3008 10.1863 63.0321 10.3405L56.2995 14.2275L58.6281 5.42963C58.751 4.966 58.4747 4.49136 58.0111 4.36846C57.5483 4.24641 57.0736 4.52272 56.9499 4.9855L54.1799 15.4513L54.0898 15.5034L51.5118 14.0131C51.244 13.8588 50.9117 13.8588 50.6439 14.0131L40.4752 19.8838L35.1136 13.2732C34.8127 12.9002 34.2669 12.8426 33.8931 13.146C33.521 13.4478 33.4634 13.9945 33.766 14.3665L38.9534 20.7624L10.8058 37.0131C10.5462 37.1629 10.3707 37.5168 10.3718 37.7683L10.4939 69.2051C10.4947 69.5136 10.66 69.7976 10.9262 69.9527L16.8665 73.4002L16.8745 76.2273C16.8753 76.5359 17.0398 76.8207 17.3059 76.9749L23.3237 80.472C23.7382 80.7119 24.2696 80.5721 24.5104 80.1584C24.7519 79.744 24.6104 79.2125 24.1968 78.9718L18.6086 75.7247C18.6032 73.7847 18.6299 83.26 18.5052 39.0704C20.1874 40.0474 12.4127 35.5319 34.9506 48.6217L35.055 85.2821L31.9377 83.4708C31.5275 83.2309 30.9927 83.3691 30.752 83.7844C30.5104 84.1989 30.6519 84.7303 31.0664 84.971L35.4908 87.5426C35.4905 87.5424 35.4911 87.5428 35.4908 87.5426C35.4917 87.5431 35.4932 87.5446 35.4942 87.5451C35.7582 87.6972 36.0896 87.7007 36.3613 87.5443L82.1943 61.0827C82.4638 60.9268 82.6291 60.6395 82.6282 60.3284ZM51.9695 28.066C52.3534 28.066 52.7043 27.8092 52.8077 27.4202L53.0096 26.6578C54.7419 27.387 55.9192 28.6421 55.9192 30.0417V30.057C55.9192 30.3435 55.448 30.8215 54.4004 31.2428C51.8288 32.2616 47.4909 32.2607 44.9346 31.2453C43.6928 30.7427 43.3648 30.2384 43.3648 30.0163C43.3695 29.1583 43.829 28.3586 44.5779 27.6972L45.9983 29.4484C46.2971 29.8183 46.8436 29.8797 47.2188 29.5756C47.5909 29.2738 47.6485 28.7271 47.3459 28.355L46.0498 26.7569C47.0773 26.284 48.3162 25.9962 49.642 25.9962C50.2322 25.9962 50.7959 26.0695 51.3421 26.1732L51.1295 26.976C50.9837 27.5262 51.3987 28.066 51.9695 28.066ZM49.642 24.2604C47.8809 24.2604 46.2638 24.6863 44.9385 25.3868L43.5047 23.619L53.5537 17.817L51.7857 24.4972C51.0989 24.3585 50.3894 24.2604 49.642 24.2604ZM63.4644 12.095L79.9184 21.6574L35.8184 47.1184C16.8206 36.0779 21.873 39.0141 19.3647 37.5564L41.9828 24.4976L43.5049 26.3742C42.3578 27.3732 41.6364 28.6389 41.629 30.0417C41.629 30.8351 42.0892 31.9674 44.2887 32.8566C47.2944 34.0517 52.0177 34.051 55.0437 32.8549C57.2016 31.9869 57.6551 30.8546 57.6551 30.057V30.0417C57.6551 27.854 55.9421 25.9691 53.4516 24.9874L55.6733 16.5932L63.4644 12.095ZM51.0778 15.7676L52.3458 16.5008L42.3938 22.2493L41.5828 21.2493L51.0778 15.7676ZM40.8722 23.1282C40.698 23.2289 16.0666 37.4565 17.194 36.8054C16.9253 36.9605 16.7601 37.247 16.7601 37.5564C16.7601 37.5633 16.765 37.5688 16.7653 37.5757L16.7719 39.9699L12.9731 37.7666L40.061 22.128L40.8722 23.1282ZM16.8601 71.3894L12.228 68.7008L12.1136 39.2753L16.7776 41.9801C16.7781 42.1571 16.8592 71.0684 16.8601 71.3894ZM36.791 85.2914L36.6867 48.6218L69.6087 29.6144L80.7864 23.1611L80.8907 59.8309L36.791 85.2914Z" fill="white"/>
<path d="M29.2391 81.902L26.9786 80.5882C26.5633 80.3492 26.0336 80.4874 25.792 80.9018C25.5504 81.3163 25.6911 81.8477 26.1056 82.0884L28.3661 83.4022C28.7817 83.6433 29.3123 83.5023 29.5527 83.0886C29.7943 82.6741 29.6536 82.1427 29.2391 81.902Z" fill="white"/>
<path d="M77.3648 29.1018C77.0961 28.9467 76.7664 28.9484 76.4977 29.1035L51.1381 43.7413C50.8685 43.8964 50.7033 44.1845 50.7041 44.4956L50.7829 72.2556C50.7842 72.7332 51.1722 73.121 51.6509 73.121C51.8009 73.121 51.9509 73.082 52.0848 73.0049L77.4453 58.351C77.7149 58.1951 77.8801 57.9078 77.8793 57.5967L77.8005 29.8519C77.7996 29.5426 77.6335 29.2561 77.3648 29.1018ZM52.5137 70.752L52.4416 44.9931L76.0689 31.3572L76.1418 57.0992L52.5137 70.752Z" fill="white"/>
<path d="M41.0154 51.3847L48.058 47.3206C48.4733 47.0807 48.6157 46.5501 48.3758 46.1348C48.1351 45.7195 47.6037 45.5771 47.1901 45.817L40.1475 49.8811C39.7322 50.121 39.5898 50.6516 39.8296 51.0669C40.0718 51.485 40.6041 51.6223 41.0154 51.3847Z" fill="white"/>
<path d="M47.2153 54.9556L40.1727 59.0367C39.7574 59.2774 39.6159 59.808 39.8566 60.2224C40.0996 60.6419 40.635 60.7764 41.0423 60.5386L48.0849 56.4575C48.5002 56.2168 48.6418 55.6862 48.4011 55.2717C48.162 54.8581 47.6298 54.7157 47.2153 54.9556Z" fill="white"/>
<path d="M47.2153 50.3862L40.1727 54.4673C39.7574 54.7081 39.6159 55.2386 39.8566 55.6531C40.0996 56.0726 40.635 56.2071 41.0423 55.9693L48.0849 51.8881C48.5002 51.6474 48.6418 51.1168 48.4011 50.7024C48.162 50.2871 47.6298 50.1464 47.2153 50.3862Z" fill="white"/>
<path d="M44.0894 70.2926C42.4426 71.2444 41.1577 73.4753 41.1636 75.3713C41.1689 77.6151 43.0052 78.6856 44.9743 77.5505C46.6212 76.5986 47.9061 74.3712 47.9002 72.4785C47.8948 70.2319 46.0526 69.1642 44.0894 70.2926ZM44.1064 76.0468C43.3437 76.4886 42.9013 76.3167 42.8994 75.3662C42.8952 74.0999 43.8572 72.4319 44.9574 71.7962C45.7157 71.357 46.1625 71.5364 46.1643 72.4836C46.1686 73.7465 45.2066 75.4112 44.1064 76.0468Z" fill="white"/>
<path d="M44.0894 60.9625C42.4426 61.9126 41.1577 64.1434 41.1636 66.0403C41.1689 68.2841 43.0052 69.3546 44.9743 68.2195C46.6212 67.2676 47.9061 65.0402 47.9002 63.1484C47.8948 60.8987 46.0492 59.834 44.0894 60.9625ZM44.1064 66.7158C43.3446 67.1571 42.9013 66.9867 42.8994 66.0352C42.8952 64.7689 43.8572 63.1009 44.9574 62.4661C45.7 62.0382 46.1624 62.1862 46.1643 63.1535C46.1686 64.4155 45.2066 66.0802 44.1064 66.7158Z" fill="white"/>
<path d="M73.5998 42.803L68.5804 39.8839C68.1651 39.6423 67.6337 39.783 67.3938 40.1975C67.1522 40.612 67.2929 41.1434 67.7074 41.3841L72.7268 44.3032C73.1424 44.5444 73.673 44.4033 73.9134 43.9896C74.155 43.5751 74.0143 43.0437 73.5998 42.803Z" fill="white"/>
<path d="M73.8525 39.0312L71.5598 37.698C71.1445 37.4581 70.613 37.5971 70.3732 38.0116C70.1324 38.426 70.2723 38.9575 70.6868 39.1982L72.9795 40.5314C73.3951 40.7726 73.9257 40.6316 74.1661 40.2178C74.4076 39.8034 74.267 39.2719 73.8525 39.0312Z" fill="white"/>
</svg>
