<svg width="93" height="92" viewBox="0 0 93 92" fill="none" xmlns="http://www.w3.org/2000/svg">
<rect x="0.5" width="92" height="92" rx="46" fill="white"/>
<path d="M41.46 65.68L40.02 66.4C39.78 66.52 39.66 66.88 39.78 67.24C39.9 67.48 40.26 67.6 40.62 67.48L42.06 66.64C42.3 66.52 42.42 66.16 42.3 65.8C42.18 65.56 41.7 65.44 41.46 65.68Z" fill="black"/>
<path d="M37.86 51.64C37.86 51.4 37.74 51.28 37.5 51.16C37.26 51.04 37.14 51.04 36.9 51.16L32.46 53.68C32.22 53.8 32.1 54.04 32.1 54.16V58.72C32.1 58.96 32.22 59.08 32.46 59.2C32.7 59.32 32.82 59.32 33.06 59.2L37.5 56.68C37.74 56.56 37.86 56.32 37.86 56.2V51.64ZM33.42 57.64V54.52L36.66 52.6V55.72L33.42 57.64Z" fill="black"/>
<path d="M37.5 59.56C37.26 59.44 37.14 59.44 36.9 59.56L32.46 62.08C32.22 62.2 32.1 62.44 32.1 62.56V67.12C32.1 67.36 32.22 67.48 32.46 67.6C32.58 67.6 32.7 67.72 32.7 67.72C32.82 67.72 32.94 67.72 33.06 67.6L37.5 65.08C37.74 64.96 37.86 64.72 37.86 64.6V60.04C37.86 59.8 37.74 59.56 37.5 59.56ZM33.42 66.04V62.92L36.66 61V64.12L33.42 66.04Z" fill="black"/>
<path d="M40.74 54.52C40.86 54.52 40.98 54.64 40.98 54.64C41.1 54.64 41.22 54.64 41.34 54.52L45.78 52C46.02 51.88 46.14 51.64 46.14 51.52V46.96C46.14 46.72 46.02 46.6 45.78 46.48C45.54 46.36 45.42 46.36 45.18 46.48L40.74 49C40.5 49 40.5 49.24 40.5 49.36V53.92C40.5 54.16 40.62 54.4 40.74 54.52ZM44.82 47.92V51.04L41.7 52.96V49.84L44.82 47.92Z" fill="black"/>
<path d="M46.14 59.8V55.24C46.14 55 46.02 54.88 45.78 54.76C45.54 54.64 45.42 54.64 45.18 54.76L40.74 57.28C40.5 57.4 40.5 57.64 40.5 57.88V62.44C40.5 62.68 40.62 62.8 40.86 62.92C41.1 63.04 41.22 63.04 41.46 62.92L45.9 60.4C46.02 60.16 46.14 60.04 46.14 59.8ZM41.7 61.36V58.24L44.94 56.32V59.44L41.7 61.36Z" fill="black"/>
<path d="M49.26 49.84C49.38 49.84 49.5 49.84 49.62 49.72L54.06 47.2C54.3 47.08 54.42 46.84 54.42 46.72V42.16C54.42 41.92 54.3 41.8 54.06 41.68C53.82 41.56 53.7 41.56 53.46 41.68L49.02 44.2C48.78 44.32 48.66 44.56 48.66 44.68V49.24C48.66 49.48 49.02 49.84 49.26 49.84ZM53.1 43.12V46.24L49.86 48.16V45.04L53.1 43.12Z" fill="black"/>
<path d="M59.1 75.16C59.34 75.28 59.46 75.28 59.7 75.16L72.06 67.96C72.3 67.84 72.42 67.6 72.42 67.48V52.72C72.42 52.6 72.18 52.24 72.18 52.24C66.3 48.88 66.42 48.88 60.54 45.52C60.3 45.4 60.18 45.4 59.94 45.52L58.5 46.24V21.64C58.5 21.4 58.26 21.16 58.14 21.16L50.82 16.96C50.58 16.84 50.46 16.84 50.22 16.96L45.9 19.48C44.1 18.04 41.7 17.08 39.66 18.16C37.74 19.24 37.26 21.88 37.62 24.16L32.82 26.92C31.02 25.48 28.62 24.52 26.58 25.6C24.54 26.8 24.18 29.32 24.54 31.6L20.7 33.88C20.46 34 20.46 34.24 20.34 34.36L20.46 69.64C20.46 69.88 20.58 70 20.7 70.12L28.02 74.32C28.14 74.32 28.26 74.44 28.38 74.44C28.5 74.44 28.62 74.44 28.74 74.32L38.7 68.56C38.94 68.44 39.06 68.08 38.94 67.72C38.82 67.48 38.46 67.36 38.1 67.48L29.1 72.64V52.48L57.3 36.28V46.84L47.46 52.6C47.34 52.6 47.34 52.72 47.22 52.84V52.96V53.08V62.32L43.38 64.6C43.14 64.72 43.02 65.08 43.14 65.44C43.26 65.68 43.62 65.8 43.98 65.68L47.22 63.76V67.96C47.22 68.2 47.34 68.32 47.46 68.44L59.1 75.16ZM45.78 20.8C47.22 22.12 48.42 23.92 49.26 25.96L37.38 32.8C36.66 30.88 35.46 29.08 34.02 27.64L45.78 20.8ZM50.58 18.04L56.7 21.64L50.34 25.36C49.62 23.44 48.42 21.64 46.98 20.2L50.58 18.04ZM40.38 19.12C41.82 18.28 43.5 19.12 44.82 19.96L38.94 23.44C38.7 21.76 38.94 19.84 40.38 19.12ZM27.42 26.56C28.86 25.72 30.54 26.56 31.86 27.4L25.98 30.88C25.74 29.32 25.98 27.28 27.42 26.56ZM32.82 28.24C34.26 29.56 35.46 31.36 36.3 33.4C36.18 33.52 28.02 38.2 28.62 37.84C28.5 37.72 22.26 34.12 22.5 34.24L32.82 28.24ZM21.9 69.16L21.78 35.32L27.9 38.92C28.02 90.04 27.9 57.76 28.02 72.76L21.9 69.16ZM29.22 51.16V38.8C29.34 38.68 37.26 34.12 36.78 34.48C36.9 34.96 37.02 35.44 37.14 35.92C37.14 35.92 37.14 35.92 37.02 35.92C34.86 37.12 33.66 40.24 34.02 41.56C34.26 43.72 35.94 44.32 37.74 43.36C39.42 42.4 40.86 40 40.86 38.08C40.86 36.52 39.9 35.32 38.34 35.56C38.22 34.96 38.1 34.36 37.98 33.88L49.86 27.04C49.98 27.52 50.1 28 50.22 28.48C50.22 28.48 50.22 28.48 50.1 28.48C48.42 29.44 46.98 31.84 46.98 33.88C46.98 36.04 48.78 37.12 50.7 36.04C52.38 35.08 53.82 32.68 53.82 30.76C53.82 29.2 52.86 28 51.3 28.24C51.18 27.64 51.06 27.16 50.94 26.56L57.3 22.6V34.96L29.22 51.16ZM38.22 37.24C38.22 37.12 38.22 37 38.22 36.88C39.06 36.76 39.42 37.36 39.42 38.2C39.42 39.76 38.34 41.68 36.9 42.52C36.18 43 35.34 43 35.1 42.16C37.02 41.68 38.22 39.76 38.22 37.24ZM35.1 40.84C35.34 39.52 36.06 38.2 37.14 37.36C37.02 39.28 36.3 40.48 35.1 40.84ZM51.18 29.68C51.18 29.56 51.18 29.44 51.18 29.32C52.02 29.2 52.38 29.8 52.38 30.64C52.38 32.2 51.3 34.12 49.86 34.96C49.14 35.44 48.3 35.44 48.06 34.6C49.98 34.12 51.18 32.32 51.18 29.68ZM48.06 33.4C48.3 32.08 49.02 30.76 50.1 29.92C49.98 31.72 49.26 33.04 48.06 33.4ZM51.9 51.4L62.34 57.4L59.34 59.2L48.9 53.2L51.9 51.4ZM67.02 59.92L64.14 61.6V57.76L67.02 56.08V59.92ZM63.54 56.8L53.22 50.8L56.1 49.12L66.42 55.12L63.54 56.8ZM59.94 73.6C59.94 70.72 59.94 63.4 59.94 60.16L62.94 58.36V62.56C62.94 62.8 63.06 62.92 63.3 63.04C63.54 63.16 63.66 63.16 63.9 63.04L67.98 60.64C68.22 60.52 68.34 60.28 68.34 60.16V55.24C68.46 55.12 71.34 53.44 71.22 53.56V67L59.94 73.6ZM60.18 46.72L70.62 52.72L67.62 54.4L57.18 48.4L60.18 46.72ZM48.42 67.6V62.68V54.28L58.86 60.28C58.86 61.48 58.86 72.04 58.86 73.72L48.42 67.6Z" fill="black"/>
</svg>
