<svg width="93" height="92" viewBox="0 0 93 92" fill="none" xmlns="http://www.w3.org/2000/svg">
<rect x="0.5" width="92" height="92" rx="46" fill="white"/>
<path d="M45.2565 39.51C45.4345 39.6125 45.6543 39.6119 45.8323 39.5094L53.2388 35.2332C53.418 35.1295 53.5284 34.9385 53.5273 34.7317L53.5126 29.46C53.5115 29.2544 53.4022 29.0645 53.223 28.9614C53.045 28.8588 52.8253 28.8594 52.6472 28.962L45.2396 33.2382C45.0605 33.3418 44.9501 33.5328 44.9512 33.7396L44.967 39.0113C44.9681 39.217 45.0774 39.4069 45.2565 39.51ZM52.361 30.4595L52.3723 34.401L46.1174 38.0119L46.1062 34.0703L52.361 30.4595Z" fill="black"/>
<path d="M70.4665 44.6606C70.4417 44.6463 68.8271 43.7139 68.2806 43.3983C68.2788 42.8478 68.2229 25.4143 68.2242 25.7591C68.2231 25.5537 68.1104 25.3638 67.9369 25.2633L67.9355 25.2625L67.9346 25.2616L67.9334 25.2612L57.275 19.067C57.0981 18.9633 56.8762 18.9628 56.697 19.0659L51.3316 22.1651L44.8273 18.3853C44.6515 18.2816 44.4295 18.2816 44.2492 18.3841L32.2127 25.3337C32.0863 25.4067 31.95 25.6358 31.9332 25.7309L30.4405 34.187C28.9184 34.2766 27.0481 34.9318 26.6587 36.4048L19.8162 40.3621C19.8125 40.3641 19.808 40.3631 19.8043 40.3652C19.6252 40.4689 19.5148 40.6599 19.5159 40.8667C19.5339 47.3688 19.4839 29.7491 19.5902 66.9212C19.5914 67.1262 19.6995 67.3156 19.8776 67.4181L30.5382 73.6133L30.5405 73.6155C30.6295 73.6668 30.7287 73.6927 30.8279 73.6927C30.927 73.6927 31.0273 73.6668 31.1163 73.6155L48.5346 63.5669C48.6648 63.6426 57.1768 68.5911 56.7319 68.3325L56.7339 68.3331C56.74 68.3366 56.745 68.3414 56.7511 68.3449C58.9908 69.6323 61.6769 68.9865 63.9266 67.688C69.2124 64.6366 73.4999 57.2109 73.4841 51.1341C73.4751 48.0743 72.4035 45.775 70.4665 44.6606ZM46.3642 60.9705C44.5606 59.9252 43.9441 57.6079 43.9359 55.5072C43.9253 50.0909 47.5165 43.6538 51.9971 40.5394C54.0246 39.1335 56.8156 38.0618 58.9495 39.3089C57.7697 39.4373 56.5066 39.8773 55.2119 40.6244C49.9215 43.6764 45.6374 51.1042 45.6633 57.1805C45.6633 58.6289 45.9057 59.9083 46.3674 60.9724L46.3642 60.9705ZM52.4827 22.8328L56.9843 20.2321L66.4966 25.76L57.1669 31.148L55.7595 24.9534C55.7207 24.7797 55.6023 24.6972 55.4879 24.5804C55.3712 24.5125 52.2865 22.7186 52.4827 22.8328ZM44.5365 19.5504C44.6552 19.6194 54.6756 25.4447 54.0458 25.0785C52.9284 25.7236 58.0766 22.7515 43.1635 31.3609L33.6535 25.834L44.5365 19.5504ZM33.9773 38.7714L33.9728 40.2052C33.9716 40.5529 33.6854 40.9179 33.1896 41.2064C31.9299 41.9388 29.7968 41.9411 28.5326 41.2098C28.0199 40.9146 27.7269 40.5422 27.728 40.1883L27.7325 38.7539C28.6188 39.3515 29.7951 39.6052 30.8684 39.6052C31.9336 39.6052 33.081 39.3617 33.9773 38.7714ZM31.6086 34.2075L32.9256 26.747L42.5248 32.3253L41.2084 39.7793L41.1922 39.8711L35.0376 36.2969C34.5936 35.0021 32.9702 34.3596 31.6086 34.2075ZM20.6731 41.869L30.1777 47.3931L30.198 54.5794L20.6934 49.0561L20.6731 41.869ZM20.7001 50.3944L30.2018 55.9155C30.2021 56.034 30.2229 64.0933 30.2216 63.5846L20.7189 58.0627C20.7186 57.9443 20.6989 49.8857 20.7001 50.3944ZM31.3596 55.8644L37.0478 52.5798L37.0647 60.3068L31.38 63.5889L31.3596 55.8644ZM28.5337 35.8659C29.8028 35.1296 31.9528 35.1658 33.1743 35.8696L33.1776 35.8713C33.542 36.0816 33.9566 36.4431 33.9766 36.8618L33.9784 36.8964C33.9784 37.318 33.5552 37.6904 33.1998 37.897C31.9601 38.6172 29.8298 38.6424 28.5416 37.8959C28.054 37.6166 27.7722 37.2625 27.746 36.8419C27.7665 36.5026 28.0465 36.1491 28.5337 35.8659ZM26.5823 37.7816L26.5742 40.1855C26.573 40.976 27.0632 41.6949 27.9556 42.2093C29.5856 43.1505 32.1394 43.1507 33.7688 42.2042C34.641 41.6971 35.1232 40.9895 35.1266 40.2092L35.1344 37.6868C35.2944 37.7798 40.7162 40.9289 40.4661 40.7836L30.7602 46.3947L21.2478 40.8667L26.5823 37.7816ZM20.743 66.5871L20.7227 59.3988L30.2273 64.9222L30.2475 72.1107L20.743 66.5871ZM31.4025 72.1185L31.3835 64.9191L37.9312 61.139C38.1104 61.0353 38.2197 60.8443 38.2197 60.6381L38.1994 51.5809C38.1994 51.3747 38.089 51.1848 37.9098 51.0823C37.7318 50.9797 37.512 50.9797 37.334 51.0823L31.356 54.5339L31.3372 47.3942L41.9055 41.2847C41.9989 41.2305 42.1589 41.0343 42.1849 40.8853L43.6846 32.393C58.3042 23.9543 53.6279 26.6535 54.808 25.9723L56.2158 32.1666C56.2564 32.3452 56.3792 32.494 56.5471 32.5672C56.7215 32.6438 56.9269 32.6198 57.0666 32.5385L67.0748 26.7587L67.1256 42.7268L61.5545 39.488L59.5365 38.3122C56.9774 36.8326 53.8416 37.8694 51.4067 39.5485C46.509 42.9184 42.7684 49.9009 42.7787 55.5134C42.7889 58.0215 43.6029 60.7098 45.7805 61.9723L47.3783 62.9019L31.4025 72.1185ZM49.2335 62.6387C47.6757 61.726 46.8172 59.7878 46.8172 57.1783C46.7935 51.4688 50.8173 44.491 55.7888 41.6239C58.0949 40.2924 60.2333 40.0597 61.8102 40.9727L67.0146 44.0047C65.7381 44.1453 64.4081 44.6718 63.2854 45.3164C57.9261 48.4199 53.7167 55.7802 53.7335 61.8742C53.7374 63.3245 54.0541 64.7737 54.4423 65.667L49.2335 62.6387ZM63.3496 66.6885C61.0442 68.0192 58.9055 68.2519 57.3269 67.3448C55.4875 66.2851 54.8919 63.9857 54.8919 61.8731C54.8693 56.0903 59.0111 49.1222 63.8668 46.3193C65.6853 45.2685 67.9936 44.6139 69.8349 45.6441C69.9344 45.7595 72.3169 46.6695 72.3303 51.1375C72.346 56.8453 68.3166 63.8213 63.3496 66.6885Z" fill="black"/>
<path d="M64.5035 47.4201C59.967 50.0343 56.1449 56.6497 56.1562 61.8646C56.1562 66.0335 58.6279 67.9668 62.7141 65.5802C67.2507 62.9666 71.0728 56.3568 71.0604 51.1464V51.1431C71.0208 46.7241 68.4103 45.1905 64.5035 47.4201ZM65.0782 48.4207C65.4779 48.1927 65.7797 48.0582 66.1217 47.924C66.3027 48.6424 66.3267 49.3599 66.3267 49.6793V49.6822C66.3503 54.5201 62.7975 60.6764 58.5709 63.1232C58.2026 63.3331 57.8549 63.5027 57.5298 63.6309C57.3746 63.0468 57.31 62.3992 57.31 61.8635C57.2987 57.0098 60.8572 50.8529 65.0782 48.4207ZM62.135 64.5824C60.7716 65.3786 58.903 66.0378 57.9807 64.6812C58.3524 64.5331 58.7372 64.3569 59.1467 64.1233C63.6888 61.4933 67.5053 54.879 67.4805 49.6788C67.4805 49.2198 67.4352 48.418 67.222 47.5993C69.2789 47.2508 69.8874 49.0754 69.9065 51.151C69.9178 55.9979 66.3605 62.148 62.135 64.5824Z" fill="black"/>
</svg>
