<svg width="93" height="92" viewBox="0 0 93 92" fill="none" xmlns="http://www.w3.org/2000/svg">
<path d="M59.402 71.7627L54.953 74.331C54.5297 74.5755 54.3845 75.1163 54.629 75.5396C54.8741 75.964 55.4166 76.1067 55.8376 75.8635L60.2866 73.2952C60.7099 73.0507 60.855 72.5099 60.6105 72.0866C60.366 71.6616 59.8227 71.5182 59.402 71.7627Z" fill="black"/>
<path d="M51.5094 29.7512C53.5775 28.5564 55.193 25.7574 55.187 23.3792C55.1797 20.6454 52.9844 19.3864 50.6041 20.7608C48.5299 21.9581 46.9101 24.7597 46.917 27.1379C46.9243 29.9322 49.1664 31.1039 51.5094 29.7512ZM51.4887 22.2933C52.6306 21.6325 53.4139 21.9555 53.4177 23.3844C53.422 25.1277 52.1435 27.3418 50.6248 28.2186C49.4272 28.9091 48.6899 28.5152 48.6862 27.1327C48.6811 25.3894 49.9648 23.1727 51.4887 22.2933Z" fill="black"/>
<path d="M63.666 71.3436L69.0488 68.2354C69.3235 68.0764 69.492 67.7836 69.4911 67.4665L69.3391 13.892C69.3381 13.6561 69.175 13.29 68.8994 13.1301C67.1899 12.1599 75.0921 16.6445 52.1807 3.64206C51.9165 3.4969 51.5282 3.52596 51.3116 3.6507L31.3602 15.1697C31.183 15.3095 31.1426 15.3131 31.0389 15.4902L31.0374 15.4928C31.0373 15.493 31.0375 15.4926 31.0374 15.4928L23.6302 28.178C23.6298 28.1788 23.6299 28.1796 23.6295 28.1803C23.6256 28.1869 23.6257 28.195 23.622 28.2017C23.558 28.3189 23.5287 28.4469 23.5219 28.5787C23.5209 28.5956 23.5093 28.6093 23.5093 28.6264L23.6613 82.2009C23.6622 82.5154 23.8298 82.8056 24.101 82.9629L33.3454 88.3353C33.3451 88.3351 33.3458 88.3356 33.3454 88.3353C33.3464 88.3359 33.3479 88.3374 33.3489 88.3379C33.4854 88.4165 33.6383 88.4554 33.7903 88.4554C33.9432 88.4554 34.0962 88.4157 34.2326 88.3371L50.9851 78.665C51.4084 78.4206 51.5535 77.8798 51.309 77.4565C51.0628 77.0323 50.522 76.8872 50.1004 77.1325L34.6706 86.0409L34.5238 34.2339L41.6921 21.9577C42.7201 21.3641 40.319 22.7504 61.0087 10.8054C61.3592 10.9983 67.989 14.6481 67.5716 14.4183L67.7202 66.9595L62.7814 69.8111C62.3581 70.0556 62.2129 70.5964 62.4574 71.0197C62.7019 71.443 63.2435 71.5864 63.666 71.3436ZM51.7521 5.43904C52.4876 5.86649 59.4113 9.89025 59.2334 9.78685L41.0482 20.286C40.3127 19.8586 33.3895 15.8352 33.5675 15.9386L51.7521 5.43904ZM32.1213 17.1445L39.8358 21.6281L33.3195 32.7869L25.6051 28.3042L32.1213 17.1445ZM25.2828 30.1632L32.7551 34.5049L32.9013 86.0314L25.4288 81.6886L25.2828 30.1632Z" fill="black"/>
<path d="M50.6802 38.2501C43.5687 42.3561 37.8015 52.3461 37.8248 60.5193C37.8497 69.0636 44.089 72.7649 51.646 68.403C58.7126 64.3238 64.4436 54.3546 64.4203 46.1805C64.3953 37.6213 58.1099 33.9648 50.6802 38.2501ZM50.7614 66.8705C44.4607 70.5105 39.6138 67.7694 39.594 60.5141C39.5724 52.9059 44.9423 43.6062 51.5648 39.7826C57.7699 36.2007 62.6295 38.9583 62.651 46.1857C62.6726 53.7948 57.339 63.0738 50.7614 66.8705Z" fill="black"/>
<path d="M54.4537 44.6376C53.9967 44.464 53.4862 44.6912 53.3117 45.1473L47.2818 60.9123C47.1073 61.3684 47.3354 61.8799 47.7915 62.0544C48.2544 62.2303 48.7608 61.9963 48.9335 61.5447L54.9634 45.7797C55.1379 45.3236 54.9099 44.8121 54.4537 44.6376Z" fill="black"/>
<path d="M55.3881 49.89C53.783 50.8169 53.2197 53.2997 53.2258 55.126C53.1732 58.4246 54.8987 59.1638 56.315 58.3457C57.7171 57.5362 58.4851 55.6642 58.4773 53.0751C58.4674 49.7078 56.8564 49.0457 55.3881 49.89ZM54.995 55.1381C54.9867 52.3697 56.6969 49.5408 56.7081 53.0803C56.7168 56.2129 54.9411 58.524 54.995 55.1381Z" fill="black"/>
<path d="M49.0204 51.5565C49.0105 48.1888 47.4016 47.524 45.9311 48.3713C44.3286 49.2966 43.7654 51.7578 43.7688 53.5892C43.7243 55.923 44.8765 57.9456 46.8503 56.8054C48.2567 55.9934 49.0273 54.1291 49.0204 51.5565ZM45.5381 53.6134C45.5381 53.6073 45.5381 53.6004 45.5381 53.5935C45.5299 50.9031 47.2406 47.9899 47.2511 51.5617C47.2598 54.6558 45.4705 56.9844 45.5381 53.6134Z" fill="black"/>
</svg>
