<svg width="93" height="92" viewBox="0 0 93 92" fill="none" xmlns="http://www.w3.org/2000/svg">
<path d="M68.3494 18.4148C64.6243 16.2636 59.4557 15.2143 54.3465 15.5347C54.683 12.4427 52.7776 9.4236 49.0542 7.27413C42.3202 3.38542 31.4084 3.38372 24.7303 7.26904C21.3556 9.22918 19.4959 11.8866 19.4812 14.7504C19.4811 14.7563 19.4778 14.7609 19.4778 14.7668C19.4778 14.7786 19.4778 14.7905 19.4778 14.8024C19.2857 79.2722 19.3328 63.4522 19.3252 65.998C19.3252 68.9239 21.2255 71.6209 24.6684 73.5856C27.9191 75.4814 36.6862 80.5373 43.9568 84.733C50.6557 88.601 61.5709 88.6272 68.2799 84.7313C71.6491 82.7649 73.5163 80.1018 73.5358 77.2319C73.5413 75.1922 73.6326 41.5515 73.6748 25.9938V25.9871C73.6748 25.985 73.6736 25.9832 73.6736 25.9812C73.6736 25.9764 73.6748 25.9716 73.6748 25.9667C73.6705 23.0765 71.7787 20.393 68.3494 18.4148ZM71.911 36.6852L71.8148 71.8122C71.524 73.7975 69.9847 75.6892 67.4756 77.1438C64.8008 78.6989 61.3897 79.5424 57.8808 79.7581L57.9804 42.4377C58.8319 42.3883 59.7548 42.2851 60.5975 42.1582C64.6718 41.5454 69.3335 39.8529 71.911 36.6852ZM24.8083 22.3628L44.1035 33.5017C50.7902 37.3656 61.7451 37.3653 68.4172 33.4899C69.9337 32.6078 71.2152 31.4651 71.927 30.5874L71.9227 32.251C71.7303 36.9099 65.3976 39.6044 60.6683 40.3781C53.7688 41.524 49.2339 40.1232 44.7311 37.9434C43.5135 37.2322 25.9471 27.0898 25.6753 26.933C23.3865 25.6254 21.1993 23.4841 21.217 20.849V19.3984C21.9845 20.3505 23.2782 21.4797 24.8083 22.3628ZM21.1831 25.4497C21.9169 26.3682 23.3051 27.5781 24.8083 28.4467C24.9827 28.5475 35.7733 34.7815 35.0853 34.3841L34.9703 71.4192C31.243 69.2668 27.5569 67.1374 25.6058 66.0048C22.7224 64.3385 21.134 62.1805 21.134 59.9293C21.134 59.8346 21.1081 59.7477 21.0802 59.6624L21.1831 25.4497ZM36.8181 35.3794C37.2446 35.6244 38.7465 36.4922 43.5582 39.2692C47.3847 41.5017 51.6477 42.4957 56.1496 42.4837C56.1814 42.4838 56.2127 42.4889 56.2444 42.4889L56.1448 79.8487C52.0769 79.8427 48.0078 78.9488 44.8993 77.1607C43.1534 76.1468 40.0167 74.3339 36.7031 72.42L36.8181 35.3794ZM25.6024 8.77096C31.8358 5.14619 41.9707 5.18822 48.1863 8.77604C51.7012 10.8052 53.2506 13.5293 52.4369 16.2466C52.3538 16.5246 52.4149 16.8264 52.5996 17.0501C52.7844 17.2739 53.07 17.3909 53.3582 17.3587C58.4997 16.823 63.7801 17.7808 67.4815 19.9167C70.3522 21.5745 71.9355 23.724 71.9389 25.9701C71.9427 28.5762 69.8104 30.6718 67.5451 31.9879C61.5161 35.4911 51.2346 35.6139 44.9714 31.9998L25.6762 20.8609C23.3747 19.5306 21.2412 17.4534 21.217 14.8285V14.8074C21.217 14.8015 21.2138 14.7966 21.2137 14.7907C21.2137 14.7906 21.2137 14.7908 21.2137 14.7907C21.2111 12.5548 22.7698 10.417 25.6024 8.77096ZM67.4069 83.2311C61.1975 86.835 51.0672 86.835 44.8256 83.2311C36.9581 78.6906 28.5559 73.8435 25.5363 72.082C22.6503 70.4343 21.0611 68.2746 21.0611 66.0014L21.0659 64.4178C21.9577 65.5589 23.1794 66.6074 24.7362 67.5067C29.1767 70.0856 39.9044 76.2665 44.0306 78.6643C50.7891 82.5526 61.7068 82.5016 68.3469 78.6457C69.7763 77.8173 70.9354 76.8449 71.8038 75.7817L71.7999 77.2217C71.7847 79.4526 70.2234 81.5868 67.4069 83.2311Z" fill="white"/>
<path d="M29.3811 18.8741C33.2364 21.1014 39.2704 21.1085 43.1161 18.8741C47.1805 16.5137 47.2321 12.3492 43.0483 9.93382C39.2486 7.73858 33.0977 7.7335 29.337 9.91856C25.2043 12.3244 25.2394 16.4845 29.3811 18.8741ZM30.21 11.4205C33.4456 9.53743 38.9292 9.56011 42.1804 11.4357C45.1359 13.1428 45.2143 15.6464 42.2448 17.3722C38.9469 19.2877 33.5673 19.2877 30.249 17.3722C27.2939 15.6668 27.2147 13.1615 30.21 11.4205Z" fill="white"/>
<path d="M33.5171 16.4704C35.0337 17.3476 37.4174 17.3567 38.94 16.4687C40.7574 15.4113 40.757 13.3983 38.9145 12.3359C37.3906 11.4595 35.0123 11.4544 33.5002 12.3308C31.6733 13.391 31.6732 15.4045 33.5171 16.4704ZM34.3715 13.8327C35.3477 13.2661 37.065 13.2721 38.0466 13.8378C38.6985 14.2144 38.7487 14.5751 38.0669 14.9685C37.0914 15.5397 35.3699 15.5346 34.3859 14.9685C33.7268 14.5885 33.6872 14.2308 34.3715 13.8327Z" fill="white"/>
<path d="M50.101 30.8369C53.9743 33.0745 60.0042 33.0616 63.8378 30.8352C67.9183 28.4634 67.9354 24.3024 63.7683 21.8966C59.9686 19.6997 53.8177 19.6946 50.057 21.8814C45.9243 24.2872 45.9594 28.4473 50.101 30.8369ZM50.93 23.3833C54.1656 21.5003 59.6492 21.5229 62.9004 23.3986C65.8561 25.1058 65.9343 27.6075 62.9648 29.3333C59.6694 31.2523 54.2864 31.2506 50.969 29.335C48.0139 27.6296 47.9346 25.1244 50.93 23.3833Z" fill="white"/>
<path d="M54.2372 28.4332C55.7747 29.3225 58.1592 29.3074 59.6609 28.4315C61.4838 27.371 61.4721 25.3583 59.6346 24.2987C58.1098 23.4189 55.7315 23.4189 54.2203 24.2936C52.3926 25.3552 52.3943 27.3679 54.2372 28.4332ZM55.0916 25.7955C55.5764 25.5141 56.2452 25.3734 56.9164 25.3734C57.5937 25.3734 58.2726 25.5158 58.7667 25.8006C59.4066 26.1703 59.4819 26.5292 58.7888 26.9313C57.8106 27.5025 56.0901 27.4991 55.106 26.9313C54.4313 26.5423 54.4228 26.1846 55.0916 25.7955Z" fill="white"/>
</svg>
