<svg width="93" height="92" viewBox="0 0 93 92" fill="none" xmlns="http://www.w3.org/2000/svg">
<path d="M51.7583 12.6975C51.5159 12.2822 50.9819 12.1449 50.5717 12.3839L26.6207 26.3055C26.3071 26.4351 26.0901 26.7454 26.0901 27.1081C26.0901 27.7773 26.8293 28.1924 27.4022 27.8582L51.443 13.8841C51.8583 13.6434 51.999 13.112 51.7583 12.6975Z" fill="white"/>
<path d="M57.9558 16.2743C57.7134 15.8582 57.1811 15.72 56.7692 15.9599L32.7097 29.934C32.2944 30.1747 32.1537 30.7053 32.3944 31.1197C32.6318 31.5296 33.1609 31.6779 33.581 31.4342L57.6405 17.4601C58.0558 17.2194 58.1965 16.6888 57.9558 16.2743Z" fill="white"/>
<path d="M63.7347 21.0869C64.0484 20.9572 64.2653 20.647 64.2653 20.2843C64.2653 19.652 63.5025 19.2146 62.9533 19.5341C16.9103 46.3151 74.6022 12.7641 38.9124 33.5065C38.4988 33.7473 38.3564 34.2778 38.5971 34.6932C38.839 35.1093 39.3717 35.2475 39.7838 35.0085C64.6954 20.5311 63.7568 21.0741 63.7347 21.0869Z" fill="white"/>
<path d="M45.9983 38.6014L70.0392 24.6273C70.4545 24.3866 70.5952 23.8551 70.3544 23.4407C70.112 23.0253 69.5798 22.888 69.1678 23.127L45.2202 37.046C44.9049 37.1749 44.6846 37.4868 44.6846 37.8512C44.6846 38.5182 45.4238 38.9365 45.9983 38.6014Z" fill="white"/>
<path d="M87.6603 37.3435L81.9468 34.0187C81.9497 32.4604 81.9628 25.2238 81.9628 25.4909C81.9628 25.2901 81.8508 24.9265 81.5289 24.74L48.6003 5.7321C48.3308 5.57614 47.9968 5.57614 47.7307 5.73379C47.5 5.86783 14.1539 25.2494 15.0275 24.7417C14.805 24.8707 14.597 25.1536 14.5953 25.4892L14.5641 35.9156L13.2256 35.1381C12.9561 34.9839 12.6289 34.983 12.356 35.1373L5.27356 39.2167C4.96425 39.3948 4.8396 39.7655 4.8396 39.9668L4.84002 39.9685C4.84002 40.2072 4.88833 62.633 4.89045 62.8659C4.89045 63.1745 5.05658 63.4592 5.32272 63.6152L44.3285 86.2677C44.5998 86.4237 44.9207 86.419 45.1761 86.2813L87.7044 63.4033C87.9858 63.2507 88.1621 62.9558 88.1604 62.6371L88.0909 38.0911C88.0894 37.8293 87.8292 37.4426 87.6603 37.3435ZM53.957 63.6898L52.6679 58.4607C55.6702 56.7189 42.1639 64.555 80.1725 42.503L80.1592 48.4943C33.7447 75.4421 83.1857 46.7398 53.957 63.6898ZM16.326 26.9929C16.4997 27.0931 49.2933 46.0223 47.5222 45C47.5218 45.1782 47.5094 50.7122 47.5102 50.3675C44.318 48.5125 59.0666 57.083 16.3108 32.2374L16.326 26.9929ZM49.2161 58.4505C49.2168 58.2722 49.2348 53.844 49.2411 52.3085C50.1506 51.7804 77.3729 35.9766 79.6193 34.6725L80.1156 34.9613L80.2075 35.0149C80.2066 35.1932 80.1785 40.8098 80.1802 40.4829C80.873 40.0808 66.9599 48.1538 49.2161 58.4505ZM80.2146 32.3192C45.8347 52.2774 49.6521 50.0613 49.2463 50.2969L49.2585 44.9986C60.8465 38.2639 68.6002 33.7576 80.2236 27.0023L80.2146 32.3192ZM81.9178 40.1469C81.9187 39.9721 81.9405 35.7559 81.9391 36.023L85.4905 38.0894L81.9178 40.1469ZM48.168 7.48659L79.3624 25.4935L48.3911 43.4955C7.25832 19.7546 20.5073 27.4016 17.1939 25.4892L48.168 7.48659ZM16.2972 36.9189L16.305 34.2411C59.0609 59.0866 44.3143 50.5174 47.5045 52.3712L47.4928 55.0408C4.74223 30.2064 19.4916 38.7746 16.2972 36.9189ZM12.7882 36.8918C14.8937 38.1147 5.2482 32.5124 47.484 57.0438C47.4832 57.2421 47.4705 60.1438 47.4713 59.9655L44.6963 61.6353L7.43998 39.9719L12.7882 36.8918ZM6.62461 62.3642L6.57884 41.4789C52.3486 68.0939 40.4646 61.1834 43.8282 63.1393C43.8347 65.2868 43.8048 55.3869 43.8911 84.008L6.62461 62.3642ZM45.6287 84.0674L45.5659 63.1377C50.1817 60.4767 51.3325 59.8101 51.2278 59.8706L52.5483 65.2256C52.6127 65.4901 52.7992 65.7087 53.0501 65.8155C53.301 65.9223 53.5875 65.9037 53.8248 65.7698C56.6506 64.1313 43.5882 71.7053 81.4611 49.7454C81.7289 49.5894 81.8933 49.3046 81.8933 48.9961L81.9086 42.1553C82.0826 42.055 86.5968 39.4549 86.3584 39.5922L86.4228 62.1218L45.6287 84.0674Z" fill="white"/>
</svg>
