<svg width="93" height="92" viewBox="0 0 93 92" fill="none" xmlns="http://www.w3.org/2000/svg">
<rect x="0.5" width="92" height="92" rx="46" fill="black"/>
<path d="M28.9618 68.3321L33.7845 71.1475L33.7879 71.1484C35.8535 73.0525 38.3275 73.6035 40.1927 73.6895C40.2017 73.6901 40.2107 73.6901 40.2197 73.6901C40.5262 73.6901 40.782 73.449 40.7955 73.1396C40.8101 72.8213 40.5645 72.5515 40.2467 72.5368C38.2969 72.4468 36.1778 71.8572 34.4554 70.2121C23.0553 59.2967 40.6387 22.6313 59.2595 23.4916C60.731 23.5775 62.1585 23.9525 63.4375 24.6883C66.9328 26.6996 68.8664 30.973 68.8822 36.7225C68.9171 48.9275 60.3185 63.8379 49.7141 69.9609C49.4381 70.1204 49.3434 70.4731 49.5034 70.7491C49.6612 71.0263 50.015 71.1176 50.2911 70.9604C61.2154 64.6531 70.0721 49.2926 70.036 36.7191C70.0191 30.5409 67.8793 25.9131 64.0133 23.6882C61.8726 22.4562 59.3841 20.9943 57.1882 19.7162C53.2951 17.4519 48.1591 17.9342 42.7358 21.0729C32.2989 26.9193 22.9298 42.285 22.9638 55.2826C22.9864 61.4592 25.1172 66.0937 28.9618 68.3321ZM43.306 22.0752C47.4065 19.7035 52.4779 18.3137 56.6079 20.7129L59.3979 22.3406C59.3887 22.3403 59.3798 22.3399 59.3708 22.3394C41.9122 21.2609 23.4203 53.6651 31.8385 68.6758L29.5432 67.3355C26.0648 65.3106 24.1391 61.0288 24.1177 55.2787C24.0853 42.6655 33.2388 27.7181 43.306 22.0752Z" fill="white"/>
<path d="M46.9546 71.2878C45.9101 71.6979 44.8542 72.0145 43.8176 72.2281C43.5055 72.2923 43.3038 72.5977 43.3691 72.9098C43.4243 73.1825 43.6655 73.3701 43.9325 73.3701C43.972 73.3701 44.0103 73.3661 44.0497 73.3583C45.1517 73.1312 46.2706 72.796 47.376 72.3616C47.6724 72.245 47.8189 71.9103 47.7028 71.614C47.5845 71.3171 47.2487 71.1723 46.9546 71.2878Z" fill="white"/>
<path d="M50.8538 61.0994L51.4268 58.6343C51.4989 58.3239 51.3051 58.0135 50.9953 57.9419C50.6809 57.8658 50.3744 58.063 50.3023 58.3729C50.2568 58.5687 49.3527 62.4617 49.4087 62.2204C49.3768 62.3569 49.4157 62.5352 49.4718 62.6322C49.6018 62.7666 49.6545 62.8928 49.9 62.9235L53.534 63.3753C53.8335 63.4181 54.1371 63.2004 54.1774 62.8739C54.2168 62.5579 53.9926 62.27 53.6759 62.2305L51.6152 61.9742C57.9636 57.526 62.9098 48.4635 62.8898 40.9554C62.8841 38.9508 62.5326 37.1952 61.8464 35.7371C61.7112 35.4487 61.3664 35.3242 61.079 35.4611C60.7906 35.5963 60.6666 35.94 60.803 36.2284C61.4171 37.5327 61.7303 39.1243 61.7359 40.9587C61.7561 48.1708 56.9713 56.8862 50.8538 61.0994Z" fill="white"/>
<path d="M49.2416 34.9737L48.682 37.3811C48.6099 37.6916 48.8037 38.002 49.1135 38.0736C49.4122 38.1463 49.7326 37.9602 49.8065 37.6426L50.7001 33.7951C50.7373 33.6357 50.7046 33.4683 50.6111 33.3342C50.5175 33.2001 50.371 33.1123 50.2088 33.092L46.5748 32.6396C46.2593 32.5917 45.9698 32.8244 45.9314 33.1404C45.892 33.4571 46.1162 33.745 46.4329 33.7844L48.5485 34.0479C42.0551 38.4158 36.9508 47.635 36.9722 55.2562C36.979 57.8844 37.5976 60.1347 38.7616 61.7635C38.946 62.0216 39.3047 62.0836 39.5673 61.8976C39.8264 61.7122 39.8861 61.3522 39.7014 61.093C38.6771 59.6597 38.1328 57.6405 38.1261 55.2528C38.1046 47.9551 43.0133 39.1232 49.2416 34.9737Z" fill="white"/>
<path d="M50.2427 51.7558C50.0962 51.473 49.7457 51.3637 49.4652 51.5096L45.6228 53.5051L48.8139 46.8322C49.5485 45.3736 49.1474 44.5071 48.842 44.12C48.3327 43.4743 47.3795 43.2248 46.3743 43.4631C45.1889 43.7425 43.7771 44.742 43.3692 46.7088C43.3038 47.021 43.5044 47.3263 43.8165 47.3911C44.1207 47.4531 44.434 47.2559 44.4982 46.9432C44.7968 45.5071 45.7997 44.7843 46.6391 44.5859C47.2003 44.453 47.7107 44.5499 47.9361 44.835C48.166 45.1262 48.1107 45.6649 47.7783 46.3235L43.8379 54.5627C43.7309 54.7863 43.7793 55.0539 43.9574 55.2263C44.0678 55.3328 44.212 55.3886 44.3585 55.3886C44.4486 55.3886 44.5399 55.3672 44.6244 55.3238L49.997 52.5338C50.2798 52.3868 50.3903 52.0386 50.2427 51.7558Z" fill="white"/>
<path d="M54.6202 40.641C54.3521 40.5779 54.0884 40.7092 53.9712 40.9514L49.7626 49.616C49.6533 49.8413 49.7017 50.1118 49.8832 50.2853C50.0657 50.4583 50.3384 50.4937 50.5581 50.3749L53.9137 48.5495V50.5974C53.9137 50.9163 54.1718 51.1743 54.4906 51.1743C54.8095 51.1743 55.0676 50.9163 55.0676 50.5974V47.9218L56.2034 47.3049C56.4828 47.1522 56.5865 46.8023 56.4344 46.5223C56.2811 46.2412 55.9318 46.1403 55.6513 46.2908L55.0676 46.6085V41.2033C55.0676 40.9345 54.8816 40.7013 54.6202 40.641ZM53.9137 47.2362L51.5869 48.5016L53.9137 43.7115V47.2362Z" fill="white"/>
</svg>
