<svg width="93" height="92" viewBox="0 0 93 92" fill="none" xmlns="http://www.w3.org/2000/svg">
<rect x="0.5" width="92" height="92" rx="46" fill="black"/>
<path d="M41.0224 69.5803C40.7468 69.4197 40.3936 69.5121 40.2336 69.7893C40.073 70.0642 40.1671 70.4175 40.442 70.5775L45.6715 73.6165C45.6713 73.6163 45.6718 73.6166 45.6715 73.6165C45.6722 73.6168 45.6732 73.6178 45.6738 73.6182C45.7628 73.6694 45.8625 73.6948 45.9617 73.6948C46.0614 73.6948 46.1611 73.6689 46.2502 73.6176L63.257 63.7992C63.4361 63.6956 63.546 63.5046 63.5454 63.2978L63.4897 43.7489C63.4891 43.5432 63.3787 43.3534 63.2006 43.2503C63.1936 43.2463 63.1851 43.248 63.1779 43.2442L52.4467 37.0028C53.9956 32.5571 55.4544 27.8178 55.4482 25.7353C55.4421 23.5657 54.6777 21.9286 53.2976 21.1157C53.2918 21.1121 53.2886 21.1059 53.2825 21.1024C53.2803 21.1013 53.278 21.1002 53.2763 21.099L49.3579 18.824C47.9449 18.0026 46.1161 18.1609 44.2095 19.268C40.4961 21.4151 37.4842 26.6322 37.4955 30.8983C37.5005 32.7772 38.696 35.4344 40.0725 37.8776L29.7533 43.8408C29.7501 43.8426 29.7462 43.8417 29.7431 43.8435C29.5639 43.9472 29.454 44.1382 29.4546 44.345L29.5098 63.8944C29.5104 64.0995 29.6197 64.2888 29.7971 64.3914L32.4147 65.912C32.6896 66.0709 33.0429 65.9779 33.2029 65.7029C33.3635 65.4274 33.2694 65.0748 32.9939 64.9148L30.6625 63.5603L30.6113 45.3473C50.7826 57.0816 43.8256 53.0344 45.3305 53.9099L45.382 72.1139L41.0224 69.5803ZM40.6511 38.8862C41.6985 40.6433 43.1189 42.7527 44.1008 44.0666C44.1475 44.1286 44.2061 44.1805 44.2732 44.2193C44.6757 44.4527 42.8155 43.3733 48.2099 46.5012C48.537 46.6748 48.9043 46.4832 49.0141 46.21C49.0149 46.2081 49.0169 46.2072 49.0176 46.2053C49.2085 45.7231 49.5388 44.8812 49.9458 43.82L55.7711 47.2048C55.6477 47.2761 51.5813 49.6266 51.8392 49.4775L37.1185 40.9189L40.6511 38.8862ZM56.5356 54.5403L52.5862 56.8204L52.4246 50.4774C52.5405 50.4104 56.6353 48.0432 56.374 48.1942L56.5356 54.5403ZM46.5358 72.1201C46.4915 56.3681 46.53 70.0569 46.4845 53.9042L51.2869 51.1314L51.4571 57.8198C51.4627 58.0232 51.5743 58.2091 51.7518 58.3083C51.9343 58.4101 52.1498 58.4044 52.3225 58.3049L57.4094 55.3679C57.5926 55.262 57.703 55.0648 57.6979 54.8535L57.5118 47.5373L62.3386 44.7503L62.3905 62.9671L46.5358 72.1201ZM61.756 43.7521L56.9251 46.5412L50.3621 42.7281C50.375 42.6936 50.3881 42.6586 50.4012 42.6237C50.9034 41.2953 51.4776 39.7459 52.0581 38.1116L61.756 43.7521ZM54.2944 25.7386C54.2998 27.6216 52.8591 32.3206 51.196 37.0675C51.196 37.0677 51.1961 37.0673 51.196 37.0675C50.3662 39.4283 49.336 42.2215 48.329 44.8027C46.525 42.2726 42.5734 36.2384 42.5649 33.1738C42.5537 29.2684 45.3307 24.4936 48.7009 22.5475C49.9197 21.8434 51.4828 21.3989 52.6943 22.0965C53.7213 22.6895 54.2893 23.9825 54.2944 25.7386ZM44.7881 20.2658C46.3211 19.3756 47.7364 19.215 48.7787 19.8218L50.279 20.6928C50.1621 20.7313 49.2327 20.9064 48.1235 21.5469C44.4522 23.67 41.3975 28.8723 41.4094 33.1772C41.4178 36.3124 44.7055 41.5557 46.471 44.1574L44.9583 43.2762C43.0338 40.6809 38.6582 34.1502 38.6493 30.8949C38.6392 26.9973 41.3925 22.2298 44.7881 20.2658ZM35.966 41.5834L50.6874 50.1425L45.9073 52.9022C44.4021 52.0273 51.3602 56.0716 31.1859 44.3455L35.966 41.5834Z" fill="white"/>
<path d="M35.51 66.3773C35.2362 66.2173 34.8824 66.3103 34.7218 66.5864C34.5613 66.8613 34.6554 67.2146 34.9309 67.3746L37.7067 68.9876C37.9788 69.1465 38.3337 69.0569 38.4949 68.7786C38.6555 68.5031 38.5614 68.1504 38.2859 67.9904L35.51 66.3773Z" fill="white"/>
<path d="M48.1347 25.333C46.2209 26.4372 44.7267 29.0261 44.7329 31.2261C44.7399 33.6241 46.6006 34.7325 48.732 33.5017C50.6419 32.3991 52.1326 29.816 52.1264 27.6204C52.1195 25.1958 50.2502 24.1111 48.1347 25.333ZM48.155 32.5022C46.8521 33.2577 45.8916 32.79 45.8868 31.2228C45.8817 29.4582 47.1753 27.2187 48.7117 26.3324C49.9943 25.5907 50.9678 26.027 50.9726 27.6238C50.9777 29.3838 49.6875 31.6177 48.155 32.5022Z" fill="white"/>
</svg>
