<svg width="93" height="92" viewBox="0 0 93 92" fill="none" xmlns="http://www.w3.org/2000/svg">
<rect x="0.5" width="92" height="92" rx="46" fill="black"/>
<path d="M46.8875 22.6L48.1213 21.8878C48.3974 21.7284 48.4921 21.3757 48.3326 21.0996C48.1726 20.8236 47.8182 20.7289 47.5444 20.8884L46.3106 21.6005C46.0345 21.7599 45.9399 22.1126 46.0993 22.3887C46.2603 22.6666 46.6141 22.7579 46.8875 22.6Z" fill="white"/>
<path d="M60.261 22.4863C60.2579 22.4844 60.2568 22.4807 60.2536 22.4789L52.8358 18.1683C52.6561 18.0635 52.4358 18.0646 52.2572 18.1672L49.0436 20.0224C48.7675 20.1819 48.6729 20.5346 48.8323 20.8106C48.9918 21.0867 49.345 21.1802 49.6205 21.0219L52.5446 19.3334L58.8124 22.9758L40.3483 33.6362C39.9894 33.4276 33.7858 29.8217 34.0813 29.9935L45.2801 23.5279C45.5561 23.3685 45.6508 23.0158 45.4913 22.7397C45.3313 22.4631 44.977 22.3684 44.7031 22.5284L32.6418 29.4921C32.5695 29.5339 32.4176 29.7177 32.3923 29.7834L22.6353 54.964C22.5645 55.1467 22.6127 55.38 22.7034 55.5071L32.5708 69.3572C32.6187 69.4243 32.6802 69.4801 32.7506 69.5212L40.1683 73.8318C40.2856 73.8786 40.3297 73.9079 40.4542 73.909C40.4557 73.909 40.4571 73.9101 40.4585 73.9101C40.4591 73.9101 40.4604 73.9096 40.461 73.9096C40.5514 73.9092 40.6381 73.882 40.7194 73.8403C40.8486 73.774 60.2467 62.5827 60.3623 62.508C60.4761 62.4421 60.5646 62.3395 60.6119 62.2167L70.3599 37.0417C70.4297 36.8608 70.4044 36.6569 70.2917 36.4985L60.4333 22.6428C60.3865 22.5765 60.3267 22.526 60.261 22.4863ZM33.2244 30.8302L39.6313 34.5542C36.366 42.9814 33.5805 50.1705 30.297 58.6447L23.8894 54.9212L33.2244 30.8302ZM33.4385 68.5865L25.1937 57.0137L30.1933 59.9191L38.4381 71.492L33.4385 68.5865ZM59.6091 61.6105L40.6241 72.5714L31.2414 59.4017L40.8121 34.701L59.7979 23.7393L69.1717 36.9143L59.6091 61.6105Z" fill="white"/>
<path d="M58.9859 28.2762C58.8152 28.0345 58.4868 27.963 58.2276 28.1111L43.2107 36.7813C43.0969 36.8472 43.009 36.9498 42.9611 37.0726L34.7642 58.2272C34.6943 58.4081 34.7197 58.6126 34.8324 58.7703L41.4332 68.0355C41.5453 68.1926 41.7222 68.2777 41.9036 68.2777C42.0016 68.2777 42.1008 68.2529 42.1915 68.2005L57.2101 59.5298C57.3239 59.4639 57.4124 59.3613 57.4597 59.2385L65.6493 38.0878C65.7192 37.907 65.6938 37.703 65.5811 37.5447L58.9859 28.2762ZM56.4568 58.6323L42.0687 66.9391L35.9524 58.354L43.9634 37.6788L58.3504 29.3726L64.4611 37.9605L56.4568 58.6323Z" fill="white"/>
<path d="M53.5964 42.9202L51.6138 43.985L53.6544 38.8834C53.7434 38.6603 53.6854 38.4056 53.5079 38.2434C53.3305 38.0811 53.0719 38.0451 52.8572 38.1549L46.2823 41.4982C46.0885 41.5967 45.9668 41.7956 45.9668 42.0125V50.6917C45.9668 50.8732 46.0524 51.0439 46.1972 51.1532C46.342 51.2619 46.5313 51.2957 46.7043 51.2456L47.9139 50.8946L47.9703 57.6475C47.9725 57.9252 48.1731 58.1619 48.4469 58.2103C48.7159 58.2596 48.9888 58.1075 49.0875 57.8447L54.4099 43.6306C54.4944 43.4058 54.4302 43.1517 54.2494 42.994C54.0685 42.8351 53.8082 42.8069 53.5964 42.9202ZM49.0982 54.5257L49.0616 50.1233C49.0599 49.943 48.9742 49.7734 48.8294 49.6658C48.6776 49.553 48.4863 49.5257 48.3241 49.5745L47.1206 49.9233V42.3664L52.0138 39.8784L49.9529 45.0301C49.8627 45.2555 49.9236 45.513 50.1044 45.6746C50.2853 45.8358 50.5484 45.8668 50.7619 45.7524L52.7918 44.6622L49.0982 54.5257Z" fill="white"/>
</svg>
