<svg width="93" height="92" viewBox="0 0 93 92" fill="none" xmlns="http://www.w3.org/2000/svg">
<rect x="0.5" width="92" height="92" rx="46" fill="black"/>
<path d="M52.7609 69.8259V68.7802C53.7747 67.962 54.3305 66.9665 54.3305 65.9041L54.341 61.1397C54.5758 61.0228 54.8104 60.9057 55.0325 60.7766C57.3931 59.4052 58.6969 57.546 58.7036 55.5431C58.7152 52.4406 58.7479 48.7056 58.7285 48.4919C58.7197 46.9702 57.9389 45.4913 56.4952 44.2678L56.4827 37.4765C56.4816 37.1582 56.2235 36.9007 55.9058 36.9007C55.5869 36.9013 55.3277 37.1599 55.3288 37.4788C55.3321 39.5791 55.3476 46.4088 55.3429 46.6972C55.3379 46.7494 55.1814 46.8816 55.1385 46.9067C54.6212 47.1966 53.7527 47.1966 53.235 46.907C53.171 46.869 53.0155 46.7639 53.0155 46.6898C52.963 20.5925 52.9811 29.5935 52.9772 27.6463C52.9463 25.5998 51.7401 25.0208 50.0532 25.9893C47.9735 27.1896 46.2729 30.2714 46.2885 32.5118C46.2941 35.7516 46.3223 48.1281 46.3223 52.2647C46.3223 52.3399 46.1673 52.442 46.1015 52.4782C45.6079 52.7667 44.7245 52.7661 44.2197 52.4799C44.1104 52.4153 44.0056 52.324 44.0056 52.2022C44.0051 52.0027 43.9579 32.6889 43.9583 32.8527C43.9402 27.4515 49.7153 21.2981 53.4561 23.4659C54.6235 24.1425 55.2995 25.5448 55.3108 27.3111L55.3165 30.4475C55.3176 30.7659 55.5756 31.0233 55.8934 31.0233C56.2123 31.0228 56.4714 30.7642 56.4703 30.4453L56.4647 27.3066C56.4511 25.1178 55.5655 23.3543 54.0353 22.4675C52.869 21.7926 51.45 21.7039 50 22.1805C49.6781 20.7244 48.9196 19.5601 47.7657 18.8927C46.2254 17.9975 44.249 18.1248 42.3436 19.2375C39.077 21.1125 36.5259 25.5251 36.5383 29.2813L36.5738 44.2229C35.1378 45.425 34.3498 46.8782 34.3166 48.3815C34.2858 48.5924 34.2991 50.4423 34.2655 55.4671C34.2599 57.4987 35.5861 59.3844 37.9986 60.7777C38.2079 60.8985 38.4296 61.0075 38.6499 61.1176C38.6499 62.225 38.6499 64.6799 38.6499 65.8568C38.6499 66.926 39.2047 67.9265 40.2184 68.7494V69.7916C40.2184 70.8969 40.9193 71.9105 42.1915 72.6452C43.4073 73.3472 44.9634 73.6982 46.5161 73.6982C48.07 73.6982 49.6193 73.3466 50.8239 72.6446C52.0724 71.9212 52.7609 70.92 52.7609 69.8259ZM39.8128 61.637C43.918 63.2294 49.1799 63.1973 53.1767 61.6579V62.153C53.1767 63.051 52.5287 63.9232 51.3524 64.6077C48.6931 66.1514 44.3504 66.152 41.6731 64.6071C40.4869 63.9237 39.8327 63.0526 39.8116 62.1506L39.8128 61.637ZM51.8234 27.6565L51.8504 41.9414C51.3211 41.7886 50.7822 41.6596 50.2324 41.5573L50.2113 27.2836C50.3497 27.1798 50.4875 27.071 50.629 26.9894C51.5618 26.4555 51.8068 26.5776 51.8234 27.6565ZM48.8734 43.3297C48.58 43.4989 48.0155 43.6057 47.4709 43.4942L47.4446 32.5068C47.4391 31.4709 47.9417 29.8661 49.0593 28.4354C49.0667 33.5009 49.0625 30.6367 49.0807 43.1145C49.0807 43.1449 49.0289 43.2384 48.8734 43.3297ZM42.8044 32.8561L42.8256 41.5334C42.2612 41.6367 41.7226 41.7633 41.2066 41.9102L41.1762 28.9309C41.1661 27.0159 42.685 24.3842 44.3594 23.4118C45.291 22.8791 45.5432 22.9901 45.5617 24.076V25.5478C43.8943 27.6734 42.7956 30.3991 42.8044 32.8561ZM42.9216 20.2359C44.2521 19.4588 45.8678 19.1248 47.1877 19.8905C48.1083 20.4235 48.7235 21.3875 48.9455 22.6298C48.0477 23.1054 47.0854 23.8889 46.7156 24.2422V24.0665C46.68 22.046 45.4947 21.4295 43.7836 22.4123C41.7328 23.6033 40.01 26.5916 40.0224 28.9348C40.035 36.0494 40.0573 39.4057 40.0573 48.6877C40.0573 48.7333 39.9908 48.8172 39.8398 48.9029C39.3373 49.1925 38.4572 49.1913 37.9659 48.9085C37.8093 48.815 37.7383 48.7282 37.7383 48.6285V48.6245L37.6921 29.2785C37.6809 25.8969 39.9773 21.9261 42.9216 20.2359ZM36.5766 45.8115L36.5845 48.6877C36.5845 49.7106 37.7688 50.2767 38.8986 50.2764C38.8984 50.2764 38.8987 50.2764 38.8986 50.2764C39.8838 50.2764 41.0758 49.8209 41.201 48.8432C41.2156 48.7925 41.2224 48.7401 41.2224 48.6865L41.2123 43.0948C41.7216 42.9382 42.2613 42.8035 42.8281 42.6931L42.8495 52.2647C42.8495 52.6595 43.0652 53.1258 43.6383 53.4822C44.5104 53.9769 45.8186 53.9763 46.6773 53.4816C47.1022 53.2403 47.4919 52.7525 47.4919 52.2619L47.4738 44.6715C48.2188 44.7691 48.9988 44.5886 49.4526 44.3281C49.9495 44.0368 50.2346 43.5945 50.2346 43.1145C50.2346 42.96 50.2346 42.6004 50.2346 42.7184C50.7845 42.8283 51.3253 42.9652 51.8504 43.1291C51.8507 43.2476 51.86 46.9235 51.8594 46.6944C51.8594 47.0845 52.0921 47.5864 52.6617 47.909C52.6615 47.9089 52.6619 47.9092 52.6617 47.909C52.6618 47.9091 52.6627 47.9095 52.6628 47.9096C53.5209 48.3982 54.808 48.3992 55.6822 47.9192C56.2339 47.6208 56.4996 47.1415 56.4996 46.6915V45.8769C57.2464 46.7468 57.6146 47.7056 57.5741 48.6613C57.5019 50.4565 56.0347 51.8713 54.4894 52.7701C50.1343 55.3082 43.0118 55.3076 38.6139 52.7684C37.0335 51.8592 35.5618 50.4526 35.4697 48.6469C35.4211 47.6711 35.8028 46.6936 36.5766 45.8115ZM35.4194 55.4716L35.4385 51.5976C36.0639 52.4027 36.936 53.1385 38.0347 53.7729C42.7481 56.493 50.3878 56.4919 55.0674 53.7718C56.173 53.13 57.0408 52.3512 57.5689 51.6833L57.5498 55.5386C57.5441 57.1156 56.4444 58.6216 54.4533 59.7793C52.6658 60.818 49.5521 61.675 46.4975 61.6708C43.4324 61.6648 40.3644 60.8114 38.5755 59.7782C36.536 58.6007 35.4149 57.0705 35.4194 55.4716ZM39.8064 64.6289C40.1621 64.9834 40.588 65.3139 41.0962 65.6066C42.5926 66.4703 44.5555 66.9019 46.5172 66.9019C48.479 66.9019 50.4408 66.4697 51.9327 65.6055C52.4224 65.3203 52.8339 64.9994 53.1793 64.6559L53.1767 65.903C53.1767 66.801 52.5287 67.6732 51.3524 68.3577C48.6952 69.8991 44.3524 69.9031 41.6731 68.3571C40.4674 67.6625 39.8038 66.7745 39.8038 65.8579L39.8064 64.6289ZM51.607 69.8259C51.607 70.4817 51.1101 71.1448 50.2436 71.6474C48.1939 72.8424 44.8406 72.8418 42.7684 71.6457C41.8816 71.1336 41.3723 70.4575 41.3723 69.7916V69.5082C42.5724 70.1359 44.5113 70.6486 46.5005 70.651C46.5061 70.651 46.5116 70.6519 46.5172 70.6519C48.4482 70.6519 50.4344 70.1375 51.607 69.533V69.8259Z" fill="white"/>
<path d="M55.8956 32.1051C55.5767 32.1057 55.3187 32.3648 55.3198 32.6832L55.3243 34.7024C55.3255 35.0207 55.5835 35.2782 55.9013 35.2782C56.2201 35.2776 56.4793 35.0185 56.4782 34.7001L56.4737 32.6809C56.4725 32.3626 56.2134 32.1051 55.8956 32.1051Z" fill="white"/>
</svg>
