<svg width="93" height="92" viewBox="0 0 93 92" fill="none" xmlns="http://www.w3.org/2000/svg">
<rect x="0.5" width="92" height="92" rx="46" fill="black"/>
<path d="M19.6065 54.6708C26.4033 58.595 31.7505 61.6822 38.5025 65.5805C38.5069 65.5832 38.5086 65.5886 38.5131 65.5912C38.6021 65.6424 38.7019 65.6684 38.8016 65.6684C38.9013 65.6684 39.0016 65.6424 39.0912 65.5906L43.8566 62.827C48.9326 65.7577 52.9575 68.0816 58.2237 71.1221C58.3133 71.1734 58.4125 71.1993 58.5122 71.1993C58.6113 71.1993 58.7111 71.1734 58.8001 71.1221C58.7998 71.1222 58.8004 71.1219 58.8001 71.1221C58.8006 71.1218 58.8018 71.1212 58.8023 71.121C66.2508 66.7924 46.7552 78.122 73.395 62.6406C73.6688 62.4818 73.7629 62.1313 73.6057 61.8558L59.0615 36.3766C58.9699 36.2168 58.7743 36.0885 58.5566 36.0909C58.3394 36.093 58.1494 36.2223 58.0615 36.3737L53.0446 45.0479C52.9777 44.9309 39.2709 20.9497 39.3462 21.0689C39.2647 20.9399 39.0664 20.7984 38.8539 20.8007C38.6618 20.8034 38.4754 20.905 38.3718 21.0756C38.2995 21.1948 19.4623 53.7646 19.3958 53.882C19.3192 54.015 19.2983 54.1721 19.3377 54.3203C19.3772 54.4679 19.4741 54.5941 19.6065 54.6708ZM39.4405 23.553L44.4633 32.3482L42.9392 36.0109L41.7301 35.0559C41.6096 34.9613 41.4575 34.9179 41.3048 34.9359C41.1527 34.954 41.0141 35.0317 40.9188 35.1517L39.4315 37.0412C39.4438 18.5569 39.4396 24.9321 39.4405 23.553ZM38.2628 36.0744L36.593 32.4806C36.5046 32.2908 36.3209 32.1634 36.1119 32.1482C35.9102 32.137 35.7034 32.2322 35.5879 32.4063L33.949 34.8948L33.166 32.3772L38.2793 23.5364L38.2628 36.0744ZM59.1376 38.8369L62.768 45.1969L61.6734 47.8277L60.8678 47.191C60.7472 47.0964 60.5951 47.0496 60.4424 47.071C60.2903 47.0891 60.1517 47.1668 60.057 47.2868L59.1229 48.473L59.1376 38.8369ZM57.9682 47.5074L56.9132 45.2372C56.8248 45.0473 56.6411 44.92 56.4321 44.9048C56.2287 44.8924 56.0236 44.9881 55.9081 45.1628L54.7847 46.8688L54.2739 45.2269L57.9806 38.818L57.9682 47.5074ZM53.4881 46.5855L54.045 48.3753C54.1115 48.5883 54.2946 48.7443 54.5154 48.7753C54.7368 48.8074 54.9554 48.7077 55.0777 48.5212L56.3025 46.6614L57.9643 50.238L57.9367 69.6239L51.929 66.1554L52.1903 63.8581L54.9036 62.3758C55.0653 62.2874 55.1746 62.1274 55.1988 61.9448L56.0546 55.468C56.0963 55.1519 55.8743 54.8623 55.5583 54.8206C55.2439 54.7778 54.952 55.0015 54.9109 55.317L54.0934 61.5037L51.3744 62.9888C51.2099 63.079 51.0989 63.2435 51.0781 63.43L50.8397 65.5265L47.6028 63.6577L49.2701 60.5532L51.0612 59.6152C51.2184 59.5329 51.3288 59.3825 51.3609 59.2084L52.0804 55.2843L53.0134 53.9778C53.1987 53.7186 53.1385 53.358 52.8793 53.1732C52.6218 52.9879 52.2601 53.0482 52.0748 53.3073L51.0668 54.7187C51.0172 54.7874 50.984 54.8663 50.9688 54.9496L50.2769 58.7239L48.5783 59.6135C48.4763 59.667 48.3924 59.7498 48.3377 59.8512L46.603 63.0805L44.6125 61.9313C46.3502 58.9269 51.655 49.7549 53.4881 46.5855ZM70.8332 62.7948L69.1227 59.6107C69.0681 59.5093 68.9847 59.4264 68.8821 59.3729L67.1835 58.4833L66.4922 54.7091C66.477 54.6257 66.4437 54.5468 66.3942 54.4781L65.2538 52.882C65.069 52.6222 64.7079 52.5631 64.4493 52.7479C64.1901 52.9332 64.1299 53.2932 64.3152 53.5524L65.3806 55.0437L66.0995 58.9678C66.1316 59.1419 66.242 59.2923 66.3992 59.3746L68.1903 60.3127L69.835 63.375L66.6161 65.2456L66.3823 63.1894C66.3615 63.0029 66.2505 62.8384 66.086 62.7482L63.367 61.2631L62.5625 55.1739C62.5208 54.8584 62.2289 54.6358 61.9151 54.6775C61.5991 54.7192 61.3771 55.0088 61.4188 55.3249L62.2616 61.7043C62.2858 61.8868 62.3951 62.0468 62.5568 62.1353L65.2702 63.6176L65.5272 65.8784L59.0908 69.6189L59.1201 50.3413L60.6058 48.4548L61.5557 49.2052C61.6977 49.3179 61.8853 49.3562 62.0582 49.3106C62.2334 49.2655 62.3765 49.1404 62.4458 48.9736L63.4905 46.4626L72.32 61.9308L70.8332 62.7948ZM49.5349 51.1088L48.3873 50.5078L47.4954 45.64C47.4802 45.5566 47.447 45.4777 47.3974 45.409L45.2379 42.3852C45.0525 42.1261 44.6931 42.0658 44.4333 42.2511C44.1742 42.4359 44.1139 42.7965 44.2992 43.0557L46.3838 45.9747L47.3033 50.9923C47.3354 51.1664 47.4458 51.3168 47.603 51.3991L48.9567 52.1082L46.808 55.8218L43.5358 54.0341L42.2558 44.3481C42.2141 44.0326 41.9256 43.8044 41.6084 43.8518C41.2924 43.8935 41.0704 44.183 41.1121 44.4991L42.4304 54.4753C42.4547 54.6578 42.564 54.8178 42.7257 54.9063L46.2298 56.8211L43.3601 61.7809L39.3804 64.089L39.4279 38.9114L41.4682 36.3196L42.8214 37.389C42.964 37.5011 43.1493 37.5405 43.324 37.4943C43.4992 37.4493 43.6423 37.3242 43.7116 37.1574L45.1859 33.6136C47.695 38.0071 49.9134 41.8916 52.3745 46.2011L49.5349 51.1088ZM32.3801 33.736L33.2093 36.4013C33.2757 36.6143 33.4588 36.7704 33.6797 36.8014C33.9051 36.8357 34.1191 36.7332 34.242 36.5473L35.9823 33.9049L38.2592 38.806L38.226 64.0884L30.0743 59.3822L30.4266 56.2798L33.9439 54.3581C34.1056 54.2696 34.2149 54.1096 34.2392 53.9271L35.5575 43.9509C35.5992 43.6349 35.3772 43.3453 35.0612 43.3036C34.7428 43.263 34.4555 43.4844 34.4138 43.7999L33.1338 53.4859L29.6108 55.4105C29.4463 55.5007 29.3353 55.6652 29.3145 55.8517L28.985 58.7532L24.5363 56.1848L26.7493 52.0645L29.0666 50.8509C29.2238 50.7686 29.3342 50.6182 29.3663 50.4441L30.2858 45.4259L32.3704 42.5075C32.5557 42.2483 32.4954 41.8877 32.2363 41.7029C31.9777 41.5182 31.6171 41.5779 31.4317 41.837L29.2722 44.8603C29.2226 44.929 29.1894 45.0079 29.1742 45.0912L28.2823 49.9596L26.0574 51.1247C25.9555 51.1782 25.8715 51.2611 25.8169 51.3625L23.5365 55.6076L20.6832 53.9603L32.3801 33.736Z" fill="white"/>
</svg>
