<svg width="93" height="92" viewBox="0 0 93 92" fill="none" xmlns="http://www.w3.org/2000/svg">
<rect x="0.5" width="92" height="92" rx="46" fill="black"/>
<path d="M36.4467 36.0172C36.7487 36.1179 37.0767 35.956 37.1769 35.6533L37.7752 33.8684C37.8755 33.5659 37.7121 33.2391 37.4102 33.1388C37.1104 33.0391 36.7825 33.2008 36.68 33.5033L36.0839 35.2871C35.9825 35.589 36.1448 35.9158 36.4467 36.0172Z" fill="white"/>
<path d="M61.1845 22.9294L53.369 18.3872C53.0932 18.2256 52.6787 18.3741 52.5137 18.4723C50.7454 19.4934 45.2774 22.634 39.3718 26.0766C39.2837 26.1706 39.1709 26.2462 39.1239 26.3684C38.6494 27.6067 38.3314 28.5697 37.2534 31.7934C37.152 32.0954 37.3143 32.4227 37.6162 32.5241C37.9205 32.6278 38.245 32.4638 38.3464 32.1618C39.1953 29.6249 39.5569 28.5269 39.9634 27.4169L46.7659 31.3703C46.0954 33.1776 39.7166 52.3308 39.5915 52.7638L32.8048 48.8188C33.3743 46.9145 32.3562 50.1009 36.4072 37.9485C36.5086 37.6466 36.3463 37.3198 36.0444 37.2184C35.7424 37.1187 35.4145 37.2798 35.3142 37.5823C31.5727 48.8136 32.2567 46.564 31.571 48.9264C31.4955 49.1816 31.6036 49.456 31.8346 49.5895L35.9213 51.9646C32.6185 65.0821 31.7458 68.5907 31.7693 68.4567C31.7379 68.6356 31.8056 68.935 32.0453 69.0737C32.8467 69.5387 29.1431 67.3875 39.8832 73.6213C40.1732 73.7752 40.5374 73.6303 40.6654 73.3769L58.4362 38.2466C58.5434 38.0342 58.4573 37.6381 58.2097 37.4928L54.9738 35.6092L61.4031 23.7018C61.5254 23.473 61.4109 23.0605 61.1845 22.9294ZM52.8392 19.6247L59.4974 23.4938C57.7692 24.4918 53.3347 27.0358 47.478 30.4491L40.8096 26.5746C47.1449 22.8855 51.7843 20.2329 52.8392 19.6247ZM39.6501 54.1317C39.8285 54.2355 40.0792 54.2188 40.2282 54.1328L45.5275 51.073C43.0735 59.9084 41.813 64.459 39.7965 72.1577L33.0197 68.2198L36.9602 52.5684L39.6501 54.1317ZM47.016 50.0222C47.1605 49.5036 46.5957 49.1257 46.1731 49.3678C46.1728 49.3681 46.1735 49.3676 46.1731 49.3678L40.904 52.4099C40.9601 52.2316 47.2617 33.329 47.9487 31.511C54.8208 27.5046 58.5912 25.3553 59.4728 24.8467C54.6691 33.7298 50.2325 41.9592 50.3131 41.8124C50.1902 42.0394 50.2331 42.3205 50.4179 42.5003C50.4193 42.5017 50.4217 42.5014 50.4231 42.5028C50.5748 42.6488 50.8779 42.721 51.1108 42.587L56.5293 39.4597L42.1144 67.957C43.4828 62.8873 45.6084 55.0889 47.016 50.0222ZM56.7656 37.9874L52.2992 40.5667C53.4635 38.4029 53.2781 38.7516 54.4254 36.6249L56.7656 37.9874Z" fill="white"/>
</svg>
