<svg width="93" height="92" viewBox="0 0 93 92" fill="none" xmlns="http://www.w3.org/2000/svg">
<rect x="0.5" width="92" height="92" rx="46" fill="black"/>
<path d="M30.7783 36.0977L50.1959 24.8911C50.472 24.7317 50.5666 24.379 50.4072 24.1029C50.2472 23.8274 49.8939 23.7322 49.619 23.8916L30.1991 35.0994C28.6976 35.9755 27.5286 38.0082 27.5381 39.726L27.5967 62.7382C27.5967 63.6841 27.9455 64.4036 28.5742 64.7613L32.1343 66.8311C32.1383 66.8335 32.141 66.8374 32.1451 66.8397C32.861 67.254 33.6994 67.0838 34.4122 66.6707L35.2595 66.1816C35.5348 66.6425 45.0655 73.2433 45.1811 73.3194C46.0415 73.8068 47.3605 73.8096 48.2184 73.3515C49.1731 72.9614 51.7672 71.2949 58.0621 67.6307C58.5771 67.3383 58.8847 66.8746 58.8847 66.3929L58.8965 63.1968V63.1945C58.8965 62.706 58.6007 62.2581 58.0582 61.9516L52.5284 59.3332L52.5197 56.2183L62.7969 50.2859C64.2911 49.4205 65.4618 47.3922 65.4618 45.6677V45.666L65.4038 22.6555C65.396 21.6452 64.9607 20.9379 64.4212 20.6239L64.419 20.6228L60.8571 18.5511C60.212 18.1787 59.4024 18.2396 58.5793 18.7196L54.378 21.1445C54.102 21.3039 54.0073 21.6566 54.1668 21.9327C54.3262 22.2076 54.6794 22.3017 54.955 22.144L59.1579 19.718C59.6132 19.4543 60.0115 19.3951 60.2791 19.5495L62.2752 20.7107C59.815 21.9563 70.566 15.9206 33.7632 37.1699C32.4466 37.9293 31.3863 39.5836 31.1496 41.1426C31.0569 41.7529 31.1477 64.7802 31.1541 64.9264L29.15 63.7613C28.8959 63.6171 28.7506 63.2441 28.7506 62.7365L28.692 39.721C28.6847 38.4206 29.6413 36.7608 30.7783 36.0977ZM57.4874 66.6307L47.7147 72.3075C47.0811 72.6571 46.0942 72.5615 45.6819 72.2647C36.0078 65.4466 36.3584 65.7535 36.2579 65.6052C36.3734 65.5387 37.7496 64.7462 37.6341 64.8127L45.0402 70.0196C45.5065 70.3321 46.2947 70.491 46.747 70.492C46.7494 70.492 46.7517 70.4928 46.7541 70.4928C47.335 70.4928 48.0338 70.2784 48.3057 70.1198L57.7376 64.6302L57.7308 66.3907C57.7303 66.411 57.6858 66.5175 57.4874 66.6307ZM47.4989 59.1262L51.3678 56.8906C51.368 57.0091 51.3852 64.485 51.3841 64.0278L47.5186 66.2665C47.5164 65.4506 47.4985 58.9673 47.4989 59.1262ZM46.345 59.7954L46.3626 66.2576L45.1788 65.5676L45.1681 60.4795L46.345 59.7954ZM57.4035 62.9145C57.7033 63.1394 57.9471 63.1821 57.4993 63.434L47.7147 69.1108C47.5131 69.2332 47.0831 69.3433 46.7099 69.333C46.2959 69.3213 45.9409 69.213 45.6938 69.0685L38.7372 64.1774L44.0157 61.1368L44.0255 65.9005C44.0261 66.1056 44.1348 66.2949 44.3117 66.398L46.6456 67.7583C46.6495 67.7607 46.651 67.7654 46.6549 67.7676C46.8335 67.8702 47.0538 67.8702 47.2313 67.7665L48.0598 67.2866L52.254 64.8633C52.4332 64.7596 52.543 64.5686 52.5425 64.3619L52.532 60.6114L57.4035 62.9145ZM62.2194 49.2869C19.5832 73.8944 40.7295 61.6919 33.8342 65.6723C33.3892 65.9286 32.9849 65.991 32.724 65.8411C32.7219 65.8398 32.7208 65.8376 32.7186 65.8363C32.3966 65.6468 32.3118 65.1705 32.3118 64.7968C32.2915 47.5103 32.1688 42.0798 32.2943 41.2928C32.4871 40.0921 33.344 38.7491 34.3423 38.171L62.7164 21.7856C63.0229 21.6084 63.5183 21.4437 63.8253 21.6161L63.8305 21.6179C64.0932 21.7691 64.246 22.1502 64.2499 22.6617L64.308 45.6688C64.3074 46.9748 63.3508 48.6317 62.2194 49.2869Z" fill="white"/>
<path d="M51.944 23.8821L53.4134 23.0342C53.6894 22.8747 53.7841 22.5221 53.6246 22.246C53.4646 21.9705 53.1114 21.8758 52.8364 22.0347L51.3671 22.8826C51.091 23.0421 50.9964 23.3948 51.1558 23.6708C51.3168 23.9487 51.6706 24.04 51.944 23.8821Z" fill="white"/>
<path d="M62.145 24.5531C61.9664 24.4505 61.7461 24.4511 61.5686 24.5536L34.3546 40.2658C34.1755 40.3694 34.0656 40.5604 34.0662 40.7672L34.1225 60.3938C34.1231 60.5995 34.2335 60.7894 34.4115 60.8925C34.587 60.9935 34.8073 60.9959 34.9879 60.8919L62.2013 45.1803C62.3805 45.0767 62.4903 44.8857 62.4898 44.6789L62.434 25.0517C62.4334 24.846 62.323 24.6562 62.145 24.5531ZM35.2735 59.3944L35.2211 41.0979L61.283 26.0511L61.3348 44.3482L35.2735 59.3944Z" fill="white"/>
<path d="M48.833 54.3503L47.2025 55.2917C46.9265 55.4512 46.8318 55.8038 46.9913 56.0799C47.1511 56.3567 47.5049 56.4498 47.7795 56.2912L49.4099 55.3497C49.686 55.1903 49.7807 54.8376 49.6212 54.5615C49.4612 54.2844 49.108 54.1914 48.833 54.3503Z" fill="white"/>
<path d="M59.2514 30.5516C59.0728 30.4491 58.8525 30.4496 58.675 30.5522L55.1983 32.5596C55.0191 32.6632 54.9093 32.8542 54.9098 33.061L54.9164 35.4015L51.7283 37.242C51.5491 37.3457 51.4393 37.5367 51.4398 37.7434L51.4486 40.7697L48.2611 42.6101C48.082 42.7137 47.9721 42.9047 47.9727 43.1115L47.9856 47.7759C47.9862 47.9816 48.0966 48.1714 48.2746 48.2745C48.4501 48.3756 48.6704 48.378 48.851 48.274C66.5677 38.0464 45.4199 50.255 59.2824 42.2512C59.4615 42.1475 59.5714 41.9565 59.5708 41.7498L59.5404 31.0502C59.5399 30.8446 59.4294 30.6547 59.2514 30.5516ZM49.1366 46.7764L49.1276 43.4422L51.4522 42.1002L51.4618 45.4344L49.1366 46.7764ZM52.614 44.769L52.5948 38.0741L54.92 36.7321L54.9391 43.427L52.614 44.769ZM56.0913 42.7616L56.0648 33.3917L58.3894 32.0497L58.4159 41.4191L56.0913 42.7616Z" fill="white"/>
<path d="M39.6018 48.3816C39.4863 48.2662 39.4846 48.2645 39.6001 48.3799C39.4654 48.256 39.2784 48.203 39.1009 48.2368C38.9212 48.2712 38.7679 48.3884 38.6885 48.5534C38.4074 49.1377 37.0028 52.1108 37.0056 53.237C37.0103 54.715 38.2226 55.4129 39.5122 54.6703C40.5911 54.0472 41.434 52.5868 41.4306 51.3451C41.4272 50.1597 40.03 48.7771 39.6018 48.3816ZM38.9353 53.6708C38.4307 53.9622 38.1619 53.8314 38.1595 53.2336C38.1583 52.7288 38.7386 51.2138 39.3792 49.8014C39.8778 50.3636 40.2756 50.9738 40.2767 51.3485C40.279 52.1716 39.6519 53.2573 38.9353 53.6708Z" fill="white"/>
<path d="M39.4919 47.1156C40.5708 46.4925 41.4137 45.0322 41.4103 43.7904C41.4069 42.605 40.0097 41.2224 39.5815 40.8269C39.4661 40.7115 39.4644 40.7098 39.5798 40.8252C39.4457 40.7013 39.2615 40.6489 39.0801 40.6821C38.9004 40.7165 38.7477 40.8343 38.6682 40.9993C38.2727 41.823 36.9825 44.595 36.9854 45.6823C36.9901 47.1649 38.2047 47.8569 39.4919 47.1156ZM39.359 42.2473C39.8576 42.8095 40.2553 43.4192 40.2565 43.7938C40.2587 44.6169 39.6317 45.7026 38.915 46.1162C38.4175 46.4046 38.1417 46.2845 38.1392 45.679C38.1381 45.173 38.7082 43.6817 39.359 42.2473Z" fill="white"/>
<path d="M44.759 44.0744C45.8379 43.4507 46.6808 41.9903 46.6774 40.7492C46.674 39.5638 45.2768 38.1812 44.8486 37.7857C44.7332 37.6702 44.7315 37.6685 44.8469 37.784C44.7123 37.66 44.5269 37.6076 44.3472 37.6409C44.1674 37.6753 44.0148 37.793 43.9353 37.9581C43.5398 38.7818 42.2496 41.5537 42.2524 42.6411C42.2572 44.1253 43.4756 44.8155 44.759 44.0744ZM44.6261 39.206C45.1247 39.7683 45.5224 40.3779 45.5236 40.7526C45.5258 41.5898 44.9117 42.6535 44.1821 43.0749C43.6622 43.3744 43.4087 43.2189 43.4063 42.6377C43.4052 42.1318 43.9753 40.6404 44.6261 39.206Z" fill="white"/>
<path d="M44.8657 45.3375C44.7321 45.2147 44.5485 45.1634 44.3665 45.1955C44.1873 45.2305 44.0346 45.3476 43.9558 45.5127C43.5603 46.3364 42.2701 49.1089 42.2734 50.1957C42.277 51.6747 43.492 52.3716 44.7795 51.629C45.8584 51.0053 46.7012 49.545 46.6978 48.3038C46.6945 47.1083 45.295 45.7308 44.8657 45.3375ZM44.2025 50.6295C43.7161 50.9114 43.4286 50.8097 43.4273 50.1923C43.4256 49.6858 43.9958 48.1951 44.6465 46.7601C45.14 47.3179 45.5429 47.9342 45.544 48.3072C45.5462 49.1444 44.9321 50.2081 44.2025 50.6295Z" fill="white"/>
</svg>
