<svg width="1115" height="256" viewBox="0 0 1115 256" fill="none" xmlns="http://www.w3.org/2000/svg">
<path d="M1018.99 185.52C1014.03 185.52 1009.57 184.912 1005.62 183.696C1001.66 182.48 998.269 180.808 995.431 178.68C992.594 176.451 990.415 173.816 988.895 170.776C987.375 167.635 986.565 164.189 986.463 160.44H998.623C998.826 163.987 999.789 166.976 1001.51 169.408C1003.34 171.739 1005.77 173.461 1008.81 174.576C1011.95 175.691 1015.44 176.248 1019.3 176.248C1025.48 176.248 1030.19 175.083 1033.43 172.752C1036.78 170.421 1038.45 167.128 1038.45 162.872C1038.45 159.629 1037.74 157.147 1036.32 155.424C1034.9 153.6 1032.72 152.181 1029.78 151.168C1026.84 150.155 1022.99 149.293 1018.23 148.584C1011.64 147.672 1006.17 146.405 1001.82 144.784C997.458 143.163 994.165 140.883 991.935 137.944C989.706 134.904 988.591 130.952 988.591 126.088C988.591 121.427 989.858 117.373 992.391 113.928C994.925 110.381 998.471 107.645 1003.03 105.72C1007.59 103.693 1012.91 102.68 1018.99 102.68C1025.17 102.68 1030.49 103.693 1034.95 105.72C1039.41 107.645 1042.91 110.432 1045.44 114.08C1047.97 117.627 1049.29 121.883 1049.39 126.848H1037.38C1037.18 123.301 1036.27 120.464 1034.65 118.336C1033.13 116.107 1031 114.536 1028.26 113.624C1025.63 112.611 1022.49 112.104 1018.84 112.104C1013.16 112.104 1008.76 113.269 1005.62 115.6C1002.47 117.931 1000.9 121.021 1000.9 124.872C1000.9 127.811 1001.66 130.192 1003.18 132.016C1004.7 133.739 1007.03 135.107 1010.18 136.12C1013.42 137.032 1017.47 137.843 1022.34 138.552C1028.31 139.363 1033.43 140.579 1037.69 142.2C1042.04 143.821 1045.34 146.203 1047.57 149.344C1049.8 152.384 1050.91 156.539 1050.91 161.808C1050.91 166.875 1049.59 171.181 1046.96 174.728C1044.32 178.173 1040.58 180.859 1035.71 182.784C1030.95 184.608 1025.38 185.52 1018.99 185.52Z" fill="white"/>
<path d="M940.049 184V104.2H950.993L951.753 118.944H952.361C954.084 113.877 957.124 109.976 961.481 107.24C965.838 104.504 970.702 103.136 976.073 103.136C976.985 103.136 977.846 103.187 978.657 103.288C979.468 103.288 980.228 103.339 980.937 103.44V115.144C980.228 115.043 979.468 114.992 978.657 114.992C977.846 114.891 976.985 114.84 976.073 114.84C971.412 114.84 967.358 115.701 963.913 117.424C960.468 119.147 957.732 121.629 955.705 124.872C953.78 128.013 952.614 131.864 952.209 136.424V184H940.049Z" fill="white"/>
<path d="M891.109 185.368C883.509 185.368 876.973 183.696 871.501 180.352C866.13 177.008 862.026 172.245 859.189 166.064C856.351 159.883 854.933 152.688 854.933 144.48C854.933 136.069 856.351 128.773 859.189 122.592C862.026 116.309 866.079 111.496 871.349 108.152C876.618 104.707 883.053 102.984 890.653 102.984C898.759 102.984 905.447 104.808 910.717 108.456C915.986 112.104 919.786 117.171 922.117 123.656C924.549 130.141 925.461 137.64 924.853 146.152H866.941C867.042 152.739 868.055 158.261 869.981 162.72C872.007 167.077 874.794 170.371 878.341 172.6C881.989 174.728 886.245 175.792 891.109 175.792C896.783 175.792 901.445 174.475 905.093 171.84C908.741 169.205 911.173 165.709 912.389 161.352H924.245C923.333 166.419 921.306 170.776 918.165 174.424C915.125 177.971 911.274 180.707 906.613 182.632C901.951 184.456 896.783 185.368 891.109 185.368ZM867.093 139.16L865.725 137.336H914.213L912.845 139.464C912.946 133.08 912.085 127.963 910.261 124.112C908.437 120.16 905.802 117.272 902.357 115.448C899.013 113.523 895.111 112.56 890.653 112.56C885.991 112.56 881.938 113.573 878.493 115.6C875.047 117.627 872.311 120.616 870.285 124.568C868.359 128.419 867.295 133.283 867.093 139.16Z" fill="white"/>
<path d="M765.131 184L744.459 104.2H756.771L768.627 151.472L773.491 173.056H774.403L778.811 151.472L789.603 104.2H804.499L815.899 151.472L820.611 173.208H821.371L826.083 151.472L837.787 104.2H849.643L829.123 184H812.859L801.763 139.16L797.203 118.032H796.443L792.187 139.16L781.851 184H765.131Z" fill="white"/>
<path d="M706.515 185.52C701.549 185.52 697.091 184.912 693.139 183.696C689.187 182.48 685.792 180.808 682.955 178.68C680.117 176.451 677.939 173.816 676.419 170.776C674.899 167.635 674.088 164.189 673.987 160.44H686.147C686.349 163.987 687.312 166.976 689.035 169.408C690.859 171.739 693.291 173.461 696.331 174.576C699.472 175.691 702.968 176.248 706.819 176.248C713 176.248 717.712 175.083 720.955 172.752C724.299 170.421 725.971 167.128 725.971 162.872C725.971 159.629 725.261 157.147 723.843 155.424C722.424 153.6 720.245 152.181 717.307 151.168C714.368 150.155 710.517 149.293 705.755 148.584C699.168 147.672 693.696 146.405 689.339 144.784C684.981 143.163 681.688 140.883 679.459 137.944C677.229 134.904 676.115 130.952 676.115 126.088C676.115 121.427 677.381 117.373 679.915 113.928C682.448 110.381 685.995 107.645 690.555 105.72C695.115 103.693 700.435 102.68 706.515 102.68C712.696 102.68 718.016 103.693 722.475 105.72C726.933 107.645 730.429 110.432 732.963 114.08C735.496 117.627 736.813 121.883 736.915 126.848H724.907C724.704 123.301 723.792 120.464 722.171 118.336C720.651 116.107 718.523 114.536 715.787 113.624C713.152 112.611 710.011 112.104 706.363 112.104C700.688 112.104 696.28 113.269 693.139 115.6C689.997 117.931 688.427 121.021 688.427 124.872C688.427 127.811 689.187 130.192 690.707 132.016C692.227 133.739 694.557 135.107 697.699 136.12C700.941 137.032 704.995 137.843 709.859 138.552C715.837 139.363 720.955 140.579 725.211 142.2C729.568 143.821 732.861 146.203 735.091 149.344C737.32 152.384 738.435 156.539 738.435 161.808C738.435 166.875 737.117 171.181 734.483 174.728C731.848 178.173 728.099 180.859 723.235 182.784C718.472 184.608 712.899 185.52 706.515 185.52Z" fill="white"/>
<path d="M590.166 184V104.2H601.87L602.326 120.768H603.238C605.67 114.891 609.419 110.483 614.486 107.544C619.553 104.504 625.075 102.984 631.054 102.984C635.209 102.984 639.009 103.592 642.454 104.808C646.001 106.024 649.041 108 651.574 110.736C654.209 113.472 656.235 117.019 657.654 121.376C659.073 125.632 659.782 130.851 659.782 137.032V184H647.47V139.464C647.47 133.485 646.71 128.571 645.19 124.72C643.771 120.869 641.542 118.032 638.502 116.208C635.563 114.283 631.763 113.32 627.102 113.32C622.137 113.32 617.779 114.536 614.03 116.968C610.281 119.4 607.393 122.693 605.366 126.848C603.339 130.901 602.326 135.563 602.326 140.832V184H590.166Z" fill="white"/>
<path d="M528.533 185.216C520.73 185.216 514.397 183.189 509.533 179.136C504.77 174.981 502.389 169.509 502.389 162.72C502.389 158.869 503.149 155.424 504.669 152.384C506.189 149.243 508.367 146.608 511.205 144.48C514.042 142.251 517.487 140.629 521.541 139.616C525.594 138.501 530.154 137.944 535.221 137.944H556.045V146.152H537.045C532.282 146.152 528.229 146.76 524.885 147.976C521.642 149.192 519.159 151.016 517.437 153.448C515.714 155.779 514.853 158.616 514.853 161.96C514.853 166.317 516.373 169.813 519.413 172.448C522.554 174.981 526.709 176.248 531.877 176.248C537.349 176.248 542.061 175.032 546.013 172.6C550.066 170.067 552.903 166.571 554.525 162.112V129.432C554.525 125.581 553.815 122.44 552.397 120.008C551.079 117.475 549.053 115.651 546.317 114.536C543.682 113.32 540.389 112.712 536.437 112.712C532.586 112.712 529.242 113.32 526.405 114.536C523.567 115.752 521.338 117.424 519.717 119.552C518.095 121.579 517.183 124.011 516.981 126.848H504.821C504.922 122.085 506.341 117.88 509.077 114.232C511.813 110.584 515.562 107.747 520.325 105.72C525.189 103.693 530.762 102.68 537.045 102.68C541.909 102.68 546.165 103.288 549.813 104.504C553.562 105.72 556.653 107.493 559.085 109.824C561.618 112.053 563.543 114.84 564.861 118.184C566.178 121.528 566.837 125.429 566.837 129.888V165.912C566.837 168.952 567.343 171.131 568.357 172.448C569.37 173.765 570.941 174.424 573.069 174.424H577.325V184H569.725C565.469 184 562.226 182.936 559.997 180.808C557.767 178.68 556.399 175.589 555.893 171.536H555.285C553.055 175.792 549.509 179.136 544.645 181.568C539.882 184 534.511 185.216 528.533 185.216Z" fill="white"/>
<path d="M442.823 183.808V122.248H430.359V101.728H442.823V94.736C442.823 87.744 445.001 82.3733 449.359 78.624C453.817 74.8747 460.1 73 468.207 73H485.383V89.872H475.047C472.919 89.872 471.297 90.328 470.183 91.24C469.068 92.152 468.511 93.7733 468.511 96.104V101.728H484.167V122.248H468.511V183.808H442.823Z" fill="white"/>
<path d="M370.522 184.872C362.517 184.872 356.133 182.795 351.37 178.64C346.709 174.485 344.378 168.963 344.378 162.072C344.378 157.816 345.189 154.067 346.81 150.824C348.431 147.48 350.711 144.693 353.65 142.464C356.69 140.133 360.338 138.411 364.594 137.296C368.85 136.181 373.613 135.624 378.882 135.624H396.362V150.52H384.202C381.162 150.52 378.629 150.925 376.602 151.736C374.575 152.445 373.005 153.509 371.89 154.928C370.877 156.245 370.37 157.816 370.37 159.64C370.37 162.173 371.282 164.149 373.106 165.568C375.031 166.987 377.514 167.696 380.554 167.696C384.303 167.696 387.394 166.784 389.826 164.96C392.359 163.136 393.778 160.552 394.082 157.208V129.544C394.082 127.112 393.575 125.187 392.562 123.768C391.65 122.349 390.333 121.387 388.61 120.88C386.989 120.272 385.165 119.968 383.138 119.968C380.706 119.968 378.629 120.373 376.906 121.184C375.285 121.893 373.967 122.907 372.954 124.224C372.042 125.541 371.586 127.112 371.586 128.936H346.506C346.506 123.261 348.077 118.245 351.218 113.888C354.359 109.531 358.767 106.187 364.442 103.856C370.218 101.424 376.957 100.208 384.658 100.208C390.535 100.208 395.653 100.917 400.01 102.336C404.367 103.653 408.015 105.629 410.954 108.264C413.893 110.797 416.071 113.989 417.49 117.84C419.01 121.589 419.77 125.896 419.77 130.76V160.856C419.77 162.579 420.074 163.845 420.682 164.656C421.391 165.365 422.354 165.72 423.57 165.72H427.066V183.808H414.298C409.535 183.808 405.634 182.896 402.594 181.072C399.655 179.147 397.629 176.461 396.514 173.016H395.602C393.677 176.563 390.383 179.451 385.722 181.68C381.061 183.808 375.994 184.872 370.522 184.872Z" fill="white"/>
<path d="M298.211 185.328C289.496 185.328 282.048 183.605 275.867 180.16C269.787 176.613 265.125 171.699 261.883 165.416C258.64 159.133 257.019 151.787 257.019 143.376C257.019 134.56 258.64 126.909 261.883 120.424C265.227 113.939 269.939 108.973 276.019 105.528C282.099 101.981 289.192 100.208 297.299 100.208C306.925 100.208 314.829 102.336 321.011 106.592C327.192 110.747 331.6 116.472 334.235 123.768C336.971 131.064 337.883 139.373 336.971 148.696H282.251C282.149 152.445 282.757 155.637 284.075 158.272C285.493 160.805 287.368 162.781 289.699 164.2C292.131 165.517 294.968 166.176 298.211 166.176C302.061 166.176 305.101 165.467 307.331 164.048C309.661 162.629 311.232 160.755 312.043 158.424H336.211C335.501 163.896 333.424 168.659 329.979 172.712C326.635 176.664 322.227 179.755 316.755 181.984C311.283 184.213 305.101 185.328 298.211 185.328ZM282.251 135.32L280.123 133.04H314.019L311.739 135.32C311.941 131.773 311.435 128.835 310.219 126.504C309.104 124.173 307.432 122.4 305.203 121.184C302.973 119.968 300.339 119.36 297.299 119.36C294.157 119.36 291.472 120.019 289.243 121.336C287.013 122.552 285.291 124.376 284.075 126.808C282.859 129.24 282.251 132.077 282.251 135.32Z" fill="white"/>
<path d="M237.037 183.808C232.072 183.808 228.018 183.048 224.877 181.528C221.837 179.907 219.608 177.627 218.189 174.688C216.872 171.648 216.213 167.949 216.213 163.592V73H241.901V158.424C241.901 160.552 242.408 161.971 243.421 162.68C244.434 163.389 245.701 163.744 247.221 163.744H252.085V183.808H237.037Z" fill="white"/>
<path d="M169.613 79.3506C149.581 62.2246 120.147 58.6517 96.0133 72.584C82.8185 80.2089 73.3566 91.8159 68.2863 105.02C81.6408 116.437 101.263 118.812 117.353 109.531L169.623 79.3606L169.613 79.3506ZM149.341 188.344C174.194 179.562 192 155.859 192 127.994C192 112.754 186.67 98.7621 177.767 87.7639C161.199 93.6223 149.331 109.421 149.331 127.994V188.344H149.341ZM65.0724 116.297C60.2516 142.206 71.8794 169.482 96.0133 183.414C109.208 191.039 124 193.424 137.963 191.208C141.177 173.933 133.422 155.759 117.343 146.467L65.0724 116.297Z" fill="white"/>
</svg>
