<svg width="93" height="92" viewBox="0 0 93 92" fill="none" xmlns="http://www.w3.org/2000/svg">
<rect x="0.5" width="92" height="92" rx="46" fill="black"/>
<path d="M21.6217 64.0368C21.609 66.6022 23.2938 68.9929 26.3656 70.7679C32.3991 74.247 42.2223 74.269 48.262 70.7662C50.8983 69.2277 52.4936 67.2196 52.8464 65.0379L59.13 68.6657C59.3036 68.7657 59.5197 68.7663 59.6955 68.6662C59.8702 68.5651 59.9785 68.3788 59.9791 68.177L59.9896 64.4895L70.4834 70.5479C70.6579 70.6484 70.8728 70.6493 71.0489 70.5479C71.2241 70.4473 71.3319 70.2604 71.3324 70.0587C71.3798 39.9006 71.3779 41.1315 71.3783 40.8757C71.3789 40.6728 71.2705 40.4854 71.0953 40.3843L56.7579 32.1123L52.9596 29.9192C53.4099 27.1157 51.7448 24.3302 48.3405 22.3545C46.9034 21.5189 45.2266 20.8731 43.361 20.4267C43.1045 20.2125 42.8185 20.0096 42.4966 19.8228C39.6924 18.2115 35.1491 18.2121 32.367 19.8245C32.054 20.0063 31.7744 20.2034 31.5241 20.4119C27.0088 21.4784 22.0159 24.3245 21.9015 28.8181C21.8882 28.8655 21.8715 28.9118 21.871 28.9635C21.6213 60.5785 21.6658 52.2138 21.635 63.8477L21.6217 64.0368ZM34.5443 27.1861C35.4791 27.4342 36.4732 27.5705 37.4741 27.5705C39.49 27.5705 42.1435 26.9622 43.6557 25.4954L43.6767 28.2216C43.6745 29.0635 43.0842 30.2995 41.9952 30.9324C39.5276 32.3663 35.4979 32.3652 33.0149 30.9313C31.8977 30.2868 31.298 29.0331 31.3002 28.1746L31.2797 25.5064C31.9439 26.1392 33.0564 26.7981 34.5443 27.1861ZM37.4733 26.424C35.8712 26.4235 34.0723 26.075 32.7034 25.17C32.7778 25.1215 32.8551 25.0732 32.9358 25.0261C35.404 23.5944 39.4408 23.5955 41.9233 25.0216C42.0186 25.0791 42.1085 25.1361 42.1942 25.1931C40.8415 26.0801 39.0472 26.4246 37.4733 26.424ZM30.1681 28.1774C30.1648 29.3769 30.947 31.0452 32.4488 31.9119C33.8474 32.7195 35.6809 33.1231 37.5122 33.1231C39.3441 33.1231 41.1743 32.719 42.5646 31.9108C44.0333 31.0573 44.8055 29.4101 44.8088 28.2189L44.7886 25.5813C45.8875 25.9508 46.8919 26.39 47.7717 26.8989C49.6702 28.0023 50.9785 29.3509 51.5693 30.8105C50.9012 32.4617 49.4006 33.7644 47.8513 34.6708C42.1632 37.9714 32.8795 37.972 27.1594 34.6714C25.5634 33.7436 24.069 32.4492 23.3638 30.7356C23.9422 29.3095 25.2225 27.9864 27.0787 26.9C27.9966 26.3701 29.0394 25.9399 30.1482 25.5722L30.1681 28.1774ZM55.7939 32.8631L70.2435 41.2062L70.2311 49.5177L52.9962 39.5741C52.9962 39.456 52.992 31.1321 52.992 31.2465L55.7939 32.8631ZM70.2108 63.1926L52.9561 53.2197C53.0069 48.9728 52.9804 45.1237 52.9924 40.8791L70.2292 50.8236L70.2108 63.1926ZM51.8483 35.2059C51.8483 37.2965 50.3968 39.2898 47.7601 40.8182C42.0754 44.1282 32.7982 44.1282 27.0781 40.8171C24.2236 39.172 22.9506 37.5607 22.9506 35.5923C22.9506 35.5873 22.9506 35.5829 22.9506 35.5779L22.9757 32.4247C23.6829 33.4886 24.8513 34.6391 26.5917 35.6509C32.6061 39.1209 42.3999 39.1433 48.4212 35.6492C49.7354 34.88 50.9788 33.87 51.8528 32.6238L51.8487 35.1853L51.8483 35.2059ZM22.924 38.8691C23.6913 39.8962 24.872 40.8525 26.5121 41.7971C32.5439 45.2895 42.3313 45.2884 48.3289 41.7971C49.8712 40.903 51.0548 39.8485 51.8431 38.6958L51.8412 39.8868C51.8412 39.8922 51.8451 39.8966 51.8452 39.9021L51.8294 49.24C51.0053 56.1308 35.8989 59.4788 27.019 54.3522C24.3978 52.8391 22.9354 50.8729 22.8563 48.7999L22.924 38.8691ZM59.7093 63.0202C59.622 62.9699 59.5241 62.9445 59.4263 62.9445C59.1108 62.9445 58.8611 63.2006 58.8603 63.5089L58.8498 67.1964L52.9368 63.7825L52.9525 54.5254L70.2089 64.4992L70.202 69.0781L59.7093 63.0202ZM47.7717 23.3335C50.5079 24.921 51.9478 26.9694 51.91 29.0888C51.106 27.9064 49.9028 26.8282 48.3394 25.9199C47.2957 25.3156 46.0953 24.8052 44.7794 24.3891L44.7696 23.0985C44.7665 22.7111 44.6674 22.264 44.5186 21.9167C45.712 22.2954 46.8015 22.7691 47.7717 23.3335ZM32.9358 20.8034C35.4022 19.3731 39.4379 19.3712 41.9305 20.8034C42.5968 21.1898 43.324 21.8466 43.5438 22.5915C43.7887 23.4388 43.4357 23.7925 43.081 24.4315C42.9066 24.3042 42.7146 24.1764 42.4966 24.0454C39.5092 22.329 34.5163 22.4351 31.8232 24.4036C30.9074 23.2811 31.0239 21.9143 32.9358 20.8034ZM27.0787 23.334C28.0781 22.7575 29.1781 22.2777 30.3627 21.9018C30.2046 22.2744 30.1239 22.6624 30.1239 23.0588C30.1239 23.193 30.1178 22.5707 30.1391 24.3777C28.8259 24.786 27.598 25.2932 26.5099 25.921C24.9855 26.8132 23.8108 27.8678 23.0224 29.021C22.9849 26.9176 24.3961 24.8937 27.0787 23.334ZM26.4529 55.3329C29.4799 57.0802 33.4477 57.9535 37.4111 57.9535C42.5118 57.9535 48.9929 56.3448 51.8242 52.2722L51.8208 54.3016L51.792 64.139C51.7809 66.2451 50.3249 68.2517 47.6926 69.7878C41.9858 73.0978 32.6727 73.0973 26.9316 69.7873C24.2269 68.2246 22.7433 66.1843 22.7521 64.0843C22.7723 61.1185 22.8138 55.0349 22.8337 52.1139C23.6375 53.3126 24.8516 54.4081 26.4529 55.3329Z" fill="white"/>
<path d="M57.3202 39.9271C57.4081 39.9774 57.5054 40.0028 57.6033 40.0028C57.7011 40.0028 57.7984 39.9774 57.8857 39.9271C58.061 39.8265 58.1687 39.6397 58.1693 39.4379L58.1737 36.7017C58.1743 36.4988 58.0659 36.3114 57.8907 36.2103L54.9279 34.5006C54.7521 34.4 54.537 34.4 54.3624 34.5006C54.1871 34.6012 54.0793 34.788 54.0788 34.9898L54.0744 37.7265C54.0738 37.9294 54.1822 38.1168 54.3574 38.2179L57.3202 39.9271ZM55.2092 35.9704L57.0411 37.0273L57.0389 38.4579L55.207 37.401L55.2092 35.9704Z" fill="white"/>
<path d="M62.8059 43.0945C63.1856 43.3118 63.6538 43.0376 63.655 42.6053L63.6594 39.8685C63.66 39.6657 63.5516 39.4783 63.3764 39.3771L60.4135 37.668C60.2378 37.5673 60.0227 37.5673 59.8481 37.668C59.6728 37.7686 59.565 37.9554 59.5645 38.1572L59.5601 40.8934C59.5595 41.0962 59.6679 41.2836 59.8431 41.3848L62.8059 43.0945ZM60.6949 39.1372L62.5268 40.1941L62.5246 41.6247L60.6927 40.5678L60.6949 39.1372Z" fill="white"/>
<path d="M68.2917 46.2613C68.3795 46.3116 68.4768 46.337 68.5747 46.337C68.8831 46.337 69.1398 46.0873 69.1407 45.7721L69.1451 43.0359C69.1457 42.833 69.0373 42.6456 68.8621 42.5445L65.8993 40.8348C65.7235 40.7342 65.5084 40.7342 65.3338 40.8348C65.1585 40.9354 65.0508 41.1222 65.0502 41.324L65.0458 44.0607C65.0452 44.2636 65.1536 44.451 65.3288 44.5521L68.2917 46.2613ZM66.1806 42.3046L68.0125 43.3615L68.0103 44.7921L66.1784 43.7352L66.1806 42.3046Z" fill="white"/>
<path d="M54.8073 59.4875C54.6316 59.3869 54.4165 59.3869 54.2419 59.4875C54.0666 59.5881 53.9588 59.7749 53.9583 59.9767L53.9539 62.7134C53.9533 62.9163 54.0616 63.1037 54.2369 63.2049L57.2003 64.914C57.3766 65.015 57.5898 65.015 57.7663 64.914C57.941 64.8129 58.0488 64.6266 58.0493 64.4243L58.0532 61.6875C58.0538 61.4852 57.9454 61.2978 57.7702 61.1966L54.8073 59.4875ZM56.9189 63.4448L55.0865 62.3879L55.0887 60.9567L56.9206 62.0136L56.9189 63.4448Z" fill="white"/>
</svg>
