<svg width="93" height="92" viewBox="0 0 93 92" fill="none" xmlns="http://www.w3.org/2000/svg">
<path d="M4.18009 74.52C4.18009 74.888 4.36409 75.072 4.54809 75.256L11.1721 79.12C11.5401 79.304 11.7241 79.304 12.0921 79.12L22.3961 73.232V85.376C22.3961 85.744 22.5801 85.928 22.7641 86.112C22.7641 86.112 22.2121 85.744 29.2041 89.976C29.5721 90.16 29.7561 90.16 30.1241 89.976L68.7641 67.712C69.1321 67.528 69.3161 66.976 69.1321 66.424C68.9481 66.056 68.3961 65.872 67.8441 66.056L30.6761 87.584V51.52C44.2921 43.608 73.7321 26.68 86.9801 18.952L87.1641 55.016L74.6521 62.192C74.2841 62.376 74.1001 62.928 74.2841 63.48C74.4681 63.848 75.0201 64.032 75.5721 63.848L88.4521 56.488C88.8201 56.304 89.0041 55.936 89.0041 55.752L88.8201 17.48C88.8201 17.296 88.6361 16.928 88.4521 16.744L81.8281 12.88C81.4601 12.696 81.2761 12.696 80.9081 12.88L70.6041 18.768V6.62399C70.6041 6.25599 70.4201 6.07199 70.2361 5.88799L63.7961 2.02399C63.4281 1.83999 63.0601 1.83999 62.6921 2.02399L4.54809 35.512C4.18009 35.696 3.99609 36.064 3.99609 36.248L4.18009 74.52ZM6.02009 73.968L5.83609 37.904L10.4361 40.664L10.6201 76.728L6.02009 73.968ZM22.2121 65.136L21.8441 65.32C21.2921 63.664 20.0041 62.928 18.3481 63.296V47.656C20.3721 46.184 21.8441 43.608 22.0281 41.216L59.3801 19.504C59.5641 20.24 60.1161 20.792 60.6681 21.16C61.4041 21.528 62.1401 21.712 62.8761 21.528V23.184L22.7641 46.552C22.3961 46.736 22.2121 47.104 22.2121 47.288V65.136ZM24.0521 48.944L28.6521 51.704L28.8361 87.768L24.2361 85.008L24.0521 48.944ZM81.4601 14.72L86.0601 17.48L29.7561 50.048L25.1561 47.288C25.3401 47.104 24.9721 47.288 81.4601 14.72ZM64.9001 22.08V20.24C64.9001 19.872 64.7161 19.688 64.3481 19.504C63.9801 19.32 63.7961 19.32 63.4281 19.504C62.6921 19.872 62.1401 20.056 61.5881 19.688C61.2201 19.504 61.0361 18.952 61.0361 18.032C61.0361 17.664 60.8521 17.48 60.4841 17.296C60.1161 17.112 59.9321 17.112 59.5641 17.296L20.5561 39.928C20.1881 40.112 20.0041 40.48 20.1881 40.664C20.1881 42.688 18.7161 45.264 16.8761 46.368C16.5081 46.552 16.3241 46.92 16.3241 47.104V64.584C16.3241 64.952 16.5081 65.136 16.8761 65.32C17.2441 65.504 17.4281 65.504 17.7961 65.32C18.5321 64.952 19.0841 64.768 19.6361 65.136C20.0041 65.32 20.3721 65.872 20.3721 66.792C20.3721 67.344 20.7401 67.712 21.2921 67.712C21.4761 67.712 21.6601 67.712 21.8441 67.528L22.3961 67.16V71.024L12.6441 76.728L12.4601 40.664L68.7641 8.09599V19.872L64.9001 22.08ZM63.2441 3.86399L67.8441 6.62399L11.5401 39.008L6.94009 36.248L63.2441 3.86399Z" fill="white"/>
<path d="M72.2602 63.664L70.4202 64.768C70.0522 64.952 69.8682 65.504 70.0522 66.056C70.2362 66.424 70.7882 66.608 71.3402 66.424L73.1802 65.32C73.5482 65.136 73.7322 64.584 73.5482 64.032C73.3642 63.48 72.6282 63.48 72.2602 63.664Z" fill="white"/>
<path d="M79.252 55.016C79.252 52.992 80.724 50.416 82.564 49.312C82.932 49.128 83.116 48.76 82.932 48.576V31.096C82.932 30.728 82.748 30.544 82.38 30.36C82.012 30.176 81.828 30.176 81.46 30.36C80.724 30.728 80.172 30.912 79.62 30.544C79.252 30.36 79.068 29.808 79.068 28.888C79.068 28.52 78.884 28.336 78.516 28.152C78.148 27.968 77.964 27.968 77.596 28.152L38.772 50.784C38.404 50.968 38.22 51.336 38.404 51.52C38.404 53.544 36.932 56.12 35.092 57.224C34.724 57.408 34.54 57.776 34.724 57.96V75.44C34.724 75.808 34.908 75.992 35.276 76.176C35.644 76.36 35.828 76.36 36.196 76.176C36.932 75.808 37.484 75.624 38.036 75.992C38.404 76.176 38.772 76.728 38.772 77.648C38.772 78.2 39.14 78.568 39.692 78.568C39.876 78.568 40.06 78.568 40.244 78.384L79.252 55.752C79.252 55.752 79.252 55.384 79.252 55.016ZM40.06 76.176C39.508 74.704 38.22 73.784 36.564 74.152V58.696C38.588 57.224 40.06 54.648 40.244 52.256L77.596 30.544C77.78 31.28 78.332 31.832 78.884 32.2C79.62 32.568 80.356 32.752 81.092 32.568V48.024C79.068 49.496 77.596 52.072 77.412 54.464L40.06 76.176Z" fill="white"/>
<path d="M72.0759 40.848C69.8679 42.136 68.2119 44.896 68.2119 47.288C68.2119 50.048 70.4199 51.336 72.9959 50.048C75.0199 48.76 76.6759 46 76.6759 43.608C76.6759 40.664 74.4679 39.56 72.0759 40.848ZM72.0759 48.576C70.7879 49.312 70.0519 48.944 70.0519 47.472C70.0519 45.632 71.3399 43.424 72.9959 42.504C74.2839 41.768 75.0199 42.136 75.0199 43.608C74.8359 45.264 73.5479 47.656 72.0759 48.576Z" fill="white"/>
<path d="M44.844 56.672C42.636 57.776 40.98 60.72 40.98 63.112C40.98 65.872 43.188 67.16 45.764 65.872C47.788 64.584 49.444 61.824 49.444 59.432C49.444 56.488 47.236 55.2 44.844 56.672ZM44.844 64.216C43.556 64.952 42.82 64.584 42.82 63.112C42.82 61.272 44.108 59.064 45.764 58.144C46.868 57.408 47.788 57.776 47.788 59.248C47.604 61.088 46.316 63.296 44.844 64.216Z" fill="white"/>
<path d="M58.4603 52.624C58.0923 52.808 57.9083 52.808 57.7243 52.808C57.5403 52.808 57.5403 52.44 57.5403 52.072C57.5403 50.968 58.4603 49.496 59.3803 48.944C59.7483 48.76 59.9323 48.76 60.1163 48.76C60.3003 48.76 60.3003 49.128 60.3003 49.496C60.3003 50.048 60.6683 50.416 61.2203 50.416C61.7723 50.416 62.1403 50.048 62.1403 49.496C62.1403 48.392 61.7723 47.656 61.0363 47.288C60.6683 47.104 60.3003 46.92 59.9323 47.104V45.816C59.9323 45.264 59.5643 44.896 59.0123 44.896C58.4603 44.896 58.0923 45.264 58.0923 45.816V47.84C56.8043 48.76 55.8843 50.6 55.8843 52.256C55.8843 54.464 57.7243 55.384 59.5643 54.28C59.9323 54.096 60.1163 54.096 60.3003 54.096C60.4843 54.096 60.4843 54.464 60.4843 54.832C60.4843 55.936 59.5643 57.408 58.6443 57.96C58.2763 58.144 58.0923 58.144 57.9083 58.144C57.7243 58.144 57.7243 57.776 57.7243 57.408C57.7243 56.856 57.3563 56.488 56.8043 56.488C56.2523 56.488 55.8843 56.856 55.8843 57.408C55.8843 59.064 56.8043 59.984 58.0923 59.984V61.272C58.0923 61.824 58.4603 62.192 59.0123 62.192C59.5643 62.192 59.9323 61.824 59.9323 61.272V59.248C61.2203 58.328 62.3243 56.488 62.1403 54.832C61.9563 52.44 60.3003 51.52 58.4603 52.624Z" fill="white"/>
</svg>
