<svg width="93" height="92" viewBox="0 0 93 92" fill="none" xmlns="http://www.w3.org/2000/svg">
<path d="M7.67602 44.16C7.30802 44.344 7.12402 44.712 7.12402 44.896V64.032C7.12402 64.4 7.30802 64.584 7.49202 64.768L13.748 68.448C14.116 68.632 14.668 68.632 15.036 68.08C15.22 67.712 15.22 67.16 14.668 66.792L8.78002 63.48V46.368L49.996 70.288C49.996 70.472 49.996 88.504 49.996 87.4L26.076 73.416C25.708 73.232 25.156 73.232 24.788 73.784C24.604 74.152 24.604 74.704 25.156 75.072C27.916 76.728 50.732 89.976 50.548 89.792C50.916 89.976 51.1 89.976 51.468 89.792L85.14 70.288C85.508 70.104 85.692 69.736 85.692 69.552V50.416C85.692 50.232 85.508 49.864 85.324 49.68C85.14 49.68 62.876 36.616 62.692 36.616C62.508 36.248 62.508 35.696 62.324 35.328C61.772 34.04 61.036 32.936 60.116 32.016C58.828 30.728 58.092 29.072 57.724 27.416L56.988 22.448C57.356 22.08 57.54 21.528 57.54 20.976V13.616C57.54 12.696 56.988 11.776 55.884 11.04C53.86 9.93603 50.916 9.93603 48.892 11.04C47.788 11.592 47.236 12.512 47.236 13.616C47.236 14.168 47.236 21.16 47.236 20.976C47.236 21.528 47.42 22.08 47.788 22.448C47.604 23.552 47.604 23.552 47.42 25.208C47.052 24.656 46.684 24.288 46.316 23.92C45.028 22.632 44.292 20.976 43.924 19.32L43.188 14.352C43.556 13.984 43.74 13.432 43.74 12.88V5.52003C43.74 4.60003 43.188 3.68003 42.084 2.94403C40.06 1.84003 37.116 1.84003 35.092 2.94403C33.988 3.49603 33.436 4.41603 33.436 5.52003C33.436 6.07203 33.436 13.064 33.436 12.88C33.436 13.432 33.62 13.984 33.988 14.352L33.62 16.928C33.436 18.584 32.884 21.344 31.964 22.632L30.86 23.92C28.836 25.944 27.916 28.52 27.916 31.096C27.916 31.28 27.916 33.304 27.916 33.12C26.26 33.488 6.38802 44.896 7.67602 44.16ZM22.212 52.072L27.18 49.312V49.68C27.18 51.52 28.468 53.36 30.676 54.464C33.252 55.936 37.484 56.672 41.348 55.936V57.776C41.348 59.432 42.452 61.456 45.212 62.928C50.916 65.872 58.828 64.584 61.772 61.088C62.692 59.984 63.06 58.88 63.06 57.96V53.176L70.788 57.776C43.924 73.232 53.124 67.896 51.1 69.184C19.268 50.416 22.396 52.256 22.212 52.072ZM31.412 52.808C29.94 51.888 29.02 50.784 29.02 49.496C29.02 49.312 29.02 45.816 29.02 46C29.388 46.368 29.94 46.736 30.676 47.104C33.252 48.576 37.116 49.312 41.348 48.576V53.912C37.668 54.832 33.804 54.28 31.412 52.808ZM46.132 61.456C43.74 60.352 43.004 58.88 43.004 57.776C43.004 57.592 43.004 54.096 43.004 54.28C47.236 58.144 56.804 58.144 61.036 54.28V57.776C61.036 58.512 60.852 59.064 60.3 59.616C57.908 62.928 50.364 63.48 46.132 61.456ZM61.22 50.6C61.22 56.672 43.188 57.04 43.188 50.6C43.188 50.232 43.188 43.608 43.188 43.792C47.604 47.656 56.988 47.656 61.22 43.792V50.6ZM41.164 39.192V46.736C37.852 47.472 33.988 46.92 31.412 45.448C29.94 44.528 29.02 43.424 29.02 42.136V35.328C29.388 35.696 29.94 36.064 30.492 36.432C33.436 38.088 37.484 38.64 41.348 37.904C41.348 38.456 41.164 39.192 41.164 39.192ZM52.204 87.584V70.472C95.812 45.264 80.724 53.912 84.036 52.072V69.184L52.204 87.584ZM82.932 50.6L72.628 56.488L63.06 50.968V50.6V39.376C63.06 39.192 63.06 39.192 63.06 39.008L82.932 50.6ZM58.644 33.304C59.38 34.04 60.116 34.96 60.484 36.064C61.036 37.536 61.036 38.64 61.036 40.112C60.852 46.552 43.004 46.184 43.004 40.112V39.376C43.004 38.272 43.372 36.984 43.924 35.696C44.476 34.776 45.028 33.856 45.58 33.304C46.132 32.568 46.868 32.384 47.972 29.44C48.708 26.496 48.892 24.104 49.076 23.552C49.996 23.92 51.1 24.288 52.204 24.288C53.308 24.288 54.412 24.104 55.332 23.552L55.884 27.6C56.068 29.808 57.172 31.832 58.644 33.304ZM55.516 16.008V20.792C55.516 21.16 55.148 21.528 54.78 21.712C53.308 22.448 51.1 22.448 49.628 21.712C49.076 21.344 48.892 20.976 48.892 20.792V16.008C50.548 17.112 53.492 17.112 55.516 16.008ZM49.444 12.512C50.916 11.776 53.124 11.776 54.596 12.512C55.7 13.064 55.7 13.8 54.596 14.352C53.124 15.088 50.916 15.088 49.444 14.352C48.524 13.8 48.524 13.064 49.444 12.512ZM34.54 12.696V7.91203C36.564 9.01603 39.14 8.83203 41.164 7.91203C41.164 7.91203 41.164 7.91203 41.348 7.91203V12.696C41.348 14.536 34.54 14.72 34.54 12.696ZM35.46 4.23203C36.932 3.49603 39.14 3.49603 40.612 4.23203C41.716 4.78403 41.716 5.52003 40.612 6.07203C39.14 6.80803 36.932 6.80803 35.46 6.07203C34.356 5.70403 34.356 4.96803 35.46 4.23203ZM28.836 31.096C28.836 28.888 29.756 26.68 31.412 25.024L32.516 23.736C33.804 22.08 34.172 19.32 34.54 17.112L34.724 15.456C36.38 16.192 38.956 16.376 40.796 15.456L41.348 19.504C41.716 21.712 42.636 23.552 44.292 25.208C45.028 25.944 45.764 26.864 46.132 27.968C46.132 28.152 45.948 28.52 45.948 29.072C45.028 31.464 44.476 31.464 43.924 32.2C43.188 32.936 42.452 33.856 41.9 35.144C41.716 35.512 41.532 36.064 41.348 36.432C37.852 37.352 33.62 36.8 31.044 35.328C29.388 34.408 28.652 33.304 28.468 32.016V31.096H28.836ZM26.996 42.32V47.104L20.188 50.968L9.88402 44.896L26.996 34.96V42.32Z" fill="white"/>
<path d="M18.7158 69.184C18.3478 69 17.7958 69 17.4278 69.552C17.0598 69.92 17.2438 70.656 17.7958 70.84L21.4758 73.048C21.8438 73.232 22.3958 73.232 22.7638 72.68C22.9478 72.312 22.9478 71.76 22.3958 71.392L18.7158 69.184Z" fill="white"/>
<path d="M72.9962 60.352L65.4522 64.768C64.3482 65.504 63.4282 66.976 63.4282 68.264C63.4282 69.92 64.9002 70.84 66.3722 69.92L73.9162 65.504C75.0202 64.768 75.9402 63.296 75.9402 62.008C75.9402 60.352 74.4682 59.616 72.9962 60.352ZM72.9962 64.032L65.4522 68.448C65.4522 68.448 65.2682 68.448 65.2682 68.632V68.448C65.2682 67.712 65.8202 66.792 66.3722 66.608L73.9162 62.192C73.9162 62.192 74.1002 62.192 74.1002 62.008V62.192C74.1002 62.744 73.5482 63.664 72.9962 64.032Z" fill="white"/>
</svg>
