<svg width="93" height="92" viewBox="0 0 93 92" fill="none" xmlns="http://www.w3.org/2000/svg">
<path d="M2.70793 66.792C2.70793 67.16 2.89193 67.344 3.07593 67.528L35.0919 86.112C35.4599 86.296 35.6439 86.296 36.0119 86.112L42.2679 82.432V86.112C42.2679 86.48 42.4519 86.664 42.6359 86.848C42.6359 86.848 42.0839 86.48 47.9719 89.976C48.3399 90.16 48.5239 90.16 48.8919 89.976L89.7399 66.424C90.1079 66.24 90.2919 65.872 90.2919 65.688V39.008C90.2919 38.824 89.9239 38.272 89.9239 38.272L84.7719 35.144C84.4039 34.96 84.2199 34.96 83.8519 35.144L73.3639 41.216V21.528C73.3639 21.16 73.1799 20.976 72.9959 20.792L52.9399 9.20003C52.5719 9.01603 52.0199 9.01603 51.6519 9.56803C51.2839 10.12 51.6519 10.488 52.0199 10.672L70.4199 21.344L57.9079 28.52L27.7319 11.04L40.2439 3.86403L44.1079 6.07203C44.4759 6.25603 45.0279 6.25603 45.3959 5.70403C45.5799 5.33603 45.5799 4.78403 45.0279 4.41603L40.6119 1.84003C40.2439 1.65603 40.0599 1.65603 39.6919 1.84003C26.2599 9.75203 16.5079 15.456 3.07593 23.184C2.70793 23.368 2.70793 23.736 2.52393 23.92L2.70793 66.792ZM17.7959 16.744L47.9719 34.224L35.4599 41.4L5.28393 23.92L17.7959 16.744ZM56.9879 31.28V50.416L50.7319 54.096V34.96C50.9159 34.776 57.5399 30.912 56.9879 31.28ZM58.8279 30.176L71.3399 23V42.136L58.8279 49.312V30.176ZM4.36393 25.576C11.5399 29.624 27.3639 38.824 34.5399 43.056L34.7239 83.72L4.54793 66.24L4.36393 25.576ZM36.5639 83.72L36.3799 43.056L48.8919 35.88V55.016C48.7079 55.2 42.6359 58.696 42.8199 58.512C42.4519 58.696 42.4519 59.064 42.4519 59.248V80.224L36.5639 83.72ZM44.2919 61.088L47.6039 63.112V87.768L44.2919 85.744V61.088ZM49.6279 87.584V62.928C58.2759 57.96 79.0679 45.816 88.6359 40.48V65.136L49.6279 87.584ZM84.2199 36.984L87.7159 39.008L48.7079 61.456L45.2119 59.432C87.8999 34.776 83.8519 37.168 84.2199 36.984ZM56.0679 29.624L49.8119 33.304L19.6359 15.64C19.8199 15.456 26.2599 11.776 25.8919 11.96L56.0679 29.624Z" fill="white"/>
<path d="M47.6041 6.07202C47.2361 5.88802 46.6841 5.88802 46.3161 6.44002C46.1321 6.80802 46.1321 7.36002 46.6841 7.72802L49.4441 9.20002C49.8121 9.38402 50.3641 9.38402 50.7321 8.83202C50.9161 8.46402 50.9161 7.91202 50.3641 7.54402L47.6041 6.07202Z" fill="white"/>
<path d="M85.8759 47.84C85.5079 47.656 85.3239 47.656 84.9559 47.84C84.5879 48.024 84.2199 48.208 84.0359 48.024C83.8519 47.84 83.6679 47.656 83.6679 47.104C83.6679 46.736 83.4839 46.552 83.1159 46.368C82.7479 46.184 82.5639 46.184 82.1959 46.368L54.7799 62.192C54.4119 62.376 54.2279 62.744 54.4119 62.928C54.4119 64.216 53.4919 66.056 52.2039 66.608C51.8359 66.792 51.6519 67.16 51.8359 67.344V79.488C51.8359 79.856 52.0199 80.04 52.3879 80.224C52.7559 80.408 52.9399 80.408 53.3079 80.224C53.6759 80.04 54.0439 79.856 54.2279 80.04C54.4119 80.224 54.5959 80.408 54.5959 80.96C54.5959 81.328 54.7799 81.512 55.1479 81.696C55.5159 81.88 55.6999 81.88 56.0679 81.696L83.2999 66.056C83.6679 65.872 83.8519 65.504 83.6679 65.32C83.6679 64.032 84.5879 62.192 85.8759 61.64C86.2439 61.456 86.4279 61.088 86.2439 60.904V48.76C86.2439 48.208 86.0599 47.84 85.8759 47.84ZM81.8279 64.768L56.0679 79.672C55.6999 78.752 54.7799 78.2 53.6759 78.384V67.896C54.9639 66.976 56.0679 65.136 56.2519 63.48L82.0119 48.576C82.3799 49.496 83.2999 50.048 84.4039 49.864V60.352C83.1159 61.272 82.0119 63.112 81.8279 64.768Z" fill="white"/>
<path d="M78.1477 55.2C76.4917 56.12 75.3877 58.144 75.3877 59.984C75.3877 62.192 77.2277 63.112 79.0677 62.008C80.5397 61.088 81.8277 59.064 81.8277 57.224C81.8277 55.016 79.9877 54.096 78.1477 55.2ZM78.1477 60.536C77.5957 60.904 77.2277 60.72 77.2277 59.984C77.2277 58.88 78.1477 57.408 79.0677 56.856C79.8037 56.488 79.9877 56.672 79.9877 57.408C79.9877 58.328 79.0677 59.8 78.1477 60.536Z" fill="white"/>
<path d="M59.012 66.056C57.356 66.976 56.252 69 56.252 70.84C56.252 73.048 58.092 73.968 59.932 72.864C61.404 71.944 62.692 69.92 62.692 68.08C62.692 66.056 60.852 65.136 59.012 66.056ZM59.012 71.392C58.46 71.76 58.092 71.576 58.092 70.84C58.092 69.736 59.012 68.264 59.932 67.712C60.668 67.344 60.852 67.528 60.852 68.264C60.852 69.368 60.116 70.84 59.012 71.392Z" fill="white"/>
<path d="M70.7881 63.112C70.2361 62.744 69.3161 62.744 68.5801 63.296C68.3961 63.48 68.2121 63.48 68.2121 63.48C68.2121 63.48 68.2121 63.296 68.2121 63.112C68.2121 62.376 68.7641 61.272 69.5001 60.904C69.6841 60.72 69.8681 60.72 69.8681 60.72C69.8681 60.72 69.8681 60.904 69.8681 61.088C69.8681 61.64 70.2361 62.008 70.7881 62.008C71.3401 62.008 71.7081 61.64 71.7081 61.088C71.7081 60.168 71.3401 59.432 70.7881 59.064C70.6041 58.88 70.2361 58.88 70.0521 58.88V58.144C70.0521 57.592 69.6841 57.224 69.1321 57.224C68.5801 57.224 68.2121 57.592 68.2121 58.144V59.616C67.1081 60.536 66.3721 61.824 66.3721 63.112C66.3721 64.032 66.7401 64.768 67.2921 65.136C67.8441 65.504 68.7641 65.504 69.5001 64.952C69.6841 64.768 69.8681 64.768 69.8681 64.768C69.8681 64.768 69.8681 64.952 69.8681 65.136C69.8681 65.872 69.3161 66.976 68.5801 67.344C68.3961 67.528 68.2121 67.528 68.2121 67.528C68.2121 67.528 68.2121 67.344 68.2121 67.16C68.2121 66.608 67.8441 66.24 67.2921 66.24C66.7401 66.24 66.3721 66.608 66.3721 67.16C66.3721 68.08 66.7401 68.816 67.2921 69.184C67.4761 69.368 67.8441 69.368 68.0281 69.368V70.104C68.0281 70.656 68.3961 71.024 68.9481 71.024C69.5001 71.024 69.8681 70.656 69.8681 70.104V68.632C70.9721 67.712 71.7081 66.424 71.7081 65.136C71.7081 64.216 71.3401 63.48 70.7881 63.112Z" fill="white"/>
<path d="M8.77986 57.96C8.22786 57.96 7.85986 58.512 7.85986 58.88V64.216C7.85986 64.768 8.22786 65.136 8.77986 65.136C9.33186 65.136 9.69986 64.768 9.69986 64.216V58.88C9.69986 58.512 9.14786 57.96 8.77986 57.96Z" fill="white"/>
<path d="M12.8277 60.3521C12.2757 60.3521 11.9077 60.7201 11.9077 61.2721V66.6081C11.9077 67.1601 12.2757 67.5281 12.8277 67.5281C13.3797 67.5281 13.7477 67.1601 13.7477 66.6081V61.2721C13.7477 60.7201 13.1957 60.3521 12.8277 60.3521Z" fill="white"/>
<path d="M17.7961 63.664C17.7961 63.112 17.4281 62.744 16.8761 62.744C16.3241 62.744 15.9561 63.112 15.9561 63.664V69C15.9561 69.552 16.3241 69.92 16.8761 69.92C17.4281 69.92 17.7961 69.552 17.7961 69V63.664Z" fill="white"/>
</svg>
