<svg width="93" height="92" viewBox="0 0 93 92" fill="none" xmlns="http://www.w3.org/2000/svg">
<path d="M10.9879 57.96L25.8919 66.608C26.2599 66.792 26.8119 66.792 27.1799 66.24C27.3639 65.872 27.3639 65.32 26.8119 64.952L11.9079 56.304C7.67587 53.912 4.17987 48.024 4.17987 43.056C4.17987 40.848 4.91587 39.376 6.20387 38.64C7.67587 37.904 9.69987 38.456 11.1719 39.192L50.9159 62.192C55.1479 64.584 58.6439 70.656 58.6439 75.44C58.6439 79.856 55.6999 81.696 51.8359 79.304L34.9079 69.552C34.5399 69.368 33.9879 69.368 33.6199 69.92C33.2519 70.472 33.4359 70.84 33.9879 71.208L50.9159 80.96C52.9399 82.248 55.5159 82.8 57.7239 81.512C60.8519 79.672 46.8679 87.768 88.2679 63.848C90.1079 62.744 91.0279 60.536 91.0279 57.776C91.0279 52.256 87.1639 45.632 82.3799 42.872L66.0039 33.304V20.792C66.0039 20.608 65.8199 20.056 65.6359 20.056L48.1559 9.936C47.7879 9.752 47.6039 9.752 47.2359 9.936C46.1319 10.488 28.4679 20.792 28.6519 20.608C28.2839 20.792 28.2839 21.16 28.0999 21.344C28.0999 21.528 28.0999 23.92 28.0999 23.736C20.1879 28.336 13.3799 32.2 5.65187 36.8C3.81187 37.904 2.70787 39.928 2.70787 42.872C2.33987 48.576 6.20387 55.2 10.9879 57.96ZM35.2759 18.768L50.9159 27.784L46.1319 30.544L30.4919 21.528L35.2759 18.768ZM40.7959 15.64L56.4359 24.656L52.7559 26.68L37.1159 17.664L40.7959 15.64ZM57.1719 30.176L53.4919 32.2V28.336L57.1719 26.312V30.176ZM47.0519 32.2L51.8359 29.44V33.856C51.8359 34.224 52.0199 34.408 52.3879 34.592C52.7559 34.776 52.9399 34.776 53.3079 34.592L58.8279 31.464C59.1959 31.28 59.3799 30.912 59.3799 30.728V25.208L64.1639 22.448C64.1639 24.472 64.1639 15.272 64.1639 41.768L47.0519 51.52C47.0519 46.552 47.0519 34.592 47.0519 32.2ZM29.5719 42.504C29.5719 16.192 29.5719 25.208 29.5719 23.184L45.2119 32.2V51.52C45.0279 51.336 28.6519 41.768 29.5719 42.504ZM47.2359 11.776L62.8759 20.792L58.0919 23.552L42.4519 14.536L47.2359 11.776ZM27.7319 26.128C27.7319 26.312 27.7319 44.16 27.7319 43.056C27.7319 43.424 27.9159 43.608 28.0999 43.792C29.9399 44.896 21.6599 40.112 45.5799 53.912C45.9479 54.096 46.1319 54.096 46.4999 53.912C53.3079 50.048 58.0919 47.288 65.0839 43.24C65.4519 43.056 65.6359 42.688 65.6359 42.504C65.6359 42.32 65.6359 35.328 65.6359 35.696L81.0919 44.712C85.3239 47.104 88.8199 53.176 88.8199 57.96C88.8199 60.168 88.0839 61.64 86.9799 62.376L59.9319 78.016C60.1159 77.464 60.2999 76.36 60.2999 75.624C60.2999 70.104 56.4359 63.48 51.6519 60.72L11.9079 37.536C11.1719 37.168 10.0679 36.616 9.51587 36.616L27.7319 26.128Z" fill="white"/>
<path d="M28.6521 68.264L31.0441 69.552C31.2281 69.552 31.4121 69.736 31.4121 69.736C31.7801 69.736 31.9641 69.552 32.1481 69.184C32.3321 68.816 32.3321 68.264 31.7801 67.896L29.3881 66.608C29.0201 66.424 28.4681 66.424 28.1001 66.976C28.1001 67.344 28.2841 67.896 28.6521 68.264Z" fill="white"/>
<path d="M7.30811 45.816C7.30811 48.576 9.14811 51.704 11.5401 53.176C14.3001 54.832 16.6921 53.36 16.6921 50.232C16.6921 47.472 14.8521 44.344 12.4601 42.872C9.70011 41.4 7.30811 42.872 7.30811 45.816ZM14.8521 50.232C14.8521 51.888 13.9321 52.44 12.4601 51.52C10.6201 50.416 9.14811 47.84 9.14811 45.816C9.14811 44.16 10.0681 43.608 11.5401 44.528C13.1961 45.632 14.8521 48.208 14.8521 50.232Z" fill="white"/>
<path d="M29.572 57.776C29.572 55.016 27.732 51.888 25.34 50.416C22.58 48.944 20.188 50.232 20.188 53.36C20.188 56.12 22.028 59.248 24.42 60.72C27.18 62.192 29.572 60.72 29.572 57.776ZM25.34 59.064C23.5 57.96 22.028 55.384 22.028 53.36C22.028 51.704 22.948 51.152 24.42 52.072C26.26 53.176 27.732 55.752 27.732 57.776C27.732 59.432 26.812 59.984 25.34 59.064Z" fill="white"/>
<path d="M37.2999 68.08C40.0599 69.736 42.4519 68.264 42.4519 65.136C42.4519 62.376 40.6119 59.248 38.2199 57.776C35.4599 56.12 33.0679 57.592 33.0679 60.72C33.0679 63.48 34.9079 66.792 37.2999 68.08ZM37.2999 59.432C39.1399 60.536 40.6119 63.112 40.6119 65.136C40.6119 66.792 39.6919 67.344 38.2199 66.424C36.3799 65.32 34.9079 62.744 34.9079 60.72C34.9079 59.064 35.8279 58.696 37.2999 59.432Z" fill="white"/>
<path d="M55.3318 72.68C55.3318 69.92 53.4918 66.792 51.0998 65.32C48.3398 63.848 45.9478 65.136 45.9478 68.264C45.9478 71.024 47.7878 74.152 50.1798 75.624C52.9398 77.096 55.3318 75.624 55.3318 72.68ZM47.7878 68.264C47.7878 66.608 48.7078 66.056 50.1798 66.976C52.0198 68.08 53.4918 70.656 53.4918 72.68C53.4918 74.336 52.5718 74.888 51.0998 73.968C49.2598 72.864 47.7878 70.288 47.7878 68.264Z" fill="white"/>
</svg>
