<svg width="93" height="92" viewBox="0 0 93 92" fill="none" xmlns="http://www.w3.org/2000/svg">
<path d="M76.6758 75.992L72.9958 78.2C72.6278 78.384 72.4438 78.936 72.6278 79.488C72.8118 79.856 73.1798 80.04 73.3638 80.04C73.5478 80.04 73.7318 80.04 73.9158 79.856L77.5958 77.648C77.9638 77.464 78.1478 76.912 77.9638 76.36C77.5958 75.808 77.0438 75.808 76.6758 75.992Z" fill="white"/>
<path d="M86.6119 46.184C86.9799 46 87.1639 45.632 87.1639 45.448V39.56C87.1639 39.192 86.9799 39.008 86.6119 38.824L65.2679 26.496V12.88C65.2679 12.696 65.0839 12.144 64.8999 12.144C38.4039 -3.31199 51.4679 4.41601 47.7879 2.20801C47.4199 2.02401 47.2359 2.02401 46.8679 2.20801L28.0999 12.512C27.7319 12.696 27.5479 13.064 27.5479 13.248C27.5479 13.432 27.5479 15.824 27.5479 15.64L6.38786 28.152C6.01986 28.336 5.83586 28.704 5.83586 28.888V34.776C5.83586 35.144 6.01986 35.328 6.20386 35.512L18.3479 42.504V47.104L6.20386 54.096C5.83586 54.28 5.65186 54.648 5.65186 54.832V60.72C5.65186 61.088 5.83586 61.272 6.01986 61.456C20.1879 69.736 38.5879 80.408 54.7799 89.792C55.1479 89.976 55.3319 89.976 55.6999 89.792L69.8679 81.696C70.2359 81.512 70.4199 80.96 70.2359 80.408C70.0519 80.04 69.4999 79.856 68.9479 80.04L56.2519 87.4V83.536L84.9559 66.976V70.84L79.9879 73.784C79.6199 73.968 79.4359 74.52 79.6199 75.072C79.8039 75.44 80.3559 75.624 80.9079 75.44L86.4279 72.312C86.7959 72.128 86.9799 71.76 86.9799 71.576V65.688C86.9799 65.32 86.7959 65.136 86.4279 64.952L70.6039 55.752V55.384L86.6119 46.184ZM66.3719 57.96L68.7639 56.672L68.9479 56.856V62.008C68.9479 62.008 68.9479 62.008 68.7639 62.192C68.2119 62.56 67.1079 62.56 66.5559 62.192L66.3719 62.008V57.96ZM47.2359 59.432L49.8119 60.904V73.048C49.8119 73.048 49.8119 73.048 49.6279 73.232C49.0759 73.6 47.9719 73.6 47.4199 73.232C47.2359 73.232 47.2359 73.048 47.2359 73.048V59.432ZM56.4359 61.456V57.592L80.9079 43.424L85.1399 41.032V44.896C84.9559 45.08 56.2519 61.64 56.4359 61.456ZM40.9799 7.36001L56.2519 16.192L52.0199 18.768L36.7479 9.93601L40.9799 7.36001ZM57.3559 17.848V23.368L53.1239 25.76V20.24L55.8839 18.584L57.3559 17.848ZM29.5719 32.568V15.088L44.8439 24.104C44.8439 24.288 44.8439 42.136 44.8439 41.584C44.8439 41.4 28.6519 32.016 29.5719 32.568ZM46.8679 41.584C46.8679 41.4 46.8679 23 46.8679 24.104L51.2839 21.528V27.784C51.2839 28.152 51.4679 28.336 51.8359 28.52C52.2039 28.704 52.3879 28.704 52.7559 28.52L58.8279 25.024C59.1959 24.84 59.3799 24.472 59.3799 24.288V17.112L63.6119 14.72V32.2C61.7719 32.936 69.4999 28.336 46.8679 41.584ZM47.0519 3.86401L62.5079 12.88L58.2759 15.456L42.8199 6.25601L47.0519 3.86401ZM34.9079 10.856L50.3639 19.872L45.9479 22.448L30.4919 13.432L34.9079 10.856ZM27.7319 17.848V33.12C27.7319 33.488 27.9159 33.672 28.2839 33.856C51.6519 47.472 43.7399 42.872 45.3959 43.792C45.7639 43.976 45.9479 43.976 46.3159 43.792C71.5239 29.256 62.8759 34.224 64.7159 33.12C65.0839 32.936 65.2679 32.568 65.2679 32.384V28.336L84.2199 39.376L78.5159 42.688L55.5159 55.936L8.59586 28.888L27.7319 17.848ZM7.85986 30.544L54.5959 57.776V61.64C53.1239 60.72 7.49186 34.224 7.85986 34.224V30.544ZM22.9479 45.264V57.408C22.9479 57.408 22.9479 57.592 22.7639 57.592C22.2119 57.96 21.1079 57.96 20.5559 57.592C20.3719 57.592 20.3719 57.408 20.3719 57.408V43.792L22.9479 45.264ZM7.85986 56.672L54.5959 83.904V87.768L7.85986 60.352V56.672ZM84.2199 65.688L55.5159 82.248L8.59586 55.016L18.3479 49.312V57.224C18.3479 57.592 18.5319 58.328 19.4519 58.88C20.5559 59.616 22.2119 59.616 23.4999 58.88C24.4199 58.328 24.6039 57.592 24.6039 57.224V46.184L45.2119 58.144V72.864C45.2119 73.6 45.5799 74.152 46.3159 74.52C47.4199 75.256 49.2599 75.256 50.3639 74.52C51.2839 73.968 51.4679 73.232 51.4679 72.864V61.824C51.6519 62.008 55.1479 64.032 54.9639 63.848C55.3319 64.032 55.5159 64.032 55.8839 63.848L64.5319 58.88V61.824C64.5319 62.56 64.8999 63.112 65.6359 63.48C66.7399 64.216 68.5799 64.216 69.6839 63.48C70.4199 63.112 70.7879 62.376 70.7879 61.824V57.776L84.2199 65.688Z" fill="white"/>
</svg>
