<svg width="93" height="92" viewBox="0 0 93 92" fill="none" xmlns="http://www.w3.org/2000/svg">
<rect x="0.5" width="92" height="92" rx="46" fill="black"/>
<path d="M68.3041 30.0263C61.4094 26.0458 50.2218 26.048 43.3658 30.0324C40.3725 31.7714 38.5213 34.1024 38.1521 36.596C38.1056 36.9102 38.0908 37.2234 38.0903 37.5359C38.09 37.5428 38.0863 37.5486 38.0863 37.5556L38.0653 43.1705L35.6292 44.5863C35.3589 44.7433 35.2671 45.0898 35.4247 45.3601C35.5817 45.6304 35.9283 45.72 36.1986 45.5647L41.0033 42.7721C41.0048 42.7712 41.0055 42.7695 41.0069 42.7686C41.1562 42.6824 41.2592 42.5316 41.2841 42.3608C41.3095 42.19 41.2553 42.017 41.137 41.891C39.8204 40.4884 38.9875 38.6867 39.272 36.7618C39.5898 34.6154 41.2454 32.5734 43.9346 31.0108C50.4778 27.2088 61.1562 27.2066 67.738 31.0069C70.8297 32.7918 72.5344 35.1317 72.5377 37.5954C72.5466 44.7948 58.8904 49.2192 47.9488 45.8195C47.8522 45.7893 47.6382 45.7874 47.4967 45.8709L38.4942 51.1023C38.4135 51.1492 38.3546 51.2159 38.3075 51.2894C38.2937 51.311 38.2859 51.3331 38.2751 51.3563C38.2467 51.417 38.2302 51.4794 38.2246 51.546C38.2232 51.5622 38.2122 51.5756 38.2123 51.5921C38.2123 51.6018 38.2191 51.6097 38.2196 51.6194C38.2237 51.7051 38.2419 51.7903 38.2871 51.8698C38.2881 51.8716 38.2881 51.8737 38.2891 51.8755C38.289 51.8754 38.2891 51.8755 38.2891 51.8755C38.3356 51.956 38.402 52.0149 38.4752 52.0617C38.4834 52.0671 38.4868 52.0769 38.4953 52.0818L40.8175 53.4223C40.7042 53.4882 39.6702 54.0894 39.7836 54.0235L36.8989 52.3582C36.8112 52.3077 36.7133 52.2824 36.6154 52.2824C36.6005 52.2824 36.5872 52.2927 36.5724 52.2939C36.4902 52.3003 36.4077 52.3148 36.334 52.3577C36.3334 52.358 36.3333 52.3586 36.3328 52.3589C35.6231 52.7712 31.6481 55.0808 31.9024 54.933C31.6023 55.1077 31.4787 55.6342 31.8843 55.8927C32.0098 55.9727 34.3392 57.3275 34.2257 57.253C34.1124 57.3189 33.0784 57.9201 33.1918 57.8542L30.3077 56.1889C30.1112 56.0751 29.8607 56.1202 29.7428 56.1884C29.7421 56.1887 29.7419 56.1895 29.7413 56.1898C29.7411 56.19 29.7415 56.1897 29.7413 56.1898L26.8775 57.8535L21.3578 57.3591L20.5911 54.6351L27.8783 50.3998C28.148 50.2428 28.2403 49.8962 28.0828 49.6259C27.9252 49.355 27.5775 49.2644 27.3089 49.4214L19.6655 53.8634C19.4815 53.9575 19.3565 54.146 19.3556 54.3631L19.3302 60.2391C19.3302 60.2916 19.3374 60.3447 19.3518 60.3955L20.3495 63.9183C20.4131 64.1439 20.6093 64.3064 20.8426 64.3279C21.4657 64.3849 18.5854 64.121 26.9366 64.8844C27.0507 64.8621 27.1394 64.8824 27.2531 64.816L30.005 63.2166L32.8891 64.8818C33.0645 64.9828 33.28 64.9826 33.4541 64.8824C33.4547 64.882 33.4549 64.8813 33.4555 64.8809C33.4553 64.8811 33.4557 64.8808 33.4555 64.8809L35.6187 63.6243C35.7928 63.5237 35.9001 63.3379 35.9006 63.1373L35.9123 59.7835L36.596 59.3862L39.4809 61.0517C39.6563 61.1526 39.8718 61.1524 40.0459 61.0522C40.8049 60.611 42.3319 59.7233 42.2111 59.7936C42.3846 59.6929 42.4919 59.5072 42.4924 59.3066L42.5041 55.953L47.8422 52.8509C50.4267 53.6239 53.1992 54.0099 55.9491 54.0099C60.4918 54.0099 64.9604 52.9801 68.356 51.0061C71.7617 49.0278 73.6411 46.3634 73.6494 43.505L73.6698 37.6213C73.6698 37.6186 73.6682 37.6157 73.6682 37.6129C73.6682 37.6064 73.6698 37.6002 73.6698 37.5937C73.666 34.7093 71.76 32.0218 68.3041 30.0263ZM39.8403 42.1359L39.2001 42.5067L39.2045 41.242C39.2129 41.2553 39.2242 41.2678 39.2327 41.281C39.4162 41.57 39.6134 41.8563 39.8403 42.1359ZM39.2012 59.5829L37.1627 58.4061C37.1632 58.2551 37.1795 53.572 37.1786 53.8269C37.2968 53.8952 39.3467 55.0787 39.2172 55.0039C39.2167 55.1548 39.2003 59.8379 39.2012 59.5829ZM32.6094 63.4131L30.5714 62.2362C30.5719 62.0853 30.5883 57.4027 30.5874 57.6576L31.8188 58.3687L32.6254 58.8346C32.6249 58.9855 32.6085 63.668 32.6094 63.4131ZM20.4628 60.1639L20.4711 58.2336C20.4876 58.255 20.5125 58.2671 20.5317 58.2858C20.5527 58.3063 20.5713 58.3232 20.5951 58.3402C20.6709 58.3949 20.7557 58.4351 20.8525 58.4469C20.8581 58.4476 20.8619 58.4525 20.8675 58.4531L26.4129 58.9591L26.4024 63.6994L21.3329 63.2357L20.4628 60.1639ZM27.5538 58.7698L29.4552 57.6649C29.4545 57.8664 29.4383 62.5323 29.4393 62.2362L27.5377 63.3412L27.5538 58.7698ZM33.7416 63.4058C33.7423 63.2044 33.7586 58.5385 33.7575 58.8346L34.7857 58.237L34.7697 62.8084L33.7416 63.4058ZM35.9207 57.2522C35.9207 57.2517 35.9211 57.2513 35.9211 57.2508C35.9209 57.1888 35.8935 57.1344 35.8744 57.0774C35.8623 57.0416 35.8639 57.0014 35.8451 56.9688C35.7962 56.884 35.7256 56.8118 35.6381 56.761L33.3165 55.4206L36.0464 53.8342C36.0457 54.0365 36.0295 58.7036 36.0305 58.4055L35.9169 58.4717L35.9211 57.2536C35.9211 57.2531 35.9207 57.2527 35.9207 57.2522ZM40.3334 59.5757C40.3338 59.4624 40.3504 54.7 40.3493 55.0039L41.3775 54.4063L41.3615 58.9782L40.3334 59.5757ZM42.5125 53.4212C42.5125 53.4206 42.5129 53.4202 42.5129 53.4195C42.5127 53.3525 42.4846 53.293 42.4622 53.232C42.451 53.2013 42.4531 53.1662 42.4369 53.138C42.388 53.0533 42.3175 52.9811 42.2299 52.9303L39.9077 51.5899C40.1054 51.475 47.6698 47.0793 47.2113 47.3458C47.2109 47.459 47.1944 52.2177 47.1954 51.9177L42.5087 54.6412L42.5129 53.4229C42.5129 53.4222 42.5125 53.4218 42.5125 53.4212ZM72.5245 41.3625L72.5173 43.5012C72.5107 45.9417 70.8308 48.2594 67.7872 50.0277C62.7144 52.9751 54.7733 53.6959 48.328 51.8231C48.3284 51.7089 48.3452 46.8109 48.3442 47.1157C50.6701 47.7624 53.4213 48.1379 56.1557 48.1209C59.5367 48.1013 63.1454 47.4904 66.2477 46.1791C66.2673 46.1708 66.2856 46.1612 66.3051 46.1529C68.6596 45.1491 71.133 43.5469 72.5245 41.3625Z" fill="white"/>
<path d="M33.1362 46.0345L30.1656 47.7608C29.8959 47.9178 29.8036 48.2644 29.9611 48.5347C30.0661 48.7155 30.2557 48.8161 30.4509 48.8161C30.5476 48.8161 30.6454 48.7912 30.735 48.7392L33.7056 47.0129C33.9753 46.8559 34.0676 46.5094 33.9101 46.239C33.7526 45.9682 33.4049 45.877 33.1362 46.0345Z" fill="white"/>
<path d="M50.4988 43.0058C55.7964 45.0226 63.4937 44.0081 66.3003 40.2271C66.3011 40.226 66.3007 40.2244 66.3015 40.2233C67.1356 39.1188 67.4466 37.8887 67.1991 36.6662C66.8923 35.1499 65.7746 33.7973 63.9665 32.7542C59.7532 30.3198 52.9376 30.3215 48.7741 32.7537C46.9798 33.7862 45.8671 35.1284 45.5559 36.6347C44.9368 39.6353 47.609 41.9058 50.4988 43.0058ZM47.674 39.9013C47.6608 39.8871 47.6492 39.8723 47.6362 39.8581C48.0696 39.3821 48.6397 38.9423 49.3412 38.545C53.2046 36.2975 59.5106 36.2975 63.3993 38.5461C64.098 38.95 64.6708 39.3996 65.1097 39.8865C65.0972 39.9006 65.0867 39.9152 65.0739 39.9292C64.8845 40.1374 64.6686 40.3383 64.4309 40.5325C60.2945 43.9111 51.192 43.6635 47.674 39.9013ZM46.6647 36.8635C46.9046 35.6999 47.8543 34.5889 49.3424 33.7332C53.1973 31.4788 59.5039 31.4822 63.3993 33.7348C64.8968 34.5983 65.8525 35.7193 66.0897 36.8906C66.2287 37.5773 66.1168 38.2754 65.772 38.9441C65.2815 38.4413 64.6801 37.9785 63.9665 37.5661C59.7626 35.1367 52.947 35.1361 48.7774 37.5633C48.0612 37.969 47.4602 38.4247 46.9719 38.9202C46.632 38.2505 46.5231 37.5505 46.6647 36.8635Z" fill="white"/>
</svg>
