<svg width="93" height="92" viewBox="0 0 93 92" fill="none" xmlns="http://www.w3.org/2000/svg">
<path d="M50.9077 10.6323L52.5224 9.69994C52.9377 9.46093 53.0801 8.93034 52.8402 8.51502C52.6004 8.09971 52.0672 7.95562 51.6545 8.19803L50.0398 9.13037C49.6245 9.36939 49.4821 9.89997 49.722 10.3153C49.9636 10.7325 50.4973 10.8719 50.9077 10.6323Z" fill="black"/>
<path d="M48.4446 12.0545C48.8599 11.8155 49.0023 11.2849 48.7624 10.8696C48.5217 10.4543 47.9911 10.3085 47.5767 10.5526L26.4685 22.7425C26.4454 22.7551 26.4256 22.7725 26.4042 22.7879C26.3927 22.796 26.3814 22.803 26.3703 22.8118C26.3602 22.8198 26.3484 22.8258 26.3388 22.8341C23.6986 24.4208 21.6652 27.9908 21.6847 31.037L21.8229 78.8118C21.8229 80.4629 22.4289 81.7292 23.5316 82.3768C23.7073 82.4789 32.0814 87.3474 31.9057 87.2453L31.9109 87.2467L31.9176 87.2521C33.1701 87.971 34.6392 87.6616 35.8792 86.9435L66.5312 69.246C69.2222 67.6932 71.3242 64.0469 71.3158 60.9465L71.1801 13.1767C71.176 11.55 70.5818 10.3131 69.5189 9.66635C69.5007 9.65385 69.49 9.63489 69.4706 9.62366L61.0931 4.76362C60.0031 4.11098 58.5512 4.21438 57.1052 5.0501L54.0039 6.84189C53.5886 7.08091 53.4462 7.6115 53.686 8.02681C53.9251 8.44043 54.4565 8.58282 54.8718 8.34381L57.9731 6.55371C58.858 6.04347 59.6691 5.93328 60.2107 6.25875L66.0514 9.64739C65.8818 9.72367 65.7106 9.81415 65.5396 9.91194C65.5258 9.91978 65.5126 9.92253 65.4988 9.93048C25.7007 32.9009 38.4958 25.5159 35.2785 27.3729L28.6318 23.4975L48.4446 12.0545ZM26.953 24.5272L33.6992 28.4606C32.0592 29.8577 30.7899 31.9832 30.2998 34.1016C30.2696 34.2298 30.2342 34.3579 30.2099 34.4857L23.4506 30.6558C23.5927 28.4261 25.0941 25.8063 26.953 24.5272ZM24.4071 80.8765C23.8605 80.5562 23.5587 79.8222 23.5587 78.8101L23.4252 32.6351L30.0644 36.397C30.1784 78.1334 30.1773 83.788 30.225 84.2601L24.4071 80.8765ZM65.6632 67.7441L35.0113 85.4416C34.1365 85.9485 33.3254 86.0587 32.7838 85.7467C32.2464 85.4382 31.9371 84.6856 31.9345 83.6837C31.9362 84.336 31.9103 74.9621 31.804 35.8517C31.8251 33.4031 33.6069 30.3466 35.7156 29.1299C38.8517 27.3195 24.3638 35.6833 66.3625 11.4375C68.0356 10.4723 69.4386 10.9404 69.4443 13.1801L69.5799 60.9499C69.5867 63.4028 67.7932 66.5134 65.6632 67.7441Z" fill="black"/>
<path d="M66.1345 15.3974C65.8642 15.2448 65.5344 15.2431 65.2675 15.3991L35.1088 32.8101C34.8392 32.9644 34.674 33.2526 34.6748 33.5645L34.8087 74.4841C34.81 74.9571 35.1936 75.3486 35.6767 75.3486C35.8267 75.3486 35.9767 75.3096 36.1106 75.2316L66.2693 57.8189C66.5388 57.6646 66.7041 57.3765 66.7033 57.0646L66.5693 16.1467C66.5685 15.8381 66.4024 15.5517 66.1345 15.3974ZM36.5395 72.9805L36.4124 34.0612L64.8386 17.6503L64.9657 56.5679L36.5395 72.9805Z" fill="black"/>
<path d="M50.2527 68.2526C48.8338 69.0714 47.7269 70.9853 47.732 72.6092C47.7373 74.5908 49.3991 75.5474 51.1358 74.5468C52.5479 73.7297 53.6515 71.8176 53.6472 70.1919C53.6401 68.1901 51.976 67.2568 50.2527 68.2526ZM50.2671 73.0432C49.7089 73.3671 49.4695 73.2545 49.4678 72.6041C49.4644 71.5972 50.2366 70.2648 51.1206 69.7546C51.7326 69.4006 51.9099 69.6087 51.9114 70.197C51.9139 71.2056 51.1452 72.5363 50.2671 73.0432Z" fill="black"/>
<path d="M50.2777 48.3022C48.7623 49.1769 47.5799 51.2264 47.585 52.969C47.5903 55.0764 49.3363 56.0656 51.1601 55.0117C52.6722 54.1404 53.852 52.0926 53.8469 50.35C53.8416 48.2501 52.1075 47.2485 50.2777 48.3022ZM50.2922 53.5098C49.6623 53.8689 49.3224 53.7623 49.3208 52.9622C49.3174 51.8434 50.1701 50.3686 51.1457 49.8042C51.8422 49.4041 52.1096 49.6381 52.1111 50.3568C52.1145 51.4739 51.2643 52.9487 50.2922 53.5098Z" fill="black"/>
<path d="M57.6529 42.2776C55.3456 40.9822 52.5703 41.623 50.2535 42.9625C47.4302 44.5932 45.0528 47.311 43.4118 50.1415C43.1711 50.5568 43.3126 51.0874 43.7271 51.3281C44.1397 51.5675 44.6729 51.4285 44.9137 51.0128C46.7586 47.8306 49.0793 45.6426 51.1214 44.4661C52.8588 43.4626 55.0582 42.8134 56.8019 43.7897C57.2189 44.0253 57.7486 43.8762 57.9843 43.4591C58.2191 43.0421 58.0707 42.5116 57.6529 42.2776Z" fill="black"/>
<path d="M61.1439 36.2428C57.729 34.2871 53.6406 35.2978 50.2415 37.2582C45.9698 39.7264 42.4057 43.81 39.9137 48.1361C39.6738 48.5514 39.817 49.082 40.2324 49.3227C40.6505 49.5617 41.1797 49.4163 41.4173 49.004C43.7518 44.9537 47.0975 41.0783 51.1094 38.7619C53.9403 37.1285 57.4553 36.1297 60.2811 37.7481C60.693 37.9855 61.2253 37.8431 61.4651 37.4278C61.7042 37.0108 61.5601 36.4802 61.1439 36.2428Z" fill="black"/>
</svg>
