<svg width="1322" height="144" viewBox="0 0 1322 144" fill="none" xmlns="http://www.w3.org/2000/svg">
<path d="M174.227 118.883C169.325 118.883 165.343 118.112 162.292 116.551C159.241 115 157.04 112.749 155.689 109.797C154.339 106.845 153.658 103.222 153.658 98.9091V9.45759H179.019V93.8156C179.019 95.917 179.519 97.318 180.519 98.0184C181.52 98.7189 182.77 99.0692 184.271 99.0692H189.073V118.883H174.217H174.227ZM271.167 59.512C268.466 52.257 264.054 46.5831 257.962 42.4803C251.859 38.3775 244.056 36.3261 234.552 36.3261C226.539 36.3261 219.566 38.0472 213.613 41.4996C207.661 44.952 203.039 49.8553 199.737 56.2097C196.436 62.5641 194.785 70.1993 194.785 79.1055C194.785 87.3111 196.386 94.516 199.587 100.72C202.789 106.925 207.411 111.748 213.463 115.2C219.516 118.653 226.839 120.384 235.452 120.384C242.355 120.384 248.448 119.283 253.76 117.082C259.062 114.88 263.414 111.808 266.815 107.845C270.207 103.892 272.308 99.1692 273.118 93.6655H248.958C248.258 95.967 246.777 97.8383 244.526 99.2893C242.275 100.74 239.254 101.471 235.452 101.471C232.241 101.471 229.45 100.79 227.049 99.4394C224.648 98.0885 222.817 96.1171 221.567 93.5153C220.316 90.9136 219.696 87.8114 219.696 84.209H273.718C274.709 75.0026 273.868 66.777 271.167 59.512ZM219.826 68.7483C219.926 66.4067 220.426 64.3553 221.346 62.5941C222.547 60.2925 224.268 58.4913 226.519 57.1904C228.77 55.8895 231.451 55.2391 234.552 55.2391C237.453 55.2391 240.004 55.8395 242.205 57.0403C244.406 58.2411 246.107 59.9623 247.307 62.2138C248.248 63.9751 248.758 66.1565 248.838 68.7483H219.826ZM359.994 101.021C358.794 101.021 357.873 100.64 357.223 99.8897C356.573 99.1392 356.243 97.9184 356.243 96.2172V66.4968C356.243 61.6935 355.522 57.4105 354.072 53.658C352.621 49.9054 350.44 46.7532 347.539 44.2015C344.638 41.6497 341.036 39.6984 336.734 38.3474C332.433 36.9965 327.381 36.3261 321.578 36.3261C313.975 36.3261 307.352 37.5069 301.7 39.8485C296.048 42.2001 291.666 45.5324 288.564 49.8353C285.463 54.1383 283.912 59.0917 283.912 64.6955H308.673C308.673 62.8943 309.153 61.3432 310.103 60.0424C311.054 58.7415 312.354 57.7107 314.005 56.9602C315.656 56.2097 317.676 55.8395 320.077 55.8395C322.078 55.8395 323.909 56.1096 325.56 56.66C327.21 57.2104 328.511 58.1911 329.461 59.592C330.412 60.993 330.882 62.8943 330.882 65.296V71.3001H315.876C310.674 71.3001 305.972 71.8505 301.77 72.9512C297.568 74.052 293.997 75.7231 291.045 77.9747C288.094 80.2262 285.813 82.9881 284.213 86.2303C282.612 89.4826 281.812 93.2151 281.812 97.418C281.812 104.223 284.143 109.676 288.795 113.779C293.446 117.882 299.719 119.934 307.622 119.934C313.025 119.934 318.027 118.853 322.629 116.701C327.23 114.55 330.482 111.728 332.383 108.225H333.283C334.383 111.628 336.414 114.25 339.366 116.101C342.317 117.952 346.138 118.883 350.84 118.883H363.446V101.021H359.994ZM330.882 92.6147C330.582 95.917 329.211 98.4688 326.76 100.27C324.309 102.071 321.228 102.972 317.526 102.972C314.525 102.972 312.104 102.271 310.253 100.87C308.403 99.4694 307.472 97.5181 307.472 95.0164C307.472 93.2151 308.002 91.6341 309.053 90.2831C310.103 88.9322 311.624 87.8815 313.625 87.131C315.626 86.3804 318.127 86.0102 321.128 86.0102H330.882V92.6147ZM379.662 118.883V58.091H367.357V37.677H379.662V30.9223C379.662 24.0176 381.833 18.7139 386.185 15.0114C390.537 11.3089 396.709 9.45759 404.723 9.45759H421.68V26.119H411.475C409.375 26.119 407.774 26.5693 406.673 27.47C405.573 28.3706 405.023 29.9717 405.023 32.2733V37.677H420.479V58.091H405.023V118.883H379.662ZM105.858 15.3917C85.7801 -1.78014 56.2778 -5.3626 32.0878 8.607C18.8623 16.2523 9.37836 27.8903 4.29625 41.1294C17.6818 52.5772 37.35 54.9589 53.4767 45.6525L105.868 15.4017L105.858 15.3917ZM85.54 124.677C110.45 115.871 128.298 92.1044 128.298 64.1652C128.298 48.8847 122.956 34.855 114.032 23.8275C97.425 29.7015 85.53 45.5424 85.53 64.1652V124.677H85.54ZM1.07491 52.4371C-3.7571 78.415 7.89774 105.764 32.0878 119.733C45.3133 127.379 60.1395 129.77 74.1353 127.549C77.3566 110.227 69.5834 92.0043 53.4667 82.6879L1.07491 52.4371Z" fill="white"/>
<path d="M437.197 144V40.2368H448.592L449.192 56.581H449.941C451.74 51.2829 455.089 47.0344 459.987 43.8355C464.884 40.6367 470.731 39.0372 477.528 39.0372C482.326 39.0372 486.724 39.9869 490.722 41.8862C494.72 43.6856 498.169 46.3346 501.067 49.8334C503.966 53.3322 506.165 57.6306 507.664 62.7288C509.263 67.7271 510.063 73.375 510.063 79.6728C510.063 88.1698 508.714 95.4672 506.015 101.565C503.316 107.663 499.518 112.311 494.62 115.51C489.723 118.709 484.025 120.308 477.528 120.308C473.03 120.308 468.882 119.609 465.084 118.209C461.386 116.71 458.237 114.66 455.639 112.061C453.14 109.362 451.241 106.263 449.941 102.765H449.342V144H437.197ZM473.33 110.262C478.428 110.262 482.776 109.062 486.374 106.663C489.972 104.264 492.771 100.765 494.77 96.167C496.769 91.5686 497.769 86.0705 497.769 79.6728C497.769 73.2751 496.769 67.827 494.77 63.3286C492.871 58.7302 490.122 55.2315 486.524 52.8323C482.926 50.4332 478.628 49.2336 473.63 49.2336C468.433 49.2336 464.035 50.4332 460.436 52.8323C456.838 55.1315 454.089 58.2804 452.19 62.279C450.291 66.1776 449.342 70.3761 449.342 74.8745V84.4711C449.342 89.0695 450.291 93.318 452.19 97.2166C454.089 101.115 456.838 104.264 460.436 106.663C464.035 109.062 468.333 110.262 473.33 110.262Z" fill="#FB5E48"/>
<path d="M560.918 120.308C553.421 120.308 546.974 118.659 541.577 115.36C536.279 112.061 532.231 107.363 529.433 101.265C526.634 95.1673 525.235 88.0698 525.235 79.9727C525.235 71.6757 526.634 64.4782 529.433 58.3804C532.231 52.1826 536.229 47.4343 541.427 44.1354C546.624 40.7366 552.971 39.0372 560.468 39.0372C568.464 39.0372 575.061 40.8366 580.259 44.4353C585.456 48.034 589.204 53.0323 591.503 59.43C593.902 65.8277 594.802 73.2251 594.202 81.6221H537.079C537.179 88.1198 538.178 93.5679 540.078 97.9663C542.077 102.265 544.825 105.514 548.324 107.713C551.922 109.812 556.12 110.862 560.918 110.862C566.515 110.862 571.113 109.562 574.711 106.963C578.309 104.364 580.708 100.915 581.908 96.6168H593.602C592.703 101.615 590.704 105.914 587.605 109.512C584.606 113.011 580.808 115.71 576.21 117.609C571.613 119.409 566.515 120.308 560.918 120.308ZM537.229 74.7246L535.88 72.9252H583.707L582.358 75.0245C582.457 68.7267 581.608 63.6785 579.809 59.8798C578.01 55.9812 575.411 53.1322 572.012 51.3329C568.714 49.4335 564.866 48.4839 560.468 48.4839C555.87 48.4839 551.872 49.4835 548.474 51.4828C545.075 53.4821 542.376 56.4311 540.377 60.3297C538.478 64.1283 537.429 68.9266 537.229 74.7246Z" fill="#FB5E48"/>
<path d="M610.164 118.959V40.2368H620.959L621.709 54.7816H622.309C624.008 49.7834 627.006 45.9348 631.304 43.2357C635.602 40.5367 640.4 39.1872 645.697 39.1872C646.597 39.1872 647.447 39.2372 648.246 39.3371C649.046 39.3371 649.795 39.3871 650.495 39.4871V51.033C649.795 50.933 649.046 50.883 648.246 50.883C647.447 50.7831 646.597 50.7331 645.697 50.7331C641.1 50.7331 637.102 51.5828 633.703 53.2822C630.305 54.9816 627.606 57.4307 625.607 60.6296C623.708 63.7285 622.558 67.5271 622.159 72.0255V118.959H610.164Z" fill="#FB5E48"/>
<path d="M669.136 118.959V49.9833H655.943V40.2368H669.136V27.1914C669.136 21.2935 670.786 16.8951 674.084 13.9961C677.382 11.0971 681.98 9.64766 687.878 9.64766H698.672V19.3942H690.426C686.828 19.3942 684.379 20.2439 683.08 21.9433C681.78 23.5427 681.131 25.7919 681.131 28.6909V40.2368H697.323V49.9833H681.131V118.959H669.136Z" fill="#FB5E48"/>
<path d="M741.597 120.308C735.9 120.308 730.703 119.359 726.005 117.459C721.407 115.56 717.409 112.811 714.01 109.212C710.712 105.614 708.113 101.365 706.214 96.4669C704.415 91.4686 703.515 85.9206 703.515 79.8228C703.515 71.7256 705.065 64.6282 708.163 58.5303C711.262 52.4325 715.66 47.6842 721.357 44.2854C727.154 40.7866 733.901 39.0372 741.597 39.0372C747.295 39.0372 752.442 39.9869 757.04 41.8862C761.738 43.6856 765.736 46.3846 769.034 49.9833C772.333 53.5821 774.882 57.8806 776.681 62.8788C778.48 67.877 779.379 73.475 779.379 79.6728C779.379 87.67 777.83 94.7175 774.732 100.815C771.733 106.913 767.385 111.711 761.688 115.21C755.99 118.609 749.294 120.308 741.597 120.308ZM741.597 109.812C746.695 109.812 751.143 108.663 754.941 106.363C758.739 103.964 761.688 100.515 763.787 96.017C765.986 91.4187 767.085 85.9706 767.085 79.6728C767.085 74.9745 766.486 70.776 765.286 67.0773C764.087 63.2786 762.387 60.0798 760.189 57.4807C757.99 54.7817 755.341 52.7324 752.242 51.3329C749.144 49.9334 745.595 49.2336 741.597 49.2336C736.5 49.2336 732.002 50.4832 728.104 52.9823C724.306 55.3814 721.307 58.8302 719.108 63.3286C717.009 67.827 715.959 73.3251 715.959 79.8228C715.959 84.4211 716.509 88.6196 717.609 92.4183C718.808 96.117 720.507 99.2659 722.706 101.865C725.005 104.464 727.754 106.463 730.952 107.863C734.151 109.162 737.699 109.812 741.597 109.812Z" fill="#FB5E48"/>
<path d="M796.334 118.959V40.2368H807.129L807.878 54.7816H808.478C810.177 49.7834 813.176 45.9348 817.474 43.2357C821.772 40.5367 826.57 39.1872 831.867 39.1872C832.767 39.1872 833.616 39.2372 834.416 39.3371C835.216 39.3371 835.965 39.3871 836.665 39.4871V51.033C835.965 50.933 835.216 50.883 834.416 50.883C833.616 50.7831 832.767 50.7331 831.867 50.7331C827.269 50.7331 823.271 51.5828 819.873 53.2822C816.474 54.9816 813.776 57.4307 811.777 60.6296C809.878 63.7285 808.728 67.5271 808.328 72.0255V118.959H796.334Z" fill="#FB5E48"/>
<path d="M850.24 118.959V40.2368H861.785L862.234 56.581H863.134C865.433 50.7831 869.031 46.4346 873.929 43.5356C878.826 40.5367 884.224 39.0372 890.121 39.0372C896.118 39.0372 901.416 40.4867 906.014 43.3857C910.611 46.2847 913.91 51.1329 915.909 57.9305H917.108C919.407 51.6328 923.106 46.9344 928.203 43.8355C933.401 40.6367 939.198 39.0372 945.595 39.0372C950.892 39.0372 955.59 40.1368 959.688 42.3361C963.886 44.5353 967.185 48.134 969.583 53.1322C971.982 58.0305 973.182 64.5282 973.182 72.6253V118.959H961.188V75.0245C961.188 69.1266 960.438 64.2783 958.939 60.4796C957.539 56.681 955.39 53.882 952.492 52.0826C949.693 50.1833 945.995 49.2336 941.397 49.2336C936.699 49.2336 932.551 50.4332 928.953 52.8323C925.454 55.2315 922.706 58.4803 920.707 62.5789C918.808 66.5775 917.858 71.1758 917.858 76.374V118.959H905.564V75.0245C905.564 69.1266 904.864 64.2783 903.465 60.4796C902.065 56.681 899.917 53.882 897.018 52.0826C894.219 50.1833 890.571 49.2336 886.073 49.2336C881.275 49.2336 877.077 50.4332 873.479 52.8323C869.981 55.2315 867.232 58.4803 865.233 62.5789C863.234 66.5775 862.234 71.1758 862.234 76.374V118.959H850.24Z" fill="#FB5E48"/>
<path d="M1022.82 120.308C1018.02 120.308 1013.58 119.359 1009.48 117.459C1005.48 115.56 1002.03 112.861 999.132 109.362C996.233 105.864 993.984 101.615 992.385 96.6168C990.886 91.6186 990.136 85.9206 990.136 79.5229C990.136 71.0259 991.486 63.7785 994.184 57.7806C996.983 51.6827 1000.83 47.0344 1005.73 43.8355C1010.63 40.5367 1016.32 38.8873 1022.82 38.8873C1027.32 38.8873 1031.42 39.637 1035.11 41.1365C1038.91 42.536 1042.11 44.5353 1044.71 47.1344C1047.31 49.7334 1049.21 52.8323 1050.41 56.4311H1051.16L1051.61 40.2368H1063.15V118.959H1051.61L1051.16 102.615H1050.41C1048.51 107.913 1045.11 112.211 1040.21 115.51C1035.41 118.709 1029.62 120.308 1022.82 120.308ZM1026.72 110.112C1031.92 110.112 1036.31 108.912 1039.91 106.513C1043.51 104.014 1046.26 100.815 1048.16 96.9167C1050.06 93.0181 1051.01 88.8196 1051.01 84.3212V74.7246C1051.01 70.1262 1050.01 65.8777 1048.01 61.9791C1046.11 57.9805 1043.36 54.8316 1039.76 52.5324C1036.26 50.1333 1031.97 48.9337 1026.87 48.9337C1021.87 48.9337 1017.52 50.1833 1013.83 52.6824C1010.23 55.0815 1007.43 58.5803 1005.43 63.1787C1003.53 67.6771 1002.58 73.1251 1002.58 79.5229C1002.58 85.8206 1003.53 91.2687 1005.43 95.8671C1007.43 100.465 1010.23 104.014 1013.83 106.513C1017.42 108.912 1021.72 110.112 1026.72 110.112Z" fill="#FB5E48"/>
<path d="M1084.99 118.959V40.2368H1096.54L1096.99 56.581H1097.89C1100.29 50.7831 1103.98 46.4346 1108.98 43.5356C1113.98 40.5367 1119.43 39.0372 1125.32 39.0372C1129.42 39.0372 1133.17 39.637 1136.57 40.8366C1140.07 42.0362 1143.07 43.9855 1145.57 46.6845C1148.16 49.3836 1150.16 52.8823 1151.56 57.1808C1152.96 61.3793 1153.66 66.5275 1153.66 72.6253V118.959H1141.52V75.0245C1141.52 69.1266 1140.77 64.2783 1139.27 60.4796C1137.87 56.681 1135.67 53.882 1132.67 52.0826C1129.77 50.1833 1126.02 49.2336 1121.43 49.2336C1116.53 49.2336 1112.23 50.4332 1108.53 52.8323C1104.83 55.2315 1101.99 58.4803 1099.99 62.5789C1097.99 66.5775 1096.99 71.1758 1096.99 76.374V118.959H1084.99Z" fill="#FB5E48"/>
<path d="M1208.2 120.308C1202.5 120.308 1197.3 119.359 1192.6 117.459C1188.01 115.46 1184.06 112.711 1180.76 109.212C1177.46 105.614 1174.91 101.365 1173.11 96.4669C1171.31 91.4686 1170.41 85.8706 1170.41 79.6728C1170.41 73.575 1171.31 68.0769 1173.11 63.1787C1174.91 58.1804 1177.51 53.882 1180.91 50.2832C1184.31 46.6845 1188.35 43.9355 1193.05 42.0362C1197.75 40.0369 1202.95 39.0372 1208.65 39.0372C1214.74 39.0372 1220.19 40.1368 1224.99 42.3361C1229.79 44.5353 1233.68 47.6342 1236.68 51.6328C1239.68 55.6313 1241.48 60.2797 1242.08 65.5778H1230.23C1229.44 61.9791 1227.99 58.9802 1225.89 56.581C1223.79 54.1819 1221.24 52.3825 1218.24 51.1829C1215.24 49.9834 1211.94 49.3836 1208.35 49.3836C1204.25 49.3836 1200.6 50.1333 1197.4 51.6328C1194.3 53.0323 1191.65 55.0815 1189.45 57.7806C1187.26 60.4796 1185.56 63.6785 1184.36 67.3772C1183.26 71.0759 1182.71 75.2244 1182.71 79.8228C1182.71 86.1205 1183.76 91.5186 1185.86 96.017C1188.05 100.515 1191.05 103.964 1194.85 106.363C1198.65 108.762 1203.1 109.962 1208.2 109.962C1212.29 109.962 1215.89 109.212 1218.99 107.713C1222.09 106.213 1224.64 104.214 1226.64 101.715C1228.74 99.1159 1230.09 96.017 1230.68 92.4183H1242.53C1241.93 98.0163 1240.08 102.915 1236.98 107.113C1233.88 111.312 1229.84 114.56 1224.84 116.86C1219.94 119.159 1214.39 120.308 1208.2 120.308Z" fill="#FB5E48"/>
<path d="M1288.54 120.308C1281.04 120.308 1274.59 118.659 1269.2 115.36C1263.9 112.061 1259.85 107.363 1257.05 101.265C1254.25 95.1673 1252.85 88.0698 1252.85 79.9727C1252.85 71.6757 1254.25 64.4782 1257.05 58.3804C1259.85 52.1826 1263.85 47.4343 1269.05 44.1354C1274.24 40.7366 1280.59 39.0372 1288.09 39.0372C1296.08 39.0372 1302.68 40.8366 1307.88 44.4353C1313.07 48.034 1316.82 53.0323 1319.12 59.43C1321.52 65.8277 1322.42 73.2251 1321.82 81.6221H1264.7C1264.8 88.1198 1265.8 93.5679 1267.7 97.9663C1269.69 102.265 1272.44 105.514 1275.94 107.713C1279.54 109.812 1283.74 110.862 1288.54 110.862C1294.13 110.862 1298.73 109.562 1302.33 106.963C1305.93 104.364 1308.33 100.915 1309.53 96.6168H1321.22C1320.32 101.615 1318.32 105.914 1315.22 109.512C1312.22 113.011 1308.43 115.71 1303.83 117.609C1299.23 119.409 1294.13 120.308 1288.54 120.308ZM1264.85 74.7246L1263.5 72.9252H1311.33L1309.98 75.0245C1310.08 68.7267 1309.23 63.6785 1307.43 59.8798C1305.63 55.9812 1303.03 53.1322 1299.63 51.3329C1296.33 49.4335 1292.48 48.4839 1288.09 48.4839C1283.49 48.4839 1279.49 49.4835 1276.09 51.4828C1272.69 53.4821 1269.99 56.4311 1268 60.3297C1266.1 64.1283 1265.05 68.9266 1264.85 74.7246Z" fill="#FB5E48"/>
</svg>
