<svg width="93" height="92" viewBox="0 0 93 92" fill="none" xmlns="http://www.w3.org/2000/svg">
<rect x="0.5" width="92" height="92" rx="46" fill="black"/>
<path d="M40.0315 25.1704C39.581 25.4954 39.1383 25.8459 38.7054 26.2179C38.4683 26.4218 38.4412 26.7795 38.6446 27.0161C38.8502 27.255 39.2078 27.2791 39.4428 27.0769C39.8513 26.7259 40.2687 26.3953 40.6937 26.0891C40.9475 25.9061 41.0044 25.5523 40.822 25.2986C40.6385 25.0466 40.2858 24.9885 40.0315 25.1704Z" fill="white"/>
<path d="M70.2974 28.0675L62.0788 23.3015C59.9777 22.0837 57.231 22.3319 54.3466 24.0024C53.8239 24.3025 53.3179 24.6446 52.8279 25.0081L50.1246 23.438C47.7808 22.0726 44.7207 22.3496 41.5063 24.2191C41.2366 24.376 41.1442 24.7226 41.3018 24.9929C41.4582 25.2632 41.8048 25.3528 42.0757 25.1975C44.923 23.5436 47.5796 23.265 49.5558 24.4169L54.822 27.4743C52.7719 27.5594 49.9957 28.8035 48.5519 29.9391C43.2844 33.6419 39.2736 40.6555 38.4418 46.7099L31.1391 42.4703C31.688 37.6485 34.2684 32.3359 37.9315 28.5191C38.1477 28.2935 38.1405 27.9353 37.915 27.7187C37.69 27.5025 37.3307 27.5092 37.1145 27.7352C33.2859 31.7247 30.6034 37.2885 30.0288 42.3491C29.3088 42.561 28.5961 42.8489 27.9114 43.2482C23.1681 45.9872 19.3186 52.6625 19.3302 58.1299C19.3424 60.8788 20.3026 62.949 22.0349 63.96C27.8449 67.3324 30.2271 68.7336 30.3707 68.7962C32.3674 70.0026 34.8858 69.4143 36.9144 68.2384C41.3222 65.6918 45.8718 63.0624 50.1895 60.5596L59.3382 65.84C59.5133 65.9408 59.7282 65.941 59.9036 65.84C60.3504 65.5807 66.0149 62.294 65.894 62.3641C66.0681 62.263 66.1754 62.0767 66.1759 61.8755L66.2019 50.8638C70.6194 46.8711 73.6813 40.4316 73.6699 35.0998C73.6607 32.2457 72.7578 29.4987 70.2974 28.0675ZM53.8939 25.6264C54.2256 25.397 54.5655 25.182 54.9121 24.983C57.4328 23.5237 59.7765 23.2744 61.5105 24.281L66.9415 27.4301C66.9321 27.4307 66.9227 27.4318 66.9133 27.4323C64.5943 27.6653 62.3927 28.8637 60.604 30.3272C59.981 29.3714 59.1878 28.6412 58.2525 28.1587L53.8939 25.6264ZM22.6043 62.9816C21.2334 62.1817 20.4728 60.4565 20.4623 58.126C20.4518 53.0212 24.047 46.787 28.4797 44.2277C29.122 43.8529 29.7859 43.5694 30.4559 43.3831L30.4705 43.3916L37.5296 47.499C37.2351 47.6198 36.6932 47.8801 36.2892 48.1159C31.5343 50.8549 27.6848 57.5307 27.708 62.9949C27.708 63.8733 27.8995 65.5057 28.3012 66.2888L22.6043 62.9816ZM59.8688 43.4467L49.844 37.6616L49.8617 36.2337L61.0965 42.7319L59.8688 43.4467ZM59.5869 44.5909C59.768 44.6945 59.9841 44.6895 60.1546 44.5898L62.5094 43.22C62.6835 43.1189 62.7908 42.932 62.7908 42.7303C62.7908 42.5285 62.683 42.3417 62.5083 42.2411L50.4367 35.2581L51.0632 34.8942L64.5265 42.676L59.6769 45.4952C53.0935 41.6902 51.9756 41.0442 46.2154 37.715L46.9423 37.2943C64.2705 47.2936 58.294 43.8448 59.5869 44.5909ZM45.5957 56.6004L45.6482 38.695L59.1104 46.4761L59.0573 64.3707C49.5481 58.8818 64.421 67.4667 45.5957 56.6004ZM60.1901 64.3648L60.2426 46.4763L65.0861 43.6607L65.066 50.62C65.066 50.625 65.0699 50.6289 65.07 50.6339L65.0444 61.5483L60.1901 64.3648ZM66.2056 49.3035C66.2135 45.8759 66.2208 42.5052 66.2213 42.6733C66.2208 42.474 66.1144 42.2861 65.9382 42.1841L51.3456 33.7499C51.1699 33.6488 50.9532 33.6482 50.7785 33.7505L49.0234 34.7692C48.889 34.8473 48.7441 35.0709 48.7415 35.2518L48.7198 37.0128L47.2247 36.1501C47.05 36.0495 46.8339 36.0489 46.6581 36.1506C46.4784 36.2546 47.3288 35.7625 44.8025 37.2247C44.6261 37.3268 44.5194 37.5148 44.5189 37.7139L44.4625 56.9254C44.462 57.1283 44.5698 57.3162 44.7455 57.4174L49.0581 59.9065C44.9934 62.2621 40.9313 64.61 36.3451 67.26C34.2877 68.454 32.3192 68.6591 30.9456 67.8205L30.9451 67.8217C29.4472 66.8792 28.8401 64.719 28.8401 62.9926C28.818 57.8884 32.4132 51.6548 36.8569 49.0954C37.9182 48.4762 39.184 48.1481 39.0668 48.1813C39.2893 48.1183 39.4609 47.9292 39.4798 47.6881C39.9154 42.129 43.6998 34.7469 49.2247 30.8495C52.7586 28.108 57.8388 27.4576 59.9584 31.4598C60.1388 31.801 60.5816 31.8429 60.8345 31.6179C61.6056 30.9325 62.4049 30.3548 63.28 29.8496C65.1734 28.7455 67.6299 28.0166 69.5976 28.9989C71.456 29.8966 72.5278 32.1215 72.5378 35.1026C72.5477 39.8277 69.9889 45.4906 66.2056 49.3035Z" fill="white"/>
<path d="M47.8245 42.4892C47.6499 42.3886 47.4343 42.3892 47.2596 42.4898C47.0849 42.5904 46.9766 42.7761 46.976 42.9779L46.9534 48.7284C46.9528 48.9312 47.0606 49.1192 47.2364 49.2209L56.8817 54.7912C56.969 54.8415 57.0669 54.8669 57.1647 54.8669C57.4762 54.8669 57.7299 54.6145 57.7308 54.3031L57.7529 48.552C57.7534 48.3492 57.6456 48.1612 57.4698 48.0595L47.8245 42.4892ZM56.6025 53.3225L48.0866 48.4044L48.1042 43.9563L56.6197 48.876L56.6025 53.3225Z" fill="white"/>
<path d="M55.5009 55.7972L49.757 52.4811C49.4856 52.3242 49.1407 52.4176 48.9837 52.6884C48.8273 52.9593 48.9201 53.3053 49.191 53.4618L54.9348 56.7778C55.2027 56.9326 55.55 56.8436 55.7082 56.5705C55.8646 56.2997 55.7717 55.9536 55.5009 55.7972Z" fill="white"/>
</svg>
