<svg width="93" height="92" viewBox="0 0 93 92" fill="none" xmlns="http://www.w3.org/2000/svg">
<rect x="0.5" width="92" height="92" rx="46" fill="black"/>
<path d="M41.2194 68.5681C41.3178 68.5681 41.4162 68.5427 41.5035 68.4912L59.0905 58.2705C59.2641 58.1699 59.3713 57.9842 59.3724 57.783L59.4321 38.5261C59.4332 38.3232 59.3249 38.1358 59.1491 38.0341C58.9733 37.9329 58.7555 37.9329 58.5819 38.0352L40.995 48.2559C40.8214 48.3566 40.7142 48.5423 40.7131 48.7435L40.6534 68.0004C40.6516 68.3143 40.9074 68.5681 41.2194 68.5681ZM41.844 49.0713L58.2967 39.51L58.2414 57.4552L41.7888 67.0165L41.844 49.0713Z" fill="white"/>
<path d="M31.4972 61.2815H31.4995C31.8112 61.2815 32.0644 61.0294 32.0655 60.7177L32.0721 58.9112C32.0732 58.5983 31.8212 58.3441 31.5083 58.343H31.5061C31.1943 58.343 30.9412 58.595 30.94 58.9068L30.9334 60.7132C30.9323 61.0261 31.1844 61.2804 31.4972 61.2815Z" fill="white"/>
<path d="M30.9091 68.5123C30.908 68.7151 31.0163 68.9025 31.1921 69.0042L38.2775 73.0947C38.4522 73.1953 38.6678 73.1959 38.8425 73.0953C38.8431 73.095 38.8433 73.0942 38.8439 73.0938C74.1921 52.553 56.6278 62.7596 61.7294 59.7951C61.903 59.6945 62.0102 59.5087 62.0113 59.3075L62.0909 33.9237C62.092 33.7209 61.9837 33.5335 61.8079 33.4318C61.8074 33.4315 61.8069 33.4316 61.8064 33.4313C61.8051 33.4307 61.8047 33.4291 61.8035 33.4284L57.8589 31.1545V24.9915C57.8557 23.6241 57.3634 22.5876 56.4812 22.0549C56.3263 21.9477 52.8302 19.9232 51.5275 19.1631C50.6065 18.6385 49.4247 18.7347 48.2009 19.4384L37.0559 25.9058C34.7365 27.2435 32.919 30.3937 32.919 33.0774L32.9211 41.6884L31.2846 42.6362C31.281 42.6382 31.2765 42.6372 31.2728 42.6393C31.097 42.7404 30.9898 42.9267 30.9887 43.1285L30.9456 57.0566C30.9445 57.369 31.1976 57.6232 31.5094 57.6243C31.5105 57.6243 31.5105 57.6243 31.5116 57.6243C31.8234 57.6243 32.0765 57.3723 32.0777 57.06L32.1175 44.112C32.2323 44.1782 38.4616 47.7715 38.073 47.5473C38.0446 56.6013 38.0257 62.6508 37.9976 71.6259L32.0423 68.1878L32.06 62.6336C32.0611 62.3212 31.8079 62.067 31.4961 62.0659C31.495 62.0659 31.495 62.0659 31.4939 62.0659C31.1822 62.0659 30.929 62.3179 30.9279 62.6302L30.9091 68.5123ZM60.8804 58.9797L39.1299 71.6188C39.1472 66.0759 39.1875 53.2 39.2052 47.5473L60.9555 34.9077L60.8804 58.9797ZM57.8644 32.4644L60.3906 33.921L38.6402 46.5667C38.5254 46.5004 32.3001 42.9069 32.6887 43.1312L33.4559 42.6874C33.7392 42.8515 38.2732 45.4613 38.1548 45.4023C38.3275 45.4884 38.5569 45.4717 38.6921 45.3937C40.6238 44.275 31.6954 49.4459 57.5814 34.4538C57.7572 34.3527 57.8644 34.1658 57.8644 33.9641V32.4644ZM56.7268 33.6374C32.388 47.7285 40.7953 42.861 38.974 43.9155C38.9901 32.3606 38.973 46.8146 38.9773 35.9342C38.9685 33.6623 40.5704 30.8862 42.5494 29.7442C55.1895 22.4042 53.5284 23.3515 54.0011 23.1281C55.5966 22.3854 56.7225 23.0884 56.7268 24.9932V33.6374ZM37.6231 26.8858L48.7669 20.4184C49.6259 19.9242 50.4076 19.827 50.9636 20.1442L53.9818 21.8998C53.6954 21.9982 53.4058 22.1309 53.1161 22.2978C51.9726 22.9619 57.2406 19.9025 41.9811 28.7647C39.6517 30.1102 37.8331 33.2598 37.842 35.9342C37.8419 36.0475 37.8372 44.4533 37.8375 43.9169L34.0533 41.7195L34.051 33.0774C34.051 30.7995 35.653 28.0218 37.6231 26.8858Z" fill="white"/>
</svg>
