<svg width="93" height="92" viewBox="0 0 93 92" fill="none" xmlns="http://www.w3.org/2000/svg">
<rect x="0.5" width="92" height="92" rx="46" fill="black"/>
<path d="M56.9678 43.5616C54.8234 45.7242 53.3513 46.3225 52.7662 46.7058C51.6905 47.3232 50.6391 47.7008 49.6397 47.829C47.5234 48.1066 43.652 49.9334 41.802 50.9986C40.8935 51.5259 40.0445 52.1068 39.2267 52.7096L21.691 42.7397C20.7538 42.2167 19.6026 42.8589 19.5474 43.916L19.3318 47.839C19.2997 48.5609 19.679 49.253 20.2931 49.599C21.4866 50.2896 23.0043 49.5227 23.1542 48.1574C23.1839 47.9086 23.4513 47.8079 23.6186 47.923L36.9343 57.0694C36.9791 57.2043 37.0151 57.3401 37.0796 57.4727C37.6285 58.5799 38.0299 59.7407 38.3062 61.0215C38.6003 62.3752 39.2299 63.363 40.1243 63.8776C41.5758 64.7141 43.6951 65.9747 44.0125 66.0992C45.4513 66.6692 47.0415 66.1292 48.3799 65.3563C49.3324 64.8063 50.3837 64.0086 51.5059 62.9833C54.111 60.5772 55.7431 57.6588 56.3188 53.7111C56.3526 53.49 56.5118 53.2578 56.6334 53.1876L57.7677 52.5342L58.2944 54.2169C58.8129 55.4241 59.5785 56.2035 60.5702 56.533C62.4019 57.142 64.5889 56.0721 66.2267 55.0151C69.519 53.0223 71.5731 49.9489 72.3337 45.8789C72.5195 44.8651 72.7417 43.8292 72.9694 42.8176C73.0844 42.3301 73.4188 41.3224 73.4326 41.2803C73.8301 40.1665 73.7239 39.1599 73.1491 38.5878C72.9521 38.3918 71.5235 37.5294 50.9669 25.8497C50.0347 25.3273 48.8787 25.9633 48.8233 27.0255L48.6077 30.9485C48.5756 31.6699 48.9548 32.3619 49.5684 32.7085C50.7654 33.4012 52.2807 32.6288 52.4295 31.2669C52.4605 31.0076 52.7385 30.9258 52.8939 31.0325L63.6495 38.4224C61.635 39.6685 58.5722 41.9172 56.9678 43.5616ZM23.4638 46.7434C22.733 46.7434 22.1167 47.2939 22.0293 48.0286C21.9597 48.6604 21.3102 48.8804 20.8547 48.6162C20.6032 48.4747 20.4495 48.1889 20.4622 47.8948L20.6778 43.9768C20.6855 43.8248 20.7906 43.7512 20.8353 43.7264C20.8807 43.7009 21.0023 43.6506 21.1349 43.7258L38.2388 53.4502C37.4063 54.127 36.9462 54.9325 36.8165 55.6148L24.2603 46.9905C24.0293 46.8313 23.7462 46.7434 23.4638 46.7434ZM72.363 40.9111C72.3592 40.9222 71.996 42.0133 71.8661 42.5633C71.6339 43.5959 71.4084 44.6462 71.2204 45.6732C70.5223 49.4105 68.6451 52.228 65.627 54.0549C64.3557 54.876 62.3656 55.9366 60.9267 55.4589C60.2463 55.2323 59.7256 54.6801 59.3552 53.8249L58.7736 51.9602C58.7729 51.9578 58.7744 51.9556 58.7737 51.9533C58.6131 51.3919 57.965 51.1097 57.3713 51.4541L56.0673 52.207C55.6317 52.4585 55.2835 52.9941 55.1995 53.5436C54.6613 57.2324 53.1521 59.9215 50.7397 62.1497C49.6801 63.1176 48.6961 63.8666 47.8139 64.3757C44.9858 66.0103 43.3712 65.087 42.8953 62.8014C42.7892 62.3228 42.6471 61.8827 42.5105 61.4365C41.7713 59.0046 41.3746 58.9665 41.3714 58.1686C41.3697 57.523 41.8083 56.8655 42.3194 56.4434C43.6749 55.318 44.5122 54.8499 44.7308 54.7092C46.7158 53.4317 49.0276 52.2718 51.9414 51.2833C53.1551 50.8622 53.6819 51.0814 55.4012 50.3859C57.4507 49.5581 59.7312 47.9223 61.244 46.3841C62.9065 44.7113 65.7241 42.6439 67.6655 41.4376C67.9505 41.2613 68.239 41.077 68.5163 40.9183C69.7532 40.2034 70.9492 39.6611 71.787 39.3595C72.6371 39.0406 72.6653 40.0624 72.363 40.9111ZM52.7391 29.8529C52.0083 29.8529 51.392 30.4035 51.3046 31.1387C51.2367 31.7666 50.5789 31.9861 50.1306 31.7257C49.8791 31.5836 49.7254 31.2984 49.7381 31.0043L49.9537 27.0857C49.9651 26.8625 50.2112 26.724 50.4103 26.8353L67.345 36.4911C66.5438 36.8139 65.4082 37.3868 64.7116 37.7785L53.5367 30.1006C53.3057 29.9408 53.0227 29.8529 52.7391 29.8529ZM65.0432 38.8951C66.219 38.2158 67.2864 37.7067 68.3184 37.3352C68.4552 37.2824 68.6116 37.2537 68.7513 37.3019L70.8433 38.5079C69.182 39.1729 67.787 40.0295 67.0741 40.4723C65.1872 41.6398 62.3014 43.729 60.4386 45.5859C58.6859 47.3708 56.2648 48.8901 54.6617 49.4687C53.4576 49.9031 52.7068 49.8247 51.5678 50.2126C48.7592 51.1729 45.7827 52.5588 43.3333 54.257C42.725 54.6779 42.1425 55.1164 41.5919 55.5711C40.8313 56.2044 40.2371 57.1783 40.2371 58.1686C40.2371 59.2024 40.7411 59.564 41.3981 61.6547C41.5392 62.1067 41.6799 62.558 41.7859 63.0441C41.7915 63.0698 41.8024 63.0899 41.8081 63.1153C41.8464 63.2895 41.8879 63.4601 41.9379 63.6217L40.6903 62.897C39.9176 62.4526 39.5693 61.5013 39.4129 60.7821C39.116 59.409 38.6849 58.162 38.0956 56.9735C37.699 56.1591 37.8582 55.2211 38.9666 54.3225C40.0059 53.4787 41.1462 52.6879 42.3686 51.9787C44.084 50.9913 47.8397 49.2068 49.7851 48.9517C50.9315 48.8047 52.1239 48.3796 53.3322 47.6864C53.8697 47.3339 55.5081 46.6423 57.7748 44.3554C59.1105 42.9881 62.3316 40.4616 65.0432 38.8951Z" fill="white"/>
<path d="M68.4699 42.722C67.6064 43.1111 66.7419 43.555 65.9 44.0403C64.5115 44.8419 63.1235 45.7959 61.7697 46.8788C61.2766 47.2823 60.9057 47.9147 60.8029 48.5228C60.5083 50.1645 60.7709 51.3004 61.7084 52.349C62.7255 53.3445 64.2046 53.0668 65.4285 52.3607C67.5047 51.1617 69.3366 48.5123 69.8827 45.9192C70.0586 45.0969 70.4647 43.2784 69.8043 42.7546C69.4814 42.4987 69.0392 42.4848 68.4699 42.722ZM68.7755 45.6843C68.2979 47.9512 66.6523 50.3469 64.8625 51.38C64.155 51.7885 63.1115 52.1349 62.5265 51.5674C61.9671 50.9406 61.6492 50.2165 61.9184 48.7173C61.9765 48.3724 62.2048 47.9855 62.4817 47.7594C63.7862 46.7152 65.1273 45.7943 66.4661 45.021C67.2753 44.5544 68.1061 44.1277 68.9193 43.7606C68.9729 43.7385 69.0182 43.7225 69.0547 43.7114C69.0524 43.8398 68.938 44.923 68.7755 45.6843Z" fill="white"/>
<path d="M52.4566 52.7675C52.1769 52.6133 51.8348 52.5917 51.4837 52.7116C50.1239 53.1948 48.7282 53.847 47.3358 54.6502C45.4102 55.7636 43.2639 56.8926 43.6626 58.6506C43.7195 59.2167 43.8157 59.7352 43.9484 60.1895C44.6064 62.4703 46.8267 62.9909 48.9802 61.7489C50.2433 61.02 51.4685 59.7262 52.2416 58.0652C52.2438 58.0614 52.2455 58.0569 52.2477 58.0531C53.0818 56.141 53.3007 54.8315 53.0028 53.5309C52.9237 53.1903 52.7297 52.9195 52.4566 52.7675ZM51.2123 57.5937C50.5337 59.0483 49.4654 60.1618 48.4142 60.7683C46.9726 61.5997 45.5021 61.4918 45.0357 59.8739C44.9218 59.4842 44.8389 59.0348 44.7786 58.4726C44.5473 57.4162 46.4805 56.4513 47.9018 55.6308C49.2345 54.8619 50.5673 54.2384 51.8994 53.7851C52.1377 54.8243 51.9387 55.9282 51.2123 57.5937Z" fill="white"/>
</svg>
