<svg width="93" height="92" viewBox="0 0 93 92" fill="none" xmlns="http://www.w3.org/2000/svg">
<rect x="0.5" width="92" height="92" rx="46" fill="black"/>
<path d="M31.5961 69.9936C31.7107 70.0602 37.0446 73.1598 36.93 73.0932C36.9307 73.0935 36.9309 73.0943 36.9315 73.0946C37.1037 73.1938 37.3198 73.1961 37.497 73.0941L54.6782 63.174C54.746 63.1348 54.7931 63.0743 54.8384 63.0136C54.8517 62.9958 54.8731 62.9874 54.8844 62.9679C54.7636 63.1758 59.7678 54.5596 61.7107 51.2144C61.7602 51.1291 61.7877 51.0312 61.7874 50.9291L61.7067 22.4934C61.7061 22.2863 61.592 22.1019 61.4231 22.0042C61.4224 22.0038 61.4216 22.0041 61.4209 22.0036L56.0917 18.907C55.9159 18.8048 55.6992 18.8048 55.5245 18.9059L31.4955 32.7794C31.3164 32.8825 31.2129 33.1547 31.2125 33.2691C31.2125 33.2688 31.2125 33.2694 31.2125 33.2691C31.2125 33.2694 31.2125 33.2705 31.2125 33.2708L31.2341 42.2102C31.2346 42.5225 31.4884 42.7751 31.8001 42.7751C32.113 42.7746 32.3667 42.5203 32.3662 42.208L32.3468 34.2547L36.546 36.6945L36.6451 71.6187L32.4463 69.1782L32.4026 51.2552C32.4021 50.9429 32.1484 50.6903 31.8366 50.6903C31.5237 50.6908 31.27 50.9451 31.2706 51.2574L31.3148 69.5055C31.3153 69.7067 31.4226 69.8924 31.5961 69.9936ZM37.7772 71.6248L37.6783 36.6948C42.636 33.8325 51.9875 28.4334 60.5774 23.474L60.6542 50.6044L54.0901 54.3944C53.9143 54.4961 53.8065 54.6835 53.807 54.8863L53.8281 62.3576L37.7772 71.6248ZM54.9554 60.5917L54.9402 55.2108L59.6653 52.4829L54.9554 60.5917ZM55.8064 20.0502L60.0113 22.4934L37.1119 35.7144L32.9079 33.2713L55.8064 20.0502Z" fill="white"/>
<path d="M32.3888 49.0281L32.3761 44.4992C32.375 44.1875 32.1218 43.9348 31.8101 43.9348C31.4684 43.9437 31.2429 44.1891 31.244 44.5025L31.2567 49.0314C31.2578 49.3432 31.511 49.5958 31.8228 49.5958C32.0942 49.5753 32.3899 49.3415 32.3888 49.0281Z" fill="white"/>
<path d="M52.3803 33.98L58.044 30.7104C58.3149 30.5539 58.4077 30.2079 58.2513 29.937C58.0943 29.6662 57.7477 29.5733 57.478 29.7297L51.8143 32.9994C51.5434 33.1558 51.4506 33.5018 51.607 33.7727C51.7649 34.0454 52.1121 34.1349 52.3803 33.98Z" fill="white"/>
<path d="M57.4781 35.9047L52.4362 38.8156C52.1654 38.9721 52.0725 39.3181 52.2289 39.589C52.3858 39.8605 52.7329 39.9519 53.0023 39.7962L58.0441 36.8854C58.315 36.7289 58.4078 36.3829 58.2514 36.112C58.0944 35.8406 57.7478 35.7478 57.4781 35.9047Z" fill="white"/>
<path d="M57.4781 42.0797L40.2299 52.0379C39.9591 52.1943 39.8662 52.5404 40.0226 52.8112C40.1795 53.0828 40.5266 53.1741 40.796 53.0185L58.0441 43.0604C58.3149 42.9039 58.4078 42.5579 58.2514 42.287C58.0944 42.0162 57.7478 41.9239 57.4781 42.0797Z" fill="white"/>
<path d="M57.4781 48.2553L40.2299 58.2135C39.9591 58.3699 39.8662 58.716 40.0226 58.9868C40.1795 59.2584 40.5266 59.3497 40.796 59.1941L58.0441 49.2359C58.3149 49.0795 58.4078 48.7335 58.2514 48.4626C58.0944 48.1912 57.7478 48.0983 57.4781 48.2553Z" fill="white"/>
<path d="M51.7884 57.7149L40.2299 64.3885C39.9591 64.5449 39.8662 64.891 40.0226 65.1618C40.1795 65.4334 40.5266 65.5247 40.796 65.3691L52.3544 58.6955C52.6253 58.5391 52.7181 58.193 52.5617 57.9222C52.4042 57.6502 52.0581 57.5585 51.7884 57.7149Z" fill="white"/>
<path d="M47.6873 39.4684L48.5478 38.9718L48.5508 40.0085C48.5519 40.3208 48.805 40.5729 49.1168 40.5729H49.1185C49.4308 40.5718 49.6839 40.3181 49.6828 40.0052L49.678 38.3193L51.1001 37.4984C51.371 37.3419 51.4639 36.9959 51.3074 36.725C51.151 36.4542 50.8033 36.3613 50.5341 36.5178L49.6742 37.0141L49.6712 35.9777C49.6701 35.6654 49.4169 35.4133 49.1052 35.4133H49.1035C48.7912 35.4144 48.538 35.6681 48.5391 35.981L48.544 37.6665L47.1213 38.4878C46.8504 38.6443 46.7576 38.9903 46.914 39.2612C47.0708 39.5327 47.4179 39.6241 47.6873 39.4684Z" fill="white"/>
<path d="M40.5129 48.1154C40.7523 48.1154 40.9745 47.9629 41.0519 47.723L42.202 44.1575L45.9687 41.9831L47.0246 43.7928C47.1815 44.0631 47.5298 44.1548 47.7984 43.9962C48.0687 43.8387 48.1594 43.4921 48.0019 43.2223C47.9741 43.1748 48.225 43.6049 46.6636 40.9283C46.6635 40.9281 46.6637 40.9285 46.6636 40.9283L44.3337 36.9351C44.222 36.7422 44.0125 36.6311 43.7842 36.6576C43.562 36.6819 43.3746 36.8339 43.3061 37.0468L39.974 47.3758C39.8567 47.7404 40.1283 48.1154 40.5129 48.1154ZM43.9948 38.6L45.3981 41.0052L42.7203 42.5509L43.9948 38.6Z" fill="white"/>
</svg>
