<svg width="93" height="92" viewBox="0 0 93 92" fill="none" xmlns="http://www.w3.org/2000/svg">
<rect x="0.5" width="92" height="92" rx="46" fill="black"/>
<path d="M29.1593 58.9209H29.161C29.4733 58.9198 29.7265 58.6661 29.7254 58.3532C29.7252 58.2369 29.7224 56.2057 29.7226 56.335C29.7226 56.0222 29.4694 55.769 29.1566 55.769C28.8445 55.769 28.5867 56.0262 28.5878 56.34C28.5879 56.4562 28.5907 58.4797 28.5905 58.3504C28.5905 58.6404 28.8297 58.9209 29.1593 58.9209Z" fill="white"/>
<path d="M28.5703 47.8363C28.5702 47.8396 28.5679 47.8422 28.5679 47.8456L28.5795 54.1516C28.58 54.4639 28.8332 54.7165 29.1455 54.7165C29.145 54.7165 29.1461 54.7165 29.1455 54.7165C29.4578 54.716 29.7121 54.4622 29.7116 54.1494L29.7016 48.8256L32.1006 50.2098C32.1062 52.4575 32.149 69.6049 32.154 71.6162L29.7563 70.2173L29.7337 60.7268C29.7331 60.4145 29.4794 60.1619 29.1676 60.1619C28.8548 60.1624 28.601 60.4167 28.6016 60.729L28.6248 70.544C28.6254 70.7452 28.732 70.9304 28.9056 71.0316C29.2695 71.2431 27.5877 70.2646 32.465 73.0997C32.689 73.2156 32.8581 73.1694 32.9909 73.0973C33.1588 73.006 64.0339 55.1729 64.1492 55.1046C64.2946 55.0207 64.4329 54.8325 64.4322 54.6126C64.4319 54.4973 64.3594 31.781 64.3615 31.8949C64.3577 31.6895 64.2274 31.4992 64.0818 31.415L61.3288 29.8231L61.3074 19.3944C61.3069 19.1921 61.1991 19.0058 61.0238 18.9052C60.8492 18.8046 60.6341 18.8046 60.4583 18.9052L47.5811 26.3348L44.7934 25.6927C44.57 25.643 44.3395 25.7292 44.2063 25.9138L41.3071 29.9481L35.3603 33.3845C35.1845 33.4862 35.0768 33.6736 35.0773 33.8759L35.0868 38.5851L28.6629 47.5023C28.5914 47.6016 28.5678 47.7183 28.5703 47.8363ZM45.6169 53.715L33.2842 70.8536L33.234 50.6095C33.4735 50.6696 45.8111 53.7637 45.6169 53.715ZM33.6129 49.5364L35.1038 47.4658L35.1094 49.9118L33.6129 49.5364ZM61.3381 34.3917L61.333 31.916L62.8471 32.2661C62.7668 32.3793 61.2406 34.529 61.3381 34.3917ZM50.9255 51.038C51.5921 50.0977 49.0874 53.6306 63.2377 33.672L63.2979 53.9017L50.9255 51.038ZM34.7224 70.7944L36.5243 68.2904C37.7492 66.5881 32.087 74.4569 48.5039 51.6423C51.9258 52.434 58.9158 54.0506 62.3383 54.8431L34.7224 70.7944ZM44.9061 26.8806L46.1383 27.1642L43.6834 28.582L44.9061 26.8806ZM60.1775 20.3739C60.1808 21.9712 60.1659 14.5886 60.209 35.993L49.7335 50.7619L48.3936 50.4513C48.1901 50.4052 47.9259 50.5099 47.8078 50.6715C47.8074 50.6722 47.8065 50.6723 47.806 50.673L46.3286 52.726L36.2421 50.1959C36.2419 50.0818 36.2097 34.0843 36.2099 34.201C77.056 10.6367 51.2834 25.505 60.1775 20.3739ZM35.1 45.5339L32.5065 49.1353L29.9503 47.6524L35.0906 40.5166C35.0909 40.6329 35.1006 45.8614 35.1 45.5339Z" fill="white"/>
<path d="M48.5378 46.3989C51.9598 44.4263 54.8667 39.5333 54.8549 35.4469C54.8424 31.2071 51.6793 29.3356 47.9386 31.5045C44.4368 33.516 41.5978 38.4241 41.6094 42.4461C41.622 46.723 44.8037 48.5566 48.5378 46.3989ZM48.5047 32.4851C51.4836 30.7574 53.7126 32.0792 53.7228 35.4502C53.7334 39.1345 51.1354 43.5953 47.9718 45.4183C44.9894 47.1387 42.7518 45.8382 42.7415 42.4428C42.731 38.7834 45.3152 34.317 48.5047 32.4851Z" fill="white"/>
<path d="M47.1941 41.728C47.4633 41.9775 47.8901 41.9087 48.0708 41.5948L50.7772 36.8703C50.9325 36.5989 50.8385 36.2534 50.5671 36.0975C50.2946 35.9422 49.9497 36.0356 49.7943 36.3076L47.4423 40.4135L46.5645 39.5976C46.3362 39.3859 45.9791 39.3975 45.7646 39.6269C45.5518 39.8558 45.5651 40.214 45.7939 40.4268L47.1941 41.728Z" fill="white"/>
</svg>
