<svg width="93" height="92" viewBox="0 0 93 92" fill="none" xmlns="http://www.w3.org/2000/svg">
<path d="M15.7893 76.0863C16.7624 76.6482 17.7981 77.1831 18.8669 77.6763C19.3051 77.8772 19.8187 77.6874 20.0188 77.2517C20.2196 76.8161 20.0289 76.3007 19.5941 76.0998C18.5728 75.6294 17.5854 75.1183 16.6573 74.5827C10.141 70.8211 6.56 65.8687 6.57526 60.6374L6.64052 37.7908C13.1808 49.9437 33.345 53.8181 47.3389 52.5057L47.2609 80.2377C42.1754 80.726 36.8941 80.5607 31.9324 79.7538C31.4645 79.6809 31.0136 79.9987 30.9365 80.4717C30.8602 80.9446 31.1814 81.3905 31.6544 81.4676C34.8489 81.9863 38.1723 82.2474 41.4931 82.2474C43.7502 82.2474 46.0065 82.127 48.2204 81.8846C48.6603 81.8363 48.9934 81.4659 48.9942 81.0243L49.0773 51.5479C49.0775 51.4954 49.0546 51.448 49.0455 51.397C49.0382 51.3549 49.0468 51.312 49.0332 51.2708L42.7018 32.2671L75.6375 35.8784L75.6145 44.081L52.3303 41.5286C51.8236 41.4687 51.369 41.8964 51.3675 42.3889L51.3149 60.8111C51.3149 60.9052 51.3293 60.9985 51.359 61.0875C51.4176 61.2636 58.194 81.5861 58.1278 81.4084C58.2622 81.7693 58.6437 82.0135 59.0254 81.971C70.0491 80.7746 84.7196 75.5338 88.0678 64.9185C88.094 64.8346 88.1076 64.7473 88.1076 64.66L88.1602 46.237C88.1602 45.8123 87.8171 45.4379 87.4253 45.3767C87.2515 45.3495 77.1761 44.2326 77.3498 44.2713L77.3752 35.2099C79.5531 28.1181 75.6942 20.9069 67.0104 15.8927C52.8244 7.70247 29.8143 7.70671 15.7147 15.9003C8.78258 19.9289 4.96009 25.3336 4.93031 31.1243C4.92978 31.1355 4.92332 31.1446 4.92332 31.1559L4.83941 60.6323C4.82246 66.512 8.71117 72.0001 15.7893 76.0863ZM86.0796 46.9747C86.0479 47.0514 86.0239 47.1296 85.9907 47.2061C82.137 56.0847 69.1878 60.5763 59.5825 61.7317C58.9751 59.9053 53.9711 44.8591 53.4864 43.4018L86.0796 46.9747ZM53.088 47.7061L58.1163 62.8252L58.0794 75.7935L53.0508 60.6747L53.088 47.7061ZM86.3718 64.5202C83.2595 74.0406 69.7139 78.891 59.8028 80.1326L59.8504 63.459C69.3031 62.3125 81.2719 58.1647 86.4133 50.1087L86.3718 64.5202ZM16.5878 17.4005C23.3989 13.4423 32.363 11.4632 41.3389 11.4632C50.3097 11.4632 59.2915 13.4415 66.1425 17.3963C73.8445 21.8435 77.4357 28.0648 75.8761 34.1581L41.5457 30.394C41.2414 30.3592 40.9608 30.4813 40.7752 30.7118C40.5896 30.9415 40.5337 31.2509 40.6269 31.5314L47.0336 50.7617C38.4812 51.54 29.2003 50.5771 21.062 47.1884C13.8242 44.1743 6.65382 38.8285 6.66118 31.1849C6.66436 26.0149 10.1873 21.1199 16.5878 17.4005Z" fill="black"/>
<path d="M27.2629 80.5743C27.3324 80.5921 27.4028 80.5997 27.4714 80.5997C27.8613 80.5997 28.2156 80.3353 28.3131 79.9395C28.4284 79.4741 28.1436 79.0037 27.6782 78.8893C26.2908 78.5477 24.9346 78.1511 23.6463 77.712C23.1928 77.556 22.6987 77.7993 22.5444 78.2528C22.3893 78.7071 22.6317 79.2004 23.0852 79.3546C24.4218 79.8106 25.8271 80.2208 27.2629 80.5743Z" fill="black"/>
</svg>
