<svg width="93" height="93" viewBox="0 0 93 93" fill="none" xmlns="http://www.w3.org/2000/svg">
<path d="M7.21009 78.1959C7.21009 79.8004 7.79577 81.0294 8.86373 81.6575C24.3929 90.6672 17.5874 86.7232 19.3771 87.7601C20.5945 88.4634 22.0255 88.165 23.2472 87.4592L50.8228 71.5345C50.8052 71.8831 50.7793 72.234 50.7801 72.5773C50.7996 77.0983 52.3803 80.5039 55.2392 82.172L61.1248 85.5208C61.1308 85.5241 61.1376 85.5226 61.1436 85.5257L61.1511 85.5309C62.3555 86.2234 63.7142 86.5684 65.1763 86.5684C67.2215 86.5684 69.4693 85.8937 71.7823 84.5587C79.6055 80.042 85.9497 69.0404 85.9242 60.0348C85.9115 55.5104 84.3223 52.1091 81.4499 50.4554C81.4378 50.4485 81.4244 50.4446 81.4123 50.4377C81.3901 50.4249 81.3678 50.412 81.3456 50.3995L75.5871 47.1244C72.7816 45.4912 69.1413 45.7758 65.3021 47.8868L65.2025 14.7866C65.1928 13.2354 64.6241 12.0536 63.6189 11.4163C63.3781 11.2249 63.973 11.6157 53.0287 5.24536C51.965 4.61815 50.5555 4.72071 49.1603 5.52422L44.7868 8.04917C44.3715 8.28903 44.2291 8.81962 44.469 9.23493C44.7088 9.65025 45.2403 9.7901 45.6547 9.55278L50.0283 7.02783C50.8648 6.54555 51.6378 6.43876 52.1523 6.74389L60.1408 11.3776C59.7784 11.5482 25.3593 31.4368 22.6569 32.9884C22.4768 32.8838 13.326 27.565 13.8899 27.8928L38.4605 13.7068C38.8758 13.4669 39.0182 12.9363 38.7783 12.521C38.5367 12.104 38.0053 11.9633 37.5925 12.2032L11.7266 27.1376L11.7235 27.1384C9.12012 28.6412 7.08814 32.1562 7.08285 35.1526C7.08263 35.1615 7.07617 35.1687 7.07617 35.1777L7.21009 78.1959ZM9.73928 80.1581C9.22734 79.8572 8.94594 79.1605 8.94594 78.1934L8.81711 36.6892C8.9911 36.7903 18.1532 42.1156 17.5725 41.7781L17.6206 56.6476L17.6972 84.313C17.6989 84.4757 17.7066 84.6342 17.7201 84.7893L9.73928 80.1581ZM22.3784 85.9556C20.5489 87.0165 19.4458 86.2123 19.4458 84.2926L19.3551 56.2265L19.3136 41.2858L19.3153 41.2795C19.309 39.0734 20.8539 36.2346 22.8401 34.9183C23.2521 34.6466 60.3645 13.2282 60.7222 13.0403C62.4486 12.1531 63.4552 12.9608 63.4667 14.7942L63.5695 48.9463C57.2623 53.2866 52.1668 61.6961 51.0275 69.4114L22.3784 85.9556ZM84.1884 60.0399C84.2121 68.4911 78.2579 78.8155 70.9144 83.0551C67.5071 85.0232 64.3465 85.3665 62.0165 84.0265C59.2946 82.4596 58.4163 79.0368 58.4075 75.921C58.3945 71.3212 60.1686 66.1685 62.9685 61.7407C65.6228 57.5442 68.8614 54.5616 71.6933 52.927C78.804 48.8216 84.1657 52.0689 84.1884 60.0399ZM74.7217 48.6289L76.233 49.4883C74.4126 49.7089 72.0648 50.5205 69.5404 52.2401C66.5582 54.2747 63.9582 57.1459 61.976 60.1216C58.7338 64.9879 56.6546 70.7812 56.6657 75.9253C56.6755 78.2337 57.1293 80.2038 57.7421 81.599L56.1054 80.6683C53.8076 79.3275 52.5329 76.4516 52.5159 72.5722C52.4981 64.1362 58.46 53.8212 65.8069 49.579C68.555 47.9903 71.9669 47.0264 74.7217 48.6289ZM12.1795 28.9065C12.3642 29.0139 21.626 34.3996 21.0621 34.0718C19.4035 35.5026 18.1007 37.8486 17.7184 39.8547C17.5444 39.7535 8.24669 34.3472 8.83883 34.6915C9.03049 32.5878 10.4479 30.1331 12.1795 28.9065Z" fill="black"/>
<path d="M41.0869 12.1905L43.1881 10.9767C43.6034 10.7369 43.7458 10.2063 43.5059 9.79095C43.2644 9.37394 42.733 9.2324 42.3202 9.47311L40.219 10.6868C39.8037 10.9267 39.6613 11.4573 39.9012 11.8726C40.1417 12.289 40.6739 12.4291 41.0869 12.1905Z" fill="black"/>
<path d="M53.3286 57.2911C57.1207 50.978 59.5316 43.7865 59.5126 37.4705C59.4914 29.9719 56.224 25.495 50.7715 25.495C48.3838 25.495 45.6334 26.3544 42.8169 27.9801C32.1901 34.1164 23.3494 49.632 23.3844 61.6105C23.4056 69.1166 26.6772 73.5987 32.1365 73.5987C34.5267 73.5987 37.2796 72.7384 40.0987 71.111C45.1214 68.2112 49.7521 63.1964 53.2385 57.4381C53.2562 57.4135 53.2853 57.4028 53.3007 57.3759C53.316 57.3489 53.3164 57.3189 53.3286 57.2911ZM41.1267 68.3954L41.1192 65.8323C41.1175 65.3534 40.7293 64.9669 40.2513 64.9669H40.2487C39.769 64.9686 39.3817 65.3576 39.3833 65.8373L39.3942 69.5033C39.3392 69.5356 39.2859 69.5756 39.2308 69.6074C36.6753 71.083 34.2224 71.8628 32.1365 71.8628C31.4298 71.8628 30.7875 71.7277 30.1758 71.533L32.1153 68.1546C32.3543 67.7385 32.2103 67.2087 31.7949 66.9697C31.3771 66.7315 30.8473 66.8731 30.61 67.2901L28.6214 70.754C26.4087 69.1961 25.1325 66.0371 25.1202 61.6054C25.1191 61.186 25.1526 60.7548 25.1735 60.3279L28.2546 58.549C28.6699 58.3091 28.8123 57.7785 28.5724 57.3632C28.3317 56.9479 27.7994 56.8064 27.3867 57.0454L25.3601 58.2155C25.9131 53.8524 27.4851 49.2419 29.7683 44.9276L31.5135 45.9217C31.9291 46.1581 32.4596 46.0139 32.6976 45.5971C32.9349 45.1801 32.7892 44.6503 32.373 44.413L30.5965 43.4011C33.4899 38.3908 37.314 33.9185 41.5193 30.9001L41.5269 33.4783C41.5286 33.9572 41.9168 34.3437 42.3948 34.3437H42.3974C42.8771 34.342 43.2644 33.953 43.2627 33.4733L43.2518 29.7598C43.3971 29.6719 43.5389 29.5679 43.6848 29.4837C46.2377 28.0097 48.6881 27.2308 50.7715 27.2308C51.7436 27.2308 52.6137 27.4493 53.4031 27.8148L51.3648 31.3653C51.1258 31.7815 51.2698 32.3112 51.6852 32.5502C52.1028 32.7889 52.6325 32.6446 52.8701 32.2299L54.8655 28.754C56.7225 30.4338 57.7655 33.4408 57.7767 37.4755C57.7787 38.1537 57.7458 38.8444 57.6909 39.5414L54.4118 41.4346C53.9965 41.6745 53.8541 42.2051 54.094 42.6204C54.3345 43.0368 54.8667 43.1768 55.2798 42.9382L57.4349 41.6939C56.7121 46.3662 54.8588 51.2864 52.2538 55.7804L50.474 54.7662C50.0553 54.5298 49.5264 54.6738 49.2899 55.0909C49.0526 55.507 49.1984 56.0376 49.6145 56.2749L51.3451 57.261C48.5248 61.7361 44.9874 65.6924 41.1267 68.3954Z" fill="black"/>
<path d="M47.4058 39.4267C47.004 39.1707 46.4667 39.2885 46.2073 39.6928L42.657 45.2639C42.1012 45.1993 41.4927 45.3228 40.8913 45.6708C39.3088 46.5845 38.0731 48.7255 38.0781 50.5436C38.0807 51.581 38.4952 52.4133 39.2139 52.827C39.53 53.0092 39.8877 53.0999 40.2649 53.0999C40.3325 53.0999 40.4045 53.0748 40.4734 53.0689V62.236C40.4734 62.7157 40.8616 63.1039 41.3413 63.1039C41.8211 63.1039 42.2093 62.7157 42.2093 62.236V52.3583C43.5751 51.3332 44.5913 49.432 44.5867 47.7838C44.5847 47.152 44.4142 46.6119 44.1315 46.1807L47.6719 40.6252C47.9287 40.2209 47.8101 39.6843 47.4058 39.4267ZM40.9074 51.1547C40.5633 51.353 40.2446 51.4191 40.0793 51.3225C39.9165 51.2293 39.8148 50.9284 39.814 50.5385C39.8106 49.3468 40.7201 47.7745 41.7592 47.1744C42.0982 46.9774 42.4082 46.9152 42.5754 47.0058C42.5751 47.0055 42.5757 47.006 42.5754 47.0058C42.579 47.0081 42.5843 47.0078 42.5879 47.01C42.7482 47.1052 42.8492 47.4022 42.8509 47.7889C42.8543 49.0027 41.9643 50.5444 40.9074 51.1547Z" fill="black"/>
<path d="M70.4227 72.184L66.6383 74.1496L69.9743 67.1731C70.8668 65.4025 70.3812 64.3303 70.0125 63.8489C69.4149 63.0666 68.3512 62.7479 67.1697 62.9903C65.7525 63.2827 64.0209 64.4515 63.4132 66.857C63.2962 67.3223 63.5776 67.7936 64.0421 67.9114C64.5015 68.0258 64.9787 67.7469 65.0965 67.2825C65.5076 65.6534 66.6594 64.8677 67.5197 64.6906C68.0181 64.588 68.4572 64.6711 68.6343 64.9042C68.8386 65.1703 68.7598 65.7263 68.4165 66.4078L63.9531 75.7413C63.7921 76.0778 63.8641 76.4804 64.1328 76.7398C64.4048 77.0021 64.8076 77.0563 65.1363 76.8864L71.2228 73.7249C71.6483 73.5037 71.8136 72.9799 71.5932 72.5544C71.372 72.129 70.8499 71.9645 70.4227 72.184Z" fill="black"/>
<path d="M77.9255 65.9391L77.4534 66.1959V59.8704C77.4534 59.4661 77.1745 59.1152 76.7804 59.0245C76.382 58.9295 75.9811 59.127 75.8048 59.4915L70.6651 70.0719C70.4998 70.4109 70.5735 70.8177 70.8465 71.0779C71.1185 71.3398 71.5288 71.3932 71.8602 71.2136L75.7175 69.1158V71.3415C75.7175 71.8213 76.1057 72.2095 76.5854 72.2095C77.0652 72.2095 77.4534 71.8213 77.4534 71.3415V68.1716L78.7544 67.4647C79.1757 67.235 79.3316 66.7087 79.1028 66.2874C78.8739 65.8653 78.345 65.7119 77.9255 65.9391ZM75.7175 67.1401L73.4095 68.3953L75.7175 63.643V67.1401Z" fill="black"/>
</svg>
