<svg width="93" height="92" viewBox="0 0 93 92" fill="none" xmlns="http://www.w3.org/2000/svg">
<rect x="0.5" width="92" height="92" rx="46" fill="black"/>
<path d="M19.8067 49.8189C19.8078 50.0195 19.915 50.2047 20.0886 50.3053L21.6628 51.2202C21.6051 51.5911 21.4824 51.9885 21.2627 52.3655C20.9565 52.8851 20.5662 53.2997 20.1649 53.5318C20.0943 53.5727 20.0438 53.6351 19.9976 53.6993C19.9284 53.7942 19.8797 53.9023 19.8797 54.0238L19.8531 69.2493C19.8531 69.4517 19.9604 69.6385 20.135 69.7397C20.2496 69.8062 26.0202 73.1596 25.9056 73.093C25.9055 73.0929 25.9058 73.093 25.9056 73.093C26.0818 73.1955 26.2983 73.1938 26.4709 73.0944C26.4708 73.0945 26.471 73.0943 26.4709 73.0944C26.4711 73.0943 26.4718 73.094 26.472 73.0939L55.8806 56.1144C56.0563 56.0127 56.1636 55.8253 56.1636 55.6224L56.1603 54.3516C56.158 53.6457 56.6953 52.716 57.31 52.3611C57.7528 52.1071 57.9182 52.2327 57.9203 52.6844L57.9236 53.9558C57.9236 54.1576 58.0319 54.3439 58.2077 54.4445C58.3824 54.5451 58.598 54.5451 58.7726 54.4445L72.9291 46.2717C73.1049 46.17 73.2132 45.9821 73.2121 45.7792L73.1513 30.6046C73.1502 30.4028 73.0419 30.2165 72.8672 30.1159C72.6925 30.0153 72.477 30.0158 72.3023 30.1165C72.0111 30.2841 71.587 30.436 71.4223 30.1181C71.1669 29.6538 71.3018 28.8108 71.7595 28.0203C71.9861 27.6268 72.635 27.0447 72.9479 26.7915C73.0806 26.6837 73.1569 26.5218 73.1569 26.3504L73.1458 22.7469C73.1445 22.5115 72.9772 22.3251 72.8639 22.2594L72.8626 22.2586C72.8622 22.2584 72.8621 22.2579 72.8617 22.2577C72.8613 22.2575 72.8609 22.2576 72.8605 22.2574L67.0952 18.9068C66.9227 18.8051 66.7049 18.8051 66.528 18.9057L62.1556 21.4297C61.8848 21.5861 61.7919 21.9321 61.9489 22.203C62.1036 22.4738 62.4497 22.5645 62.7216 22.4103L66.8099 20.0499L71.4507 22.7467L26.1245 48.9165L21.575 46.2729L21.4827 46.2192L55.4173 26.6274C55.6882 26.4709 55.7811 26.1249 55.6241 25.854C55.4682 25.5815 55.121 25.4909 54.8513 25.6467L20.0709 45.7273C20.0708 45.7273 20.0711 45.7272 20.0709 45.7273C20.0707 45.7274 20.07 45.7277 20.0698 45.7278C19.9559 45.7941 19.7879 45.9743 19.7879 46.217C19.7879 46.2176 19.7883 46.2181 19.7883 46.2187C19.7883 46.2193 19.7879 46.2197 19.7879 46.2203L19.8067 49.8189ZM20.9255 47.2043L25.5594 49.8971C25.56 50.0111 25.5717 52.3161 25.5709 52.1693C25.5707 52.1733 25.5677 52.1764 25.5675 52.1805L20.9366 49.4894L20.9255 47.2043ZM22.2389 52.9376C22.4478 52.5805 22.607 52.2057 22.7099 51.8348L25.8584 53.6628C26.0331 53.7646 26.2509 53.7646 26.4278 53.6617C26.43 53.6604 26.4308 53.6579 26.433 53.6566C26.9146 53.3806 27.3656 53.3406 27.4714 53.8856C27.6463 54.8455 26.9291 56.1402 26.1923 56.707L21.4562 53.9536C21.7458 53.6695 22.01 53.3279 22.2389 52.9376ZM21.0095 55.0077L25.6484 57.7036C25.6482 57.8172 25.6249 71.4954 25.6247 71.6205L20.9863 68.9249L21.0095 55.0077ZM70.7788 27.4538C70.2548 28.3603 69.8878 29.6792 70.4229 30.6499C70.7364 31.2602 71.3506 31.5186 72.0226 31.4099L72.079 45.4553L70.7705 46.2107L70.7733 44.5294C70.7733 44.2165 70.5212 43.9628 70.2084 43.9623C69.8966 43.9623 69.6412 44.2149 69.6412 44.5272L69.6374 46.8649L67.7148 47.9748L67.7176 46.2939C67.7176 45.981 67.4655 45.7273 67.1527 45.7267C66.8409 45.7267 66.5855 45.9793 66.5855 46.2916L66.5816 48.629L64.6584 49.7393L64.6619 48.0583C64.663 47.746 64.4098 47.4917 64.0969 47.4912C63.7852 47.4912 63.5309 47.7438 63.5298 48.0561L63.5249 50.3938L61.6022 51.5037L61.605 49.8227C61.605 49.5099 61.353 49.2562 61.0401 49.2556C60.7284 49.2556 60.473 49.5082 60.473 49.8205L60.4691 52.1579L59.0535 52.9752L59.0524 52.6811C59.0501 51.3635 57.952 50.6801 56.744 51.381C55.7788 51.9382 55.026 53.2438 55.0282 54.3544L55.0304 55.2979L51.5108 57.3301L51.5137 55.649C51.5137 55.3361 51.2616 55.0824 50.9487 55.0818C50.637 55.0818 50.3816 55.3344 50.3816 55.6467L50.3777 57.9843L48.4551 59.0944L48.4579 57.4134C48.4579 57.1005 48.2059 56.8468 47.893 56.8463C47.5812 56.8463 47.3259 57.0989 47.3259 57.4112L47.322 59.7487L45.3994 60.8587L45.4022 59.1778C45.4022 58.865 45.1502 58.6113 44.8373 58.6107C44.5255 58.6107 44.2701 58.8633 44.2701 59.1756L44.2663 61.513L42.3437 62.6231L42.3465 60.9423C42.3465 60.6294 42.0944 60.3757 41.7816 60.3752C41.4698 60.3752 41.2144 60.6278 41.2144 60.9401L41.2106 63.2773L39.2868 64.388L39.2897 62.7062C39.2897 62.3933 39.0376 62.1396 38.7247 62.139C38.413 62.139 38.1576 62.3917 38.1576 62.704L38.1537 65.0423L36.2311 66.1523L36.234 64.4706C36.234 64.1578 35.9819 63.904 35.669 63.9035C35.3573 63.9035 35.1019 64.1561 35.1019 64.4684L35.098 66.8066L33.1754 67.9166L33.1782 66.2351C33.1782 65.9222 32.9262 65.6685 32.6133 65.6679C32.3015 65.6679 32.0462 65.9206 32.0462 66.2329L32.0423 68.5709L30.1197 69.681L30.1225 67.9995C30.1225 67.6867 29.8704 67.4329 29.5576 67.4324C29.2458 67.4324 28.9904 67.685 28.9904 67.9973L28.9866 70.3353L26.7572 71.6224L26.7816 57.6848C26.8037 57.6689 26.8223 57.6439 26.8442 57.6273C27.9683 56.7859 28.8479 55.0876 28.5858 53.6628C28.4662 53.1201 28.166 52.7281 27.8296 52.5357L26.7019 51.886C26.7013 51.7697 26.6914 49.7737 26.692 49.8963L31.7489 46.9766L72.017 23.7275L72.0237 26.089C71.6832 26.383 71.0685 26.9507 70.7788 27.4538Z" fill="white"/>
<path d="M60.0418 22.6496L57.6936 24.0055C57.4228 24.162 57.3299 24.508 57.4869 24.7789C57.641 25.0485 57.9872 25.1425 58.2597 24.9862L60.6078 23.6302C60.8787 23.4738 60.9716 23.1277 60.8146 22.8569C60.6587 22.5844 60.3116 22.4926 60.0418 22.6496Z" fill="white"/>
<path d="M40.6064 46.1595C40.4317 46.0589 40.2161 46.0595 40.0414 46.1601L32.9041 50.2815C32.7283 50.3833 32.6199 50.5706 32.621 50.7735L32.6476 60.353C32.6487 60.5548 32.7559 60.7411 32.9317 60.8422C33.1063 60.9428 33.322 60.9423 33.4966 60.8417L40.6351 56.7208C40.8109 56.6191 40.9192 56.4317 40.9181 56.2288L40.8905 46.6487C40.8894 46.447 40.7822 46.2607 40.6064 46.1595ZM33.7774 59.3724L33.7542 51.098L39.7617 47.6293L39.785 55.9043L33.7774 59.3724Z" fill="white"/>
<path d="M53.2217 38.8762C53.0471 38.7756 52.8315 38.7762 52.6568 38.8768L45.5194 42.9982C45.3436 43.0999 45.2353 43.2873 45.2364 43.4902L45.2629 53.0697C45.264 53.2715 45.3713 53.4578 45.5471 53.5589C45.7217 53.6595 45.9373 53.659 46.112 53.5584L53.2505 49.4375C53.4263 49.3357 53.5346 49.1484 53.5335 48.9455L53.5059 39.3654C53.5047 39.1636 53.3975 38.9774 53.2217 38.8762ZM46.3928 52.0891L46.3696 43.8147L52.3771 40.346L52.4003 48.621L46.3928 52.0891Z" fill="white"/>
<path d="M65.8371 31.5929C65.6624 31.4923 65.4468 31.4928 65.2721 31.5934L58.1336 35.7143C57.9579 35.816 57.8495 36.0034 57.8506 36.2063L57.8783 45.7864C57.88 46.0997 58.1334 46.3508 58.4443 46.3508C58.5416 46.3508 58.64 46.3253 58.7273 46.275L65.8658 42.1541C66.0416 42.0524 66.1499 41.865 66.1488 41.6622L66.1212 32.0821C66.1201 31.8803 66.0128 31.694 65.8371 31.5929ZM59.007 44.8058L58.9838 36.5308L64.9924 33.0627L65.0156 41.3377L59.007 44.8058Z" fill="white"/>
</svg>
