<svg width="93" height="92" viewBox="0 0 93 92" fill="none" xmlns="http://www.w3.org/2000/svg">
<rect x="0.5" width="92" height="92" rx="46" fill="white"/>
<path d="M35.82 71.56C35.46 71.44 35.22 71.56 34.98 71.92C34.86 72.28 34.98 72.52 35.34 72.76C36.06 73.12 36.9 73.36 37.74 73.6H37.86C38.1 73.6 38.34 73.48 38.46 73.12C38.58 72.76 38.34 72.52 38.1 72.4C37.26 72.16 36.54 71.92 35.82 71.56Z" fill="black"/>
<path d="M59.94 20.44C52.5 16.12 40.38 16.12 32.94 20.44C29.34 22.6 27.3 25.36 27.3 28.48L27.18 63.28C27.18 66.4 29.22 69.28 32.94 71.44C33.18 71.56 33.54 71.56 33.78 71.2C33.9 70.96 33.9 70.6 33.54 70.36C30.18 68.44 28.38 65.92 28.38 63.16V60.28C29.34 61.96 30.9 63.4 33.06 64.72C40.5 69.04 52.62 69.04 59.94 64.72C61.86 63.64 63.42 62.2 64.38 60.76V63.4C64.38 66.04 62.58 68.56 59.22 70.48C54.42 73.24 46.98 74.32 40.5 73C40.14 72.88 39.9 73.12 39.78 73.48C39.66 73.84 39.9 74.08 40.26 74.2C46.74 75.52 54.42 74.68 59.82 71.56C63.54 69.4 65.58 66.52 65.58 63.52C65.7 27.04 65.7 40.6 65.7 28.72C65.7 25.48 63.66 22.6 59.94 20.44ZM33.66 21.52C40.74 17.44 52.26 17.44 59.34 21.52C66.3 25.48 66.18 31.72 59.46 35.68C52.38 39.76 40.86 39.76 33.78 35.68C26.94 31.72 26.82 25.48 33.66 21.52ZM59.46 63.76C52.38 67.84 40.86 67.84 33.78 63.76C30.42 61.84 28.62 59.32 28.62 56.56V39.28C29.58 40.84 31.14 42.28 33.18 43.48C40.62 47.8 52.62 47.8 60.06 43.48C62.1 42.28 63.54 40.96 64.5 39.4V57.76C64.02 60.04 62.34 62.08 59.46 63.76ZM64.5 32.56V35.56C64.38 38.08 62.58 40.48 59.46 42.4C52.38 46.48 40.86 46.48 33.78 42.4C30.42 40.48 28.62 37.96 28.62 35.2C28.62 34.72 28.62 32.32 28.62 32.44C29.46 33.76 31.02 35.44 33.3 36.64C40.5 40.84 52.62 41.08 60.18 36.64C62.22 35.44 63.78 33.88 64.5 32.56Z" fill="black"/>
<path d="M34.62 34.12C41.1 37.84 52.02 37.96 58.5 34.12C61.14 32.56 62.7 30.52 62.7 28.6C62.7 26.68 61.14 24.64 58.38 23.08C51.78 19.24 40.98 19.24 34.5 23.08C28.86 26.32 29.1 30.88 34.62 34.12ZM35.1 24.04C41.22 20.44 51.66 20.44 57.78 24.04C60.06 25.36 61.5 27.04 61.5 28.6C61.5 30.16 60.18 31.72 57.9 33.04C51.78 36.64 41.34 36.52 35.22 33.04C30.42 30.28 30.3 26.92 35.1 24.04Z" fill="black"/>
<path d="M35.46 30.4C36.66 31.12 38.58 31.12 39.9 30.4C41.34 29.56 41.34 28 39.9 27.16C38.7 26.44 36.78 26.44 35.46 27.16C34.02 28 34.02 29.56 35.46 30.4ZM36.06 28.24C36.9 27.76 38.34 27.76 39.3 28.24C39.9 28.6 39.9 29.08 39.3 29.44C38.46 29.92 37.02 29.92 36.06 29.44C35.46 29.08 35.46 28.6 36.06 28.24Z" fill="black"/>
<path d="M54.78 48.04C51.3 50.08 48.42 54.88 48.54 58.96C48.54 63.16 51.78 65.08 55.5 62.92C58.98 60.88 61.74 56.08 61.74 52C61.62 47.68 58.5 45.88 54.78 48.04ZM54.78 61.84C51.9 63.52 49.62 62.32 49.62 58.96C49.62 55.36 52.14 50.92 55.26 49.12C58.14 47.44 60.42 48.64 60.42 52C60.42 55.6 57.9 60.04 54.78 61.84Z" fill="black"/>
<path d="M55.5 51.76C55.38 51.64 55.14 51.52 54.9 51.52C54.66 51.52 54.54 51.64 54.42 51.88C53.94 52.84 52.5 56.32 52.5 57.52C52.5 59.2 53.82 59.92 55.26 59.08C56.46 58.36 57.42 56.8 57.42 55.36C57.54 54.04 55.98 52.24 55.5 51.76C55.38 51.64 55.38 51.52 55.5 51.76ZM54.78 58C54.18 58.36 53.82 58.24 53.82 57.4C53.82 56.8 54.54 54.88 55.26 53.2C55.86 54.04 56.34 54.88 56.34 55.24C56.34 56.32 55.62 57.52 54.78 58Z" fill="black"/>
</svg>
