<svg width="93" height="92" viewBox="0 0 93 92" fill="none" xmlns="http://www.w3.org/2000/svg">
<rect x="0.5" width="92" height="92" rx="46" fill="white"/>
<path d="M73.3879 45.9942L66.212 41.8555L67.9934 40.4046C68.1493 40.2774 68.2261 40.0773 68.1952 39.8789C68.1773 39.764 66.9412 31.8186 66.959 31.9335L66.9592 31.9322C66.9274 31.7354 66.7929 31.5663 66.6032 31.4933L41.1398 21.7187C40.9496 21.6452 40.7363 21.6794 40.5793 21.8082L35.4396 25.9944C35.1975 26.1917 35.161 26.5483 35.3584 26.7909C35.5557 27.0336 35.9122 27.0712 36.1549 26.8722L41.0403 22.8933L65.2853 32.1998C45.8047 48.0662 56.6655 39.2204 45.2519 48.5165C35.6117 44.816 27.3581 41.6477 21.007 39.2098L30.3497 31.6006C30.5918 31.4032 30.6283 31.0467 30.4309 30.804C30.2342 30.563 29.8776 30.5254 29.6344 30.7228L19.5342 38.9491C19.4125 39.0484 19.3086 39.3211 19.3324 39.4748L20.5673 47.4187C20.5988 47.6193 20.7348 47.7879 20.9238 47.8603L22.273 48.3782L22.2516 55.2C22.251 55.4029 22.3588 55.5909 22.5346 55.692L47.729 70.229C47.7351 70.2328 47.7375 70.2401 47.7437 70.2437C47.9175 70.3438 48.1336 70.346 48.3114 70.2426L73.3592 55.6865C73.5327 55.5859 73.64 55.4002 73.6405 55.1989C73.6481 53.0201 73.6633 48.6623 73.6709 46.4834C73.6704 46.2816 73.5626 46.0954 73.3879 45.9942ZM72.5219 50.5151L48.6089 64.4111L48.6168 61.3687L72.5306 47.4726L72.5219 50.5151ZM71.972 46.4844L48.049 60.3872C47.6206 60.1396 50.1869 61.6229 37.1563 54.0914L46.3878 57.635C46.5856 57.7114 46.8213 57.6474 46.9461 57.5471C68.6048 39.9065 60.1951 46.7561 65.2725 42.6208L71.972 46.4844ZM20.601 40.2669C21.5521 40.632 42.1357 48.5332 44.8461 49.5736L45.2626 52.2514L21.0174 42.9445L20.601 40.2669ZM66.407 35.7491L46.3801 52.0686C46.3536 51.8985 45.9468 49.2829 45.9645 49.3966L65.9924 33.0842L66.407 35.7491ZM46.9981 56.0414L46.5817 53.3649L66.6087 37.0455L67.0266 39.7318C40.6505 61.2105 48.5136 54.8073 46.9981 56.0414ZM21.2179 44.2341L45.4631 53.541L45.8803 56.2238C45.7623 56.1785 21.5158 46.8751 21.6358 46.9212L21.2179 44.2341ZM30.42 51.5056C34.3225 53.7613 41.5712 57.9511 47.4841 61.3688L47.4756 64.4158L23.3979 50.5148L23.403 48.8128C23.5203 48.8578 30.8859 51.6844 30.42 51.5056ZM23.394 51.82L47.472 65.7212L47.4635 68.7687L23.3848 54.8756L23.394 51.82ZM48.5976 68.7672L48.6055 65.7221L72.5182 51.8262L72.5096 54.8711L48.5976 68.7672Z" fill="black"/>
<path d="M33.616 27.4797L31.7687 28.9843C31.5266 29.1817 31.4901 29.5382 31.6874 29.7809C31.8846 30.023 32.242 30.0595 32.484 29.8621L34.3313 28.3575C34.5734 28.1601 34.6099 27.8036 34.4126 27.5609C34.2163 27.3199 33.8604 27.2823 33.616 27.4797Z" fill="black"/>
</svg>
