<svg width="93" height="92" viewBox="0 0 93 92" fill="none" xmlns="http://www.w3.org/2000/svg">
<rect x="0.5" width="92" height="92" rx="46" fill="white"/>
<path d="M29.8363 35.5025C29.8363 39.8622 31.5057 43.9815 34.536 47.1019C35.9907 48.6046 37.0253 52.4992 37.4223 54.3152C36.8315 55.0853 36.5147 55.9167 36.4966 56.7698C36.4921 56.7984 36.4795 56.824 36.4795 56.8538C36.4792 57.0593 36.4678 64.3558 36.4685 63.9304C36.4685 65.6097 37.5663 67.1674 39.5562 68.3139C39.9158 68.5236 40.2984 68.7039 40.6849 68.8616C41.4829 71.4072 43.8263 73.1683 46.5101 73.1683C49.1508 73.1683 51.4819 71.434 52.2994 68.9266C52.7324 68.7449 53.1353 68.5532 53.506 68.3371C55.4418 67.2205 56.5153 65.6882 56.5285 64.0222L56.5396 56.9246C56.5396 55.9315 56.0712 54.9297 55.4409 54.1723C55.6391 51.4784 56.7569 48.9248 58.6556 46.9062C62.6256 42.6852 64.0926 36.7335 62.5792 30.9841C61.0531 25.2209 56.5837 20.9557 51.265 19.4837C46.0259 18.0322 40.6164 19.0299 36.4231 22.2211C32.2375 25.4056 29.8363 30.2468 29.8363 35.5025ZM40.3257 58.9212C40.781 59.1818 41.2767 59.4027 41.7958 59.5942C45.2404 60.8716 49.7738 60.6131 52.6547 58.93C53.8286 58.3071 54.8464 57.3623 55.2377 56.0863C55.2423 56.071 55.2505 56.0565 55.2549 56.0413C55.3975 56.4636 55.4385 56.8947 55.3732 57.3226C55.2063 58.4116 54.3462 59.4541 52.951 60.26L52.9488 60.2611C49.4354 62.3086 43.6821 62.2986 40.1245 60.2357C38.7127 59.422 37.8338 58.3762 37.6492 57.2916C37.5773 56.8693 37.6116 56.4426 37.7465 56.0247C37.7512 56.0402 37.7615 56.0545 37.7664 56.07C38.1616 57.3097 39.198 58.2721 40.3257 58.9212ZM55.3964 60.4789C55.3909 61.7171 54.5175 62.9034 52.9366 63.8177C49.432 65.8574 43.6821 65.8474 40.1201 63.7966C38.5214 62.8745 37.6347 61.6888 37.606 60.4539L37.6072 59.6373C38.1081 60.2208 38.7604 60.7568 39.5573 61.2163C43.4299 63.4601 49.6966 63.4666 53.517 61.2395C54.2859 60.7955 54.9153 60.2772 55.4031 59.7127C55.4031 59.7188 55.4039 59.6334 55.3964 60.4789ZM46.5101 72.0363C44.634 72.0363 42.9514 70.9838 42.1001 69.3741C43.3217 69.7362 44.9837 69.9952 46.5483 69.9998C46.5651 69.9999 46.5817 70.0021 46.5985 70.0021C48.0518 70.0021 49.6674 69.7722 50.8726 69.4316C50.0113 71.007 48.3486 72.0363 46.5101 72.0363ZM52.9388 67.3576C49.3809 69.4322 43.5218 69.3252 40.1245 67.3344C38.4971 66.3969 37.6005 65.1885 37.6005 63.9315L37.6016 63.2019C38.1004 63.7803 38.7502 64.3133 39.554 64.7773C43.4227 67.0052 49.6853 67.0212 53.5049 64.7961C54.2811 64.3472 54.9115 63.8311 55.3976 63.2699L55.3964 64.0167C55.3865 65.2615 54.5142 66.4488 52.9388 67.3576ZM50.9621 20.5749C55.6824 21.8802 60.0146 25.7264 61.4847 31.2732C62.8975 36.6418 61.5322 42.196 57.8308 46.1301C55.7142 48.3811 54.4869 51.2431 54.3047 54.2566C54.3024 54.2727 54.2896 54.2847 54.2887 54.3011C54.2296 55.3501 54.3919 56.7456 52.0986 57.9406C49.0949 59.7006 43.964 59.7028 40.8939 57.9384C39.5595 57.1711 38.7912 56.1806 38.7326 55.18C38.7326 54.8043 37.4785 48.514 35.3485 46.3136C32.5239 43.4055 30.9684 39.5659 30.9684 35.5025C30.9684 30.6033 33.206 26.0905 37.1086 23.1221C41.0139 20.1512 46.063 19.2179 50.9621 20.5749Z" fill="black"/>
<path d="M42.1023 56.9357C44.5438 58.3375 48.4994 58.3297 50.9223 56.9147C52.1727 56.1894 52.8902 55.1469 52.8913 54.0546C52.8979 49.0016 52.8796 62.8258 52.9145 36.5224V36.5163C52.8817 36.2145 46.9165 27.0794 46.9899 27.1927C46.7798 26.871 46.2492 26.871 46.0391 27.1927C39.7807 36.8512 40.1742 36.21 40.1399 36.3661C40.083 36.5901 40.1154 36.6765 40.0946 54.0425C40.0946 55.1613 40.8077 56.1883 42.1023 56.9357ZM44.2546 32.0303C45.8102 32.3842 47.212 32.3844 48.7754 32.0312L51.7594 36.6371C51.6873 37.4035 51.0466 37.9923 50.3773 38.3863C46.8216 40.4625 41.4777 38.7945 41.2719 36.6353L44.2546 32.0303ZM41.2576 38.7699C43.5452 40.7854 48.2361 40.9478 50.9499 39.3631C51.2617 39.1795 51.5381 38.98 51.7791 38.7672L51.777 40.3649C51.7615 41.0331 51.2567 41.707 50.3761 42.2187C47.0928 44.1367 41.2499 42.8046 41.2499 40.3288L41.2576 38.7699ZM50.3529 55.9363C48.2789 57.1479 44.7589 57.1557 42.6672 55.955C41.7385 55.4189 41.2267 54.7401 41.2267 54.0458C41.2504 38.3434 41.2423 43.7592 41.244 42.5876C42.6011 43.7975 44.7044 44.2639 46.5156 44.2639C48.1219 44.2639 49.7283 43.9079 50.9455 43.1971C51.2555 43.0172 51.5324 42.8175 51.7741 42.6027L51.7592 54.0524C51.7581 54.7323 51.2462 55.4178 50.3529 55.9363ZM46.5145 28.5415L48.1149 31.0117C47.0689 31.195 45.9566 31.1947 44.9146 31.0115L46.5145 28.5415Z" fill="black"/>
</svg>
