<svg width="93" height="92" viewBox="0 0 93 92" fill="none" xmlns="http://www.w3.org/2000/svg">
<rect x="0.5" width="92" height="92" rx="46" fill="white"/>
<path d="M27.2981 69.7069C27.3381 69.7302 26.7401 69.3826 33.1271 73.0949C33.2992 73.194 33.5154 73.1964 33.6925 73.0943L65.7682 54.5754C65.944 54.4737 66.0518 54.2863 66.0512 54.0834L65.9843 30.3308C65.984 30.2168 65.8782 29.945 65.703 29.8433L65.7017 29.8425L65.7008 29.8416L65.6996 29.8413L59.8751 26.4565C59.6988 26.3536 59.4826 26.3547 59.3074 26.4553L54.0939 29.4654L48.7669 23.976C49.2858 23.0698 49.5919 22.0868 49.5919 21.2118V21.2079C49.5782 19.1619 47.9766 18.2211 46.1841 19.25C44.5777 20.1803 43.3301 22.3372 43.3434 24.1553C43.3434 25.0104 43.6192 25.6859 44.1045 26.0956L38.4773 38.4816L27.2317 44.9743C27.0548 45.0767 26.9492 45.2653 26.9487 45.464L26.949 45.4651C26.949 45.5985 26.9817 58.2954 26.9858 58.4813C26.9869 58.793 27.24 59.0456 27.5518 59.0456H27.5535C27.8658 59.0445 28.1189 58.7908 28.1178 58.4779L28.0836 46.4498L32.7769 49.1776L32.8407 71.619L28.1471 68.8916L28.1322 64.0913C28.1311 63.779 27.8779 63.527 27.5662 63.527H27.5645C27.2516 63.5281 26.999 63.7823 27.0001 64.0946L27.0162 69.2194C27.0167 69.4206 27.124 69.6063 27.2981 69.7069ZM33.9728 71.625L33.9092 49.1777C41.2156 44.9595 57.5257 35.543 64.855 31.3114L64.918 53.7589L33.9728 71.625ZM46.749 20.2311C47.7414 19.6631 48.4503 20.0015 48.4598 21.214C48.4588 22.6754 47.3834 24.4422 46.1979 25.1353C45.2221 25.6938 44.4755 25.3999 44.4755 24.1514C44.4655 22.7463 45.5075 20.9503 46.749 20.2311ZM45.1545 26.5211C45.7303 26.5724 46.2605 26.4034 46.7645 26.1154C47.241 25.8366 47.7074 25.4264 48.1185 24.9335L53.0829 30.0491L40.1627 37.5086L45.1545 26.5211ZM37.6722 40.2538L35.8091 44.3546C35.6382 44.7308 35.9156 45.155 36.3237 45.155C36.5393 45.155 36.7449 45.0318 36.8395 44.8234L39.3576 39.2806L53.8958 30.8868L56.2047 33.266C56.4225 33.4903 56.7806 33.496 57.0051 33.2782C57.2295 33.0604 57.2351 32.7022 57.0173 32.4778L54.9069 30.3031L59.5893 27.5996L64.2889 30.3308L33.3429 48.1972C33.1172 48.066 28.4073 45.3287 28.6441 45.4663L37.6722 40.2538Z" fill="black"/>
<path d="M28.1272 61.9687L28.1228 60.2905C28.1222 59.9787 27.8685 59.7261 27.5568 59.7261C27.2566 59.7582 26.9902 59.9804 26.9907 60.2938L26.9951 61.972C26.9957 62.2838 27.2494 62.5364 27.5612 62.5364C27.8823 62.574 28.1278 62.2821 28.1272 61.9687Z" fill="black"/>
<path d="M62.3084 35.7353C62.1332 35.6341 61.917 35.6358 61.7429 35.7358L36.4735 50.3251C36.2977 50.4268 36.1899 50.6142 36.1905 50.8171L36.2358 66.712C36.2364 66.9138 36.3447 67.1001 36.5194 67.2012C36.6915 67.3004 36.9077 67.3027 37.0849 67.2007L62.3548 52.6114C62.5306 52.5097 62.6384 52.3223 62.6378 52.1194L62.592 36.2245C62.5914 36.0227 62.4831 35.8364 62.3084 35.7353ZM37.3651 65.7314L37.3237 51.1416L61.4626 37.2051L61.5047 51.7949L37.3651 65.7314Z" fill="black"/>
<path d="M45.8481 54.4036L43.7873 50.8713C43.6756 50.6789 43.4628 50.5706 43.2378 50.5938C43.0156 50.6181 42.8287 50.7701 42.7597 50.9829L39.8123 60.1186C39.695 60.4832 39.9666 60.8582 40.3512 60.8582C40.5906 60.8582 40.8128 60.7056 40.8902 60.4657L41.8997 57.3364L45.1532 55.4582L46.0542 57.0026C46.2123 57.2724 46.56 57.3647 46.828 57.206C47.0978 57.049 47.189 56.7019 47.0315 56.4321L45.8481 54.4036ZM42.4181 55.7298L43.4484 52.5362L44.5826 54.4802L42.4181 55.7298Z" fill="black"/>
<path d="M51.8734 50.2823C52.2825 49.6792 52.5451 48.9601 52.5432 48.3047C52.5415 47.6536 52.28 47.1301 51.8257 46.8686C51.3685 46.605 50.7815 46.6437 50.2132 46.9714L48.3824 48.0283C48.2067 48.1301 48.0989 48.3174 48.0994 48.5203C48.0998 48.6366 48.1201 55.736 48.1188 55.2873C48.1196 55.5953 48.3689 55.8517 48.6848 55.8517C48.7827 55.8517 48.8805 55.8263 48.9678 55.776L50.7981 54.7196C51.7848 54.1497 52.5559 52.817 52.5531 51.6849C52.5515 51.055 52.3018 50.5497 51.8734 50.2823ZM50.7793 47.9521C51.0225 47.8111 51.1916 47.8094 51.2607 47.8498C51.3514 47.9018 51.4105 48.0814 51.4111 48.3075C51.4133 49.0333 50.8578 49.9918 50.2226 50.3583L49.2381 50.9265L49.2326 48.8448L50.7793 47.9521ZM50.232 53.739L49.2481 54.3073L49.242 52.2318L50.7887 51.3389C51.033 51.1979 51.2016 51.1935 51.2729 51.235C51.3624 51.2864 51.4205 51.4644 51.421 51.6877C51.4227 52.414 50.8672 53.3725 50.232 53.739Z" fill="black"/>
<path d="M58.0487 49.512C57.8398 49.7536 57.3777 50.1609 56.763 50.5158C56.1803 50.8536 55.6845 50.9536 55.4026 50.7906C55.1135 50.6242 54.9466 50.1129 54.9444 49.3876C54.9394 47.6331 55.9559 45.8654 57.4733 44.9892C58.1289 44.6106 58.4533 44.6012 58.4533 44.6012C58.7342 44.6283 59.0277 44.3674 59.0376 44.0545C59.0481 43.7422 58.8038 43.4807 58.4909 43.4702C58.1211 43.4591 57.5225 43.6537 56.9072 44.0086C55.0499 45.081 53.8062 47.244 53.8123 49.3909C53.8167 50.8735 54.3728 51.5042 54.8382 51.7717C55.0549 51.8966 55.3484 51.9995 55.7271 51.9995C56.1511 51.9995 56.6812 51.8701 57.329 51.4964C58.0647 51.0714 58.6253 50.5755 58.9044 50.2527C59.1089 50.0161 59.0835 49.659 58.8469 49.4545C58.6103 49.25 58.2538 49.2754 58.0487 49.512Z" fill="black"/>
</svg>
