<svg width="93" height="92" viewBox="0 0 93 92" fill="none" xmlns="http://www.w3.org/2000/svg">
<rect x="0.5" width="92" height="92" rx="46" fill="white"/>
<path d="M52.9443 23.1369L54.2869 22.3686C54.5578 22.2132 54.6523 21.8672 54.497 21.5958C54.3417 21.3249 53.9973 21.2304 53.7242 21.3857L52.3815 22.1541C52.1107 22.3094 52.0161 22.6555 52.1715 22.9269C52.3273 23.1989 52.6741 23.2913 52.9443 23.1369Z" fill="black"/>
<path d="M62.4945 21.1763L62.4931 21.1755C62.4928 21.1753 62.4926 21.1748 62.4923 21.1746C62.4919 21.1744 62.4914 21.1745 62.4911 21.1743L58.6245 18.9082C58.4487 18.8049 58.2326 18.8043 58.0568 18.9049L55.1901 20.5461C54.9187 20.7014 54.8248 21.0475 54.9801 21.3189C55.1349 21.5897 55.4809 21.6843 55.7529 21.5289L58.3349 20.0503L61.0785 21.6586L34.683 36.7713C34.3636 36.5841 31.7775 35.0684 31.9389 35.163L51.1715 24.1518C51.4429 23.9965 51.5369 23.6505 51.3815 23.379C51.2268 23.1082 50.8807 23.0137 50.6088 23.169L30.5283 34.6661C30.3272 34.7815 30.2443 35.0226 30.2436 35.1547C30.2413 35.5677 30.2284 57.6366 30.2259 59.4805C30.2259 59.6817 30.332 59.868 30.5056 59.9697C30.6529 60.056 34.631 62.3864 34.3771 62.2376C34.3768 62.2375 34.3773 62.2378 34.3771 62.2376C34.5513 62.3384 34.7669 62.3404 34.9432 62.24L44.0411 57.0311L44.01 61.1779L37.1992 65.1423C37.195 65.1446 37.19 65.1435 37.1858 65.1459C37.0112 65.247 36.9028 65.4333 36.9023 65.6351L36.8951 68.1054C36.8945 68.3083 37.0023 68.4957 37.1781 68.5974L44.9672 73.0942C45.1443 73.1962 45.3604 73.194 45.5327 73.0947C45.5333 73.0944 45.5335 73.0936 45.5341 73.0933C45.5339 73.0934 45.5343 73.0932 45.5341 73.0933L56.2929 66.8412C56.4665 66.7406 56.5737 66.5549 56.5743 66.3537L56.5815 63.8839C56.582 63.681 56.4742 63.4937 56.2985 63.3919C56.2959 63.3905 56.2929 63.3912 56.2903 63.3897L48.8236 59.0733L48.8575 54.2735L62.4718 46.4788C62.6476 46.3776 62.7565 46.1908 62.7565 45.9879L62.7742 21.6671V21.6649C62.7742 21.5507 62.7041 21.2987 62.4945 21.1763ZM45.1126 65.1111L45.1784 56.38L47.7205 54.9246L47.6492 65.1066C47.6459 65.1868 47.5459 65.2929 47.3905 65.3852C46.8582 65.6893 45.9146 65.6848 45.379 65.3786C45.185 65.2636 45.1126 65.1509 45.1126 65.1111ZM43.9805 65.1072C43.9805 65.5964 44.2724 66.0386 44.8097 66.357C45.8241 66.9368 47.5684 66.8718 48.3769 66.0406C48.7015 65.7069 48.7721 65.3561 48.7808 65.1343L48.8183 60.3782L54.8847 63.8847L45.2581 69.4791C45.1433 69.4128 38.1572 65.3809 38.6002 65.6365L43.9971 62.4953L43.9805 65.1072ZM38.0316 66.616C38.1464 66.6823 45.1332 70.716 44.6903 70.4602L44.6869 71.6249L38.0283 67.7809L38.0316 66.616ZM45.8192 71.6188L45.8225 70.4611L55.4466 64.8689L55.4433 66.0259L45.8192 71.6188ZM31.3751 36.1452C31.5042 36.2208 34.2917 37.8541 34.1138 37.7499C34.1119 40.2244 34.0979 58.7157 34.0964 60.7613L31.358 59.1566L31.3751 36.1452ZM35.2287 60.7717C35.2311 57.537 35.2437 41.0248 35.2462 37.7539L61.6415 22.6412L61.6244 45.659L35.2287 60.7717Z" fill="black"/>
<path d="M59.1884 25.8919L37.1328 38.5205C36.957 38.6217 36.8481 38.8085 36.8481 39.0114L36.8348 57.0284C36.8348 57.3402 37.0867 57.595 37.4009 57.595C37.4982 57.595 37.5949 57.5701 37.6822 57.5204L59.7378 44.8923C59.9136 44.7912 60.0225 44.6043 60.0225 44.4015L60.0358 26.3839C60.0358 26.1816 59.9285 25.9953 59.7538 25.8936C59.5797 25.793 59.3647 25.7924 59.1884 25.8919ZM58.8904 44.0726L37.9675 56.0522L37.9802 39.3403L58.9031 27.3601L58.8904 44.0726Z" fill="black"/>
<path d="M40.4372 48.2355C40.4384 48.5473 40.6915 48.7999 41.0033 48.7999H41.0049C41.3173 48.7988 41.5704 48.5451 41.5693 48.2322L41.5614 45.4287L44.1121 43.956L44.1182 46.1101C44.1193 46.4219 44.3724 46.6745 44.6842 46.6745H44.6858C44.9982 46.6734 45.2513 46.4197 45.2502 46.1068L45.2414 42.9715C45.2415 42.9429 45.2455 42.9155 45.2411 42.887L45.2325 39.8444C45.2314 39.5327 44.9783 39.2801 44.6665 39.2801H44.6648C44.3525 39.2812 44.0994 39.5349 44.1005 39.8478L44.1084 42.6507L41.5577 44.1234L41.5516 41.9698C41.5505 41.6575 41.3333 41.4021 40.9839 41.4055C40.6716 41.4066 40.4185 41.6603 40.4196 41.9732C40.4214 42.6389 40.4354 47.5837 40.4372 48.2355Z" fill="black"/>
<path d="M51.4374 37.3702C51.6972 37.5399 52.0493 37.4664 52.2207 37.205C52.6043 36.6174 53.1018 36.1199 53.523 35.8717C53.9061 35.7114 54.0995 35.7368 54.1526 35.7749C54.235 35.8341 54.3101 36.0723 54.2808 36.4548C54.1885 37.656 53.6031 38.8273 52.6225 40.4459L52.1897 41.1667C52.1372 41.2546 52.109 41.3773 52.109 41.4801C52.109 41.6824 52.2168 41.8692 52.392 41.9704C52.5672 42.0713 52.7827 42.0714 52.9581 41.9704L56.1686 40.1164C56.4394 39.96 56.5323 39.6139 56.3758 39.3431C56.2183 39.0717 55.8723 38.9788 55.6025 39.1358L54.2383 39.9235C54.8441 38.8268 55.3189 37.7196 55.4096 36.5411C55.4687 35.7738 55.2576 35.1757 54.8148 34.8568C54.3754 34.5395 53.7927 34.5301 53.0216 34.8595C52.1538 35.3598 51.5529 36.1563 51.2721 36.587C51.1013 36.8484 51.1754 37.1994 51.4374 37.3702Z" fill="black"/>
<path d="M50.0588 41.4309L46.8555 43.265C46.5841 43.4203 46.4901 43.7664 46.6454 44.0378C46.7499 44.2202 46.9411 44.3225 47.1374 44.3225C47.2325 44.3225 47.3292 44.2987 47.4182 44.2478L50.6215 42.4137C50.8929 42.2584 50.9869 41.9124 50.8316 41.641C50.6762 41.3701 50.3324 41.275 50.0588 41.4309Z" fill="black"/>
<path d="M47.076 41.6034C47.1711 41.6034 47.2679 41.5796 47.3568 41.5287L50.5596 39.6952C50.831 39.5399 50.925 39.1938 50.7697 38.9224C50.6149 38.6516 50.2694 38.5565 49.9969 38.7124L46.7941 40.5459C46.5227 40.7012 46.4287 41.0473 46.5841 41.3187C46.6885 41.5011 46.8798 41.6034 47.076 41.6034Z" fill="black"/>
</svg>
