<svg width="93" height="92" viewBox="0 0 93 92" fill="none" xmlns="http://www.w3.org/2000/svg">
<rect x="0.5" width="92" height="92" rx="46" fill="white"/>
<path d="M61.9212 52.8041C57.6201 54.9478 52.1836 56.1285 46.6144 56.1285C40.9479 56.1285 35.4257 54.9102 31.0644 52.6991C30.6876 52.5071 30.2436 52.7842 30.2424 53.2021L30.2081 61.6253C30.2037 63.1896 31.6304 64.9131 34.1223 66.3526C37.3278 68.2021 41.8489 69.2635 46.5265 69.2635C51.2007 69.2635 55.7025 68.2054 58.8782 66.3592C61.3065 64.9463 62.7017 63.2526 62.7056 61.7126L62.7398 53.3127C62.7404 53.1159 62.6398 52.9335 62.4728 52.8296C62.3054 52.7256 62.0964 52.7157 61.9212 52.8041ZM61.5735 61.7093C61.5707 62.8038 60.3198 64.2111 58.3094 65.3808C55.3012 67.1286 51.0067 68.1314 46.5265 68.1314C42.0413 68.1314 37.7264 67.1253 34.6883 65.373C32.6199 64.178 31.3369 62.743 31.3402 61.6286L31.3706 54.1065C40.3156 58.2718 52.6302 58.3126 61.6039 54.2093L61.5735 61.7093Z" fill="black"/>
<path d="M62.481 34.8497L62.5076 28.3904C62.5076 28.3849 62.5076 28.3783 62.5076 28.3716C62.5076 28.3692 62.5062 28.3671 62.5062 28.3646C62.5062 28.3588 62.5076 28.3531 62.5076 28.3473C62.5038 25.7449 60.7891 23.3226 57.6786 21.5272C57.4083 21.3691 57.0617 21.4631 56.9053 21.734C56.7489 22.0048 56.8417 22.3509 57.1126 22.5067C59.8582 24.0921 61.3722 26.1672 61.3756 28.3484C61.3789 30.8508 59.363 32.8808 57.1767 34.1503C51.3461 37.5399 41.8268 37.5377 35.9575 34.1503C34.5255 33.3233 33.0997 32.1602 32.3133 30.6905C30.5752 27.4444 32.6208 24.4014 35.8823 22.5067C39.6798 20.3001 45.286 19.4488 50.5153 20.2846C50.8248 20.3299 51.115 20.1243 51.1637 19.8147C51.2129 19.5063 51.0028 19.2155 50.6944 19.1658C45.2214 18.2924 39.3266 19.1956 35.3141 21.5272C32.2578 23.3034 30.5722 25.6947 30.5585 28.2641C30.5583 28.2697 30.5552 28.2743 30.5552 28.2799L30.5287 34.8448C28.2789 36.7414 27.0541 39.0285 27.0156 41.3739C26.976 41.6218 27.0192 39.6791 26.9158 61.56C26.907 64.7285 28.9986 67.6836 32.8056 69.8803C40.3952 74.2631 52.6874 74.2476 60.2026 69.8803C63.9321 67.7124 65.9912 64.7971 66.0006 61.6717C66.0752 39.6885 66.1092 41.738 66.0633 41.4758C66.0359 39.0937 64.7862 36.7707 62.481 34.8497ZM61.3612 31.9215C61.3606 32.0378 61.3412 35.8527 61.3424 35.6096C61.3424 37.7665 59.8543 39.8195 57.1518 41.3916C50.4083 45.3122 38.8669 44.6414 33.7328 39.769C32.5506 38.6441 31.8538 37.3871 31.7041 36.0771C31.6153 35.2869 31.684 36.0324 31.6729 31.8265C32.3675 32.8715 33.6711 34.1369 35.3914 35.1298C41.5758 38.7018 51.6042 38.6996 57.7455 35.1298C59.428 34.152 60.6731 32.9424 61.3612 31.9215ZM30.5768 36.3172C30.581 36.3497 30.5919 36.3812 30.5967 36.4136C30.8469 38.0894 31.8018 39.5259 33.0451 40.6771C36.4254 43.8124 41.8548 45.0532 46.5524 45.0532C50.6004 45.0532 54.6445 44.1599 57.7168 42.3755C59.9624 41.0697 62.039 39.0244 62.4089 36.4326C62.4146 36.3924 62.4275 36.3531 62.4325 36.3128C64.1282 37.9575 64.9984 39.8504 64.9353 41.7491C64.8322 44.8165 62.3679 47.2605 59.715 48.801C52.4992 52.9954 40.7179 52.9954 33.4534 48.8021C30.738 47.233 28.2234 44.7515 28.1442 41.6315C28.0987 39.7775 28.9419 37.9291 30.5768 36.3172ZM64.8685 61.6673C64.8602 64.3747 63.0013 66.944 59.6332 68.9008C52.4173 73.0964 40.6361 73.0964 33.3716 68.9008C29.9312 66.9142 28.0401 64.3084 28.0479 61.5633L28.1142 45.3738C28.9563 46.7848 30.6144 48.4747 32.8824 49.7871C34.887 50.9402 37.2231 51.7801 39.7081 52.3243C42.5157 52.9404 45.5159 53.1754 48.4652 53.0116C52.7883 52.7724 56.9914 51.6965 60.28 49.786C62.4704 48.5114 64.1062 46.8582 64.9343 45.4932L64.8685 61.6673Z" fill="black"/>
<path d="M54.9556 21.4731C55.0236 21.5007 55.0938 21.5129 55.1629 21.5129C55.3884 21.5129 55.6018 21.3769 55.6897 21.1547C55.8041 20.8639 55.6615 20.5345 55.3702 20.4206C54.6273 20.1276 53.8396 19.8711 53.0281 19.6578C52.7313 19.5771 52.4173 19.7584 52.3371 20.0613C52.2575 20.3631 52.4383 20.6726 52.7407 20.7522C53.5085 20.9546 54.2536 21.1967 54.9556 21.4731Z" fill="black"/>
</svg>
