<svg width="93" height="92" viewBox="0 0 93 92" fill="none" xmlns="http://www.w3.org/2000/svg">
<rect x="0.5" width="92" height="92" rx="46" fill="white"/>
<path d="M32.203 69.4059C32.659 69.6864 38.2052 73.0993 37.953 72.9442C37.9557 72.9458 37.9589 72.945 37.9616 72.9466C37.9664 72.9494 37.9697 72.9541 37.9745 72.9569C38.6249 73.3288 39.3798 73.1778 40.0264 72.8054L59.3845 61.6234C60.7343 60.8529 61.7818 59.0414 61.7702 57.4992C61.7679 56.6317 61.678 23.4317 61.6807 24.4175C61.6735 23.5596 61.3507 22.9051 60.7719 22.5734C60.6586 22.5085 54.9158 18.983 55.0303 19.0418C54.4466 18.7123 53.7158 18.766 52.9751 19.1932L33.6065 30.367C33.599 30.3713 33.5958 30.3801 33.5886 30.3848C32.2607 31.1648 31.2272 32.9615 31.2304 34.4916C31.2304 34.4926 31.2296 34.4935 31.2296 34.4945L31.2943 58.2996C31.2954 58.6114 31.5486 58.864 31.8603 58.864C32.1881 58.8618 32.4275 58.6097 32.4264 58.2963L32.3645 35.5072L36.9771 38.3455L36.9972 45.7681C37.0042 48.3551 36.9718 36.3968 37.0656 71.0686L32.7934 68.4396C32.58 68.3103 32.4584 67.9991 32.4512 67.5707L32.4413 63.8627C32.4402 63.5509 32.187 63.2983 31.8753 63.2983C31.5624 63.2419 31.3081 63.5526 31.3092 63.866L31.3192 67.5817C31.333 68.4214 31.6481 69.0698 32.203 69.4059ZM39.9258 34.8886C65.9961 19.8379 57.5396 24.72 59.291 23.7088C60.0163 23.2783 60.5414 23.483 60.5486 24.4236L60.5576 27.7495L38.1156 40.7043C38.1155 40.6852 38.1162 40.9654 38.1094 38.0273C38.1064 36.9236 38.9243 35.4661 39.9258 34.8886ZM60.6149 52.176L38.1817 65.1255L38.1282 45.3671L38.1205 42.0083L51.154 34.4848L51.2504 43.3234C51.2532 43.5738 51.4196 43.7921 51.66 43.8612C51.712 43.8761 51.7645 43.8833 51.8165 43.8833C52.0055 43.8833 52.1868 43.7882 52.293 43.623L54.7451 39.8033L56.646 40.868C56.8218 40.9669 57.0379 40.9636 57.2115 40.8602C57.3851 40.7569 57.4907 40.5689 57.4885 40.3671L57.3739 30.8944L60.5611 29.0545C60.6321 59.5572 60.6092 49.7099 60.6149 52.176ZM56.3448 39.4015L54.8329 38.5552C54.5704 38.4092 54.242 38.491 54.0801 38.7437L52.3621 41.4202L52.2791 33.8594L56.2497 31.5654L56.3448 39.4015ZM60.6381 57.5058C60.6475 58.6379 59.8162 60.0729 58.8206 60.6417L39.4609 71.8248C39.0864 72.0414 38.7499 72.0961 38.5371 71.9742C38.5271 71.9685 38.5191 71.9565 38.5095 71.9499C38.3167 71.8098 38.2048 71.5128 38.1978 71.1068L38.1852 66.4307L60.6272 53.4758C60.6337 55.863 60.6317 55.124 60.6381 57.5058ZM53.5411 20.1739C53.9159 19.9583 54.2559 19.9041 54.4554 20.0169L58.793 22.6895C58.7867 22.6931 58.7801 22.6969 58.7738 22.7006C58.7557 22.7105 58.7381 22.7145 58.72 22.7249C56.7687 23.8519 65.7826 18.6459 39.6527 33.7372L34.9951 30.8728L53.5411 20.1739ZM33.9045 31.5317L38.6379 34.4437C37.9893 35.0475 37.3388 36.0754 37.094 37.0876L32.4614 34.2378L32.3799 34.1877C32.4927 33.2231 33.1251 32.1226 33.9045 31.5317Z" fill="black"/>
<path d="M32.4358 61.787L32.4319 60.3719C32.4308 60.0602 32.1776 59.8076 31.8658 59.8076C31.5624 59.8004 31.2987 60.0618 31.2998 60.3753L31.3037 61.7903C31.3048 62.1021 31.558 62.3547 31.8697 62.3547C32.1881 62.3033 32.4369 62.1005 32.4358 61.787Z" fill="black"/>
<path d="M34.4114 42.8905H34.4131C34.7254 42.89 34.978 42.6357 34.9774 42.3229L34.9719 40.1643C34.9714 39.8525 34.7176 39.5999 34.4059 39.5999H34.4042C34.0919 39.6005 33.8393 39.8547 33.8398 40.1676L33.8454 42.3262C33.8459 42.6379 34.0996 42.8905 34.4114 42.8905Z" fill="black"/>
<path d="M33.8454 47.4277C33.8459 47.7395 34.0996 47.9921 34.4114 47.9921H34.4131C34.7254 47.9915 34.978 47.7372 34.9774 47.4244L34.9719 45.2664C34.9714 44.954 34.711 44.7158 34.4042 44.702C34.0919 44.7025 33.8393 44.9568 33.8398 45.2697L33.8454 47.4277Z" fill="black"/>
<path d="M47.5341 33.6996L51.7114 31.2884C51.9823 31.132 52.0751 30.786 51.9187 30.5151C51.7612 30.2442 51.4146 30.1508 51.1454 30.3078L46.9681 32.719C46.6972 32.8754 46.6044 33.2215 46.7608 33.4923C46.9187 33.765 47.2659 33.8546 47.5341 33.6996Z" fill="black"/>
<path d="M50.0305 60.3542C49.0587 60.9148 48.2997 62.2259 48.3025 63.3392C48.3071 64.6821 49.4181 65.3317 50.6059 64.6476C51.5688 64.0915 52.3206 62.7848 52.3178 61.6715C52.3132 60.3241 51.2053 59.6766 50.0305 60.3542ZM50.0399 63.667C49.643 63.8973 49.4356 63.8337 49.4346 63.3364C49.4329 62.6283 49.9757 61.6931 50.5965 61.3349C51.0274 61.0856 51.1848 61.224 51.1858 61.6743C51.1874 62.3951 50.6628 63.3072 50.0399 63.667Z" fill="black"/>
<path d="M52.3803 23.8741C53.1489 24.3181 54.3159 24.3252 55.0944 23.873C56.0596 23.3115 56.0591 22.2125 55.0856 21.6509C54.3227 21.2109 53.131 21.2114 52.3726 21.6514C51.406 22.2137 51.4072 23.3123 52.3803 23.8741ZM52.9414 22.6304C53.3515 22.3916 54.1038 22.3916 54.5195 22.6315C54.7202 22.7472 54.7308 22.7749 54.525 22.8946C54.1055 23.1378 53.3681 23.1367 52.9463 22.8935C52.7337 22.7709 52.729 22.7533 52.9414 22.6304Z" fill="black"/>
<path d="M40.9656 49.1015C41.0634 49.1015 41.1613 49.0761 41.2486 49.0258L48.3224 44.9413C48.4982 44.8396 48.606 44.6522 48.6054 44.4499L48.5944 39.5562C48.5938 39.3539 48.486 39.1676 48.3108 39.067C48.1356 38.9664 47.9195 38.9664 47.7453 39.067L40.671 43.1504C40.4952 43.2515 40.3874 43.4395 40.3879 43.6418L40.3995 48.5366C40.4004 48.8514 40.6565 49.1015 40.9656 49.1015ZM47.4645 40.5363L47.4728 44.1249L41.5294 47.5565L41.5206 43.9668L47.4645 40.5363Z" fill="black"/>
<path d="M58.3342 44.9148C58.3336 44.7125 58.2259 44.5262 58.0506 44.4256C57.8754 44.3244 57.6593 44.3255 57.4851 44.4256L51.8259 47.6925C51.6501 47.7936 51.5423 47.9816 51.5428 48.1839L51.5556 53.6911C51.5561 53.8935 51.6639 54.0797 51.8391 54.1803C52.0143 54.2812 52.2292 54.2814 52.4046 54.1803L58.0639 50.9135C58.2397 50.8123 58.3475 50.6244 58.3469 50.4221L58.3342 44.9148ZM52.6854 52.7111L52.6755 48.5089L57.2043 45.8949L57.2143 50.097L52.6854 52.7111Z" fill="black"/>
<path d="M40.483 54.7679C40.6409 55.0406 40.988 55.1302 41.2563 54.9752L49.4373 50.2529C49.7082 50.0965 49.801 49.7504 49.6446 49.4796C49.4871 49.2087 49.1405 49.1153 48.8713 49.2723L40.6903 53.9946C40.4194 54.151 40.3265 54.4971 40.483 54.7679Z" fill="black"/>
<path d="M49.6009 53.946L40.6903 59.0895C40.4194 59.2459 40.3265 59.592 40.483 59.8628C40.6409 60.1355 40.988 60.2251 41.2563 60.0701L50.167 54.9266C50.4378 54.7701 50.5307 54.4241 50.3743 54.1533C50.2178 53.8818 49.8701 53.7901 49.6009 53.946Z" fill="black"/>
</svg>
