<svg width="93" height="92" viewBox="0 0 93 92" fill="none" xmlns="http://www.w3.org/2000/svg">
<rect x="0.5" width="92" height="92" rx="46" fill="white"/>
<path d="M55.0328 21.4827L53.3784 22.4373C53.1075 22.5938 53.0146 22.9398 53.1711 23.2106C53.329 23.4833 53.6762 23.5729 53.9444 23.4179L55.5989 22.4633C55.8697 22.3069 55.9626 21.9608 55.8061 21.69C55.6497 21.4197 55.302 21.3262 55.0328 21.4827Z" fill="black"/>
<path d="M65.9296 49.7591L65.8716 23.2615C65.8689 22.328 65.5276 21.6157 64.9186 21.2348C64.7676 21.1259 62.4989 19.8188 61.2211 19.072C60.5678 18.6951 59.748 18.757 58.9094 19.2451L56.5651 20.5977C56.2943 20.7541 56.2014 21.1002 56.3578 21.371C56.5137 21.6408 56.8609 21.7342 57.1312 21.5783L59.4771 20.2246C59.9514 19.9476 60.3693 19.8874 60.6534 20.0516L62.7429 21.2665C62.6838 21.2964 62.6241 21.3279 62.5649 21.3616L33.4449 38.1769C31.8645 39.0892 30.7177 41.2324 30.7225 42.9042L30.7489 54.9482C30.7808 69.8592 30.768 69.2776 30.7828 69.5727L28.685 68.3527C28.4164 68.2001 28.2627 67.8093 28.2627 67.2798L28.2024 40.7722C28.1947 39.4301 29.182 37.7165 30.356 37.0321L52.1225 24.4693C52.3934 24.3129 52.4862 23.9668 52.3298 23.696C52.1728 23.4251 51.8251 23.3328 51.5565 23.4887L29.7878 36.0526C28.2539 36.947 27.0604 39.0232 27.0704 40.7766L27.1306 67.2809C27.1306 68.2422 27.4838 68.9718 28.1206 69.3339C29.566 70.174 31.9343 71.5506 31.7833 71.4637C32.5117 71.8826 33.3594 71.7109 34.0873 71.2912L38.623 68.6725L42.8304 72.2862C44.1576 73.3738 46.5676 73.4427 48.0121 72.5864L56.2379 67.8115C56.9493 67.4069 57.3667 66.8 57.3843 66.1306V63.244C57.3843 63.2376 57.3809 63.2323 57.3807 63.226C57.384 62.312 56.5744 61.5921 55.7211 61.29L53.1422 60.2899L63.2056 54.4798C64.7379 53.5948 65.9346 51.5208 65.9296 49.7591ZM56.2523 66.1156C56.2456 66.3644 56.0367 66.6236 55.6741 66.8298L47.4394 71.6096C46.3648 72.2468 44.4784 72.166 43.5573 71.4184L39.6664 68.0763L40.6409 67.5097C42.946 69.4881 42.8555 69.4573 43.2964 69.7263C44.678 70.5002 46.755 70.4383 48.017 69.7138C48.0191 69.7126 48.0217 69.712 48.0237 69.7109L56.2523 64.9344V66.1156ZM55.6846 63.9433L47.4566 68.7308C46.5345 69.2622 44.924 69.3283 43.8503 68.7275C42.1251 67.2826 41.5671 66.8152 41.6829 66.9122L51.8854 61.0169L55.3269 62.3513C56.2443 62.6775 56.676 63.3703 55.6846 63.9433ZM33.5212 70.3106C33.0536 70.5804 32.6268 70.6423 32.3482 70.4825C32.073 70.3239 31.9143 69.9287 31.9126 69.3991L31.8811 54.9725L31.8574 42.8976C31.8501 41.6366 32.7922 39.8628 34.0132 39.1581L63.131 22.3467C64.0459 21.82 64.7359 22.0949 64.7395 23.2643L64.7976 49.7619C64.8014 51.1101 63.8131 52.8215 62.6395 53.4992L33.5212 70.3106Z" fill="black"/>
<path d="M62.5422 25.231C62.367 25.1299 62.1508 25.131 61.9767 25.231L34.0518 41.3537C33.876 41.4554 33.7682 41.6428 33.7688 41.8457L33.8268 64.8752C33.8274 65.077 33.9352 65.2633 34.1104 65.3639C34.2856 65.4647 34.5005 65.4649 34.6759 65.3639L62.6002 49.2417C62.776 49.14 62.8838 48.9526 62.8833 48.7498L62.8258 25.7197C62.8252 25.5179 62.7174 25.3316 62.5422 25.231ZM34.9567 63.8946L34.9014 42.1701L61.6959 26.7003L61.7506 48.4253L34.9567 63.8946Z" fill="black"/>
<path d="M48.9081 58.6963L47.2354 59.662C46.9646 59.8185 46.8717 60.1645 47.0281 60.4354C47.185 60.7069 47.5321 60.7983 47.8015 60.6427L49.4741 59.677C49.745 59.5205 49.8379 59.1745 49.6814 58.9036C49.5245 58.6317 49.1784 58.5388 48.9081 58.6963Z" fill="black"/>
<path d="M46.6142 43.5095L44.2058 44.9003L43.4949 42.7931C43.4236 42.5903 43.2721 42.4327 43.0781 42.3609C42.8692 42.284 42.6376 42.3089 42.4253 42.4311L42.4236 42.4322C42.171 42.5786 41.9775 42.8429 41.9051 43.1403L41.0599 46.7161L38.2469 48.3402C37.8859 48.5486 37.6538 49.0068 37.7074 49.4054C37.7477 49.7066 37.9478 49.9399 38.2314 50.0145L40.1285 50.507L39.3486 53.7701C39.2063 54.3456 39.5848 54.7579 40.0318 54.7579C40.3325 54.7579 40.5913 54.5801 40.7637 54.3366L42.9598 51.219L45.0178 51.7524C45.2079 51.8016 45.4136 51.7701 45.596 51.6657C45.9686 51.4506 46.2593 50.91 46.099 50.4545L45.2616 47.9825L47.5086 44.7886C47.7899 44.3978 47.8004 43.9197 47.5346 43.625C47.304 43.3708 46.9342 43.3254 46.6142 43.5095ZM44.3213 47.3513C44.1101 47.6558 44.0538 48.0041 44.1566 48.2457L44.941 50.5629L42.9913 50.0593C42.8106 50.0267 42.6215 50.0621 42.4457 50.1632C42.3236 50.2345 42.2103 50.3368 42.1097 50.4717L40.8836 52.2173L41.2954 50.4927C41.4187 50.0499 41.2103 49.6298 40.7968 49.5115L39.201 49.0969L41.6249 47.6973C41.8675 47.558 42.0654 47.2888 42.1456 46.9842L42.7995 44.2734L43.302 45.7626C43.3777 45.9611 43.5325 46.1153 43.7271 46.1844C43.9344 46.2584 44.1615 46.233 44.3677 46.1142L45.7557 45.3126L44.3213 47.3513Z" fill="black"/>
<path d="M57.8359 37.031L55.4336 38.4174L54.7166 36.3141C54.6453 36.1101 54.4922 35.952 54.2976 35.8802C54.0903 35.805 53.8598 35.8288 53.6498 35.9515C53.4005 36.0952 53.2081 36.3572 53.1346 36.6557L52.2811 40.2377L49.4769 41.8573C49.1143 42.0662 48.881 42.5234 48.9347 42.9208C48.9756 43.2237 49.1773 43.4576 49.4603 43.5311L51.3574 44.0225L50.5697 47.2927C50.4852 47.6365 50.5819 47.9527 50.829 48.1384C51.1589 48.3862 51.6626 48.3144 51.9854 47.8582L54.1804 44.74L56.2484 45.269C56.4363 45.3193 56.6425 45.2872 56.8249 45.1822C57.198 44.9677 57.4888 44.4271 57.3279 43.9694L56.4838 41.5024L58.7408 38.3002C59.0166 37.9088 59.0233 37.4318 58.7568 37.141C58.5269 36.889 58.156 36.8459 57.8359 37.031ZM55.5347 40.885C55.3501 41.1663 55.2904 41.493 55.3789 41.7688L56.1693 44.0805L54.2125 43.5808C54.034 43.5465 53.8482 43.5819 53.6697 43.6825C53.5481 43.7538 53.4353 43.8572 53.3391 43.9882L52.1087 45.7377L52.531 43.9849C52.6272 43.5698 52.4359 43.174 52.0263 43.0286L50.4305 42.6135L52.8472 41.2183C53.1048 41.0696 53.3054 40.7915 53.3668 40.5063L54.0257 37.795L54.5176 39.2371C54.5801 39.4494 54.7294 39.6169 54.9278 39.6959C55.1401 39.7805 55.3778 39.7573 55.5966 39.6307L56.9819 38.8309L55.5347 40.885Z" fill="black"/>
</svg>
