<svg width="93" height="92" viewBox="0 0 93 92" fill="none" xmlns="http://www.w3.org/2000/svg">
<rect x="0.5" width="92" height="92" rx="46" fill="white"/>
<path d="M46.7443 26.1693L49.0505 27.501C49.3184 27.6557 49.6656 27.5668 49.8238 27.2937C49.9803 27.0228 49.8874 26.6768 49.6165 26.5203L47.3104 25.1887C47.039 25.0317 46.6935 25.1246 46.537 25.396C46.3806 25.6669 46.4735 26.0129 46.7443 26.1693Z" fill="black"/>
<path d="M63.4961 38.6874L50.643 46.1598C50.4385 46.2786 50.3296 46.513 50.37 46.7463C50.6176 48.1636 50.8442 55.3573 50.847 55.4298C50.8564 55.7367 51.109 55.9781 51.4125 55.9781C51.5109 55.9781 51.6093 55.9527 51.6972 55.9013L64.04 48.7252C64.2136 48.624 64.3208 48.4389 64.3213 48.2376L64.3468 39.1783C64.3473 38.9754 64.2395 38.788 64.0638 38.6863C63.8869 38.5852 63.6707 38.584 63.4961 38.6874ZM63.1904 47.9099L51.9465 54.4469C51.8812 52.5918 51.7237 48.5494 51.5402 46.9475L63.2119 40.1622L63.1904 47.9099Z" fill="black"/>
<path d="M21.7218 50.7739C21.7148 50.8882 21.6991 50.9973 21.6988 51.1154C21.6905 54.0401 23.6733 57.48 26.2133 58.9465C28.7072 60.3858 30.9319 59.3939 31.2588 56.672L41.2877 62.885C41.3092 65.7958 43.2761 69.1937 45.7969 70.6486C46.5564 71.087 47.2999 71.3081 47.9825 71.3081C49.3138 71.3081 50.4666 70.4555 50.8042 68.7684L55.4054 71.6125C55.5946 71.7276 55.8102 71.7213 55.98 71.627C56.0982 71.5615 73.2717 61.5826 73.3874 61.5113C73.562 61.4102 73.6698 61.2233 73.6693 61.021L73.6566 53.427C73.656 53.2203 73.5432 53.0302 73.3619 52.9312L66.8423 49.3711L66.8724 38.83C66.8807 37.5173 65.9916 35.9735 64.8466 35.3134C64.8461 35.3132 64.8459 35.3125 64.8454 35.3122L52.5965 28.2406C52.3257 28.0847 51.9796 28.1765 51.8232 28.4479C51.6668 28.7187 51.7596 29.0648 52.0305 29.2212L63.4331 35.8042C61.0067 37.2147 48.6648 44.3899 47.161 45.2642L22.1101 30.8016L38.1504 21.4763C38.2958 21.3901 38.555 21.4382 38.8314 21.6012L44.2038 24.7028C44.4724 24.8576 44.8201 24.7648 44.9771 24.4956C45.1336 24.2247 45.0407 23.8787 44.7698 23.7222L39.4013 20.6228C38.7562 20.2436 38.0924 20.1978 37.5799 20.4985C23.6868 28.5755 34.0567 22.5472 20.1781 30.6147C20.1714 30.6187 20.1679 30.6256 20.1613 30.6298C19.6704 30.9244 19.3877 31.5025 19.3877 32.2211L19.3308 48.9761C19.3302 49.1724 19.4314 49.3553 19.5988 49.4587L21.7218 50.7739ZM20.5198 32.2227C20.5198 31.9126 20.6043 31.6783 20.7453 31.5965C20.862 31.5289 21.0562 31.5642 21.2702 31.653C21.7151 31.8435 18.9761 30.3223 46.8792 46.4085C46.8789 46.4084 46.8795 46.4087 46.8792 46.4085C47.6705 46.8646 48.3402 48.0255 48.3402 48.9413L48.3092 59.8055C48.3092 59.8265 48.3226 59.8438 48.3248 59.8643C48.331 59.9272 48.3461 59.9858 48.3723 60.0432C48.3839 60.068 48.3937 60.0908 48.4088 60.1136C48.4535 60.1836 48.5108 60.2448 48.5856 60.2907C48.5884 60.2924 48.5894 60.2958 48.5922 60.2974C48.5928 60.2978 48.5936 60.2976 48.5941 60.2979C48.599 60.3008 48.6016 60.3057 48.6066 60.3085L55.1492 63.8827L55.1404 70.118L50.8926 67.4924C50.8782 67.053 50.8293 66.5997 50.7271 66.1342C50.171 63.5831 48.4281 61.0785 46.3906 59.9017C44.062 58.5577 42.0808 59.3729 41.4786 61.3858C41.4548 61.4659 41.4442 61.5556 41.4247 61.6389L31.2848 55.3571C31.2559 55.054 31.2128 54.7461 31.1446 54.432C30.5879 51.8798 28.8439 49.3758 26.807 48.1995C24.768 47.0227 22.6612 47.4034 21.9383 49.5769L20.4639 48.6633L20.5198 32.2227ZM66.2704 50.349L71.9542 53.4525L55.7005 62.8936L50.0254 59.7932L66.2704 50.349ZM26.7793 57.9659C24.5948 56.705 22.8237 53.6332 22.8309 51.1181C22.8375 48.796 24.3239 48.0724 26.2409 49.1801C27.991 50.1906 29.5526 52.4492 30.0385 54.673C30.6732 57.604 29.2949 59.4198 26.7793 57.9659ZM48.8073 69.9671C48.1849 70.3247 47.3159 70.2191 46.3629 69.668C43.6454 68.0995 41.8678 64.0362 42.5632 61.7103C43.0293 60.1499 44.4203 60.0709 45.8245 60.8823C47.5751 61.8933 49.1367 64.1525 49.6215 66.3757C49.8888 67.6005 49.8957 69.3404 48.8073 69.9671ZM56.2722 70.1444L56.2814 63.8647L72.5261 54.4288L72.5366 60.6965L56.2722 70.1444ZM65.7403 38.8234C65.7403 38.8239 65.7403 38.825 65.7403 38.8256L65.7105 49.3653L49.4441 58.8215L49.4723 48.943C49.4723 47.922 48.9366 46.7634 48.165 45.9901C49.7437 45.0722 62.8148 37.4732 64.5387 36.4709C65.2086 37.0059 65.7458 38.0275 65.7403 38.8234Z" fill="black"/>
<path d="M22.9238 43.0217L45.3304 55.9029C45.7029 56.1175 46.1771 55.8503 46.1783 55.4143L46.2026 49.0358C46.2026 48.8288 46.0338 48.398 45.8063 48.2658L23.5025 35.3907C23.3279 35.2901 23.1117 35.289 22.937 35.3907C22.7618 35.4913 22.654 35.6776 22.6535 35.8799L22.6397 42.5297C22.6391 42.7326 22.7474 42.9205 22.9238 43.0217ZM31.2199 46.4851L31.2305 41.159L37.5473 44.8054L37.537 50.1167L31.2199 46.4851ZM45.0501 54.4359L38.6679 50.7668L38.6781 45.4582L45.07 49.1481L45.0501 54.4359ZM23.7833 36.86L30.0998 40.5062L30.0891 45.835L23.7723 42.2036L23.7833 36.86Z" fill="black"/>
<path d="M26.7981 51.4675C25.6433 50.8003 24.5446 51.4336 24.5411 52.7582C24.5384 53.8483 25.2769 55.1296 26.2227 55.6757C27.5447 56.439 28.7891 55.4917 28.4116 53.7747C28.2071 52.8345 27.5587 51.9075 26.7981 51.4675ZM26.7887 54.6951C26.1928 54.3513 25.6716 53.4475 25.6732 52.7621C25.6757 52.3134 25.8399 52.2215 26.2315 52.4475C26.7174 52.7283 27.169 53.3878 27.3056 54.0157C27.4319 54.5968 27.3436 55.0147 26.7887 54.6951Z" fill="black"/>
<path d="M46.3817 63.1702C45.2284 62.5052 44.1283 63.1321 44.1248 64.4609C44.122 65.5504 44.8605 66.8318 45.8063 67.3785C46.9588 68.0438 48.0592 67.4097 48.0627 66.085C48.0658 64.9692 47.3124 63.7074 46.3817 63.1702ZM46.3723 66.3978C45.7764 66.0535 45.2552 65.1497 45.2568 64.4648C45.2594 64.008 45.4296 63.9274 45.8157 64.1508C46.4154 64.4968 46.934 65.3956 46.9306 66.0811C46.9296 66.5377 46.7583 66.6209 46.3723 66.3978Z" fill="black"/>
<path d="M58.7362 45.3157L61.3038 46.7164C61.5744 46.8648 61.9204 46.7674 62.0716 46.4903C62.2214 46.2161 62.1202 45.8723 61.8455 45.7225L59.2779 44.3218C59.0059 44.1714 58.6604 44.2737 58.5101 44.5479C58.3603 44.822 58.4614 45.1659 58.7362 45.3157Z" fill="black"/>
<path d="M60.5985 43.8652L61.3917 44.298C61.6623 44.4464 62.0083 44.3491 62.1595 44.072C62.3093 43.7978 62.2081 43.454 61.9334 43.3042L61.1402 42.8713C60.8677 42.7221 60.5222 42.8227 60.3724 43.0974C60.2226 43.3716 60.3237 43.7154 60.5985 43.8652Z" fill="black"/>
<path d="M59.3696 62.9718C58.4592 63.4969 57.7478 64.729 57.7506 65.7771C57.7552 67.06 58.8283 67.6672 59.944 67.0247C60.8516 66.5007 61.5597 65.273 61.5564 64.2299C61.5529 62.947 60.484 62.3287 59.3696 62.9718ZM59.3779 66.0441C59.0342 66.2437 58.8837 66.1891 58.8826 65.7738C58.881 65.1281 59.3729 64.2769 59.9357 63.9524C60.2836 63.7515 60.4233 63.8267 60.4243 64.2332C60.4265 64.875 59.9373 65.7213 59.3779 66.0441Z" fill="black"/>
<path d="M69.8165 56.946C68.906 57.4722 68.1952 58.7043 68.1979 59.7513C68.2026 61.0314 69.2735 61.6427 70.3913 60.9989C71.299 60.4754 72.0071 59.2477 72.0038 58.2046C72.0003 56.9168 70.9264 56.3054 69.8165 56.946ZM69.8253 60.0183C69.4825 60.2168 69.3311 60.165 69.33 59.748C69.3284 59.1029 69.8198 58.2516 70.3825 57.9266C70.7156 57.7337 70.8706 57.7786 70.8717 58.208C70.8739 58.8497 70.3847 59.6955 69.8253 60.0183Z" fill="black"/>
<path d="M67.01 59.3428C66.8348 59.2428 66.6181 59.2444 66.4429 59.3456L62.8858 61.429C62.6833 61.5483 62.5757 61.8013 62.5757 61.9928L62.5856 64.5859C62.5868 65.0318 63.0799 65.2947 63.4491 65.0651L67.0338 62.8502C67.2013 62.7468 67.303 62.5638 67.3024 62.367L67.2952 59.8326C67.2947 59.6303 67.1858 59.4434 67.01 59.3428ZM63.7138 63.571L63.7089 62.2592L66.1659 60.8204L66.1692 62.0536L63.7138 63.571Z" fill="black"/>
</svg>
