<svg width="93" height="92" viewBox="0 0 93 92" fill="none" xmlns="http://www.w3.org/2000/svg">
<path d="M12.3888 62.9068C12.8676 62.9051 13.2558 62.5161 13.2541 62.0364L13.2363 55.7431C13.2346 55.265 12.8465 54.8777 12.3684 54.8777H12.3659C11.887 54.8794 11.4988 55.2684 11.5005 55.7481L11.5183 62.0414C11.52 62.5195 11.9082 62.9068 12.3862 62.9068H12.3888Z" fill="black"/>
<path d="M14.9834 32.1226C14.9817 32.1236 14.9802 32.1251 14.9785 32.126L14.9741 32.1285C14.9734 32.129 14.9731 32.1297 14.9725 32.1301C12.9859 33.2838 11.4371 35.9707 11.4439 38.2557C11.4595 43.5114 11.4842 49.938 11.4837 49.6803C11.4854 50.1583 11.8736 50.5457 12.3516 50.5457C12.3525 50.5457 12.3533 50.5457 12.3542 50.5457C12.8331 50.544 13.2213 50.1549 13.2196 49.6752L13.1924 39.7712C13.3684 39.8734 27.1926 47.9028 26.3152 47.3932L26.4205 84.5505L13.7747 77.2072C13.4687 77.0199 13.2933 76.5665 13.2933 75.9613L13.2721 68.5042C13.2704 68.0262 12.8822 67.6389 12.4042 67.6389C12.4033 67.6389 12.4025 67.6389 12.4016 67.6389C11.9228 67.6406 11.5346 68.0296 11.5363 68.5093L11.5574 75.9638C11.5574 77.1835 12.0346 78.176 12.8848 78.6981C17.5029 81.379 28.3258 87.6604 27.7658 87.3384C28.7267 87.8909 29.8879 87.6716 30.8476 87.118L78.0172 59.8852C80.0082 58.735 81.5627 56.0465 81.5559 53.7648L81.4491 16.0601C81.4457 14.7819 80.9677 13.8038 80.1023 13.3054C80.0924 13.2997 80.0809 13.2989 80.0709 13.2934L65.2433 4.66603C64.3695 4.16511 63.2735 4.24478 62.153 4.89403L57.3639 7.6634C56.6147 7.14234 55.5845 6.60411 53.9578 5.63905C52.8491 4.99998 51.4506 5.10847 50.0191 5.94334L36.7383 13.636C34.082 15.1583 32.002 18.7588 32.002 21.8355L32.0027 22.2934L14.9852 32.1222C14.9846 32.1225 14.9839 32.1223 14.9834 32.1226ZM15.4406 33.9026L28.7219 41.6204C27.6375 42.6518 26.804 44.1802 26.4893 45.4845C26.3134 45.3823 12.32 37.2538 13.2102 37.7709C13.3853 36.3637 14.3059 34.7687 15.4406 33.9026ZM77.1493 58.3816L29.9797 85.6144C28.7795 86.3023 28.1582 85.8129 28.1582 84.5931L28.0531 46.89C28.0531 46.8867 28.0506 46.884 28.0506 46.8806C28.0503 45.2226 29.2583 43.1273 30.6983 42.2818C30.7044 42.2786 30.7119 42.2802 30.7179 42.2767C48.0929 32.1996 78.1839 14.8529 78.5633 14.7705C79.4453 14.5756 79.7108 15.1746 79.7133 16.0652L79.8201 53.7699C79.8251 55.4303 78.6021 57.5425 77.1493 58.3816ZM52.8144 15.0252L52.8287 21.1514L51.354 20.2946L51.3433 15.8772L52.8144 15.0252ZM54.5655 21.1583L54.5511 13.5241C54.5503 13.0054 53.9537 12.4111 53.2845 12.7597C53.1098 12.8507 39.7926 20.4883 39.9667 20.4616C39.698 20.6167 39.5328 20.904 39.5336 21.2142C39.534 21.3899 39.5535 30.4181 39.5523 29.846L36.9714 31.3386C36.9713 31.1604 36.9668 23.1954 36.9671 23.6976C36.9671 21.3155 38.6937 18.2307 40.827 17.0085C41.1771 16.8055 54.9505 8.81842 54.0981 9.31269C54.1017 9.31068 54.105 9.30962 54.1086 9.3076C55.8068 8.33212 57.1201 8.87298 57.1201 11.0288L57.1421 16.794L57.1489 19.6691C56.9752 19.7692 54.3917 21.2584 54.5655 21.1583ZM37.6045 15.1396L50.8912 7.44441C51.7634 6.93501 52.544 6.82906 53.0881 7.14183L53.7637 7.5334C53.1183 7.82557 39.7786 15.6009 39.9532 15.4998C37.3007 17.032 35.2135 20.7308 35.2135 23.6993L35.2283 31.3324L33.7548 30.4715C33.7544 30.2959 33.7367 21.2618 33.7378 21.8338C33.7378 19.4063 35.5067 16.3423 37.6045 15.1396ZM32.0172 30.9801C32.0181 31.2886 32.1825 31.5742 32.4495 31.7293C32.985 32.0403 35.8956 33.7065 35.7054 33.6077C35.9583 33.739 36.2027 33.7548 36.4827 33.6145C36.7557 33.4827 39.659 31.7924 40.8567 31.1047C41.1262 30.9487 41.2915 30.6614 41.2906 30.3512C41.2903 30.1755 41.2717 21.1431 41.2728 21.7152L49.6098 16.8851L49.619 20.7964C49.6198 21.1049 49.7843 21.3905 50.0513 21.5448L53.2644 23.412C53.2641 23.4118 53.2648 23.4122 53.2644 23.412C53.2651 23.4123 53.2663 23.4134 53.267 23.4137C53.4423 23.5145 53.8102 23.5991 54.1341 23.4137C54.3085 23.3133 58.7371 20.7637 58.455 20.9261C58.7254 20.7709 58.8915 20.4819 58.8907 20.17L58.8777 16.7428L58.8644 11.0263C58.8631 10.585 58.7457 9.63943 58.4779 9.0243L63.0235 6.39595C63.5736 6.07471 64.0677 5.99334 64.3737 6.16879L77.0196 13.5267C12.9773 50.5073 35.0656 37.7527 30.2872 40.5119L17.1491 32.8775L32.0054 24.2969C32.0057 24.4751 32.0179 31.3528 32.0172 30.9801Z" fill="black"/>
<path d="M51.4646 51.6125L57.9812 47.8504C58.3965 47.6105 58.5389 47.0799 58.299 46.6646C58.0575 46.2484 57.526 46.1052 57.1133 46.3468L52.239 49.1607C53.4433 46.3064 55.5384 43.6562 57.9337 42.2733C58.349 42.0334 58.4914 41.5028 58.2516 41.0875C58.0108 40.6713 57.4777 40.5289 57.0658 40.7697C53.8271 42.6394 51.073 46.5605 49.9611 50.4759L48.1797 51.5043C47.7644 51.7442 47.622 52.2747 47.8619 52.6901C48.1024 53.1065 48.6346 53.2465 49.0477 53.0079L49.5278 52.7306C49.3803 54.0651 49.3959 54.0743 49.5381 55.1749L47.867 56.1397C47.4517 56.3796 47.3093 56.9102 47.5491 57.3255C47.7896 57.7419 48.3218 57.8819 48.7349 57.6433L49.9715 56.9294C51.3356 60.3443 54.7341 60.7581 57.9812 58.8842C58.3965 58.6443 58.5389 58.1137 58.299 57.6984C58.0575 57.2823 57.526 57.139 57.1133 57.3806C54.7369 58.7552 52.3788 58.6707 51.4921 56.0514L57.6676 52.4858C58.0829 52.2459 58.2253 51.7153 57.9854 51.3C57.7439 50.883 57.2124 50.7423 56.7996 50.9822L51.1806 54.2265C51.1627 53.6581 51.1367 53.0842 51.4646 51.6125Z" fill="black"/>
<path d="M53.4643 36.2597C46.0895 40.5162 40.1098 50.8695 40.1344 59.3385C40.1588 68.1682 46.6377 71.9748 54.4161 67.4846C61.785 63.2306 67.7596 52.8748 67.735 44.3999C67.7104 35.5216 61.1921 31.7983 53.4643 36.2597ZM53.5482 65.981C46.9709 69.7769 41.8913 66.8676 41.8702 59.3334C41.8473 51.4195 47.438 41.7427 54.3322 37.7633C60.8785 33.9836 65.978 36.8446 65.9992 44.4049C66.0221 52.3248 60.4365 62.0041 53.5482 65.981Z" fill="black"/>
</svg>
