<svg width="93" height="92" viewBox="0 0 93 92" fill="none" xmlns="http://www.w3.org/2000/svg">
<rect x="0.5" width="92" height="92" rx="46" fill="white"/>
<path d="M28.3202 60.32C28.6331 60.3189 28.8857 60.0657 28.8852 59.7528L28.8807 57.7009C28.8802 57.3881 28.627 57.136 28.3147 57.136C28.3141 57.136 28.3152 57.136 28.3147 57.136C28.0018 57.1371 27.7481 57.3903 27.7487 57.7031L27.7531 59.755C27.7536 60.0679 28.0079 60.32 28.3202 60.32C28.3208 60.32 28.3197 60.32 28.3202 60.32Z" fill="black"/>
<path d="M55.0723 57.6789L62.6457 53.3064C64.1223 52.454 65.2918 50.4222 65.2918 48.725L65.2354 23.1251C65.228 22.1541 64.8186 21.4823 64.3038 21.1584C64.1635 21.0566 60.6159 19.0019 60.7292 19.0678C60.093 18.6996 59.2926 18.7593 58.4767 19.2347L30.3428 35.4718C28.8559 36.3385 27.6989 38.3517 27.7083 40.0521L27.7437 55.6977C27.7442 56.0106 27.9974 56.2626 28.3097 56.2626C28.6226 56.2615 28.8763 56.0083 28.8758 55.6955L28.8404 40.0476C28.8332 38.7575 29.7823 37.1091 30.9111 36.4502L59.0444 20.2142C59.4954 19.9511 59.8923 19.8892 60.1615 20.0473L62.1493 21.2026C62.1023 21.2269 62.0553 21.2523 62.0078 21.2799L33.8761 37.5237C32.4471 38.3485 31.2315 40.3661 31.2366 42.1073L31.2601 52.7723L31.2892 67.7083C31.2897 67.7514 31.2908 67.7934 31.293 67.8354L29.297 66.6757C29.0444 66.532 28.899 66.1605 28.899 65.6553L28.8896 61.734C28.889 61.4211 28.6353 61.169 28.3235 61.169C28.0107 61.1701 27.757 61.4233 27.7575 61.7362L27.7669 65.6564C27.7669 66.5928 28.1118 67.3037 28.7326 67.6574L32.2637 69.7104C32.2647 69.7111 32.266 69.7107 32.2671 69.7113C32.2698 69.7129 32.2715 69.7156 32.2742 69.7171C32.9788 70.1238 33.8094 69.9551 34.5162 69.5468L42.0184 65.2154L41.8814 67.8045C41.8703 68.0134 41.9753 68.2113 42.1544 68.3186C44.1307 69.5114 48.0833 71.8972 50.0596 73.0901C50.233 73.195 50.4535 73.1989 50.635 73.0945L59.9448 67.684C60.1129 67.5856 60.2196 67.4076 60.2256 67.213L60.3157 64.5089C60.3229 64.3032 60.2173 64.1098 60.0405 64.0047C59.9265 63.9371 54.6481 60.8904 54.7615 60.9601L55.0723 57.6789ZM53.6278 60.9228L45.5282 65.6301L45.7774 63.0452L53.8695 58.3733L53.6278 60.9228ZM32.4279 67.6972C32.4219 64.9755 32.4458 75.8421 32.3715 42.1006C32.3643 40.7988 33.3204 39.1549 34.4431 38.5051C69.5953 18.2104 61.1818 23.0679 62.5744 22.2639C63.4454 21.762 64.0959 22.0249 64.0995 23.1339L64.1553 48.7328C64.1593 50.0642 63.1516 51.7108 62.0769 52.3225C57.6165 54.898 35.5049 67.6665 33.943 68.5684C33.0545 69.0844 32.4279 68.7965 32.4279 67.6972ZM43.188 64.5402C43.3013 64.4748 44.6785 63.6798 44.5652 63.7452L44.2942 66.6271C44.2771 66.8175 44.3747 67.0552 44.5756 67.171L49.8617 70.2162L49.8153 71.6175L43.03 67.5248L43.188 64.5402ZM50.9501 71.6009L50.996 70.2312C51.1102 70.1648 59.6983 65.1758 59.1504 65.494L59.1046 66.8626L50.9501 71.6009ZM58.6146 64.4951C58.5004 64.5614 49.8904 69.5594 50.4384 69.2413L45.9841 66.6755L54.1635 61.922L58.6146 64.4951Z" fill="black"/>
<path d="M35.0845 63.8212L62.0613 48.2452C62.2371 48.1446 62.3449 47.9567 62.3444 47.7544L62.2891 25.5064C62.2885 25.3041 62.1807 25.1173 62.0055 25.0167C61.8303 24.9172 61.6142 24.9161 61.44 25.0178L34.4626 40.5927C34.2868 40.6933 34.179 40.8812 34.1796 41.0835L34.2354 63.3326C34.2366 63.7732 34.7141 64.0369 35.0845 63.8212ZM61.1592 26.487L61.2117 47.4293L35.3653 62.3519L35.3122 41.4085L61.1592 26.487Z" fill="black"/>
<path d="M57.8581 52.1257L56.2424 53.0588C55.9715 53.2147 55.8787 53.5607 56.0351 53.8315C56.1927 54.1036 56.5407 54.1946 56.8084 54.0383L58.4242 53.1052C58.695 52.9493 58.7879 52.6033 58.6315 52.3324C58.4745 52.0616 58.1284 51.9676 57.8581 52.1257Z" fill="black"/>
<path d="M61.083 50.264L59.4672 51.197C59.1964 51.3529 59.1035 51.6989 59.2599 51.9698C59.4176 52.2419 59.7656 52.3328 60.0333 52.1765L61.649 51.2435C61.9199 51.0876 62.0127 50.7415 61.8563 50.4707C61.6988 50.1998 61.3522 50.1059 61.083 50.264Z" fill="black"/>
<path d="M38.7063 51.1838L58.4081 39.8077C58.5839 39.7071 58.6917 39.5192 58.6912 39.3169L58.6674 30.9059C58.6668 30.7036 58.5585 30.5168 58.3838 30.4161C58.2086 30.3166 57.9925 30.3155 57.8183 30.4173L44.7958 37.9356C44.793 37.9368 44.7909 37.9388 44.7881 37.9401L38.1159 41.7922C37.9401 41.8928 37.8323 42.0807 37.8329 42.283L37.8572 50.6951C37.8584 51.1383 38.3375 51.3985 38.7063 51.1838ZM57.558 38.9918L45.6042 45.8944L45.5832 38.7877L57.5381 31.8854L57.558 38.9918ZM44.453 39.4401L44.474 46.5469L38.9865 49.7156L38.9661 42.6081L44.453 39.4401Z" fill="black"/>
<path d="M51.6798 39.5291L56.1705 36.9366C56.4413 36.7808 56.5342 36.4347 56.3778 36.1639C56.2213 35.893 55.8736 35.799 55.6044 35.9571L51.1137 38.5496C50.8429 38.7055 50.75 39.0515 50.9064 39.3224C51.064 39.5945 51.4121 39.6854 51.6798 39.5291Z" fill="black"/>
<path d="M46.7546 41.7192C46.9122 41.9913 47.2602 42.0822 47.5279 41.926L49.8816 40.5672C50.1525 40.4114 50.2453 40.0653 50.0889 39.7945C49.9319 39.5236 49.5853 39.4296 49.3156 39.5877L46.9619 40.9464C46.691 41.1023 46.5981 41.4484 46.7546 41.7192Z" fill="black"/>
<path d="M40.4784 44.9496C40.479 44.9496 40.4795 44.9496 40.4801 44.9496C40.7924 44.9485 41.045 44.6953 41.0444 44.3825C41.0433 43.9126 41.4148 43.2692 41.8233 43.0337C41.9405 42.9663 42.0129 42.9596 42.0074 42.9508C42.0179 42.9618 42.0466 43.0249 42.0472 43.152C42.0483 43.582 41.7415 44.1602 41.3628 44.4411C41.2186 44.5472 41.1334 44.7163 41.134 44.8965L41.1351 45.5787C41.1356 45.8904 41.3888 46.1436 41.7011 46.1436C41.7006 46.1436 41.7017 46.1436 41.7011 46.1436C42.0134 46.1436 42.2677 45.8893 42.2672 45.5764L42.2666 45.1563C42.8089 44.6389 43.1809 43.8385 43.1792 43.1487C43.1776 42.6213 42.9598 42.1946 42.5828 41.9768C42.203 41.759 41.7194 41.7855 41.2578 42.0531C40.5011 42.4898 39.9101 43.5146 39.9124 44.3847C39.9129 44.6975 40.1666 44.9496 40.4784 44.9496Z" fill="black"/>
<path d="M42.186 46.4609C41.971 46.2453 41.5973 46.2453 41.3823 46.4609C41.1752 46.668 41.1664 47.0377 41.3823 47.2536C41.626 47.4961 41.9976 47.4625 42.186 47.2536C42.4104 47.0749 42.3916 46.6246 42.186 46.4609Z" fill="black"/>
<path d="M58.1572 45.7644L56.4707 44.8103L56.8107 44.221C56.924 44.0243 56.909 43.7799 56.7731 43.5986C56.6376 43.4173 56.4071 43.3344 56.1855 43.3886L52.912 44.1901C52.6009 44.2656 52.4113 44.5884 52.5046 44.901L53.4614 48.1126C53.5255 48.3292 53.7129 48.4873 53.9379 48.5139C54.1662 48.5349 54.3818 48.4298 54.494 48.2342L54.8373 47.6394L56.526 48.6045C56.7955 48.7595 57.1404 48.6671 57.2971 48.3967L58.3684 46.5405C58.4435 46.41 58.464 46.2541 58.4242 46.1082C58.3844 45.9634 58.2882 45.8396 58.1572 45.7644ZM56.5984 47.342L54.9097 46.3769C54.6558 46.2309 54.3395 46.3051 54.1717 46.5338L53.7594 45.1475L55.1733 44.8015C55.0618 45.0676 55.1668 45.3715 55.416 45.5145L57.1025 46.4686L56.5984 47.342Z" fill="black"/>
</svg>
