<svg width="93" height="92" viewBox="0 0 93 92" fill="none" xmlns="http://www.w3.org/2000/svg">
<path d="M87.7586 51.7317C87.7479 51.7245 87.7342 51.7256 87.7232 51.7189C87.7167 51.7149 87.7144 51.7068 87.7077 51.7029L59.4206 35.2647C61.2634 29.4052 62.65 24.0768 62.6422 21.3205C62.6304 17.295 61.2194 14.2629 58.6722 12.7684C58.6659 12.7644 58.6626 12.7578 58.656 12.754L58.626 12.7365L51.9991 8.8822C47.1733 6.0954 41.2991 9.77258 37.3952 13.8295C32.7717 18.7921 29.7975 25.7559 29.8179 31.5677C29.8231 34.3846 31.2461 38.1477 33.1555 41.9416L23.156 50.0851L5.37866 57.3656C5.04247 57.5039 4.88225 57.8186 4.8396 58.1717L4.85655 63.97C4.8574 64.2785 5.02183 64.5633 5.28797 64.7175L9.60725 67.2281C10.0217 67.468 10.5523 67.3298 10.7939 66.9145C11.0354 66.5 10.8947 65.9686 10.4803 65.7279L6.59071 63.4674L6.57969 59.6797C10.4845 61.9489 34.9637 76.1741 37.9773 77.9253L37.9883 81.7132L18.1865 70.2065C17.7754 69.9658 17.2414 70.1048 17.0007 70.5209C16.7592 70.9346 16.9007 71.466 17.3152 71.7067L38.4251 83.9738C38.6667 84.1151 38.9522 84.1251 39.1896 84.0263L57.0566 76.7007C57.0673 76.6963 57.0718 76.6845 57.0823 76.6797C57.1492 76.6494 57.2167 76.6194 57.2753 76.5718L69.8748 66.3315L87.6221 59.054C87.9485 58.9201 88.1612 58.6022 88.1604 58.2488L88.1443 52.4505C88.1434 52.1615 87.9993 51.8919 87.7586 51.7317ZM57.5807 70.5135L68.5456 61.6004L68.5498 62.9697L68.5563 65.1662L57.5906 74.0782L57.5807 70.5135ZM58.8832 36.9592L85.3133 52.3183L69.4764 58.8133L54.3363 50.0227C55.8883 45.7991 57.4953 41.239 58.8832 36.9592ZM60.9063 21.3256C60.922 26.9482 54.3939 44.8237 52.4524 50.1042C52.4523 50.1046 52.4526 50.1037 52.4524 50.1042C51.1709 53.5851 50.0594 56.468 49.4106 58.1337C45.8028 53.033 39.2681 42.9581 38.3231 36.8007C37.7255 32.8753 39.4477 27.773 41.4711 24.1718C43.6087 20.3711 46.6115 17.0304 49.9446 15.106C52.3439 13.7203 55.3799 12.8761 57.7718 14.2493C59.7831 15.4156 60.897 17.9265 60.9063 21.3256ZM38.6556 15.0229C41.8494 11.7031 47.1482 8.08805 51.1286 10.3841L53.7316 11.8979C52.432 12.0813 50.7571 12.6334 49.0792 13.5981C41.2277 18.1285 35.631 29.5694 36.5727 36.7541C37.3742 42.8439 43.1858 52.1336 46.6495 57.2049L43.5825 55.422C43.5438 55.3692 43.4893 55.2943 43.432 55.2157C41.0761 51.9453 31.5662 38.3289 31.5537 31.5627C31.5351 26.167 34.3262 19.6702 38.6556 15.0229ZM42.2799 56.585C42.2827 56.589 42.2877 56.5908 42.2907 56.5947C42.2911 56.5954 42.293 56.598 42.2934 56.5986C42.3209 56.636 42.3629 56.6582 42.396 56.6904C42.4453 56.7377 42.4875 56.793 42.5469 56.8274L42.5527 56.8308C42.3389 56.7069 45.6115 58.601 49.2723 60.721C49.8024 60.9697 50.3151 60.5922 50.4472 60.2593C50.8291 59.2908 52.1198 55.9968 53.7251 51.6756L67.8863 59.8979L56.6291 69.048L25.1118 50.7314L33.9676 43.5195C35.8766 47.0834 38.6873 51.6323 42.2799 56.585ZM23.5092 51.8166L54.7403 69.9697L38.9099 76.46L7.66713 58.3039L23.5092 51.8166ZM39.7253 81.9311C39.7247 81.7529 39.7126 77.7553 39.7134 78.0068L55.8471 71.3923L55.8581 75.3166L39.7253 81.9311ZM70.2899 64.2853L70.2784 60.4822L70.2781 60.361L86.4118 53.7456L86.4228 57.6699L70.2899 64.2853Z" fill="white"/>
<path d="M15.6277 68.719L12.929 67.151C12.5179 66.9102 11.9839 67.0501 11.7432 67.4654C11.5016 67.8799 11.6432 68.4105 12.0576 68.6512L14.7563 70.2192C15.1657 70.4582 15.6995 70.3235 15.9421 69.9048C16.1837 69.4903 16.0421 68.9597 15.6277 68.719Z" fill="white"/>
<path d="M49.0979 20.6492C45.6695 22.6291 42.9919 27.2722 43.003 31.2194C43.0152 35.4633 46.2487 37.3818 50.0031 35.2157C53.4367 33.2332 56.1176 28.5927 56.1066 24.6506C56.0943 20.3706 52.8242 18.4956 49.0979 20.6492ZM49.1352 33.7121C46.5743 35.189 44.7476 34.1474 44.7388 31.2143C44.7295 27.8875 47.0739 23.8225 49.9659 22.1528C52.5081 20.6867 54.3619 21.6931 54.3707 24.6557C54.3801 27.9206 51.9823 32.0687 49.1352 33.7121Z" fill="white"/>
</svg>
