<svg width="93" height="92" viewBox="0 0 93 92" fill="none" xmlns="http://www.w3.org/2000/svg">
<rect x="0.5" width="92" height="92" rx="46" fill="black"/>
<path d="M32.5442 65.2371C32.6338 65.2885 32.7311 65.3128 32.8272 65.3128C33.0229 65.3128 33.2131 65.2111 33.317 65.0298C33.474 64.7589 33.3811 64.4129 33.1103 64.2565L31.6244 63.3991C31.3525 63.2416 31.0064 63.335 30.8516 63.6064C30.6947 63.8773 30.7875 64.2233 31.0584 64.3797L32.5442 65.2371Z" fill="white"/>
<path d="M73.0921 43.7259C73.0912 43.7254 73.0909 43.7243 73.09 43.7238L63.6327 38.2584C63.6443 34.8308 63.6597 30.1886 63.6597 30.3567C63.6597 30.2041 63.5672 29.9772 63.3767 29.8675L52.0106 23.3127C51.8426 23.216 51.6358 23.2121 51.4634 23.3028C51.2909 23.3934 51.1781 23.5664 51.1626 23.7605L50.9495 26.6123L48.6365 25.2817C48.4618 25.1811 48.2484 25.1816 48.0716 25.2822C47.8969 25.3828 47.7896 25.5691 47.7885 25.7703L47.7687 31.4928L42.8302 28.6447C42.6632 28.5491 42.4565 28.543 42.2829 28.6348C42.1105 28.7254 41.9977 28.8985 41.9822 29.0925L41.7666 31.9473L39.455 30.6143C39.2803 30.5137 39.0647 30.5142 38.89 30.6148C38.7153 30.7154 38.6081 30.9017 38.607 31.1035L38.5881 36.819L33.6597 33.9768C33.4917 33.8795 33.2849 33.8751 33.1125 33.9668C32.94 34.0575 32.8272 34.2305 32.8117 34.4245L32.5961 37.28L30.2856 35.9463C30.1109 35.8457 29.8953 35.8462 29.7207 35.9468C29.546 36.0475 29.4387 36.2337 29.4376 36.4355L29.408 47.2149L19.9156 52.7362C19.7409 52.8373 19.6337 53.0242 19.6337 53.2265C19.6337 53.2279 19.6348 53.2291 19.6348 53.2305L19.6226 57.4485C19.6215 57.6514 19.7299 57.8388 19.9056 57.9405L29.3238 63.3781C29.5957 63.5345 29.9418 63.4417 30.0965 63.1708C30.2535 62.9 30.1607 62.5539 29.8898 62.3975L20.7558 57.1241L20.7635 54.2065L38.2466 64.3001C38.2462 64.425 38.2378 67.4045 38.2384 67.2174L34.6901 65.1691C34.4192 65.0149 34.0721 65.105 33.9173 65.3764C33.7603 65.6472 33.8532 65.9933 34.124 66.1497L38.5186 68.6869C38.6932 68.7875 38.9088 68.7881 39.0835 68.6875C39.0841 68.6871 39.0843 68.6864 39.0849 68.686C91.4494 38.2557 65.629 53.2606 73.0833 48.9287C73.258 48.8281 73.3642 48.6423 73.3653 48.4411L73.3774 44.2185C73.3785 44.0156 73.2702 43.8283 73.0944 43.7265C73.0937 43.7261 73.0928 43.7263 73.0921 43.7259ZM47.8151 43.7017L45.3088 42.2567C45.3088 42.1427 45.3088 40.9073 45.3088 41.0213C45.3088 40.9939 45.292 40.9713 45.2881 40.9446C45.2635 40.7747 45.1776 40.6189 45.0258 40.5315L41.8462 38.693L41.8529 36.6234L47.8328 40.0794L47.8151 43.7017ZM41.8827 58.4799C41.8872 56.8469 41.9196 44.8797 41.9238 43.3176L44.1767 42.0064L44.1325 57.1777L41.8827 58.4799ZM56.9944 38.3669L54.4793 36.9141C54.4793 36.8001 54.4793 35.5742 54.4793 35.6881C54.4793 35.4864 54.3709 35.3001 54.1963 35.1995L51.0157 33.3653L51.0233 31.2964L57.0021 34.7479L56.9944 38.3669ZM51.0522 53.148C51.0662 49.0407 51.0924 41.4006 51.1041 37.9849L53.3472 36.6754L53.303 51.8457L51.0522 53.148ZM60.2336 47.8142C60.234 47.6806 60.2736 33.0853 60.2747 32.6536C60.3883 32.5875 62.6707 31.2594 62.5254 31.3439L62.4723 46.5142L60.2336 47.8142ZM61.9645 30.3598L59.7085 31.6727L52.0357 27.238L52.224 24.7427L61.9645 30.3598ZM48.9173 26.7493C62.9299 34.8411 58.0969 32.0502 59.1425 32.654C59.1413 33.0785 59.1035 46.8823 59.1009 47.8191C58.8438 47.6704 54.1633 44.9634 54.4572 45.1334L54.4771 38.2204L57.2752 39.8367C57.3625 39.887 57.4609 39.9124 57.5582 39.9124C57.8656 39.9124 58.1242 39.6629 58.1242 39.3475L58.1353 34.4229C58.1353 34.2205 58.0281 34.0326 57.8523 33.9314L50.747 29.8238C50.5723 29.7221 50.3567 29.7215 50.1798 29.821C50.004 29.9211 49.8957 30.1079 49.8946 30.3102L49.8857 32.7137L48.8985 32.1443L48.9173 26.7493ZM43.0435 30.0753C46.5462 32.1006 52.4805 35.5184 52.7845 35.6935L50.538 37.0049L42.8556 32.57L43.0435 30.0753ZM39.7358 32.0819C39.9223 32.1895 39.1465 31.742 49.972 37.9856C49.955 42.9393 49.9308 50.015 49.92 53.1524C49.6442 52.9931 45.0093 50.3161 45.2878 50.4769L45.3066 43.5624L48.0937 45.1687C48.1811 45.2191 48.2788 45.2443 48.3764 45.2444C48.3763 45.2444 48.3765 45.2444 48.3764 45.2444C48.6873 45.2444 48.941 44.9931 48.9427 44.6812L48.9659 39.7565C48.967 39.5531 48.8587 39.3652 48.6829 39.2635L41.5732 35.1542C41.3985 35.0536 41.1829 35.053 41.0082 35.1536C40.8325 35.2542 40.7252 35.4405 40.7241 35.6428L40.7162 38.0418L39.7181 37.4681L39.7358 32.0819ZM33.8731 35.4068L43.6129 41.0229L41.3576 42.3374L33.6851 37.902L33.8731 35.4068ZM40.7916 43.318C40.7899 43.9046 40.7525 57.5894 40.75 58.4841L30.5255 52.5819L30.5664 37.4139L40.7916 43.318ZM29.4012 48.5279L29.3923 52.9075C29.3923 53.1104 29.4995 53.2978 29.6753 53.3989L41.0304 59.9537C41.1177 60.004 41.2161 60.0294 41.3134 60.0294C41.3132 60.0294 41.3136 60.0294 41.3134 60.0294C41.3225 60.0294 41.3313 60.0227 41.3404 60.0222C41.4283 60.018 41.5163 59.9997 41.5953 59.9543C41.7101 59.8881 45.0937 57.9297 44.9805 57.9947C45.1551 57.8941 45.2624 57.7083 45.2635 57.5071L45.2834 51.7819L50.1997 54.6217C50.2871 54.672 50.3855 54.6974 50.4827 54.6974C50.4825 54.6974 50.4829 54.6974 50.4827 54.6974C50.4919 54.6974 50.5006 54.6906 50.5098 54.6902C50.5976 54.6859 50.6857 54.6677 50.7647 54.6222C50.8795 54.5561 54.2642 52.5976 54.1509 52.6626C54.3256 52.562 54.4328 52.3763 54.4339 52.1745L54.4527 46.439C54.5675 46.5054 59.496 49.356 59.3812 49.2896C59.4686 49.3399 59.567 49.3654 59.6643 49.3654C59.6642 49.3654 59.6643 49.3654 59.6643 49.3654C59.6862 49.3654 59.7061 49.3509 59.7278 49.3484C59.8028 49.3397 59.8785 49.3292 59.9462 49.2902C61.6236 48.3163 63.4423 47.2604 63.3214 47.3306C63.495 47.2295 63.6022 47.0443 63.6033 46.8431L63.6332 39.5664L71.6782 44.2152L38.8104 63.3151L21.3285 53.2237L29.4012 48.5279ZM72.2343 48.1133L39.3709 67.2116C39.3713 67.0867 39.3793 64.1129 39.3788 64.3001L72.242 45.2019L72.2343 48.1133Z" fill="white"/>
<path d="M38.9254 50.5007C39.0128 50.5516 39.11 50.5765 39.2073 50.5765C39.5177 50.5765 39.7734 50.3255 39.7734 50.0115L39.7844 45.0869C39.7844 44.8846 39.6772 44.6967 39.5014 44.5955L32.3961 40.4879C32.2214 40.3861 32.0058 40.3856 31.8289 40.4851C31.6532 40.5857 31.5437 40.7725 31.5437 40.9748L31.5316 45.9105C31.5316 46.1117 31.6377 46.298 31.8102 46.3997L38.9254 50.5007ZM32.6736 41.961L38.6512 45.4119L38.6435 49.0326L32.7698 45.6513L32.6647 45.5894L32.6736 41.961Z" fill="white"/>
</svg>
