<svg width="852" height="130" viewBox="0 0 852 130" fill="none" xmlns="http://www.w3.org/2000/svg">
<path d="M176.62 120.418C171.651 120.418 167.615 119.638 164.521 118.057C161.428 116.485 159.197 114.205 157.828 111.215C156.459 108.224 155.769 104.555 155.769 100.187V9.57974H181.478V95.0272C181.478 97.1558 181.985 98.5749 182.999 99.2844C184.014 99.9939 185.281 100.349 186.803 100.349H191.67V120.418H176.61H176.62ZM274.892 60.2806C272.154 52.9319 267.682 47.1848 261.505 43.0289C255.319 38.8731 247.409 36.7952 237.774 36.7952C229.651 36.7952 222.582 38.5386 216.548 42.0356C210.514 45.5326 205.828 50.4993 202.481 56.9357C199.135 63.3721 197.461 71.106 197.461 80.1272C197.461 88.4388 199.084 95.7368 202.329 102.021C205.575 108.306 210.26 113.191 216.396 116.688C222.531 120.185 229.955 121.939 238.687 121.939C245.685 121.939 251.861 120.824 257.246 118.594C262.621 116.364 267.033 113.252 270.481 109.238C273.919 105.234 276.049 100.45 276.87 94.8752H252.378C251.668 97.2065 250.167 99.102 247.885 100.572C245.603 102.041 242.541 102.781 238.687 102.781C235.431 102.781 232.602 102.092 230.168 100.724C227.734 99.3554 225.878 97.3585 224.61 94.7232C223.343 92.0878 222.714 88.9456 222.714 85.2966H277.478C278.483 75.9713 277.631 67.6395 274.892 60.2806ZM222.846 69.6363C222.947 67.2644 223.454 65.1865 224.387 63.4025C225.604 61.0712 227.349 59.2467 229.63 57.929C231.912 56.6114 234.63 55.9525 237.774 55.9525C240.715 55.9525 243.301 56.5607 245.532 57.777C247.764 58.9933 249.488 60.7367 250.705 63.0174C251.658 64.8013 252.175 67.011 252.256 69.6363H222.846ZM364.94 102.325C363.723 102.325 362.79 101.94 362.13 101.18C361.471 100.42 361.136 99.1831 361.136 97.4599V67.3556C361.136 62.4903 360.406 58.152 358.936 54.351C357.465 50.5499 355.254 47.3571 352.313 44.7724C349.372 42.1876 345.721 40.2111 341.36 38.8427C337 37.4743 331.878 36.7952 325.996 36.7952C318.288 36.7952 311.575 37.9913 305.845 40.3631C300.115 42.7451 295.673 46.1205 292.529 50.479C289.385 54.8375 287.813 59.8549 287.813 65.5311H312.913C312.913 63.7066 313.4 62.1355 314.363 60.8178C315.327 59.5001 316.645 58.4561 318.319 57.6959C319.992 56.9357 322.041 56.5607 324.475 56.5607C326.503 56.5607 328.359 56.8343 330.032 57.3918C331.706 57.9493 333.024 58.9427 333.987 60.3617C334.951 61.7808 335.428 63.7066 335.428 66.1393V72.221H320.215C314.942 72.221 310.175 72.7785 305.916 73.8934C301.656 75.0084 298.035 76.7011 295.044 78.9818C292.052 81.2624 289.74 84.06 288.117 87.3441C286.494 90.6383 285.683 94.4191 285.683 98.6762C285.683 105.569 288.046 111.093 292.762 115.249C297.478 119.405 303.836 121.483 311.848 121.483C317.325 121.483 322.396 120.388 327.061 118.209C331.726 116.029 335.022 113.171 336.949 109.623H337.862C338.977 113.07 341.036 115.725 344.028 117.6C347.019 119.476 350.893 120.418 355.66 120.418H368.438V102.325H364.94ZM335.428 93.8109C335.123 97.1558 333.734 99.7405 331.249 101.565C328.765 103.39 325.641 104.302 321.889 104.302C318.846 104.302 316.392 103.592 314.516 102.173C312.639 100.754 311.696 98.7776 311.696 96.2436C311.696 94.4191 312.234 92.8176 313.299 91.4492C314.363 90.0808 315.905 89.0165 317.933 88.2563C319.962 87.4961 322.497 87.1211 325.539 87.1211H335.428V93.8109ZM384.878 120.418V58.8413H372.404V38.1636H384.878V31.3217C384.878 24.3278 387.079 18.9557 391.49 15.2053C395.902 11.4549 402.159 9.57974 410.283 9.57974H427.473V26.4564H417.128C414.998 26.4564 413.376 26.9125 412.26 27.8248C411.145 28.737 410.587 30.3588 410.587 32.6901V38.1636H426.256V58.8413H410.587V120.418H384.878ZM107.313 15.5905C86.9585 -1.80313 57.051 -5.43186 32.5286 8.71817C19.1214 16.4622 9.5072 28.2505 4.35527 41.6606C17.9247 53.2563 37.8631 55.6687 54.2113 46.2421L107.323 15.6006L107.313 15.5905ZM86.7151 126.287C111.968 117.367 130.06 93.294 130.06 64.9939C130.06 49.5161 124.645 35.3052 115.598 24.1352C98.7634 30.0851 86.705 46.1306 86.705 64.9939V126.287H86.7151ZM1.08967 53.1144C-3.80871 79.4278 8.00624 107.13 32.5286 121.28C45.9358 129.024 60.9656 131.446 75.1537 129.196C78.4193 111.65 70.5393 93.1926 54.2012 83.7559L1.08967 53.1144Z" fill="white"/>
<path d="M470.409 122.014C465.444 122.014 460.986 121.407 457.034 120.192C453.083 118.976 449.688 117.306 446.851 115.179C444.014 112.952 441.836 110.319 440.316 107.281C438.796 104.143 437.985 100.7 437.884 96.9534H450.043C450.246 100.497 451.208 103.484 452.931 105.915C454.755 108.243 457.186 109.965 460.226 111.079C463.367 112.192 466.863 112.749 470.713 112.749C476.894 112.749 481.606 111.585 484.848 109.256C488.192 106.927 489.864 103.636 489.864 99.3835C489.864 96.1433 489.155 93.6626 487.736 91.9412C486.318 90.1186 484.139 88.701 481.201 87.6885C478.262 86.6759 474.412 85.8153 469.65 85.1065C463.063 84.1952 457.592 82.9295 453.235 81.3094C448.878 79.6893 445.585 77.411 443.355 74.4746C441.126 71.437 440.012 67.488 440.012 62.6277C440.012 57.97 441.278 53.9197 443.811 50.477C446.345 46.9331 449.891 44.1992 454.451 42.2753C459.01 40.2502 464.33 39.2377 470.409 39.2377C476.59 39.2377 481.91 40.2502 486.368 42.2753C490.827 44.1992 494.322 46.9837 496.855 50.6289C499.389 54.1729 500.706 58.4256 500.807 63.3871H488.8C488.597 59.8432 487.686 57.008 486.064 54.8817C484.544 52.654 482.417 51.0846 479.681 50.1733C477.046 49.1607 473.905 48.6544 470.257 48.6544C464.583 48.6544 460.176 49.8189 457.034 52.1478C453.893 54.4766 452.323 57.5649 452.323 61.4126C452.323 64.3491 453.083 66.7286 454.603 68.5512C456.122 70.2725 458.453 71.6395 461.594 72.652C464.837 73.5633 468.89 74.3734 473.753 75.0822C479.731 75.8922 484.848 77.1073 489.104 78.7274C493.461 80.3475 496.754 82.727 498.983 85.8659C501.212 88.9036 502.327 93.055 502.327 98.3203C502.327 103.383 501.01 107.686 498.375 111.23C495.741 114.673 491.992 117.356 487.128 119.28C482.366 121.103 476.793 122.014 470.409 122.014Z" fill="#FB5E48"/>
<path d="M543.538 120.495C537.965 120.495 533.71 119.179 530.771 116.546C527.934 113.812 526.516 109.408 526.516 103.332V50.9327H511.013V40.7565H526.516V16.9108L538.675 15.2401V40.7565H557.217V50.9327H538.827V101.358C538.827 104.396 539.536 106.623 540.954 108.041C542.373 109.357 544.45 110.015 547.186 110.015H557.521V120.495H543.538Z" fill="#FB5E48"/>
<path d="M604.792 121.862C599.016 121.862 593.747 120.9 588.985 118.976C584.324 117.053 580.271 114.268 576.826 110.623C573.482 106.978 570.847 102.674 568.922 97.7128C567.098 92.65 566.186 87.0303 566.186 80.8537C566.186 72.652 567.757 65.4629 570.898 59.2863C574.039 53.1097 578.498 48.3 584.273 44.8573C590.15 41.3134 596.99 39.5414 604.792 39.5414C610.567 39.5414 615.785 40.5034 620.446 42.4272C625.209 44.2498 629.262 46.9837 632.606 50.6289C635.949 54.2741 638.533 58.6281 640.357 63.6909C642.181 68.7537 643.093 74.424 643.093 80.7018C643.093 88.8023 641.522 95.9408 638.381 102.117C635.341 108.294 630.934 113.154 625.158 116.698C619.382 120.141 612.594 121.862 604.792 121.862ZM604.792 111.23C609.959 111.23 614.468 110.066 618.319 107.737C622.169 105.307 625.158 101.814 627.286 97.2571C629.515 92.5994 630.63 87.0809 630.63 80.7018C630.63 75.9428 630.022 71.6901 628.806 67.9436C627.59 64.0959 625.867 60.8557 623.638 58.2231C621.409 55.4892 618.724 53.4134 615.583 51.9959C612.442 50.5783 608.845 49.8695 604.792 49.8695C599.624 49.8695 595.064 51.1352 591.113 53.6666C587.262 56.0967 584.222 59.59 581.993 64.1465C579.865 68.7031 578.802 74.2721 578.802 80.8537C578.802 85.5115 579.359 89.7642 580.473 93.6119C581.689 97.3584 583.412 100.548 585.641 103.181C587.971 105.813 590.758 107.838 594 109.256C597.243 110.572 600.84 111.23 604.792 111.23Z" fill="#FB5E48"/>
<path d="M660.28 120.495V40.7565H671.223L671.983 55.4892H672.591C674.314 50.4264 677.354 46.5281 681.711 43.7942C686.068 41.0603 690.931 39.6933 696.301 39.6933C697.213 39.6933 698.075 39.7439 698.885 39.8452C699.696 39.8452 700.456 39.8958 701.165 39.9971V51.6921C700.456 51.5908 699.696 51.5402 698.885 51.5402C698.075 51.439 697.213 51.3883 696.301 51.3883C691.64 51.3883 687.587 52.249 684.142 53.9704C680.697 55.6917 677.962 58.1725 675.935 61.4126C674.01 64.5516 672.845 68.3993 672.439 72.9558V120.495H660.28Z" fill="#FB5E48"/>
<path d="M741.617 121.862C734.018 121.862 727.482 120.192 722.011 116.85C716.641 113.509 712.537 108.75 709.7 102.573C706.863 96.3965 705.444 89.2073 705.444 81.0056C705.444 72.6014 706.863 65.311 709.7 59.1344C712.537 52.8565 716.59 48.0469 721.859 44.7055C727.128 41.2628 733.562 39.5414 741.161 39.5414C749.268 39.5414 755.955 41.364 761.224 45.0092C766.493 48.6544 770.293 53.7172 772.623 60.1976C775.055 66.6779 775.967 74.1709 775.359 82.6763H717.451C717.553 89.2579 718.566 94.7764 720.491 99.2316C722.518 103.586 725.304 106.876 728.85 109.104C732.498 111.23 736.754 112.294 741.617 112.294C747.292 112.294 751.953 110.977 755.6 108.345C759.248 105.712 761.68 102.219 762.896 97.8647H774.751C773.839 102.927 771.812 107.281 768.671 110.927C765.632 114.471 761.781 117.205 757.12 119.128C752.459 120.951 747.292 121.862 741.617 121.862ZM717.603 75.6897L716.235 73.8671H764.72L763.352 75.9935C763.453 69.6144 762.592 64.5009 760.768 60.6532C758.944 56.7043 756.31 53.8185 752.865 51.9959C749.521 50.072 745.62 49.1101 741.161 49.1101C736.5 49.1101 732.447 50.1226 729.002 52.1478C725.557 54.1729 722.821 57.1599 720.795 61.1089C718.87 64.9566 717.806 69.8169 717.603 75.6897Z" fill="#FB5E48"/>
<path d="M820.082 122.014C815.117 122.014 810.659 121.407 806.707 120.192C802.756 118.976 799.361 117.306 796.524 115.179C793.687 112.952 791.508 110.319 789.989 107.281C788.469 104.143 787.658 100.7 787.557 96.9534H799.716C799.919 100.497 800.881 103.484 802.604 105.915C804.428 108.243 806.859 109.965 809.899 111.079C813.04 112.192 816.536 112.749 820.386 112.749C826.567 112.749 831.279 111.585 834.521 109.256C837.865 106.927 839.537 103.636 839.537 99.3835C839.537 96.1433 838.828 93.6626 837.409 91.9412C835.99 90.1186 833.812 88.701 830.874 87.6885C827.935 86.6759 824.085 85.8153 819.322 85.1065C812.736 84.1952 807.265 82.9295 802.908 81.3094C798.551 79.6893 795.258 77.411 793.028 74.4746C790.799 71.437 789.685 67.488 789.685 62.6277C789.685 57.97 790.951 53.9197 793.484 50.477C796.018 46.9331 799.564 44.1992 804.124 42.2753C808.683 40.2502 814.003 39.2377 820.082 39.2377C826.263 39.2377 831.583 40.2502 836.041 42.2753C840.5 44.1992 843.995 46.9837 846.528 50.6289C849.062 54.1729 850.379 58.4256 850.48 63.3871H838.473C838.27 59.8432 837.358 57.008 835.737 54.8817C834.217 52.654 832.089 51.0846 829.354 50.1733C826.719 49.1607 823.578 48.6544 819.93 48.6544C814.256 48.6544 809.848 49.8189 806.707 52.1478C803.566 54.4766 801.996 57.5649 801.996 61.4126C801.996 64.3491 802.756 66.7286 804.276 68.5512C805.795 70.2725 808.126 71.6395 811.267 72.652C814.509 73.5633 818.562 74.3734 823.426 75.0822C829.404 75.8922 834.521 77.1073 838.777 78.7274C843.134 80.3475 846.427 82.727 848.656 85.8659C850.885 88.9036 852 93.055 852 98.3203C852 103.383 850.683 107.686 848.048 111.23C845.414 114.673 841.665 117.356 836.801 119.28C832.039 121.103 826.466 122.014 820.082 122.014Z" fill="#FB5E48"/>
</svg>
