<svg width="93" height="92" viewBox="0 0 93 92" fill="none" xmlns="http://www.w3.org/2000/svg">
<rect x="0.5" width="92" height="92" rx="46" fill="white"/>
<path d="M33.1423 60.4563L31.4016 59.4447C31.1318 59.2877 30.7847 59.3784 30.6277 59.6503C30.4702 59.9201 30.5625 60.2672 30.8322 60.4242L32.5729 61.4358C32.6625 61.4877 32.7603 61.5121 32.857 61.5121C33.0522 61.5121 33.2418 61.4115 33.3468 61.2301C33.5043 60.9604 33.412 60.6133 33.1423 60.4563Z" fill="black"/>
<path d="M27.8368 37.629C27.661 37.7296 27.5532 37.9176 27.5538 38.1199L27.6013 54.9473C27.6019 55.1486 27.7091 55.3343 27.8832 55.436L49.7984 68.1707C49.8863 68.2216 49.9841 68.247 50.0825 68.247C50.3901 68.247 50.6494 67.9972 50.6486 67.6799L50.601 50.8524C50.6005 50.6512 50.4932 50.4655 50.3191 50.3638L28.4039 37.629C28.2287 37.5284 28.012 37.5262 27.8368 37.629ZM49.47 51.1797L49.5137 66.6959L28.7323 54.6201L28.6886 39.1038L49.47 51.1797Z" fill="black"/>
<path d="M30.709 53.8042L46.9539 63.2444C47.0418 63.2953 47.1396 63.3207 47.238 63.3207C47.5456 63.3207 47.8049 63.0709 47.804 62.7535L47.7753 52.4842C47.7747 52.283 47.6675 52.0972 47.4934 51.9955L31.2485 42.5553C31.0733 42.4536 30.8566 42.4536 30.6814 42.5553C30.5056 42.6559 30.3978 42.8438 30.3984 43.0461L30.4271 53.3155C30.4277 53.5167 30.5349 53.7025 30.709 53.8042ZM46.6443 52.8114L46.6692 61.7696L31.5581 52.9883L31.5332 44.0301L46.6443 52.8114Z" fill="black"/>
<path d="M42.383 38.1221C42.2072 38.2227 42.0994 38.4107 42.1 38.613L42.1132 43.2419C42.1138 43.4431 42.221 43.6288 42.3952 43.7305L49.7636 48.0123C49.8515 48.0632 49.9493 48.0886 50.0477 48.0886C50.3553 48.0886 50.6146 47.8388 50.6138 47.5214L50.601 42.8925C50.6005 42.6913 50.4933 42.5056 50.3191 42.4039L42.9501 38.1221C42.7749 38.0204 42.5582 38.0204 42.383 38.1221ZM49.4701 43.2198L49.4789 46.5375L43.2442 42.9146L43.2348 39.5969L49.4701 43.2198Z" fill="black"/>
<path d="M65.7884 35.4268L65.7868 35.4257L38.2107 19.4075C36.6192 18.4854 34.548 18.6656 32.3795 19.9171C28.1359 22.3736 24.6926 28.3281 24.7048 33.1892L24.7722 56.578C24.7728 56.7792 24.88 56.965 25.0542 57.0667L29.049 59.3872C29.3188 59.5442 29.6654 59.4535 29.8224 59.1816C29.9799 58.9118 29.8876 58.5647 29.6173 58.4077L25.9032 56.2508L25.8369 33.1869C25.8258 28.6863 29.0153 23.1729 32.9461 20.8966C34.7492 19.8574 36.4175 19.6761 37.643 20.387L62.6675 34.9238C62.5783 34.9383 62.4866 34.964 62.3965 34.9828C61.5501 35.159 60.7003 35.512 59.9456 35.9475C55.7264 38.3906 52.2769 44.3418 52.2909 49.2217L52.3544 71.62L35.2052 61.6547C34.936 61.4977 34.5889 61.5894 34.4319 61.8603C34.2744 62.1301 34.3667 62.4772 34.637 62.6342C35.3233 63.033 52.8087 73.1927 52.6408 73.097C52.7192 73.1417 52.8072 73.16 52.8947 73.1646C52.9059 73.1653 52.9159 73.1733 52.9271 73.1733C53.0249 73.1733 53.1228 73.1479 53.2101 73.097C53.2135 73.0951 53.2147 73.0911 53.2181 73.0891L68.0122 64.5479C68.188 64.4473 68.2958 64.2593 68.2952 64.057L68.2289 40.6715C68.2229 38.6031 67.5704 36.4582 65.7884 35.4268ZM53.4903 71.6256L53.4251 49.2173C53.4147 44.7135 56.6117 39.1862 60.5188 36.9292C64.2235 34.7905 67.0853 36.4047 67.0968 40.6737L67.1621 63.732L53.4903 71.6256Z" fill="black"/>
<path d="M63.5574 37.6943C62.8302 37.6943 62.0003 38.0354 61.3734 38.4029C58.0325 40.3221 55.1117 45.3723 55.1233 49.2085L55.1686 67.7186C55.1691 67.9209 55.2775 68.1066 55.4527 68.2072C55.6342 68.3106 55.8484 68.3047 56.0176 68.2061L65.1765 62.9194C65.3523 62.8188 65.4601 62.6309 65.4595 62.4286L65.4026 40.6759C65.3711 38.0812 64.2329 37.6943 63.5574 37.6943ZM56.2968 66.738L56.2553 49.2052C56.2448 45.7194 58.8998 41.1292 61.9417 39.3824C63.7732 38.3088 64.2461 38.777 64.2705 40.6837L64.3264 62.1035L56.2968 66.738Z" fill="black"/>
<path d="M39.0288 25.918C40.2375 25.2144 40.2352 23.8871 39.0177 23.1851C38.0067 22.6014 36.4285 22.6014 35.4242 23.1851C34.2147 23.8868 34.2171 25.216 35.4347 25.918C36.4438 26.501 38.0225 26.5025 39.0288 25.918ZM35.9924 24.1646C36.6569 23.777 37.7827 23.7798 38.4517 24.1646C38.7087 24.3139 38.801 24.4642 38.801 24.5549C38.801 24.6455 38.7115 24.7926 38.4605 24.9385C37.8083 25.3188 36.6585 25.3166 36.0007 24.9385C35.7437 24.7893 35.6519 24.6389 35.6514 24.5482C35.6514 24.4587 35.7409 24.3106 35.9924 24.1646Z" fill="black"/>
<path d="M44.452 26.3227C43.4465 25.7423 41.8706 25.7445 40.8662 26.3271C39.6501 27.0339 39.6594 28.3594 40.869 29.0556C41.8837 29.6423 43.4656 29.6436 44.4708 29.06C45.0457 28.7261 45.3746 28.2297 45.374 27.6969C45.3735 27.1607 45.0374 26.6599 44.452 26.3227ZM43.9026 28.0805C43.2387 28.4674 42.1088 28.4641 41.435 28.0761C41.1807 27.929 41.0901 27.7809 41.0901 27.6924C41.0895 27.5797 41.2249 27.4282 41.4344 27.3066C42.1016 26.9193 43.2206 26.92 43.886 27.3022C44.1485 27.4536 44.242 27.6062 44.242 27.6991C44.242 27.7886 44.153 27.9356 43.9026 28.0805Z" fill="black"/>
<path d="M49.9128 32.2019C51.119 31.5017 51.1143 30.1672 49.894 29.4646C48.8824 28.8809 47.3043 28.8809 46.2999 29.4646C45.0911 30.1682 45.0934 31.4955 46.311 32.1975C47.3225 32.7824 48.9033 32.7874 49.9128 32.2019ZM46.8681 30.4441C47.5184 30.0649 48.6693 30.0655 49.328 30.4441C49.5883 30.5945 49.6812 30.7481 49.6812 30.8421C49.6812 30.956 49.5524 31.1019 49.3446 31.2224C48.6917 31.6016 47.5387 31.5994 46.877 31.218C46.62 31.0687 46.5276 30.9184 46.5276 30.8277C46.5276 30.7371 46.6172 30.59 46.8681 30.4441Z" fill="black"/>
<path d="M55.3554 35.3439C56.5611 34.6433 56.5563 33.3091 55.3361 32.6066C54.3251 32.0228 52.7464 32.0228 51.742 32.6066C50.5332 33.3102 50.5355 34.6374 51.753 35.3395C52.7666 35.9256 54.348 35.9281 55.3554 35.3439ZM52.3102 33.5861C52.9733 33.1999 54.0985 33.1998 54.7701 33.5861C55.0304 33.7364 55.1233 33.8901 55.1233 33.9841C55.1238 34.0979 54.9945 34.2439 54.7872 34.3644C54.1338 34.7447 52.9802 34.7403 52.3191 34.3599C52.062 34.2107 51.9697 34.0603 51.9697 33.9697C51.9697 33.879 52.0593 33.732 52.3102 33.5861Z" fill="black"/>
<path d="M58.0452 46.3186C57.7324 46.3186 57.4792 46.5718 57.4792 46.8846V61.7144C57.4792 62.0273 57.7324 62.2804 58.0452 62.2804C58.3581 62.2804 58.6113 62.0273 58.6113 61.7144V46.8846C58.6113 46.5718 58.3581 46.3186 58.0452 46.3186Z" fill="black"/>
<path d="M60.316 45.0074C60.0031 45.0074 59.7499 45.2606 59.7499 45.5734V60.4032C59.7499 60.716 60.0031 60.9692 60.316 60.9692C60.6288 60.9692 60.882 60.716 60.882 60.4032V45.5734C60.882 45.2606 60.6288 45.0074 60.316 45.0074Z" fill="black"/>
<path d="M62.5862 43.6962C62.2734 43.6962 62.0202 43.9494 62.0202 44.2623V59.092C62.0202 59.4049 62.2734 59.658 62.5862 59.658C62.8991 59.658 63.1523 59.4049 63.1523 59.092V44.2623C63.1523 43.9494 62.8991 43.6962 62.5862 43.6962Z" fill="black"/>
</svg>
