<svg width="93" height="92" viewBox="0 0 93 92" fill="none" xmlns="http://www.w3.org/2000/svg">
<path d="M49.9921 14.9475L55.2506 11.9127C55.6739 11.6682 55.819 11.1274 55.5745 10.7041C55.33 10.2808 54.7858 10.1348 54.366 10.3801L49.1075 13.4149C48.6842 13.6594 48.5391 14.2002 48.7835 14.6235C49.0304 15.0496 49.5729 15.1896 49.9921 14.9475Z" fill="white"/>
<path d="M71.6057 52.8097C73.9166 51.475 75.7221 48.3477 75.7152 45.6896L75.6279 10.2358C75.6237 8.81174 75.0999 7.72476 74.1632 7.14887C73.889 6.96266 71.2917 5.47097 68.6244 3.91396C67.6327 3.3412 66.387 3.4345 65.1196 4.17398L58.8237 7.80747C58.4004 8.05195 58.2552 8.59274 58.4997 9.01605C58.7451 9.43848 59.285 9.58189 59.7083 9.34L66.0068 5.70478C66.7075 5.29444 67.3234 5.20546 67.7381 5.44476L70.8213 7.23818C67.1208 9.13353 83.4862 -0.0792389 26.8773 32.6069C24.9312 33.7284 23.3629 36.1179 22.9155 38.4308C22.7132 39.4646 22.8504 75.208 22.8577 75.3855L19.7624 73.5852C19.3693 73.3623 19.1447 72.7861 19.1447 72.0026L19.054 36.5341C19.0428 34.5291 20.5174 31.9694 22.2754 30.944L45.2028 17.5218C45.6244 17.2748 45.7661 16.7331 45.5199 16.3115C45.2719 15.8891 44.7294 15.7466 44.3096 15.9945L21.383 29.4166C19.0704 30.7651 17.2701 33.8967 17.2848 36.5419L17.3755 72.0052C17.3755 73.4608 17.9119 74.5683 18.8795 75.1186L24.3686 78.3106C24.3708 78.3119 24.3733 78.3113 24.3755 78.3125C24.3774 78.3137 24.3787 78.3156 24.3807 78.3167C25.48 78.9512 26.7658 78.6978 27.8751 78.0575L33.7892 74.643L33.7616 79.1123C33.7547 81.7091 35.4341 84.1116 38.4922 85.8774C44.4425 89.3116 54.104 89.3225 60.034 85.8756C63.0316 84.1332 64.6877 81.7627 64.6946 79.203L64.7231 74.6357C64.7231 74.6329 64.7231 74.63 64.7231 74.627C64.7232 74.6162 64.7257 74.6059 64.7257 74.5951C64.7257 71.9801 63.0351 69.5656 59.97 67.798C58.775 67.0997 57.3488 66.5548 55.7863 66.1233L55.7747 61.9497L71.6057 52.8097ZM54.0386 73.9964C53.8593 74.1001 47.6869 77.6703 48.0727 77.4472L48.0422 66.4337L54.0084 62.9862L54.0386 73.9964ZM46.2982 77.439L44.4616 76.3678L44.4452 68.5211L46.2705 67.4611C46.2715 67.8257 46.2996 77.9155 46.2982 77.439ZM26.9905 76.525C26.2994 76.925 25.6713 77.0217 25.2627 76.7833C24.7663 76.497 24.6282 75.7564 24.6269 75.186C24.6258 75.0001 24.4797 39.5293 24.6861 38.6074C25.0846 36.8451 26.3233 34.9711 27.7636 34.1395L71.4942 8.89165C71.9829 8.60999 72.7309 8.35713 73.2235 8.63691C73.625 8.87124 73.8561 9.45533 73.8587 10.241L73.9459 45.6948C73.9511 47.7085 72.4747 50.2647 70.7211 51.2772C34.0213 72.4607 30.5747 74.4556 26.9905 76.525ZM62.9271 78.9853C62.8666 79.1623 63.3639 81.8936 59.1442 84.3466C53.7138 87.5032 44.8452 87.5032 39.3768 84.3448C35.0409 81.8416 35.5922 79.0534 35.5325 78.8765C35.7116 79.0412 36.5998 80.1596 38.5207 81.2729C44.2056 84.5547 53.9768 84.8092 60.0616 81.2712C61.8055 80.2575 62.7501 79.1436 62.9271 78.9853ZM55.7932 67.9311C57.0268 68.3026 58.1282 68.7708 59.082 69.328C61.5745 70.7656 62.9488 72.6306 62.9553 74.5815C62.9553 74.5838 62.9539 74.5858 62.9539 74.5882V74.6227C62.9293 76.8663 61.1099 78.6155 59.1675 79.7395C53.7628 82.8909 44.7152 82.8114 39.4062 79.7369C37.0567 78.3885 35.0527 76.1841 35.67 73.5571L42.6781 69.5109L42.6933 76.8783C42.6941 77.1928 42.8609 77.483 43.1321 77.6411L46.7414 79.7455C46.7422 79.746 46.743 79.7458 46.7438 79.7462C46.7446 79.7466 46.7449 79.7477 46.7457 79.7481C46.7476 79.7492 46.7497 79.7487 46.7516 79.7498C46.7515 79.7498 46.7517 79.7498 46.7516 79.7498C47.0245 79.907 47.3608 79.9071 47.6355 79.7481C47.8148 79.6444 55.8794 74.9796 55.3673 75.2758C55.642 75.1169 55.8104 74.824 55.8096 74.507C55.8091 74.3253 55.7922 67.5512 55.7932 67.9311Z" fill="white"/>
<path d="M70.6968 44.9431C70.9715 44.7842 71.14 44.4913 71.1391 44.1743L71.0527 13.928C71.0518 13.6127 70.8825 13.3216 70.6095 13.1635C70.3357 13.0054 69.9979 13.008 69.7258 13.1644L27.7878 37.3773C27.5131 37.5362 27.3446 37.8291 27.3455 38.1461L27.4319 68.3924C27.4327 68.7077 27.602 68.9988 27.875 69.1569C28.1441 69.3119 28.4819 69.3155 28.7588 69.156L70.6968 44.9431ZM69.2878 15.4606L69.3681 43.6672L29.1968 66.8598L29.1164 38.6532L69.2878 15.4606Z" fill="white"/>
<path d="M50.0994 59.0832L47.5872 60.5337C47.1639 60.7782 47.0188 61.319 47.2633 61.7423C47.5084 62.1667 48.0508 62.3094 48.4719 62.0662L50.984 60.6158C51.4073 60.3713 51.5525 59.8305 51.308 59.4072C51.0626 58.9822 50.521 58.8388 50.0994 59.0832Z" fill="white"/>
<path d="M44.2127 54.0356L55.1693 47.7102C56.6457 46.8576 57.7238 44.7972 57.5234 43.212L56.2855 33.1348C56.154 31.9282 54.9925 31.3309 53.8675 31.9833L52.8623 32.5637L52.8619 32.2467C52.8565 29.7771 50.8566 28.687 48.7481 29.9039C46.946 30.9449 45.5388 33.3827 45.5448 35.4526L45.5467 36.788L43.6642 37.8749C42.8659 38.3354 42.2223 39.3565 42.136 40.2929L40.9585 51.7774C40.7274 53.9788 42.4667 55.0459 44.2127 54.0356ZM47.3141 35.4492C47.3097 34.0022 48.3715 32.1647 49.6327 31.4364C50.5819 30.8885 51.0909 31.1878 51.0927 32.2511L51.0945 33.5845L47.3145 35.7672L47.3141 35.4492ZM43.8974 40.4649C43.932 40.0882 44.2421 39.5837 44.5488 39.4075L45.5495 38.8295L45.5526 41.0428C45.5535 41.5309 45.9491 41.9265 46.4372 41.9265C46.9262 41.9257 47.3227 41.5292 47.3218 41.0411L47.3173 37.8087L51.0973 35.6258L51.1005 37.8395C51.1005 38.3276 51.497 38.7233 51.9851 38.7233C52.4732 38.7233 52.8697 38.3267 52.8697 37.8378L52.8652 34.605L54.5629 33.6246L55.768 43.4306C55.8803 44.3204 55.1452 45.681 54.2847 46.1777L43.3281 52.503C42.8708 52.766 42.6356 52.736 42.7182 51.9597L43.8974 40.4649Z" fill="white"/>
</svg>
