<svg width="93" height="92" viewBox="0 0 93 92" fill="none" xmlns="http://www.w3.org/2000/svg">
<rect x="0.5" width="92" height="92" rx="46" fill="white"/>
<path d="M24.8171 50.9883C24.7033 50.5848 24.5955 50.1747 24.4943 49.7595C24.4202 49.4561 24.1118 49.2687 23.8105 49.3433C23.5065 49.4174 23.3202 49.7236 23.3943 50.0271C23.4988 50.4566 23.6099 50.88 23.7282 51.2968C23.7984 51.5461 24.0256 51.7086 24.2721 51.7086C24.3235 51.7086 24.3755 51.702 24.4269 51.687C24.7276 51.6019 24.9023 51.289 24.8171 50.9883Z" fill="black"/>
<path d="M22.4357 42.0915C22.3246 42.1928 22.2446 42.4371 22.2528 42.5503C22.3937 44.4961 22.6506 46.498 23.0366 48.4185C23.098 48.7247 23.3981 48.9259 23.7032 48.8618C24.0095 48.7999 24.2079 48.502 24.1466 48.1952C23.8492 46.7171 23.6231 45.1572 23.4711 43.5442L30.7544 47.7762C31.2658 54.3156 33.0925 61.3358 37.3618 66.3847C37.3793 66.4055 37.3944 66.4297 37.412 66.4505L34.4441 64.7258C30.2481 62.287 27.1608 58.1611 25.2687 52.462C25.1697 52.1663 24.848 52.0065 24.5529 52.1033C24.2566 52.2017 24.0957 52.5223 24.1941 52.8191C26.1763 58.7879 29.4333 63.1233 33.8753 65.7042L42.3549 70.6322C42.3749 70.6438 42.3976 70.6405 42.4184 70.6494C44.8173 72.0302 47.536 72.8935 50.5591 73.1661C50.7328 73.1829 50.9178 73.1142 51.0411 72.9687C62.3635 59.6381 69.1781 43.1534 70.7468 25.2977C70.7638 25.108 70.5343 24.7654 70.3914 24.6825L61.9124 19.7551C61.7787 19.6777 61.6195 19.6573 61.4713 19.7004C54.2499 21.7733 47.9168 20.5168 42.1509 18.8508C41.9215 18.7839 41.6439 18.8987 41.5224 19.0818C39.0703 22.7766 26.518 38.3647 22.4357 42.0915ZM50.3695 72.0102C44.6156 71.4117 39.9592 68.5608 36.6952 63.5774C33.6979 58.9746 32.3153 53.2061 31.8858 47.6642C39.066 41.0679 45.3049 33.0951 50.715 24.9805C57.1791 26.818 63.0689 27.5982 69.554 25.9102C67.8984 43.1561 61.2746 59.077 50.3695 72.0102ZM61.5509 20.854L68.6347 24.971C68.6287 24.9724 68.6226 24.9743 68.6167 24.9757C68.5512 24.9911 68.4868 25.0021 68.4215 25.017C62.3009 26.41 56.767 25.5477 50.6951 23.7966L45.8412 20.9756C50.6188 22.0381 55.7966 22.4565 61.5509 20.854ZM42.1647 20.1487C42.2966 20.2253 50.1509 24.7897 49.6632 24.5062C44.3087 32.5194 38.3303 40.1777 31.215 46.7346L23.7541 42.3994C28.1868 38.0452 39.2367 24.3453 42.1647 20.1487Z" fill="black"/>
<path d="M65.4143 30.502C65.2927 30.3755 65.1213 30.3158 64.9444 30.3329C61.0186 30.7762 56.9055 30.4346 52.1151 29.2351C51.8841 29.1754 51.6447 29.2694 51.5104 29.4645C46.2712 37.1182 41.0929 43.3401 35.6785 48.4859C35.5502 48.6075 35.4861 48.7822 35.5055 48.9585C36.1964 55.2026 38.8741 65.9811 49.0473 68.0081C49.2436 68.0491 49.4623 67.9779 49.5984 67.8086C58.0547 57.3219 63.5763 44.5861 65.5674 30.9774C65.5928 30.8038 65.5364 30.6281 65.4143 30.502ZM48.9339 66.8274C40.319 64.906 37.4954 56.2225 36.6624 49.1116C41.9845 44.0223 47.0794 37.9042 52.2224 30.4274C56.6915 31.5119 60.5814 31.8591 64.3391 31.5313C62.3082 44.5524 56.9922 56.736 48.9339 66.8274Z" fill="black"/>
<path d="M50.2363 46.5822C47.0916 48.398 44.5411 52.8158 44.5511 56.4315L44.5533 57.0716C44.5541 57.3831 44.8079 57.6354 45.1193 57.6354C45.2171 57.6354 45.315 57.61 45.4023 57.5597L56.2416 51.3012C56.4174 51.1995 56.5252 51.0121 56.5246 50.8087L56.5224 50.1697C56.5121 46.2849 53.6159 44.6322 50.2363 46.5822ZM45.6903 56.086C45.8346 52.9004 48.0689 49.1404 50.8023 47.5628C53.4334 46.043 55.3824 47.1773 55.3903 50.1735L55.3914 50.4848L45.6903 56.086Z" fill="black"/>
<path d="M50.7913 45.0593C52.313 44.1804 53.501 42.1252 53.496 40.3801C53.4902 38.3995 51.9338 37.5068 50.2092 38.5017C48.6913 39.3784 47.5061 41.4353 47.5111 43.1854C47.5168 45.1368 49.0562 46.0609 50.7913 45.0593ZM50.7752 39.4824C51.7013 38.9482 52.3603 39.2417 52.3639 40.3834C52.3678 41.715 51.3883 43.407 50.2252 44.0786C49.2871 44.6223 48.6467 44.2971 48.6432 43.1821C48.6393 41.846 49.6155 40.1518 50.7752 39.4824Z" fill="black"/>
</svg>
