<svg width="93" height="92" viewBox="0 0 93 92" fill="none" xmlns="http://www.w3.org/2000/svg">
<path d="M6.04993 46.8426C55.2469 75.4244 -5.71445 40.0079 48.3935 71.4428C49.9777 72.3498 52.2721 72.3613 53.718 71.5106L65.191 64.8882L68.1591 66.6133C68.1721 66.6209 68.1874 66.6178 68.2006 66.6245C68.9812 67.0575 69.8918 66.8959 70.6645 66.4497C71.2129 66.1334 71.6998 65.6626 72.0983 65.1576L79.081 69.2162C79.8341 69.6529 80.7583 69.6395 81.4848 69.2196L87.7281 65.6182C88.1434 65.3784 88.2858 64.8478 88.0451 64.4325C87.8077 64.0172 87.2755 63.8748 86.8602 64.1146L80.6169 67.716C80.4117 67.8338 80.1575 67.833 79.9524 67.7152L72.9739 63.6597C73.3994 62.6192 73.5948 61.355 73.0628 60.3544L76.6197 58.2968C77.4655 57.8001 77.9504 57.0653 77.9504 56.2813V56.2779L77.9165 47.0952C77.9165 47.0811 77.909 47.0694 77.9083 47.0556C77.8926 46.2903 77.4196 45.5783 76.5925 45.0983L34.2592 20.4955C32.8047 19.653 30.523 19.6538 29.0652 20.4946L6.18724 33.7034C5.25955 34.2393 4.83789 35.0654 4.83789 35.7291C4.83789 35.9073 4.87105 45.1409 4.87179 44.9627C4.90061 45.6755 5.33966 46.3883 6.04993 46.8426ZM65.7809 57.9706C65.8229 57.9594 65.8617 57.9533 65.9 57.9486C65.994 57.9372 66.0813 57.9367 66.1446 57.9667C66.1496 57.969 66.1574 57.968 66.1622 57.9705C66.3377 58.073 69.6641 60.0145 69.4582 59.8943C69.4508 59.8996 69.4449 59.9079 69.4375 59.9132C68.223 60.7866 67.2747 62.3628 67.1005 63.9092C67.0977 63.9331 67.0867 63.9576 67.0844 63.9816C66.9088 63.8791 63.5848 61.9382 63.7906 62.0584C63.7189 62.0167 63.6638 61.9282 63.6218 61.8168C63.2374 60.7102 64.4706 58.3244 65.7809 57.9706ZM71.0951 62.5678C70.6815 62.3279 70.1492 62.4652 69.9085 62.8814C69.6678 63.2959 69.8085 63.8273 70.2238 64.068L70.5707 64.2696C70.3302 64.5414 70.0698 64.7791 69.7898 64.9402C69.181 65.2962 68.8033 65.2016 68.8033 64.3782C68.792 63.4288 69.5831 61.8019 70.6595 61.1828C70.8444 61.0737 71.1959 60.9319 71.3904 61.0214L71.4183 61.0344C71.8036 61.2933 71.5956 62.3326 71.4437 62.7704L71.0951 62.5678ZM75.7467 56.7975L71.6608 59.16L67.9149 56.982L67.0233 56.461C64.2249 54.899 60.432 60.4174 62.304 62.9785C62.4711 63.2128 62.6642 63.4205 62.9092 63.562L63.4606 63.8825L52.8433 70.0104C51.9058 70.5647 50.2954 70.53 49.2597 69.9392L6.95346 45.3619C6.72122 45.2127 6.61103 44.9991 6.60764 44.9254L6.58222 37.9608L48.5003 62.3322C49.6626 62.9892 52.0879 63.2402 53.701 62.3271L67.0276 54.6165L76.1891 49.3271L76.2145 56.2821C76.2128 56.3796 76.0874 56.5966 75.7467 56.7975ZM7.05517 35.207L29.9331 21.9983C30.8553 21.4643 32.4725 21.466 33.3879 21.9966L75.7212 46.5985C76.0382 46.7833 76.1806 46.9808 76.1789 47.0943C76.1789 47.1518 76.1416 47.23 76.0675 47.3164C75.991 47.4019 75.8726 47.4985 75.6941 47.5978L66.999 52.6287L52.8297 60.8099C51.8844 61.3566 50.2579 61.3349 49.3665 60.8167C34.6566 52.268 31.2493 50.2879 7.03302 36.2147C6.39947 35.8444 6.47874 35.5386 7.05517 35.207Z" fill="white"/>
<path d="M15.1919 37.4158L24.0136 42.5097C24.8802 43.0076 26.1865 43.0072 27.0445 42.5072L42.4553 33.5508C43.0147 33.2262 43.3334 32.7253 43.3334 32.176C43.3317 31.6242 43.0096 31.1216 42.4468 30.797L33.6252 25.7047C32.7555 25.1987 31.4435 25.197 30.584 25.6996L15.1733 34.656C14.6139 34.9807 14.2952 35.4807 14.2969 36.0291C14.2969 36.5826 14.624 37.0878 15.1919 37.4158ZM31.4553 27.2007C31.7859 27.0092 32.4199 27.0125 32.7572 27.2075L41.3653 32.1769L26.1732 41.0061C25.8443 41.1977 25.2154 41.1985 24.8798 41.0053L16.2717 36.0249L31.4553 27.2007Z" fill="white"/>
<path d="M27.7293 31.77L33.7082 35.2214C33.9811 35.3786 34.3142 35.374 34.5778 35.2206L34.8202 35.079C37.0369 33.7907 37.0309 31.4136 34.7998 30.1257C33.0312 29.1042 29.9798 28.9587 27.97 30.1266L27.7276 30.2673C27.1839 30.5839 27.1216 31.4181 27.7293 31.77ZM34.1336 33.4618L30.1347 31.1539C31.3505 30.9028 32.8794 31.0235 33.9319 31.6293C34.869 32.1706 35.0583 32.8286 34.1336 33.4618Z" fill="white"/>
<path d="M29.655 38.0811L29.8991 37.9404C30.167 37.7853 30.3331 37.4988 30.3331 37.1886C30.3331 36.8784 30.167 36.5919 29.8991 36.4368L23.9203 32.9846C23.6508 32.8295 23.3185 32.8304 23.049 32.9872L22.8083 33.127C21.7539 33.7398 21.1487 34.6408 21.1504 35.5994C21.1521 36.5614 21.764 37.4666 22.8286 38.0811C24.7463 39.1891 27.7484 39.1905 29.655 38.0811ZM23.4965 34.7442L27.4937 37.053C26.2206 37.3192 24.7069 37.1607 23.6965 36.5775C23.1829 36.2809 22.8879 35.9232 22.8862 35.5969C22.8862 35.3163 23.1049 35.012 23.4965 34.7442Z" fill="white"/>
<path d="M40.3246 52.0213L49.1462 57.1136C50.0082 57.6122 51.3091 57.6165 52.1772 57.1127L67.5879 48.1563C68.1473 47.8309 68.4677 47.3291 68.466 46.7799C68.4643 46.2281 68.1405 45.7263 67.5777 45.4017L58.7578 40.3103C57.8899 39.806 56.5795 39.8043 55.7184 40.3052L40.3059 49.2616C39.1384 49.9394 39.128 51.3284 40.3246 52.0213ZM56.5897 41.8062C56.9202 41.6122 57.5525 41.6172 57.8899 41.813L66.4979 46.7824L51.3058 55.6117C50.9753 55.8032 50.3447 55.8032 50.0141 55.6108L41.4044 50.6296L56.5897 41.8062Z" fill="white"/>
<path d="M54.791 52.6858L55.0334 52.5451C55.3012 52.3892 55.4657 52.1027 55.4657 51.7933C55.4657 51.4831 55.2995 51.1975 55.0317 51.0424L49.0529 47.5902C48.7833 47.435 48.4511 47.4359 48.1815 47.5927L47.9408 47.7325C47.5259 47.9734 47.2043 48.268 46.9385 48.5842C46.5277 49.0719 46.2819 49.6232 46.283 50.2049C46.2847 51.167 46.8966 52.0722 47.9612 52.6867C49.8817 53.7962 52.8821 53.7945 54.791 52.6858ZM48.0205 50.2016C48.0188 49.921 48.2392 49.6176 48.6291 49.3497L52.6263 51.6586C51.3959 51.9146 49.8706 51.7842 48.8291 51.1831C48.3155 50.8864 48.0205 50.5287 48.0205 50.2016Z" fill="white"/>
<path d="M52.8636 46.3756L58.8408 49.8269C59.1137 49.9841 59.4468 49.9796 59.7104 49.8261L59.9528 49.6854C62.1697 48.397 62.1635 46.0191 59.9325 44.7313C58.0136 43.6218 55.0131 43.6243 53.1044 44.7321L52.862 44.8728C52.5941 45.0288 52.4297 45.3152 52.4297 45.6246C52.4297 45.9348 52.5958 46.2205 52.8636 46.3756ZM59.0646 46.2349C59.5782 46.5315 59.8732 46.8892 59.8749 47.2155C59.8749 47.4961 59.6562 47.8004 59.2663 48.0673L55.2691 45.7594C56.491 45.5069 58.0203 45.6311 59.0646 46.2349Z" fill="white"/>
<path d="M37.3037 38.5371C34.7069 40.0368 34.6891 42.7678 37.2783 44.2702C39.5684 45.6022 43.1598 45.5957 45.4523 44.2719C48.044 42.776 48.0912 40.0583 45.4777 38.5388C43.1944 37.2107 39.604 37.209 37.3037 38.5371ZM44.5844 42.7683C42.835 43.7803 39.8888 43.7794 38.1496 42.77C36.7213 41.9377 36.7438 40.8634 38.1716 40.0408C39.9209 39.0308 42.8637 39.0284 44.6065 40.0391C46.0611 40.8858 46.0022 41.9502 44.5844 42.7683Z" fill="white"/>
</svg>
