<svg width="93" height="92" viewBox="0 0 93 92" fill="none" xmlns="http://www.w3.org/2000/svg">
<path d="M16.1118 77.188C16.111 77.4991 16.2763 77.7864 16.5458 77.9424L33.1779 87.5446C33.4465 87.6993 33.776 87.6995 34.045 87.5446C34.0939 87.5166 34.1191 87.4655 34.1609 87.4293L76.3521 62.9105C76.6182 62.7562 76.7826 62.4706 76.7835 62.1629L76.8886 21.2552C76.8886 21.2415 76.879 21.2306 76.8784 21.2171C76.8726 21.1573 76.851 21.1026 76.8328 21.0451C76.8049 20.9366 76.7687 20.8385 76.7026 20.7491L70.9462 10.9969C70.8739 10.8749 70.7724 10.7858 70.6604 10.7146C70.6491 10.7072 70.6443 10.6935 70.6326 10.6867L59.8411 4.45611C59.5725 4.30016 59.2411 4.30016 58.9707 4.45781L16.667 29.0428C16.5784 29.0943 16.521 29.1771 16.4572 29.2535C16.4253 29.2917 16.3773 29.3158 16.3525 29.3587C16.3091 29.4337 16.3041 29.5239 16.2847 29.6092C16.2706 29.6708 16.2358 29.7256 16.2356 29.7904L16.1805 50.8062C16.1796 51.2859 16.567 51.6758 17.0459 51.6766H17.0484C17.5264 51.6766 17.9155 51.2893 17.9163 50.8112L17.9672 31.294C18.1437 31.3959 27.8814 37.018 27.263 36.661L32.8482 46.1222C32.8243 55.4088 32.7663 78.006 32.7476 85.2914L17.8494 76.6905L17.8884 61.6239C17.8892 61.1441 17.5019 60.7542 17.023 60.7534H17.0204C16.5424 60.7534 16.1534 61.1407 16.1525 61.6188L16.1118 77.188ZM74.8072 20.954L34.0048 44.6657L29.0868 36.3345L69.8893 12.6219L74.8072 20.954ZM34.484 85.2341C34.5084 75.7256 34.5759 49.4106 34.5836 46.3861L75.1484 22.8125L75.0493 61.6603L34.484 85.2341ZM59.4089 6.21061L68.467 11.441L67.2736 12.1346L27.8936 35.0204L18.8351 29.7904L59.4089 6.21061Z" fill="black"/>
<path d="M17.0265 59.1608H17.0291C17.5071 59.1608 17.8961 58.7735 17.897 58.2954L17.908 54.0007C17.9088 53.521 17.5215 53.1311 17.0426 53.1302H17.0401C16.562 53.1302 16.173 53.5176 16.1722 53.9956L16.1611 58.2903C16.1603 58.7701 16.5476 59.16 17.0265 59.1608Z" fill="black"/>
<path d="M72.415 29.4275C72.1454 29.2716 71.8132 29.2716 71.5453 29.4292L37.2445 49.3661C36.9784 49.5203 36.8139 49.8051 36.8131 50.1136L36.7817 60.8907C36.7809 61.2017 36.9462 61.4891 37.2157 61.645C37.4827 61.7988 37.8149 61.8015 38.0853 61.6433L72.4022 41.7056C72.6692 41.5505 72.8337 41.2657 72.8345 40.9564L72.8498 30.1802C72.8506 29.87 72.6845 29.5827 72.415 29.4275ZM51.9163 42.8457L57.7297 39.4667L57.7153 48.2316L51.9024 51.6088L51.9163 42.8457ZM50.165 52.6183L44.3337 56.0061L44.3481 47.2446L50.1788 43.8556L50.165 52.6183ZM59.4673 38.4568L65.298 35.0679L65.2841 43.8341L59.4529 47.2221L59.4673 38.4568ZM38.5473 50.6163L42.6107 48.2545L42.5962 57.0157L38.5218 59.3828L38.5473 50.6163ZM71.0995 40.4554L67.0217 42.8246L67.0355 34.058L71.1114 31.6889L71.0995 40.4554Z" fill="black"/>
<path d="M72.415 46.3521C72.1454 46.1962 71.8132 46.1962 71.5453 46.3538L37.2445 66.2906C36.9784 66.4449 36.8139 66.7297 36.8131 67.0382L36.7817 77.8152C36.7809 78.1263 36.9462 78.4136 37.2157 78.5696C37.4827 78.7234 37.8149 78.726 38.0853 78.5679L72.4022 58.6302C72.6692 58.4751 72.8337 58.1903 72.8345 57.8809L72.8498 47.1048C72.8506 46.7945 72.6845 46.5072 72.415 46.3521ZM51.9163 59.7703L57.7297 56.3913L57.7153 65.1562L51.9024 68.5333L51.9163 59.7703ZM50.165 69.5428L44.3337 72.9307L44.3481 64.1691L50.1788 60.7802L50.165 69.5428ZM59.4673 55.3814L65.298 51.9925L65.2841 60.7587L59.4529 64.1467L59.4673 55.3814ZM38.5473 67.5408L42.6107 65.179L42.5962 73.9403L38.5218 76.3074L38.5473 67.5408ZM71.0995 57.38L67.0217 59.7492L67.0355 50.9826L71.1114 48.6135L71.0995 57.38Z" fill="black"/>
</svg>
