<svg width="93" height="92" viewBox="0 0 93 92" fill="none" xmlns="http://www.w3.org/2000/svg">
<path d="M23.3731 25.9066C22.9772 25.6387 22.4382 25.743 22.1678 26.1388C14.9405 36.8116 10.8076 49.0032 10.8297 59.5903C10.8678 68.7934 14.0471 75.7037 19.7835 79.05C19.9603 79.1534 30.7881 85.4876 31.0013 85.6103C33.3974 86.9893 36.1097 87.6741 39.0389 87.6733C45.358 87.6733 51.5129 84.607 56.6124 80.866C72.029 69.6123 82.2168 48.5477 82.1707 32.3923C82.1444 23.1324 78.9448 16.2001 73.1609 12.8716C60.8035 5.76014 62.0578 6.47124 61.9686 6.4198C56.1609 3.04981 48.4852 3.76517 40.3561 8.45061C37.0268 10.3755 33.7619 12.8894 30.6546 15.922C30.3114 16.2568 30.3046 16.8061 30.6394 17.1493C30.9759 17.4943 31.5251 17.4994 31.8667 17.1646C34.8714 14.2328 38.0201 11.8062 41.224 9.95337C48.7887 5.59595 55.8465 4.87211 61.0964 7.92087L66.0632 10.8094C61.6304 10.5492 56.6415 11.9274 51.4755 14.916C35.1367 24.3343 21.8906 47.2665 21.9483 66.0371C21.968 70.7034 22.8035 74.7644 24.3548 78.0815C24.3581 78.0887 24.3618 78.0957 24.365 78.1029C24.7468 78.9166 25.1603 79.6974 25.6287 80.4174C25.6306 80.4204 25.6323 80.4238 25.6342 80.4268C25.6369 80.431 25.6393 80.4358 25.642 80.44L20.6566 77.5489C15.4744 74.5264 12.6011 68.1458 12.5655 59.5853C12.5443 49.3397 16.5687 37.5032 23.6053 27.1118C23.874 26.7152 23.7697 26.1753 23.3731 25.9066ZM80.3729 33.934C80.0723 42.3291 77.16 51.4508 72.5405 59.7104C70.4644 58.6334 68.1822 58.0307 65.7263 57.9447C66.8051 52.6735 67.4175 47.0288 67.437 41.4026L80.3729 33.934ZM58.7518 76.9404C61.5069 72.4877 63.8018 66.4369 65.3429 59.6585C67.6446 59.6946 69.7841 60.1964 71.7021 61.1782C67.7875 67.7997 63.4785 72.8436 58.7518 76.9404ZM32.4646 84.3846C34.4834 80.9465 36.7521 77.7548 39.2013 74.8743C40.6687 79.1824 42.736 82.2991 45.2687 83.7566C45.7467 84.0318 46.2379 84.2356 46.7367 84.3885C46.6057 84.4377 46.4713 84.5039 46.3407 84.5507C41.7969 86.1839 36.7945 86.5978 32.4646 84.3846ZM23.8171 64.5819C24.1163 56.1764 27.0201 47.0495 31.6267 38.7864C33.6932 39.8589 35.9728 40.4413 38.4191 40.5272C37.3664 45.7749 36.7726 51.4212 36.7532 57.1132L23.8171 64.5819ZM45.3368 21.5865C42.5796 26.0248 40.3081 32.0341 38.793 38.8173C36.5033 38.7804 34.3746 38.2832 32.4685 37.3066C35.9417 31.4147 40.1195 26.132 45.3368 21.5865ZM51.1161 17.3593V35.2393C47.4292 37.2796 43.8837 38.4436 40.615 38.7265C42.8615 28.9822 46.6802 20.9006 51.1161 17.3593ZM40.2166 40.5185C43.6297 40.3135 47.3094 39.2147 51.1161 37.2282V48.8208L38.5077 56.1002C38.5946 50.7727 39.1963 45.4639 40.2166 40.5185ZM51.1161 50.8255V62.3208C47.2169 64.6423 43.4566 67.7096 39.9965 71.385C39.0676 67.6 38.5347 63.0829 38.4883 58.1161L51.1161 50.8255ZM52.852 63.3208C56.6195 61.2129 60.2431 60.0253 63.5809 59.7473C61.2981 69.6449 57.385 77.8134 52.852 81.2607V63.3208ZM51.1161 64.373V82.3403C51.0553 82.3739 50.9955 82.4025 50.9347 82.4357C49.2439 83.1705 47.6331 83.1137 46.134 82.2522C43.7967 80.9068 41.875 77.7589 40.5404 73.3862C43.8269 69.767 47.3975 66.715 51.1161 64.373ZM63.9749 57.9781C60.4935 58.1766 56.7375 59.3196 52.852 61.3694V49.8232L65.6828 42.4154C65.5972 47.7355 64.9958 53.0381 63.9749 57.9781ZM52.852 47.8186V36.262C56.8138 33.9411 60.6442 30.8213 64.1764 27.0698C65.1147 30.8691 65.6535 35.4082 65.7014 40.3999L52.852 47.8186ZM52.852 34.2104V16.2261C58.2572 13.4959 61.8584 19.2963 63.6308 25.0727C60.2737 28.7676 56.6327 31.8655 52.852 34.2104ZM57.4057 14.0829C57.5253 14.038 57.6484 13.9756 57.7676 13.9328C57.7847 13.9265 57.8016 13.9215 57.8187 13.9154C62.4222 12.2689 67.3805 11.8669 71.69 14.1357C69.6658 17.5551 67.4034 20.7286 64.9685 23.5893C63.6454 19.7225 61.2985 15.2629 57.4057 14.0829ZM23.7777 66.6093L36.7708 59.1078C36.8853 64.3484 37.522 69.0529 38.6056 72.952C35.8297 76.1056 33.2707 79.6329 31.0156 83.4655C29.4392 82.3973 28.0778 81.0244 26.994 79.3191C24.9608 76.0706 23.8601 71.7407 23.7777 66.6093ZM80.4125 31.9065L67.419 39.4082C67.3026 34.144 66.6591 29.4206 65.5657 25.508C68.341 22.3572 70.908 18.8288 73.1793 14.9904C77.7307 18.1278 80.2864 24.0567 80.4125 31.9065Z" fill="black"/>
<path d="M26.453 23.2104C27.2845 22.1534 28.1491 21.1211 29.0221 20.1421C29.3416 19.7836 29.3102 19.2352 28.9526 18.9165C28.594 18.5987 28.0457 18.6284 27.727 18.986C26.8302 19.9921 25.942 21.0524 25.0884 22.1373C24.7926 22.5137 24.8571 23.0595 25.2342 23.3562C25.6108 23.6522 26.157 23.587 26.453 23.2104Z" fill="black"/>
</svg>
