<svg width="93" height="92" viewBox="0 0 93 92" fill="none" xmlns="http://www.w3.org/2000/svg">
<rect x="0.5" width="92" height="92" rx="46" fill="white"/>
<path d="M27.3652 68.9964C27.3658 69.1971 27.473 69.3828 27.6461 69.4839C27.7606 69.5507 33.9562 73.1599 33.8417 73.0932C33.8416 73.0931 33.8419 73.0933 33.8417 73.0932C34.0185 73.1955 34.235 73.1943 34.4081 73.0946L65.4412 55.2451C65.617 55.1434 65.7254 54.956 65.7248 54.7526C65.7244 54.5919 65.6378 23.9182 65.6353 23.0335C65.6351 22.9907 65.6122 22.9544 65.6028 22.9137C65.5901 22.8586 65.587 22.8003 65.559 22.752C65.5333 22.7075 65.4876 22.6792 65.4506 22.6431C65.4176 22.6109 65.3947 22.5696 65.3539 22.5459L65.3526 22.5452C65.3522 22.545 65.352 22.5445 65.3517 22.5443C65.3513 22.5441 65.3509 22.5441 65.3505 22.5439L59.0927 18.907C58.9163 18.8048 58.7002 18.8048 58.525 18.9059L39.1702 30.0802C38.8994 30.2366 38.8065 30.5827 38.9629 30.8535C39.1188 31.1249 39.4654 31.2167 39.7363 31.0608L58.8069 20.0502L63.9398 23.0335L34.1032 40.2593L28.9705 37.2767L32.8841 35.017C33.155 34.8606 33.2478 34.5145 33.0914 34.2437C32.9344 33.9723 32.5878 33.8805 32.3181 34.0364L27.5582 36.7848C27.3581 36.9006 27.2751 37.142 27.2751 37.2745C27.2751 37.2749 27.2754 37.2752 27.2754 37.2756C27.2754 37.4517 27.3644 68.8146 27.3652 68.9964ZM64.5059 24.0141L64.5247 30.8473L34.6889 48.0735L34.6696 41.2397C41.851 37.0936 57.6941 27.9468 64.5059 24.0141ZM28.4962 68.6692L28.41 38.2601L33.5364 41.2395L33.559 71.6182L28.4962 68.6692ZM34.6917 71.6254V49.3799L64.5286 32.1536L64.5916 54.4276L34.6917 71.6254Z" fill="black"/>
<path d="M37.2737 31.1752L34.7464 32.6345C34.4756 32.791 34.3827 33.137 34.5391 33.4079C34.696 33.6794 35.043 33.7708 35.3124 33.6152L37.8397 32.1558C38.1106 31.9994 38.2034 31.6534 38.047 31.3825C37.8906 31.1106 37.5429 31.0188 37.2737 31.1752Z" fill="black"/>
<path d="M56.6046 34.326C57.5582 33.7755 58.3022 32.4853 58.2989 31.3897C58.2942 30.0496 57.1841 29.4245 56.0292 30.0913C55.0729 30.6435 54.3261 31.9348 54.3289 33.0315C54.3335 34.3674 55.451 34.9914 56.6046 34.326ZM56.5952 31.0719C56.9715 30.8536 57.1657 30.9095 57.1668 31.393C57.169 32.0846 56.6417 32.9972 56.0386 33.3454C55.6575 33.5633 55.462 33.5023 55.4609 33.0281C55.4593 32.3361 55.9894 31.4218 56.5952 31.0719Z" fill="black"/>
<path d="M51.3516 37.3574C52.3052 36.8069 53.0492 35.5167 53.0459 34.4217C53.0424 33.0878 51.9375 32.4524 50.7762 33.1226C49.8194 33.6754 49.0731 34.9672 49.0764 36.0628C49.0799 37.3923 50.1929 38.0258 51.3516 37.3574ZM51.3422 34.1033C51.7208 33.8844 51.9127 33.9437 51.9138 34.4244C51.916 35.1159 51.3887 36.0286 50.7856 36.3768C50.3968 36.5981 50.2095 36.5257 50.2085 36.0595C50.2063 35.368 50.7358 34.4537 51.3422 34.1033Z" fill="black"/>
<path d="M61.8516 31.2952C62.8084 30.7424 63.5552 29.4511 63.5519 28.3555C63.5472 27.0251 62.442 26.39 61.2761 27.0604C60.3198 27.6126 59.573 28.9039 59.5758 30.0006C59.5805 31.3321 60.6931 31.9634 61.8516 31.2952ZM61.8422 28.041C62.2259 27.8187 62.4188 27.8824 62.4198 28.3589C62.422 29.0504 61.8919 29.9647 61.2855 30.3146C60.9045 30.5334 60.7089 30.471 60.7079 29.9973C60.7062 29.3052 61.2363 28.3909 61.8422 28.041Z" fill="black"/>
<path d="M43.1988 53.1225L41.6898 53.9936L41.257 52.7189C41.0914 52.2369 40.5625 52.0165 40.0503 52.3121C39.7346 52.4945 39.4903 52.8328 39.398 53.2159L38.8375 55.5265C38.8198 55.6038 38.754 55.6868 38.7247 55.7056L36.9105 56.7531C36.4633 57.0118 36.1654 57.5966 36.2323 58.0858C36.2787 58.4257 36.5026 58.6872 36.8171 58.7685L37.9895 59.0686L37.4716 61.2045C37.2241 62.2819 38.4209 62.8016 39.1161 61.8181L40.5964 59.7391L41.9181 60.0747C42.1309 60.1294 42.3653 60.0929 42.5786 59.9707C43.0336 59.7076 43.4067 59.0222 43.2143 58.4622L42.6593 56.852C42.6604 56.8349 42.6759 56.7801 42.7218 56.7166L44.1855 54.6409C44.5277 54.1556 44.5487 53.5779 44.2364 53.2358C43.9777 52.9528 43.5703 52.9091 43.1988 53.1225ZM41.8003 56.0588C41.5422 56.4159 41.4598 56.8476 41.5798 57.171L42.1342 58.7839C42.1326 58.8232 42.0966 58.8939 42.0596 58.9426L40.7644 58.6153C40.5428 58.5424 40.2946 58.5733 40.0674 58.7054C39.9099 58.7967 39.7639 58.9348 39.6473 59.1018L38.8872 60.1714L39.1338 59.1543C39.267 58.5634 38.9574 58.1527 38.576 58.0499L37.4445 57.7602C37.455 57.7492 37.4655 57.7398 37.4766 57.7337L39.2902 56.6862C39.602 56.5065 39.8573 56.1494 39.9397 55.7841L40.4239 53.7874L40.7528 54.7542C40.9276 55.2251 41.4556 55.4363 41.9507 55.1506L42.7771 54.673L41.8003 56.0588Z" fill="black"/>
<path d="M52.5009 47.7517L50.9924 48.6229L50.5596 47.3482C50.3923 46.8613 49.8621 46.649 49.354 46.9408C49.0378 47.1227 48.7935 47.461 48.7001 47.8463L48.1511 50.1358C48.1263 50.2337 48.0572 50.3177 48.0273 50.3348L46.2126 51.3823C45.7659 51.6405 45.468 52.2259 45.5349 52.7151C45.5808 53.055 45.8046 53.3165 46.1192 53.3977L47.2916 53.6979L46.7736 55.8349C46.5261 56.9187 47.7265 57.4253 48.4187 56.4474L49.899 54.3684L51.2174 54.7034C51.4341 54.7592 51.664 54.7244 51.8812 54.6C52.3362 54.3369 52.7087 53.652 52.5164 53.0915L51.9614 51.4813C51.9625 51.4641 51.978 51.4094 52.0239 51.3459L53.4876 49.2702C53.8298 48.7849 53.8508 48.2072 53.5385 47.8651C53.2809 47.5826 52.874 47.5384 52.5009 47.7517ZM51.1024 50.6881C50.8454 51.044 50.7624 51.4752 50.8818 51.8002L51.4363 53.4138C51.4346 53.4525 51.3992 53.5227 51.3616 53.5719L50.0659 53.2441C49.6382 53.1046 49.2062 53.3596 48.9499 53.7311L48.1893 54.8007L48.4353 53.7847C48.5707 53.1938 48.2606 52.782 47.8781 52.6791L46.7466 52.3895C46.7571 52.3784 46.7676 52.369 46.7786 52.363L48.5934 51.3154C48.9002 51.1386 49.1511 50.7942 49.2501 50.4084L49.7271 48.4178L50.0549 49.3819C50.2295 49.8578 50.7637 50.0639 51.2527 49.7799L52.0791 49.3023L51.1024 50.6881Z" fill="black"/>
<path d="M62.7902 43.8995C63.1324 43.4142 63.1534 42.8365 62.8411 42.4944C62.5824 42.2119 62.1761 42.1682 61.8035 42.381L60.2944 43.2522L59.8616 41.9775C59.6942 41.4902 59.163 41.2779 58.6549 41.5707C58.3393 41.7531 58.095 42.0914 58.0021 42.4756L57.4526 44.7662C57.4283 44.8641 57.3592 44.9475 57.3294 44.9647L55.5152 46.0116C55.0663 46.2709 54.7761 46.8397 54.8391 47.335C54.8828 47.6744 55.1017 47.9386 55.4218 48.027L56.5942 48.3272L56.0762 50.4631C55.8282 51.5428 57.0266 52.0587 57.7207 51.0767L59.2011 48.9977L60.5189 49.3321C60.7339 49.3902 60.971 49.352 61.1833 49.2293C61.6382 48.9662 62.0113 48.2808 61.819 47.7208L61.264 46.1106C61.2651 46.0934 61.2806 46.0387 61.3265 45.9752L62.7902 43.8995ZM60.405 45.3174C60.1469 45.6744 60.0645 46.1062 60.1844 46.4295L60.7389 48.0425C60.7372 48.0818 60.7018 48.152 60.6637 48.2012L59.3691 47.8739C59.148 47.8004 58.8998 47.8319 58.6721 47.964C58.5145 48.0552 58.3686 48.1934 58.252 48.3604L57.4919 49.43L57.7384 48.4129C57.8716 47.822 57.5621 47.4113 57.1807 47.3084L56.0492 47.0193C56.0597 47.0077 56.0702 46.9983 56.0812 46.9922L57.8954 45.9453C58.2039 45.7668 58.4543 45.4218 58.5521 45.0377L59.0291 43.0471L59.3575 44.0128C59.5319 44.4839 60.0604 44.6954 60.5553 44.4092L61.3817 43.9321L60.405 45.3174Z" fill="black"/>
</svg>
