<svg width="93" height="92" viewBox="0 0 93 92" fill="none" xmlns="http://www.w3.org/2000/svg">
<rect x="0.5" width="92" height="92" rx="46" fill="white"/>
<path d="M29.2413 67.4683L36.4494 71.5699C36.4578 71.5746 36.4673 71.5726 36.4758 71.5768C36.4802 71.5793 36.4838 71.5828 36.4881 71.5853C40.8339 74.0854 46.0916 72.7731 50.4611 70.2509C61.0301 64.1489 69.5991 49.2877 69.5649 37.1223C69.5483 31.1429 67.4776 26.6638 63.7342 24.5097C63.2761 24.2452 56.7351 20.532 56.556 20.4302C52.9806 18.3507 48.271 18.6691 43.2939 21.3307C43.0186 21.4783 42.9147 21.8216 43.0628 22.0968C43.2109 22.3738 43.5559 22.4749 43.8289 22.329C48.4424 19.8581 52.7617 19.5309 55.9921 21.4114L59.1031 23.1814C59.0853 23.1805 59.0667 23.1819 59.0488 23.1812C59.0411 23.1808 59.0333 23.1814 59.0256 23.1811C55.8541 23.0479 52.5468 24.2431 49.8178 25.8144C49.8025 25.8231 49.7876 25.8291 49.7723 25.838C39.3028 31.882 30.6177 46.7622 30.6431 58.9368C30.6571 62.1227 31.2933 65.5812 33.0273 68.255C33.048 68.2869 33.0654 68.3223 33.0864 68.3538L29.8062 66.4871C26.4509 64.5309 24.5903 60.3912 24.5671 54.8319C24.5472 45.7472 29.5553 34.7315 37.0299 27.4217C37.2532 27.2033 37.2576 26.8446 37.0387 26.6213C36.8209 26.3985 36.4627 26.3941 36.2383 26.6124C28.5592 34.1224 23.414 45.4636 23.435 54.8353C23.4604 60.8135 25.5201 65.2987 29.2413 67.4683ZM68.4328 37.1256C68.4671 48.9289 60.1501 63.349 49.8951 69.2703C39.6518 75.1833 31.8145 70.2903 31.783 58.9352C31.7497 47.1356 40.1454 32.7047 50.3362 26.8203C60.2659 21.079 68.4004 25.4871 68.4328 37.1256Z" fill="black"/>
<path d="M40.7566 22.8768C39.9617 23.4202 39.1635 24.0243 38.3841 24.6727C38.1442 24.8728 38.1122 25.2299 38.3123 25.4698C38.5124 25.7105 38.8682 25.7426 39.1094 25.5428C39.86 24.9171 40.6295 24.335 41.3956 23.811C41.6532 23.6346 41.7196 23.2825 41.5438 23.0244C41.3669 22.7657 41.0142 22.7021 40.7566 22.8768Z" fill="black"/>
<path d="M49.7889 32.6935C42.4967 36.9028 36.5843 47.1396 36.6075 55.513C36.6324 64.0529 42.8081 67.803 50.4389 63.3993C57.7256 59.1928 63.6325 48.9532 63.6082 40.5738C63.5829 31.9286 57.3167 28.3475 49.7889 32.6935ZM49.8729 62.4187C43.1067 66.3266 37.7625 63.2944 37.7396 55.5096C37.7163 47.4983 43.3756 37.7027 50.3549 33.6741C57.0935 29.7816 62.453 32.7596 62.4761 40.5771C62.4993 48.5945 56.8456 58.3929 49.8729 62.4187Z" fill="black"/>
<path d="M44.815 50.1069L49.9934 50.9935C50.0244 50.999 50.0564 51.0018 50.0885 51.0018C50.2609 51.0018 50.4257 50.9233 50.534 50.7851L55.7577 44.1275C55.9158 43.9258 55.9191 43.6433 55.7654 43.4388L50.5417 36.4755C50.419 36.3119 50.2156 36.2323 50.0155 36.2533C49.8132 36.2798 49.6407 36.4125 49.5644 36.6016L44.3861 49.3357C44.3209 49.4949 44.3319 49.6746 44.4159 49.8244C44.4989 49.9742 44.6459 50.0781 44.815 50.1069ZM50.2355 37.9547L54.5991 43.7704L49.8519 49.8211L45.6995 49.1102L50.2355 37.9547Z" fill="black"/>
<path d="M56.1347 46.8942C55.8959 46.7421 55.5808 46.7919 55.3984 47.0102L49.8563 53.644L44.4071 53.4102C44.1683 53.3898 43.9472 53.5423 43.8577 53.764C43.7681 53.9868 43.8289 54.241 44.008 54.4002L50.0144 59.7041C50.1195 59.7958 50.2521 59.8456 50.3892 59.8456C50.4279 59.8456 50.4677 59.8417 50.5064 59.8334C50.6822 59.7958 50.8292 59.6781 50.9044 59.515L56.3481 47.6083C56.4653 47.3502 56.3746 47.0451 56.1347 46.8942ZM50.1913 58.3503L45.956 54.6097L50.0874 54.7872C50.2621 54.7955 50.4323 54.7197 50.5462 54.5843L53.5665 50.9692L50.1913 58.3503Z" fill="black"/>
</svg>
