<svg width="93" height="92" viewBox="0 0 93 92" fill="none" xmlns="http://www.w3.org/2000/svg">
<rect x="0.5" width="92" height="92" rx="46" fill="black"/>
<path d="M20.2822 50.8128C21.4756 51.5035 22.9705 50.7345 23.1207 49.3645C23.1361 49.2213 23.2406 49.1583 23.2854 49.1379C23.3396 49.113 23.4501 49.0831 23.5607 49.1589L38.4033 59.3991L38.4186 64.0301C38.4186 64.6835 38.679 65.2119 39.1361 65.4811C39.2757 65.5621 41.8593 67.0601 41.7139 66.9758C41.7187 66.9787 41.722 66.9835 41.7269 66.9863C42.234 67.2786 42.8411 67.1765 43.3488 66.884L54.0255 60.7179C54.8331 60.2541 55.5186 59.2702 55.7314 58.2697L56.443 54.9007C56.4891 54.9272 59.6269 56.7324 59.6754 56.754C60.1171 56.9491 60.6511 56.8921 61.1801 56.5892L71.8989 50.3971C72.8922 49.8277 73.6699 48.4817 73.6699 47.3325C73.6699 47.2144 73.6451 37.6679 73.6434 37.7823C73.6429 37.5887 73.5395 37.397 73.3598 37.2931C70.8714 35.853 69.9591 35.358 67.056 33.7095C66.7835 33.5553 66.4386 33.6514 66.2844 33.9228C66.1301 34.1954 66.2258 34.5403 66.4977 34.6945L69.3158 36.2904L66.7575 37.7674L54.3097 29.2143C53.4117 28.6192 52.2097 29.1742 52.0969 30.2453C52.0284 30.8572 51.3971 31.0838 50.9516 30.8257C50.7001 30.6797 50.5519 30.4045 50.5646 30.1131L50.7802 26.2509C50.788 26.1033 50.8902 26.032 50.9339 26.0083C50.9853 25.9795 51.0909 25.9408 51.2141 26.011L61.6859 31.966C61.9573 32.1203 62.3022 32.0257 62.4575 31.7538C62.6123 31.4824 62.5172 31.1363 62.2453 30.9821L51.7747 25.0277C50.8535 24.5008 49.7048 25.138 49.6498 26.1896L49.4342 30.0562C49.4022 30.777 49.7659 31.447 50.3839 31.8052C51.5774 32.4959 53.0722 31.7269 53.2224 30.3569C53.246 30.141 53.4972 30.0343 53.6751 30.1518L65.6762 38.3979L38.9421 53.8337L21.673 44.0352C20.7506 43.5075 19.5934 44.1462 19.5359 45.1988L19.332 49.0638C19.2994 49.7935 19.6658 50.4651 20.2822 50.8128ZM70.4815 36.9305L71.948 37.7823L41.5486 55.3342C41.4352 55.2683 39.97 54.4161 40.0834 54.4821L70.4815 36.9305ZM39.5507 64.0284L39.5225 55.4693L39.8691 55.6678L40.9827 56.3144L41.007 65.2571L39.7077 64.5038C39.6109 64.4469 39.5507 64.265 39.5507 64.0284ZM57.0967 51.8332C57.1555 51.5555 57.3116 51.2738 57.5017 51.0806C57.5046 51.0777 57.5069 51.0735 57.5098 51.0706C57.6065 50.9743 57.6856 50.9233 57.7838 50.8747C57.8097 50.9881 58.7533 55.1288 58.6993 54.8918L56.6943 53.7397L57.0967 51.8332ZM71.3345 49.4159L60.6162 55.6075C60.3797 55.7424 60.2127 55.7534 60.1337 55.7186C60.0944 55.7012 60.0664 55.6621 60.0445 55.6197C59.8883 55.0716 59.2446 52.1608 58.8891 50.6204C58.8881 50.6155 58.8899 50.6109 58.8888 50.606C58.546 49.0684 56.409 49.6686 55.984 51.596L54.6236 58.0347C54.4788 58.7174 53.9902 59.4327 53.4606 59.7367L42.7833 65.9034C42.5826 66.0196 42.3917 66.0608 42.2968 66.0059L42.2941 66.0035L42.2906 66.0016C42.2688 65.9883 42.2497 65.9487 42.2295 65.917C42.2155 65.8954 42.2 65.8884 42.1882 65.8567C42.1596 65.78 42.1399 65.6751 42.1399 65.5358L42.115 56.3146C49.8624 51.8415 64.7696 43.2344 72.5141 38.7629L72.5379 47.3336C72.5373 48.0887 71.9873 49.0417 71.3345 49.4159ZM20.6669 45.2591C20.6746 45.1143 20.7786 45.0424 20.8228 45.0181C20.8665 44.9932 20.9848 44.9457 21.113 45.0192L38.3849 54.8193L38.3932 58.0165L24.2013 48.2252C23.3247 47.6267 22.1094 48.1721 21.9952 49.2528C21.9289 49.8626 21.3059 50.0969 20.8438 49.8299C20.5956 49.6901 20.4497 49.4154 20.4629 49.1191L20.6669 45.2591Z" fill="white"/>
<path d="M63.9694 31.9572C63.6958 31.804 63.3514 31.8986 63.1972 32.17C63.0429 32.4419 63.1386 32.7874 63.41 32.9422L64.6515 33.647C64.9235 33.8 65.2685 33.7068 65.4237 33.4342C65.5779 33.1622 65.4823 32.8167 65.2109 32.6619L63.9694 31.9572Z" fill="white"/>
<path d="M69.423 41.7877L62.4326 45.8234C61.7511 46.2176 61.2386 47.1059 61.2409 47.8897L61.2541 52.4191C61.2564 53.4274 62.1308 53.9402 63.0175 53.429L70.0078 49.3932C70.6894 48.9997 71.2018 48.1114 71.1996 47.3275L71.1869 42.7976C71.1834 41.7826 70.3028 41.2801 69.423 41.7877ZM69.4418 48.4126L62.4514 52.4484C62.4265 52.4628 62.405 52.4733 62.3906 52.4827C62.3879 52.4644 62.3862 52.4423 62.3862 52.4158L62.3729 47.8864C62.3718 47.51 62.6703 46.9937 62.9987 46.8041L69.989 42.7683C70.0139 42.7539 70.036 42.7434 70.0504 42.7335C70.0531 42.7517 70.0548 42.7744 70.0548 42.8009L70.0675 47.3309C70.0686 47.7073 69.7701 48.223 69.4418 48.4126Z" fill="white"/>
<path d="M51.6337 52.0864L44.6433 56.1216C43.9618 56.5152 43.4493 57.4035 43.4515 58.1879L43.4648 62.7173C43.4671 63.7236 44.3404 64.239 45.2282 63.7272L52.2185 59.6914C52.9001 59.2978 53.4125 58.4095 53.4103 57.6257L53.397 53.0968C53.3947 52.0838 52.5159 51.5768 51.6337 52.0864ZM51.6525 58.7108L44.6621 62.7466C44.6372 62.7609 44.6157 62.7714 44.6013 62.7808C44.5985 62.7626 44.5969 62.7405 44.5969 62.7139L44.5836 58.1845C44.5825 57.8075 44.881 57.2918 45.2094 57.1022L52.1997 53.067C52.2246 53.0526 52.2461 53.0421 52.2611 53.0327C52.2633 53.0509 52.2649 53.0731 52.2649 53.0996L52.2782 57.629C52.2793 58.0054 51.9808 58.5212 51.6525 58.7108Z" fill="white"/>
</svg>
