<svg width="93" height="92" viewBox="0 0 93 92" fill="none" xmlns="http://www.w3.org/2000/svg">
<rect x="0.5" width="92" height="92" rx="46" fill="black"/>
<path d="M67.859 44.8234H67.8573C67.5456 44.8234 67.2924 45.076 67.2913 45.3877L67.2858 47.3689C67.2847 47.6817 67.5378 47.9355 67.8501 47.9366H67.8518C68.1636 47.9366 68.4167 47.684 68.4178 47.3722L68.4234 45.3911C68.4245 45.0782 68.1713 44.8245 67.859 44.8234Z" fill="white"/>
<path d="M55.048 18.9072L24.8828 36.4374C24.8825 36.4377 24.882 36.4376 24.8816 36.4378C24.8813 36.438 24.8811 36.4385 24.8807 36.4387L24.8794 36.4395C24.7073 36.5396 24.5987 36.7661 24.5981 36.927L24.5234 63.2378C24.5229 63.4407 24.6307 63.6281 24.8065 63.7298L37.3842 70.9915C37.5585 71.0919 37.7728 71.0929 37.9497 70.9921C37.9503 70.9917 37.9505 70.991 37.9512 70.9906C37.9509 70.9908 37.9514 70.9905 37.9512 70.9906L40.1541 69.7106L45.9953 73.0904C45.9969 73.0914 45.9975 73.0933 45.9992 73.0943C46.1729 73.1943 46.389 73.1965 46.5669 73.0932L49.9465 71.1292C50.1201 71.0286 50.2273 70.8428 50.2279 70.6422L50.2395 67.6016C50.2395 67.5994 50.2411 67.5975 50.2411 67.5953C50.2406 67.393 50.1328 67.2067 49.9575 67.1061L47.2839 65.5672L58.2846 59.1742C60.3045 60.3405 64.391 62.7008 64.1361 62.554C64.3099 62.6541 64.526 62.6563 64.7038 62.5529L68.0835 60.5889C68.257 60.4883 68.3643 60.3026 68.3648 60.1019C68.3668 59.5894 68.3765 56.8881 68.377 57.0562C68.3764 56.8538 68.2687 56.6676 68.0934 56.567L65.4195 55.0278L68.1205 53.4582C68.2941 53.3576 68.4013 53.1718 68.4019 52.9706L68.4102 50.1084C68.4113 49.7955 68.1586 49.5418 67.8458 49.5407C67.8452 49.5407 67.8447 49.5407 67.8441 49.5407C67.5324 49.5407 67.2792 49.7933 67.2781 50.1051L67.2709 52.6428C63.9244 54.5869 37.4168 69.9924 38.236 69.5162L38.3064 44.5166L67.3417 27.6433L67.298 42.6283C67.2969 42.9411 67.5495 43.1949 67.8624 43.196C67.8629 43.196 67.8635 43.196 67.864 43.196C68.1758 43.196 68.429 42.9434 68.4301 42.6316L68.4765 26.6598C68.4765 26.6594 68.4762 26.6591 68.4762 26.6587C68.4762 26.6583 68.4765 26.658 68.4765 26.6576C68.476 26.4588 68.3704 26.2703 68.1935 26.1679L55.6157 18.9061C55.4399 18.8044 55.2227 18.8044 55.048 18.9072ZM55.3338 20.0503L66.7811 26.6598L37.7405 43.5362L26.2935 36.927L51.9873 21.9955C51.9879 21.9952 51.9882 21.9947 51.9887 21.9944L55.3338 20.0503ZM25.7274 37.9076C28.6748 39.6094 34.222 42.8122 37.1742 44.5167C37.1428 55.6771 37.1219 63.1371 37.104 69.5223L25.6566 62.9133L25.7274 37.9076ZM42.7813 68.1839L45.7228 69.8919L45.7161 71.6211L41.2824 69.0557C41.3957 68.9898 42.8946 68.1179 42.7813 68.1839ZM49.0969 70.3133L46.8521 71.6184L46.8587 69.8904L49.1035 68.5853L49.0969 70.3133ZM46.1556 66.2239L48.5452 67.5992C48.4317 67.6652 46.1442 68.996 46.2895 68.9115L43.9084 67.5289C44.0837 67.4271 46.2901 66.1458 46.1556 66.2239ZM59.4128 58.5186L60.9169 57.6444C61.0832 57.7409 64.043 59.4593 63.8586 59.3522L63.852 61.0825L59.4128 58.5186ZM67.2339 59.773L64.9891 61.0781L64.9957 59.3502L67.241 58.0451L67.2339 59.773ZM64.2915 55.6847L66.6811 57.06C66.5675 57.1261 64.2801 58.4564 64.4254 58.3719L62.0442 56.9894C62.1588 56.9229 64.4333 55.6024 64.2915 55.6847Z" fill="white"/>
<path d="M33.8105 34.9818C33.5408 35.1388 33.4485 35.4854 33.606 35.7557C33.7628 36.0255 34.1089 36.1174 34.3799 35.9602L53.1299 25.0634C53.3996 24.9064 53.4919 24.5598 53.3344 24.2895C53.1763 24.0192 52.8303 23.9275 52.5605 24.085L33.8105 34.9818Z" fill="white"/>
<path d="M36.6728 37.5256C36.8308 37.7984 37.1788 37.8868 37.4461 37.7307L56.1966 26.8345C56.4669 26.6775 56.5593 26.3309 56.4017 26.0612C56.2436 25.7898 55.8959 25.6986 55.6284 25.8561L36.8773 36.7523C36.6075 36.9093 36.5152 37.2559 36.6728 37.5256Z" fill="white"/>
<path d="M39.7401 39.2967C39.897 39.5666 40.243 39.6585 40.514 39.5013L59.264 28.605C59.5338 28.448 59.6261 28.1015 59.4686 27.8311C59.311 27.5608 58.9644 27.4696 58.6947 27.6266L39.9447 38.5228C39.6749 38.6798 39.5826 39.0264 39.7401 39.2967Z" fill="white"/>
<path d="M61.9157 34.1173C60.4713 34.9509 59.3447 36.906 59.3502 38.5693C59.3599 40.438 60.8412 41.3185 62.4961 40.3652C63.9432 39.5317 65.0703 37.5771 65.062 35.9154C65.0556 34.0794 63.6076 33.1489 61.9157 34.1173ZM63.93 35.921C63.936 37.1702 63.0206 38.7567 61.9311 39.3846C61.1092 39.8593 60.4886 39.6325 60.4823 38.5643C60.4779 37.3134 61.3938 35.7258 62.48 35.099C63.3249 34.6149 63.9256 34.8625 63.93 35.921C63.93 35.9215 63.93 35.9204 63.93 35.921Z" fill="white"/>
<path d="M56.3748 42.1414L53.8126 40.6549C52.2317 39.7274 50.1577 39.9081 47.9693 41.1646C43.6505 43.6615 40.267 49.5098 40.267 54.4825C40.283 56.9622 41.1564 58.8262 42.724 59.73L45.3254 61.2473C45.3258 61.2476 45.3269 61.2474 45.3273 61.2477C45.333 61.251 45.3379 61.2556 45.3436 61.2589C46.0086 61.6414 46.7582 61.8316 47.5641 61.8316C48.6873 61.8316 49.9206 61.4623 51.1875 60.731C55.4378 58.2773 58.8837 52.3073 58.8694 47.4231C58.8622 44.9367 57.9872 43.0661 56.4051 42.1557C56.3954 42.1501 56.3846 42.1469 56.3748 42.1414ZM43.2917 58.7504C42.0845 58.0545 41.4123 56.536 41.399 54.4786C41.399 49.9531 44.6007 44.4199 48.5348 42.1452C49.9838 41.3129 51.8021 40.7873 53.2422 41.6328L53.2847 41.6571C52.1553 41.8404 50.7194 42.4257 49.1913 43.6281C45.489 46.537 42.8696 51.7916 42.8816 56.0032C42.8837 56.7418 42.9937 57.7792 43.308 58.672C43.3194 58.7043 43.323 58.7435 43.3348 58.7753L43.2917 58.7504ZM57.7373 47.4264C57.7506 51.9486 54.5583 57.4774 50.6215 59.7504C46.9618 61.8621 44.0148 60.3431 44.0148 55.9949C44.0025 51.9717 46.515 47.2181 49.7641 44.6101C51.457 43.2526 53.8839 42.0939 55.7614 43.1049C55.7913 43.1208 55.824 43.1309 55.8535 43.1479L55.8579 43.1507C55.8595 43.1517 55.8614 43.1515 55.8631 43.1524C57.0654 43.8588 57.7318 45.3741 57.7373 47.4264Z" fill="white"/>
<path d="M50.5838 48.1958C48.9509 49.1388 47.6768 51.3499 47.6829 53.231C47.6943 55.3452 49.3483 56.2649 51.1664 55.2182C52.8032 54.2752 54.0773 52.0658 54.0679 50.1874C54.0622 48.0518 52.4001 47.1591 50.5838 48.1958ZM52.9359 50.1919C52.9436 51.6512 51.8745 53.5041 50.6015 54.237C49.5688 54.8314 48.8212 54.4985 48.815 53.226C48.81 51.7639 49.8796 49.9099 51.1477 49.1775C52.1769 48.5904 52.9316 48.9039 52.9359 50.1919Z" fill="white"/>
<path d="M35.8447 50.105C35.8444 49.9215 35.7381 49.7227 35.5677 49.6212L35.5634 49.6175L29.4702 46.0764C29.3298 45.9946 29.1601 45.9758 29.008 46.0283C28.8538 46.0792 28.7295 46.1936 28.6653 46.3423L27.0043 50.2084C26.9741 50.2788 26.9616 50.3519 26.9607 50.4245C26.9607 50.4277 26.9584 50.4302 26.9584 50.4334L26.9777 57.3248C26.9783 57.526 27.0855 57.7117 27.2591 57.8123C27.3737 57.8789 33.4676 61.4202 33.353 61.3536L33.3545 61.355C33.5266 61.4542 33.7428 61.4565 33.92 61.3545L35.5899 60.3904C35.7657 60.2887 35.8735 60.1013 35.8729 59.8985L35.8447 50.105ZM29.4536 47.376L34.5606 50.3438L33.3495 53.1618L28.2425 50.1946L29.4536 47.376ZM28.0932 51.4167L33.0525 54.2982L33.0682 59.8791L28.1087 56.997L28.0932 51.4167ZM34.2002 59.8852C34.1999 59.769 34.1835 53.8447 34.1842 54.0877C34.2338 53.9723 34.77 52.7243 34.7204 52.8397L34.7397 59.574L34.2002 59.8852Z" fill="white"/>
</svg>
