<svg width="93" height="92" viewBox="0 0 93 92" fill="none" xmlns="http://www.w3.org/2000/svg">
<rect x="0.5" width="92" height="92" rx="46" fill="black"/>
<path d="M29.5304 57.546V58.7477C29.5538 63.8234 35.299 66.9524 40.2705 68.1048C40.8917 71.0126 43.4847 73.1684 46.4883 73.1684C49.547 73.1684 52.0942 71.0675 52.7183 68.1313C57.7577 66.9871 63.494 63.8417 63.4694 58.7455V57.546C63.4694 51.3297 60.0001 45.3578 54.1496 42.3969C54.1487 41.5573 54.153 45.4383 54.1414 34.1859V34.1792C54.1414 32.8603 53.3012 31.6487 51.7756 30.7686C51.3513 30.5236 50.8864 30.3251 50.4039 30.1533L50.4213 28.2989C50.424 27.986 50.1731 27.7306 49.8608 27.7273H49.8552C49.5451 27.7273 49.292 27.9771 49.2892 28.2878C49.2807 29.2005 49.2358 34.0169 49.2367 33.9006C49.2357 34.1908 48.992 34.4995 48.5728 34.7527C48.5601 34.7602 48.551 34.7688 48.538 34.7762C47.4077 35.4284 45.4881 35.4295 44.3489 34.7753C43.8966 34.5126 43.6371 34.1892 43.6382 33.8896L43.7526 23.1072C43.8068 23.1426 43.8632 23.1769 43.9212 23.21C45.3561 24.04 47.7158 24.1327 49.3495 23.1426L49.3434 23.6722C49.3395 23.985 49.5905 24.2415 49.9028 24.2448H49.9094C50.219 24.2448 50.4716 23.9961 50.4754 23.6854C50.4758 23.6571 50.4719 23.9881 50.5025 21.3494C50.5014 20.6198 50.0459 19.9553 49.2207 19.4799C47.7249 18.6143 45.3894 18.6165 43.9047 19.4799C43.0058 20.0018 42.6454 20.7042 42.6394 21.3306L42.5455 30.1727C42.0677 30.3463 41.6044 30.5464 41.2016 30.7808C39.7296 31.6312 38.8881 32.8382 38.8746 34.0949C38.8615 34.2648 38.8751 42.5004 38.8755 42.3869C33.1895 45.2582 29.5304 51.1626 29.5304 57.546ZM51.5053 68.3891C50.8287 70.545 48.8337 72.0363 46.4883 72.0363C44.1904 72.0363 42.1684 70.5085 41.4857 68.3703C41.6164 68.3941 43.312 68.6487 44.6374 68.7365C46.6703 68.8709 48.9825 68.7901 51.1523 68.4356C51.2687 68.4164 51.3894 68.4099 51.5053 68.3891ZM40.0131 42.9639C40.0112 41.9486 40.0003 36.2643 40.001 36.6181C40.115 36.7307 40.6713 37.2161 41.2364 37.5456C43.8336 39.0396 47.8131 39.2945 50.8824 37.984C51.6638 37.6563 52.4001 37.2425 53.011 36.6402L53.0182 43.0037C53.0156 44.025 52.1265 44.8839 51.2421 45.395C48.6124 46.9239 44.3439 46.8519 41.8157 45.3928C40.9036 44.8662 40.002 44.0071 40.0131 42.9639ZM44.4729 20.4595C45.0472 20.1256 45.8029 19.9586 46.5596 19.9586C47.3169 19.9586 48.0759 20.1256 48.6546 20.4595C49.6516 21.0368 49.5373 21.7272 48.669 22.2305C47.5391 22.8872 45.6249 22.8872 44.4873 22.2305C43.6084 21.7217 43.4831 21.0335 44.4729 20.4595ZM41.7693 31.7603C42.0037 31.6232 42.2596 31.4961 42.5294 31.3822L42.5039 33.8852C42.5039 34.6159 42.9583 35.2815 43.7847 35.7568C43.7997 35.7654 43.8174 35.7709 43.8325 35.7794C45.347 36.6297 47.6421 36.6061 49.1035 35.758C49.1992 35.7025 49.2723 35.6364 49.3578 35.576C49.9952 35.128 50.3715 34.5388 50.3715 33.9106C50.3725 33.7943 50.3941 31.1837 50.3927 31.3477C50.6786 31.4656 50.9516 31.5997 51.2095 31.7481C52.3511 32.4076 53.0062 33.2911 53.0089 34.1736L53.0082 34.177C53.0081 34.2188 52.9888 34.2591 52.9859 34.3007C52.9193 35.1384 52.3127 35.9397 51.2294 36.5661C49.0065 37.8639 45.5623 38.0365 42.9765 37.0966C41.6364 36.607 40.0021 35.568 40.0021 34.1505C39.9927 33.286 40.6361 32.4148 41.7693 31.7603ZM38.9496 43.615C38.9527 43.6288 38.9609 43.6416 38.9642 43.6554C39.2368 44.8295 40.2032 45.7743 41.2475 46.3756C43.9105 47.9093 47.9017 48.0575 50.8256 46.8437C52.2914 46.2444 53.7658 45.153 54.0878 43.6305C59.1405 46.3912 62.3374 51.7654 62.3374 57.546V58.7477C62.3595 63.4269 56.4994 66.2254 51.8538 67.1639C43.2202 68.9112 30.6937 65.6832 30.6625 58.7455V57.546C30.6625 51.7507 33.8895 46.3712 38.9496 43.615Z" fill="white"/>
<path d="M33.9271 55.3647C34.1631 55.3647 34.3837 55.2155 34.4633 54.98C35.2438 52.6694 36.6666 50.6374 38.5781 49.1052C38.8219 48.9106 38.8611 48.5535 38.6654 48.3103C38.4714 48.067 38.1138 48.0273 37.8694 48.2229C35.7894 49.8901 34.2405 52.1012 33.3909 54.6174C33.2675 54.9829 33.5379 55.3647 33.9271 55.3647Z" fill="white"/>
<path d="M49.8944 24.8175H49.8884C49.5782 24.8175 49.3256 25.0674 49.3223 25.378L49.3096 26.582C49.3063 26.8937 49.5572 27.1502 49.8696 27.1535H49.8756C50.1857 27.1535 50.4384 26.9037 50.4417 26.593L50.4544 25.3891C50.4577 25.0773 50.2068 24.8208 49.8944 24.8175Z" fill="white"/>
</svg>
