<svg width="93" height="92" viewBox="0 0 93 92" fill="none" xmlns="http://www.w3.org/2000/svg">
<rect x="0.5" width="92" height="92" rx="46" fill="black"/>
<path d="M31.7338 33.7391L44.8942 26.1738C45.165 26.018 45.259 25.6719 45.1031 25.4011C44.9461 25.1285 44.5979 25.0373 44.3303 25.1921L30.3198 33.2465C30.3168 33.2483 30.3156 33.2519 30.3126 33.2537C28.3716 34.3739 26.8577 36.9832 26.8604 39.2027C26.8602 39.2084 26.8561 39.213 26.8561 39.2187L26.938 65.7893C26.938 66.954 27.3802 67.8743 28.1496 68.3116L35.8366 72.7595C35.8423 72.7629 35.8461 72.7686 35.8519 72.7719C36.7403 73.2831 37.7869 73.0643 38.6788 72.5508L62.6879 58.7459C64.6325 57.6282 66.1504 55.0091 66.1438 52.7831L66.0675 26.207C66.0642 25.0362 65.6362 24.1456 64.8655 23.694C64.8621 23.6919 64.8604 23.6884 64.857 23.6864C64.8525 23.6836 64.847 23.6808 64.8426 23.6775L57.1557 19.2299C56.362 18.775 55.3581 18.8524 54.3233 19.4477L49.9377 21.9689C49.6668 22.1248 49.5728 22.4708 49.7287 22.7417C49.8846 23.0131 50.2317 23.1032 50.5015 22.9506L54.8872 20.4294C55.5582 20.0436 56.163 19.9651 56.5908 20.2105L62.5353 23.651C62.3684 23.7206 62.1992 23.8047 62.0301 23.9019C29.5195 42.5985 40.7323 36.1501 38.3067 37.545C38.192 37.4786 31.3019 33.489 31.7338 33.7391ZM30.6139 34.4007C30.7286 34.4671 37.6965 38.5008 37.2538 38.2446C35.9373 39.3312 34.9227 41.1092 34.6447 42.7371L28.0037 38.8931C28.1319 37.2619 29.2507 35.3355 30.6139 34.4007ZM28.7123 67.3299C28.3044 67.0971 28.07 66.5361 28.07 65.7876L27.9915 40.1999L34.564 43.9985L34.6358 70.249C34.6369 70.432 34.6491 70.6083 34.6712 70.7775L28.7123 67.3299ZM62.1241 57.7642L38.115 71.5691C37.4537 71.9494 36.8356 72.0306 36.42 71.792C36.4174 71.7905 36.4161 71.7878 36.4136 71.7863L36.4113 71.7846C35.9159 71.496 35.7729 70.8172 35.7712 70.2468L35.6961 43.6702C35.6905 41.8778 37.0107 39.6027 38.5803 38.6946C38.5835 38.6929 38.5873 38.6937 38.5904 38.6919C41.0515 37.2764 29.6908 43.8102 62.5917 24.8881C63.2561 24.5072 63.8741 24.4265 64.2887 24.6659C64.7033 24.9052 64.9332 25.4536 64.9354 26.2103L65.0117 52.7865C65.0162 54.5819 63.6939 56.8615 62.1241 57.7642Z" fill="white"/>
<path d="M46.8775 25.034L48.653 24.013C48.9239 23.8571 49.0178 23.5111 48.862 23.2403C48.7039 22.9683 48.3567 22.8771 48.0892 23.0313L46.3137 24.0523C46.0428 24.2082 45.9489 24.5542 46.1047 24.825C46.2623 25.0986 46.6092 25.1883 46.8775 25.034Z" fill="white"/>
<path d="M50.0338 34.4947C43.4956 38.2541 38.1946 47.4003 38.2156 54.8837C38.2385 62.6311 43.8851 65.8655 50.6728 61.9619C57.2121 58.2025 62.5132 49.0558 62.4922 41.573C62.4693 33.844 56.8393 30.5833 50.0338 34.4947ZM50.109 60.9802C44.0915 64.44 39.3684 61.7666 39.3477 54.8804C39.3278 47.7596 44.3746 39.0545 50.5977 35.4764C56.6068 32.0209 61.3393 34.6694 61.3601 41.5763C61.38 48.6971 56.3332 57.4016 50.109 60.9802Z" fill="white"/>
<path d="M58.1861 42.119C58.0778 42.181 57.9761 42.265 57.8799 42.3711C57.1259 43.2202 56.1829 43.973 55.0784 44.6082C54.6325 44.8645 54.1655 45.0867 53.6919 45.2917C53.5457 44.9005 53.3263 44.5755 53.0399 44.333C54.2663 41.1224 54.301 38.9827 54.2482 38.1844C54.2139 37.7892 53.942 37.4951 53.555 37.4514C51.7298 37.29 50.0969 38.0468 49.2788 38.5106L49.2755 38.5133C48.7592 38.8103 48.4519 39.5843 48.7702 40.0865C49.3191 40.9633 49.5038 42.7073 49.29 44.8855C48.7813 45.3161 48.3185 45.8554 47.9261 46.473C45.8222 46.239 44.0173 47.0956 43.3133 47.4997L43.3111 47.5008L43.1342 47.6064C42.912 47.7341 42.7218 47.9613 42.609 48.2299C41.5599 50.7566 41.3509 52.6864 41.3189 53.6139C41.3089 53.9389 41.4449 54.2104 41.6936 54.3585C42.0618 54.5808 42.5279 54.437 42.8257 54.0876C43.9864 52.7847 45.4372 51.8533 47.0202 51.17C47.1659 51.5604 47.3844 51.8849 47.6695 52.127C46.3929 55.4699 46.4185 57.6587 46.4641 58.2666C46.4961 58.6806 46.7891 58.9841 47.155 59.004C47.3286 59.0195 47.4989 59.0272 47.668 59.0272C49.271 59.0272 50.6917 58.3655 51.4357 57.9421C51.9578 57.6447 52.2516 56.8826 51.9365 56.3706C51.3877 55.4976 51.2029 53.754 51.4168 51.5734C51.9277 51.1408 52.3928 50.5999 52.7872 49.9811C53.0282 50.0079 53.2721 50.0436 53.5042 50.0436C55.294 50.043 56.7766 49.3194 57.4012 48.9607L57.5958 48.8441C57.8147 48.7075 58.0015 48.4798 58.1032 48.225C59.1446 45.7104 59.3558 43.7757 59.389 42.8515C59.4022 42.5248 59.2696 42.2517 59.0219 42.1014C58.7754 41.9527 58.4636 41.9598 58.1861 42.119ZM49.8437 39.4923C50.5004 39.1208 51.7773 38.531 53.1305 38.5614C53.1404 39.3624 53.0232 41.2064 52.0139 43.8691C52.0018 43.8674 51.9883 43.8711 51.9762 43.8696C51.486 43.8063 50.9008 43.9352 50.4882 44.1129C50.5745 42.5369 50.4694 40.7559 49.7851 39.578C49.7995 39.5442 49.8249 39.5066 49.8437 39.4923ZM42.5228 52.7698C42.6455 51.7981 42.954 50.3669 43.7146 48.5776L43.8793 48.4803C44.4321 48.1636 45.783 47.5174 47.3441 47.5528C47.3411 47.5596 47.3392 47.5665 47.3363 47.5732C47.0449 48.2534 46.7779 49.2856 46.8112 50.0181C45.2635 50.6528 43.7492 51.5794 42.5228 52.7698ZM50.8752 56.9587C50.2229 57.3302 48.9825 57.894 47.5796 57.8935C47.5641 57.1036 47.6735 55.2778 48.695 52.5902C49.0966 52.6472 49.8897 52.4879 50.2185 52.3453C50.1323 53.9273 50.2373 55.7145 50.9238 56.8841C50.9106 56.9151 50.8896 56.9482 50.8752 56.9587ZM50.0814 51.1486C48.9934 51.7737 48.1247 51.5378 47.9665 50.3177C47.8314 49.3586 48.2212 48.2051 48.7083 47.3527C49.1624 46.5568 49.8373 45.764 50.6253 45.3096C51.2046 44.9774 51.7342 44.8901 52.1145 45.067C52.4517 45.2245 52.6761 45.6065 52.7458 46.1443C52.881 47.1045 52.4856 48.2615 52.0006 49.1088L52 49.111C51.5483 49.8981 50.8738 50.6916 50.0814 51.1486ZM56.9977 47.8828L56.8352 47.9801C56.2824 48.2974 54.9591 48.9485 53.3649 48.9098C53.3671 48.9046 53.3686 48.8994 53.3709 48.8942C53.7546 47.9982 53.9267 47.0085 53.901 46.4434C54.5002 46.1974 55.084 45.9105 55.6423 45.5893C56.5986 45.0399 57.4465 44.407 58.1839 43.6911C58.0612 44.6657 57.7539 46.0979 56.9977 47.8828Z" fill="white"/>
<path d="M61.2462 27.0771C60.2778 27.6365 59.5216 28.9471 59.5238 30.062C59.5284 31.4084 60.6455 32.0543 61.8211 31.3754C62.7896 30.8171 63.5458 29.5059 63.5436 28.3916C63.5412 27.0452 62.426 26.4001 61.2462 27.0771ZM61.2551 30.3948C60.8676 30.6178 60.658 30.5615 60.6559 30.0587C60.6537 29.349 61.1943 28.4142 61.8123 28.0577C62.2605 27.7986 62.4097 27.9642 62.4115 28.3938C62.4137 29.1162 61.8841 30.0322 61.2551 30.3948Z" fill="white"/>
<path d="M39.4615 44.2323C40.43 43.6724 41.1851 42.3617 41.1828 41.2485C41.1805 39.904 40.0649 39.2535 38.8855 39.934C37.9171 40.4934 37.1609 41.804 37.1631 42.9189C37.1677 44.2633 38.2814 44.9117 39.4615 44.2323ZM39.4516 40.9146C39.8975 40.6569 40.0489 40.8162 40.0508 41.2507C40.053 41.9726 39.5234 42.8891 38.8955 43.2517C38.5016 43.4785 38.2972 43.4111 38.2952 42.9156C38.293 42.2059 38.8336 41.2711 39.4516 40.9146Z" fill="white"/>
<path d="M61.2462 52.2248C60.2778 52.7842 59.5216 54.0949 59.5238 55.2098C59.5285 56.566 60.6534 57.1975 61.8211 56.5232C62.7896 55.9649 63.5458 54.6537 63.5436 53.5393C63.5413 52.1966 62.4281 51.5455 61.2462 52.2248ZM61.2551 55.5426C60.8641 55.7685 60.658 55.7044 60.6559 55.2065C60.6537 54.4967 61.1943 53.562 61.8123 53.2054C62.2302 52.9639 62.4096 53.0829 62.4115 53.5415C62.4137 54.264 61.8841 55.1799 61.2551 55.5426Z" fill="white"/>
<path d="M38.8855 65.0817C37.9171 65.6406 37.1609 66.9512 37.1631 68.0667C37.1677 69.4134 38.284 70.058 39.4615 69.3801C40.43 68.8201 41.1851 67.5095 41.1828 66.3962C41.1805 65.0476 40.0603 64.4028 38.8855 65.0817ZM38.8955 68.3994C38.504 68.6246 38.2973 68.561 38.2952 68.0634C38.293 67.3536 38.8336 66.4183 39.4516 66.0623C39.8975 65.8046 40.0489 65.9639 40.0508 66.3984C40.053 67.1203 39.5234 68.0368 38.8955 68.3994Z" fill="white"/>
</svg>
