<svg width="93" height="92" viewBox="0 0 93 92" fill="none" xmlns="http://www.w3.org/2000/svg">
<rect x="0.5" width="92" height="92" rx="46" fill="black"/>
<path d="M71.6038 58.3855C71.6033 58.1843 71.4955 57.9974 71.3208 57.8968L63.4664 53.3629C63.467 52.9745 63.5098 28.7754 63.5102 28.904C63.51 28.8542 63.4851 28.8117 63.4726 28.7649C63.4344 28.6214 63.3589 28.4903 63.2271 28.4142L46.7568 18.9049C46.5815 18.8038 46.3654 18.8032 46.1891 18.906L29.8254 28.4153C29.7173 28.4781 29.5447 28.7099 29.544 28.9034L29.5002 53.352L21.6781 57.8968C21.5034 57.9986 21.3962 58.1854 21.3962 58.3866C21.3962 58.5889 21.504 58.7757 21.6786 58.8764C30.9431 64.226 41.4129 70.2717 46.3018 73.0947C46.4824 73.1992 46.6986 73.1936 46.8695 73.0947L71.3225 58.8764C71.4972 58.7746 71.6044 58.5878 71.6038 58.3855ZM62.3211 58.5248C41.4547 70.6511 48.6581 66.4649 47.0947 67.3735L47.1058 61.1794L60.0095 53.6803C60.1841 53.5786 60.2914 53.3918 60.2908 53.1894L60.2842 49.9226C60.2836 49.7203 60.1753 49.5334 60.0001 49.4328C59.8243 49.3333 59.6081 49.3333 59.4335 49.4339L47.1141 56.5934L47.1181 54.4274L60.0095 46.9354C60.1841 46.8337 60.2914 46.6468 60.2908 46.4445L60.2842 43.1777C60.2836 42.9753 60.1753 42.7885 60.0001 42.6879C59.8243 42.5867 59.6081 42.5878 59.4335 42.6896L47.1264 49.8414L47.1303 47.674L60.0089 40.1899C60.1841 40.0888 60.2914 39.9014 60.2908 39.6996L60.2842 36.4322C60.2836 36.2299 60.1753 36.043 60.0001 35.9424C59.8243 35.8413 59.6093 35.8424 59.4335 35.9441L47.1386 43.0892L47.1465 38.74C52.4732 35.6444 57.155 32.9235 62.3764 29.8891C62.3708 32.8175 62.3969 19.2823 62.3211 58.5248ZM47.1398 57.888L59.1543 50.9065L59.1582 52.8655L47.1437 59.847L47.1398 57.888ZM47.1398 51.1431L59.1543 44.161L59.1582 46.1206L47.1437 53.1021L47.1398 51.1431ZM47.1398 44.3976L59.1543 37.4156L59.1582 39.3751L47.1437 46.3561L47.1398 44.3976ZM46.0143 38.7406C46.0021 45.494 45.9749 60.5006 45.9624 67.3791L30.623 58.5237C30.6501 43.4488 30.6439 46.9146 30.6744 29.8841C34.3012 31.978 42.3054 36.5992 46.0143 38.7406ZM46.4749 20.0492L61.8148 28.9062L46.5802 37.7597L31.2394 28.9029L46.4749 20.0492ZM46.5838 71.9505L23.0904 58.3855L29.4979 54.6631L29.4904 58.8487C29.4899 59.051 29.5976 59.2401 29.7734 59.3407C40.901 65.7649 46.3651 68.9171 46.2475 68.8504C46.3103 68.886 46.3821 68.8955 46.4533 68.9052C46.5764 68.922 46.7014 68.9131 46.8126 68.8495C48.5621 67.8326 41.5722 71.8952 63.1746 59.3396C63.2555 59.2926 63.3145 59.2257 63.3616 59.1518C63.375 59.131 63.3823 59.1095 63.3929 59.0871C63.4215 59.0262 63.4384 58.9638 63.4442 58.8968C63.4456 58.8806 63.4565 58.8673 63.4565 58.8509L63.464 54.6687L69.9085 58.3888L46.5838 71.9505Z" fill="white"/>
<path d="M32.0392 58.0339L43.9868 64.9314C44.0742 64.9822 44.172 65.0077 44.2699 65.0077C44.5852 65.0077 44.8351 64.7519 44.8359 64.4427L44.8807 39.7206C44.8812 39.5177 44.7729 39.3303 44.5977 39.2292L32.6501 32.3317C32.4754 32.2311 32.2592 32.2305 32.0846 32.3317C31.9093 32.4323 31.8016 32.6191 31.801 32.8209L31.7562 57.543C31.7557 57.7454 31.864 57.9333 32.0392 58.0339ZM32.9314 33.8015L43.748 40.0462L43.7055 63.4621L32.8889 57.218L32.9314 33.8015Z" fill="white"/>
<path d="M37.3558 27.6558L37.3447 30.1405C37.3436 30.344 37.452 30.5319 37.6278 30.6336L46.2731 35.6251C46.4484 35.7261 46.664 35.7259 46.838 35.6257C53.2364 31.9073 55.5606 30.5566 55.4176 30.6397C55.5912 30.5391 55.6978 30.3539 55.699 30.1533C55.6998 29.9557 55.7097 27.549 55.71 27.6652C55.7099 27.6158 55.6851 27.5735 55.6728 27.527C55.6599 27.4783 55.6588 27.4259 55.6339 27.3827C55.5852 27.2985 55.5147 27.227 55.4279 27.1764C55.4277 27.1763 55.428 27.1764 55.4279 27.1764C52.412 25.435 46.5309 22.0392 46.7816 22.184C46.6064 22.0822 46.3903 22.0817 46.214 22.1851L37.6401 27.1677L37.6372 27.1694C37.5029 27.2474 37.3564 27.5421 37.3558 27.6558ZM38.4834 28.6366C38.6307 28.7216 46.4551 33.2393 45.9995 32.9763C45.999 33.0903 45.9939 34.2709 45.9944 34.1569L38.4785 29.8172L38.4834 28.6366ZM47.1266 34.1487C47.1271 34.0347 47.1323 32.8627 47.1318 32.9767C47.4518 32.7907 55.0534 28.373 54.5735 28.6519L54.5685 29.8238L47.1266 34.1487ZM46.4997 23.3282L54.0147 27.6674L46.5663 31.9959L39.0511 27.6569L46.4997 23.3282Z" fill="white"/>
<path d="M42.8509 28.1285L46.3035 30.1212C46.4846 30.2249 46.7007 30.2198 46.8712 30.1201L50.216 28.1755C50.3901 28.0743 50.4979 27.8875 50.4974 27.6857C50.4968 27.4834 50.389 27.2971 50.2144 27.1959L46.7629 25.2026C46.5876 25.1009 46.3704 25.1015 46.1952 25.2038L42.8492 27.149C42.6751 27.2501 42.5673 27.4369 42.5679 27.6393C42.5684 27.841 42.6762 28.0273 42.8509 28.1285ZM46.4809 26.3469L48.8026 27.6879L46.5854 28.977L44.2632 27.6365L46.4809 26.3469Z" fill="white"/>
</svg>
