<svg width="93" height="92" viewBox="0 0 93 92" fill="none" xmlns="http://www.w3.org/2000/svg">
<rect x="0.5" width="92" height="92" rx="46" fill="black"/>
<path d="M68.476 34.5603C68.3002 34.4575 68.084 34.4575 67.9083 34.5603L43.1612 48.9423C42.9877 49.044 42.8804 49.2297 42.8799 49.4298L42.8207 67.6746C42.8196 68.112 43.2922 68.3846 43.6715 68.1665L68.4185 53.7845C68.592 53.6828 68.6993 53.4971 68.6998 53.297L68.759 35.0522C68.7595 34.8488 68.6517 34.6609 68.476 34.5603ZM67.5689 52.9687L43.9561 66.6917L44.0109 49.7582L67.6236 36.0351L67.5689 52.9687Z" fill="white"/>
<path d="M46.3772 52.0002L53.351 47.9473C53.6213 47.7903 53.7131 47.4432 53.5555 47.1734C53.398 46.9014 53.0514 46.8108 52.7817 46.9678L45.8079 51.0207C45.5376 51.1777 45.4458 51.5248 45.6034 51.7946C45.7614 52.0674 46.1096 52.1555 46.3772 52.0002Z" fill="white"/>
<path d="M46.3657 55.6672L53.3389 51.6154C53.6092 51.4584 53.7015 51.1113 53.544 50.8416C53.3864 50.5696 53.0382 50.4778 52.7706 50.6359L45.7974 54.6877C45.5271 54.8447 45.4348 55.1919 45.5924 55.4616C45.7509 55.7353 46.1003 55.8222 46.3657 55.6672Z" fill="white"/>
<path d="M46.343 59.3244L53.3278 55.2715C53.5982 55.1145 53.6905 54.7685 53.5335 54.4976C53.3765 54.2279 53.0321 54.1361 52.7596 54.292L45.7748 58.3449C45.5045 58.5019 45.4122 58.8479 45.5691 59.1188C45.7264 59.3903 46.0743 59.4803 46.343 59.3244Z" fill="white"/>
<path d="M46.3314 62.9926L53.3162 58.9397C53.5865 58.7827 53.6788 58.4367 53.5218 58.1658C53.3648 57.8961 53.0205 57.8043 52.7479 57.9602L45.7631 62.0131C45.4928 62.1701 45.4005 62.5161 45.5575 62.787C45.7148 63.0585 46.0627 63.1485 46.3314 62.9926Z" fill="white"/>
<path d="M58.8434 44.7666L65.8166 40.7137C66.0869 40.5567 66.1786 40.2096 66.0211 39.9398C65.863 39.669 65.5164 39.5772 65.2472 39.7342L58.274 43.7871C58.0037 43.9441 57.912 44.2912 58.0695 44.561C58.2276 44.8339 58.5758 44.9219 58.8434 44.7666Z" fill="white"/>
<path d="M58.8318 48.4348L65.8055 44.3819C66.0758 44.2249 66.1676 43.8778 66.0101 43.608C65.8525 43.3361 65.5048 43.2443 65.2362 43.4024L58.2624 47.4553C57.9921 47.6123 57.9004 47.9594 58.0579 48.2292C58.216 48.5021 58.5642 48.5901 58.8318 48.4348Z" fill="white"/>
<path d="M58.8085 52.0908L65.7934 48.039C66.0637 47.882 66.156 47.536 65.999 47.2651C65.8426 46.9954 65.4965 46.9036 65.2251 47.0595L58.2403 51.1113C57.97 51.2683 57.8777 51.6143 58.0347 51.8852C58.1919 52.1567 58.5398 52.2467 58.8085 52.0908Z" fill="white"/>
<path d="M58.7975 55.759L65.7823 51.7061C66.0526 51.5491 66.1449 51.2031 65.9879 50.9322C65.831 50.6614 65.4866 50.5696 65.2141 50.7266L58.2292 54.7795C57.9589 54.9365 57.8666 55.2826 58.0236 55.5534C58.1809 55.8249 58.5288 55.915 58.7975 55.759Z" fill="white"/>
<path d="M33.1362 31.2801C33.4059 31.1231 33.4983 30.776 33.3407 30.5062C33.1826 30.2343 32.836 30.1425 32.5668 30.3006L21.7557 36.5834C21.6175 36.6642 21.4748 36.9102 21.4744 37.0709L21.3948 61.8749C21.3942 62.0783 21.502 62.2663 21.6778 62.3669L40.257 73.0939C40.4322 73.196 40.6472 73.1949 40.8225 73.0951C40.8222 73.0952 40.8228 73.0949 40.8225 73.0951C40.823 73.0948 40.8242 73.0942 40.8247 73.0939L71.2437 55.4163C71.4173 55.3146 71.5245 55.1289 71.525 54.9288C71.5258 54.709 71.6048 29.9356 71.6052 30.1215C71.6049 29.9799 71.5301 29.7526 71.3222 29.6329L52.7424 18.9069C52.5667 18.8041 52.3505 18.8041 52.1747 18.9069L37.8895 27.2084C37.6197 27.3654 37.5274 27.7125 37.6849 27.9823C37.8408 28.2531 38.188 28.3449 38.4583 28.1879L52.4605 20.0511L69.9099 30.1237L40.619 47.1458C37.8671 45.5571 27 39.2833 23.1697 37.0721L33.1362 31.2801ZM22.6031 38.0516L40.053 48.1264C40.0098 61.4989 40.0191 58.617 39.9771 71.6257L22.528 61.551L22.6031 38.0516ZM41.1094 71.6192C41.1177 69.024 41.1777 50.453 41.1852 48.1271L70.4698 31.1087L70.3941 54.6004L41.1094 71.6192Z" fill="white"/>
<path d="M35.0538 30.1668L36.8116 29.1442C37.0819 28.9861 37.1731 28.6401 37.0161 28.3703C36.8586 28.0983 36.512 28.0077 36.2422 28.1647L34.4844 29.1873C34.2141 29.3454 34.1229 29.6914 34.2799 29.9612C34.438 30.2341 34.7861 30.3221 35.0538 30.1668Z" fill="white"/>
<path d="M49.4573 33.9765C49.6557 34.0905 48.717 33.551 51.5059 35.1539C51.6303 35.2245 51.8997 35.2511 52.0703 35.1539L54.8098 33.5796C54.9861 33.4779 55.0945 33.29 55.0939 33.0877L55.0823 28.7805C55.071 27.8158 54.7239 27.0795 54.1567 26.6692C53.9996 26.4759 54.1662 26.6531 51.9497 25.3378C51.2356 24.942 50.3434 25.0117 49.444 25.5357L41.0005 30.4244C39.3112 31.3962 37.9879 33.6902 37.9879 35.6492L37.9995 39.9509C38 40.1521 38.1067 40.3378 38.2803 40.4384C38.4501 40.5374 40.4467 41.7015 40.3193 41.6273C40.319 41.6271 40.3196 41.6274 40.3193 41.6273C40.3273 41.6319 40.3378 41.6307 40.346 41.635C40.4241 41.6756 40.509 41.7043 40.603 41.7043C40.6963 41.7043 40.7811 41.6762 40.8587 41.6362C40.8672 41.6319 40.8772 41.6338 40.8855 41.6291L43.6366 40.0437C43.813 39.942 43.9213 39.753 43.9202 39.5496L43.8992 35.5762L49.1732 32.5194V33.4857C49.1732 33.688 49.2815 33.8759 49.4573 33.9765ZM50.3053 33.1584V31.8638L51.2046 31.342L51.2168 33.6824L50.3053 33.1584ZM39.1199 35.6481C39.1199 34.1103 40.2393 32.1679 41.5659 31.405L50.0128 26.5141C50.5557 26.199 51.0487 26.1338 51.3909 26.3228L51.7911 26.555C51.6828 26.6059 51.5788 26.6622 51.481 26.7242L43.049 31.6129C41.224 32.6665 40.0259 35.025 40.0259 36.8366L40.0344 40.1517L39.1304 39.6236L39.1199 35.6481ZM43.0479 34.7615C42.8721 34.8632 42.7643 35.0511 42.7655 35.2545L42.7865 39.2267L41.1691 40.1587V36.8366C41.1691 35.5006 42.0369 33.5026 43.6156 32.5935L52.0487 27.7037C53.1254 27.0789 53.9343 27.4285 53.9502 28.7882L53.9607 32.7615L52.3491 33.6878L52.3312 30.3581C52.3301 30.1569 52.2217 29.97 52.0465 29.8705C51.8701 29.7699 51.6551 29.771 51.481 29.8716L43.0479 34.7615Z" fill="white"/>
<path d="M24.5704 43.2885L37.5003 50.7531C37.7685 50.9097 38.1163 50.8181 38.2736 50.5464C38.4301 50.2755 38.3372 49.9295 38.0664 49.7736L25.1365 42.309C24.8662 42.1509 24.5196 42.2449 24.3632 42.5157C24.2067 42.7866 24.2996 43.1326 24.5704 43.2885Z" fill="white"/>
<path d="M24.5704 46.2569L37.5003 53.7215C37.7685 53.8781 38.1163 53.7864 38.2736 53.5148C38.4301 53.2439 38.3372 52.8979 38.0664 52.742L25.1365 45.2774C24.8662 45.1182 24.5196 45.2132 24.3632 45.4841C24.2067 45.755 24.2996 46.101 24.5704 46.2569Z" fill="white"/>
<path d="M24.5704 49.2264L37.5003 56.691C37.7685 56.8475 38.1163 56.7559 38.2736 56.4842C38.4301 56.2134 38.3372 55.8674 38.0664 55.7115L25.1365 48.2468C24.8662 48.0888 24.5196 48.1827 24.3632 48.4536C24.2067 48.7244 24.2996 49.0705 24.5704 49.2264Z" fill="white"/>
<path d="M31.5813 55.0405C30.1181 54.1952 28.7712 54.9646 28.7655 56.6501C28.7616 58.0962 29.7444 59.7987 31.0025 60.5262C32.4671 61.3678 33.8082 60.5807 33.8128 58.9132C33.8172 57.466 32.8372 55.7657 31.5813 55.0405ZM32.6807 58.9099C32.6785 59.6804 32.2936 59.9619 31.5686 59.5455C30.6598 59.0204 29.8948 57.696 29.8975 56.6534C29.8999 55.821 30.3346 55.6272 31.0152 56.02C31.9212 56.5418 32.684 57.8662 32.6807 58.9099Z" fill="white"/>
<path d="M36.5905 58.4809C35.3975 57.7893 34.2558 58.4344 34.2523 59.8175C34.2495 60.9573 35.0234 62.2994 36.0145 62.871C37.2046 63.5581 38.3437 62.9063 38.3472 61.5311C38.3505 60.3912 37.5788 59.0513 36.5905 58.4809ZM36.5805 61.8915C35.9415 61.5222 35.3827 60.5538 35.3843 59.8197C35.3853 59.321 35.5882 59.2107 36.0244 59.4604C36.6607 59.8285 37.2173 60.7937 37.2151 61.5266C37.214 61.9964 37.0408 62.1552 36.5805 61.8915Z" fill="white"/>
<path d="M25.9938 57.0846C27.1846 57.7722 28.3225 57.1209 28.326 55.7447C28.3293 54.606 27.5576 53.2661 26.5698 52.6945C25.3728 52.0013 24.2351 52.6526 24.2316 54.0311C24.2283 55.1709 25.0021 56.513 25.9938 57.0846ZM26.0027 53.674C26.6394 54.0421 27.1961 55.0084 27.1939 55.7414C27.1927 56.2463 26.9838 56.3494 26.5599 56.1051C25.9203 55.7358 25.3614 54.7685 25.3637 54.0344C25.3646 53.5765 25.5293 53.4021 26.0027 53.674Z" fill="white"/>
<path d="M38.0664 66.3888L25.1365 58.9242C24.8662 58.765 24.5196 58.8601 24.3632 59.131C24.2067 59.4018 24.2996 59.7478 24.5704 59.9037L37.5003 67.3684C37.7685 67.5249 38.1163 67.4333 38.2736 67.1616C38.4301 66.8908 38.3372 66.5447 38.0664 66.3888Z" fill="white"/>
</svg>
