<svg width="93" height="92" viewBox="0 0 93 92" fill="none" xmlns="http://www.w3.org/2000/svg">
<rect x="0.5" width="92" height="92" rx="46" fill="black"/>
<path d="M50.8003 23.4143L52.856 22.2275C53.1269 22.071 53.2198 21.725 53.0633 21.4541C52.9063 21.1827 52.5597 21.0899 52.29 21.2469L50.2342 22.4337C49.9634 22.5901 49.8705 22.9361 50.0269 23.207C50.1849 23.4796 50.532 23.5692 50.8003 23.4143Z" fill="white"/>
<path d="M65.3127 54.595L65.2276 24.4093C65.2254 23.7736 64.9711 23.2628 64.5289 23.008C64.5223 23.0043 64.5146 23.0036 64.508 23L57.5789 19.0026C57.1273 18.7423 56.5513 18.7793 56.0035 19.1027L54.2778 20.0988C54.0069 20.2552 53.914 20.6012 54.0705 20.8721C54.2264 21.1424 54.5724 21.2341 54.8438 21.0794L56.574 20.0805C56.7962 19.949 56.9482 19.9467 57.0134 19.9832L62.6947 23.2612C60.0436 24.7918 72.2269 17.7582 36.342 38.4751C35.4006 39.0178 34.6427 40.3058 34.6455 41.4153C34.7577 82.3611 34.719 68.2279 34.7273 71.2876L29.0305 68.0052C28.9835 67.9792 28.9094 67.8427 28.9094 67.5868L28.8199 37.5094C28.826 37.4757 28.8293 37.4408 28.8293 37.4049C28.8293 36.7267 29.3279 35.8411 29.9077 35.4741C30.0213 35.4236 29.6496 35.6257 48.4786 24.7553C48.7495 24.5989 48.8424 24.2528 48.6859 23.982C48.5295 23.7106 48.1818 23.6177 47.9126 23.7747L29.4578 34.431C29.4346 34.4404 29.4119 34.452 29.3903 34.4642C28.475 34.9932 27.7514 36.212 27.7 37.285C27.6917 37.3248 27.6873 37.3657 27.6873 37.4066L27.7774 67.5884C27.7774 68.2313 28.0316 68.7432 28.4705 68.9892C30.2108 69.992 33.6913 71.9977 35.4316 73.0006C35.9214 73.2821 36.5086 73.1855 37.0026 72.9006L63.6168 57.5346C64.5715 56.983 65.3161 55.6917 65.3127 54.595ZM63.0508 56.554L36.4365 71.9199C36.2113 72.0499 36.0592 72.055 35.9978 72.0195C35.9977 72.0195 35.9978 72.0195 35.9978 72.0195C35.9589 71.9971 35.9296 71.9465 35.9063 71.8848C35.8816 71.816 35.8636 71.7226 35.8633 71.5977C35.8547 68.4992 35.8942 82.78 35.7798 41.4153C35.7798 40.7937 36.204 40.0207 36.7202 39.6101C36.7836 39.5602 36.8418 39.4949 36.908 39.4568C73.3882 18.3975 60.7911 25.6696 63.5201 24.0942C63.9898 23.8229 64.0946 24.0181 64.0955 24.4126L64.1807 54.5983C64.1829 55.2915 63.655 56.2052 63.0508 56.554Z" fill="white"/>
<path d="M61.56 28.1648C61.3847 28.0636 61.1686 28.0653 60.9945 28.1653L38.3264 41.2522C38.1507 41.3539 38.0429 41.5413 38.0434 41.7442L38.1158 67.3574C38.1164 67.5591 38.2247 67.7454 38.3994 67.8466C38.5716 67.9457 38.7877 67.948 38.9649 67.846L61.6329 54.7586C61.8087 54.6569 61.9165 54.4695 61.916 54.2666L61.8435 28.654C61.843 28.4522 61.7347 28.2659 61.56 28.1648ZM39.2452 66.3767L39.1766 42.0686L60.7142 29.6346L60.7828 53.9422L39.2452 66.3767Z" fill="white"/>
<path d="M54.7918 35.8207C54.6166 35.7195 54.4005 35.7212 54.2264 35.8212L45.115 41.0814C44.9392 41.1831 44.8315 41.3705 44.832 41.5734L44.8834 59.7009C44.884 59.9027 44.9923 60.089 45.167 60.1901C45.3391 60.2893 45.5553 60.2916 45.7325 60.1896L54.8438 54.9294C55.0196 54.8277 55.1274 54.6403 55.1268 54.4374L55.0754 36.3099C55.0749 36.1081 54.9665 35.9218 54.7918 35.8207ZM46.0127 58.7203L45.9652 41.8978L53.9461 37.2905L53.9936 54.113L46.0127 58.7203Z" fill="white"/>
<path d="M50.258 46.8512C51.5244 46.1199 52.5133 44.4063 52.5094 42.9498C52.5067 42.1355 52.2004 41.5114 51.646 41.1925C51.0966 40.8758 50.3796 40.9272 49.6787 41.3318C48.4123 42.0631 47.4234 43.7767 47.4273 45.2333C47.4319 46.9163 48.7859 47.7 50.258 46.8512ZM50.2447 42.3124C50.5858 42.1151 50.892 42.0637 51.0811 42.1737C51.2685 42.2809 51.3763 42.5656 51.3774 42.9531C51.3801 44.005 50.6085 45.3416 49.692 45.8706C49.3503 46.0679 49.0458 46.1193 48.8556 46.0099C48.6688 45.9021 48.5604 45.618 48.5593 45.2299C48.5566 44.178 49.3282 42.842 50.2447 42.3124Z" fill="white"/>
<path d="M50.871 48.8152C50.5062 48.8152 50.1043 48.9346 49.7091 49.1601C48.4306 49.8854 47.4394 51.6006 47.4521 53.0605C47.4521 54.7478 48.7864 55.5332 50.2845 54.6812C51.5465 53.9449 52.5354 52.2286 52.5354 50.7737V50.7665C52.5177 49.4382 51.6974 48.8296 50.871 48.8152ZM49.7196 53.7006C49.3846 53.8897 49.0834 53.9449 48.8954 53.8532C48.6926 53.7542 48.624 53.4756 48.6036 53.3385C48.5947 53.2551 48.5842 53.1622 48.5842 53.0555C48.5748 52.0008 49.3459 50.6676 50.2691 50.1441C50.5692 49.9727 50.7749 49.9473 50.8727 49.9473C51.3232 49.955 51.3989 50.4691 51.4034 50.7776C51.4017 51.8311 50.6289 53.1699 49.7196 53.7006Z" fill="white"/>
</svg>
