<svg width="93" height="92" viewBox="0 0 93 92" fill="none" xmlns="http://www.w3.org/2000/svg">
<rect x="0.5" width="92" height="92" rx="46" fill="black"/>
<path d="M19.7895 61.2056C19.7901 61.4063 19.8973 61.592 20.0709 61.6932L39.6865 73.093C39.687 73.0933 39.6876 73.0931 39.6881 73.0934C39.6878 73.0933 39.6883 73.0935 39.6881 73.0934C39.7754 73.1437 39.8739 73.1698 39.9712 73.1698C40.0691 73.1698 40.1663 73.1444 40.2542 73.0941L72.9838 54.1976C73.1596 54.0959 73.2674 53.9085 73.2668 53.7056L73.2105 30.7938C73.2099 30.6097 73.0289 30.3643 72.9291 30.3063L53.3135 18.907C53.1371 18.8048 52.921 18.8048 52.7458 18.9059L20.0162 37.8024C19.8489 37.8993 19.7337 38.0816 19.7332 38.2922C19.7332 38.2926 19.7334 38.2929 19.7334 38.2933C19.7334 38.2937 19.7332 38.294 19.7332 38.2944L19.7895 61.2056ZM20.8674 39.2778L39.3493 50.0181C39.3558 52.6178 39.3977 69.5655 39.4028 71.6186L20.9211 60.8778L20.8674 39.2778ZM40.535 71.6248C40.5304 69.7522 40.4874 52.3142 40.4817 50.0184L72.0806 31.7747L72.1342 53.3812L40.535 71.6248ZM53.0277 20.0502L71.515 30.7938L39.9157 49.0378L21.4285 38.2944L53.0277 20.0502Z" fill="white"/>
<path d="M29.5078 62.5859L23.3317 58.9962C23.0614 58.8398 22.7148 58.9299 22.5578 59.2007C22.4003 59.471 22.4921 59.8176 22.7624 59.9746L28.9385 63.5643C29.2095 63.7216 29.5556 63.6296 29.7124 63.3598C29.8699 63.0895 29.7781 62.7429 29.5078 62.5859Z" fill="white"/>
<path d="M22.7624 57.0283L28.9385 60.6175C29.2095 60.7748 29.5556 60.6828 29.7124 60.413C29.8699 60.1426 29.7776 59.7961 29.5078 59.6391L23.3317 56.0499C23.0614 55.8929 22.7148 55.9842 22.5578 56.2545C22.4003 56.5248 22.4926 56.8713 22.7624 57.0283Z" fill="white"/>
<path d="M22.7624 54.0815L28.9385 57.6707C29.2095 57.8279 29.5556 57.736 29.7124 57.4661C29.8699 57.1958 29.7776 56.8493 29.5078 56.6923L23.3317 53.1031C23.0614 52.9456 22.7148 53.0373 22.5578 53.3076C22.4003 53.578 22.4926 53.9245 22.7624 54.0815Z" fill="white"/>
<path d="M49.1903 47.9723C49.0151 47.8711 48.799 47.8728 48.6249 47.9729L42.6997 51.3934C42.5239 51.4951 42.4161 51.6825 42.4167 51.8854L42.4283 55.5298C42.4289 55.7321 42.5372 55.9184 42.7119 56.019C42.8892 56.1205 43.1043 56.1181 43.2774 56.0184L49.2014 52.5973C49.3772 52.4956 49.485 52.3082 49.4844 52.1054L49.4739 48.4615C49.4734 48.2597 49.365 48.0735 49.1903 47.9723ZM43.5571 54.5492L43.5499 52.2098L48.3446 49.4421L48.3512 51.7809L43.5571 54.5492Z" fill="white"/>
<path d="M45.6553 61.5821C44.5067 62.2454 43.6101 63.8059 43.614 65.1342C43.6186 66.6988 44.8832 67.4264 46.233 66.6466C47.3888 65.9788 48.291 64.4156 48.2871 63.0867C48.2837 61.5477 47.0416 60.7791 45.6553 61.5821ZM45.667 65.6659C45.3856 65.8279 45.1313 65.8743 44.9848 65.7892C44.8361 65.7041 44.7471 65.4575 44.746 65.1309C44.7433 64.2022 45.4188 63.0259 46.2214 62.5627C46.4149 62.451 46.5962 62.3924 46.7393 62.3924C46.809 62.3924 46.8698 62.4062 46.9184 62.4344C47.0655 62.519 47.1545 62.7644 47.155 63.09C47.1578 64.0192 46.4762 65.1988 45.667 65.6659Z" fill="white"/>
<path d="M47.7216 54.9958L43.614 57.3678C43.3431 57.5242 43.2502 57.8702 43.4067 58.1411C43.5635 58.4127 43.9106 58.504 44.18 58.3484L48.2876 55.9764C48.5585 55.82 48.6514 55.474 48.4949 55.2031C48.3379 54.9311 47.9903 54.8383 47.7216 54.9958Z" fill="white"/>
<path d="M47.7216 57.8719L43.614 60.2438C43.3431 60.4003 43.2502 60.7463 43.4067 61.0172C43.5635 61.2887 43.9106 61.3801 44.18 61.2244L48.2876 58.8525C48.5585 58.6961 48.6514 58.35 48.4949 58.0792C48.3379 57.8078 47.9903 57.7149 47.7216 57.8719Z" fill="white"/>
<path d="M70.1602 36.5189C70.1597 36.3166 70.0519 36.1303 69.8767 36.0297C69.7014 35.9285 69.4853 35.9296 69.3112 36.0297L51.4268 46.3549C51.251 46.4566 51.1432 46.644 51.1438 46.8469L51.1836 62.6926C51.1842 62.8944 51.2919 63.0806 51.4672 63.1812C51.6423 63.2821 51.8573 63.2823 52.0327 63.1812L69.9159 52.856C70.0917 52.7543 70.1995 52.5669 70.1989 52.3646L70.1602 36.5189ZM52.3135 61.712L52.2764 47.1713L69.0304 37.4989L69.0663 52.0396L52.3135 61.712Z" fill="white"/>
<path d="M54.6744 50.9689H54.6727C54.3604 50.9694 54.1078 51.2237 54.1083 51.5366L54.1161 54.5978C54.1166 54.9096 54.3704 55.1622 54.6821 55.1622C54.9701 55.1423 55.2487 54.9085 55.2482 54.5945L55.2404 51.5333C55.2399 51.2215 54.9861 50.9689 54.6744 50.9689Z" fill="white"/>
<path d="M67.4992 44.45L64.2257 42.5463C63.9554 42.3904 63.6088 42.4805 63.4518 42.7508C63.2943 43.0211 63.386 43.3677 63.6563 43.5247L66.9299 45.4284C67.2009 45.5857 67.547 45.4937 67.7037 45.2239C67.8613 44.9536 67.7695 44.607 67.4992 44.45Z" fill="white"/>
<path d="M67.6639 41.9902L66.1687 41.1207C65.8984 40.9643 65.5518 41.0544 65.3948 41.3252C65.2373 41.5955 65.329 41.9421 65.5993 42.0991L67.0946 42.9686C67.3656 43.1259 67.7117 43.0339 67.8685 42.7641C68.0254 42.4938 67.9342 42.1472 67.6639 41.9902Z" fill="white"/>
</svg>
