<svg width="93" height="92" viewBox="0 0 93 92" fill="none" xmlns="http://www.w3.org/2000/svg">
<rect x="0.5" width="92" height="92" rx="46" fill="black"/>
<path d="M43.3858 42.3387C43.1924 42.4514 43.0835 42.6676 43.1078 42.8903C43.4091 45.6089 43.5312 48.2489 43.4704 50.7364C43.4626 51.058 43.7231 51.3162 44.0365 51.3162C44.1348 51.3162 44.2332 51.2908 44.3211 51.2394L57.8906 43.3453C58.0404 43.2579 58.1421 43.107 58.1664 42.9357C58.5356 40.3266 58.6385 37.4947 58.471 34.5192C58.4599 34.3224 58.3477 34.1455 58.1747 34.0521C58.0011 33.9592 57.7911 33.962 57.6214 34.0615L43.3858 42.3387ZM57.083 42.5056L44.6169 49.7574C44.6279 47.6326 44.5124 45.4099 44.2725 43.1324L57.3842 35.5086C57.476 37.9696 57.3748 40.3183 57.083 42.5056Z" fill="white"/>
<path d="M23.1229 41.5449C21.9809 46.4811 21.9638 52.0276 23.0721 58.0296C23.1019 58.1927 23.202 58.3342 23.3457 58.4171L30.8761 62.7647C31.0338 62.8555 31.226 62.8659 31.3946 62.789C31.4039 62.7847 31.409 62.7752 31.418 62.7705C31.4262 62.7663 31.4358 62.7682 31.4438 62.7636C32.9359 61.8967 26.0483 65.898 45.9951 54.3102L45.9903 59.2662C44.8131 59.5308 43.723 59.9315 42.8253 60.4513C41.0286 61.4937 40.0396 62.9096 40.0233 64.4389C40.0221 64.4539 40.0145 64.4668 40.0145 64.4821C40.0145 64.4888 40.0145 64.4948 40.0145 64.5009V67.5555C40.0106 69.1199 41.0189 70.5654 42.8546 71.6256C44.6329 72.6521 46.9634 73.1651 49.2922 73.1651C51.621 73.1651 53.9471 72.6515 55.7149 71.6245C57.5246 70.5726 58.524 69.1414 58.5285 67.5931V64.5192C58.5285 64.5106 58.5239 64.5035 58.5236 64.495C58.5197 62.9671 57.4931 61.4965 55.6872 60.4513C54.764 59.9164 53.7065 59.5276 52.5508 59.2754V50.4989C76.1438 36.7859 68.0003 41.5192 69.7669 40.4924C69.9084 40.41 70.0073 40.2707 70.0383 40.1099C70.9658 35.2637 70.9824 29.7316 70.088 23.6666C70.0719 23.5592 69.9355 23.3307 69.8111 23.2587L62.2807 18.9111C62.1049 18.8094 61.8877 18.8094 61.713 18.9122L57.0537 21.6202C56.7834 21.7772 56.6916 22.1238 56.8491 22.3941C57.0061 22.6633 57.3522 22.7556 57.623 22.5986L61.9988 20.0553L68.3987 23.7506C23.6988 49.7273 86.3136 13.3363 31.2042 45.3659L24.804 41.6709L50.615 26.6715C50.8847 26.5145 50.9771 26.1679 50.8195 25.8981C50.662 25.6267 50.3154 25.5355 50.0456 25.6931L23.3899 41.1834C23.3171 41.2258 23.1515 41.4233 23.1229 41.5449ZM60.2824 44.6946C36.4598 58.5394 54.8472 47.8535 40.6191 56.1221C41.2325 52.1693 41.3735 47.3946 40.517 41.2663C42.5882 40.0623 33.0895 45.5838 60.3954 29.7111C61.0523 34.6249 61.1732 39.7797 60.2824 44.6946ZM24.0626 42.5504L30.68 46.3708C31.3937 51.3475 31.5613 56.4575 30.7337 61.3754L24.1384 57.5675C23.1605 52.1205 23.1351 47.0742 24.0626 42.5504ZM31.8197 46.3175L39.4435 41.887C40.2877 48.2607 40.0563 52.912 39.3412 56.8648L31.9247 61.1749C32.6749 56.3969 32.5009 51.1237 31.8197 46.3175ZM57.3964 67.5915C57.3931 68.7197 56.5938 69.8042 55.1461 70.6461C51.9245 72.5167 46.6643 72.5178 43.4207 70.645C41.9514 69.7965 41.1438 68.7003 41.1466 67.5572V67.2089C41.9055 68.0472 42.8187 68.5724 43.8439 69.0181C45.4594 69.7243 47.3684 70.0983 49.2944 70.0983C51.3891 70.0983 53.4598 69.657 55.1432 68.8217C55.8201 68.4878 56.6428 68.0644 57.3946 67.2261C57.3951 67.2255 57.3958 67.225 57.3964 67.2244V67.5915ZM55.1201 61.4308C56.5816 62.2768 57.4097 63.4068 57.3951 64.5321C57.3818 66.0326 56.0502 67.1059 54.6558 67.8043C51.6639 69.2936 47.2843 69.337 44.1911 67.9343C42.6846 67.2466 41.1504 66.1633 41.1504 64.502C41.1405 63.3661 41.937 62.2755 43.393 61.4308C44.1299 61.0041 45.016 60.6592 45.985 60.4204V64.722C45.985 65.3422 46.3813 65.9254 47.069 66.3201C48.3151 67.0489 50.2519 67.0454 51.474 66.3223C52.1683 65.9237 52.5508 65.3594 52.5508 64.7336V60.4264C53.4988 60.6547 54.3606 60.9914 55.1201 61.4308ZM51.4187 51.1581V59.7299V64.7336C51.4187 64.9337 51.2335 65.1548 50.9035 65.3444C50.0246 65.8635 48.5299 65.8635 47.6367 65.3406C47.4179 65.215 47.1171 64.975 47.1171 64.722L47.1276 53.6519C47.2442 53.5841 51.7019 50.9936 51.4187 51.1581ZM68.9736 39.6439L61.5199 43.9756C62.2891 39.0614 62.1535 34.0611 61.4499 29.0982L69.0853 24.661C69.8266 30.17 69.7895 35.2057 68.9736 39.6439Z" fill="white"/>
<path d="M55.0079 22.8087L52.8261 24.0768C52.5558 24.2337 52.464 24.5803 52.6216 24.8506C52.7266 25.0314 52.9162 25.132 53.1113 25.132C53.208 25.132 53.3059 25.1071 53.3954 25.0552L55.5772 23.7871C55.8475 23.6301 55.9393 23.2835 55.7818 23.0132C55.6237 22.7429 55.2771 22.65 55.0079 22.8087Z" fill="white"/>
</svg>
