<svg width="93" height="92" viewBox="0 0 93 92" fill="none" xmlns="http://www.w3.org/2000/svg">
<rect x="0.5" width="92" height="92" rx="46" fill="black"/>
<path d="M22.9161 52.9277C22.894 53.392 22.8835 53.853 22.8851 54.3102C22.8989 60.2281 24.9387 64.6641 28.6268 66.8C28.7431 66.8678 37.3932 71.9017 37.2743 71.8325L37.2754 71.833C37.2788 71.8349 37.2827 71.834 37.2861 71.8359C37.2942 71.8406 37.301 71.8471 37.3091 71.8518C41.6133 74.3285 46.8269 73.032 51.1621 70.529C61.6471 64.4756 70.1493 49.7526 70.115 37.7093C70.0984 31.7654 68.0443 27.315 64.3314 25.1786C64.3029 25.1622 64.2713 25.153 64.2427 25.1369L55.7131 20.1727C49.7267 16.6867 41.9661 20.4996 36.7807 25.1614C30.9959 30.3227 26.2648 37.999 24.1255 45.6963C24.0421 45.9976 24.2184 46.3094 24.5197 46.3934C24.8215 46.4741 25.1327 46.3005 25.2167 45.9992C27.3001 38.5031 31.9047 31.0285 37.5363 26.005C42.2972 21.7239 49.6352 17.9421 55.1432 21.1511L59.813 23.8685C59.7884 23.8671 59.7628 23.8689 59.7382 23.8677C48.1368 23.2949 36.1279 38.201 32.6757 51.1934C31.9408 53.9563 31.5224 56.7102 31.5299 59.3365C31.5382 62.4435 32.1643 65.9059 33.8637 68.5379L29.195 65.8211C25.869 63.8947 24.0299 59.8058 24.0172 54.3068C24.0155 53.8685 24.026 53.4263 24.047 52.9807C24.062 52.669 23.8204 52.4037 23.5081 52.3887C23.2157 52.3832 22.931 52.6148 22.9161 52.9277ZM68.9829 37.7127C69.0161 49.3944 60.7676 63.6758 50.5961 69.5484C45.7616 72.3399 41.2443 72.8092 37.8735 70.8706C34.0139 68.6493 32.6751 63.8183 32.6647 59.3393C32.6556 56.7638 33.0687 54.0616 33.7957 51.3512C38.3762 34.2928 54.4937 20.7836 63.778 26.1763L63.7907 26.1835C63.7972 26.1872 63.8046 26.187 63.8111 26.1904C67.1292 28.1286 68.9675 32.2151 68.9829 37.7127Z" fill="white"/>
<path d="M23.722 50.9576C24.0006 50.9576 24.2433 50.752 24.2825 50.4684C24.3787 49.7631 24.5048 49.034 24.6568 48.3021C24.7198 47.9959 24.5236 47.6963 24.2173 47.6327C23.9083 47.568 23.612 47.7654 23.5479 48.0722C23.3909 48.8294 23.2605 49.584 23.1604 50.3147C23.1184 50.6243 23.3351 50.9101 23.6446 50.9526C23.6706 50.956 23.6966 50.9576 23.722 50.9576Z" fill="white"/>
<path d="M51.4435 32.2502C43.4554 36.8619 36.9775 48.0876 37.0034 57.2747C37.0284 66.133 42.9336 68.9726 50.1942 64.7808C58.1873 60.1651 64.668 48.945 64.6409 39.769C64.6161 30.9528 58.7558 28.0277 51.4435 32.2502ZM49.6282 63.8001C42.8905 67.6892 38.1567 64.9103 38.1355 57.2714C38.1106 48.4458 44.3343 37.6612 52.0095 33.2308C58.748 29.3385 63.4876 32.1182 63.5088 39.7723C63.5348 48.5868 57.3078 59.3653 49.6282 63.8001Z" fill="white"/>
<path d="M59.0518 43.0684L51.0786 40.8297C50.7109 40.7294 50.3583 41.005 50.3595 41.3764L50.3722 45.9539L44.8799 44.4084C44.5152 44.3074 44.1595 44.5825 44.1607 44.9551L44.2 58.629C44.2007 58.9395 44.4531 59.1933 44.766 59.1933C44.9479 59.1933 45.1236 59.1054 45.2314 58.9496L50.3882 51.512L50.3982 55.0503C50.3987 55.2974 50.5601 55.5158 50.7962 55.5893C51.0317 55.6633 51.2881 55.5743 51.4291 55.3715L59.3636 43.9363C59.4681 43.7859 59.4935 43.5941 59.4316 43.4217C59.3697 43.2498 59.2282 43.1182 59.0518 43.0684ZM51.5253 53.2472L51.5153 49.7078C51.5148 49.4607 51.3534 49.2423 51.1173 49.1688C50.8813 49.0953 50.6248 49.1838 50.4839 49.3872L45.3271 56.8247L45.295 45.7013L50.7873 47.2468C51.1542 47.3472 51.5076 47.0716 51.5065 46.7002L51.4938 42.1221L57.9805 43.9435L51.5253 53.2472Z" fill="white"/>
</svg>
