<svg width="93" height="92" viewBox="0 0 93 92" fill="none" xmlns="http://www.w3.org/2000/svg">
<rect x="0.5" width="92" height="92" rx="46" fill="black"/>
<path d="M52.9884 22.3893L51.4174 23.2969C51.1466 23.4528 51.0537 23.7989 51.2107 24.0697C51.3675 24.3403 51.7131 24.4333 51.9835 24.2764L53.5545 23.3688C53.8253 23.2129 53.9182 22.8669 53.7612 22.596C53.6031 22.3252 53.2582 22.2312 52.9884 22.3893Z" fill="white"/>
<path d="M68.3212 23.9868C68.2048 23.919 59.0083 18.5659 59.594 18.9068C59.4183 18.804 59.2016 18.8051 59.0258 18.9046L54.3737 21.5878C54.1028 21.7448 54.0099 22.0908 54.1658 22.3616C54.3217 22.6314 54.6666 22.722 54.9397 22.5695L59.3077 20.05L64.166 22.8786L37.5241 38.2611L37.5053 33.1705C37.5043 33.0138 37.4066 32.8316 37.3185 32.7526L50.4788 25.1498C50.7497 24.9939 50.8426 24.6479 50.6856 24.377C50.5308 24.1062 50.1826 24.0122 49.9128 24.1703L36.2022 32.0899L31.2269 29.1983C31.0534 29.0977 30.8356 29.0966 30.6598 29.1983L24.6257 32.6819C24.4922 32.7583 24.4162 32.8911 24.3788 33.0363C24.3672 33.0816 24.3427 33.1226 24.3427 33.1705C24.3427 33.1709 24.343 33.1712 24.343 33.1716C24.343 33.1721 24.3427 33.1723 24.3427 33.1727L24.4444 69.1228C24.4455 69.324 24.5517 69.5097 24.7263 69.6114C24.8409 69.678 30.8356 73.1609 30.721 73.0943C30.7207 73.0942 30.7213 73.0944 30.721 73.0943C30.9025 73.1977 31.1176 73.1923 31.2866 73.0939L37.3207 69.6103C37.4965 69.5097 37.6048 69.3218 37.6037 69.1195L37.5937 65.6276L49.1872 58.9342C52.7888 61.0149 44.5039 56.2284 53.728 61.5575C53.909 61.6594 54.1221 61.6566 54.2941 61.5564L63.4756 56.2587C63.6514 56.1581 63.7586 55.9701 63.7586 55.7678L63.7471 50.5282L65.6535 49.4275C65.7397 49.3778 65.8116 49.3059 65.8614 49.2197L68.5821 44.4791C68.6318 44.3929 68.6573 44.2945 68.6573 44.1961L68.602 24.4743C68.6009 24.2731 68.4948 24.0874 68.3212 23.9868ZM30.9417 30.3426L35.8058 33.1693C35.6925 33.2347 30.5765 36.1881 30.903 35.9996L26.0386 33.1727L30.9417 30.3426ZM25.5754 68.7955L25.4781 34.1573L30.3368 36.9806C30.3596 45.0917 30.4105 63.1782 30.4343 71.6191L25.5754 68.7955ZM31.5669 71.6254C31.558 68.4653 31.4823 41.6747 31.469 36.9802L36.3721 34.1489C36.3718 34.0356 36.3756 36.2812 36.4705 68.7944L31.5669 71.6254ZM50.3207 58.2818L53.4359 56.4821C53.4362 56.6219 53.4432 60.3098 53.4428 60.085L50.3207 58.2818ZM62.6254 55.4428L54.5752 60.087C54.5749 59.9708 54.5667 55.5922 54.5671 55.8353C54.6815 55.7692 63.1545 50.8698 62.6166 51.1809L62.6254 55.4428ZM64.9559 48.5243C61.627 50.4462 46.0557 59.4356 37.5899 64.3231L37.5192 39.5722L65.2982 23.5352L67.471 24.8016L67.5252 44.0469L64.9559 48.5243Z" fill="white"/>
<path d="M58.0706 31.6327C54.0111 33.9654 50.7199 39.6446 50.732 44.2934C50.7456 49.1433 54.3286 51.3141 58.6809 48.8117C62.7404 46.4791 66.0316 40.7999 66.0195 36.1511C66.0057 31.2347 62.3615 29.1661 58.0706 31.6327ZM58.1171 47.83C54.5883 49.8624 51.8756 48.3331 51.8641 44.2901C51.8519 40.0039 54.89 34.7669 58.6344 32.6144C62.1428 30.5957 64.8758 32.087 64.8874 36.1544C64.8996 40.4406 61.8615 45.6775 58.1171 47.83Z" fill="white"/>
<path d="M62.8145 36.4938C62.3689 36.9957 61.8118 37.4412 61.1562 37.8171C60.9519 37.9347 60.728 38.0221 60.5118 38.1226C60.4444 37.9982 60.3645 37.8874 60.2717 37.7896C60.9882 35.8571 61.0091 34.5566 60.9771 34.0693C60.9516 33.7189 60.7007 33.4491 60.3535 33.4126C59.1905 33.3076 58.1347 33.7918 57.6107 34.087L57.6063 34.0903C57.1783 34.3364 56.9587 34.9507 57.2215 35.3595C57.5261 35.8458 57.6239 36.8423 57.5085 38.0954C57.2473 38.3299 57.0108 38.6057 56.7991 38.9169C55.5517 38.8118 54.5011 39.2757 53.9602 39.586L53.958 39.5871L53.8496 39.6523C53.675 39.7529 53.5246 39.9298 53.4362 40.1399C52.7817 41.7131 52.6512 42.9258 52.6302 43.5107C52.6225 43.7871 52.7485 44.0303 52.9663 44.1607C53.1911 44.2951 53.4688 44.2824 53.6926 44.1519C53.7866 44.0999 53.8706 44.0292 53.9359 43.9518C54.3825 43.451 54.9386 43.0076 55.5909 42.634C55.8185 42.503 56.035 42.3948 56.2313 42.304C56.3006 42.4359 56.3833 42.5537 56.4808 42.6566C55.7577 44.6023 55.7425 45.8953 55.7777 46.3818C55.8075 46.7411 56.0684 47.0086 56.4001 47.0318C57.3665 47.1163 58.3138 46.8268 59.1474 46.3541C59.5668 46.1144 59.7937 45.5127 59.5299 45.0861C59.2254 44.601 59.1276 43.605 59.2429 42.3517C59.5067 42.1153 59.7453 41.8369 59.9582 41.5224C60.0735 41.532 60.1921 41.5527 60.3038 41.5527C61.4524 41.5527 62.3977 41.0906 62.7957 40.8607L62.9217 40.7844C63.0964 40.6749 63.2379 40.5036 63.3186 40.3046C63.9698 38.7347 64.1002 37.5208 64.1212 36.9426C64.1323 36.6651 64.0096 36.4208 63.7918 36.2882C63.4672 36.0882 63.0638 36.2094 62.8145 36.4938ZM59.6338 39.1769C59.6349 39.6214 59.4735 40.1598 59.1916 40.6517C58.9345 41.1026 58.5477 41.5585 58.0993 41.8181C57.4758 42.1776 57.1209 41.9821 57.1209 41.2697C57.1187 40.8264 57.279 40.2891 57.5609 39.796C57.7898 39.3936 58.0894 39.0387 58.4034 38.7955C59.0487 38.3005 59.6338 38.3293 59.6338 39.1769ZM59.8516 34.5348C59.8328 35.0654 59.719 36.0184 59.2436 37.3229C59.0501 37.3086 58.8787 37.3395 58.6897 37.3915C58.7096 36.5568 58.6289 35.6657 58.3105 34.9958C58.6731 34.8067 59.2358 34.5724 59.8516 34.5348ZM55.027 41.6522C54.6169 41.8877 54.2366 42.1486 53.8972 42.4283C53.9945 41.9264 54.157 41.3151 54.4267 40.6263L54.5251 40.5666C54.8081 40.4041 55.4416 40.0923 56.2111 40.0359C56.1138 40.316 55.999 40.8679 55.99 41.1702C55.6605 41.3117 55.3377 41.4731 55.027 41.6522ZM56.9009 45.9086C56.9175 45.3835 57.0292 44.4349 57.509 43.1226C58.1311 43.0462 58.0544 43.0549 58.0606 43.0541C58.0407 43.8921 58.1214 44.7842 58.4398 45.4498C58.0783 45.6388 57.5189 45.871 56.9009 45.9086ZM62.2285 39.8801C61.9477 40.0426 61.3132 40.3566 60.5415 40.4118C60.553 40.3788 60.5578 40.3462 60.5685 40.3132C60.6941 39.9251 60.7577 39.4901 60.7648 39.2775C61.0931 39.1349 61.4138 38.9746 61.72 38.7988C62.1257 38.5656 62.5005 38.3091 62.8421 38.0294C62.7327 38.5379 62.5458 39.1637 62.2285 39.8801Z" fill="white"/>
<path d="M49.1025 42.3078C49.3733 42.152 49.4662 41.8059 49.3092 41.5351C49.1544 41.2642 48.8073 41.1702 48.5364 41.3283L47.9004 41.6954L47.8985 41.0343C47.8974 40.8319 47.7902 40.6451 47.6144 40.5445C47.4397 40.445 47.2241 40.4439 47.0495 40.5456L46.7931 40.6936L46.7908 39.7806C46.7897 39.4677 46.5365 39.2156 46.2247 39.2156C45.9119 39.2167 45.6576 39.471 45.6587 39.7828L45.6627 41.3462L44.7689 41.8621L44.7665 40.9502C44.7654 40.6374 44.5122 40.3853 44.2005 40.3853C43.8876 40.3864 43.6333 40.6407 43.6344 40.9524L43.6385 42.5146L42.7441 43.0309L42.7412 42.1177C42.7401 41.8059 42.4869 41.5539 42.1751 41.5539C41.8899 41.5583 41.608 41.8081 41.6091 42.1221L41.6141 43.6832L40.76 44.1762C40.5843 44.2768 40.4759 44.4648 40.477 44.6671L40.4807 45.9764L39.3051 46.6548C39.0343 46.8107 38.9414 47.1567 39.0984 47.4276C39.2537 47.6985 39.601 47.7911 39.8712 47.6343L40.4845 47.2804L40.4883 48.6377L39.3051 49.3214C39.0343 49.4773 38.9414 49.8233 39.0984 50.0942C39.2568 50.3676 39.606 50.4567 39.8712 50.3009L40.492 49.9422L40.4959 51.2997L39.3051 51.9869C39.0343 52.1427 38.9414 52.4888 39.0984 52.7596C39.2537 53.0305 39.601 53.1232 39.8712 52.9664L40.4996 52.6037L40.5035 53.9607L39.3051 54.6523C39.0343 54.8082 38.9414 55.1542 39.0984 55.4251C39.2537 55.696 39.601 55.7886 39.8712 55.6318L40.5072 55.2648L40.5091 55.9259C40.5102 56.1282 40.6174 56.3151 40.7932 56.4157C40.9747 56.5191 41.1891 56.513 41.3581 56.4146L41.6149 56.2663L41.6168 57.0281C41.6179 57.341 41.8711 57.5931 42.1829 57.5931C42.4957 57.592 42.75 57.3377 42.7489 57.0259L42.7453 55.6138L43.6391 55.0979L43.6411 55.8596C43.6422 56.1724 43.8954 56.4245 44.2071 56.4245C44.52 56.4234 44.7743 56.1691 44.7732 55.8574L44.7696 54.4453L45.664 53.929L45.6664 54.691C45.6675 55.0028 45.9207 55.2548 46.2325 55.2548C46.2336 55.2548 46.2336 55.2548 46.2347 55.2548C46.5464 55.2537 46.7996 54.9995 46.7985 54.6866L46.794 53.2767L47.6476 52.784C47.8233 52.6834 47.9317 52.4954 47.9306 52.2931L47.9269 50.9827L49.1025 50.3042C49.3733 50.1483 49.4662 49.8023 49.3092 49.5315C49.1544 49.2606 48.8073 49.1666 48.5364 49.3247L47.9231 49.6786L47.9193 48.3216L49.1025 47.6388C49.3733 47.4829 49.4662 47.1368 49.3092 46.866C49.1544 46.5962 48.8073 46.5012 48.5364 46.6593L47.9156 47.0175L47.9117 45.6605L49.1025 44.9733C49.3733 44.8174 49.4662 44.4714 49.3092 44.2005C49.1544 43.9297 48.8073 43.8357 48.5364 43.9938L47.908 44.3565L47.9041 42.9994L49.1025 42.3078ZM41.6378 54.9464C41.6094 44.6858 41.6708 66.6329 41.6102 44.9921L46.7698 42.0138C46.7769 44.6006 46.7917 49.8995 46.7974 51.9681L41.6378 54.9464Z" fill="white"/>
</svg>
