<svg width="93" height="92" viewBox="0 0 93 92" fill="none" xmlns="http://www.w3.org/2000/svg">
<rect x="0.5" width="92" height="92" rx="46" fill="black"/>
<path d="M34.5445 48.3404C34.5153 48.5469 34.5274 50.3712 34.4943 55.2882C34.4883 57.2815 35.7895 59.1316 38.1576 60.4986C38.3628 60.6171 38.58 60.7239 38.796 60.8318V61.8032C38.796 61.8361 38.8029 61.8682 38.8039 61.9011L38.796 65.4824C38.796 66.5322 39.3406 67.5138 40.3355 68.321V69.3424C40.3355 70.4269 41.0231 71.4214 42.2713 72.1422C43.4642 72.8309 44.9909 73.1753 46.5144 73.1753C48.0378 73.1753 49.559 72.8309 50.7397 72.1416C51.9658 71.4324 52.6413 70.4502 52.6413 69.3767V68.3497C53.6357 67.5474 54.1807 66.5709 54.1807 65.5288L54.1915 60.8537C54.4219 60.7391 54.6521 60.6242 54.87 60.4975C57.1867 59.151 58.4658 57.3268 58.4708 55.3628L58.5056 48.504C58.5056 48.5002 58.5056 48.4969 58.5056 48.493V48.4902C58.5057 48.4735 58.4977 48.4584 58.4963 48.442C58.4866 46.9499 57.721 45.5005 56.3051 44.3011L56.2741 27.659C56.2614 25.5115 55.3924 23.7808 53.8905 22.9113C52.7491 22.2505 51.357 22.1636 49.9323 22.6314C49.6169 21.2019 48.8729 20.059 47.741 19.4045C46.2308 18.5267 44.29 18.6505 42.4194 19.7422C39.2139 21.5824 36.7121 25.9117 36.7242 29.5965L36.7591 44.2559C35.3487 45.4367 34.5759 46.8645 34.5445 48.3404ZM39.9375 61.3417C41.9324 62.1152 44.3792 62.5195 46.494 62.5222C48.5743 62.5262 51.0521 62.1312 53.0487 61.3623V61.8485C53.0487 62.7296 52.413 63.5853 51.2588 64.2564C48.6458 65.7715 44.3851 65.771 41.7611 64.2558C40.5995 63.5865 39.9581 62.7335 39.9363 61.8489L39.9375 61.3417ZM51.5092 69.3767C51.5092 70.0196 51.0222 70.6707 50.1709 71.1632C48.1605 72.3351 44.871 72.3357 42.8373 71.1616C41.954 70.6514 41.4676 70.0052 41.4676 69.3424V69.0649C42.2198 69.4586 43.6882 69.9544 45.1098 70.1094C47.1884 70.3363 49.6838 70.0309 51.5092 69.0887V69.3767ZM51.2588 67.9356C46.9485 70.4346 39.9281 68.5035 39.9281 65.4835L39.9308 64.278C41.5571 65.8978 44.2378 66.5078 46.5149 66.5078C48.4402 66.5078 50.3644 66.0838 51.8276 65.2353C52.3084 64.9555 52.7124 64.6407 53.0514 64.3038L53.0487 65.5277C53.0487 66.4089 52.413 67.2645 51.2588 67.9356ZM57.3387 55.3584C57.3285 59.4598 50.6474 61.3809 46.4939 61.375C43.4853 61.3691 40.5117 60.5504 38.7236 59.518C36.722 58.3627 35.622 56.8619 35.6264 55.2926L35.6458 51.4923C36.2588 52.2822 37.115 53.0042 38.1918 53.626C42.8136 56.2942 50.3108 56.2953 54.9038 53.6249C55.9805 52.9999 56.8385 52.233 57.3581 51.5758L57.3387 55.3584ZM47.4506 43.5413L47.4248 32.7611C47.4246 32.7294 47.4326 32.6943 47.4333 32.6622C47.4591 31.408 48.138 29.9155 48.9216 28.8747C48.9499 28.8371 48.9807 28.8035 49.0096 28.7666C49.0164 33.7324 49.0126 30.937 49.0295 43.1692C49.0295 43.4845 48.0288 43.6617 47.4506 43.5413ZM41.2752 29.2527C41.2647 27.3749 42.7544 24.7929 44.3972 23.8377C44.9124 23.5426 45.259 23.5155 45.3408 23.5547C45.385 23.5824 45.5669 23.8388 45.5769 24.49V25.934C43.9413 28.0192 42.8636 30.6935 42.8716 33.1049L42.8926 41.6175C42.3397 41.7193 41.8115 41.8434 41.305 41.9874L41.2752 29.2527ZM50.1398 27.6366C50.2756 27.5347 50.4108 27.4279 50.5496 27.3478C51.125 27.0178 51.4401 27.0421 51.4959 27.0698C51.5407 27.1018 51.7104 27.3556 51.7215 28.0023L51.7476 42.0179C51.2293 41.8682 50.7006 41.7415 50.1595 41.6408L50.1398 27.6366ZM53.3234 23.8908C54.4687 24.5541 55.1315 25.93 55.142 27.6635C55.1489 31.4262 55.1746 44.859 55.1746 46.6825C55.1263 47.2908 52.89 47.1334 52.89 46.6766C52.84 21.0709 52.8573 29.9023 52.8535 27.9918C52.837 27.0394 52.5512 26.3611 52.062 26.0897C51.5556 25.7896 50.8188 25.8874 49.9847 26.3667C47.8745 27.5843 46.2774 30.6491 46.2899 32.7661C46.2958 35.6435 46.2786 27.2078 46.3127 43.9628C46.3127 43.9626 46.3127 43.9629 46.3127 43.9628L46.3347 52.0357C46.3137 52.1493 46.3631 52.2145 46.1081 52.3558C45.62 52.6382 44.7543 52.6382 44.2607 52.3569C44.1457 52.2896 44.0507 52.2023 44.0507 52.0849L44.0037 33.1016C43.9855 27.6476 49.7174 21.804 53.3234 23.8908ZM42.9866 20.7218C45.8371 19.0579 48.3932 20.2392 48.8979 23.071C48.0582 23.5175 47.123 24.258 46.7089 24.6536V24.4812C46.694 23.5387 46.4082 22.8604 45.9107 22.5763C45.4154 22.2822 44.6587 22.3845 43.8318 22.8571C41.8197 24.0273 40.1304 26.9587 40.1431 29.2571L40.1884 48.5234C40.1807 48.5599 40.1768 48.598 40.1768 48.6367C40.1768 48.8936 38.9392 49.3233 38.1249 48.8534C37.9718 48.7611 37.9016 48.6765 37.9016 48.5787V48.5758L37.8563 29.5937C37.8452 26.2766 40.0972 22.3806 42.9866 20.7218ZM39.0402 50.1961C39.0401 50.1961 39.0403 50.1961 39.0402 50.1961C40.009 50.1961 41.1722 49.7484 41.2984 48.7931C41.3133 48.7423 41.3205 48.6892 41.3205 48.6356L41.3095 43.1499C41.8097 42.9957 42.3398 42.8641 42.8954 42.7558L42.9164 52.1463C42.9164 52.5165 43.116 52.9843 43.6902 53.3408C44.547 53.8261 45.83 53.825 46.6713 53.3408C47.2093 53.0352 47.4712 52.5221 47.4712 52.144L47.4534 44.6969C48.6188 44.8463 50.1615 44.3527 50.1615 43.1692C50.1615 43.0559 50.1615 42.6667 50.1615 42.7801C50.7033 42.8884 51.2339 43.0233 51.748 43.1836C51.7483 43.2999 51.7568 46.9058 51.7563 46.681C51.7563 48.2405 54.5308 48.6934 55.7617 47.7067C56.1444 47.4028 56.3089 47.0147 56.3089 46.6782C56.3089 46.5222 56.3088 45.7649 56.3089 45.8789C57.042 46.7329 57.4033 47.674 57.3631 48.6122C57.2907 50.3741 55.8691 51.7513 54.3377 52.6421C50.0659 55.1323 43.0778 55.1318 38.7606 52.6404C37.2202 51.7547 35.7646 50.3671 35.676 48.5934C35.6303 47.6375 36.0038 46.6801 36.7618 45.8154L36.7696 48.6367C36.7696 49.6679 38.0004 50.1961 39.0402 50.1961Z" fill="white"/>
</svg>
