<svg width="93" height="92" viewBox="0 0 93 92" fill="none" xmlns="http://www.w3.org/2000/svg">
<rect x="0.5" width="92" height="92" rx="46" fill="black"/>
<path d="M30.4913 49.0185C30.8041 49.0174 31.0584 48.7637 31.0573 48.4508L31.0197 34.8797C31.0109 33.5796 31.9417 31.934 33.0716 31.2221C33.1853 31.1848 32.2905 31.6822 52.1267 20.2214C52.601 19.9488 53.0178 19.8869 53.2743 20.034L56.8872 22.3949C56.6007 22.5309 51.5061 25.4833 37.6441 33.4829C36.1169 34.3722 34.9345 36.5011 34.9345 38.182L35.024 70.8834C35.024 70.8972 35.024 70.9116 35.0251 70.9249L31.5415 68.6618C31.2629 68.4965 31.1093 68.1124 31.1093 67.5778L31.0805 57.1515C31.0794 56.8397 30.8263 56.5871 30.5145 56.5871C30.2016 56.5882 29.9473 56.8419 29.9485 57.1548L29.9772 67.5795C29.9772 68.5286 30.3277 69.2588 30.9445 69.6236C31.0584 69.6977 35.9152 72.8662 36.0289 72.9314C36.7552 73.3493 37.6016 73.1763 38.3251 72.7589L60.4061 60.0104C61.9285 59.1309 63.118 57.0674 63.1125 55.3129L63.0838 45.2365C63.0816 44.7384 62.8505 44.3382 62.4647 44.1658L61.3978 43.6251L61.3934 42.0199C61.3923 41.6844 61.6587 41.2256 61.9506 41.0564C62.5896 40.6872 63.0694 39.8519 63.0661 39.114L63.0606 37.0477C63.0606 36.5978 62.8737 36.2246 62.5288 36.0129L59.9341 34.4806L59.9053 24.4125C59.9032 23.484 59.5621 22.7756 58.9547 22.3985C57.4519 21.4153 53.6207 18.9089 53.8669 19.0699C53.2212 18.6974 52.4031 18.7576 51.5618 19.2402L32.7134 30.1353C32.6736 30.1475 32.636 30.1641 32.5995 30.1851C31.0673 31.0706 29.8766 33.1358 29.8876 34.8853L29.9252 48.4542C29.9263 48.7659 30.1795 49.0185 30.4913 49.0185ZM59.3404 35.5138L61.9285 37.0494L61.934 39.1178C61.9351 39.4467 61.6687 39.9122 61.3846 40.0763C60.7422 40.4473 60.2602 41.2836 60.2613 42.0227L60.2657 43.629C60.268 44.1276 60.499 44.5278 60.8848 44.7003L61.9517 45.2403L61.9804 55.3163C61.9838 56.6567 61.0042 58.3576 59.8401 59.0298L37.7591 71.7783C36.7602 72.3524 36.1638 71.9254 36.1616 70.8729L36.0698 38.1743C36.0663 36.7608 37.1456 35.0823 38.2157 34.4646C40.1563 33.3447 31.1878 38.5206 57.1857 23.5164C58.0912 22.9866 58.7708 23.2588 58.7733 24.4158L58.802 34.4845C58.8042 34.9616 59.0065 35.3402 59.3404 35.5138Z" fill="white"/>
<path d="M30.5068 54.5092C30.8196 54.5081 31.0728 54.2544 31.0717 53.9415L31.0651 51.5215C31.064 51.2097 30.8108 50.9571 30.499 50.9571C30.1862 50.9582 29.9319 51.2119 29.933 51.5248L29.9396 53.9448C29.9407 54.2566 30.195 54.5092 30.5068 54.5092Z" fill="white"/>
<path d="M58.1729 45.5272L39.3831 56.3754C38.6092 56.8226 38.0045 57.8673 38.0056 58.7539V67.2334C38.0103 68.3646 38.9683 68.9176 39.9569 68.35L58.7467 57.5014C59.5338 57.0464 60.1264 56.0205 60.1231 55.1162V46.6372C60.1208 45.5121 59.1573 44.9586 58.1729 45.5272ZM58.991 46.6383V55.1178C58.9921 55.6153 58.614 56.2709 58.1807 56.5207L39.3909 67.3694C39.2637 67.4429 39.1863 67.4474 39.183 67.4518C39.172 67.4391 39.1377 67.3722 39.1377 67.2318V58.7528C39.1366 58.2587 39.5158 57.6058 39.9492 57.356L58.739 46.5078C58.8672 46.4338 58.9446 46.4294 58.9479 46.4249C58.959 46.4371 58.991 46.5023 58.991 46.6383Z" fill="white"/>
<path d="M40.3925 45.5549L42.4223 44.3824C42.9165 44.0967 43.2747 43.477 43.2724 42.9093L43.2592 36.4668C43.2569 35.6605 42.5284 35.2459 41.8397 35.6459L39.8099 36.8178C39.3235 37.098 38.9575 37.7348 38.9597 38.2981L38.973 44.7412C38.9753 45.5254 39.6882 45.9595 40.3925 45.5549ZM40.3759 37.7984L42.1282 36.7868L42.1404 42.9121C42.1404 43.0735 41.9978 43.3211 41.8562 43.4024L40.104 44.4128L40.0918 38.2953C40.0918 38.1334 40.2366 37.878 40.3759 37.7984Z" fill="white"/>
<path d="M47.2259 41.6097L49.2557 40.4379C49.7498 40.1526 50.108 39.533 50.1058 38.9647L50.0915 32.5216C50.0904 32.1391 49.9256 31.8251 49.6393 31.6599C49.353 31.4957 49.0003 31.5112 48.6719 31.7008L46.6422 32.8726C46.1557 33.1529 45.7898 33.7897 45.792 34.353L45.8064 40.7961C45.8087 41.5854 46.525 42.0124 47.2259 41.6097ZM47.2082 33.8532L48.9605 32.8417L48.9738 38.9675C48.9738 39.1289 48.8311 39.376 48.6896 39.4572L46.9373 40.4677L46.9241 34.3502C46.9241 34.1915 47.0722 33.9317 47.2082 33.8532Z" fill="white"/>
<path d="M54.0582 37.6652L56.0879 36.4927C56.5821 36.207 56.9403 35.5873 56.9381 35.0196L56.9248 28.5765C56.9237 28.1934 56.759 27.8795 56.4727 27.7147C56.1852 27.5506 55.8337 27.5655 55.5053 27.7562L53.4755 28.9281C52.9891 29.2083 52.6232 29.8451 52.6254 30.4084L52.6386 36.8509C52.641 37.6431 53.3628 38.0672 54.0582 37.6652ZM54.0416 29.9087L55.7939 28.8971L55.806 35.0224C55.806 35.1838 55.6634 35.4314 55.5219 35.5127L53.7696 36.5231L53.7575 30.4056C53.7575 30.2437 53.9023 29.9883 54.0416 29.9087Z" fill="white"/>
</svg>
