<svg width="93" height="92" viewBox="0 0 93 92" fill="none" xmlns="http://www.w3.org/2000/svg">
<rect x="0.5" width="92" height="92" rx="46" fill="black"/>
<path d="M60.4268 45.859C60.1106 45.8297 59.8387 46.0564 59.8088 46.3676C59.7552 46.9192 59.6706 47.4853 59.5579 48.0513C59.4965 48.3575 59.6955 48.6555 60.0023 48.7169C60.0393 48.7246 60.0769 48.7279 60.1134 48.7279C60.3776 48.7279 60.6142 48.5416 60.6678 48.2724C60.7883 47.6699 60.8784 47.0663 60.9354 46.477C60.9658 46.1658 60.738 45.8894 60.4268 45.859Z" fill="white"/>
<path d="M29.4727 49.6798L32.0166 51.1246V52.9936C32.0287 56.3926 33.2139 58.9536 35.3553 60.2056C35.6328 60.3667 42.7111 64.4745 42.26 64.2127L42.2611 64.2132C42.2624 64.214 42.2638 64.2136 42.2652 64.2143C42.27 64.2171 42.2739 64.221 42.2788 64.2237C42.5831 64.3989 42.905 64.5332 43.2342 64.6491C43.2329 65.0786 43.2121 71.2898 43.213 71.0256C43.213 71.6381 43.6065 72.224 44.3008 72.6369C44.921 72.9935 45.7148 73.1714 46.5064 73.1714C47.2985 73.1714 48.089 72.9929 48.702 72.6369C49.3863 72.2439 49.7788 71.6607 49.7788 71.0383L49.8005 63.7298C54.5127 61.2467 58.3336 55.877 60.0128 50.7538C60.1101 50.457 59.9481 50.1369 59.6513 50.0396C59.3544 49.9429 59.0344 50.1043 58.9371 50.4011C57.2197 55.6406 52.8315 61.7335 47.5959 63.4613C45.62 64.1138 43.961 63.8855 42.8437 63.2426C40.7466 62.0357 40.0624 59.4159 40.0544 57.0084C40.0542 56.8922 40.0463 52.6289 40.0467 52.872L59.8729 41.4252L59.8779 44.3019C59.8785 44.6142 60.1316 44.8668 60.4439 44.8668C60.4434 44.8668 60.4445 44.8668 60.4439 44.8668C60.7563 44.8662 61.0105 44.6125 61.01 44.2997L61.0038 40.6702L61.5323 40.365C63.2868 39.3524 64.6566 36.9788 64.6511 34.9617C64.6483 33.8783 64.2503 33.0535 63.5306 32.6395C63.3755 32.5502 63.2076 32.4944 63.0361 32.45L56.6304 28.7226C56.621 28.7174 56.6116 28.7155 56.6024 28.7105L56.6215 20.8461C56.6215 20.8453 56.621 20.8446 56.621 20.8438C56.621 20.8427 56.6215 20.8417 56.6215 20.8406C56.6198 18.9747 53.3486 18.2582 51.5084 19.3271C50.881 19.6917 50.5213 20.2275 50.5082 20.8009C50.4861 28.2013 50.4772 31.1526 50.4776 30.9871L41.6936 36.0553L41.71 29.4577C41.71 29.4569 41.7095 29.4556 41.7095 29.4548C41.7095 29.4537 41.71 29.4527 41.71 29.4517C41.7089 28.863 41.338 28.3107 40.6912 27.9371C39.5398 27.2721 37.7411 27.2732 36.5963 27.9382C35.9632 28.3061 35.6005 28.848 35.5937 29.4273C35.5936 29.4318 35.5908 29.4354 35.5908 29.4401C35.5908 29.4395 35.5908 29.4406 35.5908 29.4401C35.5903 29.6477 35.565 39.835 35.5656 39.5927L31.4826 41.9515C29.7253 42.9752 28.3489 45.3582 28.3489 47.3836C28.3622 48.4537 28.774 49.2917 29.4727 49.6798ZM44.3655 64.9296C45.1982 65.0487 46.1985 65.0466 47.5703 64.6539C47.76 64.5995 48.614 64.2956 48.6666 64.274C48.665 64.4076 48.6451 65.9934 48.6445 66.1181C48.6439 66.3226 48.4593 66.5476 48.1376 66.7344C47.2554 67.2485 45.7574 67.2474 44.8663 66.7333C44.5708 66.5627 44.3916 66.354 44.3613 66.1631L44.3655 64.9296ZM44.356 67.7404C44.9676 68.0781 45.735 68.2501 46.5053 68.2501C47.2781 68.2501 48.0473 68.077 48.6564 67.7369L48.6467 71.0366C48.6467 71.2412 48.4565 71.4722 48.1359 71.6569C47.2543 72.1676 45.7563 72.1671 44.8724 71.6596C44.5468 71.4661 44.345 71.2229 44.345 71.0272L44.356 67.7404ZM35.9252 59.2272C34.1453 58.1869 33.1592 55.972 33.1487 52.9914V51.7675C36.727 53.766 36.0874 53.4908 36.6338 53.7056C37.1465 53.9092 37.7443 53.8739 38.2191 53.7225C38.4477 53.6498 38.6795 53.5526 38.9129 53.422C38.9132 53.5383 38.9223 57.236 38.9218 57.0112C38.9262 58.6362 39.1895 59.8218 39.5584 60.8216C39.6389 61.0391 39.7168 61.259 39.8123 61.4618C39.8165 61.4706 39.8191 61.4809 39.8234 61.4897L35.9252 59.2272ZM60.9663 39.3844C60.8183 39.4699 46.1491 47.9382 38.4011 52.411C37.1247 53.1482 36.3969 52.5216 36.3866 51.2983C36.3855 51.278 36.3895 51.2558 36.389 51.2353C36.3951 50.6715 36.5456 50.0581 36.7981 49.4636C37.2581 48.4483 38.0507 47.4744 38.945 46.9496L61.5163 33.9203C64.4508 32.2403 64.023 37.6193 60.9663 39.3844ZM53.5542 19.9578C54.2394 19.9578 55.4895 20.2891 55.4895 20.8423C55.4913 21.376 54.3034 21.7186 53.5691 21.7183C52.8711 21.7179 51.638 21.4068 51.635 20.8332C51.6337 20.2834 52.8348 19.9578 53.5542 19.9578ZM51.6306 22.4094C52.7902 23.0171 54.4565 22.952 55.4856 22.4199C55.4846 22.5334 55.4687 23.0814 55.4585 25.5867C55.4579 25.7558 55.2927 25.9526 55.0157 26.1135C54.2175 26.5767 52.8621 26.5778 52.0562 26.1124C51.7949 25.962 51.6471 25.7817 51.6227 25.6194L51.6306 22.4094ZM51.619 27.1429C52.782 27.7475 54.3428 27.7353 55.4741 27.1351L55.4585 33.5427C55.4579 33.7119 55.2927 33.9087 55.0157 34.0695C54.2175 34.5344 52.8616 34.5338 52.0567 34.069C51.7721 33.9042 51.6029 33.7036 51.6035 33.5311C51.6038 33.4022 51.6193 27.025 51.619 27.1429ZM37.1656 28.9166C37.9673 28.4514 39.3227 28.4543 40.1252 28.9177C40.4082 29.0813 40.5773 29.2814 40.5779 29.4533C40.5779 30.6445 36.7212 30.5523 36.7231 29.4439C36.7229 29.275 36.8884 29.0779 37.1656 28.9166ZM36.719 31.021C37.8314 31.6029 39.5056 31.5835 40.574 31.0309L40.5664 34.0995C40.5272 34.3122 40.5171 34.4838 40.1036 34.724C39.3054 35.1872 37.95 35.1883 37.1441 34.7229C36.8833 34.5727 36.7358 34.393 36.7111 34.2308L36.719 31.021ZM36.7073 35.7535C37.8772 36.3615 39.4382 36.342 40.5623 35.7458C40.5606 36.2623 40.5395 42.5511 40.5409 42.1577C40.5409 43.1624 36.694 43.3663 36.6919 42.1435C36.6922 42.0273 36.7075 35.6373 36.7073 35.7535ZM32.0503 42.931L35.5623 40.9019L35.5593 42.1389C35.5593 42.1401 35.5598 42.1413 35.5598 42.1425V42.1461C35.5598 43.4533 37.1721 44.1576 38.6272 44.1576C40.0141 44.1576 41.6747 43.4956 41.6785 42.1566L41.6903 37.3642L50.4744 32.2959C50.4739 32.4099 50.4687 33.6451 50.4692 33.5311C50.4692 34.1204 50.8401 34.6742 51.4868 35.0501C52.6366 35.7179 54.4375 35.7184 55.5928 35.0474C56.2385 34.6632 56.5939 34.1287 56.5939 33.5438L56.6033 30.0166L61.2325 32.71C61.1373 32.7555 61.0439 32.7844 60.9481 32.8396L38.3779 45.8706C37.2731 46.5085 36.3218 47.685 35.7679 48.9727C35.4465 49.67 35.2661 50.4116 35.2645 51.1396C35.2607 51.2727 35.2358 51.2986 35.2796 51.6758L30.0272 48.6931C29.6933 48.5073 29.4893 48.0126 29.481 47.3764C29.481 45.7778 30.6584 43.7419 32.0503 42.931Z" fill="white"/>
<path d="M49.6732 51.4276C48.3897 52.1684 47.3875 53.9052 47.3914 55.3816C47.3972 57.1332 48.8011 57.8529 50.252 57.0167C51.5355 56.2754 52.5377 54.5386 52.5338 53.0627C52.5281 51.357 51.1653 50.5658 49.6732 51.4276ZM51.4017 53.0661C51.4045 54.1373 50.619 55.4977 49.6859 56.0361C48.9604 56.4551 48.5258 56.2132 48.5234 55.3783C48.5207 54.307 49.3062 52.9467 50.2392 52.4083C50.9375 52.0051 51.3993 52.2 51.4017 53.0661Z" fill="white"/>
</svg>
