<svg width="93" height="92" viewBox="0 0 93 92" fill="none" xmlns="http://www.w3.org/2000/svg">
<rect x="0.5" width="92" height="92" rx="46" fill="black"/>
<path d="M27.5772 34.8934L44.6252 25.0453C44.8961 24.8894 44.989 24.5433 44.8325 24.2725C44.6755 24.0005 44.329 23.9066 44.0592 24.0658L27.0117 33.9128C25.8266 34.5949 24.8985 36.1991 24.8985 37.5644L24.982 66.9199C24.982 67.6938 25.2733 68.2852 25.7984 68.5859C33.5281 73.077 33.2245 72.9006 33.3382 72.9667C33.3415 72.9687 33.3437 72.972 33.3471 72.9738C33.9281 73.3059 34.6216 73.1842 35.2033 72.8434L45.4108 66.9528L46.6307 67.6628C46.6367 67.6663 46.6438 67.6647 46.6498 67.6679C46.6534 67.67 46.6564 67.6729 46.66 67.675C49.5087 69.3133 52.945 68.4691 55.8006 66.8193C62.6052 62.8902 68.1236 53.3261 68.1014 45.5011C68.0904 41.5963 66.7322 38.6689 64.2768 37.256C62.7403 36.3736 62.826 36.4198 62.8138 36.4127L62.781 25.0784C62.781 24.3827 62.5212 23.8265 62.0796 23.506C62.0458 23.4726 62.0154 23.4362 61.9723 23.4113L54.4248 19.0256C53.8969 18.7249 53.2148 18.7735 52.5542 19.1582L48.8059 21.3229C48.535 21.4788 48.4421 21.8248 48.5986 22.0957C48.755 22.3654 49.101 22.4583 49.3719 22.3024L53.1219 20.1367C53.422 19.962 53.6979 19.9155 53.8598 20.0073L60.0138 23.5826L34.5388 38.2874C33.3975 38.9597 32.43 40.5546 32.43 41.949C32.5449 81.9351 32.5054 68.1934 32.514 71.1784L26.3633 67.6042C26.2047 67.5147 26.114 67.2648 26.114 66.9188L26.0306 37.5633C26.0306 36.5993 26.7387 35.3766 27.5772 34.8934ZM59.1049 36.5635C57.7102 36.842 55.818 37.6179 54.6029 38.4527L48.938 35.1575L48.9413 35.1554C51.4137 33.7253 54.4803 32.8728 56.9581 34.313L60.5152 36.3848C60.3093 36.3931 59.5237 36.4805 59.1049 36.5635ZM47.8608 35.8416L53.5505 39.1512C53.5441 39.1556 53.5318 39.1637 53.5282 39.1664C52.1449 40.1678 51.0315 41.2263 49.8781 42.5152L44.1028 39.1556C45.2676 37.8763 46.5303 36.7487 47.8608 35.8416ZM43.3385 40.0216L49.1212 43.3857C48.31 44.4167 47.5184 45.4076 46.4153 47.3161L40.6162 43.9383C41.4168 42.5512 42.3334 41.2303 43.3385 40.0216ZM40.0778 44.9336L45.8682 48.3064C45.0668 49.8232 44.4576 51.2615 43.9804 52.7232L38.2175 49.3606C38.693 47.8602 39.3222 46.3703 40.0778 44.9336ZM37.1954 55.503C37.1891 53.8838 37.4447 52.1862 37.8951 50.4827L43.6397 53.8346C43.0103 56.3524 42.882 57.6001 42.8453 58.8782L37.1992 55.5904C37.199 55.5604 37.1954 55.5331 37.1954 55.503ZM42.8569 60.1938C42.866 61.6039 43.3467 63.5677 43.9918 64.816L40.4303 62.7432C38.6456 61.7151 37.554 59.6786 37.2737 56.9426L42.8569 60.1938ZM66.9694 45.5033C66.9904 52.9679 61.7263 62.0909 55.2346 65.8398C52.1778 67.6042 49.3338 67.9071 47.2249 66.6944C43.2684 64.4159 43.5398 58.1615 44.8533 53.738C45.4128 51.9105 46.1591 50.0286 47.3767 47.9133C49.8916 43.5383 54.4076 38.6368 59.3614 37.6724C60.8555 37.3833 62.4149 37.4901 63.7263 38.2532C63.7326 38.2569 63.7398 38.2566 63.7462 38.2601C65.8142 39.4717 66.9595 42.0408 66.9694 45.5033ZM57.5275 33.3357C51.206 29.6472 43.0184 37.351 39.4376 43.7726C39.4112 43.8016 39.3801 43.8252 39.3595 43.8605C39.3316 43.9086 39.3208 43.9605 39.3082 44.0119C35.947 50.1696 33.8862 60.276 39.8631 63.7238L44.2839 66.2969L34.6345 71.865C34.3434 72.0356 34.0748 72.0837 33.9132 71.9925L33.9103 71.9899L33.9075 71.9883C33.8311 71.9429 33.7707 71.8588 33.7273 71.7476C33.7252 71.7424 33.7222 71.7391 33.7202 71.7338C33.677 71.6156 33.6527 71.4682 33.6527 71.2989C33.6432 68.1783 33.6814 80.6384 33.5626 41.9479C33.5626 40.954 34.3206 39.7244 35.1126 39.2659L60.6528 24.5268C60.9468 24.3575 61.2119 24.3121 61.3756 24.3915C61.3824 24.3944 61.3928 24.3913 61.3993 24.3944C61.5557 24.4852 61.6489 24.7403 61.6489 25.0795L61.6798 35.7527L57.5275 33.3357Z" fill="white"/>
<path d="M46.2719 24.0934L47.8064 23.2068C48.0773 23.0509 48.1701 22.7049 48.0137 22.434C47.8562 22.1631 47.5096 22.0681 47.2404 22.2273L45.7059 23.1139C45.435 23.2698 45.3422 23.6158 45.4986 23.8867C45.6562 24.1588 46.0042 24.2497 46.2719 24.0934Z" fill="white"/>
<path d="M52.4292 49.6005L54.267 50.6629C54.2716 50.6656 54.2747 50.6702 54.2794 50.6729C55.0334 51.1074 55.9208 50.926 56.6784 50.4904C58.2947 49.5574 59.5561 47.3717 59.5506 45.5144C59.5478 44.5161 59.1775 43.7544 58.507 43.3685C58.4973 43.363 58.4858 43.3621 58.476 43.3567C58.474 43.3555 58.4719 43.3542 58.4699 43.3531L56.674 42.3061C56.0024 41.9192 55.1185 41.9888 54.2545 42.4907C52.673 43.3951 51.3867 45.615 51.3867 47.4391C51.3867 48.4187 51.7643 49.2058 52.4292 49.6005ZM56.1124 49.5098C55.6124 49.7977 55.1541 49.865 54.85 49.6933L54.8476 49.6911L54.8415 49.6878C54.2889 49.3637 54.3237 48.4072 54.4578 47.7626C54.7281 46.4952 55.622 45.1332 56.6618 44.5327C57.0238 44.3242 57.5617 44.1473 57.9269 44.3464L57.9426 44.3558C57.9459 44.3578 57.9497 44.3575 57.9531 44.3594C58.2465 44.5372 58.4169 44.9558 58.4185 45.5177C58.4229 46.9582 57.3666 48.7857 56.1124 49.5098ZM54.82 43.4725C55.1422 43.2845 55.449 43.1894 55.7088 43.1894C55.8597 43.1894 55.9946 43.2215 56.1074 43.2856L56.3346 43.4183C55.0047 44.0389 53.6516 45.7989 53.3193 47.6732C53.2459 48.0764 53.2204 48.3597 53.2473 48.7658L53.0014 48.6243C52.6946 48.4419 52.5188 48.0096 52.5188 47.4391C52.5188 46.0019 53.5707 44.1855 54.82 43.4725Z" fill="white"/>
<path d="M51.3768 56.6174L60.1266 51.5661C60.3975 51.4103 60.4903 51.0642 60.3339 50.7934C60.1774 50.5225 59.8298 50.4274 59.5606 50.5866L50.8107 55.6379C50.5399 55.7937 50.447 56.1398 50.6035 56.4106C50.7611 56.6827 51.1091 56.7737 51.3768 56.6174Z" fill="white"/>
<path d="M62.5334 51.9619L47.8313 60.5752C47.5616 60.7333 47.4715 61.0804 47.629 61.3502C47.7853 61.6153 48.1275 61.7119 48.404 61.5525L63.1061 52.9392C63.3758 52.7811 63.4659 52.434 63.3084 52.1642C63.1497 51.8945 62.8031 51.8049 62.5334 51.9619Z" fill="white"/>
<path d="M59.1034 57.2951L51.2679 61.8189C50.997 61.9748 50.9042 62.3209 51.0606 62.5917C51.2182 62.8638 51.5662 62.9547 51.8339 62.7985L59.6695 58.2746C59.9403 58.1187 60.0332 57.7727 59.8768 57.5018C59.7198 57.2309 59.3721 57.137 59.1034 57.2951Z" fill="white"/>
</svg>
