<svg width="93" height="92" viewBox="0 0 93 92" fill="none" xmlns="http://www.w3.org/2000/svg">
<rect x="0.5" width="92" height="92" rx="46" fill="black"/>
<path d="M64.0712 47.1159L63.1894 39.9959C63.1513 39.6864 62.8682 39.4576 62.5581 39.504C62.248 39.5427 62.0275 39.8246 62.0662 40.1352L63.5139 51.8186C64.0197 54.6444 62.2784 57.4458 58.7374 59.5043C52.0339 63.4036 41.0863 63.3992 34.3353 59.5043C31.1652 57.6725 29.4129 55.2734 29.3996 52.7628C31.3646 36.3114 30.0503 47.4272 32.0872 30.7337C32.7429 31.902 34.058 33.2713 35.9157 34.3444C41.8399 37.7738 51.3824 37.7019 57.1471 34.3444C58.9803 33.2844 60.2678 31.9309 60.9087 30.7846L61.4006 34.7579C61.4388 35.0674 61.7207 35.2941 62.0319 35.2499C62.342 35.2112 62.5626 34.9292 62.5239 34.6186L61.6851 27.8444C61.662 25.372 60.03 23.0818 57.0863 21.3952C51.202 17.9968 41.6673 17.9923 35.8305 21.3841C32.9286 23.0731 31.33 25.3481 31.3098 27.7948C31.3096 27.7965 31.3085 27.7979 31.3083 27.7996L28.9336 47.0521C26.6532 49.0538 25.415 51.4483 25.3781 53.8939C25.341 54.139 25.3757 52.9533 25.3616 60.6221C25.3517 64.0415 27.6125 67.2332 31.7268 69.6079C39.9431 74.3517 53.2388 74.3291 61.3741 69.6035C65.4055 67.2597 67.6304 64.1134 67.6398 60.7415V54.0938C67.6398 54.0663 67.6279 54.0426 67.6241 54.016C67.6006 51.5574 66.3635 49.1403 64.0712 47.1159ZM36.3993 22.3625C41.9176 19.1549 50.9451 19.1566 56.5219 22.3758C61.8591 25.4341 61.9236 30.2736 56.5788 33.366C51.0555 36.5809 42.0409 36.5798 36.4823 33.3649C31.0315 30.2151 31.1694 25.4077 36.3993 22.3625ZM28.7141 48.8314C28.7008 48.9469 28.3795 51.7733 28.2681 52.7539C28.2814 55.6958 30.2348 58.4419 33.7704 60.4861C40.8353 64.5677 52.2926 64.5677 59.3112 60.4861C63.2812 58.1777 65.2208 54.9473 64.6371 51.6528L64.3005 48.9121C65.7988 50.5589 66.5424 52.371 66.4955 54.2307C66.4145 57.58 63.7317 60.2753 60.8031 61.9741C52.9191 66.558 40.0989 66.488 32.2928 61.9808C29.5609 60.4033 26.979 57.9647 26.5664 54.8341C26.5382 54.6171 26.5147 54.3997 26.5085 54.1807C26.452 52.3044 27.1994 50.4819 28.7141 48.8314ZM66.5077 60.7403C66.4994 63.691 64.4746 66.4914 60.8047 68.624C52.9681 73.1799 40.1775 73.181 32.2928 68.6284C28.5445 66.4637 26.4848 63.6214 26.4937 60.6232V58.0738C27.6772 60.1269 29.6889 61.7864 31.7329 62.9669C39.8892 67.6705 53.1902 67.7108 61.3736 62.9559C63.9317 61.4691 65.6079 59.7011 66.5077 58.1434V60.7403Z" fill="white"/>
<path d="M61.6278 36.5931L61.8357 38.2713C61.8753 38.5921 62.1729 38.8043 62.4669 38.7633C62.777 38.7246 62.9976 38.4427 62.9589 38.132L62.751 36.4538C62.7124 36.1432 62.4327 35.9187 62.1198 35.9619C61.8097 36.0005 61.5891 36.2825 61.6278 36.5931Z" fill="white"/>
</svg>
