<svg width="93" height="92" viewBox="0 0 93 92" fill="none" xmlns="http://www.w3.org/2000/svg">
<rect x="0.5" width="92" height="92" rx="46" fill="black"/>
<path d="M21.3456 40.712L27.5554 44.3177C27.5554 44.3177 27.5554 44.3183 27.5565 44.3183L27.5576 44.3194C27.5745 44.3291 27.5939 44.326 27.6114 44.3338C28.146 44.6334 28.7479 44.7926 29.4005 44.7926C29.9604 44.7926 30.5565 44.6595 31.1649 44.4381L39.327 49.1824C39.4872 50.9012 40.1948 52.1973 41.3592 52.8691L44.4945 54.7032C44.5133 54.7137 44.531 54.7231 44.5498 54.7314L46.1916 55.6877C46.2606 58.5063 47.278 60.6367 49.0869 61.6935C49.238 61.7812 57.985 66.8569 57.457 66.5529C59.6338 67.8062 62.2449 67.1721 64.4197 65.9173C69.5373 62.9621 73.6864 55.77 73.6698 49.8847C73.662 46.9146 72.6217 44.6826 70.7412 43.6002C70.7297 43.5936 70.7169 43.5899 70.7053 43.5833L62.4065 38.7546C60.5138 37.664 58.0396 37.8868 55.4427 39.382C55.3363 39.4435 55.2331 39.5175 55.1275 39.5826L50.5982 36.946C49.5271 36.3334 48.2006 36.3163 46.7842 36.8601L44.489 35.5215C44.2192 35.365 43.8721 35.4546 43.7151 35.7254C43.557 35.9958 43.6488 36.3423 43.9185 36.4999L45.5558 37.4545C45.5269 37.4719 45.5002 37.4967 45.4715 37.5145C42.1217 39.5815 39.5778 44.0795 39.3173 47.8066C39.316 47.8252 39.3107 47.8446 39.3095 47.8632C37.2607 46.6723 29.6159 42.2284 30.0539 42.4831C29.3618 42.0812 28.9749 41.1846 28.9661 39.9619C28.9661 37.1516 30.9472 33.72 33.3805 32.3132C34.1462 31.8738 35.0304 31.5881 35.8641 31.877C35.9637 31.9117 36.0711 31.9305 36.162 31.9821L37.6446 32.8538C37.6518 32.858 37.6605 32.8559 37.6678 32.8598L38.8806 33.5674C39.1481 33.725 39.4963 33.6338 39.6544 33.364C39.8125 33.0943 39.7208 32.7477 39.451 32.5901L38.4306 31.9948C38.2154 30.6512 37.6151 29.6206 36.7092 29.0087C36.5703 28.8227 36.7964 29.0264 30.3259 25.2432C29.0136 24.4865 27.3144 24.6346 25.5389 25.6573C22.1084 27.6406 19.3235 32.4669 19.3302 36.417C19.339 38.4329 20.0543 39.9575 21.3456 40.712ZM45.1103 53.7486C45.0937 53.7386 45.0749 53.7287 45.0572 53.7198C44.1286 53.1411 43.6134 51.9299 43.6034 50.3076C43.5924 46.5974 46.2081 42.0696 49.4352 40.2139C50.8923 39.3677 52.2333 39.2145 53.2128 39.7822L54.0862 40.2919C52.0433 41.3709 49.1619 45.6443 48.155 47.6741C47.1989 49.6546 46.3921 52.181 46.2221 54.3948L45.1114 53.748L45.1103 53.7486ZM72.5377 49.888C72.5543 55.4113 68.6583 62.1623 63.8537 64.9366C61.6205 66.2257 59.5498 66.4512 58.0219 65.5718C55.4333 64.0826 55.3653 60.201 56.0095 57.2668C57.0607 52.4927 60.4 47.5078 64.3578 45.2193C66.121 44.1999 68.4108 43.5569 70.1862 44.5913C70.1888 44.5929 70.193 44.5927 70.1957 44.5942C71.698 45.4714 72.531 47.349 72.5377 49.888ZM59.7587 39.2051C60.5238 39.2051 61.2247 39.3804 61.8394 39.7341L67.3914 42.9651C66.4078 43.0758 65.0679 43.5009 63.7951 44.2359C59.6757 46.6141 56.1876 51.7317 54.9838 56.707C54.4188 59.0372 54.2589 61.7341 55.2127 63.94L49.6563 60.7151C48.1539 59.8373 47.3214 57.9607 47.3114 55.4317C47.3114 55.3891 47.3164 55.345 47.3167 55.3021C47.3167 55.3018 47.3167 55.3024 47.3167 55.3021C47.3356 55.1857 47.2584 52.1252 49.1721 48.1722C51.136 44.203 55.4026 39.2051 59.7587 39.2051ZM50.0322 37.926L50.8868 38.424C50.2369 38.5635 49.5587 38.8331 48.8691 39.2333C45.3292 41.2692 42.4603 46.238 42.4714 50.3125C42.4759 51.0759 42.579 51.7713 42.7732 52.3842L41.9285 51.8901C40.9667 51.3357 40.4327 50.1174 40.4228 48.4618C40.4118 44.7617 43.0231 40.2264 46.2512 38.3583C46.252 38.3578 46.2528 38.3575 46.2536 38.3571C46.4651 38.2387 46.6663 38.1399 46.8672 38.046C48.0875 37.496 49.196 37.4502 50.0322 37.926ZM36.7281 31.0015C35.6424 30.3862 34.2528 30.5056 32.8156 31.332C30.0219 32.9472 27.834 36.7376 27.834 39.9663C27.8431 41.1991 28.1758 42.2056 28.7856 42.8895C28.9891 43.1177 29.2233 43.3101 29.4868 43.4631L29.6011 43.5291L29.7862 43.6368C29.1383 43.7107 28.5562 43.5956 28.0794 43.3008C27.7198 43.0776 27.1969 42.5002 26.9359 41.6803C26.8756 41.4914 26.8079 41.3102 26.7702 41.0987C26.5144 39.6629 26.8237 38.0992 27.3038 36.7279C28.2354 34.077 30.1207 31.5224 32.3181 30.2519C33.4103 29.6228 34.7937 29.2118 35.8941 29.8013C36.4146 30.0804 36.8187 30.5598 37.0766 31.2048L36.7281 31.0015ZM26.1038 26.6379C26.9551 26.1476 27.7654 25.8999 28.4818 25.8999C28.9528 25.8999 29.384 26.0072 29.7587 26.2228L33.6668 28.4969C33.6572 28.499 33.6469 28.504 33.6371 28.5062C33.0279 28.6454 32.2758 28.9684 31.752 29.2713C29.3363 30.6616 27.2477 33.4634 26.2225 36.3803C25.683 37.91 25.3778 39.5811 25.6473 41.2102C25.6862 41.4457 25.735 41.673 25.797 41.8894C25.8073 41.9253 25.811 41.9668 25.8219 42.0022L21.9149 39.7336C20.9851 39.1902 20.4689 38.0112 20.4622 36.4136C20.4556 32.8256 22.9873 28.4399 26.1038 26.6379Z" fill="white"/>
<path d="M41.1613 33.5834C40.8927 33.4264 40.5444 33.5165 40.3874 33.7879C40.2305 34.0582 40.3222 34.4048 40.5931 34.5618L42.2094 35.5015C42.2989 35.5535 42.3962 35.5784 42.4935 35.5784C42.6881 35.5784 42.8782 35.4778 42.9833 35.297C43.1402 35.0267 43.0485 34.6801 42.7776 34.5231L41.1613 33.5834Z" fill="white"/>
<path d="M64.6386 46.5011C60.406 48.9375 56.9053 55.0466 56.9053 59.8721C56.9416 62.4179 57.889 64.6525 60.4154 64.6525C61.3607 64.6525 62.4574 64.3092 63.585 63.6597C67.7761 61.2413 71.3061 55.1216 71.294 50.2959V50.2926C71.251 45.5774 68.2558 44.4218 64.6386 46.5011ZM65.2024 47.4829C66.109 46.9616 66.9713 46.6703 67.6711 46.641H67.6855C68.0171 47.2629 68.1996 48.1412 68.215 49.2042C68.2239 53.6739 64.9537 59.3404 61.0732 61.5807C60.163 62.1045 59.3037 62.3918 58.5782 62.4185C58.1685 61.6797 58.0497 60.7055 58.0374 59.8638C58.0374 58.8101 58.2238 57.6563 58.5676 56.5131C59.845 57.1369 61.3373 57.8446 61.6525 58.0209C62.3343 58.4026 63.1222 58.2415 63.8028 57.839C65.2102 57.0038 66.2947 55.0774 66.2704 53.4545C66.2582 52.5584 65.9166 51.8774 65.3086 51.5369C65.3026 51.5336 65.2956 51.5331 65.2897 51.5298L65.2865 51.5264L62.6022 49.5817C63.4101 48.7289 64.2971 48.0039 65.2024 47.4829ZM61.8586 50.441L63.4258 51.5756C61.8831 52.3012 60.5614 54.5107 60.694 56.2852L58.9512 55.4406C59.6474 53.5978 60.5087 52.0691 61.8586 50.441ZM62.2233 57.039C61.9099 56.8358 61.827 56.4645 61.8217 56.0912C61.7927 53.9608 63.9218 52.0638 64.7558 52.5241C64.9924 52.6574 65.1317 53.0017 65.1383 53.4705C65.156 54.6849 64.2804 56.2393 63.2257 56.8651C62.8284 57.1011 62.4626 57.1631 62.2233 57.039ZM63.019 62.6791C61.6868 63.4467 60.5175 63.6979 59.6505 63.3822C60.2852 63.2219 60.9531 62.9556 61.6382 62.5614C65.8282 60.143 69.3582 54.0233 69.3471 49.1981C69.3471 49.1954 69.3471 49.1909 69.3471 49.1909C69.3381 48.568 69.2532 47.7902 69.0359 47.0418C69.9663 47.7555 70.1526 49.2906 70.1619 50.3003C70.1729 54.7701 66.9016 60.4387 63.019 62.6791Z" fill="white"/>
</svg>
