<svg width="93" height="92" viewBox="0 0 93 92" fill="none" xmlns="http://www.w3.org/2000/svg">
<rect x="0.5" width="92" height="92" rx="46" fill="black"/>
<path d="M29.17 36.3881L29.2596 68.2211C29.2762 68.8645 29.5371 69.3753 29.9682 69.6179C30.5615 69.9639 27.8193 68.3646 35.7699 73.0015C36.2682 73.2841 36.858 73.1842 37.3605 72.8948L62.1069 58.6067C63.0754 58.0479 63.8327 56.7367 63.8299 55.6218L63.7393 23.7998C63.7376 23.1553 63.4806 22.6385 63.0328 22.3809C63.0197 22.3733 63.0041 22.3716 62.9907 22.3646L57.2508 19.0084C56.9833 18.8531 56.4189 18.6596 55.6472 19.1085L50.4871 22.0885C50.2163 22.2449 50.1234 22.5909 50.2798 22.8618C50.4357 23.1321 50.7817 23.225 51.0532 23.0691L56.2149 20.088C56.415 19.9719 56.5886 19.9343 56.6798 19.9863L61.1959 22.6265C58.6808 24.0783 70.2723 17.3873 36.6977 36.7679C35.7248 37.33 34.9631 38.6429 34.9631 39.7578L35.0521 71.2746L30.5315 68.6362C30.4862 68.6108 30.3989 68.4853 30.3917 68.2051L30.3021 36.3864C30.3021 35.6761 30.8483 34.7381 31.4707 34.3788L44.1137 27.0772C44.3845 26.9208 44.4774 26.5748 44.3209 26.3039C44.1634 26.0325 43.8174 25.9407 43.5476 26.0966L30.9046 33.3982C29.9318 33.9598 29.17 35.2726 29.17 36.3881ZM61.5409 57.6261L36.7944 71.9142C36.5629 72.0477 36.405 72.0537 36.3355 72.0183C36.2151 71.9367 36.1883 71.7268 36.188 71.5808L36.0974 39.7589C36.0957 39.0491 36.6391 38.1116 37.2604 37.7529C71.2086 18.1591 59.4592 24.9404 62.0091 23.4687C62.11 23.4099 62.1961 23.3777 62.2687 23.3603C62.2799 23.3578 62.2899 23.3564 62.3003 23.3547C62.364 23.3437 62.418 23.3434 62.448 23.3593L62.4618 23.367C62.466 23.3695 62.4708 23.3692 62.4751 23.3716C62.537 23.4137 62.6066 23.5456 62.6072 23.8026L62.6978 55.6245C62.6995 56.347 62.1699 57.2635 61.5409 57.6261Z" fill="white"/>
<path d="M48.4114 23.2874L46.0898 24.6284C45.8189 24.7849 45.7261 25.1309 45.8825 25.4018C46.0393 25.6733 46.3864 25.7647 46.6558 25.609L48.9775 24.268C49.2483 24.1116 49.3412 23.7656 49.1848 23.4947C49.0278 23.2227 48.6817 23.131 48.4114 23.2874Z" fill="white"/>
<path d="M60.652 26.5145C60.4768 26.4134 60.2617 26.4145 60.0865 26.5145L38.1829 39.152C38.1448 39.1741 38.1094 39.2006 38.0774 39.2305C37.9618 39.3394 37.8629 39.5113 37.8159 39.6335C37.791 39.6992 37.7783 39.7683 37.7783 39.8385L37.8596 68.3809C37.8601 68.5826 37.9685 68.7689 38.1431 68.8695C38.318 68.9703 38.5318 68.9707 38.7086 68.8695L60.6166 56.2288C60.6793 56.1919 60.7257 56.1509 60.7725 56.0972C60.9212 55.9944 61.0174 55.8225 61.0168 55.6296L60.9356 27.0032C60.935 26.8014 60.8267 26.6151 60.652 26.5145ZM49.1438 61.5414L49.1378 59.3856C49.1367 59.0739 48.8835 58.8213 48.5717 58.8213H48.5701C48.2578 58.8224 48.0046 59.0761 48.0057 59.389L48.0136 62.1936L38.9889 67.4008L38.9537 55.0456L41.3973 53.6346C41.6682 53.4782 41.761 53.1321 41.6046 52.8613C41.4476 52.5893 41.0999 52.497 40.8313 52.654L38.95 53.7403L38.9109 40.0392L49.6552 33.8401L49.6612 36.0045C49.6623 36.3163 49.9155 36.5689 50.2273 36.5689H50.2289C50.5413 36.5678 50.7944 36.3141 50.7933 36.0012L50.7854 33.188L59.8063 27.9833L59.8451 41.6128L57.3995 43.0247C57.1286 43.1811 57.0358 43.5272 57.1922 43.798C57.349 44.0696 57.6961 44.1609 57.9655 44.0053L59.8488 42.918L59.8842 55.3443L49.1438 61.5414Z" fill="white"/>
<path d="M51.7568 44.9882C51.6834 44.9882 51.6033 45.0138 51.5268 45.0244V39.5461C51.5268 39.2333 51.2737 38.9801 50.9608 38.9801C50.6479 38.9801 50.3948 39.2333 50.3948 39.5461V45.5107C49.2612 46.3283 48.3808 47.9402 48.3849 49.286C48.3859 49.6022 48.433 49.8671 48.5118 50.0884L44.1319 55.4803C43.9351 55.723 43.9716 56.0795 44.2142 56.2769C44.456 56.4728 44.8122 56.4381 45.0108 56.1945L49.2867 50.9306C49.4503 50.9957 49.6208 51.0261 49.7845 51.0261C50.1206 51.0261 50.4937 50.9128 50.8635 50.6994C52.1316 49.9675 53.1597 48.186 53.1559 46.7277C53.152 45.4437 52.3997 44.9882 51.7568 44.9882ZM50.2975 49.7188C50.1046 49.8305 49.9177 49.894 49.7845 49.894C49.5446 49.894 49.5175 49.4662 49.517 49.2827C49.5136 48.2241 50.3207 46.8278 51.2438 46.2949C51.4356 46.1838 51.623 46.1202 51.7568 46.1202C51.9961 46.1202 52.0232 46.5475 52.0238 46.7311C52.0265 47.7902 51.2201 49.1865 50.2975 49.7188Z" fill="white"/>
</svg>
