<svg width="93" height="92" viewBox="0 0 93 92" fill="none" xmlns="http://www.w3.org/2000/svg">
<rect x="0.5" width="92" height="92" rx="46" fill="black"/>
<path d="M25.7135 49.0783C25.7141 49.3901 25.9678 49.6427 26.2796 49.6427H26.2812C26.5935 49.6422 26.8462 49.3879 26.8456 49.075L26.823 40.4262L43.4567 50.0932C43.4652 53.3679 43.506 69.074 43.5133 71.9017L26.8793 62.2354L26.8672 57.3771C26.8666 57.0653 26.6129 56.8127 26.3011 56.8127H26.2995C25.9872 56.8133 25.7345 57.0675 25.7351 57.3804L25.7484 62.5632C25.7489 62.7638 25.8561 62.9501 26.0303 63.0507C32.1119 66.5849 22.1007 60.767 43.7997 73.3771C43.9727 73.4778 44.1894 73.4783 44.3651 73.3771L67.0476 60.2813C67.2233 60.1796 67.3311 59.9922 67.3306 59.7894C67.2707 36.8051 67.3146 53.6449 67.2515 29.4362C67.2512 29.3225 67.1052 29.0277 66.9702 28.9492C55.9777 22.561 60.1959 25.0124 49.203 18.624C49.0267 18.5211 48.8105 18.5222 48.6353 18.6228L25.9523 31.7186C25.7525 31.8343 25.6696 32.0943 25.6693 32.2083L25.6696 32.2094L25.6693 32.2105L25.7135 49.0783ZM44.5702 42.8609C48.0392 40.858 60.6742 33.5629 66.1222 30.4174L66.1376 36.3504L44.5929 48.7892L44.5702 42.8609ZM26.8207 39.1157L26.8042 33.194L43.4379 42.8608L43.4533 48.7821L26.8207 39.1157ZM44.6456 71.9076L44.6104 58.409L44.5889 50.099L66.1409 37.6558L66.1974 59.4649L44.6456 71.9076ZM48.9172 19.7671L65.5562 29.4367L44.0039 41.8804C37.6731 38.2013 33.2758 35.6458 27.3647 32.2105L48.9172 19.7671Z" fill="white"/>
<path d="M26.2951 55.0173C26.6074 55.0168 26.86 54.7625 26.8595 54.4496L26.8523 51.6697C26.8517 51.3574 26.5908 51.1042 26.2846 51.1054C25.9723 51.1059 25.7197 51.3602 25.7202 51.673L25.7274 54.4529C25.728 54.7647 25.9817 55.0173 26.2934 55.0173H26.2951Z" fill="white"/>
<path d="M61.9172 47.0015C61.9009 46.9921 61.8829 46.9867 61.8664 46.9775L59.1799 45.4145C57.7797 44.5887 55.8754 44.7556 53.9584 45.8717C50.1963 48.0385 47.1455 53.3197 47.1582 57.6452C47.1721 59.8717 47.9537 61.5383 49.355 62.3349L52.0576 63.9063C52.0772 63.9181 52.0939 63.9337 52.1138 63.9451C56.933 66.7219 64.1408 58.3935 64.1211 51.6929C64.1151 49.4818 63.3323 47.8158 61.9172 47.0015ZM49.9193 61.3537C48.8801 60.7628 48.3014 59.4433 48.2903 57.6402C48.2787 53.6785 51.0746 48.839 54.5256 46.8512C55.7609 46.1327 57.3732 45.6641 58.6078 46.3913L58.9411 46.5853C58.9233 46.5888 58.9044 46.5977 58.8865 46.6015C53.414 47.7418 48.5396 56.4011 50.2606 61.549C50.261 61.5501 50.2611 61.5515 50.2615 61.5527L49.9193 61.3537ZM52.6902 62.9692C52.6842 62.9654 52.681 62.9592 52.6749 62.9556L52.6738 62.9551L52.6649 62.9501C47.0797 59.687 56.1815 45.0238 61.3291 47.9744L61.3578 47.991C61.3621 47.9935 61.367 47.9932 61.3714 47.9956C62.4093 48.6049 62.9841 49.9169 62.9891 51.6962C63.0075 57.9921 56.3239 65.0372 52.6902 62.9692Z" fill="white"/>
<path d="M59.6902 48.891C55.5431 48.891 50.8364 56.8826 52.4799 60.7667C52.4798 60.7666 52.4799 60.7669 52.4799 60.7667C52.4806 60.7686 52.4813 60.7709 52.4821 60.7728C52.9431 61.8314 53.7452 62.0536 54.3366 62.0536C57.508 62.0536 61.8863 56.6537 61.8703 52.0114C61.8703 50.0573 61.0556 48.891 59.6902 48.891ZM58.6908 50.2625C58.6928 50.2617 58.6945 50.2614 58.6965 50.2606C58.7493 50.5186 58.7759 50.8206 58.7759 51.164C58.7759 51.1645 58.7759 51.1651 58.7759 51.1662C58.787 54.1893 56.5709 58.0322 53.9414 59.5551C53.74 59.6698 53.5534 59.7617 53.3787 59.8344C52.7316 56.6815 55.5815 51.5666 58.6908 50.2625ZM60.7383 52.0136C60.7568 57.1018 55.4853 61.7158 53.9341 60.8174C57.4937 59.236 60.5343 53.6399 59.7973 50.0423C60.606 50.143 60.7383 51.3014 60.7383 52.0114C60.7383 52.0119 60.7383 52.0125 60.7383 52.0136Z" fill="white"/>
<path d="M63.4164 37.107C64.2936 36.6007 64.9531 35.4581 64.9503 34.4482C64.9468 33.2135 63.9093 32.6259 62.8421 33.242C61.9797 33.7406 61.3054 34.9087 61.3081 35.9009C61.3116 37.1393 62.3506 37.7217 63.4164 37.107ZM63.4086 34.2221C63.6027 34.1105 63.7127 34.121 63.7337 34.1342C63.7558 34.1469 63.8177 34.2315 63.8182 34.4515C63.8199 35.0452 63.3677 35.8279 62.8503 36.1264C62.6558 36.2381 62.5474 36.227 62.5242 36.2149C62.5027 36.2021 62.4407 36.1176 62.4402 35.8976C62.4385 35.3044 62.8913 34.5217 63.4086 34.2221Z" fill="white"/>
<path d="M59.2529 39.511C60.1302 39.0046 60.7896 37.8615 60.7869 36.8521C60.7834 35.6199 59.7478 35.0286 58.6786 35.646C57.8157 36.1446 57.1419 37.3126 57.1447 38.3048C57.1482 39.5432 58.1871 40.1256 59.2529 39.511ZM59.2446 36.6266C59.4414 36.5127 59.5476 36.5266 59.5702 36.5382C59.5918 36.5509 59.6542 36.636 59.6548 36.8555C59.6565 37.4491 59.2043 38.2319 58.6869 38.5304C58.4923 38.6426 58.3834 38.6304 58.3608 38.6188C58.3392 38.6061 58.2773 38.5215 58.2767 38.3015C58.2751 37.7084 58.7272 36.9257 59.2446 36.6266Z" fill="white"/>
<path d="M55.0889 41.915C55.9661 41.4087 56.6256 40.2661 56.6228 39.2562C56.6193 38.0291 55.59 37.4305 54.5145 38.05C53.6517 38.5486 52.9778 39.7161 52.9806 40.7088C52.9841 41.9404 54.0174 42.5329 55.0889 41.915ZM55.0806 39.0306C55.2757 38.9184 55.3857 38.9306 55.4062 38.9422C55.4283 38.9549 55.4902 39.0395 55.4907 39.2595C55.4924 39.8532 55.0402 40.6359 54.5228 40.9344C54.3283 41.0466 54.2199 41.0344 54.1967 41.0228C54.1751 41.0101 54.1132 40.9255 54.1127 40.7055C54.111 40.1119 54.5632 39.3291 55.0806 39.0306Z" fill="white"/>
</svg>
