<svg width="93" height="92" viewBox="0 0 93 92" fill="none" xmlns="http://www.w3.org/2000/svg">
<rect x="0.5" width="92" height="92" rx="46" fill="white"/>
<path d="M29.7748 62.1944H29.777C30.0888 62.1933 30.342 61.9391 30.3409 61.6267L30.3331 59.2559C30.332 58.9436 30.0789 58.6915 29.7671 58.6915H29.7649C29.4531 58.6926 29.1999 58.9469 29.2011 59.2592L29.2088 61.6301C29.2099 61.9424 29.4631 62.1944 29.7748 62.1944Z" fill="black"/>
<path d="M63.872 55.6247L63.7691 23.9338C63.768 23.2722 63.5016 22.7398 63.0395 22.474C63.0309 22.469 63.0208 22.4681 63.0121 22.4634L57.0773 19.0092C56.6074 18.7378 56.0027 18.7787 55.4289 19.1164L30.9379 33.2564C30.9334 33.2588 30.928 33.2576 30.9235 33.2602C29.913 33.8439 29.1236 35.2115 29.1281 36.3734C29.1528 42.8679 29.1941 56.915 29.1944 57.031C29.1955 57.3433 29.4487 57.5954 29.7604 57.5954C29.7604 57.5954 29.7615 57.5954 29.7627 57.5954C30.0744 57.5943 30.3276 57.34 30.3265 57.0277L30.2668 37.3581C30.3803 37.4241 35.4158 40.351 35.0946 40.1643L35.1955 71.2635L30.5266 68.5458C30.4216 68.4855 30.3596 68.3042 30.3596 68.0599L30.3475 63.7848C30.3464 63.473 30.0932 63.2204 29.7814 63.2204C29.4686 63.2215 29.2143 63.4752 29.2154 63.7881L29.2276 68.0615C29.2276 68.7332 29.4874 69.2533 29.9583 69.5253L35.9205 72.9956C35.9307 73.0015 35.9424 72.9991 35.9528 73.0043C36.4707 73.2873 37.064 73.1777 37.5689 72.8867L62.0699 58.7407C63.0848 58.1542 63.8764 56.7856 63.872 55.6247ZM35.2376 38.9265C35.2367 38.9294 35.2348 38.932 35.234 38.9349C34.0933 38.271 30.0349 35.909 30.2891 36.057C30.394 35.4676 30.7735 34.8106 31.2324 34.4233L36.1822 37.2957C35.7714 37.7303 35.4243 38.3092 35.2376 38.9265ZM55.9994 20.0943C56.2105 19.9699 56.4073 19.9284 56.509 19.9887L61.1722 22.7028L37.1709 36.5602C37.0574 36.4943 32.0182 33.5678 32.3394 33.7544L55.9994 20.0943ZM61.5039 57.7607L37.0028 71.9061C36.7473 72.0531 36.5715 72.0581 36.4913 72.0123C36.4837 72.0072 36.4771 71.9893 36.4694 71.982C36.4364 71.9536 36.407 71.9142 36.3851 71.8573C36.3549 71.7771 36.3329 71.6707 36.3329 71.5302C36.2687 52.5706 36.2899 58.8106 36.2257 39.8359C36.2234 39.0809 36.7994 38.0859 37.4561 37.7067L61.956 23.5613C62.0853 23.4873 62.1939 23.4507 62.2807 23.4368C62.367 23.4249 62.4323 23.4363 62.4734 23.4601C62.4754 23.4613 62.4778 23.4611 62.4798 23.4622C62.5754 23.524 62.636 23.702 62.6371 23.9366L62.7399 55.6286C62.7421 56.3953 62.1761 57.3721 61.5039 57.7607Z" fill="black"/>
<path d="M60.8218 26.3234C60.6471 26.2228 60.4315 26.2234 60.2569 26.324L38.2234 39.0532C38.0366 39.1931 37.8332 39.5142 37.7889 39.6872C37.7768 39.7337 37.7712 39.7823 37.7712 39.8304L37.8674 58.9801C37.8698 59.4112 38.3376 59.6858 38.7165 59.4676L60.908 46.6582C61.0838 46.5565 61.1922 46.3686 61.1911 46.1657L61.1059 26.8115C61.1048 26.6098 60.9965 26.424 60.8218 26.3234ZM46.2882 53.7868L41.3189 56.6557L44.6444 48.4791L47.144 51.6829C47.0976 51.7971 46.2334 53.9215 46.2882 53.7868ZM53.45 39.1859L59.0706 46.4062L47.8858 52.8642L53.45 39.1859ZM38.9044 39.9625L59.9783 27.7922L60.0578 45.8317L53.7419 37.7172C53.617 37.558 53.4136 37.4712 53.2179 37.5043C53.0178 37.532 52.8475 37.6641 52.7712 37.8515L47.6364 50.4729L44.9352 47.0109C44.6611 46.6597 44.1257 46.751 43.9645 47.1458L39.72 57.5815L38.9951 58L38.9044 39.9625Z" fill="black"/>
<path d="M46.914 44.4062C48.0461 43.7523 48.9305 42.2228 48.9283 40.9238C48.9237 39.3987 47.681 38.6714 46.3392 39.4341L46.3369 39.4357C45.2038 40.0891 44.3193 41.6253 44.3237 42.932C44.3284 44.4687 45.5766 45.1772 46.914 44.4062ZM46.9008 40.4174C47.4702 40.0924 47.7939 40.2623 47.7963 40.9266C47.7985 41.827 47.1351 42.9713 46.348 43.4256C45.7756 43.7566 45.4582 43.5965 45.4558 42.9287C45.4536 42.0216 46.1147 40.8718 46.9008 40.4174Z" fill="black"/>
</svg>
