<svg width="93" height="92" viewBox="0 0 93 92" fill="none" xmlns="http://www.w3.org/2000/svg">
<path d="M49.3203 12.8205L52.5513 10.9541C52.9666 10.7151 53.109 10.1845 52.8692 9.7692C52.6285 9.35389 52.097 9.2098 51.6834 9.45221L48.4524 11.3186C48.0371 11.5576 47.8947 12.0882 48.1346 12.5035C48.3762 12.9207 48.9099 13.0601 49.3203 12.8205Z" fill="black"></path>
<path d="M23.2167 82.0426C23.2176 82.3511 23.382 82.6359 23.649 82.7918L31.8256 87.5434C31.8253 87.5432 31.8259 87.5436 31.8256 87.5434C31.8263 87.5437 31.8275 87.5448 31.8282 87.5451C31.9621 87.6214 32.1121 87.6604 32.2613 87.6604C32.4113 87.6604 32.5613 87.6214 32.6952 87.5434C47.6881 78.8871 44.0039 81.0142 59.0407 72.3327C59.1385 72.2767 59.3441 72.0393 59.3568 72.0174C58.9927 72.6444 65.3069 61.7723 69.8239 53.9946C69.8992 53.8642 69.941 53.7144 69.9406 53.5587L69.8168 9.95738C69.8158 9.60006 69.5586 9.30951 69.3846 9.20811L69.3825 9.20695L61.2079 4.45657C60.9392 4.30061 60.607 4.30061 60.3383 4.45657L54.2128 7.99268C53.7975 8.2317 53.6551 8.76229 53.895 9.1776C54.1348 9.59292 54.6646 9.73361 55.0807 9.4946L60.7706 6.21106L67.2172 9.95738C63.0987 12.3351 40.8299 25.1913 32.1054 30.2282C31.6282 29.9508 25.2544 26.247 25.6586 26.4818L45.9709 14.7547C46.3862 14.5157 46.5286 13.9851 46.2888 13.5698C46.0489 13.1545 45.5158 13.0104 45.103 13.2528L23.493 25.7292C23.2242 25.883 23.0596 26.3041 23.0591 26.4785C23.0591 26.4791 23.0595 26.4795 23.0595 26.4802C23.0595 26.7593 23.2159 81.8416 23.2167 82.0426ZM24.7992 27.9911L31.2371 31.7323L31.3891 85.282L24.9509 81.5408L24.7992 27.9911ZM33.125 85.2922L32.9733 31.7318L68.0852 11.4593L68.203 53.0603L58.1388 58.8714C57.8693 59.0256 57.704 59.3138 57.7049 59.624L57.7371 71.0816L33.125 85.2922ZM59.4656 68.3739L59.4424 60.1224L66.6867 55.9404L59.4656 68.3739Z" fill="black"></path>
<path d="M51.2598 30.2451L65.1958 22.1999C65.6111 21.9609 65.7535 21.4303 65.5136 21.015C65.272 20.5996 64.7414 20.4539 64.3278 20.698L50.3919 28.7432C49.9766 28.9822 49.8342 29.5128 50.074 29.9281C50.3157 30.3453 50.8493 30.4848 51.2598 30.2451Z" fill="black"></path>
<path d="M64.3252 28.5076L52.4124 35.3849C51.9971 35.6239 51.8547 36.1545 52.0945 36.5698C52.3362 36.987 52.8698 37.1264 53.2803 36.8868L65.1931 30.0095C65.6084 29.7705 65.7508 29.2399 65.5109 28.8246C65.2694 28.4092 64.7388 28.2652 64.3252 28.5076Z" fill="black"></path>
<path d="M37.7772 46.7763C41.225 48.7924 45.6948 45.0182 47.816 41.3433C49.9307 37.68 50.928 31.9524 47.4727 29.9823C43.9244 27.9613 39.4944 31.8477 37.434 35.4153C35.2987 39.1027 34.307 44.8086 37.7772 46.7763ZM47.3812 32.225L44.407 35.2967L45.5742 31.191C45.954 31.213 46.3014 31.313 46.6124 31.491C46.9099 31.6606 47.1701 31.9097 47.3812 32.225ZM38.9367 36.2833C40.0265 34.3973 41.7026 32.4972 43.6476 31.6199L41.7931 38.1446C41.6846 38.5277 41.8499 38.9345 42.194 39.1345C42.5478 39.338 43.0216 39.2237 43.2518 38.9854L47.9855 34.0965C48.1686 35.9205 47.5668 38.3022 46.3124 40.4754C44.8243 43.0542 41.1333 46.7217 38.6426 45.2727C36.1947 43.8752 37.3065 39.0994 38.9367 36.2833Z" fill="black"></path>
<path d="M65.5688 40.3991C65.3272 39.9838 64.7949 39.8397 64.383 40.0822L50.4471 48.1291C50.0317 48.3681 49.8893 48.8987 50.1292 49.314C50.3709 49.7312 50.9045 49.8707 51.315 49.631L65.2509 41.5841C65.6662 41.3451 65.8086 40.8145 65.5688 40.3991Z" fill="black"></path>
<path d="M65.5661 48.2088C65.3245 47.7935 64.7923 47.6477 64.3803 47.8918L52.4676 54.7708C52.0522 55.0098 51.9099 55.5404 52.1497 55.9557C52.3914 56.3729 52.925 56.5123 53.3355 56.2727L65.2483 49.3937C65.6636 49.1547 65.806 48.6241 65.5661 48.2088Z" fill="black"></path>
<path d="M47.5254 49.3666C44.154 47.4484 39.7177 50.9397 37.4892 54.8013C35.3761 58.45 34.342 64.1656 37.8333 66.1639C41.345 68.1976 45.8033 64.3078 47.8712 60.7292C49.9786 57.0803 50.9929 51.348 47.5254 49.3666ZM47.4364 51.6093L44.4631 54.6809L45.6296 50.5769C46.0082 50.5989 46.3549 50.6973 46.666 50.8753C46.9643 51.0448 47.2254 51.294 47.4364 51.6093ZM46.3676 59.8613C44.8792 62.4371 41.1888 66.1055 38.6996 64.6586C36.2494 63.2651 37.3618 58.4853 38.992 55.6692C40.0817 53.7818 41.7632 51.8751 43.7034 51.0043L41.8483 57.5288C41.7398 57.9119 41.9051 58.3187 42.2492 58.5188C42.6006 58.7208 43.0748 58.6099 43.307 58.3696L48.0416 53.4807C48.2247 55.3064 47.6229 57.6864 46.3676 59.8613Z" fill="black"></path>
</svg>