<svg width="93" height="92" viewBox="0 0 93 92" fill="none" xmlns="http://www.w3.org/2000/svg">
<path d="M29.3974 23.2067C28.9592 23.0033 28.4455 23.1915 28.243 23.6238C25.924 28.566 24.7052 33.5642 24.7179 38.0793C24.7331 43.7827 26.7156 48.0689 30.2992 50.148L36.8231 53.9422C36.8389 53.9514 36.8521 53.964 36.868 53.9731C38.3733 54.8394 40.0735 55.2699 41.906 55.2699C41.9798 55.2699 42.0588 55.253 42.133 55.2516L42.129 55.5611C41.528 55.7764 40.9743 56.0101 40.4999 56.287C38.7491 57.3039 37.7827 58.7022 37.7569 60.2271C37.4584 93.966 37.6052 77.3673 37.563 82.1434C37.5587 83.7131 38.5504 85.1515 40.3558 86.1948C43.7638 88.1619 49.0936 88.1589 52.4872 86.1864C54.2646 85.1532 55.2469 83.7318 55.2512 82.1883C55.2899 77.3836 55.4436 60.5559 55.4265 60.2637C55.4079 58.7233 54.4287 57.3118 52.6516 56.2862C52.085 55.9597 51.4437 55.7007 50.7693 55.4782L50.8169 52.3705C60.5263 46.4216 68.3135 32.7488 68.2819 21.5073C68.266 15.8521 66.3064 11.6006 62.7721 9.50154C62.4815 9.28948 63.4983 9.92045 56.1649 5.65331C52.5313 3.53859 47.7628 3.97425 42.7358 6.87383C39.437 8.78004 36.2162 11.6644 33.4217 15.2149C33.1259 15.5912 33.1903 16.1371 33.5675 16.4337C33.9438 16.7287 34.4896 16.6643 34.7863 16.2879C37.4452 12.9095 40.4939 10.1735 43.6037 8.37744C48.0671 5.79909 52.2177 5.36598 55.2936 7.15437L57.0091 8.14859C56.9384 8.15219 56.8638 8.17031 56.7928 8.17518C54.3113 8.34407 51.35 9.47334 49.2783 10.6625C39.3375 16.4061 31.2221 30.3995 31.2553 41.8875C31.2623 44.4021 31.7183 47.2302 32.8369 49.5162C32.8573 49.558 32.8711 49.6065 32.892 49.6479L31.1714 48.6469C28.143 46.8899 26.4673 43.1351 26.4537 38.0742C26.4419 33.8142 27.6039 29.0729 29.8144 24.3611C30.0178 23.9272 29.8313 23.4102 29.3974 23.2067ZM49.0655 53.351L48.9672 59.7765C48.9672 59.9715 48.7451 60.2241 48.3934 60.4317C47.3382 61.044 45.4744 61.0407 44.4112 60.4363C44.0454 60.2198 43.8173 59.9547 43.8173 59.7579C43.8193 59.5831 43.8725 54.9367 43.8705 55.1114C45.5193 54.8537 47.5754 54.1012 49.0655 53.351ZM53.673 63.6288L53.6082 71.2416C53.6082 71.2425 53.6077 71.2434 53.6077 71.2443C53.6052 72.1504 52.9297 73.0404 51.7066 73.7515C48.8477 75.4119 44.186 75.4136 41.3169 73.7566C40.0727 73.0387 39.3887 72.136 39.3912 71.2147C39.3912 71.2146 39.3912 71.2148 39.3912 71.2147L39.4556 63.572C43.0619 66.5977 50.2116 66.4706 53.673 63.6288ZM51.6151 84.6861C48.7545 86.3466 44.0945 86.3483 41.2237 84.6912C39.9803 83.9725 39.2963 83.0698 39.2988 82.1536L39.3635 74.4894C39.6867 74.7626 40.0403 75.0244 40.449 75.2602C43.8597 77.2288 49.1875 77.2227 52.5796 75.2517C52.956 75.0328 53.2768 74.7882 53.5803 74.537L53.5153 82.1781C53.5128 83.0842 52.8381 83.975 51.6151 84.6861ZM51.8007 62.8143C51.7998 62.8143 51.799 62.8143 51.7981 62.8151C49.086 64.4007 44.369 64.5319 41.4093 62.8228C40.4504 62.2688 39.4823 61.39 39.484 60.2834C39.4861 59.3799 40.1561 58.4944 41.3737 57.7873C41.5986 57.656 41.8416 57.5333 42.1053 57.4177L42.0755 59.7418C42.0755 60.5894 42.6044 61.3869 43.5367 61.9362C43.5376 61.9366 43.5387 61.9368 43.5395 61.9372C43.5407 61.938 43.5415 61.9388 43.5427 61.9396C45.1582 62.8617 47.6729 62.8609 49.2749 61.9336C50.1996 61.3878 50.7081 60.6233 50.7081 59.7926L50.7437 57.2906C51.1141 57.4372 51.4625 57.6042 51.7846 57.7898C54.3207 59.2542 54.3388 61.3396 51.8007 62.8143ZM66.5461 21.5124C66.5766 32.4028 58.8981 45.7111 49.423 51.2012C49.4114 51.2073 49.3953 51.2062 49.3842 51.2126C45.8075 53.2712 41.324 54.5338 37.7333 52.4687C37.7311 52.4674 37.7293 52.4656 37.7271 52.4643C37.7219 52.4612 37.7192 52.4557 37.7139 52.4526L37.6961 52.4424C34.6787 50.6794 33.0089 46.9289 32.9954 41.879C32.9656 30.9579 40.6693 17.6442 50.1445 12.1729C53.6967 10.1221 58.2273 8.87717 61.7988 10.9321C64.8458 12.6849 66.5317 16.4422 66.5461 21.5124Z" fill="black"/>
<path d="M30.2517 21.57C30.6684 21.8082 31.1976 21.6657 31.4374 21.2505C31.9358 20.3843 32.4655 19.535 33.0224 18.7078C33.2902 18.3102 33.1851 17.7712 32.7876 17.5033C32.391 17.2338 31.8502 17.3406 31.5832 17.7381C31.0026 18.5993 30.4508 19.4825 29.9321 20.3843C29.6931 20.8004 29.8363 21.331 30.2517 21.57Z" fill="black"/>
<path d="M51.2775 14.13C42.566 19.1536 35.22 31.8597 35.2378 41.8739C35.2378 43.6198 35.4997 45.5889 36.1676 47.195C36.169 47.1986 36.171 47.2015 36.1724 47.2051C38.2574 52.4 43.4473 52.0499 48.2567 49.2741C56.9681 44.2505 64.3141 31.5368 64.2963 21.5107C64.2963 21.509 64.2963 21.5073 64.2963 21.5056C64.2735 18.6357 63.6217 13.6367 59.5278 12.406C57.3038 11.6915 54.3491 12.3433 51.2775 14.13ZM52.1479 15.6319C53.9146 14.6039 56.6088 13.5398 58.6144 13.972C59.1732 15.5628 59.2626 17.286 59.2626 18.2145C59.2626 18.2136 59.2626 18.2153 59.2626 18.2145C59.2787 27.6947 52.331 39.7202 44.0908 44.4726C41.6844 45.8627 39.4775 46.4866 37.6445 46.1387C37.1739 44.8101 36.9737 43.2652 36.9737 41.8722C36.9576 32.4013 43.9052 20.3851 52.1479 15.6319ZM62.5605 21.5175C62.5749 30.9986 55.6281 43.0198 47.3888 47.7705C45.3953 48.9215 43.4992 49.5293 41.9041 49.5293C40.4813 49.5293 39.3942 49.0031 38.59 47.9661C38.5952 47.9661 38.6001 47.9672 38.6053 47.9672C40.5047 47.9672 42.7016 47.2789 44.9587 45.9762C53.6702 40.9517 61.0162 28.238 60.9984 18.2128C60.9984 17.3809 60.9206 16.3061 60.7085 15.1807C62.2985 16.9311 62.5486 20.0179 62.5605 21.5175Z" fill="black"/>
<path d="M43.5053 38.7251C43.772 38.8788 44.1026 38.8792 44.3715 38.7243L52.7346 33.8956C53.0041 33.7397 53.1694 33.4523 53.1685 33.1404L53.1668 32.6471C53.158 29.3175 50.5652 27.8344 47.6703 29.5077C45.0809 31.002 43.0594 34.5042 43.0679 37.4817L43.0696 37.9759C43.0704 38.2852 43.2366 38.5709 43.5053 38.7251ZM48.5382 31.0113C50.1925 30.0545 51.4218 30.5945 51.431 32.6437L44.9088 36.4095C45.3089 34.3084 46.8066 32.0097 48.5382 31.0113Z" fill="black"/>
<path d="M48.5299 28.088C49.9776 27.2514 51.1074 25.296 51.1023 23.6356C51.097 21.6062 49.4114 20.6398 47.6476 21.6591C46.2033 22.4931 45.076 24.451 45.0811 26.1148C45.0882 28.1403 46.7704 29.1011 48.5299 28.088ZM48.5155 23.1627C49.0931 22.829 49.3648 22.9311 49.3664 23.6407C49.3698 24.6824 48.5731 26.058 47.662 26.5844C47.089 26.9133 46.8186 26.8118 46.8169 26.1097C46.8135 25.0638 47.6077 23.6873 48.5155 23.1627Z" fill="black"/>
</svg>
