<svg width="93" height="92" viewBox="0 0 93 92" fill="none" xmlns="http://www.w3.org/2000/svg">
<rect x="0.5" width="92" height="92" rx="46" fill="black"/>
<path d="M28.26 44.32L35.34 58.96C35.34 59.08 35.46 59.2 35.58 59.2C37.14 60.16 42.54 63.28 42.78 63.4C42.9 63.52 43.02 63.52 43.26 63.4C43.5 63.28 47.34 61 48.9 60.16V63.88C46.62 65.44 44.82 68.56 44.82 71.2C44.82 74.2 47.1 75.64 49.74 74.08C52.26 72.64 54.18 69.28 54.06 66.52C54.06 66.16 53.82 65.92 53.46 65.92C53.1 65.92 52.86 66.16 52.86 66.52C52.86 68.92 51.18 71.8 49.14 73C47.34 74.08 46.02 73.36 46.02 71.2C46.02 68.8 47.7 65.92 49.74 64.72C49.98 64.6 50.1 64.36 50.1 64.24V59.44L57.42 55.24C57.54 55.12 57.66 55 57.66 54.88C60.06 46.96 61.98 40.72 64.62 32.08C64.62 31.96 64.62 31.72 64.5 31.6C64.38 31.48 57.42 21.76 57.42 21.64C57.42 21.52 57.3 21.52 57.3 21.52L50.22 17.32C50.1 17.2 49.86 17.2 49.62 17.32L47.34 18.64C47.1 18.76 46.98 19.12 47.1 19.48C47.34 19.72 47.7 19.84 47.94 19.6L49.98 18.4L55.86 22L42.9 29.44C42.78 29.32 36.54 25.72 37.02 25.96L41.7 23.2C41.94 23.08 42.06 22.72 41.94 22.36C41.82 22.12 41.46 22 41.1 22.12L35.46 25.36C35.34 25.36 35.22 25.6 35.22 25.72C27.66 45.4 28.26 43.72 28.26 43.96C28.26 44.08 28.26 44.2 28.26 44.32ZM36.18 26.8C36.54 27.04 42.66 30.52 42.3 30.28C39.42 37.72 37.98 41.32 35.7 47.2C35.34 46.96 29.22 43.48 29.58 43.72L36.18 26.8ZM63.42 31.84L40.26 55.6C40.14 55.48 37.98 50.92 38.1 51.04L60.9 28.24L63.42 31.84ZM59.58 44.68L43.02 61.36L40.74 56.8L62.82 34.12L59.58 44.68ZM43.5 30.52L55.38 23.68L40.26 38.68L43.5 30.52ZM37.5 49.96L36.66 48.16C36.66 48.04 39.42 41.2 39.3 41.44L57.3 23.32L60.06 27.28L37.5 49.96ZM36.42 58.36L30.3 45.64C30.42 45.76 35.94 48.88 35.58 48.76L41.7 61.36L36.42 58.36ZM56.7 54.4L44.94 61.24L58.86 47.2L56.7 54.4Z" fill="white"/>
<path d="M43.9801 21.88L46.1401 20.68C46.3801 20.56 46.5001 20.2 46.3801 19.84C46.1401 19.6 45.7801 19.48 45.5401 19.6L43.3801 20.8C43.1401 20.92 43.0201 21.28 43.1401 21.64C43.3801 22 43.7401 22.12 43.9801 21.88Z" fill="white"/>
</svg>
