<svg width="757" height="128" viewBox="0 0 757 128" fill="none" xmlns="http://www.w3.org/2000/svg">
<g clip-path="url(#clip0_1895_9)">
<path d="M105.594 15.35C85.5649 -1.77654 56.1351 -5.34957 32.0045 8.58322C18.8115 16.2083 9.35091 27.8157 4.28129 41.0199C17.634 52.4376 37.2538 54.8129 53.3408 45.5311L105.604 15.36L105.594 15.35ZM85.3253 124.347C110.174 115.564 127.978 91.8606 127.978 63.995C127.978 48.7548 122.649 34.7621 113.747 23.7636C97.1811 29.6221 85.3154 45.4213 85.3154 63.995V124.347H85.3253ZM1.06787 52.2978C-3.75226 78.2072 7.87393 105.484 32.0045 119.417C45.1975 127.042 59.9872 129.427 73.9486 127.212C77.1621 109.935 69.4079 91.7608 53.3309 82.4689L1.06787 52.2978ZM231.277 86.6008C230.079 86.6008 229.151 86.2316 228.502 85.483C227.854 84.7345 227.534 83.5069 227.534 81.8102V52.1681C227.534 47.3774 226.806 43.1158 225.359 39.3731C223.912 35.6304 221.746 32.4865 218.852 29.9415C215.958 27.3965 212.365 25.4503 208.074 24.1029C203.783 22.7555 198.743 22.0769 192.955 22.0769C185.37 22.0769 178.754 23.2546 173.116 25.6C167.477 27.9454 163.116 31.2589 160.022 35.5505C156.929 39.8422 155.382 44.7825 155.382 50.3716H180.081C180.081 48.5751 180.55 47.0281 181.498 45.7307C182.446 44.4332 183.744 43.4152 185.39 42.6667C187.047 41.9181 189.063 41.5389 191.458 41.5389C193.454 41.5389 195.28 41.8183 196.917 42.3672C198.563 42.9162 199.861 43.8843 200.809 45.2815C201.757 46.6788 202.236 48.5751 202.236 50.9704V56.9587H187.267C182.077 56.9587 177.387 57.5077 173.195 58.6055C169.004 59.7034 165.431 61.3801 162.487 63.6257C159.543 65.8713 157.278 68.616 155.681 71.8596C154.085 75.1033 153.286 78.816 153.286 83.0079C153.286 89.7946 155.611 95.234 160.242 99.326C164.882 103.418 171.15 105.464 179.033 105.464C184.422 105.464 189.412 104.396 194.003 102.25C198.593 100.104 201.837 97.28 203.733 93.7868H204.631C205.729 97.1802 207.745 99.805 210.689 101.651C213.633 103.498 217.455 104.416 222.145 104.416H234.719V86.6008H231.277ZM202.236 78.2172C201.937 81.5108 200.559 84.0558 198.114 85.8523C195.669 87.6488 192.606 88.547 188.913 88.547C185.919 88.547 183.494 87.8484 181.648 86.4511C179.802 85.0539 178.884 83.1077 178.884 80.6125C178.884 78.816 179.403 77.2491 180.451 75.9017C181.498 74.5544 183.025 73.5064 185.021 72.7579C187.017 72.0093 189.512 71.6301 192.506 71.6301H202.236V78.2172ZM245.348 104.426V23.5839H269.748L270.646 37.5067H271.843C273.939 32.3169 277.202 28.4444 281.653 25.9094C286.094 23.3643 291.054 22.0868 296.543 22.0868C300.535 22.0868 304.247 22.6857 307.69 23.8833C311.133 25.081 314.147 27.0072 316.751 29.6521C319.346 32.2969 321.362 35.7402 322.819 39.9819C324.266 44.2236 324.985 49.3436 324.985 55.3319V104.436H299.686V60.8711C299.686 56.7791 299.207 53.3857 298.259 50.691C297.311 47.9962 295.864 45.9702 293.918 44.6228C291.972 43.2755 289.397 42.5968 286.214 42.5968C282.821 42.5968 279.977 43.3952 277.681 44.9921C275.386 46.589 273.64 48.635 272.442 51.1301C271.245 53.6252 270.646 56.2701 270.646 59.0646V104.426H245.348ZM371.24 105.923C365.651 105.923 360.662 105.274 356.271 103.977C351.88 102.679 348.117 100.863 344.964 98.5176C341.82 96.1721 339.375 93.3776 337.629 90.1339C335.882 86.8903 335.014 83.2773 335.014 79.2751H359.863C360.063 81.371 360.692 83.0977 361.739 84.4351C362.787 85.7824 364.184 86.7605 365.931 87.3594C367.677 87.9582 369.643 88.2576 371.839 88.2576C375.332 88.2576 377.926 87.6588 379.623 86.4611C381.319 85.2634 382.168 83.6167 382.168 81.5208C382.168 79.6245 381.689 78.2272 380.74 77.3289C379.792 76.4307 378.315 75.7121 376.329 75.1632C374.334 74.6142 371.639 74.0953 368.246 73.5863C361.061 72.5882 355.173 71.171 350.582 69.3246C345.992 67.4782 342.569 64.8833 340.323 61.5398C338.078 58.1963 336.95 53.8847 336.95 48.5851C336.95 43.2854 338.417 38.6545 341.371 34.6623C344.315 30.6701 348.427 27.5761 353.726 25.3804C359.015 23.1847 365.152 22.0868 372.138 22.0868C379.124 22.0868 384.662 23.1348 389.652 25.2307C394.642 27.3266 398.584 30.2709 401.478 34.0635C404.372 37.856 405.919 42.2475 406.119 47.2377H381.269C381.269 45.541 380.84 44.1438 379.992 43.0459C379.144 41.9481 377.996 41.1297 376.549 40.5807C375.102 40.0318 373.376 39.7523 371.38 39.7523C368.585 39.7523 366.37 40.3312 364.723 41.469C363.077 42.6167 362.258 44.2436 362.258 46.3395C362.258 48.0362 362.777 49.3636 363.835 50.3117C364.883 51.2599 366.629 52.0284 369.074 52.6272C371.519 53.226 374.683 53.775 378.575 54.274C385.461 55.1722 391.049 56.5695 395.341 58.4658C399.632 60.3621 402.775 62.987 404.771 66.3304C406.767 69.6739 407.765 73.9955 407.765 79.2751C407.765 84.964 406.238 89.7846 403.194 93.7269C400.151 97.6692 395.879 100.683 390.401 102.779C384.912 104.875 378.525 105.923 371.24 105.923ZM430.968 104.426L412.406 23.5839H438.452L446.236 61.9091L449.53 81.6705H450.428L453.272 61.9091L459.858 23.5839H487.402L493.839 61.9091L496.533 82.1196H497.432L500.575 61.9091L508.359 23.5839H533.358L514.796 104.426H481.564L475.726 74.0354L472.882 53.0763H471.984L469.139 74.0354L463.601 104.426H430.968ZM613.743 45.2117C611.049 37.9758 606.648 32.3069 600.57 28.2149C594.473 24.1229 586.689 22.0769 577.218 22.0769C569.225 22.0769 562.269 23.8035 556.331 27.2468C550.393 30.69 545.783 35.5805 542.489 41.9181C539.196 48.2557 537.549 55.8609 537.549 64.7435C537.549 72.9275 539.136 80.1135 542.34 86.3014C545.523 92.4893 550.144 97.3099 556.181 100.753C562.219 104.196 569.524 105.913 578.116 105.913C585.002 105.913 591.08 104.815 596.379 102.62C601.658 100.424 605.999 97.3598 609.402 93.4175C612.785 89.4752 614.881 84.7544 615.689 79.2652H591.589C590.89 81.5607 589.413 83.437 587.168 84.8842C584.922 86.3314 581.909 87.05 578.116 87.05C574.913 87.05 572.129 86.3813 569.734 85.0339C567.338 83.6865 565.512 81.7104 564.265 79.1155C563.017 76.5205 562.398 73.4266 562.398 69.8336H616.288C617.276 60.6515 616.438 52.4475 613.743 45.2117ZM564.045 48.2757C565.243 45.9802 566.959 44.1837 569.205 42.8862C571.45 41.5888 574.125 40.94 577.218 40.94C580.112 40.94 582.657 41.5389 584.853 42.7365C587.038 43.9342 588.745 45.6608 589.942 47.9064C590.88 49.663 591.389 51.8288 591.469 54.4137H562.518C562.618 52.0783 563.137 50.0223 564.045 48.2757ZM628.104 104.426V23.5839H651.007L652.055 35.8599H652.953C654.749 30.7699 657.564 27.2767 661.416 25.3804C665.258 23.4841 669.619 22.536 674.509 22.536H679.149V46.3395C678.551 46.3395 677.822 46.3195 676.984 46.2596C676.136 46.2097 675.158 46.1898 674.07 46.1898C668.98 46.1898 664.939 46.9183 661.945 48.3555C658.951 49.8027 656.805 51.8487 655.508 54.4935C654.211 57.1384 653.512 60.412 653.412 64.3044V104.426H628.114H628.104ZM720.475 105.923C714.886 105.923 709.897 105.274 705.505 103.977C701.115 102.679 697.352 100.863 694.199 98.5176C691.055 96.1721 688.61 93.3776 686.864 90.1339C685.117 86.8903 684.249 83.2773 684.249 79.2751H709.098C709.298 81.371 709.926 83.0977 710.974 84.4351C712.022 85.7824 713.419 86.7605 715.166 87.3594C716.912 87.9582 718.878 88.2576 721.074 88.2576C724.566 88.2576 727.161 87.6588 728.858 86.4611C730.554 85.2634 731.402 83.6167 731.402 81.5208C731.402 79.6245 730.923 78.2272 729.975 77.3289C729.027 76.4307 727.55 75.7121 725.564 75.1632C723.568 74.6142 720.874 74.0953 717.481 73.5863C710.296 72.5882 704.408 71.171 699.817 69.3246C695.227 67.4782 691.804 64.8833 689.558 61.5398C687.313 58.1963 686.185 53.8847 686.185 48.5851C686.185 43.2854 687.652 38.6545 690.606 34.6623C693.55 30.6701 697.662 27.5761 702.961 25.3804C708.25 23.1847 714.387 22.0868 721.373 22.0868C728.359 22.0868 733.897 23.1348 738.887 25.2307C743.877 27.3266 747.819 30.2709 750.713 34.0635C753.607 37.856 755.154 42.2475 755.353 47.2377H730.504C730.504 45.541 730.075 44.1438 729.227 43.0459C728.379 41.9481 727.231 41.1297 725.784 40.5807C724.337 40.0318 722.61 39.7523 720.615 39.7523C717.82 39.7523 715.605 40.3312 713.958 41.469C712.312 42.6167 711.493 44.2436 711.493 46.3395C711.493 48.0362 712.012 49.3636 713.07 50.3117C714.118 51.2599 715.864 52.0284 718.309 52.6272C720.754 53.226 723.918 53.775 727.81 54.274C734.696 55.1722 740.284 56.5695 744.576 58.4658C748.867 60.3621 752.01 62.987 754.006 66.3304C756.002 69.6739 757 73.9955 757 79.2751C757 84.964 755.473 89.7846 752.429 93.7269C749.386 97.6692 745.114 100.683 739.636 102.779C734.147 104.875 727.76 105.923 720.475 105.923Z" fill="black"/>
</g>
<defs>
<clipPath id="clip0_1895_9">
<rect width="757" height="128" fill="white"/>
</clipPath>
</defs>
</svg>
