<svg width="93" height="92" viewBox="0 0 93 92" fill="none" xmlns="http://www.w3.org/2000/svg">
<path d="M40.4057 74.1898C40.8213 74.4309 41.352 74.2899 41.5923 73.8762C41.8339 73.4617 41.6932 72.9303 41.2787 72.6896L39.9133 71.8954C39.4997 71.6538 38.9674 71.7945 38.7267 72.209C38.486 72.6235 38.6258 73.1549 39.0403 73.3956L40.4057 74.1898Z" fill="white"/>
<path d="M14.2299 53.2037C13.8162 52.963 13.284 53.1028 13.0432 53.5181C12.8017 53.9318 12.9432 54.4632 13.3577 54.7039L16.0691 56.2796C16.4785 56.5186 17.0123 56.3839 17.2549 55.9651C17.4964 55.5515 17.3549 55.0201 16.9404 54.7793L14.2299 53.2037Z" fill="white"/>
<path d="M19.9537 56.5304C19.5401 56.2897 19.0078 56.4287 18.7671 56.8441C18.5255 57.2585 18.6662 57.79 19.0807 58.0307L21.7913 59.6072C22.2069 59.8483 22.7375 59.7073 22.9779 59.2936C23.2194 58.8791 23.0787 58.3477 22.6643 58.107L19.9537 56.5304Z" fill="white"/>
<path d="M88.1502 52.123C88.1477 51.3686 87.6866 50.6711 86.8864 50.2083L62.8031 36.222L62.8092 30.947C62.8278 30.4283 62.6218 29.8409 62.237 29.329L58.6263 24.6401C58.4407 24.3875 58.2093 24.1757 57.8974 23.9858C57.6576 23.857 57.2855 23.723 56.9134 23.7841L53.4781 24.2587C53.4781 24.2587 53.4112 24.2223 53.3061 24.0824L48.5155 17.7857C48.3104 17.506 48.068 17.2857 47.7756 17.1187C47.4306 16.9331 47.089 16.8678 46.7839 16.9178L42.9825 17.4721C42.9562 17.4586 42.8655 17.3865 42.7621 17.228L39.8041 12.5697C39.2683 11.7273 38.3414 11.2091 37.4825 11.6679L32.4572 14.5903C32.2145 14.7314 31.7885 15.3094 31.7885 15.877L31.775 27.2031L31.3799 26.5811C30.8501 25.7478 29.924 25.2159 29.0584 25.6784L24.0331 28.6009C23.7935 28.7401 23.3627 29.3148 23.361 29.8884L23.3528 32.9602L6.12877 42.9021C5.3793 43.34 4.94173 43.9781 4.87636 44.6667C4.79915 45.0211 4.86336 43.8502 4.86926 52.3544C4.86926 53.1181 5.33374 53.8173 6.13301 54.2665L36.3764 71.8471C36.7909 72.0861 37.3224 71.9479 37.5631 71.5335C37.8046 71.119 37.6639 70.5876 37.2495 70.3469L6.995 52.7604C6.70936 52.5993 6.60511 52.429 6.60511 52.351L6.58477 47.0358C11.1234 49.6725 -9.66928 37.5931 50.2124 72.3811C51.6952 73.236 53.9382 73.0855 55.136 72.3844L55.1417 72.3812C55.1416 72.3812 55.1418 72.3812 55.1417 72.3812L86.4152 54.3377L86.4254 59.6733C86.4271 59.7284 86.3338 59.8962 86.0261 60.0699L54.2926 78.393C53.4205 78.8913 51.9542 78.8922 51.0973 78.3972L43.4758 73.966C43.0613 73.7253 42.5299 73.866 42.2892 74.2796C42.0476 74.6941 42.1883 75.2255 42.6028 75.4663L50.2268 79.8991C51.6237 80.7044 53.7391 80.7053 55.1563 79.8991L86.8864 61.5778C87.7222 61.1065 88.1858 60.3912 88.1604 59.6427C88.1593 58.8739 88.1641 62.4281 88.1502 52.123ZM27.8438 35.0832C28.379 35.9273 29.1469 36.2297 29.7043 36.1427L33.484 35.57C33.5291 35.5966 33.6559 35.7242 33.6811 35.7579L36.2102 39.0813C37.385 40.5966 38.4626 42.115 38.8198 42.4369C39.1988 42.7838 39.6905 42.9952 40.1948 42.9284C40.3696 42.9039 43.8419 42.4176 43.6212 42.4485C43.7575 42.5397 47.5109 47.4432 47.4111 47.3138C47.5628 47.5155 47.6306 47.7317 47.6306 47.8469L47.6133 54.6788L47.6051 57.1574L25.0595 44.1413C25.06 43.9602 25.0965 30.5842 25.096 30.7597C25.2076 30.9353 28.0218 35.3631 27.8438 35.0832ZM23.3177 44.6371C23.3169 44.9482 23.4822 45.2364 23.7517 45.3923L48.0366 59.4181C48.3036 59.5715 48.6342 59.5724 48.9029 59.419C48.9113 59.4141 48.9147 59.404 48.9231 59.3989L53.9299 56.4872C54.196 56.3321 54.3605 56.0473 54.3613 55.7388L54.3664 53.3296L56.45 54.5371C56.4541 54.5397 56.4557 54.5446 56.4599 54.5471C56.5938 54.6242 56.743 54.6632 56.893 54.6632C57.0439 54.6632 57.1948 54.6242 57.3295 54.5454L61.4841 52.1293L62.3583 51.6229C62.6261 51.4678 62.7905 51.1822 62.7914 50.8737L62.8058 42.3639L73.7159 48.7166L46.8238 64.2502C46.8136 64.2502 46.8043 64.2502 46.7949 64.2502L15.6759 46.1535L23.3272 41.7389L23.3177 44.6371ZM48.317 37.8175L45.0557 38.268C44.8983 38.1518 43.4731 36.2431 40.0683 31.7747C39.5746 31.1119 38.8852 30.8527 38.3589 30.9199L34.5451 31.4722C34.2768 31.0923 34.1122 30.8593 33.5074 29.9282L33.5243 16.7546L34.227 17.8581L36.2671 21.0879C36.6506 21.6816 37.3728 22.2302 38.1292 22.1347L41.9186 21.5684C42.055 21.6501 47.0081 28.1994 46.9119 28.0728C47.4633 28.7616 48.1089 28.9818 48.6291 28.923C48.8039 28.8982 52.2564 28.408 52.0358 28.4393C52.2462 28.607 51.9148 28.2535 55.8259 33.2999C55.9954 33.5296 56.0565 33.7355 56.0565 33.8423L56.0234 52.284L54.374 51.328L54.3901 44.9185C54.3901 44.3827 53.9814 43.5642 53.8129 43.3395L50.2014 38.6507C49.3686 37.5169 48.4912 37.8523 48.317 37.8175ZM38.1572 13.2825C38.2225 13.3402 38.2835 13.4131 38.3395 13.5012L41.3018 18.1663C41.4738 18.4307 41.7645 18.791 42.1188 18.9766C42.4248 19.1656 42.7613 19.252 43.1571 19.2173L46.9339 18.6367C46.9678 18.6562 47.0373 18.7054 47.1255 18.8249L51.9228 25.1309C52.3523 25.7007 52.9448 26.0646 53.6409 26.0013L57.0329 25.4903C57.1109 25.5386 57.1744 25.5962 57.2388 25.6835L60.8555 30.38C61.0216 30.6012 61.0776 30.8037 61.0742 30.9156L61.0513 50.3736L60.8405 50.4961L57.7635 52.2789L57.7966 33.8389C57.7966 33.3228 57.5914 32.749 57.2227 32.2506L53.6019 27.5651C53.1822 26.9912 52.5606 26.6887 52.1008 26.6887C51.9948 26.6887 48.577 27.1659 48.472 27.1805C48.3141 27.0936 43.6696 20.9231 43.4195 20.6265C42.8953 19.9697 42.2252 19.7567 41.7739 19.8403L37.9833 20.4055C37.7663 20.2496 34.8884 15.6286 34.6618 15.3159L38.1572 13.2825ZM29.7331 27.2931C30.109 27.6294 32.5449 31.9023 33.2259 32.6178C33.6854 33.116 34.1512 33.1868 34.8338 33.2114L38.55 32.6774C38.6438 32.7462 43.4409 39.0742 43.5114 39.1668C44.0097 39.7749 44.4328 39.9418 44.8802 39.9912C45.3844 40.0559 44.6041 40.0588 48.6071 39.4999C49.1463 39.832 52.1527 44.0428 52.4415 44.4159C52.5208 44.5157 52.6532 44.7941 52.6492 44.9245L52.6263 55.237L49.3439 57.1466L49.3733 48.9488C49.3733 48.9395 49.3683 48.9317 49.3681 48.9225L49.3716 47.8495C49.3716 47.3308 49.1665 46.7569 48.7986 46.2611C44.4456 40.626 45.2905 41.7157 45.0734 41.4583C44.3134 40.5424 43.6402 40.7531 43.4639 40.7137C43.1637 40.7546 39.8124 41.2108 40.0248 41.1819C39.9895 41.1569 39.9358 41.1129 39.8617 41.0137L37.7732 38.2693C37.1407 37.4406 35.3036 35.0003 35.0065 34.6459C34.4545 33.9615 33.7988 33.7699 33.3497 33.8508L29.5565 34.4154C29.5013 34.3815 29.4204 34.297 29.3431 34.1891C29.113 33.8564 26.4174 29.5745 26.2377 29.3264L29.7331 27.2931ZM7.00093 44.4032L23.3475 34.968C23.347 35.1428 23.3327 40.0411 23.3336 39.7311L13.5104 45.3991C13.2425 45.5542 13.0773 45.8399 13.0764 46.1492C13.0756 46.4594 13.24 46.7459 13.5078 46.901L46.1059 65.8572C46.4209 66.0215 47.1766 66.0501 47.4806 65.875L75.8797 49.4718C76.1476 49.3166 76.3129 49.031 76.3137 48.7216C76.3145 48.4123 76.1501 48.1258 75.8823 47.9698L62.8055 40.3555L62.8083 38.2328L86.0168 51.7111C86.4728 51.9744 86.6002 52.2187 85.9999 52.568L54.2706 70.8795C53.5496 71.2987 52.0066 71.4099 51.093 70.8825C-7.06234 37.0916 11.67 47.976 6.97551 45.2482C6.40058 44.915 6.55254 44.6653 7.00093 44.4032Z" fill="white"/>
<path d="M64.1627 61.1997C65.4961 61.969 67.5811 61.9703 68.91 61.198C70.5609 60.2399 70.5521 58.3943 68.9058 57.4441C67.57 56.6728 65.4799 56.677 64.1483 57.4517C62.4995 58.4079 62.5036 60.2423 64.1627 61.1997ZM65.0196 58.952C65.8217 58.4869 67.2322 58.4827 68.0379 58.9477C68.4977 59.2123 68.5439 59.4046 68.0387 59.697C67.2386 60.1615 65.8325 60.1589 65.0306 59.6961C64.5439 59.4148 64.5308 59.237 65.0196 58.952Z" fill="white"/>
</svg>
