<svg width="93" height="92" viewBox="0 0 93 92" fill="none" xmlns="http://www.w3.org/2000/svg">
<path d="M28.1946 14.7793C27.2876 15.524 26.3995 16.355 25.5512 17.25C25.216 17.6042 25.2315 18.1649 25.5857 18.5001C25.9382 18.8347 26.4981 18.8233 26.8366 18.4664C27.6331 17.6249 28.4676 16.844 29.3177 16.146C29.6961 15.8358 29.7496 15.2786 29.4403 14.9011C29.1276 14.5236 28.5696 14.4692 28.1946 14.7793Z" fill="white"/>
<path d="M85.5375 25.2426C85.2875 25.0212 85.3882 25.1425 75.012 19.1007C74.4988 18.3608 73.8622 17.7566 73.075 17.3226C71.7552 16.5733 59.6841 9.44021 59.8438 9.63059C57.5252 8.28294 54.5137 8.54815 51.3467 10.3727C49.8226 11.2557 48.354 12.4724 46.9624 13.962L42.7908 11.5424C39.7067 9.73685 35.6534 10.1049 31.3754 12.5652C30.9521 12.8088 30.8053 13.3496 31.0489 13.7738C31.2925 14.1979 31.835 14.3388 32.2566 14.0995C35.9627 11.9683 39.3836 11.6002 41.8993 13.0706C42.5974 13.4758 50.8964 18.2934 50.7074 18.1839C43.8455 19.0416 37.8244 25.0906 34.4785 30.6635C31.3341 35.7154 29.0337 42.448 29.6218 48.2892L18.291 41.6931C17.0205 34.9159 20.3706 26.6979 24.5767 21.1375C24.8721 20.7479 24.7944 20.1933 24.4056 19.8978C24.0134 19.6041 23.4588 19.6801 23.1668 20.0697C18.6572 26.0295 15.28 34.505 16.5323 41.7702C9.59427 45.881 4.00279 55.6161 4.03875 63.5783C4.03875 67.6455 5.46588 70.7071 8.05407 72.199C8.23104 72.3018 21.1589 79.8494 21.3371 79.9121C24.3439 81.6677 27.9092 80.8154 30.9331 79.0625C32.3431 78.2439 34.9734 76.7221 38.2907 74.8166C39.1103 76.3073 40.2222 77.5144 41.5883 78.3075L47.9585 81.9159L47.9597 81.914C49.3633 82.7833 50.9576 83.2178 52.6822 83.2178C54.9577 83.2178 57.456 82.4662 60.0356 80.9752C68.7764 75.9232 75.8706 63.6258 75.8515 53.5625L75.8416 53.1349C77.184 52.3664 77.5758 52.1407 77.8506 51.9772C83.9962 48.4275 88.9791 39.8051 88.9618 32.7559C88.9443 29.2427 87.692 26.556 85.5375 25.2426ZM80.6755 24.4298C79.1474 24.7269 77.8169 25.328 76.6498 26.0331C76.7373 24.6425 76.6637 23.2284 76.3215 21.9055L80.6755 24.4298ZM52.233 11.9043C54.8229 10.409 57.209 10.1437 58.9523 11.1597L68.36 16.6375C68.1526 16.6747 67.9436 16.7213 67.7518 16.7758C64.4407 17.6641 61.3778 20.1535 59.3047 22.7193C59.2184 22.5629 59.1302 22.4169 59.0404 22.2821C58.2562 20.8538 56.7789 19.586 55.908 19.1506L48.5226 14.8669C49.7136 13.6372 50.9577 12.6429 52.233 11.9043ZM8.94041 70.6673C6.92066 69.5037 5.80798 66.9863 5.80798 63.574C5.77515 56.136 11.0206 47.0298 17.4669 43.2615C17.678 43.3844 29.5187 50.2773 29.008 49.9799C29.0074 49.9803 29.0085 49.9796 29.008 49.9799C28.9855 49.9946 28.9618 50.0119 28.941 50.0292C22.7417 54.1848 17.9802 62.563 17.3857 69.6816C17.1672 71.456 17.3592 74.1063 18.1183 75.9897L8.94041 70.6673ZM42.4677 76.7732C39.4475 75.0178 38.3971 71.15 38.3971 67.6282C38.3798 58.1505 45.087 46.5495 53.3474 41.7687C56.4085 40.0035 60.3513 38.9339 63.4203 40.7105L65.3727 41.8197C63.2209 42.0143 60.9297 42.9045 59.0611 43.9881C50.3652 49.0367 43.2279 61.1213 43.2279 71.3809C43.2279 73.9507 43.8096 76.3697 44.5358 77.9438L42.4677 76.7732ZM59.151 79.4435C51.0201 84.141 44.9971 80.2361 44.9971 71.3809C44.9971 61.7911 51.7483 50.2784 59.9492 45.5188C64.4796 42.8896 69.7832 42.4354 72.4945 46.9633C73.6591 48.8917 73.78 50.6357 74.0478 52.22C74.0478 52.3763 74.0495 52.5552 74.065 52.6269C74.0115 52.8039 74.1016 70.8022 59.151 79.4435ZM76.9556 50.4508C76.6273 50.646 76.2022 50.8895 75.6963 51.178C75.4947 49.3118 74.8027 47.3611 74.0115 46.0527C73.3171 44.8954 72.4591 43.9438 71.3214 43.1881C70.938 42.9315 64.1227 39.0756 64.2997 39.1762C61.0861 37.3128 56.879 37.6903 52.4628 40.2371C43.7134 45.3003 36.6106 57.5899 36.6278 67.6299C36.6278 69.694 37.0304 71.8114 37.5384 73.208C34.152 75.1526 31.4756 76.7015 30.0451 77.5326C22.7344 81.7689 18.3184 76.8583 19.1446 69.8631C19.8378 61.7698 25.1891 54.2629 31.1252 50.7771C31.5179 50.6049 31.716 50.1312 31.6346 49.7778C30.3309 43.9529 32.8437 36.6329 35.9886 31.587C42.1375 21.3798 54.6851 15.0491 58.2681 24.7148C58.5224 25.3995 59.4085 25.4561 59.8006 24.9438C64.4642 18.843 72.7018 14.919 74.6114 22.3549C75.0368 24.0153 74.9824 26.039 74.649 27.7203C74.5392 28.2708 74.9649 28.7777 75.5164 28.7777C75.5253 28.7777 75.5327 28.7693 75.5416 28.7689C75.7278 28.7637 75.9115 28.708 76.0641 28.5876C81.7139 24.1362 87.1573 25.5933 87.1926 32.7628C87.2081 39.2471 82.6209 47.1784 76.9556 50.4508Z" fill="white"/>
<path d="M54.8155 58.0881C54.4415 57.646 53.6957 57.7077 53.3925 58.1669L50.0907 63.2007C49.8229 63.6094 49.937 64.1579 50.3447 64.4257C50.7584 64.6967 51.3052 64.5752 51.5697 64.1717L53.2701 61.5797L53.2888 71.5968C53.2905 72.0849 53.6862 72.4797 54.1734 72.4797C54.6624 72.4788 55.0598 72.0823 55.058 71.5934L55.0381 60.8895L56.9379 62.888C57.2782 63.2431 57.8363 63.2569 58.1887 62.92C58.5429 62.5839 58.5568 62.0233 58.2198 61.6699L54.8155 58.0881Z" fill="white"/>
<path d="M68.7348 60.5504C68.327 60.2835 67.7776 60.3941 67.5098 60.8044L65.809 63.3954L65.7889 53.3793C65.7872 52.8913 65.3915 52.4965 64.9043 52.4965C64.4154 52.4973 64.018 52.8947 64.0197 53.3828L64.0412 64.0876L62.1416 62.0881C61.8082 61.7331 61.2432 61.7193 60.8907 62.0562C60.5365 62.3922 60.5227 62.952 60.8596 63.3062L64.2682 66.8942C64.6977 67.393 65.3998 67.243 65.6853 66.8093L68.9887 61.7754C69.2565 61.3668 69.1425 60.8182 68.7348 60.5504Z" fill="white"/>
</svg>
