<svg width="93" height="92" viewBox="0 0 93 92" fill="none" xmlns="http://www.w3.org/2000/svg">
<path d="M76.7209 49.871C76.7209 49.5548 76.5525 49.2628 76.2786 49.1047L71.6784 46.4509C71.4037 46.2937 71.0668 46.2937 70.7938 46.4509L28.42 70.9153L28.3202 21.9477C28.3194 21.6934 28.0423 21.279 27.8805 21.1849L23.2967 18.5207C23.0229 18.3609 22.6834 18.3609 22.4095 18.519L16.7114 21.8087C16.4394 21.9656 16.2695 22.3968 16.269 22.5741C16.269 22.5736 16.269 22.5745 16.269 22.5741C16.269 22.5745 16.269 22.5762 16.269 22.5766L16.2915 33.059C16.2924 33.5471 16.688 33.9419 17.1761 33.9419C17.1753 33.9419 17.177 33.9419 17.1761 33.9419C17.6651 33.941 18.0616 33.5436 18.0607 33.0555L18.0417 24.1144L20.8537 25.7488L20.9815 86.0392L18.1696 84.4047L18.0841 43.8912C18.0832 43.4031 17.6875 43.0083 17.1994 43.0083C17.1986 43.0083 17.2003 43.0083 17.1994 43.0083C16.7105 43.0092 16.314 43.4066 16.3148 43.8947L16.4012 84.9161C16.4021 85.2306 16.5697 85.5208 16.8418 85.6789C17.019 85.7819 21.604 88.4455 21.4267 88.3426C21.4274 88.3429 21.4275 88.3437 21.4281 88.344C21.5646 88.4226 21.7175 88.4624 21.8696 88.4624C22.0225 88.4624 22.1745 88.4226 22.3119 88.344L76.289 57.1803C76.5637 57.0214 76.7322 56.7285 76.7313 56.4115L76.7133 49.8997C76.7136 49.8895 76.7209 49.8813 76.7209 49.871ZM71.2361 48.2383L74.0671 49.871C16.0212 83.3841 32.7134 73.7468 28.4334 76.2179C28.4328 76.0362 28.4235 72.7538 28.4241 72.9559L71.2361 48.2383ZM22.8501 20.3072L25.6706 21.9469L21.7387 24.2167C21.5615 24.1137 18.7385 22.4729 18.9186 22.5775L22.8501 20.3072ZM22.751 86.0477L22.6231 25.7494L26.5544 23.4798C26.585 38.4947 26.6288 59.9987 26.665 77.7519C26.6654 77.9122 26.7102 78.065 26.7886 78.1982C27.0354 78.6246 27.5774 78.762 27.9962 78.5208C30.1083 77.3011 63.7316 57.8837 74.9482 51.4061L74.9603 55.9044L22.751 86.0477Z" fill="white"/>
<path d="M17.1923 41.5397C17.6813 41.5389 18.0778 41.1415 18.077 40.6534L18.0666 36.1068C18.0657 35.6187 17.6692 35.2239 17.182 35.2239C16.693 35.2247 16.2965 35.6221 16.2974 36.1102L16.3077 40.6568C16.3086 41.1449 16.7051 41.5397 17.1923 41.5397Z" fill="white"/>
<path d="M43.6219 50.7505C43.6228 51.065 43.7904 51.3552 44.0616 51.5125C44.2714 51.6343 48.5534 54.1223 48.2803 53.9636L48.2826 53.9659C48.5516 54.1208 48.8894 54.1245 49.1663 53.965L54.7824 50.7229C55.0571 50.5639 55.2256 50.2711 55.2247 49.954L55.172 30.768C55.1711 30.4597 54.8829 30.0936 54.7323 30.0061L50.514 27.5544C50.2384 27.3937 49.9006 27.3955 49.6268 27.5527L44.0107 30.7957C43.7341 30.9558 43.5692 31.2504 43.5684 31.5611L43.5688 31.5628L43.5684 31.5645L43.6219 50.7505ZM45.3894 50.2382L45.3419 33.1016L47.7872 34.5226C47.7893 35.273 47.8359 51.9451 47.8351 51.6593L45.3894 50.2382ZM49.6044 51.6688C49.6033 51.2829 49.5559 34.2119 49.5568 34.5228C49.7341 34.4205 53.6564 32.1567 53.4071 32.3006L53.4538 49.4469L49.6044 51.6688ZM50.0673 29.3409L52.5223 30.7679L48.6717 32.9905L46.2179 31.5645L50.0673 29.3409Z" fill="white"/>
<path d="M30.4694 58.1479C30.4703 58.4624 30.6379 58.7526 30.91 58.9098C31.1197 59.0317 35.4018 61.5197 35.1287 61.361L35.1301 61.3624C35.4004 61.5198 35.7392 61.5206 36.0138 61.3624L41.6299 58.1203C41.9046 57.9613 42.0731 57.6685 42.0722 57.3514L42.0437 46.5157C42.043 46.2628 41.777 45.8543 41.604 45.7538L37.3865 43.3021C37.1127 43.1423 36.7732 43.1423 36.4993 43.3004L30.8832 46.5434C30.6067 46.7035 30.4417 46.9981 30.4409 47.3088L30.4413 47.3105L30.4409 47.3122L30.4694 58.1479ZM32.2369 57.6356L32.2145 48.8491C32.3917 48.952 34.8369 50.3729 34.6597 50.2699C34.6608 50.7129 34.684 59.6095 34.6826 59.0567L32.2369 57.6356ZM36.4521 59.066C36.4517 58.8884 36.4278 49.6873 36.4293 50.2704C36.9128 49.9913 40.5022 47.9193 40.2788 48.0483L40.3013 56.8443L36.4521 59.066ZM36.9399 45.0886L39.3941 46.5156L35.5442 48.7382L33.0904 47.3122L36.9399 45.0886Z" fill="white"/>
<path d="M56.7497 42.9729C56.7497 43.2874 56.9173 43.5785 57.1894 43.7366C57.3996 43.8588 61.6812 46.3474 61.4081 46.1886C61.4086 46.1889 61.4088 46.1897 61.4095 46.19C61.6865 46.3486 62.0214 46.3471 62.2941 46.19L67.9111 42.947C68.1849 42.7889 68.3534 42.4961 68.3534 42.1799L68.3249 14.4458C68.3249 14.2688 68.1013 13.8077 67.8851 13.6821L67.8831 13.6809L63.6677 11.2304C63.3938 11.0706 63.0543 11.0706 62.7805 11.2287L57.1635 14.4717C56.8492 14.6539 56.7217 15.031 56.7212 15.2371L56.7497 42.9729ZM58.5181 42.4624L58.4921 16.7761C58.6693 16.8791 61.1164 18.3013 60.9392 18.1983C60.9425 21.4463 60.9579 36.4912 60.9654 43.8852L58.5181 42.4624ZM62.7348 43.892C62.7318 40.9123 62.7119 21.2538 62.7088 18.1994C63.0314 18.0131 66.7978 15.839 66.5574 15.9778L66.5833 41.6702L62.7348 43.892ZM63.221 13.0169L65.6751 14.444L61.8245 16.6665L59.3707 15.2406L63.221 13.0169Z" fill="white"/>
<path d="M57.5037 3.63952C57.0675 3.41059 56.537 3.58077 56.3107 4.01531L47.2633 21.3733L43.6496 19.7492C43.2246 19.5591 42.727 19.7285 42.5076 20.1371L33.6208 36.6796C33.3893 37.1106 33.5509 37.6462 33.9811 37.8778C34.115 37.9495 34.2584 37.9832 34.3992 37.9832C34.7145 37.9832 35.0195 37.8147 35.1793 37.5175L43.6764 21.7007L47.2987 23.3291C47.7272 23.5226 48.2291 23.3464 48.4459 22.9309L57.8795 4.83254C58.105 4.39973 57.9374 3.86499 57.5037 3.63952Z" fill="white"/>
</svg>
