<svg width="93" height="92" viewBox="0 0 93 92" fill="none" xmlns="http://www.w3.org/2000/svg">
<path d="M8.92904 37.1229C8.92989 37.4305 9.09432 37.7153 9.36046 37.8696L12.6082 39.757C12.6045 43.0945 12.6216 27.6668 12.5719 72.3975C12.5694 72.7112 12.7355 73.001 13.0068 73.157C13.1843 73.2592 14.3345 73.9214 17.5896 75.7955C17.8545 75.9481 18.1824 75.952 18.4542 75.7972C20.5954 74.5595 23.2074 73.0497 23.0218 73.157C23.2888 73.0027 23.4532 72.7196 23.4558 72.412L23.4794 69.2191L33.0858 74.8015L33.0199 84.134C33.0173 84.4459 33.1826 84.735 33.453 84.8909C33.8967 85.1481 31.797 83.9312 38.035 87.5464C38.3084 87.7046 38.639 87.6993 38.9013 87.5489C38.9023 87.5483 38.9026 87.5471 38.9037 87.5465C38.9047 87.5459 38.9061 87.5462 38.9072 87.5455L43.4731 84.8901C43.7384 84.7358 43.902 84.4527 43.9045 84.1459L43.9704 74.875L69.5479 60.1065L69.5253 62.9724C69.5227 63.2852 69.6888 63.5751 69.9601 63.731C70.1376 63.8332 71.1692 64.4271 74.5429 66.3695C74.8135 66.5254 75.1416 66.5227 75.4075 66.3712C75.4083 66.3708 75.4085 66.3698 75.4094 66.3693C75.4101 66.3689 75.411 66.3691 75.4117 66.3687L79.959 63.7302C80.2243 63.5759 80.3887 63.2937 80.3913 62.9868C80.56 43.9851 80.4118 44.4949 80.4279 29.5774L83.657 27.713C83.9265 27.557 84.0918 27.2689 84.091 26.9578L84.0706 21.3714C84.0701 21.1968 83.8732 20.7608 83.6392 20.6247L83.6352 20.6223L55.8148 4.45448C55.5444 4.29768 55.213 4.29768 54.9443 4.45279L46.5549 9.29672C46.1396 9.53659 45.9972 10.0672 46.2371 10.4825C46.4769 10.8978 47.0075 11.0377 47.4228 10.8003L55.3766 6.20729L81.471 21.3722L37.6023 46.6994C28.2381 41.2576 21.3487 37.2541 11.5082 31.5356L40.7015 14.6806C41.1168 14.4407 41.2592 13.9101 41.0194 13.4948C40.7778 13.0778 40.2464 12.9362 39.8336 13.177L9.34266 30.7812C9.03564 30.9591 8.90915 31.3292 8.9087 31.5322C8.90831 31.707 8.92874 37.2976 8.92904 37.1229ZM39.4429 75.4836C39.4423 75.3053 39.4062 64.2411 39.4084 64.929L78.7193 42.2326L78.7419 52.7938C49.615 69.6106 66.7687 59.7068 39.4429 75.4836ZM39.4027 62.9275L39.375 53.2905L78.6944 30.5804L78.7151 40.2304L39.4027 62.9275ZM10.6505 33.0443L36.7348 48.2033L36.7475 51.7784C36.5735 51.6772 8.90662 35.5949 10.6632 36.6185L10.6505 33.0443ZM37.6214 54.1576C37.622 54.1576 37.6227 54.157 37.6233 54.157C37.6299 54.1571 37.6349 54.1617 37.6414 54.1617C37.6455 56.3399 37.6266 46.2712 37.6814 75.464C33.6204 73.1041 18.4684 64.2987 14.4104 61.9402L14.3468 40.7674C38.1604 54.6116 37.245 54.1576 37.6214 54.1576ZM14.3824 63.9327L17.2369 65.5916C17.2354 65.7663 17.1633 74.0348 17.1675 73.5503L14.312 71.906L14.3824 63.9327ZM21.7233 71.9026L18.9042 73.5316L18.9644 66.5975L21.7513 68.2156L21.7233 71.9026ZM34.8142 75.8059C34.9899 75.9081 37.8483 77.5713 37.6674 77.4661C37.6661 77.6443 37.6093 85.8157 37.6129 85.2952L34.7591 83.6416L34.8142 75.8059ZM42.1721 83.639L39.3496 85.28L39.4047 77.5113L42.2272 75.8816L42.1721 83.639ZM71.2915 59.0997L74.181 57.4314C74.1686 58.8309 74.1186 64.434 74.1214 64.1241L71.2653 62.48L71.2915 59.0997ZM78.6597 62.4766L75.8575 64.1031C75.8842 61.1291 75.929 56.1251 75.9262 56.435L78.7292 54.8085L78.6597 62.4766ZM38.4842 51.7894C38.4834 51.5691 38.4699 47.9765 38.4708 48.2026L82.3399 22.8753L82.3534 26.4611L38.4842 51.7894Z" fill="black"/>
<path d="M43.2681 13.199L45.2319 12.0658C45.6473 11.8259 45.7897 11.2953 45.5498 10.88C45.3091 10.4656 44.7776 10.3232 44.364 10.5622L42.4002 11.6954C41.9849 11.9353 41.8425 12.4658 42.0823 12.8812C42.2434 13.1592 42.5349 13.3151 42.835 13.3151C42.9825 13.3151 43.1316 13.2778 43.2681 13.199Z" fill="black"/>
<path d="M60.7681 56.8419L56.4768 59.3194C56.0615 59.5592 55.9191 60.0898 56.159 60.5051C56.3995 60.9215 56.9317 61.0616 57.3448 60.823L61.6361 58.3455C62.0514 58.1056 62.1938 57.575 61.9539 57.1597C61.7132 56.7427 61.1818 56.6003 60.7681 56.8419Z" fill="black"/>
<path d="M60.7681 44.496L56.4768 46.9735C56.0615 47.2133 55.9191 47.7439 56.159 48.1592C56.3995 48.5757 56.9317 48.7157 57.3448 48.4771L61.6361 45.9996C62.0514 45.7597 62.1938 45.2292 61.9539 44.8138C61.7132 44.3968 61.1818 44.2544 60.7681 44.496Z" fill="black"/>
</svg>
