<svg width="93" height="93" viewBox="0 0 93 93" fill="none" xmlns="http://www.w3.org/2000/svg">
<rect x="0.5" y="0.5" width="92" height="92" rx="46" fill="black"/>
<path d="M56.8274 40.3981L51.8901 39.3904C51.7254 39.3561 51.5507 39.3998 51.4191 39.507C51.2876 39.6148 51.2113 39.7762 51.2113 39.9465L51.2157 41.8474L47.5022 43.9916C47.3264 44.0934 47.2192 44.2807 47.2192 44.4836L47.228 47.7367C47.228 48.1676 47.6986 48.4433 48.0771 48.2253L51.2301 46.405L51.2334 47.6571C51.2345 47.9014 51.3915 48.1181 51.6237 48.1938C51.8602 48.2695 52.1123 48.1883 52.256 47.9904L57.1713 41.2875C57.2851 41.1316 57.3117 40.9287 57.2431 40.7485C57.1735 40.5689 57.0165 40.4362 56.8274 40.3981ZM52.3599 45.9335L52.3588 45.425C52.3577 45.2232 52.2505 45.0369 52.0747 44.9358C51.9 44.8352 51.6845 44.8357 51.5098 44.9363L48.3579 46.7561L48.3524 44.8081L52.0659 42.6639C52.2417 42.5622 52.3489 42.3748 52.3489 42.1719L52.3456 40.6385L55.7352 41.3306L52.3599 45.9335Z" fill="white"/>
<path d="M48.7227 41.6976C48.8985 41.5959 49.0068 41.4086 49.0057 41.2057L48.9958 37.9526C48.9947 37.7509 48.8874 37.5646 48.7117 37.4634C48.537 37.3628 48.3214 37.3634 48.1467 37.464L44.9948 39.2837L44.9915 38.0322C44.9904 37.7879 44.8334 37.5712 44.6013 37.4955C44.3669 37.4198 44.1137 37.5016 43.9689 37.6989L39.0536 44.4013C38.9398 44.5571 38.9132 44.76 38.9818 44.9402C39.0514 45.1199 39.2084 45.252 39.3975 45.2907C44.5033 46.3295 44.3338 46.3105 44.4476 46.3105C44.7527 46.3105 45.0136 46.0642 45.0136 45.7428L45.0081 43.8418L48.7227 41.6976ZM44.1579 43.0254C43.9822 43.1271 43.8738 43.3145 43.8749 43.5174L43.8793 45.0508L40.4897 44.3587L43.865 39.7558L43.8661 40.2643C43.8672 40.4661 43.9744 40.6524 44.1502 40.7535C44.3249 40.8541 44.5405 40.8536 44.7151 40.753L47.867 38.9332L47.8726 40.8812L44.1579 43.0254Z" fill="white"/>
<path d="M54.3389 66.616L53.0852 67.3446C52.8143 67.5016 52.7226 67.8482 52.8796 68.1185C53.0353 68.3865 53.3808 68.4812 53.6534 68.323L54.9071 67.5944C55.178 67.4374 55.2697 67.0909 55.1128 66.8206C54.9547 66.5497 54.6064 66.4601 54.3389 66.616Z" fill="white"/>
<path d="M62.7773 21.4478C62.4774 21.2668 59.4171 19.4835 59.5305 19.5531C58.9324 19.2087 58.1839 19.264 57.4233 19.7062L31.7106 34.5465C30.3375 35.3469 29.2696 37.2053 29.2784 38.7774L29.3315 62.3326C29.3315 63.206 29.6554 63.871 30.2392 64.2032C31.2227 64.7749 33.624 66.1703 33.4729 66.0837C34.1357 66.4635 34.9065 66.3159 35.5734 65.9311L42.6179 61.8639L42.6207 63.1354L37.8011 65.9322C37.7132 65.9834 37.6428 66.0562 37.5941 66.1415C37.5441 66.2265 37.5158 66.324 37.5158 66.4259L37.5081 69.5087C37.5081 69.7115 37.6153 69.8989 37.7911 70.0006L44.0164 73.5948C44.1913 73.6955 44.4056 73.696 44.5814 73.5948C44.5811 73.5949 44.5816 73.5946 44.5814 73.5948C45.7561 72.9122 52.5979 68.9363 52.1598 69.1908C52.4307 69.0338 52.5225 68.6873 52.3655 68.417C52.2074 68.1455 51.8602 68.0554 51.5916 68.2124L44.868 72.1193L44.8724 70.3543L56.9413 63.3354L56.9369 65.1059L55.9021 65.7073C55.6313 65.8643 55.5395 66.2108 55.6965 66.4806C55.8535 66.752 56.2017 66.8416 56.4704 66.6857L57.786 65.9212C57.9606 65.8206 58.0679 65.6343 58.0679 65.4336L58.0756 62.3564C58.0757 62.3535 58.0778 62.3511 58.0778 62.3481C58.0778 62.1463 57.9695 61.96 57.7948 61.8589L51.5684 58.2653C51.4363 58.1893 51.285 58.1898 51.1419 58.2283L51.1382 56.9447L61.2828 51.0876C62.6537 50.296 63.7249 48.4398 63.7216 46.8622L63.6708 23.3097C63.6675 22.45 63.3493 21.7931 62.7773 21.4478ZM32.5508 64.2386L30.803 63.222C30.5874 63.0993 30.4636 62.7748 30.4636 62.3315L30.4105 38.7729C30.4105 38.7724 30.4105 38.7713 30.4105 38.7707C30.4039 37.606 31.2607 36.1196 32.2789 35.526L57.9916 20.6857C58.2436 20.5387 58.4802 20.4635 58.677 20.4635C58.7865 20.4635 58.8827 20.4862 58.9634 20.5326L60.7035 21.5453C60.6858 21.5552 60.6681 21.5652 60.6504 21.5751L34.9399 36.422C33.5222 37.2392 32.4982 39.1522 32.5033 40.6535C32.5685 72.9474 32.546 61.7921 32.5508 64.2087C32.5508 64.2187 32.5508 64.2286 32.5508 64.2386ZM44.7301 60.6444C44.7304 60.7596 44.746 66.4142 44.745 66.0534L43.7588 65.4784C43.7586 65.3622 43.7486 61.0975 43.7489 61.2138C43.8623 61.148 44.8435 60.5786 44.7301 60.6444ZM38.6457 67.4065C38.7605 67.4728 44.0776 70.5438 43.74 70.3488L43.7356 72.1255L38.6413 69.1842L38.6457 67.4065ZM51.1483 59.4941L51.2887 59.4112L56.3814 62.3499L44.3066 69.3677C44.1919 69.3013 38.8765 66.2262 39.2139 66.4215L42.6237 64.4427L42.6268 65.8046C42.6268 66.0058 42.734 66.1915 42.9076 66.2927C43.0221 66.3594 45.1657 67.6087 45.0314 67.5304C45.0318 67.5307 45.032 67.5311 45.0324 67.5314C45.1386 67.5925 45.429 67.6283 45.5973 67.5309L50.8752 64.4812C51.0272 64.3933 51.1138 64.2369 51.1378 64.0662C51.1416 64.0397 51.1582 64.0171 51.1582 63.9898V63.9873L51.1483 59.4941ZM50.025 63.6648L45.8776 66.0613C45.8766 65.704 45.8595 59.64 45.8605 59.9918L50.0085 57.5969L50.025 63.6648ZM60.7167 50.107C60.3576 50.313 36.5689 64.0484 35.0074 64.9505C34.6171 65.1766 34.2622 65.233 34.0378 65.102C33.8156 64.9743 33.6873 64.6465 33.6862 64.2032C33.6812 61.7865 33.7043 72.9421 33.6376 40.6474C33.6314 39.5438 34.4559 38.0098 35.5082 37.4032L61.2176 22.5596C61.9819 22.1169 62.5362 22.3246 62.5387 23.3125L62.5895 46.8644C62.5929 48.0346 61.735 49.5194 60.7167 50.107Z" fill="white"/>
<path d="M60.6968 24.9918C60.5222 24.8912 60.3066 24.8912 60.1319 24.9918L35.4761 39.2268C35.3003 39.3285 35.1931 39.5159 35.1931 39.7187L35.2439 60.2089C35.2439 60.6397 35.7145 60.9155 36.093 60.6975L60.7488 46.4625C60.9246 46.3608 61.0318 46.1735 61.0318 45.9706L60.981 25.4805C60.981 25.2787 60.8726 25.0924 60.6968 24.9918ZM36.3738 59.2282L36.3263 40.0432L59.8511 26.4611L59.8986 45.6461L36.3738 59.2282Z" fill="white"/>
<path d="M48.5934 54.6961L47.1164 55.5484C46.8455 55.7049 46.7526 56.0509 46.9096 56.3218C47.0644 56.5918 47.4102 56.6853 47.6824 56.5291L49.1594 55.6767C49.8078 55.3022 49.242 54.3217 48.5934 54.6961Z" fill="white"/>
</svg>
