<svg width="93" height="92" viewBox="0 0 93 92" fill="none" xmlns="http://www.w3.org/2000/svg">
<path d="M23.5665 40.7223L9.54494 32.6271C9.27626 32.4728 8.94486 32.4711 8.67787 32.6262C8.41003 32.7813 8.2439 33.067 8.24306 33.3763L8.2295 37.9872C8.22865 38.2982 8.39393 38.5856 8.66346 38.7415L22.6859 46.8368C22.8198 46.9139 22.9698 46.9529 23.1198 46.9529C23.6036 46.9529 23.9865 46.5603 23.9878 46.0875L24.0005 41.4767C24.0013 41.1656 23.836 40.8783 23.5665 40.7223ZM22.2561 44.5839L9.96704 37.4896L9.97467 34.8799L22.2629 41.9742L22.2561 44.5839Z" fill="black"/>
<path d="M30.5587 12.102L26.9581 14.1947C26.5437 14.4354 26.403 14.9668 26.6445 15.3813C26.885 15.7951 27.4156 15.936 27.8311 15.6949L31.4317 13.6022C31.8461 13.3615 31.9868 12.8301 31.7453 12.4156C31.5037 12.0003 30.9723 11.8604 30.5587 12.102Z" fill="black"/>
<path d="M18.3784 27.5102C18.3793 27.8196 18.5445 28.1052 18.8124 28.2603L26.0779 32.4542C26.2118 32.5313 26.3618 32.5703 26.5118 32.5703C26.6627 32.5703 26.8127 32.5313 26.9483 32.4525L49.6076 19.2844C49.8746 19.1293 50.039 18.8428 50.039 18.5335C50.0382 18.2232 49.8729 17.9376 49.6051 17.7825L42.3396 13.587C42.07 13.431 41.7369 13.431 41.4691 13.5887L18.8098 26.7584C18.5429 26.9135 18.3776 27.2 18.3784 27.5102ZM41.9073 15.3415L47.4395 18.5369L26.5101 30.6997L20.978 27.506L41.9073 15.3415Z" fill="black"/>
<path d="M87.7173 75.63C87.5435 75.5289 84.8402 73.9576 85.0141 74.0587L84.9983 67.0957C84.9974 66.7855 84.8321 66.4998 84.5635 66.3456C84.5565 66.3415 84.5479 66.3433 84.5408 66.3395L67.0117 56.1534C66.743 55.9957 66.4108 55.9974 66.1421 56.1517L60.6394 59.3288C58.2986 56.9567 58.0705 52.5152 60.2438 49.9745C63.5868 46.0813 73.0322 45.1263 79.6509 36.3055C88.5225 24.5403 82.7103 9.99328 69.6892 6.15195C63.1968 4.24658 55.6982 5.36539 49.126 9.21427C48.9876 9.29256 48.8538 9.37414 48.72 9.45646L42.3284 5.7663C42.0589 5.61034 41.7258 5.61034 41.458 5.76799L34.251 9.95675C33.8365 10.1975 33.6958 10.7289 33.9374 11.1434C34.1781 11.5578 34.7095 11.6968 35.124 11.457L41.8962 7.5208L60.9422 18.5173L26.5206 38.5207L7.47498 27.5246L24.3029 17.7452C24.7165 17.5045 24.8581 16.973 24.6165 16.5586C24.3758 16.1433 23.8435 16.0034 23.4299 16.245C1.90089 28.7557 24.6579 15.5312 5.30687 26.777C5.15596 26.8646 4.87642 27.223 4.87545 27.5246L4.83985 39.9374C4.839 40.2485 5.00428 40.5358 5.27381 40.6918L26.0531 52.6885C26.3246 52.8448 26.6561 52.8414 26.9202 52.6893C27.1491 52.5575 62.8921 31.7849 63.0739 31.6786C63.3408 31.5243 63.5053 31.2395 63.5061 30.931C63.5211 25.6334 63.541 18.2582 63.5417 18.5139C63.5409 18.2091 63.3791 17.9201 63.1078 17.763L55.2237 13.2113C59.5164 11.4163 63.9689 11.0492 67.9144 12.2088C76.7607 14.8171 80.8038 24.2549 74.6196 32.5169C68.3629 40.8055 60.8326 39.6009 55.4354 45.8781C51.5377 50.4545 51.4551 57.7019 55.0835 62.5365L50.1525 65.3836C49.8811 65.5407 49.7193 65.8297 49.7185 66.1345L49.7189 66.1362L49.7185 66.1379L49.7405 73.7797C49.7414 74.0882 49.9058 74.373 50.172 74.5273L67.7237 84.7271C67.9959 84.8853 68.3274 84.8825 68.5942 84.7288C68.6018 84.7243 68.6048 84.7153 68.6123 84.7107L71.5863 83.0032C71.7621 83.1053 78.0207 86.7425 77.845 86.6404L77.8472 86.6426C78.1112 86.7947 78.4426 86.7982 78.7143 86.6418L87.7266 81.4393C87.9962 81.2834 88.1615 80.996 88.1606 80.685L88.1487 76.3776C88.1482 76.2027 87.986 75.7859 87.7173 75.63ZM6.60706 29.0282C17.2787 35.1896 14.9393 33.8389 25.6522 40.0241C25.6513 40.3692 25.6228 50.6511 25.6234 50.4356L6.57739 39.4399L6.60706 29.0282ZM27.3593 50.4263C27.3598 50.2439 27.3889 39.8417 27.3884 40.024L61.8016 20.0254L61.772 30.4284L27.3593 50.4263ZM80.6601 73.5357C80.86 73.6519 85.772 76.5071 85.5492 76.3776L78.2697 80.5803C77.7962 80.3051 73.0833 77.5656 73.3814 77.7389C74.4641 77.1136 81.0797 73.2934 80.6601 73.5357ZM81.0952 71.7803C80.8265 71.6226 80.4934 71.6243 80.2247 71.7786C80.0487 71.8802 70.6201 77.3286 71.2157 76.9844C70.9444 77.1415 70.7826 77.4306 70.7818 77.7354L70.7822 77.7371L70.7818 77.7388V77.7413C70.7823 77.9196 70.7927 81.6898 70.792 81.4574L69.0247 82.4725L69.012 76.833L83.2658 68.6038L83.276 73.0485C83.1022 72.9474 80.9213 71.6792 81.0952 71.7803ZM66.5744 57.9062L82.393 67.0984L68.1389 75.3319L52.318 66.1379C54.4941 64.8812 66.7939 57.779 66.5744 57.9062ZM56.7551 47.0071C61.479 41.5096 69.7705 41.8238 76.0071 33.5602C83.0164 24.1963 78.1769 13.4248 68.4051 10.5441C63.4266 9.0791 58.0736 9.87412 53.369 12.1291L50.4601 10.45C56.517 7.05208 63.318 6.09092 69.1993 7.81745C80.8487 11.2542 86.5468 24.281 78.2642 35.2596L78.2634 35.2622C71.583 44.1647 62.9962 44.1035 58.9258 48.8447C56.2658 51.9546 56.3935 57.1279 59.0866 60.2253L56.5957 61.6634C53.3007 57.4582 53.3238 51.0346 56.7551 47.0071ZM51.4747 73.2771L51.4586 67.6458C52.904 68.4858 65.6597 75.8986 67.2719 76.8356L67.288 82.4666L51.4747 73.2771ZM72.5329 81.5465L72.5234 79.2479L77.4019 82.0836C77.4024 82.2584 77.4086 84.5544 77.4082 84.3796L72.5329 81.5465ZM79.1441 84.3888C79.1437 84.214 79.1376 81.9089 79.1381 82.0837C79.4212 81.9202 86.5942 77.7789 86.4171 77.8812L86.4231 80.1874L79.1441 84.3888Z" fill="black"/>
</svg>
