<svg width="93" height="93" viewBox="0 0 93 93" fill="none" xmlns="http://www.w3.org/2000/svg">
<rect x="0.5" y="0.5" width="92" height="92" rx="46" fill="black"/>
<path d="M29.4866 63.8398L29.4879 63.8406C29.6625 63.9411 29.8781 63.9417 30.0528 63.8411C31.1963 63.1819 32.8705 62.2166 32.7249 62.3006C32.8985 62.1999 33.0068 62.0148 33.0079 61.8136L33.0149 60.5198L43.6485 66.6591L43.6278 71.5556C43.6267 71.7585 43.735 71.9464 43.9108 72.0481L46.5928 73.5986C46.7746 73.702 46.9879 73.697 47.1578 73.5992C47.1582 73.5989 47.1584 73.5984 47.1588 73.5982C47.7026 73.2815 49.9664 71.963 49.8221 72.047C49.9957 71.9459 50.1018 71.7607 50.1029 71.56L50.1237 66.6419L59.9354 60.9397L59.929 62.3282C59.9279 62.5311 60.0351 62.719 60.2109 62.8207L62.883 64.3718C63.0553 64.4721 63.2726 64.4745 63.449 64.3729C64.5904 63.7101 66.2431 62.7505 66.1222 62.8207C66.2958 62.7196 66.403 62.5338 66.4042 62.3326C66.429 53.0501 66.3953 68.875 66.4672 38.3092C66.4849 31.8705 61.94 23.9996 56.3338 20.7626C53.4925 19.1219 50.7917 18.8776 48.7376 20.0738C32.7411 29.3699 29.5975 31.1992 29.7562 31.1066C27.7314 32.2877 26.6101 34.7062 26.6013 37.9239L26.5803 43.3317C26.5792 43.6445 26.8313 43.8988 27.1441 43.8999C27.4283 43.8938 27.7113 43.6489 27.7124 43.3361L27.7334 37.9278C27.7411 35.1198 28.6676 33.0415 30.3403 32.0747C32.3062 30.9363 34.8053 31.6217 36.7933 32.7699C42.0866 35.8261 46.3795 43.2559 46.3618 49.3325L46.3176 66.893C43.105 65.0382 35.3288 60.5485 27.6892 56.1377L27.708 48.4768C27.7091 48.164 27.4559 47.9097 27.143 47.9092C26.8313 47.9092 26.577 48.1618 26.5759 48.4735C26.5242 69.5723 26.5949 42.6083 26.5328 61.808C26.5317 62.0109 26.64 62.1994 26.8158 62.3006L29.4866 63.8398ZM31.8781 61.4824L30.3414 62.368L30.3551 58.9842L31.8864 59.8682L31.8781 61.4824ZM44.7777 67.3111L46.3211 68.2022L46.312 72.1288L44.761 71.2322L44.7777 67.3111ZM47.4499 66.8868L47.493 49.6602L65.3329 39.2926C65.3198 44.5028 65.3092 48.7666 65.2898 56.5191C57.4736 61.0615 53.8266 63.1809 47.4499 66.8868ZM48.972 71.2317L47.4442 72.1221L47.4533 68.1939L48.9887 67.3015L48.972 71.2317ZM61.0705 60.28L62.6192 59.3799L62.605 62.9011L61.0622 62.0059L61.0705 60.28ZM63.7376 62.8964L63.754 58.7205L65.287 57.8295L65.2732 62.0043L63.7376 62.8964ZM65.3318 37.9836L47.4629 48.3685C47.0864 42.5194 43.1403 35.6231 38.173 32.2967L56.0474 21.9096C61.1186 25.0051 65.2024 32.0772 65.3318 37.9836ZM49.3058 21.0522C50.7939 20.1871 52.7474 20.2739 54.8811 21.2777C49.5163 24.3956 42.311 28.583 37.0719 31.6278C35.709 30.8842 34.3132 30.4766 33.269 30.3822C33.2646 30.3818 33.26 30.3806 33.2556 30.3802L49.3058 21.0522ZM29.2256 58.3321L29.2089 62.3728L27.6659 61.4841L27.6838 57.4419L29.2256 58.3321Z" fill="white"/>
<path d="M61.9488 45.1027L50.2599 51.8952C50.0853 51.9958 49.978 52.1821 49.978 52.3833L49.9581 60.5615C49.9581 60.7639 50.0654 60.9518 50.2411 61.053C50.4176 61.1546 50.6354 61.1536 50.8083 61.0518L62.4972 54.2588C62.6719 54.1582 62.7791 53.972 62.7791 53.7707L62.799 45.593C62.799 45.3907 62.6918 45.2028 62.516 45.1016C62.3402 45.0005 62.1224 45.0005 61.9488 45.1027ZM61.6481 53.4435L51.0924 59.5776L51.109 52.7105L61.6647 46.577L61.6481 53.4435Z" fill="white"/>
<path d="M53.6252 54.2146L59.7001 50.6846C59.971 50.5276 60.0628 50.1816 59.9058 49.9113C59.7477 49.6393 59.3994 49.5498 59.1319 49.7062L53.0569 53.2362C52.7861 53.3932 52.6943 53.7392 52.8513 54.0095C53.0062 54.2768 53.3512 54.3736 53.6252 54.2146Z" fill="white"/>
<path d="M57.2635 53.2064L54.9253 54.5651C54.6544 54.7221 54.5627 55.0687 54.7197 55.3384C54.8745 55.6057 55.2196 55.7024 55.4936 55.5435L57.8318 54.1848C58.1026 54.0278 58.1944 53.6812 58.0374 53.4114C57.8793 53.1389 57.5311 53.0505 57.2635 53.2064Z" fill="white"/>
<path d="M27.1452 47.0667C27.457 47.0667 27.7113 46.8141 27.7124 46.5024L27.7157 45.1751C27.7168 44.8623 27.4636 44.608 27.1508 44.6075C26.839 44.6075 26.5847 44.8601 26.5836 45.1718L26.5803 46.499C26.5792 46.8119 26.8324 47.0662 27.1452 47.0667Z" fill="white"/>
<path d="M55.6852 24.0584C55.5703 24.1192 41.9338 32.0355 41.8191 32.1176C41.6654 32.2066 41.5626 32.3636 41.5416 32.5399C41.5206 32.7168 41.5836 32.8926 41.7119 33.0158C45.0771 36.2348 47.5679 40.6969 48.6094 44.9247C48.6977 45.2885 49.115 45.4694 49.4429 45.2785C49.5623 45.2091 63.4062 37.1606 63.2909 37.2293C63.4041 37.1618 63.575 36.9405 63.5575 36.7059C63.5101 36.5764 62.4639 28.8263 56.2896 24.1035C56.1413 23.9885 55.8996 23.9449 55.6852 24.0584ZM55.3797 25.5378V33.078L46.9658 37.9666C45.8506 36.0321 44.5189 34.2464 43.0275 32.7245L55.3797 25.5378ZM47.5043 38.9623L55.9725 34.0421L61.7873 36.7968L49.517 43.927C48.9658 41.9698 48.3186 40.5205 47.5043 38.9623ZM62.2391 35.7588L56.5118 33.0451V25.79C59.2807 28.301 61.4843 32.1324 62.2391 35.7588Z" fill="white"/>
</svg>
