<svg width="93" height="92" viewBox="0 0 93 92" fill="none" xmlns="http://www.w3.org/2000/svg">
<rect x="0.5" width="92" height="92" rx="46" fill="white"/>
<path d="M41.6948 21.922C41.8518 22.1968 42.2048 22.2927 42.4824 22.1333L43.4503 21.5744C43.7264 21.4149 43.8211 21.0622 43.6611 20.7862C43.5022 20.5095 43.1483 20.4154 42.8734 20.5749L41.9055 21.1338C41.6294 21.2932 41.5348 21.6459 41.6948 21.922Z" fill="black"/>
<path d="M42.9918 60.6902C42.5501 60.4366 41.9799 60.4721 41.4312 60.7888C40.4869 61.3336 39.7511 62.6063 39.7556 63.6863C39.7568 64.3123 40.0114 64.8165 40.452 65.0706C40.6481 65.1839 40.8689 65.2402 41.1033 65.2402C41.3974 65.2402 41.7106 65.1506 42.0171 64.9737C42.9569 64.4312 43.6893 63.1601 43.6871 62.0795C43.6859 61.4502 43.4324 60.9437 42.9918 60.6902ZM41.4402 63.9742C41.2419 64.0875 41.0875 64.1072 41.0278 64.0706C40.9692 64.0373 40.9106 63.9044 40.9095 63.6824C40.9072 63.0125 41.4199 62.1274 42.0081 61.7882C42.149 61.7071 42.2662 61.675 42.3428 61.675C42.3743 61.675 42.3991 61.6806 42.416 61.6902C42.4746 61.7235 42.5321 61.8575 42.5332 62.0829C42.5355 62.7533 42.0239 63.6373 41.4402 63.9742Z" fill="black"/>
<path d="M48.7982 45.2919L34.0664 53.7976C33.7903 53.957 33.6957 54.3097 33.8557 54.5858C33.9616 54.7711 34.1565 54.8742 34.3548 54.8742C34.4529 54.8742 34.552 54.8495 34.6433 54.7971L49.3751 46.2914C49.6512 46.1319 49.7458 45.7793 49.5858 45.5032C49.427 45.226 49.0743 45.1336 48.7982 45.2919Z" fill="black"/>
<path d="M42.4881 53.0995L34.0664 57.9623C33.7903 58.1217 33.6957 58.4744 33.8557 58.7505C33.9616 58.9358 34.1565 59.0389 34.3548 59.0389C34.4529 59.0389 34.552 59.0141 34.6433 58.9617L43.065 54.099C43.3411 53.9396 43.4358 53.5869 43.2757 53.3108C43.118 53.0336 42.7642 52.9407 42.4881 53.0995Z" fill="black"/>
<path d="M38.3605 48.496C38.4597 48.496 38.56 48.4701 38.649 48.4188L45.2825 44.5894C45.4617 44.4857 45.5721 44.2947 45.571 44.088L45.5698 43.6964C45.5606 41.1659 43.6214 40.007 41.377 41.302C39.3544 42.4699 37.7746 45.2052 37.7825 47.5292L37.7836 47.9208C37.7854 48.2402 38.0437 48.496 38.3605 48.496ZM41.9539 42.3014C43.3814 41.4773 44.4113 42.0146 44.416 43.6998L38.9825 46.8937C39.2349 45.137 40.4913 43.146 41.9539 42.3014Z" fill="black"/>
<path d="M41.9472 39.9875C43.0638 39.3429 43.936 37.8341 43.9315 36.5541C43.9291 35.0375 42.6916 34.314 41.359 35.0825C40.2446 35.7259 39.3747 37.2353 39.3792 38.5187C39.3815 40.0361 40.6259 40.7509 41.9472 39.9875ZM41.9359 36.082C42.4623 35.7774 42.7751 35.8939 42.7776 36.5569C42.7799 37.433 42.1353 38.5463 41.3702 38.988C40.8275 39.3028 40.5354 39.1491 40.533 38.5159C40.5308 37.637 41.173 36.522 41.9359 36.082Z" fill="black"/>
<path d="M67.2045 43.8496C65.0177 42.5907 65.0414 42.5956 63.5525 41.7323C61.3992 40.4743 58.5529 40.7334 55.5364 42.4659C55.4871 42.4944 55.4395 42.5298 55.3902 42.559L55.3359 24.1858C55.3359 23.1168 54.9507 22.3022 54.2615 21.8688C54.0937 21.7387 52.2489 20.6922 48.637 18.5878C47.9136 18.1545 46.948 18.221 45.9857 18.7777L44.3518 19.7208C44.0757 19.8802 43.9811 20.2329 44.1411 20.509C44.3 20.7856 44.6527 20.8786 44.9287 20.7203L46.5626 19.7771C47.1497 19.4374 47.6883 19.3647 48.05 19.5816L51.9318 21.8341C51.8101 21.8893 51.6862 21.953 51.5622 22.0245C51.0252 22.3344 32.446 33.056 31.4765 33.6155L27.059 31.0395L40.9646 23.0099C41.2407 22.8505 41.3354 22.4978 41.1753 22.2217C41.0165 21.944 40.6615 21.851 40.3877 22.0105C27.2008 29.6341 48.6981 17.1991 25.5342 30.5995C23.7809 31.6542 22.4287 34.0273 22.4411 36.0527L22.5324 67.8088C22.5324 68.9057 22.9347 69.7469 23.6693 70.1779C24.2404 70.5094 21.6008 68.9766 29.2549 73.4196C30.0926 73.8982 31.0479 73.702 31.8781 73.2163L45.6601 65.2573C46.2288 66.5459 47.079 67.5529 48.1931 68.1992L51.8417 70.3323L51.8439 70.3334L51.845 70.334C51.856 70.3404 51.8686 70.3378 51.8798 70.3434C54.378 71.7774 57.3749 71.0403 59.86 69.6055C65.778 66.1885 70.577 57.8687 70.559 51.0589C70.5488 47.6492 69.3578 45.0885 67.2045 43.8496ZM25.9423 31.7246L30.4275 34.3401C29.2357 35.368 28.386 36.8801 28.1078 38.3438L23.6151 35.7985C23.7101 34.3168 24.7075 32.5759 25.9423 31.7246ZM24.2508 69.1818C23.8868 68.9677 23.6862 68.4804 23.6862 67.8071L23.5981 37.1145L28.0141 39.6163L28.0394 48.3233L28.0977 71.0512C28.0988 71.1819 28.1067 71.3081 28.1191 71.4309L24.2508 69.1818ZM45.2634 64.1535L31.2978 72.2185C30.1601 72.8837 29.2594 72.5171 29.2594 71.0416L29.1948 48.8353C29.1898 47.041 29.1666 38.7284 29.1679 39.2585C29.166 37.6857 30.3673 35.6126 31.7527 34.7905C31.1336 35.1477 40.6257 29.6688 52.1391 23.0246C53.3489 22.3253 54.182 22.784 54.182 24.1874L54.2384 43.3149C54.2275 43.3226 54.2171 43.3327 54.2063 43.3403C53.543 43.8189 52.7065 44.5305 52.3428 44.8719L52.2777 26.1565C52.2766 25.9509 52.1673 25.761 51.9881 25.6585C51.8101 25.5559 51.5904 25.5565 51.4124 25.659L31.3586 37.2324C31.1795 37.3361 31.0691 37.5271 31.0702 37.7339L31.1626 64.9298C31.1637 65.136 31.273 65.3259 31.4522 65.4284C31.6301 65.5309 31.8499 65.5304 32.028 65.4279L45.1435 57.8564C44.661 60.4183 44.8048 62.4671 45.2445 64.0631C45.2525 64.0917 45.2551 64.1251 45.2634 64.1535ZM45.4933 56.3222L32.313 63.9309L32.2252 38.0646L51.1273 27.156L51.1926 46.0215C48.6549 48.7774 46.5162 52.5181 45.4933 56.3222ZM48.7734 67.202C47.7265 66.5946 46.962 65.571 46.5002 64.2327L46.4995 64.2284C45.7812 62.196 45.9259 59.7039 46.3757 57.5972C47.2665 53.4946 49.4961 49.5099 52.191 46.6429C54.2874 44.4231 57.4631 42.1019 60.5293 42.1019C61.4296 42.1019 62.2533 42.3098 62.9722 42.729L63.6044 43.0969C63.5881 43.0982 63.571 43.1028 63.5547 43.1042C62.32 43.2121 60.7761 43.6816 59.2087 44.582C53.2896 48.0052 48.4906 56.3205 48.5097 63.119C48.5182 64.551 48.7677 66.2151 49.4 67.5638L49.4021 67.5694L48.7734 67.202ZM59.2831 68.606C53.9982 71.6567 49.6883 69.4319 49.6692 63.119C49.6512 56.6856 54.191 48.821 59.7913 45.5882C64.9932 42.5839 69.3859 44.6861 69.4051 51.0623C69.4232 57.5036 64.8822 65.3738 59.2831 68.606Z" fill="black"/>
<path d="M66.258 52.0212C66.2568 52.0212 66.2546 52.0218 66.2523 52.0218L65.5424 52.1232C65.4433 51.7525 65.2799 51.4471 65.1334 51.1705C65.1334 51.1705 65.1334 51.1699 65.1323 51.1699L65.8117 49.5315C65.9718 49.0279 65.8613 48.6036 65.5571 48.4245L64.8393 47.9056C64.5869 47.6949 64.2218 47.6802 63.9289 47.8656C63.8105 47.9349 63.7091 48.0222 63.6348 48.1123L62.5192 49.3405C62.2251 49.3034 61.9254 49.3028 61.6223 49.3377L61.4014 48.4312C61.3519 48.1844 61.1997 47.9827 60.9856 47.8785C60.7625 47.7709 60.4955 47.7777 60.251 47.9005L59.0881 48.4881C58.7839 48.6616 58.5687 48.9856 58.4515 49.4403L58.0334 50.9513C58.0278 50.9682 57.9985 51.015 57.9793 51.033C57.5354 51.3998 57.0982 51.824 56.6768 52.2849L55.7629 52.1778C55.5026 52.1271 55.2852 52.2347 55.1623 52.2978C55.0046 52.3959 54.8581 52.5418 54.7409 52.7193L53.9048 54.0551C53.6716 54.4343 53.6479 54.8517 53.8395 55.2365L54.2834 56.1008C54.0186 56.7239 53.8169 57.3268 53.702 57.8321C53.6637 57.9392 53.6242 57.9955 53.6107 58.0085L52.3904 59.0474C52.1042 59.2773 51.9138 59.6406 51.8935 60.0035L51.8394 61.3061C51.8191 61.6779 51.9938 61.8914 52.0997 61.9855C52.2315 62.1044 52.4727 62.2306 52.8197 62.1686L53.569 62.0644C53.6693 62.421 53.7944 62.7354 53.9409 63.003L53.2828 64.6222C53.0834 65.0758 53.1803 65.5417 53.5138 65.7738L54.3037 66.3508C54.4209 66.4184 54.5527 66.4522 54.6902 66.4522C54.8446 66.4522 55.0046 66.4094 55.1601 66.3226C55.2423 66.273 55.3516 66.1986 55.4294 66.0972L56.5686 64.8623C56.857 64.8977 57.1568 64.8994 57.452 64.8673L57.6762 65.8381C57.7472 66.064 57.8993 66.2386 58.1067 66.3305C58.3241 66.4257 58.5698 66.4195 58.8233 66.3006L59.9636 65.7237C60.1766 65.6026 60.4628 65.3372 60.6127 64.7699L61.024 63.2763C61.024 63.2752 61.0882 63.1737 61.0882 63.1732C61.5716 62.7861 62.0144 62.3224 62.3919 61.9168L63.5626 62.0717C63.7846 62.1044 64.0077 61.9974 64.1272 61.8064L65.361 59.8367C65.4692 59.6632 65.4782 59.4451 65.3836 59.2632L64.792 58.0981C65.0759 57.382 65.2607 56.8281 65.3914 56.2907C65.3971 56.2738 65.4264 56.227 65.4523 56.2028L66.694 55.1441C66.9577 54.9216 67.1493 54.5452 67.1695 54.201L67.2338 52.8883C67.2563 52.5277 67.0907 52.3159 66.9893 52.2223C66.8619 52.1029 66.6264 51.9705 66.258 52.0212ZM66.018 54.1334C66.0134 54.1678 65.9751 54.2393 65.9481 54.2641L64.6917 55.3351C64.5892 55.4275 64.3435 55.6811 64.2692 56.027C64.1531 56.5002 63.9829 57.0073 63.726 57.6569C63.601 57.9471 63.5863 58.2457 63.7114 58.5527L64.2072 59.5037L63.3463 60.8796L62.4234 60.7573C62.2094 60.7201 61.9998 60.7669 61.8702 60.8565C61.7474 60.9196 61.6561 61.0114 61.5547 61.1128C61.0814 61.6362 60.7152 61.9934 60.3884 62.256C60.1642 62.4188 59.9896 62.6802 59.9107 62.9698L59.4983 64.4696C59.4555 64.6318 59.4025 64.7079 59.416 64.7079L58.6836 65.0786L58.4875 64.2335C58.3771 63.8656 58.0222 63.634 57.594 63.6814C57.2356 63.7462 56.9021 63.7535 56.6001 63.7005C56.3849 63.6678 56.1708 63.7169 56.0435 63.8081C55.9049 63.8774 55.7956 63.9648 55.7336 64.0453L54.6879 65.2059L54.3826 64.9811L55.0113 63.4245C55.124 63.127 55.1297 62.8487 54.9899 62.514C54.8367 62.256 54.7094 61.9112 54.6181 61.5168C54.5437 61.0982 54.1876 60.8339 53.755 60.8745L53.0079 60.9782L53.0462 60.0609C53.0496 60.0345 53.0789 59.9742 53.1251 59.937L54.3499 58.8947C54.5347 58.7437 54.6823 58.5167 54.8063 58.1578C54.9257 57.6518 55.1082 57.1087 55.3494 56.5414C55.4925 56.205 55.4846 55.8698 55.3539 55.6636L54.8851 54.6636L55.7111 53.3322L56.5562 53.4314C56.8086 53.4776 57.043 53.4314 57.168 53.3441C57.3258 53.2798 57.4306 53.1762 57.5128 53.0939C57.9005 52.6545 58.305 52.2607 58.7332 51.9068C58.8357 51.8144 59.0814 51.5609 59.1512 51.2319L59.5659 49.7394C59.6109 49.5637 59.6571 49.4994 59.6448 49.4994C59.6448 49.4994 59.6436 49.4994 59.6425 49.5L60.3839 49.1259L60.571 49.8916C60.6476 50.318 61.0555 50.6206 61.4859 50.5276C61.8229 50.4555 62.1541 50.4454 62.4561 50.4966C62.5913 50.5231 62.8043 50.5271 63.0207 50.4031C63.1457 50.34 63.2314 50.2549 63.3283 50.1575L64.3897 49.0019L64.694 49.2211L64.0517 50.766C63.9153 51.1288 63.9435 51.4798 64.1148 51.7125C64.277 52.0184 64.4179 52.2826 64.4607 52.5621C64.4787 52.801 64.5971 53.0207 64.7841 53.1649C64.9554 53.2962 65.1695 53.3491 65.3543 53.3153L66.063 53.2145L66.018 54.1334ZM66.4146 53.1643L66.3335 52.5931L66.4168 53.1643C66.4168 53.1643 66.4157 53.1643 66.4146 53.1643Z" fill="black"/>
<path d="M59.2414 54.1496C58.5924 54.5226 57.9896 55.148 57.5501 55.9052C55.7652 58.9084 57.5104 61.3885 59.8274 60.0513C60.464 59.689 61.0657 59.0648 61.5221 58.2935C63.2912 55.2936 61.5653 52.7918 59.2414 54.1496ZM60.5282 57.7064C60.1733 58.3075 59.7215 58.7842 59.2538 59.0501C57.7423 59.9217 57.6538 57.9891 58.5451 56.49C58.8876 55.8996 59.3395 55.4241 59.8206 55.148C61.318 54.2682 61.4122 56.2088 60.5282 57.7064Z" fill="black"/>
</svg>
