<svg width="93" height="92" viewBox="0 0 93 92" fill="none" xmlns="http://www.w3.org/2000/svg">
<rect x="0.5" width="92" height="92" rx="46" fill="white"/>
<path d="M49.6043 23.3831L51.2923 22.4089C51.5683 22.2495 51.663 21.8968 51.503 21.6207C51.3441 21.3441 50.9925 21.2506 50.7153 21.4095L49.0274 22.3836C48.7513 22.543 48.6567 22.8957 48.8167 23.1718C48.9744 23.447 49.3269 23.5423 49.6043 23.3831Z" fill="black"/>
<path d="M62.2797 22.0557C62.2784 21.8158 62.1079 21.6258 61.9924 21.5588L61.991 21.5581C61.9907 21.5578 61.9906 21.5574 61.9901 21.5571C60.3498 20.6041 56.2727 18.2351 56.5319 18.3858C56.355 18.2821 56.133 18.2821 55.9538 18.3846L52.3154 20.4855C52.0393 20.645 51.9447 20.9977 52.1047 21.2737C52.2636 21.5504 52.6163 21.6416 52.8923 21.485L56.2412 19.5509L60.5512 22.0557C42.8132 32.2972 37.826 35.1766 36.6423 35.86L32.3327 33.3548L47.8578 24.3916C48.1338 24.2322 48.2285 23.8795 48.0685 23.6034C47.9096 23.3268 47.5558 23.2327 47.2808 23.3921L30.8937 32.8533C30.6886 32.9721 30.6053 33.1914 30.6053 33.3519C30.6053 33.3524 30.6056 33.3529 30.6056 33.3534C30.6056 33.5384 30.7196 69.8374 30.7202 69.9691C30.7213 70.1736 30.8295 70.3629 31.0064 70.466C31.1232 70.534 36.5266 73.6822 36.4099 73.6142C36.4096 73.614 36.4102 73.6143 36.4099 73.6142C36.5878 73.7167 36.8083 73.718 36.9864 73.6154L62.1051 59.1721C62.2854 59.0684 62.3958 58.8769 62.3947 58.6701C62.3828 54.9022 62.4373 72.2717 62.2797 22.0557ZM37.2354 42.627L37.2196 36.8593C42.8371 33.616 55.4788 26.3175 61.1293 23.0552L61.145 28.8226L37.2354 42.627ZM31.7625 34.3576L36.0646 36.8591C36.0687 39.418 36.0695 39.9077 36.1208 72.1105L31.8729 69.635L31.7625 34.3576ZM37.2748 72.1185L37.2388 43.9582L61.1495 30.1532L61.2397 58.3388L37.2748 72.1185Z" fill="black"/>
<path d="M53.4073 28.4661C52.5498 28.9613 51.8816 30.1197 51.8839 31.1028C51.8862 32.3279 52.9288 32.9183 53.9932 32.3034C54.8473 31.8093 55.5155 30.6527 55.5122 29.6701C55.5098 28.4495 54.4811 27.8474 53.4073 28.4661ZM53.4163 31.304C53.1311 31.4674 53.0377 31.4297 53.0377 31.0995C53.0366 30.5214 53.4783 29.758 53.9842 29.4656C54.2725 29.2994 54.3565 29.3407 54.3583 29.6735C54.3594 30.251 53.92 31.0133 53.4163 31.304Z" fill="black"/>
<path d="M48.8268 31.1102C47.9693 31.6054 47.3 32.7632 47.3023 33.7463C47.3046 34.9611 48.3391 35.5665 49.4116 34.9469C50.2657 34.454 50.9339 33.2973 50.9306 32.3142C50.9282 31.0971 49.905 30.489 48.8268 31.1102ZM48.8347 33.9475C48.5509 34.1135 48.4561 34.0731 48.4561 33.7429C48.455 33.1649 48.8967 32.4021 49.4037 32.1096C49.7084 31.9339 49.7767 32.0012 49.7767 32.3175C49.7778 32.8956 49.3384 33.6573 48.8347 33.9475Z" fill="black"/>
<path d="M57.9832 25.8232C57.1257 26.319 56.4564 27.4768 56.4586 28.4594C56.461 29.6763 57.4971 30.2792 58.568 29.6605C59.4255 29.1653 60.0959 28.0075 60.0926 27.0244C60.0902 25.804 59.0567 25.2035 57.9832 25.8232ZM57.9911 28.6611C57.704 28.8244 57.6125 28.7887 57.6125 28.456C57.6113 27.8785 58.053 27.1157 58.5601 26.8227C58.8493 26.6547 58.9369 26.6974 58.9387 27.0278C58.9398 27.6058 58.4981 28.3687 57.9911 28.6611Z" fill="black"/>
<path d="M45.6053 34.5081L38.5605 38.568C38.2844 38.7268 38.1898 39.0795 38.3487 39.3556C38.5083 39.632 38.8605 39.7264 39.1374 39.5674L46.1822 35.5076C46.4583 35.3487 46.5529 34.996 46.394 34.7199C46.234 34.4433 45.8825 34.3481 45.6053 34.5081Z" fill="black"/>
<path d="M49.6043 42.0339L58.6435 36.8157C58.9196 36.6562 59.0142 36.3036 58.8542 36.0275C58.6954 35.7514 58.3427 35.6573 58.0666 35.8162L49.0274 41.0344C48.7513 41.1939 48.6567 41.5466 48.8167 41.8226C48.9736 42.0965 49.3258 42.1938 49.6043 42.0339Z" fill="black"/>
<path d="M58.0666 40.6863L49.0274 45.9051C48.7513 46.0646 48.6567 46.4173 48.8167 46.6933C48.9737 46.9682 49.3266 47.064 49.6043 46.9046L58.6435 41.6858C58.9196 41.5264 59.0142 41.1737 58.8542 40.8976C58.6954 40.6204 58.3427 40.5263 58.0666 40.6863Z" fill="black"/>
<path d="M58.0666 45.5563L40.7262 55.568C40.4502 55.7274 40.3555 56.0801 40.5155 56.3562C40.6726 56.631 41.0255 56.7268 41.3032 56.5674L58.6435 46.5558C58.9196 46.3964 59.0142 46.0437 58.8542 45.7676C58.6954 45.4904 58.3427 45.3974 58.0666 45.5563Z" fill="black"/>
<path d="M58.0666 50.4269L40.7262 60.438C40.4502 60.5974 40.3555 60.9501 40.5155 61.2262C40.6726 61.5011 41.0255 61.5969 41.3032 61.4375L58.6435 51.4264C58.9196 51.267 59.0142 50.9143 58.8542 50.6382C58.6954 50.361 58.3427 50.2686 58.0666 50.4269Z" fill="black"/>
<path d="M58.0666 55.297L40.7262 65.3087C40.4502 65.4681 40.3555 65.8208 40.5155 66.0969C40.6726 66.3717 41.0255 66.4676 41.3032 66.3082L58.6435 56.2965C58.9196 56.1371 59.0142 55.7844 58.8542 55.5083C58.6954 55.2311 58.3427 55.1382 58.0666 55.297Z" fill="black"/>
<path d="M44.1472 51.4089C44.7613 50.5931 47.8217 46.3907 47.8296 43.7207C47.832 41.887 46.374 41.1017 44.8323 41.9826C44.3816 42.2429 43.9286 42.71 43.4565 43.4047C42.8254 43.2571 42.3195 43.4227 41.9781 43.6137C41.9758 43.6148 41.9747 43.6159 41.9725 43.6171C40.6147 44.4019 39.5498 46.2335 39.5487 47.7885C39.5487 50.7897 43.168 51.552 43.5804 51.6292C43.8062 51.6693 44.0197 51.578 44.1472 51.4089ZM40.7026 47.7891C40.7037 46.6487 41.5477 45.198 42.546 44.6182C42.83 44.4605 43.1071 44.4599 43.4497 44.6199C43.7167 44.7467 44.0311 44.6509 44.1844 44.4013C44.6407 43.6655 45.052 43.1878 45.407 42.9832C46.1832 42.5397 46.6757 42.7919 46.6757 43.7185C46.6701 45.5225 44.7388 48.6426 43.4463 50.4156C42.6181 50.1982 40.7026 49.5086 40.7026 47.7891Z" fill="black"/>
</svg>
