<svg width="93" height="92" viewBox="0 0 93 92" fill="none" xmlns="http://www.w3.org/2000/svg">
<rect x="0.5" width="92" height="92" rx="46" fill="white"/>
<path d="M26.8824 61.1187C27.2013 61.1176 27.4605 60.859 27.4593 60.5401L27.4053 41.176C27.3974 39.772 28.4295 37.9798 29.6577 37.2637L60.0273 19.7363C60.5265 19.4462 60.966 19.3848 61.2668 19.556L63.4674 20.8361C63.2348 20.9505 64.7896 20.0669 32.8928 38.4813C31.2824 39.4097 30.0544 41.579 30.06 43.3992C30.1236 73.9962 30.114 71.0361 30.1242 71.2346L27.9157 69.95C27.6317 69.7883 27.4684 69.3765 27.4684 68.8187L27.4638 67.1505C27.4627 66.8327 27.2047 66.5753 26.8869 66.5753C26.568 66.5764 26.3089 66.835 26.31 67.1539L26.3145 68.8204C26.3145 69.8176 26.6807 70.5749 27.341 70.9501C30.3664 72.7088 23.4069 68.6632 31.1553 73.1674C31.157 73.1684 31.1581 73.17 31.1598 73.171C31.9144 73.6056 32.7976 73.4244 33.5486 72.9907L40.4181 69.0247L44.7817 72.7727C46.1709 73.9156 48.6829 73.9674 50.1712 73.0859L58.7495 68.106C59.4865 67.6874 59.9203 67.0587 59.9394 66.3651C59.9391 66.0557 59.9404 67.4861 59.9362 63.3387C59.9396 62.666 59.5137 62.0269 58.7552 61.5813C58.4227 61.3864 58.4433 61.4262 55.5419 60.2933L63.9148 55.4594C65.5092 54.5388 66.7543 52.3809 66.7487 50.5482L66.6879 22.915C66.6857 21.9399 66.3282 21.1957 65.6891 20.8033C65.5308 20.6953 62.9447 19.1998 61.8449 18.5577C61.1676 18.1673 60.3169 18.232 59.4481 18.738L29.0786 36.2654C27.483 37.1961 26.2413 39.3562 26.2514 41.1811L26.3055 60.5435C26.3066 60.8613 26.5647 61.1187 26.8824 61.1187ZM58.7856 66.3488C58.7788 66.6136 58.5568 66.8885 58.1749 67.1054L49.5875 72.0904C48.4519 72.7633 46.4625 72.6634 45.5242 71.8893L41.4772 68.4133L42.5215 67.8104C44.9967 69.9362 44.8293 69.8343 45.2662 70.1027C46.7068 70.9093 48.8495 70.8494 50.1708 70.0925C50.1747 70.0903 50.1797 70.0892 50.1836 70.087C50.3 70.0194 58.901 65.027 58.7856 65.0941V66.3488ZM58.1726 62.5768C59.0345 63.0839 58.9371 63.6574 58.1873 64.0957L49.6055 69.088C48.6506 69.6387 46.9653 69.7198 45.8319 69.0847C43.9096 67.475 43.4622 67.1004 43.5802 67.1992L54.2596 61.0336C57.9059 62.4518 57.9387 62.4408 58.1726 62.5768ZM63.3379 54.4599C62.3581 54.9181 33.0909 71.9222 32.9717 71.9912C31.8741 72.6254 31.2769 72.0991 31.2747 71.0295C31.2688 68.2025 31.296 81.2682 31.2172 43.393C31.2095 42.0227 32.22 40.2037 33.472 39.4813L63.837 21.9494C64.8027 21.3901 65.5316 21.7015 65.534 22.9179L65.5949 50.551C65.5982 51.9612 64.565 53.7511 63.3379 54.4599Z" fill="black"/>
<path d="M26.8836 65.6101C27.2025 65.6095 27.4605 65.3504 27.4594 65.0321L27.4549 63.0365C27.4537 62.7182 27.1957 62.4607 26.878 62.4607C26.5591 62.4613 26.2999 62.7204 26.301 63.0387L26.3055 65.0343C26.3067 65.3526 26.5658 65.6101 26.8836 65.6101Z" fill="black"/>
<path d="M63.2218 24.9811C63.0437 24.8785 62.824 24.8785 62.646 24.9811L33.526 41.7941C33.3468 41.8978 33.2375 42.0888 33.2375 42.2955L33.2973 66.3116C33.2973 66.751 33.7769 67.0319 34.1627 66.8097L63.2837 49.9967C63.4629 49.893 63.5722 49.702 63.5722 49.4952L63.5114 25.4791C63.5114 25.2735 63.4009 25.0836 63.2218 24.9811ZM34.4489 65.3122L34.3925 42.6262L62.3598 26.4786L62.4172 49.1645L34.4489 65.3122Z" fill="black"/>
<path d="M49.0184 59.8798L47.2741 60.8872C46.9981 61.0466 46.9034 61.3993 47.0634 61.6754C47.1694 61.8607 47.3643 61.9638 47.5626 61.9638C47.6606 61.9638 47.7598 61.9391 47.8511 61.8867L49.5954 60.8793C49.8714 60.7199 49.9661 60.3672 49.8061 60.0911C49.6472 59.8133 49.2934 59.7204 49.0184 59.8798Z" fill="black"/>
<path d="M55.217 35.4322L40.9821 43.6511C40.3387 44.0224 39.8564 44.859 39.8598 45.5971L39.8868 55.3828C39.8916 56.3625 40.753 56.8425 41.5917 56.3586L55.8277 48.1391C56.4688 47.7684 56.9511 46.9323 56.95 46.1937L56.9218 36.4091C56.9194 35.4321 56.0556 34.9455 55.217 35.4322ZM55.2508 47.1402L41.0406 55.3304L41.0136 45.5931C41.0125 45.2709 41.2773 44.8128 41.559 44.6506L55.768 36.4463L55.7961 46.1965C55.7973 46.5194 55.5313 46.978 55.2508 47.1402Z" fill="black"/>
<path d="M51.1718 43.6476L46.8088 43.1293C46.4745 43.0833 46.1643 43.3523 46.1643 43.7039L46.1812 49.7583C46.1823 50.0039 46.3378 50.2219 46.57 50.3019C46.8019 50.3821 47.0601 50.3063 47.2122 50.1126L51.5583 44.5767C51.6868 44.4127 51.7172 44.1919 51.6372 43.9992C51.5572 43.8065 51.3792 43.6724 51.1718 43.6476ZM47.3305 48.0934L47.3204 44.3519L50.0157 44.6724L47.3305 48.0934Z" fill="black"/>
</svg>
