<svg width="93" height="92" viewBox="0 0 93 92" fill="none" xmlns="http://www.w3.org/2000/svg">
<path d="M50.4488 16.351C42.686 20.8432 36.4004 31.7437 36.4367 40.6486C36.4497 47.4821 40.1642 51.2043 44.8734 51.2043C54.8203 51.2043 65.47 36.6152 65.47 24.9009C65.47 24.9004 65.4699 24.8982 65.4699 24.8977C65.4699 15.5572 58.508 11.7035 50.4488 16.351ZM63.7 24.8851C63.7 24.8909 63.7008 24.896 63.7008 24.9018C63.7008 24.9064 63.7003 24.911 63.7003 24.9155C63.7138 35.0708 54.1135 49.3409 44.9438 49.4166C44.9092 49.417 44.8734 49.4212 44.839 49.421C42.33 49.4096 40.2754 48.0727 39.1959 45.6928C40.3121 45.3559 41.4282 44.8643 42.5253 44.2259C50.2795 39.7372 56.5876 28.8298 56.5876 19.9024C56.5738 18.5575 56.4255 17.3179 56.147 16.2023C61.2265 15.6652 63.6952 19.7778 63.7 24.8851ZM54.3653 16.5505C54.6303 17.5589 54.8059 18.6628 54.8184 19.9119C54.8184 28.2674 48.906 38.4871 41.6355 42.696C40.6307 43.2815 39.6141 43.6845 38.6014 43.982C38.3516 42.9778 38.2081 41.8684 38.2059 40.6434C38.1671 30.7845 46.2269 18.9844 54.3653 16.5505Z" fill="black"/>
<path d="M28.7533 50.6894C31.0393 51.9721 37.8273 55.8127 38.3676 56.0656C36.8064 57.2066 35.9508 58.6483 35.9426 60.2017C35.9425 60.2074 35.9391 60.2116 35.9391 60.2172L35.927 63.4956C35.924 64.9813 36.758 67.0167 38.3125 68.3682L38.294 82.7196C38.294 84.1476 39.1942 86.1095 40.9116 87.0943C42.4925 88.0109 44.5174 88.4696 46.5389 88.4696C48.5604 88.4696 50.5784 88.0117 52.1455 87.096C53.8007 86.144 54.7129 84.8154 54.7129 83.3563V68.4522C56.2363 67.3113 57.0721 65.8817 57.0765 64.3422V60.2759C57.0765 60.2741 57.0754 60.2725 57.0754 60.2706C57.0754 60.266 57.0765 60.2616 57.0765 60.2569C57.0713 58.4238 55.8982 56.7418 53.773 55.5203C53.0418 55.1012 52.2134 54.7546 51.3238 54.4787C51.3638 54.4562 51.3984 54.4401 51.4388 54.4171C61.7104 48.5047 70.0365 34.0951 69.9985 22.2971C69.9814 16.469 67.9649 12.0888 64.3295 9.93125C64.0981 9.76119 62.5628 8.91647 55.3695 4.88207C51.6272 2.71373 46.7168 3.16726 41.5387 6.15025C31.2862 12.0635 22.9705 26.4757 23.0016 38.2754C23.0154 44.1429 25.0559 48.5496 28.7533 50.6894ZM43.8505 56.9914C45.538 56.8563 48.6823 55.8852 49.1392 55.7733V60.0021C49.1392 60.1662 48.9906 60.428 48.5742 60.669C47.4632 61.3091 45.5731 61.3083 44.4587 60.6733C44.0544 60.4349 43.8505 59.9217 43.8505 59.7014V56.9914ZM51.2591 85.5652C48.7055 87.0571 44.374 87.0563 41.7962 85.5618C40.6006 84.8767 40.0632 83.4876 40.0632 82.7205L40.0805 69.4806C43.7021 71.1711 49.1902 71.2474 52.9437 69.5091V73.8943C52.9436 73.9003 52.9403 73.9054 52.9403 73.9114V76.3148C52.9403 76.3208 52.9436 76.3259 52.9437 76.3319V83.3563C52.9437 84.1441 52.3321 84.9484 51.2591 85.5652ZM55.3073 64.3405C55.3038 65.5016 54.4624 66.6298 52.9368 67.517C49.3328 69.61 43.51 69.4728 40.1479 67.5248C40.1205 67.5082 40.0974 67.4889 40.0708 67.4723C38.6154 66.5991 37.8669 64.9851 37.7221 63.8852C37.7535 63.9138 37.792 63.9395 37.8242 63.9678C37.8452 63.9864 37.8696 64.0035 37.891 64.0219C38.2879 64.3636 38.7313 64.6872 39.2408 64.9815C43.2454 67.2923 49.7885 67.3305 53.8318 64.978C54.2886 64.7117 54.8047 64.3559 55.2709 63.9347C55.2821 63.9245 55.2962 63.9154 55.3073 63.9051V64.3405ZM52.8565 63.4887C49.2534 65.5335 43.5176 65.4065 40.1341 63.4472C38.5704 62.5453 37.71 61.4007 37.71 60.2241C37.71 58.6757 39.1761 57.4877 40.5522 56.7919C40.7089 56.825 41.5942 56.9494 42.0813 56.9812V59.7014C42.0813 60.5092 42.5892 61.6262 43.5723 62.2041C45.2262 63.1485 47.8162 63.1499 49.4588 62.2007C50.3797 61.6685 50.9084 60.8668 50.9084 60.0021V56.1998C51.6315 56.4312 52.3015 56.7159 52.8919 57.0545C56.1013 58.8981 56.1295 61.6284 52.8565 63.4887ZM68.2292 22.3023C68.2638 33.5345 60.3368 47.2538 50.5611 52.8811C48.1702 54.238 45.1872 55.3629 42.4185 55.2471C35.3032 54.9464 33.0706 47.5724 33.8284 40.4624C35.7163 22.8497 53.4049 5.67385 63.3397 11.3906C66.4773 13.1952 68.2137 17.0706 68.2292 22.3023ZM42.4234 7.68278C45.1653 6.10274 47.7915 5.30278 50.1395 5.30278C51.7377 5.30278 53.2063 5.67252 54.4918 6.41892L58.2687 8.53716C58.1716 8.54321 58.0694 8.56837 57.9717 8.57668C53.8688 8.92684 49.8897 11.1403 46.6964 13.7418C39.0525 19.9648 33.1231 30.6125 32.0744 40.2721C31.6784 43.8972 31.9604 48.1726 33.6532 51.4168L29.6293 49.1534C26.5089 47.3471 24.7829 43.4829 24.7708 38.2711C24.7397 27.0363 32.6598 13.3136 42.4234 7.68278Z" fill="black"/>
</svg>
