<svg width="93" height="92" viewBox="0 0 93 92" fill="none" xmlns="http://www.w3.org/2000/svg">
<path d="M17.598 61.3135C17.5989 61.7924 17.9879 62.1797 18.4659 62.1797C18.9457 62.1788 19.3347 61.789 19.3339 61.3101L19.2822 39.3984C19.2669 37.4176 20.7315 34.8774 22.4759 33.856L31.6009 28.5874V32.8844L27.0731 35.5037C24.9372 36.6819 22.9793 39.8173 22.9793 42.5836L23.0658 82.0199C23.0658 82.0903 23.0683 82.1581 23.0726 82.2301L19.9789 80.4273C19.5915 80.2129 19.3686 79.6416 19.3686 78.8593L19.3517 70.4233C19.3508 69.9436 18.8931 69.5257 18.482 69.5571C18.0023 69.5579 17.615 69.9478 17.6158 70.4267L17.6328 78.861C17.6328 80.2925 18.182 81.4173 19.122 81.9368C19.2976 82.0392 24.7492 85.2161 24.5736 85.1138C24.5733 85.1136 24.5739 85.114 24.5736 85.1138C25.6524 85.739 26.9603 85.4829 28.0309 84.8551L34.7651 80.966L41.0184 86.3375C43.006 87.9657 46.6067 88.0626 48.7611 86.7867L61.007 79.678C62.0732 79.0729 62.6996 78.1609 62.7267 77.1539V72.8567C62.7267 72.8471 62.7215 72.8391 62.7212 72.8295C62.725 71.8549 62.1108 70.9307 61.0146 70.2868C60.5291 70.0042 60.5379 70.0532 56.4352 68.4515L71.3695 59.8268C73.6597 58.5232 75.454 55.4321 75.454 52.7885C75.454 52.5288 75.3683 13.5107 75.3675 13.32C75.3487 12.0386 74.8861 11.0427 74.1321 10.4675C73.9367 10.2074 74.0833 10.3884 68.4292 7.0809C67.9952 6.82705 67.4881 6.7229 66.952 6.73689C66.926 5.77085 66.5339 4.99373 65.856 4.60342C65.1567 4.20081 64.2549 4.26184 63.3844 4.76276L34.2945 21.5585C32.7791 22.434 31.5958 24.4911 31.6009 26.2397V26.5826L21.6028 32.355C19.3084 33.7001 17.526 36.7997 17.5463 39.4068L17.598 61.3135ZM31.6009 72.4787L29.3464 73.7831L29.2641 41.5021L31.6009 40.1502V72.4787ZM66.9655 19.7192L69.087 18.4953L69.1692 50.778L66.9655 52.0494V19.7192ZM60.9909 77.1302C60.9815 77.4921 60.6747 77.871 60.1424 78.1727L47.883 85.289C46.2931 86.2301 43.4967 86.1125 42.133 85.0068L36.3677 80.0544L37.773 79.2373L41.1142 82.1081C42.9077 83.665 46.6334 83.7346 48.768 82.5108C48.771 82.509 48.775 82.5082 48.778 82.5064L60.9909 75.4164V77.1302ZM60.1382 71.7853C60.8709 72.2158 61.288 72.7694 60.74 73.4186C60.2001 73.9526 60.7167 73.511 47.9093 81.0037C46.5242 81.8006 44.0488 81.9805 42.1677 80.7265L39.3709 78.3218L54.517 69.5698C60.1504 71.7602 59.8373 71.6101 60.1382 71.7853ZM70.5067 58.3207L27.1579 83.354C25.701 84.2103 24.8016 83.5961 24.8016 82.0182L24.7321 42.5819C24.7321 40.3007 26.4363 37.8398 27.9275 37.0141L31.6009 34.8893V38.1446L27.9606 40.251C27.6919 40.4061 27.5266 40.6935 27.5274 41.0045L27.6139 75.2876C27.6157 75.9568 28.3413 76.3689 28.9166 76.036C35.5495 72.2029 62.138 56.8437 70.4719 52.0299C70.7414 51.8748 70.9067 51.5866 70.9059 51.2755L70.8194 16.9925C70.8186 16.6832 70.6533 16.3975 70.3846 16.2433C70.1159 16.089 69.7862 16.089 69.5175 16.2433L66.9655 17.7149V14.4769C70.0216 12.7278 70.9575 12.1591 71.617 11.8197C72.9306 11.2521 73.611 11.9263 73.6317 13.3344L73.7182 52.7885C73.7182 54.7964 72.2493 57.329 70.5067 58.3207ZM67.5545 8.58112L70.627 10.3619C70.3621 10.4943 70.4914 10.4347 66.9612 12.4726V8.4685C67.1875 8.4578 67.3934 8.4863 67.5545 8.58112ZM35.1625 23.0621L64.2523 6.26637C64.6253 6.05194 64.8829 6.04515 64.9897 6.10788C65.0974 6.16975 65.2237 6.39605 65.2254 6.82663V53.0535C61.5157 55.1964 35.957 69.9599 33.3427 71.47C33.3427 71.2763 33.3367 26.04 33.3368 26.2371C33.3334 25.109 34.1869 23.6257 35.1625 23.0621Z" fill="white"/>
<path d="M18.4811 68.1891C18.9609 68.1883 19.3482 67.7984 19.3474 67.3195L19.3406 64.4758C19.3397 63.997 18.9507 63.6096 18.4727 63.6096C17.9929 63.6105 17.6039 64.0004 17.6047 64.4792L17.6115 67.3229C17.6124 67.8018 18.0031 68.1891 18.4811 68.1891Z" fill="white"/>
<path d="M50.0705 66.0651L47.5804 67.5026C47.165 67.7424 47.0226 68.273 47.2625 68.6883C47.503 69.1048 48.0352 69.2448 48.4483 69.0062L50.9385 67.5687C51.3538 67.3288 51.4962 66.7982 51.2563 66.3829C51.0148 65.9668 50.4833 65.8244 50.0705 66.0651Z" fill="white"/>
<path d="M37.5171 31.2099L61.7834 17.1994C62.1987 16.9595 62.3411 16.4289 62.1013 16.0136C61.8605 15.5966 61.3291 15.455 60.9155 15.6958L36.6492 29.7063C36.2339 29.9462 36.0915 30.4767 36.3314 30.8921C36.5718 31.3085 37.104 31.4485 37.5171 31.2099Z" fill="white"/>
<path d="M37.5171 39.3162L61.7834 25.3056C62.1987 25.0658 62.3411 24.5352 62.1013 24.1199C61.8605 23.7037 61.3291 23.5613 60.9155 23.802L36.6492 37.8125C36.2339 38.0524 36.0915 38.583 36.3314 38.9983C36.5718 39.4147 37.104 39.5548 37.5171 39.3162Z" fill="white"/>
<path d="M37.084 47.5385C37.2315 47.5385 37.3807 47.5012 37.5171 47.4224L61.7834 33.4119C62.1987 33.172 62.3411 32.6414 62.1013 32.2261C61.8605 31.8091 61.3291 31.6684 60.9155 31.9083L36.6492 45.9188C36.2339 46.1587 36.0915 46.6893 36.3314 47.1046C36.4924 47.3834 36.784 47.5385 37.084 47.5385Z" fill="white"/>
<path d="M37.5171 55.5287L48.8018 49.0133C49.2172 48.7735 49.3595 48.2429 49.1197 47.8275C48.879 47.4105 48.3458 47.2698 47.9339 47.5097L36.6492 54.0251C36.2339 54.2649 36.0915 54.7955 36.3314 55.2108C36.5718 55.6273 37.104 55.7673 37.5171 55.5287Z" fill="white"/>
<path d="M37.5171 63.635L48.8018 57.1197C49.2172 56.8798 49.3595 56.3492 49.1197 55.9339C48.879 55.5169 48.3458 55.3745 47.9339 55.616L36.6492 62.1314C36.2339 62.3713 36.0915 62.9019 36.3314 63.3172C36.5718 63.7336 37.104 63.8736 37.5171 63.635Z" fill="white"/>
<path d="M61.6368 47.3479L58.3711 45.4993L59.0873 44.2593C59.261 43.9584 59.2382 43.5829 59.0297 43.3049C58.8203 43.0269 58.4643 42.9032 58.1295 42.982L52.0913 44.4593C51.6078 44.578 51.3245 45.0767 51.4658 45.5502L53.2305 51.4748C53.3288 51.807 53.6161 52.0486 53.9603 52.0893C54.3154 52.1333 54.6409 51.9604 54.8138 51.6612L55.5351 50.4111L58.8025 52.2791C59.2108 52.5139 59.7427 52.3776 59.9849 51.9596L61.9606 48.537C62.0759 48.3362 62.1072 48.098 62.0462 47.8751C61.9852 47.6513 61.8377 47.4615 61.6368 47.3479ZM58.9135 50.3432L55.6461 48.4752C55.2378 48.2404 54.7059 48.3767 54.4637 48.7947L54.3179 49.0473L53.3898 45.929L56.5674 45.1518L56.4301 45.3891C56.1874 45.8104 56.3388 46.3436 56.7539 46.5783L60.0196 48.4269L58.9135 50.3432Z" fill="white"/>
</svg>
