<svg width="93" height="92" viewBox="0 0 93 92" fill="none" xmlns="http://www.w3.org/2000/svg">
<path d="M36.7631 87.5588C37.7972 88.1627 39.1258 88.465 40.4519 88.465C41.7633 88.465 43.0721 88.1696 44.0932 87.5778C45.2283 86.9195 45.8788 85.9572 45.8788 84.9395L45.9122 72.9389C50.1424 72.39 54.0457 71.1915 57.2489 69.4192C58.8782 69.3085 60.6245 68.7581 62.4498 67.7042C65.8008 65.77 69.1414 62.3283 71.6242 58.2473C75.5393 51.5125 77.9306 45.194 76.8784 36.2494C76.7805 36.033 76.7665 35.7819 76.436 35.5894L71.0031 32.4297C70.2897 28.7895 68.5566 25.5589 65.3343 23.6859L59.072 20.0464C58.19 19.5341 57.2008 19.1186 56.1314 18.8128C55.9214 18.7516 55.6326 18.7728 55.3775 18.9573C55.1128 19.1491 55.0011 19.4075 55.0129 19.697C55.0741 21.2031 55.1154 22.2423 54.8344 24.3968L41.1655 3.9281C41.0013 3.68276 40.7249 3.53503 40.4294 3.53503C40.134 3.53503 39.8567 3.68362 39.6925 3.92983L36.7381 8.37018C36.4677 8.77707 36.5783 9.32564 36.9851 9.5969C37.3903 9.86643 37.9406 9.75758 38.2119 9.34983L40.4312 6.01438C46.4132 14.9281 53.0485 24.9805 54.3972 26.8062C54.0147 28.4664 53.7781 29.3406 53.0184 31.2263C52.2044 33.2305 50.2724 35.9688 48.1623 36.0316L46.779 35.23C46.5466 35.0952 46.2676 35.0719 46.0196 35.1695C45.7708 35.2646 45.5773 35.4676 45.4944 35.7216C45.2918 36.3429 45.0402 37.147 44.8371 37.8111C42.3491 38.235 39.5862 38.2772 37.2343 37.9789C34.8643 37.6786 32.3605 37.0132 30.2382 35.8961C30.0606 35.7839 28.6865 35.1437 27.3547 33.8466C25.39 31.8941 24.9252 29.6593 26.051 27.5458C26.3013 27.0669 25.1931 28.8248 33.0441 17.0824C33.3154 16.6755 33.2057 16.127 32.7988 15.8557C32.3893 15.5845 31.8425 15.6933 31.5721 16.1011C31.4528 16.2782 24.5783 26.5434 24.4856 26.7208C23.0943 29.3319 23.5262 32.1464 25.6206 34.5524C25.5476 34.6596 21.6227 40.5073 21.5493 40.644C20.3433 42.908 20.3186 45.3731 21.4339 47.6463C21.3141 47.8242 17.1794 53.9396 17.0364 54.2164C14.2089 59.5526 16.6234 65.2784 23.3349 69.159C26.5647 71.0406 30.5901 72.3158 34.9953 72.9159L34.9619 84.9015C34.9619 85.939 35.6211 86.91 36.7631 87.5588ZM44.1096 84.9369C44.1096 85.3041 43.7718 85.7187 43.2051 86.047C41.7028 86.9169 39.1621 86.91 37.646 86.0263C37.0646 85.6954 36.7312 85.2851 36.7312 84.9041L36.764 73.1406C39.0396 73.3435 41.588 73.381 44.1424 73.1579L44.1096 84.9369ZM46.7779 37.5368L51.464 40.2602C49.7922 45.5437 48.0175 52.5249 48.004 58.09C48.0001 60.0092 48.1858 62.3333 49.0896 64.1911L47.5383 63.2924C46.3888 62.6343 45.2253 61.198 44.6209 60.1321C41.8208 55.1629 45.0577 42.9698 46.7779 37.5368ZM54.522 32.2669C55.9664 28.7984 56.8743 24.9991 56.8423 21.2412L61.2756 23.8177C61.5122 27.7873 60.6632 31.597 59.1541 35.2248C58.4319 36.9465 57.1974 38.4385 55.8515 39.2151C54.9615 39.7281 53.8963 39.9747 53.3246 39.1322C53.323 39.1297 53.3199 39.1291 53.3181 39.1268C53.2458 39.0222 53.1587 38.9271 53.043 38.86L50.2344 37.2325C52.0877 36.2604 53.7165 34.1986 54.522 32.2669ZM60.5579 48.6712C61.0028 49.9013 61.7561 50.887 62.7893 51.5781C63.3517 51.9608 63.9201 52.5025 64.5283 53.2324C64.7408 53.4882 65.0769 53.5979 65.4 53.5305C65.723 53.4588 65.9788 53.2126 66.0634 52.8921L66.7683 50.2192C67.4396 51.9219 67.5838 54.0791 67.2176 56.7182C66.0911 61.4212 63.8571 64.6374 60.2745 66.7911C57.2734 68.1508 56.3525 67.0615 55.9154 66.1138C55.4688 65.1817 55.4256 63.6491 55.7927 61.7978C56.083 60.3344 56.1322 59.1094 56.1167 58.3C56.6316 58.3941 57.0505 58.6248 57.4358 59.0161C57.7114 59.2978 58.139 59.3608 58.4837 59.1742C58.8293 58.9894 59.0115 58.598 58.9312 58.2136C58.3412 55.3913 58.888 52.1897 60.5579 48.6712ZM71.359 34.6832L74.6392 36.5906L71.3633 40.504C71.5308 38.3531 71.4949 36.1088 71.359 34.6832ZM69.3842 33.2769C69.9102 36.3281 69.7042 40.1393 69.2883 43.1941C69.2356 43.5846 69.4472 43.963 69.8075 44.1219C70.1032 44.2552 70.577 44.1683 70.8241 43.8936C70.9844 43.7152 75.4752 38.3777 75.3078 38.556C75.6819 44.947 74.1407 50.3981 70.1038 57.3428C69.4051 58.4909 68.6293 59.5749 67.8101 60.5918C68.2664 59.5037 68.6482 58.3276 68.954 57.0465C69.5466 52.8117 68.9583 49.6447 67.1554 47.3658C66.948 47.1032 66.6137 46.9805 66.2811 47.0488C65.9528 47.117 65.6919 47.365 65.6064 47.6889L64.7598 50.8982C64.4341 50.5967 64.1084 50.3359 63.7793 50.1121C61.7985 48.7856 61.8935 46.1384 61.852 45.9577C61.8287 45.569 61.5531 45.2415 61.1747 45.1508C60.792 45.0619 60.4015 45.2286 60.2054 45.5646C57.8539 49.586 56.7646 53.3188 56.9529 56.6897C56.3983 56.5161 55.7884 56.4547 55.1137 56.4962C54.8692 56.5126 54.6429 56.6292 54.4883 56.8193C54.3328 57.0085 54.2637 57.2538 54.2956 57.4957C54.3043 57.5631 54.5099 59.1716 54.058 61.454C53.6798 63.3556 53.5495 65.5654 54.5098 67.2466C50.9189 65.7969 49.7931 61.909 49.7986 58.0816C49.808 52.7205 51.4387 46.3001 53.0427 41.1675C53.9141 41.5926 55.3189 41.5663 56.7361 40.7476C58.4051 39.7835 59.9186 37.9754 60.786 35.9064C62.2305 32.4375 63.2024 28.3716 63.1018 24.5701C63.5918 24.9508 68.14 26.0028 69.3842 33.2769ZM23.1095 41.4785C23.2069 41.2972 26.7782 36.0004 26.9045 35.8149C28.0894 36.7872 29.2241 37.3439 29.402 37.4554C31.2412 38.4236 33.9674 39.3505 37.1946 39.7385C39.5026 40.0159 41.9777 40.0168 44.2815 39.7015C43.3199 43.5301 41.7699 48.7001 41.7423 54.3782C39.9191 54.4457 38.1449 54.391 36.2526 54.1257C33.238 53.6767 30.3272 52.9293 27.5507 51.3181C25.5646 50.1639 24.0684 48.7662 23.2209 47.2717C22.1367 45.3815 22.0979 43.3773 23.1095 41.4785ZM18.6043 55.0362C18.7147 54.8223 18.4783 55.1129 22.4529 49.3035C23.3101 50.4166 24.8085 51.7701 26.6626 52.848C31.0606 55.4 36.1842 55.9313 36.0072 55.8777C37.8934 56.1428 40.2332 56.2378 41.8012 56.1782C41.9176 57.7402 42.2747 59.5631 43.0338 60.9116C43.7621 62.2486 45.1466 63.9516 46.6485 64.8344C48.6337 65.9754 53.0282 68.6175 54.0836 69.0039C51.3654 70.155 48.2523 70.9403 44.9311 71.3014C42.3613 71.5882 39.0724 71.6279 35.9796 71.2841C35.9794 71.2841 35.9798 71.2841 35.9796 71.2841C31.5051 70.7664 27.4406 69.5029 24.223 67.6282C18.4194 64.2737 16.2641 59.4515 18.6043 55.0362Z" fill="white"/>
<path d="M36.1602 10.8124C35.7524 10.5411 35.203 10.6534 34.9335 11.0594C34.8147 11.2377 33.2044 13.654 33.3232 13.4757C33.0495 13.8862 33.1673 14.4425 33.5703 14.7102C33.979 14.9812 34.5273 14.8684 34.797 14.4631C34.9157 14.2848 36.5234 11.8703 36.4047 12.0486C36.6697 11.6512 36.5792 11.0907 36.1602 10.8124Z" fill="white"/>
</svg>
