<svg width="93" height="92" viewBox="0 0 93 92" fill="none" xmlns="http://www.w3.org/2000/svg">
<path d="M63.2436 50.5762C70.3793 44.7347 73.9523 35.7676 72.7999 26.5888C72.3351 22.9329 71.1188 19.4704 69.1837 16.2974C68.9297 15.8775 68.3854 15.7471 67.9673 16.0028C67.5509 16.2568 67.4196 16.801 67.6736 17.2183C69.4774 20.1771 70.6125 23.4045 71.0445 26.8108C72.1209 35.3805 68.7846 43.7533 62.1275 49.2044C59.4497 51.3728 57.9105 54.7176 57.8984 58.3868C57.8856 60.4992 56.6165 61.8783 54.7793 62.9548C50.2456 65.5845 42.8422 65.5836 38.2809 62.9557C35.7137 61.4622 35.1243 59.949 35.0882 58.1933C35.0258 54.6239 33.4756 51.335 30.7997 49.1474C25.0531 44.4055 21.7565 37.4357 21.7565 30.0245C21.7565 15.6921 34.1799 3.73726 49.38 5.4643C53.2831 5.90574 57.0824 7.31992 60.3703 9.55305C60.7712 9.82777 61.3223 9.72496 61.6005 9.31808C61.8735 8.91464 61.7698 8.36435 61.3655 8.08963C57.8409 5.69582 53.7651 4.1797 49.5787 3.70543C33.6841 1.91574 19.9873 14.2863 19.9873 30.0245C19.9873 37.9653 23.5171 45.4327 29.6766 50.5149C31.5532 52.0487 32.7686 54.2279 33.1714 56.6538C31.9123 58.057 31.2946 59.7532 31.2903 61.024C31.276 65.2909 31.2563 71.5196 31.2506 74.6233C31.2425 77.0161 32.7042 79.2348 35.354 80.9378V81.6138C35.354 83.5195 36.6188 85.3345 38.8199 86.5889C40.9727 87.8407 43.7372 88.467 46.5033 88.467C49.2695 88.467 52.0373 87.8407 54.197 86.5898C56.3879 85.3181 57.6059 83.5739 57.6284 81.6665V80.9493C60.2503 79.2628 61.7047 77.0634 61.7128 74.6924L61.7508 61.0931C61.7549 59.8257 61.1459 58.0845 59.8307 56.6357C60.2388 54.2233 61.4419 52.0362 63.2436 50.5762ZM59.9695 65.4333L59.9622 68.043C59.7526 69.9417 59.0361 71.5635 56.2116 73.2065C50.8728 76.3061 42.1666 76.3087 36.8002 73.2108C34.453 71.8546 33.1336 70.1163 33.0387 68.2974L33.0475 65.3789C33.8175 66.2574 34.9824 67.1345 35.9553 67.6975C38.9612 69.4329 42.7043 70.5812 46.5569 70.5812C50.1938 70.5812 53.829 69.6179 57.1342 67.6932C58.2744 67.0307 59.3667 66.1139 59.9695 65.4333ZM56.2496 66.1598C50.0697 69.7511 42.7305 69.572 36.8416 66.1633C34.2216 64.6466 32.2562 62.181 33.3999 59.4448C33.7429 61.6311 35.4722 63.3656 37.3893 64.4934C42.5312 67.4504 50.5584 67.4504 55.6691 64.4899C57.6019 63.3591 59.3095 61.5899 59.6136 59.4068C60.8158 62.1741 58.8538 64.6459 56.2496 66.1598ZM53.309 85.059C49.5545 87.2385 43.4503 87.2368 39.7028 85.0555C38.2014 84.2003 37.2874 83.0763 37.144 81.9317C39.8828 83.1995 43.5529 83.8297 46.5102 83.8297C49.4852 83.8297 53.0981 83.2134 55.8401 81.9386C55.7037 83.0859 54.8156 84.1847 53.309 85.059ZM56.2099 79.7521C50.7531 82.9293 41.9348 82.7293 36.8002 79.7642C34.3571 78.3526 33.0129 76.529 33.0198 74.6284L33.0264 72.4345C33.7719 73.2818 34.7358 74.0616 35.9156 74.7433C38.8407 76.4322 42.6763 77.2762 46.5102 77.2762C50.3493 77.2762 54.1849 76.4296 57.0997 74.7356C58.2627 74.0599 59.2134 73.2867 59.9498 72.4467L59.9436 74.6872C59.932 77.8332 56.3813 79.5742 56.2099 79.7521Z" fill="white"/>
<path d="M64.1403 10.4394C63.7827 10.1094 63.2246 10.1284 62.8894 10.4843C62.5577 10.842 62.5767 11.4018 62.9344 11.7352C63.7723 12.5153 64.5671 13.3645 65.2945 14.2595C65.6017 14.6382 66.1585 14.6962 66.5385 14.3882C66.9169 14.0798 66.9756 13.5226 66.6663 13.1434C65.8888 12.1853 65.0388 11.2757 64.1403 10.4394Z" fill="white"/>
<path d="M55.8127 28.4418C54.015 27.4768 51.8066 27.4805 49.9905 28.3894L50.0037 20.2358C50.0037 20.2346 50.003 20.2336 50.003 20.2324C50.003 20.2309 50.0037 20.2295 50.0037 20.228C50.0019 19.4946 49.551 18.8155 48.7683 18.3637C47.4552 17.6052 45.3992 17.6035 44.093 18.3655C43.3289 18.8088 42.8926 19.474 42.8814 20.1925C42.8764 20.5092 42.8587 28.5064 42.8636 28.3248C41.0782 27.4673 38.951 27.4914 37.1923 28.4436C35.989 27.7688 34.4936 27.3667 32.8487 27.2885C31.3905 27.2272 29.9927 27.5261 28.9094 28.1498C27.7725 28.8072 27.0987 29.7756 27.0607 30.8071C27.0192 31.9897 26.2884 33.3339 24.8923 34.8C24.5105 35.1973 24.4103 35.7399 24.6314 36.2176C24.8958 36.7921 25.5869 37.1584 26.3765 37.1584C26.4283 37.1584 26.4819 37.1566 26.5337 37.1532C30.397 36.9234 35.3954 36.4215 37.2683 35.339C38.787 34.4622 39.625 33.245 39.6267 31.9103C39.6278 31.1097 39.2954 30.3632 38.729 29.6962C40.108 29.2493 41.6914 29.4946 42.8602 30.3855L42.8144 58.7571C42.811 59.4949 43.2602 60.1782 44.0463 60.6318C44.7029 61.011 45.546 61.2011 46.3857 61.2011C47.2271 61.2011 48.0686 61.011 48.7217 60.6309C49.4957 60.1817 49.9415 59.5053 49.9415 58.777L49.9871 30.4825C51.186 29.5038 52.8373 29.2201 54.2764 29.6912C53.7074 30.3593 53.3735 31.1074 53.3745 31.9094C53.3763 33.2441 54.2142 34.4622 55.7329 35.339C57.8327 36.5515 65.0373 37.1584 66.623 37.1584C67.4143 37.1584 68.1054 36.7921 68.3698 36.2176C68.591 35.7399 68.4907 35.1973 68.1124 34.8034C66.7146 33.3357 65.9838 31.9906 65.9406 30.8062C65.9025 29.7748 65.2287 28.8063 64.0919 28.1498C63.0085 27.5261 61.6004 27.2263 60.1525 27.2885C58.5076 27.3666 57.0153 27.7682 55.8127 28.4418ZM36.3837 33.8065C35.2175 34.4812 31.6341 35.0608 26.7635 35.3667C28.0991 33.7979 28.7781 32.3206 28.8299 30.8719C28.8437 30.4624 29.1962 30.0287 29.794 29.6823C30.575 29.2331 31.6514 29.0007 32.7658 29.056C33.8028 29.105 34.7863 29.3098 35.6188 29.6429C35.4299 29.8416 35.2478 30.0416 35.0775 30.2395C34.7579 30.6101 34.4572 30.9591 34.0529 31.2865C33.3532 31.8636 32.2319 32.3932 31.3801 31.9716C30.9412 31.7582 30.4125 31.937 30.1966 32.375C29.9806 32.813 30.1603 33.3434 30.5991 33.5594C31.0743 33.7927 31.5667 33.8929 32.0556 33.8929C33.2202 33.8929 34.3605 33.327 35.1725 32.6558C35.6943 32.2342 36.0779 31.7885 36.4165 31.3945C36.6681 31.1037 36.9124 30.847 37.1761 30.6061C37.6059 31.0172 37.8587 31.466 37.8575 31.9077C37.8575 32.5746 37.3201 33.2666 36.3837 33.8065ZM44.9811 19.8945C45.7507 19.4476 47.1053 19.4474 47.8837 19.8954C48.3327 20.1535 48.3414 20.2996 47.8958 20.5597C47.1314 21.0019 45.78 21.0112 44.9926 20.5576C44.5474 20.2997 44.5406 20.1519 44.9811 19.8945ZM48.1722 58.7753C48.1722 58.8012 48.1118 58.9386 47.8319 59.101C47.063 59.5502 45.7067 59.5467 44.9309 59.0992C44.6441 58.9342 44.5837 58.7908 44.5837 58.7623L44.6424 22.3454C45.7739 22.7859 47.1783 22.7595 48.231 22.3523L48.1722 58.7753C48.1722 58.7761 48.1722 58.7744 48.1722 58.7753ZM63.2072 29.6823C63.805 30.0279 64.1575 30.4615 64.1713 30.8719C64.2249 32.3223 64.9022 33.7979 66.2377 35.3667C61.3689 35.0608 57.7855 34.4812 56.6175 33.8065C55.6828 33.2666 55.1455 32.5737 55.1438 31.9068C55.1438 31.4653 55.3972 31.0163 55.8275 30.6048C56.0925 30.8482 56.3385 31.1077 56.5916 31.4023C56.9268 31.7919 57.3069 32.2334 57.8132 32.6515C58.6338 33.3279 59.7759 33.8963 60.937 33.8963C61.4276 33.8963 61.9235 33.7944 62.3986 33.5568C62.8358 33.3383 63.012 32.807 62.7943 32.3699C62.5749 31.931 62.0444 31.7582 61.6073 31.9742C60.8195 32.3664 59.6999 31.9137 58.9397 31.2865C58.5509 30.9652 58.2503 30.617 57.9324 30.2482C57.7595 30.0473 57.5754 29.8443 57.384 29.6427C58.2164 29.31 59.1991 29.105 60.2355 29.056C61.2249 29.0065 62.3523 29.1902 63.2072 29.6823Z" fill="white"/>
</svg>
