<svg width="93" height="92" viewBox="0 0 93 92" fill="none" xmlns="http://www.w3.org/2000/svg">
<path d="M16.9272 77.0902C17.3491 77.3339 17.8911 77.1899 18.1358 76.7663C18.3803 76.343 18.2351 75.8022 17.8118 75.5577L16.2724 74.6687C15.8482 74.4243 15.3074 74.5685 15.0638 74.9927C14.8193 75.416 14.9645 75.9568 15.3878 76.2013L16.9272 77.0902Z" fill="white"/>
<path d="M83.83 17.4395C83.8029 17.3923 83.7506 17.3653 83.7152 17.3237C83.6516 17.2492 83.5963 17.1669 83.5093 17.116L78.2095 14.0244L78.2336 5.74475C78.2336 5.74389 78.2336 5.74562 78.2336 5.74475C78.2336 5.08734 77.8318 4.46707 77.12 4.04031C75.9572 3.36821 74.2079 3.36735 73.0589 4.03427C72.358 4.4269 71.9558 5.04123 71.9532 5.71927C71.9532 5.721 71.9523 5.72229 71.9523 5.72402L71.9279 14.0835L69.0022 15.7772L69.0159 11.0637C69.0159 11.0594 69.0159 11.055 69.0159 11.0507C69.0159 10.6672 68.8751 9.9389 67.9136 9.36269C66.7387 8.69318 64.9833 8.69578 63.8292 9.36701C63.1361 9.76991 62.7384 10.3808 62.7356 11.0441C62.7356 11.0459 62.7346 11.0473 62.7346 11.049L62.7102 19.4094L60.6515 20.6041C60.642 20.5981 60.6382 20.5867 60.6285 20.5811C60.6282 20.5809 60.6288 20.5813 60.6285 20.5811L46.0453 12.1625C45.7706 12.0036 45.4311 12.0036 45.1581 12.1643L41.9626 14.0216C41.5402 14.267 41.3968 14.8086 41.643 15.231C41.8874 15.6526 42.43 15.7943 42.8524 15.5507L45.6047 13.9508L58.4221 21.3508C53.1505 24.4145 43.7936 29.8525 35.468 34.6912L22.6462 27.2929L37.2933 18.7807C37.7157 18.5354 37.86 17.9937 37.6138 17.5722C37.3676 17.148 36.8234 17.0064 36.4052 17.2517L20.4535 26.521C20.4474 26.5244 20.4399 26.5227 20.4338 26.5263C20.1599 26.6835 19.9915 26.9747 19.9906 27.29C19.982 30.6286 20.0218 15.1974 19.9064 59.9368L9.53559 65.9695C9.5276 65.9739 9.51788 65.9718 9.50999 65.9763C9.23701 66.1344 9.06769 66.4256 9.06682 66.7409L9.05127 72.0296C9.05041 72.3466 9.21887 72.6395 9.49358 72.7984L12.861 74.7422C13.2817 74.9849 13.8234 74.8398 14.0696 74.4182C14.314 73.9949 14.1689 73.4541 13.7456 73.2096L10.8222 71.5225L10.8317 68.2734C38.5795 84.2971 35.099 82.2872 35.9949 82.8046C35.9944 82.9862 35.9856 86.2393 35.9861 86.0504L20.4217 77.0643C19.9984 76.8198 19.4567 76.9649 19.2131 77.3882C18.9686 77.8115 19.1138 78.3523 19.5371 78.5968L36.4242 88.3466C36.6966 88.5034 37.0315 88.505 37.308 88.3474C37.309 88.3469 37.3093 88.3457 37.3103 88.3452C37.3099 88.3454 37.3106 88.345 37.3103 88.3452L71.4322 68.5162C71.7035 68.3589 71.8711 68.0687 71.8719 67.7542L71.8866 62.4647C71.8875 62.1476 71.719 61.8548 71.4443 61.6958C71.4387 61.6926 71.4319 61.694 71.4263 61.691L62.2191 56.3695C64.7608 55.7849 67.2429 54.848 69.6042 53.5606C70.8232 52.8834 72.3358 51.9132 73.2308 50.4006C73.7876 49.4414 74.0491 48.3435 74.0555 47.0841C74.4272 46.9966 74.7834 46.8761 75.0873 46.7049C75.7827 46.2988 76.181 45.6855 76.181 45.022L76.198 37.2512L81.5258 34.1794C82.9054 33.3786 83.9697 31.5221 83.9481 29.9646V17.8806C83.9481 17.8218 83.9153 17.7726 83.9041 17.7162C83.8852 17.6213 83.8776 17.5223 83.83 17.4395ZM36.2394 75.8208C36.3036 52.262 36.2726 64.1731 36.3061 52.413L59.254 39.0762L59.1901 62.4863C56.8341 63.8551 67.707 57.5379 36.2394 75.8208ZM21.7607 28.826C22.0605 28.999 34.786 36.3462 34.5781 36.2262C34.5667 40.2764 34.6194 21.5563 34.4667 75.8313C34.2897 75.7291 20.8227 67.9497 21.6553 68.4306C21.8001 14.008 21.7497 32.965 21.7607 28.826ZM36.3545 36.2241L59.2981 22.8884L59.2596 37.0271L36.3123 50.3634L36.3545 36.2241ZM61.0673 26.1237L64.9108 28.3667V39.313L61.038 37.0639L61.0673 26.1237ZM73.6869 17.8797L73.7042 14.5944C73.7043 14.5839 73.6969 14.5754 73.6965 14.565L73.718 7.71095C73.7871 7.7332 73.8626 7.74248 73.9337 7.76116C74.0005 7.77866 74.0653 7.79324 74.1337 7.8076C74.7832 7.94528 75.4819 7.94053 76.1282 7.79388C76.1571 7.7873 76.1851 7.78168 76.2138 7.77445C76.2952 7.75414 76.3811 7.74356 76.46 7.71873L76.4306 17.846C76.4237 17.8676 76.3641 17.9523 76.1913 18.0568C75.597 18.4075 74.5197 18.4093 73.9159 18.0516C73.7483 17.9549 73.6964 17.8797 73.6869 17.8797ZM73.9357 5.57111C74.5465 5.21519 75.6203 5.21692 76.2207 5.5642C76.3561 5.6453 76.4207 5.71355 76.4494 5.75059L76.4457 5.75285L76.4151 5.76894C76.3494 5.82078 76.2855 5.87347 76.2613 5.89161C75.6436 6.23717 74.5612 6.23803 73.9651 5.90457C73.8804 5.85403 73.8315 5.81527 73.7938 5.78363C73.7778 5.77024 73.7712 5.76581 73.7611 5.75739C73.7457 5.74259 73.7359 5.73277 73.7323 5.72866C73.7541 5.69951 73.8084 5.64195 73.9357 5.57111ZM64.4693 23.2047L64.4866 19.9202C64.4867 19.9097 64.4791 19.9013 64.4788 19.8908L64.5004 13.0264C64.5708 13.0497 64.6475 13.0595 64.7198 13.079C64.79 13.0979 64.8577 13.1139 64.9294 13.1292C65.2414 13.1964 65.5612 13.2411 65.8854 13.2412C65.8863 13.2412 65.8869 13.2415 65.8878 13.2415C65.8913 13.2415 65.8945 13.2403 65.898 13.2403C66.2165 13.2397 66.5294 13.1961 66.8342 13.1311C66.9048 13.116 66.9722 13.1015 67.0413 13.083C67.1069 13.0655 67.1767 13.0574 67.2407 13.0368L67.2319 17.2989C67.2318 17.3033 67.2286 17.3068 67.2286 17.3113L67.2199 23.1658C67.2087 23.1909 67.1404 23.2807 66.9841 23.3757C66.3915 23.7144 65.2969 23.7126 64.6991 23.3775C64.5307 23.2798 64.4788 23.2047 64.4693 23.2047ZM64.7181 10.8969C65.0239 10.719 65.4498 10.6309 65.8749 10.6309C66.2964 10.6309 66.718 10.7181 67.0212 10.89C67.1367 10.9593 67.1993 11.017 67.2299 11.0526C67.2278 11.0551 67.224 11.059 67.2213 11.0623C67.1942 11.094 67.1444 11.1433 67.0325 11.2054C66.8103 11.3347 66.5222 11.401 66.2243 11.4377C66.1119 11.4517 66.0026 11.4747 65.8875 11.4756C65.4727 11.4788 65.0634 11.3972 64.7803 11.2339C64.7425 11.2087 64.6887 11.179 64.6116 11.1411C64.5759 11.1135 64.5457 11.0842 64.5174 11.0621C64.5348 11.035 64.5777 10.9783 64.7181 10.8969ZM62.6992 23.2055C62.6992 23.6012 62.8444 24.3493 63.8249 24.916C64.1144 25.0777 64.4396 25.1987 64.7828 25.2796C64.8684 25.2998 64.9609 25.2948 65.0484 25.31C65.3094 25.3551 65.5718 25.4007 65.8403 25.4007C65.8427 25.4007 65.8449 25.3998 65.8473 25.3998C66.0769 25.3995 66.2993 25.3546 66.5243 25.3213C66.6547 25.302 66.7901 25.3055 66.9167 25.2751C67.2616 25.192 67.5886 25.0677 67.8791 24.9013C68.5788 24.4806 68.9805 23.869 68.9805 23.2263L68.9963 17.8243L71.9219 16.1312L71.9168 17.8806C71.9168 18.2771 72.062 19.0252 73.0235 19.579C73.3086 19.7479 73.6339 19.8744 73.9794 19.9587C75.017 20.2124 76.2367 20.0857 77.0967 19.5764C78.0063 19.0304 78.1765 18.3203 78.1981 17.9022L78.2076 16.0716L81.3021 17.8771L67.8841 25.639L65.8065 26.8408L61.0717 24.0781V22.4065L62.7043 21.4588L62.6992 23.2055ZM19.8818 68.9403C19.8809 69.2574 20.0494 69.5502 20.3241 69.7092C20.5063 69.8144 35.872 78.6872 34.9047 78.1286C35.1652 78.2786 35.5039 78.2944 35.7919 78.1303C35.7929 78.1298 35.7932 78.1286 35.7942 78.128C35.7938 78.1283 35.7945 78.1278 35.7942 78.128C38.3284 76.6557 26.6258 83.455 60.5248 63.7605C60.797 63.6033 60.9645 63.313 60.9654 62.9985L60.9792 57.6969L69.2327 62.4673L36.8799 81.2692L11.7224 66.7443L19.8982 61.9878C19.8977 62.1695 19.8807 69.3971 19.8818 68.9403ZM37.7555 86.0409C37.7561 85.804 37.765 82.6287 37.7645 82.8104L70.1131 64.0017L70.1044 67.2419L37.7555 86.0409ZM74.4169 44.984C74.4169 44.9849 74.378 45.0695 74.2061 45.1698C73.9288 45.327 73.515 45.4324 73.1306 45.4453C72.6883 45.4609 72.2235 45.3546 71.8901 45.1689C71.738 45.0834 71.6827 45.0125 71.6715 45.0125C71.6706 45.0125 71.6698 45.0125 71.6698 45.0134L71.6853 39.8534L74.4273 38.2725L74.4169 44.984ZM71.0279 46.7135C71.3985 46.9192 71.8381 47.0417 72.292 47.1216C72.281 48.0474 72.0916 48.8382 71.7043 49.5064C71.0296 50.6468 69.7684 51.4459 68.7516 52.0108C66.4493 53.2661 64.0227 54.1774 61.5382 54.7182C61.3011 54.7701 61.1082 54.9127 60.9856 55.101L61.0264 39.1025L65.8291 41.8922L65.8299 41.8905C66.6124 42.3866 67.439 42.305 68.2367 41.8412L69.9132 40.8746L69.9005 45.0203C69.9005 45.695 70.31 46.3118 71.0279 46.7135ZM80.6395 32.6478L67.3512 40.3104C66.8775 40.5831 66.68 40.4111 66.68 39.9268L66.6974 28.3689L82.1789 19.414V29.9767C82.1919 30.9001 81.4567 32.1735 80.6395 32.6478Z" fill="white"/>
<path d="M56.5776 27.6001C56.3029 27.442 55.9634 27.4403 55.6904 27.6018L39.0452 37.2756C38.7739 37.4328 38.6063 37.7231 38.6054 38.0375L38.5864 44.8838C38.5856 45.2008 38.754 45.4937 39.0287 45.6526C39.3036 45.8109 39.6431 45.8105 39.9159 45.6509L56.5612 35.9771C56.8325 35.8199 57.0001 35.5297 57.0009 35.2152L57.0199 28.3689C57.0208 28.0519 56.8524 27.759 56.5776 27.6001ZM55.2334 34.7029L40.36 43.3469L40.3729 38.5498L55.2464 29.9058L55.2334 34.7029Z" fill="white"/>
<path d="M39.2828 17.6249L40.9786 16.6392C41.401 16.3939 41.5444 15.8522 41.2982 15.4298C41.052 15.0065 40.5095 14.8639 40.0888 15.1101L38.393 16.0958C37.9705 16.3412 37.8271 16.8828 38.0733 17.3053C38.3184 17.727 38.8592 17.8706 39.2828 17.6249Z" fill="white"/>
<path d="M47.5899 51.6023C47.3031 51.6532 47.0586 51.8416 46.9377 52.1068C46.3718 53.349 43.5469 59.6554 43.553 61.8661C43.5602 64.6843 45.8181 65.9169 48.2171 64.5311C50.3362 63.307 51.9914 60.445 51.9845 58.0149C51.9776 55.7109 49.2201 52.7175 48.3743 51.8545C48.1696 51.6472 47.8767 51.5504 47.5899 51.6023ZM47.3325 62.9986C46.0992 63.7125 45.3259 63.2882 45.3222 61.8609C45.3188 60.6869 46.6224 57.2158 47.9985 54.0712C49.0853 55.355 50.2127 57.0119 50.2152 58.0201C50.2204 59.8135 48.9004 62.0933 47.3325 62.9986Z" fill="white"/>
<path d="M31.4983 53.3877C31.632 52.6004 30.8004 52.1267 30.1773 52.4856L28.2285 53.6186C27.806 53.8639 27.6635 54.4056 27.9088 54.828C28.1539 55.2498 28.6948 55.3934 29.1183 55.1476L29.7491 54.7809C29.7485 56.8818 29.658 58.6307 29.7282 60.5011C29.761 61.3814 29.7377 62.387 29.3118 63.1645C28.9204 63.8789 26.8212 64.1743 25.826 63.9445C25.0848 63.7718 24.4455 63.1109 24.271 62.3377C24.1034 61.5956 24.2918 60.705 24.8455 59.6148C25.02 59.2718 25.2118 58.9366 25.4027 58.6014C25.7889 57.9259 26.188 57.2279 26.4679 56.4478C27.2419 54.2881 26.9473 52.0031 26.5793 49.8469C26.2515 47.9447 25.8493 45.8682 26.2683 44.0182C26.6329 42.4062 27.8872 40.7286 29.5796 40.6405C30.0677 40.6145 30.4426 40.1982 30.4176 39.7109C30.3916 39.222 29.9502 38.8358 29.488 38.873C26.9171 39.0077 25.0537 41.367 24.5423 43.6278C24.0505 45.8034 24.4609 47.969 24.836 50.1449C25.1643 52.0688 25.4321 54.0946 24.8023 55.8508C24.5751 56.4849 24.2313 57.0862 23.8667 57.7237C23.6611 58.084 23.4555 58.4442 23.2681 58.8131C22.5199 60.286 22.2832 61.5663 22.545 62.7265C22.8681 64.1597 24.0248 65.3414 25.4252 65.6671C26.9452 66.0232 29.9497 65.6851 30.8633 64.0145C31.4965 62.8595 31.538 61.5568 31.4957 60.4337C31.4118 58.173 31.5773 55.7888 31.4983 53.3877Z" fill="white"/>
</svg>
