<svg width="93" height="92" viewBox="0 0 93 92" fill="none" xmlns="http://www.w3.org/2000/svg">
<path d="M26.5443 71.5516L35.4181 76.7081L35.424 76.7098C35.4347 76.716 35.4437 76.7244 35.4544 76.7306C37.1441 77.7025 39.1017 78.1828 41.2286 78.1828C41.6894 78.1828 42.173 78.113 42.6487 78.0681L42.6333 85.8497C42.6333 86.6333 43.1118 87.3581 43.9446 87.8375C44.6686 88.2539 45.5774 88.463 46.4862 88.463C47.4002 88.463 48.3141 88.2531 49.0467 87.8315C50.1629 87.1698 50.3287 86.3171 50.3287 85.8688L50.3469 75.6351C62.868 69.107 72.4495 52.716 72.4147 40.3093C72.3852 29.875 56.5829 12.8066 51.3246 8.88281C51.074 8.69493 47.677 6.75096 42.3724 3.6574C41.9111 3.39146 41.349 3.58735 41.1318 4.03578C40.845 4.62927 39.1155 8.20142 36.7727 13.3104C36.5688 13.7545 36.7623 14.2797 37.2081 14.4836C37.6469 14.6831 38.1756 14.4939 38.3795 14.0482C40.1798 10.127 41.6139 7.1138 42.3102 5.66679L49.6495 9.93254C29.8215 51.1636 29.4651 62.8239 29.5282 62.6467C29.5414 62.8455 28.9607 67.8613 31.2317 72.2298L27.4324 70.0226C24.1721 68.1272 22.3683 64.1888 22.3545 58.9312C22.3389 53.3954 26.5789 40.7741 34.6164 22.4322C34.8117 21.9847 34.6095 21.4629 34.162 21.2668C33.7163 21.0707 33.191 21.2737 32.9958 21.722C27.3218 34.6682 20.5645 51.634 20.5853 58.9364C20.6008 64.8479 22.7173 69.3289 26.5443 71.5516ZM36.3373 75.1972C32.4974 72.9875 31.1153 68.1103 31.2455 63.684L50.0767 65.3214L50.1009 73.7833C45.8812 76.1158 40.5133 77.5997 36.3373 75.1972ZM34.7239 49.4956L50.0367 51.3289L50.0716 63.5451L31.3926 61.9213C31.8916 58.1027 33.4688 53.1394 34.7239 49.4956ZM39.9424 35.8985L49.9951 36.7757L50.0316 49.5462L35.3245 47.7852C35.3268 47.7787 35.329 47.7724 35.3313 47.7659C36.7405 43.8247 38.348 39.7517 39.9424 35.8985ZM49.9286 13.4605L49.9901 34.9993L40.6552 34.1848C43.5255 27.3427 46.7698 20.148 49.9286 13.4605ZM67.5661 30.7766L51.7974 48.3263L51.7635 36.453L63.6854 24.8434C65.1264 26.7745 66.4523 28.7739 67.5661 30.7766ZM48.5768 76.5224L48.5595 85.867C48.5595 85.9577 48.4506 86.1279 48.1552 86.3033C47.255 86.8233 45.7294 86.8251 44.8258 86.3033C44.5338 86.1348 44.4025 85.9543 44.4025 85.8515L44.418 77.864C45.3709 77.6676 47.141 77.1475 48.5768 76.5224ZM51.8671 72.7161L51.8445 64.8281L70.2631 44.779C68.5308 55.2285 61.0341 66.7808 51.8671 72.7161ZM70.5805 41.818L51.8371 62.2201L51.805 50.9648L68.443 32.4477C69.7785 35.1783 70.6387 37.8671 70.6455 40.3145C70.6469 40.8086 70.6098 41.3145 70.5805 41.818ZM62.6054 23.4256L51.7565 33.9905L51.6926 11.6034C54.0625 13.8306 58.5645 18.2708 62.6054 23.4256Z" fill="white"/>
<path d="M34.6993 20.0539C35.1478 20.2518 35.6689 20.0504 35.8672 19.6047C36.2905 18.651 36.7069 17.7249 37.1112 16.8308C37.3134 16.3859 37.1164 15.8615 36.6706 15.6594C36.2301 15.4572 35.7014 15.655 35.5009 16.0999C35.0932 16.9975 34.6768 17.9288 34.25 18.886C34.0513 19.3326 34.2535 19.8552 34.6993 20.0539Z" fill="white"/>
</svg>
