<svg width="93" height="92" viewBox="0 0 93 92" fill="none" xmlns="http://www.w3.org/2000/svg">
<path d="M58.5686 71.7717L56.1826 73.1418L57.9259 68.5339C58.0987 68.0769 57.8689 67.5663 57.411 67.3936C56.9549 67.2208 56.4452 67.4514 56.2707 67.9084L53.6532 74.8264C53.5218 75.1754 53.6221 75.5702 53.9071 75.8121C54.1929 76.0558 54.5995 76.0916 54.9213 75.9062L59.4498 73.306C59.8731 73.0623 60.02 72.5224 59.7764 72.0983C59.531 71.6724 58.9885 71.529 58.5686 71.7717Z" fill="white"/>
<path d="M64.4896 64.7232L66.2675 67.3166L62.4578 69.5264C62.0345 69.7718 61.8911 70.3134 62.1364 70.7359C62.3829 71.16 62.9259 71.3009 63.3458 71.0572L67.9814 68.368C68.1939 68.2444 68.346 68.0371 68.3995 67.7969C68.4548 67.5568 68.4065 67.3054 68.2665 67.1024L65.9478 63.7229C65.6731 63.3194 65.1237 63.2184 64.7177 63.4939C64.3151 63.7704 64.2132 64.3207 64.4896 64.7232Z" fill="white"/>
<path d="M77.8566 37.7584L88.4504 31.602C88.7233 31.4439 88.8909 31.1519 88.8909 30.8366C88.8909 30.5204 88.7216 30.2293 88.4486 30.0712L58.4425 12.7504C58.1678 12.5923 57.8309 12.5932 57.5562 12.7513L55.1824 14.1282C53.3047 12.0769 49.6884 8.4779 49.1558 8.17009L42.611 4.36641C42.3933 4.23942 42.1342 4.21264 41.8957 4.28953C41.6556 4.36641 41.4621 4.54178 41.3584 4.77071C41.275 4.96033 39.5195 9.01723 37.2635 14.405L34.418 12.7521C34.1381 12.5871 33.7873 12.5914 33.5074 12.7651L4.45682 30.7762C4.19247 30.9394 4.03351 31.2297 4.0387 31.5407C4.04388 31.8517 4.20975 32.1368 4.47928 32.2931L15.7306 38.8217L8.46696 50.8683C8.34429 51.0722 8.308 51.3158 8.36675 51.5465C8.42722 51.7763 8.57581 51.9724 8.78141 52.0916L15.9987 56.2594L15.9637 70.1122C15.9637 70.4292 16.1313 70.7229 16.406 70.881L45.4394 87.6352C45.5759 87.7138 45.7296 87.7535 45.8817 87.7535C46.0337 87.7535 46.1858 87.7146 46.3223 87.636C46.3602 87.6142 46.3782 87.5734 46.4119 87.5467L46.4138 87.5462L76.4199 70.1191C76.6912 69.961 76.8588 69.6707 76.8605 69.3563L76.9126 52.2415L88.5212 45.4907C88.7942 45.3326 88.9618 45.0414 88.9618 44.7261C88.9618 44.4117 88.7942 44.1197 88.5229 43.9616L77.8566 37.7584ZM57.0949 19.1394L49.6448 26.4032L49.6033 10.963C52.3541 13.5761 54.7849 16.1824 57.0949 19.1394ZM63.1023 32.6072L49.7056 47.194L49.6872 39.5501C50.9133 38.1872 45.2458 44.4871 61.678 26.2212C62.9396 28.8918 63.2103 30.6976 63.1023 32.6072ZM64.8819 32.4426L74.1944 37.8107L60.5951 45.7127C62.9106 41.7519 64.6864 37.0246 64.8819 32.4426ZM57.2557 47.6532L49.7171 52.0335L49.7118 49.8043L62.6998 35.6615C61.9026 39.5803 60.0068 43.7846 57.2557 47.6532ZM49.6793 36.9149L49.6517 28.8661C52.8411 25.7562 58.5043 20.234 58.1752 20.5549C59.2111 21.9532 60.0993 23.2874 60.8093 24.5399C60.6488 24.7183 48.9323 37.7455 49.6793 36.9149ZM47.9394 48.5031L34.6812 47.3414C34.9858 45.2061 35.7484 42.3263 37.0182 38.6311L47.9188 39.9384L47.9394 48.5031ZM47.9137 38.1557L37.6312 36.9222C38.5207 34.4486 39.5931 31.6819 40.8617 28.6022C41.0438 28.6183 48.3474 29.2647 47.8834 29.2236L47.9137 38.1557ZM47.8788 27.4471C47.6978 27.4311 41.1936 26.8555 41.572 26.889C43.3988 22.5333 45.8925 16.9789 47.838 12.8234L47.8788 27.4471ZM42.5834 6.39654L47.5576 9.28622C43.5566 17.5939 34.4771 37.5004 32.9644 46.7307L28.1601 43.9535C29.8183 36.4163 39.5102 13.5317 42.5834 6.39654ZM26.5722 43.0275L18.6776 38.4709L30.5858 31.0794C29.3658 34.3021 27.3916 39.689 26.5722 43.0275ZM6.64244 31.5027L33.9895 14.5481L36.5777 16.0521C34.9733 19.9477 33.1787 24.3642 31.6208 28.3539C31.4425 28.4646 15.9585 38.076 16.9313 37.4721L6.64244 31.5027ZM10.447 51.01L17.263 39.6992C17.0861 39.5971 33.9068 49.3245 44.7618 55.5946L37.9305 66.8813C33.8483 64.5239 17.9297 55.3312 10.447 51.01ZM45.0023 85.3398L17.7347 69.6051L17.7658 57.2798L37.7958 68.8466C38.2075 69.0829 38.7909 68.8778 38.9948 68.539L45.0835 58.4886L45.0023 85.3398ZM45.9513 54.2216L37.5258 49.3669C38.2975 49.4345 48.4015 50.3197 47.9436 50.2796L47.9503 53.0602L45.9513 54.2216ZM75.093 68.8431L46.8596 85.2422C46.878 78.9126 46.9107 67.6782 46.9425 56.7185L57.627 62.935C57.8468 63.0644 57.9373 63.0345 58.1152 63.054L57.6512 64.2818C57.4784 64.7388 57.7082 65.2494 58.1661 65.4222C58.6553 65.6056 59.1618 65.2863 59.3064 64.9073L60.4843 61.7905C60.6613 61.6882 62.1027 60.8544 61.9257 60.9567L62.774 62.193C63.0505 62.5955 63.6034 62.6983 64.0025 62.4228C64.4068 62.1463 64.5087 61.596 64.2323 61.1926L63.4617 60.0678L75.1397 53.2734L75.093 68.8431ZM75.1461 51.2227C74.4217 51.6438 59.377 60.3878 58.0711 61.1468L47.8548 55.2006C78.2437 37.5457 74.7535 39.5733 75.1759 39.3279C75.1754 39.5426 75.1455 51.495 75.1461 51.2227ZM75.9829 36.8009L64.7988 30.3519C64.178 25.2122 59.7722 19.4034 56.383 15.4768L58.002 14.5386L86.2405 30.8401L75.9829 36.8009ZM76.9178 50.1917C76.9183 50.01 76.9469 38.5696 76.9452 39.2707L86.3183 44.7261L76.9178 50.1917Z" fill="white"/>
</svg>
