<svg width="93" height="92" viewBox="0 0 93 92" fill="none" xmlns="http://www.w3.org/2000/svg">
<path d="M23.2887 86.2634C25.7923 87.7086 29.0741 88.4308 32.3534 88.4308C35.6327 88.4308 38.9086 87.7078 41.3974 86.2616C43.9485 84.7783 45.3575 82.7543 45.3635 80.5617L45.3756 76.041C45.3756 76.0293 45.3693 76.0186 45.3689 76.0069C45.3565 73.7867 43.9276 71.741 41.3413 70.247C41.055 70.0799 40.7407 69.9477 40.4351 69.806V61.3516C40.4351 59.8951 39.5185 58.5621 37.8538 57.5971C37.6568 57.4824 37.4388 57.4009 37.2307 57.3053L37.2238 46.7514L41.1751 44.4745L46.503 47.5562C46.5026 47.556 46.5033 47.5565 46.503 47.5562C46.5032 47.5564 46.5045 47.557 46.5047 47.5571C46.6412 47.6357 46.7941 47.6755 46.9461 47.6755C47.099 47.6755 47.2511 47.6357 47.3884 47.5571C56.1992 42.4716 63.9139 38.0187 73.2902 32.6068C73.5649 32.4478 73.7334 32.155 73.7325 31.8379L73.6617 7.61411C73.6618 7.6085 73.666 7.60396 73.666 7.59824C73.6669 7.28292 73.4984 6.99093 73.2254 6.83284L67.8167 3.68917C67.5402 3.52849 67.2024 3.53022 66.9295 3.68744L41.0518 18.6282C41.0415 18.6336 41.0292 18.6311 41.019 18.6369C40.7443 18.795 40.5759 19.0887 40.5767 19.4058L40.5935 25.5275L37.2326 27.4626V16.7848C37.2326 15.8354 36.6547 14.9784 35.6094 14.3754C33.7555 13.2929 30.8676 13.2921 29.0534 14.3659C28.0116 14.9456 27.4138 15.8267 27.4138 16.7848V57.2938C27.202 57.3933 26.9962 57.4684 26.7745 57.5971C25.1573 58.5388 24.2295 59.8942 24.2295 61.3162V69.7716C23.8995 69.9268 23.5631 70.0735 23.2507 70.2487C20.6867 71.751 19.2751 73.788 19.2751 75.9832C19.2751 76.0037 19.2799 76.0236 19.2801 76.0442L19.2674 80.4857C19.2613 82.7102 20.6893 84.7619 23.2887 86.2634ZM40.5085 84.7326C36.0198 87.3397 28.6932 87.3397 24.1733 84.7308C20.4974 82.6086 21.1014 80.2078 21.0383 80.0054C21.4684 80.4539 22.544 81.3051 23.3017 81.7427C25.9215 83.2553 29.6225 83.9119 32.3664 83.9119C35.2092 83.9119 38.8362 83.2375 41.4095 81.7409C42.2105 81.2759 43.1422 80.5347 43.596 80.0667C43.5096 80.342 44.1986 82.5856 40.5085 84.7326ZM36.9985 77.5718C35.659 78.3551 33.916 78.6762 32.3456 78.6761C30.7871 78.6759 29.0353 78.3588 27.6781 77.5684C26.6104 76.955 25.9987 76.1516 25.9987 75.3637V70.3213V64.5238C26.2415 64.7112 26.5067 64.8892 26.7952 65.055C29.9156 66.8485 34.787 66.8493 37.8866 65.0542C38.1682 64.8926 38.4283 64.719 38.6658 64.535V70.3567V75.4018C38.6529 76.1827 38.062 76.9533 36.9985 77.5718ZM29.183 60.1309C29.183 55.3853 29.183 29.5831 29.183 19.2736C29.4768 19.4294 29.8211 19.5195 30.1541 19.6247C31.5629 20.071 32.8358 20.166 34.5487 19.6119C34.8606 19.5111 35.1869 19.4299 35.4634 19.284C35.4634 29.1179 35.4634 -3.95828 35.4634 60.1663C35.4634 60.4376 35.1896 60.7607 34.7378 61.0285C33.4644 61.7662 31.214 61.7654 29.9337 61.0328C29.4638 60.7546 29.183 60.4169 29.183 60.1309ZM37.2457 44.6976L37.2455 44.6301L37.2326 35.7677L46.0137 30.7159C46.0142 30.895 46.0424 40.2204 46.0406 39.6287C43.1165 41.314 36.8474 44.9271 37.2457 44.6976ZM42.3503 20.9435L45.9922 23.0616C45.9927 23.2433 46.0053 27.8688 46.0045 27.5763L42.3624 25.4613L42.3503 20.9435ZM46.0465 41.6687L46.057 45.2548L42.9481 43.4563L46.0465 41.6687ZM47.8265 45.2617C47.8187 42.7005 47.7601 22.8059 47.7616 23.0644C50.3299 21.5817 40.0819 27.4981 71.8968 9.13077L71.9616 31.3308L47.8265 45.2617ZM67.37 5.47568L71.0165 7.59478C37.8634 26.7327 49.3924 20.0775 46.8786 21.5286L43.2349 19.411L67.37 5.47568ZM41.5287 27.0235L45.1868 29.148L37.2326 33.7256V29.5028L41.5287 27.0235ZM29.9337 15.901C31.2209 15.1382 33.4108 15.1391 34.7205 15.9053C35.193 16.1775 35.4634 16.498 35.4634 16.7848C35.4634 17.0716 35.1965 17.3929 34.7369 17.6642C33.4644 18.4028 31.2148 18.4011 29.9233 17.6625C29.6145 17.4737 29.183 17.1469 29.183 16.7848C29.183 16.4885 29.4491 16.1705 29.9337 15.901ZM27.4138 59.2809V60.1309C27.4138 61.063 28.0038 61.9468 29.0439 62.5619C29.7625 62.9728 30.8918 63.3567 32.3362 63.3567C32.3371 63.3567 32.3381 63.3563 32.3391 63.3563C33.792 63.3559 34.9189 62.9677 35.631 62.555C36.6642 61.9442 37.2326 61.0959 37.2326 60.1663V59.2912C38.1596 59.8959 38.6658 60.6199 38.6658 61.3516C38.6658 62.2856 37.8083 63.058 37.002 63.5225C34.4829 64.9799 30.2136 64.9799 27.6772 63.5208C26.6104 62.9074 25.9987 62.104 25.9987 61.3162C25.9987 60.6043 26.511 59.8726 27.4138 59.2809ZM24.131 71.783C24.1638 71.7648 24.1967 71.7467 24.2295 71.7285V75.3637C24.2295 76.8228 25.1409 78.1506 26.7918 79.1C29.9138 80.9159 34.7887 80.9142 37.8901 79.1C39.5081 78.1584 40.4117 76.8548 40.4351 75.4164V71.7674C40.4411 71.7709 40.4472 71.7743 40.4532 71.7778C42.4833 72.9501 43.602 74.4627 43.602 76.0359C43.602 77.5761 42.5084 79.0568 40.5214 80.2075C35.9795 82.8515 28.5143 82.7135 24.1941 80.2058C22.9385 79.4806 22.0343 78.6302 21.5247 77.7206C21.2117 77.1561 21.0479 76.5681 21.0495 75.9711C21.0495 75.966 21.0468 75.9619 21.0467 75.9568C21.0593 74.4251 22.1571 72.9408 24.131 71.783Z" fill="white"/>
<path d="M62.6973 20.7266C61.9224 20.28 60.9151 20.3499 59.9337 20.9158L56.2553 23.0392C55.9806 23.1982 55.8121 23.491 55.813 23.8081L55.8303 29.8933V35.2726C55.8303 35.7616 56.2259 36.1573 56.7149 36.1573C57.2038 36.1573 57.5995 35.7616 57.5995 35.2726V30.4016L60.8356 28.5335C62.5694 27.5314 63.9231 25.186 63.9171 23.193C63.9145 22.0699 63.4696 21.1715 62.6973 20.7266ZM59.951 27.001L57.5952 28.3607L57.584 24.3152L60.8183 22.4483C61.2321 22.2107 61.6045 22.139 61.8152 22.26C62.0226 22.3792 62.147 22.7299 62.1478 23.1982C62.1522 24.5691 61.1457 26.3107 59.951 27.001Z" fill="white"/>
</svg>
