<svg width="93" height="92" viewBox="0 0 93 92" fill="none" xmlns="http://www.w3.org/2000/svg">
<path d="M55.8273 8.22652L53.9959 9.28477C53.5726 9.52925 53.4275 10.0709 53.6728 10.4933C53.9167 10.9156 54.4554 11.0614 54.8805 10.8173L56.712 9.75904C57.1353 9.51457 57.2804 8.97291 57.0351 8.55047C56.7897 8.12544 56.2489 7.98377 55.8273 8.22652Z" fill="white"/>
<path d="M74.9088 9.632L74.9068 9.63081C74.9062 9.63048 74.906 9.62973 74.9054 9.6294C74.9048 9.62908 74.9041 9.62919 74.9035 9.62886L64.6304 3.65825C64.3591 3.4993 64.0187 3.4993 63.744 3.65652L58.0752 6.92891C57.6519 7.17339 57.5068 7.71418 57.7521 8.13748C57.994 8.56165 58.5331 8.70419 58.9598 8.46144L64.1846 5.44476L72.7003 10.3936L28.6733 35.8134L20.1577 30.8645L52.7382 12.0535C53.1615 11.809 53.3066 11.2682 53.0613 10.8449C52.8176 10.419 52.2751 10.2765 51.8536 10.5209L17.9496 30.0956C17.6731 30.2558 17.5073 30.5504 17.5073 30.861C17.5073 30.8617 17.5078 30.8621 17.5078 30.8628C17.5078 30.8634 17.5073 30.8638 17.5073 30.8645L17.6507 81.6063C17.6525 81.9208 17.8183 82.2111 18.0913 82.3683L28.3715 88.3412C28.3712 88.341 28.3718 88.3414 28.3715 88.3412C28.3725 88.3417 28.374 88.3432 28.375 88.3438C28.6479 88.5009 28.9849 88.5001 29.2578 88.3429L75.0505 61.9046C75.3252 61.7457 75.4946 61.4528 75.4928 61.1358L75.3494 10.3939C75.3484 10.2164 75.2418 9.82514 74.9088 9.632ZM19.4182 81.0941L19.2817 32.4016C19.4653 32.5082 28.3497 37.671 27.7889 37.3451C27.8211 48.7929 27.8931 74.4278 27.9257 86.0372L19.4182 81.0941ZM29.6967 86.0467L29.5585 37.3456C39.9304 31.3573 63.263 17.8861 73.5854 11.9265L73.7219 60.6287L29.6967 86.0467Z" fill="white"/>
<path d="M70.0675 18.0367C69.7946 17.8795 69.4576 17.8803 69.1847 18.0375L33.0986 38.8718C32.8239 39.0307 32.6545 39.3236 32.6563 39.6406L32.7686 79.1728C32.7703 79.4881 32.9379 79.7792 33.2126 79.9373C33.4855 80.0945 33.8225 80.0937 34.0955 79.9364L70.1799 59.1022C70.4546 58.9432 70.6239 58.6504 70.6222 58.3333L70.5116 18.8012C70.5099 18.4859 70.3423 18.1948 70.0675 18.0367ZM34.5326 77.6402L34.4272 40.1477L68.7458 20.3337L68.8512 57.8262L34.5326 77.6402Z" fill="white"/>
<path d="M51.1555 33.4043C43.8022 37.6503 37.8397 47.9858 37.8638 56.4432C37.8889 65.292 44.378 69.0377 52.1248 64.5637C59.4764 60.3186 65.439 49.9952 65.4165 41.5516C65.3915 32.7221 58.9112 28.9253 51.1555 33.4043ZM51.2402 63.0312C44.6966 66.8121 39.6546 63.9324 39.6331 56.438C39.6089 48.5456 45.1757 38.9003 52.0401 34.9368C58.5672 31.1644 63.6258 34.0476 63.6473 41.5568C63.6697 49.4354 58.1029 59.0685 51.2402 63.0312Z" fill="white"/>
<path d="M48.7436 46.7686C48.4706 46.6114 48.1337 46.6122 47.8607 46.7695L44.5209 48.6977C44.2462 48.8566 44.0769 49.1495 44.0786 49.4665L44.0976 56.2108C44.0994 56.5262 44.267 56.8173 44.5417 56.9754C44.6782 57.054 44.8302 57.0929 44.9822 57.0929C45.1343 57.0929 45.2881 57.0531 45.4246 56.9745L48.7643 55.0463C49.039 54.8874 49.2084 54.5945 49.2066 54.2775L49.1876 47.5331C49.1859 47.2178 49.0183 46.9267 48.7436 46.7686ZM45.8634 54.6783L45.8496 49.9736L47.4219 49.0657L47.4357 53.7704L45.8634 54.6783Z" fill="white"/>
<path d="M58.7369 40.9987C58.4639 40.8415 58.127 40.8424 57.854 40.9996L54.5246 42.9217C54.2499 43.0807 54.0806 43.3735 54.0823 43.6906L54.1013 50.4349C54.103 50.7502 54.2706 51.0413 54.5453 51.1994C54.6818 51.278 54.8339 51.3169 54.9859 51.3169C55.138 51.3169 55.2917 51.2772 55.4282 51.1986L58.7576 49.2764C59.0323 49.1175 59.2017 48.8246 59.1999 48.5076L59.1809 41.7633C59.1792 41.4479 59.0116 41.1568 58.7369 40.9987ZM55.8671 48.9024L55.8532 44.1977L57.4151 43.2958L57.429 48.0005L55.8671 48.9024Z" fill="white"/>
</svg>
