<svg width="93" height="92" viewBox="0 0 93 92" fill="none" xmlns="http://www.w3.org/2000/svg">
<path d="M59.7472 5.20794C54.4701 5.20794 49.3153 9.46677 45.1323 17.2321L36.2548 3.93372C36.0907 3.68837 35.8142 3.54065 35.5188 3.54065C35.2233 3.54065 34.9469 3.68837 34.7827 3.93372L31.1873 9.31916C30.916 9.72605 31.0266 10.2755 31.4326 10.5467C31.8369 10.8171 32.3881 10.7083 32.6593 10.3023L35.5188 6.01826C54.7864 34.8754 48.5058 25.2024 49.7622 27.2338C51.7777 30.4816 49.7313 33.6732 46.3968 35.6157C40.2606 39.1846 30.4128 38.8565 24.8049 35.5985C21.6037 33.745 19.4017 30.8163 21.1317 27.5488C21.377 27.0878 25.7662 20.6231 25.8917 20.4373C26.1629 20.0304 26.0523 19.481 25.6463 19.2097C25.2438 18.9402 24.6926 19.0473 24.4196 19.4542C24.2983 19.6337 19.6645 26.5412 19.5698 26.7195C18.1807 29.3423 18.6798 32.1665 20.7274 34.5366C20.4916 34.8868 16.8099 40.3049 16.6291 40.6556C15.4095 42.9546 15.4285 45.393 16.5249 47.6427C11.4921 55.0285 12.2135 54.0469 12.1145 54.2281C9.3034 59.572 11.7171 65.297 18.4174 69.1706C21.7539 71.0963 25.8193 72.3329 30.0932 72.9113L30.059 84.9114C30.059 85.955 30.7 86.9001 31.8663 87.5713C32.8977 88.1631 34.216 88.4594 35.5326 88.4594C36.8509 88.4594 38.1674 88.1622 39.1903 87.5696C40.3306 86.9079 40.9578 85.9766 40.9578 84.9494L40.9919 72.9458C42.6887 72.7264 44.3462 72.398 45.943 71.9658C47.8891 73.4421 50.1846 74.5115 52.8048 75.1748C52.7776 75.3527 51.4731 83.8777 51.5559 83.3366C51.5559 84.8095 52.4802 86.1502 54.1562 87.1109C55.7042 88.005 57.7344 88.4525 59.7628 88.4525C61.7911 88.4525 63.8178 88.005 65.3573 87.11C67.0211 86.1442 67.9385 84.8043 67.9385 83.3366C67.9385 83.234 68.0652 84.1053 66.6752 75.1874C76.8668 72.6458 82.0388 63.9757 82.0388 49.2789C82.0388 28.899 72.3011 5.20794 59.7472 5.20794ZM18.1962 41.4763C18.2882 41.299 17.7216 42.084 22.0042 35.8084C22.5429 36.252 23.305 36.7839 23.9116 37.1344C30.0116 40.6599 40.6293 41.0118 47.29 37.1483C47.7912 36.8609 48.9217 36.0501 49.099 35.906C53.1748 41.8802 52.518 40.8541 52.7897 41.3303C55.0395 45.289 52.5257 49.044 48.5824 51.3453C41.4807 55.4745 29.8374 55.4965 22.6296 51.328C22.6185 51.3215 22.6095 51.3141 22.5983 51.3076C18.7994 49.0985 16.1284 45.3733 18.1962 41.4763ZM13.6729 55.0652C13.8674 54.7094 13.4044 55.3744 17.5345 49.316C18.412 50.4557 19.9652 51.829 21.7433 52.858C29.2068 57.1754 41.6842 57.4003 49.4706 52.8744L49.4739 52.8735C51.2194 51.8523 52.6946 50.5346 53.5497 49.4301L55.9703 53.0497C57.8536 55.1801 58.6483 57.5497 58.2682 59.9012C57.7245 63.283 54.8725 65.9407 51.9239 67.6589C43.1808 72.7639 28.4803 72.9361 19.302 67.6381C13.5105 64.2906 11.356 59.4675 13.6729 55.0652ZM39.2214 73.1678L39.1885 84.9469C39.1885 85.314 38.8654 85.7123 38.3022 86.0388C36.806 86.9079 34.2627 86.907 32.7492 86.0379C32.4053 85.8401 31.8283 85.4306 31.8283 84.914L31.8611 73.1506C33.7809 73.3211 37.6146 73.3074 39.2214 73.1678ZM66.1676 83.3962C66.1399 84.1858 65.5387 84.959 64.4692 85.5801C61.9225 87.0608 57.6065 87.0599 55.0391 85.5775C53.9333 84.9443 53.3251 84.1478 53.3182 83.4463L54.5345 75.5703C55.7287 75.7802 57.9019 75.9944 59.7472 75.9944C61.5936 75.9944 63.3261 75.8542 64.9449 75.5745L66.1676 83.3962ZM59.7472 74.2252C55.7939 74.2252 51.4416 73.4312 48.0952 71.3252C49.7183 70.7723 51.6104 69.8936 52.8154 69.1871C56.9068 66.8045 59.4639 63.6064 60.015 60.1828C60.4815 57.2905 59.5416 54.419 57.3698 51.9733L54.5846 47.7956C55.6846 45.5896 55.7219 43.0314 54.4744 40.6953C54.3803 40.5183 54.5473 40.644 50.4003 34.6701C50.9569 34.0378 51.6522 32.9527 51.9975 31.9376C53.107 32.2823 54.4036 32.2954 56.1621 31.5097C56.6079 31.3101 56.8083 30.7866 56.6079 30.3409C56.4074 29.8934 55.8822 29.6964 55.4399 29.8942C54.2353 30.4347 53.2232 30.508 52.3437 30.1718C52.3974 29.049 52.1021 27.6798 51.3469 26.4215C50.8745 25.6492 52.6108 28.4269 46.2482 18.9037C50.1905 11.208 54.9713 6.97717 59.7472 6.97717C71.1159 6.97717 80.2696 30.1188 80.2696 49.2789C80.2696 64.3921 74.8001 74.2252 59.7472 74.2252Z" fill="white"/>
<path d="M64.8995 36.6213C64.4935 36.3587 63.944 36.4701 63.6762 36.8796C63.4102 37.2891 63.5259 37.8368 63.9354 38.1037C66.9942 40.0962 69.7029 39.5725 71.8416 37.01C72.1544 36.6351 72.1043 36.077 71.7293 35.7643C71.3544 35.4533 70.7981 35.5008 70.4836 35.8766C68.8457 37.842 67.1249 38.0683 64.8995 36.6213Z" fill="white"/>
<path d="M71.1763 48.511C69.5383 50.4754 67.8192 50.7052 65.5921 49.2565C65.1861 48.9913 64.6349 49.1062 64.3689 49.5148C64.1028 49.9243 64.2185 50.4728 64.628 50.7389C67.5879 52.6669 70.3228 52.2976 72.5343 49.6444C72.847 49.2686 72.7969 48.7105 72.422 48.3978C72.047 48.0894 71.489 48.1352 71.1763 48.511Z" fill="white"/>
<path d="M67.3631 61.1711C66.9416 60.9275 66.3991 61.0674 66.1537 61.4907C64.8665 63.7023 63.2061 64.2137 60.7717 63.1554C60.326 62.9585 59.8024 63.1649 59.6072 63.6142C59.4137 64.0617 59.6193 64.5834 60.0668 64.7778C63.2517 66.1619 65.9132 65.4162 67.6811 62.3805C67.9281 61.959 67.7847 61.4173 67.3631 61.1711Z" fill="white"/>
<path d="M67.1869 20.1039C65.8738 22.6575 63.9611 23.3616 61.1691 22.3198C60.7147 22.1496 60.2015 22.3802 60.0305 22.839C59.8594 23.2968 60.0927 23.8056 60.5505 23.9767C64.2785 25.3716 67.0749 24.1929 68.7591 20.9125C68.9837 20.478 68.8127 19.945 68.3773 19.7212C67.9454 19.4983 67.408 19.6685 67.1869 20.1039Z" fill="white"/>
<path d="M29.2556 12.2114L26.9629 15.6454C26.6916 16.0523 26.8022 16.6017 27.2082 16.8729C27.612 17.1422 28.1612 17.0368 28.4349 16.6276L30.7277 13.1937C30.9989 12.7868 30.8883 12.2374 30.4823 11.9661C30.0797 11.6974 29.5286 11.8046 29.2556 12.2114Z" fill="white"/>
</svg>
