<svg width="93" height="92" viewBox="0 0 93 92" fill="none" xmlns="http://www.w3.org/2000/svg">
<path d="M23.8256 43.2717V48.6164C20.77 51.2826 19.1441 54.3934 19.1277 57.6449C19.126 57.6667 19.1149 57.6854 19.1148 57.7077L19.0953 64.6884C19.0825 69.1424 22.0143 73.2922 27.3507 76.374C30.591 78.2445 34.4488 79.5366 38.5409 80.2658C38.7013 84.5376 42.1945 87.9698 46.4959 87.9698C50.7969 87.9698 54.29 84.5522 54.465 80.2935C58.6024 79.569 62.4966 78.2646 65.753 76.3723C70.9834 73.332 73.8711 69.2382 73.8838 64.8452L73.9041 57.8907C73.9041 57.8878 73.905 57.8851 73.905 57.8823C73.905 57.8789 73.905 57.8747 73.905 57.8704C73.905 54.5453 72.2532 51.3799 69.1492 48.6844V42.5944C69.1492 36.5503 66.7972 30.858 62.5228 26.565C59.7077 23.7672 56.2288 21.7803 52.4253 20.7589C53.2895 16.8377 53.7936 12.8012 53.7936 11.3424C53.7936 7.31042 50.5202 4.03027 46.4968 4.03027C42.4648 4.03027 39.1838 7.31042 39.1838 11.3424C39.1838 12.8086 39.6897 16.8515 40.5573 20.7725C34.7074 22.3395 29.6877 26.2115 26.7133 31.5487C26.4794 31.9674 26.6294 32.4963 27.0481 32.7294C27.4651 32.9608 27.994 32.8133 28.2288 32.3946C30.9665 27.4829 35.568 23.8908 40.9434 22.4364C40.9779 22.575 41.017 22.6928 41.0523 22.8287C41.3249 23.8706 41.6447 24.9465 42.0121 25.9449C42.5154 27.3122 42.9908 28.5894 45.5376 29.0235C47.7309 29.4037 49.921 28.6594 50.7923 26.459C51.2132 25.3995 51.6194 24.0843 52.0034 22.548C52.0129 22.5106 52.0231 22.4747 52.0325 22.4373C55.5236 23.3841 58.7122 25.225 61.2955 27.7923C65.241 31.7555 67.4134 37.0123 67.4134 42.5944V49.0691V56.3524C67.4464 59.4011 65.3495 62.3058 61.51 64.5316C53.2817 69.2933 39.8483 69.2924 31.5674 64.5307C27.7109 62.3041 25.5784 59.3944 25.5615 56.3431C25.5615 55.7955 25.5615 42.5984 25.5615 43.2717C25.5615 42.7919 25.1733 42.4037 24.6935 42.4037C24.2138 42.4037 23.8256 42.7919 23.8256 43.2717ZM46.4968 5.76612C49.5633 5.76612 52.0577 8.26734 52.0577 11.3424C52.0577 12.794 51.4888 17.1751 50.5498 21.1789C50.5489 21.1822 50.5464 21.1845 50.5457 21.1879C50.2112 22.642 49.7214 24.4242 49.1709 25.8182C49.0235 26.1901 48.9217 26.4323 48.7365 26.6297C48.4187 26.9572 47.4997 27.3936 46.4064 27.3617C44.8336 27.315 44.1832 26.7261 43.8523 25.9216C43.8438 25.8911 43.8336 25.8615 43.8218 25.8318C42.0766 21.4523 40.9197 13.4215 40.9197 11.3424C40.9197 8.26734 43.4217 5.76612 46.4968 5.76612ZM52.7324 80.5763C52.4256 83.7471 49.7455 86.2339 46.4959 86.2339C43.2488 86.2339 40.5722 83.7378 40.2747 80.5585C43.8655 81.0509 48.7251 81.1231 52.7324 80.5763ZM72.148 64.8401C72.1378 68.5915 69.5561 72.1539 64.8808 74.8721C61.6099 76.7729 57.6633 78.0456 53.483 78.7119C53.4802 78.7124 53.4777 78.7112 53.4749 78.7116C50.4398 79.1998 46.8298 79.3964 43.1564 79.1157C38.0507 78.723 32.6714 77.4409 28.2186 74.8704C23.4442 72.1132 20.8201 68.4991 20.8311 64.6935L20.8345 63.4619C22.0576 65.4111 24.232 67.5835 27.3677 69.4018C30.1448 71.0012 33.3773 72.1712 36.8181 72.9338C46.5445 75.0965 57.9768 73.9226 65.7733 69.3908C68.6969 67.6934 71.0256 65.3755 72.1514 63.6035L72.148 64.8401ZM30.7012 66.0352C39.4581 71.0711 53.6683 71.0736 62.3805 66.0335C66.7845 63.4797 69.1891 60.0351 69.1492 56.3431V51.0635C71.1283 53.1527 72.1652 55.4737 72.1685 57.8584C72.1685 57.8581 72.1685 57.8588 72.1685 57.8584L72.1683 57.8602C72.1682 57.8791 72.1636 57.8975 72.1634 57.9164C72.0709 62.2995 68.6528 65.7007 64.8935 67.8821C57.6203 72.1102 47.0242 73.2696 37.8728 71.3937C34.3593 70.6708 31.0523 69.5141 28.239 67.8897C25.8632 66.5179 23.4829 64.5507 22.1234 62.1954C21.2527 60.6865 20.8574 59.0955 20.8574 57.7433C20.8447 55.387 21.8635 53.0841 23.8256 51.0016V56.3482C23.846 60.0462 26.287 63.4865 30.7012 66.0352Z" fill="black"/>
<path d="M25.8429 39.1753C26.0438 37.9598 26.3523 36.758 26.7617 35.6036C26.9219 35.1518 26.6854 34.656 26.2337 34.4958C25.7836 34.3356 25.2852 34.5712 25.1259 35.0238C24.6826 36.274 24.3478 37.5767 24.1308 38.8939C24.0529 39.3668 24.3732 39.8127 24.8462 39.8906C25.2969 39.9711 25.7633 39.6631 25.8429 39.1753Z" fill="black"/>
</svg>
