<svg width="93" height="92" viewBox="0 0 93 92" fill="none" xmlns="http://www.w3.org/2000/svg">
<path d="M29.8632 25.4854L54.377 11.2426C54.7923 11.0019 54.933 10.4713 54.6923 10.0569C54.4499 9.63986 53.9159 9.50255 53.5057 9.74242L28.9919 23.9852C28.5766 24.2259 28.4359 24.7565 28.6766 25.171C28.914 25.5808 29.4432 25.7292 29.8632 25.4854Z" fill="black"/>
<path d="M34.5755 31.4371C34.813 31.847 35.3421 31.9953 35.7622 31.7516L60.2759 17.5088C60.6913 17.2681 60.832 16.7375 60.5912 16.323C60.3488 15.9052 59.8149 15.7679 59.4046 16.0086L34.8908 30.2514C34.4755 30.4921 34.3348 31.0227 34.5755 31.4371Z" fill="black"/>
<path d="M38.2982 68.5155C38.5356 68.9253 39.0648 69.0737 39.4848 68.8299L61.6254 55.9662C62.0407 55.7255 62.1814 55.1949 61.9407 54.7804C61.6983 54.3625 61.166 54.2269 60.7541 54.466L38.6135 67.3297C38.1982 67.5704 38.0575 68.101 38.2982 68.5155Z" fill="black"/>
<path d="M78.6075 57.9724L73.305 54.9109C73.0355 54.7558 72.7015 54.7558 72.4354 54.9126L67.9488 57.5201C67.2062 56.4252 66.743 55.172 66.743 54.1023L66.8464 21.7984C66.8634 15.8959 62.6916 8.65834 57.54 5.66384C54.8633 4.12802 52.3053 3.91443 50.3372 5.05866L16.9916 24.4302C16.974 24.4403 16.9644 24.4577 16.9478 24.4689C15.0298 25.6095 13.9674 27.8828 13.959 30.8896C13.959 31.2007 14.1234 31.488 14.3929 31.6439L19.6869 34.6995C19.9548 34.8537 20.2836 34.8537 20.5549 34.6995C20.8227 34.5452 20.9888 34.2596 20.9888 33.9494C20.9924 32.3357 21.9064 31.8375 23.3061 32.6458C25.0267 33.6391 26.4744 36.1429 26.4693 38.1118L26.4405 48.432C26.4388 48.9117 26.827 49.3008 27.3067 49.3025C27.7848 49.3025 28.1746 48.9151 28.1763 48.4371L28.2052 38.1169C28.2136 35.5165 26.4422 32.4525 24.174 31.1422C21.972 29.8698 20.0412 30.7069 19.453 32.5602L15.7084 30.398C15.8135 28.2553 16.5746 26.6796 17.8748 25.9304C20.5274 24.4085 24.2537 26.8165 26.3866 29.0083C30.027 32.8159 31.7731 37.7877 31.7633 41.1682C31.6216 85.4609 31.6705 70.1839 31.6599 73.4891C31.6599 75.9107 33.3556 78.9941 35.5825 80.263C38.0511 81.6979 40.3484 80.4071 40.3917 77.5168V76.5389L43.9566 78.5973V79.5857C43.937 79.8015 44.3263 84.0048 41.8072 85.4553C40.4154 86.2554 38.5084 86.0375 36.4335 84.8391C31.8311 82.1819 28.0984 75.7182 28.1136 70.4302L28.1441 59.5031C28.1458 59.0234 27.7576 58.6344 27.2779 58.6327C26.7999 58.6327 26.41 59.02 26.4083 59.498L26.3778 70.4251C26.3625 76.2675 30.4835 83.4083 35.5656 86.3427C37.7947 87.6281 40.4414 88.2414 42.6734 86.9597C42.6729 86.96 42.6739 86.9594 42.6734 86.9597C42.6772 86.9576 42.6831 86.9577 42.6869 86.9555L76.0359 67.5806C77.9616 66.4525 79.0228 64.1877 79.0228 61.2102L79.0398 58.7352C79.0398 58.7343 79.039 58.7334 79.039 58.7325C79.039 58.7292 79.0415 58.7266 79.0415 58.7234C79.0415 58.4131 78.8753 58.1275 78.6075 57.9724ZM72.8727 56.6654L76.4428 58.7267L44.8302 77.0969L41.2617 75.0366L72.8727 56.6654ZM51.2085 6.55888C52.6189 5.74012 54.5599 5.95456 56.6721 7.1666C61.3405 9.88141 65.1258 16.4425 65.1106 21.7933L65.0072 54.0998C65.0072 55.4898 65.5259 57.0417 66.4243 58.4013L39.0881 74.2841C38.8203 74.4392 38.6558 74.7249 38.6558 75.0342C38.6554 75.209 38.6486 77.6865 38.6491 77.5117C38.6445 79.4179 37.3037 79.5278 35.8477 78.3354C34.3961 77.1367 33.4144 75.0519 33.4144 73.4916L33.5008 41.1699V41.1674C33.5008 33.8532 27.2616 25.143 21.3838 23.8996C21.3787 23.8979 21.3719 23.897 21.3669 23.8953L51.2085 6.55888ZM77.287 61.2042C77.287 63.5461 76.5309 65.2786 75.1612 66.0812L45.2975 83.4312C45.3123 83.3818 45.3174 83.3239 45.3314 83.2737C45.8081 81.553 45.6667 79.8419 45.6925 79.5179L45.6969 78.6009L77.2937 60.2431L77.287 61.2042Z" fill="black"/>
<path d="M49.8593 54.7033C52.6309 53.103 55.2228 50.3747 57.1586 47.0208C60.0692 41.9819 60.9406 36.3938 59.3827 32.7848C57.7588 29.0287 53.6997 27.7522 48.949 30.4955C46.1841 32.0915 43.5939 34.819 41.658 38.1746C38.7458 43.2024 37.8727 48.799 39.434 52.4351C40.9884 56.0261 44.9951 57.5091 49.8593 54.7033ZM57.5381 32.9633L51.1934 39.5154L53.6819 30.7591C55.2443 30.6927 56.6791 31.4276 57.5381 32.9633ZM43.16 39.0433C44.9467 35.9471 47.3114 33.4451 49.8169 31.9991C50.4848 31.6134 51.1391 31.3159 51.7782 31.1083L48.5794 42.3633C48.4692 42.7464 48.6353 43.1541 48.9795 43.3524C49.3326 43.5555 49.8059 43.4435 50.0373 43.2041L58.203 34.7721C58.8912 37.8757 57.9587 42.1643 55.6567 46.1529C53.87 49.2474 51.5019 51.7494 48.9913 53.1997C44.9739 55.5213 42.1432 54.3271 41.0274 51.7486C39.6764 48.6007 40.5138 43.6143 43.16 39.0433Z" fill="black"/>
<path d="M27.2862 56.5569C27.7642 56.5569 28.1541 56.1696 28.1558 55.6915L28.1659 52.0707C28.1676 51.5909 27.7794 51.2019 27.2997 51.2002C26.8217 51.2002 26.4318 51.5875 26.4301 52.0656L26.4199 55.6865C26.4182 56.1662 26.8064 56.5552 27.2862 56.5569Z" fill="black"/>
</svg>
