<svg width="93" height="92" viewBox="0 0 93 92" fill="none" xmlns="http://www.w3.org/2000/svg">
<path d="M21.2808 40.3449C21.2825 40.823 21.6707 41.2103 22.1487 41.2103H22.1513C22.6302 41.2086 23.0184 40.8196 23.0167 40.3399L22.9828 28.3028L32.4855 33.8254L32.6315 85.2821L23.1277 79.7592L23.0607 55.8193C23.059 55.3412 22.6709 54.9539 22.1928 54.9539H22.1903C21.7114 54.9556 21.3232 55.3446 21.3249 55.8243L21.3935 80.2618C21.3944 80.5704 21.5588 80.8551 21.825 81.0094C21.9004 81.0532 20.7616 80.3915 33.0707 87.5451C33.3347 87.6971 33.6661 87.7007 33.9378 87.5443L71.3238 65.9589C71.5933 65.8029 71.7586 65.5156 71.7577 65.2045L71.606 11.7382C71.6055 11.5633 71.4433 11.1465 71.1746 10.9906L71.1726 10.9894L71.1712 10.9881L71.1694 10.9875L59.9331 4.45744C59.6627 4.29979 59.3313 4.30149 59.0627 4.45575L21.6766 26.0403C21.3702 26.2177 21.2431 26.6164 21.2427 26.7912L21.2431 26.7929L21.2427 26.7946L21.2808 40.3449ZM34.3675 85.2914L34.2217 33.8255C42.9494 28.7867 61.5403 18.0534 69.8744 13.2418L70.0202 64.707L34.3675 85.2914ZM59.4949 6.21024L69.0064 11.7382L33.3534 32.3221C33.1216 32.1875 23.6587 26.688 23.8422 26.7946L59.4949 6.21024Z" fill="black"/>
<path d="M22.1811 51.6314C22.6609 51.6297 23.0482 51.2406 23.0465 50.7609L23.0313 45.55C23.0296 45.0711 22.6414 44.6846 22.1633 44.6846H22.1608C21.6811 44.6863 21.2937 45.0753 21.2954 45.555L21.3107 50.766C21.3124 51.2449 21.7006 51.6314 22.1786 51.6314H22.1811Z" fill="black"/>
<path d="M49.7289 45.4432C49.4602 45.288 49.1288 45.2906 48.8618 45.444L38.2933 51.5457C38.0238 51.7017 37.8585 51.989 37.8594 52.3001L37.889 62.9C37.8899 63.2093 38.056 63.495 38.3239 63.6501C38.5878 63.8021 38.9193 63.8057 39.1909 63.6492L49.7594 57.5475C50.029 57.3915 50.1942 57.1042 50.1934 56.7931L50.1637 46.1933C50.1629 45.8839 49.9968 45.5983 49.7289 45.4432ZM39.6207 61.3964L39.5969 52.7976L48.4321 47.6969L48.4559 56.2956L39.6207 61.3964Z" fill="black"/>
<path d="M65.1736 36.0443L54.5754 42.146C54.3059 42.3012 54.1398 42.5893 54.1406 42.9004L54.1711 53.5003C54.172 53.8096 54.3381 54.0953 54.606 54.2504C54.8699 54.4024 55.2014 54.406 55.473 54.2495L66.0407 48.1478C66.3094 47.9927 66.4746 47.7062 66.4746 47.396V36.7961C66.4746 36.4859 66.3094 36.2003 66.0415 36.0443C65.772 35.89 65.4414 35.8892 65.1736 36.0443ZM64.7388 46.895L55.9028 51.9966L55.8782 43.3988L64.7388 38.2972V46.895Z" fill="black"/>
<path d="M65.1736 51.8458L54.5754 57.9467C54.3068 58.101 54.1406 58.3883 54.1406 58.6985V69.2992C54.1406 69.6094 54.3059 69.8959 54.5737 70.051C54.8492 70.2087 55.1778 70.203 55.4417 70.051L66.0398 63.9484C66.3085 63.7942 66.4746 63.5068 66.4746 63.1966V52.5976C66.4746 52.2874 66.3094 52.0017 66.0415 51.8466C65.772 51.6898 65.4414 51.6907 65.1736 51.8458ZM64.7388 62.6949L55.8765 67.7981V59.2003L64.7388 54.0987V62.6949Z" fill="black"/>
<path d="M48.8924 61.2455L38.2942 67.3464C38.0247 67.5015 37.8585 67.7897 37.8594 68.1007L37.889 78.7014C37.8899 79.0108 38.056 79.2964 38.3239 79.4516C38.5878 79.6036 38.9193 79.6072 39.1909 79.4507L49.7594 73.3481C50.0281 73.193 50.1934 72.9065 50.1934 72.5963V61.9973C50.1934 61.6871 50.0281 61.4014 49.7603 61.2463C49.4908 61.0904 49.1602 61.0895 48.8924 61.2455ZM48.4576 72.0954L39.6207 77.1978L39.5969 68.5991L48.4576 63.4984V72.0954Z" fill="black"/>
<path d="M66.9561 19.0808C66.6874 18.9257 66.356 18.9282 66.089 19.0816L37.2543 35.729C36.9847 35.885 36.8195 36.1723 36.8203 36.4834L36.8508 47.4011C36.8517 47.7104 37.0178 47.9961 37.2856 48.1512C37.4196 48.2283 37.5696 48.2664 37.7188 48.2664C37.8688 48.2664 38.0188 48.2275 38.1527 48.1503L66.9875 31.5021C67.257 31.3462 67.4223 31.0588 67.4214 30.7478L67.3909 19.8309C67.3901 19.5215 67.224 19.2359 66.9561 19.0808ZM38.5824 45.8975L38.5579 36.9809L65.6593 21.3345L65.6839 30.2502L38.5824 45.8975Z" fill="black"/>
<path d="M58.7237 47.0637L62.7599 44.7337C63.1752 44.4938 63.3176 43.9633 63.0777 43.5479C62.837 43.1326 62.3056 42.9902 61.8919 43.2301L57.8557 45.5601C57.4404 45.8 57.298 46.3306 57.5379 46.7459C57.7801 47.164 58.3124 47.3013 58.7237 47.0637Z" fill="black"/>
<path d="M58.9654 61.354L62.5184 59.3028C62.9337 59.063 63.0761 58.5324 62.8363 58.1171C62.5947 57.7009 62.0641 57.5577 61.6505 57.7992L58.0974 59.8504C57.6821 60.0902 57.5397 60.6208 57.7796 61.0361C58.0218 61.4542 58.5541 61.5916 58.9654 61.354Z" fill="black"/>
<path d="M58.9654 64.0976L62.5184 62.0464C62.9337 61.8066 63.0761 61.276 62.8363 60.8607C62.5947 60.4454 62.0641 60.3021 61.6505 60.5428L58.0974 62.594C57.6821 62.8338 57.5397 63.3644 57.7796 63.7797C58.0218 64.1978 58.5541 64.3352 58.9654 64.0976Z" fill="black"/>
<path d="M41.8637 70.1536L42.8526 70.7633L41.8349 72.72C41.6136 73.1447 41.7789 73.6693 42.2036 73.8897C42.6228 74.109 43.1508 73.9507 43.3741 73.5202L44.3332 71.676L45.2786 72.259C45.6827 72.5082 46.2187 72.3864 46.4728 71.975C46.7237 71.5673 46.5974 71.0325 46.1897 70.7808L45.1365 70.1314L46.2575 67.9761C46.4788 67.5515 46.3135 67.0268 45.8888 66.8065C45.4608 66.581 44.9379 66.7497 44.7183 67.176L43.656 69.2186L42.7748 68.6754C42.3654 68.4228 41.8323 68.5508 41.5806 68.9593C41.3297 69.367 41.456 69.9018 41.8637 70.1536Z" fill="black"/>
<path d="M45.6599 52.6798L44.8946 53.0928V52.2221C44.8946 51.7424 44.5064 51.3542 44.0266 51.3542C43.5469 51.3542 43.1587 51.7424 43.1587 52.2221V54.0294L41.5695 54.8869C41.1474 55.1141 40.9897 55.6413 41.2177 56.0625C41.4487 56.4907 41.9813 56.639 42.3933 56.4143L43.1587 56.0013V56.8711C43.1587 57.3508 43.5469 57.739 44.0266 57.739C44.5064 57.739 44.8946 57.3508 44.8946 56.8711V55.0647L46.4838 54.2071C46.9059 53.98 47.0635 53.4528 46.8355 53.0316C46.6084 52.6095 46.0795 52.451 45.6599 52.6798Z" fill="black"/>
</svg>
