<svg width="93" height="92" viewBox="0 0 93 92" fill="none" xmlns="http://www.w3.org/2000/svg">
<path d="M19.1976 77.9505C19.4775 78.1131 32.1912 85.5044 32.4562 85.6559C32.4558 85.6556 32.4567 85.6561 32.4562 85.6559C32.4572 85.6564 32.4591 85.6575 32.4601 85.6581C39.0617 89.4338 47.0457 87.4197 53.6552 83.6039C69.7309 74.3226 82.7461 51.9171 82.718 33.2634C82.6926 24.1307 79.5243 17.3026 73.7963 14.0385C73.7941 14.0372 73.7918 14.0366 73.7896 14.0353L60.541 6.33568C54.8173 3.07249 47.289 3.80226 39.3446 8.38853C39.3443 8.38874 39.345 8.38831 39.3446 8.38853C31.53 12.9145 24.2112 20.6281 18.7376 30.1083C18.7373 30.1088 18.7379 30.1077 18.7376 30.1083C18.7368 30.1095 18.7359 30.1124 18.7351 30.1137C13.2586 39.6156 10.2573 49.7781 10.2819 58.7307C10.3082 67.8787 13.4773 74.7059 19.1976 77.9505ZM25.2952 66.9195C26.5267 66.2085 37.0956 60.1061 36.7087 60.3296C36.9708 63.7451 38.2619 67.2172 40.9737 69.1627L40.912 69.2696L32.5998 83.6672C27.2107 80.1136 25.3998 73.3993 25.2952 66.9195ZM33.0859 39.44L40.8769 43.8798C38.2319 48.7023 36.7451 53.7927 36.6536 58.3567L25.3326 64.8932C25.6462 56.135 28.6574 47.345 33.0859 39.44ZM52.1704 18.4195L52.2076 31.4318C48.2926 33.8107 44.6155 37.6582 41.7497 42.3707L33.9979 37.8653C38.5575 30.2106 44.6617 23.158 52.1704 18.4195ZM71.4733 14.8706C71.6997 14.965 71.9203 15.0725 72.1411 15.1794C71.8694 15.6499 63.3614 30.385 63.772 29.6739C60.668 28.3024 57.0735 28.957 53.941 30.4825L53.9292 26.374L53.9037 17.3682C59.2659 14.3648 65.7469 12.4855 71.4733 14.8706ZM73.1743 60.2868L65.3655 55.8368C67.7167 51.5425 69.4914 46.2841 69.5898 41.3461L80.955 34.7843C80.6575 42.8531 77.9266 51.8178 73.1743 60.2868ZM63.4253 55.726C60.6435 60.5818 56.7489 64.6977 52.7271 67.026C46.2915 70.8962 39.9581 69.249 38.6396 61.7162C42.7752 59.8796 47.8112 55.609 51.6693 48.9021C55.5206 42.2374 56.7106 35.8395 56.2675 31.3945C62.4536 29.1304 67.3689 32.2258 67.8116 39.8155C68.123 45.2447 66.121 51.0784 63.4253 55.726ZM38.3852 58.8568C38.3727 54.2282 39.9433 48.9475 42.8087 43.987C42.8085 43.9873 42.8089 43.9867 42.8087 43.987C42.8091 43.9863 42.8099 43.9846 42.8103 43.9838C45.6877 39.0148 49.4879 34.9994 53.5111 32.6769C53.8595 32.4758 54.2028 32.307 54.5464 32.1357C54.8842 37.5726 52.8932 43.3155 50.1649 48.035C47.4537 52.7495 43.3639 57.454 38.452 59.8827C38.4313 59.539 38.3871 59.2096 38.3852 58.8568ZM34.0906 84.5574L42.4807 70.0247C45.5602 71.3928 49.2189 70.7249 52.3142 69.2246C52.3156 69.7012 52.3535 83.0094 52.3516 82.3477C45.4786 86.1975 39.0498 86.9705 34.0906 84.5574ZM54.085 81.3179L54.0477 68.2787C58.2692 65.7138 61.9147 61.601 64.4981 57.3411L72.3052 61.7899C67.3326 70.1521 60.9257 77.0132 54.085 81.3179ZM80.9771 32.7667L69.5381 39.3711C69.5326 39.2977 69.5199 39.2301 69.5136 39.1574C69.2302 35.9056 68.0897 32.7186 65.5181 30.73C65.4368 30.6672 65.3637 30.5941 65.2801 30.5344L73.6726 15.999C78.2741 19.0418 80.8508 24.9427 80.9771 32.7667ZM59.6756 7.84014L66.9335 12.0586C66.8774 12.0555 66.819 12.0592 66.7628 12.0567C66.6496 12.0514 66.5336 12.0561 66.4197 12.0528C61.7765 11.9272 57.0766 13.5808 53.0385 15.8428L41.5407 9.16067C48.4273 5.55167 54.8266 5.07533 59.6756 7.84014ZM39.7811 10.1456L51.3302 16.8577C43.6645 21.6698 37.0399 29.3253 32.4813 36.9839C32.3054 36.8832 19.9046 29.7777 20.6825 30.2234C25.8498 21.5227 32.5938 14.4307 39.7811 10.1456ZM19.8104 31.7335L31.5647 38.565C27.102 46.5231 23.862 56.0399 23.561 64.9367L12.0194 58.2298C12.1033 49.9353 14.8563 40.578 19.8104 31.7335ZM23.5415 66.9328C23.6144 71.615 24.5948 76.6419 27.1174 80.5458L20.0613 76.4452C15.214 73.6956 12.3991 67.9804 12.0542 60.2572L23.5415 66.9328Z" fill="black"/>
</svg>
