<svg width="93" height="92" viewBox="0 0 93 92" fill="none" xmlns="http://www.w3.org/2000/svg">
<path d="M8.62812 75.4015L23.7168 84.1706L23.7227 84.174L23.7294 84.1758C23.7354 84.1793 23.7404 84.184 23.7464 84.1875C26.5699 85.8119 29.9538 85.0078 32.7859 83.373L42.7764 77.6052C43.1917 77.3653 43.3341 76.8347 43.0942 76.4194C42.8535 76.0033 42.3204 75.86 41.9084 76.1016L31.918 81.8694C29.1108 83.4917 26.5163 83.7773 24.6118 82.6831C18.8955 79.3926 21.8854 64.8547 31.0908 58.0184C31.2353 57.9114 31.3967 57.6517 31.4281 57.4726C33.0383 48.3469 41.6275 38.8714 47.8737 40.0132C48.3497 40.1026 48.7921 39.7232 48.8773 39.3708C51.6467 27.9679 62.4291 16.1614 70.7536 17.5531C75.3146 18.3276 77.0737 22.7493 77.0865 27.4215C77.0929 29.5554 76.6906 32.3222 75.7654 35.2792C75.7273 35.3988 75.7007 35.5154 75.6609 35.6355C75.5414 35.9957 75.6702 36.3915 75.9787 36.6136C76.2872 36.8348 76.7051 36.8305 77.0068 36.6017C79.0413 35.0693 81.9397 33.7365 84.135 35.0015C85.6047 35.8474 86.4175 37.6985 86.4243 40.2158C86.4404 45.8226 82.4831 52.6761 77.6027 55.4935L57.2743 67.2299C56.859 67.4698 56.7166 68.0004 56.9564 68.4157C57.1963 68.8302 57.7269 68.9726 58.1422 68.7336L78.4706 56.9971C83.8316 53.9017 88.178 46.3718 88.1602 40.2107C88.1517 37.0492 87.0295 34.6641 85.0012 33.497C84.4529 33.1815 80.7757 31.0417 78.6897 29.8328C78.7716 29.0148 78.8249 28.2059 78.8224 27.4164C78.8088 22.4191 77.0585 18.6643 73.8945 16.8437C73.7204 16.7435 58.862 8.25247 58.8279 8.07885C55.6342 6.22688 51.4412 6.61423 47.0168 9.16884C40.3611 13.0013 34.5176 21.0972 32.2894 29.4782C30.4295 29.3505 28.3552 29.883 26.2163 31.117C20.7075 34.299 16.0239 41.2259 14.7062 48.0561C8.95624 52.4702 4.82025 60.4899 4.83942 67.2706C4.85129 71.1009 6.1964 73.9886 8.62812 75.4015ZM78.4393 31.695L80.5709 32.9351C79.9759 33.0541 78.7929 33.4718 77.9759 33.9012C78.1592 33.178 78.3021 32.4652 78.426 31.7577C78.4295 31.7373 78.4359 31.7154 78.4393 31.695ZM47.8839 10.6725C51.7472 8.44162 55.324 8.05342 57.9557 9.57992L68.5327 15.7359C68.5114 15.7377 68.489 15.7439 68.4677 15.7458C68.4106 15.7511 68.351 15.7661 68.2937 15.7723C59.1174 16.7447 50.33 27.7913 47.4966 37.8063C47.4934 37.8175 47.4886 37.8285 47.4854 37.8396C47.3069 37.7358 33.0472 29.44 33.9454 29.9626C36.0525 21.9885 41.5923 14.295 47.8839 10.6725ZM27.0842 32.6206C29.1074 31.4535 31.0204 30.967 32.6342 31.217C32.8093 31.3188 45.8167 38.8789 45.0011 38.4048C37.8702 39.9601 31.6438 48.7959 29.9669 55.9647L17.0507 48.4587L16.4479 48.1085C17.7371 41.9169 22.136 35.4778 27.0842 32.6206ZM15.546 49.5919L20.6107 52.5353L29.0371 57.4327C25.1114 60.7477 21.3701 66.6107 20.2852 72.6302C19.8213 75.2033 19.7285 77.9181 20.6562 80.3844L9.50028 73.9013C7.62373 72.8104 6.58459 70.4541 6.57527 67.2655C6.55832 61.1697 10.3834 53.6808 15.546 49.5919Z" fill="black"/>
<path d="M52.4001 70.0448L47.0857 73.1122C46.6704 73.352 46.528 73.8826 46.7679 74.2979C47.0101 74.716 47.5423 74.8534 47.9536 74.6158L53.268 71.5484C53.6833 71.3085 53.8257 70.7779 53.5858 70.3626C53.3451 69.9456 52.812 69.8057 52.4001 70.0448Z" fill="black"/>
<path d="M46.4982 58.4727L53.5314 64.1236C53.9577 64.4683 54.5983 64.3321 54.8486 63.8405L61.8284 50.0995C62.0022 49.757 61.9301 49.3409 61.6513 49.0764C61.3724 48.812 60.9537 48.7628 60.6206 48.9544L58.6669 50.0825L58.6381 39.8607C58.6372 39.5513 58.4711 39.2657 58.2033 39.1105C57.9355 38.9554 57.604 38.958 57.3362 39.1114L49.8249 43.4485C49.5554 43.6044 49.3901 43.8918 49.391 44.2028L49.4223 55.4197L46.6075 57.0445C46.0802 57.3487 46.0217 58.0919 46.4982 58.4727ZM50.7259 56.6716C50.9954 56.5157 51.1607 56.2283 51.1599 55.9173L51.1285 44.7004L56.9065 41.3643L56.9353 51.5853C56.9362 51.8946 57.1023 52.1803 57.3701 52.3345C57.6388 52.4913 57.9702 52.4879 58.2372 52.3345L58.9568 51.9192L53.7848 62.1012L48.5739 57.9142L50.7259 56.6716Z" fill="black"/>
</svg>
