<svg width="93" height="92" viewBox="0 0 93 92" fill="none" xmlns="http://www.w3.org/2000/svg">
<path d="M66.0849 39.3522C71.5264 36.2094 75.9389 28.5659 75.9219 22.3124C75.9135 19.1085 74.776 16.6929 72.7232 15.5114C68.4359 13.0525 65.8788 11.5308 61.7961 9.15622C60.1175 8.17992 57.9661 8.17091 55.706 9.09679L48.9553 5.17767C46.6719 3.84188 43.6782 4.10124 40.5286 5.90829C40.1133 6.14731 39.9692 6.67789 40.2082 7.09321C40.4472 7.50852 40.9795 7.64753 41.3931 7.41359C43.98 5.92863 46.3549 5.66588 48.0823 6.67789L55.1842 10.8011C55.1894 10.8043 55.1915 10.8109 55.1969 10.8141L55.2289 10.8326C53.0692 11.2284 50.8417 12.5076 49.1031 13.9524C44.5926 17.698 41.0508 24.1088 40.5271 29.8817L39.1791 29.0985L31.2577 24.4873C31.3849 20.6613 33.0767 16.2386 35.8381 12.5483C36.1246 12.1634 36.0466 11.621 35.6635 11.3328C35.2821 11.048 34.7379 11.1243 34.448 11.5074C31.4666 15.4919 29.6644 20.3002 29.5384 24.4863C28.6867 24.7187 27.8126 25.0543 26.9147 25.5722C21.4732 28.715 17.0607 36.3535 17.0777 42.6001C17.0862 45.7972 18.2168 48.2111 20.2612 49.3994L31.2137 55.7631C31.2148 55.7637 31.2161 55.7634 31.2173 55.764C31.222 55.7668 31.2259 55.7705 31.2306 55.7733C33.5978 57.1345 36.4168 56.4795 38.7944 55.1088L49.8859 48.705L49.878 55.5333L35.4211 63.8795C35.1515 64.0338 34.9871 64.322 34.9871 64.6322L34.998 69.271C34.5477 69.4209 34.0892 69.6253 33.6259 69.8974C30.2525 71.8773 27.6369 76.4746 27.6725 80.3684C27.6962 82.4009 28.4404 83.9401 29.7406 84.6843C29.9153 84.7948 32.7136 86.5571 33.7047 87.1813C33.7063 87.1822 33.7074 87.1837 33.709 87.1847C35.2423 88.0524 37.0365 87.6436 38.5503 86.7558C41.9237 84.7758 44.5359 80.1735 44.497 76.2763C44.4789 74.2972 43.7565 72.8002 42.4832 72.0205C42.4635 72.0055 42.4519 71.984 42.4306 71.9706L38.4791 69.4787C37.9516 69.1768 37.3557 69.0574 36.7334 69.0349L36.7246 65.1306L64.7762 48.9367L64.7832 52.0281C64.2015 52.1751 63.6081 52.388 63.0014 52.744C59.628 54.7223 57.0124 59.3195 57.0463 63.215C57.07 65.2475 57.8142 66.7867 59.1144 67.5309C59.2899 67.6418 62.89 69.9224 63.0658 70.0228C63.0688 70.0245 63.0724 70.0237 63.0754 70.0254C63.0781 70.0269 63.08 70.0297 63.0828 70.0313C64.6133 70.9 66.4146 70.4878 67.9242 69.6024C71.2975 67.6242 73.9098 63.0218 73.8725 59.1229C73.8527 57.1421 73.1305 55.6465 71.8569 54.867C71.6388 54.7016 68.9947 53.0489 67.8513 52.3236C67.4418 52.0882 66.989 51.9673 66.5189 51.9021L66.5087 47.433C66.5087 47.1228 66.3426 46.8363 66.0747 46.6821C65.8035 46.5295 65.4746 46.5278 65.2068 46.6838L51.615 54.5305L51.6229 47.702L66.0849 39.3522ZM37.6722 85.2573C35.1145 86.7641 33.3581 85.6279 33.3309 82.8247C33.3004 79.6073 35.633 75.5067 38.4266 73.8691C40.7764 72.4861 42.7315 73.2636 42.7611 76.2932C42.7933 79.5157 40.4625 83.6214 37.6722 85.2573ZM37.5841 70.9653L38.847 71.7621C38.4198 71.9112 37.9859 72.1147 37.5468 72.3706C34.3213 74.2653 31.5577 78.935 31.5934 82.8434C31.5968 83.1943 31.6222 83.5299 31.6697 83.8503L30.6356 83.1976C29.8592 82.7518 29.4236 81.7415 29.4083 80.3498C29.3795 77.134 31.712 73.0317 34.5057 71.3942C34.6773 71.2933 34.8359 71.2453 35.0024 71.1672L35.0041 71.8705C35.0058 72.3503 35.3939 72.7368 35.872 72.7368C36.3517 72.7351 36.7416 72.3469 36.7399 71.8672L36.7374 70.7388C37.0487 70.7571 37.3383 70.824 37.5841 70.9653ZM67.0461 68.1039C64.7096 69.4772 63.1579 68.6204 62.7928 66.621C62.1985 63.3275 64.725 58.5177 67.8004 56.7158C70.165 55.3235 72.1074 56.1432 72.1366 59.1399C72.1672 62.3624 69.8363 66.4681 67.0461 68.1039ZM66.9579 53.8103L68.2225 54.6087C64.0196 56.0764 60.3943 62.1529 61.0435 66.6969L60.0094 66.0443C59.2331 65.5984 58.7974 64.5881 58.7821 63.1981C58.755 59.979 61.0893 55.8784 63.8812 54.2408C64.1943 54.0567 64.4931 53.9346 64.7874 53.8259L64.7881 54.1527C64.7898 54.6324 65.178 55.0189 65.656 55.0189C66.1358 55.0172 66.5257 54.629 66.524 54.1493L66.5228 53.6384C66.6774 53.6788 66.824 53.7341 66.9579 53.8103ZM60.9231 10.6564L68.2604 14.9395C66.8812 15.2366 65.1383 15.9985 63.3252 17.4252C62.9686 14.5876 61.6587 12.6444 60.0552 11.6464C59.8734 11.4781 59.4182 11.2585 57.7254 10.2691C58.9417 10.0148 60.0397 10.1437 60.9231 10.6564ZM21.1325 47.8975C19.6442 47.033 18.8203 45.1497 18.8135 42.5967C18.7966 36.9027 22.8209 29.9406 27.7827 27.0758C28.6348 26.5845 29.4565 26.2441 30.2307 26.0609L39.189 31.2682C33.0814 33.9052 28.0103 42.2829 28.0285 48.9655C28.031 49.9405 28.1896 51.1849 28.4749 52.1081C28.4812 52.1284 28.4832 52.1526 28.4895 52.1727L21.1325 47.8975ZM37.9265 53.6035C33.222 56.3156 29.7782 54.1769 29.7643 48.9621C29.7421 41.5021 36.199 33.3206 41.4864 32.363C41.7347 32.3173 42.1964 32.0165 42.1976 31.3559C42.1976 31.3548 42.1983 31.3538 42.1983 31.3527C42.182 25.6466 45.6924 19.066 50.0984 15.3724C55.9607 10.4631 61.6548 11.717 61.691 19.2458C61.691 19.9931 62.5706 20.3817 63.1265 19.8935C64.0387 19.0925 65.0413 18.2579 66.0341 17.6863C70.493 15.0793 74.1716 16.8614 74.1861 22.3158C74.203 28.0166 70.1787 34.9838 65.217 37.8503L37.9265 53.6035Z" fill="black"/>
<path d="M37.486 10.5819C37.9793 10.0581 38.4929 9.56477 39.015 9.11555C39.3795 8.80364 39.4219 8.2561 39.1083 7.89334C38.7963 7.53057 38.2488 7.48989 37.886 7.8001C37.3165 8.28831 36.7571 8.82398 36.2214 9.39186C35.8925 9.74107 35.9095 10.2903 36.2587 10.6192C36.6072 10.9466 37.1559 10.9315 37.486 10.5819Z" fill="black"/>
</svg>
