<svg width="93" height="92" viewBox="0 0 93 92" fill="none" xmlns="http://www.w3.org/2000/svg">
<path d="M40.5287 20.8527L43.9666 22.8489C43.9742 22.8537 43.9773 22.8629 43.9852 22.8674L51.0845 26.9816C51.3629 27.1417 51.6925 27.1332 51.9541 26.9825L70.8044 16.1165C71.0739 15.9613 71.24 15.6757 71.24 15.3655C71.24 15.0561 71.0756 14.7688 70.8078 14.6137L60.2367 8.46957C60.2244 8.46236 60.2092 8.46533 60.1967 8.45876C59.9266 8.31777 59.6823 8.31488 59.4079 8.45707C59.395 8.46363 59.3797 8.46067 59.3671 8.46787L40.5321 19.3508C40.2643 19.5059 40.0981 19.7916 40.0981 20.1009C40.0981 20.4103 40.2609 20.6968 40.5287 20.8527ZM46.1573 22.115L59.7994 14.2323L65.1696 17.3573L51.5219 25.228L46.1573 22.115ZM66.905 16.3588L60.669 12.7292V10.7286L68.6379 15.3596L66.905 16.3588ZM58.9331 10.7237V12.7277L44.4264 21.1106L42.6951 20.106L58.9331 10.7237Z" fill="black"/>
<path d="M62.859 28.2098C62.5912 28.0555 62.2606 28.0564 61.9928 28.2106L55.4291 32.0002C55.1596 32.1561 54.9934 32.4434 54.9951 32.7545L55.0155 40.1505C55.0172 40.4599 55.1816 40.7455 55.4511 40.8998C55.7204 41.0548 56.049 41.0544 56.3174 40.8998L62.8827 37.1111C63.1523 36.9551 63.3184 36.6678 63.3167 36.3567L63.2947 28.9599C63.293 28.6505 63.1285 28.3649 62.859 28.2098ZM56.7479 38.6477L56.7327 33.252L61.5639 30.4635L61.5792 35.8592L56.7479 38.6477Z" fill="black"/>
<path d="M66.253 35.0294C66.4022 35.0294 66.5531 34.9904 66.687 34.9133L73.2524 31.1246C73.5219 30.9687 73.688 30.6813 73.6863 30.3703L73.6643 22.9726C73.6626 22.6632 73.4982 22.3776 73.2286 22.2224C72.9608 22.0682 72.6302 22.069 72.3624 22.2233L65.7987 26.0137C65.5292 26.1696 65.3631 26.457 65.3648 26.768L65.3851 34.164C65.3878 34.6481 65.7811 35.0294 66.253 35.0294ZM71.9335 24.4762L71.9488 29.8727L67.1176 32.6613L67.1023 27.2656L71.9335 24.4762Z" fill="black"/>
<path d="M62.859 40.276C62.5912 40.1217 62.2606 40.1225 61.9928 40.2768L55.4291 44.0663C55.1596 44.2223 54.9934 44.5096 54.9951 44.8207L55.0155 52.2175C55.0191 52.8884 55.7438 53.2972 56.3174 52.9668L62.8827 49.1773C63.1523 49.0213 63.3184 48.734 63.3167 48.4229L63.2947 41.0261C63.293 40.7167 63.1285 40.4311 62.859 40.276ZM56.7479 50.7139L56.7327 45.3182L61.5639 42.5297L61.5792 47.9254L56.7479 50.7139Z" fill="black"/>
<path d="M73.2286 34.2895C72.9608 34.1352 72.6302 34.1361 72.3624 34.2903L65.7987 38.0799C65.5292 38.2358 65.3631 38.5232 65.3648 38.8342L65.3851 46.2311C65.3868 46.5404 65.5512 46.8261 65.8208 46.9803C66.09 47.1354 66.4186 47.1349 66.687 46.9803L73.2524 43.1908C73.5219 43.0348 73.688 42.7475 73.6863 42.4364L73.6643 35.0396C73.6626 34.7302 73.4982 34.4446 73.2286 34.2895ZM67.1176 44.7275L67.1023 39.3317L71.9335 36.5432L71.9488 41.9389L67.1176 44.7275Z" fill="black"/>
<path d="M14.8047 76.6339C14.8064 76.9424 14.9708 77.2272 15.2369 77.3814L32.7226 87.5422C32.7222 87.542 32.7229 87.5425 32.7226 87.5422C32.7235 87.5428 32.725 87.5443 32.7259 87.5448C32.8599 87.6219 33.009 87.6601 33.1582 87.6601C33.3074 87.6601 33.4583 87.6211 33.5922 87.5439L42.1612 82.5966C42.5765 82.3567 42.7189 81.8261 42.4782 81.4108C42.2392 80.993 41.7069 80.854 41.2933 81.093L34.0218 85.2906C34.0139 82.5182 33.9461 58.8175 33.9346 54.8029L50.6896 45.1296L50.7761 75.6176L47.6688 77.4119C47.2535 77.6518 47.1111 78.1824 47.3518 78.5977C47.5892 79.0147 48.1197 79.152 48.5368 78.9156C49.0848 78.5991 77.6109 62.1292 77.8546 61.9885C78.1242 61.8325 78.2903 61.5452 78.2886 61.2341L78.1598 15.3664C78.1593 15.2889 78.1209 15.2225 78.101 15.1497C78.0813 15.0776 78.0799 14.9993 78.0428 14.9351C77.998 14.8575 77.9201 14.8055 77.8527 14.7444C77.8083 14.7043 77.7805 14.6495 77.7275 14.6188L77.7255 14.6176C56.2544 2.13962 82.193 17.2131 60.2419 4.45711C59.9757 4.30116 59.6418 4.30116 59.3722 4.45542L33.5973 19.3373C33.4631 19.4149 33.3547 19.5253 33.2797 19.6551C33.244 19.717 33.2437 19.7926 33.2241 19.8619C33.2026 19.9377 33.1633 20.0073 33.1633 20.0882C33.1633 20.2693 33.1978 33.1423 33.1992 32.9668L15.1454 43.39C15.0113 43.4676 14.9029 43.578 14.8279 43.7078C14.7922 43.7697 14.7918 43.8453 14.7722 43.9146C14.7507 43.9904 14.7114 44.06 14.7114 44.1409C14.7114 44.1416 14.7118 44.142 14.7118 44.1426C14.7118 44.1433 14.7114 44.1437 14.7114 44.1443L14.8047 76.6339ZM16.5388 76.1312L16.4524 45.6524C18.1808 46.6568 31.0045 54.1088 32.1984 54.8026C32.2025 56.2215 32.2616 77.005 32.2852 85.2817L16.5388 76.1312ZM50.6823 42.1174L34.9347 32.9672L34.9025 21.5995L50.6503 30.7506L50.6823 42.1174ZM60.176 58.2705L69.489 52.8939L69.5198 63.6997L60.176 58.2705ZM68.722 65.2428L59.4485 70.5957L59.4178 59.8365L68.722 65.2428ZM71.2563 63.7935L71.2214 51.3903C71.2198 51.0809 71.0553 50.7953 70.7858 50.6402C70.518 50.4859 70.1874 50.4868 69.9196 50.641L58.111 57.4581C57.8415 57.6141 57.6754 57.9014 57.6771 58.2125L57.7147 71.6118L52.5102 74.6166L52.3865 30.751L76.4273 16.8704L76.551 60.7366L71.2563 63.7935ZM59.8045 6.20992L75.5606 15.3661L51.518 29.2477C47.1908 26.7331 39.2063 22.0932 35.762 20.0916L59.8045 6.20992ZM34.0668 34.47L49.8217 43.6256C48.0634 44.6407 34.7965 52.3006 33.0661 53.2996L17.3118 44.1443L34.0668 34.47Z" fill="black"/>
<path d="M33.5008 51.0419L42.0071 46.1472C42.0164 46.1418 42.0201 46.1308 42.0293 46.1251L45.0652 44.3749C45.333 44.2198 45.4975 43.9341 45.4975 43.6248C45.4975 43.3154 45.333 43.0289 45.0652 42.8738L34.4941 36.7288C34.4819 36.7216 34.4666 36.7245 34.4541 36.7179C34.3351 36.6558 34.2059 36.6126 34.0625 36.6119C34.0623 36.6119 34.0627 36.6119 34.0625 36.6119C34.0613 36.6119 34.0596 36.611 34.0585 36.611C33.9145 36.611 33.7846 36.6544 33.6652 36.7163C33.6523 36.7228 33.6371 36.7199 33.6245 36.7271L22.0804 43.3925C21.8126 43.5476 21.6465 43.8333 21.6465 44.1426C21.6465 44.452 21.8109 44.7385 22.0771 44.8944L32.6312 51.0394C32.9037 51.1978 33.2362 51.1943 33.5008 51.0419ZM27.3137 45.9342L34.0585 42.0237L39.838 45.3877L33.0719 49.2866L27.3137 45.9342ZM41.5723 44.3884L34.9264 40.5206V38.9872L42.9005 43.6231L41.5723 44.3884ZM33.1906 38.9819V40.5198L25.5867 44.9288L24.2452 44.1477L33.1906 38.9819Z" fill="black"/>
<path d="M44.5852 81.1972L46.4855 80.0996C46.9008 79.8598 47.0432 79.3292 46.8025 78.9139C46.5652 78.4968 46.0329 78.3553 45.6176 78.596L43.7173 79.6936C43.302 79.9335 43.1596 80.4641 43.4003 80.8794C43.6366 81.2929 44.1675 81.437 44.5852 81.1972Z" fill="black"/>
<path d="M38.652 65.5229C38.9198 65.6771 39.2504 65.6763 39.5183 65.522L46.082 61.7334C46.3515 61.5774 46.5176 61.2901 46.5159 60.979L46.4956 53.5813C46.4939 53.2719 46.3294 52.9863 46.0599 52.8312C45.7921 52.6769 45.4615 52.6778 45.1937 52.832L38.6283 56.6224C38.3588 56.7784 38.1927 57.0657 38.1943 57.3768L38.2164 64.7728C38.2181 65.0821 38.3825 65.3678 38.652 65.5229ZM44.7631 55.0849L44.7784 60.4815L39.9471 63.27L39.9319 57.8743L44.7631 55.0849Z" fill="black"/>
<path d="M38.2164 76.8398C38.2181 77.1492 38.3825 77.4348 38.652 77.5899C38.9198 77.7441 39.2504 77.7433 39.5183 77.5891L46.082 73.7995C46.3515 73.6436 46.5176 73.3563 46.5159 73.0452L46.4956 65.6483C46.4939 65.339 46.3294 65.0533 46.0599 64.8991C45.7921 64.7448 45.4615 64.7448 45.1937 64.8991L38.6283 68.6886C38.3588 68.8446 38.1927 69.1319 38.1943 69.443L38.2164 76.8398ZM44.7631 67.1519L44.7784 72.5477L39.9471 75.3362L39.9319 69.9405L44.7631 67.1519Z" fill="black"/>
<path d="M27.2066 65.7789C27.3406 65.856 27.4914 65.895 27.6406 65.895C28.1172 65.895 28.5059 65.51 28.5085 65.0296L28.5289 57.6327C28.5306 57.3217 28.3644 57.0344 28.0949 56.8784L21.5312 53.0889C21.2634 52.9346 20.9328 52.9354 20.665 53.088C20.3955 53.2431 20.231 53.5288 20.2293 53.8381L20.209 61.235C20.2073 61.546 20.3734 61.8334 20.643 61.9893L27.2066 65.7789ZM21.9618 55.3417L26.7913 58.1303L26.7761 63.526L21.9465 60.7374L21.9618 55.3417Z" fill="black"/>
<path d="M21.5312 65.155C21.2634 65.0008 20.9328 64.9999 20.665 65.1542C20.3955 65.3093 20.231 65.5949 20.2293 65.9043L20.209 73.302C20.2073 73.6131 20.3734 73.9004 20.643 74.0564L27.2066 77.8451C27.7813 78.176 28.5049 77.7651 28.5085 77.0958L28.5289 69.6998C28.5306 69.3887 28.3644 69.1014 28.0949 68.9454L21.5312 65.155ZM26.7761 75.5922L21.9465 72.8045L21.9618 67.4079L26.7913 70.1973L26.7761 75.5922Z" fill="black"/>
</svg>
