<svg width="93" height="92" viewBox="0 0 93 92" fill="none" xmlns="http://www.w3.org/2000/svg">
<path d="M29.3476 53.5751C28.8679 53.6013 28.5017 54.0099 28.5271 54.4887L29.5934 74.3917C29.7681 74.3853 31.5022 74.3217 31.3275 74.3281L30.2596 54.3955C30.2359 53.9175 29.8324 53.5513 29.3476 53.5751Z" fill="black"/>
<path d="M63.6526 53.5751C63.1864 53.5488 62.766 53.9175 62.7406 54.3955L61.6726 74.3451C61.6472 74.8239 62.0134 75.2325 62.4931 75.2588C62.5084 75.2596 62.5236 75.2596 62.5389 75.2596C62.9983 75.2596 63.3814 74.9011 63.4051 74.4383L64.473 54.4887C64.4984 54.0099 64.1323 53.6013 63.6526 53.5751Z" fill="black"/>
<path d="M40.3578 53.5742C40.3527 53.5742 40.3476 53.5742 40.3409 53.5742C39.8611 53.5835 39.4814 53.9793 39.4899 54.4591L39.873 74.3917C40.0478 74.3883 41.7836 74.3544 41.6088 74.3578L41.2257 54.4252C41.2173 53.9522 40.8291 53.5742 40.3578 53.5742Z" fill="black"/>
<path d="M52.6578 53.5742C52.651 53.5742 52.6459 53.5742 52.6408 53.5742C52.1696 53.5742 51.7814 53.9522 51.7729 54.4252L51.3898 74.3747C51.3813 74.8545 51.761 75.2503 52.2408 75.2596C52.2475 75.2596 52.2526 75.2596 52.2577 75.2596C52.729 75.2596 53.1172 74.8816 53.1256 74.4086L53.5087 54.4591C53.5172 53.9793 53.1375 53.5835 52.6578 53.5742Z" fill="black"/>
<path d="M14.8659 22.9468L14.8472 29.9165C14.8391 32.6644 15.8398 35.305 17.6935 37.7185L20.587 72.327C20.7684 75.3723 22.272 79.745 28.3967 83.2862C33.4245 86.1909 40.0119 87.6436 46.5875 87.6436C53.163 87.6436 59.7284 86.1909 64.7105 83.2862C68.3704 81.1715 70.547 78.577 71.7675 74.8731C72.1777 73.6263 72.4286 72.2651 72.554 70.5954L75.3139 37.7802C77.1352 35.4 78.1255 32.7964 78.1328 30.0877L78.1532 23.1197C78.1532 23.1148 78.1505 23.11 78.1504 23.1051C78.1504 23.0938 78.1532 23.0827 78.1532 23.0714C78.1447 17.969 74.7645 13.2098 68.6331 9.66943C56.3584 2.58279 36.447 2.58533 24.2469 9.67705C18.2222 13.1776 14.9007 17.8772 14.8723 22.9152C14.8719 22.9264 14.8659 22.9356 14.8659 22.9468ZM70.8233 70.4572C70.708 71.9905 70.4842 73.2212 70.1198 74.3298C69.0416 77.5989 67.1058 79.8976 63.8392 81.7843C54.3496 87.3173 38.8423 87.3156 29.2646 81.7826C24.947 79.2865 22.545 75.9809 22.3178 72.1685L19.6157 39.8688C19.6937 39.9433 19.7922 40.0095 19.8719 40.0833C20.3013 40.4773 20.7649 40.8583 21.2464 41.234C24.434 43.7391 28.0755 45.4165 31.9712 46.5947C41.5438 49.4992 53.19 49.3892 62.7255 46.0653C66.6433 44.7034 70.3774 42.799 73.3897 39.9459L70.8233 70.4572ZM76.3987 29.2833L76.397 30.0826C76.3899 32.7034 75.2951 35.2381 73.2759 37.5364C70.5096 40.6705 66.6872 42.7803 62.732 44.2379C53.7584 47.5369 42.3931 47.8191 32.9752 45.081C28.92 43.8981 24.9222 42.0906 21.7191 39.4103C18.8556 36.9941 16.5715 33.7029 16.5831 29.9216L16.5848 29.124C17.9484 31.4703 20.4426 34.1127 24.3808 36.3861C28.2187 38.6017 32.8009 40.1248 37.6611 40.9553C48.3537 42.7831 60.3884 41.2598 68.7772 36.3835C71.6297 34.7262 74.7072 32.1613 76.3987 29.2833ZM25.1182 11.1773C30.9818 7.77084 38.6965 6.0672 46.4214 6.0672C54.1411 6.0672 61.8711 7.76915 67.7652 11.173C73.3372 14.3905 76.4105 18.6165 76.4173 23.0731C76.4227 28.1846 72.3403 32.3058 67.9059 34.8833C56.1821 41.6928 37.0471 41.6953 25.2488 34.8825C22.5932 33.3493 20.0183 31.2964 18.3311 28.5931C17.4483 27.1788 16.6025 25.5083 16.6034 22.9723C16.6076 18.5562 19.6293 14.3678 25.1182 11.1773Z" fill="black"/>
<path d="M38.7784 21.6498C38.7838 21.6531 38.7858 21.6595 38.7913 21.6627C39.0642 21.8199 39.3973 21.8154 39.6609 21.6619L44.2854 18.9768L48.3385 21.3169C48.391 21.3525 48.4656 21.4839 48.4707 21.5407L48.4571 26.7338C48.4571 27.0449 48.6215 27.3322 48.8911 27.4882L52.2526 29.4291C52.5207 29.5836 52.8493 29.5843 53.1188 29.4291C53.1238 29.4263 53.1256 29.4204 53.1305 29.4175L57.5805 26.8296C57.8483 26.6745 58.0111 26.3905 58.0128 26.082C58.0218 23.0075 58.019 23.9608 58.028 20.8974C58.028 18.08 56.1142 14.7702 53.6731 13.364L44.7023 8.17259C43.3784 7.42587 42.0443 7.32925 41.0408 7.90984L36.5825 10.5026C36.553 10.5198 36.5358 10.5478 36.5091 10.5678C35.5483 11.1721 35.0076 12.2947 35.0043 13.7658L34.9907 18.9598C34.9907 19.2708 35.1552 19.559 35.4247 19.7141L38.7784 21.6498ZM40.1024 19.3981L40.1101 16.5662L42.5517 17.9758L40.1024 19.3981ZM49.2081 19.815L40.2356 14.6354C39.3845 14.1422 38.387 14.7026 38.3771 15.7078C38.3771 15.7096 38.376 15.7109 38.376 15.7127C38.376 15.7154 38.3743 15.7184 38.3743 15.7212L38.3622 19.4053L36.7283 18.4622L36.7401 13.7709C36.7418 12.9097 37.0046 12.2656 37.4606 12.0037C37.9234 11.7401 38.6218 11.8384 39.3778 12.2757C39.5538 12.3774 48.9425 17.8038 48.3469 17.4596C50.2791 18.573 51.8382 21.4073 51.8322 23.4808L51.822 27.1762L50.1947 26.2363L50.2065 21.5432C50.2065 20.8753 49.7861 20.1481 49.2081 19.815ZM41.9104 9.41176C42.3647 9.14731 43.0716 9.24648 43.8412 9.6796L52.8052 14.8668C54.6953 15.9559 56.2905 18.7157 56.2922 20.8957L56.2786 25.5794L53.5596 27.161L53.5697 23.4901C53.5697 20.7818 51.7275 17.401 49.2199 15.9526C49.0485 15.8533 40.0759 10.6698 39.8982 10.5823L41.9104 9.41176Z" fill="black"/>
</svg>
