<svg width="93" height="92" viewBox="0 0 93 92" fill="none" xmlns="http://www.w3.org/2000/svg">
<path d="M10.2685 73.6702C10.2702 73.9788 10.4329 74.2635 10.7007 74.4178L17.6614 78.4633L17.9493 81.5011C17.9764 81.7799 18.1357 82.0291 18.3781 82.1698L27.6473 87.5511C27.9994 87.7537 28.5712 87.677 28.8271 87.246L39.8389 68.8305L82.3978 44.26C82.6673 44.104 82.8317 43.8167 82.8317 43.5056L82.7453 10.594C82.7453 10.3709 82.5882 10.0051 82.313 9.84558L82.3079 9.84049L73.0472 4.45919C72.7811 4.30323 72.4471 4.30323 72.1776 4.45749L57.0516 13.191C56.6363 13.4309 56.4939 13.9614 56.7346 14.3768C56.967 14.7846 57.5386 14.9184 57.923 14.698L72.6065 6.21792L80.1367 10.5899L20.3038 45.1355C20.13 45.0344 12.276 40.4662 12.7771 40.7577C16.1041 38.8378 0.727294 47.711 45.3025 21.9889C45.7178 21.7499 45.8602 21.2184 45.6211 20.8031L45.6171 20.7986L45.6161 20.7955C45.377 20.3785 44.8448 20.2395 44.4311 20.4777C-1.92789 47.2266 14.0614 38.0008 10.6024 39.9966C10.3346 40.1509 10.1685 40.4374 10.1685 40.7467C10.1685 40.7559 10.1749 40.7632 10.1752 40.7723L10.2685 73.6702ZM11.9162 42.2676C12.09 42.3688 19.9356 46.9359 19.4359 46.6451C19.4366 46.8884 19.5187 76.419 19.5217 77.5302C18.6046 76.9981 11.5524 72.9064 12.0026 73.1676L11.9162 42.2676ZM19.5079 79.5365L19.9597 79.7991C20.2246 79.955 20.5586 79.9567 20.8294 79.8008C20.8388 79.7954 20.8425 79.7843 20.8516 79.7785L26.2522 76.6656L27.0595 85.2017L19.636 80.8925L19.5079 79.5365ZM38.7761 67.4397C38.6472 67.5134 38.5404 67.6193 38.4658 67.7456L28.6983 84.0811L27.8541 75.1577C27.7914 74.5173 27.0935 74.178 26.5556 74.4873L21.2591 77.5399C21.146 35.9176 21.1841 49.9505 21.1752 46.6468L81.0128 12.0976L81.0942 43.0081L38.7761 67.4397Z" fill="black"/>
<path d="M53.2848 15.365L47.9331 18.4553C47.5178 18.6952 47.3754 19.2258 47.6161 19.6411C47.8524 20.0546 48.3833 20.1987 48.801 19.9589L54.1527 16.8686C54.568 16.6288 54.7104 16.0982 54.4697 15.6829C54.2324 15.265 53.7001 15.1252 53.2848 15.365Z" fill="black"/>
<path d="M76.0121 21.2625L39.3423 42.4343C38.927 42.6741 38.7846 43.2047 39.0253 43.62C39.2616 44.0335 39.7925 44.1777 40.2102 43.9379L76.88 22.7661C77.2954 22.5263 77.4377 21.9957 77.197 21.5803C76.9597 21.1625 76.4274 21.0235 76.0121 21.2625Z" fill="black"/>
<path d="M75.4561 30.0621L44.7007 47.819C44.2854 48.0588 44.143 48.5894 44.3837 49.0047C44.62 49.4182 45.1509 49.5624 45.5686 49.3226L76.324 31.5657C76.7393 31.3259 76.8817 30.7953 76.641 30.38C76.402 29.9621 75.8714 29.8222 75.4561 30.0621Z" fill="black"/>
<path d="M67.0224 43.4082L41.4102 58.1968C40.9949 58.4366 40.8525 58.9672 41.0932 59.3826C41.3295 59.796 41.8604 59.9402 42.2781 59.7004L67.8903 44.9118C68.3057 44.6719 68.4481 44.1413 68.2073 43.726C67.9683 43.309 67.436 43.1691 67.0224 43.4082Z" fill="black"/>
<path d="M39.3474 48.6767C38.1843 49.3485 34.704 51.3588 34.9272 51.2298C34.8669 51.0542 33.5089 47.0993 33.5957 47.3519C33.4702 46.9875 33.1295 46.7383 32.7345 46.7663C32.3572 46.7837 32.0167 47.0576 31.9259 47.4367C31.8832 47.6143 30.2793 54.2797 30.3816 53.8546C30.2055 53.9561 25.0715 56.9149 25.3945 56.7288C25.091 56.9033 24.915 57.2581 24.9622 57.606C25.0097 57.9552 25.2622 58.2408 25.6047 58.329C25.7815 58.3749 29.307 59.2911 29.0882 59.2342C29.0455 59.4118 27.5639 65.5715 27.6558 65.1893C27.5258 65.7337 27.9341 66.2649 28.5 66.2649C28.7746 66.2649 29.0424 66.1344 29.2086 65.8979L33.1702 60.292C33.3472 60.337 37.1653 61.3084 36.9216 61.2464C37.2318 61.3277 37.559 61.2277 37.7742 60.9946L37.778 60.9874L37.7827 60.9845C37.998 60.7497 38.0675 60.4149 37.9641 60.114C37.9036 59.9384 36.3312 55.377 36.4317 55.6684C36.5549 55.4943 40.7555 49.5555 40.4916 49.9286C40.7272 49.5955 40.6984 49.1437 40.4238 48.842C40.1475 48.5403 39.6983 48.4716 39.3474 48.6767ZM34.7518 55.0361C34.5907 55.2642 34.5483 55.5565 34.6399 55.821C34.7028 56.0031 35.8671 59.3765 35.7933 59.1628C35.6163 59.1176 32.8457 58.4101 33.0227 58.4553C32.6752 58.3637 32.3056 58.501 32.0988 58.7952L30.4054 61.1913L30.98 58.8104C31.0902 58.3502 30.8122 57.8857 30.3528 57.767C30.176 57.721 27.9172 57.133 28.094 57.179C28.2958 57.0629 31.7934 55.0508 31.5699 55.1794C31.7768 55.0599 31.9259 54.8615 31.9819 54.6293C32.0238 54.4551 32.9796 50.4841 32.9193 50.7346L33.6245 52.7917C33.7937 53.2907 34.3959 53.5539 34.8891 53.2681L36.7758 52.174C36.652 52.349 34.6231 55.2181 34.7518 55.0361Z" fill="black"/>
</svg>
