<svg width="93" height="92" viewBox="0 0 93 92" fill="none" xmlns="http://www.w3.org/2000/svg">
<path d="M12.5923 39.5242L12.7093 79.5708C12.7093 80.6336 13.1127 81.4524 13.8433 81.8745L23.3193 87.3821L23.3244 87.3855L23.3278 87.3872L23.3312 87.3889C23.3356 87.3914 23.3409 87.3901 23.3455 87.3927C24.1568 87.8488 25.1075 87.6768 25.9112 87.2126L77.5629 57.3929C79.1631 56.4691 80.4141 54.3043 80.4074 52.4634L80.2938 12.4185C80.2922 11.4459 79.9164 10.6669 79.2796 10.2281C79.2404 10.1948 79.2109 10.1533 79.1648 10.1266L69.7007 4.64277C68.9616 4.18846 68.0089 4.24949 67.0918 4.79703L50.4962 14.3798C50.0809 14.6188 49.9385 15.1494 50.1792 15.5647C50.4182 15.9783 50.9488 16.1224 51.3641 15.8817L67.9716 6.29216C68.3819 6.04636 68.6684 6.04636 68.809 6.13282L76.2746 10.4572L24.9161 40.1107C23.2494 41.0695 22.0669 43.2926 22.07 45.0352C22.0809 49.0937 22.0304 30.3365 22.1768 84.7105L14.7129 80.3726C14.5485 80.2759 14.4451 79.9691 14.4451 79.5691L14.3281 39.5225C14.3281 38.3172 15.2554 36.7289 16.3149 36.1186L43.4121 20.4722C43.8274 20.2332 43.9698 19.7026 43.7291 19.2873C43.4901 18.872 42.9578 18.7279 42.5442 18.9703L15.4486 34.615C13.8467 35.5355 12.5923 37.6917 12.5923 39.5242ZM76.695 55.8893L25.0433 85.7106C24.6924 85.9141 24.3652 85.9802 24.194 85.8802C24.1153 85.8348 24.0536 85.7353 24.0067 85.6093C23.9788 85.5369 23.9709 85.4187 23.9544 85.3176C23.9432 85.2358 23.9198 85.1699 23.9194 85.0767C23.9085 80.9799 23.9589 99.9148 23.8126 45.025C23.8003 43.9283 24.671 42.2633 25.7824 41.6211L77.4341 11.8015C78.2212 11.3496 78.5545 11.6226 78.5579 12.4219L78.6715 52.4685C78.6749 53.7025 77.7714 55.2689 76.695 55.8893Z" fill="black"/>
<path d="M47.7599 15.958L45.3833 17.3311C44.968 17.5701 44.8256 18.1007 45.0663 18.516C45.3067 18.931 45.8366 19.0736 46.2513 18.833L48.6279 17.4599C49.0432 17.2209 49.1856 16.6903 48.9449 16.275C48.7042 15.858 48.1736 15.7173 47.7599 15.958Z" fill="black"/>
<path d="M35.9942 56.5521C35.8755 56.6199 35.7975 56.642 35.7755 56.6572C35.7619 56.6216 35.7416 56.5453 35.7399 56.4165C35.7331 55.7469 36.2569 54.8264 36.8384 54.4857C36.9537 54.4179 37.0299 54.3976 37.052 54.3806C37.0672 54.4162 37.0876 54.4925 37.0893 54.623C37.0943 55.1011 37.5046 55.4452 37.9657 55.4825C38.4454 55.4774 38.8302 55.0841 38.8251 54.6061C38.8166 53.8195 38.4878 53.1855 37.9216 52.8651C37.7184 52.7495 37.4926 52.698 37.2597 52.6762L37.2554 52.0786C37.252 51.6022 36.8638 51.2174 36.3875 51.2174H36.3807C35.9026 51.2208 35.5162 51.6124 35.5195 52.0921L35.5285 53.3382C34.6328 54.0868 33.9924 55.3106 34.0041 56.4318C34.0183 58.0807 35.4378 58.8905 36.8723 58.049C36.9876 57.9811 37.0638 57.9608 37.0859 57.9439C37.1011 57.9811 37.1215 58.0574 37.1232 58.188C37.1299 58.8542 36.6078 59.7712 36.0281 60.1103C35.9111 60.1798 35.8315 60.2001 35.8094 60.2171C35.7959 60.1815 35.7755 60.1069 35.7738 59.9797C35.7687 59.5034 35.3805 59.1203 34.9059 59.1203H34.8974C34.4177 59.1254 34.0329 59.5187 34.038 59.9967C34.0464 60.7799 34.3736 61.4122 34.9381 61.7325C35.1377 61.8444 35.3587 61.8996 35.587 61.9227L35.5907 62.5293C35.5941 63.0073 35.9823 63.3921 36.4587 63.3921H36.4637C36.9435 63.3887 37.33 62.9988 37.3266 62.5191L37.319 61.2749C38.2231 60.5293 38.8708 59.2998 38.859 58.171C38.8412 56.5173 37.4189 55.7101 35.9942 56.5521Z" fill="black"/>
<path d="M72.1196 29.7227C70.3295 28.6921 68.0122 28.8938 65.5932 30.2906C60.9485 32.9707 57.1835 39.4869 57.1988 44.8148C57.2051 47.3766 58.0458 49.823 60.4546 50.8821L57.2174 60.2544L46.3413 34.4963C46.2039 34.1692 45.8751 34.0064 45.5276 33.9657C45.1733 33.9708 44.858 34.1912 44.7308 34.5217L40.2392 46.1808C38.9235 46.1231 37.4707 46.526 35.9787 47.3881C31.334 50.0698 27.569 56.586 27.5826 61.9156C27.6002 67.6473 31.9054 70.1053 36.8992 67.2215C41.5355 64.5448 45.2936 58.0269 45.2784 52.6956C45.272 50.0883 44.3701 47.5665 41.9535 46.5611L45.5784 37.1526L56.4987 63.0158C56.636 63.3379 56.9513 63.5464 57.2988 63.5464C57.309 63.5464 57.3174 63.5464 57.3276 63.5464C57.687 63.5345 58.0023 63.3023 58.1193 62.9615L62.1478 51.2966C63.7375 51.3981 65.1398 50.9158 66.5137 50.1224C71.15 47.4474 74.9082 40.9312 74.8946 35.5965C74.8861 32.8334 73.9012 30.7483 72.1196 29.7227ZM43.5425 52.7007C43.5561 57.4777 40.1878 63.3192 36.0313 65.7196C32.1868 67.9339 29.3324 66.2861 29.3184 61.9105C29.3048 57.1353 32.6833 51.2954 36.8466 48.89C40.7229 46.6588 43.5321 48.3558 43.5425 52.7007ZM65.6458 48.6204C61.8124 50.8289 58.9452 49.204 58.9346 44.8097C58.9211 40.0361 62.2961 34.1963 66.4612 31.7925C67.5901 31.1416 68.6615 30.811 69.604 30.811C70.2143 30.811 70.7703 30.95 71.2534 31.228C72.4756 31.9298 73.152 33.4843 73.1588 35.6016C73.1723 40.3819 69.8006 46.2218 65.6458 48.6204Z" fill="black"/>
<path d="M68.519 41.0954C68.5024 39.4033 67.0452 38.6069 65.6105 39.453C65.463 39.5394 65.3732 39.5547 65.3579 39.5699C65.341 39.5377 65.3105 39.4547 65.3088 39.2919C65.302 38.5834 65.836 37.6442 66.453 37.2832C66.5954 37.1984 66.6835 37.1815 66.7005 37.1679C66.7157 37.2001 66.7463 37.2832 66.748 37.4442C66.7513 37.9222 67.1395 38.3054 67.6159 38.3054C67.6176 38.3054 67.621 38.3054 67.6227 38.3054C68.1024 38.302 68.4872 37.9087 68.4838 37.4306C68.477 36.6305 68.1431 35.9847 67.5701 35.6592C67.3569 35.5382 67.1194 35.4854 66.8745 35.4658L66.87 34.8269C66.8666 34.3505 66.4784 33.9657 66.0021 33.9657C66.0004 33.9657 65.9987 33.9657 65.9953 33.9657C65.5173 33.9691 65.1308 34.3607 65.1342 34.8404L65.1432 36.134C64.2216 36.8988 63.5611 38.1559 63.5729 39.3089C63.5908 40.9961 65.0401 41.803 66.4886 40.9515C66.631 40.8667 66.7191 40.8498 66.7361 40.8362C66.7513 40.8684 66.7819 40.9515 66.7836 41.1125C66.7903 41.8076 66.2479 42.7636 65.6444 43.1162C65.4969 43.2027 65.4071 43.2196 65.3918 43.2332C65.3766 43.201 65.3461 43.1196 65.3444 42.9603C65.3393 42.4805 64.8714 42.0601 64.468 42.1008C63.9882 42.1059 63.6034 42.4975 63.6085 42.9772C63.617 43.774 63.9509 44.4181 64.5239 44.7419C64.7325 44.8601 64.9635 44.9168 65.2025 44.9379L65.207 45.5861C65.2104 46.0624 65.5986 46.4472 66.075 46.4472C66.0767 46.4472 66.0784 46.4472 66.0818 46.4472C66.5598 46.4438 66.9463 46.0523 66.9429 45.5725L66.9339 44.2812C67.8614 43.5206 68.528 42.26 68.5186 41.1036C68.5186 41.1021 68.5194 41.1006 68.5194 41.099C68.5194 41.0983 68.519 41.096 68.519 41.0954Z" fill="black"/>
</svg>
