<svg width="93" height="92" viewBox="0 0 93 92" fill="none" xmlns="http://www.w3.org/2000/svg">
<path d="M57.9212 9.83413L55.4055 11.286C54.9902 11.5259 54.8478 12.0565 55.0877 12.4718C55.3299 12.8899 55.8622 13.0272 56.2735 12.7896L58.7891 11.3377C59.2044 11.0979 59.3468 10.5673 59.1069 10.152C58.8662 9.73581 58.3348 9.59256 57.9212 9.83413Z" fill="black"/>
<path d="M34.5622 51.9954C33.6146 51.4504 32.4212 51.5402 31.199 52.2454C28.9766 53.5287 27.2408 56.5291 27.2476 59.0753C27.2518 60.4644 27.7731 61.529 28.7156 62.0715C29.1216 62.3046 29.5818 62.4207 30.0709 62.4207C30.7125 62.4207 31.405 62.2206 32.0898 61.8257C34.3054 60.5458 36.0345 57.5496 36.0268 55.0043C36.0234 53.6058 35.503 52.537 34.5622 51.9954ZM31.2219 60.3221C30.5659 60.7018 29.9692 60.7891 29.5818 60.567C29.2038 60.3492 28.986 59.8033 28.9834 59.0702C28.9783 57.1538 30.3904 54.717 32.0669 53.749C32.4865 53.5066 32.8815 53.382 33.2112 53.382C33.3959 53.382 33.5595 53.421 33.6968 53.4999C34.0723 53.716 34.2893 54.2661 34.291 55.0094C34.2969 56.9249 32.8916 59.3584 31.2219 60.3221Z" fill="black"/>
<path d="M48.2419 47.76C47.5147 47.3396 46.5738 47.404 45.6627 47.9304C45.3093 48.1346 44.9812 48.2008 44.8092 48.1016C44.6405 48.005 44.5346 47.6956 44.5337 47.2947C44.5303 46.0581 45.4372 44.4883 46.5145 43.8671C46.8654 43.6636 47.1875 43.5967 47.3604 43.6976C47.5291 43.7942 47.635 44.1044 47.6359 44.5061C47.6376 44.9842 48.0258 45.3715 48.5038 45.3715H48.5063C48.9852 45.3698 49.3734 44.9808 49.3717 44.5011C49.3692 43.4518 48.9513 42.6101 48.2266 42.1931C47.8465 41.9747 47.4089 41.894 46.9485 41.9349V40.5352C46.9485 40.0555 46.5603 39.6673 46.0806 39.6673C45.6008 39.6673 45.2126 40.0555 45.2126 40.5352V42.6628C43.8256 43.699 42.7932 45.6278 42.7979 47.2998C42.8004 48.3482 43.2183 49.189 43.943 49.6061C44.6719 50.0256 45.6144 49.9603 46.5306 49.434C46.8815 49.2306 47.2061 49.1653 47.3765 49.2645C47.5452 49.3619 47.6511 49.6713 47.652 50.0731C47.6554 51.2843 46.7332 52.8811 45.678 53.4897C45.3237 53.6956 44.9948 53.7609 44.8236 53.6617C44.6558 53.5651 44.5507 53.2583 44.5498 52.8616C44.5481 52.3836 44.1599 51.9962 43.6819 51.9962H43.6794C43.2005 51.9979 42.8123 52.387 42.814 52.8667C42.8165 53.9109 43.2335 54.7492 43.9574 55.1662C44.2761 55.3493 44.6363 55.4408 45.0177 55.4408C45.0809 55.4408 45.1483 55.4168 45.2126 55.4118V56.8419C45.2126 57.3216 45.6008 57.7098 46.0806 57.7098C46.5603 57.7098 46.9485 57.3216 46.9485 56.8419V54.7154C48.3471 53.6867 49.3925 51.748 49.3878 50.068C49.3853 49.0187 48.9674 48.177 48.2419 47.76Z" fill="black"/>
<path d="M83.0494 41.9954C83.0375 41.9879 83.0332 41.9739 83.0209 41.9668L77.8681 39.0182L77.7998 10.5876C77.799 10.3247 77.6617 10.0967 77.462 9.93412C77.4258 9.90424 77.4054 9.85985 77.3641 9.8358L68.1085 4.45619C67.8398 4.29939 67.5067 4.29939 67.238 4.4545L61.1168 7.98892C60.7015 8.22878 60.5591 8.75937 60.7989 9.17469C61.038 9.58915 61.5685 9.73155 61.9847 9.49253L67.6703 6.20899L75.196 10.5834C70.3416 13.386 23.4126 40.4804 15.1453 45.2535L7.61907 40.8802L52.8935 14.7416C53.3088 14.5017 53.4512 13.9712 53.2114 13.5558C52.9707 13.1388 52.4375 12.9981 52.0256 13.238L5.45349 40.1259C5.18309 40.2824 5.02033 40.5707 5.01953 40.8768L5.01996 40.8785L5.01953 40.8802L5.1348 81.415C5.13565 81.7235 5.30008 82.0083 5.56622 82.1626C6.51278 82.7131 2.13723 80.1684 14.8235 87.5464C15.0875 87.6984 15.4189 87.702 15.6906 87.5456L49.4118 68.0803C49.7652 72.3307 51.4645 75.5267 54.298 77.1483L60.7727 80.8632C60.7855 80.8705 60.8001 80.8675 60.813 80.874L60.8159 80.8759C62.1246 81.6167 63.5943 81.9846 65.1742 81.9846C67.4465 81.9846 69.946 81.2234 72.5142 79.7164C81.1375 74.6606 88.075 62.4376 87.9792 52.4709C87.9312 47.5183 86.1791 43.8053 83.0494 41.9954ZM71.6857 37.1636L71.637 25.133C71.6361 24.8236 71.47 24.5388 71.2022 24.3846C70.9343 24.2303 70.6046 24.2294 70.3368 24.3837C69.5553 24.8321 68.8366 24.9346 68.3662 24.666C67.9034 24.4007 67.6338 23.7404 67.6279 22.8564C67.6262 22.547 67.4592 22.2622 67.1906 22.1088C66.9227 21.9545 66.5913 21.9554 66.3252 22.1113L24.8903 46.1183C24.6199 46.2742 24.4554 46.5632 24.4571 46.8752C24.4715 49.0882 22.851 51.8962 20.9176 53.0074C20.6473 53.1634 20.4811 53.4515 20.482 53.7635L20.5515 72.2331C20.5523 72.5425 20.7185 72.8273 20.9863 72.9815C21.2524 73.135 21.5821 73.1358 21.8517 72.9824C22.6331 72.5332 23.3527 72.4323 23.8274 72.7069C24.2936 72.9773 24.5614 73.6384 24.5614 74.5208C24.5614 74.831 24.7267 75.1175 24.9954 75.2726C25.2717 75.4307 25.6004 75.4243 25.8641 75.2717L49.861 61.3814C49.5755 62.8384 49.3552 64.6002 49.3337 66.1204L16.122 85.2926L16.0132 46.7568C47.3698 28.6561 56.9796 23.1088 76.0673 12.0904L76.13 38.0391C74.9211 37.4368 73.3487 37.0709 71.6857 37.1636ZM66.8244 38.3612C66.1892 38.6256 65.5188 38.9675 64.8291 39.3749C64.8932 39.0103 64.9368 38.6518 64.9368 38.3112C64.9368 36.9161 64.4215 35.849 63.4858 35.3057C62.5399 34.7547 61.3431 34.8412 60.1099 35.5464C57.8909 36.8347 56.1533 39.8334 56.1533 42.3813C56.1652 43.5908 56.5746 44.5782 57.306 45.1622C57.4532 45.2798 57.6284 45.3473 57.796 45.4289C56.988 46.3703 56.2113 47.3461 54.921 49.2789C52.807 52.5509 51.2016 56.2645 50.4432 59.0388L26.115 73.1206C25.6174 71.3771 24.0949 70.4711 22.2822 70.9363L22.2195 54.2381C24.3529 52.782 25.9913 49.9417 26.176 47.3795L66.0802 24.2591C66.3269 25.116 66.8117 25.7754 67.5025 26.1721C68.2026 26.5739 69.0298 26.6586 69.9062 26.4306L69.9503 37.3619C69.1746 37.4954 68.0791 37.8051 66.8244 38.3612ZM59.0953 43.9917C58.7995 44.0163 58.5715 43.951 58.3893 43.8061C58.0731 43.5543 57.896 43.0415 57.8892 42.3728C57.8892 40.4598 59.3055 38.0213 60.9761 37.0508C61.3973 36.8101 61.7932 36.6872 62.1237 36.6872C62.3102 36.6872 62.4763 36.7262 62.6145 36.8067C62.9874 37.0229 63.201 37.5712 63.201 38.3112C63.201 39.1054 62.9476 40.0369 62.4839 40.9531C61.5061 41.6893 60.2887 42.7476 59.0953 43.9917ZM6.75962 42.3881L14.269 46.7514L14.3842 85.2796L6.86896 80.9124L6.75962 42.3881ZM55.1617 75.6421C52.5681 74.158 51.1145 70.9516 51.0678 66.623C51.1988 65.6802 50.7605 58.9205 56.372 50.2316C59.1417 46.077 62.9984 41.8877 67.5704 39.9305C69.9659 38.8167 73.1996 38.3643 75.6647 39.7572C75.8384 39.8569 77.8132 40.991 77.6396 40.8912C77.6301 40.8921 77.6203 40.8949 77.6108 40.8959C75.8368 41.0653 73.6532 41.7265 71.2979 43.1077C67.5295 45.3177 64.0834 48.8913 61.4039 53.0442C57.9418 58.4007 55.756 64.7231 55.8067 70.3295C55.8338 72.8112 56.2847 74.9852 57.1213 76.7668L55.1617 75.6421ZM71.6361 78.2196C63.7433 82.8486 57.6424 79.2765 57.5552 70.3142C57.5041 65.013 59.5713 59.0317 62.8464 53.9659C65.3777 50.0577 68.6278 46.6952 72.1811 44.6147C75.2494 42.8086 79.0485 41.7162 82.1326 43.4645C84.7414 44.9427 86.2018 48.1465 86.2434 52.4878C86.3341 61.9003 79.7814 73.4435 71.6361 78.2196Z" fill="black"/>
<path d="M80.5046 54.7789C80.5046 54.7789 80.4978 54.7797 80.4936 54.7797L79.6943 54.8941C79.5697 54.478 79.3875 54.1271 79.2171 53.8075L80.0707 51.7496C80.3326 50.9173 80.0156 50.3765 79.696 50.1892L78.7857 49.5323C78.417 49.2221 77.8932 49.2001 77.4584 49.4705C77.2974 49.5688 77.1592 49.6874 77.0609 49.8061L75.681 51.3334C75.3522 51.2961 75.014 51.2928 74.6716 51.325L74.4164 50.2782C74.2682 49.5299 73.4903 49.1384 72.7586 49.5061L71.2609 50.2629C70.8388 50.5045 70.5421 50.9461 70.3828 51.5614L69.8208 53.5397C69.2572 54.0042 68.7003 54.5424 68.1859 55.1094L67.0823 54.9814C66.8314 54.9323 66.5653 54.9772 66.2203 55.1526C66.0042 55.2874 65.8025 55.4874 65.6397 55.7341L64.5658 57.4496C64.2438 57.9759 64.2115 58.5557 64.4777 59.088L65.0201 60.1424C64.6896 60.9289 64.437 61.6892 64.2938 62.3181C64.2556 62.4249 64.2183 62.4834 64.2158 62.4868L62.6537 63.8166C62.2604 64.1319 61.9977 64.6329 61.9688 65.1389L61.9002 66.8018C61.8494 67.638 62.5143 68.1885 63.3012 68.0469L64.1531 67.9291C64.2726 68.3275 64.4141 68.6835 64.5785 68.9945L63.7632 71.0126C63.4843 71.6415 63.6284 72.3187 64.098 72.6476L65.1286 73.3977C65.5118 73.6142 65.9644 73.5747 66.3483 73.3596C66.4627 73.2918 66.6119 73.1901 66.7272 73.0451L68.1384 71.5093C68.4656 71.5457 68.797 71.55 69.1258 71.5203L69.3911 72.6646C69.5966 73.3219 70.2947 73.68 71.0422 73.3341L72.5094 72.5917C72.8035 72.4238 73.1976 72.0611 73.4027 71.2906L73.9689 69.309C74.5783 68.8208 75.142 68.2342 75.6056 67.7325L77.0465 67.9232C77.3906 67.9732 77.7152 67.8113 77.8958 67.524L79.4782 64.9973C79.6418 64.7363 79.6545 64.4083 79.5121 64.1345L78.7696 62.719C79.1307 61.8045 79.3663 61.0959 79.5689 60.3661L81.1632 59.0083C81.5268 58.7006 81.7896 58.1819 81.8167 57.7081L81.8989 56.0248C81.9303 55.5103 81.6912 55.206 81.5455 55.0704C81.3624 54.8992 81.0378 54.7051 80.5046 54.7789ZM80.0402 57.6852L78.4247 59.0617C78.284 59.188 77.9458 59.5372 77.8441 60.0127C77.6983 60.6094 77.4821 61.2552 77.155 62.0825C76.9795 62.4885 76.9617 62.908 77.1406 63.342L77.7432 64.4964L76.7202 66.1297L75.6276 65.9856C75.3191 65.9322 75.0157 65.9966 74.8428 66.1195C74.6622 66.2102 74.5334 66.339 74.3936 66.4797C73.9859 66.9307 73.4451 67.5045 72.9154 67.9291C72.6035 68.1563 72.3627 68.5173 72.2568 68.914L71.7279 70.8363C71.6838 71.0016 71.6364 71.0779 71.6576 71.0779L71.6593 71.077L70.893 71.4652L70.6769 70.5346C70.5184 70.0031 70.0234 69.6734 69.3826 69.7345C68.9436 69.8141 68.5325 69.8235 68.1528 69.759C67.8528 69.7124 67.5358 69.7836 67.3561 69.9116C67.1662 70.0082 67.0145 70.1286 66.9255 70.2413L65.6677 71.6475L65.4448 71.483L66.2152 69.576C66.372 69.1615 66.3788 68.7716 66.1779 68.2987C65.9881 67.98 65.8304 67.5494 65.716 67.0586C65.6075 66.4653 65.1015 66.0738 64.4658 66.1339L63.6801 66.2424L63.7589 65.1558L65.3261 63.8217C65.5838 63.6124 65.7872 63.3013 65.9567 62.8063C66.1076 62.1647 66.3398 61.4739 66.6441 60.7577C66.8475 60.2873 66.8357 59.8127 66.6483 59.5194L66.0423 58.3616L67.0357 56.7207L68.0511 56.8393C68.4045 56.9046 68.7402 56.841 68.9097 56.7198C69.1428 56.6257 69.2962 56.4715 69.3988 56.3664C69.8946 55.8053 70.4082 55.3052 70.9515 54.856C71.0931 54.7289 71.433 54.3805 71.5287 53.9279L72.0593 52.0107C72.1034 51.842 72.1042 51.7683 72.1195 51.7725L72.8993 51.3792L73.1001 52.2005C73.2137 52.8167 73.7935 53.2566 74.4241 53.1151C74.847 53.0269 75.2479 53.0159 75.62 53.0761C75.8141 53.1117 76.1192 53.1185 76.4295 52.943C76.6074 52.8523 76.7312 52.7286 76.8575 52.6014L78.1365 51.2012L78.356 51.3597L77.5686 53.2524C77.3796 53.7567 77.422 54.2483 77.6551 54.567C77.8593 54.9492 78.0356 55.2798 78.0856 55.612C78.1136 55.9545 78.284 56.2689 78.5526 56.4749C78.7993 56.6647 79.1104 56.7402 79.379 56.6927L80.119 56.5868L80.0402 57.6852Z" fill="black"/>
<path d="M74.4925 57.0411C72.5742 55.8885 70.1959 57.7622 69.0621 59.7143C67.6042 62.1681 67.711 64.8371 69.2892 65.7805C71.1532 66.9507 73.5303 65.1643 74.7349 63.1233C76.1775 60.678 76.0724 58.0073 74.4925 57.0411ZM73.2398 62.241C72.6618 63.219 71.0803 64.8615 70.197 64.3006C69.5689 63.9251 69.5884 62.2274 70.5581 60.5933C71.0956 59.6685 72.7029 57.983 73.5916 58.5252C74.2171 58.9074 74.1993 60.6136 73.2398 62.241Z" fill="black"/>
</svg>
