<svg width="93" height="92" viewBox="0 0 93 92" fill="none" xmlns="http://www.w3.org/2000/svg">
<path d="M44.5275 84.1789C44.777 84.3249 45.0786 84.3324 45.3276 84.2171C45.3409 84.2109 45.3482 84.1974 45.361 84.1906C45.3727 84.1845 45.3864 84.1873 45.398 84.1806C49.5053 81.8092 83.5352 62.162 87.7263 59.7423C88.0577 59.5507 88.2246 59.1642 88.1374 58.7913L84.9004 45.0376C84.8562 44.8493 84.6186 44.5651 84.4851 44.4875L75.3738 39.1851L73.486 31.1855C73.4398 30.9918 73.2004 30.7061 73.0775 30.6346L53.7696 19.4143C53.3559 19.1744 52.8237 19.3126 52.583 19.7279C52.3414 20.1424 52.4829 20.6738 52.8974 20.9145L70.9094 31.3822L57.8756 38.9074L20.3485 17.0995L33.3818 9.57386L40.3998 13.6524C40.8151 13.894 41.3465 13.7533 41.5864 13.3388C41.828 12.9244 41.6864 12.3929 41.2728 12.1522L33.82 7.82106C33.5488 7.66341 33.2174 7.66511 32.9495 7.81937L18.183 16.3452C18.0545 16.4195 17.7997 16.7384 17.7626 16.9427L14.6062 34.3868C14.5418 34.7462 14.7087 35.1081 15.024 35.2912L17.886 36.9544C16.6744 37.655 8.24845 42.5282 8.43407 42.4211C8.22322 42.5422 8.03212 42.8913 8.00944 43.0161L4.85304 60.4602C4.78862 60.8195 4.9556 61.1815 5.2709 61.3645L44.5275 84.1789ZM74.8922 44.7045C70.9824 46.9615 84.8267 38.9694 55.906 55.6648L58.657 40.461L72.0646 32.7199L74.8922 44.7045ZM60.4562 55.0467L65.1263 52.3505L68.3266 54.2042L66.0207 66.948L63.7329 57.2589C63.6975 57.1096 63.5339 56.8289 63.3227 56.7071L60.4562 55.0467ZM46.1517 81.7412L48.9032 66.5336C53.5294 63.8666 62.4932 58.6907 62.3115 58.7938L65.139 70.7778L46.1517 81.7412ZM67.3223 69.5178L70.0765 54.3113C70.2553 54.208 84.3781 46.0529 83.4782 46.5725L86.2998 58.5616L67.3223 69.5178ZM82.3187 45.2351C82.1451 45.3353 68.4278 53.2575 69.2936 52.7575L66.8613 51.3487L76.3237 45.8851C76.6552 45.6936 76.8221 45.3071 76.7348 44.9342L75.9296 41.5167L82.3187 45.2351ZM19.2509 18.4692L56.9116 40.3547L54.084 55.9824L16.4234 34.097L19.2509 18.4692ZM19.6128 37.9602L54.2756 58.1039C54.5104 58.2417 54.8168 58.2655 55.0816 58.1429C57.1432 56.9557 58.906 55.9405 58.7203 56.0477L61.1546 57.4572C60.9757 57.5604 47.9352 65.0832 48.1179 64.9778L10.5996 43.1737L19.6128 37.9602ZM9.49779 44.5426L47.1576 66.428L44.33 82.0566L6.67025 60.1703L9.49779 44.5426Z" fill="black"/>
<path d="M45.7481 14.7526C45.3337 14.5127 44.8022 14.6526 44.5615 15.0662C44.32 15.4807 44.4607 16.0121 44.8751 16.2528L49.0647 18.6879C49.4803 18.9291 50.011 18.788 50.2513 18.3743C50.4929 17.9599 50.3522 17.4284 49.9377 17.1877L45.7481 14.7526Z" fill="black"/>
</svg>
