<svg width="93" height="92" viewBox="0 0 93 92" fill="none" xmlns="http://www.w3.org/2000/svg">
<path d="M67.6093 52.7089C67.5321 52.2359 67.0854 51.9087 66.6125 51.9935C66.1395 52.0715 65.8192 52.5173 65.8971 52.9903C66.4057 56.0856 67.2592 60.1811 68.517 62.8798L58.1154 68.8853C57.8963 68.4635 57.6801 68.0402 57.4802 67.6064C57.3837 67.3969 57.2772 67.1936 57.1853 66.9817C55.7825 63.7442 56.4409 65.9582 57.1176 58.8641C57.6172 53.6473 57.7942 47.307 57.6572 44.3976C57.4017 38.6465 64.6219 33.4849 64.6359 38.9255C64.6385 40.4681 64.719 42.3328 64.869 44.3195C64.9055 44.7975 65.3394 45.1772 65.7997 45.1196C66.2777 45.0823 66.6362 44.6653 66.5998 44.1873C66.4532 42.2446 66.3743 40.4223 66.3718 38.9221C66.3675 37.3507 65.9175 36.1759 65.0716 35.5267C64.7161 35.2529 63.3461 34.5091 59.2411 32.116C58.1129 31.4549 56.6644 31.5651 55.1667 32.4211C52.7933 33.753 50.2407 37.3749 50.4211 41.2801C50.455 41.8886 50.4711 42.4989 50.4711 43.1074C50.4711 43.7314 50.4548 44.5977 50.4224 45.5952L47.3503 43.816C45.9049 42.9732 44.0053 43.4833 42.7353 44.4432C40.1883 46.2232 38.3719 49.8898 38.5117 52.9682C38.5808 54.5746 38.5562 56.5056 38.448 58.4592L35.4232 56.6993C34.2908 56.0399 32.8397 56.1517 31.3344 57.0163C28.4211 58.7266 26.4566 62.7625 26.61 65.8549C26.9041 72.305 25.5336 75.7428 22.5306 83.2727C22.3712 83.6727 22.5289 84.1287 22.9001 84.3457L28.4009 87.5445C28.6451 87.6867 28.9827 87.709 29.2731 87.5411C62.189 68.539 66.0852 66.2877 70.0969 63.9715C70.508 63.7342 70.6521 63.2121 70.4207 62.7968C69.3519 60.8829 68.3797 57.396 67.6093 52.7089ZM46.2035 75.7626C45.4122 74.2397 44.9269 73.1452 44.3755 71.5201C44.5159 70.9304 44.6461 70.3156 44.7648 69.6751C44.7685 69.6551 44.7715 69.6338 44.7752 69.6137C45.1664 67.4857 45.4269 65.2849 45.6021 62.8437C45.8065 59.9834 45.8194 57.6161 45.7484 56.0805C45.7373 55.8667 45.7548 55.6423 45.7685 55.4195C45.9242 53.0818 47.3733 50.3512 49.2328 49.0626C51.1319 47.7361 52.7328 48.0917 52.724 50.617C52.7341 54.2756 53.1597 59.0957 53.9646 62.7188C54.1451 63.5365 54.3381 64.3119 54.5565 64.9717C55.1049 66.6296 55.7863 68.2383 56.5856 69.769C56.4111 69.8697 45.5198 76.1572 46.2035 75.7626ZM52.1544 41.1936C52.0176 38.2094 54.0408 35.0344 56.022 33.9315C56.9645 33.3958 57.7942 33.284 58.3681 33.6162L61.2812 35.3063C61.0778 35.3961 60.8727 35.4995 60.6659 35.6165C58.0456 37.0458 55.7672 41.1087 55.9228 44.472L55.923 44.478L55.9228 44.4839C56.0697 47.6461 55.818 54.9862 55.2407 60.124C55.2269 60.0376 55.211 59.9564 55.1976 59.8691C54.7841 57.2047 54.1438 48.6083 54.1299 48.5721C54.1171 48.5389 54.0961 48.5151 54.0826 48.4827C53.5208 47.1328 52.4254 46.8192 52.1249 46.5813C52.1824 45.1521 52.207 43.9351 52.207 43.1074C52.207 42.465 52.1892 41.8242 52.1544 41.1936ZM40.2459 52.8919C40.1349 50.4373 41.6978 47.286 43.7566 45.8468C44.4593 45.3184 45.6747 44.8485 46.4782 45.3162L49.3769 46.9962C46.4282 48.2983 44.178 52.1456 44.0337 55.4711C44.0226 55.7037 44.0005 55.9394 44.0109 56.1653C44.1624 59.3666 43.9135 64.148 43.2264 68.3443C42.28 65.6838 42.72 63.9133 42.4695 62.4135C42.1208 60.2953 40.7989 59.8558 40.1269 59.436C40.2826 57.1329 40.3275 54.7959 40.2459 52.8919ZM28.3441 65.7735C28.2172 63.2266 29.9213 59.8623 32.2057 58.5165C33.1304 57.9876 33.9874 57.8723 34.5518 58.2012L37.4607 59.893C37.2607 59.9811 37.0598 60.0845 36.8607 60.1998L36.8576 60.2018C36.8501 60.2062 36.8427 60.2073 36.8352 60.2117H36.8327C34.0414 61.8435 31.9496 65.8639 32.1066 69.0553C32.2324 71.7857 32.0764 74.3268 31.3414 77.2063C30.6666 79.8451 29.4264 82.9667 28.4025 85.5369L24.4198 83.2201C27.2397 76.1428 28.645 72.388 28.3441 65.7735ZM33.0722 77.399C33.7445 74.6715 33.9737 71.7787 33.8458 68.9723C33.7929 67.9165 34.0634 66.7382 34.5354 65.6209C36.3409 61.3631 40.8091 59.2323 40.8197 63.5088C40.8197 63.5303 40.8206 63.5467 40.8207 63.5681C40.8237 65.4829 40.9548 66.6372 41.1949 67.6208C41.3384 68.213 43.169 73.7646 44.6737 76.6463C43.3038 77.4371 29.714 85.2825 30.5674 84.7899C31.4974 82.4243 32.4601 79.8726 33.0722 77.399Z" fill="black"/>
<path d="M65.1642 47.5386C65.2582 48.42 65.365 49.3117 65.4837 50.2034C65.5476 50.6791 65.9846 51.011 66.4584 50.9492C66.9339 50.8848 67.2679 50.4491 67.2043 49.9728C67.0873 49.0981 66.9822 48.22 66.8898 47.3555C66.8398 46.8791 66.4169 46.5401 65.9346 46.5842C65.4583 46.635 65.1133 47.0622 65.1642 47.5386Z" fill="black"/>
<path d="M36.3341 30.3903C36.1332 30.275 35.8976 30.2445 35.6738 30.3021C35.4509 30.3615 35.261 30.5072 35.1458 30.7073C31.81 36.4861 26.9331 44.8663 23.8772 50.161C23.6381 50.5746 23.7788 51.1052 24.1925 51.3459C25.1595 51.9047 31.2459 55.4217 30.8536 55.199C31.2652 55.4378 31.776 55.2958 32.0205 54.9064C33.0381 53.2858 39.9933 41.1721 40.1211 40.9512C40.9492 41.4326 41.7883 41.9191 42.6545 42.4124C43.0681 42.6446 43.597 42.5056 43.836 42.092C46.8386 36.8898 50.4975 30.6142 53.4959 25.4235C54.5486 26.0303 55.6047 26.6321 56.7023 27.2576C57.2204 27.5547 57.8671 27.2468 57.983 26.6762C59.2773 20.2786 60.5495 13.9946 61.8421 7.63608C61.9074 7.3126 61.7248 6.88529 61.4285 6.71222L57.5508 4.45765C57.227 4.27118 56.8201 4.31017 56.5387 4.55936L41.9213 17.5087C41.4757 17.9052 41.5553 18.6132 42.0612 18.9089L45.2609 20.769L38.8109 31.8303L36.3341 30.3903ZM46.7697 21.6262C48.6364 22.6671 48.2832 22.4728 49.1682 22.9689L46.5714 27.4229L42.6868 34.0838L40.3107 32.7031L46.7697 21.6262ZM36.2137 32.3296L36.2942 32.3764C36.3035 32.3822 36.3084 32.3918 36.318 32.3974L38.5875 33.7161C35.5239 39.0179 31.0005 46.7981 28.1998 51.6466C28.026 51.5471 25.6392 50.1801 25.813 50.2797C29.0371 44.7002 33.0688 37.7735 36.2137 32.3296ZM56.5193 25.1556C55.5361 24.5945 54.5774 24.0453 53.6137 23.4876C53.2098 23.2503 52.671 23.3814 52.4271 23.8046C49.6462 28.6234 45.5898 35.5857 42.7655 40.4748C41.9069 39.9815 41.0712 39.4967 40.2423 39.0136C40.0431 38.8983 39.8075 38.8695 39.582 38.9237C39.3591 38.9831 39.1684 39.1289 39.0531 39.3289C36.6918 43.4186 33.2363 49.3465 30.9747 53.2602L29.7009 52.5195C32.6316 47.4479 36.4531 40.876 40.0884 34.5884C40.2623 34.6894 41.9429 35.6619 42.5612 36.0196L42.5647 36.0216L42.5706 36.025C42.9781 36.256 43.5253 36.0972 43.7504 35.7063L43.7516 35.7043C43.7519 35.7038 43.7526 35.7035 43.753 35.7029C43.7534 35.7022 43.7533 35.7013 43.7537 35.7006L51.1125 23.0807C51.374 22.6341 51.1594 22.1063 50.7981 21.8941L47.9078 20.215C48.7859 19.4358 54.6793 14.2104 59.6248 9.83302C58.5874 14.9389 57.5592 20.0142 56.5193 25.1556ZM57.2202 6.27487L59.5172 7.60896C57.4745 9.41784 49.9541 16.0769 46.2694 19.3463L43.9725 18.0105L57.2202 6.27487Z" fill="black"/>
</svg>
