<svg width="93" height="92" viewBox="0 0 93 92" fill="none" xmlns="http://www.w3.org/2000/svg">
<path d="M22.8628 80.6065C22.8848 82.3644 23.5239 83.6968 24.6614 84.3596L29.6011 87.2312L29.6028 87.2329C29.6145 87.2398 29.6283 87.2367 29.6403 87.243C30.9512 87.9825 32.4677 87.6631 33.7814 86.904C36.6411 85.2529 38.8736 81.3812 38.8635 78.0875C38.8584 76.3549 38.2253 75.0369 37.084 74.3664C37.0817 74.3651 37.0807 74.3628 37.0784 74.3615L37.0765 74.3603C36.0505 73.7637 31.864 71.329 32.132 71.4848C31.9269 71.3684 31.7017 71.3069 31.4792 71.2382L31.4708 67.274L60.982 50.2359L60.9876 53.107C60.4118 53.2158 59.8199 53.4112 59.2173 53.7619C56.3694 55.3892 54.1386 59.2457 54.1386 62.5496C54.1589 64.3058 54.7963 65.6382 55.9372 66.3027L60.8718 69.1726C60.8735 69.1726 60.8735 69.1743 60.8752 69.1743L60.8769 69.176C60.8871 69.1819 60.899 69.1792 60.9094 69.1847C62.2156 69.9258 63.7433 69.607 65.0555 68.8488C67.9152 67.1977 70.1477 63.3243 70.1376 60.0306C70.1326 58.3197 69.5106 57.0185 68.3946 56.3419C68.0701 56.1227 69.728 57.1192 63.4077 53.4279C63.1929 53.3054 62.9574 53.2385 62.7233 53.1685L62.7144 48.7323C62.7144 48.4221 62.5483 48.1373 62.2805 47.9813C62.0092 47.8288 61.6804 47.8271 61.4125 47.983L47.1122 56.2396L47.1013 51.2022L60.9192 43.2247C61.1888 43.0704 61.3549 42.7823 61.3532 42.4721L61.2549 7.90594C61.2535 7.63444 60.988 7.25296 60.8226 7.15668L56.1711 4.45459C55.905 4.30033 55.571 4.29863 55.3015 4.45459L52.0925 6.3074C51.6772 6.54642 51.5348 7.07701 51.7755 7.49232C52.0129 7.90764 52.5434 8.04834 52.9605 7.80932L55.7337 6.20908L58.6545 7.90594L36.658 20.6061L33.7356 18.9076L46.5646 11.5014C46.9799 11.2624 47.1223 10.7318 46.8816 10.3165C46.6426 9.90115 46.1103 9.75707 45.6967 9.99947L31.5709 18.1549C31.3019 18.3089 31.1369 18.7297 31.1369 18.9042C31.1369 19.0838 31.2342 53.4643 31.2352 53.6432C31.2369 53.9602 31.4098 54.2518 31.6878 54.4043L36.3394 56.9369C36.6165 57.0845 36.9345 57.073 37.1886 56.925L37.1962 56.9207C37.197 56.9203 37.1981 56.9204 37.1988 56.92C37.3753 56.8191 45.5447 52.1032 45.3677 52.203L45.3786 57.2404L30.1673 66.023C29.8977 66.1773 29.7333 66.4654 29.7333 66.7756L29.7429 71.1592C29.159 71.2653 28.5575 71.4621 27.9432 71.8171C25.0936 73.4461 22.8628 77.3009 22.8628 80.6065ZM64.1875 67.3469C62.2028 68.4932 60.828 67.7063 60.8209 65.4093C60.8141 62.7835 62.7382 59.4508 65.0249 58.1286C66.8439 57.0792 68.394 57.605 68.4017 60.034C68.4085 62.675 66.4794 66.023 64.1875 67.3469ZM64.8486 56.2758C61.7594 57.5801 59.0783 61.799 59.0783 65.4229C59.0817 65.6738 59.0969 65.9162 59.1241 66.1484L56.8102 64.8025C56.2186 64.4584 55.8863 63.6515 55.8744 62.5394C55.8744 59.4886 58.4087 55.6542 60.991 54.8641L60.9921 55.4638C60.9938 55.9418 61.382 56.33 61.8601 56.33C62.3398 56.3283 62.7297 55.9401 62.728 55.4604L62.7271 55.0413L64.8486 56.2758ZM37.6184 54.6734C37.6106 51.9257 37.5375 26.1598 37.526 22.1097L59.5241 9.40786L59.6157 41.9737L37.6184 54.6734ZM32.8778 20.4175L35.7898 22.1102L35.8826 54.7107L32.9694 53.1245L32.8778 20.4175ZM32.9134 85.4021C30.9205 86.5496 29.5539 85.7569 29.5468 83.4662C29.54 80.8387 31.4641 77.506 33.7508 76.1855C35.5692 75.138 37.1201 75.6639 37.1276 78.0909C37.1344 80.7302 35.2053 84.0782 32.9134 85.4021ZM29.7469 72.9157L29.7486 73.6801C29.7502 74.1598 30.1384 74.5463 30.6165 74.5463C31.0962 74.5446 31.4861 74.1564 31.4844 73.6767L31.4832 73.1166L33.5745 74.3327C33.344 74.4293 33.1118 74.5446 32.8795 74.6768C30.0333 76.3211 27.8042 80.1827 27.8042 83.4781C27.8076 83.729 27.8228 83.9731 27.85 84.2053L25.5344 82.8594C24.9445 82.5153 24.6122 81.7084 24.5986 80.5963C24.5986 77.957 26.5243 74.6277 28.8094 73.3224C29.1362 73.1329 29.4485 73.0036 29.7469 72.9157Z" fill="black"/>
<path d="M48.7601 10.2351L50.7654 9.07897C51.1808 8.83826 51.3231 8.30767 51.0841 7.89236C50.8434 7.47704 50.3128 7.33634 49.8975 7.57366L47.8921 8.72977C47.4768 8.97048 47.3344 9.50107 47.5734 9.91638C47.8127 10.3294 48.3399 10.4737 48.7601 10.2351Z" fill="black"/>
<path d="M56.1016 16.1393L40.1704 25.3373C39.7551 25.5763 39.6127 26.1069 39.8534 26.5222C40.0912 26.937 40.6238 27.0798 41.0384 26.8392L56.9695 17.6413C57.3848 17.4022 57.5272 16.8717 57.2865 16.4563C57.0475 16.0393 56.5152 15.8969 56.1016 16.1393Z" fill="black"/>
<path d="M56.1016 23.1743L40.1704 32.3723C39.7551 32.6113 39.6127 33.1419 39.8534 33.5572C40.0912 33.972 40.6238 34.1147 41.0384 33.8742L56.9695 24.6762C57.3848 24.4372 57.5272 23.9066 57.2865 23.4913C57.0475 23.076 56.5152 22.9336 56.1016 23.1743Z" fill="black"/>
<path d="M56.1016 30.2092L40.1704 39.4072C39.7551 39.6462 39.6127 40.1768 39.8534 40.5921C40.0912 41.0069 40.6238 41.1497 41.0384 40.9091L56.9695 31.7111C57.3848 31.4721 57.5272 30.9415 57.2865 30.5262C57.0475 30.1109 56.5152 29.9668 56.1016 30.2092Z" fill="black"/>
<path d="M56.1016 37.2441L40.1704 46.4421C39.7551 46.6811 39.6127 47.2117 39.8534 47.627C40.0912 48.0418 40.6238 48.1846 41.0384 47.944L56.9695 38.7461C57.3848 38.507 57.5272 37.9765 57.2865 37.5611C57.0475 37.1458 56.5152 37.0017 56.1016 37.2441Z" fill="black"/>
</svg>
