<svg width="93" height="92" viewBox="0 0 93 92" fill="none" xmlns="http://www.w3.org/2000/svg">
<path d="M8.79693 80.8013C8.79778 81.1099 8.96221 81.3946 9.2292 81.5489L19.5363 87.5385C19.5404 87.5409 19.5418 87.5458 19.546 87.5481C19.5601 87.5563 19.5772 87.553 19.5917 87.5603C19.7139 87.6221 19.8438 87.6634 19.9791 87.6634C20.1291 87.6634 20.2791 87.6244 20.413 87.5472L54.1904 68.0517C54.7515 70.417 55.95 72.2254 57.7219 73.2587L62.7439 76.1837L62.7456 76.1845C62.7514 76.1879 62.7582 76.1864 62.764 76.1895C62.7679 76.1919 62.7713 76.1949 62.7752 76.1973C65.6707 77.8654 69.1463 77.0455 72.0681 75.359C78.8522 71.4423 84.353 61.9028 84.3309 54.0932C84.3199 50.1451 82.9273 47.1726 80.41 45.7241C80.4001 45.7184 80.3892 45.7152 80.3792 45.7096L75.4067 42.8135C74.8833 42.5086 74.3197 42.2978 73.7355 42.1434L73.6337 11.2219C73.634 11.2131 73.6404 11.2059 73.6404 11.197C73.6405 11.1755 73.6259 11.158 73.6244 11.1367C73.6209 11.0843 73.5987 11.0424 73.5857 10.9914C73.555 10.8703 73.5073 10.764 73.4293 10.6674C73.4101 10.6431 73.4125 10.6092 73.3904 10.5867C73.3676 10.5636 73.3328 10.5658 73.3081 10.5456C73.2715 10.5152 73.2508 10.4704 73.209 10.446L62.8998 4.45448C62.6294 4.29683 62.298 4.29853 62.0294 4.45279L52.8568 9.74848C52.4415 9.98835 52.2991 10.5189 52.539 10.9343C52.7788 11.3496 53.3103 11.4894 53.7247 11.2521L62.4616 6.20728L71.0402 11.1933L19.8427 40.7468L11.2685 35.7642L43.1376 17.3649C43.5529 17.125 43.6953 16.5944 43.4554 16.1791C43.2147 15.7621 42.6833 15.6197 42.2697 15.8612L9.10291 35.0098C8.83159 35.1669 8.66974 35.456 8.66895 35.7608C8.66895 35.7614 8.66937 35.7619 8.66937 35.7625C8.66937 35.7631 8.66895 35.7635 8.66895 35.7642L8.79693 80.8013ZM10.5311 80.2987L10.409 37.272C10.599 37.3824 19.5088 42.5601 18.9736 42.2491C18.9868 46.6616 18.9261 26.2939 19.1018 85.2791L10.5311 80.2987ZM71.9986 41.8956C71.9531 41.8945 71.9042 41.9046 71.8584 41.9043C70.8734 41.9025 69.8597 42.088 68.9501 42.3716C65.4026 43.4841 62.1953 46.2779 59.8739 49.1964L53.0667 46.0208L71.9082 14.3469L71.9986 41.8956ZM46.0643 54.3966L21.6514 41.7125L70.3263 13.6109L46.0643 54.3966ZM20.718 43.1837L39.6873 53.0394L20.838 83.7374C20.8257 79.5768 20.8825 98.7822 20.718 43.1837ZM41.2297 53.8457L45.9982 56.3206C46.4082 56.5318 46.941 56.3401 47.1441 55.9934L52.1762 47.521L58.806 50.6138C56.6937 53.6178 55.0441 57.2001 54.2804 60.7977C53.8086 63.0408 53.7537 64.7383 53.8869 66.222L22.51 84.3324L41.2297 53.8457ZM82.5951 54.0982C82.6154 61.3527 77.5037 70.2159 71.2002 73.8554C65.2219 77.3097 60.6053 74.6807 60.5859 67.802C60.5748 63.8248 62.1188 59.3652 64.5529 55.5455C66.5514 52.4104 69.1469 49.7053 71.9901 48.0635C74.286 46.735 77.249 45.9003 79.5531 47.2371L79.5574 47.2396C79.5587 47.2405 79.5603 47.2403 79.5617 47.2411C81.5084 48.3731 82.5858 50.8059 82.5951 54.0982ZM75.561 44.9121C74.2912 45.1041 72.6769 45.6594 71.1231 46.559C68.6763 47.9717 66.402 50.1198 64.4873 52.6463C61.0892 57.1295 58.8342 62.8192 58.845 67.8062C58.8452 67.8561 58.8561 67.8981 58.8567 67.9477C58.8726 69.342 59.0903 70.8589 59.5748 72.1837C59.5945 72.2375 59.6009 72.303 59.6214 72.356L58.5958 71.7585C57.0041 70.8305 56.0043 69.0137 55.6813 66.5779C55.5094 65.0388 55.5027 63.6132 55.89 61.5607C56.6127 57.7164 58.4517 53.9189 60.8207 50.7978C60.8213 50.7969 60.8213 50.7958 60.822 50.795C60.8219 50.7952 60.8221 50.7948 60.822 50.795C62.7514 48.2299 65.4249 45.7088 68.397 44.4223C71.0225 43.288 73.2486 43.5655 74.5337 44.3138L75.561 44.9121Z" fill="black"/>
<path d="M49.3604 11.7674L45.9388 13.7431C45.5234 13.983 45.381 14.5136 45.6209 14.9289C45.7819 15.2077 46.0735 15.3628 46.3736 15.3628C46.521 15.3628 46.6702 15.3255 46.8067 15.2467L50.2284 13.271C50.6437 13.0311 50.7861 12.5006 50.5462 12.0852C50.3046 11.6682 49.7741 11.5275 49.3604 11.7674Z" fill="black"/>
<path d="M79.6404 53.0735C79.3717 52.9184 79.0403 52.921 78.7733 53.0744L70.9595 57.5861L70.9561 56.3952C70.9552 56.0121 70.7018 55.6739 70.3348 55.5654C69.9644 55.4603 69.5711 55.601 69.3609 55.9231L63.2278 65.3219C63.0837 65.5432 63.0481 65.8178 63.1303 66.0678C63.2134 66.3187 63.405 66.5179 63.6516 66.6103L69.8178 68.9089C70.3894 69.1208 70.9909 68.6948 70.9891 68.0927L70.9832 65.9L79.6591 60.8908C79.9286 60.7348 80.0939 60.4475 80.093 60.1364L80.0752 53.8236C80.0744 53.5143 79.9082 53.2286 79.6404 53.0735ZM69.6796 64.6481C69.4101 64.8041 69.2448 65.0914 69.2457 65.4025L69.2499 66.8442L65.2747 65.3626L69.2482 59.2736C69.2999 59.5092 69.4491 59.716 69.6627 59.8398C69.9305 59.994 70.2619 59.9932 70.5297 59.8389L78.3436 55.3272L78.3555 59.6389L69.6796 64.6481Z" fill="black"/>
</svg>
