<svg width="93" height="92" viewBox="0 0 93 92" fill="none" xmlns="http://www.w3.org/2000/svg">
<path d="M35.1569 30.9924C35.4009 31.4111 35.9355 31.5454 36.3426 31.3077L58.9833 18.1989C59.3986 17.9582 59.5401 17.4276 59.2994 17.0123C59.0587 16.597 58.5256 16.4546 58.1136 16.697L35.473 29.8057C35.0577 30.0465 34.9162 30.577 35.1569 30.9924Z" fill="black"/>
<path d="M58.1136 34.5929L35.473 47.7016C35.0577 47.9423 34.9162 48.4729 35.1569 48.8882C35.4009 49.3069 35.9355 49.4413 36.3426 49.2035L58.9833 36.0948C59.3986 35.8541 59.5401 35.3235 59.2994 34.9082C59.0587 34.4929 58.5256 34.3505 58.1136 34.5929Z" fill="black"/>
<path d="M53.5645 12.0828C53.3238 11.6708 52.7924 11.5234 52.3788 11.7675L29.7382 24.8762C29.3228 25.1169 29.1813 25.6475 29.422 26.0628C29.6676 26.4868 30.2052 26.6131 30.6078 26.3781L53.2484 13.2694C53.6637 13.0287 53.8053 12.4981 53.5645 12.0828Z" fill="black"/>
<path d="M58.1136 25.6441L35.473 38.7528C35.0577 38.9935 34.9162 39.5241 35.1569 39.9395C35.4025 40.3634 35.9401 40.4898 36.3426 40.2548L58.9833 27.146C59.3986 26.9053 59.5401 26.3747 59.2994 25.9594C59.0587 25.5458 58.5256 25.4 58.1136 25.6441Z" fill="black"/>
<path d="M77.0254 44.3878C77.0157 44.3816 77.0105 44.3713 77.0004 44.3655C76.9996 44.3655 77.0013 44.3655 77.0004 44.3655L70.2952 40.4802C68.9045 39.6588 67.3148 39.288 65.6049 39.3098L65.6369 23.5997C65.6555 17.2225 61.1625 9.44002 55.6244 6.25142C52.757 4.58507 50.0185 4.34775 47.9131 5.57505C41.0607 9.54313 17.1368 23.4132 14.2632 25.061C12.1705 26.2662 11.0127 28.7242 11.0034 31.984C11.0026 32.2959 11.1679 32.5841 11.4374 32.7384L15.8321 35.276C16.0982 35.4303 16.4296 35.4303 16.6992 35.2777C16.967 35.1235 17.1331 34.837 17.134 34.5268C17.1409 31.9507 18.7117 30.9365 21.0693 32.2908C23.6587 33.786 25.8387 37.5662 25.8302 40.5463L25.7717 63.5141C25.7709 63.9921 26.1582 64.382 26.6371 64.3837C26.6379 64.3837 26.6388 64.3837 26.6396 64.3837C27.1177 64.3837 27.5067 63.9972 27.5075 63.5175L27.566 40.5497C27.5762 36.9051 25.1038 32.6163 21.9372 30.7889C18.7882 28.9635 16.1581 30.3062 15.5448 33.1062L12.7511 31.4924C12.9736 26.6136 16.359 24.5264 21.0778 27.2477C26.1339 30.1658 30.241 37.2679 30.2249 43.084L30.1181 84.8257L27.4567 83.2899L27.4813 73.6071C27.4821 73.1291 27.0948 72.7392 26.6159 72.7375C26.615 72.7375 26.6142 72.7375 26.6133 72.7375C26.1353 72.7375 25.7463 73.124 25.7454 73.6037L25.7191 83.7883C25.7183 84.0985 25.8836 84.3867 26.1531 84.5409C26.5645 84.7783 30.8209 87.2348 30.5525 87.0799C30.5533 87.0804 30.5537 87.0814 30.5546 87.082C30.8273 87.2398 31.1587 87.2361 31.4234 87.082L45.7486 78.8009C46.2251 79.2543 46.7321 79.6699 47.3011 80.0013L53.9945 83.8917C54.0098 83.9001 54.025 83.9086 54.0403 83.9171C54.0411 83.9176 54.0421 83.9173 54.0429 83.9178C54.0503 83.9222 54.0566 83.9281 54.064 83.9324C57.7947 86.0783 62.2768 84.9778 65.9929 82.8322C74.8459 77.7213 82.0258 65.3025 81.9969 55.1502C81.9818 50.0676 80.2157 46.2509 77.0254 44.3878ZM31.8607 84.824L31.9616 43.0924C31.9643 42.1373 31.8546 41.149 31.6661 40.1506C30.5994 34.4894 26.6592 28.4561 21.9516 25.739C21.0491 25.2178 19.7841 24.6878 18.7577 24.4726L48.7853 7.07527C50.3312 6.17514 52.451 6.41246 54.7548 7.75503C59.8148 10.6673 63.918 17.7735 63.901 23.5947L63.8688 39.4631C63.8403 39.4676 63.8111 39.4769 63.7825 39.4816C61.8702 39.8144 60.01 40.5661 58.2934 41.5583C56.1634 42.7906 53.6958 44.7485 51.3037 47.481L35.4672 56.6436C35.0527 56.8826 34.9103 57.4149 35.151 57.8285C35.3911 58.2451 35.9236 58.3853 36.3368 58.1455L48.5125 51.1009C46.476 54.1061 44.8357 57.4333 43.7574 60.7992L35.4672 65.6008C35.0519 65.8416 34.9103 66.3721 35.151 66.7875C35.3945 67.2078 35.931 67.3397 36.3368 67.1028L43.0788 63.1977C42.4844 65.6961 42.2269 68.0147 42.3953 70.531L35.4672 74.5411C35.0527 74.7819 34.9103 75.3124 35.151 75.7261C35.3918 76.1416 35.9224 76.2835 36.3368 76.0431L42.6139 72.4098C42.6839 72.8147 42.7724 73.2029 42.8693 73.5842C42.9042 73.7204 42.9357 73.8588 42.9739 73.992C43.3389 75.27 43.8569 76.4036 44.5238 77.3728C44.5449 77.4035 44.559 77.4417 44.5804 77.4721L31.8607 84.824ZM48.1741 78.4994C38.7315 73.008 46.6002 50.3196 59.1656 43.0619C62.2827 41.247 66.3088 40.1448 69.4197 41.9787L71.5861 43.2348C71.5602 43.237 71.533 43.2444 71.5071 43.2467C69.1505 43.4571 66.9014 44.3859 65.0232 45.4708C57.3025 49.927 50.9122 59.9313 49.3924 69.1032C49.3912 69.1098 49.3865 69.1149 49.3853 69.1217C49.3825 69.1381 49.3817 69.1553 49.379 69.1717C48.8256 72.5682 48.8945 76.6302 50.3558 79.769L48.1741 78.4994ZM65.125 81.3303C55.7131 86.76 49.3283 80.8205 51.0904 69.4626C52.4623 60.866 58.5247 51.2294 65.8988 46.9744C69.0062 45.1826 73.0174 44.0789 76.1156 45.8623C78.7761 47.3931 80.2484 50.6936 80.2611 55.1535C80.2882 64.7533 73.4982 76.4957 65.125 81.3303Z" fill="black"/>
<path d="M69.7775 50.7546L60.3939 56.1723C59.2191 56.8504 58.3029 58.4388 58.3071 59.7881C58.3098 61.0586 59.1092 61.8274 60.0947 61.8274C60.2229 61.8274 60.3556 61.7958 60.4875 61.7702L60.5227 74.0072C60.5315 77.3537 63.139 78.8877 66.0973 77.1788C68.7753 75.6341 70.7673 72.0374 70.7658 69.1081C70.7658 69.1031 70.7658 69.0963 70.7658 69.0912L70.7446 61.5748L70.729 56.011C71.8843 55.2996 72.7473 53.7945 72.7432 52.4531C72.7396 50.7487 71.2924 49.8812 69.7775 50.7546ZM62.2213 60.9425L68.996 57.0318L69.007 61.0764L62.2323 64.9889L62.2213 60.9425ZM62.2586 74.0038L62.2391 66.9892L69.013 63.0769L69.0299 69.0946C69.0372 71.476 67.2507 74.5092 65.2294 75.6769C63.3734 76.7527 62.2637 75.9013 62.2586 74.0038ZM69.7885 54.567L60.4058 59.9831C60.221 60.0899 60.1074 60.0983 60.1083 60.1068C60.0913 60.0882 60.0438 59.9898 60.043 59.783C60.0405 59.049 60.6219 58.0455 61.2618 57.6742L70.6454 52.2565C70.8319 52.1497 70.9463 52.1395 70.9412 52.1277C70.9582 52.1463 71.0065 52.248 71.0073 52.4582C71.0099 53.2041 70.4403 54.189 69.7885 54.567Z" fill="black"/>
<path d="M65.0819 71.6628C64.8434 71.3661 64.2306 71.2817 63.8495 71.6628C63.4989 72.0989 63.5517 72.5668 63.8495 72.8952C64.298 73.2557 64.792 73.1835 65.0819 72.8952C65.4299 72.5471 65.4208 72.0017 65.0819 71.6628Z" fill="black"/>
<path d="M67.2516 67.7232C66.8031 67.3661 66.3221 67.4415 66.0193 67.7232C65.6994 68.04 65.6544 68.5943 66.0193 68.9556C66.3746 69.311 66.9116 69.294 67.2516 68.9556C67.5814 68.5454 67.5827 68.1351 67.2516 67.7232Z" fill="black"/>
<path d="M26.6211 70.8931C27.0992 70.8931 27.4899 70.5066 27.4907 70.0269L27.4984 66.8807C27.4992 66.4009 27.1119 66.0127 26.6321 66.011C26.1541 66.011 25.7634 66.3975 25.7625 66.8773L25.7549 70.0235C25.754 70.5032 26.1414 70.8914 26.6211 70.8931Z" fill="black"/>
</svg>
