<svg width="93" height="92" viewBox="0 0 93 92" fill="none" xmlns="http://www.w3.org/2000/svg">
<path d="M14.7528 80.5909L26.7258 87.5479C26.7255 87.5477 26.7261 87.5481 26.7258 87.5479C26.8614 87.6267 27.0123 87.6657 27.1615 87.6657C27.2738 87.6657 27.385 87.642 27.49 87.5989C27.4931 87.5977 27.4966 87.5983 27.4996 87.597C27.5183 87.5891 27.5294 87.5712 27.5473 87.5621C27.6228 87.524 27.6984 87.4851 27.7615 87.4241L40.0634 75.6419C44.2148 76.3361 48.985 75.213 53.8942 72.3787C67.6056 64.4614 78.7241 45.2128 78.6792 29.4698C78.6573 21.7148 75.9798 15.9012 71.142 13.0826C71.1375 13.0798 71.1352 13.0751 71.1306 13.0725C71.1273 13.0708 71.1239 13.0683 71.1205 13.0666L71.1102 13.0606C71.1016 13.0557 71.0944 13.0487 71.0857 13.0437C71.0781 13.0392 71.0695 13.0368 71.0619 13.0325L59.1552 6.10791C54.2553 3.25325 47.7687 3.86012 40.8881 7.81579C40.4727 8.05481 40.3295 8.5854 40.5685 9.00156C40.8075 9.41687 41.3373 9.56012 41.7543 9.3211C48.0705 5.68582 53.9408 5.07725 58.2813 7.60813L64.6288 11.2994C59.1983 11.1891 53.7493 13.8628 49.3367 17.1395C42.2309 22.4115 36.092 30.5765 32.2759 39.3619C29.6346 45.4373 28.0974 51.7952 28.1141 57.6672C28.1216 60.5036 28.5835 63.9221 29.6186 66.6244L20.2832 61.2007C18.705 58.4306 17.8974 54.8989 17.8813 50.6975C17.8474 40.2765 22.86 27.9493 30.9637 18.5267C31.2765 18.1631 31.2349 17.6147 30.8722 17.3028C30.5086 16.99 29.961 17.0324 29.6483 17.3943C21.2843 27.1203 16.1098 39.8832 16.1454 50.7035C16.1626 55.1573 17.0475 58.9227 18.7361 61.9387L14.346 79.6315C14.2528 80.0061 14.4189 80.3977 14.7528 80.5909ZM76.9434 29.4749C76.9866 44.6627 66.257 63.235 53.0263 70.8751C48.3086 73.5967 43.7885 74.6248 39.9549 73.8569C39.6743 73.8009 39.3878 73.8848 39.1836 74.0806L28.7261 84.0965L32.4707 69.0045C32.5092 68.8489 32.4559 68.4895 32.3749 68.3527C30.5974 65.3553 29.8585 61.1351 29.8585 57.6621C29.8394 51.965 31.3334 45.7942 33.9051 39.9042C37.5844 31.4854 43.4734 23.6661 50.2821 18.595C56.1083 14.2594 63.9782 10.9319 70.251 14.5701C74.5458 17.0615 76.9239 22.3516 76.9434 29.4749ZM20.2186 63.1716L30.6272 69.2248L28.2606 78.7643L26.5975 85.466L16.1878 79.4179L20.2186 63.1716Z" fill="black"/>
<path d="M34.2659 15.033C35.4585 13.8896 36.6892 12.8318 37.9241 11.8893C38.3047 11.5986 38.3776 11.0536 38.0868 10.6721C37.797 10.2933 37.2528 10.217 36.8697 10.5094C35.5848 11.4918 34.3041 12.5919 33.0641 13.7802C32.7182 14.1116 32.7064 14.6609 33.0386 15.0075C33.3695 15.3516 33.9168 15.3663 34.2659 15.033Z" fill="black"/>
<path d="M40.5726 45.49C37.9511 47.0038 35.9041 50.5416 35.9126 53.5454C35.9213 56.8369 38.5008 58.4142 41.4685 56.7009C44.0291 55.2219 46.1048 51.6163 46.0963 48.6633C46.0875 45.3168 43.4719 43.8149 40.5726 45.49ZM40.6006 55.1973C38.849 56.206 37.6538 55.5381 37.6485 53.5403C37.6417 51.1823 39.3784 48.1836 41.4406 46.9936C43.1276 46.0182 44.355 46.618 44.3605 48.6684C44.3673 51.0264 42.645 54.0167 40.6006 55.1973Z" fill="black"/>
<path d="M53.3059 38.1389C50.6835 39.6527 48.6366 43.1905 48.645 46.1943C48.6537 49.4896 51.2435 51.0564 54.2009 49.349C56.7615 47.8709 58.8372 44.2661 58.8288 41.3123C58.82 37.968 56.2033 36.4622 53.3059 38.1389ZM53.333 47.8454C51.5906 48.8531 50.3863 48.1941 50.3809 46.1893C50.3741 43.8313 52.1108 40.8334 54.1738 39.6425C55.8609 38.6671 57.0874 39.2669 57.0929 41.3174C57.0997 43.6753 55.3782 46.6656 53.333 47.8454Z" fill="black"/>
<path d="M66.0385 30.787C63.4169 32.3016 61.37 35.8403 61.3784 38.8433C61.3872 42.1554 63.99 43.6977 66.9343 41.998C69.4949 40.5198 71.5706 36.9142 71.5621 33.9603C71.5534 30.6261 68.9448 29.1059 66.0385 30.787ZM66.0664 40.4944C64.3521 41.4851 63.1198 40.8738 63.1143 38.8382C63.1075 36.4802 64.8442 33.4815 66.9064 32.2906C68.6203 31.3014 69.8209 31.9466 69.8263 33.9654C69.8331 36.3243 68.1116 39.3145 66.0664 40.4944Z" fill="black"/>
</svg>
