<svg width="93" height="92" viewBox="0 0 93 92" fill="none" xmlns="http://www.w3.org/2000/svg">
<path d="M78.5405 44.4352C78.5273 44.4277 78.5127 44.4236 78.4995 44.4162L71.5343 40.4244C69.2853 39.1364 66.5843 38.8972 63.6716 39.6448C60.3396 34.1186 56.5036 29.5193 52.5313 26.2871L52.5436 23.792C52.8865 23.435 53.2663 23.0605 53.7215 22.6472C54.4064 21.9318 60.4157 15.5495 60.2089 11.793C60.2086 11.7883 60.2069 11.7818 60.2065 11.7769C60.2973 10.2164 59.8971 8.08318 58.6714 6.68891C57.6577 5.53619 56.2524 5.05646 54.5895 5.31582C54.5149 5.32769 54.4386 5.34973 54.3691 5.38024C54.3369 5.3938 51.1703 6.75841 47.7156 5.24463C43.1708 3.2545 38.5193 5.00391 38.2108 5.13444C38.1769 5.15478 34.6357 7.09066 31.3538 5.38871C31.3081 5.36498 31.2606 5.34464 31.2114 5.32938C30.4656 5.09715 23.9341 3.19008 21.849 6.655C21.1794 7.43817 20.3607 9.36388 21.6643 11.5913C21.8676 11.9395 25.8158 16.9852 27.6295 20.552C27.6361 20.5634 28.2774 21.7578 29.0662 23.558L29.0526 26.3334C18.184 35.1785 9.70498 53.2333 9.14717 65.3331C8.48083 71.4513 13.2254 76.6102 18.6553 79.7522C24.7122 83.2392 32.671 85.0988 40.8298 85.0988C44.0689 85.0988 47.3371 84.7966 50.5314 84.1958L54.5335 86.4905C54.5418 86.4952 54.5512 86.493 54.5595 86.4974C54.5647 86.5004 54.569 86.5045 54.5742 86.5074C55.9812 87.3059 57.5628 87.7008 59.2647 87.7008C61.7159 87.7008 64.4129 86.8787 67.1862 85.253C73.7957 81.3762 79.7949 73.3564 82.4698 64.8212C82.6122 64.3635 82.358 63.877 81.9003 63.7329C81.4477 63.5905 80.9561 63.8448 80.812 64.3025C78.259 72.4494 72.5667 80.0862 66.3081 83.7545C57.7594 88.7669 51.0256 84.9085 50.9313 75.121C50.831 64.7067 58.1947 52.2426 66.8184 47.1847C75.2298 42.2549 82.0837 45.8496 82.18 55.7928C82.1851 56.2691 82.5715 56.6522 83.0479 56.6522C83.0513 56.6522 83.053 56.6522 83.0564 56.6522C83.5361 56.6471 83.9209 56.2555 83.9158 55.7758C83.8633 50.397 81.9545 46.3693 78.5405 44.4352ZM70.6715 41.9297L73.0142 43.2723C72.9554 43.2766 72.8935 43.2928 72.8345 43.298C61.0993 44.3404 49.0669 61.5237 49.187 75.138C49.2195 77.9434 49.866 80.5381 50.6621 82.1912L48.3699 80.8863C45.5305 79.2504 43.9404 75.7431 43.8947 71.0069C43.7946 60.9769 50.8674 48.3821 59.7817 43.1519C63.1313 41.1846 67.2902 39.994 70.6715 41.9297ZM48.0631 30.25C43.5374 32.8807 35.9925 32.4474 32.3997 29.4389C31.6015 28.7669 30.7851 27.6198 30.7876 26.524L30.7927 25.4612C31.2772 25.903 32.168 26.64 32.715 26.9461C37.3181 29.6022 44.4523 29.5727 48.9564 26.9512C49.5188 26.6328 50.575 25.7507 50.7991 25.551L50.794 26.5783C50.7887 28.1212 49.4353 29.4542 48.0631 30.25ZM23.1882 7.76025C23.234 7.70939 23.2747 7.65515 23.3086 7.59582C23.8442 6.65331 25.1665 6.35665 26.5785 6.35665C28.1245 6.35665 29.779 6.71264 30.6266 6.96691C34.7357 9.04349 38.8854 6.74485 38.9482 6.70077C38.9905 6.68382 43.1234 5.12596 47.0172 6.83469C50.8279 8.50612 54.2606 7.29747 54.9539 7.01777C55.9812 6.87368 56.766 7.15169 57.3678 7.83484C58.2582 8.84865 58.5253 10.4872 58.4807 11.5958C58.4752 11.6288 58.4611 11.6589 58.4595 11.693C58.4392 12.0863 58.4002 12.2948 58.3697 12.4016C58.2724 12.7419 58.0523 13.0678 57.7507 13.3649C56.9003 14.193 55.3747 14.7726 53.869 14.7376C53.8174 14.7357 53.7671 14.7448 53.7156 14.7443C51.0945 14.6885 48.5399 16.3836 48.5682 16.3836C41.8399 19.1046 36.4539 17.2103 30.6258 14.1467C29.3794 13.4864 27.839 13.0501 26.5259 12.7701C25.1856 12.482 23.9071 11.9879 23.1628 10.7166C22.1593 9.00111 23.0865 7.87383 23.1882 7.76025ZM25.8294 14.3909C27.3349 14.6961 28.5806 15.0887 29.5108 15.5276C30.8326 16.1566 32.8202 18.2104 38.5145 19.0877C42.0763 19.6367 45.5828 19.3744 49.0664 18.0238C49.1639 17.9861 49.2607 17.9624 49.3582 17.9228C49.4069 17.8914 49.4775 17.8491 49.5408 17.8105C53.4893 15.4416 53.5682 17.2279 56.8473 15.9481C55.4452 18.1331 53.4995 20.3706 52.5129 21.4029C51.0083 22.7619 49.6585 24.5308 48.0868 25.4442C44.1015 27.7598 37.5988 27.7598 33.5898 25.4425C32.7436 24.9555 31.3308 23.6084 30.6758 22.9015C29.8468 21.0046 29.184 19.7773 29.1654 19.7451C28.4622 18.359 27.3186 16.5274 25.8294 14.3909ZM19.5233 78.2486C14.7661 75.4965 10.3169 70.9768 10.8762 65.4671C11.4116 54.0569 19.2835 37.0194 29.4044 28.2853C29.4115 28.303 29.4243 28.3195 29.4316 28.3372C30.1106 29.976 31.4873 31.0884 33.0754 31.9344C29.9308 34.2316 27.2202 37.6257 24.8241 42.267C24.6037 42.6925 24.7715 43.2163 25.197 43.4367C25.3241 43.5028 25.4597 43.5333 25.5954 43.5333C25.909 43.5333 26.2124 43.3621 26.3667 43.0638C28.4405 39.0475 30.7439 36.0462 33.355 33.9256C33.0704 35.4204 32.9581 37.3469 33.7508 38.9377C34.3899 40.2176 35.49 41.0736 37.0191 41.4805C37.4646 41.602 37.9552 41.3409 38.0819 40.8651C38.204 40.4007 37.9294 39.926 37.4666 39.8023C36.4258 39.526 35.7189 38.9903 35.307 38.1664C34.4647 36.482 35.0324 34.0614 35.3938 32.8901C39.7622 34.2782 45.2108 33.9185 48.9293 31.7553C48.9311 31.7543 48.9325 31.7531 48.9343 31.752C50.2996 30.9593 51.5883 29.7943 52.1788 28.31C52.1852 28.2941 52.1965 28.2793 52.2027 28.2633C55.6506 31.2417 58.985 35.2999 61.9363 40.1159C51.4718 44.1393 42.0438 58.8358 42.1537 71.1052C42.2131 76.4805 44.1116 80.5133 47.5003 82.4577L48.1556 82.8335C38.0007 84.2808 27.005 82.5579 19.5233 78.2486Z" fill="black"/>
<path d="M82.9513 58.2185C82.4817 58.1507 82.0427 58.4948 81.9816 58.9711C81.8732 59.834 81.7138 60.7392 81.5053 61.6614C81.4791 61.7796 81.4789 61.8973 81.4999 62.0094C81.5374 62.3708 81.7891 62.686 82.163 62.77C82.6518 62.8729 83.0977 62.5653 83.2005 62.1123C83.4191 61.1342 83.5887 60.1747 83.7039 59.2593C83.7061 59.2421 83.6991 59.2266 83.7002 59.2094C83.7011 59.2025 83.7031 59.1949 83.7039 59.1881C83.7633 58.7118 83.4276 58.2778 82.9513 58.2185Z" fill="black"/>
<path d="M70.4903 67.1826C70.4651 64.5166 68.3204 63.4283 66.1202 64.7144C65.5896 65.0246 65.1149 65.106 64.825 64.9399C64.5335 64.7754 64.3623 64.3347 64.3572 63.7329C64.3419 62.1072 65.5201 60.034 66.9304 59.2068C67.4559 58.9 67.9272 58.8169 68.2188 58.9847C68.5103 59.1492 68.6815 59.5899 68.6866 60.1934C68.6917 60.6697 69.0782 61.0528 69.5546 61.0528H69.563C70.0428 61.0478 70.4276 60.6562 70.4225 60.1764C70.4106 58.9203 69.9309 57.9592 69.0748 57.4744C68.5722 57.1903 67.9752 57.1286 67.3511 57.2376L67.3373 55.2062C67.3339 54.7282 66.9457 54.3434 66.4694 54.3434H66.4643C65.9845 54.3468 65.598 54.7384 65.6014 55.2164L65.6204 58.011C63.8908 59.269 62.601 61.6753 62.6213 63.7499C62.6332 65.006 63.1129 65.9654 63.969 66.4503C64.8369 66.9435 65.91 66.8537 66.9982 66.2129C67.5221 65.9044 67.9933 65.8196 68.2866 65.9909C68.5781 66.1553 68.7494 66.596 68.7544 67.1995C68.7697 68.8201 67.5949 70.8865 66.188 71.7103C65.6557 72.0206 65.1844 72.1019 64.8895 71.9358C64.5996 71.7714 64.4301 71.3357 64.425 70.739C64.4199 70.2627 64.0334 69.8796 63.5571 69.8796H63.5486C63.0689 69.8847 62.6841 70.2762 62.6891 70.756C62.701 71.9884 63.1909 72.9699 64.0351 73.4462C64.3979 73.6513 64.8064 73.753 65.2404 73.753C65.398 73.753 65.5649 73.7057 65.7281 73.6789L65.7421 75.7381C65.7455 76.2161 66.1337 76.6009 66.6101 76.6009H66.6151C67.0949 76.5975 67.4814 76.2059 67.478 75.7279L67.459 72.9335C69.2034 71.6871 70.5108 69.2675 70.4903 67.1826Z" fill="black"/>
</svg>
