<svg width="93" height="92" viewBox="0 0 93 92" fill="none" xmlns="http://www.w3.org/2000/svg">
<path d="M35.4237 55.7049C35.5737 55.7049 35.7229 55.6659 35.8576 55.5888L40.2413 53.0588C40.5108 52.9028 40.6761 52.6155 40.6753 52.3044C40.6703 50.6356 41.1212 48.2002 42.1653 45.7865C44.122 41.3005 47.3516 38.0493 49.9063 36.786C52.4838 35.424 54.7663 35.5231 56.1657 37.064C57.0769 38.0684 57.5608 39.6212 57.5659 41.5545C57.5672 42.0313 57.9553 42.4199 58.4338 42.4199C58.584 42.4197 58.734 42.3807 58.8678 42.3038L63.2608 39.7678C63.5303 39.6119 63.6956 39.3245 63.6948 39.0135C63.6854 35.4621 62.6836 32.5913 60.802 30.7165C60.8011 30.7156 60.8002 30.7151 60.7993 30.7143C60.7987 30.7136 60.7984 30.7129 60.7977 30.7122C60.7967 30.7112 60.7953 30.7111 60.7942 30.71C58.0266 27.9224 53.6452 27.7334 49.0731 30.2079C49.0655 30.2122 48.907 30.2944 48.9002 30.2986C48.8163 30.3393 48.7332 30.3808 48.6468 30.4308C40.8956 34.9064 34.5312 45.8314 34.5557 54.8395C34.557 55.3117 34.9393 55.7049 35.4237 55.7049ZM38.4587 45.2969L40.2252 45.945C39.5516 47.6911 39.0146 49.8722 38.9479 51.8001C38.7742 51.9003 36.179 53.3983 36.3527 53.2981C36.3578 53.234 36.3718 53.1666 36.3776 53.1023C36.6212 50.3863 37.3699 47.8437 38.4587 45.2969ZM48.6223 32.5278L48.6307 35.496C45.9021 37.0817 42.967 40.0994 40.9284 44.3543L39.1847 43.7151C41.3284 39.3671 44.5453 35.2317 48.6223 32.5278ZM59.2128 40.1001C59.0273 38.6081 58.4792 37.2676 57.8795 36.4292L60.2522 32.8076C61.405 34.4201 61.8865 36.5536 61.9505 38.5202L59.2128 40.1001ZM59.0343 31.4988L56.634 35.1625C54.9793 33.9413 52.7517 33.7697 50.3644 34.6765L50.3554 31.5161C53.236 30.0719 56.4936 29.476 59.0343 31.4988Z" fill="black"/>
<path d="M50.1238 44.3517L50.3653 41.1994C50.4017 40.7214 50.044 40.3044 49.566 40.268C49.0964 40.2374 48.671 40.5892 48.6345 41.0672L48.331 45.0303C47.0603 45.9827 46.1141 47.7516 46.1172 49.2845C46.1243 51.3405 47.8259 52.3179 49.6143 51.2874C51.0866 50.4389 52.2359 48.4471 52.2317 46.752C52.2317 46.7511 52.2317 46.7528 52.2317 46.752C52.227 45.4099 51.4669 44.3363 50.1238 44.3517ZM48.7481 49.7829C48.1124 50.1479 47.856 49.981 47.853 49.2795C47.8513 48.209 48.6676 46.796 49.5991 46.257C50.2628 45.8726 50.493 46.1014 50.4958 46.7562C50.4983 47.8301 49.6813 49.2456 48.7481 49.7829Z" fill="black"/>
<path d="M52.3911 13.8284L55.2551 12.1748C55.6704 11.935 55.8128 11.4044 55.573 10.989C55.3323 10.572 54.8008 10.4313 54.3872 10.6712L51.5232 12.3248C51.1079 12.5647 50.9655 13.0953 51.2054 13.5106C51.3664 13.7895 51.658 13.9446 51.958 13.9446C52.1055 13.9446 52.2547 13.9073 52.3911 13.8284Z" fill="black"/>
<path d="M70.5405 51.5314C72.7594 50.2499 74.491 47.2477 74.4834 44.6991L74.4004 10.7644C74.3962 9.39947 73.8937 8.35716 72.998 7.80072C72.9779 7.78663 72.9658 7.76555 72.9442 7.75294L67.6875 4.69571C66.734 4.14478 65.5329 4.23462 64.3107 4.94405L57.2521 9.01838C56.8367 9.25825 56.6944 9.78883 56.9342 10.2041C57.1732 10.6178 57.7047 10.7602 58.12 10.522L65.1812 6.44597C65.8449 6.06032 66.4271 5.97386 66.817 6.19763L69.7344 7.89448C69.6776 7.92415 69.6217 7.95466 69.5649 7.98687L27.707 32.1574C25.4287 33.4727 23.7603 36.5695 23.7666 39.0008L23.8048 54.4308L23.8454 72.9371C23.8463 72.9863 23.8471 73.0346 23.8488 73.0829L20.9187 71.3793C20.5509 71.1699 20.3398 70.6249 20.3398 69.8824L20.2525 35.9351C20.2415 34.0229 21.6485 31.5819 23.3216 30.6063L49.5594 15.4625C49.9747 15.2227 50.1171 14.6921 49.8772 14.2768C49.6357 13.8615 49.1043 13.7182 48.6915 13.9589L22.4503 29.1044C20.2305 30.3995 18.5023 33.4042 18.5167 35.9427L18.604 69.885C18.604 71.2869 19.121 72.3531 20.0534 72.8837C21.8031 73.9006 25.5418 76.0731 25.3185 75.9443C26.3804 76.5564 27.6193 76.3119 28.6851 75.6968L40.2333 69.0294L40.2382 71.2221L32.3653 75.7918C32.0997 75.9465 31.9288 76.2417 31.928 76.5487L31.9153 80.94C31.9144 81.2511 32.0797 81.5384 32.3492 81.6943L42.4838 87.5452C42.7553 87.7016 43.0867 87.6982 43.3509 87.5461C43.3518 87.5455 43.3521 87.5444 43.3531 87.5438C43.3528 87.544 43.3534 87.5436 43.3531 87.5438L64.8481 75.0527C65.1142 74.8984 65.2787 74.6136 65.2795 74.3051L65.2922 69.9225C65.2923 69.9179 65.2956 69.9141 65.2956 69.9096C65.2948 69.6002 65.1295 69.3146 64.8617 69.1594L54.7246 63.3103C54.501 63.1824 54.241 63.1875 54.0035 63.2725L53.9971 61.0828L70.5405 51.5314ZM27.8172 74.1932C27.1637 74.5721 26.5687 74.6603 26.1848 74.4407C26.113 74.3994 26.053 74.3354 25.9931 74.2711C25.9739 74.2506 25.9496 74.2391 25.9318 74.2165C25.7109 73.9348 25.5876 73.486 25.5864 72.9295L25.5407 54.4546L25.5067 38.9906C25.496 37.1666 26.8585 34.6556 28.5783 33.6618L70.4337 9.49642C70.9099 9.22095 71.3514 9.10324 71.7057 9.14266C71.7163 9.14382 71.7292 9.14085 71.7397 9.14234C71.8081 9.15198 71.8642 9.18186 71.9252 9.20389C71.9718 9.22085 72.0242 9.22826 72.0665 9.25242C72.4443 9.47237 72.662 10.024 72.6645 10.7695L72.7476 44.7033C72.7535 46.6231 71.3448 49.0616 69.6725 50.0278C32.6145 71.4151 64.8667 52.789 27.8172 74.1932ZM43.6712 67.0445C43.672 67.3164 43.6991 76.6193 43.6974 76.0365C43.5237 75.9352 41.81 74.9358 41.9837 75.0371C41.9833 74.8589 41.9663 67.8548 41.9668 68.033C42.1407 67.9321 43.8452 66.9436 43.6712 67.0445ZM33.6596 78.0523C33.8356 78.1539 42.6118 83.2228 42.0608 82.9046L42.0541 85.2923L33.6528 80.4425L33.6596 78.0523ZM43.79 85.2829L43.7969 82.9142L63.5521 71.4245L63.5454 73.8025L43.79 85.2829ZM54.0135 65.2334L54.2957 65.0673L62.6936 69.9133L42.9292 81.3991C42.7533 81.2973 33.981 76.2233 34.5318 76.5419L40.2427 73.2266L40.2479 75.5375C40.2483 75.6895 40.2898 75.8352 40.3621 75.9631C40.3629 75.9647 40.3625 75.9666 40.3633 75.9681C40.4376 76.0976 40.545 76.2082 40.6784 76.2859C40.8544 76.3885 44.3583 78.4307 44.1347 78.3004C44.1355 78.3008 44.1357 78.3019 44.1366 78.3023C44.4009 78.4535 44.7311 78.4584 45.0036 78.3015L53.5964 73.3363C53.866 73.1804 54.0312 72.893 54.0304 72.5828V72.5787L54.0135 65.2334ZM52.2929 72.0844C52.1138 72.1879 44.9827 76.3085 45.4334 76.0481L45.4046 66.0437L52.264 62.0834L52.2929 72.0844Z" fill="black"/>
<path d="M69.6708 44.0024C69.9403 43.8464 70.1056 43.5591 70.1047 43.248L70.0217 14.2989C70.0208 13.9895 69.8547 13.7039 69.5869 13.5487C69.319 13.3936 68.9876 13.3962 68.7198 13.5496L28.58 36.7242C28.3104 36.8802 28.1452 37.1675 28.146 37.4785L28.2282 66.4277C28.2291 66.7371 28.3952 67.0227 28.663 67.1778C28.927 67.3299 29.2584 67.3334 29.5301 67.177L69.6708 44.0024ZM68.2901 15.8025L68.3672 42.7505L29.9598 64.9241L29.8835 37.9761L68.2901 15.8025Z" fill="black"/>
<path d="M49.9347 57.4984L47.5301 58.8867C47.1147 59.1266 46.9724 59.6572 47.2122 60.0725C47.4527 60.4889 47.9849 60.629 48.398 60.3904L50.8026 59.002C51.2179 58.7621 51.3603 58.2316 51.1204 57.8162C50.8797 57.4001 50.3483 57.2594 49.9347 57.4984Z" fill="black"/>
</svg>
