<svg width="93" height="92" viewBox="0 0 93 92" fill="none" xmlns="http://www.w3.org/2000/svg">
<path d="M82.1266 30.8122C82.161 24.7517 79.1965 16.996 73.4168 13.5793C73.4103 13.5755 73.4032 13.5732 73.3967 13.5694C73.3932 13.5673 73.3914 13.5637 73.3879 13.5615L61.2031 6.39693C52.8079 1.46196 42.6538 6.97729 42.8275 6.93261C42.6508 7.0337 42.4595 7.27383 42.4186 7.57952C42.363 8.0111 42.3985 9.70092 42.3759 12.4841L38.2421 10.0534C37.9522 9.88558 37.5962 9.89491 37.3199 10.0797C32.8904 13.036 28.7169 16.9866 24.9164 21.8221C24.6214 22.1993 24.6858 22.7451 25.0639 23.0409C25.4385 23.3384 25.986 23.274 26.2827 22.8951C29.8391 18.3682 33.7228 14.6473 37.8335 11.8274L48.3724 18.0249C33.878 28.3494 23.0983 48.8078 23.0585 65.954C23.0471 70.8001 23.9459 76.0285 26.4786 80.1606C26.5336 80.2503 26.5819 80.3469 26.638 80.4352C26.6509 80.4552 26.6614 80.4777 26.6743 80.4977L20.5751 76.9107C15.4184 73.8798 12.5908 67.4449 12.6095 58.7928C12.6264 51.9214 14.4403 44.311 17.8577 36.7853C18.056 36.3488 17.8628 35.8343 17.4271 35.6368C16.9898 35.4393 16.4778 35.6309 16.2778 36.0683C12.7587 43.816 10.8906 51.6731 10.8736 58.7894C10.8533 68.0831 13.986 75.0503 19.6936 78.4075C22.1054 79.8256 32.5482 85.9658 31.8784 85.5722C31.8825 85.5745 31.887 85.5733 31.891 85.5756C31.9051 85.5838 31.9169 85.5954 31.931 85.6035C38.3828 89.3616 46.1746 87.4855 52.6408 83.7965C59.3638 79.9595 65.914 73.4619 71.0859 65.4997C71.361 65.0781 71.2191 64.5199 70.7892 64.2733L50.7744 52.83L50.7815 49.7013L54.9852 52.1783C55.0095 52.1927 55.0387 52.188 55.064 52.1998C55.0726 52.2038 55.0765 52.2134 55.0852 52.2172L74.0609 60.5617C74.4826 60.7474 74.9708 60.571 75.1814 60.1659C81.9592 47.0429 82.0851 36.5591 82.0536 36.7328C82.0545 36.5565 81.9486 36.1927 81.6456 35.9996C81.4718 35.8888 77.6719 33.6515 77.846 33.7655L81.7027 31.565C81.9418 31.4285 82.1253 31.1218 82.1266 30.8122ZM80.3686 30.3276C77.8954 31.738 89.3117 25.2274 56.2498 44.0824L56.3142 15.4258C61.4962 13.084 67.5803 12.1438 72.5319 15.0736C77.0427 17.7393 79.8143 23.1443 80.3686 30.3276ZM44.1209 9.20158L54.5733 15.3516L54.5089 44.0652C54.3341 43.9624 50.5714 41.7497 50.81 41.8901L50.8609 17.9647C50.8609 17.6571 50.6982 17.3714 50.4337 17.2155L44.109 13.4929L44.1209 9.20158ZM60.3216 7.89376L66.5039 11.5282C63.5432 11.357 59.4055 12.0894 55.4955 13.8709L45.1651 7.79629C50.8999 5.46714 56.2346 5.48917 60.3216 7.89376ZM69.1246 65.3209C64.1849 72.705 58.0518 78.7101 51.7797 82.2895C44.5837 86.3935 37.8437 87.0376 32.804 84.1033C26.7781 80.5952 24.779 73.0728 24.7943 65.9574C24.8322 49.7971 35.2386 29.7471 49.1148 19.6692L49.0369 53.331C49.0369 53.6429 49.203 53.9311 49.4742 54.0862L69.1246 65.3209ZM74.0084 58.6428L57.3646 51.3234C59.6993 49.9911 48.9088 56.1485 80.1889 38.2991C79.5482 44.8467 77.4292 51.8307 74.0084 58.6428ZM76.1121 34.7621L79.4515 36.7183C76.9854 38.1257 88.349 31.641 55.4307 50.426L50.7862 47.6895L50.7949 43.8964C51.0235 44.0308 55.2073 46.4911 54.9401 46.334C54.9397 46.3337 54.9405 46.3342 54.9401 46.334C55.1991 46.4845 55.53 46.4974 55.8091 46.3384C57.885 45.1547 48.2887 50.6263 76.1121 34.7621Z" fill="black"/>
<path d="M20.482 31.6041C21.3347 30.0818 22.2586 28.5714 23.2265 27.1153C23.4927 26.7169 23.3842 26.1779 22.9858 25.9126C22.5857 25.6464 22.0484 25.7524 21.7822 26.1541C20.7889 27.6467 19.8413 29.1953 18.9666 30.7565C18.7326 31.1744 18.8818 31.7033 19.3005 31.9372C19.7147 32.1705 20.2458 32.0251 20.482 31.6041Z" fill="black"/>
</svg>
