<svg width="93" height="92" viewBox="0 0 93 92" fill="none" xmlns="http://www.w3.org/2000/svg">
<path d="M22.759 82.7609C22.9347 82.863 31.1671 87.6457 30.9914 87.5436C30.9909 87.5434 30.9918 87.5438 30.9914 87.5436C31.2697 87.7021 31.5995 87.6938 31.8587 87.5429L70.4084 65.2854C70.6779 65.1311 70.8441 64.843 70.8424 64.5328L70.7035 15.507C70.7043 15.4916 70.7151 15.4791 70.7152 15.4637C70.7169 15.1551 70.5559 14.8695 70.2897 14.7119C57.1059 6.90005 52.6991 4.38308 52.8262 4.45695C52.5617 4.30184 52.2278 4.301 51.9565 4.45526L22.5912 21.4094C22.3198 21.5666 22.1572 21.8556 22.1572 22.1604C22.1572 22.161 22.1577 22.1615 22.1577 22.1621C22.1577 22.1627 22.1572 22.1632 22.1572 22.1638L22.2759 63.9954C22.2776 64.4751 22.6658 64.8616 23.1438 64.8616C23.6235 64.8599 24.0134 64.47 24.0117 63.992L23.8982 23.6719C24.0723 23.7731 30.7889 27.6767 30.3886 27.444C30.4271 41.0862 30.5122 71.2703 30.5517 85.2816L24.0609 81.5098L24.0456 75.6005C24.0439 75.1208 23.6558 74.7343 23.1777 74.7343C22.698 74.736 22.3081 75.1258 22.3098 75.6039L22.3267 82.0116C22.3267 82.3201 22.4912 82.6049 22.759 82.7609ZM32.2884 85.2912C32.2593 75.0161 32.1585 39.349 32.1248 27.4444L59.756 11.4915L59.7831 20.7831C59.7848 21.0925 59.9492 21.3781 60.2188 21.5332C60.4866 21.6875 60.8172 21.6866 61.085 21.5323L68.9726 16.9783L69.1048 64.0344L32.2884 85.2912ZM68.1284 15.4484L61.5156 19.2658C61.5151 19.0876 61.4921 11.0134 61.4935 11.5156L68.1284 15.4484ZM52.3888 6.20975L58.8893 9.98711L31.2563 25.9412L24.7559 22.1638L52.3888 6.20975Z" fill="black"/>
<path d="M23.1691 73.0526C23.6488 73.0509 24.037 72.661 24.0353 72.183L24.0235 67.8976C24.0218 67.4179 23.6336 67.0314 23.1555 67.0314C22.6758 67.0331 22.2859 67.423 22.2876 67.901L22.2995 72.1864C22.3012 72.6661 22.6911 73.0526 23.1691 73.0526Z" fill="black"/>
<path d="M53.0872 23.6174L56.8335 21.4552C57.2488 21.2153 57.3912 20.6848 57.1505 20.2694C56.9115 19.8541 56.3826 19.7117 55.9656 19.9516L52.2193 22.1138C51.8039 22.3536 51.6615 22.8842 51.9023 23.2995C52.1396 23.7136 52.6698 23.857 53.0872 23.6174Z" fill="black"/>
<path d="M65.0417 25.5185L55.0283 31.2999C54.613 31.5398 54.4706 32.0704 54.7113 32.4857C54.9476 32.8992 55.4785 33.0433 55.8963 32.8035L65.9096 27.0222C66.3249 26.7823 66.4673 26.2517 66.2266 25.8364C65.9876 25.4185 65.4553 25.2795 65.0417 25.5185Z" fill="black"/>
<path d="M65.0414 36.3252L57.8369 40.4852C57.4216 40.725 57.2792 41.2556 57.5199 41.6709C57.7562 42.0844 58.2871 42.2286 58.7049 41.9888L65.9093 37.8288C66.3246 37.589 66.467 37.0584 66.2263 36.6431C65.9873 36.2261 65.455 36.0871 65.0414 36.3252Z" fill="black"/>
<path d="M65.0416 47.1336L55.6724 52.5429C55.2571 52.7819 55.1147 53.3125 55.3554 53.7278C55.5931 54.1426 56.1257 54.2854 56.5403 54.0448L65.9095 48.6355C66.3248 48.3965 66.4672 47.8659 66.2265 47.4506C65.9875 47.0353 65.4552 46.8912 65.0416 47.1336Z" fill="black"/>
<path d="M65.0416 57.9402L34.9253 75.3275C34.51 75.5666 34.3676 76.0971 34.6083 76.5125C34.8461 76.9273 35.3786 77.07 35.7932 76.8295L65.9095 59.4421C66.3249 59.2031 66.4672 58.6725 66.2265 58.2572C65.9875 57.8402 65.4552 57.6995 65.0416 57.9402Z" fill="black"/>
<path d="M44.9268 43.0194C46.6237 42.0387 47.9493 39.7502 47.9425 37.8076C47.9354 35.4963 46.049 34.4142 44.0419 35.5776C42.3519 36.554 41.0313 38.8467 41.0381 40.7962C41.0452 43.0956 42.9286 44.1729 44.9268 43.0194ZM44.9099 37.0812C45.697 36.6266 46.2029 36.7885 46.2067 37.8127C46.2101 39.1451 45.2269 40.8411 44.0589 41.5158C43.2301 41.9936 42.7776 41.7567 42.774 40.7911C42.7706 39.451 43.7487 37.7525 44.9099 37.0812Z" fill="black"/>
<path d="M35.761 62.1528C36.0034 62.1528 36.2425 62.0511 36.4103 61.8612L39.5079 58.3775C39.6132 58.4993 39.7344 58.5847 39.8463 58.6919L39.0734 62.8495C38.8577 64.0552 39.7968 64.8076 40.777 64.4412C42.4557 63.7795 43.3162 63.279 44.1453 62.8321V64.8888C44.1453 65.3685 44.5335 65.7567 45.0132 65.7567C45.493 65.7567 45.8812 65.3685 45.8812 64.8888V61.8366C46.8154 61.2651 47.5874 60.8257 49.2122 59.5744C49.8834 59.0523 50.2462 58.125 50.0581 57.4216L49.2074 54.129C49.5222 53.4984 49.8094 52.8263 50.0724 52.1213L53.3297 52.0242C53.8044 52.0089 54.179 51.619 54.1722 51.1444L54.0739 43.5297C54.0688 43.1635 53.8349 42.8397 53.4874 42.7202L51.811 42.1448C51.8238 39.187 51.5706 36.8171 51.1414 34.545C50.3006 30.0903 47.918 23.2208 44.0131 25.4736C40.2615 27.64 38.2702 37.8928 37.685 42.2253C37.2117 45.7201 37.1866 47.7069 37.2015 49.9341L35.0948 53.0989C35.0016 53.2396 34.9507 53.4057 34.949 53.5735L34.8931 61.2781C34.8886 61.7618 35.2804 62.1528 35.761 62.1528ZM48.4883 31.149C50.0517 35.8506 50.544 42.211 49.5435 47.5089C49.5288 47.5867 49.5109 47.6616 49.4957 47.7391C46.6977 50.1795 42.7239 52.1166 39.3373 53.6434C39.322 53.568 39.3128 53.4818 39.2984 53.405C38.3173 48.1672 39.4613 40.4122 40.8041 35.3675C43.7442 34.6058 46.2779 33.1615 48.4883 31.149ZM39.7902 55.3443C41.8425 54.4247 44.2026 53.2948 46.1575 52.1665C47.7701 51.2358 48.6297 50.5973 48.8054 50.481C48.4408 51.6336 48.0881 52.5748 47.4831 53.7193C46.5135 55.5501 45.3455 56.8944 44.1046 57.6097C41.9818 58.8274 40.6177 57.6675 39.7902 55.3443ZM48.1493 58.2013C45.8248 59.9992 43.1742 61.5324 40.9008 62.5121L41.428 59.6829C42.6237 60.0455 43.9914 59.6802 44.9726 59.1133C45.8542 58.604 47.0167 57.5837 47.9645 56.2502L48.3714 57.8165C48.3697 57.8911 48.2815 58.0979 48.1493 58.2013ZM52.4262 50.3137L50.6666 50.3663C50.6932 50.2738 50.7059 50.1714 50.7317 50.0782C51.2633 48.1515 51.5558 46.2698 51.7003 44.3472C51.7103 44.2146 51.7363 44.0919 51.7447 43.9586L52.3465 44.1637L52.4262 50.3137ZM44.881 26.9772C45.0844 26.8603 45.2692 26.8018 45.454 26.8018C46.4477 26.8018 47.3727 28.4637 47.7947 29.3776C46.5165 30.6236 45.3928 31.4534 44.3233 32.0704C43.3041 32.6585 42.4322 32.9971 41.3932 33.3424C42.434 30.0971 43.6784 27.6705 44.881 26.9772ZM36.6832 53.8465L37.4172 52.7429C37.5851 53.9989 37.9518 55.6322 38.536 56.8571L36.6459 58.9845L36.6832 53.8465Z" fill="black"/>
</svg>
