<svg width="93" height="92" viewBox="0 0 93 92" fill="none" xmlns="http://www.w3.org/2000/svg">
<path d="M73.5958 70.8383L71.1827 72.1758C70.7632 72.4089 70.6114 72.9369 70.8437 73.3557C71.0763 73.776 71.6062 73.9259 72.0235 73.6947L74.4366 72.3572C74.8561 72.1241 75.0078 71.5961 74.7756 71.1774C74.5434 70.757 74.0145 70.6078 73.5958 70.8383Z" fill="black"/>
<path d="M75.7615 70.6298C75.9937 71.0502 76.5235 71.2019 76.9413 70.9688L82.7422 67.754C83.1659 67.5192 83.3164 66.9831 83.0736 66.5614L76.1922 54.6116C76.1917 54.6107 76.1918 54.6096 76.1912 54.6088C76.1907 54.608 76.1898 54.6074 76.1893 54.6066L68.3286 40.9563C68.3284 40.9558 68.3288 40.9567 68.3286 40.9563C68.3284 40.9558 68.3276 40.9546 68.3274 40.9541L60.4704 27.3103C46.4534 2.99066 47.6257 4.97633 47.4442 4.71373C47.0614 4.17086 46.3066 4.2594 46.0042 4.76056C45.6844 5.29043 10.0528 66.3502 9.92892 66.5648C9.68265 66.9835 9.83167 67.5273 10.2595 67.7624L46.191 87.5484C46.451 87.6919 46.768 87.6922 47.0301 87.5475L68.8122 75.4746C69.2317 75.2415 69.3834 74.7135 69.1512 74.2947C68.919 73.8743 68.3909 73.7243 67.9714 73.9557L47.4802 85.3133L47.5011 72.092L75.1188 56.2258L81.1292 66.6631L76.1005 69.45C75.681 69.6822 75.5293 70.2111 75.7615 70.6298ZM25.9889 42.4888L45.7937 53.9356L45.7682 70.104L18.9211 54.5998L25.9889 42.4888ZM33.9386 28.8666L45.8224 35.7365L45.7968 51.9322L26.8639 40.9893L33.9386 28.8666ZM47.6014 8.44097L58.5348 27.4272L47.5615 33.7733L47.6014 8.44097ZM45.8256 33.7314L34.8137 27.367L45.8656 8.42911L45.8256 33.7314ZM47.5583 35.7805L59.4009 28.9312L66.3909 41.0696L47.5329 51.9274L47.5583 35.7805ZM18.046 56.0993L45.765 72.1069L45.7442 85.3208L11.8767 66.6707L18.046 56.0993ZM47.5043 70.0879L47.5297 53.9318L67.2569 42.5733L74.2525 54.7214L47.5043 70.0879Z" fill="black"/>
</svg>
