<svg width="93" height="92" viewBox="0 0 93 92" fill="none" xmlns="http://www.w3.org/2000/svg">
<path d="M4.87629 67.9121C4.87714 68.2206 5.04157 68.5054 5.30771 68.6597L36.2691 86.6522C36.4047 86.731 36.5547 86.77 36.7056 86.77L36.7105 86.7686L36.7123 86.7691C36.8624 86.7691 37.0124 86.7301 37.1463 86.653L56.7721 75.3197C57.1349 78.6123 58.5178 81.0976 60.7574 82.4024L65.9819 85.3876C65.988 85.3912 65.9953 85.3894 66.0015 85.3928C66.0081 85.3965 66.0135 85.4016 66.02 85.4054C74.7827 90.3674 88.2825 75.0918 88.1598 62.3689C88.1202 58.3193 86.6799 55.2773 84.1078 53.7875C84.0972 53.7808 84.0914 53.7698 84.0803 53.7634L78.8414 50.7621C78.1568 50.3669 77.3965 50.1462 76.6191 50.0171V37.4217C76.6371 37.3622 76.6374 37.3006 76.6424 37.2383C76.6444 37.214 76.6607 37.194 76.6606 37.1694L76.6242 24.0878C76.6239 24.0223 76.5888 23.9666 76.5744 23.9041C76.5549 23.8197 76.5502 23.7304 76.5072 23.6562C76.4679 23.5881 76.3977 23.5447 76.3411 23.4892C76.2904 23.4399 76.2553 23.3766 76.1927 23.3403L76.1907 23.3391L76.1893 23.3377L76.1875 23.3372L59.2555 13.4973C58.841 13.2574 58.3096 13.3973 58.0689 13.8109C57.8273 14.2254 57.9689 14.7568 58.3825 14.9975L74.0245 24.0878L36.6704 45.6542L7.43938 28.6673L44.7932 7.1006L50.316 10.3104C50.7297 10.5511 51.2611 10.4113 51.5027 9.99679C51.7442 9.58232 51.6027 9.05088 51.189 8.81017L45.2314 5.3478C44.961 5.19099 44.6296 5.19099 44.3609 5.3461L5.27381 27.913C5.13968 27.9906 5.0315 28.101 4.9566 28.2308C4.921 28.2926 4.92058 28.3681 4.90098 28.4372C4.87936 28.5131 4.84006 28.5828 4.83984 28.6639L4.84027 28.6656L4.83984 28.6673C4.84583 32.9907 4.87292 63.589 4.87629 67.9121ZM35.8026 47.1571C35.8031 47.3446 35.8339 58.4066 35.8334 58.2284L6.61044 41.246L6.57993 30.1754C11.5269 33.0502 29.1172 43.2722 35.8026 47.1571ZM74.8832 49.8535C74.868 49.8543 74.8532 49.8557 74.8382 49.8576L74.8298 49.8577C72.7028 49.8925 69.8369 51.1393 68.1678 52.3734C66.9168 53.2133 65.7158 54.2431 64.6181 55.4137C64.4817 55.5501 64.3444 55.7027 64.2079 55.8561C61.4848 57.4347 74.0725 50.1374 37.576 71.2951L37.5472 60.2553L74.8832 38.6994V49.8535ZM74.8925 25.5915L74.923 36.6507L49.8254 51.1412C49.8111 51.1484 49.796 51.1538 49.7821 51.1622L45.253 53.7811L37.5692 58.2175C37.5686 58.0031 37.5373 46.6371 37.5387 47.1576L65.6766 30.9123L74.8925 25.5915ZM35.8029 60.2389L35.8334 71.3101L6.61044 54.3279L6.57993 43.257C11.527 46.1318 29.1174 56.3539 35.8029 60.2389ZM6.61044 67.4095L6.57993 56.3384L35.8029 73.3205L35.8334 84.3917L6.61044 67.4095ZM37.5472 73.3331L61.2717 59.633C60.0853 61.45 58.8715 63.8561 58.0864 66.0923C57.4418 64.8978 56.1067 64.7671 54.932 65.4473C53.4597 66.2975 52.3104 68.2833 52.3155 69.97C52.3226 72.0179 54.0145 72.9986 55.8143 71.9593C56.1916 71.7413 56.5442 71.4523 56.8615 71.1161C56.8311 71.3483 56.7982 71.5797 56.776 71.8095C56.7238 72.3351 56.6869 72.8569 56.6771 73.3697L37.576 84.4001L37.5472 73.3331ZM55.7999 66.9509C56.4393 66.5814 56.6731 66.7799 56.6746 67.4527C56.6771 68.5385 55.8855 69.9132 54.9464 70.4557C54.3512 70.7984 54.053 70.7128 54.0513 69.965C54.0479 68.8987 54.865 67.49 55.7999 66.9509ZM86.4239 62.3859C86.5396 74.3372 73.9388 87.8907 66.8753 83.895C64.4656 82.5304 63.6709 79.5148 63.6443 76.7465C63.5988 72.0566 65.6253 66.7013 68.7398 62.4071C70.6172 59.8217 72.8886 57.6218 75.3401 56.1858C77.6052 54.8572 80.384 53.9789 82.7851 55.072C85.495 56.2938 86.3951 59.3985 86.4239 62.3859ZM79.1457 52.937C79.047 52.9516 78.9448 52.9811 78.8453 52.9989C77.3399 53.2667 75.7388 53.9326 74.4637 54.6805C71.9357 56.1629 69.5923 58.4081 67.6257 61.0435C64.1436 65.7049 61.853 71.6045 61.8991 76.7651C61.9242 78.608 62.2861 80.3472 62.7772 81.5573L61.6245 80.8988C57.565 78.5347 58.0224 71.9417 59.4322 67.4727C59.4369 67.458 59.4393 67.4435 59.444 67.4288C61.0734 62.2956 64.6936 56.8064 69.1565 53.8003C71.6934 52.0265 75.3308 50.743 77.976 52.2666L79.1457 52.937Z" fill="black"/>
<path d="M48.4837 71.4127L40.2376 76.1727C39.8223 76.4125 39.6799 76.9431 39.9197 77.3585C40.1602 77.7749 40.6924 77.9149 41.1055 77.6763L49.3516 72.9163C49.7669 72.6764 49.9093 72.1458 49.6695 71.7305C49.4296 71.3135 48.8965 71.1728 48.4837 71.4127Z" fill="black"/>
<path d="M70.0615 50.6519C71.5227 49.8077 72.6627 47.8269 72.6576 46.1411C72.6522 44.083 70.9388 43.121 69.18 44.1399C67.7077 44.9892 66.5584 46.9759 66.5635 48.6618C66.5689 50.7212 68.2719 51.6853 70.0615 50.6519ZM70.0479 45.6435C70.6971 45.267 70.9204 45.4959 70.9218 46.1462C70.9252 47.2124 70.1174 48.6152 69.1935 49.1483C68.5973 49.4918 68.3011 49.4043 68.2993 48.6575C68.296 47.5913 69.113 46.1826 70.0479 45.6435Z" fill="black"/>
<path d="M62.933 54.7678C64.4171 53.91 65.5334 51.9708 65.5291 50.2569C65.522 48.1988 63.8232 47.2338 62.0507 48.2558C60.5835 49.1025 59.4393 51.0859 59.4444 52.7726C59.4515 54.8302 61.1419 55.8026 62.933 54.7678ZM62.9186 49.7594C63.5626 49.3886 63.7918 49.5913 63.7933 50.2612C63.7958 51.3461 63.0042 52.7217 62.0651 53.2642C61.4524 53.6169 61.1819 53.4944 61.1802 52.7675C61.1768 51.7012 61.9888 50.2951 62.9186 49.7594Z" fill="black"/>
<path d="M55.8143 58.8777C57.2984 58.0199 58.4146 56.0815 58.4104 54.3669C58.4033 52.3158 56.7129 51.3406 54.9319 52.3657C53.4597 53.2158 52.3104 55.2017 52.3154 56.8884C52.3226 58.9394 54.0164 59.9141 55.8143 58.8777ZM55.7999 53.8693C56.4439 53.4985 56.673 53.7013 56.6746 54.3711C56.6771 55.4569 55.8855 56.8316 54.9463 57.3741C54.3444 57.7222 54.053 57.6226 54.0513 56.8833C54.0479 55.8171 54.865 54.4084 55.7999 53.8693Z" fill="black"/>
<path d="M39.9197 64.2768C40.1602 64.6933 40.6924 64.8333 41.1055 64.5947L49.3516 59.8347C49.7669 59.5948 49.9093 59.0642 49.6695 58.6489C49.4296 58.2327 48.8965 58.092 48.4837 58.331L40.2376 63.0911C39.8223 63.3309 39.6799 63.8615 39.9197 64.2768Z" fill="black"/>
<path d="M53.7725 10.3121C53.3605 10.0705 52.8283 10.2096 52.5867 10.6266C52.3451 11.041 52.4867 11.5716 52.9011 11.8123L55.4948 13.3193C55.6312 13.399 55.7812 13.4371 55.9296 13.4371C56.2288 13.4371 56.5195 13.2829 56.6805 13.0049C56.9221 12.5904 56.7805 12.0598 56.3661 11.8191L53.7725 10.3121Z" fill="black"/>
<path d="M70.0615 37.5703C71.5227 36.7261 72.6627 34.7445 72.6576 33.0586C72.6523 31.0138 70.9529 30.034 69.18 31.0575C67.7077 31.9085 66.5584 33.8952 66.5635 35.5802C66.5689 37.6396 68.2719 38.6037 70.0615 37.5703ZM70.0479 32.5611C70.6199 32.2304 70.9202 32.3258 70.9218 33.0637C70.9252 34.13 70.1174 35.5336 69.1935 36.0667C68.5844 36.4161 68.301 36.3095 68.2993 35.576C68.296 34.5097 69.113 33.101 70.0479 32.5611Z" fill="black"/>
<path d="M62.933 41.6861C64.4171 40.8284 65.5334 38.8891 65.5291 37.1745C65.5221 35.1319 63.836 34.1442 62.0507 35.1733C60.5844 36.0209 59.4393 38.0051 59.4444 39.6909C59.4515 41.7486 61.1419 42.7209 62.933 41.6861ZM62.9186 36.6769C63.5038 36.3395 63.7916 36.4461 63.7933 37.1787C63.7958 38.2645 63.0042 39.6401 62.0651 40.1825C61.475 40.5239 61.1819 40.4375 61.1802 39.6859C61.1768 38.6009 61.9727 37.2236 62.9186 36.6769Z" fill="black"/>
<path d="M55.8143 45.7961C57.2984 44.9383 58.4146 42.9991 58.4104 41.2844C58.4033 39.2419 56.7191 38.2556 54.9319 39.2833C53.4597 40.1342 52.3104 42.121 52.3154 43.8068C52.3226 45.8627 54.0203 46.8302 55.8143 45.7961ZM55.7999 40.7869C56.416 40.4299 56.673 40.5934 56.6746 41.2886C56.6771 42.3744 55.8855 43.75 54.9463 44.2925C54.353 44.6341 54.053 44.5518 54.0513 43.8017C54.0479 42.7355 54.865 41.3268 55.7999 40.7869Z" fill="black"/>
<path d="M39.9197 51.1952C40.0808 51.474 40.3723 51.6291 40.6724 51.6291C40.8199 51.6291 40.969 51.5919 41.1055 51.513L49.3516 46.7522C49.7669 46.5123 49.9093 45.9817 49.6695 45.5664C49.4296 45.1502 48.8965 45.0078 48.4837 45.2485L40.2376 50.0094C39.8223 50.2493 39.6799 50.7799 39.9197 51.1952Z" fill="black"/>
<path d="M78.1525 68.1723C78.7814 67.0399 79.1348 65.7923 79.1314 64.6964C79.1244 61.9816 76.9617 60.7283 74.5731 62.107C72.5084 63.2987 70.8972 66.0847 70.9039 68.4495C70.9073 69.5335 71.2498 70.4158 71.8643 70.971L70.5717 76.5481C70.4937 76.8846 70.6234 77.2355 70.9014 77.4415C71.1842 77.6504 71.558 77.6655 71.8515 77.4957L79.084 73.3197C79.4374 73.1154 79.601 72.6916 79.4764 72.3026L78.1525 68.1723ZM72.7144 74.9928L73.6899 70.7837C73.7832 70.3811 73.5789 69.9683 73.2026 69.7971C72.8525 69.6386 72.6423 69.1326 72.6398 68.4444C72.6347 66.7034 73.9179 64.4904 75.441 63.6106C76.6173 62.9304 77.3919 63.2819 77.3956 64.7014C77.3981 65.5973 77.0608 66.6577 76.47 67.6103C76.3361 67.8265 76.303 68.0909 76.381 68.3333L77.61 72.1661L72.7144 74.9928Z" fill="black"/>
</svg>
