<svg width="93" height="92" viewBox="0 0 93 92" fill="none" xmlns="http://www.w3.org/2000/svg">
<path d="M18.9172 65.3555C19.396 65.3538 19.7834 64.9656 19.7825 64.4859L19.7749 61.3753C19.7741 60.8955 19.385 60.509 18.907 60.509H18.9044C18.4256 60.5107 18.0382 60.8989 18.0391 61.3787L18.0467 64.4893C18.0475 64.969 18.4366 65.3555 18.9146 65.3555H18.9172Z" fill="black"/>
<path d="M71.0106 52.4383C73.2686 51.1348 75.0315 48.0801 75.0239 45.4848L74.9392 10.8729C74.935 9.49313 74.4285 8.43926 73.5265 7.87318C73.5029 7.85613 73.4883 7.83144 73.4627 7.8165L68.1009 4.6974C67.1329 4.13969 65.9132 4.22953 64.6749 4.95337L21.9788 29.5943C19.72 30.9114 17.9613 33.9695 17.9757 36.5529L18.0308 58.1968C18.0316 58.6765 18.4207 59.063 18.8987 59.063C18.8995 59.063 18.9004 59.063 18.9012 59.063C19.3801 59.0613 19.7675 58.6715 19.7666 58.1934L19.7115 36.5462C19.7005 34.5899 21.1397 32.093 22.8501 31.0945L65.5462 6.45359C66.2277 6.05692 66.8278 5.96369 67.2312 6.20101L70.2342 7.94703C70.1673 7.98263 70.1003 8.01823 70.0333 8.05721L27.3415 32.7083C24.998 34.0605 23.3232 37.2209 23.3307 39.672L23.3646 53.5137L23.4104 74.2873C23.4112 74.3466 23.4129 74.406 23.4155 74.4653L20.4006 72.7125C20.0192 72.4955 19.8005 71.9344 19.8005 71.1716L19.7912 67.6423C19.7903 67.1625 19.4013 66.776 18.9233 66.776C18.9224 66.776 18.9216 66.776 18.9207 66.776C18.4418 66.7777 18.0545 67.1676 18.0553 67.6457L18.0647 71.1733C18.0647 72.5955 18.5893 73.6787 19.5344 74.2178L24.8936 77.3335C24.8959 77.3348 24.8984 77.3342 24.9006 77.3354C24.9021 77.3363 24.9032 77.3378 24.9047 77.3386C25.9872 77.9603 27.2396 77.7103 28.3204 77.086L29.6024 76.3459C29.7562 76.6002 29.9735 76.8619 30.3283 77.1132C30.5029 77.2362 44.3379 87.0027 44.5118 87.1045C45.7994 87.8327 47.7918 87.852 49.1014 87.1502C50.537 86.5573 55.5728 83.3967 63.9248 78.5354C64.6893 78.0777 65.1275 77.4013 65.1275 76.6826C65.138 73.8422 65.1349 74.6933 65.1453 71.8717C65.1453 71.1394 64.7182 70.4817 63.9418 70.0172C63.8311 69.946 61.5431 68.8705 55.5716 66.0257L55.5589 61.3597L71.0106 52.4383ZM53.8259 62.3771L53.8547 73.1193L48.0411 76.4769C48.0405 76.2987 48.0032 65.0524 48.0055 65.7403C48.2004 65.6277 54.0001 62.2764 53.8259 62.3771ZM46.2985 76.4707L44.5143 75.4299L44.4991 67.7745L46.2655 66.7494C46.2661 66.9277 46.3006 77.107 46.2985 76.4707ZM27.4533 75.5824C26.0034 76.426 25.1565 75.8253 25.1513 74.2788L25.1006 53.5422L25.0699 39.6636C25.0594 37.813 26.4441 35.2334 28.2119 34.2119L70.9021 9.56591C71.1035 9.4499 71.2979 9.36578 71.4843 9.30337C71.5253 9.28992 71.5637 9.28282 71.6037 9.27201C71.7383 9.23483 71.8659 9.21353 71.9873 9.20654C72.0382 9.20389 72.0882 9.20293 72.1364 9.20569C72.2895 9.21353 72.4308 9.2433 72.5507 9.30581C72.562 9.31164 72.5765 9.31206 72.5876 9.31831C72.976 9.54801 73.2008 10.1141 73.2033 10.878L73.2881 45.4898C73.294 47.4529 71.8531 49.9481 70.1427 50.9364C25.8509 76.5074 68.2449 52.0285 27.4533 75.5824ZM63.0433 77.0403C49.5463 84.8818 48.4423 85.4991 48.2683 85.628C47.4995 86.0314 46.2171 86.0348 45.4331 85.628C45.1958 85.4442 34.6704 78.0475 31.3285 75.6943C31.2039 75.6061 31.1344 75.535 31.0971 75.4875C31.2711 75.3867 33.3365 74.1896 33.1626 74.2904L44.1753 82.0207C45.024 82.8629 47.635 83.1705 49.1839 82.2845C49.1924 82.2796 49.204 82.2782 49.2125 82.2732L63.4019 74.0241L63.3917 76.6792C63.39 76.7097 63.3205 76.8741 63.0433 77.0403ZM63.0501 71.5055C63.312 71.6632 63.4095 71.8141 63.4095 71.8717C63.4095 71.9276 63.3171 72.0683 63.0594 72.2141C62.8843 72.3157 47.3686 81.3181 48.3403 80.7544C46.8561 81.597 45.4577 80.7403 45.2831 80.6916L34.8201 73.3334L42.7652 68.7461L42.7793 75.9316C42.7802 76.2401 42.9438 76.5249 43.2108 76.6792C43.465 76.8273 46.9572 78.8621 46.7345 78.7324C46.7357 78.7331 46.7363 78.7347 46.7375 78.7354C47.0123 78.8919 47.3497 78.8802 47.6038 78.7354C47.6032 78.7357 47.6043 78.7351 47.6038 78.7354C47.6063 78.7339 47.6106 78.7335 47.6131 78.732L55.1642 74.3755C55.4337 74.2212 55.599 73.933 55.5982 73.6228L55.5838 67.9542L63.0501 71.5055Z" fill="black"/>
<path d="M70.1238 44.7592C70.3933 44.6049 70.5586 44.3168 70.5578 44.0066L70.473 14.4785C70.4722 14.1683 70.306 13.8818 70.0382 13.7275C69.7695 13.575 69.4381 13.5733 69.1711 13.7292L28.2304 37.3666C27.9608 37.5209 27.7955 37.809 27.7964 38.1192L27.8811 67.6456C27.8824 68.1203 28.2654 68.5119 28.7491 68.5119C28.8991 68.5119 29.0491 68.4729 29.183 68.3949L70.1238 44.7592ZM68.7414 15.9804L68.8202 43.5082L29.6128 66.1437L29.5339 38.6176L68.7414 15.9804Z" fill="black"/>
<path d="M50.0119 58.5562L47.5598 59.9717C47.1445 60.2107 47.0021 60.7413 47.242 61.1566C47.4837 61.5738 48.0173 61.7132 48.4278 61.4736L50.8798 60.0581C51.2951 59.8191 51.4375 59.2885 51.1977 58.8732C50.9561 58.4579 50.4247 58.3138 50.0119 58.5562Z" fill="black"/>
<path d="M33.4737 42.9573L65.7488 24.3223C66.1641 24.0833 66.3065 23.5527 66.0666 23.1374C65.8259 22.7221 65.2928 22.5763 64.8808 22.8204L32.6057 41.4553C32.1904 41.6944 32.048 42.2249 32.2879 42.6403C32.5296 43.0575 33.0632 43.1969 33.4737 42.9573Z" fill="black"/>
<path d="M37.1083 51.0619C34.8147 52.3875 33.0246 55.4897 33.0323 58.1239L33.0331 58.5562C33.0344 59.0303 33.4174 59.4224 33.901 59.4224C34.051 59.4224 34.2011 59.3835 34.335 59.3055L41.6437 55.0845C41.9124 54.9303 42.0785 54.6421 42.0777 54.3319L42.0768 53.9013C42.0681 50.9294 39.7334 49.5482 37.1083 51.0619ZM34.9071 56.9712C35.3131 55.232 36.5531 53.3877 37.9762 52.5638C39.3468 51.7744 40.3047 52.188 40.3401 53.8335L34.9071 56.9712Z" fill="black"/>
<path d="M37.9695 49.443C39.2654 48.6954 40.2766 46.946 40.2723 45.4594C40.267 43.5839 38.6861 42.7108 37.0897 43.6371C35.7971 44.3846 34.7868 46.1357 34.791 47.6241C34.7964 49.4921 36.3731 50.366 37.9695 49.443ZM37.9576 45.139C38.4055 44.8815 38.5351 44.9521 38.5365 45.4627C38.539 46.3408 37.8686 47.4969 37.1015 47.9394C36.6412 48.2085 36.5282 48.1013 36.5269 47.6207C36.5243 46.7409 37.1931 45.5831 37.9576 45.139Z" fill="black"/>
<path d="M48.7312 44.3524C46.4368 45.6764 44.6467 48.7768 44.6543 51.4145L44.656 51.8468C44.6573 52.3284 45.0498 52.7113 45.5239 52.7113C45.674 52.7113 45.824 52.6723 45.9579 52.5943L53.2666 48.3751C53.5361 48.2208 53.7014 47.9326 53.7006 47.6207L53.6989 47.1901C53.6918 44.1978 51.3338 42.8437 48.7312 44.3524ZM46.5292 50.2601C46.9343 48.5209 48.1752 46.6765 49.5991 45.8544C50.985 45.0578 51.9289 45.4905 51.9622 47.124L46.5292 50.2601Z" fill="black"/>
<path d="M49.5912 42.7335C50.8871 41.9859 51.8991 40.2348 51.8949 38.7482C51.8895 36.8808 50.3142 35.9976 48.7114 36.9276C47.4188 37.6734 46.4093 39.4245 46.4136 40.9146C46.4189 42.7735 47.9893 43.6616 49.5912 42.7335ZM49.5793 38.4312C50.0415 38.1665 50.1577 38.2582 50.1591 38.7516C50.1616 39.6296 49.4903 40.7874 48.7232 41.2299C48.2971 41.4762 48.151 41.4338 48.1494 40.9112C48.1469 40.0297 48.8148 38.8702 49.5793 38.4312Z" fill="black"/>
<path d="M60.3529 37.6412C58.0593 38.9635 56.2693 42.0673 56.2769 44.7033L56.2777 45.1339C56.2786 45.4441 56.4439 45.7289 56.7125 45.8848C56.9817 46.0381 57.3112 46.0394 57.5796 45.8831L64.8883 41.6639C65.157 41.5096 65.3231 41.2214 65.3223 40.9112L65.3214 40.4806C65.3127 37.5173 62.9895 36.122 60.3529 37.6412ZM58.1526 43.5489C58.5577 41.8097 59.7977 39.9653 61.2208 39.1432C62.6062 38.3442 63.5497 38.7818 63.5847 40.4128L58.1526 43.5489Z" fill="black"/>
<path d="M61.2141 36.0224C62.51 35.2748 63.5212 33.5254 63.517 32.0387C63.5116 30.1725 61.9345 29.2829 60.3335 30.2164C59.0409 30.9623 58.0314 32.7134 58.0357 34.2035C58.041 36.0653 59.6141 36.9493 61.2141 36.0224ZM61.2014 31.72C61.6622 31.4556 61.7798 31.5445 61.7811 32.0421C61.7837 32.9202 61.1132 34.0763 60.3462 34.5188C59.9213 34.7692 59.773 34.7215 59.7715 34.2001C59.769 33.3186 60.4369 32.1591 61.2014 31.72Z" fill="black"/>
</svg>
