<svg width="93" height="92" viewBox="0 0 93 92" fill="none" xmlns="http://www.w3.org/2000/svg">
<path d="M43.5047 84.4291L48.8648 87.5448C49.368 87.8324 49.9746 87.5461 50.1286 87.0549L56.9152 65.5755C56.9985 65.0537 56.7823 64.6997 56.4931 64.5465C56.3187 64.4542 50.9989 61.3589 51.1728 61.4461C50.7965 61.2274 50.3193 61.3156 50.0515 61.6597L43.5293 69.9745L37.1385 69.2303C36.5047 69.1696 35.9659 69.8524 36.268 70.4701C36.2715 70.4775 36.2678 70.4859 36.2715 70.4932L43.1674 84.0714C43.2428 84.2206 43.3606 84.3444 43.5047 84.4291ZM39.15 72.3277L41.7502 73.8428C41.8597 74.0584 47.5538 85.27 47.1964 84.5662L44.599 83.056L39.15 72.3277ZM49.1133 84.5067L43.9142 74.2695L49.159 74.8803C49.4462 74.9097 49.8095 74.7281 49.9481 74.5514L53.819 69.6151L49.1133 84.5067ZM43.8124 71.7561C44.1065 71.7883 44.4091 71.6679 44.5956 71.4289L50.9507 63.326L54.7844 65.567L48.8776 73.0964L42.6854 72.3736L41.0731 71.4365L43.8124 71.7561Z" fill="black"/>
<path d="M36.2536 57.4743L41.5971 60.572C41.6088 60.5789 41.6188 60.5884 41.6307 60.5951C44.1496 62.0452 47.1599 61.3252 49.6564 59.8815C55.4547 56.5335 60.1571 48.3933 60.1385 41.7364C60.1283 38.3376 58.9239 35.7762 56.7464 34.5235C54.3719 33.1588 53.7603 32.7897 51.4067 31.423C49.1953 30.1449 46.3339 30.3941 43.3589 32.1214C37.5673 35.4609 32.8692 43.5977 32.8853 50.2597C32.8853 53.6534 34.0821 56.2148 36.2536 57.4743ZM58.4026 41.7398C58.4196 47.8441 54.1071 55.3079 48.7885 58.3796C43.771 61.2708 39.9932 59.0565 39.9779 53.3771C39.9602 47.3597 44.2274 39.8388 49.5979 36.7425C54.4689 33.9086 58.3864 35.9418 58.4026 41.7398ZM44.2285 33.6251C46.1726 32.494 48.587 31.8013 50.5354 32.9233L52.1746 33.8793C52.144 33.8854 52.1113 33.9008 52.0806 33.9073C50.9794 34.136 49.6919 34.6758 48.7232 35.2355C42.8391 38.6308 38.2237 46.8546 38.2395 53.3805C38.2396 53.4128 38.2461 53.4405 38.2465 53.4727C38.2564 54.5346 38.4287 55.8673 38.7753 56.9057C38.7781 56.9144 38.779 56.9249 38.7819 56.9336L37.1241 55.9724C35.5103 55.0367 34.6211 53.0076 34.6211 50.258C34.6067 44.1486 38.915 36.6865 44.2285 33.6251Z" fill="black"/>
<path d="M38.9597 17.3735L36.0949 26.4308C35.972 26.8173 36.1347 27.2377 36.4865 27.4428C37.0376 27.7629 34.4904 26.2825 41.8762 30.5737C42.2371 30.7649 42.6686 30.6746 42.9337 30.3662C43.0834 30.192 49.6694 21.8433 49.4969 22.0182L55.863 22.7675C56.1817 22.8116 56.4937 22.6658 56.6767 22.403C56.8598 22.1403 56.8835 21.7996 56.7386 21.5131L49.852 7.92973C49.8446 7.915 49.8278 7.9097 49.8197 7.89551C49.7458 7.7672 49.649 7.65087 49.5138 7.57205C49.5095 7.5695 49.5056 7.56728 49.5013 7.56484L44.1537 4.45803C43.9257 4.32581 43.6519 4.30377 43.4053 4.3987C43.1595 4.49532 42.9696 4.69535 42.8908 4.94793L41.327 9.89103C41.1821 10.347 41.4355 10.8352 41.8923 10.9793C42.3543 11.1234 42.8382 10.8708 42.9815 10.4131L44.219 6.50409L48.0407 8.72476L41.7805 28.5107L37.9596 26.2901L40.6142 17.8956C40.7591 17.4396 40.5057 16.9514 40.0489 16.8073C39.592 16.6649 39.1046 16.9158 38.9597 17.3735ZM49.2163 20.2383C48.9171 20.1926 48.6188 20.3248 48.4314 20.5638L44.5514 25.5067C44.6063 25.3331 49.4248 10.1036 49.2646 10.6098L54.4586 20.8554L49.2163 20.2383Z" fill="black"/>
<path d="M40.6151 15.8851C40.9838 15.8851 41.3253 15.6495 41.4423 15.2782L42.1873 12.9237C42.3323 12.4677 42.0788 11.9795 41.622 11.8354C41.1626 11.6947 40.6769 11.9439 40.5329 12.4015L39.7878 14.7561C39.6098 15.3163 40.0309 15.8851 40.6151 15.8851Z" fill="black"/>
<path d="M61.8949 25.988C62.0026 26.2728 62.443 26.7293 65.8713 31.2755L61.9411 41.0769C61.78 41.477 61.9377 41.9347 62.3098 42.1517L67.6563 45.2589C67.9465 45.4279 68.3025 45.4216 68.6161 45.1824C68.9422 44.9311 67.3407 46.5838 83.9655 28.4344C84.2874 28.0816 84.2796 27.3946 83.7448 27.0896L78.4003 23.9846C78.2528 23.8981 78.074 23.849 77.9112 23.8693L62.642 24.8152L62.6354 24.8179C62.0899 24.8562 61.6714 25.4203 61.8949 25.988ZM67.6657 31.4654C67.7801 31.1806 67.736 30.8585 67.5512 30.6161L66.0383 28.6293L67.4707 29.4619C67.6036 29.6369 71.4564 34.711 71.2187 34.398L67.6614 43.2535L63.8312 41.0278L67.6657 31.4654ZM73.0207 34.5878C73.1351 34.3048 73.091 33.981 72.9063 33.7386L69.7491 29.5903L69.7288 29.5634C69.9067 29.5523 81.9984 28.8014 81.2347 28.8489L70.6915 40.387L73.0207 34.5878ZM80.4107 27.1609C80.1265 27.1785 67.471 27.9631 68.264 27.914C68.0903 27.8128 65.4414 26.2697 65.6151 26.371L77.7561 25.6187L80.4107 27.1609Z" fill="black"/>
<path d="M30.7407 49.8731C30.7363 49.8703 30.731 49.8701 30.7264 49.8673C30.5525 49.7622 25.1807 46.6349 25.3544 46.7422C25.0026 46.5404 24.5542 46.6049 24.2779 46.9083L9.04433 63.5718C8.67182 63.9781 8.77033 64.6281 9.2486 64.9076L14.6087 68.0233C14.7452 68.1013 14.896 68.1402 15.0452 68.1402C15.063 68.1402 15.0808 68.1402 15.0995 68.1385L30.378 67.1859C30.6975 67.1655 30.9806 66.9723 31.1137 66.6807C31.2459 66.3891 31.2078 66.0484 31.0137 65.7924L27.1436 60.7239L31.084 50.9309C31.0651 50.7567 31.3396 50.2477 30.7407 49.8731ZM25.0874 48.595L28.9115 50.8172C28.706 51.042 16.7729 64.096 14.8765 66.1705L11.0523 63.9481L25.0874 48.595ZM25.3493 60.534C25.2349 60.8171 25.2789 61.1409 25.4645 61.385L28.6481 65.5551L17.1354 66.2722L27.6835 54.7332L25.3493 60.534Z" fill="black"/>
<path d="M48.7427 46.9812C46.2678 48.4102 44.3353 51.7565 44.3438 54.601L44.3446 55.0705C44.3459 55.5446 44.7289 55.9368 45.2125 55.9368C45.3626 55.9368 45.5126 55.8978 45.6465 55.8198L53.6028 51.2276C53.8723 51.0733 54.0376 50.7852 54.0367 50.4732L54.035 50.0054C54.0262 46.8042 51.5267 45.3704 48.7427 46.9812ZM46.1966 53.4991C46.6 51.5378 47.9986 49.4155 49.6107 48.4831C51.1879 47.576 52.2791 48.113 52.2992 49.9766L46.1966 53.4991Z" fill="black"/>
<path d="M49.6012 45.7658C50.9904 44.964 52.0753 43.0875 52.071 41.494C52.0657 39.5311 50.4321 38.5926 48.7214 39.5768C47.3364 40.3769 46.2541 42.2534 46.2583 43.852C46.2637 45.8235 47.9126 46.7416 49.6012 45.7658ZM49.5893 41.0821L49.5902 41.0804C50.1548 40.7559 50.3338 40.9056 50.3352 41.4974C50.3377 42.4772 49.5902 43.7689 48.7333 44.2622C48.2184 44.5564 47.9958 44.4805 47.9942 43.8486C47.9916 42.8654 48.7366 41.572 49.5893 41.0821Z" fill="black"/>
</svg>
