<svg width="93" height="92" viewBox="0 0 93 92" fill="none" xmlns="http://www.w3.org/2000/svg">
<path d="M12.4969 25.6878C12.4986 26.1667 12.8868 26.554 13.3648 26.554C13.8445 26.5532 14.2344 26.1633 14.2327 25.6844L14.2124 15.3524L17.6529 17.3514C17.6663 23.6825 17.7797 77.2656 17.7977 85.7797L14.3565 83.7802L14.2598 37.9269C14.2582 37.448 13.87 37.0606 13.3919 37.0606C12.9122 37.0615 12.5223 37.4514 12.524 37.9303L12.6223 84.282C12.6223 84.5905 12.7868 84.8753 13.0546 85.0304C13.1258 85.0718 12.3477 84.6195 18.235 88.0419C18.5164 88.2019 18.8434 88.1913 19.1029 88.0419L80.0933 52.8291C80.3628 52.6731 80.5289 52.3858 80.5272 52.0747L80.5069 44.6872C80.5052 44.3778 80.3408 44.0922 80.0712 43.9371C80.0677 43.9351 80.0635 43.936 80.06 43.9341L74.8959 40.9366C74.6298 40.7824 74.2975 40.7815 74.0263 40.9358L25.9392 68.689L25.826 13.1325C25.826 12.9083 25.6869 12.5522 25.392 12.3824C25.3913 12.382 25.3905 12.3822 25.3898 12.3818L20.215 9.37435C19.9488 9.2184 19.6149 9.2184 19.3453 9.37266L12.9071 13.0902C12.6003 13.268 12.4731 13.6378 12.4731 13.8411C12.4731 13.8407 12.4731 13.8415 12.4731 13.8411C12.4731 13.8415 12.4731 13.8432 12.4731 13.8437L12.4969 25.6878ZM19.5337 85.7889C19.4987 69.163 19.4108 27.4818 19.3894 17.352C19.6586 17.1966 24.3921 14.4638 24.0935 14.6361L24.2189 76.1867C24.2189 76.497 24.3851 76.7826 24.6529 76.9369C24.9241 77.0911 25.253 77.0911 25.5208 76.9369L78.7744 46.1908L78.7897 51.5772L19.5337 85.7889ZM74.4585 42.6903L77.9014 44.6889L25.9565 74.6789L25.9446 70.6902L74.4585 42.6903ZM19.7776 11.1272L23.2268 13.1315L18.521 15.8487L15.0718 13.8445L19.7776 11.1272Z" fill="black"/>
<path d="M13.3852 35.1383C13.8649 35.1375 14.2531 34.7484 14.2514 34.2687L14.2412 29.1315C14.2395 28.6526 13.8513 28.2653 13.3733 28.2653C12.8936 28.2661 12.5037 28.6552 12.5054 29.1349L12.5155 34.2721C12.5172 34.751 12.9071 35.1383 13.3852 35.1383Z" fill="black"/>
<path d="M43.3794 45.6763C43.3794 45.9848 43.5438 46.2696 43.8117 46.4247C43.8773 46.4629 43.1604 46.0461 48.5785 49.1963C48.8453 49.35 49.1758 49.3522 49.4464 49.1963L55.7931 45.5322C56.0626 45.3771 56.227 45.0898 56.227 44.7787L56.166 7.47747C56.166 7.34726 56.1219 7.2267 56.0679 7.1128C56.0581 7.09214 56.0616 7.0664 56.0501 7.04658C55.9751 6.91606 55.8667 6.80492 55.7321 6.72736C55.7313 6.72694 55.7306 6.72715 55.7298 6.72673L50.9686 3.95916C50.7042 3.8032 50.3702 3.8032 50.099 3.95746L43.7523 7.62156C43.6183 7.69922 43.5098 7.80962 43.4348 7.9393C43.408 7.98602 43.4106 8.0443 43.3928 8.09526C43.361 8.18595 43.3184 8.27335 43.3184 8.37252C43.3184 8.3721 43.3184 8.37295 43.3184 8.37252C43.3184 8.37295 43.3184 8.37464 43.3184 8.37506L43.3794 45.6763ZM45.0559 9.88291L48.0852 11.6425C48.0919 15.8417 48.1377 44.2157 48.1421 46.9346L45.1152 45.1746L45.0559 9.88291ZM49.8786 46.9426C49.8739 44.0009 49.8271 14.8709 49.8219 11.6432L54.4319 8.98162L54.4912 44.2795L49.8786 46.9426ZM50.5313 5.71196L53.5668 7.47631L48.9543 10.1394L45.9187 8.37591L50.5313 5.71196Z" fill="black"/>
<path d="M28.518 54.0343C28.518 54.3437 28.6825 54.6285 28.9503 54.7836C29.016 54.8218 28.2991 54.4049 33.7171 57.5552C33.984 57.7089 34.3145 57.711 34.585 57.5552L40.9317 53.8911C41.2013 53.736 41.3657 53.4487 41.3657 53.1384L41.3335 30.4792C41.3335 30.1718 41.1673 29.8823 40.8995 29.7282C40.7234 29.6268 35.9624 26.8613 36.1361 26.9609C35.87 26.8049 35.536 26.8049 35.2665 26.9592L28.9198 30.6233C28.652 30.7784 28.4858 31.064 28.4858 31.3742L28.518 54.0343ZM30.2234 32.8846L33.2509 34.6442C33.2512 34.8208 33.2807 55.0735 33.281 55.2936L30.2539 53.5334L30.2234 32.8846ZM35.0173 55.3015C34.9743 25.4459 34.9919 37.6953 34.9875 34.6449L39.5993 31.9825L39.6299 52.6384L35.0173 55.3015ZM35.6988 28.7137L38.7331 30.4775C38.5373 30.5905 33.8215 33.3135 34.12 33.1411L31.0862 31.3776L35.6988 28.7137Z" fill="black"/>
<path d="M58.2122 36.8894C58.2122 37.1988 58.3766 37.4836 58.6444 37.6387C58.7101 37.6769 57.9929 37.26 63.4129 40.4103C63.6798 40.564 64.0103 40.5661 64.2808 40.4103L70.6258 36.7462C70.8954 36.5911 71.0598 36.3037 71.0598 35.9935L71.0293 13.3351C71.0293 13.2316 70.9862 13.1395 70.9515 13.0453C70.9346 12.999 70.9378 12.9457 70.9133 12.9032C70.8383 12.7726 70.7299 12.6616 70.5953 12.5841C70.5946 12.5837 70.5939 12.5839 70.5931 12.5835L65.8302 9.81594C65.5641 9.65998 65.2301 9.65998 64.9606 9.81425L58.6156 13.4783C58.3478 13.6335 58.1816 13.9191 58.1816 14.2293L58.2122 36.8894ZM59.9192 15.7397L62.9467 17.5001C62.947 17.6764 62.9765 37.929 62.9768 38.1487L59.948 36.3885L59.9192 15.7397ZM64.7131 38.1566C64.6701 8.30224 64.6877 20.5511 64.6833 17.5009L69.2951 14.8384L69.324 35.4935L64.7131 38.1566ZM65.3929 11.5687L68.4289 13.3334L66.6673 14.3508L63.8158 15.997L60.7803 14.2327L65.3929 11.5687Z" fill="black"/>
</svg>
