<svg width="93" height="92" viewBox="0 0 93 92" fill="none" xmlns="http://www.w3.org/2000/svg">
<path d="M18.3542 63.4988H18.3567C18.8347 63.4988 19.2229 63.1114 19.2246 62.6334L19.2339 59.2151C19.2356 58.7353 18.8474 58.3463 18.3686 58.3446H18.366C17.888 58.3446 17.4998 58.7319 17.4981 59.21L17.4888 62.6283C17.4871 63.108 17.8753 63.4971 18.3542 63.4988Z" fill="black"/>
<path d="M17.4669 70.115C17.4491 76.0591 21.6463 83.3279 26.8233 86.3182C29.0867 87.6252 31.7815 88.2475 34.0464 86.9437C34.2201 86.8438 72.2262 64.7601 72.4877 64.6065C74.4422 63.4708 75.5246 61.1688 75.533 58.1259C75.5339 57.8149 75.3686 57.5275 75.0991 57.3716C72.9302 56.1166 69.4769 54.1183 69.7 54.2474C69.4288 54.0897 69.0956 54.0923 68.8278 54.2482L65.7537 56.0361C64.2275 54.9279 63.0085 52.699 63.0219 50.9079L63.1439 8.32792C63.1447 8.02799 62.9821 7.72889 62.7066 7.56933L57.3083 4.45277C57.0396 4.29766 56.7082 4.29597 56.4379 4.45446L18.0186 26.7815C17.7516 26.9366 17.5864 27.2231 17.5872 27.5324C17.5877 27.7152 17.5108 55.4954 17.5084 55.6976C17.5067 56.1773 17.8949 56.5664 18.3738 56.5681C18.3746 56.5681 18.3755 56.5681 18.3763 56.5681C18.8543 56.5681 19.2425 56.1807 19.2442 55.7027L19.3205 29.0352C19.4945 29.1355 23.2214 31.2855 22.9855 31.1494L22.866 73.2248C22.866 75.8107 24.6128 78.84 26.8462 80.1241C26.8472 80.1246 26.848 80.1247 26.849 80.1253C26.85 80.1259 26.8511 80.1268 26.8521 80.1275C29.0142 81.3565 30.9011 80.5892 31.5101 78.7195C31.6894 78.8227 35.5853 81.0649 35.3365 80.9218C35.0915 85.8457 31.6801 87.1159 27.6912 84.8146C22.9948 82.1023 19.1866 75.5098 19.2027 70.1201L19.2137 66.3212C19.2154 65.8415 18.8281 65.4524 18.3483 65.4507C17.8474 65.4329 17.4796 65.8372 17.4779 66.3161L17.4669 70.115ZM71.6155 63.1063L36.7095 83.3907C36.7308 83.3202 36.7408 83.2401 36.7604 83.1682C36.9484 82.482 37.0714 81.6767 37.1028 80.9564L73.6667 59.7075C73.3912 61.3027 72.686 62.4842 71.6155 63.1063ZM69.2669 56.0019L72.9335 58.1242L36.2476 79.4426C36.0731 79.3419 32.5166 77.2898 32.7428 77.4203C32.7418 77.4197 32.7404 77.4198 32.7393 77.4191L32.5952 77.336C36.9696 74.7911 17.9734 85.8424 69.2669 56.0019ZM64.1397 56.9748L30.4145 76.5888C30.1467 76.7448 29.9823 77.0321 29.9831 77.3423C29.9831 77.347 29.9865 77.3506 29.9866 77.3552C29.9534 78.8835 29.1341 79.4207 27.712 78.619C26.0288 77.6502 24.6077 75.1818 24.6077 73.2307L24.7272 31.1482L61.4038 9.83576L61.286 50.8986C61.2699 53.0189 62.4585 55.456 64.1397 56.9748ZM56.8761 6.20726L60.541 8.32368L23.8557 29.6431C23.6817 29.5429 19.9484 27.3917 20.1867 27.5291L56.8761 6.20726Z" fill="black"/>
<path d="M57.0473 45.8682L41.4187 54.95C41.0043 55.1908 40.8627 55.7222 41.1043 56.1358C41.3466 56.5541 41.8802 56.6896 42.29 56.4503L57.9186 47.3684C58.3331 47.1277 58.4746 46.5963 58.2331 46.1826C57.9915 45.7665 57.4584 45.6275 57.0473 45.8682Z" fill="black"/>
<path d="M57.0465 53.1566L41.4179 62.2392C41.0043 62.48 40.8627 63.0114 41.1043 63.4259C41.3447 63.8397 41.8754 63.9806 42.2909 63.7395L57.9195 54.6568C58.3331 54.4161 58.4747 53.8846 58.2331 53.4702C57.9915 53.0548 57.4584 52.9158 57.0465 53.1566Z" fill="black"/>
<path d="M57.3937 38.3078L31.7188 52.9455V33.7376C31.7188 33.2579 31.3306 32.8697 30.8508 32.8697C30.3711 32.8697 29.9829 33.2579 29.9829 33.7376V54.439C29.9829 54.9215 30.3762 55.3069 30.8508 55.3069C30.9992 55.3069 31.1475 55.2687 31.2806 55.1933L58.2532 39.8165C58.6693 39.5791 58.8151 39.0486 58.5778 38.6324C58.3388 38.2145 57.809 38.0696 57.3937 38.3078Z" fill="black"/>
<path d="M36.3669 46.865C36.7466 46.865 37.0958 46.6132 37.2026 46.2284L40.2141 35.3505L45.2826 37.0864C45.6632 37.2178 46.0895 37.0669 46.3023 36.7211L53.0465 25.8042C53.2982 25.3965 53.1719 24.8617 52.7643 24.61C52.3566 24.3591 51.8217 24.4828 51.57 24.8922L45.1894 35.2192L39.9047 33.4096C39.6767 33.3316 39.4301 33.3511 39.2182 33.463C39.0071 33.5749 38.8503 33.769 38.7868 33.9995L35.5295 45.7656C35.3764 46.3181 35.7925 46.865 36.3669 46.865Z" fill="black"/>
<path d="M38.2122 56.0485C37.9435 55.8934 37.6121 55.8959 37.3451 56.0493L29.6762 60.478C29.4066 60.6339 29.2413 60.9213 29.2422 61.2323L29.2651 69.3666C29.2664 69.8388 29.6487 70.2319 30.133 70.2319C30.283 70.2319 30.433 70.193 30.567 70.1158L38.2359 65.6881C38.5054 65.5321 38.6707 65.2448 38.6699 64.9337L38.647 56.7986C38.6461 56.4892 38.48 56.2036 38.2122 56.0485ZM30.9967 67.863L30.9797 61.7298L36.9154 58.3022L36.9323 64.4362L30.9967 67.863Z" fill="black"/>
</svg>
