<svg width="93" height="92" viewBox="0 0 93 92" fill="none" xmlns="http://www.w3.org/2000/svg">
<path d="M31.4398 84.0371C39.8267 88.8792 53.3695 88.8375 61.6349 84.0354C65.7906 81.6198 68.085 78.3566 68.0943 74.8476L68.1118 69.0834C68.112 69.0601 68.1172 69.0379 68.1172 69.0145C68.1353 65.9153 66.3194 62.9604 63.0188 60.648C62.5975 58.5065 62.0378 56.4038 61.3526 54.948C60.316 52.7317 58.7373 50.7826 56.8006 49.217C57.0486 48.9139 57.2983 48.612 57.519 48.2843C60.7944 43.4298 63.2862 36.4746 63.8009 30.8412C66.5662 28.6457 68.0868 25.9804 68.0943 23.145C68.0945 23.0974 68.0927 23.6579 68.1121 17.2526C68.107 13.7097 65.7813 10.4169 61.5637 7.98178C56.5019 5.06101 49.3153 3.78794 42.3456 4.57619C41.8693 4.63044 41.5268 5.06016 41.5811 5.53651C41.6353 6.012 42.0557 6.35188 42.5405 6.30187C49.1568 5.55007 55.9442 6.74346 60.6958 9.48539C68.2905 13.8695 68.2207 20.6494 60.7805 24.975C52.9624 29.518 40.1961 29.518 32.3255 24.9733C29.3741 23.2691 26.6659 20.5853 26.6416 17.2296C26.6212 14.4943 28.4157 11.8548 31.7101 9.79307C32.117 9.53879 32.2399 9.00312 31.9856 8.59713C31.7313 8.18944 31.194 8.06569 30.7897 8.32166C27.0232 10.6795 24.9555 13.7856 24.9161 17.0884C24.9137 17.1145 24.9008 17.1369 24.9007 17.1636L24.8829 23.0213C24.8741 25.8765 26.3948 28.5621 29.1772 30.7796C29.6951 36.4304 32.1927 43.4084 35.4759 48.2843C35.6961 48.6113 35.9454 48.9124 36.193 49.2149C34.28 50.7509 32.7094 52.6873 31.6593 54.9124C30.9743 56.3785 30.4235 58.4661 30.006 60.5709C26.7151 62.8806 24.8947 65.8205 24.8947 68.8891C24.8947 72.6328 24.8879 72.2486 24.8829 74.7221C24.8718 78.282 27.201 81.5909 31.4398 84.0371ZM66.3585 74.8425C66.3508 77.7107 64.3632 80.4416 60.7627 82.5334C52.9463 87.0799 40.18 87.0782 32.3077 82.5351C28.63 80.4111 26.6102 77.6395 26.6187 74.7289L26.6212 73.9898C27.5833 75.342 29.2733 76.9226 31.4567 78.1837C38.8023 82.4182 50.2772 82.9886 58.7079 79.5933C61.5977 78.431 64.5112 76.6687 66.361 74.1017L66.3585 74.8425ZM26.6187 23.0264L26.6212 22.2864C26.6488 22.3196 26.635 22.3039 26.6587 22.3325C27.8916 24.0447 29.6377 25.4262 31.4576 26.4769C39.7904 31.2868 53.34 31.3058 61.6535 26.4752C63.2303 25.5584 64.6841 24.4454 65.9128 22.945C66.062 22.7629 66.2267 22.5854 66.361 22.3992L66.3585 23.1399C66.3519 25.6054 64.8748 27.9665 62.177 29.9102C54.1863 35.6836 38.6938 35.675 30.7819 29.8319C28.0836 27.8716 26.6115 25.5007 26.6187 23.0264ZM31.0736 32.1192C31.1923 32.1913 31.3135 32.2642 31.4389 32.3379C39.7995 37.1607 53.3404 37.1607 61.6349 32.3328C61.723 32.2803 61.8137 32.226 61.9053 32.1701C61.1551 37.2327 58.9218 43.1022 56.0798 47.3147C54.0059 50.393 50.2929 52.2781 46.5064 52.2781C42.5553 52.2781 38.9057 50.2695 36.9151 47.3147C34.0673 43.0853 31.8279 37.1971 31.0736 32.1192ZM33.2307 55.6498C34.1834 53.6309 35.5997 51.8527 37.3499 50.4694C39.7351 52.6891 43.1243 54.014 46.5064 54.014C49.623 54.014 53.0129 52.8729 55.5538 50.5476C55.5824 50.5214 55.6141 50.4992 55.6425 50.4728C57.4165 51.8832 58.8396 53.6733 59.7812 55.6854C61.0855 58.4574 61.9555 64.0843 62.1341 67.1261C62.0794 67.2997 62.8832 70.5984 57.7869 73.5728C51.6012 77.1733 41.4946 77.1733 35.2598 73.5728C30.6506 70.8981 30.6915 68.4743 30.9753 65.7136C31.3051 62.5685 32.1152 58.0365 33.2307 55.6498ZM29.5505 63.1374C29.5245 63.3119 29.3437 64.6743 29.2699 65.3655C28.8887 68.8835 29.2038 72.0652 34.3902 75.0747C41.0674 78.9303 51.9624 78.9742 58.6607 75.073C64.9283 71.4147 63.8047 67.18 63.8632 66.982C63.802 65.9235 63.6474 64.5813 63.4971 63.5095C63.4822 63.4034 63.4729 63.3031 63.4572 63.1967C68.9954 68.2464 66.159 74.2041 59.2556 77.4769C51.381 81.2017 39.703 80.935 32.3255 76.6767C29.3904 74.9811 26.6268 72.2629 26.6365 68.8721C26.6365 68.868 26.6342 68.8645 26.6342 68.8604C26.6439 66.848 27.6626 64.865 29.5505 63.1374Z" fill="black"/>
<path d="M35.2267 8.04959C36.1845 7.67665 37.2058 7.35033 38.2636 7.07995C38.7281 6.96129 39.0078 6.48834 38.8891 6.02386C38.7705 5.55939 38.2941 5.27714 37.8331 5.39835C36.7083 5.68653 35.6192 6.03404 34.5961 6.4324C34.1495 6.60615 33.9291 7.10962 34.1028 7.55629C34.2775 8.00567 34.7838 8.22243 35.2267 8.04959Z" fill="black"/>
<path d="M36.3762 23.6171C42.0075 26.8676 51.1285 26.8564 56.702 23.6154C62.6392 20.1667 62.6173 14.2901 56.6427 10.8398C51.0164 7.59274 41.8931 7.59274 36.3041 10.8415C30.396 14.2759 30.3747 20.1518 36.3762 23.6171ZM37.1763 12.3417C42.2906 9.37152 50.6334 9.3738 55.7748 12.3434C60.5899 15.1244 60.6011 19.3429 55.8307 22.1152C50.7232 25.0826 42.3855 25.0843 37.2441 22.1135C32.4268 19.3328 32.4084 15.1142 37.1763 12.3417Z" fill="black"/>
<path d="M37.8645 71.1792C42.6622 73.9489 50.43 73.942 55.1831 71.1809C60.2434 68.2415 60.4214 63.046 54.8399 59.9878C49.9436 57.3331 42.4776 57.4483 37.8085 60.1522C32.6995 63.1229 32.7221 68.2142 37.8645 71.1792ZM38.6807 61.6541C42.7622 59.2871 49.6252 59.133 54.0092 61.5117C58.3043 63.8733 58.282 67.3755 54.311 69.679C50.0315 72.1675 43.0424 72.1624 38.7324 69.6773C34.7478 67.3764 34.7397 63.9442 38.6807 61.6541Z" fill="black"/>
<path d="M40.6098 63.4713L41.2997 63.7812C41.1757 64.0339 41.0915 64.2985 41.0912 64.5766C41.0904 65.2987 41.5286 65.9683 42.2939 66.4141C43.6128 67.1786 45.608 67.1803 46.937 66.4141C47.71 65.9683 49.0627 65.9666 49.8289 66.4141C50.0883 66.565 50.1756 66.7091 50.1756 66.7515C50.1756 66.7803 50.1154 66.9244 49.8239 67.0939C49.0466 67.5397 47.6905 67.5414 46.9217 67.0939C46.5081 66.8549 45.9767 66.9939 45.7351 67.4092C45.4944 67.8228 45.6343 68.3534 46.0487 68.5958C46.709 68.9789 47.5388 69.1705 48.3694 69.1705C49.0164 69.1705 49.641 69.0186 50.2095 68.786L51.6733 69.4434C52.1022 69.6375 52.6228 69.4506 52.8209 69.0077C53.0176 68.5704 52.8218 68.0567 52.3853 67.8601L51.7004 67.5525C51.8259 67.2991 51.9108 67.0336 51.9115 66.7549C51.9123 66.031 51.4716 65.3597 50.702 64.9122C49.4052 64.1596 47.3684 64.1596 46.0682 64.9122C45.2918 65.3597 43.9349 65.3597 43.1669 64.9122C42.9101 64.763 42.8271 64.6223 42.8271 64.5783C42.8271 64.5325 42.9135 64.3867 43.1814 64.2308C43.9544 63.7866 45.3062 63.7866 46.0742 64.2308C46.4886 64.4698 47.0192 64.3291 47.2608 63.9155C47.5015 63.5001 47.3599 62.9696 46.9455 62.7288C45.7892 62.0577 44.0715 62.0196 42.7855 62.5454L41.3218 61.888C40.8844 61.6897 40.3708 61.8863 40.1741 62.3237C39.9775 62.761 40.1733 63.2747 40.6098 63.4713Z" fill="black"/>
</svg>
