<svg width="93" height="92" viewBox="0 0 93 92" fill="none" xmlns="http://www.w3.org/2000/svg">
<path d="M13.2363 79.4381C13.4148 79.5419 27.3626 87.6473 27.1802 87.5413C27.1811 87.5419 27.1814 87.543 27.1824 87.5436C27.4464 87.6956 27.7778 87.6992 28.0495 87.5427L79.8919 57.6112C80.1614 57.4552 80.3267 57.1679 80.3258 56.8568L80.2021 13.3055C80.2012 12.9961 80.0351 12.7105 79.7673 12.5554C79.7573 12.5497 79.7452 12.5521 79.7351 12.5468L65.8288 4.45929C65.5609 4.30334 65.2295 4.3008 64.9591 4.4576L59.2044 7.76984C58.9459 7.37816 58.6356 7.03997 58.2426 6.80074C57.9374 6.59804 59.2887 7.41098 54.9043 4.84833C53.7795 4.19909 52.3556 4.30842 50.8944 5.16024L37.3025 13.0326C34.5894 14.5871 32.4645 18.2647 32.4645 21.4076L32.4673 23.2099L13.1083 34.384C12.8404 34.5392 12.6752 34.8248 12.6743 35.135C12.6743 35.1453 12.6817 35.1536 12.6821 35.1639L12.7489 58.9334C12.7506 59.4115 13.1388 59.7988 13.6168 59.7988C13.6177 59.7988 13.6185 59.7988 13.6194 59.7988C14.0983 59.7971 14.4864 59.4081 14.4848 58.9283L14.422 36.6501C14.5971 36.7518 27.4409 44.2133 26.6252 43.7394L26.7432 85.2805L14.539 78.188L14.5136 69.018C14.5119 68.5399 14.1237 68.1526 13.6456 68.1526C13.6448 68.1526 13.644 68.1526 13.6431 68.1526C13.1642 68.1543 12.776 68.5433 12.7777 69.023L12.8048 78.6906C12.8057 78.9991 12.9701 79.2839 13.2363 79.4381ZM28.4792 85.2898L28.3614 43.7463L78.4705 14.8147L78.5883 56.3593L28.4792 85.2898ZM41.4667 16.4492L55.0475 8.57431C56.8493 7.52859 58.1746 8.16869 58.1802 10.3491L58.2014 20.3464L55.5162 21.8958L55.4976 12.897C55.4959 12.2409 54.7804 11.8075 54.1948 12.1477C53.8899 12.3241 40.4168 20.1193 40.603 20.0116C40.3343 20.1667 40.1691 20.454 40.1699 20.7642L40.1868 30.7649L37.5105 32.3135L37.4975 23.3129C37.4839 20.8294 39.303 17.6888 41.4667 16.4492ZM53.7643 14.4028L53.7761 21.8898L52.2327 20.9914L52.2183 15.2982L53.7643 14.4028ZM38.1688 14.5362L51.7657 6.66131C52.6658 6.13666 53.471 6.02902 54.0338 6.35025L54.761 6.77319C54.0937 7.06919 53.3452 7.56679 40.592 14.9405C38.0084 16.4332 35.7452 20.0907 35.754 23.3222L35.7729 32.3075L34.2156 31.4056V31.3999L34.2004 21.4059C34.2004 18.9148 36.0159 15.7703 38.1688 14.5362ZM32.4806 31.9099C32.4815 32.2185 32.6459 32.5041 32.9129 32.6592L36.2091 34.5722C36.4713 34.7239 36.8009 34.7321 37.0788 34.5731C37.081 34.5718 37.0818 34.5691 37.084 34.5679L41.4964 32.0201C41.7659 31.8642 41.9312 31.5768 41.9303 31.2666L41.9091 21.2694L50.4848 16.3024L50.4985 21.494C50.4994 21.8017 50.6638 22.0865 50.93 22.2416L54.2101 24.1512C54.2098 24.151 54.2104 24.1514 54.2101 24.1512C54.2106 24.1515 54.212 24.1526 54.2126 24.1529C54.3039 24.2051 54.4063 24.2143 54.5066 24.2312C54.5544 24.2392 54.5982 24.269 54.6466 24.269C54.7958 24.269 54.9458 24.23 55.0797 24.1529L55.0855 24.1495L55.1118 24.1344L59.5066 21.6017C59.7762 21.4465 59.9423 21.1592 59.9415 20.8481L59.9237 10.3474C59.9237 10.011 59.8991 9.69735 59.8482 9.40155L65.3897 6.21209L77.5946 13.3101L27.4941 42.2358C27.319 42.1341 14.4617 34.6629 15.2773 35.1369L32.4662 25.2149C32.4672 25.6889 32.481 32.0927 32.4806 31.9099Z" fill="black"/>
<path d="M13.6389 66.6346C14.1178 66.6329 14.506 66.2438 14.5043 65.7641L14.4942 62.1839C14.4925 61.7059 14.1043 61.3185 13.6262 61.3185H13.6237C13.1448 61.3202 12.7566 61.7093 12.7583 62.189L12.7685 65.7692C12.7702 66.2472 13.1584 66.6346 13.6364 66.6346H13.6389Z" fill="black"/>
<path d="M53.0041 34.2569C45.5471 38.5626 39.5004 49.0311 39.525 57.5934C39.551 66.4573 46.0385 70.41 53.9576 65.8387C61.4079 61.5364 67.4494 51.0594 67.4249 42.4827C67.3985 33.5178 60.8098 29.7547 53.0041 34.2569ZM53.0897 64.3351C46.4355 68.1762 41.2819 65.2306 41.2608 57.5883C41.2379 49.5812 46.8956 39.7891 53.872 35.7605C60.515 31.924 65.6679 34.8741 65.689 42.4878C65.7119 50.5093 60.0602 60.3107 53.0897 64.3351Z" fill="black"/>
<path d="M56.7596 41.4622C56.3129 41.2918 55.8103 41.5139 55.639 41.9623L49.6899 57.5171C49.5187 57.9646 49.7424 58.4664 50.1899 58.6376C50.2925 58.6766 50.3967 58.6953 50.5002 58.6953C50.8494 58.6953 51.1782 58.4834 51.3104 58.1375L57.2596 42.5827C57.4308 42.1352 57.2071 41.6334 56.7596 41.4622Z" fill="black"/>
<path d="M59.5619 46.5274C59.1813 46.307 58.5448 46.1485 57.6871 46.6435C56.1063 47.5563 55.5503 50.0033 55.5554 51.8061C55.5291 53.4606 55.9385 54.5845 56.7395 55.0557C56.9166 55.16 57.1997 55.2803 57.5667 55.2803C57.86 55.2803 58.2075 55.2032 58.5965 54.9786C59.9781 54.1802 60.735 52.335 60.7273 49.7821C60.7223 48.0403 60.3417 46.9757 59.5619 46.5274ZM57.7286 53.475C57.6616 53.5131 57.6167 53.5309 57.6031 53.542C57.5074 53.4301 57.2734 52.952 57.2912 51.8171C57.287 50.116 57.8184 48.5717 58.555 48.1471C58.6321 48.1022 58.6872 48.0793 58.7109 48.0632C58.7889 48.1869 58.9881 48.62 58.9915 49.7872C58.9966 51.6366 58.5245 53.0148 57.7286 53.475Z" fill="black"/>
<path d="M51.3963 48.2844C51.3912 46.5409 51.0115 45.4755 50.2334 45.028C49.8486 44.8085 49.2138 44.6483 48.3552 45.145C46.7761 46.057 46.221 48.4836 46.2243 50.2889C46.193 51.94 46.5998 53.0622 47.3991 53.5352C47.5762 53.6394 47.8602 53.7606 48.228 53.7606C48.5221 53.7606 48.8696 53.6827 49.2578 53.4589C50.6445 52.6579 51.4039 50.8204 51.3963 48.2844ZM48.3899 51.9553C48.3247 51.9934 48.2789 52.0104 48.2645 52.0214C48.1695 51.9087 47.9382 51.4298 47.9602 50.3127C47.9602 50.3059 47.9602 50.3 47.9602 50.2932C47.9551 48.6065 48.4857 47.0741 49.2231 46.6486C49.3011 46.6036 49.3579 46.5799 49.3816 46.563C49.4587 46.6876 49.6571 47.1207 49.6604 48.2895C49.6655 50.122 49.1909 51.4925 48.3899 51.9553Z" fill="black"/>
</svg>
