<svg width="93" height="92" viewBox="0 0 93 92" fill="none" xmlns="http://www.w3.org/2000/svg">
<path d="M27.2851 25.2529C29.1953 26.3619 39.6951 32.4575 39.0232 32.0674C39.2813 32.2177 39.6118 32.2287 39.892 32.0683L65.5839 17.2542C65.8526 17.1 66.0179 16.8135 66.0187 16.5041C66.0196 16.1939 65.8552 15.9074 65.5873 15.7523C64.3811 15.0524 69.955 18.2913 53.7899 8.90789C53.5121 8.76301 53.2671 8.7693 53.0019 8.90651C52.8269 8.99703 27.4627 23.6347 27.2885 23.751C27.0206 23.9061 26.8553 24.1917 26.8545 24.5011C26.8536 24.8104 27.0181 25.0969 27.2851 25.2529ZM33.3007 26.74L53.3932 15.1319L59.5585 18.7189L39.4589 30.3138L33.3007 26.74ZM61.297 17.7222L54.2628 13.6292V11.1781L63.4184 16.499L61.297 17.7222ZM52.5269 11.1733V13.6272L31.5695 25.7354L29.4515 24.5062L52.5269 11.1733Z" fill="black"/>
<path d="M73.2826 15.7574L73.2806 15.7562L73.2792 15.7549L73.2774 15.7543L53.8365 4.45744C53.5679 4.29979 53.2356 4.30149 52.9669 4.45575L19.5756 23.7349C19.2691 23.9123 19.1421 24.311 19.1416 24.4858L19.142 24.4875C19.142 24.7604 19.2844 75.1918 19.2857 75.495C19.2865 75.8036 19.451 76.0883 19.718 76.2426C29.5288 81.9444 39.5504 87.7667 39.1657 87.5451C39.4297 87.6971 39.7612 87.7007 40.0328 87.5443L73.4242 68.266C73.6937 68.11 73.859 67.8227 73.8581 67.5117L73.7573 31.9225C73.7556 31.4445 73.3674 31.0571 72.8894 31.0571H72.8868C72.4079 31.0588 72.0197 31.4479 72.0214 31.9276L72.1206 67.0141L63.6727 71.8913L63.6329 57.9424C63.6321 57.6331 63.4659 57.3474 63.1981 57.1923C62.9294 57.0372 62.598 57.0398 62.331 57.1932L49.2011 64.7748C48.9316 64.9308 48.7663 65.2181 48.7672 65.5292L48.8099 80.4722L40.4625 85.2914L40.3235 36.2869C45.3396 33.3909 63.5627 22.8697 71.9824 18.0086L71.9952 22.7245C71.9968 23.2026 72.385 23.5899 72.8631 23.5899H72.8656C73.3445 23.5882 73.7327 23.1992 73.731 22.7195L73.7141 16.505C73.7135 16.3302 73.5513 15.9133 73.2826 15.7574ZM53.3992 6.21024L71.1145 16.505L39.4552 34.7835L21.7411 24.4892L53.3992 6.21024ZM20.8817 25.9973L38.5874 36.2868L38.7266 85.2821L21.0198 74.9924L20.8817 25.9973ZM61.9364 71.8007L51.2553 65.5933L61.9013 59.4461L61.9364 71.8007ZM61.1441 73.3479L50.5428 79.4677L50.508 67.1665L61.1441 73.3479Z" fill="black"/>
<path d="M72.8717 25.7047C72.3929 25.7063 72.0047 26.0954 72.0064 26.5751L72.0114 28.3839C72.0131 28.8619 72.4013 29.2492 72.8794 29.2492H72.8819C73.3608 29.2475 73.749 28.8585 73.7473 28.3788L73.7422 26.57C73.7405 26.092 73.3523 25.7047 72.8743 25.7047H72.8717Z" fill="black"/>
<path d="M50.5658 53.9385C50.2971 53.7817 49.9657 53.7851 49.6987 53.9385L45.0531 56.6202C44.7836 56.7762 44.6183 57.0635 44.6191 57.3746L44.6361 63.2949C44.6369 63.6043 44.8031 63.8899 45.0709 64.045C45.3349 64.1971 45.6663 64.2007 45.938 64.0442L50.5827 61.3633C50.8523 61.2073 51.0175 60.92 51.0167 60.6089L51.0006 54.6877C50.9997 54.3784 50.8336 54.0927 50.5658 53.9385ZM46.3677 61.7922L46.3567 57.8721L49.269 56.1913L49.2792 60.1114L46.3677 61.7922Z" fill="black"/>
<path d="M59.5746 48.7385C59.3059 48.5817 58.9745 48.5851 58.7075 48.7385L54.0619 51.4203C53.7924 51.5762 53.6271 51.8636 53.6279 52.1746L53.6449 58.095C53.6462 58.5672 54.0285 58.9604 54.5128 58.9604C54.6628 58.9604 54.8129 58.9214 54.9468 58.8443L59.5915 56.1634C59.8611 56.0074 60.0263 55.7201 60.0255 55.409L60.0094 49.4878C60.0085 49.1784 59.8424 48.8928 59.5746 48.7385ZM55.3765 56.5922L55.3655 52.6722L58.2778 50.9914L58.2879 54.9115L55.3765 56.5922Z" fill="black"/>
<path d="M63.5221 53.7605C63.6721 53.7605 63.8221 53.7215 63.956 53.6444L68.6008 50.9635C68.8703 50.8075 69.0356 50.5202 69.0348 50.2091L69.0187 44.2879C69.0178 43.9785 68.8517 43.6929 68.5838 43.5386C68.3152 43.3827 67.9838 43.3844 67.7168 43.5386L63.0712 46.2204C62.8016 46.3763 62.6364 46.6637 62.6372 46.9747L62.6542 52.8951C62.6555 53.3673 63.0377 53.7605 63.5221 53.7605ZM67.287 45.7915L67.2972 49.7116L64.3858 51.3923L64.3748 47.4723L67.287 45.7915Z" fill="black"/>
<path d="M55.7614 29.8553C51.5218 32.3031 48.0832 38.2667 48.0967 43.1487C48.1106 48.3636 52.0339 50.7331 56.6768 48.0529C60.9927 45.5601 64.3618 39.7228 64.3474 34.7636C64.3334 29.5113 60.3798 27.186 55.7614 29.8553ZM55.8089 46.5492C52.3827 48.5278 49.8431 47.0835 49.8326 43.1437C49.8207 38.8159 52.8695 33.5295 56.6293 31.3589C60.0657 29.3758 62.601 30.8314 62.6116 34.7687C62.6243 39.0914 59.573 44.376 55.8089 46.5492Z" fill="black"/>
<path d="M57.6776 38.0955C57.1335 37.7818 56.4436 37.82 55.7901 38.198C55.7291 38.2336 55.6799 38.254 55.6562 38.2734C55.6494 38.2378 55.6426 38.1878 55.6426 38.1217C55.6409 37.5166 56.1206 36.6868 56.6487 36.3816C56.7072 36.3477 56.7555 36.3274 56.7784 36.3079C56.7851 36.3443 56.7919 36.3944 56.7919 36.4605C56.7936 36.9385 57.1818 37.3258 57.6598 37.3258H57.6624C58.1413 37.3242 58.5295 36.9351 58.5278 36.4554C58.5261 35.701 58.2125 35.0891 57.6692 34.7763C57.4882 34.6727 57.2884 34.6216 57.0826 34.5944V34.0923C57.0826 33.6126 56.6944 33.2244 56.2147 33.2244C55.735 33.2244 55.3468 33.6126 55.3468 34.0923V35.2247C54.5067 35.9303 53.9039 37.0737 53.9067 38.1268C53.9084 38.8803 54.2212 39.4923 54.7645 39.805C55.3103 40.1195 56.0011 40.0813 56.658 39.7016C56.7165 39.6677 56.7648 39.6474 56.7877 39.6279C56.7945 39.6643 56.8012 39.7143 56.8012 39.7804C56.8029 40.3831 56.3249 41.2095 55.7994 41.5129C55.7384 41.5485 55.6884 41.5688 55.6655 41.5892C55.6579 41.5536 55.6519 41.5044 55.6519 41.4409C55.6502 40.9628 55.262 40.5755 54.784 40.5755H54.7815C54.3026 40.5772 53.9144 40.9662 53.9161 41.4459C53.9178 42.1969 54.2305 42.8072 54.7738 43.1199C54.9504 43.2214 55.1456 43.2732 55.3468 43.3015V43.8149C55.3468 44.2947 55.735 44.6829 56.2147 44.6829C56.6944 44.6829 57.0826 44.2947 57.0826 43.8149V42.6848C57.93 41.9826 58.5401 40.8336 58.5371 39.7754C58.5354 39.021 58.2218 38.4091 57.6776 38.0955Z" fill="black"/>
<path d="M34.0098 39.3109L26.5663 35.0136C26.2985 34.8594 25.9671 34.8568 25.6993 35.0128C25.4314 35.1679 25.2653 35.4535 25.2645 35.7629L25.2407 44.315C25.2399 44.6261 25.4052 44.9134 25.6747 45.0694L33.1173 49.3666C33.2512 49.4437 33.4013 49.4827 33.5513 49.4827C34.035 49.4827 34.4179 49.0901 34.4192 48.6173L34.4438 40.0652C34.4446 39.7542 34.2793 39.4668 34.0098 39.3109ZM32.6876 47.1137L26.9783 43.8175L26.9961 37.2665L32.7062 40.5628L32.6876 47.1137Z" fill="black"/>
<path d="M26.5283 48.4631C26.2604 48.3088 25.929 48.3063 25.6612 48.4622C25.3933 48.6173 25.2272 48.903 25.2264 49.2123L25.2026 57.7653C25.2018 58.0764 25.3671 58.3637 25.6366 58.5197L33.0792 62.8161C33.2131 62.8932 33.3632 62.9322 33.5132 62.9322C33.9969 62.9322 34.3798 62.5396 34.3811 62.0668L34.4057 53.5147C34.4065 53.2036 34.2413 52.9163 33.9717 52.7603L26.5283 48.4631ZM32.6495 60.5632L26.9402 57.2678L26.958 50.716L32.6681 54.0122L32.6495 60.5632Z" fill="black"/>
<path d="M26.4902 61.9125C26.2223 61.7583 25.8909 61.7557 25.6231 61.9117C25.3553 62.0668 25.1891 62.3524 25.1883 62.6618L25.1646 71.2147C25.1637 71.5258 25.329 71.8131 25.5985 71.9691L33.0411 76.2663C33.1751 76.3435 33.3251 76.3824 33.4751 76.3824C33.9589 76.3824 34.3417 75.9898 34.343 75.5171L34.3676 66.9641C34.3685 66.653 34.2032 66.3657 33.9336 66.2098L26.4902 61.9125ZM32.6114 74.0135L26.9021 70.7172L26.9199 64.1654L32.6301 67.4616L32.6114 74.0135Z" fill="black"/>
</svg>
