<svg width="93" height="92" viewBox="0 0 93 92" fill="none" xmlns="http://www.w3.org/2000/svg">
<path d="M72.8023 50.9424C72.8104 50.938 72.8198 50.9401 72.8279 50.9355C73.8603 50.3342 79.9509 46.7858 79.5611 47.0129C82.8141 45.1151 84.6195 41.2171 84.6415 36.0358C84.6551 29.5942 81.8597 22.0583 77.1641 15.8769C76.8726 15.4947 76.3284 15.4209 75.947 15.7116C75.5656 16.0015 75.491 16.5457 75.7809 16.9271C80.2544 22.8152 82.9192 29.9578 82.9057 36.0307C82.8853 40.5704 81.3868 43.9378 78.6864 45.5135L76.5386 46.7645C76.5436 46.754 76.5468 46.7418 76.5518 46.7313C77.3118 45.1124 77.8961 42.6977 77.9083 39.9576C77.9206 33.7043 75.2479 26.6206 71.1521 20.8364C68.2756 16.7733 64.3953 12.9244 59.8906 10.852C58.1729 10.0595 56.3517 9.59997 54.9916 9.48285C54.9548 9.47968 54.9161 9.4694 54.8795 9.46664L57.0273 8.21646C59.7666 6.61961 63.4706 7.01035 67.4661 9.32001C67.8763 9.56073 68.4103 9.41918 68.651 9.00386C68.8917 8.58855 68.7493 8.05796 68.334 7.8181C63.7808 5.18211 59.453 4.79223 56.1526 6.71624C55.9785 6.8176 49.0217 10.8695 49.4115 10.6426C46.1565 12.5372 44.3541 16.4177 44.339 21.5803C44.3101 31.9539 51.6163 44.6252 60.6278 49.8277C64.4338 52.0248 68.9965 53.1337 72.7889 50.9516C72.7936 50.9488 72.7976 50.9451 72.8023 50.9424ZM61.4957 48.3241C52.964 43.3996 46.046 31.4038 46.0748 21.5854C46.0884 17.0589 47.5861 13.7048 50.2948 12.1355C52.9429 10.6007 56.2801 11.1223 59.0891 12.4003C64.1608 14.705 68.4482 19.4451 71.3101 24.201C74.3048 29.1795 76.1806 34.8596 76.1657 39.9559C76.1377 49.3445 69.7576 53.0943 61.4957 48.3241Z" fill="black"/>
<path d="M59.4733 26.7548L59.4665 29.1585C59.4665 29.4128 59.5767 29.6535 59.7683 29.8196C59.9276 29.9553 60.1276 30.029 60.3344 30.029C60.3785 30.029 60.4226 30.0256 60.4684 30.0188L68.0627 28.8398C68.3644 28.7932 68.6187 28.5898 68.734 28.3067C68.8476 28.0228 68.8052 27.6998 68.6187 27.4566L61.0549 17.5212C60.8328 17.2254 60.448 17.1034 60.0886 17.2237C59.7361 17.3424 59.4987 17.6721 59.497 18.0442L59.4936 19.4562L54.7591 16.7228C54.4912 16.5685 54.1607 16.5677 53.8928 16.7219C53.6233 16.8771 53.4589 17.1627 53.4572 17.4721L53.4419 22.7694C53.4402 23.0805 53.6063 23.3678 53.8759 23.5238L59.4733 26.7548ZM55.1879 18.9757L59.9225 21.7091C60.1904 21.8634 60.5209 21.8642 60.7888 21.71C61.0583 21.5549 61.2227 21.2692 61.2244 20.9599L61.2261 20.6098L66.3557 27.3481L61.2058 28.1474L61.2108 26.2572C61.2125 25.9462 61.0464 25.6589 60.7769 25.5029L55.1795 22.2719L55.1879 18.9757Z" fill="black"/>
<path d="M62.7669 34.8144L62.7737 32.4107C62.7737 32.1564 62.6635 31.9157 62.4719 31.7496C62.2787 31.5852 62.0363 31.5123 61.7718 31.5504L54.1758 32.7294C53.8741 32.776 53.6198 32.9794 53.5045 33.2625C53.3909 33.5465 53.4333 33.8694 53.6198 34.1127L61.1836 44.048C61.4057 44.3438 61.7922 44.4659 62.1499 44.3455C62.5025 44.2269 62.7398 43.8971 62.7415 43.5251L62.7449 42.113L67.4795 44.8464C67.6134 44.9236 67.7642 44.9626 67.9134 44.9626C68.3901 44.9626 68.7787 44.5776 68.7813 44.0972L68.7966 38.7998C68.7983 38.4887 68.6322 38.2014 68.3626 38.0454L62.7669 34.8144ZM67.0506 42.5936L62.316 39.8601C62.1821 39.783 62.0312 39.744 61.882 39.744C61.4054 39.744 61.0167 40.1289 61.0141 40.6094L61.0124 40.9594L55.8828 34.2211L61.0344 33.4219L61.0294 35.312C61.0277 35.623 61.1938 35.9104 61.4633 36.0663L67.0591 39.2973L67.0506 42.5936Z" fill="black"/>
<path d="M9.71679 12.69C8.70309 13.3782 8.21996 14.7183 8.39287 16.3677C11.1306 42.3172 27.8195 71.2283 48.9785 86.6738C50.1822 87.5522 51.6939 88.0279 52.9842 87.3222C53.1583 87.227 66.7833 79.36 66.6082 79.4049C67.5236 78.8735 68.061 77.842 68.122 76.4986C68.2915 72.8353 68.4543 69.1754 68.617 65.5105C68.678 64.2595 67.8999 62.7516 66.8083 62.004C63.2823 59.5817 59.8818 56.5609 56.6966 53.0231C56.4322 52.7315 56.144 52.4942 55.8372 52.3153C55.1354 51.911 54.4013 51.8729 53.8267 52.2094L50.4048 54.1978C44.8264 47.1191 40.4377 39.4511 37.2236 31.3718L40.662 29.3738C41.5079 28.8831 41.7876 27.7532 41.3757 26.498C39.9145 21.9693 39.0092 17.5288 38.6889 13.2994C38.5905 12.0077 37.7277 10.6482 36.5886 9.99469C36.5836 9.99183 36.5775 9.9932 36.5724 9.99045C36.5673 9.98759 36.565 9.98134 36.5597 9.97858C33.2898 8.26562 30.0283 6.55689 26.7617 4.8541C25.5496 4.22011 24.3715 4.16671 23.4409 4.70747C8.25906 13.5346 9.92166 12.5505 9.71679 12.69ZM50.0024 85.2719C29.2095 70.0934 12.8088 41.6841 10.1185 16.1871C9.92683 14.3434 10.7794 13.4332 12.3884 14.2775C15.6494 15.9767 18.902 17.68 22.1614 19.3884C22.7411 19.7244 23.3315 20.5653 23.3883 21.3158C23.4718 22.4075 23.5926 23.5123 23.7503 24.6281C24.2234 27.9756 25.0288 31.4233 26.1565 34.9195C26.3211 35.4224 26.2476 35.6914 26.2272 35.7419C26.049 35.7458 21.4503 35.8463 21.7372 35.84C21.1507 35.8525 20.7386 36.4354 20.9388 36.9995C24.6122 47.2976 30.3029 57.155 37.3954 65.5046C37.7305 65.9039 38.4591 65.9406 38.794 65.3995C38.7952 65.3975 38.7978 65.3964 38.799 65.3944L41.1513 61.6111C41.3916 61.6406 41.6765 61.8912 41.8385 62.071C45.1135 65.7088 48.6191 68.8203 52.2587 71.3207C52.852 71.7284 53.347 72.659 53.3164 73.3159C53.1537 76.9825 52.991 80.6407 52.8215 84.3039C52.7382 86.1209 51.4905 86.3558 50.0024 85.2719ZM54.676 53.7198C54.7048 53.7155 54.8065 53.7249 54.9658 53.8173C55.115 53.9037 55.2676 54.0317 55.4066 54.186C58.6816 57.8238 62.1872 60.9352 65.8268 63.4356C66.4201 63.8433 66.9151 64.7739 66.8829 65.4308C66.7218 69.0975 66.5591 72.7556 66.3896 76.4189C66.3557 77.152 66.1234 77.6792 65.7369 77.9039L54.5539 84.4023C54.5539 84.3963 54.5539 84.3904 54.5539 84.3836C54.7234 80.7204 54.8862 77.0605 55.0489 73.3956C55.1099 72.1445 54.3318 70.6367 53.2402 69.8891C49.7142 67.4667 46.3137 64.4459 43.1285 60.9081C43.0317 60.8021 42.9329 60.7038 42.8313 60.6125C43.0065 60.5106 55.4508 53.2689 54.676 53.7198ZM48.8734 55.0759C48.8419 55.0943 40.1539 60.1706 40.1237 60.1924C39.9885 60.2924 39.827 60.4322 39.6723 60.6712C39.6713 60.6728 39.6696 60.6735 39.6687 60.675L39.6672 60.6774C39.666 60.6793 39.6647 60.6799 39.6636 60.6818C39.5565 60.8556 37.8435 63.6352 37.9527 63.458C31.6926 55.8732 26.4276 46.7575 22.9916 37.5538C23.1698 37.5501 26.4791 37.4799 26.2701 37.4843C26.5731 37.4787 26.9201 37.3227 27.0939 37.2589L35.6952 32.2599C38.8568 40.1435 43.3323 47.9986 48.8734 55.0759ZM39.7246 27.0353C39.8924 27.5447 39.8128 27.8219 39.7755 27.8812L34.9681 30.6749L27.913 34.7687C27.886 34.6415 27.8511 34.5127 27.8076 34.3822C26.3464 29.8552 25.4411 25.4139 25.1208 21.1845C25.0675 20.4845 24.7039 19.5089 24.0765 18.7706L36.102 11.7822C36.5631 12.2103 36.914 12.8612 36.9564 13.4308C37.2903 17.7967 38.221 22.3728 39.7246 27.0353ZM24.3122 6.20769C24.7088 5.97799 25.2937 6.0441 25.9565 6.39246C28.7603 7.85369 31.559 9.31832 34.3611 10.7863L22.5666 17.6405C19.4391 16.0029 16.3184 14.3681 13.1936 12.7392C13.1715 12.7281 13.1512 12.7171 13.1309 12.707L24.3122 6.20769Z" fill="black"/>
<path d="M70.7205 10.4685C70.4136 10.8363 70.4628 11.3839 70.8307 11.6907C71.7003 12.4137 72.558 13.2231 73.3836 14.0961C73.7161 14.4468 74.2649 14.4568 74.6109 14.13C74.9584 13.8003 74.9736 13.2511 74.6448 12.9027C73.7735 11.9806 72.8632 11.1245 71.9427 10.3566C71.5765 10.0532 71.029 10.0998 70.7205 10.4685Z" fill="black"/>
</svg>
