<svg width="93" height="92" viewBox="0 0 93 92" fill="none" xmlns="http://www.w3.org/2000/svg">
<path d="M13.9681 39.0061L35.8231 51.624C36.0895 51.7775 36.4209 51.7808 36.6935 51.6223L63.4042 36.0997C63.6712 35.9446 63.8365 35.6581 63.8357 35.3488C63.8348 35.0385 63.6695 34.7529 63.4017 34.5978L41.5459 21.9798C41.2764 21.8239 40.945 21.8239 40.6755 21.9815L13.9656 37.5042C13.6986 37.6593 13.5333 37.9458 13.5342 38.2551C13.535 38.5653 13.7003 38.851 13.9681 39.0061ZM41.1137 23.7343L61.2361 35.3522L36.2553 49.8695L16.1337 38.2517L41.1137 23.7343Z" fill="black"/>
<path d="M9.51257 59.8736C9.92534 60.1126 10.4585 59.9694 10.6983 59.5557C10.9382 59.1404 10.7958 58.6098 10.3805 58.37L6.57654 56.1739L6.60875 39.7681L35.3952 56.3883L35.3621 72.7933L23.1392 65.7363C22.723 65.4956 22.1924 65.6388 21.9534 66.0541C21.7135 66.4694 21.8559 67 22.2712 67.2399L35.7936 75.047C36.0977 75.2222 36.487 75.1471 36.6606 75.047C56.6641 63.4142 50.3152 67.1064 53.9852 64.9722L66.7235 72.2296C66.9937 72.3828 67.3215 72.3801 67.5872 72.2271L87.7266 60.594C87.9962 60.4381 88.1615 60.1507 88.1606 59.8397C88.1598 59.5286 87.9928 59.2421 87.7224 59.0879L72.4603 50.3904C72.4846 39.0431 72.4923 35.0832 72.493 35.3369C72.4925 35.1561 72.3741 34.7685 72.0591 34.5859L41.5393 16.9647C41.2698 16.8087 40.9384 16.8087 40.6689 16.9664L5.30771 37.516C5.09263 37.641 4.8769 38.0824 4.87629 38.2644L4.83985 56.6731C4.839 56.9842 5.00513 57.2715 5.27381 57.4266L9.51257 59.8736ZM37.1022 72.7839L37.1336 56.3942L70.7546 36.8524L70.7267 49.3983L67.8593 47.7538V42.5634C67.8593 42.5633 67.8593 42.5635 67.8593 42.5634V42.5456C67.8593 42.2345 67.6932 41.9472 67.4236 41.7929C67.1541 41.6387 66.8227 41.6404 66.5532 41.7963C55.0429 48.4778 73.5721 37.6934 40.4468 56.9681C40.1807 57.1232 40.0171 57.4079 40.0162 57.7156C40.015 58.3933 39.9984 67.5382 39.9993 67.0713V67.0907C39.9993 67.4018 40.1654 67.6883 40.4349 67.8434C40.6995 67.9958 41.0321 67.9992 41.3045 67.8408L50.0604 62.7361L52.2414 63.9787L37.1022 72.7839ZM75.7291 60.7576L69.0459 64.6285C67.5364 63.9716 65.4954 63.9716 63.9875 64.6319L47.0633 55.1392L58.5252 48.4818L75.6969 58.1004C75.1071 58.9213 75.1169 59.9373 75.7291 60.7576ZM48.3149 61.7416L41.7377 65.5634L41.7512 58.2165L41.9374 58.108L48.3149 61.7416ZM66.1184 46.7708L63.7677 45.4347L66.1235 44.0687L66.1184 46.7708ZM67.1507 70.4743C30.2074 49.3778 70.0593 72.1295 43.6848 57.1014L45.3214 56.1509L63.5409 66.3711C63.807 66.5212 64.1342 66.5178 64.3986 66.366C65.5293 65.7126 67.5118 65.7126 68.6425 66.366C68.916 66.5236 69.2481 66.5184 69.5112 66.3652L77.6421 61.6552C77.9099 61.5001 78.0752 61.2144 78.0752 60.9051C78.0752 60.5966 77.9116 60.3101 77.6446 60.1541C77.2403 59.9193 76.9988 59.6396 76.9988 59.4065C76.9979 59.1802 77.2293 58.9099 77.6167 58.681C77.8845 58.5234 78.0472 58.2343 78.0439 57.9233C78.0405 57.6131 77.8709 57.3274 77.5997 57.1757L60.2699 47.4685L62.0312 46.4454C88.0706 61.2846 81.1929 57.3652 85.5484 59.8473L67.1507 70.4743ZM41.1071 18.7192L69.8935 35.3403L36.2628 54.8844L7.47583 38.2636L41.1071 18.7192Z" fill="black"/>
<path d="M14.4888 60.7415C14.0735 60.5016 13.5429 60.6432 13.303 61.0593C13.0632 61.4746 13.2056 62.0052 13.6209 62.2451L17.8571 64.6912C18.271 64.9303 18.8028 64.7891 19.0429 64.3734C19.2827 63.9581 19.1403 63.4275 18.725 63.1876L14.4888 60.7415Z" fill="black"/>
<path d="M69.8173 57.2223C68.2959 56.3374 65.899 56.3341 64.364 57.2206C62.5171 58.2861 62.5141 60.312 64.347 61.3772C65.8598 62.2579 68.257 62.2701 69.8004 61.3789C71.6444 60.3132 71.6552 58.2893 69.8173 57.2223ZM68.9325 59.8753C67.9399 60.4499 66.2049 60.4482 65.2192 59.877C64.5741 59.5019 64.5221 59.1334 65.2319 58.7242C66.2431 58.1394 67.9433 58.1403 68.946 58.7225C69.6398 59.1259 69.5935 59.4944 68.9325 59.8753Z" fill="black"/>
</svg>
