<svg width="93" height="92" viewBox="0 0 93 92" fill="none" xmlns="http://www.w3.org/2000/svg">
<path d="M21.6029 82.0855C21.6046 82.394 21.7673 82.6788 22.0351 82.8331C22.2109 82.9352 30.3149 87.6447 30.1392 87.5426L30.1414 87.5448C30.4092 87.699 30.7398 87.6982 31.0077 87.544L71.1305 64.3795C71.4001 64.2236 71.5662 63.9362 71.5645 63.6252L71.429 15.3449C71.4296 15.3317 71.4389 15.3211 71.439 15.3079C71.4407 14.9994 71.2797 14.7137 71.0136 14.5561C58.0332 6.86297 53.7071 4.3928 53.8178 4.45713C53.5517 4.30117 53.2177 4.30117 52.9482 4.45543L46.0421 8.44246C45.6268 8.68233 45.4844 9.21291 45.7251 9.62823C45.9624 10.0435 46.493 10.1825 46.91 9.94607L53.3804 6.20993L59.7554 9.9144L30.4087 26.8576L24.0354 23.1531L38.5596 14.768C38.9749 14.5281 39.1173 13.9975 38.8766 13.5822C38.6376 13.1643 38.107 13.0245 37.6917 13.2644L21.869 22.3988C21.5977 22.5559 21.4351 22.8449 21.4351 23.1497L21.4355 23.1514L21.4351 23.1531L21.6029 82.0855ZM23.337 81.5829L23.176 24.6612C23.4345 24.8114 29.91 28.5749 29.541 28.3604C29.5786 41.7581 29.6618 71.4341 29.7007 85.2818L23.337 81.5829ZM31.4382 85.2911L31.2772 28.3609L60.6222 11.4187L60.6476 20.5451C60.6476 21.2015 61.3651 21.631 61.9495 21.2944L69.6964 16.8225L69.8269 63.1276L31.4382 85.2911ZM62.3801 19.0296C62.3796 18.856 62.3577 11.004 62.3589 11.4434L68.8522 15.2926L62.3801 19.0296Z" fill="black"/>
<path d="M43.3197 10.0147L40.6616 11.5489C40.2463 11.7887 40.1039 12.3193 40.3446 12.7346C40.504 13.0126 40.7973 13.1686 41.0956 13.1686C41.2431 13.1686 41.3923 13.1313 41.5296 13.0525L44.1876 11.5183C44.6029 11.2785 44.7453 10.7479 44.5046 10.3326C44.2656 9.91725 43.7333 9.77571 43.3197 10.0147Z" fill="black"/>
<path d="M35.7542 33.4589L57.6744 20.8045C58.0897 20.5646 58.2321 20.034 57.9914 19.6187C57.7523 19.2034 57.22 19.061 56.8064 19.3008L34.8862 31.9553C34.4709 32.1951 34.3285 32.7257 34.5693 33.141C34.8054 33.553 35.3352 33.6994 35.7542 33.4589Z" fill="black"/>
<path d="M65.3501 58.3185L61.8462 60.3416C61.4309 60.5815 61.2885 61.1121 61.5292 61.5274C61.6886 61.8063 61.9818 61.9614 62.2802 61.9614C62.4277 61.9614 62.5768 61.9241 62.7141 61.8452L66.218 59.8221C66.6334 59.5822 66.7758 59.0516 66.535 58.6363C66.296 58.2184 65.7637 58.0786 65.3501 58.3185Z" fill="black"/>
<path d="M58.288 62.3953L34.8862 75.9049C34.4709 76.1448 34.3285 76.6754 34.5693 77.0907C34.8055 77.5042 35.3365 77.6484 35.7542 77.4086L59.1559 63.8989C59.5712 63.6591 59.7136 63.1285 59.4729 62.7132C59.2339 62.297 58.7016 62.1555 58.288 62.3953Z" fill="black"/>
<path d="M50.0835 30.7339C42.9892 34.8302 37.2358 44.791 37.2579 52.9389C37.2824 61.462 43.5312 65.1402 51.0328 60.8087C58.1237 56.7148 63.8703 46.7456 63.8465 38.585C63.8219 30.0353 57.5267 26.4399 50.0835 30.7339ZM62.1107 38.5901C62.1327 46.1963 56.7743 55.4892 50.1649 59.305C43.8842 62.9327 39.0148 60.17 38.9937 52.9338C38.9717 45.3411 44.3369 36.0567 50.9514 32.2375C57.2111 28.6228 62.0895 31.3608 62.1107 38.5901Z" fill="black"/>
<path d="M50.1223 45.0148C49.4113 45.4234 49.0496 45.257 49.0459 44.4096C49.0425 43.2052 49.9257 41.677 50.9733 41.0718C51.6909 40.6577 52.0393 40.8488 52.043 41.6804C52.0447 42.1593 52.4329 42.5466 52.9109 42.5466C53.3906 42.5458 53.7805 42.1559 53.7788 41.677C53.7763 40.1519 52.852 39.0261 51.4073 39.143V37.7968C51.4073 37.3171 51.0191 36.9289 50.5394 36.9289C50.0596 36.9289 49.6714 37.3171 49.6714 37.7968V39.868C48.3155 40.8868 47.307 42.7761 47.3101 44.4139C47.3172 46.5918 49.1037 47.6056 50.9903 46.5184C51.7007 46.1097 52.0545 46.2866 52.0582 47.1278C52.0616 48.306 51.1649 49.8604 50.1376 50.4529C49.4307 50.8608 49.0649 50.702 49.0612 49.8553C49.0595 49.3765 48.6713 48.99 48.1932 48.99C48.1916 48.99 48.1916 48.99 48.1899 48.99C47.7101 48.9917 47.3236 49.3815 47.3253 49.8604C47.3301 51.3192 48.1781 52.3972 49.5002 52.3972C49.5556 52.3972 49.6151 52.3756 49.6714 52.3717V53.7491C49.6714 54.2289 50.0596 54.6171 50.5394 54.6171C51.0191 54.6171 51.4073 54.2289 51.4073 53.7491V51.679C52.7774 50.6675 53.8002 48.7678 53.7941 47.1236C53.7905 44.9531 52.0058 43.9271 50.1223 45.0148Z" fill="black"/>
</svg>
