<svg width="93" height="92" viewBox="0 0 93 92" fill="none" xmlns="http://www.w3.org/2000/svg">
<path d="M80.0729 7.30212C80.0714 7.30127 80.0708 7.29936 80.0693 7.29852L75.1406 4.45318C74.8711 4.29723 74.538 4.29723 74.2702 4.45488L70.0255 6.92219C69.611 7.1629 69.4703 7.69434 69.7119 8.1088C69.9517 8.52327 70.484 8.66228 70.8985 8.42241L74.7084 6.20768L77.9038 8.05286C74.1628 10.2267 91.4084 0.205458 41.5504 29.1774L38.3565 27.3336L64.3831 12.2086C64.7967 11.9678 64.9383 11.4364 64.6967 11.0219C64.4552 10.6075 63.922 10.4676 63.5101 10.7083C58.5623 13.5836 41.841 23.3011 36.1883 26.5861C36.0374 26.6737 35.7578 27.0321 35.7569 27.3337L35.733 35.7643C29.7206 39.2601 19.9236 44.986 15.32 47.6324C13.5358 48.6588 12.5492 50.7422 12.5416 53.4994L12.4907 71.519C12.4899 71.8301 12.6552 72.1174 12.9247 72.2733C13.4281 72.5642 11.1009 71.2198 17.8483 75.1178C17.9831 75.1958 18.1331 75.2348 18.2831 75.2348C18.2953 75.2348 18.3061 75.2259 18.3183 75.2254C18.4565 75.2201 18.5952 75.1903 18.7196 75.1195C18.7223 75.1179 18.7233 75.1148 18.726 75.1132L23.6373 72.2668C24.1722 77.6491 27.8882 83.7484 32.442 86.378C34.6087 87.6289 37.185 88.2195 39.3447 86.9755C39.3464 86.9746 39.348 86.9731 39.3497 86.9721C39.3556 86.9688 39.3625 86.9704 39.3684 86.967L77.435 64.8307C79.3184 63.7467 80.355 61.5446 80.355 58.6315L80.5092 8.0571C80.5101 7.74604 80.3448 7.45871 80.0753 7.30276C80.0745 7.30233 80.0737 7.30254 80.0729 7.30212ZM35.7247 37.7776L35.6068 77.9259C35.6068 81.9336 30.1815 77.9014 30.1942 73.7888L30.2255 62.7118C30.2255 62.7117 30.2255 62.7119 30.2255 62.7118V62.7058C30.2417 59.052 28.3812 54.1846 24.8146 50.5625C23.2734 49.0072 21.642 47.7738 19.5231 47.2137L35.7247 37.7776ZM19.1587 72.8562L19.2053 56.3498C19.2106 55.1518 19.7191 54.8745 20.599 55.2177C22.2673 55.88 23.5593 58.1879 23.5602 59.8529L23.5271 70.3248L19.1587 72.8562ZM33.3099 84.8744C28.8601 82.3053 25.2511 76.0553 25.2655 70.9435L25.2969 59.8664C25.2969 59.8629 25.296 59.8591 25.296 59.8556C25.296 59.8555 25.296 59.8557 25.296 59.8556C25.296 59.8534 25.2955 59.851 25.2955 59.8487C25.2946 57.5275 23.6859 54.9277 21.8268 53.8537C19.5675 52.5474 17.4669 53.8069 17.4669 56.3464L17.4195 72.8639L14.2283 71.0215L14.2774 53.5045C14.2834 51.3923 14.9614 49.8412 16.1853 49.1369C18.4375 47.8358 21.5242 49.761 23.4305 51.625C26.2942 54.44 28.5003 58.8704 28.4897 62.7065L28.4549 73.7939C28.4549 75.2642 29.0868 77.2197 30.4043 78.8757C30.4098 78.8826 30.4155 78.8889 30.421 78.8958C33.4362 82.6634 37.3398 81.752 37.3495 77.9199L37.4885 28.8373C37.695 28.9565 40.8796 30.7948 40.6839 30.6818C40.6601 30.856 40.6856 27.5906 40.5423 80.7602C40.5369 82.5697 39.9717 84.6123 38.4793 85.4711C37.1427 86.2424 35.3076 86.0279 33.3099 84.8744ZM78.6191 58.629C78.6191 60.8971 77.891 62.566 76.5654 63.3288L41.9213 83.4741C42.0855 82.9059 42.279 81.7607 42.2849 80.7695C42.3263 65.6964 42.3918 41.7857 42.4223 30.6805C90.3844 2.81716 74.8978 11.814 78.7691 9.56495L78.6191 58.629Z" fill="black"/>
<path d="M73.7075 31.4445L46.2018 47.4384C45.7873 47.6791 45.6466 48.2105 45.8882 48.625C46.1286 49.0388 46.6593 49.1797 47.0748 48.9386L74.5805 32.9447C74.995 32.704 75.1357 32.1725 74.8941 31.7581C74.6534 31.3436 74.1212 31.2021 73.7075 31.4445Z" fill="black"/>
<path d="M73.7075 39.4414L46.2018 55.4353C45.7873 55.676 45.6466 56.2074 45.8882 56.6219C46.1286 57.0357 46.6593 57.1766 47.0748 56.9355L74.5805 40.9416C74.995 40.7009 75.1357 40.1695 74.8941 39.755C74.6534 39.3406 74.1212 39.199 73.7075 39.4414Z" fill="black"/>
<path d="M46.3866 32.9947C46.1171 33.1506 45.9518 33.438 45.9526 33.749L45.9755 41.7578C45.9768 42.2301 46.3591 42.6232 46.8434 42.6232C46.9935 42.6232 47.1435 42.5842 47.2774 42.5071L58.1926 36.2045C58.4621 36.0485 58.6274 35.7612 58.6265 35.4501L58.6045 27.4422C58.6037 27.1328 58.4375 26.8472 58.1697 26.6921C57.901 26.5369 57.5696 26.5395 57.3026 26.6929L46.3866 32.9947ZM47.7071 40.2542L47.6902 34.2466L56.8729 28.9458L56.889 34.9526L47.7071 40.2542Z" fill="black"/>
<path d="M62.8743 33.0023C63.1383 33.1544 63.4698 33.1579 63.7414 33.0015L74.6574 26.6989C74.927 26.5429 75.0922 26.2556 75.0914 25.9445L75.0685 17.9366C75.0677 17.6272 74.9015 17.3415 74.6337 17.1864C74.365 17.0313 74.0336 17.0339 73.7666 17.1873L62.8514 23.4891C62.5819 23.645 62.4166 23.9324 62.4175 24.2434L62.4395 32.2522C62.4404 32.5616 62.6065 32.8472 62.8743 33.0023ZM73.3369 19.4402L73.3538 25.447L64.1711 30.7486L64.155 24.7409L73.3369 19.4402Z" fill="black"/>
<path d="M73.7065 52.7442L65.5443 57.5118C65.1298 57.7534 64.9908 58.2848 65.2324 58.6985C65.3934 58.9748 65.6841 59.129 65.9825 59.129C66.1308 59.129 66.2817 59.0909 66.419 59.0104L74.5812 54.2427C74.9957 54.0012 75.1347 53.4697 74.8931 53.0561C74.6532 52.6433 74.1218 52.5035 73.7065 52.7442Z" fill="black"/>
<path d="M66.7218 10.8499L68.8051 9.6387C69.2196 9.39799 69.3603 8.86655 69.1187 8.45209C68.8772 8.03677 68.3466 7.89777 67.9321 8.13848L65.8488 9.34968C65.4343 9.59039 65.2936 10.1218 65.5352 10.5363C65.7756 10.9501 66.3062 11.091 66.7218 10.8499Z" fill="black"/>
<path d="M52.8846 65.2206C52.2489 64.8536 51.4318 64.9036 50.6461 65.3571C50.341 65.5334 50.1689 65.513 50.1359 65.4952C50.1011 65.4749 50.0028 65.341 50.002 64.9968C49.9994 64.0772 50.7004 62.8652 51.5013 62.4024C51.8014 62.2278 51.9692 62.2422 52.0065 62.2668C52.0413 62.2863 52.1396 62.4202 52.1404 62.7651C52.1421 63.2432 52.5303 63.6305 53.0084 63.6305C53.483 63.5729 53.878 63.2406 53.8763 62.7601C53.8737 61.8565 53.5076 61.1285 52.8727 60.7623C52.5904 60.599 52.2697 60.5319 51.9353 60.5319V59.5842C51.9353 59.1044 51.5471 58.7162 51.0674 58.7162C50.5877 58.7162 50.1995 59.1044 50.1995 59.5842V61.2479C49.0919 62.1243 48.2624 63.6485 48.2661 65.0019C48.2687 65.9054 48.6348 66.6335 49.2697 66.9997C49.9087 67.3667 50.725 67.3158 51.5141 66.8607C51.8175 66.6861 51.9862 66.7064 52.0192 66.7251C52.0701 66.7547 52.1523 66.9158 52.1531 67.2234C52.1557 68.1405 51.4573 69.3492 50.6589 69.8094C50.352 69.9857 50.1817 69.9645 50.1469 69.9476C50.0961 69.9179 50.0155 69.7586 50.0147 69.456C50.013 68.9779 49.6248 68.5906 49.1468 68.5906H49.1442C48.6653 68.5923 48.2771 68.9813 48.2788 69.4611C48.2814 70.3612 48.6467 71.0867 49.2807 71.452C49.5589 71.6111 49.8711 71.6903 50.1995 71.6932V72.6437C50.1995 73.1235 50.5877 73.5116 51.0674 73.5116C51.5471 73.5116 51.9353 73.1235 51.9353 72.6437V70.9844C53.0535 70.1138 53.8928 68.5796 53.889 67.2183C53.8864 66.3148 53.5203 65.5868 52.8846 65.2206Z" fill="black"/>
<path d="M62.3758 59.7011C61.7401 59.3358 60.9256 59.3841 60.1382 59.8376C59.8305 60.0139 59.6602 59.9961 59.6271 59.9749C59.5754 59.9461 59.494 59.7842 59.4932 59.4774C59.4906 58.5586 60.1916 57.3457 60.9934 56.8829C61.2646 56.727 61.4477 56.7202 61.4977 56.7473C61.5494 56.777 61.6316 56.9389 61.6325 57.2457C61.6342 57.7237 62.0224 58.1111 62.5004 58.1111H62.503C62.9818 58.1094 63.37 57.7203 63.3683 57.2406C63.3658 56.3371 62.9996 55.609 62.3639 55.2428C62.0818 55.0803 61.7614 55.0133 61.4274 55.013V54.0647C61.4274 53.585 61.0392 53.1968 60.5594 53.1968C60.0797 53.1968 59.6915 53.585 59.6915 54.0647V55.7284C58.5832 56.6051 57.7536 58.129 57.7573 59.4825C57.7599 60.386 58.126 61.114 58.7609 61.4794C59.4008 61.8472 60.217 61.7955 61.0061 61.3412C61.2748 61.1852 61.457 61.1751 61.5104 61.2056C61.5621 61.2353 61.6444 61.3971 61.6452 61.704C61.6477 62.6202 60.9493 63.8289 60.1501 64.2899C59.8754 64.4476 59.6898 64.4535 59.6381 64.4281C59.5873 64.3984 59.5067 64.2391 59.5059 63.9365C59.5042 63.4576 59.1694 63.0957 58.6354 63.0711C58.1565 63.0728 57.7684 63.4619 57.7701 63.9416C57.7726 64.8417 58.1379 65.5672 58.7727 65.9326C59.0503 66.0918 59.3628 66.171 59.6915 66.1738V67.1243C59.6915 67.604 60.0797 67.9922 60.5594 67.9922C61.0392 67.9922 61.4274 67.604 61.4274 67.1243V65.4643C62.5452 64.5936 63.3849 63.0597 63.381 61.698C63.3777 60.7945 63.0115 60.0664 62.3758 59.7011Z" fill="black"/>
</svg>
