<svg width="93" height="92" viewBox="0 0 93 92" fill="none" xmlns="http://www.w3.org/2000/svg">
<path d="M24.946 81.9868C28.1238 83.8306 33.646 87.065 33.9988 87.2375C35.361 87.9904 36.9494 87.6526 38.3081 86.868L64.7298 71.6124C67.7421 69.8731 70.0942 65.7988 70.084 62.3364L69.9467 13.9412C69.9424 12.3367 69.465 10.838 68.0863 10.0305C68.0833 10.0287 68.0817 10.0255 68.0786 10.0237C64.9877 8.22455 58.6883 4.55784 59.0781 4.78474C57.8576 4.08888 56.3023 4.21432 54.6953 5.14158L28.2727 20.3947C28.2725 20.3948 28.2729 20.3946 28.2727 20.3947C28.2724 20.3949 28.2714 20.3953 28.271 20.3955C25.2616 22.1344 22.9112 26.2043 22.9174 29.6653C22.9174 29.6672 22.916 29.6687 22.916 29.6706L22.9982 56.1059C22.9999 56.5848 23.3881 56.9712 23.8662 56.9712C24.3764 56.9907 24.7358 56.5805 24.7341 56.1008L24.657 31.1802L31.9123 35.4037L32.0115 68.4061L32.0538 83.2963C32.0539 83.3544 32.0849 83.9588 32.1089 84.1481L25.769 80.4594C25.0432 80.1059 24.7976 78.9064 24.7976 78.0549L24.7663 67.5287C24.7646 67.0499 24.3764 66.6633 23.8984 66.6633C23.4152 66.6023 23.0287 67.0541 23.0304 67.5338L23.0618 78.0574C23.0618 80.1958 24.0014 81.5254 24.946 81.9868ZM63.8619 70.1088L37.4402 85.3644C35.2737 86.6172 33.7922 85.7115 33.7922 83.2895L33.7484 68.7785L33.6523 34.896C33.6447 32.0494 35.6517 28.5715 38.1287 27.1346C38.1308 27.1335 38.1332 27.1341 38.1352 27.133C48.3803 21.2248 64.0212 12.1752 64.7479 11.7888C66.6593 10.7806 68.2046 11.4081 68.2108 13.9463L68.3481 62.3415C68.3566 65.1911 66.3445 68.6764 63.8619 70.1088ZM55.5632 6.64519C56.6125 6.04001 57.555 5.91457 58.2111 6.28836L64.523 9.96263C64.5053 9.96994 64.4871 9.9817 64.4694 9.98922C64.2118 10.0965 63.953 10.2196 63.6932 10.3695L37.7054 25.3733C37.5314 25.2722 29.9545 20.8692 30.4375 21.1499L55.5632 6.64519ZM28.7228 22.161C28.8968 22.2622 36.5799 26.7325 36.0923 26.4488C34.1482 28.0554 32.4862 30.8093 32.0394 33.4619C31.8654 33.3607 24.1829 28.8966 24.6706 29.18C24.8615 26.5957 26.5727 23.6315 28.7228 22.161Z" fill="black"/>
<path d="M23.8897 64.7834C24.3694 64.7817 24.7567 64.3918 24.755 63.913L24.7432 59.9709C24.7415 59.492 24.3533 59.1055 23.8753 59.1055H23.8727C23.393 59.1072 23.0056 59.4971 23.0073 59.9759L23.0192 63.918C23.0209 64.3969 23.4091 64.7834 23.8871 64.7834H23.8897Z" fill="black"/>
<path d="M65.9764 17.7587C65.6383 16.9012 64.6853 16.5469 63.7226 17.1027L57.8175 20.5117C57.6565 20.6049 57.5294 20.7473 57.4556 20.9176L55.9079 24.4843L45.4878 30.5004L44.2799 29.1316C44.0062 28.8214 43.5519 28.7468 43.195 28.9536L37.2798 32.3693C36.4195 32.866 35.7745 33.9806 35.7778 34.9621L35.899 74.8069L35.9609 75.2062C36.224 76.1968 37.2392 76.6447 38.2672 76.0512L64.7101 60.7845C65.5746 60.2853 66.2256 59.1631 66.223 58.174L66.1103 18.4444C66.1086 18.1511 66.051 17.8935 65.9764 17.7587ZM63.8422 59.2809L37.6256 74.4077L37.5137 34.9562C37.512 34.5951 37.8265 34.0586 38.1477 33.8729L43.4476 30.8123L44.6554 32.1812C44.9283 32.4914 45.3827 32.5643 45.7403 32.3592L57.0242 25.8446C57.1852 25.7514 57.3124 25.609 57.3861 25.4387L58.9338 21.872L64.3753 18.73L64.4872 58.1791C64.488 58.5469 64.1685 59.0928 63.8422 59.2809Z" fill="black"/>
<path d="M46.9034 27.9865L53.9951 23.8918C54.4104 23.6519 54.5528 23.1214 54.3129 22.706C54.0731 22.2899 53.5399 22.1475 53.1272 22.3882L46.0354 26.4829C45.6201 26.7227 45.4777 27.2533 45.7176 27.6686C45.9581 28.0851 46.4903 28.2251 46.9034 27.9865Z" fill="black"/>
<path d="M54.8281 68.3763L48.4509 72.0591C47.3033 72.7202 46.4405 74.2094 46.4439 75.5231C46.4492 77.1919 47.8781 77.9974 49.3282 77.1624L55.7062 73.4796C56.853 72.8168 57.7159 71.3276 57.7125 70.0147C57.7071 68.3563 56.2872 67.5365 54.8281 68.3763ZM54.8383 71.976L48.4611 75.6587C48.3255 75.7367 48.2382 75.7554 48.2187 75.7715C48.2034 75.7367 48.1806 75.6587 48.1797 75.5181C48.178 74.8273 48.7094 73.9136 49.318 73.5627L55.6961 69.8799C55.8317 69.802 55.9181 69.7825 55.9376 69.7664C55.9529 69.802 55.9758 69.8791 55.9766 70.0198C55.9783 70.7106 55.4469 71.6251 54.8383 71.976Z" fill="black"/>
<path d="M53.2457 12.7071C54.5583 13.4645 56.5288 13.4646 57.8336 12.7054C59.4274 11.7797 59.4326 9.9832 57.8184 9.05063C56.5309 8.3073 54.517 8.3073 53.2313 9.05233C51.6318 9.98207 51.6363 11.7781 53.2457 12.7071ZM54.1034 10.5534C54.859 10.1146 56.1899 10.1148 56.9505 10.5542C57.3896 10.8082 57.3972 10.9511 56.9606 11.2052C56.2054 11.6451 54.8756 11.6434 54.1136 11.2035C53.6538 10.939 53.6867 10.7954 54.1034 10.5534Z" fill="black"/>
<path d="M27.7177 41.2096H27.7203C28.1991 41.2079 28.5873 40.8189 28.5856 40.3391L28.5772 37.2624C28.5755 36.7844 28.1873 36.397 27.7092 36.397H27.7067C27.2278 36.3987 26.8396 36.7878 26.8413 37.2675L26.8498 40.3442C26.8515 40.8223 27.2397 41.2096 27.7177 41.2096Z" fill="black"/>
<path d="M26.8498 47.6182C26.8515 48.0962 27.2397 48.4836 27.7177 48.4836H27.7203C28.1991 48.4819 28.5873 48.0929 28.5856 47.6131L28.5772 44.5355C28.5755 44.0575 28.1873 43.6702 27.7092 43.6702H27.7067C27.2278 43.6719 26.8396 44.0609 26.8413 44.5406L26.8498 47.6182Z" fill="black"/>
<path d="M50.5344 35.5766L50.5321 35.5789C44.8729 38.8472 40.2846 46.7909 40.3033 53.2894C40.3226 60.1739 45.4309 63.1417 51.4659 59.6581C54.2197 58.0689 56.7955 55.36 58.7196 52.0282C60.6487 48.6861 61.7064 45.1009 61.698 41.9343C61.6786 35.0251 56.5577 32.104 50.5344 35.5766ZM42.0391 53.2843C42.0239 47.8453 45.5388 41.2969 50.1047 37.932L50.1624 58.3944C45.5146 60.8327 42.0544 58.6627 42.0391 53.2843ZM51.8957 57.3027L51.8728 49.1197L56.7656 51.9082C55.3807 54.1132 53.6984 55.9738 51.8957 57.3027ZM57.634 50.4047L52.7434 47.6172L59.8757 43.4922C59.6273 45.711 58.8559 48.0977 57.634 50.4047ZM51.8643 46.1103L51.838 36.8403C56.3317 34.4838 59.7271 36.4085 59.9502 41.4427L51.8643 46.1103Z" fill="black"/>
</svg>
