<svg width="93" height="92" viewBox="0 0 93 92" fill="none" xmlns="http://www.w3.org/2000/svg">
<path d="M87.7321 27.4712L77.7747 21.6847C77.6942 21.6381 77.6077 21.6051 77.5171 21.5856L63.8769 18.7097C63.3861 18.606 62.8318 18.974 62.8312 19.5575C62.8312 19.559 62.8302 19.5601 62.8302 19.5615L62.8465 25.188L53.791 30.4219L50.1401 28.2891C47.6686 26.8575 44.4376 27.1415 41.0413 29.0875C36.1486 31.9284 31.7408 37.9598 29.9594 44.18L24.5862 47.2721L19.7272 44.4483C19.3415 44.2245 18.8499 44.3271 18.5897 44.6864L15.1977 49.3295C14.9155 49.7168 14.9994 50.2593 15.3867 50.5424C15.7732 50.8263 16.3165 50.7407 16.5996 50.3534L19.5306 46.3418C19.7063 46.4439 28.5209 51.5673 27.9708 51.2476C22.7966 58.3555 21.0543 60.7236 15.4274 68.4323L6.9804 63.5231L12.5583 55.8864C12.8406 55.499 12.7567 54.9566 12.3693 54.6735C11.9811 54.3904 11.4404 54.4752 11.1564 54.8625L5.00977 63.2773C4.70503 63.6943 4.83148 64.2826 5.27421 64.5394L15.2308 70.3258C15.4649 70.4617 17.8328 70.8922 29.1303 73.2881C29.6616 73.4036 30.178 72.9923 30.1762 72.4363L30.1601 66.8126L39.2179 61.5836C41.5085 62.8904 43.0425 63.8969 43.9892 64.2258C51.3525 66.7807 60.4367 56.9295 63.041 47.837L68.4115 44.7296L73.2808 47.5513C73.6628 47.7734 74.1959 47.6063 74.4124 47.3106L88.0042 28.7366C88.2958 28.3383 88.1533 27.716 87.7321 27.4712ZM64.5821 25.191L64.5702 21.0694C64.7762 21.1891 73.3109 26.149 72.7892 25.8458L72.8003 29.9732L72.7654 29.953L64.5821 25.191ZM77.0229 23.2553L82.1866 26.2561L73.961 24.5193L68.8048 21.5229L77.0229 23.2553ZM63.707 26.6959C63.8827 26.798 72.4663 31.7875 71.9447 31.4843C71.7704 31.5847 62.0931 37.1604 62.675 36.8251C62.1457 35.843 61.3693 34.9497 60.4585 34.3363C60.1446 34.1232 58.4978 33.1715 55.5265 31.4243L63.707 26.6959ZM41.9084 30.5911C44.7419 28.9672 47.3567 28.6841 49.2671 29.7893L55.2616 33.291C48.4103 34.3732 42.226 42.6086 40.1218 49.2409L31.7002 44.3548C33.4174 38.6473 37.4603 33.1737 41.9084 30.5911ZM26.3197 48.2776L30.6788 45.7696L38.91 50.5452L30.1287 55.6193L30.1152 50.9823C30.1152 50.7279 29.973 50.4023 29.6837 50.2347C29.5081 50.1325 26.1023 48.1512 26.3197 48.2776ZM28.8565 65.5607C28.587 65.7167 28.4217 66.004 28.4225 66.315L28.437 71.3692L17.1607 69.0027C21.7408 62.7326 23.9184 59.7515 28.3869 53.634C28.3884 53.9927 28.3817 52.3348 28.4016 57.1418C28.4138 57.8615 29.1608 58.1858 29.699 57.8748L39.3648 52.2935C38.8602 55.1739 39.0559 57.4827 39.586 59.2543C39.5955 59.2857 39.5983 59.3226 39.6081 59.3539L28.8565 65.5607ZM44.558 62.5857C40.0957 61.0376 40.3328 54.4165 41.8037 49.7707C43.8453 43.3547 50.1542 34.9839 56.5862 34.9558C58.9584 34.9502 60.6322 36.2449 61.4842 38.3719C61.484 38.3715 61.4844 38.3724 61.4842 38.3719C61.4843 38.3722 61.4849 38.3734 61.485 38.3736C62.5291 40.9599 62.2029 44.3476 61.4842 47.0164C59.0335 56.1261 50.3768 64.6074 44.558 62.5857ZM63.3506 38.4398L74.1106 32.2397C74.4115 32.0669 74.5449 31.6769 74.5454 31.4896C74.5454 31.4888 74.5449 31.4882 74.5449 31.4875C74.5449 31.3127 74.5312 26.2422 74.531 26.417L85.8106 28.7952L74.5763 44.1474L74.5666 40.6714C74.5642 39.99 73.7906 39.6127 73.2597 39.9188C73.0531 40.0383 63.16 45.7626 63.5947 45.5111C63.9782 43.2958 64.0375 40.6273 63.3506 38.4398ZM72.8308 42.1725L72.8399 45.2895L70.1436 43.7273L72.8308 42.1725Z" fill="black"/>
<path d="M13.5628 51.568L12.6889 52.7639C12.4067 53.1504 12.4906 53.6937 12.8779 53.9768C13.2618 54.2573 13.8058 54.1777 14.0908 53.7878L14.9647 52.5919C15.2469 52.2045 15.163 51.6621 14.7757 51.379C14.3875 51.0967 13.845 51.1815 13.5628 51.568Z" fill="black"/>
<path d="M51.0505 48.1386C50.7454 48.3158 50.5123 48.342 50.4208 48.2878C50.3301 48.2361 50.2377 48.0284 50.2368 47.6818C50.2343 46.6596 51.0141 45.3102 51.9049 44.7958C52.2083 44.6212 52.4355 44.5949 52.5287 44.6483C52.6194 44.7008 52.7118 44.9085 52.7126 45.256C52.7135 45.7349 53.094 46.1502 53.5831 46.1214C54.062 46.1205 54.4493 45.7306 54.4485 45.2509C54.4459 44.2965 54.062 43.5286 53.3949 43.1447C53.0789 42.9619 52.7178 42.8856 52.3388 42.8988V41.7987C52.3388 41.319 51.9506 40.9308 51.4709 40.9308C50.9912 40.9308 50.603 41.319 50.603 41.7987V43.5918C49.3922 44.5232 48.4972 46.2183 48.501 47.6869C48.5081 49.6891 50.167 50.6497 51.9184 49.6422C52.2227 49.4651 52.4499 49.4388 52.5423 49.4948C52.633 49.5465 52.7253 49.755 52.7262 50.1016C52.7296 51.1213 51.9532 52.4647 51.0641 52.9775C50.7564 53.1572 50.5225 53.18 50.4326 53.1275C50.3428 53.0758 50.2512 52.8707 50.2504 52.5283C50.2487 52.0494 49.8605 51.6629 49.3825 51.6629H49.3799C48.9002 51.6646 48.5129 52.0545 48.5146 52.5333C48.5199 54.0382 49.4456 54.8862 50.5454 54.8862C50.5641 54.8862 50.5841 54.8782 50.603 54.8777V55.9932C50.603 56.4729 50.9912 56.8611 51.4709 56.8611C51.9506 56.8611 52.3388 56.4729 52.3388 55.9932V54.2003C53.5604 53.2756 54.4666 51.5725 54.462 50.0965C54.4567 48.0879 52.7878 47.1352 51.0505 48.1386Z" fill="black"/>
</svg>
