<svg width="93" height="92" viewBox="0 0 93 92" fill="none" xmlns="http://www.w3.org/2000/svg">
<path d="M73.5958 13.4351C72.2869 12.6813 61.4355 6.52342 61.2499 6.41795C55.4668 3.05305 47.8462 3.76586 39.7908 8.42503C39.7874 8.42672 39.784 8.42926 39.7806 8.43096C22.0988 18.9975 10.4265 41.8973 10.4644 59.1723C10.5034 68.3381 13.6615 75.2162 19.3666 78.543L31.7574 85.5932C31.7702 85.6005 31.785 85.5974 31.798 85.604C31.8046 85.6078 31.8101 85.6131 31.8167 85.6169C38.4717 89.4468 46.5346 87.444 53.2419 83.5717C58.7538 80.389 64.1173 75.5307 68.7519 69.5222C69.0443 69.1433 68.9739 68.5983 68.5942 68.305C68.2145 68.0092 67.6686 68.0821 67.3771 68.4627C62.8798 74.2932 57.6917 78.9973 52.374 82.0681C44.8916 86.3874 37.8973 87.112 32.683 84.1124C26.6284 80.6287 24.6231 73.2077 24.603 66.2208C24.5764 56.7674 28.0784 46.226 33.6582 37.0086C38.7446 28.6097 45.551 21.3083 53.0521 16.9771C68.3194 8.14058 80.7499 14.9835 80.7994 32.7786C80.8248 41.6494 77.8049 51.7263 72.2964 61.1523C72.0549 61.5668 72.1939 62.0982 72.6075 62.3398C73.0245 62.5839 73.5543 62.4406 73.795 62.0287C79.4568 52.3383 82.5615 41.9495 82.5352 32.7735C82.509 23.6052 79.3348 16.7381 73.5958 13.4351ZM20.2328 77.0385C15.0889 74.0389 12.2367 67.6914 12.2003 59.1672C12.1643 42.3924 23.5431 20.1581 40.6655 9.9244C48.1564 5.5924 55.1566 4.87789 60.3845 7.92241L66.493 11.3983C66.4677 11.3971 66.4413 11.3992 66.4159 11.398C66.3944 11.3971 66.372 11.3987 66.3504 11.3977C61.499 11.1944 56.4646 13.0159 52.2757 15.4243C52.2455 15.4415 52.216 15.4536 52.1859 15.471C44.5012 19.9074 37.5272 27.3682 32.2978 35.9567C26.4892 45.4929 22.8343 56.4237 22.8553 66.2225C22.8766 71.0813 23.8403 76.4045 26.5122 80.5133C26.5434 80.5615 26.5699 80.615 26.6016 80.6628L20.2328 77.0385Z" fill="black"/>
<path d="M70.9497 66.5073C71.3447 65.9343 71.7312 65.3546 72.11 64.7698C72.3702 64.3672 72.255 63.8298 71.8524 63.5696C71.4489 63.3094 70.9124 63.4263 70.6522 63.8272C70.2835 64.3985 69.9055 64.963 69.5207 65.5224C69.2486 65.9174 69.3478 66.4581 69.7427 66.7294C70.1388 67.0031 70.6799 66.8997 70.9497 66.5073Z" fill="black"/>
<path d="M71.9361 36.1562C71.9032 24.0013 64.3169 20.687 54.5878 26.3031C43.1014 32.9354 33.4288 49.6726 33.4669 62.8534C33.4997 74.9981 41.0351 78.3964 50.8347 72.7413C62.4558 66.0313 71.9738 49.1457 71.9361 36.1562ZM55.4557 27.8067C64.2863 22.7078 70.1731 25.7712 70.2003 36.1613C70.2087 39.0534 69.7112 42.1244 68.8389 45.2153L60.6031 50.1151L60.5607 35.4629C60.5599 35.0595 60.281 34.7103 59.8886 34.6196C59.4928 34.5272 59.0919 34.7213 58.9139 35.0824L52.4019 48.3216L46.1866 42.9361C45.9289 42.714 45.567 42.6623 45.2559 42.803C44.9466 42.9445 44.7491 43.2539 44.7499 43.5946L44.794 59.269L35.2971 64.8255C35.2298 64.0827 35.2042 63.4004 35.2028 62.8483C35.1663 50.2125 44.4406 34.1661 55.4557 27.8067ZM49.9668 71.2377C43.0461 75.2325 37.0846 74.6994 35.5546 66.6862L46.1018 60.5149C46.3688 60.359 46.5324 60.0725 46.5315 59.7631L46.4909 45.4974L52.1154 50.3702C52.3197 50.5465 52.5985 50.6177 52.8562 50.5651C53.1198 50.5117 53.3444 50.3388 53.4631 50.0973L58.8359 39.1745L58.8715 51.6433C58.8723 51.9552 59.0402 52.2425 59.3114 52.3959C59.5826 52.5502 59.914 52.5459 60.1836 52.3866L68.0537 47.703C64.7019 57.3135 57.7826 66.7251 49.9668 71.2377Z" fill="black"/>
</svg>
