<svg width="93" height="92" viewBox="0 0 93 92" fill="none" xmlns="http://www.w3.org/2000/svg">
<path d="M6.97912 72.171C6.97828 72.482 7.14355 72.7693 7.41309 72.9253L11.3204 75.1816C11.7324 75.4206 12.2655 75.2799 12.5062 74.8637C12.7461 74.4484 12.6037 73.9178 12.1884 73.678L8.71667 71.6734L8.77515 50.9755L32.3388 69.6095C32.3384 69.7906 32.299 86.329 32.3015 85.2898L25.0191 81.0858C24.6029 80.8451 24.0723 80.9884 23.8333 81.4037C23.5934 81.819 23.7358 82.3496 24.1511 82.5894C24.3272 82.691 32.9142 87.6462 32.7382 87.5446C32.7379 87.5444 32.7385 87.5448 32.7382 87.5446C33.0113 87.7009 33.3415 87.6992 33.6093 87.5436C33.8646 87.3951 37.4812 85.2919 50.3147 77.8287L63.3578 85.4077C63.628 85.5657 63.9602 85.5632 64.2274 85.4093C64.2288 85.4085 64.2294 85.4068 64.2308 85.406L85.5907 73.0541C85.8594 72.899 86.0247 72.6117 86.0238 72.3006L86.0077 67.1753C86.0069 66.8651 85.8407 66.5795 85.5721 66.4252C85.5717 66.425 85.5724 66.4254 85.5721 66.4252C85.5715 66.4249 85.5702 66.4238 85.5695 66.4235L77.7576 61.8859L80.8061 60.1175C81.0731 59.9624 81.2375 59.6776 81.2384 59.3691L81.2901 41.7673C81.2909 41.5267 81.0743 41.1777 80.9561 41.0842L55.6524 21.0744C55.3727 20.8541 54.9862 20.8253 54.6777 21.0049C51.7462 22.7086 49.5411 23.9901 45.0079 26.6245L44.9762 10.8306C44.9754 10.5212 44.8101 10.2356 44.5423 10.0804C44.2728 9.92534 43.943 9.92534 43.6752 10.0804L40.15 12.1096L40.1357 5.20431C40.1349 4.89409 39.9696 4.60846 39.7009 4.4542C39.4331 4.29994 39.1033 4.29994 38.8338 4.4542L19.3411 15.6991C19.0716 15.8542 18.9063 16.1424 18.9072 16.4534L18.929 24.3535L14.5285 26.9016C14.2599 27.0567 14.0946 27.3449 14.0954 27.6551L14.1467 44.5593L7.47581 48.4361C7.26245 48.5603 7.06815 48.8244 7.04693 49.1243C7.03449 49.3002 6.96027 71.991 6.97912 72.171ZM71.9209 58.486L69.1147 56.8521L71.9302 55.2176L71.9209 58.486ZM63.145 60.4997L74.6154 67.1634L63.7841 73.4262L52.3375 66.7752L63.145 60.4997ZM46.8977 75.8522L48.58 76.8302L46.8909 77.8126L46.8977 75.8522ZM46.9045 73.8483L46.9155 70.7216C48.5522 71.6732 40.9913 67.277 62.9094 80.021L62.9204 83.1463C61.5556 82.354 50.3596 75.8542 46.9045 73.8483ZM64.6588 83.1531L64.6495 80.0297L84.277 68.6798L84.2863 71.8031L64.6588 83.1531ZM63.7805 78.5185C41.8755 65.7804 49.4421 70.1805 47.8029 69.2273L50.4533 67.6879L63.3476 75.1799C63.6157 75.3367 63.948 75.337 64.2181 75.1807L76.7809 67.9161C77.0488 67.7618 77.2141 67.4753 77.2141 67.166C77.2141 66.8566 77.0496 66.5701 76.7818 66.415L64.716 59.4056L67.3753 57.8619L83.4031 67.1719L63.7805 78.5185ZM79.5042 58.8656L76.0317 60.8795L73.6539 59.495L73.6703 53.7106C73.6712 53.3995 73.5059 53.1122 73.2363 52.9563C72.9685 52.802 72.6363 52.8012 72.3667 52.9571C52.8405 64.2881 86.3488 44.8401 45.6484 68.4645C45.6455 68.4661 45.6445 68.4695 45.6416 68.471L45.634 68.4755C45.3665 68.6318 45.1858 68.9932 45.1848 69.24C45.184 69.4489 45.1495 79.4604 45.1517 78.8241L34.0441 85.2839C34.0446 85.1028 34.0842 68.657 34.0817 69.6961C38.7607 66.9773 17.191 79.5111 79.55 43.2752L79.5042 58.8656ZM46.8503 27.5618L54.5844 33.6771L25.3725 50.6525L17.64 44.5381C61.1688 19.2836 12.7948 47.3615 46.8503 27.5618ZM43.2438 12.3316L43.2743 27.632L40.1859 29.4267L40.1541 14.1093L43.2438 12.3316ZM38.4032 6.70707C38.4658 39.2256 38.4442 28.0099 38.4489 30.4362C14.1392 44.4727 22.5237 39.6315 20.7099 40.6788L20.6447 16.9518L38.4032 6.70707ZM18.9258 26.3608L18.9716 41.6809L15.8796 43.4608L15.833 28.1518L18.9258 26.3608ZM16.0266 45.4748L24.7597 52.3807C25.0435 52.6047 25.43 52.6278 25.7336 52.4503L56.5585 34.5374C57.0858 34.2315 57.1424 33.4868 56.661 33.1067L48.4632 26.6245L55.0396 22.8027L78.8795 41.6546C78.7019 41.7578 33.5569 67.9856 33.2843 68.144L9.45067 49.2964L16.0266 45.4748Z" fill="black"/>
<path d="M20.672 78.5761L16.5367 76.1885C16.1205 75.9478 15.5916 76.0902 15.3509 76.5063C15.111 76.9216 15.2534 77.4522 15.6687 77.6921L19.8041 80.0797C20.218 80.3188 20.7498 80.1776 20.9899 79.7619C21.2297 79.3466 21.0873 78.816 20.672 78.5761Z" fill="black"/>
<path d="M66.41 44.1346C67.8155 44.946 70.0225 44.9468 71.4336 44.1252C73.1411 43.134 73.1313 41.2298 71.4056 40.2323C69.9885 39.4152 67.789 39.4084 66.3939 40.2187C64.6721 41.2194 64.6746 43.1328 66.41 44.1346ZM67.266 41.719C68.1297 41.2183 69.6562 41.2265 70.5377 41.7359C71.0835 42.05 71.12 42.3003 70.5614 42.625C69.6859 43.1327 68.1518 43.1353 67.2779 42.631C66.7349 42.318 66.6797 42.0613 67.266 41.719Z" fill="black"/>
<path d="M60.0021 39.3653C61.4096 40.1778 63.6186 40.1743 65.0257 39.356C66.7332 38.3647 66.7235 36.4605 64.9978 35.463C63.5806 34.6459 61.3803 34.6392 59.9868 35.4494C58.2618 36.451 58.2666 38.3634 60.0021 39.3653ZM60.8582 36.9497C61.7218 36.449 63.2484 36.4572 64.1298 36.9666C64.6696 37.2773 64.7165 37.528 64.1544 37.8557C63.2797 38.3643 61.7447 38.3668 60.87 37.8617C60.3293 37.5501 60.2684 37.293 60.8582 36.9497Z" fill="black"/>
</svg>
