<svg width="93" height="92" viewBox="0 0 93 92" fill="none" xmlns="http://www.w3.org/2000/svg">
<path d="M80.2374 21.9991L77.5812 20.4589L78.5711 19.4038C78.8398 19.1164 78.8821 18.685 78.6753 18.3511C77.2587 16.0719 75.449 14.3213 73.3553 13.0822C73.1092 12.8638 74.0513 13.4754 61.9356 6.40693C53.1802 1.31993 42.5159 7.22059 42.6895 7.17399C42.3349 7.3791 42.2963 7.74245 42.2555 7.92834L42.2678 11.9192L38.8203 9.91592C38.533 9.7481 38.177 9.76081 37.9015 9.94474C32.1956 13.7656 26.7897 19.2919 22.2687 25.9276C21.9983 26.3243 22.1009 26.8642 22.4967 27.1337C22.8925 27.4024 23.4324 27.3015 23.7028 26.9057C27.9814 20.626 33.0618 15.376 38.4202 11.6908L48.0606 17.2924C43.8485 20.304 38.9359 25.0713 34.6717 31.0134C28.9436 38.9952 24.5633 48.4402 22.8517 58.2281C21.62 65.2684 22.0754 70.8273 23.3618 75.1038C23.9499 77.0622 24.7008 78.7163 25.6 80.1623C25.6631 80.2636 25.7183 80.3731 25.7829 80.4727C25.7873 80.4796 25.791 80.4872 25.7955 80.4941L20.6346 77.4954C15.4533 74.4839 12.5868 68.1084 12.5622 59.5419C12.5461 53.9097 13.7929 47.6147 16.167 41.3375C16.3365 40.8891 16.1102 40.3882 15.6618 40.2187C15.2168 40.0509 14.7134 40.2746 14.543 40.7239C12.0952 47.1968 10.8094 53.7054 10.8263 59.547C10.8526 68.7551 14.026 75.6629 19.7624 78.9956L31.0512 85.5564C31.0713 85.5681 31.088 85.5842 31.1081 85.5957C37.8199 89.4558 45.9428 87.4129 52.6715 83.5268C59.7107 79.4558 66.5168 72.654 71.8353 64.3765C72.1065 63.9537 71.9627 63.3961 71.5353 63.1526L50.639 51.2508L50.6244 45.4881C61.0105 51.5158 63.6666 52.952 74.0077 58.8697C74.4268 59.1089 74.976 58.9611 75.2087 58.5138C79.7238 49.7845 82.197 40.5221 82.1741 32.4336C82.164 28.7382 81.6419 25.3835 80.6214 22.461C80.5743 22.3259 80.3385 22.0576 80.2374 21.9991ZM76.8395 18.7121C74.6435 21.0518 84.7946 10.2367 55.3626 41.5938C55.3554 38.8794 55.3884 51.4246 55.2927 15.0581C58.1433 13.7358 61.1886 12.7906 64.3164 12.6459C64.3216 12.6457 64.3269 12.6452 64.3321 12.645C67.2739 12.5115 69.9686 13.1094 72.2827 14.4345C74.0442 15.4471 75.5865 16.8659 76.8395 18.7121ZM53.551 14.9922C53.6478 52.3852 53.6144 39.4835 53.6216 42.2783C53.4476 42.1773 50.419 40.4201 50.6118 40.532L50.5525 17.228C50.5517 16.9085 50.2871 16.576 50.1203 16.4796L44.0067 12.9282L43.9965 9.43937L53.551 14.9922ZM61.0626 7.90715L66.2532 10.9237C63.0544 10.7291 58.9669 11.4042 54.4662 13.5079L45.0208 8.02359C51.1092 5.4587 56.7578 5.40562 61.0626 7.90715ZM69.8749 64.2053C64.7809 71.9064 58.3893 78.215 51.8027 82.024C40.421 88.5955 28.8494 87.0936 25.0512 74.749C25.0427 74.7217 25.0383 74.6905 25.03 74.6631C23.4634 69.5035 23.6323 63.6388 24.618 58.1794C26.2851 48.9525 30.5434 39.7247 35.9993 32.1075C39.6326 27.0348 43.8686 22.5135 48.8202 18.9232L48.8203 18.9795C48.8208 19.166 48.9047 51.9626 48.904 51.7577C48.9048 52.0687 49.0718 52.3561 49.3422 52.5103L69.8749 64.2053ZM50.6168 42.5423L54.0573 44.5388C54.2311 44.6396 54.8416 44.6952 55.1337 44.3854C57.3051 42.0723 47.2677 52.7647 76.3699 21.7634L78.4194 22.9516C49.076 54.2061 58.5027 44.1655 56.1381 46.6841L50.6195 43.4785L50.6191 43.411L50.6168 42.5423ZM74.0763 56.911L57.6917 47.574C59.9275 45.192 49.6206 56.1728 79.4183 24.4269C80.0875 26.8285 80.4298 29.5154 80.4383 32.4387C80.4603 40.0059 78.2049 48.664 74.0763 56.911Z" fill="black"/>
<path d="M17.0628 36.9199C17.4899 37.1228 18.0117 36.9427 18.2172 36.5045C18.9715 34.9035 19.8039 33.2998 20.6913 31.7377C20.9286 31.3207 20.7828 30.791 20.3658 30.5545C19.9463 30.3163 19.4182 30.463 19.1826 30.88C18.2723 32.4802 17.4196 34.1245 16.6475 35.7655C16.4432 36.1994 16.6288 36.7164 17.0628 36.9199Z" fill="black"/>
</svg>
