<svg width="93" height="92" viewBox="0 0 93 92" fill="none" xmlns="http://www.w3.org/2000/svg">
<path d="M77.381 10.786C71.1926 7.22168 71.6387 7.44721 66.9354 4.71226C65.9556 4.13251 64.6435 4.23422 63.3348 4.98688C60.9209 6.3803 59.0461 9.62485 59.0647 12.3693L59.0765 17.7986L51.6263 13.4797C50.6821 12.9186 49.4328 13.0033 48.1987 13.717C45.9492 15.0189 44.188 18.0702 44.188 20.6689L44.2132 26.4088L36.7699 22.0724C35.8138 21.4944 34.5899 21.5707 33.3135 22.2979C31.0708 23.6269 29.3129 26.6782 29.3129 29.2447L29.3372 35.1306L21.8186 30.772C20.8099 30.1889 19.5284 30.2804 18.2062 31.0314C15.8109 32.4163 13.936 35.6694 13.936 38.4393L14.0649 80.7167C14.0666 81.0235 14.2293 81.3083 14.4971 81.4643C14.6728 81.5664 25.1252 87.6453 24.9495 87.5431C25.2459 87.7117 25.5756 87.6859 25.8208 87.5431C27.1853 86.7486 56.945 69.5688 57.1187 69.4693C57.534 69.2303 57.6764 68.6997 57.4357 68.2844C57.1967 67.8673 56.6644 67.7249 56.2507 67.9674L26.2502 85.2871C26.2378 81.0995 26.2951 100.419 26.1294 44.4995C26.1244 42.4465 27.6321 39.7098 29.5282 38.6139C31.058 37.7267 32.0826 38.3219 32.0862 40.0615C32.0865 40.2398 32.1079 50.3383 32.1065 49.7019C32.1585 53.1581 35.2006 54.5328 38.2711 51.9296C40.3219 50.1893 41.5503 47.3351 41.5503 45.242L41.5147 35.3066C41.4941 33.5536 42.862 30.9104 44.6558 29.8889C46.0851 29.0727 46.9443 29.6554 46.9477 31.1823L46.9748 40.8769C46.9987 48.2046 56.4084 43.8087 56.4084 36.6678C56.4078 36.493 56.374 26.0707 56.3762 26.7358C56.3651 22.5343 61.8135 18.5921 61.8228 22.5929C61.8231 22.7677 61.8426 33.0313 61.8414 32.3791C61.8915 35.5989 64.258 37.0689 67.0117 35.4795C69.4555 34.0703 71.2845 30.5768 71.2784 28.075L71.2513 18.4567V18.4481C71.2442 15.3732 74.1981 11.994 76.0695 12.1663C76.9472 12.2629 77.2063 13.1334 77.2081 14.0102L77.3267 55.7978L65.4809 62.6378C65.0656 62.8768 64.9232 63.4074 65.1639 63.8227C65.4012 64.238 65.9318 64.3787 66.3488 64.1397L78.6303 57.0488C78.8998 56.8945 79.066 56.6064 79.0643 56.2961L78.9439 14.0069C78.9405 12.5083 78.3845 11.3641 77.381 10.786ZM60.8006 12.3608C60.7853 10.2521 62.3432 7.56353 64.2011 6.49049C64.9385 6.065 65.6335 5.95821 66.0573 6.20909L74.0754 10.8911C71.0672 12.4191 69.9974 15.2824 69.5161 18.4441C69.5161 18.4465 69.5154 18.4491 69.5154 18.4516V18.4624L69.5324 28.0767C69.5324 30.2795 67.9347 32.8986 66.1706 33.956C66.1627 33.9606 66.1549 33.9678 66.1469 33.9725C64.4815 34.9238 63.5934 34.1484 63.5857 32.3672C63.5853 32.1924 63.5586 21.9406 63.5603 22.5929C63.5603 21.0997 62.8607 19.9904 62.0686 19.5331L60.8166 18.8073L60.8006 12.3608ZM45.9238 20.6655C45.9238 18.6991 47.363 16.2055 49.0666 15.2189C49.7328 14.8341 50.355 14.7459 50.7482 14.9765L58.8528 19.6789C56.6083 20.8285 54.6386 24.0446 54.6386 26.7409C54.6392 26.9157 54.6694 37.3265 54.6675 36.6678C54.6823 40.9333 48.7191 45.84 48.7191 40.8667L48.6852 31.184C48.6852 29.7087 48.0117 28.5963 47.1952 28.1259C45.4949 27.1543 46.0803 27.4945 45.9528 27.4223L45.9238 20.6655ZM31.0487 29.2413C31.0487 27.2986 32.4913 24.8034 34.1848 23.7981C34.8781 23.4032 35.4799 23.3184 35.8749 23.5608C35.8799 23.5625 35.885 23.5659 35.8884 23.5676L43.9778 28.2801C41.5293 29.5738 39.769 32.8202 39.7771 35.3219C39.7775 35.4966 39.7988 45.904 39.7975 45.2454C39.7975 47.1453 38.6207 49.3471 37.1784 50.5845C35.4975 52.0287 33.8543 51.9396 33.8491 49.6867C33.8487 49.5084 33.8238 39.4117 33.8254 40.048C33.7983 37.0167 31.5708 36.5459 31.0778 36.1396L31.0487 29.2413ZM15.6719 38.4359C15.6719 36.3034 17.2297 33.6013 19.069 32.5367C19.8284 32.1027 20.4963 32.0112 20.9472 32.274L28.9891 36.9357C26.4187 38.2011 24.3901 41.7057 24.3901 44.4995C24.5538 100.394 24.4973 81.1008 24.5095 85.2775L15.799 80.2132L15.6719 38.4359Z" fill="black"/>
<path d="M62.8651 64.1481L59.1865 66.2722C58.7712 66.5112 58.6288 67.0418 58.8695 67.4571C59.1073 67.8719 59.6399 68.0146 60.0545 67.7741L63.733 65.65C64.1483 65.411 64.2907 64.8804 64.05 64.4651C63.8126 64.0481 63.2804 63.9074 62.8651 64.1481Z" fill="black"/>
</svg>
