<svg width="93" height="92" viewBox="0 0 93 92" fill="none" xmlns="http://www.w3.org/2000/svg">
<path d="M22.5028 78.6321L35.1394 85.9044C35.1505 85.9108 35.1635 85.908 35.1748 85.9139C35.1782 85.9158 35.1809 85.9186 35.1843 85.9205C40.8326 89.17 47.6602 87.4716 53.3251 84.2007C66.9941 76.3097 78.0779 57.1103 78.033 41.4021C78.0111 33.6652 75.3399 27.8649 70.5152 25.049C70.5095 25.0455 70.5064 25.0395 70.5006 25.0361C70.4923 25.0313 70.4839 25.0264 70.4756 25.0217C70.4673 25.0169 70.4605 25.0103 70.4522 25.0056C70.4441 25.0009 70.4352 24.9984 70.427 24.9937C70.4088 24.9832 70.3906 24.9728 70.3726 24.9624L57.8614 17.7799C57.2328 17.4159 56.5681 17.1137 55.8786 16.862C56.92 15.989 57.4961 14.9335 57.4961 13.8065C57.5533 9.2948 57.5998 9.9254 57.5476 9.44905C57.5088 8.00572 56.5887 6.68349 54.9228 5.72138C51.7156 3.87026 46.7072 3.87026 43.5169 5.72308C41.9005 6.66251 41.0059 7.94374 40.9344 9.34077C40.8633 9.70152 40.9374 8.62369 40.8496 13.7573C40.8496 15.2313 41.787 16.5831 43.4873 17.563C43.5119 17.5773 43.5377 17.5849 43.5624 17.5988C42.2689 18.1122 40.9662 18.7117 39.668 19.4632C39.2536 19.7031 39.1112 20.2337 39.3519 20.649C39.5901 21.0626 40.1207 21.205 40.5377 20.9652C41.717 20.2832 42.9014 19.7011 44.0722 19.2283L44.0611 22.9222C44.0611 23.9003 44.6662 24.7844 45.7588 25.4073C47.6929 26.5366 50.7163 26.5304 52.6344 25.4107C53.5634 24.8775 54.3024 24.014 54.3024 22.9451L54.3315 18.2233C55.2699 18.4755 56.1726 18.8078 56.9943 19.2835L63.9216 23.2604C59.9381 23.2028 55.7304 24.7433 52.3064 26.7185C38.3779 34.7526 27.5572 54.2206 27.601 69.5215C27.6116 73.2799 28.3052 77.3007 30.1463 80.6284C30.2455 80.8078 30.3187 81.0143 30.4235 81.1876L23.3707 77.1285C19.0879 74.6468 16.7197 69.3647 16.7036 62.2517C16.6386 50.4202 23.4697 35.33 34.0206 25.7701C34.3757 25.448 34.4029 24.8988 34.0808 24.5436C33.7579 24.1885 33.2095 24.1639 32.8543 24.4835C22.7163 33.6724 14.8944 48.9774 14.9678 62.2585C14.9856 70.0122 17.6614 75.8266 22.5028 78.6321ZM44.3891 7.2233C47.0444 5.68127 51.3816 5.68168 54.0549 7.22499C55.1958 7.88356 55.8238 8.70487 55.8255 9.5372C55.8311 14.193 42.6512 13.9382 42.6422 9.51431C42.6414 8.693 43.2618 7.87933 44.3891 7.2233ZM42.5854 13.7675L42.599 12.6792C45.2477 14.8165 50.0995 15.3553 53.7656 13.8959C54.4936 13.6077 55.152 13.268 55.7764 12.7826L55.7603 13.7921C55.7603 14.5956 55.1271 15.4228 54.021 16.0627C51.7147 17.4095 47.9574 17.5969 45.2553 16.4874C44.0542 16.0286 42.5854 15.0195 42.5854 13.7675ZM51.7647 23.9088C50.2283 24.8069 47.574 24.6962 46.2746 23.6696C45.9671 23.4267 45.7969 23.1651 45.7969 22.9248L45.8121 18.5015C47.9269 19.0833 50.3033 19.115 52.594 18.4868L52.5666 22.94C52.5666 23.2579 52.2691 23.6189 51.7647 23.9088ZM76.2972 41.4071C76.3404 56.5602 65.6456 75.0833 52.4572 82.6971C46.2156 86.3027 40.386 86.9113 36.0497 84.416C31.0823 81.5577 29.3536 75.3666 29.3411 69.5274C29.2903 54.6372 39.8353 35.9283 53.1658 28.2323C66.0665 20.7859 76.2549 26.6253 76.2972 41.4071Z" fill="black"/>
<path d="M37.2599 20.9923C36.5275 21.4957 35.8054 22.0306 35.0934 22.5934C34.7171 22.8909 34.6535 23.4367 34.951 23.8122C35.1223 24.0292 35.3757 24.1419 35.6325 24.1419C35.8207 24.1419 36.0105 24.0809 36.1699 23.9546C36.8513 23.4164 37.5429 22.9044 38.2431 22.423C38.638 22.1509 38.738 21.611 38.4668 21.216C38.1956 20.8211 37.6548 20.7211 37.2599 20.9923Z" fill="black"/>
<path d="M54.3719 31.9176C42.8227 38.5847 33.0976 55.4304 33.1349 68.7027C33.1717 80.9285 40.9509 84.9579 51.2519 79.0118C62.8062 72.3413 72.5364 55.4931 72.4991 42.2199C72.465 30.0529 64.7312 25.9347 54.3719 31.9176ZM50.384 77.5082C40.8144 83.0336 34.9015 78.968 34.8707 68.6976C34.8351 55.9703 44.1628 39.8154 55.2398 33.4212C64.6311 27.9956 70.7344 31.7418 70.7633 42.225C70.7989 54.9523 61.4662 71.1106 50.384 77.5082Z" fill="black"/>
<path d="M52.3422 41.914C45.9684 45.5942 40.8007 54.5566 40.8218 61.8932C40.8444 69.5248 46.4634 72.9473 53.283 69.0129C59.6619 65.3293 64.8339 56.3687 64.8127 49.0388C64.7898 41.2969 59.0816 38.0261 52.3422 41.914ZM52.4151 67.5093C46.8248 70.7316 42.5752 68.2606 42.5577 61.8882C42.5382 55.1058 47.3169 46.8198 53.2101 43.4176C58.8033 40.1905 63.0593 42.6667 63.0768 49.0439C63.0963 55.8195 58.3134 64.1037 52.4151 67.5093Z" fill="black"/>
<path d="M54.8194 54.5489C54.1277 54.1513 53.2446 54.209 52.386 54.7048C52.024 54.9125 51.7791 54.9193 51.6799 54.8616C51.5825 54.8057 51.4672 54.5955 51.4663 54.1878C51.4629 53.0995 52.2919 51.6654 53.2395 51.1187C53.5997 50.9127 53.8404 50.9093 53.9379 50.9636C54.0362 51.0204 54.1523 51.2314 54.1532 51.6391C54.1549 52.1188 54.5278 52.4943 55.0236 52.5045C55.5034 52.5028 55.8907 52.1129 55.889 51.634C55.8856 50.6474 55.4907 49.8541 54.8041 49.4591C54.4652 49.2643 54.0791 49.1822 53.6734 49.2041V48.0089C53.6734 47.5292 53.2852 47.141 52.8055 47.141C52.3258 47.141 51.9376 47.5292 51.9376 48.0089V49.9146C50.6674 50.8814 49.7259 52.6556 49.7305 54.192C49.733 55.1786 50.128 55.9711 50.8137 56.3661C51.5045 56.7627 52.3919 56.706 53.2539 56.2084C53.6099 56.0033 53.8531 55.9965 53.9531 56.0533C54.0515 56.1101 54.1667 56.3212 54.1676 56.7288C54.171 57.8129 53.3454 59.2419 52.4004 59.7869C52.0385 59.9971 51.7943 60.0022 51.6926 59.9446C51.596 59.8886 51.4816 59.6801 51.4807 59.2784C51.4799 58.7995 51.0909 58.4121 50.6128 58.4121C50.1331 58.413 49.744 58.8029 49.7449 59.2818C49.7474 60.265 50.1416 61.0549 50.8273 61.449C51.1307 61.6236 51.4723 61.7101 51.8333 61.7101C51.8671 61.7101 51.9034 61.6961 51.9376 61.6946V62.917C51.9376 63.3968 52.3258 63.785 52.8055 63.785C53.2852 63.785 53.6734 63.3968 53.6734 62.917V61.0108C54.9547 60.0509 55.908 58.2682 55.9034 56.7246C55.9009 55.7372 55.5059 54.9447 54.8194 54.5489Z" fill="black"/>
</svg>
