<svg width="93" height="92" viewBox="0 0 93 92" fill="none" xmlns="http://www.w3.org/2000/svg">
<rect x="0.5" width="92" height="92" rx="46" fill="black"/>
<path d="M34.1722 66.1152L31.1778 64.3754C30.9034 64.2154 30.5496 64.3083 30.3896 64.5844C30.229 64.8599 30.3231 65.2126 30.5986 65.3726L33.5931 67.1124C33.8652 67.2713 34.22 67.1817 34.3813 66.9034C34.5418 66.6279 34.4477 66.2752 34.1722 66.1152Z" fill="white"/>
<path d="M69.0191 59.6197L68.9431 30.7589C68.9424 30.5601 68.7596 30.322 68.6563 30.262L48.2195 18.3861C48.0409 18.2818 47.82 18.2818 47.6414 18.3849L24.2693 31.879C24.0889 31.9834 23.9814 32.1755 23.9808 32.3781C23.9808 32.3785 23.9811 32.3788 23.9811 32.3793C23.9811 32.3797 23.9808 32.38 23.9808 32.3804L24.0569 61.2406C24.0575 61.4457 24.1668 61.635 24.3437 61.7375L27.9703 63.8452C28.2447 64.0047 28.5996 63.9128 28.759 63.6368C28.9196 63.3613 28.8255 63.008 28.5506 62.848L25.2096 60.9065L25.1375 33.3828C27.4233 34.7111 42.6616 43.5662 44.4179 44.5869C44.4378 52.1552 44.4786 67.6425 44.4903 72.1115L37.2884 67.9265C37.0146 67.7665 36.6607 67.8595 36.5002 68.135C36.3396 68.4105 36.4337 68.7637 36.7092 68.9237L44.7799 73.614C44.7804 73.6143 44.781 73.6142 44.7815 73.6145C44.7812 73.6143 44.7818 73.6146 44.7815 73.6145C44.9578 73.7171 45.1794 73.7183 45.3585 73.6152L68.7307 60.1211C68.9098 60.0175 69.0197 59.8265 69.0191 59.6197ZM33.71 27.7607L52.9954 38.9687L44.9949 43.5878L25.7088 32.3804L33.71 27.7607ZM54.1472 38.3037L34.8629 27.0962L38.9932 24.7114L58.2782 35.9186L54.1472 38.3037ZM54.7245 39.3042L58.8531 36.9202V39.0381L54.7245 41.4613V39.3042ZM47.9288 19.5512L67.2151 30.7589L59.4301 35.2536L40.1441 24.0458L47.9288 19.5512ZM45.6444 72.1175C45.6342 68.2223 45.5822 48.4591 45.5721 44.5872L53.5707 39.9691V42.4692C53.5707 42.9168 54.0574 43.1911 54.4394 42.9667L59.7219 39.8657C59.8988 39.7621 60.007 39.5728 60.007 39.3682V36.2531C60.2691 36.1018 67.9831 31.6481 67.7921 31.7584L67.8642 59.289L45.6444 72.1175Z" fill="white"/>
<path d="M56.4073 44.2006C51.93 46.786 48.2989 53.0725 48.3135 58.2141C48.3294 63.5781 52.2767 65.9376 57.035 63.1895C61.4833 60.6212 65.1373 54.3128 65.1226 49.172C65.1076 43.8032 61.1138 41.4836 56.4073 44.2006ZM56.7948 61.976L56.7921 61.0716C56.791 60.7533 56.533 60.4964 56.2152 60.4964H56.2135C55.8947 60.4975 55.6372 60.7567 55.6383 61.075L55.6429 62.6052C54.4259 63.1553 53.2936 63.3112 52.3288 63.0722L53.1458 61.6491C53.3047 61.3725 53.2089 61.0204 52.9328 60.8615C52.6551 60.7026 52.3035 60.7978 52.1452 61.0745L51.2699 62.5991C50.2529 61.9015 49.6348 60.6234 49.499 58.9202L50.8415 58.1453C51.1176 57.9859 51.2122 57.6332 51.0528 57.3571C50.8933 57.0811 50.539 56.9859 50.2646 57.1459L49.4923 57.5917C49.5974 55.7074 50.1899 53.6948 51.1293 51.8109L51.8297 52.2099C52.106 52.367 52.4586 52.2712 52.6168 51.9941C52.7745 51.7175 52.6776 51.3648 52.401 51.2071L51.675 50.7934C52.9583 48.5794 54.7039 46.6386 56.6376 45.4204L56.64 46.3269C56.6412 46.6446 56.8992 46.9021 57.217 46.9021H57.2186C57.537 46.901 57.795 46.6424 57.7939 46.3235L57.7898 44.789C59.2737 44.1164 60.6329 44.0283 61.7123 44.5314L60.8408 46.0486C60.6819 46.3246 60.7777 46.6773 61.0537 46.8362C61.3313 46.9948 61.6834 46.8989 61.8414 46.6232L62.6574 45.2025C63.4998 46.0634 63.9638 47.4322 63.9688 49.1754C63.9688 49.1899 63.967 49.205 63.967 49.2196L62.5884 50.0155C62.3124 50.1749 62.2177 50.5276 62.3771 50.8037C62.537 51.0805 62.8908 51.1735 63.1653 51.0149L63.8686 50.6089C63.618 52.5913 62.8728 54.6713 61.7833 56.5625L61.0954 56.1706C60.8182 56.0117 60.4661 56.1092 60.3083 56.3864C60.1506 56.663 60.2475 57.0157 60.5241 57.1735L61.1736 57.5435C59.966 59.3654 58.4498 60.9358 56.7948 61.976Z" fill="white"/>
<path d="M57.2552 51.366L57.1545 49.2649C57.1393 48.946 56.8542 48.6992 56.5506 48.7162C56.2322 48.7314 55.9866 49.0018 56.0018 49.3201L56.1224 51.8351C55.3445 52.4449 54.7722 53.5387 54.7747 54.4859C54.7764 55.1026 55.0219 55.6875 55.6279 55.9285L54.3522 59.1419C54.235 59.4382 54.3798 59.7735 54.6756 59.8912C54.9701 60.0076 55.3061 59.8655 55.4249 59.5678L56.9185 55.8056C57.9486 55.2719 58.6644 53.9572 58.6616 52.9045C58.6583 51.9922 58.1042 51.323 57.2552 51.366ZM56.4345 54.766C56.0904 54.9659 55.9297 54.9214 55.9286 54.4826C55.9269 53.8245 56.4289 52.9563 57.0024 52.625C57.348 52.426 57.5067 52.4717 57.5078 52.9079C57.5095 53.5665 57.0081 54.4352 56.4345 54.766Z" fill="white"/>
</svg>
