<svg width="1092" height="239" viewBox="0 0 1092 239" fill="none" xmlns="http://www.w3.org/2000/svg">
<path d="M994.058 185.368C986.458 185.368 979.922 183.696 974.45 180.352C969.079 177.008 964.975 172.245 962.138 166.063C959.3 159.882 957.882 152.688 957.882 144.479C957.882 136.069 959.3 128.773 962.138 122.591C964.975 116.309 969.028 111.495 974.298 108.152C979.567 104.706 986.002 102.983 993.602 102.983C1001.71 102.983 1008.4 104.807 1013.67 108.456C1018.93 112.103 1022.73 117.17 1025.07 123.656C1027.5 130.141 1028.41 137.64 1027.8 146.152H969.89C969.991 152.738 971.004 158.261 972.93 162.72C974.956 167.077 977.743 170.37 981.29 172.6C984.938 174.728 989.194 175.792 994.058 175.792C999.732 175.792 1004.39 174.474 1008.04 171.84C1011.69 169.205 1014.12 165.709 1015.34 161.352H1027.19C1026.28 166.418 1024.25 170.776 1021.11 174.424C1018.07 177.97 1014.22 180.706 1009.56 182.632C1004.9 184.456 999.732 185.368 994.058 185.368ZM970.042 139.16L968.674 137.336H1017.16L1015.79 139.464C1015.89 133.08 1015.03 127.962 1013.21 124.112C1011.39 120.16 1008.75 117.272 1005.31 115.448C1001.96 113.522 998.06 112.56 993.602 112.56C988.94 112.56 984.887 113.573 981.442 115.6C977.996 117.626 975.26 120.615 973.234 124.567C971.308 128.418 970.244 133.282 970.042 139.16Z" fill="#FB5E48"/>
<path d="M907.502 183.999L878.622 104.199H891.846L907.35 151.016L914.95 174.271H915.558L923.158 151.016L938.662 104.199H951.886L923.006 183.999H907.502Z" fill="#FB5E48"/>
<path d="M853.506 184V104.199H865.818V184H853.506ZM859.89 90.5195C857.559 90.5195 855.684 89.9115 854.266 88.6955C852.847 87.3782 852.138 85.6555 852.138 83.5275C852.138 81.3995 852.847 79.7275 854.266 78.5115C855.684 77.2955 857.559 76.6875 859.89 76.6875C862.119 76.6875 863.943 77.2955 865.362 78.5115C866.78 79.7275 867.49 81.3995 867.49 83.5275C867.49 85.6555 866.78 87.3782 865.362 88.6955C863.943 89.9115 862.119 90.5195 859.89 90.5195Z" fill="#FB5E48"/>
<path d="M825.049 183.999C819.475 183.999 815.219 182.682 812.281 180.048C809.443 177.312 808.025 172.904 808.025 166.824V114.383H792.521V104.199H808.025V80.3355L820.185 78.6635V104.199H838.729V114.383H820.337V164.848C820.337 167.888 821.046 170.117 822.465 171.536C823.883 172.853 825.961 173.512 828.697 173.512H839.033V183.999H825.049Z" fill="#FB5E48"/>
<path d="M741.919 185.216C734.116 185.216 727.783 183.189 722.919 179.136C718.156 174.981 715.775 169.509 715.775 162.72C715.775 158.869 716.535 155.424 718.055 152.384C719.575 149.242 721.754 146.608 724.591 144.479C727.428 142.25 730.874 140.629 734.927 139.616C738.98 138.501 743.54 137.944 748.607 137.944H769.431V146.152H750.431C745.668 146.152 741.615 146.76 738.271 147.976C735.028 149.192 732.546 151.016 730.823 153.448C729.1 155.778 728.239 158.616 728.239 161.96C728.239 166.317 729.759 169.813 732.799 172.448C735.94 174.981 740.095 176.248 745.263 176.248C750.735 176.248 755.447 175.032 759.399 172.6C763.452 170.066 766.29 166.57 767.911 162.112V129.432C767.911 125.581 767.202 122.44 765.783 120.007C764.466 117.474 762.439 115.65 759.703 114.535C757.068 113.32 753.775 112.712 749.823 112.712C745.972 112.712 742.628 113.32 739.791 114.535C736.954 115.751 734.724 117.423 733.103 119.551C731.482 121.578 730.57 124.01 730.367 126.848H718.207C718.308 122.085 719.727 117.88 722.463 114.231C725.199 110.583 728.948 107.746 733.711 105.719C738.575 103.693 744.148 102.68 750.431 102.68C755.295 102.68 759.551 103.287 763.199 104.504C766.948 105.719 770.039 107.493 772.471 109.823C775.004 112.053 776.93 114.84 778.247 118.184C779.564 121.528 780.223 125.429 780.223 129.888V165.912C780.223 168.952 780.73 171.13 781.743 172.448C782.756 173.765 784.327 174.424 786.455 174.424H790.711V184H783.111C778.855 184 775.612 182.936 773.383 180.808C771.154 178.68 769.786 175.589 769.279 171.536H768.671C766.442 175.792 762.895 179.136 758.031 181.568C753.268 184 747.898 185.216 741.919 185.216Z" fill="#FB5E48"/>
<path d="M671.261 185.368C663.661 185.368 657.125 183.696 651.653 180.352C646.282 177.008 642.178 172.245 639.341 166.063C636.503 159.882 635.085 152.688 635.085 144.479C635.085 136.069 636.503 128.773 639.341 122.591C642.178 116.309 646.231 111.495 651.501 108.152C656.77 104.706 663.205 102.983 670.805 102.983C678.911 102.983 685.599 104.807 690.869 108.456C696.138 112.103 699.938 117.17 702.269 123.656C704.701 130.141 705.613 137.64 705.005 146.152H647.093C647.194 152.738 648.207 158.261 650.133 162.72C652.159 167.077 654.946 170.37 658.493 172.6C662.141 174.728 666.397 175.792 671.261 175.792C676.935 175.792 681.597 174.474 685.245 171.84C688.893 169.205 691.325 165.709 692.541 161.352H704.397C703.485 166.418 701.458 170.776 698.317 174.424C695.277 177.97 691.426 180.706 686.765 182.632C682.103 184.456 676.935 185.368 671.261 185.368ZM647.245 139.16L645.877 137.336H694.365L692.997 139.464C693.098 133.08 692.237 127.962 690.413 124.112C688.589 120.16 685.954 117.272 682.509 115.448C679.165 113.522 675.263 112.56 670.805 112.56C666.143 112.56 662.09 113.573 658.645 115.6C655.199 117.626 652.463 120.615 650.437 124.567C648.511 128.418 647.447 133.282 647.245 139.16Z" fill="#FB5E48"/>
<path d="M590.904 183.999V104.199H601.848L602.608 118.943H603.216C604.939 113.877 607.979 109.976 612.336 107.24C616.693 104.504 621.557 103.136 626.928 103.136C627.84 103.136 628.701 103.186 629.512 103.288C630.323 103.288 631.083 103.338 631.792 103.439V115.144C631.083 115.042 630.323 114.992 629.512 114.992C628.701 114.89 627.84 114.84 626.928 114.84C622.267 114.84 618.213 115.701 614.768 117.424C611.323 119.146 608.587 121.629 606.56 124.871C604.635 128.013 603.469 131.864 603.064 136.424V183.999H590.904Z" fill="#FB5E48"/>
<path d="M540.992 185.368C535.216 185.368 529.947 184.405 525.184 182.479C520.523 180.453 516.52 177.666 513.176 174.12C509.832 170.472 507.248 166.165 505.424 161.2C503.6 156.133 502.688 150.458 502.688 144.175C502.688 137.994 503.6 132.421 505.424 127.456C507.248 122.389 509.883 118.032 513.328 114.383C516.774 110.736 520.878 107.949 525.64 106.024C530.403 103.997 535.672 102.983 541.448 102.983C547.63 102.983 553.152 104.098 558.016 106.327C562.88 108.557 566.832 111.698 569.872 115.752C572.912 119.805 574.736 124.517 575.344 129.888H563.336C562.526 126.24 561.056 123.2 558.928 120.768C556.8 118.336 554.216 116.512 551.176 115.296C548.136 114.08 544.792 113.472 541.144 113.472C536.99 113.472 533.291 114.232 530.048 115.752C526.907 117.17 524.222 119.247 521.992 121.983C519.763 124.719 518.04 127.962 516.824 131.712C515.71 135.461 515.152 139.666 515.152 144.327C515.152 150.711 516.216 156.183 518.344 160.743C520.574 165.304 523.614 168.8 527.464 171.232C531.315 173.664 535.824 174.88 540.992 174.88C545.147 174.88 548.795 174.12 551.936 172.6C555.078 171.08 557.662 169.053 559.688 166.52C561.816 163.885 563.184 160.744 563.792 157.096H575.8C575.192 162.77 573.318 167.736 570.176 171.992C567.035 176.248 562.931 179.541 557.864 181.871C552.899 184.202 547.275 185.368 540.992 185.368Z" fill="#FB5E48"/>
<path d="M442.822 183.808V122.248H430.358V101.728H442.822V94.736C442.822 87.744 445.001 82.3733 449.358 78.624C453.817 74.8747 460.1 73 468.206 73H485.382V89.872H475.046C472.918 89.872 471.297 90.328 470.182 91.24C469.068 92.152 468.51 93.7733 468.51 96.104V101.728H484.166V122.248H468.51V183.808H442.822Z" fill="white"/>
<path d="M370.522 184.872C362.516 184.872 356.132 182.795 351.37 178.64C346.708 174.485 344.378 168.963 344.378 162.072C344.378 157.816 345.188 154.067 346.81 150.824C348.431 147.48 350.711 144.693 353.65 142.464C356.69 140.133 360.338 138.411 364.594 137.296C368.85 136.181 373.612 135.624 378.882 135.624H396.362V150.52H384.202C381.162 150.52 378.628 150.925 376.602 151.736C374.575 152.445 373.004 153.509 371.89 154.928C370.876 156.245 370.37 157.816 370.37 159.64C370.37 162.173 371.282 164.149 373.106 165.568C375.031 166.987 377.514 167.696 380.554 167.696C384.303 167.696 387.394 166.784 389.826 164.96C392.359 163.136 393.778 160.552 394.082 157.208V129.544C394.082 127.112 393.575 125.187 392.562 123.768C391.65 122.349 390.332 121.387 388.61 120.88C386.988 120.272 385.164 119.968 383.138 119.968C380.706 119.968 378.628 120.373 376.906 121.184C375.284 121.893 373.967 122.907 372.954 124.224C372.042 125.541 371.586 127.112 371.586 128.936H346.506C346.506 123.261 348.076 118.245 351.218 113.888C354.359 109.531 358.767 106.187 364.442 103.856C370.218 101.424 376.956 100.208 384.658 100.208C390.535 100.208 395.652 100.917 400.01 102.336C404.367 103.653 408.015 105.629 410.954 108.264C413.892 110.797 416.071 113.989 417.49 117.84C419.01 121.589 419.77 125.896 419.77 130.76V160.856C419.77 162.579 420.074 163.845 420.682 164.656C421.391 165.365 422.354 165.72 423.57 165.72H427.066V183.808H414.298C409.535 183.808 405.634 182.896 402.594 181.072C399.655 179.147 397.628 176.461 396.514 173.016H395.602C393.676 176.563 390.383 179.451 385.722 181.68C381.06 183.808 375.994 184.872 370.522 184.872Z" fill="white"/>
<path d="M298.21 185.328C289.496 185.328 282.048 183.605 275.866 180.16C269.786 176.613 265.125 171.699 261.882 165.416C258.64 159.133 257.018 151.787 257.018 143.376C257.018 134.56 258.64 126.909 261.882 120.424C265.226 113.939 269.938 108.973 276.018 105.528C282.098 101.981 289.192 100.208 297.298 100.208C306.925 100.208 314.829 102.336 321.01 106.592C327.192 110.747 331.6 116.472 334.234 123.768C336.97 131.064 337.882 139.373 336.97 148.696H282.25C282.149 152.445 282.757 155.637 284.074 158.272C285.493 160.805 287.368 162.781 289.698 164.2C292.13 165.517 294.968 166.176 298.21 166.176C302.061 166.176 305.101 165.467 307.33 164.048C309.661 162.629 311.232 160.755 312.042 158.424H336.21C335.501 163.896 333.424 168.659 329.978 172.712C326.634 176.664 322.226 179.755 316.754 181.984C311.282 184.213 305.101 185.328 298.21 185.328ZM282.25 135.32L280.122 133.04H314.018L311.738 135.32C311.941 131.773 311.434 128.835 310.218 126.504C309.104 124.173 307.432 122.4 305.202 121.184C302.973 119.968 300.338 119.36 297.298 119.36C294.157 119.36 291.472 120.019 289.242 121.336C287.013 122.552 285.29 124.376 284.074 126.808C282.858 129.24 282.25 132.077 282.25 135.32Z" fill="white"/>
<path d="M237.036 183.808C232.071 183.808 228.018 183.048 224.876 181.528C221.836 179.907 219.607 177.627 218.188 174.688C216.871 171.648 216.212 167.949 216.212 163.592V73H241.9V158.424C241.9 160.552 242.407 161.971 243.42 162.68C244.434 163.389 245.7 163.744 247.22 163.744H252.084V183.808H237.036Z" fill="white"/>
<path d="M169.613 79.3506C149.581 62.2246 120.147 58.6517 96.0133 72.584C82.8185 80.2089 73.3566 91.8159 68.2863 105.02C81.6408 116.437 101.263 118.812 117.353 109.531L169.623 79.3606L169.613 79.3506ZM149.341 188.344C174.194 179.562 192 155.859 192 127.994C192 112.754 186.67 98.7621 177.767 87.7639C161.199 93.6223 149.331 109.421 149.331 127.994V188.344H149.341ZM65.0724 116.297C60.2516 142.206 71.8794 169.482 96.0133 183.414C109.208 191.039 124 193.424 137.963 191.208C141.177 173.933 133.422 155.759 117.343 146.467L65.0724 116.297Z" fill="white"/>
</svg>
