<svg width="93" height="92" viewBox="0 0 93 92" fill="none" xmlns="http://www.w3.org/2000/svg">
<path d="M21.0214 52.3748C21.5052 52.3014 21.8369 51.8504 21.7627 51.3675L21.4171 49.0981C21.3445 48.6152 20.8884 48.2843 20.4098 48.3569C19.926 48.4303 19.5943 48.8813 19.6686 49.3642L20.0142 51.6336C20.0865 52.1162 20.5392 52.449 21.0214 52.3748Z" fill="black"/>
<path d="M17.9877 38.3151L19.2939 46.8952C19.3665 47.3798 19.833 47.7107 20.3012 47.6364C20.785 47.563 21.1167 47.112 21.0424 46.6291L20.0144 39.8753L40.9654 52.0496L46.1091 85.8756L25.1614 73.7023L22.1689 54.0291C22.0981 53.5453 21.6367 53.2188 21.1616 53.2879C20.6778 53.3613 20.3461 53.8123 20.4204 54.2952L23.4768 74.3874C23.5166 74.6526 23.6755 74.885 23.907 75.0189L46.8258 88.3382L46.8325 88.34C47.1508 88.5222 47.4592 88.4901 47.7053 88.3468L61.0837 80.6112C61.3469 80.9691 61.648 81.287 62.0284 81.5092C63.5837 82.4091 65.4314 83.5074 65.7742 83.6747C67.106 84.4159 68.6309 84.0754 69.9399 83.3199C72.7976 81.6699 75.0299 77.8075 75.0229 74.5273C75.0178 72.7762 74.375 71.4441 73.2122 70.7755C72.4929 70.3618 69.342 68.5266 69.5217 68.6296C69.0526 68.3612 68.5248 68.253 67.9744 68.2332C70.1663 32.9979 70.1445 35.9237 69.9813 35.4242C69.8342 34.9749 69.9402 35.33 59.981 17.3081C59.9033 17.169 59.7892 17.0532 59.651 16.9729L36.7409 3.65528C36.397 3.45313 35.9599 3.50932 35.6783 3.78832C35.3932 4.06649 35.331 4.50102 35.5228 4.84916L45.0573 22.0358L18.4196 37.4158C18.1799 37.6697 17.921 37.8877 17.9877 38.3151ZM46.247 23.3915L67.4031 35.6861C65.4178 36.8323 44.6999 48.7942 41.7825 50.4786C33.5052 45.6687 24.1025 40.2048 20.626 38.1847L46.247 23.3915ZM47.9495 86.162L42.7465 51.9685C44.5834 50.9077 48.2252 48.8046 68.1775 37.2821L66.182 68.5484C66.0017 68.6152 65.3621 68.9304 65.3354 68.9458C62.4604 70.6061 60.2246 74.4781 60.2436 77.7548C60.2436 78.1925 60.2835 78.6042 60.361 78.9859L47.9495 86.162ZM69.0552 81.7874C68.0946 82.3428 67.2065 82.4629 66.6174 82.1252C65.8773 81.6988 65.6961 80.6591 65.71 79.8053C65.744 77.8138 66.8061 75.5125 68.3075 73.9272C71.2136 70.8733 73.2189 72.7109 72.3411 72.3174C72.9248 72.6622 73.2502 73.4466 73.2537 74.5316C73.2606 77.1475 71.3376 80.47 69.0552 81.7874ZM69.6807 70.7694C69.0211 71.0547 68.3691 71.4518 67.4676 72.2994C65.4585 74.1807 64.0309 77.0682 63.9521 79.6634C63.9463 79.8404 63.8979 79.9145 63.967 80.5909L62.9199 79.9801C62.2366 79.5831 62.0181 78.5467 62.0181 77.7574C62.0025 75.0862 63.891 71.8216 66.2321 70.4766C66.8776 70.0991 67.9425 69.764 68.6371 70.1621L69.6807 70.7694ZM58.5522 18.3802L66.8368 33.3106L46.9105 21.7286L38.6276 6.79808L58.5522 18.3802Z" fill="black"/>
<path d="M25.799 38.9613L41.3471 47.9914C41.6171 48.1503 41.9575 48.1521 42.2335 47.9932L62.2323 36.4491C62.5053 36.291 62.6747 35.9999 62.6747 35.6846C62.6747 35.3684 62.5071 35.0773 62.2341 34.9183C62.0548 34.8141 46.4668 25.7676 46.6449 25.8606C46.3692 25.7166 46.1177 25.7158 45.8413 25.859C45.6639 25.9509 25.98 37.2876 25.8007 37.4296C25.5277 37.5877 25.3584 37.8797 25.3584 38.195C25.3584 38.5103 25.526 38.8023 25.799 38.9613ZM47.1265 43.1262V28.1748L60.026 35.6802L47.1265 43.1262ZM45.3573 28.1694V44.1475L41.7929 46.2049L28.0071 38.1976L45.3573 28.1694Z" fill="black"/>
</svg>
