<svg width="1052" height="128" viewBox="0 0 1052 128" fill="none" xmlns="http://www.w3.org/2000/svg">
<path d="M1012.89 121.368C1007.12 121.368 1001.85 120.405 997.086 118.48C992.425 116.555 988.371 113.768 984.926 110.12C981.582 106.472 978.948 102.165 977.022 97.1999C975.198 92.1332 974.286 86.5092 974.286 80.3279C974.286 72.1199 975.857 64.9252 978.998 58.7439C982.14 52.5626 986.598 47.7492 992.374 44.3039C998.251 40.7572 1005.09 38.9839 1012.89 38.9839C1018.67 38.9839 1023.89 39.9466 1028.55 41.8719C1033.31 43.6959 1037.37 46.4319 1040.71 50.0799C1044.05 53.7279 1046.64 58.0852 1048.46 63.1519C1050.29 68.2186 1051.2 73.8932 1051.2 80.1759C1051.2 88.2826 1049.63 95.4266 1046.49 101.608C1043.45 107.789 1039.04 112.653 1033.26 116.2C1027.49 119.645 1020.7 121.368 1012.89 121.368ZM1012.89 110.728C1018.06 110.728 1022.57 109.563 1026.42 107.232C1030.27 104.8 1033.26 101.304 1035.39 96.7439C1037.62 92.0826 1038.73 86.5599 1038.73 80.1759C1038.73 75.4132 1038.13 71.1572 1036.91 67.4079C1035.69 63.5572 1033.97 60.3146 1031.74 57.6799C1029.51 54.9439 1026.83 52.8666 1023.69 51.4479C1020.54 50.0292 1016.95 49.3199 1012.89 49.3199C1007.73 49.3199 1003.17 50.5866 999.214 53.1199C995.364 55.5519 992.323 59.0479 990.094 63.6079C987.966 68.1679 986.902 73.7412 986.902 80.3279C986.902 84.9892 987.459 89.2452 988.574 93.0959C989.79 96.8452 991.513 100.037 993.742 102.672C996.073 105.307 998.859 107.333 1002.1 108.752C1005.34 110.069 1008.94 110.728 1012.89 110.728Z" fill="white"/>
<path d="M923.147 120L894.267 40.1999H907.491L922.995 87.0159L930.595 110.272H931.203L938.803 87.0159L954.307 40.1999H967.531L938.651 120H923.147Z" fill="white"/>
<path d="M869.15 120V40.1999H881.462V120H869.15ZM875.534 26.5199C873.204 26.5199 871.329 25.9119 869.91 24.6959C868.492 23.3786 867.782 21.6559 867.782 19.5279C867.782 17.3999 868.492 15.7279 869.91 14.5119C871.329 13.2959 873.204 12.6879 875.534 12.6879C877.764 12.6879 879.587 13.2959 881.006 14.5119C882.425 15.7279 883.134 17.3999 883.134 19.5279C883.134 21.6559 882.425 23.3786 881.006 24.6959C879.587 25.9119 877.764 26.5199 875.534 26.5199Z" fill="white"/>
<path d="M840.693 120C835.12 120 830.864 118.683 827.925 116.048C825.088 113.312 823.669 108.904 823.669 102.824V50.3839H808.165V40.1999H823.669V16.3359L835.829 14.6639V40.1999H854.373V50.3839H835.981V100.848C835.981 103.888 836.69 106.117 838.109 107.536C839.528 108.853 841.605 109.512 844.341 109.512H854.677V120H840.693Z" fill="white"/>
<path d="M766.91 121.368C761.134 121.368 755.865 120.405 751.102 118.48C746.441 116.453 742.438 113.667 739.094 110.12C735.75 106.472 733.166 102.165 731.342 97.1999C729.518 92.1332 728.606 86.4586 728.606 80.1759C728.606 73.9946 729.518 68.4212 731.342 63.4559C733.166 58.3892 735.801 54.0319 739.246 50.3839C742.692 46.7359 746.796 43.9492 751.558 42.0239C756.321 39.9972 761.59 38.9839 767.366 38.9839C773.548 38.9839 779.07 40.0986 783.934 42.3279C788.798 44.5572 792.75 47.6986 795.79 51.7519C798.83 55.8052 800.654 60.5172 801.262 65.8879H789.254C788.444 62.2399 786.974 59.1999 784.846 56.7679C782.718 54.3359 780.134 52.5119 777.094 51.2959C774.054 50.0799 770.71 49.4719 767.062 49.4719C762.908 49.4719 759.209 50.2319 755.966 51.7519C752.825 53.1706 750.14 55.2479 747.91 57.9839C745.681 60.7199 743.958 63.9626 742.742 67.7119C741.628 71.4612 741.07 75.6666 741.07 80.3279C741.07 86.7119 742.134 92.1839 744.262 96.7439C746.492 101.304 749.532 104.8 753.382 107.232C757.233 109.664 761.742 110.88 766.91 110.88C771.065 110.88 774.713 110.12 777.854 108.6C780.996 107.08 783.58 105.053 785.606 102.52C787.734 99.8852 789.102 96.7439 789.71 93.0959H801.718C801.11 98.7706 799.236 103.736 796.094 107.992C792.953 112.248 788.849 115.541 783.782 117.872C778.817 120.203 773.193 121.368 766.91 121.368Z" fill="white"/>
<path d="M683.194 121.368C675.594 121.368 669.058 119.696 663.586 116.352C658.216 113.008 654.112 108.245 651.274 102.064C648.437 95.8826 647.018 88.6879 647.018 80.4799C647.018 72.0692 648.437 64.7732 651.274 58.5919C654.112 52.3092 658.165 47.4959 663.434 44.1519C668.704 40.7066 675.138 38.9839 682.738 38.9839C690.845 38.9839 697.533 40.8079 702.802 44.4559C708.072 48.1039 711.872 53.1706 714.202 59.6559C716.634 66.1412 717.546 73.6399 716.938 82.1519H659.026C659.128 88.7386 660.141 94.2612 662.066 98.7199C664.093 103.077 666.88 106.371 670.426 108.6C674.074 110.728 678.33 111.792 683.194 111.792C688.869 111.792 693.53 110.475 697.178 107.84C700.826 105.205 703.258 101.709 704.474 97.3519H716.33C715.418 102.419 713.392 106.776 710.25 110.424C707.21 113.971 703.36 116.707 698.698 118.632C694.037 120.456 688.869 121.368 683.194 121.368ZM659.178 75.1599L657.81 73.3359H706.298L704.93 75.4639C705.032 69.0799 704.17 63.9626 702.346 60.1119C700.522 56.1599 697.888 53.2719 694.442 51.4479C691.098 49.5226 687.197 48.5599 682.738 48.5599C678.077 48.5599 674.024 49.5732 670.578 51.5999C667.133 53.6266 664.397 56.6159 662.37 60.5679C660.445 64.4186 659.381 69.2826 659.178 75.1599Z" fill="white"/>
<path d="M629.898 120C626.554 120 623.768 119.493 621.538 118.48C619.309 117.365 617.637 115.744 616.522 113.616C615.509 111.488 615.002 108.803 615.002 105.56V9.19189H627.314V102.976C627.314 105.509 627.872 107.283 628.986 108.296C630.202 109.208 631.824 109.664 633.85 109.664H639.93V120H629.898Z" fill="white"/>
<path d="M560.652 121.368C554.876 121.368 549.607 120.405 544.844 118.48C540.183 116.555 536.129 113.768 532.684 110.12C529.34 106.472 526.705 102.165 524.78 97.1999C522.956 92.1332 522.044 86.5092 522.044 80.3279C522.044 72.1199 523.615 64.9252 526.756 58.7439C529.897 52.5626 534.356 47.7492 540.132 44.3039C546.009 40.7572 552.849 38.9839 560.652 38.9839C566.428 38.9839 571.647 39.9466 576.308 41.8719C581.071 43.6959 585.124 46.4319 588.468 50.0799C591.812 53.7279 594.396 58.0852 596.22 63.1519C598.044 68.2186 598.956 73.8932 598.956 80.1759C598.956 88.2826 597.385 95.4266 594.244 101.608C591.204 107.789 586.796 112.653 581.02 116.2C575.244 119.645 568.455 121.368 560.652 121.368ZM560.652 110.728C565.82 110.728 570.329 109.563 574.18 107.232C578.031 104.8 581.02 101.304 583.148 96.7439C585.377 92.0826 586.492 86.5599 586.492 80.1759C586.492 75.4132 585.884 71.1572 584.668 67.4079C583.452 63.5572 581.729 60.3146 579.5 57.6799C577.271 54.9439 574.585 52.8666 571.444 51.4479C568.303 50.0292 564.705 49.3199 560.652 49.3199C555.484 49.3199 550.924 50.5866 546.972 53.1199C543.121 55.5519 540.081 59.0479 537.852 63.6079C535.724 68.1679 534.66 73.7412 534.66 80.3279C534.66 84.9892 535.217 89.2452 536.332 93.0959C537.548 96.8452 539.271 100.037 541.5 102.672C543.831 105.307 546.617 107.333 549.86 108.752C553.103 110.069 556.7 110.728 560.652 110.728Z" fill="white"/>
<path d="M476.996 121.368C471.22 121.368 465.951 120.405 461.188 118.48C456.527 116.453 452.524 113.667 449.18 110.12C445.836 106.472 443.252 102.165 441.428 97.1999C439.604 92.1332 438.692 86.4586 438.692 80.1759C438.692 73.9946 439.604 68.4212 441.428 63.4559C443.252 58.3892 445.887 54.0319 449.332 50.3839C452.778 46.7359 456.882 43.9492 461.644 42.0239C466.407 39.9972 471.676 38.9839 477.452 38.9839C483.634 38.9839 489.156 40.0986 494.02 42.3279C498.884 44.5572 502.836 47.6986 505.876 51.7519C508.916 55.8052 510.74 60.5172 511.348 65.8879H499.34C498.53 62.2399 497.06 59.1999 494.932 56.7679C492.804 54.3359 490.22 52.5119 487.18 51.2959C484.14 50.0799 480.796 49.4719 477.148 49.4719C472.994 49.4719 469.295 50.2319 466.052 51.7519C462.911 53.1706 460.226 55.2479 457.996 57.9839C455.767 60.7199 454.044 63.9626 452.828 67.7119C451.714 71.4612 451.156 75.6666 451.156 80.3279C451.156 86.7119 452.22 92.1839 454.348 96.7439C456.578 101.304 459.618 104.8 463.468 107.232C467.319 109.664 471.828 110.88 476.996 110.88C481.151 110.88 484.799 110.12 487.94 108.6C491.082 107.08 493.666 105.053 495.692 102.52C497.82 99.8852 499.188 96.7439 499.796 93.0959H511.804C511.196 98.7706 509.322 103.736 506.18 107.992C503.039 112.248 498.935 115.541 493.868 117.872C488.903 120.203 483.279 121.368 476.996 121.368Z" fill="white"/>
<path d="M378.823 119.808V58.248H366.359V37.728H378.823V30.736C378.823 23.744 381.001 18.3733 385.359 14.624C389.817 10.8747 396.1 9 404.207 9H421.383V25.872H411.047C408.919 25.872 407.297 26.328 406.183 27.24C405.068 28.152 404.511 29.7733 404.511 32.104V37.728H420.167V58.248H404.511V119.808H378.823Z" fill="white"/>
<path d="M306.522 120.872C298.517 120.872 292.133 118.795 287.37 114.64C282.709 110.485 280.378 104.963 280.378 98.072C280.378 93.816 281.189 90.0667 282.81 86.824C284.431 83.48 286.711 80.6933 289.65 78.464C292.69 76.1333 296.338 74.4107 300.594 73.296C304.85 72.1813 309.613 71.624 314.882 71.624H332.362V86.52H320.202C317.162 86.52 314.629 86.9253 312.602 87.736C310.575 88.4453 309.005 89.5093 307.89 90.928C306.877 92.2453 306.37 93.816 306.37 95.64C306.37 98.1733 307.282 100.149 309.106 101.568C311.031 102.987 313.514 103.696 316.554 103.696C320.303 103.696 323.394 102.784 325.826 100.96C328.359 99.136 329.778 96.552 330.082 93.208V65.544C330.082 63.112 329.575 61.1867 328.562 59.768C327.65 58.3493 326.333 57.3867 324.61 56.88C322.989 56.272 321.165 55.968 319.138 55.968C316.706 55.968 314.629 56.3733 312.906 57.184C311.285 57.8933 309.967 58.9067 308.954 60.224C308.042 61.5413 307.586 63.112 307.586 64.936H282.506C282.506 59.2613 284.077 54.2453 287.218 49.888C290.359 45.5307 294.767 42.1867 300.442 39.856C306.218 37.424 312.957 36.208 320.658 36.208C326.535 36.208 331.653 36.9173 336.01 38.336C340.367 39.6533 344.015 41.6293 346.954 44.264C349.893 46.7973 352.071 49.9893 353.49 53.84C355.01 57.5893 355.77 61.896 355.77 66.76V96.856C355.77 98.5787 356.074 99.8453 356.682 100.656C357.391 101.365 358.354 101.72 359.57 101.72H363.066V119.808H350.298C345.535 119.808 341.634 118.896 338.594 117.072C335.655 115.147 333.629 112.461 332.514 109.016H331.602C329.677 112.563 326.383 115.451 321.722 117.68C317.061 119.808 311.994 120.872 306.522 120.872Z" fill="white"/>
<path d="M234.211 121.328C225.496 121.328 218.048 119.605 211.867 116.16C205.787 112.613 201.125 107.699 197.883 101.416C194.64 95.1333 193.019 87.7867 193.019 79.376C193.019 70.56 194.64 62.9093 197.883 56.424C201.227 49.9387 205.939 44.9733 212.019 41.528C218.099 37.9813 225.192 36.208 233.299 36.208C242.925 36.208 250.829 38.336 257.011 42.592C263.192 46.7467 267.6 52.472 270.235 59.768C272.971 67.064 273.883 75.3733 272.971 84.696H218.251C218.149 88.4453 218.757 91.6373 220.075 94.272C221.493 96.8053 223.368 98.7813 225.699 100.2C228.131 101.517 230.968 102.176 234.211 102.176C238.061 102.176 241.101 101.467 243.331 100.048C245.661 98.6293 247.232 96.7547 248.043 94.424H272.211C271.501 99.896 269.424 104.659 265.979 108.712C262.635 112.664 258.227 115.755 252.755 117.984C247.283 120.213 241.101 121.328 234.211 121.328ZM218.251 71.32L216.123 69.04H250.019L247.739 71.32C247.941 67.7733 247.435 64.8347 246.219 62.504C245.104 60.1733 243.432 58.4 241.203 57.184C238.973 55.968 236.339 55.36 233.299 55.36C230.157 55.36 227.472 56.0187 225.243 57.336C223.013 58.552 221.291 60.376 220.075 62.808C218.859 65.24 218.251 68.0773 218.251 71.32Z" fill="white"/>
<path d="M173.037 119.808C168.072 119.808 164.018 119.048 160.877 117.528C157.837 115.907 155.608 113.627 154.189 110.688C152.872 107.648 152.213 103.949 152.213 99.592V9H177.901V94.424C177.901 96.552 178.408 97.9707 179.421 98.68C180.434 99.3893 181.701 99.744 183.221 99.744H188.085V119.808H173.037Z" fill="white"/>
<path d="M105.613 15.3506C85.581 -1.77539 56.1472 -5.34829 32.0133 8.58404C18.8185 16.2089 9.35659 27.8159 4.28627 41.0196C17.6408 52.437 37.2633 54.8122 53.3526 45.5307L105.623 15.3606L105.613 15.3506ZM85.3415 124.344C110.194 115.562 128 91.8587 128 63.994C128 48.7543 122.67 34.7621 113.767 23.7639C97.1988 29.6223 85.3315 45.4209 85.3315 63.994V124.344H85.3415ZM1.07241 52.2972C-3.74838 78.2058 7.87941 105.482 32.0133 119.414C45.2081 127.039 59.9999 129.424 73.9632 127.208C77.1771 109.933 69.4219 91.7589 53.3426 82.4673L1.07241 52.2972Z" fill="white"/>
</svg>
