<svg width="93" height="92" viewBox="0 0 93 92" fill="none" xmlns="http://www.w3.org/2000/svg">
<path d="M80.1778 18.8377C80.1764 18.6047 80.0254 18.268 79.7595 18.1007C79.5817 17.9888 74.6907 15.1307 74.8684 15.2465C74.5946 15.0858 74.2551 15.0876 73.9812 15.2448L68.2957 18.53L68.3314 7.25734C68.3323 6.9403 68.1638 6.64744 67.8891 6.48849C67.8835 6.48525 67.8768 6.48676 67.8712 6.48374L62.9831 3.66014C62.7084 3.50205 62.3689 3.50032 62.0959 3.66187L36.8169 18.3598C36.6379 18.2557 31.0685 15.0146 31.2475 15.1187C30.9728 14.9589 30.6333 14.9589 30.3603 15.1169L13.3975 24.9191C13.3961 24.92 13.3942 24.9194 13.3928 24.9203C13.1377 25.0664 12.9646 25.3275 12.9541 25.6629C12.9456 25.9358 12.8197 77.6834 12.8218 77.8607C12.8209 78.1769 12.9903 78.4706 13.2641 78.6287L30.0977 88.3405C30.3779 88.5008 30.7122 88.4955 30.9815 88.3413C30.9824 88.3408 30.9828 88.3396 30.9837 88.3391C82.2516 58.5218 56.7769 73.3378 64.1761 69.0344C64.5986 68.7891 64.742 68.2474 64.4958 67.825C64.2496 67.4008 63.7071 67.2583 63.2863 67.5054L31.4303 86.0328C31.4558 79.0043 31.3829 99.0585 31.5309 58.3413L46.2696 49.7673C46.5426 49.6083 46.7102 49.3154 46.7093 49.0001L46.7091 48.9201C46.7107 48.8978 46.7258 48.8794 46.7257 48.8567C46.7248 48.6786 46.6713 38.042 46.6748 38.7199C49.9228 36.8424 34.9182 45.5156 78.4146 20.3732C78.3341 72.9518 78.3619 54.8174 78.3559 58.7404L73.7125 61.4409C73.2901 61.6862 73.1467 62.2279 73.3929 62.6503C73.638 63.0721 74.1788 63.2157 74.6023 62.97L79.6837 60.0146C79.955 59.8574 80.1225 59.5671 80.1234 59.2536C80.129 55.121 80.1032 74.2238 80.1778 18.8377ZM74.4218 17.0339L77.5261 18.8394C34.0094 43.9884 49.0414 35.3011 45.785 37.1831C45.5858 37.0673 42.4838 35.2641 42.6776 35.3767L74.4218 17.0339ZM30.65 56.807L27.5018 54.9886L40.9741 47.0541L44.1945 48.9275L30.65 56.807ZM41.8068 36.917L44.9012 38.7165C44.9019 38.8946 44.9366 47.8804 44.9344 47.3111L41.8534 45.5187L41.8068 36.917ZM40.4712 34.6079C40.1581 34.7886 40.0296 35.1664 40.0289 35.3733C40.0283 35.5549 40.0827 45.7071 40.084 45.5254L25.2971 54.2335C25.0267 54.3925 24.86 54.6845 24.8617 54.9989C24.8617 55.0045 24.8658 55.009 24.8659 55.0146L24.8088 70.4302L19.5117 73.5111C19.5187 68.9635 19.4864 89.9848 19.58 29.036L35.6701 19.7396C35.9576 19.9079 41.426 23.111 41.247 23.0068C41.5234 23.1675 41.8647 23.1692 42.1394 23.0076L66.557 8.79592L66.5232 19.5543L40.4712 34.6079ZM24.8012 72.4812L24.7823 77.5791L20.3868 75.0486L24.8012 72.4812ZM62.5425 5.44924L65.6767 7.25993L41.6807 21.2021C41.5036 21.0988 38.3704 19.2705 38.5705 19.3872L62.5425 5.44924ZM30.8009 16.906L33.9059 18.7113L18.6951 27.4932L15.598 25.6913L30.8009 16.906ZM14.7137 27.2262L17.8081 29.0257C17.7637 57.5155 17.7808 46.5575 17.7364 75.0488C17.7358 75.3085 17.9521 75.6875 18.1787 75.8185C18.1782 75.8182 18.1793 75.8188 18.1787 75.8185L25.2194 79.8718C25.4924 80.0291 25.8293 80.0291 26.1023 79.8718C26.3753 79.7146 26.5446 79.4243 26.5454 79.109C26.5751 71.1126 26.6133 60.8162 26.6292 56.5323L29.7616 58.3412C29.7371 65.0471 29.6834 79.7902 29.6606 86.046L14.5919 77.3519L14.7137 27.2262Z" fill="black"/>
<path d="M67.8919 66.873L71.3094 64.8852C71.7318 64.6399 71.8752 64.0982 71.629 63.6758C71.382 63.2534 70.8412 63.1091 70.4196 63.3562L67.0021 65.344C66.5796 65.5893 66.4362 66.131 66.6824 66.5534C66.9275 66.9752 67.4684 67.1188 67.8919 66.873Z" fill="black"/>
</svg>
