<svg width="93" height="92" viewBox="0 0 93 92" fill="none" xmlns="http://www.w3.org/2000/svg">
<path d="M16.4198 69.182C16.9087 69.1803 17.3061 68.7837 17.3044 68.2948L17.2215 38.6031C17.2094 36.4504 18.792 33.7023 20.6753 32.6043L67.242 5.72897C68.0074 5.28407 68.6812 5.18991 69.1425 5.45253L72.5168 7.41527C72.1602 7.59068 74.5442 6.23584 25.6357 34.4712C23.1664 35.8948 21.2835 39.221 21.2921 42.012C21.3896 88.9275 21.3748 84.3886 21.3906 84.693L18.0042 82.7233C17.5688 82.4754 17.3182 81.8439 17.3182 80.9887L17.3113 78.4307C17.3096 77.9435 16.9139 77.5487 16.4267 77.5487C15.9377 77.5504 15.5404 77.9469 15.5421 78.4359L15.549 80.9912C15.549 82.5203 16.1105 83.6814 17.123 84.2567C21.7619 86.9534 11.0907 80.7501 22.9716 87.6566C22.9742 87.6581 22.9758 87.6606 22.9784 87.6621C24.1355 88.3285 25.4897 88.0507 26.6412 87.3857L37.1746 81.3045L43.8653 87.0514C45.9955 88.8038 49.8472 88.8832 52.1292 87.5317L65.2827 79.8959C66.4127 79.254 67.0778 78.2899 67.1072 77.2265C67.1067 76.752 67.1087 78.9453 67.1022 72.5859C67.1074 71.5545 66.4544 70.5744 65.2913 69.8912C64.7816 69.5925 64.8132 69.6535 60.3643 67.9163L73.2028 60.5043C75.6476 59.0927 77.5567 55.784 77.5481 52.9738L77.4548 10.603C77.4514 9.10772 76.9033 7.96664 75.9233 7.36506C75.6806 7.19934 71.7153 4.90636 70.0289 3.92173C68.9905 3.32306 67.686 3.42241 66.3539 4.19817L19.7872 31.0735C17.3407 32.5007 15.4367 35.8128 15.4522 38.6109L15.5352 68.3C15.5369 68.7872 15.9326 69.182 16.4198 69.182ZM65.338 77.2014C65.3276 77.6074 64.9873 78.029 64.4015 78.3616L51.2342 86.0052C49.493 87.0371 46.4426 86.8838 45.0039 85.6968L38.7984 80.367L40.3998 79.4425C44.195 82.702 43.9383 82.5459 44.6083 82.9574C46.8172 84.1942 50.1027 84.1023 52.1287 82.9418C52.1346 82.9383 52.1423 82.9367 52.1482 82.9333C52.3267 82.8297 65.515 75.1747 65.338 75.2775V77.2014ZM64.3981 71.4177C65.7196 72.1952 65.5703 73.0747 64.4205 73.7467L51.2619 81.4016C49.7977 82.2459 47.2136 82.3703 45.4756 81.3964C42.5281 78.9282 41.8422 78.3538 42.0231 78.5053L58.3981 69.0514C63.9891 71.226 64.0395 71.2091 64.3981 71.4177ZM72.3182 58.9718C70.8159 59.6744 25.9395 85.7473 25.7566 85.8532C24.0738 86.8255 23.1579 86.0186 23.1546 84.3785C23.1456 80.0438 23.1873 100.078 23.0665 42.0025C23.0547 39.9015 24.6041 37.1123 26.5238 36.0046L73.0836 9.1223C74.5643 8.26468 75.6818 8.74218 75.6856 10.6073L75.7789 52.9781C75.784 55.1404 74.1997 57.885 72.3182 58.9718Z" fill="black"/>
<path d="M16.4216 76.0688C16.9105 76.068 17.3062 75.6706 17.3045 75.1825L17.2976 72.1226C17.2958 71.6345 16.9002 71.2397 16.4129 71.2397C15.924 71.2406 15.5266 71.638 15.5283 72.1261L15.5352 75.186C15.537 75.6741 15.9344 76.0688 16.4216 76.0688Z" fill="black"/>
<path d="M72.1404 13.7709C71.8674 13.6136 71.5305 13.6136 71.2575 13.7709L26.6069 39.5508C26.3321 39.7098 26.1646 40.0027 26.1646 40.3197L26.2561 77.1444C26.2561 77.8182 26.9915 78.2488 27.583 77.9081L72.2354 52.1281C72.5101 51.9692 72.6777 51.6763 72.6777 51.3593L72.5844 14.5345C72.5844 14.2192 72.4151 13.9281 72.1404 13.7709ZM28.0219 75.6119L27.9355 40.8268L70.8186 16.0671L70.9067 50.8521L28.0219 75.6119Z" fill="black"/>
<path d="M50.3617 67.2823L47.6871 68.8269C47.2638 69.0714 47.1186 69.6122 47.364 70.0355C47.5264 70.3197 47.8253 70.4778 48.1294 70.4778C48.2797 70.4778 48.4317 70.4398 48.5717 70.3594L51.2463 68.8148C51.6696 68.5703 51.8147 68.0295 51.5694 67.6062C51.3257 67.1803 50.7832 67.0378 50.3617 67.2823Z" fill="black"/>
<path d="M59.8661 29.7958L38.0392 42.3981C37.0527 42.9674 36.3132 44.2503 36.3184 45.382L36.3599 60.3867C36.3672 61.8889 37.688 62.6249 38.974 61.883L60.8025 49.2798C61.7856 48.7114 62.5251 47.4294 62.5234 46.2968L62.4802 31.2938C62.4765 29.7958 61.152 29.0496 59.8661 29.7958ZM59.9179 47.7482L38.1291 60.3064L38.0876 45.3759C38.0859 44.8818 38.4919 44.1795 38.9239 43.9307L60.711 31.3508L60.7542 46.3011C60.7559 46.7962 60.3481 47.4994 59.9179 47.7482Z" fill="black"/>
<path d="M53.6635 42.393L46.9736 41.5982C46.461 41.5277 45.9854 41.9402 45.9854 42.4794L46.0113 51.7626C46.013 52.1393 46.2514 52.4736 46.6073 52.5963C46.9629 52.7191 47.3589 52.6029 47.5922 52.306L54.2562 43.8175C54.4531 43.5661 54.4998 43.2275 54.3771 42.932C54.2544 42.6366 53.9814 42.431 53.6635 42.393ZM47.7736 49.2099L47.758 43.4729L51.8909 43.9644L47.7736 49.2099Z" fill="black"/>
</svg>
