<svg width="93" height="92" viewBox="0 0 93 92" fill="none" xmlns="http://www.w3.org/2000/svg">
<path d="M16.9868 75.5011C17.4665 75.4994 17.8555 75.1112 17.8547 74.6314L17.8479 71.631C17.8471 71.1513 17.4589 70.7648 16.98 70.7648C16.5003 70.7665 16.1112 71.1547 16.1121 71.6344L16.1188 74.6348C16.1197 75.1146 16.5079 75.5011 16.9868 75.5011Z" fill="white"/>
<path d="M75.3748 8.10023C75.1154 7.91807 73.3137 6.89392 69.5852 4.71604C68.5655 4.12697 67.2848 4.22614 65.9787 4.98727L20.2906 31.3564C17.8903 32.7566 16.0222 36.0062 16.0374 38.7499L16.1069 69.1493C16.1078 69.629 16.4968 70.0155 16.9749 70.0155C17.4546 70.0138 17.8436 69.6256 17.8428 69.1459L17.7733 38.7431C17.7614 36.6318 19.315 33.9348 21.1619 32.8575L66.85 6.48919C67.5976 6.05353 68.2595 5.95351 68.7147 6.21796L72.0245 8.14367C71.9211 8.19452 71.8169 8.24962 71.7126 8.30895L26.0287 34.6891C23.5365 36.1264 21.7602 39.4902 21.7671 42.0877C21.8844 99.0631 21.844 79.4122 21.8527 83.6633C21.8536 83.765 21.8578 83.865 21.8637 83.9633L18.5412 82.0308C18.1132 81.7867 17.8682 81.168 17.8682 80.3306L17.8606 77.164C17.8597 76.6843 17.4707 76.2978 16.9927 76.2978C16.5129 76.2995 16.1239 76.6877 16.1247 77.1674L16.1324 80.3323C16.1324 81.8308 16.6825 82.97 17.675 83.5361C20.0689 84.9269 23.6531 87.0089 23.4216 86.8756C24.5509 87.5259 25.8797 87.2619 27.0162 86.6044L37.3494 80.6384L43.9178 86.2806C46.0171 87.9928 49.7798 88.0769 52.0233 86.7485L64.9294 79.2575C66.0389 78.6252 66.6907 77.6793 66.7169 76.6385V72.109C66.7169 72.0991 66.7117 72.0908 66.7113 72.081C66.7148 71.072 66.0762 70.1133 64.9345 69.4391C64.4403 69.1531 64.4938 69.2186 60.0987 67.5038L72.6983 60.2293C75.097 58.8444 76.9702 55.5998 76.9625 52.8435L76.871 11.2712C76.8669 9.80832 76.3313 8.69269 75.3748 8.10023ZM64.9811 76.6165C64.9709 77.0115 64.6387 77.4251 64.064 77.7522L51.1452 85.25C49.4756 86.2403 46.5126 86.1429 45.0307 84.9499L38.9415 79.7193L40.5131 78.8118C44.3319 82.0905 44.0079 81.8706 44.6451 82.2614C46.8034 83.4667 50.0337 83.3927 52.0419 82.2376C52.2179 82.1355 65.7911 74.2541 64.9514 74.7416C64.9616 74.7365 64.9718 74.7315 64.9811 74.7247V76.6165ZM64.0589 70.9377C65.3526 71.6995 65.2121 72.5737 64.081 73.2228L51.1723 80.734C49.8669 81.4851 47.3026 81.7329 45.463 80.7137C44.6213 80.0112 43.075 78.7207 42.1059 77.8922L58.1701 68.6173C64.0683 70.91 63.753 70.7602 64.0589 70.9377ZM71.8304 58.7274C68.9038 60.4123 35.8003 79.4531 26.1483 85.1025C24.5636 86.0147 23.5996 85.3557 23.5945 83.6548C23.5855 79.389 23.6269 99.0795 23.5072 42.0783C23.496 40.0656 24.9953 37.2928 26.8992 36.1936L72.5814 9.81849C74.0401 8.97505 75.1296 9.43868 75.1351 11.2755L75.2267 52.8469C75.2326 54.9675 73.6773 57.6611 71.8304 58.7274Z" fill="white"/>
<path d="M72.0923 15.1286C72.0905 14.4596 71.3639 14.0472 70.7904 14.3793L26.9806 39.6729C26.7111 39.8288 26.5458 40.1162 26.5466 40.4272C26.5605 45.9675 26.638 76.805 26.6373 76.5605C26.6373 76.5605 26.6373 76.5622 26.6373 76.5639C26.6447 77.2161 27.3601 77.6436 27.9392 77.3064L71.7491 52.0196C72.0271 51.8603 72.183 51.5687 72.183 51.2686C72.183 51.2672 72.1819 51.2659 72.1819 51.2644C72.1819 51.0087 72.0937 15.4128 72.0923 15.1286ZM28.3427 64.3513L49.4653 44.5151L62.14 39.2355C62.2824 39.1762 62.4062 39.0804 62.4985 38.9575L70.3828 28.5178L70.3972 33.7788L61.278 45.8424L48.6745 51.1178C48.5787 51.1568 48.4905 51.2144 48.4151 51.2856L28.3573 70.1096L28.3427 64.3513ZM49.489 52.6587L62.1637 47.3528C62.3053 47.2935 62.429 47.1986 62.5214 47.0765L70.4105 36.6394L70.4463 50.7618L28.3698 75.0535L28.3633 72.4852L49.489 52.6587ZM70.3599 16.6322L70.3826 25.6371L61.2551 37.7234L48.6524 42.9734C48.5567 43.0132 48.4685 43.07 48.3922 43.142L28.3366 61.9763L28.2833 40.9248L70.3599 16.6322Z" fill="white"/>
<path d="M32.1983 45.217L41.2632 39.9849C41.6785 39.745 41.8209 39.2144 41.581 38.7991C41.3412 38.3821 40.808 38.2422 40.3952 38.4813L31.3304 43.7151C30.915 43.9541 30.7726 44.4847 31.0125 44.9C31.2542 45.3172 31.7878 45.4566 32.1983 45.217Z" fill="white"/>
<path d="M35.4818 46.5527L31.3304 48.9496C30.915 49.1887 30.7726 49.7192 31.0125 50.1346C31.2542 50.5518 31.7878 50.6912 32.1983 50.4516L36.3497 48.0546C36.7651 47.8156 36.9074 47.285 36.6676 46.8697C36.4269 46.4544 35.8954 46.3103 35.4818 46.5527Z" fill="white"/>
<path d="M50.2882 66.8829L47.6641 68.3967C47.2488 68.6357 47.1064 69.1663 47.3462 69.5816C47.5866 69.9965 48.1159 70.1381 48.532 69.9003L51.1561 68.3865C51.5714 68.1458 51.7138 67.6152 51.474 67.1999C51.2333 66.7846 50.7001 66.6388 50.2882 66.8829Z" fill="white"/>
</svg>
