<svg width="93" height="92" viewBox="0 0 93 92" fill="none" xmlns="http://www.w3.org/2000/svg">
<path d="M9.15692 61.8011C9.153 61.8032 9.14834 61.8022 9.14453 61.8044C8.87584 61.9595 8.70972 62.2468 8.70972 62.5571V67.5892C8.70972 67.8985 8.87415 68.1842 9.14114 68.3393C51.0883 92.7153 1.50411 63.901 42.1909 87.5455C42.4624 87.7019 42.7939 87.6985 43.058 87.5463C106.101 51.1485 74.7456 69.2515 83.8538 63.9929C84.1225 63.8378 84.2878 63.5513 84.2878 63.2411V58.2133C84.2878 58.2099 84.2903 58.2073 84.2903 58.2039C84.2903 57.8945 84.1259 57.608 83.8581 57.4521L65.2985 46.6791L65.2663 24.5239L71.6461 20.8162C71.9123 20.6619 72.0767 20.3771 72.0775 20.0686L72.1055 10.2104C72.107 9.8317 71.7175 9.42248 71.4232 9.35854L48.6665 4.3595C48.4537 4.31119 48.2316 4.34679 48.0435 4.45697L19.9402 20.7916C19.7265 20.9154 19.5082 21.2103 19.5071 21.5442L19.502 23.2792C19.5011 23.5903 19.6664 23.8776 19.9359 24.0336L26.2969 27.7064L26.3325 51.8856L9.15692 61.8011ZM10.4456 64.066C53.3585 89.0024 38.5532 80.3991 41.757 82.2608V85.2858L10.4456 67.0899V64.066ZM82.552 62.7401L43.4928 85.2901V82.2625L82.552 59.7126V62.7401ZM81.69 58.2013C74.7569 62.2048 56.2491 72.892 42.6315 80.7554C39.4085 78.8831 54.266 87.5142 11.3123 62.5613L26.3354 53.8883L26.3403 57.185L18.1552 61.912C17.8873 62.0672 17.7221 62.3528 17.7212 62.663C17.7204 62.9724 17.8856 63.2589 18.1526 63.414L42.0375 77.3008C42.305 77.4572 42.6381 77.4579 42.908 77.3025L74.8474 58.8506C75.1161 58.6955 75.2814 58.4098 75.2814 58.0996C75.2814 57.7903 75.117 57.5038 74.8491 57.3487L65.3059 51.8047L65.3013 48.6879L81.69 58.2013ZM42.9724 25.6211L22.7446 21.1734L48.6317 6.12925L68.8711 10.5766L42.9724 25.6211ZM43.447 72.8069C43.712 72.9596 44.0427 72.9632 44.3141 72.8069L64.8841 60.9331C65.1536 60.778 65.3189 60.4898 65.3181 60.1796L65.3088 53.813L72.6819 58.0971L42.4757 75.5471L20.3199 62.6664L26.3432 59.188L26.3479 62.3689C26.3479 62.6783 26.5123 62.9639 26.7793 63.119C48.2288 75.5856 22.6803 60.7365 43.447 72.8069ZM63.5707 52.2785C63.5704 52.2869 63.5644 52.2937 63.5644 52.3022C63.5657 52.8798 63.5818 59.8586 63.5814 59.6804C61.92 60.6394 45.0736 70.3638 44.746 70.5529C44.7314 60.3756 44.7116 46.518 44.6972 36.4778L63.5322 25.5317L63.5707 52.2785ZM43.9693 34.8811L43.9915 27.0452L70.3654 11.7184L70.3434 19.566C24.3965 46.2467 54.7507 28.6204 43.9693 34.8811ZM21.2395 22.6258L42.255 27.2424C42.2541 27.5554 42.2328 35.0754 42.2333 34.8989C40.0867 33.6599 50.0095 39.3871 21.2395 22.7817V22.6258ZM42.663 37.1559C42.6774 37.1641 42.6948 37.1609 42.7095 37.1684C42.7906 37.2091 42.8744 37.2439 42.9622 37.2576L43.0097 70.5454L28.0838 61.8697V57.6818C28.0838 57.6734 28.0777 57.6667 28.0775 57.6585C28.0691 52.0025 28.0492 38.5721 28.0346 28.7096L42.663 37.1559Z" fill="white"/>
</svg>
