<svg width="93" height="92" viewBox="0 0 93 92" fill="none" xmlns="http://www.w3.org/2000/svg">
<path d="M26.8118 13.064C27.1798 12.696 27.1798 12.144 26.8118 11.776C26.4438 11.408 25.8918 11.408 25.5238 11.776C24.0518 13.064 22.5798 14.536 21.2918 16.008C10.4358 27.784 3.44385 44.16 3.44385 57.96C3.44385 67.344 6.75585 74.336 12.4598 77.832L20.3718 82.432C26.9958 88.504 37.6678 86.664 45.3958 82.064C47.4198 80.96 49.2598 79.672 51.0998 78.2V85.928C51.0998 86.296 51.2838 86.48 51.4678 86.664C54.4118 88.32 57.7238 90.16 57.3558 90.16C57.7238 90.344 57.9078 90.344 58.2758 90.16L88.6359 72.68C89.0039 72.496 89.1879 72.128 89.1879 71.944C89.1879 56.856 89.1879 61.088 89.1879 46C89.1879 45.816 89.0039 45.448 88.8199 45.264C85.5079 43.424 82.7478 41.768 82.9319 41.768C82.5639 41.584 82.3799 41.584 82.0118 41.768L72.2598 47.288C74.2839 41.4 75.3879 35.512 75.3879 30.176C75.3879 13.064 67.1078 10.856 55.1479 4.04798C49.2598 0.551979 41.5318 1.28798 33.2518 6.07198C32.8838 6.25598 32.6998 6.80798 32.8838 7.35998C33.0678 7.72798 33.6198 7.91198 34.1718 7.72798C41.8998 3.31198 48.8918 2.57598 54.2278 5.70398L58.8279 8.27998C54.2278 8.09598 49.4438 9.38398 44.2918 12.328C24.6038 23.92 12.6438 52.624 14.4838 65.136C14.6678 70.656 15.5878 75.072 17.6118 78.384L13.5638 75.992C8.41185 72.864 5.46785 66.424 5.46785 57.776C5.46785 44.528 12.2758 28.52 22.9478 17.112C24.0518 15.64 25.3398 14.352 26.8118 13.064ZM76.8598 67.16L86.6118 71.76C79.9879 75.624 67.4758 82.8 60.8518 86.664L70.6039 70.84L72.9959 72.128C73.3639 72.312 73.9158 72.128 74.2839 71.76L76.8598 67.16ZM85.8759 48.392L72.9959 70.104C72.8119 69.92 59.7478 63.296 59.9318 63.296C66.0038 59.984 81.6439 50.784 85.8759 48.392ZM68.9479 70.104L59.1958 86.112V64.952L68.9479 70.104ZM87.7159 49.128V70.288L77.7799 65.688L87.7159 49.128ZM51.6518 59.064C51.2838 59.248 51.0998 59.616 51.0998 59.8C51.0998 59.984 51.0998 65.872 51.0998 66.056C48.1558 69.184 45.0278 71.76 41.7158 73.784C31.5958 79.672 23.3158 78.2 23.3158 63.296C23.3158 47.84 34.5398 28.336 47.9718 20.608C58.8278 14.352 66.3718 17.848 66.3718 31.096C66.3718 38.272 63.9798 46.736 59.5638 54.648L51.6518 59.064ZM53.1238 61.456L57.1718 63.848V87.584L53.1238 85.192C53.1238 83.352 53.1238 90.16 53.1238 61.456ZM82.5639 43.424L86.6118 45.816L58.0918 62.376L54.0438 59.984C54.5958 59.616 82.7478 43.424 82.5639 43.424ZM45.3958 13.984C61.0358 4.96798 73.7318 11.96 73.7318 29.992C73.7318 35.696 72.4438 42.136 70.0518 48.576C69.8679 48.76 62.3238 52.992 62.6918 52.808C66.3718 45.448 68.3959 37.72 68.3959 31.096C68.3959 16.192 59.0118 12.328 47.2358 18.952C33.2518 27.048 21.6598 47.288 21.6598 63.296C21.6598 80.04 32.1478 81.696 42.8198 75.44C45.7638 73.784 48.5238 71.576 51.2838 68.816V75.624C49.2598 77.464 46.8678 78.936 44.6598 80.408C37.4838 84.64 27.5478 86.296 21.6598 80.96C18.3478 77.832 16.5078 72.496 16.3238 65.136C15.9558 46 29.9398 23 45.3958 13.984Z" fill="black"/>
<path d="M51.8358 45.632C49.8118 44.528 47.2358 44.712 44.4758 46.184C39.3238 49.128 35.0918 56.488 35.0918 62.56V63.664C35.0918 64.4 35.8278 64.768 36.5638 64.4L54.5958 54.096C54.9638 53.912 55.1478 53.544 55.1478 53.36V52.256C54.9638 49.128 53.8598 46.92 51.8358 45.632ZM36.9318 62.192C37.1158 56.856 40.7958 50.6 45.3958 48.024C47.6038 46.736 49.4438 46.552 50.9158 47.472C52.3878 48.208 53.1238 50.048 53.1238 52.44V52.992L36.9318 62.192Z" fill="black"/>
<path d="M45.396 42.504C48.156 40.848 50.548 36.984 50.548 33.672C50.548 29.992 47.604 28.336 44.476 30.176C41.716 31.832 39.324 35.696 39.508 39.008C39.508 42.688 42.268 44.344 45.396 42.504ZM45.396 32.016C47.42 30.912 48.708 31.648 48.708 33.856C48.708 36.432 46.868 39.744 44.476 41.032C42.636 42.136 41.164 41.4 41.164 39.192C41.348 36.616 43.188 33.304 45.396 32.016Z" fill="black"/>
<path d="M29.388 10.856C30.124 10.304 31.044 9.75201 31.78 9.20001C32.148 8.83201 32.332 8.28001 31.964 7.91201C31.78 7.36001 31.228 7.36001 30.86 7.54401C29.94 8.09601 29.204 8.64801 28.284 9.38401C27.916 9.75201 27.732 10.304 28.1 10.672C28.468 11.04 29.02 11.224 29.388 10.856Z" fill="black"/>
</svg>
