<svg width="93" height="92" viewBox="0 0 93 92" fill="none" xmlns="http://www.w3.org/2000/svg">
<path d="M6.29943 53.3796C8.12942 54.4387 10.4215 53.2595 10.6518 51.1589C10.6755 50.9394 10.8357 50.8428 10.9043 50.8114C10.9874 50.7733 11.1569 50.7275 11.3264 50.8436L34.0852 66.5453L34.1086 73.6461C34.1086 74.648 34.5078 75.4582 35.2088 75.871C35.4229 75.9952 39.3843 78.2922 39.1614 78.1629C39.1688 78.1673 39.1739 78.1746 39.1814 78.179C39.9589 78.6272 40.8898 78.4707 41.6682 78.0222L58.0393 68.5674C59.2776 67.8563 60.3286 66.3476 60.6549 64.8135L61.7461 59.6478C61.8167 59.6883 66.628 62.4563 66.7024 62.4894C67.3796 62.7886 68.1984 62.7013 69.0095 62.2368L85.445 52.7422C86.9681 51.8692 88.1607 49.8053 88.1607 48.0432C88.1607 47.8621 88.1226 33.2241 88.12 33.3995C88.1192 33.1027 87.9606 32.8088 87.6852 32.6494C83.8696 30.4412 82.4707 29.6823 78.0193 27.1545C77.6015 26.918 77.0726 27.0655 76.8361 27.4817C76.5996 27.8995 76.7463 28.4284 77.1633 28.6649L81.4842 31.1119L77.5616 33.3766L58.4749 20.262C57.098 19.3494 55.2549 20.2004 55.082 21.8427C54.9769 22.781 54.009 23.1285 53.3259 22.7327C52.9402 22.5089 52.713 22.0868 52.7325 21.6401L53.0631 15.7181C53.075 15.4918 53.2318 15.3824 53.2987 15.346C53.3776 15.3019 53.5394 15.2426 53.7285 15.3502L69.7851 24.4812C70.2012 24.7177 70.7301 24.5728 70.9683 24.1558C71.2056 23.7396 71.0598 23.209 70.6428 22.9725L54.5879 13.8424C53.1755 13.0345 51.4142 14.0115 51.3298 15.624L50.9992 21.5528C50.9501 22.6581 51.5078 23.6854 52.4554 24.2346C54.2854 25.2937 56.5775 24.1146 56.8077 22.0139C56.8439 21.6828 57.2291 21.5192 57.5019 21.6995L75.9037 34.3435L34.9113 58.0116L8.43195 42.9874C7.01763 42.1781 5.24327 43.1575 5.15519 44.7715L4.84244 50.6978C4.79243 51.8166 5.35438 52.8464 6.29943 53.3796ZM83.2718 32.0934L85.5204 33.3995L38.9079 60.3125C38.7341 60.2114 36.4875 58.9047 36.6613 59.0058L83.2718 32.0934ZM35.8445 73.6436L35.8012 60.5196L36.3327 60.8239L38.0402 61.8153L38.0775 75.5275L36.0852 74.3725C35.9368 74.2852 35.8445 74.0063 35.8445 73.6436ZM62.7484 54.9442C62.8386 54.5184 63.0778 54.0866 63.3694 53.7902C63.3737 53.7858 63.3773 53.7794 63.3818 53.775C63.53 53.6272 63.6513 53.5491 63.802 53.4746C63.8416 53.6484 65.2885 59.9975 65.2057 59.6341L62.1314 57.8675L62.7484 54.9442ZM84.5796 51.2377L68.145 60.7315C67.7822 60.9383 67.5263 60.9553 67.4051 60.9019C67.3448 60.8752 67.302 60.8152 67.2683 60.7501C67.0288 59.9097 66.0419 55.4465 65.4967 53.0846C65.4952 53.0771 65.498 53.0701 65.4963 53.0626C64.9706 50.7048 61.6938 51.6251 61.0422 54.5806L58.9563 64.4532C58.7343 65.5 57.985 66.5968 57.173 67.0629L40.8011 76.5186C40.4935 76.6968 40.2007 76.7598 40.0553 76.6757L40.051 76.672L40.0456 76.6691C40.0122 76.6488 39.983 76.588 39.952 76.5394C39.9305 76.5063 39.9067 76.4956 39.8886 76.447C39.8448 76.3293 39.8145 76.1685 39.8145 75.9549L39.7764 61.8158C51.6558 54.9569 74.5135 41.7593 86.3884 34.9031L86.4248 48.0449C86.424 49.2027 85.5806 50.6639 84.5796 51.2377ZM6.88935 44.8639C6.90121 44.6418 7.06056 44.5317 7.12837 44.4944C7.19533 44.4562 7.37671 44.3833 7.57335 44.4961L34.0569 59.5228L34.0696 64.4253L12.3088 49.412C10.9646 48.4943 9.10119 49.3306 8.92609 50.9877C8.82438 51.9226 7.86915 52.2819 7.16057 51.8726C6.78001 51.6581 6.55625 51.2369 6.57659 50.7826L6.88935 44.8639Z" fill="black"/>
<path d="M73.2864 24.4677C72.8668 24.2329 72.3388 24.3778 72.1023 24.794C71.8658 25.211 72.0125 25.7407 72.4286 25.9781L74.3323 27.0587C74.7494 27.2933 75.2784 27.1504 75.5164 26.7324C75.7529 26.3154 75.6062 25.7857 75.1901 25.5483L73.2864 24.4677Z" fill="black"/>
<path d="M81.6485 39.5411L70.9299 45.7293C69.8849 46.3336 69.0992 47.6957 69.1025 48.8975L69.1229 55.8426C69.1264 57.3887 70.4672 58.175 71.8267 57.3912L82.5452 51.203C83.5903 50.5995 84.376 49.2374 84.3726 48.0355L84.3531 41.0896C84.3477 39.5333 82.9975 38.7628 81.6485 39.5411ZM81.6773 49.6994L70.9588 55.8875C70.9206 55.9096 70.8876 55.9257 70.8655 55.9401C70.8613 55.9121 70.8587 55.8782 70.8587 55.8375L70.8384 48.8924C70.8367 48.3152 71.2944 47.5236 71.7979 47.2329L82.5164 41.0447C82.5545 41.0226 82.5884 41.0065 82.6105 40.9913C82.6147 41.0193 82.6173 41.054 82.6173 41.0947L82.6367 48.0406C82.6384 48.6178 82.1807 49.4086 81.6773 49.6994Z" fill="black"/>
<path d="M54.3716 55.3323L43.6531 61.5197C42.608 62.1232 41.8223 63.4852 41.8257 64.6879L41.846 71.633C41.8496 73.1762 43.1885 73.9664 44.5498 73.1816L55.2684 66.9934C56.3134 66.3899 57.0991 65.0278 57.0957 63.826L57.0754 56.8817C57.0718 55.3284 55.7244 54.5509 54.3716 55.3323ZM54.4004 65.4898L43.6819 71.678C43.6438 71.7 43.6107 71.7161 43.5887 71.7305C43.5844 71.7025 43.5819 71.6686 43.5819 71.628L43.5615 64.6829C43.5598 64.1048 44.0175 63.314 44.521 63.0233L55.2395 56.8359C55.2777 56.8139 55.3107 56.7978 55.3336 56.7834C55.337 56.8114 55.3396 56.8453 55.3396 56.886L55.3599 63.831C55.3616 64.4082 54.9039 65.199 54.4004 65.4898Z" fill="black"/>
</svg>
