<svg width="93" height="92" viewBox="0 0 93 92" fill="none" xmlns="http://www.w3.org/2000/svg">
<path d="M47.2116 10.9728L45.0867 12.1992C44.6714 12.4391 44.529 12.9697 44.7689 13.385C45.011 13.8031 45.5433 13.9404 45.9546 13.7028L48.0795 12.4764C48.4948 12.2365 48.6372 11.7059 48.3974 11.2906C48.1566 10.8761 47.6235 10.7329 47.2116 10.9728Z" fill="black"/>
<path d="M74.073 64.1942L73.9349 13.4189C73.9343 13.2441 73.7721 12.8273 73.5034 12.6713L73.5014 12.6702L73.5001 12.6688L73.4983 12.6683L59.3692 4.45741C59.0988 4.29976 58.7674 4.30146 58.4987 4.45572L49.7372 9.51409C49.3219 9.75396 49.1795 10.2845 49.4194 10.6999C49.6584 11.1152 50.1898 11.255 50.6052 11.0177L58.931 6.21021L71.3352 13.4189L33.9301 35.0141L21.5263 27.8066L43.1329 15.3319C43.5482 15.092 43.6906 14.5614 43.4507 14.1461C43.2108 13.7291 42.6777 13.5884 42.2649 13.8283L19.3607 27.0523C19.0894 27.2094 18.9276 27.4984 18.9268 27.8032L18.9272 27.8049C18.9272 28.0776 19.0645 78.2804 19.0658 78.5811C19.0666 78.8896 19.231 79.1744 19.4972 79.3286C19.6757 79.4324 33.8142 87.6488 33.6318 87.5429L33.634 87.5451C33.898 87.6971 34.2294 87.7007 34.5011 87.5442L73.6391 64.9485C73.9086 64.7926 74.0739 64.5053 74.073 64.1942ZM20.7999 78.0784L20.6668 29.3145L33.0624 36.517C33.0948 48.4478 33.1641 73.9289 33.195 85.282L20.7999 78.0784ZM34.931 85.2913C34.9271 83.8281 34.8282 47.4273 34.7986 36.5174C39.7649 33.6502 63.6919 19.8364 72.2033 14.9225L72.3355 63.6967L34.931 85.2913Z" fill="black"/>
<path d="M68.3715 21.5785C68.1028 21.4234 67.7714 21.426 67.5045 21.5794L38.6561 38.2352C38.3866 38.3912 38.2213 38.6785 38.2222 38.9896L38.301 68.1167C38.3023 68.589 38.6846 68.9821 39.1689 68.9821C39.3189 68.9821 39.469 68.9431 39.6029 68.866L68.4521 52.2102C68.7216 52.0542 68.8869 51.7669 68.886 51.4558L68.8063 22.3286C68.8055 22.0193 68.6394 21.7336 68.3715 21.5785ZM40.0326 66.6131L39.9597 39.4871L67.0747 23.8323L67.1485 50.9583L40.0326 66.6131Z" fill="black"/>
<path d="M57.8673 43.2988L57.8512 37.5657C57.8423 34.6871 55.55 33.4448 53.1056 34.8543C50.9307 36.1104 49.233 39.0464 49.2398 41.54L49.2559 47.2739C49.2626 49.4557 50.5569 50.571 52.03 50.571C52.2043 50.571 52.3895 50.519 52.5704 50.4883L52.5754 53.0849L50.0238 54.5581C49.6085 54.7979 49.4661 55.3285 49.7059 55.7438C49.9464 56.1602 50.4786 56.3003 50.8917 56.0617L56.8561 52.6179C57.2715 52.3781 57.4139 51.8475 57.174 51.4322C56.9324 51.016 56.4018 50.8745 55.9882 51.1143L54.3094 52.0836L54.3049 49.7766C56.3287 48.4376 57.8746 45.6759 57.8673 43.2988ZM51.5638 48.7191C51.2028 48.5106 50.9943 47.9825 50.9917 47.2688L50.9756 41.535C50.9705 39.6694 52.3436 37.2987 53.9735 36.3579C55.2265 35.6323 56.1098 36.0211 56.1154 37.5708L56.1315 43.3039C56.1374 45.1694 54.7694 47.5367 53.1446 48.475C52.5089 48.8437 51.9351 48.9318 51.5638 48.7191Z" fill="black"/>
<path d="M42.7283 70.7121C41.0976 71.6538 39.8245 73.8549 39.8296 75.7247C39.8349 77.935 41.6602 79.0031 43.6115 77.8767C45.2312 76.9418 46.4967 74.7449 46.4916 72.8751C46.4863 70.6616 44.669 69.5934 42.7283 70.7121ZM42.7436 76.3731C42.3774 76.585 42.0342 76.6503 41.8545 76.546C41.6748 76.4426 41.5663 76.1333 41.5655 75.7196C41.5621 74.4576 42.4919 72.8531 43.5963 72.2157C43.8421 72.0733 44.076 71.9987 44.2565 71.9987C44.3387 71.9987 44.4108 72.0148 44.4667 72.0471C44.6439 72.1488 44.7549 72.4683 44.7558 72.8802C44.7591 74.1202 43.8192 75.7527 42.7436 76.3731Z" fill="black"/>
<path d="M50.6263 66.1521C48.9955 67.0946 47.7225 69.2958 47.7276 71.1647C47.7347 73.3794 49.5624 74.4411 51.5103 73.3167C53.1309 72.3801 54.3955 70.1832 54.3896 68.3151C54.3842 66.0926 52.5595 65.0395 50.6263 66.1521ZM50.6424 71.8131C50.2762 72.0242 49.9338 72.0886 49.7533 71.986C49.5727 71.8818 49.4651 71.5732 49.4634 71.1596C49.46 69.8984 50.3898 68.2939 51.4942 67.6557C51.8519 67.4489 52.1858 67.3836 52.3647 67.487C52.5418 67.5888 52.6529 67.9083 52.6537 68.3202C52.6579 69.5602 51.718 71.1918 50.6424 71.8131Z" fill="black"/>
<path d="M58.5247 61.5921C56.894 62.5337 55.6209 64.7349 55.626 66.6047C55.6313 68.8149 57.4566 69.8831 59.4079 68.7567C61.0276 67.8218 62.2931 65.6249 62.288 63.7551C62.2827 61.5367 60.4598 60.4756 58.5247 61.5921ZM58.54 67.2531C58.1738 67.465 57.8314 67.5319 57.6509 67.426C57.4712 67.3226 57.3627 67.0132 57.3618 66.5996C57.3585 65.3375 58.2882 63.7331 59.3926 63.0957C59.6384 62.9533 59.8724 62.8787 60.0529 62.8787C60.1351 62.8787 60.2072 62.8948 60.2631 62.927C60.4403 63.0287 60.5513 63.3483 60.5521 63.7602C60.5555 65.0002 59.6156 66.6327 58.54 67.2531Z" fill="black"/>
</svg>
