<svg width="93" height="92" viewBox="0 0 93 92" fill="none" xmlns="http://www.w3.org/2000/svg">
<path d="M20.3362 57.1754L17.3535 55.443C16.9382 55.204 16.4085 55.3438 16.1677 55.7574C15.9262 56.1719 16.0677 56.7025 16.4822 56.9432L19.4648 58.6757C19.8863 58.9202 20.4134 58.7694 20.6506 58.3612C20.8922 57.9467 20.7506 57.4162 20.3362 57.1754Z" fill="black"/>
<path d="M4.83984 35.8138L4.84027 35.8155L4.83984 35.8172L4.88222 49.7048C4.88307 50.0134 5.0475 50.2981 5.31364 50.4524L13.4793 55.198C13.892 55.4387 14.4243 55.2989 14.6659 54.8844C14.9074 54.4699 14.7659 53.9385 14.3523 53.6978L6.61638 49.2022L6.57993 37.3259L36.1894 54.5325L51.0753 63.1833L51.1115 75.0592L23.1256 58.796C22.712 58.5561 22.1805 58.696 21.939 59.1096C21.6974 59.5241 21.839 60.0555 22.2526 60.2962C22.9687 60.7124 51.8598 77.5012 51.551 77.3233C51.8149 77.4753 52.1464 77.4789 52.418 77.3225L87.7266 56.9373C87.9962 56.7813 88.1615 56.494 88.1606 56.1829L88.1174 42.2953C88.1168 42.1189 88.0063 41.7336 87.686 41.5477L87.6839 41.5465L87.6826 41.5452C87.485 41.4266 41.649 14.7921 41.452 14.6793C41.1816 14.5217 40.8502 14.5234 40.5816 14.6776L5.27381 35.0628C5.00249 35.2199 4.84064 35.509 4.83984 35.8138ZM52.8478 75.0704L52.8113 63.1833L86.3866 43.7984L86.4231 55.6854L52.8478 75.0704ZM41.0138 16.4321L85.5178 42.2953L51.943 61.6799L7.43938 35.8172L41.0138 16.4321Z" fill="black"/>
<path d="M71.0791 55.4404C70.8104 55.2853 70.479 55.2878 70.212 55.4413L54.8182 64.3282C54.5487 64.4841 54.3834 64.7714 54.3843 65.0825L54.4021 70.5859C54.4029 70.8961 54.5691 71.1817 54.8369 71.336C55.1088 71.4916 55.4386 71.488 55.704 71.3351L71.0969 62.4465C71.3664 62.2906 71.5317 62.0032 71.5309 61.6922L71.5139 56.1905C71.5131 55.8812 71.347 55.5955 71.0791 55.4404ZM56.1328 69.0831L56.1218 65.58L69.7823 57.6933L69.7933 61.1946L56.1328 69.0831Z" fill="black"/>
<path d="M83.9805 49.1311C83.1383 48.5574 82.0793 48.8287 81.2691 49.4583C80.1477 50.3185 79.3662 51.8476 79.3696 53.1774C79.375 55.0236 80.9357 55.9238 82.5472 54.9947C83.8423 54.2471 84.8535 52.4977 84.8493 51.0119C84.8476 50.1812 84.539 49.5133 83.9805 49.1311ZM81.6793 53.4911C81.4242 53.6394 81.2597 53.6411 81.2199 53.6207C81.1843 53.6004 81.1063 53.4588 81.1055 53.1732C81.1033 52.1661 81.9533 50.8998 82.7176 50.605L82.7235 50.6025C82.821 50.5652 82.8947 50.5533 82.9422 50.5533C82.9727 50.5533 82.9922 50.5584 82.9998 50.5635C83.0295 50.5838 83.1126 50.7093 83.1134 51.0161C83.116 51.8925 82.4455 53.0486 81.6793 53.4911Z" fill="black"/>
<path d="M74.8587 53.2265C73.7373 54.0876 72.9567 55.6175 72.961 56.9457C72.9663 58.7824 74.5191 59.6961 76.1377 58.7629C77.4328 58.0153 78.4448 56.2651 78.4406 54.7793C78.4344 52.7716 76.6039 51.8831 74.8587 53.2265ZM75.2698 57.2593C75.0146 57.4076 74.8494 57.4093 74.8112 57.389C74.7756 57.3686 74.6977 57.2271 74.6968 56.9406C74.6943 56.1566 75.2299 55.1302 75.9165 54.603C76.0332 54.5133 76.1703 54.4252 76.3081 54.3733L76.314 54.3707C76.4115 54.3334 76.4852 54.3216 76.5327 54.3216C76.5632 54.3216 76.5827 54.3266 76.5912 54.3326C76.62 54.3521 76.7039 54.4784 76.7047 54.7843C76.7073 55.6599 76.0368 56.8168 75.2698 57.2593Z" fill="black"/>
<path d="M35.9111 46.1594C35.9103 46.4688 36.0756 46.7553 36.3426 46.9104L48.1579 53.7775C48.4301 53.9358 48.7615 53.9329 49.0283 53.7792L70.9171 41.1418C71.185 40.9867 71.3503 40.701 71.3511 40.3908C71.352 40.0814 71.1867 39.795 70.9197 39.6398L59.1044 32.7736C58.8332 32.6168 58.5018 32.6168 58.2339 32.7719L36.3451 45.4085C36.0773 45.5636 35.912 45.8492 35.9111 46.1594ZM58.6662 34.5264L68.7516 40.3874L48.5961 52.0247L38.5107 46.1628L58.6662 34.5264Z" fill="black"/>
<path d="M27.1472 37.1903C31.473 39.6866 38.2288 39.6848 42.5334 37.1827C47.0477 34.5597 47.1228 29.9677 42.4741 27.2837C38.2201 24.8283 31.3275 24.8258 27.1074 27.2795C22.5227 29.9441 22.5449 34.5311 27.1472 37.1903ZM27.9804 28.7797C31.7208 26.6048 37.8336 26.6099 41.6061 28.7874C45.0413 30.7697 45.0693 33.7005 41.6604 35.6824C37.909 37.8624 31.7869 37.865 28.0152 35.6867C24.5859 33.7074 24.5467 30.7751 27.9804 28.7797Z" fill="black"/>
</svg>
