<svg width="93" height="92" viewBox="0 0 93 92" fill="none" xmlns="http://www.w3.org/2000/svg">
<path d="M11.4785 81.7713C11.4802 82.0798 11.643 82.3646 11.9108 82.5189C12.0865 82.6209 20.733 87.6449 20.5573 87.5428C20.5583 87.5433 20.5586 87.5445 20.5595 87.545C20.8273 87.6992 21.1579 87.6984 21.4258 87.5442L37.2669 78.3979C37.2668 78.3979 37.267 78.3979 37.2669 78.3979L65.2441 62.2455C65.2451 62.2449 65.2456 62.2438 65.2466 62.2432L81.2057 53.0289C81.4753 52.873 81.6414 52.5856 81.6397 52.2746L81.521 10.2285C81.5206 10.1511 81.4822 10.0847 81.4622 10.0119C81.4425 9.93982 81.4412 9.86153 81.4041 9.79732C81.3593 9.71966 81.2814 9.66764 81.214 9.60662C81.1696 9.56646 81.1418 9.51169 81.0888 9.48096L81.0868 9.4798C81.0862 9.47948 81.086 9.47874 81.0854 9.47842C81.0849 9.4781 81.0841 9.47821 81.0836 9.47789L72.4451 4.45734C72.1807 4.30139 71.8467 4.30054 71.5755 4.45565L61.969 10.0014C61.5537 10.2412 61.4113 10.7718 61.652 11.1871C61.8893 11.6025 62.4199 11.7415 62.8369 11.505L72.0078 6.21014L78.9218 10.2282L20.8726 43.7425L13.9586 39.7244L52.7558 17.3253C53.1711 17.0855 53.3135 16.5549 53.0728 16.1396C52.8338 15.7217 52.3015 15.5827 51.8879 15.8217L11.7938 38.9701C11.5225 39.1272 11.3599 39.4162 11.3599 39.721C11.3599 39.7217 11.3603 39.7221 11.3603 39.7227C11.3603 39.7233 11.3599 39.7238 11.3599 39.7244L11.4785 81.7713ZM13.2127 81.2687L13.1008 41.2326C13.3121 41.3554 20.4549 45.507 20.0049 45.2455C20.0318 54.6945 20.0914 75.6589 20.1188 85.282L13.2127 81.2687ZM38.4523 75.7085L40.8371 69.0762L61.1842 57.3295L63.5978 61.1906L38.4523 75.7085ZM65.1014 60.3224L62.2114 55.6988C61.9639 55.3021 61.4486 55.1724 61.0418 55.4072L39.6945 67.7319C39.5166 67.8345 39.3809 67.9972 39.3114 68.1896L36.1236 77.053L21.8555 85.2909C21.8454 81.7656 21.7556 50.3395 21.7411 45.2458L79.7886 11.7326L79.9022 51.777L65.1014 60.3224Z" fill="black"/>
<path d="M59.0668 11.677L55.395 13.7968C54.9797 14.0367 54.8373 14.5673 55.078 14.9826C55.2374 15.2614 55.5307 15.4166 55.829 15.4166C55.9765 15.4166 56.1257 15.3793 56.263 15.3004L59.9347 13.1806C60.35 12.9408 60.4924 12.4102 60.2517 11.9949C60.0127 11.577 59.4804 11.4363 59.0668 11.677Z" fill="black"/>
<path d="M76.2896 19.3172C76.2879 19.0078 76.1235 18.7222 75.854 18.5671C75.5862 18.4128 75.2556 18.4136 74.9878 18.5679L25.7025 47.0229C25.433 47.1789 25.2669 47.4662 25.2686 47.7773L25.3347 71.1223C25.3364 71.4316 25.5008 71.7173 25.7703 71.8724C26.0381 72.0266 26.3687 72.0258 26.6366 71.8715L75.9218 43.4173C76.1913 43.2614 76.3575 42.974 76.3558 42.663L76.2896 19.3172ZM27.0654 69.6186L27.0061 48.2748L74.5589 20.8208L74.6182 42.1654L27.0654 69.6186Z" fill="black"/>
<path d="M58.8888 32.876L38.8283 44.4582C35.3311 46.478 32.5985 51.2092 32.6104 55.2301C32.6208 59.5273 35.8933 61.5141 39.7335 59.2977L59.7958 47.7155C63.2929 45.6948 66.0255 40.9636 66.0136 36.9427C65.9995 32.5889 62.6783 30.6908 58.8888 32.876ZM38.8655 57.7941C36.2306 59.313 34.3532 58.2257 34.3462 55.225C34.3378 51.883 36.7873 47.6409 39.6962 45.9618L48.4286 40.9201L48.4588 52.2557L38.8655 57.7941ZM58.9278 46.2118L50.192 51.2552L50.1617 39.9194L59.7568 34.3796C62.3733 32.8658 64.2672 33.9303 64.2778 36.9478C64.2862 40.2889 61.8367 44.5319 58.9278 46.2118Z" fill="black"/>
<path d="M40.6792 46.9713C38.9264 47.9833 37.5567 50.3548 37.5635 52.3712C37.5706 54.7438 39.4972 55.8521 41.5641 54.658C43.3169 53.6468 44.6866 51.2753 44.6798 49.2597C44.6762 46.8796 42.7386 45.7806 40.6792 46.9713ZM40.6962 53.1552C39.7919 53.6788 39.3029 53.3945 39.2994 52.3661C39.296 50.9625 40.3249 49.1801 41.5471 48.4749C42.3995 47.981 42.9402 48.1751 42.944 49.264C42.9473 50.6676 41.9184 52.4492 40.6962 53.1552Z" fill="black"/>
<path d="M57.0581 37.5147C55.3053 38.5276 53.9356 40.9 53.9424 42.9147C53.9496 45.2973 55.8862 46.3916 57.9447 45.2023C59.6958 44.1903 61.0638 41.8187 61.0604 39.8023C61.0533 37.4244 59.1223 36.3227 57.0581 37.5147ZM57.0768 43.6987C56.2062 44.2045 55.682 43.9784 55.6783 42.9096C55.6748 41.5068 56.7038 39.7244 57.926 39.0183C58.8355 38.4938 59.321 38.7815 59.3246 39.8066C59.3279 41.211 58.2973 42.9935 57.0768 43.6987Z" fill="black"/>
</svg>
