<svg width="93" height="92" viewBox="0 0 93 92" fill="none" xmlns="http://www.w3.org/2000/svg">
<path d="M5.2933 55.1302L11.7527 58.8849C12.168 59.1257 12.6978 58.985 12.9393 58.5696C13.1809 58.156 13.0402 57.6237 12.6257 57.383L6.59604 53.8791L6.57993 48.0004L54.1562 75.6475L54.1733 81.5289L24.6521 64.3722C24.2385 64.1315 23.707 64.2705 23.4655 64.6875C23.2239 65.1011 23.3655 65.6334 23.7791 65.8741C30.5559 69.8122 18.4714 62.7896 54.6124 83.792C54.8816 83.9453 55.2111 83.9466 55.4795 83.7903L60.187 81.0713C60.4565 80.917 60.6218 80.6288 60.6209 80.3186L60.61 76.4087C60.8236 76.4774 61.0301 76.5536 61.1998 76.652L64.0774 78.3268C64.3425 78.4802 64.6757 78.4853 64.9479 78.3268C64.9512 78.3249 64.9525 78.3208 64.9559 78.3187L69.2137 75.8603C69.4833 75.7061 69.6486 75.4179 69.6477 75.1077L69.6364 71.1939C69.8476 71.2624 70.0522 71.3384 70.2207 71.4376L73.0925 73.0991C73.0987 73.1029 73.1012 73.1105 73.1075 73.1142C73.3927 73.2766 73.7288 73.2574 73.9822 73.1108C73.9849 73.1092 73.9859 73.106 73.9886 73.1044L78.249 70.6443C78.5185 70.49 78.6838 70.2019 78.6829 69.8917L78.672 65.986C78.8825 66.0532 79.0864 66.127 79.2525 66.2216L82.1239 67.8911C82.1283 67.8937 82.1299 67.899 82.1343 67.9015C82.4034 68.0548 82.733 68.0561 83.0014 67.8998L87.7266 65.1723C87.9962 65.0181 88.1615 64.7299 88.1606 64.4197L88.1378 56.5531C88.1381 56.5432 88.1453 56.5352 88.1453 56.5253C88.1462 56.2151 87.9818 55.9286 87.7139 55.7726L70.4409 45.7296L70.3402 22.6211C70.3393 22.4474 70.197 22.0422 69.9079 21.8744L69.9059 21.8732C69.9053 21.8729 69.9052 21.8722 69.9045 21.8719C68.1546 20.8553 64.3927 18.6699 64.6156 18.7994C64.3461 18.6426 64.0138 18.6426 63.746 18.7977L58.4367 21.8634C58.176 22.0143 58.0028 22.2971 58.0028 22.6143C58.0028 22.6151 58.0033 22.6157 58.0033 22.6165C58.0033 22.6172 58.0028 22.6178 58.0028 22.6186L58.0718 38.5528L56.4147 37.5888L56.3847 30.6791C56.3833 30.4324 56.1667 30.0563 55.9533 29.9324L55.9493 29.93L52.1939 27.7474L52.1266 12.0476C52.1266 12.0455 52.1282 12.0437 52.1282 12.0416C52.1282 12.0394 52.1265 12.0376 52.1265 12.0353V12.0297C52.1252 11.7773 51.981 11.4476 51.6908 11.2805C51.6837 11.2764 51.6752 11.2782 51.668 11.2744L46.3951 8.21053C46.1264 8.05372 45.7942 8.05372 45.5255 8.20883L40.2162 11.2745C39.9484 11.4296 39.7831 11.7153 39.7823 12.0255C39.7823 12.0292 39.785 12.0321 39.785 12.0358C39.785 12.0356 39.785 12.036 39.785 12.0358L39.8503 27.9542L38.3965 27.1133C38.3363 27.0784 38.2672 27.0805 38.2023 27.0611L38.1719 20.0953C38.1705 19.8017 37.8965 19.4393 37.7405 19.3486L37.7364 19.3463L32.4405 16.2685C32.1701 16.1108 31.8387 16.1125 31.5701 16.2668L26.2515 19.3367C26.2512 19.337 26.2518 19.3365 26.2515 19.3367C26.2512 19.337 26.2501 19.3382 26.2498 19.3384C25.9897 19.4899 25.8185 19.7695 25.8175 20.0877C25.8175 20.0884 25.818 20.0891 25.818 20.0898C25.818 20.0906 25.8175 20.0912 25.8175 20.0919L25.8775 33.838L23.7808 35.0441C23.5129 35.1984 23.3468 35.484 23.346 35.7934C23.346 35.7957 23.3477 35.7975 23.3477 35.7999L23.355 39.7049C23.1517 39.6369 22.9438 39.5726 22.7738 39.4719L19.8929 37.8056C19.6234 37.6496 19.292 37.6505 19.0241 37.8047L14.7846 40.2518C14.7728 40.2579 14.7589 40.2552 14.7472 40.2619C14.4786 40.4178 14.3133 40.7051 14.3141 41.0162L14.3281 44.9157C14.1285 44.85 13.9188 44.7949 13.7505 44.6981L10.8687 43.0148C10.6 42.858 10.2661 42.858 9.99739 43.0123L5.2879 45.7317C5.28356 45.7342 5.27815 45.733 5.27381 45.7355C5.00428 45.8898 4.839 46.178 4.83985 46.4882L4.86188 54.3809C4.86273 54.6894 5.02716 54.9742 5.2933 55.1302ZM55.9092 81.5374L55.8923 75.6489C56.0665 75.5481 59.0584 73.8173 58.8673 73.9278L58.8834 79.8202L55.9092 81.5374ZM62.0712 75.1501C61.6481 74.9049 61.1405 74.7464 60.6051 74.6307L60.5989 72.4259C60.5986 72.321 60.5553 72.2278 60.5197 72.1326C60.4507 71.9446 60.3424 71.7742 60.1641 71.6716L57.2823 70.0052C56.5628 69.5895 56.5782 69.1709 57.2976 68.7525C57.9065 68.4016 58.7728 68.2807 59.5987 68.3411C60.18 68.387 60.7477 68.5108 61.1854 68.7644L63.6197 70.1807L63.6409 76.0637L62.0712 75.1501ZM65.3776 76.0722L65.3606 70.1781L67.8932 68.7152L67.9102 74.6093L65.3776 76.0722ZM69.6312 69.4156L69.6248 67.2133C69.624 66.9031 69.4578 66.6166 69.19 66.4623C69.1888 66.4617 69.1874 66.4619 69.1862 66.4613L66.3091 64.7977C64.4293 63.7117 68.2196 62.3982 70.208 63.5534C70.3818 63.6544 72.8252 65.0736 72.6513 64.9726L72.6684 70.8476L71.0954 69.9391C70.6749 69.6915 70.1675 69.5321 69.6312 69.4156ZM74.4101 70.858L74.3892 64.967C74.5628 64.8666 77.1029 63.3988 76.9293 63.4992L76.9454 69.3933L74.4101 70.858ZM80.1187 64.7163C79.699 64.4774 79.1966 64.322 78.667 64.2073L78.6609 62.0156C78.6612 62.0067 78.6677 61.9995 78.6677 61.9905C78.6677 61.6803 78.5024 61.3938 78.2346 61.2395L75.3528 59.5732C74.6766 59.1804 74.5387 58.804 75.363 58.3238C76.3953 57.7305 78.1998 57.7373 79.2254 58.334L81.6724 59.7596L81.6936 65.6317L80.1187 64.7163ZM83.4311 65.6487L83.4141 59.7563L86.4061 58.0289L86.4231 63.9213L83.4311 65.6487ZM59.7454 24.1273L63.2972 26.1909C63.3025 27.4162 63.4197 54.4736 63.4349 57.9933L59.8844 55.9312C59.6939 12.3408 59.7597 27.3905 59.7454 24.1273ZM65.1711 58.0066C65.1594 55.3037 65.0466 29.23 65.0335 26.1903C65.2074 26.0899 68.8424 23.9905 68.6111 24.1241C68.6147 24.9524 68.7502 56.1444 68.7493 55.9395C68.5754 56.0399 64.9398 58.1403 65.1711 58.0066ZM64.1783 20.5522L67.7406 22.622C67.4418 22.7945 63.9487 24.8116 64.1641 24.6872L60.6023 22.6177L64.1783 20.5522ZM50.4542 26.7683C50.3062 26.7264 49.9791 26.7388 49.7821 26.8523L46.8774 28.533L46.8172 15.6082L50.3974 13.5412L50.4542 26.7683ZM53.785 30.6798L50.1994 32.7494L46.6375 30.6799L50.2228 28.6093L50.2333 28.6153L53.785 30.6798ZM41.5266 13.5444L45.0812 15.6064C45.0826 15.9244 45.1477 29.9432 45.1458 29.534L44.4711 29.9239C44.2058 30.0774 44.0441 30.3602 44.0408 30.6664C44.0408 30.67 44.038 30.6729 44.038 30.6765C44.038 30.6777 44.0372 30.6788 44.0372 30.6799C44.0379 30.861 44.1127 47.803 44.1081 46.7639L41.658 45.3457L41.5266 13.5444ZM45.9273 63.9908C45.8953 56.5117 45.7813 31.7846 45.7806 32.1895L49.3324 34.2531C49.3474 37.6995 49.4579 63.04 49.471 66.0529L45.9273 63.9908ZM54.793 63.9932L51.2071 66.0596C51.1953 63.3578 51.0864 38.3191 51.0687 34.2525L54.6557 32.1819C54.8232 71.0143 54.6129 22.2747 54.793 63.9932ZM45.9578 9.96333L49.5227 12.0347L45.9488 14.102L42.3818 12.0289L45.9578 9.96333ZM25.0911 39.8932L25.0861 37.3124L25.8946 37.7853L25.9032 39.7444C25.6409 39.8198 25.3747 39.8695 25.0911 39.8932ZM36.581 53.4146L32.9951 55.4843C32.9752 50.9285 32.8765 28.2149 32.8567 23.6687C33.0741 23.5432 36.6719 21.4659 36.4428 21.5982C36.6209 62.694 36.3722 6.41809 36.581 53.4146ZM27.7008 53.4011C27.699 53.6619 27.6204 35.4766 27.5601 21.6006L31.1204 23.6694C31.1346 26.9233 31.2462 52.5276 31.259 55.4726C31.0849 55.3712 27.4707 53.2671 27.7008 53.4011ZM32.0023 18.0213L35.5722 20.0961L31.9874 22.1657L28.4171 20.0911L32.0023 18.0213ZM16.0646 45.1082L16.0551 42.5256L17.6341 43.4394C18.4312 43.9005 18.2702 44.3172 17.6172 44.6964C17.1906 44.9428 16.6353 45.0627 16.0646 45.1082ZM10.4288 44.7676L12.8809 46.2C14.3683 47.0553 16.9364 47.0965 18.4868 46.1983C20.3687 45.1106 20.4251 43.0793 18.5088 41.935L16.9266 41.0196L19.4573 39.5592L21.8958 40.9687C22.9986 41.6243 24.66 41.7913 25.904 41.5553C25.9048 41.7304 25.9691 54.7325 25.965 53.9079C25.9667 54.2165 26.1303 54.4995 26.3973 54.6555C26.5729 54.7578 32.0317 57.9386 31.6921 57.7407C31.9608 57.9001 32.2939 57.8984 32.5626 57.7441L37.8913 54.6725C38.1617 54.5165 38.3278 54.2266 38.3261 53.9164C38.3143 51.3683 38.3689 63.1413 38.2108 29.0116L39.8569 29.9629L39.9238 45.8508C39.9255 46.1593 40.09 46.4441 40.3569 46.5984L44.1169 48.7742L44.1855 64.4959C44.1872 64.8045 44.3508 65.0876 44.6169 65.2435C44.7926 65.3456 50.0884 68.4233 49.9127 68.3212C49.9124 68.321 49.913 68.3214 49.9127 68.3212C50.1857 68.4767 50.5142 68.4743 50.7805 68.3202C51.3506 67.9904 56.2733 65.1467 56.0974 65.2486C56.3732 65.089 56.5372 64.7892 56.5356 64.4875C56.5241 61.9426 56.5772 73.7051 56.4234 39.602L58.0806 40.5654L58.1494 56.4337C58.1494 56.4348 58.1502 56.4357 58.1502 56.4368V56.4388C58.1519 56.7473 58.3164 57.0321 58.5825 57.1864L63.8765 60.2597C64.1452 60.4157 64.4766 60.4157 64.747 60.2597C64.9229 60.158 70.394 56.9947 70.0537 57.1915C70.3306 57.033 70.4935 56.7309 70.4919 56.4303C70.491 56.2547 70.447 47.1722 70.4497 47.7442L85.5433 56.5185L82.5411 58.2459L80.1086 56.8304C78.5363 55.9184 76.0732 55.9116 74.4874 56.8219C72.5729 57.9758 72.5818 59.9751 74.4832 61.0751L76.0664 61.9905L73.5255 63.461C73.3518 63.3598 70.9013 61.9316 71.075 62.0329C68.722 60.7067 64.0997 61.4338 64.0189 64.1315C64.0188 64.1351 64.0207 64.1379 64.0206 64.1415C64.0203 64.1479 64.0174 64.1539 64.0172 64.1603C64.0172 64.9977 64.5359 65.7775 65.4395 66.2996L67.021 67.215L64.4908 68.6744L62.0457 67.2523C60.4006 66.2921 57.8572 66.4209 56.4305 67.2455C54.5679 68.3211 54.4759 70.3885 56.4136 71.5071L57.9968 72.4225C57.8226 72.5233 54.8362 74.2514 55.0254 74.142L7.4432 46.4904L10.4288 44.7676Z" fill="black"/>
<path d="M19.626 63.4602C19.7633 63.5399 19.9133 63.5772 20.0617 63.5772C20.3609 63.5772 20.6516 63.4229 20.8126 63.1449C21.0542 62.7313 20.9135 62.199 20.499 61.9583L16.3399 59.541C15.9246 59.3003 15.3932 59.441 15.1533 59.8563C14.9118 60.2699 15.0525 60.8022 15.4669 61.0429L19.626 63.4602Z" fill="black"/>
</svg>
