<svg width="93" height="92" viewBox="0 0 93 92" fill="none" xmlns="http://www.w3.org/2000/svg">
<path d="M23.0268 18.1276C23.0265 18.1363 23.0217 18.1435 23.0217 18.1523C22.9762 94.0442 23.013 67.9789 22.9878 73.5969C23.0064 77.4322 25.5356 80.9895 30.1041 83.6137C39.2128 88.8627 53.9628 88.8599 62.9835 83.6306C67.535 80.9887 70.0303 77.4221 70.0117 73.5927C70.0106 62.3725 70.0076 29.5057 70.0066 18.3142C70.0066 18.3074 70.0066 18.3015 70.0066 18.2956V18.2905C70.0066 18.2896 70.0066 18.2913 70.0066 18.2905C70.0066 18.2868 70.0045 18.2819 70.0045 18.2782C70.0045 18.2695 70.0066 18.261 70.0066 18.2523C69.9747 0.184381 23.1369 -0.444527 23.0268 18.1276ZM46.4455 5.97424C54.9098 5.97424 68.2573 9.82409 68.2707 18.2549C68.2863 34.0257 24.7506 34.456 24.7588 18.1736C24.7672 9.79277 37.9824 5.97424 46.4455 5.97424ZM68.2084 31.9951C68.2287 31.9657 68.2559 31.9381 68.2758 31.9086C68.2718 41.0041 68.2758 45.2957 68.2758 48.5261C68.2755 48.5349 68.2707 48.5421 68.2707 48.5509C68.2707 48.5517 68.2707 48.5526 68.2707 48.5534C68.2589 51.7022 66.0772 54.7035 62.1258 57.0004C53.5737 61.9689 39.6055 61.9664 30.989 56.9902C26.9765 54.6738 24.766 51.6462 24.7575 48.4602V48.4237C24.7575 48.3642 24.7351 48.3119 24.7236 48.2557V31.9298C25.9272 33.6834 27.736 35.2786 30.0871 36.6245C39.1999 41.8859 53.9514 41.8618 62.9564 36.6271C65.3906 35.213 67.1569 33.5201 68.2084 31.9951ZM68.2707 53.8491V64.6448C68.2606 67.7952 66.0789 70.7957 62.1258 73.0935C53.5737 78.0637 39.6055 78.0611 30.989 73.0841C26.963 70.7592 24.7491 67.7172 24.7575 64.5168V53.7779C25.9611 55.5341 27.7699 57.136 30.121 58.4938C39.219 63.7463 53.9669 63.748 62.9971 58.5006C65.3042 57.1598 67.0824 55.5807 68.2707 53.8491ZM62.1122 82.1287C53.5635 87.087 39.5936 87.0777 30.9703 82.1092C26.9579 79.8055 24.7406 76.7796 24.7236 73.5579V69.7959C25.9266 71.5808 27.7381 73.2113 30.121 74.5877C39.2234 79.8424 53.9703 79.8412 62.9971 74.5937C65.3146 73.2472 67.0877 71.6573 68.2758 69.9174V73.5969C68.2928 76.783 66.1026 79.8122 62.1122 82.1287ZM68.2453 23.6192L68.2303 26.637C68.2297 26.6492 68.2233 26.6609 68.2233 26.6731C68.2233 27.5437 68.0422 28.3997 67.7196 29.2343C66.7257 31.7903 64.4711 33.7413 62.0766 35.1226C53.5026 40.11 39.481 40.045 30.95 35.1175C27.7802 33.2878 24.8747 30.4921 24.743 26.8471C24.7034 25.8562 24.7343 24.474 24.7321 23.4743C28.8443 29.53 38.3117 31.9748 45.666 32.1424C53.5289 32.321 63.8048 29.9912 68.2241 23.6459C68.2305 23.6368 68.2391 23.6283 68.2453 23.6192Z" fill="black"/>
<path d="M46.5847 27.7842C53.3257 27.7842 64.6903 24.7361 64.6806 18.2523C64.671 11.7194 53.2583 8.64667 46.4508 8.64667C39.713 8.64667 28.3433 11.6974 28.3481 18.1888C28.3578 24.7001 39.731 27.7842 46.5847 27.7842ZM46.4508 10.3825C52.0663 10.3825 62.934 13.0399 62.9448 18.2557C62.9557 23.4564 52.3343 26.0484 46.5847 26.0484C40.9573 26.0484 30.0948 23.3922 30.084 18.1862C30.0785 12.9853 40.6779 10.3825 46.4508 10.3825Z" fill="black"/>
<path d="M41.4923 20.9849C42.8213 21.7511 44.6606 22.191 46.5388 22.191C48.417 22.191 50.2478 21.7528 51.5633 20.9875C52.8533 20.2382 53.5619 19.2584 53.5602 18.2294C53.5602 17.1895 52.838 16.1995 51.5277 15.4426C48.8781 13.9127 44.0944 13.9152 41.4652 15.4451C40.1938 16.1825 39.4666 17.1895 39.4683 18.2066C39.47 19.2465 40.1904 20.2331 41.4923 20.9849ZM42.3382 16.9462C43.3977 16.3292 44.9114 15.9757 46.4913 15.9757C48.0712 15.9757 49.5918 16.3292 50.6597 16.9462C51.5192 17.4429 51.8243 17.948 51.8243 18.2311C51.8243 18.5066 51.5294 19.0007 50.692 19.4873C48.573 20.7196 44.5063 20.7188 42.3602 19.4813C41.5075 18.9897 41.2041 18.4854 41.2041 18.2032C41.2041 17.9269 41.4991 17.4319 42.3382 16.9462Z" fill="black"/>
<path d="M31.8994 39.3894C30.1072 38.3528 28.4176 39.3415 28.4141 41.3736C28.4073 43.0619 29.5515 45.047 31.0162 45.8946C32.7917 46.9192 34.4911 45.941 34.4946 43.8875C34.498 42.2084 33.3589 40.2327 31.8994 39.3894ZM32.552 44.5427C32.4554 44.6028 32.2045 44.5774 31.8841 44.391C30.9568 43.8553 30.1466 42.4475 30.1499 41.3795C30.1516 41.0142 30.2517 40.793 30.35 40.7362C30.3805 40.7184 30.4263 40.7082 30.4822 40.7082C30.6127 40.7082 30.8026 40.7608 31.0314 40.893C31.9536 41.4261 32.7622 42.8229 32.7588 43.8824C32.7571 44.257 32.6537 44.4833 32.552 44.5427Z" fill="black"/>
<path d="M31.8994 48.0991C30.1 47.0601 28.4176 48.0576 28.4141 50.0833C28.4073 51.7716 29.5515 53.7567 31.0162 54.6043C32.8002 55.6337 34.4911 54.6415 34.4946 52.598C34.498 50.9181 33.3589 48.9424 31.8994 48.0991ZM32.552 53.2524C32.4554 53.3134 32.2045 53.2871 31.8841 53.1007C30.9568 52.565 30.1466 51.1572 30.1499 50.0892C30.1516 49.7239 30.2517 49.5027 30.35 49.4459C30.3805 49.4281 30.4263 49.4179 30.4822 49.4179C30.6127 49.4179 30.8026 49.4705 31.0314 49.6027C31.9536 50.1358 32.7622 51.5335 32.7588 52.593C32.7571 52.9667 32.6554 53.193 32.552 53.2524Z" fill="black"/>
</svg>
