<svg width="93" height="92" viewBox="0 0 93 92" fill="none" xmlns="http://www.w3.org/2000/svg">
<path d="M14.4683 20.4809L27.1295 13.1696C27.5448 12.9306 27.6872 12.4 27.4473 11.9847C27.2066 11.5694 26.6735 11.4236 26.2615 11.6677L13.6003 18.9773C11.3034 20.3029 9.51924 23.3949 9.53873 26.0105L9.67604 79.3031C9.67604 80.7101 10.221 81.8323 11.1695 82.3815C13.5633 83.7724 20.0269 87.5262 19.6351 87.3026C20.7236 87.9239 21.9844 87.6761 23.0746 87.0449L39.2237 77.7219C39.5398 79.2192 40.2844 80.3629 41.3994 81.0152L45.2169 83.241C45.216 83.241 45.2177 83.241 45.2169 83.241C45.2235 83.2449 45.2331 83.2431 45.2399 83.2468C45.2411 83.2476 45.2419 83.2487 45.2431 83.2495C45.8899 83.6224 46.6154 83.8072 47.3918 83.8072C48.447 83.8072 49.5963 83.4648 50.7702 82.7867C52.3908 81.851 83.4759 60.9784 83.4615 55.8556C83.4598 55.2836 83.1856 54.8104 82.6942 54.5176C82.687 54.513 82.6832 54.5055 82.6758 54.5012L78.8549 52.2737C75.7818 50.4925 59.9548 57.3449 51.4344 61.3232L51.2991 12.6696C51.2891 11.2561 50.7624 10.1792 49.8235 9.62156C49.3268 9.32659 41.1834 4.58141 41.357 4.68704C40.3933 4.14289 39.1321 4.23782 37.8963 4.94979L33.1685 7.67901C32.7532 7.91802 32.6108 8.44861 32.8506 8.86393C33.0897 9.27924 33.6202 9.41994 34.0364 9.18092L38.7634 6.4534C39.4516 6.05504 40.0873 5.96689 40.4941 6.19235L46.5688 9.73016C46.4899 9.77084 46.4111 9.81491 46.3314 9.86068L22.0482 23.8746C19.8805 25.1423 17.9705 28.2018 17.9705 30.9231C17.9708 31.0592 18.1109 84.2748 18.118 84.4107L12.0399 80.8796C11.6407 80.6491 11.4119 80.0744 11.4119 79.3014L11.2746 26.002C11.2602 24.017 12.7223 21.4878 14.4683 20.4809ZM32.3879 69.5085C31.9876 69.2698 31.7506 68.6878 31.7364 67.9081C31.738 65.926 33.2001 63.374 34.9526 62.3769C35.4664 62.0751 36.2139 61.861 36.6796 62.1456C36.6802 62.146 36.6811 62.1459 36.6817 62.1464C36.8716 62.2505 43.8164 66.0579 43.5429 65.9079C43.5312 65.9198 43.5218 65.9344 43.5102 65.9463C41.5729 67.9257 40.0201 70.7499 39.3976 73.3289C39.3949 73.3399 39.3899 73.3507 39.3872 73.3616L32.3879 69.5085ZM41.9258 63.0424L37.559 60.6495C36.1962 59.8008 34.5116 60.4344 33.2517 61.4416C31.374 62.9429 30.0002 65.5992 30.0002 67.9116C30.0002 67.9167 30.0002 67.9201 30.0002 67.9252C30.0196 69.1564 30.4612 70.3838 31.525 71.0138L35.6892 73.3107C35.24 73.6633 34.7764 73.9803 34.3051 74.2583C30.2499 76.6001 27.2385 74.8605 27.2227 70.217C27.2066 65.1909 30.7495 59.051 35.1196 56.5303C36.3071 55.8471 37.4327 55.503 38.4252 55.503C39.0711 55.503 39.6601 55.6488 40.1721 55.9438C41.4638 56.6879 42.1791 58.3322 42.1859 60.5699C42.1859 61.3665 42.0987 62.1953 41.9258 63.0424ZM49.9023 81.2848C48.4224 82.1374 47.0765 82.3019 46.1085 81.7442C45.5369 81.4158 45.1399 80.8198 44.8943 80.0531C44.7304 79.5355 44.6236 78.953 44.6236 78.2725C44.6181 76.9628 44.961 75.5347 45.5235 74.1426C46.8048 70.9757 48.8677 68.7512 50.7262 67.6777C50.7729 67.6506 50.8324 67.6185 50.8824 67.5901C53.9947 65.8268 78.4834 54.6576 81.7029 55.967C81.2196 59.5624 55.1111 78.2756 49.9023 81.2848ZM77.2394 53.6366C77.5691 53.6366 77.8208 53.6807 77.9819 53.7739L79.1176 54.4367C72.0564 55.7369 56.8133 62.6616 50.5731 65.8029C50.2139 65.9834 49.9598 66.1146 49.8599 66.1724C47.5939 67.48 45.1324 70.1837 43.7438 73.9611C43.0367 75.882 42.6361 77.9631 43.051 79.9508C43.0523 79.957 43.0517 79.9648 43.053 79.971L42.2749 79.5167C41.3299 78.9641 40.801 77.7368 40.7866 76.0671C40.7866 75.0426 41.0127 73.9175 41.3162 72.9516C43.2939 66.6965 47.3436 65.1413 50.9414 63.4364C50.9803 63.4179 50.9991 63.3777 51.0342 63.3543C58.8566 59.6469 73.3936 53.6366 77.2394 53.6366ZM44.9403 64.6943L43.4835 63.8959C43.753 62.761 43.9218 61.6413 43.9218 60.5665C43.9124 57.6813 42.8886 55.5064 41.0391 54.4401C35.0791 51.0018 25.458 61.0146 25.4868 70.2238C25.5018 74.8428 28.0707 77.0316 30.98 77.0316C32.2845 77.0316 33.7135 76.6044 35.1806 75.7585C35.9225 75.3187 36.6294 74.7838 37.3089 74.1983L39.1033 75.1864C39.0844 75.3973 39.0525 75.6114 39.0473 75.8196L22.2067 85.543C20.6584 86.4337 19.8698 85.6663 19.847 84.1954L19.7097 30.9197C19.7097 28.8609 21.2868 26.3232 22.9178 25.3884L47.2028 11.3626C48.5282 10.6011 49.55 10.9488 49.5633 12.678L49.7006 62.104C48.1275 62.854 46.9557 63.4426 46.2762 63.8191C45.8342 64.0505 45.3309 64.4026 44.9403 64.6943Z" fill="black"/>
<path d="M29.7452 11.6593L31.648 10.5608C32.0633 10.3218 32.2057 9.79121 31.9658 9.37589C31.7243 8.96058 31.1928 8.81649 30.7801 9.0589L28.8772 10.1574C28.4619 10.3964 28.3195 10.927 28.5594 11.3423C28.8011 11.7595 29.3347 11.8989 29.7452 11.6593Z" fill="black"/>
<path d="M27.0285 36.329C28.7575 35.3323 30.1077 32.9963 30.1026 31.0113C30.0955 28.6685 28.1802 27.5705 26.1427 28.7499C24.4179 29.745 23.0711 32.0826 23.0762 34.0727C23.0833 36.419 24.9995 37.5063 27.0285 36.329ZM27.0107 30.2518C27.86 29.7643 28.3631 29.9814 28.3668 31.0164C28.3702 32.3894 27.3599 34.1338 26.1605 34.8271C25.3123 35.3167 24.8157 35.099 24.812 34.0677C24.8086 32.6895 25.8156 30.9418 27.0107 30.2518Z" fill="black"/>
<path d="M35.1324 31.6503C36.8572 30.6552 38.2049 28.321 38.1998 26.336C38.1926 23.9739 36.2609 22.8984 34.2475 24.0695C32.5193 25.0697 31.1683 27.409 31.1734 29.3974C31.1805 31.754 33.1102 32.8219 35.1324 31.6503ZM35.1155 25.5714C35.9745 25.0806 36.4603 25.3193 36.464 26.3411C36.4674 27.7141 35.4604 29.4585 34.2645 30.1484C33.3962 30.6501 32.9129 30.4012 32.9092 29.3924C32.9058 28.0159 33.9161 26.2665 35.1155 25.5714Z" fill="black"/>
<path d="M43.2293 26.9768C44.9592 25.9766 46.3094 23.6407 46.3035 21.6591C46.2981 19.3138 44.3863 18.2201 42.3436 19.396C40.6187 20.3928 39.2719 22.7304 39.2779 24.7188C39.285 27.0597 41.1919 28.1545 43.2293 26.9768ZM43.2123 20.8979C44.0559 20.4123 44.5658 20.6247 44.5676 21.6641C44.5719 23.0355 43.5615 24.7799 42.3614 25.4749C41.5189 25.9553 41.0174 25.7559 41.0137 24.7121C41.0095 23.3356 42.0164 21.5896 43.2123 20.8979Z" fill="black"/>
<path d="M26.1735 39.3244C24.4478 40.3194 23.101 42.6537 23.107 44.637C23.1123 46.9745 25.0141 48.0771 27.0592 46.8967C28.7883 45.8965 30.1385 43.5606 30.1326 41.5772C30.1255 39.2532 28.2251 38.1373 26.1735 39.3244ZM26.1905 45.3947C25.3185 45.8945 24.8446 45.6373 24.8428 44.6319C24.8386 43.2605 25.8455 41.5162 27.0414 40.8263C27.8917 40.3361 28.393 40.5521 28.3967 41.584C28.401 42.9554 27.3906 44.6997 26.1905 45.3947Z" fill="black"/>
<path d="M34.277 34.6457C32.5471 35.6441 31.1977 37.9784 31.2036 39.9617C31.209 42.3219 33.1379 43.3894 35.1627 42.2163C36.8875 41.2212 38.2343 38.887 38.2292 36.902C38.2221 34.5681 36.3192 33.4609 34.277 34.6457ZM34.2948 40.7144C33.4512 41.1984 32.9414 40.9995 32.9395 39.9566C32.9352 38.5853 33.9456 36.8409 35.1449 36.1476C35.9842 35.6622 36.4897 35.8659 36.4934 36.907C36.4968 38.2801 35.4899 40.0245 34.2948 40.7144Z" fill="black"/>
<path d="M42.3742 29.9704C40.6494 30.9655 39.3025 33.2997 39.3076 35.2848C39.3147 37.6119 41.2074 38.7273 43.2599 37.5427C44.989 36.546 46.3392 34.2083 46.3341 32.2233C46.3269 29.871 44.3972 28.7963 42.3742 29.9704ZM42.392 36.0408C41.5022 36.5508 41.047 36.2691 41.0435 35.2797C41.0401 33.9066 42.047 32.1623 43.2421 31.4724C44.111 30.9749 44.5946 31.2178 44.5982 32.2284C44.6016 33.6032 43.5913 35.3475 42.392 36.0408Z" fill="black"/>
<path d="M26.1735 49.8852C24.4478 50.8803 23.101 53.2145 23.107 55.1979C23.1123 57.5358 25.0132 58.6379 27.0584 57.4575C28.7883 56.4591 30.1385 54.1232 30.1326 52.1398C30.1255 49.8096 28.2203 48.6994 26.1735 49.8852ZM26.1905 55.9556C25.3195 56.4548 24.8446 56.2022 24.8428 55.1928C24.8386 53.8214 25.8455 52.0771 27.0414 51.3872C27.8939 50.8942 28.393 51.1157 28.3967 52.1466C28.401 53.518 27.3906 55.2623 26.1905 55.9556Z" fill="black"/>
<path d="M34.277 45.2066C32.5479 46.2033 31.1977 48.5409 31.2036 50.5243C31.209 52.879 33.1374 53.9522 35.1627 52.7789C36.8875 51.7838 38.2343 49.4496 38.2292 47.4645C38.2221 45.1254 36.3187 44.0277 34.277 45.2066ZM34.2948 51.2769C33.4269 51.7784 32.9413 51.53 32.9395 50.5192C32.9352 49.1461 33.9456 47.4018 35.1449 46.7085C36.0205 46.2076 36.4898 46.4668 36.4934 47.4696C36.4968 48.8427 35.4899 50.587 34.2948 51.2769Z" fill="black"/>
<path d="M42.3742 40.5313C40.6502 41.5281 39.3025 43.8623 39.3076 45.8456C39.3147 48.1714 41.2055 49.2893 43.2599 48.1036C44.989 47.1068 46.3392 44.7709 46.3341 42.7859C46.3269 40.427 44.3932 39.3595 42.3742 40.5313ZM42.392 46.6017C41.5038 47.1144 41.047 46.8291 41.0435 45.8406C41.0401 44.4675 42.047 42.7248 43.243 42.0332C44.1079 41.5359 44.5946 41.7753 44.5982 42.7909C44.6016 44.164 43.5913 45.9084 42.392 46.6017Z" fill="black"/>
</svg>
