<svg width="93" height="92" viewBox="0 0 93 92" fill="none" xmlns="http://www.w3.org/2000/svg">
<path d="M87.0724 63.5271L75.6018 56.8591C76.5259 54.4614 77.0353 52.0507 77.0353 49.8412C77.0284 47.0048 76.2062 44.7487 74.7148 43.3002C74.8872 42.0068 74.9875 40.7121 74.9875 39.4465C74.9875 39.4456 74.9875 39.4448 74.9875 39.4439C74.9691 33.5601 72.9366 29.1401 69.2703 26.9637C69.2475 26.9473 69.2334 26.9234 69.2087 26.909C69.2036 26.9065 69.2002 26.904 69.1952 26.9023L55.2541 18.8214C50.6529 16.1356 44.9917 17.7272 40.4776 20.6074L39.5399 20.0682C37.2735 18.7595 34.329 19.0172 31.2438 20.798C28.7503 22.2366 26.4601 24.5425 24.6301 27.2343C6.08299 16.4498 29.3938 30.0029 10.0356 18.7519C9.32532 18.3374 8.44045 18.3917 7.52845 18.9079C5.99941 19.7995 4.81958 21.8574 4.84161 23.5806C4.84161 24.5943 5.22811 25.3783 5.9333 25.7885L21.1515 34.6356C20.6878 36.2974 20.4247 37.9575 20.4287 39.5372C20.4458 42.6466 21.4436 45.072 23.2351 46.4704C22.8073 48.5583 22.5646 50.6059 22.5646 52.5543C22.5815 58.4603 24.6327 62.911 28.3434 65.0884L42.2878 73.1879C42.2878 73.1887 42.2895 73.1896 42.2912 73.1904L42.2997 73.1947C42.3051 73.1977 42.3113 73.1971 42.3167 73.2001C42.3209 73.2025 42.3244 73.2058 42.3285 73.2082C46.6614 75.6986 51.8787 74.4271 56.2424 71.9089C57.3102 71.2859 58.3204 70.5948 59.2745 69.8665C61.6205 70.5464 64.0919 69.797 66.2032 68.5787C68.1124 67.4783 69.925 65.8568 71.5046 63.8991C72.5642 64.5151 83.6901 70.9824 82.9802 70.5697C82.9819 70.5714 82.9836 70.5723 82.9853 70.5731C82.9913 70.5765 82.9983 70.5748 83.0042 70.5781C83.7819 71.0151 84.6887 70.8567 85.4586 70.4129C86.9791 69.5357 88.1658 67.4743 88.159 65.7224C88.1572 64.6569 87.6687 63.874 87.0724 63.5271ZM84.2119 63.9348C82.9817 64.8294 82.0722 66.4335 81.9129 67.8865C81.9112 67.9026 81.9036 67.9193 81.9021 67.9354C63.3938 57.1685 64.8954 58.042 64.7165 57.938C64.5378 57.8213 64.5029 57.4528 64.5029 57.2389C64.5029 57.2355 64.5029 57.2313 64.5029 57.2279C64.487 56.0629 65.4032 54.6086 66.3354 54.0791C66.8157 53.7916 66.9075 53.9358 67.0813 53.913L84.255 63.8958C84.2395 63.9068 84.2272 63.9237 84.2119 63.9348ZM55.0422 65.6215L50.8908 63.2127C49.2193 62.2354 48.2938 60.1266 48.2853 57.2754C48.2667 50.9524 52.7283 43.2208 58.2342 40.0406C59.7497 39.1668 61.1923 38.7252 62.4721 38.7252C63.3248 38.7252 64.1029 38.921 64.7826 39.316L68.929 41.7222C67.3219 42.0206 65.8379 42.7515 64.5002 43.634C58.8753 47.3368 54.4345 55.2954 54.4523 61.8778C54.4587 63.2347 54.697 64.6192 55.0422 65.6215ZM21.6814 32.9362L6.80631 24.2883C6.66561 24.2061 6.57746 23.9349 6.57746 23.5696C6.5622 22.4601 7.41657 20.9827 8.39468 20.4123C8.62013 20.2835 8.83542 20.2148 8.99477 20.2148C9.06088 20.2148 9.11851 20.2267 9.16089 20.2521L23.6868 28.6924C23.0426 29.7862 22.1406 31.6682 21.6814 32.9362ZM22.1645 39.5304C22.1602 37.9177 22.45 36.2138 22.971 34.5175C22.9763 34.5032 22.9889 34.4934 22.9934 34.4788C24.4575 29.7632 27.8634 24.7525 32.1117 22.3016C33.6272 21.426 35.0732 20.9827 36.3581 20.9827C37.2108 20.9827 37.9906 21.1785 38.6737 21.5727L38.8704 21.6862C38.8344 21.7123 38.8006 21.7454 38.7648 21.7716C35.2461 24.3515 32.0091 27.9645 29.5691 31.6249C29.5518 31.6507 29.5362 31.6775 29.5191 31.7035C26.7666 35.8508 24.7473 40.4494 23.6698 44.5167C22.7019 43.3869 22.1764 41.6655 22.1645 39.5304ZM29.2181 63.5899C26.0617 61.7371 24.3157 57.8161 24.3004 52.5518C24.3004 41.5223 31.7578 28.3705 40.9791 22.3406C44.9544 19.6792 50.2682 17.9193 54.3811 20.3216L63.4214 25.5605C62.114 25.6172 60.5709 25.9465 59.39 26.3323C53.5673 28.2271 48.4474 32.9943 44.8333 37.8608C40.1456 44.1848 36.48 52.8895 36.5022 60.6606C36.5128 64.0423 37.2185 66.7159 38.1929 68.6691C38.2209 68.7255 38.24 68.7908 38.2686 68.8466L29.2181 63.5899ZM55.3711 70.4078C50.728 73.0904 46.4054 73.5498 43.1947 71.7038C39.5225 69.5897 38.269 64.909 38.2567 60.6538C38.2237 53.0234 41.8644 44.6393 46.4317 38.5985C46.447 38.5782 46.4631 38.559 46.4785 38.5388C49.691 34.3058 54.0196 30.273 59.0229 28.3241C62.0839 27.1388 65.5059 26.7882 68.2967 28.394C71.4752 30.2239 73.2347 34.1491 73.2517 39.4465C73.2517 40.3343 73.2054 41.2372 73.1154 42.1443L65.654 37.8149C63.396 36.5003 60.4515 36.7596 57.3663 38.537C51.3807 41.9952 46.5291 50.4032 46.5494 57.2805C46.5596 60.7717 47.7903 63.411 50.0161 64.7129L57.4832 69.0443C56.8069 69.525 56.1002 69.982 55.3711 70.4078ZM65.3353 67.0751C62.6228 68.6403 59.4378 69.1294 57.5504 66.6723C56.5456 65.3615 56.2032 63.4964 56.1983 61.8667C56.1812 56.0595 59.9521 49.074 64.8341 45.5109C67.3677 43.6665 70.8472 42.358 73.2177 44.274C74.5576 45.3571 75.2934 47.3022 75.2995 49.8438C75.2995 51.7627 74.8875 53.8681 74.101 55.982L67.9374 52.3975C67.324 52.0634 66.3875 52.034 65.4573 52.5738C63.964 53.4349 62.7432 55.4883 62.762 57.2415C62.762 58.3022 63.2692 59.1185 63.8588 59.4545L70.0043 63.027C68.598 64.7282 66.9972 66.1171 65.3353 67.0751ZM84.5907 68.9093C84.2096 69.1314 83.8381 69.2394 83.6883 68.8252C83.3581 67.8626 84.1986 65.9091 85.4501 65.1901C86.1101 64.8008 86.4231 65.0036 86.4231 65.7275C86.4265 66.8573 85.5705 68.344 84.5907 68.9093Z" fill="black"/>
</svg>
