<svg width="93" height="92" viewBox="0 0 93 92" fill="none" xmlns="http://www.w3.org/2000/svg">
<path d="M22.0613 44.6802C22.5393 44.6802 22.9275 44.2929 22.9292 43.8148L22.9428 39.1142C22.9445 38.6344 22.5563 38.2454 22.0774 38.2437H22.0748C21.5968 38.2437 21.2086 38.631 21.2069 39.1091L21.1934 43.8098C21.1925 44.2912 21.5841 44.7116 22.0613 44.6802Z" fill="black"/>
<path d="M26.3001 73.7294C26.7781 73.7294 27.1663 73.3421 27.168 72.864L27.1798 68.6405C27.1815 68.1608 26.7934 67.7717 26.3145 67.7701H26.3119C25.8339 67.7701 25.4457 68.1574 25.444 68.6354L25.4321 72.8589C25.4304 73.3387 25.8186 73.7277 26.2975 73.7294H26.3001Z" fill="black"/>
<path d="M29.7786 75.7373C30.2566 75.7373 30.6448 75.35 30.6465 74.872L30.6584 70.6485C30.6601 70.1687 30.2719 69.7797 29.793 69.778H29.7904C29.3124 69.778 28.9242 70.1653 28.9225 70.6434L28.9107 74.8669C28.909 75.3466 29.2971 75.7356 29.776 75.7373H29.7786Z" fill="black"/>
<path d="M33.2571 77.7452C33.7351 77.7452 34.1233 77.3579 34.125 76.8799L34.1369 72.6564C34.1386 72.1766 33.7504 71.7876 33.2715 71.7859H33.269C32.7909 71.7859 32.4027 72.1732 32.401 72.6513L32.3892 76.8748C32.3875 77.3545 32.7757 77.7435 33.2545 77.7452H33.2571Z" fill="black"/>
<path d="M71.8355 13.921C71.8159 13.8519 71.8154 13.7764 71.7798 13.7146C71.7049 13.5848 71.5968 13.4745 71.4626 13.3968L55.9807 4.45819C55.7112 4.30308 55.3798 4.30138 55.1102 4.45988C54.1231 5.03353 30.7095 18.6402 21.679 23.8882C21.5281 23.9757 21.2486 24.3342 21.2476 24.6357L21.2188 34.6965C21.2179 35.178 21.5841 35.5967 22.0867 35.567C22.5647 35.567 22.9529 35.1797 22.9546 34.7016L22.9792 26.1393C23.1535 26.24 37.6278 34.5968 36.7278 34.0772L36.5897 82.8842L22.8411 74.9465L22.9157 48.7334C22.9173 48.2536 22.5292 47.8646 22.0503 47.8629H22.0477C21.5697 47.8629 21.1815 48.2502 21.1798 48.7283L21.1035 75.4441C21.1027 75.7551 21.2679 76.0425 21.5375 76.1984L37.0194 85.137C37.2909 85.2934 37.6224 85.29 37.8865 85.1379C38.0609 85.0374 45.0172 80.9933 44.8355 81.0989L44.824 83.8818C44.824 84.9853 45.502 85.9855 46.7378 86.7017C48.9774 87.9775 52.4734 87.9798 54.7076 86.6949C55.9053 85.9888 56.5926 84.9701 56.5926 83.9021L56.6265 74.2467L71.3211 65.707C71.5872 65.5528 71.7517 65.268 71.7525 64.9595C71.754 64.4389 71.896 13.9222 71.8966 14.1477C71.8964 14.0666 71.8571 13.9969 71.8355 13.921ZM55.5484 6.21268L69.2971 14.1511L37.5962 32.5738L23.8471 24.6357L55.5484 6.21268ZM54.8568 83.8987C54.8568 84.3395 54.4813 84.8133 53.8338 85.1947C52.1522 86.1626 49.2958 86.1609 47.6023 85.1964C46.9395 84.8124 46.5598 84.3335 46.5598 83.8851L46.5759 80.0939C46.7516 79.9917 55.4373 74.9374 54.8873 75.2574L54.8568 83.8987ZM38.3255 82.8748L38.464 34.0771L70.1565 15.6592L70.0184 64.4569C62.7688 68.6699 48.6632 76.8672 38.3255 82.8748Z" fill="black"/>
<path d="M30.3793 25.3782L37.1557 29.2907C37.4221 29.4441 37.7535 29.4475 38.0262 29.289L62.7679 14.9106C63.0349 14.7555 63.2002 14.469 63.1994 14.1596C63.1985 13.8494 63.0332 13.5638 62.7654 13.4087L55.9873 9.49623C55.7161 9.34112 55.3847 9.34027 55.1168 9.49792L30.3767 23.8763C30.1097 24.0314 29.9445 24.3179 29.9453 24.6273C29.9462 24.9375 30.1114 25.2231 30.3793 25.3782ZM55.555 11.2507L60.5998 14.163L37.588 27.5362L32.5449 24.6239L55.555 11.2507Z" fill="black"/>
<path d="M54.8008 58.0619L52.8098 59.2188C52.3954 59.4595 52.2538 59.991 52.4954 60.4046C52.7377 60.8229 53.2713 60.9583 53.6812 60.719L55.6721 59.5621C56.0866 59.3214 56.2281 58.7899 55.9866 58.3763C55.7459 57.9593 55.2127 57.8203 54.8008 58.0619Z" fill="black"/>
<path d="M49.251 58.8831C48.2907 58.3314 47.0778 58.4229 45.8327 59.1417C43.5747 60.4461 41.8117 63.5008 41.8194 66.0961C41.8248 68.3583 43.1665 69.5093 44.6816 69.5093C45.3258 69.5093 46.0208 69.305 46.7243 68.899C48.9823 67.5954 50.7453 64.5408 50.7376 61.9446C50.7334 60.5198 50.2053 59.4324 49.251 58.8831ZM45.8564 67.3954C45.186 67.7836 44.5732 67.8735 44.1748 67.6463C43.7832 67.42 43.5569 66.8538 43.5552 66.091C43.5493 64.1271 44.9893 61.6335 46.7006 60.6453C47.3761 60.2537 47.9932 60.1613 48.3847 60.3876C48.7746 60.6122 48.9992 61.1809 49.0018 61.9497C49.0077 63.9144 47.5668 66.408 45.8564 67.3954Z" fill="black"/>
<path d="M65.1763 49.6284C64.2185 49.0758 63.0039 49.1682 61.758 49.8869C59.5 51.1913 57.737 54.246 57.7447 56.8413C57.7501 59.1035 59.0918 60.2545 60.6069 60.2545C61.2511 60.2545 61.9461 60.0503 62.6496 59.6443C64.9076 58.3407 66.6705 55.286 66.6629 52.6899C66.6587 51.2651 66.1306 50.1776 65.1763 49.6284ZM61.7817 58.1407C61.1113 58.5272 60.4993 58.6179 60.1001 58.3916C59.7085 58.1653 59.4822 57.5991 59.4805 56.8362C59.4746 54.8724 60.9155 52.378 62.6259 51.3905C63.3031 50.9998 63.9142 50.9057 64.31 51.1329C64.6999 51.3575 64.9245 51.927 64.9271 52.695C64.933 54.6597 63.4921 57.1532 61.7817 58.1407Z" fill="black"/>
<path d="M50.078 45.1854C50.228 45.1854 50.3781 45.1464 50.512 45.0692L58.8649 40.2465C59.1344 40.0905 59.2997 39.8032 59.2989 39.4922L59.2718 29.8933C59.2709 29.5839 59.1048 29.2983 58.8369 29.1432C58.5683 28.9881 58.2369 28.9906 57.9699 29.144L49.6161 33.9668C49.3466 34.1227 49.1813 34.41 49.1821 34.7211L49.2101 44.32C49.2114 44.7922 49.5937 45.1854 50.078 45.1854ZM57.5401 31.3969L57.5613 38.9946L50.9417 42.8164L50.9197 35.2186L57.5401 31.3969Z" fill="black"/>
</svg>
