<svg width="93" height="92" viewBox="0 0 93 92" fill="none" xmlns="http://www.w3.org/2000/svg">
<path d="M4.93647 60.9929C4.93732 61.3014 5.10175 61.5862 5.36874 61.7422L24.4894 72.854C24.9047 73.0964 25.4361 72.954 25.676 72.5387C25.9175 72.125 25.776 71.5928 25.3615 71.3521L6.67062 60.4911L6.57993 28.3417L41.5571 48.6685C41.566 51.9667 41.5249 36.7427 41.644 80.8139L34.5535 76.6935C34.1416 76.4528 33.6076 76.5935 33.3678 77.0088C33.1262 77.4224 33.2678 77.9547 33.6822 78.1954L42.0843 83.0775C42.3573 83.2355 42.6896 83.2314 42.9539 83.0775C42.9598 83.0741 42.9621 83.0672 42.9678 83.0637L57.8683 74.4686L59.3462 75.3306L59.347 75.3323C59.3506 75.3344 59.3565 75.3334 59.3601 75.3354C61.9308 76.8302 65.0021 76.1121 67.5771 74.6237C68.426 74.14 69.2483 73.528 70.0446 72.8458L72.6468 74.2883C72.6576 74.2949 72.6651 74.3055 72.6761 74.3118C73.4044 74.731 74.2798 74.5861 75.0078 74.1643C76.4072 73.3574 77.5006 71.4622 77.4963 69.8518C77.4931 68.9717 77.1515 68.2639 76.5711 67.8627C76.3048 67.6427 76.8966 68.0383 74.9546 66.9328C75.487 66.0477 75.9502 65.1597 76.3464 64.2705L83.3091 68.13C83.3207 68.137 83.3287 68.1483 83.3404 68.155C84.0687 68.5742 84.9441 68.4292 85.6721 68.0075C87.0715 67.2006 88.1648 65.3054 88.1606 63.6967C88.1583 62.8219 87.8211 62.1192 87.2491 61.7161C87.2075 61.6803 87.1751 61.6365 87.1257 61.6082C87.1147 61.6032 87.1028 61.5964 87.091 61.5896L78.2792 56.7057C78.2902 56.4737 78.3092 56.2393 78.3092 56.0023C78.2916 52.5786 77.0514 49.9545 75.0012 48.7367C74.7354 48.4933 75.074 48.7655 73.0636 47.5694L73.0143 31.0105C73.0135 30.7003 72.8482 30.4155 72.5795 30.2596C72.5788 30.2591 72.5779 30.2593 72.5772 30.2589C72.5767 30.2586 72.5776 30.2592 72.5772 30.2589L35.8605 8.92251C35.5918 8.76655 35.2596 8.76655 34.9909 8.92251L5.27381 26.0793C5.06922 26.1963 4.953 26.3999 4.89557 26.6224C4.87756 26.6919 4.84006 26.755 4.83984 26.8285C4.83984 26.8292 4.84027 26.8296 4.84027 26.8302C4.84027 27.0083 4.93547 60.8184 4.93647 60.9929ZM56.1989 64.9404C56.0266 65.9156 55.8991 66.6643 55.8991 67.9329C55.8991 68.9823 56.0945 70.5275 56.4805 71.6504L50.2999 68.0448C48.6455 67.0768 47.7224 64.9799 47.6996 62.1507C47.6996 55.8735 52.1299 48.213 57.5739 45.0719C59.0775 44.2091 60.5108 43.7717 61.7804 43.7717C62.6238 43.7717 63.3951 43.965 64.0672 44.3532L70.2486 47.9418C64.7193 48.9923 57.7634 56.2029 56.1989 64.9404ZM63.3324 62.9288C63.4812 62.8411 63.8059 62.7359 63.9325 62.8084C64.1102 62.9069 74.3168 68.5625 73.6822 68.2109C73.6713 68.2194 73.6625 68.232 73.6516 68.2407C73.3794 68.4566 73.1114 68.7359 72.8914 69.0084C72.2727 69.7696 71.7981 70.7775 71.6773 71.7438C71.6765 71.7505 71.6734 71.7573 71.6726 71.764L61.8937 66.3432C61.7389 66.2452 61.7033 65.9345 61.7033 65.7512C61.7033 64.7858 62.5327 63.3977 63.3324 62.9288ZM74.1407 72.6607C73.5666 72.9925 73.3788 72.843 73.3788 72.2403C73.3788 71.5448 73.7501 70.7124 74.2529 70.094C74.5253 69.7611 75.2129 69.0984 75.5867 69.2718C75.6695 69.3218 75.7596 69.5241 75.7605 69.8569C75.763 70.852 75.0061 72.1623 74.1407 72.6607ZM84.805 66.5039C84.2436 66.8293 84.0439 66.6944 84.0439 66.0835C84.0439 65.3949 84.4074 64.5758 84.9008 63.9599C85.5335 63.1778 86.422 62.6199 86.4248 63.7001C86.4273 64.6951 85.6704 66.0055 84.805 66.5039ZM84.3234 62.0774C84.0489 62.2939 83.7868 62.5668 83.5677 62.8355C82.8688 63.689 82.4492 64.7165 82.3411 65.5928C82.3405 65.5976 82.3382 65.6024 82.3377 65.6071C80.0564 64.3424 72.0469 59.9022 72.5472 60.1795C72.4126 60.0967 72.3727 59.7643 72.3727 59.6012C72.3727 58.6633 73.016 57.5109 73.801 56.9316C73.9747 56.8032 74.3288 56.5285 74.5716 56.6452C79.1703 59.1897 84.5728 62.179 84.3473 62.0541C84.3387 62.0607 84.3319 62.0706 84.3234 62.0774ZM76.5699 55.7582C76.3718 55.6486 75.2513 55.029 75.4265 55.1259C74.8447 54.8046 73.9353 54.8 73.1211 55.2717C73.1179 55.2735 73.1152 55.2763 73.112 55.2781C73.1116 55.2783 73.1124 55.2779 73.112 55.2781C71.7298 56.0926 70.6317 57.9475 70.6317 59.5944C70.6317 60.4316 70.9446 61.2614 71.6743 61.6794L71.676 61.6804C71.6779 61.6816 71.6791 61.6834 71.6811 61.6845L74.8487 63.4403C74.4615 64.3247 73.9981 65.2143 73.4627 66.0987C62.8444 60.2196 65.3143 61.5835 64.7355 61.275C64.2201 60.9906 63.493 60.9334 62.6718 61.3334C61.1519 62.0665 59.9615 64.0724 59.9615 65.7461C59.9615 66.5374 60.2197 67.2315 60.8547 67.709C61.2531 68.0155 62.5162 68.6501 68.428 71.9572C67.8695 72.3963 67.2957 72.7862 66.7125 73.1184C64.2817 74.5254 62.0339 74.8 60.2302 73.8338C59.9143 73.5839 59.1363 73.1973 58.5092 71.9552C57.8693 70.7347 57.6527 69.3219 57.6527 67.9329C57.6527 61.3865 62.2894 53.868 67.4908 50.8682C67.4988 50.8638 67.5073 50.8606 67.5152 50.8558C67.5151 50.8559 67.5153 50.8557 67.5152 50.8558C69.379 49.7812 71.804 49.05 73.7381 49.9977C73.7405 49.9985 73.7435 50.0008 73.7458 50.0014C75.4765 50.8439 76.4987 52.9358 76.5699 55.7582ZM64.9368 42.8512C62.695 41.5527 59.77 41.807 56.7077 43.5683C50.7839 46.9857 45.9637 55.3209 45.9637 62.1575C45.9917 65.6292 47.2198 68.2533 49.4235 69.5433L56.1415 73.4615L43.3837 80.821C43.2663 36.7338 43.3068 51.9629 43.2981 48.6637C81.6505 26.5303 68.4186 34.1665 71.2818 32.5141L71.3114 46.5522L64.9368 42.8512ZM35.4232 10.677L70.4088 31.0071C64.8635 34.2087 84.5426 22.8471 42.4247 47.1634L7.43938 26.8319L35.4232 10.677Z" fill="black"/>
<path d="M27.1599 74.405L30.7893 76.5138C31.1953 76.7509 31.7314 76.6191 31.9751 76.1985C32.2166 75.7849 32.0751 75.2526 31.6606 75.0119L28.0313 72.9031C27.6202 72.6641 27.0862 72.8031 26.8455 73.2184C26.6039 73.6321 26.7455 74.1643 27.1599 74.405Z" fill="black"/>
<path d="M40.7661 38.1489C44.5002 40.3103 50.3332 40.2965 54.0427 38.1319C58.0218 35.8287 58.0277 31.7796 53.9918 29.4645C50.3328 27.332 44.3828 27.3235 40.7288 29.4459C36.7937 31.7371 36.6665 35.7523 40.7661 38.1489ZM41.6392 36.6486C41.1126 36.3409 40.457 35.8421 40.0748 35.3486C40.0682 35.34 40.064 35.3308 40.0575 35.3222C40.4127 34.8492 40.9369 34.4099 41.601 34.0313C44.7167 32.2209 49.9912 32.2243 53.1205 34.0313C53.8086 34.4286 54.3454 34.88 54.6995 35.3551C54.694 35.3623 54.6906 35.3697 54.685 35.377C54.3202 35.8432 53.684 36.3333 53.1705 36.6317C50.0497 38.454 44.7684 38.4574 41.6392 36.6486ZM41.601 30.9478C44.7396 29.1225 50.0163 29.1552 53.1222 30.9664C54.352 31.672 55.0725 32.5338 55.2369 33.4251C54.8718 33.1075 54.4657 32.8047 53.9884 32.5294C50.3252 30.4104 44.376 30.4104 40.7365 32.526C40.2798 32.7855 39.8825 33.0815 39.5221 33.3947C39.6841 32.5086 40.3924 31.6513 41.601 30.9478Z" fill="black"/>
<path d="M23.8485 28.3813C27.5598 30.5315 33.3912 30.5521 37.1233 28.383C40.9886 26.1674 41.2145 22.0853 37.0885 19.6936C33.3524 17.5441 27.527 17.5458 23.8315 19.6953C19.7345 22.0703 19.9217 26.1654 23.8485 28.3813ZM24.7104 26.8743C23.938 26.4397 23.6286 26.0948 23.2851 25.6728C23.6334 25.258 24.1108 24.8684 24.702 24.5299C27.8618 22.694 33.0278 22.6957 36.213 24.5248C36.8193 24.886 37.3052 25.2817 37.6539 25.6919C37.3123 26.1094 36.9882 26.4599 36.2554 26.8794C33.1303 28.6949 27.849 28.6932 24.7104 26.8743ZM24.7028 21.1972C27.8757 19.351 33.0435 19.3682 36.2206 21.1972C37.3471 21.8498 38.0861 22.6754 38.3006 23.5213C38.334 23.653 38.3085 23.7839 38.3169 23.9154C37.9582 23.6037 37.5566 23.3044 37.0877 23.0263C33.3524 20.8802 27.5287 20.8802 23.834 23.0263C23.3735 23.2907 22.9752 23.5838 22.6181 23.8941C22.6986 22.6656 23.6409 21.8111 24.7028 21.1972Z" fill="black"/>
<path d="M16.1239 41.7968C12.0265 39.448 8.59515 41.5501 8.56689 46.0975C8.56689 50.4066 11.4826 55.4582 15.2035 57.5975C19.1311 59.8707 22.7406 58.0036 22.7453 53.285C22.7453 53.2846 22.7453 53.2854 22.7453 53.285C22.7453 53.2843 22.7453 53.2822 22.7453 53.2816C22.7618 49.1013 19.8883 43.9925 16.1239 41.7968ZM21.0094 53.2782C21.0094 53.2782 21.0094 53.2799 21.0094 53.2816C21.0094 54.1943 20.8492 54.6973 20.6299 55.2344C16.0519 54.3406 11.9171 46.6082 13.4737 42.6551C14.0124 42.7469 14.4872 42.8588 15.2543 43.2988C18.4438 45.16 21.0255 49.637 21.0094 53.2782ZM16.0705 56.0939C12.8904 54.2648 10.3027 49.7811 10.3027 46.1026C10.3107 44.8822 10.5679 43.6852 11.5832 42.9907C10.5584 47.9447 14.5193 54.8818 19.3258 56.6538C18.457 56.9943 17.3253 56.8195 16.0705 56.0939Z" fill="black"/>
<path d="M32.1014 67.3498C36.2146 69.7349 39.6627 67.5423 39.6627 63.0508C39.6627 58.7638 36.7479 53.7207 33.0278 51.5695C29.1686 49.3227 25.5185 51.0979 25.4835 55.8633C25.464 60.0945 28.4348 65.2478 32.1014 67.3498ZM37.9269 63.0508C37.9269 63.4338 37.8885 63.7718 37.833 64.0863C37.8252 64.1295 37.812 64.1675 37.8033 64.2097C37.0901 64.2534 36.243 63.9924 35.3578 63.4746C32.2252 61.6795 29.5926 57.111 29.6087 53.4952C29.6087 51.8701 30.6252 52.1756 32.1565 53.0697C35.3383 54.9107 37.9269 59.3876 37.9269 63.0508ZM27.8816 53.3745C27.881 53.4151 27.8728 53.4509 27.8728 53.4918C27.8533 57.7229 30.8241 62.8762 34.4874 64.9766C35.3433 65.4786 36.1846 65.7832 36.985 65.8966C35.9131 67.0075 34.3047 66.6187 32.9685 65.8462C29.8358 64.051 27.2032 59.4825 27.2193 55.8735C27.2269 54.8127 27.4711 53.9801 27.8816 53.3745Z" fill="black"/>
</svg>
