<svg width="93" height="92" viewBox="0 0 93 92" fill="none" xmlns="http://www.w3.org/2000/svg">
<path d="M56.4489 9.7969L54.0401 11.1886C53.6247 11.4277 53.4823 11.9582 53.7231 12.3736C53.9634 12.7885 54.4934 12.9311 54.908 12.6906L57.3168 11.2988C57.7321 11.0598 57.8745 10.5292 57.6338 10.1139C57.3914 9.69859 56.8625 9.5545 56.4489 9.7969Z" fill="black"/>
<path d="M79.9591 12.2464C79.7806 12.1425 65.6793 3.93437 66.5774 4.45714C66.3079 4.29949 65.9756 4.30118 65.7061 4.45375L58.5729 8.56791C58.1575 8.80863 58.0151 9.33921 58.2542 9.75453C58.4932 10.1681 59.0221 10.3072 59.4408 10.0732L66.1384 6.20994L73.5878 10.5471L32.7368 34.1337L32.708 26.3282C32.7065 26.0878 32.5567 25.8084 32.4215 25.6874L52.6008 14.0297C53.0161 13.7907 53.1585 13.2601 52.9178 12.8448C52.6805 12.4295 52.1465 12.2854 51.7329 12.5278L30.71 24.6711L23.0812 20.2374C22.815 20.0832 22.4811 20.0815 22.2116 20.2374L12.9594 25.5789C12.7547 25.6961 12.638 25.8997 12.5808 26.1224C12.5629 26.1918 12.5254 26.2547 12.5254 26.3282C12.5254 26.3288 12.5258 26.3292 12.5258 26.3299C12.5258 26.3305 12.5254 26.3309 12.5254 26.3316L12.6813 81.4549C12.683 81.7635 12.8458 82.0482 13.1136 82.2042C13.2893 82.3063 22.4812 87.6467 22.3054 87.5446C22.305 87.5444 22.3059 87.5448 22.3054 87.5446C22.5837 87.7031 22.9135 87.6949 23.1727 87.544L32.4249 82.2025C32.6945 82.0482 32.8606 81.7601 32.8589 81.4498L32.8435 76.0957L50.6203 65.8324C56.1427 69.0229 43.4391 61.6835 57.5829 69.8549C57.8604 70.011 58.1872 70.0067 58.4508 69.8532L72.5291 61.73C72.7987 61.5757 72.9631 61.2875 72.9631 60.9773L72.9455 52.9432L75.8686 51.2556C76.0008 51.1793 76.111 51.0691 76.1873 50.9369L80.3591 43.668C80.4354 43.5358 80.4744 43.3849 80.4744 43.234L80.3896 12.994C80.3879 12.6855 80.2252 12.4007 79.9591 12.2464ZM22.6438 21.9919L30.1021 26.3263C29.9284 26.4265 22.0838 30.9551 22.5845 30.6661L15.1258 26.3316L22.6438 21.9919ZM14.4155 80.9532L14.2663 27.8412L21.7163 32.1702C21.7513 44.6073 21.8293 72.3399 21.8658 85.2826L14.4155 80.9532ZM23.6024 85.2923C23.5888 80.4468 23.4728 39.3679 23.4524 32.1697L30.9705 27.8284C30.9699 27.6546 30.9759 31.0978 31.1214 80.9515L23.6024 85.2923ZM52.3584 64.8321L57.1349 62.0726C57.1353 62.287 57.1462 67.9417 57.1455 67.597L52.3584 64.8321ZM71.2256 60.479L58.8818 67.6001C58.8815 67.4219 58.8688 60.708 58.8695 61.0807C59.0448 60.9794 72.0368 53.4671 71.212 53.944L71.2256 60.479ZM74.799 49.8706C69.6947 52.8175 45.8187 66.6013 32.8378 74.0954L32.7293 36.144L75.3237 11.5539L78.6555 13.4958L78.7385 43.0052L74.799 49.8706Z" fill="black"/>
<path d="M64.2413 23.9702C58.0167 27.547 52.9702 36.255 52.9888 43.3832C53.0097 50.8197 58.5035 54.1483 65.1771 50.3114C71.4017 46.7346 76.4482 38.0265 76.4296 30.8983C76.4084 23.3599 70.8207 20.1881 64.2413 23.9702ZM64.3125 48.806C58.9017 51.9223 54.7423 49.5774 54.7247 43.3781C54.706 36.806 59.3643 28.776 65.1059 25.4755C70.4853 22.3801 74.676 24.6667 74.6937 30.9034C74.7124 37.4756 70.054 45.5056 64.3125 48.806Z" fill="black"/>
<path d="M71.5153 31.4238C70.8322 32.1934 69.9778 32.8766 68.9726 33.4529C68.6594 33.6333 68.3161 33.7673 67.9846 33.9213C67.8812 33.7306 67.7586 33.5607 67.6164 33.4107C68.715 30.4475 68.7471 28.4535 68.6979 27.7063C68.6589 27.169 68.2741 26.7553 67.7419 26.6994C65.9586 26.5384 64.3397 27.2808 63.5362 27.7334L63.5294 27.7385C62.8732 28.1158 62.5365 29.0577 62.9395 29.6846C63.4065 30.4302 63.5564 31.9582 63.3795 33.8796C62.979 34.2392 62.6163 34.6621 62.2917 35.1393C60.379 34.9781 58.7681 35.6895 57.9387 36.1652L57.9353 36.1669L57.7692 36.2669C57.5014 36.4212 57.2708 36.6924 57.1352 37.0145C56.1317 39.4267 55.9317 41.2863 55.8994 42.183C55.8876 42.6068 56.0808 42.9798 56.4148 43.1798C56.7594 43.3859 57.1853 43.3664 57.5285 43.1662C57.6726 43.0866 57.8014 42.9781 57.9014 42.8594C58.5863 42.0915 59.4389 41.4117 60.4391 40.8388C60.7882 40.638 61.1201 40.4721 61.4211 40.3328C61.5273 40.5351 61.6542 40.7157 61.8037 40.8734C60.6949 43.8569 60.6716 45.8394 60.7256 46.5854C60.7713 47.1363 61.1714 47.5465 61.68 47.5821C63.1617 47.7116 64.6142 47.2678 65.8924 46.543C66.5356 46.1755 66.8834 45.2529 66.479 44.5986C66.0121 43.8549 65.8621 42.3277 66.0389 40.406C66.4434 40.0434 66.8092 39.6166 67.1357 39.1344C67.3125 39.1491 67.4944 39.1809 67.6656 39.1809C69.4269 39.1809 70.8762 38.4723 71.4865 38.1197L71.6797 38.0028C71.9476 37.8349 72.1646 37.5722 72.2883 37.2671C73.2868 34.8599 73.4868 32.9986 73.519 32.1121C73.5359 31.6866 73.3478 31.3119 73.0138 31.1085C72.5162 30.8019 71.8976 30.9878 71.5153 31.4238ZM66.6383 35.538C66.64 36.2194 66.3925 37.045 65.9602 37.7993C65.5661 38.4906 64.9729 39.1897 64.2854 39.5877C63.3293 40.1389 62.7852 39.8392 62.7852 38.7469C62.7818 38.0672 63.0276 37.2433 63.4599 36.4873C63.8108 35.8702 64.2702 35.3261 64.7516 34.9532C65.7411 34.1941 66.6383 34.2382 66.6383 35.538ZM66.9723 28.42C66.9434 29.2337 66.7688 30.6949 66.0399 32.6952C65.7433 32.6732 65.4805 32.7206 65.1906 32.8003C65.2212 31.5204 65.0974 30.1541 64.6092 29.1269C65.1652 28.837 66.0281 28.4776 66.9723 28.42ZM59.5746 39.3335C58.9457 39.6945 58.3625 40.0946 57.8421 40.5235C57.9913 39.7539 58.2405 38.8164 58.6541 37.7603L58.805 37.6688C59.2389 37.4196 60.2102 36.9416 61.3901 36.8551C61.2409 37.2845 61.065 38.1308 61.051 38.5944C60.5459 38.8114 60.0509 39.0588 59.5746 39.3335ZM62.4479 45.8598C62.4733 45.0546 62.6445 43.6002 63.3802 41.588C64.3341 41.4708 64.2165 41.4842 64.2261 41.4829C64.1956 42.7679 64.3193 44.1359 64.8075 45.1564C64.2532 45.4462 63.3955 45.8022 62.4479 45.8598ZM70.6169 36.6161C70.1863 36.8653 69.2133 37.3467 68.03 37.4315C68.0477 37.3808 68.055 37.3308 68.0715 37.2802C68.2641 36.6851 68.3616 36.0182 68.3725 35.6922C68.8759 35.4736 69.3675 35.2278 69.8371 34.9582C70.4592 34.6006 71.0339 34.2073 71.5577 33.7784C71.3899 34.5582 71.1034 35.5176 70.6169 36.6161Z" fill="black"/>
<path d="M50.4903 40.3387C50.9057 40.0997 51.0481 39.5691 50.8073 39.1538C50.57 38.7385 50.0377 38.5944 49.6224 38.8368L48.6472 39.3996L48.6443 38.3859C48.6426 38.0757 48.4782 37.7892 48.2087 37.6349C47.9408 37.4823 47.6103 37.4806 47.3424 37.6366L46.9494 37.8635L46.9458 36.4635C46.9441 35.9838 46.5559 35.5973 46.0778 35.5973C45.5981 35.599 45.2082 35.9889 45.2099 36.4669L45.2161 38.8641L43.8455 39.6552L43.8419 38.257C43.8402 37.7773 43.452 37.3908 42.974 37.3908C42.4943 37.3925 42.1044 37.7824 42.1061 38.2604L42.1122 40.6558L40.7408 41.4474L40.7364 40.0471C40.7347 39.5691 40.3465 39.1826 39.8684 39.1826C39.4311 39.1894 38.9988 39.5725 39.0005 40.0539L39.0081 42.4476L37.6986 43.2035C37.4291 43.3578 37.263 43.646 37.2647 43.9562L37.2704 45.9638L35.4678 47.0041C35.0525 47.2431 34.9101 47.7737 35.1508 48.189C35.3889 48.6044 35.9214 48.7464 36.3357 48.506L37.2761 47.9633L37.282 50.0445L35.4678 51.0928C35.0525 51.3318 34.9101 51.8624 35.1508 52.2777C35.3937 52.697 35.929 52.8337 36.3357 52.5947L37.2877 52.0447L37.2936 54.1262L35.4678 55.1799C35.0525 55.4189 34.9101 55.9495 35.1508 56.3648C35.3889 56.7802 35.9214 56.9222 36.3357 56.6818L37.2993 56.1257L37.3052 58.2065L35.4678 59.2669C35.0525 59.5059 34.9101 60.0365 35.1508 60.4518C35.3889 60.8672 35.9214 61.0093 36.3357 60.7688L37.311 60.206L37.3138 61.2197C37.3155 61.53 37.48 61.8164 37.7495 61.9707C38.0278 62.1292 38.3565 62.1199 38.6157 61.969L39.0094 61.7417L39.0124 62.9098C39.0141 63.3896 39.4023 63.7761 39.8803 63.7761C40.36 63.7744 40.7499 63.3845 40.7482 62.9064L40.7427 60.7412L42.1133 59.9501L42.1162 61.118C42.1179 61.5978 42.5061 61.9843 42.9842 61.9843C43.4639 61.9826 43.8538 61.5927 43.8521 61.1146L43.8466 58.9495L45.2181 58.1577L45.2218 59.3262C45.2235 59.8043 45.6117 60.1908 46.0897 60.1908C46.0914 60.1908 46.0914 60.1908 46.0931 60.1908C46.5711 60.1891 46.9593 59.7992 46.9576 59.3195L46.9507 57.1576L48.2595 56.4021C48.529 56.2478 48.6952 55.9596 48.6935 55.6494L48.6877 53.6401L50.4903 52.5998C50.9057 52.3608 51.0481 51.8302 50.8073 51.4149C50.57 50.9996 50.0377 50.8555 49.6224 51.0979L48.682 51.6406L48.6761 49.5598L50.4903 48.5128C50.9057 48.2738 51.0481 47.7432 50.8073 47.3279C50.57 46.9142 50.0377 46.7685 49.6224 47.0109L48.6705 47.5602L48.6645 45.4794L50.4903 44.4257C50.9057 44.1867 51.0481 43.6561 50.8073 43.2408C50.57 42.8255 50.0377 42.6814 49.6224 42.9238L48.6588 43.4799L48.6529 41.3991L50.4903 40.3387ZM39.0446 59.7178C39.0009 43.985 39.0952 77.6371 39.0022 44.4546L46.9135 39.8878C46.9246 43.8543 46.9471 51.9792 46.9559 55.1511L39.0446 59.7178Z" fill="black"/>
</svg>
