<svg width="93" height="92" viewBox="0 0 93 92" fill="none" xmlns="http://www.w3.org/2000/svg">
<path d="M72.4714 23.7879C75.0711 22.2762 74.9507 19.5848 72.4459 18.1396C70.1931 16.8377 66.6739 16.8445 64.4312 18.1464C61.8817 19.6277 61.8686 22.3052 64.4431 23.7879C66.6948 25.0862 70.2169 25.0956 72.4714 23.7879ZM65.3025 19.6483C67.0011 18.66 69.8727 18.66 71.578 19.6415C72.9699 20.4464 72.9876 21.4798 71.6 22.286C69.8998 23.2742 67.0214 23.2709 65.311 22.286C63.9136 21.4758 63.9085 20.457 65.3025 19.6483Z" fill="black"/>
<path d="M88.1192 28.019L85.1289 18.8617C85.0628 18.6583 84.9221 18.4871 84.7373 18.3803L71.9914 11.0216C71.8863 10.9606 71.771 10.9233 71.6507 10.9097L55.8314 9.20776C55.65 9.18912 55.4601 9.22811 55.3025 9.31964L47.1928 14.0322C46.7775 14.2729 46.6368 14.8052 46.8775 15.2188C47.1182 15.6341 47.6522 15.7714 48.0641 15.5341L55.928 10.964L71.2828 12.615L83.5812 19.7161L86.2511 27.8902L37.1032 56.452L21.7365 54.806L9.44023 47.7069C9.38373 47.5331 6.6032 38.9818 6.78009 39.5258L39.6307 20.4348C40.046 20.1941 40.1867 19.6618 39.946 19.2482C39.7036 18.8295 39.1696 18.6922 38.7594 18.9329C24.1726 27.4099 19.8921 29.8975 5.30191 38.3765C5.0503 38.5233 4.87599 38.7955 4.87155 39.1153C4.87144 39.1189 4.86964 39.1221 4.86964 39.1257L4.84082 51.6852C4.84082 51.7767 4.85438 51.8683 4.8832 51.9547L7.8616 61.1188C7.91615 61.2878 8.14769 61.492 8.25319 61.6019C9.55766 62.3547 3.52789 58.8745 21.0109 68.9642C21.1102 69.0196 21.219 69.0597 21.3382 69.0725L37.1693 70.7677C37.2015 70.7711 37.232 70.7728 37.2626 70.7728C37.4034 70.7728 37.535 70.7275 37.6583 70.6631C37.6708 70.6566 37.6859 70.6595 37.6982 70.6524L42.162 68.0568L42.1667 69.798C42.1702 71.0571 43.3213 71.7112 44.4246 71.0711L45.8248 70.2642L45.9096 80.8064C45.9167 82.4881 47.3464 83.3044 48.8032 82.4609C49.9559 81.7964 50.8239 80.2945 50.8188 78.9655L50.7306 68.0029C50.7306 67.7249 50.9866 67.2824 51.2273 67.1417L52.9903 66.1246C53.7819 65.6686 54.3769 64.6464 54.3735 63.7497L54.3656 60.9543L56.915 59.479L56.9197 61.2239C56.9233 62.483 58.0727 63.137 59.1759 62.497L60.5779 61.6918L60.6626 72.234C60.6697 73.916 62.0997 74.7318 63.5563 73.8885C64.7073 73.2223 65.5735 71.7221 65.5718 70.3913L65.4837 59.4287C65.4837 59.1507 65.7379 58.71 65.9803 58.5693L67.7433 57.5522C68.5333 57.0979 69.1282 56.074 69.1249 55.1756L69.1175 52.3801L71.668 50.9042L71.6727 52.6515C71.6763 53.9216 72.8389 54.5604 73.929 53.9245L75.3309 53.1176L75.4156 63.6599C75.4228 65.3415 76.8524 66.1578 78.3093 65.3143C79.462 64.6498 80.3282 63.1496 80.3231 61.8189L80.235 50.8563C80.235 50.5783 80.4893 50.1358 80.7334 49.9951L82.4946 48.978C83.2863 48.522 83.8813 47.4998 83.8779 46.6031L83.8705 43.8221L87.692 41.5922C87.9582 41.4379 88.1209 41.1531 88.1226 40.8446L88.1581 28.3324C88.1635 28.2286 88.1531 28.1228 88.1192 28.019ZM22.3075 64.8471L22.3281 56.6164L36.4234 58.1251L36.3963 68.9386L22.3012 67.4299L22.3075 64.8471ZM6.59362 44.5664L7.84942 48.4279L7.83247 55.4118L6.57667 51.5496L6.59362 44.5664ZM9.5822 49.7934L20.5923 56.1503L20.5669 66.7078L9.55677 60.3509L9.5822 49.7934ZM52.1224 64.6227L50.3577 65.6398C49.5779 66.0941 48.9914 67.1112 48.9948 68.0113L49.0829 78.9757C49.0846 79.6775 48.549 80.6047 47.9353 80.959C47.7963 81.0387 47.7082 81.0573 47.6895 81.0726C47.6726 81.037 47.6454 80.9539 47.6454 80.7963L47.5573 69.8336C47.5537 68.5787 46.407 67.9168 45.318 68.5504L43.9008 69.3658C43.8964 67.6495 43.8776 60.4414 43.8788 60.8984C43.8788 60.6213 44.1315 60.1827 44.3975 60.0288L52.6089 55.2874C52.6095 55.4622 52.6396 64.3171 52.6377 63.7531C52.6377 64.0362 52.3783 64.4735 52.1224 64.6227ZM66.8754 56.0503L65.1124 57.0657C64.3326 57.5166 63.7444 58.5337 63.7478 59.4372L63.836 70.3998C63.8377 71.1033 63.3003 72.0323 62.6883 72.3866C62.5493 72.4662 62.4612 72.4849 62.4425 72.5001C62.4256 72.4645 62.3985 72.3815 62.3985 72.2238L62.3103 61.2612C62.3068 60.0098 61.1675 59.3438 60.071 59.978L58.6538 60.7916C58.6494 59.1087 58.6313 52.1471 58.6318 52.3253C58.6371 52.0256 58.8967 51.6013 59.1522 51.453L67.3636 46.7133C67.3692 48.5871 67.3904 55.63 67.389 55.1789C67.389 55.4637 67.1314 55.9028 66.8754 56.0503ZM81.6267 47.4761L79.8654 48.4915C79.084 48.9424 78.4958 49.9612 78.4991 50.8647L78.5873 61.8291C78.589 62.5309 78.055 63.4581 77.4414 63.8124C77.3024 63.8921 77.2142 63.9107 77.1956 63.926C77.1786 63.8904 77.1515 63.8073 77.1515 63.6497L77.0633 52.687C77.0598 51.4289 75.9095 50.7723 74.824 51.4038L73.4069 52.2192L73.3996 49.4116C73.3997 49.4063 73.4035 49.402 73.4035 49.3967C73.4027 49.1768 73.3836 43.3949 73.3848 43.7585C73.3848 43.4669 73.6442 43.0314 73.9069 42.8788L82.1183 38.1374C82.1188 38.3122 82.1436 47.1706 82.142 46.6065C82.142 46.8896 81.8827 47.3269 81.6267 47.4761ZM86.3884 40.3429L83.8651 41.8155C83.8629 41.3907 83.8724 43.3546 83.8433 37.6604C83.8174 36.4811 82.744 35.7944 81.5962 36.4287C81.422 36.5294 72.4603 41.7099 73.0305 41.3803C72.3468 41.7735 71.6454 42.8317 71.649 43.7552C71.6498 44.0821 71.6635 49.1806 71.6628 48.902L69.1121 50.3786L69.1011 46.281C69.0977 45.0732 68.0003 44.3642 66.8415 45.0046C66.6672 45.1053 57.7089 50.2823 58.2792 49.9528C57.5131 50.394 56.8943 51.3887 56.8943 52.3378C56.8948 52.5135 56.9107 57.8133 56.9097 57.4767L54.3599 58.9529L54.3481 54.8535C54.3447 53.6797 53.2626 52.9239 52.0868 53.5787C51.9125 53.6794 42.9559 58.8565 43.5262 58.5269C42.805 58.9425 42.1395 59.99 42.1395 60.895L42.1565 66.0517L38.1342 68.3908L38.1365 67.4338L38.1627 57.8505L86.4173 29.8023L86.3884 40.3429Z" fill="black"/>
<path d="M20.572 43.6349C18.0139 45.1207 18.0079 47.8032 20.5737 49.2815C22.858 50.604 26.3942 50.5655 28.6122 49.2747C31.1473 47.8006 31.1427 45.1061 28.5884 43.6247C26.3356 42.3279 22.8147 42.3279 20.572 43.6349ZM27.7392 47.7745C26.0372 48.7644 23.1537 48.7678 21.4416 47.7795C20.0409 46.9669 20.0521 45.9434 21.4433 45.1368C23.1468 44.1459 26.0221 44.1505 27.7205 45.1283C29.1089 45.9317 29.1219 46.9691 27.7392 47.7745Z" fill="black"/>
<path d="M42.5771 18.7227L45.4029 17.0818C45.8183 16.8411 45.959 16.3088 45.7182 15.8952C45.4758 15.4765 44.9419 15.3392 44.5316 15.5799L41.7058 17.2208C41.2905 17.4615 41.1498 17.9938 41.3905 18.4074C41.6314 18.8232 42.1644 18.9622 42.5771 18.7227Z" fill="black"/>
<path d="M51.6172 20.501L23.4503 36.861C23.1825 37.0169 23.0181 37.3034 23.0181 37.6136C23.0181 37.9222 23.1842 38.2086 23.452 38.3629L40.5139 48.2135C40.7831 48.3703 41.1172 48.3685 41.3835 48.2135L69.5504 31.8501C69.8182 31.6941 69.9826 31.4076 69.9826 31.0974C69.9826 30.7889 69.8165 30.5024 69.5487 30.3482L52.4868 20.501C52.2173 20.345 51.8833 20.345 51.6172 20.501ZM40.9461 46.459L25.6184 37.6103L52.0546 22.2554L67.3822 31.1008L40.9461 46.459Z" fill="black"/>
<path d="M51.0849 25.7763C50.8442 26.1916 50.9866 26.7222 51.4019 26.9612L60.1184 31.9925C60.5322 32.2326 61.0653 32.0908 61.3033 31.6755C61.544 31.2602 61.4017 30.7296 60.9863 30.4906L52.2698 25.4593C51.8562 25.2203 51.3239 25.361 51.0849 25.7763Z" fill="black"/>
<path d="M57.7554 32.3688L49.0388 27.3359C48.6252 27.0968 48.0929 27.2375 47.8539 27.6529C47.6132 28.0682 47.7556 28.5988 48.1709 28.8378L56.8875 33.8707C57.3013 34.1108 57.8343 33.9691 58.0724 33.5537C58.3131 33.1384 58.1707 32.6078 57.7554 32.3688Z" fill="black"/>
<path d="M54.5247 34.2454L45.8064 29.2124C45.3928 28.9717 44.8588 29.1158 44.6215 29.5294C44.3808 29.9447 44.5232 30.4753 44.9385 30.7143L53.6567 35.7473C54.0706 35.9874 54.6036 35.8456 54.8416 35.4303C55.0824 35.015 54.94 34.4844 54.5247 34.2454Z" fill="black"/>
<path d="M51.2932 36.1219L42.575 31.0906C42.1614 30.8499 41.6291 30.9923 41.3901 31.4076C41.1493 31.823 41.2917 32.3535 41.7071 32.5926L50.4253 37.6238C50.8394 37.8641 51.372 37.7224 51.6102 37.3068C51.8509 36.8915 51.7085 36.3609 51.2932 36.1219Z" fill="black"/>
<path d="M48.0623 37.9984L39.344 32.9672C38.9304 32.7282 38.3964 32.8689 38.1591 33.2842C37.9184 33.6995 38.0608 34.2301 38.4761 34.4691L47.1943 39.5004C47.6084 39.7406 48.141 39.599 48.3792 39.1834C48.62 38.7681 48.4776 38.2375 48.0623 37.9984Z" fill="black"/>
<path d="M44.8313 39.8767L36.1131 34.8437C35.6994 34.603 35.1672 34.7471 34.9281 35.1607C34.6874 35.5761 34.8298 36.1066 35.2451 36.3457L43.9634 41.3786C44.3772 41.6187 44.9102 41.4769 45.1483 41.0616C45.389 40.6463 45.2466 40.1157 44.8313 39.8767Z" fill="black"/>
<path d="M41.6003 41.7532L32.8821 36.7203C32.4685 36.4813 31.9345 36.6237 31.6972 37.0373C31.4565 37.4526 31.5989 37.9832 32.0142 38.2222L40.7324 43.2552C41.1462 43.4953 41.6793 43.3535 41.9173 42.9382C42.158 42.5228 42.0157 41.9923 41.6003 41.7532Z" fill="black"/>
</svg>
