<svg width="93" height="92" viewBox="0 0 93 92" fill="none" xmlns="http://www.w3.org/2000/svg">
<path d="M8.20302 65.6292L46.1612 87.5443C46.4289 87.6985 46.7595 87.6994 47.0274 87.5451C47.0283 87.5446 47.0287 87.5434 47.0296 87.5429C47.0293 87.5431 47.0299 87.5427 47.0296 87.5429L61.638 79.0532C62.0533 78.8125 62.194 78.281 61.9533 77.8666C61.7109 77.4504 61.1769 77.3131 60.7667 77.553L47.4683 85.2811C47.4704 84.6776 47.5146 71.9942 47.5122 72.6773C96.291 44.3289 80.0946 53.7416 83.4836 51.772L83.4395 64.3773L71.3106 71.4258C70.8953 71.6665 70.7546 72.1979 70.9953 72.6124C71.236 73.0286 71.7683 73.1633 72.1819 72.926L84.7414 65.6275C85.0076 65.4732 85.172 65.1884 85.1737 64.8808L85.2245 50.2788C85.2249 50.2697 85.2313 50.2623 85.2313 50.2532C85.2313 49.9438 85.0652 49.6582 84.7974 49.5031L51.3484 30.2082V24.8296C54.872 23.0394 57.2984 19.376 57.2984 15.1455C57.2984 9.18695 52.4519 4.33963 46.4934 4.33963C40.5349 4.33963 35.6884 9.18695 35.6884 15.1455C35.6884 19.3787 38.118 23.044 41.6452 24.8329V30.1064L8.2454 49.5048C7.97756 49.6599 7.81313 49.9464 7.81313 50.2557C7.81313 50.2646 7.81949 50.2717 7.8198 50.2806L7.76906 64.874C7.76736 65.1859 7.93349 65.4732 8.20302 65.6292ZM9.55067 51.7619C59.1944 80.4276 42.0591 70.5332 45.7762 72.6796C45.7756 72.8534 45.7297 86.0286 45.7323 85.2922L9.5066 64.3773L9.55067 51.7619ZM58.8664 52.1009L58.8647 52.4221C58.8596 54.1376 57.6459 55.787 55.4473 57.0652C50.5499 59.9097 42.5623 59.9148 37.6413 57.072C35.3952 55.7752 34.1594 54.1037 34.1645 52.3645L34.1662 52.0398C37.0126 55.1852 42.4037 56.4363 46.5697 56.4363C50.8314 56.4363 55.9834 55.2311 58.8448 52.1208C58.8512 52.1139 58.8601 52.1078 58.8664 52.1009ZM46.6058 54.7231C46.5932 54.7231 46.5808 54.7252 46.5682 54.7252C46.5528 54.7252 46.5376 54.7227 46.5222 54.7227C41.8051 54.7121 34.1719 52.5594 34.1798 47.8909C34.1862 46.1803 35.3921 44.5371 37.5819 43.264C37.8448 43.1123 38.1206 42.9709 38.4061 42.8344L38.4007 48.2003C38.3887 51.6406 43.0211 53.3011 46.5358 53.3011C50.0414 53.3011 54.6313 51.6524 54.6353 48.2385L54.6408 42.8487C54.9183 42.9822 55.1818 43.1193 55.4269 43.2649C57.6493 44.5472 58.8749 46.206 58.8783 47.9342C58.8831 52.6118 51.3373 54.7128 46.6058 54.7231ZM52.9045 43.0318L52.8994 48.2359C52.8903 52.5159 40.1271 52.6501 40.1365 48.2037L40.1416 43.0097C43.513 45.6108 49.7775 45.4741 52.9045 43.0318ZM52.9079 39.8635C52.9036 41.8852 49.4839 43.173 46.5491 43.1725C44.9858 43.1725 43.2092 42.8507 41.8504 42.0722C41.0421 41.6034 40.145 40.7906 40.145 39.8398C40.145 39.8381 40.145 39.8355 40.145 39.8347C40.145 39.8302 40.1426 39.8248 40.1425 39.8204C40.1508 39.0801 40.6768 38.3509 41.6452 37.7446V38.754C41.6164 39.7008 42.2063 40.5865 43.2556 41.179C45.0777 42.2456 47.9354 42.2446 49.7515 41.1807C50.7822 40.5857 51.3484 39.7398 51.3484 38.7981V37.7234C52.3545 38.3357 52.9084 39.0861 52.911 39.8484C52.9109 39.8538 52.9079 39.8581 52.9079 39.8635ZM37.4243 15.1455C37.4243 10.1439 41.4927 6.07548 46.4934 6.07548C51.4941 6.07548 55.5625 10.1439 55.5625 15.1455C55.5625 20.2095 51.4551 24.2646 46.4934 24.2646C41.5486 24.2646 37.4243 20.2236 37.4243 15.1455ZM49.6125 25.5504C49.6125 25.8043 49.6125 39.7415 49.6125 38.7981C49.6125 39.0897 49.3464 39.4101 48.8802 39.6804C47.6122 40.4187 45.3949 40.4187 44.1202 39.6736C43.6557 39.4117 43.3726 39.0803 43.3811 38.7811C43.3811 33.8688 43.3811 30.3873 43.3811 25.5504C45.4176 26.1677 47.8009 26.098 49.6125 25.5504ZM41.6452 32.1132V35.7802C41.391 35.8968 41.1544 36.0154 40.9502 36.1375C39.311 37.0834 38.4058 38.3955 38.4041 39.833C38.4039 40.0078 38.4077 41.1517 38.408 40.9769C37.8245 41.2177 37.2389 41.4587 36.7123 41.7629C33.9695 43.3568 32.4568 45.527 32.4453 47.8768C32.4453 47.8791 32.4439 47.881 32.4439 47.8833C32.4375 49.8616 32.4288 52.5377 32.4286 52.3594C32.4218 54.7471 33.9661 56.955 36.7733 58.5756C42.17 61.6929 50.9446 61.691 56.3186 58.5654C59.0732 56.9652 60.5938 54.7844 60.6006 52.4272C60.6019 51.9588 60.6138 47.6742 60.6141 47.9316C60.6107 45.5576 59.0766 43.3666 56.305 41.7672C55.8072 41.4708 55.2414 41.2074 54.6427 40.9616L54.6438 39.8669C54.6438 39.8668 54.6438 39.867 54.6438 39.8669C54.6438 39.8593 54.6472 39.8516 54.6472 39.844C54.6404 37.9333 53.0809 36.548 51.3484 35.7633V32.2124L82.6309 50.2574C78.8522 52.4537 93.9497 43.6787 46.6451 71.1731C42.9251 69.0251 60.0655 78.9222 10.4135 50.2523L41.6452 32.1132Z" fill="black"/>
<path d="M65.0961 77.0444L69.1917 74.6636C69.607 74.4228 69.7477 73.8914 69.507 73.4769C69.2646 73.0616 68.7323 72.9243 68.3203 73.1633L64.2248 75.5442C63.8095 75.7849 63.6688 76.3163 63.9095 76.7308C64.0706 77.008 64.3621 77.1622 64.6605 77.1622C64.8097 77.1622 64.9588 77.1241 65.0961 77.0444Z" fill="black"/>
<path d="M19.2554 65.4597L12.9443 61.7922C12.5324 61.5531 11.9984 61.6888 11.7577 62.1066C11.517 62.5202 11.6577 63.0517 12.073 63.2924L18.3841 66.9599C18.8047 67.2039 19.3335 67.0548 19.5707 66.6454C19.8114 66.2318 19.6707 65.7004 19.2554 65.4597Z" fill="black"/>
<path d="M19.2554 61.3285L12.9443 57.6602C12.5324 57.4212 11.9984 57.5585 11.7577 57.9738C11.517 58.3883 11.6577 58.9197 12.073 59.1604L18.3841 62.8288C18.8018 63.0711 19.3317 62.9264 19.5707 62.5152C19.8114 62.1007 19.6707 61.5693 19.2554 61.3285Z" fill="black"/>
<path d="M44.2524 67.3337C45.872 68.2756 48.412 68.2756 50.0413 67.337C51.988 66.2145 51.9899 64.101 50.0617 62.9822C48.4411 62.038 45.8933 62.0388 44.2625 62.9805C43.337 63.5145 42.8064 64.3078 42.8047 65.1579C42.8047 66.0063 43.3319 66.7997 44.2524 67.3337ZM45.1305 64.4841C46.2112 63.8593 48.1101 63.8548 49.1904 64.4832C49.5481 64.69 49.7701 64.9469 49.7684 65.1511C49.7684 65.3605 49.5413 65.6215 49.1734 65.8334C48.0733 66.4683 46.2204 66.4708 45.1237 65.8326C44.7643 65.6241 44.5405 65.3664 44.5405 65.1596C44.5422 64.9528 44.7677 64.6934 45.1305 64.4841Z" fill="black"/>
<path d="M69.3359 52.8519C70.1461 53.324 71.1887 53.5596 72.2312 53.5596C73.2703 53.5596 74.3112 53.3248 75.1231 52.8553C76.0521 52.3187 76.5861 51.5229 76.5878 50.671C76.5895 49.8243 76.064 49.0327 75.1452 48.4995C73.5195 47.5579 70.9717 47.5587 69.346 48.4987C68.4205 49.0327 67.8899 49.826 67.8882 50.6761C67.8882 51.5246 68.4154 52.3179 69.3359 52.8519ZM70.214 50.0023C71.3238 49.3605 73.1844 49.3673 74.2739 50.0014C74.6299 50.2083 74.8519 50.4642 74.8519 50.6685C74.8519 50.8778 74.6231 51.1397 74.2552 51.3525C73.1551 51.9907 71.3006 51.9873 70.2072 51.3508C69.8478 51.1423 69.624 50.8846 69.624 50.6778C69.6257 50.471 69.8512 50.2116 70.214 50.0023Z" fill="black"/>
</svg>
