<svg width="93" height="92" viewBox="0 0 93 92" fill="none" xmlns="http://www.w3.org/2000/svg">
<path d="M30.6641 21.2692L40.9334 15.3421C41.3487 15.1022 41.4911 14.5716 41.2512 14.1563C41.0114 13.7402 40.4782 13.5969 40.0655 13.8385C39.8918 13.9387 28.3237 20.6162 28.4977 20.5157C25.7188 22.1199 23.5489 25.8779 23.5551 29.0744L23.5537 29.0797L23.6868 78.7794C23.6868 80.1974 24.108 81.3264 24.8725 82.0121C25.2716 82.4111 33.7915 87.2992 33.6166 87.1974L33.6942 87.2425C33.703 87.2476 33.7132 87.2453 33.7219 87.25C35.0038 87.9808 36.5094 87.6537 37.7778 86.9171L64.5089 71.4809C67.2949 69.8764 69.4639 66.1123 69.4461 62.9118L69.3189 13.2087C69.3189 11.7441 68.8773 10.5956 68.056 9.90146C67.7136 9.59823 62.3242 6.51553 59.3234 4.75663C58.1834 4.10399 56.7306 4.21927 55.2338 5.0838L47.3131 9.65566C46.8978 9.89553 46.7554 10.4261 46.9953 10.8414C47.2343 11.255 47.7649 11.3974 48.1811 11.1593L56.1017 6.58741C57.0417 6.04411 57.8774 5.93138 58.4563 6.26024L64.1173 9.5548C63.9054 9.64803 63.6918 9.75737 63.4774 9.88196L37.1844 25.0585C37.0108 24.9576 30.2327 21.0185 30.6641 21.2692ZM28.9511 22.2829C29.1299 22.3869 36.0117 26.3902 35.5776 26.1376C33.9006 27.5574 32.3598 30.0891 31.9346 32.4395C31.7558 32.3356 24.8758 28.3378 25.31 28.5901C25.4975 26.2671 27.0272 23.6169 28.9511 22.2829ZM26.2728 80.917C26.2202 80.8907 26.16 80.845 26.0668 80.7534C25.6515 80.3796 25.4226 79.6787 25.4226 78.7769L25.2938 30.5893L31.7994 34.376L31.9253 83.5877C31.9253 83.7621 31.9458 84.0537 31.9634 84.2277L26.2728 80.917ZM67.7102 62.922C67.7246 65.5122 65.8998 68.6771 63.6418 69.9773L36.9082 85.4151C34.9723 86.5413 33.6671 85.7573 33.6671 83.5759C33.6591 80.4764 33.5297 30.7022 33.5391 33.8686C33.5317 31.3841 35.3148 28.1453 37.6185 26.8184C65.6768 10.6549 64.2667 11.3319 65.1034 11.0396C66.5337 10.5462 67.5831 11.1984 67.5831 13.2113C67.5836 13.4141 67.7113 63.1103 67.7102 62.922Z" fill="black"/>
<path d="M43.4898 13.8665L45.763 12.5544C46.1783 12.3145 46.3207 11.7839 46.0808 11.3686C45.8401 10.9542 45.3087 10.8118 44.8951 11.0508L42.6219 12.3628C42.2065 12.6027 42.0641 13.1333 42.304 13.5486C42.4651 13.8266 42.7566 13.9826 43.0567 13.9826C43.2041 13.9826 43.3533 13.9453 43.4898 13.8665Z" fill="black"/>
<path d="M58.1833 12.1416C59.6938 11.2638 59.6961 9.54937 58.1689 8.66653C56.9654 7.97236 55.0871 7.97066 53.892 8.66822C52.3789 9.5476 52.3813 11.2621 53.9056 12.1433C55.1333 12.8517 56.9736 12.8459 58.1833 12.1416ZM54.765 10.1684C55.4245 9.78533 56.635 9.78472 57.301 10.1701C57.5061 10.288 57.5731 10.3922 57.5799 10.399C57.5731 10.4253 57.5087 10.5261 57.3103 10.6414C56.6365 11.0313 55.4507 11.0313 54.7735 10.6397C54.5684 10.5219 54.5023 10.4176 54.4947 10.41C54.5023 10.3837 54.5675 10.2837 54.765 10.1684Z" fill="black"/>
<path d="M28.0163 35.173C27.5374 35.1747 27.1492 35.5637 27.1509 36.0435L27.1585 38.8634C27.1602 39.3414 27.5484 39.7287 28.0264 39.7287H28.029C28.5079 39.727 28.8961 39.338 28.8944 38.8583L28.8867 36.0384C28.885 35.5595 28.4723 35.2018 28.0163 35.173Z" fill="black"/>
<path d="M28.0163 41.8401C27.5374 41.8418 27.1492 42.2308 27.1509 42.7105L27.1585 45.5304C27.1602 46.0085 27.5484 46.3958 28.0264 46.3958H28.029C28.5079 46.3941 28.8961 46.0051 28.8944 45.5253L28.8867 42.7054C28.885 42.2257 28.4723 41.9062 28.0163 41.8401Z" fill="black"/>
<path d="M64.8716 15.8871C64.6029 15.7328 64.2715 15.7337 64.0045 15.8879L36.2377 31.92C35.9681 32.0759 35.8029 32.3633 35.8037 32.6743L35.9249 72.9752C35.9258 73.2845 36.0919 73.5702 36.3597 73.7253C36.6237 73.8773 36.9551 73.8809 37.2268 73.7244L64.9936 57.6933C65.2631 57.5373 65.4284 57.25 65.4276 56.9389L65.3064 16.6372C65.3055 16.3278 65.1394 16.0422 64.8716 15.8871ZM37.6565 71.4716L37.5413 33.1718L63.5748 18.1408L63.69 56.4414L37.6565 71.4716Z" fill="black"/>
<path d="M53.1608 67.3481C52.3319 66.8692 51.2469 66.9472 50.1841 67.5591C48.2711 68.6635 46.7768 71.2419 46.7827 73.4295C46.7916 75.9715 48.845 77.1545 51.0715 75.8688C52.9786 74.7661 54.4678 72.1852 54.4618 69.9925C54.4584 68.7686 53.9965 67.8286 53.1608 67.3481ZM50.2036 74.3652C49.6908 74.6619 49.2356 74.7381 48.9542 74.5763C48.6796 74.4178 48.5203 73.9982 48.5186 73.4244C48.5143 71.8555 49.6747 69.8578 51.052 69.0627C51.5538 68.7729 52.0208 68.694 52.2946 68.8525C52.5675 69.0093 52.7243 69.4263 52.726 69.9976C52.7302 71.5724 51.575 73.5727 50.2036 74.3652Z" fill="black"/>
<path d="M59.421 63.267C58.0208 64.0755 56.9274 65.9657 56.9317 67.5701C56.937 69.5353 58.5787 70.493 60.3025 69.4984C61.7035 68.6889 62.7969 66.7937 62.7918 65.1833C62.7865 63.2203 61.15 62.2726 59.421 63.267ZM59.4346 67.9948C59.1455 68.1634 58.9243 68.1889 58.8379 68.1389C58.7565 68.0922 58.6683 67.8931 58.6675 67.565C58.665 66.5768 59.4227 65.2706 60.2889 64.7706C60.5847 64.6002 60.8085 64.579 60.8907 64.6231C60.9695 64.6689 61.0551 64.8646 61.056 65.1884C61.0594 66.1826 60.3016 67.4938 59.4346 67.9948Z" fill="black"/>
<path d="M40.9428 73.9355C39.5426 74.7441 38.4484 76.6342 38.4526 78.2387C38.4598 80.2239 40.1165 81.1518 41.8235 80.1669C43.2245 79.3583 44.3179 77.4631 44.3128 75.8519C44.3075 73.892 42.6753 72.9409 40.9428 73.9355ZM40.9556 78.6633C40.6657 78.832 40.4411 78.8591 40.3597 78.8074C40.2775 78.7608 40.1893 78.5607 40.1885 78.2336C40.186 77.2453 40.9437 75.9392 41.8108 75.4391C42.0201 75.3179 42.1947 75.2704 42.3075 75.2704C42.3524 75.2704 42.388 75.2781 42.4117 75.2916C42.4905 75.3365 42.5761 75.5332 42.577 75.857C42.5804 76.852 41.8226 78.1632 40.9556 78.6633Z" fill="black"/>
<path d="M45.319 43.7039C43.5518 44.7244 42.1728 47.1095 42.1787 49.1335C42.1858 51.5341 44.1236 52.6497 46.2047 51.4483C47.9711 50.4286 49.351 48.0325 49.3459 45.9932C49.3388 43.6223 47.3954 42.508 45.319 43.7039ZM45.3368 49.9447C44.9037 50.1955 44.5113 50.2701 44.279 50.1362C44.0527 50.0057 43.9163 49.6294 43.9146 49.1284C43.9103 47.7164 44.9512 45.9212 46.1869 45.2075C46.6209 44.9575 47.0176 44.8854 47.2498 45.0194C47.4736 45.1482 47.6083 45.5143 47.61 45.9975C47.6134 47.4239 46.5726 49.231 45.3368 49.9447Z" fill="black"/>
<path d="M53.5732 42.0562C53.1562 40.5161 52.3137 39.3473 51.1373 38.6769C50.7203 38.4387 50.1905 38.5854 49.9532 39.0015C49.7159 39.4177 49.8617 39.9483 50.2778 40.1856C51.0551 40.628 51.6001 41.4103 51.8984 42.5105C52.5638 44.966 51.8357 48.469 49.999 51.6508C49.7591 52.0662 49.9015 52.5967 50.3168 52.8366C50.7275 53.0738 51.26 52.9375 51.5026 52.5188C53.5936 48.897 54.3674 44.9854 53.5732 42.0562Z" fill="black"/>
<path d="M54.8541 33.6982C54.4362 33.4592 53.9065 33.6058 53.67 34.0228C53.4327 34.439 53.5785 34.9696 53.9946 35.2069C55.3787 35.996 56.3857 37.4267 56.9052 39.3456C58.0308 43.5005 56.8179 49.3937 53.7395 54.7259C53.4997 55.1412 53.642 55.6718 54.0574 55.9116C54.4712 56.1507 55.0031 56.0095 55.2431 55.5938C58.5436 49.876 59.8235 43.4767 58.5809 38.8913C57.9376 36.5172 56.6493 34.7212 54.8541 33.6982Z" fill="black"/>
</svg>
