<svg width="93" height="92" viewBox="0 0 93 92" fill="none" xmlns="http://www.w3.org/2000/svg">
<path d="M32.7524 15.3371C33.1101 15.0185 33.1406 14.4692 32.8219 14.1115C32.5032 13.7547 31.9557 13.7217 31.5963 14.042C18.9995 25.281 10.2372 43.6608 10.2898 58.7368C10.3118 67.8118 13.4394 74.6128 19.0945 77.8879C19.8433 78.3236 32.0068 85.4013 32.4066 85.634C34.7714 86.9952 37.448 87.6707 40.3349 87.6707C44.4389 87.6707 48.9701 86.3069 53.6487 83.6057C69.7257 74.3238 82.7615 51.7493 82.7106 33.2822C82.6852 24.1681 79.5339 17.3442 73.8415 14.0683C70.1821 11.9659 64.5205 8.65463 60.626 6.39261C55.0862 3.16671 47.7716 3.73883 40.023 8.00132C39.6026 8.23186 39.45 8.75991 39.6806 9.18031C39.9145 9.6024 40.4468 9.75158 40.8604 9.52188C48.0513 5.56621 54.7607 4.98477 59.7513 7.89283L66.9117 12.0595C66.8697 12.0571 66.8262 12.0602 66.7841 12.0581C61.8763 11.8249 56.8142 13.6505 52.5892 16.0873C38.207 24.4005 26.7167 43.0203 24.1194 59.364C24.1134 59.4015 24.1116 59.4381 24.1058 59.4755C23.0119 66.4579 23.3239 74.666 27.1245 80.5518L19.9675 76.3868C14.8667 73.433 12.046 67.1634 12.0256 58.7317C11.9748 44.1151 20.4981 26.2701 32.7524 15.3371ZM80.9748 33.2873C81.0256 51.1992 68.3763 73.0982 52.7808 82.1021C45.3678 86.3849 38.4346 87.1011 33.2728 84.1295C25.4514 79.6275 24.421 68.5387 25.8351 59.5958C25.8364 59.5877 25.8367 59.58 25.8379 59.572C28.3366 43.8024 39.4702 25.6789 53.4622 17.601C59.4476 14.1449 66.9916 12.1172 72.9922 15.5974L73.0109 15.6092C73.0214 15.6153 73.0334 15.6148 73.044 15.6205C78.1328 18.5917 80.9512 24.8581 80.9748 33.2873Z" fill="black"/>
<path d="M35.609 12.9724C36.3481 12.4054 37.099 11.8654 37.8602 11.3552C38.2568 11.0882 38.3636 10.5483 38.0958 10.1508C37.8263 9.75072 37.2872 9.64901 36.8905 9.91431C36.1023 10.4449 35.3208 11.0051 34.5512 11.5959C34.1715 11.8875 34.1003 12.4325 34.3919 12.8122C34.6864 13.1957 35.2317 13.2624 35.609 12.9724Z" fill="black"/>
<path d="M54.0808 24.9114C41.8316 31.9837 31.8996 49.1964 31.9386 63.2823C31.9768 76.8528 41.0162 81.2252 52.1653 74.7917C64.4213 67.7144 74.3567 50.5101 74.316 36.4403C74.2779 22.8964 65.2686 18.4494 54.0808 24.9114ZM51.2974 73.2881C40.9638 79.251 33.7069 74.9907 33.6744 63.2773C33.6355 49.7465 43.1792 33.2101 54.9488 26.4151C65.283 20.4459 72.5477 24.7125 72.5802 36.4453C72.6209 49.9609 63.072 66.4888 51.2974 73.2881Z" fill="black"/>
<path d="M50.9652 41.0689C50.6974 40.9147 50.3668 40.9155 50.099 41.0698L44.3134 44.4092C44.0438 44.5652 43.8777 44.8525 43.8794 45.1636L43.9337 64.1884C43.9353 64.4978 44.0998 64.7834 44.3693 64.9385C44.6371 65.0927 44.9677 65.0919 45.2355 64.9377L51.0211 61.5982C51.2907 61.4423 51.4568 61.1549 51.4551 60.8439L51.4009 41.819C51.3992 41.5097 51.2347 41.224 50.9652 41.0689ZM45.6644 62.6857L45.617 45.6611L49.6701 43.3218L49.7176 60.3463L45.6644 62.6857Z" fill="black"/>
<path d="M61.8871 34.7629C61.6192 34.6086 61.2887 34.6095 61.0208 34.7637L55.2352 38.1041C54.9657 38.26 54.7996 38.5473 54.8013 38.8584L54.8555 57.8832C54.8572 58.1926 55.0217 58.4782 55.2912 58.6334C55.5589 58.7876 55.8896 58.7868 56.1574 58.6325L61.943 55.2922C62.2125 55.1362 62.3787 54.8489 62.377 54.5378L62.3227 35.513C62.321 35.2036 62.1566 34.918 61.8871 34.7629ZM56.5863 56.3796L56.5388 39.3559L60.592 37.0166L60.6394 54.0403L56.5863 56.3796Z" fill="black"/>
</svg>
