<svg width="93" height="92" viewBox="0 0 93 92" fill="none" xmlns="http://www.w3.org/2000/svg">
<path d="M77.8576 15.444C78.4374 15.0999 78.7696 14.4354 78.7696 13.62C78.7696 12.2351 77.8636 10.6789 76.6558 9.99576C75.6556 9.43974 74.9496 9.68893 74.63 9.8754C65.8274 14.8096 69.7961 12.5876 65.1263 15.2093L62.432 13.6538C65.5964 11.8916 65.697 11.8225 68.7054 10.1331C69.2877 9.79234 69.6217 9.12783 69.6217 8.30737C69.6217 6.94615 68.6961 5.35778 67.5298 4.69836C66.8119 4.26949 66.0593 4.22711 65.4821 4.56445C65.2978 4.66785 61.0897 7.0283 60.9083 7.13008C60.8963 7.13654 60.8823 7.13771 60.8704 7.14449C60.8635 7.1483 60.8598 7.1553 60.853 7.15932L55.951 9.91195L54.2406 8.92441C53.9711 8.76846 53.6397 8.76846 53.3701 8.92441L47.2709 12.469L41.5116 9.14478C41.2421 8.98713 40.9107 8.98883 40.6411 9.14478L14.7882 24.169C14.4668 24.3567 14.3573 24.7424 14.3568 24.9183L14.2305 69.6334C14.2296 69.9436 14.3949 70.2318 14.6644 70.386L44.3798 87.5428C44.6485 87.6992 44.9781 87.6976 45.2469 87.5445C45.2465 87.5447 45.2473 87.5443 45.2469 87.5445C45.2476 87.544 45.2496 87.5432 45.2503 87.5428L71.1024 72.5185C71.3685 72.3626 71.533 72.0778 71.5338 71.7693L71.5652 60.9134C71.5669 60.4354 71.2067 60.0489 70.6973 60.0438C70.2192 60.0438 69.831 60.4303 69.8293 60.91L69.7997 71.2675L57.8022 78.2399L57.9237 35.5347L69.9209 28.5634L69.8582 50.6679C69.8565 51.1459 70.2447 51.5358 70.7235 51.5375C70.7244 51.5375 70.7252 51.5375 70.7261 51.5375C71.2041 51.5375 71.5923 51.151 71.594 50.6712C71.7248 4.23977 71.6056 46.3582 71.6548 27.0279L71.9983 19.7175C71.9352 19.54 71.9778 19.2126 71.6082 18.9629L77.8576 15.444ZM66.3271 6.07823C66.3602 6.08162 66.467 6.08501 66.6602 6.20028C67.3018 6.56305 67.8858 7.56658 67.8858 8.30737C67.8858 8.52266 67.8367 8.62267 67.8418 8.62776L64.9195 10.2728C64.7449 9.29629 64.2021 8.34308 63.4504 7.69393L66.3271 6.07823ZM61.7191 8.6642C61.7496 8.65509 61.8659 8.66728 62.0553 8.77693C62.6952 9.14309 63.2775 10.1517 63.2775 10.8925C63.2775 11.0976 63.2318 11.201 63.2114 11.2264C63.2058 11.2298 63.203 11.2356 63.1975 11.2391L60.689 12.6402L57.6996 10.9196C57.8736 10.822 61.9785 8.51861 61.7191 8.6642ZM44.9383 41.0714C38.1176 37.134 24.1219 29.0546 16.9564 24.9182L27.9452 18.5326L55.9269 34.6856L44.9383 41.0714ZM69.9848 25.5843L66.3266 23.4721L70.1896 21.2279L69.9848 25.5843ZM75.4615 11.396C75.4641 11.396 75.5768 11.3824 75.8082 11.5112C76.4498 11.874 77.0338 12.8792 77.0338 13.62C77.0338 13.837 76.9829 13.937 76.9897 13.9404L74.0675 15.5852C73.8914 14.609 73.3474 13.6555 72.5945 13.0067L75.4615 11.396ZM70.8584 13.9795C70.8812 13.9693 71.0083 13.9799 71.2033 14.093C71.8432 14.4608 72.4263 15.4694 72.4263 16.2102C72.4263 16.4103 72.3814 16.5137 72.3611 16.5425C72.3574 16.5447 72.3554 16.5485 72.3517 16.5509L69.87 17.9478L66.8772 16.217C67.2843 15.9882 65.403 17.0466 70.8584 13.9795ZM41.0793 10.8993L46.8387 14.2235C47.1065 14.3795 47.4379 14.3795 47.7091 14.2235L53.8083 10.6789C54.2211 10.9172 70.6108 20.3806 69.3905 19.676L64.1531 22.7197C63.8861 22.8756 63.7208 23.1621 63.7217 23.4723C63.7217 23.472 63.7217 23.4727 63.7217 23.4723C63.7217 23.475 63.72 23.4781 63.72 23.4808C63.7208 23.7893 63.8861 24.0758 64.1539 24.2301L69.0552 27.0578L57.6566 33.6813L29.6747 17.5271L41.0793 10.8993ZM16.0884 26.4202L44.0705 42.5751C44.05 49.8547 43.9847 73.0293 43.9501 85.2916L15.968 69.135L16.0884 26.4202ZM56.0637 79.25L45.6859 85.2814L45.8066 42.5757L56.185 36.545L56.0637 79.25Z" fill="black"/>
<path d="M70.7175 53.5954C70.2369 53.6615 69.8487 53.9802 69.847 54.4616L69.8394 57.1942C69.8385 57.674 70.247 58.13 70.7073 58.0638C71.1853 58.0638 71.5735 57.6774 71.5752 57.1976L71.5828 54.465C71.5845 53.987 71.1963 53.5971 70.7175 53.5954Z" fill="black"/>
<path d="M27.6766 66.9923L21.0816 63.185C20.6671 62.9409 20.1357 63.0866 19.8958 63.502C19.6559 63.9173 19.7983 64.4479 20.2137 64.6869L26.8087 68.4942C27.2199 68.7343 27.7532 68.5938 27.9945 68.1772C28.2343 67.7619 28.0919 67.2313 27.6766 66.9923Z" fill="black"/>
<path d="M39.8251 74.0052L33.23 70.1978C32.8147 69.9554 32.285 70.1012 32.0442 70.5148C31.8044 70.9301 31.9468 71.4607 32.3621 71.6997L38.9571 75.5071C39.3683 75.7471 39.9016 75.6067 40.1429 75.1901C40.3828 74.7748 40.2404 74.2442 39.8251 74.0052Z" fill="black"/>
<path d="M41.0845 56.9349C41.1032 50.1932 36.3457 41.953 30.4796 38.5661C24.2956 34.9911 18.9754 37.9603 18.9542 45.1569C18.9355 51.8986 23.6871 60.1354 29.5455 63.5172C35.7835 67.1241 41.0635 64.0608 41.0845 56.9349ZM20.69 45.1603C20.7075 39.3648 24.533 37.136 29.6117 40.068C34.998 43.1786 39.3656 50.7425 39.3487 56.9315C39.3311 62.724 35.4814 64.9367 30.4135 62.0153C25.0347 58.9098 20.6731 51.3493 20.69 45.1603Z" fill="black"/>
<path d="M26.5907 45.7315C24.8809 44.7442 23.2709 45.6998 23.2656 47.6335C23.2614 49.2253 24.3344 51.095 25.7101 51.8917C27.4032 52.8675 29.0373 51.9327 29.0445 49.9711C29.0487 48.3895 27.9714 46.5266 26.5907 45.7315ZM26.578 50.3881C25.7355 49.8999 24.9989 48.615 25.0015 47.6369C25.003 47.0501 25.1764 46.9218 25.7228 47.2334C26.5704 47.7216 27.3111 48.9998 27.3086 49.966C27.3073 50.549 27.1273 50.7066 26.578 50.3881Z" fill="black"/>
<path d="M36.773 54.4328C36.7772 52.8529 35.6999 50.9916 34.3201 50.1932C32.613 49.2096 31.0012 50.1686 30.9942 52.0952C30.9899 53.6886 32.063 55.5584 33.4377 56.3517C35.1088 57.3211 36.7676 56.4151 36.773 54.4328ZM34.3057 54.8498C33.464 54.3633 32.7275 53.0784 32.73 52.1003C32.7313 51.5408 32.8948 51.3764 33.4504 51.6951C34.298 52.185 35.0397 53.4632 35.0371 54.4294C35.0358 55.0117 34.8589 55.1689 34.3057 54.8498Z" fill="black"/>
</svg>
