<svg width="93" height="92" viewBox="0 0 93 92" fill="none" xmlns="http://www.w3.org/2000/svg">
<path d="M21.0537 63.5853C21.0545 63.8939 21.219 64.1786 21.4851 64.3346C21.6602 64.4363 37.3958 73.5805 36.3956 72.9992C36.3951 72.999 36.396 72.9994 36.3956 72.9992C36.6647 73.1525 36.9953 73.1549 37.2637 72.9986L38.743 72.1444L38.7893 84.958C38.7902 85.2648 38.9538 85.5479 39.2191 85.7039C39.5172 85.8783 42.543 87.6466 42.3661 87.5465C42.6423 87.7028 42.9673 87.6975 43.2324 87.5465C45.9983 85.9475 52.0945 82.4234 51.704 82.6492C51.9735 82.4949 52.1388 82.2067 52.1379 81.8965L52.0877 64.44L54.5376 63.0255L54.5679 75.8431C54.5688 76.1516 54.7332 76.4364 54.9994 76.5906C55.175 76.6929 58.3386 78.534 58.1603 78.4302C58.1616 78.431 58.1621 78.4325 58.1634 78.4333C58.4294 78.5848 58.7563 78.5897 59.0296 78.4316L67.5004 73.536C67.7699 73.3817 67.9352 73.0935 67.9343 72.7833L67.8832 55.3205L71.6221 53.1618C71.8917 53.0075 72.057 52.7193 72.0561 52.4091C72.0291 42.8902 71.964 19.9545 71.9468 13.867C71.9462 13.6922 71.784 13.2753 71.5154 13.1194L71.5133 13.1183C71.5128 13.1179 71.5125 13.1172 71.512 13.1169C71.5114 13.1166 71.5107 13.1167 71.5102 13.1164L56.6072 4.45544C56.336 4.29948 56.0046 4.29948 55.7368 4.45374L49.0976 8.28651C48.6823 8.52638 48.5399 9.05696 48.7798 9.47228C49.0188 9.88759 49.5511 10.0274 49.9656 9.79012L56.169 6.20824L69.3471 13.867L36.7217 32.7032C36.4635 32.5532 23.3615 24.9389 23.5439 25.0449L39.2148 15.997C39.6301 15.7571 39.7725 15.2265 39.5327 14.8112C39.292 14.3942 38.7588 14.2535 38.3469 14.4934L21.3783 24.2906C21.107 24.4477 20.9451 24.7367 20.9443 25.0415C20.9443 25.0422 20.9448 25.0426 20.9448 25.0432C20.9448 25.0439 20.9443 25.0443 20.9443 25.0449C20.949 26.6952 21.0547 63.7679 21.0537 63.5853ZM70.2766 37.1011L37.6516 55.9431L37.6319 48.9944L70.257 30.1683L70.2766 37.1011ZM70.2514 28.1675L37.6262 46.9937L37.6183 44.2L70.2414 25.3594C70.2421 25.5342 70.252 28.3458 70.2514 28.1675ZM35.8901 46.9769L22.7234 39.3241L22.7132 36.5449L35.8822 44.1991L35.8901 46.9769ZM35.8958 48.9893L35.9156 55.9759L22.7461 48.3224L22.7263 41.3341L35.8958 48.9893ZM22.7517 50.3346L35.9213 57.9883L35.9293 60.7661L22.7596 53.1117L22.7517 50.3346ZM37.6572 57.9439L70.2414 39.1258L70.2516 41.9338L37.6651 60.7377L37.6572 57.9439ZM70.2152 15.3706L70.2377 23.3572L37.6127 42.2L37.59 34.2066C47.4488 28.5147 60.3349 21.0749 70.2152 15.3706ZM35.8538 34.2065L35.8765 42.1876L22.707 34.5341L22.6844 26.553L35.8538 34.2065ZM22.7653 55.1232L35.9349 62.7785L35.9576 70.7372L22.7878 63.0836L22.7653 55.1232ZM40.4752 71.1444L41.8839 70.3311C41.885 70.7098 41.9275 85.4537 41.927 85.2783L40.5235 84.4562L40.4752 71.1444ZM50.4004 81.3981L43.6629 85.2919L43.6172 69.3305L50.3546 65.4406L50.4004 81.3981ZM56.2707 62.0249L57.4386 61.3506L57.6794 61.2121C57.6806 61.6017 57.7262 77.1537 57.7233 76.1684L56.3029 75.3413L56.2707 62.0249ZM59.4593 76.1787L59.4127 60.2154L66.1502 56.3216L66.1968 72.2849L59.4593 76.1787ZM37.6934 70.7474L37.6707 62.7384L70.2959 43.9123L70.3186 51.9107C44.4346 66.8553 102.554 33.2995 37.6934 70.7474Z" fill="black"/>
<path d="M43.084 13.7636L46.604 11.7311C47.0193 11.4912 47.1617 10.9606 46.9219 10.5453C46.6812 10.1292 46.148 9.98677 45.7361 10.2275L42.2161 12.26C41.8008 12.4999 41.6584 13.0304 41.8983 13.4458C42.1387 13.8622 42.6709 14.0022 43.084 13.7636Z" fill="black"/>
</svg>
