<svg width="93" height="92" viewBox="0 0 93 92" fill="none" xmlns="http://www.w3.org/2000/svg">
<path d="M20.2651 28.3118C18.8615 29.1204 17.7511 30.9902 17.6723 32.637C17.6338 32.8219 17.6527 30.2495 17.7901 79.1024C17.7901 80.089 18.1809 80.873 18.8538 81.2493C19.1569 81.4239 16.7588 80.0418 29.5283 87.4011C30.1307 87.7482 30.9924 87.7912 31.9363 87.2468L72.7448 63.6857C74.2078 62.8415 75.3503 60.8615 75.3452 59.1791L75.2138 12.8943C75.2113 11.9196 74.8214 11.1364 74.1433 10.7465C74.1342 10.7412 74.1233 10.7403 74.1141 10.7352L63.4867 4.60325C62.7976 4.20574 61.9127 4.26083 61.0711 4.75667L56.0525 7.65455C55.6372 7.89442 55.4948 8.425 55.7347 8.84032C55.9746 9.25479 56.5068 9.39718 56.9205 9.15816L61.9458 6.25604C62.2874 6.05432 62.5213 6.05008 62.6196 6.10687L71.3313 11.1333C67.1223 13.5631 86.1886 2.55647 30.9217 34.461C30.5157 34.6954 30.1389 35.0244 29.7997 35.4053C28.9179 36.3908 28.3185 37.7552 28.3222 38.9702C28.4941 101.753 28.4348 80.0821 28.4476 84.7736L19.7107 79.7398C19.6395 79.6999 19.526 79.4914 19.526 79.0998L19.3895 32.9812C19.3988 32.9295 19.4039 32.8761 19.4039 32.821C19.4039 31.7793 20.1684 30.4223 21.0567 29.8604C21.0881 29.8477 21.1177 29.8324 21.1474 29.8154L49.8287 13.2537C50.2441 13.0138 50.3865 12.4832 50.1466 12.0679C49.9059 11.6518 49.3744 11.5085 48.9608 11.7501L20.3676 28.261C20.332 28.2754 20.2981 28.2923 20.2651 28.3118ZM71.8769 62.1821L31.0684 85.7432C30.724 85.9424 30.4899 85.9496 30.3958 85.8968C30.3949 85.8963 30.3945 85.8954 30.3937 85.8949C30.3353 85.8615 30.2905 85.7826 30.255 85.687C30.2174 85.5816 30.1898 85.4399 30.1894 85.2499C30.1763 80.4989 30.2368 102.396 30.0614 38.9702C30.0614 38.0367 30.686 36.8821 31.4544 36.2414C31.5668 36.1491 31.672 36.0354 31.7905 35.9672C35.9792 33.5491 16.6764 44.6925 72.5948 12.4112C72.6679 12.3691 72.728 12.3555 72.7955 12.3273C72.867 12.2982 72.9474 12.2551 73.0062 12.2426C73.12 12.2181 73.2157 12.2203 73.278 12.2569C73.2795 12.2578 73.2811 12.2577 73.2826 12.2585C73.3798 12.3214 73.4771 12.5381 73.478 12.8994L73.6094 59.1842C73.6128 60.2471 72.8033 61.6481 71.8769 62.1821Z" fill="black"/>
<path d="M52.418 11.7577L54.62 10.4863C55.0353 10.2464 55.1777 9.71585 54.9379 9.30053C54.6972 8.88352 54.1657 8.74113 53.7521 8.98269L51.5501 10.2541C51.1348 10.4939 50.9924 11.0245 51.2322 11.4398C51.4727 11.8562 52.0049 11.9963 52.418 11.7577Z" fill="black"/>
<path d="M60.3973 28.144C57.3019 27.6299 54.0721 28.6985 51.3527 30.2647C42.5191 35.358 35.2401 47.8317 35.2588 58.1323C35.3062 68.6156 42.849 73.306 52.3249 67.8583C61.2262 62.7313 68.4383 50.2303 68.4027 39.9915C68.4027 34.3061 65.9417 29.0227 60.3973 28.144ZM52.2198 31.7683C54.3825 30.5232 57.0791 29.5919 59.5359 29.8105C59.6439 29.8202 59.7544 29.8225 59.8609 29.8363C61.7975 31.8657 62.5103 35.0491 62.5103 37.9082C62.5103 37.9073 62.5103 37.909 62.5103 37.9082C62.5273 47.596 55.6974 59.4215 47.2852 64.2671C44.5393 65.8481 41.9045 66.5216 39.6437 66.2382C39.6095 66.2024 39.5774 66.1638 39.5438 66.1272C37.6208 64.031 37.0071 60.9722 36.9947 58.1264C36.9777 48.4436 43.8075 36.619 52.2198 31.7683ZM66.6668 39.9983C66.7007 49.6802 59.8786 61.504 51.4595 66.3539C47.9829 68.3535 44.7483 68.8869 42.1738 67.9179C44.0781 67.6635 46.0972 66.954 48.1514 65.7716C57.0442 60.6488 64.2648 48.1487 64.2461 37.9065C64.2461 35.8774 63.9393 34.0076 63.3375 32.3582C63.1407 31.8007 62.9 31.2874 62.6393 30.795C65.653 32.6558 66.6668 36.4808 66.6668 39.9949C66.6668 39.9958 66.6668 39.9966 66.6668 39.9983Z" fill="black"/>
<path d="M43.3789 56.2863C43.7281 56.488 44.1239 56.5872 44.5434 56.5872C45.0893 56.5872 45.6758 56.4185 46.2547 56.0846C48.0855 55.0268 49.5145 52.5502 49.5086 50.4456C49.5015 47.9908 47.5033 46.8446 45.3681 48.0792C43.5374 49.1361 42.1083 51.6127 42.1143 53.7181C42.1177 54.8895 42.5788 55.8261 43.3789 56.2863ZM46.2361 49.5828C46.542 49.4056 46.8328 49.3141 47.0667 49.3141C47.1862 49.3141 47.2905 49.3378 47.3752 49.3861C47.6227 49.5285 47.771 49.9269 47.7727 50.4507C47.777 51.9399 46.6844 53.8317 45.3868 54.581C44.9206 54.8514 44.4951 54.9268 44.2443 54.7819C43.9993 54.6412 43.8518 54.2411 43.8501 53.7131C43.8459 52.223 44.9384 50.332 46.2361 49.5828Z" fill="black"/>
<path d="M53.8109 50.2634C54.1601 50.4651 54.555 50.5643 54.9746 50.5643C55.5204 50.5643 56.107 50.3956 56.6859 50.0616C58.5166 49.0047 59.9457 46.5281 59.9397 44.4235C59.9363 43.2556 59.4744 42.3207 58.6726 41.8587C57.8649 41.396 56.8206 41.4663 55.7993 42.0562C53.9685 43.114 52.5395 45.5906 52.5454 47.6952C52.5488 48.8666 53.0099 49.8031 53.8109 50.2634ZM56.6672 43.5598C57.1309 43.2928 57.5563 43.2217 57.8064 43.3632C58.0539 43.5056 58.2022 43.904 58.2039 44.4286C58.2081 45.9178 57.1156 47.8088 55.8179 48.558C55.3535 48.8276 54.9263 48.9047 54.6763 48.7589C54.4305 48.6182 54.283 48.2182 54.2813 47.6901C54.277 46.2009 55.3696 44.3091 56.6672 43.5598Z" fill="black"/>
</svg>
