<svg width="93" height="92" viewBox="0 0 93 92" fill="none" xmlns="http://www.w3.org/2000/svg">
<path d="M76.0025 62.0578L78.5893 60.5643C79.0046 60.3245 79.147 59.7939 78.9071 59.3786C78.6664 58.9624 78.135 58.8209 77.7214 59.0607L75.1346 60.5542C74.7192 60.794 74.5768 61.3246 74.8167 61.7399C75.0572 62.1564 75.5894 62.2964 76.0025 62.0578Z" fill="black"/>
<path d="M13.7745 46.9835C13.3609 46.7436 12.8295 46.8818 12.5879 47.2971C12.3463 47.7116 12.487 48.243 12.9015 48.4837L15.6502 50.0814C16.0658 50.3226 16.5964 50.1815 16.8368 49.7678C17.0784 49.3533 16.9377 48.8219 16.5232 48.5812L13.7745 46.9835Z" fill="black"/>
<path d="M19.5772 50.3569C19.1636 50.1171 18.6313 50.256 18.3906 50.6705C18.1491 51.085 18.2898 51.6164 18.7042 51.8571L21.4529 53.4548C21.8685 53.696 22.3992 53.5549 22.6396 53.1412C22.8811 52.7267 22.7404 52.1953 22.3259 51.9546L19.5772 50.3569Z" fill="black"/>
<path d="M88.7154 45.891C88.7171 45.129 88.2535 44.423 87.444 43.9526L42.7264 17.9665C41.3347 17.1579 39.1471 17.1579 37.7452 17.9648L5.56926 36.5413C4.68474 37.0517 4.27246 37.8319 4.27246 38.4907C4.27246 38.6655 4.30076 46.287 4.30128 46.1122C4.30128 46.881 4.76999 47.5861 5.57689 48.0413L50.2843 74.029C51.6985 74.8439 53.8376 74.8438 55.269 74.029L73.0428 63.7665C73.4581 63.5266 73.6005 62.996 73.3606 62.5807C73.119 62.1646 72.5876 62.023 72.1748 62.2629L54.4053 72.5229C53.5162 73.0272 52.0244 73.0297 51.1539 72.5271L6.43973 46.5351C6.12104 46.3555 6.03713 46.18 6.03713 46.1088L6.01679 40.6938L50.2708 66.4109C51.7689 67.2823 54.0115 67.1276 55.252 66.4126C98.7501 41.3106 83.7245 49.9816 86.9796 48.1032L86.9914 53.5328C86.9931 53.6014 86.8855 53.7735 86.5804 53.9456L80.5074 57.452C80.0921 57.6919 79.9497 58.2225 80.1896 58.6378C80.4286 59.0531 80.9592 59.1938 81.3754 58.9556L87.4415 55.4534C88.2831 54.9771 88.7519 54.2566 88.7264 53.5023L88.7113 45.9179C88.7114 45.9088 88.7154 45.9002 88.7154 45.891ZM6.43719 38.0449L38.6131 19.4684C39.4771 18.969 40.9937 18.9672 41.8551 19.4667L86.571 45.4528C86.8483 45.6138 86.9713 45.7813 86.9755 45.8805C86.9755 45.8801 86.9755 45.8809 86.9755 45.8805C86.9755 45.9161 86.941 45.9719 86.9091 46.0244C86.8947 46.0464 86.8989 46.0606 86.8779 46.0847C86.8775 46.0851 86.8767 46.0855 86.8764 46.0859C86.8075 46.1637 86.7034 46.2499 86.56 46.3326C83.2696 48.2318 98.4781 39.4533 54.3841 64.9048C53.5058 65.417 51.9151 65.3519 51.1387 64.9048L6.41939 38.9179C6.30876 38.8538 6.01306 38.6165 6.01424 38.4882C6.01424 38.3924 6.14647 38.2127 6.43719 38.0449Z" fill="black"/>
<path d="M46.1955 59.8295C46.5209 59.9572 47.1954 59.9738 47.4855 59.8057L76.2855 43.177C76.5533 43.0219 76.7186 42.7363 76.7195 42.4269C76.7203 42.1167 76.5559 41.8311 76.288 41.6751C75.1942 41.0388 43.0688 22.3524 43.2738 22.4714C42.9911 22.3073 42.1961 22.2423 41.8609 22.4367L13.0609 39.0654C12.7931 39.2205 12.6278 39.5061 12.627 39.8155C12.6261 40.1257 12.7905 40.4122 13.0584 40.5673L46.1955 59.8295ZM42.4788 24.0844C43.3715 24.4779 45.1628 25.6186 74.1208 42.4227L46.8108 58.1911L15.2256 39.8197L42.4788 24.0844Z" fill="black"/>
<path d="M24.6651 30.9065L28.0156 28.9724C28.4309 28.7325 28.5733 28.2019 28.3334 27.7866C28.0927 27.3713 27.5596 27.2289 27.1476 27.4687L23.7971 29.4029C23.3818 29.6428 23.2394 30.1734 23.4793 30.5887C23.7215 31.0068 24.2538 31.1441 24.6651 30.9065Z" fill="black"/>
<path d="M69.2099 51.2833C67.8623 50.5052 65.7484 50.506 64.3974 51.2909C62.7359 52.2579 62.7376 54.1022 64.4126 55.0703C65.7625 55.8487 67.8704 55.8498 69.2142 55.0686C70.8769 54.1029 70.8732 52.2439 69.2099 51.2833ZM68.342 53.5684C67.5292 54.0405 66.0985 54.0388 65.2805 53.5667C64.7954 53.2857 64.7507 53.0928 65.2695 52.792C66.0875 52.3164 67.5225 52.3132 68.342 52.7869C68.8273 53.0663 68.8533 53.2693 68.342 53.5684Z" fill="black"/>
</svg>
