<svg width="93" height="92" viewBox="0 0 93 92" fill="none" xmlns="http://www.w3.org/2000/svg">
<path d="M22.0179 64.2575L18.5131 62.2369C18.0987 61.9979 17.5672 62.1403 17.3282 62.5556C17.0883 62.9709 17.2316 63.5015 17.6469 63.7422L21.1517 65.7628C21.5707 66.0023 22.0995 65.8556 22.3366 65.4441C22.5764 65.0288 22.4332 64.4982 22.0179 64.2575Z" fill="black"/>
<path d="M86.2944 36.3094L64.2148 23.5625C63.8362 21.0014 61.9834 18.6495 58.8878 16.8624C52.0614 12.9195 40.9894 12.9229 34.2071 16.8624C30.7903 18.8474 28.9054 21.5333 28.8839 24.428C28.8836 24.4376 28.8792 24.4454 28.8792 24.4551L28.8685 25.9359L6.73777 38.7928C5.7213 39.3839 5.13986 40.2553 5.12831 41.1849C5.1281 41.1926 5.12397 41.1989 5.12397 41.2067V41.2132C5.12397 41.215 5.12312 41.2168 5.12312 41.2186C5.12312 41.3997 5.07475 55.1672 5.07227 54.9918C5.07227 55.9445 5.64947 56.809 6.69793 57.4244L14.7686 62.1708C15.1822 62.4132 15.7128 62.2759 15.9569 61.864C16.1993 61.4504 16.062 60.9181 15.6484 60.6757L7.57772 55.9292C7.08866 55.641 6.80811 55.3003 6.80811 54.9952L6.85049 43.7003L41.1784 63.5219C43.0516 64.6017 45.9749 64.6034 47.8277 63.5202L86.1825 41.2372L86.1537 52.4846C86.141 52.9203 85.6672 53.2627 85.3875 53.4255L46.9242 75.7813C45.5867 76.5543 43.3296 76.5543 41.9938 75.7813L25.1617 66.0714C24.7421 65.8341 24.2158 65.9748 23.9759 66.3901C23.736 66.8054 23.8784 67.336 24.2937 67.575L41.1267 77.2866C42.9967 78.3624 45.9206 78.3631 47.7938 77.2849L86.263 54.9257C87.2835 54.3273 87.8616 53.478 87.8896 52.5118L87.9243 38.7589C87.9243 38.7555 87.9243 38.7504 87.9243 38.7453C87.9243 38.7447 87.9239 38.7441 87.9239 38.7434C87.9239 38.7348 87.9278 38.7268 87.9277 38.7182C87.9218 37.7672 87.3412 36.9112 86.2944 36.3094ZM62.4968 30.1542C62.4909 32.419 60.9051 34.5854 58.0335 36.2534C51.7291 39.9184 41.4369 39.915 35.0919 36.2534C32.1983 34.5803 30.6082 32.3969 30.615 30.1051C30.6153 29.9999 30.6311 30.494 30.582 29.0744C31.3482 30.0452 32.7221 31.2544 34.2867 32.1562C41.1688 36.1313 52.2359 36.0692 58.9683 32.1562C60.1745 31.4541 61.3986 30.5102 62.3164 29.4469C62.3838 29.3689 62.4615 29.2941 62.5256 29.2151C62.52 29.3926 62.4973 29.9766 62.4968 30.1542ZM30.4972 40.6978C31.4011 41.8576 32.6417 42.923 34.224 43.8359C41.0639 47.7876 52.1347 47.7678 58.9056 43.8359C60.3786 42.9796 61.5582 41.9542 62.4413 40.8325L62.4341 41.8305C62.4273 44.0953 60.8415 46.2634 57.9707 47.9314C51.6647 51.5964 41.3734 51.593 35.0284 47.9314C32.0949 46.238 30.4828 44.0393 30.4896 41.7458L30.4972 40.6978ZM62.4754 36.1409C62.4674 38.442 60.848 40.6988 58.0335 42.334C51.7291 45.9989 41.4369 45.9955 35.0919 42.334C32.1576 40.6388 30.5455 38.4419 30.5523 36.1449C30.5571 34.4359 30.5427 34.8175 30.5414 34.6436C31.4348 35.7963 32.6607 36.8527 34.224 37.7554C41.0639 41.7071 52.1347 41.6873 58.9056 37.7554C60.4118 36.8799 61.6019 35.8622 62.4855 34.7559L62.4754 36.1409ZM35.0784 18.3644C41.399 14.6899 51.6875 14.711 58.0199 18.3644C60.8102 19.9755 62.3885 22.0461 62.5317 24.2222C62.7144 26.9753 60.5534 29.1951 58.1859 30.5965C58.1555 30.6145 58.1296 30.6342 58.0988 30.6521C51.8392 34.2946 41.4869 34.3119 35.1572 30.6492C32.8136 29.2921 30.614 27.1266 30.6159 24.4737C30.6171 22.2058 32.2018 20.0366 35.0784 18.3644ZM7.60993 40.293L28.8537 27.9519L28.7537 41.7356C28.7444 44.6835 30.665 47.4161 34.1604 49.4333C40.9747 53.3702 52.0448 53.3801 58.8429 49.4333C62.2688 47.4415 64.1606 44.7428 64.17 41.8407L64.2115 36.1455L64.2882 25.6095L85.4273 37.813C85.9095 38.0899 86.1873 38.4225 86.192 38.7267C86.1918 38.7327 86.1885 38.7376 86.1885 38.7436V38.7487C86.1859 39.0315 85.9011 39.3782 85.4561 39.6494C85.4499 39.6531 85.4455 39.6574 85.4393 39.6611L81.8688 41.7356L46.9606 62.0149C45.6243 62.7863 43.2113 62.6871 42.0472 62.0166L7.62434 42.139C7.32228 41.9661 7.11197 41.77 6.98706 41.572C6.91163 41.4506 6.85982 41.3282 6.85982 41.2101C6.85982 41.21 6.85982 41.2102 6.85982 41.2101C6.86194 40.9042 7.13465 40.57 7.60993 40.293Z" fill="black"/>
<path d="M74.4425 40.8609C76.0026 41.7606 78.449 41.7586 80.0078 40.8524C80.9011 40.332 81.4122 39.5624 81.4105 38.7368C81.4088 37.9147 80.8952 37.1468 80.001 36.6297C78.4313 35.7245 75.9834 35.7262 74.4256 36.6314C72.5508 37.7221 72.5544 39.7667 74.4425 40.8609ZM75.2977 38.1333C76.312 37.5417 78.1065 37.5405 79.1331 38.1333C79.467 38.3249 79.6747 38.5588 79.6747 38.7402C79.6747 38.8843 79.5331 39.1199 79.1347 39.3505C78.0998 39.9539 76.3487 39.9573 75.3105 39.3572C74.6035 38.9469 74.5686 38.5526 75.2977 38.1333Z" fill="black"/>
<path d="M42.4853 59.4348C44.047 60.3345 46.4934 60.3325 48.0505 59.4263C49.9284 58.3349 49.9156 56.2836 48.0445 55.2053C46.474 54.3035 44.0253 54.3001 42.4683 55.2053C40.5883 56.298 40.6044 58.3484 42.4853 59.4348ZM43.3405 56.7073C44.3565 56.1136 46.1499 56.116 47.1766 56.709C47.8971 57.1223 47.881 57.5177 47.1783 57.9244C46.1451 58.5279 44.3932 58.5313 43.3532 57.9312C42.6424 57.5187 42.6162 57.1248 43.3405 56.7073Z" fill="black"/>
<path d="M13.0573 42.4442C14.6174 43.3439 17.0646 43.3419 18.6217 42.4357C20.4895 41.3512 20.4991 39.301 18.6157 38.213C17.0477 37.3112 14.5982 37.3095 13.0403 38.2147C11.1655 39.3044 11.1692 41.3536 13.0573 42.4442ZM13.9125 39.7167C14.9246 39.1253 16.7172 39.1231 17.7478 39.7184C18.5037 40.1519 18.42 40.5457 17.7495 40.9338C16.7155 41.539 14.9627 41.5407 13.9252 40.9389C13.2166 40.5306 13.1848 40.1388 13.9125 39.7167Z" fill="black"/>
</svg>
