<svg width="93" height="92" viewBox="0 0 93 92" fill="none" xmlns="http://www.w3.org/2000/svg">
<path d="M17.3968 81.7522C17.9749 82.0811 18.6953 82.2455 19.4157 82.2455C20.143 82.2455 20.8702 82.0777 21.4499 81.7421C22.3755 81.1861 22.5128 80.4605 22.5128 80.0808L22.542 70.7739L25.4272 72.4505L25.3946 85.4935C25.3946 86.1478 25.7777 86.7394 26.4931 87.1683C27.6494 87.8266 29.3762 87.8242 30.5292 87.1581C31.226 86.7394 31.6091 86.1478 31.6091 85.4952L31.6417 72.461L70.4349 50.0652L70.4046 58.5709C70.4046 59.215 70.7979 59.8219 71.5031 60.2457C72.0811 60.5745 72.8016 60.739 73.522 60.739C74.2493 60.739 74.9765 60.5712 75.5562 60.2355C76.2309 59.8287 76.6191 59.2218 76.6191 58.5742C76.7009 34.9924 76.7749 36.7827 76.5665 11.7538C76.5656 11.58 76.4157 11.1694 76.1343 11.0062L76.1323 11.0051C76.1317 11.0047 76.1315 11.004 76.1309 11.0037C74.8101 10.2362 64.1887 4.06406 64.8648 4.45695C64.5987 4.30184 64.2647 4.301 63.9952 4.45526L16.7357 31.7398C16.4643 31.8969 16.3017 32.1859 16.3017 32.4907C16.3017 32.4914 16.3022 32.4918 16.3022 32.4924C16.3022 32.4931 16.3017 32.4935 16.3017 32.4941L16.3288 42.1803C16.3305 42.6583 16.7187 43.0457 17.1968 43.0457C17.6765 43.044 18.0664 42.655 18.0647 42.1752L18.041 34.002L27.5726 39.5407C27.5771 41.1674 27.658 70.0664 27.6627 71.7423C26.2076 70.8967 17.6686 65.9346 18.1376 66.2071C18.137 66.033 18.0906 51.3357 18.0935 52.2699C18.0918 51.7902 17.7036 51.4037 17.2256 51.4037C16.7459 51.4054 16.356 51.7953 16.3577 52.2733C16.3443 59.2243 16.3142 74.8949 16.2983 80.0774C16.2983 80.7318 16.6814 81.3234 17.3968 81.7522ZM20.7804 80.0571C20.7804 80.0571 20.7448 80.1401 20.5668 80.2469C19.9667 80.5961 18.8665 80.5927 18.2732 80.2537C18.102 80.152 18.0461 80.0706 18.0359 80.0706C18.0342 80.0706 18.0342 80.0723 18.0342 80.0723L18.0698 68.1757C18.2437 68.2767 20.984 69.8687 20.8092 69.7671L20.7804 80.0571ZM74.9256 45.4689C65.3542 50.9943 99.0335 31.5521 29.4003 71.7496L29.3087 39.5411L74.8341 13.2578L74.9256 45.4689ZM29.8783 85.4579C29.8783 85.4579 29.8359 85.5477 29.6461 85.663C29.0426 86.0139 27.9696 86.0139 27.3695 85.6698C27.1983 85.5681 27.1423 85.4867 27.1321 85.4867C27.1304 85.4867 27.1304 85.4867 27.1304 85.4884L27.161 73.4612L28.1001 74.007C28.3679 74.163 28.7036 74.163 28.9714 74.007L29.9037 73.4646L29.8783 85.4579ZM74.8866 58.5488C74.8866 58.5505 74.851 58.6336 74.673 58.7404C74.0763 59.0879 72.9762 59.0845 72.3795 58.7472C72.21 58.6454 72.1523 58.5641 72.1422 58.5641L72.1405 58.5658L72.1744 49.0745L74.929 47.4777L74.8866 58.5488ZM64.4275 6.20975L73.9673 11.7535L28.4403 38.0379L18.9004 32.4941L64.4275 6.20975Z" fill="black"/>
<path d="M17.2155 49.4322H17.2189C17.6969 49.4306 18.0851 49.0407 18.0834 48.5609L18.0733 45.1604C18.0716 44.6824 17.6834 44.2959 17.2053 44.2959H17.2019C16.7239 44.2976 16.3357 44.6875 16.3374 45.1672L16.3476 48.5677C16.3493 49.0458 16.7375 49.4322 17.2155 49.4322Z" fill="black"/>
<path d="M46.425 19.4973L51.8292 22.6385C52.2469 22.8808 52.7769 22.7361 53.0158 22.3249C53.2565 21.9104 53.1158 21.379 52.7005 21.1382L47.2963 17.9971C46.8827 17.7581 46.3504 17.8954 46.1097 18.3107C45.869 18.7252 46.0097 19.2566 46.425 19.4973Z" fill="black"/>
<path d="M42.053 22.0215L47.4571 25.1626C47.8748 25.405 48.4048 25.2603 48.6438 24.849C48.8845 24.4345 48.7438 23.9031 48.3285 23.6624L42.9243 20.5212C42.5123 20.2805 41.9784 20.4187 41.7377 20.8348C41.4969 21.2493 41.6376 21.7807 42.053 22.0215Z" fill="black"/>
<path d="M37.6814 24.5455L43.0856 27.6866C43.5033 27.929 44.0332 27.7843 44.2722 27.373C44.5129 26.9586 44.3722 26.4271 43.9569 26.1864L38.5527 23.0453C38.1391 22.8054 37.6068 22.9427 37.3661 23.3589C37.1254 23.7733 37.2661 24.3048 37.6814 24.5455Z" fill="black"/>
<path d="M33.3093 27.0696L38.7135 30.2107C39.1312 30.4531 39.6611 30.3084 39.9001 29.8971C40.1408 29.4827 40.0001 28.9512 39.5848 28.7105L34.1806 25.5694C33.767 25.3303 33.2347 25.4677 32.994 25.883C32.7533 26.2974 32.894 26.8289 33.3093 27.0696Z" fill="black"/>
<path d="M28.9377 29.5937L34.3419 32.7349C34.7596 32.9772 35.2896 32.8325 35.5285 32.4213C35.7692 32.0068 35.6285 31.4754 35.2132 31.2346L29.809 28.0935C29.3971 27.8528 28.8631 27.9909 28.6224 28.4071C28.3817 28.8216 28.5224 29.353 28.9377 29.5937Z" fill="black"/>
<path d="M29.9715 35.2581C30.3921 35.5022 30.921 35.3531 31.1581 34.9437C31.3989 34.5292 31.2582 33.9986 30.8428 33.7579L25.437 30.6176C25.0233 30.3778 24.4911 30.5151 24.2504 30.9321C24.0096 31.3466 24.1503 31.8771 24.5657 32.1179L29.9715 35.2581Z" fill="black"/>
<path d="M35.6876 56.8401C35.9254 57.2549 36.458 57.3977 36.8726 57.1571L38.8649 56.0069L38.8712 58.1572C38.8728 58.637 39.261 59.0235 39.7391 59.0235C40.2188 59.0218 40.6087 58.6319 40.607 58.1539L40.5979 55.0065L43.3413 53.4226C43.5801 53.2852 43.7153 53.0497 43.7527 52.7968C43.8515 52.5566 43.8548 52.2803 43.7142 52.0377C43.4752 51.6224 42.9429 51.4783 42.5293 51.7207L40.5916 52.8393L40.585 50.5205C40.5833 50.0408 40.1951 49.6543 39.717 49.6543C39.2373 49.656 38.8474 50.0459 38.8491 50.5239L38.8587 53.8398L36.0606 55.4552C35.8218 55.5926 35.6866 55.8281 35.6492 56.081C35.5503 56.3212 35.547 56.5975 35.6876 56.8401Z" fill="black"/>
<path d="M33.0704 66.8789L72.1032 44.3433C72.3728 44.1891 72.5389 43.9009 72.5372 43.5898L72.466 18.8786C72.4643 18.5692 72.2999 18.2836 72.0303 18.1285C71.7625 17.9742 71.4319 17.975 71.1641 18.1293L32.1312 40.664C31.8617 40.8199 31.6956 41.1073 31.6973 41.4183L31.7685 66.1296C31.7722 66.8054 32.5022 67.2097 33.0704 66.8789ZM70.7352 20.3822L70.7997 43.0923L33.4992 64.6277L33.4348 41.9159L70.7352 20.3822Z" fill="black"/>
<path d="M61.7049 42.6524L68.1736 38.918C68.5889 38.6781 68.7313 38.1475 68.4906 37.7322C68.2516 37.3152 67.7193 37.1753 67.3057 37.4144L60.8369 41.1488C60.4216 41.3887 60.2792 41.9193 60.5199 42.3346C60.7562 42.7481 61.2871 42.8922 61.7049 42.6524Z" fill="black"/>
</svg>
