<svg width="93" height="92" viewBox="0 0 93 92" fill="none" xmlns="http://www.w3.org/2000/svg">
<path d="M18.8298 58.8873C19.3095 58.8856 19.6994 58.4957 19.6977 58.0176L19.6875 54.0408C19.6858 53.5611 19.2976 53.1746 18.8196 53.1746C18.3399 53.1763 17.95 53.5661 17.9517 54.0442L17.9618 58.021C17.9635 58.5008 18.3517 58.8873 18.8298 58.8873Z" fill="black"/>
<path d="M17.9092 79.692C17.9109 80.0005 18.0753 80.2836 18.3415 80.4396C18.5165 80.5413 30.7379 87.6439 30.5643 87.5429C30.5638 87.5427 30.5647 87.5432 30.5643 87.5429C30.8263 87.6922 31.2654 87.7062 31.5468 87.5423L74.682 62.6386C74.9515 62.4844 75.1176 62.1962 75.116 61.886C75.078 48.5253 75.0216 28.6301 74.9753 12.3058C74.9731 11.9373 74.7171 11.6599 74.543 11.5591L74.541 11.5579C74.5404 11.5576 74.5401 11.5569 74.5396 11.5565C74.5391 11.5562 74.5383 11.5563 74.5378 11.556L62.3225 4.45634C62.0581 4.30123 61.7241 4.30038 61.4529 4.45464C27.0572 24.3079 37.379 18.3533 18.3178 29.3583C18.0464 29.5154 17.8838 29.8044 17.8838 30.1093C17.8838 30.1099 17.8842 30.1103 17.8842 30.111C17.8842 30.1116 17.8838 30.112 17.8838 30.1127C17.9184 42.3206 17.9051 37.6373 17.9397 49.8486C17.9414 50.3284 18.3296 50.7149 18.8077 50.7149C19.2874 50.7132 19.6773 50.3233 19.6756 49.8452L19.6421 37.8467L30.1233 43.9386C30.28 99.5465 30.1976 70.3016 30.2225 79.1218L19.7411 73.0297L19.7112 62.6013C19.7095 62.1216 19.3213 61.7351 18.8433 61.7351C18.3635 61.7368 17.9736 62.1267 17.9753 62.6047C17.9741 62.935 17.9062 80.4689 17.9092 79.692ZM73.2445 13.8103L73.2564 18.0428L31.8594 41.9436L31.8421 37.7129C41.5637 32.1004 63.414 19.4857 73.2445 13.8103ZM31.9763 85.2232L31.9644 80.9909L73.2462 57.1565L73.2631 61.3876L31.9763 85.2232ZM73.3607 55.0858L31.9586 78.9905C31.9448 74.0995 31.9043 59.821 31.8594 43.9483L73.2621 20.044L73.3607 55.0858ZM49.5907 13.3072L55.6317 16.8175L53.028 18.3211L46.9866 14.8107L49.5907 13.3072ZM41.898 17.7486L47.9391 21.2588L45.3353 22.7624L39.2939 19.2521L41.898 17.7486ZM34.2054 22.1899L40.2464 25.7001L37.6426 27.2038L31.6013 23.6933L34.2054 22.1899ZM26.5126 26.6312L32.5537 30.1415L29.9517 31.6451L23.9101 28.1338L26.5126 26.6312ZM22.1772 29.1342L29.5143 33.3979C29.7792 33.5538 30.1132 33.5555 30.3839 33.3996L34.7202 30.8958C34.988 30.7407 35.1541 30.4551 35.1541 30.1449C35.1541 29.8355 34.9897 29.549 34.7219 29.3939L28.2452 25.631L29.8692 24.6933L37.2053 28.9566C37.4701 29.1124 37.8042 29.1142 38.0749 28.9583L42.4111 26.4545C42.679 26.2994 42.8451 26.0138 42.8451 25.7035C42.8451 25.3942 42.6807 25.1077 42.4128 24.9526L35.9377 21.1897L37.5619 20.252L44.8979 24.5152C45.1633 24.6714 45.4973 24.6726 45.7676 24.5169L50.1038 22.0132C50.3716 21.8581 50.5378 21.5724 50.5378 21.2622C50.5378 20.9528 50.3733 20.6664 50.1055 20.5112L43.6305 16.7484L45.2546 15.8107L52.5906 20.0739C52.8554 20.2298 53.1895 20.2315 53.4602 20.0756L57.7965 17.5718C58.0643 17.4167 58.2304 17.1311 58.2304 16.8209C58.2304 16.5115 58.066 16.225 57.7981 16.0699L51.3231 12.3071L61.8852 6.20914L72.376 12.3063L30.9733 36.2099L20.4825 30.1127L22.1772 29.1342ZM19.6434 35.8398L19.6264 31.6223C20.1019 31.8987 30.788 38.1103 30.1056 37.7136L30.1176 41.9283L19.6434 35.8398ZM30.1059 81.0617L30.1226 85.2128L19.7586 79.1885L19.7468 75.0409L30.1059 81.0617Z" fill="black"/>
<path d="M53.0839 61.9657C58.917 58.5991 63.6448 50.4013 63.6261 43.6918C63.605 36.5627 58.3129 33.5713 52.1499 37.1315C46.3117 40.5023 41.5771 48.7027 41.5958 55.4122C41.6167 62.4759 46.8589 65.561 53.0839 61.9657ZM53.0178 38.6351C58.0439 35.7323 61.8727 37.9417 61.8903 43.6952C61.9089 49.852 57.5676 57.3735 52.216 60.4638C47.1888 63.3564 43.3492 61.1716 43.3316 55.4088C43.313 49.2536 47.6594 41.7288 53.0178 38.6351Z" fill="black"/>
<path d="M52.1211 47.906L49.9123 49.1418C49.4048 49.4261 49.3186 50.1199 49.7275 50.5182L54.2774 54.9816C54.6203 55.3176 55.1694 55.3134 55.5047 54.9714C55.842 54.629 55.8352 54.0798 55.4945 53.7441L51.7702 50.091L53.9383 48.879C54.4301 48.6046 54.5335 47.938 54.1468 47.5263L50.9684 44.1427C50.6378 43.7935 50.0886 43.7766 49.7411 44.1054C49.3919 44.4326 49.3749 44.9818 49.7038 45.3327L52.1211 47.906Z" fill="black"/>
</svg>
