<svg width="93" height="92" viewBox="0 0 93 92" fill="none" xmlns="http://www.w3.org/2000/svg">
<rect x="0.5" width="92" height="92" rx="46" fill="white"/>
<path d="M52.0374 22.1843C52.0134 22.1822 51.9882 22.1755 51.9643 22.1737L53.3645 21.3584C55.1527 20.3175 57.5716 20.5735 60.1729 22.0781C60.4443 22.2351 60.7893 22.1417 60.9463 21.8719C61.1033 21.6011 61.0104 21.255 60.7401 21.0986C57.77 19.38 54.9476 19.1269 52.7951 20.38L48.4427 22.9148C48.4357 22.9187 48.428 22.921 48.421 22.925C46.2829 24.1554 45.0994 26.6943 45.09 30.0745C45.0707 36.8393 49.8361 45.1032 55.7132 48.4967C57.4439 49.4956 59.1243 50.0002 60.6522 50.0002C61.7395 50.0002 62.7494 49.7443 63.6443 49.2297C63.648 49.2276 63.651 49.2246 63.6546 49.2226C63.6593 49.2201 63.6647 49.2213 63.6692 49.2186L68.0615 46.661C70.1836 45.4233 71.3599 42.8811 71.3748 39.502C71.3837 35.3015 69.5607 30.3868 66.4977 26.3555C66.3098 26.1062 65.9538 26.0581 65.7051 26.2471C65.4558 26.4362 65.4071 26.791 65.5967 27.0398C68.5143 30.881 70.2511 35.5386 70.2428 39.4987C70.2301 42.4593 69.2528 44.6555 67.4916 45.6831L66.0904 46.499C66.0942 46.4909 66.0966 46.4814 66.1004 46.4734C66.7303 45.1293 66.9768 43.5491 66.9831 42.0597C66.9919 38.077 65.3286 33.5781 62.7627 29.8555C60.29 26.267 56.3098 22.5519 52.0374 22.1843ZM56.2792 47.5161C50.7156 44.3039 46.2039 36.4811 46.2221 30.0778C46.2304 27.1278 47.2071 24.9412 48.9707 23.9168L48.9727 23.9161L48.9771 23.9139C53.0697 21.537 58.5798 26.0268 61.4175 29.8753C64.0984 33.5118 65.858 38.0629 65.8466 42.058C65.8295 48.1694 61.677 50.6333 56.2792 47.5161Z" fill="black"/>
<path d="M43.1581 33.2811C42.2057 30.3304 41.6153 27.4345 41.4047 24.6734C41.3412 23.8315 40.7784 22.9454 40.0366 22.5181C40.0329 22.516 40.0284 22.517 40.0246 22.5149C40.0213 22.5131 40.02 22.5093 40.0167 22.5076C37.8852 21.391 35.7576 20.2766 33.6267 19.1656C32.8357 18.751 32.0668 18.7184 31.4609 19.0705C21.5591 24.8279 22.6435 24.1861 22.5099 24.277C21.8493 24.7259 21.5348 25.5993 21.6476 26.6744C23.6555 45.7179 37.777 66.558 48.4824 72.7661C49.1901 73.174 50.0154 73.341 50.7278 72.9491C50.8411 72.8867 59.7281 67.7535 59.6147 67.7857C60.2128 67.438 60.5627 66.7647 60.6014 65.8908C60.7119 63.5017 60.818 61.1148 60.9242 58.7246C60.9634 57.9087 60.456 56.9254 59.7446 56.4373C57.4461 54.8586 55.2273 52.8885 53.1489 50.5807C52.9748 50.3883 52.7863 50.233 52.5889 50.1191C52.1335 49.856 51.6559 49.83 51.2778 50.0494L49.0506 51.3437C45.6253 47.0393 42.6161 41.9315 40.4562 36.4565L42.6927 35.1567C43.2438 34.8372 43.4262 34.0998 43.1581 33.2811ZM32.0303 20.0489C32.2873 19.9002 32.6682 19.9411 33.1021 20.1688C34.9306 21.1223 36.7558 22.0775 38.5832 23.0348L30.891 27.5052C28.8516 26.4365 26.8163 25.3703 24.7779 24.308C24.7646 24.3008 24.7508 24.2942 24.7376 24.287L32.0303 20.0489ZM49.0495 71.7861C39.6589 66.3525 24.8821 46.5518 22.773 26.5561C22.7067 25.9193 22.846 25.4174 23.1461 25.2134C23.444 25.0113 23.9184 25.1361 24.2539 25.3113C26.4355 26.4488 28.4589 27.5089 30.6251 28.6435C30.9785 28.8469 31.39 29.4114 31.4272 29.9015C31.6455 32.7543 32.2525 35.7382 33.2331 38.774C33.2417 38.8001 33.2433 38.8187 33.2499 38.8429C33.3283 39.1306 33.2878 39.2898 33.2774 39.3147L30.3493 39.3738C30.168 39.3776 29.9988 39.4689 29.896 39.6187C29.7911 39.7707 29.7686 39.9653 29.828 40.1327C32.2169 46.8383 35.9309 53.2699 40.5617 58.7202C40.7857 58.9846 41.2586 58.9984 41.4744 58.6517C41.8931 57.9714 42.3794 57.1733 43.0113 56.1804C43.042 56.183 43.093 56.1948 43.1747 56.2421C43.2692 56.2969 43.3682 56.3798 43.4599 56.4815C45.5969 58.854 47.8832 60.8832 50.2551 62.5133C50.6426 62.7787 50.9649 63.3862 50.9444 63.8146C50.5967 71.6508 50.6233 71.1143 50.5811 71.3163C50.4114 72.1292 49.7783 72.2067 49.0495 71.7861ZM51.8316 51.0345C51.8499 51.0306 51.9151 51.0372 52.0235 51.0997C52.1174 51.1539 52.2164 51.2373 52.3087 51.3391C54.4457 53.7121 56.732 55.7413 59.1039 57.3703C59.4914 57.6368 59.8137 58.2443 59.7932 58.6727C59.6871 61.064 59.5809 63.4497 59.4704 65.8399C59.4494 66.3164 59.2985 66.6597 59.0453 66.8073L51.752 71.0459C51.752 71.0415 51.7526 71.0376 51.7526 71.0332C51.8632 68.6441 51.9693 66.2567 52.0754 63.8665C52.1147 63.0506 51.6072 62.0672 50.8958 61.5797C48.5974 60.0004 46.3786 58.0304 44.3007 55.7236C44.2371 55.6534 44.1719 55.5877 44.1045 55.5274L51.8316 51.0345ZM39.4595 37.0383C41.5933 42.3973 44.6546 47.6208 48.0523 51.9195C46.8063 52.6456 42.5428 55.1095 42.3825 55.2246C42.3607 55.2388 42.0923 55.4923 42.0443 55.5705C40.5054 58.0572 41.0362 57.1996 40.9216 57.3853C36.8882 52.5041 33.476 46.6935 31.1654 40.4904C31.8767 40.4743 32.5897 40.4605 33.2934 40.4522C33.4886 40.4522 33.6522 40.3969 33.7798 40.3284C33.7953 40.3207 33.8095 40.3127 33.8245 40.3044C33.8306 40.301 33.8378 40.3027 33.8439 40.2991C33.9574 40.2332 39.831 36.8226 39.4595 37.0383ZM42.1139 34.1838L34.379 38.6789C34.3608 38.5949 34.3375 38.5098 34.3093 38.4236C33.3575 35.4751 32.7671 32.5791 32.556 29.8158C32.5202 29.3441 32.2691 28.7048 31.8756 28.2422L39.7189 23.6841C40.0195 23.9632 40.2478 24.3882 40.276 24.7591C40.4932 27.6091 41.1007 30.5936 42.0819 33.631C42.1902 33.9638 42.1377 34.1457 42.1139 34.1838Z" fill="black"/>
<path d="M64.4437 25.3704C64.5835 25.3704 64.7234 25.319 64.8328 25.2156C65.0595 25.0006 65.07 24.6424 64.8549 24.4152C64.2878 23.8155 63.6952 23.2572 63.0932 22.7547C62.8533 22.5535 62.4951 22.5872 62.2961 22.8266C62.0955 23.0665 62.1281 23.4236 62.368 23.6237C62.9357 24.0974 63.4957 24.6258 64.0324 25.1935C64.1435 25.3113 64.2939 25.3704 64.4437 25.3704Z" fill="black"/>
<path d="M56.303 37.5751C54.8432 36.7318 53.4863 37.5086 53.4816 39.1936C53.4772 40.6468 54.4623 42.3565 55.7242 43.0856C57.1715 43.9213 58.5458 43.1758 58.5506 41.4699C58.5544 40.0155 57.5672 38.3047 56.303 37.5751ZM57.1239 42.2438C56.9331 42.3527 56.6302 42.3018 56.2903 42.105C55.3782 41.5782 54.6104 40.2466 54.6137 39.1969C54.6148 38.8094 54.7226 38.5258 54.9089 38.4186C55.1456 38.2822 55.4974 38.4174 55.7369 38.5557C56.6512 39.0836 57.4212 40.4163 57.4185 41.4666C57.4174 41.853 57.3101 42.1365 57.1239 42.2438Z" fill="black"/>
<path d="M58.4914 35.6752C57.2866 34.5028 55.7284 33.4441 54.0748 33.1435C53.0543 32.9594 52.098 33.0948 51.3115 33.5387C51.0389 33.6918 50.9422 34.0368 51.0959 34.3093C51.249 34.5818 51.5939 34.6802 51.8664 34.5249C53.0573 33.8559 54.5659 34.2997 55.7535 34.9853C57.1539 35.7926 58.7301 37.2845 59.9822 39.4451C60.1393 39.7154 60.4864 39.8072 60.7561 39.6507C61.0264 39.4937 61.1187 39.1477 60.9617 38.8768C60.2592 37.6657 59.4283 36.5884 58.4914 35.6752Z" fill="black"/>
<path d="M63.3404 37.5143C61.6495 34.5788 59.2264 31.7996 56.3268 30.1259C54.4833 29.0613 52.6652 28.587 51.0666 28.7567C50.2955 28.8385 49.5786 29.0674 48.9368 29.4361C48.6654 29.5919 48.572 29.938 48.7278 30.2088C48.8837 30.4797 49.2298 30.5726 49.5006 30.4178C51.4251 29.3111 53.8379 29.9964 55.7608 31.1065C57.4423 32.0772 59.0846 33.5426 60.5102 35.3446C61.1807 36.1926 61.8025 37.1124 62.3597 38.0792C62.5153 38.35 62.8621 38.4432 63.1325 38.287C63.4034 38.1311 63.4968 37.7851 63.3404 37.5143Z" fill="black"/>
</svg>
