<svg width="93" height="92" viewBox="0 0 93 92" fill="none" xmlns="http://www.w3.org/2000/svg">
<path d="M87.5638 26.2894L66.8717 19.6062C66.6344 19.529 66.3733 19.5587 66.1589 19.6875L59.2188 23.8446L48.8953 20.6368C48.6623 20.5639 48.4105 20.5928 48.202 20.7157L36.157 27.7141C35.7425 27.9549 35.601 28.4854 35.8426 28.8999C36.0833 29.3152 36.6164 29.4525 37.0283 29.2144L48.7445 22.4074C48.9217 22.4625 64.8952 27.426 64.8952 27.426L73.0633 36.1612L36.8144 57.2248L12.7431 43.3256L28.5974 34.1134C29.0119 33.8727 29.1534 33.3421 28.9119 32.9276C28.6703 32.5115 28.1363 32.3708 27.7261 32.6132L10.5744 42.5782C6.88406 44.7285 4.85664 47.6366 4.86427 50.7667C4.87056 52.3024 4.84329 58.2335 4.83545 60.9987C4.83545 64.1661 6.90101 67.0979 10.649 69.2533C17.9521 73.4805 29.8711 73.5131 37.2148 69.2533L37.2168 69.2513L74.8407 47.3891C75.1077 47.2348 75.2721 46.95 75.2729 46.6424L75.3094 36.368C75.3107 35.9416 74.9721 35.7201 74.8631 35.5451L87.7417 27.8599C88.0342 27.6853 88.1977 27.3556 88.1588 27.0174C88.1206 26.6784 87.8875 26.3936 87.5638 26.2894ZM6.6069 50.7599C6.6069 50.7518 6.60245 50.745 6.60224 50.7369C6.60911 48.0032 8.71371 45.7941 11.0337 44.3434L35.0163 58.1915C35.0043 58.1971 34.9912 58.2018 34.9791 58.2074C28.1204 61.4259 17.9141 61.1565 11.5347 57.4762C9.00379 56.0185 6.6069 53.6821 6.6069 50.7599ZM6.5713 61.0021L6.58995 55.5462C7.44569 56.6645 8.88796 57.955 10.6677 58.9798C17.0525 62.6649 27.2913 63.2643 34.8219 60.1572C35.188 60.0062 35.5541 59.8553 35.9045 59.6873C35.9165 59.6816 35.9306 59.6781 35.9426 59.6722L35.913 67.9771C28.956 71.7573 18.1257 71.5748 11.5169 67.7497C8.32749 65.9155 6.5713 63.5186 6.5713 61.0021ZM73.5388 46.138L37.6525 66.9908L37.6817 58.7279L73.5685 37.8758L73.5388 46.138ZM73.6499 34.2476C73.483 34.0691 65.5118 25.5415 66.0072 26.0715C65.9038 25.9605 65.7741 25.8791 65.63 25.8342L61.4438 24.5349L66.7132 21.3785L85.2058 27.3514L73.6499 34.2476Z" fill="black"/>
<path d="M32.0419 32.1123L34.2295 30.8409C34.6431 30.6002 34.7847 30.0687 34.5431 29.6543C34.3007 29.2389 33.7701 29.0999 33.3565 29.3407L31.1689 30.612C30.7553 30.8527 30.6137 31.3842 30.8553 31.7986C31.0957 32.2125 31.6264 32.3534 32.0419 32.1123Z" fill="black"/>
<path d="M31.2283 47.0153C33.811 48.5063 37.8407 48.5083 40.4009 47.0204L59.474 35.9365C62.3714 34.2516 62.2522 31.2666 59.4215 29.6322C56.8516 28.1481 52.8375 28.1489 50.2828 29.6339L31.2097 40.7177C28.3312 42.3932 28.3745 45.3672 31.2283 47.0153ZM32.0819 42.218L51.155 31.1341C53.1567 29.9728 56.5428 29.9737 58.5536 31.1358C60.2329 32.1041 60.3308 33.4294 58.601 34.4363L39.5279 45.5201C37.5233 46.6839 34.1194 46.6796 32.0963 45.5117C30.474 44.5757 30.3009 43.2551 32.0819 42.218Z" fill="black"/>
</svg>
