<svg width="93" height="92" viewBox="0 0 93 92" fill="none" xmlns="http://www.w3.org/2000/svg">
<path d="M88.0601 64.7999C87.9654 64.6201 82.9629 55.1272 83.0577 55.307C82.8046 54.4385 82.3012 53.7717 81.634 53.3549C81.3294 53.1299 82.3143 53.7515 79.2626 51.9549L79.2283 38.3206C79.2283 38.0112 79.0622 37.7256 78.7926 37.5713C77.705 36.9488 42.3799 16.4186 42.2059 16.3165C41.9397 16.1605 41.6058 16.1605 41.3363 16.3148L5.27332 37.1365C5.00196 37.2936 4.83936 37.5826 4.83936 37.8875L4.83978 37.8892L4.83936 37.8909L4.88173 52.9668C4.88343 53.2753 5.04617 53.5601 5.314 53.7144L10.8335 56.9216C11.2454 57.1598 11.7777 57.0233 12.0201 56.6072C12.2608 56.1936 12.1201 55.6621 11.7048 55.4214L6.61589 52.4642L6.58029 39.3989C16.8168 45.3479 31.1902 53.701 41.4225 59.6477C41.4231 59.8288 41.4657 72.8918 41.4651 72.7163L19.6568 60.0424C19.2449 59.8017 18.7109 59.9399 18.4702 60.356C18.2295 60.7705 18.3702 61.3019 18.7855 61.5426L41.9024 74.9768C42.1673 75.1327 42.5013 75.1345 42.7721 74.9785C42.776 74.9762 42.7776 74.9714 42.7815 74.9691L50.1704 70.6998C50.5132 70.9 57.9397 75.2383 57.6152 75.0501C57.9977 75.2893 58.4307 75.4448 58.9134 75.482C59.1189 75.5162 59.948 75.5191 70.4168 75.8007C70.4256 75.8007 70.4318 75.8007 70.4406 75.8007C70.7406 75.8007 71.0186 75.6464 71.1779 75.3913C71.3417 75.1285 71.3517 74.7998 71.2085 74.5293C71.1137 74.3495 66.1113 64.8566 66.206 65.0364C65.713 63.3451 64.4459 62.9044 64.1013 62.6652L67.0252 60.9786C67.1989 61.0799 74.9514 65.6041 74.4574 65.3158C74.8379 65.5559 75.2681 65.7119 75.7464 65.7483C75.9651 65.7894 76.0896 65.7685 87.2685 66.0713C87.2772 66.0713 87.2834 66.0713 87.2922 66.0713C87.9486 66.0713 88.3628 65.3715 88.0601 64.7999ZM83.8307 64.243C84.1239 63.6277 84.4867 63.0386 84.8952 62.508L85.8344 64.2964L83.8307 64.243ZM66.979 73.9724C67.2723 73.3579 67.6351 72.7689 68.0436 72.2383L68.9827 74.0258L66.979 73.9724ZM53.9195 70.8983C53.3906 70.5906 53.0871 69.8515 53.0871 68.8675C53.0804 66.4349 54.862 63.3471 56.9776 62.1249C57.6448 61.7411 58.5114 61.4422 59.183 61.8194L61.2816 63.0395C61.107 63.12 60.9324 63.2115 60.7578 63.3149C57.9359 64.9513 55.7495 68.9053 56.0231 72.1168C55.8491 72.016 53.7455 70.7975 53.9195 70.8983ZM43.1791 64.6445L43.165 59.652C43.339 59.5517 49.7408 55.8609 49.3357 56.0944L56.6779 60.363C56.489 60.4476 56.3025 60.5106 56.1113 60.6205C53.433 62.1682 51.3411 65.7924 51.3513 68.87C51.3513 69.0614 51.388 69.2311 51.405 69.4128L43.1791 64.6445ZM77.5247 50.9428C76.6274 50.4219 68.8143 45.8844 67.9161 45.3622L77.4958 39.8314L77.5247 50.9428ZM55.7915 52.4708C55.7699 52.4551 55.7567 52.4323 55.7333 52.4184C55.7272 52.4147 55.7233 52.4089 55.7172 52.4052L66.1828 46.3629L73.522 50.6367C73.3357 50.7205 73.1514 50.7825 72.963 50.8911C70.2863 52.4371 68.1962 56.0622 68.2029 59.1406C68.2029 59.336 68.2399 59.5091 68.2577 59.6942C68.0618 59.5807 54.9831 52.0024 55.7915 52.4708ZM69.9388 59.1381C69.932 56.7046 71.7153 53.6169 73.8292 52.3955C74.4822 52.0195 75.3672 51.7189 76.0277 52.0883C76.1744 52.1583 77.0979 52.7128 78.1353 53.3202C77.9612 53.4006 77.7836 53.4903 77.6077 53.5915C74.8565 55.1803 72.583 59.1837 72.8697 62.3665L70.7089 61.1145C70.2225 60.7845 69.9388 60.0788 69.9388 59.1381ZM41.7685 18.0693L76.6221 38.324C76.4476 38.4247 39.9107 59.5241 42.2954 58.1478C39.804 56.6999 5.33081 36.6661 7.43804 37.8909L41.7685 18.0693ZM43.2043 72.7206C43.2038 72.5423 43.1835 66.2842 43.1847 66.6569L48.4221 69.7049L43.2043 72.7206ZM59.1185 73.7597C58.0942 73.6796 57.7387 72.5927 57.7387 71.5594C57.7353 71.0207 57.8329 70.4481 57.991 69.8716C58.5488 67.8504 59.9795 65.7739 61.624 64.8245C63.0199 64.0177 64.1163 64.1874 64.6058 65.6839L67.1824 70.5948C66.3262 71.5486 65.6133 72.7063 65.1301 73.925C64.952 73.9201 58.746 73.7495 59.1185 73.7597ZM62.3733 61.6579C62.1979 61.5561 50.3211 54.6602 51.0692 55.0946L53.9703 53.4211L65.2754 59.9839L62.3733 61.6579ZM75.9719 64.0295C74.9682 63.9507 74.5922 62.8702 74.5852 61.8385C74.5782 59.321 76.4761 56.2453 78.4807 55.0976C79.8717 54.3005 80.9571 54.424 81.4574 55.9537L84.0341 60.865C83.1788 61.8187 82.465 62.9763 81.9819 64.1954C81.8037 64.1903 75.794 64.0178 75.9719 64.0295Z" fill="black"/>
<path d="M13.6984 38.6503L41.8669 55.0197C42.1318 55.1755 42.4658 55.1773 42.7366 55.0214L70.3661 39.0698C70.6339 38.9147 70.8 38.6291 70.8 38.3189C70.8 38.0095 70.6356 37.723 70.3678 37.5679L42.1992 21.1986C41.9331 21.0426 41.5991 21.0426 41.3296 21.1969L13.7001 37.1484C13.4322 37.3035 13.2661 37.5891 13.2661 37.8993C13.2661 38.2087 13.4305 38.4952 13.6984 38.6503ZM41.7618 22.9514L68.1996 38.3155L42.3043 53.2669L15.8665 37.9027L41.7618 22.9514Z" fill="black"/>
<path d="M16.0934 59.978C16.514 60.222 17.0429 60.0729 17.2801 59.6636C17.5208 59.2491 17.3801 58.7185 16.9648 58.4778L14.2949 56.9267C13.8813 56.6868 13.349 56.8242 13.1083 57.2412C12.8675 57.6556 13.0082 58.1862 13.4236 58.4269L16.0934 59.978Z" fill="black"/>
</svg>
