<svg width="93" height="92" viewBox="0 0 93 92" fill="none" xmlns="http://www.w3.org/2000/svg">
<path d="M71.1602 64.9609L71.0059 10.797C71.0046 10.5469 70.7473 10.1502 70.5737 10.0495L70.5716 10.0483C66.0277 7.4073 60.7291 4.32761 60.9519 4.45711C60.6875 4.30116 60.3535 4.30116 60.0823 4.45542L22.2733 26.2841C22.002 26.4412 21.8394 26.7302 21.8394 27.035L21.8398 27.0367L21.8394 27.0384L21.9936 81.2032C21.9953 81.5117 22.158 81.7965 22.4259 81.9507C22.6016 82.0528 32.2245 87.6447 32.0488 87.5426L32.051 87.5448C32.3188 87.699 32.6494 87.6982 32.9173 87.5439L41.8559 82.3839C42.2712 82.144 42.4136 81.6134 42.1729 81.1981C41.9338 80.7819 41.4016 80.6404 40.9879 80.8802L33.3478 85.2911L33.2004 33.1277C41.6758 28.2345 60.7269 17.2358 69.2752 12.3006L69.4226 64.4634L47.3652 77.1983C46.9498 77.4382 46.8074 77.9688 47.0482 78.3841C47.2872 78.8011 47.8178 78.9393 48.2331 78.702L70.7262 65.7153C70.9958 65.5593 71.1619 65.272 71.1602 64.9609ZM60.5145 6.20992L68.4067 10.7967L32.3319 31.6244L24.4397 27.0384L60.5145 6.20992ZM23.7278 80.7006L23.5803 28.5464C23.7656 28.654 31.9614 33.4162 31.4642 33.1272C31.4986 45.4254 31.5749 72.6541 31.6103 85.2817L23.7278 80.7006Z" fill="black"/>
<path d="M44.2425 81.0057L45.9597 80.0148C46.375 79.775 46.5174 79.2444 46.2767 78.8291C46.0376 78.4138 45.507 78.2714 45.0917 78.5112L43.3745 79.5021C42.9592 79.7419 42.8168 80.2725 43.0575 80.6878C43.2949 81.1019 43.8251 81.2453 44.2425 81.0057Z" fill="black"/>
<path d="M66.8629 52.2947L66.7663 18.1625C66.7646 17.8532 66.6002 17.5675 66.3306 17.4124C66.0628 17.2582 65.7322 17.259 65.4644 17.4133L36.1635 34.3319C35.8939 34.4878 35.7278 34.7752 35.7295 35.0862L35.8261 69.2175C35.8278 69.5269 35.9923 69.8125 36.2618 69.9676C36.5295 70.1218 36.8602 70.121 37.128 69.9668L66.4289 53.049C66.6985 52.8931 66.8646 52.6057 66.8629 52.2947ZM65.0355 19.6661L65.1254 51.7971L64.6324 52.0817L58.9126 45.6318C58.7159 45.4106 58.4091 45.3004 58.1277 45.3504C57.8345 45.3971 57.5853 45.5895 57.4666 45.8615L54.3139 53.1121L48.1856 46.2073C47.9889 45.9853 47.6855 45.8785 47.4007 45.9268C47.1075 45.9734 46.8583 46.1658 46.7413 46.437L37.5565 67.545L37.467 35.5837L65.0355 19.6661ZM55.3629 55.0519C55.3628 55.052 55.363 55.0518 55.3629 55.0519L58.5159 47.8008L63.0979 52.9668C62.7089 53.1914 53.5907 58.4541 53.9813 58.2286L55.3629 55.0519ZM51.4539 59.6881L39.9861 66.3095L47.7889 48.3763L53.5506 54.8677C53.4651 55.0643 51.3176 60.0014 51.4539 59.6881Z" fill="black"/>
<path d="M54.2035 45.3428C55.863 44.3842 57.1598 42.1347 57.1531 40.2225C57.1495 37.947 55.2931 36.8697 53.3203 38.0095C51.6522 38.9732 50.3487 41.2312 50.3521 43.1509C50.3592 45.4141 52.2104 46.4943 54.2035 45.3428ZM54.1882 39.5131C54.9554 39.0693 55.4135 39.2417 55.4172 40.2268C55.4206 41.5312 54.4679 43.1857 53.3355 43.8392C52.5285 44.3091 52.0916 44.0919 52.0879 43.1467C52.0845 41.8363 53.0474 40.1717 54.1882 39.5131Z" fill="black"/>
<path d="M40.1249 41.8601C40.369 42.2652 40.9488 42.3601 41.359 42.1245C42.0506 41.7236 42.5253 42.1805 42.5778 42.233C43.0067 42.6619 43.7286 42.5283 43.9797 41.983C44.5306 40.7879 45.1477 39.9471 45.7156 39.6165C45.7393 39.6038 45.8614 39.5174 45.8834 39.5021C46.2614 39.2334 46.3106 38.7503 46.0597 38.3604C45.8088 37.9714 45.246 37.8858 44.8443 38.1163C44.1204 38.5359 43.4491 39.3004 42.8389 40.3929C42.1506 40.1403 41.3047 40.1505 40.4589 40.6404L40.3453 40.7124C39.9452 40.9659 39.8791 41.4558 40.1249 41.8601Z" fill="black"/>
<path d="M58.6076 43.3425C58.8517 43.7468 59.423 43.8485 59.8332 43.6129C60.3164 43.3332 60.6469 43.6451 60.6825 43.6824C61.1096 44.1073 61.8313 43.9812 62.0844 43.4298C62.5319 42.4576 63.0252 41.7779 63.4761 41.5151C63.4982 41.5032 63.6033 41.4304 63.6236 41.4168C64.0033 41.1498 64.0644 40.6599 63.8135 40.2683C63.5643 39.8759 63.0083 39.781 62.6048 40.0149C61.9997 40.3658 61.4402 40.9879 60.9351 41.8703C60.3435 41.6897 59.6383 41.7194 58.9331 42.1288L58.8382 42.1889C58.4381 42.4424 58.3635 42.9382 58.6076 43.3425Z" fill="black"/>
<path d="M53.4153 33.8852C54.0577 33.5148 54.6341 33.7292 54.9308 34.0259C55.3575 34.4526 56.08 34.3236 56.3327 33.775C56.9633 32.4028 57.6769 31.4348 58.3397 31.0492C58.3635 31.0356 58.5008 30.939 58.5228 30.9229C58.8991 30.6533 58.9415 30.1762 58.6889 29.7871C58.4398 29.3989 57.8702 29.315 57.4684 29.5489C56.648 30.0244 55.8868 30.9034 55.1969 32.1671C54.4358 31.8569 53.4746 31.8417 52.5202 32.3985L52.3914 32.479C51.9896 32.7299 51.9269 33.2164 52.171 33.6224C52.4134 34.025 53 34.1233 53.4153 33.8852Z" fill="black"/>
</svg>
