<svg width="93" height="92" viewBox="0 0 93 92" fill="none" xmlns="http://www.w3.org/2000/svg">
<path d="M87.7589 51.7317C87.7481 51.7245 87.7345 51.7256 87.7235 51.7189C87.7169 51.7149 87.7147 51.7068 87.708 51.7029L59.4209 35.2647C61.2636 29.4052 62.6503 24.0768 62.6424 21.3205C62.6307 17.295 61.2197 14.2629 58.6725 12.7684C58.6661 12.7644 58.6628 12.7578 58.6563 12.754L58.6263 12.7365L51.9993 8.8822C47.1735 6.0954 41.2993 9.77258 37.3955 13.8295C32.7719 18.7921 29.7978 25.7559 29.8181 31.5677C29.8233 34.3846 31.2464 38.1477 33.1558 41.9416L23.1562 50.0851L5.37891 57.3656C5.04271 57.5039 4.8825 57.8186 4.83984 58.1717L4.8568 63.97C4.85764 64.2785 5.02207 64.5633 5.28821 64.7175L9.6075 67.2281C10.022 67.468 10.5525 67.3298 10.7941 66.9145C11.0357 66.5 10.895 65.9686 10.4805 65.7279L6.59095 63.4674L6.57993 59.6797C10.4848 61.9489 34.964 76.1741 37.9776 77.9253L37.9886 81.7132L18.1867 70.2065C17.7756 69.9658 17.2417 70.1048 17.001 70.5209C16.7594 70.9346 16.9009 71.466 17.3154 71.7067L38.4253 83.9738C38.6669 84.1151 38.9525 84.1251 39.1898 84.0263L57.0569 76.7007C57.0676 76.6963 57.072 76.6845 57.0825 76.6797C57.1495 76.6494 57.2169 76.6194 57.2755 76.5718L69.8751 66.3315L87.6224 59.054C87.9487 58.9201 88.1615 58.6022 88.1606 58.2488L88.1445 52.4505C88.1437 52.1615 87.9996 51.8919 87.7589 51.7317ZM57.581 70.5135L68.5458 61.6004L68.5501 62.9697L68.5565 65.1662L57.5908 74.0782L57.581 70.5135ZM58.8834 36.9592L85.3136 52.3183L69.4766 58.8133L54.3365 50.0227C55.8885 45.7991 57.4955 41.239 58.8834 36.9592ZM60.9066 21.3256C60.9223 26.9482 54.3941 44.8237 52.4527 50.1042C52.4526 50.1046 52.4528 50.1037 52.4527 50.1042C51.1711 53.5851 50.0596 56.468 49.4108 58.1337C45.8031 53.033 39.2683 42.9581 38.3234 36.8007C37.7257 32.8753 39.4479 27.773 41.4713 24.1718C43.6089 20.3711 46.6118 17.0304 49.9448 15.106C52.3441 13.7203 55.3802 12.8761 57.772 14.2493C59.7833 15.4156 60.8973 17.9265 60.9066 21.3256ZM38.6558 15.0229C41.8497 11.7031 47.1484 8.08805 51.1289 10.3841L53.7318 11.8979C52.4323 12.0813 50.7573 12.6334 49.0794 13.5981C41.2279 18.1285 35.6313 29.5694 36.5729 36.7541C37.3745 42.8439 43.1861 52.1336 46.6497 57.2049L43.5827 55.422C43.5441 55.3692 43.4895 55.2943 43.4323 55.2157C41.0763 51.9453 31.5665 38.3289 31.554 31.5627C31.5353 26.167 34.3264 19.6702 38.6558 15.0229ZM42.2801 56.585C42.283 56.589 42.2879 56.5908 42.2909 56.5947C42.2913 56.5954 42.2932 56.598 42.2937 56.5986C42.3211 56.636 42.3632 56.6582 42.3962 56.6904C42.4455 56.7377 42.4878 56.793 42.5471 56.8274L42.5529 56.8308C42.3392 56.7069 45.6117 58.601 49.2726 60.721C49.8026 60.9697 50.3153 60.5922 50.4474 60.2593C50.8294 59.2908 52.12 55.9968 53.7253 51.6756L67.8865 59.8979L56.6294 69.048L25.112 50.7314L33.9679 43.5195C35.8768 47.0834 38.6876 51.6323 42.2801 56.585ZM23.5094 51.8166L54.7405 69.9697L38.9101 76.46L7.66738 58.3039L23.5094 51.8166ZM39.7255 81.9311C39.725 81.7529 39.7129 77.7553 39.7136 78.0068L55.8474 71.3923L55.8584 75.3166L39.7255 81.9311ZM70.2902 64.2853L70.2786 60.4822L70.2783 60.361L86.412 53.7456L86.4231 57.6699L70.2902 64.2853Z" fill="black"/>
<path d="M15.6279 68.719L12.9292 67.151C12.5181 66.9102 11.9841 67.0501 11.7434 67.4654C11.5019 67.8799 11.6434 68.4105 12.0579 68.6512L14.7566 70.2192C15.1659 70.4582 15.6998 70.3235 15.9424 69.9048C16.1839 69.4903 16.0424 68.9597 15.6279 68.719Z" fill="black"/>
<path d="M49.0979 20.6492C45.6695 22.6291 42.9919 27.2722 43.003 31.2194C43.0152 35.4633 46.2487 37.3818 50.0031 35.2157C53.4367 33.2332 56.1176 28.5927 56.1066 24.6506C56.0943 20.3706 52.8242 18.4956 49.0979 20.6492ZM49.1352 33.7121C46.5743 35.189 44.7476 34.1474 44.7388 31.2143C44.7295 27.8875 47.0739 23.8225 49.9659 22.1528C52.5081 20.6867 54.3619 21.6931 54.3707 24.6557C54.3801 27.9206 51.9823 32.0687 49.1352 33.7121Z" fill="black"/>
</svg>
