<svg width="93" height="92" viewBox="0 0 93 92" fill="none" xmlns="http://www.w3.org/2000/svg">
<path d="M43.9404 20.8684C44.3557 20.6286 44.4981 20.098 44.2582 19.6827C44.0175 19.2665 43.4844 19.1241 43.0725 19.3648L16.2787 34.8341C16.0074 34.9911 15.8455 35.2802 15.8447 35.585C15.8442 35.7775 15.971 80.2802 15.9719 80.4704C15.9727 80.779 16.1371 81.0638 16.4033 81.218L24.3069 85.811C24.3166 85.8171 24.3207 85.829 24.3307 85.8348C24.5947 85.9868 24.9261 85.9904 25.1978 85.8339L49.6083 71.7408L49.6279 78.4874C47.9185 79.698 46.6302 82.046 46.6357 84.0752C46.6429 86.6091 48.7058 87.7824 50.9152 86.5069C52.8171 85.4085 54.3012 82.8369 54.2945 80.651C54.2911 79.4237 53.8291 78.482 52.9934 78.0014C52.5172 77.7267 51.9533 77.6572 51.3616 77.7459L51.3413 70.7402L76.7156 56.0906L76.7215 56.0846C76.991 55.9287 77.1563 55.6414 77.1555 55.3303L77.0283 10.4483C77.0281 10.3827 76.9929 10.3271 76.9785 10.2645C76.959 10.1801 76.9544 10.0908 76.9114 10.0166C76.872 9.9485 76.8019 9.90507 76.7452 9.84966C76.6946 9.80028 76.6595 9.73703 76.5969 9.70069L76.5949 9.69953L76.5935 9.69815L76.5917 9.69762L68.6669 5.09154C68.3965 4.93389 68.0651 4.93558 67.7965 5.08984L55.9778 11.9137C55.5624 12.1536 55.4201 12.6842 55.6599 13.0995C55.8998 13.5157 56.4295 13.6564 56.8457 13.4173L68.2287 6.84434L74.4287 10.4483L24.6439 39.1912L18.4443 35.5884L43.9404 20.8684ZM52.128 79.5059C52.4001 79.6627 52.5569 80.0814 52.5586 80.6561C52.5637 82.2241 51.4135 84.2151 50.0472 85.0033C49.0009 85.6106 48.3751 85.2664 48.3716 84.0701C48.3652 81.7417 51.2569 79.007 52.128 79.5059ZM25.6335 83.5751L25.622 79.54L75.401 50.8008L75.412 54.8362L25.6335 83.5751ZM25.6164 77.5388L25.5293 46.7334L75.3138 17.9908L75.4009 48.7961L25.6164 77.5388ZM75.2967 11.9519L75.3077 15.9898L25.5237 44.7319L25.5123 40.6945C37.3745 33.8459 63.5526 18.7322 75.2967 11.9519ZM17.5848 37.0965L23.7761 40.6943C23.7752 40.3589 23.7879 44.7728 23.8917 83.5623L17.706 79.9678L17.5848 37.0965Z" fill="black"/>
<path d="M47.7383 18.6749L52.7738 15.7677C53.1891 15.5278 53.3315 14.9972 53.0916 14.5819C52.8509 14.1657 52.3187 14.0242 51.9059 14.2641L46.8704 17.1713C46.4551 17.4111 46.3127 17.9417 46.5525 18.357C46.7136 18.6359 47.0052 18.791 47.3052 18.791C47.4527 18.791 47.6019 18.7537 47.7383 18.6749Z" fill="black"/>
<path d="M41.2832 44.4456L42.4489 45.1981L41.4773 46.9901C41.2484 47.4113 41.4052 47.9385 41.8265 48.1665C42.2469 48.3944 42.7744 48.2397 43.0029 47.8173L43.9113 46.142L44.7879 46.7078C45.1853 46.9658 45.7249 46.8562 45.9872 46.4493C46.2474 46.0467 46.1313 45.5094 45.7287 45.25L44.7408 44.6123L45.827 42.6089C46.0559 42.1877 45.8991 41.6605 45.4778 41.4325C45.0557 41.2036 44.5294 41.3596 44.3014 41.7817L43.2784 43.6684L42.224 42.9878C41.8231 42.7276 41.2849 42.8429 41.0246 43.2463C40.7644 43.6489 40.8806 44.1863 41.2832 44.4456Z" fill="black"/>
<path d="M62.356 50.4092L61.3682 49.7717L62.4544 47.7682C62.6832 47.3469 62.5264 46.8197 62.1052 46.5917C61.6839 46.3637 61.1567 46.5188 60.9287 46.9409L59.9057 48.828L58.8504 48.147C58.4504 47.8877 57.9096 48.0021 57.6511 48.4055C57.3909 48.8081 57.507 49.3455 57.9096 49.6049L59.0763 50.3577L58.1046 52.1502C57.8757 52.5714 58.0325 53.0986 58.4538 53.3266C58.8742 53.5544 59.4017 53.3998 59.6302 52.9774L60.5388 51.3015L61.4152 51.8671C61.8133 52.1255 62.3542 52.0144 62.6146 51.6086C62.8748 51.206 62.7586 50.6686 62.356 50.4092Z" fill="black"/>
<path d="M68.9923 37.921L68.0042 37.2834L69.0906 35.2799C69.3194 34.8586 69.1626 34.3314 68.7414 34.1034C68.3201 33.8746 67.7929 34.0306 67.5649 34.4527L66.5418 36.3396L65.4867 35.6588C65.0858 35.3969 64.5459 35.5138 64.2873 35.9173C64.0271 36.3199 64.1433 36.8572 64.5459 37.1166L65.7123 37.8694L64.7408 39.661C64.5119 40.0823 64.6688 40.6095 65.09 40.8375C65.5104 41.0653 66.038 40.9107 66.2664 40.4883L67.1748 38.813L68.0515 39.3788C68.4496 39.6372 68.9904 39.5262 69.2508 39.1203C69.511 38.7177 69.3949 38.1803 68.9923 37.921Z" fill="black"/>
<path d="M36.3844 55.6176L35.3967 54.9802L36.4827 52.9774C36.7115 52.5562 36.5547 52.029 36.1335 51.801C35.7114 51.573 35.1859 51.7289 34.957 52.1502L33.9342 54.0365L32.8788 53.3554C32.477 53.0944 31.9379 53.2113 31.6794 53.6139C31.4192 54.0165 31.5353 54.5539 31.9379 54.8133L33.1047 55.5662L32.1329 57.3586C31.904 57.7798 32.0608 58.307 32.4821 58.535C32.9025 58.7628 33.4301 58.6082 33.6585 58.1858L34.5672 56.5099L35.4435 57.0755C35.8417 57.3339 36.3825 57.2228 36.6429 56.817C36.9031 56.4144 36.787 55.877 36.3844 55.6176Z" fill="black"/>
<path d="M56.7776 33.8814C54.785 35.0315 53.2288 37.7209 53.2347 40.0043C53.2381 41.2511 53.7297 42.2479 54.5832 42.7386C54.8873 42.9137 55.2301 42.9982 55.5876 43.0307C55.022 44.4554 53.9874 45.8847 52.7626 46.8375C51.1671 48.0774 49.2612 49.1084 47.5915 50.4067C46.0478 51.5972 43.6137 54.6346 43.6137 54.6346C43.0881 54.6718 42.5321 54.8499 41.9814 55.1667C39.9887 56.3169 38.4326 59.0063 38.4385 61.2896C38.4456 63.8982 40.5581 65.1378 42.8697 63.807C44.8555 62.6593 46.4049 59.9733 46.3981 57.6908C46.3953 56.6 46.0262 55.7484 45.3824 55.2086C46.3228 53.9247 47.3928 52.751 48.6536 51.7789C50.2936 50.5063 52.1399 49.522 53.8289 48.2072C55.621 46.814 57.0431 44.6402 57.5622 42.5666C57.5968 42.5478 57.6313 42.5416 57.6659 42.5216C59.6518 41.3748 61.2012 38.6889 61.1944 36.4063C61.1872 33.7072 59.0234 32.5849 56.7776 33.8814ZM42.0017 62.3033C40.9012 62.9395 40.178 62.6075 40.1743 61.2846C40.1701 59.6224 41.3949 57.5094 42.8493 56.6703C43.9327 56.0435 44.6586 56.3404 44.6623 57.6959C44.6674 59.3572 43.4486 61.4676 42.0017 62.3033ZM56.798 41.018C56.2504 41.3342 55.7588 41.4113 55.4486 41.2341C55.1469 41.0604 54.9723 40.6103 54.9706 39.9992C54.9664 38.3371 56.1911 36.2241 57.6456 35.385C58.0015 35.179 58.333 35.0739 58.6042 35.0739C58.75 35.0739 58.8779 35.1036 58.9839 35.1655C59.2839 35.3375 59.4568 35.7918 59.4585 36.4114C59.4636 38.0735 58.2448 40.1823 56.798 41.018Z" fill="black"/>
</svg>
