<svg width="93" height="92" viewBox="0 0 93 92" fill="none" xmlns="http://www.w3.org/2000/svg">
<path d="M13.9893 65.0754C13.991 65.5543 14.3792 65.9408 14.8573 65.9408C15.337 65.9391 15.7269 65.55 15.7252 65.0703L15.6506 38.9378C16.0294 39.158 21.6262 42.4109 21.4206 42.2914C21.4495 52.4491 21.5137 74.9766 21.543 85.2817L15.7727 81.9278L15.7557 76.2448C15.754 75.7659 15.3658 75.3794 14.8878 75.3794C14.8878 75.3794 14.8861 75.3794 14.8844 75.3794C14.4064 75.3811 14.0182 75.771 14.0199 76.2499L14.0385 82.4305C14.0402 82.739 14.2046 83.0238 14.4708 83.178C14.6465 83.2802 22.1572 87.6447 21.9815 87.5426C21.9825 87.5431 21.9828 87.5443 21.9837 87.5448C22.2515 87.699 22.5821 87.6982 22.85 87.5439L78.6565 55.3239C78.926 55.168 79.0922 54.8806 79.0905 54.5696L78.9633 9.56888C78.9626 9.43318 78.7884 8.9706 78.5311 8.82132L78.529 8.82015C78.5285 8.81983 78.5283 8.81909 78.5277 8.81877C78.5271 8.81846 78.5264 8.81856 78.5259 8.81824L71.0215 4.45711C70.7553 4.30116 70.4214 4.30116 70.1519 4.45542L14.3436 36.6754C14.0723 36.8325 13.9097 37.1216 13.9097 37.4264C13.9097 37.427 13.9101 37.4274 13.9101 37.4281C13.9101 37.4287 13.9097 37.4291 13.9097 37.4298L13.9893 65.0754ZM23.2796 85.2906C23.2683 81.339 23.1732 48.0237 23.1568 42.2917L77.2309 11.0729L77.3529 54.0721L23.2796 85.2906ZM70.5841 6.20992L76.3641 9.56857L22.2883 40.7884L16.5199 37.4364L16.5084 37.4298L70.5841 6.20992Z" fill="black"/>
<path d="M14.8793 73.2096C15.359 73.2079 15.7472 72.8189 15.7455 72.3392L15.7354 68.8675C15.7337 68.3886 15.3455 68.0021 14.8674 68.0021C14.3877 68.0038 13.9978 68.3928 13.9995 68.8725L14.0097 72.3442C14.0114 72.8231 14.4013 73.2096 14.8793 73.2096Z" fill="black"/>
<path d="M74.5407 17.2404C74.539 16.9301 74.3745 16.6445 74.105 16.4902C73.8355 16.3351 73.5049 16.3368 73.2388 16.4919C8.86907 53.6284 31.0703 40.82 26.2675 43.5908C25.9979 43.746 25.8335 44.0341 25.8335 44.3452C25.8351 44.8094 25.9556 78.6522 25.9572 79.1164C25.9589 79.4258 26.1234 79.7114 26.3929 79.8665C26.6607 80.0207 26.9913 80.0199 27.2591 79.8657L74.2135 52.7659C74.483 52.61 74.6492 52.3226 74.6475 52.0116L74.5407 17.2404ZM67.7956 48.7441L27.6738 71.9094L27.6066 44.8427L67.7142 21.6875L67.7956 48.7441ZM27.688 77.6137L27.6788 73.9109L69.0992 49.996C69.3687 49.8401 69.5349 49.5527 69.5332 49.2417L69.4466 20.6874L72.8099 18.7457L72.9099 51.514L27.688 77.6137Z" fill="black"/>
<path d="M39.1966 55.663C39.9814 55.2171 40.7205 54.4518 41.2765 53.5084C43.5051 49.7336 41.2027 46.6405 38.3202 48.3356C37.52 48.795 36.7826 49.5612 36.2453 50.4859C34.0425 54.1918 36.2698 57.3554 39.1966 55.663ZM37.7421 51.3649C38.132 50.6919 38.6456 50.1511 39.1915 49.8367C40.8078 48.893 40.6769 51.1108 39.7814 52.6252C39.383 53.3016 38.8575 53.8593 38.3337 54.1568C36.6888 55.1039 36.8598 52.85 37.7421 51.3649Z" fill="black"/>
<path d="M31.4612 57.7667L32.0766 57.681C32.1732 57.9887 32.2817 58.2532 32.3902 58.449L31.7189 60.1094C31.4545 60.7018 31.5952 61.3443 32.0461 61.6587L32.9326 62.3029C33.3069 62.5168 33.7266 62.4789 34.104 62.2707C34.204 62.2114 34.3498 62.1131 34.4549 61.9791L35.5957 60.7188C35.828 60.7425 36.0653 60.7476 36.2992 60.7323L36.5027 61.6037C36.5976 61.913 36.8163 62.1639 37.1027 62.291C37.3994 62.4216 37.7435 62.4148 38.0893 62.2538L39.3421 61.6198C39.615 61.4655 39.9777 61.1341 40.1659 60.4331L40.6033 58.8134C41.0203 58.4803 41.4424 58.0743 41.9628 57.5073L43.1257 57.6607C43.4647 57.7056 43.7953 57.5497 43.9749 57.2606L45.3209 55.1112C45.4836 54.851 45.4972 54.523 45.3548 54.2492L44.7496 53.0973C44.9581 52.565 45.2107 51.8827 45.3735 51.1996L46.7262 50.046C47.0669 49.7595 47.3043 49.2925 47.3297 48.8467L47.4009 47.4126C47.4297 46.9227 47.1992 46.6294 47.0585 46.4989C46.8839 46.3362 46.5855 46.1522 46.0668 46.2183L46.0583 46.2192L45.4853 46.3014C45.387 46.0056 45.2582 45.7488 45.1327 45.5123L45.8379 43.8078C46.0854 43.0297 45.7786 42.5153 45.4718 42.3356L44.7107 41.7872C44.3513 41.4804 43.8427 41.4558 43.4308 41.7151C43.2782 41.8058 43.1426 41.9228 43.0596 42.027L41.934 43.2789C41.6966 43.256 41.461 43.2518 41.2203 43.2688L41.0304 42.489C40.9609 42.1457 40.749 41.8652 40.4473 41.7185C40.1354 41.566 39.7659 41.577 39.4353 41.744L38.1538 42.3907C37.7639 42.6136 37.4909 43.0162 37.3469 43.5739L36.9095 45.1919C36.4332 45.5852 35.9636 46.0378 35.5551 46.4921L34.6905 46.3929C34.4515 46.3455 34.2006 46.3828 33.8599 46.5548C33.609 46.7108 33.4378 46.9193 33.3242 47.0897L32.4071 48.5543C32.1122 49.0399 32.0834 49.5756 32.3292 50.0731L32.7648 50.9156C32.4885 51.5776 32.28 52.2141 32.1393 52.8083L30.8103 53.939C30.4492 54.2288 30.2085 54.6908 30.1797 55.1586L30.1221 56.5724C30.0754 57.3682 30.7083 57.8934 31.4612 57.7667ZM35.6805 60.6247L35.6822 60.623C35.689 60.6196 35.6975 60.6137 35.711 60.6061C35.7008 60.6128 35.6907 60.6188 35.6805 60.6247ZM31.9172 55.2765L33.253 54.1398C33.487 53.9474 33.6717 53.6644 33.8311 53.2058C33.9548 52.6727 34.1498 52.0921 34.4074 51.4852C34.5973 51.0453 34.5837 50.5978 34.4074 50.3206L33.9294 49.3883L34.6634 48.1339L35.4618 48.2271C35.7958 48.2864 36.1111 48.2288 36.2603 48.1203C36.4874 48.0296 36.6315 47.8838 36.7315 47.7821C37.1468 47.3117 37.5774 46.8913 38.0402 46.5091C38.3131 46.265 38.5114 45.9361 38.5691 45.6564L39.0234 44.024C39.0437 43.9409 39.0641 43.89 39.0539 43.8799L39.5251 43.6417L39.6557 44.1748C39.7675 44.7732 40.3354 45.1902 40.9372 45.0572C41.283 44.9851 41.6051 44.9775 41.9001 45.0233C42.0848 45.0605 42.3815 45.0665 42.6697 44.9012C42.8443 44.8139 42.9629 44.6952 43.0765 44.5808L44.0851 43.4722L44.097 43.4806L43.4664 45.0004C43.2884 45.4733 43.3308 45.9386 43.5427 46.2209C43.7122 46.5379 43.858 46.8116 43.8987 47.0685C43.9258 47.3956 44.0885 47.6965 44.3462 47.8932C44.531 48.0356 44.9175 48.1356 45.1446 48.1034L45.6362 48.033L45.6057 48.7213L44.2292 49.8943C44.1004 50.0104 43.7885 50.3317 43.6952 50.7716C43.541 51.4022 43.2986 52.0455 43.1155 52.5116C42.9528 52.8897 42.9375 53.2821 43.107 53.694L43.5851 54.612L42.8002 55.8672L41.9526 55.7553C41.6526 55.7045 41.3678 55.7681 41.2084 55.8825C41.044 55.9647 40.9287 56.0757 40.788 56.2181C40.2812 56.7784 39.8896 57.1606 39.5506 57.4336C39.2607 57.6438 39.0386 57.9769 38.9403 58.3422L38.4894 59.9788C38.4674 60.0653 38.4436 60.1161 38.4572 60.1238L37.9927 60.3577L37.8435 59.7178C37.6893 59.2033 37.1892 58.8778 36.5976 58.9482C36.2382 59.0134 35.9026 59.0228 35.5856 58.9668C35.2991 58.9219 35.0024 58.9923 34.8414 59.1075C34.6634 59.1974 34.5125 59.316 34.4329 59.4194L33.4463 60.534L33.4259 60.5188L34.0447 58.9855C34.1905 58.6015 34.1955 58.2379 34.004 57.7878C33.848 57.5268 33.7192 57.1725 33.626 56.7758C33.5209 56.2037 33.0411 55.8189 32.4173 55.8825L31.8867 55.9562L31.9172 55.2765Z" fill="black"/>
<path d="M50.1149 53.7322C50.264 53.7322 50.4149 53.6932 50.5488 53.6161C75.0734 39.4555 42.9322 58.0136 64.8136 45.3801C65.0832 45.2241 65.2493 44.9368 65.2476 44.6258L65.2052 29.7854C65.2035 29.4761 65.0391 29.1904 64.7696 29.0353C64.5017 28.8811 64.1712 28.8819 63.9033 29.0362L59.145 31.784C58.8755 31.94 58.7111 32.2273 58.7111 32.5384L58.7192 35.5319L54.4019 38.0248C54.1324 38.1807 53.9663 38.4681 53.968 38.7791L53.9815 43.5609L49.664 46.0539C49.3944 46.2099 49.2283 46.4972 49.23 46.8083L49.2469 52.8668C49.2496 53.3472 49.6382 53.7322 50.1149 53.7322ZM63.4745 31.289L63.5101 44.1282L60.4842 45.8751L60.4486 33.0359L63.4745 31.289ZM58.7246 37.534L58.75 46.8761L55.7314 48.6192C55.7309 48.441 55.7039 38.6733 55.7055 39.2767L58.7246 37.534ZM53.9866 45.5632L53.9985 49.6206L50.9794 51.3632L50.9675 47.3058L53.9866 45.5632Z" fill="black"/>
</svg>
