<svg width="93" height="92" viewBox="0 0 93 92" fill="none" xmlns="http://www.w3.org/2000/svg">
<path d="M51.9653 27.9312C53.8766 26.8285 55.3683 24.2434 55.3624 22.0456C55.3552 19.4385 53.2587 18.3381 51.0787 19.597C49.164 20.7014 47.6689 23.2882 47.6748 25.486C47.6838 28.0896 49.7746 29.1958 51.9653 27.9312ZM51.9466 21.1006C52.2789 20.9082 52.5942 20.809 52.8493 20.809C52.9807 20.809 53.0968 20.8353 53.19 20.8895C53.4664 21.048 53.6249 21.471 53.6265 22.0507C53.6308 23.6298 52.473 25.6343 51.0974 26.4276C50.5897 26.7192 50.1201 26.7963 49.8472 26.6412C49.5717 26.4827 49.4124 26.0598 49.4107 25.4809C49.4064 23.9018 50.5676 21.8956 51.9466 21.1006Z" fill="black"/>
<path d="M51.9956 37.4346L53.3698 37.7725C53.4393 37.7903 53.5088 37.7979 53.5774 37.7979C53.9673 37.7979 54.3225 37.5335 54.4191 37.1368C54.5335 36.6715 54.2496 36.2019 53.7834 36.0875L52.4139 35.7508C52.5407 34.6539 52.3837 33.6218 51.9365 32.8853C51.5975 32.3251 51.1169 31.9572 50.5549 31.825C49.7591 31.6275 48.8776 31.9411 48.1512 32.687C47.5342 33.321 47.0527 34.2271 46.7959 35.2374C46.6137 35.9578 46.2772 36.6088 45.8729 37.0241C45.5957 37.3089 45.3093 37.4657 45.1092 37.4089C44.9863 37.3801 44.8863 37.2512 44.8236 37.1478C44.5803 36.7469 44.3981 35.8739 44.6854 34.7398C44.8694 34.0245 45.2067 33.3769 45.6101 32.9625C45.8839 32.6828 46.178 32.526 46.3543 32.5734C46.8171 32.6836 47.2901 32.4056 47.4062 31.9403C47.5214 31.475 47.2384 31.0045 46.773 30.8884C45.9738 30.6918 45.0957 31.0045 44.3676 31.7504C43.9358 32.1935 43.5748 32.7757 43.3036 33.4303L41.5884 32.8624C41.1332 32.7124 40.6416 32.9582 40.4916 33.4134C40.3407 33.8685 40.5874 34.3593 41.0425 34.5101L42.8666 35.1142C42.7274 36.2339 42.8815 37.2934 43.3395 38.048C43.676 38.6031 44.1498 38.9659 44.7015 39.0964C45.511 39.2981 46.3899 38.9828 47.1172 38.2344C47.7367 37.5979 48.2199 36.685 48.4784 35.6646C48.6589 34.9551 48.9929 34.311 49.3955 33.8973C49.6684 33.6176 49.9625 33.4693 50.1473 33.5117C50.282 33.5439 50.388 33.6778 50.4524 33.7855C50.6931 34.1821 50.8728 35.0501 50.5846 36.1875C50.4024 36.902 50.065 37.5521 49.6591 37.97C49.3793 38.2565 49.092 38.4073 48.9056 38.3607C48.4377 38.2463 47.969 38.5294 47.8545 38.9947C47.7393 39.46 48.0232 39.9304 48.4885 40.0457C48.647 40.0847 48.8081 40.1042 48.97 40.1042C49.6328 40.1042 50.3159 39.783 50.9025 39.1812C51.3507 38.7201 51.7236 38.1149 51.9956 37.4346Z" fill="black"/>
<path d="M16.3577 62.894C16.8374 62.8923 17.2248 62.5033 17.2231 62.0236L17.2129 58.5171C17.2112 58.0382 16.823 57.6517 16.345 57.6517H16.3424C15.8627 57.6534 15.4754 58.0425 15.4771 58.5222L15.4872 62.0286C15.4889 62.5075 15.8771 62.894 16.3552 62.894H16.3577Z" fill="black"/>
<path d="M77.1894 56.2266C77.2035 56.2167 77.2234 56.2209 77.237 56.21C77.3209 56.1432 77.3793 56.0549 77.4325 55.9648C77.4642 55.9122 77.4823 55.8613 77.5022 55.8031C77.5322 55.714 77.5645 55.6249 77.5642 55.5286L77.4599 16.038C77.4599 16.0177 77.4434 16.003 77.4419 15.9831C77.4309 15.8237 77.3889 15.6688 77.2952 15.5373C77.2924 15.5335 77.2921 15.5288 77.2893 15.525C77.2212 15.4326 77.1347 15.3519 77.0294 15.2904L73.4576 13.209L75.8105 6.75611C76.0134 6.19835 75.6116 5.6129 75.0274 5.59153L41.6996 4.34219C41.3368 4.31846 40.9817 4.55833 40.852 4.91177L38.4564 11.473L15.6017 43.2208C15.5412 43.305 15.4352 43.6443 15.4355 43.7344L15.4661 54.7081C15.4678 55.1861 15.8559 55.5735 16.334 55.5735C16.3348 55.5735 16.3357 55.5735 16.3365 55.5735C16.8154 55.5718 17.2036 55.1827 17.2019 54.703L17.1756 45.2423L21.5785 47.8009L21.6848 85.2812L17.2816 82.7224L17.235 66.1454C17.2333 65.6673 16.8451 65.28 16.367 65.28C16.3662 65.28 16.3653 65.28 16.3645 65.28C15.8856 65.2817 15.4974 65.6707 15.4991 66.1505L15.5474 83.225C15.5483 83.5335 15.7127 83.8183 15.9788 83.9726C16.611 84.3387 13.6896 82.6449 22.1616 87.5529C22.4613 87.7087 22.726 87.6812 22.9685 87.5494C23.2504 87.3962 76.9622 56.3854 77.1387 56.2812C77.1612 56.2683 77.1684 56.2414 77.1894 56.2266ZM23.3164 48.4155C52.7865 55.8033 43.1914 53.3979 45.1633 53.8923L23.4172 84.1099C23.3914 74.9791 23.3422 57.5737 23.3164 48.4155ZM27.2814 42.0805L25.4291 47.1538L23.9032 46.7718C24.0285 46.5978 27.5013 41.7751 27.2814 42.0805ZM49.7626 48.4021C49.4245 48.3216 49.0651 48.4546 48.86 48.7411L46.2574 52.3692L43.38 51.6487C43.5638 51.5747 43.7475 51.5155 43.9313 51.4093C45.8417 50.3066 47.3335 47.7215 47.3275 45.5237C47.3241 44.2913 46.8605 43.3462 46.0214 42.864C45.1908 42.3851 44.105 42.4631 43.0439 43.075C41.1283 44.1811 39.634 46.7679 39.6408 48.9649C39.6429 49.7177 39.8355 50.3448 40.1616 50.8429C39.9844 50.7985 31.5415 48.6821 32.0677 48.814L45.7714 11.3246L66.6024 12.1069L54.1905 46.1072L52.1669 48.9587L49.8116 48.4135L49.7626 48.4021ZM41.3767 48.9598C41.3716 47.3816 42.5328 45.3745 43.9118 44.5786C44.244 44.3871 44.5593 44.2871 44.8145 44.2871C44.9458 44.2871 45.0619 44.3142 45.156 44.3676C45.4315 44.5269 45.59 44.9499 45.5917 45.5288C45.5959 47.1078 44.4381 49.1124 43.0633 49.9057C42.5548 50.1973 42.0878 50.2778 41.8115 50.1193C41.5369 49.9608 41.3784 49.5387 41.3767 48.9598ZM53.9962 49.3821L55.6711 47.0248C55.6739 47.0209 55.6751 47.0162 55.6777 47.0123L75.7309 18.7553L75.8258 54.4347L53.9962 49.3821ZM75.3349 16.3128L69.1455 25.0343L72.8533 14.866L75.3349 16.3128ZM42.2658 6.10008L73.7713 7.28161L71.5838 13.2807C71.5824 13.2843 71.5791 13.2865 71.5777 13.2901L71.0743 14.6446C71.0671 14.6641 71.0708 14.684 71.0649 14.7037L65.3458 30.3885L57.9966 40.7442L68.6417 11.5822C68.8436 11.0287 68.4462 10.4392 67.8585 10.4177L45.2052 9.56669C44.8526 9.5633 44.4873 9.78283 44.3576 10.1354L30.3734 48.3919L27.1224 47.5778C27.1876 47.3993 40.9069 9.82392 40.0545 12.1565L42.2658 6.10008ZM36.2551 17.5021L29.4827 36.0511C29.2391 36.3895 21.8308 46.68 22.2068 46.1577L17.5689 43.4581L36.2551 17.5021ZM47.3241 53.8614C47.324 53.8616 47.3243 53.8611 47.3241 53.8614L49.9399 50.2262L52.3359 50.7872C52.3365 50.7873 52.337 50.7879 52.3376 50.788L74.3592 55.8817L25.6201 84.0209C33.076 73.6603 39.7325 64.4105 47.3241 53.8614Z" fill="black"/>
</svg>
