<svg width="93" height="92" viewBox="0 0 93 92" fill="none" xmlns="http://www.w3.org/2000/svg">
<path d="M19.142 77.7699C37.7867 88.6132 31.6022 85.0215 32.8915 85.766C32.8957 85.7685 32.9007 85.7673 32.9049 85.7696C39.1674 89.3296 46.7086 87.4114 52.9241 83.8225C56.4823 81.768 59.9472 78.9981 63.2222 75.59C63.5545 75.2441 63.5435 74.6949 63.1985 74.3627C62.8518 74.0296 62.3026 74.0414 61.9712 74.3864C58.8089 77.6776 55.4728 80.3457 52.0562 82.3189C45.1043 86.3339 38.605 87.0188 33.7543 84.2565C30.2717 82.2687 28.1346 78.678 27.1 74.8526C24.6487 65.7928 27.2746 52.9815 33.951 41.418C38.2674 33.9391 44.5198 26.6643 51.8484 22.1544C51.8289 22.3337 47.9248 58.3421 47.9351 58.1618C47.8948 58.8683 48.7105 59.351 49.3032 58.9095L78.6059 37.386C78.4101 45.2736 75.6927 54.1037 70.8649 62.4558C70.625 62.8703 70.7674 63.4017 71.1827 63.6416C71.5955 63.8806 72.1286 63.7399 72.3685 63.3237C77.7023 54.0961 80.535 44.2675 80.3442 35.6502C80.3441 35.6457 80.3406 35.6422 80.3404 35.6378C80.3402 35.6326 80.3437 35.6282 80.3434 35.623C80.3351 35.4737 80.2872 35.3331 80.2103 35.2103C80.1937 35.1837 80.1632 35.1699 80.1437 35.1452C80.0769 35.0605 80.0087 34.9753 79.9128 34.9196L76.5328 32.9557L81.9123 29.0043C82.1674 28.8178 82.2996 28.5067 82.2598 28.1931C81.4037 21.5879 78.5821 16.7533 74.1043 14.2131L74.0998 14.2109L60.365 6.22804C52.8098 1.90463 43.8711 6.34816 44.0448 6.30941C43.87 6.39802 43.6094 6.65719 43.5736 6.99086C43.5399 7.30203 42.8219 13.936 42.8504 13.673L39.5908 11.7772C39.3212 11.6195 38.9873 11.6195 38.7178 11.7772L38.1363 12.1162C30.7776 16.3558 23.88 23.6162 18.7131 32.5616C11.813 44.5227 9.12188 57.8441 11.6884 67.3286C12.9826 72.1132 15.5627 75.7256 19.142 77.7699ZM77.8947 35.7544L68.6189 42.568L49.866 56.3422L50.8997 46.8644C51.0737 46.9652 54.3297 48.8503 54.1556 48.7496C54.3516 48.863 54.6931 48.9198 54.9837 48.7724C55.1577 48.6848 61.1996 44.2146 75.0074 34.0761L77.8947 35.7544ZM80.468 27.9117L74.4318 32.3456L74.4294 32.3474L55.6674 46.1289C60.0277 6.04596 58.6266 18.9259 58.9782 15.6941C63.6105 13.8381 68.8739 13.23 73.222 15.7107C73.2294 15.7149 73.2375 15.7176 73.2449 15.7218C77.1209 17.9196 79.6119 22.1287 80.468 27.9117ZM59.4971 7.73165L67.3932 12.3213C64.9689 12.2128 61.5297 12.7708 58.2384 14.1029C58.0632 14.0011 45.6624 6.79336 46.4374 7.24386C51.4213 5.51543 55.9106 5.67902 59.4971 7.73165ZM45.1551 8.50782C45.3289 8.60888 58.0553 16.0083 57.2434 15.5362C56.8982 18.7127 58.4928 4.03802 53.8702 46.5784L51.106 44.9787L53.7708 20.6141C53.7955 20.39 53.6947 20.0722 53.4478 19.8679C53.2007 19.6566 54.8618 20.687 44.4933 14.6284L45.1551 8.50782ZM20.2167 33.4295C25.2327 24.7452 31.9041 17.7094 39.0059 13.6181L39.1543 13.5317C41.3456 14.8069 51.8238 20.9047 51.1523 20.5139C48.2411 22.2817 45.1453 24.7474 42.2495 27.6602C38.6428 31.2851 35.3778 35.4764 32.4406 40.5543C25.5455 52.4959 22.857 65.8114 25.4234 75.3043C25.4244 75.3078 25.4259 75.3107 25.4268 75.3142C25.8355 76.8232 26.5861 78.8168 27.6623 80.5725C27.9738 81.0801 28.3004 80.9775 20.0091 76.2663C16.8332 74.4517 14.5354 71.2046 13.3632 66.8751C10.9137 57.8204 13.5395 45.0049 20.2167 33.4295Z" fill="black"/>
<path d="M66.4271 71.9657C67.5179 70.6273 68.5817 69.2059 69.5877 67.7388C69.859 67.3438 69.7589 66.8039 69.3631 66.5327C68.9698 66.2614 68.4274 66.3623 68.157 66.7573C67.1772 68.1838 66.1423 69.5679 65.0811 70.8689C64.7786 71.2401 64.8345 71.7868 65.2057 72.0903C65.5747 72.3912 66.1214 72.3391 66.4271 71.9657Z" fill="black"/>
</svg>
