<svg width="93" height="92" viewBox="0 0 93 92" fill="none" xmlns="http://www.w3.org/2000/svg">
<path d="M22.0644 31.3545C22.4916 30.9511 22.9289 30.573 23.3765 30.2204C23.7545 29.9255 23.8189 29.3796 23.5223 29.0033C23.2239 28.6236 22.6764 28.5609 22.3051 28.8575C21.8169 29.2406 21.3389 29.6526 20.8744 30.0899C20.5252 30.4188 20.5082 30.9697 20.8371 31.3172C21.1666 31.6663 21.7153 31.6824 22.0644 31.3545Z" fill="black"/>
<path d="M36.2647 47.8434L36.263 47.3247C36.2525 43.8708 33.5673 42.3303 30.5605 44.07C27.8567 45.6312 25.7462 49.2894 25.7564 52.3932V52.9102C25.7564 53.3932 26.1512 53.7782 26.6243 53.7782C26.7735 53.7782 26.9244 53.7392 27.0583 53.6612L35.8307 48.5977C36.1003 48.4435 36.2664 48.1553 36.2647 47.8434ZM27.5872 51.3524C27.9838 49.1148 29.579 46.6415 31.4284 45.5719C33.2674 44.5094 34.52 45.2163 34.5272 47.3314L27.5872 51.3524Z" fill="black"/>
<path d="M31.4198 42.5748C32.9251 41.7051 34.1015 39.6709 34.0981 37.9419C34.091 35.8556 32.3678 34.8524 30.5383 35.906C29.0364 36.7722 27.8633 38.8081 27.8667 40.5423C27.8703 42.6378 29.6154 43.6221 31.4198 42.5748ZM31.4062 37.4113C32.0795 37.0213 32.3594 37.23 32.3623 37.947C32.3657 39.0539 31.5181 40.5134 30.5518 41.0712C29.9356 41.4278 29.6058 41.3222 29.6026 40.5389C29.5992 39.4268 30.4417 37.9656 31.4062 37.4113Z" fill="black"/>
<path d="M80.2102 16.7218C80.2 12.9738 78.8744 10.1514 76.4808 8.77319C76.4592 8.7608 76.4353 8.7537 76.4136 8.74151L70.3715 5.22352C67.9508 3.81144 64.8062 4.08606 61.521 5.99821C55.0997 9.71401 49.8939 18.7323 49.9125 26.1046C49.9312 29.8509 51.25 32.675 53.63 34.0549L59.7492 37.5985C59.7619 37.6059 59.7724 37.6159 59.7852 37.6232C61.5146 38.6173 63.3549 38.6762 65.298 38.1905L65.325 44.4412C65.3284 45.7532 64.3706 47.4162 63.2331 48.0739L30.8656 66.7597C30.4791 66.9835 30.1282 67.0513 29.9282 66.9343C29.7333 66.8224 29.6163 66.4936 29.6146 66.0528L29.5849 59.1674C30.2076 58.9216 30.8362 58.6373 31.4742 58.2686C37.8972 54.5613 43.1064 45.5379 43.0878 38.1538C43.0776 34.4058 41.752 31.5833 39.3567 30.2052C39.3378 30.1943 39.3169 30.1881 39.2979 30.1774L33.249 26.6555C30.83 25.2417 27.6855 25.518 24.3969 27.4302C23.9816 27.6726 23.8409 28.2032 24.0816 28.6168C24.3223 29.0321 24.8546 29.1694 25.2682 28.9321C27.9923 27.3454 30.5181 27.0725 32.3743 28.154L34.6069 29.4542C33.441 29.6483 31.9571 30.1709 30.5266 30.9968C24.146 34.674 18.913 43.6923 18.9334 51.1015C18.9376 52.6579 19.2449 54.2808 19.6182 55.2834L17.3789 53.9866C15.5549 52.9272 14.5412 50.6336 14.5259 47.5314C14.5141 42.9545 16.7144 37.4842 20.2726 33.2565C20.5811 32.8886 20.5336 32.3411 20.1675 32.0326C19.7996 31.7223 19.2504 31.7698 18.9435 32.1377C15.1345 36.6671 12.7765 42.5663 12.7901 47.5365C12.8087 51.2828 14.1276 54.1053 16.5076 55.4886C16.6835 55.5904 22.8145 59.1404 22.6386 59.0386C22.6471 59.0435 22.6543 59.0503 22.6627 59.0552C23.6697 59.6349 24.8037 59.9231 26.0243 59.9231C26.6133 59.9231 27.2275 59.8313 27.8513 59.6971L27.8788 66.0596C27.8858 68.3193 29.7435 69.4124 31.7336 68.2616L46.5802 59.6907L46.5912 63.7694C41.1409 65.2107 36.3237 72.7974 36.3766 78.7038C36.4071 81.3517 37.3649 83.3503 39.0601 84.3233C40.9018 85.4227 43.8201 87.16 43.6336 87.0542C45.6052 88.1722 47.9389 87.6289 49.9091 86.4745C54.3352 83.8792 57.8967 77.6054 57.8459 72.4911C57.8209 69.8804 56.8785 67.9149 55.2038 66.9227C54.8606 66.6854 56.4897 67.6933 50.6092 64.1627C49.9195 63.7663 49.1483 63.5677 48.3265 63.5481L48.3133 58.6901L64.1011 49.5758C65.7674 48.6147 67.0676 46.3567 67.0608 44.4344L67.0315 37.6146C67.5484 37.3939 68.0697 37.1411 68.5966 36.8367C75.0196 33.1276 80.2289 24.1043 80.2102 16.7218ZM23.529 57.5516C23.5261 57.5499 23.5237 57.5475 23.5208 57.5459C23.5173 57.5437 23.5155 57.5401 23.512 57.538C21.3677 56.2831 20.6726 53.5759 20.6726 51.0998C20.6539 44.1841 25.5895 35.8455 31.3945 32.5004C34.1271 30.9256 36.6479 30.6442 38.4905 31.7156L38.5024 31.7223C38.5066 31.7249 38.5116 31.7246 38.5159 31.727C40.3359 32.7895 41.3435 35.0708 41.3519 38.1572C41.3706 44.9887 36.5495 53.3357 30.6063 56.7667C27.8872 58.3347 25.3699 58.6127 23.529 57.5516ZM49.031 84.976C45.3241 87.1494 42.6937 85.4524 42.6555 81.3992C42.6114 76.8476 45.7899 71.2587 49.7413 68.9431C53.2996 66.8578 56.0708 68.3004 56.11 72.508C56.1541 77.068 52.9791 82.6621 49.031 84.976ZM49.7311 65.6595L51.1042 66.48C50.565 66.6253 49.6639 66.9829 48.9089 67.4205C46.4447 68.8497 43.5686 72.0226 41.9985 76.1117C41.3146 77.8915 40.901 79.7169 40.9163 81.4178C40.9244 82.1585 41.0684 83.1345 41.1773 83.5673L39.9382 82.8265C38.7838 82.1637 38.1345 80.6923 38.1125 78.6852C38.0642 73.4965 42.1779 67.1172 46.596 65.5802L46.5985 66.48C46.6002 66.9597 46.9884 67.3462 47.4664 67.3462C47.9461 67.3445 48.336 66.9547 48.3343 66.4766L48.3311 65.2905C48.845 65.3098 49.3202 65.4244 49.7311 65.6595ZM54.5013 32.553C52.6756 31.4952 51.6636 29.2016 51.6484 26.0995C51.6297 19.2815 56.4491 10.9396 62.3906 7.50012C64.5885 6.22068 67.308 5.44855 69.4968 6.72204L71.7293 8.02223C70.5835 8.21296 69.0804 8.7384 67.649 9.56484C64.0435 11.6427 60.8211 15.4061 58.695 19.6166C57.0387 22.8924 56.0469 26.4372 56.0558 29.6678C56.06 31.2031 56.3603 32.8268 56.7389 33.8498L54.5013 32.553ZM57.795 29.6678C57.787 26.7197 58.6797 23.4938 60.1689 20.5023C62.0143 16.8009 64.7798 13.4694 67.9014 11.4592C70.2538 9.94849 73.2334 8.90508 75.6095 10.2819L75.6248 10.2904C75.6291 10.2929 75.634 10.2927 75.6383 10.2951C77.4584 11.3576 78.4659 13.639 78.4744 16.7252C78.493 23.555 73.672 31.902 67.7287 35.3347C62.0265 38.6249 57.795 35.9688 57.795 29.6678Z" fill="black"/>
<path d="M73.3873 26.4097L73.3856 25.8927C73.375 22.4197 70.6782 20.9085 67.683 22.638C64.9793 24.1976 62.8688 27.854 62.8789 30.9596V31.4783C62.8789 31.9612 63.2737 32.3462 63.7469 32.3462C63.896 32.3462 64.0469 32.3072 64.1808 32.2292L72.9533 27.1641C73.2228 27.0098 73.389 26.7217 73.3873 26.4097ZM64.7097 29.9204C65.1047 27.6811 66.7015 25.2079 68.551 24.1399C70.31 23.1263 71.6423 23.6877 71.6497 25.8995L64.7097 29.9204Z" fill="black"/>
<path d="M68.5423 21.1428C70.0476 20.2749 71.2241 18.2407 71.2207 16.5099C71.2136 14.4234 69.4977 13.4218 67.6608 14.474C66.1589 15.3402 64.9859 17.3761 64.9893 19.1103C64.9928 21.1847 66.709 22.1968 68.5423 21.1428ZM68.5288 15.9793C69.1436 15.6255 69.4816 15.7155 69.4848 16.515C69.4882 17.6219 68.6423 19.0815 67.6744 19.6392C67.0227 20.0116 66.7282 19.8555 66.7251 19.1069C66.7217 17.9949 67.5642 16.5336 68.5288 15.9793Z" fill="black"/>
<path d="M52.8231 73.0911C52.4095 72.847 51.8772 72.9877 51.6365 73.403L48.4207 78.9191L46.79 78.0427C46.3696 77.8189 45.8407 77.9749 45.6152 78.397C45.3881 78.8191 45.5474 79.3446 45.9695 79.5717L48.3377 80.8448C48.7552 81.0671 49.2636 80.9184 49.4972 80.5176L53.135 74.2777C53.3774 73.8641 53.2367 73.3318 52.8231 73.0911Z" fill="black"/>
</svg>
