<svg width="93" height="92" viewBox="0 0 93 92" fill="none" xmlns="http://www.w3.org/2000/svg">
<path d="M10.1638 36.1085C10.1655 36.5966 10.5612 36.9906 11.0484 36.9906C11.0493 36.9906 11.0501 36.9906 11.051 36.9906C11.54 36.9888 11.9348 36.5914 11.933 36.1034L11.9054 27.119C16.4585 29.7648 36.1056 41.1821 44.3387 45.9664L44.4521 86.0375L12.0194 67.1902L11.9754 51.5323C11.9736 51.0451 11.578 50.6503 11.0907 50.6503C11.0899 50.6503 11.089 50.6503 11.0882 50.6503C10.6001 50.652 10.2044 51.0485 10.2061 51.5375L10.2519 67.7024C10.2528 68.0169 10.4204 68.3072 10.6916 68.4644L44.8962 88.3415C44.8959 88.3412 44.8965 88.3417 44.8962 88.3415C44.8972 88.342 44.8987 88.3435 44.8996 88.344C45.1687 88.499 45.5065 88.5026 45.7834 88.3432L82.4258 67.1876C82.7005 67.0286 82.869 66.7358 82.8681 66.4187L82.7489 24.2984C82.7483 24.1186 82.6357 23.726 82.3092 23.5365L82.3071 23.5353C82.3066 23.535 82.3063 23.5342 82.3057 23.5339C82.3052 23.5336 82.3044 23.5337 82.3039 23.5333L48.1046 3.65853C47.8291 3.49871 47.4913 3.49871 47.2174 3.65681L10.5741 24.8124C10.2976 24.9725 10.1326 25.2671 10.1318 25.5778C10.1318 25.5785 10.1323 25.5789 10.1323 25.5795C10.1323 25.5802 10.1318 25.5806 10.1318 25.5813L10.1638 36.1085ZM25.3649 18.3161L57.8063 37.1694L45.2232 44.4342L12.7814 25.5813L25.3649 18.3161ZM67.1014 44.1487L64.1729 43.0999C63.7919 42.9634 63.3634 43.1043 63.1379 43.4429L60.5705 47.3088L60.4633 37.6803L66.9874 33.9136L67.1014 44.1487ZM59.5724 36.1497L27.133 17.2975L33.6484 13.5353L66.0882 32.3877L59.5724 36.1497ZM46.2214 86.047L46.1082 45.9665L58.7049 38.6938L58.8332 50.2011C58.8375 50.5898 59.095 50.9293 59.4673 51.0399C59.8537 51.1526 60.2468 50.9937 60.4547 50.6814L64.2281 44.9988L67.7018 46.2427C67.9731 46.3412 68.2763 46.298 68.513 46.1304C68.7488 45.9628 68.8879 45.6899 68.8845 45.4005L68.7451 32.8971C69.023 32.7366 81.1714 25.7227 80.984 25.8309L81.0972 65.9116L46.2214 86.047ZM47.658 5.44504L80.0993 24.2984L67.8544 31.368L35.413 12.5147L47.658 5.44504Z" fill="black"/>
<path d="M11.0794 47.4971C11.5675 47.4953 11.9632 47.0988 11.9614 46.6099L11.945 40.8996C11.9433 40.4115 11.5476 40.0176 11.0604 40.0176H11.0578C10.5697 40.0193 10.1741 40.4158 10.1758 40.9048L10.1922 46.615C10.1939 47.1031 10.5896 47.4971 11.0768 47.4971H11.0794Z" fill="black"/>
<path d="M52.891 65.2702C52.4747 64.7354 51.6793 64.96 51.4358 65.3785L49.2295 69.1623C48.9841 69.5847 49.1267 70.1264 49.5482 70.3726C49.9722 70.6186 50.5122 70.4743 50.7585 70.0538L51.326 69.0802L51.3425 76.8966C51.3434 77.3847 51.739 77.7795 52.2271 77.7795C52.2263 77.7795 52.228 77.7795 52.2271 77.7795C52.7161 77.7787 53.1126 77.3813 53.1117 76.8932L53.0934 68.1886L53.967 69.1874C54.2892 69.5562 54.8481 69.5917 55.2153 69.2712C55.5833 68.9489 55.6205 68.39 55.2991 68.0228L52.891 65.2702Z" fill="black"/>
<path d="M61.9778 68.8437C61.5571 68.6018 61.0145 68.7426 60.7675 69.1625L60.2 70.1361L60.1835 62.3197C60.1826 61.8316 59.787 61.4368 59.2989 61.4368C59.298 61.4368 59.2997 61.4368 59.2989 61.4368C58.8099 61.4376 58.4134 61.835 58.4143 62.3231L58.4326 71.0277L57.559 70.0289C57.2359 69.6592 56.6753 69.6229 56.3107 69.9451C55.9427 70.2674 55.9055 70.8263 56.2269 71.1935C56.479 71.4803 55.3143 70.1535 58.693 73.9991C59.1408 74.4538 59.8338 74.2784 60.0902 73.8378L62.2965 70.054C62.5419 69.6316 62.3993 69.0899 61.9778 68.8437Z" fill="black"/>
</svg>
