<svg width="93" height="92" viewBox="0 0 93 92" fill="none" xmlns="http://www.w3.org/2000/svg">
<path d="M4.91928 54.7606C4.92013 55.0683 5.08456 55.3531 5.3507 55.5073C15.6194 61.4746 -3.24701 50.5106 50.1293 81.5298C50.3961 81.6834 50.7267 81.6839 50.9956 81.529L87.7281 60.3216C87.9976 60.1656 88.1629 59.8783 88.1621 59.5664L88.0841 37.2394C88.0835 37.0124 87.8822 36.6262 87.6527 36.4927L87.6486 36.4903L60.0181 20.4327C59.6045 20.1928 59.0722 20.331 58.8315 20.7463C58.5899 21.1607 58.7315 21.6922 59.1451 21.9329L85.4846 37.2402L50.4856 57.4471C43.665 53.4835 16.8861 37.9216 7.44084 32.4327L42.4401 12.2255L50.9269 17.1568C51.3397 17.3983 51.8711 17.2576 52.1127 16.8423C52.3542 16.4287 52.2127 15.8973 51.7982 15.6565L42.8774 10.4727C42.6087 10.3151 42.2765 10.3168 42.0078 10.471L5.27527 31.6784C4.96825 31.8563 4.84176 32.2264 4.84131 32.4294C4.84131 32.4301 4.84184 32.4307 4.84184 32.4315C4.84184 34.7165 4.81245 24.1715 4.91928 54.7606ZM86.3854 47.9061L51.3858 68.1129C51.3852 67.9381 51.3728 64.3415 51.3734 64.5163L86.3728 44.3198L86.3854 47.9061ZM49.6499 68.1141L6.61434 43.1046L6.60173 39.5074L49.6375 64.5169L49.6499 68.1141ZM6.62144 45.1163L49.6569 70.1257L49.6692 73.689L6.63394 48.6797L6.62144 45.1163ZM51.3928 70.1136L86.3924 49.9067L86.405 53.4922L51.4052 73.6994L51.3928 70.1136ZM86.3658 42.3194L51.3665 62.5158L51.3541 58.9504L86.3533 38.7433L86.3658 42.3194ZM49.6182 58.9505L49.6269 61.455L49.6305 62.5054L6.59474 37.4958L6.58224 33.9414C15.7885 39.2914 39.3684 52.9942 49.6182 58.9505ZM6.64094 50.6914L49.6761 75.7006L49.6885 79.2658L6.65344 54.2572L6.64094 50.6914ZM51.4244 79.2769L51.412 75.7001L86.412 55.4929L86.4245 59.0697L51.4244 79.2769Z" fill="white"/>
<path d="M53.7501 18.7977L56.0683 20.1453C56.4839 20.3865 57.0145 20.2455 57.2549 19.8317C57.4964 19.4173 57.3557 18.8858 56.9413 18.6451L54.6231 17.2975C54.2087 17.0576 53.6772 17.1966 53.4365 17.6111C53.195 18.0255 53.3357 18.557 53.7501 18.7977Z" fill="white"/>
<path d="M23.6289 37.1945L49.7463 22.116C50.1617 21.8761 50.3041 21.3455 50.0642 20.9302C49.8226 20.514 49.2912 20.3725 48.8784 20.6124L22.761 35.6909C22.3457 35.9307 22.2033 36.4613 22.4432 36.8766C22.6837 37.293 23.2159 37.4331 23.6289 37.1945Z" fill="white"/>
<path d="M30.4417 41.1535L56.5591 26.075C56.9744 25.8352 57.1168 25.3046 56.8769 24.8893C56.6362 24.4731 56.1048 24.3307 55.6912 24.5714L29.5738 39.6499C29.1584 39.8898 29.0161 40.4204 29.2559 40.8357C29.4964 41.2521 30.0286 41.3921 30.4417 41.1535Z" fill="white"/>
<path d="M62.4939 28.5245L36.3765 43.6039C35.9612 43.8438 35.8188 44.3743 36.0587 44.7897C36.2991 45.2061 36.8313 45.3461 37.2444 45.1075L63.3618 30.0282C63.7771 29.7883 63.9195 29.2577 63.6797 28.8424C63.439 28.4262 62.9075 28.2838 62.4939 28.5245Z" fill="white"/>
<path d="M43.2605 16.9762C43.0198 16.5609 42.4883 16.4194 42.0747 16.6584L15.9573 31.7369C15.542 31.9767 15.3996 32.5073 15.6395 32.9226C15.8799 33.3391 16.4121 33.4791 16.8252 33.2405L42.9426 18.162C43.358 17.9221 43.5003 17.3915 43.2605 16.9762Z" fill="white"/>
<path d="M69.2974 32.4785L43.18 47.557C42.7646 47.7969 42.6223 48.3274 42.8621 48.7428C43.1026 49.1592 43.6348 49.2992 44.0479 49.0606L70.1653 33.9821C70.5806 33.7422 70.723 33.2117 70.4831 32.7963C70.2416 32.3802 69.7101 32.2395 69.2974 32.4785Z" fill="white"/>
<path d="M49.6658 52.6967C49.9063 53.1132 50.4385 53.2532 50.8516 53.0146L76.9682 37.9352C77.3835 37.6954 77.5259 37.1648 77.286 36.7495C77.0453 36.3325 76.513 36.1926 76.1002 36.4316L49.9837 51.511C49.5684 51.7508 49.426 52.2814 49.6658 52.6967Z" fill="white"/>
</svg>
