<svg width="93" height="92" viewBox="0 0 93 92" fill="none" xmlns="http://www.w3.org/2000/svg">
<rect x="0.5" width="92" height="92" rx="46" fill="black"/>
<path d="M69.1536 64.937C69.4847 64.937 69.8434 64.8364 70.1994 64.6325C70.5661 64.4161 70.9201 64.0918 71.2293 63.6976L72.819 64.6197C73.0893 64.7766 73.4361 64.6839 73.5929 64.4141C73.7498 64.1438 73.6575 63.7972 73.3872 63.6402L71.817 62.7293C72.0432 62.224 72.1651 61.7044 72.1651 61.2246C72.1651 60.5976 71.9559 60.0926 71.6376 59.8446L65.5716 50.9702C65.2775 50.5307 64.853 50.2173 64.3666 50.0796C64.3627 50.078 64.3583 50.0758 64.3538 50.0741C35.2844 32.9748 49.6824 41.444 45.5195 38.9953L45.9455 38.7478C46.119 38.6467 46.2263 38.4609 46.2268 38.2597C46.2286 37.3647 46.2316 35.5488 46.2329 35.665C46.2317 35.5518 46.0885 35.2603 45.9499 35.1803C45.8326 35.1126 31.5903 27.1928 31.4767 27.1347C31.3009 27.0374 31.0881 27.039 30.9167 27.1402C30.8021 27.2068 27.6101 29.0622 27.7247 28.9956C27.7245 28.9958 27.7249 28.9955 27.7247 28.9956C27.5267 29.1114 27.4445 29.3574 27.4442 29.4823L27.4407 30.7441C27.3746 30.779 27.3096 30.8098 27.2424 30.8482C27.0407 30.9656 26.8501 31.1167 26.6553 31.2559L24.4808 29.9748C23.8285 29.6006 22.9717 29.6675 22.1271 30.1567C20.5589 31.0621 19.3306 33.1864 19.3306 34.994C19.3306 35.9685 19.6927 36.7136 20.3455 37.0901L22.4069 38.301C22.3557 38.6645 22.3195 39.0264 22.3195 39.3797C22.3316 41.012 22.9142 42.2458 23.9568 42.8516C24.0713 42.919 57.278 62.4592 57.0113 62.3022C57.3415 62.6771 57.792 62.9335 58.3065 63.0167L68.3804 64.6825C68.6094 64.8344 68.8644 64.937 69.1536 64.937ZM70.4714 61.9488C70.1988 61.7912 69.8534 61.8841 69.6975 62.1544C69.5405 62.4247 69.6328 62.7713 69.9031 62.9283L70.2276 63.1165C70.0349 63.3394 69.8333 63.5342 69.6311 63.6535C69.107 63.9525 68.7799 63.8186 68.7799 63.177C68.771 62.3191 69.4261 61.1865 70.1922 60.7476C70.6766 60.4566 71.033 60.558 71.033 61.2246C71.033 61.5082 70.9414 61.8272 70.813 62.147L70.4714 61.9488ZM50.4799 57.1432C49.8037 56.7334 49.4296 55.8545 49.4274 54.6594C49.4185 51.89 51.3731 48.5065 53.7849 47.1157C54.8528 46.4977 55.8268 46.3822 56.5305 46.7901C56.5331 46.7916 56.5361 46.7914 56.5388 46.7929L58.7373 48.0866C58.3215 48.206 57.8949 48.3826 57.4613 48.6319C54.6931 50.2311 52.5306 53.9778 52.5384 57.1618C52.5399 57.6279 52.6015 58.0505 52.6953 58.4467L50.4799 57.1432ZM47.0052 55.0989C46.3175 54.6958 45.9355 53.8111 45.9316 52.6053C45.925 49.8353 47.8796 46.4502 50.288 45.0588C50.9397 44.6835 51.5561 44.4939 52.0956 44.4939C52.4427 44.4939 52.7584 44.5724 53.0314 44.7305L54.4813 45.584C54.0695 45.7039 53.6467 45.888 53.2188 46.1356C50.4937 47.7066 48.2853 51.5318 48.2953 54.6621C48.2964 55.1209 48.3434 55.5481 48.4332 55.9391L47.0052 55.0989ZM53.6704 57.159C53.6638 54.3891 55.6184 51.0039 58.0268 49.6126C58.8632 49.1309 59.9365 48.8004 60.7702 49.2848L62.2201 50.1377C61.9449 50.218 61.6631 50.3377 61.3794 50.4753C61.3762 50.4767 61.3748 50.4773 61.3716 50.4788C61.368 50.4805 61.3647 50.4829 61.3611 50.4846C57.9549 52.15 55.2937 56.957 56.1214 60.4625L54.7418 59.6507C54.0557 59.247 53.6743 58.3629 53.6704 57.159ZM30.5043 34.1525L32.0412 35.0008L30.4987 35.8979L30.5043 34.1525ZM30.2147 32.695C29.8306 32.483 29.3734 32.7692 29.3723 33.1925L29.364 35.8995L28.5597 35.4351L28.5735 30.4448L41.9089 37.8578C41.9086 37.9718 41.9055 39.2668 41.9058 39.1528C26.1353 30.4416 31.27 33.2779 30.2147 32.695ZM43.038 39.1256C43.0383 39.0116 43.0415 37.7372 43.0412 37.8512L45.0986 36.6556L45.0953 37.9325C44.8542 38.0723 42.9171 39.1957 43.038 39.1256ZM31.2075 28.2806L44.5214 35.6815C44.4069 35.7481 42.3384 36.9502 42.4696 36.8739L34.3458 32.3581L29.1556 29.4729L31.2075 28.2806ZM22.6461 37.1282L20.9149 36.1117C20.6274 35.9458 20.4627 35.5384 20.4627 34.994C20.4627 33.601 21.4842 31.8349 22.6942 31.1367C23.0504 30.9298 23.557 30.7504 23.9114 30.9532L25.7118 32.014C24.4063 33.2504 23.2213 35.1255 22.6716 37.0567C22.6648 37.0807 22.6529 37.1042 22.6461 37.1282ZM23.4515 39.3752C23.4515 36.6992 25.3145 33.5061 27.4343 32.0648L27.4249 35.7623C27.4243 35.9652 27.5321 36.1526 27.7073 36.2537L29.6437 37.3748C29.6435 37.3746 29.6439 37.3749 29.6437 37.3748C29.818 37.4745 30.0687 37.4558 30.2092 37.3759C30.2097 37.3756 30.2099 37.3749 30.2104 37.3746C31.058 36.8817 33.3416 35.5539 33.1963 35.6384C39.0663 38.88 33.4157 35.7568 42.196 40.6085C42.3746 40.7082 42.5958 40.6945 42.7543 40.6024L42.756 40.6014L44.3965 39.648L50.9983 43.5328C50.5825 43.6522 50.156 43.8289 49.7225 44.0782C46.9543 45.6774 44.7918 49.4241 44.7996 52.608C44.8011 53.0744 44.8629 53.4973 44.9566 53.8936L24.5289 41.8749C23.8429 41.4763 23.4604 40.5869 23.4515 39.3752ZM58.2441 61.71L58.2264 61.6995C57.414 61.2156 57.168 60.1634 57.1667 59.2131C57.1565 56.2261 59.4794 52.4464 62.1528 51.3773C63.2547 50.8933 64.3629 51.1998 64.6335 51.6042L70.0717 59.5597C69.9208 59.6105 69.7688 59.6813 69.6195 59.7708C68.4541 60.4382 67.5355 62.0612 67.6578 63.4158C56.1809 61.3722 59.0014 62.1544 58.2441 61.71Z" fill="white"/>
</svg>
