<svg width="93" height="92" viewBox="0 0 93 92" fill="none" xmlns="http://www.w3.org/2000/svg">
<rect x="0.5" width="92" height="92" rx="46" fill="black"/>
<path d="M37.1715 48.6706C37.3611 48.6706 37.5469 48.5755 37.6536 48.402C37.9847 47.8658 38.2964 47.3103 38.5794 46.752C38.721 46.4734 38.6098 46.1323 38.3307 45.9913C38.0527 45.8487 37.7105 45.9615 37.5701 46.2401C37.3009 46.7702 37.0052 47.2975 36.6906 47.8072C36.5265 48.0731 36.6088 48.4219 36.8747 48.5861C36.9676 48.6435 37.0698 48.6706 37.1715 48.6706Z" fill="white"/>
<path d="M34.0776 55.1963C32.6491 56.7746 31.8904 58.5577 31.8904 60.365C31.8904 65.7711 38.5778 70.3387 46.494 70.3387C54.4164 70.3387 61.1093 65.7711 61.1093 60.365C61.1093 58.5598 60.352 56.7781 58.9263 55.2017C58.5442 53.5659 57.2746 52.0693 55.2306 50.9138C50.3894 48.1775 42.5362 48.177 37.7249 50.9143C35.6985 52.0673 34.4447 53.5624 34.0776 55.1963ZM46.494 69.2066C39.1919 69.2066 33.0225 65.1576 33.0225 60.365C33.0225 59.2341 33.3635 58.1352 34.0396 57.0843C34.5245 59.5029 36.8766 61.2309 39.2279 62.2065C43.689 64.0617 49.8309 64.0175 54.1803 62.0674C56.3545 61.0958 58.5276 59.4291 58.9773 57.1114C59.6417 58.1539 59.9772 59.2435 59.9772 60.365C59.9772 65.1576 53.8028 69.2066 46.494 69.2066ZM38.2843 51.8982C40.5363 50.6169 43.4991 49.9768 46.467 49.9768C49.4342 49.9768 52.4065 50.6175 54.6734 51.8988C56.4849 52.9232 57.5903 54.2121 57.8601 55.5815L57.8596 55.5852C58.3574 58.0722 55.9889 60.0202 53.6803 61.0525C49.7591 62.8005 44.2857 62.91 40.1598 61.3711C37.5239 60.3856 34.6475 58.3363 35.14 55.5914C35.3882 54.2174 36.4822 52.9237 38.2843 51.8982Z" fill="white"/>
<path d="M48.6919 58.2148C49.7952 58.2148 50.6929 57.3176 50.6929 56.2143C50.6929 55.111 49.7952 54.2133 48.6919 54.2133C47.5885 54.2133 46.6908 55.111 46.6908 56.2143C46.6908 57.3176 47.5885 58.2148 48.6919 58.2148ZM48.6919 55.3453C49.1711 55.3453 49.5608 55.735 49.5608 56.2143C49.5608 56.693 49.1711 57.0827 48.6919 57.0827C48.2126 57.0827 47.8229 56.693 47.8229 56.2143C47.8229 55.735 48.2126 55.3453 48.6919 55.3453Z" fill="white"/>
<path d="M38.7635 62.8906C37.8233 62.8906 37.0588 63.6551 37.0588 64.5954C37.0588 65.5356 37.8233 66.3001 38.7635 66.3001C39.7038 66.3001 40.4683 65.5356 40.4683 64.5954C40.4683 63.6551 39.7038 62.8906 38.7635 62.8906ZM38.7635 65.168C38.4479 65.168 38.1909 64.911 38.1909 64.5954C38.1909 64.2797 38.4479 64.0227 38.7635 64.0227C39.0792 64.0227 39.3362 64.2797 39.3362 64.5954C39.3362 64.911 39.0792 65.168 38.7635 65.168Z" fill="white"/>
<path d="M53.2975 63.2577C52.2611 63.2577 51.4176 64.1012 51.4176 65.1377C51.4176 66.1741 52.2611 67.0176 53.2975 67.0176C54.334 67.0176 55.1775 66.1741 55.1775 65.1377C55.1775 64.1012 54.334 63.2577 53.2975 63.2577ZM53.2975 65.8856C52.8852 65.8856 52.5496 65.55 52.5496 65.1377C52.5496 64.7253 52.8852 64.3898 53.2975 64.3898C53.7099 64.3898 54.0454 64.7253 54.0454 65.1377C54.0454 65.55 53.7099 65.8856 53.2975 65.8856Z" fill="white"/>
<path d="M67.4374 26.8898C66.2141 26.1839 64.6249 25.8373 62.9611 25.9174C60.9993 26.0103 59.221 26.4907 57.8181 27.3065C57.7753 27.3314 57.7388 27.3591 57.697 27.3845C55.1636 25.8914 51.8849 26.1745 49.6582 27.9926C49.6612 27.4541 49.6939 21.6075 49.6979 20.9005C49.6979 20.2996 49.3143 19.733 48.6449 19.3461C47.4548 18.6584 45.5985 18.6595 44.4173 19.3494C43.7704 19.7321 43.3992 20.2887 43.3942 20.8779C43.3942 20.881 43.3924 20.8835 43.3924 20.8867L43.3613 28.0064C41.1351 26.1753 37.845 25.8877 35.3031 27.3847C35.2612 27.3593 35.2246 27.3315 35.1816 27.3065C33.7786 26.4907 32.0004 26.0103 30.0391 25.9174C28.372 25.8378 26.785 26.1839 25.5622 26.8898C24.3251 27.6045 23.622 28.5951 23.5833 29.6785C23.5258 31.2334 22.5977 32.9653 20.8256 34.8253C20.5072 35.1576 20.4253 35.5882 20.6055 35.9779C20.8443 36.493 21.495 36.8203 22.2534 36.8203C22.3075 36.8203 22.3623 36.8186 22.4175 36.8153C26.1852 36.592 32.8483 36.0188 35.144 34.6938C36.815 33.7286 37.7359 32.4136 37.7381 30.9897C37.7394 29.9415 37.2394 28.953 36.3112 28.1207C38.6825 26.9871 41.6556 27.5681 43.3543 29.5934L43.3519 30.1501C42.3632 30.3895 41.4608 30.7131 40.7082 31.1549C39.0782 32.1017 38.179 33.4013 38.1631 34.7638C38.1616 34.7801 38.1533 34.7942 38.1533 34.811V34.8126L38.1361 37.6478C38.1334 38.6596 38.6051 39.6136 39.4746 40.4286C39.2532 41.8088 38.8755 43.1957 38.3379 44.5569C38.2229 44.8476 38.3655 45.1765 38.6563 45.291C38.9437 45.4065 39.2748 45.2639 39.3904 44.9726C39.8801 43.7338 40.2494 42.4724 40.4926 41.2121C40.5667 41.2585 40.643 41.3044 40.7209 41.3497C43.9275 43.1971 49.1274 43.1954 52.3164 41.348C52.3822 41.3093 52.4457 41.2706 52.5082 41.232C52.5463 41.4227 52.5883 41.6123 52.6331 41.8008C53.0051 43.422 53.5607 44.9941 54.2837 46.4733C55.4987 48.9614 57.1763 51.2255 59.2713 53.2033C61.4587 55.2668 62.6151 57.7316 62.6151 60.3307C62.6151 66.7855 55.3832 72.0368 46.494 72.0368C37.611 72.0368 30.3846 66.7855 30.3846 60.3307C30.3846 57.7316 31.5405 55.2668 33.7272 53.2039C34.6996 52.2879 35.6127 51.2659 36.4408 50.1658C36.6287 49.916 36.579 49.5611 36.3291 49.3732C36.0776 49.1852 35.7238 49.2355 35.5365 49.4848C34.7471 50.534 33.877 51.5074 32.9506 52.3797C30.5311 54.6626 29.2525 57.4121 29.2525 60.3307C29.2525 67.4095 36.9869 73.1689 46.494 73.1689C56.0072 73.1689 63.7471 67.4095 63.7471 60.3307C63.7471 57.4121 62.468 54.6626 60.0485 52.3797C58.053 50.4964 56.4555 48.3417 55.3008 45.9764C54.6159 44.5746 54.0897 43.0843 53.7353 41.5432C53.6488 41.1788 53.5864 40.8115 53.527 40.4418C54.3787 39.6386 54.8436 38.6967 54.8464 37.6975L54.8635 34.8812C54.8635 34.874 54.8635 34.8673 54.8635 34.8602C54.8636 34.8503 54.8586 34.8422 54.8581 34.8325C54.8577 33.4142 53.9435 32.1083 52.2771 31.1533C51.5067 30.7114 50.6024 30.367 49.6461 30.1331L49.6492 29.5894C51.3481 27.5686 54.3189 26.988 56.6887 28.1205C55.7602 28.9528 55.2603 29.9414 55.2615 30.9897C55.2638 32.4136 56.1847 33.7286 57.8557 34.6938C60.1514 36.0188 66.8145 36.592 70.581 36.8153C70.6363 36.8186 70.691 36.8203 70.7458 36.8203C71.5053 36.8203 72.1559 36.493 72.3941 35.9779C72.5749 35.5882 72.4925 35.157 72.1752 34.827C70.4019 32.9653 69.4738 31.2334 69.4164 29.679C69.3777 28.5951 68.6745 27.6045 67.4374 26.8898ZM34.5779 33.7132C33.0484 34.5959 28.592 35.3145 22.349 35.6854C22.0229 35.7042 21.8001 35.6213 21.6956 35.5533C23.6585 33.4777 24.6463 31.569 24.7143 29.7199C24.7386 29.0494 25.2538 28.375 26.1283 27.8704C27.1509 27.2806 28.5572 26.9771 29.9855 27.0484C31.5908 27.1243 33.0867 27.5103 34.2729 28.1202C33.7618 28.5495 33.2814 29.0069 32.8306 29.4712C32.3591 29.9571 31.9136 30.4159 31.4194 30.8222C30.4023 31.6591 28.8794 32.3357 27.6584 31.7248C27.3787 31.5867 27.0381 31.6989 26.8988 31.978C26.759 32.2577 26.8723 32.5977 27.152 32.7375C27.6462 32.9841 28.163 33.0902 28.6804 33.0902C29.9507 33.0902 31.221 32.4517 32.1391 31.6967C32.6819 31.25 33.1706 30.7464 33.6432 30.2594C34.1844 29.7016 34.712 29.1882 35.2921 28.7481C36.1419 29.4112 36.607 30.1874 36.6061 30.9886C36.6044 31.9913 35.8841 32.9592 34.5779 33.7132ZM51.1086 35.445C50.8928 35.6736 50.6691 35.821 49.6189 36.283L49.6365 33.3887C49.935 33.4954 50.2158 33.6242 50.4696 33.7706C51.3869 34.3241 51.8609 34.7368 51.1086 35.445ZM44.4482 36.5726C44.4625 33.6427 44.5025 25.4225 44.5168 22.4925C45.6156 23.0971 47.4227 23.1058 48.557 22.4991C48.5563 22.6172 48.4779 36.7184 48.4786 36.604C47.2738 36.848 45.7613 36.8717 44.4482 36.5726ZM43.325 36.2382C41.0596 35.3284 41.0335 34.3866 42.9817 33.5407C43.0862 33.4932 43.199 33.4456 43.3333 33.3997L43.325 36.2382ZM44.9911 20.325C45.823 19.8397 47.237 19.8397 48.0788 20.3267C48.7518 20.7164 48.6984 21.1121 48.0877 21.4649C47.246 21.9553 45.7789 21.938 45.017 21.4555C44.4115 21.097 44.3307 20.716 44.9911 20.325ZM53.7143 37.6926C53.7116 38.6787 53.0112 39.6284 51.742 40.3658C47.0894 43.0689 39.2589 41.0115 39.2682 37.6528L39.2699 37.3841C39.308 37.4241 39.6835 37.769 39.764 37.8263L39.7685 37.8299C40.8235 38.7031 42.1107 39.2376 43.4474 39.5504C46.6858 40.3091 51.3649 39.8639 53.716 37.4477L53.7143 37.6926ZM51.7144 32.135C53.0223 32.8851 53.7375 33.8508 53.7282 34.8535V34.8591C53.7282 36 52.7537 36.9527 51.7592 37.5306C47.0023 40.2938 39.6541 38.1203 39.3113 35.1073C39.1577 34.0327 39.874 32.9487 41.2786 32.1322C41.8734 31.7834 42.566 31.5026 43.3432 31.2942L43.3399 32.2108C42.2138 32.5709 40.6892 33.3412 40.4318 34.4843C39.9283 36.4983 43.4724 37.7717 45.8086 37.9037C47.8867 38.0108 50.7093 37.5264 51.9057 36.2476C52.9156 35.3086 53.0358 33.9964 51.045 32.7956C50.6271 32.5546 50.1678 32.3583 49.6835 32.2124L49.6422 32.1997L49.6487 31.2948C50.4016 31.5004 51.1058 31.7862 51.7144 32.135ZM70.6496 35.6854C64.4077 35.3145 59.9513 34.5959 58.4217 33.7132C57.1155 32.9592 56.3953 31.9913 56.3936 30.9886C56.3927 30.1873 56.8578 29.411 57.7078 28.7479C58.2881 29.188 58.8158 29.7016 59.3576 30.26C59.8296 30.7464 60.3177 31.25 60.8606 31.6967C61.7787 32.4517 63.049 33.0902 64.3192 33.0902C64.8366 33.0902 65.354 32.9841 65.8477 32.7375C66.1274 32.5977 66.2407 32.2577 66.1008 31.978C65.961 31.6989 65.621 31.5867 65.3413 31.7248C64.1191 32.3357 62.5968 31.6591 61.5803 30.8222C61.0861 30.4159 60.6411 29.9571 60.1696 29.4717C59.7188 29.007 59.2384 28.5494 58.7271 28.12C59.9133 27.5103 61.409 27.1243 63.0142 27.0484C63.1474 27.0418 63.28 27.039 63.4122 27.039C64.7012 27.039 65.9438 27.3353 66.8714 27.8704C67.7459 28.375 68.2611 29.0494 68.2854 29.7205C68.3534 31.5645 69.3362 33.4683 71.3035 35.5539C71.1979 35.6219 70.9724 35.7098 70.6496 35.6854Z" fill="white"/>
</svg>
