<svg width="93" height="92" viewBox="0 0 93 92" fill="none" xmlns="http://www.w3.org/2000/svg">
<rect x="0.5" width="92" height="92" rx="46" fill="black"/>
<path d="M19.3821 51.7135C19.3826 51.9141 19.4899 52.0999 19.6634 52.2005C26.3604 56.0922 14.0562 48.9417 48.8669 69.1716C49.0409 69.2718 49.2565 69.2721 49.4318 69.1711L73.3878 55.3402C73.5636 55.2385 73.6714 55.0511 73.6709 54.8477L73.62 40.2866C73.6196 40.1386 73.4883 39.8867 73.3386 39.7996L73.336 39.7981L55.3161 29.3257C55.0463 29.1693 54.6992 29.2594 54.5422 29.5302C54.3847 29.8005 54.477 30.1471 54.7467 30.3041L71.9246 40.2871L49.0993 53.4655C44.6511 50.8806 27.1866 40.7315 21.0266 37.1518L43.8522 23.9732L49.3871 27.1892C49.6563 27.3468 50.0028 27.255 50.1604 26.9841C50.3179 26.7144 50.2256 26.3678 49.9553 26.2108L44.1374 22.8301C43.9622 22.7273 43.7455 22.7284 43.5702 22.829L19.6142 36.6599C19.414 36.7759 19.3315 37.0172 19.3312 37.1496C19.3312 37.1501 19.3316 37.1505 19.3316 37.151C19.3316 38.6412 19.3124 31.7641 19.3821 51.7135ZM72.5122 47.2431L49.6863 60.4215C49.6859 60.3075 49.6778 57.9619 49.6782 58.0759L72.504 44.9042L72.5122 47.2431ZM48.5542 60.4222L20.4876 44.1117L20.4793 41.7657L48.5462 58.0763L48.5542 60.4222ZM20.4922 45.4237L48.5588 61.7342L48.5668 64.0581L20.5003 47.7477L20.4922 45.4237ZM49.6909 61.7263L72.5167 48.5479L72.525 50.8862L49.699 64.0649L49.6909 61.7263ZM72.4994 43.5996L49.6737 56.7712L49.6657 54.446L72.4912 41.2674L72.4994 43.5996ZM48.5336 54.446L48.5392 56.0794L48.5416 56.7644L20.4748 40.4538L20.4666 38.1358C26.4707 41.6248 41.8489 50.5614 48.5336 54.446ZM20.5049 49.0596L48.5713 65.37L48.5794 67.6951L20.5131 51.3851L20.5049 49.0596ZM49.7115 67.7024L49.7034 65.3697L72.5295 52.1911L72.5377 54.5238L49.7115 67.7024Z" fill="white"/>
<path d="M51.2284 28.2594L52.7402 29.1383C53.0112 29.2956 53.3573 29.2036 53.5141 28.9338C53.6716 28.6635 53.5799 28.3169 53.3095 28.1599L51.7977 27.281C51.5274 27.1245 51.1808 27.2152 51.0238 27.4855C50.8663 27.7558 50.9581 28.1024 51.2284 28.2594Z" fill="white"/>
<path d="M31.5839 40.2573L48.617 30.4235C48.8879 30.267 48.9807 29.921 48.8243 29.6502C48.6668 29.3787 48.3202 29.2864 48.051 29.4429L31.0179 39.2767C30.747 39.4331 30.6542 39.7791 30.8106 40.05C30.9674 40.3216 31.3145 40.4129 31.5839 40.2573Z" fill="white"/>
<path d="M36.0271 42.8393L53.0602 33.0055C53.3311 32.8491 53.4239 32.503 53.2675 32.2322C53.1105 31.9608 52.7639 31.8679 52.4942 32.0249L35.4611 41.8587C35.1902 42.0151 35.0973 42.3612 35.2538 42.632C35.4106 42.9036 35.7577 42.9949 36.0271 42.8393Z" fill="white"/>
<path d="M56.9307 34.603L39.8977 44.4373C39.6268 44.5938 39.5339 44.9398 39.6904 45.2106C39.8472 45.4822 40.1943 45.5735 40.4637 45.4179L57.4968 35.5836C57.7676 35.4271 57.8605 35.0811 57.7041 34.8103C57.5471 34.5388 57.2005 34.446 56.9307 34.603Z" fill="white"/>
<path d="M44.3872 27.0715C44.2303 26.8006 43.8837 26.7083 43.6139 26.8642L26.5808 36.698C26.31 36.8544 26.2171 37.2005 26.3735 37.4713C26.5304 37.7429 26.8775 37.8342 27.1469 37.6786L44.18 27.8448C44.4508 27.6884 44.5437 27.3423 44.3872 27.0715Z" fill="white"/>
<path d="M61.3678 37.1817L44.3347 47.0155C44.0639 47.1719 43.971 47.518 44.1274 47.7888C44.2843 48.0604 44.6314 48.1517 44.9008 47.9961L61.9339 38.1623C62.2047 38.0059 62.2976 37.6598 62.1411 37.389C61.9836 37.1176 61.637 37.0258 61.3678 37.1817Z" fill="white"/>
<path d="M48.5645 50.3675C48.7214 50.6391 49.0684 50.7304 49.3378 50.5748L66.3704 40.7404C66.6412 40.584 66.7341 40.238 66.5777 39.9671C66.4207 39.6951 66.0735 39.6039 65.8043 39.7598L48.7718 49.5942C48.5009 49.7506 48.4081 50.0966 48.5645 50.3675Z" fill="white"/>
</svg>
