<svg width="93" height="92" viewBox="0 0 93 92" fill="none" xmlns="http://www.w3.org/2000/svg">
<rect x="0.5" width="92" height="92" rx="46" fill="black"/>
<path d="M38.8235 73.072C38.8234 73.072 38.8235 73.0721 38.8235 73.072C38.8242 73.0725 38.8249 73.0733 38.8257 73.0737C39.591 73.5156 40.4931 73.3324 41.2678 72.8852L59.0505 62.618C60.6911 61.6711 61.9724 59.4507 61.968 57.5635L61.8762 25.1363C61.8742 24.1687 61.5241 23.431 60.9054 23.0243C60.8828 23.005 60.8666 22.9803 60.8403 22.9644L54.1772 18.9187C53.494 18.5351 52.6251 18.602 51.7318 19.11L44.842 22.9993C44.5701 23.1529 44.4739 23.4984 44.6276 23.7704C44.7812 24.0434 45.1262 24.1374 45.3992 23.9854L52.289 20.0956C52.8274 19.7915 53.2994 19.7241 53.6057 19.896L58.689 22.9827C58.6051 23.0223 58.5204 23.0688 58.4357 23.1164C58.4153 23.1278 58.3954 23.1323 58.375 23.1441C56.5854 24.1768 64.8565 19.4036 40.8798 33.2405C40.7665 33.1717 34.9601 29.65 35.3274 29.8728L38.9572 27.705C39.2248 27.5447 39.3132 27.197 39.1529 26.9289C38.9915 26.6597 38.6444 26.5735 38.3757 26.7332L33.9348 29.386C33.9316 29.3879 33.9304 29.3918 33.9272 29.3937C32.3014 30.3453 31.0342 32.537 31.032 34.4068C31.0298 36.2782 31.1173 66.7395 31.1178 66.8539C31.13 67.876 31.5059 68.651 32.1637 69.0291C41.25 74.5463 38.159 72.6923 38.8235 73.072ZM58.4844 61.6374L40.7018 71.9046C39.5836 72.5516 38.902 72.067 38.8998 70.882L38.808 38.4553C38.8036 36.991 39.8793 35.1298 41.1584 34.3913C42.9778 33.3413 34.5687 38.1942 58.9454 24.1264C59.9625 23.5263 60.7418 23.8573 60.7442 25.1396L60.8359 57.5668C60.8392 59.0355 59.7624 60.8995 58.4844 61.6374ZM34.2362 30.54C34.3495 30.6086 40.2274 34.1694 39.8527 33.9425C39.8123 33.9775 39.7787 34.0237 39.7391 34.0602C38.8013 34.9224 38.0412 36.1758 37.7732 37.5106L32.177 34.1149C32.2973 32.8186 33.169 31.3076 34.2362 30.54ZM32.7397 68.0545C32.4312 67.8771 32.2566 67.4459 32.2499 66.8456L32.1626 35.4311L37.6759 38.7781L37.7655 70.8831C37.7655 70.9599 37.7677 71.0356 37.7721 71.1097L32.7397 68.0545Z" fill="white"/>
<path d="M41.0678 26.4861L43.1009 25.312C43.3717 25.1556 43.4646 24.8096 43.3076 24.5387C43.1517 24.2662 42.8057 24.1755 42.5348 24.3314L40.5017 25.5055C40.2309 25.6619 40.138 26.008 40.295 26.2788C40.4491 26.5485 40.7953 26.6425 41.0678 26.4861Z" fill="white"/>
<path d="M47.6712 33.5975L52.4659 30.8292C52.7368 30.6728 52.8296 30.3268 52.6726 30.0559C52.5168 29.784 52.1696 29.6916 51.8999 29.8486L47.1051 32.6169C46.8343 32.7733 46.7414 33.1194 46.8984 33.3902C47.0525 33.6599 47.3987 33.7539 47.6712 33.5975Z" fill="white"/>
<path d="M50.2283 60.8652C49.2521 61.4285 48.4903 62.7463 48.4926 63.8662C48.4972 65.2226 49.6308 65.8594 50.8031 65.1807C51.7727 64.6213 52.53 63.3062 52.5278 62.1863C52.5231 60.8336 51.4 60.1875 50.2283 60.8652ZM50.2371 64.2001C49.9961 64.3388 49.8325 64.3399 49.7684 64.3018C49.702 64.2642 49.6257 64.1266 49.6246 63.8629C49.6224 63.1487 50.1697 62.2062 50.7943 61.8458C50.948 61.7568 51.0696 61.7253 51.1547 61.7253C51.1967 61.7253 51.2299 61.7336 51.252 61.7463C51.3183 61.7839 51.3946 61.9232 51.3957 62.1896C51.3979 62.9038 50.8562 63.843 50.2371 64.2001Z" fill="white"/>
<path d="M34.4742 40.3668C34.1614 40.3673 33.9071 40.6216 33.9082 40.9345L33.9137 43.0925C33.9148 43.4042 34.168 43.6569 34.4798 43.6569C34.7926 43.6563 35.0469 43.402 35.0458 43.0892L35.0403 40.9311C35.0392 40.6194 34.786 40.3668 34.4742 40.3668Z" fill="white"/>
<path d="M34.4742 45.4683C34.1614 45.4689 33.9071 45.7232 33.9082 46.036L33.9137 48.1946C33.9148 48.5064 34.168 48.759 34.4798 48.759C34.7926 48.7584 35.0469 48.5041 35.0458 48.1913L35.0403 46.0327C35.0392 45.7209 34.786 45.4683 34.4742 45.4683Z" fill="white"/>
<path d="M53.8279 24.5437C54.9466 23.8954 54.9531 22.6481 53.818 21.9921C52.8959 21.4604 51.4554 21.4592 50.5378 21.9932C49.4147 22.6441 49.4171 23.8914 50.5478 24.5448C51.4834 25.0854 52.8971 25.0865 53.8279 24.5437ZM51.1061 22.9716C51.6759 22.6412 52.6775 22.6413 53.2519 22.9727C53.4465 23.0855 53.5361 23.2066 53.5361 23.2718C53.5361 23.3354 53.4498 23.4548 53.2597 23.5653C52.6793 23.9019 51.6964 23.9019 51.1138 23.5642C50.9192 23.4514 50.8297 23.3298 50.8297 23.264C50.8297 23.1988 50.9148 23.0827 51.1061 22.9716Z" fill="white"/>
<path d="M59.1079 28.5801C58.9333 28.4795 58.7177 28.48 58.543 28.5806L40.4619 39.0197C40.2861 39.1214 40.1777 39.3088 40.1788 39.5117L40.2507 64.8916C40.2518 65.0934 40.359 65.2796 40.5348 65.3808C40.7094 65.4814 40.9251 65.4809 41.0998 65.3802L59.1809 54.9412C59.3567 54.8395 59.465 54.6521 59.4639 54.4492L59.3921 29.0693C59.391 28.8675 59.2837 28.6812 59.1079 28.5801ZM41.3795 63.911L41.312 39.8361L58.2633 30.0499L58.3307 54.1247L41.3795 63.911Z" fill="white"/>
<path d="M47.9288 52.1718L44.4154 54.1999C44.2396 54.3016 44.1312 54.489 44.1323 54.6919L44.1445 58.7199C44.1456 58.9217 44.2528 59.108 44.4286 59.2091C44.6033 59.3097 44.8189 59.3092 44.9936 59.2086L48.5059 57.1804C48.6817 57.0787 48.79 56.8913 48.7889 56.6885L48.7778 52.6604C48.7755 52.2266 48.3062 51.9544 47.9288 52.1718ZM45.2733 57.7393L45.2655 55.0163L47.648 53.641L47.6557 56.364L45.2733 57.7393Z" fill="white"/>
<path d="M55.2153 48.2902C55.0407 48.1896 54.8251 48.1902 54.6504 48.2908L51.1447 50.315C50.9689 50.4167 50.8606 50.6041 50.8617 50.807L50.8728 54.835C50.8752 55.2725 51.3479 55.539 51.7218 55.3237L55.2275 53.2994C55.4033 53.1977 55.5105 53.0103 55.5105 52.8075L55.4995 48.7794C55.4983 48.5776 55.3911 48.3914 55.2153 48.2902ZM52.0026 53.8544L51.9949 51.1314L54.3696 49.76L54.3773 52.483L52.0026 53.8544Z" fill="white"/>
<path d="M55.1988 34.7518C55.0241 34.6511 54.8086 34.6517 54.6339 34.7523L44.4154 40.6515C44.2396 40.7532 44.1312 40.9406 44.1323 41.1434L44.1611 51.0176C44.1628 51.3309 44.4163 51.582 44.7271 51.582C44.8244 51.582 44.9228 51.5566 45.0101 51.5062L55.2276 45.6071C55.4033 45.5054 55.5117 45.318 55.5106 45.1151L55.4829 35.241C55.4818 35.0392 55.3746 34.8529 55.1988 34.7518ZM45.2655 41.4679L49.2565 39.1638V47.747L45.2898 50.037L45.2655 41.4679ZM50.3886 47.0934V38.5103L54.3531 36.2216L54.3774 44.7906L50.3886 47.0934Z" fill="white"/>
<path d="M52.7986 38.3514L51.367 39.1783C51.0961 39.3348 51.0032 39.6808 51.1602 39.9516C51.3143 40.2213 51.6606 40.3153 51.933 40.1589L53.3647 39.332C53.6355 39.1756 53.7284 38.8295 53.5714 38.5587C53.4155 38.2867 53.0684 38.1955 52.7986 38.3514Z" fill="white"/>
<path d="M52.7986 40.757L51.367 41.5834C51.0961 41.7398 51.0032 42.0859 51.1602 42.3567C51.3142 42.6254 51.6598 42.7209 51.933 42.564L53.3647 41.7376C53.6355 41.5812 53.7284 41.2352 53.5714 40.9643C53.4155 40.6929 53.0684 40.6 52.7986 40.757Z" fill="white"/>
<path d="M52.7986 43.1622L51.367 43.9886C51.0961 44.145 51.0032 44.491 51.1602 44.7619C51.3142 45.0305 51.6598 45.126 51.933 44.9692L53.3647 44.1428C53.6355 43.9863 53.7284 43.6403 53.5714 43.3695C53.4155 43.0975 53.0684 43.0063 52.7986 43.1622Z" fill="white"/>
<path d="M46.8452 43.0964L48.2769 42.27C48.5478 42.1135 48.6406 41.7675 48.4837 41.4967C48.3278 41.2258 47.9806 41.1329 47.7109 41.2894L46.2792 42.1158C46.0083 42.2722 45.9155 42.6182 46.0725 42.8891C46.2265 43.1577 46.572 43.2532 46.8452 43.0964Z" fill="white"/>
<path d="M47.7109 43.6945L46.2792 44.5208C46.0083 44.6773 45.9155 45.0233 46.0725 45.2942C46.2265 45.5628 46.572 45.6583 46.8452 45.5015L48.2769 44.6751C48.5478 44.5186 48.6406 44.1726 48.4837 43.9017C48.3278 43.6303 47.9806 43.5375 47.7109 43.6945Z" fill="white"/>
<path d="M47.7109 46.0995L46.2792 46.9259C46.0083 47.0824 45.9155 47.4284 46.0725 47.6993C46.2265 47.9679 46.572 48.0634 46.8452 47.9066L48.2769 47.0802C48.5478 46.9237 48.6406 46.5777 48.4837 46.3068C48.3278 46.0354 47.9806 45.9442 47.7109 46.0995Z" fill="white"/>
</svg>
