<svg width="93" height="92" viewBox="0 0 93 92" fill="none" xmlns="http://www.w3.org/2000/svg">
<rect x="0.5" width="92" height="92" rx="46" fill="black"/>
<path d="M63.1268 24.9874L58.4929 22.3761C58.4879 22.3733 58.482 22.373 58.4769 22.3702L52.8347 19.0832C52.1112 18.6808 51.1665 18.7593 50.2483 19.2982L31.7902 29.9534C31.7872 29.9552 31.786 29.9588 31.7831 29.9606C30.0277 30.9788 28.6576 33.3575 28.6632 35.3811C28.6636 35.5372 28.7551 67.1707 28.7555 67.2893C28.7555 68.3589 29.1634 69.2041 29.8704 69.6065L35.5242 72.9005C35.5284 72.903 35.5334 72.9018 35.5378 72.9041C36.3551 73.3727 37.3108 73.1726 38.1277 72.7004L61.2098 59.3741C62.9687 58.3582 64.3423 55.9785 64.3368 53.9559L64.3003 41.0393C64.2992 40.7275 64.046 40.4749 63.7343 40.4749H63.7326C63.4203 40.476 63.1671 40.7297 63.1682 41.0426L63.2047 53.9592C63.2092 55.5589 62.0362 57.5892 60.6437 58.3935L60.2424 58.6252L60.2082 46.4797C60.2035 44.9555 58.9632 44.2365 57.6284 45.0049L40.6119 54.8298C39.4853 55.4799 38.6059 57.0039 38.6097 58.299L38.6459 71.0938L37.5617 71.7197C36.9868 72.052 36.4556 72.1249 36.1013 71.9226C36.0282 71.8805 35.9656 71.819 35.906 71.7528C35.6811 71.499 35.5518 71.0925 35.5518 70.5816L35.4611 38.6668C35.4611 38.6635 35.4588 38.661 35.4587 38.6578C35.4594 37.0566 36.6275 35.0327 38.0156 34.2292L38.0199 34.228L40.1746 32.9842L40.147 42.566C40.147 44.0126 41.3358 44.7029 42.5924 43.9712L54.4002 37.161C55.4571 36.5419 56.2846 35.1108 56.2857 33.9024L56.3205 23.6635L56.4814 23.5706C56.7572 23.4091 57.0284 23.3096 57.2753 23.273C57.2785 23.2725 57.2823 23.2709 57.2854 23.2704C57.5348 23.2349 57.7586 23.2652 57.9352 23.3644C57.9392 23.3667 57.9439 23.3664 57.948 23.3686L62.5685 25.9718C62.9228 26.1742 63.1273 26.6678 63.1296 27.3256L63.1423 31.8915C63.1434 32.2032 63.3965 32.4558 63.7083 32.4558H63.71C64.0223 32.4547 64.2754 32.201 64.2743 31.8881L64.2616 27.3223C64.2583 26.2322 63.8559 25.4036 63.1268 24.9874ZM41.1779 55.8104L58.1944 45.9855C58.4658 45.829 58.7113 45.7837 58.8539 45.8644C58.9921 45.944 59.075 46.1751 59.0761 46.483L59.112 59.2769L39.7761 70.4401L39.7418 58.2957C39.739 57.3991 40.3968 56.2609 41.1779 55.8104ZM50.8177 20.2766C51.3848 19.9439 51.9194 19.8698 52.2753 20.0671L56.2813 22.4009C56.176 22.4481 56.0709 22.5049 55.9659 22.5643C55.9478 22.5744 55.9302 22.5784 55.912 22.5889C33.0605 35.7817 43.9889 29.4727 37.7366 33.0825C37.62 33.0147 32.9085 30.2748 33.202 30.4454L50.8177 20.2766ZM32.087 31.1087C32.2003 31.1745 36.9637 33.9427 36.6949 33.7864C35.6389 34.6879 34.691 36.24 34.4146 37.7342L29.8099 35.0562C29.9367 33.6202 30.905 31.9407 32.087 31.1087ZM30.4348 68.6253C30.0871 68.4274 29.8876 67.9404 29.8876 67.2876L29.8002 36.3656L34.3267 38.996C34.4252 70.0849 34.3951 70.5151 34.4374 70.9569L30.4348 68.6253ZM55.1536 33.9008C55.1536 34.7172 54.5461 35.7631 53.8308 36.1826L42.0247 42.9917C41.7931 43.1271 41.5776 43.1686 41.4631 43.1044C41.3498 43.0392 41.2791 42.8325 41.2791 42.5677L41.3084 32.3297L42.9639 31.3739V38.3887C42.965 39.0532 43.5974 39.4639 44.232 39.0968L46.8471 37.4667C47.2379 37.2417 47.5315 36.7332 47.5304 36.2843V28.7378L48.9377 27.9254V34.9417C48.9412 35.6148 49.5788 36.011 50.2052 35.6487L52.8231 34.018C53.2134 33.7913 53.5064 33.2822 53.5042 32.8362V25.2893L55.1862 24.3183C55.1666 30.0809 55.1731 28.1796 55.1536 33.9008ZM46.3983 29.415V36.2838C46.395 36.3391 46.327 36.4568 46.2656 36.496L44.096 37.8481V30.7439L46.3983 29.415ZM52.3721 25.9669V32.8367C52.3688 32.892 52.3002 33.0092 52.24 33.0479L50.0698 34.3999V27.2957L52.3721 25.9669Z" fill="white"/>
<path d="M63.715 34.2009C63.4026 34.202 63.1495 34.4558 63.1506 34.7686L63.1589 37.7403C63.16 38.0521 63.4131 38.3047 63.7249 38.3047H63.7266C64.0389 38.3036 64.292 38.0499 64.2909 37.737L64.2827 34.7653C64.2815 34.4535 64.0284 34.2009 63.7166 34.2009H63.715Z" fill="white"/>
<path d="M43.5255 58.5654L55.8954 51.4231C56.1663 51.2667 56.2592 50.9206 56.1027 50.6498C55.9452 50.3784 55.5986 50.2855 55.3294 50.4425L42.9595 57.5848C42.6886 57.7413 42.5958 58.0873 42.7522 58.3582C42.909 58.6297 43.2561 58.7211 43.5255 58.5654Z" fill="white"/>
<path d="M43.5255 62.4006L55.8954 55.2587C56.1663 55.1023 56.2592 54.7563 56.1027 54.4854C55.9452 54.2135 55.5986 54.1217 55.3294 54.2781L42.9595 61.4199C42.6886 61.5764 42.5958 61.9224 42.7522 62.1933C42.909 62.4648 43.2561 62.5562 43.5255 62.4006Z" fill="white"/>
<path d="M43.5255 66.2357L55.8954 59.0939C56.1663 58.9375 56.2592 58.5914 56.1027 58.3206C55.9452 58.0492 55.5986 57.9563 55.3294 58.1133L42.9595 65.2551C42.6886 65.4115 42.5958 65.7576 42.7522 66.0284C42.909 66.3 43.2561 66.3913 43.5255 66.2357Z" fill="white"/>
</svg>
