<svg width="93" height="92" viewBox="0 0 93 92" fill="none" xmlns="http://www.w3.org/2000/svg">
<rect x="0.5" width="92" height="92" rx="46" fill="black"/>
<path d="M39.9195 51.6781L41.5557 50.7328C41.8266 50.5764 41.9194 50.2298 41.763 49.9595C41.606 49.6875 41.26 49.5958 40.9897 49.7522L39.3535 50.6974C39.0826 50.8539 38.9897 51.2005 39.1462 51.4708C39.303 51.7424 39.6501 51.8337 39.9195 51.6781Z" fill="white"/>
<path d="M28.2279 68.5547C28.2284 68.7559 28.3356 68.9417 28.5092 69.0423C28.624 69.109 35.5948 73.1596 35.4804 73.0932L35.4819 73.0946C35.654 73.1938 35.8702 73.1961 36.0474 73.0941C42.3972 69.428 55.6834 61.7573 64.5206 56.6552C64.7663 56.5131 64.7519 56.3309 64.8036 56.1632L64.7108 23.4458C64.6619 23.2581 64.6925 23.1341 64.4477 22.9767C64.3338 22.9034 57.345 18.8151 57.4584 18.907C57.2821 18.8048 57.0659 18.8048 56.8907 18.9059L47.2421 24.4767C47.0651 24.5792 46.9596 24.7677 46.9591 24.9665C46.9587 25.0886 47.0188 46.1529 47.0195 46.2712L42.6568 48.7898C42.386 48.9463 42.2931 49.2923 42.4496 49.5632C42.606 49.8346 42.952 49.9263 43.2229 49.7704L47.5853 47.2515C47.6999 47.3181 53.8155 50.8726 53.4276 50.6471C45.5869 55.1739 40.8835 57.8894 35.7337 60.8626C35.6191 60.796 29.5038 57.2418 29.8917 57.4672L38.2319 52.652C38.5028 52.4956 38.5956 52.1496 38.4392 51.8787C38.2828 51.6073 37.9351 51.5144 37.6659 51.6714L28.4794 56.9753C28.2795 57.091 28.1966 57.351 28.1964 57.465L28.1966 57.4661L28.1964 57.4672L28.2279 68.5547ZM29.3312 58.4508L35.1677 61.843L35.1955 71.6187L29.3588 68.2269L29.3312 58.4508ZM63.5815 24.4264L63.592 28.1476L61.4853 29.3638C61.2145 29.5202 61.1216 29.8663 61.2781 30.1371C61.4349 30.4087 61.782 30.5 62.0514 30.3444L63.5957 29.4528L63.6043 32.5057L61.4853 33.7296C61.2145 33.886 61.1216 34.232 61.2781 34.5029C61.4349 34.7745 61.782 34.8658 62.0514 34.7102L63.6081 33.8111L63.6167 36.8643L60.4915 38.6691C60.2206 38.8256 60.1277 39.1716 60.2842 39.4425C60.441 39.7141 60.7881 39.8054 61.0575 39.6498L63.6204 38.1697L63.6291 41.2229L61.4853 42.4606C61.2145 42.617 61.1216 42.9631 61.2781 43.2339C61.4349 43.5055 61.782 43.5968 62.0514 43.4412L63.6327 42.5282L63.6414 45.5816L61.4853 46.8264C61.2145 46.9828 61.1216 47.3289 61.2781 47.5997C61.4349 47.8713 61.782 47.9626 62.0514 47.807L63.6451 46.8869L63.6537 49.9403L61.4853 51.1922C61.2145 51.3486 61.1216 51.6946 61.2781 51.9655C61.4349 52.2371 61.782 52.3284 62.0514 52.1728L63.6575 51.2455L63.6686 55.1891L55.122 50.3191L55.0632 29.3446C55.2888 29.2143 64.1143 24.1188 63.5815 24.4264ZM48.0939 25.9522L53.931 29.3445L53.9879 49.6634L48.1514 46.2712L48.0939 25.9522ZM54.5587 51.3015L63.0998 56.1682L59.3586 58.3281L59.3544 56.9288C59.3533 56.6165 59.1001 56.3645 58.7884 56.3645H58.7867C58.4738 56.3656 58.2212 56.6198 58.2223 56.9322L58.2286 58.9806L56.0307 60.2495L56.0267 58.8503C56.0256 58.5385 55.7724 58.2859 55.4607 58.2859H55.459C55.1467 58.287 54.8935 58.5407 54.8946 58.8536L54.9004 60.9021L52.7024 62.171L52.6985 60.7717C52.6974 60.4599 52.4442 60.2073 52.1325 60.2073H52.1308C51.8185 60.2084 51.5653 60.4621 51.5664 60.775L51.5721 62.8236L49.3747 64.0922L49.3669 61.3156C49.3658 61.0039 49.1127 60.7512 48.8009 60.7512C48.4576 60.7358 48.2338 61.0055 48.2349 61.3189L48.2445 64.7447L46.0465 66.0138L46.0426 64.6146C46.0415 64.3028 45.7883 64.0502 45.4765 64.0502H45.4749C45.1626 64.0513 44.9094 64.305 44.9105 64.6179L44.9162 66.6663L42.7188 67.9349L42.7149 66.536C42.7138 66.2242 42.4606 65.9716 42.1488 65.9716H42.1472C41.8349 65.9727 41.5817 66.2264 41.5828 66.5393L41.5885 68.5875L39.3906 69.8564L39.3867 68.4574C39.3855 68.1457 39.1324 67.8931 38.8206 67.8931H38.819C38.5066 67.8942 38.2535 68.1479 38.2546 68.4607L38.2603 70.509L36.3276 71.6248L36.3 61.8431L54.5587 51.3015ZM57.1726 20.0502L63.0154 23.4458L54.4969 28.3641C54.3823 28.2975 48.5398 24.9021 48.6544 24.9687L57.1726 20.0502Z" fill="white"/>
</svg>
