<svg width="93" height="92" viewBox="0 0 93 92" fill="none" xmlns="http://www.w3.org/2000/svg">
<rect x="0.5" width="92" height="92" rx="46" fill="black"/>
<path d="M29.8363 35.507C29.8363 39.8667 31.5056 43.9865 34.5359 47.1069C35.9901 48.6089 37.024 52.5029 37.4213 54.32C36.8305 55.0929 36.5155 55.9275 36.4996 56.7832C36.4727 56.9882 36.4888 58.0519 36.4743 60.3679C36.4737 60.3781 36.4684 60.3868 36.4684 60.3971C36.4684 60.4201 36.4736 60.4425 36.474 60.4654L36.4629 63.9409C36.4629 66.2795 38.5169 67.9592 40.6782 68.8785C41.4825 71.413 43.8278 73.1672 46.5045 73.1672C49.1587 73.1672 51.4891 71.4371 52.2949 68.9362C54.4594 68.0279 56.5229 66.3696 56.5229 64.0322C56.5232 63.8949 56.5419 56.9441 56.5106 56.8029C56.4848 55.8817 56.1229 54.9866 55.4419 54.1658C55.6423 51.4762 56.7595 48.9266 58.6555 46.9112C62.6266 42.6891 64.0931 36.7374 62.5786 30.9892C62.0916 29.1484 61.2956 27.4232 60.2116 25.8611C60.0341 25.6052 59.6809 25.5405 59.4239 25.719C59.1674 25.897 59.1033 26.2497 59.2818 26.5067C60.2901 27.96 61.0308 29.5658 61.4841 31.2783C62.8981 36.6457 61.5327 42.1999 57.8308 46.1351C55.7117 48.3882 54.4846 51.2539 54.3047 54.2717C54.3035 54.283 54.2942 54.2913 54.2936 54.3028C54.2391 55.4072 54.3984 56.7257 52.1041 57.9467C49.6815 59.3607 45.4517 59.7791 42.1386 58.5297C40.6243 57.9557 38.8242 56.802 38.7276 55.1862C38.7276 55.1854 38.7251 55.1705 38.7246 55.1672C38.7176 55.0122 38.6131 54.4917 38.5794 54.3288C38.5758 54.3113 38.5608 54.3001 38.5556 54.2832C38.1676 52.4181 37.1109 48.1393 35.349 46.3192C32.5238 43.4105 30.9683 39.5709 30.9683 35.507C30.9683 25.3378 40.58 17.7059 50.9632 20.5799C52.1815 20.9171 53.3561 21.4113 54.4534 22.0475C54.7248 22.204 55.0703 22.1122 55.2273 21.8419C55.3842 21.571 55.2919 21.225 55.0216 21.068C53.8403 20.3831 52.5767 19.8519 51.265 19.4887C40.0945 16.395 29.8363 24.6616 29.8363 35.507ZM41.7635 59.5898C45.335 60.9197 49.8717 60.5567 52.6602 58.9367C54.1309 58.1417 54.9334 57.0781 55.2366 56.0962C55.2419 56.0793 55.251 56.0632 55.256 56.0463C55.3958 56.4658 55.4351 56.8937 55.3699 57.3187C55.2024 58.4105 54.3412 59.4591 52.9443 60.2705C49.4331 62.3053 43.6859 62.2948 40.1305 60.2468C38.7187 59.4331 37.8387 58.3867 37.6524 57.3011C37.5806 56.8815 37.6126 56.4586 37.7442 56.0435C37.7535 56.0738 37.7732 56.1018 37.7832 56.1319C38.3563 57.83 40.0744 58.9642 41.7635 59.5898ZM55.3967 60.4865C55.3885 61.7248 54.5161 62.9091 52.9371 63.8221C49.4314 65.8624 43.6821 65.853 40.12 63.8005C38.5228 62.8794 37.6357 61.6956 37.6061 60.4604L37.6087 59.6427C38.1108 60.2283 38.7654 60.7662 39.5656 61.2274C43.4364 63.4577 49.6934 63.4634 53.5126 61.2495C53.5131 61.2495 53.5131 61.2495 53.5137 61.249C54.2817 60.8027 54.9104 60.2825 55.3979 59.7166L55.3967 60.4865ZM46.5045 72.0352C44.6362 72.0352 42.9563 70.9915 42.1 69.3935C44.8484 70.1994 48.1236 70.2166 50.8731 69.4383C50.0196 71.0092 48.3541 72.0352 46.5045 72.0352ZM55.3909 64.031C55.3909 65.9253 53.4249 67.28 51.6414 67.9871C51.6409 67.9873 51.6403 67.987 51.6398 67.9872C48.5592 69.2017 44.42 69.1796 41.3394 67.9331C41.3392 67.933 41.3396 67.9331 41.3394 67.9331C41.3388 67.9328 41.3378 67.9322 41.3372 67.932C39.5638 67.2217 37.595 65.8404 37.595 63.9426L37.5973 63.2009C38.0967 63.7813 38.748 64.3161 39.5545 64.7812C43.4254 67.0121 49.6854 67.0247 53.5054 64.8011C54.2782 64.3541 54.9068 63.8405 55.3921 63.2818L55.3909 64.031Z" fill="white"/>
<path d="M58.6456 24.7589C58.8728 24.5444 58.8833 24.1862 58.6688 23.9585C58.2211 23.4842 57.7379 23.0309 57.2333 22.6114C56.9923 22.4113 56.6352 22.4455 56.4362 22.6849C56.2366 22.9253 56.2698 23.2824 56.5102 23.4825C56.9795 23.8728 57.4289 24.294 57.8452 24.7357C58.0621 24.9644 58.4189 24.9718 58.6456 24.7589Z" fill="white"/>
</svg>
