<svg width="93" height="92" viewBox="0 0 93 92" fill="none" xmlns="http://www.w3.org/2000/svg">
<rect x="0.5" width="92" height="92" rx="46" fill="black"/>
<path d="M20.5637 53.9612L20.562 53.9623C20.4488 54.0278 20.2807 54.2639 20.2801 54.4499L20.2492 66.2333C20.2486 66.4362 20.3564 66.6236 20.5322 66.7253L22.9041 68.0945C23.1728 68.2493 23.5205 68.1575 23.6775 67.8872C23.8339 67.6163 23.741 67.2703 23.4702 67.1139L21.3824 65.9088L21.4094 55.4305C23.7312 56.7709 28.9398 59.778 31.3107 61.1468C31.3104 61.2679 31.2818 72.0302 31.2829 71.625L28.1693 69.8269C27.8979 69.6699 27.5518 69.7627 27.396 70.0342C27.2395 70.305 27.3324 70.651 27.6032 70.8075L31.5633 73.0943C31.7404 73.1963 31.9565 73.1941 32.1288 73.0948C32.1294 73.0945 32.1296 73.0937 32.1302 73.0934C32.13 73.0935 32.1304 73.0933 32.1302 73.0934L43.0969 66.7203C43.271 66.6197 43.3782 66.434 43.3788 66.2327L43.4103 54.4493C43.4103 54.4489 43.41 54.4486 43.41 54.4482C43.41 54.4478 43.4103 54.4475 43.4103 54.4471C43.4098 54.2483 43.3042 54.0598 43.1273 53.9574L32.0956 47.5883C31.9204 47.4866 31.7043 47.4866 31.5279 47.5894L20.5637 53.9612ZM42.2478 65.905L32.4151 71.6189C32.4159 71.3278 32.4438 60.8467 32.443 61.1468C33.492 60.5372 41.3717 55.9579 42.2754 55.4327L42.2478 65.905ZM31.8137 48.7326L41.7149 54.4493L31.8771 60.1664L21.9756 54.4499L31.8137 48.7326Z" fill="white"/>
<path d="M26.0632 69.9186C26.1522 69.97 26.2495 69.9944 26.3457 69.9944C26.5414 69.9944 26.7315 69.8932 26.8366 69.7113C26.993 69.4405 26.9001 69.0944 26.6293 68.938L25.1418 68.079C24.8704 67.922 24.5243 68.0149 24.3684 68.2863C24.212 68.5572 24.3049 68.9032 24.5757 69.0596L26.0632 69.9186Z" fill="white"/>
<path d="M21.0474 25.2785L21.0465 25.2794L21.0452 25.2801C20.8953 25.3671 20.7642 25.6544 20.7638 25.7677L20.7323 37.5506C20.7317 37.7534 20.8395 37.9408 21.0153 38.0425L32.0464 44.4116C32.2235 44.5135 32.4396 44.5113 32.6119 44.4121L32.6134 44.4107C49.5374 34.5755 41.1578 39.4452 43.58 38.0375C43.7541 37.9369 43.8614 37.7512 43.8619 37.55L43.8934 25.7671L43.8931 25.766L43.8934 25.7649C43.8929 25.5661 43.7873 25.3776 43.6104 25.2752L32.5793 18.9061C32.4035 18.8044 32.1868 18.8044 32.0122 18.9072L21.0486 25.2781L21.0474 25.2785ZM21.8931 26.7483C26.8444 29.607 31.2155 32.1307 31.7938 32.4646C31.7935 32.5857 31.7656 43.1198 31.766 42.9422L21.8655 37.2261L21.8931 26.7483ZM42.7309 37.2222L32.8982 42.9362C32.899 42.645 32.9268 32.1852 32.9261 32.4646C33.9751 31.855 41.8548 27.2757 42.7586 26.7505L42.7309 37.2222ZM32.2974 20.0504L42.1981 25.7671L32.3602 31.4842L22.4592 25.7677L32.2974 20.0504Z" fill="white"/>
<path d="M71.9847 53.9574L60.953 47.5883C60.7778 47.4866 60.5617 47.4866 60.3853 47.5894L49.4216 53.9611L49.4195 53.9623C49.3062 54.0278 49.1381 54.2639 49.1376 54.4499L49.1061 66.2333C49.1055 66.4362 49.2133 66.6236 49.3891 66.7253L60.4207 73.0943C60.5978 73.1963 60.814 73.1941 60.9862 73.0948C62.11 72.4476 56.9236 75.4552 71.9543 66.7203C72.1284 66.6197 72.2357 66.434 72.2362 66.2327C72.2558 58.8323 72.2673 54.2817 72.2677 54.4471C72.2672 54.2483 72.1616 54.0598 71.9847 53.9574ZM60.6711 48.7326L70.5724 54.4493L60.7345 60.1664L50.833 54.4499L60.6711 48.7326ZM50.2669 55.4305C52.5886 56.7709 57.7972 59.778 60.1681 61.1468C60.1678 61.2679 60.1393 72.0302 60.1403 71.625L50.2392 65.9088L50.2669 55.4305ZM71.1052 65.905L61.2725 71.6189C61.2733 71.3278 61.3012 60.8467 61.3004 61.1468C62.3494 60.5372 70.2291 55.9579 71.1329 55.4327L71.1052 65.905Z" fill="white"/>
<path d="M60.8685 18.9072L49.9047 25.2789L49.9026 25.2801C49.7894 25.3456 49.6213 25.5817 49.6207 25.7677L49.5897 37.5506C49.5892 37.7534 49.697 37.9408 49.8727 38.0425L60.9038 44.4116C61.0809 44.5135 61.2971 44.5113 61.4693 44.4121C61.47 44.4118 61.4702 44.411 61.4708 44.4107C78.3948 34.5755 70.0153 39.4452 72.4374 38.0375C72.6115 37.9369 72.7188 37.7512 72.7193 37.55C72.7389 30.1496 72.7504 25.5995 72.7508 25.7649C72.7503 25.5661 72.6448 25.3776 72.4678 25.2752L61.4362 18.9061C61.2604 18.8044 61.0442 18.8044 60.8685 18.9072ZM50.75 26.7483L53.4082 28.2829L60.6512 32.4646C60.6509 32.5857 60.623 43.1198 60.6235 42.9422L50.7229 37.2261L50.75 26.7483ZM71.5884 37.2222L61.7557 42.9362C61.7564 42.645 61.7843 32.1852 61.7835 32.4646C62.8325 31.855 70.7122 27.2757 71.616 26.7505L71.5884 37.2222ZM61.2176 31.4842L51.3161 25.7677L61.1543 20.0504L71.0555 25.7671L61.2176 31.4842Z" fill="white"/>
</svg>
