<svg width="93" height="92" viewBox="0 0 93 92" fill="none" xmlns="http://www.w3.org/2000/svg">
<rect x="0.5" width="92" height="92" rx="46" fill="black"/>
<path d="M43.6615 55.2989L60.1589 45.7746C60.3347 45.6729 60.4425 45.4855 60.442 45.2826L60.4138 35.4483C60.4132 35.2465 60.3049 35.0602 60.1302 34.9591C59.955 34.8585 59.7388 34.859 59.5647 34.9596L43.0673 44.4839C42.8915 44.5856 42.7837 44.773 42.7842 44.9759L42.8124 54.8102C42.8136 55.2458 43.2863 55.515 43.6615 55.2989ZM59.2845 36.4289L59.3088 44.9582L43.9417 53.8296L43.9174 45.3003L59.2845 36.4289Z" fill="white"/>
<path d="M59.5929 49.0144L43.0955 58.5386C42.8246 58.6951 42.7317 59.0411 42.8882 59.312C43.045 59.5836 43.3921 59.6749 43.6615 59.5193L60.159 49.995C60.4298 49.8386 60.5227 49.4925 60.3663 49.2217C60.2093 48.9503 59.8616 48.8574 59.5929 49.0144Z" fill="white"/>
<path d="M59.5929 53.2348L43.0955 62.7591C42.8246 62.9155 42.7317 63.2615 42.8882 63.5324C43.045 63.804 43.3921 63.8953 43.6615 63.7397L60.159 54.2154C60.4298 54.059 60.5227 53.713 60.3663 53.4421C60.2093 53.1707 59.8616 53.0778 59.5929 53.2348Z" fill="white"/>
<path d="M28.892 45.9415C29.2043 45.9404 29.4575 45.6867 29.4564 45.3738L29.4503 43.2153C29.4492 42.9035 29.196 42.6509 28.8843 42.6509H28.8826C28.5703 42.652 28.3171 42.9057 28.3182 43.2186L28.3243 45.3772C28.3254 45.6889 28.5786 45.9415 28.8904 45.9415H28.892Z" fill="white"/>
<path d="M28.3127 41.2728C28.3138 41.5846 28.567 41.8372 28.8787 41.8372H28.8804C29.1927 41.8361 29.4459 41.5824 29.4448 41.2695L29.4265 34.8029C29.543 34.8705 39.1007 40.4197 38.5146 40.0794L38.5489 51.1787L38.607 71.62L29.5155 66.3366L29.463 47.7441C29.4619 47.4324 29.2087 47.1798 28.897 47.1798H28.8953C28.583 47.1809 28.3298 47.4346 28.3309 47.7474L28.3846 66.6644C28.3851 66.8656 28.4923 67.0513 28.6659 67.1519L38.8911 73.0942C39.0686 73.1974 39.2848 73.1955 39.4588 73.0953C40.9194 72.2541 64.2972 58.7585 64.4263 58.6813C64.6021 58.5796 64.7099 58.3922 64.7094 58.1893L64.6193 25.3364C64.6187 25.1688 64.4478 24.9125 64.3379 24.8489L64.3366 24.8481L64.3357 24.8472L64.3345 24.8469L61.4961 23.1961C61.3209 23.0933 61.1036 23.0944 60.9284 23.195L57.2355 25.3277L57.2265 21.0464C57.2258 20.8162 57.0591 20.625 56.9457 20.5588C56.3388 20.2044 53.9704 18.8213 54.1155 18.9061C53.9403 18.8032 53.7225 18.8038 53.5473 18.9044C51.9888 19.8042 26.989 34.2394 28.5747 33.3223C28.3987 33.4241 28.2906 33.7036 28.2906 33.8171C28.2906 33.9333 28.312 41.3891 28.3127 41.2728ZM56.0966 22.0265L56.1049 25.9743C55.8403 26.1273 38.9874 35.8677 39.1031 35.8008L35.68 33.8082L56.0966 22.0265ZM48.8079 34.1455L48.8592 38.389L47.3474 37.5427C47.087 37.3979 46.757 37.4792 46.5945 37.7312L44.8786 40.4042C44.8762 40.1612 44.8394 36.5269 44.8417 36.7517C44.8395 36.5566 44.7377 36.3764 44.5714 36.2747L42.6168 35.0779L46.5261 32.8184L48.8079 34.1455ZM39.7446 71.6238L39.6777 50.0786L39.6493 40.0746L43.7195 37.7285C43.7222 37.9991 43.769 42.6061 43.766 42.312V42.3137C43.772 42.8627 44.4607 43.0578 44.7771 42.6392C44.949 42.4109 46.623 39.7818 47.2606 38.7942L49.1616 39.8588C49.3374 39.9578 49.5535 39.9545 49.7271 39.8511C49.9012 39.7477 50.0062 39.5598 50.004 39.3575C50.0024 39.2274 49.9358 33.8027 49.94 34.1422L63.49 26.3171L63.5762 57.8648L39.7446 71.6238ZM61.2103 24.3398L62.9243 25.3363C59.0287 27.586 53.4959 30.7811 49.3741 33.1614L47.6602 32.1646L61.2103 24.3398ZM53.8286 20.0492L55.5327 21.0447L34.2683 33.3157C34.0936 33.4169 33.9858 33.6031 33.9852 33.8049C33.9847 34.0067 34.0919 34.1935 34.2666 34.2952L38.8176 36.9446C38.923 37.0063 39.0414 37.0186 39.1588 37.0063C39.2368 36.9982 39.3154 36.986 39.3853 36.9457C39.5801 36.8331 41.6483 35.6377 41.4975 35.7249L43.1579 36.7456C43.043 36.8118 38.8701 39.2168 39.0807 39.0955C38.9642 39.0278 29.4045 33.476 29.9906 33.8164L53.8286 20.0492Z" fill="white"/>
</svg>
