<svg width="93" height="92" viewBox="0 0 93 92" fill="none" xmlns="http://www.w3.org/2000/svg">
<rect x="0.5" width="92" height="92" rx="46" fill="black"/>
<path d="M55.0329 21.4827L53.3784 22.4373C53.1076 22.5938 53.0147 22.9398 53.1711 23.2106C53.3291 23.4833 53.6762 23.5729 53.9445 23.4179L55.5989 22.4633C55.8698 22.3069 55.9626 21.9608 55.8062 21.69C55.6498 21.4197 55.3021 21.3262 55.0329 21.4827Z" fill="white"/>
<path d="M65.9296 49.7591L65.8716 23.2615C65.8689 22.328 65.5276 21.6157 64.9186 21.2348C64.7676 21.1259 62.4989 19.8188 61.2211 19.072C60.5678 18.6951 59.748 18.757 58.9094 19.2451L56.5651 20.5977C56.2943 20.7541 56.2014 21.1002 56.3578 21.371C56.5137 21.6408 56.8609 21.7342 57.1312 21.5783L59.4771 20.2246C59.9514 19.9476 60.3693 19.8874 60.6534 20.0516L62.7429 21.2665C62.6838 21.2964 62.6241 21.3279 62.5649 21.3616L33.4449 38.1769C31.8645 39.0892 30.7177 41.2324 30.7225 42.9042L30.7489 54.9482C30.7808 69.8592 30.768 69.2776 30.7828 69.5727L28.685 68.3527C28.4164 68.2001 28.2627 67.8093 28.2627 67.2798L28.2024 40.7722C28.1947 39.4301 29.182 37.7165 30.356 37.0321L52.1225 24.4693C52.3934 24.3129 52.4862 23.9668 52.3298 23.696C52.1728 23.4251 51.8251 23.3328 51.5565 23.4887L29.7878 36.0526C28.2539 36.947 27.0604 39.0232 27.0704 40.7766L27.1306 67.2809C27.1306 68.2422 27.4838 68.9718 28.1206 69.3339C29.566 70.174 31.9343 71.5506 31.7833 71.4637C32.5117 71.8826 33.3594 71.7109 34.0873 71.2912L38.623 68.6725L42.8304 72.2862C44.1576 73.3738 46.5676 73.4427 48.0121 72.5864L56.2379 67.8115C56.9493 67.4069 57.3667 66.8 57.3843 66.1306V63.244C57.3843 63.2376 57.3809 63.2323 57.3807 63.226C57.384 62.312 56.5744 61.5921 55.7211 61.29L53.1422 60.2899L63.2056 54.4798C64.7379 53.5948 65.9346 51.5208 65.9296 49.7591ZM56.2523 66.1156C56.2456 66.3644 56.0367 66.6236 55.6741 66.8298L47.4394 71.6096C46.3648 72.2468 44.4784 72.166 43.5573 71.4184L39.6664 68.0763L40.6409 67.5097C42.946 69.4881 42.8555 69.4573 43.2964 69.7263C44.678 70.5002 46.755 70.4383 48.017 69.7138C48.0191 69.7126 48.0217 69.712 48.0237 69.7109L56.2523 64.9344V66.1156ZM55.6846 63.9433L47.4566 68.7308C46.5345 69.2622 44.924 69.3283 43.8503 68.7275C42.1251 67.2826 41.5671 66.8152 41.6829 66.9122L51.8854 61.0169L55.3269 62.3513C56.2443 62.6775 56.676 63.3703 55.6846 63.9433ZM33.5212 70.3106C33.0536 70.5804 32.6268 70.6423 32.3482 70.4825C32.073 70.3239 31.9143 69.9287 31.9126 69.3991L31.8811 54.9725L31.8574 42.8976C31.8501 41.6366 32.7922 39.8628 34.0132 39.1581L63.131 22.3467C64.0459 21.82 64.7359 22.0949 64.7395 23.2643L64.7976 49.7619C64.8014 51.1101 63.8131 52.8215 62.6395 53.4992L33.5212 70.3106Z" fill="white"/>
<path d="M62.5423 25.231C62.367 25.1299 62.1509 25.131 61.9768 25.231L34.0519 41.3537C33.8761 41.4554 33.7683 41.6428 33.7689 41.8457L33.8269 64.8752C33.8275 65.077 33.9352 65.2633 34.1105 65.3639C34.2856 65.4647 34.5006 65.4649 34.676 65.3639L62.6003 49.2417C62.7761 49.14 62.8839 48.9526 62.8833 48.7498L62.8258 25.7197C62.8253 25.5179 62.7175 25.3316 62.5423 25.231ZM34.9568 63.8946L34.9015 42.1701L61.696 26.7003L61.7507 48.4253L34.9568 63.8946Z" fill="white"/>
<path d="M48.9082 58.6963L47.2355 59.662C46.9646 59.8185 46.8718 60.1645 47.0282 60.4354C47.185 60.7069 47.5321 60.7983 47.8015 60.6427L49.4742 59.677C49.7451 59.5205 49.8379 59.1745 49.6815 58.9036C49.5245 58.6317 49.1785 58.5388 48.9082 58.6963Z" fill="white"/>
<path d="M46.6141 43.5095L44.2057 44.9003L43.4948 42.7931C43.4235 42.5903 43.2721 42.4327 43.0781 42.3609C42.8691 42.284 42.6375 42.3089 42.4252 42.4311L42.4236 42.4322C42.171 42.5786 41.9775 42.8429 41.9051 43.1403L41.0599 46.7161L38.2468 48.3402C37.8859 48.5486 37.6537 49.0068 37.7073 49.4054C37.7477 49.7066 37.9478 49.9399 38.2314 50.0145L40.1285 50.507L39.3485 53.7701C39.2062 54.3456 39.5847 54.7579 40.0317 54.7579C40.3324 54.7579 40.5913 54.5801 40.7636 54.3366L42.9598 51.219L45.0177 51.7524C45.2079 51.8016 45.4135 51.7701 45.5959 51.6657C45.9685 51.4506 46.2593 50.91 46.0989 50.4545L45.2615 47.9825L47.5085 44.7886C47.7899 44.3978 47.8004 43.9197 47.5345 43.625C47.304 43.3708 46.9342 43.3254 46.6141 43.5095ZM44.3212 47.3513C44.1101 47.6558 44.0537 48.0041 44.1565 48.2457L44.9409 50.5629L42.9913 50.0593C42.8105 50.0267 42.6215 50.0621 42.4457 50.1632C42.3235 50.2345 42.2102 50.3368 42.1096 50.4717L40.8835 52.2173L41.2954 50.4927C41.4186 50.0499 41.2102 49.6298 40.7968 49.5115L39.2009 49.0969L41.6248 47.6973C41.8675 47.558 42.0654 47.2888 42.1455 46.9842L42.7995 44.2734L43.3019 45.7626C43.3777 45.9611 43.5324 46.1153 43.727 46.1844C43.9343 46.2584 44.1615 46.233 44.3677 46.1142L45.7557 45.3126L44.3212 47.3513Z" fill="white"/>
<path d="M57.836 37.031L55.4336 38.4174L54.7167 36.3141C54.6454 36.1101 54.4923 35.952 54.2977 35.8802C54.0904 35.805 53.8599 35.8288 53.6498 35.9515C53.4005 36.0952 53.2082 36.3572 53.1347 36.6557L52.2812 40.2377L49.477 41.8573C49.1144 42.0662 48.8811 42.5234 48.9347 42.9208C48.9756 43.2237 49.1774 43.4576 49.4604 43.5311L51.3575 44.0225L50.5698 47.2927C50.4852 47.6365 50.582 47.9527 50.8291 48.1384C51.159 48.3862 51.6626 48.3144 51.9855 47.8582L54.1805 44.74L56.2484 45.269C56.4364 45.3193 56.6426 45.2872 56.825 45.1822C57.1981 44.9677 57.4888 44.4271 57.328 43.9694L56.4839 41.5024L58.7409 38.3002C59.0167 37.9088 59.0233 37.4318 58.7569 37.141C58.5269 36.889 58.156 36.8459 57.836 37.031ZM55.5348 40.885C55.3502 41.1663 55.2905 41.493 55.3789 41.7688L56.1694 44.0805L54.2126 43.5808C54.034 43.5465 53.8483 43.5819 53.6697 43.6825C53.5481 43.7538 53.4354 43.8572 53.3392 43.9882L52.1087 45.7377L52.531 43.9849C52.6272 43.5698 52.436 43.174 52.0264 43.0286L50.4305 42.6135L52.8472 41.2183C53.1048 41.0696 53.3055 40.7915 53.3668 40.5063L54.0257 37.795L54.5177 39.2371C54.5802 39.4494 54.7294 39.6169 54.9279 39.6959C55.1401 39.7805 55.3778 39.7573 55.5967 39.6307L56.982 38.8309L55.5348 40.885Z" fill="white"/>
</svg>
