<svg width="93" height="92" viewBox="0 0 93 92" fill="none" xmlns="http://www.w3.org/2000/svg">
<rect x="0.5" width="92" height="92" rx="46" fill="black"/>
<path d="M41.9514 22.041L40.213 23.0443C39.9421 23.2007 39.8492 23.5467 40.0057 23.8176C40.1636 24.0903 40.5108 24.1798 40.779 24.0249L42.5175 23.0216C42.7883 22.8652 42.8812 22.5191 42.7248 22.2483C42.5672 21.9774 42.2212 21.884 41.9514 22.041Z" fill="white"/>
<path d="M42.4202 55.6655C42.1505 55.823 42.0593 56.1696 42.2162 56.4399C42.3742 56.7095 42.7199 56.801 42.9907 56.6439L48.4261 53.4732C48.6958 53.3157 48.787 52.9691 48.63 52.6988C48.4731 52.429 48.1265 52.3395 47.8556 52.4948L42.4202 55.6655Z" fill="white"/>
<path d="M36.5221 53.2576L37.9919 52.4091C38.8161 51.9326 39.459 50.8199 39.4562 49.8752C39.4548 49.3732 39.263 48.9672 38.9396 48.7202C39.2481 48.2349 39.45 47.6775 39.4485 47.1617C39.4474 46.5979 39.2169 46.1424 38.8167 45.9119C38.4137 45.6808 37.9007 45.7107 37.4104 45.9948L35.9406 46.8433C35.7648 46.945 35.657 47.1324 35.6576 47.3352L35.6653 50.0543L35.6731 52.769C35.6739 53.077 35.9232 53.3334 36.2391 53.3334C36.337 53.3334 36.4348 53.3079 36.5221 53.2576ZM37.4259 51.4285L36.8024 51.7884L36.7985 50.3789L37.9842 49.6945C38.1545 49.5955 38.2501 49.6027 38.2611 49.611C38.2739 49.6193 38.3236 49.6928 38.3242 49.8785C38.3258 50.4269 37.9057 51.151 37.4259 51.4285ZM37.9765 46.9754C38.1484 46.8759 38.2396 46.8869 38.2518 46.893C38.2623 46.8991 38.3159 46.971 38.3164 47.1644C38.3181 47.7122 37.898 48.4364 37.4182 48.7139L36.7946 49.0737L36.7908 47.6597L37.9765 46.9754Z" fill="white"/>
<path d="M38.1612 41.5159L38.7249 42.4819C38.883 42.7516 39.2307 42.8445 39.4988 42.6853C39.7691 42.5278 39.8598 42.1812 39.7022 41.9114L37.2667 37.7375C37.1551 37.5445 36.9428 37.4373 36.7173 37.46C36.4951 37.4843 36.3077 37.6363 36.2391 37.8491L34.0269 44.7062C33.9097 45.0709 34.1813 45.4459 34.5659 45.4459C34.8052 45.4459 35.0275 45.2933 35.1048 45.0534L35.8077 42.8747L38.1612 41.5159ZM36.9279 39.4024L37.5906 40.538L36.326 41.2681L36.9279 39.4024Z" fill="white"/>
<path d="M39.3375 58.9053C39.1733 59.0949 38.819 59.3939 38.3989 59.6366C37.5416 60.1316 37.232 59.8922 37.2287 58.902C37.2248 57.6212 37.9666 56.331 39.0738 55.6915C39.5204 55.4333 39.7465 55.4168 39.741 55.4162C40.0611 55.4389 40.3159 55.184 40.3269 54.8712C40.3385 54.5589 40.0942 54.2963 39.7819 54.2852C39.4613 54.2598 39.0042 54.424 38.5078 54.7109C37.0606 55.5467 36.0916 57.2321 36.0966 58.9053C36.1019 60.8231 37.3749 61.5346 38.9649 60.6172C39.5343 60.2883 39.9721 59.9008 40.1921 59.6482C40.3971 59.4122 40.3723 59.0545 40.1362 58.8495C39.9007 58.6449 39.5437 58.6682 39.3375 58.9053Z" fill="white"/>
<path d="M67.8239 39.8922C68.746 39.3648 69.4684 38.1194 69.4684 37.0564C69.4684 37.0559 69.4684 37.0553 69.4684 37.0542L69.4303 26.0546C69.4303 25.2061 69.0052 24.8408 68.746 24.6954C68.736 24.69 68.7069 24.6747 68.6783 24.6599C67.1264 23.7562 64.8684 22.4412 65.0137 22.5257C64.5753 22.2737 64.0341 22.3069 63.4869 22.6181L54.2276 27.9623L54.218 23.272C54.218 22.6633 53.9831 22.1752 53.5825 21.9013C53.4251 21.7684 53.6944 21.9605 48.6544 19.0068C48.2022 18.7448 47.6191 18.778 47.0486 19.0986L43.5628 21.1107C43.292 21.2671 43.1991 21.6131 43.3555 21.884C43.512 22.1537 43.858 22.246 44.1289 22.0913L47.6097 20.0819C47.8507 19.9465 48.0187 19.9471 48.0856 19.9858L51.6703 22.0752C49.4661 23.3475 59.6533 17.4673 30.1222 34.5131C29.195 35.0622 28.387 36.3655 28.387 37.5274C28.3971 40.9803 28.3505 25.0273 28.4858 71.2746L24.9046 69.1785C24.8167 69.1277 24.7609 68.9563 24.7559 68.7308L24.6636 34.6945C24.6636 33.9742 25.2114 33.019 25.8316 32.6531L38.945 25.0834C39.2158 24.927 39.3087 24.581 39.1523 24.3101C38.9958 24.0398 38.6481 23.9453 38.3789 24.1028L25.2611 31.6752C24.291 32.2479 23.5315 33.574 23.5315 34.6961L23.6238 68.7452C23.6437 69.6285 24.0809 70.0099 24.3363 70.1575L29.1919 72.9993C29.2019 73.0052 29.2134 73.0027 29.2237 73.0079C29.7251 73.2811 30.3015 73.18 30.796 72.8943L52.5741 60.3187C53.5696 59.7516 54.3203 58.4597 54.3203 57.3133C54.3203 57.3127 54.3203 57.3139 54.3203 57.3133L54.309 51.9308L57.889 45.6321L67.8239 39.8922ZM64.0507 23.5998C64.2199 23.503 64.3752 23.4649 64.4471 23.5058L66.9391 24.9566L51.5061 33.8692C50.583 34.391 49.8594 35.6369 49.8594 36.7071C49.8609 37.2497 49.8899 47.7801 49.8885 47.2734L49.8887 47.3546C49.7754 47.289 47.2458 45.8259 47.4068 45.919C47.3329 45.874 47.2809 45.6099 47.2796 45.5304C47.277 35.746 47.2564 36.6995 47.2564 34.5253C47.2504 33.8747 47.7506 33.0102 48.3249 32.6763L64.0507 23.5998ZM50.3575 57.0397L32.435 67.3699L32.3587 37.7983C34.1903 36.741 25.7244 41.6277 50.2696 27.4598L50.2779 30.2342L47.749 31.6946C46.8618 32.2191 46.1691 33.3872 46.126 34.4031C46.1002 34.5178 46.1168 34.6125 46.1152 35.3297L40.0444 38.7374C39.7719 38.8905 39.6746 39.2355 39.8277 39.508C39.9317 39.6932 40.124 39.7971 40.3219 39.7971C40.4159 39.7971 40.511 39.7739 40.5983 39.7247L46.1192 36.6257L46.141 43.7558L40.7464 46.8726C40.4756 47.029 40.3827 47.3756 40.5392 47.6459C40.696 47.9175 41.0431 48.0088 41.3125 47.8532L46.145 45.0611L46.1465 45.5443C46.1607 46.0654 46.3653 46.6091 46.8275 46.893C46.9422 46.9594 50.5584 49.0517 50.3365 48.9233L50.3575 57.0397ZM52.0108 59.3364L30.23 71.9136C29.9918 72.0504 29.8299 72.0539 29.7626 72.016C29.6919 71.9668 29.6219 71.8167 29.6219 71.5726C29.4952 25.6345 29.5364 40.5914 29.528 37.5175C29.52 36.8711 30.0409 35.8688 30.6971 35.4949C32.9239 34.2096 22.6304 40.1509 52.4751 22.9249C52.8641 22.7005 53.086 22.7945 53.086 23.2731L53.097 28.6062L51.4082 29.5815L51.3995 26.6798C51.3995 26.4355 51.269 26.2078 51.0595 26.0867C50.9578 26.0271 50.8098 26.013 50.6642 26.0229C50.5725 26.0222 50.4813 26.0376 50.3956 26.0839C50.3916 26.086 50.3846 26.085 50.3807 26.0873C24.6841 40.9134 33.5471 35.7997 31.6296 36.9061C31.5157 36.972 31.2251 37.2821 31.2261 37.5379L31.3051 68.1587C31.3051 68.4074 31.4411 68.6352 31.6605 68.7529C31.8324 68.8447 32.1539 68.8375 32.3233 68.7396L51.0822 57.9285C51.1264 57.9031 51.1673 57.8716 51.2032 57.8351C51.2071 57.8312 51.2198 57.8163 51.2353 57.7981C51.3928 57.6942 51.4907 57.5167 51.4901 57.3232L51.469 49.2066C51.7294 49.1605 51.8878 49.087 52.0987 48.9753L52.8555 48.5436L52.9547 49.7489L53.1291 51.9138C53.1298 51.9228 53.1379 51.9286 53.139 51.9375C53.1457 51.9874 53.1567 52.0357 53.1772 52.0786L53.1882 57.3144C53.1877 58.0474 52.6498 58.9727 52.0108 59.3364ZM56.9808 44.939L54.1106 49.9896C54.1012 49.8738 53.9015 47.4002 53.914 47.5552C53.9064 47.4609 53.869 47.3782 53.8205 47.303C53.8185 47.3001 53.8162 47.2978 53.8143 47.295C53.7106 47.1406 53.5394 47.0345 53.3424 47.0345C53.2148 47.0345 53.0976 47.0776 53.003 47.1506C52.8896 47.2153 51.3252 48.1069 51.4387 48.0422C51.1905 48.15 51.127 48.0894 51.0667 47.9759C51.0434 46.8785 51.0209 45.8022 51.0225 45.9185C51.0225 45.913 51.0176 45.9096 51.0174 45.9041L50.9915 36.7054C50.9915 36.0421 51.4923 35.177 52.0678 34.852L67.7102 25.8188C67.7113 25.837 67.705 25.8538 67.7079 25.8722C67.7521 26.1514 67.9925 26.3504 68.2667 26.3504C68.2775 26.3504 68.2885 26.3485 68.2993 26.3479L68.3364 37.0564C68.3364 37.7165 67.8344 38.5821 67.2601 38.9104L57.1897 44.7284C57.1024 44.7787 57.0305 44.8516 56.9808 44.939Z" fill="white"/>
<path d="M61.4859 32.4082C60.8928 32.0672 60.1438 32.1208 59.3793 32.5619C57.9957 33.3606 56.915 35.2301 56.9194 36.8177C56.9206 37.1294 57.1737 37.382 57.4855 37.382C57.8282 37.3804 58.0526 37.1278 58.0515 36.8144C58.0482 35.6353 58.9155 34.1367 59.9453 33.5425C60.3394 33.3153 60.6954 33.2584 60.921 33.3894C61.1454 33.5187 61.2753 33.8515 61.2764 34.3026C61.2792 35.3644 60.5594 36.7276 59.638 37.4058C59.4926 37.5131 59.4069 37.6828 59.4075 37.863L59.4102 39.1857C59.4108 39.4981 59.664 39.7507 59.9763 39.7507C59.9757 39.7507 59.9768 39.7507 59.9763 39.7507C60.2891 39.7501 60.5429 39.4958 60.5423 39.1835L60.5401 38.1349C61.639 37.2035 62.4118 35.6375 62.4085 34.2992C62.4063 33.4209 62.0785 32.7493 61.4859 32.4082Z" fill="white"/>
<path d="M59.6407 40.3438C59.539 40.4565 59.4821 40.5925 59.4821 40.7512C59.4821 40.8982 59.539 41.0452 59.6407 41.1475C59.754 41.2492 59.9011 41.3172 60.0481 41.3172C60.1957 41.3172 60.3427 41.2492 60.4444 41.1475C60.6617 40.9514 60.6795 40.5777 60.4444 40.3438C60.2294 40.1398 59.8557 40.1398 59.6407 40.3438Z" fill="white"/>
</svg>
