<svg width="93" height="92" viewBox="0 0 93 92" fill="none" xmlns="http://www.w3.org/2000/svg">
<rect x="0.5" width="92" height="92" rx="46" fill="black"/>
<path d="M38.7325 60.2962C39.0017 60.4516 39.3494 60.3587 39.5058 60.089C39.6622 59.8181 39.5694 59.4721 39.2985 59.3156L20.4628 48.4415L20.4684 46.4499L46.3933 61.4178C46.393 61.5341 46.3879 63.5314 46.3882 63.4088L44.0982 62.0872C43.8274 61.9308 43.4813 62.0237 43.3249 62.2945C43.1685 62.5654 43.2613 62.9114 43.5322 63.0678L46.6686 64.8782C46.8438 64.979 47.0587 64.9792 47.2341 64.8782C47.2338 64.8783 47.2344 64.878 47.2341 64.8782C47.2346 64.8779 47.2358 64.8773 47.2363 64.8771L73.3802 49.6841C73.5537 49.5835 73.661 49.3973 73.6615 49.1966L73.6698 45.9004C73.6704 45.6976 73.5626 45.5096 73.3868 45.4085C72.9727 45.1701 69.3099 43.0547 69.4249 43.1207L69.4185 40.7972C69.4179 40.6331 69.346 40.4772 69.2217 40.3699C69.1001 40.2652 64.8184 37.8054 46.4403 27.1228C46.3303 27.0581 46.2026 27.0338 46.0749 27.052C44.08 27.3422 42.1143 28.0415 40.2338 29.1316C38.409 30.1867 36.6027 31.6415 34.8606 33.4458C32.9464 33.7509 31.0525 34.4297 29.2292 35.4823C27.3575 36.5636 25.508 38.0588 23.7319 39.9277C23.6575 40.0058 23.5758 40.2357 23.576 40.3191L23.5825 42.6758L19.621 44.979C19.5193 45.038 19.4502 45.1303 19.4021 45.2338C19.3675 45.3075 19.3387 45.3851 19.3385 45.4693L19.3302 48.766C19.3296 48.9689 19.4374 49.1562 19.6132 49.258L38.7325 60.2962ZM72.53 48.8688L47.5204 63.4028C47.5208 63.2735 47.5259 61.2951 47.5256 61.4177C69.1909 48.8274 50.3191 59.7944 72.5355 46.8838L72.53 48.8688ZM24.7208 45.0077C24.72 44.7106 24.7105 41.1701 24.7109 41.3026L46.2743 53.8344L46.2849 57.5382C44.0734 56.2531 53.9798 62.0095 24.7208 45.0077ZM47.4171 57.54C47.416 57.1828 47.4055 53.5123 47.4061 53.7429C50.3105 50.7332 53.7868 48.3186 57.9225 47.7163C58.0075 47.704 58.1891 47.603 58.2382 47.5538C61.2638 44.5282 64.1054 42.3006 68.2881 41.486L68.2991 45.4892C66.1639 46.7214 76.0339 41.0255 47.4171 57.54ZM46.0445 28.2018L67.272 40.5352C63.5895 41.4631 60.3922 43.73 57.7397 46.443L52.6323 43.475L36.0554 33.8378C38.8243 31.0709 42.1313 28.8267 46.0445 28.2018ZM29.7953 36.463C31.4961 35.4812 33.2562 34.84 35.0311 34.5559L51.923 44.3721L56.2602 46.8935C56.2358 46.8997 56.2116 46.9085 56.1873 46.9148C53.3434 47.6427 50.0252 49.4372 46.7399 52.7957L25.0536 40.1925C26.5991 38.642 28.1917 37.3888 29.7953 36.463ZM23.5849 43.984V45.3322C23.5849 45.5339 23.6921 45.7202 23.8668 45.8214C23.9804 45.8874 47.9884 59.8384 46.5699 59.014C46.5705 59.0144 46.5707 59.0151 46.5713 59.0155C46.7435 59.1146 46.9596 59.117 47.1368 59.0149C49.3888 57.7152 38.9811 63.722 69.1509 46.3095C69.3261 46.2083 69.4339 46.0215 69.4339 45.8192V44.4334L71.9723 45.8999L46.961 60.4366L21.0349 45.4665L23.5849 43.984Z" fill="white"/>
<path d="M41.8523 62.0977C42.1223 62.2536 42.4691 62.1615 42.6257 61.8904C42.7821 61.6196 42.6892 61.2735 42.4184 61.1171L40.9386 60.2625C40.6672 60.1061 40.3223 60.1984 40.1653 60.4698C40.0088 60.7407 40.1017 61.0867 40.3726 61.2431L41.8523 62.0977Z" fill="white"/>
<path d="M45.4702 43.0697C45.7009 43.0214 45.8683 42.8391 45.9097 42.6216C45.9892 42.2172 45.6226 41.8724 45.2364 41.9597C43.1102 42.4129 40.8696 43.3752 38.156 45.6207C37.9149 45.8202 37.8818 46.1768 38.0808 46.4178C38.2773 46.6549 38.6379 46.6988 38.8856 46.4924C41.3091 44.4585 43.5199 43.4791 45.4702 43.0697Z" fill="white"/>
<path d="M47.8985 44.4809C48.2048 44.4168 48.4005 44.1166 48.3363 43.8109C48.2722 43.5042 47.9715 43.309 47.6664 43.3732C47.6657 43.3733 47.6649 43.3736 47.6642 43.3737C47.664 43.3738 47.6644 43.3736 47.6642 43.3737C45.0416 43.9108 42.6533 45.3017 40.5865 47.0358C40.0169 47.5146 40.7444 48.3925 41.3172 47.9031C43.6935 45.884 45.9763 44.8845 47.8985 44.4809Z" fill="white"/>
<path d="M46.7935 31.0911C47.0998 31.027 47.2955 30.7269 47.2313 30.4212C47.1672 30.1149 46.8676 29.9193 46.5614 29.9834C43.8938 30.5427 41.5533 31.9079 39.4815 33.646C39.2421 33.8473 39.2106 34.2043 39.4113 34.4437C39.6115 34.6824 39.9674 34.7151 40.2089 34.5139C42.1588 32.8775 44.3329 31.6078 46.7935 31.0911Z" fill="white"/>
<path d="M49.2219 32.5023C49.5281 32.4382 49.7238 32.1381 49.6597 31.8324C49.5956 31.5262 49.2943 31.3283 48.9897 31.3946C46.3222 31.9539 43.9816 33.3191 41.9098 35.0573C41.6705 35.2585 41.639 35.6156 41.8396 35.8549C42.0398 36.0936 42.3958 36.1263 42.6373 35.9251C44.5871 34.2887 46.7612 33.019 49.2219 32.5023Z" fill="white"/>
<path d="M51.6507 33.9136C51.9569 33.8494 52.1526 33.5493 52.0885 33.2436C52.0249 32.9374 51.7215 32.7417 51.4186 32.8058C48.751 33.3651 46.4104 34.7303 44.3386 36.4685C44.0993 36.6697 44.0678 37.0268 44.2685 37.2661C44.4687 37.5048 44.8246 37.5376 45.0661 37.3363C47.0159 35.6999 49.1901 34.4302 51.6507 33.9136Z" fill="white"/>
<path d="M54.0791 35.3243C54.3853 35.2601 54.581 34.96 54.5169 34.6543C54.4527 34.3481 54.1531 34.1507 53.8469 34.2165C51.1793 34.7758 48.8388 36.141 46.767 37.8792C46.5276 38.0804 46.4961 38.4375 46.6968 38.6768C46.897 38.9155 47.253 38.9483 47.4944 38.747C49.4443 37.1106 51.6184 35.8409 54.0791 35.3243Z" fill="white"/>
<path d="M56.508 36.7355C56.8142 36.6714 57.0099 36.3712 56.9457 36.0655C56.8816 35.7587 56.5804 35.5636 56.2758 35.6277C53.6082 36.1871 51.2677 37.5523 49.1959 39.2904C48.9565 39.4916 48.925 39.8487 49.1257 40.088C49.3259 40.3267 49.6819 40.3595 49.9233 40.1582C51.8732 38.5218 54.0473 37.2521 56.508 36.7355Z" fill="white"/>
<path d="M58.9362 38.1467C59.2425 38.0826 59.4382 37.7824 59.374 37.4767C59.3099 37.1705 59.0075 36.9726 58.7041 37.0389C56.0365 37.5983 53.696 38.9635 51.6242 40.7016C51.3848 40.9028 51.3533 41.2599 51.554 41.4993C51.7542 41.7379 52.1101 41.7707 52.3516 41.5695C54.3015 39.933 56.4756 38.6633 58.9362 38.1467Z" fill="white"/>
<path d="M35.7558 37.4253C36.0621 37.3612 36.2577 37.061 36.1936 36.7554C36.1295 36.4491 35.8271 36.2512 35.5237 36.3176C32.8561 36.8769 30.5155 38.2421 28.4438 39.9802C28.2044 40.1814 28.1729 40.5385 28.3736 40.7779C28.5738 41.0165 28.9297 41.0493 29.1712 40.8481C31.121 39.2116 33.2952 37.9419 35.7558 37.4253Z" fill="white"/>
<path d="M38.1841 38.8365C38.4903 38.7724 38.686 38.4723 38.6219 38.1666C38.5578 37.8603 38.2587 37.6647 37.9519 37.7288C35.2844 38.2881 32.9438 39.6533 30.872 41.3914C30.6327 41.5927 30.6012 41.9497 30.8018 42.1891C31.002 42.4277 31.358 42.4605 31.5995 42.2593C33.5493 40.6228 35.7235 39.3532 38.1841 38.8365Z" fill="white"/>
<path d="M40.613 40.2478C40.9192 40.1836 41.1149 39.8835 41.0508 39.5778C40.9867 39.2716 40.686 39.0737 40.3808 39.14C37.7133 39.6993 35.3727 41.0645 33.3009 42.8027C33.0616 43.0039 33.0301 43.361 33.2307 43.6003C33.4309 43.839 33.7869 43.8718 34.0284 43.6705C35.9782 42.0341 38.1523 40.7644 40.613 40.2478Z" fill="white"/>
<path d="M43.0413 41.6585C43.3476 41.5943 43.5433 41.2942 43.4791 40.9885C43.415 40.6817 43.1126 40.4866 42.8092 40.5507C40.1416 41.11 37.8011 42.4752 35.7293 44.2134C35.4899 44.4146 35.4584 44.7717 35.6591 45.011C35.8593 45.2497 36.2152 45.2825 36.4567 45.0812C38.4066 43.4448 40.5807 42.1751 43.0413 41.6585Z" fill="white"/>
</svg>
