<svg width="93" height="92" viewBox="0 0 93 92" fill="none" xmlns="http://www.w3.org/2000/svg">
<rect x="0.5" width="92" height="92" rx="46" fill="black"/>
<path d="M66.2353 29.5114L66.2182 23.4107C66.2185 23.4049 66.2226 23.4002 66.2226 23.3944C66.2226 23.1921 66.1154 23.0053 65.9407 22.9041L60.6087 19.8136C60.4329 19.7119 60.2162 19.7124 60.0415 19.813L57.5629 21.2448L53.5382 18.9059C53.3629 18.8037 53.1462 18.8037 52.971 18.9048L34.0889 29.8066C33.912 29.909 33.8064 30.0975 33.8059 30.2963L33.8062 30.2974L33.8059 30.2986L33.8188 34.9466L27.0477 38.856C26.8708 38.9585 26.7652 39.147 26.7647 39.3458L26.765 39.3469L26.7647 39.348L26.7824 45.4655C26.7829 45.6667 26.8902 45.8524 27.0637 45.953C27.1783 46.0196 32.5078 49.117 32.3932 49.0504L32.3947 49.0519C32.5668 49.151 32.783 49.1534 32.9601 49.0513L38.3872 45.918L38.4525 69.505C38.453 69.7056 38.5603 69.8913 38.7338 69.9925C38.8484 70.0591 44.1812 73.1609 44.0666 73.0943L44.0681 73.0958C44.2404 73.1944 44.4542 73.1978 44.6336 73.0952L54.4486 67.4238C54.6244 67.3221 54.7321 67.1347 54.7316 66.9318L54.6534 36.5268L65.9523 30.0034C66.1281 29.9017 66.2359 29.7143 66.2353 29.5114ZM60.324 20.9573L64.5247 23.3922C64.4099 23.4585 58.8196 26.684 59.1604 26.4874L59.1488 22.4901C59.1482 22.2927 59.0398 22.0994 58.8641 21.9976L58.6933 21.8992L60.324 20.9573ZM39.1355 33.7197L39.146 37.3848L34.9507 34.9466L34.9407 31.2819C35.1025 31.376 39.4087 33.8785 39.1355 33.7197ZM53.2529 20.0491C53.3662 20.1149 57.7318 22.6522 57.4532 22.4902L39.7015 32.7393L35.5012 30.2986L53.2529 20.0491ZM34.3846 35.9269C34.5308 36.012 38.7296 38.4521 38.5857 38.3685C38.4238 38.4619 32.3345 41.9771 32.6607 41.7888L28.46 39.348L34.3846 35.9269ZM27.9133 45.1377L27.8995 40.3313L32.0948 42.7689C32.0974 43.6791 32.1086 47.694 32.1083 47.576L27.9133 45.1377ZM39.5177 45.2653L43.6966 42.8526C43.7183 50.202 43.7602 64.383 43.7816 71.6192L39.5834 69.1772C39.5558 58.5439 39.547 55.9017 39.5177 45.2653ZM53.5303 39.9504L50.7494 41.5557C50.4786 41.7122 50.3857 42.0582 50.5421 42.3291C50.699 42.6006 51.0461 42.692 51.3155 42.5364L53.5337 41.2559L53.5417 44.3937L50.7494 46.0055C50.4786 46.162 50.3857 46.508 50.5421 46.7789C50.699 47.0505 51.0461 47.1418 51.3155 46.9862L53.545 45.6991L53.553 48.8369L50.7494 50.4554C50.4786 50.6118 50.3857 50.9578 50.5421 51.2287C50.699 51.5003 51.0461 51.5916 51.3155 51.436L53.5563 50.1423L53.5643 53.2797L50.7494 54.9052C50.4786 55.0616 50.3857 55.4076 50.5421 55.6785C50.699 55.9501 51.0461 56.0414 51.3155 55.8858L53.5677 54.5852L53.5757 57.7229L50.7494 59.355C50.4786 59.5114 50.3857 59.8574 50.5421 60.1283C50.699 60.3999 51.0461 60.4912 51.3155 60.3356L53.5791 59.0285L53.5871 62.1661L50.7494 63.8042C50.4786 63.9607 50.3857 64.3067 50.5421 64.5776C50.699 64.8491 51.0461 64.9405 51.3155 64.7848L53.5904 63.4716L53.5984 66.6073L44.9138 71.6259L44.827 42.2L53.5232 37.1792L53.5303 39.9504ZM33.2404 47.582C33.2396 47.2898 33.2265 42.5373 33.2271 42.7692C33.3772 42.6826 40.1314 38.7834 39.998 38.8604C40.175 38.758 40.2805 38.5695 40.281 38.3707C40.2813 38.2567 40.268 33.6058 40.2678 33.7198C50.1449 28.0171 47.9131 29.3057 58.0171 23.4721L58.0261 27.47C58.0273 27.9122 58.5073 28.173 58.8801 27.9587C58.9949 27.8924 65.4986 24.1384 65.0889 24.3749L65.1021 29.1869C38.5145 44.5313 47.343 39.434 33.2404 47.582Z" fill="white"/>
</svg>
