<svg width="93" height="92" viewBox="0 0 93 92" fill="none" xmlns="http://www.w3.org/2000/svg">
<rect x="0.5" width="92" height="92" rx="46" fill="black"/>
<path d="M19.3423 39.9618C19.3428 40.163 19.4501 40.3493 19.6242 40.4505L23.2071 42.5307L23.2156 45.5785C23.2161 45.7797 23.3234 45.9655 23.4969 46.0661L27.9036 48.6271C28.1734 48.784 28.5205 48.6928 28.6775 48.4225C28.835 48.1522 28.7427 47.8056 28.473 47.6486L24.3465 45.2507L24.3277 38.454L49.9636 53.3518L49.9824 60.149L33.616 50.6375C33.3451 50.4799 32.9985 50.5717 32.8421 50.842C32.6845 51.1123 32.7768 51.4589 33.0466 51.6159L50.2665 61.6233C50.4441 61.7265 50.6602 61.7246 50.8342 61.6244C50.9476 61.5591 53.5753 60.0434 53.462 60.1087L61.5613 64.8155C61.7389 64.9187 61.955 64.9168 62.129 64.8166C62.1316 64.8152 62.1325 64.8122 62.1349 64.8107L73.3862 58.3127C73.5614 58.211 73.6698 58.0242 73.6692 57.8213L73.6587 52.4379C73.6581 52.2361 73.5504 52.0493 73.3751 51.9487C73.3694 51.9453 73.3623 51.9468 73.3565 51.9437L68.0662 48.8692L68.0553 43.2492C68.0556 43.2427 68.0602 43.2375 68.0602 43.2309C68.0608 43.0291 67.953 42.8423 67.7789 42.7411L41.0082 27.1845C40.8329 27.0822 40.6162 27.0822 40.441 27.1834L35.5847 29.9873L31.4452 27.5842C31.27 27.483 31.0544 27.4824 30.8781 27.5836L19.6137 34.082C19.448 34.178 19.3312 34.3597 19.3307 34.5717C19.3307 34.5715 19.3307 34.572 19.3307 34.5717C19.3307 34.572 19.3307 34.5731 19.3307 34.5734L19.3423 39.9618ZM55.6865 49.3937L30.0472 34.4936L35.5696 31.3078L61.2069 46.2064C61.0927 46.2723 55.3892 49.5653 55.6865 49.3937ZM28.9166 35.1459L54.5567 50.0464L50.5297 52.3715L24.8883 37.4705C25.0017 37.405 29.1832 34.992 28.9166 35.1459ZM20.4738 39.6346L20.465 35.5569L23.2686 37.1845C23.2185 37.2702 23.1912 37.3689 23.1912 37.4716L23.2006 41.2177L20.4738 39.6346ZM64.6857 48.2143C64.7999 48.2807 72.0718 52.506 71.9585 52.4402C61.7519 58.3348 61.9502 58.2203 61.8301 58.2896C61.6619 58.1919 54.1261 53.8122 54.5613 54.0651C55.5965 53.4669 50.8112 56.2323 64.6857 48.2143ZM70.7063 56.43L62.4081 61.223L62.4021 59.2682L70.7003 54.4771L70.7063 56.43ZM54.0071 59.1164C54.0068 59.0002 53.9964 54.8035 53.997 55.0465L61.2656 59.2709L61.2772 63.3413L54.0071 59.1164ZM62.4115 63.3435L62.4096 62.5299L71.5565 57.2464C71.7323 57.1447 71.8401 56.9573 71.8395 56.7544L71.8301 53.8248L72.5283 53.4217L72.5366 57.4963L62.4115 63.3435ZM64.9664 47.0677C64.7911 46.9649 64.5745 46.9654 64.3981 47.0671C63.2474 47.7321 68.5666 44.6583 53.1443 53.5705C52.9673 53.6729 52.8618 53.8615 52.8612 54.0602C52.8608 54.233 52.8629 54.9071 52.874 59.1413L51.1167 60.1529L51.0979 53.351C52.736 52.4052 65.0262 45.309 66.9248 44.2128L66.9331 48.2107C66.8197 48.1448 64.8407 46.9946 64.9664 47.0677ZM40.7229 28.3276L66.3643 43.2283L62.337 45.5539L36.6954 30.6531L40.7229 28.3276ZM31.16 28.7278L34.4542 30.64C34.3408 30.7055 24.2083 36.5552 24.3246 36.4881L21.0269 34.5737L31.16 28.7278Z" fill="white"/>
<path d="M30.3148 48.7188C30.0445 48.5623 29.6979 48.6536 29.5409 48.9233C29.3834 49.1936 29.4751 49.5402 29.7455 49.6972L31.3441 50.6264C31.6151 50.7837 31.9612 50.6917 32.1179 50.4219C32.2755 50.1516 32.1837 49.805 31.9134 49.648L30.3148 48.7188Z" fill="white"/>
<path d="M65.643 53.6174L67.4987 52.5456C67.7695 52.3892 67.8624 52.0431 67.706 51.7723C67.549 51.4998 67.2024 51.408 66.9326 51.565L65.077 52.6368C64.8061 52.7933 64.7133 53.1393 64.8697 53.4101C65.0265 53.6817 65.3736 53.7731 65.643 53.6174Z" fill="white"/>
<path d="M60.7233 55.8037C60.8813 56.0764 61.2284 56.1659 61.4967 56.011L63.3529 54.9397C63.6237 54.7833 63.7166 54.4373 63.5601 54.1664C63.4026 53.8961 63.056 53.8016 62.7868 53.9591L60.9306 55.0304C60.6598 55.1868 60.5669 55.5328 60.7233 55.8037Z" fill="white"/>
</svg>
