<svg width="93" height="92" viewBox="0 0 93 92" fill="none" xmlns="http://www.w3.org/2000/svg">
<rect x="0.5" width="92" height="92" rx="46" fill="black"/>
<path d="M27.0284 65.9269C27.0289 66.1281 27.1361 66.3138 27.3097 66.4144C27.4446 66.4928 36.0042 71.4255 38.9024 73.0958C39.0786 73.1956 39.2924 73.1939 39.4657 73.0941L60.9293 60.7021C61.0155 60.6523 61.0868 60.581 61.1365 60.4948L65.9694 52.133C66.0192 52.0468 66.0457 51.9484 66.0452 51.8483L65.9716 26.0687C65.9711 25.8659 65.8622 25.679 65.6859 25.5784L60.754 22.7681C60.7538 22.768 60.7542 22.7683 60.754 22.7681L54.1097 18.907C53.9334 18.8042 53.7173 18.8053 53.542 18.9059L50.7152 20.5383C50.4443 20.6947 50.3514 21.0407 50.5079 21.3116C50.6637 21.583 51.0103 21.6742 51.2812 21.5189L53.8239 20.0502L59.3445 23.2585L38.6119 35.2284L33.0917 32.0204L46.8546 24.0743C47.1255 23.9179 47.2183 23.5719 47.0619 23.301C46.9049 23.0291 46.5572 22.9373 46.2886 23.0937L31.6794 31.5285C31.6695 31.5342 31.6655 31.5457 31.656 31.5519C31.5892 31.5956 31.5323 31.6505 31.4889 31.719C31.484 31.7268 31.476 31.7316 31.4715 31.7396C31.4705 31.7413 31.4686 31.7423 31.4677 31.744L27.0304 39.7332C27.0304 39.7335 27.0306 39.733 27.0304 39.7332L27.0261 39.741C26.9816 39.821 26.9649 39.9067 26.9615 39.9924C26.9611 40.0013 26.9548 40.0085 26.9548 40.0174L27.0284 65.9269ZM28.0897 41.0009L33.6045 44.2058L33.6743 68.804L28.1593 65.5991L28.0897 41.0009ZM64.9125 51.6991L60.2322 59.7972L39.181 71.9515L34.8083 69.4597L34.7673 55.0393L34.7362 44.0255L39.0301 36.2945C46.2161 32.1456 56.7535 26.0617 60.4758 23.9126L64.8407 26.3998L64.9125 51.6991ZM32.1769 32.7982L37.8466 36.0932L33.9551 43.1002L28.2853 39.8051L32.1769 32.7982Z" fill="white"/>
<path d="M48.1934 23.2142C48.2896 23.2142 48.3869 23.1899 48.4759 23.1385L49.8114 22.3674C50.0822 22.211 50.1751 21.8649 50.0187 21.5941C49.8622 21.3227 49.5145 21.2298 49.2453 21.3868L47.9098 22.1579C47.639 22.3143 47.5461 22.6604 47.7025 22.9312C47.8076 23.1131 47.9977 23.2142 48.1934 23.2142Z" fill="white"/>
<path d="M58.3638 28.3047C58.1886 28.2052 57.9736 28.2063 57.8006 28.3064L40.8443 38.096C40.7553 38.1474 40.6824 38.222 40.6326 38.3115L37.1877 44.5142C37.1407 44.5988 37.1164 44.6938 37.1164 44.7906L37.1734 64.8855C37.1739 65.0883 37.2828 65.2752 37.4591 65.3758L41.2904 67.5592C41.4666 67.6591 41.6804 67.6574 41.8537 67.5576L58.5009 57.9465C58.5872 57.8968 58.6585 57.8255 58.7082 57.7392L62.456 51.2536C62.5058 51.1673 62.5317 51.0689 62.5317 50.9689L62.4754 30.9746C62.4748 30.7717 62.3659 30.5849 62.1896 30.4843L58.3638 28.3047ZM57.8039 57.0416L49.6334 61.7589L49.6278 59.3378C49.6273 59.0255 49.3736 58.7729 49.0618 58.7729C48.7489 58.7735 48.4952 59.0277 48.4958 59.3401L48.5028 62.4117L41.569 66.415L38.3043 64.5543L38.2788 55.4913L40.5806 54.1622C40.8515 54.0058 40.9444 53.6598 40.7879 53.3889C40.6315 53.1175 40.2838 53.0246 40.0146 53.1816L38.2751 54.186L38.2491 44.9348L41.5463 38.9981L50.001 34.1166L50.0065 36.5261C50.007 36.8384 50.2602 37.091 50.5725 37.091C50.8854 37.0905 51.1391 36.8362 51.1386 36.5239L51.1316 33.4638L58.0852 29.449L61.3444 31.3057L61.3711 40.8463L59.0675 42.176C58.7967 42.3324 58.7038 42.6784 58.8602 42.9493C59.0182 43.222 59.3653 43.3115 59.6336 43.1566L61.3748 42.1515L61.3991 50.8196L57.8039 57.0416Z" fill="white"/>
<path d="M53.0705 39.7155C52.8085 39.548 52.458 39.6249 52.2895 39.8886L49.6521 44.0257C49.2466 43.9666 48.7958 44.0564 48.3504 44.3124C47.2056 44.974 46.3123 46.5218 46.3162 47.8363C46.3186 48.9014 46.9444 49.7561 48.079 49.6113V56.3434C48.079 56.6563 48.3322 56.9095 48.645 56.9095C48.9579 56.9095 49.2111 56.6563 49.2111 56.3434V49.1343C50.2137 48.3992 50.9642 47.009 50.9611 45.8049C50.9598 45.3347 50.8293 44.9358 50.6117 44.625L53.2435 40.4966C53.4116 40.2335 53.3342 39.8836 53.0705 39.7155ZM48.362 48.3493C47.7796 48.6865 47.4495 48.5144 47.4483 47.833C47.4455 46.9176 48.1177 45.7546 48.9164 45.293C49.508 44.9529 49.8267 45.1365 49.8291 45.8082C49.8313 46.7247 49.1597 47.8888 48.362 48.3493Z" fill="white"/>
</svg>
