<svg width="93" height="92" viewBox="0 0 93 92" fill="none" xmlns="http://www.w3.org/2000/svg">
<rect x="0.5" width="92" height="92" rx="46" fill="black"/>
<path d="M33.1614 64.8314C33.4737 64.8303 33.7268 64.5765 33.7257 64.2637L33.7208 62.4953C33.7197 62.1836 33.4665 61.931 33.1547 61.931H33.1531C32.8408 61.9321 32.5876 62.1858 32.5887 62.4987L32.5937 64.267C32.5948 64.5787 32.8479 64.8314 33.1597 64.8314H33.1614Z" fill="white"/>
<path d="M60.4766 59.7027L60.3898 29.1555C60.389 28.9238 60.2216 28.7337 60.1084 28.668L60.1071 28.6672L60.1062 28.6663L60.105 28.6659L55.7172 26.1158C55.542 26.013 55.3247 26.0141 55.1495 26.1147L52.2381 27.7956L48.6487 23.2947C49.0546 22.5318 49.2868 21.728 49.2868 20.99V20.9855C49.2796 20.0873 48.9419 19.4018 48.3355 19.0553C47.7247 18.7054 46.9536 18.7656 46.1637 19.2194C44.7408 20.0342 43.6264 21.9606 43.6264 23.6134C43.6392 24.4661 43.9218 24.9689 44.2158 25.2654L40.3482 34.6604L32.8065 39.0147C32.6295 39.1172 32.524 39.3057 32.5235 39.5045C32.5231 39.6267 32.583 60.5552 32.5837 60.6717C32.5848 60.9841 32.869 61.2516 33.1514 61.2361C33.4637 61.235 33.7169 60.9813 33.7158 60.6684L33.6583 40.4901L36.9161 42.3826L36.9987 71.6188L33.7412 69.7256L33.7313 66.2448C33.7302 65.9325 33.477 65.6804 33.1652 65.6804C32.8938 65.7064 32.5981 65.9347 32.5992 66.2481L32.6103 70.0534C32.6108 70.2546 32.718 70.4403 32.8916 70.5409C33.0062 70.6075 37.3982 73.1599 37.2836 73.0933L37.285 73.0947C37.4572 73.1939 37.6734 73.1962 37.8505 73.0942L60.1935 60.1947C60.3693 60.093 60.4771 59.9056 60.4766 59.7027ZM46.728 20.2012C46.9994 20.0447 47.2543 19.964 47.4665 19.964C47.5832 19.964 47.6871 19.9883 47.7733 20.0381C48.0116 20.1741 48.1503 20.5218 48.1547 20.9916C48.1542 21.6284 47.9132 22.3807 47.4909 23.0595C47.1338 23.6422 46.6683 24.1209 46.1858 24.405C45.7723 24.6438 45.4124 24.7057 45.1532 24.5675C44.8199 24.4055 44.7629 23.8898 44.7585 23.6051C44.7585 22.3713 45.6595 20.8125 46.728 20.2012ZM45.2411 25.7482C45.311 25.7563 45.3784 25.7725 45.4506 25.7725C45.8607 25.7725 46.3046 25.6421 46.7551 25.3834C47.201 25.1208 47.6241 24.7398 47.9942 24.2898L51.2463 28.3683L41.9537 33.7335L45.2411 25.7482ZM39.6423 36.3753L38.7106 38.6383C38.5912 38.9268 38.7283 39.2579 39.0174 39.3773C39.3049 39.4964 39.6367 39.3609 39.7565 39.0706L41.2477 35.4484L51.96 29.2633L53.2369 30.8647C53.4336 31.1098 53.7901 31.1471 54.0329 30.9531C54.2767 30.7574 54.3165 30.4014 54.1213 30.1571L52.9518 28.6906L55.4314 27.2589L58.6944 29.1555L37.482 41.4025L34.2188 39.5067L39.6423 36.3753ZM38.1308 71.6249C38.1122 65.0167 38.0707 50.294 38.0484 42.3829C45.9514 37.8201 51.2893 34.7383 59.2605 30.1361L59.3434 59.3783L38.1308 71.6249Z" fill="white"/>
<path d="M57.5225 33.1565C57.3473 33.0559 57.1312 33.0564 56.9571 33.157L39.7985 43.0632C39.6227 43.165 39.5149 43.3523 39.5155 43.5552L39.5851 68.1159C39.5857 68.3177 39.694 68.504 39.8687 68.6051C40.0408 68.7043 40.257 68.7066 40.4342 68.6046L57.5933 58.6984C57.7691 58.5967 57.8769 58.4093 57.8763 58.2064L57.8061 33.6457C57.8056 33.4439 57.6972 33.2576 57.5225 33.1565ZM40.7144 67.1353L40.6487 43.8797L56.6768 34.6263L56.7431 57.8819L40.7144 67.1353Z" fill="white"/>
<path d="M42.4065 48.0205C42.5786 48.1196 42.7948 48.122 42.9719 48.0199L54.9466 41.1064C55.1224 41.0047 55.2302 40.8173 55.2296 40.6145L55.223 38.1347C55.2225 37.933 55.1141 37.7467 54.9394 37.6461C54.7642 37.5455 54.5481 37.5455 54.3739 37.6461L42.3987 44.5596C42.2229 44.6613 42.1151 44.8487 42.1157 45.0515L42.1229 47.5313C42.1234 47.733 42.2318 47.9193 42.4065 48.0205ZM54.0937 39.1153L54.0965 40.29L43.2522 46.5507L43.2489 45.376L54.0937 39.1153Z" fill="white"/>
<path d="M55.1539 43.5485C54.9975 43.2771 54.6498 43.1837 54.3806 43.3412L42.4059 50.2548C42.1351 50.4112 42.0422 50.7572 42.1986 51.0281C42.3555 51.2997 42.7026 51.391 42.972 51.2354L54.9466 44.3219C55.2175 44.1654 55.3104 43.8194 55.1539 43.5485Z" fill="white"/>
<path d="M55.1539 46.8569C54.9975 46.5849 54.6498 46.4932 54.3806 46.6496L42.4059 53.5631C42.1351 53.7195 42.0422 54.0656 42.1986 54.3364C42.3555 54.608 42.7026 54.6993 42.972 54.5437L54.9466 47.6302C55.2175 47.4738 55.3104 47.1277 55.1539 46.8569Z" fill="white"/>
<path d="M54.3806 49.9579L42.4059 56.8715C42.1351 57.0279 42.0422 57.3739 42.1986 57.6448C42.3555 57.9164 42.7026 58.0077 42.972 57.8521L54.9466 50.9386C55.2175 50.7821 55.3104 50.4361 55.1539 50.1652C54.9975 49.8938 54.6498 49.801 54.3806 49.9579Z" fill="white"/>
<path d="M49.0447 56.3469L42.4059 60.1798C42.1351 60.3362 42.0422 60.6822 42.1986 60.9531C42.3555 61.2247 42.7026 61.316 42.972 61.1604L49.6107 57.3275C49.8816 57.171 49.9745 56.825 49.818 56.5541C49.661 56.2827 49.3145 56.1904 49.0447 56.3469Z" fill="white"/>
<path d="M49.0447 59.6552L42.4059 63.4881C42.1351 63.6446 42.0422 63.9906 42.1986 64.2615C42.3555 64.533 42.7026 64.6244 42.972 64.4687L49.6107 60.6358C49.8816 60.4794 49.9745 60.1334 49.818 59.8625C49.661 59.5905 49.3145 59.4982 49.0447 59.6552Z" fill="white"/>
<path d="M55.605 54.1485C55.5978 54.1082 55.5989 54.0612 55.5972 54.0142C55.5912 53.8113 55.5823 53.504 55.3568 53.2779C55.1174 53.0369 54.8151 53.0535 54.573 53.0861C54.4491 52.9783 54.1965 52.7942 53.8543 52.8683C53.793 52.8805 53.6421 52.9396 53.5851 52.9717C53.4514 53.0491 53.3358 53.1546 53.2336 53.248C53.1816 53.2961 53.1026 53.368 53.07 53.3873C53.055 53.3956 53.0003 53.4084 52.96 53.4183C52.8533 53.4437 52.7073 53.4786 52.5542 53.567C52.4779 53.6118 52.4111 53.6621 52.3541 53.7174C52.0719 53.9839 51.9535 54.3862 51.8417 54.5476C51.7931 54.6151 51.7295 54.6736 51.6681 54.7345C51.5288 54.8726 51.3547 55.0451 51.2397 55.2911C51.127 55.5409 51.1214 55.7781 51.117 55.9517C51.1126 56.1628 51.1097 56.1591 51.0109 56.3795C50.9197 56.5862 50.8158 56.8206 50.8163 57.0793C50.8174 57.4403 51.0197 57.6586 51.1143 57.7161C51.122 57.757 51.1209 57.8062 51.1226 57.8543C51.1292 58.0721 51.1391 58.3706 51.3586 58.5856C51.5996 58.8349 51.9053 58.8194 52.1468 58.7841C52.3576 58.9687 52.5971 59.0581 52.8754 59.003C52.9323 58.9908 53.0816 58.9305 53.1319 58.9012C53.2662 58.8239 53.3817 58.7183 53.484 58.6254C53.5365 58.5773 53.6161 58.5049 53.6476 58.4867C53.6636 58.4778 53.7217 58.4634 53.7637 58.4529C53.8698 58.427 54.0152 58.3916 54.1622 58.3065C54.4597 58.1384 54.6089 57.8593 54.7537 57.5586C54.7941 57.4751 54.8311 57.3911 54.8792 57.3236C54.9273 57.2551 54.9908 57.1965 55.0522 57.1357C55.1915 56.9975 55.3651 56.8256 55.4773 56.5818C55.5906 56.3347 55.5967 56.0981 55.6017 55.9257C55.6076 55.7017 55.6149 55.7023 55.7083 55.4917C55.7995 55.2856 55.9024 55.0528 55.9018 54.7947C55.9007 54.4387 55.7028 54.2209 55.605 54.1485ZM54.5182 55.4531C54.4779 55.6189 54.4735 55.7714 54.4701 55.8942C54.4674 55.9859 54.4652 56.0733 54.4486 56.1092C54.4226 56.1656 54.3375 56.2496 54.2551 56.3314C54.1462 56.4392 54.0401 56.5492 53.9544 56.6697C53.8737 56.7841 53.8029 56.924 53.7338 57.0666C53.6891 57.16 53.6211 57.301 53.4945 57.3535C53.13 57.4427 52.9992 57.5361 52.7217 57.7885C52.5651 57.6792 52.4125 57.6365 52.248 57.6365C52.2469 57.6365 52.2452 57.6365 52.2441 57.6365C52.2191 57.3632 52.1396 57.2082 51.97 57.0179C52.0332 56.8498 52.1494 56.6353 52.2032 56.4143C52.2425 56.2507 52.2458 56.1003 52.2485 55.9793C52.2508 55.8859 52.253 55.7974 52.2679 55.7643C52.295 55.7073 52.3812 55.6216 52.4647 55.5393C52.7442 55.2612 52.8112 55.164 52.9832 54.8074C53.0274 54.7157 53.0943 54.5764 53.2225 54.5194C53.3314 54.4934 53.4801 54.4581 53.6366 54.3674C53.763 54.2944 53.8668 54.2034 53.9997 54.0816C54.1424 54.1815 54.2962 54.2325 54.4746 54.2325C54.4992 54.5039 54.5841 54.666 54.7487 54.8538C54.6832 55.028 54.5678 55.2407 54.5182 55.4531Z" fill="white"/>
</svg>
