<svg width="93" height="92" viewBox="0 0 93 92" fill="none" xmlns="http://www.w3.org/2000/svg">
<rect x="0.5" width="92" height="92" rx="46" fill="black"/>
<path d="M62.5779 22.9804L55.5213 18.9059C55.3455 18.8048 55.1277 18.8048 54.9541 18.907C54.7818 19.0072 29.8678 33.4859 30.5205 33.1066C30.3126 33.2272 30.2392 33.4778 30.2386 33.5942L30.1734 56.6928C30.1723 57.0057 30.4254 57.2594 30.7383 57.2605C31.0501 57.2605 31.3043 57.0079 31.3055 56.6961L31.3685 34.5751L37.2942 37.9966L37.1991 71.6248L31.2723 68.2032L31.2889 62.545C31.29 62.2321 31.0368 61.9784 30.725 61.9773C30.7239 61.9773 30.7228 61.9773 30.7228 61.9773C30.4111 61.9773 30.1579 62.2299 30.1568 62.5417L30.1391 68.5277C30.138 68.7305 30.2463 68.9179 30.4221 69.0196L37.4799 73.0941C37.6545 73.1947 37.8702 73.1953 38.0448 73.0947C38.0455 73.0943 38.0457 73.0935 38.0463 73.0932C38.0461 73.0933 38.0465 73.0931 38.0463 73.0932L62.4806 58.894C62.6553 58.7934 62.7615 58.6076 62.7626 58.4064C62.7639 57.9155 62.861 23.1606 62.861 23.4702C62.861 23.355 62.7773 23.0958 62.5779 22.9804ZM38.3796 54.6747L38.4011 46.9965L54.4872 37.6409L61.1116 41.4652L38.3796 54.6747ZM61.6808 40.4865L55.6153 36.9847L61.7004 33.4457L61.6808 40.4865ZM38.4048 45.6854L38.4265 37.9963C43.5622 35.0116 51.6069 30.3364 54.5104 28.649L61.1286 32.4693L38.4048 45.6854ZM55.6389 27.9931L61.7256 24.4559L61.7059 31.4952L55.6389 27.9931ZM55.2393 20.0502L61.1662 23.4724C52.7063 28.3887 47.1713 31.6053 37.8606 37.0162L31.9337 33.594L55.2393 20.0502ZM38.376 55.9854L49.4589 49.5451L49.414 65.1787L38.3323 71.6188L38.376 55.9854ZM50.548 64.5197L50.593 48.8862L61.6753 42.4463L61.6316 58.0786L50.548 64.5197Z" fill="white"/>
<path d="M30.7272 61.1757C31.039 61.1757 31.2933 60.9231 31.2944 60.6114L31.2999 58.6352C31.301 58.3223 31.0478 58.0686 30.735 58.0675C30.4232 58.0675 30.1689 58.3201 30.1678 58.6319L30.1623 60.608C30.1612 60.9209 30.4144 61.1746 30.7272 61.1757Z" fill="white"/>
<path d="M47.2529 56.6608C46.9412 56.6608 46.6869 56.9134 46.6858 57.2251L46.678 60.0388C46.6769 60.3516 46.9301 60.6053 47.243 60.6064C47.5547 60.6064 47.809 60.3538 47.8101 60.0421L47.8179 57.2285C47.819 56.9156 47.5658 56.6619 47.2529 56.6608Z" fill="white"/>
<path d="M52.764 53.458C52.4523 53.458 52.198 53.7106 52.1969 54.0224L52.1892 56.836C52.188 57.1489 52.4412 57.4026 52.7541 57.4037C53.0658 57.4037 53.3201 57.1511 53.3212 56.8393L53.329 54.0257C53.3301 53.7128 53.0769 53.4591 52.764 53.458Z" fill="white"/>
</svg>
