<svg width="93" height="92" viewBox="0 0 93 92" fill="none" xmlns="http://www.w3.org/2000/svg">
<rect x="0.5" width="92" height="92" rx="46" fill="black"/>
<path d="M68.6001 30.5387L49.1961 19.2666C48.0071 18.5756 46.4113 18.7138 44.8132 19.6392L27.9902 29.3425C24.9931 31.0793 22.3641 35.8409 22.3641 39.5367L22.4321 61.2496C22.4326 61.4497 22.5399 61.6354 22.7134 61.7371C45.9917 75.2718 35.6897 69.282 42.2445 73.0933C42.4263 73.1968 42.6413 73.1904 42.81 73.0921L45.8779 71.3144C46.0531 71.2127 46.1609 71.0259 46.1603 70.8236L46.1227 58.8018L56.2776 52.8999L66.7179 58.9633C66.8948 59.0657 67.1098 59.0639 67.2845 58.9644C67.2955 58.9581 67.3 58.9455 67.3105 58.9384L70.3524 57.1878C70.5281 57.0861 70.6365 56.8982 70.6359 56.6947L70.5679 34.5386C70.5575 32.926 69.975 31.2345 68.6001 30.5387ZM41.8924 50.8895L41.9571 71.6162L23.563 60.9212L23.4962 39.5345C23.4962 36.2477 25.9084 31.8565 28.5568 30.3231L45.3804 20.6198C46.618 19.9012 47.8004 19.7652 48.6273 20.2461L65.9534 30.311C65.9507 30.3117 65.9479 30.313 65.9453 30.3137C65.3822 30.4538 64.8409 30.6922 64.3421 30.9831C46.7405 41.2544 47.2265 40.6221 45.8856 41.9645C43.8466 43.7833 41.8924 47.6977 41.8924 50.8895ZM66.368 36.3096L66.3873 41.9588L65.4882 41.439L60.0614 38.3007L64.9203 35.4949C65.7601 35.0063 66.368 35.2885 66.368 36.3096ZM48.0956 45.1982L58.9293 38.9541L65.8468 42.9538L46.1117 54.4234L46.0923 49.1229C46.0923 47.5949 47.2282 45.6939 48.0956 45.1982ZM46.1161 55.7313L66.394 43.9462C66.3944 44.0602 66.401 45.8203 66.4005 45.7063C43.959 58.7494 46.2939 57.3924 46.1227 57.4918L46.1161 55.7313ZM57.4076 52.2471L66.4044 47.0146C66.407 47.942 66.4342 57.8389 66.4332 57.4885L57.4076 52.2471ZM67.5654 57.4851C67.565 57.3636 67.4996 36.1738 67.5001 36.3074C67.5001 34.3517 65.9307 33.5979 64.3526 34.5165L47.5317 44.2165C46.108 45.0308 44.9603 47.4532 44.9603 49.1251L45.0271 70.4985L43.0894 71.6216L43.0245 50.8884C43.0245 48.0409 44.8222 44.4412 46.6622 42.787C47.8624 41.5883 47.1283 42.3248 64.9103 31.9627C67.367 30.5301 69.4158 31.4529 69.4359 34.5441L69.5028 56.3697L67.5654 57.4851Z" fill="white"/>
</svg>
