<svg width="93" height="92" viewBox="0 0 93 92" fill="none" xmlns="http://www.w3.org/2000/svg">
<rect x="0.5" width="92" height="92" rx="46" fill="white"/>
<path d="M73.6027 40.8741C73.5557 40.7625 73.4864 40.6621 73.3782 40.5994L51.8461 28.0897C51.6709 27.9874 51.4553 27.9874 51.279 28.0885L19.6146 46.3604C19.4433 46.4596 19.3288 46.6518 19.3293 46.8568L19.3393 50.9075C19.3399 51.1082 19.4471 51.2944 19.6207 51.395C45.292 66.3126 13.6279 47.9125 41.1594 63.9114C41.3343 64.0122 41.548 64.0127 41.7249 63.9114L52.3607 57.7707C52.6316 57.6143 52.7245 57.2682 52.568 56.9974C52.4105 56.726 52.0634 56.6331 51.7947 56.7901L42.0057 62.4422C42.0054 62.3151 41.9983 59.5227 41.9988 59.697L72.5308 42.0692L72.538 44.8143L56.1511 54.275C55.8802 54.4314 55.7874 54.7774 55.9438 55.0483C56.0997 55.3192 56.4463 55.4104 56.7171 55.2556L73.3876 45.6307C73.5634 45.529 73.6712 45.3416 73.6706 45.1388L73.6607 41.0886C73.6605 41.0119 73.6317 40.9424 73.6027 40.8741ZM51.5609 29.2328L71.9648 41.087L41.4325 58.7166C13.9067 42.7125 22.8688 47.9233 21.0269 46.8524L51.5609 29.2328ZM20.4636 47.8402C22.5632 49.0605 12.8843 43.4349 40.8664 59.6987C40.8667 59.8236 40.8738 62.6102 40.8734 62.436L20.4708 50.5797L20.4636 47.8402Z" fill="black"/>
<path d="M53.9289 56.8653L55.1378 56.1677C55.4087 56.0112 55.5015 55.6652 55.3451 55.3943C55.1876 55.1229 54.841 55.0295 54.5718 55.187L53.3629 55.8846C53.092 56.0411 52.9991 56.3871 53.1556 56.658C53.3135 56.9306 53.6607 57.0202 53.9289 56.8653Z" fill="black"/>
<path d="M37.636 54.5514C37.657 54.5635 37.6797 54.5746 37.7034 54.584L41.1571 56.5894C41.3361 56.693 41.5522 56.6891 41.7243 56.59C50.4373 51.5564 58.0686 47.1476 67.7277 41.5673C67.903 41.4662 68.0108 41.2793 68.0108 41.0776C68.0108 40.8758 67.9035 40.689 67.7288 40.5873C46.7838 28.4269 76.2385 45.5017 51.835 31.361C51.6592 31.2593 51.4437 31.2598 51.2679 31.3604C42.1158 36.6423 38.3846 38.7925 25.2639 46.3715C25.0892 46.4726 24.9814 46.6589 24.9808 46.8607C24.9803 47.063 25.0875 47.2493 25.2622 47.351L37.636 54.5514ZM30.1902 48.907L35.2016 45.9945L42.9553 50.4714L37.9229 53.4038L30.1902 48.907ZM62.7258 38.9921L57.7021 41.9194L49.9689 37.4227L54.9808 34.5101C55.0953 34.5763 63.2318 39.285 62.7258 38.9921ZM51.5503 32.5046L53.8661 33.849L48.5576 36.9335C48.3835 37.0346 48.2763 37.2209 48.2763 37.4227C48.2763 37.6244 48.3835 37.8107 48.5576 37.9119L57.418 43.0637C57.5927 43.1659 57.8111 43.1664 57.9879 43.0637L63.8521 39.6465L66.3154 41.0759L54.4369 47.9383L50.3385 45.5486C51.5139 44.3922 51.2709 42.8026 49.6057 41.8448C47.9703 40.8897 45.4538 40.8429 43.7011 41.6843L39.694 39.3476L51.5503 32.5046ZM44.1734 45.2335C42.7129 44.5293 42.7117 43.4906 43.9525 42.8138C45.3388 42.0189 47.6671 42.0234 49.038 42.8238C49.991 43.3729 50.2842 44.1486 49.4247 44.8661C48.3408 45.7706 45.9225 46.0741 44.1734 45.2335ZM38.5588 39.9963L42.6567 42.3863C41.3968 43.6115 41.8122 45.199 43.376 46.1067L43.3793 46.1083C45.0094 47.0393 47.4978 47.1365 49.3035 46.2561L53.3075 48.5908L41.4418 55.4458L39.0508 54.0573L44.3687 50.9584C44.5429 50.8567 44.6501 50.6698 44.6495 50.4681C44.649 50.2663 44.5412 50.08 44.3665 49.9789L35.4835 44.8502C35.3077 44.7491 35.0916 44.7485 34.9158 44.8513L29.0628 48.2529L26.6751 46.8634L38.5588 39.9963Z" fill="black"/>
</svg>
