<svg width="93" height="92" viewBox="0 0 93 92" fill="none" xmlns="http://www.w3.org/2000/svg">
<path d="M31.7183 31.0727L37.2836 34.3069L37.3615 68.0002C37.3623 68.3087 37.5268 68.5935 37.7937 68.7486C37.9695 68.8507 43.7116 72.1874 43.5359 72.0853C43.5355 72.0851 43.5363 72.0855 43.5359 72.0853C43.8041 72.2398 44.1329 72.2416 44.404 72.0864L53.7995 66.6618C54.069 66.5059 54.2343 66.2186 54.2335 65.9083L54.1394 25.282L59.6766 22.0858C59.8995 21.957 60.0538 21.7357 60.0979 21.4815C60.142 21.2272 60.0708 20.967 59.9029 20.7712C51.7089 11.1548 48.9828 7.98597 49.1492 8.1654C49.0921 8.10385 49.0323 8.04388 48.9564 7.99981L43.2157 4.66372C42.9996 4.53828 42.7394 4.51031 42.5055 4.58998C42.2698 4.66881 42.0783 4.84426 41.9808 5.07311L39.4084 11.1054C39.2202 11.5469 39.4253 12.0563 39.8661 12.2445C40.3077 12.4335 40.8171 12.2284 41.0052 11.7868L43.192 6.65809L47.4204 9.11512L37.4825 32.4143L33.2541 29.9573L36.185 23.0851C36.3732 22.6435 36.1681 22.1341 35.7273 21.9459C35.29 21.7612 34.7772 21.9637 34.5882 22.4036L31.3564 29.9819C31.1843 30.3853 31.3403 30.8532 31.7183 31.0727ZM39.0185 34.0126L43.0106 31.7075L43.0987 69.8241L39.0965 67.4984L39.0185 34.0126ZM52.8366 24.0301C52.5671 24.1861 52.4018 24.4734 52.4027 24.7836L52.4968 65.41L44.8346 69.8335L44.7431 30.2048C44.7422 29.8946 44.5769 29.6089 44.3083 29.4547C44.0397 29.3 43.7101 29.2998 43.4412 29.4547L39.7147 31.6061L48.7684 10.38L57.906 21.1034L52.8366 24.0301Z" fill="white"/>
<path d="M37.9439 14.5381L36.4182 18.1157C36.2301 18.5573 36.4352 19.0667 36.8759 19.2549C37.3102 19.4405 37.8249 19.2429 38.0151 18.7972L39.5407 15.2195C39.7289 14.7779 39.5238 14.2685 39.083 14.0804C38.6448 13.8948 38.1329 14.0973 37.9439 14.5381Z" fill="white"/>
<path d="M5.27125 70.9913L10.8412 74.2282L10.867 83.2533C10.8678 83.5618 11.0323 83.8466 11.2984 84.0008C11.4741 84.1029 17.216 87.4393 17.0403 87.3372L17.0425 87.3394C17.3064 87.4915 17.6379 87.4951 17.9096 87.3386L27.3135 81.9098C27.583 81.7539 27.7483 81.4665 27.7474 81.1555L27.7025 65.1947L33.2296 62.0035C33.6985 61.7325 33.8084 61.1002 33.4559 60.6889C25.262 51.0725 22.5368 47.9048 22.7033 48.0842C22.6461 48.0225 22.5862 47.9625 22.5102 47.9184L16.7696 44.5823C16.5534 44.4569 16.2932 44.4297 16.0593 44.5086C15.8237 44.5874 15.6321 44.7628 15.5346 44.9917L4.90933 69.9004C4.73727 70.3039 4.89323 70.7717 5.27125 70.9913ZM12.5766 73.9283L16.5653 71.6253L16.6034 85.0764L12.6011 82.7506L12.5766 73.9283ZM26.3989 63.9428C26.1294 64.0987 25.9641 64.3861 25.965 64.6971L26.0099 80.658L18.3393 85.0857L18.2969 70.1217C18.295 69.4444 17.5608 69.0455 16.995 69.3724L13.2681 71.524L22.3222 50.2985L31.459 61.0212L26.3989 63.9428ZM16.7458 46.5767L20.9742 49.0337L11.0354 72.3329L6.80707 69.8759L16.7458 46.5767Z" fill="white"/>
<path d="M77.0065 10.4417L71.2658 7.10561C71.0496 6.97932 70.7886 6.95135 70.5555 7.03187C70.3199 7.11069 70.1283 7.28614 70.0309 7.51499L59.4064 32.4237C59.2343 32.8272 59.3903 33.2951 59.7683 33.5146L65.3326 36.7486L65.3632 51.7817C65.3641 52.0902 65.5285 52.375 65.7946 52.5301C65.9704 52.6322 71.7134 55.9689 71.5376 55.8668C71.5372 55.8666 71.5381 55.867 71.5376 55.8668C71.8058 56.0213 72.1346 56.0231 72.4058 55.8679L81.8106 50.4383C82.0792 50.2832 82.2454 49.995 82.2445 49.6848L82.1987 27.7188L87.7267 24.5277C88.1955 24.2567 88.3055 23.6243 87.953 23.2131C76.6274 9.95322 77.275 10.5976 77.0065 10.4417ZM71.242 9.09997L75.4704 11.557L65.5317 34.8562L61.3041 32.3992L71.242 9.09997ZM67.0982 51.2799L67.0677 36.4545L71.0607 34.1494L71.1005 53.6057L67.0982 51.2799ZM80.896 26.4669C80.6273 26.6229 80.4612 26.9102 80.462 27.2204L80.5078 49.1855L72.8367 53.6148L72.7931 32.6458C72.7923 32.3356 72.627 32.05 72.3583 31.8957C72.0898 31.741 71.7602 31.7408 71.4912 31.8957L67.7643 34.0473L76.8184 12.8218L85.9561 23.5453L80.896 26.4669Z" fill="white"/>
</svg>
