<svg width="93" height="92" viewBox="0 0 93 92" fill="none" xmlns="http://www.w3.org/2000/svg">
<path d="M29.8627 25.4854L54.3765 11.2426C54.7918 11.0019 54.9325 10.4713 54.6918 10.0569C54.4494 9.63986 53.9154 9.50255 53.5052 9.74242L28.9914 23.9852C28.5761 24.2259 28.4354 24.7565 28.6761 25.171C28.9136 25.5808 29.4427 25.7292 29.8627 25.4854Z" fill="white"/>
<path d="M34.5753 31.4371C34.8127 31.847 35.3419 31.9953 35.7619 31.7516L60.2757 17.5088C60.691 17.2681 60.8317 16.7375 60.591 16.323C60.3486 15.9052 59.8146 15.7679 59.4044 16.0086L34.8906 30.2514C34.4753 30.4921 34.3346 31.0227 34.5753 31.4371Z" fill="white"/>
<path d="M38.298 68.5155C38.5354 68.9253 39.0645 69.0737 39.4846 68.8299L61.6251 55.9662C62.0404 55.7255 62.1811 55.1949 61.9404 54.7804C61.698 54.3625 61.1657 54.2269 60.7538 54.466L38.6133 67.3297C38.1979 67.5704 38.0572 68.101 38.298 68.5155Z" fill="white"/>
<path d="M78.6072 57.9724L73.3048 54.9109C73.0352 54.7558 72.7013 54.7558 72.4352 54.9126L67.9486 57.5201C67.206 56.4252 66.7428 55.172 66.7428 54.1023L66.8462 21.7984C66.8631 15.8959 62.6913 8.65834 57.5397 5.66384C54.8631 4.12802 52.3051 3.91443 50.337 5.05866L16.9914 24.4302C16.9738 24.4403 16.9642 24.4577 16.9475 24.4689C15.0296 25.6095 13.9671 27.8828 13.9587 30.8896C13.9587 31.2007 14.1232 31.488 14.3927 31.6439L19.6867 34.6995C19.9545 34.8537 20.2834 34.8537 20.5546 34.6995C20.8225 34.5452 20.9886 34.2596 20.9886 33.9494C20.9922 32.3357 21.9062 31.8375 23.3059 32.6458C25.0265 33.6391 26.4741 36.1429 26.4691 38.1118L26.4402 48.432C26.4385 48.9117 26.8267 49.3008 27.3065 49.3025C27.7845 49.3025 28.1744 48.9151 28.1761 48.4371L28.2049 38.1169C28.2134 35.5165 26.4419 32.4525 24.1738 31.1422C21.9718 29.8698 20.0409 30.7069 19.4528 32.5602L15.7082 30.398C15.8133 28.2553 16.5744 26.6796 17.8746 25.9304C20.5271 24.4085 24.2534 26.8165 26.3863 29.0083C30.0267 32.8159 31.7728 37.7877 31.7631 41.1682C31.6214 85.4609 31.6702 70.1839 31.6597 73.4891C31.6597 75.9107 33.3554 78.9941 35.5823 80.263C38.0509 81.6979 40.3482 80.4071 40.3914 77.5168V76.5389L43.9564 78.5973V79.5857C43.9368 79.8015 44.326 84.0048 41.8069 85.4553C40.4152 86.2554 38.5081 86.0375 36.4332 84.8391C31.8309 82.1819 28.0981 75.7182 28.1134 70.4302L28.1439 59.5031C28.1456 59.0234 27.7574 58.6344 27.2777 58.6327C26.7996 58.6327 26.4097 59.02 26.408 59.498L26.3775 70.4251C26.3623 76.2675 30.4832 83.4083 35.5653 86.3427C37.7944 87.6281 40.4411 88.2414 42.6731 86.9597C42.6726 86.96 42.6737 86.9594 42.6731 86.9597C42.677 86.9576 42.6829 86.9577 42.6867 86.9555L76.0357 67.5806C77.9614 66.4525 79.0226 64.1877 79.0226 61.2102L79.0395 58.7352C79.0395 58.7343 79.0388 58.7334 79.0388 58.7325C79.0388 58.7292 79.0412 58.7266 79.0412 58.7234C79.0412 58.4131 78.8751 58.1275 78.6072 57.9724ZM72.8725 56.6654L76.4425 58.7267L44.8299 77.0969L41.2615 75.0366L72.8725 56.6654ZM51.2083 6.55888C52.6187 5.74012 54.5596 5.95456 56.6718 7.1666C61.3403 9.88141 65.1256 16.4425 65.1103 21.7933L65.0069 54.0998C65.0069 55.4898 65.5257 57.0417 66.4241 58.4013L39.0879 74.2841C38.82 74.4392 38.6556 74.7249 38.6556 75.0342C38.6551 75.209 38.6483 77.6865 38.6488 77.5117C38.6443 79.4179 37.3034 79.5278 35.8475 78.3354C34.3958 77.1367 33.4142 75.0519 33.4142 73.4916L33.5006 41.1699V41.1674C33.5006 33.8532 27.2614 25.143 21.3836 23.8996C21.3785 23.8979 21.3717 23.897 21.3666 23.8953L51.2083 6.55888ZM77.2867 61.2042C77.2867 63.5461 76.5307 65.2786 75.161 66.0812L45.2973 83.4312C45.3121 83.3818 45.3172 83.3239 45.3312 83.2737C45.8078 81.553 45.6665 79.8419 45.6922 79.5179L45.6967 78.6009L77.2935 60.2431L77.2867 61.2042Z" fill="white"/>
<path d="M49.859 54.7033C52.6306 53.103 55.2225 50.3747 57.1584 47.0208C60.069 41.9819 60.9403 36.3938 59.3825 32.7848C57.7586 29.0287 53.6995 27.7522 48.9487 30.4955C46.1839 32.0915 43.5937 34.819 41.6578 38.1746C38.7455 43.2024 37.8725 48.799 39.4337 52.4351C40.9881 56.0261 44.9948 57.5091 49.859 54.7033ZM57.5379 32.9633L51.1931 39.5154L53.6816 30.7591C55.2441 30.6927 56.6789 31.4276 57.5379 32.9633ZM43.1597 39.0433C44.9464 35.9471 47.3112 33.4451 49.8166 31.9991C50.4845 31.6134 51.1389 31.3159 51.7779 31.1083L48.5792 42.3633C48.469 42.7464 48.6351 43.1541 48.9792 43.3524C49.3324 43.5555 49.8057 43.4435 50.037 43.2041L58.2027 34.7721C58.891 37.8757 57.9584 42.1643 55.6565 46.1529C53.8698 49.2474 51.5016 51.7494 48.9911 53.1997C44.9736 55.5213 42.143 54.3271 41.0272 51.7486C39.6762 48.6007 40.5136 43.6143 43.1597 39.0433Z" fill="white"/>
<path d="M27.2862 56.5569C27.7642 56.5569 28.1541 56.1696 28.1558 55.6915L28.1659 52.0707C28.1676 51.5909 27.7794 51.2019 27.2997 51.2002C26.8217 51.2002 26.4318 51.5875 26.4301 52.0656L26.4199 55.6865C26.4182 56.1662 26.8064 56.5552 27.2862 56.5569Z" fill="white"/>
</svg>
