<svg width="93" height="92" viewBox="0 0 93 92" fill="none" xmlns="http://www.w3.org/2000/svg">
<path d="M39.3538 69.7217L36.8848 71.1473C36.4695 71.3864 36.3271 71.9169 36.567 72.3323C36.8086 72.7495 37.3423 72.8889 37.7527 72.6493L40.2217 71.2236C40.637 70.9846 40.7794 70.454 40.5396 70.0387C40.298 69.6234 39.7657 69.4776 39.3538 69.7217Z" fill="white"/>
<path d="M46.4937 4.33749C37.5782 4.33749 21.3044 7.39246 21.3044 15.9104C21.3044 21.2444 21.3044 38.2183 21.3044 45.8996C21.3044 52.2604 31.9222 57.2593 45.6258 57.4648L45.6261 66.0997L41.6778 68.3791C41.2625 68.6182 41.1201 69.1487 41.3599 69.5641C41.6016 69.9813 42.1352 70.1207 42.5457 69.8811L45.6262 68.1028L45.6267 78.1499C43.8789 79.3958 42.5639 81.8031 42.5694 83.8865C42.5782 86.4869 44.6548 87.7029 46.9387 86.3818C48.8975 85.2511 50.4265 82.6016 50.4198 80.3504C50.4146 78.4624 49.273 77.0693 47.3625 77.3899L47.3621 67.1009L60.0542 59.7745L60.0609 62.7309C58.3685 63.9984 57.1095 66.3512 57.1157 68.3876C57.1228 71.025 59.2362 72.1871 61.4849 70.8863C63.4429 69.7556 64.9719 67.1061 64.966 64.8532C64.9606 62.9079 63.7489 61.5167 61.7948 61.9168L61.7867 58.2709C61.7858 57.9607 61.6206 57.6742 61.3519 57.5199C61.0832 57.3656 60.7518 57.3673 60.4848 57.5216L47.362 65.0976L47.3617 57.4648C61.072 57.2594 71.6958 52.2606 71.6958 45.8996C71.6958 40.5651 71.6958 23.5921 71.6958 15.9104C71.6958 9.42129 60.6255 4.33749 46.4937 4.33749ZM48.6839 80.3555C48.689 81.9862 47.4922 84.0594 46.0708 84.8799C44.9375 85.5285 44.3088 85.1188 44.3053 83.8814C44.3011 82.2507 45.4978 80.1809 46.9192 79.3587C48.0139 78.7286 48.6803 79.0818 48.6839 80.3555ZM63.2301 64.8583C63.2344 66.4907 62.0376 68.5639 60.6179 69.3827C59.5196 70.0162 58.8551 69.6627 58.8515 68.3825C58.8464 66.7535 60.0432 64.6854 61.4646 63.8632C62.5761 63.2251 63.2266 63.6002 63.2301 64.8583ZM69.9599 45.8996C69.9599 51.2376 59.2134 55.7485 46.4937 55.7485C33.7809 55.7485 23.0403 51.2376 23.0403 45.8996V40.5371C26.6711 44.8548 35.6743 47.8456 46.4937 47.8456C57.3194 47.8456 66.3278 44.8542 69.9599 40.5359V45.8996ZM69.9599 36.2591C69.9599 41.5989 59.2134 46.1098 46.4937 46.1098C33.7809 46.1098 23.0403 41.5989 23.0403 36.2591C23.0403 36.0615 23.0403 30.684 23.0403 30.8974C26.6711 35.2144 35.6743 38.2052 46.4937 38.2052C57.3194 38.2052 66.3278 35.2139 69.9599 30.8964C69.9599 31.4441 69.9599 36.4419 69.9599 36.2591ZM69.9599 26.6204C69.9599 31.9585 59.2134 36.4693 46.4937 36.4693C33.7809 36.4693 23.0403 31.9585 23.0403 26.6204C23.0403 24.0982 23.0403 19.933 23.0403 20.1874C26.6711 24.5043 35.6743 27.4951 46.4937 27.4951C57.3194 27.4951 66.3278 24.5038 69.9599 20.1863C69.9599 20.4802 69.9599 26.9473 69.9599 26.6204ZM46.4937 25.7593C33.7809 25.7593 23.0403 21.2485 23.0403 15.9104C23.0403 8.81969 38.7094 6.07334 46.4937 6.07334C59.2134 6.07334 69.9599 10.5774 69.9599 15.9104C69.9599 21.2485 59.2134 25.7593 46.4937 25.7593Z" fill="white"/>
<path d="M46.4953 9.43485C35.9539 9.43485 29.481 13.2066 29.481 15.9121C29.481 18.621 35.9539 22.3978 46.4953 22.3978C57.0435 22.3978 63.5199 18.621 63.5199 15.9121C63.5199 13.2066 57.0435 9.43485 46.4953 9.43485ZM46.4953 20.6619C35.9548 20.6619 31.2168 16.8868 31.2168 15.9121C31.2168 14.9391 35.9548 11.1707 46.4953 11.1707C57.0435 11.1707 61.784 14.9391 61.784 15.9121C61.784 16.8868 57.0435 20.6619 46.4953 20.6619Z" fill="white"/>
<path d="M32.9431 78.1736L32.9367 75.4293L35.3905 74.0122C35.8058 73.7732 35.9482 73.2426 35.7083 72.8273C35.4668 72.4119 34.9362 72.2662 34.5225 72.5103L31.634 74.1783C31.3645 74.3326 31.1992 74.6207 31.2 74.931L31.2092 79.034C29.5648 80.3176 28.3546 82.6258 28.3606 84.6256C28.3676 87.1751 30.4048 88.4675 32.7299 87.1226C34.6878 85.9919 36.2169 83.3424 36.2109 81.0895C36.2055 79.1076 34.9427 77.7038 32.9431 78.1736ZM31.862 85.6207C30.7753 86.2481 30.1001 85.9108 30.0965 84.6205C30.0914 82.9915 31.2882 80.9217 32.7096 80.0995C33.7712 79.4884 34.4714 79.7834 34.4751 81.0946C34.4793 82.727 33.2825 84.8002 31.862 85.6207Z" fill="white"/>
</svg>
