<svg width="93" height="92" viewBox="0 0 93 92" fill="none" xmlns="http://www.w3.org/2000/svg">
<path d="M18.5112 82.4202C28.4912 88.1758 43.8255 89.4235 56.2029 85.0585C56.3765 85.1642 58.9308 86.7048 58.757 86.6047C59.975 87.3057 61.3489 87.654 62.8271 87.654C64.8969 87.654 67.1726 86.9717 69.5128 85.6207C77.4326 81.0488 83.8548 69.9116 83.8285 60.7941C83.8159 56.2405 82.2226 52.8134 79.3442 51.1317L79.3405 51.1283L79.3299 51.1218C79.3202 51.1162 79.3121 51.1085 79.3024 51.1029C79.2972 51.0999 79.2913 51.0982 79.2861 51.0952L73.8999 47.8193C73.1079 47.3582 72.2455 47.0598 71.3357 46.8972L71.3869 34.6742C71.3871 34.6551 71.3918 34.6365 71.3919 34.6174C71.3919 34.6091 71.3876 34.6024 71.3873 34.5942L71.4364 22.8703C71.4367 22.8423 71.4435 22.8149 71.4436 22.7868C71.4639 17.8446 68.2474 13.2109 62.3499 9.71881C58.9418 7.91177 55.5548 6.57174 52.2815 5.73602C51.8153 5.61143 51.344 5.89706 51.2262 6.36239C51.1076 6.82686 51.3881 7.29896 51.8526 7.41763C54.992 8.21944 58.2501 9.50946 61.5006 11.2326C66.7983 14.3706 69.7094 18.4594 69.7053 22.7491C69.7051 22.7568 69.701 22.7631 69.701 22.7707C69.701 27.7174 65.7537 31.7167 61.4493 34.2356C49.0981 41.2441 30.6595 40.6651 19.5809 34.2707C16.8104 32.7033 13.9065 30.2609 12.3879 27.458C11.5267 25.8691 11.1036 24.0279 11.1017 22.6182C11.0957 18.2896 14.0546 14.1839 19.4342 11.058C24.974 7.83803 32.3726 6.06404 40.2653 6.06234C40.745 6.06234 41.1332 5.6733 41.1332 5.19442C41.1332 4.71469 40.7442 4.32649 40.2653 4.32649C32.0708 4.32819 24.3629 6.18609 18.5621 9.55777C12.6419 12.9975 9.38138 17.6207 9.3693 22.578C9.36877 22.5898 9.36242 22.5995 9.36242 22.6114C9.31559 34.0511 9.21816 57.8521 9.17171 69.2013C9.15306 74.2385 12.4697 78.9324 18.5112 82.4202ZM48.7939 73.5819C38.3674 75.3747 27.1967 73.777 19.4664 69.3217C10.8733 64.3503 11.1193 58.6634 10.9529 58.2023L10.9778 52.158C12.5466 54.8148 15.134 57.2362 18.5985 59.2295C26.6339 63.8609 38.9054 65.9564 51.0584 63.3272C49.4973 67.0051 48.7888 70.6708 48.7939 73.5819ZM19.3791 80.9166C13.8995 77.7543 10.8915 73.596 10.9076 69.2081L10.9305 63.635C12.4956 66.3362 15.0989 68.8001 18.5985 70.8244C27.2069 75.7851 38.8799 77.0131 48.8874 75.3378C49.1145 77.5795 49.9178 80.0722 51.4285 81.7578C51.8534 82.2327 52.4861 82.8171 53.2816 83.2813L54.2779 83.8875C42.9702 87.399 28.5906 86.23 19.3791 80.9166ZM82.0926 60.7992C82.1172 69.3624 76.085 79.8224 68.6449 84.1171C65.191 86.1123 61.9863 86.4615 59.6224 85.1003C57.6698 83.9769 56.6205 81.8178 56.205 79.6213C54.5942 71.0006 61.0175 58.4397 69.4213 53.5871C69.4331 53.5803 69.4446 53.5755 69.4564 53.5687C72.2053 51.9891 75.7149 51.0251 78.4531 52.62L78.4573 52.6215C80.7897 53.9771 82.0816 56.8794 82.0926 60.7992ZM74.3016 50.0951C72.3472 50.2799 70.251 51.1038 68.5542 52.0827C59.8197 57.1255 52.6703 70.4432 54.5162 80.0095C54.6613 80.7671 54.9985 81.8868 55.2251 82.432L54.1665 81.7862C53.5542 81.4308 52.8838 80.7807 52.6723 80.5387C51.2137 78.8622 50.6556 76.4725 50.5676 74.2343C50.3686 71.4477 51.1444 66.9764 53.3503 62.4808C56.109 56.7357 60.224 52.4565 63.99 50.2892C66.7154 48.716 70.2977 47.7298 73.0125 49.3111L74.3016 50.0951ZM69.6755 28.8877L69.65 34.6774C69.6032 38.9393 66.6283 43.0054 61.2574 46.131C49.7692 52.7989 31.0207 52.798 19.4648 46.1301C14.4819 43.2593 11.5072 39.4983 11.0465 35.491L11.0745 28.6648C12.865 31.6801 15.7674 34.0793 18.7155 35.7811C30.5995 42.6415 50.1337 42.8343 62.3043 35.7467C64.9847 34.2257 68.0381 31.6417 69.6755 28.8877ZM18.5977 47.6337C30.6194 54.569 50.1479 54.5851 62.1295 47.632C65.5642 45.6333 68.0788 43.242 69.6237 40.6365L69.5993 46.192C69.5992 46.1964 69.5967 46.2001 69.5967 46.2047C69.5967 46.3955 69.5674 46.586 69.5557 46.7765L69.5486 46.7771C65.9331 46.8696 62.6412 49.061 63.1229 48.7847C63.0918 48.8025 63.0619 48.8256 63.0309 48.8436C58.4755 51.5088 54.7079 56.0996 52.2828 60.777C52.1829 60.9679 52.0798 61.1568 51.9836 61.3493C40.9858 64.0635 27.9674 62.6264 19.4648 57.725C14.3987 54.8102 11.3949 50.9791 11.0118 47.0209V46.8989C11.0118 46.8776 11.0012 46.8597 10.9997 46.8387L11.0253 40.6241C12.5981 43.2564 15.1652 45.6564 18.5977 47.6337Z" fill="white"/>
<path d="M44.4355 4.48923C43.9532 4.45193 43.5396 4.80876 43.5015 5.28595C43.4642 5.76399 43.8202 6.18185 44.2982 6.21999C45.5179 6.31661 46.7392 6.45816 47.9267 6.63954C47.9716 6.64632 48.0157 6.64971 48.0589 6.64971C48.4802 6.64971 48.8506 6.34289 48.9158 5.91316C48.9887 5.43937 48.6632 4.99608 48.1894 4.92404C46.9604 4.73587 45.6975 4.58924 44.4355 4.48923Z" fill="white"/>
<path d="M77.141 62.5427C77.1368 62.5435 77.1334 62.5444 77.1292 62.5444L76.4163 62.6469C76.3002 62.2757 76.1392 61.9604 75.9858 61.6731L76.7825 59.7499C77.0393 58.9396 76.7283 58.4082 76.4121 58.2209L75.556 57.6047C75.1916 57.2996 74.6746 57.2784 74.2457 57.542C74.0906 57.6369 73.9567 57.753 73.8609 57.8674L72.5759 59.2905C72.2818 59.2575 71.9818 59.2541 71.68 59.2812L71.4495 58.337C71.38 57.9852 71.1639 57.6971 70.8554 57.547C70.5375 57.3911 70.1561 57.4004 69.8154 57.5742L68.3982 58.2895C67.9897 58.5243 67.7023 58.9515 67.5489 59.5439L67.0344 61.3857C66.5081 61.8189 65.9843 62.3249 65.5071 62.8529L64.4892 62.7343C64.2366 62.6834 63.9857 62.7283 63.6407 62.9046C63.4331 63.0351 63.239 63.2267 63.0788 63.4674L62.0651 65.0863C61.7523 65.5982 61.721 66.1627 61.9812 66.6806L62.4821 67.6553C62.1736 68.3902 61.9354 69.1072 61.7455 69.8285L60.275 71.0812C59.891 71.3872 59.6359 71.8746 59.6079 72.3653L59.5427 73.9367C59.5206 74.3232 59.652 74.6631 59.9122 74.8962C60.0665 75.0335 60.4072 75.2513 60.9217 75.1607L61.6837 75.0547C61.7913 75.409 61.9193 75.7277 62.0651 76.0082L61.3065 77.8899C61.031 78.5061 61.1751 79.1706 61.637 79.4927L62.6126 80.2021C62.9555 80.3978 63.3967 80.4019 63.8145 80.1665C63.9272 80.0995 64.0755 79.9987 64.1832 79.8605L65.4952 78.4298C65.7868 78.4611 66.0835 78.4654 66.3716 78.4417L66.6124 79.4816C66.7107 79.7986 66.9344 80.0546 67.2268 80.1843C67.5337 80.3207 67.8863 80.3089 68.2397 80.1444L69.6297 79.4409C69.9137 79.2782 70.2943 78.9265 70.4926 78.1857L71.0105 76.3405C71.5868 75.8794 72.114 75.331 72.5429 74.8665L73.8778 75.0428C74.2186 75.0912 74.5474 74.931 74.7271 74.6428L76.2197 72.2594C76.3833 71.9992 76.396 71.6712 76.2536 71.3974L75.5628 70.0811C75.901 69.2242 76.1214 68.5588 76.296 67.902L77.7996 66.6204C78.1581 66.317 78.4065 65.8245 78.4336 65.3584L78.5116 63.7675C78.5404 63.2631 78.3048 62.9639 78.1607 62.83C77.9801 62.6622 77.6589 62.4774 77.141 62.5427ZM76.6765 65.2973L75.1534 66.5958C75.0178 66.7179 74.689 67.0544 74.5881 67.5197C74.4516 68.0783 74.2491 68.686 73.938 69.4691C73.7702 69.865 73.7541 70.2726 73.9287 70.6947L74.4847 71.7602L73.5515 73.2494L72.5446 73.1163C72.242 73.0688 71.9462 73.1332 71.7826 73.2494C71.608 73.3367 71.4834 73.4596 71.3436 73.6003C70.9613 74.0224 70.4553 74.5614 69.9595 74.9598C69.6552 75.1802 69.4204 75.5311 69.317 75.9167L68.8178 77.7305C68.7813 77.867 68.7432 77.9339 68.7652 77.9339L68.1109 78.2654L67.921 77.4466C67.7651 76.9219 67.2743 76.5939 66.642 76.6558C66.2343 76.7304 65.8529 76.7389 65.4986 76.6787C65.2079 76.6338 64.8952 76.7033 64.7333 76.8202C64.5459 76.9109 64.3883 77.0347 64.2976 77.1491L63.1415 78.4442L62.9966 78.3374L63.7094 76.571C63.8611 76.1693 63.8679 75.7904 63.6704 75.3251C63.4941 75.0276 63.3466 74.6267 63.2407 74.1707C63.1339 73.5875 62.6372 73.1866 62.0057 73.2578L61.3192 73.3536L61.3785 72.4213L62.8576 71.1618C63.1068 70.9583 63.3025 70.6575 63.4678 70.1769C63.6094 69.5725 63.8272 68.9241 64.1145 68.2512C64.3112 67.7943 64.2985 67.3307 64.1162 67.0425L63.5416 65.9991L64.4536 64.476L65.3876 64.5845C65.736 64.6498 66.0597 64.5862 66.2208 64.4709C66.4505 64.3786 66.5971 64.2319 66.7039 64.1234C67.1735 63.592 67.6566 63.1216 68.1677 62.6995C68.3033 62.5766 68.6304 62.2393 68.7245 61.8028L69.2254 59.994C69.2594 59.8618 69.2924 59.7948 69.2721 59.7914L69.9374 59.4558L70.112 60.1678C70.2231 60.7772 70.807 61.2103 71.419 61.0704C71.8072 60.9891 72.1886 60.9781 72.5285 61.034C72.7234 61.073 73.0252 61.0755 73.3184 60.906C73.4973 60.817 73.6176 60.6958 73.7414 60.5712L74.9178 59.2812L75.0594 59.3829L74.3296 61.1374C74.1465 61.6307 74.1897 62.1113 74.4152 62.4164C74.6051 62.7724 74.7695 63.0801 74.8153 63.3827C74.8432 63.7183 75.0102 64.0277 75.2746 64.2311C75.4594 64.3735 75.8646 64.4803 76.0917 64.4464L76.7359 64.354L76.6765 65.2973Z" fill="white"/>
<path d="M68.5846 64.7871C67.6913 65.2999 66.8649 66.1585 66.2622 67.1959C63.8066 71.3258 66.2464 74.7985 69.4636 72.9315C70.34 72.4331 71.1663 71.5762 71.791 70.5193C74.2225 66.3976 71.8098 62.889 68.5846 64.7871ZM70.2959 69.6361C69.8229 70.4371 69.2228 71.0719 68.5999 71.4262C66.6256 72.5602 66.6343 69.9661 67.7582 68.0749C68.2151 67.2892 68.8152 66.656 69.4551 66.289C71.4431 65.128 71.3949 67.7722 70.2959 69.6361Z" fill="white"/>
</svg>
