<svg width="93" height="92" viewBox="0 0 93 92" fill="none" xmlns="http://www.w3.org/2000/svg">
<path d="M24.2985 72.2287C24.7782 72.227 25.1664 71.838 25.1647 71.3582L25.1546 67.506C25.1529 67.0279 24.7647 66.6406 24.2866 66.6406C23.8069 66.6423 23.417 67.0313 23.4187 67.5111L23.4289 71.3633C23.4306 71.8414 23.8205 72.2287 24.2985 72.2287Z" fill="white"/>
<path d="M56.5812 73.2178C56.9254 73.3136 57.3085 73.1797 57.5187 72.8779L63.1636 64.8208L68.6067 66.277C69.1385 66.4239 69.6984 66.023 69.6984 65.4362L69.5425 10.2382C69.5405 9.87725 69.284 9.59144 69.1102 9.49064L69.1082 9.48947C64.5642 6.8486 60.8065 4.66468 61.0294 4.79418C60.7649 4.63823 60.431 4.63823 60.1597 4.79249L23.7357 25.821C23.4644 25.9781 23.3018 26.2671 23.3018 26.572C23.3018 26.5726 23.3022 26.573 23.3022 26.5737C23.3022 26.5743 23.3018 26.5747 23.3018 26.5754L23.4086 64.1207C23.4102 64.5988 23.7984 64.9861 24.2765 64.9861C24.7562 64.9844 25.1461 64.5954 25.1444 64.1156L25.0427 28.0833C25.4198 28.3024 31.7899 32.004 31.3857 31.7691C31.4209 44.2851 31.4988 72.0197 31.5352 84.9458L25.1936 81.2605L25.1749 74.6121C25.1732 74.1341 24.785 73.7467 24.307 73.7467C23.8273 73.7484 23.4374 74.1375 23.4391 74.6172L23.4594 81.7632C23.4611 82.0717 23.6255 82.3565 23.8917 82.5107L31.9725 87.2063C32.385 87.4496 32.8794 87.2845 33.11 86.9673L39.1499 78.6754L44.5846 80.1443C44.9422 80.2358 45.3135 80.1036 45.522 79.8044L51.1652 71.749L56.5812 73.2178ZM60.592 6.54698L66.9434 10.2379L32.2534 30.2663L25.9021 26.5754L60.592 6.54698ZM50.0938 70.2538L44.4506 78.3092L39.0278 76.8438C38.6701 76.7522 38.3107 76.8802 38.0989 77.1709L33.2693 83.8016L33.1218 31.7696L67.81 11.7422L67.9592 64.3072L63.0246 62.9875C62.6737 62.8909 62.299 63.029 62.0905 63.3282L56.4473 71.3828L51.0313 69.9139C50.6855 69.8182 50.3023 69.9521 50.0938 70.2538Z" fill="white"/>
<path d="M45.1406 32.9916L63.9265 22.145C64.3418 21.9052 64.4842 21.3746 64.2435 20.9593C64.0044 20.5414 63.4722 20.4007 63.0585 20.6414L44.2727 31.4879C43.8574 31.7278 43.715 32.2584 43.9557 32.6737C44.192 33.0872 44.7229 33.2314 45.1406 32.9916Z" fill="white"/>
<path d="M45.1406 41.9768L63.9265 31.1303C64.3418 30.8904 64.4842 30.3598 64.2435 29.9445C64.0044 29.5266 63.4722 29.3868 63.0585 29.6267L44.2727 40.4732C43.8574 40.713 43.715 41.2436 43.9557 41.6589C44.192 42.0724 44.7229 42.2166 45.1406 41.9768Z" fill="white"/>
<path d="M63.0584 38.6119L37.0342 53.637C36.6189 53.8768 36.4765 54.4074 36.7172 54.8227C36.9535 55.2362 37.4844 55.3804 37.9021 55.1406L63.9263 40.1155C64.3416 39.8756 64.484 39.345 64.2433 38.9297C64.0043 38.5119 63.472 38.3729 63.0584 38.6119Z" fill="white"/>
<path d="M63.0584 47.5971L37.0342 62.6222C36.6189 62.8621 36.4765 63.3926 36.7172 63.808C36.9535 64.2214 37.4844 64.3656 37.9021 64.1258L63.9263 49.1007C64.3416 48.8608 64.484 48.3303 64.2433 47.9149C64.0043 47.4979 63.472 47.3581 63.0584 47.5971Z" fill="white"/>
<path d="M64.2433 56.8993C64.0043 56.4815 63.472 56.3416 63.0584 56.5815L37.0342 71.6066C36.6189 71.8464 36.4765 72.377 36.7172 72.7923C36.9535 73.2058 37.4844 73.35 37.9021 73.1102L63.9263 58.0851C64.3416 57.8452 64.484 57.3146 64.2433 56.8993Z" fill="white"/>
<path d="M39.9584 40.6647C40.2788 40.4757 40.4703 40.485 40.5313 40.5181C40.5873 40.5494 40.6941 40.7079 40.6975 41.0766C40.7059 42.0531 39.9719 43.3439 39.1261 43.8406C38.8023 44.0296 38.6056 44.0203 38.5463 43.9889C38.4904 43.9576 38.3853 43.8016 38.3819 43.438C38.3768 42.9608 37.9903 42.5777 37.514 42.5777H37.5055C37.0274 42.582 36.6409 42.9744 36.646 43.4533C36.6593 44.91 37.56 45.7417 38.6378 45.7417C38.6509 45.7417 38.665 45.7359 38.678 45.7357L38.6853 46.7817C38.6887 47.2589 39.0769 47.6437 39.5532 47.6437H39.56C40.0381 47.6403 40.4246 47.2487 40.4212 46.7699L40.4091 45.0537C41.583 44.1455 42.447 42.4904 42.4333 41.0597C42.4232 40.1265 42.0417 39.3789 41.3857 39.0077C40.7297 38.6339 39.8889 38.6915 39.0803 39.167C38.7497 39.3594 38.5565 39.3459 38.5005 39.3154C38.4463 39.2832 38.3395 39.1264 38.3361 38.7577C38.3276 37.7787 39.0633 36.4827 39.9126 35.9844C40.233 35.7954 40.4246 35.8047 40.4856 35.8377C40.5415 35.8691 40.6483 36.0267 40.6517 36.3963C40.6568 36.8735 41.0433 37.2566 41.5196 37.2566H41.5281C42.0061 37.2524 42.3926 36.8599 42.3876 36.381C42.3791 35.4478 41.9977 34.6994 41.3416 34.3282C41.0385 34.1559 40.6942 34.0858 40.3344 34.0954L40.3279 33.0619C40.3245 32.5839 39.9363 32.1991 39.46 32.1991H39.4549C38.9752 32.2025 38.5887 32.5932 38.5921 33.0721L38.6028 34.7896C37.439 35.7052 36.5866 37.3517 36.6003 38.7729C36.6181 40.7326 38.2567 41.6597 39.9584 40.6647Z" fill="white"/>
</svg>
