<svg width="93" height="92" viewBox="0 0 93 92" fill="none" xmlns="http://www.w3.org/2000/svg">
<path d="M54.5295 7.12152C54.0811 6.96641 53.5819 7.20288 53.4243 7.65549C53.2666 8.1081 53.5056 8.60309 53.9582 8.76074L60.2626 10.9602C60.7049 11.1156 61.2079 10.8865 61.3678 10.4262C61.5255 9.97363 61.2864 9.47864 60.8338 9.32099L54.5295 7.12152Z" fill="white"/>
<path d="M11.3206 28.1433C11.3206 28.3244 11.3264 49.8659 11.3238 49.6905C11.329 50.046 11.4672 50.0882 11.5503 50.2626L45.7739 87.3808C46.1174 87.7526 46.7051 87.7546 47.0504 87.3808C47.2171 87.2 81.6089 49.8736 81.4591 50.0503C81.5954 49.8895 81.668 49.6215 81.6702 49.5107C81.6738 49.3359 81.6869 27.8932 81.6733 27.7195C81.6733 27.5305 81.6114 27.3457 81.497 27.1948L70.664 12.9046C70.6554 12.8931 70.639 12.8907 70.6298 12.8798C70.5349 12.7662 70.4178 12.6766 70.2768 12.6233C70.2694 12.6204 70.2656 12.6123 70.2581 12.6096L65.7447 11.0348C65.2963 10.8772 64.7979 11.1153 64.6394 11.5688C64.4818 12.0214 64.7208 12.5164 65.1734 12.674L69.1021 14.0447L69.0425 29.1322L46.413 37.0403L23.9497 29.1336L23.8713 14.2942L46.4173 6.129L49.4643 7.19187C49.9152 7.35122 50.4111 7.11135 50.5696 6.6579C50.7272 6.20529 50.4882 5.7103 50.0356 5.55265L46.6978 4.38807C46.5088 4.32281 46.3054 4.32281 46.1164 4.39146L22.7044 12.8698C22.6979 12.8722 22.6945 12.8795 22.688 12.882C22.5485 12.9363 22.4335 13.0274 22.3399 13.1407C22.3305 13.152 22.314 13.1547 22.3052 13.1665L11.4935 27.6237C11.3816 27.7737 11.3206 27.9559 11.3206 28.1433ZM23.4927 30.8132L45.5442 38.5747V61.3959L13.4279 49.2166L23.4927 30.8132ZM69.502 30.8106L79.5639 49.0416L47.2801 61.3918V38.5764L69.502 30.8106ZM45.5442 84.5705L15.3195 51.7897L45.5442 63.2521L45.5442 84.5705ZM47.2801 63.2503L77.6573 51.6289L47.2801 84.5706V63.2503ZM79.9374 46.1257L70.7768 29.5265L70.8302 15.9972L79.9374 28.011V46.1257ZM22.146 16.2783L22.2159 29.5307L13.0564 46.2794V28.4323L22.146 16.2783Z" fill="white"/>
</svg>
