<svg width="93" height="92" viewBox="0 0 93 92" fill="none" xmlns="http://www.w3.org/2000/svg">
<path d="M34.356 62.4225L32.3303 61.2444C31.9167 61.0053 31.3844 61.1426 31.1437 61.5597C30.9029 61.9733 31.0436 62.5039 31.459 62.7463L33.4847 63.9244C33.8981 64.1643 34.4308 64.0243 34.6713 63.6091C34.912 63.1955 34.7713 62.6649 34.356 62.4225Z" fill="white"/>
<path d="M14.2277 46.9592C13.8141 46.7202 13.2818 46.8575 13.0411 47.2745C12.8004 47.6881 12.9411 48.2204 13.3564 48.4611L16.0687 50.0376C16.4821 50.2775 17.0148 50.1375 17.2553 49.7223C17.496 49.3087 17.3553 48.7764 16.94 48.5357L14.2277 46.9592Z" fill="white"/>
<path d="M19.9523 50.2867C19.5387 50.046 19.0064 50.1833 18.7657 50.602C18.525 51.0157 18.6657 51.5479 19.081 51.7887L21.7916 53.3635C22.205 53.6034 22.7377 53.4633 22.9782 53.0482C23.2189 52.6345 23.0782 52.1023 22.6629 51.8616L19.9523 50.2867Z" fill="white"/>
<path d="M88.1487 45.8929C88.1504 45.1369 87.691 44.4368 86.8875 43.9689L42.7844 18.3397C41.4096 17.5413 39.2449 17.5396 37.86 18.3397L6.12478 36.661C5.34511 37.1103 4.89557 37.7785 4.8587 38.5002C4.8551 38.5323 4.83984 38.5605 4.83984 38.5935C4.83984 38.7683 4.86815 46.2864 4.86866 46.1116C4.86866 46.8744 5.33314 47.5745 6.13325 48.0237L29.296 61.4884C29.7062 61.7274 30.2402 61.5901 30.4826 61.1731C30.7233 60.7595 30.5826 60.2272 30.1673 59.9865L6.9944 46.5167C6.70792 46.3557 6.60451 46.1862 6.60451 46.1082L6.58417 40.7882L50.2143 66.1416C51.6961 67.0029 53.9131 66.8506 55.1388 66.1416C97.9969 41.4103 83.2151 49.9402 86.4129 48.0949L86.423 53.4313C86.4248 53.4855 86.3332 53.6517 86.0247 53.8263L54.2895 72.1493C53.4318 72.6409 51.9366 72.6409 51.0958 72.1527L36.4445 63.6362C36.0309 63.3955 35.4986 63.5328 35.2579 63.9515C35.0172 64.3651 35.1579 64.8974 35.5732 65.1381L50.2262 73.6546C51.624 74.4621 53.7413 74.4609 55.154 73.6546L86.8841 55.3333C87.7215 54.862 88.186 54.1467 88.1589 53.3991L88.1454 45.9144C88.1456 45.9071 88.1487 45.9002 88.1487 45.8929ZM6.9927 38.1629L38.7279 19.8416C39.5806 19.3517 41.0672 19.3483 41.9131 19.8416L86.0162 45.4708C86.2846 45.6258 86.4057 45.7924 86.4097 45.8834C86.4097 45.883 86.4097 45.8837 86.4097 45.8834C86.4097 45.9129 86.3764 45.9616 86.3526 46.0045C86.297 46.0972 86.1998 46.2053 86.0043 46.3184C82.759 48.1917 97.7592 39.5333 54.2692 64.6363C53.4113 65.1354 51.8386 65.0724 51.0806 64.6346C2.31947 36.2835 7.25278 39.1953 6.87044 38.9247C6.68969 38.7938 6.58078 38.6654 6.58078 38.5918C6.58078 38.5257 6.66723 38.3511 6.9927 38.1629Z" fill="white"/>
<path d="M46.2087 59.656C46.4344 59.7403 46.7424 59.7594 46.9851 59.7408C47.1444 59.7526 47.2919 59.7221 47.4326 59.6509C47.4479 59.6424 47.4631 59.634 47.4784 59.6255L75.8842 43.2248C76.1521 43.0705 76.3182 42.784 76.3182 42.4755C76.3182 42.1653 76.1538 41.8788 75.8859 41.7229L43.3608 22.8048C43.3472 22.798 43.3354 22.7896 43.3235 22.7828C43.1777 22.698 43.0404 22.6692 42.854 22.6658C42.6946 22.6251 42.5302 22.6302 42.4234 22.637C42.2793 22.6133 42.1115 22.6506 41.9657 22.7251C41.9487 22.7336 41.9318 22.7421 41.9165 22.7523L13.514 39.1513C13.2462 39.3055 13.0801 39.592 13.0801 39.9006C13.0801 40.2108 13.2445 40.4972 13.5123 40.6532L46.2087 59.656ZM42.5353 24.3983C42.6115 24.4322 42.6946 24.4729 42.7658 24.5051C42.8421 24.5407 42.915 24.5712 42.9828 24.5932L73.7195 42.4704L46.8054 58.01L15.6788 39.9056L42.5353 24.3983Z" fill="white"/>
<path d="M24.97 31.1229L28.2756 29.2158C28.6909 28.9768 28.8333 28.4462 28.5926 28.0309C28.3552 27.6156 27.823 27.4715 27.4076 27.7139L24.1021 29.621C23.6868 29.86 23.5444 30.3906 23.7851 30.8059C24.0232 31.2213 24.5556 31.3633 24.97 31.1229Z" fill="white"/>
<path d="M68.9053 51.2004C67.5474 50.4173 65.5031 50.419 64.1452 51.2089C62.4997 52.167 62.5034 53.9997 64.1622 54.9552C65.4924 55.7269 67.5826 55.7251 68.9087 54.9552C70.5655 53.989 70.5451 52.1461 68.9053 51.2004ZM68.0373 53.4533C67.2406 53.9178 65.8336 53.9178 65.0301 53.4533C64.544 53.1717 64.5299 52.9933 65.0182 52.7091C65.8208 52.2404 67.2365 52.2392 68.0373 52.704C68.5414 52.9926 68.4969 53.1874 68.0373 53.4533Z" fill="white"/>
<path d="M43.2117 41.7094L39.711 43.7299C39.4432 43.8842 39.277 44.1706 39.277 44.4792C39.277 44.7894 39.4415 45.0759 39.7093 45.2318L44.9813 48.2967C45.2473 48.4516 45.5815 48.4536 45.8509 48.2967C46.0297 48.1934 61.1937 39.439 60.2445 39.987C60.5124 39.8327 60.6785 39.5462 60.6785 39.2377C60.6785 38.9275 60.5141 38.641 60.2462 38.4851L45.8848 30.1381C45.6204 29.9838 45.2847 29.9821 45.0152 30.1381L40.2179 32.908C39.95 33.0622 39.7839 33.3487 39.7839 33.6572C39.7839 33.9674 39.9483 34.2539 40.2162 34.4099L42.9657 36.0079L39.4652 38.0291C39.1974 38.1833 39.0312 38.4698 39.0312 38.7783C39.0312 39.0885 39.1957 39.375 39.4635 39.531L43.2117 41.7094ZM45.4186 46.5422L41.8757 44.4842L44.9418 42.7148L48.4837 44.7733L45.4186 46.5422ZM45.4475 31.8926L58.0798 39.2343L55.015 41.0024L42.3826 33.6606L45.4475 31.8926ZM44.6948 37.0136L53.2825 42.0042L50.2176 43.7723C50.0171 43.6557 41.4559 38.6796 41.6316 38.7817L44.6948 37.0136Z" fill="white"/>
<path d="M64.1418 40.2514C63.9028 39.8361 63.3705 39.692 62.9569 39.9344L44.6813 50.4851L26.4414 39.8852C26.0277 39.6462 25.4955 39.7835 25.2547 40.2005C25.014 40.6141 25.1547 41.1464 25.57 41.3871L44.244 52.2396C44.51 52.3945 44.8442 52.3965 45.1136 52.2396L63.8248 41.4363C64.2402 41.1973 64.3825 40.6667 64.1418 40.2514Z" fill="white"/>
</svg>
