<svg width="93" height="92" viewBox="0 0 93 92" fill="none" xmlns="http://www.w3.org/2000/svg">
<path d="M12.884 48.888L12.8942 52.4784C12.8951 52.7869 13.0595 53.0717 13.3256 53.2276C13.5007 53.3294 25.3958 60.2421 25.2221 60.1411C25.2217 60.1409 25.2225 60.1414 25.2221 60.1411C25.4912 60.2945 25.8218 60.2968 26.0902 60.1405C26.6132 59.8385 51.4086 45.5226 51.6281 45.3959L51.6453 52.4507L35.6662 61.6763C35.3975 61.8306 35.2314 62.1188 35.2322 62.429L35.2423 67.1672L26.3581 72.2965C26.0892 72.4504 25.9246 72.8714 25.9241 73.0458C25.9236 73.2241 25.953 83.6917 25.9538 83.5135C25.9546 83.822 26.119 84.1068 26.3852 84.2627C26.5609 84.3648 32.198 87.6405 32.0222 87.5384C32.0218 87.5382 32.0227 87.5386 32.0222 87.5384C32.2914 87.6917 32.622 87.694 32.8904 87.5378L38.7277 84.1678C39.143 83.9288 39.2854 83.3982 39.0455 82.9829C38.8048 82.5676 38.2734 82.4218 37.8597 82.6659L33.3201 85.2866L33.2964 76.8226L44.9574 70.0894L44.9811 78.5534L43.9208 79.1637C43.5055 79.4044 43.3631 79.935 43.603 80.3503C43.8428 80.7639 44.3717 80.9046 44.7887 80.669L46.2847 79.8061C46.5543 79.6502 46.7195 79.362 46.7187 79.0518L46.689 68.5875C46.6198 68.4125 46.625 68.0528 46.2576 67.8383L40.6229 64.5632C40.3542 64.4072 40.0211 64.4072 39.7524 64.5632L36.9759 66.1662L36.9689 62.9274L68.0286 44.9959L68.0359 48.2334L59.7545 53.0157C59.4676 53.181 59.3205 53.4967 59.3205 53.765C59.3205 53.9432 59.3495 64.4109 59.3502 64.2326C59.3511 64.5412 59.5155 64.826 59.7825 64.9819C59.9582 65.084 65.5941 68.3577 65.4184 68.2556C65.419 68.2559 65.4191 68.2566 65.4197 68.257C65.6889 68.4103 66.0184 68.4115 66.2868 68.2553L79.682 60.5219C79.9515 60.3677 80.1168 60.0795 80.116 59.7693L80.0863 49.305C80.0857 49.1098 79.9101 48.7047 79.6549 48.5558L74.0193 45.2807C73.7489 45.1247 73.4175 45.1247 73.1488 45.2807L69.7694 47.2323L69.7611 43.4923C69.7602 43.1821 69.5949 42.8956 69.3262 42.7413C69.0576 42.5888 68.7262 42.5871 68.4592 42.743L53.3787 51.4498L53.3615 44.3951C55.61 43.0969 74.7543 32.0439 77.3893 30.5226C77.6588 30.3683 77.8241 30.0802 77.8233 29.7699L77.8131 26.1796C77.8122 25.8931 77.6699 25.6253 77.4334 25.4642C76.6677 24.9483 69.9958 21.1438 69.7911 21.0249L72.4996 15.1169C72.6808 14.7209 72.4961 14.2082 72.1462 14.0049C70.4552 13.0277 78.2716 17.545 55.609 4.44756C55.2194 4.22689 54.6942 4.38693 54.4715 4.70014L50.625 10.1177L43.0385 5.71554C42.7689 5.55959 42.4367 5.55959 42.1689 5.71554L35.6238 9.49915C35.4953 9.65496 35.2442 9.77398 35.1975 10.1433L34.4588 16.0322C31.9134 18.1146 29.5078 20.6284 27.3048 23.5368C26.9373 23.4445 28.636 23.872 23.7102 22.6342C23.3511 22.5588 22.9481 22.753 22.783 23.0384L18.1645 31.0244C18.0088 31.2922 18.011 31.7401 18.2888 32.0404C18.4501 32.2148 21.0377 34.8565 20.8793 34.6825C19.4763 37.9902 18.5121 41.3092 17.9874 44.5676L13.2256 48.1964C13.0371 48.339 12.8837 48.7138 12.884 48.888ZM27.6642 74.5591L31.5602 76.8236L31.5842 85.2764L27.6879 83.0117L27.6642 74.5591ZM40.1847 66.3177L44.0895 68.5875C43.5099 68.9221 32.2447 75.4251 32.4285 75.3189C32.2093 75.1915 28.2731 72.9036 28.5236 73.0492L35.2465 69.1683L35.25 70.8201C35.2509 71.2981 35.6391 71.6863 36.118 71.6863C36.1171 71.6863 36.1188 71.6863 36.118 71.6863C36.5977 71.6846 36.9867 71.2964 36.9859 70.8167L36.9802 68.1675L40.1847 66.3177ZM61.0606 55.2774L64.9566 57.5408L64.9807 65.9939L61.0844 63.7309L61.0606 55.2774ZM66.7165 66.0041L66.6928 57.5401L78.3547 50.8069L78.3784 59.2709L66.7165 66.0041ZM73.5811 47.0352L77.4867 49.305C77.183 49.4803 65.467 56.2431 65.8249 56.0365L61.9201 53.7684L68.0404 50.2345L68.043 51.4002C68.0439 51.88 68.432 52.2665 68.9109 52.2665C69.3907 52.2648 69.7797 51.8766 69.7789 51.3969L69.774 49.2335L73.5811 47.0352ZM18.8382 46.1009L29.1099 52.0677C28.7208 52.3643 25.3683 54.9186 25.5808 54.7567L15.3127 48.7887L18.8382 46.1009ZM14.6241 50.3979L24.7795 56.3002L24.7841 57.8792L14.6284 51.9766L14.6241 50.3979ZM51.6915 30.3175C57.9211 26.7202 63.2975 28.8846 63.6266 36.465L39.0471 50.6556C39.7447 42.9986 45.1716 34.0826 51.6915 30.3175ZM74.9474 26.0321L72.5561 26.9673C72.3063 25.9295 71.9044 24.8032 71.5783 24.0742L74.9474 26.0321ZM67.9608 20.8534C67.8167 21.167 67.8726 21.5365 68.1032 21.7942C69.3819 23.2229 70.5459 25.5023 71.068 28.3121C71.1698 28.8574 71.7389 29.1504 72.2385 28.9613C72.4177 28.891 76.3293 27.356 76.0806 27.4536L76.0857 29.2716L65.3121 35.4928C65.3101 35.4719 65.3056 35.453 65.3035 35.4322C64.4784 27.2766 57.9775 24.6853 50.8235 28.8156C43.449 33.0727 37.5164 43.3544 37.2436 51.6969L26.5199 57.8893C26.5195 57.7145 26.5148 56.053 26.5153 56.2278L31.202 52.6547C31.3986 52.5051 31.6329 51.9284 31.5342 52.102C32.0652 48.5774 33.1571 45.0376 34.5999 41.7514C34.7423 41.4259 34.6728 41.0462 34.4236 40.7936L31.8976 38.2238L35.8486 31.3895L39.3362 32.2737C39.6516 32.3563 40.0621 32.1994 40.2474 31.9499C42.6063 28.7615 45.4431 25.888 47.7137 24.0708C47.8873 23.9306 48.0148 23.6422 48.0324 23.5012L48.7605 17.6987L53.8401 14.766L54.4707 18.8293C54.5105 19.0836 54.6614 19.3074 54.8834 19.4413C55.1047 19.5752 55.3742 19.5989 55.6183 19.5142C58.2085 18.5971 60.6233 18.3445 62.7905 18.7666C63.0639 18.8156 63.4647 18.6968 63.6636 18.4157L67.3259 13.2563C67.5015 13.3564 70.8002 15.2367 70.59 15.1169L67.9608 20.8534ZM23.8474 24.6636L34.2416 30.7015L30.4988 37.1737L20.1052 31.1346L23.8474 24.6636ZM47.0201 17.6243L46.4735 21.9812L36.2099 16.0173L36.7562 11.6605C36.9519 11.7742 47.7026 18.0209 47.0201 17.6243ZM55.5758 14.6294L59.4616 16.8877C58.3508 16.9829 57.2053 17.2029 56.0294 17.5546L55.5758 14.6294ZM55.4284 6.35123C55.7854 6.55861 66.4612 12.7614 65.8155 12.3862C65.1171 13.3698 62.5465 16.9902 62.7066 16.7646L52.3195 10.7281L55.4284 6.35123ZM42.602 7.47004L52.778 13.3726L47.9502 16.1561L37.7886 10.2518L42.602 7.47004ZM35.3539 17.5302L45.6563 23.5166C43.3094 25.5341 40.8561 28.2623 39.2049 30.4412L35.7615 29.5732L28.2094 25.185C28.2615 25.1416 28.3092 25.0919 28.3507 25.0353C30.505 22.1236 32.859 19.6016 35.3539 17.5302ZM22.7024 34.8402C22.7229 34.7913 22.7387 34.7422 22.7505 34.692L30.2755 39.0655L32.77 41.5903C31.5499 44.4893 30.5092 47.9992 30.0298 50.5854L19.7311 44.6013C20.2707 41.3886 21.269 38.1085 22.7024 34.8402Z" fill="white"/>
<path d="M40.8372 82.9507L42.4976 81.9929C42.9129 81.7522 43.0553 81.2216 42.8155 80.8063C42.5747 80.391 42.0442 80.2503 41.6297 80.4876L39.9693 81.4454C39.554 81.6861 39.4116 82.2167 39.6514 82.632C39.8896 83.0431 40.4153 83.1903 40.8372 82.9507Z" fill="white"/>
</svg>
