<svg width="93" height="92" viewBox="0 0 93 92" fill="none" xmlns="http://www.w3.org/2000/svg">
<path d="M19.1544 78.1433L31.9605 85.5919C31.9648 85.5944 31.969 85.597 31.9733 85.5987C31.9791 85.6021 31.9859 85.6004 31.9917 85.6037C32.0035 85.6104 32.0132 85.6199 32.025 85.6267C38.6721 89.4514 46.7295 87.4354 53.4247 83.5704C69.6903 74.1562 82.5227 51.7385 82.6256 33.5342C82.6256 33.5306 82.623 33.5277 82.623 33.5241C82.6424 33.3596 82.6593 33.1982 82.6587 33.0528C82.6334 23.9742 79.4981 17.1692 73.8373 13.8687C73.8338 13.8666 73.8321 13.863 73.8286 13.861L73.8252 13.8593C73.8225 13.8579 73.8198 13.8564 73.8171 13.8548C73.8 13.8449 73.7856 13.831 73.7684 13.8212C73.7525 13.812 73.7349 13.8071 73.719 13.798L61.0097 6.40651C55.2436 3.05262 47.6247 3.76968 39.5735 8.41358C38.9938 8.73227 38.4327 9.08656 37.8682 9.44424C29.8899 14.5653 22.3617 23.2217 17.2143 33.1944C16.9948 33.6207 17.1618 34.1445 17.5872 34.364C18.0144 34.5835 18.5365 34.4166 18.7569 33.9911C23.6771 24.4578 30.8133 16.1939 38.3822 11.2029L49.5435 17.6886C37.4995 25.9589 27.6821 41.2588 24.361 56.0026C24.3558 56.0256 24.3483 56.0488 24.3431 56.0718C22.5776 63.9603 22.3663 73.5977 26.6453 80.3755C26.6787 80.4283 26.7071 80.4865 26.7409 80.5388C26.7437 80.5431 26.746 80.5479 26.7488 80.5522L20.0266 76.6431C14.9174 73.674 12.0941 67.3926 12.0771 58.9549C12.0661 55.3018 12.5797 51.4106 13.6045 47.3897C13.7231 46.9252 13.4426 46.4522 12.9781 46.3344C12.5094 46.2115 12.0415 46.4963 11.9228 46.9608C10.8617 51.1233 10.3294 55.1603 10.3413 58.9592C10.3591 68.0393 13.4892 74.8522 19.1544 78.1433ZM52.5568 82.0668C45.076 86.3852 38.092 87.115 32.8912 84.1222C24.2562 79.1544 23.8226 66.4367 26.0146 56.5307C29.038 42.8435 38.328 27.6086 50.2913 19.2889L50.3811 50.652C50.382 50.9814 50.6854 51.3383 50.8591 51.4394C51.116 51.5887 70.8672 63.0691 71.2006 63.263C66.6663 70.4393 60.049 77.7458 52.5568 82.0668ZM80.8508 35.0363C80.4685 43.4501 77.3315 53.0673 72.1107 61.7837L53.0536 50.6953C56.5307 48.7365 73.6046 39.1183 80.8508 35.0363ZM80.9228 33.0032C78.5306 34.3508 54.8944 47.6651 52.1678 49.201L52.1672 49.0943L52.0254 18.1126C58.3549 14.1241 66.542 11.6233 72.9526 15.3606C78.0553 18.3288 80.8865 24.5864 80.9228 33.0032ZM60.1367 7.90673L66.8242 11.7963C66.7682 11.793 66.71 11.7968 66.6539 11.7941C66.5658 11.7898 66.4754 11.7935 66.3868 11.7906C61.0301 11.6025 55.6649 13.7924 51.1399 16.6092L40.0407 10.1592C40.171 10.0832 40.2918 9.99983 40.4254 9.92652C47.9282 5.59876 54.9283 4.87916 60.1367 7.90673Z" fill="white"/>
<path d="M14.3632 42.7992C14.72 42.7992 15.0548 42.5771 15.1811 42.2211C15.7151 40.7158 16.3236 39.1885 16.9898 37.6815C17.1831 37.2433 16.9847 36.7305 16.5465 36.5364C16.1058 36.3457 15.5955 36.5415 15.4014 36.9797C14.7183 38.5265 14.0936 40.0946 13.5452 41.6414C13.3443 42.2082 13.7674 42.7992 14.3632 42.7992Z" fill="white"/>
</svg>
