<svg width="93" height="92" viewBox="0 0 93 92" fill="none" xmlns="http://www.w3.org/2000/svg">
<path d="M57.0254 43.0552L34.3729 56.1783C33.9593 56.4182 33.8169 56.9496 34.0576 57.3641C34.2992 57.7812 34.8321 57.9194 35.2442 57.6802L57.8967 44.5571C58.3103 44.3172 58.4527 43.7858 58.212 43.3713C57.9696 42.9543 57.4356 42.8145 57.0254 43.0552Z" fill="white"/>
<path d="M57.0254 25.1585L34.3729 38.2816C33.9593 38.5215 33.8169 39.0529 34.0576 39.4674C34.2992 39.8846 34.8321 40.0227 35.2442 39.7836L57.8967 26.6604C58.3103 26.4206 58.4527 25.8891 58.212 25.4747C57.9696 25.0568 57.4356 24.9187 57.0254 25.1585Z" fill="white"/>
<path d="M34.0575 30.5102C34.2186 30.7882 34.5101 30.9433 34.8085 30.9433C34.956 30.9433 35.1068 30.906 35.2425 30.8264L57.8949 17.721C58.3103 17.4812 58.4527 16.9506 58.2119 16.5353C57.9712 16.12 57.4356 15.9784 57.027 16.2191L34.3745 29.3244C33.9592 29.5643 33.8168 30.0949 34.0575 30.5102Z" fill="white"/>
<path d="M52.467 11.6049C52.2246 11.1879 51.6906 11.048 51.2804 11.2887L28.6449 24.3949C28.2312 24.6347 28.0889 25.1662 28.3296 25.5807C28.5712 25.9978 29.104 26.1359 29.5162 25.8968L52.1517 12.7906C52.5653 12.5508 52.7077 12.0193 52.467 11.6049Z" fill="white"/>
<path d="M35.2425 48.723L57.8949 35.6177C58.3103 35.3778 58.4527 34.8472 58.2119 34.4319C57.9712 34.0166 57.4356 33.8725 57.027 34.1158L34.3745 47.2211C33.9592 47.461 33.8168 47.9915 34.0575 48.4069C34.2186 48.6849 34.5101 48.84 34.8085 48.84C34.956 48.84 35.1068 48.8027 35.2425 48.723Z" fill="white"/>
<path d="M25.5174 74.1514C25.9954 74.1514 26.3853 73.764 26.387 73.2851L26.3938 70.3923C26.3955 69.9134 26.0073 69.5236 25.5275 69.5227C25.0495 69.5227 24.6596 69.9101 24.6579 70.3889L24.6511 73.2817C24.6494 73.7606 25.0376 74.1505 25.5174 74.1514Z" fill="white"/>
<path d="M78.1721 47.1186C78.1543 47.1065 78.144 47.088 78.1251 47.077L72.3649 43.7341C70.1341 42.4403 67.4216 42.2464 64.4938 43.0802L64.5434 23.1175C64.5603 16.7378 60.0682 8.95444 54.5301 5.77007C51.7212 4.13508 48.9106 3.88759 46.8188 5.09201C36.0433 11.3337 23.9345 18.377 13.1697 24.583C11.0762 25.7874 9.9184 28.2463 9.90992 31.5061C9.90823 31.8171 10.0744 32.1045 10.3439 32.2604L14.7377 34.7972C15.0056 34.9515 15.3361 34.9523 15.604 34.7981C15.8735 34.643 16.0379 34.3573 16.0396 34.048C16.043 32.7766 16.4346 31.8527 17.1398 31.4467C17.8484 31.0374 18.857 31.1662 19.9758 31.812C22.5643 33.3072 24.7443 37.0874 24.7358 40.0658L24.6663 67.2418C24.6646 67.7216 25.0528 68.1115 25.5326 68.1123C26.0106 68.1123 26.4005 67.725 26.4022 67.2469L26.4717 40.0709C26.4836 36.4263 24.0103 32.1375 20.8437 30.3084C19.1655 29.3405 17.5433 29.2108 16.2736 29.9423C15.3429 30.4779 14.7174 31.4086 14.4513 32.6274L11.6576 31.0145C11.7696 28.5372 12.7422 26.1579 15.1649 25.6654C17.3704 25.1994 19.7363 26.4466 21.5202 27.8251C25.4987 30.7424 29.1465 37.3452 29.1314 42.6035L29.0229 84.3469L26.3632 82.8111L26.3785 76.5407C26.3801 76.0609 25.992 75.6711 25.5122 75.6702C25.0342 75.6702 24.6443 76.0575 24.6426 76.5356L24.6257 83.3086C24.6257 83.6197 24.7901 83.907 25.0596 84.063L29.4535 86.5998C29.7155 86.7507 30.0553 86.7588 30.3299 86.5989L45.3735 77.8935C46.1933 80.2275 47.5709 82.0342 49.4666 83.1391L55.2053 86.4696C55.2223 86.4795 55.2367 86.4933 55.2539 86.5032C58.9803 88.646 63.4509 87.5463 67.1641 85.4038C75.9756 80.3167 83.119 67.9335 83.0902 57.7998C83.0767 52.7669 81.3275 48.9821 78.1721 47.1186ZM44.8812 76.1737L30.7672 84.341L30.8689 42.4865C30.8689 36.2593 26.3261 28.4169 20.8573 25.2594C19.9766 24.7509 18.7376 24.2193 17.6774 23.9949L47.6867 6.59562C49.2242 5.71328 51.3991 5.95739 53.6621 7.27283C58.7205 10.1826 62.8245 17.2879 62.8075 23.1125L62.7567 43.6655C57.1084 45.9983 52.3704 51.2374 49.2873 56.4956L34.3745 65.117C33.9592 65.3577 33.8168 65.8883 34.0576 66.3036C34.3024 66.7263 34.8385 66.8554 35.2425 66.6206L47.7423 59.3941C46.5711 61.8362 45.44 65.0907 44.9251 67.9647L34.3729 74.0751C33.9592 74.3149 33.8168 74.8464 34.0576 75.2608C34.2992 75.678 34.832 75.8161 35.2442 75.577L44.61 70.1537C44.4163 72.208 44.476 73.5939 44.721 75.1789C44.7672 75.4897 44.8079 75.8044 44.8696 76.102C44.8746 76.1248 44.8761 76.151 44.8812 76.1737ZM46.7044 76.2886C46.2789 74.7411 46.0935 72.4742 46.3979 69.8412C47.7673 57.988 58.4713 44.2986 67.8388 44.2986C69.1814 44.2986 70.4138 44.6097 71.4936 45.2361L72.7124 45.9429C72.6867 45.9451 72.6595 45.9525 72.6338 45.9548C70.8211 46.1167 68.5279 46.8173 66.1945 48.1636C57.2396 53.3339 50.2317 65.8423 50.2515 75.7617C50.2597 77.8456 50.6624 80.4233 51.5567 82.3446L50.3396 81.638C48.554 80.5976 47.3246 78.7417 46.7044 76.2886ZM66.2962 83.9002C62.4075 86.1472 58.7917 86.5379 56.1201 84.9987C56.1184 84.9977 56.1171 84.9964 56.1154 84.9954C56.1086 84.9912 56.105 84.9841 56.0981 84.98C53.02 83.1973 52.0002 79.2989 51.9907 75.755C51.9643 66.3548 58.6183 54.5444 67.0573 49.6715C70.1879 47.8609 74.1088 46.7706 77.2283 48.5696C79.8762 50.0936 81.3425 53.3737 81.3544 57.8049C81.3815 67.3842 74.6279 79.091 66.2962 83.9002Z" fill="white"/>
<path d="M78.6404 57.8117C78.6026 44.5855 65.4821 50.5176 58.373 62.9149C56.4314 66.3295 54.6927 71.5218 54.7047 75.7482C54.7138 78.9419 55.3882 81.3805 57.917 82.8399C59.7395 83.8861 63.0733 82.6277 64.9384 81.5499C72.3452 77.2735 78.664 66.3717 78.6404 57.8117ZM66.8095 78.1019L66.8064 77.095C66.8047 76.6161 66.4165 76.2296 65.9385 76.2296H65.9351C65.4571 76.2313 65.0689 76.6212 65.0706 77.1001L65.0777 79.4039C64.7441 79.628 64.4098 79.8504 64.0704 80.0463C62.4617 80.9761 60.9683 81.4677 59.7512 81.4677C59.7358 81.4677 59.7248 81.4616 59.7095 81.4614L60.7937 79.5733C61.0327 79.1572 60.8886 78.6274 60.4733 78.3884C60.0614 78.1511 59.5274 78.2918 59.2884 78.7088L58.0364 80.889C56.4002 79.5722 56.3279 76.2606 56.5106 74.1647L58.5272 73.0003C58.9426 72.7605 59.085 72.2299 58.8442 71.8146C58.6052 71.3976 58.0746 71.2586 57.6593 71.4967L56.836 71.9721C57.3194 69.502 58.2311 66.9593 59.4749 64.5412L60.4157 65.0771C60.8284 65.3119 61.3577 65.1727 61.5989 64.7525C61.8362 64.3355 61.6904 63.8058 61.2734 63.5684L60.3095 63.0194C62.0072 60.1123 64.1554 57.4741 66.5304 55.4797L66.5335 56.4708C66.5352 56.9497 66.9234 57.3362 67.4014 57.3362H67.4048C67.8829 57.3345 68.2711 56.9446 68.2694 56.4657L68.2624 54.1744C69.9588 53.0323 72.7009 51.6169 74.5613 52.259L73.326 54.4103C73.087 54.8265 73.2311 55.3562 73.6464 55.5952C74.0576 55.8317 74.5897 55.6946 74.8313 55.2748L75.9244 53.3714C76.6796 54.5168 76.9005 56.2513 76.9045 57.8167C76.9071 58.6713 76.8293 59.5535 76.7037 60.4471L74.6754 61.619C74.2601 61.8589 74.1177 62.3903 74.3584 62.8048C74.5977 63.2191 75.1262 63.3621 75.5433 63.1226L76.2727 62.7011C75.6398 65.279 74.5595 67.9041 73.155 70.3515L72.1716 69.7914C71.7529 69.5532 71.2274 69.6998 70.9884 70.116C70.7511 70.533 70.8969 71.0628 71.3139 71.3001L72.2508 71.8337C70.6941 74.239 68.8336 76.4044 66.8095 78.1019Z" fill="white"/>
<path d="M71.0647 60.7095C71.3224 60.306 71.2037 59.7687 70.7986 59.5118C70.4002 59.2559 69.8595 59.3711 69.6001 59.7771L67.4527 63.1461C67.0426 63.1324 66.6092 63.2341 66.1827 63.4811C64.9503 64.1922 64.0247 65.7967 64.0298 67.2121C64.0325 68.5265 64.8546 69.3006 65.8504 69.3006C65.8918 69.3006 65.9356 69.2846 65.9776 69.2819V74.1106C65.9776 74.5903 66.3657 74.9785 66.8455 74.9785C67.3252 74.9785 67.7134 74.5903 67.7134 74.1106V68.4286C68.5967 67.6099 69.2167 66.3649 69.2153 65.2161C69.2135 64.7732 69.1117 64.3805 68.9334 64.0532L71.0647 60.7095ZM65.8419 67.5715C65.8233 67.552 65.7657 67.4444 65.7657 67.2079C65.764 66.4196 66.364 65.3814 67.0506 64.9847C67.2507 64.8688 67.3729 64.8593 67.3963 64.859L67.4027 64.8608C67.4238 64.8822 67.4795 64.9884 67.4795 65.2203C67.4812 66.0094 66.8811 67.0494 66.1945 67.4452C65.9776 67.5724 65.8674 67.5825 65.8419 67.5715Z" fill="white"/>
</svg>
