<svg width="93" height="92" viewBox="0 0 93 92" fill="none" xmlns="http://www.w3.org/2000/svg">
<path d="M18.1463 81.451C18.1472 81.7586 18.3116 82.0434 18.5769 82.1985C18.7525 82.3008 27.9248 87.6455 27.7492 87.5432C27.7491 87.5431 27.7493 87.5433 27.7492 87.5432C28.0178 87.6986 28.3478 87.6993 28.6174 87.5451L74.5597 61.1208C74.8292 60.9649 74.9954 60.6776 74.9945 60.3657C74.9839 56.6143 74.8699 16.5405 74.853 10.5914C74.8524 10.4129 74.7445 10.0302 74.4182 9.84126C73.9557 9.57356 64.9762 4.35606 65.1524 4.45741C64.882 4.30061 64.5506 4.30061 64.2819 4.45572L57.8505 8.16898C57.4352 8.40884 57.2928 8.93943 57.5326 9.35475C57.7716 9.77006 58.3031 9.91076 58.7184 9.67259L64.7142 6.21022L72.2534 10.5914L28.144 36.0583C27.7652 35.8381 20.1222 31.396 20.6052 31.6767L48.7941 15.4022C49.2094 15.1624 49.3518 14.6318 49.1119 14.2165C48.872 13.8003 48.3389 13.6579 47.9261 13.8986L18.4396 30.9223C18.1683 31.0794 18.0064 31.3685 18.0056 31.6733C18.0056 31.6739 18.006 31.6743 18.006 31.675C18.006 31.9461 18.1451 81.1603 18.1463 81.451ZM19.8805 80.9492L19.7457 33.1848C20.167 33.4297 27.7492 37.8367 27.2756 37.5614L27.3155 85.2812L19.8805 80.9492ZM73.1214 12.095L73.1493 22.142L29.0403 47.6088L29.0123 37.5617C53.4504 23.4522 47.9622 26.6208 73.1214 12.095ZM29.0522 85.2922L29.0445 49.6118L73.1553 24.1441L73.257 59.8673L29.0522 85.2922Z" fill="white"/>
<path d="M55.1053 59.7443L53.9263 60.4249L53.9195 57.8636C53.9186 57.5542 53.7525 57.2686 53.4847 57.1134C53.216 56.9583 52.8846 56.9609 52.6176 57.1143L48.8416 59.2943C48.5721 59.4502 48.4068 59.7376 48.4077 60.0486L48.4178 63.6051L46.3769 64.7832C45.8735 65.0744 45.7938 65.7668 46.2124 66.1639L50.5953 70.3306C51.0201 70.7356 51.7251 70.6099 51.9785 70.0721L56.3241 60.8665C56.486 60.5233 56.4063 60.1147 56.1274 59.8579C55.8486 59.6003 55.435 59.5545 55.1053 59.7443ZM50.9216 68.2456L48.25 65.7062L49.7214 64.857C49.9909 64.701 50.1562 64.4137 50.1554 64.1026L50.1452 60.5462L52.1879 59.3672L52.1947 61.9286C52.1955 62.2379 52.3616 62.5236 52.6295 62.6787C52.8982 62.8338 53.2296 62.8312 53.4965 62.6778L53.5694 62.6354L50.9216 68.2456Z" fill="white"/>
<path d="M64.4295 46.3534L58.5964 44.6981C58.0399 44.5396 57.4894 44.9611 57.4912 45.5355L57.4971 47.8791L54.4 49.6666C54.1305 49.8226 53.9652 50.1099 53.9661 50.421L53.9788 54.7589C53.9796 55.0683 54.1458 55.3539 54.4136 55.509C54.6823 55.6641 55.0137 55.6616 55.2807 55.5082L57.5157 54.2181L57.5191 55.5649C57.5202 56.0411 57.9073 56.4303 58.3871 56.4303C58.6659 56.4303 58.9354 56.2956 59.1007 56.0565L64.9058 47.6824C65.246 47.192 64.9982 46.5144 64.4295 46.3534ZM59.2474 52.7976V52.7145C59.2465 52.4052 59.0804 52.1195 58.8125 51.9653C58.5439 51.8085 58.2125 51.8118 57.9455 51.9653L55.7104 53.2561L55.7036 50.9185L58.8007 49.1309C59.0702 48.975 59.2355 48.6877 59.2346 48.3766L59.2304 46.6823L62.7869 47.6917L59.2474 52.7976Z" fill="white"/>
<path d="M47.9025 59.7682C48.172 59.6122 48.3373 59.3249 48.3365 59.0138L48.3246 54.675C48.3237 54.3657 48.1576 54.08 47.8898 53.9249C47.6211 53.7707 47.2897 53.7715 47.0227 53.9258L44.7876 55.2167L44.7834 53.8698C44.7825 53.491 44.5351 53.1562 44.1731 53.0435C43.8129 52.9333 43.4188 53.0655 43.2018 53.3782L37.3976 61.7524C37.0604 62.2384 37.3007 62.9191 37.8739 63.0814L43.707 64.7367C44.2652 64.8944 44.814 64.4738 44.8122 63.8993L44.8054 61.5557L47.9025 59.7682ZM43.5019 60.3038C43.2323 60.4598 43.067 60.7471 43.0679 61.0582L43.073 62.7525L39.5165 61.743L43.056 56.6364V56.7203C43.0569 57.0296 43.223 57.3153 43.4908 57.4704C43.7595 57.6246 44.0909 57.6238 44.3579 57.4695L46.593 56.1787L46.5989 58.5163L43.5019 60.3038Z" fill="white"/>
<path d="M47.1981 49.6904L48.3762 49.0098L48.3838 51.5712C48.3851 52.0434 48.7674 52.4366 49.2518 52.4366C49.4018 52.4366 49.5518 52.3976 49.6857 52.3204L53.4609 50.1405C53.7304 49.9845 53.8957 49.6972 53.8948 49.3861L53.8855 45.8297L55.9256 44.6515C56.429 44.3603 56.5086 43.6679 56.0901 43.2708L51.7072 39.1041C51.5055 38.9117 51.2182 38.832 50.9495 38.8795C50.6757 38.9312 50.4426 39.1109 50.324 39.3626L45.9792 48.5682C45.8174 48.9115 45.897 49.32 46.1767 49.5768C46.4556 49.8362 46.8701 49.8794 47.1981 49.6904ZM51.3809 41.1891L54.0525 43.7285L52.5819 44.5778C52.3124 44.7337 52.1471 45.0211 52.148 45.3321L52.1573 48.8886L50.1154 50.0676L50.1078 47.5062C50.107 47.1968 49.9408 46.9112 49.673 46.7561C49.409 46.604 49.0776 46.6004 48.8059 46.7569L48.7339 46.7984L51.3809 41.1891Z" fill="white"/>
<path d="M52.2547 13.4045L55.5001 11.5305C55.9154 11.2907 56.0578 10.7601 55.8179 10.3448C55.5772 9.92775 55.0441 9.78705 54.6321 10.0269L51.3867 11.9009C50.9714 12.1408 50.829 12.6714 51.0689 13.0867C51.3094 13.5031 51.8416 13.6431 52.2547 13.4045Z" fill="white"/>
<path d="M61.4697 27.3345C62.8886 26.5157 63.9972 24.5951 63.993 22.9618C63.9859 20.9692 62.3339 20.0087 60.5883 21.0141C59.1643 21.8354 58.0514 23.7585 58.0557 25.3918C58.0629 27.3986 59.7482 28.3308 61.4697 27.3345ZM61.4562 22.5177C62.0263 22.1873 62.2556 22.326 62.2571 22.9669C62.2597 23.9823 61.4867 25.3206 60.6018 25.8309C60.0598 26.1443 59.7932 26.066 59.7915 25.3868C59.789 24.3713 60.5671 23.0305 61.4562 22.5177Z" fill="white"/>
<path d="M53.693 31.8224C55.1119 31.002 56.2205 29.0813 56.2163 27.4489C56.2109 25.4541 54.5488 24.4963 52.8115 25.502C51.3867 26.3242 50.2747 28.2473 50.2798 29.8798C50.2852 31.8698 51.9571 32.8239 53.693 31.8224ZM53.6795 27.0056C54.3012 26.6454 54.4789 26.8606 54.4804 27.454C54.483 28.4694 53.7091 29.8077 52.8251 30.3188C52.2728 30.6395 52.0173 30.5421 52.0157 29.8747C52.0123 28.8593 52.7895 27.5193 53.6795 27.0056Z" fill="white"/>
<path d="M69.237 22.8482C70.6617 22.0244 71.7738 20.1012 71.7687 18.4696C71.7633 16.4667 70.0846 15.5239 68.3555 16.5278C66.9307 17.35 65.8187 19.2731 65.8237 20.9056C65.8291 22.8956 67.501 23.8497 69.237 22.8482ZM69.2234 18.0314C69.8596 17.6632 70.0314 17.8974 70.0328 18.4747C70.0362 19.4901 69.2582 20.831 68.369 21.3446C67.8207 21.6614 67.5613 21.5724 67.5596 20.9005C67.5562 19.8851 68.3334 18.5451 69.2234 18.0314Z" fill="white"/>
</svg>
