<svg width="93" height="92" viewBox="0 0 93 92" fill="none" xmlns="http://www.w3.org/2000/svg">
<path d="M18.6544 30.6685C18.6553 30.977 18.8197 31.2618 19.0859 31.4161C21.7751 32.9789 45.4649 46.7448 45.1541 46.5658C45.288 46.6429 45.4381 46.6811 45.5872 46.6811C45.6017 46.6811 45.6146 46.6706 45.6291 46.6698L45.6379 50.8097L34.1135 57.4632C33.844 57.6191 33.6787 57.9064 33.6795 58.2175L33.6963 64.2678C32.971 64.4593 32.2236 64.7667 31.4648 65.2126C27.1209 67.7604 23.6238 73.9096 23.6687 78.9205C23.6976 81.5226 24.6392 83.4873 26.3318 84.4587L30.8988 86.9966C30.9288 87.0145 30.9495 87.0443 30.98 87.0616C31.6894 87.4633 32.4828 87.6625 33.3312 87.6625C34.5212 87.6625 35.8205 87.2701 37.1479 86.4912C41.49 83.945 44.9829 77.7899 44.9346 72.7713C44.9094 70.19 43.9744 68.2451 42.3077 67.2757L42.3206 67.2527C42.0291 67.0883 37.8528 64.7711 37.6437 64.6549C36.9736 64.2705 36.227 64.0741 35.4316 64.0502L35.4171 58.715L57.5754 45.9225L57.5879 50.4161C52.217 51.8286 47.501 59.2912 47.5528 65.0711C47.5816 67.674 48.5233 69.6387 50.2159 70.61L54.7881 73.1513C54.8161 73.168 54.8355 73.1959 54.864 73.2121C56.8121 74.3166 59.1144 73.7664 61.031 72.6417C65.374 70.0955 68.8669 63.9412 68.8178 58.9227C68.7934 56.3418 67.8578 54.3964 66.1924 53.4268L66.2047 53.4049C66.1716 53.3854 66.1377 53.3668 66.1038 53.3481L61.5269 50.8054C60.8596 50.4222 60.1157 50.2254 59.3232 50.2005L59.307 44.4189C59.3062 44.1095 59.1401 43.8239 58.8722 43.6687C58.6044 43.5136 58.273 43.5162 58.0052 43.6696L47.3716 49.8087L47.3631 45.7901L73.938 30.4473C74.2076 30.2913 74.3728 30.004 74.372 29.693L74.3457 20.3501C74.3446 19.9948 74.0879 19.7033 73.9143 19.6025L73.9123 19.6013C73.6906 19.4725 48.1377 4.6156 47.8494 4.45534C47.5791 4.29769 47.2476 4.29938 46.979 4.45364L19.0621 20.5713C18.7908 20.7284 18.629 21.0174 18.6282 21.3222L18.6286 21.3239L18.6282 21.3256L18.6544 30.6685ZM36.2698 84.9943C34.5624 85.9955 32.9982 86.1929 31.8565 85.5587L31.8632 85.547C30.7359 84.9002 30.1036 83.4636 30.0824 81.5031C30.0426 77.0465 33.1549 71.5762 37.0207 69.309C38.3253 68.5425 40.1407 68.035 41.412 68.7538C42.5453 69.3963 43.1801 70.8287 43.1987 72.7883C43.242 77.2525 40.133 82.7279 36.2698 84.9943ZM36.791 66.1661L38.1472 66.9196C38.1404 66.9216 38.1333 66.9254 38.1265 66.9274C37.4663 67.1224 36.7899 67.4086 36.1036 67.8113C31.7589 70.3591 28.2626 76.5092 28.3101 81.5201C28.313 81.8156 28.4513 83.0824 28.6324 83.7514L27.1854 82.9474C26.0589 82.3007 25.4266 80.8632 25.4046 78.9036C25.3589 73.7963 29.4102 67.5739 33.7013 66.079L33.7033 66.8027C33.705 67.2807 34.0932 67.668 34.5712 67.668H34.5737C35.0526 67.6663 35.4408 67.2773 35.4391 66.7976L35.4364 65.8016C35.9289 65.8257 36.3886 65.9357 36.791 66.1661ZM60.1529 71.1448C58.4462 72.146 56.883 72.3436 55.7403 71.7091L55.7464 71.6983C54.6199 71.0516 53.9876 69.6141 53.9656 67.6536C53.9257 63.197 57.0381 57.7276 60.9047 55.4603C62.2391 54.6763 63.956 54.1456 65.2952 54.9043C66.4293 55.5468 67.0633 56.9792 67.0819 58.9396C67.126 63.4039 64.0171 68.8784 60.1529 71.1448ZM60.6742 52.3166L62.0312 53.071C62.0239 53.0732 62.0162 53.077 62.0089 53.0792C61.3492 53.2743 60.6734 53.5605 59.9877 53.9626C55.6421 56.5105 52.1458 62.6605 52.1941 67.6706C52.1972 67.9859 52.3351 69.2332 52.5158 69.9011L52.5162 69.9031L51.0694 69.0988C49.943 68.4521 49.3107 67.0146 49.2886 65.0541C49.2429 59.9412 53.3011 53.7171 57.5929 52.2268L57.5949 52.9337C57.5966 53.4117 57.9848 53.799 58.4629 53.799H58.4654C58.9443 53.7974 59.3325 53.4083 59.3308 52.9286L59.328 51.9531C59.8173 51.9782 60.2741 52.0876 60.6742 52.3166ZM20.3683 22.8337L44.6944 36.9704L44.7151 44.3027L20.3886 30.1659L20.3683 22.8337ZM46.4509 44.3121C46.4468 42.8401 46.4301 36.7896 46.4306 36.9705C52.7714 33.3097 66.433 25.4223 72.6141 21.8537L72.6344 29.1954L46.4509 44.3121ZM47.4112 6.20814L71.7461 20.3501L45.5622 35.4671L21.2277 21.3256L47.4112 6.20814Z" fill="white"/>
<path d="M25.8648 22.1156L45.0727 33.2783C45.3449 33.4365 45.6763 33.4336 45.9432 33.28L67.1056 21.0612C67.3734 20.9061 67.5387 20.6205 67.5396 20.3103C67.5404 20.0009 67.3751 19.7144 67.1081 19.5593L63.411 17.4107C62.9982 17.17 62.4642 17.3107 62.2244 17.7243C61.9828 18.1387 62.1244 18.6702 62.538 18.9109L64.94 20.3069L45.5109 31.5255L28.0329 21.368L47.4629 10.1503L56.5956 15.457C57.0066 15.6969 57.5406 15.5587 57.7813 15.1425C58.0229 14.7289 57.8814 14.1975 57.4677 13.9568L47.9002 8.39748C47.6315 8.24068 47.2993 8.24068 47.0306 8.39578L25.8673 20.6137C25.5995 20.7688 25.4342 21.0544 25.4334 21.3646C25.4325 21.674 25.5978 21.9605 25.8648 22.1156Z" fill="white"/>
<path d="M58.8645 16.7758L60.491 17.7209C60.9004 17.9599 61.4342 17.8252 61.6768 17.4064C61.9184 16.9919 61.7768 16.4614 61.3624 16.2206L59.7358 15.2756C59.3231 15.0349 58.7908 15.1747 58.5501 15.59C58.3085 16.0045 58.4501 16.5351 58.8645 16.7758Z" fill="white"/>
<path d="M68.6567 25.1144C67.5176 25.7721 66.6607 27.2528 66.6641 28.5598C66.6676 30.2187 68.0891 31.0296 69.5348 30.1948C70.6664 29.5413 71.5165 28.0631 71.5131 26.7561C71.5077 25.0979 70.0783 24.2914 68.6567 25.1144ZM68.6669 28.6912C68.5406 28.764 68.4576 28.7844 68.4355 28.8013C68.4211 28.7649 68.3999 28.6886 68.3999 28.5547C68.3982 27.8817 68.9339 26.9587 69.5247 26.618C69.6425 26.5502 69.7196 26.5307 69.7399 26.5154C69.7544 26.551 69.7764 26.6264 69.7772 26.7621C69.7789 27.435 69.25 28.3547 68.6669 28.6912Z" fill="white"/>
<path d="M63.5652 28.0537C62.4295 28.7089 61.576 30.1879 61.5794 31.4949C61.5847 33.1657 63.0068 33.9641 64.4433 33.1341C65.574 32.4814 66.425 31.0041 66.4216 29.6963C66.4163 28.0418 65.0002 27.2248 63.5652 28.0537ZM63.5754 31.6305C63.4542 31.7008 63.3737 31.722 63.3508 31.739C63.3364 31.7008 63.3161 31.6237 63.3152 31.4898C63.3135 30.8049 63.8356 29.9014 64.4332 29.5573C64.5501 29.4895 64.6273 29.4691 64.6485 29.453C64.6637 29.4903 64.6849 29.5675 64.6857 29.7022C64.6874 30.3871 64.1687 31.288 63.5754 31.6305Z" fill="white"/>
<path d="M58.4807 30.9889C57.3416 31.6474 56.4847 33.1282 56.488 34.4343C56.4934 36.0953 57.9139 36.905 59.358 36.0693C60.4895 35.4175 61.3405 33.9393 61.3371 32.6323C61.3335 30.9821 59.9218 30.1577 58.4807 30.9889ZM58.4909 34.5657C58.3646 34.6386 58.2815 34.6589 58.2603 34.6758C58.2459 34.6394 58.2247 34.5631 58.2239 34.4292C58.2222 33.7571 58.7579 32.8332 59.3486 32.4925C59.4656 32.4247 59.5427 32.4043 59.5648 32.3882C59.5792 32.4255 59.6012 32.5026 59.6012 32.6374C59.6029 33.3223 59.0842 34.2241 58.4909 34.5657Z" fill="white"/>
<path d="M53.8749 35.2497L47.9859 38.6494C47.5706 38.8892 47.4282 39.4198 47.668 39.8351C47.9085 40.2515 48.4407 40.3916 48.8538 40.153L54.7428 36.7533C55.1581 36.5134 55.3005 35.9829 55.0606 35.5675C54.8199 35.1522 54.2885 35.009 53.8749 35.2497Z" fill="white"/>
</svg>
