<svg width="93" height="92" viewBox="0 0 93 92" fill="none" xmlns="http://www.w3.org/2000/svg">
<path d="M20.7073 85.2332C26.0851 88.3297 34.855 88.3694 40.2577 85.2298C71.2056 67.3626 71.5145 67.135 71.7081 67.0229C71.9742 66.8677 72.1403 66.5821 72.1403 66.2736L72.1732 49.9705L76.1189 47.6776C76.385 47.5234 76.5495 47.2386 76.5512 46.9301L76.5986 32.2948C76.5987 32.2697 76.582 32.2493 76.58 32.2245C76.5716 32.1209 76.5461 32.0241 76.502 31.93C76.4855 31.8948 76.4736 31.8613 76.4526 31.8288C76.3802 31.7153 76.2894 31.6125 76.1647 31.5405L72.2238 29.2645L72.2607 16.1086C72.2624 15.7975 72.0963 15.5102 71.8267 15.3551L71.8204 15.3534L66.4208 12.2368C66.1513 12.0817 65.8208 12.0825 65.5512 12.2377L58.9186 16.0785L58.9469 8.41929C58.9469 8.10257 58.6765 7.76559 58.5027 7.66494L53.1019 4.54584C52.8324 4.39073 52.5018 4.39158 52.2323 4.54669L20.7802 22.7595C18.0307 24.3572 16.5169 26.5364 16.5203 28.8952C16.5203 28.9085 16.5235 28.9214 16.5236 28.9347L16.4016 79.0475C16.4016 81.4326 17.9307 83.6295 20.7073 85.2332ZM18.1375 79.0492L18.2493 33.0339C19.1429 34.02 20.3123 34.7668 21.4577 35.3562C24.0038 36.6696 27.1608 37.3602 30.3596 37.3947V85.8518C27.1802 85.8318 24.0051 85.1291 21.5736 83.7296C19.358 82.4497 18.1375 80.7867 18.1375 79.0492ZM70.4062 65.7718C67.2341 67.6082 81.8973 59.1196 39.383 83.7312C37.3462 84.9143 34.7651 85.5744 32.0954 85.771V37.3269C34.8478 37.1557 37.9971 36.4508 40.3729 35.0698C43.5818 33.2119 30.7797 40.6243 70.5215 17.6139L70.474 34.3367C70.2983 34.4389 60.6917 40.0301 61.2862 39.6841C60.0543 40.3993 59.1726 41.7743 59.1655 43.3533L59.135 53.0835C59.1278 55.072 61.2844 56.3039 62.9864 55.3093L70.435 50.9807L70.4062 65.7718ZM74.817 46.4274C72.9072 47.5372 61.4037 54.2215 62.1253 53.8023C61.5568 54.1295 60.8743 53.7287 60.8743 53.0827L60.9082 43.3617V43.3583C60.9082 42.4599 61.3845 41.6327 62.1626 41.1928C62.3366 41.0915 75.7092 33.3079 74.8577 33.8035L74.817 46.4274ZM73.9997 32.2951L72.2124 33.3339L72.2182 31.2661L73.9997 32.2951ZM34.0991 30.4505C32.185 31.5599 28.9193 31.5061 27.0727 30.4369C26.3149 30.003 25.8793 29.4419 25.8793 28.8986C25.8793 28.3663 26.3099 27.812 27.0608 27.3763C66.7599 4.38703 54.0034 11.7742 57.2059 9.91962L57.1788 17.0807C25.5503 35.4027 36.459 29.0835 34.0991 30.4505ZM21.6515 24.2606L52.668 6.30034L56.3308 8.41537C53.7366 9.91795 28.7884 24.3684 26.181 25.8786C23.4318 27.4756 23.4542 30.3563 26.2081 31.9465C28.6708 33.3674 32.5234 33.3722 34.9772 31.9584C38.1491 30.1205 23.4889 38.6147 65.9869 13.9913L69.6552 16.1077C30.5395 38.7542 42.7189 31.7028 39.5033 33.5645C35.0451 36.1538 27.4281 36.4862 22.2608 33.8222C20.229 32.7719 18.2595 31.168 18.2595 28.8816L18.2578 28.8732C18.2652 27.1665 19.4681 25.5288 21.6515 24.2606Z" fill="white"/>
<path d="M67.1158 41.5326C65.7241 42.3361 64.6375 44.216 64.6409 45.8129C64.6444 47.7571 66.2798 48.713 67.9973 47.7233C69.3823 46.9232 70.4621 45.0467 70.4553 43.4524C70.4518 41.5015 68.8208 40.5497 67.1158 41.5326ZM68.7194 43.4583C68.7228 44.4381 67.9804 45.7281 67.1294 46.2197C66.6184 46.5163 66.3767 46.4504 66.3767 45.8078C66.3733 44.8272 67.1243 43.5321 67.9837 43.0362C68.5351 42.7185 68.7194 42.8641 68.7194 43.4583Z" fill="white"/>
</svg>
