<svg width="93" height="92" viewBox="0 0 93 92" fill="none" xmlns="http://www.w3.org/2000/svg">
<rect x="0.5" width="92" height="92" rx="46" fill="black"/>
<path d="M35.8198 71.56C35.4598 71.44 35.2198 71.56 34.9798 71.92C34.8598 72.28 34.9798 72.52 35.3398 72.76C36.0598 73.12 36.8998 73.36 37.7398 73.6H37.8598C38.0998 73.6 38.3398 73.48 38.4598 73.12C38.5798 72.76 38.3398 72.52 38.0998 72.4C37.2598 72.16 36.5398 71.92 35.8198 71.56Z" fill="white"/>
<path d="M59.9399 20.44C52.4999 16.12 40.3799 16.12 32.9399 20.44C29.3399 22.6 27.2999 25.36 27.2999 28.48L27.1799 63.28C27.1799 66.4 29.2199 69.28 32.9399 71.44C33.1799 71.56 33.5399 71.56 33.7799 71.2C33.8999 70.96 33.8999 70.6 33.5399 70.36C30.1799 68.44 28.3799 65.92 28.3799 63.16V60.28C29.3399 61.96 30.8999 63.4 33.0599 64.72C40.4999 69.04 52.6199 69.04 59.9399 64.72C61.8599 63.64 63.4199 62.2 64.3799 60.76V63.4C64.3799 66.04 62.5799 68.56 59.2199 70.48C54.4199 73.24 46.9799 74.32 40.4999 73C40.1399 72.88 39.8999 73.12 39.7799 73.48C39.6599 73.84 39.8999 74.08 40.2599 74.2C46.7399 75.52 54.4199 74.68 59.8199 71.56C63.5399 69.4 65.5799 66.52 65.5799 63.52C65.6999 27.04 65.6999 40.6 65.6999 28.72C65.6999 25.48 63.6599 22.6 59.9399 20.44ZM33.6599 21.52C40.7399 17.44 52.2599 17.44 59.3399 21.52C66.2999 25.48 66.1799 31.72 59.4599 35.68C52.3799 39.76 40.8599 39.76 33.7799 35.68C26.9399 31.72 26.8199 25.48 33.6599 21.52ZM59.4599 63.76C52.3799 67.84 40.8599 67.84 33.7799 63.76C30.4199 61.84 28.6199 59.32 28.6199 56.56V39.28C29.5799 40.84 31.1399 42.28 33.1799 43.48C40.6199 47.8 52.6199 47.8 60.0599 43.48C62.0999 42.28 63.5399 40.96 64.4999 39.4V57.76C64.0199 60.04 62.3399 62.08 59.4599 63.76ZM64.4999 32.56V35.56C64.3799 38.08 62.5799 40.48 59.4599 42.4C52.3799 46.48 40.8599 46.48 33.7799 42.4C30.4199 40.48 28.6199 37.96 28.6199 35.2C28.6199 34.72 28.6199 32.32 28.6199 32.44C29.4599 33.76 31.0199 35.44 33.2999 36.64C40.4999 40.84 52.6199 41.08 60.1799 36.64C62.2199 35.44 63.7799 33.88 64.4999 32.56Z" fill="white"/>
<path d="M34.6199 34.12C41.0999 37.84 52.0199 37.96 58.4999 34.12C61.1399 32.56 62.6999 30.52 62.6999 28.6C62.6999 26.68 61.1399 24.64 58.3799 23.08C51.7799 19.24 40.9799 19.24 34.4999 23.08C28.8599 26.32 29.0999 30.88 34.6199 34.12ZM35.0999 24.04C41.2199 20.44 51.6599 20.44 57.7799 24.04C60.0599 25.36 61.4999 27.04 61.4999 28.6C61.4999 30.16 60.1799 31.72 57.8999 33.04C51.7799 36.64 41.3399 36.52 35.2199 33.04C30.4199 30.28 30.2999 26.92 35.0999 24.04Z" fill="white"/>
<path d="M35.4599 30.4C36.6599 31.12 38.5799 31.12 39.8999 30.4C41.3399 29.56 41.3399 28 39.8999 27.16C38.6999 26.44 36.7799 26.44 35.4599 27.16C34.0199 28 34.0199 29.56 35.4599 30.4ZM36.0599 28.24C36.8999 27.76 38.3399 27.76 39.2999 28.24C39.8999 28.6 39.8999 29.08 39.2999 29.44C38.4599 29.92 37.0199 29.92 36.0599 29.44C35.4599 29.08 35.4599 28.6 36.0599 28.24Z" fill="white"/>
<path d="M54.78 48.04C51.3 50.08 48.42 54.88 48.54 58.96C48.54 63.16 51.78 65.08 55.5 62.92C58.98 60.88 61.74 56.08 61.74 52C61.62 47.68 58.5 45.88 54.78 48.04ZM54.78 61.84C51.9 63.52 49.62 62.32 49.62 58.96C49.62 55.36 52.14 50.92 55.26 49.12C58.14 47.44 60.42 48.64 60.42 52C60.42 55.6 57.9 60.04 54.78 61.84Z" fill="white"/>
<path d="M55.5 51.76C55.38 51.64 55.14 51.52 54.9 51.52C54.66 51.52 54.54 51.64 54.42 51.88C53.94 52.84 52.5 56.32 52.5 57.52C52.5 59.2 53.82 59.92 55.26 59.08C56.46 58.36 57.42 56.8 57.42 55.36C57.54 54.04 55.98 52.24 55.5 51.76C55.38 51.64 55.38 51.52 55.5 51.76ZM54.78 58C54.18 58.36 53.82 58.24 53.82 57.4C53.82 56.8 54.54 54.88 55.26 53.2C55.86 54.04 56.34 54.88 56.34 55.24C56.34 56.32 55.62 57.52 54.78 58Z" fill="white"/>
</svg>
