<svg width="93" height="92" viewBox="0 0 93 92" fill="none" xmlns="http://www.w3.org/2000/svg">
<rect x="0.5" width="92" height="92" rx="46" fill="black"/>
<path d="M31.3471 64.27C31.079 64.113 30.7313 64.2043 30.5738 64.4751C30.4163 64.7454 30.5086 65.0915 30.7789 65.2484L32.514 66.2567C32.781 66.4126 33.1292 66.3247 33.2874 66.0516C33.4449 65.7813 33.3526 65.4353 33.0823 65.2783L31.3471 64.27Z" fill="white"/>
<path d="M25.3794 61.7864C25.38 61.9876 25.4872 62.1733 25.6608 62.274L29.0863 64.265C29.3561 64.4215 29.7026 64.3308 29.8602 64.0605C30.0177 63.7902 29.926 63.4436 29.6557 63.2866L26.5104 61.4586L26.4479 41.2854L43.9232 51.4412L43.9233 51.4558L43.9857 71.6141L34.9324 66.3529C34.6627 66.1959 34.3161 66.2871 34.1585 66.5574C34.001 66.8277 34.0933 67.1743 34.3631 67.3313C34.4841 67.4016 44.3884 73.1556 44.2749 73.0912C44.4483 73.1897 44.6618 73.1918 44.8381 73.09L67.4287 60.0474C67.5979 59.9497 67.7124 59.7192 67.7117 59.5554L67.6205 30.2055C67.6199 30.0538 67.518 29.8219 67.3392 29.7179L67.3379 29.7172L67.337 29.7163L67.3358 29.7159L48.729 18.903C48.573 18.812 48.3645 18.8153 48.2067 18.8898C47.911 19.0278 50.8252 17.3778 25.5712 31.9445C25.3943 32.047 25.2887 32.2355 25.2882 32.4343L25.2885 32.4354L25.2882 32.4365C25.302 36.8651 25.3656 57.3502 25.3794 61.7864ZM48.4432 20.0461L65.9251 30.2055L44.4647 42.5956L26.9836 32.4365L48.4432 20.0461ZM45.031 43.5761L61.0719 34.3149L66.4912 31.1861L66.5084 37.7442L45.0514 50.1321L45.031 43.5761ZM45.1183 71.6208L45.0554 51.4372L66.5157 39.0472L66.5786 59.2308L45.1183 71.6208ZM26.4439 39.974L26.4236 33.4204C30.5224 35.8024 39.6651 41.1157 43.8987 43.576L43.91 47.8407L43.916 50.1279L26.4439 39.974Z" fill="white"/>
<path d="M51.6648 51.5513L60.5451 46.4238C60.8159 46.2674 60.9088 45.9213 60.7524 45.6505C60.5954 45.3785 60.2477 45.2867 59.979 45.4432L51.0988 50.5707C50.8279 50.7271 50.735 51.0731 50.8915 51.344C51.0483 51.6156 51.3954 51.7069 51.6648 51.5513Z" fill="white"/>
<path d="M64.211 47.3458C64.2105 47.1441 64.1021 46.9578 63.9275 46.8566C63.7522 46.756 63.5361 46.7566 63.362 46.8572L47.6843 55.9088C47.5085 56.0105 47.4007 56.1979 47.4012 56.4008L47.4333 66.6149C47.4339 66.8166 47.5422 67.0029 47.7169 67.1041C47.889 67.2032 48.1052 67.2055 48.2824 67.1035L63.9595 58.0519C64.1353 57.9502 64.2431 57.7628 64.2425 57.5599L64.211 47.3458ZM48.5621 65.6348L48.5344 56.7252L63.0817 48.3259L63.1093 57.2354L48.5621 65.6348Z" fill="white"/>
<path d="M44.1145 28.5449C45.8006 29.518 48.4434 29.5254 50.1303 28.5438C52.0085 27.4537 52.0126 25.4986 50.1182 24.4041C48.4234 23.4252 45.775 23.4263 44.088 24.4052C42.2271 25.4878 42.2056 27.4433 44.1145 28.5449ZM44.6568 25.3836C45.9805 24.6155 48.2208 24.6169 49.5521 25.3848C50.6777 26.0343 50.6867 26.9124 49.5615 27.5654C48.2432 28.3327 46.0078 28.3316 44.6806 27.5643C43.5704 26.9237 43.5177 26.0462 44.6568 25.3836Z" fill="white"/>
<path d="M35.0794 33.7918C36.7772 34.7717 39.4217 34.7642 41.0958 33.7902C42.961 32.7076 42.9882 30.7503 41.0836 29.6505C39.3861 28.6704 36.7372 28.6721 35.054 29.6521C33.1918 30.7337 33.1705 32.689 35.0794 33.7918ZM35.6228 30.6305C36.9422 29.8632 39.1836 29.8617 40.5176 30.6311C41.6426 31.2803 41.6521 32.1587 40.527 32.8118C39.2092 33.5785 36.9732 33.5768 35.6455 32.8112C34.5382 32.1722 34.48 31.2946 35.6228 30.6305Z" fill="white"/>
<path d="M48.7948 34.0965C47.0983 33.1181 44.4495 33.1181 42.7652 34.0976C40.9035 35.1788 40.8817 37.1356 42.7906 38.2373C44.4873 39.216 47.1335 39.2167 48.8136 38.24C50.6828 37.1545 50.7035 35.1987 48.7948 34.0965ZM48.2453 37.2616C46.9264 38.0278 44.6877 38.025 43.3566 37.2567C42.2399 36.6122 42.2011 35.7346 43.3334 35.076C44.6553 34.3089 46.8975 34.3081 48.2288 35.0771C49.3468 35.7229 49.3837 36.5995 48.2453 37.2616Z" fill="white"/>
<path d="M51.8257 32.9909C53.5318 33.9751 56.1752 33.9661 57.8492 32.9937C59.7388 31.8945 59.7176 29.9402 57.8299 28.8501C56.1345 27.8712 53.4845 27.8712 51.8002 28.8512C49.9342 29.935 49.9205 31.8903 51.8257 32.9909ZM52.369 29.8296C53.6878 29.0626 55.93 29.0603 57.2638 29.8307C58.3773 30.4728 58.4228 31.3508 57.2804 32.0153C55.9621 32.7809 53.7233 32.7792 52.3917 32.0103C51.2807 31.3691 51.2305 30.4912 52.369 29.8296Z" fill="white"/>
<path d="M62.8208 34.2915C61.8612 34.846 61.1116 36.145 61.1144 37.2489C61.1179 38.5939 62.2339 39.2258 63.3962 38.554C64.3564 38.0001 65.1059 36.7011 65.1026 35.5966C65.098 34.2545 63.9859 33.618 62.8208 34.2915ZM62.8302 37.5733C62.4178 37.8096 62.2474 37.7055 62.2465 37.2456C62.2448 36.5463 62.7777 35.6243 63.3868 35.2722C63.7841 35.043 63.9695 35.1246 63.9706 35.6C63.9728 36.3119 63.4504 37.2157 62.8302 37.5733Z" fill="white"/>
<path d="M48.1431 42.7661C47.1829 43.3205 46.4333 44.6195 46.4367 45.7234C46.4413 47.0592 47.546 47.7041 48.7185 47.0285C49.6781 46.4741 50.4277 45.1756 50.4249 44.0712C50.4203 42.7312 49.3119 42.0928 48.1431 42.7661ZM48.1525 46.0479C47.7699 46.2672 47.5698 46.2127 47.5687 45.7201C47.5665 45.0208 48.0994 44.0988 48.7091 43.7467C49.094 43.5228 49.2918 43.5885 49.2928 44.0739C49.2945 44.7859 48.7721 45.6902 48.1525 46.0479Z" fill="white"/>
<path d="M59.0476 37.0405C58.8724 36.9399 58.6563 36.9405 58.4821 37.0411L52.4824 40.5047C52.3066 40.6064 52.1988 40.7938 52.1993 40.9967L52.2082 43.7904C52.2094 44.2265 52.6819 44.4952 53.0572 44.279L59.057 40.8154C59.2328 40.7137 59.3406 40.5263 59.34 40.3234L59.3312 37.5297C59.3306 37.328 59.2223 37.1417 59.0476 37.0405ZM53.3369 42.8103L53.3325 41.3212L58.2024 38.5098L58.2069 39.9989L53.3369 42.8103Z" fill="white"/>
</svg>
