<svg width="93" height="92" viewBox="0 0 93 92" fill="none" xmlns="http://www.w3.org/2000/svg">
<path d="M11.6999 83.7004C11.6999 84.0089 11.8643 84.2937 12.1322 84.4488C12.2053 84.4913 11.4056 84.0264 17.4567 87.5441C17.7381 87.7042 18.0651 87.6936 18.3246 87.5441L54.5825 66.6105C55.0052 66.3664 55.1369 65.8274 54.8995 65.418C54.6605 65.001 54.1282 64.8594 53.7146 65.1002L18.7554 85.2832C18.7207 68.7519 18.6434 31.8985 18.6077 14.8904C18.8194 14.7682 23.8064 11.8894 23.4915 12.0712C23.5178 25.4671 23.5872 61.0352 23.6152 75.3839C23.6189 76.0604 24.3496 76.4602 24.9171 76.1331C95.5335 35.3618 74.2924 47.6257 79.6896 44.5095C79.6903 44.6878 79.7131 50.4603 79.7116 50.0967L66.23 57.8788C65.8147 58.1186 65.6723 58.6492 65.913 59.0645C66.1561 59.49 66.6955 59.6144 67.1013 59.3824L81.0152 51.3498C81.0165 51.3491 81.017 51.3475 81.0183 51.3468L81.0203 51.3456C81.2898 51.1896 81.456 50.9015 81.4543 50.5896C81.4536 50.4113 81.4253 42.4998 81.4271 43.002C81.4254 42.6926 81.261 42.407 80.9915 42.2519C80.9828 42.2469 80.9721 42.249 80.9633 42.2444L75.6754 39.1684C75.411 39.0124 75.077 39.0124 74.8058 39.1667L25.3403 67.7293C25.19 -10.6862 25.242 16.4534 25.2307 10.5633C25.2307 10.2539 25.0646 9.96831 24.7968 9.8132C24.788 9.80811 24.7774 9.81034 24.7685 9.80557L19.4672 6.72546C19.201 6.5695 18.8671 6.5695 18.5975 6.72376L11.9796 10.5447C11.6728 10.7225 11.5457 11.0923 11.5457 11.2956C11.5457 11.2952 11.5457 11.296 11.5457 11.2956C11.5457 11.296 11.5457 11.2977 11.5457 11.2982L11.6999 83.7004ZM13.2849 12.806L16.8644 14.8859L17.0161 85.28L13.4341 83.1986L13.2849 12.806ZM75.2381 40.922L78.8195 43.0052C73.0148 46.3568 29.855 71.2765 25.3528 73.876L25.3443 69.7316L75.2381 40.922ZM19.0298 8.47826L22.6221 10.5659L17.7313 13.3825L14.146 11.299L19.0298 8.47826Z" fill="white"/>
<path d="M62.5056 60.0308L58.3711 62.4184C57.9558 62.6583 57.8134 63.1889 58.0541 63.6042C58.2904 64.0177 58.8213 64.1618 59.239 63.922L63.3735 61.5344C63.7889 61.2945 63.9313 60.7639 63.6905 60.3486C63.4515 59.9308 62.9192 59.7918 62.5056 60.0308Z" fill="white"/>
<path d="M65.9011 15.37C65.9434 15.1123 65.8671 14.8495 65.6925 14.6546C59.3416 7.55482 58.9898 7.07916 58.7729 6.95347L54.4773 4.45734C54.262 4.3319 54.0044 4.30647 53.7721 4.38275C53.5365 4.45988 53.345 4.63364 53.2466 4.85994L46.5931 20.1003C46.4168 20.5046 46.5711 20.9767 46.9525 21.1979L50.3327 23.162L50.4005 43.4275C50.4022 43.736 50.5666 44.0208 50.8327 44.1759L55.1368 46.6754C55.4004 46.8289 55.7335 46.8334 56.0064 46.6763C56.0124 46.6728 56.0147 46.6656 56.0207 46.662L61.7733 43.3402C62.0429 43.1842 62.209 42.8961 62.2073 42.585L62.1191 17.9229L65.479 15.9836C65.7044 15.8531 65.8604 15.6276 65.9011 15.37ZM54.4468 6.44746L57.232 8.0655C57.1537 8.24477 50.9461 22.4695 51.2799 21.7046L48.4934 20.0859L54.4468 6.44746ZM52.0702 23.7187C54.4068 22.3824 53.053 23.1545 54.6163 22.2563L54.6973 44.4128L52.1346 42.924L52.0702 23.7187ZM60.8156 16.671C60.546 16.827 60.3799 17.1143 60.3816 17.4262L60.4697 42.0883L56.4351 44.4182L56.3539 20.7513C56.3513 20.2754 55.9681 19.8868 55.4839 19.8872L55.4792 19.8859C55.33 19.8859 55.1791 19.9249 55.0452 20.002L53.5365 20.8733L58.5915 9.2928L63.6872 15.0131L60.8156 16.671Z" fill="white"/>
<path d="M46.8 42.1544C46.9317 42.1048 47.0468 42.0243 47.1386 41.9225C47.4363 41.5985 47.4389 41.1181 47.1747 40.7898C40.4383 32.4822 40.4549 32.4397 40.2177 32.3021L35.9222 29.8051C35.7069 29.6788 35.4492 29.6543 35.217 29.7305C34.9814 29.8077 34.7898 29.9814 34.6915 30.2077L28.0397 45.4481C27.8634 45.8524 28.0176 46.3245 28.399 46.5457L31.777 48.5093L31.8097 54.1748C31.8114 54.4825 31.9758 54.7664 32.242 54.9207L36.5209 57.3976C36.527 57.4015 36.5295 57.409 36.5358 57.4126C36.8036 57.5668 37.1342 57.566 37.4021 57.4117L43.1809 54.0748C43.4504 53.9188 43.6165 53.6307 43.6148 53.3196C43.6142 53.1448 43.5769 42.6996 43.5792 43.3648L46.8 42.1544ZM41.8366 42.7681C41.8373 42.9428 41.8782 53.4904 41.8756 52.8187L37.8292 55.1511C37.8286 54.9729 37.7949 45.4923 37.797 46.0957C37.7944 45.6124 37.4039 45.2303 36.9291 45.2303C36.929 45.2303 36.9292 45.2303 36.9291 45.2303C36.7798 45.2301 36.6309 45.2684 36.4968 45.3456L34.9839 46.2162L40.0071 34.7086L45.061 40.9507L42.3994 41.9527C42.0587 42.0798 41.8349 42.4053 41.8366 42.7681ZM35.8917 31.7953L38.6707 33.4105L32.721 47.0501L29.9399 45.4337L35.8917 31.7953ZM33.5167 49.0614C33.524 49.0578 33.5307 49.0537 33.5378 49.05C33.5461 49.0456 33.556 49.0491 33.5642 49.0444L36.0646 47.601C36.0652 47.7792 36.0935 55.6458 36.0917 55.1436L33.5422 53.668L33.5167 49.0614Z" fill="white"/>
</svg>
