<svg width="93" height="92" viewBox="0 0 93 92" fill="none" xmlns="http://www.w3.org/2000/svg">
<path d="M22.5625 50.8121L18.4992 48.466C18.2314 48.31 17.9008 48.3117 17.633 48.4643C17.3635 48.6186 17.199 48.905 17.1973 49.2153L17.1448 67.896C17.1431 68.2062 17.3092 68.4944 17.5788 68.6486L21.6404 70.9947C21.7743 71.0727 21.9252 71.1117 22.0743 71.1117C22.5466 71.1117 22.9396 70.732 22.9423 70.2455L22.9965 51.5648C22.9982 51.2545 22.8321 50.9664 22.5625 50.8121ZM21.2115 68.7419L18.8823 67.3976L18.9298 50.7172L21.259 52.0631L21.2115 68.7419Z" fill="white"/>
<path d="M30.2383 55.2433L26.1767 52.8989C25.9089 52.7429 25.5783 52.7446 25.3105 52.8972C25.0409 53.0514 24.8765 53.3379 24.8748 53.6481L24.8206 72.3288C24.8189 72.6391 24.985 72.9272 25.2545 73.0815L29.3178 75.4259C29.4518 75.5039 29.6026 75.5429 29.7518 75.5429C30.2241 75.5429 30.6171 75.1632 30.6197 74.6766L30.6723 55.9959C30.674 55.6857 30.5078 55.3975 30.2383 55.2433ZM28.8873 73.1747L26.5581 71.8305L26.6056 55.15L28.9347 56.4943L28.8873 73.1747Z" fill="white"/>
<path d="M37.9054 59.6693L33.8523 57.33C33.5844 57.1741 33.2539 57.1758 32.986 57.3283C32.7165 57.4826 32.5521 57.7691 32.5504 58.0793L32.4978 76.76C32.4961 77.0702 32.6622 77.3584 32.9318 77.5126L36.9849 79.8537C37.1188 79.9316 37.2697 79.9706 37.4189 79.9706C37.8911 79.9706 38.2841 79.591 38.2868 79.1044L38.3394 60.422C38.341 60.1118 38.1749 59.8236 37.9054 59.6693ZM36.5543 77.6008L34.2354 76.2616L34.2828 59.5812L36.6018 60.9204L36.5543 77.6008Z" fill="white"/>
<path d="M71.2697 57.5284C71.4188 57.5284 71.5697 57.4894 71.7036 57.4114L76.1297 54.8568C76.3992 54.7025 76.5637 54.4144 76.5637 54.1041L76.5501 49.0271C76.5501 48.7169 76.384 48.4304 76.1145 48.2762C75.8466 48.1236 75.5161 48.1219 75.2482 48.2779L70.8204 50.8342C70.5509 50.9884 70.3848 51.2766 70.3865 51.5885L70.4017 56.6638C70.4044 57.1459 70.7952 57.5284 71.2697 57.5284ZM74.8176 50.529L74.8261 53.6058L72.1325 55.1602L72.124 52.0852L74.8176 50.529Z" fill="white"/>
<path d="M55.3012 62.1358C55.4504 62.1358 55.6012 62.0968 55.7351 62.0188L59.9171 59.6032C60.1866 59.449 60.3528 59.1608 60.3511 58.8506L60.3375 54.0567C60.3358 53.7464 60.1714 53.46 59.9019 53.3057C59.634 53.1531 59.3035 53.1514 59.0356 53.3074L54.8537 55.7213C54.5841 55.8756 54.418 56.1637 54.4197 56.474L54.4333 61.2696C54.4359 61.7572 54.8299 62.1358 55.3012 62.1358ZM58.6067 55.5586L58.6135 58.3522L56.164 59.766L56.1572 56.9723L58.6067 55.5586Z" fill="white"/>
<path d="M62.5785 57.9335C62.7277 57.9335 62.8786 57.8945 63.0125 57.8165L67.1945 55.4026C67.464 55.2484 67.6301 54.9602 67.6284 54.65L67.6149 49.8544C67.6132 49.5441 67.4487 49.2577 67.1792 49.1034C66.9114 48.9508 66.5808 48.9491 66.313 49.1051L62.131 51.519C61.8615 51.6733 61.6953 51.9615 61.697 52.2717L61.7106 57.0673C61.7133 57.5549 62.1072 57.9335 62.5785 57.9335ZM65.8824 51.3563L65.8909 54.1516L63.4414 55.5654L63.4346 52.77L65.8824 51.3563Z" fill="white"/>
<path d="M71.2697 66.6195C71.4188 66.6195 71.5697 66.5806 71.7036 66.5026L76.1297 63.9463C76.3992 63.792 76.5637 63.5038 76.5637 63.1936L76.5501 58.1166C76.5501 57.8064 76.384 57.5199 76.1145 57.3656C75.8466 57.2131 75.5161 57.2114 75.2482 57.3673L70.8204 59.9236C70.5509 60.0779 70.3848 60.3661 70.3865 60.678L70.4017 65.755C70.4044 66.2371 70.7952 66.6195 71.2697 66.6195ZM74.8176 59.6185L74.8261 62.6952L72.1325 64.2514L72.124 61.1747L74.8176 59.6185Z" fill="white"/>
<path d="M46.3915 71.8915C46.5407 71.8915 46.6915 71.8525 46.8255 71.7745L51.2532 69.2199C51.5228 69.0657 51.6889 68.7775 51.6872 68.4656L51.6719 63.3886C51.6702 63.08 51.5058 62.7936 51.2363 62.6393C50.9684 62.4867 50.6379 62.485 50.37 62.641L45.944 65.1973C45.6744 65.3516 45.51 65.6397 45.51 65.9499L45.5236 71.0253C45.5236 71.507 45.9164 71.8915 46.3915 71.8915ZM49.9412 64.8922L49.9496 67.9689L47.256 69.5234L47.2476 66.4483L49.9412 64.8922Z" fill="white"/>
<path d="M51.2363 71.7287C50.9684 71.5762 50.6379 71.5745 50.37 71.7304L45.944 74.2867C45.6744 74.441 45.51 74.7292 45.51 75.0394L45.5236 80.1164C45.5236 80.4266 45.6897 80.7131 45.9592 80.8674C46.2375 81.0259 46.5663 81.0166 46.8255 80.8657L51.2532 78.3094C51.5228 78.1551 51.6889 77.8669 51.6872 77.555L51.6719 72.478C51.6702 72.1695 51.5058 71.883 51.2363 71.7287ZM47.256 78.6145L47.2476 75.5378L49.9412 73.9816L49.9496 77.0583L47.256 78.6145Z" fill="white"/>
<path d="M83.207 24.1768L83.205 24.1757C41.039 -0.314888 92.1377 29.3631 49.2546 4.45698C48.9884 4.30187 48.6562 4.30103 48.3849 4.45529L43.8935 7.04931L42.4502 6.21063C39.7176 4.62141 34.5778 5.63173 29.0465 8.84746C22.3015 12.7396 16.5876 18.8111 14.9792 23.7407L9.75891 26.7543C9.48756 26.9114 9.32495 27.2005 9.32495 27.5053L9.32537 27.507C9.32537 27.6852 9.35619 39.2166 9.35716 39.0384C9.35885 39.3469 9.52159 39.6317 9.78943 39.7859L12.315 41.2536L12.4 69.9048C12.4 70.2133 12.5644 70.4981 12.8322 70.654C17.8645 73.5787 7.60633 67.6166 41.8942 87.5447C42.1725 87.7032 42.5012 87.6939 42.7604 87.543L80.2541 65.8974C80.5236 65.7431 80.6897 65.455 80.688 65.143L80.6031 38.7269L83.2409 37.2042C83.5105 37.0491 83.6766 36.7609 83.6749 36.4498L83.6393 24.9244C83.6379 24.6522 83.3819 24.278 83.207 24.1768ZM48.8172 6.20978L81.0406 24.9253L77.5518 26.9441C77.1998 26.4942 76.5106 25.9917 76.3314 25.8974L45.6237 8.05465L48.8172 6.20978ZM29.9161 10.3494C34.8338 7.49048 39.4107 6.4505 41.5772 7.71085C71.2431 24.949 71.543 25.1233 71.8003 25.2728C71.7652 25.277 71.7266 25.2878 71.6915 25.2924C68.7873 25.6646 65.5384 27.0941 62.9837 28.5665C57.7812 31.5664 51.3267 37.2941 49.1719 42.7793C5.51477 17.3936 19.676 25.628 16.743 23.9226C18.3737 19.4922 23.7745 13.8931 29.9161 10.3494ZM15.6954 25.3312C18.9907 27.2467 3.7655 18.3968 47.9031 44.0527L44.1369 46.2274L11.9253 27.5087L15.6954 25.3312ZM11.0642 29.0165C14.6665 31.11 40.4857 46.1143 43.2653 47.7296L43.2933 57.2495C33.5623 51.5944 21.7616 44.7366 11.0913 38.5357L11.0642 29.0165ZM14.0562 42.2685C51.5148 64.0335 38.5955 56.5269 41.3902 58.1507L41.4549 85.2815L14.1341 69.403C14.1263 66.6694 14.0638 44.9436 14.0562 42.2685ZM65.1179 60.8373L65.1501 72.6001L56.932 77.3448L56.8998 65.5821L65.1179 60.8373ZM78.9505 64.6464L66.8834 71.6125L66.8501 59.8355L68.4591 58.9065C68.8744 58.6675 69.0168 58.1369 68.7761 57.7216C68.5371 57.3063 68.0031 57.1622 67.5912 57.4046L53.5501 65.5109C53.1348 65.7499 52.9924 66.2805 53.2331 66.6958C53.4709 67.1106 54.0034 67.2534 54.418 67.0128L55.1665 66.5808L55.1998 78.3575L43.191 85.2901L43.1284 59.1608L43.7351 59.5134C44.0017 59.6686 44.3358 59.67 44.6047 59.5134C46.4613 58.4322 78.6964 39.8269 78.8708 39.7269L78.9505 64.6464ZM45.0342 57.255C45.0337 57.0768 45.0057 47.5533 45.0063 47.7316L50.075 44.8062C50.218 44.7239 50.4616 44.374 50.4836 44.2993C52.1048 38.8607 58.7854 32.9942 63.8406 30.0768C63.8443 30.0746 63.8479 30.0722 63.8516 30.0701L63.8587 30.0663C67.3365 28.071 74.9252 25.0194 76.4584 28.4721L76.4603 28.4749C76.6771 28.9618 77.2595 29.1208 77.6859 28.8716L81.9085 26.4289L81.9373 35.9515C38.3064 61.1389 46.3688 56.4846 45.0342 57.255Z" fill="white"/>
<path d="M63.0346 38.0179C62.8549 38.1221 62.743 38.1315 62.7532 38.1476C62.7379 38.1289 62.6922 38.0306 62.6922 37.8297C62.6905 37.0932 63.2499 36.1227 63.8923 35.7523C64.0686 35.6506 64.1788 35.6413 64.1687 35.626C64.1839 35.6446 64.2314 35.743 64.2314 35.9438C64.2331 36.4227 64.6213 36.8092 65.0993 36.8092H65.1027C65.5807 36.8075 65.9689 36.4176 65.9672 35.9388C65.9638 35.1251 65.6299 34.4674 65.0501 34.1334C64.8296 34.0067 64.5821 33.9513 64.3263 33.9321V33.2545C64.3263 32.7747 63.9381 32.3865 63.4584 32.3865C62.9787 32.3865 62.5905 32.7747 62.5905 33.2545V34.5954C61.6394 35.3698 60.9519 36.6537 60.9563 37.8339C60.9599 39.5471 62.4206 40.3809 63.9025 39.5215C64.0788 39.4198 64.189 39.4096 64.1788 39.3943C64.1958 39.413 64.2416 39.5113 64.2416 39.7122C64.2432 40.4326 63.6737 41.4192 63.0465 41.782C62.8668 41.8862 62.7549 41.8956 62.7634 41.91C62.7481 41.8922 62.7023 41.7955 62.7023 41.5989C62.7006 41.12 62.3125 40.7335 61.8344 40.7335H61.831C61.353 40.7352 60.9648 41.1251 60.9665 41.604C60.9699 42.4134 61.3021 43.0695 61.8819 43.4026C62.0979 43.5268 62.3396 43.5869 62.5905 43.6077V44.2942C62.5905 44.774 62.9787 45.1621 63.4584 45.1621C63.9381 45.1621 64.3263 44.774 64.3263 44.2942V42.9566C65.2869 42.1864 65.9818 40.8947 65.9774 39.7071C65.9703 37.9986 64.5198 37.1633 63.0346 38.0179Z" fill="white"/>
</svg>
