<svg width="93" height="92" viewBox="0 0 93 92" fill="none" xmlns="http://www.w3.org/2000/svg">
<path d="M28.1579 47.6873C30.3353 49.9369 31.9134 55.7198 32.572 58.7654C31.6763 59.9338 31.1951 61.1976 31.1665 62.497C31.1288 62.7397 31.1235 73.317 31.1236 73.4953C31.1236 77.0514 34.2623 79.7119 37.5862 81.0553C38.7936 84.9594 42.3806 87.6601 46.503 87.6601C50.5638 87.6601 54.1445 84.9998 55.398 81.1561C56.0568 80.8798 56.6741 80.5859 57.2512 80.2506C60.2177 78.5198 61.862 76.172 61.8824 73.6343C61.8579 61.2357 61.9204 62.9429 61.8506 62.5753C61.8153 61.158 61.2611 59.7801 60.2136 58.5153C60.5199 54.3884 62.2329 50.4781 65.1413 47.3881C70.128 42.0864 72.534 35.0051 71.968 27.7738C71.6004 23.0482 70.0587 18.7585 67.5273 15.1104C67.2954 14.7781 66.7438 14.5947 66.3178 14.8918C65.9237 15.1647 65.8262 15.7063 66.1 16.0996C68.4271 19.4514 69.9304 23.5825 70.253 28.0581C70.7325 34.7583 68.4839 41.3017 63.8717 46.2032C60.7198 49.5523 58.9019 53.7784 58.5031 57.9842C58.2538 60.5872 58.6126 62.4301 55.0918 64.3103C50.4008 67.0466 42.6885 67.0453 37.8992 64.3058C34.9066 62.5807 34.7814 61.0144 34.5061 59.57C34.4689 59.3613 34.4191 59.1023 34.3521 58.7754C34.3504 58.7669 34.3425 58.7616 34.3405 58.7532C33.5757 55.14 31.9529 49.1101 29.4022 46.4702C25.3344 42.2878 22.6876 36.3653 22.6876 29.9008C22.6876 14.3169 37.4236 2.60836 53.3557 7.01688C54.4965 7.32878 56.9993 8.27816 58.698 9.26298C59.6979 9.84265 60.5731 8.32332 59.5693 7.75089C57.7743 6.72858 55.8219 5.89468 53.8367 5.34905C53.8274 5.3464 53.8185 5.34206 53.8092 5.33952C36.8494 0.644175 20.9509 13.1008 20.9509 29.9084C20.9509 36.8409 23.7897 43.1892 28.1579 47.6873ZM60.1465 68.1898C60.1465 68.1926 60.1448 68.1951 60.1448 68.1979C60.1347 70.0982 58.7963 71.9163 56.3731 73.3173C50.9977 76.4466 42.1803 76.4314 36.7202 73.2843C34.282 71.8781 32.9246 70.0726 32.8677 68.1878L32.8697 66.9049C33.6383 67.8021 34.6397 68.6268 35.8633 69.3345C41.7982 72.7558 51.3933 72.7639 57.2495 69.3684C58.4306 68.6846 59.3974 67.8869 60.1465 67.0185V68.1898ZM59.9245 61.3885C60.8369 64.1115 58.8573 66.4313 56.379 67.8665C50.9952 70.9882 42.1812 70.9721 36.7312 67.8318C34.564 66.5782 33.2154 64.9686 32.9332 63.3006C32.8256 62.6632 32.8739 62.0216 33.0739 61.3927C33.0856 61.4303 33.1102 61.4653 33.1227 61.5028C33.7435 63.3634 35.3403 64.836 37.0279 65.8128C42.3009 68.829 50.8685 68.7999 55.9383 65.8256C57.7171 64.8758 59.3265 63.3685 59.909 61.4288C59.9131 61.4152 59.9204 61.4021 59.9245 61.3885ZM46.503 85.9243C43.6187 85.9243 41.0412 84.3088 39.7478 81.8372C43.8657 83.056 49.0464 83.1247 53.2082 81.933C51.8868 84.3478 49.3305 85.9243 46.503 85.9243ZM56.3782 78.7503C54.2294 79.997 51.2102 80.926 47.4057 81.0428C41.7734 81.2141 32.8595 78.8742 32.8595 73.497L32.8613 72.3761C33.6259 73.2618 34.6216 74.0777 35.8531 74.7879C38.8341 76.5059 42.7338 77.3654 46.6208 77.3654C50.4807 77.3654 54.3279 76.517 57.2444 74.8184C58.4345 74.1302 59.4011 73.3384 60.1465 72.4775V73.6275C60.1313 75.5219 58.7921 77.3417 56.3782 78.7503Z" fill="white"/>
<path d="M63.8996 13.3848C64.2276 13.7323 64.7759 13.7502 65.1261 13.4195C65.4744 13.0907 65.4905 12.5414 65.1608 12.1931C64.4701 11.4608 63.7293 10.7666 62.9605 10.1284C62.5918 9.82153 62.046 9.87493 61.7383 10.2419C61.4323 10.6106 61.4832 11.1582 61.8519 11.4641C62.5672 12.0575 63.2555 12.7042 63.8996 13.3848Z" fill="white"/>
<path d="M46.4894 43.6045C46.9692 43.6045 47.3574 43.2163 47.3574 42.7366V38.9391C49.6444 37.3977 51.3846 34.2708 51.3766 31.5756C51.3678 28.3659 48.861 26.933 46.0809 28.5379C44.4624 29.4745 43.3833 28.8719 43.378 27.0054C43.372 24.7915 44.996 21.981 46.9234 20.8681C48.5195 19.945 49.6099 20.5275 49.6153 22.4073C49.617 22.8862 50.0052 23.2727 50.4832 23.2727H50.4858C50.9655 23.271 51.3529 22.8811 51.3512 22.4022C51.3443 19.8798 49.7494 18.2403 47.3574 18.8473V15.8648C47.3574 15.3851 46.9692 14.9969 46.4894 14.9969C46.0097 14.9969 45.6215 15.3851 45.6215 15.8648V19.664C43.3544 21.2204 41.6349 24.3274 41.6421 27.0105C41.6509 30.2169 44.1548 31.6533 46.9488 30.0415C48.5616 29.1106 49.6354 29.7165 49.6407 31.5807C49.6475 33.7878 48.0295 36.5899 46.1072 37.6994C44.4903 38.6341 43.4096 38.0355 43.4042 36.1788C43.4025 35.6999 43.0143 35.3134 42.5363 35.3134H42.5338C42.054 35.3151 41.6667 35.705 41.6684 36.1839C41.6756 38.8078 43.3587 40.2871 45.6215 39.7366V42.7366C45.6215 43.2163 46.0097 43.6045 46.4894 43.6045Z" fill="white"/>
</svg>
