<svg width="93" height="92" viewBox="0 0 93 92" fill="none" xmlns="http://www.w3.org/2000/svg">
<path d="M23.7318 66.9556C24.2115 66.9539 24.5989 66.5649 24.5972 66.0852L24.5828 61.1785C24.5811 60.6996 24.1929 60.3131 23.7149 60.3131H23.7123C23.2326 60.3148 22.8452 60.7039 22.8469 61.1836L22.8613 66.0903C22.863 66.5691 23.2512 66.9556 23.7293 66.9556H23.7318Z" fill="white"/>
<path d="M70.253 66.1038L70.0962 10.8906C70.095 10.5353 69.8384 10.2438 69.6648 10.143L69.6627 10.1419C69.4673 10.0283 59.7063 4.35532 59.882 4.45744C59.6116 4.29979 59.2802 4.30149 59.0115 4.45575L23.1808 25.1427C22.9095 25.2998 22.7476 25.5888 22.7468 25.8937C22.7463 26.0826 22.832 56.1575 22.8333 56.3464C22.835 56.8245 23.2232 57.2118 23.7012 57.2118H23.7037C24.1826 57.2101 24.5708 56.8211 24.5691 56.3414L24.4869 27.4052L32.531 32.0803L32.6821 85.2821L24.6378 80.6076L24.6115 71.1605C24.6098 70.6825 24.2216 70.2951 23.7436 70.2951H23.741C23.2622 70.2968 22.874 70.6858 22.8757 71.1656L22.9036 81.1103C22.9045 81.4188 23.0689 81.7036 23.3359 81.8578C23.4029 81.8967 22.4016 81.3148 33.1212 87.5451C33.3852 87.6971 33.7167 87.7007 33.9883 87.5443L69.819 66.8582C70.0886 66.7022 70.2538 66.4149 70.253 66.1038ZM59.4438 6.21024L67.4965 10.8906L33.3988 30.577C33.2226 30.4746 24.8974 25.6361 25.3464 25.897L59.4438 6.21024ZM34.418 85.2914L34.2672 32.0804C47.001 24.7285 55.5681 19.7823 68.3646 12.3942L68.5154 65.6063L34.418 85.2914Z" fill="white"/>
<path d="M65.4276 37.214C65.6971 37.058 65.8624 36.7707 65.8616 36.4596L65.8116 18.8452C65.8107 18.5358 65.6446 18.2502 65.3768 18.095C65.1081 17.9408 64.7767 17.9416 64.5097 18.0959L37.1268 33.9058C36.8573 34.0618 36.692 34.3491 36.6929 34.6602L36.7437 52.273C36.7446 52.5823 36.9107 52.868 37.1785 53.0231C37.4425 53.1751 37.774 53.1787 38.0456 53.0222L65.4276 37.214ZM64.08 20.3488L64.124 35.9621L38.4753 50.7693L38.4304 35.1577L64.08 20.3488Z" fill="white"/>
<path d="M48.804 56.5846C48.954 56.5846 49.104 56.5456 49.2379 56.4685L55.3668 52.9307C55.6363 52.7747 55.8016 52.4874 55.8008 52.1763L55.7864 47.1078C55.7855 46.7984 55.6194 46.5128 55.3515 46.3577C55.0837 46.2026 54.7523 46.2051 54.4845 46.3585L48.3556 49.8972C48.0861 50.0531 47.9208 50.3405 47.9216 50.6515L47.936 55.7192C47.9373 56.1915 48.3196 56.5846 48.804 56.5846ZM54.0547 48.6114L54.0632 51.6788L49.6677 54.2156L49.6592 51.1491L54.0547 48.6114Z" fill="white"/>
<path d="M59.0327 50.6795C59.1827 50.6795 59.3328 50.6405 59.4667 50.5634L65.6066 47.018C65.8761 46.862 66.0414 46.5747 66.0405 46.2636L66.0261 41.1959C66.0253 40.8865 65.8592 40.6009 65.5913 40.4458C65.3226 40.2907 64.9912 40.2932 64.7242 40.4466L58.5844 43.9921C58.3148 44.148 58.1495 44.4354 58.1504 44.7464L58.1648 49.8141C58.1661 50.2863 58.5484 50.6795 59.0327 50.6795ZM64.2945 42.6995L64.303 45.7661L59.8964 48.3105L59.8879 45.244L64.2945 42.6995Z" fill="white"/>
<path d="M65.616 49.0437C65.3473 48.8886 65.0159 48.8911 64.7489 49.0445L58.609 52.59C58.3395 52.7459 58.1742 53.0332 58.1751 53.3443L58.2132 67.0234C58.214 67.3328 58.3802 67.6184 58.648 67.7736C58.912 67.9256 59.2434 67.9292 59.5151 67.7727L65.6558 64.2273C65.9253 64.0713 66.0906 63.784 66.0898 63.4729L66.0508 49.7938C66.0499 49.4844 65.8838 49.1988 65.616 49.0437ZM59.9448 65.5198L59.9126 53.8418L64.3192 51.2974L64.3522 62.9754L59.9448 65.5198Z" fill="white"/>
<path d="M45.1229 52.2636C44.8542 52.1094 44.5228 52.1102 44.2559 52.2645L38.1151 55.8091C37.8456 55.965 37.6803 56.2524 37.6812 56.5634L37.6956 61.632C37.6969 62.1042 38.0791 62.4974 38.5635 62.4974C38.7135 62.4974 38.8635 62.4584 38.9975 62.3812L45.1382 58.8358C45.4077 58.6798 45.573 58.3925 45.5721 58.0815L45.5577 53.0138C45.5569 52.7044 45.3908 52.4187 45.1229 52.2636ZM39.4272 60.1284L39.4187 57.061L43.8261 54.5174L43.8346 57.5839L39.4272 60.1284Z" fill="white"/>
<path d="M38.5881 71.0944C38.7382 71.0944 38.8882 71.0554 39.0221 70.9783L44.5848 67.7676C44.8543 67.6117 45.0196 67.3243 45.0188 67.0133L45.0043 61.9456C45.0035 61.6362 44.8374 61.3506 44.5695 61.1955C44.3017 61.0412 43.9703 61.0421 43.7025 61.1963L38.1398 64.407C37.8702 64.5629 37.705 64.8502 37.7058 65.1613L37.7202 70.229C37.7215 70.7012 38.1038 71.0944 38.5881 71.0944ZM43.2727 63.4483L43.2812 66.5157L39.4518 68.7262L39.4434 65.6588L43.2727 63.4483Z" fill="white"/>
<path d="M48.8286 65.1825C48.9786 65.1825 49.1287 65.1435 49.2626 65.0664L55.3915 61.5277C55.661 61.3718 55.8263 61.0844 55.8254 60.7734L55.811 55.7057C55.8102 55.3963 55.644 55.1107 55.3762 54.9556C55.1075 54.8013 54.7761 54.8021 54.5091 54.9564L48.3803 58.4951C48.1107 58.651 47.9454 58.9384 47.9463 59.2494L47.9607 64.3171C47.962 64.7893 48.3443 65.1825 48.8286 65.1825ZM54.0794 57.2093L54.0879 60.2758L49.6923 62.8135L49.6838 59.7469L54.0794 57.2093Z" fill="white"/>
<path d="M44.5933 69.8061C44.3247 69.6518 43.9933 69.6526 43.7263 69.8069L38.1644 73.0184C37.8949 73.1743 37.7296 73.4617 37.7305 73.7727L37.7449 78.8404C37.7457 79.1498 37.9119 79.4354 38.1797 79.5905C38.4437 79.7426 38.7751 79.7462 39.0468 79.5897L44.6086 76.3782C44.8781 76.2223 45.0434 75.9349 45.0426 75.6239L45.0282 70.5562C45.0273 70.2468 44.8612 69.9612 44.5933 69.8061ZM39.4765 77.3368L39.468 74.2703L43.2965 72.0598L43.305 75.1263L39.4765 77.3368Z" fill="white"/>
<path d="M55.4 63.567C55.1313 63.4127 54.7999 63.4136 54.5329 63.5678L48.4049 67.1065C48.1354 67.2625 47.9701 67.5498 47.971 67.8609L47.9845 72.9285C47.9854 73.2379 48.1515 73.5236 48.4193 73.6778C48.6846 73.8323 49.0169 73.833 49.2864 73.6778L55.4153 70.1392C55.6848 69.9832 55.8501 69.6959 55.8492 69.3848L55.8348 64.3171C55.834 64.0077 55.6678 63.7221 55.4 63.567ZM49.7161 71.4249L49.7085 68.3584L54.1032 65.8207L54.1117 68.8873L49.7161 71.4249Z" fill="white"/>
<path d="M55.9144 29.0492L60.8253 31.9056C61.2409 32.1467 61.7716 32.0057 62.0119 31.5919C62.2535 31.1775 62.1128 30.646 61.6983 30.4053L56.7874 27.549C56.3738 27.3091 55.8424 27.4473 55.6008 27.8626C55.3593 28.2771 55.5 28.8085 55.9144 29.0492Z" fill="white"/>
<path d="M58.7234 27.0701L60.9669 28.3745C61.3825 28.6157 61.9132 28.4746 62.1536 28.0609C62.3951 27.6465 62.2544 27.115 61.8399 26.8743L59.5964 25.5699C59.1819 25.3292 58.6505 25.4699 58.4098 25.8835C58.1691 26.2979 58.3089 26.8294 58.7234 27.0701Z" fill="white"/>
</svg>
