<svg width="93" height="92" viewBox="0 0 93 92" fill="none" xmlns="http://www.w3.org/2000/svg">
<path d="M10.2319 82.7488C10.2336 83.0573 10.3963 83.3421 10.6641 83.4963L17.6064 87.5298C17.6139 87.5344 17.6169 87.5433 17.6245 87.5478C17.8922 87.702 18.2229 87.7012 18.4907 87.5469L54.5381 66.7274C54.9835 67.2 55.4792 67.6132 56.0403 67.9398L59.009 69.6645L59.0577 81.0358C59.0594 81.3443 59.2238 81.6283 59.49 81.7825L64.8026 84.8719C65.1925 85.1018 65.688 84.9691 65.9316 84.6431L70.6289 78.3846L75.1228 79.1618C75.644 79.2522 76.1382 78.8531 76.1382 78.304L76.1051 65.5868C80.2482 60.833 82.9101 54.3676 82.8951 49.0056C82.885 45.0652 81.4966 42.0995 78.9895 40.6561C78.98 40.6507 78.9696 40.6476 78.9601 40.6422L74.8874 38.2713L74.8024 9.25233C74.8021 9.18473 74.7664 9.12741 74.7511 9.06321C74.6979 8.83182 74.5789 8.61982 74.3684 8.49798L67.4098 4.45416C67.1453 4.29821 66.8114 4.29821 66.5402 4.45247L37.6139 21.1541C37.1986 21.3939 37.0562 21.9245 37.2969 22.3398C37.5342 22.756 38.0648 22.8942 38.4818 22.6577L66.9724 6.20696L72.2003 9.24555C70.3937 10.2886 27.0818 35.2944 17.9306 40.5777L12.7034 37.5396L24.022 31.0055C24.4374 30.7657 24.5798 30.2351 24.339 29.8198C24.1 29.4028 23.5677 29.2638 23.1541 29.5019L10.5387 36.7852C10.23 36.9639 10.1047 37.2938 10.1047 37.5353C10.1047 37.5361 10.1053 37.5367 10.1053 37.5374C10.1053 37.5382 10.1047 37.5388 10.1047 37.5396L10.2319 82.7488ZM73.0716 10.7551L73.1479 37.2988C72.2393 36.8819 71.0294 36.6303 69.7326 36.6886C69.7322 36.6886 69.7329 36.6886 69.7326 36.6886L69.6983 23.2434C69.6983 22.9349 69.5321 22.6492 69.2643 22.495C68.9982 22.3407 68.6693 22.3398 68.3998 22.4924C67.7454 22.8679 67.1487 22.956 66.7673 22.7323C66.391 22.5145 66.1757 21.9678 66.1757 21.2321C66.1757 20.9218 66.0096 20.6354 65.7418 20.4803C65.4739 20.326 65.1417 20.326 64.8738 20.4803L26.163 42.8208C25.8952 42.9759 25.7291 43.2624 25.7291 43.5726C25.7291 45.5068 24.3238 47.9445 22.6608 48.8946C22.3896 49.0497 22.2218 49.3387 22.2235 49.6507L22.293 72.8066C22.2947 73.1168 22.4608 73.4025 22.7286 73.5567C22.9982 73.7118 23.3304 73.7101 23.5966 73.555C24.2526 73.1745 24.8442 73.0821 25.2239 73.3033C25.6002 73.5203 25.8172 74.0721 25.8172 74.8179C25.8172 75.2921 26.2015 75.6859 26.6851 75.6859C26.8343 75.6859 26.9852 75.6469 27.1191 75.5697L52.2268 61.0707C52.2294 61.0962 52.235 61.1192 52.2375 61.1446C52.3852 62.5584 52.7965 64.0806 53.5066 65.3183L18.9221 85.2935C18.7986 39.3162 18.8086 43.0538 18.806 42.0772C86.539 2.98176 68.0972 13.6263 73.0716 10.7551ZM54.4558 50.0004L29.5313 64.3969C29.116 64.6368 28.9736 65.1674 29.2143 65.5827C29.4506 65.9962 29.9815 66.1403 30.3993 65.9005L53.3948 52.6182C52.7814 54.4093 52.2171 57.0081 52.1567 59.1063L27.353 73.4304C26.8842 71.9675 25.5817 71.1826 24.0254 71.5285L23.961 50.1245C25.8155 48.8353 27.2479 46.3519 27.4429 44.0871L64.6433 22.6179C64.8738 23.3332 65.2993 23.8884 65.896 24.2334C66.4995 24.5851 67.2098 24.6775 67.9658 24.5139L67.9963 36.9268C66.5078 37.2852 64.739 38.0824 62.9717 39.3391C59.3496 41.9152 56.2953 45.9996 54.4558 50.0004ZM11.8457 39.0482L17.0634 42.0809C17.0758 46.4978 17.0184 26.0804 17.1848 85.2784L11.966 82.2461L11.8457 39.0482ZM56.9133 66.4396C54.7155 65.1603 53.9389 62.296 53.8955 59.742C53.8581 56.8742 54.673 53.1498 56.7601 49.2417C56.77 49.2234 56.78 49.2051 56.7899 49.1868C59.3828 44.3588 64.7334 38.4413 70.1038 38.4045C70.1653 38.4042 70.2216 38.4153 70.2825 38.4167C71.9243 38.4525 72.8407 39.1161 73.015 39.1903L74.143 39.8467C72.9135 40.0325 71.2622 40.5961 69.7084 41.491C65.5749 43.8802 61.9275 48.3569 59.7124 53.2485C58.2979 56.3698 57.4614 59.6589 57.4693 62.6882C57.4732 64.1466 57.6894 65.7037 58.2047 67.0882C58.2186 67.1257 58.223 67.172 58.2373 67.2092L56.9133 66.4396ZM60.7919 80.5315L60.7495 70.6775C60.9235 70.756 62.4272 71.7895 64.3212 71.9226L64.3636 82.6097L60.7919 80.5315ZM70.4018 76.5834C70.0814 76.5266 69.7559 76.6572 69.561 76.9174L66.096 81.5333L66.0571 71.8658C69.0617 71.4727 72.1546 69.5001 74.3735 67.4075L74.399 77.2751L70.4018 76.5834ZM81.1593 49.0107C81.1729 54.0846 78.5108 60.8414 73.6032 65.7272C71.9835 67.3333 69.8868 68.8792 67.7232 69.6599C62.4354 71.5592 59.2217 68.3191 59.2086 62.6788C59.1996 59.7116 60.0661 56.4755 61.5149 53.4364C63.5924 49.0815 66.8758 45.136 70.5814 42.9971C76.6986 39.466 81.1421 42.3675 81.1593 49.0107Z" fill="white"/>
<path d="M33.1148 23.7511L27.6987 26.8778C27.2834 27.1177 27.141 27.6483 27.3818 28.0636C27.5411 28.3424 27.8344 28.4975 28.1327 28.4975C28.2802 28.4975 28.4294 28.4602 28.5667 28.3814L33.9827 25.2547C34.398 25.0148 34.5404 24.4842 34.2997 24.0689C34.0607 23.6528 33.5267 23.5112 33.1148 23.7511Z" fill="white"/>
<path d="M61.6006 30.1385L29.523 48.6581C29.1077 48.898 28.9653 49.4286 29.206 49.8439C29.4422 50.2574 29.9732 50.4016 30.3909 50.1617L62.4685 31.6421C62.8838 31.4022 63.0262 30.8716 62.7855 30.4563C62.5465 30.0384 62.0142 29.8994 61.6006 30.1385Z" fill="white"/>
<path d="M50.6363 44.3363L29.523 56.5262C29.1077 56.7661 28.9653 57.2967 29.206 57.712C29.4422 58.1255 29.9732 58.2697 30.3909 58.0299L51.5042 45.8399C51.9195 45.6001 52.0619 45.0695 51.8212 44.6542C51.5838 44.2363 51.0516 44.0964 50.6363 44.3363Z" fill="white"/>
<path d="M74.9143 50.1473C74.5023 49.9117 73.9684 50.0516 73.731 50.4694L68.6048 59.4165L66.474 57.4357C66.1231 57.1111 65.5739 57.1297 65.2467 57.4806C64.9196 57.8315 64.9399 58.3808 65.2908 58.7071L68.2234 61.432C68.6421 61.818 69.2972 61.7037 69.5677 61.2278L75.2363 51.3323C75.4754 50.9161 75.3313 50.3864 74.9143 50.1473Z" fill="white"/>
</svg>
