<svg width="93" height="92" viewBox="0 0 93 92" fill="none" xmlns="http://www.w3.org/2000/svg">
<path d="M8.98944 73.5353C9.30949 73.7213 22.048 81.122 21.8651 81.0169C24.9658 82.7982 28.6921 81.8902 31.7928 80.099C31.9664 79.9986 35.042 78.2209 34.8458 78.3343C35.8604 77.7483 34.9529 76.2583 33.9728 76.8298C33.7992 76.9303 30.727 78.7072 30.9232 78.5937C27.8706 80.3556 25.0503 80.7026 22.931 79.6047C18.682 77.3872 18.9439 70.7813 20.3432 66.0683C22.4144 59.1063 28.3641 50.9599 35.0696 49.3656C35.6672 49.2232 35.8025 48.4031 35.7332 48.6003C37.1615 33.0106 50.557 19.5362 59.6503 19.3231C62.9145 19.1266 65.6707 20.9007 67.1421 23.6915C67.424 24.2266 68.0638 24.2488 68.435 23.9638C80.1875 14.8318 86.3988 20.3898 86.4246 29.2796C86.4517 38.7878 79.7405 50.4099 71.4648 55.1877L42.1443 72.1156C41.729 72.3555 41.5866 72.886 41.8265 73.3014C42.0655 73.7167 42.5969 73.8565 43.0122 73.6192L72.3327 56.6913C81.0891 51.6363 88.1892 39.337 88.1604 29.2745C88.1462 24.3127 86.4287 20.5772 83.3318 18.7178C83.1373 18.566 79.2284 16.3244 70.3951 11.1795C67.1912 9.32159 62.9762 9.70215 58.5162 12.2568C57.6997 12.7347 56.9359 13.2589 56.2123 13.805L52.061 11.399C48.4715 9.30633 43.7759 9.72928 38.8421 12.5916C29.9298 17.7336 22.4515 29.6052 21.2388 40.4059C20.1593 40.719 19.0732 41.1549 18.0009 41.7738C10.7202 45.977 4.81594 56.2107 4.83967 64.5865C4.85239 68.8092 6.32633 71.9876 8.98944 73.5353ZM59.3858 13.7595C63.2788 11.5304 66.8768 11.1473 69.5238 12.6806L77.8559 17.5228C74.353 17.8105 70.8555 19.7323 68.1354 21.9523C67.3933 20.8128 66.2418 19.6451 64.9625 18.8922C64.9436 18.8791 64.9323 18.8593 64.9121 18.8476C64.9112 18.8467 64.9095 18.8459 64.9087 18.845L57.841 14.7489C58.3351 14.4027 58.8523 14.071 59.3858 13.7595ZM39.7118 14.0943C44.0861 11.5567 48.1588 11.1337 51.1889 12.9001C51.3647 13.0021 59.7658 17.8774 59.244 17.5746C59.1968 17.5773 59.147 17.5898 59.0998 17.5929C46.9864 18.3845 35.8765 34.7011 34.1548 47.1033C33.9796 47.0014 22.2031 40.1506 22.9508 40.5855C24.1086 30.2908 31.2359 18.984 39.7118 14.0943ZM18.8689 43.2774C19.8792 42.6935 20.8971 42.2612 21.899 41.9891C22.0727 42.0901 33.475 48.7195 32.7484 48.297C32.7048 48.3148 32.6616 48.3428 32.6179 48.3611C26.0153 51.1256 20.6059 58.9415 18.6127 65.8752C17.5816 69.4543 17.1773 73.6628 18.5739 77.0977L9.8616 72.0351C7.75281 70.8095 6.58569 68.1625 6.57552 64.5814C6.55348 56.7599 12.0679 47.2034 18.8689 43.2774Z" fill="white"/>
<path d="M37.9114 76.5646L39.8134 75.4661C40.2287 75.2262 40.3711 74.6956 40.1312 74.2803C39.8905 73.8633 39.3591 73.7226 38.9455 73.9625L37.0435 75.0609C36.6282 75.3008 36.4858 75.8314 36.7256 76.2467C36.9661 76.6631 37.4983 76.8032 37.9114 76.5646Z" fill="white"/>
<path d="M45.0066 60.302C45.1685 60.5766 45.4576 60.7283 45.7542 60.7283C45.9042 60.7283 46.0568 60.6893 46.195 60.6071L48.5796 59.1961C48.5958 59.188 48.6151 59.1914 48.6309 59.1823L49.6585 58.589L49.6743 60.6605C49.6777 61.1377 50.0659 61.5217 50.5422 61.5217H50.549C51.0279 61.5183 51.4135 61.1267 51.4101 60.6469L51.3868 57.5912L53.1548 56.5705L53.1706 58.6416C53.174 59.1188 53.5621 59.5027 54.0385 59.5027H54.0453C54.5242 59.4993 54.9098 59.1077 54.9064 58.628L54.8831 55.5726L56.416 54.6876C58.9173 53.2409 60.961 49.8125 60.9539 46.8127C60.9494 45.1313 60.2848 43.654 58.6712 43.1769C60.0087 41.5071 60.9341 39.411 60.9268 37.3393C60.918 34.0677 58.3535 32.5944 55.4946 34.2473L54.895 34.5935L54.8793 32.5453C54.8759 32.0682 54.4877 31.6842 54.0113 31.6842H54.0046C53.5257 31.6876 53.1401 32.0792 53.1434 32.5589L53.1666 35.5912L51.3987 36.6118L51.383 34.5643C51.3796 34.0871 50.9914 33.7031 50.5151 33.7031H50.5083C50.0294 33.7065 49.6438 34.0981 49.6472 34.5779L49.6704 37.6097C49.4967 37.7099 46.4006 39.5234 45.3109 40.1617C44.899 40.4058 44.7625 40.9381 45.0066 41.3509C45.2517 41.7654 45.7853 41.8979 46.1958 41.6552L47.2791 41.0138L47.3019 48.9588L47.3275 57.9209L45.3118 59.1137C44.899 59.3578 44.7625 59.8901 45.0066 60.302ZM59.2181 46.8178C59.2234 49.1799 57.5098 52.0491 55.548 53.184L49.0606 56.9294L49.0394 49.4565L56.3888 45.2133C58.0708 44.2436 59.2127 44.8823 59.2181 46.8178ZM56.3626 35.7509C60.6063 33.2956 59.8481 41.2147 55.5209 43.7097L49.0335 47.4552L49.0123 39.9939C49.1883 39.8923 56.5386 35.6493 56.3626 35.7509Z" fill="white"/>
</svg>
