<svg width="93" height="92" viewBox="0 0 93 92" fill="none" xmlns="http://www.w3.org/2000/svg">
<path d="M74.7282 21.6412C57.9301 12.5306 32.5137 13.2621 17.157 22.1861C9.26124 26.774 4.90658 32.9197 4.882 39.4983C4.88189 39.5036 4.87892 39.508 4.87892 39.5133L4.84333 52.2779C4.82383 58.9526 9.2516 65.1916 17.3104 69.844C25.7983 74.7444 36.9821 76.8578 46.6249 76.8578C58.0596 76.8578 68.5118 74.1087 75.8402 69.85C83.7456 65.2569 88.109 59.1001 88.1276 52.5152C88.1321 49.2951 88.1829 39.9249 88.1395 39.6267C88.1019 31.5838 81.7804 25.5109 74.7282 21.6412ZM18.0283 23.6864C33.1406 14.9108 58.0189 14.5523 73.8967 23.1651C80.4562 26.7632 86.5678 32.5115 86.407 39.987C86.2603 46.7642 80.8346 52.1968 75.0045 55.5851C58.2778 65.3057 29.9667 64.6532 14.7979 53.298C10.1808 49.8426 6.61239 45.1372 6.617 39.5456C6.62081 33.5939 10.6715 27.9619 18.0283 23.6864ZM39.1111 63.6855V74.735C35.2055 74.3077 31.3884 73.5453 27.7967 72.4459V61.4641C31.4006 62.5285 35.2126 63.2701 39.1111 63.6855ZM65.1929 61.5445V72.5166C61.6092 73.6008 57.797 74.3423 53.8972 74.7555V63.7113C57.7905 63.3134 61.5944 62.59 65.1929 61.5445ZM6.57917 52.283L6.59528 46.5906C6.61255 46.6249 6.63501 46.6581 6.65249 46.6924C8.14364 49.6124 10.4492 52.1158 13.0293 54.1607V64.6893C8.82696 61.0126 6.56604 56.738 6.57917 52.283ZM14.7651 66.0653V55.4436C17.2005 57.1269 19.303 58.2045 21.9903 59.3579C23.3067 59.9231 24.663 60.4386 26.0609 60.9019V71.8534C23.2568 70.8877 20.5926 69.7343 18.1783 68.3404C16.9343 67.6224 15.8196 66.8543 14.7651 66.0653ZM40.8469 74.8799V63.8303C44.603 64.1365 48.4058 64.1458 52.1613 63.8561V74.9001C48.4075 75.2006 44.6023 75.1938 40.8469 74.8799ZM74.9681 68.3497C72.5139 69.776 69.7954 70.9514 66.9287 71.9288V61.0016C70.1318 59.9559 73.1585 58.6657 75.8775 57.0854C76.6618 56.6297 77.3981 56.1534 78.1118 55.6681C78.1534 55.6396 78.2009 55.614 78.2423 55.5854V66.162C77.2281 66.9201 76.158 67.6583 74.9681 68.3497ZM86.3918 52.5101C86.3792 56.9194 84.1332 61.151 79.9781 64.7871V54.2989C82.5757 52.25 84.8988 49.7694 86.4079 46.8093L86.3918 52.5101Z" fill="white"/>
<path d="M28.4222 50.6463C38.4605 56.442 54.7495 56.4513 64.7326 50.6488C75.055 44.652 75.054 34.6397 64.6156 28.6134C54.5752 22.8176 38.2863 22.8193 28.3035 28.6201C17.9898 34.6145 17.9905 44.6232 28.4222 50.6463ZM29.1757 30.1204C38.7241 24.5732 54.2315 24.6229 63.7477 30.117C72.9898 35.4517 73.0546 43.8045 63.8613 49.1486C54.3607 54.6672 38.8534 54.6647 29.2901 49.1427C20.0363 43.7995 20.0086 35.4491 29.1757 30.1204Z" fill="white"/>
<path d="M33.367 40.199L45.5213 47.2161C47.0165 48.079 49.3619 48.0801 50.8611 47.2093L58.7538 42.6222C60.5632 41.5717 60.5635 39.5829 58.7461 38.5309L46.5918 31.5146C46.1756 31.2748 45.6467 31.4172 45.406 31.8325C45.1662 32.2478 45.3086 32.7784 45.7239 33.0183L57.8782 40.0345C58.2435 40.2456 58.3732 40.46 58.374 40.5787C58.374 40.6974 58.2452 40.9109 57.8816 41.122L49.9881 45.7091C49.0311 46.2651 47.3495 46.2668 46.3892 45.7125L34.2349 38.6954C33.8204 38.4555 33.289 38.5979 33.0491 39.0132C32.8093 39.4285 32.9517 39.9591 33.367 40.199Z" fill="white"/>
<path d="M36.9777 34.4727L43.5465 38.2902C43.9621 38.5314 44.4927 38.3903 44.7331 37.9766C44.9747 37.5621 44.8331 37.0307 44.4195 36.79L37.8507 32.9725C37.4354 32.7318 36.9057 32.8716 36.6641 33.2861C36.4226 33.7006 36.5641 34.232 36.9777 34.4727Z" fill="white"/>
</svg>
