<svg width="93" height="92" viewBox="0 0 93 92" fill="none" xmlns="http://www.w3.org/2000/svg">
<path d="M80.4059 17.9417C80.1245 17.712 79.7329 17.679 79.4193 17.8629L70.6717 22.9464L70.7468 12.8427C70.6742 12.6685 70.6749 12.2943 70.3146 12.0849C70.2933 12.0725 70.2061 12.0358 70.2061 12.0358C55.9667 6.2578 36.9062 6.26289 22.7855 12.0442C22.4528 12.1799 22.2872 12.4984 22.2465 12.8469L22.1713 22.7947L13.6265 17.8612C13.3129 17.6815 12.9214 17.7137 12.64 17.9434C7.67503 22.0421 5.04445 26.9021 5.02072 32.0033C4.7164 74.7977 4.86713 53.6018 4.82355 59.7301C4.80829 64.9266 7.49513 69.885 12.5925 74.0703C17.1586 77.808 23.0427 80.4004 28.8 81.9842C29.2661 82.1114 29.7408 81.8401 29.8679 81.3782C29.9951 80.9163 29.7238 80.4382 29.2611 80.3111C22.3761 78.4128 17.2021 75.5977 13.6927 72.7286C9.0123 68.8857 6.54584 64.3926 6.5594 59.7386L6.70179 39.044C6.74883 39.1383 6.81399 39.2291 6.86294 39.3231C12.2831 49.7257 26.8267 54.7533 38.5989 56.1155C49.839 57.4187 60.816 55.9071 69.1942 52.7313C68.9501 88.1294 69.0343 75.9202 69.0161 78.5617C60.1622 82.0588 49.064 83.3446 38.459 82.0902C37.9912 82.0266 37.5504 82.375 37.4962 82.8504C37.4385 83.3259 37.7793 83.7574 38.2556 83.8141C40.9797 84.1362 43.7378 84.2947 46.4839 84.2947C54.9275 84.2947 63.2644 82.7962 70.2095 79.9534C70.5332 79.8203 70.7468 79.5059 70.7485 79.1558L70.8174 69.1993C75.4766 71.888 72.1701 69.9771 79.4295 74.1678C79.7618 74.3245 80.1245 74.2424 80.355 74.0534C85.332 69.946 87.9697 65.0741 87.985 59.9674L88.1765 32.3854C88.1765 32.3455 88.1765 32.3066 88.1765 32.2667C88.1765 32.261 88.1734 32.2563 88.1733 32.2506C88.1733 32.2336 88.1765 32.2168 88.1765 32.1998C88.168 27.0312 85.4812 22.1008 80.4059 17.9417ZM79.7651 19.6691C84.1285 23.4027 86.4339 27.7254 86.4407 32.2032C86.4449 34.5473 85.8429 36.3896 85.1209 37.9544C84.1249 40.1117 82.5592 42.3097 79.8917 44.6139L68.0072 37.7565C70.3696 34.5334 70.7628 30.3501 67.9437 26.5476C68.7463 26.0805 80.4864 19.2494 79.7651 19.6691ZM62.1894 45.8989L65.7904 43.8061L65.7591 47.9599L62.1894 45.8989ZM66.1936 25.5488C65.7078 25.8282 65.6279 26.4776 65.98 26.8786C68.8288 30.1291 69.0247 34.0018 66.0394 37.4395C65.9227 37.5734 65.8355 37.8624 65.8342 37.9989L65.802 41.7919L60.4572 44.8988C60.2813 44.7969 57.1531 42.9856 57.3516 43.1005L57.4991 21.0386L68.9991 14.3557L68.9279 23.9598L66.1936 25.5488ZM37.1454 43.0275L37.22 31.8457L37.2916 21.2099C43.0453 19.6504 49.7715 19.5977 55.7615 21.2064L55.6909 31.8589L55.6153 43.1709C55.3778 43.2327 55.1403 43.2939 54.8998 43.3506C48.9992 44.7443 42.5273 44.5284 37.1454 43.0275ZM67.872 12.9973L56.5115 19.5936C50.1124 17.8142 42.6128 17.8957 36.5509 19.5948C36.3753 19.4936 24.367 12.57 25.1164 13.002C38.089 8.24274 54.7998 8.24115 67.872 12.9973ZM23.9704 14.3488C24.146 14.4501 36.3333 21.4811 35.5568 21.0331L35.4126 42.452C35.1121 42.3472 34.8055 42.2482 34.5145 42.1352C30.4346 40.5545 25.9395 37.6761 25.1245 33.3423C24.7208 31.1752 25.3749 28.973 27.1004 26.9486C27.1205 26.925 27.1335 26.9004 27.154 26.8769C27.1537 26.8772 27.1542 26.8767 27.154 26.8769C27.1564 26.8742 27.1583 26.8704 27.1607 26.8676C27.3303 26.6718 27.4032 26.4108 27.3608 26.1556C27.3184 25.8997 27.1624 25.6768 26.9387 25.5471L23.8994 23.7923L23.9704 14.3488ZM6.75254 32.0639C6.75615 27.6318 9.0104 23.3566 13.2858 19.6691C13.4613 19.7706 25.9669 27.0036 25.1909 26.5548C16.2338 38.7983 38.2321 49.8908 56.6583 44.7101C67.1415 50.7622 66.6981 50.5124 68.0418 51.289C59.0052 54.603 48.4356 55.5358 38.6948 54.3869C25.2008 52.7982 6.73793 45.587 6.75254 32.0639ZM70.9401 51.4585C70.9409 51.3126 70.9047 51.1716 70.8384 51.0464C70.8351 51.04 70.8281 51.0368 70.8246 51.0305C70.8181 51.019 70.8051 51.0125 70.798 51.0013C70.7347 50.8997 70.661 50.803 70.5587 50.7338C70.549 50.7274 70.5366 50.7283 70.5269 50.7223C70.5181 50.7168 70.5151 50.706 70.5061 50.7008L67.487 48.9576L67.5581 39.5088L79.1225 46.1857L78.9449 71.8824L70.8367 67.2066C70.8379 67.0255 70.9469 50.4194 70.9401 51.4585ZM86.3915 39.3669L86.2491 59.9589C86.2372 64.0287 84.3232 67.9664 80.6889 71.4376L80.8642 46.089C83.2938 44.0268 85.184 41.6441 86.3112 39.5034C86.3355 39.4574 86.3678 39.413 86.3915 39.3669Z" fill="white"/>
<path d="M35.001 83.3497C35.4987 83.4269 35.9247 83.0926 36.0011 82.6377C36.0808 82.1656 35.7621 81.7172 35.2892 81.6376C34.3331 81.4765 33.3855 81.2951 32.4464 81.0917C31.9751 80.9892 31.5174 81.2901 31.4157 81.7562C31.314 82.2249 31.6107 82.6869 32.0802 82.7886C33.0431 82.9971 34.0178 83.1836 35.001 83.3497Z" fill="white"/>
</svg>
