<svg width="93" height="92" viewBox="0 0 93 92" fill="none" xmlns="http://www.w3.org/2000/svg">
<path d="M77.3657 35.4682L79.8813 36.9303C80.299 37.1726 80.829 37.0279 81.0679 36.6167C81.3087 36.2022 81.168 35.6708 80.7526 35.4301L78.237 33.968C77.8234 33.7273 77.2911 33.8654 77.0504 34.2816C76.8097 34.6961 76.9504 35.2275 77.3657 35.4682Z" fill="white"/>
<path d="M88.4723 40.4147C88.4723 40.1053 88.3079 39.8189 88.0401 39.6637L83.0681 36.7743C82.6545 36.5345 82.1222 36.6718 81.8815 37.0879C81.6408 37.5024 81.7815 38.0338 82.1968 38.2746L85.8719 40.4113L53.9147 58.8581L12.2238 34.6384L44.1811 16.1908L74.8788 34.0239C75.2907 34.2613 75.823 34.1265 76.0654 33.7095C76.3061 33.295 76.1654 32.7644 75.7501 32.5237L44.6184 14.438C44.3523 14.282 44.0183 14.2812 43.7488 14.4363C43.5739 14.5372 9.87594 33.9857 10.054 33.8832C9.78446 34.0383 9.62003 34.3265 9.62003 34.6367L9.62099 35.0323L4.92104 37.7635C4.6532 37.9186 4.48877 38.2051 4.48877 38.5144C4.48877 38.8246 4.6549 39.1103 4.92273 39.2654L9.63773 41.987L9.66072 51.5808C9.66072 51.8893 9.82515 52.1741 10.093 52.33C19.3406 57.7037 7.39489 50.762 53.518 77.5642C53.7963 77.7228 54.1251 77.7135 54.3843 77.5626L67.3044 70.1034L70.7833 72.1109C71.0525 72.2677 71.3867 72.2659 71.6529 72.1109L81.3442 66.4779C81.612 66.3219 81.7764 66.0354 81.7764 65.7252C81.7764 65.4167 81.6103 65.1302 81.3425 64.976L78.7634 63.4877L88.0774 58.1105C88.3469 57.9563 88.5113 57.6681 88.5113 57.3579C88.5073 55.6254 88.5261 63.6337 88.4723 40.4147ZM7.08915 38.511L9.62575 37.0363L9.63285 39.9795L7.08915 38.511ZM11.3593 36.1454L53.0413 60.3683L53.0786 75.301L11.3949 51.079L11.3593 36.1454ZM76.1587 62.9852C75.9827 63.0868 67.6843 67.8802 68.2067 67.5785L68.2304 59.3039L76.1824 54.6812L76.1587 62.9852ZM79.176 65.7303L71.2156 70.3564L69.0666 69.1159C69.2423 69.0138 77.2032 64.3879 77.0274 64.49L79.176 65.7303ZM77.8973 61.984L77.9233 53.1742C77.925 52.8623 77.7589 52.5741 77.4894 52.4199C77.2215 52.2639 76.8876 52.2639 76.6197 52.4199L66.9285 58.0529C66.6606 58.2089 66.4979 58.4936 66.4962 58.8005L66.4673 68.5826L54.8148 75.3097L54.7775 60.3685L86.7382 41.9175L86.7738 56.8595L77.8973 61.984Z" fill="white"/>
<path d="M55.2098 25.6727C49.7578 24.2913 42.8729 24.7616 38.0395 27.5721C34.9798 29.3499 33.2926 31.7625 33.2791 34.3683C33.279 34.3733 33.276 34.3774 33.276 34.3825L33.2625 39.0501C33.254 41.6962 34.9712 44.1474 38.0971 45.9511C44.1582 49.4518 54.0148 49.465 60.0512 45.9545C63.1177 44.1712 64.8112 41.7513 64.8197 39.1399L64.8332 34.4731C64.8332 34.4706 64.8318 34.4675 64.8318 34.465C64.8318 34.4588 64.8332 34.453 64.8332 34.4469C64.8273 29.8255 59.7193 26.7652 55.2098 25.6727ZM38.9108 29.0732C43.3421 26.4974 49.7533 26.0819 54.7911 27.3577C58.3945 28.2308 63.0911 30.7367 63.0974 34.4494C63.0993 36.7544 61.2309 38.6004 59.1934 39.7849C53.6367 43.0108 44.5692 43.01 38.9786 39.7807C36.9253 38.5953 35.0102 36.7368 35.0126 34.3961C35.0133 32.4235 36.3971 30.5332 38.9108 29.0732ZM63.0838 38.8475V39.1348C63.0771 41.1038 61.6904 42.993 59.1799 44.4526C53.6265 47.6819 44.5591 47.6768 38.965 44.4492C36.4002 42.9685 34.9916 41.0529 34.9983 39.0552V38.7704C35.6746 39.566 36.8259 40.5427 38.1107 41.2843C44.1844 44.7916 54.0316 44.7933 60.0647 41.2852C61.2443 40.6 62.4339 39.6079 63.0838 38.8475Z" fill="white"/>
<path d="M42.7571 32.0126L43.5575 32.372C43.4089 32.6516 43.3122 32.9472 43.3115 33.2569C43.3115 34.0095 43.7708 34.7079 44.5727 35.1741C45.9491 35.9742 48.1105 35.9751 49.4937 35.1758C50.3413 34.6859 51.8263 34.6867 52.6637 35.1741C52.9841 35.3597 53.0688 35.5292 53.0688 35.5937C53.0671 35.6581 52.9824 35.8293 52.6586 36.0158C51.8093 36.5057 50.3227 36.509 49.4768 36.0175C49.0648 35.7767 48.5309 35.914 48.2902 36.3319C48.0494 36.7464 48.1901 37.277 48.6055 37.5177C49.2937 37.9177 50.1785 38.1178 51.0651 38.1178C51.7646 38.1178 52.4372 37.9567 53.0412 37.7074L54.6385 38.4254C54.7538 38.4771 54.8759 38.5017 54.9945 38.5017C55.3251 38.5017 55.6421 38.311 55.7862 37.9898C55.9828 37.5524 55.7879 37.0388 55.3505 36.8421L54.5556 36.4849C54.7057 36.2044 54.803 35.9075 54.803 35.5962C54.8047 34.8435 54.3436 34.1426 53.5367 33.6739C52.1636 32.8755 50.0057 32.8755 48.6258 33.6722C47.7765 34.1629 46.2899 34.1646 45.444 33.6739C45.1304 33.4908 45.0473 33.323 45.0473 33.2594C45.0473 33.1942 45.1338 33.0204 45.4609 32.8322C46.3085 32.3432 47.7917 32.3423 48.6326 32.8305C49.0445 33.0687 49.5768 32.9323 49.8192 32.5161C50.0599 32.1016 49.9192 31.571 49.5039 31.3303C48.2723 30.6147 46.433 30.5754 45.0646 31.1459L43.4691 30.4293C43.0318 30.2335 42.5181 30.4285 42.3215 30.8658C42.1248 31.3023 42.3198 31.816 42.7571 32.0126Z" fill="white"/>
</svg>
