<svg width="93" height="92" viewBox="0 0 93 92" fill="none" xmlns="http://www.w3.org/2000/svg">
<path d="M11.0641 39.7919C11.065 39.7919 11.0658 39.7919 11.0667 39.7919C11.5456 39.7902 11.9338 39.4011 11.9321 38.9214L11.9127 31.7389L18.2613 35.3343L18.3822 83.7907C18.3822 83.7937 18.383 83.796 18.383 83.799C18.3856 83.9677 18.3932 84.1332 18.4076 84.2934L12.8415 81.0573C12.3236 80.753 12.038 80.0546 12.038 79.0875L11.9541 47.3693C11.9524 46.8912 11.5642 46.5039 11.0862 46.5039C11.0853 46.5039 11.0845 46.5039 11.0836 46.5039C10.6048 46.5056 10.2174 46.8946 10.2183 47.3744L10.3022 79.09C10.3022 80.6962 10.8921 81.926 11.966 82.5558L20.0477 87.2548C20.0485 87.2557 20.0494 87.2557 20.0502 87.2565C20.0549 87.2591 20.0602 87.2579 20.0648 87.2604C20.0654 87.2607 20.0658 87.2613 20.0663 87.2616C21.2786 87.9575 22.7029 87.667 23.9194 86.9675L52.2073 70.6391C53.9956 71.2696 55.3667 71.9178 57.1599 72.3907C57.7049 72.5272 58.2677 72.484 58.7347 72.2763C58.9068 72.2026 59.061 72.1068 59.1924 71.9924C61.6538 73.2129 67.7437 76.0303 71.5078 76.0303C72.5096 76.0303 73.347 75.8302 73.9073 75.348C74.4311 74.897 74.7023 74.2859 74.7201 73.5231C76.1737 74.1147 78.33 74.7301 79.7505 73.9469C80.2532 73.6689 80.8498 73.1163 81.0507 72.0331C81.7457 71.683 82.5679 71.0066 82.7764 69.9472C83.057 68.5139 82.1856 66.9221 80.1141 65.0981C80.4811 64.5921 80.8363 63.8581 80.7761 62.9504C80.6838 61.5515 79.6344 60.2409 77.679 59.0465L77.6858 56.6308C77.6858 56.6284 77.6844 56.6256 77.6844 56.6232C77.6844 56.6175 77.6858 56.6119 77.6858 56.6062C77.6824 54.1881 76.1127 51.9521 73.2657 50.3087C73.2564 50.3036 73.247 50.2985 73.2377 50.2934C71.7858 49.5247 70.3313 48.95 68.9142 48.5855C66.7511 48.0378 64.4078 47.8391 62.0678 47.9563C62.0376 47.9275 62.0198 47.9096 61.9827 47.8744C61.1344 47.0956 59.7813 45.9724 58.0968 44.9003L58.0117 12.9108C58.0117 11.3172 57.4305 10.1043 56.383 9.47618C53.8119 7.9813 47.9377 4.56597 48.262 4.75451C47.2 4.11712 45.7871 4.21883 44.3818 5.02997C36.9547 9.32242 22.1012 17.9084 14.6748 22.202C12.1219 23.7404 10.1547 27.1959 10.1725 30.1447L10.1962 38.9265C10.1979 39.4045 10.5861 39.7919 11.0641 39.7919ZM50.6861 60.7721L50.6862 60.7408C50.6926 60.748 50.702 60.7543 50.7084 60.7615C51.6821 61.8404 53.3389 63.0512 55.5949 63.9114C57.0624 64.4709 58.6767 64.8395 60.3374 65.0499C64.8846 65.6263 69.8172 64.9102 73.3309 62.8665C74.2024 62.3599 75.2674 61.5463 75.9304 60.8157C75.9326 60.8132 75.9359 60.8111 75.9381 60.8085C75.8393 60.9821 76.3786 63.8963 71.1053 66.2262C68.9918 67.16 66.1622 67.7887 63.0713 67.7543C60.5943 67.7228 58.5446 67.3342 56.626 66.6538C53.9046 65.7389 50.6861 63.6416 50.6861 60.7721ZM72.7741 74.0325C71.4609 75.1609 65.0598 73.0008 59.6924 70.2986C59.6745 69.92 59.6516 69.5437 59.5885 69.1679C60.8198 69.3681 62.0744 69.4805 63.3349 69.4798C63.3422 69.4798 63.3493 69.481 63.3566 69.481C63.3868 69.481 63.4166 69.4761 63.4468 69.476C65.1991 69.4671 67.1928 69.2125 68.3332 68.9584C68.5068 69.0731 75.0253 72.0951 72.7741 74.0325ZM78.9106 72.4272C77.9511 72.9576 75.5509 72.0753 74.269 71.4042C73.9078 70.6446 72.9454 69.2854 70.9132 68.2077C70.9588 68.1907 71.0041 68.1736 71.0494 68.1562C71.2234 68.0903 72.9478 67.3285 73.8037 66.7792L77.7706 68.6826C79.3022 69.5986 79.3748 71.2224 79.3781 71.3989C79.3366 72.1885 79.0275 72.3624 78.9106 72.4272ZM81.0736 69.6073C81.0437 69.7662 80.963 69.9018 80.8648 70.0213C80.5796 69.1165 79.966 67.9745 78.5927 67.1552L75.3533 65.598C75.588 65.3805 75.8899 65.0644 76.0303 64.9029C76.0649 64.8621 76.0946 64.8222 76.1275 64.7814C76.315 64.9465 81.5899 66.8635 81.0736 69.6073ZM79.0436 63.0538C79.0765 63.4902 78.8782 63.8567 78.6823 64.1131C78.6804 64.1121 78.6794 64.1101 78.6775 64.109C78.2805 63.8857 77.7302 63.5906 77.1098 63.2641C77.479 62.4745 77.638 61.7962 77.6723 61.1332C78.5215 61.7943 78.9987 62.4554 79.0436 63.0538ZM68.4845 50.268C69.7635 50.596 71.084 51.1181 72.4113 51.8199C74.6905 53.1396 75.9474 54.8399 75.95 56.6088C75.9536 58.6721 74.2768 60.309 72.4579 61.3662C60.6512 68.2267 43.2951 58.1453 54.1849 51.8131C58.1391 49.5168 63.9156 49.1093 68.4845 50.268ZM53.3051 50.3146C50.9641 51.6785 48.9751 53.8089 48.9629 56.5395C48.9629 56.5424 48.9613 56.5448 48.9613 56.5477V56.5612C48.9613 56.5647 48.9604 56.568 48.9604 56.5715C48.9604 56.5745 48.9611 56.5775 48.9611 56.5806L48.9494 60.7721C48.9391 64.4388 52.4081 66.974 55.8945 68.2311C56.07 68.2921 56.6151 68.5352 57.7524 68.8199C57.9034 69.416 57.9791 70.0561 57.9857 70.689C57.8696 70.7263 57.7299 70.7427 57.5905 70.7091C56.6905 70.4715 51.1555 68.4334 50.9819 68.3647C49.9216 68.007 48.9884 67.3383 48.2789 66.4297C48.1458 66.2549 45.0174 62.1479 45.2155 62.4079C45.2124 62.4035 45.2122 62.3979 45.209 62.3935L43.7384 60.3695C43.3867 59.8745 43.2146 59.2659 43.2553 58.6591C43.3689 56.7209 43.6368 55.5361 42.462 53.6032C41.6868 52.3787 40.3207 51.2172 39.1496 50.446C39.7651 46.9905 41.9764 43.1447 44.8457 40.8697C50.8442 43.3665 52.2572 44.0311 52.6542 44.1824C55.1579 45.0055 57.6898 46.5704 59.6603 48.1702C57.7601 48.4336 55.2452 49.1885 53.3051 50.3146ZM46.614 39.7262C47.2823 39.3854 47.9924 39.1567 48.4404 39.0802C49.1166 38.9639 50.0855 39.0179 50.7248 39.3819C51.7561 39.9623 52.2114 41.0174 52.4265 42.1876C50.4528 41.3452 47.4882 40.0917 46.614 39.7262ZM40.9872 54.5186C41.4322 55.2516 41.6793 56.0349 41.6273 56.9192C39.7293 56.5367 38.9646 54.4337 38.9536 52.4383C39.6475 52.964 40.5137 53.7707 40.9872 54.5186ZM37.4875 54.6898L32.1783 51.6055C31.0213 50.935 30.3805 49.4543 30.3738 47.4371C30.3636 44.6646 31.5697 41.3777 33.6098 38.6281C35.492 35.975 39.4902 32.8457 42.1763 34.4123L47.4797 37.4941C43.5021 38.588 38.7851 43.6693 37.5399 49.7425C37.2335 51.1967 36.9978 52.7858 37.4875 54.6898ZM43.0502 32.9129C39.4321 30.7975 34.6311 34.1872 32.2054 37.6094C29.9601 40.6327 28.6269 44.3095 28.6379 47.4439C28.6472 50.1027 29.5948 52.114 31.307 53.1066L39.8853 58.0903C39.9029 58.1005 39.9231 58.0973 39.9411 58.1061C40.4252 58.3788 40.9541 58.5657 41.5251 58.6522C41.5164 58.8671 41.5157 59.0823 41.5382 59.2949C41.6177 60.0417 41.8875 60.7626 42.3281 61.3823C42.4546 61.5568 43.3631 62.8092 43.2366 62.6348L24.5746 73.4146L24.4593 33.0782L51.8363 17.2758L51.8947 38.0645C51.6299 37.8848 51.0274 37.5557 43.0502 32.9129ZM54.4101 42.9881C54.366 42.9702 54.3233 42.9447 54.279 42.9271C54.2114 41.7928 53.9116 40.8627 53.6369 40.2506L53.5679 15.7722C53.567 15.4629 53.4009 15.1772 53.133 15.0221C52.8644 14.867 52.533 14.8696 52.266 15.023L23.1558 31.8263C22.8862 31.9822 22.7209 32.2696 22.7218 32.5806L22.843 74.9182C22.8443 75.3905 23.2266 75.7836 23.7109 75.7836C23.8609 75.7836 24.011 75.7446 24.1449 75.6675L44.261 64.048C44.397 64.2251 47.0804 67.7189 46.9118 67.4993C47.7658 68.5936 48.9903 69.4552 50.0589 69.8751L23.0532 85.463C21.3382 86.451 20.144 85.8371 20.1189 83.7873L20.007 34.8395C20.007 34.8213 20.0031 34.8036 20.0017 34.7857C20.0336 32.3774 21.7808 29.4698 23.7626 28.3309L53.3619 11.2478C54.9338 10.3323 56.2759 10.7561 56.2759 12.9133L56.3581 43.8894C55.7382 43.5632 55.0883 43.2609 54.4101 42.9881ZM45.2497 6.53358C46.093 6.04792 46.8652 5.94027 47.3797 6.24964L52.9669 9.4908C52.805 9.56623 52.6431 9.65099 52.4796 9.74507L23.3266 26.5711L16.9688 22.8638L45.2497 6.53358ZM15.2889 23.8946L21.7507 27.6624C20.207 28.9907 18.8713 31.0771 18.4135 33.4253L11.939 29.7585C12.0831 27.6256 13.5152 25.1267 15.2889 23.8946Z" fill="white"/>
<path d="M11.0811 45.308C11.56 45.3063 11.9482 44.9172 11.9465 44.4375L11.9397 41.8888C11.938 41.4108 11.5498 41.0234 11.0718 41.0234H11.0692C10.5904 41.0251 10.2022 41.4142 10.2039 41.8939L10.2106 44.4426C10.2123 44.9206 10.6005 45.308 11.0786 45.308H11.0811Z" fill="white"/>
<path d="M38.6436 74.9979C40.0176 74.2046 41.0889 72.3467 41.0838 70.7685C41.0785 68.824 39.4539 67.8893 37.763 68.8682C36.3857 69.6632 35.3093 71.5228 35.3135 73.1027C35.3189 75.0499 36.9608 75.9708 38.6436 74.9979ZM38.6309 70.3718C39.1919 70.048 39.3466 70.2144 39.348 70.7736C39.3514 71.7381 38.6165 73.0095 37.7757 73.4943C37.2654 73.7887 37.051 73.706 37.0493 73.0976C37.0468 72.1331 37.7859 70.8592 38.6309 70.3718Z" fill="white"/>
<path d="M60.2571 52.0378C59.8443 51.7979 59.312 51.9361 59.0705 52.3514C58.8289 52.7658 58.9696 53.2973 59.3841 53.538L59.6442 53.6892L59.2028 53.9441L57.9762 53.2312C57.5626 52.9896 57.0303 53.1303 56.7896 53.5448C56.5481 53.9592 56.6888 54.4907 57.1032 54.7314L57.4648 54.9416L56.2395 55.6493C55.8242 55.8892 55.6818 56.4198 55.9217 56.8351C56.1622 57.2515 56.6944 57.3915 57.1075 57.1529L58.0001 56.6374C58.1758 56.7395 64.606 60.4769 64.4303 60.3748L64.3865 60.4C63.9712 60.6399 63.8288 61.1705 64.0687 61.5858C64.3108 62.0039 64.8431 62.1412 65.2544 61.9036L66.5707 61.1442C66.5817 61.1385 66.5947 61.141 66.6055 61.1349L66.9296 60.9479L68.1845 61.6773C68.6001 61.9185 69.1307 61.7774 69.3711 61.3637C69.6127 60.9492 69.472 60.4178 69.0575 60.1771L68.6629 59.9477L69.1046 59.6929L70.4654 60.4839C70.881 60.7251 71.4116 60.584 71.652 60.1703C71.8935 59.7558 71.7528 59.2244 71.3384 58.9837L70.3765 58.4245C70.4886 58.1768 70.5667 57.9198 70.5671 57.6505C70.5679 56.8927 70.1043 56.1892 69.294 55.7188C68.508 55.262 67.4742 55.0932 66.4672 55.1533C66.418 54.4443 65.9752 53.7894 65.2087 53.3439C64.2356 52.7774 62.8796 52.6319 61.6707 52.8594L60.2571 52.0378ZM68.4227 57.219C68.7032 57.3826 68.8312 57.5564 68.8312 57.6488C68.8312 57.7437 68.6998 57.9217 68.4117 58.0878L66.1732 59.3804L63.8245 58.0149L65.2002 57.2207C66.063 56.7232 67.5683 56.724 68.4227 57.219ZM64.3356 54.8441C64.6213 55.0102 64.751 55.1865 64.751 55.2798C64.751 55.3738 64.6196 55.551 64.3322 55.7171L62.0941 57.0094L59.7375 55.64L61.1131 54.8458C61.976 54.3483 63.483 54.3474 64.3356 54.8441Z" fill="white"/>
</svg>
