<svg width="93" height="92" viewBox="0 0 93 92" fill="none" xmlns="http://www.w3.org/2000/svg">
<path d="M23.082 19.0112C22.1785 20.0258 21.2903 21.0861 20.4427 22.1626C20.1477 22.5397 20.2121 23.0856 20.5902 23.3814C20.9595 23.6753 21.5105 23.6153 21.809 23.2356C22.6328 22.1863 23.4974 21.1539 24.3772 20.1673C24.6958 19.8088 24.6653 19.2604 24.3076 18.9417C23.9466 18.6214 23.4007 18.6553 23.082 19.0112Z" fill="white"/>
<path d="M82.2891 48.569C82.1149 48.4688 76.573 45.3032 75.8049 44.9344C76.9546 40.6042 77.5503 36.3945 77.5342 32.4192C77.5155 23.4399 74.4625 16.6279 68.9312 13.2011C68.7111 12.9535 68.6269 12.9611 57.3244 6.445C51.5134 3.07417 43.8411 3.79461 35.711 8.47581C32.3783 10.4032 29.1152 12.9171 26.0096 15.9473C25.6672 16.282 25.6604 16.8321 25.9961 17.1746C26.3317 17.5195 26.8809 17.5238 27.2234 17.1898C30.2238 14.2597 33.3717 11.8331 36.579 9.97857C44.1445 5.6203 51.2032 4.89816 56.4531 7.94607L61.4182 10.8346C56.9803 10.5609 51.9948 11.9534 46.8296 14.9403C30.4916 24.3587 17.2473 47.2917 17.3032 66.0623C17.3249 71.0184 18.316 76.3589 20.9987 80.4661L16.0115 77.5741C10.8311 74.5525 7.9561 68.1719 7.92051 59.6105C7.90016 49.364 11.9228 37.5284 18.9611 27.137C19.229 26.7404 19.1255 26.2005 18.7289 25.9318C18.3322 25.6648 17.7948 25.7673 17.5236 26.164C10.2954 36.8359 6.16262 49.0284 6.18466 59.6156C6.22365 68.8186 9.40378 75.729 15.1385 79.0752L25.4483 85.053C25.4496 85.0538 25.4506 85.0549 25.4519 85.0557C30.8913 88.7908 38.3067 88.1246 44.3818 85.36C47.0833 84.1707 50.4461 82.2367 54.0525 79.2902C54.5607 79.8252 55.1231 80.2956 55.7598 80.667L61.72 84.0573C61.7248 84.0601 61.7304 84.0587 61.7353 84.0613C61.7389 84.0633 61.7418 84.0663 61.7454 84.0683C65.0969 85.9958 69.1257 85.0323 72.5012 83.0843C80.421 78.5116 86.8406 67.376 86.8152 58.2603C86.8016 53.6825 85.1946 50.2413 82.2891 48.569ZM69.2811 44.5827C66.7834 45.277 64.5157 46.6582 62.5039 48.3286C62.4841 48.345 62.4642 48.3612 62.4444 48.3778C62.6517 46.0416 62.7802 43.7165 62.7833 41.4328L75.7491 33.9469C75.6345 37.2779 75.1273 40.7589 74.1845 44.3455C72.6039 43.9902 70.8508 44.1425 69.2811 44.5827ZM26.3746 83.4929C20.9595 79.826 19.2367 73.1327 19.1268 66.6379L32.153 59.1172C32.2664 64.2534 32.8796 68.9962 33.9729 72.938C31.1267 76.1786 28.5793 79.7253 26.3746 83.4929ZM52.3152 76.6325C50.9907 78.6602 49.6113 80.2023 48.2078 81.277V63.3442C49.9614 62.3607 51.7046 61.5527 53.4069 60.9751C51.9045 64.6198 51.2446 68.2072 51.2506 70.9604C51.2597 73.1689 51.7053 75.2181 52.3152 76.6325ZM60.5639 50.0896C58.4897 52.1659 56.08 55.4116 54.3665 58.8792C52.3533 59.4309 50.2899 60.2673 48.2078 61.365V49.848L61.0228 42.4492C60.9851 44.9677 60.8519 47.523 60.5639 50.0896ZM48.2078 47.8433V36.2859C52.1674 33.967 55.9961 30.8491 59.5275 27.0992C60.4843 30.9274 61.0049 35.4907 61.052 40.4277L48.2078 47.8433ZM19.1653 64.611C19.4589 56.4274 22.1958 47.3679 26.9877 38.8141C29.0667 39.8915 31.3609 40.4747 33.8233 40.5545C32.7307 45.9807 32.1395 51.6638 32.1203 57.1314L19.1653 64.611ZM40.2189 22.0144C40.3827 21.8688 40.5494 21.7315 40.7141 21.5887C38.0151 25.9475 35.7302 31.9067 34.1713 38.8443C31.874 38.8106 29.7384 38.3123 27.8256 37.3323C31.1849 31.6187 35.3274 26.3834 40.2189 22.0144ZM46.472 17.3827V35.2637C42.7866 37.3028 39.2421 38.4677 35.9736 38.7515C38.2748 28.8156 42.1938 20.8385 46.472 17.3827ZM48.2078 16.2563C53.6297 13.5289 57.1974 19.3372 58.9718 25.1135C55.6182 28.8021 51.9823 31.8941 48.2078 34.2349V16.2563ZM35.5907 40.5421C38.9983 40.3343 42.6723 39.236 46.472 37.2524V48.8454L33.8812 56.1147C33.9662 50.9614 34.5432 45.6331 35.5907 40.5421ZM60.3119 23.6274C58.9936 19.7512 56.6573 15.2867 52.7575 14.1101C57.5305 12.3191 62.5526 11.7946 67.046 14.1613C65.0176 17.5862 62.7509 20.7636 60.3119 23.6274ZM33.8583 58.1326L46.472 50.8502V62.3461C42.5931 64.6666 38.8792 67.7241 35.39 71.4202C34.4395 67.5803 33.9038 63.0566 33.8583 58.1326ZM46.472 64.4076V82.3747C46.4264 82.4 46.3815 82.4219 46.3482 82.4452C46.3296 82.452 46.3109 82.4588 46.2923 82.4672C41.0244 84.7436 37.5849 78.9052 35.9038 73.3884C39.2286 69.7399 42.779 66.7421 46.472 64.4076ZM75.7762 31.9267L62.7509 39.4468C62.6382 34.214 62.0278 29.5396 60.9008 25.5553C63.6743 22.4094 66.2401 18.8859 68.512 15.0525C73.086 18.1905 75.6545 24.1168 75.7762 31.9267ZM27.8184 84.4345C27.8184 84.4336 27.8167 84.4336 27.8167 84.4328C29.7895 81.05 32.0663 77.8663 34.5714 74.9153C35.8939 78.8153 38.1902 83.2082 42.1423 84.3995C42.1034 84.4138 42.0663 84.4321 42.0272 84.4463C33.1957 87.7351 27.9924 84.4644 27.8184 84.4345ZM56.626 79.1634C53.925 77.5869 53.0135 74.1101 52.9882 70.9571C52.9882 67.9469 53.7742 64.1058 55.7513 59.98C55.7517 59.9793 55.7513 59.9783 55.7517 59.9776C58.6694 53.8568 64.4526 47.1761 70.6792 46.0285C72.2985 45.7305 74.0651 45.8729 75.4881 46.7001L77.0476 47.5884C75.6068 47.7572 73.716 48.3366 71.756 49.4376C63.7614 53.9249 57.1903 65.1696 57.2091 74.3525C57.22 76.743 57.6793 78.6953 58.3127 80.122L56.626 79.1634ZM71.6333 81.5807C68.1785 83.575 64.9747 83.9242 62.6116 82.5639C59.8831 80.994 58.9613 77.533 58.9518 74.3474C58.9262 65.758 65.0048 55.3299 72.4097 51.0524C79.2649 47.0907 85.0538 49.8419 85.0793 58.2654C85.1048 66.8268 79.0717 77.286 71.6333 81.5807Z" fill="white"/>
<path d="M74.3303 65.3723C73.5573 64.9299 72.5606 64.9994 71.5858 65.5596C71.1637 65.8037 70.7823 65.8724 70.5653 65.7486C70.3518 65.6249 70.2229 65.2672 70.2212 64.79C70.2178 63.4085 71.2315 61.6531 72.4351 60.9573C72.8521 60.7174 73.2318 60.6437 73.4471 60.7716C73.6624 60.8945 73.7895 61.2531 73.7912 61.7303C73.7929 62.2091 74.1811 62.5965 74.6592 62.5965C75.1389 62.5956 75.5288 62.2058 75.5271 61.7269C75.5254 60.6064 75.083 59.7096 74.315 59.2672C73.8902 59.022 73.3921 58.948 72.8691 59.0117V57.3762C72.8691 56.8965 72.4809 56.5083 72.0011 56.5083C71.5214 56.5083 71.1332 56.8965 71.1332 57.3762V59.7535C69.6146 60.8696 68.4792 62.9739 68.4854 64.7951C68.4888 65.9148 68.9312 66.8107 69.6991 67.2531C70.4721 67.6964 71.4756 67.6286 72.4538 67.0632C72.8725 66.8217 73.2505 66.7513 73.4641 66.8768C73.6794 67.0005 73.8082 67.3599 73.8099 67.8362C73.8133 69.2153 72.8013 70.9647 71.6028 71.6563C71.179 71.8987 70.7976 71.9699 70.5806 71.8453C70.367 71.7224 70.2399 71.3673 70.2382 70.8952C70.2365 70.4163 69.8483 70.0298 69.3703 70.0298C69.3703 70.0298 69.3686 70.0298 69.3669 70.0298C68.8888 70.0315 68.5006 70.4214 68.5023 70.9003C68.5057 72.0157 68.9482 72.9082 69.7144 73.3498C70.0517 73.543 70.4331 73.6396 70.8366 73.6396C70.9327 73.6396 71.0348 73.6063 71.1332 73.5954V75.2611C71.1332 75.7408 71.5214 76.129 72.0011 76.129C72.4809 76.129 72.8691 75.7408 72.8691 75.2611V72.8851C74.4002 71.7805 75.5488 69.6645 75.5457 67.832C75.5423 66.7115 75.0999 65.8148 74.3303 65.3723Z" fill="white"/>
</svg>
