<svg width="93" height="92" viewBox="0 0 93 92" fill="none" xmlns="http://www.w3.org/2000/svg">
<path d="M73.8205 23.5913C73.835 17.2225 69.3419 9.44256 63.8055 6.24972C60.9348 4.59185 58.1928 4.35283 56.0959 5.57589C43.7949 12.6977 21.6172 25.5404 22.4113 25.0788C22.4067 25.0814 22.4045 25.0861 22.4 25.0888C20.3335 26.301 19.1887 28.7458 19.1794 31.9849C19.1786 32.2959 19.3439 32.5833 19.6134 32.7392L24.0081 35.276C24.2743 35.4286 24.6057 35.4294 24.8752 35.2769C25.143 35.1218 25.3092 34.8361 25.31 34.5268C25.317 31.9161 26.9196 30.9516 29.2453 32.2917C31.8347 33.786 34.0147 37.5653 34.0062 40.5446L33.8952 83.7874C33.8943 84.0985 34.0596 84.3858 34.3291 84.5418L38.7239 87.0786C38.9924 87.2333 39.322 87.2335 39.5909 87.0786C39.8191 86.9471 73.0004 67.7458 73.2772 67.585C73.5442 67.4308 73.7095 67.1451 73.7104 66.8366L73.7748 41.6126C73.7756 41.1328 73.3883 40.7429 72.9094 40.7421C72.9086 40.7421 72.9077 40.7421 72.9069 40.7421C72.4288 40.7421 72.0398 41.1294 72.0389 41.6075L71.9762 66.3331L40.0334 84.8155L40.1393 43.0924C40.1534 36.833 35.7298 28.9732 30.1277 25.7382C29.2395 25.2255 27.9751 24.6912 26.9476 24.4737C26.942 24.4725 26.9361 24.4697 26.9306 24.4685L56.9672 7.07696C58.5056 6.17937 60.6254 6.41839 62.9376 7.75333C67.9943 10.669 72.0974 17.7726 72.0847 23.5896V32.0628C72.0847 32.5426 72.4729 32.9308 72.9526 32.9308C73.4324 32.9308 73.8205 32.5426 73.8205 32.0628V23.5913ZM30.1133 30.7881C26.9283 28.9492 24.327 30.3388 23.7208 33.1062L20.9272 31.4933C21.1578 26.4325 24.6857 24.605 29.2572 27.2418C33.2337 29.535 36.5871 34.4203 37.8459 39.2352C38.1865 40.5402 38.4043 41.8416 38.4009 43.0823L38.2941 84.8257L35.6327 83.2899L35.7421 40.5497C35.7522 36.9034 33.2798 32.6155 30.1133 30.7881Z" fill="white"/>
<path d="M43.3329 30.9906C43.5775 31.4129 44.1137 31.5432 44.5187 31.3068L67.1593 18.1972C67.5746 17.9574 67.7162 17.4259 67.4754 17.0115C67.2339 16.5961 66.7024 16.4512 66.2897 16.6953L43.649 29.8049C43.2337 30.0447 43.0922 30.5762 43.3329 30.9906Z" fill="white"/>
<path d="M67.4754 25.9602C67.2339 25.5449 66.7024 25.4017 66.2897 25.6441L43.649 38.7528C43.2337 38.9927 43.0922 39.5241 43.3329 39.9386C43.5775 40.3609 44.1137 40.4911 44.5187 40.2547L67.1593 27.146C67.5746 26.9061 67.7162 26.3747 67.4754 25.9602Z" fill="white"/>
<path d="M60.5549 11.7666L37.9152 24.8754C37.4998 25.1152 37.3583 25.6467 37.599 26.0611C37.8436 26.4834 38.3798 26.6137 38.7848 26.3773L61.4246 13.2686C61.8399 13.0287 61.9814 12.4973 61.7407 12.0828C61.5 11.6666 60.9669 11.5234 60.5549 11.7666Z" fill="white"/>
<path d="M48.255 45.1546C48.0677 44.9029 47.7617 44.774 47.4455 44.813C47.1336 44.8545 46.8683 45.0614 46.7522 45.3538L44.5705 50.858C44.5299 50.9605 44.5095 51.0699 44.5095 51.1801L44.5705 73.8732C44.5714 74.1826 44.7375 74.4682 45.0054 74.6225C45.2706 74.777 45.603 74.7777 45.8724 74.6225L50.2655 72.0865C50.535 71.9306 50.7003 71.6432 50.6994 71.3322L50.6384 48.639C50.6375 48.4534 50.5774 48.272 50.4663 48.1228L48.255 45.1546ZM46.3022 72.3696L46.2462 51.3419L47.7931 47.4397L48.9034 48.9306L48.9619 70.8347L46.3022 72.3696Z" fill="white"/>
<path d="M57.0715 48.3687C56.8834 48.1178 56.5791 47.9873 56.2621 48.0271C55.9502 48.0686 55.6849 48.2754 55.5688 48.5678L53.3879 54.0712C53.3472 54.1729 53.3269 54.2822 53.3269 54.3924L53.3557 68.7996C53.3566 69.1099 53.5218 69.3955 53.7905 69.5498C54.0591 69.7044 54.3887 69.7046 54.6576 69.5498L59.0506 67.0138C59.3193 66.8587 59.4854 66.5713 59.4846 66.2603L59.4549 51.8531C59.4549 51.6666 59.3939 51.4852 59.2829 51.3361L57.0715 48.3687ZM55.0882 67.2969L55.0628 54.556L56.6096 50.6537L57.7199 52.1438L57.7479 65.7611L55.0882 67.2969Z" fill="white"/>
<path d="M63.0088 64.5939C63.1588 64.5939 63.3088 64.5549 63.4427 64.4778L67.8358 61.9418C68.1053 61.7859 68.2706 61.4985 68.2697 61.1875L68.2087 38.4943C68.2079 38.3087 68.1477 38.1273 68.0366 37.9781L65.8253 35.0107C65.638 34.7599 65.3329 34.6285 65.0159 34.6692C64.7039 34.7107 64.4387 34.9175 64.3225 35.2099L62.1409 40.7133C62.1002 40.8158 62.0798 40.9252 62.0798 41.0354L62.1409 63.7285C62.1422 64.2053 62.5303 64.5939 63.0088 64.5939ZM65.3634 37.295L66.4737 38.7859L66.5322 60.69L63.8725 62.2249L63.8165 41.1972L65.3634 37.295Z" fill="white"/>
<path d="M72.9255 34.2504H72.9229C72.4449 34.2504 72.0558 34.6378 72.055 35.1158L72.0474 38.19C72.0465 38.6697 72.4339 39.0596 72.9127 39.0605H72.9153C73.3933 39.0605 73.7824 38.6731 73.7832 38.1951L73.7908 35.1209C73.7917 34.6412 73.4043 34.2513 72.9255 34.2504Z" fill="white"/>
</svg>
