<svg width="93" height="92" viewBox="0 0 93 92" fill="none" xmlns="http://www.w3.org/2000/svg">
<path d="M83.8471 33.6724C83.8471 31.7586 82.6148 29.9913 80.3771 28.6945C80.0499 28.505 79.6814 28.3574 79.3253 28.1969L75.758 12.5315L76.9461 11.8336C77.6361 11.403 78.031 10.5842 78.031 9.58664C78.031 7.78977 76.8105 5.68268 75.2628 4.79526C74.3729 4.26806 73.4507 4.20025 72.7319 4.62066L49.754 18.121C49.754 17.9462 49.7536 16.2663 49.754 16.441C49.7523 15.574 49.2081 14.762 48.2605 14.2153C46.5874 13.2499 43.9735 13.2499 42.3105 14.217C41.3884 14.7528 40.8596 15.5421 40.8402 16.387C40.832 16.7413 40.8257 23.5508 40.8323 23.3762C33.8613 27.4741 19.9195 35.6703 12.9487 39.7686C12.2661 40.1858 11.8686 40.9896 11.8653 41.9957C11.862 43.7891 13.074 45.8979 14.6285 46.7964C15.4201 47.2526 16.3408 47.41 17.1331 46.9693C17.142 46.9644 17.1522 46.9668 17.161 46.9616L17.1845 46.9479L13.8041 58.8687C13.3879 59.0516 12.9669 59.2296 12.5858 59.4516C10.3542 60.7441 9.13718 62.5096 9.15414 64.4233C9.15414 64.4252 9.15308 64.4267 9.15308 64.4286C9.15308 64.4306 9.15339 64.4324 9.15339 64.4345C9.15339 64.4359 9.15308 64.4373 9.15308 64.4388C9.15308 64.443 9.15414 64.4471 9.15424 64.4513C9.16674 70.6003 14.1717 75.5998 20.3412 75.5998C26.2742 75.5998 31.1648 70.9694 31.4733 65.0584C31.4733 65.0574 31.4729 65.0565 31.4729 65.0555C31.4736 65.0513 31.476 65.0475 31.4767 65.0431C31.695 62.5228 30.2379 60.7241 28.0423 59.4516C27.7127 59.2605 27.3453 59.1121 26.9896 58.95L23.4216 43.2809L40.8323 33.0449V63.4158C40.1286 63.6465 39.4716 63.9138 38.9219 64.2439C37.3821 65.1373 36.4569 66.3159 36.1732 67.6116C35.7949 67.7825 35.4342 67.961 35.1196 68.1504C32.2804 69.7997 30.7134 72.0428 30.6943 74.4694C30.6939 74.4794 30.6885 74.4878 30.6885 74.4979L30.6715 78.8053C30.663 81.2692 32.2565 83.5492 35.1586 85.2232C40.7715 88.4638 49.8804 88.4655 55.4701 85.2147C58.318 83.5611 59.8877 81.3099 59.8945 78.8791L59.9114 74.5801C59.9114 74.5793 59.9114 74.5784 59.9114 74.5776V74.5725C59.9114 74.572 59.9111 74.5708 59.9111 74.5703C59.9111 74.5619 59.9131 74.5537 59.9131 74.5454C59.9097 72.0874 58.318 69.8159 55.4209 68.1427C55.099 67.963 54.7624 67.8104 54.4271 67.6541C54.1471 66.3408 53.2114 65.1454 51.6458 64.2422C51.0688 63.9108 50.419 63.6446 49.754 63.4198V27.8061L69.5164 16.1978L66.1373 28.1158C65.7198 28.2969 65.2977 28.4741 64.9189 28.6945C62.6873 29.987 61.4703 31.7525 61.4873 33.6671C61.4873 33.669 61.4862 33.6705 61.4862 33.6724C61.4862 33.6744 61.4865 33.6762 61.4865 33.6782C61.4865 33.6797 61.4862 33.6811 61.4862 33.6826C61.4862 33.6868 61.4873 33.6908 61.4874 33.6951C61.4999 39.8441 66.5049 44.8427 72.676 44.8427C78.6091 44.8427 83.4996 40.2132 83.8082 34.3022C83.8083 34.3001 83.8072 34.2984 83.8073 34.2964C83.8082 34.2917 83.8107 34.2874 83.8115 34.2827C83.8302 34.0682 83.8471 33.8707 83.8471 33.6724ZM82.1113 33.6724C82.1113 33.8199 82.096 33.9665 82.0859 34.1106C81.9775 34.7456 81.6193 35.3582 81.0852 35.9255L79.8324 30.4233C81.2862 31.3596 82.1113 32.4971 82.1113 33.6724ZM67.5811 29.392C70.8531 28.2238 74.765 28.3042 77.8262 29.428L79.5751 37.1079C79.5628 37.115 79.5538 37.1234 79.5414 37.1305C75.768 39.3266 69.6162 39.3249 65.8258 37.1288C65.689 37.05 65.5868 36.9571 65.4597 36.874L67.5811 29.392ZM77.3858 27.4938C76.3056 27.1915 75.1703 26.9986 74.0033 26.914V13.5621L74.1886 13.4533L77.3858 27.4938ZM48.0181 67.6681C48.0181 67.841 47.8588 68.1182 47.4096 68.3758C46.267 69.0386 44.3362 69.0378 43.1835 68.3699C42.7987 68.1538 42.5682 67.8851 42.5682 67.6511C42.5682 49.4445 42.5682 36.4877 42.5682 18.799C43.9858 19.495 46.393 19.5978 48.0181 18.7931C48.0181 54.8804 48.0181 30.8253 48.0181 67.6681ZM43.1818 15.7181C44.3208 15.0551 46.2519 15.0608 47.3926 15.7189C48.2149 16.1924 48.2192 16.6846 47.4096 17.1513C46.6527 17.5889 45.5548 17.7118 44.563 17.5734C43.0345 17.3515 41.7882 16.5254 43.1818 15.7181ZM13.6012 41.9999C13.604 41.2382 13.9003 40.9869 14.6325 41.4015C14.6366 41.4038 14.6396 41.4042 14.6437 41.4066C15.6591 41.9923 16.5474 43.5298 16.544 44.6961C16.5399 45.5553 16.1567 45.6738 15.4964 45.2928C14.4844 44.7079 13.5978 43.1687 13.6012 41.9999ZM19.3512 45.674L19.9343 45.3312V57.5841C18.5217 57.6128 17.1268 57.8065 15.8105 58.1603L19.3512 45.674ZM27.2401 67.8642C27.2278 67.8713 27.219 67.8798 27.2066 67.8868C23.4331 70.0837 17.2814 70.0812 13.491 67.8842C13.3534 67.8051 13.2523 67.7138 13.125 67.631L15.2465 60.1493C18.4408 59.008 22.3476 59.0302 25.4914 60.1849L27.2401 67.8642ZM13.1527 61.1658L11.6744 66.3788C11.1785 65.7602 10.8971 65.0978 10.8889 64.4185C10.8747 63.2395 11.6934 62.1004 13.1527 61.1658ZM20.3225 73.8639C16.8084 73.8639 13.7368 71.9323 12.1145 69.0751C12.2773 69.1819 12.4468 69.2861 12.6231 69.3878C14.7963 70.6465 17.5797 71.2762 20.3615 71.2762C23.0795 71.2762 26.2006 70.6178 28.5254 69.1175C26.9015 71.9619 23.8315 73.8639 20.3225 73.8639ZM29.751 64.8668C29.6417 65.5022 29.2838 66.1149 28.7502 66.682L27.4974 61.1804C28.914 62.0926 29.8708 63.2004 29.751 64.8668ZM25.0474 58.2347C23.9652 57.9253 22.8324 57.7274 21.6702 57.6406V44.3106L21.8523 44.2036L25.0474 58.2347ZM18.2629 44.3002C18.2596 44.2661 18.244 44.2309 18.24 44.1966C18.0492 42.5571 17.0163 40.9289 15.81 40.0894L40.8323 25.389V31.0313L18.2629 44.3002ZM37.7742 71.7865C38.7119 72.5906 40.1333 73.3366 41.9338 73.7677C46.2316 74.8081 50.6327 73.6662 52.8053 71.8179L52.8019 73.9843C52.7985 74.9514 52.0882 75.8964 50.7999 76.6457C47.7791 78.401 42.8496 78.4027 39.8084 76.6482C38.4913 75.8871 37.7675 74.9285 37.7709 73.947L37.7742 71.7865ZM58.1586 78.8731C58.1535 80.6632 56.8889 82.383 54.5988 83.7145C49.4946 86.6828 41.1612 86.6861 36.0265 83.7196C33.6872 82.3694 32.4006 80.6259 32.4074 78.8113V78.7206C32.4165 78.7308 32.4294 78.7397 32.4386 78.75C33.163 79.561 34.2652 80.3938 35.1739 80.9184C41.911 84.8073 53.5106 83.9773 58.1586 78.7974V78.8731ZM58.1773 74.5479C58.1773 74.5534 58.1759 74.5588 58.1759 74.5643C58.1759 74.5638 58.1759 74.5649 58.1759 74.5643L58.1756 74.5676C58.1527 80.198 44.8646 84.5082 36.0435 79.413C34.1824 78.3389 32.43 76.6664 32.426 74.5191C32.4243 72.7171 33.6889 70.9889 36.0011 69.6447C36.0148 69.6365 36.0292 69.6287 36.043 69.6206L36.035 73.9419C36.0282 75.571 37.0606 77.0661 38.9405 78.1518C40.7272 79.1833 43.0174 79.6995 45.3059 79.6995C47.5977 79.6995 49.8896 79.1816 51.6712 78.1459C53.5155 77.0746 54.5326 75.5981 54.5377 73.9885L54.5457 69.6427C54.5514 69.646 54.5574 69.649 54.5632 69.6523C56.8906 70.9965 58.1756 72.7349 58.1773 74.5479ZM50.7796 65.7466C53.5052 67.319 53.4145 69.5885 50.8084 71.1025C45.8876 73.9821 37.6467 71.7051 37.7983 68.3235C37.8419 67.3872 38.5361 66.4743 39.8051 65.739C40.1136 65.5525 40.4577 65.3847 40.8323 65.2355V67.6511C40.8323 68.5343 41.3799 69.348 42.3241 69.8777C43.8484 70.7624 46.5212 70.8989 48.2775 69.8794C49.2166 69.3404 49.754 68.5343 49.754 67.6681V65.2482C50.115 65.3949 50.4592 65.5627 50.7796 65.7466ZM49.754 20.134L73.6083 6.11918C73.7219 6.05307 73.9948 6.05985 74.3881 6.29463C75.4222 6.88794 76.2952 8.39494 76.2952 9.58664C76.2952 9.96636 76.1952 10.2562 76.0477 10.3486L70.5287 13.5904C70.5201 13.5951 70.5123 13.5999 70.504 13.6049L49.754 25.7933V20.134ZM71.6827 14.9252L72.2675 14.5818V26.8591C70.8509 26.8871 69.4532 27.0755 68.1399 27.4207L71.6827 14.9252ZM65.4877 30.4074L64.0114 35.6142C63.5158 34.993 63.2303 34.3287 63.2222 33.6618C63.2082 32.4816 64.0275 31.3421 65.4877 30.4074ZM72.6574 43.1068C69.1433 43.1068 66.0716 41.176 64.4477 38.3188C66.7941 39.8587 69.8676 40.5192 72.6946 40.5192C75.4747 40.5192 78.2514 39.8903 80.4093 38.635C80.5636 38.546 80.7145 38.4545 80.8603 38.3612C79.2363 41.2049 76.1663 43.1068 72.6574 43.1068Z" fill="white"/>
</svg>
