<svg width="93" height="92" viewBox="0 0 93 92" fill="none" xmlns="http://www.w3.org/2000/svg">
<path d="M50.5165 13.1C51.9553 13.9314 54.121 13.928 55.5469 13.0992C57.2659 12.1001 57.2688 10.1888 55.5316 9.18672C54.117 8.36965 51.9082 8.37135 50.5004 9.18842C48.7796 10.1878 48.7845 12.0999 50.5165 13.1ZM51.3734 10.6886C52.2453 10.1814 53.7829 10.1805 54.6637 10.6903C55.1963 10.9966 55.2677 11.2543 54.6747 11.5981C53.7881 12.1143 52.2811 12.1143 51.3844 11.5964C50.8406 11.2828 50.7906 11.0272 51.3734 10.6886Z" fill="white"/>
<path d="M21.5623 66.9139C22.0412 66.9122 22.4293 66.5231 22.4277 66.0434L22.4158 61.7818C22.4141 61.3037 22.0259 60.9164 21.5479 60.9164H21.5453C21.0664 60.9181 20.6782 61.3071 20.6799 61.7868L20.6918 66.0485C20.6935 66.5265 21.0817 66.9139 21.5597 66.9139H21.5623Z" fill="white"/>
<path d="M46.1075 26.9809L53.4585 22.7371C53.8739 22.4972 54.0162 21.9666 53.7764 21.5513C53.5357 21.136 53.0025 20.9936 52.5906 21.2335L45.2395 25.4773C44.8242 25.7172 44.6818 26.2478 44.9217 26.6631C45.1622 27.0795 45.6944 27.2195 46.1075 26.9809Z" fill="white"/>
<path d="M50.0275 68.7921C48.5307 69.6567 47.3619 71.6773 47.367 73.3928C47.3723 75.4602 49.0973 76.4568 50.9099 75.4092C52.3965 74.5506 53.5577 72.5342 53.5526 70.8196C53.5473 68.7436 51.8309 67.7561 50.0275 68.7921ZM50.0419 73.9056C49.4365 74.2568 49.1044 74.1579 49.1028 73.3877C49.0994 72.2935 49.9368 70.8492 50.8954 70.2958C51.4798 69.9573 51.8151 70.038 51.8168 70.8238C51.8202 71.918 50.9904 73.3581 50.0419 73.9056Z" fill="white"/>
<path d="M25.8799 42.4061H25.8825C26.3614 42.4044 26.7496 42.0153 26.7479 41.5356L26.7385 38.2266C26.7368 37.7486 26.3487 37.3613 25.8706 37.3613H25.8681C25.3892 37.363 25.001 37.752 25.0027 38.2317L25.012 41.5407C25.0137 42.0187 25.4019 42.4061 25.8799 42.4061Z" fill="white"/>
<path d="M25.012 49.363C25.0137 49.8411 25.4019 50.2284 25.8799 50.2284H25.8825C26.3614 50.2267 26.7496 49.8377 26.7479 49.3579L26.7385 46.049C26.7368 45.5709 26.3487 45.1836 25.8706 45.1836H25.8681C25.3892 45.1853 25.001 45.5743 25.0027 46.0541L25.012 49.363Z" fill="white"/>
<path d="M48.9688 55.5122C48.4922 55.7856 48.3195 55.7202 48.3179 55.1486C48.3154 54.2256 49.0197 53.0076 49.824 52.5423C50.3071 52.2628 50.4684 52.3534 50.4699 52.9093C50.4716 53.3873 50.8598 53.7747 51.3378 53.7747H51.3404C51.8193 53.773 52.2074 53.3839 52.2058 52.9042C52.2023 51.6882 51.5213 50.6714 50.258 50.6722V49.7181C50.258 49.2384 49.8698 48.8502 49.3901 48.8502C48.9104 48.8502 48.5222 49.2384 48.5222 49.7181V51.388C47.4104 52.2672 46.5783 53.7961 46.582 55.1537C46.5874 57.0546 48.1778 57.9735 49.8368 57.0158C50.3019 56.7423 50.4811 56.8101 50.4826 57.3828C50.4852 58.3033 49.7834 59.517 48.9815 59.9798C48.5084 60.2523 48.3322 60.1924 48.3306 59.6221C48.3289 59.1441 47.9407 58.7568 47.4627 58.7568H47.4601C46.9813 58.7585 46.5931 59.1475 46.5948 59.6272C46.5983 60.895 47.3434 61.8557 48.5222 61.864V62.8209C48.5222 63.3007 48.9104 63.6888 49.3901 63.6888C49.8698 63.6888 50.258 63.3007 50.258 62.8209V61.1547C51.3796 60.2816 52.2223 58.7424 52.2185 57.3777C52.2131 55.4746 50.6243 54.5635 48.9688 55.5122Z" fill="white"/>
<path d="M72.4079 27.8556L72.3961 24.8433C72.3955 24.6418 72.2791 24.2771 71.9604 24.094C71.9587 24.0931 71.9566 24.0935 71.9548 24.0926L67.9076 21.7404L67.8912 14.0078C67.8807 12.5234 67.3445 11.3944 66.4012 10.7711C66.1776 10.5803 60.6524 7.25983 56.0818 4.47504C55.0384 3.88767 53.7052 3.99023 52.3321 4.76831C35.988 14.2055 41.4198 11.0692 25.0647 20.5127C25.0644 20.5129 25.065 20.5125 25.0647 20.5127C25.0638 20.5132 25.0618 20.5145 25.0608 20.515L25.0569 20.5172C25.0562 20.5176 25.056 20.5184 25.0554 20.5187C22.5492 21.9716 20.5937 25.3526 20.5918 28.2316C20.5904 30.4069 20.6677 57.5738 20.6689 57.749C20.6706 58.227 21.0588 58.6144 21.5369 58.6144C21.5377 58.6144 21.5386 58.6144 21.5394 58.6144C22.0183 58.6127 22.4065 58.2236 22.4048 57.7439L22.3268 29.7932L30.7803 34.9251C30.8811 71.0862 30.9132 84.2651 30.9272 84.4995L23.2117 79.8158C22.7387 79.5437 22.4718 78.8826 22.4607 77.9621L22.4379 69.7321C22.4362 69.2541 22.048 68.8667 21.5699 68.8667C21.5691 68.8667 21.5682 68.8667 21.5674 68.8667C21.0885 68.8684 20.7003 69.2575 20.702 69.7372L20.7249 77.9749C20.7435 79.5429 21.3199 80.7312 22.3294 81.3101C24.8852 82.8625 29.9971 85.967 32.5529 87.5195C33.7243 88.1885 35.1001 87.9074 36.2814 87.2203L63.549 71.4764C66.0621 70.0355 68.0302 66.6325 68.0302 63.727L67.9785 36.1634C70.5106 34.3617 72.4166 30.8731 72.4079 27.8556ZM62.4378 58.4559L36.4509 73.4581L36.3553 37.5416L42.932 41.3635L42.9426 43.8732C42.9531 47.4577 45.723 49.0828 48.8765 47.2627C50.8181 46.1411 52.4479 43.985 53.2911 41.6926C54.6104 43.0608 56.4846 42.8669 58.1245 41.9204C59.9006 40.895 61.4314 39.0063 62.3252 36.9371L62.4378 58.4559ZM61.425 33.1996C61.4326 35.8034 59.5238 39.1081 57.2565 40.4168C55.3052 41.5446 53.9326 40.8086 53.9255 38.525L53.9145 36.0205L61.4182 31.688L61.425 33.1996ZM52.177 38.5411C52.1846 41.1449 50.2759 44.4504 48.0086 45.7591C46.0872 46.8664 44.6856 46.1841 44.6784 43.8673L44.6674 41.3593L52.1702 37.0279L52.177 38.5411ZM54.019 26.3762C54.1978 26.4801 60.9769 30.4196 60.5584 30.1764L53.0415 34.5157L46.5018 30.7155L54.019 26.3762ZM44.7682 31.7155C45.5314 32.159 51.6025 35.6872 51.311 35.5178L43.795 39.8576L37.2519 36.0551L44.7682 31.7155ZM62.2919 29.1762L55.7521 25.3757L63.2557 21.0442L69.7949 24.8449L62.2919 29.1762ZM53.1915 6.27616C54.0103 5.81253 54.7341 5.70828 55.2062 5.97272L63.0006 10.7056C62.6049 10.89 54.7011 15.4682 35.694 26.4334C35.5203 26.328 26.6382 20.9424 27.2014 21.2839L53.1915 6.27616ZM25.5061 22.2928C25.6799 22.3981 34.6929 27.8587 34.1184 27.5106C32.6706 28.7655 31.3514 30.8833 30.9289 32.9809L22.348 27.7751C22.5334 25.7862 23.8701 23.4695 25.5061 22.2928ZM62.6836 69.972L35.411 85.7184C33.8628 86.6212 32.6951 86.1111 32.6577 84.2122C32.6491 83.6259 32.6581 86.0121 32.5148 34.4325C32.5148 34.4315 32.5156 34.4305 32.5156 34.4295C32.5091 32.2887 34.1108 29.3565 36.1246 28.2014C57.3359 15.9561 63.2941 12.4989 63.7357 12.2929C65.2489 11.5933 66.1441 12.3087 66.1553 14.0154L66.1696 20.7303L63.6914 19.2899C63.4269 19.1366 63.0267 19.1379 62.7701 19.2857L35.049 35.2898C34.7795 35.4457 34.6142 35.733 34.6151 36.0441L34.7193 74.9617C34.7211 75.6272 35.4437 76.0436 36.0212 75.711L63.7422 59.7069C64.0118 59.5509 64.1779 59.2619 64.1762 58.9509L64.0626 37.236C64.6994 37.3902 65.3238 37.3854 66.2443 37.0779L66.2943 63.7287C66.2943 65.9909 64.6415 68.8489 62.6836 69.972ZM66.5037 35.0787C64.5833 36.1871 63.1807 35.5037 63.1735 33.1869L63.1625 30.681L70.6661 26.3485L70.6721 27.8615C70.6797 30.4645 68.771 33.77 66.5037 35.0787Z" fill="white"/>
</svg>
