<svg width="93" height="92" viewBox="0 0 93 92" fill="none" xmlns="http://www.w3.org/2000/svg">
<path d="M66.9423 40.8187L63.0536 45.9669C62.7654 46.3492 62.8417 46.8933 63.2231 47.1824C63.6079 47.4705 64.1487 47.3968 64.4402 47.0128L71.402 37.795C71.4035 37.7932 71.4058 37.7921 71.4074 37.7903C75.2384 34.5737 77.1573 30.607 76.8149 26.6098C76.1891 19.2859 68.664 14.359 61.7107 11.9859C61.7116 11.5909 61.7195 8.18264 61.7195 8.39698C61.7195 8.22303 61.6032 7.83006 61.2855 7.64602L55.0066 4.02176C54.7371 3.86665 54.4032 3.86665 54.137 4.02345L47.9005 7.64772C47.7347 7.74359 47.4682 8.11469 47.4682 8.39613L47.4654 9.55722C39.1814 9.40455 31.0526 11.2395 25.1446 14.6767C19.7286 17.817 16.545 22.0371 16.1806 26.5598C15.8562 30.6003 17.8397 34.6044 21.7528 37.8466L37.126 56.9058C38.1703 58.2018 38.7398 59.8334 38.7297 61.4997L38.7008 65.7368C38.7008 67.2294 39.6417 68.6025 41.3538 69.6068C44.6075 71.4819 49.6875 71.4716 52.9334 69.6035C54.6083 68.6177 55.5304 67.2616 55.5304 65.791L55.561 61.1463C55.5711 59.5977 56.0915 58.0653 57.0256 56.8304L58.8343 54.4343C59.1225 54.052 59.0462 53.507 58.6631 53.2188C58.2817 52.9298 57.7375 53.0044 57.4477 53.3884L55.6406 55.7845C54.4828 57.3152 53.8387 59.2146 53.8251 61.1344L53.7946 65.7851C53.7946 66.6217 53.1759 67.4464 52.0587 68.1032C49.3465 69.6645 44.9323 69.6645 42.2268 68.1066C41.0724 67.4294 40.4367 66.5878 40.4367 65.7427L40.4655 61.5107C40.4791 59.4452 39.7722 57.422 38.4771 55.8158L26.5126 40.9814C32.3158 43.9815 39.87 45.4143 46.6003 45.4143C53.305 45.4143 60.96 44.019 66.9423 40.8187ZM64.9505 35.3332C60.1091 38.1344 53.5929 39.6779 46.602 39.6779C39.8965 39.6779 32.1186 38.197 26.6122 34.3243C26.5606 34.288 26.5135 34.2498 26.4625 34.2133C28.7403 32.582 31.4242 31.4114 34.1154 30.5881L40.374 34.2016C40.6421 34.3561 40.9707 34.3568 41.2402 34.2016C41.2398 34.2018 41.2406 34.2014 41.2402 34.2016C41.7676 33.8952 47.8701 30.3491 47.4801 30.5757C47.482 30.5746 47.4826 30.5723 47.4846 30.5712L47.4886 30.5689C47.7564 30.4129 47.9208 30.1273 47.9208 29.8179V28.8847C54.415 29.1 60.3956 30.624 64.8454 33.2074C65.4626 33.5649 66.0269 33.93 66.5385 34.2976C66.4984 34.3261 66.4645 34.3546 66.4237 34.3831C65.9681 34.7014 65.4822 35.0195 64.9505 35.3332ZM46.1782 29.3218L41.6796 31.9339L41.6933 26.3222L46.1918 23.7086L46.1782 29.3218ZM39.957 26.3227L39.9434 31.9436L35.4004 29.3139L35.4139 23.6997L39.957 26.3227ZM40.8254 24.8194L36.2806 22.1953L40.7876 19.5766L45.3323 22.2007C45.0101 22.388 40.6097 24.9447 40.8254 24.8194ZM67.9305 33.1942C67.2701 32.6882 66.5474 32.1876 65.715 31.7055C61.0117 28.9747 54.716 27.382 47.9188 27.1633C47.9216 26.0084 47.931 21.9393 47.931 22.1973C47.931 22.0234 47.8147 21.6304 47.4971 21.4464L41.2199 17.8221C40.9503 17.667 40.6164 17.667 40.3502 17.8238L34.1137 21.4481C33.9401 21.5485 33.6815 21.9332 33.6815 22.1965L33.665 28.9229C31.2327 29.6649 29.042 30.5885 27.1703 31.6911C26.3639 32.1669 25.6875 32.6353 25.0666 33.1077C23.0286 31.2869 21.9018 29.2876 21.9018 27.4227C21.9018 24.7367 24.1411 21.9041 28.0484 19.6495C33.6847 16.3663 40.9361 15.1505 47.4514 15.3022L47.4496 16.0244C47.4496 16.3346 47.614 16.6228 47.8836 16.7779C48.0575 16.8783 54.5634 20.6355 54.1506 20.3971C54.1524 20.3981 54.1545 20.3976 54.1563 20.3985L54.1624 20.4021C54.4219 20.5516 54.7489 20.5622 55.0304 20.4021C55.0311 20.4017 55.0313 20.4009 55.0321 20.4004L60.0651 17.4748C64.657 19.1125 71.0954 22.7227 71.0954 27.5269C71.0954 27.5295 71.0954 27.5312 71.0954 27.5337C71.1095 29.373 69.9826 31.3643 67.9305 33.1942ZM59.9667 15.5185C59.1763 15.9774 55.2195 18.2747 55.4677 18.1306C55.4684 17.8276 55.4808 12.2641 55.4802 12.5218L59.9802 9.90822C59.9784 10.6809 59.9666 15.6967 59.9667 15.5185ZM53.7437 12.5224C53.7426 13.0417 53.731 18.4926 53.7318 18.1479L49.1888 15.5175C49.1898 15.0543 49.1853 17.2094 49.2007 9.89932L53.7437 12.5224ZM54.5744 5.77626L59.1191 8.40037L54.6122 11.0191L50.0673 8.39497L54.5744 5.77626ZM17.9113 26.6988C18.2283 22.761 21.1067 19.0248 26.0176 16.1778C32.1845 12.5881 40.2723 11.1214 47.4612 11.2728L47.4556 13.5717C47.1014 13.5641 46.7472 13.5528 46.3935 13.5528C39.089 13.5528 32.2643 15.1853 27.1771 18.1476C22.7222 20.7183 20.1659 24.0993 20.1659 27.4227C20.1659 30.0086 21.656 32.5946 24.4818 34.9034C30.2896 39.582 39.0194 41.4137 46.602 41.4137C53.8929 41.4137 60.7176 39.788 65.8252 36.8317C69.2841 34.7945 72.8605 31.5367 72.8313 27.5227C72.8286 22.2183 66.956 18.3363 61.6427 16.2482C61.6648 16.1711 61.7042 16.0999 61.7042 16.0176C61.7044 15.8428 61.7064 13.6374 61.7062 13.8122C67.7264 15.9774 74.5407 20.3905 75.0859 26.7582C75.5284 31.9256 71.4328 36.2356 66.9779 38.8057C54.1322 46.2889 32.8242 44.8548 22.9528 36.5935C19.4217 33.7024 17.6299 30.1883 17.9113 26.6988Z" fill="white"/>
<path d="M61.0566 48.6097L59.6174 50.515C59.3292 50.8973 59.4055 51.4414 59.7869 51.7305C60.1715 52.02 60.7149 51.9431 61.004 51.561L62.4432 49.6556C62.7314 49.2733 62.6551 48.7292 62.2737 48.4402C61.8906 48.152 61.3464 48.2257 61.0566 48.6097Z" fill="white"/>
<path d="M46.558 88.0943C47.0377 88.0943 47.4259 87.7061 47.4259 87.2263V85.4183C48.6552 84.4892 49.5683 82.7738 49.5652 81.2865C49.5616 79.2728 47.8837 78.3075 46.1393 79.3201C45.5748 79.6455 45.3137 79.5553 45.3103 78.8539C45.307 77.8224 46.0918 76.4612 46.9919 75.9416C47.5407 75.6252 47.8124 75.6981 47.8158 76.4103C47.8175 76.8884 48.2057 77.2757 48.6837 77.2757C49.1635 77.2749 49.5533 76.885 49.5516 76.4053C49.5493 75.0607 48.7608 73.9929 47.4259 74.0427V72.9285C47.4259 72.4487 47.0377 72.0605 46.558 72.0605C46.0783 72.0605 45.6901 72.4487 45.6901 72.9285V74.7376C44.47 75.6747 43.5685 77.3818 43.5745 78.8599C43.578 80.8685 45.2485 81.8375 47.0072 80.8229C47.56 80.5068 47.8259 80.5838 47.8294 81.2916C47.8327 82.3205 47.0479 83.6775 46.1528 84.1945C45.5839 84.5251 45.3273 84.4235 45.3239 83.736C45.3222 83.258 44.934 82.8706 44.456 82.8706C43.9762 82.8715 43.5864 83.2613 43.5881 83.7411C43.5904 85.0739 44.3613 86.1301 45.6901 86.0957V87.2263C45.6901 87.7061 46.0783 88.0943 46.558 88.0943Z" fill="white"/>
</svg>
