<svg width="93" height="92" viewBox="0 0 93 92" fill="none" xmlns="http://www.w3.org/2000/svg">
<path d="M21.765 59.0504C21.7667 59.5293 22.1549 59.9158 22.6329 59.9158H22.6355C23.1143 59.9141 23.5025 59.5251 23.5008 59.0453L23.425 32.6356L30.0642 36.3962C30.0774 41.2327 30.0164 18.8782 30.1933 83.6905C30.1959 83.8863 30.2061 84.0761 30.2247 84.2601L24.4069 80.8774C23.8602 80.5561 23.5585 79.8221 23.5585 78.8093L23.5297 68.9383C23.528 68.4594 23.1398 68.0729 22.6617 68.0729H22.6592C22.1795 68.0746 21.7921 68.4637 21.7938 68.9434L21.8226 78.8118C21.8226 80.4637 22.4286 81.7283 23.5313 82.3759L31.8911 87.2368C31.8953 87.2393 31.9004 87.2419 31.9046 87.2444L31.9124 87.2464L31.9182 87.2512C33.1668 87.9714 34.6365 87.6617 35.8789 86.9435L66.5309 69.2468C69.2228 67.6924 71.324 64.0461 71.3155 60.9456L71.1799 13.175C71.1758 11.5547 70.585 10.3207 69.527 9.67387C69.5059 9.65893 69.4931 9.63689 69.4703 9.62365L61.092 4.76191C60.0011 4.11012 58.5484 4.21692 57.1049 5.04925C49.413 9.49485 34.0298 18.3873 26.3385 22.8341C23.6983 24.4207 21.665 27.9908 21.6845 31.0378L21.765 59.0504ZM65.663 67.7432L35.011 85.4399C33.1835 86.4933 31.9396 85.784 31.9343 83.682C31.936 84.3341 31.91 74.9632 31.8038 35.8507C31.8244 33.4589 33.5641 30.372 35.7153 29.1299C38.8799 27.3029 25.0266 35.3007 66.3614 11.4375C68.1607 10.3984 69.4386 11.0479 69.4441 13.1801L69.5797 60.9507C69.5864 63.4028 67.793 66.5134 65.663 67.7432ZM57.9729 6.55286C58.8569 6.04177 59.6672 5.93158 60.2105 6.2579L66.0512 9.64653C65.4922 9.90049 67.5993 8.73244 35.2788 27.3715L28.6317 23.4959L57.9729 6.55286ZM26.9517 24.5266L33.6983 28.4602C32.0773 29.8421 30.8184 31.9347 30.316 34.0293C30.279 34.1809 30.2386 34.3324 30.2098 34.4835L23.4504 30.6548C23.5925 28.4263 25.0932 25.8073 26.9517 24.5266Z" fill="white"/>
<path d="M22.6551 66.4515C23.1348 66.4498 23.5221 66.0599 23.5204 65.5811L23.5103 62.1636C23.5086 61.6847 23.1204 61.2982 22.6423 61.2982H22.6398C22.1601 61.2999 21.7727 61.6898 21.7744 62.1687L21.7846 65.5861C21.7863 66.065 22.1745 66.4515 22.6525 66.4515H22.6551Z" fill="white"/>
<path d="M66.1343 15.3965C65.8656 15.2414 65.5342 15.244 65.2672 15.3974L35.1085 32.8093C34.839 32.9652 34.6737 33.2525 34.6746 33.5636L34.8085 74.4823C34.8093 74.7926 34.9755 75.0782 35.2433 75.2325C35.5073 75.3845 35.8387 75.3881 36.1104 75.2316L66.2691 57.8197C66.5386 57.6638 66.7039 57.3764 66.703 57.0654L66.5691 16.1466C66.5683 15.8364 66.4021 15.5508 66.1343 15.3965ZM36.5392 72.9796L36.4121 34.0611L64.8383 17.6494L64.9655 56.5678L36.5392 72.9796Z" fill="white"/>
<path d="M50.2522 68.251C48.8333 69.0697 47.7264 70.9844 47.7315 72.6101C47.7368 74.579 49.3895 75.5522 51.1345 74.5468C52.5474 73.7297 53.651 71.8176 53.6467 70.1919C53.6396 68.2001 51.9851 67.2516 50.2522 68.251ZM50.2666 73.0432C49.7254 73.3548 49.469 73.273 49.4673 72.605C49.4639 71.5964 50.2361 70.2648 51.1201 69.7546C51.7256 69.4058 51.9094 69.5959 51.9109 70.197C51.9134 71.2056 51.1447 72.5355 50.2666 73.0432Z" fill="white"/>
<path d="M60.9757 33.5899C60.7071 33.4356 60.3756 33.4365 60.1087 33.5907L53.8806 37.1862C53.6111 37.3421 53.4458 37.6295 53.4467 37.9405L53.4553 40.9898L47.6721 44.3288C47.4025 44.4847 47.2373 44.772 47.2381 45.0831L47.2607 53.0705L41.4974 56.3975C41.2288 56.5526 41.0635 56.8391 41.0635 57.1493V64.5377C41.0635 64.8479 41.2288 65.1344 41.4974 65.2895C41.766 65.4442 42.0964 65.4444 42.3654 65.2895C42.5442 65.1862 61.2144 54.407 61.0317 54.5125C61.3012 54.3565 61.4665 54.0692 61.4656 53.7581L61.4105 34.34C61.4097 34.0306 61.2436 33.745 60.9757 33.5899ZM42.7993 57.6502L47.2664 55.0722L47.2817 60.4472L42.7993 63.0341V57.6502ZM49.0189 59.4438C49.0183 59.27 48.9734 44.8403 48.9757 45.5806L53.461 42.9913C53.4618 43.2943 53.5023 57.6692 53.5001 56.856L49.0189 59.4438ZM55.2334 55.855L55.1842 38.4381L59.6789 35.8436L59.7281 53.2606L55.2334 55.855Z" fill="white"/>
<path d="M41.5755 46.2664L43.9504 40.8359L47.3823 41.2961C47.8069 41.3504 48.218 41.0851 48.3341 40.6672L50.0285 34.5477L53.1687 35.2317C53.5391 35.3063 53.9163 35.1435 54.1053 34.8172L58.8925 26.5253C59.1323 26.11 58.99 25.5794 58.5746 25.3395C58.1602 25.0988 57.6287 25.2421 57.3889 25.6574L52.9187 33.4001L49.5953 32.6762C49.1419 32.5745 48.6961 32.8483 48.574 33.2933L46.8627 39.4747L43.5326 39.028C43.1402 38.9797 42.7765 39.1848 42.6223 39.5408L39.9855 45.5713C39.7329 46.1478 40.1606 46.7868 40.7796 46.7868C41.1144 46.7868 41.4331 46.5927 41.5755 46.2664Z" fill="white"/>
</svg>
