<svg width="93" height="92" viewBox="0 0 93 92" fill="none" xmlns="http://www.w3.org/2000/svg">
<path d="M15.7896 76.0863C16.7626 76.6482 17.7983 77.1831 18.8671 77.6763C19.3053 77.8772 19.819 77.6874 20.019 77.2517C20.2199 76.8161 20.0292 76.3007 19.5944 76.0998C18.573 75.6294 17.5856 75.1183 16.6575 74.5827C10.1413 70.8211 6.56025 65.8687 6.5755 60.6374L6.64077 37.7908C13.181 49.9437 33.3453 53.8181 47.3391 52.5057L47.2612 80.2377C42.1757 80.726 36.8944 80.5607 31.9326 79.7538C31.4648 79.6809 31.0139 79.9987 30.9367 80.4717C30.8604 80.9446 31.1817 81.3905 31.6546 81.4676C34.8492 81.9863 38.1725 82.2474 41.4934 82.2474C43.7505 82.2474 46.0067 82.127 48.2206 81.8846C48.6605 81.8363 48.9936 81.4659 48.9945 81.0243L49.0775 51.5479C49.0777 51.4954 49.0549 51.448 49.0457 51.397C49.0384 51.3549 49.047 51.312 49.0335 51.2708L42.702 32.2671L75.6377 35.8784L75.6147 44.081L52.3306 41.5286C51.8238 41.4687 51.3692 41.8964 51.3677 42.3889L51.3151 60.8111C51.3151 60.9052 51.3296 60.9985 51.3592 61.0875C51.4179 61.2636 58.1942 81.5861 58.128 81.4084C58.2625 81.7693 58.6439 82.0135 59.0256 81.971C70.0493 80.7746 84.7198 75.5338 88.068 64.9185C88.0943 64.8346 88.1079 64.7473 88.1079 64.66L88.1604 46.237C88.1604 45.8123 87.8174 45.4379 87.4256 45.3767C87.2518 45.3495 77.1763 44.2326 77.35 44.2713L77.3755 35.2099C79.5533 28.1181 75.6945 20.9069 67.0107 15.8927C52.8247 7.70247 29.8145 7.70671 15.715 15.9003C8.78282 19.9289 4.96033 25.3336 4.93056 31.1243C4.93003 31.1355 4.92357 31.1446 4.92357 31.1559L4.83965 60.6323C4.8227 66.512 8.71141 72.0001 15.7896 76.0863ZM86.0798 46.9747C86.0481 47.0514 86.0242 47.1296 85.9909 47.2061C82.1372 56.0847 69.188 60.5763 59.5828 61.7317C58.9754 59.9053 53.9713 44.8591 53.4867 43.4018L86.0798 46.9747ZM53.0883 47.7061L58.1166 62.8252L58.0796 75.7935L53.051 60.6747L53.0883 47.7061ZM86.372 64.5202C83.2598 74.0406 69.7141 78.891 59.803 80.1326L59.8506 63.459C69.3033 62.3125 81.2721 58.1647 86.4135 50.1087L86.372 64.5202ZM16.588 17.4005C23.3992 13.4423 32.3632 11.4632 41.3391 11.4632C50.3099 11.4632 59.2917 13.4415 66.1428 17.3963C73.8447 21.8435 77.4359 28.0648 75.8764 34.1581L41.5459 30.394C41.2416 30.3592 40.9611 30.4813 40.7755 30.7118C40.5898 30.9415 40.5339 31.2509 40.6271 31.5314L47.0338 50.7617C38.4814 51.54 29.2006 50.5771 21.0623 47.1884C13.8244 44.1743 6.65406 38.8285 6.66143 31.1849C6.66461 26.0149 10.1876 21.1199 16.588 17.4005Z" fill="white"/>
<path d="M27.2634 80.5743C27.3329 80.5921 27.4033 80.5997 27.4719 80.5997C27.8618 80.5997 28.2161 80.3353 28.3136 79.9395C28.4288 79.4741 28.1441 79.0037 27.6787 78.8893C26.2912 78.5477 24.9351 78.1511 23.6468 77.712C23.1933 77.556 22.6992 77.7993 22.5449 78.2528C22.3898 78.7071 22.6322 79.2004 23.0857 79.3546C24.4223 79.8106 25.8276 80.2208 27.2634 80.5743Z" fill="white"/>
</svg>
