<svg width="93" height="92" viewBox="0 0 93 92" fill="none" xmlns="http://www.w3.org/2000/svg">
<path d="M50.5748 9.6174C50.5926 9.61909 50.6095 9.61909 50.6273 9.61909C51.0833 9.61909 51.4656 9.26311 51.4927 8.80202C51.5215 8.32398 51.1562 7.91375 50.6782 7.88494C49.6407 7.82222 48.599 7.78492 47.5582 7.76966C47.0463 7.70355 46.6844 8.1443 46.6776 8.62403C46.6708 9.10376 47.0531 9.49873 47.5328 9.50551C48.5482 9.52077 49.5628 9.55806 50.5748 9.6174Z" fill="white"/>
<path d="M87.0527 35.5618C87.0508 30.2712 84.0558 25.0963 78.6187 20.9869C78.3415 20.7784 77.9618 20.7563 77.6609 20.9292L71.5801 24.4388C71.5509 16.2723 71.6121 34.0755 71.5397 13.3196C71.5162 12.8736 70.8515 12.4433 71.026 12.5721C65.9872 10.3277 60.0126 8.79355 53.7464 8.13583C53.2548 8.07649 52.842 8.43248 52.7928 8.90882C52.7428 9.38516 53.0887 9.81234 53.565 9.8615C59.0013 10.4327 64.2029 11.6784 68.7251 13.4849L14.8854 44.5708C14.675 44.4043 14.4755 44.2349 14.274 44.0659C9.08061 39.6916 7.35632 34.9932 7.61331 30.9239C7.96421 25.3655 11.9656 20.1071 18.8802 16.115C25.8024 12.1195 35.0012 9.77674 44.7823 9.52247C45.2612 9.50891 45.6392 9.11054 45.6274 8.63251C45.6147 8.15278 45.1578 7.79001 44.7366 7.78662C34.6715 8.04937 25.1812 10.4735 18.0123 14.613C10.5782 18.9035 6.26989 24.6586 5.88085 30.8137C5.82523 31.6949 5.89686 43.0497 5.94357 60.4757C5.95798 65.7494 8.94825 70.9197 14.3643 75.0338C14.6258 75.2343 14.9736 75.2686 15.2763 75.1186C15.4506 75.0322 21.5873 71.5126 21.4112 71.5907L21.4552 78.6564C21.4569 78.9971 21.6586 79.3056 21.9697 79.4446C29.1436 82.64 37.761 84.2369 46.3961 84.2369C55.0288 84.2369 63.6783 82.64 70.9133 79.4446C71.2295 79.3056 71.432 78.992 71.4303 78.6462L71.3855 71.4512C71.6324 71.5951 77.4036 74.9582 77.6584 75.1067C77.9232 75.2354 78.2262 75.2253 78.478 75.0796C82.4559 72.7964 87.1617 66.3529 87.1394 60.2469L87.053 35.5636L87.0527 35.5618ZM78.0262 22.7227C82.7337 26.4334 85.3171 30.9765 85.3171 35.567C85.3171 40.8145 82.0367 45.2942 77.8836 48.5627L55.6485 35.6398C62.9835 31.4114 67.575 28.7726 78.0262 22.7227ZM24.1773 61.7894L46.4326 48.9469C47.6969 49.6823 65.1281 59.8211 68.5025 61.7838C54.8816 67.1649 37.2703 67.0266 24.1773 61.7894ZM7.67942 60.4707L7.61076 38.6895C7.63037 38.7275 7.65781 38.764 7.67772 38.802C8.89194 41.1234 11.1273 43.8567 13.932 46.0516L14.0151 72.5182C9.87466 68.9329 7.69129 64.7967 7.67942 60.4707ZM15.7577 72.8454L15.6764 46.119L69.8047 14.868L69.8487 25.438L53.4819 34.8838C53.2164 35.038 53.0479 35.3216 53.0471 35.6348L53.0478 35.6373L53.0471 35.6399L53.1104 50.8228L46.8708 47.1941C46.6021 47.0348 46.2707 47.0365 46.0003 47.1924C24.5032 59.5979 21.5371 61.326 21.7434 61.1911C21.5184 61.3381 21.3492 61.6168 21.3509 61.9217L21.3987 69.5931L15.7577 72.8454ZM23.1876 78.0817C23.1831 77.3486 23.0906 62.4587 23.0955 63.2356C30.262 66.1695 38.4546 67.4971 46.3224 67.4971C54.0856 67.4971 61.9867 66.2618 69.3381 63.3166C69.422 63.283 69.5153 63.2558 69.5987 63.2219L69.6911 78.0834C55.8484 83.9894 36.91 83.9911 23.1876 78.0817ZM70.9303 61.1877C70.7562 61.0744 55.0265 51.8223 54.8525 51.8355C54.849 51.0098 54.7858 36.2057 54.7899 37.1491L77.0905 50.111C77.1195 58.3333 77.1406 64.2861 77.1707 72.8146L71.3744 69.4364L71.3261 61.9115C71.3245 61.6296 71.1331 61.3197 70.9303 61.1877ZM78.9056 72.5246C78.9027 71.7179 78.887 67.2412 78.8263 50.0386C81.4529 48.0021 83.8685 45.4009 85.3409 42.4561L85.4036 60.2537C85.4197 64.6542 83.1807 68.8699 78.9056 72.5246Z" fill="white"/>
</svg>
