<svg width="93" height="92" viewBox="0 0 93 92" fill="none" xmlns="http://www.w3.org/2000/svg">
<path d="M72.72 52.9116C72.7191 52.9116 72.7183 52.9116 72.7174 52.9116C72.2386 52.9133 71.8504 53.3032 71.8521 53.7812L71.875 62.1011L65.1048 66.0114C64.958 16.0615 65.0086 33.2893 64.9977 29.5624L71.7724 25.6517L71.8232 43.6374C71.8249 44.1171 72.2131 44.5036 72.6912 44.5036C72.692 44.5036 72.6929 44.5036 72.6937 44.5036C73.1726 44.5019 73.5608 44.112 73.5591 43.634L73.504 24.1498C73.5032 23.8924 73.2462 23.5018 73.0726 23.4005L64.5086 18.4235C64.2382 18.2675 63.9068 18.2675 63.6381 18.4235L55.137 23.3322C55.1343 23.3336 55.1311 23.3329 55.1284 23.3344C54.8597 23.4903 54.6936 23.7785 54.6945 24.0887L54.7423 43.7175L47.8409 39.7063C47.5722 39.5503 47.2391 39.5503 46.9704 39.7063C46.1007 40.2084 50.1212 37.8872 38.4641 44.6172C38.2576 44.7367 38.1405 44.9429 38.0842 45.168C38.0671 45.2356 38.0303 45.2967 38.0301 45.3681C38.0301 45.3688 38.0306 45.3692 38.0306 45.3698C38.0306 45.3705 38.0301 45.3709 38.0301 45.3715L38.0773 62.0993L31.1732 58.087C30.9028 57.931 30.5714 57.931 30.3027 58.087L21.7955 62.9978C21.5267 63.1517 21.3621 63.5727 21.3616 63.7471C21.3616 63.7477 21.362 63.7482 21.362 63.7488C21.362 63.7494 21.3616 63.7499 21.3616 63.7505L21.4124 81.8176C21.4133 82.1261 21.5777 82.4109 21.8438 82.5668C22.0196 82.6689 30.5859 87.6466 30.4102 87.5445C30.4097 87.5443 30.4106 87.5447 30.4102 87.5445C30.6793 87.6978 31.0099 87.7001 31.2783 87.5438L39.7855 82.6312C40.055 82.477 40.2203 82.1888 40.2194 81.8786L40.1969 73.8788C40.3725 73.981 47.2837 78.0043 47.1081 77.9021C47.1093 77.9028 47.1099 77.9044 47.1111 77.9051C47.3771 78.0566 47.7041 78.0616 47.9774 77.9034L56.4828 72.9908C56.7515 72.8366 56.9177 72.5484 56.9168 72.2382L56.8962 64.2529L63.8051 68.2698C64.0703 68.4232 64.4034 68.4283 64.6756 68.2698C64.6831 68.2655 64.6861 68.2566 64.6935 68.252L73.1785 63.3521C73.4481 63.1979 73.6133 62.9097 73.6125 62.5995L73.5879 53.7778C73.5862 53.2981 73.198 52.9116 72.72 52.9116ZM64.0704 20.178L70.9045 24.1481L64.1297 28.0588L57.2957 24.0887L64.0704 20.178ZM47.4027 41.4608L54.2427 45.4376L47.4578 49.3484L40.628 45.3732L47.4027 41.4608ZM30.735 59.8415L37.569 63.8115L30.7944 67.7222L23.9625 63.7514L30.735 59.8415ZM23.1017 65.2604L29.9261 69.2268L29.9721 85.2825L23.1466 81.3158L23.1017 65.2604ZM31.708 85.2927L31.6622 69.2259L38.4331 65.3174L38.4471 72.3636C38.4471 72.3765 38.4561 72.3868 38.4568 72.3996L38.4819 81.3802L31.708 85.2927ZM40.1913 71.8672L40.1686 63.8132C40.168 63.5576 39.956 63.2295 39.8168 63.1267L39.7702 46.8819L46.5898 50.852C46.5927 51.7516 46.6664 74.412 46.6704 75.6404L40.1913 71.8672ZM48.4065 75.6522C48.3838 68.69 48.3666 63.4068 48.3257 50.8529L55.1157 46.9382L55.1801 71.7398L48.4065 75.6522ZM56.8473 45.4359C56.8469 45.2878 56.8047 45.148 56.7354 45.0225C56.7323 45.0168 56.7333 45.0095 56.73 45.0039C56.7299 45.0038 56.7301 45.004 56.73 45.0039C56.7111 44.9713 56.6727 44.9536 56.6495 44.9237C56.5974 44.8559 56.5531 44.7817 56.482 44.7308L56.4337 25.5991L63.2542 29.5692C63.2655 33.2971 63.2131 16.0733 63.3651 66.0048L56.8973 62.2452L56.8473 45.4359Z" fill="white"/>
<path d="M72.6989 46.4564C72.22 46.4581 71.8318 46.848 71.8335 47.326L71.8428 50.7435C71.8445 51.2232 72.2327 51.6097 72.7107 51.6097H72.7133C73.1922 51.608 73.5804 51.2181 73.5787 50.7401L73.5694 47.3227C73.5677 46.8429 73.1795 46.4564 72.7014 46.4564H72.6989Z" fill="white"/>
<path d="M24.807 51.1877C27.3549 49.701 29.3509 46.2446 29.3509 43.3204C29.3509 41.9287 28.7717 40.4073 27.5363 39.8216L29.1619 33.9343C29.3686 33.8952 30.1738 33.644 30.7054 33.3274C32.428 32.3317 33.8915 30.3483 34.5941 28.6216L39.548 29.7081C39.338 30.4399 39.2184 31.1766 39.2202 31.8831C39.2289 35.1253 41.7654 36.6546 44.6523 34.9853C47.2044 33.5122 49.1971 30.0591 49.1894 27.1265C49.1872 26.2849 49.0143 25.5603 48.706 24.9656L53.61 16.4869C54.7433 16.8826 55.8497 16.596 56.8931 15.9927C59.446 14.5196 61.4387 11.0665 61.4302 8.13217C61.4215 4.83201 58.8774 3.36411 55.9989 5.03002C53.446 6.50312 51.4533 9.95617 51.4618 12.8888C51.4646 13.9281 51.741 14.7826 52.2151 15.4341L47.4466 23.6783C46.407 23.1346 45.1048 23.2446 43.7573 24.021C42.2898 24.868 41.0228 26.3776 40.1992 28.0588L35.0836 26.9501C35.1846 26.4417 35.2535 25.9403 35.2535 25.4585C35.2535 25.4568 35.2535 25.4551 35.2535 25.4534C35.2308 22.1885 32.72 20.6981 29.823 22.3631C27.2616 23.8294 25.2707 27.2808 25.2893 30.2151C25.2893 31.7975 25.9119 33.2793 27.3943 33.8137L25.8047 39.5708C25.1998 39.6389 24.569 39.8521 23.9205 40.225C21.3591 41.6914 19.3681 45.1427 19.3876 48.077C19.3876 51.4239 22.0248 52.7906 24.807 51.1877ZM56.8668 6.53194C58.567 5.5549 59.689 6.17205 59.6944 8.13556C59.7012 10.4274 58.0204 13.338 56.0252 14.4907C54.3479 15.4577 53.203 14.8248 53.1977 12.8854C53.1909 10.5936 54.8716 7.68465 56.8668 6.53194ZM44.6252 25.5246C46.3298 24.543 47.4482 25.1686 47.4536 27.1299C47.4595 29.4218 45.7788 32.3307 43.7844 33.4834C42.1031 34.4506 40.9614 33.8143 40.956 31.8797C40.9501 29.5879 42.6308 26.6773 44.6252 25.5246ZM30.6876 23.8684C32.3469 22.9133 33.5031 23.4676 33.5176 25.4618C33.5176 27.8898 31.7889 30.6974 29.8281 31.8306C28.2658 32.7591 27.0252 32.2257 27.0252 30.21C27.0099 27.9164 28.6864 25.0126 30.6876 23.8684ZM21.1234 48.072C21.1082 45.7801 22.7839 42.8763 24.7858 41.7287C26.4891 40.7483 27.6151 41.3983 27.6151 43.3204C27.6151 45.6462 25.9631 48.5025 23.9357 49.6858C22.2643 50.6509 21.1234 50.0097 21.1234 48.072Z" fill="white"/>
</svg>
