<svg width="93" height="92" viewBox="0 0 93 92" fill="none" xmlns="http://www.w3.org/2000/svg">
<path d="M23.4586 81.764C23.4594 82.0725 23.6238 82.3573 23.8908 82.5116L31.9717 87.2072C32.3748 87.442 32.869 87.2975 33.1091 86.9682L39.1499 78.6763L44.5854 80.1451C44.9388 80.235 45.3126 80.1045 45.5228 79.8053L51.1652 71.7498L56.5804 73.2187C56.9347 73.3153 57.3093 73.1797 57.5187 72.8788L63.1627 64.8217L68.6059 66.2779C69.1492 66.4268 69.7002 66.0136 69.6984 65.437L69.5416 10.2391C69.5405 9.88381 69.2838 9.59228 69.1102 9.49152L69.1082 9.49035C66.9417 8.23122 60.6469 4.57282 61.0294 4.79506C60.759 4.63826 60.4276 4.63826 60.1589 4.79337L54.6674 7.96332C54.2521 8.20319 54.1097 8.73378 54.3496 9.14909C54.5886 9.56526 55.1192 9.70595 55.5353 9.46694L60.5912 6.54786L66.942 10.2391L32.2518 30.267C32.0186 30.1315 25.5389 26.3656 25.9013 26.5762L45.5822 15.2135C45.9975 14.9737 46.1399 14.4431 45.9 14.0278C45.6584 13.6108 45.1279 13.4684 44.7142 13.7099L23.7357 25.8219C23.4644 25.979 23.3026 26.268 23.3018 26.5728L23.3022 26.5745L23.3018 26.5762L23.4586 81.764ZM25.0418 28.0844L31.384 31.7703L31.5351 84.9467L25.1927 81.2614L25.0418 28.0844ZM63.0246 62.9884C62.6745 62.8918 62.299 63.0316 62.0888 63.3283L56.4465 71.3837L51.0313 69.9148C50.6795 69.8199 50.304 69.9538 50.093 70.2547L44.4498 78.3101L39.0261 76.8447C38.6803 76.7531 38.3099 76.8803 38.098 77.1718L33.2677 83.8024C33.233 71.5434 33.1559 44.3758 33.1202 31.7704C41.1111 27.157 59.5508 16.511 67.81 11.7427L67.9592 64.3081L63.0246 62.9884Z" fill="white"/>
<path d="M49.1326 13.1633L52.4602 11.2426C52.8755 11.0028 53.0179 10.4722 52.7781 10.0569C52.5382 9.64071 52.0051 9.49747 51.5923 9.73903L48.2647 11.6597C47.8494 11.8995 47.707 12.4301 47.9468 12.8454C48.189 13.2635 48.7213 13.4009 49.1326 13.1633Z" fill="white"/>
<path d="M63.595 19.8125C63.3263 19.6574 62.9949 19.66 62.7279 19.8134L37.4191 34.4249C37.1495 34.5808 36.9843 34.8682 36.9851 35.1792L37.047 58.6861C37.0478 58.9954 37.214 59.2819 37.4826 59.4362C37.7497 59.59 38.0804 59.5903 38.3497 59.4345C41.3499 57.6988 59.8961 46.9691 63.6628 44.79C63.9315 44.6348 64.0967 44.3475 64.0959 44.0365L64.0298 20.5627C64.0289 20.2533 63.8628 19.9676 63.595 19.8125ZM62.3118 26.9445L58.505 29.1468L58.4912 24.264L62.2982 22.0663L62.3118 26.9445ZM52.8431 32.4222L52.8293 27.5327L56.7583 25.2645L56.772 30.1493L52.8431 32.4222ZM56.7776 32.1511L56.8188 46.7438L52.89 49.0167L52.8488 34.424L56.7776 32.1511ZM51.0963 28.5333L51.1101 33.4248L38.7354 40.5837L38.7227 35.6767L51.0963 28.5333ZM38.7407 42.5857L51.1157 35.4266L51.157 50.0193L38.7786 57.1808L38.7407 42.5857ZM58.5517 45.7412L58.5106 31.1485L62.3174 28.9463L62.3583 43.5389L58.5517 45.7412Z" fill="white"/>
<path d="M62.7932 49.7687L37.4802 64.4123C37.0657 64.6522 36.9233 65.1828 37.164 65.5981C37.4036 66.0139 37.9366 66.154 38.3498 65.9143L63.6628 51.2706C64.0773 51.0307 64.2197 50.5001 63.979 50.0848C63.7391 49.6703 63.2085 49.5254 62.7932 49.7687Z" fill="white"/>
<path d="M62.7932 56.2484L37.4802 70.893C37.0657 71.1328 36.9233 71.6634 37.164 72.0787C37.4035 72.4944 37.9365 72.6347 38.3498 72.3949L63.6628 57.7504C64.0773 57.5105 64.2197 56.9799 63.979 56.5646C63.7391 56.1493 63.2085 56.006 62.7932 56.2484Z" fill="white"/>
</svg>
