<svg width="93" height="92" viewBox="0 0 93 92" fill="none" xmlns="http://www.w3.org/2000/svg">
<path d="M14.1282 82.4663C14.129 82.7748 14.2934 83.0596 14.5604 83.2139C15.3778 83.6893 11.5995 81.4917 22.554 87.8637C22.8129 88.0129 23.1427 88.0222 23.421 87.8629L48.1265 73.6061C48.7686 74.5745 49.5775 75.3613 50.5496 75.9281L55.9928 79.0251C55.998 79.0281 56.0041 79.0267 56.0094 79.0296L56.0165 79.0345C59.1014 80.8096 62.8056 79.9295 65.9138 78.1352C73.1665 73.9481 79.0479 63.7492 79.0242 55.3996C79.0123 51.1914 77.5307 48.0248 74.8532 46.4839C74.6794 46.3839 69.2589 43.303 69.4329 43.4038C68.0997 42.6269 66.5632 42.3149 64.9044 42.4527L64.8382 21.9625L64.8365 21.9561L64.8034 9.53186C64.8024 9.23272 64.5273 8.87459 64.372 8.78429L56.3793 4.13869C56.1106 3.98104 55.7775 3.98273 55.5088 4.13699L35.4821 15.6997C35.0668 15.9396 34.9244 16.4702 35.1643 16.8855C35.4033 17.3008 35.9348 17.4406 36.3501 17.2033L55.9411 5.89149L62.2038 9.53186L22.8374 32.2595L16.5751 28.6203L24.8763 23.828C25.2917 23.5882 25.4341 23.0576 25.1942 22.6423C24.9535 22.2261 24.4203 22.0854 24.0084 22.3244L14.4095 27.8659C14.1382 28.023 13.9764 28.3121 13.9756 28.6169L13.976 28.6186L13.9756 28.6203L14.1282 82.4663ZM63.0718 11.0355L63.0989 21.4657L23.7351 44.1898L23.7088 34.9238L23.7058 33.7628C32.805 28.5095 53.864 16.3514 63.0718 11.0355ZM15.7157 30.1283L21.9696 33.7627C21.9844 39.0627 21.9158 14.5629 22.1147 85.5971L15.8623 81.9637L15.7157 30.1283ZM77.2883 55.4047C77.3103 63.1999 71.8189 72.7225 65.0458 76.6316C61.914 78.4395 59.0161 78.7565 56.8819 77.53C51.2234 74.2731 53.8553 63.7452 57.1536 58.0364C59.3732 54.1965 62.4421 50.8401 65.8307 48.8834C65.8544 48.8698 65.8774 48.86 65.9011 48.8464C72.4788 45.0907 77.2678 48.2404 77.2883 55.4047ZM68.5675 44.9083L69.7957 45.6067C68.1547 45.8388 66.3568 46.572 64.9628 47.379C61.6466 49.2933 58.6256 52.4661 56.315 56.1362C53.5672 60.4989 51.8261 65.5673 51.8363 70.095C51.8446 72.056 52.2424 73.9445 52.7601 75.189L51.4159 74.4245C50.4463 73.8587 49.6861 72.9812 49.1354 71.8641C48.4128 70.4057 48.136 68.5827 48.1289 66.9937C48.1227 63.8484 49.1028 59.6339 51.4837 55.3691C51.4965 55.3463 51.5064 55.3215 51.5169 55.2972C54.0986 50.701 57.4161 47.5026 60.3926 45.7872C62.9115 44.3459 66.0482 43.4422 68.5675 44.9083ZM59.5187 44.2836C55.6321 46.5277 52.3338 50.3326 50.0805 54.3163L27.6912 67.2302C27.2759 67.4701 27.1335 68.0006 27.3733 68.416C27.6107 68.8257 28.1378 68.9757 28.5591 68.7338L48.6666 57.1361C47.4789 59.8043 46.6695 62.6328 46.4515 65.5713L27.6912 76.3959C27.2759 76.6358 27.1335 77.1664 27.3733 77.5817C27.6155 77.9998 28.1478 78.1372 28.5591 77.8996L46.4148 67.5968C46.4931 69.4746 46.856 70.98 47.3119 72.0724L23.8525 85.6099L23.7408 46.1949L63.1074 23.4663L63.1693 42.7605C63.1422 42.7675 63.1141 42.7811 63.087 42.7883C61.8808 43.1077 60.5321 43.6981 59.5187 44.2836Z" fill="white"/>
<path d="M28.5252 21.7218L32.2952 19.5444C32.7105 19.3045 32.8529 18.7739 32.6131 18.3586C32.3715 17.9425 31.8401 17.8001 31.4273 18.0408L27.6573 20.2182C27.2419 20.4581 27.0995 20.9887 27.3394 21.404C27.5799 21.8204 28.1121 21.9604 28.5252 21.7218Z" fill="white"/>
<path d="M41.2686 32.4285C42.6994 31.6021 43.8173 29.6653 43.8131 28.0185C43.806 26.0437 42.1369 25.0727 40.3871 26.0809C38.9505 26.9107 37.8283 28.8406 37.8325 30.4748C37.8397 32.4934 39.5003 33.4484 41.2686 32.4285ZM41.2551 27.5845C41.8184 27.2591 42.0756 27.3709 42.0772 28.0236C42.0798 29.0517 41.2966 30.4078 40.4007 30.9248C39.8161 31.2665 39.57 31.1605 39.5684 30.4697C39.5658 29.4534 40.3541 28.1049 41.2551 27.5845Z" fill="white"/>
<path d="M49.7096 27.5549C51.1412 26.7285 52.2592 24.7917 52.2541 23.1449C52.2487 21.1672 50.5855 20.1952 48.8282 21.2073C47.3957 22.0345 46.2786 23.962 46.2837 25.5952C46.2891 27.6171 47.9557 28.5693 49.7096 27.5549ZM49.6961 22.7109C50.3107 22.3566 50.5167 22.5465 50.5182 23.15C50.5216 24.1789 49.7385 25.5342 48.8417 26.0512C48.2865 26.3719 48.0213 26.308 48.0196 25.5902C48.0162 24.5739 48.7993 23.2279 49.6961 22.7109Z" fill="white"/>
<path d="M58.1508 22.6821C59.5824 21.8549 60.7003 19.9182 60.6961 18.2713C60.6889 16.2834 59.0143 15.3239 57.2693 16.3337C55.8386 17.1601 54.7206 19.0875 54.7249 20.7217C54.732 22.7376 56.3906 23.697 58.1508 22.6821ZM58.1372 17.8373C58.698 17.5141 58.9585 17.6095 58.9602 18.2764C58.9628 19.3232 58.1949 20.6522 57.2829 21.1785C56.7213 21.5062 56.4624 21.4232 56.4607 20.7166C56.4582 19.7003 57.2413 18.3544 58.1372 17.8373Z" fill="white"/>
<path d="M35.6931 46.1526C35.8406 46.1526 35.9898 46.1153 36.1263 46.0365L59.2636 32.6777C59.6789 32.4378 59.8213 31.9073 59.5814 31.4919C59.3407 31.0758 58.8076 30.9325 58.3956 31.1741L35.2583 44.5328C34.843 44.7727 34.7006 45.3033 34.9405 45.7186C35.1015 45.9975 35.3931 46.1526 35.6931 46.1526Z" fill="white"/>
<path d="M58.3956 40.3397L35.2583 53.6985C34.843 53.9383 34.7006 54.4689 34.9405 54.8842C35.1015 55.1631 35.3931 55.3182 35.6931 55.3182C35.8406 55.3182 35.9898 55.2809 36.1263 55.2021L59.2636 41.8433C59.6789 41.6035 59.8213 41.0729 59.5814 40.6576C59.3407 40.2414 58.8076 40.099 58.3956 40.3397Z" fill="white"/>
<path d="M32.4775 54.1037C31.785 53.7053 30.8959 53.763 30.0348 54.2596C29.6712 54.4707 29.422 54.4758 29.3211 54.4181C29.2211 54.3605 29.1041 54.1478 29.1033 53.7358C29.0999 52.6399 29.9348 51.1956 30.8892 50.6447C31.2494 50.4354 31.4952 50.4294 31.5969 50.4888C31.6969 50.5464 31.8147 50.76 31.8156 51.1728C31.8173 51.6525 32.2054 51.9585 32.686 52.0381C33.1658 52.0364 33.5531 51.6466 33.5514 51.1677C33.548 50.1768 33.1514 49.381 32.4623 48.9843C32.1219 48.7886 31.7325 48.706 31.3231 48.7291V47.5214C31.3231 47.0416 30.9349 46.6534 30.4552 46.6534C29.9755 46.6534 29.5873 47.0416 29.5873 47.5214V49.4406C28.3095 50.4117 27.3629 52.1951 27.3674 53.7401C27.37 54.7309 27.7667 55.5268 28.4549 55.9226C29.1491 56.3235 30.0399 56.2625 30.9036 55.7633C31.2646 55.5548 31.5104 55.5488 31.6113 55.6082C31.7113 55.6658 31.8291 55.8794 31.83 56.2913C31.8334 57.383 31.0019 58.8222 30.05 59.3714C29.6856 59.5816 29.4372 59.5892 29.3338 59.5299C29.2347 59.4723 29.1186 59.2612 29.1177 58.8544C29.116 58.3755 28.7278 57.989 28.2498 57.989H28.2472C27.7675 57.9907 27.3802 58.3806 27.3819 58.8595C27.3852 59.8461 27.7811 60.6386 28.4685 61.0344C28.7727 61.209 29.1152 61.2963 29.4779 61.2963C29.5134 61.2963 29.5515 61.2818 29.5873 61.2801V62.5143C29.5873 62.994 29.9755 63.3822 30.4552 63.3822C30.9349 63.3822 31.3231 62.994 31.3231 62.5143V60.5954C32.6118 59.6313 33.5705 57.8391 33.5658 56.2862C33.5633 55.2954 33.1658 54.5004 32.4775 54.1037Z" fill="white"/>
<path d="M68.2116 62.0651C68.9405 60.853 69.3507 59.5155 69.3473 58.3264C69.3439 57.0431 68.8413 56.0193 67.9691 55.5166C67.0936 55.0149 65.9527 55.0937 64.8356 55.7396C62.7887 56.9202 61.191 59.6859 61.1978 62.0346C61.2012 63.2203 61.6114 64.1561 62.3293 64.6849L60.88 69.9027C60.7859 70.2425 60.9062 70.6053 61.1851 70.8214C61.3402 70.9418 61.5284 71.0028 61.7165 71.0028C61.8657 71.0028 62.0157 70.9647 62.1505 70.8867L69.5829 66.5954C69.9822 66.3649 70.1313 65.8631 69.9237 65.452L68.2116 62.0651ZM63.121 68.3219L64.1932 64.4629C64.255 64.24 64.2254 64.0018 64.1109 63.8009C63.9957 63.6 63.8058 63.4526 63.5829 63.3924C62.9998 63.2356 62.9345 62.3871 62.9337 62.0295C62.9286 60.3038 64.1966 58.1119 65.7036 57.2432C66.0697 57.0313 66.4121 56.9236 66.6961 56.9236C66.8512 56.9236 66.9885 56.9558 67.1029 57.0211C67.4241 57.2067 67.6098 57.6839 67.6115 58.3315C67.614 59.3079 67.1978 60.5013 66.4969 61.5226C66.3181 61.7837 66.2952 62.1219 66.4384 62.4049L68.0039 65.502L63.121 68.3219Z" fill="white"/>
</svg>
