<svg width="93" height="92" viewBox="0 0 93 92" fill="none" xmlns="http://www.w3.org/2000/svg">
<path d="M20.2813 72.1207H20.2838C20.7627 72.119 21.1509 71.73 21.1492 71.2503L21.1399 67.9956C21.1382 67.5175 20.75 67.1302 20.272 67.1302C19.7575 67.092 19.4024 67.5201 19.4041 68.0006L19.4134 71.2554C19.4151 71.7334 19.8033 72.1207 20.2813 72.1207Z" fill="white"/>
<path d="M19.3956 64.8545C19.3972 65.3325 19.7854 65.7198 20.2635 65.7198C20.7169 65.6529 21.1331 65.3299 21.1314 64.8494L21.0875 49.4104L29.0543 54.0398L29.1428 85.282L21.1755 80.6525L21.1577 74.2338C21.156 73.7558 20.7678 73.3684 20.2898 73.3684C19.7575 73.3286 19.4201 73.7583 19.4218 74.2389L19.4413 81.1552C19.4422 81.4637 19.6066 81.7485 19.8736 81.9027C19.94 81.9413 18.9466 81.364 29.5818 87.5451C29.8458 87.6971 30.1772 87.7007 30.4489 87.5442L73.2696 62.822C73.5391 62.666 73.7044 62.3787 73.7036 62.0676C73.6979 60.0863 73.5738 16.4923 73.5578 10.8456C73.5572 10.6708 73.395 10.254 73.1264 10.0981L73.1243 10.0969L73.123 10.0955C72.9487 9.99097 63.2476 4.3469 63.4215 4.45741C63.1529 4.30061 62.8197 4.30061 62.5511 4.45572L19.7303 29.1789C19.459 29.3359 19.2972 29.625 19.2964 29.9298L19.2968 29.9315L19.2964 29.9332C19.428 76.2798 19.3837 60.679 19.3956 64.8545ZM71.8262 12.3493L71.8711 28.3175L47.3836 42.4562L46.0546 39.1481C45.9613 38.915 45.7706 38.7337 45.5325 38.6514C45.2977 38.5709 45.0332 38.5946 44.8154 38.7201L36.8719 43.3064C36.66 43.4293 36.5091 43.6352 36.4574 43.8742L35.2453 49.464L30.7845 52.039L30.7396 36.0708C38.419 31.637 59.792 19.2972 71.8262 12.3493ZM21.0365 31.4411L29.0034 36.0703L29.0487 52.0297L21.0818 47.4004L21.0365 31.4411ZM30.8786 85.2914L30.7905 54.0404L36.4464 50.7753C36.6583 50.6524 36.8091 50.4464 36.8608 50.2074L38.0729 44.6176L44.8171 40.7238L46.1461 44.0319C46.2393 44.265 46.43 44.4464 46.6682 44.5286C46.9038 44.6099 47.1683 44.5862 47.3853 44.4599L71.877 30.3189L71.966 61.5701L30.8786 85.2914ZM62.9833 6.21022L70.9582 10.8456L29.8711 34.5675L21.8959 29.9332L62.9833 6.21022Z" fill="white"/>
<path d="M58.5708 31.23C60.1422 30.3231 61.3687 28.1973 61.3636 26.3911C61.3582 24.222 59.572 23.1971 57.6876 24.2891C56.1111 25.1986 54.8804 27.326 54.8855 29.1339C54.8908 31.2851 56.6781 32.3224 58.5708 31.23ZM58.5555 25.7927C59.24 25.3969 59.6258 25.524 59.6277 26.3962C59.6311 27.576 58.7318 29.1322 57.7029 29.7264C56.9866 30.1454 56.6232 29.9488 56.6214 29.1288C56.618 27.9481 57.5215 26.3886 58.5555 25.7927Z" fill="white"/>
<path d="M49.7932 36.2951C51.3638 35.3882 52.5902 33.2625 52.5852 31.4563C52.5798 29.2982 50.8113 28.2624 48.91 29.3542C47.3335 30.2646 46.1028 32.3928 46.1079 34.199C46.1133 36.3676 47.9144 37.3795 49.7932 36.2951ZM49.778 30.8579C50.4711 30.457 50.8474 30.6004 50.8493 31.4613C50.8527 32.642 49.9534 34.1982 48.9253 34.7915C48.232 35.1933 47.8457 35.0443 47.8438 34.1939C47.8404 33.0133 48.7439 31.4546 49.778 30.8579Z" fill="white"/>
<path d="M67.339 26.1657C68.9155 25.2546 70.1462 23.1271 70.1411 21.3209C70.1358 19.1648 68.3527 18.1278 66.455 19.2249C64.8785 20.1352 63.6478 22.2626 63.6528 24.0697C63.6582 26.225 65.45 27.256 67.339 26.1657ZM67.3229 20.7285C68.0359 20.3165 68.4034 20.485 68.4052 21.326C68.4086 22.5059 67.5043 24.0654 66.4711 24.6621C65.7718 25.0695 65.3906 24.9069 65.3887 24.0646C65.3853 22.8839 66.2888 21.3252 67.3229 20.7285Z" fill="white"/>
<path d="M67.1288 36.5968C66.8601 36.4426 66.5287 36.4434 66.2617 36.5977L35.5597 54.3232C35.2902 54.4791 35.1249 54.7665 35.1257 55.0775L35.1918 78.264C35.1927 78.5734 35.3588 78.859 35.6267 79.0141C35.8906 79.1661 36.2221 79.1697 36.4937 79.0133L67.1957 61.2869C67.4652 61.131 67.6305 60.8436 67.6297 60.5326L67.5636 37.347C67.5627 37.0376 67.3966 36.7519 67.1288 36.5968ZM36.8874 64.0798L41.4374 61.4529L41.4526 66.7807L36.9026 69.4076L36.8874 64.0798ZM43.1704 60.4525L47.8154 57.7707L47.8307 63.0985L43.1856 65.7803L43.1704 60.4525ZM54.1968 52.0819L49.5427 54.7688L49.5241 48.2655L54.1785 45.5785L54.1968 52.0819ZM55.9115 44.5779L60.5659 41.8908L60.5843 48.3941L55.9299 51.0813L55.9115 44.5779ZM54.2025 54.0833L54.2174 59.4112L49.5637 62.098L49.5484 56.7702L54.2025 54.0833ZM47.8097 55.7693L43.1646 58.451L43.1461 51.9478L47.7912 49.2661L47.8097 55.7693ZM47.8363 65.0999L47.8517 70.4509L43.2066 73.1327L43.1913 67.7816L47.8363 65.0999ZM49.5694 64.0994L54.223 61.4127L54.2382 66.7636L49.5846 69.4503L49.5694 64.0994ZM55.9561 60.4121L60.6107 57.7249L60.6259 63.0756L55.9712 65.763L55.9561 60.4121ZM55.9505 58.4107L55.9355 53.0827L60.59 50.3956L60.605 55.7235L55.9505 58.4107ZM62.323 49.395L65.8561 47.3553L65.8713 52.6831L62.3381 54.7229L62.323 49.395ZM65.8504 45.3539L62.3173 47.3937L62.2989 40.8903L65.832 38.8506L65.8504 45.3539ZM41.4131 52.9483L41.4316 59.4516L36.8817 62.0784L36.8633 55.5751L41.4131 52.9483ZM36.9083 71.4091L41.4582 68.7822L41.4736 74.1333L36.9235 76.7604L36.9083 71.4091ZM62.3589 62.075L62.3437 56.7244L65.877 54.6846L65.8921 60.035L62.3589 62.075Z" fill="white"/>
</svg>
