<svg width="93" height="92" viewBox="0 0 93 92" fill="none" xmlns="http://www.w3.org/2000/svg">
<path d="M20.219 81.5908C20.2886 81.6312 19.2444 81.0244 30.4638 87.5451C30.7277 87.6971 31.0592 87.7007 31.3308 87.5442L72.926 63.5297C73.1955 63.3737 73.3608 63.0864 73.3599 62.7753C73.3592 62.5388 73.2169 12.4477 73.2133 11.1576C73.2125 10.9072 72.9525 10.509 72.7819 10.41L72.7799 10.4088C72.0245 9.96981 61.942 4.10952 62.5405 4.45741C62.2718 4.29976 61.9387 4.30146 61.6701 4.45572L20.0741 28.4711C19.8028 28.6282 19.6409 28.9173 19.6401 29.2221L19.6406 29.2238L19.6401 29.2255L19.7478 67.1506C19.7495 67.6286 20.1377 68.0159 20.6157 68.0159H20.6182C21.0971 68.0142 21.4853 67.6252 21.4836 67.1455L21.4193 44.5005L29.9227 49.443L30.0246 85.282L21.5209 80.3406L21.5074 75.2814C21.5057 74.8034 21.1175 74.416 20.6394 74.416C20.214 74.4415 19.7698 74.8059 19.7715 75.2865L19.7868 80.8432C19.7876 81.1518 19.952 81.4366 20.219 81.5908ZM71.4817 12.6612L71.5156 24.4271L49.1945 37.3148L47.7722 33.7719C47.5738 33.2758 46.982 33.0846 46.5331 33.3439L38.1496 38.1836C37.9377 38.3065 37.7869 38.5124 37.7352 38.7514L36.4511 44.6718L31.653 47.4416L31.6437 44.1543L31.6199 35.6749C41.0607 30.2244 62.1167 18.0679 71.4817 12.6612ZM31.7606 85.2914L31.6589 49.4431L37.6521 45.983C37.864 45.8601 38.0149 45.6542 38.0666 45.4151L39.3507 39.4948L46.5348 35.3476L47.957 38.8905C48.1534 39.3814 48.7424 39.5816 49.1962 39.3185L71.5215 26.4284L71.6224 62.2778L31.7606 85.2914ZM62.1023 6.21022L70.6136 11.1576L30.7514 34.1716L22.2397 29.2255L62.1023 6.21022ZM29.8837 35.6745L29.9171 47.4315L21.4141 42.4901L21.3802 30.7333L29.8837 35.6745Z" fill="white"/>
<path d="M20.6344 73.5854C21.1142 73.5837 21.5015 73.1946 21.4998 72.7149L21.4922 70.1111C21.4905 69.6322 21.1023 69.2457 20.6243 69.2457H20.6217C20.142 69.2474 19.7547 69.6365 19.7564 70.1162L19.764 72.72C19.7657 73.1989 20.1539 73.5854 20.6319 73.5854H20.6344Z" fill="white"/>
<path d="M59.6393 28.7296C61.0369 27.9218 62.1278 26.0309 62.1227 24.4247C62.1173 22.4521 60.4748 21.5111 58.7578 22.4999C57.3559 23.3102 56.2616 25.2028 56.2659 26.8098C56.2712 28.7661 57.9185 29.7224 59.6393 28.7296ZM59.6257 24.0035C60.1564 23.698 60.3851 23.7797 60.3868 24.4298C60.3902 25.4206 59.635 26.7268 58.7713 27.226C58.2288 27.5423 58.0034 27.4301 58.0017 26.8047C57.9992 25.8139 58.7578 24.5044 59.6257 24.0035Z" fill="white"/>
<path d="M52.0111 33.132C53.4079 32.3242 54.4987 30.4341 54.4945 28.8271C54.4892 26.8553 52.8492 25.9143 51.1296 26.9022C49.7269 27.7125 48.6326 29.606 48.6377 31.2122C48.6431 33.181 50.3004 34.1191 52.0111 33.132ZM51.9975 28.4059C52.5282 28.1004 52.757 28.1821 52.7587 28.8322C52.7612 29.823 52.006 31.13 51.1432 31.6284C50.6015 31.9435 50.3752 31.8348 50.3736 31.2071C50.3702 30.2163 51.1296 28.9076 51.9975 28.4059Z" fill="white"/>
<path d="M67.2591 24.3282C68.661 23.5187 69.7561 21.6261 69.7519 20.019C69.7447 18.0483 68.0981 17.1088 66.3776 18.0993C64.9766 18.9079 63.8815 20.8005 63.8858 22.4084C63.8911 24.3686 65.5418 25.3191 67.2591 24.3282ZM67.2456 19.6029C67.8508 19.2535 68.0145 19.4602 68.016 20.0241C68.0186 21.015 67.2591 22.3236 66.3912 22.8245C65.8619 23.1332 65.6233 23.0432 65.6216 22.4033C65.6191 21.4125 66.3776 20.1038 67.2456 19.6029Z" fill="white"/>
<path d="M51.1745 41.6723C44.482 45.5355 39.0549 54.9369 39.077 62.6287C39.0996 70.6174 44.9807 74.1643 52.1179 70.0442C58.8045 66.1835 64.2273 56.7957 64.2052 49.1174C64.1824 41.015 58.2206 37.6049 51.1745 41.6723ZM51.25 68.5406C45.3678 71.9357 40.8322 69.3728 40.8128 62.6237C40.7925 55.4862 45.8297 46.762 52.0424 43.1759C57.935 39.7738 62.4501 42.3749 62.4694 49.1225C62.4897 56.2464 57.4568 64.957 51.25 68.5406Z" fill="white"/>
<path d="M56.6023 49.0191L53.7815 50.6482L52.9492 48.2215C52.7049 47.5299 51.9346 47.2034 51.1854 47.6308C50.7429 47.8868 50.3997 48.3589 50.2658 48.8988L49.2436 53.1672C49.2283 53.2325 49.1741 53.3045 49.1461 53.3231L45.8032 55.2531C45.1684 55.6209 44.7573 56.427 44.8463 57.1288C44.9099 57.628 45.2337 58.0162 45.71 58.1484L47.9171 58.7053L46.967 62.6203C46.5906 64.1793 48.3392 64.9556 49.3504 63.5331L52.0194 59.7605L54.4884 60.4039C54.8054 60.4734 55.1266 60.4191 55.4284 60.2445C56.0768 59.8699 56.5955 58.9274 56.3285 58.1128L55.3657 55.0268L58.0661 51.2059C58.5526 50.5185 58.5755 49.6913 58.122 49.1946C57.7389 48.7733 57.1413 48.7047 56.6023 49.0191ZM53.9443 54.0309C53.5823 54.5521 53.473 55.1522 53.6451 55.6142L54.6664 58.557C54.663 58.5799 54.6486 58.6138 54.63 58.6468L52.1609 58.0043C51.844 57.9306 51.5193 57.9882 51.2176 58.1645C50.9981 58.2908 50.7938 58.479 50.6226 58.7172L49.2181 60.7056L49.686 58.7756C49.8555 58.0357 49.5385 57.3763 48.8588 57.1551L46.8585 56.6491L50.014 54.8268C50.4624 54.5674 50.8158 54.0792 50.9336 53.5622L51.7609 50.1083L52.3542 51.8373C52.5807 52.5509 53.3782 52.8833 54.1273 52.4527L55.7021 51.5432L53.9443 54.0309Z" fill="white"/>
</svg>
