<svg width="93" height="92" viewBox="0 0 93 92" fill="none" xmlns="http://www.w3.org/2000/svg">
<path d="M36.7629 87.5588C37.7969 88.1627 39.1256 88.465 40.4517 88.465C41.763 88.465 43.0718 88.1696 44.0929 87.5778C45.2281 86.9195 45.8786 85.9572 45.8786 84.9395L45.9119 72.9389C50.1421 72.39 54.0455 71.1915 57.2487 69.4192C58.8779 69.3085 60.6243 68.7581 62.4496 67.7042C65.8006 65.77 69.1412 62.3283 71.624 58.2473C75.5391 51.5125 77.9303 45.194 76.8781 36.2494C76.7802 36.033 76.7662 35.7819 76.4358 35.5894L71.0028 32.4297C70.2895 28.7895 68.5564 25.5589 65.3341 23.6859L59.0718 20.0464C58.1897 19.5341 57.2006 19.1186 56.1311 18.8128C55.9211 18.7516 55.6324 18.7728 55.3773 18.9573C55.1126 19.1491 55.0008 19.4075 55.0126 19.697C55.0738 21.2031 55.1152 22.2423 54.8341 24.3968L41.1652 3.9281C41.0011 3.68276 40.7246 3.53503 40.4292 3.53503C40.1337 3.53503 39.8564 3.68362 39.6923 3.92983L36.7378 8.37018C36.4674 8.77707 36.578 9.32564 36.9849 9.5969C37.3901 9.86643 37.9404 9.75758 38.2116 9.34983L40.4309 6.01438C46.4129 14.9281 53.0483 24.9805 54.397 26.8062C54.0145 28.4664 53.7778 29.3406 53.0181 31.2263C52.2042 33.2305 50.2722 35.9688 48.162 36.0316L46.7787 35.23C46.5463 35.0952 46.2673 35.0719 46.0194 35.1695C45.7706 35.2646 45.5771 35.4676 45.4941 35.7216C45.2916 36.3429 45.04 37.147 44.8368 37.8111C42.3488 38.235 39.586 38.2772 37.234 37.9789C34.8641 37.6786 32.3602 37.0132 30.238 35.8961C30.0604 35.7839 28.6863 35.1437 27.3544 33.8466C25.3898 31.8941 24.925 29.6593 26.0507 27.5458C26.301 27.0669 25.1928 28.8248 33.0439 17.0824C33.3151 16.6755 33.2054 16.127 32.7985 15.8557C32.389 15.5845 31.8422 15.6933 31.5718 16.1011C31.4526 16.2782 24.578 26.5434 24.4854 26.7208C23.0941 29.3319 23.5259 32.1464 25.6203 34.5524C25.5474 34.6596 21.6225 40.5073 21.549 40.644C20.3431 42.908 20.3183 45.3731 21.4336 47.6463C21.3139 47.8242 17.1791 53.9396 17.0361 54.2164C14.2086 59.5526 16.6232 65.2784 23.3347 69.159C26.5644 71.0406 30.5899 72.3158 34.9951 72.9159L34.9617 84.9015C34.9617 85.939 35.6208 86.91 36.7629 87.5588ZM44.1093 84.9369C44.1093 85.3041 43.7716 85.7187 43.2049 86.047C41.7026 86.9169 39.1619 86.91 37.6458 86.0263C37.0644 85.6954 36.7309 85.2851 36.7309 84.9041L36.7637 73.1406C39.0394 73.3435 41.5877 73.381 44.1422 73.1579L44.1093 84.9369ZM46.7777 37.5368L51.4638 40.2602C49.792 45.5437 48.0173 52.5249 48.0037 58.09C47.9999 60.0092 48.1856 62.3333 49.0894 64.1911L47.5381 63.2924C46.3885 62.6343 45.2251 61.198 44.6206 60.1321C41.8205 55.1629 45.0574 42.9698 46.7777 37.5368ZM54.5217 32.2669C55.9662 28.7984 56.8741 24.9991 56.8421 21.2412L61.2753 23.8177C61.5119 27.7873 60.6629 31.597 59.1538 35.2248C58.4316 36.9465 57.1971 38.4385 55.8512 39.2151C54.9613 39.7281 53.8961 39.9747 53.3244 39.1322C53.3227 39.1297 53.3196 39.1291 53.3179 39.1268C53.2455 39.0222 53.1585 38.9271 53.0427 38.86L50.2342 37.2325C52.0875 36.2604 53.7162 34.1986 54.5217 32.2669ZM60.5577 48.6712C61.0025 49.9013 61.7559 50.887 62.7891 51.5781C63.3514 51.9608 63.9199 52.5025 64.5281 53.2324C64.7406 53.4882 65.0766 53.5979 65.3997 53.5305C65.7228 53.4588 65.9785 53.2126 66.0632 52.8921L66.7681 50.2192C67.4393 51.9219 67.5836 54.0791 67.2173 56.7182C66.0908 61.4212 63.8568 64.6374 60.2743 66.7911C57.2732 68.1508 56.3523 67.0615 55.9151 66.1138C55.4685 65.1817 55.4253 63.6491 55.7925 61.7978C56.0827 60.3344 56.132 59.1094 56.1164 58.3C56.6313 58.3941 57.0503 58.6248 57.4356 59.0161C57.7112 59.2978 58.1388 59.3608 58.4835 59.1742C58.829 58.9894 59.0113 58.598 58.931 58.2136C58.3409 55.3913 58.8878 52.1897 60.5577 48.6712ZM71.3588 34.6832L74.6389 36.5906L71.3631 40.504C71.5305 38.3531 71.4947 36.1088 71.3588 34.6832ZM69.3839 33.2769C69.9099 36.3281 69.7039 40.1393 69.288 43.1941C69.2353 43.5846 69.447 43.963 69.8072 44.1219C70.103 44.2552 70.5768 44.1683 70.8238 43.8936C70.9841 43.7152 75.475 38.3777 75.3076 38.556C75.6816 44.947 74.1405 50.3981 70.1035 57.3428C69.4049 58.4909 68.629 59.5749 67.8098 60.5918C68.2662 59.5037 68.6479 58.3276 68.9537 57.0465C69.5463 52.8117 68.958 49.6447 67.1551 47.3658C66.9478 47.1032 66.6135 46.9805 66.2809 47.0488C65.9526 47.117 65.6917 47.365 65.6062 47.6889L64.7596 50.8982C64.4339 50.5967 64.1082 50.3359 63.7791 50.1121C61.7982 48.7856 61.8932 46.1384 61.8517 45.9577C61.8284 45.569 61.5528 45.2415 61.1745 45.1508C60.7918 45.0619 60.4013 45.2286 60.2052 45.5646C57.8537 49.586 56.7643 53.3188 56.9527 56.6897C56.3981 56.5161 55.7882 56.4547 55.1135 56.4962C54.869 56.5126 54.6427 56.6292 54.488 56.8193C54.3325 57.0085 54.2634 57.2538 54.2954 57.4957C54.304 57.5631 54.5096 59.1716 54.0578 61.454C53.6796 63.3556 53.5492 65.5654 54.5095 67.2466C50.9186 65.7969 49.7929 61.909 49.7983 58.0816C49.8077 52.7205 51.4385 46.3001 53.0424 41.1675C53.9138 41.5926 55.3187 41.5663 56.7358 40.7476C58.4049 39.7835 59.9184 37.9754 60.7857 35.9064C62.2302 32.4375 63.2021 28.3716 63.1016 24.5701C63.5915 24.9508 68.1398 26.0028 69.3839 33.2769ZM23.1092 41.4785C23.2067 41.2972 26.778 36.0004 26.9043 35.8149C28.0891 36.7872 29.2238 37.3439 29.4017 37.4554C31.2409 38.4236 33.9672 39.3505 37.1944 39.7385C39.5024 40.0159 41.9775 40.0168 44.2812 39.7015C43.3197 43.5301 41.7697 48.7001 41.7421 54.3782C39.9188 54.4457 38.1446 54.391 36.2523 54.1257C33.2377 53.6767 30.3269 52.9293 27.5504 51.3181C25.5644 50.1639 24.0681 48.7662 23.2207 47.2717C22.1365 45.3815 22.0976 43.3773 23.1092 41.4785ZM18.6041 55.0362C18.7144 54.8223 18.478 55.1129 22.4527 49.3035C23.3099 50.4166 24.8082 51.7701 26.6624 52.848C31.0603 55.4 36.1839 55.9313 36.007 55.8777C37.8932 56.1428 40.2329 56.2378 41.8009 56.1782C41.9174 57.7402 42.2745 59.5631 43.0336 60.9116C43.7618 62.2486 45.1463 63.9516 46.6483 64.8344C48.6334 65.9754 53.028 68.6175 54.0834 69.0039C51.3652 70.155 48.2521 70.9403 44.9309 71.3014C42.3611 71.5882 39.0722 71.6279 35.9793 71.2841C35.9791 71.2841 35.9796 71.2841 35.9793 71.2841C31.5049 70.7664 27.4404 69.5029 24.2228 67.6282C18.4192 64.2737 16.2638 59.4515 18.6041 55.0362Z" fill="black"/>
<path d="M36.1597 10.8124C35.7519 10.5411 35.2025 10.6534 34.933 11.0594C34.8142 11.2377 33.2039 13.654 33.3227 13.4757C33.0491 13.8862 33.1668 14.4425 33.5698 14.7102C33.9785 14.9812 34.5268 14.8684 34.7965 14.4631C34.9152 14.2848 36.5229 11.8703 36.4042 12.0486C36.6693 11.6512 36.5787 11.0907 36.1597 10.8124Z" fill="black"/>
</svg>
