<svg width="93" height="92" viewBox="0 0 93 92" fill="none" xmlns="http://www.w3.org/2000/svg">
<path d="M59.4483 88.4367C71.2929 88.9288 81.194 79.4844 81.194 67.5705C81.194 60.6301 77.7548 54.1587 71.9945 50.26C71.7517 50.0959 71.6066 49.8376 71.6066 49.5698V10.461V10.4437C71.6066 8.49477 70.3566 6.70307 68.0871 5.39861C63.7686 2.91927 56.7668 2.92877 52.4811 5.41675C50.2454 6.7048 49.0143 8.49045 49.0143 10.4437V16.9271C49.0143 17.4161 49.41 17.8117 49.899 17.8117C50.3879 17.8117 50.7836 17.4161 50.7836 16.9271V14.18C51.1259 14.5081 51.8679 15.0855 52.5321 15.4706C56.8601 17.9724 63.8636 17.9724 68.1398 15.4706C68.7861 15.0985 69.4354 14.605 69.8374 14.224V49.5698C69.8374 50.425 70.2728 51.231 71.0027 51.7252C76.2767 55.2939 79.4247 61.2175 79.4247 67.5705C79.4247 78.3433 70.5316 87.0871 59.5192 86.6692C49.7106 86.2735 41.4943 77.9664 41.2057 68.151C41.0113 61.5631 44.1559 55.4226 49.6173 51.726C50.3473 51.2319 50.7836 50.425 50.7836 49.568V23.6723C50.7836 23.1834 50.3879 22.7877 49.899 22.7877C49.41 22.7877 49.0143 23.1834 49.0143 23.6723V49.568C49.0143 49.8376 48.8692 50.0959 48.6256 50.2609C42.6596 54.2995 39.2248 61.0067 39.4365 68.2029C39.7527 78.9279 48.7301 88.0048 59.4483 88.4367ZM67.2518 13.9407C63.4585 16.1574 57.2532 16.1565 53.4184 13.939C51.7192 12.9541 50.7836 11.7127 50.7836 10.4437C50.7836 9.14959 51.7002 7.90819 53.3666 6.94842C55.2723 5.84178 57.7819 5.2889 60.2941 5.2889C62.7941 5.2889 65.2959 5.8366 67.206 6.93287C68.9026 7.90819 69.8374 9.15477 69.8374 10.4437V10.461C69.8374 11.7447 68.9208 12.9792 67.2518 13.9407Z" fill="black"/>
<path d="M49.8988 22.1519C50.3877 22.1519 50.7834 21.7562 50.7834 21.2672V19.4427C50.7834 18.9538 50.3877 18.5581 49.8988 18.5581C49.4098 18.5581 49.0142 18.9538 49.0142 19.4427V21.2672C49.0142 21.7562 49.4098 22.1519 49.8988 22.1519Z" fill="black"/>
<path d="M67.3113 28.1748V28.1576C67.3113 26.8738 66.5122 25.7102 65.0644 24.8826C62.3915 23.3423 58.2 23.3431 55.5202 24.8834C54.0948 25.7102 53.3095 26.873 53.3095 28.1576V51.9359C53.3095 52.2262 53.1618 52.4888 52.9078 52.6408C52.5807 52.967 43.5893 56.9431 43.7222 67.8072C43.8509 76.5868 51.0963 83.922 59.8759 84.1587C69.343 84.3855 76.8987 76.7689 76.8987 67.5705C76.8987 56.896 68.0257 52.9533 67.707 52.6374C67.4591 52.4888 67.3113 52.2262 67.3113 51.9359C67.3113 43.9855 67.3113 33.1558 67.3113 28.1748ZM56.4057 26.4151C58.5158 25.2017 62.0727 25.2022 64.1841 26.4168C65.0471 26.9101 65.5421 27.5451 65.5421 28.1576V28.1748C65.5421 28.7821 65.0583 29.411 64.2117 29.9009C62.1194 31.1207 58.5593 31.1198 56.4446 29.9017C55.5643 29.386 55.0788 28.7666 55.0788 28.1576C55.0788 27.5304 55.5504 26.911 56.4057 26.4151ZM75.1295 67.5705C75.1295 75.8147 68.363 82.5764 59.9225 82.3895C52.0794 82.1787 45.6054 75.6253 45.4914 67.7838C45.3727 58.0664 53.5361 54.4402 53.8244 54.1544C54.6097 53.6835 55.0788 52.8542 55.0788 51.9359V31.1241C55.2291 31.2312 55.388 31.334 55.5565 31.4317C58.3644 33.0493 62.6096 32.8817 65.1007 31.4308C65.2553 31.341 65.4021 31.2477 65.5421 31.1492V34.5857C65.5421 35.193 65.0583 35.8219 64.2117 36.3117C63.2079 36.8974 61.8032 37.2292 60.3407 37.2292C60.2931 37.2292 60.237 37.2266 60.199 37.2283C59.7161 37.2283 59.3213 37.6162 59.3144 38.1008C59.3083 38.5898 59.6988 38.9906 60.1869 38.9975C60.2396 38.9984 60.2923 38.9984 60.345 38.9984C62.1341 38.9984 63.8187 38.5898 65.1007 37.8417C65.2659 37.7459 65.3937 37.6294 65.5421 37.5238V39.5392C65.5421 40.1465 65.0583 40.7754 64.2117 41.2652C63.2079 41.851 61.8032 42.1827 60.3407 42.1827C60.2931 42.1827 60.237 42.1784 60.199 42.1818C59.7161 42.1818 59.3213 42.5697 59.3144 43.0543C59.3083 43.5433 59.6988 43.9441 60.1869 43.951C60.2396 43.9519 60.2923 43.9519 60.345 43.9519C62.1341 43.9519 63.8187 43.5433 65.1007 42.7952C65.2659 42.6994 65.3937 42.5829 65.5421 42.4773V44.4927C65.5421 45.1 65.0583 45.7289 64.2117 46.2187C63.2079 46.8045 61.8032 47.1362 60.3407 47.1362C60.2931 47.1353 60.237 47.1301 60.199 47.1353C59.7161 47.1353 59.3213 47.5232 59.3144 48.0078C59.3083 48.4968 59.6988 48.8976 60.1869 48.9045C60.2396 48.9054 60.2923 48.9054 60.345 48.9054C62.1341 48.9054 63.8187 48.4968 65.1007 47.7487C65.2659 47.6529 65.3937 47.5364 65.5421 47.4308V51.9359C65.5421 52.8542 66.0112 53.6835 66.7904 54.1509C67.1042 54.4601 75.1295 57.9847 75.1295 67.5705Z" fill="black"/>
<path d="M33.8793 11.7516C34.2943 11.9939 34.8401 11.8572 35.0879 11.4294L36.9573 8.20364C37.2027 7.7812 37.0584 7.24041 36.6351 6.99506C36.2135 6.74713 35.671 6.89313 35.4265 7.31729L33.5571 10.543C33.3117 10.9655 33.456 11.5063 33.8793 11.7516Z" fill="black"/>
<path d="M17.4853 41.9184L19.3435 38.6987C19.588 38.2754 19.4428 37.7346 19.0195 37.4901C18.5954 37.2465 18.0546 37.3916 17.8109 37.8141L15.9527 41.0338C15.7083 41.4571 15.8534 41.9979 16.2767 42.2423C16.6953 42.4842 17.238 42.3452 17.4853 41.9184Z" fill="black"/>
<path d="M26.9691 34.0078C31.5183 31.3816 35.2071 24.9914 35.1924 19.7623C35.1763 14.1205 30.9441 11.6877 26.0335 14.5246C21.4074 17.1957 17.7955 23.4572 17.8111 28.7813C17.827 34.3269 21.9752 36.8906 26.9691 34.0078ZM26.9181 16.0571C30.6533 13.8997 33.4107 15.5047 33.4232 19.7675C33.4361 24.4308 30.1439 30.1315 26.0845 32.4752C22.3436 34.6343 19.5928 33.0335 19.5803 28.7761C19.5665 24.1059 22.8579 18.4009 26.9181 16.0571Z" fill="black"/>
<path d="M26.5007 41.3784H26.5033C26.9914 41.3767 27.387 40.9802 27.3853 40.4912L27.3767 37.4538C27.3749 36.9666 26.9793 36.5718 26.492 36.5718H26.4895C26.0014 36.5735 25.6057 36.97 25.6074 37.459L25.6161 40.4964C25.6178 40.9836 26.0135 41.3784 26.5007 41.3784Z" fill="black"/>
<path d="M26.4187 12.6647C26.867 12.6267 27.305 12.2673 27.3033 11.7775L27.2946 8.74006C27.2929 8.25283 26.8972 7.85803 26.41 7.85803H26.4074C25.9193 7.85976 25.5237 8.25628 25.5254 8.74524L25.534 11.7826C25.5358 12.2699 25.9314 12.6647 26.4187 12.6647Z" fill="black"/>
<path d="M36.902 18.2627C37.1471 18.6871 37.6895 18.8298 38.1105 18.5866L40.754 17.0601C41.1773 16.8157 41.3224 16.2749 41.078 15.8516C40.8318 15.4274 40.2901 15.284 39.8694 15.5276L37.2259 17.0541C36.8026 17.2986 36.6575 17.8394 36.902 18.2627Z" fill="black"/>
<path d="M13.133 33.0075L15.7661 31.487C16.1894 31.2426 16.3345 30.7018 16.0901 30.2785C15.8447 29.8543 15.3031 29.71 14.8815 29.9545L12.2484 31.4749C11.8251 31.7194 11.6799 32.2602 11.9244 32.6835C12.1695 33.1079 12.712 33.2507 13.133 33.0075Z" fill="black"/>
<path d="M35.8669 30.6231C36.2873 30.8611 36.8299 30.7159 37.072 30.2871C37.3122 29.8612 37.161 29.3213 36.736 29.082L34.8545 28.022C34.4268 27.7784 33.8886 27.933 33.6493 28.358C33.4092 28.7839 33.5604 29.3238 33.9854 29.5631L35.8669 30.6231Z" fill="black"/>
<path d="M16.2628 19.4513L18.134 20.5174C18.5576 20.7583 19.0982 20.6114 19.3408 20.1865C19.5827 19.7623 19.4341 19.2216 19.01 18.9797L17.1388 17.9136C16.7129 17.67 16.173 17.8195 15.932 18.2445C15.6901 18.6687 15.8387 19.2095 16.2628 19.4513Z" fill="black"/>
</svg>
