<svg width="93" height="92" viewBox="0 0 93 92" fill="none" xmlns="http://www.w3.org/2000/svg">
<rect x="0.5" width="92" height="92" rx="46" fill="white"/>
<path d="M29.0506 61.3258H29.0528C29.3646 61.3247 29.6178 61.0704 29.6167 60.7575L29.6122 59.4364C29.6111 59.1246 29.358 58.8726 29.0462 58.8726H29.044C28.7322 58.8737 28.4791 59.1279 28.4802 59.4408L28.4846 60.7619C28.4857 61.0737 28.7389 61.3258 29.0506 61.3258Z" fill="black"/>
<path d="M64.2323 32.8525C64.2302 32.8513 64.2275 32.8518 64.2253 32.8507L61.4365 31.2261C61.7574 30.7165 62.1673 30.289 62.5873 30.0455L64.2201 29.1025C64.3959 29.0019 64.5043 28.814 64.5032 28.6117L64.491 24.4393C64.4899 23.8987 64.2688 23.4609 63.883 23.2387C63.8769 23.2353 63.8699 23.2346 63.8639 23.2312L56.5543 18.9802C56.1685 18.7591 55.6754 18.7823 55.1989 19.0542L29.7914 33.7281C29.0097 34.1869 28.4194 35.2151 28.4194 36.1205L28.4304 40.3006C28.4304 40.5029 28.5388 40.6886 28.7134 40.7892L31.499 42.3992C31.1427 42.9443 30.7031 43.396 30.2612 43.647L28.7223 44.5414C28.5871 44.6201 28.4404 44.8983 28.4404 45.0312C28.4404 45.031 28.4404 45.0314 28.4404 45.0312C28.4404 45.1479 28.4723 57.4342 28.4758 57.5525C28.4769 57.8654 28.73 58.1175 29.0418 58.1175C29.3547 58.1164 29.6089 57.8621 29.6078 57.5503L29.5758 46.0161L35.7721 49.611C35.7792 52.1161 35.827 69.1621 35.8331 71.3563L29.6841 67.7899C29.672 67.7766 29.6355 67.7047 29.6355 67.5533L29.6211 62.6668C29.62 62.355 29.3668 62.103 29.0551 62.103C29.0551 62.103 29.054 62.103 29.0528 62.103C28.7411 62.1041 28.4879 62.3583 28.489 62.6712L28.5034 67.5555C28.5034 68.0983 28.7234 68.5383 29.107 68.7627L36.4286 73.0106C36.4341 73.0139 36.4379 73.0192 36.4434 73.0224C36.6148 73.1208 36.8071 73.1694 37.0094 73.1694C37.2615 73.1694 37.529 73.0932 37.79 72.9417L63.192 58.2767C63.9869 57.8179 64.5839 56.7831 64.5806 55.871L64.5164 33.3423C64.5153 33.14 64.4081 32.9531 64.2323 32.8525ZM62.1406 33.7347C61.4735 34.1195 60.88 34.076 60.825 33.2417C60.8042 32.9444 60.855 32.6067 60.96 32.2584L62.8202 33.3426L62.1406 33.7347ZM29.5514 36.1194C29.5514 35.6197 29.9306 34.9586 30.3607 34.7065L55.7616 20.036C55.8965 19.9608 55.9706 19.9542 55.9883 19.9608L62.1419 23.5401C29.2628 42.5171 39.8009 36.4347 37.1255 37.9789C36.2928 38.4605 35.7442 39.5876 35.7469 40.3835L35.7553 43.5681C34.6139 42.9055 29.2555 39.7946 29.5614 39.9722L29.5514 36.1194ZM30.825 44.6288C31.4352 44.2817 32.0189 43.6948 32.4787 42.9774L36.0326 45.0372C36.0365 45.0396 36.0381 45.0444 36.0421 45.0467C36.2168 45.1462 36.4323 45.1473 36.607 45.0455L38.241 44.1025C39.0809 43.6215 39.5167 44.0253 39.4538 44.9372C39.393 46.0184 38.5539 47.3517 37.5832 47.9111L36.3384 48.6297C36.2005 48.5497 29.7251 44.7936 30.1344 45.031L30.825 44.6288ZM62.626 57.2961L37.2239 71.9622C37.0982 72.0348 37.0224 72.0403 37.0172 72.0456C37.0156 72.0446 37.0148 72.0428 37.0131 72.0419C37 72.0253 36.9674 71.9572 36.9674 71.8129L36.9044 49.6114L38.1548 48.8895C39.427 48.1556 40.5011 46.4787 40.5881 44.998C40.6947 43.1971 39.3162 42.171 37.675 43.123L36.891 43.5755L36.8834 40.3746C36.8766 39.9279 37.2341 39.2277 37.6938 38.9617C40.4029 37.3977 29.6126 43.6271 63.0903 24.3C63.2205 24.2273 63.2943 24.2216 63.3144 24.2216C63.3281 24.2397 63.3589 24.3033 63.3589 24.4416L63.37 28.2866L62.0212 29.066C60.5499 29.9145 59.5957 31.9149 59.6952 33.3202C59.7963 34.7803 61.0343 35.5604 62.5567 34.7825C63.1136 34.5066 62.9148 34.5865 63.3877 34.3237L63.4485 55.8743C63.4496 56.3773 63.066 57.0418 62.626 57.2961Z" fill="black"/>
<path d="M58.2558 34.1162C57.9053 33.915 57.4631 33.9382 57.043 34.1814L42.661 42.4851C41.9778 42.8787 41.4637 43.7687 41.4648 44.5558L41.5167 62.7884C41.5179 63.2704 41.7191 63.6629 42.0695 63.8641C42.2276 63.9559 42.4045 64.0012 42.5902 64.0012C42.8158 64.0012 43.0523 63.9337 43.2834 63.8L57.6665 55.4962C58.3508 55.1016 58.8649 54.2116 58.8616 53.4256L58.8107 35.1919C58.8085 34.7098 58.6073 34.3174 58.2558 34.1162ZM57.1016 54.5156L42.7174 62.8205C42.6908 62.8359 42.6676 62.8459 42.6532 62.8558C42.651 62.837 42.6488 62.8138 42.6488 62.7862L42.5969 44.5536C42.5958 44.181 42.902 43.6526 43.2259 43.4657L57.6101 35.1609C57.6356 35.1454 57.6599 35.1355 57.6742 35.1255C57.6765 35.1443 57.6787 35.1675 57.6787 35.1952L57.7295 53.4289C57.7306 53.8003 57.4255 54.3288 57.1016 54.5156Z" fill="black"/>
<path d="M54.4361 40.504L45.3253 45.7642C45.0545 45.92 44.9616 46.2661 45.1186 46.5369C45.2737 46.8074 45.621 46.9006 45.8914 46.7437L55.0022 41.4835C55.273 41.3276 55.3659 40.9816 55.2089 40.7107C55.053 40.4388 54.7059 40.3459 54.4361 40.504Z" fill="black"/>
<path d="M54.4361 44.0815L48.0306 47.7795C47.7597 47.9354 47.6669 48.2815 47.8239 48.5523C47.9789 48.8228 48.3263 48.9159 48.5966 48.7591L55.0022 45.061C55.273 44.9051 55.3659 44.5591 55.2089 44.2882C55.053 44.0174 54.7059 43.9234 54.4361 44.0815Z" fill="black"/>
<path d="M54.4361 47.6602L45.3253 52.9203C45.0545 53.0762 44.9616 53.4223 45.1186 53.6931C45.2737 53.9636 45.621 54.0567 45.8914 53.8999L55.0022 48.6397C55.273 48.4838 55.3659 48.1378 55.2089 47.8669C55.053 47.5961 54.7059 47.5021 54.4361 47.6602Z" fill="black"/>
<path d="M54.4361 51.2377L48.0306 54.9357C47.7597 55.0916 47.6669 55.4376 47.8239 55.7085C47.9789 55.979 48.3263 56.0721 48.5966 55.9152L55.0022 52.2172C55.273 52.0613 55.3659 51.7153 55.2089 51.4444C55.053 51.1736 54.7059 51.0807 54.4361 51.2377Z" fill="black"/>
</svg>
