<svg width="93" height="92" viewBox="0 0 93 92" fill="none" xmlns="http://www.w3.org/2000/svg">
<path d="M14.6276 50.7202C14.6285 51.1982 15.0175 51.5856 15.4955 51.5856H15.4981C15.977 51.5847 16.3643 51.1948 16.3635 50.7151L16.3288 37.4535L41.8339 52.2764C41.8469 57.2975 41.9094 81.3803 41.9206 85.716L16.4152 70.8943L16.3965 63.4449C16.3957 62.9669 16.0066 62.5795 15.5286 62.5795H15.5261C15.0472 62.5804 14.6598 62.9703 14.6607 63.45L14.681 71.3969C14.6819 71.7046 14.8463 71.9903 15.1133 72.1445C24.4385 77.5635 9.08789 68.6428 42.3597 87.9782C42.6249 88.1327 42.9573 88.1334 43.2268 87.9782L78.0065 67.8981C78.276 67.7422 78.4413 67.4548 78.4404 67.1438C78.3486 31.9011 78.4159 57.7223 78.3192 20.6022C78.3187 20.4278 78.0948 19.9759 77.8878 19.8554C61.0327 10.0603 67.5006 13.819 50.6448 4.02345C50.3744 3.8658 50.043 3.8675 49.7743 4.02176L14.9938 24.1018C14.6873 24.2793 14.5603 24.6779 14.5598 24.8528L14.5602 24.8545L14.5598 24.8562L14.6276 50.7202ZM43.5412 41.1868C48.8603 38.1157 68.234 26.9298 76.5876 22.1067L76.6111 31.2041L43.576 50.2769L43.5412 41.1868ZM16.3253 35.4442L16.2999 26.3642L41.8049 41.1867L41.8286 50.266L16.3253 35.4442ZM43.6568 85.7251L43.6029 65.0273L43.5699 52.2852L76.6163 33.2056L76.7029 66.6462L43.6568 85.7251ZM50.2066 5.77625L75.7197 20.603L42.6729 39.6834C32.9656 34.042 26.2232 30.1236 17.1594 24.8562L50.2066 5.77625Z" fill="white"/>
<path d="M15.5192 59.8266C15.9981 59.8257 16.3854 59.4359 16.3846 58.9561L16.3735 54.6936C16.3727 54.2148 15.9726 53.8266 15.5031 53.8283C15.0242 53.8291 14.6368 54.219 14.6377 54.6987L14.6487 58.9612C14.6496 59.4392 15.0386 59.8266 15.5166 59.8266H15.5192Z" fill="white"/>
<path d="M70.14 47.5358C70.1149 47.5214 70.0874 47.513 70.0622 47.4989L65.9428 45.1024C63.7959 43.8361 60.876 44.0921 57.9365 45.8034C52.1679 49.1259 47.4901 57.2237 47.5096 63.856C47.5308 67.2701 48.7293 69.8255 50.8779 71.0469L55.0219 73.4565C55.052 73.4745 55.0776 73.4984 55.1082 73.5159C62.4975 77.7737 73.5495 65.0035 73.5193 54.7292C73.51 51.3389 72.3098 48.7843 70.14 47.5358ZM51.7433 69.5424C50.1498 68.6364 49.2624 66.6132 49.2454 63.8484C49.2276 57.7738 53.5147 50.3532 58.8062 47.3053C60.7004 46.2036 63.1726 45.4851 65.0656 46.6001L65.5767 46.8976C65.5493 46.903 65.5203 46.9167 65.4928 46.9224C57.1018 48.6709 49.6277 61.9485 52.2665 69.8419C52.2672 69.8437 52.2673 69.8458 52.2679 69.8476L51.7433 69.5424ZM55.9919 72.0196C55.9828 72.0138 55.9779 72.0042 55.9685 71.9987L55.9668 71.9979L55.9532 71.9903C47.3892 66.9869 61.3452 44.5032 69.2382 49.0276L69.2823 49.053C69.2889 49.0568 69.2964 49.0564 69.303 49.0601C70.8945 49.9943 71.7759 52.0061 71.7835 54.7343C71.8118 64.388 61.5636 75.1904 55.9919 72.0196Z" fill="white"/>
<path d="M66.7251 50.4329C60.3661 50.4329 53.1493 62.6866 55.6692 68.6423C55.6691 68.6421 55.6693 68.6425 55.6692 68.6423C55.6704 68.6452 55.6714 68.6488 55.6726 68.6516C56.3795 70.2748 57.6093 70.6155 58.5163 70.6155C63.379 70.6155 70.0924 62.3357 70.068 55.2175C70.068 52.2213 68.8186 50.4329 66.7251 50.4329ZM65.1927 52.5358C65.1957 52.5345 65.1983 52.5342 65.2014 52.533C65.2824 52.9286 65.3232 53.3916 65.3232 53.9181C65.3232 53.919 65.3232 53.9198 65.3232 53.9215C65.3401 58.5569 61.9422 64.4493 57.9102 66.7844C57.6014 66.9603 57.3153 67.1012 57.0475 67.2128C56.0553 62.3784 60.4251 54.5355 65.1927 52.5358ZM68.3321 55.2209C68.3606 63.0227 60.2775 70.0976 57.8991 68.7201C63.3571 66.2952 68.0193 57.7145 66.8893 52.1982C68.1293 52.3526 68.3321 54.1287 68.3321 55.2175C68.3321 55.2183 68.3321 55.2192 68.3321 55.2209Z" fill="white"/>
<path d="M72.4387 32.3641C73.7839 31.5877 74.795 29.8357 74.7908 28.2872C74.7854 26.394 73.1946 25.493 71.5581 26.4378C70.2359 27.2023 69.2018 28.9932 69.2061 30.5146C69.2114 32.4135 70.8045 33.3065 72.4387 32.3641ZM72.4269 27.9405C72.7244 27.7693 72.8931 27.7854 72.9253 27.8058C72.9592 27.8253 73.0541 27.9549 73.0549 28.2923C73.0575 29.2026 72.3642 30.4028 71.5708 30.8605C71.2725 31.0317 71.1063 31.0147 71.0707 30.9961C71.0377 30.9766 70.9428 30.8469 70.9419 30.5096C70.9394 29.6001 71.6335 28.3999 72.4269 27.9405Z" fill="white"/>
<path d="M66.0547 36.0502C67.3998 35.2738 68.411 33.521 68.4068 31.9733C68.4014 30.0839 66.8135 29.1772 65.1741 30.1239C63.851 30.8884 62.8178 32.6794 62.822 34.2008C62.8274 36.0996 64.4205 36.9926 66.0547 36.0502ZM66.042 31.6275C66.3437 31.4529 66.5065 31.4741 66.5412 31.4919C66.5743 31.5114 66.6701 31.6419 66.6709 31.9784C66.6734 32.8887 65.9801 34.0889 65.1868 34.5466C64.8884 34.7186 64.7215 34.7 64.6867 34.6822C64.6537 34.6627 64.5587 34.533 64.5579 34.1957C64.5553 33.2862 65.2487 32.0861 66.042 31.6275Z" fill="white"/>
<path d="M59.6699 39.7364C61.0151 38.96 62.0262 37.208 62.022 35.6595C62.0167 33.778 60.4384 32.8601 58.7893 33.8101C57.4662 34.5746 56.433 36.3647 56.4373 37.8869C56.4426 39.7753 58.027 40.6839 59.6699 39.7364ZM59.6572 35.3137C59.9564 35.1416 60.1251 35.1603 60.1565 35.1781C60.1904 35.1976 60.2853 35.3272 60.2861 35.6646C60.2887 36.5749 59.5954 37.7751 58.802 38.2328C58.5037 38.4048 58.3375 38.3862 58.302 38.3684C58.2689 38.3489 58.174 38.2192 58.1731 37.8819C58.1706 36.9715 58.8639 35.7714 59.6572 35.3137Z" fill="white"/>
</svg>
