<svg width="93" height="92" viewBox="0 0 93 92" fill="none" xmlns="http://www.w3.org/2000/svg">
<rect x="0.5" width="92" height="92" rx="46" fill="white"/>
<path d="M27.8123 57.7881L27.8005 53.4617C27.7993 53.1439 27.5413 52.8865 27.2235 52.8865H27.2218C26.9035 52.8876 26.6455 53.1462 26.6466 53.4651L26.6584 57.7914C26.6596 58.1092 26.9176 58.3667 27.2354 58.3667H27.2371C27.5554 58.3656 27.8134 58.107 27.8123 57.7881Z" fill="black"/>
<path d="M59.5961 18.3861C59.4175 18.2818 59.1966 18.2818 59.018 18.3849L27.4732 36.5969C27.2928 36.7013 27.1852 36.8934 27.1847 37.0961C27.1847 37.0965 27.185 37.0968 27.185 37.0972C27.185 37.0976 27.1847 37.0979 27.1847 37.0983L27.2191 49.0452C27.2202 49.363 27.4782 49.6205 27.796 49.6205C27.7965 49.6205 27.7971 49.6205 27.7977 49.6205C28.116 49.6193 28.374 49.3607 28.3729 49.0419L28.3414 38.1007L33.5639 41.1357C33.5931 51.4036 33.6224 61.7026 33.652 72.1115L28.4292 69.0764L28.4112 62.6914C28.4101 62.3736 28.1521 62.1161 27.8343 62.1161C27.8337 62.1161 27.8332 62.1161 27.8326 62.1161C27.5143 62.1173 27.2562 62.3759 27.2574 62.6948L27.2765 69.4105C27.2771 69.6156 27.3864 69.8049 27.5633 69.9074L33.9416 73.614C33.9414 73.6139 33.9418 73.6142 33.9416 73.614C33.9422 73.6144 33.9432 73.6154 33.9438 73.6157C34.0328 73.667 34.1326 73.6924 34.2317 73.6924C34.3314 73.6924 34.4312 73.6664 34.5202 73.6152L66.065 55.4027C66.2442 55.299 66.354 55.108 66.3535 54.9012C66.3517 54.2564 66.2697 25.4111 66.2617 22.589C66.261 22.3882 66.1535 22.1951 65.9726 22.0904C65.9719 22.09 65.9711 22.0903 65.9704 22.0899L59.5961 18.3861ZM65.1106 23.5885L65.1303 30.499C53.7433 37.0733 46.0809 41.4973 34.7377 48.0463L34.7179 41.1358C46.1049 34.5615 53.7674 30.1375 65.1106 23.5885ZM59.3053 19.5512L64.5336 22.589L34.1407 40.1364L28.9126 37.0983L59.3053 19.5512ZM34.8058 72.1176L34.7416 49.3767C46.1286 42.8023 53.791 38.3784 65.1343 31.8294L65.1985 54.5705L34.8058 72.1176Z" fill="black"/>
<path d="M36.8898 44.3915L47.2418 38.4149C47.5178 38.2555 47.6125 37.9028 47.453 37.6267C47.2936 37.3501 46.9386 37.256 46.6648 37.4155L36.3129 43.392C36.0368 43.5515 35.9422 43.9042 36.1016 44.1802C36.2615 44.457 36.6152 44.5501 36.8898 44.3915Z" fill="black"/>
<path d="M56.4461 34.5433C57.4174 33.9827 58.1757 32.6689 58.1724 31.5522C58.1676 30.1947 57.0449 29.5466 55.8602 30.2293C54.886 30.7916 54.1249 32.1071 54.1277 33.2244C54.1324 34.575 55.2624 35.226 56.4461 34.5433ZM56.4371 31.2288C56.8204 31.0075 57.0174 31.0639 57.0185 31.5556C57.0208 32.2604 56.4838 33.1894 55.8692 33.5438C55.4821 33.7646 55.2826 33.7049 55.2815 33.221C55.2798 32.5162 55.8196 31.5849 56.4371 31.2288Z" fill="black"/>
<path d="M51.0954 37.6313C52.0667 37.0707 52.8245 35.7569 52.8211 34.6408C52.8175 33.2833 51.695 32.6352 50.5089 33.3173C49.5342 33.8802 48.7736 35.1957 48.777 36.3124C48.7805 37.6608 49.9099 38.3151 51.0954 37.6313ZM51.0858 34.3168C51.4823 34.0879 51.6662 34.1753 51.6672 34.6436C51.6695 35.3484 51.1326 36.2775 50.5185 36.6318C50.1339 36.8522 49.9319 36.7957 49.9308 36.309C49.9286 35.6042 50.4683 34.6729 51.0858 34.3168Z" fill="black"/>
<path d="M61.7911 31.4559C62.7652 30.8936 63.5263 29.5781 63.5235 28.4614C63.5188 27.1098 62.3959 26.4559 61.2051 27.1419C60.2304 27.7042 59.4693 29.0197 59.4727 30.137C59.4774 31.497 60.6165 32.1354 61.7911 31.4559ZM61.7821 28.1414C62.2221 27.8876 62.3687 28.04 62.3697 28.4648C62.3714 29.169 61.8316 30.1003 61.2141 30.4564C60.7923 30.7011 60.6275 30.5765 60.6265 30.1336C60.6243 29.4288 61.164 28.4975 61.7821 28.1414Z" fill="black"/>
<path d="M51.109 51.3855C50.8948 51.2626 50.649 51.2169 50.392 51.239L50.8828 50.3882C50.9678 50.4375 51.0611 50.4734 51.1664 50.4734H51.1681C51.487 50.4723 51.7445 50.2137 51.7434 49.8948C51.7417 49.3201 51.5078 48.8564 51.1011 48.6226C50.9317 48.5252 50.7399 48.4846 50.5405 48.4786V47.9274C50.5405 47.6085 50.2825 47.3505 49.9636 47.3505C49.6447 47.3505 49.3866 47.6085 49.3866 47.9274V48.938C48.6911 49.4912 48.1864 50.4253 48.1889 51.2836C48.19 51.8582 48.4238 52.3219 48.83 52.5557C49.0441 52.6793 49.2905 52.7244 49.5483 52.7018L49.0514 53.5632C48.9625 53.5089 48.8673 53.469 48.7714 53.4684C48.4525 53.4696 48.195 53.7287 48.1962 54.0471C48.1979 54.6189 48.4317 55.0809 48.8368 55.3141C49.0037 55.4101 49.1908 55.4565 49.3866 55.464V56.019C49.3866 56.3378 49.6447 56.5959 49.9636 56.5959C50.2825 56.5959 50.5405 56.3378 50.5405 56.019V55.0091C51.2346 54.4597 51.7537 53.5053 51.7512 52.6577C51.7495 52.083 51.5152 51.6194 51.109 51.3855Z" fill="black"/>
<path d="M49.6632 44.2535C46.0372 46.3471 43.0962 51.4386 43.1081 55.6044C43.1208 59.9968 46.3841 61.9408 50.2807 59.6913C53.9051 57.5994 56.8438 52.5085 56.832 48.3433C56.8191 43.9087 53.523 42.0265 49.6632 44.2535ZM49.7038 58.6918C46.6253 60.4698 44.2725 59.1556 44.2619 55.601C44.2512 51.8043 46.933 47.1618 50.2402 45.253C53.3032 43.4839 55.6675 44.7793 55.6781 48.3467C55.6888 52.1434 53.0087 56.7842 49.7038 58.6918Z" fill="black"/>
</svg>
