<svg width="93" height="92" viewBox="0 0 93 92" fill="none" xmlns="http://www.w3.org/2000/svg">
<rect x="0.5" width="92" height="92" rx="46" fill="white"/>
<path d="M23.9448 67.6474C23.9448 68.5866 24.3087 69.3365 24.942 69.7027C26.2648 70.4701 31.2042 73.3537 31.4293 73.4655C32.1511 73.8633 32.993 73.6943 33.7029 73.2882L66.4027 54.4092C67.9574 53.5393 69.1239 51.4316 69.1239 49.7059V49.7042L69.0552 24.3573C69.0552 23.5629 68.7927 22.8993 68.3487 22.519C68.1283 22.3 67.9303 22.2482 61.598 18.5447C60.9456 18.1774 60.1309 18.2394 59.2982 18.7194L52.8799 22.4249C52.6039 22.5843 52.5092 22.937 52.6692 23.2131C52.827 23.4897 53.1797 23.5821 53.4569 23.4243L59.8751 19.7189C60.3383 19.4501 60.7507 19.3926 61.0256 19.5459L65.908 22.3854C63.1278 23.8662 75.3795 16.9151 33.3379 41.1863L28.032 38.1024L44.4165 28.6437C44.6926 28.4843 44.7872 28.1316 44.6272 27.8555C44.4695 27.5783 44.1157 27.4859 43.8396 27.6442L26.5971 37.5987L26.5916 37.6001C25.0678 38.4801 23.8782 40.5389 23.8791 42.2918C23.8791 42.2959 23.876 42.2993 23.876 42.3034L23.9448 67.6474ZM25.5212 68.7049C25.253 68.5494 25.0986 68.1641 25.0986 67.6457L25.0321 43.3062L30.3324 46.3873C30.4231 79.9099 30.3137 69.5072 30.4025 71.5439L25.5212 68.7049ZM65.8325 53.4058L33.1282 72.2876C32.6685 72.5518 32.2493 72.6132 31.9744 72.4538C31.6655 72.2747 31.5529 71.7712 31.5529 71.3878L31.4853 46.055C31.4853 44.7068 32.4623 43.0133 33.6229 42.3546L66.3372 23.4678C67.2039 22.9533 67.9014 23.2134 67.9014 24.359L67.9701 49.7076C67.9701 51.0854 66.903 52.8078 65.8325 53.4058ZM26.8962 38.7779L32.2822 41.91C31.365 42.737 30.663 44.0344 30.434 45.108L25.049 41.9783C25.1718 40.8141 25.9465 39.4722 26.8962 38.7779Z" fill="black"/>
<path d="M49.8669 24.1641L46.5856 26.0583C46.3095 26.2177 46.2149 26.5704 46.3749 26.8465C46.532 27.1213 46.8849 27.2172 47.1625 27.0578L50.4438 25.1636C50.7199 25.0042 50.8145 24.6515 50.6545 24.3754C50.4956 24.0976 50.1429 24.0047 49.8669 24.1641Z" fill="black"/>
<path d="M34.548 55.8853C34.7237 55.9865 34.9441 55.9888 35.1238 55.8842L47.4059 48.7774C47.5851 48.6743 47.6944 48.4833 47.6944 48.2771L47.6775 39.168C47.6775 38.9624 47.5671 38.772 47.389 38.6694C47.2087 38.5669 46.9901 38.5669 46.8121 38.6694L34.5299 45.7593C34.3508 45.8624 34.2415 46.0534 34.2415 46.2601L34.2584 55.3861C34.2584 55.5923 34.3688 55.7822 34.548 55.8853ZM46.5343 45.04L43.8819 46.5744L43.8783 44.6097L46.531 43.0749L46.5343 45.04ZM42.7347 50.1473L39.2146 52.1841L39.2011 44.3958L42.7203 42.3643C42.7226 43.6525 42.7352 50.3967 42.7347 50.1473ZM38.0568 49.9447L35.4049 51.4792L35.4015 49.5141L38.0535 47.9794L38.0568 49.9447ZM35.4072 52.81L38.0592 51.2755L38.0619 52.8511L35.41 54.3855L35.4072 52.81ZM43.8873 49.4804L43.8844 47.9051L46.5367 46.3708L46.5394 47.9458L43.8873 49.4804ZM46.5286 41.7441L43.8758 43.279L43.8729 41.699L46.5259 40.1675L46.5286 41.7441ZM38.0485 45.0612L38.0511 46.6485L35.3992 48.1832L35.3965 46.592L38.0485 45.0612Z" fill="black"/>
<path d="M40.4716 59.4848C40.2936 59.3823 40.0738 59.3829 39.8958 59.4854L34.2708 62.7334C34.0916 62.8371 33.9823 63.0281 33.9823 63.2348L33.9913 66.8581C33.9913 67.0637 34.1018 67.2536 34.2809 67.3561C34.4599 67.4592 34.6783 67.4589 34.8567 67.3561L40.4829 64.1081C40.662 64.0044 40.7724 63.8134 40.7713 63.6067L40.7612 59.9834C40.76 59.7778 40.6507 59.5879 40.4716 59.4848ZM35.1429 65.8586L35.1373 63.5655L39.6096 60.9829L39.6163 63.276L35.1429 65.8586Z" fill="black"/>
<path d="M48.6792 54.7461C48.5012 54.6435 48.2815 54.6441 48.1034 54.7466L42.4784 57.9946C42.2993 58.0983 42.19 58.2893 42.19 58.4961L42.199 62.1199C42.199 62.3255 42.3094 62.5154 42.4886 62.6179C42.6675 62.721 42.886 62.7207 43.0644 62.6179L48.6905 59.3699C48.8697 59.2662 48.9801 59.0752 48.979 58.8685L48.9688 55.2447C48.9677 55.039 48.8584 54.8492 48.6792 54.7461ZM43.3506 61.1204L43.3449 58.8268L47.8172 56.2441L47.824 58.5377L43.3506 61.1204Z" fill="black"/>
<path d="M56.8868 50.0079C56.7088 49.9054 56.4891 49.9059 56.311 50.0085L50.686 53.2565C50.5069 53.3601 50.3976 53.5511 50.3976 53.7579L50.4066 57.3811C50.4066 57.5868 50.517 57.7766 50.6962 57.8792C50.8751 57.9823 51.0936 57.9819 51.272 57.8792L56.8981 54.6312C57.0773 54.5275 57.1877 54.3365 57.1866 54.1297L57.1764 50.5065C57.1753 50.3009 57.066 50.111 56.8868 50.0079ZM51.5582 56.3817L51.5526 54.0886L56.0248 51.506L56.0316 53.799L51.5582 56.3817Z" fill="black"/>
<path d="M65.1734 45.2235C64.9953 45.1209 64.7756 45.1215 64.5976 45.224L58.9726 48.472C58.7934 48.5757 58.6841 48.7667 58.6841 48.9735L58.6931 52.5967C58.6931 52.8024 58.8036 52.9922 58.9827 53.0948C59.1617 53.1978 59.3801 53.1975 59.5585 53.0948L65.1846 49.8473C65.3638 49.7436 65.4742 49.5527 65.4731 49.3459L65.463 45.7221C65.4618 45.5164 65.3525 45.3266 65.1734 45.2235ZM59.8447 51.5972L59.8391 49.3042L64.3114 46.7216L64.3181 49.0152L59.8447 51.5972Z" fill="black"/>
</svg>
