<svg width="93" height="92" viewBox="0 0 93 92" fill="none" xmlns="http://www.w3.org/2000/svg">
<rect x="0.5" width="92" height="92" rx="46" fill="white"/>
<path d="M21.0244 55.0827H21.0261C21.3444 55.0816 21.6024 54.823 21.6013 54.5041L21.5912 50.927C21.59 50.6093 21.332 50.3518 21.0142 50.3518H21.0126C20.6942 50.3529 20.4362 50.6115 20.4373 50.9304L20.4475 54.5075C20.4486 54.8252 20.7066 55.0827 21.0244 55.0827Z" fill="black"/>
<path d="M69.6127 42.3092C69.6068 42.3058 69.6003 42.3039 69.5944 42.3006L66.265 40.3615C65.3049 39.803 64.1985 39.5796 63.0034 39.6833L62.9589 22.2488C62.9583 22.1196 62.8264 21.8387 62.6705 21.7485L56.8871 18.3878C56.7085 18.2835 56.4877 18.2835 56.3091 18.3866L20.6937 38.9491C20.5133 39.0535 20.4057 39.2457 20.4052 39.4483C20.4052 39.4487 20.4055 39.449 20.4055 39.4494C20.4055 39.4498 20.4052 39.4501 20.4052 39.4505L20.4289 47.8227C20.43 48.1404 20.688 48.3979 21.0058 48.3979C21.0064 48.3979 21.0069 48.3979 21.0075 48.3979C21.3258 48.3968 21.5838 48.1382 21.5827 47.8193L21.5619 40.453L26.1873 43.1413C26.3025 82.8614 26.2627 69.1408 26.2713 72.1132L21.6436 69.4235L21.6115 58.0811C21.6103 57.7633 21.3523 57.5058 21.0345 57.5058C21.034 57.5058 21.0334 57.5058 21.0328 57.5058C20.7145 57.507 20.4565 57.7656 20.4576 58.0845L20.4908 69.7576C20.4914 69.9627 20.6007 70.152 20.7776 70.2545L26.5609 73.6157C26.7078 73.7012 26.9458 73.7284 27.1395 73.6169C27.3 73.5245 49.9723 60.4224 50.1561 60.3159C50.6309 61.8455 51.4922 63.0176 52.6966 63.7202L56.0533 65.6752C56.0556 65.6763 56.0573 65.6774 56.0595 65.6786L56.0625 65.6749C56.0696 65.679 56.0755 65.6846 56.0826 65.6887C58.2935 66.9609 60.9503 66.3218 63.1685 65.0408C68.3828 62.0305 72.6117 54.6973 72.5948 48.6937C72.5863 45.6784 71.5271 43.4107 69.6127 42.3092ZM52.8537 47.4281L49.1113 45.6833L61.8106 24.3344L61.8501 39.8849C58.1987 40.7642 54.8698 44.1857 52.8537 47.4281ZM27.3451 43.7615L40.1262 50.402L27.4265 71.0791C27.4182 68.2837 27.4567 81.1977 27.3451 43.7615ZM44.4084 51.3259C26.2691 41.9023 28.1719 42.8909 27.9657 42.7837L60.7514 23.8581C59.0803 26.6667 66.8049 13.6839 44.4084 51.3259ZM56.5964 19.5529L61.2298 22.2454L26.7663 42.1433C26.5443 42.0143 21.8919 39.3103 22.1332 39.4505L56.5964 19.5529ZM49.8773 59.1442L28.5397 71.4724L41.1528 50.9354C41.4838 51.1066 39.954 50.3142 44.3907 52.61C44.6756 52.7376 45.0024 52.5901 45.1245 52.3857C45.1936 52.2696 48.7486 46.302 48.5223 46.6818L52.2582 48.4233C50.5293 51.5369 49.2822 55.5982 49.8773 59.1442ZM51.0724 59.239C49.2674 50.3889 59.8935 37.9871 65.6847 41.3588L66.1985 41.6579C64.9493 41.7977 63.619 42.3257 62.5307 42.9549C57.3054 45.9723 53.0803 53.331 53.0938 59.2873C53.1002 60.7791 53.3963 62.1058 53.7907 63.0221C53.5551 62.8087 51.6922 62.2959 51.0724 59.239ZM62.5916 64.0413C60.3188 65.3529 58.2123 65.5822 56.6578 64.6887C54.8592 63.6533 54.2569 61.3741 54.251 59.2845C54.2352 53.6637 58.2462 46.7611 63.1088 43.9538C64.9093 42.914 67.2357 42.2636 69.0482 43.3177C70.5836 44.2088 71.4336 46.1173 71.4409 48.6971C71.4567 54.3322 67.487 61.2153 62.5916 64.0413Z" fill="black"/>
<path d="M62.5831 57.2867C61.587 57.8613 60.809 59.2096 60.8118 60.3555C60.8153 61.7549 61.9702 62.404 63.1696 61.7099C64.1657 61.1347 64.9438 59.7842 64.9404 58.6355C64.9368 57.2458 63.7861 56.5905 62.5831 57.2867ZM62.5921 60.711C62.1889 60.9436 61.9667 60.8814 61.9656 60.3527C61.9639 59.6197 62.5217 58.654 63.16 58.2861C63.6263 58.0165 63.7856 58.1893 63.7865 58.6383C63.7888 59.387 63.2423 60.3358 62.5921 60.711Z" fill="black"/>
<path d="M64.5601 46.0835L60.5554 48.3957C60.3582 48.51 60.2461 48.7292 60.2704 48.9562L61.0197 56.0478C61.04 56.2416 61.1571 56.4123 61.3312 56.5013C61.5067 56.5897 61.7126 56.5841 61.8817 56.4867L64.4299 55.0151C64.5928 54.921 64.6993 54.7536 64.7162 54.5666L65.4232 46.6345C65.4424 46.4198 65.3404 46.2125 65.159 46.097C64.977 45.9815 64.7471 45.977 64.5601 46.0835ZM63.5933 54.1655L62.0738 55.0432L61.4569 49.2075L64.1753 47.6379L63.5933 54.1655Z" fill="black"/>
</svg>
