<svg width="93" height="92" viewBox="0 0 93 92" fill="none" xmlns="http://www.w3.org/2000/svg">
<rect x="0.5" width="92" height="92" rx="46" fill="white"/>
<path d="M31.3834 44.3929C31.384 44.7106 31.6426 44.9681 31.9604 44.9681H31.962C32.2804 44.9675 32.5378 44.7084 32.5373 44.3895L32.508 33.1259L37.4741 36.0115C37.4877 41.2214 37.5676 71.7932 37.5685 72.1139L32.6021 69.2276L32.5688 56.4682C32.5683 56.1505 32.3097 55.893 31.9919 55.893H31.9902C31.6719 55.8936 31.4144 56.1527 31.415 56.4716L31.4494 69.5617C31.4499 69.7668 31.5592 69.9561 31.7361 70.0586L37.858 73.6165C38.0817 73.7463 38.4229 73.7071 38.6051 73.47L50.0917 58.5517L60.7744 64.9863C61.1582 65.2188 61.65 64.94 61.6488 64.4911L61.5502 22.4433C61.5498 22.3273 61.4239 22.0391 61.2634 21.9458L55.1421 18.3885C54.9623 18.2843 54.7421 18.2843 54.5635 18.3874L31.6398 31.6222C31.4594 31.7267 31.3518 31.9188 31.3513 32.1214L31.3516 32.1225L31.3513 32.1237L31.3834 44.3929ZM50.2461 57.2976C49.9954 57.146 49.6698 57.2074 49.4917 57.4395L38.7207 71.4287C38.699 63.1406 38.6507 44.6424 38.6282 36.0118L60.3986 23.4425L60.4927 63.4696L50.2461 57.2976ZM54.8508 19.5536L59.8222 22.4427L38.0509 35.0126L33.0793 32.1237L54.8508 19.5536Z" fill="black"/>
<path d="M31.9818 52.5797C32.3001 52.5791 32.5576 52.3199 32.5571 52.0011L32.5469 47.9902C32.5464 47.6719 32.2889 47.3834 31.9683 47.415C31.65 47.4155 31.3925 47.6747 31.3931 47.9936L31.4032 52.0044C31.4038 52.3222 31.6624 52.5797 31.9801 52.5797H31.9818Z" fill="black"/>
<path d="M55.6446 31.9687L57.519 30.887C57.7951 30.7275 57.8897 30.3748 57.7303 30.0988C57.5703 29.8227 57.217 29.7281 56.9421 29.8875L55.0677 30.9692C54.7916 31.1287 54.6969 31.4814 54.8564 31.7574C55.0174 32.0353 55.3712 32.1266 55.6446 31.9687Z" fill="black"/>
<path d="M52.3374 33.8787L53.7623 33.0556C54.0384 32.8961 54.133 32.5429 53.9736 32.2674C53.8136 31.9907 53.4592 31.8961 53.1854 32.0561L51.7605 32.8792C51.4845 33.0387 51.3898 33.3919 51.5492 33.6674C51.7091 33.9442 52.0629 34.0373 52.3374 33.8787Z" fill="black"/>
<path d="M42.1794 39.7431L50.4304 34.9795C50.7064 34.8201 50.8011 34.4674 50.6417 34.1913C50.4817 33.9141 50.1273 33.8212 49.8535 33.98L41.6024 38.7436C41.3264 38.903 41.2317 39.2557 41.3912 39.5318C41.551 39.8086 41.9048 39.9017 42.1794 39.7431Z" fill="black"/>
<path d="M56.9422 48.4409L41.6024 57.297C41.3264 57.4564 41.2317 57.8091 41.3912 58.0852C41.551 58.362 41.9048 58.4551 42.1794 58.2964L57.5191 49.4403C57.7952 49.2809 57.8898 48.9282 57.7304 48.6521C57.5704 48.3755 57.2171 48.2809 56.9422 48.4409Z" fill="black"/>
<path d="M49.3356 40.0388C48.597 39.8174 47.8651 39.8935 47.1924 40.2687C47.1902 40.2698 47.1874 40.2715 47.1851 40.2727C45.2791 41.3735 43.7794 43.9517 43.7698 46.1456C43.7715 50.3868 48.9395 50.7666 49.5289 50.7959C49.5384 50.7964 49.548 50.7964 49.5576 50.7964C49.7277 50.7964 49.89 50.7209 49.9999 50.5897C50.8917 49.5248 55.3392 44.0176 55.3516 40.1893C55.3563 37.7584 53.4853 36.6738 51.3667 37.885C50.7007 38.2692 50.0494 38.9588 49.3356 40.0388ZM51.9413 38.8856C53.242 38.1427 54.2002 38.6059 54.1978 40.1865C54.1888 42.9387 51.2033 47.3028 49.3035 49.6217C48.2364 49.5186 44.9247 48.9699 44.9236 46.1478C44.9315 44.3601 46.2025 42.1747 47.7581 41.2744C48.2556 40.9989 48.7519 40.9972 49.3198 41.2671C49.5869 41.3921 49.9024 41.2997 50.0579 41.0507C50.7509 39.9357 51.3853 39.2067 51.9413 38.8856Z" fill="black"/>
</svg>
