<svg width="93" height="92" viewBox="0 0 93 92" fill="none" xmlns="http://www.w3.org/2000/svg">
<rect x="0.5" width="92" height="92" rx="46" fill="white"/>
<path d="M62.7129 31.04C62.7006 26.7619 61.2176 23.5528 58.5381 21.9963C58.5298 21.9914 58.5229 21.9847 58.5145 21.98C58.507 21.9757 58.4987 21.9733 58.4912 21.969L53.8856 19.2914C51.17 17.7111 47.6008 18.0423 43.8367 20.2233C36.3418 24.5468 30.2633 35.083 30.2869 43.7103C30.2982 47.9708 31.7788 51.1794 34.4567 52.7451L39.1081 55.4505C39.1129 55.4533 39.1184 55.452 39.1233 55.4546C39.1261 55.4562 39.1284 55.4585 39.1312 55.4601C39.8625 55.8809 40.6606 56.1494 41.5025 56.2958C40.9186 61.9622 40.5628 67.4718 40.5628 68.6561C40.5628 70.0635 41.071 71.13 41.9927 71.659L44.843 73.3092C44.849 73.3127 44.8561 73.311 44.8622 73.3144C45.9122 73.9623 47.1839 73.7061 48.26 73.09C50.6133 71.7232 52.4472 68.5445 52.4359 65.852C52.4359 63.6785 51.7188 56.7507 51.2368 53.1132C57.7462 48.195 62.7348 38.84 62.7129 31.04ZM31.4408 43.707C31.4182 35.4486 37.2376 25.3621 44.4142 21.2222C47.1574 19.633 50.555 18.6903 53.3058 20.2886L54.5543 21.0148C52.5565 21.0575 50.2109 21.9249 48.4882 22.9175C41.1457 27.1645 34.9121 37.6533 34.9372 46.4135C34.944 48.9212 35.5308 51.0754 36.2866 52.4746C35.835 52.014 31.46 50.9814 31.4408 43.707ZM42.5691 70.6595C42.0192 70.344 41.7167 69.6325 41.7167 68.6561C41.7167 67.4932 42.0688 62.0479 42.6485 56.4224C43.147 56.4361 44.195 56.3375 44.6058 56.2624C44.2648 59.3229 43.4818 68.0147 43.4818 70.3519C43.4818 70.6618 43.5066 70.9553 43.5556 71.2308L42.5691 70.6595ZM50.1767 53.8921C50.298 54.8348 50.4092 55.7827 50.5135 56.7131L45.4309 59.5425C45.4908 58.9158 45.5741 57.9716 45.8011 55.9821C47.2925 55.56 48.8694 54.7644 50.1767 53.8921ZM51.2821 65.8548C51.2922 68.0961 49.6432 70.9525 47.6836 72.09C46.8076 72.592 45.9906 72.6771 45.4402 72.3221C44.9286 71.9993 44.6356 71.281 44.6356 70.3519C44.6356 69.4166 44.8871 65.4171 45.2979 60.9373L50.6492 57.9584C51.056 61.8653 51.2821 65.059 51.2821 65.852C51.2821 65.8532 51.2821 65.8537 51.2821 65.8548ZM42.5215 55.2547C41.4973 55.2025 40.548 54.9441 39.707 54.46C36.9982 52.901 36.1009 49.5362 36.0922 46.4124C36.0699 37.9976 42.0784 27.9548 49.0662 23.9203C51.8193 22.3302 55.2342 21.4114 57.9584 22.9941C57.958 22.9939 57.9587 22.9943 57.9584 22.9941C60.268 24.3364 61.5479 27.1929 61.5591 31.0434C61.5906 42.2864 51.0396 55.6531 42.5215 55.2547Z" fill="black"/>
<path d="M55.022 23.771C53.6168 23.771 51.9689 24.2938 50.2561 25.2832C43.5167 29.174 37.8422 39.0076 37.8647 46.7561C37.8703 48.8345 38.3447 53.6696 42.6226 53.6696C44.0255 53.6696 45.6729 53.1467 47.3862 52.1574C54.129 48.2637 59.8075 38.4369 59.7855 30.698C59.7742 26.3604 57.9933 23.771 55.022 23.771ZM46.8093 51.1579C45.2712 52.0464 43.8232 52.5157 42.6226 52.5157C39.3836 52.5157 39.023 48.4857 39.0185 46.7527C38.9971 39.3665 44.4075 29.9921 50.8331 26.2826C52.3706 25.3942 53.8191 24.9248 55.022 24.9248C58.266 24.9248 58.6272 28.9644 58.6317 30.7014C58.6525 38.0774 53.2388 47.4457 46.8093 51.1579Z" fill="black"/>
</svg>
