<svg width="93" height="92" viewBox="0 0 93 92" fill="none" xmlns="http://www.w3.org/2000/svg">
<rect x="0.5" width="92" height="92" rx="46" fill="white"/>
<path d="M31.5611 53.2559H31.5628C31.8811 53.2553 32.1386 52.9961 32.138 52.6772L32.093 35.3039C32.21 35.376 37.0786 38.3715 36.7943 38.1966C36.8154 46.0263 36.8657 64.7498 36.884 71.5489L32.5296 68.8694C32.3121 68.7381 32.1887 68.4204 32.1808 67.9832L32.1673 62.8162C32.1668 62.4985 31.9082 62.241 31.5904 62.241H31.5887C31.2704 62.2416 31.0129 62.5007 31.0135 62.8196L31.027 67.995C31.0416 68.8508 31.3634 69.5122 31.9279 69.8542L37.7704 73.4493C37.8858 73.4691 38.5982 74.071 39.9017 73.3186L59.6326 61.9221C61.0078 61.1362 62.0755 59.2899 62.0637 57.7186C61.9441 12.5931 61.9998 34.0974 61.9724 24.0001C61.9651 23.1257 61.636 22.4581 61.0462 22.1206C60.9306 22.0545 55.0779 18.4618 55.1947 18.5216C54.5986 18.1858 53.8549 18.2405 53.0994 18.6754L33.3584 30.064C33.3499 30.0689 33.3464 30.0787 33.3382 30.084C31.985 30.8802 30.9318 32.7114 30.9363 34.2715L30.9842 52.6806C30.9847 52.9984 31.2433 53.2559 31.5611 53.2559ZM39.7992 34.6726C66.4232 19.3026 57.7547 24.3069 59.5362 23.2784C59.7794 23.1338 60.1572 22.9939 60.4249 23.1109C60.7522 23.2654 60.8158 23.6462 60.8185 24.0063L60.8277 27.3964L37.9546 40.5998C37.957 38.8436 37.9295 38.2126 37.9621 37.7025C38.0381 36.5762 38.8434 35.224 39.7992 34.6726ZM60.8867 52.2924L38.0216 65.4909C38.0152 63.0817 38.0447 74.2183 37.9591 41.9292L60.8313 28.7267C60.9072 61.0213 60.881 49.8826 60.8867 52.2924ZM60.9098 57.7248C60.9194 58.8786 60.072 60.3418 59.0579 60.9215L39.3248 72.3191C39.0364 72.4863 38.6307 72.6376 38.3554 72.4469C38.159 72.304 38.045 72.0015 38.038 71.5873L38.0252 66.8212L60.8987 53.6176L60.9098 57.7219V57.7248ZM53.6763 19.6749C54.0577 19.4546 54.4059 19.4016 54.6087 19.5154L59.0292 22.2389C59.0207 22.2436 59.0124 22.2486 59.004 22.2534C58.9877 22.2624 58.9717 22.2661 58.9554 22.2755C56.9555 23.4305 66.175 18.1062 39.5208 33.4991L34.7736 30.5795L53.6763 19.6749ZM33.662 31.2517L38.4864 34.2197C37.8136 34.8457 37.146 35.9473 36.9129 36.9144C36.7973 36.8433 31.7889 33.7621 32.1082 33.9585C32.2233 32.9753 32.8677 31.8539 33.662 31.2517Z" fill="black"/>
<path d="M31.5825 59.8911C31.9008 59.8899 32.1588 59.6313 32.1577 59.3125L32.1481 55.8149C32.147 55.4971 31.8889 55.2396 31.5712 55.2396H31.5695C31.2512 55.2408 30.9931 55.4994 30.9943 55.8182L31.0038 59.3158C31.005 59.6336 31.263 59.8911 31.5808 59.8911H31.5825Z" fill="black"/>
<path d="M34.1786 42.8285H34.1803C34.4986 42.8279 34.7561 42.5687 34.7556 42.2498L34.7499 40.0503C34.7494 39.7326 34.4908 39.4751 34.173 39.4751H34.1713C33.853 39.4757 33.5955 39.7348 33.5961 40.0537L33.6017 42.2532C33.6023 42.571 33.8609 42.8285 34.1786 42.8285Z" fill="black"/>
<path d="M33.6017 47.4534C33.6023 47.7712 33.8609 48.0287 34.1786 48.0287H34.1803C34.4986 48.0281 34.7561 47.7689 34.7556 47.4501L34.7499 45.25C34.7494 44.9322 34.4908 44.6747 34.173 44.6747C33.8919 44.6449 33.5955 44.9339 33.5961 45.2533L33.6017 47.4534Z" fill="black"/>
<path d="M47.5539 33.4613L51.8115 31.0032C52.0876 30.8437 52.1822 30.4911 52.0228 30.215C51.8628 29.9389 51.5101 29.8448 51.2346 30.0037L46.977 32.4618C46.7009 32.6213 46.6062 32.974 46.7657 33.25C46.9255 33.5268 47.2793 33.6199 47.5539 33.4613Z" fill="black"/>
<path d="M51.7089 60.5243C51.2526 60.2618 50.6666 60.3001 50.0982 60.628C49.1077 61.201 48.3342 62.5374 48.3375 63.6704C48.3392 64.3234 48.6012 64.8485 49.0564 65.1104C49.2581 65.2265 49.4857 65.2845 49.7263 65.2845C50.0334 65.2845 50.3618 65.1904 50.6847 65.0039C51.6667 64.4366 52.4329 63.1047 52.4295 61.9706C52.4273 61.3137 52.1647 60.7863 51.7089 60.5243ZM50.1077 64.0045C49.8638 64.1459 49.6998 64.1493 49.6322 64.1104C49.5674 64.0732 49.4919 63.9352 49.4914 63.6676C49.4891 62.9464 50.0424 61.9931 50.6757 61.6275C50.9095 61.4911 51.0678 61.4866 51.1331 61.5244C51.1985 61.5621 51.2751 61.7019 51.2757 61.974C51.2779 62.6951 50.732 63.6439 50.1077 64.0045Z" fill="black"/>
<path d="M52.4937 23.4469C52.8886 23.6745 53.3833 23.7883 53.8768 23.7883C54.3715 23.7883 54.8656 23.6745 55.2594 23.4458C55.7282 23.1736 55.9963 22.7612 55.9958 22.3145C55.9952 21.8671 55.7237 21.4536 55.2504 21.1803C54.474 20.7319 53.2588 20.7319 52.4847 21.1815C52.0159 21.4541 51.7472 21.866 51.7483 22.3122C51.7489 22.7601 52.0204 23.1736 52.4937 23.4469ZM53.0644 22.1787C53.4847 21.9347 54.2521 21.9358 54.6735 22.1798C54.7957 22.2502 54.8459 22.3099 54.8431 22.3043C54.838 22.3201 54.7963 22.3804 54.6797 22.448C54.2526 22.6959 53.4999 22.6953 53.0706 22.4474C52.9557 22.3809 52.9112 22.3218 52.9016 22.3218L52.9005 22.3223C52.9055 22.3071 52.9472 22.2468 53.0644 22.1787Z" fill="black"/>
<path d="M56.4972 40.9376C56.3147 40.7365 56.0172 40.692 55.7828 40.8266L51.3083 43.4104L49.9494 39.4198C49.8671 39.1775 49.6463 39.0074 49.377 39.0294C49.1206 39.0412 48.9026 39.2209 48.8429 39.4705L47.3397 45.7017L42.4854 48.5041C42.2826 48.6213 42.1705 48.8495 42.202 49.0821C42.2342 49.3143 42.4032 49.5041 42.6302 49.5627L46.1937 50.4799L44.7728 56.3872C44.7086 56.656 44.8438 56.9331 45.0957 57.0475C45.3569 57.1638 45.6503 57.075 45.8056 56.8543L49.6767 51.369L53.4188 52.3302C53.6256 52.3809 53.8425 52.3183 53.9862 52.1628C54.1304 52.0068 54.1771 51.7848 54.1084 51.5842L52.612 47.2201L56.5423 41.6593C56.6989 41.4379 56.6803 41.1376 56.4972 40.9376ZM51.4993 46.7953C51.3923 46.9469 51.3646 47.1401 51.4244 47.3153L52.6695 50.9464L49.5787 50.1526C49.3471 50.0929 49.1015 50.183 48.9634 50.3791L46.5988 53.7291L47.4484 50.1977C47.5217 49.8918 47.3363 49.583 47.031 49.5041L44.2855 48.7971L48.1307 46.5773C48.2676 46.4984 48.3662 46.3666 48.4028 46.2127L49.4981 41.674L50.4424 44.447C50.5578 44.7887 50.9602 44.9441 51.2768 44.7609L54.0819 43.1411L51.4993 46.7953Z" fill="black"/>
</svg>
