<svg width="93" height="92" viewBox="0 0 93 92" fill="none" xmlns="http://www.w3.org/2000/svg">
<rect x="0.5" width="92" height="92" rx="46" fill="white"/>
<path d="M30.9532 51.043H30.9549C31.2732 51.0419 31.5313 50.7833 31.5301 50.4644L31.52 46.9544C31.5189 46.6366 31.2608 46.3792 30.9431 46.3792H30.9414C30.6231 46.3803 30.365 46.6389 30.3662 46.9578L30.3763 50.4678C30.3774 50.7855 30.6355 51.043 30.9532 51.043Z" fill="black"/>
<path d="M39.544 35.5194L40.7931 34.8067L41.2584 35.7842C41.2747 35.9016 42.2201 42.7128 42.1609 42.2861L40.6376 46.1114C40.5463 46.3396 40.6099 46.6004 40.7959 46.7615C40.9832 46.9224 41.2504 46.947 41.4618 46.8246L43.5676 45.6089L43.5948 46.5666C43.6039 46.8799 43.8602 47.1272 44.1712 47.1272C44.1768 47.1272 44.1825 47.1272 44.1881 47.1272C44.5064 47.1182 44.7577 46.8523 44.7487 46.5339L44.7037 44.953L51.355 41.113L51.3827 42.0893C51.3918 42.4025 51.6481 42.6498 51.9591 42.6498C51.9647 42.6498 51.9704 42.6498 51.976 42.6498C52.2943 42.6408 52.5456 42.3749 52.5366 42.0566L52.4911 40.457L54.553 39.2666C54.8291 39.1072 54.9237 38.7545 54.7643 38.4784C54.6037 38.2012 54.2505 38.1077 53.9761 38.2671L42.3244 44.9942L43.2148 42.7572L52.5349 37.3764C52.9389 37.1432 53.2532 36.6417 53.3011 36.1488L53.8426 29.6702C53.8758 29.2769 53.7316 28.9474 53.4465 28.7671C53.1727 28.5918 52.8177 28.5997 52.4966 28.7845L42.0699 34.8045L41.7565 34.147C41.4902 33.6193 40.8648 33.4265 40.2415 33.7836L38.9671 34.52C38.691 34.6794 38.5964 35.0327 38.7558 35.3082C38.9147 35.5848 39.2674 35.6783 39.544 35.5194ZM52.6555 30.0251L52.1524 36.0451C52.14 36.1702 52.0352 36.3324 51.958 36.3769L43.2067 41.4295C43.1837 41.2637 42.3932 35.5646 42.4427 35.9217L52.6555 30.0251Z" fill="black"/>
<path d="M42.6962 63.3629L39.0611 65.4615C38.7851 65.621 38.6904 65.9737 38.8498 66.2497C39.0097 66.5265 39.3635 66.6196 39.638 66.461L43.2731 64.3623C43.5492 64.2029 43.6438 63.8502 43.4844 63.5741C43.3249 63.2969 42.97 63.2034 42.6962 63.3629Z" fill="black"/>
<path d="M58.9267 53.9929L45.449 61.774C45.1729 61.9334 45.0783 62.2861 45.2377 62.5622C45.3976 62.839 45.7513 62.9321 46.0259 62.7735L59.5036 54.9923C59.7797 54.8329 59.8743 54.4802 59.7149 54.2041C59.5549 53.9275 59.2016 53.8329 58.9267 53.9929Z" fill="black"/>
<path d="M39.638 60.7266L54.2149 52.3111C54.491 52.1516 54.5856 51.7989 54.4262 51.5229C54.2662 51.2457 53.9118 51.1521 53.638 51.3116L39.0611 59.7271C38.7851 59.8866 38.6904 60.2392 38.8498 60.5153C39.0097 60.7921 39.3635 60.8852 39.638 60.7266Z" fill="black"/>
<path d="M58.9267 48.2587L55.9688 49.9664C55.6928 50.1258 55.5981 50.4785 55.7576 50.7546C55.9174 51.0314 56.2712 51.1245 56.5458 50.9659L59.5036 49.2582C59.7797 49.0988 59.8743 48.7461 59.7149 48.47C59.5549 48.1934 59.2016 48.0993 58.9267 48.2587Z" fill="black"/>
<path d="M58.9267 42.5242L39.0611 53.9928C38.7851 54.1523 38.6904 54.505 38.8498 54.781C39.0108 55.0589 39.3646 55.1502 39.638 54.9923L59.5036 43.5237C59.7796 43.3643 59.8743 43.0116 59.7149 42.7355C59.5549 42.4594 59.2016 42.3648 58.9267 42.5242Z" fill="black"/>
<path d="M62.5956 25.7023C62.5967 25.4972 62.4891 25.3073 62.3127 25.2025C61.1258 24.5055 66.6123 27.7274 50.705 18.3859C50.5264 18.2817 50.3055 18.2817 50.1269 18.3848L30.6073 29.6545C30.4036 29.7725 30.3192 30.0375 30.3188 30.1537C30.3188 30.1541 30.3191 30.1544 30.3191 30.1548C30.3191 30.1552 30.3188 30.1555 30.3188 30.156L30.3577 43.8325C30.3588 44.1508 30.6344 44.4038 30.9363 44.4078C31.2547 44.4066 31.5127 44.148 31.5116 43.8291L31.4755 31.1582L35.7904 33.6652L35.8993 72.1113L31.5842 69.6036L31.542 54.5986C31.5409 54.2808 31.2828 54.0233 30.9651 54.0233C30.9645 54.0233 30.9639 54.0233 30.9634 54.0233C30.6451 54.0245 30.387 54.2831 30.3881 54.6019L30.4315 69.9377C30.4321 70.1428 30.5414 70.3321 30.7183 70.4346L36.1889 73.6139C36.1887 73.6138 36.1891 73.6141 36.1889 73.6139C36.1896 73.6143 36.1905 73.6153 36.1912 73.6156C36.2802 73.6669 36.3799 73.6922 36.4791 73.6922C36.5788 73.6922 36.6785 73.6663 36.7675 73.615L62.3927 58.8201C62.5719 58.7165 62.6817 58.5255 62.6812 58.3187L62.5883 25.729C62.5888 25.7195 62.5955 25.7118 62.5956 25.7023ZM56.4804 28.2302C56.48 28.0878 56.4655 22.9565 56.4658 23.0779L60.8761 25.6921L56.4804 28.2302ZM50.4142 19.551L54.735 22.0616L36.3672 32.6663L32.0468 30.156L50.4142 19.551ZM37.0532 72.1175L36.9444 33.6655C41.3036 31.1488 29.3213 38.0668 55.3119 23.061L55.3294 29.2382C55.3306 29.6806 55.8112 29.9578 56.1947 29.7362L61.4372 26.7091L61.5262 57.988L37.0532 72.1175Z" fill="black"/>
</svg>
