<svg width="93" height="92" viewBox="0 0 93 92" fill="none" xmlns="http://www.w3.org/2000/svg">
<rect x="0.5" width="92" height="92" rx="46" fill="white"/>
<path d="M22.8149 67.0066C22.8149 67.9666 23.1856 68.7317 23.8312 69.1058C24.5961 69.5504 21.0611 67.4941 31.3121 73.4537C32.0581 73.8753 32.9144 73.6983 33.6508 73.2733L48.9938 64.4148L55.242 68.0511C55.4935 68.1978 55.8627 68.1199 56.0257 67.8421C56.0935 67.7266 62.0866 56.9563 62.1138 56.8406L67.4672 53.7498C69.0363 52.8433 70.2617 50.7237 70.2566 48.9248L70.189 24.9938C70.1862 24.0146 69.8234 23.2675 69.167 22.8894C69.1595 22.8851 69.1505 22.8844 69.1429 22.8802L61.7166 18.558C61.0569 18.1687 60.2151 18.2307 59.3464 18.7321L54.2419 21.6787C53.9659 21.8381 53.8712 22.1908 54.0307 22.4669C54.1901 22.7435 54.5434 22.8371 54.8189 22.6782L59.9233 19.7316C60.4084 19.4521 60.8507 19.3851 61.1335 19.5535L66.9996 22.9678C66.7041 23.1182 66.726 23.1225 33.2792 42.4262C33.1624 42.3583 26.5491 38.5136 26.966 38.756L46.569 27.44C46.8451 27.2806 46.9397 26.9279 46.7803 26.6518C46.6203 26.3752 46.267 26.28 45.9921 26.4406L25.5271 38.254L25.5241 38.2569C23.9593 39.1618 22.7382 41.2779 22.7433 43.0767L22.7439 43.0788L22.8149 67.0066ZM24.4104 68.1081C24.1298 67.9452 23.9687 67.5441 23.9687 67.0049L23.9005 44.0791C24.0173 44.147 30.6224 47.9892 30.2056 47.7467L30.2754 71.3487C30.2754 71.4079 30.2765 71.4665 30.2794 71.524L24.4104 68.1081ZM55.2816 60.7844L55.3011 60.7731L55.004 66.5774L50.1454 63.7499L55.2816 60.7844ZM66.8903 52.7503L61.3983 55.9211C61.3076 55.9735 61.2326 56.0501 61.1819 56.1414L56.2379 65.0805L56.5125 59.7708C56.5232 59.5596 56.4178 59.3596 56.2375 59.2491C56.0584 59.1387 55.8319 59.1364 55.6482 59.2412L55.6452 59.2429L55.6431 59.2435C50.3956 62.2689 46.726 64.3917 33.0738 72.2738C32.5966 72.5488 32.1611 72.613 31.876 72.4485C31.5938 72.2862 31.431 71.8828 31.4293 71.3414L31.3617 47.4109C31.3577 46.036 32.3645 44.2909 33.5617 43.5964L33.5646 43.5956C69.4735 22.8765 67.4233 24.026 67.7144 23.9105C67.9929 23.8025 68.3259 23.7422 68.585 23.8906L68.594 23.8957C68.5962 23.897 68.5988 23.8968 68.6009 23.898C68.8749 24.0637 69.0335 24.4616 69.0352 24.9971L69.1028 48.9282C69.1067 50.3051 68.0937 52.0556 66.8903 52.7503ZM25.8307 39.432C25.9475 39.5 32.6429 43.3947 32.2261 43.1522C31.2569 44.0175 30.5477 45.3234 30.3087 46.4689C30.1919 46.401 23.4972 42.5075 23.9141 42.75C24.039 41.5428 24.8444 40.1488 25.8307 39.432Z" fill="black"/>
<path d="M51.6091 23.1982L48.9634 24.7256C48.6873 24.885 48.5927 25.2377 48.7521 25.5138C48.9131 25.7917 49.2669 25.883 49.5403 25.725L52.1861 24.1977C52.4621 24.0382 52.5568 23.6855 52.3973 23.4095C52.2368 23.1328 51.8835 23.0387 51.6091 23.1982Z" fill="black"/>
<path d="M64.3476 32.851L56.6887 37.2726C56.4127 37.432 56.318 37.7847 56.4775 38.0608C56.6373 38.3376 56.9911 38.4307 57.2657 38.2721L64.9246 33.8505C65.2006 33.691 65.2953 33.3384 65.1358 33.0623C64.9764 32.7857 64.622 32.691 64.3476 32.851Z" fill="black"/>
<path d="M53.0171 40.725L55.0155 39.5712C55.2916 39.4117 55.3862 39.0591 55.2268 38.783C55.0674 38.5064 54.713 38.4117 54.4386 38.5717L52.4402 39.7256C52.1641 39.885 52.0695 40.2377 52.2289 40.5138C52.3888 40.7906 52.7426 40.8836 53.0171 40.725Z" fill="black"/>
<path d="M50.7319 41.3786C50.5714 41.1014 50.2181 41.0067 49.9437 41.1673L35.5398 49.4831C35.2638 49.6426 35.1691 49.9952 35.3285 50.2713C35.4884 50.5481 35.8422 50.6412 36.1167 50.4826L50.5207 42.1668C50.7967 42.0073 50.8914 41.6546 50.7319 41.3786Z" fill="black"/>
<path d="M61.5977 41.5047L46.8856 49.9985C46.6096 50.158 46.5149 50.5107 46.6744 50.7867C46.8342 51.0635 47.188 51.1566 47.4626 50.998L62.1747 42.5042C62.4507 42.3447 62.5454 41.992 62.3859 41.716C62.2259 41.4388 61.8727 41.3453 61.5977 41.5047Z" fill="black"/>
<path d="M44.9199 51.7998C44.7599 51.5232 44.4055 51.4286 44.1317 51.5886L38.2898 54.9616C38.0138 55.1211 37.9191 55.4738 38.0785 55.7498C38.2384 56.0266 38.5922 56.1197 38.8667 55.9611L44.7087 52.588C44.9847 52.4286 45.0794 52.0759 44.9199 51.7998Z" fill="black"/>
<path d="M56.9745 51.2404L42.9131 59.359C42.637 59.5185 42.5424 59.8712 42.7018 60.1472C42.8617 60.424 43.2155 60.5171 43.49 60.3585L57.5514 52.2399C57.8275 52.0805 57.9221 51.7278 57.7627 51.4517C57.6027 51.1751 57.2483 51.0799 56.9745 51.2404Z" fill="black"/>
</svg>
