<svg width="93" height="92" viewBox="0 0 93 92" fill="none" xmlns="http://www.w3.org/2000/svg">
<rect x="0.5" width="92" height="92" rx="46" fill="white"/>
<path d="M51.5509 22.5409L48.9592 24.0373C48.6831 24.1968 48.5885 24.5495 48.7485 24.8255C48.9056 25.1004 49.2585 25.1962 49.5361 25.0368L52.1278 23.5404C52.4038 23.381 52.4985 23.0283 52.3385 22.7522C52.1796 22.4756 51.8258 22.3815 51.5509 22.5409Z" fill="black"/>
<path d="M66.0844 54.9015C66.0597 46.2549 66.0144 30.4178 65.992 22.5893C65.9914 22.4735 65.9218 22.2183 65.7047 22.0924L65.7033 22.0916C65.703 22.0914 65.7028 22.0909 65.7024 22.0907C65.702 22.0905 65.7016 22.0905 65.7012 22.0903L59.3269 18.3858C59.15 18.2821 58.9281 18.2821 58.7489 18.3846L53.9059 21.1808C53.6298 21.3402 53.5352 21.6929 53.6952 21.969C53.8529 22.2456 54.2056 22.3375 54.4828 22.1803L59.0362 19.5509L64.2643 22.5891L33.871 40.1368L28.643 37.0986L46.7428 26.6492C47.0189 26.4897 47.1135 26.137 46.9535 25.861C46.7946 25.5838 46.4408 25.4897 46.1659 25.6497L27.204 36.5971C27.0237 36.7016 26.9156 36.8937 26.9156 37.0963C26.9156 37.0967 26.9159 37.097 26.9159 37.0974C26.9159 37.0979 26.9156 37.0981 26.9156 37.0986L27.0069 69.4102C27.008 69.6153 27.1162 69.8046 27.2942 69.9071L33.673 73.6137C33.6728 73.6136 33.6732 73.6139 33.673 73.6137C33.6737 73.6141 33.6746 73.6151 33.6753 73.6154C33.7643 73.6667 33.8635 73.6921 33.9626 73.6921C34.0618 73.6921 34.1621 73.6661 34.2511 73.6149L65.7959 55.4029C65.9751 55.2993 66.0855 55.1083 66.0844 54.9015ZM34.4678 48.0457C34.4675 47.9273 34.447 40.6788 34.4483 41.136C41.5944 37.0103 57.6653 27.7319 64.8415 23.5888L64.8607 30.4993C57.7203 34.6216 41.6814 43.8812 34.4678 48.0457ZM28.1596 69.0761L28.0728 38.1011C28.2792 38.221 33.623 41.3269 33.2942 41.1358C33.3 43.1693 33.3722 68.5427 33.3823 72.1111L28.1596 69.0761ZM34.5367 72.1171L34.4935 57.0403L34.4719 49.3764C41.6125 45.2539 57.6516 35.9942 64.8652 31.8296L64.9294 54.5708L34.5367 72.1171Z" fill="black"/>
<path d="M56.2068 29.7789C55.2321 30.3423 54.4704 31.6578 54.4749 32.7739C54.4773 34.1241 55.6102 34.7771 56.7928 34.0928C57.7641 33.5323 58.5213 32.2184 58.519 31.1023C58.5167 29.7434 57.3877 29.0948 56.2068 29.7789ZM56.2158 33.0934C55.8226 33.3213 55.6309 33.2476 55.6288 32.77C55.6265 32.0657 56.1663 31.135 56.7838 30.7783C57.2312 30.521 57.3632 30.6867 57.3652 31.1051C57.3674 31.8099 56.83 32.739 56.2158 33.0934Z" fill="black"/>
<path d="M50.8556 32.8667C49.8821 33.429 49.1215 34.7446 49.1237 35.8618C49.1261 37.2177 50.2639 37.8627 51.4427 37.1807C52.414 36.6196 53.1723 35.3057 53.1678 34.1902C53.1654 32.8285 52.0339 32.1832 50.8556 32.8667ZM50.8658 36.1812C50.48 36.4044 50.2797 36.3459 50.2776 35.8584C50.2753 35.1536 50.8151 34.2223 51.4325 33.8662C51.881 33.6083 52.012 33.7759 52.014 34.1936C52.0162 34.8978 51.4799 35.8269 50.8658 36.1812Z" fill="black"/>
<path d="M61.5512 26.6919C60.5777 27.2542 59.8171 28.5692 59.8193 29.6864C59.8217 31.0321 60.9505 31.691 62.1383 31.0059C63.1119 30.4436 63.8725 29.1281 63.8702 28.0114C63.8678 26.6495 62.729 26.0102 61.5512 26.6919ZM61.5614 30.0064C61.1756 30.2274 60.9753 30.1699 60.9732 29.683C60.9709 28.9782 61.5107 28.0475 62.1282 27.6914C62.5287 27.4598 62.7143 27.5381 62.7164 28.0142C62.7186 28.7191 62.1789 29.6504 61.5614 30.0064Z" fill="black"/>
<path d="M56.688 39.2247L42.0992 47.6482C41.2305 48.1496 40.551 49.3254 40.5544 50.3254C40.5547 50.4423 40.582 61.2158 40.5803 60.5315C40.5803 61.7386 41.6084 62.3869 42.7122 61.7507L43.3387 61.389L43.5866 64.4409C43.6069 64.6933 43.7894 64.9029 44.0362 64.9575C44.2924 65.0129 44.5418 64.8928 44.6627 64.6792L48.0938 58.6435L57.3021 53.3272C58.1708 52.8253 58.8503 51.6494 58.8469 50.65L58.8176 40.4434C58.8153 39.2048 57.7694 38.601 56.688 39.2247ZM56.7251 52.3278L47.3817 57.7223C47.2927 57.7736 47.2194 57.848 47.1687 57.937L44.585 62.4814L44.4148 60.3867C44.3809 59.9626 43.9164 59.7237 43.5517 59.9337L42.1353 60.7512C41.8297 60.9275 41.7569 60.8479 41.7422 60.5703C41.734 60.3687 41.7122 51.6737 41.7082 50.3221C41.7071 49.7282 42.159 48.9462 42.6762 48.6476L57.2649 40.2242C57.5589 40.054 57.6638 40.0903 57.6638 40.4468L57.6931 50.6533C57.6942 51.2466 57.2423 52.0292 56.7251 52.3278Z" fill="black"/>
<path d="M53.0067 46.9824L50.8703 48.2157L50.2415 46.3717C50.1582 46.1289 49.9283 45.9677 49.668 45.9818C49.4122 45.9936 49.1947 46.1734 49.1339 46.423L48.353 49.6698L45.8177 51.1336C45.6149 51.2507 45.5033 51.4789 45.5349 51.7116C45.5664 51.9437 45.7355 52.1336 45.9619 52.1922L47.6431 52.6254L46.9299 55.5636C46.8656 55.8323 46.9997 56.1101 47.2521 56.2245C47.501 56.3379 47.7995 56.2614 47.962 56.0323L49.9531 53.2181L51.7932 53.6914C52.005 53.7432 52.218 53.679 52.3611 53.5241C52.5053 53.368 52.5515 53.1455 52.4828 52.9449L51.7165 50.7189L53.7662 47.8146C53.9228 47.5937 53.9037 47.2934 53.7211 47.0934C53.5374 46.8923 53.2411 46.8483 53.0067 46.9824ZM50.53 50.8152L51.0427 52.3066L49.8562 52.0012C49.6184 51.9403 49.3784 52.0316 49.2409 52.2271L48.7621 52.9032L48.8984 52.3443C48.9728 52.0378 48.7868 51.7285 48.4815 51.6496L47.6172 51.4271L49.144 50.5454C49.2815 50.4659 49.3795 50.3341 49.4167 50.1808L49.7908 48.6247L50.0049 49.2529C50.1229 49.595 50.5239 49.7491 50.8399 49.5662L51.3098 49.2946L50.6044 50.2952C50.4973 50.4462 50.4692 50.64 50.53 50.8152Z" fill="black"/>
</svg>
