<svg width="93" height="92" viewBox="0 0 93 92" fill="none" xmlns="http://www.w3.org/2000/svg">
<rect x="0.5" width="92" height="92" rx="46" fill="white"/>
<path d="M29.2582 56.122C29.0464 57.3981 28.9382 58.6647 28.9382 59.8878C28.9506 64.4852 30.5405 67.936 33.415 69.6048L38.6231 72.6218C38.6319 72.6267 38.6406 72.6319 38.6494 72.6369C38.6604 72.6434 38.6696 72.6521 38.6806 72.6584C42.031 74.5857 46.0786 73.5895 49.4528 71.6421C57.5342 66.976 64.0877 55.6206 64.0618 46.3284C64.0484 41.7501 62.4689 38.3153 59.6168 36.638C59.6052 36.6301 59.5985 36.618 59.5861 36.6109L59.585 36.6097L54.3488 33.5651C53.5759 33.114 52.7149 32.8082 51.7804 32.6508C53.5343 29.9752 55.3532 26.5594 55.3606 23.8724C55.364 22.4447 54.8547 21.3613 53.924 20.821C53.9182 20.8176 53.9112 20.8171 53.9054 20.8138C53.9018 20.8117 53.8983 20.8096 53.8947 20.8075L50.1954 18.6603C49.2748 18.1071 48.0736 18.1978 46.8172 18.9156C45.7952 19.5088 44.9208 20.6537 44.238 21.6875C43.2824 21.3776 42.3765 21.461 41.5415 21.941C39.1606 23.3061 37.2946 26.5063 37.2946 29.2264C37.2946 31.1588 38.2175 32.7088 39.9595 33.7065L42.5585 35.2193C38.5175 37.8611 34.7812 42.1905 32.2195 47.2811C32.0764 47.5657 32.1902 47.9121 32.4753 48.0558C32.7612 48.1988 33.1064 48.0838 33.2494 47.7995C35.8256 42.6817 39.6128 38.3595 43.6707 35.8682C45.526 36.9441 47.7458 37.1073 48.1581 37.1286C48.1683 37.1292 48.1773 37.1292 48.1874 37.1292C48.3576 37.1292 48.5198 37.0543 48.6291 36.923C48.8867 36.6156 49.8947 35.3935 51.055 33.7279C52.06 33.8258 52.9748 34.0987 53.7685 34.5618L55.4913 35.5641C53.7318 35.5702 51.2849 36.1744 48.7846 37.6132C40.618 42.3261 34.148 53.7676 34.1734 62.9212C34.1814 65.7034 34.8579 68.0937 35.7036 69.5963L33.9942 68.6064C31.4893 67.1529 30.1033 64.0553 30.0921 59.8861C30.0921 58.7278 30.1946 57.5249 30.3963 56.3113C30.4481 55.997 30.2363 55.7 29.9219 55.6476C29.6121 55.5924 29.3112 55.8076 29.2582 56.122ZM47.393 19.9156C48.2573 19.4221 49.0607 19.3257 49.6083 19.6542L51.3932 20.6897C51.116 20.7877 50.8343 20.919 50.5503 21.083C49.7251 21.5626 48.8917 22.4562 48.0148 23.7964L45.2831 22.2026C45.856 21.3491 46.6064 20.3721 47.393 19.9156ZM38.4485 29.2264C38.4485 26.9204 40.0936 24.1011 42.1173 22.9411C42.8119 22.5415 43.4876 22.5906 44.2166 22.9157L45.8313 23.8577C45.6401 23.9225 45.4498 23.9969 45.2622 24.0983C43.0408 25.3903 41.0324 28.5778 41.0254 31.3949C41.0254 32.0565 41.13 32.6404 41.3113 33.1584L40.5364 32.7071C39.1516 31.9138 38.4485 30.7425 38.4485 29.2264ZM47.9327 35.9556C44.9962 35.69 42.1827 34.3243 42.1827 31.3966C42.195 28.6178 44.6035 25.3776 46.3505 24.8961C46.8601 24.7623 47.382 24.8277 47.9575 25.0966C48.3988 25.3033 48.6626 24.9331 48.8588 24.6254C49.6925 23.3285 50.4394 22.4836 51.1284 22.0858C51.797 21.7016 52.6512 21.4321 53.3256 21.8118L53.3425 21.8216C53.3454 21.8233 53.3488 21.8231 53.3517 21.8247C53.9056 22.1514 54.209 22.8758 54.2068 23.869C54.1965 27.4804 50.2216 33.179 47.9327 35.9556ZM62.908 46.3318C62.9327 55.255 56.6384 66.1607 48.8759 70.6426C45.2115 72.7593 41.7951 73.1193 39.2564 71.6584C39.2499 71.6547 39.2445 71.6494 39.2381 71.6456C39.2359 71.6444 39.2348 71.6422 39.2327 71.6409L39.2244 71.6361C36.2916 69.9229 35.3397 66.3009 35.3306 62.9183C35.2986 54.1839 41.471 43.1705 49.3593 38.616C52.2937 36.9219 56.0305 35.924 58.9658 37.5894C58.9711 37.5925 58.9769 37.5944 58.9822 37.5974C61.5017 39.0476 62.8956 42.1491 62.908 46.3318Z" fill="black"/>
<path d="M31.1535 53.0527C31.4397 52.0882 31.7868 51.1084 32.1834 50.1422C32.304 49.847 32.1631 49.51 31.8679 49.3895C31.5772 49.2683 31.238 49.4086 31.1152 49.7038C30.7051 50.7061 30.3456 51.7225 30.047 52.7237C29.9569 53.029 30.1304 53.3502 30.4358 53.4415C30.7535 53.5322 31.0655 53.3496 31.1535 53.0527Z" fill="black"/>
<path d="M50.5154 40.6134C43.5123 44.658 37.6157 54.8691 37.6382 62.9094C37.6382 65.6979 38.3933 68.8794 40.9691 69.9193C43.0712 70.7467 45.771 69.7689 47.7231 68.6471C54.7273 64.5962 60.6239 54.3801 60.6002 46.3387V46.337C60.5623 39.6089 56.7044 37.0607 50.5154 40.6134ZM51.0911 41.6134C52.5935 40.7495 53.6434 40.4396 54.6693 40.2716C55.424 41.6738 55.559 43.5547 55.5691 44.6011C55.5916 52.2808 49.9598 62.0367 43.27 65.9061C42.0302 66.622 40.8098 67.0858 39.713 67.2597C39.0188 66.0164 38.7921 64.334 38.7921 62.9077C38.7696 55.228 44.4024 45.4761 51.0911 41.6134ZM47.1473 67.6476C44.8949 68.9429 42.7337 69.3761 41.3961 68.8471C41.0604 68.7117 40.7641 68.5211 40.4968 68.281C41.5654 68.0316 42.7055 67.565 43.8469 66.9045C50.8511 62.8542 56.7466 52.638 56.7229 44.5961V44.5921C56.7109 43.3302 56.5431 41.6476 55.9122 40.2069C58.9399 40.4982 59.4334 44.1326 59.4464 46.342C59.4689 54.0218 53.836 63.7787 47.1473 67.6476Z" fill="black"/>
</svg>
