<svg width="93" height="92" viewBox="0 0 93 92" fill="none" xmlns="http://www.w3.org/2000/svg">
<rect x="0.5" width="92" height="92" rx="46" fill="white"/>
<path d="M20.82 55.48C20.82 55.72 20.94 55.84 21.06 55.96L23.34 57.28C23.58 57.4 23.94 57.4 24.18 57.04C24.3 56.8 24.3 56.44 23.94 56.2L21.9 55L22.02 31C22.86 31.48 37.74 40.12 39.3 40.96C39.3 43.48 39.3 31.96 39.42 65.08L28.74 58.84C28.5 58.72 28.14 58.72 27.9 59.08C27.78 59.32 27.78 59.68 28.14 59.92C31.38 61.72 40.02 66.76 39.78 66.64C39.9 66.64 39.9 66.64 40.02 66.76C40.14 66.76 40.26 66.76 40.38 66.64L49.98 61.12V70.48C49.98 71.44 50.46 71.8 50.7 71.92C52.62 73.12 55.02 74.56 54.9 74.44C55.38 74.68 56.1 74.68 56.58 74.32L70.38 66.4C71.46 65.8 72.18 64.48 72.18 63.28C72.06 29.08 72.18 73.24 72.06 39.28C72.06 38.56 71.82 38.08 71.34 37.84C71.22 37.72 67.02 35.2 67.14 35.32C66.66 35.08 66.06 35.08 65.46 35.44L61.38 37.72V28.48C61.38 28.24 61.26 28.12 61.02 28L42.78 17.32C42.54 17.2 42.42 17.2 42.18 17.32C16.98 31.84 51.78 11.8 21.06 29.44C20.82 29.56 20.82 29.8 20.7 29.92L20.82 55.48ZM28.98 26.32L46.26 36.28L39.78 40L22.62 29.92L28.98 26.32ZM34.98 22.84L52.14 32.8C52.02 32.92 47.1 35.68 47.34 35.56L30.18 25.6L34.98 22.84ZM48.06 36.64L52.86 33.88V39.28L50.7 38.44C50.46 38.32 50.1 38.44 49.98 38.68L48.06 41.68V36.64ZM70.98 39.28V42.76L55.14 52V49.24C55.14 48.52 55.74 47.56 56.34 47.08L70.38 39.04C70.74 38.68 70.98 38.92 70.98 39.28ZM70.98 59.08L64.38 62.92C65.58 60.16 67.5 55.24 67.5 53.32C67.5 50.44 65.34 49.24 62.82 50.68C60.54 52 58.74 55.12 58.74 57.76C58.74 59.92 61.1399 62.92 62.22 64.24L55.26 68.32V53.44L71.1 44.32C70.98 45.76 70.98 38.68 70.98 59.08ZM62.94 63.28C61.62 61.6 59.94 59.2 59.94 57.76C59.94 55.6 61.5 52.84 63.42 51.76C65.1 50.8 66.3 51.52 66.3 53.44C66.18 55 64.26 60.04 62.94 63.28ZM70.98 63.28C70.98 64 70.38 64.96 69.78 65.44L55.74 73.48C55.5 73.6 55.38 73.6 55.26 73.6C55.1399 73.48 55.14 73.36 55.14 73.12V69.64C60.18 66.76 66.54 63.04 70.98 60.52C70.98 62.08 70.98 61.6 70.98 63.28ZM66.18 36.4C66.3 36.28 66.54 36.28 66.66 36.28L69.54 38.08L55.74 46C54.66 46.6 53.94 48.04 53.94 49.12C53.94 49.72 54.06 73.96 54.06 72.64L51.3 70.96C51.18 70.96 51.18 70.72 51.18 70.48C51.18 68.08 51.18 79.36 51.18 46.48C51.18 45.76 51.78 44.8 52.38 44.32C71.34 33.4 64.74 37.24 66.18 36.4ZM51.54 43.48C50.46 44.08 49.74 45.4 49.74 46.6V59.8L40.5 65.2C40.5 62.68 40.5 74.2 40.38 41.08L46.74 37.36V43.72C46.74 44.08 46.98 44.32 47.34 44.32C47.58 44.32 47.7 44.2 47.82 44.08L50.58 39.76L53.1 40.84C53.34 40.96 53.46 40.84 53.7 40.84C53.82 40.72 53.94 40.6 53.94 40.36V33.28C54.06 33.16 60.66 29.44 60.3 29.68V38.56L51.54 43.48ZM42.42 18.52L59.7 28.48C59.58 28.6 52.98 32.32 53.34 32.08L36.18 22.12L42.42 18.52Z" fill="black"/>
<path d="M26.4599 59.08C26.4599 59.2 26.5799 59.2 26.6999 59.2C26.9399 59.2 27.0599 59.08 27.1799 58.96C27.4199 58.6 27.2999 58.24 27.0599 58L25.7399 57.16C25.4999 57.04 25.1399 57.04 24.8999 57.4C24.7799 57.64 24.7799 58 25.1399 58.24L26.4599 59.08Z" fill="black"/>
<path d="M64.26 44.2L61.26 46C61.02 46.12 60.9 46.48 61.02 46.84C61.14 47.08 61.5 47.2 61.86 47.08L64.86 45.28C65.1 45.16 65.22 44.8 65.1 44.44C64.86 44.08 64.5 43.96 64.26 44.2Z" fill="black"/>
<path d="M62.6999 53.44C61.8599 53.92 61.1399 55.12 61.1399 56.08C61.1399 57.28 62.2199 58 63.2999 57.28C64.1399 56.8 64.8599 55.6 64.8599 54.64C64.8599 53.44 63.8999 52.84 62.6999 53.44ZM62.6999 56.32C62.4599 56.44 62.3399 56.44 62.3399 56.08C62.3399 55.48 62.8199 54.76 63.2999 54.4C63.5399 54.28 63.6599 54.28 63.6599 54.64C63.6599 55.24 63.2999 56.08 62.6999 56.32Z" fill="black"/>
</svg>
