<svg width="93" height="93" viewBox="0 0 93 93" fill="none" xmlns="http://www.w3.org/2000/svg">
<rect x="0.5" y="0.5" width="92" height="92" rx="46" fill="white"/>
<path d="M65.1495 53.9159L61.6299 51.8789C61.453 51.7761 61.2357 51.7778 61.0611 51.8795L59.0525 53.0476C58.0552 52.3255 57.2581 50.8707 57.2674 49.701L57.3464 21.9496C57.3467 21.9414 57.3525 21.9347 57.3525 21.9265C57.352 21.7242 57.2442 21.5379 57.0695 21.4367L53.5484 19.4042C53.3726 19.303 53.1564 19.3019 52.9807 19.4053L49.6088 21.3649C49.339 21.5219 49.2467 21.8684 49.4042 22.1388C49.5607 22.4091 49.9067 22.4997 50.1781 22.3433L53.2664 20.5484L55.6568 21.9285L31.7305 35.8322C31.6171 35.7668 29.1847 34.3652 29.3386 34.4539L45.3309 25.1602C45.6006 25.0032 45.6929 24.6566 45.5354 24.3863C45.3778 24.116 45.0313 24.0237 44.7615 24.1818L27.9246 33.9664C27.7505 34.0676 27.6427 34.2544 27.6433 34.4562C27.644 34.7033 27.5661 62.1081 27.5653 62.2274C27.5532 66.104 30.2905 70.8445 33.6668 72.7947C34.6767 73.3779 35.6623 73.672 36.565 73.672C37.2212 73.672 37.8336 73.5161 38.3781 73.2027C38.3809 73.2011 38.3833 73.1988 38.3861 73.1972C38.701 73.0161 63.2124 58.773 63.4485 58.6349C64.7232 57.8942 65.4285 56.3929 65.4346 54.4084C65.4352 54.2056 65.3274 54.0182 65.1516 53.9165C65.151 53.9161 65.1501 53.9163 65.1495 53.9159ZM61.3474 53.0232L63.7387 54.4073L39.8131 68.3106C35.8499 66.0238 40.8572 68.9128 37.4268 66.9342L61.3474 53.0232ZM58.0081 53.6551L36.0089 66.4494C35.8354 66.5484 35.7265 66.7325 35.7237 66.9331C35.7095 67.9709 35.1488 68.2891 34.2439 67.7722C33.1456 67.141 32.218 65.5302 32.218 64.2572L32.2962 36.8141L56.2116 22.9157L56.1353 49.695C56.1243 51.0802 56.9078 52.6646 58.0081 53.6551ZM34.2329 71.8141C31.1694 70.0452 28.6864 65.7458 28.6974 62.2307L28.7737 35.4362C28.8872 35.5016 31.3147 36.9017 31.1608 36.813L31.0826 64.2583C31.0826 65.9442 32.2219 67.9198 33.6784 68.7573C34.9316 69.4704 36.2745 69.2031 36.7176 67.8369C37.01 68.005 39.2909 69.3165 39.1451 69.2327L39.2189 69.2753C39.1636 70.3939 38.7719 71.6706 37.8137 72.2215C36.8856 72.7549 35.6148 72.6123 34.2329 71.8141ZM62.8791 57.6565L40.1138 70.886C40.2237 70.5223 40.3459 69.8668 40.3708 69.2979L64.2174 55.4399C64.0372 56.4802 63.5773 57.2508 62.8791 57.6565Z" fill="black"/>
<path d="M47.0622 24.1536L48.5447 23.2924C48.815 23.1354 48.9073 22.7894 48.7498 22.5191C48.5928 22.2471 48.2434 22.1559 47.9764 22.314L46.4939 23.1752C46.2236 23.3322 46.1313 23.6782 46.2888 23.9485C46.4469 24.2213 46.7949 24.3097 47.0622 24.1536Z" fill="black"/>
<path d="M53.8059 28.3679C53.6307 28.2673 53.4145 28.2679 53.2404 28.3685L34.9907 38.9049C34.8149 39.0066 34.7071 39.194 34.7076 39.3968L34.7275 46.3319C34.7275 46.3411 34.734 46.3485 34.7345 46.3577C34.7562 46.8155 35.2354 47.0176 35.5766 46.8205L53.8258 36.2842C53.9984 36.1844 54.1095 35.9534 54.1088 35.7922L54.0895 28.8571C54.0889 28.6554 53.9806 28.4691 53.8059 28.3679ZM52.9601 29.8378L52.9756 35.4676C51.9284 36.0722 53.5955 35.1097 35.8569 45.3513L35.8408 39.7213L52.9601 29.8378Z" fill="black"/>
<path d="M53.2598 39.3377L43.861 44.7642C43.5902 44.9207 43.4973 45.2667 43.6537 45.5376C43.8106 45.8091 44.1577 45.9005 44.4271 45.7448L53.8258 40.3183C54.0967 40.1619 54.1896 39.8158 54.0331 39.545C53.8767 39.2736 53.529 39.1812 53.2598 39.3377Z" fill="black"/>
<path d="M53.2598 43.3718L43.861 48.7984C43.5902 48.9548 43.4973 49.3008 43.6537 49.5717C43.8106 49.8433 44.1577 49.9346 44.4271 49.779L53.8258 44.3524C54.0967 44.196 54.1896 43.8499 54.0331 43.5791C53.8767 43.3077 53.529 43.2154 53.2598 43.3718Z" fill="black"/>
<path d="M53.2598 47.4054L43.861 52.8325C43.5902 52.9889 43.4973 53.335 43.6537 53.6058C43.8106 53.8774 44.1577 53.9687 44.4271 53.8131L53.8258 48.386C54.0967 48.2296 54.1896 47.8835 54.0331 47.6127C53.8767 47.3407 53.529 47.2489 53.2598 47.4054Z" fill="black"/>
<path d="M53.2598 51.4395L35.0106 61.9759C34.7397 62.1323 34.6468 62.4783 34.8033 62.7492C34.9601 63.0208 35.3072 63.1121 35.5766 62.9565L53.8258 52.4201C54.0967 52.2637 54.1895 51.9176 54.0331 51.6468C53.8767 51.3759 53.529 51.2831 53.2598 51.4395Z" fill="black"/>
<path d="M35.2936 57.7671C35.3914 57.7671 35.4893 57.7416 35.5766 57.6913L41.9716 53.9988C42.1474 53.8971 42.2552 53.7097 42.2546 53.5069L42.2353 46.5718C42.2347 46.37 42.1264 46.1838 41.9517 46.0826C41.7765 45.9814 41.5603 45.9831 41.3862 46.0831L34.9907 49.7757C34.8149 49.8774 34.7071 50.0648 34.7076 50.2676L34.7275 57.2027C34.7284 57.5107 34.9777 57.7671 35.2936 57.7671ZM41.106 47.5524L41.1214 53.1824L35.8569 56.2221L35.8408 50.5921L41.106 47.5524Z" fill="black"/>
</svg>
