<svg width="93" height="92" viewBox="0 0 93 92" fill="none" xmlns="http://www.w3.org/2000/svg">
<path d="M10.7035 59.3743C10.7298 68.5613 13.8938 75.4504 19.6125 78.773L31.3214 85.5777C31.3415 85.5893 31.3584 85.6055 31.3786 85.6172C38.0749 89.465 46.1721 87.4294 52.8903 83.544C60.7982 78.9738 68.2035 71.1744 73.7433 61.5806C73.7493 61.5702 73.7491 61.5578 73.7546 61.5473C79.2876 51.9507 82.3217 41.6744 82.2963 32.606C82.271 23.4471 79.1158 16.5837 73.4188 13.2522C73.4066 13.2443 73.4 13.2316 73.3874 13.2243L61.6755 6.41822C55.8712 3.04399 48.215 3.76529 40.1155 8.44225C38.6585 9.2839 37.1956 10.251 35.7691 11.3156C35.3843 11.6029 35.3055 12.1462 35.592 12.5301C35.8793 12.9149 36.4251 12.9938 36.8065 12.7073C38.0381 11.7877 39.2959 10.946 40.5512 10.1993L50.556 16.0137C42.8131 20.8583 36.0335 28.6998 31.4287 36.4607C31.0655 36.2496 20.6953 30.2229 21.217 30.526C22.8384 27.7959 24.6378 25.1871 26.5737 22.7622C26.8729 22.3875 26.8118 21.8408 26.4372 21.5425C26.0634 21.2424 25.5176 21.3052 25.2175 21.6789C16.9606 32.0236 10.6655 46.2475 10.7035 59.3743ZM61.4729 23.5163C66.6614 23.4784 69.938 26.4625 71.4961 31.4079C71.9868 33.0459 72.1378 34.2739 72.2375 35.8128L62.3264 30.0573C62.2706 27.6373 61.9116 25.448 61.2557 23.5244C61.3278 23.5222 61.4011 23.5171 61.4729 23.5163ZM66.7911 56.612C66.6154 56.5098 55.9174 50.2916 56.5955 50.6858C60.0264 44.5097 62.0213 37.9802 62.2984 32.0559L72.2895 37.8622C72.1971 44.3802 69.9287 50.9577 66.7911 56.612ZM48.4346 74.2557C42.7056 76.3699 37.1363 75.3845 34.2852 69.9345C42.9597 68.3028 51.0149 60.0277 55.7326 52.1925C55.9083 52.2947 66.5968 58.5116 65.9189 58.1173C62.0044 64.6369 55.5176 71.6845 48.4346 74.2557ZM59.4515 23.7038C60.1849 25.6672 60.5825 27.9584 60.5972 30.5633C60.5972 30.5654 60.5956 30.5671 60.5956 30.5692C60.6134 36.8125 58.5072 43.9161 54.6651 50.5713C54.659 50.582 54.6595 50.5942 54.6538 50.6051C50.1453 58.364 42.1042 66.9282 33.5474 68.2753C32.8036 66.3141 32.4076 64.02 32.4076 61.4068C32.4076 61.4031 32.4048 61.4002 32.4048 61.3965C32.3904 55.1729 34.5001 48.0783 38.3474 41.4157C42.1895 34.7605 47.2945 29.3691 52.7224 26.2355C55.0646 24.8831 57.3279 24.0564 59.4515 23.7038ZM12.4411 58.8734C12.5241 50.4586 15.3178 40.9776 20.3482 32.0288L30.5599 37.9635C26.0361 46.0041 22.7399 55.7115 22.4392 64.6836C22.1492 64.5151 12.1285 58.6917 12.4411 58.8734ZM24.2117 64.6377C24.5261 55.747 27.6513 46.719 32.0811 38.8389L36.4139 41.3077C32.7869 47.8353 30.7623 54.7423 30.6712 60.906L24.2117 64.6377ZM12.475 60.9008C12.6918 61.0268 23.0821 67.0651 22.4205 66.6806C22.4912 71.2925 23.4133 76.1713 25.838 80.1176C25.9189 80.2493 25.9899 80.3914 26.0736 80.52L20.4846 77.2727C15.6348 74.4545 12.8191 68.674 12.475 60.9008ZM52.0215 82.0412C44.5068 86.3876 37.4804 87.1225 32.244 84.1119C32.2289 84.1032 32.2162 84.091 32.2011 84.0822C32.1999 84.0816 32.1994 84.0803 32.1982 84.0797C26.3238 80.6654 24.2846 73.4846 24.1744 66.6671L30.712 62.8926C30.8488 65.4145 31.3419 67.6634 32.1787 69.5843C35.0888 76.6324 42.1747 78.5639 49.0372 75.8844C49.0397 75.8834 49.0426 75.8821 49.0451 75.8811C49.0491 75.8795 49.0535 75.8784 49.0575 75.8768C49.0591 75.8761 49.06 75.8747 49.0616 75.8741C56.5584 73.1434 63.3583 65.7968 67.439 58.9904C67.6131 59.0895 72.08 61.6323 71.7959 61.4706C66.459 70.4556 59.4614 77.7412 52.0215 82.0412ZM72.6611 59.961C72.487 59.862 68.0262 57.3252 68.3103 57.4868C71.5346 51.6823 73.9456 44.591 74.0417 37.8764C74.232 37.7665 80.7633 33.9952 80.5359 34.1265C80.2477 42.2877 77.4834 51.3699 72.6611 59.961ZM80.5554 32.1101L79.329 32.8184L74.0082 35.8909C73.5693 23.4809 63.7188 17.8834 51.8545 24.7319C46.3724 27.8968 41.2217 33.2307 37.2813 39.8034L32.9503 37.3358C37.6956 29.3449 44.6171 21.4158 52.6953 16.7528C68.4315 7.67223 80.2839 15.0447 80.5554 32.1101ZM60.8024 7.91844L66.3846 11.1621C66.3241 11.1585 66.2614 11.1625 66.2007 11.1595C66.0972 11.1545 65.9909 11.1583 65.8868 11.155C61.1749 11.0055 56.3448 12.7124 52.2659 14.9998C52.0902 14.8977 41.6492 8.82904 42.3107 9.21355C49.3482 5.51978 55.8738 5.05446 60.8024 7.91844Z" fill="white"/>
<path d="M32.6118 13.8778C31.2031 15.1153 29.8105 16.4706 28.4713 17.9047C28.1442 18.2556 28.1637 18.8048 28.5137 19.132C28.8658 19.4592 29.4143 19.439 29.741 19.0896C31.0404 17.6962 32.3923 16.3816 33.7577 15.1814C34.1179 14.8652 34.1535 14.3169 33.8365 13.9566C33.5212 13.5973 32.9728 13.5608 32.6118 13.8778Z" fill="white"/>
<path d="M48.8575 44.5103C48.0769 44.0602 47.0607 44.1314 46.0698 44.7018C45.6333 44.9544 45.235 45.0231 45.007 44.8942C44.7815 44.7646 44.6467 44.3916 44.645 43.8966C44.6417 42.4769 45.6833 40.6733 46.92 39.9596C47.3548 39.7096 47.7506 39.6392 47.9743 39.7689C48.1998 39.8994 48.3354 40.2724 48.3371 40.7682C48.3388 41.2471 48.727 41.6336 49.205 41.6336H49.2076C49.6873 41.6319 50.0747 41.2428 50.073 40.7631C50.0696 39.624 49.6204 38.7137 48.8397 38.2644C48.404 38.0143 47.8918 37.9424 47.3539 38.0121V36.3142C47.3539 35.8344 46.9657 35.4462 46.486 35.4462C46.0063 35.4462 45.6181 35.8344 45.6181 36.3142V38.7557C44.0662 39.8913 42.9045 42.04 42.9092 43.9017C42.9126 45.04 43.3618 45.9503 44.1407 46.3987C44.9247 46.8505 45.9444 46.7809 46.9378 46.2054C47.3709 45.9554 47.765 45.8859 47.9921 46.0147C48.2176 46.1444 48.3532 46.5182 48.3549 47.014C48.3591 48.4286 47.3209 50.2264 46.0876 50.9383C45.6494 51.1909 45.2502 51.2613 45.0231 51.1316C44.7993 51.0028 44.6645 50.6324 44.6628 50.1425C44.6611 49.6636 44.273 49.2771 43.7949 49.2771H43.7924C43.3126 49.2788 42.9253 49.6678 42.927 50.1475C42.9304 51.2808 43.3788 52.1877 44.1577 52.636C44.4984 52.8327 44.8849 52.9302 45.2943 52.9302C45.3992 52.9302 45.5105 52.8945 45.6181 52.8816V54.6075C45.6181 55.0873 46.0063 55.4755 46.486 55.4755C46.9657 55.4755 47.3539 55.0873 47.3539 54.6075V52.1668C48.92 51.0403 50.0963 48.8789 50.0908 47.0089C50.0874 45.8698 49.6382 44.9586 48.8575 44.5103Z" fill="white"/>
</svg>
