<svg width="93" height="92" viewBox="0 0 93 92" fill="none" xmlns="http://www.w3.org/2000/svg">
<path d="M26.4437 70.656C26.0757 70.472 25.8917 70.472 25.5237 70.656C25.1557 70.84 24.9717 71.208 24.9717 71.392V74.888C24.9717 75.256 25.1557 75.44 25.5237 75.624L37.2997 82.432C37.4837 82.432 37.6677 82.616 37.8517 82.616C38.4037 82.616 38.7717 82.248 38.7717 81.696V78.016C38.7717 77.648 38.5877 77.464 38.2197 77.28L26.4437 70.656ZM36.7477 80.224L26.8117 74.52V73.048L36.7477 78.752V80.224Z" fill="black"/>
<path d="M8.77962 60.352C8.41162 60.168 8.22762 60.168 7.85962 60.352C7.49162 60.536 7.30762 60.904 7.30762 61.088V64.584C7.30762 64.952 7.49162 65.136 7.85962 65.32L19.6356 72.128C20.1876 72.496 21.1076 71.944 21.1076 71.392V67.896C21.1076 67.528 20.9236 67.344 20.5556 67.16L8.77962 60.352ZM19.0836 69.92L9.14762 64.216V62.744L19.0836 68.448V69.92Z" fill="black"/>
<path d="M25.5237 63.848L37.2997 70.656C37.4837 70.656 37.6677 70.84 37.8517 70.84C38.4037 70.84 38.7717 70.472 38.7717 69.92V66.24C38.7717 65.872 38.5877 65.688 38.2197 65.504L26.4437 58.696C26.0757 58.512 25.8917 58.512 25.5237 58.696C25.1557 58.88 24.9717 59.248 24.9717 59.432V62.928C24.9717 63.296 25.1557 63.664 25.5237 63.848ZM26.8117 61.088L36.7477 66.792V68.264L26.8117 62.56V61.088Z" fill="black"/>
<path d="M7.85962 53.728L19.6356 60.536C20.1876 60.904 21.1076 60.352 21.1076 59.8V56.304C21.1076 55.936 20.9236 55.752 20.5556 55.568L8.77962 48.76C8.41162 48.576 8.22762 48.576 7.85962 48.76C7.49162 48.944 7.30762 49.312 7.30762 49.496V52.992C7.49162 53.176 7.67562 53.544 7.85962 53.728ZM9.33162 50.968L19.2676 56.672V58.144L9.33162 52.44V50.968Z" fill="black"/>
<path d="M25.5237 51.888L37.2997 58.696C37.4837 58.696 37.6677 58.88 37.8517 58.88C38.4037 58.88 38.7717 58.512 38.7717 57.96V54.464C38.7717 54.096 38.5877 53.912 38.2197 53.728L26.4437 46.92C26.0757 46.736 25.8917 46.736 25.5237 46.92C25.1557 47.104 24.9717 47.472 24.9717 47.656V51.152C24.9717 51.52 25.1557 51.704 25.5237 51.888ZM26.8117 49.128L36.7477 54.832V56.304L26.8117 50.6V49.128Z" fill="black"/>
<path d="M90.1078 25.208C65.8198 11.04 75.2038 16.56 50.7318 2.20801C50.3638 2.02401 50.1798 2.02401 49.8118 2.20801L2.89184 29.44C2.52384 29.624 2.33984 29.992 2.33984 30.176C2.33984 30.36 2.33984 57.408 2.33984 66.056C2.33984 66.424 2.52384 66.608 2.70784 66.792C13.7478 73.232 43.3718 90.344 42.2678 89.792C42.6358 89.976 42.8198 89.976 43.1878 89.792L52.3878 84.456C52.7558 84.272 52.9398 83.904 52.9398 83.72V76.176L54.7798 75.072C54.9638 75.256 61.5878 79.12 61.2198 78.752C61.5878 78.936 61.7718 78.936 62.1398 78.752L71.3398 73.416C71.7078 73.232 71.8918 72.864 71.8918 72.68V65.136L73.7318 64.032L80.1718 67.712C80.5398 67.896 80.7238 67.896 81.0918 67.712L90.2918 62.376C90.6598 62.192 90.8438 61.824 90.8438 61.64C90.8438 57.776 90.8438 29.808 90.8438 25.76C90.6598 25.76 90.2918 25.392 90.1078 25.208ZM88.8198 49.312C88.6358 49.496 80.9078 53.912 81.4598 53.544V47.104C81.4598 46.552 80.7238 46 80.1718 46.368C79.9878 46.552 70.2358 52.072 70.4198 51.888C70.0518 52.072 69.8678 52.44 69.8678 52.624V59.984L62.5078 64.216C62.5078 64.032 62.5078 57.408 62.5078 57.776C62.5078 57.224 61.7718 56.672 61.0358 57.04L51.4678 62.56C51.0998 62.744 50.9158 63.112 50.9158 63.296V70.656C50.7318 70.84 43.3718 75.072 43.5558 74.888V65.136C44.6598 64.584 78.5158 44.896 88.6358 39.008L88.8198 49.312ZM52.9398 70.104V64.216L54.7798 63.112L59.7478 66.056L52.9398 70.104ZM21.6598 20.608L59.3798 42.504L51.0998 47.288L13.3798 25.392L21.6598 20.608ZM31.7798 14.72L69.4998 36.616L61.0358 41.4L23.4998 19.504L31.7798 14.72ZM42.0838 8.83201L79.6198 30.728L71.3398 35.512L33.6198 13.616L42.0838 8.83201ZM71.7078 47.288V41.4L73.5478 40.296L78.5158 43.24L71.7078 47.288ZM79.6198 36.984V41.768L75.5718 39.376L79.6198 36.984ZM88.8198 37.352L81.4598 41.584V35.144C81.4598 34.592 80.9078 34.04 80.1718 34.408C79.9878 34.592 70.2358 40.112 70.4198 39.928C70.0518 40.112 69.8678 40.48 69.8678 40.664V48.024C69.6838 48.208 61.9558 52.624 62.5078 52.256V45.816C62.5078 45.264 61.7718 44.712 61.2198 45.08C61.0358 45.264 51.2838 50.784 51.4678 50.6C51.0998 50.784 50.9158 51.152 50.9158 51.336V58.696L43.5558 62.928V53.176C50.5478 49.68 82.3798 31.28 88.8198 27.6V37.352ZM52.9398 58.144V52.256L54.7798 51.152L59.7478 54.096L52.9398 58.144ZM60.6678 47.84V52.624L56.6198 50.232L60.6678 47.84ZM41.8998 53.728V63.48L4.17984 41.584V31.832L41.8998 53.728ZM41.8998 65.504V75.256C-9.80416 45.448 8.04384 55.752 4.17984 53.544V43.792L41.8998 65.504ZM60.6678 64.584L56.6198 62.192L60.6678 59.8C60.6678 59.984 60.6678 64.768 60.6678 64.584ZM71.7078 59.248V53.36L73.5478 52.256L78.5158 55.2L71.7078 59.248ZM79.6198 48.76V53.544L75.5718 51.152L79.6198 48.76ZM50.1798 4.04801L87.8998 25.944L81.4598 29.624L43.9238 7.72801L50.1798 4.04801ZM11.5398 26.496L49.2598 48.392L42.8198 52.072L5.09984 30.176L11.5398 26.496ZM4.17984 65.504V55.752C55.6998 85.744 38.0358 75.44 41.7158 77.648V87.4L4.17984 65.504ZM56.6198 73.968L60.6678 71.576C60.6678 71.76 60.6678 76.728 60.6678 76.36L56.6198 73.968ZM75.3878 63.112L79.6198 60.72V65.504L75.3878 63.112ZM81.4598 65.504V59.064C81.4598 58.512 80.7238 57.96 80.1718 58.328L70.6038 63.848C70.2358 64.032 70.0518 64.4 70.0518 64.584V72.128L62.6918 76.36C62.6918 76.176 62.6918 69.552 62.6918 69.92C62.6918 69.184 61.7718 68.816 61.2198 69.184L51.6518 74.704C51.2838 74.888 51.0998 75.256 51.0998 75.44V82.8L43.7398 87.032V77.28C44.1078 77.28 89.0038 51.336 88.8198 51.52V61.272L81.4598 65.504Z" fill="black"/>
<path d="M19.6356 48.576C20.1876 48.944 21.1076 48.392 21.1076 47.84V44.344C21.1076 43.976 20.9236 43.792 20.5556 43.608L8.77962 36.8C8.41162 36.616 8.22762 36.616 7.85962 36.8C7.49162 36.984 7.30762 37.352 7.30762 37.536V41.032C7.30762 41.4 7.49162 41.584 7.85962 41.768L19.6356 48.576ZM9.33162 39.008L19.2676 44.712V46.184L9.33162 40.48V39.008Z" fill="black"/>
</svg>
