<svg width="93" height="92" viewBox="0 0 93 92" fill="none" xmlns="http://www.w3.org/2000/svg">
<rect x="0.5" width="92" height="92" rx="46" fill="white"/>
<path d="M27.4603 61.5512C32.961 64.727 40.2006 66.1253 46.5785 66.1253C52.9565 66.1253 60.1345 64.7505 65.6325 61.555C70.7877 58.5596 73.6333 54.5448 73.6455 50.2498L73.6698 41.9256C73.6699 41.8964 73.6576 41.8713 73.6535 41.8433C73.6421 39.3924 72.7029 36.9794 70.8562 34.781C70.6561 34.5417 70.299 34.5107 70.0591 34.7119C69.8192 34.9131 69.7882 35.2702 69.9894 35.5096C75.0947 41.5881 72.0765 48.1901 65.0875 52.2519C54.9099 58.1649 38.2969 58.1621 28.0507 52.2464C24.1376 49.9871 20.4833 46.3311 20.487 41.7919C20.4898 37.9098 23.1308 34.2371 27.9291 31.4483C37.5767 25.8423 53.7244 25.3373 64.3678 31.1095C64.6386 31.2565 64.9847 31.1576 65.135 30.8818C65.2843 30.607 65.1825 30.2632 64.9073 30.1145C53.8853 24.1357 37.3075 24.686 27.3608 30.4699C22.212 33.4622 19.3716 37.4702 19.3555 41.7602C19.3554 41.7637 19.3534 41.7667 19.3534 41.7702L19.3302 50.095C19.318 54.4486 22.2057 58.5176 27.4603 61.5512ZM25.8009 59.0868V52.1594C26.3472 52.537 26.9604 52.9242 27.4847 53.227C29.2177 54.2276 31.1399 55.0473 33.1683 55.7195V62.8618C31.3392 62.232 29.6012 61.4797 28.0264 60.5705C27.2153 60.1023 26.4885 59.6013 25.8009 59.0868ZM41.6787 57.5346V64.7407C39.1319 64.4621 36.6426 63.965 34.3003 63.2482V56.0861C36.6506 56.7802 39.1365 57.2637 41.6787 57.5346ZM42.8108 64.8352V57.629C45.4087 57.8401 47.8609 57.8275 50.1892 57.6458V64.8484C47.7412 65.0445 45.2597 65.0398 42.8108 64.8352ZM58.6886 56.1382V63.294C56.3513 64.001 53.8648 64.4846 51.3213 64.7541V57.5514C54.0853 57.2682 56.6465 56.7316 58.6886 56.1382ZM65.0643 60.5766C63.4634 61.5068 61.6903 62.2732 59.8207 62.9106V55.784C62.9725 54.7549 65.2165 53.5953 67.1113 52.3072C67.1394 52.288 67.1711 52.2708 67.1991 52.2515V59.1499C66.5379 59.6442 65.8401 60.1257 65.0643 60.5766ZM72.5134 50.2464C72.5052 53.1221 71.0404 55.8817 68.3311 58.253V51.4125C70.0201 50.0821 71.5406 48.4591 72.5245 46.5296L72.5134 50.2464ZM20.4722 46.3859C21.436 48.3082 22.9702 49.9765 24.6688 51.3227V58.1894C21.9288 55.7917 20.4541 53.0041 20.4623 50.0983L20.4722 46.3859Z" fill="black"/>
<path d="M66.5347 31.7419C66.3556 31.9984 66.4186 32.351 66.6751 32.5301C67.2577 32.9375 67.8104 33.3698 68.319 33.8142C68.4262 33.9082 68.5589 33.9541 68.6916 33.9541C68.8486 33.9541 69.0055 33.8888 69.1172 33.7606C69.3239 33.5251 69.2996 33.1675 69.0641 32.9618C68.5246 32.4903 67.9398 32.0332 67.3229 31.6026C67.0697 31.424 66.7149 31.4843 66.5347 31.7419Z" fill="black"/>
<path d="M34.6309 34.666C27.9024 38.5753 27.9053 45.1029 34.7072 49.0309C41.259 52.813 51.8811 52.8145 58.3879 49.0326C65.1195 45.1218 65.1206 38.5931 58.3116 34.6616C51.7624 30.8818 41.1403 30.8834 34.6309 34.666ZM57.8197 48.0541C51.6242 51.6532 41.5107 51.6516 35.2732 48.0503C29.2389 44.5654 29.2206 39.1197 35.1992 35.6444C41.4264 32.0267 51.5393 32.0592 57.7456 35.6422C63.7856 39.1298 63.8041 44.576 57.8197 48.0541Z" fill="black"/>
<path d="M55.3355 38.2673L53.5189 39.3233L52.2807 38.6085L53.5357 37.8793C53.8065 37.7223 53.8983 37.3763 53.7413 37.106C53.5832 36.8334 53.235 36.745 52.9674 36.9009L51.1512 37.9562L49.7254 37.133C49.7104 37.1219 49.7014 37.1058 49.6851 37.096C49.5717 37.0859 44.967 35.5692 47.3878 37.0297L48.2707 37.5635L43.9573 40.0705L39.1233 42.88L37.6966 42.0173C37.4312 41.8581 37.0819 41.9405 36.9194 42.2086C36.758 42.4761 36.8431 42.8244 37.1106 42.9858L38.822 44.0206L38.8235 44.021C38.8271 44.0231 38.8284 44.0273 38.832 44.0294L39.7686 44.5701L38.5224 45.2942C38.2515 45.4511 38.1598 45.7972 38.3168 46.0675C38.4218 46.2488 38.612 46.3494 38.8065 46.3494C38.9038 46.3494 39.0011 46.3245 39.0907 46.2726L40.8984 45.2223L42.1364 45.937L40.8905 46.6612C40.6196 46.8181 40.5279 47.1647 40.6848 47.435C40.7899 47.6158 40.98 47.7164 41.1746 47.7164C41.2719 47.7164 41.3692 47.6915 41.4587 47.6396L43.2659 46.589L43.6963 46.8375C44.4669 47.2819 45.4586 47.5257 46.4867 47.5257C46.5321 47.5257 46.5796 47.5257 46.6271 47.5257C47.6597 47.5257 48.6459 47.2819 49.412 46.8369C50.2765 46.335 50.7519 45.6347 50.7508 44.8652C50.7506 44.7297 50.7172 44.5997 50.688 44.4691C50.9986 44.5149 51.3151 44.5463 51.6397 44.5463C51.6739 44.5463 51.7126 44.5463 51.7502 44.5468C52.7861 44.5468 53.7756 44.3014 54.5439 43.8542C55.4051 43.3539 55.8794 42.6558 55.8783 41.8874C55.8773 41.1516 55.4289 40.4835 54.6345 39.9835L55.9037 39.2457C56.1746 39.0887 56.2664 38.7422 56.1094 38.4719C55.9513 38.201 55.603 38.1115 55.3355 38.2673ZM49.6187 44.8669C49.6187 45.2101 49.3368 45.5717 48.8438 45.858C48.2423 46.2068 47.4198 46.4141 46.5575 46.3931C45.6587 46.4041 44.8682 46.2068 44.2624 45.8569L40.2448 43.5375L44.2421 41.2138L48.8227 43.8586C49.328 44.1499 49.6187 44.5175 49.6187 44.8669ZM53.9746 42.8758C53.3721 43.2262 52.5153 43.4076 51.6861 43.4142C50.8094 43.4042 49.9891 43.224 49.3888 42.878L45.3704 40.5579L49.3689 38.2342L53.9491 40.8792C54.4555 41.171 54.7451 41.5392 54.7462 41.8891C54.7462 42.2313 54.4654 42.5911 53.9746 42.8758Z" fill="black"/>
</svg>
