<svg width="93" height="92" viewBox="0 0 93 92" fill="none" xmlns="http://www.w3.org/2000/svg">
<path d="M53.1697 12.5278L55.8887 10.9581C56.3041 10.7182 56.4465 10.1876 56.2057 9.77231C55.9667 9.35445 55.4344 9.21545 55.0208 9.45446L52.3018 11.0242C51.8865 11.2641 51.7441 11.7946 51.9848 12.21C52.1441 12.4888 52.4374 12.6439 52.7357 12.6439C52.8832 12.6439 53.0324 12.6066 53.1697 12.5278Z" fill="white"/>
<path d="M74.2101 66.0467L74.2 61.6777C74.2003 61.6688 74.2067 61.6617 74.2067 61.6528C74.2067 61.3435 74.0422 61.057 73.7744 60.901L65.1977 55.9108L65.2643 39.8137L70.5943 36.7365C70.8638 36.5805 71.0299 36.2923 71.0282 35.9813L70.9282 8.65943C70.9266 8.38517 70.6632 8.00952 70.496 7.91271L70.4939 7.91155C70.4934 7.91123 70.4931 7.91049 70.4926 7.91017C70.492 7.90985 70.4913 7.90996 70.4908 7.90964L64.5493 4.45712C64.2849 4.30116 63.9509 4.30116 63.6797 4.45542L57.6941 7.91102C57.2788 8.15088 57.1364 8.68147 57.3771 9.09679C57.6144 9.5138 58.145 9.6511 58.562 9.41463L64.112 6.20992L68.3278 8.66028L51.3459 18.4652L25.6058 33.3263L21.3904 30.8763L49.8404 14.4501C50.2557 14.2103 50.3981 13.6797 50.1574 13.2643C49.92 12.8473 49.3878 12.7075 48.9725 12.9465L19.224 30.1219C18.9277 30.2936 18.79 30.6983 18.79 30.8729C18.79 30.8736 18.7906 30.8743 18.7906 30.875C18.7906 31.0604 18.8882 58.0114 18.8901 58.1989C18.8917 58.5066 19.0562 58.7914 19.3223 58.9457C19.5471 59.0763 25.6601 62.6282 25.2701 62.4016C25.2711 62.4021 25.2714 62.4033 25.2724 62.4038C25.5401 62.558 25.8707 62.5572 26.1386 62.403L31.3587 59.389L31.3223 68.5392L22.846 73.43C22.8441 73.4311 22.8417 73.4306 22.8398 73.4317C22.5703 73.5868 22.4058 73.875 22.4058 74.1852L22.416 78.5825C22.416 78.891 22.5804 79.1758 22.8483 79.3309C23.0268 79.4346 37.1622 87.6489 36.9798 87.5429C36.9794 87.5427 36.9802 87.5431 36.9798 87.5429C37.249 87.6979 37.5787 87.6985 37.8471 87.5439L47.5689 81.9304C47.8384 81.7744 48.0028 81.4871 48.0028 81.1769C48.0028 81.1451 48.0037 81.6085 47.9943 76.789C47.9943 76.7867 47.9926 76.7848 47.9926 76.7826V76.7796C47.9926 76.5687 47.8772 76.2128 47.557 76.0295C47.5534 76.0274 47.5489 76.0285 47.5453 76.0265L38.9871 71.046L39.0537 54.9464L57.5711 44.2554L57.5346 53.4114L49.0538 58.2956C49.0517 58.2968 49.0509 58.2993 49.0487 58.3005C49.0477 58.3012 49.0464 58.3009 49.0453 58.3015C48.7758 58.4566 48.6114 58.7448 48.6114 59.055L48.6216 63.4523C48.6216 63.7608 48.786 64.0456 49.0538 64.2007C49.2324 64.3044 63.3677 72.5187 63.1854 72.4127C63.1849 72.4125 63.1858 72.4129 63.1854 72.4127C63.4546 72.5677 63.7842 72.5683 64.0526 72.4137L73.7761 66.8002C74.0456 66.6443 74.2101 66.3569 74.2101 66.0467ZM33.0311 75.332L33.0989 58.3863L37.3131 55.9537L37.2334 75.3464C37.2334 75.4269 37.1131 75.6193 36.8012 75.8092C35.918 76.3169 34.3584 76.3177 33.482 75.8202C33.1498 75.6176 33.0311 75.4294 33.0311 75.332ZM31.3088 70.5508L31.2953 75.3294C31.2953 76.0982 31.7513 76.7991 32.6039 77.317C33.9192 78.0625 36.1755 78.1725 37.6843 77.3034C38.4062 76.8643 38.9693 76.1965 38.9693 75.3506L38.9795 73.0503L45.39 76.7806L37.4064 81.3905L25.0096 74.186L31.3088 70.5508ZM24.1451 75.6939L36.5362 82.8946L36.5417 85.2816L24.1502 78.0807L24.1451 75.6939ZM38.2777 85.2911L38.2726 82.8965L46.2602 78.2891L46.2653 80.6785L38.2777 85.2911ZM26.5675 60.1509C26.5456 54.2101 26.4962 40.766 26.4743 34.8295L69.1975 10.1634L69.2907 35.4846C62.8865 39.182 72.1559 33.8292 26.5675 60.1509ZM20.531 32.385L24.7384 34.8302C24.7474 37.28 24.8224 57.747 24.8312 60.1396L20.6242 57.6946L20.531 32.385ZM63.5238 40.8186L63.4441 60.2103C63.4441 60.3086 63.3305 60.4891 63.0067 60.6747C62.1235 61.1909 60.5674 61.1918 59.6672 60.6671C59.4011 60.5188 59.2435 60.3416 59.2435 60.1975C59.2442 60.0164 59.312 43.0752 59.3113 43.2507L63.5238 40.8186ZM57.5266 55.4192L57.5076 60.1925C57.5076 60.9909 57.9856 61.7164 58.8061 62.1749C60.2221 62.9993 62.4521 63.0069 63.8763 62.1775C64.7171 61.6935 65.1799 60.9951 65.1799 60.2145L65.1901 57.9142L71.6047 61.646C71.4286 61.7474 63.0789 66.5563 63.6017 66.2552L51.2202 59.0516L57.5266 55.4192ZM50.3506 60.5637L62.7417 67.7644L62.7473 70.1514L50.3557 62.9505L50.3506 60.5637ZM64.4832 70.1609L64.4781 67.7648C64.6541 67.6632 72.99 62.8519 72.4674 63.1535L72.4725 65.5483L64.4832 70.1609Z" fill="white"/>
<path d="M49.4759 28.8726L65.5426 19.5958C65.9579 19.3559 66.1003 18.8253 65.8596 18.41C65.6206 17.9922 65.0883 17.8523 64.6747 18.0922L48.6079 27.369C48.1926 27.6088 48.0502 28.1394 48.2909 28.5547C48.5272 28.9682 49.0581 29.1124 49.4759 28.8726Z" fill="white"/>
<path d="M64.6747 25.1364L48.6079 34.4132C48.1926 34.6531 48.0502 35.1837 48.2909 35.599C48.5272 36.0125 49.0581 36.1566 49.4759 35.9168L65.5426 26.64C65.9579 26.4002 66.1003 25.8696 65.8596 25.4543C65.6206 25.0364 65.0883 24.8966 64.6747 25.1364Z" fill="white"/>
<path d="M64.6747 32.1815L48.6079 41.4575C48.1926 41.6974 48.0502 42.2279 48.2909 42.6433C48.5272 43.0567 49.0581 43.2009 49.4759 42.9611L65.5426 33.6852C65.9579 33.4453 66.1003 32.9147 65.8596 32.4994C65.6206 32.0815 65.0883 31.9425 64.6747 32.1815Z" fill="white"/>
<path d="M37.2946 32.4494C33.1431 34.8463 29.7765 40.6726 29.7884 45.4369C29.8022 50.5376 33.6362 52.8817 38.2082 50.2418C42.425 47.8049 45.7111 42.0408 45.7009 37.2475C45.6854 32.2016 41.886 29.8012 37.2946 32.4494ZM38.9558 40.8888L43.6431 35.1865C43.8533 35.7806 43.9616 36.478 43.965 37.2518C43.9684 38.4502 43.7193 39.7834 43.243 41.1403L38.9558 40.8888ZM37.3403 48.7382C33.9845 50.6791 31.5347 49.2465 31.5242 45.4318C31.5123 41.2227 34.4907 36.0728 38.1625 33.953C39.9608 32.9148 41.5814 32.8267 42.6374 33.6748L36.53 41.1049C36.3232 41.3566 36.2758 41.7041 36.4063 42.0033C36.5368 42.3025 36.825 42.5034 37.1505 42.5221L42.5258 42.8374C41.2731 45.3742 39.3542 47.5745 37.3403 48.7382Z" fill="white"/>
</svg>
