<svg width="93" height="92" viewBox="0 0 93 92" fill="none" xmlns="http://www.w3.org/2000/svg">
<path d="M20.4326 55.2882C20.8419 55.5272 21.3757 55.3926 21.6183 54.9738C21.8599 54.5593 21.7183 54.0287 21.3039 53.788L17.355 51.4936C16.9422 51.2521 16.4099 51.3911 16.1692 51.8081C15.9277 52.2225 16.0692 52.7531 16.4837 52.9938L20.4326 55.2882Z" fill="white"/>
<path d="M87.7086 45.5105L87.7066 45.5094L87.7052 45.508L87.7034 45.5075L40.5499 18.1048C40.2787 17.948 39.9473 17.948 39.6795 18.1031L5.27356 37.9679C5.00224 38.125 4.8404 38.414 4.8396 38.7189L4.84002 38.7205C4.84002 38.8953 4.85877 45.9167 4.85909 45.7419C4.85994 46.0504 5.02437 46.3352 5.29051 46.4895L12.5712 50.7206C12.9866 50.9605 13.5163 50.8206 13.7579 50.407C13.9994 49.9925 13.8579 49.4611 13.4443 49.2204L6.59325 45.2393L6.57969 40.2303L51.9997 66.6257L52.0142 71.6346L25.8724 56.4427C25.4579 56.2036 24.9265 56.3418 24.6857 56.7563C24.4442 57.1707 24.5857 57.7022 24.9994 57.9429C27.2357 59.2425 52.8271 74.113 52.4534 73.8978C52.7174 74.0498 53.0488 74.0534 53.3205 73.8969L87.7264 54.033C87.9959 53.877 88.1612 53.5897 88.1604 53.2786L88.14 46.2581C88.1392 46.0078 87.8792 45.6095 87.7086 45.5105ZM40.1117 19.8576L85.5405 46.2581L52.8674 65.1223L7.43914 38.7222L40.1117 19.8576ZM53.7502 71.644L53.7358 66.6257C65.0569 60.0893 75.0637 54.3117 86.4084 47.7617L86.4228 52.7811L53.7502 71.644Z" fill="white"/>
<path d="M50.9244 60.1017C51.1649 60.5181 51.6971 60.6581 52.1101 60.4195L75.7975 46.7438C76.2128 46.5039 76.3552 45.9733 76.1154 45.558C75.8747 45.1418 75.3415 44.9994 74.9296 45.2402L51.2422 58.9159C50.8269 59.1558 50.6845 59.6864 50.9244 60.1017Z" fill="white"/>
<path d="M43.1876 54.9721C43.428 55.3885 43.9602 55.5285 44.3733 55.2899L68.5981 41.304C69.0134 41.0641 69.1558 40.5335 68.9159 40.1182C68.6752 39.702 68.1421 39.5596 67.7302 39.8004L43.5054 53.7863C43.0901 54.0262 42.9477 54.5568 43.1876 54.9721Z" fill="white"/>
<path d="M34.4771 50.4036C34.7193 50.8217 35.2516 50.9591 35.6629 50.7215L59.9766 36.6855C60.3919 36.4456 60.5343 35.915 60.2945 35.4997C60.0529 35.0836 59.5215 34.9403 59.1087 35.1819L34.795 49.2179C34.3796 49.4577 34.2372 49.9883 34.4771 50.4036Z" fill="white"/>
<path d="M26.1673 45.6055C26.4078 46.0219 26.94 46.1619 27.3531 45.9233L51.8346 31.789C52.25 31.5491 52.3923 31.0186 52.1525 30.6032C51.9118 30.1862 51.3803 30.0455 50.9667 30.2854L26.4851 44.4197C26.0698 44.6596 25.9274 45.1901 26.1673 45.6055Z" fill="white"/>
<path d="M33.6319 32.701L43.4087 27.057C43.8241 26.8171 43.9664 26.2865 43.7266 25.8712C43.4859 25.4559 42.9544 25.3135 42.5408 25.5534L32.7639 31.1974C32.3486 31.4373 32.2062 31.9679 32.4461 32.3832C32.6883 32.8013 33.2206 32.9386 33.6319 32.701Z" fill="white"/>
<path d="M15.971 38.9748L22.3533 42.6838C22.6255 42.8421 22.9569 42.8392 23.2237 42.6855L33.6321 36.6762C33.8999 36.5211 34.0652 36.2354 34.066 35.9252C34.0669 35.6158 33.9016 35.3294 33.6337 35.1743L27.2523 31.4661C26.9836 31.3084 26.6514 31.3101 26.3827 31.4644L15.9735 37.4729C15.7057 37.628 15.5404 37.9136 15.5396 38.2239C15.5387 38.5332 15.704 38.8197 15.971 38.9748ZM26.8149 33.2189L31.4665 35.9218L22.7915 40.931L18.1391 38.2272L26.8149 33.2189Z" fill="white"/>
</svg>
