<svg width="93" height="92" viewBox="0 0 93 92" fill="none" xmlns="http://www.w3.org/2000/svg">
<path d="M77.307 59.7432L74.7549 61.2171C74.3396 61.457 74.1972 61.9876 74.4371 62.4029C74.6776 62.8193 75.2098 62.9593 75.6228 62.7207L78.1749 61.2468C78.5902 61.0069 78.7326 60.4763 78.4928 60.061C78.2512 59.6449 77.7198 59.5025 77.307 59.7432Z" fill="white"/>
<path d="M86.0253 54.8815L80.0354 58.3396C79.6201 58.5795 79.4777 59.1101 79.7176 59.5254C79.9583 59.9407 80.4872 60.0814 80.9034 59.8432L86.8864 56.3885C87.7213 55.9172 88.1849 55.2019 88.1595 54.4543L88.1451 46.9371C88.1451 46.9104 88.1322 46.8879 88.1297 46.8617C88.0927 46.1444 87.6529 45.4771 86.8797 45.019L60.7214 29.8224C60.7217 29.7723 60.743 26.544 60.7444 26.3222C60.7402 23.6514 58.9976 21.1756 55.8369 19.3508C49.6787 15.7963 39.6901 15.7961 33.5687 19.352C33.5681 19.3523 33.5674 19.3522 33.5667 19.3525C31.1745 20.7481 29.6216 22.5284 29.0311 24.4837L6.12199 37.712C5.33363 38.1726 4.8788 38.8529 4.85295 39.5826C4.85115 39.6056 4.8396 39.6253 4.8396 39.6487C4.8396 39.6538 4.8396 39.6589 4.8396 39.6631L4.86757 47.1659C4.86757 47.9287 5.33205 48.628 6.13132 49.0781L50.2259 74.7107C51.623 75.516 53.7404 75.5169 55.1546 74.7107L72.6852 64.588C73.1005 64.3481 73.2429 63.8175 73.003 63.4022C72.7623 62.986 72.2292 62.8437 71.8173 63.0844L54.291 73.2045C53.4324 73.6936 51.9381 73.6944 51.0964 73.2087L6.99415 47.5719C6.70767 47.41 6.60342 47.2405 6.60342 47.1625L6.58392 41.849C11.0455 44.4408 -9.57594 32.4617 50.2115 67.1926C51.6697 68.0332 53.8146 67.9745 55.1462 67.1943C61.7707 63.3712 75.2547 55.5892 86.4135 49.1493L86.4245 54.4848C86.4262 54.5399 86.333 54.7077 86.0253 54.8815ZM39.1514 23.5726C39.1531 23.5717 39.1538 23.5695 39.1555 23.5686C39.1576 23.5673 39.1603 23.568 39.1625 23.5667C42.2163 21.7935 47.2086 21.7961 50.2878 23.5743C51.627 24.3473 52.3652 25.3203 52.3661 26.3137C52.3678 27.2977 51.6431 28.2614 50.3251 29.0277C50.3248 29.0279 50.3254 29.0274 50.3251 29.0277C45.3398 31.9211 37.1218 29.7098 37.1189 26.2866C37.1172 25.2991 37.8394 24.3354 39.1514 23.5726ZM30.4523 30.6024C31.1062 31.188 31.2508 31.7325 33.2244 32.9809L33.2274 47.1492C31.3946 45.7878 30.3891 44.1594 30.3891 42.4661L30.4523 30.6024ZM50.7489 30.7728L53.6421 32.443C53.6317 32.4476 53.6226 32.4534 53.6123 32.4579C50.6427 33.771 46.955 34.3017 43.6303 34.1442C40.6583 34.0076 37.9075 33.3301 35.9145 32.4414L38.7709 30.7737C42.2426 32.5383 47.2942 32.5375 50.7489 30.7728ZM34.9634 48.2099L34.9605 33.9211C37.9969 35.2354 41.424 35.8727 43.0961 35.8727C47.8052 36.1692 50.4323 35.5732 54.5961 33.9228L54.5088 48.1974C49.0148 51.1266 40.515 51.1154 34.9634 48.2099ZM33.4853 49.4044C33.5142 49.4256 33.543 49.4451 33.5743 49.4629C36.6477 51.2301 40.6762 52.1133 44.7023 52.1133C48.7283 52.1133 52.7517 51.2292 55.8081 49.4612C55.8386 49.4434 55.8683 49.4239 55.8963 49.4027C58.9569 47.6084 60.641 45.1766 60.641 42.5517L60.6828 35.9324L73.7252 43.5264L46.8085 59.0575L46.8 59.0583L15.6861 40.9633L28.7103 33.4464L28.6533 42.461C28.6533 45.1275 30.3688 47.5906 33.4853 49.4044ZM58.9052 42.5466C58.9052 44.1799 57.9737 45.7547 56.2514 47.0795L56.337 32.9867C56.4024 32.9459 56.4523 32.8988 56.5163 32.8573C57.3887 32.2921 58.2569 31.6031 58.9517 30.8004L58.9795 30.8165L58.9052 42.5466ZM55.4903 31.4373C55.478 31.4451 55.4703 31.4566 55.4584 31.4648C55.4567 31.4658 55.455 31.467 55.4532 31.4682L52.3768 29.6958C53.5001 28.7271 54.1036 27.5582 54.1019 26.3112C54.1003 25.0499 53.4807 23.8684 52.3313 22.8912L55.3954 21.1112C60.231 24.1451 60.1486 28.5765 55.4903 31.4373ZM53.5909 20.1518L50.7065 21.8274C48.9681 20.9434 46.8356 20.501 44.7065 20.501C42.5816 20.501 40.4601 20.9417 38.7378 21.8224L35.8213 20.1458C41.0204 17.8099 48.368 17.8107 53.5909 20.1518ZM34.0159 21.1112L37.1096 22.8971C35.9849 23.8659 35.3814 25.0381 35.3831 26.2891C35.3848 27.5496 36.0007 28.7295 37.1421 29.7042C36.9684 29.8055 33.9092 31.589 34.1045 31.4752C31.9345 30.0993 30.0725 27.957 30.5757 25.4588C30.8784 23.8621 32.0654 22.3509 34.0159 21.1112ZM6.99415 39.2131L28.7534 26.6485L28.7448 27.995L24.1026 30.6754C23.6873 30.9152 23.5449 31.4458 23.7848 31.8611C23.9458 32.14 24.2374 32.2951 24.5374 32.2951C24.6849 32.2951 24.8341 32.2578 24.9705 32.179L28.7321 30.0071L28.7232 31.4179L13.5205 40.209C13.2527 40.3641 13.0874 40.6497 13.0866 40.9591C13.0857 41.2693 13.2502 41.5558 13.518 41.7109L46.0448 60.6272C46.4121 60.8716 47.2053 60.8331 47.4916 60.6679L75.8899 44.2816C76.1577 44.1265 76.323 43.8409 76.3239 43.5315C76.3247 43.2221 76.1603 42.9356 75.8924 42.7797L60.6954 33.9312L60.7087 31.8212L86.0007 46.5158C86.2759 46.6791 86.4001 46.8508 86.4049 46.948C86.4001 47.0402 86.2952 47.1984 86.0323 47.3605C86.0225 47.3664 86.0201 47.372 86.01 47.3778C38.3226 74.8908 60.3065 62.2074 54.2689 65.6907C53.3581 66.2209 51.8035 66.106 51.0862 65.6924C3.13606 37.8289 7.2791 40.2363 6.97381 40.0589C6.89901 40.0158 6.86151 39.9748 6.80853 39.9323C6.76425 39.8941 6.69464 39.8509 6.66731 39.8178C6.64855 39.7963 6.65004 39.7828 6.63743 39.7633C6.6102 39.718 6.57969 39.6689 6.57969 39.6462C6.57969 39.5801 6.66784 39.4038 6.99415 39.2131Z" fill="white"/>
<path d="M14.2291 48.0152C13.8146 47.7745 13.2832 47.9143 13.0425 48.3288C12.8009 48.7433 12.9416 49.2747 13.3561 49.5154L16.0667 51.0911C16.204 51.1707 16.354 51.2089 16.5023 51.2089C16.8015 51.2089 17.0922 51.0546 17.2533 50.7775C17.4948 50.363 17.3541 49.8316 16.9397 49.5908L14.2291 48.0152Z" fill="white"/>
<path d="M19.9527 51.342C19.5383 51.1013 19.0068 51.2411 18.7661 51.6556C18.5246 52.07 18.6652 52.6015 19.0797 52.8422L21.7903 54.4178C21.9276 54.4975 22.0776 54.5357 22.2259 54.5357C22.5251 54.5357 22.8159 54.3814 22.9769 54.1042C23.2185 53.6898 23.0778 53.1583 22.6633 52.9176L19.9527 51.342Z" fill="white"/>
<path d="M64.1618 56.0113C65.4931 56.7802 67.5808 56.7818 68.9083 56.0104C70.5609 55.0513 70.5507 53.2055 68.9049 52.2556C67.5716 51.486 65.4824 51.4894 64.1474 52.2624C62.4984 53.2205 62.5027 55.0538 64.1618 56.0113ZM65.0187 53.7635C65.8256 53.2966 67.2305 53.2942 68.0361 53.7584C68.495 54.0224 68.5442 54.2143 68.037 54.5094C67.2377 54.973 65.8324 54.9713 65.0297 54.5077C64.5427 54.2269 64.5302 54.0484 65.0187 53.7635Z" fill="white"/>
</svg>
