<svg width="93" height="92" viewBox="0 0 93 92" fill="none" xmlns="http://www.w3.org/2000/svg">
<path d="M74.4817 10.8046C74.4809 9.39426 73.9554 8.31613 73.0001 7.77029C71.3199 6.81609 69.41 5.67831 67.7409 4.70543C66.7772 4.15789 65.5779 4.24604 64.3607 4.95123L22.3698 29.2006C20.1415 30.494 18.4116 33.5046 18.4311 36.0473L18.5184 74.2682C18.5184 75.6786 19.0574 76.7788 19.972 77.2738C21.5584 78.1955 25.0832 80.2783 25.3288 80.3833C26.3913 80.9548 27.5732 80.7134 28.6224 80.1047C28.7564 80.0253 33.3881 77.3514 33.5224 77.2739L33.5155 78.2434C33.5155 80.8658 35.2115 83.2848 38.2899 85.0546C44.2835 88.5099 54.0265 88.5206 60.0058 85.0529C63.0292 83.3018 64.7057 80.9099 64.726 78.3163L64.7438 74.0733C64.7438 74.058 64.7438 74.0411 64.7438 74.0258C64.7438 71.4068 63.0419 68.9827 59.9524 67.1994C58.8264 66.5491 57.5455 66.034 56.175 65.6232L55.9356 64.3309L70.6125 55.8553C72.8315 54.567 74.569 51.5615 74.569 49.0103L74.4817 10.8046ZM20.8229 75.7617C20.467 75.5684 20.2542 75.0107 20.2542 74.2665L20.1669 36.0389C20.1525 34.1216 21.5603 31.6789 23.2394 30.7025C24.1415 30.1815 65.4343 6.3352 65.2303 6.45315C65.712 6.17513 66.3975 5.93771 66.8738 6.20904L69.798 7.92286C69.5806 8.02975 72.4267 6.40055 27.6468 32.257C25.4287 33.5436 23.6912 36.5559 23.6912 39.119L23.7776 77.3229C23.7776 77.3789 23.7785 77.4348 23.7802 77.489L20.8229 75.7617ZM59.1354 83.551C53.6439 86.7345 44.6824 86.7362 39.1553 83.5493C36.6566 82.1135 35.2717 80.2454 35.2513 78.2925C36.0695 79.2595 37.1793 80.1282 38.323 80.7827C44.314 84.2453 54.0467 84.2617 60.0296 80.7794C61.2001 80.0877 62.1206 79.3554 62.8266 78.557C62.8817 78.4977 62.9359 78.4383 62.9893 78.379C62.9402 80.303 61.5756 82.1372 59.1354 83.551ZM56.5358 67.5384C57.4538 67.8639 58.3073 68.2538 59.0845 68.7013C64.1461 71.6247 64.4594 76.147 59.1515 79.2808C53.6526 82.4862 44.6995 82.4651 39.1892 79.2791C37.9431 78.5664 36.6438 77.5097 35.9379 76.26C35.8825 76.1705 35.8527 76.0598 35.8051 75.9664C35.981 75.8645 41.7837 72.5025 41.425 72.7104L40.8327 76.7822C40.781 77.1331 40.9488 77.4806 41.2565 77.6586L44.9714 79.8097C45.1005 79.885 45.5096 79.9727 45.7843 79.8402C45.9584 79.7563 57.1935 73.3111 57.019 73.3528C57.3368 73.1698 57.5055 72.8053 57.4385 72.4442L56.5358 67.5384ZM43.3397 71.6046L45.8311 70.1659L44.7333 77.6653L42.6346 76.4516L43.3397 71.6046ZM55.6205 72.1561L46.525 77.4111L47.7472 69.0594L54.344 65.25L55.6205 72.1561ZM69.7429 54.3534C69.5489 54.4655 25.0454 80.1647 27.7562 78.5994C27.7528 78.6028 27.7511 78.6045 27.7477 78.6045C26.3294 79.425 25.5135 78.7678 25.5135 77.3212L25.427 39.1173C25.427 37.1848 26.8425 34.7302 28.5165 33.7589L70.5133 9.52309C71.7118 8.8149 72.7459 9.11283 72.7459 10.8063L72.8332 49.012C72.8332 50.9343 71.4168 53.3804 69.7429 54.3534Z" fill="white"/>
<path d="M69.6556 13.5948C69.3869 13.4423 69.0572 13.4406 68.7885 13.5965L28.5165 36.8389C28.247 36.9932 28.0817 37.2814 28.0825 37.5916L28.169 70.7982C28.1698 71.1084 28.3351 71.3949 28.6038 71.5491C28.868 71.6996 29.1959 71.7065 29.4709 71.5474L69.7429 48.305C70.0124 48.1508 70.1777 47.8626 70.1769 47.5524L70.0904 14.3458C70.0896 14.0356 69.9243 13.7491 69.6556 13.5948ZM29.9006 69.2963L29.8201 38.09L68.3588 15.8477L68.4393 47.054L29.9006 69.2963Z" fill="white"/>
<path d="M49.9035 61.8529L47.4912 63.2446C47.0759 63.4836 46.9335 64.0142 47.1734 64.4295C47.4151 64.8467 47.9487 64.9862 48.3592 64.7465L50.7714 63.3548C51.1867 63.1158 51.3291 62.5852 51.0892 62.1699C50.8477 61.7545 50.3162 61.6088 49.9035 61.8529Z" fill="white"/>
<path d="M62.7537 44.969L35.2556 60.6458V40.0377C35.2556 39.558 34.8674 39.1698 34.3877 39.1698C33.908 39.1698 33.5198 39.558 33.5198 40.0377V62.1393C33.5198 62.6138 33.9037 63.0072 34.3877 63.0072C34.536 63.0072 34.6844 62.9699 34.8174 62.8936L63.6132 46.4777C64.0294 46.2403 64.1751 45.7097 63.9378 45.2927C63.6996 44.8774 63.1699 44.7333 62.7537 44.969Z" fill="white"/>
<path d="M38.4612 52.2311C38.4663 52.2311 38.4722 52.2311 38.4781 52.2311C38.9579 52.2209 39.3384 51.826 39.3291 51.3462C39.2783 48.795 40.1419 45.4657 41.4947 43.1399C42.5884 41.2555 43.694 40.3924 45.0562 42.0703C46.2075 43.4838 46.1069 45.7678 47.2684 47.5118C48.8979 49.9552 52.1187 50.1035 53.7338 46.0336C54.767 43.423 55.3204 40.6548 55.8561 37.9782C56.3876 35.3201 56.9368 32.5706 57.9539 30.0617C58.2717 29.2786 58.6837 28.3869 59.3304 27.7292C59.9338 27.1155 60.6941 26.8053 61.3663 26.8596C62.0172 26.9274 62.5969 27.4478 62.6325 27.997C62.6639 28.4751 63.0835 28.848 63.5547 28.8073C64.0336 28.7768 64.3955 28.3632 64.365 27.8852C64.2752 26.4968 63.036 25.2882 61.5442 25.1339C60.3593 25.0135 59.0625 25.5255 58.0929 26.5121C57.2334 27.3868 56.7266 28.4683 56.3452 29.4108C55.2662 32.0705 54.7009 34.8997 54.1542 37.6374C53.6338 40.2395 53.0955 42.9297 52.12 45.3928C51.0775 48.0222 49.637 47.9365 48.7127 46.5489C48.2485 45.8526 48.0301 44.9361 47.7973 44.0706C47.5235 43.067 47.1676 41.916 46.4039 40.9752C44.7669 38.963 42.2025 38.4611 39.9284 42.3805C38.4747 44.8809 37.5365 48.4984 37.5933 51.3801C37.6026 51.8531 37.9891 52.2311 38.4612 52.2311Z" fill="white"/>
<path d="M49.7714 39.3936C51.3776 38.4663 52.6311 36.2948 52.626 34.4488C52.6207 32.259 50.8256 31.2091 48.8882 32.3213C47.288 33.2452 46.0386 35.4099 46.0437 37.2492C46.0491 39.4646 47.8624 40.4979 49.7714 39.3936ZM49.7561 33.8267C50.4784 33.4125 50.8883 33.55 50.8902 34.4522C50.8936 35.693 49.9841 37.2678 48.9035 37.89C48.1111 38.3444 47.7813 38.071 47.7796 37.2458C47.7762 36.0321 48.7 34.4352 49.7561 33.8267Z" fill="white"/>
<path d="M61.0053 34.5777L61.0036 34.5793C59.4042 35.5032 58.1548 37.6696 58.1599 39.5072C58.1653 41.713 59.9656 42.7576 61.8884 41.6516C63.4938 40.7243 64.7473 38.5528 64.7423 36.7051C64.7369 34.5159 62.9427 33.469 61.0053 34.5777ZM61.0197 40.148C60.2903 40.5687 59.8976 40.3905 59.8958 39.5038C59.8924 38.2697 60.7968 36.7034 61.8715 36.083C62.6039 35.658 63.0045 35.8224 63.0064 36.7085C63.0098 37.9493 62.1003 39.5241 61.0197 40.148Z" fill="white"/>
<path d="M43.0499 46.9846C41.6022 47.8203 40.4732 49.7782 40.4783 51.4412C40.4836 53.4763 42.1708 54.4481 43.9322 53.4262C45.3832 52.5888 46.5173 50.6241 46.5131 48.9544C46.5059 46.9258 44.8127 45.9591 43.0499 46.9846ZM43.0643 51.9243C42.493 52.2529 42.2158 52.1601 42.2141 51.4361C42.2107 50.3919 43.0066 49.0137 43.9178 48.4865C44.4904 48.1589 44.7755 48.2382 44.7772 48.9595C44.7798 50.0291 43.9958 51.3852 43.0643 51.9243Z" fill="white"/>
</svg>
