<svg width="93" height="92" viewBox="0 0 93 92" fill="none" xmlns="http://www.w3.org/2000/svg">
<path d="M14.7974 57.9097C14.833 57.914 14.8677 57.9156 14.9025 57.9156C15.3356 57.9156 15.7102 57.5927 15.7636 57.152C15.8832 56.1603 16.0501 55.1339 16.2595 54.1007C16.3544 53.6311 16.051 53.1734 15.5806 53.0776C15.111 52.9827 14.6533 53.287 14.5575 53.7566C14.3397 54.8338 14.1651 55.9069 14.0397 56.9435C13.9829 57.4198 14.3219 57.8521 14.7974 57.9097Z" fill="white"/>
<path d="M79.2119 45.2595C79.1984 40.5415 78.0785 36.4796 75.9786 33.4952C75.8859 33.3188 75.8286 33.3032 75.6537 33.1467L64.6048 26.7281L64.5699 17.6868C64.5699 5.4956 54.4126 -0.330064 43.7821 5.79779C35.0842 10.8172 28.2841 22.6003 28.3027 32.6246L28.319 39.0529L17.2765 45.418C17.1734 45.4773 16.9452 45.7587 16.9061 45.8588C16.3543 47.2793 15.8678 48.7126 15.4593 50.1187C15.3254 50.579 15.5898 51.0612 16.05 51.1943C16.5154 51.3265 16.9917 51.0621 17.1256 50.6035C17.4291 49.5585 17.7783 48.4982 18.1656 47.4387C25.4782 51.6883 30.5892 54.6585 34.7043 57.0499C33.0209 61.569 31.8362 66.7999 31.8498 71.6075C31.8623 76.1129 32.9567 79.9023 34.3621 82.3286L21.7458 74.997C17.752 72.6763 15.5423 67.7425 15.5237 61.1059C15.522 60.6271 15.1092 60.2389 14.6532 60.2406C14.1743 60.2423 13.7862 60.6313 13.7878 61.111C13.8082 68.3901 16.3247 73.8544 20.8728 76.4972C21.0513 76.6009 39.1608 87.1235 38.978 87.0182C44.3017 90.0837 50.7287 88.4656 56.028 85.407C68.8536 78.0016 79.2543 59.9914 79.2119 45.2595ZM38.7542 32.6017C38.7364 26.1974 43.4363 18.064 49.0168 14.8423C52.4249 12.8716 54.137 13.3763 54.137 17.7267L54.153 24.1316L38.7553 33.0155L38.7542 32.6017ZM44.6492 7.3014C54.1238 1.84129 62.8341 6.83424 62.8341 17.6902C62.8347 17.8661 62.8901 33.4938 62.8866 32.5085C62.8842 32.5175 62.8816 32.5275 62.88 32.538C61.8813 34.6923 56.0389 34.1366 55.9152 32.2636C55.9145 32.0097 55.8706 16.9472 55.8729 17.7241C55.8729 12.3546 53.054 10.5032 48.1488 13.3387C42.0963 16.8333 36.9989 25.6575 37.0184 32.6068L37.022 34.4891C37.0215 34.5018 37.0125 34.5121 37.0125 34.5249L37.0387 47.3632C36.7375 49.4175 30.4103 49.3617 30.0758 47.2827L30.0385 32.6204C30.0216 23.1605 36.4395 12.0385 44.6492 7.3014ZM28.3332 47.281C28.3332 48.395 29.0753 49.2104 30.0352 49.7856C32.0058 50.9214 35.1054 50.9299 37.1218 49.789C38.0236 49.2311 38.7907 48.3467 38.7907 47.2429L38.7603 35.0165L54.1581 26.1332L54.1735 32.2737C54.1735 34.2844 56.4621 35.3996 58.4881 35.6306C61.0034 35.9198 64.6292 34.8669 64.6292 32.3526L64.6174 28.7427L73.4865 33.8943C23.9272 62.5097 39.7907 53.3501 35.7788 55.6666L19.4425 46.173L28.3188 41.0564L28.3332 47.281ZM39.8442 85.5138C35.2077 82.8451 33.6011 77.0789 33.5857 71.6024C33.5719 66.7745 34.7675 61.7738 36.4901 57.2637C40.5817 54.9011 24.2551 64.3288 74.9409 35.0606C76.5903 37.6974 77.4642 41.2039 77.476 45.2646C77.5167 59.4421 67.5059 76.7752 55.16 83.9034C49.3295 87.27 43.8889 87.8429 39.8442 85.5138Z" fill="white"/>
<path d="M54.7464 51.7664C49.0244 55.0695 44.3847 63.1028 44.4034 69.6733C44.4226 76.6293 49.5695 79.6401 55.6788 76.1158C61.3957 72.8153 66.0311 64.776 66.0125 58.1945C65.9931 51.2232 60.8146 48.2669 54.7464 51.7664ZM54.8108 74.6122C49.9052 77.4478 46.1551 75.3191 46.1392 69.6682C46.1223 63.6521 50.3729 56.2959 55.6144 53.27C60.4739 50.464 64.2607 52.5232 64.2766 58.1996C64.2936 64.2259 60.0472 71.5888 54.8108 74.6122Z" fill="white"/>
<path d="M57.5952 63.4079C58.1486 62.4569 58.458 61.4136 58.4555 60.4804C58.4501 58.2328 56.6091 57.1681 54.6473 58.2953C52.9953 59.2497 51.7053 61.4814 51.7104 63.3774C51.7129 64.3114 52.0223 65.0616 52.5673 65.5201L51.4688 69.4707C51.3747 69.8097 51.4951 70.1733 51.774 70.3886C52.0521 70.606 52.4364 70.63 52.7394 70.4547L58.5445 67.1034C58.9437 66.8728 59.0928 66.3711 58.8852 65.96L57.5952 63.4079ZM53.7098 67.8899L54.4235 65.3243C54.4854 65.1014 54.4557 64.8632 54.3413 64.6623C54.226 64.4615 54.0362 64.314 53.8132 64.2538C53.4751 64.1631 53.4471 63.5562 53.4462 63.3723C53.4429 62.0848 54.3904 60.4482 55.5152 59.7989C56.2989 59.345 56.7178 59.5689 56.7196 60.4855C56.7213 61.2118 56.4085 62.1026 55.883 62.8697C55.7034 63.1308 55.6805 63.4689 55.8237 63.752L56.9654 66.01L53.7098 67.8899Z" fill="white"/>
</svg>
