<svg width="93" height="92" viewBox="0 0 93 92" fill="none" xmlns="http://www.w3.org/2000/svg">
<rect x="0.5" width="92" height="92" rx="46" fill="black"/>
<path d="M31.597 69.9941C31.6338 70.0155 31.0853 69.6968 36.9318 73.0946C37.104 73.1938 37.3201 73.1961 37.4973 73.0941L54.6785 63.1746C54.7463 63.1353 54.7934 63.0748 54.8387 63.0142C54.9975 62.8027 53.8796 64.6989 61.7109 51.2154C61.7108 51.2155 61.711 51.2153 61.7109 51.2154C61.7604 51.1301 61.788 51.0317 61.7877 50.9296L61.707 22.494C61.7063 22.2623 61.5389 22.0721 61.4257 22.0064C61.2738 21.9182 55.979 18.8411 56.0925 18.907C55.9162 18.8042 55.7 18.8053 55.5248 18.9059L31.4953 32.7794C31.3184 32.8818 31.2128 33.0703 31.2123 33.2691C31.2123 33.2695 31.2126 33.2698 31.2126 33.2702C31.2126 33.3883 31.2336 41.6464 31.2344 41.5319C31.2355 41.8437 31.4887 42.0963 31.8004 42.0963C31.801 42.0963 31.8015 42.0963 31.8021 42.0963C32.1144 42.0952 32.3676 41.8415 32.3665 41.5286L32.3471 34.2549L36.5463 36.6953L36.6454 71.6187L32.4461 69.1788L32.4029 52.6134C32.4024 52.3016 32.1487 52.049 31.8369 52.049C31.8364 52.049 31.8358 52.049 31.8353 52.049C31.5229 52.0495 31.2703 52.3038 31.2709 52.6167L31.3151 69.5066C31.3156 69.7078 31.4229 69.8935 31.597 69.9941ZM54.9405 55.2108L59.6654 52.4834L54.9557 60.5923L54.9405 55.2108ZM37.7775 71.6248L37.6786 36.6953C42.6363 33.833 51.9878 28.4339 60.5777 23.4746L60.6545 50.605L54.0904 54.3944C53.9146 54.4961 53.8068 54.6835 53.8074 54.8863L53.8284 62.3582L37.7775 71.6248ZM55.8067 20.0502L60.0116 22.494L37.1123 35.7149C36.9896 35.6436 32.793 33.2047 32.9076 33.2713L55.8067 20.0502Z" fill="white"/>
<path d="M31.8247 49.5958C32.1371 49.5947 32.3902 49.3409 32.3891 49.0281L32.3764 44.4998C32.3753 44.188 32.1221 43.9354 31.8104 43.9354H31.8087C31.4964 43.9365 31.2432 44.1902 31.2443 44.5031L31.257 49.0314C31.2581 49.3432 31.5113 49.5958 31.8231 49.5958H31.8247Z" fill="white"/>
<path d="M51.1845 59.5634L40.7846 65.5676C40.5138 65.724 40.4209 66.07 40.5773 66.3409C40.7342 66.6125 41.0813 66.7038 41.3507 66.5482L51.7505 60.544C52.0214 60.3875 52.1142 60.0415 51.9578 59.7706C51.8013 59.4992 51.4537 59.4069 51.1845 59.5634Z" fill="white"/>
<path d="M51.1845 52.9743L40.7846 58.9785C40.5138 59.135 40.4209 59.481 40.5773 59.7518C40.7342 60.0234 41.0813 60.1147 41.3507 59.9591L51.7505 53.9549C52.0214 53.7985 52.1142 53.4525 51.9578 53.1816C51.8013 52.9096 51.4537 52.8179 51.1845 52.9743Z" fill="white"/>
<path d="M57.6458 42.6546L40.7846 52.3889C40.5138 52.5454 40.4209 52.8914 40.5773 53.1623C40.7342 53.4338 41.0813 53.5252 41.3507 53.3695L58.2118 43.6352C58.4827 43.4788 58.5756 43.1328 58.4191 42.8619C58.2616 42.5905 57.915 42.4987 57.6458 42.6546Z" fill="white"/>
<path d="M45.9199 44.1427L58.2118 37.0457C58.4827 36.8892 58.5756 36.5432 58.4191 36.2723C58.2616 36.0009 57.915 35.9081 57.6458 36.065L45.3538 43.1621C45.083 43.3185 44.9901 43.6645 45.1465 43.9354C45.3034 44.207 45.6505 44.2983 45.9199 44.1427Z" fill="white"/>
<path d="M45.9199 37.5531L58.2118 30.4566C58.4827 30.3002 58.5756 29.9542 58.4191 29.6833C58.2616 29.4113 57.915 29.3196 57.6458 29.476L45.3538 36.5725C45.083 36.7289 44.9901 37.075 45.1465 37.3458C45.3034 37.6174 45.6505 37.7087 45.9199 37.5531Z" fill="white"/>
<path d="M41.1572 46.1697C41.1656 46.1697 41.1747 46.166 41.1832 46.1658V46.8679C41.1832 47.1807 41.4363 47.4339 41.7492 47.4339C42.0621 47.4339 42.3152 47.1807 42.3152 46.8679V45.7256C43.0976 45.131 43.6775 44.039 43.6745 43.093C43.671 41.7989 42.5953 41.1851 41.475 41.8304C41.2838 41.9415 41.1389 41.9581 41.082 41.9266C41.0284 41.8957 40.9703 41.7636 40.9698 41.5474C40.9681 40.8963 41.4645 40.0367 42.0322 39.7089C42.2224 39.5989 42.3661 39.5845 42.4214 39.6144C42.475 39.6453 42.533 39.7774 42.5336 39.9941C42.5341 40.3059 42.7879 40.5585 43.0996 40.5585C43.3732 40.5226 43.6662 40.3048 43.6657 39.9908C43.6633 39.1261 43.1622 38.453 42.3152 38.4759V37.7814C42.3152 37.4685 42.0621 37.2154 41.7492 37.2154C41.4363 37.2154 41.1832 37.4685 41.1832 37.7814V38.9238C40.4078 39.5229 39.8352 40.6091 39.8377 41.5507C39.8399 42.166 40.0876 42.6602 40.5176 42.9078C40.9499 43.1565 41.5043 43.1217 42.0411 42.8111C42.2318 42.7022 42.376 42.6878 42.4302 42.7165C42.4838 42.7475 42.5419 42.8796 42.5424 43.0963C42.5446 43.7452 42.0499 44.6015 41.4839 44.9282C41.2932 45.0387 41.1467 45.0564 41.0897 45.0244C41.0367 44.9934 40.9792 44.8635 40.9786 44.6496C40.9775 44.3373 40.7244 44.0852 40.4126 44.0852H40.4109C40.0981 44.0863 39.8455 44.3406 39.8466 44.6529C39.8488 45.2654 40.0959 45.7584 40.5259 46.0055C40.7161 46.115 40.9305 46.1697 41.1572 46.1697Z" fill="white"/>
</svg>
