<svg width="93" height="92" viewBox="0 0 93 92" fill="none" xmlns="http://www.w3.org/2000/svg">
<rect x="0.5" width="92" height="92" rx="46" fill="white"/>
<path d="M19.3941 34.4912L19.3289 57.5246C19.3427 61.4471 21.9606 65.1153 26.7006 67.852C31.34 70.5308 37.4819 72.0056 43.9968 72.0056C44.3506 72.0338 44.5656 71.7541 44.5667 71.4412C44.6898 27.718 44.5225 41.8952 44.4893 20.5558C44.4877 20.2441 44.2345 19.9926 43.9233 19.9926C41.2048 19.9926 38.5283 20.2524 35.9678 20.7642C35.6616 20.8256 35.4626 21.1235 35.5239 21.4303C35.5853 21.7365 35.8788 21.9394 36.19 21.8742C38.5006 21.4121 40.9102 21.1617 43.36 21.1285L43.4971 47.8279C39.6693 47.7762 35.9361 47.18 32.8323 46.2104C27.1614 44.4394 20.5478 40.446 20.5262 34.4895C20.5068 30.9778 22.8876 27.654 27.2302 25.13C27.5005 24.973 27.5922 24.6264 27.4347 24.3561C27.2777 24.0858 26.93 23.9935 26.6608 24.1516C21.9553 26.8864 19.3752 30.5577 19.3946 34.4888L19.3941 34.4912ZM32.4719 47.2829C35.5462 48.2449 39.5707 48.9203 43.4982 48.9721L43.4363 70.8696C37.3271 70.7884 31.6037 69.376 27.2667 66.8714C22.8904 64.3447 20.4736 61.0237 20.4609 57.5241L20.514 38.8238C22.767 43.0725 27.8995 45.8518 32.4719 47.2829Z" fill="black"/>
<path d="M32.5202 21.6321C31.5534 21.93 30.6137 22.2683 29.7265 22.6381C29.4379 22.7586 29.3014 23.0897 29.4219 23.3783C29.5434 23.6694 29.8767 23.8023 30.162 23.6829C31.0155 23.3269 31.921 23.0013 32.8529 22.7144C33.152 22.6221 33.3195 22.3054 33.2277 22.0069C33.1354 21.7084 32.8187 21.5398 32.5202 21.6321Z" fill="black"/>
<path d="M73.103 43.6495L71.1503 43.6492L71.1722 34.497C71.1723 34.491 71.1756 34.4856 71.1755 34.4796C71.1451 30.5483 68.5216 26.8784 63.7888 24.1461C59.1566 21.4718 53.0131 19.9964 46.4898 19.9926C46.3395 19.9926 46.1941 20.0528 46.088 20.1595C45.9818 20.2662 45.9221 20.411 45.9232 20.5619L46.0017 34.4917C46.0018 34.4983 46.0053 34.5037 46.0055 34.5102L45.9382 57.518C45.937 57.8289 46.1892 58.0857 46.5042 58.0857H48.5729L48.5732 58.1337L48.5074 71.4368C48.5069 71.5871 48.566 71.7319 48.6722 71.8386C48.7783 71.9453 48.9231 72.0056 49.0735 72.0056C59.2565 72.0056 73.638 67.3914 73.6033 57.5252C73.6915 39.5914 73.6685 45.3958 73.6685 44.2133C73.6675 43.9419 73.4358 43.6495 73.103 43.6495ZM65.8329 53.5701C62.0807 55.7501 56.4284 57.4618 49.7019 57.5514V57.5454C49.7024 57.5354 49.7076 57.5264 49.7075 57.5163L49.6318 44.7777C51.3077 44.778 73.3384 44.7817 72.4937 44.7816C72.2233 48.6326 69.1832 51.6231 65.8329 53.5701ZM63.2228 25.1267C67.3561 27.5125 69.7466 30.615 70.0176 33.916L63.3677 33.9193L47.1305 33.9224L47.0586 21.1291C53.1728 21.2153 58.894 22.6276 63.2228 25.1267ZM47.0719 56.9536L47.136 35.0594L64.1373 35.0512L70.039 35.0502L70.018 43.649C41.3011 43.6376 51.2056 43.6415 49.063 43.6407C48.9121 43.6407 48.7672 43.7009 48.6611 43.8076C48.6072 43.8618 48.5659 43.926 48.5378 43.9957C48.5094 44.0646 48.4942 44.1389 48.4947 44.215L48.5665 56.9536H47.0719ZM72.5143 48.6825L72.4712 57.5246C72.5039 66.5555 58.7529 70.7469 49.6423 70.8696L49.7025 58.6954C55.3301 58.6224 61.5939 57.3424 66.4018 54.5485C68.8344 53.1351 71.198 51.1295 72.5143 48.6825Z" fill="black"/>
</svg>
