<svg width="93" height="92" viewBox="0 0 93 92" fill="none" xmlns="http://www.w3.org/2000/svg">
<rect x="0.5" width="92" height="92" rx="46" fill="black"/>
<path d="M26 36.5L41.1 27.8C41.3 27.7 41.4 27.4 41.3 27.1C41.2 26.9 40.9 26.8 40.6 26.9L25.5 35.6C24.6 36.1 24 37.2 24 38.2V53.5C24 54.1 24.2 54.5 24.6 54.7C26.2 55.6 27.9 56.6 27.8 56.5C27.9 56.5 27.9 56.6 28 56.6C28 56.6 28 56.6 28 56.7C28 56.9 28 61 28 60.7C28 61.2 28.3 61.6 28.8 61.9L42.1 69.6C42.9 70.1 44.3 70.1 45.1 69.6L68.2 56.3C68.7 56 69 55.6 69 55.1C69 55.1 69 55.5 69 51.1C69 50.6 68.7 50.2 68.2 49.9L54.9 42.2C54.5 42 54 41.9 53.5 41.9C53.7 41.5 53.9 41 53.9 40.6V25.3C53.9 24.8 53.7 24.3 53.3 24.1L50.2 22.3C49.8 22.1 49.3 22.1 48.8 22.4L45.1 24.5C44.9 24.6 44.8 24.9 44.9 25.2C45 25.4 45.3 25.5 45.6 25.4L49.3 23.3C49.4 23 49.5 23 49.5 23L51.5 24.2L45.4 27.7L28.7 37.4C27.8 37.9 27.2 39.1 27.2 40V55.1L25.2 53.9C25.1 53.9 25.1 53.7 25.1 53.5V38.2C25 37.6 25.5 36.8 26 36.5ZM29.2 38.3L46 28.6L52.3 25C52.4 24.9 52.5 24.9 52.5 24.9C52.6 24.9 52.6 24.9 52.6 24.9C52.7 24.9 52.7 25.1 52.7 25.3V40.6C52.7 41.2 52.2 42 51.7 42.3C49.3 43.7 60.3 37.4 28.6 55.7C28.3 55.9 28.1 55.8 28.1 55.4V40.1C28.1 39.4 28.6 38.6 29.2 38.3ZM67.7 55.4L44.6 68.8C44.1 69.1 43.1 69.1 42.6 68.8L29.3 61.1C29.1 61 29 60.9 29 60.8V58.1L42 65.7C42.9 66.2 44.2 66.2 45 65.7L67.9 52.5V55.2C68 55.2 67.9 55.3 67.7 55.4ZM67.7 50.8C68 51 68.1 51.2 67.7 51.4L44.6 64.8C44 65.1 43.1 65.1 42.6 64.8L29.3 57.1C28.9 56.9 29 56.7 29.3 56.5L52.3 43.2C52.3 43.2 52.3 43.2 52.4 43.2H52.5C53.1 42.9 54 42.9 54.5 43.2L67.7 50.8Z" fill="white"/>
<path d="M42.6999 26.8L43.9999 26C44.1999 25.9 44.2999 25.6 44.1999 25.3C44.0999 25.1 43.7999 25 43.4999 25.1L42.1999 26C41.9999 26.1 41.8999 26.4 41.9999 26.7C42.0999 26.9 42.2999 27 42.3999 27C42.4999 26.9 42.5999 26.9 42.6999 26.8Z" fill="white"/>
<path d="M30.1 53.3C30.2 53.3 30.3 53.3 30.4 53.2L51.2001 41.2C51.4001 41.1 51.5 40.8 51.5 40.7C51.5 40.6 51.5 40.6 51.5 40.5V27.9C51.5 27.7 51.4001 27.4 51.2001 27.3C51 27.2 50.7001 27.2 50.5 27.3L29.7 39.3C29.6 39.4 29.3 39.7 29.3 40V52.6C29.4 53 29.7 53.3 30.1 53.3ZM30.4 40.1L50.6 28.5V40.4L30.4 52.1V40.1Z" fill="white"/>
<path d="M35.6001 55.3C35.5001 55.1 35.2001 55 34.9001 55.1L33.4001 56C33.2001 56.1 33.1001 56.4 33.2001 56.7C33.3001 56.9 33.6001 57 33.9001 56.9L35.4001 56C35.7001 55.9 35.7001 55.6 35.6001 55.3Z" fill="white"/>
<path d="M37.6001 54.7L39.1001 53.8C39.3001 53.7 39.4001 53.4 39.3001 53.1C39.2001 52.9 38.9001 52.8 38.6001 52.9L37.1001 53.8C36.9001 53.9 36.8001 54.2 36.9001 54.5C37.1001 54.8 37.4001 54.9 37.6001 54.7Z" fill="white"/>
<path d="M41.3 52.6L42.8 51.7C43 51.6 43.1 51.3 43 51C42.9 50.8 42.6 50.7 42.3 50.8L40.8 51.7C40.6 51.8 40.5 52.1 40.6 52.4C40.7 52.7 41 52.7 41.3 52.6Z" fill="white"/>
<path d="M44.9001 50.5L46.4001 49.6C46.6001 49.5 46.7001 49.2 46.6001 48.9C46.5001 48.7 46.2001 48.6 45.9001 48.7L44.4001 49.6C44.2001 49.7 44.1001 50 44.2001 50.3C44.4001 50.5 44.7001 50.6 44.9001 50.5Z" fill="white"/>
<path d="M48.6001 48.3L50.1001 47.4C50.3001 47.3 50.4001 47 50.3001 46.7C50.2001 46.5 49.9001 46.4 49.6001 46.5L48.1001 47.4C47.9001 47.5 47.8001 47.8 47.9001 48.1C48.1001 48.4 48.4001 48.5 48.6001 48.3Z" fill="white"/>
<path d="M53.2001 44.5L51.7001 45.4C51.5001 45.5 51.5001 45.8 51.6001 46C51.7001 46.2 52.0001 46.3 52.3001 46.2L53.8001 45.3C54.0001 45.2 54.1001 44.9 54.0001 44.6C53.8001 44.4 53.5001 44.4 53.2001 44.5Z" fill="white"/>
<path d="M37.8999 56.7C37.7999 56.5 37.4999 56.4 37.1999 56.5L35.6999 57.4C35.4999 57.5 35.3999 57.8 35.4999 58.1C35.5999 58.3 35.8999 58.4 36.1999 58.3L37.6999 57.4C37.9999 57.2 38.0999 56.9 37.8999 56.7Z" fill="white"/>
<path d="M41.6 54.6C41.5 54.4 41.2 54.3 40.9 54.4L39.5 55.2C39.3 55.3 39.2 55.6 39.3 55.9C39.4 56.1 39.7 56.2 40 56.1L41.5 55.2C41.7 55.1 41.7 54.8 41.6 54.6Z" fill="white"/>
<path d="M45.3001 52.4C45.2001 52.2 44.9001 52.1 44.6001 52.2L43.1001 53.1C42.9001 53.2 42.8001 53.5 42.9001 53.8C43.0001 54 43.3001 54.1 43.6001 54L45.1001 53.1C45.3001 53 45.4001 52.7 45.3001 52.4Z" fill="white"/>
<path d="M46.6001 51.7C46.7001 51.9 47.0001 52 47.3001 51.9L48.8001 51C49.0001 50.9 49.1001 50.6 49.0001 50.3C48.9001 50.1 48.6001 50 48.3001 50.1L46.8001 51C46.5001 51.1 46.5001 51.4 46.6001 51.7Z" fill="white"/>
<path d="M51.9 48L50.5 48.8C50.3 48.9 50.2 49.2 50.3 49.5C50.4 49.7 50.7 49.8 51 49.7L52.5 48.8C52.7 48.7 52.8 48.4 52.7 48.1C52.6 47.8 52.2 47.8 51.9 48Z" fill="white"/>
<path d="M53.9001 47.4C54.0001 47.6 54.3001 47.7 54.6001 47.6L56.1001 46.7C56.3001 46.6 56.4001 46.3 56.3001 46C56.2001 45.8 55.9001 45.7 55.6001 45.8L54.1001 46.7C53.9001 46.9 53.8001 47.2 53.9001 47.4Z" fill="white"/>
<path d="M39.6001 57.9L38.1001 58.8C37.9001 58.9 37.8001 59.2 37.9001 59.5C38.0001 59.7 38.3001 59.8 38.6001 59.7L40.1001 58.8C40.3001 58.7 40.4001 58.4 40.3001 58.1C40.1001 57.8 39.8001 57.7 39.6001 57.9Z" fill="white"/>
<path d="M43.3 55.7L41.8 56.6C41.6 56.7 41.5 57 41.6 57.3C41.7 57.5 42 57.6 42.3 57.5L43.8 56.6C44 56.5 44.1 56.2 44 55.9C43.8 55.7 43.5 55.6 43.3 55.7Z" fill="white"/>
<path d="M47.4 54.5C47.6 54.4 47.7 54.1 47.6 53.8C47.5 53.6 47.2 53.5 46.9 53.6L45.5 54.5C45.3 54.6 45.2 54.9 45.3 55.2C45.4 55.4 45.7 55.5 46 55.4L47.4 54.5Z" fill="white"/>
<path d="M50.6001 51.5L49.1001 52.4C48.9001 52.5 48.8001 52.8 48.9001 53.1C49.0001 53.3 49.3001 53.4 49.6001 53.3L51.1001 52.4C51.3001 52.3 51.4001 52 51.3001 51.7C51.1001 51.4 50.8001 51.3 50.6001 51.5Z" fill="white"/>
<path d="M52.6 50.9C52.7 51.1 53 51.2 53.3 51.1L54.8 50.2C55 50.1 55.1 49.8 55 49.5C54.9 49.3 54.6 49.2 54.3 49.3L52.8 50.2C52.6 50.3 52.5 50.7 52.6 50.9Z" fill="white"/>
<path d="M56.3001 48.8C56.4001 49 56.6001 49 56.7001 49C56.8001 49 56.9001 49 57.0001 48.9L58.5001 48C58.7001 47.9 58.8001 47.6 58.7001 47.3C58.6001 47.1 58.3001 47 58.0001 47.1L56.5001 48.1C56.2001 48.2 56.1001 48.5 56.3001 48.8Z" fill="white"/>
<path d="M53.2999 53.4C53.0999 53.3 52.9999 53.3 52.7999 53.4L46 57.3C45.8 57.4 45.8 57.6 45.7 57.7C45.7 57.9 45.8 58 45.9 58.1L49.2999 60.1C49.4999 60.2 49.5999 60.2 49.7999 60.1L56.5999 56.2C56.7999 56.1 56.8 55.9 56.9 55.8C56.9 55.6 56.8 55.5 56.7 55.4L53.2999 53.4ZM49.7 59.2L47.2 57.8L53 54.4L55.5 55.8L49.7 59.2Z" fill="white"/>
<path d="M36.6 46.7C36.8 46.8 36.9 46.8 37.1 46.7L44.4 42.5C44.6 42.4 44.7 42.2 44.7 42.1V34.3C44.7 34.1 44.6 34 44.4 33.9C44.2 33.8 44.1 33.8 43.9 33.9C43.6 34.1 36.5 38.2 36.6 38.1C36.4 38.2 36.3 38.4 36.3 38.5V46.3C36.4 46.5 36.5 46.6 36.6 46.7ZM41.1 38.3L39.9 39V37.3L41.2 36.6L41.1 38.3ZM38.9 37.9V39.9C38.9 40.2 39.1 40.4 39.4 40.4C39.5 40.4 39.6 40.4 39.7 40.3L42 39C42.2 38.9 42.3 38.7 42.3 38.6V36.1L43.8 35.2V41.8L37.5 45.4V38.8L38.9 37.9Z" fill="white"/>
</svg>
