<svg width="93" height="92" viewBox="0 0 93 92" fill="none" xmlns="http://www.w3.org/2000/svg">
<path d="M19.8332 67.5423C19.8332 67.8508 19.9976 68.1356 20.2655 68.2898C20.4412 68.3919 26.5275 71.9278 26.3518 71.8257C26.3513 71.8255 26.3522 71.826 26.3518 71.8257C26.6181 71.9808 26.9507 71.9814 27.219 71.8268L45.9339 61.0218L45.9237 71.6589C44.6724 71.9428 43.5233 72.3364 42.5654 72.8998C40.6051 74.0387 39.5236 75.5998 39.5058 77.299C39.4968 78.1576 39.4864 81.8328 39.4887 81.6545C39.4836 83.3904 40.5871 84.9847 42.5925 86.1433C46.4261 88.3559 52.4293 88.3703 56.264 86.1416C58.2372 84.9949 59.3238 83.4217 59.3289 81.7122L59.3406 77.413C59.3407 77.398 59.3441 77.3833 59.3441 77.3683C59.3407 75.6409 58.2338 74.0534 56.2335 72.9015C55.2794 72.341 54.1284 71.9476 52.8709 71.6621L52.895 57.0029L72.8275 45.495C73.097 45.339 73.2614 45.0517 73.2614 44.7406L73.1682 8.59206C73.1682 8.31944 72.9165 7.94891 72.7359 7.84449L66.652 4.30923C66.3858 4.15327 66.0519 4.15327 65.7824 4.30753L57.2235 9.24894C56.8082 9.4888 56.6658 10.0194 56.9065 10.4347C57.1438 10.8517 57.6744 10.9899 58.0914 10.7525L66.2146 6.06203L70.5678 8.59206C62.4143 13.2993 35.9352 28.5867 26.6913 33.9234L22.3387 31.3937L44.7674 18.4452C45.1827 18.2053 45.3251 17.6748 45.0844 17.2594C44.8454 16.8433 44.3148 16.7034 43.8995 16.9416L20.1722 30.6394C19.8623 30.8188 19.7383 31.19 19.7383 31.3903C19.7383 31.391 19.7387 31.3914 19.7387 31.392C19.7387 31.3927 19.7383 31.3931 19.7383 31.3937L19.8332 67.5423ZM47.6543 77.209L47.6712 60.0225L51.1582 58.018C51.1473 64.4766 51.1521 61.6131 51.126 77.209C51.126 77.2496 51.048 77.3759 50.7903 77.5183C50.0495 77.9531 48.7375 77.9506 47.9763 77.5124C47.7356 77.3759 47.6543 77.2471 47.6543 77.209ZM55.3927 84.6414C52.1125 86.5459 46.7609 86.5442 43.4604 84.6397C42.0161 83.8057 41.2211 82.7471 41.2245 81.6596L41.2262 80.8256C41.2304 80.8294 41.2367 80.8325 41.241 80.8363C42.0835 81.5884 43.0977 82.1401 44.1392 82.5406C47.0903 83.6785 50.7815 83.7525 53.8566 82.8158C55.2509 82.3929 56.4998 81.8441 57.5947 80.8754L57.593 81.7071C57.5896 82.775 56.8082 83.8167 55.3927 84.6414ZM55.3622 74.4018C56.8054 75.2333 57.6024 76.2861 57.6071 77.3657C57.607 77.3696 57.6049 77.3729 57.6049 77.3768C57.5986 79.3567 55.1708 80.6436 53.1651 81.2162C50.5928 81.9473 47.5244 81.8834 45.0455 81.0094C40.8779 79.5334 39.8208 76.5036 43.4401 74.3984C44.1571 73.9771 44.9878 73.6449 45.9184 73.4042V77.209C45.9184 77.9286 46.3575 78.5897 47.1152 79.0194C48.4808 79.8059 50.5502 79.6718 51.6481 79.027C51.8409 78.9206 52.0132 78.7994 52.1631 78.6661C52.6129 78.266 52.8618 77.7567 52.8618 77.2107L52.8681 73.407C53.8062 73.6502 54.6553 73.9866 55.3622 74.4018ZM21.4775 32.9016L25.8235 35.4263L25.9131 69.5643L21.5674 67.0397L21.4775 32.9016ZM27.6496 69.5739L27.5598 35.4267L71.4357 10.0961L71.5239 44.2431L27.6496 69.5739Z" fill="black"/>
<path d="M49.4597 15.7355L53.7248 13.2733C54.1401 13.0334 54.2825 12.5028 54.0418 12.0875C53.8028 11.6696 53.2688 11.5298 52.8569 11.7697L48.5918 14.2319C48.1765 14.4717 48.0341 15.0023 48.2748 15.4177C48.5111 15.8311 49.042 15.9753 49.4597 15.7355Z" fill="black"/>
<path d="M69.254 15.5778C69.254 15.2685 69.0879 14.9828 68.8183 14.8286C68.5505 14.6743 68.2199 14.6743 67.9521 14.8286L30.1957 36.6267C29.9261 36.7827 29.7617 37.07 29.7617 37.3811L29.8295 64.0918C29.8295 64.7525 30.551 65.1753 31.1314 64.841L68.8878 43.0429C69.1574 42.887 69.3218 42.5996 69.3218 42.2886L69.254 15.5778ZM31.562 62.5882L31.4993 37.8786L67.5215 17.0815L67.5842 41.791L31.562 62.5882Z" fill="black"/>
<path d="M58.5747 28.0458C58.1492 27.8263 57.6254 27.9992 57.4084 28.4272L50.9345 41.2079L47.6171 39.2017C47.4154 39.0796 47.1764 39.0466 46.9509 39.1034C46.7254 39.1618 46.5322 39.3093 46.4152 39.5119L40.1482 50.4177C39.9092 50.833 40.0533 51.3636 40.4686 51.6026C40.8798 51.8391 41.4118 51.7021 41.6535 51.2823L47.4781 41.146L50.8362 43.1777C51.2773 43.4434 51.8335 43.2705 52.0601 42.8276L58.9578 29.2121C59.1747 28.784 59.0035 28.2619 58.5747 28.0458Z" fill="black"/>
</svg>
