<svg width="93" height="92" viewBox="0 0 93 92" fill="none" xmlns="http://www.w3.org/2000/svg">
<path d="M80.4056 17.9417C80.1242 17.712 79.7327 17.679 79.419 17.8629L70.6715 22.9464L70.7466 12.8427C70.674 12.6685 70.6747 12.2943 70.3143 12.0849C70.293 12.0725 70.2058 12.0358 70.2058 12.0358C55.9664 6.2578 36.906 6.26289 22.7853 12.0442C22.4525 12.1799 22.2869 12.4984 22.2462 12.8469L22.1711 22.7947L13.6263 17.8612C13.3127 17.6815 12.9211 17.7137 12.6397 17.9434C7.67479 22.0421 5.04421 26.9021 5.02048 32.0033C4.71616 74.7977 4.86689 53.6018 4.82331 59.7301C4.80805 64.9266 7.49489 69.885 12.5922 74.0703C17.1584 77.808 23.0424 80.4004 28.7997 81.9842C29.2659 82.1114 29.7405 81.8401 29.8677 81.3782C29.9948 80.9163 29.7236 80.4382 29.2608 80.3111C22.3759 78.4128 17.2019 75.5977 13.6924 72.7286C9.01206 68.8857 6.54559 64.3926 6.55916 59.7386L6.70155 39.044C6.74859 39.1383 6.81375 39.2291 6.8627 39.3231C12.2829 49.7257 26.8265 54.7533 38.5986 56.1155C49.8388 57.4187 60.8157 55.9071 69.1939 52.7313C68.9498 88.1294 69.034 75.9202 69.0158 78.5617C60.162 82.0588 49.0637 83.3446 38.4588 82.0902C37.9909 82.0266 37.5502 82.375 37.4959 82.8504C37.4383 83.3259 37.779 83.7574 38.2554 83.8141C40.9795 84.1362 43.7375 84.2947 46.4837 84.2947C54.9273 84.2947 63.2641 82.7962 70.2092 79.9534C70.533 79.8203 70.7466 79.5059 70.7483 79.1558L70.8171 69.1993C75.4764 71.888 72.1699 69.9771 79.4292 74.1678C79.7615 74.3245 80.1242 74.2424 80.3548 74.0534C85.3318 69.946 87.9695 65.0741 87.9847 59.9674L88.1763 32.3854C88.1763 32.3455 88.1763 32.3066 88.1763 32.2667C88.1763 32.261 88.1732 32.2563 88.1731 32.2506C88.1731 32.2336 88.1763 32.2168 88.1763 32.1998C88.1678 27.0312 85.481 22.1008 80.4056 17.9417ZM79.7649 19.6691C84.1282 23.4027 86.4336 27.7254 86.4404 32.2032C86.4447 34.5473 85.8427 36.3896 85.1206 37.9544C84.1247 40.1117 82.5589 42.3097 79.8915 44.6139L68.007 37.7565C70.3693 34.5334 70.7626 30.3501 67.9434 26.5476C68.746 26.0805 80.4862 19.2494 79.7649 19.6691ZM62.1892 45.8989L65.7901 43.8061L65.7589 47.9599L62.1892 45.8989ZM66.1934 25.5488C65.7076 25.8282 65.6276 26.4776 65.9798 26.8786C68.8286 30.1291 69.0245 34.0018 66.0391 37.4395C65.9225 37.5734 65.8352 37.8624 65.834 37.9989L65.8018 41.7919L60.4569 44.8988C60.2811 44.7969 57.1529 42.9856 57.3514 43.1005L57.4989 21.0386L68.9989 14.3557L68.9277 23.9598L66.1934 25.5488ZM37.1451 43.0275L37.2197 31.8457L37.2913 21.2099C43.045 19.6504 49.7712 19.5977 55.7612 21.2064L55.6907 31.8589L55.615 43.1709C55.3776 43.2327 55.14 43.2939 54.8995 43.3506C48.999 44.7443 42.527 44.5284 37.1451 43.0275ZM67.8718 12.9973L56.5112 19.5936C50.1121 17.8142 42.6125 17.8957 36.5507 19.5948C36.375 19.4936 24.3668 12.57 25.1161 13.002C38.0888 8.24274 54.7995 8.24115 67.8718 12.9973ZM23.9702 14.3488C24.1458 14.4501 36.3331 21.4811 35.5565 21.0331L35.4123 42.452C35.1119 42.3472 34.8053 42.2482 34.5142 42.1352C30.4344 40.5545 25.9393 37.6761 25.1243 33.3423C24.7205 31.1752 25.3746 28.973 27.1001 26.9486C27.1202 26.925 27.1333 26.9004 27.1537 26.8769C27.1535 26.8772 27.1539 26.8767 27.1537 26.8769C27.1562 26.8742 27.1581 26.8704 27.1605 26.8676C27.33 26.6718 27.4029 26.4108 27.3605 26.1556C27.3181 25.8997 27.1622 25.6768 26.9384 25.5471L23.8991 23.7923L23.9702 14.3488ZM6.7523 32.0639C6.7559 27.6318 9.01015 23.3566 13.2856 19.6691C13.4611 19.7706 25.9667 27.0036 25.1906 26.5548C16.2336 38.7983 38.2318 49.8908 56.6581 44.7101C67.1412 50.7622 66.6978 50.5124 68.0415 51.289C59.005 54.603 48.4354 55.5358 38.6945 54.3869C25.2006 52.7982 6.73769 45.587 6.7523 32.0639ZM70.9398 51.4585C70.9407 51.3126 70.9044 51.1716 70.8381 51.0464C70.8348 51.04 70.8278 51.0368 70.8243 51.0305C70.8179 51.019 70.8049 51.0125 70.7978 51.0013C70.7345 50.8997 70.6608 50.803 70.5584 50.7338C70.5488 50.7274 70.5364 50.7283 70.5266 50.7223C70.5178 50.7168 70.5149 50.706 70.5059 50.7008L67.4868 48.9576L67.5579 39.5088L79.1223 46.1857L78.9446 71.8824L70.8364 67.2066C70.8376 67.0255 70.9467 50.4194 70.9398 51.4585ZM86.3913 39.3669L86.2489 59.9589C86.237 64.0287 84.3229 67.9664 80.6886 71.4376L80.864 46.089C83.2935 44.0268 85.1837 41.6441 86.311 39.5034C86.3352 39.4574 86.3675 39.413 86.3913 39.3669Z" fill="black"/>
<path d="M35.0008 83.3497C35.4985 83.4269 35.9245 83.0926 36.0009 82.6377C36.0806 82.1656 35.7619 81.7172 35.2889 81.6376C34.3329 81.4765 33.3853 81.2951 32.4461 81.0917C31.9749 80.9892 31.5172 81.2901 31.4155 81.7562C31.3138 82.2249 31.6104 82.6869 32.08 82.7886C33.0428 82.9971 34.0176 83.1836 35.0008 83.3497Z" fill="black"/>
</svg>
