<svg width="93" height="92" viewBox="0 0 93 92" fill="none" xmlns="http://www.w3.org/2000/svg">
<path d="M20.3881 72.6427C20.7988 72.88 21.3313 72.7436 21.5739 72.3249C21.8138 71.9096 21.6714 71.379 21.256 71.1391L18.459 69.5245C18.0446 69.2846 17.5131 69.427 17.2733 69.8423C17.0334 70.2576 17.1758 70.7882 17.5911 71.0281L20.3881 72.6427Z" fill="black"/>
<path d="M83.9502 56.8667L67.1247 47.151L67.1559 39.656C67.1567 39.6355 67.1632 39.615 67.1638 39.5947C67.1647 39.5853 67.1647 39.5752 67.1647 39.5658C67.1647 36.1653 64.9398 33.0013 60.8951 30.6535C59.1947 29.6828 57.2624 28.9166 55.1594 28.345C55.4546 27.7647 55.8564 27.0418 56.0524 26.5861C56.2498 26.1247 55.976 25.6558 55.7096 25.501L53.3257 24.118L55.5875 22.8023C55.9876 22.5701 56.1351 22.0649 55.9232 21.6539L47.2439 4.79884C46.9265 4.1816 45.9902 4.23051 45.6963 4.79291C44.7971 6.5165 48.9535 -1.4509 36.9026 21.6496C36.6911 22.0556 36.8253 22.5739 37.2374 22.8117L39.6209 24.1876L37.3577 25.501C37.0444 25.6836 36.8079 26.2263 37.0229 26.6444C37.1135 26.8198 37.9838 28.506 37.8933 28.3306C35.769 28.9067 33.8217 29.6845 32.1146 30.6755C28.1516 32.9889 25.9639 36.1025 25.9423 39.4466C25.9422 39.4507 25.94 39.4541 25.94 39.4582L25.9398 39.4765C25.9376 40.0154 25.9068 47.5558 25.9087 47.0837L9.06374 56.8684C8.7959 57.0235 8.63147 57.31 8.63147 57.6193C8.63147 57.6282 8.63783 57.6354 8.63815 57.6443L8.61621 65.3417C8.61537 65.6527 8.78065 65.9401 9.05018 66.096L14.8875 69.4668C15.3003 69.7042 15.8317 69.5643 16.0732 69.149C16.3131 68.7337 16.1707 68.2031 15.7554 67.9632L10.3538 64.8441L10.3699 59.128L45.7615 79.5616L45.7454 85.2776L24.2685 72.8784C23.8524 72.6385 23.3226 72.7809 23.0828 73.1962C22.8429 73.6115 22.9853 74.1421 23.4006 74.382L46.1751 87.5305C46.4466 87.6869 46.7781 87.6835 47.0422 87.5314C47.0432 87.5308 47.0435 87.5297 47.0444 87.5291C104.016 54.4216 75.7081 70.8721 83.9299 66.0943C84.196 65.9401 84.3604 65.6553 84.3613 65.3467L84.3833 57.6287C84.3833 57.6273 84.3822 57.6261 84.3822 57.6247C84.3822 57.6222 84.3842 57.6202 84.3842 57.6176C84.3833 57.3074 84.218 57.0218 83.9502 56.8667ZM27.6046 57.2405C27.6053 57.0657 27.6589 43.5936 27.6555 44.453C31.4866 49.6968 39.9939 51.7948 46.6218 51.7948C51.8294 51.7948 57.031 50.648 60.9866 48.3536C62.5805 47.4283 64.3144 46.029 65.3992 44.5657C65.3984 44.7405 65.3377 58.1746 65.3415 57.3235C65.3415 71.2512 27.5223 71.0318 27.6046 57.2405ZM57.9955 43.207C55.0959 44.8971 50.953 45.8668 46.6294 45.8668C42.0842 45.8668 35.9836 44.599 33.0464 41.6064C33.0424 41.6024 33.0399 41.5983 33.036 41.5943C33.5578 41.0575 34.2615 40.5274 35.1091 40.0362C37.0835 38.8754 39.7604 38.0313 42.6972 37.6371L45.7285 43.5096C45.8514 43.7466 46.1512 43.9792 46.4989 43.9792C46.8366 43.9792 47.147 43.7592 47.2778 43.5079L50.3346 37.6369C53.2821 38.0293 55.8921 38.8498 57.9133 40.0235C58.7833 40.5234 59.5144 41.0732 60.0653 41.6357C60.0634 41.6376 60.0621 41.6398 60.0602 41.6417C59.5301 42.1893 58.6628 42.8166 57.9955 43.207ZM31.8917 39.4794C31.8917 38.3852 33.1512 36.9561 35.1032 35.839C36.6865 34.9258 38.6111 34.2169 40.7032 33.7743L41.8678 36.0306C38.9228 36.487 36.2886 37.3293 34.2335 38.5369C33.3751 39.0346 32.6448 39.5838 32.0443 40.153C31.9547 39.9202 31.8917 39.6916 31.8917 39.4794ZM46.1277 32.0596C46.3303 32.1761 46.7181 32.2191 46.9973 32.0579C47.171 31.9571 53.5252 28.2687 53.1209 28.5034L46.507 41.2171C46.4171 41.0432 39.8375 28.3062 39.9293 28.4839C40.1033 28.5842 46.5366 32.2955 46.1277 32.0596ZM61.0491 40.1872C58.5031 37.7794 54.6199 36.5667 51.1708 36.0311L52.3435 33.7786C54.4615 34.2396 56.3776 34.942 57.9167 35.8246C59.9382 36.9773 61.1935 38.3979 61.1935 39.5311C61.1935 39.7423 61.1312 39.9637 61.0491 40.1872ZM45.5979 8.74773L45.5742 25.6181L38.8285 21.719C38.9195 21.5447 46.0518 7.87796 45.5979 8.74773ZM47.3098 25.6075C47.3101 25.4334 47.3354 7.62992 47.3338 8.76436L54.0026 21.7149C53.0126 22.2907 46.9199 25.8343 47.3098 25.6075ZM46.0056 27.8734C46.2732 28.0276 46.6027 28.0289 46.8727 27.8734C46.8746 27.8723 46.8753 27.87 46.8773 27.8689L51.5984 25.1227L53.5401 26.2498C53.3612 26.3536 46.108 30.5612 46.5582 30.3001C46.3791 30.1967 39.081 25.9868 39.5319 26.2469L41.3541 25.1891C41.5301 25.2907 46.3042 28.0457 46.0056 27.8734ZM32.9876 32.1758C34.6586 31.2052 36.5785 30.4405 38.7016 29.8964L39.8881 32.1951C37.7971 32.6795 35.8553 33.4007 34.2378 34.3337C31.6815 35.7975 30.1558 37.7206 30.1558 39.4794C30.1558 41.686 32.3937 43.603 34.3022 44.6903C37.4832 46.5414 41.9762 47.6026 46.6294 47.6026C51.2513 47.6026 55.713 46.5474 58.8711 44.7064C60.7429 43.6109 62.9293 41.6923 62.9293 39.5311C62.9293 37.7223 61.4155 35.8212 58.7778 34.3176C57.2031 33.4144 55.2727 32.7007 53.1645 32.2018L54.3568 29.9119C56.4597 30.4535 58.3659 31.2078 60.0289 32.158C63.4943 34.17 65.4084 36.7853 65.4266 39.5267C65.4262 39.5375 65.4203 39.5466 65.4203 39.5574V39.5752C65.3712 48.0217 45.8551 54.2406 33.0639 46.8389C30.2441 45.1655 27.6711 42.7386 27.6763 39.4705C27.6884 36.7593 29.5726 34.1688 32.9876 32.1758ZM25.8984 49.0969C25.8977 49.2725 25.865 57.766 25.8671 57.2286C25.8149 73.2905 67.0413 73.5282 67.0825 57.3346C67.0833 57.1598 67.124 48.6113 67.1214 49.1537L81.7846 57.621L46.6277 78.0537L11.231 57.6159L25.8984 49.0969ZM82.6271 64.8441L47.4814 85.2683L47.4977 79.5613L82.6432 59.1365L82.6271 64.8441Z" fill="black"/>
<path d="M59.6541 52.0516H59.6507C59.1726 52.0516 58.7845 52.4381 58.7828 52.9161L58.7573 59.9646C58.7556 60.4443 59.143 60.8342 59.6219 60.8359H59.6253C60.1033 60.8359 60.4915 60.4494 60.4932 59.9714L60.5186 52.9229C60.5203 52.4432 60.133 52.0533 59.6541 52.0516Z" fill="black"/>
<path d="M46.6422 55.5758H46.6388C46.1608 55.5758 45.7726 55.9623 45.7709 56.4403L45.7446 63.6439C45.7429 64.1237 46.1303 64.5136 46.6092 64.5153H46.6126C47.0906 64.5153 47.4788 64.1288 47.4805 63.6507L47.5068 56.4471C47.5085 55.9674 47.1211 55.5775 46.6422 55.5758Z" fill="black"/>
<path d="M33.4002 52.0516H33.3968C32.9187 52.0516 32.5305 52.4381 32.5289 52.9161L32.5034 59.9646C32.5017 60.4443 32.8891 60.8342 33.368 60.8359H33.3713C33.8494 60.8359 34.2376 60.4494 34.2393 59.9714L34.2647 52.9229C34.2664 52.4432 33.8791 52.0533 33.4002 52.0516Z" fill="black"/>
</svg>
