<svg width="93" height="92" viewBox="0 0 93 92" fill="none" xmlns="http://www.w3.org/2000/svg">
<path d="M66.506 25.2463C66.7366 25.1132 66.8934 24.881 66.9307 24.6174C66.9679 24.3529 66.8815 24.0868 66.6976 23.8944C53.1406 9.80261 52.3889 8.95147 52.1861 8.83369L44.6528 4.45931C44.1959 4.20006 43.6339 4.39202 43.4263 4.85259L29.2615 36.2191C29.0785 36.6251 29.2319 37.104 29.6167 37.3277L36.8593 41.5328L36.9271 67.6169C36.9279 67.9254 37.0924 68.2102 37.3593 68.3653C37.5351 68.4674 45.0707 72.8424 44.895 72.7403C44.8949 72.7402 44.8951 72.7405 44.895 72.7403C45.1603 72.8948 45.4928 72.8958 45.7623 72.7406L56.5263 66.5319L60.7806 68.9527L60.7833 68.948C60.7901 68.9519 60.7959 68.9573 60.8026 68.9612C63.746 70.6568 67.2726 69.8052 70.2057 68.1119C77.0754 64.1461 82.6457 54.4862 82.6228 46.5782C82.6118 42.5944 81.2102 39.5946 78.678 38.1245C77.2151 37.2925 73.3084 35.0703 73.5325 35.1977C70.9677 33.7043 67.6231 33.9993 64.1133 36.0292C62.4119 37.0116 60.7909 38.3442 59.3134 39.9105L59.2863 29.4223L66.506 25.2463ZM44.6121 6.4435L50.6367 9.94148C49.3972 12.6862 38.8362 36.0711 37.1897 39.7169L31.1661 36.2199L44.6121 6.4435ZM38.5951 41.3648L44.3604 38.0278L44.4559 70.4783L38.6612 67.1143L38.5951 41.3648ZM46.192 70.4885L46.092 36.5225C46.0901 35.8458 45.3557 35.4452 44.7893 35.7741L39.492 38.8397C42.5851 31.9899 49.8545 15.8916 52.0132 11.1111L64.6786 24.2978L57.9819 28.1713C57.7132 28.3264 57.5479 28.6137 57.5488 28.9248L57.5827 41.9182C54.2661 46.1762 51.67 52.258 51.6818 57.5443C51.6818 57.5453 51.6819 57.5463 51.6819 57.5473C51.6819 57.5483 51.6818 57.5492 51.6818 57.5502C51.6948 60.48 52.5421 63.68 54.8484 65.4954L46.192 70.4885ZM80.8869 46.5833C80.9081 53.9361 75.7269 62.9196 69.3378 66.6083C66.3933 68.3086 63.67 68.6077 61.668 67.4567C59.3216 66.1062 58.5759 63.165 58.5684 60.4659C58.5574 56.6401 59.9692 52.3752 62.2217 48.6403C64.94 44.1347 70.187 38.8068 75.2295 38.9283C79.1792 39.0254 80.8758 42.5797 80.8869 46.5833ZM64.9821 37.532C67.3527 36.1614 70.3022 35.3239 72.6671 36.7022L73.7088 37.2947C68.3872 38.1248 63.4324 43.1727 60.5555 48.0852C58.2501 52.02 56.8185 56.4697 56.8275 60.471C56.8353 62.282 57.1994 64.0395 57.6522 65.1759C57.4781 65.0768 56.328 64.4216 56.502 64.5207C54.5284 63.37 53.4334 60.8899 53.4177 57.5406C53.3933 50.2593 58.6123 41.21 64.9821 37.532Z" fill="black"/>
<path d="M10.4444 82.4166C10.4452 82.7251 10.6097 83.0099 10.8767 83.1642C10.9286 83.1944 10.1542 82.7443 18.4091 87.5419C18.6731 87.6939 19.0046 87.6975 19.2762 87.5411L32.4604 79.9289C32.7299 79.773 32.8952 79.4856 32.8943 79.1746L32.8282 55.616C32.8274 55.3657 32.5674 54.9675 32.3968 54.8685L32.3948 54.8673L32.3934 54.8659L32.3916 54.8654L24.8669 50.4924C24.5965 50.3347 24.2651 50.3364 23.9964 50.4907L10.8114 58.1028C10.5049 58.2803 10.3779 58.6789 10.3774 58.8538L10.3779 58.8555L10.3774 58.8572L10.4444 82.4166ZM12.1175 60.3652L17.9087 63.7309L17.97 85.2789L12.1786 81.914L12.1175 60.3652ZM19.7059 85.2882L19.6449 63.731C19.9616 63.5481 31.7939 56.717 31.0966 57.1196L31.1568 78.6771L19.7059 85.2882ZM24.4287 52.2452L30.2286 55.616L18.7766 62.2276C18.6008 62.1255 12.8013 58.7551 12.977 58.8572L24.4287 52.2452Z" fill="black"/>
<path d="M69.2972 52.7775C68.6498 53.1502 68.2998 53.0358 68.2979 52.2155C68.2945 51.0594 69.1429 49.5914 70.1498 49.01C70.8112 48.6302 71.1413 48.78 71.1432 49.5753C71.1449 50.0542 71.5331 50.4407 72.0111 50.4407C72.012 50.4407 72.0128 50.4407 72.0137 50.4407C72.4934 50.439 72.8808 50.05 72.8791 49.5702C72.8753 48.0826 71.9731 46.9917 70.5838 47.0865V45.8154C70.5838 45.3357 70.1956 44.9475 69.7159 44.9475C69.2362 44.9475 68.848 45.3357 68.848 45.8154V47.8059C67.5329 48.7997 66.5575 50.6326 66.562 52.2206C66.5674 54.3368 68.3106 55.349 70.1651 54.2811C70.8133 53.9066 71.1557 54.0373 71.1576 54.8464C71.161 55.9788 70.2982 57.4714 69.3116 58.041C68.6507 58.4215 68.315 58.2843 68.3131 57.4875C68.3123 57.0086 67.9241 56.6213 67.4452 56.6213C66.9655 56.6221 66.5764 57.012 66.5773 57.4909C66.5813 59.0701 67.5406 59.9743 68.709 59.9743C68.7541 59.9743 68.8023 59.9563 68.848 59.9536V61.255C68.848 61.7347 69.2362 62.1229 69.7159 62.1229C70.1956 62.1229 70.5838 61.7347 70.5838 61.255V59.2657C71.9102 58.2799 72.8981 56.4378 72.8935 54.8413C72.8881 52.7215 71.143 51.7148 69.2972 52.7775Z" fill="black"/>
</svg>
