<svg width="93" height="92" viewBox="0 0 93 92" fill="none" xmlns="http://www.w3.org/2000/svg">
<path d="M11.6768 55.6385C12.1548 55.6385 12.5447 55.2512 12.5464 54.7731L12.56 49.7495C12.5617 49.2698 12.1735 48.8807 11.6937 48.879C11.2157 48.879 10.8258 49.2664 10.8241 49.7444L10.8106 54.768C10.8089 55.2478 11.1971 55.6368 11.6768 55.6385Z" fill="black"/>
<path d="M52.9205 41.6559V34.7051C54.2671 33.8265 55.297 31.9859 55.2937 30.3992C55.2866 28.3745 53.611 27.4176 51.8661 28.4269C50.4218 29.2609 49.2945 31.2095 49.2979 32.864C49.3001 34.08 49.9368 35.1216 51.1846 35.215V41.6585C51.1965 45.8413 48.2435 50.9539 44.6023 53.0559C41.32 54.9541 38.8612 53.597 38.8506 49.7775L38.8362 42.8015C39.9326 41.8355 40.721 40.2558 40.7153 38.8716C40.7118 36.8506 39.0373 35.8875 37.2894 36.8984C35.8451 37.7325 34.7178 39.6811 34.7212 41.3355C34.7237 42.7239 35.5678 43.8765 37.1022 43.6564L37.1148 49.7817C37.1287 54.8559 40.9512 57.169 45.4702 54.5595C49.6607 52.1397 52.9341 46.471 52.9205 41.6559ZM52.734 29.9305C53.352 29.5788 53.5548 29.7593 53.5579 30.4051C53.5613 31.4409 52.7764 32.8038 51.8797 33.3208C51.2881 33.6635 51.0371 33.5413 51.0338 32.8589C51.0304 31.8231 51.8254 30.4543 52.734 29.9305ZM36.457 41.3305C36.4537 40.2947 37.2487 38.9259 38.1573 38.4021C38.7822 38.0404 38.9765 38.2461 38.9795 38.8776C38.9828 39.9116 38.1997 41.2745 37.3029 41.7924C36.7177 42.1304 36.4604 42.0225 36.457 41.3305Z" fill="black"/>
<path d="M77.7681 45.5803C77.5943 45.4802 71.717 42.1382 71.8909 42.2391C70.2413 41.2794 68.2984 40.9981 66.2016 41.3373L66.285 12.7068C66.2874 12.2903 65.859 11.8758 65.5053 11.8406L55.0783 10.8065L53.2645 4.95055C53.1028 4.42697 52.4959 4.17459 51.9999 4.45726C40.9933 10.853 11.3516 28.0281 11.165 28.1989C10.9837 28.3625 10.8786 28.5956 10.8786 28.8405L10.8379 44.5496C10.8362 45.0293 11.2244 45.4192 11.7041 45.4201C12.1821 45.4201 12.572 45.0327 12.5737 44.5547L12.6127 29.807C12.7901 29.8246 22.7422 30.8157 22.109 30.7527C22.1627 30.9273 23.977 36.8318 23.8615 36.456L23.7336 82.8699L21.9429 78.9954C21.8005 78.6902 21.4971 78.4936 21.1597 78.4919L12.4822 78.4377L12.5313 60.1773C12.533 59.6976 12.1448 59.3086 11.6651 59.3069C11.1871 59.3069 10.7972 59.6942 10.7955 60.1722L10.7446 79.298C10.7429 79.776 11.1294 80.165 11.6075 80.1684L20.5986 80.2244L23.8025 87.1567C23.8082 87.1691 23.822 87.1741 23.8282 87.1861C23.875 87.2765 23.9504 87.3424 24.0264 87.4119C24.0687 87.4503 24.0966 87.5018 24.1454 87.5311C24.1502 87.5339 24.152 87.5396 24.1568 87.5424C24.2674 87.6061 24.392 87.627 24.5152 87.6383C24.5419 87.6407 24.5637 87.6602 24.5907 87.6602C24.6518 87.6602 24.7145 87.6534 24.7755 87.6399C24.8596 87.6216 24.9352 87.5857 25.0074 87.5458C25.0134 87.5425 25.0206 87.5441 25.0264 87.5407L25.041 87.5322C25.0458 87.5294 25.0507 87.5268 25.0554 87.5238L48.3632 73.9781C49.1131 75.4428 50.1539 76.6083 51.4845 77.3841L57.3871 80.7431L57.3906 80.7369C57.3989 80.7418 57.4059 80.7485 57.4142 80.7533C60.7393 82.6679 64.7359 81.7047 68.0734 79.7785C75.9186 75.2482 82.2806 64.2161 82.2552 55.1851C82.2416 50.6488 80.6482 47.2381 77.7681 45.5803ZM53.5899 11.8702C53.6933 12.2033 53.9866 12.4423 54.3324 12.4771L62.6608 13.3026L25.2461 35.0434L25.2043 34.9076L23.6059 29.6864C23.5024 29.3516 23.2092 29.1117 22.86 29.077C22.686 29.0597 13.9599 28.1927 14.5157 28.2479L51.9287 6.50587L53.5899 11.8702ZM25.4632 85.2795L25.6081 36.8435L64.5441 14.2159L64.4644 41.7458C64.4566 41.7482 64.4487 41.7523 64.4409 41.7547C63.2078 42.1471 62.0953 42.6834 61.2114 43.1943C52.5513 48.1951 45.7151 61.0741 47.2399 70.4114C47.3505 71.0952 47.4882 71.7562 47.6834 72.3656L25.4632 85.2795ZM52.3508 75.8796C50.173 74.6099 49.1643 72.0657 48.8685 69.5559C47.8435 60.9268 54.1563 49.2783 62.0912 44.6979C64.8233 43.0887 68.3047 42.1622 71.0247 43.7436L72.547 44.6098C70.7245 44.8292 68.6733 45.6524 67.1157 46.5508C59.2225 51.1081 52.8984 62.1809 52.917 71.1222C52.9276 73.4192 53.3809 75.4118 53.9985 76.8179L52.3508 75.8796ZM67.2055 78.2749C60.167 82.3409 54.6807 79.2273 54.6596 71.1179C54.6339 62.5686 60.73 52.2435 67.9836 48.0552C74.8433 44.0741 80.4941 46.9533 80.5193 55.1902C80.5448 63.6668 74.571 74.0226 67.2055 78.2749Z" fill="black"/>
<path d="M69.887 62.2235C69.1225 61.781 68.1275 61.8505 67.1578 62.4074C66.7442 62.6464 66.3696 62.7193 66.1577 62.5947C65.9475 62.4743 65.822 62.1217 65.8203 61.6522C65.817 60.2859 66.8188 58.5517 68.0088 57.8643C68.4207 57.6245 68.7903 57.5609 69.0022 57.6796C69.2124 57.8008 69.3378 58.1534 69.3395 58.6238C69.3412 59.1027 69.7294 59.4892 70.2074 59.4892H70.2108C70.6889 59.4875 71.0771 59.0976 71.0754 58.6187C71.072 57.505 70.6312 56.615 69.8667 56.1751C69.4485 55.9335 68.9579 55.8592 68.4428 55.9203V54.3104C68.4428 53.8307 68.0546 53.4425 67.5748 53.4425C67.0951 53.4425 66.7069 53.8307 66.7069 54.3104V56.6602C65.202 57.767 64.0784 59.8521 64.0845 61.6573C64.0879 62.7702 64.5286 63.6601 65.2915 64.0992C66.0611 64.5399 67.0527 64.4738 68.0258 63.911C68.4343 63.6737 68.8072 63.6033 69.0208 63.7271C69.2293 63.8474 69.3548 64.2 69.3565 64.6704C69.3599 66.0325 68.3631 67.7624 67.1765 68.4464C66.7612 68.6854 66.3831 68.7541 66.1712 68.6329C65.9644 68.5134 65.839 68.1642 65.8373 67.6997C65.8356 67.2208 65.4474 66.8343 64.9694 66.8343H64.966C64.4879 66.836 64.0998 67.2259 64.1014 67.7048C64.1048 68.8126 64.5439 69.6991 65.3067 70.1373C65.6407 70.3306 66.0204 70.4255 66.4204 70.4255C66.5131 70.4255 66.612 70.3931 66.7069 70.3829V72.0232C66.7069 72.5029 67.0951 72.8911 67.5748 72.8911C68.0546 72.8911 68.4428 72.5029 68.4428 72.0232V69.6752C69.9603 68.5785 71.0986 66.4811 71.0923 64.6662C71.0906 63.5533 70.6516 62.6634 69.887 62.2235Z" fill="black"/>
</svg>
