<svg width="93" height="92" viewBox="0 0 93 92" fill="none" xmlns="http://www.w3.org/2000/svg">
<path d="M18.0133 71.1628C18.4931 71.1619 18.8813 70.772 18.8796 70.2923L18.8677 65.8069C18.866 65.3289 18.4778 64.9415 17.9998 64.9415C17.52 64.9424 17.1301 65.3323 17.1318 65.812L17.1437 70.2974C17.1454 70.7754 17.5353 71.1628 18.0133 71.1628Z" fill="black"/>
<path d="M75.9627 59.3915C75.9255 46.3836 75.8574 22.5582 75.8237 10.781C75.8217 10.4125 75.5667 10.135 75.3915 10.0334C75.2046 9.92479 65.4036 4.22862 65.7968 4.45715C65.5324 4.30119 65.1984 4.30119 64.9272 4.45545L17.4711 31.8544C17.1997 32.0115 17.0371 32.3005 17.0371 32.6054C17.0371 32.606 17.0375 32.6064 17.0375 32.6071C17.0375 32.6077 17.0371 32.6081 17.0371 32.6087L17.1168 60.8951C17.1185 61.3732 17.5067 61.7605 17.9847 61.7605C18.4644 61.7588 18.8543 61.3698 18.8526 60.89L18.778 34.1169C19.0885 34.2974 27.1277 38.9699 26.6331 38.6824C26.6418 41.7416 26.7504 79.9135 26.7657 85.2818L18.9086 80.7167L18.895 75.7888C18.8933 75.3108 18.5051 74.9235 18.0271 74.9235C17.5474 74.9252 17.1575 75.3142 17.1592 75.7939L17.1744 81.2193C17.1761 81.5278 17.3405 81.8126 17.6067 81.9669C17.7824 82.069 27.3799 87.6447 27.2042 87.5426C27.2051 87.5431 27.2055 87.5443 27.2064 87.5448C27.4742 87.699 27.8048 87.6982 28.0726 87.544L75.5288 60.1459C75.7983 59.9899 75.9644 59.7026 75.9627 59.3915ZM28.3987 49.0777C28.3982 48.8995 28.3673 37.9949 28.3693 38.6827C39.1199 32.476 63.297 18.5175 74.093 12.2846L74.1218 22.6808C63.3798 28.8824 39.2509 42.8125 28.3987 49.0777ZM65.3595 6.20994L73.2246 10.7806L27.5008 37.1794L19.6358 32.6087L65.3595 6.20994ZM28.5024 85.2907L28.4374 62.6091L28.4049 51.0795L40.7235 43.9674L74.1286 24.6822L74.2252 58.894L28.5024 85.2907Z" fill="black"/>
<path d="M47.4957 31.8544L30.3135 41.7754C29.8982 42.0152 29.7558 42.5458 29.9965 42.9611C30.2328 43.3746 30.7637 43.5188 31.1814 43.279L48.3636 33.358C48.7789 33.1182 48.9213 32.5876 48.6806 32.1723C48.4416 31.7552 47.911 31.6162 47.4957 31.8544Z" fill="black"/>
<path d="M61.1147 21.6004C59.6298 22.4404 58.4838 24.4237 58.5042 26.1053C58.5042 28.1563 60.2309 29.1165 61.9776 28.0886C63.4371 27.2436 64.5796 25.2662 64.5796 23.588C64.5796 21.5284 62.8806 20.5777 61.1147 21.6004ZM61.1012 26.5893C60.5358 26.9248 60.24 26.8282 60.24 26.0943C60.2265 25.034 61.0351 23.6397 61.9776 23.1066C62.6514 22.7147 62.8438 22.9594 62.8438 23.588C62.8438 24.6492 62.0318 26.0511 61.1012 26.5893Z" fill="black"/>
<path d="M53.0527 26.2425C51.5881 27.0893 50.4439 29.0684 50.4473 30.7483C50.4508 32.7759 52.15 33.7625 53.9342 32.7333C55.3972 31.8891 56.538 29.9117 56.5312 28.2335C56.5277 26.1857 54.825 25.2144 53.0527 26.2425ZM53.0663 31.2297C52.487 31.5648 52.1863 31.4751 52.1831 30.7432C52.1797 29.6837 52.9917 28.2827 53.9207 27.7462C54.5146 27.4061 54.792 27.5116 54.7954 28.2386C54.7988 29.2981 53.9919 30.6957 53.0663 31.2297Z" fill="black"/>
<path d="M69.1431 16.9531C67.6785 17.799 66.5342 19.7781 66.5376 21.4588C66.5412 23.4901 68.2463 24.4697 70.0263 23.443C71.4909 22.5971 72.6351 20.618 72.6317 18.9381C72.6282 16.8973 70.9254 15.9234 69.1431 16.9531ZM69.1583 21.9394C68.574 22.2739 68.2767 22.18 68.2735 21.4537C68.2701 20.3934 69.082 18.9924 70.011 18.4567C70.6626 18.0795 70.8931 18.2973 70.8959 18.9423C70.8993 20.0027 70.0873 21.4037 69.1583 21.9394Z" fill="black"/>
<path d="M54.868 61.7757L51.5811 63.6734C51.1658 63.9133 51.0234 64.4439 51.2641 64.8592C51.5004 65.2727 52.0313 65.4169 52.449 65.1771L55.7359 63.2793C56.1512 63.0395 56.2936 62.5089 56.0529 62.0936C55.8139 61.6765 55.2816 61.535 54.868 61.7757Z" fill="black"/>
<path d="M69.26 53.4668L58.2974 59.7957C57.8821 60.0356 57.7397 60.5662 57.9804 60.9815C58.2167 61.395 58.7476 61.5392 59.1653 61.2994L70.1279 54.9705C70.5433 54.7306 70.6856 54.2 70.4449 53.7847C70.2059 53.3677 69.6736 53.2278 69.26 53.4668Z" fill="black"/>
<path d="M61.6048 49.5672C61.3658 49.1501 60.8352 49.0111 60.4199 49.2493L48.791 55.9639C48.3757 56.2037 48.2333 56.7343 48.474 57.1496C48.7103 57.5631 49.2412 57.7073 49.659 57.4675L61.2878 50.7529C61.7031 50.5131 61.8455 49.9825 61.6048 49.5672Z" fill="black"/>
<path d="M69.2598 44.146L64.1455 47.0981C63.7302 47.338 63.5878 47.8686 63.8285 48.2839C64.0646 48.6959 64.5945 48.8423 65.0135 48.6017L70.1278 45.6496C70.5431 45.4098 70.6855 44.8792 70.4448 44.4638C70.2074 44.0477 69.6752 43.9053 69.2598 44.146Z" fill="black"/>
<path d="M46.9314 49.7215L51.2066 47.2525C51.6219 47.0126 51.7643 46.482 51.5236 46.0667C51.2846 45.6497 50.7523 45.5081 50.3387 45.7489L46.0635 48.2179C45.6482 48.4577 45.5058 48.9883 45.7465 49.4036C45.9828 49.8171 46.5137 49.9613 46.9314 49.7215Z" fill="black"/>
<path d="M69.2601 34.8252L53.4561 43.9494C53.0408 44.1893 52.8984 44.7199 53.1391 45.1352C53.3754 45.5487 53.9063 45.6928 54.324 45.453L70.128 36.3288C70.5433 36.0889 70.6857 35.5584 70.445 35.143C70.206 34.7269 69.6737 34.5853 69.2601 34.8252Z" fill="black"/>
<path d="M39.4673 60.7569C35.3057 63.159 32.0544 68.7895 32.0679 73.5749L32.0713 74.3996C32.073 74.709 32.2391 74.9946 32.507 75.1489C32.7747 75.3031 33.1054 75.3023 33.3732 75.148L47.3464 67.0799C47.616 66.9239 47.7804 66.6366 47.7804 66.3264L47.7787 65.5009C47.7646 60.3862 43.9146 58.1887 39.4673 60.7569ZM46.0429 65.828L33.8275 72.8808C34.1157 68.8734 36.9195 64.2312 40.3352 62.2605C43.5951 60.3783 46.0322 61.705 46.0429 65.5051V65.828Z" fill="black"/>
<path d="M40.32 58.2117C42.4916 56.9581 44.1867 54.0272 44.1782 51.5387C44.1678 48.7065 41.9317 47.3825 39.4301 48.8256C37.2637 50.0766 35.5736 53.0101 35.5821 55.5045C35.5925 58.3215 37.8273 59.6513 40.32 58.2117ZM40.298 50.3292C41.6012 49.5746 42.4388 50.0258 42.4424 51.5438C42.4475 53.4042 41.0795 55.769 39.4521 56.7081C38.153 57.4592 37.3215 57.0028 37.3179 55.4995C37.3128 53.6331 38.6774 51.2658 40.298 50.3292Z" fill="black"/>
</svg>
