<svg width="93" height="92" viewBox="0 0 93 92" fill="none" xmlns="http://www.w3.org/2000/svg">
<path d="M34.9001 26.6968L39.8203 23.9202C40.2381 23.6845 40.3856 23.1548 40.15 22.7378C39.9152 22.3191 39.3855 22.1716 38.9676 22.4081C36.8613 23.5959 32.6489 25.9718 30.5426 27.1596C28.7231 28.2087 27.7051 30.3138 27.6453 33.0908L21.8869 36.3635C20.4117 35.963 19.035 36.0777 17.8899 36.7424C17.7159 36.8415 13.1848 39.4231 13.4731 39.259C11.8306 40.2344 10.9176 42.1693 10.9109 44.7275C10.8965 49.6918 14.3962 55.7579 18.7121 58.2506C20.6404 59.3642 22.9157 59.8755 24.8299 58.7744C24.8337 58.7722 24.8363 58.7684 24.8401 58.7662C24.8398 58.7663 24.8404 58.7661 24.8401 58.7662L29.2297 56.2851C30.6451 55.4596 31.4792 53.8923 31.7093 51.866L36.8948 48.9205C38.9717 50.0154 41.3263 50.4892 43.3708 49.3163C43.386 49.3076 43.3987 49.2957 43.4137 49.2868L44.8998 48.4424L44.8898 51.4305C44.0067 51.7099 43.177 52.0396 42.4529 52.454C40.3889 53.6642 39.2607 55.3218 39.2105 57.0386C39.1548 57.364 39.2049 56.5469 39.182 61.7232C39.1783 63.0865 39.8242 64.3687 41.0235 65.4484L35.6273 83.6807C35.1929 85.4165 36.2703 87.1415 37.9395 87.5575C39.5807 88.0103 41.407 87.0006 41.8316 85.2665L43.4515 79.7997C43.8783 80.1186 44.3694 80.3453 44.9041 80.4022C45.077 80.4378 45.2389 80.4378 45.3567 80.4378C47.0001 80.4378 48.3639 79.2148 48.5233 77.634L49.9382 68.2745C50.8685 68.27 51.7875 68.1712 52.6888 68.0231L57.7958 85.2394C58.2607 87.0144 60.0771 87.9969 61.7023 87.5609C63.4102 87.1286 64.4527 85.3911 64.0162 83.6451L58.6268 65.4906C59.8178 64.4258 60.4608 63.1529 60.464 61.7961C60.4637 61.6059 60.467 62.5972 60.4513 57.1352C60.4174 55.3468 59.2291 53.6559 57.1618 52.4684C56.4425 52.0519 55.5851 51.7145 54.6568 51.427L54.6772 42.8872L63.3858 37.9393C66.12 39.3853 69.253 40.0369 71.9284 38.4867C71.9379 38.4812 71.9459 38.4736 71.9554 38.468L78.3149 34.787C80.7484 33.3673 82.0884 30.4779 82.0892 26.6494C82.107 19.0737 76.7664 9.82148 70.1858 6.026C66.8251 4.08334 63.6187 3.80449 61.1531 5.2386C54.5538 9.07655 54.9377 8.84398 54.7204 8.99699C52.6953 10.2058 51.4229 12.4815 51.0928 15.4806L46.4501 18.1244C46.0339 18.3617 45.8881 18.8915 46.1254 19.3085C46.3619 19.7238 46.8917 19.867 47.3095 19.6331C48.3358 19.0486 56.7009 14.2847 56.1752 14.584C57.5068 13.8127 59.3282 14.0196 61.3107 15.1663C65.6604 17.6743 69.3273 23.9002 69.3111 29.0387C69.3111 31.06 68.7095 32.5654 67.6631 33.41C66.9201 34.0085 46.6844 45.4354 45.9186 45.8675C45.9259 45.8425 45.9281 45.8132 45.9352 45.7881C46.1699 44.9597 46.2915 43.9317 46.2941 43.1196C46.3063 39.241 44.4097 34.8046 41.6433 31.473C40.3824 29.9508 38.9575 28.6359 37.4182 27.7478C36.6869 27.3278 35.507 26.8518 34.9001 26.6968ZM46.606 57.2141C46.6079 56.6743 46.6398 47.256 46.6391 47.4592L52.9392 43.8816L52.907 57.2463C52.907 58.3186 49.5698 59.3948 47.3748 58.1303C47.0485 57.9383 46.606 57.5935 46.606 57.2141ZM40.1568 84.813C39.9644 85.5911 39.0473 86.0658 38.3802 85.8784C37.5696 85.6781 37.1252 84.8513 37.3013 84.1384L42.5155 66.5242C42.5168 66.525 42.5177 66.5257 42.519 66.5264C43.1746 66.9047 44.604 67.4681 45.2406 67.652L40.1568 84.813ZM46.8018 77.4162C46.7272 78.1493 46.1059 78.702 45.3567 78.702L45.1728 78.6893C44.6617 78.6333 44.2328 78.318 44.0285 77.8646L46.9357 68.0419C47.0693 68.0647 48.189 68.2059 48.1935 68.2064L46.8018 77.4162ZM61.2726 85.8784C61.2658 85.8801 61.2599 85.8818 61.2531 85.8835C60.5771 86.075 59.7002 85.6571 59.4681 84.7732L54.3962 67.6749C55.2671 67.4274 56.3321 67.003 57.1322 66.5561L62.3414 84.1019C62.5372 84.8859 62.0575 85.6827 61.2726 85.8784ZM58.7281 61.7944C58.723 64.2043 55.4683 65.6919 53.1205 66.2069C53.1151 66.2081 53.1111 66.2123 53.1057 66.2136C48.8544 67.1478 44.289 65.9599 42.5961 64.4744C42.5955 64.4739 42.5945 64.4738 42.5939 64.4733C41.52 63.6547 40.9151 62.7062 40.9179 61.7257V60.8112C41.2238 61.0968 41.9149 61.6309 42.519 61.98C45.5153 63.7098 49.8886 64.1505 53.6005 63.3206C55.4683 62.9039 57.3215 62.1652 58.7281 60.8544V61.7944ZM57.5677 59.5302C54.388 62.5484 47.2653 62.7161 43.392 60.4679C40.1971 58.6299 40.0725 55.8618 43.3233 53.9559C43.7954 53.6856 44.3174 53.4457 44.8836 53.2389L44.8702 57.2115C44.8702 58.154 45.4474 59.0118 46.5018 59.6305C49.43 61.3208 54.6428 60.1706 54.6428 57.2496L54.6564 53.2279C55.2632 53.4432 55.8108 53.6915 56.2939 53.972C58.7377 55.3743 59.6385 57.5544 57.5677 59.5302ZM31.9573 32.6367C32.7998 32.1476 33.9754 32.2951 35.2713 33.0546C39.9715 35.7678 42.3277 43.8223 39.4262 45.4861C39.2494 45.5864 31.5983 49.9328 31.775 49.8325C31.588 47.6154 30.5784 44.5772 28.7436 41.8867C27.5247 40.1006 25.8969 38.3477 24.001 37.2543C23.9713 37.2372 23.9421 37.2251 23.9124 37.2084L31.9573 32.6367ZM19.58 56.747C15.7447 54.5323 12.6341 49.1425 12.6468 44.7326C12.6574 40.6898 15.2837 39.2382 18.7628 41.2414C21.7471 42.9651 24.2711 46.6083 25.2499 50.2187C25.529 51.2528 25.7007 52.2855 25.6962 53.2686C25.6962 57.1996 23.1577 58.8143 19.58 56.747ZM28.3652 54.7798L27.1777 55.4511C27.617 53.7246 27.4459 52.0427 27.044 50.3367C26.0545 46.1135 23.1306 41.7561 19.6317 39.7378C18.7933 39.2541 17.9845 38.9727 17.6492 38.8749L18.7545 38.2477C19.5631 37.7757 20.6003 37.7537 21.7481 38.1356C25.9405 39.449 30.0865 45.8871 30.0748 50.7817C30.0748 52.7159 29.4637 54.139 28.3652 54.7798ZM38.7431 47.8706L40.2864 46.9939C41.6756 46.1963 42.4402 44.5851 42.4402 42.4568C42.4402 38.4494 39.6135 33.5572 36.1435 31.5535C34.6044 30.652 32.6432 30.2295 31.0936 31.1305L29.456 32.0587C29.6827 30.4632 30.3514 29.2873 31.3921 28.677C31.3919 28.6771 31.3923 28.6769 31.3921 28.677L31.4296 28.656C32.9825 27.7742 34.9881 28.357 36.5401 29.254C37.9634 30.071 39.2806 31.2905 40.4395 32.7048C42.8905 35.7039 44.5617 39.662 44.5456 43.1247C44.5456 45.3767 43.8251 47.0371 42.5164 47.8008C42.5117 47.8036 42.5092 47.8084 42.5046 47.8113C41.4911 48.394 40.1901 48.4059 38.7431 47.8706ZM62.0261 6.73882C63.9298 5.63103 66.5191 5.91073 69.317 7.52877C75.4187 11.0479 80.3695 19.6238 80.3534 26.646C80.3534 29.8321 79.3185 32.1917 77.4428 33.2868L74.9941 34.7031C75.0104 34.6598 75.0154 34.6064 75.0312 34.5625C75.8796 32.2069 75.8446 29.5351 75.4055 27.0702C74.22 20.3738 69.5568 13.0357 63.8238 9.72994C62.3567 8.8863 60.7629 8.34068 59.5927 8.15428L62.0261 6.73882ZM55.7419 10.4041C57.9669 9.17394 60.7401 9.96213 62.9567 11.2378C68.2025 14.2635 72.4897 20.9203 73.6559 27.1201C74.3125 30.6327 74.1476 35.18 71.0622 36.9789C71.0585 36.9811 71.0566 36.9849 71.0529 36.9871C69.4875 37.8889 67.4509 37.8538 65.2047 36.9058C67.3542 35.6654 68.364 35.1438 68.8264 34.7621C68.831 34.7583 68.8346 34.7535 68.8393 34.7497C70.2733 33.5592 71.0537 31.5667 71.0537 29.0396C71.0672 23.4007 67.0888 16.4926 62.1753 13.6534C59.6232 12.1871 57.1779 11.9862 55.3073 13.0787L53.0248 14.3798C53.4695 12.5172 54.409 11.1407 55.7419 10.4041Z" fill="white"/>
<path d="M42.0002 22.6446L44.7497 21.0808C45.1668 20.8443 45.3125 20.3137 45.0752 19.8975C44.8379 19.4814 44.3115 19.3364 43.892 19.5721L41.1424 21.1359C40.7254 21.3723 40.5796 21.9029 40.817 22.3191C41.0542 22.7359 41.5837 22.8814 42.0002 22.6446Z" fill="white"/>
</svg>
