<svg width="93" height="93" viewBox="0 0 93 93" fill="none" xmlns="http://www.w3.org/2000/svg">
<path d="M41.7669 58.4682C42.0092 58.8865 42.5428 59.0219 42.9526 58.7826L65.9492 45.4205C66.3637 45.1798 66.5053 44.6492 66.2637 44.2347C66.0221 43.8186 65.489 43.6796 65.0779 43.9203L42.0813 57.2824C41.6669 57.5231 41.5253 58.0537 41.7669 58.4682Z" fill="black"/>
<path d="M65.0579 51.04L42.0613 64.4021C41.6468 64.6428 41.5053 65.1734 41.7469 65.5879C41.9892 66.0062 42.5227 66.1416 42.9326 65.9023L65.9292 52.5402C66.3437 52.2995 66.4852 51.7689 66.2437 51.3544C66.0021 50.9383 65.469 50.7993 65.0579 51.04Z" fill="black"/>
<path d="M65.0375 58.1597L42.0418 71.5218C41.6273 71.7625 41.4858 72.2931 41.7273 72.7076C41.9696 73.1259 42.5032 73.2613 42.9131 73.022L65.9088 59.6599C66.3233 59.4192 66.4649 58.8886 66.2233 58.4741C65.9817 58.0579 65.4486 57.9189 65.0375 58.1597Z" fill="black"/>
<path d="M79.4587 63.1203C79.457 63.1193 79.4565 63.1173 79.4548 63.1163L72.4732 59.0818C72.0376 58.8309 71.635 58.141 71.646 57.6443L71.6638 48.2802C71.6816 43.5618 68.3557 37.7948 64.2483 35.4241C62.1098 34.19 59.9765 34.0112 58.3991 34.9351L51.4419 38.9775L51.5244 7.90798C51.5244 7.90682 51.5252 7.90597 51.5252 7.9048C51.5249 7.73016 51.3764 7.31504 51.0904 7.14961C51.0867 7.14749 51.0821 7.14844 51.0783 7.14632L47.2848 4.95606C47.0152 4.80096 46.6821 4.79926 46.4143 4.95776L40.6262 8.32181C40.2117 8.56253 40.071 9.09396 40.3126 9.50843C40.5524 9.9229 41.083 10.0619 41.4992 9.82204L46.8525 6.71056L48.9219 7.90597L17.8742 25.9456L15.8072 24.7522L33.9981 14.1812C34.4117 13.9404 34.5532 13.409 34.3117 12.9954C34.0701 12.5792 33.5387 12.4402 33.1251 12.6809L13.6459 24.0011C13.6448 24.0018 13.6436 24.0015 13.6425 24.0021C13.3836 24.152 13.2087 24.4346 13.2077 24.7522L13.106 60.7151C13.0924 65.3675 16.3743 71.0531 20.4223 73.3907C22.5523 74.6214 24.6035 74.7935 26.1969 73.8772C26.4105 73.7542 33.1154 69.8559 33.3338 69.729L33.32 74.4892C33.3098 78.0423 35.7237 82.2242 38.8157 84.0101L45.804 88.0446C46.0755 88.201 46.407 88.1976 46.6711 88.0454C46.6721 88.0449 46.6724 88.0437 46.6733 88.0432C97.2986 58.6235 72.1432 73.242 79.4497 68.996C79.7158 68.8418 79.8802 68.557 79.8811 68.2484L79.8938 63.8749C79.8947 63.5639 79.7282 63.2762 79.4587 63.1203C79.459 63.1205 79.4584 63.12 79.4587 63.1203ZM59.2721 36.4353C60.3011 35.8335 61.7996 36.0149 63.3812 36.9277C67.0072 39.0204 69.944 44.111 69.9279 48.2752L69.9101 57.6231C69.8856 58.742 70.6153 60.0159 71.607 60.5863L77.29 63.8698L46.2414 81.9115L39.6947 78.1287C39.2692 77.8846 38.8674 77.1845 38.8674 76.6904L38.8759 72.0053L38.8895 67.3229C38.9022 62.6018 35.572 56.8332 31.4663 54.4634C30.9407 54.1602 30.3045 53.872 29.6852 53.681C29.6664 53.6752 29.6468 53.6655 29.6279 53.6599C36.4935 49.6706 51.8409 40.7531 59.2721 36.4353ZM25.5842 54.0133C24.017 54.9463 23.1447 56.7887 23.138 59.2259L23.1168 66.4948C23.1129 67.8949 22.292 68.0838 21.303 67.5127C19.8302 66.6634 18.6535 64.4831 18.6488 62.923C18.6488 62.9214 18.6483 62.9196 18.6483 62.918C18.7877 14.3152 18.739 31.2972 18.7501 27.452L49.7843 9.41679L49.7034 39.9877C43.6735 43.4939 31.6138 50.5066 25.5842 54.0133ZM28.4429 70.5597C28.5743 69.9848 28.6572 69.3702 28.6591 68.6977L28.6803 61.4288C28.6839 60.0731 29.401 59.6562 30.5857 60.3405C32.0868 61.2076 33.3514 63.3969 33.3471 65.12L33.3396 67.7181L28.4429 70.5597ZM35.0558 74.4943L35.083 65.1251C35.0889 62.7781 33.4946 60.0159 31.4536 58.8369C29.102 57.48 26.9516 58.7357 26.9445 61.4237L26.9233 68.6926C26.9127 72.3967 24.512 73.75 21.2903 71.8871C17.7228 69.8275 14.83 64.8183 14.8418 60.7202L14.9393 26.2558C15.113 26.3561 17.1862 27.5531 17.0125 27.4528C17.0021 31.0971 17.0499 14.3192 16.9116 62.9104C16.9116 62.9157 16.9136 62.9215 16.9136 62.9268C16.9129 65.2045 18.5708 67.9809 20.4384 69.0265C22.7514 70.356 24.8456 69.0607 24.8526 66.4999L24.8738 59.231C24.8844 55.4624 27.3122 54.0776 30.6026 55.9738C34.2286 58.0673 37.1655 63.157 37.1485 67.322L37.1401 71.9986L37.1265 76.6878C37.1239 77.8066 37.8554 79.0738 38.8276 79.6357C39.0015 79.7361 45.8132 83.6695 45.3811 83.42L45.3743 85.7917L39.6836 82.5065C37.1672 81.0537 35.0474 77.3837 35.0558 74.4943ZM78.1469 67.7458L47.1104 85.7823L47.1172 83.4192L78.1537 65.3828L78.1469 67.7458Z" fill="black"/>
<path d="M36.6499 12.6394L39.1164 11.2061C39.5308 10.9654 39.6724 10.434 39.4308 10.0204C39.1893 9.60336 38.6553 9.46351 38.2451 9.70592L35.7786 11.1392C35.3641 11.3799 35.2226 11.9113 35.4641 12.3249C35.7064 12.7432 36.24 12.8787 36.6499 12.6394Z" fill="black"/>
<path d="M33.9956 27.078L47.1967 19.4565C47.6121 19.2166 47.7544 18.6861 47.5146 18.2707C47.2739 17.8546 46.7407 17.713 46.3288 17.9529L33.1277 25.5744C32.7124 25.8142 32.57 26.3448 32.8099 26.7601C33.0504 27.1765 33.5826 27.3166 33.9956 27.078Z" fill="black"/>
<path d="M46.3289 23.4037L38.3938 27.9849C37.9785 28.2247 37.8361 28.7553 38.076 29.1706C38.3165 29.5871 38.8487 29.7271 39.2618 29.4885L47.1968 24.9073C47.6121 24.6674 47.7545 24.1369 47.5147 23.7215C47.274 23.3045 46.7408 23.163 46.3289 23.4037Z" fill="black"/>
<path d="M46.3286 28.8545L35.9178 34.8647C35.5024 35.1046 35.36 35.6352 35.5999 36.0505C35.8421 36.4686 36.3744 36.6059 36.7857 36.3683L47.1965 30.3581C47.6119 30.1182 47.7542 29.5877 47.5144 29.1723C47.2737 28.7553 46.7405 28.6155 46.3286 28.8545Z" fill="black"/>
<path d="M46.3285 34.3053L41.4998 37.093C41.0845 37.3329 40.9421 37.8634 41.1819 38.2788C41.4224 38.6952 41.9546 38.8352 42.3677 38.5966L47.1964 35.8089C47.6117 35.569 47.7541 35.0385 47.5142 34.6231C47.2735 34.207 46.7404 34.0654 46.3285 34.3053Z" fill="black"/>
<path d="M27.635 37.2303C24.0286 39.3128 21.2138 44.1898 21.2256 48.3353L21.2282 49.0431C21.229 49.3524 21.3951 49.6381 21.6638 49.7923C21.9306 49.946 22.2611 49.9464 22.5301 49.7915L34.52 42.8693C34.7895 42.7133 34.9548 42.426 34.9539 42.1158L34.9522 41.4072C34.94 36.9777 31.5779 34.9524 27.635 37.2303ZM23.0013 47.5149C23.3327 44.1695 25.6703 40.3698 28.503 38.7339C31.2249 37.1612 33.2075 38.2551 33.2164 41.4114L33.2172 41.6174L23.0013 47.5149Z" fill="black"/>
<path d="M28.4921 35.2207C30.4611 34.0832 31.9986 31.4235 31.9927 29.1647C31.9839 26.5389 29.8913 25.3393 27.6039 26.6567C25.64 27.7908 24.1059 30.4522 24.1118 32.7169C24.119 35.3296 26.2261 36.529 28.4921 35.2207ZM28.4718 28.1603C29.5418 27.5401 30.2531 27.8435 30.2568 29.1698C30.261 30.8073 29.0558 32.8907 27.6242 33.7171C26.5207 34.3547 25.8513 33.988 25.8477 32.7118C25.8434 31.0684 27.0453 28.9833 28.4718 28.1603Z" fill="black"/>
</svg>
