<svg width="93" height="92" viewBox="0 0 93 92" fill="none" xmlns="http://www.w3.org/2000/svg">
<path d="M53.1822 10.6422L49.8692 12.5548C49.4459 12.7993 49.3008 13.3401 49.5453 13.7634C49.7904 14.1878 50.3328 14.3306 50.7538 14.0874L54.0668 12.1747C54.4901 11.9303 54.6353 11.3895 54.3908 10.9662C54.1463 10.5411 53.6021 10.3977 53.1822 10.6422Z" fill="white"/>
<path d="M76.3887 10.104C76.3881 9.92416 76.2755 9.53151 75.949 9.34201L75.9469 9.34083C75.9464 9.3405 75.9461 9.33975 75.9455 9.33942C75.945 9.3391 75.9442 9.33921 75.9437 9.33888L66.169 3.65853C65.8934 3.49871 65.5556 3.49871 65.2818 3.6568L56.1298 8.94031C55.7065 9.18479 55.5614 9.72558 55.8059 10.1489C56.0503 10.5722 56.5911 10.7147 57.0144 10.4728L65.7224 5.44504L73.7391 10.104L27.1366 37.0092L19.1202 32.3507L46.8724 16.3291C47.2957 16.0846 47.4409 15.5438 47.1964 15.1205C46.9511 14.6972 46.4094 14.553 45.9878 14.7966L16.9151 31.5806C16.9147 31.5808 16.9154 31.5804 16.9151 31.5806C16.6428 31.7378 16.4712 32.1683 16.4707 32.3472V81.8934C16.4707 82.2105 16.64 82.5033 16.9156 82.6614L26.8344 88.3437L26.8364 88.3449C26.9729 88.4227 27.1241 88.4615 27.2761 88.4615C27.429 88.4615 27.582 88.4218 27.7184 88.3432L76.0872 60.4173C76.3619 60.2584 76.5304 59.9655 76.5295 59.6485L76.425 22.7391L76.3887 10.104ZM28.0519 49.1376L28.0217 38.5415L61.3208 19.3167L74.6238 11.6365L74.654 22.2318C57.194 32.3124 45.4449 39.0958 28.0519 49.1376ZM18.2399 33.8852L26.2521 38.5413C26.2793 48.0935 26.3534 74.1597 26.3872 86.0478L18.2399 81.3812V33.8852ZM28.1564 86.047L28.058 51.1775L63.8767 30.4974L74.6601 24.2716L74.7586 59.1414L28.1564 86.047Z" fill="white"/>
<path d="M61.3839 21.128C59.8893 21.991 58.7231 24.0082 58.7283 25.7204C58.7337 27.788 60.4654 28.7912 62.2832 27.7427C63.7716 26.8832 64.9344 24.8686 64.9301 23.1555C64.9228 21.072 63.1998 20.0815 61.3839 21.128ZM61.3985 26.2102C60.781 26.5642 60.4991 26.428 60.4975 25.7152C60.4941 24.6345 61.3217 23.2065 62.2685 22.6605C62.8533 22.3219 63.1591 22.4023 63.1609 23.1607C63.1635 24.2414 62.3402 25.6668 61.3985 26.2102Z" fill="white"/>
<path d="M53.1796 25.862C51.686 26.7259 50.5189 28.7422 50.5232 30.4544C50.5305 32.53 52.2658 33.5229 54.0781 32.4776C55.5674 31.618 56.7302 29.6035 56.725 27.8904C56.7178 25.807 54.9955 24.8174 53.1796 25.862ZM53.1935 30.9451C52.5994 31.2848 52.2941 31.1902 52.2924 30.4492C52.2898 29.3693 53.1174 27.9413 54.0643 27.3945C54.6611 27.0501 54.9541 27.1507 54.9558 27.8956C54.9592 28.9763 54.136 30.4017 53.1935 30.9451Z" fill="white"/>
<path d="M69.5797 16.3938C68.0851 17.2568 66.9189 19.274 66.9241 20.9862C66.9295 23.0538 68.6612 24.057 70.479 23.0086C71.9735 22.1456 73.1397 20.1284 73.1345 18.417C73.1291 16.3369 71.4002 15.3463 69.5797 16.3938ZM69.5943 21.476C69.0039 21.8129 68.695 21.7283 68.6933 20.981C68.6899 19.9003 69.5175 18.4723 70.4643 17.9264C71.1328 17.5408 71.3639 17.7604 71.3653 18.4214C71.3688 19.5021 70.5412 20.9292 69.5943 21.476Z" fill="white"/>
<path d="M38.2691 67.0752L31.8841 70.7614C31.4608 71.0059 31.3157 71.5467 31.5602 71.97C31.8053 72.3944 32.3477 72.5371 32.7687 72.2939L39.1537 68.6077C39.577 68.3633 39.7221 67.8225 39.4776 67.3992C39.2323 66.9741 38.6889 66.829 38.2691 67.0752Z" fill="white"/>
<path d="M32.7687 61.5888L36.442 59.4679C36.8653 59.2235 37.0104 58.6827 36.7659 58.2594C36.5197 57.8343 35.9789 57.6909 35.5573 57.9354L31.8841 60.0562C31.4608 60.3007 31.3157 60.8415 31.5602 61.2648C31.8053 61.6892 32.3477 61.832 32.7687 61.5888Z" fill="white"/>
<path d="M70.0478 48.729L66.7935 50.6079C66.3702 50.8524 66.2251 51.3932 66.4696 51.8165C66.7147 52.2409 67.2571 52.3837 67.6782 52.1405L70.9324 50.2615C71.3557 50.017 71.5008 49.4763 71.2564 49.053C71.0101 48.6279 70.4685 48.4845 70.0478 48.729Z" fill="white"/>
<path d="M70.0479 38.0237L63.5394 41.7816C63.1161 42.0261 62.971 42.5669 63.2154 42.9902C63.4605 43.4146 64.003 43.5574 64.424 43.3142L70.9325 39.5563C71.3558 39.3118 71.5009 38.771 71.2564 38.3477C71.0102 37.9235 70.4686 37.7784 70.0479 38.0237Z" fill="white"/>
<path d="M54.9619 43.3444C53.6929 44.077 52.3953 45.4695 51.0062 47.5921C49.5739 47.1083 48.1839 47.2345 46.8665 47.9679C46.863 47.9696 46.8595 47.9722 46.8552 47.9739C43.2261 50.0689 40.3701 54.9783 40.3528 59.1552C40.3554 67.1435 50.1717 67.8787 51.2913 67.9365C51.3068 67.9365 51.3215 67.9374 51.337 67.9374C51.5979 67.9374 51.8485 67.8208 52.0169 67.6195C53.736 65.5652 62.3118 54.9446 62.3351 47.6094C62.344 43.1138 58.9412 41.0733 54.9619 43.3444ZM50.9466 66.1379C48.9778 65.96 42.1237 64.9268 42.122 59.1586C42.1367 55.6176 44.6532 51.2913 47.7338 49.5099C48.7558 48.9415 49.8175 48.9354 50.9777 49.4866C51.3863 49.681 51.8709 49.5358 52.1085 49.1549C53.4924 46.9295 54.7148 45.53 55.8431 44.8787C58.5752 43.3175 60.5713 44.4155 60.5659 47.6051C60.546 54.0332 52.772 63.9083 50.9466 66.1379Z" fill="white"/>
</svg>
