<svg width="93" height="92" viewBox="0 0 93 92" fill="none" xmlns="http://www.w3.org/2000/svg">
<rect x="0.5" width="92" height="92" rx="46" fill="white"/>
<path d="M30.133 70.1116C30.1336 70.3128 30.2408 70.4986 30.4149 70.5992L35.355 73.4697C35.5313 73.5728 35.7479 73.5712 35.9222 73.4708C36.0817 73.3789 62.5423 58.0985 62.6852 58.0159C62.8609 57.9142 62.9687 57.7268 62.9682 57.5239L62.866 21.9109C62.8663 21.9037 62.8714 21.8979 62.8714 21.8906C62.872 21.6889 62.7642 21.502 62.5895 21.4009L57.6494 18.5303C57.4742 18.4281 57.2575 18.4281 57.0823 18.5292L53.3909 20.6602C53.12 20.8166 53.0271 21.1626 53.1836 21.4335C53.3406 21.7049 53.6855 21.7961 53.9569 21.6408L57.3642 19.6735L61.1715 21.8857L35.5356 36.6879L31.7272 34.475L49.6563 24.1238C49.9272 23.9674 50.0201 23.6213 49.8636 23.3505C49.7061 23.0785 49.3595 22.9873 49.0903 23.1432L30.3149 33.983C30.1379 34.0855 30.0324 34.274 30.0319 34.4728L30.0321 34.4739L30.0319 34.475L30.133 70.1116ZM31.264 69.7838L31.1667 35.4584L34.9724 37.6696C34.9728 37.8117 35.0582 67.7313 35.0704 71.9955L31.264 69.7838ZM36.203 71.9993C36.1873 66.5143 36.1266 45.2526 36.105 37.6702L61.7366 22.8721L61.835 57.1994L36.203 71.9993Z" fill="black"/>
<path d="M59.289 55.4322C59.2893 55.3055 59.2103 28.4117 59.2094 28.2259C59.2088 28.0241 59.1005 27.8373 58.9252 27.7367C58.75 27.6355 58.535 27.6372 58.3598 27.7372L38.9337 38.9563C38.7579 39.058 38.6501 39.2454 38.6507 39.4482L38.7303 66.6518C38.7308 66.8535 38.8392 67.0398 39.0139 67.141C39.186 67.2401 39.4022 67.2425 39.5794 67.1404L59.0059 55.9214C59.1822 55.8194 59.2885 55.6313 59.289 55.4322ZM43.54 42.0745L44.6068 41.457C44.7212 41.3846 44.9202 41.4255 45.1541 41.5637C45.8464 41.9736 46.4473 43.0021 46.4509 43.7875C46.4426 44.112 46.3519 44.2761 46.2701 44.322L45.2066 44.9356C45.206 44.9297 45.2047 44.9263 45.2041 44.9205C45.1021 43.8833 44.4422 42.6885 43.54 42.0745ZM43.9134 44.3709C44.0065 44.6183 44.0734 44.9067 44.0734 45.1744C44.0734 45.2546 44.0664 45.323 44.0544 45.3811C44.037 45.4356 44.0153 45.5085 44.001 45.5656C43.9929 45.5852 43.9878 45.6008 43.9755 45.6266L43.9573 45.6448C43.9247 45.6774 43.9114 45.6896 43.8954 45.7001C43.8916 45.7026 43.8899 45.7067 43.8861 45.7093L43.8816 45.7056C43.7832 45.7686 43.5803 45.7272 43.3481 45.5895C43.1346 45.4669 42.9365 45.2701 42.7509 45.0432L43.9134 44.3709ZM42.0585 43.3519C42.0585 42.4787 42.7125 42.7182 43.2884 43.3558C43.302 43.3693 43.311 43.3898 43.3242 43.4039L42.1949 44.0568C42.1132 43.8144 42.0585 43.5731 42.0585 43.3519ZM41.7506 45.6217C42.0491 46.0226 42.4028 46.352 42.7788 46.5679C43.1199 46.7691 43.4648 46.8692 43.7793 46.8692C44.0303 46.8692 44.2619 46.8056 44.4576 46.6796C44.4676 46.6747 44.4927 46.6592 44.5173 46.6439L44.5233 46.642C44.5336 46.635 44.5436 46.628 44.5534 46.621C44.6973 46.5379 46.9756 45.2219 46.8301 45.306C47.102 45.1534 47.5619 44.7554 47.5829 43.8057C47.5829 43.8019 47.5829 43.7974 47.5829 43.7936C47.5829 43.3633 47.4737 42.8939 47.2748 42.4322L48.0139 42.0056C48.3145 42.4119 48.6691 42.7443 49.0483 42.9622C49.582 43.2624 50.2224 43.372 50.7498 43.0562C50.7559 43.0524 50.7703 43.0425 50.7822 43.0343L53.0902 41.6836C53.3572 41.5338 53.8121 41.1414 53.8541 40.1956C53.8547 40.1873 53.8547 40.179 53.8547 40.1707C53.8547 39.7458 53.7454 39.2803 53.5465 38.82L54.478 38.2804L54.5022 46.4626L52.9633 47.3491C52.6722 46.986 52.3369 46.6813 51.9813 46.4701C51.376 46.1285 50.7619 46.0942 50.2992 46.3717C49.7218 46.7074 51.0268 45.9472 47.8921 47.7752C47.4557 48.0476 47.2026 48.5563 47.1866 49.2389C47.1866 49.644 47.286 50.093 47.4589 50.524L46.6899 50.9665C46.4125 50.6104 46.0851 50.3087 45.7306 50.0985C45.1248 49.7408 44.52 49.6999 44.0258 49.9835C43.4367 50.3276 42.2585 51.0158 41.6694 51.3599C41.1973 51.6236 40.9265 52.1708 40.9265 52.8612C40.9265 53.2755 41.024 53.7177 41.1958 54.1396L39.8282 54.928L39.8043 46.7473L41.7506 45.6217ZM49.8001 38.4582L50.8741 37.8375C50.9581 37.7877 51.1472 37.7905 51.4197 37.9436C52.1305 38.3557 52.7159 39.3986 52.7226 40.1586C52.7055 40.4875 52.612 40.6538 52.5275 40.7014L51.4706 41.3199C51.4689 41.2979 51.4584 41.2743 51.4563 41.2521C51.3606 40.2607 50.7161 39.0872 49.8001 38.4582ZM50.1701 40.7609C50.1723 40.7667 50.1759 40.7725 50.1781 40.7783C50.1984 40.832 50.2317 40.8857 50.248 40.9389C50.4842 41.7175 50.3526 42.3976 49.6083 41.9783C49.3993 41.858 49.1934 41.6651 49.0057 41.4331L50.1701 40.7609ZM48.3187 39.7429C48.3385 38.8734 48.9544 39.0654 49.5342 39.718C49.5578 39.7436 49.5673 39.7644 49.5893 39.7894L48.462 40.4401C48.3766 40.1915 48.3187 39.9499 48.3187 39.7429ZM48.3187 49.2522C48.3389 48.3734 48.9654 48.5888 49.548 49.2422C49.5643 49.2585 49.575 49.28 49.5908 49.297L48.4594 49.9481C48.3757 49.7021 48.3187 49.4602 48.3187 49.2522ZM50.1786 50.2645C50.5073 51.1044 50.413 51.9445 49.6044 51.4738C49.3998 51.3585 49.1939 51.1679 49.0065 50.9392L50.1786 50.2645ZM51.4684 50.832C51.4661 50.8033 51.4549 50.7742 51.4518 50.7454C51.3936 50.1982 51.2217 49.6862 50.9056 49.166C50.6453 48.7392 50.2846 48.3226 49.8604 48.0199C49.8401 48.0052 49.821 47.9821 49.8006 47.9681L50.8741 47.3468C51.2539 47.1215 52.0119 47.895 52.3147 48.3832C52.618 48.8965 52.9544 49.9697 52.5269 50.2113L51.4684 50.832ZM42.0585 52.8612C42.0585 51.9626 42.712 52.2709 43.3235 52.9129L42.196 53.5629C42.1135 53.3222 42.0585 53.0835 42.0585 52.8612ZM43.9133 53.8792C44.1915 54.6074 44.1784 55.5911 43.3481 55.0989C43.1337 54.9757 42.9347 54.7774 42.7504 54.5497L43.9133 53.8792ZM45.2066 54.4449C45.206 54.4391 45.2047 54.4359 45.2041 54.4301C45.1814 54.1979 45.0404 53.4605 44.6488 52.8148C44.6473 52.8121 44.6454 52.8098 44.6438 52.8071L44.6433 52.8054L44.6414 52.8033C44.3484 52.2765 43.8896 51.8208 43.5355 51.5805L44.5935 50.963C44.7146 50.8939 44.9197 50.9343 45.1541 51.073C45.867 51.495 46.4476 52.5462 46.4509 53.2968C46.4426 53.6213 46.3525 53.7855 46.2701 53.8313L45.2066 54.4449ZM39.832 56.2322L41.7501 55.1264C42.0445 55.525 42.402 55.8608 42.7788 56.0773C43.3368 56.4066 43.9762 56.4988 44.5233 56.1513C44.5365 56.1427 44.549 56.1338 44.5612 56.1249L46.8289 54.8158C47.102 54.6638 47.5619 54.2658 47.5829 53.3151C47.5829 53.3112 47.5829 53.3068 47.5829 53.3029C47.5829 52.8651 47.4709 52.393 47.2705 51.9386L48.0134 51.5109C48.3147 51.9145 48.6733 52.2488 49.0417 52.4561C49.7011 52.839 50.3103 52.8233 50.7448 52.5683L53.0902 51.193C53.7652 50.8143 54.1645 49.7565 53.5461 48.3194L54.506 47.7664L54.5215 52.9882L39.8473 61.4601L39.832 56.2322ZM55.6534 52.9884L55.6361 47.1155L56.7976 46.4463C57.0685 46.2904 57.1619 45.9444 57.0055 45.6736C56.8501 45.4032 56.5047 45.3093 56.2327 45.4657L55.6322 45.8116L55.6081 37.6256L56.7987 36.9359C57.0696 36.7795 57.1619 36.4329 57.0049 36.1626C56.8485 35.8928 56.5024 35.8 56.2316 35.9564L55.6043 36.3198L55.5876 30.6481L58.0801 29.207L58.1539 54.4446C58.0373 54.3768 55.4917 52.8942 55.6534 52.9884ZM54.4573 31.2991L54.4741 36.9746L52.9684 37.8469C52.6778 37.4762 52.3403 37.1685 51.9813 36.9608C51.376 36.6192 50.7619 36.5849 50.2992 36.8624C50.2365 36.8987 48.4959 37.9133 47.8948 38.2637C47.4565 38.5358 47.2026 39.0455 47.1866 39.7296C47.1866 40.1351 47.2846 40.5791 47.4615 41.0176L46.6737 41.4724C46.3966 41.1168 46.0845 40.7992 45.7306 40.5892C44.9003 40.0983 44.2978 40.3166 44.0275 40.4847C43.8643 40.5792 41.8357 41.7547 41.6683 41.8506C41.1968 42.1148 40.9265 42.6621 40.9265 43.3519C40.9265 43.7685 41.0232 44.2108 41.1946 44.6352L39.8005 45.4412L39.7839 39.7727L54.4573 31.2991ZM39.8519 62.7647L55.0874 53.969C55.2039 54.0369 57.7563 55.5231 57.5946 55.4289L39.8596 65.6712L39.8519 62.7647Z" fill="black"/>
<path d="M51.7757 21.5927L50.684 22.2229C50.4131 22.3793 50.3202 22.7253 50.4767 22.9962C50.6346 23.2689 50.9818 23.3584 51.25 23.2035L52.3417 22.5733C52.6126 22.4169 52.7055 22.0709 52.549 21.8C52.392 21.5291 52.0449 21.4357 51.7757 21.5927Z" fill="black"/>
</svg>
