<svg width="93" height="92" viewBox="0 0 93 92" fill="none" xmlns="http://www.w3.org/2000/svg">
<rect x="0.5" width="92" height="92" rx="46" fill="white"/>
<path d="M60.5967 59.4751L59.1467 60.3175C58.8764 60.4745 58.7841 60.8206 58.9417 61.0909C59.0997 61.3637 59.4477 61.452 59.715 61.2959L61.1649 60.4535C61.4352 60.2965 61.5275 59.9505 61.37 59.6802C61.2125 59.4082 60.8642 59.317 60.5967 59.4751Z" fill="black"/>
<path d="M26.9059 34.7695L26.8318 65.8286C26.8312 66.031 26.939 66.2183 27.1148 66.3201L38.8479 73.0943C39.025 73.1963 39.2412 73.194 39.4134 73.0948C39.414 73.0945 39.4142 73.0937 39.4149 73.0934C39.4147 73.0935 39.4151 73.0932 39.4149 73.0934L58.0241 62.2787C58.2939 62.1218 58.3862 61.7752 58.2286 61.5049C58.0711 61.234 57.724 61.1434 57.4548 61.3003L39.6998 71.6189L39.7116 67.4577L65.0333 52.7425L65.0216 56.9036L62.2965 58.4873C62.0262 58.6443 61.9339 58.9909 62.0914 59.2606C62.2478 59.5315 62.5955 59.6227 62.8647 59.4657L65.8707 57.7189C66.0448 57.6183 66.1521 57.4326 66.1526 57.2314C66.1604 54.4267 66.1678 51.6405 66.1681 51.7567C66.1676 51.5579 66.062 51.3694 65.8851 51.267L58.3702 46.9281L58.3795 44.1372L63.2268 41.3204C63.3502 41.249 63.4963 41.0469 63.5073 40.8367C63.5073 40.8347 63.5087 40.8332 63.5087 40.8312V40.8282C63.5107 40.3116 63.521 37.6881 63.5203 37.8562C63.5209 37.6533 63.4131 37.4654 63.2373 37.3637C63.0615 37.262 62.8443 37.262 62.6696 37.3648L60.4037 38.6815L58.3932 37.5212L58.4025 33.781L63.2257 30.9781C63.3143 30.9267 63.3842 30.8526 63.4328 30.7662C63.4882 30.6776 63.5228 30.577 63.5225 30.469C63.5225 30.4487 63.5094 30.4322 63.5073 30.4123L63.5153 27.5155C63.5159 27.3126 63.4081 27.1253 63.2323 27.0235C63.0565 26.9224 62.8404 26.9213 62.6646 27.0247L60.4008 28.3402L58.415 27.1937L58.426 21.6666C58.4265 21.4638 58.3182 21.2764 58.143 21.1752C58.1414 21.1743 58.1396 21.1747 58.1381 21.1739L54.21 18.9061C54.0342 18.8044 53.8181 18.8044 53.6423 18.9072L27.1872 34.2814C27.0323 34.3715 26.9062 34.6557 26.9059 34.7695ZM28.0357 35.7499L30.8365 37.3669C30.8325 39.1206 30.7791 62.7822 30.7786 62.6275C30.7792 62.8339 30.8907 63.0183 31.0616 63.1173L38.5793 67.4578L38.5677 71.625L27.9644 65.5036L28.0357 35.7499ZM39.1456 66.4774C39.0308 66.4111 32.031 62.3696 32.4739 62.6253L57.8013 47.9067L64.4727 51.759L39.1456 66.4774ZM37.0542 44.8679L37.0592 43.2142L60.4024 29.6485L61.8272 30.4712L37.0542 44.8679ZM57.2917 22.65L57.2829 27.1814L31.9598 41.8977L31.9687 37.3663L56.7715 22.9522L57.2917 22.65ZM57.2381 46.9239L31.9151 61.6386L31.9322 54.1989C37.7841 57.6215 35.7666 56.4439 36.204 56.6958C36.3747 56.7941 36.5922 56.7985 36.7706 56.6941L57.2452 44.7963L57.2381 46.9239ZM62.3777 40.4935C58.2354 42.8998 43.1728 51.6499 37.0564 55.203L37.0625 53.5544C37.234 53.4547 35.6011 54.4035 62.3844 38.8407L62.3777 40.4935ZM36.2134 52.7385C36.0393 52.8391 35.9321 53.0248 35.9315 53.2255L35.9241 55.1937L32.5109 53.2257L57.8426 38.5103L59.275 39.3374L36.2134 52.7385ZM57.2607 37.5347C56.1329 38.19 60.7795 35.49 31.9366 52.2498L31.956 43.8731C32.1321 43.9759 36.0383 46.2584 36.2024 46.3534C36.3761 46.4535 36.5923 46.4557 36.7701 46.3523L57.269 34.4397L57.2607 37.5347ZM62.3805 28.4989L62.3779 29.4817L61.5308 28.9927L62.3805 28.4989ZM36.2096 42.3989C36.036 42.4995 35.9287 42.6852 35.9282 42.8864L35.9223 44.8553L32.5211 42.8904L57.842 28.1699L59.2726 28.996L36.2096 42.3989ZM53.9281 20.0503L56.729 21.6677L45.409 28.2463L31.4018 36.3858L28.6013 34.769L53.9281 20.0503Z" fill="black"/>
</svg>
