<svg width="93" height="92" viewBox="0 0 93 92" fill="none" xmlns="http://www.w3.org/2000/svg">
<rect x="0.5" width="92" height="92" rx="46" fill="white"/>
<path d="M19.382 51.7135C19.3826 51.9141 19.4898 52.0999 19.6634 52.2005C26.3603 56.0922 14.0562 48.9417 48.8668 69.1716C49.0408 69.2718 49.2564 69.2721 49.4318 69.1711L73.3878 55.3402C73.5636 55.2385 73.6713 55.0511 73.6708 54.8477L73.6199 40.2866C73.6195 40.1386 73.4883 39.8867 73.3386 39.7996L73.3359 39.7981L55.316 29.3257C55.0463 29.1693 54.6991 29.2594 54.5421 29.5302C54.3846 29.8005 54.4769 30.1471 54.7467 30.3041L71.9246 40.2871L49.0992 53.4655C44.651 50.8806 27.1865 40.7315 21.0265 37.1518L43.8521 23.9732L49.387 27.1892C49.6562 27.3468 50.0028 27.255 50.1603 26.9841C50.3179 26.7144 50.2255 26.3678 49.9552 26.2108L44.1373 22.8301C43.9621 22.7273 43.7454 22.7284 43.5702 22.829L19.6142 36.6599C19.414 36.7759 19.3315 37.0172 19.3312 37.1496C19.3312 37.1501 19.3315 37.1505 19.3315 37.151C19.3315 38.6412 19.3124 31.7641 19.382 51.7135ZM72.5121 47.2431L49.6863 60.4215C49.6859 60.3075 49.6778 57.9619 49.6782 58.0759L72.5039 44.9042L72.5121 47.2431ZM48.5542 60.4222L20.4875 44.1117L20.4793 41.7657L48.5461 58.0763L48.5542 60.4222ZM20.4921 45.4237L48.5587 61.7342L48.5668 64.0581L20.5003 47.7477L20.4921 45.4237ZM49.6908 61.7263L72.5167 48.5479L72.5249 50.8862L49.6989 64.0649L49.6908 61.7263ZM72.4993 43.5996L49.6737 56.7712L49.6656 54.446L72.4912 41.2674L72.4993 43.5996ZM48.5335 54.446L48.5392 56.0794L48.5415 56.7644L20.4747 40.4538L20.4666 38.1358C26.4706 41.6248 41.8488 50.5614 48.5335 54.446ZM20.5048 49.0596L48.5712 65.37L48.5793 67.6951L20.513 51.3851L20.5048 49.0596ZM49.7115 67.7024L49.7034 65.3697L72.5295 52.1911L72.5376 54.5238L49.7115 67.7024Z" fill="black"/>
<path d="M51.2282 28.2594L52.7401 29.1383C53.0111 29.2956 53.3572 29.2036 53.514 28.9338C53.6715 28.6635 53.5797 28.3169 53.3094 28.1599L51.7976 27.281C51.5273 27.1245 51.1807 27.2152 51.0237 27.4855C50.8662 27.7558 50.9579 28.1024 51.2282 28.2594Z" fill="black"/>
<path d="M31.5839 40.2573L48.617 30.4235C48.8879 30.267 48.9807 29.921 48.8243 29.6502C48.6668 29.3787 48.3202 29.2864 48.051 29.4429L31.0179 39.2767C30.747 39.4331 30.6542 39.7791 30.8106 40.05C30.9674 40.3216 31.3145 40.4129 31.5839 40.2573Z" fill="black"/>
<path d="M36.027 42.8393L53.0601 33.0055C53.331 32.8491 53.4239 32.503 53.2674 32.2322C53.1104 31.9608 52.7639 31.8679 52.4941 32.0249L35.461 41.8587C35.1902 42.0151 35.0973 42.3612 35.2537 42.632C35.4106 42.9036 35.7576 42.9949 36.027 42.8393Z" fill="black"/>
<path d="M56.9306 34.603L39.8975 44.4373C39.6267 44.5938 39.5338 44.9398 39.6902 45.2106C39.8471 45.4822 40.1942 45.5735 40.4636 45.4179L57.4967 35.5836C57.7675 35.4271 57.8604 35.0811 57.704 34.8103C57.547 34.5388 57.2004 34.446 56.9306 34.603Z" fill="black"/>
<path d="M44.3872 27.0715C44.2302 26.8006 43.8836 26.7083 43.6139 26.8642L26.5808 36.698C26.3099 36.8544 26.217 37.2005 26.3735 37.4713C26.5303 37.7429 26.8774 37.8342 27.1468 37.6786L44.1799 27.8448C44.4507 27.6884 44.5436 27.3423 44.3872 27.0715Z" fill="black"/>
<path d="M61.3678 37.1817L44.3347 47.0155C44.0638 47.1719 43.9709 47.518 44.1274 47.7888C44.2842 48.0604 44.6313 48.1517 44.9007 47.9961L61.9338 38.1623C62.2047 38.0059 62.2975 37.6598 62.1411 37.389C61.9835 37.1176 61.637 37.0258 61.3678 37.1817Z" fill="black"/>
<path d="M48.5645 50.3675C48.7214 50.6391 49.0684 50.7304 49.3378 50.5748L66.3704 40.7404C66.6412 40.584 66.7341 40.238 66.5777 39.9671C66.4207 39.6951 66.0735 39.6039 65.8043 39.7598L48.7718 49.5942C48.5009 49.7506 48.4081 50.0966 48.5645 50.3675Z" fill="black"/>
</svg>
