<svg width="93" height="92" viewBox="0 0 93 92" fill="none" xmlns="http://www.w3.org/2000/svg">
<rect x="0.5" width="92" height="92" rx="46" fill="white"/>
<path d="M21.9973 40.2105C21.9978 40.4112 22.1051 40.5969 22.2786 40.6975L24.3967 41.9285C24.3943 44.1051 24.4055 34.0436 24.3731 63.2158C24.3714 63.4203 24.4798 63.6094 24.6567 63.7111C24.7724 63.7777 25.5226 64.2096 27.6455 65.4318C27.8182 65.5313 28.0321 65.5339 28.2093 65.4329C29.6058 64.6257 31.3092 63.6411 31.1882 63.7111C31.3623 63.6105 31.4696 63.4258 31.4712 63.2252L31.4866 61.1429L37.7517 64.7836L37.7087 70.87C37.707 71.0734 37.8148 71.2619 37.9912 71.3636C38.2805 71.5313 36.9112 70.7378 40.9794 73.0955C41.1577 73.1986 41.3733 73.1952 41.5444 73.0971C41.5451 73.0967 41.5453 73.0959 41.546 73.0955C41.5467 73.0951 41.5476 73.0953 41.5482 73.0949L44.526 71.3631C44.699 71.2625 44.8057 71.0778 44.8074 70.8777L44.8504 64.8315L61.5313 55.1999L61.5166 57.069C61.5149 57.2729 61.6232 57.462 61.8001 57.5637C61.9159 57.6304 62.5887 58.0177 64.789 59.2845C64.9654 59.3861 65.1794 59.3844 65.3528 59.2856C65.3533 59.2853 65.3535 59.2846 65.354 59.2843C65.3545 59.2841 65.3551 59.2842 65.3555 59.2839L68.3212 57.5631C68.4942 57.4625 68.6014 57.2785 68.6031 57.0784C68.7131 44.686 68.6165 45.0184 68.627 35.2896L70.7329 34.0737C70.9087 33.972 71.0165 33.784 71.0159 33.5812L71.0027 29.9378C71.0023 29.824 70.8739 29.5396 70.7213 29.4509L70.7187 29.4493L52.5749 18.9051C52.3986 18.8028 52.1825 18.8028 52.0072 18.904L46.5359 22.0631C46.265 22.2195 46.1722 22.5655 46.3286 22.8364C46.485 23.1072 46.8311 23.1985 47.1019 23.0437L52.2891 20.0482L69.3072 29.9384L40.6973 46.4561C34.5901 42.9071 30.0971 40.2961 23.6794 36.5667L42.7185 25.5743C42.9893 25.4178 43.0822 25.0718 42.9257 24.8009C42.7682 24.529 42.4216 24.4367 42.1524 24.5937L22.267 36.0747C22.0668 36.1907 21.9843 36.4321 21.984 36.5645C21.9838 36.6785 21.9971 40.3245 21.9973 40.2105ZM41.8976 65.2284C41.8972 65.1122 41.8737 57.8963 41.8751 58.345L67.5127 43.543L67.5274 50.4307C48.5316 61.3982 59.7188 54.9392 41.8976 65.2284ZM41.8714 57.0397L41.8534 50.7547L67.4964 35.9437L67.5099 42.2372L41.8714 57.0397ZM23.12 37.5506L40.1315 47.4369L40.1398 49.7685C40.0263 49.7025 21.9827 39.2141 23.1282 39.8816L23.12 37.5506ZM40.7097 51.3201C40.7101 51.3201 40.7105 51.3198 40.7109 51.3198C40.7152 51.3199 40.7185 51.3228 40.7227 51.3228C40.7254 52.7434 40.7131 46.1769 40.7488 65.2156C38.1004 63.6765 28.2186 57.9339 25.5721 56.3958L25.5306 42.5874C41.0612 51.6163 40.4642 51.3201 40.7097 51.3201ZM25.5538 57.6953L27.4155 58.7771C27.4145 58.8911 27.3675 64.2835 27.3702 63.9675L25.5079 62.8952L25.5538 57.6953ZM30.3414 62.893L28.5028 63.9554L28.5421 59.4332L30.3596 60.4884L30.3414 62.893ZM38.8789 65.4386C38.9935 65.5053 40.8576 66.59 40.7397 66.5214C40.7389 66.6376 40.7018 71.9667 40.7042 71.6273L38.843 70.5488L38.8789 65.4386ZM43.6775 70.5472L41.8368 71.6174L41.8727 66.5509L43.7134 65.488L43.6775 70.5472ZM62.6685 54.5433L64.5529 53.4552C64.5448 54.3679 64.5122 58.0222 64.514 57.82L62.6514 56.7478L62.6685 54.5433ZM67.4738 56.7456L65.6463 57.8064C65.6637 55.8668 65.6929 52.6033 65.6911 52.8054L67.5191 51.7447L67.4738 56.7456ZM41.2724 49.7757C41.2719 49.632 41.2631 47.289 41.2636 47.4364L69.8739 30.9187L69.8827 33.2572L41.2724 49.7757Z" fill="black"/>
<path d="M44.3923 24.608L45.6731 23.869C45.9439 23.7125 46.0368 23.3665 45.8803 23.0957C45.7234 22.8253 45.3768 22.7325 45.107 22.8884L43.8262 23.6274C43.5554 23.7839 43.4625 24.1299 43.619 24.4007C43.724 24.5821 43.9141 24.6838 44.1098 24.6838C44.206 24.6838 44.3033 24.6594 44.3923 24.608Z" fill="black"/>
<path d="M55.8053 53.0707L53.0067 54.6865C52.7358 54.8429 52.6429 55.189 52.7994 55.4598C52.9562 55.7314 53.3033 55.8227 53.5727 55.6671L56.3714 54.0514C56.6422 53.8949 56.7351 53.5489 56.5787 53.278C56.4217 53.0061 56.0751 52.9132 55.8053 53.0707Z" fill="black"/>
<path d="M55.8053 45.0191L53.0067 46.6349C52.7358 46.7913 52.6429 47.1373 52.7994 47.4082C52.9562 47.6798 53.3033 47.7711 53.5727 47.6155L56.3714 45.9997C56.6422 45.8433 56.7351 45.4972 56.5787 45.2264C56.4217 44.9544 56.0751 44.8616 55.8053 45.0191Z" fill="black"/>
</svg>
