<svg width="93" height="92" viewBox="0 0 93 92" fill="none" xmlns="http://www.w3.org/2000/svg">
<rect x="0.5" width="92" height="92" rx="46" fill="white"/>
<path d="M58.2928 48.0469L54.7946 40.6589C55.2399 40.0062 55.4771 39.2976 55.4792 38.5625L55.5633 32.1957C55.5644 32.1713 55.5644 32.147 55.5644 32.1227C55.5644 32.1179 55.5617 32.1139 55.5617 32.1091C55.5568 30.587 54.5681 29.1795 52.7806 28.1472C52.3224 27.8792 51.8075 27.6511 51.2638 27.4521L49.1423 20.4648C49.1423 20.4647 49.1423 20.4648 49.1423 20.4648C49.0835 19.9841 48.7864 19.5598 48.2689 19.2663C47.2927 18.6959 45.7626 18.697 44.7909 19.263C44.2749 19.556 43.9792 19.9927 43.9316 20.4763L41.814 27.4322C41.2578 27.6401 40.7299 27.8746 40.2548 28.1461C38.5067 29.1617 37.5395 30.5422 37.5193 32.0363C37.5186 32.0464 37.5132 32.055 37.5131 32.0652L37.4279 38.505C37.4256 39.3127 37.7073 40.0859 38.2313 40.7902L34.7923 48.069C34.5336 48.6461 34.4032 49.273 34.4032 49.9264L34.2794 65.8583C34.2794 67.8848 35.5938 69.7554 37.9807 71.1262C42.6658 73.8366 50.2772 73.8434 54.9519 71.1262C57.3089 69.7565 58.6068 67.9058 58.6068 65.918C58.6322 62.3688 58.7207 49.8248 58.7207 49.9872C58.7207 49.326 58.5902 48.7147 58.3216 48.1199C58.3139 48.0956 58.3039 48.0701 58.2928 48.0469ZM52.2495 41.4531C49.0642 43.3545 43.7996 43.2488 40.7711 41.5021C39.6615 40.8613 38.5562 39.8014 38.56 38.5138L38.6098 34.7263C38.6111 34.7278 38.6132 34.7292 38.6145 34.7307C39.0474 35.2114 39.737 35.734 40.2902 36.054C42.0237 37.0545 44.2956 37.5542 46.5641 37.5542C48.8338 37.5542 51.1013 37.0545 52.8237 36.054C53.3225 35.7642 53.9051 35.3295 54.3294 34.8913C54.3499 34.8702 54.3769 34.8515 54.3969 34.8302L54.3472 38.5536C54.3433 39.8053 53.3267 40.8025 52.2495 41.4531ZM44.6936 21.8622C45.6864 22.4916 47.2696 22.5526 48.3839 21.8644C48.8952 23.549 51.3013 31.4765 51.1488 30.974C51.1521 30.984 51.1555 30.9939 51.1588 31.0039C51.1626 31.7075 51.2782 32.3003 49.998 33.0447C48.1042 34.137 45.0086 34.1381 43.1016 33.0447C42.5078 32.7031 41.8523 32.0682 41.8523 31.3754C41.8523 31.2239 41.8822 31.0647 41.9529 30.8734C41.9875 30.7599 44.8779 21.256 44.6936 21.8622ZM45.3558 20.2436C45.9931 19.8728 47.0632 19.8735 47.704 20.247C48.1263 20.487 48.1511 20.7028 47.7103 20.9459C47.7091 20.9466 47.7085 20.9472 47.7073 20.9479C47.2137 21.2413 46.0836 21.3656 45.3624 20.9435C44.9723 20.7205 44.9119 20.4976 45.3558 20.2436ZM40.8197 29.1267C41.0013 29.0239 41.1907 28.9246 41.3883 28.8304L40.875 30.5163C40.7711 30.8005 40.718 31.089 40.718 31.3731C40.718 34.5799 46.8471 36.1615 50.5739 34.0253C52.958 32.6207 52.2569 30.8403 52.261 30.7242C52.2389 30.6083 52.4043 31.1709 51.6874 28.8472C51.8692 28.935 52.0436 29.028 52.2113 29.1256C53.6407 29.9503 54.429 31.0127 54.4301 32.1161C54.4309 33.3889 53.3769 34.4198 52.2577 35.0701C49.1224 36.892 44.0092 36.8887 40.8562 35.0701C39.7233 34.416 38.6487 33.3939 38.6474 32.0862C38.6463 30.9928 39.419 29.9415 40.8197 29.1267ZM54.3836 70.1467C50.0278 72.6784 42.9258 72.6795 38.5456 70.1456C36.5247 68.9848 35.4114 67.4625 35.4114 65.8627L35.5353 49.9308C35.5353 49.4322 35.6325 48.9623 35.8326 48.5079L39.063 41.679C39.3936 41.9698 39.7739 42.2395 40.2006 42.4849C43.7273 44.5114 49.2373 44.5125 52.7463 42.4816C52.9549 42.3592 53.5704 41.9508 53.9566 41.6042C53.9638 41.5976 53.9729 41.5917 53.9801 41.585L57.2426 48.4748C57.2492 48.4969 57.2581 48.519 57.268 48.54C57.4836 48.9999 57.5886 49.472 57.5886 49.9849C57.4849 64.4962 57.6598 40.0282 57.4747 65.9147C57.4747 67.4857 56.3769 68.9881 54.3836 70.1467Z" fill="black"/>
<path d="M53.0106 46.529C49.3943 44.4417 43.5305 44.4417 39.9386 46.529C38.0935 47.6014 37.0797 49.0596 37.0819 50.635C37.0819 50.653 37.0861 50.6705 37.0863 50.6885V65.1342C37.0863 65.1939 37.0963 65.2514 37.114 65.3055C37.3019 66.7096 38.2881 67.9677 39.9729 68.9516C43.586 71.0434 49.4599 71.0436 53.0625 68.9505C54.8458 67.9113 55.8485 66.5062 55.8994 64.9838C55.9253 64.8702 55.9079 65.812 55.9126 50.666C55.9126 50.6579 55.9084 50.6513 55.9081 50.6434C55.8994 49.0637 54.872 47.6024 53.0106 46.529ZM40.5069 47.5085C42.1464 46.5555 44.3044 46.0791 46.4658 46.0791C48.6282 46.0791 50.7928 46.5555 52.4445 47.5085C53.947 48.3764 54.775 49.4952 54.7772 50.6604C54.7779 51.3747 54.4653 52.0709 53.8779 52.7012C53.6446 52.951 53.367 53.1903 53.049 53.4171C53.0366 53.4259 53.0264 53.4355 53.0138 53.4442C49.8123 55.6783 44.0282 55.7912 40.5389 53.7769C37.4398 51.9834 37.4532 49.2828 40.5069 47.5085ZM54.7805 64.7506C54.7728 64.787 54.7695 64.8235 54.7695 64.8622C54.7695 66.012 53.9602 67.1175 52.4932 67.9721C49.202 69.8825 43.839 69.8803 40.5412 67.9732C39.1581 67.1651 38.3356 66.1369 38.2261 65.0756C38.225 65.0579 38.2217 65.0402 38.2184 65.0236V53.3723C38.2206 53.3747 38.2237 53.3768 38.2258 53.3792C38.6801 53.8827 39.3946 54.4226 39.9729 54.7565C43.5732 56.8392 49.3986 56.8451 53.0008 54.7846C53.0194 54.774 53.0418 54.7672 53.0603 54.7565C53.0603 54.7565 53.0601 54.7565 53.0625 54.7554C53.0657 54.7535 53.0681 54.7513 53.0712 54.7494C53.644 54.4155 54.3417 53.8816 54.779 53.3948L54.7805 53.3933V64.7506Z" fill="black"/>
</svg>
