<svg width="93" height="92" viewBox="0 0 93 92" fill="none" xmlns="http://www.w3.org/2000/svg">
<rect x="0.5" width="92" height="92" rx="46" fill="white"/>
<path d="M25.1851 67.558C33.9098 72.6346 32.8616 72.0194 32.9847 72.0841C34.3408 72.7622 35.8778 73.1742 37.743 73.1742C41.5444 73.1742 45.8317 71.0949 47.1434 70.1439C47.56 69.8612 48.1568 69.5888 50.0587 68.1025C50.4121 68.4639 50.799 68.7856 51.2372 69.0395C53.2655 70.191 55.6866 71.5674 55.5654 71.4976C56.4388 72.0007 57.4249 72.2505 58.4863 72.2505C59.9754 72.25 61.615 71.7586 63.3009 70.7851C69.0276 67.4779 73.672 59.4323 73.6543 52.8505C73.6444 49.551 72.4902 47.0723 70.404 45.8717C70.3943 45.8661 70.3836 45.863 70.3738 45.8575C70.3541 45.8462 70.3342 45.8344 70.3145 45.8236L66.1079 43.4346C65.8385 43.2772 65.5566 43.1477 65.2662 43.0389C65.6746 40.9626 65.8859 38.9731 65.8746 37.1274C65.8635 31.1619 63.8227 26.6718 60.1501 24.4966C60.0228 24.4135 60.1583 24.4837 52.6976 20.1905C48.9078 17.9922 43.9019 18.4609 38.6031 21.515C36.4296 22.7714 34.3003 24.4109 32.275 26.3876C32.0516 26.606 32.0472 26.9647 32.2661 27.1881C32.4839 27.413 32.8421 27.4164 33.0665 27.198C35.0244 25.2865 37.0774 23.7039 39.1691 22.495C44.1021 19.6527 48.7044 19.1812 52.1294 21.1695L55.3686 23.0539C52.4776 22.8858 49.224 23.7819 45.8532 25.7315C35.198 31.8745 26.5604 46.8302 26.5969 59.0714C26.6135 62.8761 27.4482 66.0772 29.007 68.4651L25.7545 66.5791C22.3759 64.6085 20.5009 60.4472 20.4777 54.8637C20.4644 48.1812 23.0879 40.4623 27.6781 33.6853C27.8528 33.4266 27.7853 33.0745 27.5267 32.8993C27.268 32.7252 26.9175 32.7921 26.7406 33.0508C22.0266 40.0107 19.3313 47.9623 19.3456 54.867C19.3711 60.869 21.4451 65.3757 25.1851 67.558ZM27.7955 59.4414L36.2785 54.5437C36.3535 57.8907 36.7532 60.9851 37.4647 63.5633C35.6131 65.6622 33.9522 67.9721 32.5104 70.4373C29.0073 68.0635 27.8657 63.6771 27.7955 59.4414ZM37.3906 53.9017L45.62 49.1504V56.6441C43.0827 58.1612 40.659 60.159 38.3892 62.5715C37.7705 60.0616 37.4213 57.1102 37.3906 53.9017ZM27.8202 58.1198C28.0117 52.7886 29.7924 46.8812 32.9096 41.2993C34.2651 42.0027 35.7609 42.3832 37.3673 42.4356C36.6556 45.9753 36.2701 49.6827 36.2568 53.2488L27.8202 58.1198ZM41.8557 30.0768C40.0976 32.9098 38.6126 36.7785 37.5941 41.3198C36.0966 41.2972 34.7047 40.9724 33.4577 40.3338C35.6168 36.6455 38.483 32.9767 41.8557 30.0768ZM45.62 27.3397V38.9859C43.2158 40.3164 40.903 41.0755 38.7704 41.2599C40.2763 34.7385 42.8236 29.5867 45.62 27.3397ZM46.752 26.6002C47.7691 26.0847 48.7467 25.9912 49.664 26.3584C51.3433 27.0311 52.7965 29.1619 53.7794 32.3578C51.5904 34.7666 49.2167 36.786 46.752 38.3149V26.6002ZM38.5207 42.4278C40.7438 42.2927 43.1409 41.5765 45.62 40.2827V47.843L37.4052 52.5858C37.4604 49.2245 37.8367 45.7487 38.5207 42.4278ZM49.0088 56.3286C48.3099 58.4293 47.9991 60.5171 47.9991 62.0685C47.9991 63.5491 48.2651 65.1624 48.9293 66.4999C48.9498 66.5414 48.964 66.5892 48.9852 66.6299C48.2832 67.6113 47.5476 68.3965 46.752 69.0231V57.2911C47.5366 56.8517 48.3101 56.4672 49.0593 56.1627C49.0402 56.218 49.0275 56.2733 49.0088 56.3286ZM45.62 57.9889V69.7138C45.5672 69.7409 45.5118 69.7689 45.4543 69.7974C45.4527 69.798 45.4512 69.7984 45.4497 69.799C44.4625 70.2097 43.515 70.2058 42.6306 69.7835C41.0416 69.0238 39.6637 66.9188 38.7245 63.8577C40.887 61.4742 43.2037 59.5149 45.62 57.9889ZM54.9916 46.707C52.7785 48.8482 50.8555 51.7118 49.5913 54.7618C48.6736 55.074 47.7237 55.4862 46.752 55.9977V48.4968L55.1247 43.6629C55.1061 44.6849 55.0679 45.7053 54.9916 46.707ZM46.752 47.1894V39.6525C49.3374 38.1378 51.8369 36.1015 54.1418 33.6527C54.7665 36.1494 55.1066 39.1265 55.1374 42.3481L46.752 47.1894ZM54.653 31.3889C53.782 28.8322 52.2806 25.9668 49.6902 25.2019C52.7189 24.0568 56.1617 23.7082 59.0385 25.2223C57.7176 27.4528 56.2416 29.5228 54.653 31.3889ZM33.501 71.0775C33.4839 71.0686 33.4676 71.059 33.4505 71.0499C34.7405 68.8373 36.2251 66.7645 37.8559 64.851C38.8949 67.8986 40.3632 69.954 42.143 70.8045C42.3527 70.9049 42.5678 70.9648 42.782 71.0306C41.0338 71.6933 39.3425 72.0421 37.743 72.0421C36.129 72.0421 34.7314 71.6893 33.501 71.0775ZM72.5222 52.8538C72.5399 59.0741 68.1487 66.678 62.7349 69.8045C60.2098 71.2616 57.8649 71.5148 56.1292 70.5165C54.1275 69.3648 53.4527 66.8248 53.4527 64.5189C53.4339 58.2958 57.8229 50.6919 63.2401 47.5687C66.652 45.5911 68.3836 46.2936 69.8544 46.8641C71.5655 47.8587 72.5134 49.984 72.5222 52.8538ZM66.8353 45.1493C66.7388 45.1582 66.6381 45.183 66.5406 45.1959C65.3129 45.3565 64.008 45.8119 62.6685 46.5854C56.9418 49.892 52.2974 57.9376 52.3151 64.52C52.3195 65.9672 52.5485 67.4818 53.1656 68.8032C53.1713 68.8154 53.175 68.8295 53.1808 68.8416L51.801 68.0578C51.2659 67.7479 50.8153 67.3166 50.4352 66.7992C49.4622 65.4989 49.1356 63.6625 49.1356 62.0674C49.128 59.8567 49.7067 57.4745 50.5496 55.4231C50.5495 55.4233 50.5496 55.4229 50.5496 55.4231C50.5504 55.4211 50.551 55.4184 50.5518 55.4164C52.1356 51.4126 55.1985 47.2671 58.9612 45.1008C60.5633 44.1804 62.489 43.5276 64.2926 43.9337C64.736 44.0345 65.1565 44.1897 65.5429 44.4152L66.8353 45.1493ZM58.3925 44.1227C57.5481 44.6082 56.8182 45.1106 56.1853 45.6397C56.2329 44.7648 56.2639 43.8853 56.269 43.0022L64.7205 38.1227C64.6686 39.5905 64.4921 41.138 64.1776 42.7508C64.0422 42.7292 63.9029 42.7195 63.7645 42.7068C61.901 42.5351 60.0138 43.1883 58.3925 44.1227ZM64.7284 36.8107L56.2454 41.7084C56.1717 38.2942 55.7733 35.2444 55.0374 32.6458C56.8491 30.59 58.5249 28.2873 60.0077 25.7822C62.9822 27.8178 64.6517 31.6901 64.7284 36.8107Z" fill="black"/>
<path d="M30.3657 28.3859C29.7853 29.0365 29.2071 29.728 28.6455 30.4405C28.452 30.6865 28.494 31.0425 28.7394 31.2354C28.9839 31.4279 29.3394 31.3884 29.5343 31.1415C30.0816 30.4466 30.6454 29.7728 31.2103 29.1399C31.4182 28.906 31.3983 28.5484 31.165 28.3406C30.9306 28.1316 30.5724 28.1532 30.3657 28.3859Z" fill="black"/>
<path d="M67.345 50.3459C67.0443 50.3188 66.7944 50.5045 66.7314 50.7842C66.5998 51.3641 66.2538 51.8091 65.6734 52.144C65.0322 52.5144 64.109 52.7466 62.9283 52.8345C62.6881 52.852 62.4686 53.0529 62.4187 53.2728C62.286 53.8549 61.9389 54.301 61.3573 54.6365C60.7161 55.0068 59.793 55.2385 58.6134 55.3252C58.3171 55.3468 58.0883 55.5939 58.0894 55.8913L58.1192 66.463C58.1192 66.7902 58.4005 67.0509 58.7273 67.0257C60.6841 66.8819 62.7373 66.3337 63.4174 64.4924C64.6002 64.3707 65.5453 64.1143 66.2693 63.6964C67.1283 63.2 67.6656 62.4958 67.8657 61.6042C67.8745 61.5627 67.8789 61.5207 67.8789 61.4787L67.8491 50.9069C67.848 50.6189 67.6313 50.3774 67.345 50.3459ZM61.3872 65.2077C60.8598 65.5123 60.1424 65.7229 59.2491 65.8367L59.2225 56.4048C60.3292 56.2768 61.5346 55.9834 62.4096 55.2867L62.4339 63.9037C62.2913 64.4567 61.9486 64.8833 61.3872 65.2077ZM65.7032 62.7158C65.176 63.0203 64.4587 63.2313 63.5645 63.3453L63.5378 53.9134C64.6486 53.7846 65.5552 53.5198 66.2394 53.1247C66.4141 53.0241 66.5744 52.9152 66.7225 52.7974L66.7469 61.4146C66.6076 61.9651 66.2648 62.3913 65.7032 62.7158Z" fill="black"/>
</svg>
