<svg width="93" height="92" viewBox="0 0 93 92" fill="none" xmlns="http://www.w3.org/2000/svg">
<rect x="0.5" width="92" height="92" rx="46" fill="white"/>
<path d="M66.1906 26.3854C66.1887 26.3837 66.1883 26.381 66.1865 26.3793C66.1742 26.3683 66.1603 26.3591 66.148 26.3481C63.3275 23.8594 59.2382 21.8825 55.9911 23.7736L22.5219 43.2256C22.5159 43.2291 22.5092 43.231 22.5032 43.2344C20.4656 44.4063 19.3391 46.823 19.3303 50.0402C19.3126 56.4667 23.8475 64.3216 29.4393 67.5497C31.7963 68.9113 34.6259 69.5995 36.9847 68.2429C36.9845 68.243 36.9848 68.2429 36.9847 68.2429C36.9909 68.2396 36.9984 68.241 37.0046 68.2374L46.8361 62.5239C47.107 62.367 47.1988 62.0198 47.0418 61.7501C46.8837 61.477 46.5354 61.3875 46.2679 61.5444L39.3505 65.5642C39.3815 65.4967 39.4032 65.42 39.4326 65.3508C39.9627 64.098 40.1618 62.7666 40.1664 61.4118C40.1695 59.8104 39.889 58.1199 39.3799 56.4345C39.3794 56.433 39.3791 56.4314 39.3787 56.4299C39.3717 56.4067 39.3625 56.3836 39.3554 56.3604C38.2278 52.6685 36.0047 49.0144 33.2585 46.3747C41.207 41.7561 46.7594 38.5298 54.1786 34.2187C54.2117 34.2192 54.2445 34.2243 54.2776 34.2243C55.3499 34.2243 56.4223 33.9822 57.2548 33.4979L61.5675 30.9917C62.398 30.5094 62.8653 29.8511 62.9384 29.1267L65.744 27.4912C69.6769 31.1248 72.5468 36.9874 72.5378 41.9487C72.5278 44.749 71.6058 46.8219 69.9398 47.786L52.2246 58.0819C51.9537 58.2389 51.8619 58.586 52.0189 58.8558C52.1759 59.1266 52.5242 59.2162 52.7928 59.0614L70.508 48.7655C72.5356 47.5914 73.6588 45.1714 73.6699 41.952C73.6791 36.5769 70.4998 30.2111 66.1906 26.3854ZM56.5605 24.752C57.8468 24.0027 59.4903 23.976 61.2987 24.6396L58.6753 26.1627C57.5661 26.1481 56.4504 26.3869 55.5887 26.8879L51.276 29.3942C50.4526 29.8728 49.9888 30.5271 49.9152 31.2484L29.0192 43.3859C27.9672 42.8999 26.9442 42.6136 25.9759 42.5272L56.5605 24.752ZM47.2919 36.9105L44.8608 35.4938L47.5583 33.9271L49.9889 35.3434L47.2919 36.9105ZM43.459 39.1377L41.0232 37.7228L43.7351 36.1476L46.1665 37.5645L43.459 39.1377ZM39.6361 41.359L37.2037 39.9412L39.8959 38.3775L42.3319 39.7926L39.6361 41.359ZM35.7985 43.5888L33.3654 42.1705L36.0781 40.595L38.5107 42.0129L35.7985 43.5888ZM30.0054 66.5702C24.7264 63.5223 20.4446 56.1074 20.4623 50.0424C20.4701 47.2567 21.3896 45.1935 23.0497 44.2271C23.0517 44.226 23.0539 44.2262 23.0559 44.225L23.057 44.2239C24.9979 43.0929 27.5638 43.7752 29.499 44.9149C33.5196 47.2638 36.7952 51.9618 38.2217 56.5014C38.7425 58.1631 39.0356 59.8341 39.031 61.414C39.0247 63.6809 38.3847 66.1309 36.4197 67.2612C34.7338 68.2308 32.4553 67.9831 30.0054 66.5702ZM30.22 44.0277C30.2116 44.0227 30.2039 44.0166 30.1955 44.0116L32.2399 42.8243L34.6732 44.2427L32.3768 45.5771C32.3627 45.5651 32.3473 45.5549 32.3332 45.543C31.7077 45.0163 30.9828 44.481 30.22 44.0277ZM52.3716 33.9589L51.1144 34.6895L48.684 33.2733L50.155 32.4189C50.6039 33.19 51.5131 33.7004 52.3716 33.9589ZM60.9993 30.0122L56.6865 32.5184C55.3699 33.2862 53.1224 33.2564 51.8642 32.5162C51.863 32.5162 51.863 32.5151 51.8619 32.5151C50.7264 31.8489 50.7641 30.9999 51.8443 30.3737L56.157 27.8674C57.4881 27.0943 59.705 27.1178 60.9948 27.8608C61.1179 27.9319 61.2256 28.0084 61.3236 28.0871C62.1364 28.7585 61.9203 29.4779 60.9993 30.0122ZM62.6918 27.9603C62.6851 27.9485 62.6722 27.9385 62.6652 27.9268C62.2263 27.1935 61.4352 26.7487 60.6355 26.4848C60.5823 26.4672 60.5395 26.4375 60.4852 26.4214L62.5666 25.2129C63.3757 25.6366 64.1147 26.1306 64.8333 26.7121L62.6918 27.9603Z" fill="black"/>
<path d="M50.5221 59.0713L48.426 60.2897C48.1551 60.4466 48.0633 60.7938 48.2203 61.0635C48.3774 61.3347 48.725 61.4254 48.9942 61.2692L51.0903 60.0509C51.3612 59.8939 51.4529 59.5467 51.296 59.277C51.1379 59.0039 50.7896 58.9144 50.5221 59.0713Z" fill="black"/>
<path d="M28.6544 46.383C24.8069 44.1583 22.1739 45.4943 22.1604 50.0479C22.1461 55.4772 26.1271 62.3703 30.8544 65.0987C34.6491 67.2905 37.3204 66.0246 37.334 61.4095C37.3484 55.9902 33.374 49.1082 28.6544 46.383ZM31.4205 64.1192C27.0005 61.5676 23.2781 55.1256 23.2925 50.0501C23.3019 46.5962 24.8196 45.4774 28.0884 47.3625C32.5006 49.9108 36.2163 56.3417 36.2019 61.4073C36.1919 65.1539 34.4274 65.8562 31.4205 64.1192Z" fill="black"/>
<path d="M59.3984 28.1338C58.6334 27.6905 57.4306 27.6927 56.6611 28.1394C56.1913 28.4124 55.9215 28.8237 55.9226 29.267C55.9237 29.707 56.1902 30.1116 56.6534 30.3792C57.4366 30.8318 58.6207 30.8302 59.4062 30.3748C59.8694 30.105 60.1347 29.6971 60.1347 29.2549C60.1336 28.8115 59.8661 28.4036 59.3984 28.1338ZM58.8379 29.3953C58.4068 29.6451 57.6506 29.6451 57.2194 29.3997C57.1044 29.3333 57.0613 29.2748 57.0547 29.2748C57.0602 29.2582 57.1022 29.1918 57.2305 29.1178C57.6506 28.8734 58.4123 28.8712 58.8324 29.1133C58.9551 29.1852 58.9982 29.2471 59.0038 29.2471C58.9982 29.2637 58.9573 29.3256 58.8379 29.3953Z" fill="black"/>
</svg>
