<svg width="93" height="92" viewBox="0 0 93 92" fill="none" xmlns="http://www.w3.org/2000/svg">
<rect x="0.5" width="92" height="92" rx="46" fill="white"/>
<path d="M53.2963 63.1265C52.8508 63.3221 52.3804 63.5012 51.8995 63.6582C51.6027 63.755 51.4401 64.0745 51.5374 64.3718C51.6154 64.6106 51.837 64.7621 52.0753 64.7621C52.1333 64.7621 52.1925 64.7533 52.2511 64.7339C52.7673 64.5659 53.272 64.3735 53.7518 64.1623C54.0382 64.0369 54.1681 63.703 54.042 63.4167C53.9171 63.1309 53.5838 63.0004 53.2963 63.1265Z" fill="black"/>
<path d="M60.7339 38.1633C60.7455 34.2005 57.9523 29.3588 54.5069 27.3688L49.9485 24.7458C49.7256 23.1379 49.479 21.2676 49.4399 21.0851C49.393 20.4492 48.9882 19.866 48.2589 19.4343C46.8687 18.6278 44.6886 18.6333 43.2972 19.4465C42.594 19.858 42.1868 20.4521 42.1407 21.088C42.0995 21.2802 41.6916 24.3322 41.3268 26.9731C40.7352 27.1845 40.1775 27.4253 39.686 27.7104C37.9696 28.712 37.026 30.0768 37.0294 31.5533C37.0294 31.561 37.0312 31.5685 37.0313 31.5762L37.0059 34.9558C34.5275 36.2163 32.3779 38.2607 32.3621 40.9978C32.3618 41.0051 32.3579 41.011 32.3579 41.0184C32.3579 41.02 32.3579 41.0228 32.3579 41.025L32.2661 65.1048C32.2595 67.3297 33.7116 69.3954 36.3539 70.9211C38.9475 72.4185 42.3487 73.167 45.7477 73.167C49.1538 73.167 52.5578 72.4152 55.1442 70.9117C57.7373 69.4048 59.169 67.3679 59.1745 65.1761C59.2576 43.211 59.2067 56.7178 59.2626 42.0309C60.1896 41.1911 60.7227 39.8496 60.7339 38.1633ZM58.1215 44.3527L58.1055 48.5539C58.098 50.2971 56.8451 51.9833 54.576 53.3026C49.7204 56.1234 41.8009 56.1267 36.9199 53.3092C34.6939 52.024 33.4668 50.3171 33.4618 48.4996C33.4684 46.7669 33.4784 44.1183 33.4778 44.2864C33.6304 44.4956 33.8039 44.6991 33.9864 44.8997C34.6875 45.6709 35.5318 46.3076 36.4451 46.8352C41.6105 49.8166 50.0431 49.8455 55.2365 46.8258C56.52 46.0796 57.5246 45.159 58.1215 44.3527ZM40.2415 42.1648C39.1519 41.5402 38.1017 40.5409 38.1056 39.2766C38.1066 39.1406 38.1446 34.0561 38.1438 34.1723C38.1476 34.1765 38.1531 34.1801 38.1569 34.1843C39.6186 35.7575 42.0722 36.5408 44.1716 36.7753C47.2901 37.1238 51.2899 36.4674 53.4074 34.2348C53.4064 34.3493 53.361 39.6379 53.3638 39.3164C53.3638 41.0549 51.4662 42.2253 49.8265 42.8099C46.8211 43.8772 42.8386 43.6687 40.2415 42.1648ZM54.5008 39.3197L54.5244 36.2209C54.5564 36.2388 54.5888 36.2566 54.6213 36.2745C56.8838 37.5785 58.132 39.2816 58.1342 41.0698C58.1344 41.1943 58.1145 41.3172 58.1027 41.4408C58.1005 41.4631 58.099 41.4855 58.0965 41.5078C57.1615 42.0362 55.8611 41.8986 54.477 41.1035L54.1164 40.8912C54.3672 40.3907 54.4994 39.8629 54.5008 39.3197ZM53.9414 28.35C57.0728 30.1581 59.6123 34.5592 59.6018 38.1578C59.5963 38.9582 59.4504 39.6478 59.1914 40.2228C58.8674 38.339 57.4723 36.611 55.1625 35.28C54.9579 35.1668 54.7448 35.0623 54.534 34.9554C54.5411 34.0155 54.561 31.404 54.561 31.5721C54.5602 29.2955 52.414 27.7521 50.2561 26.9945L50.1425 26.1642L53.9414 28.35ZM48.574 31.5367C47.0793 32.404 44.5349 32.399 43.0126 31.5218C42.3454 31.1437 41.9993 30.6672 42.0369 30.1056C42.0677 29.9886 42.1166 29.5438 43.0435 22.783C43.1309 22.8455 43.2243 22.9052 43.3232 22.9621C44.8404 23.833 47.2231 23.7366 48.5381 22.7874C49.6952 31.2424 49.5286 30.015 49.5447 30.1337C49.6226 30.6235 49.2688 31.1343 48.574 31.5367ZM43.8683 20.4238C44.9056 19.8189 46.6563 19.8139 47.6868 20.4111C48.5349 20.9136 48.5353 21.4939 47.7006 21.9826C46.6774 22.5796 44.9312 22.5796 43.887 21.9804C43.0301 21.488 43.0684 20.8923 43.8683 20.4238ZM40.2548 28.6888C40.5328 28.5279 40.8324 28.3793 41.1514 28.2433L40.9387 29.8066C40.9521 29.9198 40.4948 31.3974 42.4515 32.5046C44.3343 33.5903 47.2782 33.599 49.1417 32.5156C50.2638 31.8672 50.8177 30.9342 50.6695 30.0448C50.6536 29.926 50.6763 30.0593 50.4296 28.2615C52.0462 28.9505 53.7118 30.2695 53.3883 31.9875C53.3879 31.9897 53.387 31.992 53.3866 31.9941C52.8166 34.9732 47.3753 36.0067 44.3304 35.6687C41.7474 35.3816 38.1573 33.9786 38.1637 31.5378C38.1637 31.5364 38.1629 31.5352 38.1629 31.5338C38.1686 30.4841 38.9104 29.474 40.2548 28.6888ZM36.9487 36.2634C36.9649 36.2542 36.9807 36.245 36.9963 36.2358C36.9954 36.352 36.9697 39.465 36.9713 39.2711C36.9713 40.9632 38.205 42.2993 39.676 43.1487C42.4394 44.7443 46.7866 45.0992 50.273 43.8469C51.4161 43.4378 52.5717 42.8547 53.4747 41.8275L53.9082 42.0825C55.0529 42.74 56.3949 43.1587 57.6936 42.8713C57.6686 42.9227 57.652 42.9753 57.6248 43.0262C56.9882 44.2169 55.8418 45.1627 54.665 45.8452C49.832 48.6537 41.8835 48.6664 37.0172 45.8568C34.7448 44.5423 33.4927 42.8276 33.4916 41.0289C33.4905 39.2495 34.7188 37.5569 36.9487 36.2634ZM58.0424 65.1723C58.038 66.9461 56.8064 68.6365 54.5754 69.9333C49.7221 72.7546 41.8009 72.7585 36.9199 69.9405C34.6436 68.6265 33.3932 66.9102 33.3982 65.1087L33.4143 60.9015C34.095 61.861 35.0819 62.7318 36.3539 63.4664C38.8939 64.9329 42.3078 65.7178 45.7737 65.7178C47.3236 65.7178 48.8841 65.5609 50.3816 65.2375C50.6872 65.1717 50.8813 64.8704 50.8155 64.5648C50.7491 64.2591 50.4484 64.0639 50.1428 64.1308C45.5564 65.1214 40.3653 64.4752 36.9199 62.4858C34.6845 61.1951 33.4568 59.4787 33.4618 57.6513V51.7996C34.1406 52.7299 35.114 53.574 36.3539 54.2899C41.5466 57.2875 49.9753 57.2853 55.1448 54.281C56.4103 53.5455 57.4022 52.6926 58.0933 51.766L58.0691 58.1342C57.8898 59.6791 56.7405 61.1685 54.7656 62.3653C54.4986 62.5272 54.4129 62.8755 54.5749 63.143C54.7379 63.4111 55.0867 63.4957 55.3526 63.3337C56.5049 62.6352 57.4068 61.8323 58.0584 60.9674L58.0424 65.1723Z" fill="black"/>
</svg>
