<svg width="93" height="92" viewBox="0 0 93 92" fill="none" xmlns="http://www.w3.org/2000/svg">
<rect x="0.5" width="92" height="92" rx="46" fill="white"/>
<path d="M73.4078 49.7381C73.4008 49.7334 73.3919 49.7341 73.3847 49.7297C73.3804 49.7271 73.379 49.7219 73.3746 49.7193L54.9265 38.9987C56.1283 35.1773 57.0326 31.7023 57.0275 29.9047C57.0199 27.2793 56.0996 25.3019 54.4384 24.3272C54.4343 24.3246 54.4321 24.3203 54.4279 24.3178L54.4083 24.3064L50.0864 21.7927C46.9391 19.9753 43.1081 22.3734 40.5621 25.0193C37.5468 28.2557 35.6071 32.7973 35.6204 36.5877C35.6238 38.4247 36.5519 40.879 37.7971 43.3532L31.2757 48.6642L19.6818 53.4124C19.4625 53.5026 19.358 53.7078 19.3302 53.938L19.3413 57.7196C19.3418 57.9208 19.449 58.1065 19.6226 58.2071L22.4395 59.8444C22.7098 60.0008 23.0559 59.9107 23.2134 59.6399C23.371 59.3696 23.2792 59.023 23.0089 58.866L20.4722 57.3918L20.465 54.9216C23.0117 56.4014 38.9764 65.6787 40.9418 66.8209L40.9489 69.2912L28.0347 61.7868C27.7666 61.6299 27.4183 61.7205 27.2614 61.9919C27.1038 62.2617 27.1961 62.6083 27.4664 62.7652L41.2338 70.7655C41.3913 70.8577 41.5776 70.8642 41.7324 70.7998L53.3848 66.0222C53.3918 66.0193 53.3947 66.0116 53.4015 66.0085C53.4452 65.9887 53.4892 65.9692 53.5274 65.9382L61.7445 59.2596L73.3188 54.5135C73.5316 54.4261 73.6704 54.2189 73.6698 53.9883L73.6593 50.2068C73.6588 50.0183 73.5648 49.8426 73.4078 49.7381ZM53.7266 61.9871L60.8776 56.1741L60.8804 57.0672L60.8846 58.4997L53.733 64.3119L53.7266 61.9871ZM54.576 40.1038L71.8131 50.1206L61.4846 54.3565L51.6107 48.6235C52.6228 45.869 53.6709 42.895 54.576 40.1038ZM55.8955 29.908C55.9057 33.5749 51.6482 45.2328 50.3821 48.6766C50.382 48.6769 50.3821 48.6764 50.3821 48.6766C49.5463 50.9468 48.8214 52.827 48.3982 53.9133C46.0454 50.5867 41.7836 44.0161 41.1673 40.0005C40.7775 37.4404 41.9007 34.1128 43.2203 31.7642C44.6144 29.2855 46.5728 27.1068 48.7465 25.8517C50.3112 24.948 52.2913 24.3975 53.8512 25.293C55.1629 26.0536 55.8894 27.6912 55.8955 29.908ZM41.3841 25.7976C43.467 23.6325 46.9228 21.2748 49.5187 22.7722L51.2163 23.7595C50.3687 23.8791 49.2764 24.2392 48.1821 24.8684C43.0616 27.8229 39.4116 35.2844 40.0257 39.9701C40.5484 43.9417 44.3386 50.0002 46.5975 53.3075L44.5973 52.1448C44.5721 52.1104 44.5365 52.0615 44.4992 52.0103C42.9627 49.8774 36.7606 40.9971 36.7524 36.5843C36.7403 33.0654 38.5606 28.8284 41.3841 25.7976ZM43.7478 52.9033C43.7496 52.9059 43.7529 52.9071 43.7548 52.9096C43.7551 52.91 43.7563 52.9118 43.7566 52.9121C43.7745 52.9365 43.8019 52.951 43.8235 52.972C43.8556 53.0028 43.8832 53.0389 43.9219 53.0614L43.9257 53.0636C43.7863 52.9828 45.9205 54.218 48.3081 55.6006C48.6538 55.7628 48.9881 55.5166 49.0743 55.2995C49.3234 54.6679 50.1651 52.5196 51.212 49.7015L60.4476 55.0638L53.106 61.0313L32.5512 49.0857L38.3267 44.3823C39.5717 46.7066 41.4048 49.6733 43.7478 52.9033ZM31.506 49.7934L51.8741 61.6324L41.5499 65.8652L21.1742 54.0243L31.506 49.7934ZM42.0817 69.4333C42.0814 69.3171 42.0735 66.71 42.074 66.874L52.596 62.5602L52.6032 65.1195L42.0817 69.4333ZM62.0152 57.9252L62.0077 55.4449L62.0075 55.3659L72.5295 51.0515L72.5366 53.6108L62.0152 57.9252Z" fill="black"/>
<path d="M26.3659 60.8167L24.6059 59.7941C24.3378 59.6371 23.9895 59.7283 23.8325 59.9992C23.675 60.2695 23.7673 60.6155 24.0376 60.7725L25.7976 61.7951C26.0646 61.951 26.4128 61.8632 26.571 61.5901C26.7285 61.3197 26.6362 60.9737 26.3659 60.8167Z" fill="black"/>
<path d="M48.1942 29.4669C45.9583 30.7581 44.2121 33.7862 44.2193 36.3605C44.2272 39.1282 46.336 40.3794 48.7846 38.9668C51.0239 37.6739 52.7723 34.6474 52.7651 32.0765C52.7571 29.2852 50.6244 28.0624 48.1942 29.4669ZM48.2186 37.9862C46.5484 38.9493 45.3571 38.27 45.3513 36.3571C45.3453 34.1875 46.8742 31.5364 48.7603 30.4475C50.4183 29.4913 51.6272 30.1477 51.633 32.0798C51.6391 34.2091 50.0753 36.9143 48.2186 37.9862Z" fill="black"/>
</svg>
