<svg width="93" height="92" viewBox="0 0 93 92" fill="none" xmlns="http://www.w3.org/2000/svg">
<rect x="0.5" width="92" height="92" rx="46" fill="white"/>
<path d="M21.0435 37.1891L21.0938 54.5456C21.0938 55.1779 21.3458 55.6915 21.7914 55.9584C22.1561 56.1699 20.4704 55.1917 25.3587 58.0265C25.4361 58.0692 25.5183 58.1002 25.6024 58.1257C25.6013 58.1466 25.5928 58.1663 25.5928 58.1872C25.5928 58.1957 25.5965 58.2037 25.5966 58.2122L25.5911 62.7094C25.5911 63.2307 25.9106 63.7099 26.4612 64.0206L41.4733 72.75C42.4349 73.3118 43.9403 73.3079 44.9049 72.7516L71.0693 57.6394C71.6331 57.321 71.9564 56.8379 71.9564 56.3139C71.9565 56.4979 71.956 52.8897 71.9559 51.7994C71.957 51.2831 71.6392 50.8027 71.0858 50.4816L56.077 41.7589C55.6091 41.4867 55.0106 41.3526 54.4093 41.3452C54.6601 40.8565 54.8148 40.3262 54.8134 39.8324L54.7642 22.4727C54.762 21.8502 54.5138 21.3507 54.0872 21.0871C54.078 21.0811 54.0728 21.0715 54.0632 21.0659L54.0621 21.0653L50.5178 19.0029C50.0606 18.7398 49.4797 18.779 48.9269 19.1052L33.0712 28.2607C32.8003 28.4172 32.7075 28.7632 32.8639 29.0341C33.0204 29.3049 33.3664 29.3961 33.6372 29.2413L49.4974 20.083C49.7262 19.9482 49.8871 19.9459 49.9506 19.983L52.2214 21.3041C18.0946 41.01 29.0569 34.68 26.3075 36.2676C25.3819 36.8018 24.5804 38.1175 24.584 39.2471L24.6323 56.3009L22.3668 54.9839C22.2988 54.943 22.2258 54.8065 22.2258 54.5439L22.1755 37.1874C22.1755 36.4755 22.7156 35.5429 23.3336 35.1908L26.8923 33.1356C27.1632 32.9792 27.2561 32.6332 27.0996 32.3623C26.9426 32.0903 26.5949 31.998 26.3263 32.155L22.7703 34.2085C21.8019 34.7602 21.0435 36.0686 21.0435 37.1891ZM26.8774 37.2516C49.4177 24.2304 42.349 28.314 53.0522 22.1364C53.5185 21.8843 53.6312 22.0731 53.6321 22.476L53.6813 39.8358C53.6835 40.532 53.1558 41.444 52.5478 41.8116C49.2215 43.7328 63.3279 35.5853 26.3661 56.9335C25.964 57.1663 25.7697 57.0703 25.7697 56.6046L25.7188 39.2421C25.7116 38.5871 26.2874 37.5873 26.8774 37.2516ZM70.5082 56.656L44.3389 71.771C43.7226 72.1264 42.6513 72.1276 42.0438 71.7721L27.0239 63.0383C26.816 62.9211 26.7232 62.7885 26.7232 62.71L26.7271 59.6564L41.475 68.2272C42.44 68.788 43.9485 68.7833 44.911 68.2283L70.8216 53.2683L70.8244 56.3139C70.8244 56.3957 70.7282 56.5322 70.5082 56.656ZM70.517 51.4605C70.9212 51.6952 70.9322 51.9079 70.5043 52.1388L44.3433 67.2449C43.7983 67.5621 42.7149 67.6349 42.0399 67.2449C27.0002 58.4756 26.9629 58.5303 26.7996 58.3389C26.6881 58.2055 26.6728 58.078 27.0153 57.8661C30.2992 55.9694 16.3081 64.0503 53.207 42.7384C53.8308 42.3775 54.8857 42.3759 55.5076 42.7373L70.517 51.4605Z" fill="black"/>
<path d="M30.5904 29.693L28.4644 30.9207C28.1936 31.0771 28.1007 31.4231 28.2571 31.694C28.414 31.9656 28.7611 32.0569 29.0305 31.9013L31.1564 30.6736C31.4273 30.5171 31.5201 30.1711 31.3637 29.9003C31.2067 29.6283 30.859 29.5354 30.5904 29.693Z" fill="black"/>
<path d="M27.931 54.2885C28.0636 54.2885 28.1968 54.2542 28.3151 54.1857L51.8593 40.5853C52.0182 40.4545 52.2756 40.0983 52.2756 39.8391L52.2358 25.5571C52.2347 25.2841 52.0871 25.0298 51.8499 24.8932C51.6133 24.7573 51.3187 24.7567 51.0821 24.8938L27.5396 38.492C27.3827 38.6217 27.1217 38.983 27.1217 39.2404L27.1615 53.5218C27.1632 53.9443 27.5069 54.2885 27.931 54.2885ZM28.2632 39.3725L51.1053 26.1878L51.1429 39.6954C51.1407 39.6987 51.1385 39.7014 51.1368 39.7048L28.2919 52.8917L28.2543 39.3858C28.2571 39.3814 28.2604 39.3764 28.2632 39.3725Z" fill="black"/>
<path d="M34.1596 56.5637C34.002 56.2934 33.6555 56.2011 33.3857 56.3592L31.7169 57.3299C31.4466 57.4869 31.3554 57.8334 31.5124 58.1037C31.6692 58.3736 32.0152 58.4655 32.2862 58.3083L33.9551 57.3376C34.2254 57.1806 34.3171 56.834 34.1596 56.5637Z" fill="black"/>
<path d="M36.4365 55.8949L38.1053 54.9242C38.3756 54.7672 38.4674 54.4206 38.3099 54.1503C38.1529 53.8789 37.8052 53.7877 37.536 53.9458L35.8672 54.9165C35.5969 55.0735 35.5056 55.42 35.6626 55.6904C35.8194 55.9602 36.1655 56.0521 36.4365 55.8949Z" fill="black"/>
<path d="M40.5867 53.4815L42.2555 52.5108C42.5258 52.3538 42.6175 52.0072 42.46 51.7369C42.3025 51.4661 41.9564 51.3749 41.6861 51.5324L40.0173 52.5031C39.747 52.6601 39.6558 53.0066 39.8128 53.2769C39.9696 53.5468 40.3157 53.6387 40.5867 53.4815Z" fill="black"/>
<path d="M44.7369 51.0681L46.4057 50.0979C46.676 49.941 46.7678 49.5944 46.6103 49.3241C46.4522 49.0538 46.1056 48.9615 45.8364 49.1195L44.1676 50.0897C43.8973 50.2466 43.8055 50.5932 43.963 50.8635C44.1199 51.1334 44.4659 51.2253 44.7369 51.0681Z" fill="black"/>
<path d="M48.8871 48.6552L50.5559 47.6846C50.8262 47.5276 50.918 47.181 50.7604 46.9107C50.6029 46.6393 50.2552 46.5481 49.9865 46.7062L48.3177 47.6768C48.0474 47.8338 47.9562 48.1804 48.1132 48.4507C48.27 48.7206 48.6161 48.8125 48.8871 48.6552Z" fill="black"/>
<path d="M54.1368 44.2927L52.468 45.2634C52.1977 45.4204 52.1065 45.767 52.2635 46.0373C52.4203 46.3072 52.7663 46.3991 53.0373 46.2418L54.7062 45.2712C54.9765 45.1142 55.0682 44.7676 54.9107 44.4973C54.7537 44.227 54.4066 44.1347 54.1368 44.2927Z" fill="black"/>
<path d="M36.8146 58.1071C36.657 57.8362 36.311 57.7455 36.0407 57.9025L34.3713 58.8732C34.101 59.0302 34.0092 59.3768 34.1668 59.6471C34.3236 59.9169 34.6697 60.0088 34.9407 59.8516L36.61 58.8809C36.8803 58.7239 36.9721 58.3774 36.8146 58.1071Z" fill="black"/>
<path d="M40.9648 55.6937C40.8067 55.4234 40.4601 55.3322 40.1909 55.4891L38.5216 56.4598C38.2513 56.6168 38.1595 56.9634 38.3171 57.2337C38.4739 57.5036 38.8199 57.5955 39.0909 57.4382L40.7603 56.4675C41.0306 56.3106 41.1224 55.964 40.9648 55.6937Z" fill="black"/>
<path d="M45.115 53.2808C44.9574 53.01 44.6097 52.9193 44.3411 53.0763L42.6717 54.047C42.4014 54.204 42.3097 54.5505 42.4672 54.8208C42.624 55.0907 42.9701 55.1826 43.2411 55.0254L44.9104 54.0547C45.1808 53.8977 45.2725 53.5511 45.115 53.2808Z" fill="black"/>
<path d="M46.6175 52.4074C46.7743 52.6773 47.1204 52.7692 47.3913 52.612L49.0607 51.6413C49.331 51.4843 49.4228 51.1377 49.2652 50.8674C49.1083 50.5966 48.7611 50.5059 48.4914 50.6629L46.822 51.6336C46.5517 51.7905 46.4599 52.1371 46.6175 52.4074Z" fill="black"/>
<path d="M52.6415 48.2495L50.9721 49.2202C50.7018 49.3771 50.6101 49.7237 50.7676 49.994C50.9244 50.2639 51.2705 50.3558 51.5415 50.1986L53.2109 49.2279C53.4812 49.0709 53.5729 48.7243 53.4154 48.454C53.2578 48.1832 52.9102 48.0925 52.6415 48.2495Z" fill="black"/>
<path d="M54.9179 47.5801C55.0749 47.8512 55.4213 47.9421 55.6918 47.7852L57.3611 46.815C57.6309 46.6581 57.7232 46.3115 57.5657 46.0412C57.4076 45.7703 57.0615 45.6791 56.7918 45.8366L55.1224 46.8068C54.8527 46.9637 54.7603 47.3103 54.9179 47.5801Z" fill="black"/>
<path d="M38.6951 59.4464L37.0257 60.4165C36.756 60.5735 36.6637 60.9201 36.8212 61.1904C36.978 61.4603 37.3241 61.5522 37.5951 61.3949L39.2645 60.4248C39.5342 60.2678 39.6265 59.9213 39.469 59.6515C39.312 59.3806 38.9643 59.2883 38.6951 59.4464Z" fill="black"/>
<path d="M42.8454 57.033L41.176 58.0037C40.9057 58.1607 40.8139 58.5073 40.9715 58.7776C41.1283 59.0474 41.4744 59.1393 41.7454 58.9821L43.4147 58.0114C43.685 57.8544 43.7768 57.5079 43.6192 57.2376C43.4617 56.9661 43.1157 56.8749 42.8454 57.033Z" fill="black"/>
<path d="M47.5649 55.598C47.8352 55.441 47.9269 55.0945 47.7694 54.8241C47.6113 54.5538 47.2647 54.4615 46.9955 54.6196L45.3261 55.5903C45.0558 55.7473 44.9641 56.0939 45.1216 56.3642C45.2784 56.634 45.6245 56.7259 45.8955 56.5687L47.5649 55.598Z" fill="black"/>
<path d="M51.1458 52.2062L49.4764 53.1769C49.2061 53.3339 49.1143 53.6805 49.2719 53.9508C49.4287 54.2206 49.7748 54.3125 50.0458 54.1553L51.7151 53.1846C51.9854 53.0276 52.0772 52.6811 51.9197 52.4108C51.7621 52.1404 51.4144 52.0487 51.1458 52.2062Z" fill="black"/>
<path d="M53.422 51.5379C53.5788 51.8078 53.9249 51.8997 54.1959 51.7424L55.8653 50.7718C56.1356 50.6148 56.2273 50.2682 56.0698 49.9979C55.9128 49.7265 55.5657 49.6353 55.2959 49.7934L53.6266 50.764C53.3563 50.921 53.2645 51.2676 53.422 51.5379Z" fill="black"/>
<path d="M57.5722 49.1245C57.729 49.3944 58.0751 49.4863 58.3461 49.3291L60.0154 48.3584C60.2857 48.2014 60.3775 47.8548 60.22 47.5845C60.0624 47.3142 59.7147 47.2219 59.4461 47.38L57.7767 48.3506C57.5064 48.5076 57.4146 48.8542 57.5722 49.1245Z" fill="black"/>
<path d="M54.2456 54.341C54.0698 54.2382 53.8531 54.2393 53.6785 54.3399L45.9739 58.7881C45.7993 58.8892 45.6915 59.0755 45.6909 59.2778C45.6904 59.4796 45.7982 59.6664 45.9728 59.7676L49.8776 62.0367C50.0539 62.1398 50.2705 62.1382 50.4448 62.0378L58.1493 57.5897C58.324 57.4885 58.4317 57.3022 58.4323 57.0999C58.4328 56.8981 58.3251 56.7113 58.1504 56.6102L54.2456 54.341ZM50.1628 60.8936L47.3863 59.28L53.9604 55.4842L56.7369 57.0977L50.1628 60.8936Z" fill="black"/>
<path d="M32.5659 41.6052C32.8268 41.7743 33.1778 41.7014 33.3492 41.4399C33.6864 40.9225 34.1242 40.4847 34.4863 40.2702C34.8135 40.1332 34.9644 40.158 34.9909 40.1774C35.0318 40.2067 35.1076 40.3808 35.0805 40.7318C34.9992 41.7942 34.4791 42.834 33.6073 44.2723L33.2199 44.9168C33.1673 45.0053 33.1391 45.1258 33.1391 45.2286C33.1391 45.5416 33.3929 45.7946 33.7052 45.7946C33.803 45.7946 33.9009 45.7692 33.9882 45.7189L36.8582 44.0617C37.1291 43.9053 37.2219 43.5592 37.0655 43.2884C36.9085 43.017 36.5619 42.9241 36.2922 43.0811L35.2579 43.6786C35.7532 42.7527 36.133 41.8152 36.2092 40.8186C36.2634 40.111 36.0666 39.5572 35.6537 39.2592C35.3712 39.0558 34.8627 38.8861 33.9843 39.2581C33.1966 39.713 32.6544 40.4333 32.4006 40.8219C32.2298 41.0834 32.3039 41.4344 32.5659 41.6052Z" fill="black"/>
<path d="M42.5131 35.8602C42.7767 36.031 43.1266 35.9564 43.2963 35.695C43.633 35.1776 44.0708 34.7398 44.4334 34.5247C44.7617 34.3871 44.9115 34.4131 44.9381 34.4319C44.979 34.4612 45.0547 34.6358 45.0276 34.9863C44.9458 36.0482 44.4257 37.0885 43.5539 38.5274L43.1664 39.1719C43.1139 39.2603 43.0857 39.3808 43.0857 39.4836C43.0857 39.686 43.1935 39.8728 43.3688 39.974C43.4561 40.0243 43.5539 40.0497 43.6518 40.0497C43.7496 40.0497 43.8475 40.0243 43.9348 39.974L46.8048 38.3167C47.0756 38.1603 47.1685 37.8143 47.0121 37.5434C46.8551 37.272 46.5091 37.1791 46.2387 37.3361L45.204 37.9337C45.6998 37.0078 46.0795 36.0703 46.1564 35.0736C46.2106 34.3655 46.0132 33.8117 45.6003 33.5137C45.3178 33.3097 44.8098 33.1389 43.9315 33.5126C43.1432 33.9681 42.601 34.6884 42.3478 35.077C42.177 35.339 42.2511 35.69 42.5131 35.8602Z" fill="black"/>
<path d="M38.1468 40.5439C38.243 40.5439 38.3403 40.5195 38.4293 40.4681L39.2049 40.0203L39.2076 40.9568C39.2087 41.2691 39.4618 41.5212 39.7736 41.5212H39.7753C40.0876 41.5201 40.3408 41.2663 40.3396 40.9535L40.3351 39.3678L41.6729 38.5953C41.9438 38.4389 42.0367 38.0929 41.8802 37.822C41.7238 37.5495 41.3761 37.4577 41.1069 37.6147L40.3313 38.0625L40.3286 37.1255C40.3275 36.8138 40.0743 36.5611 39.7626 36.5611H39.7609C39.4486 36.5622 39.1954 36.816 39.1965 37.1288L39.2011 38.7151L37.8632 39.4875C37.5924 39.6439 37.4995 39.99 37.6559 40.2608C37.761 40.4427 37.9511 40.5439 38.1468 40.5439Z" fill="black"/>
</svg>
