<svg width="93" height="92" viewBox="0 0 93 92" fill="none" xmlns="http://www.w3.org/2000/svg">
<rect x="0.5" width="92" height="92" rx="46" fill="white"/>
<path d="M59.8151 22.0234C52.4478 17.7759 40.5079 17.7748 33.1992 22.0245C29.5658 24.1351 27.5642 26.9737 27.5624 30.0158C27.5624 30.0164 27.562 30.017 27.562 30.0176V30.0198C27.4385 68.4716 27.5848 21.5646 27.4603 61.876C27.4603 69.4093 38.3624 73.1625 46.4867 73.1625C51.3876 73.1625 56.2039 72.0492 59.7947 69.9619C63.4164 67.8515 65.418 65.0168 65.4302 61.981C65.5812 14.7321 65.5319 35.6761 65.5319 30.1127C65.5319 30.1116 65.5319 30.1116 65.5319 30.1104C65.5441 27.0271 63.5137 24.1549 59.8151 22.0234ZM33.2899 38.0836C37.4504 40.493 43.0097 41.4645 47.9102 41.2565L47.9803 49.2151C42.7038 49.4566 37.5608 48.3846 33.8095 46.216C30.6461 44.4027 28.8222 42.0109 28.6627 39.4554L28.6803 33.8284C28.6956 33.8536 28.7177 33.8772 28.7332 33.9024C29.794 35.6162 31.5685 37.0876 33.2899 38.0836ZM59.8936 38.0958C60.4284 37.7873 61.1359 37.3068 61.5586 36.9869L61.6371 44.6616C61.6505 46.0181 60.1536 47.518 59.5944 47.2256C59.5932 47.2249 59.5924 47.2231 59.5912 47.2222C59.5383 47.1896 59.5015 47.1235 59.467 47.0543C59.4562 47.0292 59.329 46.3962 59.3284 46.3949C59.2427 46.1911 59.0417 46.0479 58.8069 46.0479C58.8063 46.0479 58.8074 46.0479 58.8069 46.0479C58.4946 46.0479 58.2408 46.3022 58.2408 46.614C58.2408 46.6151 58.2408 46.6151 58.2408 46.6162C58.2408 46.6206 58.2408 46.6261 58.2408 46.6306L58.2519 50.0334C58.2519 50.9212 57.5996 52.0433 56.8224 52.4877C56.8135 52.4929 56.8065 52.4946 56.7977 52.4995C56.496 52.6686 56.1569 52.721 56.0344 52.3866C55.9986 52.288 55.9783 52.1622 55.9772 52.0168V52.0024C55.9762 51.6937 55.7265 51.4364 55.4107 51.4364C55.4101 51.4364 55.4112 51.4364 55.4107 51.4364C55.0983 51.4364 54.8446 51.6906 54.8446 52.0024C54.8446 52.0035 54.8446 52.0035 54.8446 52.0046C54.8446 52.009 54.8446 52.0135 54.8446 52.0179L54.8673 59.016C54.8761 59.8904 54.2332 61.007 53.4599 61.4537C52.8899 61.7884 52.6037 61.5826 52.6037 60.9805L52.581 55.444C52.5807 55.3659 52.5646 55.2917 52.5358 55.2241C52.4499 55.0207 52.2489 54.8779 52.0144 54.8779C52.0139 54.8779 52.015 54.8779 52.0144 54.8779C51.7021 54.879 51.4484 55.1322 51.4484 55.444C51.4484 56.3041 50.8039 57.4074 50.0421 57.854C49.4607 58.195 49.1848 57.9778 49.1848 57.3764L49.0422 41.2001C53.4599 40.8661 56.2638 40.006 59.8936 38.0958ZM64.3854 33.9544L64.3694 39.0912C64.3692 39.0968 64.3662 39.1017 64.3661 39.1074C64.3574 40.5537 63.8001 41.9811 62.7559 43.2981L62.6818 36.0328C62.6863 36.0286 62.6884 36.0255 62.6928 36.0212C63.3751 35.3583 64.0468 34.5046 64.3854 33.9544ZM33.2445 47.1966C36.816 49.2618 41.5654 50.3938 46.5226 50.3938C47.0096 50.3938 47.5002 50.3695 47.9903 50.3475L48.0522 57.3798C48.0522 58.9205 49.3234 59.5838 50.6148 58.8335C50.9208 58.6535 51.2057 58.4148 51.4594 58.1365L51.4711 60.9805C51.4711 62.574 52.8074 63.1488 54.0309 62.4343C55.1486 61.7876 56.0137 60.2818 55.9999 59.0104L55.9828 53.7281C56.4123 53.8409 56.9059 53.7558 57.3901 53.4695C58.5089 52.8305 59.3851 51.3214 59.3851 50.0323L59.3785 48.3563L59.3784 48.3453C60.8656 48.7075 62.4562 46.812 62.724 45.1807C62.7339 45.1209 62.7372 45.0624 62.7436 45.0031C63.3914 44.3616 63.9345 43.6871 64.3573 42.9859L64.3199 55.0031C64.1865 57.5186 62.4177 59.8967 59.274 61.7223C52.277 65.7907 40.8529 65.7885 33.8084 61.7223C30.4735 59.7965 28.6405 57.2736 28.6482 54.6148C28.6484 54.5569 28.6318 54.504 28.6157 54.4513L28.6517 42.9615C29.6133 44.5526 31.16 46.0018 33.2445 47.1966ZM64.2981 61.9766C64.2876 64.5945 62.4856 67.0831 59.2253 68.9835C48.1572 75.4166 28.5924 70.878 28.5924 61.8782L28.6034 58.3808C29.5576 59.9962 31.1135 61.4734 33.2423 62.7018C40.5961 66.9495 52.5306 66.9507 59.8428 62.7018C61.8657 61.5266 63.3614 60.1194 64.3087 58.5811L64.2981 61.9766ZM64.3998 30.1104C64.3998 33.1616 61.981 35.5331 59.3392 37.0975C56.1367 38.7815 53.0659 39.8563 49.2309 40.0393C49.2208 40.0402 49.2106 40.041 49.2005 40.0418C43.5777 40.5128 37.8418 39.4129 33.857 37.1041C31.1987 35.5659 28.6941 33.0913 28.6941 30.0198C28.6941 27.3963 30.4961 24.9044 33.768 23.004C40.7592 18.939 52.1868 18.9319 59.2496 23.0051C62.5818 24.9243 64.4109 27.4472 64.3998 30.1082V30.1104Z" fill="black"/>
<path d="M58.3702 24.533C51.9241 20.8114 41.138 20.7626 34.6546 24.533C31.9908 26.0763 30.4635 28.0763 30.4635 30.0209C30.4635 32.4123 32.6705 34.3779 34.7475 35.5796C37.8347 37.3672 42.1607 38.3921 46.6171 38.3921C51.0559 38.3921 55.3653 37.3672 58.4415 35.5796C60.4851 34.3905 62.6315 32.4427 62.6315 30.0795C62.6315 28.1271 61.0787 26.1051 58.3702 24.533ZM46.6171 37.26C42.3542 37.26 38.2344 36.2904 35.3146 34.6001C34.1022 33.898 32.7636 32.8397 32.0779 31.6168C32.6733 30.5985 33.7755 29.5888 35.2229 28.7484C41.339 25.1903 51.6879 25.2177 57.8047 28.7495C59.3087 29.6145 60.4112 30.6249 61.0194 31.685C60.3557 32.8727 59.0587 33.9111 57.8721 34.6001C54.964 36.2904 50.8619 37.26 46.6171 37.26ZM61.4656 30.3462C60.7308 29.4056 59.6884 28.5277 58.3702 27.7689C51.917 24.0432 41.1318 24.0025 34.6541 27.7689C33.3671 28.5163 32.3494 29.3749 31.6286 30.2895C31.6199 30.2 31.5956 30.1109 31.5956 30.0209C31.5956 28.514 32.951 26.8281 35.2229 25.5125C41.3482 21.9491 51.6966 21.9869 57.803 25.5125C60.1523 26.8767 61.4994 28.5417 61.4994 30.0795C61.4994 30.1657 61.4746 30.2578 61.4656 30.3462Z" fill="black"/>
</svg>
