<svg width="93" height="92" viewBox="0 0 93 92" fill="none" xmlns="http://www.w3.org/2000/svg">
<rect x="0.5" width="92" height="92" rx="46" fill="white"/>
<path d="M73.3663 38.0222L73.365 38.0214C73.3644 38.0211 73.3642 38.0203 73.3636 38.02C44.031 20.9004 58.5593 29.3797 54.3588 26.9281C54.1846 26.8264 53.9679 26.8253 53.7916 26.9259L19.6143 46.5785C19.4123 46.6946 19.3305 46.9371 19.3302 47.0678C19.3302 47.0682 19.3305 47.0686 19.3305 47.0691C19.3305 47.0696 19.3302 47.07 19.3302 47.0705L19.3418 53.4898C19.3424 53.6905 19.449 53.8762 19.6221 53.9774C42.2936 67.2018 32.2601 61.3493 38.644 65.0732C38.8218 65.1756 39.0368 65.1725 39.2084 65.0737C39.2085 65.0737 39.2094 65.0732 39.2095 65.0732C39.2094 65.0732 39.2096 65.0731 39.2095 65.0732C53.4725 56.8866 73.2247 45.5137 73.3868 45.4205C73.5626 45.3193 73.6704 45.1314 73.6698 44.928L73.6472 38.5086C73.6467 38.3089 73.5346 38.1206 73.3663 38.0222ZM68.3163 41.2595L68.3202 42.3777C67.1945 41.7205 58.8927 36.8735 57.6496 36.1478L57.6445 35.0284C57.8046 35.1219 68.1757 41.1774 68.3163 41.2595ZM45.3098 50.0054L45.9782 49.621C46.1534 49.5204 46.2618 49.3341 46.2623 49.1324C46.2629 48.9306 46.1562 48.7432 45.9821 48.6415L41.5596 46.0544C41.6943 45.9767 44.2401 44.5085 44.1253 44.5748L49.1019 47.4906C49.2771 47.5934 49.4933 47.594 49.6696 47.4923L50.6644 46.9201L56.085 50.0801L50.725 53.1625L45.3098 50.0054ZM55.718 42.7136L51.5777 40.2917L53.0812 39.423L57.2254 41.8468L55.718 42.7136ZM45.261 43.9268L46.7477 43.0707L50.894 45.4818L49.3893 46.3475L45.261 43.9268ZM51.7965 46.2691L52.3069 45.9755C52.4821 45.8749 52.5904 45.688 52.591 45.4857C52.5915 45.284 52.4843 45.0966 52.3096 44.9954L47.8788 42.4188C48.0029 42.3473 50.5711 40.8661 50.4434 40.9398L55.4295 43.8562C55.517 43.9069 55.6149 43.9326 55.7131 43.933C55.7139 43.933 55.7145 43.9335 55.7153 43.9335C55.8125 43.9335 55.9098 43.9087 55.9972 43.8584L56.9342 43.3195L62.344 46.4806L57.2171 49.4291L51.7965 46.2691ZM58.0652 42.669L58.6355 42.341C58.8102 42.2404 58.9186 42.0541 58.9191 41.8524C58.9197 41.6506 58.813 41.4638 58.6389 41.362L54.2177 38.7759L57.083 37.1279C62.8323 40.4844 61.6995 39.8231 67.764 43.3636L63.4751 45.8302L58.0652 42.669ZM38.9232 47.5697L40.4251 46.7024L44.5675 49.1257C44.4542 49.191 42.9484 50.0577 43.0618 49.9925L38.9232 47.5697ZM56.5124 35.0159C56.5129 35.1299 56.5178 36.2605 56.5173 36.1465C56.3539 36.2405 33.3128 49.4883 33.4387 49.4159L32.4707 48.8504L56.5124 35.0159ZM34.5673 50.0732L37.7921 48.2218L42.7727 51.135C42.8604 51.1862 42.9585 51.212 43.0567 51.2124C43.0575 51.2124 43.0583 51.213 43.059 51.213C43.1563 51.213 43.2541 51.1881 43.3415 51.1373L44.1777 50.6563L49.5937 53.8138L43.6997 57.2111L43.6925 55.7275C43.6919 55.6129 43.5721 55.3353 43.4122 55.2416L34.5673 50.0732ZM54.0713 28.0707L71.9532 38.508L68.8828 40.2792C68.5744 40.0991 57.184 33.4493 57.3564 33.5486C57.1818 33.448 56.9662 33.448 56.7915 33.5486L31.0595 48.3563C30.8848 48.4574 30.7764 48.6437 30.7759 48.8455C30.7753 49.0472 30.882 49.2341 31.0567 49.3358C31.9575 49.8619 27.4277 47.2162 41.9964 55.7254L38.9045 57.509C37.0765 56.4419 45.5267 61.3746 21.0262 47.0727L54.0713 28.0707ZM20.4733 53.1637L20.4639 48.0559C20.9963 48.3667 37.8055 58.1788 38.3378 58.4895L38.3566 63.5951L20.4733 53.1637ZM39.4891 63.6075L39.471 58.4907L42.5648 56.7075L42.582 61.8328L39.4891 63.6075ZM43.7268 58.5024L68.3271 44.3461L68.3366 47.0257L43.7268 61.1817V58.5024ZM69.4672 46.374C69.4547 41.9696 69.4486 41.199 69.4489 41.2598C69.5988 41.1733 72.716 39.375 72.5184 39.4891L72.5366 44.604L69.4672 46.374Z" fill="black"/>
<path d="M36.1068 42.0574C37.0563 42.6073 38.5521 42.6082 39.513 42.0591C39.513 42.0591 39.5163 42.0569 39.5185 42.0563C40.6881 41.3707 40.693 40.0948 39.5357 39.4235C38.5573 38.8646 37.0869 38.869 36.1206 39.4345C34.9487 40.105 34.948 41.3681 36.1068 42.0574ZM36.6878 40.4146C37.3034 40.0548 38.351 40.0496 38.9707 40.4046C39.3741 40.6379 39.3548 40.8387 38.9486 41.0779C38.3256 41.4328 37.2864 41.4317 36.68 41.0812C36.2739 40.8392 36.2774 40.6494 36.6878 40.4146Z" fill="black"/>
<path d="M41.2918 39.0686C42.2457 39.6221 43.7422 39.6172 44.6985 39.0703L44.703 39.0675C45.8803 38.3792 45.868 37.0993 44.7289 36.4396C43.7853 35.8786 42.2824 35.8775 41.3062 36.4347C40.1452 37.0977 40.1236 38.3749 41.2918 39.0686ZM41.8678 37.4175C42.4907 37.0618 43.5575 37.0602 44.1557 37.4158C44.5616 37.6506 44.5371 37.8514 44.1336 38.0891C43.5123 38.4434 42.472 38.4445 41.865 38.0924C41.4755 37.8608 41.4472 37.6584 41.8678 37.4175Z" fill="black"/>
<path d="M46.4768 36.0687C47.4252 36.6186 48.9221 36.6195 49.883 36.0704L49.8863 36.0687C51.0479 35.3954 51.0624 34.1048 49.9056 33.4348C48.9344 32.8792 47.4309 32.8875 46.4912 33.4464C45.3197 34.1156 45.3176 35.3976 46.4768 36.0687ZM47.0611 34.4242C47.6607 34.0684 48.7281 34.0651 49.3407 34.4159C49.7291 34.6403 49.7295 34.85 49.3197 35.0887C48.6962 35.4424 47.6548 35.443 47.0445 35.0892C46.6328 34.8513 46.6578 34.6554 47.0611 34.4242Z" fill="black"/>
<path d="M51.6612 33.0799C52.6133 33.6312 54.109 33.6306 55.068 33.0815C55.0707 33.0799 55.0735 33.0782 55.0763 33.0766C56.2353 32.3892 56.2432 31.1146 55.0906 30.4459C54.1261 29.8948 52.6253 29.8954 51.6706 30.4487C50.5083 31.1307 50.485 32.3906 51.6612 33.0799ZM52.2411 31.4271C52.848 31.0747 53.917 31.0793 54.5257 31.4271C54.9023 31.6453 54.9252 31.8481 54.5025 32.1009C53.879 32.4547 52.8392 32.4552 52.2312 32.1015C51.8032 31.8514 51.8467 31.6576 52.2411 31.4271Z" fill="black"/>
<path d="M30.9218 45.0573C31.8719 45.608 33.3654 45.6035 34.328 45.0479C35.5091 44.3732 35.5035 43.0912 34.3556 42.4261C33.3789 41.8551 31.9063 41.854 30.9362 42.4234C29.7752 43.0864 29.7536 44.3636 30.9218 45.0573ZM31.5028 43.4034C32.1224 43.0409 33.1666 43.0418 33.7863 43.4045C34.1933 43.6404 34.1649 43.837 33.7664 44.0651L33.763 44.0667C33.1539 44.4205 32.0904 44.4255 31.495 44.0811C31.1107 43.8526 31.0693 43.6516 31.5028 43.4034Z" fill="black"/>
<path d="M25.7368 48.0461C26.6919 48.5993 28.19 48.6 29.1463 48.0461L29.1491 48.0445C30.3307 47.3518 30.3085 46.0738 29.1739 45.4172C28.2315 44.8561 26.7285 44.8539 25.749 45.4138C24.5987 46.0799 24.5715 47.3528 25.7368 48.0461ZM26.3133 46.395C26.6251 46.217 27.0491 46.1275 27.4692 46.1275C27.8876 46.1275 28.3022 46.2159 28.6013 46.3934C29.0048 46.6267 28.9843 46.8272 28.5786 47.0672C27.9716 47.416 26.9103 47.4176 26.31 47.0699C25.9276 46.842 25.8948 46.6377 26.3133 46.395Z" fill="black"/>
</svg>
