<svg width="93" height="92" viewBox="0 0 93 92" fill="none" xmlns="http://www.w3.org/2000/svg">
<rect x="0.5" width="92" height="92" rx="46" fill="white"/>
<path d="M62.5829 58.3659L62.4823 23.0416C62.4814 22.8785 62.3136 22.6197 62.2004 22.554L62.199 22.5533C59.2356 20.8309 55.78 18.8224 55.9253 18.9068C55.7528 18.8051 55.535 18.8051 55.3582 18.9057L30.7001 33.1418C30.5232 33.2443 30.4171 33.4328 30.4171 33.6316L30.4174 33.6327L30.4171 33.6338L30.5177 68.9586C30.5188 69.1598 30.625 69.3455 30.7996 69.4462C30.9142 69.5127 37.1901 73.1596 37.0755 73.093L37.0769 73.0944C37.2515 73.195 37.4672 73.1945 37.6418 73.0939L43.4714 69.7286C43.7422 69.5722 43.8351 69.2262 43.6781 68.9553C43.5222 68.6839 43.1751 68.5916 42.9053 68.748L37.9226 71.6246L37.8265 37.605C43.3539 34.4139 55.7786 27.2407 61.3535 24.0222L61.4497 58.0414L47.0644 66.3468C46.7935 66.5032 46.7006 66.8492 46.8576 67.1201C47.0135 67.3921 47.3596 67.4822 47.6304 67.3274L62.2999 58.8578C62.4756 58.7561 62.584 58.5687 62.5829 58.3659ZM55.6401 20.05L60.7871 23.0414L37.2601 36.6246L32.113 33.6338L55.6401 20.05ZM31.6487 68.6308L31.5525 34.6172C31.6734 34.6874 37.0185 37.7932 36.6942 37.6047C36.7166 45.6253 36.7664 63.3831 36.7895 71.6185L31.6487 68.6308Z" fill="black"/>
<path d="M45.028 68.8298L46.1479 68.1836C46.4188 68.0272 46.5116 67.6811 46.3546 67.4103C46.1987 67.1394 45.8527 67.0466 45.5819 67.203L44.4619 67.8492C44.1911 68.0056 44.0982 68.3517 44.2552 68.6225C44.41 68.8926 44.7558 68.9861 45.028 68.8298Z" fill="black"/>
<path d="M59.7804 50.1052L59.7173 27.8451C59.7162 27.6434 59.609 27.4571 59.4332 27.3559C59.2585 27.2553 59.043 27.2559 58.8683 27.3565L39.759 38.3904C39.5832 38.4921 39.4749 38.6795 39.476 38.8823L39.539 61.1419C39.5401 61.3436 39.6473 61.5299 39.8231 61.6311C39.9977 61.7316 40.2134 61.7311 40.388 61.6305L59.4973 50.5972C59.6731 50.4955 59.7815 50.3081 59.7804 50.1052ZM58.5886 28.8258L58.6472 49.7808L58.3257 49.9664L54.5954 45.7599C54.4671 45.6156 54.267 45.5438 54.0835 45.5764C53.8922 45.6068 53.7297 45.7323 53.6523 45.9097L51.5962 50.6383L47.5995 46.1352C47.4712 45.9904 47.2734 45.9208 47.0876 45.9523C46.8964 45.9827 46.7338 46.1081 46.6576 46.285L40.6675 60.0511L40.6091 39.2068L58.5886 28.8258ZM52.2804 51.9034C52.2803 51.9035 52.2804 51.9033 52.2804 51.9034L54.3367 47.1744L57.3249 50.5436C57.0712 50.69 51.1246 54.1222 51.3793 53.9752L52.2804 51.9034ZM49.731 54.9271L42.252 59.2453L47.3408 47.5498L51.0984 51.7833C51.0426 51.9115 49.6421 55.1313 49.731 54.9271Z" fill="black"/>
<path d="M51.5241 45.5714C52.6065 44.9462 53.4522 43.4792 53.4478 42.2321C53.4455 40.748 52.2348 40.0455 50.9481 40.7888C49.8603 41.4173 49.0101 42.8899 49.0123 44.1419C49.017 45.6179 50.2243 46.3224 51.5241 45.5714ZM51.5142 41.7694C52.0145 41.48 52.3133 41.5924 52.3157 42.2349C52.3179 43.0856 51.6966 44.1646 50.9581 44.5908C50.4318 44.8972 50.1468 44.7556 50.1444 44.1392C50.1422 43.2846 50.7701 42.1989 51.5142 41.7694Z" fill="black"/>
<path d="M42.3427 43.3001C42.5019 43.5643 42.88 43.6262 43.1475 43.4725C43.5986 43.2111 43.9081 43.509 43.9424 43.5433C44.2221 43.823 44.6929 43.7359 44.8567 43.3802C45.216 42.6008 45.6184 42.0525 45.9887 41.8369C46.0042 41.8286 46.0838 41.7722 46.0982 41.7623C46.3447 41.587 46.3768 41.272 46.2132 41.0177C46.0495 40.764 45.6825 40.7081 45.4205 40.8585C44.9484 41.1321 44.5106 41.6307 44.1126 42.3432C43.6638 42.1785 43.1121 42.1851 42.5605 42.5046L42.4864 42.5516C42.2255 42.7169 42.1824 43.0364 42.3427 43.3001Z" fill="black"/>
<path d="M54.3964 44.2669C54.5556 44.5305 54.9281 44.5969 55.1957 44.4432C55.5108 44.2608 55.7264 44.4642 55.7496 44.4885C56.0281 44.7656 56.4988 44.6834 56.6639 44.3238C56.9557 43.6898 57.2774 43.2464 57.5715 43.0751C57.5859 43.0673 57.6544 43.0198 57.6677 43.011C57.9153 42.8368 57.9551 42.5173 57.7915 42.262C57.629 42.006 57.2664 41.9441 57.0033 42.0967C56.6086 42.3255 56.2437 42.7313 55.9143 43.3067C55.5285 43.189 55.0686 43.2083 54.6086 43.4753L54.5467 43.5145C54.2858 43.6798 54.2372 44.0032 54.3964 44.2669Z" fill="black"/>
<path d="M51.01 38.099C51.429 37.8575 51.8049 37.9973 51.9984 38.1908C52.2767 38.4691 52.7479 38.385 52.9127 38.0272C53.3239 37.1322 53.7894 36.501 54.2216 36.2495C54.2371 36.2406 54.3267 36.1776 54.341 36.1671C54.5865 35.9913 54.6141 35.6801 54.4494 35.4264C54.2869 35.1732 53.9154 35.1185 53.6534 35.2711C53.1183 35.5812 52.6219 36.1544 52.172 36.9786C51.6756 36.7763 51.0487 36.7663 50.4263 37.1295L50.3423 37.182C50.0803 37.3456 50.0394 37.6629 50.1986 37.9277C50.3567 38.1902 50.7392 38.2544 51.01 38.099Z" fill="black"/>
</svg>
