<svg width="93" height="92" viewBox="0 0 93 92" fill="none" xmlns="http://www.w3.org/2000/svg">
<rect x="0.5" width="92" height="92" rx="46" fill="white"/>
<path d="M66.0858 52.7778C61.0019 49.8163 61.5153 50.1154 61.4785 50.0941C59.5758 49.0068 57.3255 49.5156 55.4135 50.627C53.4283 51.7675 51.5093 53.7268 50.0947 56.0298L45.5281 55.5226C45.5103 54.9749 45.474 54.604 45.3556 54.0689C45.7403 53.5802 45.6361 53.7126 54.8566 42C55.4704 42.2977 56.1437 42.4531 56.8656 42.4531C58.0215 42.4531 59.2939 42.0723 60.6101 41.3161C65.9017 38.2428 69.3336 30.6459 68.4484 26.106C68.0986 23.7675 66.8384 22.1665 65.0001 21.6873L61.4254 19.6093C59.3257 18.3853 57.3832 18.7401 55.3322 19.926C50.9211 22.4832 47.3519 28.6714 47.3751 33.7177C47.3751 34.0492 47.3963 34.3682 47.4235 34.6862L37.4034 47.3807C37.3406 47.3624 37.2811 47.3362 37.2163 47.3208C35.7746 46.9461 34.0826 47.2855 32.3187 48.3064C27.9126 50.8425 24.3367 57.0253 24.3483 62.0876C24.3483 64.6557 25.2499 66.5832 26.8822 67.5119C30.3209 69.5187 31.3993 70.164 31.5139 70.2122C33.4049 71.3319 35.6812 70.7987 37.5955 69.6976C39.5771 68.5454 41.2886 66.7108 42.5631 64.8054L47.5215 65.3587C47.7247 67.4188 48.5843 68.9967 49.9886 69.8219L54.5617 72.4824L54.5651 72.4833C58.1002 74.6405 62.7943 71.2094 65.3601 67.5898C67.0952 65.161 68.2289 62.3745 68.5512 59.7527C68.9025 57.1693 68.3902 54.0405 66.0858 52.7778ZM55.9801 51.607C57.5176 50.714 59.3683 50.1903 60.9125 51.0747L62.9523 52.2634C61.9645 52.4123 60.9436 52.8258 60.0778 53.3322C57.9834 54.5361 56.134 56.551 54.8563 58.5697L51.1699 56.4316C52.4744 54.367 54.2046 52.6274 55.9801 51.607ZM43.1503 50.5612L51.4359 40.0422L53.8554 41.4499L44.9567 52.7474C44.5442 51.7849 43.8513 50.999 43.1503 50.5612ZM48.9577 38.3791C49.6497 39.1037 50.0485 39.2002 50.447 39.4677C49.6398 40.4922 42.9355 49.0021 42.1611 49.985C42.0464 49.9186 38.3604 47.7838 38.4751 47.8502L47.6962 36.1676C47.9262 36.9235 48.3833 37.7773 48.9577 38.3791ZM45.5205 56.6605L50.1975 57.1756L52.4305 58.4788L45.4105 57.6973C45.4233 57.6106 45.4349 57.5244 45.4459 57.4382C45.4796 57.1723 45.5045 56.9125 45.5205 56.6605ZM67.3329 26.2973C68.1437 30.4764 64.8483 37.5444 60.0441 40.336C56.2871 42.493 53.1714 40.8952 53.1714 36.4229C53.1714 30.7927 57.6982 24.4042 61.9472 22.9845C62.924 22.6263 63.825 22.5478 64.6337 22.7557C66.0836 23.0978 67.0405 24.3471 67.3329 26.2973ZM55.8999 20.9056C57.6183 19.9121 59.1393 19.5893 60.8561 20.5877L62.6277 21.6175C62.6019 21.6226 62.5751 21.6344 62.5492 21.6398C62.2283 21.7071 61.9034 21.7948 61.573 21.9166C56.8232 23.4982 52.0278 30.4032 52.0278 36.4229C52.0278 37.4156 52.1984 38.4823 52.5363 39.367C51.8876 38.99 50.3184 38.0736 50.3125 38.0708C48.9263 37.1118 48.5072 35.3884 48.5072 33.7149C48.4856 29.028 51.8022 23.2814 55.8999 20.9056ZM27.4477 66.5313C26.1791 65.8094 25.4804 64.2312 25.4804 62.0865C25.4699 57.3846 28.7909 51.643 32.8847 49.2865C34.1003 48.5838 35.5836 48.0651 36.9432 48.4197C37.7222 48.6013 38.0445 48.9695 39.8414 49.9498C39.8198 49.9526 39.7983 49.9559 39.7767 49.9592C34.4183 50.8506 28.9982 58.5105 29.0126 64.8044C29.0126 65.7819 29.1553 66.8184 29.5162 67.7396L27.4477 66.5313ZM37.0289 68.7175C33.044 71.0072 30.1447 69.1177 30.1447 64.8033C30.1309 58.658 35.4488 51.8301 39.9547 51.0769C43.6998 50.5131 44.9532 54.2914 44.1917 58.0916C43.4361 62.2314 40.4408 66.7338 37.0289 68.7175ZM43.4816 63.2784C44.1706 62.0223 44.8321 60.4822 45.2003 58.8134L54.131 59.8075C53.3424 61.2819 52.6677 63.059 52.3589 64.7594C52.245 64.7467 42.6211 63.6732 43.2326 63.7415C43.322 63.5891 43.3971 63.4324 43.4816 63.2784ZM50.5602 68.8446C49.5303 68.2394 48.8698 67.0608 48.6658 65.4882L52.1886 65.8796C52.1839 65.921 52.1858 65.9636 52.1815 66.0051C52.1438 66.3722 52.1184 66.7419 52.1184 67.1139C52.1184 68.1779 52.2992 69.1543 52.5125 69.7468C52.549 69.8507 52.5855 69.9507 52.6225 70.0447L50.5602 68.8446ZM67.4285 59.6067C67.1278 62.0522 66.0659 64.6535 64.438 66.9337C62.3134 69.93 58.1092 73.3414 55.1388 71.5084C54.2783 70.9912 53.2505 69.2765 53.2505 67.1139C53.2505 62.392 56.5781 56.6485 60.6455 54.3117C61.716 53.6861 63.026 53.215 64.2584 53.3543C67.0785 53.726 67.8136 56.7869 67.4285 59.6067Z" fill="black"/>
<path d="M62.4937 30.7742L62.4928 30.7714L62.4908 30.7691L60.656 27.6239C60.5443 27.4316 60.3315 27.3221 60.1065 27.3464C59.8843 27.3708 59.6969 27.5228 59.6284 27.7356L57.0022 35.8762C56.8849 36.2409 57.1565 36.6159 57.5411 36.6159C57.7805 36.6159 58.0027 36.4633 58.0801 36.2234L58.9722 33.4579L61.7976 31.8265L62.5697 33.15C62.7267 33.4203 63.0749 33.5126 63.3435 33.3534C63.6133 33.1964 63.7045 32.8493 63.547 32.5795L62.4937 30.7742ZM59.4905 31.8512L60.3171 29.2889L61.227 30.8485L59.4905 31.8512Z" fill="black"/>
<path d="M62.2225 64.6674C61.9881 64.9382 61.4713 65.3943 60.7869 65.7889C59.3308 66.6298 58.694 66.1201 58.6897 64.4916C58.6842 62.5326 59.8185 60.5597 61.5122 59.5819C62.2556 59.1518 62.6172 59.1452 62.6249 59.1452C62.935 59.1596 63.1998 58.9125 63.2108 58.6002C63.2224 58.2878 62.9781 58.0253 62.6658 58.0142C62.464 58.007 61.9008 58.049 60.9461 58.6013C58.9125 59.7753 57.551 62.144 57.5576 64.4949C57.5647 67.0559 59.1678 68.03 61.353 66.7696C62.1578 66.3052 62.7714 65.7624 63.0782 65.4092C63.2827 65.1732 63.2573 64.8155 63.0212 64.6104C62.7852 64.4059 62.4281 64.4313 62.2225 64.6674Z" fill="black"/>
<path d="M39.6767 60.8079C39.6767 60.0341 39.3004 59.4999 38.9122 59.285C39.273 58.7682 39.5367 58.1006 39.6208 57.5869C39.9191 55.7783 38.6065 54.8322 37.187 55.6533L35.1605 56.8191C34.9847 56.9208 34.8764 57.1088 34.877 57.3116C34.8773 57.4256 34.9009 65.2241 34.8996 64.7945C34.9002 64.9968 35.0085 65.1831 35.1843 65.2837C35.354 65.3821 35.5714 65.3864 35.7498 65.282L37.7751 64.1058C38.8971 63.4583 39.6767 61.9642 39.6767 60.8079ZM37.7541 56.6334C38.5599 56.1611 38.676 56.9222 38.4316 57.7308C38.2681 58.2719 37.7133 59.1003 37.198 59.4006L36.0173 60.0798L36.0101 57.6367L37.7541 56.6334ZM37.208 63.1262L36.0284 63.8111L36.0212 61.3843C36.1344 61.3192 37.8805 60.3145 37.7673 60.3797L37.7685 60.379C38.2497 60.0941 38.5446 60.2147 38.5446 60.8079C38.5446 61.635 37.9262 62.7107 37.208 63.1262Z" fill="black"/>
</svg>
