<svg width="93" height="92" viewBox="0 0 93 92" fill="none" xmlns="http://www.w3.org/2000/svg">
<path d="M24.4665 57.9918C24.4335 57.9655 24.4106 57.9309 24.3731 57.9091L19.3317 54.9815C18.2968 54.373 16.9229 54.4747 15.5701 55.2638C13.0588 56.7131 11.1034 60.1162 11.1195 63.0056C11.1195 64.5592 11.6874 65.7484 12.724 66.3586L17.7696 69.2887C17.7709 69.2895 17.7725 69.2891 17.7737 69.2899C17.7744 69.2903 17.7749 69.2908 17.7756 69.2913C18.9571 69.9699 20.3336 69.6827 21.5083 69.0048C24.0248 67.552 25.9895 64.1481 25.981 61.2553C25.9791 60.5622 25.8471 59.9572 25.6288 59.4294L33.0461 55.149C33.6553 56.6241 34.5948 57.7795 35.8511 58.51L37.9314 59.7214L29.6094 74.1511L27.5617 72.9621C26.5294 72.3612 25.169 72.4663 23.8332 73.2452C22.6373 73.9335 21.5049 75.1159 20.6412 76.5813C19.5004 78.5613 19.0842 80.7133 19.5275 82.3372C19.775 83.2467 20.2819 83.94 20.9853 84.3392C22.4396 85.1864 26.2123 87.3828 26.0259 87.277C27.2125 87.9506 28.587 87.6646 29.7595 86.9879C32.6946 85.294 34.875 80.9003 34.0593 77.8917C33.8135 76.9822 33.3075 76.2881 32.5989 75.8846C32.5952 75.8825 32.5909 75.8823 32.5872 75.8802L31.1108 75.0228L39.4316 60.5951L40.8696 61.4325C40.8747 61.435 40.879 61.4376 40.884 61.441C40.8859 61.442 40.8882 61.4415 40.8901 61.4425C40.8967 61.4464 40.9021 61.4515 40.9086 61.4554C42.5822 62.4172 44.3414 62.4733 46.2002 62.0236L46.2265 70.6191C45.4145 70.5295 44.5157 70.7209 43.6158 71.2449C41.0959 72.6994 39.1346 76.1016 39.1507 78.9868C39.1507 80.5048 39.7313 81.7244 40.7569 82.3398L45.7763 85.2411C45.7773 85.2417 45.7786 85.2423 45.7797 85.243C45.7897 85.2489 45.7966 85.259 45.8068 85.2648C46.9841 85.942 48.3622 85.6645 49.554 84.9766C52.0704 83.5239 54.0351 80.1242 54.0267 77.2374C54.0226 75.7489 53.4835 74.6133 52.5304 73.9891C52.4921 73.9568 52.4636 73.9163 52.4188 73.8902L47.9644 71.3036L47.9343 61.456C48.4462 61.2389 48.9625 60.9906 49.4845 60.6891C52.6142 58.8824 55.4445 55.7716 57.4842 52.2156L60.1853 53.7576C60.1834 53.7609 60.1812 53.7637 60.1793 53.7669C59.0333 55.7562 58.6155 57.9116 59.0613 59.5322C59.3105 60.4391 59.8199 61.1299 60.5242 61.5266L65.4978 64.4092C65.5076 64.415 65.5179 64.4207 65.5278 64.4266C65.5386 64.4328 65.5472 64.442 65.558 64.4482C66.7354 65.1289 68.1163 64.8418 69.2899 64.1651C70.5011 63.4658 71.6293 62.2801 72.4658 60.8265C73.6075 58.8474 74.0262 56.6962 73.5855 55.0697C73.342 54.1698 72.8428 53.4829 72.1472 53.0787C72.1409 53.0748 72.1376 53.0681 72.131 53.0643C72.1293 53.0626 72.1268 53.0618 72.1242 53.0601L67.0837 50.1249C66.0445 49.5485 64.724 49.6528 63.3526 50.4198C62.5733 50.8744 61.8406 51.5416 61.1893 52.3322L58.2965 50.6807C59.8261 47.5758 60.7431 44.2401 60.7344 41.1905C60.7325 40.5094 60.6714 39.8715 60.5816 39.2567L69.064 34.3348L73.6601 37.0111C73.6635 37.013 73.6673 37.012 73.6707 37.014C73.6721 37.0148 73.673 37.0162 73.6745 37.017C74.8541 37.6968 76.2377 37.4067 77.4081 36.7314C79.9245 35.2786 81.8892 31.8739 81.8808 28.9811C81.8766 27.4542 81.3174 26.291 80.317 25.6788C80.2985 25.6659 80.2875 25.6464 80.2678 25.6348C80.2636 25.6323 80.2585 25.6289 80.2542 25.6264L75.2306 22.7013C74.1898 22.1013 72.8591 22.2013 71.475 22.987C68.9721 24.4313 67.0108 27.8318 67.0108 30.7288C67.0108 31.687 67.2614 32.4968 67.6785 33.1314L60.1874 37.4779C59.6118 35.7117 58.5899 34.3568 57.1811 33.5204C57.1639 33.5087 57.1539 33.4907 57.1356 33.4801C57.1347 33.4801 57.1339 33.4792 57.133 33.4792L55.6115 32.5972L63.9374 18.1614C63.9922 18.1931 63.6048 17.9685 65.4532 19.0386C66.6337 19.7068 67.996 19.418 69.1619 18.7457C70.3723 18.0473 71.5004 16.8615 72.337 15.4079C73.7979 12.8754 74.3966 9.01197 71.9963 7.64405C71.9919 7.64161 71.9867 7.64129 71.9824 7.63885L66.965 4.71734C65.936 4.12827 64.613 4.22829 63.2238 5.00722C62.0126 5.7141 60.8861 6.89733 60.0504 8.33991C58.9053 10.3283 58.4875 12.4829 58.9325 14.1035C59.1808 15.0104 59.6902 15.7029 60.3945 16.0987L62.437 17.2878L54.1094 31.7265L52.106 30.5652C50.8544 29.8365 49.396 29.5875 47.8244 29.7812L47.7993 21.3154C48.3105 21.2187 48.834 21.0546 49.3717 20.7443C51.8882 19.2915 53.8529 15.891 53.8444 13.0042C53.8404 11.5267 53.3085 10.3991 52.3678 9.77137C52.0957 9.52426 52.9107 10.0733 47.1909 6.73798C46.1577 6.12942 44.7914 6.22774 43.4429 7.00751C40.9315 8.46281 38.9651 11.8684 38.9651 14.762C38.9651 16.3013 39.5389 17.4862 40.5832 18.0998L45.6144 21.0299C45.6181 21.032 45.6223 21.031 45.6261 21.0331C45.7643 21.1123 45.9156 21.1567 46.063 21.2116L46.0897 30.1633C42.1535 31.4123 38.7609 34.7872 36.4561 38.2537L33.5637 36.6029C34.1054 35.1273 34.2522 33.6591 33.9305 32.4723C33.6905 31.5842 33.1991 30.9058 32.5156 30.4987C32.2292 30.3105 29.7167 28.8661 27.4219 27.5283C26.6997 27.1215 25.8259 27.0452 24.8944 27.3156C24.4333 27.4478 24.1672 27.9284 24.2994 28.3886C24.4316 28.8506 24.9181 29.1175 25.3724 28.9836C25.7047 28.8896 26.1819 28.8217 26.5607 29.0345L29.1476 30.5381C27.6914 31.2122 26.3579 32.7114 25.5564 34.0937C24.7968 35.4088 24.1687 37.3768 24.2791 38.9105L21.721 37.4213C20.7921 36.8941 20.709 34.954 21.5329 33.0054C21.7194 32.5638 21.5134 32.0544 21.0718 31.868C20.6302 31.6832 20.1208 31.8875 19.9343 32.329C18.7147 35.2134 19.0978 37.9282 20.8565 38.9266C20.86 38.9287 20.6912 38.8297 25.9271 41.8697C27.1139 42.5277 28.4671 42.2408 29.6341 41.5668C30.847 40.8667 31.9751 39.681 32.81 38.2282C32.8184 38.2135 32.8229 38.1981 32.8314 38.1834L35.5363 39.7273C33.4977 43.2558 32.2387 47.2276 32.2463 50.8021C32.2504 51.7497 32.3452 52.6325 32.5176 53.4495L24.5417 58.0523C24.5151 58.034 24.4937 58.0094 24.4665 57.9918ZM21.8499 82.8339C21.5456 82.661 21.3269 82.3406 21.2023 81.8813C20.8828 80.7107 21.2447 79.0113 22.1406 77.4552C22.85 76.2516 23.7586 75.2913 24.7037 74.748C25.2912 74.4045 26.1067 74.1225 26.6896 74.4632L29.2713 75.9617C27.8113 76.66 26.5019 78.1047 25.6852 79.5131C24.7654 81.1 24.3183 83.0679 24.407 84.324L21.8499 82.8339ZM28.8916 85.4843C27.7218 86.1601 26.5982 86.1429 26.2404 84.8156C25.8632 83.4244 26.4719 81.6266 27.1882 80.3824C27.8687 79.2086 28.7976 78.2238 29.7358 77.6815C30.9138 77.0008 32.0268 77.0205 32.3836 78.3451C32.9671 80.497 31.2309 84.135 28.8916 85.4843ZM48.686 83.473C47.1894 84.3351 45.9276 83.8644 45.9221 81.916C45.9161 79.644 47.6252 76.7705 49.5319 75.6769C51.1052 74.7636 52.2853 75.2855 52.2908 77.2424C52.2976 79.4877 50.6465 82.3415 48.686 83.473ZM46.2011 76.4212C45.049 77.9446 44.182 80.0898 44.182 81.927C44.1837 82.0618 44.1896 82.1949 44.1989 82.3245L41.6375 80.8438C41.1604 80.5573 40.8866 79.8801 40.8866 78.9817C40.8739 76.7356 42.5207 73.8809 44.4863 72.7469C44.9889 72.4544 45.4652 72.3044 45.8704 72.3044C46.3883 72.3044 48.1669 73.4569 49.0742 73.9555C47.9335 74.5084 46.9779 75.3938 46.2011 76.4212ZM70.9622 59.9594C70.285 61.1358 69.3586 62.1207 68.422 62.6615C66.9652 63.5049 66.0542 63.0237 65.7741 61.9961C65.3316 60.3809 66.2161 58.1519 67.2813 56.7069C68.7379 54.7444 71.3098 53.3086 71.9106 55.524C72.2276 56.6962 71.8649 58.3956 70.9622 59.9594ZM64.2146 51.9268C64.8091 51.5927 65.6287 51.3046 66.2268 51.6344L68.8034 53.1347C68.0037 53.5193 67.2782 54.0993 66.676 54.7318C64.7179 56.784 63.8063 59.6499 63.94 61.5003L61.3854 60.0187C61.0794 59.8466 60.8607 59.5288 60.7353 59.072C60.1373 56.8967 61.9192 53.2656 64.2146 51.9268ZM76.5401 35.2278C74.8 36.2331 73.7923 35.431 73.7923 33.6547C73.7871 32.7327 74.0693 31.7133 74.5269 30.7489C75.1895 29.3581 76.2266 28.0856 77.3818 27.419C78.9692 26.5007 80.1394 27.0278 80.1449 28.9862C80.1517 31.2374 78.5006 34.0963 76.5401 35.2278ZM72.3378 24.4931C72.9385 24.152 73.7627 23.859 74.3602 24.2033L76.9249 25.6967C76.7859 25.7628 76.6461 25.8366 76.5071 25.9179C75.0148 26.7792 73.7307 28.3349 72.9281 30.058C72.351 31.2932 71.9738 32.6758 72.0708 34.0768L69.4933 32.5765C69.0187 32.3062 68.7466 31.6332 68.7466 30.7288C68.7466 28.4717 70.3935 25.6153 72.3378 24.4931ZM70.8334 14.5408C70.1562 15.7173 69.2306 16.7022 68.294 17.2421C67.1719 17.8943 66.0054 17.9058 65.6436 16.5682C65.3266 15.396 65.6928 13.6992 66.5997 12.1379C67.4729 10.6301 69.7355 8.37614 71.1266 9.14935L71.13 9.15105C71.132 9.15221 71.1353 9.15211 71.1373 9.15327C72.442 9.89818 71.8816 12.724 70.8334 14.5408ZM60.6064 13.6441C60.2861 12.4778 60.6497 10.7776 61.5532 9.20784C62.2296 8.04071 63.1577 7.05582 64.0858 6.51337C64.6782 6.18142 65.5066 5.88226 66.0979 6.22096L68.6754 7.72202C68.5439 7.78527 68.4133 7.85541 68.2818 7.93095C68.2771 7.93371 68.2725 7.93456 68.2677 7.93731C67.0574 8.63657 65.9293 9.81979 65.0927 11.2675C64.3455 12.5564 63.7046 14.5876 63.812 16.08L61.2565 14.5925C60.9506 14.4196 60.731 14.1009 60.6064 13.6441ZM48.5038 19.2407C46.8788 20.1804 45.7466 19.6039 45.7466 17.6879C45.7409 16.6783 46.0804 15.5521 46.6193 14.5093C47.2863 13.2239 48.2627 12.067 49.3455 11.4421C50.8661 10.562 52.1029 10.9987 52.1086 13.0092C52.1154 15.2553 50.4643 18.1091 48.5038 19.2407ZM41.4596 16.6013C40.9705 16.314 40.701 15.6605 40.701 14.762C40.701 12.5075 42.3546 9.64434 44.3117 8.51028C44.9121 8.16379 45.7252 7.89133 46.317 8.2382L48.8861 9.72317C48.7496 9.78758 48.6131 9.85878 48.4758 9.93676C47.0827 10.7409 45.8759 12.1488 45.0639 13.7303C44.4065 15.0075 44.0006 16.3958 44.004 17.6887C44.0044 17.8136 44.0119 17.921 44.0243 18.0947L41.4596 16.6013ZM28.7662 40.0632C27.9737 40.5226 27.2414 40.6269 26.7565 40.3489C25.3498 39.5473 26.2024 36.4513 27.0642 34.9625C27.9127 33.4803 30.0714 31.2048 31.58 31.9631C31.589 31.9679 31.6009 31.968 31.6098 31.9731C31.9132 32.146 32.1311 32.4664 32.2548 32.9257C32.8461 35.1063 31.0738 38.7312 28.7662 40.0632ZM58.9986 41.1956C59.017 47.7104 54.3931 55.8505 48.6165 59.1855C46.5121 60.3993 43.8782 61.1622 41.7749 59.9509C39.6925 58.7533 39.0287 56.118 39.0287 53.7254C39.0104 49.4091 41.0121 44.6535 43.5939 41.1514C45.2542 38.8994 47.2577 36.9865 49.415 35.7406C49.4275 35.7334 49.4395 35.7283 49.4519 35.7212C51.5429 34.5229 54.1935 33.7947 56.2473 34.9777C58.0128 35.994 58.9901 38.2019 58.9986 41.1956ZM44.3829 32.8105C46.4958 31.5933 49.127 30.8396 51.2339 32.0663L52.4213 32.7545C51.358 32.9415 49.94 33.4395 48.5888 34.2149C48.5745 34.2231 48.5605 34.2287 48.5462 34.2369C46.5992 35.3611 44.7673 36.9881 43.1695 38.9123C39.8724 42.8818 37.2722 48.5939 37.2869 53.7305C37.29 54.8388 37.4596 56.3385 37.8885 57.5865C37.9013 57.6238 37.9052 57.6688 37.9184 57.7057L36.7241 57.0098C34.6605 55.81 33.9924 53.195 33.9822 50.797C33.9685 44.1695 38.7049 36.0899 44.3829 32.8105ZM13.5995 64.8593C13.1198 64.577 12.8553 63.9184 12.8553 63.0005C12.8426 60.7493 14.4835 57.8947 16.4406 56.7657C17.0398 56.4171 17.8661 56.133 18.4562 56.4809L21.0294 57.9743C20.9224 58.0263 20.8147 58.0859 20.7069 58.1465C18.3059 59.4732 16.4804 62.4962 16.2066 65.2114C16.1636 65.628 16.1278 65.8277 16.1668 66.3502L13.5995 64.8593ZM20.6404 67.5012C19.8499 67.9586 19.1205 68.063 18.6416 67.7862C17.8862 67.3374 17.821 66.1661 17.9443 65.2273C18.2452 62.9769 19.8777 60.6185 21.4863 59.6966C23.0699 58.7761 24.2396 59.2938 24.2451 61.2604C24.2519 63.5116 22.6008 66.3696 20.6404 67.5012Z" fill="white"/>
<path d="M22.7552 30.9526C23.0324 30.6025 23.3265 30.2881 23.6299 30.0194C23.9884 29.7007 24.0206 29.1523 23.7028 28.7938C23.3816 28.4336 22.8332 28.403 22.4772 28.7209C22.0992 29.0574 21.7347 29.4456 21.394 29.8745C21.0965 30.2499 21.16 30.7958 21.5355 31.0941C21.9092 31.3903 22.4567 31.3294 22.7552 30.9526Z" fill="white"/>
<path d="M50.8703 46.5515C50.2142 46.1802 49.3777 46.2387 48.575 46.71C48.2758 46.8846 48.0698 46.893 48.0063 46.8575C47.952 46.8261 47.8478 46.6718 47.8444 46.3091C47.8351 45.3377 48.5665 44.0536 49.4082 43.5595C49.7023 43.3874 49.904 43.3756 49.9701 43.4146C50.0244 43.4451 50.1286 43.6002 50.132 43.9647C50.1363 44.4418 50.5244 44.8249 50.9999 44.8249H51.0076C51.4873 44.8207 51.8721 44.4283 51.8679 43.9494C51.8594 43.0196 51.4797 42.2746 50.8262 41.9042C50.5256 41.734 50.1848 41.6655 49.829 41.6743L49.8218 40.6515C49.8184 40.1734 49.4641 39.8649 48.9479 39.7895C48.4682 39.7928 48.0826 40.1844 48.086 40.6633L48.098 42.3652C46.942 43.2745 46.0957 44.9111 46.1085 46.3252C46.1179 47.2533 46.4976 47.9974 47.1502 48.3678C47.8062 48.7365 48.6445 48.6806 49.4531 48.2068C49.7709 48.0195 49.9591 48.0305 50.015 48.0619C50.0693 48.0932 50.1735 48.2475 50.1769 48.6128C50.1863 49.579 49.459 50.8589 48.6199 51.3513C48.3216 51.5251 48.1165 51.5344 48.0495 51.4988C47.9961 51.4683 47.8927 51.3149 47.8893 50.9555C47.8842 50.4792 47.4969 50.0961 47.0214 50.0961H47.0129C46.5332 50.1011 46.1484 50.4936 46.1535 50.9725C46.1628 51.8972 46.5417 52.6397 47.1943 53.0092C47.4799 53.1711 47.8003 53.2508 48.1377 53.2508C48.1489 53.2508 48.161 53.2458 48.1723 53.2456L48.1792 54.2772C48.1826 54.7544 48.5708 55.1392 49.0471 55.1392H49.053C49.5319 55.1358 49.9184 54.7451 49.915 54.2653L49.9037 52.564C51.0701 51.6602 51.9265 50.0156 51.9128 48.5967C51.9043 47.6677 51.5246 46.9219 50.8703 46.5515Z" fill="white"/>
</svg>
