<svg width="550" height="256" viewBox="0 0 550 256" fill="none" xmlns="http://www.w3.org/2000/svg">
<path d="M442.823 183.808V122.248H430.359V101.728H442.823V94.736C442.823 87.744 445.001 82.3733 449.359 78.624C453.817 74.8747 460.1 73 468.207 73H485.383V89.872H475.047C472.919 89.872 471.297 90.328 470.183 91.24C469.068 92.152 468.511 93.7733 468.511 96.104V101.728H484.167V122.248H468.511V183.808H442.823Z" fill="white"/>
<path d="M370.522 184.872C362.517 184.872 356.133 182.795 351.37 178.64C346.709 174.485 344.378 168.963 344.378 162.072C344.378 157.816 345.189 154.067 346.81 150.824C348.431 147.48 350.711 144.693 353.65 142.464C356.69 140.133 360.338 138.411 364.594 137.296C368.85 136.181 373.613 135.624 378.882 135.624H396.362V150.52H384.202C381.162 150.52 378.629 150.925 376.602 151.736C374.575 152.445 373.005 153.509 371.89 154.928C370.877 156.245 370.37 157.816 370.37 159.64C370.37 162.173 371.282 164.149 373.106 165.568C375.031 166.987 377.514 167.696 380.554 167.696C384.303 167.696 387.394 166.784 389.826 164.96C392.359 163.136 393.778 160.552 394.082 157.208V129.544C394.082 127.112 393.575 125.187 392.562 123.768C391.65 122.349 390.333 121.387 388.61 120.88C386.989 120.272 385.165 119.968 383.138 119.968C380.706 119.968 378.629 120.373 376.906 121.184C375.285 121.893 373.967 122.907 372.954 124.224C372.042 125.541 371.586 127.112 371.586 128.936H346.506C346.506 123.261 348.077 118.245 351.218 113.888C354.359 109.531 358.767 106.187 364.442 103.856C370.218 101.424 376.957 100.208 384.658 100.208C390.535 100.208 395.653 100.917 400.01 102.336C404.367 103.653 408.015 105.629 410.954 108.264C413.893 110.797 416.071 113.989 417.49 117.84C419.01 121.589 419.77 125.896 419.77 130.76V160.856C419.77 162.579 420.074 163.845 420.682 164.656C421.391 165.365 422.354 165.72 423.57 165.72H427.066V183.808H414.298C409.535 183.808 405.634 182.896 402.594 181.072C399.655 179.147 397.629 176.461 396.514 173.016H395.602C393.677 176.563 390.383 179.451 385.722 181.68C381.061 183.808 375.994 184.872 370.522 184.872Z" fill="white"/>
<path d="M298.211 185.328C289.496 185.328 282.048 183.605 275.867 180.16C269.787 176.613 265.125 171.699 261.883 165.416C258.64 159.133 257.019 151.787 257.019 143.376C257.019 134.56 258.64 126.909 261.883 120.424C265.227 113.939 269.939 108.973 276.019 105.528C282.099 101.981 289.192 100.208 297.299 100.208C306.925 100.208 314.829 102.336 321.011 106.592C327.192 110.747 331.6 116.472 334.235 123.768C336.971 131.064 337.883 139.373 336.971 148.696H282.251C282.149 152.445 282.757 155.637 284.075 158.272C285.493 160.805 287.368 162.781 289.699 164.2C292.131 165.517 294.968 166.176 298.211 166.176C302.061 166.176 305.101 165.467 307.331 164.048C309.661 162.629 311.232 160.755 312.043 158.424H336.211C335.501 163.896 333.424 168.659 329.979 172.712C326.635 176.664 322.227 179.755 316.755 181.984C311.283 184.213 305.101 185.328 298.211 185.328ZM282.251 135.32L280.123 133.04H314.019L311.739 135.32C311.941 131.773 311.435 128.835 310.219 126.504C309.104 124.173 307.432 122.4 305.203 121.184C302.973 119.968 300.339 119.36 297.299 119.36C294.157 119.36 291.472 120.019 289.243 121.336C287.013 122.552 285.291 124.376 284.075 126.808C282.859 129.24 282.251 132.077 282.251 135.32Z" fill="white"/>
<path d="M237.037 183.808C232.072 183.808 228.018 183.048 224.877 181.528C221.837 179.907 219.608 177.627 218.189 174.688C216.872 171.648 216.213 167.949 216.213 163.592V73H241.901V158.424C241.901 160.552 242.408 161.971 243.421 162.68C244.434 163.389 245.701 163.744 247.221 163.744H252.085V183.808H237.037Z" fill="white"/>
<path d="M169.613 79.3506C149.581 62.2246 120.147 58.6517 96.0133 72.584C82.8185 80.2089 73.3566 91.8159 68.2863 105.02C81.6408 116.437 101.263 118.812 117.353 109.531L169.623 79.3606L169.613 79.3506ZM149.341 188.344C174.194 179.562 192 155.859 192 127.994C192 112.754 186.67 98.7621 177.767 87.7639C161.199 93.6223 149.331 109.421 149.331 127.994V188.344H149.341ZM65.0724 116.297C60.2516 142.206 71.8794 169.482 96.0133 183.414C109.208 191.039 124 193.424 137.963 191.208C141.177 173.933 133.422 155.759 117.343 146.467L65.0724 116.297Z" fill="white"/>
</svg>
