<svg width="878" height="129" viewBox="0 0 878 129" fill="none" xmlns="http://www.w3.org/2000/svg">
<g clip-path="url(#clip0_1901_714)">
<path d="M174.15 118.8C169.25 118.8 165.27 118.03 162.22 116.47C159.17 114.92 156.97 112.67 155.62 109.72C154.27 106.77 153.59 103.15 153.59 98.8401V9.45011H178.94V93.7501C178.94 95.8501 179.44 97.2501 180.44 97.9501C181.44 98.6501 182.69 99.0001 184.19 99.0001H188.99V118.8H174.14H174.15ZM271.05 59.4701C268.35 52.2201 263.94 46.5501 257.85 42.4501C251.75 38.3501 243.95 36.3001 234.45 36.3001C226.44 36.3001 219.47 38.0201 213.52 41.4701C207.57 44.9201 202.95 49.8201 199.65 56.1701C196.35 62.5201 194.7 70.1501 194.7 79.0501C194.7 87.2501 196.3 94.4501 199.5 100.65C202.7 106.85 207.32 111.67 213.37 115.12C219.42 118.57 226.74 120.3 235.35 120.3C242.25 120.3 248.34 119.2 253.65 117C258.95 114.8 263.3 111.73 266.7 107.77C270.09 103.82 272.19 99.1001 273 93.6001H248.85C248.15 95.9001 246.67 97.7701 244.42 99.2201C242.17 100.67 239.15 101.4 235.35 101.4C232.14 101.4 229.35 100.72 226.95 99.3701C224.55 98.0201 222.72 96.0501 221.47 93.4501C220.22 90.8501 219.6 87.7501 219.6 84.1501H273.6C274.59 74.9501 273.75 66.7301 271.05 59.4701ZM219.73 68.7001C219.83 66.3601 220.33 64.3101 221.25 62.5501C222.45 60.2501 224.17 58.4501 226.42 57.1501C228.67 55.8501 231.35 55.2001 234.45 55.2001C237.35 55.2001 239.9 55.8001 242.1 57.0001C244.3 58.2001 246 59.9201 247.2 62.1701C248.14 63.9301 248.65 66.1101 248.73 68.7001H219.73ZM359.84 100.95C358.64 100.95 357.72 100.57 357.07 99.8201C356.42 99.0701 356.09 97.8501 356.09 96.1501V66.4501C356.09 61.6501 355.37 57.3701 353.92 53.6201C352.47 49.8701 350.29 46.7201 347.39 44.1701C344.49 41.6201 340.89 39.6701 336.59 38.3201C332.29 36.9701 327.24 36.3001 321.44 36.3001C313.84 36.3001 307.22 37.4801 301.57 39.8201C295.92 42.1701 291.54 45.5001 288.44 49.8001C285.34 54.1001 283.79 59.0501 283.79 64.6501H308.54C308.54 62.8501 309.02 61.3001 309.97 60.0001C310.92 58.7001 312.22 57.6701 313.87 56.9201C315.52 56.1701 317.54 55.8001 319.94 55.8001C321.94 55.8001 323.77 56.0701 325.42 56.6201C327.07 57.1701 328.37 58.1501 329.32 59.5501C330.27 60.9501 330.74 62.8501 330.74 65.2501V71.2501H315.74C310.54 71.2501 305.84 71.8001 301.64 72.9001C297.44 74.0001 293.87 75.6701 290.92 77.9201C287.97 80.1701 285.69 82.9301 284.09 86.1701C282.49 89.4201 281.69 93.1501 281.69 97.3501C281.69 104.15 284.02 109.6 288.67 113.7C293.32 117.8 299.59 119.85 307.49 119.85C312.89 119.85 317.89 118.77 322.49 116.62C327.09 114.47 330.34 111.65 332.24 108.15H333.14C334.24 111.55 336.27 114.17 339.22 116.02C342.17 117.87 345.99 118.8 350.69 118.8H363.29V100.95H359.84ZM330.74 92.5501C330.44 95.8501 329.07 98.4001 326.62 100.2C324.17 102 321.09 102.9 317.39 102.9C314.39 102.9 311.97 102.2 310.12 100.8C308.27 99.4001 307.34 97.4501 307.34 94.9501C307.34 93.1501 307.87 91.5701 308.92 90.2201C309.97 88.8701 311.49 87.8201 313.49 87.0701C315.49 86.3201 317.99 85.9501 320.99 85.9501H330.74V92.5501ZM379.5 118.8V58.0501H367.2V37.6501H379.5V30.9001C379.5 24.0001 381.67 18.7001 386.02 15.0001C390.37 11.3001 396.54 9.45011 404.55 9.45011H421.5V26.1001H411.3C409.2 26.1001 407.6 26.5501 406.5 27.4501C405.4 28.3501 404.85 29.9501 404.85 32.2501V37.6501H420.3V58.0501H404.85V118.8H379.5ZM105.81 15.3801C85.7396 -1.77989 56.2496 -5.35989 32.0696 8.60011C18.8496 16.2401 9.36958 27.8701 4.28958 41.1001C17.6696 52.5401 37.3296 54.9201 53.4496 45.6201L105.82 15.3901L105.81 15.3801ZM85.4996 124.59C110.4 115.79 128.24 92.0401 128.24 64.1201C128.24 48.8501 122.9 34.8301 113.98 23.8101C97.3796 29.6801 85.4896 45.5101 85.4896 64.1201V124.59H85.4996ZM1.06958 52.4001C-3.76042 78.3601 7.88958 105.69 32.0696 119.65C45.2896 127.29 60.1096 129.68 74.0996 127.46C77.3196 110.15 69.5496 91.9401 53.4396 82.6301L1.06958 52.4001ZM461.55 121.3C455.88 121.3 450.74 120.63 446.27 119.31C441.78 117.99 437.86 116.09 434.63 113.68C431.38 111.25 428.81 108.32 427 104.95C425.18 101.57 424.26 97.7501 424.26 93.6001C424.26 93.0501 424.71 92.6001 425.26 92.6001H450.16C450.68 92.6001 451.11 92.9901 451.16 93.5101C451.34 95.4101 451.9 96.9701 452.83 98.1701C453.77 99.3801 454.99 100.22 456.57 100.76C458.21 101.32 460.09 101.61 462.17 101.61C465.44 101.61 467.87 101.07 469.39 99.9901C470.82 98.9801 471.52 97.6301 471.52 95.8601C471.52 94.2601 471.14 93.0901 470.41 92.3901C469.58 91.6101 468.24 90.9601 466.41 90.4501C464.46 89.9101 461.77 89.3901 458.43 88.9001C451.19 87.9001 445.15 86.4401 440.5 84.5601C435.73 82.6401 432.12 79.8901 429.77 76.3901C427.42 72.8901 426.23 68.3401 426.23 62.8601C426.23 57.3801 427.78 52.4701 430.85 48.3201C433.89 44.1901 438.2 40.9501 443.65 38.6901C449.05 36.4501 455.39 35.3101 462.48 35.3101C469.57 35.3101 475.32 36.4001 480.42 38.5401C485.56 40.7001 489.68 43.7801 492.68 47.7001C495.69 51.6501 497.32 56.2801 497.53 61.4701C497.54 61.7401 497.44 62.0101 497.25 62.2001C497.06 62.4001 496.8 62.5101 496.53 62.5101H471.63C471.08 62.5101 470.63 62.0601 470.63 61.5101C470.63 60.0301 470.28 58.8501 469.56 57.9201C468.83 56.9801 467.82 56.2501 466.55 55.7701C465.22 55.2701 463.59 55.0101 461.73 55.0101C459.15 55.0101 457.1 55.5301 455.63 56.5601C454.25 57.5201 453.58 58.8501 453.58 60.6101C453.58 62.0301 453.99 63.0901 454.83 63.8401C455.75 64.6701 457.37 65.3801 459.65 65.9301C462.06 66.5201 465.22 67.0701 469.06 67.5601C476.02 68.4701 481.76 69.9101 486.14 71.8401C490.61 73.8201 493.94 76.6001 496.04 80.1201C498.12 83.6201 499.18 88.1501 499.18 93.6101C499.18 99.5101 497.57 104.59 494.4 108.7C491.25 112.78 486.79 115.94 481.14 118.1C475.55 120.23 468.97 121.32 461.58 121.32L461.55 121.3ZM426.27 94.6001C426.4 98.0301 427.24 101.19 428.76 104C430.43 107.11 432.81 109.82 435.83 112.07C438.87 114.34 442.58 116.13 446.84 117.39C451.13 118.66 456.08 119.3 461.56 119.3C468.7 119.3 475.04 118.26 480.4 116.22C485.7 114.2 489.87 111.25 492.79 107.47C495.69 103.72 497.16 99.0501 497.16 93.6101C497.16 88.5201 496.2 84.3301 494.3 81.1501C492.42 78.0001 489.39 75.4801 485.3 73.6801C481.1 71.8301 475.54 70.4401 468.78 69.5601C464.87 69.0601 461.62 68.5001 459.15 67.8901C456.51 67.2401 454.65 66.4101 453.47 65.3401C452.21 64.2001 451.57 62.6101 451.57 60.6201C451.57 58.1901 452.55 56.2701 454.47 54.9201C456.29 53.6601 458.72 53.0201 461.72 53.0201C463.83 53.0201 465.69 53.3201 467.25 53.9101C468.87 54.5301 470.18 55.4701 471.14 56.7101C471.95 57.7601 472.43 59.0401 472.58 60.5201H495.47C495.11 56.1701 493.64 52.2801 491.09 48.9301C488.31 45.2901 484.46 42.4201 479.65 40.4001C474.8 38.3601 469.02 37.3301 462.49 37.3301C455.96 37.3301 449.58 38.4101 444.42 40.5501C439.31 42.6701 435.29 45.6901 432.47 49.5201C429.66 53.3301 428.24 57.8201 428.24 62.8801C428.24 67.9401 429.32 72.1301 431.45 75.3001C433.57 78.4701 436.88 80.9601 441.27 82.7301C445.77 84.5401 451.65 85.9601 458.73 86.9401C462.16 87.4501 464.92 87.9801 466.96 88.5401C469.14 89.1401 470.73 89.9301 471.81 90.9501C472.96 92.0401 473.55 93.7001 473.55 95.8801C473.55 98.3101 472.55 100.25 470.58 101.65C468.69 102.98 465.95 103.63 462.2 103.63C459.9 103.63 457.8 103.31 455.95 102.68C454.02 102.02 452.45 100.92 451.28 99.4201C450.27 98.1301 449.61 96.5201 449.31 94.6301H426.31L426.27 94.6001ZM558.74 119.8H539.24C531.6 119.8 525.89 117.96 522.26 114.33C518.63 110.7 516.79 104.94 516.79 97.2001V59.2001H503.84C503.29 59.2001 502.84 58.7501 502.84 58.2001V37.8001C502.84 37.2501 503.29 36.8001 503.84 36.8001H516.79V16.3501C516.79 15.8301 517.19 15.4001 517.7 15.3501L543.05 13.1001C543.34 13.0801 543.61 13.1701 543.81 13.3601C544.02 13.5501 544.14 13.8201 544.14 14.1001V36.8001H558.59C559.14 36.8001 559.59 37.2501 559.59 37.8001V58.2001C559.59 58.7501 559.14 59.2001 558.59 59.2001H544.14V92.4001C544.14 94.3601 544.58 95.6801 545.46 96.3201C546.43 97.0401 547.77 97.4001 549.44 97.4001H558.74C559.29 97.4001 559.74 97.8501 559.74 98.4001V118.8C559.74 119.35 559.29 119.8 558.74 119.8ZM504.85 57.2001H517.8C518.35 57.2001 518.8 57.6501 518.8 58.2001V97.2001C518.8 104.39 520.44 109.68 523.68 112.92C526.92 116.16 532.16 117.8 539.25 117.8H557.75V99.4001H549.45C547.34 99.4001 545.6 98.9001 544.28 97.9301C542.87 96.8901 542.15 95.0301 542.15 92.4001V58.2001C542.15 57.6501 542.6 57.2001 543.15 57.2001H557.6V38.8001H543.15C542.6 38.8001 542.15 38.3501 542.15 37.8001V15.1901L518.8 17.2601V37.8001C518.8 38.3501 518.35 38.8001 517.8 38.8001H504.85V57.2001ZM607.65 121.3C601.36 121.3 595.59 120.34 590.5 118.46C585.38 116.57 580.9 113.72 577.16 109.98C573.43 106.25 570.52 101.66 568.53 96.3501C566.55 91.0601 565.54 84.9901 565.54 78.3001C565.54 69.7801 567.19 62.2301 570.45 55.8701C573.72 49.4801 578.57 44.3901 584.86 40.7601C591.14 37.1401 598.8 35.3001 607.64 35.3001C613.93 35.3001 619.69 36.2601 624.79 38.1401C629.91 40.0301 634.37 42.8901 638.06 46.6301C641.74 50.3701 644.62 54.9201 646.61 60.1801C648.59 65.4201 649.6 71.5201 649.6 78.3101C649.6 86.7301 647.95 94.2501 644.69 100.66C641.41 107.11 636.59 112.22 630.35 115.85C624.12 119.47 616.48 121.31 607.65 121.31V121.3ZM607.65 37.3001C599.17 37.3001 591.84 39.0501 585.87 42.4901C579.92 45.9301 575.33 50.7301 572.24 56.7801C569.13 62.8601 567.55 70.1001 567.55 78.3001C567.55 84.7501 568.51 90.5901 570.41 95.6501C572.3 100.69 575.05 105.04 578.58 108.57C582.11 112.1 586.35 114.8 591.2 116.59C596.07 118.39 601.6 119.3 607.65 119.3C616.13 119.3 623.43 117.55 629.35 114.11C635.25 110.68 639.81 105.85 642.91 99.7501C646.02 93.6201 647.6 86.4001 647.6 78.3001C647.6 71.7601 646.64 65.8901 644.74 60.8801C642.85 55.8901 640.12 51.5701 636.64 48.0301C633.16 44.5001 628.94 41.8101 624.1 40.0201C619.23 38.2201 613.7 37.3101 607.65 37.3101V37.3001ZM607.65 100.75C605.23 100.75 602.95 100.32 600.9 99.4701C598.79 98.6101 596.99 97.2201 595.54 95.3301C594.11 93.4801 593.02 91.0801 592.29 88.2201C591.57 85.4101 591.21 82.0701 591.21 78.3001C591.21 73.1901 591.86 68.9501 593.16 65.7101C594.48 62.3801 596.42 59.8501 598.94 58.1901C601.44 56.5401 604.38 55.7001 607.67 55.7001C610.2 55.7001 612.49 56.1601 614.46 57.0701C616.45 57.9901 618.19 59.4001 619.63 61.2701C621.05 63.1201 622.17 65.5101 622.95 68.3701C623.72 71.1901 624.11 74.5401 624.11 78.3101C624.11 83.3101 623.43 87.5301 622.09 90.8401C620.72 94.2201 618.77 96.7401 616.31 98.3501C613.85 99.9501 610.94 100.76 607.66 100.76L607.65 100.75ZM607.65 57.7001C604.76 57.7001 602.2 58.4301 600.03 59.8601C597.86 61.2901 596.17 63.5001 595.01 66.4401C593.81 69.4501 593.21 73.4401 593.21 78.3001C593.21 81.9001 593.55 85.0701 594.23 87.7301C594.89 90.3301 595.87 92.4801 597.13 94.1201C598.36 95.7201 599.89 96.9001 601.67 97.6301C603.49 98.3801 605.5 98.7601 607.67 98.7601C610.56 98.7601 613.1 98.0601 615.22 96.6701C617.34 95.2901 619.02 93.0701 620.24 90.0801C621.49 87.0101 622.12 83.0501 622.12 78.3101C622.12 74.7201 621.75 71.5501 621.03 68.9001C620.32 66.2901 619.32 64.1401 618.05 62.5001C616.81 60.8901 615.32 59.6801 613.62 58.9001C611.91 58.1201 609.9 57.7201 607.66 57.7201L607.65 57.7001ZM685.8 119.8H660.45C659.9 119.8 659.45 119.35 659.45 118.8V37.8001C659.45 37.2501 659.9 36.8001 660.45 36.8001H683.4C683.92 36.8001 684.35 37.2001 684.4 37.7201L685.25 47.6701C687.14 43.4501 689.87 40.4501 693.39 38.7101C697.36 36.7501 701.93 35.7601 706.96 35.7601H711.61C712.16 35.7601 712.61 36.2101 712.61 36.7601V60.6101C712.61 61.1601 712.16 61.6101 711.61 61.6101C710.96 61.6101 710.21 61.5801 709.37 61.5301C708.53 61.4801 707.57 61.4601 706.51 61.4601C701.59 61.4601 697.65 62.1601 694.79 63.5401C692.01 64.8801 690 66.8001 688.8 69.2301C687.57 71.7401 686.89 74.9101 686.8 78.6401V118.81C686.8 119.36 686.35 119.81 685.8 119.81V119.8ZM661.45 117.8H684.8V78.6001C684.9 74.5501 685.64 71.1101 687 68.3301C688.39 65.4901 690.72 63.2601 693.91 61.7201C697.04 60.2101 701.27 59.4501 706.5 59.4501C707.6 59.4501 708.61 59.4801 709.48 59.5301C709.88 59.5501 710.25 59.5701 710.6 59.5801V37.7501H706.95C702.23 37.7501 697.96 38.6701 694.27 40.5001C690.68 42.2701 688 45.6201 686.3 50.4401C686.16 50.8401 685.78 51.1101 685.36 51.1101H684.46C683.94 51.1101 683.51 50.7101 683.46 50.1901L682.49 38.8101H661.46V117.81L661.45 117.8ZM757.05 121.3C748.3 121.3 740.74 119.52 734.57 116C728.38 112.47 723.59 107.46 720.31 101.11C717.05 94.7901 715.4 87.3701 715.4 79.0501C715.4 70.0301 717.1 62.1801 720.46 55.7201C723.84 49.2301 728.63 44.1401 734.72 40.6201C740.8 37.0901 748.01 35.3101 756.15 35.3101C765.81 35.3101 773.87 37.4401 780.11 41.6301C786.36 45.8301 790.93 51.7201 793.69 59.1401C796.43 66.5001 797.31 74.9601 796.3 84.2701C796.25 84.7801 795.82 85.1601 795.31 85.1601H742.33C742.44 88.1801 743.02 90.8201 744.08 93.0301C745.23 95.4301 746.94 97.2801 749.15 98.5201C751.38 99.7701 754.04 100.41 757.06 100.41C760.65 100.41 763.52 99.7301 765.59 98.4001C767.63 97.0901 768.98 95.3801 769.61 93.3201C769.74 92.9001 770.13 92.6101 770.57 92.6101H794.72C795.01 92.6101 795.29 92.7401 795.48 92.9601C795.67 93.1801 795.76 93.4701 795.71 93.7601C794.89 99.4301 792.69 104.37 789.18 108.45C785.7 112.5 781.18 115.69 775.76 117.94C770.36 120.18 764.08 121.32 757.08 121.32L757.05 121.3ZM756.15 37.3001C748.37 37.3001 741.49 39.0001 735.72 42.3401C729.97 45.6701 725.43 50.4801 722.24 56.6401C719.03 62.8201 717.4 70.3601 717.4 79.0501C717.4 87.0501 718.98 94.1601 722.09 100.19C725.19 106.19 729.72 110.93 735.57 114.26C741.43 117.6 748.66 119.3 757.06 119.3C763.8 119.3 769.82 118.22 774.98 116.08C780.11 113.95 784.38 110.94 787.66 107.13C790.68 103.62 792.66 99.4101 793.54 94.6001H771.28C770.44 96.8101 768.89 98.6401 766.68 100.07C764.28 101.61 761.05 102.4 757.07 102.4C753.71 102.4 750.71 101.68 748.18 100.25C745.61 98.8001 743.62 96.6601 742.29 93.8801C740.98 91.1601 740.32 87.8901 740.32 84.1501C740.32 83.6001 740.77 83.1501 741.32 83.1501H794.42C795.25 74.5101 794.38 66.6601 791.84 59.8301C789.23 52.8101 784.91 47.2401 779.02 43.2801C773.12 39.3101 765.43 37.3001 756.18 37.3001H756.15ZM770.43 69.7001H741.43C741.16 69.7001 740.9 69.5901 740.71 69.3901C740.52 69.1901 740.42 68.9301 740.43 68.6501C740.54 66.1601 741.09 63.9501 742.06 62.0801C743.34 59.6201 745.21 57.6601 747.61 56.2801C750 54.9001 752.87 54.2001 756.14 54.2001C759.2 54.2001 761.93 54.8501 764.27 56.1201C766.63 57.4101 768.48 59.2901 769.77 61.7101C770.78 63.6001 771.33 65.9401 771.42 68.6701C771.42 68.9401 771.33 69.2001 771.14 69.4001C770.95 69.6001 770.69 69.7001 770.42 69.7001H770.43ZM742.5 67.7001H769.37C769.21 65.7301 768.75 64.0301 768.02 62.6501C766.92 60.5801 765.34 58.9701 763.32 57.8801C761.28 56.7701 758.87 56.2001 756.15 56.2001C753.24 56.2001 750.7 56.8101 748.62 58.0201C746.55 59.2201 744.94 60.9001 743.84 63.0201C743.14 64.3701 742.69 65.9401 742.51 67.7101L742.5 67.7001ZM839.85 121.3C834.18 121.3 829.04 120.63 824.57 119.31C820.08 117.99 816.16 116.09 812.93 113.68C809.68 111.25 807.11 108.32 805.3 104.95C803.48 101.57 802.56 97.7501 802.56 93.6001C802.56 93.0501 803.01 92.6001 803.56 92.6001H828.46C828.98 92.6001 829.41 92.9901 829.46 93.5101C829.64 95.4101 830.2 96.9701 831.13 98.1701C832.07 99.3801 833.29 100.22 834.87 100.76C836.51 101.32 838.39 101.61 840.47 101.61C843.74 101.61 846.17 101.07 847.69 99.9901C849.12 98.9801 849.82 97.6301 849.82 95.8601C849.82 94.2601 849.44 93.0901 848.71 92.3901C847.88 91.6101 846.54 90.9601 844.71 90.4501C842.76 89.9101 840.07 89.3901 836.73 88.9001C829.49 87.9001 823.45 86.4401 818.8 84.5601C814.03 82.6401 810.42 79.8901 808.07 76.3901C805.72 72.8901 804.53 68.3401 804.53 62.8601C804.53 57.3801 806.08 52.4701 809.15 48.3201C812.19 44.1901 816.5 40.9501 821.95 38.6901C827.35 36.4501 833.69 35.3101 840.78 35.3101C847.87 35.3101 853.62 36.4001 858.72 38.5401C863.86 40.7001 867.98 43.7801 870.98 47.7001C873.99 51.6501 875.62 56.2801 875.83 61.4701C875.84 61.7401 875.74 62.0101 875.55 62.2001C875.36 62.4001 875.1 62.5101 874.83 62.5101H849.93C849.38 62.5101 848.93 62.0601 848.93 61.5101C848.93 60.0301 848.58 58.8501 847.86 57.9201C847.13 56.9801 846.12 56.2501 844.85 55.7701C843.52 55.2701 841.89 55.0101 840.03 55.0101C837.45 55.0101 835.4 55.5301 833.93 56.5601C832.55 57.5201 831.88 58.8501 831.88 60.6101C831.88 62.0301 832.29 63.0901 833.13 63.8401C834.05 64.6701 835.67 65.3801 837.95 65.9301C840.36 66.5201 843.52 67.0701 847.36 67.5601C854.32 68.4701 860.06 69.9101 864.44 71.8401C868.91 73.8201 872.24 76.6001 874.34 80.1201C876.42 83.6201 877.48 88.1501 877.48 93.6101C877.48 99.5101 875.87 104.59 872.7 108.7C869.55 112.78 865.09 115.94 859.44 118.1C853.85 120.23 847.27 121.32 839.88 121.32L839.85 121.3ZM804.57 94.6001C804.7 98.0301 805.54 101.19 807.06 104C808.73 107.11 811.11 109.82 814.13 112.07C817.17 114.34 820.88 116.13 825.14 117.39C829.43 118.66 834.38 119.3 839.86 119.3C847 119.3 853.34 118.26 858.7 116.22C864 114.2 868.17 111.25 871.09 107.47C873.99 103.72 875.46 99.0501 875.46 93.6101C875.46 88.5201 874.5 84.3301 872.6 81.1501C870.72 78.0001 867.69 75.4801 863.6 73.6801C859.4 71.8301 853.84 70.4401 847.08 69.5601C843.17 69.0601 839.92 68.5001 837.45 67.8901C834.81 67.2401 832.95 66.4101 831.77 65.3401C830.51 64.2001 829.87 62.6101 829.87 60.6201C829.87 58.1901 830.85 56.2701 832.77 54.9201C834.59 53.6601 837.02 53.0201 840.02 53.0201C842.13 53.0201 843.99 53.3201 845.55 53.9101C847.17 54.5301 848.48 55.4701 849.44 56.7101C850.25 57.7601 850.73 59.0401 850.88 60.5201H873.77C873.41 56.1701 871.94 52.2801 869.39 48.9301C866.61 45.2901 862.76 42.4201 857.95 40.4001C853.1 38.3601 847.32 37.3301 840.79 37.3301C834.26 37.3301 827.88 38.4101 822.72 40.5501C817.61 42.6701 813.59 45.6901 810.77 49.5201C807.96 53.3301 806.54 57.8201 806.54 62.8801C806.54 67.9401 807.62 72.1301 809.75 75.3001C811.87 78.4701 815.18 80.9601 819.57 82.7301C824.07 84.5401 829.95 85.9601 837.03 86.9401C840.46 87.4501 843.22 87.9801 845.26 88.5401C847.44 89.1401 849.03 89.9301 850.11 90.9501C851.26 92.0401 851.85 93.7001 851.85 95.8801C851.85 98.3101 850.85 100.25 848.88 101.65C846.99 102.98 844.25 103.63 840.5 103.63C838.2 103.63 836.1 103.31 834.25 102.68C832.32 102.02 830.75 100.92 829.58 99.4201C828.57 98.1301 827.91 96.5201 827.61 94.6301H804.61L804.57 94.6001Z" fill="black"/>
</g>
<defs>
<clipPath id="clip0_1901_714">
<rect width="877.45" height="128.25" fill="white"/>
</clipPath>
</defs>
</svg>
