<svg width="605" height="129" viewBox="0 0 605 129" fill="none" xmlns="http://www.w3.org/2000/svg">
<g clip-path="url(#clip0_1895_12)">
<path d="M105.81 15.3801C85.7401 -1.77989 56.2501 -5.35989 32.0701 8.60011C18.8501 16.2401 9.37007 27.8701 4.29007 41.1001C17.6701 52.5401 37.3301 54.9201 53.4501 45.6201L105.82 15.3901L105.81 15.3801ZM85.5001 124.59C110.4 115.79 128.24 92.0401 128.24 64.1201C128.24 48.8501 122.9 34.8301 113.98 23.8101C97.3801 29.6801 85.4901 45.5101 85.4901 64.1201V124.59H85.5001ZM1.07007 52.4001C-3.75993 78.3601 7.89006 105.69 32.0701 119.65C45.2901 127.29 60.1101 129.68 74.1001 127.46C77.3201 110.15 69.5501 91.9401 53.4401 82.6301L1.07007 52.4001ZM189.9 120.3C184.3 120.3 179.3 119.65 174.9 118.35C170.5 117.05 166.73 115.23 163.57 112.88C160.42 110.53 157.97 107.73 156.22 104.48C154.47 101.23 153.6 97.6101 153.6 93.6001H178.5C178.7 95.7001 179.33 97.4301 180.38 98.7701C181.43 100.12 182.83 101.1 184.58 101.7C186.33 102.3 188.3 102.6 190.5 102.6C194 102.6 196.6 102 198.3 100.8C200 99.6001 200.85 97.9501 200.85 95.8501C200.85 93.9501 200.37 92.5501 199.42 91.6501C198.47 90.7501 196.99 90.0301 195 89.4801C193 88.9301 190.3 88.4101 186.9 87.9001C179.7 86.9001 173.8 85.4801 169.2 83.6301C164.6 81.7801 161.17 79.1801 158.92 75.8301C156.67 72.4801 155.54 68.1601 155.54 62.8501C155.54 57.5401 157.01 52.9001 159.97 48.9001C162.92 44.9001 167.04 41.8001 172.35 39.6001C177.65 37.4001 183.8 36.3001 190.8 36.3001C197.8 36.3001 203.35 37.3501 208.35 39.4501C213.35 41.5501 217.3 44.5001 220.2 48.3001C223.1 52.1001 224.65 56.5001 224.85 61.5001H199.95C199.95 59.8001 199.52 58.4001 198.67 57.3001C197.82 56.2001 196.67 55.3801 195.22 54.8301C193.77 54.2801 192.04 54.0001 190.04 54.0001C187.24 54.0001 185.02 54.5801 183.37 55.7201C181.72 56.8701 180.9 58.5001 180.9 60.6001C180.9 62.3001 181.42 63.6301 182.48 64.5801C183.53 65.5301 185.28 66.3001 187.73 66.9001C190.18 67.5001 193.35 68.0501 197.25 68.5501C204.15 69.4501 209.75 70.8501 214.05 72.7501C218.35 74.6501 221.5 77.2801 223.5 80.6301C225.5 83.9801 226.5 88.3101 226.5 93.6001C226.5 99.3001 224.97 104.13 221.92 108.08C218.87 112.03 214.59 115.05 209.1 117.15C203.6 119.25 197.2 120.3 189.9 120.3ZM267.6 118.8C260.2 118.8 254.78 117.08 251.33 113.63C247.88 110.18 246.16 104.71 246.16 97.2101V58.2101H232.21V37.8101H246.16V16.3601L271.51 14.1101V37.8101H286.96V58.2101H271.51V92.4101C271.51 94.7101 272.08 96.2901 273.23 97.1401C274.38 97.9901 275.9 98.4101 277.81 98.4101H287.11V118.81H267.61L267.6 118.8ZM336 120.3C329.8 120.3 324.2 119.37 319.2 117.52C314.2 115.67 309.87 112.92 306.22 109.27C302.57 105.62 299.77 101.2 297.82 96.0001C295.87 90.8001 294.89 84.9001 294.89 78.3001C294.89 69.9001 296.49 62.5801 299.69 56.3301C302.89 50.0801 307.57 45.1801 313.71 41.6301C319.86 38.0801 327.29 36.3001 335.99 36.3001C342.19 36.3001 347.79 37.2301 352.79 39.0801C357.79 40.9301 362.09 43.6801 365.69 47.3301C369.29 50.9801 372.07 55.3801 374.01 60.5301C375.96 65.6801 376.94 71.6101 376.94 78.3101C376.94 86.6101 375.34 93.9101 372.14 100.21C368.94 106.51 364.29 111.44 358.19 114.98C352.09 118.53 344.69 120.31 335.99 120.31L336 120.3ZM336 99.7501C339.1 99.7501 341.8 99.0001 344.1 97.5001C346.4 96.0001 348.2 93.6501 349.5 90.4501C350.8 87.2501 351.45 83.2001 351.45 78.3001C351.45 74.6001 351.07 71.3801 350.33 68.6301C349.58 65.8801 348.53 63.6301 347.18 61.8801C345.83 60.1301 344.23 58.8301 342.38 57.9801C340.53 57.1301 338.4 56.7101 336 56.7101C332.9 56.7101 330.17 57.4901 327.83 59.0301C325.48 60.5801 323.68 62.9301 322.43 66.0801C321.18 69.2301 320.55 73.3101 320.55 78.3001C320.55 82.0001 320.9 85.2301 321.6 87.9701C322.3 90.7201 323.33 92.9701 324.68 94.7201C326.03 96.4701 327.68 97.7501 329.63 98.5501C331.58 99.3501 333.7 99.7501 336.01 99.7501H336ZM388.8 118.8V37.8001H411.75L412.8 50.1001H413.7C415.5 45.0001 418.32 41.5001 422.18 39.6001C426.03 37.7001 430.4 36.7501 435.3 36.7501H439.95V60.6001C439.35 60.6001 438.62 60.5801 437.78 60.5201C436.93 60.4701 435.95 60.4501 434.86 60.4501C429.76 60.4501 425.71 61.1801 422.71 62.6201C419.71 64.0701 417.56 66.1201 416.26 68.7701C414.96 71.4201 414.26 74.7001 414.16 78.6001V118.8H388.81H388.8ZM521.1 59.4801C518.4 52.2301 514 46.5501 507.9 42.4501C501.8 38.3501 494 36.3001 484.5 36.3001C476.5 36.3001 469.52 38.0301 463.57 41.4801C457.62 44.9301 453 49.8301 449.7 56.1801C446.4 62.5301 444.75 70.1501 444.75 79.0501C444.75 87.2501 446.35 94.4501 449.55 100.65C452.75 106.85 457.37 111.68 463.42 115.13C469.47 118.58 476.8 120.3 485.4 120.3C492.3 120.3 498.4 119.2 503.7 117C509 114.8 513.35 111.73 516.75 107.78C520.15 103.83 522.25 99.1001 523.05 93.6001H498.9C498.2 95.9001 496.72 97.7801 494.47 99.2301C492.22 100.68 489.2 101.4 485.4 101.4C482.2 101.4 479.4 100.73 477 99.3801C474.6 98.0301 472.77 96.0501 471.52 93.4501C470.27 90.8501 469.65 87.7501 469.65 84.1501H523.65C524.65 74.9501 523.8 66.7301 521.1 59.4801ZM471.3 62.5501C472.5 60.2501 474.22 58.4501 476.47 57.1501C478.72 55.8501 481.4 55.2001 484.5 55.2001C487.4 55.2001 489.95 55.8001 492.15 57.0001C494.35 58.2001 496.05 59.9301 497.25 62.1801C498.19 63.9401 498.7 66.1101 498.78 68.7001H469.78C469.88 66.3601 470.38 64.3101 471.3 62.5501ZM568.2 120.3C562.6 120.3 557.6 119.65 553.2 118.35C548.8 117.05 545.03 115.23 541.87 112.88C538.72 110.53 536.27 107.73 534.52 104.48C532.77 101.23 531.9 97.6101 531.9 93.6001H556.8C557 95.7001 557.63 97.4301 558.68 98.7701C559.73 100.12 561.13 101.1 562.88 101.7C564.63 102.3 566.6 102.6 568.8 102.6C572.3 102.6 574.9 102 576.6 100.8C578.3 99.6001 579.15 97.9501 579.15 95.8501C579.15 93.9501 578.67 92.5501 577.72 91.6501C576.77 90.7501 575.29 90.0301 573.3 89.4801C571.3 88.9301 568.6 88.4101 565.2 87.9001C558 86.9001 552.1 85.4801 547.5 83.6301C542.9 81.7801 539.47 79.1801 537.22 75.8301C534.97 72.4801 533.84 68.1601 533.84 62.8501C533.84 57.5401 535.31 52.9001 538.27 48.9001C541.22 44.9001 545.34 41.8001 550.65 39.6001C555.95 37.4001 562.1 36.3001 569.1 36.3001C576.1 36.3001 581.65 37.3501 586.65 39.4501C591.65 41.5501 595.6 44.5001 598.5 48.3001C601.4 52.1001 602.95 56.5001 603.15 61.5001H578.25C578.25 59.8001 577.82 58.4001 576.97 57.3001C576.12 56.2001 574.97 55.3801 573.52 54.8301C572.07 54.2801 570.34 54.0001 568.34 54.0001C565.54 54.0001 563.32 54.5801 561.67 55.7201C560.02 56.8701 559.2 58.5001 559.2 60.6001C559.2 62.3001 559.72 63.6301 560.78 64.5801C561.83 65.5301 563.58 66.3001 566.03 66.9001C568.48 67.5001 571.65 68.0501 575.55 68.5501C582.45 69.4501 588.05 70.8501 592.35 72.7501C596.65 74.6501 599.8 77.2801 601.8 80.6301C603.8 83.9801 604.8 88.3101 604.8 93.6001C604.8 99.3001 603.27 104.13 600.22 108.08C597.17 112.03 592.89 115.05 587.4 117.15C581.9 119.25 575.5 120.3 568.2 120.3Z" fill="black"/>
</g>
<defs>
<clipPath id="clip0_1895_12">
<rect width="604.8" height="128.25" fill="white"/>
</clipPath>
</defs>
</svg>
