<svg width="93" height="92" viewBox="0 0 93 92" fill="none" xmlns="http://www.w3.org/2000/svg">
<rect x="0.5" width="92" height="92" rx="46" fill="black"/>
<path d="M24.1092 68.4698C24.1097 68.6754 24.2219 68.865 24.4027 68.964C24.5207 69.0289 32.0292 73.1577 31.9149 73.0948C31.9154 73.0952 31.916 73.0951 31.9166 73.0953L31.9248 73.0998C32.0966 73.1953 32.3083 73.1934 32.4803 73.0943L68.688 52.1896C68.8637 52.0879 68.9715 51.9005 68.971 51.6976L68.8908 23.5301C68.8908 23.5293 68.8903 23.5287 68.8903 23.5279C68.8903 23.5271 68.8908 23.5265 68.8908 23.5256C68.8904 23.4892 68.8693 23.459 68.8622 23.4241C68.8597 23.4124 68.8559 23.4015 68.8528 23.3899C68.8399 23.3422 68.839 23.2905 68.8144 23.248C68.8137 23.2468 68.8122 23.2461 68.8114 23.2448C68.7934 23.2143 68.7601 23.1968 68.7366 23.1701C68.6963 23.124 68.6618 23.0724 68.6073 23.0409C68.6052 23.0397 68.6027 23.0403 68.6006 23.0391C68.5992 23.0384 68.5987 23.0367 68.5973 23.0359L61.0752 18.9006C60.9016 18.8039 60.6899 18.8072 60.5197 18.9061L37.8118 32.0162C37.541 32.1726 37.4481 32.5187 37.6045 32.7895C37.761 33.0609 38.1076 33.1527 38.3779 32.9968L60.8093 20.046L67.1716 23.5438L32.1107 43.7862L25.7481 40.2884L31.8264 36.7794C32.0973 36.623 32.1901 36.277 32.0337 36.0061C31.8767 35.7347 31.529 35.6424 31.2604 35.7988C29.8148 36.6333 34.2334 34.0826 24.306 39.8136C24.1713 39.8937 24.0284 40.0856 24.029 40.3023V40.3066C24.0786 57.7394 24.0596 51.0342 24.1092 68.4698ZM67.7588 24.5123V29.6144L32.7512 49.8254L32.6876 44.7606L55.5214 31.5775L67.7588 24.5123ZM25.2401 68.1332L25.1639 41.2591L31.5527 44.7713C31.5691 50.6052 31.6003 61.647 31.6285 71.6455L25.2401 68.1332ZM32.7606 71.625C32.7419 64.9986 32.7324 61.6102 32.7029 51.1606L67.7797 30.9095L67.8378 51.3732L32.7606 71.625Z" fill="white"/>
<path d="M33.8203 35.628L36.1386 34.2898C36.4094 34.1333 36.5023 33.7873 36.3459 33.5164C36.1894 33.2456 35.8417 33.1527 35.5725 33.3091L33.2542 34.6474C32.9834 34.8038 32.8905 35.1499 33.0469 35.4207C33.2038 35.6923 33.5509 35.7836 33.8203 35.628Z" fill="white"/>
<path d="M48.8429 45.6149C48.6677 45.5138 48.4521 45.5154 48.278 45.6155L35.2746 53.1232C35.0988 53.2249 34.9905 53.4129 34.9916 53.6163L35.0546 66.6589C35.0557 66.8607 35.1641 67.0464 35.3387 67.147C35.5127 67.2472 35.7283 67.2475 35.9037 67.1465L48.907 59.6387C49.0828 59.537 49.1912 59.3491 49.1901 59.1456L49.1271 46.103C49.1259 45.9012 49.0176 45.7155 48.8429 45.6149ZM38.8284 64.1477C39.212 62.2782 40.5436 60.2562 42.0792 59.3701L42.6447 59.0434C44.1457 58.1759 45.3128 58.6407 45.4506 60.3242L38.8284 64.1477ZM46.5057 59.7176C46.1038 57.7357 44.2836 56.7897 42.0787 58.0628L41.5132 58.3895C39.401 59.6086 37.7492 62.3899 37.6126 64.8522L36.1817 65.6783L36.1253 53.9396L48 47.0836L48.0563 58.8223L46.5057 59.7176Z" fill="white"/>
<path d="M52.4807 46.1765L64.4057 39.2918C64.6765 39.1353 64.7694 38.7893 64.6129 38.5184C64.4554 38.2465 64.1088 38.1547 63.8396 38.3112L51.9147 45.1959C51.6438 45.3524 51.551 45.6984 51.7074 45.9692C51.8642 46.2408 52.2113 46.3322 52.4807 46.1765Z" fill="white"/>
<path d="M63.8396 43.8212L51.9147 50.706C51.6438 50.8624 51.551 51.2085 51.7074 51.4793C51.8642 51.7509 52.2113 51.8422 52.4807 51.6866L64.4057 44.8018C64.6765 44.6454 64.7694 44.2994 64.6129 44.0285C64.4554 43.7577 64.1088 43.6648 63.8396 43.8212Z" fill="white"/>
<path d="M58.5706 52.3726L51.9147 56.2154C51.6438 56.3719 51.551 56.7179 51.7074 56.9887C51.8642 57.2603 52.2113 57.3517 52.4807 57.196L59.1366 53.3532C59.4075 53.1967 59.5004 52.8507 59.3439 52.5798C59.1869 52.3079 58.8398 52.2161 58.5706 52.3726Z" fill="white"/>
<path d="M41.778 51.9928C40.6183 52.6622 39.7134 54.231 39.7172 55.5643C39.7218 57.123 40.9833 57.8695 42.3556 57.0789C43.5153 56.4095 44.4208 54.8379 44.4169 53.5013C44.4123 51.9333 43.1412 51.2052 41.778 51.9928ZM41.7896 56.0983C41.1911 56.4457 40.8517 56.2593 40.8493 55.561C40.8465 54.6279 41.5309 53.4427 42.344 52.9734C42.9279 52.6355 43.2824 52.7871 43.2848 53.5047C43.2876 54.4411 42.6027 55.629 41.7896 56.0983Z" fill="white"/>
<path d="M44.5816 41.0982L56.5065 34.2129C56.7774 34.0565 56.8703 33.7104 56.7138 33.4396C56.5574 33.1682 56.2097 33.0759 55.9405 33.2323L44.0156 40.1176C43.7447 40.2741 43.6519 40.6201 43.8083 40.8909C43.9651 41.1625 44.3122 41.2538 44.5816 41.0982Z" fill="white"/>
</svg>
