<svg width="93" height="92" viewBox="0 0 93 92" fill="none" xmlns="http://www.w3.org/2000/svg">
<path d="M19.2678 67.528C18.8998 67.344 18.3478 67.344 17.9798 67.896C17.7958 68.264 17.7958 68.816 18.3478 69.184C18.5318 69.368 49.0758 86.848 48.8918 86.848C49.0758 87.032 49.4438 87.032 49.8118 86.848L90.2918 63.296C90.6598 63.112 90.8438 62.744 90.6598 62.376L87.3478 45.264C87.3478 45.08 86.9798 44.712 86.9798 44.712L81.4598 41.4V39.376C81.4598 39.008 81.2758 38.824 80.9078 38.64L62.1398 27.784L53.4918 10.12C53.3078 9.936 53.3078 9.752 53.1238 9.752L45.5798 5.336C45.2118 5.152 45.0278 5.152 44.6598 5.336L37.2998 9.568C37.1158 9.568 37.1158 9.752 36.9318 9.936L28.6518 27.6L9.69984 38.64C9.33184 38.824 9.33184 39.192 9.33184 39.376V41.952L4.91584 44.528C4.73184 44.712 4.54784 45.08 4.54784 45.264L2.33984 59.248C2.33984 59.616 2.52384 59.984 2.70784 60.168L10.0678 64.4C10.4358 64.584 10.9878 64.584 11.3558 64.032C11.5398 63.664 11.5398 63.112 10.9878 62.744L4.17984 58.88L6.01984 46.92L45.0278 69.552L47.9718 84.272L19.2678 67.528ZM49.9958 84.456L47.0518 69.184C50.9158 66.976 32.6998 77.464 85.8758 46.736L88.8198 62.008L49.9958 84.456ZM44.6598 60.352C44.6598 60.536 44.6598 63.296 44.6598 63.112L10.9878 43.792V41.032L44.6598 60.352ZM46.4998 63.112C46.4998 62.928 46.4998 60.168 46.4998 60.352L79.6198 41.032V43.792C76.3078 45.816 91.9478 36.616 46.4998 63.112ZM24.6038 40.112C24.7878 39.928 23.3158 42.688 38.4038 11.592L44.6598 15.088V51.52C42.4518 50.416 52.0198 55.936 24.6038 40.112ZM46.3158 51.704V15.272L52.3878 11.776L60.6678 28.888L66.1878 40.296C38.9558 55.936 48.3398 50.416 46.3158 51.704ZM45.3958 7.176L51.0998 10.488L45.5798 13.8L39.8758 10.488L45.3958 7.176ZM22.5798 40.112C22.3958 40.48 22.5798 41.032 22.9478 41.4C23.1318 41.584 46.4998 55.016 45.0278 54.096C45.3958 54.28 45.5798 54.28 45.9478 54.096C69.8678 40.296 67.8438 41.4 68.0278 41.216C68.3958 41.032 68.3958 40.48 68.2118 40.112L63.6118 30.728L78.6998 39.376L45.5798 58.696L12.0918 39.376L27.1798 30.544L22.5798 40.112ZM9.14784 44.16C9.14784 44.712 9.33184 44.896 9.69984 45.08L45.0278 65.504C45.3958 65.688 45.5798 65.688 45.9478 65.504C58.4598 58.328 68.5798 52.256 81.0918 45.08C81.4598 44.896 81.4598 44.528 81.4598 44.344V43.608L84.5878 45.448C31.5958 76.176 49.9958 65.504 45.9478 67.896L7.12384 45.448L9.14784 44.16Z" fill="white"/>
<path d="M13.5641 64.216C13.1961 64.032 12.6441 64.032 12.2761 64.584C12.0921 64.952 12.0921 65.504 12.6441 65.872L15.5881 67.528C15.9561 67.712 16.5081 67.712 16.8761 67.16C17.0601 66.792 17.0601 66.24 16.5081 65.872L13.5641 64.216Z" fill="white"/>
<path d="M68.3958 60.536C68.2118 60.352 67.8438 60.352 67.4758 60.536L50.9158 70.288C50.5478 70.472 50.3638 70.84 50.5478 71.208L52.0198 78.936C52.2038 79.488 52.7558 79.856 53.3078 79.488L69.8678 69.736C70.2358 69.552 70.4198 69.184 70.2358 68.816L68.7638 61.088C68.7638 60.904 68.5798 60.536 68.3958 60.536ZM53.4918 77.28L52.3878 71.392L67.2918 62.744L68.3958 68.632L53.4918 77.28Z" fill="white"/>
<path d="M75.2041 55.016C73.9161 55.752 72.9961 57.408 72.9961 58.88C72.9961 60.72 74.6521 61.64 76.1241 60.72C77.4121 59.984 78.3321 58.328 78.3321 56.856C78.3321 55.016 76.8601 54.096 75.2041 55.016ZM75.2041 59.248C74.8361 59.432 74.8361 59.432 74.8361 59.064C74.8361 58.328 75.3881 57.224 76.1241 56.672C76.4921 56.488 76.4921 56.488 76.4921 56.856C76.4921 57.776 75.9401 58.88 75.2041 59.248Z" fill="white"/>
<path d="M82.9317 56.856C84.2197 56.12 85.1397 54.464 85.1397 52.992C85.1397 51.152 83.4837 50.232 82.0117 51.152C80.7237 51.888 79.8037 53.544 79.8037 55.016C79.8037 56.856 81.2757 57.776 82.9317 56.856ZM82.9317 52.808C83.2997 52.624 83.2997 52.624 83.2997 52.992C83.2997 53.728 82.7477 54.832 82.0117 55.2C81.6437 55.384 81.6437 55.384 81.6437 55.016C81.6437 54.28 82.1957 53.176 82.9317 52.808Z" fill="white"/>
<path d="M75.02 62.376C73.732 63.112 72.812 64.768 72.812 66.24C72.812 68.08 74.468 69 75.94 68.08C77.228 67.344 78.148 65.688 78.148 64.216C78.332 62.376 76.676 61.456 75.02 62.376ZM75.204 66.424C74.836 66.608 74.836 66.608 74.836 66.24C74.836 65.504 75.388 64.4 76.124 64.032C76.492 63.848 76.492 63.848 76.492 64.216C76.492 64.952 75.756 66.056 75.204 66.424Z" fill="white"/>
<path d="M81.8276 58.512C80.5396 59.248 79.6196 60.904 79.6196 62.376C79.6196 64.216 81.2756 65.136 82.7476 64.216C84.0356 63.48 84.9556 61.824 84.9556 60.352C85.1396 58.328 83.4836 57.592 81.8276 58.512ZM81.8276 62.56C81.4596 62.744 81.4596 62.744 81.4596 62.376C81.4596 61.64 82.0116 60.536 82.7476 60.168C83.1156 59.984 83.1156 59.984 83.1156 60.352C83.2996 61.088 82.5636 62.192 81.8276 62.56Z" fill="white"/>
</svg>
