<svg width="93" height="92" viewBox="0 0 93 92" fill="none" xmlns="http://www.w3.org/2000/svg">
<path d="M15.2201 40.112C17.7961 41.584 20.0041 40.296 20.0041 37.352C20.0041 34.96 18.3481 32.016 16.1401 30.728C13.7481 29.44 11.5401 30.728 11.5401 33.672C11.3561 36.064 13.1961 39.008 15.2201 40.112ZM15.2201 32.384C16.8761 33.304 18.1641 35.512 18.1641 37.352C18.1641 38.824 17.4281 39.192 16.1401 38.456C14.4841 37.536 13.1961 35.328 13.1961 33.488C13.3801 32.2 14.1161 31.832 15.2201 32.384Z" fill="white"/>
<path d="M26.8118 46.736C29.2038 48.208 31.5958 46.92 31.5958 43.976C31.5958 41.584 29.9398 38.64 27.7318 37.352C25.3398 35.88 22.9478 37.168 22.9478 40.112C22.9478 42.688 24.6038 45.632 26.8118 46.736ZM26.8118 39.008C28.4678 39.928 29.7558 42.136 29.7558 43.976C29.7558 45.448 29.0198 45.816 27.7318 45.08C26.0758 44.16 24.7878 41.952 24.7878 40.112C24.7878 38.824 25.5238 38.456 26.8118 39.008Z" fill="white"/>
<path d="M38.22 53.36C40.796 54.832 43.004 53.544 43.004 50.6C43.004 48.208 41.348 45.264 39.14 43.976C36.748 42.504 34.356 43.792 34.356 46.736C34.356 49.312 36.012 52.256 38.22 53.36ZM38.22 45.816C39.876 46.736 41.164 48.944 41.164 50.784C41.164 52.256 40.428 52.624 39.14 51.888C37.484 50.968 36.196 48.76 36.196 46.92C36.196 45.448 37.116 45.08 38.22 45.816Z" fill="white"/>
<path d="M49.8118 59.984C52.3878 61.456 54.5958 60.168 54.5958 57.224C54.5958 54.832 52.9398 51.888 50.7318 50.6C48.1558 49.128 45.9478 50.416 45.9478 53.36C45.9478 55.936 47.6038 58.88 49.8118 59.984ZM49.8118 52.44C51.4678 53.36 52.7558 55.568 52.7558 57.408C52.7558 58.88 52.0198 59.248 50.7318 58.512C49.0758 57.592 47.7878 55.384 47.7878 53.544C47.7878 52.072 48.5238 51.704 49.8118 52.44Z" fill="white"/>
<path d="M9.33194 59.064C7.85994 59.984 7.12394 61.272 6.93994 62.56C6.93994 62.56 6.93994 62.56 6.93994 62.744V68.08C6.93994 69.552 7.85994 70.84 9.51594 71.76C12.4599 73.416 17.2439 73.416 20.1879 71.76C21.8439 70.84 22.5799 69.552 22.5799 68.08V62.744C22.5799 61.272 21.6599 59.984 20.0039 59.064C19.6359 58.88 19.0839 58.696 18.5319 58.512V46.736L40.4279 59.432V75.808C39.8759 75.992 39.5079 76.176 39.1399 76.36C37.6679 77.28 36.7479 78.568 36.7479 79.856V85.192C36.7479 86.664 37.6679 87.952 39.3239 88.872C42.2679 90.528 47.0519 90.528 49.9959 88.872C51.6519 87.952 52.3879 86.664 52.3879 85.192V79.856C52.3879 79.856 52.3879 79.856 52.3879 79.672C52.3879 78.384 51.4679 77.096 49.9959 76.176C49.6279 75.992 49.0759 75.808 48.5239 75.624V63.848L50.1799 64.768C52.0199 65.872 54.4119 66.424 56.2519 65.32C56.4359 65.136 73.9159 55.016 74.2839 54.832V57.408C73.7319 57.592 73.3639 57.776 72.9959 57.96C71.3399 58.88 70.4199 60.168 70.4199 61.64V66.976C70.4199 68.448 71.3399 69.736 72.9959 70.656C75.9399 72.312 80.7239 72.312 83.6679 70.656C85.3239 69.736 86.0599 68.448 86.0599 66.976V61.64C86.0599 60.168 85.1399 58.88 83.6679 57.96C83.2999 57.776 82.7479 57.408 82.1959 57.408V50.232L83.4839 49.496C85.1399 48.576 86.0599 46.552 86.0599 43.976C86.0599 39.008 82.5639 33.12 78.3319 30.544L74.0999 28.152V23.184C74.0999 23 73.9159 22.632 73.7319 22.448L61.0359 15.088C60.6679 14.904 60.4839 14.904 60.1159 15.088L55.6999 17.664L51.4679 15.272V10.12C51.4679 9.75199 51.2839 9.56799 50.9159 9.38399L38.2199 2.02399C37.8519 1.83999 37.4839 1.83999 37.2999 2.02399L23.6839 9.93599C23.3159 10.12 23.3159 10.488 23.1319 10.672V17.848C20.0039 19.688 9.69994 25.576 9.51594 25.76C7.85994 26.68 6.93994 28.704 6.93994 31.096C6.93994 34.224 8.41194 37.904 10.6199 40.848V58.696C10.2519 58.696 9.69994 58.88 9.33194 59.064ZM20.7399 68.08C20.7399 68.816 20.1879 69.552 19.2679 70.104C16.8759 71.576 13.0119 71.576 10.4359 70.104C9.51594 69.552 8.77994 68.816 8.77994 68.08V66.056C8.96394 66.056 9.14794 66.24 9.51594 66.24C12.4599 68.08 17.0599 68.08 20.1879 66.24C20.1879 66.24 20.1879 66.24 20.3719 66.056C20.5559 65.872 20.7399 65.872 20.9239 65.688V68.08H20.7399ZM19.0839 60.72C20.0039 61.272 20.7399 62.008 20.7399 62.744C20.7399 63.48 20.1879 64.216 19.2679 64.768C16.8759 66.24 12.8279 66.056 10.4359 64.768C9.51594 64.216 8.77994 63.48 8.77994 62.744C8.77994 62.008 9.33194 61.272 10.2519 60.72C10.4359 60.72 10.4359 60.536 10.6199 60.536V62.192C10.6199 62.928 10.9879 63.848 11.9079 64.216C13.3799 65.136 15.7719 64.952 17.0599 64.216C17.9799 63.664 18.3479 62.928 18.3479 62.192V60.352C18.7159 60.536 18.8999 60.536 19.0839 60.72ZM16.8759 45.632C16.8759 47.472 16.8759 63.112 16.8759 62.192C16.8759 62.192 16.6919 62.376 16.5079 62.56C15.5879 63.112 14.1159 63.112 13.1959 62.56C12.8279 62.376 12.8279 62.192 12.8279 62.192V42.872C13.9319 43.976 15.0359 44.528 15.2199 44.528L16.8759 45.632ZM50.5479 85.192C50.5479 85.928 49.9959 86.664 49.0759 87.216C46.6839 88.688 42.8199 88.688 40.2439 87.216C39.3239 86.664 38.5879 85.928 38.5879 85.192V83.168C38.7719 83.352 38.9559 83.352 39.1399 83.536C39.1399 83.536 39.1399 83.536 39.3239 83.72C42.2679 85.376 47.0519 85.376 49.9959 83.72C50.1799 83.536 50.3639 83.536 50.5479 83.352V85.192ZM48.8919 77.832C49.8119 78.384 50.5479 79.12 50.5479 79.856C50.5479 80.592 49.9959 81.328 49.0759 81.88C46.4999 83.352 42.4519 83.168 40.2439 81.88C39.3239 81.328 38.5879 80.592 38.5879 79.856C38.5879 79.12 39.1399 78.384 40.0599 77.832C40.2439 77.832 40.2439 77.648 40.4279 77.648V79.304C40.4279 80.04 40.9799 80.776 41.7159 81.328C43.1879 82.248 45.3959 82.248 46.8679 81.328C47.6039 80.776 48.1559 80.04 48.1559 79.304V77.464C48.7079 77.648 48.8919 77.832 48.8919 77.832ZM46.6839 79.488C46.6839 79.672 46.4999 79.856 46.3159 80.04C45.3959 80.592 43.9239 80.592 43.0039 80.04C42.6359 79.856 42.6359 79.672 42.6359 79.672C42.6359 75.072 42.6359 65.136 42.6359 60.536C42.8199 60.72 47.0519 63.112 46.8679 62.928C46.6839 62.928 46.6839 80.592 46.6839 79.488ZM84.2199 66.976C84.2199 67.712 83.6679 68.448 82.7479 69C80.3559 70.472 76.4919 70.472 73.9159 69C72.9959 68.448 72.2599 67.712 72.2599 66.976V64.952C74.6519 66.792 78.5159 67.16 81.4599 66.24C82.3799 65.872 83.2999 65.688 84.0359 64.952V66.976H84.2199ZM82.0119 59.248C82.1959 59.248 82.3799 59.432 82.5639 59.432C83.4839 59.984 84.2199 60.72 84.2199 61.456C84.2199 62.744 82.5639 63.664 81.0919 64.216C77.0439 65.32 72.4439 63.664 72.4439 61.456C72.4439 60.72 72.9959 59.984 73.9159 59.432C74.0999 59.432 74.0999 59.248 74.2839 59.248V60.904C74.2839 61.64 74.8359 62.376 75.5719 62.928C77.0439 63.848 79.4359 63.664 80.7239 62.928C81.6439 62.376 82.0119 61.64 82.0119 60.904V59.248ZM80.1719 51.336V61.088C80.1719 61.088 79.9879 61.272 79.8039 61.456C78.8839 62.008 77.4119 62.008 76.4919 61.456C76.1239 61.272 76.1239 61.088 76.1239 61.088C76.1239 60.904 76.1239 53.544 76.1239 53.728C76.3079 53.728 80.5399 51.152 80.1719 51.336ZM28.6519 9.01599L39.5079 15.272L36.7479 16.928L25.8919 10.672L28.6519 9.01599ZM47.7879 37.72V25.392C47.9719 25.576 59.3799 32.016 58.6439 31.648C58.6439 31.832 58.6439 44.344 58.6439 43.976L47.7879 37.72ZM67.6599 29.808L65.0839 31.28V29.072L67.6599 27.6V29.808ZM72.0759 28.888V37.352L60.2999 44.16V31.832L63.0599 30.176V32.936C63.0599 33.304 63.2439 33.488 63.6119 33.672C63.9799 33.856 64.1639 33.856 64.5319 33.672L68.9479 31.096C69.3159 30.912 69.4999 30.544 69.4999 30.36V26.496L72.0759 25.024V28.888ZM63.9799 27.416L53.1239 21.16L55.6999 19.688L66.5559 25.944L63.9799 27.416ZM62.1399 28.52L59.3799 29.992L48.5239 23.736C48.8919 23.552 47.6039 24.288 51.2839 22.08L62.1399 28.52ZM49.4439 21.16L46.3159 23C45.9479 23.184 45.9479 23.552 45.7639 23.736C45.7639 23.92 45.7639 26.312 45.7639 26.128L37.6679 30.728C37.6679 30.544 37.6679 17.48 37.6679 18.4L40.4279 16.744V19.504C40.4279 19.872 40.6119 20.056 40.9799 20.24C41.3479 20.424 41.5319 20.424 41.8999 20.24L46.3159 17.664C46.6839 17.48 46.8679 17.112 46.8679 16.928V13.064L49.4439 11.592C49.4439 11.96 49.4439 21.344 49.4439 21.16ZM45.0279 16.56L42.4519 18.032V15.824L45.0279 14.352V16.56ZM41.3479 14.168L30.4919 7.91199L33.0679 6.43999L43.9239 12.696L41.3479 14.168ZM35.8279 18.4C35.8279 18.584 35.8279 31.648 35.8279 30.728L24.9719 24.472V12.144C25.1559 12.328 36.5639 18.952 35.8279 18.4ZM60.2999 16.928L71.1559 23.184L68.5799 24.84L57.7239 18.584L60.2999 16.928ZM53.6759 18.768L51.2839 20.056V17.296L53.6759 18.768ZM37.6679 3.86399L48.5239 10.12L45.7639 11.592L34.9079 5.33599L37.6679 3.86399ZM23.1319 19.872V25.024C23.1319 25.208 23.1319 25.392 23.3159 25.576C23.3159 25.76 23.4999 25.76 23.6839 25.944C23.8679 26.128 36.5639 33.488 36.3799 33.304C36.7479 33.488 36.9319 33.488 37.2999 33.304L45.9479 28.336V38.272C45.9479 38.64 46.1319 38.824 46.4999 39.008C46.6839 39.192 59.3799 46.552 59.1959 46.368C59.5639 46.552 59.7479 46.552 60.1159 46.368L73.7319 38.456C74.0999 38.272 74.2839 37.904 74.2839 37.72V30.36L77.5959 32.2C81.2759 34.408 84.4039 39.56 84.4039 43.976C84.4039 45.816 83.8519 47.288 82.7479 47.84C81.2759 48.76 60.6679 60.72 59.0119 61.64C60.2999 56.12 56.2519 48.944 51.4679 46.368L15.7719 26.128C15.2199 25.76 14.4839 25.576 13.9319 25.392L23.1319 19.872ZM10.6199 27.232C11.9079 26.496 13.5639 27.048 14.8519 27.784L50.1799 48.024C53.3079 49.864 56.0679 53.912 56.8039 57.776C57.1719 59.248 57.1719 60.72 56.6199 62.008C56.0679 64.032 54.0439 64.768 51.0999 63.112C38.2199 55.568 31.4119 51.704 15.7719 42.688C12.0919 40.664 8.96394 35.144 8.96394 30.912C8.96394 29.256 9.51594 27.784 10.6199 27.232Z" fill="white"/>
</svg>
