<svg width="93" height="92" viewBox="0 0 93 92" fill="none" xmlns="http://www.w3.org/2000/svg">
<path d="M22.5802 84.64L31.2282 89.608C31.5962 89.792 32.1482 89.792 32.5162 89.424L38.9562 80.592L44.6602 82.064C45.0282 82.248 45.3962 82.064 45.5802 81.696L51.6522 73.232L57.3562 74.704C57.7242 74.888 58.0922 74.704 58.2762 74.336L64.3482 65.872L70.0522 67.344C70.6042 67.528 71.1562 66.976 71.1562 66.424L70.9722 8.096C70.9722 7.728 70.7882 7.544 70.4202 7.36C69.8682 6.992 61.5882 2.208 61.7722 2.392C61.4042 2.208 61.2202 2.208 60.8522 2.392L22.2122 24.656C21.8442 24.84 21.8442 25.208 21.6602 25.392C21.6602 25.576 21.6602 31.832 21.6602 31.648C21.6602 32.2 22.0282 32.568 22.5802 32.568C23.1322 32.568 23.5002 32.2 23.5002 31.648V27.048L30.3082 30.912L30.4922 87.216L23.6842 83.352L23.5002 41.952C23.5002 41.4 23.1322 41.032 22.5802 41.032C22.0282 41.032 21.6602 41.4 21.6602 41.952L21.8442 83.904C22.0282 84.272 22.2122 84.456 22.5802 84.64ZM63.9802 64.032C63.6122 63.848 63.2442 64.032 63.0602 64.4L56.9882 72.864L51.2842 71.392C50.9162 71.208 50.5482 71.392 50.3642 71.76L44.2922 80.224L38.5882 78.752C38.2202 78.568 37.8522 78.752 37.6682 79.12L32.5162 86.112C32.5162 73.048 32.3322 44.344 32.3322 30.912C39.6922 26.68 56.2522 17.112 69.1322 9.752L69.3162 65.504L63.9802 64.032ZM61.4042 4.232L68.2122 8.096L31.4122 29.256C31.2282 29.072 24.2362 25.208 24.6042 25.392L61.4042 4.232Z" fill="white"/>
<path d="M22.9483 39.008C23.5003 39.008 23.8683 38.64 23.8683 38.088V34.96C23.8683 34.408 23.5003 34.04 22.9483 34.04C22.3963 34.04 22.0283 34.408 22.0283 34.96V38.088C22.0283 38.64 22.3963 39.008 22.9483 39.008Z" fill="white"/>
<path d="M63.4284 18.952L43.5564 30.36C43.1884 30.544 43.0044 31.096 43.1884 31.648C43.3724 32.016 43.9244 32.2 44.4764 32.016L64.3484 20.608C64.7164 20.424 64.9004 19.872 64.7164 19.32C64.5324 18.952 63.9804 18.768 63.4284 18.952Z" fill="white"/>
<path d="M63.4282 28.52L44.2922 39.56C43.9242 39.744 43.7402 40.296 43.9242 40.848C44.1082 41.216 44.6602 41.4 45.2122 41.216L64.3482 30.176C64.7162 29.992 64.9002 29.44 64.7162 28.888C64.5322 28.52 63.9802 28.336 63.4282 28.52Z" fill="white"/>
<path d="M63.428 38.088L37.116 53.36C36.748 53.544 36.564 54.096 36.748 54.648C36.932 55.016 37.484 55.2 38.036 55.016L64.348 39.744C64.716 39.56 64.9 39.008 64.716 38.456C64.532 38.088 63.98 37.904 63.428 38.088Z" fill="white"/>
<path d="M63.428 47.656L37.116 62.928C36.748 63.112 36.564 63.664 36.748 64.216C36.932 64.584 37.484 64.768 38.036 64.584L64.348 49.312C64.716 49.128 64.9 48.576 64.716 48.024C64.532 47.656 63.98 47.472 63.428 47.656Z" fill="white"/>
<path d="M63.428 57.224L37.116 72.496C36.748 72.68 36.564 73.232 36.748 73.784C36.932 74.152 37.484 74.336 38.036 74.152L64.348 58.88C64.716 58.696 64.9 58.144 64.716 57.592C64.532 57.224 63.98 57.04 63.428 57.224Z" fill="white"/>
<path d="M37.852 45.448V46.552C37.852 47.104 38.22 47.472 38.772 47.472C39.324 47.472 39.692 47.104 39.692 46.552V44.712C40.98 43.792 41.9 41.952 41.9 40.48C41.9 39.56 41.532 38.64 40.796 38.272C40.06 37.904 39.14 37.904 38.404 38.456C38.036 38.64 37.852 38.64 37.852 38.64C37.852 38.64 37.668 38.456 37.668 38.088C37.668 36.984 38.404 35.696 39.324 35.144C39.692 34.96 39.876 34.96 39.876 34.96C39.876 34.96 40.06 35.144 40.06 35.512C40.06 36.064 40.428 36.432 40.98 36.432C41.532 36.432 41.9 36.064 41.9 35.512C41.9 34.592 41.532 33.672 40.796 33.304C40.428 33.12 40.06 33.12 39.692 33.12V32.016C39.692 31.464 39.324 31.096 38.772 31.096C38.22 31.096 37.852 31.464 37.852 32.016V33.856C36.564 34.776 35.644 36.616 35.644 38.088C35.644 39.008 36.012 39.928 36.748 40.296C37.484 40.664 38.404 40.664 39.14 40.112C39.508 39.928 39.692 39.928 39.692 39.928C39.692 39.928 39.876 40.112 39.876 40.48C39.876 41.584 39.14 42.872 38.22 43.424C37.852 43.608 37.668 43.608 37.668 43.608C37.668 43.608 37.484 43.424 37.484 43.056C37.484 42.504 37.116 42.136 36.564 42.136C36.012 42.136 35.644 42.504 35.644 43.056C35.644 43.976 36.012 44.896 36.748 45.264C37.116 45.264 37.484 45.448 37.852 45.448Z" fill="white"/>
</svg>
