<svg width="93" height="92" viewBox="0 0 93 92" fill="none" xmlns="http://www.w3.org/2000/svg">
<path d="M33.0677 28.152L57.9077 13.8C58.2757 13.616 58.4597 13.064 58.2757 12.512C58.0917 12.144 57.5397 11.96 56.9877 12.144L32.1477 26.496C31.7797 26.68 31.5957 27.232 31.7797 27.784C32.1477 28.152 32.6997 28.336 33.0677 28.152Z" fill="white"/>
<path d="M37.1156 68.816C37.2996 69.184 37.8516 69.368 38.4036 69.184L63.2436 54.832C63.6116 54.648 63.7956 54.096 63.6116 53.544C63.4276 53.176 62.8756 52.992 62.3236 53.176L37.4836 67.528C37.1156 67.896 36.9316 68.448 37.1156 68.816Z" fill="white"/>
<path d="M68.2117 74.336L70.7878 72.864C71.1558 72.68 71.3398 72.128 71.1558 71.576C70.9718 71.208 70.4198 71.024 69.8678 71.208L67.2917 72.68C66.9237 72.864 66.7397 73.416 66.9237 73.968C67.2917 74.52 67.8437 74.704 68.2117 74.336Z" fill="white"/>
<path d="M80.5398 58.696L74.8358 55.384C74.4678 55.2 74.2838 55.2 73.9158 55.384L69.1318 58.144C68.3958 57.04 67.8438 55.568 67.8438 54.464L68.0278 20.24C68.0278 13.984 63.6118 6.25599 58.0918 3.12799C55.3318 1.47199 52.5718 1.28799 50.5478 2.57599L15.2198 23.184C13.1958 24.472 12.0918 26.864 12.0918 29.992C12.0918 30.36 12.2758 30.544 12.6438 30.728L18.1638 34.04C18.5318 34.224 18.7158 34.224 19.0838 34.04C19.4518 33.856 19.6358 33.488 19.6358 33.304C19.6358 31.648 20.5558 31.096 22.0278 31.832C23.8678 32.936 25.3398 35.512 25.3398 37.72L25.1558 71.944C25.1558 78.2 29.5718 85.744 34.9078 88.872C37.2998 90.16 40.0598 90.896 42.4518 89.608L65.4518 76.36C65.8198 76.176 66.0038 75.624 65.8198 75.072C65.6358 74.704 65.0838 74.52 64.5318 74.704L45.2118 85.928C45.2118 85.928 45.2118 85.928 45.2118 85.744C45.7638 83.904 45.5798 82.432 45.5798 80.776L79.0678 61.272V62.376C79.0678 64.768 78.3318 66.608 76.8598 67.528L72.8118 69.92C72.4438 70.104 72.2598 70.656 72.4438 71.208C72.6278 71.576 73.1798 71.76 73.7318 71.576L77.7798 69.184C79.8038 68.08 80.9078 65.504 80.9078 62.376C80.9078 62.376 80.9078 62.56 80.9078 59.8C80.9078 59.064 80.9078 58.88 80.5398 58.696ZM74.4678 57.224L78.3318 59.432L44.6598 78.936C44.4758 78.752 40.6118 76.544 40.7958 76.728C42.6358 75.808 68.9478 60.536 74.4678 57.224ZM51.4678 4.23199C52.9398 3.31199 54.9638 3.67999 57.1718 4.96799C62.1398 7.91199 66.1878 14.72 66.1878 20.424L66.0038 54.648C66.0038 56.12 66.5558 57.776 67.4758 59.248L38.5878 75.992C38.4038 76.176 38.2198 76.36 38.2198 76.728V79.304C38.2198 80.96 37.2998 81.512 35.8278 80.592C34.1718 79.672 32.5158 77.096 32.5158 75.072L32.6998 40.848C32.6998 34.776 28.4678 27.048 22.7638 23.736C21.6598 23.184 20.5558 22.632 19.8198 22.448L51.4678 4.23199ZM35.8278 87.216C30.8598 84.456 26.9958 77.464 26.9958 71.944L27.1798 37.72C27.1798 34.96 25.3398 31.648 22.9478 30.36C20.7398 29.072 18.5318 29.808 17.9798 31.832L13.9318 29.44C14.1158 24.288 17.7958 23 22.0278 25.392C26.9958 28.336 31.0438 35.144 31.0438 40.848L30.8598 75.072C30.8598 77.832 32.6998 80.96 35.0918 82.248C37.6678 83.72 40.2438 82.432 40.2438 79.304V78.2L44.1078 80.408C44.1078 81.88 44.1078 81.328 44.1078 82.984C43.5558 87.952 40.2438 89.608 35.8278 87.216Z" fill="white"/>
<path d="M47.7877 27.232C47.4197 27.048 46.8677 27.232 46.4997 27.6L45.3957 29.624L44.2917 28.888C43.9237 28.704 43.3717 28.704 43.0037 29.072C42.8197 29.44 42.8197 29.992 43.1877 30.36L44.4757 31.096L43.3717 32.936C43.1877 33.304 43.3717 33.856 43.7397 34.224C44.1077 34.408 44.6597 34.224 45.0277 33.856L45.9477 32.016L46.8677 32.568C47.2357 32.752 47.7877 32.752 48.1557 32.384C48.3397 32.016 48.3397 31.464 47.9717 31.096L46.8677 30.36L47.9717 28.152C48.3397 27.968 48.1557 27.416 47.7877 27.232Z" fill="white"/>
<path d="M38.2198 40.848L37.1158 42.688C36.9318 43.056 37.1158 43.608 37.4838 43.976C37.8518 44.16 38.4038 43.976 38.7718 43.608L39.6918 41.768L40.6118 42.32C40.9798 42.504 41.5318 42.504 41.8998 42.136C42.0838 41.768 42.0838 41.216 41.7158 40.848L40.6118 40.112L41.7158 37.904C41.8998 37.536 41.7158 36.984 41.3478 36.616C40.9798 36.432 40.4278 36.616 40.0598 36.984L39.1398 39.376L38.0358 38.64C37.6678 38.272 37.1158 38.456 36.7478 38.824C36.5638 39.192 36.5638 39.744 36.9318 40.112L38.2198 40.848Z" fill="white"/>
<path d="M60.2999 38.088C59.9319 37.904 59.3799 38.088 59.0119 38.456L57.9079 40.48L56.8039 39.744C56.4359 39.56 55.8839 39.56 55.5159 39.928C55.3319 40.296 55.3319 40.848 55.6999 41.216L56.9879 41.952L55.8839 43.792C55.6999 44.16 55.8839 44.712 56.2519 45.08C56.6199 45.264 57.1719 45.08 57.5399 44.712L58.4599 42.872L59.3799 43.424C59.7479 43.608 60.2999 43.608 60.6679 43.24C60.8519 42.872 60.8519 42.32 60.4839 41.952L59.3799 41.4L60.4839 39.192C60.8519 38.824 60.6679 38.272 60.2999 38.088Z" fill="white"/>
<path d="M52.3879 47.472C52.0199 47.288 51.4679 47.472 51.0999 47.84L50.1799 49.864L49.0759 49.128C48.7079 48.944 48.1559 48.944 47.7879 49.312C47.6039 49.68 47.6039 50.232 47.9719 50.6L49.2599 51.336L48.1559 53.176C47.9719 53.544 48.1559 54.096 48.5239 54.464C48.8919 54.648 49.4439 54.464 49.8119 54.096L50.7319 52.256L51.6519 52.808C52.0199 52.992 52.5719 52.992 52.9399 52.624C53.1239 52.256 53.1239 51.704 52.7559 51.336L51.6519 50.6L52.7559 48.392C53.1239 48.208 52.9399 47.656 52.3879 47.472Z" fill="white"/>
<path d="M56.4358 24.472C54.4118 25.76 52.7558 28.52 52.7558 30.912C52.7558 32.568 53.4918 34.04 55.3318 34.04C54.7798 35.512 53.6758 36.984 52.3878 38.088C51.4678 38.824 50.5478 39.376 49.6278 39.928C48.7078 40.48 47.7878 41.216 46.8678 41.768C45.2118 43.056 43.7398 44.528 42.6358 46.184C42.0838 46.184 41.5318 46.368 40.9798 46.736C38.9558 48.024 37.2998 50.784 37.2998 53.176C37.2998 55.936 39.5078 57.224 42.0838 55.752C44.1078 54.464 45.7638 51.704 45.7638 49.312C45.7638 48.208 45.3958 47.288 44.6598 46.736C45.5798 45.448 46.8678 44.16 48.1558 43.056C49.0758 42.32 49.9958 41.768 50.7318 41.216C51.6518 40.664 52.5718 39.928 53.4918 39.192C55.3318 37.72 56.9878 35.512 57.5398 33.12C57.5398 33.12 57.5398 33.12 57.7238 33.12C59.7478 31.832 61.4038 29.072 61.4038 26.68C61.0358 24.288 58.8278 23 56.4358 24.472ZM40.7958 54.648C39.6918 55.384 38.7718 55.016 38.7718 53.544C38.7718 51.704 40.0598 49.496 41.5318 48.576C42.8198 47.84 43.3718 48.208 43.3718 49.68C43.5558 51.52 42.2678 53.728 40.7958 54.648ZM59.1958 27.048C59.1958 28.888 57.9078 31.096 56.4358 32.016C55.3318 32.752 54.4118 32.384 54.4118 30.912C54.4118 29.072 55.6998 26.864 57.1718 25.944C58.4598 25.392 59.1958 25.76 59.1958 27.048Z" fill="white"/>
</svg>
