<svg width="93" height="92" viewBox="0 0 93 92" fill="none" xmlns="http://www.w3.org/2000/svg">
<path d="M68.2117 73.6L71.5237 71.576C71.8917 71.392 72.0757 70.84 71.8917 70.288C71.7077 69.92 71.1557 69.736 70.6037 69.92L67.2917 71.944C66.9237 72.128 66.7397 72.68 66.9237 73.232C67.2917 73.784 67.8437 73.784 68.2117 73.6Z" fill="white"/>
<path d="M80.3559 37.168L90.1078 31.464C90.4758 31.28 90.4758 30.912 90.4758 30.728C90.4758 30.544 90.2918 30.176 89.9238 29.992L52.9398 8.464C52.5718 8.28 52.3878 8.28 52.0198 8.464L47.7878 10.856C47.6038 10.856 47.4198 10.856 47.2358 11.04L41.1638 14.536L30.6758 8.464C30.3078 8.28 29.9398 8.28 29.7558 8.464L2.70784 25.208C2.52384 25.392 2.33984 25.576 2.33984 25.944C2.33984 26.312 2.52384 26.496 2.70784 26.68L12.4598 32.384L2.70784 38.088C2.52384 38.272 2.33984 38.64 2.33984 39.008C2.33984 39.376 2.52384 39.56 2.89184 39.744L13.3798 45.816V61.64C13.3798 62.008 13.5638 62.192 13.9318 62.376L50.1798 83.536C50.5478 83.72 50.7318 83.72 51.0998 83.536C56.0678 80.776 65.8198 75.072 65.2678 75.256C65.6358 75.072 65.8198 74.52 65.6358 73.968C65.4518 73.6 64.8998 73.416 64.3478 73.6L51.4678 81.144V55.016L61.2198 60.72C61.5878 60.904 61.7718 60.904 62.1398 60.72L77.4118 51.888V66.056L73.3638 68.448C72.9958 68.632 72.8119 69.184 72.9958 69.736C73.1798 70.104 73.7318 70.288 74.2838 70.104L78.6998 67.528C79.0678 67.344 79.0678 66.976 79.0678 66.792V50.968L89.7398 44.712C90.1078 44.528 90.1078 44.16 90.1078 43.976C90.1078 43.792 89.9238 43.424 89.7398 43.24L80.3559 37.168ZM47.7878 12.88L69.8678 25.76C69.6838 25.944 61.4038 30.728 61.5878 30.544L39.5078 17.664L47.7878 12.88ZM43.3718 42.136C43.3718 42.688 43.3718 48.392 43.3718 48.208L21.2918 35.512V29.44C21.4758 29.44 42.2678 41.4 43.3718 42.136ZM55.1478 36.432L60.6678 33.304V39.56L55.1478 42.872V36.432ZM54.2278 34.776L32.1478 21.896L37.6678 18.768L59.7478 31.648L54.2278 34.776ZM76.6758 37.168L72.6278 39.56V34.776L76.6758 37.168ZM70.7878 27.416C70.7878 27.968 70.7878 41.584 70.7878 40.664L50.7318 52.256L45.2118 49.128C45.2118 48.944 45.2118 41.584 45.2118 42.136L53.3078 37.536V44.528C53.3078 45.08 53.6758 45.448 54.2278 45.448C54.4118 45.448 54.5958 45.448 54.7798 45.264L62.1398 40.848C62.5078 40.664 62.5078 40.296 62.5078 40.112V32.2C63.2438 31.648 71.1558 27.048 70.7878 27.416ZM16.1398 32.384L19.2678 30.36V34.224L16.1398 32.384ZM30.1238 23L52.2038 35.88L44.2918 40.48L22.2118 27.6C22.3958 27.6 30.6758 22.816 30.1238 23ZM15.4038 34.04C15.0358 33.856 18.7158 36.064 48.8918 53.36L39.5078 58.88L15.2198 44.896L15.4038 34.04ZM52.5718 10.304L87.8998 30.728L78.5158 36.064L72.6278 32.568V25.576C72.6278 25.208 72.2598 24.84 72.2598 24.84L49.8118 11.96L52.5718 10.304ZM30.3078 10.304L39.3238 15.64C38.7718 16.008 19.6358 27.048 19.8198 26.864C19.4518 27.048 19.4518 27.416 19.4518 27.6V28.152L14.4838 31.28L5.09984 25.76L30.3078 10.304ZM5.09984 39.008L13.5638 34.04V43.792L5.09984 39.008ZM15.2198 46.92L39.1398 60.72C39.5078 60.904 39.6918 60.904 40.0598 60.72L49.8118 55.016V81.144L15.2198 61.272V46.92ZM61.9558 58.88L52.5718 53.36C55.1478 51.888 43.1878 58.696 77.5958 38.824V49.68L61.9558 58.88ZM79.4358 48.576V38.824L87.8998 43.792L79.4358 48.576Z" fill="white"/>
</svg>
