<svg width="93" height="92" viewBox="0 0 93 92" fill="none" xmlns="http://www.w3.org/2000/svg">
<path d="M30.1235 54.832C30.1235 55.2 30.3075 55.384 30.4915 55.568C30.6755 55.752 45.7635 64.4 45.5795 64.216C45.7635 64.216 45.9475 64.4 45.9475 64.4C45.9475 64.4 46.3155 64.4 46.4995 64.216L54.4115 59.616C54.7795 59.432 54.9635 58.88 54.7795 58.328C54.5955 57.96 54.0435 57.776 53.4915 57.96L46.8675 61.824C46.8675 61.64 46.8675 45.816 46.8675 46.736L50.5475 44.712V48.392C50.5475 48.944 50.9155 49.312 51.4675 49.312C51.6515 49.312 51.8355 49.312 52.0195 49.128L57.3555 46C57.7235 45.816 57.9075 45.448 57.9075 45.264V40.48L61.2195 38.64V53.728L59.5635 54.648C59.1955 54.832 59.0115 55.384 59.1955 55.936C59.3795 56.304 59.9315 56.488 60.4835 56.304L62.5075 55.016C62.8755 54.832 63.0595 54.464 63.0595 54.28V36.984V36.8V36.616L62.8755 36.432C62.8755 36.432 62.8755 36.248 62.6915 36.248C58.6435 33.856 46.8675 27.048 47.6035 27.6C47.2355 27.416 47.0515 27.416 46.6835 27.6L30.4915 36.8C30.3075 36.8 30.3075 36.984 30.1235 37.168V37.352V37.536V54.832ZM41.7155 32.568L54.9635 40.296L51.4675 42.32L38.2195 34.592L41.7155 32.568ZM31.9635 54.28V39.192L45.2115 46.92C45.2115 47.104 45.2115 62.376 45.2115 62.008L31.9635 54.28ZM52.3875 46.92V43.792L55.8835 41.768V44.896L52.3875 46.92ZM47.0515 29.44L60.2995 37.168L56.8035 39.192L43.5555 31.464L47.0515 29.44ZM36.3795 35.696L49.6275 43.424L45.9475 45.448L32.6995 37.72L36.3795 35.696Z" fill="white"/>
<path d="M57.54 55.936L55.7 57.04C55.332 57.224 55.1479 57.776 55.3319 58.328C55.5159 58.696 56.068 58.88 56.62 58.696L58.46 57.592C58.828 57.408 59.012 56.856 58.828 56.304C58.46 55.752 57.908 55.752 57.54 55.936Z" fill="white"/>
<path d="M39.1396 82.064L45.9476 89.792C46.1316 89.976 46.3156 90.16 46.6836 90.16C47.0516 90.16 47.4196 89.976 47.6036 89.608L54.2276 74.152C54.4116 73.784 54.2276 73.416 54.0436 73.048C53.8596 72.68 53.3076 72.68 52.9396 72.864L49.8116 74.704V68.816C49.8116 68.448 49.6276 68.264 49.2596 68.08C48.8916 67.896 48.7076 67.896 48.3396 68.08L43.9236 70.656C43.5556 70.84 43.3716 71.208 43.3716 71.392V78.2L39.3236 80.408C38.9556 80.96 38.7716 81.696 39.1396 82.064ZM44.8436 79.672C45.2116 79.488 45.3956 79.12 45.3956 78.936V71.944L47.9716 70.472V76.36C47.9716 76.728 48.1556 76.912 48.5236 77.096C48.8916 77.28 49.0756 77.28 49.4436 77.096L51.4676 75.992L46.4996 87.584L41.5316 81.88L44.8436 79.672Z" fill="white"/>
<path d="M53.8596 9.936L47.0516 2.208C46.8676 1.84 46.4996 1.84 46.3156 1.84C45.9476 1.84 45.7636 2.024 45.5796 2.392L38.9556 17.848C38.7716 18.216 38.9556 18.584 39.1396 18.952C39.5076 19.136 39.8756 19.32 40.2436 19.136L43.3716 17.296V23C43.3716 23.552 43.7396 23.92 44.2916 23.92C44.4756 23.92 44.6596 23.92 44.8436 23.736L49.4436 21.16C49.8116 20.976 49.9956 20.608 49.9956 20.424V13.8L54.0436 11.592C54.0436 11.04 54.2276 10.304 53.8596 9.936ZM48.1556 12.144C47.7876 12.328 47.6036 12.696 47.6036 12.88V19.504L44.8436 20.976V15.272C44.8436 14.904 44.6596 14.72 44.2916 14.536C43.9236 14.352 43.5556 14.352 43.3716 14.536L41.3476 15.64L46.3156 4.048L51.2836 9.752L48.1556 12.144Z" fill="white"/>
<path d="M17.9798 54.096C17.6118 53.912 17.2438 54.096 16.8758 54.464L6.75578 68.08C6.57178 68.264 6.57178 68.632 6.57178 69C6.75578 69.368 6.93978 69.552 7.30778 69.552L17.4278 71.392C17.9798 71.576 18.5318 71.024 18.5318 70.472V65.872L24.9718 62.192C25.3398 62.008 25.5238 61.64 25.5238 61.456V56.304C25.5238 55.936 25.3398 55.752 24.9718 55.568C24.6038 55.384 24.4198 55.384 24.0518 55.568L18.5318 58.88V55.384C18.5318 54.464 18.3478 54.28 17.9798 54.096ZM23.6838 57.592V60.72L17.2438 64.4C16.8758 64.584 16.6918 64.952 16.6918 65.136V69.184L9.14778 67.712L16.6918 57.592V59.984C16.6918 60.352 16.8758 60.536 17.2438 60.72C17.6118 60.904 17.7958 60.904 18.1638 60.72L23.6838 57.592Z" fill="white"/>
<path d="M68.3958 36.432C68.7638 36.616 68.9478 36.616 69.3158 36.432L74.4678 33.488V36.984C74.4678 37.352 74.6518 37.72 75.0198 37.904C75.3878 38.088 75.7557 37.904 76.1237 37.536L86.2437 23.92C86.4277 23.736 86.4278 23.368 86.4278 23C86.2438 22.632 86.0598 22.448 85.6918 22.448L75.5718 20.608C75.0198 20.424 74.4678 20.976 74.4678 21.528V26.128L68.3958 29.624C68.0278 29.808 67.8438 30.176 67.8438 30.36V35.512C67.8438 36.064 68.0278 36.248 68.3958 36.432ZM75.7558 27.6C76.1238 27.416 76.3078 27.048 76.3078 26.864V22.816L83.8518 24.288L76.3078 34.408V32.016C76.3078 31.648 76.1238 31.464 75.7558 31.28C75.5718 31.096 75.2038 31.096 74.8358 31.28L69.6837 34.224V31.096L75.7558 27.6Z" fill="white"/>
</svg>
