<svg width="93" height="92" viewBox="0 0 93 92" fill="none" xmlns="http://www.w3.org/2000/svg">
<path d="M13.564 15.824C13.932 15.456 14.3 15.272 14.668 14.904C15.036 14.72 15.22 14.168 14.852 13.616C14.484 13.248 13.932 13.248 13.564 13.432C13.196 13.8 12.644 14.168 12.276 14.536C11.908 14.72 11.908 15.456 12.276 15.824C12.46 16.192 13.012 16.192 13.564 15.824Z" fill="white"/>
<path d="M86.0598 64.032C86.6118 63.296 87.3478 62.008 87.3478 60.536C87.1638 58.512 85.6918 56.488 82.7478 54.648C82.7478 54.28 82.7478 37.168 82.7478 37.352C82.7478 37.168 82.5639 36.8 82.1958 36.616L62.3238 25.024C61.9558 24.84 61.7718 24.84 61.4038 25.024C61.2198 25.208 49.8118 31.832 50.5478 31.28C48.1558 29.808 45.9478 28.52 43.5558 27.6C43.3718 23.736 41.8998 20.792 39.5078 19.32C39.3238 19.136 25.1558 11.04 25.3398 11.04C22.9478 9.568 19.6358 9.752 16.1398 11.408C15.7718 12.144 15.5878 12.696 15.7718 13.064C15.9558 13.616 16.5078 13.8 17.0598 13.432C19.8198 11.96 22.5798 11.776 24.4198 12.88L34.3558 18.584C29.9398 19.32 25.8918 22.632 23.1318 26.128C18.5318 31.648 14.8518 41.032 17.4278 47.656V47.84L7.49184 42.32C5.28384 41.032 4.17984 38.456 4.17984 34.96C4.17984 30.36 6.20384 24.656 9.69984 20.056C10.2518 19.32 10.9878 18.4 11.5398 17.664C11.9078 17.296 11.9078 16.744 11.5398 16.376C10.9878 16.192 10.4358 16.192 10.0678 16.56C9.33184 17.296 8.59584 18.216 8.04384 19.136C4.54784 23.92 2.33984 29.808 2.33984 34.96C2.33984 39.192 3.81184 42.32 6.57184 43.792C20.1878 51.52 20.7398 52.624 23.6838 52.992V53.36C23.4998 54.832 24.0518 56.488 24.9718 57.776C25.1558 57.96 33.0678 68.632 32.5158 67.896C33.9878 69.736 35.8278 71.024 38.0358 71.76C39.6918 72.496 40.4278 72.496 43.0038 73.416C45.5798 74.52 47.6038 75.256 49.2598 75.624C49.9958 75.808 50.9158 75.808 51.4678 75.44C51.8358 75.256 52.0198 75.072 52.3878 74.888C55.8838 76.544 66.5558 81.696 72.8118 81.696C74.2838 81.696 75.5718 81.328 76.4918 80.592C77.4118 79.856 77.7798 78.752 77.5958 77.28C79.8038 78.384 83.8518 79.672 86.2438 78.384C86.9798 78.016 87.8998 77.096 88.0838 75.256C89.0038 74.888 90.4758 73.968 90.8438 72.128C91.0278 69.736 89.5558 67.16 86.0598 64.032ZM85.5078 60.72C85.5078 61.824 84.9558 62.56 84.5878 63.112C83.8518 62.744 82.9318 62.376 81.6438 61.64L82.3798 61.272C82.7478 61.088 82.7478 60.72 82.7478 60.536V57.04C84.4038 58.144 85.3238 59.432 85.5078 60.72ZM67.8438 44.528L49.8118 34.04C50.3638 33.672 54.2278 31.464 54.0438 31.648L72.0759 42.136C71.8918 42.136 67.6598 44.712 67.8438 44.528ZM80.9078 55.2V59.984L60.8518 71.576V50.784L66.9238 47.288V53.912C66.9238 54.28 67.1078 54.464 67.4758 54.648C67.8438 54.832 68.0278 54.832 68.3959 54.648L74.2838 51.152C74.6518 50.968 74.6518 50.6 74.6518 50.416V42.688L80.7238 39.192L80.9078 55.2ZM68.7638 46L72.8118 43.608V49.68L68.7638 52.072V46ZM47.9718 35.144L66.0038 45.632L59.9318 49.128L41.8998 38.64C42.0838 38.456 48.3398 34.96 47.9718 35.144ZM40.9798 61.088C40.9798 58.88 40.9798 68.816 40.9798 40.296C45.0278 42.688 57.3558 49.68 59.0118 50.784C59.0118 53.728 59.0118 66.976 59.0118 71.576C57.1718 70.472 65.8198 75.44 40.9798 61.088ZM61.9558 27.048L79.9878 37.536L73.9158 41.032L55.6998 30.544L61.9558 27.048ZM41.7158 27.048C37.4838 25.208 35.2758 24.288 30.3078 22.264C32.5158 20.976 35.4598 19.872 37.8518 20.976C40.2438 21.896 41.5318 24.472 41.7158 27.048ZM18.3478 42.504V42.32C19.4518 43.056 20.5558 43.976 21.4758 45.08C22.9478 46.736 23.8678 48.576 23.6838 50.968V51.336C19.6358 50.784 18.1638 46.552 18.3478 42.504ZM50.5478 73.784C50.1798 73.968 49.8118 73.968 49.4438 73.784C47.9718 73.416 45.9478 72.68 43.5558 71.76C40.7958 70.656 40.2438 70.656 38.5878 69.92C36.7478 69.368 35.0918 68.08 33.8038 66.608C33.6198 66.424 25.8918 55.936 26.2598 56.488C24.7878 54.464 25.5238 50.784 25.5238 50.968C25.7078 48.024 24.6038 45.632 22.7638 43.608C21.6598 42.32 19.8198 41.032 18.5318 40.112C19.4518 34.224 23.3158 27.6 28.2838 23.552C28.2838 23.552 28.4678 23.552 28.4678 23.368C38.5878 27.6 40.9798 28.704 41.5318 28.888C43.7398 29.624 46.3158 30.728 48.7078 32.384C30.4918 43.056 56.4358 27.968 39.5078 37.72C39.3238 38.088 39.1398 38.272 39.1398 38.64C38.9558 70.104 39.1398 59.248 39.1398 61.64C39.1398 62.008 39.3238 62.192 39.6918 62.376C39.8758 62.56 50.5478 68.632 49.9958 68.264C51.0998 70.84 50.9158 73.416 50.9158 73.416C50.7318 73.6 50.5478 73.6 50.5478 73.784ZM75.0198 79.12C72.2598 81.512 60.1158 76.728 52.5718 72.864C52.5718 72.128 52.3878 71.024 52.2038 69.552L59.5638 73.784C59.9318 73.968 60.1158 73.968 60.4838 73.784C60.6678 73.6 68.0278 69.368 67.4758 69.736L69.3158 70.472C72.6278 72.128 77.5958 76.912 75.0198 79.12ZM84.9558 76.544C83.1158 77.464 79.0678 75.992 76.6758 74.704C76.1238 73.416 74.2838 70.656 70.0518 68.816L69.4998 68.632L74.8358 65.504L83.2998 69.368C86.0598 71.024 86.2438 74.152 86.2438 74.336C85.8758 75.44 85.6918 76.176 84.9558 76.544ZM88.8198 71.576C88.6358 72.312 88.2678 72.864 87.7159 73.048C87.3478 71.576 86.6118 69.368 84.0359 67.896L76.6758 64.584L79.8038 62.744C82.1958 64.032 83.4838 64.584 84.2198 64.952C88.6358 68.632 89.0038 70.656 88.8198 71.576Z" fill="white"/>
</svg>
