<svg width="93" height="92" viewBox="0 0 93 92" fill="none" xmlns="http://www.w3.org/2000/svg">
<path d="M19.6359 55.2C20.1879 54.464 20.9239 53.912 21.6599 53.36C22.0279 52.992 22.0279 52.4399 21.8439 52.0719C21.4759 51.7039 20.9239 51.704 20.5559 51.888C19.8199 52.44 19.0839 53.1759 18.5319 53.9119C18.1639 54.2799 18.1639 54.832 18.5319 55.2C18.7159 55.568 19.2679 55.568 19.6359 55.2Z" fill="white"/>
<path d="M17.612 55.936C17.244 55.568 16.692 55.752 16.324 56.12C12.644 61.088 10.436 66.976 10.436 72.128C10.436 76.36 11.908 79.488 14.484 80.96C14.668 81.144 21.844 85.192 22.028 85.376C25.156 87.216 28.836 86.296 31.78 84.456C34.908 82.616 37.852 79.672 39.876 76.544L47.972 77.464C48.34 80.776 49.628 83.352 52.02 84.64L59.564 89.056C62.692 90.896 66.372 89.976 69.316 88.136C76.308 84.088 82.196 74.152 82.196 65.688C82.196 62.192 81.092 58.696 78.148 56.856L70.604 52.44C67.476 50.6 63.796 51.52 60.668 53.36C57.356 55.2 54.412 58.328 52.02 62.192L44.66 61.456C44.66 60.536 44.476 59.984 44.292 59.064L59.748 39.376C60.668 39.928 61.772 40.112 63.06 40.112C64.9 40.112 67.108 39.56 69.132 38.272C75.388 34.592 80.908 26.312 81.828 18.4C82.564 13.432 81.092 7.72798 76.308 6.43998L70.42 3.12798C67.108 1.10398 63.98 1.65598 60.484 3.67998C53.308 7.91198 47.604 17.848 47.604 26.128C47.604 26.864 47.604 27.232 47.604 27.784L31.78 48.208C29.02 47.288 26.076 48.208 23.5 49.68C23.132 49.864 22.948 50.416 23.132 50.968C23.316 51.336 23.868 51.52 24.42 51.336C26.812 49.864 29.02 49.496 31.044 49.864C32.148 50.232 31.78 50.048 35.828 52.44C34.356 52.624 32.516 53.36 31.228 54.096C24.236 58.144 18.716 67.712 18.348 75.624C18.164 77.832 18.532 79.672 19.084 81.144C19.084 81.144 19.084 81.144 19.084 81.328L15.772 79.304C13.748 78.2 12.644 75.624 12.644 72.128C12.644 67.344 14.668 61.824 18.164 57.224C18.164 56.856 18.164 56.304 17.612 55.936ZM31.044 82.984C24.604 86.664 19.636 83.72 19.82 75.808C20.188 68.264 25.34 59.432 31.78 55.752C33.988 54.464 36.748 53.728 39.14 54.648C43.004 56.12 43.372 61.64 42.636 65.688C41.532 71.944 36.932 79.488 31.044 82.984ZM51.836 34.776L52.94 35.512C38.22 54.28 39.508 52.44 39.508 52.624L33.62 49.128L48.524 30.176C49.076 32.016 50.548 34.04 51.836 34.776ZM43.924 57.04C43.188 55.384 42.084 54.28 40.98 53.544C42.452 51.704 36.932 58.696 54.412 36.432L58.276 38.64L43.924 57.04ZM44.844 63.296L52.388 64.032L54.044 64.952L56.068 66.056L44.66 64.952C44.844 64.584 44.844 64.216 44.844 63.296ZM44.476 66.792L59.012 68.448C57.724 70.656 56.62 73.784 56.068 76.544L49.26 75.808L41.348 74.888C42.636 72.312 43.924 69.184 44.476 66.792ZM53.124 83.168C51.468 82.248 50.364 80.224 49.996 77.648L55.7 78.2V78.384C55.516 80.96 55.7 83.168 56.436 84.824V85.008L53.124 83.168ZM80.724 65.872C80.724 73.6 75.204 82.984 68.764 86.664C61.956 90.528 56.988 87.032 57.724 78.936C58.276 71.392 63.612 62.928 69.684 59.432C75.572 56.12 80.724 58.328 80.724 65.872ZM61.956 55.2C64.532 53.728 67.66 52.992 70.052 54.28L73.364 56.12C71.708 56.304 70.052 57.04 68.764 57.776C65.268 59.8 62.324 62.928 60.3 66.24L54.412 62.744C56.252 59.616 59.012 56.672 61.956 55.2ZM80.356 18.216C79.436 25.576 74.284 33.488 68.58 36.8C62.324 40.296 57.356 37.72 57.356 30.36C57.356 22.816 62.692 13.432 69.316 9.56798C71.34 8.46398 73.732 7.54398 75.94 8.09598C79.988 9.19998 80.908 14.168 80.356 18.216ZM61.772 5.15198C64.532 3.49598 67.108 2.94398 69.868 4.59998L72.812 6.25598C71.34 6.62398 69.868 7.17598 68.58 7.91198C61.404 12.144 55.7 22.08 55.7 30.36C55.7 32.2 56.068 33.856 56.436 35.144L52.756 33.12C50.548 31.648 49.812 28.704 49.812 25.944C49.812 18.4 55.148 9.01598 61.772 5.15198Z" fill="white"/>
<path d="M33.6202 68.448C32.8842 68.08 31.9642 68.08 31.2282 68.632C30.8602 68.816 30.6762 68.816 30.6762 68.816C30.6762 68.816 30.4922 68.632 30.4922 68.264C30.4922 67.16 31.2282 65.872 32.1482 65.32C32.5162 65.136 32.7002 65.136 32.7002 65.136C32.7002 65.136 32.8842 65.32 32.8842 65.688C32.8842 66.24 33.2522 66.608 33.8042 66.608C34.3562 66.608 34.7242 66.24 34.7242 65.688C34.7242 64.768 34.3562 63.848 33.6202 63.48C33.2522 63.296 32.8842 63.296 32.5162 63.296V62.192C32.5162 61.64 32.1482 61.272 31.5962 61.272C31.0442 61.272 30.6762 61.64 30.6762 62.192V64.032C29.3882 64.952 28.4682 66.792 28.4682 68.264C28.4682 69.184 28.8362 70.104 29.5722 70.472C30.3082 70.84 31.2282 70.84 31.9642 70.288C32.3322 70.104 32.5162 70.104 32.5162 70.104C32.5162 70.104 32.7002 70.288 32.7002 70.656C32.7002 71.76 31.9642 73.048 31.0442 73.6C30.6762 73.784 30.4922 73.784 30.3082 73.784C30.3082 73.784 30.1242 73.6 30.1242 73.232C30.1242 72.68 29.7562 72.312 29.2042 72.312C28.6522 72.312 28.2842 72.68 28.2842 73.232C28.2842 74.152 28.6522 75.072 29.3882 75.44C29.7562 75.624 30.1242 75.624 30.4922 75.624V76.728C30.4922 77.28 30.8602 77.648 31.4122 77.648C31.9642 77.648 32.3322 77.28 32.3322 76.728V74.888C33.6202 73.968 34.5402 72.128 34.5402 70.656C34.7242 69.552 34.1722 68.816 33.6202 68.448Z" fill="white"/>
<path d="M68.3962 22.632C65.6362 24.288 63.4282 28.152 63.4282 31.28V31.832C63.4282 32.2 63.6122 32.384 63.9802 32.568C64.3482 32.752 64.5322 32.752 64.9002 32.568L74.1002 27.232C74.4682 27.048 74.6522 26.68 74.6522 26.496V25.944C74.4682 22.448 71.7082 20.792 68.3962 22.632ZM65.4522 30.176C65.8202 27.784 67.4762 25.208 69.5002 24.104C71.3402 23 72.6282 23.736 72.8122 25.944L65.4522 30.176Z" fill="white"/>
<path d="M69.3159 21.16C70.9719 20.24 72.2599 18.032 72.2599 16.192C72.2599 13.984 70.4199 12.88 68.5799 13.984C66.9239 14.904 65.8199 17.112 65.8199 18.768C65.6359 21.16 67.4759 22.264 69.3159 21.16ZM69.3159 15.64C70.0519 15.272 70.2359 15.456 70.2359 16.192C70.2359 17.296 69.3159 18.952 68.3959 19.504C67.8439 19.872 67.4759 19.688 67.4759 18.952C67.4759 17.848 68.3959 16.376 69.3159 15.64Z" fill="white"/>
<path d="M68.5798 72.496C65.8198 74.152 63.6118 78.016 63.6118 81.144V81.696C63.6118 82.064 63.7958 82.248 64.1638 82.432C64.5318 82.616 64.7158 82.616 65.0838 82.432L74.2838 77.096C74.6518 76.912 74.8358 76.544 74.8358 76.36V75.808C74.6518 72.312 71.7078 70.656 68.5798 72.496ZM65.4518 80.04C65.8198 77.648 67.4758 75.072 69.4998 73.968C71.3398 72.864 72.6278 73.6 72.8118 75.808L65.4518 80.04Z" fill="white"/>
<path d="M69.4998 71.024C71.1558 70.104 72.2598 67.896 72.2598 66.24C72.2598 64.032 70.4198 62.928 68.5798 64.032C66.9238 64.952 65.8198 67.16 65.8198 68.816C65.8198 71.024 67.6598 72.128 69.4998 71.024ZM69.4998 65.504C70.0518 65.136 70.4198 65.32 70.4198 66.056C70.4198 67.16 69.4998 68.816 68.5798 69.368C68.0278 69.736 67.6598 69.552 67.6598 68.816C67.6598 67.712 68.3958 66.24 69.4998 65.504Z" fill="white"/>
</svg>
