<svg width="93" height="92" viewBox="0 0 93 92" fill="none" xmlns="http://www.w3.org/2000/svg">
<path d="M18.8998 83.352C18.8998 83.72 19.0838 83.904 19.2678 84.088C19.4518 84.272 29.5718 89.976 29.3878 89.976C29.7558 90.16 29.9398 90.16 30.3078 89.976L35.6438 86.848C36.0118 86.664 36.1958 86.112 36.0118 85.56C35.8278 85.192 35.2758 85.008 34.7238 85.192L30.8598 87.4C30.8598 86.848 30.8598 77.096 30.8598 77.28L40.4278 71.76V81.88L40.2438 82.064C39.8758 82.248 39.6918 82.8 39.8758 83.352C40.0598 83.72 40.6118 83.904 41.1638 83.72L41.8998 83.352C42.2678 83.168 42.4518 82.8 42.4518 82.616V70.472C42.4518 70.288 42.2678 69.736 42.0838 69.736C41.8998 69.552 31.5958 63.664 31.9638 63.848V61.456L61.2198 44.344V47.104L51.0998 52.992C50.7318 53.176 50.5478 53.544 50.5478 53.728C50.5478 53.912 50.5478 66.056 50.5478 65.872C50.5478 66.24 50.7318 66.424 50.9158 66.608C51.0998 66.792 61.2198 72.496 61.0358 72.496C61.4038 72.68 61.5878 72.68 61.9558 72.496L73.3638 65.872C73.7318 65.688 73.9158 65.32 73.9158 65.136V52.992C73.9158 52.808 73.7318 52.256 73.5478 52.256C73.3638 52.072 63.2438 46.368 63.4278 46.368C63.2438 46.368 63.0598 46.184 63.0598 46.184V42.872C63.0598 42.504 62.8758 42.32 62.5078 42.136C62.1398 41.952 61.9558 41.952 61.5878 42.136L47.2358 50.416V41.4C47.9718 41.032 48.7078 40.848 49.2598 40.48C57.1718 35.88 63.6118 24.84 63.6118 15.64C63.6118 11.04 61.9558 7.544 59.0118 5.888C58.2758 5.152 55.6998 3.68 54.4118 2.944C51.4678 1.288 47.6038 1.656 43.7398 3.864C41.7158 4.968 39.6918 6.624 37.8518 8.648C32.6998 14.352 29.3878 22.08 29.3878 28.704C29.3878 33.304 31.0438 36.8 33.8038 38.456L37.1158 40.48C37.4838 40.848 37.8518 41.216 38.4038 41.4C40.6118 42.688 43.1878 42.688 45.5798 41.952V51.52L30.3078 60.352C29.9398 60.536 29.7558 60.904 29.7558 61.088V64.584L19.2678 70.656C18.8998 70.84 18.7158 71.208 18.7158 71.392L18.8998 83.352ZM52.5718 65.32V55.384C52.9398 55.568 61.2198 60.352 60.8518 60.168C60.8518 60.352 60.8518 70.656 60.8518 70.104L52.5718 65.32ZM62.6918 70.104C62.6918 69.92 62.6918 59.432 62.6918 59.984C62.8758 59.8 72.6278 54.28 72.2598 54.464V64.584L62.6918 70.104ZM71.3398 52.808L61.7718 58.328L53.4918 53.544L61.4038 48.944V52.992C61.4038 53.544 61.7718 53.912 62.3238 53.912C62.8758 53.912 63.2438 53.544 63.2438 52.992V47.84L71.3398 52.808ZM34.7238 36.8C32.5158 35.512 31.2278 32.568 31.0438 28.704C31.0438 22.632 34.1718 15.272 39.1398 9.936C40.7958 8.096 42.6358 6.624 44.4758 5.52C46.4998 4.232 48.5238 3.68 50.1798 3.68C51.2838 3.68 52.3878 3.864 53.3078 4.416L53.8598 4.784C50.3638 5.152 46.8678 7.36 44.2918 9.752C39.3238 14.352 35.2758 21.344 34.3558 28.336C33.8038 31.832 34.1718 34.96 34.9078 36.8H34.7238ZM36.1958 28.152C37.1158 22.448 40.6118 15.64 45.5798 11.04C48.1558 8.832 51.4678 6.624 54.7798 6.624C59.5638 6.44 61.7718 10.672 61.7718 15.456C61.7718 23.92 55.8838 34.408 48.3398 38.64C39.8758 43.608 34.5398 37.904 36.1958 28.152ZM20.7398 82.8V72.864L29.0198 77.648C29.0198 77.832 29.0198 87.952 29.0198 87.584L20.7398 82.8ZM29.9398 66.424V71.76C29.9398 72.312 30.3078 72.68 30.8598 72.68C31.4118 72.68 31.7798 72.312 31.7798 71.76V65.872L39.5078 70.472L29.9398 75.992L21.6598 71.208L29.9398 66.424Z" fill="white"/>
<path d="M38.0358 83.352L36.7478 84.088C36.3798 84.272 36.1958 84.824 36.3798 85.376C36.5638 85.744 37.1158 85.928 37.6678 85.744L38.9558 85.008C39.3238 84.824 39.5078 84.272 39.3238 83.72C39.1398 83.352 38.5878 83.168 38.0358 83.352Z" fill="white"/>
<path d="M55.1478 27.048V26.496C55.1478 22.448 52.0198 20.608 48.5238 22.632C45.3958 24.472 42.8198 28.888 42.8198 32.568V33.12C42.8198 33.672 43.1878 34.04 43.7398 34.04C43.9238 34.04 44.1078 34.04 44.2918 33.856L54.7798 27.784C54.9638 27.784 55.1478 27.416 55.1478 27.048ZM44.6598 31.464C45.0278 28.704 47.0518 25.576 49.4438 24.104C51.6518 22.816 53.3078 23.552 53.3078 26.312L44.6598 31.464Z" fill="white"/>
<path d="M49.4439 21.16C51.2839 20.056 52.5719 17.664 52.5719 15.64C52.5719 13.248 50.5479 12.144 48.5239 13.248C46.6839 14.352 45.3959 16.744 45.3959 18.768C45.2119 21.16 47.2359 22.264 49.4439 21.16ZM49.2599 14.904C50.1799 14.352 50.5479 14.72 50.5479 15.64C50.5479 17.112 49.4439 18.768 48.3399 19.504C47.4199 20.056 47.0519 19.688 47.0519 18.768C47.0519 17.296 48.1559 15.64 49.2599 14.904Z" fill="white"/>
</svg>
