<svg width="93" height="93" viewBox="0 0 93 93" fill="none" xmlns="http://www.w3.org/2000/svg">
<path d="M82.4894 28.2287C82.4891 28.2285 82.4897 28.2289 82.4894 28.2287C82.4891 28.2285 82.4877 28.2277 82.4874 28.2275L51.8383 10.4159C51.7722 10.3778 51.7018 10.3481 51.6281 10.3286L31.4226 4.86168C31.1309 4.84169 30.7733 4.78856 30.4851 5.20157C30.4621 5.2345 10.354 34.0056 10.3355 34.0414C10.2761 34.1536 10.2448 34.2725 10.2383 34.398C10.2281 34.5958 10.0724 69.2894 10.0796 69.4636C10.0779 69.7738 10.2432 70.0611 10.511 70.2171L41.1537 88.0341C41.1533 88.0339 41.154 88.0343 41.1537 88.0341C41.4208 88.1887 41.7512 88.1915 42.0216 88.0375C42.0222 88.0372 42.0223 88.0364 42.023 88.0361C104.292 52.0851 73.3602 69.9435 82.3377 64.7603C82.6047 64.6061 82.77 64.3213 82.7717 64.0119L82.9208 28.9822C82.8717 28.5719 82.6925 28.3466 82.4894 28.2287ZM31.4497 6.85011C48.1182 16.5368 44.6105 14.4984 60.5947 23.7874C60.3734 24.1036 44.2978 47.0823 41.4857 51.102L12.3455 34.1586L31.4497 6.85011ZM44.6926 49.546C48.9004 43.5315 58.0769 30.4146 62.2093 24.5078L79.8102 29.2712C71.3739 34.1418 52.6467 44.9538 44.6926 49.546ZM51.0644 11.9737L75.9249 26.4216L62.1847 22.7033L37.3243 8.25625L51.0644 11.9737ZM11.9578 35.9501L39.3774 51.8846L40.8689 52.7518C40.8534 56.4029 40.7423 82.5536 40.7286 85.7785L11.818 68.9686L11.9578 35.9501ZM68.8586 51.555L68.909 69.4561L55.8706 61.8794L55.8626 59.0582C56.0382 58.9569 69.1213 51.4033 68.8586 51.555ZM68.0798 70.9806L55.916 78.003L55.8763 63.8892L68.0798 70.9806ZM70.6453 69.5065L70.5916 50.5541L72.6074 49.3903C73.0228 49.1504 73.1652 48.6198 72.9253 48.2045C72.6846 47.7883 72.1514 47.646 71.7395 47.8867C71.5206 48.0131 51.1663 59.765 52.1078 59.2214C51.6925 59.4613 51.5501 59.9918 51.79 60.4072C52.0305 60.8236 52.5627 60.9636 52.9757 60.725L54.1293 60.059L54.183 79.0114L42.4649 85.777C42.4769 82.9445 42.592 55.8401 42.6051 52.7559L81.1782 30.4861L81.0384 63.5059L70.6453 69.5065Z" fill="white"/>
<path d="M33.9822 56.2133L19.6437 47.8884C19.3767 47.7316 19.0461 47.7307 18.7757 47.8858C18.5062 48.0392 18.3401 48.3257 18.3392 48.6359L18.2791 64.7425C18.2789 64.7571 18.2891 64.7689 18.2898 64.7833C18.2952 64.9176 18.3215 65.0517 18.3926 65.1765C18.3925 65.1764 18.3927 65.1766 18.3926 65.1765C18.4671 65.3076 18.5757 65.4195 18.7105 65.4977L18.7165 65.5012C18.7163 65.5011 18.7167 65.5013 18.7165 65.5012L33.0304 73.8244C33.1651 73.9032 33.316 73.9422 33.4669 73.9422C33.9497 73.9422 34.3322 73.5514 34.3348 73.0785L34.4153 56.9685C34.417 56.6574 34.2517 56.3693 33.9822 56.2133ZM32.6261 67.1861L23.8392 62.0786L23.8731 52.356L32.6769 57.4627L32.6261 67.1861ZM22.1389 51.3452L22.1017 62.0703L20.022 63.2523L20.0708 50.1446L22.1389 51.3452ZM20.8883 64.756L22.9629 63.577L32.6177 69.1886L32.6057 71.5698L20.8883 64.756Z" fill="white"/>
<path d="M27.6653 16.0684L27.6255 28.2575C27.6246 28.5686 27.7899 28.8559 28.0595 29.0119C30.3003 30.2954 33.1236 31.9571 33.2984 32.0199C33.5452 32.1073 33.7736 32.0785 33.9913 31.9644C35.61 30.1823 34.1283 31.8714 39.3196 25.5817C39.4459 25.4274 39.5154 25.235 39.5162 25.0358L39.5561 16.0794C39.5561 16.0784 39.5553 16.0775 39.5553 16.0765C39.5553 16.0754 39.5561 16.0746 39.5561 16.0735C39.5553 15.7651 39.3907 15.4802 39.1232 15.3245L34.0239 12.3806C33.7544 12.2255 33.423 12.2246 33.1534 12.3823C33.0487 12.4432 33.9961 11.8927 28.1001 15.3183C28.0996 15.3186 28.0993 15.3194 28.0988 15.3197L28.0967 15.3209C27.8896 15.4411 27.6663 15.7245 27.6653 16.0684ZM29.3961 17.5713L32.7618 19.5141C32.7613 19.6897 32.7266 30.3003 32.7286 29.7025L29.363 27.76L29.3961 17.5713ZM34.4675 28.7639L34.4978 19.5142L37.8134 17.5873L37.7821 24.7197L34.4675 28.7639ZM33.5916 14.1351L36.9565 16.0777L33.6302 18.0108L30.2651 16.0683L33.5916 14.1351Z" fill="white"/>
</svg>
