<svg width="93" height="93" viewBox="0 0 93 93" fill="none" xmlns="http://www.w3.org/2000/svg">
<path d="M77.1536 72.6585L74.6143 74.1248C74.199 74.3647 74.0566 74.8953 74.2964 75.3106C74.5369 75.727 75.0691 75.867 75.4822 75.6284L78.0216 74.1621C78.4369 73.9222 78.5793 73.3916 78.3394 72.9763C78.0987 72.5602 77.5656 72.4178 77.1536 72.6585Z" fill="white"/>
<path d="M14.3901 60.9881C13.9765 60.7474 13.4442 60.8873 13.2035 61.3017C12.9628 61.7162 13.1026 62.2476 13.5171 62.4883L16.2141 64.0564C16.6297 64.2975 17.1603 64.1565 17.4007 63.7428C17.6414 63.3283 17.5016 62.7969 17.0871 62.5561L14.3901 60.9881Z" fill="white"/>
<path d="M20.0851 64.2988C19.6714 64.0589 19.1391 64.1979 18.8984 64.6124C18.6569 65.0268 18.7976 65.5583 19.212 65.799L21.9099 67.367C22.3255 67.6082 22.8561 67.4671 23.0965 67.0534C23.3381 66.639 23.1974 66.1075 22.7829 65.8668L20.0851 64.2988Z" fill="white"/>
<path d="M87.9518 59.9312C87.9543 59.1743 87.4932 58.4733 86.6897 58.008L56.0289 40.1899L56.253 39.8486L68.0361 33.0509C69.627 32.1373 70.8594 29.9963 70.8433 28.1756L70.7823 7.39971C70.7823 6.36057 70.3721 5.52655 69.6567 5.11293C68.9354 4.69507 68.0014 4.75694 67.0936 5.2799L36.0712 23.1859C34.4786 24.0996 33.2454 26.244 33.264 28.0595L33.2797 35.1677L6.30753 50.7383C5.43864 51.254 5.03955 52.0463 5.03955 52.6657C5.03955 52.8405 5.06786 60.3213 5.06837 60.1465C5.06837 60.9067 5.53115 61.6035 6.32788 62.0535L50.2055 87.5598C51.5947 88.3602 53.6998 88.3642 55.1147 87.5598L72.5588 77.4872C72.9741 77.2473 73.1165 76.7167 72.8767 76.3014C72.636 75.8852 72.1028 75.7437 71.6909 75.9836L54.251 86.0537C53.3992 86.5402 51.9126 86.541 51.076 86.0579L7.19156 60.5474C6.90762 60.3872 6.80422 60.2202 6.80422 60.1431L6.78388 54.8608C11.2399 57.4496 -9.32421 45.5025 50.1911 80.0791C51.6106 80.8984 53.7248 80.8811 55.1003 80.0791L86.2134 62.1281L86.2244 67.4281C86.2261 67.4823 86.1329 67.6484 85.8286 67.8205L79.8684 71.2617C79.4531 71.5015 79.3107 72.0321 79.5505 72.4474C79.7912 72.8619 80.3201 73.0043 80.7363 72.7653L86.6897 69.3283C87.5203 68.8588 87.9831 68.146 87.9594 67.3992C87.9586 66.6356 87.9623 70.1654 87.9518 59.9312ZM46.8062 71.9785L46.8008 71.9787L15.842 53.9693L33.2989 43.8883L33.3098 48.8456C33.32 49.8865 33.7378 50.718 34.4566 51.129C35.1753 51.5401 36.1085 51.4765 37.0129 50.957L47.4687 44.9129L45.643 52.9463C45.5506 53.3556 45.7634 53.7726 46.1499 53.9371C46.5248 54.0986 46.9802 53.9736 47.2153 53.615L53.1141 44.6299L73.5691 56.5324L46.8062 71.9785ZM36.9375 24.6904L67.9598 6.78436C68.2294 6.62925 68.4447 6.57331 68.5972 6.57331C68.6786 6.57331 68.7422 6.58942 68.7871 6.61484C68.9473 6.70723 69.0464 7.00812 69.0464 7.40225L69.1075 28.1816V28.1875C69.1193 29.3979 68.2328 30.9362 67.1699 31.5465L55.2071 38.4484C55.0901 38.5162 54.9901 38.6102 54.9155 38.7238C53.2711 41.2283 50.1328 46.0084 48.4002 48.6473L49.6021 43.3592C49.6783 43.0228 49.5478 42.6727 49.2698 42.4684C48.9935 42.2633 48.6214 42.2438 48.3214 42.415L36.1467 49.4525C35.7992 49.6517 35.4813 49.717 35.3177 49.622C35.1542 49.528 35.0499 49.2245 35.0457 48.8355L34.9999 28.0494C34.988 26.8594 35.8924 25.2905 36.9375 24.6904ZM7.18478 52.2368L33.2841 37.1699L33.2945 41.8861L13.6773 53.2149C13.4094 53.37 13.2442 53.6557 13.2433 53.965C13.2425 54.2753 13.4069 54.5617 13.6747 54.7169L46.0566 73.5535C46.4505 73.8049 47.2453 73.7419 47.5128 73.5747L75.7339 57.2876C76.0017 57.1325 76.167 56.8468 76.1678 56.5375C76.1687 56.2281 76.0042 55.9416 75.7364 55.7857L54.0681 43.1768L55.0749 41.643L85.8184 59.5091C86.2683 59.7695 86.3946 60.0128 85.8015 60.3499C79.6441 63.902 55.0075 78.1342 54.1564 78.6048C53.4028 79.0057 52.2242 79.0273 51.3842 78.6981C50.8327 78.4755 55.0838 80.9106 7.17122 53.0717C6.63168 52.7587 6.69582 52.526 7.18478 52.2368Z" fill="white"/>
<path d="M25.0789 45.2375L30.5229 42.0938C30.9382 41.8539 31.0806 41.3234 30.8408 40.908C30.6 40.491 30.0686 40.3503 29.655 40.5902L24.211 43.7339C23.7957 43.9737 23.6533 44.5043 23.8931 44.9196C24.1336 45.3361 24.6658 45.4761 25.0789 45.2375Z" fill="white"/>
<path d="M64.072 68.952C65.3941 69.7159 67.4716 69.723 68.8006 68.9512C70.4407 67.9988 70.4421 66.1603 68.7981 65.2074C67.4445 64.4259 65.4077 64.431 64.0575 65.215C62.4178 66.1683 62.4167 67.9962 64.072 68.952ZM64.9297 66.7161C65.7324 66.2494 67.1332 66.251 67.9293 66.711C68.4282 67.0002 68.3837 67.1856 67.9285 67.4501C67.1377 67.9103 65.7425 67.9112 64.9399 67.4484C64.4416 67.1605 64.4663 66.9855 64.9297 66.7161Z" fill="white"/>
<path d="M39.3208 43.1338C39.4708 43.1338 39.6209 43.0948 39.7548 43.0177L49.213 37.5567C49.4825 37.4007 49.6478 37.1134 49.6469 36.8023L49.6452 36.2438C49.6347 32.5799 46.8131 30.9376 43.5986 32.7907C40.7024 34.4639 38.4419 38.3814 38.4512 41.7098L38.4529 42.2684C38.4542 42.7406 38.8365 43.1338 39.3208 43.1338ZM44.4665 34.2943C46.4454 33.1528 47.9022 33.8521 47.9094 36.2489L40.2667 40.7173C40.6541 38.2483 42.4179 35.4776 44.4665 34.2943Z" fill="white"/>
<path d="M44.4572 31.1752C46.0616 30.2488 47.3152 28.0799 47.3101 26.2389C47.3048 24.0408 45.5018 22.9893 43.574 24.1022C41.9729 25.0269 40.7227 27.1958 40.7278 29.0419C40.7331 31.2391 42.5414 32.2804 44.4572 31.1752ZM44.4419 25.6058C45.1554 25.1924 45.5724 25.3308 45.5743 26.244C45.5777 27.4789 44.6691 29.0487 43.5892 29.6716C42.8516 30.1 42.4655 29.9035 42.4636 29.0368C42.4603 27.7976 43.3663 26.2262 44.4419 25.6058Z" fill="white"/>
<path d="M64.3814 21.0458L54.9707 26.0355C54.5478 26.2601 54.3859 26.7856 54.6105 27.2094C54.8374 27.6361 55.3648 27.7917 55.7844 27.5696L65.1951 22.5799C65.618 22.3553 65.7799 21.8298 65.5553 21.406C65.3299 20.9831 64.8027 20.8203 64.3814 21.0458Z" fill="white"/>
<path d="M50.3709 25.8338L65.1044 17.33C65.5197 17.0901 65.6621 16.5595 65.4223 16.1442C65.1824 15.7281 64.6493 15.5848 64.2365 15.8264L49.503 24.3302C49.0876 24.57 48.9453 25.1006 49.1851 25.5159C49.4273 25.934 49.9596 26.0714 50.3709 25.8338Z" fill="white"/>
<path d="M64.2365 25.8397L52.128 32.828C51.7126 33.0679 51.5703 33.5985 51.8101 34.0138C52.0523 34.4319 52.5846 34.5692 52.9959 34.3316L65.1044 27.3433C65.5198 27.1035 65.6622 26.5729 65.4223 26.1576C65.1824 25.7431 64.6493 25.5999 64.2365 25.8397Z" fill="white"/>
</svg>
