<svg width="93" height="92" viewBox="0 0 93 92" fill="none" xmlns="http://www.w3.org/2000/svg">
<path d="M9.03176 46.2074C51.7426 71.0261 21.9295 53.7018 64.8671 78.6528C64.867 78.6528 64.8672 78.6528 64.8671 78.6528C64.877 78.6586 64.8861 78.6666 64.8959 78.6723C68.0288 80.4726 71.7809 79.5605 74.8974 77.7603C77.9928 75.9745 80.8864 73.1283 83.2681 69.5303C83.5326 69.1311 83.4224 68.592 83.024 68.3276C82.6274 68.064 82.0883 68.1699 81.8205 68.5725C79.6184 71.8993 76.8519 74.6277 74.0295 76.2567C70.8578 78.0883 67.9252 78.4104 65.7622 77.1679C65.7542 77.1633 65.7476 77.1569 65.7398 77.1523L65.7384 77.1509C65.7367 77.1509 65.7367 77.1501 65.7367 77.1501C63.2535 75.6995 62.4326 72.5377 62.4244 69.6507C62.4007 61.7698 67.9591 52.1464 74.8194 48.195C77.3729 46.7115 80.5339 45.8179 83.0851 47.283C85.2294 48.517 86.4143 51.1835 86.4245 54.7908C86.4313 56.7064 86.1058 58.7618 85.46 60.9002C85.321 61.3588 85.5803 61.8427 86.0397 61.9817C86.4957 62.1224 86.9839 61.8614 87.1212 61.402C87.818 59.0991 88.1672 56.8734 88.1604 54.7858C88.1486 50.56 86.6694 47.3783 83.9991 45.8114C83.989 45.8051 83.9837 45.7947 83.9733 45.7887C83.7782 45.6753 27.9395 13.2287 28.138 13.3441C25.4104 11.7608 21.8523 12.0778 18.1145 14.2349C10.7829 18.4711 4.82775 28.7717 4.83962 37.1976C4.85318 41.4448 6.34323 44.6444 9.03176 46.2074ZM78.9472 44.8758C77.6085 45.0512 75.6448 45.7074 73.9464 46.6871C66.6097 50.9233 60.6614 61.2257 60.6834 69.6524C60.6879 71.2415 60.9757 73.2329 61.5904 74.7404L52.6276 69.5325C50.4994 68.2884 49.3208 65.6227 49.3089 62.0258C49.297 54.1543 54.8622 44.5292 61.7141 40.5701C64.2678 39.0949 67.4443 38.1958 69.9956 39.6741L78.9472 44.8758ZM22.0624 51.7724C21.8577 51.6538 21.6689 51.5122 21.4819 51.3678C21.4255 51.3249 21.3636 51.2902 21.3089 51.245C19.6493 49.8564 18.7421 47.4199 18.7332 44.2622C18.7095 36.389 24.2713 26.7638 31.1282 22.8056C33.0302 21.7071 34.8474 21.152 36.4629 21.152C37.5779 21.152 38.636 21.4598 39.3973 21.897C41.5416 23.1311 42.7283 25.7976 42.7384 29.4049C42.7497 33.1158 41.5108 37.2106 39.4913 40.9232L37.2633 39.6285C38.8776 36.6208 39.8772 33.3299 39.8685 30.4017C39.86 26.7164 38.3022 24.516 35.7018 24.516C34.5135 24.516 33.1319 24.9517 31.708 25.7747C26.2123 28.9489 21.5845 36.9594 21.6014 43.2671C21.6099 46.9583 23.166 49.162 25.7647 49.162C29.7948 49.162 34.0779 44.8172 36.3924 41.129L38.6195 42.4231C35.1882 47.9559 27.6041 54.9411 22.0896 51.7882L22.0624 51.7724ZM29.606 37.1857L34.9171 40.2717C33.2866 42.851 31.1749 45.0819 28.894 46.3981C27.7294 47.0711 26.6462 47.4262 25.7647 47.4262C23.661 47.4262 23.3407 44.8182 23.3373 43.2629C23.3203 37.4993 27.5514 30.1796 32.5759 27.2783C33.7371 26.607 34.8186 26.2519 35.7018 26.2519C37.8089 26.2519 38.1293 28.854 38.1327 30.4059C38.1412 33.0602 37.2426 36.0407 35.7879 38.7713L30.4773 35.6855C30.0637 35.4456 29.5314 35.5829 29.2907 35.9999C29.05 36.4144 29.1907 36.945 29.606 37.1857ZM40.0983 43.2825L51.083 49.6652C48.9063 53.648 47.5674 58.0453 47.573 62.0292C47.5793 63.9762 47.9096 65.6897 48.5096 67.1398L26.1852 54.168C31.8714 53.4431 37.0353 48.2439 40.0983 43.2825ZM60.8462 39.0665C57.423 41.0449 54.3106 44.3516 51.9552 48.1655L40.9704 41.7826C43.1484 37.7947 44.4855 33.39 44.4743 29.3998C44.4689 27.4567 44.1391 25.7476 43.5402 24.3009L65.8669 37.2749C64.274 37.4773 62.5814 38.0643 60.8462 39.0665ZM18.9824 15.7385C20.881 14.6417 22.6948 14.0874 24.3103 14.0874C25.3986 14.0874 26.3953 14.3383 27.2667 14.8443L35.2407 19.478C33.654 19.6857 31.9673 20.2934 30.2417 21.2952C22.9033 25.5221 16.9533 35.8236 16.9804 44.2579C16.9872 46.1904 17.2957 47.9034 17.8839 49.3434L9.90308 44.7071C7.76886 43.4663 6.58733 40.7973 6.57547 37.1942C6.5636 29.3227 12.1305 19.6975 18.9824 15.7385Z" fill="white"/>
<path d="M84.9937 66.5968C85.387 65.8425 85.7447 65.0763 86.0735 64.3007C86.26 63.8591 86.0532 63.3497 85.6107 63.1633C85.1751 62.9777 84.6614 63.1828 84.4733 63.6244C84.1648 64.3575 83.824 65.083 83.4545 65.795C83.2324 66.2205 83.3985 66.7443 83.824 66.9655C83.9512 67.0325 84.0885 67.0638 84.2241 67.0638C84.536 67.0638 84.8394 66.8935 84.9937 66.5968Z" fill="white"/>
</svg>
