<svg width="93" height="92" viewBox="0 0 93 92" fill="none" xmlns="http://www.w3.org/2000/svg">
<rect x="0.5" width="92" height="92" rx="46" fill="black"/>
<path d="M34.8957 56.4389C35.2085 56.4378 35.4617 56.184 35.4606 55.8712L35.4551 53.7961C35.454 53.4843 35.2008 53.2317 34.889 53.2317C34.5762 53.2328 34.3219 53.4865 34.323 53.7994L34.3285 55.8745C34.3296 56.1863 34.5839 56.4389 34.8957 56.4389Z" fill="white"/>
<path d="M58.7422 62.1308L58.6339 22.3622C58.6326 22.1268 58.4653 21.9404 58.3519 21.8747C58.2063 21.79 52.952 18.7364 53.2454 18.9069C53.073 18.8052 52.8552 18.8052 52.6783 18.9058L34.5408 29.3775C34.3638 29.4799 34.2578 29.6684 34.2578 29.8672C34.2578 29.9836 34.3178 51.569 34.3186 51.7C34.3197 52.0118 34.5728 52.2644 34.8846 52.2644C35.1975 52.2633 35.4517 52.0096 35.4506 51.6967L35.392 30.8528L39.3652 33.1616L39.471 71.6183L35.4982 69.3102L35.4672 58.0646C35.4661 57.7529 35.2129 57.5002 34.9012 57.5002C34.5883 57.5014 34.334 57.7551 34.3351 58.0679L34.3672 69.638C34.3683 69.8392 34.4744 70.0249 34.6491 70.1255C34.7637 70.1921 39.871 73.1596 39.7564 73.093C39.757 73.0934 39.7572 73.0941 39.7578 73.0945C39.9324 73.195 40.1481 73.1945 40.3228 73.0939L58.4592 62.6228C58.635 62.5211 58.7422 62.3337 58.7422 62.1308ZM52.9602 20.05L56.9387 22.362L39.9311 32.1815L35.9525 29.8694L52.9602 20.05ZM40.6036 71.6247L40.4974 33.1619L57.504 23.3431L57.609 61.8063L40.6036 71.6247Z" fill="white"/>
<path d="M45.4447 39.5153L47.4623 40.69L47.4634 40.6905C47.4646 40.6912 47.4659 40.6909 47.4671 40.6915C47.4695 40.6929 47.471 40.6952 47.4734 40.6966C48.3784 41.2197 49.4501 40.9873 50.3566 40.4639C52.3444 39.3163 53.8966 36.6293 53.89 34.3469C53.8867 33.1512 53.4536 32.2439 52.6757 31.7805C52.6678 31.7753 52.6634 31.767 52.6551 31.7622L50.6452 30.5947C49.8448 30.1293 48.8177 30.2089 47.752 30.8213C45.7609 31.9667 44.2087 34.6565 44.2176 36.946C44.2253 38.1544 44.6631 39.0676 45.4447 39.5153ZM49.7906 39.4833C49.1063 39.8774 48.4662 39.9631 48.0383 39.7154C47.3392 39.3139 47.2995 38.182 47.4259 37.3897C47.4263 37.387 47.4273 37.384 47.4278 37.3814C47.6167 36.2084 48.2408 34.972 49.0725 34.0388C49.7977 33.2263 51.158 32.2078 52.0868 32.7422C52.518 32.9904 52.7557 33.5614 52.7579 34.3502C52.7623 36.2009 51.4036 38.5518 49.7906 39.4833ZM48.3158 31.8025C48.7481 31.5543 49.1516 31.4283 49.4998 31.4283C49.7154 31.4283 49.91 31.4764 50.0769 31.5731L50.3301 31.7207C49.4417 32.0825 48.7131 32.718 48.0994 33.4455C46.6429 35.1691 46.0861 37.2447 46.2706 38.6856L46.0108 38.5347C45.5962 38.297 45.3552 37.7155 45.3496 36.94C45.343 35.0849 46.7017 32.7323 48.3158 31.8025Z" fill="white"/>
<path d="M52.6756 43.6218C52.6677 43.6167 52.6633 43.6084 52.6551 43.6036L50.6452 42.4362C49.8448 41.9707 48.8188 42.0503 47.7509 42.6623C45.7609 43.8082 44.2087 46.4985 44.2176 48.7875C44.2253 49.9959 44.6631 50.9091 45.4447 51.3568L47.4623 52.5314L47.4634 52.532C47.4646 52.5327 47.4659 52.5323 47.4671 52.533C47.4695 52.5343 47.471 52.5367 47.4734 52.5381C48.3813 53.0613 49.4529 52.8266 50.3566 52.3048C52.3444 51.1572 53.8966 48.4708 53.89 46.1884C53.8867 44.9925 53.4536 44.0846 52.6756 43.6218ZM46.0108 50.3762C45.5962 50.1385 45.3552 49.557 45.3496 48.7814C45.343 46.8943 46.673 44.5892 48.3158 43.6434C48.8491 43.3379 49.5462 43.107 50.0769 43.4146L50.3301 43.5622C49.6322 43.8463 48.8699 44.3853 48.1341 45.2454C46.6402 46.9881 46.0866 49.0904 46.2706 50.5271L46.0108 50.3762ZM49.7906 51.3242C49.1042 51.7188 48.2504 51.9186 47.7489 51.3082C47.317 50.7802 47.3227 49.8522 47.439 49.1738C47.6302 48.0553 48.2123 46.8876 48.9901 45.9794C49.7221 45.1259 51.1301 44.0289 52.0868 44.5837C52.518 44.8313 52.7557 45.4023 52.7579 46.1917C52.7623 48.0424 51.4036 50.3928 49.7906 51.3242Z" fill="white"/>
<path d="M52.6756 55.4632C52.6677 55.4581 52.6633 55.4498 52.6551 55.445L50.6463 54.2776C49.8437 53.8122 48.8177 53.8907 47.752 54.5037C45.7609 55.649 44.2087 58.3394 44.2176 60.6289C44.2253 61.8373 44.6631 62.7505 45.4458 63.1982L47.4623 64.3717C47.4623 64.3717 47.4623 64.3723 47.4634 64.3723L47.4645 64.3729C47.4643 64.3727 47.4648 64.3731 47.4645 64.3729C47.4675 64.3746 47.4704 64.3778 47.4734 64.3795C48.3813 64.9027 49.4529 64.6681 50.3566 64.1462C52.3444 62.9987 53.8966 60.3122 53.89 58.0298C53.8867 56.8339 53.4536 55.926 52.6756 55.4632ZM46.0108 62.2176C45.5962 61.9799 45.3552 61.3984 45.3496 60.6229C45.343 58.7672 46.7017 56.4146 48.3158 55.4848C48.848 55.1793 49.5445 54.9475 50.0769 55.256L50.3301 55.4036C47.9773 56.362 45.9374 59.7666 46.2706 62.3685L46.0108 62.2176ZM49.7906 63.1656C48.5969 63.8538 47.8424 63.5127 47.5417 62.7981C46.8393 61.1151 48.2876 57.8378 50.3345 56.66C51.6969 55.876 52.7531 56.3241 52.7579 58.0331C52.7623 59.8838 51.4036 62.2342 49.7906 63.1656Z" fill="white"/>
</svg>
