<svg width="93" height="92" viewBox="0 0 93 92" fill="none" xmlns="http://www.w3.org/2000/svg">
<path d="M15.494 28.1474L31.4693 37.3691C31.7357 37.5226 32.0671 37.5259 32.3397 37.3674L62.2645 19.9767C62.5315 19.8216 62.6967 19.5351 62.6959 19.2258C62.695 18.9156 62.5298 18.6299 62.2619 18.4748L46.2875 9.25312C46.018 9.09716 45.6866 9.09632 45.4171 9.25482L15.4915 26.6455C15.2245 26.8006 15.0592 27.0871 15.0601 27.3965C15.0609 27.7067 15.2262 27.9923 15.494 28.1474ZM45.8553 11.0076L60.0964 19.2292L31.9015 35.6146L17.6596 27.3931L45.8553 11.0076Z" fill="black"/>
<path d="M6.61573 72.782C6.61488 73.0939 6.78016 73.382 7.04969 73.5363L31.3117 87.5435C31.5807 87.7001 31.8121 87.693 32.0966 87.5669C32.3892 87.4366 44.1201 80.606 43.9455 80.7075C44.1227 80.8121 43.1418 80.2769 46.953 82.4834C47.2398 82.6493 47.6807 82.6391 47.9303 82.497C48.1914 82.3465 85.6671 60.4927 85.8427 60.3903C86.1088 60.236 86.2724 59.953 86.2749 59.6461L86.3843 44.81C86.3868 44.4981 86.2215 44.2083 85.952 44.0523C85.948 44.05 85.943 44.0511 85.9389 44.0488L70.9193 35.2503C70.9384 29.9104 70.9758 18.9611 70.9769 19.2147C70.9768 19.1913 70.9612 19.1725 70.9593 19.1494C70.9359 18.8672 70.7918 18.6072 70.5438 18.4638C70.5433 18.4635 70.5443 18.4641 70.5438 18.4638L46.2809 4.45579C46.0114 4.29983 45.68 4.29898 45.4104 4.45748L7.21518 26.6539L7.21073 26.6565C6.89492 26.8402 6.7798 27.2235 6.77931 27.4032L6.70726 47.3019C6.70557 47.7817 7.09291 48.1716 7.5718 48.1733C7.57349 48.1733 7.57434 48.1733 7.57519 48.1733C8.05323 48.1733 8.44142 47.7868 8.44311 47.3087L8.51007 28.9072L31.0347 41.9121C31.0092 50.2442 31.0707 32.2318 30.8829 85.2923L8.35327 72.2853L8.39141 61.643C8.39311 61.1633 8.00576 60.7734 7.52688 60.7717C7.52518 60.7717 7.52433 60.7717 7.52349 60.7717C7.04545 60.7717 6.65726 61.1582 6.65556 61.6362L6.61573 72.782ZM69.1521 42.4127L38.0797 60.4818L33.593 57.9198L69.1521 37.2389V42.4127ZM32.7043 72.2615C32.7044 72.0804 32.7132 59.2588 32.7126 59.4342L46.621 67.3466L46.5304 80.1891L32.7043 72.2615ZM47.5367 65.8697C47.3626 65.7706 39.3164 61.1905 39.8284 61.4819L70.0183 43.9218L77.6228 48.3859L47.5367 65.8697ZM69.236 20.7268L69.1833 35.2125L68.6591 35.5174L32.7246 56.3969C32.7252 56.2228 32.7788 40.9435 32.7754 41.915C41.8374 36.6488 60.2176 25.9676 69.236 20.7268ZM32.6204 85.2804C32.6212 85.0546 32.6613 73.5329 32.6589 74.24L42.1981 79.7152L32.6204 85.2804ZM84.5425 59.1376L48.3777 80.153C48.3791 79.9782 48.4839 66.5568 48.4773 67.4079C112.434 30.1029 66.7427 56.7549 84.6374 46.3187L84.5425 59.1376ZM83.7898 44.8016C82.6286 45.4765 79.1243 47.5132 79.3471 47.3837L70.8931 42.4221L70.912 37.2586L83.7898 44.8016ZM45.8486 6.21028L68.3774 19.2181C54.5077 27.2782 44.8752 32.876 31.9081 40.4116L9.37884 27.4041L45.8486 6.21028Z" fill="black"/>
<path d="M7.5369 57.9679H7.54029C8.01833 57.9679 8.40652 57.5814 8.40822 57.1034L8.42602 52.0094C8.42771 51.5297 8.04037 51.1398 7.56148 51.1381H7.55809C7.08006 51.1381 6.69186 51.5246 6.69017 52.0026L6.67237 57.0966C6.67067 57.5763 7.05802 57.9662 7.5369 57.9679Z" fill="black"/>
<path d="M68.7649 60.8887L63.159 64.1451C62.7445 64.3858 62.6029 64.9181 62.8445 65.3317C63.0876 65.7514 63.6234 65.8846 64.0303 65.647L69.6362 62.3906C70.0507 62.1499 70.1922 61.6176 69.9506 61.204C69.7099 60.787 69.1751 60.6463 68.7649 60.8887Z" fill="black"/>
<path d="M47.3753 41.1926C47.6157 41.6064 48.1464 41.7473 48.5619 41.5062L54.167 38.2489C54.5806 38.0082 54.7221 37.4768 54.4806 37.0623C54.239 36.647 53.7084 36.508 53.294 36.7487L47.6889 40.0059C47.2753 40.2467 47.1337 40.7781 47.3753 41.1926Z" fill="black"/>
</svg>
