<svg width="93" height="92" viewBox="0 0 93 92" fill="none" xmlns="http://www.w3.org/2000/svg">
<path d="M22.2106 51.8412C22.2123 52.3193 22.6005 52.7066 23.0785 52.7066C23.5582 52.7049 23.9481 52.3159 23.9464 51.8362L23.8769 26.2087L35.2207 32.8001L35.3626 85.2813L24.0193 78.6901L23.982 64.7109C23.9803 64.2329 23.5921 63.8456 23.1141 63.8456C22.6344 63.8473 22.2445 64.2363 22.2462 64.716L22.2852 79.1927C22.2852 79.5013 22.4496 79.786 22.7174 79.9403L35.799 87.5423C35.7987 87.5421 35.7993 87.5425 35.799 87.5423C35.8 87.5428 35.8015 87.5443 35.8024 87.5448C35.9363 87.6219 36.0855 87.6601 36.2347 87.6601C36.3839 87.6601 36.5347 87.6211 36.6687 87.544L70.4279 68.0538C70.6974 67.8979 70.8618 67.6105 70.8618 67.2995L70.7143 12.8067C70.7143 12.6873 70.6701 12.5787 70.6242 12.4725C70.6109 12.442 70.6149 12.4052 70.5983 12.3764C70.5464 12.2863 70.4599 12.2224 70.3779 12.1552C70.3423 12.1261 70.3226 12.0825 70.2821 12.0591L70.2801 12.0579C70.2794 12.0576 70.2793 12.0569 70.2787 12.0566C70.2782 12.0563 70.2774 12.0564 70.2769 12.056L57.1988 4.45715C56.9327 4.30119 56.5987 4.30119 56.3292 4.45545L22.5717 23.9465C22.4373 24.0242 22.3288 24.135 22.2538 24.2653C22.2414 24.2869 22.2449 24.3147 22.2344 24.3373C22.1818 24.45 22.1377 24.5686 22.1377 24.6974C22.1377 24.6981 22.1381 24.6985 22.1381 24.6991C22.1381 24.6997 22.1377 24.7002 22.1377 24.7008L22.2106 51.8412ZM37.0992 85.2911L36.9568 32.8005L68.9819 14.3107L69.1243 66.8019L37.0992 85.2911ZM56.7614 6.20995L68.114 12.8067L55.3131 20.1977L36.0884 31.2972L25.8197 25.3303L24.7364 24.7008L56.7614 6.20995Z" fill="black"/>
<path d="M23.1056 61.024C23.5836 61.0223 23.9718 60.6324 23.9701 60.1535L23.9566 55.7427C23.9549 55.2638 23.5667 54.8773 23.0886 54.8773H23.0852C22.6072 54.879 22.219 55.2689 22.2207 55.7478L22.2343 60.1586C22.236 60.6375 22.6242 61.024 23.1022 61.024H23.1056Z" fill="black"/>
<path d="M66.2476 21.1341C66.2476 20.8248 66.0815 20.5391 65.812 20.3849C65.5441 20.2289 65.2136 20.2306 64.9457 20.3849L40.2167 34.6624C39.9471 34.8184 39.7827 35.1057 39.7827 35.4168L39.8336 54.3662C39.8336 54.6755 39.9997 54.9612 40.2692 55.1154C40.4031 55.1934 40.5523 55.2315 40.7015 55.2315C40.8507 55.2315 41.0015 55.1926 41.1355 55.1154L65.8645 40.8379C66.1341 40.6819 66.2985 40.3946 66.2985 40.0836L66.2476 21.1341ZM41.566 52.8626L41.5203 35.9143L64.5152 22.6378L64.5609 39.586L41.566 52.8626Z" fill="black"/>
<path d="M53.4917 34.1818C53.9714 34.181 54.3613 33.7911 54.3596 33.3114L54.359 33.0478C54.359 33.0466 54.3596 33.0455 54.3596 33.0444L54.3545 31.3424C54.3528 30.8635 53.9646 30.4771 53.4866 30.4771C53.4859 30.4771 53.484 30.4771 53.4832 30.4771C53.4262 30.4773 53.3763 30.4994 53.3224 30.5101C52.9235 30.5894 52.6172 30.9254 52.6187 31.3475L52.6237 33.3165C52.6254 33.7945 53.0136 34.1818 53.4917 34.1818Z" fill="black"/>
<path d="M58.9873 31.6781C59.2263 31.2628 59.0822 30.7322 58.6669 30.4932C58.2533 30.2542 57.721 30.3966 57.482 30.8136L56.4412 32.6249C56.2022 33.0402 56.3462 33.5708 56.7616 33.8098C56.8972 33.8877 57.0464 33.925 57.1938 33.925C57.4939 33.925 57.7854 33.7691 57.9465 33.4894L58.9873 31.6781Z" fill="black"/>
<path d="M59.6212 35.2024L58.1397 36.0576C57.7244 36.2975 57.582 36.8281 57.8227 37.2434C57.982 37.5214 58.2753 37.6773 58.5736 37.6773C58.7211 37.6773 58.8703 37.64 59.0076 37.5612L60.4892 36.706C60.9045 36.4661 61.0469 35.9356 60.8062 35.5202C60.5688 35.1041 60.0349 34.9617 59.6212 35.2024Z" fill="black"/>
<path d="M47.0734 42.4603L45.5918 43.3155C45.1765 43.5553 45.0341 44.0859 45.2748 44.5012C45.4342 44.7792 45.7274 44.9352 46.0258 44.9352C46.1733 44.9352 46.3224 44.8979 46.4597 44.8191L47.9413 43.9639C48.3566 43.724 48.499 43.1934 48.2583 42.7781C48.0193 42.3628 47.4887 42.2204 47.0734 42.4603Z" fill="black"/>
<path d="M49.9706 37.4857L48.2856 36.5254C48.2379 36.4982 48.1855 36.4932 48.1353 36.476C47.75 36.3417 47.3122 36.4788 47.1007 36.8491C47.0413 36.9535 47.0059 37.065 46.9928 37.1771C46.9531 37.513 47.113 37.8561 47.4245 38.0341L48.4581 38.6231L48.4789 38.635L49.1095 38.9944C49.2451 39.0715 49.3943 39.108 49.5401 39.108C49.8401 39.108 50.1334 38.9503 50.2944 38.6698C50.5317 38.2536 50.386 37.723 49.9706 37.4857Z" fill="black"/>
<path d="M55.5936 35.5898C55.1562 35.3957 54.6443 35.5889 54.4476 36.0271L53.0265 39.1999C52.741 39.2443 52.4501 39.3334 52.1626 39.4988C50.9759 40.1837 50.0843 41.728 50.0894 43.0909C50.0928 43.9062 50.4267 44.5648 51.0065 44.8988C51.2658 45.0479 51.5574 45.1217 51.8625 45.1217C52.2439 45.1217 52.6474 45.0072 53.0407 44.7801C54.2239 44.0969 55.1155 42.5535 55.1138 41.188C55.1115 40.6313 54.9443 40.1571 54.6591 39.8001L56.0309 36.7374C56.2276 36.2992 56.0309 35.7864 55.5936 35.5898ZM52.1727 43.2765C51.9914 43.3816 51.8795 43.3909 51.8879 43.4062C51.8727 43.3875 51.8252 43.2884 51.8252 43.0858C51.8235 42.3475 52.3863 41.3745 53.0305 41.0024C53.2102 40.8982 53.3221 40.8897 53.3153 40.8761C53.3305 40.8948 53.378 40.9923 53.378 41.1923C53.3797 41.9314 52.8169 42.9052 52.1727 43.2765Z" fill="black"/>
<path d="M60.7993 53.6017C60.781 53.5911 60.7607 53.585 60.7422 53.5747L56.6834 51.209C54.973 50.219 52.7778 50.4029 50.5046 51.7133C46.1514 54.2289 42.6322 60.3349 42.6593 65.3204C42.6593 67.9301 43.5883 69.8956 45.2682 70.8517L49.3807 73.247C49.3874 73.2512 49.3942 73.2554 49.401 73.2597C49.4078 73.2636 49.4156 73.2617 49.4224 73.2654C50.1343 73.6737 50.933 73.8776 51.7895 73.8776C52.9659 73.8776 54.2509 73.4945 55.5663 72.735C59.911 70.227 63.4336 64.1236 63.4217 59.1288C63.4149 56.5335 62.4826 54.5705 60.7993 53.6017ZM46.1344 69.3472C45.0122 68.709 44.3952 67.2791 44.3952 65.3153C44.3715 60.957 47.5668 55.4164 51.3725 53.2169C52.4082 52.6194 53.3931 52.3176 54.2627 52.3176C54.8357 52.3176 55.3578 52.4481 55.8121 52.7109L56.7123 53.2355C56.6703 53.2472 56.6274 53.2682 56.5853 53.2807C56.3534 53.3504 56.1193 53.4347 55.8833 53.53C55.794 53.566 55.7056 53.5971 55.616 53.6368C55.2966 53.778 54.9751 53.9358 54.6509 54.123C53.5695 54.7473 52.5398 55.5953 51.6022 56.5923C51.6019 56.5926 51.6025 56.592 51.6022 56.5923C49.7769 58.5334 48.3165 61.0445 47.5028 63.588C47.4756 63.6729 47.4351 63.7561 47.4095 63.8409C47.3327 64.095 47.2953 64.3469 47.2321 64.6008C46.9674 65.6613 46.7905 66.7182 46.7905 67.7284C46.7905 68.3214 46.857 68.8741 46.9565 69.4024C46.9716 69.4846 46.984 69.5679 47.0014 69.6482C47.0178 69.7224 47.0247 69.8035 47.043 69.8761L46.1344 69.3472ZM54.6984 71.2314C52.9829 72.2206 51.4149 72.4104 50.2791 71.7578C50.0622 71.6328 49.881 71.4538 49.7023 71.2718C49.6488 71.2169 49.5809 71.1846 49.5309 71.1247C49.4368 71.013 49.3735 70.8617 49.2922 70.733C49.1866 70.5655 49.0677 70.415 48.9837 70.2211C48.6902 69.5396 48.5339 68.6975 48.5314 67.725C48.5291 66.9656 48.6485 66.175 48.8183 65.3788C49.6493 61.5084 52.3273 57.4632 55.5324 55.6223C55.8288 55.4491 56.1181 55.3313 56.4078 55.208C56.5265 55.1575 56.6512 55.0804 56.7679 55.0384C57.655 54.7196 58.4771 54.669 59.1914 54.8452L56.3885 60.7155C56.1817 61.1477 56.3647 61.6656 56.797 61.8724C56.9191 61.9301 57.0462 61.9572 57.1716 61.9572C57.4954 61.9572 57.8056 61.7749 57.9548 61.463L60.6863 55.7426C61.3323 56.5093 61.6821 57.6758 61.6859 59.1339C61.6977 63.5735 58.5617 69.0014 54.6984 71.2314Z" fill="black"/>
</svg>
