<svg width="93" height="93" viewBox="0 0 93 93" fill="none" xmlns="http://www.w3.org/2000/svg">
<path d="M57.7779 11.2663L59.6519 10.1847C60.0672 9.94488 60.2096 9.4143 59.9697 8.99898C59.729 8.58451 59.1959 8.44212 58.7839 8.68114L56.9099 9.76265C56.4946 10.0025 56.3522 10.5331 56.5921 10.9484C56.7531 11.2264 57.0447 11.3824 57.3448 11.3824C57.4922 11.3824 57.6414 11.3451 57.7779 11.2663Z" fill="black"/>
<path d="M73.0901 8.32992C73.0674 8.31349 73.0532 8.28955 73.0284 8.27514L67.7539 5.20774C66.7969 4.65681 65.5951 4.74496 64.3695 5.45778L61.2665 7.24872C60.8512 7.48858 60.7088 8.01917 60.9486 8.43449C61.1876 8.84895 61.7191 8.98965 62.1344 8.75233L65.2399 6.95969C65.907 6.5698 66.4918 6.4825 66.8842 6.70966L69.816 8.41499C69.7575 8.4455 69.6991 8.47771 69.6406 8.51077L27.648 32.7593C25.3624 34.0772 23.6892 37.1802 23.6957 39.6204C23.7794 80.2169 23.7714 77.7965 23.7779 77.9871L20.8342 76.275C20.4638 76.0639 20.252 75.5173 20.252 74.7722L20.1646 36.5463C20.1536 34.6265 21.5657 32.1761 23.2448 31.1972L54.9927 12.8733C55.408 12.6334 55.5504 12.1028 55.3105 11.6875C55.0689 11.2722 54.5384 11.1298 54.1247 11.3697L22.3734 29.6952C20.1469 30.9946 18.4144 34.0077 18.4288 36.553L18.5161 74.7739C18.5161 76.1792 19.0348 77.248 19.9689 77.7795C22.073 79.0022 25.4761 80.9796 25.2527 80.8511C26.3177 81.4637 27.5567 81.2182 28.6252 80.6019L33.5304 77.7699L33.5234 78.744C33.5234 81.3656 35.2194 83.7837 38.2978 85.5535C44.3149 89.0224 54.0588 89.0079 60.0137 85.5526C63.0464 83.7964 64.717 81.4029 64.717 78.8203L64.7517 74.5324C64.7518 74.5198 64.7453 74.5093 64.7448 74.4969C64.7448 74.4966 64.7448 74.4972 64.7448 74.4969C64.7398 71.8897 63.0413 69.474 59.9612 67.6983C58.8515 67.0576 57.566 66.5381 56.1772 66.112L55.9424 64.8304L70.6162 56.3585C72.8402 55.0736 74.5778 52.0638 74.571 49.5066L74.4871 11.2942C74.4829 9.93079 73.9821 8.8889 73.0901 8.32992ZM62.9803 78.8923C62.9438 80.8087 61.5843 82.637 59.1433 84.0507C53.6526 87.2376 44.6911 87.2359 39.1632 84.049C36.6662 82.6141 35.2821 80.7485 35.2592 78.7982C35.9608 79.6232 37.08 80.5546 38.3139 81.2656C44.0859 84.6105 53.948 84.811 60.0324 81.2647C60.0347 81.2633 60.0365 81.2619 60.0389 81.2605C60.04 81.2598 60.0414 81.2594 60.0426 81.2588C61.1166 80.6144 62.0887 79.9371 62.9803 78.8923ZM59.0933 69.2019C64.2863 72.1955 64.3189 76.763 59.1585 79.7645C53.6687 82.9658 44.7089 82.9641 39.1819 79.7628C37.5471 78.8204 36.4166 77.6836 35.8065 76.4558L41.4159 73.2172L40.8236 77.2641C40.7719 77.6142 40.9389 77.9608 41.2449 78.1388L44.9598 80.3086C45.2086 80.4541 45.5107 80.4666 45.7735 80.3417C45.7843 80.3365 45.7898 80.3251 45.8003 80.3195C45.8101 80.3144 45.8216 80.3167 45.8311 80.3112L57.0099 73.8543C57.3278 73.6704 57.4956 73.3068 57.4295 72.9457L56.5347 68.0634C57.4565 68.3951 58.3313 68.762 59.0933 69.2019ZM44.725 78.1617L42.6256 76.9353L43.3317 72.1111L45.8233 70.6726L44.725 78.1617ZM55.6122 72.6567L46.5161 77.9108L47.7398 69.5662L54.3467 65.7516C54.3869 65.9709 55.6927 73.0959 55.6122 72.6567ZM69.7482 54.8549C54.0694 63.907 43.7615 69.8583 27.7573 79.0983C27.1004 79.4772 26.5054 79.5687 26.1181 79.3466C25.7375 79.128 25.518 78.5736 25.5154 77.8286C25.5073 73.9119 25.545 91.9994 25.4358 39.6111C25.4252 37.764 26.7995 35.2551 28.5184 34.2637L70.5094 10.0203C70.7077 9.90557 70.8991 9.82219 71.0823 9.76106C71.1174 9.74951 71.1501 9.74368 71.1843 9.73404C71.3238 9.69474 71.4559 9.6727 71.5807 9.66634C71.6234 9.66443 71.6658 9.66327 71.7066 9.66528C71.866 9.67217 72.0139 9.70099 72.1363 9.76943C72.14 9.77155 72.145 9.77155 72.1488 9.77367C72.5288 9.99404 72.7487 10.5497 72.7512 11.2985L72.8351 49.5109C72.8402 51.4383 71.4264 53.8861 69.7482 54.8549Z" fill="black"/>
<path d="M69.6602 14.0904C69.3916 13.9353 69.0602 13.937 68.7932 14.0904L28.5228 37.3404C28.2533 37.4964 28.088 37.7837 28.0889 38.0948L28.1719 71.3056C28.1733 71.7892 28.568 72.171 29.0399 72.171C29.1899 72.171 29.3399 72.132 29.4738 72.0549L69.7442 48.8048C70.0137 48.6489 70.179 48.3615 70.1781 48.0505L70.0951 14.8397C70.0942 14.5303 69.9289 14.2447 69.6602 14.0904ZM29.9044 69.802L29.8256 38.5923L68.3626 16.3433L68.4414 47.553L29.9044 69.802Z" fill="black"/>
<path d="M49.9057 62.3501L47.4934 63.7426C47.0781 63.9825 46.9357 64.5131 47.1756 64.9284C47.4178 65.3465 47.95 65.4838 48.3614 65.2462L50.7736 63.8537C51.1889 63.6138 51.3313 63.0832 51.0914 62.6679C50.8507 62.2517 50.3176 62.1085 49.9057 62.3501Z" fill="black"/>
<path d="M48.6672 30.8429C42.9147 34.1637 38.2496 42.2386 38.2691 48.843C38.2883 55.8 43.4369 58.8664 49.5996 55.3075C55.353 51.9858 60.0172 43.905 59.9977 37.2947C59.9785 30.3397 54.8347 27.2848 48.6672 30.8429ZM48.7317 53.8039C43.7843 56.6587 40.0208 54.5084 40.005 48.8379C39.9872 42.7879 44.2624 35.3902 49.5352 32.3465C54.4804 29.4885 58.246 31.6195 58.2619 37.2998C58.2797 43.3557 54.0045 50.7594 48.7317 53.8039Z" fill="black"/>
<path d="M48.6884 36.3878C46.6017 37.593 44.9718 40.4146 44.9785 42.8116C44.9802 43.2896 45.3684 43.677 45.8465 43.677H45.849C46.3279 43.6753 46.7161 43.2862 46.7144 42.8065C46.7093 41.035 48.0112 38.7839 49.5563 37.8914C50.7832 37.1818 51.5488 37.5975 51.5524 39.017C51.5575 40.7909 50.2556 43.0438 48.7104 43.9363C48.4418 44.0914 48.2765 44.3779 48.2765 44.6881V46.9622C48.2765 47.4419 48.6647 47.8301 49.1444 47.8301C49.6241 47.8301 50.0123 47.4419 50.0123 46.9622V45.1619C51.8872 43.8389 53.2942 41.2419 53.2882 39.0119C53.2812 36.2558 51.0939 35.0037 48.6884 36.3878Z" fill="black"/>
<path d="M48.747 48.8345C48.3948 49.2768 48.4522 49.7714 48.747 50.0677C49.1069 50.4259 49.6767 50.4033 49.9794 50.0677C50.3103 49.735 50.3399 49.2362 49.9794 48.8345C49.6496 48.5226 49.0767 48.5226 48.747 48.8345Z" fill="black"/>
</svg>
