<svg width="93" height="93" viewBox="0 0 93 93" fill="none" xmlns="http://www.w3.org/2000/svg">
<rect x="0.5" y="0.5" width="92" height="92" rx="46" fill="white"/>
<path d="M39.3068 32.2619L35.989 34.1778C35.7182 34.3343 35.6253 34.6803 35.7823 34.9512C35.9364 35.2208 36.2827 35.3149 36.5551 35.1585L39.8728 33.2426C40.1437 33.0861 40.2365 32.7401 40.0795 32.4692C39.9237 32.1973 39.5754 32.1061 39.3068 32.2619Z" fill="black"/>
<path d="M67.5379 22.0075C67.4193 21.9281 64.091 20.039 63.977 19.9744C62.2247 18.9468 59.934 19.148 57.5173 20.5399C55.8981 21.4891 54.5824 22.717 53.401 24.1276L42.2719 30.5572C42.001 30.7136 41.9081 31.0602 42.0651 31.3305C42.2212 31.6007 42.5658 31.694 42.8379 31.5378L51.8068 26.3563C50.3242 28.7511 49.3493 31.4171 49.0845 33.8664L29.6169 45.1099L24.4881 42.1297L33.045 37.1871C33.3159 37.0307 33.4087 36.6847 33.2517 36.4138C33.0936 36.1413 32.7487 36.0495 32.479 36.2065C30.1272 37.5637 25.4237 40.2781 23.0719 41.6353C22.8961 41.737 22.7878 41.9244 22.7889 42.1272V42.13L22.8663 69.4712C22.8674 69.6724 22.9735 69.8581 23.1482 69.9587C23.7911 70.3315 20.82 68.6069 29.4363 73.6037C29.6246 73.7004 29.8072 73.6937 29.9749 73.5971L62.1086 55.045C62.2772 54.9474 62.3729 54.7678 62.3811 54.5752C62.3815 54.5656 62.3883 54.5578 62.3883 54.548V54.5445C62.3882 54.5395 62.3918 54.5354 62.3916 54.5303C62.3914 54.5266 62.3885 54.5237 62.3882 54.52L62.3559 42.1331C66.7927 39.1775 70.2231 32.9456 70.2111 27.7745C70.199 25.0405 69.2383 22.9848 67.5379 22.0075ZM58.0866 21.5188C59.7219 20.5765 61.769 19.9914 63.4098 20.9539L64.197 21.4039C64.1628 21.4092 64.1289 21.42 64.0947 21.4259C63.1948 21.5798 62.0662 21.9716 61.0617 22.5553C56.2758 25.3512 52.528 31.8413 52.528 37.3308C52.528 38.5959 52.7658 39.7675 53.1283 40.6408L52.256 40.1461C50.3905 39.0709 49.9189 36.3836 50.1721 34.2663C50.5815 29.5292 53.8869 23.9779 58.0866 21.5188ZM57.6787 43.7646C58.7867 43.7646 59.9961 43.4278 61.2256 42.7975L61.2537 53.6627L49.8435 48.3358L53.5107 42.1646C55.0561 43.0316 55.9829 43.7646 57.6787 43.7646ZM30.2539 71.1109L30.1845 46.6981L41.6054 52.6329L30.2539 71.1109ZM31.3459 71.4961L42.6124 53.1563L45.4746 54.6436C45.7268 54.7764 46.0951 54.6451 46.222 54.4303L49.2621 49.3142L60.5952 54.6047L31.3459 71.4961ZM45.5177 53.3883C26.8623 43.6957 31.661 46.1889 30.7933 45.7381L48.9895 35.2288C48.9893 35.2584 48.9847 35.2886 48.9847 35.3182C48.998 38.066 49.9587 40.129 51.6944 41.1284L52.5271 41.6034C45.3664 53.6428 45.5889 53.2687 45.5177 53.3883ZM23.9972 69.1434L23.9243 43.1157L29.0496 46.0906L29.1225 72.1217L23.9972 69.1434ZM61.1225 41.5833C57.0706 43.9121 53.6601 42.311 53.6601 37.3308C53.6601 32.2912 57.2365 26.1013 61.631 23.5331C65.7364 21.1499 69.058 22.8713 69.0791 27.7779C69.0901 32.7132 65.7096 38.8802 61.1225 41.5833Z" fill="black"/>
<path d="M61.7869 26.653C61.6598 26.5037 61.4641 26.4308 61.2706 26.4606C61.0772 26.4899 60.9124 26.6176 60.8351 26.7978L57.7583 34.0126C57.6633 34.237 57.7219 34.4968 57.9032 34.6588C58.0856 34.8202 58.3498 34.8461 58.5621 34.7251L59.4498 34.2121L59.4719 38.1069C59.473 38.3087 59.5814 38.4944 59.7561 38.5945C59.9307 38.6951 60.1463 38.6945 60.321 38.5939L63.0428 37.0224C63.2186 36.9207 63.327 36.7322 63.3258 36.5288L63.3004 31.9889L64.7454 31.1547C64.8913 31.0707 64.9919 30.9264 65.0206 30.7606C65.0483 30.5948 65.0019 30.4251 64.8935 30.2974L61.7869 26.653ZM62.4492 31.173C62.2734 31.2747 62.165 31.4632 62.1661 31.6666L62.1916 36.2065L60.5985 37.1263L60.5764 33.2309C60.574 32.7958 60.1015 32.5284 59.7273 32.744L59.4653 32.8954L61.5183 28.083L63.5901 30.5141L62.4492 31.173Z" fill="black"/>
</svg>
