<svg width="93" height="93" viewBox="0 0 93 93" fill="none" xmlns="http://www.w3.org/2000/svg">
<rect x="0.5" y="0.5" width="92" height="92" rx="46" fill="white"/>
<path d="M23.2718 56.2062C22.959 56.2062 22.7058 56.4594 22.7058 56.7723V59.9623C22.7058 60.2752 22.959 60.5284 23.2718 60.5284C23.5847 60.5284 23.8379 60.2752 23.8379 59.9623V56.7723C23.8379 56.4594 23.5847 56.2062 23.2718 56.2062Z" fill="black"/>
<path d="M25.3939 57.4395C25.0811 57.4395 24.8279 57.6926 24.8279 58.0055V61.1955C24.8279 61.5084 25.0811 61.7616 25.3939 61.7616C25.7068 61.7616 25.96 61.5084 25.96 61.1955V58.0055C25.96 57.6926 25.7068 57.4395 25.3939 57.4395Z" fill="black"/>
<path d="M27.516 58.6727C27.2031 58.6727 26.95 58.9259 26.95 59.2387V62.4288C26.95 62.7416 27.2031 62.9948 27.516 62.9948C27.8289 62.9948 28.082 62.7416 28.082 62.4288V59.2387C28.082 58.9259 27.8289 58.6727 27.516 58.6727Z" fill="black"/>
<path d="M34.3831 62.6786C34.0702 62.6786 33.817 62.9318 33.817 63.2447V66.4347C33.817 66.7476 34.0702 67.0008 34.3831 67.0008C34.6959 67.0008 34.9491 66.7476 34.9491 66.4347V63.2447C34.9491 62.9318 34.6959 62.6786 34.3831 62.6786Z" fill="black"/>
<path d="M36.5046 63.9119C36.1918 63.9119 35.9386 64.165 35.9386 64.4779V67.6679C35.9386 67.9808 36.1918 68.234 36.5046 68.234C36.8175 68.234 37.0707 67.9808 37.0707 67.6679V64.4779C37.0707 64.165 36.8175 63.9119 36.5046 63.9119Z" fill="black"/>
<path d="M38.6267 65.1451C38.3138 65.1451 38.0607 65.3983 38.0607 65.7111V68.9012C38.0607 69.214 38.3138 69.4672 38.6267 69.4672C38.9396 69.4672 39.1927 69.214 39.1927 68.9012V65.7111C39.1927 65.3983 38.9396 65.1451 38.6267 65.1451Z" fill="black"/>
<path d="M72.2374 47.3437C72.2396 46.7898 71.8991 46.2702 71.2988 45.9158L59.3214 38.9647C59.05 38.8072 58.7039 38.9001 58.5475 39.1704C58.3905 39.4407 58.4828 39.7873 58.7531 39.9443L70.7273 46.8931C70.9644 47.033 71.1059 47.1994 71.1054 47.3381C71.1048 47.4064 71.0676 47.4829 71.0021 47.5592C70.9417 47.6298 70.8499 47.7051 70.7282 47.7767C70.7248 47.7787 70.7235 47.7812 70.7201 47.7831L60.5364 53.6623L43.479 63.5078C42.7769 63.9191 41.5426 63.9202 40.8384 63.5067C22.9152 53.0851 22.3094 52.8066 22.0423 52.5419C21.8203 52.3215 21.8103 52.1133 22.2785 51.8427C62.0322 28.8948 43.2126 39.7575 49.518 36.1174C50.2405 35.6973 51.4505 35.6968 52.1663 36.1191L53.8191 37.0698C54.09 37.2246 54.4354 37.1312 54.5924 36.8615C54.7483 36.59 54.6549 36.244 54.384 36.0881L52.7362 35.1407C51.6793 34.5183 50.016 34.5177 48.9503 35.1379L48.3555 35.4812C48.3583 33.2842 48.3946 32.1328 48.3545 31.9005C48.3148 31.2129 47.8838 30.5876 47.0946 30.1276C46.9741 30.0615 46.8263 29.9889 46.6636 29.9201L46.6784 20.862C46.6784 20.8614 46.6781 20.8604 46.6781 20.8598C46.6781 20.8591 46.6784 20.8584 46.6784 20.8576C46.6778 20.3972 46.3965 19.9704 45.9067 19.6874C44.5928 18.9296 42.2508 19.4172 42.2311 20.838C42.231 20.8423 42.2286 20.846 42.2286 20.8504L42.2143 29.9182C42.0782 29.9761 41.9418 30.0444 41.803 30.1248C40.9981 30.598 40.5565 31.2597 40.5592 31.9882C40.5592 31.9942 40.5619 31.9996 40.562 32.0056L40.529 39.9994L30.2856 45.9129L30.2937 43.1525C30.2937 43.1509 30.2937 43.1492 30.2937 43.1476C30.2937 43.147 30.2937 43.1454 30.2937 43.1448C30.2937 42.2007 29.4999 41.4602 28.588 41.0723L28.6028 32.012C28.6028 32.0114 28.6024 32.0103 28.6024 32.0096C28.6024 32.0089 28.6028 32.0083 28.6028 32.0076C28.6022 31.5471 28.3209 31.1204 27.8311 30.8373C27.0102 30.3642 25.7306 30.362 24.9163 30.8351C24.4365 31.1141 24.1618 31.5336 24.1555 31.988C24.1554 31.9924 24.153 31.996 24.153 32.0004L24.1387 41.074C24.0028 41.1306 23.8659 41.1961 23.7373 41.2748C22.9258 41.7474 22.4797 42.4096 22.4808 43.1393C22.4808 43.1427 22.4824 43.1459 22.4824 43.1494L22.4502 50.4361L21.7125 50.862C21.1083 51.2108 20.7617 51.7304 20.7617 52.2876C20.7617 52.2889 20.7623 52.29 20.7623 52.2912L20.7661 61.006C20.7661 61.556 21.1 62.0562 21.7097 62.4166L40.2751 73.2067C41.3399 73.8213 43.0027 73.8216 44.0522 73.2067L71.274 57.4853C71.8991 57.1415 72.2501 56.6164 72.238 56.0432L72.2341 47.3644C72.2343 47.3573 72.2374 47.3507 72.2374 47.3437ZM43.3585 22.1937C43.9596 22.4162 44.8134 22.4634 45.5441 22.1964L45.5292 31.3774C45.4734 31.8795 43.3777 31.8754 43.3441 31.3708L43.3585 22.1937ZM43.5608 20.6641C43.7951 20.5282 44.1185 20.4602 44.443 20.4602C44.7713 20.4602 45.1008 20.5293 45.3407 20.668C45.5027 20.7614 45.5447 20.8443 45.5463 20.8587C45.5447 20.8736 45.5032 20.9532 45.3468 21.0445C44.9645 21.2672 44.0931 21.3498 43.5674 21.0467C43.4525 20.9805 43.4407 20.9663 43.3608 20.8529C43.362 20.8398 43.3997 20.7579 43.5608 20.6641ZM42.2122 31.2154L42.212 31.3669C42.2098 31.8318 42.4917 32.2613 42.9848 32.546C43.7956 33.0146 45.0766 33.019 45.8984 32.5421C46.3821 32.2613 46.6602 31.8379 46.6613 31.3802L46.6615 31.1992C47.0235 31.4422 47.2367 31.7261 47.2376 31.9972C47.2156 32.4423 46.7563 32.759 46.3569 32.9538C45.2205 33.5064 43.4676 33.4866 42.3955 32.8734C41.9487 32.6154 41.6924 32.291 41.6913 31.9838C41.6903 31.7221 41.8842 31.4495 42.2122 31.2154ZM41.6637 39.3439L41.6869 33.7687C43.2086 34.7288 45.6824 34.7304 47.2323 33.7731L47.2201 36.1367C47.1064 36.2023 41.2953 39.5566 41.6637 39.3439ZM25.2828 33.3442C25.8757 33.564 26.7298 33.6173 27.4685 33.3464L27.4536 42.5274C27.4519 42.5423 27.4105 42.6224 27.254 42.7131C26.7814 42.9884 25.95 42.9895 25.4752 42.7153C25.3099 42.6202 25.2696 42.5373 25.2685 42.5207L25.2828 33.3442ZM25.4851 31.8141C25.9595 31.5389 26.7905 31.5441 27.2651 31.818C27.427 31.9114 27.469 31.9943 27.4707 32.0087C27.469 32.0236 27.4276 32.1032 27.2712 32.1944C26.7976 32.4697 25.9665 32.4714 25.4918 32.1972C25.3807 32.133 25.3368 32.0832 25.3125 32.0472C25.3002 32.0287 25.2854 32.0073 25.2852 32.0029C25.2864 31.9897 25.3235 31.9079 25.4851 31.8141ZM24.1366 42.3713L24.1364 42.5169C24.1342 42.9817 24.4161 43.4112 24.9092 43.6959C25.7256 44.1679 27.0053 44.1671 27.8228 43.692C28.3065 43.4112 28.5845 42.9878 28.5856 42.5301L28.5859 42.3525C29.413 42.9091 29.3127 43.5261 28.4673 44.0154C27.3532 44.67 25.4534 44.6758 24.3194 44.0256C23.8715 43.7637 23.6146 43.4382 23.6146 43.1337C23.6146 43.1328 23.6141 43.1322 23.6141 43.1313C23.6163 42.8741 23.807 42.6068 24.1366 42.3713ZM23.6068 44.9159C23.6538 44.9463 23.7019 44.9761 23.7517 45.0054C25.2784 45.8827 27.6374 45.8165 29.0361 44.9944C29.0366 44.9941 29.037 44.9937 29.0375 44.9934C29.0374 44.9935 29.0375 44.9933 29.0375 44.9934C29.0778 44.9702 29.118 44.9463 29.1567 44.922L29.1515 46.5675L23.5852 49.7809L23.6068 44.9159ZM71.1059 56.0653C71.1098 56.1974 70.9616 56.3649 70.7184 56.4987L43.4828 72.2283C42.7858 72.6363 41.5503 72.6352 40.8422 72.2272L22.2824 61.4404C21.9994 61.2724 21.8982 61.106 21.8982 61.006L21.8949 53.8117L40.2674 64.4884C41.2168 65.0354 42.9173 65.1465 44.0483 64.4884L61.1368 54.623L71.1026 48.871L71.1059 56.0498C71.1059 56.0553 71.1059 56.0603 71.1059 56.0653Z" fill="black"/>
<path d="M57.6156 37.9703L56.0418 37.0555C55.7715 36.8985 55.4249 36.9897 55.268 37.2605C55.1104 37.5303 55.2027 37.8769 55.473 38.0339L57.0468 38.9487C57.1363 39.0007 57.2342 39.0255 57.3309 39.0255C57.526 39.0255 57.7156 38.9249 57.8207 38.7442C57.9782 38.4739 57.8859 38.1273 57.6156 37.9703Z" fill="black"/>
<path d="M50.435 37.868L26.3071 51.7979C26.1324 51.899 26.0246 52.0853 26.024 52.2876C26.0235 52.4894 26.1313 52.6762 26.3054 52.7774L41.7537 61.7544C41.9521 61.872 42.3669 61.8712 42.5685 61.7555L66.6975 47.824C66.8722 47.7228 66.98 47.5366 66.9805 47.3342C66.9811 47.1325 66.8733 46.9456 66.6992 46.8445L51.2503 37.8664C51.0395 37.7433 50.6162 37.7634 50.435 37.868ZM42.1622 60.6826L27.7194 52.2898L50.8435 38.9393L65.2852 47.332L42.1622 60.6826Z" fill="black"/>
<path d="M29.5414 60.0065C29.3667 59.9054 29.1506 59.9048 28.9759 60.006C28.8013 60.1071 28.6929 60.2934 28.6924 60.4952L28.6852 63.075C28.6846 63.2778 28.7924 63.4652 28.9682 63.5669L32.1787 65.4209C32.5541 65.6372 33.0266 65.3676 33.0278 64.9323L33.0349 62.3525C33.0355 62.1496 32.9277 61.9622 32.7519 61.8605L29.5414 60.0065ZM31.8984 63.9517L29.8184 62.7505L29.8217 61.4758L31.9018 62.677L31.8984 63.9517Z" fill="black"/>
<path d="M51.577 61.6963C50.6373 62.2386 49.9038 63.5072 49.9071 64.5835C49.9106 65.8951 50.997 66.5335 52.1519 65.8676C53.0878 65.3275 53.8185 64.0578 53.8158 62.9771C53.8111 61.672 52.7215 61.0381 51.577 61.6963ZM51.5859 64.8869C51.2023 65.106 51.0403 65.029 51.0392 64.5802C51.037 63.9069 51.5527 63.0175 52.1431 62.677C52.4952 62.473 52.6826 62.519 52.6837 62.9804C52.6853 63.6576 52.1724 64.5486 51.5859 64.8869Z" fill="black"/>
<path d="M46.4214 64.8289C45.4817 65.3712 44.7482 66.6398 44.7515 67.716C44.755 69.0303 45.8437 69.6647 46.9963 69.0001C47.9327 68.4595 48.6634 67.1898 48.6601 66.1097C48.6566 64.7998 47.5603 64.1731 46.4214 64.8289ZM46.4302 68.0195C46.0636 68.2314 45.8847 68.1795 45.8836 67.7127C45.8813 67.0394 46.3971 66.15 46.9874 65.8095C47.3935 65.5759 47.5271 65.7123 47.528 66.113C47.5303 66.7896 47.0173 67.6807 46.4302 68.0195Z" fill="black"/>
<path d="M56.9926 58.5693C56.0534 59.1116 55.3199 60.3797 55.3226 61.4565C55.3273 62.7773 56.4207 63.402 57.568 62.7405C58.5038 62.1999 59.2346 60.9302 59.2313 59.8501C59.2278 58.5378 58.1279 57.9138 56.9926 58.5693ZM57.002 61.7599C56.6293 61.9747 56.4558 61.9125 56.4547 61.4531C56.4531 60.7799 56.9688 59.8905 57.5586 59.5499C57.9217 59.3403 58.0981 59.4038 58.0992 59.8534C58.1014 60.5306 57.5884 61.4211 57.002 61.7599Z" fill="black"/>
<path d="M62.4086 55.4429C61.4694 55.9851 60.7359 57.2526 60.7387 58.3294C60.7433 59.6424 61.8349 60.2764 62.984 59.6135C63.9199 59.0729 64.6506 57.8032 64.6473 56.7231C64.6438 55.4171 63.5519 54.7847 62.4086 55.4429ZM62.418 58.6329C62.0443 58.8512 61.8718 58.7769 61.8707 58.3261C61.8691 57.6528 62.3848 56.764 62.9746 56.4235C63.3312 56.2169 63.5141 56.2688 63.5152 56.7264C63.5174 57.4035 63.0045 58.294 62.418 58.6329Z" fill="black"/>
<path d="M67.8247 52.3158C66.885 52.8581 66.1515 54.1262 66.1548 55.2024C66.1583 56.5272 67.2627 57.1441 68.3996 56.487C69.336 55.9464 70.0668 54.6767 70.0634 53.596C70.0588 52.292 68.9703 51.6575 67.8247 52.3158ZM67.8336 55.5064C67.47 55.7184 67.288 55.6615 67.2869 55.1991C67.2847 54.5258 67.8004 53.637 68.3908 53.2964C68.7431 53.0923 68.9302 53.139 68.9314 53.5994C68.9336 54.2765 68.4206 55.1676 67.8336 55.5064Z" fill="black"/>
</svg>
