<svg width="93" height="92" viewBox="0 0 93 92" fill="none" xmlns="http://www.w3.org/2000/svg">
<rect x="0.5" width="92" height="92" rx="46" fill="white"/>
<path d="M60.7496 28.0096C58.3202 26.6067 54.9494 25.9223 51.6173 26.1313C51.8367 24.1148 50.5941 22.1458 48.1658 20.744C43.774 18.2079 36.6576 18.2068 32.3023 20.7407C30.1015 22.019 28.8886 23.7521 28.879 25.6198C28.879 25.6236 28.8768 25.6267 28.8768 25.6305C28.8768 25.6382 28.8768 25.646 28.8768 25.6537C28.7515 67.6992 28.7823 57.3818 28.7773 59.0422C28.7773 60.9503 30.0166 62.7093 32.262 63.9906C34.382 65.227 40.0997 68.5243 44.8414 71.2606C49.2102 73.7832 56.3289 73.8003 60.7043 71.2595C62.9015 69.9771 64.1193 68.2403 64.132 66.3686C64.1356 65.0384 64.1951 43.0988 64.2227 32.9525V32.9481C64.2227 32.9467 64.2219 32.9456 64.2219 32.9443C64.2219 32.9411 64.2227 32.938 64.2227 32.9348C64.2199 31.0498 62.9861 29.2998 60.7496 28.0096ZM63.0723 39.9251L63.0096 62.8341C62.82 64.1288 61.8161 65.3625 60.1797 66.3111C58.4353 67.3253 56.2107 67.8755 53.9223 68.0161L53.9872 43.6767C54.5425 43.6445 55.1444 43.5772 55.694 43.4945C58.3511 43.0948 61.3914 41.991 63.0723 39.9251ZM32.3532 30.5844L44.937 37.8489C49.2979 40.3688 56.4424 40.3687 60.7938 37.8412C61.7828 37.2659 62.6186 36.5207 63.0828 35.9483L63.08 37.0333C62.9545 40.0717 58.8245 41.8289 55.7402 42.3335C51.2405 43.0808 48.2829 42.1673 45.3464 40.7457C44.5523 40.2819 33.0959 33.6673 32.9187 33.565C31.426 32.7122 29.9995 31.3157 30.0111 29.5972V28.6511C30.5116 29.272 31.3553 30.0085 32.3532 30.5844ZM29.989 32.5976C30.4675 33.1967 31.3729 33.9857 32.3532 34.5522C32.467 34.6179 39.5043 38.6836 39.0556 38.4244L38.9806 62.5777C36.5498 61.174 34.1458 59.7852 32.8733 59.0466C30.9928 57.9599 29.9569 56.5525 29.9569 55.0843C29.9569 55.0226 29.9401 54.9658 29.9218 54.9102L29.989 32.5976ZM40.1857 39.0735C40.4638 39.2333 41.4433 39.7992 44.5814 41.6103C47.077 43.0663 49.8572 43.7146 52.7932 43.7067C52.8139 43.7068 52.8343 43.7101 52.8551 43.7101L52.79 68.0752C50.1371 68.0713 47.4833 67.4883 45.4561 66.3222C44.3174 65.6609 42.2718 64.4786 40.1107 63.2304L40.1857 39.0735ZM32.8711 21.7202C36.9364 19.3562 43.5461 19.3836 47.5997 21.7235C49.8921 23.0468 50.9025 24.8234 50.3719 26.5956C50.3177 26.7769 50.3575 26.9737 50.478 27.1196C50.5985 27.2656 50.7848 27.3419 50.9727 27.3209C54.3258 26.9715 57.7696 27.5961 60.1836 28.9891C62.0558 30.0703 63.0884 31.4722 63.0906 32.937C63.0931 34.6366 61.7024 36.0033 60.225 36.8617C56.2931 39.1464 49.5878 39.2264 45.5031 36.8694L32.9192 29.6049C31.4182 28.7374 30.0269 27.3826 30.0111 25.6708V25.657C30.0111 25.6531 30.009 25.65 30.0089 25.6461C30.0089 25.646 30.0089 25.6462 30.0089 25.6461C30.0072 24.1879 31.0238 22.7937 32.8711 21.7202ZM60.1349 70.2811C56.0853 72.6315 49.4786 72.6315 45.408 70.2811C40.277 67.32 34.7973 64.1588 32.828 63.01C30.9458 61.9354 29.9094 60.5269 29.9094 59.0444L29.9125 58.0116C30.4942 58.7558 31.2909 59.4396 32.3062 60.0261C35.2022 61.708 42.1985 65.739 44.8895 67.3028C49.2972 69.8387 56.4174 69.8053 60.7479 67.2906C61.6802 66.7504 62.4361 66.1162 63.0025 65.4228L62.9999 66.362C62.99 67.8169 61.9718 69.2087 60.1349 70.2811Z" fill="black"/>
<path d="M35.3354 28.3092C37.8498 29.7618 41.785 29.7665 44.293 28.3092C46.9437 26.7698 46.9773 24.0539 44.2488 22.4786C41.7708 21.0469 37.7593 21.0436 35.3066 22.4686C32.6114 24.0377 32.6343 26.7508 35.3354 28.3092ZM35.876 23.4482C37.9862 22.2201 41.5624 22.2349 43.6828 23.4581C45.6103 24.5714 45.6614 26.2042 43.7248 27.3297C41.574 28.579 38.0655 28.579 35.9014 27.3297C33.9742 26.2175 33.9225 24.5836 35.876 23.4482Z" fill="black"/>
<path d="M38.0329 26.7416C39.022 27.3137 40.5766 27.3196 41.5696 26.7405C42.7549 26.0509 42.7546 24.7381 41.553 24.0451C40.5591 23.4736 39.008 23.4703 38.0219 24.0418C36.8304 24.7333 36.8304 26.0464 38.0329 26.7416ZM38.5901 25.0213C39.2268 24.6518 40.3468 24.6557 40.9869 25.0247C41.4121 25.2703 41.4448 25.5055 41.0002 25.7621C40.364 26.1346 39.2413 26.1313 38.5995 25.7621C38.1697 25.5142 38.1438 25.281 38.5901 25.0213Z" fill="black"/>
<path d="M48.8484 36.1111C51.3745 37.5704 55.307 37.562 57.8072 36.11C60.4684 34.5631 60.4795 31.8494 57.7619 30.2804C55.2838 28.8477 51.2723 28.8444 48.8197 30.2705C46.1245 31.8395 46.1474 34.5526 48.8484 36.1111ZM49.3891 31.25C51.4993 30.0219 55.0755 30.0367 57.1958 31.26C59.1235 32.3734 59.1745 34.0049 57.2379 35.1305C55.0887 36.3819 51.578 36.3808 49.4145 35.1316C47.4872 34.0194 47.4356 32.3855 49.3891 31.25Z" fill="black"/>
<path d="M51.546 34.5433C52.5487 35.1233 54.1038 35.1134 55.0832 34.5422C56.272 33.8506 56.2644 32.5379 55.066 31.8469C54.0716 31.2731 52.5205 31.2731 51.5349 31.8436C50.343 32.536 50.3441 33.8486 51.546 34.5433ZM52.1032 32.8231C52.4194 32.6396 52.8555 32.5478 53.2933 32.5478C53.735 32.5478 54.1777 32.6407 54.5 32.8264C54.9173 33.0675 54.9664 33.3016 54.5144 33.5638C53.8765 33.9364 52.7543 33.9341 52.1126 33.5638C51.6726 33.3101 51.667 33.0768 52.1032 32.8231Z" fill="black"/>
</svg>
