<svg width="93" height="92" viewBox="0 0 93 92" fill="none" xmlns="http://www.w3.org/2000/svg">
<rect x="0.5" width="92" height="92" rx="46" fill="white"/>
<path d="M24.5653 56.7127C24.8776 56.7116 25.1308 56.4573 25.1297 56.1455L25.1252 54.5182C25.1241 54.2053 24.871 53.9532 24.5592 53.9532H24.5575C24.2452 53.9544 23.9921 54.2086 23.9932 54.5204L23.9976 56.1477C23.9987 56.4606 24.2519 56.7127 24.5636 56.7127H24.5653Z" fill="black"/>
<path d="M24.2972 49.2027C24.1064 49.2923 23.9815 49.4802 23.9727 49.6903C23.9722 49.7017 23.9799 49.7111 23.9801 49.7225C23.9801 49.7236 23.9793 49.7245 23.9793 49.7256L23.9871 52.3977C23.9882 52.7106 24.2413 52.9627 24.5531 52.9627C24.5536 52.9627 24.5542 52.9627 24.5547 52.9627C24.8671 52.9616 25.1202 52.7073 25.1191 52.3955L25.1142 50.7096L30.218 53.6746L30.336 53.7432L30.3621 62.9474C27.353 61.2062 28.1403 61.658 25.1401 59.9165L25.1363 58.3621C25.1357 58.0493 24.882 57.7972 24.5702 57.7972C24.5697 57.7972 24.5691 57.7972 24.5686 57.7972C24.2562 57.7983 24.0036 58.0526 24.0042 58.3643L24.0092 60.2438C24.0097 60.445 24.117 60.6307 24.2905 60.7324L27.7703 62.7547L26.3839 64.8937C26.2993 65.023 26.2722 65.1822 26.3081 65.3326C26.3441 65.4829 26.4402 65.6123 26.5746 65.6908C27.8876 66.4478 21.818 62.9484 39.416 73.0946C39.6961 73.2526 40.053 73.1504 40.2009 72.8591L41.3932 70.5203L44.8807 72.5396C45.0352 72.6296 45.2511 72.6444 45.429 72.5496C45.543 72.4888 54.7171 67.2486 54.6028 67.2529C54.793 67.1435 54.903 66.9334 54.8836 66.7145L54.5586 62.9711C55.5912 62.0182 56.5685 60.9878 57.4712 59.8977L59.4114 61.4566C59.6837 61.6762 60.0827 61.5965 60.256 61.2985L62.3693 57.638C62.5257 57.3671 62.4328 57.0211 62.162 56.8652C61.8906 56.706 61.5445 56.8011 61.3887 57.072L59.6054 60.1609L57.7415 58.6628C57.499 58.4675 57.1418 58.5047 56.9449 58.7502C55.9229 60.0304 54.7941 61.2321 53.5902 62.3233C53.4592 62.4416 53.3912 62.6152 53.4066 62.7909L53.7245 66.4536L45.8066 71.025L46.0465 67.6841C46.0748 67.2978 45.7138 66.9997 45.3456 67.0937C45.144 67.1439 44.9481 67.1812 44.7514 67.2204C43.6387 67.4387 42.8141 67.4698 42.1025 67.4099C41.954 67.3957 41.8252 67.4565 41.7155 67.545C41.6515 67.5942 41.5851 67.6425 41.5469 67.7172C41.4794 67.85 39.3957 71.9467 39.4619 71.8166L34.0121 68.7034L36.5151 64.855C36.6416 64.6615 36.6367 64.4095 36.5034 64.2204C36.5033 64.2202 36.5036 64.2206 36.5034 64.2204C36.5034 64.2203 36.503 64.2194 36.5029 64.2193C35.9446 63.4233 35.4875 62.4316 35.1447 61.2708C35.0933 61.0972 34.9623 60.9591 34.7921 60.8983C34.6212 60.8372 34.4269 60.862 34.2785 60.9635C34.1648 61.0412 31.313 62.9891 31.4942 62.8653L31.4683 53.7752C31.5819 53.7215 35.0241 52.0941 34.8098 52.1954C34.923 52.0924 35.0914 51.9474 35.1237 51.7974C35.5333 49.8927 36.3825 47.4824 36.5222 47.1221C36.6345 46.8311 36.491 46.5006 36.1961 46.3891C36.0786 46.3445 33.8301 45.4911 33.9679 45.5434C41.9068 31.8291 39.1687 36.5592 39.761 35.5359C39.875 35.6266 41.7325 37.1048 41.6144 37.0108C41.6155 37.0118 41.6171 37.0119 41.6182 37.0128L41.6199 37.0141C41.8615 37.2069 42.2406 37.1352 42.4082 36.9312C42.7558 36.5338 43.8234 35.1282 45.764 33.3669C45.8902 33.2526 45.9579 33.0239 45.9475 32.9004L45.6374 29.2333L53.5542 24.6619C53.2365 28.9742 53.3145 27.842 53.3145 28.0465C53.3139 28.4239 53.6741 28.6687 53.9983 28.5966C54.0018 28.5958 54.0052 28.5973 54.0086 28.5965C55.1672 28.308 56.2556 28.2085 57.2506 28.2903C57.4855 28.3113 57.6995 28.1897 57.8034 27.9829C57.8614 27.8693 60.0373 23.6051 59.8987 23.8767L65.3504 26.9747L62.8474 30.8308C62.7214 31.0254 62.7264 31.2764 62.8596 31.4654C63.4267 32.2691 63.885 33.2586 64.2211 34.4039C64.3317 34.7777 64.773 34.9266 65.0828 34.7124L67.8682 32.8175L67.8942 41.9106L64.5505 43.4871C64.3913 43.5622 64.2758 43.7071 64.2387 43.8795C63.8955 45.4748 63.4262 47.0502 62.8435 48.5626C62.7307 48.855 62.8784 49.1851 63.1719 49.2956L65.394 50.1347L64.6666 51.395C64.5102 51.6659 64.603 52.0119 64.8739 52.1678C65.1431 52.3248 65.4908 52.2308 65.6472 51.961L66.708 50.1236C66.882 49.8219 66.744 49.4341 66.4178 49.3111L64.1006 48.4355C64.5804 47.121 64.9778 45.7645 65.2851 44.3925L68.7029 42.7806C68.9014 42.6867 69.028 42.4866 69.0274 42.2677L68.9976 31.7484C68.9971 31.6305 68.9091 31.3727 68.7129 31.2587C68.0206 30.8567 65.1168 29.1706 65.2315 29.2372C65.3053 29.1231 66.7088 26.946 66.6427 27.0609C66.7904 26.8042 66.7131 26.4505 66.436 26.2892C65.1217 25.534 71.1972 29.0251 53.5819 18.9031C53.3146 18.7491 52.9601 18.8536 52.8113 19.1132C52.7463 19.2265 51.544 21.593 51.6113 21.4797L48.126 19.4548C47.9508 19.3531 47.7341 19.3531 47.5589 19.4548C45.4752 20.6574 40.9516 23.2694 38.3862 24.7492C38.2725 24.8211 38.0952 25.1014 38.1253 25.2755L38.4409 29.0266C37.5039 29.8841 36.6171 30.8222 35.7788 31.8049L33.5174 30.4892C33.3875 30.414 33.2338 30.3941 33.0868 30.4306C32.9414 30.4693 32.817 30.5644 32.7418 30.6948L26.3004 41.8575C26.1445 42.1272 26.2368 42.4733 26.5066 42.6303L28.7805 43.9516C28.3564 45.1662 27.9937 46.3855 27.7243 47.5886L24.2972 49.2027ZM42.391 68.5628C43.2126 68.5932 44.0676 68.5097 44.8625 68.3585L44.6646 71.1068L41.9081 69.5103L42.391 68.5628ZM67.3693 31.788L65.0701 33.3526C64.7771 32.5289 64.4189 31.786 64.0005 31.1337L64.6141 30.1883L67.3693 31.788ZM28.1869 48.622L33.3513 51.6245L30.9272 52.7767L25.7548 49.7677L28.1869 48.622ZM28.75 63.324C28.946 63.4378 28.04 62.9115 30.6673 64.4371C30.7808 64.497 31.0293 64.5335 31.214 64.426C31.3662 64.3374 34.148 62.4264 34.293 62.327C34.5871 63.1546 34.9446 63.8995 35.3607 64.5498L33.0287 68.1318L27.6569 65.0098L28.75 63.324ZM39.5673 28.9133L39.3443 26.266L44.5006 29.2625L44.7238 31.9096L39.5673 28.9133ZM53.5374 20.187L58.9105 23.3095C58.8504 23.4276 56.8427 27.3704 56.9654 27.1295C56.6479 27.1159 55.1911 27.1999 54.4923 27.3318L54.762 23.6791C54.7122 23.5428 54.7505 23.3153 54.4984 23.1572C54.3845 23.0859 52.4785 21.977 52.5919 22.0493L53.5374 20.187ZM47.8408 20.599C48.175 20.7932 53.2126 23.7197 53.0683 23.6359C52.875 23.7476 44.9248 28.3372 45.0463 28.2671L39.8183 25.2292L47.8408 20.599ZM39.1138 29.9594L44.4398 33.0543C43.472 33.9855 43.0337 34.4028 41.8836 35.7781L39.9417 34.2315C39.9333 34.2248 39.9221 34.2237 39.9133 34.2175L39.8792 34.1906L36.762 32.3769C37.5034 31.5203 38.295 30.7157 39.1138 29.9594ZM33.4383 31.7528C34.387 32.3049 38.9364 34.9526 38.8155 34.8824C38.2143 35.9226 40.9932 31.1139 32.9363 45.0562C32.8217 44.9897 27.4483 41.8683 27.5629 41.9349L33.4383 31.7528ZM32.8574 46.3206C32.9745 46.3657 35.4138 47.3065 35.2625 47.2481C35.075 47.7613 34.513 49.4967 34.1978 50.8062L28.8678 47.7073C29.1089 46.6539 29.4037 45.5888 29.7678 44.5252L32.8574 46.3206Z" fill="black"/>
<path d="M64.4676 52.872C64.1967 52.7128 63.8501 52.8079 63.6942 53.0788L62.5362 55.0842C62.3798 55.3551 62.4726 55.7011 62.7435 55.857C63.0116 56.0136 63.3594 55.9219 63.5168 55.6503L64.6749 53.6448C64.8313 53.3739 64.7384 53.0279 64.4676 52.872Z" fill="black"/>
<path d="M49.4941 36.0379C43.9733 39.2241 39.4164 47.0018 39.4347 53.3994C39.4532 60.0503 44.3265 62.7838 50.1237 59.4345C55.6293 56.2572 60.094 48.4952 60.0763 42.1339C60.0569 35.4928 55.2508 32.7127 49.4941 36.0379ZM46.5257 49.3719C47.4459 48.8398 48.0589 49.1718 48.0624 50.2519C48.0663 51.5542 47.1105 53.2092 45.9751 53.8659C45.0749 54.3828 44.4349 54.1034 44.4312 52.9992C44.4274 51.6902 45.3864 50.0297 46.5257 49.3719ZM52.9854 46.4997C52.0625 47.0326 51.4522 46.6975 51.4487 45.6186C51.4448 44.3162 52.4005 42.6612 53.5359 42.0056C54.4499 41.4809 55.0763 41.7827 55.0798 42.8724C55.0837 44.1813 54.1246 45.8419 52.9854 46.4997ZM58.9443 42.1361C58.9557 46.2495 56.9798 50.9817 54.064 54.5179L54.0426 47.1404C55.2953 46.1583 56.2163 44.3962 56.2119 42.8691C56.2062 40.9362 54.6673 40.0408 52.9699 41.0261C51.4769 41.8873 50.3116 43.9061 50.3166 45.6219C50.3217 47.3526 51.5165 48.2033 52.9123 47.7599L52.9356 55.7663C51.8861 56.8422 50.7499 57.7665 49.5576 58.455C44.4646 61.3964 40.5828 59.1098 40.5668 53.3971C40.5551 49.3109 42.5291 44.6021 45.4471 41.0545L45.4686 48.7311C44.2158 49.7131 43.2947 51.4753 43.2992 53.0025C43.3049 54.9229 44.8276 55.8373 46.5412 54.8454C48.0342 53.9831 49.1995 51.9633 49.1945 50.2475C49.1897 48.6297 48.0764 47.6391 46.5989 48.1091L46.5757 39.796C47.6556 38.6834 48.8286 37.7285 50.0601 37.0174C55.0474 34.1387 58.9282 36.3536 58.9443 42.1361Z" fill="black"/>
</svg>
