<svg width="93" height="92" viewBox="0 0 93 92" fill="none" xmlns="http://www.w3.org/2000/svg">
<rect x="0.5" width="92" height="92" rx="46" fill="white"/>
<path d="M19.9317 54.7986C20.2445 54.7975 20.4988 54.5437 20.4977 54.2309L20.4933 52.603C20.4922 52.2912 20.239 52.0386 19.9272 52.0386C19.6144 52.0397 19.3601 52.2934 19.3612 52.6063L19.3656 54.2342C19.3667 54.5459 19.6199 54.7986 19.9317 54.7986Z" fill="black"/>
<path d="M73.6134 28.506C73.6134 28.3042 73.5062 28.1174 73.3315 28.0162L57.9977 19.105C57.8252 19.0033 57.6074 19.0033 57.4305 19.1039L19.6132 40.9378C19.4362 41.0403 19.3302 41.2287 19.3302 41.4275C19.3302 41.428 19.3305 41.4282 19.3305 41.4287C19.3305 41.4291 19.3302 41.4293 19.3302 41.4298L19.3556 50.341C19.3567 50.6527 19.6099 50.9054 19.9217 50.9054C20.2345 50.9043 20.4888 50.6505 20.4877 50.3377L20.4656 42.4133C23.0986 43.9434 32.0241 49.1306 34.6652 50.6655C34.6703 52.639 34.6468 43.5179 34.7149 69.9584L20.5187 61.7093L20.5043 56.7305C20.5032 56.4182 20.25 56.1661 19.9382 56.1661C19.6254 56.1672 19.3711 56.4209 19.3722 56.7338L19.3877 62.0371C19.3888 62.2383 19.496 62.424 19.6696 62.5246C24.1511 65.1292 35.7477 71.8652 35.0013 71.4353C35.1767 71.5363 35.3965 71.5373 35.5717 71.4364C35.576 71.4339 35.5777 71.4288 35.5819 71.4262L36.7366 70.7596L40.4405 72.8957C40.6098 72.9932 40.823 73.0001 41.0066 72.8957C41.0071 72.8954 41.0072 72.8949 41.0077 72.8946L46.2612 69.8383C46.4348 69.7377 46.542 69.5525 46.5431 69.3519L46.5636 65.0858L61.8132 56.2813L65.4368 58.3716C65.6061 58.4691 65.8193 58.476 66.0029 58.3716C68.9654 56.6476 71.4028 55.2292 71.2575 55.3137C71.43 55.2131 71.5372 55.0279 71.5383 54.8273L71.5598 50.654L73.3868 49.5992C73.5626 49.4975 73.6709 49.3101 73.6698 49.1072L73.6101 28.5182C73.6102 28.5138 73.6134 28.5103 73.6134 28.506ZM57.7124 20.2481L71.9186 28.5038C71.8047 28.5695 35.6773 49.4252 35.2289 49.684C25.3965 43.9702 27.352 45.1065 21.025 41.4298L57.7124 20.2481ZM40.1662 68.7804C40.1659 68.9098 40.1593 71.5951 40.1597 71.427L37.8713 70.107L40.1662 68.7804ZM45.4122 69.0224L41.2919 71.4197L41.2999 68.1249L45.4287 65.7411L45.4122 69.0224ZM65.1625 54.3475C65.1622 54.4638 65.1556 57.0669 65.156 56.9029L62.9461 55.6277C63.0608 55.5614 65.3045 54.2655 65.1625 54.3475ZM70.4085 54.4978L66.2883 56.8956L66.2961 53.693L70.4239 51.3098L70.4085 54.4978ZM35.852 69.9632C35.8469 67.9897 35.8702 77.1123 35.8028 50.6624C39.566 48.49 22.2169 58.5052 72.4814 29.4888L72.5366 48.7827C60.6435 55.6639 36.0668 69.8392 35.852 69.9632Z" fill="black"/>
<path d="M69.7816 34.1802C69.607 34.0796 69.3914 34.0801 69.2167 34.1807L38.5202 51.9015C38.3444 52.0032 38.2361 52.1905 38.2372 52.3934L38.2737 64.7738C38.2754 65.0872 38.5289 65.3382 38.8397 65.3382C38.937 65.3382 39.0354 65.3128 39.1227 65.2625L69.8181 47.5417C69.9939 47.44 70.1022 47.2526 70.1011 47.0498L70.0658 34.6694C70.0647 34.4676 69.9574 34.2813 69.7816 34.1802ZM39.4024 63.7932L39.3704 52.7179L68.937 35.65L68.968 46.7253L39.4024 63.7932Z" fill="black"/>
<path d="M53.9458 47.4207C53.8784 47.4433 53.822 47.4887 53.7645 47.534C53.7203 47.5904 53.675 47.6584 53.6407 47.7264C53.5933 47.8651 53.5967 48.0276 53.6407 48.1564C53.675 48.2244 53.7203 48.2924 53.7645 48.3377C53.822 48.3941 53.8784 48.4284 53.9458 48.4621C54.1545 48.5505 54.4128 48.5103 54.5694 48.3377C54.6711 48.2355 54.7385 48.0884 54.7385 47.9414C54.7385 47.7943 54.6711 47.6468 54.5694 47.534C54.4102 47.3864 54.1614 47.33 53.9458 47.4207Z" fill="black"/>
<path d="M53.7645 51.1C53.4754 51.4686 53.5997 51.855 53.9458 52.0281C54.1436 52.0844 54.3495 52.1212 54.5694 51.9037C54.7851 51.688 54.8029 51.3601 54.5694 51.1C54.3811 50.9124 54.073 50.8567 53.7645 51.1Z" fill="black"/>
<path d="M45.285 57.1882L44.4619 57.6633L44.447 52.3553C44.4459 52.1087 44.2856 51.8909 44.0512 51.8169C43.8135 51.7423 43.5604 51.829 43.4178 52.0314L41.4388 54.8444C41.2597 55.0998 41.3205 55.453 41.5759 55.6332C41.8335 55.8134 42.184 55.7521 42.3653 55.4956L43.3205 54.138L43.3317 58.3158L41.9463 59.1157C41.6754 59.2721 41.5826 59.6181 41.7395 59.889C41.8936 60.1587 42.2399 60.2527 42.5123 60.0963L45.851 58.1688C46.1219 58.0123 46.2148 57.6663 46.0578 57.3954C45.9019 57.1229 45.5548 57.0317 45.285 57.1882Z" fill="black"/>
<path d="M51.1544 53.9915L49.4994 54.9472C50.2014 53.6996 50.7619 52.4443 50.8658 51.1054C50.9278 50.2862 50.7044 49.6489 50.2357 49.3117C49.7725 48.9773 49.1523 48.969 48.3331 49.3178C47.3944 49.8601 46.7444 50.7229 46.4404 51.1889C46.2701 51.4504 46.3431 51.8014 46.6051 51.9722C46.8693 52.1419 47.2187 52.0689 47.3889 51.8069C47.8123 51.1585 48.3629 50.6085 48.835 50.3299C49.2429 50.158 49.4839 50.1646 49.5746 50.2304C49.6796 50.3056 49.7703 50.5792 49.7371 51.0198C49.6343 52.3437 48.9931 53.6288 47.9174 55.4032L47.4431 56.1915C47.3856 56.2871 47.3591 56.422 47.3646 56.5337C47.3734 56.731 47.4851 56.909 47.6576 57.0035C47.8327 57.0991 48.0423 57.0955 48.2125 56.9974L51.7204 54.9721C51.9913 54.8156 52.0842 54.4696 51.9272 54.1988C51.7713 53.9262 51.4253 53.835 51.1544 53.9915Z" fill="black"/>
<path d="M60.5094 42.6243C60.2341 42.4662 59.7809 42.3534 59.1684 42.7072C58.096 43.3252 57.4603 45.0753 57.467 47.3886C57.4714 49.0458 57.7931 50.0353 58.4498 50.4139C58.8662 50.6519 59.3347 50.5946 59.7532 50.3526C60.8731 49.7058 61.4613 48.084 61.4547 45.6618C61.4491 43.957 61.1484 42.9919 60.5094 42.6243ZM59.1872 49.372C59.0899 49.4289 59.0379 49.4344 59.018 49.4344C58.9362 49.4062 58.6035 48.9541 58.599 47.3853C58.5924 45.2864 59.164 44.0162 59.7344 43.6878C59.8804 43.6032 59.9445 43.6055 59.9445 43.6055C59.9544 43.6121 60.3171 43.8923 60.3226 45.6651C60.3281 47.5727 59.9036 48.9585 59.1872 49.372Z" fill="black"/>
<path d="M66.0581 39.421C65.7862 39.2635 65.3318 39.1496 64.7171 39.5034C63.6447 40.123 63.009 41.8731 63.0157 44.1848C63.0201 45.842 63.3418 46.8315 63.9985 47.2101C64.1223 47.2809 64.3191 47.3621 64.5723 47.3621C64.7801 47.3621 65.0267 47.3079 65.3019 47.1487C66.4219 46.5026 67.01 44.8807 67.0034 42.4585C66.9989 40.7543 66.6982 39.7892 66.0581 39.421ZM64.7359 46.1681C64.6386 46.2251 64.5822 46.23 64.5668 46.2306C64.4849 46.2024 64.1522 45.7502 64.1478 44.1815C64.1411 42.0837 64.7138 40.8129 65.2831 40.484C65.4302 40.3994 65.4932 40.4022 65.4932 40.4022C65.5031 40.4083 65.8669 40.6863 65.8713 42.4618C65.8768 44.3976 65.4622 45.7486 64.7359 46.1681Z" fill="black"/>
</svg>
