<svg width="93" height="92" viewBox="0 0 93 92" fill="none" xmlns="http://www.w3.org/2000/svg">
<rect x="0.5" width="92" height="92" rx="46" fill="white"/>
<path d="M29.9072 35.4744C29.9276 35.4661 29.947 35.4562 29.9663 35.4451L32.4284 34.0234C32.6992 33.867 32.7921 33.5209 32.6357 33.2501C32.4792 32.9792 32.1315 32.8864 31.8623 33.0428L29.4578 34.4314C29.4346 34.4408 29.4125 34.4518 29.3909 34.4645C28.4755 34.9919 27.7514 36.2113 27.7 37.2853C27.6917 37.3251 27.6873 37.366 27.6873 37.4069L27.7768 67.5888C27.7768 68.2322 28.0316 68.7435 28.4705 68.989C30.2108 69.9918 33.6913 71.9975 35.4316 73.0004C35.9214 73.2819 36.5086 73.1853 37.0026 72.9004L63.6168 57.5344C64.5709 56.9839 65.3161 55.6926 65.3127 54.5953L65.2271 24.4096C65.2254 23.7739 64.9711 23.2626 64.5284 23.0083C64.5221 23.0047 64.5145 23.0041 64.5082 23.0005L57.5789 19.0024C57.129 18.7426 56.553 18.7796 56.0035 19.1025L36.7311 30.2314C36.4603 30.3878 36.3674 30.7339 36.5239 31.0047C36.6803 31.2756 37.0263 31.3668 37.2972 31.212L56.574 20.0803C56.7962 19.9493 56.9482 19.9454 57.0134 19.983L62.6947 23.2613C62.5807 23.3271 36.4722 38.3991 36.3409 38.4749C35.4182 39.0074 34.6421 40.2912 34.6455 41.4156C34.7577 82.3607 34.719 68.2277 34.7273 71.2874L29.0294 68.0045C28.983 67.9785 28.9089 67.8425 28.9089 67.5871L28.8199 37.5097C28.826 37.476 28.8293 37.4412 28.8293 37.4053C28.8293 36.7259 29.3279 35.8409 29.9072 35.4744ZM63.0508 56.5538L36.4365 71.9198C36.2131 72.0505 36.0594 72.0567 35.9972 72.0193C35.9969 72.0192 35.9975 72.0195 35.9972 72.0193L35.9965 72.0181C35.9584 71.9963 35.9291 71.9454 35.9059 71.8828C35.8815 71.8141 35.8636 71.7218 35.8633 71.598C35.8547 68.4995 35.8942 82.7804 35.7798 41.4156C35.7798 40.7895 36.2099 40.0089 36.7311 39.6006C36.7908 39.5544 36.8454 39.4925 36.9075 39.4566C39.6396 37.8794 27.0505 45.147 63.519 24.094C63.6083 24.0428 63.6907 24.0106 63.764 23.9919C63.7772 23.9885 63.7883 23.9874 63.8006 23.9852C63.8672 23.9732 63.9267 23.9718 63.9645 23.9939C63.9655 23.9945 63.9666 23.9944 63.9676 23.995C64.0309 24.0355 64.0944 24.1768 64.095 24.4129L64.1807 54.5987C64.1829 55.2918 63.655 56.2056 63.0508 56.5538Z" fill="black"/>
<path d="M34.1806 33.0113L35.6477 32.1645C35.9185 32.008 36.0114 31.662 35.855 31.3911C35.698 31.1192 35.3503 31.0263 35.0816 31.1838L33.6146 32.0307C33.3437 32.1871 33.2509 32.5332 33.4073 32.804C33.5123 32.9859 33.7025 33.087 33.8981 33.087C33.9943 33.087 34.0916 33.0627 34.1806 33.0113Z" fill="black"/>
<path d="M61.5594 28.1646C61.3842 28.064 61.168 28.0645 60.9939 28.1651L38.3259 41.252C38.1501 41.3537 38.0423 41.5411 38.0428 41.744L38.1153 67.3572C38.1158 67.5589 38.2242 67.7452 38.3988 67.8464C38.571 67.9455 38.7872 67.9479 38.9643 67.8458L61.6324 54.7584C61.8081 54.6567 61.9159 54.4693 61.9154 54.2664L61.843 28.6538C61.8424 28.452 61.7341 28.2658 61.5594 28.1646ZM39.2446 66.3766L39.176 42.0684L60.7137 29.6344L60.7822 53.942L39.2446 66.3766Z" fill="black"/>
<path d="M57.0411 41.3675C57.0351 41.3641 57.0286 41.3622 57.0227 41.3588L52.8101 38.9093C51.4851 38.1305 49.7528 38.2781 47.9347 39.3295C44.4428 41.3487 41.6099 46.2557 41.6204 50.2693C41.6309 52.324 42.3583 53.8756 43.669 54.6401L47.8863 57.0831C47.8999 57.0912 47.9115 57.1019 47.9253 57.1099C48.4847 57.4322 49.1143 57.5919 49.7903 57.5919C50.7223 57.5919 51.7427 57.2873 52.7886 56.6837C56.2804 54.6672 59.1123 49.7586 59.1007 45.741C59.0946 43.682 58.3633 42.1287 57.0411 41.3675ZM44.2378 53.6612C43.2887 53.1078 42.7608 51.9011 42.7525 50.2649C42.7431 46.6144 45.3223 42.148 48.5013 40.3095C49.3736 39.8054 50.2016 39.5506 50.9324 39.5506C51.4155 39.5506 51.8561 39.6617 52.2391 39.8866L54.1567 41.0017C53.5339 41.1378 52.7318 41.4774 52.1827 41.7943C48.6876 43.8124 45.853 48.7194 45.864 52.733C45.8658 53.3307 45.955 54.0705 46.1296 54.6675C46.1392 54.7002 46.1424 54.7383 46.1526 54.7706L44.2378 53.6612ZM52.2225 55.7031C50.7858 56.5329 49.4627 56.6833 48.4951 56.1313C48.4906 56.1284 48.4882 56.1237 48.4836 56.121C48.0055 55.8418 47.6349 55.4023 47.3832 54.8303C47.1973 54.4048 47.0995 53.8847 47.0482 53.3226C47.0307 53.1268 46.9977 52.9446 46.9977 52.7342C46.9884 49.0831 49.5676 44.6167 52.7466 42.7782C53.9576 42.0793 55.0829 41.8664 55.9857 42.1453L54.3944 45.2021C54.2501 45.4796 54.3579 45.8212 54.6348 45.9655C54.9099 46.1094 55.2535 46.0034 55.3982 45.725L56.9496 42.7449C57.5971 43.3855 57.9645 44.4106 57.9686 45.7444C57.9791 49.4004 55.4015 53.8679 52.2225 55.7031Z" fill="black"/>
</svg>
