<svg width="93" height="92" viewBox="0 0 93 92" fill="none" xmlns="http://www.w3.org/2000/svg">
<rect x="0.5" width="92" height="92" rx="46" fill="white"/>
<path d="M31.1112 68.898C31.1117 69.0992 31.219 69.2849 31.3931 69.3867L37.7732 73.0935C37.773 73.0934 37.7734 73.0937 37.7732 73.0935C37.7736 73.0937 37.7744 73.0944 37.7748 73.0946C37.8622 73.1444 37.96 73.1698 38.0573 73.1698C38.1551 73.1698 38.253 73.1444 38.3403 73.0935L61.7082 59.6026C61.8839 59.502 61.9917 59.3141 61.9912 59.1117L61.8889 23.1031C61.8884 22.9353 61.7208 22.6806 61.6076 22.6145L55.2275 18.9065C55.0506 18.8048 54.8345 18.8048 54.6598 18.9065L51.5256 20.7163C51.2547 20.8721 51.1618 21.2182 51.3183 21.489C51.4753 21.7588 51.8202 21.8528 52.0916 21.6958L54.9417 20.0507L60.1936 23.1031C55.0864 26.0517 43.9281 32.4939 37.9562 35.9417C37.8413 35.8749 32.4114 32.7192 32.7043 32.8894L45.994 25.2169C46.2648 25.061 46.3577 24.715 46.2013 24.4441C46.0443 24.1733 45.6977 24.0793 45.4279 24.2374L31.2919 32.3985C31.1585 32.4749 31.0827 32.6076 31.0453 32.7527C31.0335 32.798 31.009 32.8392 31.0089 32.8872C31.0089 32.8876 31.0092 32.8879 31.0092 32.8883C31.0092 33.0699 31.1106 68.7682 31.1112 68.898ZM32.1438 33.8741L37.3899 36.923L37.4884 71.6187L32.2421 68.5708L32.1438 33.8741ZM38.6206 71.6254L38.5222 36.9224L60.7596 24.0826L60.858 58.7867L38.6206 71.6254Z" fill="black"/>
<path d="M49.6445 21.803L47.5467 23.0136C47.2758 23.1694 47.183 23.5155 47.3394 23.7863C47.497 24.0584 47.845 24.1494 48.1127 23.9931L50.2105 22.7825C50.4814 22.6266 50.5742 22.2806 50.4178 22.0097C50.2608 21.7389 49.9131 21.6449 49.6445 21.803Z" fill="black"/>
<path d="M58.8443 40.27C59.0201 40.1694 59.1279 39.9815 59.1273 39.7792L59.0947 28.2915C59.0942 28.0891 58.9858 27.9023 58.8111 27.8017C58.6359 27.7022 58.4198 27.7011 58.2456 27.8028L40.3873 38.1131C40.2115 38.2137 40.1037 38.4016 40.1043 38.604L40.1374 50.0905C40.138 50.2929 40.2463 50.4797 40.421 50.5803C40.5965 50.6803 40.8114 50.6811 40.9865 50.5792L58.8443 40.27ZM57.9654 29.271L57.9941 39.4541L41.2667 49.111L41.2374 38.929L57.9654 29.271Z" fill="black"/>
<path d="M48.0028 52.903C48.1006 52.903 48.1985 52.8776 48.2858 52.8267L52.2829 50.5195C52.4587 50.4189 52.5665 50.2309 52.5659 50.0286L52.5565 46.723C52.556 46.5207 52.4476 46.3339 52.273 46.2333C52.0977 46.1338 51.8816 46.1327 51.7075 46.2344L47.7104 48.5428C47.5346 48.6434 47.4268 48.8313 47.4274 49.0336L47.4368 52.3381C47.4376 52.6476 47.6874 52.903 48.0028 52.903ZM51.4272 47.7026L51.4328 49.7036L48.5661 51.3586L48.5606 49.3587L51.4272 47.7026Z" fill="black"/>
<path d="M54.6736 49.0524C54.7714 49.0524 54.8693 49.027 54.9566 48.9761L58.9609 46.6633C59.1367 46.5627 59.2444 46.3748 59.2439 46.1725L59.2345 42.868C59.2339 42.6657 59.1256 42.4788 58.9509 42.3782C58.7757 42.2787 58.5596 42.2776 58.3854 42.3794L54.3812 44.691C54.2054 44.7916 54.0976 44.9796 54.0981 45.1819L54.1075 48.4875C54.1084 48.797 54.3582 49.0524 54.6736 49.0524ZM58.1052 43.8475L58.1107 45.8474L55.2369 47.5069L55.2313 45.5069L58.1052 43.8475Z" fill="black"/>
<path d="M58.9669 47.9855C58.7922 47.8849 58.5761 47.886 58.4014 47.9867L54.3972 50.2983C54.2214 50.3989 54.1136 50.5869 54.1141 50.7892L54.139 59.7098C54.1396 59.9121 54.2479 60.099 54.4226 60.1996C54.5981 60.2996 54.813 60.3004 54.9881 60.1985L58.9929 57.8868C59.1687 57.7862 59.2765 57.5982 59.2759 57.3959L59.2505 48.4753C59.2499 48.273 59.1416 48.0862 58.9669 47.9855ZM55.2683 58.7303L55.2473 51.1142L58.1212 49.4548L58.1427 57.0709L55.2683 58.7303Z" fill="black"/>
<path d="M45.6021 50.085C45.4269 49.9855 45.2108 49.9844 45.0366 50.0861L41.0318 52.3978C40.856 52.4984 40.7482 52.6863 40.7488 52.8886L40.7582 56.1942C40.7587 56.3965 40.8671 56.5833 41.0418 56.684C41.2173 56.7839 41.4322 56.7848 41.6072 56.6828L45.6121 54.3712C45.7878 54.2706 45.8956 54.0826 45.8951 53.8803L45.8857 50.5747C45.8851 50.3724 45.7768 50.1856 45.6021 50.085ZM41.8875 55.2147L41.882 53.2137L44.7564 51.5542L44.7619 53.5553L41.8875 55.2147Z" fill="black"/>
<path d="M41.3402 62.3665C41.438 62.3665 41.5359 62.341 41.6232 62.2902L45.2511 60.1963C45.4268 60.0957 45.5346 59.9077 45.5341 59.7054L45.5247 56.3999C45.5241 56.1975 45.4158 56.0107 45.2411 55.9101C45.0659 55.8106 44.8498 55.8095 44.6756 55.9112L41.0478 58.0051C40.872 58.1057 40.7642 58.2937 40.7648 58.496L40.7742 61.8015C40.775 62.1111 41.0248 62.3665 41.3402 62.3665ZM44.3954 57.3794L44.4009 59.3804L41.9035 60.822L41.898 58.821L44.3954 57.3794Z" fill="black"/>
<path d="M48.0188 58.5103C48.1166 58.5103 48.2145 58.4849 48.3018 58.434L52.2989 56.1268C52.4747 56.0262 52.5825 55.8382 52.5819 55.6359L52.5725 52.3303C52.572 52.128 52.4636 51.9412 52.289 51.8406C52.1137 51.7411 51.8976 51.74 51.7235 51.8417L47.7264 54.1501C47.5506 54.2507 47.4428 54.4386 47.4434 54.6409L47.4528 57.9454C47.4536 58.2549 47.7034 58.5103 48.0188 58.5103ZM51.4432 53.3099L51.4487 55.3109L48.5821 56.9659L48.5765 54.966L51.4432 53.3099Z" fill="black"/>
<path d="M45.2566 61.5263C45.0813 61.4268 44.8652 61.4257 44.6911 61.5274L41.0638 63.6213C40.888 63.7219 40.7802 63.9098 40.7808 64.1121L40.7902 67.4177C40.7907 67.62 40.8991 67.8068 41.0737 67.9074C41.2493 68.0074 41.4642 68.0083 41.6392 67.9063L45.2665 65.8113C45.4423 65.7107 45.5501 65.5228 45.5495 65.3205L45.5401 62.016C45.5396 61.8137 45.4312 61.6269 45.2566 61.5263ZM41.9195 66.4371L41.9139 64.4371L44.4108 62.9955L44.4163 64.9954L41.9195 66.4371Z" fill="black"/>
<path d="M52.3044 57.4567C52.1292 57.3572 51.913 57.3561 51.7389 57.4578L47.7424 59.7662C47.5666 59.8668 47.4588 60.0548 47.4594 60.2571L47.4682 63.5615C47.469 63.8711 47.7188 64.1265 48.0342 64.1265C48.1321 64.1265 48.2299 64.101 48.3173 64.0502L52.3143 61.7429C52.4901 61.6423 52.5979 61.4544 52.5974 61.2521L52.588 57.9465C52.5874 57.7442 52.4791 57.5573 52.3044 57.4567ZM48.5975 62.582L48.5925 60.5821L51.4587 58.9271L51.4642 60.927L48.5975 62.582Z" fill="black"/>
<path d="M52.64 34.9457L55.8427 36.8085C56.11 36.9636 56.4583 36.8761 56.6166 36.6029C56.7742 36.3331 56.6824 35.9871 56.4121 35.829L53.2093 33.9662C52.9396 33.8092 52.5924 33.8998 52.4355 34.1718C52.2779 34.4416 52.3697 34.7876 52.64 34.9457Z" fill="black"/>
<path d="M54.4724 33.6555L55.9356 34.5057C56.2004 34.6603 56.5501 34.5743 56.7089 34.3001C56.8665 34.0303 56.7742 33.6832 56.5039 33.5262L55.0407 32.676C54.7726 32.5201 54.4243 32.6108 54.2674 32.8816C54.1098 33.1514 54.2021 33.4985 54.4724 33.6555Z" fill="black"/>
</svg>
