<svg width="93" height="92" viewBox="0 0 93 92" fill="none" xmlns="http://www.w3.org/2000/svg">
<rect x="0.5" width="92" height="92" rx="46" fill="white"/>
<path d="M33.7865 30.5338L44.6385 24.0465C44.9071 23.8862 44.9945 23.539 44.8342 23.2704C44.6733 23.0017 44.3251 22.9133 44.0581 23.0758L33.2133 29.5576C32.194 30.1457 31.3958 31.5288 31.3958 32.7062L31.4936 66.6109C31.4936 67.2732 31.7562 67.8116 32.2216 68.0913C32.8918 68.4803 41.1034 73.2472 40.6592 72.9893L40.6641 72.9932C41.1868 73.2928 41.8101 73.1802 42.3334 72.8772L59.7839 62.4386C60.8076 61.8472 61.6075 60.4608 61.6041 59.2845L61.508 25.3853C61.5063 24.7109 61.2382 24.1714 60.7728 23.9027C60.7638 23.8976 60.7531 23.8966 60.744 23.8917C60.198 23.5751 51.8088 18.7106 52.3358 19.0162C51.8687 18.7365 51.2607 18.7741 50.6648 19.1246L48.4277 20.4623C48.1596 20.6226 48.0723 20.9697 48.2326 21.2384C48.3935 21.5059 48.7401 21.5955 49.0093 21.433L51.2425 20.0975C51.4862 19.9548 51.6747 19.9394 51.7598 19.9913L53.5621 21.0363L36.3033 31.3541C35.2839 31.9422 34.4852 33.3253 34.4852 34.5027L34.5828 68.1526L32.7976 67.1162C32.718 67.0686 32.6257 66.9072 32.6257 66.6098L32.5278 32.7051C32.5278 31.9223 33.1011 30.9296 33.7865 30.5338ZM38.1434 70.2172C38.0356 70.1531 37.9715 69.9641 37.9715 69.7109L37.8737 35.8172C37.8737 35.0422 38.4585 34.0251 39.1323 33.6359L56.5894 23.1996C56.8011 23.0754 56.9959 23.0347 57.1085 23.0926L58.9078 24.1359L51.5161 28.5573L41.6491 34.4562C40.6057 35.0583 39.8316 36.486 39.8316 37.6148L39.8906 58.0171L39.9282 71.256L38.1513 70.2244C38.1482 70.2224 38.1466 70.2192 38.1434 70.2172ZM59.2095 61.4635L41.7597 71.9021C41.4954 72.0534 41.3149 72.0582 41.2321 72.0119C41.1253 71.9468 41.0615 71.7593 41.0615 71.5074L41.029 60.2307L40.9648 37.6104C40.9623 36.9286 41.4831 35.8629 42.2273 35.4324C44.0124 34.3649 35.7617 39.2988 59.6794 24.9961C60.1996 24.6894 60.3748 24.9204 60.3759 25.3875L60.4721 59.2867C60.4743 60.0695 59.8994 61.0644 59.2095 61.4635ZM35.7157 68.4063L35.6173 34.5016C35.6173 33.7188 36.1905 32.7272 36.8765 32.3303L54.3319 21.894C54.4927 21.8 54.6298 21.7613 54.7299 21.7613C54.7807 21.7613 54.8216 21.7712 54.8515 21.7889L55.7993 22.3335L55.8155 22.3429L38.5591 32.6608C37.5398 33.249 36.7416 34.6353 36.7416 35.8183L36.8389 69.4625L35.8844 68.9083C35.8056 68.8584 35.7157 68.6997 35.7157 68.4063Z" fill="black"/>
<path d="M46.1729 23.1289L47.52 22.3229C47.7881 22.1626 47.8755 21.8155 47.7152 21.5468C47.5543 21.2793 47.2072 21.1897 46.9385 21.3523L45.5914 22.1582C45.3233 22.3185 45.236 22.6656 45.3963 22.9343C45.5585 23.2046 45.909 23.2888 46.1729 23.1289Z" fill="black"/>
<path d="M50.4222 33.9754C46.5732 36.1964 43.4517 41.6025 43.4639 46.0269C43.4776 50.7077 46.9436 52.706 51.0319 50.344C54.8714 48.1285 57.9852 42.7257 57.9725 38.3025C57.9599 33.6068 54.4861 31.6238 50.4222 33.9754ZM50.4659 49.3645C47.1361 51.2832 44.6074 49.8301 44.596 46.0247C44.5849 41.9618 47.4521 36.9957 50.9882 34.9549C54.3091 33.0371 56.8301 34.503 56.8404 38.3047C56.852 42.3675 53.9925 47.3281 50.4659 49.3645Z" fill="black"/>
<path d="M47.4593 41.8976C46.5433 42.4272 45.8275 43.6676 45.8308 44.7201C45.8343 46.0237 46.924 46.6239 48.0347 45.9804C48.9485 45.4519 49.6621 44.2126 49.6593 43.1602C49.6558 41.8683 48.5807 41.2512 47.4593 41.8976ZM47.4681 45.0009C47.1133 45.2039 46.964 45.1395 46.9629 44.7168C46.9607 44.0656 47.4576 43.2066 48.0259 42.8771C48.4011 42.659 48.5262 42.7671 48.5272 43.1624C48.5289 43.8146 48.0336 44.6736 47.4681 45.0009Z" fill="black"/>
<path d="M53.4059 38.3422C52.49 38.8718 51.7742 40.1122 51.7775 41.1647C51.781 42.4556 52.8596 43.0749 53.9814 42.425C54.8957 41.8965 55.6093 40.6572 55.606 39.6047C55.6025 38.3129 54.5273 37.6958 53.4059 38.3422ZM53.4148 41.4455C53.223 41.5549 53.0776 41.5748 53.0218 41.5394C52.9681 41.5085 52.9101 41.3769 52.9096 41.1613C52.9073 40.5102 53.4043 39.6512 53.9725 39.3217C54.1627 39.2112 54.3059 39.1935 54.3611 39.2289C54.4153 39.2598 54.4733 39.3914 54.4739 39.6081C54.4761 40.2592 53.9808 41.1171 53.4148 41.4455Z" fill="black"/>
<path d="M50.4465 59.2392C49.4542 59.8119 48.6798 61.154 48.6831 62.2938C48.6866 63.6691 49.8259 64.3244 51.0219 63.6315C52.0119 63.061 52.7847 61.72 52.7814 60.578C52.7779 59.2042 51.6395 58.5482 50.4465 59.2392ZM50.4559 62.652C50.2082 62.7946 50.0369 62.7979 49.9672 62.7559C49.8754 62.7028 49.8157 62.5204 49.8152 62.2905C49.813 61.5564 50.3724 60.5891 51.0125 60.2187C51.4228 59.9818 51.648 60.0552 51.6493 60.5824C51.6515 61.3165 51.0938 62.2838 50.4559 62.652Z" fill="black"/>
<path d="M54.3451 56.1967C51.8156 54.7699 48.5234 57.4462 46.8855 60.2696C46.7285 60.5404 46.8208 60.8864 47.0911 61.0434C47.3602 61.1996 47.708 61.1089 47.865 60.8378C49.0288 58.8317 51.8259 56.084 53.7902 57.1829C54.0627 57.3354 54.4071 57.2393 54.5607 56.9673C54.7144 56.6953 54.6177 56.3493 54.3451 56.1967Z" fill="black"/>
<path d="M56.1356 53.1068C55.6331 52.8182 55.0742 52.6402 54.4762 52.5772C50.8778 52.1794 47.0758 55.7959 45.0923 59.2447C44.9364 59.5156 45.0298 59.8616 45.3007 60.0175C45.5738 60.1736 45.9186 60.0786 46.074 59.8086C47.7628 56.875 51.2043 53.3676 54.3573 53.7027C54.7984 53.7491 55.2069 53.8784 55.5717 54.0885C55.8432 54.2422 56.1881 54.1504 56.3445 53.8795C56.5004 53.6087 56.407 53.2627 56.1356 53.1068Z" fill="black"/>
</svg>
