<svg width="93" height="92" viewBox="0 0 93 92" fill="none" xmlns="http://www.w3.org/2000/svg">
<rect x="0.5" width="92" height="92" rx="46" fill="white"/>
<path d="M29.5216 68.6939C29.5227 68.8951 29.6288 69.0808 29.8035 69.1814C29.9181 69.248 36.6483 73.1596 36.5337 73.093L36.5352 73.0945C36.7098 73.195 36.9254 73.1945 37.1001 73.0939L63.2926 57.9712C63.4684 57.8695 63.5767 57.6821 63.5756 57.4792C63.5593 51.7458 63.4946 29.0184 63.4783 23.3053C63.4771 23.0699 63.3098 22.8835 63.1964 22.8177L63.1951 22.817L63.1942 22.8161L63.193 22.8157L56.467 18.9069C56.2934 18.8052 56.0756 18.8052 55.8998 18.9058L50.2561 22.1638C49.9852 22.3202 49.8923 22.6663 50.0493 22.9371C50.2041 23.208 50.5501 23.2992 50.8221 23.1444L56.1818 20.05L61.7832 23.3051L36.7206 37.775L31.1191 34.5199L44.547 26.7673C44.8179 26.6108 44.9108 26.2648 44.7538 25.9939C44.5979 25.7225 44.2496 25.6302 43.981 25.7867L29.7073 34.0279C29.5071 34.1439 29.4243 34.4039 29.4243 34.5177C29.4243 35.6776 29.5061 63.2659 29.5216 68.6939ZM62.3496 24.2859L62.4167 48.0667L37.3544 62.5363C37.348 60.2552 37.2933 40.9891 37.2869 38.7554L44.051 34.8502L62.3496 24.2859ZM36.1547 38.7551C36.1653 42.515 36.2173 60.8584 36.222 62.5297L30.6269 59.2786L30.5597 35.5034C30.9728 35.7435 36.3214 38.852 36.1547 38.7551ZM30.6306 60.5892L36.2258 63.8405L36.2477 71.618L30.6526 68.3661L30.6306 60.5892ZM37.3809 71.624L37.3588 63.8411L62.4203 49.3717L62.4424 57.1548L37.3809 71.624Z" fill="black"/>
<path d="M46.9107 25.4031L48.8277 24.2959C49.0985 24.1394 49.1914 23.7934 49.0344 23.5225C48.8785 23.2511 48.5314 23.1588 48.2616 23.3152L46.3446 24.4224C46.0738 24.5789 45.9809 24.9249 46.1379 25.1958C46.292 25.4654 46.6382 25.5595 46.9107 25.4031Z" fill="black"/>
<path d="M39.0116 58.0872C39.0133 58.4006 39.2667 58.6516 39.5776 58.6516C39.6749 58.6516 39.7733 58.6262 39.8606 58.5759L60.5608 46.6255C60.7366 46.5238 60.8449 46.3364 60.8438 46.1336L60.793 28.0629C60.7919 27.8612 60.6846 27.6749 60.5088 27.5737C60.3342 27.4731 60.1186 27.4737 59.9439 27.5743L39.2437 39.5241C39.0679 39.6258 38.9596 39.8132 38.9607 40.016L39.0116 58.0872ZM59.6631 29.0435L59.7106 45.8091L40.1414 57.1066L40.0939 40.3405L59.6631 29.0435Z" fill="black"/>
<path d="M59.4332 54.3411L46.3331 61.9055C45.8885 61.0474 44.9323 60.9334 44.0628 61.4332C43.1124 61.9827 42.3487 63.1834 42.1875 64.3084L39.8164 65.6724C39.5456 65.8283 39.4516 66.1743 39.6075 66.4457C39.7657 66.7196 40.113 66.8078 40.3803 66.6541L42.311 65.5434C42.712 66.5345 43.7205 66.6978 44.6399 66.1654C45.6444 65.5851 46.4341 64.2773 46.531 63.0986L59.9992 55.3217C60.2701 55.1653 60.3629 54.8193 60.206 54.5484C60.0501 54.2759 59.704 54.1847 59.4332 54.3411ZM44.0739 65.1848C43.5587 65.4846 43.288 65.3394 43.2856 64.741C43.2834 63.9019 43.8981 62.8367 44.6289 62.4138C45.149 62.1112 45.3948 62.2636 45.4126 62.8204C45.4137 62.8324 45.4158 62.8436 45.4177 62.8556L45.4182 62.8588C45.4204 63.6979 44.8046 64.7631 44.0739 65.1848Z" fill="black"/>
<path d="M50.1996 49.363C53.1879 47.6366 55.5206 43.5953 55.5096 40.1621C55.5004 36.5207 52.7701 34.9583 49.6004 36.7896C46.6652 38.4839 44.2861 42.6097 44.2949 45.9872C44.304 49.5893 46.9945 51.2113 50.1996 49.363ZM50.1665 37.7702C52.5875 36.3718 54.3706 37.4085 54.3775 40.1654C54.3863 43.1797 52.2582 46.8661 49.6336 48.3823C47.2162 49.7784 45.4339 48.7384 45.427 45.9839C45.4182 42.9679 47.5452 39.2832 50.1665 37.7702Z" fill="black"/>
<path d="M48.768 47.0745C48.9393 47.0745 49.1052 46.9971 49.2135 46.8567L53.2664 41.6684C53.3925 41.5081 53.4223 41.2919 53.3438 41.1034C53.2653 40.9149 53.0918 40.7834 52.8894 40.7585L48.821 40.2593C48.6674 40.2378 48.4982 40.2892 48.3766 40.3975C48.255 40.5053 48.1865 40.6601 48.1865 40.8226L48.2019 46.5101C48.2034 46.8197 48.4542 47.0745 48.768 47.0745ZM51.7585 41.7601L49.3296 44.87L49.3207 41.4611L51.7585 41.7601Z" fill="black"/>
</svg>
