<svg width="93" height="92" viewBox="0 0 93 92" fill="none" xmlns="http://www.w3.org/2000/svg">
<rect x="0.5" width="92" height="92" rx="46" fill="black"/>
<path d="M42.5256 64.3846C42.7967 64.5419 43.1427 64.4499 43.2995 64.1801C43.457 63.9098 43.3653 63.5632 43.095 63.4062L42.2045 62.8883C41.9347 62.7307 41.5876 62.8225 41.4306 63.0928C41.2736 63.3631 41.3648 63.7097 41.6351 63.8667L42.5256 64.3846Z" fill="white"/>
<path d="M25.4544 50.698C25.1847 50.541 24.8375 50.6322 24.6806 50.9031C24.523 51.1728 24.6153 51.5194 24.8856 51.6764L26.654 52.704C26.9209 52.8599 27.2691 52.7721 27.4273 52.4989C27.5848 52.2292 27.4925 51.8826 27.2222 51.7256L25.4544 50.698Z" fill="white"/>
<path d="M29.1872 52.8676C28.9175 52.7107 28.5704 52.8013 28.4134 53.0722C28.2558 53.3425 28.3476 53.6891 28.6179 53.8461L30.3857 54.8742C30.6567 55.0315 31.0028 54.9395 31.1595 54.6697C31.3171 54.3994 31.2253 54.0528 30.955 53.8958L29.1872 52.8676Z" fill="white"/>
<path d="M73.6632 49.9932C73.6616 49.5013 73.3609 49.0464 72.839 48.7445L57.1325 39.6231L57.1365 36.1828C57.1486 35.8445 57.0143 35.4614 56.7633 35.1276L54.4085 32.0696C54.2875 31.9049 54.1366 31.7667 53.9332 31.6429C53.7767 31.5589 53.5341 31.4715 53.2914 31.5113L51.051 31.8209C51.051 31.8209 51.0073 31.7971 50.9388 31.7059L47.8145 27.5994C47.6808 27.417 47.5227 27.2732 47.332 27.1643C47.107 27.0433 46.8842 27.0007 46.6852 27.0333L44.206 27.3949C44.1889 27.386 44.1298 27.339 44.0623 27.2357L42.1331 24.1976C41.7838 23.6482 41.1792 23.3103 40.6191 23.6095L37.3417 25.5154C37.1834 25.6074 36.9056 25.9844 36.9056 26.3545L36.8968 33.7412L36.6392 33.3355C36.2936 32.7921 35.6896 32.4451 35.1251 32.7468L31.8477 34.6527C31.6915 34.7435 31.4105 35.1184 31.4094 35.4924L31.4041 37.4958L20.171 43.9796C19.6822 44.2652 19.3968 44.6814 19.3542 45.1304C19.3038 45.3616 19.3457 44.598 19.3496 50.1442C19.3496 50.6422 19.6525 51.0982 20.1738 51.3912L39.8977 62.8568C40.168 63.0127 40.5146 62.9226 40.6716 62.6523C40.8292 62.382 40.7374 62.0354 40.4671 61.8784L20.7359 50.4089C20.5496 50.3039 20.4816 50.1928 20.4816 50.1419L20.4684 46.6755C23.4284 48.3951 9.86791 40.5172 48.9212 63.205C49.8882 63.7626 51.3511 63.6644 52.1322 63.2072L52.136 63.2051C52.1359 63.2051 52.136 63.2051 52.136 63.2051L72.5317 51.4376L72.5383 54.9173C72.5394 54.9533 72.4786 55.0627 72.278 55.176L51.5822 67.1258C51.0134 67.4509 50.0571 67.4514 49.4983 67.1286L44.5278 64.2387C44.2574 64.0817 43.9109 64.1735 43.7539 64.4432C43.5963 64.7135 43.6881 65.0601 43.9584 65.2171L48.9306 68.1081C49.8416 68.6333 51.2212 68.6339 52.1455 68.1081L72.839 56.1594C73.3841 55.8521 73.6864 55.3855 73.6699 54.8974C73.6692 54.396 73.6723 56.714 73.6632 49.9932ZM34.333 38.8803C34.682 39.4309 35.1828 39.628 35.5463 39.5713L38.0113 39.1978C38.0407 39.2152 38.1235 39.2984 38.1399 39.3203L39.7893 41.4878C40.5555 42.4761 41.2583 43.4663 41.4912 43.6762C41.7384 43.9025 42.0591 44.0403 42.388 43.9968C42.502 43.9808 44.7665 43.6636 44.6226 43.6838C44.7115 43.7433 47.1594 46.9412 47.0943 46.8568C47.1932 46.9884 47.2374 47.1293 47.2374 47.2045L47.2261 51.6601L47.2208 53.2766L32.5171 44.7878C32.5175 44.6697 32.5412 35.9462 32.5409 36.0606C32.6137 36.1752 34.449 39.0629 34.333 38.8803ZM31.3812 45.1112C31.3806 45.314 31.4884 45.502 31.6642 45.6037L47.5022 54.7509C47.6763 54.851 47.8919 54.8516 48.0671 54.7515C48.0727 54.7483 48.0749 54.7418 48.0803 54.7384L51.3456 52.8395C51.5192 52.7383 51.6264 52.5526 51.627 52.3514L51.6303 50.7802L52.9892 51.5677C52.9919 51.5693 52.9929 51.5726 52.9957 51.5742C53.083 51.6245 53.1803 51.6499 53.2781 51.6499C53.3765 51.6499 53.4749 51.6245 53.5628 51.5731L56.2723 49.9974L56.8424 49.6671C57.0171 49.566 57.1243 49.3797 57.1249 49.1785L57.1343 43.6286L64.2495 47.7717L46.7112 57.9023C46.7046 57.9023 46.6985 57.9023 46.6924 57.9023L26.3974 46.1001L31.3873 43.221L31.3812 45.1112ZM47.685 40.6636L45.5581 40.9574C45.4555 40.8816 44.526 39.6368 42.3055 36.7226C41.9835 36.2904 41.5339 36.1213 41.1907 36.1651L38.7034 36.5253C38.5284 36.2776 38.421 36.1256 38.0266 35.5184L38.0377 26.9269L38.4959 27.6466L39.8264 29.753C40.0765 30.1402 40.5475 30.4979 41.0409 30.4356L43.5122 30.0663C43.6011 30.1196 46.8315 34.3909 46.7687 34.3084C47.1283 34.7575 47.5493 34.9011 47.8886 34.8628C48.0026 34.8466 50.2543 34.5269 50.1103 34.5474C50.2476 34.6567 50.0315 34.4262 52.5822 37.7173C52.6927 37.8671 52.7325 38.0014 52.7325 38.0711L52.711 50.0983L51.6353 49.4747L51.6458 45.2947C51.6458 44.9452 51.3792 44.4114 51.2693 44.2649L48.914 41.2069C48.3709 40.4675 47.7987 40.6862 47.685 40.6636ZM41.0591 24.6625C41.1017 24.7001 41.1415 24.7476 41.178 24.8051L43.1099 27.8476C43.2221 28.02 43.4117 28.255 43.6428 28.376C43.8423 28.4993 44.0618 28.5557 44.3199 28.533L46.7831 28.1544C46.8052 28.1671 46.8505 28.1991 46.908 28.2771L50.0367 32.3897C50.3167 32.7613 50.7032 32.9987 51.1571 32.9574L53.3693 32.6241C53.4202 32.6556 53.4616 32.6932 53.5037 32.7501L55.8623 35.813C55.9707 35.9573 56.0072 36.0894 56.0049 36.1624L55.99 48.8523L55.8526 48.9322L53.8458 50.095L53.8674 38.0689C53.8674 37.7322 53.7336 37.358 53.4931 37.033L51.1317 33.9773C50.858 33.603 50.4526 33.4057 50.1528 33.4057C50.0836 33.4057 47.8546 33.7169 47.7861 33.7264C47.6832 33.6697 44.6541 29.6455 44.4911 29.4521C44.1492 29.0237 43.7121 28.8848 43.4178 28.9393L40.9457 29.3079C40.8042 29.2063 38.9273 26.1926 38.7795 25.9886L41.0591 24.6625ZM35.5651 33.7998C35.8103 34.0192 37.3989 36.8059 37.843 37.2725C38.1427 37.5974 38.4465 37.6436 38.8917 37.6596L41.3153 37.3114C41.3765 37.3562 44.505 41.4832 44.551 41.5436C44.8759 41.9401 45.1519 42.049 45.4437 42.0812C45.7725 42.1234 45.2636 42.1253 47.8742 41.7608C48.2259 41.9774 50.1866 44.7236 50.375 44.9669C50.4266 45.0319 50.513 45.2135 50.5104 45.2986L50.4955 52.0241L48.3548 53.2695L48.3739 47.9231C48.3739 47.917 48.3707 47.912 48.3705 47.906L48.3728 47.2062C48.3728 46.8679 48.2391 46.4937 47.9992 46.1703C45.1602 42.4952 45.7113 43.2059 45.5697 43.038C45.074 42.4407 44.635 42.5781 44.52 42.5524C44.3242 42.579 42.1386 42.8766 42.2771 42.8577C42.2541 42.8414 42.219 42.8127 42.1707 42.7481L40.8086 40.9582C40.3962 40.4178 39.1981 38.8263 39.0043 38.5952C38.6443 38.1488 38.2167 38.0238 37.9238 38.0766L35.4499 38.4448C35.4139 38.4227 35.3612 38.3676 35.3108 38.2972C35.1607 38.0803 33.4027 35.2877 33.2855 35.1259L35.5651 33.7998ZM20.7398 44.9586L31.4006 38.8052C31.4003 38.9192 31.391 42.1137 31.3916 41.9116L24.9851 45.6081C24.8104 45.7093 24.7026 45.8956 24.7021 46.0973C24.7015 46.2996 24.8087 46.4865 24.9834 46.5876L46.243 58.9504C46.4484 59.0575 46.9413 59.0762 47.1396 58.962L65.6608 48.2642C65.8354 48.163 65.9432 47.9767 65.9438 47.775C65.9443 47.5732 65.8371 47.3864 65.6624 47.2847L57.134 42.3188L57.1359 40.9344L72.2719 49.7246C72.5692 49.8963 72.6523 50.0557 72.2608 50.2835L51.5678 62.2257C51.0976 62.4992 50.0913 62.5717 49.4955 62.2277C11.5681 40.1902 23.7848 47.2887 20.7232 45.5097C20.3483 45.2924 20.4474 45.1295 20.7398 44.9586Z" fill="white"/>
<path d="M58.0193 55.9129C58.8889 56.4146 60.2486 56.4154 61.1153 55.9118C62.192 55.2869 62.1863 54.0832 61.1126 53.4636C60.2414 52.9605 58.8783 52.9633 58.0099 53.4685C56.9346 54.0921 56.9373 55.2885 58.0193 55.9129ZM58.5781 54.4469C59.1012 54.1436 60.0211 54.1409 60.5465 54.4442C60.8464 54.6168 60.8766 54.7422 60.5471 54.9328C60.0253 55.2357 59.1082 55.2341 58.5853 54.9323C58.2679 54.7488 58.2594 54.6328 58.5781 54.4469Z" fill="white"/>
</svg>
