<svg width="93" height="92" viewBox="0 0 93 92" fill="none" xmlns="http://www.w3.org/2000/svg">
<path d="M12.276 50.6C12.828 50.6 13.196 50.232 13.196 49.68V47.104C13.196 46.552 12.828 46.184 12.276 46.184C11.724 46.184 11.356 46.552 11.356 47.104V49.68C11.356 50.232 11.724 50.6 12.276 50.6Z" fill="black"/>
<path d="M52.388 37.536L48.156 39.928C47.788 40.112 47.604 40.664 47.788 41.216C47.972 41.584 48.524 41.768 49.076 41.584L53.308 39.192C53.676 39.008 53.86 38.456 53.676 37.904C53.308 37.536 52.756 37.352 52.388 37.536Z" fill="black"/>
<path d="M24.7879 38.088C25.1559 38.272 25.3399 38.272 25.7079 38.088L52.7559 22.448C53.1239 22.264 53.3079 21.896 53.3079 21.712V16.008C53.3079 15.64 53.1239 15.456 52.7559 15.272C52.3879 15.088 52.2039 15.088 51.8359 15.272L24.7879 30.912C24.6039 30.912 24.4199 31.28 24.4199 31.464V37.168C24.4199 37.72 24.6039 37.904 24.7879 38.088ZM51.4679 17.48V21.16L26.2599 35.696V32.016L51.4679 17.48Z" fill="black"/>
<path d="M25.3399 48.944C25.5239 48.944 25.7079 48.944 25.8919 48.76L52.9399 33.12C53.3079 32.936 53.4919 32.568 53.4919 32.384V26.68C53.4919 26.312 53.3079 26.128 52.9399 25.944C52.5719 25.76 52.3879 25.76 52.0199 25.944L24.9719 41.584C24.6039 41.584 24.4199 41.952 24.4199 42.32V48.024C24.4199 48.576 24.7879 48.944 25.3399 48.944ZM51.4679 28.336V32.016L26.2599 46.552V42.872L51.4679 28.336Z" fill="black"/>
<path d="M81.644 78.016V57.224C81.644 56.856 81.46 56.488 81.276 56.488L63.06 46C62.692 45.816 62.508 45.816 62.14 46L58.828 47.84V7.17599C58.828 6.80799 58.644 6.62399 58.46 6.43999L50.916 2.02399C50.548 1.83999 50.364 1.83999 49.996 2.02399L11.724 23.92C11.54 23.92 11.54 24.104 11.356 24.288V24.472V24.656V43.976C11.356 44.528 11.724 44.896 12.276 44.896C12.828 44.896 13.196 44.528 13.196 43.976V26.128L18.9 29.44L19.084 86.848L13.38 83.72V52.624C13.38 52.072 13.012 51.704 12.46 51.704C12.092 51.704 11.54 52.072 11.54 52.624V84.272C11.54 84.64 11.724 84.824 11.908 85.008L19.452 89.424C19.82 89.608 20.004 89.608 20.372 89.424L42.268 76.728V78.752C42.268 79.12 42.452 79.304 42.636 79.488C44.108 80.224 61.036 90.16 60.668 89.976C61.036 90.16 61.22 90.16 61.588 89.976L80.908 78.752C81.46 78.752 81.644 78.384 81.644 78.016ZM73.364 66.792L68.764 69.368V65.136L73.364 62.56V66.792ZM67.844 63.664L51.652 54.28L56.252 51.704L72.444 61.088L67.844 63.664ZM66.004 64.768L61.22 67.528L45.028 58.144L49.812 55.384L66.004 64.768ZM42.268 64.952L26.26 74.152V60.72L47.604 48.392V54.28L42.82 57.224C42.452 57.408 42.268 57.776 42.452 57.96L42.268 64.952ZM49.444 53.36V47.472L51.468 46.368V52.256L49.444 53.36ZM42.268 66.976V69L26.26 78.2V76.176L42.268 66.976ZM62.508 47.84L78.7 57.224L74.1 59.984L57.908 50.6L62.508 47.84ZM50.18 3.86399L55.884 7.17599L19.82 27.968C19.636 27.784 13.748 24.472 14.116 24.656L50.18 3.86399ZM20.924 87.032L20.74 29.624L56.988 8.83199L57.172 48.944L53.492 50.968V44.528C53.492 44.16 53.308 43.976 52.94 43.792C52.572 43.608 52.388 43.608 52.02 43.792L24.972 59.432C24.604 59.616 24.42 59.984 24.42 60.168C24.42 60.352 24.42 77.648 24.42 79.856C24.42 80.224 24.604 80.408 24.972 80.592C25.34 80.776 25.524 80.776 25.892 80.592L42.268 71.208V74.704L20.924 87.032ZM44.108 78.2V59.616C44.844 59.984 59.012 68.264 60.3 69C60.3 92.368 60.3 86.112 60.3 87.584L44.108 78.2ZM62.324 87.584V69L67.108 66.24V71.024C67.108 71.392 67.292 71.576 67.66 71.76C68.028 71.944 68.212 71.944 68.58 71.76L75.02 68.08C75.388 67.896 75.572 67.528 75.572 67.344V61.456C75.94 61.272 80.356 58.696 80.172 58.88V77.464L62.324 87.584Z" fill="black"/>
</svg>
