<svg width="93" height="92" viewBox="0 0 93 92" fill="none" xmlns="http://www.w3.org/2000/svg">
<path d="M87.7283 57.4936L87.752 50.3902C87.7521 50.3857 87.7555 50.382 87.7555 50.3773C87.7555 50.0655 87.5821 49.7707 87.3181 49.6179C87.3115 49.6142 87.3036 49.6159 87.297 49.6123L70.4188 39.8635L70.3639 20.5017C70.3631 20.1924 70.1969 19.9067 69.9291 19.7516C69.9279 19.751 69.9264 19.7512 69.9253 19.7506L62.3966 15.3789C62.1296 15.2247 61.7982 15.2238 61.5279 15.3781L58.2429 17.2694L58.2291 9.46197C58.2282 9.1526 58.0629 8.86612 57.7943 8.71186C57.7909 8.70995 57.7866 8.7108 57.7832 8.70889L50.2491 4.33071C49.9804 4.1739 49.6481 4.1739 49.3795 4.32901L37.2494 11.3317C37.2474 11.3329 37.2449 11.3323 37.2429 11.3334C37.2409 11.3346 37.2402 11.337 37.2382 11.3382L37.2361 11.3394C36.9683 11.4945 36.803 11.7801 36.8022 12.0903C36.8022 12.0984 36.8079 12.1048 36.8081 12.1128L36.8595 37.942L25.0928 44.735C24.7786 44.9168 24.6595 45.2899 24.6589 45.4851C24.6589 45.486 24.6595 45.4867 24.6595 45.4876C24.6595 45.4886 24.6589 45.4892 24.6589 45.4902L24.6789 50.621L5.6993 61.657C5.43231 61.8121 5.26703 62.0985 5.26788 62.4088C5.26788 62.4083 5.26788 62.4092 5.26788 62.4088C5.26788 62.4092 5.26788 62.4109 5.26788 62.4113L5.24414 69.5335C5.2433 69.8446 5.40857 70.1319 5.67811 70.2879L35.7876 87.671C36.0591 87.8273 36.3906 87.8239 36.6547 87.6718C36.6557 87.6713 36.656 87.6701 36.6569 87.6696C88.5376 57.5207 62.7584 72.5015 70.2461 68.1503C70.6597 67.9096 70.8013 67.3781 70.5597 66.9637C70.3181 66.5475 69.785 66.4077 69.3731 66.6501L37.0946 85.4079C37.0958 85.0483 37.1125 80.0229 37.1115 80.3046L86.0111 51.8907L85.9942 56.991L78.6287 61.2713C78.2142 61.512 78.0727 62.0435 78.3142 62.4571C78.5549 62.8724 79.0855 63.0114 79.5 62.7715L87.2961 58.2412C87.563 58.0869 87.7275 57.8021 87.7283 57.4936ZM38.5957 38.0052L38.5474 13.6042C38.723 13.7064 44.7211 17.1956 44.3431 16.9758L44.3863 41.376C44.2107 41.2738 38.2178 37.7852 38.5957 38.0052ZM34.0146 70.548L33.936 50.3688C34.152 50.2441 44.738 44.1323 44.3474 44.3578L44.4262 64.5352C44.2517 64.636 33.3175 70.9506 34.0146 70.548ZM32.2785 70.537L26.4795 67.1662L26.4007 46.9989L32.1998 50.3697C32.2012 50.7166 32.2774 70.2382 32.2785 70.537ZM56.57 57.526L46.162 63.5276C46.141 51.761 46.1 28.7347 46.079 16.9775L56.4958 10.9647C56.4981 12.422 56.4828 2.84943 56.57 57.526ZM58.3129 56.5153L58.262 28.0009L68.2825 22.2073L68.6323 22.0053C68.6357 23.2054 68.6144 15.5928 68.712 50.516C68.5375 50.6167 57.6201 56.9149 58.3129 56.5153ZM61.9593 17.1326L67.7631 20.5024L58.2604 25.9882L58.2469 19.2693L61.9593 17.1326ZM49.8117 6.08351L55.6211 9.45943L45.211 15.4696C45.0354 15.3674 39.0305 11.8698 39.4083 12.0899L49.8117 6.08351ZM37.6684 39.4791C37.8441 39.5813 43.8537 43.076 43.4757 42.8562L33.0673 48.8657C32.5938 48.5904 26.9825 45.3289 27.2584 45.4893L37.6684 39.4791ZM24.558 52.6997L24.6055 67.7562C24.6063 68.0647 24.7716 68.3503 25.0386 68.5046L32.5776 72.872C32.7113 72.9504 32.8619 72.9951 33.0169 72.9951C33.0177 72.9951 33.0185 72.9944 33.0193 72.9944C33.1712 72.9953 33.3231 72.9578 33.4585 72.8798C49.4662 63.6411 70.4238 51.5355 70.0147 51.7716C70.2851 51.6165 70.4504 51.3283 70.4495 51.0172C70.4495 51.0161 70.4504 51.0142 70.4504 51.013L70.4245 41.8711L85.1469 50.3755L36.2451 78.7941L7.86656 62.4045L24.558 52.6997ZM6.99864 63.9141L35.3757 80.2978C35.3746 80.6429 35.3578 85.6675 35.3586 85.4188L6.98169 69.036L6.99864 63.9141Z" fill="black"/>
<path d="M73.5542 66.2271L76.475 64.5303C76.8894 64.2896 77.031 63.759 76.7894 63.3445C76.5479 62.9283 76.0147 62.7893 75.6037 63.0301L72.6829 64.7269C72.2684 64.9676 72.1269 65.4982 72.3684 65.9127C72.6107 66.331 73.1443 66.4664 73.5542 66.2271Z" fill="black"/>
</svg>
