<svg width="93" height="92" viewBox="0 0 93 92" fill="none" xmlns="http://www.w3.org/2000/svg">
<path d="M37.1742 31.4658L64.5935 15.6355C64.8613 15.4803 65.0275 15.1947 65.0275 14.8845C65.0275 14.5751 64.863 14.2886 64.5952 14.1335L56.5686 9.46929C56.3024 9.31334 55.9685 9.31334 55.699 9.4676L28.2797 25.2979C28.0118 25.453 27.8457 25.7386 27.8457 26.0489C27.8457 26.3582 28.0101 26.6447 28.278 26.7998L36.3046 31.4641C36.5694 31.6199 36.9035 31.6217 37.1742 31.4658ZM56.1312 11.2221L62.4271 14.8811L36.7419 29.7113L30.4461 26.0522L56.1312 11.2221Z" fill="black"/>
<path d="M19.2563 50.2711C19.258 50.7491 19.6462 51.1365 20.1242 51.1365C20.6039 51.1348 20.9938 50.7457 20.9921 50.266L20.9277 27.5474L35.8669 36.229L35.898 47.1884L35.9842 77.8347C35.8091 77.7329 20.0461 68.5731 21.0464 69.1544L21.0176 58.9096C21.0159 58.4316 20.6277 58.0443 20.1496 58.0443C19.6699 58.046 19.28 58.435 19.2817 58.9147C19.2782 60.7671 19.2943 52.2044 19.2478 77.031C19.2444 77.3446 19.4105 77.6353 19.6818 77.7912C19.86 77.8939 20.4289 78.2217 22.8755 79.6313C23.1359 79.7813 23.4638 79.7903 23.74 79.633C24.7088 79.072 27.1073 77.683 26.9218 77.7904C27.1863 77.637 27.3507 77.3539 27.3541 77.0471L27.3743 74.8388L32.8176 78.0022L32.7701 84.9491C32.7684 85.2618 32.9346 85.5509 33.2041 85.7068L36.3978 87.5469C36.6655 87.7011 36.9962 87.702 37.264 87.5478C37.2652 87.5471 37.2656 87.5456 37.2668 87.545C37.2675 87.5446 37.2684 87.5448 37.2691 87.5444L40.4458 85.6873C40.7103 85.5331 40.8747 85.2508 40.8764 84.944L40.9256 78.0001L65.6748 63.7111L65.6648 65.8564C65.6631 66.1675 65.8293 66.4557 66.0971 66.6116L69.2721 68.4517C69.5419 68.6068 69.8689 68.6078 70.1384 68.4543C70.1397 68.4534 70.1403 68.4518 70.1416 68.451C70.1427 68.4503 70.1441 68.4507 70.1451 68.45L73.3219 66.593C73.5863 66.4387 73.7508 66.1565 73.7525 65.8496C73.8851 47.371 73.7643 70.8381 73.6846 14.8938C73.6833 14.6437 73.4261 14.247 73.2524 14.1463L73.2504 14.1451C73.2498 14.1448 73.2496 14.144 73.249 14.1437C47.5144 -0.81145 60.2606 6.59579 56.5753 4.45415C56.3092 4.2982 55.9753 4.2982 55.7057 4.45246L19.6224 25.2852C19.3517 25.4419 19.1885 25.7304 19.1885 26.0362C19.1885 26.0368 19.1889 26.0372 19.1889 26.0378C19.1889 26.0385 19.1885 26.0389 19.1885 26.0395L19.2563 50.2711ZM55.7637 67.4284L55.631 25.8211L71.9539 16.3974C71.9772 24.835 71.894 -5.23372 72.0692 58.0147C69.4145 59.5381 55.943 67.3247 55.7637 67.4284ZM37.7209 77.845L37.6316 46.3838L37.6031 36.2294C39.7141 35.0106 53.1502 27.2534 53.8984 26.8214L54.031 68.4287L37.7209 77.845ZM21.0396 71.1631L22.5059 72.0167L22.4551 77.3861L20.9887 76.5402L21.0396 71.1631ZM25.6233 76.5368L24.1918 77.3653C24.1934 77.1905 24.236 72.7362 24.2333 73.0185L25.6471 73.8398L25.6233 76.5368ZM34.5467 79.0084L35.057 79.3036L36.0127 79.859C36.0104 80.174 35.9718 85.6091 35.974 85.2991L34.5094 84.4558L34.5467 79.0084ZM39.144 84.438L37.7118 85.2751L37.755 79.8321L39.1829 79.0135L39.144 84.438ZM67.4159 62.7057L68.8815 61.8596C68.8802 62.0344 68.848 66.4829 68.85 66.2005L67.4024 65.3623L67.4159 62.7057ZM70.5866 66.1815C70.5881 65.9783 70.6272 60.5084 70.6248 60.8531L72.059 60.0251L72.02 65.3436L70.5866 66.1815ZM56.138 6.20696L71.0854 14.8935L54.4305 24.5093C54.4146 24.5159 54.4021 24.5271 54.3867 24.5347L36.7346 34.7261L21.7872 26.0395L56.138 6.20696Z" fill="black"/>
<path d="M20.1394 56.561C20.6191 56.5593 21.009 56.1702 21.0073 55.6905L21.0005 53.3402C20.9988 52.8621 20.6106 52.4748 20.1326 52.4748C19.6528 52.4765 19.263 52.8655 19.2647 53.3453L19.2714 55.6956C19.2731 56.1745 19.6613 56.561 20.1394 56.561Z" fill="black"/>
<path d="M49.9251 65.4402L40.8272 70.6919C40.4119 70.9317 40.2695 71.4623 40.5102 71.8776C40.7464 72.2911 41.2774 72.4353 41.6951 72.1955L50.793 66.9439C51.2084 66.704 51.3508 66.1734 51.11 65.7581C50.8727 65.3411 50.3387 65.2004 49.9251 65.4402Z" fill="black"/>
<path d="M49.9251 60.726L40.8272 65.9785C40.4119 66.2184 40.2695 66.7489 40.5102 67.1643C40.7464 67.5777 41.2774 67.7219 41.6951 67.4821L50.793 62.2296C51.2084 61.9898 51.3508 61.4592 51.11 61.0439C50.871 60.6269 50.3387 60.4853 49.9251 60.726Z" fill="black"/>
<path d="M41.6951 39.9441L50.793 34.6917C51.2084 34.4518 51.3508 33.9212 51.11 33.5059C50.871 33.088 50.3387 32.949 49.9251 33.188L40.8272 38.4405C40.4119 38.6804 40.2695 39.211 40.5102 39.6263C40.7464 40.0398 41.2774 40.1839 41.6951 39.9441Z" fill="black"/>
<path d="M68.6432 55.6346C68.4042 55.2167 67.8719 55.076 67.4583 55.3167L58.3604 60.5692C57.9451 60.8091 57.8027 61.3396 58.0434 61.755C58.2797 62.1684 58.8106 62.3126 59.2283 62.0728L68.3262 56.8203C68.7416 56.5805 68.884 56.0499 68.6432 55.6346Z" fill="black"/>
<path d="M59.2283 57.3586L68.3262 52.1061C68.7416 51.8662 68.884 51.3356 68.6432 50.9203C68.4042 50.5033 67.8719 50.3618 67.4583 50.6025L58.3604 55.855C57.9451 56.0948 57.8027 56.6254 58.0434 57.0407C58.2797 57.4542 58.8106 57.5984 59.2283 57.3586Z" fill="black"/>
<path d="M59.2283 29.8206L68.3262 24.5681C68.7416 24.3283 68.884 23.7977 68.6432 23.3823C68.4042 22.9653 67.8719 22.8255 67.4583 23.0645L58.3604 28.317C57.9451 28.5568 57.8027 29.0874 58.0434 29.5027C58.2797 29.9162 58.8106 30.0604 59.2283 29.8206Z" fill="black"/>
<path d="M41.0238 57.8332C41.5036 57.8315 41.8935 57.4425 41.8918 56.9627L41.8799 52.6892C41.8782 52.2112 41.49 51.8239 41.012 51.8239C40.5322 51.8255 40.1424 52.2146 40.144 52.6943L40.1559 56.9678C40.1576 57.4459 40.5458 57.8332 41.0238 57.8332Z" fill="black"/>
<path d="M59.6589 41.0579C59.1792 41.0596 58.7893 41.4486 58.791 41.9283L58.8029 46.2018C58.8046 46.6799 59.1928 47.0672 59.6708 47.0672C60.1505 47.0655 60.5404 46.6765 60.5387 46.1968L60.5269 41.9232C60.5252 41.4452 60.137 41.0579 59.6589 41.0579Z" fill="black"/>
</svg>
