<svg width="93" height="92" viewBox="0 0 93 92" fill="none" xmlns="http://www.w3.org/2000/svg">
<path d="M20.9492 29.9038C20.9492 36.5887 23.5089 42.9048 28.1554 47.6894C30.386 49.9936 31.9723 55.9653 32.581 58.75C31.6752 59.9307 31.1894 61.2055 31.1616 62.5136C31.1547 62.5574 31.1355 62.5967 31.1355 62.6425C31.135 62.9575 31.1175 74.1455 31.1185 73.4932C31.1185 76.0682 32.8018 78.4567 35.8531 80.2146C36.4045 80.5361 36.9911 80.8127 37.5838 81.0544C38.8074 84.9576 42.4005 87.6581 46.5157 87.6581C50.5648 87.6581 54.1392 84.9988 55.3926 81.154C56.0566 80.8755 56.6743 80.5815 57.2427 80.2502C60.2109 78.5381 61.8569 76.1886 61.8773 73.6339L61.8942 62.751C61.8942 61.2282 61.176 59.6921 60.2096 58.5309C60.5135 54.4002 62.2274 50.4847 65.1388 47.3894C71.2261 40.9173 73.4756 31.7913 71.1549 22.9756C68.815 14.1387 61.9619 7.59864 53.8066 5.34168C45.7732 3.11593 37.4788 4.64582 31.049 9.53891C24.6311 14.4218 20.9492 21.845 20.9492 29.9038ZM37.0329 65.8125C37.7311 66.212 38.4912 66.5508 39.2871 66.8444C44.5688 68.8031 51.5201 68.4067 55.9374 65.826C57.7374 64.8708 59.298 63.4221 59.898 61.4655C59.9051 61.4421 59.9177 61.42 59.9244 61.3966C60.1431 62.0441 60.2058 62.7052 60.1058 63.3612C59.8499 65.031 58.531 66.6295 56.3917 67.8653L56.3883 67.867C51.0011 71.0064 42.1795 70.9912 36.7244 67.828C34.5597 66.5804 33.212 64.9767 32.929 63.3138C32.8188 62.6662 32.8713 62.0119 33.0781 61.3711C33.0853 61.3949 33.1011 61.4169 33.1086 61.4406C33.7147 63.3415 35.3038 64.8171 37.0329 65.8125ZM60.1414 68.2009C60.133 70.0995 58.7938 71.9184 56.3697 73.3203C50.996 76.4479 42.1795 76.4327 36.7176 73.2881C34.2664 71.8742 32.9067 70.0561 32.8627 68.1626L32.8646 66.9105C33.6327 67.8051 34.6329 68.627 35.8548 69.3316C41.7927 72.772 51.4017 72.7821 57.2597 69.3672C58.4386 68.6864 59.4037 67.8916 60.1517 67.0261C60.1516 67.0354 60.1529 66.9045 60.1414 68.2009ZM46.5157 85.9222C43.639 85.9222 41.059 84.3084 39.7537 81.8402C41.6268 82.3954 44.1753 82.7926 46.5743 82.7997C46.6 82.7998 46.6256 82.8031 46.6513 82.8031C48.8797 82.8031 51.3568 82.4506 53.2048 81.9284C51.8843 84.344 49.3348 85.9222 46.5157 85.9222ZM56.3731 78.7483C50.9177 81.9293 41.9336 81.7653 36.7244 78.7127C34.2291 77.2752 32.8544 75.4223 32.8544 73.4949L32.8561 72.3762C33.6208 73.2631 34.6171 74.0803 35.8497 74.7917C41.7817 78.2079 51.3843 78.2324 57.241 74.8206C58.4312 74.1323 59.3978 73.341 60.1432 72.4804L60.1414 73.6255C60.1262 75.5342 58.7887 77.3548 56.3731 78.7483ZM53.3421 7.01481C60.5799 9.0162 67.2226 14.9138 69.4767 23.4189C71.6431 31.6506 69.5496 40.1671 63.8742 46.1994C60.6287 49.651 58.7468 54.0394 58.4675 58.6601C58.464 58.6848 58.4443 58.7031 58.4429 58.7284C58.3523 60.3367 58.6011 62.4766 55.0848 64.3088C50.479 67.0075 42.6117 67.0109 37.9043 64.3055C35.8582 63.129 34.6801 61.6101 34.5902 60.076C34.5902 59.4998 32.6673 49.8547 29.4013 46.4808C25.0702 42.0217 22.6851 36.1344 22.6851 29.9038C22.6851 22.3917 26.1161 15.472 32.1 10.9205C38.0882 6.36506 45.8301 4.93408 53.3421 7.01481Z" fill="black"/>
<path d="M39.7571 62.768C43.5008 64.9174 49.566 64.9054 53.2812 62.7357C55.1984 61.6237 56.2985 60.0252 56.3002 58.3504C56.3105 50.6025 56.2824 71.7994 56.3358 31.4676V31.4583C56.2855 30.9955 47.1389 16.9884 47.2515 17.1621C46.9294 16.6688 46.1157 16.6688 45.7936 17.1621C36.1974 31.9718 36.8007 30.9886 36.7481 31.2279C36.661 31.5714 36.7106 31.7039 36.6787 58.3317C36.6787 60.0472 37.7721 61.622 39.7571 62.768ZM43.0574 24.5798C45.4426 25.1224 47.5921 25.1227 49.9893 24.5811L54.5647 31.6436C54.4541 32.8186 53.4717 33.7215 52.4454 34.3256C46.9934 37.5091 38.7995 34.9516 38.4838 31.6407L43.0574 24.5798ZM38.462 34.9139C41.9696 38.0042 49.1623 38.2532 53.3235 35.8233C53.8015 35.5419 54.2254 35.2359 54.5949 34.9096L54.5917 37.3594C54.568 38.3841 53.7939 39.4174 52.4437 40.2019C47.4093 43.1429 38.4502 41.1003 38.4502 37.304L38.462 34.9139ZM52.4081 61.2355C49.228 63.0934 43.8306 63.1053 40.6234 61.2643C39.1994 60.4422 38.4146 59.4014 38.4146 58.3368C38.451 34.2599 38.4384 42.564 38.4412 40.7676C40.522 42.6227 43.747 43.338 46.5242 43.338C48.9873 43.338 51.4504 42.7921 53.3168 41.7021C53.7921 41.4263 54.2167 41.1202 54.5873 40.7908L54.5644 58.347C54.5627 59.3895 53.7778 60.4405 52.4081 61.2355ZM46.5225 19.2302L48.9765 23.0179C47.3727 23.2989 45.6671 23.2985 44.0694 23.0175L46.5225 19.2302Z" fill="black"/>
</svg>
