<svg width="93" height="92" viewBox="0 0 93 92" fill="none" xmlns="http://www.w3.org/2000/svg">
<path d="M62.5508 42.2612C59.2627 45.5772 57.0055 46.4944 56.1083 47.0822C54.4589 48.029 52.8468 48.6079 51.3144 48.8045C48.0693 49.2301 42.1331 52.0312 39.2965 53.6645C37.9036 54.473 36.6017 55.3637 35.3477 56.288L8.45973 41.0008C7.02263 40.199 5.25745 41.1837 5.1728 42.8045L4.84225 48.8198C4.79309 49.9267 5.37453 50.9879 6.31619 51.5185C8.14623 52.5774 10.4735 51.4015 10.7033 49.308C10.7488 48.9265 11.1588 48.7722 11.4152 48.9486L31.8328 62.9731C31.9014 63.1799 31.9566 63.3881 32.0556 63.5914C32.8972 65.2891 33.5126 67.0691 33.9364 69.0329C34.3873 71.1086 35.3527 72.6233 36.7241 73.4124C38.9496 74.695 42.1993 76.6279 42.686 76.8188C44.8921 77.6927 47.3305 76.8648 49.3827 75.6797C50.8431 74.8363 52.4552 73.6133 54.1758 72.041C58.1703 68.3517 60.6729 63.8768 61.5557 57.8236C61.6074 57.4846 61.8515 57.1286 62.038 57.021L63.7772 56.0191L64.585 58.5992C65.38 60.4503 66.5539 61.6454 68.0745 62.1505C70.8831 63.0844 74.2365 61.4439 76.7478 59.8231C81.796 56.7675 84.9456 52.055 86.1119 45.8142C86.3966 44.2598 86.7374 42.6714 87.0866 41.1203C87.2629 40.3728 87.7757 38.8276 87.7969 38.7632C88.4063 37.0553 88.2435 35.5119 87.362 34.6346C87.06 34.3341 84.8695 33.0117 53.3494 15.1029C51.92 14.3018 50.1475 15.277 50.0625 16.9057L49.7319 22.921C49.6828 24.0271 50.2642 25.0883 51.205 25.6197C53.0404 26.6818 55.3639 25.4976 55.5921 23.4092C55.6396 23.0117 56.0659 22.8863 56.3041 23.0499L72.796 34.381C69.7072 36.2917 65.0109 39.7398 62.5508 42.2612ZM11.1779 47.1399C10.0574 47.1399 9.11237 47.9841 8.97845 49.1105C8.87165 50.0793 7.87574 50.4166 7.17734 50.0115C6.79169 49.7945 6.55606 49.3563 6.57555 48.9054L6.90611 42.8977C6.91798 42.6646 7.07902 42.5519 7.14767 42.5138C7.21717 42.4748 7.40364 42.3976 7.60706 42.5129L33.833 57.4236C32.5565 58.4614 31.8509 59.6965 31.6521 60.7427L12.3993 47.5187C12.045 47.2746 11.611 47.1399 11.1779 47.1399ZM86.1568 38.197C86.1508 38.214 85.594 39.8871 85.3948 40.7304C85.0388 42.3137 84.693 43.9241 84.4048 45.4989C83.3343 51.2294 80.4559 55.5496 75.8281 58.3508C73.8789 59.6099 70.8274 61.2362 68.6211 60.5037C67.5778 60.1562 66.7793 59.3094 66.2115 57.9982L65.3196 55.1389C65.3186 55.1353 65.3209 55.1319 65.3198 55.1283C65.0735 54.2676 64.0798 53.8348 63.1695 54.363L61.17 55.5174C60.5022 55.903 59.9682 56.7243 59.8393 57.5668C59.0141 63.223 56.7 67.3463 53.001 70.7628C51.3762 72.2469 49.8675 73.3954 48.5148 74.176C44.1784 76.6824 41.7026 75.2668 40.973 71.7621C40.8103 71.0283 40.5923 70.3535 40.383 69.6693C39.2495 65.9403 38.6412 65.882 38.6362 64.6585C38.6336 63.6686 39.3062 62.6605 40.0898 62.0132C42.1684 60.2876 43.4522 59.5698 43.7874 59.3541C46.8311 57.3952 50.3758 55.6168 54.8437 54.1011C56.7046 53.4553 57.5123 53.7915 60.1486 52.7251C63.2911 51.4558 66.7881 48.9475 69.1077 46.5889C71.6567 44.0239 75.9771 40.8539 78.9539 39.0043C79.391 38.734 79.8333 38.4514 80.2585 38.208C82.155 37.1119 83.9889 36.2803 85.2736 35.8179C86.577 35.3289 86.6202 36.8957 86.1568 38.197ZM56.0667 21.2411C54.9462 21.2411 54.0012 22.0853 53.8673 23.2126C53.763 24.1755 52.7544 24.5119 52.067 24.1127C51.6814 23.8949 51.4457 23.4576 51.4652 23.0066L51.7958 16.9981C51.8133 16.6558 52.1906 16.4435 52.4959 16.6142L78.4624 31.4197C77.2339 31.9146 75.4927 32.7932 74.4245 33.3938L57.2898 21.6208C56.9355 21.3759 56.5016 21.2411 56.0667 21.2411ZM74.9331 35.1059C76.7359 34.0642 78.3726 33.2836 79.955 32.714C80.1648 32.6331 80.4046 32.589 80.6188 32.6629L83.8265 34.512C81.2792 35.5318 79.1403 36.8453 78.0471 37.5242C75.1539 39.3144 70.729 42.5178 67.8727 45.365C65.1852 48.1019 61.4729 50.4314 59.0147 51.3187C57.1685 51.9848 56.0172 51.8645 54.2707 52.4593C49.9642 53.9317 45.4003 56.0569 41.6445 58.6607C40.7118 59.3061 39.8186 59.9784 38.9744 60.6758C37.8081 61.6468 36.897 63.1401 36.897 64.6585C36.897 66.2436 37.6698 66.7982 38.6772 70.0038C38.8936 70.6969 39.1094 71.3889 39.2719 72.1342C39.2804 72.1736 39.2971 72.2045 39.3059 72.2435C39.3646 72.5105 39.4283 72.7721 39.505 73.0199L37.592 71.9088C36.4071 71.2273 35.8731 69.7686 35.6332 68.6659C35.1781 66.5605 34.517 64.6484 33.6134 62.8261C33.0052 61.5773 33.2494 60.139 34.9489 58.7612C36.5426 57.4673 38.2909 56.2548 40.1652 55.1673C42.7956 53.6533 48.5544 50.9171 51.5373 50.526C53.2952 50.3005 55.1234 49.6487 56.9762 48.5858C57.8003 48.0454 60.3125 46.9849 63.7882 43.4783C65.8362 41.3817 70.7752 37.5078 74.9331 35.1059Z" fill="black"/>
<path d="M80.1873 40.9737C78.8634 41.5704 77.5378 42.251 76.2469 42.9952C74.1178 44.2242 71.9895 45.6871 69.9137 47.3475C69.1577 47.9662 68.589 48.9359 68.4313 49.8682C67.9796 52.3855 68.3822 54.1273 69.8197 55.7352C71.3793 57.2615 73.6472 56.8357 75.5239 55.753C78.7074 53.9146 81.5163 49.8521 82.3537 45.8761C82.6234 44.6152 83.2461 41.8268 82.2334 41.0237C81.7384 40.6313 81.0603 40.6101 80.1873 40.9737ZM80.656 45.5159C79.9237 48.9918 77.4004 52.6652 74.656 54.2494C73.5712 54.8757 71.9711 55.4068 71.0741 54.5367C70.2163 53.5755 69.729 52.4652 70.1417 50.1666C70.2307 49.6377 70.5808 49.0444 71.0054 48.6977C73.0057 47.0966 75.062 45.6845 77.1148 44.4988C78.3557 43.7834 79.6296 43.1291 80.8764 42.5663C80.9586 42.5324 81.0281 42.5078 81.084 42.4909C81.0805 42.6876 80.9051 44.3486 80.656 45.5159Z" fill="black"/>
<path d="M55.6334 56.3768C55.2045 56.1403 54.6799 56.1073 54.1417 56.2912C52.0566 57.032 49.9165 58.0321 47.7814 59.2637C44.8288 60.9708 41.5379 62.7019 42.1492 65.3976C42.2365 66.2656 42.384 67.0606 42.5874 67.7573C43.5964 71.2544 47.0008 72.0528 50.3029 70.1483C52.2397 69.0306 54.1182 67.0468 55.3037 64.5C55.3071 64.4941 55.3096 64.4873 55.313 64.4814C56.592 61.5496 56.9277 59.5417 56.4708 57.5473C56.3496 57.0252 56.0521 56.6099 55.6334 56.3768ZM53.7255 63.777C52.685 66.0074 51.0469 67.7147 49.435 68.6447C47.2246 69.9196 44.9698 69.7541 44.2546 67.2733C44.08 66.6758 43.9529 65.9867 43.8605 65.1247C43.5057 63.5048 46.47 62.0253 48.6493 60.7673C50.6928 59.5883 52.7364 58.6322 54.779 57.9372C55.1443 59.5307 54.8392 61.2233 53.7255 63.777Z" fill="black"/>
</svg>
