<svg width="93" height="92" viewBox="0 0 93 92" fill="none" xmlns="http://www.w3.org/2000/svg">
<path d="M82.5732 19.1931C82.5638 19.1777 82.5531 19.1664 82.5428 19.1516C82.5078 19.1029 82.4825 19.049 82.4362 19.007C82.3531 18.9317 82.2577 18.8792 82.1586 18.8417C82.1524 18.8393 82.1501 18.8322 82.1438 18.8299L61.1653 10.9465C60.3838 10.3252 59.4795 9.7209 58.403 9.09962C55.5136 7.43836 52.1394 6.18393 48.3736 5.37195C47.9023 5.26939 47.4438 5.56859 47.3421 6.0373C47.2412 6.50602 47.5387 6.96795 48.0074 7.06881C51.5978 7.84265 54.8042 9.03266 57.5368 10.6041C58.5836 11.2084 59.4498 11.7907 60.1847 12.3848C60.2567 12.4433 60.3381 12.4899 60.4254 12.523L78.8569 19.4494C77.4929 19.7698 83.7989 18.2924 65.517 22.5825C65.2023 22.6748 64.9645 22.9562 64.904 23.2034C64.1983 26.0907 62.0764 28.4063 59.7124 30.1681C58.53 28.6948 56.9324 27.3376 54.9068 26.1682C45.8258 20.9268 31.0973 20.9268 22.074 26.1699C20.1611 27.2816 18.6366 28.5641 17.4857 29.9543C14.1963 27.4706 11.6886 23.8926 12.2717 19.8283C12.7641 16.3931 15.4136 13.1163 19.7321 10.6024C24.5718 7.78332 31.0482 6.18054 37.9695 6.08985C38.4492 6.08392 38.8324 5.68979 38.8264 5.21091C38.8196 4.73202 38.3891 4.31501 37.9475 4.354C30.7312 4.44893 23.9522 6.13477 18.8591 9.10216C14.0728 11.889 11.1232 15.6107 10.5536 19.5825C10.4827 20.0761 10.4591 20.5682 10.4602 21.0586L10.2866 70.8672C10.2866 75.4763 13.3142 79.7566 18.8099 82.9198C29.7395 89.2263 47.4939 89.2243 58.3929 82.9164C63.7843 79.7482 66.7543 75.5314 66.7543 71.0435L66.8568 37.486L82.4964 20.2335C82.7646 19.9379 82.7768 19.5147 82.5732 19.1931ZM60.2948 41.5536V69.1432C60.283 69.2 60.277 69.2585 60.277 69.3187C60.277 72.4725 58.1064 75.467 54.1651 77.7504C45.6045 82.7223 31.6372 82.7223 23.0275 77.7504C19.3371 75.6077 17.1334 72.8217 16.824 69.9043C16.8189 69.8535 16.8088 69.8043 16.7944 69.7569V41.4849C16.82 41.5223 16.8546 41.5574 16.8808 41.5947C19.2047 44.9064 23.0684 47 26.888 48.2851C38.4462 52.1897 54.6122 49.7215 60.2485 41.6124C60.2624 41.5923 60.2811 41.5736 60.2948 41.5536ZM58.5336 33.0159C58.6027 32.9759 58.6627 32.9306 58.7314 32.8901C58.9049 32.7874 59.0846 32.6776 59.2673 32.5653C59.9305 33.7399 60.2877 34.9702 60.2898 36.2265C60.3028 45.9886 41.4222 51.3144 27.5754 46.6951C22.5684 45.0175 16.8057 41.46 16.7986 36.1595C16.7965 34.8564 17.1845 33.5829 17.8953 32.3701C28.3686 39.2067 47.0982 39.6777 58.5336 33.0159ZM22.9461 27.6702C31.4962 22.703 45.443 22.7099 54.0388 27.6718C55.8199 28.7001 57.2245 29.8735 58.2632 31.1328C58.1313 31.2141 58.0116 31.2987 57.8767 31.3783C46.845 37.9228 28.8593 37.3868 18.924 30.9365C19.9331 29.7511 21.2696 28.6449 22.9461 27.6702ZM65.4236 36.4825C65.2354 36.6444 65.1227 36.8817 65.1218 37.1376L65.0184 71.041C65.0184 74.8907 62.3528 78.576 57.5182 81.4171C47.1031 87.4468 30.1277 87.4468 19.677 81.4154C14.7407 78.5751 12.0225 74.8288 12.0225 70.8706L12.1784 26.7995C13.2755 28.5702 14.7819 30.1278 16.4712 31.38C15.5608 32.8889 15.0608 34.4958 15.063 36.1595C15.0628 36.1673 15.0585 36.1737 15.0585 36.1816V69.9959C15.0585 70.1103 15.0831 70.2196 15.1263 70.3197C15.5798 73.7142 18.0674 76.8783 22.1579 79.2532C31.2349 84.4932 45.9828 84.5098 55.0356 79.2523C59.4617 76.6884 61.9315 73.2328 62.0112 69.5034C62.049 69.3272 62.0236 70.8047 62.0307 36.2333C62.0307 36.2204 62.0238 36.2095 62.0233 36.1967C62.0158 34.6013 61.5498 33.0576 60.7036 31.602C63.3073 29.6604 65.5237 27.2235 66.4491 24.1366L79.3527 21.1159L65.4236 36.4825Z" fill="black"/>
<path d="M57.8961 47.5833C57.4189 47.6333 57.0723 48.0596 57.1214 48.5359C57.3249 50.4989 56.0018 52.4602 53.4929 53.9189C51.7452 54.9343 49.5415 55.6463 47.1191 55.9777C46.6445 56.043 46.3122 56.4812 46.3766 56.9558C46.4402 57.4151 46.86 57.7615 47.3547 57.6983C49.9992 57.3355 52.4233 56.5473 54.3643 55.4192C57.4901 53.6028 59.1251 51.0295 58.8488 48.3579C58.7988 47.8808 58.3699 47.54 57.8961 47.5833Z" fill="black"/>
<path d="M57.8961 55.3802C57.4189 55.4302 57.0723 55.8565 57.1214 56.3328C57.3249 58.295 56.0018 60.2563 53.4921 61.715C51.7452 62.7313 49.5407 63.4432 47.1191 63.7738C46.6445 63.839 46.3122 64.2764 46.3766 64.7519C46.4402 65.2112 46.86 65.5575 47.3547 65.4944C49.9992 65.1325 52.4233 64.3442 54.3643 63.2152C57.491 61.3988 59.1251 58.8256 58.8488 56.1549C58.7988 55.6785 58.3699 55.3344 57.8961 55.3802Z" fill="black"/>
<path d="M57.8961 63.1762C57.4189 63.2262 57.0723 63.6526 57.1214 64.1289C57.3249 66.0911 56.0018 68.0524 53.4929 69.5119C51.7452 70.5273 49.5415 71.2393 47.1191 71.5707C46.6445 71.6359 46.3122 72.0741 46.3766 72.5488C46.4402 73.0081 46.86 73.3544 47.3547 73.2913C49.9992 72.9285 52.4233 72.1403 54.3651 71.0121C57.4901 69.1949 59.1251 66.6216 58.8488 63.9509C58.7988 63.4746 58.3699 63.1288 57.8961 63.1762Z" fill="black"/>
<path d="M44.5781 6.4755C44.6162 6.48058 44.6552 6.48313 44.6925 6.48313C45.1214 6.48313 45.4943 6.16528 45.5519 5.72878C45.6147 5.25328 45.2807 4.81763 44.8052 4.75491C43.8441 4.62777 42.8744 4.53114 41.8997 4.46334C41.4301 4.4396 41.0063 4.79135 40.9733 5.26939C40.9402 5.74827 41.3013 6.16274 41.7793 6.1958C42.7185 6.26021 43.6525 6.35345 44.5781 6.4755Z" fill="black"/>
</svg>
