<svg width="93" height="92" viewBox="0 0 93 92" fill="none" xmlns="http://www.w3.org/2000/svg">
<path d="M24.947 81.9832C26.7246 83.0178 34.2626 87.4052 33.8585 87.1701L33.9407 87.2179C33.9501 87.2234 33.961 87.2208 33.9705 87.2259C35.3418 88.0069 36.9552 87.6531 38.3176 86.8627L64.7359 71.6045C67.7541 69.8661 70.1028 65.7901 70.0833 62.3244L69.9443 13.9342C69.9443 12.3602 69.4722 11.1287 68.5924 10.3853C68.1835 10.0233 68.3324 10.1833 59.0791 4.78113C57.8577 4.08356 56.3041 4.2107 54.6963 5.13796L28.2737 20.3911C28.2735 20.3912 28.2739 20.3909 28.2737 20.3911C28.2734 20.3913 28.2723 20.3917 28.272 20.3919C25.2626 22.1308 22.9122 26.2007 22.9184 29.6617C22.9184 29.6636 22.917 29.6651 22.917 29.667L23.0094 60.2588C23.0111 60.7377 23.3993 61.1242 23.8773 61.1242C23.8782 61.1242 23.879 61.1242 23.8798 61.1242C24.3596 61.1225 24.7469 60.7326 24.7452 60.2537L24.6571 31.1765L31.9132 35.4C32.0815 94.1133 32.0452 81.4439 32.0505 83.2986C32.0505 83.476 32.0875 83.9683 32.1099 84.1445L25.77 80.4558C25.0442 80.1023 24.7986 78.9028 24.7986 78.0513L24.7732 69.6559C24.7715 69.1771 24.3833 68.7906 23.9053 68.7906C23.9044 68.7906 23.9036 68.7906 23.9027 68.7906C23.423 68.7923 23.0357 69.1822 23.0373 69.661L23.0628 78.0538C23.0628 80.1922 24.0023 81.5218 24.947 81.9832ZM68.3474 62.3345C68.3635 65.185 66.3547 68.6694 63.8688 70.1009L37.4479 85.36C35.2246 86.6527 33.7932 85.6637 33.7932 83.2859C33.7157 57.4316 33.6527 34.6558 33.6533 34.8923C33.646 32.1613 35.6064 28.5936 38.1438 27.1319C38.3194 27.0305 63.7375 12.3467 64.6066 11.8534C66.5563 10.7407 68.2084 11.3196 68.2084 13.9367L68.3474 62.332C68.3474 62.3328 68.3474 62.3337 68.3474 62.3345ZM55.5642 6.64157C56.6126 6.03639 57.5551 5.9118 58.212 6.28474L64.524 9.95901C64.5032 9.96759 64.4819 9.98136 64.4611 9.99016C64.2068 10.0977 63.9512 10.2209 63.695 10.3701C31.5255 28.9406 38.8079 24.7367 37.7082 25.3716C37.5342 25.2704 29.9555 20.8656 30.4384 21.1462L55.5642 6.64157ZM28.7238 22.1574C28.8977 22.2586 36.5808 26.7289 36.0933 26.4452C34.1349 28.0636 32.4808 30.8427 32.0404 33.4582C31.8664 33.3571 24.1839 28.893 24.6716 29.1764C24.8625 26.5921 26.5737 23.6279 28.7238 22.1574Z" fill="black"/>
<path d="M23.8975 67.1276C24.3772 67.1259 24.7646 66.736 24.7629 66.2571L24.7544 63.5084C24.7527 63.0295 24.3645 62.643 23.8865 62.643C23.4152 62.6668 23.0169 63.0338 23.0186 63.5135L23.027 66.2622C23.0287 66.7411 23.4169 67.1276 23.895 67.1276H23.8975Z" fill="black"/>
<path d="M63.7314 17.1041L57.8127 20.5063C57.65 20.6004 57.522 20.7436 57.4474 20.9166L55.9124 24.4874L45.494 30.4976L44.2802 29.122C44.0065 28.8109 43.5521 28.738 43.1953 28.944L37.269 32.3674C36.4079 32.8743 35.7832 33.9625 35.7832 34.9576C35.8044 39.6056 35.711 19.1623 35.9671 75.2008C36.2181 76.1764 37.2241 76.6407 38.2649 76.0484L64.7188 60.7733C65.5664 60.2851 66.2301 59.1468 66.2301 58.1805V58.178L66.108 18.4476C66.108 17.0803 64.8432 16.4198 63.7314 17.1041ZM63.8517 59.2688L37.6225 74.4049L37.5191 34.9551C37.5191 34.5847 37.8259 34.0541 38.1437 33.8668L43.4479 30.8028L44.6616 32.1784C44.9346 32.4886 45.3872 32.5606 45.7465 32.3564L57.0296 25.8469C57.1914 25.7537 57.3186 25.6096 57.3932 25.4376L58.9281 21.8675L64.373 18.7417L64.4942 58.1822C64.4934 58.5382 64.1696 59.0857 63.8517 59.2688Z" fill="black"/>
<path d="M46.4712 28.099C46.6187 28.099 46.7679 28.0617 46.9043 27.9828L53.9961 23.8882C54.4114 23.6483 54.5538 23.1177 54.3139 22.7024C54.0732 22.2862 53.5401 22.1447 53.1281 22.3846L46.0364 26.4792C45.6211 26.7191 45.4787 27.2497 45.7186 27.665C45.8796 27.9439 46.1712 28.099 46.4712 28.099Z" fill="black"/>
<path d="M54.8291 68.1905L48.4511 71.8732C47.3043 72.536 46.4414 74.0244 46.4448 75.3373C46.4502 76.9963 47.8717 77.8176 49.3292 76.9765L55.7072 73.2938C56.854 72.631 57.7168 71.1418 57.7134 69.8288C57.7082 68.1847 56.3036 67.3446 54.8291 68.1905ZM54.8393 71.7902L48.4612 75.4729C48.3265 75.5509 48.24 75.5704 48.2197 75.5865C48.2044 75.5509 48.1815 75.4737 48.1807 75.3322C48.179 74.6414 48.7104 73.7277 49.319 73.3768L55.697 69.6941C55.8327 69.6161 55.9191 69.5966 55.9386 69.5805C55.9539 69.6161 55.9767 69.6932 55.9776 69.8339C55.9793 70.5247 55.4479 71.4393 54.8393 71.7902Z" fill="black"/>
<path d="M53.2466 12.7035C54.5593 13.4608 56.5298 13.461 57.8346 12.7018C59.4283 11.7761 59.4336 9.97958 57.8194 9.04701C56.5319 8.30368 54.518 8.30368 53.2322 9.0487C51.6328 9.97845 51.6373 11.7745 53.2466 12.7035ZM54.1044 10.5498C54.86 10.111 56.1909 10.1112 56.9514 10.5506C57.2328 10.7134 57.2939 10.8541 57.2939 10.8803C57.2939 10.9058 57.2354 11.0422 56.9616 11.2016C56.2064 11.6415 54.8765 11.6398 54.1146 11.1999C53.8332 11.038 53.7721 10.8964 53.7721 10.8702C53.7721 10.8447 53.8315 10.7083 54.1044 10.5498Z" fill="black"/>
<path d="M27.7187 41.206H27.7212C28.2001 41.2043 28.5883 40.8153 28.5866 40.3355L28.5781 37.2588C28.5764 36.7808 28.1883 36.3934 27.7102 36.3934H27.7077C27.2288 36.3951 26.8406 36.7842 26.8423 37.2639L26.8508 40.3406C26.8525 40.8186 27.2407 41.206 27.7187 41.206Z" fill="black"/>
<path d="M26.8508 47.6146C26.8525 48.0926 27.2407 48.4799 27.7187 48.4799H27.7212C28.2001 48.4782 28.5883 48.0892 28.5866 47.6095L28.5781 44.5319C28.5764 44.0539 28.1883 43.6665 27.7102 43.6665H27.7077C27.2288 43.6682 26.8406 44.0573 26.8423 44.537L26.8508 47.6146Z" fill="black"/>
<path d="M60.7896 48.4545C60.7842 47.0144 60.8037 53.6714 60.7359 34.3703C60.7091 33.8387 60.1037 33.3225 59.4791 33.6565C58.7336 34.055 41.3571 44.1342 41.6063 43.9666C41.3774 44.1205 41.2223 44.3896 41.2231 44.6887C41.2286 46.1288 41.209 39.4718 41.277 58.773C41.3036 59.3121 41.9218 59.8374 42.5535 59.4838C43.3639 59.0303 60.608 49.0411 60.4065 49.1767C60.6384 49.0207 60.7905 48.7518 60.7896 48.4545ZM54.0811 45.1353L59.0224 37.3792L59.0504 47.1636C58.8411 47.0782 53.7619 45.005 54.0811 45.1353ZM57.2437 36.9395C57.133 37.1133 50.2325 47.9456 50.6728 47.2543L44.0583 44.5522L57.2437 36.9395ZM42.9904 55.7675L42.9624 45.9796C44.3289 46.5378 48.1559 48.1011 47.9376 48.012C47.7804 48.2585 42.6958 56.2292 42.9904 55.7675ZM49.571 48.6791L50.6873 49.1351C51.0921 49.2992 51.5593 49.0942 51.7476 48.7978L53.1331 46.6231C53.3401 46.7076 58.1946 48.6894 57.9536 48.591L44.7728 56.2014L49.571 48.6791Z" fill="black"/>
</svg>
