<svg width="93" height="92" viewBox="0 0 93 92" fill="none" xmlns="http://www.w3.org/2000/svg">
<path d="M42.1479 60.2582L67.444 45.6544C67.7135 45.4984 67.8788 45.2111 67.8779 44.9001L67.8347 29.8207C67.8338 29.5113 67.6677 29.2257 67.3999 29.0706C67.1312 28.9163 66.7998 28.9172 66.5328 29.0714L41.2367 43.6753C40.9672 43.8312 40.8019 44.1186 40.8027 44.4296L40.846 59.509C40.8478 60.1768 41.5725 60.5896 42.1479 60.2582ZM66.1031 31.3243L66.1404 44.4025L42.5776 58.0054L42.5403 44.9272L66.1031 31.3243Z" fill="black"/>
<path d="M66.5762 50.6221L41.2801 65.2259C40.8647 65.4658 40.7224 65.9964 40.9622 66.4117C41.2027 66.8281 41.7349 66.9682 42.148 66.7295L67.4441 52.1257C67.8594 51.8858 68.0018 51.3552 67.7619 50.9399C67.5212 50.5238 66.9881 50.3814 66.5762 50.6221Z" fill="black"/>
<path d="M66.5762 57.0934L41.2801 71.6972C40.8647 71.9371 40.7224 72.4677 40.9622 72.883C41.2027 73.2994 41.7349 73.4394 42.148 73.2008L67.4441 58.597C67.8594 58.3571 68.0018 57.8265 67.7619 57.4112C67.5212 56.9951 66.9881 56.8527 66.5762 57.0934Z" fill="black"/>
<path d="M19.5014 45.9104C19.9803 45.9087 20.3685 45.5196 20.3668 45.0399L20.3574 41.7301C20.3557 41.2521 19.9675 40.8647 19.4895 40.8647H19.487C19.0081 40.8664 18.6199 41.2554 18.6216 41.7352L18.6309 45.045C18.6326 45.523 19.0208 45.9104 19.4988 45.9104H19.5014Z" fill="black"/>
<path d="M18.613 38.7517C18.6147 39.2297 19.0029 39.6171 19.4809 39.6171H19.4835C19.9624 39.6154 20.3505 39.2263 20.3489 38.7466L20.3209 28.8312C20.4995 28.9348 35.1546 37.4435 34.2559 36.9218L34.3085 53.9407L34.3975 85.284L20.4573 77.1828L20.3768 48.6743C20.3751 48.1963 19.9869 47.809 19.5089 47.809H19.5064C19.0275 47.8106 18.6393 48.1997 18.641 48.6794L18.7232 77.6854C18.724 77.9939 18.8885 78.2787 19.1546 78.433L34.8332 87.5445C35.1054 87.7027 35.4369 87.6998 35.7037 87.5462C37.9432 86.2563 73.7893 65.5631 73.9873 65.4446C74.2568 65.2887 74.4221 65.0013 74.4212 64.6903L74.2831 14.3159C74.2822 14.0588 74.0201 13.6658 73.8517 13.5683L73.8496 13.5671L73.8483 13.5658L73.8465 13.5652L69.4942 11.034C69.2256 10.8764 68.8925 10.8781 68.6238 11.0323L62.9613 14.3024L62.9475 7.73779C62.9465 7.38487 62.6909 7.09165 62.5169 6.99023C61.5864 6.44679 57.9547 4.32598 58.1773 4.45595C57.9086 4.2983 57.5747 4.29915 57.306 4.45341C54.9164 5.83307 16.5833 27.9671 19.0148 26.5609C18.7449 26.717 18.5791 27.1455 18.5791 27.3195C18.5791 27.4977 18.612 38.9299 18.613 38.7517ZM61.215 9.24066L61.2278 15.294C60.822 15.5285 34.9808 30.4639 35.1582 30.3613L29.9096 27.3059L61.215 9.24066ZM50.0389 27.8231L50.1176 34.3298L47.7995 33.0322C47.4003 32.8101 46.8943 32.9347 46.6451 33.3212L44.0141 37.4198C44.0103 37.0471 43.9539 31.4746 43.9574 31.8193C43.954 31.5201 43.7981 31.2438 43.543 31.0878L40.546 29.2528L46.5402 25.7882L50.0389 27.8231ZM36.1419 85.2899L36.0394 52.2539L35.9958 36.9144L42.2367 33.3171C42.2409 33.732 42.3126 40.7961 42.308 40.345V40.3477C42.3173 41.1895 43.3732 41.4886 43.8584 40.8468C44.122 40.4967 46.6888 36.4655 47.6664 34.9511L50.5813 36.5836C50.8508 36.7353 51.1822 36.7302 51.4484 36.5717C51.7153 36.4132 51.8764 36.125 51.873 35.8148C51.8705 35.6153 51.7685 27.2975 51.7749 27.818L72.5515 15.8196L72.6837 64.1927L36.1419 85.2899ZM69.056 12.7877L71.6841 14.3157C65.7108 17.7652 57.2272 22.6644 50.9072 26.3142L48.2792 24.7858L69.056 12.7877ZM57.7374 6.20875L60.3503 7.73514L27.7449 26.5507C27.477 26.7058 27.3117 26.9915 27.3109 27.3008C27.3101 27.6102 27.4745 27.8967 27.7423 28.0527L34.7205 32.1151C34.8821 32.2097 35.0637 32.2286 35.2437 32.2097C35.3633 32.1972 35.4838 32.1785 35.5909 32.1168C35.8897 31.9441 39.0609 30.1111 38.8297 30.2448L41.3756 31.8099C41.1995 31.9114 34.801 35.5992 35.1239 35.4131C34.9454 35.3094 20.2871 26.7966 21.1857 27.3184L57.7374 6.20875Z" fill="black"/>
</svg>
