<svg width="93" height="92" viewBox="0 0 93 92" fill="none" xmlns="http://www.w3.org/2000/svg">
<path d="M51.7585 12.6975C51.5161 12.2822 50.9822 12.1449 50.5719 12.3839L26.6209 26.3055C26.3073 26.4351 26.0903 26.7454 26.0903 27.1081C26.0903 27.7773 26.8295 28.1924 27.4024 27.8582L51.4432 13.8841C51.8586 13.6434 51.9993 13.112 51.7585 12.6975Z" fill="black"/>
<path d="M57.9563 16.2743C57.7139 15.8582 57.1816 15.72 56.7697 15.9599L32.7102 29.934C32.2949 30.1747 32.1542 30.7053 32.3949 31.1197C32.6323 31.5296 33.1614 31.6779 33.5815 31.4342L57.641 17.4601C58.0563 17.2194 58.197 16.6888 57.9563 16.2743Z" fill="black"/>
<path d="M63.7347 21.0869C64.0484 20.9572 64.2653 20.647 64.2653 20.2843C64.2653 19.652 63.5025 19.2146 62.9533 19.5341C16.9103 46.3151 74.6022 12.7641 38.9124 33.5065C38.4988 33.7473 38.3564 34.2778 38.5971 34.6932C38.839 35.1093 39.3717 35.2475 39.7838 35.0085C64.6954 20.5311 63.7568 21.0741 63.7347 21.0869Z" fill="black"/>
<path d="M45.9983 38.6014L70.0392 24.6273C70.4545 24.3866 70.5952 23.8551 70.3544 23.4407C70.112 23.0253 69.5798 22.888 69.1678 23.127L45.2202 37.046C44.9049 37.1749 44.6846 37.4868 44.6846 37.8512C44.6846 38.5182 45.4238 38.9365 45.9983 38.6014Z" fill="black"/>
<path d="M87.6605 37.3435L81.9471 34.0187C81.95 32.4604 81.9631 25.2238 81.9631 25.4909C81.9631 25.2901 81.8511 24.9265 81.5291 24.74L48.6005 5.7321C48.331 5.57614 47.9971 5.57614 47.7309 5.73379C47.5003 5.86783 14.1542 25.2494 15.0278 24.7417C14.8053 24.8707 14.5973 25.1536 14.5955 25.4892L14.5644 35.9156L13.2258 35.1381C12.9563 34.9839 12.6291 34.983 12.3562 35.1373L5.27381 39.2167C4.9645 39.3948 4.83984 39.7655 4.83984 39.9668L4.84027 39.9685C4.84027 40.2072 4.88858 62.633 4.8907 62.8659C4.8907 63.1745 5.05682 63.4592 5.32297 63.6152L44.3287 86.2677C44.6001 86.4237 44.921 86.419 45.1763 86.2813L87.7046 63.4033C87.986 63.2507 88.1623 62.9558 88.1606 62.6371L88.0911 38.0911C88.0896 37.8293 87.8294 37.4426 87.6605 37.3435ZM53.9573 63.6898L52.6682 58.4607C55.6704 56.7189 42.1642 64.555 80.1728 42.503L80.1594 48.4943C33.745 75.4421 83.1859 46.7398 53.9573 63.6898ZM16.3263 26.9929C16.4999 27.0931 49.2935 46.0223 47.5224 45C47.522 45.1782 47.5097 50.7122 47.5104 50.3675C44.3182 48.5125 59.0668 57.083 16.311 32.2374L16.3263 26.9929ZM49.2163 58.4505C49.217 58.2722 49.2351 53.844 49.2413 52.3085C50.1509 51.7804 77.3731 35.9766 79.6195 34.6725L80.1159 34.9613L80.2077 35.0149C80.2068 35.1932 80.1788 40.8098 80.1804 40.4829C80.8732 40.0808 66.9602 48.1538 49.2163 58.4505ZM80.2148 32.3192C45.835 52.2774 49.6523 50.0613 49.2465 50.2969L49.2588 44.9986C60.8467 38.2639 68.6005 33.7576 80.2238 27.0023L80.2148 32.3192ZM81.9181 40.1469C81.919 39.9721 81.9407 35.7559 81.9393 36.023L85.4907 38.0894L81.9181 40.1469ZM48.1683 7.48659L79.3627 25.4935L48.3914 43.4955C7.25856 19.7546 20.5076 27.4016 17.1942 25.4892L48.1683 7.48659ZM16.2975 36.9189L16.3052 34.2411C59.0612 59.0866 44.3146 50.5174 47.5047 52.3712L47.4931 55.0408C4.74247 30.2064 19.4919 38.7746 16.2975 36.9189ZM12.7885 36.8918C14.8939 38.1147 5.24844 32.5124 47.4843 57.0438C47.4834 57.2421 47.4708 60.1438 47.4716 59.9655L44.6966 61.6353L7.44023 39.9719L12.7885 36.8918ZM6.62485 62.3642L6.57908 41.4789C52.3489 68.0939 40.4648 61.1834 43.8284 63.1393C43.8349 65.2868 43.8051 55.3869 43.8914 84.008L6.62485 62.3642ZM45.6289 84.0674L45.5662 63.1377C50.1819 60.4767 51.3327 59.8101 51.228 59.8706L52.5486 65.2256C52.613 65.4901 52.7995 65.7087 53.0503 65.8155C53.3012 65.9223 53.5877 65.9037 53.825 65.7698C56.6508 64.1313 43.5884 71.7053 81.4613 49.7454C81.7291 49.5894 81.8936 49.3046 81.8936 48.9961L81.9088 42.1553C82.0828 42.055 86.597 39.4549 86.3586 39.5922L86.4231 62.1218L45.6289 84.0674Z" fill="black"/>
</svg>
