<svg width="93" height="92" viewBox="0 0 93 92" fill="none" xmlns="http://www.w3.org/2000/svg">
<path d="M67.987 9.51664C64.1017 7.27224 59.2738 5.6754 54.0273 4.89562C53.5645 4.82273 53.1119 5.15329 53.0424 5.62624C52.9712 6.09919 53.2984 6.54163 53.773 6.61113C58.806 7.36039 63.4202 8.88434 67.1191 11.0186C72.5063 14.1292 75.4779 18.2094 75.483 22.505C75.491 27.4209 71.6008 31.3797 67.2547 33.905C55.9208 40.4924 37.4232 40.489 26.0181 33.905C21.6203 31.366 17.6621 27.3943 17.6659 22.4009C17.6697 18.1378 20.5847 14.0957 25.8825 11.0186C31.1578 7.952 38.1911 6.1992 45.6888 6.08393C46.1685 6.07715 46.5499 5.68218 46.5432 5.20245C46.5364 4.72271 46.099 4.36504 45.6617 4.34808C37.8724 4.46844 30.5374 6.3043 25.0112 9.51664C19.1836 12.9029 15.9684 17.4522 15.9358 22.3322C15.8805 25.9081 15.7752 32.7205 15.781 32.3454C15.7722 35.2235 16.9015 37.9799 18.9873 40.4664C18.9552 50.1034 18.9172 61.5523 18.8848 71.2681C18.8662 75.7433 21.8192 79.9202 27.1996 83.0275C37.8489 89.1848 55.1676 89.2024 65.7901 83.0258C71.0502 79.9609 73.9608 75.8434 73.9811 71.4308C74.0353 54.954 74.0305 56.4196 74.0836 40.2859C76.0094 37.8965 77.0621 35.2674 77.0697 32.5302C77.165 26.211 77.2186 22.3251 77.2189 22.5033C77.2121 17.5619 73.9336 12.9494 67.987 9.51664ZM24.9942 45.3779C26.0451 45.9835 27.1708 46.5161 28.3268 47.0145C40.5992 52.319 57.4696 51.482 67.9768 45.3779C69.3624 44.5725 70.8191 43.5487 72.1132 42.379C72.1845 42.3144 72.272 42.2561 72.3419 42.1909L72.3253 47.1864C72.3228 47.2129 72.3098 47.2358 72.3096 47.2629C72.2978 51.038 69.6957 54.625 64.9815 57.3644C54.8545 63.2517 38.3233 63.25 28.1286 57.3644C23.3591 54.6097 20.7284 51.0067 20.7024 47.2098L20.719 42.3011C20.773 42.3504 20.84 42.3943 20.8949 42.4432C21.8391 43.2808 23.9211 44.7605 24.9942 45.3779ZM72.2795 61.0638C72.1166 64.7133 69.5534 68.169 64.9815 70.8274C54.8545 76.7147 38.3233 76.7096 28.1286 70.8274C23.3211 68.0507 20.6783 64.4129 20.6902 60.5784L20.6953 52.9129C22.0921 55.1369 24.3111 57.1643 27.2606 58.8663C37.9351 65.0316 55.2495 65.0299 65.8528 58.8663C68.7443 57.186 70.9246 55.1874 72.3062 52.9973L72.2795 61.0638ZM72.2452 71.4241C72.2266 75.1958 69.6245 78.7845 64.917 81.5256C54.7867 87.4146 38.2555 87.4146 28.0675 81.5256C23.2499 78.7421 20.6037 75.1026 20.6207 71.2749L20.6378 66.2299C22.0313 68.5083 24.2494 70.5917 27.2606 72.3293C37.9435 78.4987 55.2582 78.4835 65.8528 72.3293C68.7332 70.6543 70.8789 68.6572 72.2616 66.4758L72.2452 71.4241ZM75.3898 28.7347L75.3338 32.5149C75.32 37.4432 71.3512 41.4142 67.1055 43.8742C55.665 50.5144 37.1035 50.3614 25.8689 43.8759C21.5296 41.3706 17.5011 37.3733 17.5168 32.3624L17.5762 28.3364C18.8897 30.6116 21.4644 33.28 25.1502 35.4069C37.0602 42.2859 56.3356 42.2565 68.126 35.4069C71.5814 33.3988 74.0831 30.8644 75.3898 28.7347Z" fill="black"/>
<path d="M50.6997 6.25515C50.7252 6.25684 50.7489 6.25854 50.7743 6.25854C51.2202 6.25854 51.5999 5.91611 51.6372 5.4635C51.6778 4.98547 51.3236 4.56507 50.8455 4.52608C50.2505 4.47522 49.6521 4.43623 49.0537 4.40742C48.5215 4.343 48.1672 4.75323 48.1451 5.23127C48.1214 5.7093 48.4909 6.11784 48.969 6.13987C49.547 6.16869 50.1251 6.20768 50.6997 6.25515Z" fill="black"/>
</svg>
