<svg width="93" height="92" viewBox="0 0 93 92" fill="none" xmlns="http://www.w3.org/2000/svg">
<path d="M44.2244 58.1707L50.7651 54.3685C51.0313 54.2142 51.1957 53.9294 51.1966 53.6218L51.2169 48.3608C51.2178 48.0498 51.0525 47.7616 50.7829 47.6056C50.5134 47.4505 50.1803 47.4497 49.9125 47.6073L43.3708 51.4096C43.1047 51.5638 42.9403 51.8486 42.9394 52.1563L42.9199 57.4172C42.9191 57.7283 43.0844 58.0165 43.3539 58.1724C43.6235 58.3278 43.9566 58.3273 44.2244 58.1707ZM44.6736 52.6598L49.4751 49.8695L49.4624 53.1175L44.6617 55.9086L44.6736 52.6598Z" fill="black"/>
<path d="M54.0769 52.4453L60.6185 48.6431C60.8847 48.4888 61.0491 48.204 61.05 47.8964L61.0703 42.6354C61.0711 42.3244 60.9059 42.0362 60.6363 41.8802C60.3668 41.7251 60.0346 41.7243 59.7667 41.8819L53.2242 45.6833C52.9572 45.8376 52.7928 46.1224 52.792 46.4301L52.7725 51.6918C52.7716 52.0029 52.9369 52.2911 53.2064 52.447C53.4761 52.6024 53.8092 52.6019 54.0769 52.4453ZM54.5261 46.9344L59.3285 44.1433L59.3158 47.3921L54.5142 50.184L54.5261 46.9344Z" fill="black"/>
<path d="M63.9299 46.719L70.4707 42.9176C70.7369 42.7634 70.9013 42.4786 70.9021 42.1709L70.9225 36.91C70.9233 36.5989 70.758 36.3107 70.4885 36.1548C70.219 35.9988 69.8867 35.9988 69.6189 36.1565L63.0773 39.9579C62.8103 40.1121 62.6458 40.3969 62.645 40.7046L62.6255 45.9655C62.6246 46.2766 62.7899 46.5648 63.0595 46.7207C63.3291 46.8761 63.6622 46.8756 63.9299 46.719ZM64.3791 41.2089L69.1807 38.4178L69.168 41.6666L64.3673 44.4577L64.3791 41.2089Z" fill="black"/>
<path d="M73.7825 40.9936L80.3241 37.1914C80.5902 37.0371 80.7547 36.7523 80.7555 36.4447L80.7759 31.1837C80.7767 30.8727 80.6114 30.5845 80.3419 30.4285C80.0724 30.2726 79.741 30.2726 79.4714 30.4302L72.9289 34.2325C72.6628 34.3867 72.4984 34.6715 72.4975 34.9792L72.478 40.2401C72.4772 40.5512 72.6425 40.8394 72.912 40.9953C73.1817 41.1506 73.5147 41.1502 73.7825 40.9936ZM74.2317 35.4835L79.0341 32.6916L79.0214 35.9404L74.2198 38.7323L74.2317 35.4835Z" fill="black"/>
<path d="M44.2244 68.7723L50.7651 64.9709C51.0313 64.8167 51.1957 64.5319 51.1966 64.2242L51.2169 58.9633C51.2178 58.6522 51.0525 58.364 50.7829 58.2081C50.5134 58.053 50.1812 58.0513 49.9133 58.2098L43.3708 62.0112C43.1047 62.1654 42.9403 62.4502 42.9394 62.7579L42.9199 68.0188C42.9191 68.3299 43.0844 68.6181 43.3539 68.774C43.6203 68.9275 43.9517 68.9308 44.2244 68.7723ZM44.6736 63.2622L49.4751 60.4711L49.4624 63.7199L44.6617 66.511L44.6736 63.2622Z" fill="black"/>
<path d="M54.076 63.0469L60.6185 59.2455C60.8847 59.0912 61.0491 58.8064 61.05 58.4987L61.0703 53.2369C61.0711 52.9259 60.9059 52.6377 60.6363 52.4817C60.3668 52.3266 60.0354 52.3249 59.7659 52.4834L53.2234 56.2857C52.9572 56.44 52.7928 56.7247 52.792 57.0324L52.7725 62.2934C52.7716 62.6044 52.9369 62.8926 53.2064 63.0486C53.4734 63.2023 53.8056 63.205 54.076 63.0469ZM54.5261 57.5367L59.3285 54.7456L59.3158 57.9944L54.5142 60.7855L54.5261 57.5367Z" fill="black"/>
<path d="M63.9299 57.3215L70.4707 53.5192C70.7369 53.3649 70.9013 53.0802 70.9021 52.7725L70.9225 47.5115C70.9233 47.2005 70.758 46.9123 70.4885 46.7563C70.219 46.6012 69.8859 46.5995 69.618 46.758L63.0764 50.5603C62.8103 50.7146 62.6458 50.9993 62.645 51.307L62.6255 56.568C62.6246 56.879 62.7899 57.1672 63.0595 57.3232C63.3291 57.4785 63.6622 57.4781 63.9299 57.3215ZM64.3791 51.8105L69.1807 49.0202L69.168 52.2682L64.3673 55.0593L64.3791 51.8105Z" fill="black"/>
<path d="M73.7816 51.5952L80.3241 47.7938C80.5902 47.6395 80.7547 47.3548 80.7555 47.0471L80.7759 41.7861C80.7767 41.4751 80.6114 41.1869 80.3419 41.0309C80.0724 40.8758 79.7401 40.8741 79.4723 41.0326L72.9298 44.834C72.6628 44.9883 72.4984 45.2731 72.4975 45.5808L72.478 50.8417C72.4772 51.1528 72.6425 51.4409 72.912 51.5969C73.179 51.7507 73.5112 51.7534 73.7816 51.5952ZM74.2317 46.0851L79.0341 43.294L79.0214 46.5428L74.2198 49.3339L74.2317 46.0851Z" fill="black"/>
<path d="M38.2907 87.5446C38.5595 87.6994 38.8901 87.6991 39.1569 87.5454C39.1577 87.545 39.1579 87.5439 39.1588 87.5435C39.1595 87.5431 39.1604 87.5433 39.1611 87.5429L51.3328 80.4693L63.0324 87.2242C63.2995 87.378 63.6317 87.3806 63.9021 87.2225L84.1093 75.4801C84.3763 75.325 84.5415 75.0385 84.5407 74.7291C84.5398 74.4189 84.3746 74.1333 84.1067 73.9782L73.2691 67.721L85.2628 60.7508C85.529 60.5965 85.6934 60.3117 85.6943 60.0041C85.7047 57.3151 85.8387 22.692 85.8392 22.9291C85.8387 22.7112 85.7236 22.3626 85.4052 22.1782L54.7092 4.45605C54.4396 4.30009 54.1074 4.30009 53.8396 4.45775L45.6629 9.20929C45.2485 9.45001 45.1069 9.98144 45.3485 10.3959C45.59 10.8095 46.1189 10.9485 46.5351 10.7095L54.2769 6.21055L83.2397 22.9325C73.3965 28.6526 45.2924 44.9845 38.8675 48.7182L9.90438 31.9965L38.7314 15.2441C39.145 15.0034 39.2866 14.4719 39.045 14.0575C38.8034 13.643 38.2703 13.5031 37.8584 13.7439L7.74061 31.2463L7.73616 31.249C7.61809 31.3177 7.30552 31.7115 7.30474 31.9957L7.16065 69.0673C7.1598 69.3783 7.32508 69.6665 7.59461 69.8225L38.2907 87.5446ZM9.03465 33.4993C21.4155 40.6472 33.8115 47.8038 37.9989 50.2214L37.8625 85.2924L8.89819 68.5706L9.03465 33.4993ZM66.9929 71.3757L72.9525 74.8164L64.2521 79.8731L58.2925 76.4316L66.9929 71.3757ZM66.2389 69.7787L57.4105 74.9089L57.446 65.7905L66.2753 60.6592L66.2389 69.7787ZM63.4647 85.4697L53.0691 79.4671L56.5622 77.4371L63.8198 81.6276C64.0895 81.7829 64.4226 81.7825 64.6903 81.6259L75.1207 75.564C75.3876 75.4089 75.5529 75.1224 75.5521 74.813C75.5512 74.5028 75.386 74.2172 75.1181 74.0621L68.7228 70.3703L71.5456 68.7299L81.9412 74.7325L63.4647 85.4697ZM83.9601 59.4998L67.9789 68.7876L68.0171 59.1514C68.0179 58.8403 67.8526 58.5522 67.584 58.3962C67.3127 58.2402 66.9813 58.2402 66.7135 58.3979L56.1441 64.5395C55.8771 64.6937 55.7127 64.9785 55.7119 65.2862L55.6705 75.9408L39.5985 85.2815L39.7349 50.2221L84.0974 24.4412L83.9601 59.4998Z" fill="black"/>
<path d="M42.9746 10.7714L40.7446 12.0673C40.3309 12.308 40.1894 12.8395 40.431 13.2539C40.6714 13.6678 41.2021 13.8087 41.6176 13.5676L43.8476 12.2716C44.2612 12.0309 44.4027 11.4995 44.1612 11.085C43.9188 10.6688 43.3882 10.529 42.9746 10.7714Z" fill="black"/>
<path d="M17.4429 31.9838C17.4437 32.2932 17.609 32.5797 17.8768 32.7339L38.4282 44.6001C38.6978 44.7554 39.0309 44.755 39.2986 44.5984L75.27 23.6928C75.5379 23.5368 75.7023 23.2503 75.7023 22.941C75.7023 22.6307 75.5362 22.3451 75.2683 22.19L54.7179 10.3238C54.4483 10.1687 54.1169 10.167 53.8474 10.3255L17.8743 31.232C17.6073 31.3871 17.442 31.6736 17.4429 31.9838ZM24.5617 34.5859L54.2856 17.3088L68.5835 25.5685L38.8604 42.8456L24.5617 34.5859ZM54.2856 12.0783L73.1019 22.9435L70.3145 24.5637L54.7179 15.5543C54.4483 15.3992 54.1152 15.3983 53.8474 15.556L22.8268 33.587L20.0433 31.9796L54.2856 12.0783Z" fill="black"/>
<path d="M24.6783 53.309L31.2191 57.1104C31.4914 57.2687 31.8228 57.2658 32.0896 57.1121C32.3591 56.9562 32.5244 56.668 32.5235 56.3569L32.5041 51.096C32.5032 50.7883 32.3388 50.5035 32.0726 50.3493L25.5301 46.5479C25.2615 46.3902 24.9292 46.3919 24.6605 46.5462C24.391 46.7021 24.2257 46.9903 24.2266 47.3014L24.2469 52.5623C24.2478 52.87 24.4122 53.1548 24.6783 53.309ZM30.7699 51.6003L30.7818 54.8491L25.9811 52.058L25.9683 48.8092L30.7699 51.6003Z" fill="black"/>
<path d="M22.2205 44.6238L15.678 40.8215C15.4076 40.6639 15.0762 40.6656 14.8075 40.8199C14.538 40.9758 14.3727 41.264 14.3735 41.5751L14.3939 46.8368C14.3947 47.1445 14.5592 47.4293 14.8253 47.5836L21.3678 51.385C21.5026 51.4638 21.6526 51.5028 21.8034 51.5028C22.2864 51.5028 22.6727 51.1097 22.6714 50.6315L22.6519 45.3705C22.651 45.0629 22.4866 44.7781 22.2205 44.6238ZM16.128 46.3325L16.1153 43.0829L20.9177 45.8748L20.9296 49.1236L16.128 46.3325Z" fill="black"/>
<path d="M32.0726 60.9517L25.531 57.1494C25.2623 56.9926 24.9292 56.9926 24.6605 57.1477C24.391 57.3037 24.2257 57.5919 24.2266 57.9029L24.2469 63.1639C24.2478 63.4715 24.4122 63.7563 24.6783 63.9106L31.2191 67.7129C31.4867 67.8693 31.8197 67.87 32.0896 67.7145C32.3591 67.5586 32.5244 67.2704 32.5235 66.9594L32.5041 61.6984C32.5032 61.3907 32.3388 61.1059 32.0726 60.9517ZM25.9811 62.6596L25.9683 59.4116L30.7699 62.2019L30.7818 65.4507L25.9811 62.6596Z" fill="black"/>
<path d="M22.2196 55.2254L15.6771 51.424C15.4084 51.2672 15.0762 51.2672 14.8075 51.4223C14.538 51.5782 14.3727 51.8664 14.3735 52.1775L14.3939 57.4384C14.3947 57.7461 14.5592 58.0309 14.8253 58.1851L21.3669 61.9874C21.5017 62.0662 21.6526 62.1052 21.8034 62.1052C22.2864 62.1052 22.6727 61.7121 22.6714 61.2339L22.6519 55.9721C22.651 55.6644 22.4866 55.3796 22.2196 55.2254ZM16.128 56.9341L16.1153 53.6853L20.9177 56.4764L20.9296 59.726L16.128 56.9341Z" fill="black"/>
<path d="M32.0726 71.2083L25.5301 67.4069C25.2615 67.2501 24.9292 67.2501 24.6605 67.4052C24.391 67.5611 24.2257 67.8493 24.2266 68.1604L24.2469 73.4213C24.2478 73.729 24.4122 74.0138 24.6783 74.168L31.2191 77.9703C31.4867 78.1268 31.8197 78.1274 32.0896 77.972C32.3591 77.816 32.5244 77.5279 32.5235 77.2168L32.5041 71.955C32.5032 71.6473 32.3388 71.3625 32.0726 71.2083ZM25.9811 72.917L25.9683 69.6682L30.7699 72.4593L30.7818 75.7081L25.9811 72.917Z" fill="black"/>
<path d="M22.2196 65.4828L15.6771 61.6814C15.4084 61.5246 15.0762 61.5246 14.8075 61.6797C14.538 61.8357 14.3727 62.1239 14.3735 62.4349L14.3939 67.6959C14.3947 68.0035 14.5592 68.2883 14.8253 68.4426L21.3678 72.244C21.5026 72.3228 21.6526 72.3618 21.8034 72.3618C22.2864 72.3618 22.6727 71.9687 22.6714 71.4905L22.6519 66.2295C22.651 65.9219 22.4866 65.6371 22.2196 65.4828ZM16.128 67.1915L16.1153 63.9428L20.9177 66.7339L20.9296 69.9826L16.128 67.1915Z" fill="black"/>
</svg>
