<svg width="93" height="92" viewBox="0 0 93 92" fill="none" xmlns="http://www.w3.org/2000/svg">
<path d="M17.0332 73.0599C14.1467 76.5546 14.2979 81.7525 17.5662 85.0391C21.4967 88.9697 28.205 88.4343 31.3483 83.6288C33.2255 84.5102 35.1214 85.236 37.0114 85.7366C42.5046 87.1911 48.6164 87.0652 52.6595 83.0439C54.0374 81.6676 58.1463 77.6111 58.3322 77.3711C60.6553 75.0098 62.1701 71.4347 61.8017 66.3152L66.7022 61.4144C71.5148 56.601 74.1762 50.1823 74.1949 43.3406V43.3346C74.1774 38.9992 73.0757 34.7637 71.0262 31.0172C76.618 27.4687 83.1426 22.2359 84.8269 20.5508C88.5651 16.7912 88.7226 10.0155 83.8698 6.31816C80.4643 3.71153 75.6744 3.65506 72.2336 6.37749C71.754 6.75549 71.7914 7.52968 72.3784 7.82749C72.6711 7.97667 73.035 7.95696 73.31 7.73956C76.1087 5.53002 80.0084 5.56773 82.7971 7.67387C86.7246 10.6561 86.6714 16.2432 83.5945 19.3201C80.5861 22.3286 70.087 30.164 65.0783 32.3364C62.7406 33.3531 60.5477 31.5433 59.6147 29.5775C59.0367 28.3782 59.2791 27.6713 59.5554 27.0085C59.7513 26.6937 60.0873 25.5657 61.953 22.5688C61.9659 22.5478 61.9799 22.5258 61.993 22.5047C63.5525 19.9651 65.7407 16.8912 67.5854 14.4643C67.8753 14.082 67.8007 13.5379 67.4193 13.248L67.4165 13.2467L67.4125 13.2421C67.0294 12.953 66.4852 13.0251 66.1954 13.4073C64.4743 15.6735 62.4432 18.5325 60.9123 20.9457C51.6777 15.8782 39.7348 16.331 29.9951 25.782C29.7341 26.043 25.4926 30.2844 25.6667 30.1102C20.6414 29.744 17.0041 31.267 14.6879 33.547C14.6721 33.5606 14.652 33.5656 14.6369 33.5807L9.02593 39.1611C5.47456 42.6905 4.51001 48.3286 6.30519 55.0347C7.99379 61.332 11.9473 67.6989 17.0332 73.0599ZM29.7951 82.8693C27.2851 86.4796 21.9727 86.99 18.7952 83.8135C16.2117 81.2156 16.0134 77.1193 18.2002 74.3061C21.4819 77.5485 25.629 80.6839 29.7814 82.8614C29.786 82.8638 29.7905 82.8669 29.7951 82.8693ZM23.8496 31.7911C23.8987 31.7899 23.9449 31.7837 23.9942 31.7829C21.8352 34.968 14.1027 37.5613 17.2729 49.4313C20.2564 60.4668 31.6225 71.8219 42.6072 74.7452C47.1632 75.9511 52.3855 75.7754 55.6803 72.4372L60.13 67.9884C60.0995 70.2834 59.6062 72.3247 58.6911 74.0153C56.1102 78.7253 50.7564 79.8491 45.4355 78.9798C41.3077 78.3125 37.212 76.5091 33.6245 74.2965C24.3125 68.5476 16.193 58.6708 13.6012 48.9973C12.703 45.6496 12.3702 41.7871 13.5853 38.4653C15.2159 34.0373 19.1139 31.8845 23.8496 31.7911ZM54.4496 71.2142C51.9899 73.7018 47.9435 74.3621 43.053 73.067C32.6023 70.2861 21.7888 59.4802 18.9494 48.9812C17.634 44.0576 18.2714 39.9774 20.7378 37.4939L21.6505 36.5813C21.1502 38.9296 21.2665 41.6523 22.0668 44.6416C25.03 55.6746 36.3893 67.0339 47.3892 69.964C50.8991 70.8905 53.277 70.7804 55.3203 70.3434L54.4496 71.2142ZM59.2232 66.4296C56.7787 68.9206 52.7324 69.5783 47.835 68.2866C37.3708 65.4989 26.5641 54.6897 23.7434 44.1915C22.4279 39.2739 23.0602 35.1961 25.5199 32.7127L27.2557 30.9769C26.7675 33.3154 26.9082 36.0353 27.7033 39.0052C30.6681 50.0382 42.0274 61.3966 53.0256 64.3267C55.9396 65.0963 58.6027 65.2294 60.898 64.7564L59.2232 66.4296ZM60.0199 22.4019C59.3514 23.5223 58.4411 25.166 57.9959 26.2296C57.5619 27.2636 57.1703 28.5197 58.0433 30.3387C59.3627 33.0858 62.3932 35.4063 65.7699 33.9299C66.8893 33.4515 68.3424 32.6507 69.3956 32.0223C69.4542 31.9873 69.5027 31.9635 69.562 31.9279C71.4436 35.3987 72.4421 39.3239 72.459 43.3363C72.4421 49.7161 69.962 55.7009 65.4749 60.1871L64.8908 60.7713C64.8839 60.7777 64.8747 60.7797 64.8681 60.7864L64.7596 60.8948C62.305 63.3003 58.3027 63.9233 53.4715 62.6493C43.0089 59.8616 32.2022 49.0533 29.3798 38.5551C28.0643 33.6366 28.6966 29.5589 31.1597 27.0729L31.1629 27.068L31.2123 27.0187C40.4734 18.0356 51.6436 17.8422 60.0199 22.4019ZM10.2498 40.3918L11.5331 39.1162C10.8988 41.5612 10.8296 45.0486 11.8178 48.9858C11.8575 49.1445 11.8751 49.2942 11.9179 49.4542C14.5753 59.3685 22.8147 69.4779 32.3246 75.5016C36.2257 77.9746 40.5154 79.905 44.9985 80.6661C48.0428 81.1866 50.7952 81.0215 52.7222 80.5333L51.4356 81.8132C48.3876 84.8416 43.4174 85.64 37.4555 84.0584C35.4123 83.5173 33.3618 82.702 31.3386 81.7015C20.9389 76.6129 10.9219 65.5512 7.98341 54.5854C6.35435 48.5057 7.15956 43.4643 10.2498 40.3918Z" fill="black"/>
<path d="M69.7928 11.6393C70.281 11.0367 70.7336 10.4874 71.1404 10.0069C71.4506 9.64155 71.4049 9.09401 71.0387 8.78379C70.6759 8.47697 70.1267 8.51935 69.8148 8.88635C69.4012 9.37541 68.9384 9.93481 68.4434 10.5493C68.1417 10.9214 68.1993 11.4681 68.5722 11.7698C68.9441 12.0692 69.491 12.0143 69.7928 11.6393Z" fill="black"/>
</svg>
