<svg width="93" height="92" viewBox="0 0 93 92" fill="none" xmlns="http://www.w3.org/2000/svg">
<path d="M50.047 75.0864C51.5627 75.962 53.9423 75.9637 55.4529 75.0831C57.2748 74.0255 57.2781 72.0196 55.436 70.9553C53.9154 70.0772 51.5396 70.0772 50.0292 70.9553C48.2079 72.0147 48.2121 74.0277 50.047 75.0864ZM50.9014 72.4555C51.8775 71.8899 53.5907 71.8944 54.568 72.4589C55.2283 72.8392 55.2551 73.1909 54.5807 73.5828C53.6086 74.149 51.8956 74.149 50.9149 73.5828C50.2877 73.2214 50.1991 72.8667 50.9014 72.4555Z" fill="black"/>
<path d="M80.3195 29.8789C80.745 29.6577 80.9102 29.1339 80.6899 28.7084C80.2593 27.8795 79.7719 27.0667 79.2405 26.2937C78.9701 25.8979 78.4302 25.7978 78.0336 26.0699C77.6386 26.3411 77.5386 26.8819 77.8098 27.2769C78.3005 27.9914 78.7515 28.7423 79.149 29.5086C79.3686 29.9321 79.8919 30.0998 80.3195 29.8789Z" fill="black"/>
<path d="M67.6818 9.29115C63.6372 6.95606 57.3235 6.95521 53.3077 9.28861C52.4011 9.81549 51.6851 10.4326 51.1537 11.1068L40.5338 4.98204C40.4812 4.95238 40.4261 4.9278 40.3693 4.90915L40.1346 4.82863C38.4177 4.2225 37.9236 4.07767 25.3479 11.0739C25.0332 10.8269 24.7004 10.5883 24.3187 10.3616C22.5345 9.34031 20.8292 9.20724 19.5298 9.98278C10.87 15.0231 11.9627 14.3162 11.6917 14.5579C10.4737 15.3472 9.78665 16.8113 9.78177 18.7409C9.77075 22.5829 12.3805 27.1048 15.7233 29.0356C16.5144 29.4921 17.2918 29.7654 18.0296 29.8656C33.1376 69.2775 27.9269 55.6843 29.0541 58.6249C28.3194 58.9554 27.6965 59.2681 27.1487 59.5935C22.9346 62.0413 20.6164 65.3536 20.6215 68.9211C20.6215 68.9366 20.6252 68.9515 20.6253 68.967L20.6012 74.377C20.5901 77.9742 22.9405 81.3153 27.2191 83.7852C31.435 86.2194 36.9612 87.4357 42.4849 87.4357C48.0162 87.4357 53.545 86.2143 57.7448 83.7733C61.9471 81.3314 64.2669 78.0394 64.2762 74.5042L64.3008 69.0211C64.3008 69.0161 64.3008 69.0101 64.3008 69.005V69.0008C64.3008 68.9907 64.2955 68.9807 64.2952 68.9706C64.2952 68.9683 64.2957 68.9658 64.2957 68.9635C64.2932 65.3901 61.9395 62.0616 57.6676 59.5926C51.9203 56.2659 43.5954 55.0902 35.9441 56.5099L24.6351 27.0195L28.1955 24.946C29.5254 24.2111 30.2577 22.6838 30.2577 20.6454C30.2577 19.5368 30.0155 18.3183 29.5773 17.0844C33.595 14.8861 36.864 13.1467 38.5699 12.2458L50.0957 18.9054L50.0954 19.0141C42.5413 22.907 37.8436 30.5193 37.8088 39.132C37.8088 42.8012 40.2549 46.2491 44.7005 48.841C49.1037 51.3813 54.8638 52.6509 60.613 52.6509C66.3621 52.6501 72.1003 51.3804 76.4501 48.8402C80.8143 46.3076 83.218 42.9029 83.218 39.132C83.218 36.7961 82.8603 34.472 82.1543 32.2233C82.0111 31.7665 81.5237 31.5088 81.066 31.6555C80.6092 31.7987 80.3549 32.2861 80.4981 32.7438C81.1508 34.8229 81.4822 36.9724 81.4822 39.2532C81.4822 42.2579 79.3853 45.1295 75.5771 47.34C67.3538 52.1398 53.8934 52.139 45.5718 47.3391C41.6848 45.0735 39.5446 42.1587 39.5446 39.0311C39.5751 31.4732 43.5876 24.6722 50.1072 20.9666C50.1102 21.0115 50.1221 21.0555 50.1266 21.1003C50.3161 22.9674 51.7056 24.4139 53.3433 25.3596C57.1197 27.5395 63.0615 27.761 67.2745 25.5651C69.1489 24.5902 70.7208 23.1678 70.8984 21.063C70.9016 21.0251 70.92 20.9895 70.9221 20.9513C72.6978 21.9634 74.3116 23.2254 75.7339 24.7163C76.0644 25.0638 76.6154 25.0757 76.9612 24.7451C77.3078 24.4146 77.3205 23.8645 76.99 23.5178C75.2288 21.6721 73.1857 20.1649 70.9295 19.0017L70.9382 13.9825C70.9382 13.9798 70.9367 13.9757 70.9367 13.973C70.9367 13.9699 70.9374 13.9669 70.9374 13.9639C70.9349 12.1611 69.7788 10.5015 67.6818 9.29115ZM69.1965 17.5458L69.1905 20.72C69.1873 22.1586 67.8683 23.2879 66.5665 23.9853C63.0669 25.8533 57.6103 25.8173 54.2104 23.8501C52.6864 22.9745 51.8202 21.8167 51.8346 20.6623C51.8347 19.9755 51.8349 17.336 51.8346 17.5143C52.2744 17.9204 52.8402 18.3203 53.3543 18.6171C57.3956 20.9513 63.7101 20.948 67.7276 18.6103C68.28 18.2897 68.8138 17.8959 69.1965 17.5458ZM54.1798 10.7888C55.9131 9.7819 58.1948 9.27844 60.4799 9.27844C62.7701 9.27844 65.0637 9.78444 66.8139 10.7948C68.3523 11.683 69.1999 12.8086 69.2015 13.9664C69.2034 15.3156 68.0264 16.4293 66.8554 17.1101C63.3829 19.1273 57.7151 19.1307 54.2222 17.1135C50.9076 15.2005 51.2448 12.4951 54.1798 10.7888ZM11.5176 18.7459C11.525 15.7661 13.4288 14.994 15.7623 16.3447C17.9277 17.5994 19.6967 20.1585 20.4398 22.6192C20.7591 23.6781 20.9233 25.0964 20.7543 26.0623C20.3993 28.0855 18.7875 28.8022 16.5913 27.532C13.7841 25.9114 11.5083 21.9701 11.5176 18.7459ZM31.7511 65.6808C31.8203 65.8606 34.1057 71.7971 33.9645 71.4303C33.041 71.2386 32.2084 70.9342 31.5104 70.5298C30.3551 69.8569 29.7186 69.0152 29.7169 68.16C29.7158 67.0563 30.7508 66.1726 31.7511 65.6808ZM62.5404 74.4974C62.5328 77.3927 60.5198 80.1533 56.8735 82.2731C48.9587 86.8721 36.0458 86.8772 28.087 82.2816C24.3704 80.1363 22.3285 77.3308 22.337 74.3838L22.3386 74.0387C23.4593 75.6247 25.1102 77.0702 27.2386 78.2988C31.4595 80.7246 36.979 81.9366 42.49 81.9366C47.6515 81.9366 53.3242 80.8541 57.7685 78.2708C59.829 77.074 61.4368 75.6721 62.5421 74.1371L62.5404 74.4974ZM56.7989 61.0954C60.5121 63.2415 62.5582 66.0368 62.5599 68.9643C62.5616 71.8699 60.546 74.6381 56.8836 76.7604C56.8828 76.7613 56.8819 76.7613 56.8811 76.7621C49.0963 81.3101 36.1426 81.4165 28.1116 76.7791C24.3949 74.633 22.3531 71.8275 22.3616 68.8796C22.3616 68.8784 22.361 68.8775 22.361 68.8763C22.3762 65.9704 24.3822 63.2074 28.0277 61.0903C28.4981 60.8106 29.0168 60.5428 29.6661 60.247L31.1307 64.0526C29.4014 64.8935 27.9789 66.2837 27.9811 68.1617C27.9836 69.6602 28.9261 71.0333 30.6382 72.0309C33.9993 73.9785 39.1802 73.7897 42.2027 72.0123C43.9004 71.0324 44.8352 69.6746 44.8369 68.1888C44.8402 65.275 41.549 63.5747 38.4745 63.1054L36.5772 58.1568C43.7656 56.9007 51.4761 58.0153 56.7989 61.0954ZM41.333 70.5103C41.3279 70.512 41.322 70.5163 41.3169 70.5197C41.1101 69.9803 39.1342 64.8262 39.2032 65.0061C40.8838 65.4263 43.1027 66.5211 43.1011 68.1871C43.1002 69.0279 42.4722 69.8535 41.333 70.5103ZM39.7158 71.202C39.536 71.2347 37.8604 71.7818 35.9238 71.6766C13.8802 14.2006 21.4831 34.0241 19.8383 29.7357C20.0181 29.6777 21.9909 28.545 23.1156 27.9044C24.8132 32.3322 16.9668 11.8668 39.7158 71.202ZM28.0446 17.9289C28.3582 18.8832 28.5218 19.8088 28.5218 20.6454C28.5218 22.0235 28.1082 23.0118 27.3394 23.4365C27.1606 23.5403 22.2808 26.3727 22.481 26.2565C22.6918 24.9492 22.4343 23.2396 22.1156 22.1686C22.0986 22.1116 22.0714 22.056 22.0536 21.999C21.0519 18.8019 18.569 15.4404 15.5148 14.3122L20.4096 11.4788C21.1453 11.038 22.2556 11.1821 23.4448 11.8619C23.5244 11.9088 23.602 11.9565 23.6785 12.0051C23.6414 12.0259 21.3755 13.286 21.3403 13.3095C20.7664 13.6918 20.4503 14.38 20.4503 15.2344C20.4153 17.73 22.9516 20.7515 25.25 19.4718C26.1974 18.9436 27.1313 18.4296 28.0446 17.9289ZM38.1851 10.4862C36.1306 11.5686 30.6603 14.4724 24.2085 18.0645C24.1076 18.0763 23.9279 18.0458 23.6931 17.9128C22.8769 17.4466 22.1726 16.2066 22.1861 15.2463C22.1861 14.9488 22.2548 14.8106 22.2895 14.7674C24.3497 13.6228 25.66 12.8918 25.6816 12.8798C25.687 12.8767 25.6896 12.8707 25.6949 12.8675C38.092 5.96577 38.5357 6.10689 39.5599 6.46616L50.3121 12.6256C50.2445 12.8337 50.0987 13.4881 50.0987 13.9274V16.9024L39.0234 10.5023C38.7657 10.354 38.4496 10.3481 38.1851 10.4862Z" fill="black"/>
</svg>
