<svg width="93" height="92" viewBox="0 0 93 92" fill="none" xmlns="http://www.w3.org/2000/svg">
<path d="M10.3838 42.8993L10.477 79.1063C10.5008 80.4294 10.9957 81.4439 11.8789 81.9694L21.1006 87.3262C21.1078 87.3303 21.1161 87.3284 21.1233 87.3323C22.1285 87.9 23.3275 87.6663 24.3197 87.0939L78.8803 55.5935C80.9806 54.3806 82.6216 51.5378 82.6165 49.1197L82.5131 12.9118C82.5097 11.5947 81.996 10.5454 81.1061 10.0326C79.8934 9.33384 71.7251 4.581 71.9115 4.68686C71.0148 4.15289 69.8332 4.24273 68.6839 4.92419L62.3084 8.60269C61.8931 8.84256 61.7507 9.37315 61.9914 9.78846C62.2287 10.2021 62.7593 10.3453 63.1763 10.1063L69.5603 6.42271C70.1485 6.07266 70.6978 5.98282 71.0317 6.18285L77.9649 10.2182C77.7913 10.3105 23.7573 41.5105 23.1669 41.8789C21.2073 43.1035 19.5851 45.804 19.5851 48.2382C19.6042 54.4229 19.6386 65.5134 19.697 84.5037L12.7587 80.4735C12.301 80.2005 12.2197 79.4809 12.2129 79.0885L12.1196 42.8967C12.1196 41.0871 13.4317 38.808 14.9896 37.918L55.5311 14.5197C55.9464 14.2798 56.0888 13.7492 55.8481 13.3339C55.6091 12.9186 55.0802 12.7762 54.6632 13.0161L14.125 36.4127C12.0264 37.6112 10.3838 40.4591 10.3838 42.8993ZM78.0124 54.0899L23.4518 85.5903C22.1589 86.3356 21.4329 85.8061 21.4329 84.4461C21.2888 34.8243 21.3385 51.9389 21.3278 48.2365C21.3232 46.6253 22.4172 44.4451 24.0056 43.404C24.4456 43.1154 38.6735 34.9132 78.7566 11.771C79.95 11.0797 80.7735 11.4397 80.7772 12.916L80.8806 49.1239C80.8857 50.9166 79.572 53.1906 78.0124 54.0899Z" fill="black"/>
<path d="M58.4568 12.8313L60.8639 11.4412C61.2793 11.2014 61.4217 10.6708 61.1809 10.2555C60.9419 9.83762 60.4096 9.69692 59.996 9.93764L57.5889 11.3277C57.1736 11.5675 57.0312 12.0981 57.2719 12.5134C57.5082 12.9269 58.0391 13.0711 58.4568 12.8313Z" fill="black"/>
<path d="M76.6155 18.2508C76.2357 18.0338 75.7679 18.0355 75.3915 18.2525L25.6029 47.0067C25.313 47.2601 25.0282 47.7661 24.9299 48.0891C24.9044 48.1721 24.8926 48.2586 24.8926 48.345L24.9773 78.0485C24.9773 78.4851 25.213 78.8919 25.591 79.1097C25.9641 79.3266 26.4373 79.3291 26.8149 79.1097L76.6121 50.3521C76.8985 50.0995 77.1816 49.5944 77.2783 49.2714C77.3037 49.1892 77.3156 49.1045 77.3156 49.0189L77.2291 19.3128C77.2291 18.8754 76.9935 18.4694 76.6155 18.2508ZM75.4814 49.0197L26.7115 77.1654L26.6284 48.5112C26.6589 48.4544 26.6979 48.3874 26.7318 48.3391L75.4966 20.1968L75.5797 48.8544C75.5509 48.9095 75.5136 48.9731 75.4814 49.0197Z" fill="black"/>
<path d="M70.7741 29.6422C71.1894 29.4024 71.3318 28.8718 71.091 28.4564C70.8537 28.042 70.3214 27.8987 69.9061 28.1386L45.5291 42.2069L45.4958 40.5981C45.4856 40.1251 45.0991 39.7479 44.6278 39.7479C44.6227 39.7479 44.616 39.7479 44.6092 39.7479C44.1311 39.7581 43.7497 40.1548 43.7599 40.6337L43.813 43.1973L37.5193 46.8295L37.4861 45.2216C37.4759 44.7487 37.0894 44.3715 36.6182 44.3715C36.6131 44.3715 36.6063 44.3715 36.5995 44.3715C36.1215 44.3817 35.7401 44.7783 35.7502 45.2572L35.8031 47.8199L31.4361 50.3402C31.0207 50.58 30.8783 51.1106 31.1191 51.5259C31.3564 51.94 31.8866 52.0834 32.304 51.8438L35.8441 49.8008L35.9173 53.3472L31.4361 55.9334C31.0207 56.1732 30.8783 56.7038 31.1191 57.1191C31.3564 57.5332 31.8866 57.6766 32.304 57.437L35.9582 55.3281L36.0314 58.8736L31.4361 61.5257C31.0207 61.7656 30.8783 62.2962 31.1191 62.7115C31.3564 63.1256 31.8866 63.2689 32.304 63.0293L36.0723 60.8545L36.1455 64.4002L31.4361 67.1181C31.0207 67.3579 30.8783 67.8885 31.1191 68.3038C31.3564 68.7179 31.8866 68.8613 32.304 68.6217L36.1864 66.3811L36.23 68.4886C36.2402 68.9616 36.6266 69.3387 37.0979 69.3387C37.103 69.3387 37.1098 69.3387 37.1166 69.3387C37.5946 69.3286 37.976 68.9319 37.9658 68.453L37.9026 65.3907L44.1977 61.7578L44.2413 63.8659C44.2515 64.3389 44.638 64.716 45.1093 64.716C45.1143 64.716 45.1211 64.716 45.1279 64.716C45.6059 64.7059 45.9874 64.3092 45.9772 63.8303L45.9137 60.7674L70.7741 46.4201C71.1894 46.1802 71.3318 45.6497 71.091 45.2343C70.8537 44.819 70.3214 44.6758 69.9061 44.9165L45.8726 58.7866L45.7992 55.2411L70.7741 40.8278C71.1894 40.5879 71.3318 40.0573 71.091 39.642C70.8537 39.2275 70.3214 39.0843 69.9061 39.3242L45.7582 53.2603L45.6847 49.7148L70.7741 35.2354C71.1894 34.9955 71.3318 34.465 71.091 34.0496C70.8537 33.6352 70.3214 33.4902 69.9061 33.7318L45.6437 47.734L45.5701 44.1877L70.7741 29.6422ZM44.1566 59.7768L37.8617 63.4098L37.7885 59.8641L44.0832 56.2314L44.1566 59.7768ZM44.042 54.2506L37.7476 57.8832L37.6744 54.3377L43.9686 50.7052L44.042 54.2506ZM43.9275 48.7244L37.6335 52.3568L37.5602 48.8104L43.8541 45.1781L43.9275 48.7244Z" fill="black"/>
</svg>
