<svg width="93" height="92" viewBox="0 0 93 92" fill="none" xmlns="http://www.w3.org/2000/svg">
<path d="M4.85813 36.7414C4.85898 37.0499 5.02341 37.3356 5.2904 37.4907L10.7841 40.6804L10.7971 45.3537C10.798 45.6622 10.9624 45.947 11.2286 46.1013L17.9855 50.0281C18.3991 50.2688 18.9314 50.129 19.1721 49.7145C19.4137 49.3001 19.2721 48.7686 18.8585 48.5279L12.5313 44.8511L12.5025 34.4294L51.8108 57.2727L51.8396 67.6951L26.7444 53.1108C26.3291 52.8692 25.7977 53.0099 25.5578 53.4244C25.3162 53.8389 25.4578 54.3703 25.8714 54.611L52.2753 69.9556C52.5475 70.1139 52.8789 70.111 53.1458 69.9573C53.3195 69.8572 57.3488 67.5332 57.175 67.6333L69.5939 74.8504C69.8662 75.0087 70.1976 75.0058 70.4644 74.8521C70.4683 74.8499 70.4697 74.8453 70.4735 74.843L87.7254 64.8795C87.9941 64.7235 88.1602 64.437 88.1594 64.126L88.1433 55.8714C88.1424 55.562 87.9772 55.2755 87.7085 55.1213C87.6997 55.1162 87.6889 55.1184 87.6799 55.1136L79.5682 50.3995L79.5515 41.7821C79.5519 41.7721 79.559 41.7641 79.559 41.754C79.5598 41.4447 79.3945 41.1582 79.1276 41.0031L38.0791 17.1496C37.8104 16.9928 37.4782 16.9928 37.2095 17.1479L29.7631 21.4471L23.416 17.7624C23.1473 17.6072 22.8167 17.6064 22.5463 17.7615L5.27429 27.7257C5.02018 27.8729 4.84118 28.1516 4.84033 28.4766C4.84033 28.4762 4.84033 28.4771 4.84033 28.4766C4.84033 28.4771 4.84033 28.4788 4.84033 28.4792L4.85813 36.7414ZM60.5858 51.2037L21.2723 28.3568L29.74 23.4719L69.0505 46.3165C68.8755 46.4175 60.1301 51.4668 60.5858 51.2037ZM19.5387 29.357L58.8536 52.2045L52.6788 55.7696L13.3619 32.9214C13.5359 32.821 19.9476 29.121 19.5387 29.357ZM6.59313 36.2397L6.57957 29.9873L10.8784 32.4829C10.8016 32.6143 10.7598 32.7656 10.7598 32.9231L10.7743 38.6671L6.59313 36.2397ZM74.3847 49.3953C74.5598 49.497 85.71 55.9759 85.5363 55.875C69.8862 64.9133 70.1902 64.7377 70.0061 64.8441C69.7482 64.6942 58.1933 57.9787 58.8606 58.3665C60.4479 57.4492 53.1104 61.6895 74.3847 49.3953ZM83.6164 61.9926L70.8924 69.342L70.8831 66.3446L83.607 58.9982L83.6164 61.9926ZM58.0109 66.1119C58.0104 65.9336 57.9944 59.4986 57.9953 59.8713L69.1405 66.3486L69.1583 72.5899L58.0109 66.1119ZM70.8975 72.5933L70.8947 71.3459L84.9199 63.2445C85.1895 63.0885 85.3547 62.8012 85.3539 62.4901L85.3394 57.9979L86.41 57.3798L86.4227 63.6276L70.8975 72.5933ZM74.8151 47.6371C74.5464 47.4794 74.2141 47.4803 73.9437 47.6362C72.1793 48.6559 80.3354 43.9426 56.6878 57.6081C56.4165 57.7652 56.2546 58.0542 56.2538 58.359C56.2532 58.624 56.2563 59.6576 56.2733 66.15L53.5789 67.7011L53.5501 57.2716C56.0618 55.8213 74.9068 44.9405 77.818 43.2595L77.8308 49.3898C77.6568 49.2887 74.6223 47.5251 74.8151 47.6371ZM37.6418 18.9024L76.9586 41.7501L70.7833 45.316L31.4663 22.468L37.6418 18.9024ZM22.9786 19.516L28.0298 22.448C27.8558 22.5484 12.3193 31.518 12.4976 31.4151L7.44125 28.4797L22.9786 19.516Z" fill="black"/>
<path d="M21.6827 50.1689C21.2682 49.929 20.7368 50.0688 20.4961 50.4825C20.2545 50.8969 20.3952 51.4284 20.8097 51.6691L23.2609 53.0939C23.6765 53.335 24.2071 53.194 24.4475 52.7803C24.6891 52.3658 24.5484 51.8344 24.1339 51.5936L21.6827 50.1689Z" fill="black"/>
<path d="M75.8526 57.6801L78.6979 56.0366C79.1132 55.7968 79.2556 55.2662 79.0158 54.8509C78.775 54.433 78.2436 54.2923 77.83 54.533L74.9846 56.1765C74.5693 56.4164 74.4269 56.9469 74.6668 57.3623C74.9073 57.7787 75.4395 57.9187 75.8526 57.6801Z" fill="black"/>
<path d="M68.3089 61.0323C68.5511 61.4504 69.0833 61.5878 69.4947 61.3502L72.3408 59.7075C72.7562 59.4677 72.8986 58.9371 72.6587 58.5218C72.4171 58.1073 71.8857 57.9624 71.4729 58.2039L68.6267 59.8465C68.2114 60.0864 68.069 60.617 68.3089 61.0323Z" fill="black"/>
</svg>
