<svg width="93" height="92" viewBox="0 0 93 92" fill="none" xmlns="http://www.w3.org/2000/svg">
<path d="M88.1447 53.3477L84.9002 36.6486C84.8613 36.45 84.602 36.1319 84.4814 36.0621L47.6574 14.8022C47.3878 14.647 47.0539 14.647 46.7878 14.8039L7.32601 37.7369C7.19085 37.8151 6.93805 38.1304 6.90391 38.3573L4.84937 51.9966C4.79513 52.3501 4.96465 52.6993 5.27317 52.8781L10.2417 55.7463C10.6587 55.9853 11.1893 55.8438 11.4266 55.4285C11.6673 55.0132 11.5249 54.4826 11.1096 54.2427L6.65303 51.6703L8.42956 39.8753C14.0465 43.1183 41.3406 58.8767 43.8069 60.3006L46.6142 74.742L19.0159 58.8078C18.6022 58.5705 18.07 58.7112 17.8309 59.1256C17.5902 59.541 17.7326 60.0715 18.1479 60.3114L47.3963 77.1978C47.4084 77.2049 47.4232 77.2019 47.4356 77.2083C47.4492 77.2153 47.4569 77.2296 47.4709 77.2359C47.5862 77.2885 47.7082 77.3139 47.8303 77.3139C47.9812 77.3139 48.132 77.2741 48.2659 77.1961L87.7277 54.2631C88.0481 54.0774 88.2142 53.7104 88.1447 53.3477ZM47.2251 16.5567L82.315 36.8164L44.5829 58.7439L9.49286 38.4841L47.2251 16.5567ZM48.4499 75.0817L45.5543 60.1865L83.4287 38.1776L86.3224 53.0731L48.4499 75.0817Z" fill="black"/>
<path d="M13.6878 55.7319C13.2741 55.4962 12.7419 55.6353 12.5028 56.0497C12.2621 56.465 12.4045 56.9956 12.8198 57.2355L15.5694 58.8222C15.9884 59.0627 16.5183 58.9162 16.7543 58.5043C16.995 58.089 16.8526 57.5584 16.4373 57.3186L13.6878 55.7319Z" fill="black"/>
<path d="M17.4188 39.1312L41.5088 53.04C41.6427 53.1172 41.7936 53.1562 41.9428 53.1562C42.0936 53.1562 42.2445 53.1172 42.3784 53.0383L71.5963 36.0587C71.8641 35.9036 72.0286 35.6171 72.0286 35.3078C72.0286 34.9976 71.8624 34.7119 71.5946 34.5568L47.5046 20.648C47.2351 20.4929 46.9011 20.4929 46.635 20.6497L17.4171 37.6293C17.1493 37.7844 16.9849 38.0709 16.9849 38.3803C16.9849 38.6905 17.151 38.9761 17.4188 39.1312ZM47.0723 22.4025L69.4299 35.3112L41.9411 51.2855L19.5835 38.3769L47.0723 22.4025Z" fill="black"/>
<path d="M65.5803 51.6576L49.3423 61.0938C49.0219 61.2794 48.8558 61.6464 48.9253 62.0091L50.3967 69.5857C50.5123 70.1745 51.1716 70.4695 51.685 70.1705L67.923 60.7335C68.2434 60.5479 68.4095 60.1809 68.34 59.8181L66.8686 52.2424C66.7535 51.6562 66.0954 51.3568 65.5803 51.6576ZM51.8681 68.0566L50.7476 62.2846L65.3972 53.7715L66.5177 59.5435L51.8681 68.0566Z" fill="black"/>
<path d="M73.1444 46.3848C71.9188 47.0925 70.9627 48.7554 70.9678 50.1692C70.9749 51.9418 72.4789 52.809 74.0242 51.9178C75.2549 51.2067 76.216 49.5479 76.2109 48.1401C76.2038 46.3641 74.6867 45.4948 73.1444 46.3848ZM73.1563 50.4142C72.9325 50.5422 72.7969 50.5413 72.7867 50.5388C72.7681 50.5235 72.7036 50.4142 72.7036 50.1641C72.7019 49.3708 73.3258 48.2859 74.0123 47.8884C74.2378 47.7578 74.3683 47.7604 74.3886 47.7689C74.4073 47.7833 74.4751 47.8892 74.4751 48.1452C74.4768 48.9326 73.8496 50.0141 73.1563 50.4142Z" fill="black"/>
<path d="M79.7469 42.5774C78.5247 43.2835 77.5686 44.9456 77.5703 46.3619C77.5774 48.1334 79.08 49.0017 80.6267 48.1096C81.8574 47.3985 82.8185 45.7398 82.8135 44.3319C82.8063 42.5591 81.2914 41.6857 79.7469 42.5774ZM79.7588 46.606C79.5333 46.7357 79.4011 46.7323 79.3892 46.7314C79.3706 46.7153 79.3062 46.6069 79.3062 46.3577C79.3045 45.5626 79.9283 44.4769 80.6148 44.0811C80.7945 43.9776 80.9132 43.9582 80.964 43.9582C80.9793 43.9582 80.9878 43.9599 80.9912 43.9607C81.0098 43.9751 81.0776 44.0819 81.0776 44.337C81.0793 45.1244 80.4521 46.2059 79.7588 46.606Z" fill="black"/>
<path d="M73.0255 53.4511C71.8016 54.1579 70.8455 55.815 70.8506 57.2219C70.8542 59.0065 72.3743 59.8704 73.9053 58.9832C75.136 58.2721 76.0971 56.6066 76.0921 55.1928C76.0849 53.4249 74.5736 52.5581 73.0255 53.4511ZM73.0374 57.4805C72.8153 57.6093 72.6831 57.6068 72.6729 57.6008C72.6543 57.5856 72.5865 57.4762 72.5865 57.2177C72.5848 56.4159 73.195 55.3581 73.8934 54.9547C74.0799 54.8462 74.2036 54.8292 74.2528 54.8292C74.263 54.8292 74.2714 54.8301 74.2748 54.8309C74.2918 54.8453 74.3562 54.9513 74.3562 55.1979C74.3579 55.9921 73.729 57.0804 73.0374 57.4805Z" fill="black"/>
<path d="M79.628 49.6429C78.4041 50.3498 77.4481 52.0077 77.4531 53.4147C77.4603 55.1965 78.9718 56.0629 80.5078 55.176C81.7385 54.4648 82.6997 52.8002 82.6946 51.3847C82.6874 49.6033 81.1642 48.7553 79.628 49.6429ZM79.6399 53.6723C79.4246 53.7969 79.2975 53.8003 79.2754 53.7927C79.2568 53.7774 79.189 53.6681 79.189 53.4096C79.1873 52.6086 79.7976 51.5517 80.496 51.1465C80.7299 51.0109 80.857 51.0194 80.8774 51.0228C80.8943 51.0372 80.9587 51.1432 80.9587 51.3898C80.9604 52.1848 80.3332 53.2723 79.6399 53.6723Z" fill="black"/>
<path d="M53.1804 42.3519C55.6434 40.9212 56.9979 38.9701 56.9945 36.8562C56.9911 34.733 55.6197 32.7734 53.1346 31.3385C48.3424 28.5711 40.5751 28.5702 35.8236 31.3342C30.7579 34.2781 30.7166 39.3736 35.8897 42.3596C40.703 45.1369 48.4599 45.0974 53.1804 42.3519ZM36.6949 32.8344C40.9777 30.3463 47.9618 30.3566 52.2667 32.8421C56.2401 35.1346 56.2559 38.5567 52.309 40.8517C48.0338 43.3377 41.0565 43.3402 36.7576 40.856C32.7828 38.5618 32.7531 35.1259 36.6949 32.8344Z" fill="black"/>
</svg>
