<svg width="93" height="92" viewBox="0 0 93 92" fill="none" xmlns="http://www.w3.org/2000/svg">
<path d="M70.4731 67.4473L72.8862 66.0454C73.3007 65.8047 73.4422 65.2724 73.2007 64.8588C72.96 64.4418 72.4268 64.3011 72.0149 64.5435L69.6018 65.9454C69.1874 66.1861 69.0458 66.7184 69.2874 67.132C69.4484 67.41 69.7391 67.5643 70.0383 67.5643C70.1867 67.5643 70.3367 67.527 70.4731 67.4473Z" fill="black"/>
<path d="M84.4302 29.0408C84.4293 28.7306 84.264 28.445 83.9953 28.2907L69.1217 19.7238C69.1356 14.4156 69.1544 7.01716 69.155 7.27236C69.1546 7.0983 68.9869 6.67676 68.7211 6.52309C67.0933 5.58754 64.9494 4.35541 65.1256 4.45669C64.8561 4.30243 64.5247 4.30243 64.2568 4.45923L22.4405 28.7611C22.2341 28.8805 22.0104 29.251 22.0091 29.507L21.9999 32.5488L10.6371 39.1593C10.3692 39.3152 10.2048 39.6008 10.2057 39.9111C10.2065 40.2204 10.3718 40.5061 10.6396 40.6612L21.9562 47.1945L21.9543 48.0378L10.6379 54.6065C10.3701 54.7624 10.2057 55.0489 10.2057 55.3591C10.2057 55.6676 10.3709 55.9541 10.6396 56.1084L18.1789 60.4625L9.04077 65.7755C9.0343 65.779 9.02636 65.7773 9.01989 65.781C8.75206 65.9352 8.58593 66.2217 8.58508 66.5319L8.56983 71.7649C8.56898 72.0751 8.73425 72.3633 9.00379 72.5176L35.0271 87.5418C35.2958 87.6983 35.6254 87.6966 35.8942 87.5435C35.8938 87.5437 35.8946 87.5433 35.8942 87.5435C35.8949 87.5431 35.8968 87.5422 35.8976 87.5418L68.1201 68.8153C68.5337 68.5746 68.6753 68.0423 68.4337 67.6287C68.193 67.2117 67.6599 67.071 67.2471 67.3134L36.3335 85.2804L36.3428 82.0578C94.1728 48.4581 74.099 60.1211 78.4674 57.5831L78.4581 60.8006L74.3371 63.1942C73.9227 63.4349 73.7811 63.9672 74.0227 64.3808C74.2634 64.7961 74.794 64.9368 75.2085 64.6961L79.76 62.0516C80.027 61.8957 80.1914 61.6109 80.1922 61.3023L80.2074 56.0886C80.2076 56.0818 80.2126 56.0763 80.2126 56.0694C80.2126 55.7592 80.0473 55.4727 79.7795 55.3184L73.218 51.5236L83.9979 45.2593C84.2657 45.1034 84.4302 44.8169 84.4302 44.5067C84.4302 44.1981 84.264 43.9117 83.9962 43.7574L71.9429 36.7982L83.9987 29.7926C84.2666 29.6375 84.431 29.3502 84.4302 29.0408ZM35.0686 70.2189L27.221 74.7823C27.2222 74.3622 27.2488 65.1225 27.2472 65.703C27.4232 65.8046 35.5863 70.5178 35.0686 70.2189ZM27.3373 32.0766L67.4149 8.78614L67.3861 19.6962L27.3073 42.981C27.3084 42.5769 27.3379 31.856 27.3373 32.0766ZM25.6012 32.0778C25.6006 32.2678 25.5665 44.7809 25.5686 43.9915L23.6975 45.0796L23.7382 31.0072L25.6012 32.0778ZM27.2768 58.4457L27.2997 50.2801C27.4789 50.3833 34.8159 54.6081 34.3484 54.3389L27.2768 58.4457ZM23.6932 48.2055L23.9674 48.3631C23.9697 48.3643 23.9707 48.367 23.9729 48.3682L25.5658 49.2836L25.5348 59.461L23.6624 60.5489L23.6932 48.5395C23.6932 48.5382 23.6923 48.5372 23.6923 48.536L23.6932 48.2055ZM23.6543 63.6291L25.5138 64.7024L25.4851 74.7754L23.6255 73.7032L23.6543 63.6291ZM64.6959 6.21203L66.5527 7.27903C0.969618 45.3928 39.186 23.1833 26.4699 30.5732L24.612 29.507L64.6959 6.21203ZM21.9879 34.5637L21.9608 45.1932L12.8043 39.9068L21.9879 34.5637ZM21.9498 50.0479C21.9493 50.2262 21.9209 61.3088 21.9226 60.6209L12.8052 55.3557L21.9498 50.0479ZM19.9105 61.4651L21.9212 62.6245L21.8922 72.7039L11.1906 66.5336L19.9105 61.4651ZM10.3167 68.0339C12.6005 69.3535 31.886 80.49 34.6067 82.058L34.5974 85.2906L10.3074 71.2665L10.3167 68.0339ZM77.6094 56.0685C73.2838 58.5819 93.2191 46.9986 35.4772 80.5493C35.3028 80.4488 27.5953 76.0069 28.084 76.2886L36.8035 71.2191L37.6317 71.6971C37.9039 71.8556 38.2371 71.8505 38.5022 71.6971L71.4883 52.5287L77.6094 56.0685ZM70.2145 37.8048L81.8298 44.51L71.0682 50.7638C71.0608 50.768 71.0517 50.7659 71.0443 50.7703L38.0649 69.9426C23.8552 61.731 24.4349 62.0718 24.4696 62.0918C28.1031 59.994 36.1295 55.3129 35.9643 55.4091L36.0845 55.3393L37.6309 56.2304C37.9047 56.3888 38.237 56.3839 38.5022 56.2304L70.2145 37.8048ZM38.0649 54.4759C37.737 54.2866 23.9878 46.345 24.8493 46.8426L24.4799 46.634C24.6537 46.533 71.0551 19.5721 68.2306 21.2136L81.8289 29.0459L38.0649 54.4759Z" fill="black"/>
</svg>
