<svg width="93" height="92" viewBox="0 0 93 92" fill="none" xmlns="http://www.w3.org/2000/svg">
<path d="M5.30856 59.7939L12.1257 63.7572C12.5401 63.9979 13.0707 63.8572 13.3123 63.4419C13.5538 63.0283 13.4131 62.496 12.9987 62.2553L6.61129 58.5429L6.57993 47.2887L27.3631 59.366L27.3926 70.6208L19.9921 66.3186C19.5785 66.0796 19.0462 66.2186 18.8055 66.6339C18.5639 67.0475 18.7046 67.5798 19.1191 67.8205L27.8314 72.884C28.1051 73.0414 28.4365 73.0385 28.7018 72.884C28.7123 72.8779 28.7165 72.8655 28.7266 72.8592L31.7222 71.1292L39.0482 75.3869L39.061 80.0596C39.0623 80.5342 39.4453 80.9258 39.9289 80.9258C40.0789 80.9258 40.229 80.8868 40.3629 80.8089L87.7266 53.4642C87.9962 53.3099 88.1615 53.0217 88.1606 52.7115L88.142 46.2444C88.1411 45.9342 87.975 45.6478 87.7071 45.4935C87.4385 45.3409 87.1071 45.3392 86.8401 45.4952L83.8427 47.2257L75.3215 42.2722L75.2884 32.1983C75.2876 31.8894 75.118 31.602 74.8569 31.4507L74.8549 31.4496C74.8544 31.4493 74.8541 31.4485 74.8536 31.4482C74.853 31.4479 74.8523 31.448 74.8518 31.4477L52.3435 18.3624C52.0739 18.2056 51.7425 18.2056 51.473 18.3607L43.2217 23.1221C43.2221 22.9473 43.2272 20.688 43.2277 20.8627C43.2272 20.6683 43.1117 20.2974 42.7937 20.1135C33.2328 14.5915 36.9048 16.7123 27.3449 11.191C27.077 11.0367 26.7456 11.0342 26.4778 11.1901C26.2099 11.3452 26.0438 11.6309 26.043 11.9402L26.0292 17.0574L21.633 14.5245C21.3652 14.3686 21.0338 14.3762 20.7659 14.533C20.5387 14.6642 20.4096 14.9022 20.3678 15.1582C20.3075 15.5205 20.3333 18.5288 20.3182 20.3976L15.9398 17.8742C15.672 17.7208 15.3405 17.7182 15.0727 17.8733C14.8049 18.0284 14.6387 18.3141 14.6379 18.6234L14.5814 39.652C14.4055 39.7536 5.10483 45.1271 5.2808 45.0254C5.27868 45.0267 5.27593 45.0261 5.27381 45.0273C5.00428 45.1816 4.839 45.4698 4.83985 45.78L4.87714 59.0446C4.87799 59.3532 5.04242 59.6379 5.30856 59.7939ZM39.0661 73.3891L32.238 69.4207C32.2372 69.1483 32.2255 64.6916 32.2262 64.9579C33.2892 65.5771 28.3734 62.7181 42.6227 71.0131L39.478 72.8314C39.2736 72.9491 39.0992 73.2451 39.0661 73.3891ZM70.8089 46.5174L77.9064 50.644L44.3567 70.0056L37.2664 65.8807L70.8089 46.5174ZM79.6399 49.6436L71.676 45.0123V42.1696L82.0961 48.2261L79.6399 49.6436ZM69.9401 45.0148L35.5374 64.8748L33.0847 63.4479C81.6208 35.4188 66.0113 44.4331 69.9401 42.1643V45.0148ZM86.4231 52.2131L40.7926 78.5577L40.7807 74.0909C107.294 35.6932 22.0454 84.9083 86.4103 47.7464L86.4231 52.2131ZM70.3766 39.902C66.3163 42.2473 85.0341 31.4356 30.92 62.6926C30.6115 62.8704 30.4865 63.257 30.486 63.4419C30.486 63.4429 30.4866 63.4435 30.4866 63.4444C30.4866 63.6427 30.5033 70.0076 30.5036 69.8294L29.1316 70.6207L29.0999 59.363C46.8992 49.0889 55.8507 43.9219 73.5576 33.7012L73.5822 41.2607L71.2471 39.9037C71.0192 39.7703 70.5764 39.7873 70.3766 39.902ZM41.4876 22.3816C41.3862 59.9663 41.4392 40.3188 41.4232 46.2478L37.469 48.5635L37.5324 24.6965C37.807 24.5358 41.7101 22.2514 41.4876 22.3816ZM31.8391 28.0492L35.7936 25.7338L35.73 49.6161L31.775 51.9313L31.8391 28.0492ZM40.633 20.8703C40.4481 20.9785 36.4055 23.3442 36.6622 23.194L27.7627 18.0728L27.7746 13.4439L40.633 20.8703ZM22.0636 16.7926C22.2373 16.8929 35.7922 24.7136 34.9388 24.2212L30.9693 26.5444C26.194 23.7849 21.8723 21.2933 22.0517 21.3967L22.0636 16.7926ZM30.1029 28.0494L30.0385 51.9469L16.3059 44.0255C16.3215 38.1751 16.3545 25.7799 16.3695 20.1279C18.5463 21.3834 30.3227 28.1761 30.1029 28.0494ZM14.5761 41.6598C14.5756 41.8478 14.5679 44.7004 14.5684 44.5222C14.5676 44.8324 14.7328 45.1222 15.0024 45.2782L30.469 54.1999C30.7442 54.3556 31.0714 54.3506 31.3361 54.1999C31.6481 54.0222 43.4209 47.0885 42.7293 47.4955C42.9938 47.3395 43.1574 47.0564 43.1582 46.7479L43.2163 25.1296L51.9053 20.1152L72.6886 32.1982C54.9819 42.4188 46.0285 47.5869 28.2314 57.8597L7.44701 45.7766L14.5761 41.6598Z" fill="black"/>
<path d="M15.6212 63.7776C15.2076 63.5369 14.6753 63.6776 14.4346 64.0929C14.193 64.5065 14.3337 65.0371 14.7482 65.2795L16.7875 66.4661C17.1973 66.7039 17.7314 66.5698 17.9741 66.1508C18.2156 65.7372 18.0749 65.2066 17.6605 64.9642L15.6212 63.7776Z" fill="black"/>
<path d="M27.4472 40.5792C27.1869 40.429 19.3042 35.8813 19.774 36.1523C19.3553 35.9124 18.8264 36.0582 18.5891 36.4727C18.3501 36.8889 18.4942 37.4194 18.9095 37.6576C19.0856 37.7592 27.0912 42.3772 26.581 42.0828C26.9956 42.3224 27.5274 42.1793 27.7659 41.7642C28.0058 41.3488 27.8625 40.8182 27.4472 40.5792Z" fill="black"/>
<path d="M18.5623 32.484L26.9626 37.3271C27.542 37.6586 28.2627 37.2419 28.2645 36.5778L28.2823 30.7625C28.2832 30.4515 28.1179 30.1641 27.8484 30.0082L19.4437 25.1634C19.1751 25.0108 18.8453 25.0108 18.5784 25.1651C18.3105 25.3202 18.1452 25.605 18.1444 25.9144L18.1274 31.7296C18.1266 32.0407 18.2927 32.3289 18.5623 32.484ZM19.876 27.4112L26.5448 31.2601L26.5329 35.075L19.865 31.2313L19.876 27.4112Z" fill="black"/>
</svg>
