<svg width="93" height="92" viewBox="0 0 93 92" fill="none" xmlns="http://www.w3.org/2000/svg">
<path d="M17.5978 61.3135C17.5986 61.7924 17.9877 62.1797 18.4657 62.1797C18.9454 62.1788 19.3345 61.789 19.3336 61.3101L19.2819 39.3984C19.2667 37.4176 20.7313 34.8774 22.4756 33.856L31.6007 28.5874V32.8844L27.0729 35.5037C24.937 36.6819 22.9791 39.8173 22.9791 42.5836L23.0655 82.0199C23.0655 82.0903 23.0681 82.1581 23.0723 82.2301L19.9786 80.4273C19.5913 80.2129 19.3684 79.6416 19.3684 78.8593L19.3514 70.4233C19.3506 69.9436 18.8929 69.5257 18.4818 69.5571C18.0021 69.5579 17.6147 69.9478 17.6156 70.4267L17.6325 78.861C17.6325 80.2925 18.1818 81.4173 19.1217 81.9368C19.2973 82.0392 24.749 85.2161 24.5734 85.1138C24.5731 85.1136 24.5737 85.114 24.5734 85.1138C25.6521 85.739 26.9601 85.4829 28.0307 84.8551L34.7648 80.966L41.0182 86.3375C43.0057 87.9657 46.6064 88.0626 48.7608 86.7867L61.0067 79.678C62.073 79.0729 62.6993 78.1609 62.7265 77.1539V72.8567C62.7265 72.8471 62.7213 72.8391 62.7209 72.8295C62.7248 71.8549 62.1106 70.9307 61.0143 70.2868C60.5288 70.0042 60.5376 70.0532 56.435 68.4515L71.3693 59.8268C73.6594 58.5232 75.4538 55.4321 75.4538 52.7885C75.4538 52.5288 75.3681 13.5107 75.3673 13.32C75.3484 12.0386 74.8859 11.0427 74.1318 10.4675C73.9365 10.2074 74.083 10.3884 68.429 7.0809C67.9949 6.82705 67.4879 6.7229 66.9518 6.73689C66.9258 5.77085 66.5337 4.99373 65.8557 4.60342C65.1565 4.20081 64.2547 4.26184 63.3842 4.76276L34.2943 21.5585C32.7788 22.434 31.5956 24.4911 31.6007 26.2397V26.5826L21.6026 32.355C19.3082 33.7001 17.5257 36.7997 17.5461 39.4068L17.5978 61.3135ZM31.6007 72.4787L29.3461 73.7831L29.2639 41.5021L31.6007 40.1502V72.4787ZM66.9652 19.7192L69.0867 18.4953L69.1689 50.778L66.9652 52.0494V19.7192ZM60.9906 77.1302C60.9813 77.4921 60.6745 77.871 60.1422 78.1727L47.8827 85.289C46.2928 86.2301 43.4965 86.1125 42.1327 85.0068L36.3675 80.0544L37.7728 79.2373L41.114 82.1081C42.9074 83.665 46.6331 83.7346 48.7677 82.5108C48.7708 82.509 48.7747 82.5082 48.7778 82.5064L60.9906 75.4164V77.1302ZM60.1379 71.7853C60.8707 72.2158 61.2877 72.7694 60.7397 73.4186C60.1999 73.9526 60.7164 73.511 47.909 81.0037C46.5239 81.8006 44.0486 81.9805 42.1675 80.7265L39.3707 78.3218L54.5168 69.5698C60.1502 71.7602 59.8371 71.6101 60.1379 71.7853ZM70.5064 58.3207L27.1577 83.354C25.7008 84.2103 24.8014 83.5961 24.8014 82.0182L24.7319 42.5819C24.7319 40.3007 26.4361 37.8398 27.9273 37.0141L31.6007 34.8893V38.1446L27.9603 40.251C27.6916 40.4061 27.5264 40.6935 27.5272 41.0045L27.6137 75.2876C27.6155 75.9568 28.341 76.3689 28.9164 76.036C35.5493 72.2029 62.1377 56.8437 70.4717 52.0299C70.7412 51.8748 70.9065 51.5866 70.9056 51.2755L70.8192 16.9925C70.8183 16.6832 70.653 16.3975 70.3844 16.2433C70.1157 16.089 69.786 16.089 69.5173 16.2433L66.9652 17.7149V14.4769C70.0214 12.7278 70.9573 12.1591 71.6167 11.8197C72.9303 11.2521 73.6108 11.9263 73.6315 13.3344L73.7179 52.7885C73.7179 54.7964 72.249 57.329 70.5064 58.3207ZM67.5543 8.58112L70.6268 10.3619C70.3619 10.4943 70.4912 10.4347 66.961 12.4726V8.4685C67.1873 8.4578 67.3931 8.4863 67.5543 8.58112ZM35.1622 23.0621L64.2521 6.26637C64.625 6.05194 64.8827 6.04515 64.9895 6.10788C65.0971 6.16975 65.2234 6.39605 65.2251 6.82663V53.0535C61.5154 55.1964 35.9568 69.9599 33.3425 71.47C33.3424 71.2763 33.3364 26.04 33.3365 26.2371C33.3331 25.109 34.1867 23.6257 35.1622 23.0621Z" fill="black"/>
<path d="M18.4809 68.1891C18.9606 68.1883 19.348 67.7984 19.3471 67.3195L19.3403 64.4758C19.3395 63.997 18.9505 63.6096 18.4724 63.6096C17.9927 63.6105 17.6036 64.0004 17.6045 64.4792L17.6113 67.3229C17.6121 67.8018 18.0029 68.1891 18.4809 68.1891Z" fill="black"/>
<path d="M50.0705 66.0651L47.5804 67.5026C47.165 67.7424 47.0226 68.273 47.2625 68.6883C47.503 69.1048 48.0352 69.2448 48.4483 69.0062L50.9385 67.5687C51.3538 67.3288 51.4962 66.7982 51.2563 66.3829C51.0148 65.9668 50.4833 65.8244 50.0705 66.0651Z" fill="black"/>
<path d="M37.5166 31.2099L61.7829 17.1994C62.1982 16.9595 62.3406 16.4289 62.1008 16.0136C61.8601 15.5966 61.3286 15.455 60.915 15.6958L36.6487 29.7063C36.2334 29.9462 36.091 30.4767 36.3309 30.8921C36.5714 31.3085 37.1036 31.4485 37.5166 31.2099Z" fill="black"/>
<path d="M37.5166 39.3162L61.7829 25.3056C62.1982 25.0658 62.3406 24.5352 62.1008 24.1199C61.8601 23.7037 61.3286 23.5613 60.915 23.802L36.6487 37.8125C36.2334 38.0524 36.091 38.583 36.3309 38.9983C36.5714 39.4147 37.1036 39.5548 37.5166 39.3162Z" fill="black"/>
<path d="M37.0835 47.5385C37.231 47.5385 37.3802 47.5012 37.5166 47.4224L61.7829 33.4119C62.1982 33.172 62.3406 32.6414 62.1008 32.2261C61.8601 31.8091 61.3286 31.6684 60.915 31.9083L36.6487 45.9188C36.2334 46.1587 36.091 46.6893 36.3309 47.1046C36.4919 47.3834 36.7835 47.5385 37.0835 47.5385Z" fill="black"/>
<path d="M37.5166 55.5287L48.8013 49.0133C49.2167 48.7735 49.3591 48.2429 49.1192 47.8275C48.8785 47.4105 48.3454 47.2698 47.9334 47.5097L36.6487 54.0251C36.2334 54.2649 36.091 54.7955 36.3309 55.2108C36.5714 55.6273 37.1036 55.7673 37.5166 55.5287Z" fill="black"/>
<path d="M37.5166 63.635L48.8013 57.1197C49.2167 56.8798 49.3591 56.3492 49.1192 55.9339C48.8785 55.5169 48.3454 55.3745 47.9334 55.616L36.6487 62.1314C36.2334 62.3713 36.091 62.9019 36.3309 63.3172C36.5714 63.7336 37.1036 63.8736 37.5166 63.635Z" fill="black"/>
<path d="M61.6366 47.3479L58.3708 45.4993L59.087 44.2593C59.2608 43.9584 59.2379 43.5829 59.0294 43.3049C58.8201 43.0269 58.4641 42.9032 58.1293 42.982L52.0911 44.4593C51.6076 44.578 51.3243 45.0767 51.4656 45.5502L53.2303 51.4748C53.3286 51.807 53.6159 52.0486 53.96 52.0893C54.3152 52.1333 54.6406 51.9604 54.8135 51.6612L55.5348 50.4111L58.8023 52.2791C59.2106 52.5139 59.7425 52.3776 59.9846 51.9596L61.9604 48.537C62.0756 48.3362 62.107 48.098 62.046 47.8751C61.9849 47.6513 61.8375 47.4615 61.6366 47.3479ZM58.9133 50.3432L55.6459 48.4752C55.2375 48.2404 54.7056 48.3767 54.4635 48.7947L54.3177 49.0473L53.3896 45.929L56.5672 45.1518L56.4299 45.3891C56.1871 45.8104 56.3385 46.3436 56.7537 46.5783L60.0194 48.4269L58.9133 50.3432Z" fill="black"/>
</svg>
