<svg width="93" height="92" viewBox="0 0 93 92" fill="none" xmlns="http://www.w3.org/2000/svg">
<path d="M8.91903 37.8909C8.92327 38.1961 9.08685 38.4758 9.35045 38.63L18.676 44.0539L9.35384 49.4706C9.086 49.6266 8.92072 49.913 8.92157 50.2233C8.92242 50.5318 9.0877 50.8183 9.35553 50.9725L19.5062 56.8327L19.4562 71.9671C19.4553 72.2791 19.6206 72.5672 19.8901 72.7215L45.5456 87.5457C45.8053 87.6969 46.1338 87.7058 46.4118 87.5474C46.4115 87.5476 46.4122 87.5472 46.4118 87.5474C49.5531 85.7209 60.61 79.2913 59.9384 79.6818C60.3529 79.4394 60.4936 78.9088 60.252 78.4952C60.0105 78.0782 59.4773 77.9392 59.0654 78.1799L46.8526 85.2827L46.9293 60.3683L56.2489 65.7849C56.527 65.9448 56.8592 65.9368 57.1219 65.7849L71.6825 57.3223L71.6367 70.8805L66.4597 73.8928C66.0452 74.1353 65.9054 74.6658 66.1461 75.0812C66.3892 75.4982 66.9233 75.6324 67.3327 75.3948L72.9395 72.1316C73.2056 71.9756 73.3701 71.6908 73.3709 71.384L73.4218 56.3113L83.6402 50.3724C83.9072 50.2165 84.0716 49.93 84.0716 49.6215C84.0716 49.313 83.9072 49.0265 83.6402 48.8705L74.3167 43.4516L83.6495 38.0215C83.9174 37.8655 84.0818 37.579 84.081 37.2688C84.0801 36.9603 83.9148 36.6738 83.647 36.5195L59.8379 22.7716C60.9763 19.4602 63.6842 11.7033 63.7302 11.4324C63.7852 11.1015 63.66 10.7724 63.3583 10.5738C63.1835 10.4587 52.672 4.30383 52.8467 4.45379C52.478 4.2419 52.0076 4.32496 51.7397 4.65552L38.4239 20.911L25.2197 20.0697C24.5664 20.0132 24.0925 20.7449 24.4079 21.3381C24.542 21.5903 27.2574 26.2541 27.1679 26.0782L9.32926 37.1417C9.07075 37.3027 8.91479 37.5875 8.91903 37.8909ZM38.5517 22.6581C39.0252 22.9333 46.1155 27.0533 45.6654 26.7918L35.8996 26.17L28.7858 22.036L38.5517 22.6581ZM48.9164 51.2048C48.9173 51.2053 48.9185 51.205 48.9193 51.2055C49.3249 51.4382 49.9949 51.2505 50.1726 50.7369L55.7109 34.7124L70.8528 43.4511L46.934 57.3527V50.0527L48.9164 51.2048ZM35.0056 27.6588L46.9336 48.0407C46.7596 47.9397 39.0203 43.446 39.5129 43.732C28.827 25.4504 36.2464 38.1511 30.2063 27.8328L27.5786 23.343C27.7543 23.4451 35.2011 27.7724 35.0056 27.6588ZM33.5231 36.9375L38.1276 44.8055C38.203 44.9343 38.3115 45.0411 38.4412 45.1174C38.7383 45.2922 45.4035 49.1632 45.1981 49.0439V57.3594L22.104 44.0282C22.3452 43.8784 33.9334 36.6827 33.5231 36.9375ZM20.4065 45.057L44.3327 58.8663C44.1586 58.9672 34.8499 64.3673 35.4424 64.0236C24.5002 57.7094 51.0217 73.0136 11.5211 50.2199L20.4065 45.057ZM21.2386 57.8329L35.0127 65.7849C35.2849 65.9434 35.618 65.9383 35.8832 65.7849C36.0568 65.6839 45.367 60.2728 45.193 60.3739L45.1159 85.2928L21.1937 71.4705L21.2386 57.8329ZM56.6854 64.0304L47.797 58.8639L72.5897 44.456L81.4763 49.6215L56.6854 64.0304ZM81.4823 37.2739L72.5886 42.4475C72.0463 42.1347 70.3774 41.1718 56.2881 33.0425L59.2605 24.4423L81.4823 37.2739ZM49.1438 48.3785L37.2138 27.9933L49.2334 28.7591C49.4727 28.7802 49.8309 28.6004 49.9598 28.4421L60.48 15.6012C44.51 61.7837 65.482 1.13893 49.1438 48.3785ZM52.6144 6.32695L61.57 11.5311L49.0852 26.7705C48.9095 26.6684 39.9234 21.4467 40.1296 21.5665L52.6144 6.32695ZM28.0447 27.5775C28.1474 27.7529 32.9506 35.9592 32.6458 35.4386C32.2057 35.7118 19.6479 43.5099 20.3956 43.0456L11.4719 37.8553L28.0447 27.5775Z" fill="white"/>
<path d="M64.0517 75.2846L61.6946 76.6543C61.2801 76.895 61.1386 77.4273 61.3802 77.8409C61.6232 78.2605 62.159 78.3937 62.5659 78.1562L64.923 76.7865C65.3375 76.5458 65.4791 76.0135 65.2375 75.5999C64.9968 75.1829 64.462 75.0439 64.0517 75.2846Z" fill="white"/>
</svg>
