<svg width="93" height="92" viewBox="0 0 93 92" fill="none" xmlns="http://www.w3.org/2000/svg">
<rect x="0.5" width="92" height="92" rx="46" fill="white"/>
<path d="M27.2315 58.183C27.5035 58.3383 27.8495 58.2471 28.0043 57.9757C28.1613 57.7048 28.0684 57.3588 27.7975 57.2024L26.022 56.1775L26.0806 35.2253C29.6884 37.3082 37.8101 41.9971 41.4211 44.0819L41.3626 65.034L35.1196 61.43C34.8487 61.2758 34.5027 61.3659 34.3468 61.6373C34.1898 61.9081 34.2827 62.2542 34.5535 62.4106L41.6423 66.5033C41.8169 66.6039 42.0325 66.6045 42.2072 66.5039C42.2108 66.5018 42.2121 66.4976 42.2156 66.4954L47.566 63.3795L64.3921 73.094C64.5546 73.1876 64.7977 73.203 64.9847 73.0929L67.7762 71.4705C67.9497 71.3699 68.057 71.1842 68.0581 70.983C68.0585 70.8643 68.1076 55.1157 68.1076 55.2295L68.1078 55.2284C68.1078 55.1132 68.0242 54.8541 67.8248 54.7387L65.1297 53.1826L67.7607 51.657C67.9343 51.5558 68.0415 51.3701 68.0426 51.1689L68.1111 28.9121C68.1122 28.7122 67.9999 28.5165 67.8248 28.4152L51.3544 18.9058C51.1787 18.8047 50.9609 18.8047 50.7873 18.9069L25.2372 33.7551L25.236 33.7555L25.2351 33.7564L25.2338 33.7571C25.0523 33.8624 24.9525 34.1309 24.9519 34.2447L24.8889 56.502C24.8878 56.7049 24.9961 56.8923 25.1719 56.994L27.2315 58.183ZM64.0954 48.1523L52.2062 41.2874L64.1345 34.3558L64.0954 48.1523ZM51.0776 41.9432L63.5179 49.1264L60.8207 50.6931C43.7708 40.8512 49.6512 44.2456 48.3792 43.5113L51.0776 41.9432ZM44.9522 60.5632C45.0205 40.7574 44.9969 47.5989 45.002 46.1168C58.226 53.7549 64.298 57.2573 64.1588 57.177L64.1124 71.6253L44.9522 60.5632ZM65.2699 71.6181L65.3152 57.177C65.4286 57.1111 67.0858 56.1481 66.9724 56.214L66.9271 70.6552L65.2699 71.6181ZM64.7492 56.1969C43.9409 44.1788 45.7247 45.2091 45.5926 45.1328L47.2503 44.1695C49.2111 45.3014 40.1528 40.0724 66.4119 55.2306L64.7492 56.1969ZM66.9116 50.8405L64.0007 52.5281L61.9509 51.3453L64.9092 49.6267C65.1176 49.5205 65.2238 49.3109 65.2246 49.1198L65.2699 33.3724C65.271 33.1695 65.1627 32.9822 64.9869 32.8804C64.8111 32.7793 64.5933 32.7798 64.4197 32.881C38.0998 48.1754 45.5776 43.8342 44.1574 44.6423C44.069 44.7568 43.871 44.9097 43.8699 45.1348C43.8645 46.7513 43.8896 39.2899 43.8169 60.8894C43.8158 61.0928 43.9241 61.2807 44.0999 61.3819L46.4348 62.7279L42.4957 65.0224L42.5587 44.0785C74.7452 25.3825 64.3745 31.4065 66.9758 29.8955L66.9116 50.8405ZM51.0725 20.0501L66.413 28.9071C65.4513 29.466 71.8103 25.7707 41.9873 43.1014L26.647 34.2445L51.0725 20.0501Z" fill="black"/>
<path d="M32.1511 61.0237C32.4232 61.1799 32.7697 61.0863 32.9239 60.8164C33.0809 60.5455 32.988 60.1995 32.7172 60.0431L30.2761 58.6335C30.0064 58.4787 29.6593 58.5694 29.5034 58.8408C29.3464 59.1117 29.4393 59.4577 29.7101 59.6141L32.1511 61.0237Z" fill="black"/>
<path d="M61.5443 61.158H61.5376C61.2281 61.158 60.976 61.4068 60.9716 61.7169L60.9285 65.1291C60.924 65.442 61.175 65.6985 61.4879 65.7024H61.4945C61.8041 65.7024 62.0561 65.4536 62.0605 65.1435L62.1037 61.7312C62.1081 61.4184 61.8571 61.1619 61.5443 61.158Z" fill="black"/>
<path d="M59.2646 61.2487C59.2848 53.9649 49.9125 49.4792 49.8963 56.4899C49.8885 59.278 51.8575 62.6875 54.2875 64.0899C57.0274 65.6711 59.2581 64.175 59.2646 61.2487ZM55.1631 63.2555V62.2094C55.1631 61.8965 54.9099 61.6433 54.597 61.6433C54.2842 61.6433 54.031 61.8965 54.031 62.2094V62.5209C53.1021 61.7402 52.2941 60.6286 51.7499 59.4417H52.3473C52.6601 59.4417 52.9133 59.1885 52.9133 58.8756C52.9133 58.5628 52.6601 58.3096 52.3473 58.3096H51.3177C51.1325 57.6899 51.0267 57.0723 51.0283 56.4932C51.0286 56.3752 51.0478 56.2747 51.0563 56.1641L51.3014 56.4092C51.5225 56.6303 51.8807 56.6303 52.1018 56.4092C52.3229 56.188 52.3229 55.8299 52.1018 55.6087L51.4113 54.9185C52.0107 53.9229 52.9955 53.9997 54.031 54.506V55.5419C54.031 55.8547 54.2842 56.1079 54.597 56.1079C54.9099 56.1079 55.1631 55.8547 55.1631 55.5419V55.2472C56.0816 56.0285 56.8805 57.1311 57.4182 58.3096H56.8181C56.5052 58.3096 56.252 58.5628 56.252 58.8756C56.252 59.1885 56.5052 59.4417 56.8181 59.4417H57.8466C58.1308 60.3994 58.1497 60.9992 58.104 61.5818L57.8462 61.3238C57.6251 61.1027 57.2669 61.1027 57.0458 61.3238C56.8247 61.5444 56.8247 61.9032 57.0458 62.1243L57.7469 62.8257C57.1673 63.783 56.1795 63.7439 55.1631 63.2555Z" fill="black"/>
</svg>
