<svg width="93" height="92" viewBox="0 0 93 92" fill="none" xmlns="http://www.w3.org/2000/svg">
<rect x="0.5" width="92" height="92" rx="46" fill="white"/>
<path d="M30.2107 50.9385C30.2118 51.2502 30.465 51.5028 30.7767 51.5028C31.1311 51.5349 31.3439 51.2486 31.3428 50.9351L31.288 32.084C31.4035 32.1511 35.7124 34.6551 35.4391 34.4963L35.5444 71.6187L31.3931 69.2064L31.3638 58.9934C31.3627 58.6817 31.1095 58.4291 30.7977 58.4291H30.7961C30.4838 58.4302 30.2306 58.6839 30.2317 58.9967L30.2621 69.5342C30.2626 69.7354 30.3699 69.9212 30.544 70.0218C30.5805 70.043 30.0369 69.7271 35.8307 73.0946C36.0029 73.1938 36.219 73.1961 36.3962 73.0941L62.5638 57.9868C62.7396 57.8851 62.8474 57.6977 62.8469 57.4949L62.7574 26.0098C62.7579 26.0005 62.7644 25.993 62.7645 25.9836C62.7656 25.7824 62.66 25.5961 62.487 25.4933C61.3404 24.8198 66.6407 27.9329 51.2729 18.907C51.0977 18.8042 50.8805 18.8053 50.7052 18.9059L30.4362 30.6081C30.2363 30.7238 30.1535 30.9838 30.1532 31.0978L30.1535 31.0989L30.1532 31.1L30.2107 50.9385ZM36.6765 71.6248L36.5714 34.4964C41.1704 31.8413 51.195 26.0536 55.71 23.4469C55.7114 23.9453 55.7274 29.683 55.7266 29.3992C55.7272 29.6009 55.8355 29.7872 56.0102 29.8884C56.1854 29.989 56.4015 29.9884 56.5757 29.8878L61.628 26.9714L61.7137 57.1704L36.6765 71.6248ZM56.8559 28.4108C56.8553 28.1965 56.8414 23.2172 56.8421 23.463L61.0774 25.9736L56.8559 28.4108ZM50.9871 20.0502L55.1439 22.4663L36.0051 33.5159C35.829 33.4135 31.6152 30.9644 31.8485 31.1L50.9871 20.0502Z" fill="black"/>
<path d="M30.7922 56.8448C31.1045 56.8437 31.3577 56.59 31.3566 56.2771L31.3494 53.699C31.3483 53.3872 31.0951 53.1346 30.7833 53.1346H30.7817C30.4694 53.1357 30.2162 53.3894 30.2173 53.7023L30.2245 56.2804C30.2256 56.5922 30.4787 56.8448 30.7905 56.8448H30.7922Z" fill="black"/>
<path d="M39.3629 36.8561L53.6581 28.6032C53.9289 28.4467 54.0218 28.1007 53.8654 27.8299C53.7084 27.5579 53.3607 27.4661 53.092 27.6226L38.7968 35.8754C38.526 36.0319 38.4331 36.3779 38.5895 36.6488C38.7464 36.9203 39.0935 37.0117 39.3629 36.8561Z" fill="black"/>
<path d="M39.3629 41.8691L53.6581 33.6163C53.9289 33.4598 54.0218 33.1138 53.8654 32.8429C53.7084 32.5715 53.3607 32.4781 53.092 32.6357L38.7968 40.8885C38.526 41.045 38.4331 41.391 38.5895 41.6619C38.7464 41.9334 39.0935 42.0248 39.3629 41.8691Z" fill="black"/>
<path d="M58.664 49.986L43.6297 58.6656C43.3589 58.8221 43.266 59.1681 43.4224 59.439C43.5793 59.7105 43.9263 59.8019 44.1957 59.6463L59.23 50.9666C59.5009 50.8102 59.5937 50.4642 59.4373 50.1933C59.2803 49.9219 58.9326 49.829 58.664 49.986Z" fill="black"/>
<path d="M39.3629 62.4367L41.7055 61.084C41.9764 60.9276 42.0692 60.5816 41.9128 60.3107C41.7558 60.0393 41.4092 59.947 41.1395 60.1034L38.7968 61.456C38.526 61.6125 38.4331 61.9585 38.5895 62.2294C38.7464 62.5009 39.0935 62.5923 39.3629 62.4367Z" fill="black"/>
<path d="M58.6641 54.9991L56.3784 56.3186C56.1075 56.475 56.0146 56.821 56.1711 57.0919C56.3279 57.3635 56.675 57.4548 56.9444 57.2992L59.2301 55.9797C59.501 55.8233 59.5938 55.4773 59.4374 55.2064C59.2804 54.935 58.9327 54.8427 58.6641 54.9991Z" fill="black"/>
<path d="M54.0588 57.6579L38.7968 66.4691C38.526 66.6255 38.4331 66.9716 38.5895 67.2424C38.7464 67.514 39.0935 67.6053 39.3629 67.4497L54.6249 58.6386C54.8957 58.4821 54.9886 58.1361 54.8322 57.8652C54.6752 57.5938 54.3286 57.501 54.0588 57.6579Z" fill="black"/>
<path d="M38.7372 51.8732C38.5957 52.1308 38.6753 52.4558 38.9202 52.6183C41.4503 54.2928 45.4825 54.6314 49.3117 52.4215C54.7057 49.3072 58.8365 41.9532 59.2898 41.1251C59.4313 40.867 59.3512 40.5436 59.1063 40.3811C58.6265 40.0638 54.2657 37.374 48.7148 40.5779C43.3368 43.6828 39.1922 51.044 38.7372 51.8732ZM48.7717 51.4177C47.6761 52.0495 46.6789 52.1689 45.9636 51.7588C45.2605 51.3536 44.8708 50.4548 44.8675 49.2271C44.8597 46.4223 46.8514 42.9874 49.3068 41.5695C51.525 40.2878 53.1522 41.2317 53.159 43.7895C53.1673 46.5937 51.1989 50.0159 48.7717 51.4177ZM40.0009 51.9384C40.6553 50.8078 42.3019 48.1266 44.5323 45.6202C44.0275 46.812 43.7321 48.0587 43.7354 49.2304C43.7397 50.8533 44.3179 52.0794 45.3553 52.7043C42.8117 53.1527 40.8661 52.3879 40.0009 51.9384ZM58.0262 41.0615C57.3745 42.1899 55.7373 44.8596 53.5139 47.3609C54.0056 46.1812 54.2945 44.9478 54.2911 43.7862C54.2868 42.1525 53.7081 40.9201 52.6705 40.2941C55.2142 39.845 57.1605 40.6105 58.0262 41.0615Z" fill="black"/>
<path d="M48.734 44.115C47.6467 44.743 46.7971 46.21 46.8004 47.4549C46.8051 48.9338 48.0173 49.628 49.3106 48.8799C50.3879 48.2581 51.2292 46.7954 51.2259 45.55C51.2224 44.065 50.0142 43.3766 48.734 44.115ZM48.7445 47.8993C48.2165 48.2039 47.9349 48.0664 47.9325 47.4516C47.9303 46.6036 48.5566 45.5246 49.3001 45.0957C49.8156 44.7983 50.0926 44.9361 50.0938 45.5534C50.096 46.4013 49.478 47.4759 48.7445 47.8993Z" fill="black"/>
</svg>
