<svg width="93" height="92" viewBox="0 0 93 92" fill="none" xmlns="http://www.w3.org/2000/svg">
<rect x="0.5" width="92" height="92" rx="46" fill="white"/>
<path d="M30.5238 34.9405C30.5238 34.9411 30.5238 34.9416 30.5238 34.9422L30.62 68.2185C30.62 68.9138 30.882 69.4384 31.3419 69.6866C31.4692 69.7607 37.1905 73.0895 37.0244 72.9939C37.539 73.2903 38.1563 73.1818 38.6728 72.8844L60.6675 60.1856C61.6857 59.598 62.4806 58.2244 62.4762 57.0602V48.5459C62.4762 48.233 62.223 47.9798 61.9102 47.9798C61.5973 47.9798 61.3441 48.233 61.3441 48.5459V57.0624C61.3463 57.8335 60.7781 58.8147 60.1015 59.205L38.1067 71.9038C37.6831 72.1497 37.429 72.0803 37.4268 71.5213L37.3317 38.2411C37.3292 37.5685 37.8447 36.5188 38.5677 36.1013L42.4 33.8889L42.4053 35.8192L39.3825 37.569C39.2421 37.6906 39.0343 37.9902 38.9889 38.1798C38.9573 38.3081 38.9733 36.5796 39.063 68.4401C39.0647 68.7558 39.3213 69.0045 39.6291 69.0045C39.7263 69.0045 39.8247 68.9791 39.9121 68.9288L59.29 57.7379C59.4426 57.6064 59.6405 57.2924 59.6836 57.1161C59.7153 56.9877 59.6987 58.7163 59.6206 26.8557C59.6206 26.6539 59.5122 26.4677 59.3365 26.3665C59.1618 26.2659 58.9462 26.2664 58.7715 26.367L56.2629 27.8163L56.2574 25.8886L60.5636 23.4025C61.0402 23.125 61.2478 23.273 61.2501 23.7812L61.3043 42.7926C61.3054 43.1044 61.5586 43.357 61.8704 43.357C62.1832 43.3559 62.4375 43.1022 62.4364 42.7893L62.3822 23.7773C62.3798 23.0639 62.0568 22.5455 61.6603 22.3152L55.9734 19.0102C55.4991 18.7366 54.8966 18.7792 54.3217 19.1175C46.0792 23.8754 40.5526 27.0657 32.3181 31.819C31.3121 32.4116 30.5238 33.7825 30.5238 34.9405ZM49.9703 22.9366L54.5521 25.5644L42.9582 32.2566L38.3975 29.6273L49.9703 22.9366ZM55.1276 26.5439L55.1476 33.6045C55.1487 34.1166 54.7015 34.8532 54.2874 35.092L43.8533 41.1166C43.5881 41.269 43.557 41.1917 43.557 40.9508C43.5566 40.8215 43.5287 32.7245 43.5305 33.2392C58.512 24.5901 53.0884 27.7213 55.1276 26.5439ZM58.4907 27.8363L58.5681 56.8446C58.5626 56.8529 58.557 56.8612 58.5515 56.869L40.1918 67.4601L40.1044 38.4573C40.1089 38.4517 40.1122 38.4462 40.1166 38.4407L42.4089 37.122L42.4194 40.953C42.4242 42.1325 43.4242 42.6643 44.4172 42.0989L54.859 36.0732C55.6705 35.5956 56.2818 34.5342 56.2818 33.6028L56.2708 29.1193L58.4907 27.8363ZM54.8922 20.0953C55.1033 19.9709 55.3001 19.93 55.4062 19.9897L59.793 22.5391L55.6859 24.9099L51.1044 22.2818L54.8922 20.0953ZM32.8886 32.7969L37.2559 30.2758L41.8255 32.9104L37.9973 35.1202C36.989 35.7022 36.1986 37.0748 36.1986 38.2461L36.2936 71.2598L31.8958 68.6994C31.8239 68.6607 31.7521 68.4971 31.7521 68.2168L31.6559 34.9394C31.657 34.1711 32.223 33.1888 32.8886 32.7969Z" fill="black"/>
<path d="M61.8725 44.1121C61.5608 44.1132 61.3076 44.3674 61.3087 44.6798L61.3142 46.4011C61.3154 46.7134 61.5685 46.9655 61.8803 46.9655H61.8825C62.1943 46.9644 62.4474 46.7101 62.4463 46.3978L62.4408 44.6764C62.4397 44.3641 62.1865 44.1121 61.8748 44.1121H61.8725Z" fill="black"/>
<path d="M56.0685 53.0676L41.9054 61.2431C41.6346 61.3995 41.5417 61.7455 41.6987 62.0164C41.8527 62.285 42.1982 62.3805 42.4715 62.2237L56.6346 54.0482C56.9054 53.8917 56.9983 53.5457 56.8413 53.2749C56.6865 53.004 56.3394 52.9111 56.0685 53.0676Z" fill="black"/>
<path d="M55.0603 38.6264C54.1007 39.1808 53.3522 40.4799 53.3544 41.5837C53.355 41.9232 53.433 42.2228 53.5689 42.4716L51.8069 45.5217C51.4149 45.4122 50.9604 45.4797 50.5132 45.7373C50.0149 46.0252 49.5762 46.5152 49.2671 47.073L47.9347 46.779C47.9469 46.6742 47.9596 46.5692 47.9594 46.4669C47.9571 45.1214 46.854 44.485 45.6775 45.1613C44.7179 45.7157 43.9695 47.0147 43.9717 48.1175C43.9728 48.7435 44.2226 49.2454 44.6536 49.5062L43.6126 53.2666C43.4235 53.3101 43.2321 53.3746 43.0408 53.4849C42.0812 54.0393 41.3328 55.3383 41.335 56.4422C41.3373 57.7791 42.453 58.4198 43.6168 57.7468C44.5764 57.1929 45.3249 55.8944 45.3227 54.7906C45.3216 54.2077 45.102 53.7406 44.7308 53.4666L45.7954 49.621C45.9476 49.576 46.1014 49.5109 46.2535 49.4231C46.8166 49.0981 47.3019 48.5147 47.6105 47.8667L48.8689 48.1444C48.8319 48.3301 48.8059 48.5151 48.8062 48.6946C48.8109 50.0402 49.9292 50.6672 51.088 49.9991C52.0488 49.4447 52.7983 48.1457 52.7939 47.0429C52.7934 46.7731 52.7388 46.533 52.6533 46.3182L54.4944 43.1312C54.8118 43.1817 55.1683 43.1589 55.6363 42.8883C56.5959 42.3344 57.3443 41.0359 57.3421 39.9321C57.3398 38.5865 56.2367 37.9502 55.0603 38.6264ZM43.0508 56.7662C42.6684 56.9869 42.4691 56.9265 42.467 56.4395C42.4648 55.7275 42.9878 54.8237 43.6069 54.4655C44.0176 54.2281 44.1885 54.3206 44.1906 54.7933C44.1928 55.5053 43.6699 56.4085 43.0508 56.7662ZM45.6875 48.4425C45.305 48.6643 45.1058 48.6009 45.1038 48.1153C45.1015 47.4039 45.6245 46.5001 46.2436 46.1419C46.6373 45.9154 46.8251 45.9768 46.8273 46.4697C46.8295 47.1817 46.3066 48.0849 45.6875 48.4425ZM50.522 49.0185C50.1436 49.2382 49.9404 49.1817 49.9383 48.6913C49.9361 47.9793 50.459 47.0755 51.0792 46.7179C51.4697 46.4932 51.6596 46.5494 51.6618 47.0462C51.664 47.7571 51.1422 48.6603 50.522 49.0185ZM56.21 39.9348C56.2123 40.6468 55.6893 41.55 55.0702 41.9077C54.6878 42.1284 54.4886 42.068 54.4865 41.581C54.4843 40.869 55.0072 39.9652 55.6263 39.607C56.02 39.3805 56.2078 39.442 56.21 39.9348Z" fill="black"/>
</svg>
