<svg width="93" height="92" viewBox="0 0 93 92" fill="none" xmlns="http://www.w3.org/2000/svg">
<rect x="0.5" width="92" height="92" rx="46" fill="white"/>
<path d="M21.6115 69.3301C21.6126 69.5313 21.7187 69.717 21.8934 69.8176L27.5294 73.0928C27.7022 73.1945 27.92 73.1956 28.0966 73.0939C55.5336 57.2128 46.0582 62.6494 48.0987 61.4629C48.58 63.0213 49.4554 64.216 50.6828 64.9323C51.0929 65.1653 49.1972 64.0881 54.6937 67.2113C56.948 68.5085 59.6502 67.8423 61.8853 66.5519C67.1875 63.4912 71.4858 56.036 71.4692 49.9323C71.4604 46.8819 70.3926 44.5881 68.4639 43.4663C68.1627 43.2911 64.3534 41.1231 64.4667 41.1918C64.4521 41.1833 64.4361 41.1785 64.4215 41.1702L64.365 22.6701C64.3639 22.4684 64.2567 22.2821 64.0809 22.1809C64.078 22.1793 64.0745 22.18 64.0715 22.1784L58.4426 18.9069C58.269 18.8052 58.0513 18.8052 57.8755 18.9058L38.4632 30.1137C38.1924 30.2702 38.0995 30.6162 38.2565 30.8871C38.4113 31.1579 38.7573 31.2486 39.0293 31.0944L58.1574 20.05L62.6658 22.6701C14.7763 50.3155 31.313 40.7693 27.7317 42.8367L23.2256 40.2179L30.175 36.2064C30.4459 36.05 30.5387 35.7039 30.3817 35.4331C30.227 35.1617 29.8787 35.0704 29.609 35.2258L21.8138 39.7259C21.6125 39.8424 21.5308 40.0576 21.5308 40.2151L21.5311 40.2165L21.5308 40.2179L21.6115 69.3301ZM22.665 41.2012L27.1666 43.8173L27.2418 71.6165L22.7424 69.0023L22.665 41.2012ZM70.3371 49.9356C70.3537 55.6772 66.3074 62.6919 61.3192 65.5713C56.5194 68.3441 52.8148 66.1854 52.7988 60.7113C52.7821 54.9358 56.8732 47.9485 61.8245 45.0894C63.2512 44.2659 65.043 43.6532 66.6634 43.9855C69.3462 44.539 70.3291 47.2075 70.3371 49.9356ZM64.9885 42.7916C63.9673 42.9046 62.6054 43.3316 61.2584 44.1088C56.0456 47.1188 51.6501 54.5572 51.6623 60.7146C51.6692 62.2577 51.9685 63.6194 52.4196 64.6177L51.2477 63.9516C49.4108 62.8795 48.8109 60.5651 48.8012 58.4383C48.7888 52.5971 52.9663 45.6255 57.8301 42.8175C59.5823 41.8053 61.8022 41.1568 63.6099 42.0304L63.6128 42.0309C64.1117 42.2695 63.7214 42.0838 64.9885 42.7916ZM57.2663 41.8347C51.8635 44.9616 47.6559 52.4781 47.6669 58.4449C47.6669 59.1155 47.7592 59.9614 47.8183 60.3172L28.3766 71.5369L28.2998 43.8183C31.8854 41.7484 15.3592 51.2887 63.2362 23.6502L63.2882 40.6999C63.2528 40.6897 63.215 40.6856 63.1793 40.6761C61.2068 40.1554 59.021 40.8179 57.2663 41.8347Z" fill="black"/>
<path d="M35.7956 31.6537L32.7786 33.3961C32.5077 33.5525 32.4149 33.8985 32.5719 34.1694C32.7259 34.4391 33.0722 34.5331 33.3446 34.3767L36.3617 32.6344C36.6325 32.4779 36.7254 32.1319 36.5684 31.861C36.4125 31.5891 36.0654 31.4973 35.7956 31.6537Z" fill="black"/>
<path d="M36.4191 58.666L31.17 61.6958C30.9942 61.7975 30.8859 61.9849 30.887 62.1877L30.8947 64.9986C30.8958 65.2004 31.0031 65.3866 31.1788 65.4878C31.3535 65.5884 31.5691 65.5878 31.7438 65.4872L36.9929 62.4569C37.1687 62.3552 37.277 62.1678 37.2759 61.965L37.2682 59.1547C37.2658 58.7209 36.7965 58.4487 36.4191 58.666ZM32.0246 64.018L32.0202 62.5122L36.1383 60.1353L36.1427 61.6405L32.0246 64.018Z" fill="black"/>
<path d="M44.9451 54.0686C44.7704 53.968 44.5548 53.9685 44.3802 54.0691L39.1321 57.0989C38.9564 57.2006 38.848 57.388 38.8491 57.5908L38.8569 60.4017C38.858 60.6034 38.9652 60.7897 39.141 60.8909C39.3156 60.9915 39.5312 60.9909 39.7059 60.8903L44.9539 57.86C45.1297 57.7583 45.2381 57.5709 45.237 57.3681L45.2292 54.5578C45.2281 54.356 45.1209 54.1697 44.9451 54.0686ZM39.9867 59.4211L39.9823 57.9153L44.0994 55.5384L44.1038 57.0436L39.9867 59.4211Z" fill="black"/>
<path d="M37.2428 44.8761C37.0681 44.7755 36.8514 44.7755 36.6767 44.8761L30.8516 48.2386C30.6758 48.3398 30.5686 48.5272 30.5686 48.73L30.5797 55.0239C30.5797 55.2262 30.688 55.4125 30.8638 55.5136C31.0317 55.6104 31.2468 55.6178 31.4298 55.5125L37.2549 52.1384C37.4296 52.0373 37.5368 51.8499 37.5368 51.6476L37.5258 45.3653C37.5258 45.1636 37.4174 44.9767 37.2428 44.8761ZM31.7095 54.0416L31.7018 49.0556L36.3959 46.3459L36.4037 51.3225L31.7095 54.0416Z" fill="black"/>
<path d="M60.6979 28.5372C60.5232 28.4366 60.3065 28.4366 60.1319 28.5372L51.3074 33.631C51.1317 33.7322 51.0244 33.9196 51.0244 34.1224L51.0333 39.1759C51.0333 39.3776 51.1416 39.5645 51.3174 39.6651C51.4896 39.7654 51.7064 39.767 51.8823 39.6645L60.7068 34.5591C60.8825 34.458 60.9898 34.2706 60.9898 34.0683L60.9809 29.0264C60.9809 28.8247 60.8726 28.6378 60.6979 28.5372ZM52.1631 38.1942L52.1576 34.448L59.8511 30.0071L59.8566 33.7432L52.1631 38.1942Z" fill="black"/>
<path d="M63.5259 54.8193C64.0665 53.9338 64.3716 52.9515 64.3694 52.0798C64.3672 51.1506 64.0201 50.4402 63.3932 50.0793C62.7642 49.7189 61.9737 49.7769 61.1655 50.2424C59.683 51.0986 58.5255 53.1002 58.531 54.7999C58.5332 55.6672 58.8395 56.3466 59.3724 56.7159L58.2956 60.5919C58.2336 60.8135 58.3121 61.0501 58.4934 61.1905C58.6706 61.3282 58.9192 61.3512 59.1236 61.2337L64.5772 58.0851C64.837 57.9347 64.9354 57.6075 64.7995 57.3394L63.5259 54.8193ZM59.7571 59.561L60.5896 56.5627C60.6743 56.2615 60.4955 55.9463 60.1916 55.8646C59.7162 55.7369 59.6642 55.0752 59.6631 54.7966C59.6598 53.5092 60.6061 51.8725 61.7316 51.223C62.1683 50.9704 62.5685 50.9101 62.8283 51.0605C63.087 51.2091 63.2362 51.5823 63.2373 52.0831C63.2395 52.8144 62.9289 53.7044 62.4071 54.4639C62.2899 54.6347 62.2755 54.8552 62.3684 55.0399L63.548 57.372L59.7571 59.561Z" fill="black"/>
</svg>
