<svg width="93" height="92" viewBox="0 0 93 92" fill="none" xmlns="http://www.w3.org/2000/svg">
<rect x="0.5" width="92" height="92" rx="46" fill="white"/>
<path d="M25.388 69.7824C25.3885 69.9836 25.4957 70.1693 25.6699 70.2699C26.2029 70.58 23.7388 69.1467 30.883 73.3024C31.0519 73.3997 31.267 73.4058 31.4485 73.3019L47.5608 64.004C47.9796 64.6355 48.5071 65.1487 49.1411 65.5183L52.691 67.5381C52.6944 67.5401 52.6984 67.5392 52.7018 67.541L52.7065 67.5442C54.7184 68.7019 57.1341 68.1279 59.1612 66.9577C63.8912 64.227 67.7269 57.5756 67.7114 52.1302C67.7037 49.3857 66.7375 47.3205 64.9912 46.3156C64.8779 46.2504 61.3428 44.2411 61.4563 44.3068C60.5868 43.8001 59.5847 43.5967 58.5029 43.6866L58.4597 30.3234L58.4586 30.3192L58.437 22.2164C58.4364 22.0213 58.257 21.7878 58.1557 21.7289L52.943 18.6991C52.7678 18.5963 52.5506 18.5974 52.3753 18.698L39.3145 26.2389C39.0436 26.3954 38.9507 26.7414 39.1072 27.0123C39.2631 27.2831 39.6096 27.3743 39.8805 27.2196L52.6573 19.8423L56.7416 22.2164L31.0679 37.0388L26.9838 34.6654L32.3976 31.54C32.6685 31.3836 32.7614 31.0376 32.6049 30.7667C32.4479 30.4953 32.1003 30.4035 31.8316 30.5594L25.5715 34.1734C25.3945 34.2759 25.289 34.4644 25.2885 34.6632L25.2887 34.6643L25.2885 34.6654L25.388 69.7824ZM57.3077 23.197L57.3254 29.9994L31.6533 44.8195L31.6362 38.7764L31.6343 38.0192C37.5685 34.5932 51.3026 26.664 57.3077 23.197ZM26.4233 35.6489L30.5019 38.0191C30.5116 41.4757 30.4669 25.4976 30.5966 71.8242L26.5189 69.4546L26.4233 35.6489ZM66.5794 52.1335C66.5937 57.2174 63.0123 63.4277 58.5951 65.9771C56.5526 67.1562 54.6627 67.3629 53.2708 66.5631C49.5805 64.439 51.2969 57.5729 53.448 53.8498C54.8956 51.3455 56.897 49.1566 59.107 47.8805C59.1225 47.8716 59.1375 47.8652 59.153 47.8564C63.4428 45.407 66.566 47.4611 66.5794 52.1335ZM60.8919 45.288L61.6929 45.7435C60.6226 45.8949 59.4501 46.373 58.541 46.8993C56.3782 48.1478 54.408 50.2171 52.9011 52.6106C51.1091 55.4558 49.9736 58.7613 49.9802 61.7141C49.9857 62.9931 50.2451 64.2247 50.5827 65.0363L49.706 64.5377C49.0737 64.1687 48.5779 63.5965 48.2188 62.8679C47.7475 61.9168 47.567 60.7279 47.5624 59.6916C47.5583 57.6403 48.1975 54.8917 49.7502 52.1103C49.7586 52.0954 49.7651 52.0793 49.7719 52.0634C51.4557 49.0659 53.6192 46.98 55.5604 45.8612C57.2032 44.9213 59.2489 44.3318 60.8919 45.288ZM54.9905 44.8806C52.4557 46.3442 50.3047 48.8256 48.8351 51.4237L34.2334 59.8458C33.9625 60.0022 33.8697 60.3482 34.0261 60.6191C34.1809 60.8863 34.5246 60.9841 34.7994 60.8264L47.913 53.2627C47.1384 55.0028 46.6106 56.8475 46.4684 58.7639L34.2334 65.8234C33.9625 65.9799 33.8697 66.3259 34.0261 66.5968C34.1841 66.8694 34.5312 66.959 34.7994 66.8041L46.4445 60.0849C46.4955 61.3095 46.7322 62.2913 47.0295 63.0038L31.7299 71.8326L31.6571 46.1271L57.3309 31.3041L57.3713 43.8873C57.3536 43.8918 57.3353 43.9007 57.3176 43.9054C56.531 44.1137 55.6514 44.4988 54.9905 44.8806Z" fill="black"/>
<path d="M34.7773 30.1664L37.236 28.7463C37.5069 28.5899 37.5997 28.2438 37.4433 27.973C37.2858 27.7016 36.9392 27.6087 36.67 27.7657L34.2113 29.1858C33.9404 29.3422 33.8475 29.6882 34.004 29.9591C34.1608 30.2307 34.5079 30.322 34.7773 30.1664Z" fill="black"/>
<path d="M43.0882 37.149C44.0213 36.6101 44.7504 35.347 44.7477 34.273C44.743 32.985 43.6545 32.3518 42.5134 33.0093C41.5764 33.5505 40.8445 34.8091 40.8473 35.8749C40.8519 37.1914 41.935 37.8142 43.0882 37.149ZM43.0794 33.9899C43.4468 33.7777 43.6145 33.8506 43.6156 34.2763C43.6172 34.9468 43.1065 35.8312 42.5222 36.1684C42.1409 36.3913 41.9805 36.3221 41.9794 35.8716C41.9777 35.2088 42.4918 34.3293 43.0794 33.9899Z" fill="black"/>
<path d="M48.5933 33.9706C49.527 33.4317 50.2561 32.1686 50.2527 31.0945C50.2493 29.8048 49.1645 29.1709 48.0184 29.8309C47.0843 30.3704 46.3557 31.6274 46.359 32.6926C46.3625 34.0112 47.4494 34.6322 48.5933 33.9706ZM48.5845 30.8115C48.9853 30.5804 49.1197 30.7043 49.1207 31.0979C49.1229 31.7689 48.6121 32.6528 48.0273 32.99C47.6652 33.1991 47.4922 33.1574 47.4911 32.6893C47.4889 32.0265 47.9996 31.1487 48.5845 30.8115Z" fill="black"/>
<path d="M54.0983 30.7927C55.032 30.2531 55.7611 28.9901 55.7583 27.916C55.7536 26.6196 54.6615 25.9938 53.5234 26.6524C52.5904 27.1913 51.8613 28.4483 51.864 29.5141C51.8687 30.8289 52.9504 31.4545 54.0983 30.7927ZM54.0895 27.633C54.4552 27.4222 54.6251 27.4844 54.6262 27.9193C54.6279 28.602 54.1271 29.4688 53.5323 29.812C53.166 30.0258 52.9972 29.9716 52.9961 29.5108C52.9944 28.848 53.5052 27.9702 54.0895 27.633Z" fill="black"/>
<path d="M39.4521 46.0994C39.5483 46.0994 39.6456 46.0751 39.7346 46.0237L54.8241 37.3115C55.095 37.1551 55.1878 36.809 55.0314 36.5382C54.8744 36.2667 54.5267 36.1733 54.2581 36.3309L39.1685 45.0431C38.8977 45.1995 38.8048 45.5456 38.9612 45.8164C39.0663 45.9983 39.2564 46.0994 39.4521 46.0994Z" fill="black"/>
<path d="M54.2581 42.3085L39.1685 51.0208C38.8977 51.1772 38.8048 51.5232 38.9612 51.7941C39.0663 51.9759 39.2564 52.0771 39.4521 52.0771C39.5483 52.0771 39.6456 52.0528 39.7346 52.0014L54.8241 43.2891C55.095 43.1327 55.1878 42.7867 55.0314 42.5158C54.8744 42.2444 54.5267 42.1515 54.2581 42.3085Z" fill="black"/>
<path d="M37.3549 51.285C36.9033 51.0252 36.3234 51.0628 35.7618 51.3867C35.5247 51.5244 35.3621 51.5277 35.2964 51.4901C35.2311 51.4525 35.1549 51.3138 35.1543 51.0451C35.1521 50.3304 35.6966 49.3884 36.319 49.0291C36.5539 48.8926 36.7142 48.8887 36.7806 48.9274C36.8458 48.965 36.9226 49.1043 36.9232 49.3735C36.9243 49.6864 37.1774 49.8859 37.4909 49.9379C37.8037 49.9368 38.0564 49.6825 38.0552 49.3702C38.053 48.724 37.7943 48.205 37.3449 47.9463C37.1229 47.8186 36.869 47.7648 36.602 47.7798V46.9922C36.602 46.6793 36.3488 46.4261 36.036 46.4261C35.7231 46.4261 35.4699 46.6793 35.4699 46.9922V48.2439C34.6366 48.8772 34.0193 50.0403 34.0222 51.0479C34.0239 51.6941 34.2826 52.2131 34.7314 52.4713C35.1842 52.7327 35.7651 52.6929 36.3284 52.3673C36.5639 52.2314 36.7242 52.2275 36.79 52.2662C36.8552 52.3038 36.932 52.4431 36.9326 52.7117C36.9348 53.4237 36.3925 54.3623 35.7717 54.7205C35.5341 54.8576 35.3721 54.8625 35.3047 54.8238C35.24 54.7863 35.1643 54.6486 35.1637 54.3833C35.1626 54.071 34.9094 53.8189 34.5977 53.8189H34.596C34.2831 53.82 34.0305 54.0743 34.0316 54.3866C34.0338 55.03 34.292 55.5469 34.7403 55.805C34.9387 55.9189 35.162 55.9758 35.3986 55.9758C35.4218 55.9758 35.4466 55.9664 35.4699 55.9653V56.7702C35.4699 57.083 35.7231 57.3362 36.036 57.3362C36.3488 57.3362 36.602 57.083 36.602 56.7702V55.5188C37.4424 54.89 38.0677 53.7211 38.0646 52.7084C38.063 52.0622 37.8037 51.5437 37.3549 51.285Z" fill="black"/>
<path d="M60.6597 56.4772C61.1351 55.6867 61.4027 54.8145 61.4004 54.0389C61.3982 53.202 61.0704 52.5343 60.5016 52.2065C59.9306 51.8792 59.1866 51.9306 58.458 52.3519C57.1231 53.1219 56.0811 54.9256 56.0855 56.4573C56.0878 57.2306 56.3553 57.8409 56.8235 58.1858L55.8783 61.5887C55.8169 61.8103 55.8954 62.0469 56.0773 62.1879C56.1784 62.2664 56.3011 62.3062 56.4238 62.3062C56.5211 62.3062 56.619 62.2813 56.7069 62.2304L61.5541 59.4318C61.8145 59.2814 61.9118 58.9542 61.7763 58.6861L60.6597 56.4772ZM57.3398 60.5577L58.039 58.041C58.0794 57.8956 58.06 57.7403 57.9854 57.6093C57.9102 57.4783 57.7864 57.3821 57.641 57.3428C57.2607 57.2406 57.2182 56.6872 57.2176 56.454C57.2143 55.3285 58.0413 53.8991 59.0241 53.3325C59.2629 53.1943 59.4862 53.1241 59.6714 53.1241C59.7725 53.1241 59.8621 53.1451 59.9367 53.1876C60.1462 53.3087 60.2673 53.6199 60.2684 54.0422C60.27 54.679 59.9986 55.4573 59.5415 56.1234C59.4248 56.2937 59.4099 56.5142 59.5033 56.6989L60.5243 58.7187L57.3398 60.5577Z" fill="black"/>
</svg>
