<svg width="93" height="92" viewBox="0 0 93 92" fill="none" xmlns="http://www.w3.org/2000/svg">
<path d="M87.5975 42.6059C87.6417 42.3052 87.6104 42.685 87.6389 35.3359C87.6392 35.331 87.6414 35.3266 87.6416 35.3218C87.6423 35.3107 87.6385 35.3004 87.639 35.2893C87.639 35.2841 87.6389 35.3084 87.6391 35.2379C87.6391 35.2249 87.6323 35.2142 87.6318 35.2014C87.623 34.5921 87.3175 34.0272 86.7398 33.6029C83.3757 31.1237 79.6362 28.6937 75.6271 26.3789C71.2816 23.8709 65.5612 20.9061 61.0563 18.8261C59.768 18.226 57.9711 18.2904 56.7854 18.9778L11.4219 45.341C7.50777 47.6151 5.35406 50.6918 5.35915 54.005C5.35915 54.0184 5.36233 54.0314 5.36243 54.0448L5.34559 61.0383C5.32609 64.3879 7.50862 67.4985 11.4897 69.7963C15.8276 72.3077 21.726 73.5842 27.4378 73.5842C32.5411 73.5842 37.4961 72.5645 41.0508 70.4964L65.4366 56.3257C65.8511 56.085 65.9927 55.5536 65.7511 55.1399C65.5104 54.7229 64.9773 54.5831 64.5653 54.8255L40.1787 68.9962C33.2302 73.0341 19.9715 72.7019 12.3585 68.2936C8.93934 66.3204 7.06534 63.7471 7.08144 61.0451L7.08652 58.9481C7.95604 60.1252 9.45002 61.539 11.5084 62.7334C13.5165 63.8885 16.1868 64.9607 19.66 65.6911C28.364 67.5156 36.5965 66.0223 41.0687 63.4318C45.6531 60.7666 24.4636 73.0855 85.8981 37.3694L85.8854 42.3025C85.8854 42.3355 85.8719 42.3957 85.8583 42.4516L73.4421 49.6671C73.0276 49.9078 72.886 50.4384 73.1276 50.8529C73.3683 51.269 73.8989 51.4063 74.3134 51.1673L87.2221 43.6662C87.5958 43.4492 87.7476 42.9975 87.5975 42.6059ZM12.2941 46.8413L57.6575 20.4789C58.3541 20.0745 59.5492 20.0388 60.3266 20.4009C64.7899 22.4614 70.4552 25.3983 74.7592 27.8825C78.7132 30.1651 82.3976 32.5595 85.7117 35.0005C85.8717 35.1186 85.9054 35.205 85.9055 35.2238C85.9054 35.2277 85.9033 35.2309 85.9033 35.2349L85.8985 35.2434C85.8885 35.2777 85.8185 35.4013 85.571 35.5464C23.3838 71.6932 44.8322 59.2261 40.1922 61.9231C35.0102 64.9349 26.8433 65.2434 20.83 64.1481C17.7055 63.5769 14.7665 62.5984 12.3805 61.2205C9.54854 59.5856 7.79245 57.5345 7.27331 55.3442C6.41332 51.6866 9.03255 48.7364 12.2941 46.8413Z" fill="white"/>
<path d="M68.7415 54.405L71.2918 52.9235C71.7063 52.6828 71.8479 52.1522 71.6063 51.7377C71.3656 51.3215 70.8308 51.1817 70.4205 51.4233L67.8701 52.9048C67.4557 53.1455 67.3141 53.6761 67.5557 54.0906C67.7167 54.3686 68.0075 54.5229 68.3067 54.5229C68.455 54.5229 68.605 54.4847 68.7415 54.405Z" fill="white"/>
<path d="M56.7846 27.3554C58.3068 28.2346 60.698 28.2419 62.2278 27.3537C64.0758 26.2807 64.0784 24.2565 62.2329 23.1895C60.6954 22.3012 58.2899 22.3063 56.7558 23.198C54.9234 24.2642 54.933 26.2869 56.7846 27.3554ZM57.6288 24.6982C58.6357 24.1122 60.3478 24.106 61.365 24.6931C62.0525 25.09 62.0326 25.4601 61.3556 25.8526C60.3724 26.4239 58.6425 26.423 57.6526 25.8517C56.9951 25.4721 56.9278 25.1054 57.6288 24.6982Z" fill="white"/>
<path d="M73.2972 36.889C74.8266 37.7714 77.2158 37.7743 78.7404 36.8881C80.5983 35.8086 80.5832 33.7853 78.7463 32.7239C77.2147 31.8399 74.8135 31.8475 73.2802 32.7383C71.4496 33.8015 71.455 35.8248 73.2972 36.889ZM74.1532 34.2386C75.1657 33.6506 76.872 33.6459 77.8784 34.2275C78.5624 34.6224 78.5496 34.9912 77.8682 35.387C76.8867 35.9566 75.1568 35.9583 74.1651 35.3853C73.5252 35.0162 73.4448 34.6508 74.1532 34.2386Z" fill="white"/>
<path d="M39.07 40.6158C39.3364 40.7693 39.6678 40.7726 39.9404 40.6141L43.3562 38.6291C43.6232 38.474 43.7876 38.1875 43.7876 37.8781C43.7876 37.5679 43.6215 37.2823 43.3536 37.1272L38.4885 34.3174C38.219 34.1615 37.8859 34.1615 37.618 34.3191L34.2014 36.305C33.9345 36.4601 33.7692 36.7466 33.77 37.0568C33.7709 37.3662 33.9361 37.6518 34.204 37.8069L39.07 40.6158ZM38.0562 36.0719L41.1881 37.8815L39.5022 38.8613L36.3696 37.0526L38.0562 36.0719Z" fill="white"/>
<path d="M45.7201 36.7508C45.9865 36.9043 46.3179 36.9076 46.5906 36.7491L50.0063 34.7641C50.2733 34.609 50.4386 34.3225 50.4377 34.0131C50.4369 33.7029 50.2716 33.4173 50.0038 33.2622L45.1387 30.4533C44.8691 30.2982 44.5369 30.2965 44.269 30.455L40.8524 32.44C40.5846 32.5951 40.4193 32.8816 40.4202 33.191C40.421 33.5012 40.5863 33.7868 40.8541 33.942L45.7201 36.7508ZM44.7064 32.2078L47.8382 34.0165L46.1524 34.9963L43.0197 33.1876L44.7064 32.2078Z" fill="white"/>
<path d="M52.3593 32.8926C52.6257 33.046 52.9571 33.0493 53.2297 32.8909L56.6455 30.9058C56.9125 30.7507 57.0778 30.4642 57.0769 30.1549C57.0761 29.8447 56.9108 29.559 56.6429 29.4039L51.7778 26.595C51.5083 26.4399 51.176 26.4382 50.9082 26.5967L47.4916 28.5818C47.2238 28.7369 47.0585 29.0233 47.0593 29.3327C47.0602 29.6429 47.2255 29.9286 47.4933 30.0837L52.3593 32.8926ZM51.3456 28.3495L54.4774 30.1583L52.7915 31.1381L49.6589 29.3293L51.3456 28.3495Z" fill="white"/>
<path d="M66.5613 42.822L61.6962 40.0123C61.4266 39.8563 61.0935 39.8563 60.8257 40.014L57.4099 41.9998C57.1429 42.155 56.9777 42.4414 56.9785 42.7517C56.9794 43.061 57.1446 43.3467 57.4125 43.5018L62.2776 46.3106C62.544 46.4641 62.8754 46.4674 63.1481 46.309L66.5638 44.3239C66.8308 44.1688 66.9952 43.8823 66.9952 43.573C66.9952 43.2627 66.8291 42.9771 66.5613 42.822ZM62.7099 44.5562L59.5781 42.7474L61.2639 41.7668L64.3957 43.5763L62.7099 44.5562Z" fill="white"/>
<path d="M63.6177 38.8934C63.6185 39.2028 63.7838 39.4884 64.0516 39.6435L68.9168 42.4524C69.1832 42.6059 69.5146 42.6092 69.7872 42.4507L73.203 40.4657C73.47 40.3106 73.6344 40.0241 73.6344 39.7147C73.6344 39.4045 73.4683 39.1189 73.2004 38.9638L68.3353 36.154C68.0658 35.9989 67.7327 35.9981 67.4649 36.1557L64.0491 38.1416C63.7821 38.2967 63.6168 38.5832 63.6177 38.8934ZM67.9031 37.9085L71.0349 39.7181L69.349 40.6979L66.2172 38.8892L67.9031 37.9085Z" fill="white"/>
<path d="M52.0669 42.6576C52.066 42.3473 51.9008 42.0617 51.6329 41.9066L46.767 39.0977C46.4974 38.9418 46.166 38.9418 45.8965 39.0994L42.4807 41.0844C42.2138 41.2396 42.0485 41.526 42.0493 41.8354C42.0502 42.1456 42.2154 42.4313 42.4833 42.5864L47.3484 45.3953C47.6154 45.549 47.9476 45.5517 48.218 45.3936L51.6346 43.4085C51.9025 43.2534 52.0677 42.9669 52.0669 42.6576ZM47.7807 43.6408L44.6489 41.832L46.3347 40.8522L49.4674 42.6609L47.7807 43.6408Z" fill="white"/>
<path d="M53.9985 41.5312C54.2682 41.6865 54.6013 41.6861 54.869 41.5295L58.2856 39.5436C58.5526 39.3885 58.7179 39.102 58.717 38.7918C58.7162 38.4824 58.5509 38.1968 58.2831 38.0417L53.4171 35.2328C53.1476 35.0777 52.8162 35.0768 52.5466 35.2345L49.1309 37.2195C48.8639 37.3746 48.6995 37.6611 48.6995 37.9705C48.6995 38.2807 48.8656 38.5663 49.1334 38.7214L53.9985 41.5312ZM52.9848 36.9873L56.1175 38.796L54.4308 39.7767L51.299 37.9671L52.9848 36.9873Z" fill="white"/>
<path d="M59.1858 31.3763L55.77 33.3613C55.5031 33.5164 55.3378 33.8029 55.3386 34.1123C55.3395 34.4225 55.5048 34.7081 55.7726 34.8632L60.6377 37.6721C60.9047 37.8259 61.2369 37.8286 61.5073 37.6704L64.9239 35.6854C65.1918 35.5303 65.357 35.2438 65.3562 34.9344C65.3554 34.6242 65.1901 34.3386 64.9222 34.1835L60.0563 31.3746C59.7867 31.2195 59.4553 31.2178 59.1858 31.3763ZM61.07 35.9176L57.9382 34.1089L59.624 33.1291L62.7567 34.9378L61.07 35.9176Z" fill="white"/>
<path d="M55.046 43.8773C54.7765 43.7213 54.4451 43.7213 54.1755 43.8789L50.7598 45.864C50.4928 46.0191 50.3275 46.3056 50.3284 46.6149C50.3292 46.9252 50.4945 47.2108 50.7623 47.3659L55.6275 50.1748C55.8939 50.3282 56.2253 50.3316 56.4979 50.1731L59.9137 48.1881C60.1807 48.033 60.3459 47.7465 60.3451 47.4371C60.3443 47.1269 60.179 46.8412 59.9111 46.6861L55.046 43.8773ZM56.0597 48.4203L52.9279 46.6116L54.6137 45.6317L57.7456 47.4405L56.0597 48.4203Z" fill="white"/>
<path d="M14.2223 51.9615C15.7141 52.8216 18.0211 52.8133 19.4781 51.9658C21.2506 50.9362 21.2502 48.9639 19.4502 47.9237C17.9771 47.0727 15.6733 47.0727 14.2053 47.9254C12.4253 48.9596 12.4283 50.926 14.2223 51.9615ZM15.0783 49.4256C16.008 48.8861 17.6474 48.8863 18.5823 49.4273C18.9408 49.6341 19.0679 49.8417 19.0679 49.957C19.0679 50.0672 18.9476 50.2664 18.6051 50.4656C17.6592 51.0156 16.0497 51.0114 15.0902 50.4579C14.7359 50.2537 14.6096 50.0494 14.6096 49.9367C14.6096 49.8265 14.7317 49.6273 15.0783 49.4256Z" fill="white"/>
<path d="M36.4071 57.7141C34.934 56.8631 32.6294 56.8631 31.1631 57.7158C29.3834 58.748 29.3843 60.7156 31.1783 61.7511C32.6571 62.6044 34.9607 62.6004 36.424 61.7494C38.1991 60.7186 38.1941 58.7461 36.4071 57.7141ZM35.551 60.2492C34.6204 60.7882 32.9837 60.7882 32.0463 60.2475C31.4558 59.9071 31.3798 59.5974 32.0352 59.216C32.9649 58.6765 34.6043 58.6767 35.5391 59.2177C36.1334 59.5608 36.1913 59.8776 35.551 60.2492Z" fill="white"/>
<path d="M28.4896 53.4219C28.4986 53.4261 28.4956 53.4248 28.5022 53.4279C32.299 55.613 38.2323 55.6404 42.0697 53.4364C42.0968 53.4232 42.1211 53.411 42.1468 53.3948C44.1032 52.2487 45.1802 50.6804 45.1777 48.9738C45.1751 47.2524 44.0775 45.6716 42.0857 44.5215C38.3352 42.3563 32.1787 42.3238 28.3819 44.5772C28.375 44.5822 28.3677 44.5856 28.361 44.5906C26.4524 45.7321 25.3993 47.2817 25.4019 48.9687C25.4044 50.6919 26.5012 52.2734 28.4896 53.4219ZM28.9334 46.3051L30.7603 47.36C31.171 47.5973 31.7035 47.4609 31.946 47.0422C32.1859 46.6268 32.0435 46.0963 31.6282 45.8564L30.7856 45.3699C32.1424 44.8806 33.7043 44.6274 35.2737 44.6274C36.8421 44.6274 38.4047 44.8802 39.7638 45.3692L38.9166 45.8615C38.5021 46.1022 38.3606 46.6328 38.6021 47.0473C38.8444 47.4655 39.378 47.601 39.7879 47.3617L41.6151 46.3001C42.7765 47.0803 43.4403 48.0122 43.4418 48.9763C43.4433 49.9337 42.7887 50.8611 41.641 51.6378L39.8184 50.5851C39.4031 50.3452 38.8725 50.4859 38.6326 50.9029C38.3928 51.3182 38.5352 51.8488 38.9505 52.0887L39.7973 52.5777C37.0659 53.583 33.549 53.584 30.8085 52.5803L31.6621 52.0844C32.0766 51.8437 32.2181 51.3131 31.9766 50.8987C31.7342 50.4825 31.2027 50.3427 30.7908 50.5842L28.9637 51.6455C26.558 50.0303 26.5135 47.9455 28.9334 46.3051Z" fill="white"/>
</svg>
