<svg width="93" height="92" viewBox="0 0 93 92" fill="none" xmlns="http://www.w3.org/2000/svg">
<path d="M67.4256 71.3052C67.012 71.5476 66.8729 72.0791 67.1145 72.4927C67.3578 72.9072 67.8892 73.0445 68.302 72.8037L72.6348 70.2686C73.2205 69.9457 73.557 69.4312 73.557 68.8591C73.5577 69.0342 73.6279 53.3104 73.7527 17.8695C73.7528 17.8613 73.7562 17.8538 73.7562 17.8456C73.7553 17.2795 73.4214 16.7616 72.8399 16.4259L52.5861 4.7327C51.6775 4.20805 50.312 4.20889 49.4085 4.73524L20.3364 21.7411C19.7618 22.0751 19.4329 22.5913 19.4338 23.1574C19.4338 23.1707 19.4391 23.183 19.4395 23.1962C19.2142 81.7345 19.474 11.7799 19.2439 74.1599C19.2439 74.6989 19.5634 75.21 20.1508 75.5813L40.4021 87.2652C41.3225 87.7943 42.6938 87.7905 43.5907 87.2618L57.3826 79.1928C57.7962 78.9504 57.9352 78.419 57.6936 78.0054C57.4512 77.5909 56.9172 77.451 56.5062 77.6943L42.7118 85.765C42.3414 85.9837 41.6531 85.9811 41.2692 85.7607L20.9797 74.1633L21.0218 63.1728L40.5987 74.5243C41.5268 75.0612 42.9017 75.0616 43.7814 74.5226L71.8277 58.1321L71.7779 68.7591L67.4256 71.3052ZM21.1679 25.0522C23.1644 26.2051 13.971 20.8963 40.5979 36.2721C40.7565 36.3628 40.9418 36.4173 41.1234 36.4764C41.4613 36.5874 41.8178 36.6637 42.1871 36.6637C42.7558 36.6637 43.3237 36.5323 43.7772 36.2687C45.0881 35.5019 38.1399 39.5659 72.0076 19.7569L71.9406 34.0335L42.905 51.0132C42.5389 51.2277 41.8413 51.2277 41.4701 51.0116L21.1137 39.2026L21.1679 25.0522ZM50.2832 6.23462C50.6434 6.02611 51.3546 6.02611 51.7182 6.23631L71.8313 17.8482C33.8034 40.0866 45.9711 32.971 42.8974 34.7685C42.5333 34.9793 41.8375 34.9822 41.4675 34.7676L21.3671 23.1498L50.2832 6.23462ZM42.8906 73.0334C42.5389 73.2487 41.8506 73.2428 41.4701 73.0224L21.0391 61.1758C21.0459 59.1338 21.0143 68.5727 21.106 41.2058L40.5987 52.5135C41.509 53.0407 42.8762 53.039 43.7814 52.5118L71.9312 36.0495L71.8371 56.1157L42.8906 73.0334Z" fill="white"/>
<path d="M64.2302 73.175L60.5991 75.2999C60.1855 75.5423 60.0465 76.0738 60.2881 76.4874C60.5331 76.9057 61.0674 77.0378 61.4755 76.7985L65.1066 74.6736C65.5202 74.4312 65.6592 73.8997 65.4176 73.4861C65.1744 73.0708 64.6421 72.9326 64.2302 73.175Z" fill="white"/>
<path d="M44.1925 25.6502L44.1815 22.3141C44.1815 22.3029 44.1755 22.2935 44.1751 22.2824C44.1585 21.2975 43.5493 20.4019 42.4448 19.7603C40.4437 18.5983 37.3034 18.5966 35.2921 19.7586C34.1868 20.3968 33.552 21.336 33.5503 22.3353C33.5503 22.3374 33.5512 22.3393 33.5512 22.3414C33.5512 22.3429 33.5503 22.344 33.5503 22.3454L33.5622 25.6815C33.5647 26.6859 34.1758 27.5928 35.2811 28.2344C37.2894 29.402 40.4316 29.3921 42.433 28.2361C43.5713 27.5793 44.1968 26.6605 44.1925 25.6502ZM36.16 21.2622C36.8965 20.8367 37.8848 20.624 38.8714 20.624C39.8572 20.624 40.842 20.8359 41.5727 21.2605C42.7301 21.9337 42.7347 22.7151 41.554 23.3973C38.9389 24.9019 35.2861 23.5576 35.2861 22.3378C35.287 21.9742 35.6048 21.5818 36.16 21.2622ZM41.565 26.7325C40.0919 27.5835 37.6145 27.5827 36.1532 26.7334C35.6108 26.4189 35.2989 26.0333 35.298 25.6756L35.2955 24.9145C36.2254 25.4475 37.2708 25.6768 38.3191 25.741C39.9832 25.8431 41.4616 25.4545 42.4219 24.9009C42.433 24.8941 42.4431 24.8882 42.4541 24.8823L42.4567 25.6561C42.4584 26.0121 42.1329 26.4045 41.565 26.7325Z" fill="white"/>
<path d="M48.9974 13.3103L49.0084 16.6464C49.011 17.6508 49.6221 18.5577 50.7273 19.1993C52.7394 20.369 55.8823 20.3549 57.8801 19.201C59.0176 18.5441 59.6422 17.6253 59.6397 16.6142L59.6278 13.2781C59.6278 13.2662 59.6215 13.2564 59.6209 13.2446C59.604 12.2608 58.9954 11.3661 57.8903 10.7235C55.89 9.56227 52.7488 9.56312 50.7384 10.7226C49.6331 11.3608 48.9983 12.3008 48.9966 13.3001C48.9966 13.3029 48.9979 13.3054 48.9979 13.3082C48.9979 13.3089 48.9974 13.3095 48.9974 13.3103ZM57.0122 17.6974C55.5391 18.5475 53.0607 18.5475 51.5995 17.6982C51.0571 17.3838 50.7451 16.9981 50.7443 16.6413L50.7418 15.8793C51.554 16.3451 52.9182 16.7354 54.2889 16.7354C55.4317 16.7354 56.8369 16.4605 57.8682 15.8657C57.8792 15.859 57.8903 15.853 57.9013 15.8463L57.9038 16.6201C57.9047 16.9769 57.5801 17.3694 57.0122 17.6974ZM51.6063 12.2262C53.0794 11.3753 55.5586 11.3769 57.0181 12.2245C57.5737 12.5472 57.8922 12.9343 57.8917 13.2857C57.8912 13.7203 57.3704 14.1482 57.0003 14.3621C54.4297 15.8471 50.8408 14.5615 50.7434 13.355C50.7421 13.339 50.7334 13.3225 50.7333 13.3067C50.7333 13.3055 50.7326 13.3031 50.7326 13.3019C50.7339 12.9383 51.0515 12.5464 51.6063 12.2262Z" fill="white"/>
<path d="M62.8672 32.8717L64.5521 31.8988L64.5429 33.8125C64.5404 34.2922 64.9277 34.6821 65.4066 34.6846H65.4108C65.888 34.6846 66.2762 34.299 66.2787 33.8209L66.2928 30.8938L68.8554 29.4144C69.2707 29.1745 69.4131 28.6439 69.1732 28.2286C68.9325 27.8116 68.3994 27.6709 67.9875 27.9108L66.3026 28.8836L66.3118 26.9691C66.3143 26.4894 65.927 26.0995 65.4481 26.0969H65.4439C64.9667 26.0969 64.5785 26.4826 64.5759 26.9606L64.5619 29.8886L61.9993 31.368C61.584 31.6079 61.4416 32.1385 61.6815 32.5538C61.9219 32.9702 62.4541 33.1103 62.8672 32.8717Z" fill="white"/>
<path d="M49.8882 40.4609L55.8764 37.0036C56.2917 36.7637 56.4341 36.2331 56.1942 35.8178C55.9527 35.4008 55.4212 35.2584 55.0085 35.5L49.0203 38.9572C48.605 39.1971 48.4626 39.7277 48.7025 40.143C48.9429 40.5594 49.4751 40.6995 49.8882 40.4609Z" fill="white"/>
<path d="M61.6451 58.4906L57.9174 54.8349L60.0889 53.6203C60.5842 53.343 60.6816 52.6758 60.2974 52.2685L57.1147 48.8815C56.7876 48.5323 56.2375 48.5162 55.8883 48.8434C55.5391 49.1714 55.5213 49.7206 55.8501 50.0698L58.2717 52.6473L56.0586 53.8856C55.5563 54.1681 55.4593 54.8548 55.8747 55.263L60.4296 59.7297C60.7707 60.0657 61.3217 60.0598 61.6569 59.7179C61.9926 59.3754 61.9875 58.8262 61.6451 58.4906Z" fill="white"/>
</svg>
