<svg width="93" height="92" viewBox="0 0 93 92" fill="none" xmlns="http://www.w3.org/2000/svg">
<path d="M73.032 32.8212C72.7625 32.6653 72.4302 32.6653 72.1624 32.8229L56.4753 41.9387C56.2083 42.0929 56.0439 42.3777 56.043 42.6862C56.0413 43.2274 56.0424 42.8965 55.9922 60.4982C55.9913 60.8092 56.1566 61.0966 56.4262 61.2525C56.6926 61.406 57.024 61.4093 57.2966 61.2508L72.9837 52.1342C73.2498 51.98 73.4142 51.6952 73.4151 51.3867C73.4168 50.8455 73.4158 51.1764 73.466 33.5756C73.4668 33.2645 73.3015 32.9772 73.032 32.8212ZM57.7612 48.8332L71.7099 40.7277L71.6969 45.2397L57.7483 53.3452L57.7612 48.8332ZM71.7259 35.0834L71.7155 38.7177L57.7668 46.8234L57.7772 43.1889L71.7259 35.0834ZM57.7323 58.9903L57.7427 55.3552L71.6913 47.2495L71.6809 50.8841L57.7323 58.9903Z" fill="white"/>
<path d="M76.9367 25.499L40.489 4.45605C40.2195 4.30009 39.8881 4.30009 39.6185 4.45775L16.1991 18.0677C16.1985 18.068 16.1978 18.0679 16.1973 18.0682C16.1967 18.0685 16.1964 18.0693 16.1959 18.0696L16.1939 18.0708C16.043 18.1583 15.7634 18.5168 15.7625 18.8183L15.7421 25.8829C15.7404 26.3627 16.1286 26.7517 16.6075 26.7534C16.6084 26.7534 16.6092 26.7534 16.6101 26.7534C17.0881 26.7534 17.4763 26.3661 17.478 25.888L17.4941 20.3219L23.518 23.7999L52.2085 40.3649L52.0814 85.2917L17.3669 65.2498L17.4381 39.8664C17.4398 39.3866 17.0516 38.9976 16.5728 38.9959C16.5719 38.9959 16.5711 38.9959 16.5702 38.9959C16.0922 38.9959 15.704 39.3832 15.7023 39.8613L15.6294 65.7473C15.6286 66.0584 15.7938 66.3457 16.0634 66.5016L52.5111 87.5446C52.7826 87.7009 53.114 87.6975 53.3782 87.5454C53.3791 87.5449 53.3794 87.5437 53.3804 87.5432C53.3801 87.5434 53.3807 87.543 53.3804 87.5432C54.2416 87.0427 77.596 73.4709 76.8062 73.9299C77.0723 73.7756 77.2368 73.4908 77.2376 73.1823C77.2392 72.6077 77.3701 26.0293 77.3707 26.2499C77.3699 25.9451 77.208 25.6561 76.9367 25.499ZM40.0567 6.21055L74.7712 26.2533C63.8448 32.6035 59.0602 35.3842 53.0769 38.8615L18.362 18.8183L40.0567 6.21055ZM58.0399 82.7862L59.2392 78.2898L70.8909 71.5634L72.1019 74.6564C71.9232 74.7598 57.1403 83.3064 58.0399 82.7862ZM73.6205 73.7739L72.1386 69.9903C71.9462 69.4969 71.3562 69.2902 70.8969 69.5555L58.0594 76.9667C57.8593 77.082 57.7144 77.2719 57.6551 77.4948L55.9004 84.0717L53.8172 85.2824L53.9447 40.3648L75.6306 27.7615L75.5035 72.6797L73.6205 73.7739Z" fill="white"/>
<path d="M23.8966 19.393L52.9297 36.1548C53.1994 36.3101 53.5324 36.3097 53.8002 36.1531L69.2389 27.1806C69.5059 27.0255 69.6712 26.739 69.6703 26.4296C69.6695 26.1194 69.5042 25.8338 69.2363 25.6787L40.2033 8.91686C39.9337 8.76176 39.6006 8.76006 39.3328 8.91856L23.8941 17.8911C23.6271 18.0462 23.4618 18.3327 23.4626 18.642C23.4635 18.9522 23.6288 19.2379 23.8966 19.393ZM39.771 10.6714L67.0708 26.433L53.362 34.4003L26.0622 18.6386L39.771 10.6714Z" fill="white"/>
<path d="M16.5822 35.7166H16.5847C17.0628 35.7166 17.451 35.3292 17.4527 34.8512L17.4654 30.4446C17.4671 29.9649 17.0789 29.5759 16.6 29.5742H16.5974C16.1194 29.5742 15.7312 29.9615 15.7295 30.4395L15.7168 34.8461C15.7151 35.3259 16.1033 35.7149 16.5822 35.7166Z" fill="white"/>
<path d="M20.2793 63.4817L30.2198 69.2207C30.3562 69.2995 30.5054 69.3368 30.6529 69.3368C30.9529 69.3368 31.2445 69.1809 31.4055 68.9028C31.6454 68.4875 31.503 67.9569 31.0877 67.7171L21.1473 61.9781C20.7319 61.7374 20.2005 61.8806 19.9615 62.2959C19.7216 62.7113 19.864 63.2418 20.2793 63.4817Z" fill="white"/>
<path d="M20.3521 58.1301L30.2925 63.8691C30.429 63.9479 30.5782 63.9852 30.7256 63.9852C31.0257 63.9852 31.3173 63.8292 31.4783 63.5512C31.7182 63.1359 31.5758 62.6053 31.1605 62.3655L21.22 56.6265C20.8038 56.3849 20.2733 56.5282 20.0342 56.9443C19.7944 57.3596 19.9368 57.8902 20.3521 58.1301Z" fill="white"/>
<path d="M20.4258 52.7775L30.3663 58.5165C30.5027 58.5954 30.6519 58.6327 30.7994 58.6327C31.0994 58.6327 31.391 58.4767 31.552 58.1987C31.7919 57.7834 31.6495 57.2528 31.2342 57.0129L21.2937 51.2739C20.8784 51.0332 20.347 51.1756 20.108 51.5918C19.8681 52.0071 20.0105 52.5377 20.4258 52.7775Z" fill="white"/>
<path d="M64.2798 60.9949C62.2516 62.1671 60.6674 64.9116 60.6734 67.2441C60.6805 69.9827 62.871 71.1377 65.1681 69.8123C67.1972 68.641 68.7813 65.8965 68.7746 63.5639C68.7657 60.8724 66.623 59.6427 64.2798 60.9949ZM64.3002 68.3087C63.1232 68.9888 62.4128 68.5842 62.4092 67.2391C62.405 65.5295 63.6594 63.3588 65.1477 62.4985C66.3212 61.8204 67.0351 62.2212 67.0387 63.569C67.0438 65.2786 65.7894 67.4493 64.3002 68.3087Z" fill="white"/>
</svg>
