<svg width="93" height="92" viewBox="0 0 93 92" fill="none" xmlns="http://www.w3.org/2000/svg">
<path d="M70.6882 49.3196L70.712 43.4077C70.712 43.406 70.712 43.4051 70.712 43.4043V43.3958C70.7121 43.3579 70.6952 43.3246 70.6907 43.2879C70.663 40.5311 69.3213 37.8187 66.8419 35.5244V24.6659C66.8419 13.3431 57.65 4.34259 46.5033 4.34259C35.2966 4.34259 26.1783 13.4592 26.1783 24.6659V35.4616C23.703 37.7501 22.3587 40.4525 22.324 43.2015C22.322 43.2254 22.31 43.2459 22.3099 43.2704C22.3099 43.2721 22.3099 43.2763 22.3099 43.2788L22.2879 49.195C22.2704 55.0308 27.7134 59.1389 33.1985 61.2667L33.1827 69.5658L33.1844 79.7334C33.1641 80.1673 33.2946 80.992 34.4032 81.6565C35.0745 82.0354 35.9136 82.2253 36.751 82.2253C37.5952 82.2253 38.4377 82.032 39.1124 81.6455C39.8888 81.1819 40.316 80.5225 40.316 79.7918L40.3495 63.1323C42.3793 63.4449 44.4614 63.614 46.5474 63.614C48.5922 63.614 50.6317 63.4496 52.6214 63.1491L52.589 85.2232C52.589 85.652 52.7483 86.464 53.823 87.087C54.4875 87.4676 55.3351 87.6574 56.1776 87.6574C57.0167 87.6574 57.8507 87.4692 58.4915 87.0955C59.2866 86.6598 59.7409 85.9834 59.7409 85.241L59.7739 61.3119C61.0876 60.8067 62.334 60.2197 63.4889 59.5482C68.1201 56.8571 70.6764 53.2244 70.6882 49.3196ZM46.5033 6.07844C56.6974 6.07844 65.1061 14.3092 65.1061 24.6659C65.1038 39.4308 65.0874 41.7542 65.0874 41.7625C65.1053 44.9267 62.6133 47.388 59.8866 48.9653C58.4769 49.7835 56.8941 50.4411 55.208 50.9449C55.208 41.1856 55.208 32.5399 55.208 22.8665C55.208 22.5563 55.0419 22.2698 54.774 22.1147C54.5045 21.9596 54.1739 21.9604 53.9044 22.1155L45.7117 26.8595C45.4438 27.0146 45.2794 27.3011 45.2794 27.6104V30.9838C45.2794 31.1584 45.332 31.3288 45.4303 31.4729L47.9154 35.1209C48.1405 35.4528 48.5641 35.5829 48.9325 35.4463L53.4721 33.7771V51.3988C53.2796 51.4425 53.0826 51.477 52.8882 51.5169C48.575 52.3997 43.8172 52.36 39.5497 51.3783V41.8998L45.8303 37.9628C46.3349 37.6456 46.3774 36.9251 45.9151 36.5524L42.7265 33.9707V28.3351C42.7265 28.0147 42.5502 27.7198 42.2671 27.5689C41.984 27.4206 41.6433 27.4358 41.3754 27.6147L38.1987 29.748C37.958 29.9091 37.8139 30.1794 37.8139 30.4685C37.8139 35.0509 37.8139 45.3573 37.8139 50.9202C36.1569 50.4195 34.601 49.768 33.2098 48.9636C30.4542 47.383 27.9226 44.8604 27.9226 41.7227C27.9225 41.5485 27.9136 23.5203 27.9141 24.6659C27.9141 14.417 36.2527 6.07844 46.5033 6.07844ZM53.4721 31.9272L48.9681 33.5833L47.0153 30.716V28.1105L53.4721 24.3718V31.9272ZM41.3127 35.0598L43.8792 37.1373L39.5497 39.8512V30.9313L40.9906 29.9633V34.3852C40.9906 34.6471 41.1093 34.8946 41.3127 35.0598ZM26.1783 37.9451V41.7583C26.2013 45.5764 29.0484 48.5862 32.3487 50.4765C33.9752 51.414 35.8199 52.1456 37.7806 52.6942C40.5471 53.4706 43.5511 53.8702 46.5609 53.8702C51.3479 53.8702 56.7024 52.8214 60.7664 50.4757C64.0189 48.5876 66.761 45.6785 66.825 41.921C66.8629 41.7474 66.8371 41.6515 66.8419 38.0102C68.372 39.8375 69.0768 41.8287 68.9347 43.8557C68.6843 47.4789 65.7783 50.2908 62.6379 52.1166C53.9947 57.1583 39.5279 57.3455 30.4908 52.1327C27.298 50.2922 24.3039 47.4089 24.0829 43.7171C23.9631 41.7155 24.6646 39.7508 26.1783 37.9451ZM38.614 62.8402L38.5801 79.7901C38.5801 79.8486 38.4835 79.9995 38.2343 80.1478C37.4359 80.6081 36.0713 80.6047 35.2762 80.1563C34.9796 79.9775 34.9169 79.8308 34.9186 79.7723L34.9355 61.8951C35.4842 62.0715 37.5037 62.6227 38.614 62.8402ZM58.0372 61.9257L58.005 85.2401C58.005 85.2774 57.9406 85.4173 57.6372 85.5842C56.8591 86.0394 55.4792 86.0368 54.691 85.5834C54.3926 85.4105 54.3248 85.2613 54.3248 85.2248L54.357 62.8707C55.0861 62.7237 57.0332 62.246 58.0372 61.9257ZM62.6175 58.048C48.6192 66.1828 23.9891 60.4591 24.0237 49.2009L24.0254 48.6779C25.0884 50.2661 27.0493 52.1529 29.6161 53.6354C34.567 56.4937 40.9662 57.6903 46.5745 57.6903C52.2756 57.6903 58.5655 56.4998 63.5126 53.6244C65.9499 52.2085 67.8939 50.365 68.9541 48.8068L68.9524 49.3136C68.9422 52.5768 66.6927 55.679 62.6175 58.048Z" fill="white"/>
</svg>
