<svg width="93" height="92" viewBox="0 0 93 92" fill="none" xmlns="http://www.w3.org/2000/svg">
<path d="M72.9131 56.8158L76.7713 54.5866C77.1866 54.3468 77.329 53.8153 77.0892 53.4009C76.8484 52.9847 76.317 52.8423 75.9034 53.083L72.0452 55.3122C71.6299 55.552 71.4875 56.0835 71.7274 56.4979C71.8884 56.7768 72.18 56.9319 72.48 56.9319C72.6275 56.9319 72.7767 56.8946 72.9131 56.8158Z" fill="white"/>
<path d="M88.1281 31.0857C88.1341 27.0343 85.4837 23.2617 80.6669 20.4621C71.0248 14.8588 55.2903 14.8588 45.5905 20.4604L12.4161 39.6141C7.53661 42.4306 4.84638 46.2278 4.84045 50.3047C4.84045 50.3115 4.84214 50.3182 4.84214 50.3251C4.84214 50.3296 4.8396 50.3333 4.8396 50.3377C4.8396 50.3386 4.8396 50.3403 4.8396 50.3411L4.8735 60.9613C4.893 64.9975 7.54423 68.7557 12.3407 71.5442C21.9846 77.143 37.7253 77.1355 47.4238 71.5451L68.949 59.1068C69.3644 58.8669 69.5068 58.3355 69.2669 57.921C69.0253 57.504 68.493 57.3616 68.0811 57.6032L46.5568 70.0415C37.3317 75.3584 22.3735 75.3617 13.2129 70.0432C8.97072 67.5767 6.62546 64.3483 6.60935 60.9545L6.59325 55.8292C6.6119 55.8574 6.63764 55.8836 6.65661 55.9116C8.00101 57.8968 10.2681 59.7498 12.3068 60.9384C21.9396 66.5299 37.6707 66.5325 47.373 60.9393L80.0366 42.0749C80.3641 41.8347 84.0595 40.128 86.4084 36.5586L86.4245 41.6619C86.4406 45.1056 84.0606 48.3781 79.7235 50.8768C79.3082 51.1158 79.165 51.6464 79.4048 52.0617C79.643 52.477 80.1753 52.6211 80.5897 52.3804C85.4913 49.5571 88.1798 45.7481 88.1604 41.6551L88.1266 31.1053C88.1266 31.0988 88.1281 31.0923 88.1281 31.0857ZM13.2841 41.1177L46.4584 21.964C51.0693 19.3018 57.1134 17.9702 63.1507 17.9702C69.1864 17.9702 75.2144 19.3009 79.7939 21.9623C84.0521 24.4371 86.3952 27.675 86.392 31.079C86.392 31.0814 86.3906 31.0834 86.3906 31.0857C86.3906 31.4664 86.3502 31.8439 86.2923 32.2196C85.5263 37.1331 80.3836 39.6033 79.2072 40.5491L46.5093 59.4272C37.2901 64.7509 22.3346 64.7509 13.1747 59.4289C9.88458 57.5169 6.89227 54.6165 6.62016 50.8258C6.60819 50.6527 6.57608 50.4813 6.5763 50.3072C6.58138 46.8753 8.96309 43.6121 13.2841 41.1177Z" fill="white"/>
<path d="M44.2818 54.2035C44.4175 54.2824 44.5675 54.3213 44.7183 54.3213C44.8684 54.3213 45.0184 54.2824 45.1523 54.2052L68.949 40.4668C69.2169 40.3117 69.3821 40.026 69.383 39.7158C69.3838 39.4064 69.2186 39.12 68.9516 38.9648L48.6859 27.1877C48.4155 27.0309 48.0841 27.0309 47.8154 27.186L24.0187 40.9245C23.7508 41.0796 23.5856 41.3652 23.5847 41.6754C23.5839 41.9848 23.7492 42.2713 24.0161 42.4264L44.2818 54.2035ZM48.2477 28.9405L66.7835 39.7124L44.72 52.4507L26.1843 41.6788L48.2477 28.9405Z" fill="white"/>
<path d="M17.4338 57.9965C20.9878 60.0491 26.5475 60.0582 30.0882 58.0007C33.9132 55.7775 33.8958 51.8903 30.0467 49.6673C26.4936 47.6161 20.9403 47.6221 17.4025 49.68C13.5822 51.8994 13.5876 55.7761 17.4338 57.9965ZM18.2746 51.1802C21.2841 49.4302 26.1801 49.439 29.1788 51.1709C31.8456 52.7114 31.898 54.9399 29.2161 56.5005C26.2682 58.2109 21.2717 58.2084 18.3018 56.4929C15.6288 54.9507 15.6066 52.7307 18.2746 51.1802Z" fill="white"/>
<path d="M20.8741 53.1805L22.0128 53.8379L20.8876 54.4917C20.4731 54.7324 20.3316 55.263 20.5732 55.6775C20.8155 56.0958 21.3491 56.2312 21.7589 55.9919L23.7449 54.8379L25.7468 55.9936C26.1575 56.2309 26.69 56.0945 26.9326 55.6758C27.1724 55.2605 27.03 54.7299 26.6147 54.49L25.4756 53.8324L26.6003 53.1788C27.0148 52.9381 27.1563 52.4075 26.9148 51.993C26.6732 51.5777 26.1392 51.437 25.729 51.6786L23.7434 52.8324L21.742 51.6769C21.3258 51.4362 20.7969 51.5803 20.5562 51.9947C20.3163 52.41 20.4587 52.9406 20.8741 53.1805Z" fill="white"/>
<path d="M65.6588 26.3587C67.4658 27.4031 70.3072 27.4123 72.1216 26.3571C74.229 25.1343 74.2265 22.8413 72.1021 21.6157C70.2849 20.5664 67.4447 20.5681 65.6393 21.6174C64.6163 22.2115 64.0535 23.0515 64.0552 23.983C64.056 24.9043 64.6409 25.7705 65.6588 26.3587ZM66.5115 23.1176C67.7845 22.3768 69.9485 22.3773 71.2342 23.1193C71.6902 23.382 71.9623 23.7092 71.9631 23.994C71.9631 24.2745 71.697 24.5966 71.2495 24.8568C69.9747 25.5993 67.8117 25.5976 66.5267 24.8551C66.0665 24.589 65.791 24.2627 65.791 23.9804C65.7902 23.7024 66.0597 23.3803 66.5115 23.1176Z" fill="white"/>
<path d="M72.1342 29.1312C70.317 28.0819 67.4768 28.0827 65.6714 29.1329C63.564 30.3557 63.5665 32.6487 65.6909 33.8743C67.5115 34.9245 70.351 34.9221 72.1537 33.8726C73.1768 33.2784 73.7396 32.4385 73.7379 31.507C73.737 30.5856 73.1522 29.7194 72.1342 29.1312ZM71.2816 32.3723C70.0085 33.114 67.8455 33.114 66.5588 32.3707C66.1028 32.1079 65.8308 31.7807 65.8299 31.4959C65.8299 31.2154 66.0961 30.8933 66.5436 30.6331C67.8166 29.8924 69.9806 29.8929 71.2663 30.6348C71.7265 30.9009 72.002 31.2273 72.002 31.5095C72.0029 31.7875 71.7333 32.1096 71.2816 32.3723Z" fill="white"/>
<path d="M45.604 38.2512L51.0591 36.8078C51.5227 36.6849 51.799 36.2102 51.6761 35.7466C51.5524 35.283 51.0769 35.01 50.615 35.1295L45.1599 36.573C44.6963 36.6959 44.42 37.1705 44.5429 37.6341C44.6652 38.0944 45.1359 38.3735 45.604 38.2512Z" fill="white"/>
<path d="M46.149 34.7015L48.6409 34.0421C49.1045 33.9192 49.3808 33.4445 49.2579 32.9809C49.135 32.5173 48.657 32.2427 48.1967 32.3639L45.7048 33.0233C45.2412 33.1462 44.9649 33.6208 45.0878 34.0845C45.2101 34.5447 45.6808 34.8239 46.149 34.7015Z" fill="white"/>
</svg>
