<svg width="93" height="92" viewBox="0 0 93 92" fill="none" xmlns="http://www.w3.org/2000/svg">
<path d="M72.4709 23.7879C75.0706 22.2762 74.9502 19.5848 72.4454 18.1396C70.1926 16.8377 66.6734 16.8445 64.4307 18.1464C61.8812 19.6277 61.8681 22.3052 64.4426 23.7879C66.6943 25.0862 70.2164 25.0956 72.4709 23.7879ZM65.302 19.6483C67.0006 18.66 69.8722 18.66 71.5775 19.6415C72.9695 20.4464 72.9871 21.4798 71.5996 22.286C69.8993 23.2742 67.0209 23.2709 65.3105 22.286C63.9131 21.4758 63.908 20.457 65.302 19.6483Z" fill="white"/>
<path d="M88.119 28.019L85.1287 18.8617C85.0626 18.6583 84.9219 18.4871 84.7371 18.3803L71.9912 11.0216C71.8861 10.9606 71.7708 10.9233 71.6504 10.9097L55.8311 9.20776C55.6498 9.18912 55.4599 9.22811 55.3023 9.31964L47.1926 14.0322C46.7773 14.2729 46.6366 14.8052 46.8773 15.2188C47.118 15.6341 47.652 15.7714 48.0639 15.5341L55.9278 10.964L71.2826 12.615L83.581 19.7161L86.2509 27.8902L37.103 56.452L21.7363 54.806L9.43998 47.7069C9.38349 47.5331 6.60296 38.9818 6.77985 39.5258L39.6305 20.4348C40.0458 20.1941 40.1865 19.6618 39.9458 19.2482C39.7033 18.8295 39.1694 18.6922 38.7591 18.9329C24.1723 27.4099 19.8919 29.8975 5.30166 38.3765C5.05006 38.5233 4.87574 38.7955 4.8713 39.1153C4.8712 39.1189 4.86939 39.1221 4.86939 39.1257L4.84058 51.6852C4.84058 51.7767 4.85414 51.8683 4.88296 51.9547L7.86136 61.1188C7.91591 61.2878 8.14744 61.492 8.25294 61.6019C9.55741 62.3547 3.52764 58.8745 21.0107 68.9642C21.1099 69.0196 21.2187 69.0597 21.3379 69.0725L37.1691 70.7677C37.2013 70.7711 37.2318 70.7728 37.2623 70.7728C37.4031 70.7728 37.5348 70.7275 37.658 70.6631C37.6705 70.6566 37.6857 70.6595 37.698 70.6524L42.1618 68.0568L42.1664 69.798C42.17 71.0571 43.3211 71.7112 44.4244 71.0711L45.8246 70.2642L45.9093 80.8064C45.9165 82.4881 47.3461 83.3044 48.803 82.4609C49.9557 81.7964 50.8236 80.2945 50.8185 78.9655L50.7304 68.0029C50.7304 67.7249 50.9864 67.2824 51.2271 67.1417L52.99 66.1246C53.7817 65.6686 54.3767 64.6464 54.3733 63.7497L54.3654 60.9543L56.9148 59.479L56.9194 61.2239C56.923 62.483 58.0724 63.137 59.1757 62.497L60.5776 61.6918L60.6624 72.234C60.6695 73.916 62.0994 74.7318 63.556 73.8885C64.707 73.2223 65.5733 71.7221 65.5716 70.3913L65.4834 59.4287C65.4834 59.1507 65.7377 58.71 65.9801 58.5693L67.7431 57.5522C68.533 57.0979 69.128 56.074 69.1246 55.1756L69.1172 52.3801L71.6678 50.9042L71.6725 52.6515C71.6761 53.9216 72.8387 54.5604 73.9287 53.9245L75.3306 53.1176L75.4154 63.6599C75.4225 65.3415 76.8522 66.1578 78.309 65.3143C79.4617 64.6498 80.328 63.1496 80.3229 61.8189L80.2347 50.8563C80.2347 50.5783 80.489 50.1358 80.7331 49.9951L82.4944 48.978C83.286 48.522 83.881 47.4998 83.8777 46.6031L83.8702 43.8221L87.6918 41.5922C87.9579 41.4379 88.1207 41.1531 88.1223 40.8446L88.1578 28.3324C88.1632 28.2286 88.1529 28.1228 88.119 28.019ZM22.3072 64.8471L22.3279 56.6164L36.4232 58.1251L36.3961 68.9386L22.301 67.4299L22.3072 64.8471ZM6.59338 44.5664L7.84918 48.4279L7.83222 55.4118L6.57643 51.5496L6.59338 44.5664ZM9.58195 49.7934L20.5921 56.1503L20.5666 66.7078L9.55653 60.3509L9.58195 49.7934ZM52.1221 64.6227L50.3575 65.6398C49.5777 66.0941 48.9912 67.1112 48.9945 68.0113L49.0827 78.9757C49.0844 79.6775 48.5487 80.6047 47.9351 80.959C47.7961 81.0387 47.7079 81.0573 47.6893 81.0726C47.6723 81.037 47.6452 80.9539 47.6452 80.7963L47.557 69.8336C47.5535 68.5787 46.4067 67.9168 45.3177 68.5504L43.9006 69.3658C43.8961 67.6495 43.8773 60.4414 43.8785 60.8984C43.8785 60.6213 44.1313 60.1827 44.3973 60.0288L52.6086 55.2874C52.6092 55.4622 52.6394 64.3171 52.6374 63.7531C52.6374 64.0362 52.3781 64.4735 52.1221 64.6227ZM66.8751 56.0503L65.1122 57.0657C64.3324 57.5166 63.7442 58.5337 63.7476 59.4372L63.8357 70.3998C63.8374 71.1033 63.3 72.0323 62.6881 72.3866C62.5491 72.4662 62.4609 72.4849 62.4423 72.5001C62.4253 72.4645 62.3982 72.3815 62.3982 72.2238L62.3101 61.2612C62.3065 60.0098 61.1673 59.3438 60.0708 59.978L58.6536 60.7916C58.6492 59.1087 58.631 52.1471 58.6316 52.3253C58.6369 52.0256 58.8965 51.6013 59.152 51.453L67.3634 46.7133C67.369 48.5871 67.3901 55.63 67.3888 55.1789C67.3888 55.4637 67.1311 55.9028 66.8751 56.0503ZM81.6265 47.4761L79.8652 48.4915C79.0837 48.9424 78.4955 49.9612 78.4989 50.8647L78.587 61.8291C78.5887 62.5309 78.0548 63.4581 77.4411 63.8124C77.3021 63.8921 77.214 63.9107 77.1953 63.926C77.1784 63.8904 77.1512 63.8073 77.1512 63.6497L77.0631 52.687C77.0595 51.4289 75.9092 50.7723 74.8238 51.4038L73.4066 52.2192L73.3993 49.4116C73.3994 49.4063 73.4032 49.402 73.4032 49.3967C73.4025 49.1768 73.3834 43.3949 73.3846 43.7585C73.3846 43.4669 73.6439 43.0314 73.9067 42.8788L82.1181 38.1374C82.1186 38.3122 82.1434 47.1706 82.1418 46.6065C82.1418 46.8896 81.8824 47.3269 81.6265 47.4761ZM86.3882 40.3429L83.8648 41.8155C83.8626 41.3907 83.8721 43.3546 83.843 37.6604C83.8172 36.4811 82.7437 35.7944 81.596 36.4287C81.4217 36.5294 72.4601 41.7099 73.0303 41.3803C72.3466 41.7735 71.6452 42.8317 71.6487 43.7552C71.6496 44.0821 71.6633 49.1806 71.6625 48.902L69.1118 50.3786L69.1009 46.281C69.0975 45.0732 68.0001 44.3642 66.8412 45.0046C66.667 45.1053 57.7087 50.2823 58.2789 49.9528C57.5128 50.394 56.894 51.3887 56.894 52.3378C56.8945 52.5135 56.9105 57.8133 56.9095 57.4767L54.3596 58.9529L54.3479 54.8535C54.3445 53.6797 53.2623 52.9239 52.0865 53.5787C51.9123 53.6794 42.9557 58.8565 43.5259 58.5269C42.8047 58.9425 42.1393 59.99 42.1393 60.895L42.1562 66.0517L38.1339 68.3908L38.1363 67.4338L38.1624 57.8505L86.417 29.8023L86.3882 40.3429Z" fill="white"/>
<path d="M20.5718 43.6349C18.0136 45.1207 18.0076 47.8032 20.5735 49.2815C22.8578 50.604 26.3939 50.5655 28.6119 49.2747C31.147 47.8006 31.1425 45.1061 28.5882 43.6247C26.3353 42.3279 22.8145 42.3279 20.5718 43.6349ZM27.7389 47.7745C26.037 48.7644 23.1535 48.7678 21.4414 47.7795C20.0407 46.9669 20.0518 45.9434 21.4431 45.1368C23.1466 44.1459 26.0218 44.1505 27.7203 45.1283C29.1086 45.9317 29.1217 46.9691 27.7389 47.7745Z" fill="white"/>
<path d="M42.5766 18.7227L45.4025 17.0818C45.8178 16.8411 45.9585 16.3088 45.7178 15.8952C45.4753 15.4765 44.9414 15.3392 44.5311 15.5799L41.7053 17.2208C41.29 17.4615 41.1493 17.9938 41.39 18.4074C41.6309 18.8232 42.1639 18.9622 42.5766 18.7227Z" fill="white"/>
<path d="M51.617 20.501L23.4501 36.861C23.1823 37.0169 23.0178 37.3034 23.0178 37.6136C23.0178 37.9222 23.1839 38.2086 23.4518 38.3629L40.5136 48.2135C40.7829 48.3703 41.117 48.3685 41.3832 48.2135L69.5501 31.8501C69.8179 31.6941 69.9824 31.4076 69.9824 31.0974C69.9824 30.7889 69.8162 30.5024 69.5484 30.3482L52.4866 20.501C52.217 20.345 51.8831 20.345 51.617 20.501ZM40.9459 46.459L25.6182 37.6103L52.0543 22.2554L67.382 31.1008L40.9459 46.459Z" fill="white"/>
<path d="M51.0846 25.7763C50.8439 26.1916 50.9863 26.7222 51.4016 26.9612L60.1182 31.9925C60.532 32.2326 61.065 32.0908 61.3031 31.6755C61.5438 31.2602 61.4014 30.7296 60.9861 30.4906L52.2696 25.4593C51.8559 25.2203 51.3237 25.361 51.0846 25.7763Z" fill="white"/>
<path d="M57.7551 32.3688L49.0386 27.3359C48.625 27.0968 48.0927 27.2375 47.8537 27.6529C47.613 28.0682 47.7554 28.5988 48.1707 28.8378L56.8872 33.8707C57.301 34.1108 57.8341 33.9691 58.0721 33.5537C58.3128 33.1384 58.1705 32.6078 57.7551 32.3688Z" fill="white"/>
<path d="M54.5242 34.2454L45.8059 29.2124C45.3923 28.9717 44.8583 29.1158 44.621 29.5294C44.3803 29.9447 44.5227 30.4753 44.938 30.7143L53.6562 35.7473C54.0701 35.9874 54.6031 35.8456 54.8412 35.4303C55.0819 35.015 54.9395 34.4844 54.5242 34.2454Z" fill="white"/>
<path d="M51.2932 36.1219L42.575 31.0906C42.1614 30.8499 41.6291 30.9923 41.3901 31.4076C41.1493 31.823 41.2917 32.3535 41.7071 32.5926L50.4253 37.6238C50.8394 37.8641 51.372 37.7224 51.6102 37.3068C51.8509 36.8915 51.7085 36.3609 51.2932 36.1219Z" fill="white"/>
<path d="M48.0623 37.9984L39.344 32.9672C38.9304 32.7282 38.3964 32.8689 38.1591 33.2842C37.9184 33.6995 38.0608 34.2301 38.4761 34.4691L47.1943 39.5004C47.6084 39.7406 48.141 39.599 48.3792 39.1834C48.62 38.7681 48.4776 38.2375 48.0623 37.9984Z" fill="white"/>
<path d="M44.8313 39.8767L36.1131 34.8437C35.6994 34.603 35.1672 34.7471 34.9281 35.1607C34.6874 35.5761 34.8298 36.1066 35.2451 36.3457L43.9634 41.3786C44.3772 41.6187 44.9102 41.4769 45.1483 41.0616C45.389 40.6463 45.2466 40.1157 44.8313 39.8767Z" fill="white"/>
<path d="M41.6003 41.7532L32.8821 36.7203C32.4685 36.4813 31.9345 36.6237 31.6972 37.0373C31.4565 37.4526 31.5989 37.9832 32.0142 38.2222L40.7324 43.2552C41.1462 43.4953 41.6793 43.3535 41.9173 42.9382C42.158 42.5228 42.0157 41.9923 41.6003 41.7532Z" fill="white"/>
</svg>
