<svg width="93" height="92" viewBox="0 0 93 92" fill="none" xmlns="http://www.w3.org/2000/svg">
<path d="M88.134 41.967C88.1209 41.1993 87.6471 40.4848 86.8203 40.0046L47.7544 17.3021C46.3042 16.4596 44.0183 16.4596 42.5511 17.3055L6.18471 38.3018C5.3312 38.7951 4.84045 39.5291 4.8396 40.3174C4.8396 40.325 4.84288 40.3321 4.84299 40.3397L4.86248 49.9807C4.86248 50.4468 5.03539 51.3266 6.18471 51.9776C59.7405 83.1252 41.2704 72.4481 45.2778 74.7131C46.7633 75.5403 48.9899 75.538 50.4497 74.686L73.6285 61.3112C74.0439 61.0713 74.1863 60.5407 73.9464 60.1254C73.7057 59.7101 73.1751 59.5677 72.7606 59.8076L49.5784 73.185C48.6808 73.7088 47.1543 73.7274 46.1948 73.235C46.0151 73.1032 44.3185 72.1402 7.04925 50.4723C6.91363 50.3951 6.59833 50.1943 6.59833 49.979L6.58308 42.5602L45.1642 64.9805C45.184 64.9942 45.2014 65.0104 45.2227 65.0227C46.6567 65.8607 48.9646 65.8573 50.4277 65.0126L68.3728 54.6518L86.4092 44.2442L86.4245 51.6631C86.4245 51.792 86.277 52.0072 85.9482 52.198L80.2244 55.501C79.8091 55.7409 79.6667 56.2714 79.9066 56.6868C80.1456 57.1004 80.677 57.2428 81.0924 57.0046L86.8178 53.7007C87.6713 53.2057 88.1604 52.4632 88.1604 51.6614L88.1409 42.0007C88.1409 41.9887 88.1345 41.9789 88.134 41.967ZM7.05264 39.8055L43.419 18.8091C44.3501 18.2708 45.9679 18.2716 46.8814 18.8024L85.9473 41.5049C86.2626 41.6879 86.4033 41.8846 86.4033 41.9981C86.4025 42.1177 86.255 42.3228 85.9261 42.5126L67.136 53.3613L49.5631 63.5013C48.5818 64.0653 46.9626 63.9936 46.1307 63.5282C-14.2189 28.4666 15.672 45.8325 7.02975 40.8115C6.92423 40.7519 6.87263 40.6948 6.80716 40.6368C6.7135 40.5541 6.65311 40.4837 6.62397 40.4174C6.61115 40.3858 6.57905 40.3459 6.57884 40.3216V40.3182L6.5781 40.3146C6.58149 40.1946 6.72674 39.9931 7.05264 39.8055Z" fill="white"/>
<path d="M76.4297 59.6948L78.7021 58.3836C79.1174 58.1437 79.2598 57.6132 79.0199 57.1978C78.7801 56.7817 78.2469 56.641 77.8342 56.88L75.5618 58.1912C75.1465 58.4311 75.0041 58.9617 75.244 59.377C75.4861 59.7951 76.0184 59.9324 76.4297 59.6948Z" fill="white"/>
<path d="M42.8181 25.8924C44.2809 26.7432 46.5652 26.7524 48.0205 25.9127C49.7942 24.8905 49.7986 22.9324 48.0188 21.8969C46.5618 21.0493 44.2759 21.0417 42.8155 21.8842C41.0494 22.9007 41.0454 24.8604 42.8181 25.8924ZM43.6817 23.3878C44.6023 22.8569 46.2249 22.86 47.1458 23.3971C47.4713 23.5861 47.6162 23.7912 47.6162 23.9099C47.6162 24.0175 47.495 24.2125 47.1534 24.4091C46.2347 24.938 44.6166 24.9312 43.6911 24.3922C43.3469 24.1921 43.2257 23.993 43.2257 23.8828C43.2257 23.776 43.3453 23.5819 43.6817 23.3878Z" fill="white"/>
<path d="M73.6878 43.8484C75.1442 44.6972 77.4322 44.7105 78.8911 43.8688C80.6639 42.8471 80.6677 40.8887 78.8894 39.8529C77.4316 39.0053 75.1456 38.9994 73.6861 39.8402C71.9159 40.8606 71.9133 42.8146 73.6878 43.8484ZM74.5523 41.3438C75.475 40.8117 77.096 40.8174 78.0164 41.3531C78.341 41.5421 78.486 41.7473 78.486 41.8659C78.486 41.9736 78.3647 42.1685 78.024 42.3651C77.1052 42.894 75.4864 42.8873 74.5608 42.3482C74.2379 42.16 74.0929 41.9575 74.0938 41.8396C74.0938 41.7244 74.2353 41.5269 74.5523 41.3438Z" fill="white"/>
<path d="M14.0843 42.4609C15.5472 43.3118 17.8314 43.321 19.2867 42.4813C21.0641 41.4583 21.0679 39.4954 19.2927 38.4612C17.834 37.6136 15.5463 37.6085 14.0826 38.4527C12.3158 39.4696 12.3115 41.4289 14.0843 42.4609ZM14.9488 39.9563C15.8788 39.4205 17.5002 39.4259 18.4196 39.9614C18.7638 40.1623 18.8858 40.3615 18.8858 40.4717C18.8858 40.5818 18.7638 40.7793 18.4196 40.9777C17.5017 41.5074 15.8837 41.4998 14.9573 40.9607C14.614 40.7607 14.492 40.5615 14.492 40.4522C14.4928 40.3445 14.6123 40.1504 14.9488 39.9563Z" fill="white"/>
<path d="M50.1623 56.4172C48.7044 55.5688 46.4151 55.5637 44.9522 56.4087C44.1097 56.8936 43.6257 57.6216 43.624 58.404C43.6223 59.1905 44.1071 59.9237 44.9539 60.417C46.4169 61.2679 48.702 61.2765 50.158 60.4382C51.0039 59.9499 51.4904 59.2185 51.4921 58.4319C51.493 57.6445 51.009 56.9105 50.1623 56.4172ZM49.291 58.9345C48.3705 59.4626 46.7516 59.455 45.8269 58.9167C45.504 58.7286 45.3599 58.526 45.3599 58.4082C45.3599 58.2929 45.5023 58.0946 45.8184 57.9124C46.2804 57.6462 46.9152 57.514 47.5492 57.514C48.1883 57.514 48.8265 57.6479 49.2893 57.9174C49.6342 58.1183 49.7563 58.3184 49.7563 58.4285C49.7554 58.5379 49.6334 58.7362 49.291 58.9345Z" fill="white"/>
<path d="M25.8402 41.1862C25.5724 41.3413 25.4071 41.6269 25.4063 41.9371C25.4054 42.2465 25.5707 42.533 25.8377 42.6881L44.8667 53.7465C45.139 53.9047 45.4704 53.9018 45.7372 53.7482C46.9781 53.032 49.0691 53.0303 50.3006 53.7465C50.5718 53.905 50.9092 53.9016 51.1804 53.7431L67.1302 44.2739C67.3946 44.1163 67.5565 43.8306 67.5548 43.5229C67.5531 43.2153 67.3887 42.9313 67.1226 42.7771C66.6945 42.5279 66.4394 42.2236 66.4394 41.9617C66.4394 41.6947 66.7013 41.3845 67.1387 41.1319C67.4065 40.9768 67.5718 40.6912 67.5726 40.381C67.5735 40.0716 67.4082 39.7851 67.1412 39.63L48.1121 28.5716C47.8418 28.4148 47.5112 28.4148 47.2417 28.5699C46 29.2878 43.9107 29.2861 42.6774 28.5716C42.4054 28.4114 42.0689 28.4148 41.7985 28.575L25.8487 38.0433C25.5842 38.201 25.4224 38.4866 25.4241 38.7943C25.4257 39.102 25.5893 39.3859 25.8555 39.5402C26.2843 39.7893 26.5395 40.0945 26.5395 40.3564C26.5386 40.6234 26.2776 40.9336 25.8402 41.1862ZM27.7634 38.9257L42.2757 30.3108C43.8725 31.0177 46.0457 31.0169 47.646 30.3083L65.2206 40.5217C64.5348 41.4124 64.5294 42.4983 65.2147 43.3916L50.7032 52.0072C49.1081 51.3004 46.9348 51.3012 45.3329 52.0098L27.7583 41.7964C28.4394 40.9118 28.4544 39.8259 27.7634 38.9257Z" fill="white"/>
</svg>
