<svg width="93" height="92" viewBox="0 0 93 92" fill="none" xmlns="http://www.w3.org/2000/svg">
<path d="M48.7439 25.8471L47.3649 27.2338C47.0267 27.5728 47.0284 28.1237 47.3683 28.4611C47.711 28.8003 48.2601 28.7965 48.5956 28.4577L49.9746 27.071C50.3128 26.732 50.3111 26.1811 49.9712 25.8437C49.6313 25.5081 49.0821 25.5064 48.7439 25.8471Z" fill="white"/>
<path d="M80.0222 4.54902C78.5101 4.171 77.1837 4.31001 76.1886 4.95247C75.5423 5.37055 75.7476 5.32346 63.9193 17.0801C63.6534 16.9917 63.3862 16.8926 63.1231 16.8271C60.3727 16.1236 58.0371 16.5549 56.5344 18.0387C56.5177 18.0532 56.4965 18.0587 56.4806 18.0747L51.6672 22.9111C51.329 23.2501 51.3307 23.7993 51.6706 24.1384C52.0096 24.4757 52.5605 24.4774 52.8979 24.135L54.9558 22.0669C54.9555 22.0861 54.9598 22.1073 54.9596 22.1267C54.9513 23.002 55.1153 24.0598 55.3364 24.8605C56.8569 30.3477 62.3594 35.7621 67.8636 37.186C68.5912 37.3488 69.4471 37.5431 70.4835 37.5166L59.9286 48.1354C59.9244 48.1395 59.9182 48.1396 59.9142 48.1436L56.8781 51.1983C55.6853 52.3911 53.4982 52.3908 51.8969 51.9933C47.0275 50.7321 41.9564 45.7449 40.5927 40.8815C40.4692 40.4269 40.4055 39.9968 40.3555 39.5746C40.1838 38.1334 40.3633 36.7245 41.3233 35.7638L45.9435 31.1224C46.2816 30.7834 46.2799 30.2342 45.9401 29.8951C45.6019 29.5578 45.051 29.5578 44.7128 29.8985L43.5194 31.0974C40.3361 30.5483 37.6611 31.2177 35.9572 33.0346C35.9339 33.0594 35.9168 33.0888 35.8939 33.114L15.7627 53.3444C13.7955 55.3107 13.2658 58.4282 14.2727 62.1304C14.5833 63.2396 15.03 64.3439 15.568 65.4298L5.83754 75.1425C4.83232 76.1681 4.54499 77.809 5.0493 79.6448C6.02656 83.1318 9.51691 86.5628 13.0047 87.4579C14.5646 87.8424 16.2519 87.7359 17.3816 86.6035C18.0236 85.9627 27.247 76.7554 27.0636 76.9385C28.2881 77.5499 29.5377 78.0405 30.7887 78.365C33.8161 79.1144 37.1474 78.9754 39.3586 76.7783C39.9424 76.1908 59.9373 56.0658 59.6853 56.3211C59.7259 56.28 59.7457 56.2285 59.7764 56.182C61.3669 54.498 61.9554 51.9981 61.4567 49.06C79.368 31.0609 73.2112 37.2707 74.5307 35.9214C76.042 34.3822 76.4463 31.9836 75.6682 29.1628C75.6085 28.9544 75.53 28.7467 75.4598 28.5385C89.3783 14.6326 86.7631 17.2454 87.1597 16.8491C87.1652 16.8436 87.1667 16.836 87.172 16.8304C88.314 15.6516 88.3779 13.9485 87.9513 12.3773C87.008 8.93611 83.4524 5.42542 80.0222 4.54902ZM34.6104 41.6782C36.6018 48.8982 44.1168 56.097 51.1035 57.9094C51.7783 58.0838 53.7915 58.4408 55.2669 58.3044L53.8216 59.7591C52.3265 61.2379 49.8861 61.6508 46.9648 60.9302C40.3876 59.2266 33.5365 52.4883 31.6947 45.9178C30.8726 42.8937 31.254 40.3068 32.7398 38.8202C32.8066 38.7534 32.8496 38.6739 32.8901 38.594L34.1631 37.3147C34.0404 38.6405 34.1758 40.1049 34.6104 41.6782ZM24.4666 51.934C26.4914 59.1622 33.7417 66.292 40.9826 68.1703C42.0641 68.4381 43.0956 68.5686 44.0635 68.5686C44.4429 68.5686 44.7977 68.5208 45.1564 68.4805L42.9216 70.7298C42.8518 70.7681 42.7802 70.8034 42.721 70.8622C41.2258 72.3488 38.7805 72.7642 35.853 72.042C29.2757 70.3367 22.4247 63.5984 20.5838 57.0296C19.7616 54.0038 20.143 51.417 21.6289 49.932C21.6482 49.9126 21.6552 49.8871 21.6724 49.8664L24.0344 47.4929C23.899 48.835 24.0286 50.3245 24.4666 51.934ZM16.1543 85.3762C15.6136 85.922 14.616 86.0661 13.4268 85.7746C10.5408 85.0338 7.53271 82.074 6.72158 79.1804C6.38678 77.9598 6.51646 76.9309 7.07078 76.363L10.2335 73.206C10.271 73.555 10.3159 73.9073 10.4162 74.2763C11.3901 77.753 14.8787 81.184 18.3682 82.0893C18.6839 82.1668 18.9889 82.2159 19.2873 82.2491L16.1543 85.3762ZM21.5348 80.0059C20.9847 80.5551 19.9812 80.7009 18.7937 80.406C15.9051 79.6567 12.8971 76.6969 12.0893 73.8152C11.7554 72.5879 11.8867 71.5606 12.4504 70.9978C12.4545 70.9937 12.4556 70.9881 12.4596 70.9839L16.4247 67.026C18.6023 70.6121 21.8252 73.8759 25.4752 76.0731C25.3957 76.1525 25.8263 75.7227 21.5348 80.0059ZM38.1313 75.551C36.6768 76.997 34.1536 77.4106 31.215 76.6817C24.7213 74.9981 17.7923 68.2615 15.9458 61.6693C15.1237 58.6434 15.5042 56.0566 16.9917 54.57L18.4757 53.0786C18.3456 54.4133 18.4764 55.8927 18.9107 57.4907C20.9355 64.7172 28.1866 71.8471 35.4267 73.7253C36.5082 73.9932 37.5405 74.1254 38.5085 74.1254C38.9008 74.1254 39.2685 74.0772 39.6386 74.0339L38.1313 75.551ZM48.3759 65.2401C48.3438 65.2641 48.3061 65.2764 48.2769 65.3054C46.7826 66.7938 44.339 67.2125 41.4089 66.487C34.8308 64.7816 27.9806 58.0434 26.1397 51.4729C25.3175 48.4487 25.6981 45.8619 27.1839 44.3769C27.2274 44.3335 27.2494 44.2792 27.2817 44.2298L29.5931 41.9071C29.4524 43.2572 29.5807 44.7572 30.0216 46.3789C32.0473 53.6071 39.2984 60.7387 46.5385 62.6135C47.6208 62.8813 48.6532 63.0136 49.622 63.0136C49.9867 63.0136 50.3269 62.966 50.6724 62.9286L48.3759 65.2401ZM58.3639 55.165C56.8798 56.5838 54.4523 56.9601 51.5265 56.2126C45.0497 54.5484 38.1306 47.8513 36.3064 41.2154C35.4623 38.2252 35.8276 35.6502 37.3083 34.1534L37.3104 34.1501C38.3872 33.0595 40.0024 32.5339 41.9674 32.6481L40.0926 34.5331C35.2491 39.3793 42.4267 51.3403 51.4697 53.6783C53.7883 54.2497 56.428 54.0977 58.108 52.429L59.8978 50.6283C59.9827 52.5424 59.4577 54.1185 58.3639 55.165ZM79.5967 6.23232C82.4353 6.95785 85.4942 9.98203 86.2765 12.8333C86.5588 13.8724 86.5079 14.7709 86.1333 15.3625C85.9625 15.6318 85.5976 15.9199 85.1061 16.0563C85.0698 15.8319 85.0323 15.6071 84.9679 15.3574C84.0245 11.9196 80.4697 8.40892 77.026 7.52743C76.8129 7.47795 76.6367 7.45221 76.4522 7.42116C76.569 7.00871 76.7516 6.65648 77.1311 6.41032C77.7024 6.03907 78.5813 5.98144 79.5967 6.23232ZM77.5478 11.6772C76.8964 10.6727 76.6261 9.9331 76.4506 9.17714C79.4964 9.86549 82.7396 13.2109 83.3494 16.0518C81.1149 15.5434 78.8394 13.6402 77.5478 11.6772ZM62.5288 18.468L60.7117 20.2819C60.5561 20.4373 60.4499 20.6328 60.3284 20.8161C59.6452 21.8332 59.4697 23.2019 59.9023 24.7927C60.8785 28.2754 64.3841 31.6947 67.8577 32.6057C67.8975 32.6154 67.9337 32.6135 67.9733 32.6225C69.4269 32.9563 71.0496 32.8452 72.1546 31.8217C72.1841 31.7945 72.224 31.7796 72.2524 31.7513L74.0739 29.9307C74.5754 31.979 74.3026 33.6606 73.3011 34.6922C71.9084 36.4579 68.5062 35.5559 68.2934 35.501C63.4121 34.2365 58.3538 29.251 57.0163 24.3858C56.5709 22.8091 56.5968 21.4071 57.0439 20.3438C57.2116 19.9513 57.4281 19.5967 57.7155 19.3037C58.736 18.2663 60.4362 17.9696 62.5288 18.468ZM71.0234 30.5173C70.4725 31.0665 69.4681 31.214 68.2823 30.9173C65.3938 30.1681 62.3857 27.2083 61.578 24.3265C61.3226 23.388 61.3439 22.5709 61.6176 21.9845C61.7031 21.8058 61.8081 21.6435 61.9424 21.5092C79.312 4.16517 73.3212 10.1471 74.6172 8.85305C74.6177 8.85771 74.6196 8.8628 74.6201 8.86746C74.6573 9.17767 74.7171 9.51088 74.8164 9.89558C75.8676 13.7282 79.9615 17.4014 83.5664 17.8599C83.6005 17.8645 83.6373 17.8758 83.6711 17.8798L71.0234 30.5173Z" fill="white"/>
</svg>
