<svg width="93" height="92" viewBox="0 0 93 92" fill="none" xmlns="http://www.w3.org/2000/svg">
<path d="M23.9098 71.2776C24.3887 71.2759 24.7769 70.8869 24.7752 70.4072L24.7676 67.7313C24.7659 67.2533 24.3777 66.866 23.8997 66.866H23.8971C23.4182 66.8677 23.03 67.2567 23.0317 67.7364L23.0394 70.4123C23.0411 70.8903 23.4293 71.2776 23.9073 71.2776H23.9098Z" fill="white"/>
<path d="M27.7178 41.2054H27.7204C28.1993 41.2045 28.5866 40.8147 28.5858 40.3349L28.5781 37.2582C28.5773 36.7802 28.1882 36.3928 27.7102 36.3928H27.7077C27.2288 36.3937 26.8414 36.7836 26.8423 37.2633L26.8499 40.34C26.8508 40.8181 27.2398 41.2054 27.7178 41.2054Z" fill="white"/>
<path d="M26.8499 47.6141C26.8508 48.0921 27.2398 48.4794 27.7178 48.4794H27.7204C28.1993 48.4786 28.5866 48.0887 28.5858 47.609L28.5781 44.5323C28.5773 44.0542 28.1882 43.6669 27.7102 43.6669H27.7077C27.2288 43.6677 26.8414 44.0576 26.8423 44.5373L26.8499 47.6141Z" fill="white"/>
<path d="M53.2472 12.7029C54.5596 13.4601 56.5293 13.4605 57.8343 12.7012C59.4276 11.7758 59.4356 9.98093 57.8199 9.04645C56.5299 8.30227 54.5152 8.30227 53.232 9.04814C52.4717 9.49058 52.0352 10.1551 52.0369 10.8713C52.0377 11.5917 52.4793 12.2596 53.2472 12.7029ZM54.1041 10.5492C54.8592 10.1098 56.1928 10.1114 56.952 10.5501C57.3911 10.8027 57.3991 10.9462 56.9613 11.201C56.2061 11.64 54.8771 11.64 54.1151 11.1993C53.8337 11.0366 53.7727 10.895 53.7727 10.8687C53.7727 10.8433 53.8312 10.7077 54.1041 10.5492Z" fill="white"/>
<path d="M70.0827 62.3238L69.9445 13.9336C69.9445 12.3119 69.4437 10.7922 68.0435 9.99935L59.0785 4.78057C57.8614 4.08471 56.3044 4.211 54.6957 5.13741C21.4954 24.304 61.1984 1.38359 28.2723 20.3913C25.262 22.1303 22.9116 26.2001 22.9186 29.6611L22.9172 29.6664L23.0215 64.3368C23.0232 64.8157 23.4114 65.2022 23.8894 65.2022H23.892C24.3717 65.2005 24.759 64.8106 24.7573 64.3317L24.6573 31.176L31.9126 35.3995L31.9252 39.5902L32.0508 83.2981C32.0508 83.3052 32.1056 84.1139 32.1093 84.1431L25.771 80.4561C25.0414 80.0913 24.798 78.9062 24.798 78.0507L24.7853 73.7348C24.7836 73.2559 24.3954 72.8694 23.9174 72.8694H23.9148C23.4351 72.8711 23.0478 73.2602 23.0495 73.7399L23.0622 78.0532C23.0622 80.2258 24.0256 81.5327 24.9463 81.9826C25.122 82.0849 34.0394 87.2746 33.8638 87.1724L33.9409 87.2173C33.9497 87.2224 33.96 87.2202 33.9689 87.2249C35.3407 88.0067 36.9546 87.6525 38.317 86.8622L64.7361 71.604C67.7535 69.8656 70.1022 65.7887 70.0827 62.3238ZM55.5636 6.64102C56.6129 6.03669 57.5554 5.90871 58.2114 6.28419L64.5234 9.95846C64.5028 9.96693 64.4816 9.9806 64.4611 9.98939C63.8357 10.2539 65.6394 9.24726 37.7085 25.371C37.5345 25.2699 29.9558 20.865 30.4387 21.1457L55.5636 6.64102ZM28.724 22.1569C28.898 22.2581 36.5806 26.7281 36.093 26.4445C34.1553 28.0458 32.4839 30.8202 32.0398 33.4577L25.3626 29.578L24.6718 29.1758C24.8619 26.5917 26.5731 23.6273 28.724 22.1569ZM37.4473 85.3594C36.2404 86.062 35.1792 86.1188 34.53 85.506C33.9749 84.9952 33.7926 84.0411 33.7926 83.2854L33.6646 40.8132L33.6476 34.9109C33.6477 34.9041 33.6527 34.8986 33.6527 34.8918C33.6454 32.1607 35.6058 28.5931 38.1432 27.1313C39.3398 26.4403 34.5874 29.1849 64.5607 11.8748C64.5758 11.866 64.5899 11.8621 64.6051 11.8535C66.5984 10.7136 68.2087 11.3661 68.2087 13.9362L68.3468 62.3314V62.334C68.3629 65.1844 66.3541 68.6688 63.869 70.1004L37.4473 85.3594Z" fill="white"/>
<path d="M66.2296 58.1775L66.1075 18.4471C66.1075 18.1462 66.0558 17.8953 65.9736 17.7351C65.8058 17.3274 65.4947 17.0316 65.0964 16.9019C64.6607 16.7604 64.1666 16.8375 63.7317 17.1036L57.8122 20.5067C57.6495 20.6008 57.5215 20.744 57.4469 20.9169L55.912 24.4878L45.4935 30.498L44.2797 29.1215C44.0051 28.8096 43.5508 28.7367 43.1948 28.9435L37.2685 32.3669C36.4074 32.8738 35.7827 33.9621 35.7827 34.9571L35.8997 74.8384L35.9666 75.202C36.223 76.1832 37.2307 76.6367 38.2653 76.0479L64.7183 60.7728C65.5659 60.2846 66.2296 59.1463 66.2296 58.18V58.1775ZM63.8513 59.2683L37.622 74.4053L37.5186 34.9546C37.5186 34.5842 37.8254 34.0536 38.1432 33.8663L43.4474 30.8023L44.6611 32.1787C44.9341 32.4873 45.3884 32.5618 45.746 32.3567L57.0291 25.8473C57.191 25.7541 57.3181 25.61 57.3927 25.4379L58.9277 21.8679L64.3725 18.742L64.4937 58.1817C64.4929 58.5377 64.1691 59.0852 63.8513 59.2683Z" fill="white"/>
<path d="M54.8296 68.3722L48.4507 72.0549C47.3031 72.7177 46.4411 74.2069 46.4453 75.519C46.4489 77.1819 47.8748 77.9973 49.3288 77.1582L55.7077 73.4755C56.8545 72.8126 57.7165 71.3234 57.7131 70.0105C57.7096 68.3655 56.2982 67.5237 54.8296 68.3722ZM54.8398 71.9718L48.4609 75.6546C48.2174 75.7955 48.1812 75.8205 48.1812 75.5139C48.1786 74.8231 48.7101 73.9094 49.3186 73.5585L55.6975 69.8758C55.8323 69.7978 55.9188 69.7783 55.9391 69.7622C55.9535 69.7978 55.9772 69.8749 55.9772 70.0156C55.9789 70.7064 55.4475 71.6209 54.8398 71.9718Z" fill="white"/>
<path d="M50.5348 36.3895C44.9077 39.6383 40.3452 47.5471 40.3638 54.0209C40.383 60.8411 45.4227 63.8559 51.4663 60.3668C57.0985 57.1155 61.6661 49.2041 61.6483 42.7294C61.6291 35.8923 56.5659 32.9085 50.5348 36.3895ZM50.5984 58.8632C45.7762 61.6494 42.1155 59.5529 42.0997 54.0159C42.0827 48.0972 46.2562 40.8639 51.4027 37.8931C56.2039 35.1188 59.8966 37.1628 59.9125 42.7345C59.9286 48.654 55.75 55.8899 50.5984 58.8632Z" fill="white"/>
<path d="M54.5557 42.2319C54.2879 42.0767 53.9565 42.0793 53.6887 42.2327L47.4352 45.8426C47.1657 45.9985 47.0004 46.2858 47.0012 46.5969L47.0216 53.7708C47.0229 54.2431 47.4051 54.6362 47.8895 54.6362C48.0395 54.6362 48.1895 54.5972 48.3235 54.5201L54.5769 50.9094C54.8464 50.7534 55.0117 50.4661 55.0109 50.1551L54.9905 42.982C54.9897 42.6726 54.8236 42.387 54.5557 42.2319ZM48.7532 52.2672L48.7388 47.0944L53.2589 44.4856L53.2733 49.6575L48.7532 52.2672Z" fill="white"/>
<path d="M46.9038 27.9823L53.9956 23.8876C54.4109 23.6477 54.5533 23.1171 54.3134 22.7018C54.0727 22.2848 53.5413 22.1441 53.1276 22.384L46.0359 26.4786C45.6206 26.7185 45.4782 27.2491 45.7181 27.6644C45.9586 28.0808 46.4908 28.2209 46.9038 27.9823Z" fill="white"/>
</svg>
