<svg width="93" height="92" viewBox="0 0 93 92" fill="none" xmlns="http://www.w3.org/2000/svg">
<path d="M20.4883 42.8328C20.9772 42.8319 21.3738 42.4346 21.3729 41.9465L21.3548 33.9201C21.3444 32.1008 22.6834 29.7778 24.2747 28.8491L64.459 5.6565C65.0698 5.30145 65.6244 5.21333 65.9777 5.41807L68.699 7.00071C68.6713 7.01626 68.6428 7.03181 68.6152 7.04735L28.4334 30.2495C26.2279 31.5218 24.6191 34.5033 24.6254 36.8625C24.7285 87.3321 24.6929 69.8984 24.7006 73.6751C24.7006 73.6907 24.7014 73.7062 24.7014 73.7218L21.9681 72.1331C21.6312 71.9413 21.4386 71.4351 21.4386 70.7423L21.4109 58.5892C21.4101 58.1011 21.0144 57.7063 20.5263 57.7063C20.0373 57.7071 19.6408 58.1045 19.6417 58.5926L19.6693 70.744C19.6693 72.1098 20.1756 73.149 21.0861 73.6665L26.1303 76.5994C26.132 76.6003 26.1341 76.5999 26.1358 76.6009C26.138 76.6021 26.1394 76.6042 26.1415 76.6054C27.1778 77.2014 28.3823 76.9677 29.4234 76.367L40.4327 70.0108L40.4372 71.9978L32.9049 76.3696C32.6275 76.531 32.4599 76.8339 32.4591 77.141L32.4479 81.9598C32.447 82.2759 32.6155 82.5688 32.8902 82.7278L42.6184 88.3447C42.8943 88.5026 43.2284 88.5024 43.5021 88.3447C43.5017 88.3449 43.5025 88.3445 43.5021 88.3447C75.3527 69.8356 59.5783 79.002 64.1394 76.3514C64.4107 76.1942 64.5782 75.9031 64.5791 75.5895L64.5912 70.7805C64.5913 70.7758 64.5947 70.7719 64.5947 70.7673C64.5938 70.452 64.4253 70.1609 64.1524 70.0028L54.4207 64.3875C54.2142 64.2694 53.9784 64.2699 53.7541 64.3301L53.7484 62.3231L69.6034 53.1692C71.7476 51.9312 73.4218 49.0303 73.4149 46.5656L73.3346 9.75735C73.3312 8.42503 72.8388 7.40727 71.9588 6.86443C71.6883 6.67921 69.0591 5.16889 66.8649 3.88727C65.9294 3.34821 64.7597 3.43374 63.5718 4.12571L23.3866 27.3192C21.2416 28.5701 19.5717 31.4745 19.5855 33.927L19.6037 41.9499C19.6045 42.438 20.0002 42.8328 20.4883 42.8328ZM43.7336 68.105C43.7343 68.3571 43.7582 76.7424 43.7577 76.5588L42.2158 75.66C42.2153 75.4783 42.1989 68.8129 42.1994 68.9946C42.3767 68.8918 43.9109 68.0022 43.7336 68.105ZM34.2249 78.6727C34.4042 78.7763 42.7144 83.5761 42.1868 83.2714C42.1864 83.4495 42.179 86.2267 42.1795 86.0485L34.218 81.4518L34.2249 78.6727ZM43.9492 86.0388C43.9496 85.8607 43.957 83.1024 43.9565 83.2805L62.8185 72.3109L62.8107 75.0772L43.9492 86.0388ZM53.7642 66.3079L53.9836 66.1784L61.9434 70.7707L43.0715 81.7374C42.8775 81.6252 34.6082 76.8422 35.1129 77.1341L40.4418 74.0408L40.4466 76.17C40.4474 76.4654 40.6026 76.768 40.8854 76.9328C41.0625 77.036 44.3805 78.9692 44.2034 78.866C44.2042 78.8664 44.2044 78.8675 44.2053 78.8679C44.4731 79.0221 44.8113 79.027 45.0891 78.8671L53.3374 74.1019C53.6121 73.9429 53.7806 73.6501 53.7797 73.3339V73.33L53.7642 66.3079ZM52.0088 72.8259C51.7615 72.9688 45.1022 76.8159 45.527 76.5704L45.5003 67.085L51.982 63.3429L52.0088 72.8259ZM68.7188 51.6366C54.7577 59.6841 38.24 69.2301 28.5388 74.8345C27.1977 75.6092 26.4788 75.0353 26.475 73.6665C26.4671 69.8897 26.5035 87.3238 26.3981 36.853C26.3885 35.125 27.679 32.7317 29.3215 31.7829L69.5006 8.58506C70.7469 7.86562 71.5616 8.27525 71.5653 9.76167L71.6457 46.57C71.6508 48.3979 70.311 50.7183 68.7188 51.6366Z" fill="black"/>
<path d="M20.5143 53.614C21.0032 53.6132 21.398 53.2158 21.3972 52.7277L21.3859 47.4753C21.3851 46.9872 20.9894 46.5924 20.5013 46.5924C20.5005 46.5924 20.5022 46.5924 20.5013 46.5924C20.0124 46.5933 19.6158 46.9907 19.6167 47.4788L19.6279 52.7312C19.6288 53.2192 20.0262 53.614 20.5143 53.614C20.5151 53.614 20.5134 53.614 20.5143 53.614Z" fill="black"/>
<path d="M68.6878 12.3861C68.4139 12.228 68.0761 12.2297 67.804 12.3861L29.2714 34.6328C28.9967 34.7918 28.8282 35.0846 28.8291 35.4017C28.8595 47.639 28.8792 55.5783 28.9086 67.4249C28.9094 67.7402 29.0779 68.0314 29.3518 68.1886C29.6255 68.3462 29.9614 68.3465 30.2355 68.1886L68.7681 45.941C69.0428 45.7821 69.2113 45.4892 69.2104 45.1722L69.1309 13.1498C69.1301 12.8345 68.9616 12.5433 68.6878 12.3861ZM67.3652 14.6823L67.38 20.5707L60.7288 29.7398L54.9123 30.2477C54.6048 30.2745 54.3335 30.4603 54.1961 30.7367L47.8544 43.561L42.4828 40.9797C42.2694 40.8778 42.0258 40.8657 41.8038 40.9435C41.5809 41.0221 41.3995 41.1862 41.2992 41.3996L34.9091 54.9453L30.6484 55.5666L30.5992 35.9088L67.3652 14.6823ZM30.6744 65.8924L30.653 57.3534L35.6348 56.6272C35.9276 56.5849 36.1807 56.3974 36.3069 56.1296L42.519 42.9606L47.876 45.535C48.3157 45.7466 48.8392 45.5652 49.0526 45.1298L55.5619 31.9669L61.2852 31.4675C61.5409 31.4451 61.7741 31.3138 61.9244 31.1056L67.3874 23.5736L67.4403 44.6651L30.6744 65.8924Z" fill="black"/>
<path d="M65.7263 33.8416C65.4809 33.4174 64.9375 33.274 64.5177 33.5176L54.9588 39.0369C54.5355 39.2814 54.3904 39.8222 54.6349 40.2455C54.88 40.67 55.4224 40.8127 55.8434 40.5695L65.4023 35.0501C65.8256 34.8057 65.9707 34.2649 65.7263 33.8416Z" fill="black"/>
<path d="M64.5178 38.3398L60.4627 40.6809C60.0394 40.9254 59.8943 41.4662 60.1388 41.8895C60.3839 42.3139 60.9263 42.4566 61.3473 42.2134L65.4024 39.8723C65.8257 39.6278 65.9708 39.087 65.7264 38.6637C65.481 38.2396 64.9376 38.0944 64.5178 38.3398Z" fill="black"/>
<path d="M49.7715 58.8085L47.4632 60.1415C47.0399 60.386 46.8948 60.9268 47.1393 61.3501C47.3844 61.7745 47.9268 61.9172 48.3478 61.674L50.6561 60.3411C51.0794 60.0966 51.2246 59.5558 50.9801 59.1325C50.7356 58.7083 50.1922 58.5632 49.7715 58.8085Z" fill="black"/>
</svg>
