<svg width="93" height="92" viewBox="0 0 93 92" fill="none" xmlns="http://www.w3.org/2000/svg">
<path d="M35.4014 88.3417C35.5379 88.4203 35.6908 88.46 35.8437 88.46C35.9957 88.46 36.1486 88.4211 36.2851 88.3425C36.2861 88.342 36.2864 88.3408 36.2874 88.3403C36.2871 88.3405 36.2877 88.34 36.2874 88.3403L73.9608 66.4474C74.232 66.2902 74.3996 65.9999 74.4005 65.6855L74.5007 30.4244C74.5015 30.1074 74.3331 29.8145 74.0584 29.6555C74.0474 29.6492 74.034 29.6519 74.0227 29.646L62.5558 23.0279L62.5316 16.7353C62.5316 5.52781 53.1823 0.169052 43.4096 5.79771C35.4394 10.3979 29.2099 21.1938 29.2281 30.3769L29.2422 36.1238L19.0496 42.0426C19.0475 42.0438 19.0449 42.0433 19.0429 42.0445C18.7699 42.2026 18.6006 42.4937 18.5997 42.809L18.5652 55.1297C18.5634 55.6187 18.9591 56.0152 19.4472 56.0169C19.4481 56.0169 19.4489 56.0169 19.4498 56.0169C19.937 56.0169 20.3327 55.6221 20.3344 55.1349L20.3646 44.3415C20.5416 44.4437 35.575 53.1232 35.0575 52.8244L34.9634 86.0455L20.2705 77.563L20.3016 66.6349C20.3033 66.1459 19.9076 65.7494 19.4195 65.7477C19.4187 65.7477 19.4178 65.7477 19.417 65.7477C18.9297 65.7477 18.5341 66.1425 18.5323 66.6297L18.4995 78.0701C18.4987 78.3871 18.6671 78.68 18.9418 78.839L35.4014 88.3417ZM36.7327 86.036L36.8271 52.8238L67.983 34.7182L72.7271 31.9618L72.633 65.1732L36.7327 86.036ZM38.9562 30.3544C38.9398 24.5345 43.21 17.1448 48.2819 14.2171C51.4029 12.4103 52.8198 12.9647 52.8198 16.7707L52.8342 22.4185L38.9566 30.4786L38.9562 30.3544ZM44.2933 7.33024C52.8902 2.37674 60.7624 6.90465 60.7624 16.7388L60.8125 30.2464C60.8107 30.2542 60.809 30.262 60.8073 30.2698C60.0186 32.0616 54.7492 31.7505 54.6236 30.0538L54.6055 22.9233C54.6055 22.9222 54.6046 22.9214 54.6046 22.9203L54.5891 16.7682C54.5891 11.7232 51.8804 10.0938 47.3972 12.6846C41.8451 15.8896 37.1689 23.9842 37.187 30.3596C37.1881 31.2096 37.2053 44.6141 37.2043 43.8273C36.8645 45.6072 31.3182 45.5477 31.0301 43.7619L30.9973 30.3726C30.9809 21.764 36.8216 11.6427 44.2933 7.33024ZM29.2393 38.1717L29.2523 43.7679C29.2523 47.9247 38.9891 47.991 38.9891 43.7256L38.9615 32.5208L52.8394 24.4609C52.8416 25.32 52.8388 30.0529 52.857 30.2343C52.8571 30.2353 52.8575 30.2363 52.8576 30.2373C52.8577 30.2385 52.8577 30.2429 52.8578 30.2439C53.2414 34.3284 62.5852 34.1027 62.5852 30.1272L62.5713 25.0796L71.8416 30.4299L63.771 35.12L35.9395 51.2902C35.7572 51.1849 20.2845 42.2513 21.2518 42.8099L29.2393 38.1717Z" fill="black"/>
<path d="M19.4245 63.8307H19.4271C19.9143 63.8307 20.31 63.4359 20.3117 62.9487L20.3229 59.0016C20.3247 58.5126 19.929 58.1161 19.4409 58.1144H19.4383C18.9511 58.1144 18.5554 58.5092 18.5537 58.9964L18.5425 62.9435C18.5408 63.4324 18.9364 63.829 19.4245 63.8307Z" fill="black"/>
<path d="M44.7363 57.2281C44.4616 57.07 44.1221 57.0691 43.8491 57.2298L40.168 59.3697L40.1586 59.3722C39.8856 59.5303 39.7163 59.8214 39.7154 60.1367L39.6826 71.6704C39.6818 71.9875 39.8502 72.2803 40.1249 72.4393C41.3576 73.1505 42.8092 73.4586 44.047 72.7451C44.2264 72.6417 47.9093 70.4958 47.7323 70.5975C48.8121 69.9885 49.4315 68.7099 49.4315 67.0901V65.3779C49.4454 62.3353 47.3833 58.7563 44.7363 57.2281ZM41.4536 71.1314L41.4795 61.9643C43.1035 63.6201 43.98 65.9194 43.9718 67.5238V69.236C43.9718 69.243 43.9703 69.2485 43.9703 69.2555C43.9583 70.9728 43.0789 71.8394 41.4536 71.1314ZM47.6623 65.3771V67.0901C47.6623 68.0534 47.3712 68.7704 46.8528 69.0624L45.7229 69.7198C45.7348 69.5657 45.7405 69.4072 45.7407 69.2457L45.741 69.2421L45.7462 67.5221C45.7526 65.0258 44.2706 61.9881 42.225 60.2205L44.2716 59.0301C46.1591 60.37 47.6735 63.1508 47.6623 65.3727V65.3771Z" fill="black"/>
<path d="M55.2828 51.0988C55.0081 50.9407 54.6686 50.9398 54.3956 51.1005L50.7181 53.2397C50.7143 53.2417 50.7098 53.2408 50.706 53.2429C50.433 53.401 50.2637 53.6922 50.2628 54.0075L50.23 65.5412C50.2291 65.8582 50.3976 66.1511 50.6723 66.31C51.9049 67.0212 53.3566 67.3293 54.5943 66.6158C54.7738 66.5124 58.4566 64.3665 58.2796 64.4682C59.3595 63.86 59.9789 62.5815 59.9789 60.9609V59.2486C59.9927 56.206 57.9306 52.6279 55.2828 51.0988ZM52.0009 65.0021L52.0269 55.8359C52.0444 55.8536 52.0629 55.8684 52.0802 55.8863C53.398 57.2536 54.528 59.4885 54.5183 61.3945V63.1067C54.5183 64.8082 53.6462 65.7188 52.0009 65.0021ZM58.2097 59.2478V60.9609C58.2097 61.9241 57.9185 62.6411 57.4002 62.9331L56.2694 63.5905C56.2808 63.4411 56.286 63.2871 56.2867 63.1305C56.2867 63.1242 56.2884 63.1191 56.2884 63.1128L56.2927 61.3928C56.2989 58.9432 54.8431 55.8811 52.7724 54.0913L54.8181 52.9017C56.7065 54.2407 58.2209 57.0216 58.2097 59.2435V59.2478Z" fill="black"/>
<path d="M65.8297 44.9696C65.555 44.8115 65.2155 44.8107 64.9425 44.9714L61.265 47.1105C61.2612 47.1127 61.2566 47.1116 61.2529 47.1138C60.9799 47.2719 60.8106 47.563 60.8097 47.8783L60.7769 59.412C60.776 59.7291 60.9445 60.0219 61.2192 60.1809C62.4651 60.8998 63.9094 61.1949 65.1403 60.4867C65.3173 60.3849 69.0019 58.2376 68.8248 58.3391C69.9055 57.7318 70.5249 56.4532 70.5249 54.8317V53.1247C70.5413 50.0812 68.4792 46.4996 65.8297 44.9696ZM62.5478 58.8729L62.5737 49.7072C64.2046 51.3798 65.0732 53.6773 65.0652 55.2654V56.9776C65.0652 56.9841 65.0638 56.9891 65.0638 56.9956C65.0522 58.7171 64.1704 59.5797 62.5478 58.8729ZM68.7557 53.1195V54.8317C68.7557 55.7958 68.4645 56.512 67.9462 56.804L66.8163 57.4614C66.8281 57.3073 66.8339 57.1487 66.8341 56.9873L66.8344 56.9836L66.8396 55.2636C66.8456 52.8559 65.4303 49.7872 63.3193 47.9621L65.3649 46.7726C67.2534 48.1116 68.7678 50.8924 68.7557 53.1143V53.1195Z" fill="black"/>
</svg>
