<svg width="93" height="92" viewBox="0 0 93 92" fill="none" xmlns="http://www.w3.org/2000/svg">
<path d="M76.395 60.5452C76.3806 60.537 76.3647 60.5324 76.3504 60.5243L68.4369 55.9226C66.1511 54.587 63.1836 54.8479 60.0918 56.6552C55.6062 59.2361 51.7555 64.5855 50.0903 70.0095L42.0775 68.2189C43.1597 65.6381 43.7923 62.955 43.7851 60.4684C43.7749 56.9597 42.5411 54.3147 40.3128 53.0048C40.0394 52.8446 38.6097 52.0065 38.7884 52.1113L52.2874 33.4838C52.4665 33.5878 57.0688 36.2599 56.7764 36.0901C59.3797 37.5844 62.4832 36.8527 65.0868 35.351C71.1071 31.8747 75.9898 23.4113 75.9699 16.4838C75.9596 12.9505 74.7104 10.2889 72.4522 8.98961C70.582 7.91315 66.7649 5.68707 64.4872 4.36439C62.229 3.04524 59.2659 3.3044 56.1404 5.09869C50.1208 8.581 45.2391 17.0401 45.2589 23.9564C45.2788 27.4758 46.5288 30.1323 48.7749 31.4367L50.7513 32.5886L37.2504 51.2183L32.3162 48.3541C30.2524 47.1473 27.5709 47.2484 24.7659 48.6418C24.3279 48.8586 24.1491 49.3899 24.3668 49.8271C24.5845 50.2659 25.114 50.4456 25.552 50.2262C27.805 49.1092 29.8905 48.9874 31.4264 49.8832L35.5878 52.2986C34.5854 52.4894 33.1305 53.0334 31.9491 53.7154C25.9983 57.1514 21.0546 65.6146 21.0745 72.5713C21.0797 73.6811 21.2672 75.1497 21.6505 76.2785C21.6551 76.2919 21.6565 76.3082 21.6611 76.3215L17.4782 73.8991C15.8049 72.9178 14.8736 70.7935 14.8572 67.9193C14.8451 63.6025 17.0177 58.294 20.3903 54.3944C20.71 54.0247 20.6702 53.4666 20.3005 53.1469C19.9308 52.8265 19.3736 52.8671 19.0531 53.2368C15.36 57.5044 13.075 63.1326 13.0879 67.9271C13.1078 71.4526 14.3492 74.116 16.5875 75.4273L24.5602 80.0444C24.5744 80.0528 24.5865 80.0641 24.6009 80.0724C27.1948 81.5661 30.2996 80.8379 32.9019 79.3347C36.2978 77.3743 39.3306 73.8268 41.3269 69.8633L49.6427 71.7216C48.7397 75.8364 49.0833 80.8928 52.7064 82.9949L60.6801 87.6323C60.6853 87.6349 60.6896 87.6375 60.6948 87.64C60.7037 87.6452 60.7141 87.6429 60.7232 87.6477C63.3158 89.1375 66.4186 88.414 69.0286 86.9066C75.049 83.4303 79.9317 74.9669 79.9118 68.0394C79.9015 64.5061 78.6523 61.8445 76.395 60.5452ZM74.2007 16.489C74.2188 22.8515 69.7336 30.6255 64.2021 33.8184C58.9628 36.8395 55.0377 34.4998 55.0199 28.579C55.0018 22.2243 59.4871 14.4571 65.0185 11.2642C69.4734 8.6912 74.1806 9.82282 74.2007 16.489ZM47.0281 23.9486C47.01 17.5991 51.4953 9.83017 57.0241 6.63121C59.0537 5.4667 61.5957 4.72394 63.5965 5.89259L67.7648 8.31665C67.7309 8.32313 67.6947 8.33986 67.6607 8.34678C66.4637 8.58965 65.0638 9.18713 64.127 9.72478C58.1074 13.2062 53.2256 21.6645 53.2446 28.5816C53.2515 29.7004 53.4433 31.1732 53.8155 32.2767C53.8215 32.2948 53.8233 32.3164 53.8295 32.3343C53.4421 32.1085 49.268 29.6756 49.6647 29.9068C47.981 28.9297 47.0446 26.8132 47.0281 23.9486ZM32.0173 77.8021C26.7326 80.8536 22.8648 78.4084 22.8472 72.5567C22.8292 66.2272 27.3053 58.4374 32.8415 55.2453C37.9275 52.305 41.9977 54.4132 42.0159 60.4735C42.023 62.9866 41.3197 65.7171 40.1348 68.3012C40.0544 68.4024 39.9898 68.5175 39.9599 68.6519C39.9582 68.6593 39.9609 68.6663 39.9594 68.6736C38.1321 72.4846 35.2586 75.9312 32.0173 77.8021ZM53.5954 81.465C50.7232 79.7996 50.6588 75.3721 51.3604 72.1054L54.8022 72.8746C55.2722 72.9811 55.7508 72.686 55.8579 72.2042C55.965 71.7273 55.6644 71.2548 55.1875 71.1485L51.8073 70.3932C53.3467 65.4332 56.8714 60.5492 60.9799 58.186C62.9907 57.0102 65.518 56.2677 67.5462 57.4508L71.7075 59.8705C71.6701 59.8777 71.6303 59.8962 71.5928 59.9039C70.4182 60.1435 69.0428 60.7262 68.0784 61.2821C61.9877 64.7932 57.1739 73.3262 57.1926 80.1398C57.1958 81.2076 57.3679 82.6628 57.738 83.7829C57.7489 83.8162 57.7524 83.8561 57.7636 83.8891L53.5954 81.465ZM68.144 85.3741C62.8789 88.409 58.9636 86.0191 58.9636 80.132C58.9457 73.7798 63.4293 66.0131 68.9604 62.8198C70.9701 61.6599 73.529 60.925 75.5311 62.0942C75.5326 62.095 75.5351 62.0958 75.5366 62.0967C77.2082 63.0745 78.134 65.1835 78.1426 68.0446C78.1607 74.4071 73.6755 82.1812 68.144 85.3741Z" fill="black"/>
<path d="M20.9865 52.4438C21.3092 52.8064 21.8676 52.8431 22.2348 52.5155C22.6063 52.1846 22.9864 51.8727 23.3743 51.5825C23.7656 51.2896 23.8459 50.7359 23.5531 50.3445C23.2602 49.9532 22.7065 49.872 22.3151 50.1657C21.8875 50.4853 21.4677 50.83 21.0582 51.1954C20.6928 51.5203 20.6608 52.0792 20.9865 52.4438Z" fill="black"/>
</svg>
