<svg width="93" height="92" viewBox="0 0 93 92" fill="none" xmlns="http://www.w3.org/2000/svg">
<path d="M18.6347 71.0762C19.1145 71.0754 19.501 70.6863 19.501 70.2066L19.4976 68.2538C19.4976 67.7749 19.1077 67.3875 18.6296 67.3875C18.1499 67.3884 17.7617 67.7774 17.7617 68.2572L17.7651 70.21C17.7651 70.6889 18.1567 71.0762 18.6347 71.0762Z" fill="black"/>
<path d="M75.2246 10.936C75.2214 9.53854 74.7094 8.47133 73.7927 7.90271C73.5519 7.73429 69.9482 5.65397 68.3219 4.70372C67.3404 4.13923 66.1182 4.23247 64.8689 4.95969L21.7303 29.8566C19.4503 31.1864 17.6755 34.2725 17.689 36.8797L17.7552 65.5712C17.7568 66.0501 18.145 66.4374 18.6231 66.4374C19.1028 66.4366 19.4927 66.0467 19.491 65.5678L19.4249 36.8737C19.4147 34.8938 20.8709 32.368 22.6016 31.3585L65.7402 6.46161C66.4301 6.05816 67.0387 5.96916 67.4523 6.20564L70.5002 7.97878C70.2803 8.08872 73.2034 6.41239 27.1481 33.0037C24.812 34.3512 23.0919 37.5104 23.1 40.031C23.1944 87.6671 23.1533 78.1895 23.1865 79.4842L20.125 77.7035C19.7368 77.4831 19.5147 76.9127 19.5147 76.1388L19.508 72.9723C19.5063 72.4934 19.1181 72.106 18.64 72.106C18.1603 72.1069 17.7704 72.4968 17.7721 72.9757L17.7789 76.1405C17.7789 77.5755 18.3078 78.6663 19.2605 79.2079L24.6748 82.3567C24.6769 82.358 24.6795 82.3573 24.6816 82.3585C24.6835 82.3597 24.6848 82.3616 24.6867 82.3626C25.777 82.9895 27.0474 82.7307 28.1279 82.1067L39.6329 75.4644L39.4228 79.4215C39.4058 79.7411 39.5651 80.0445 39.8398 80.2098C40.0148 80.3156 52.1324 87.6406 51.9588 87.5356C51.9601 87.5365 51.9606 87.5381 51.9619 87.5388C52.2021 87.6826 52.5246 87.715 52.8179 87.5549C52.8205 87.5535 52.8216 87.5505 52.8241 87.5491C52.9992 87.4542 67.2925 79.2545 67.1184 79.2486C67.3777 79.0986 67.5405 78.8265 67.5506 78.5273L67.6896 74.381C67.6997 74.0685 67.445 73.713 67.2675 73.6071C67.093 73.503 58.9962 68.8183 59.1714 68.9268L59.649 63.9081L71.2613 57.2038C73.5396 55.8875 75.3196 52.8049 75.3111 50.1859L75.2246 10.936ZM41.4264 74.4293L43.535 73.2132C43.4493 74.1384 43.1035 77.9899 43.1258 77.7422C43.1392 78.0625 43.3069 78.3241 43.5522 78.4654L51.6585 83.1352L51.5873 85.2834L41.184 78.9935L41.4264 74.4293ZM65.8317 77.9891L53.3282 85.2554L53.3977 83.1568L65.9012 75.8905L65.8317 77.9891ZM65.0808 74.3487L52.5425 81.6401L45.7206 77.6967L58.2638 70.4063L65.0808 74.3487ZM57.431 68.8836L45.0061 76.1054L45.3965 72.1368L57.8029 64.9739L57.431 68.8836ZM70.3934 55.7002C52.2743 66.1605 44.2824 70.7731 27.2599 80.6031C25.8197 81.4342 24.9258 80.8776 24.9223 79.2783C24.9138 75.2484 24.9531 93.8458 24.8392 40.0225C24.8295 38.1482 26.229 35.5409 28.0177 34.5081L71.1512 9.60529C72.4836 8.83533 73.4851 9.2286 73.4888 10.9394L73.5752 50.1901C73.5803 52.1777 72.1242 54.7009 70.3934 55.7002Z" fill="black"/>
<path d="M70.2779 13.8271C70.0101 13.6728 69.6796 13.6728 69.4117 13.8271L28.0463 37.7094C27.7768 37.8654 27.6123 38.1527 27.6123 38.4638L27.6971 72.5773C27.6971 73.238 28.4186 73.6608 28.999 73.3266L70.3644 49.4451C70.6339 49.2891 70.7984 49.0018 70.7984 48.6907L70.7136 14.5764C70.7136 14.267 70.5475 13.9814 70.2779 13.8271ZM29.4295 71.0737L29.3499 38.9613L68.9811 16.08L69.0608 48.1932L29.4295 71.0737Z" fill="black"/>
<path d="M40.0719 36.7932L33.2896 40.709C32.8743 40.9489 32.7319 41.4795 32.9726 41.8948C33.2089 42.3083 33.7398 42.4524 34.1575 42.2126L40.9398 38.2968C41.3552 38.0569 41.4976 37.5264 41.2568 37.111C41.0178 36.6932 40.4855 36.5542 40.0719 36.7932Z" fill="black"/>
<path d="M34.1575 49.5824L38.3802 47.1447C38.7955 46.9049 38.9379 46.3743 38.6971 45.959C38.4581 45.5436 37.9258 45.4012 37.5122 45.6411L33.2896 48.0788C32.8743 48.3186 32.7319 48.8492 32.9726 49.2645C33.1319 49.5425 33.4252 49.6985 33.7235 49.6985C33.871 49.6985 34.0202 49.6612 34.1575 49.5824Z" fill="black"/>
<path d="M40.0719 51.5327L33.2896 55.4485C32.8743 55.6884 32.7319 56.219 32.9726 56.6343C33.2089 57.0477 33.7398 57.1919 34.1575 56.9521L40.9398 53.0363C41.3552 52.7964 41.4976 52.2658 41.2568 51.8505C41.0178 51.4335 40.4855 51.2945 40.0719 51.5327Z" fill="black"/>
<path d="M64.2553 22.8318L54.9946 28.1775C54.5793 28.4174 54.4369 28.948 54.6777 29.3633C54.9139 29.7768 55.4448 29.9209 55.8626 29.6811L65.1233 24.3354C65.5386 24.0956 65.681 23.565 65.4403 23.1497C65.2012 22.7327 64.669 22.592 64.2553 22.8318Z" fill="black"/>
<path d="M64.2552 30.2016L60.5513 32.3392C60.136 32.579 59.9936 33.1096 60.2343 33.5249C60.4716 33.939 61.0019 34.0824 61.4192 33.8428L65.1231 31.7052C65.5385 31.4653 65.6809 30.9347 65.4401 30.5194C65.2011 30.1032 64.6705 29.96 64.2552 30.2016Z" fill="black"/>
<path d="M64.2553 37.5713L58.8189 40.709C58.4036 40.9489 58.2612 41.4795 58.5019 41.8948C58.7392 42.3089 59.2694 42.4522 59.6868 42.2126L65.1232 39.0749C65.5385 38.835 65.6809 38.3044 65.4402 37.8891C65.2012 37.4738 64.6706 37.3314 64.2553 37.5713Z" fill="black"/>
<path d="M64.2553 44.941L57.7798 48.6797C57.3645 48.9196 57.2221 49.4501 57.4628 49.8655C57.6991 50.2789 58.23 50.4231 58.6477 50.1833L65.1233 46.4446C65.5386 46.2048 65.681 45.6742 65.4403 45.2589C65.2012 44.8418 64.669 44.702 64.2553 44.941Z" fill="black"/>
<path d="M37.5122 60.3806L33.2896 62.8182C32.8743 63.0581 32.7319 63.5887 32.9726 64.004C33.2087 64.4159 33.7385 64.5624 34.1575 64.3218L38.3802 61.8842C38.7955 61.6443 38.9379 61.1137 38.6971 60.6984C38.4581 60.2831 37.9258 60.1416 37.5122 60.3806Z" fill="black"/>
<path d="M63.9195 55.3934L61.4429 56.8233C61.0276 57.0631 60.8852 57.5937 61.1259 58.009C61.3622 58.4225 61.8931 58.5667 62.3108 58.3269L64.7875 56.897C65.2028 56.6571 65.3452 56.1266 65.1045 55.7112C64.8654 55.2934 64.3332 55.1535 63.9195 55.3934Z" fill="black"/>
<path d="M68.8644 52.5387L66.3877 53.9686C65.9724 54.2085 65.83 54.7391 66.0707 55.1544C66.307 55.5679 66.8379 55.712 67.2556 55.4722L69.7323 54.0423C70.1476 53.8025 70.29 53.2719 70.0493 52.8566C69.8103 52.4387 69.278 52.2989 68.8644 52.5387Z" fill="black"/>
<path d="M53.7671 41.212C54.6377 40.0221 55.2536 38.5438 55.2491 37.0814C55.2428 34.8378 53.6183 33.5239 51.4906 34.3908L51.4824 33.2656C51.479 32.7884 51.0908 32.4036 50.6145 32.4036H50.6077C50.1297 32.407 49.7432 32.7985 49.7465 33.2774L49.7614 35.3218L48.5497 36.0214L48.5413 34.9667C48.5379 34.4878 48.1683 34.0648 47.6666 34.1055C47.1868 34.1097 46.802 34.5013 46.8054 34.9802L46.8215 37.0191C46.6475 37.1209 43.3937 39.0252 43.5677 38.9223C43.1557 39.1656 43.0184 39.6979 43.2625 40.1106C43.5099 40.5268 44.0424 40.6583 44.4525 40.4158L44.8791 40.1635C44.8796 40.3417 44.9145 52.6516 44.9123 51.8673L43.5677 52.6625C43.1557 52.9057 43.0184 53.438 43.2625 53.8508C43.5099 54.267 44.0424 54.3985 44.4525 54.1559C44.7137 54.0036 46.9925 52.6747 46.817 52.7771L46.8258 53.8889C46.8292 54.3661 47.2174 54.7501 47.6937 54.7501H47.7005C48.1802 54.7458 48.565 54.3543 48.5616 53.8754L48.5451 51.7795L49.7571 51.0797L49.7652 52.187C49.7686 52.6642 50.1568 53.049 50.6331 53.049H50.6399C51.1179 53.0456 51.5044 52.654 51.501 52.1751L51.4859 50.0817L51.8604 49.8655C53.7002 48.8046 55.273 46.2622 55.2694 43.9493C55.2662 42.8118 54.8516 41.7097 53.7671 41.212ZM53.5132 37.0873C53.5204 38.7267 52.2967 40.7283 50.9722 41.4939L46.6257 44.0027L46.6122 39.1444C51.7653 36.1696 40.6264 42.6 51.8214 36.1372C52.8799 35.5235 53.5096 35.8668 53.5132 37.0873ZM50.9925 48.3618L46.6461 50.8715L46.6325 46.0041L51.8401 42.9975C52.8667 42.4009 53.5299 42.7006 53.5335 43.9536C53.5372 45.6211 52.3041 47.6066 50.9925 48.3618Z" fill="black"/>
</svg>
