<svg width="93" height="92" viewBox="0 0 93 92" fill="none" xmlns="http://www.w3.org/2000/svg">
<path d="M23.6475 82.7902C23.8233 82.8923 32.0019 87.645 31.8262 87.5429C31.8271 87.5434 31.8275 87.5446 31.8284 87.5451C32.0924 87.6971 32.4238 87.7007 32.6955 87.5443L59.0401 72.3335C59.144 72.2734 59.2162 72.1806 59.2856 72.0875C59.3061 72.0603 59.3388 72.0474 59.3562 72.0174C59.171 72.3362 66.8441 59.1247 69.8232 53.9954C69.8991 53.8646 69.9412 53.7145 69.9408 53.5579L69.8171 9.95656C69.8161 9.63897 69.6412 9.35632 69.3823 9.20645C69.3812 9.20581 69.3799 9.20624 69.3789 9.2056L61.2073 4.45744C60.9378 4.30064 60.6055 4.30064 60.3377 4.45575L23.4933 25.7284C23.2186 25.8864 23.0599 26.3039 23.0593 26.4793C23.0593 26.4789 23.0593 26.4798 23.0593 26.4793C23.0593 26.4798 23.0593 26.4815 23.0593 26.4819L23.0924 40.189C23.0932 40.6679 23.4823 41.0552 23.9603 41.0552C24.44 41.0544 24.8291 40.6645 24.8282 40.1856L24.7986 27.9906L31.2373 31.7316L31.3893 85.2821L24.9511 81.54L24.8842 54.058C24.8833 53.5791 24.4943 53.1917 24.0162 53.1917C23.5365 53.1926 23.1475 53.5825 23.1483 54.0614L23.2161 82.0418C23.217 82.3503 23.3814 82.6351 23.6475 82.7902ZM33.1252 85.2914L32.9735 31.732C40.5753 27.3431 54.9142 19.0645 68.0855 11.4602L68.2033 53.0602L58.1382 58.8714C57.8687 59.0274 57.7034 59.3147 57.7043 59.6257L57.7365 71.0817L33.1252 85.2914ZM59.465 68.374L59.4418 60.1233L66.6869 55.9405L59.465 68.374ZM60.77 6.21025L67.2174 9.95656L32.105 30.2287L25.6589 26.4827L60.77 6.21025Z" fill="white"/>
<path d="M24.863 50.6431L24.8435 43.6988C24.8418 43.2208 24.4536 42.8334 23.9756 42.8334C23.4518 42.847 23.106 43.2233 23.1077 43.7039L23.1272 50.6481C23.1289 51.1262 23.5171 51.5135 23.9951 51.5135C24.4113 51.4822 24.8647 51.1236 24.863 50.6431Z" fill="white"/>
<path d="M55.5166 27.5693L64.201 22.5559C64.6163 22.316 64.7587 21.7854 64.5188 21.3701C64.2781 20.9548 63.7467 20.8124 63.333 21.0523L54.6487 26.0657C54.2334 26.3056 54.091 26.8362 54.3309 27.2515C54.5731 27.6696 55.1053 27.8069 55.5166 27.5693Z" fill="white"/>
<path d="M63.3331 30.5206L55.6023 34.984C55.187 35.2238 55.0446 35.7544 55.2845 36.1697C55.525 36.5862 56.0572 36.7262 56.4702 36.4876L64.2011 32.0242C64.6164 31.7844 64.7588 31.2538 64.5189 30.8385C64.2782 30.4223 63.7467 30.2799 63.3331 30.5206Z" fill="white"/>
<path d="M63.3331 39.989L36.886 55.2582C36.4707 55.498 36.3283 56.0286 36.5682 56.4439C36.8087 56.8603 37.3409 57.0004 37.7539 56.7618L64.2011 41.4926C64.6164 41.2527 64.7588 40.7221 64.5189 40.3068C64.2782 39.8915 63.7468 39.7499 63.3331 39.989Z" fill="white"/>
<path d="M63.3331 49.4581L36.886 64.7273C36.4707 64.9672 36.3283 65.4978 36.5682 65.9131C36.8087 66.3295 37.3409 66.4696 37.7539 66.231L64.2011 50.9618C64.6164 50.7219 64.7588 50.1913 64.5189 49.776C64.2782 49.3598 63.7468 49.2174 63.3331 49.4581Z" fill="white"/>
<path d="M54.609 63.9628L36.886 74.1957C36.4707 74.4356 36.3283 74.9661 36.5682 75.3815C36.8087 75.7979 37.3409 75.9379 37.7539 75.6993L55.4769 65.4664C55.8922 65.2266 56.0346 64.696 55.7947 64.2807C55.5532 63.8637 55.0226 63.723 54.609 63.9628Z" fill="white"/>
<path d="M48.3206 35.985L49.64 35.2234L49.6445 36.8131C49.6462 37.2919 50.0344 37.6784 50.5124 37.6784H50.515C50.9939 37.6767 51.3821 37.2877 51.3804 36.808L51.3729 34.223L53.5536 32.9642C53.9689 32.7243 54.1113 32.1937 53.8714 31.7784C53.6315 31.3631 53.0984 31.2207 52.6856 31.4606L51.3671 32.2217L51.3626 30.6325C51.3609 30.1536 50.9727 29.7671 50.4946 29.7671H50.4921C50.0132 29.7688 49.625 30.1578 49.6267 30.6376L49.6341 33.2221L47.4527 34.4814C47.0374 34.7212 46.895 35.2518 47.1348 35.6671C47.3753 36.0835 47.9075 36.2236 48.3206 35.985Z" fill="white"/>
<path d="M37.3198 49.2437C37.6868 49.2437 38.0275 49.0098 38.1462 48.6419L39.9098 43.1748L45.6853 39.8408L47.3043 42.6156C47.545 43.0301 48.079 43.1708 48.4909 42.9275C48.9054 42.686 49.0444 42.1545 48.8029 41.7409C48.7603 41.668 49.145 42.3275 46.7509 38.2234C46.7506 38.2231 46.7511 38.2238 46.7509 38.2234L43.1783 32.1005C43.0071 31.8047 42.6858 31.6343 42.3358 31.675C41.9951 31.7123 41.7077 31.9454 41.6026 32.2717L36.4934 48.1096C36.3136 48.6687 36.7301 49.2437 37.3198 49.2437ZM42.6587 34.6534L44.8104 38.3412L40.7045 40.7114L42.6587 34.6534Z" fill="white"/>
</svg>
