<svg width="93" height="92" viewBox="0 0 93 92" fill="none" xmlns="http://www.w3.org/2000/svg">
<path d="M6.2059 46.019L54.7232 74.2062C56.2407 75.0943 58.6258 75.0962 60.1528 74.2079L86.7746 58.7666C87.9807 58.0733 88.1604 57.1697 88.1604 56.6926C88.1604 56.519 88.1604 58.1088 88.1604 48.0455C88.1612 47.2378 87.6637 46.4851 86.7949 45.9808L38.2801 17.7877C36.7646 16.9062 34.3855 16.907 32.8598 17.7868L6.2237 33.2298C5.3473 33.7366 4.84469 34.491 4.84299 35.3004C4.84299 35.3117 4.84786 35.3221 4.84808 35.3334L4.8396 43.9653C4.8396 44.7679 5.33798 45.5172 6.2059 46.019ZM85.9066 57.263L59.2807 72.7068C58.2975 73.2797 56.5786 73.2797 55.5971 72.7068L7.07637 44.5179C6.73225 44.3187 6.57545 44.0915 6.57545 43.9661L6.58138 37.5828C72.5505 75.9321 49.798 62.7056 54.7198 65.5667C56.2302 66.4381 58.6111 66.4389 60.1452 65.5659L86.4186 50.3348L86.4245 56.6934C86.4245 56.8638 86.2321 57.0765 85.9066 57.263ZM7.09332 34.7325L7.09502 34.7317L33.7295 19.2896C34.2219 19.0056 34.8983 18.8633 35.5738 18.8633C36.2476 18.8633 36.9206 19.0048 37.408 19.2879L85.9227 47.481C86.5182 47.8284 86.6356 48.1968 85.9083 48.6151L59.2739 64.0572C58.2907 64.6251 56.5718 64.6268 55.5954 64.0589C50.6322 61.1738 73.5704 74.5078 7.07637 35.8547C6.37034 35.4567 6.4955 35.0769 7.09332 34.7325Z" fill="white"/>
<path d="M54.2841 44.5976C56.7227 46.0159 60.5732 46.0288 63.0506 44.5993C65.836 42.9901 65.8372 40.1142 63.0896 38.517C60.6384 37.0931 56.7828 37.0948 54.3129 38.5221C51.5234 40.133 51.5543 43.01 54.2841 44.5976ZM55.1808 40.0257C57.1001 38.9171 60.3218 38.9153 62.2166 40.0172C63.812 40.9455 63.7893 42.1678 62.1827 43.0956C60.2706 44.1983 57.0523 44.1992 55.1571 43.0973C53.5679 42.1737 53.58 40.9503 55.1808 40.0257Z" fill="white"/>
<path d="M50.6751 45.685C48.2239 44.2611 44.3691 44.2628 41.8976 45.6893C39.1041 47.3041 39.1204 50.1798 41.8586 51.7715C44.315 53.1987 48.1679 53.1916 50.6362 51.7664C53.4366 50.1493 53.4051 47.2719 50.6751 45.685ZM49.7682 50.2628C47.8518 51.3706 44.6293 51.374 42.7316 50.2713C41.1368 49.3451 41.159 48.1207 42.7655 47.1929C44.6836 46.0876 47.9061 46.0825 49.8021 47.1852C51.4106 48.1193 51.3603 49.3441 49.7682 50.2628Z" fill="white"/>
<path d="M30.4104 30.7226C32.8504 32.1426 36.6987 32.143 39.1651 30.7184C41.9353 29.119 41.9654 26.239 39.2151 24.6429C36.7596 23.2147 32.8998 23.2147 30.4274 24.6412C27.6737 26.2307 27.6331 29.1086 30.4104 30.7226ZM31.2953 26.1448C33.2108 25.0387 36.4384 25.037 38.3438 26.1431C39.9259 27.0631 39.9045 28.2875 38.2972 29.2148C36.385 30.3192 33.1727 30.3217 31.2826 29.2224C29.6648 28.2813 29.7137 27.0586 31.2953 26.1448Z" fill="white"/>
<path d="M42.3469 37.6601C44.7855 39.0784 48.636 39.0913 51.1134 37.6618C53.9068 36.0488 53.891 33.1706 51.1524 31.5804C48.6978 30.1522 44.8379 30.1505 42.3647 31.5787C39.6236 33.1608 39.5594 36.0401 42.3469 37.6601ZM43.2326 33.0823C45.1596 31.969 48.3882 31.9811 50.2802 33.0806C51.8743 34.0073 51.852 35.2321 50.2455 36.1582C48.3342 37.26 45.1159 37.2617 43.2199 36.1599C41.633 35.2377 41.6192 34.0126 43.2326 33.0823Z" fill="white"/>
<path d="M17.9848 37.8974C20.4402 39.3259 24.2939 39.3046 26.7505 37.8864C29.5213 36.2867 29.5503 33.4078 26.8005 31.8109C24.3434 30.3828 20.4835 30.3811 18.0128 31.8092C15.2379 33.4116 15.2155 36.288 17.9848 37.8974ZM18.8807 33.3128C20.7932 32.2069 24.022 32.2043 25.9283 33.3112C27.5147 34.2336 27.4868 35.4573 25.8826 36.3828C23.9653 37.4897 20.7471 37.4957 18.857 36.3972C17.2556 35.4656 17.2693 34.2427 18.8807 33.3128Z" fill="white"/>
<path d="M38.737 38.7476C36.2824 37.3194 32.4217 37.3194 29.9501 38.7459C27.1646 40.3544 27.1628 43.2307 29.9213 44.834C32.3835 46.2647 36.2355 46.2504 38.6989 44.8298C41.4895 43.2176 41.4805 40.3403 38.737 38.7476ZM37.8309 43.3262C35.9137 44.4323 32.692 44.4357 30.7935 43.3338C29.1935 42.4038 29.2067 41.1793 30.818 40.2495C32.7344 39.1434 35.962 39.1417 37.8648 40.2478C39.4602 41.176 39.4375 42.3984 37.8309 43.3262Z" fill="white"/>
<path d="M66.2334 51.5409C68.6795 52.9627 72.5268 52.9575 74.9881 51.5359C77.7795 49.925 77.7694 47.0467 75.0372 45.4604C72.5826 44.0322 68.7219 44.0322 66.2504 45.4587C63.4724 47.0639 63.4764 49.9404 66.2334 51.5409ZM67.1183 46.9623C69.0347 45.8554 72.2623 45.8554 74.1651 46.9606C75.7526 47.8844 75.7244 49.1068 74.1202 50.0322C72.2106 51.1358 68.9974 51.1392 67.1047 50.0407C65.5025 49.1086 65.5191 47.8852 67.1183 46.9623Z" fill="white"/>
<path d="M62.6226 52.6284C60.1672 51.2002 56.3073 51.2002 53.8349 52.6267C51.0344 54.2449 51.0665 57.1225 53.8078 58.7149C56.2632 60.1434 60.1168 60.1221 62.5735 58.7039C65.3643 57.0915 65.3553 54.2143 62.6226 52.6284ZM61.7055 57.2003C59.7883 58.3072 56.5709 58.3131 54.6791 57.2147C50.673 54.8815 57.648 51.7448 61.7513 54.1286C63.3365 55.0504 63.3097 56.2748 61.7055 57.2003Z" fill="white"/>
</svg>
