<svg width="93" height="92" viewBox="0 0 93 92" fill="none" xmlns="http://www.w3.org/2000/svg">
<path d="M76.7609 20.7174L76.7347 11.3631C76.735 11.3542 76.7414 11.347 76.7414 11.3381C76.7414 11.0279 76.577 10.7414 76.3091 10.5863L68.1333 5.84744C67.8638 5.69148 67.5316 5.69233 67.2637 5.84659L63.4632 8.04193L57.2919 4.45571C57.0232 4.2989 56.691 4.2989 56.4223 4.45401L27.4697 21.17C27.1984 21.3271 27.0366 21.6162 27.0358 21.921L27.0362 21.9227L27.0358 21.9244L27.0556 29.0514L16.6732 35.0458C16.4019 35.2029 16.2401 35.492 16.2393 35.7968L16.2397 35.7985L16.2393 35.8002L16.2664 45.1804C16.2672 45.4889 16.4317 45.7737 16.6978 45.9279C16.8735 46.03 25.0454 50.7794 24.8697 50.6772L24.8719 50.6795C25.1359 50.8315 25.4673 50.8351 25.739 50.6786L34.0604 45.8742L34.1605 82.0409C34.1614 82.3485 34.3258 82.6333 34.592 82.7884C34.7676 82.8906 42.9446 87.6467 42.7689 87.5445L42.7711 87.5468C43.0353 87.698 43.3633 87.7033 43.6382 87.5459L58.6879 78.8497C58.9574 78.6938 59.1227 78.4064 59.1218 78.0954L59.0019 31.4743L76.3269 21.4718C76.5965 21.3158 76.7617 21.0285 76.7609 20.7174ZM67.6968 7.60108L74.1379 11.3347C73.9619 11.4363 65.3901 16.3821 65.9127 16.0806L65.8949 9.95143C65.894 9.64871 65.7278 9.35228 65.4584 9.19623L65.1965 9.04536L67.6968 7.60108ZM35.2078 27.1702L35.2239 32.79L28.7911 29.0514L28.7759 23.4322C29.024 23.5764 35.6268 27.4136 35.2078 27.1702ZM56.8546 6.20851C57.0282 6.30942 63.7221 10.1999 63.2949 9.95164L36.0757 25.6669L29.6353 21.9244L56.8546 6.20851ZM27.9231 30.5546C28.1474 30.6849 34.5854 34.4264 34.3648 34.2982C34.1165 34.4416 24.7796 39.8316 25.2799 39.5428L18.8388 35.8002L27.9231 30.5546ZM18.0005 44.6777L17.9793 37.308L24.4122 41.0456C24.4161 42.4413 24.4333 48.5974 24.4328 48.4164L18.0005 44.6777ZM35.7938 44.8734L42.2016 41.1739C42.2348 52.443 42.2991 74.1871 42.3319 85.2828L35.8947 81.5383C35.8524 65.2339 35.8389 61.1825 35.7938 44.8734ZM57.2799 36.7239L53.0159 39.1854C52.6005 39.4253 52.4582 39.9559 52.698 40.3712C52.9385 40.7876 53.4707 40.9276 53.8838 40.689L57.285 38.7256L57.2973 43.5369L53.0159 46.0084C52.6005 46.2483 52.4582 46.7789 52.698 47.1942C52.9385 47.6106 53.4707 47.7507 53.8838 47.5121L57.3024 45.5386L57.3147 50.3499L53.0159 52.8315C52.6005 53.0713 52.4582 53.6019 52.698 54.0172C52.9385 54.4337 53.4707 54.5737 53.8838 54.3351L57.3198 52.3515L57.3321 57.1621L53.0159 59.6545C52.6005 59.8944 52.4582 60.425 52.698 60.8403C52.9385 61.2567 53.4707 61.3967 53.8838 61.1581L57.3373 59.1639L57.3496 63.9751L53.0159 66.4776C52.6005 66.7174 52.4582 67.248 52.698 67.6633C52.9385 68.0797 53.4707 68.2198 53.8838 67.9812L57.3546 65.977L57.3669 70.7879L53.0159 73.2998C52.6005 73.5396 52.4582 74.0702 52.698 74.4855C52.9385 74.9019 53.4707 75.042 53.8838 74.8034L57.372 72.7897L57.3843 77.5978L44.0679 85.293L43.9349 40.1733L57.269 32.4748L57.2799 36.7239ZM26.1687 48.4257C26.1675 47.9776 26.1474 40.6904 26.1483 41.0461C26.3785 40.9132 36.7349 34.9345 36.5304 35.0526C36.8017 34.8955 36.9635 34.6064 36.9643 34.3016C36.9648 34.1268 36.9443 26.9955 36.944 27.1703C52.089 18.4262 48.6668 20.402 64.1596 11.4572L64.1734 17.5873C64.1753 18.2653 64.9113 18.6652 65.483 18.3366C65.659 18.235 75.6313 12.4788 75.003 12.8415L75.0233 20.2199C34.2557 43.7479 47.7927 35.9321 26.1687 48.4257Z" fill="white"/>
</svg>
