<svg width="93" height="92" viewBox="0 0 93 92" fill="none" xmlns="http://www.w3.org/2000/svg">
<path d="M51.7511 9.30227C51.4791 9.69724 51.5782 10.2372 51.9732 10.5092C52.5284 10.8923 52.97 11.2187 53.5124 11.6399C53.8911 11.9336 54.4362 11.8651 54.7304 11.4865C55.0245 11.1076 54.9558 10.5626 54.577 10.2685C54.0057 9.82523 53.5421 9.48196 52.9581 9.0802C52.5657 8.80982 52.0232 8.90899 51.7511 9.30227Z" fill="white"/>
<path d="M31.872 71.8208C35.4388 73.8816 39.4711 75.322 43.598 75.0168L65.1405 87.5477C65.2753 87.6265 65.4261 87.6655 65.577 87.6655C65.727 87.6655 65.8771 87.6265 66.011 87.5494L83.8729 77.2377C84.1408 77.0826 84.3069 76.7969 84.3069 76.4867C84.3069 76.1774 84.1425 75.8909 83.8746 75.7349L64.4196 64.4366L66.6865 63.1203C71.2312 60.4632 73.7435 54.9997 73.7596 47.7376C73.7986 35.8892 66.9365 21.3455 57.0732 12.3696C56.7198 12.0467 56.1705 12.0738 55.8476 12.4273C55.5247 12.7816 55.551 13.3308 55.9053 13.6529C65.4329 22.3236 72.061 36.3376 72.0237 47.7333C72.0093 54.3555 69.8022 59.2876 65.8126 61.6201C65.6375 61.7217 52.7249 69.2131 53.549 68.7351C53.6495 68.5612 54.3686 67.128 54.7609 66.0308C60.2217 50.7839 48.0257 26.6173 32.8832 17.8696C29.6975 16.0338 25.8396 14.6512 22.1011 14.6259L34.3648 7.49858C38.284 5.22621 43.55 5.68136 49.1907 8.78013C49.6111 9.00897 50.1375 8.85641 50.3697 8.43686C50.6002 8.01646 50.4468 7.48926 50.0264 7.25787C43.8289 3.85567 37.9602 3.40645 33.4935 5.99751L15.7951 16.2838C15.7841 16.2902 15.7783 16.3014 15.7677 16.3081C11.2347 18.9566 8.72023 24.4053 8.69321 31.6725C8.65676 46.4238 19.0549 64.4341 31.872 71.8208ZM62.6944 65.4427L81.7065 76.4833L65.5787 85.794L46.2691 74.5627C48.4853 73.9327 62.8689 65.3415 62.6944 65.4427ZM16.6917 17.773C21.3811 15.0685 27.3499 16.693 32.0212 19.3876C48.315 28.7835 57.9777 52.9793 52.9734 65.8508C51.1947 70.416 47.8314 72.8196 44.0125 73.2214C40.6683 73.6243 36.8055 72.6662 32.7391 70.3172C20.4026 63.2076 10.3943 45.8737 10.4291 31.6784C10.4536 25.0233 12.6782 20.0858 16.6917 17.773Z" fill="white"/>
<path d="M31.9102 60.2258C38.744 64.182 44.3823 61.5502 45.6707 55.2124C47.4838 47.4815 41.607 34.5306 32.8646 29.501C25.6086 25.1039 18.8281 28.5196 18.8057 37.5149C18.7871 45.8525 24.6659 56.0405 31.9102 60.2258ZM31.4518 30.7279C31.6295 30.8238 31.8059 30.8897 31.9814 30.9961C38.8662 34.9563 44.5262 44.7915 44.2179 52.7904C44.0405 52.6973 43.8613 52.5979 43.6806 52.4917C36.8489 48.5447 31.1858 38.7676 31.4518 30.7279ZM29.7633 29.9759C29.0608 38.4929 35.1713 49.5796 42.8067 53.9919C43.2099 54.2289 43.6107 54.4292 44.0142 54.6147C43.999 54.6907 43.9935 54.7638 43.9755 54.8412C42.803 60.6052 38.0157 61.7564 32.779 58.7231C26.0144 54.8149 20.5246 45.3025 20.5416 37.5191C20.5576 31.475 23.9416 27.8854 29.7633 29.9759Z" fill="white"/>
</svg>
