<svg width="93" height="92" viewBox="0 0 93 92" fill="none" xmlns="http://www.w3.org/2000/svg">
<rect x="0.5" width="92" height="92" rx="46" fill="black"/>
<path d="M69.5677 51.1084L69.5207 34.5452C69.5202 34.3447 69.4113 34.1557 69.2371 34.0543L61.5276 29.5824C61.3519 29.4812 61.1368 29.4807 60.9605 29.5819L57.0816 31.8186L57.059 23.8717C57.0587 23.7567 56.9866 23.5054 56.7777 23.3842L56.7764 23.3834C56.776 23.3832 56.7758 23.3827 56.7755 23.3825C56.7751 23.3823 56.7746 23.3824 56.7743 23.3822L49.0721 18.9062C48.8957 18.8034 48.6796 18.8045 48.5044 18.9051L36.093 26.0706C35.916 26.1731 35.8105 26.3616 35.81 26.5604C35.81 26.5608 35.8102 26.5611 35.8102 26.5615C35.8102 26.5619 35.81 26.5622 35.81 26.5626L35.8405 37.2504L23.7153 44.2535C23.5144 44.3698 23.4327 44.585 23.4323 44.7427C23.4323 44.7432 23.4327 44.7436 23.4327 44.7441C23.4327 44.8603 23.4544 51.6315 23.455 51.5153C23.4561 51.8276 23.7093 52.0796 24.021 52.0796C24.0216 52.0796 24.0221 52.0796 24.0227 52.0796C24.3355 52.0785 24.5882 51.8243 24.5871 51.5119L24.5677 45.7296L31.1428 49.5529L31.2069 71.6189L24.6318 67.7955L24.6213 62.2562C24.6208 61.9438 24.3676 61.6912 24.0553 61.6912C24.0547 61.6912 24.0558 61.6912 24.0553 61.6912C23.743 61.6918 23.4887 61.9455 23.4892 62.2584L23.5003 68.1227C23.5009 68.3239 23.6081 68.5097 23.7817 68.6108C23.8958 68.6772 31.6052 73.1599 31.4919 73.094C31.4925 73.0943 31.4928 73.0951 31.4934 73.0955C31.6655 73.1946 31.8817 73.1969 32.0589 73.0949C34.4869 71.6929 64.7134 54.2389 69.2847 51.6004C69.4605 51.4987 69.5683 51.3113 69.5677 51.1084ZM61.2424 30.7261L67.8232 34.543L57.1077 40.7318C57.0978 37.3592 57.0847 32.8784 57.0854 33.123L61.2424 30.7261ZM36.4022 38.2336L42.9855 42.0594C42.1368 42.5496 34.4474 46.9907 31.709 48.5723C31.5557 48.4832 24.8775 44.6004 25.1271 44.7455L36.4022 38.2336ZM43.5165 31.3652L43.5441 41.0738L36.9724 37.2524L36.9448 27.5461L43.5165 31.3652ZM32.275 49.553L43.5497 43.0411L43.6125 65.1145L32.3391 71.6256L32.275 49.553ZM48.7863 20.0493L55.3636 23.8717L44.0825 30.3848L37.5053 26.5626L48.7863 20.0493ZM44.7465 64.4606C44.7429 63.2195 44.6524 32.6064 44.6488 31.3652C47.2524 29.8621 53.2493 26.3999 55.9297 24.8523C55.9574 34.6017 55.9963 48.2927 56.0237 57.9495L44.7465 64.4606ZM57.1541 57.2967L57.111 42.0386L68.3914 35.5258L68.4345 50.7839L57.1541 57.2967Z" fill="white"/>
<path d="M24.0442 59.2398C24.3641 59.2386 24.6108 58.9746 24.6097 58.6671L24.5986 54.6142C24.5975 54.3024 24.3444 54.0498 24.0326 54.0498H24.0309C23.7123 54.0509 23.4644 54.3128 23.4655 54.6203L23.4765 58.6754C23.4776 58.9872 23.7308 59.2398 24.0426 59.2398H24.0442Z" fill="white"/>
<path d="M52.4782 38.6842L51.1162 39.4704L51.0952 32.1339C51.0946 31.8874 50.9343 31.6696 50.6994 31.5955C50.4628 31.5209 50.208 31.6082 50.0659 31.81L47.4486 35.5307C47.2689 35.7861 47.3303 36.1393 47.5862 36.3195C47.8421 36.5002 48.1954 36.4372 48.375 36.1818L49.9681 33.9166L49.9859 40.1228L48.0616 41.2336C47.7907 41.39 47.6979 41.7361 47.8543 42.0069C48.0122 42.2796 48.3594 42.3692 48.6276 42.2142L53.0443 39.6648C53.3151 39.5084 53.408 39.1624 53.2516 38.8915C53.0946 38.6207 52.7469 38.5272 52.4782 38.6842Z" fill="white"/>
</svg>
