<svg width="92" height="92" viewBox="0 0 92 92" fill="none" xmlns="http://www.w3.org/2000/svg">
<rect width="92" height="92" rx="46" fill="black"/>
<path d="M20.6801 44.8C20.4401 44.92 20.3201 45.16 20.3201 45.28V57.76C20.3201 58 20.4401 58.12 20.5601 58.24L24.6401 60.64C24.8801 60.76 25.2401 60.76 25.4801 60.4C25.6001 60.16 25.6001 59.8 25.2401 59.56L21.4001 57.4V46.24L48.2801 61.84C48.2801 61.96 48.2801 73.72 48.2801 73L32.6801 63.88C32.4401 63.76 32.0801 63.76 31.8401 64.12C31.7201 64.36 31.7201 64.72 32.0801 64.96C33.8801 66.04 48.7601 74.68 48.6401 74.56C48.8801 74.68 49.0001 74.68 49.2401 74.56L71.2001 61.84C71.4401 61.72 71.5601 61.48 71.5601 61.36V48.88C71.5601 48.76 71.4401 48.52 71.3201 48.4C71.2001 48.4 56.6801 39.88 56.5601 39.88C56.4401 39.64 56.4401 39.28 56.3201 39.04C55.9601 38.2 55.4801 37.48 54.8801 36.88C54.0401 36.04 53.5601 34.96 53.3201 33.88L52.8401 30.64C53.0801 30.4 53.2001 30.04 53.2001 29.68V24.88C53.2001 24.28 52.8401 23.68 52.1201 23.2C50.8001 22.48 48.8801 22.48 47.5601 23.2C46.8401 23.56 46.4801 24.16 46.4801 24.88C46.4801 25.24 46.4801 29.8 46.4801 29.68C46.4801 30.04 46.6001 30.4 46.8401 30.64C46.7201 31.36 46.7201 31.36 46.6001 32.44C46.3601 32.08 46.1201 31.84 45.8801 31.6C45.0401 30.76 44.5601 29.68 44.3201 28.6L43.8401 25.36C44.0801 25.12 44.2001 24.76 44.2001 24.4V19.6C44.2001 19 43.8401 18.4 43.1201 17.92C41.8001 17.2 39.8801 17.2 38.5601 17.92C37.8401 18.28 37.4801 18.88 37.4801 19.6C37.4801 19.96 37.4801 24.52 37.4801 24.4C37.4801 24.76 37.6001 25.12 37.8401 25.36L37.6001 27.04C37.4801 28.12 37.1201 29.92 36.5201 30.76L35.8001 31.6C34.4801 32.92 33.8801 34.6 33.8801 36.28C33.8801 36.4 33.8801 37.72 33.8801 37.6C32.8001 37.84 19.8401 45.28 20.6801 44.8ZM30.1601 49.96L33.4001 48.16V48.4C33.4001 49.6 34.2401 50.8 35.6801 51.52C37.3601 52.48 40.1201 52.96 42.6401 52.48V53.68C42.6401 54.76 43.3601 56.08 45.1601 57.04C48.8801 58.96 54.0401 58.12 55.9601 55.84C56.5601 55.12 56.8001 54.4 56.8001 53.8V50.68L61.8401 53.68C44.3201 63.76 50.3201 60.28 49.0001 61.12C28.2401 48.88 30.2801 50.08 30.1601 49.96ZM36.1601 50.44C35.2001 49.84 34.6001 49.12 34.6001 48.28C34.6001 48.16 34.6001 45.88 34.6001 46C34.8401 46.24 35.2001 46.48 35.6801 46.72C37.3601 47.68 39.8801 48.16 42.6401 47.68V51.16C40.2401 51.76 37.7201 51.4 36.1601 50.44ZM45.7601 56.08C44.2001 55.36 43.7201 54.4 43.7201 53.68C43.7201 53.56 43.7201 51.28 43.7201 51.4C46.4801 53.92 52.7201 53.92 55.4801 51.4V53.68C55.4801 54.16 55.3601 54.52 55.0001 54.88C53.4401 57.04 48.5201 57.4 45.7601 56.08ZM55.6001 49C55.6001 52.96 43.8401 53.2 43.8401 49C43.8401 48.76 43.8401 44.44 43.8401 44.56C46.7201 47.08 52.8401 47.08 55.6001 44.56V49ZM42.5201 41.56V46.48C40.3601 46.96 37.8401 46.6 36.1601 45.64C35.2001 45.04 34.6001 44.32 34.6001 43.48V39.04C34.8401 39.28 35.2001 39.52 35.5601 39.76C37.4801 40.84 40.1201 41.2 42.6401 40.72C42.6401 41.08 42.5201 41.56 42.5201 41.56ZM49.7201 73.12V61.96C78.1601 45.52 68.3201 51.16 70.4801 49.96V61.12L49.7201 73.12ZM69.7601 49L63.0401 52.84L56.8001 49.24V49V41.68C56.8001 41.56 56.8001 41.56 56.8001 41.44L69.7601 49ZM53.9201 37.72C54.4001 38.2 54.8801 38.8 55.1201 39.52C55.4801 40.48 55.4801 41.2 55.4801 42.16C55.3601 46.36 43.7201 46.12 43.7201 42.16V41.68C43.7201 40.96 43.9601 40.12 44.3201 39.28C44.6801 38.68 45.0401 38.08 45.4001 37.72C45.7601 37.24 46.2401 37.12 46.9601 35.2C47.4401 33.28 47.5601 31.72 47.6801 31.36C48.2801 31.6 49.0001 31.84 49.7201 31.84C50.4401 31.84 51.1601 31.72 51.7601 31.36L52.1201 34C52.2401 35.44 52.9601 36.76 53.9201 37.72ZM51.8801 26.44V29.56C51.8801 29.8 51.6401 30.04 51.4001 30.16C50.4401 30.64 49.0001 30.64 48.0401 30.16C47.6801 29.92 47.5601 29.68 47.5601 29.56V26.44C48.6401 27.16 50.5601 27.16 51.8801 26.44ZM47.9201 24.16C48.8801 23.68 50.3201 23.68 51.2801 24.16C52.0001 24.52 52.0001 25 51.2801 25.36C50.3201 25.84 48.8801 25.84 47.9201 25.36C47.3201 25 47.3201 24.52 47.9201 24.16ZM38.2001 24.28V21.16C39.5201 21.88 41.2001 21.76 42.5201 21.16C42.5201 21.16 42.5201 21.16 42.6401 21.16V24.28C42.6401 25.48 38.2001 25.6 38.2001 24.28ZM38.8001 18.76C39.7601 18.28 41.2001 18.28 42.1601 18.76C42.8801 19.12 42.8801 19.6 42.1601 19.96C41.2001 20.44 39.7601 20.44 38.8001 19.96C38.0801 19.72 38.0801 19.24 38.8001 18.76ZM34.4801 36.28C34.4801 34.84 35.0801 33.4 36.1601 32.32L36.8801 31.48C37.7201 30.4 37.9601 28.6 38.2001 27.16L38.3201 26.08C39.4001 26.56 41.0801 26.68 42.2801 26.08L42.6401 28.72C42.8801 30.16 43.4801 31.36 44.5601 32.44C45.0401 32.92 45.5201 33.52 45.7601 34.24C45.7601 34.36 45.6401 34.6 45.6401 34.96C45.0401 36.52 44.6801 36.52 44.3201 37C43.8401 37.48 43.3601 38.08 43.0001 38.92C42.8801 39.16 42.7601 39.52 42.6401 39.76C40.3601 40.36 37.6001 40 35.9201 39.04C34.8401 38.44 34.3601 37.72 34.2401 36.88V36.28H34.4801ZM33.2801 43.6V46.72L28.8401 49.24L22.1201 45.28L33.2801 38.8V43.6Z" fill="white"/>
<path d="M27.8801 61.12C27.6401 61 27.2801 61 27.0401 61.36C26.8001 61.6 26.9201 62.08 27.2801 62.2L29.6801 63.64C29.9201 63.76 30.2801 63.76 30.5201 63.4C30.6401 63.16 30.6401 62.8 30.2801 62.56L27.8801 61.12Z" fill="white"/>
<path d="M63.28 55.36L58.36 58.24C57.64 58.72 57.04 59.68 57.04 60.52C57.04 61.6 58 62.2 58.96 61.6L63.88 58.72C64.6 58.24 65.2 57.28 65.2 56.44C65.2 55.36 64.24 54.88 63.28 55.36ZM63.28 57.76L58.36 60.64C58.36 60.64 58.24 60.64 58.24 60.76V60.64C58.24 60.16 58.6 59.56 58.96 59.44L63.88 56.56C63.88 56.56 64 56.56 64 56.44V56.56C64 56.92 63.64 57.52 63.28 57.76Z" fill="white"/>
</svg>
