<svg width="93" height="92" viewBox="0 0 93 92" fill="none" xmlns="http://www.w3.org/2000/svg">
<rect x="0.5" width="92" height="92" rx="46" fill="white"/>
<path d="M40.2723 62.5525C40.3618 62.6045 40.4591 62.6294 40.5564 62.6294C40.751 62.6294 40.9411 62.5288 41.0462 62.3474C41.2032 62.0771 41.1114 61.7311 40.8405 61.5741L39.3923 60.7328C39.1225 60.5769 38.7754 60.6654 38.6184 60.9379C38.4614 61.2082 38.5532 61.5542 38.824 61.7112L40.2723 62.5525Z" fill="black"/>
<path d="M73.6298 42.2829V42.2801C73.6298 42.2779 73.6286 42.2761 73.6286 42.2739C73.6251 41.8351 73.3625 41.4305 72.9023 41.1619L44.8979 24.8872C44.124 24.4334 42.9079 24.4323 42.134 24.885L20.0663 37.6219C19.5986 37.8961 19.3311 38.3041 19.3311 38.7419C19.3311 39.8269 19.3158 34.7429 19.3731 49.7149C19.3731 50.1533 19.6417 50.5612 20.1105 50.8354L36.9556 60.6255C37.2243 60.7808 37.5714 60.6919 37.7295 60.421C37.8865 60.1507 37.7947 59.8041 37.5239 59.6471L20.6798 49.8575C20.5538 49.7835 20.5096 49.7188 20.5052 49.7127L20.4959 47.2753L48.0796 63.296C48.4677 63.5165 48.9563 63.6271 49.4461 63.6271C49.9369 63.6271 50.43 63.5165 50.8258 63.2949L72.5305 50.821L72.5397 53.2361C72.5342 53.2543 72.4922 53.3234 72.3662 53.3969L50.3029 66.1322C49.8684 66.3821 49.1133 66.3843 48.6854 66.1333L42.5552 62.5707C42.2855 62.4143 41.9383 62.5038 41.7813 62.7752C41.6243 63.0456 41.7161 63.3921 41.987 63.5491L48.115 67.1106C48.8967 67.569 50.0801 67.5669 50.8689 67.1128L72.9344 54.3759C73.4021 54.1023 73.6707 53.6905 73.6707 53.2433C73.6673 52.3264 73.6335 43.2734 73.6298 42.2829ZM20.4687 40.1055L48.0796 56.1514C48.7117 56.5111 49.9228 56.6546 50.8269 56.1497L72.5033 43.6223L72.5116 45.8209L50.2675 58.6046C49.8308 58.85 49.0691 58.8506 48.6434 58.6096L20.4768 42.2506L20.4687 40.1055ZM20.6356 38.6004L42.7034 25.8634C43.1279 25.6147 43.9007 25.6147 44.3274 25.8645L72.333 42.1397C72.5076 42.242 72.5574 42.2862 72.3142 42.4239L50.2675 55.1652C49.8308 55.4107 49.0691 55.4112 48.6434 55.1702L20.6389 38.8955C20.5162 38.8232 20.4753 38.7638 20.4674 38.7472C20.4789 38.7249 20.5209 38.6674 20.6356 38.6004ZM50.2675 62.3098C49.8308 62.5552 49.0691 62.5558 48.6434 62.3148L20.4909 45.964L20.4818 43.562L48.0796 59.5907C48.8548 60.0313 50.0333 60.0335 50.8258 59.5896L72.5165 47.1239L72.5256 49.5181L50.2675 62.3098Z" fill="black"/>
<path d="M27.6028 38.9768L44.2103 29.3923C44.4811 29.2359 44.574 28.8898 44.417 28.619C44.2622 28.3487 43.9151 28.2558 43.6442 28.4117L27.0368 37.9962C26.7659 38.1526 26.673 38.4986 26.83 38.7695C26.9848 39.0396 27.3306 39.133 27.6028 38.9768Z" fill="black"/>
<path d="M30.7281 41.0867C30.8829 41.3567 31.2287 41.4502 31.5009 41.294L48.1072 31.71C48.3781 31.5536 48.471 31.2076 48.314 30.9367C48.1581 30.6653 47.8132 30.5719 47.5412 30.7294L30.9348 40.3134C30.664 40.4698 30.5711 40.8158 30.7281 41.0867Z" fill="black"/>
<path d="M32.9171 43.9473C32.9171 44.1496 33.0244 44.3365 33.199 44.4376L48.4544 53.303C48.6271 53.4047 48.845 53.4058 49.0216 53.3041L67.6223 42.5538C67.797 42.4526 67.9053 42.2658 67.9053 42.064C67.9053 41.8623 67.7981 41.6754 67.6234 41.5743C63.8522 39.3827 56.1489 34.9062 52.3813 32.7167C52.2077 32.615 51.9899 32.615 51.8142 32.7156L33.2001 43.4581C33.0255 43.5593 32.9171 43.7456 32.9171 43.9473ZM48.7396 52.1593L39.8102 46.9702C39.9298 46.9763 46.5142 47.3073 46.6303 47.3132C46.9199 47.3132 47.1642 47.0943 47.193 46.8041L47.5103 43.6748L53.3177 44.4598C53.5521 44.494 53.7864 44.3724 53.8959 44.1607L56.1844 39.7839L63.093 40.2506L66.2105 42.0624L48.7396 52.1593ZM52.0961 33.8598L60.8828 38.9662L55.8925 38.6291C55.6504 38.6164 55.4558 38.733 55.3519 38.932L53.0767 43.2846L47.0824 42.4742C46.9321 42.4554 46.7762 42.4958 46.6557 42.5908C46.5352 42.6859 46.4589 42.8258 46.4434 42.9783L46.1217 46.1545L37.6736 45.7287L34.613 43.9501L52.0961 33.8598Z" fill="black"/>
</svg>
