<svg width="93" height="92" viewBox="0 0 93 92" fill="none" xmlns="http://www.w3.org/2000/svg">
<path d="M23.7992 54.2318L16.2322 58.614C16.0168 58.7388 15.7948 59.0575 15.794 59.3684L15.7559 73.0009C15.755 73.312 15.9203 73.5993 16.1898 73.7552C16.3643 73.856 41.6809 88.4728 40.0662 87.5429C40.2001 87.62 40.3502 87.659 40.5002 87.659C40.4999 87.659 40.5005 87.659 40.5002 87.659C40.5027 87.659 40.5061 87.6607 40.5087 87.6607C40.6578 87.6607 40.8079 87.6225 40.9418 87.5454C40.9495 87.541 40.9525 87.5317 40.9601 87.5271L60.4472 76.2065C60.7142 76.0522 60.8786 75.7674 60.8795 75.4589L60.8936 70.1339C61.4762 70.6034 58.7837 68.4315 66.5934 74.7254C66.8617 74.9076 67.1225 74.9349 67.4427 74.78C67.7949 74.6126 73.4519 71.1181 75.8274 69.6691C76.0215 69.5495 76.1614 69.3588 76.2165 69.1376L77.2234 65.076C77.2901 64.8092 77.1951 64.4093 76.9267 64.1928L70.0971 58.6618L71.72 57.7147C72.7456 57.1053 73.322 55.9196 73.3432 54.377C73.3432 54.3727 73.3432 54.3693 73.3432 54.3651C73.3432 51.5296 71.4287 48.1969 68.9713 46.7152L68.9985 39.3053C68.9993 38.9942 68.834 38.706 68.5645 38.5501C68.5623 38.5488 68.5596 38.5494 68.5574 38.5481L60.9937 34.1813C60.9995 32.1251 61.0367 18.8217 61.0371 18.9972C61.0363 18.6923 60.8745 18.4033 60.6032 18.2462L36.7183 4.45605C36.4487 4.30009 36.1173 4.30009 35.8478 4.45775L16.3518 15.7877C16.3513 15.788 16.3505 15.7879 16.35 15.7882C16.3495 15.7885 16.3492 15.7893 16.3486 15.7896L16.3466 15.7908C16.0233 15.9784 15.9158 16.364 15.9152 16.5383L15.8771 30.181C15.8762 30.4921 16.0415 30.7794 16.311 30.9354L23.852 35.2894L23.841 39.2993C23.8393 39.7791 24.2275 40.1681 24.7063 40.1698C24.7072 40.1698 24.708 40.1698 24.7089 40.1698C25.1869 40.1698 25.5751 39.7824 25.5768 39.3044L25.5895 34.7919C25.5904 34.4808 25.4251 34.1935 25.1556 34.0375L17.6146 29.6835L17.6468 18.042C22.889 21.0684 34.6699 27.87 39.7992 30.8313C39.7934 32.8876 39.7565 46.1901 39.756 46.0147C39.7565 46.1914 39.8843 46.5887 40.19 46.7657L47.7597 51.136L47.7524 53.8078L47.7352 58.5496C47.7343 58.8598 47.8987 59.1472 48.1666 59.3031C48.3414 59.4472 50.3888 60.2674 51.6001 63.3765C51.9367 64.2351 52.095 65.1094 52.095 65.6875C52.095 65.6913 52.0959 65.6961 52.0959 65.6998C52.0931 66.6062 51.8187 67.2832 51.3433 67.5569C50.436 68.0694 49.1894 67.1454 49.015 67.0746C49.0043 67.0685 48.9915 67.071 48.9806 67.0653C48.8578 66.9983 48.724 66.9502 48.5743 66.95C48.1222 66.95 47.7055 67.3753 47.7046 67.8162L47.6902 74.2325L40.9867 70.3649C40.7172 70.2107 40.3875 70.2081 40.1196 70.3641C39.8518 70.5192 39.6857 70.804 39.6848 71.1142L39.6373 85.2872L17.4934 72.5034L17.5256 60.872C17.7046 60.9755 24.635 64.9842 24.2003 64.7327C24.7844 65.0728 25.5055 64.6365 25.5073 63.9792C25.5427 53.249 25.5332 54.8908 25.5395 52.6759C25.5412 52.1961 25.153 51.8071 24.6741 51.8054C24.6733 51.8054 24.6724 51.8054 24.6716 51.8054C24.1935 51.8054 23.8054 52.1927 23.8037 52.6708L23.7992 54.2318ZM41.3808 85.2754L41.4164 72.6212L48.1242 76.4938C48.5208 76.7211 48.8442 76.5155 49.0188 76.4671L59.1566 70.5777L59.1453 74.9563L41.3808 85.2754ZM65.809 57.424C65.9889 57.5697 75.0882 64.9373 74.8806 64.7692L68.1525 68.8926L59.0815 61.5613C61.6805 59.963 58.0352 62.2047 65.809 57.424ZM66.5616 72.4839L57.5502 65.1997C57.5941 65.0224 58.1408 62.8153 58.0969 62.9926L67.1072 70.2813C67.0632 70.4587 66.5176 72.6612 66.5616 72.4839ZM74.6171 68.3748L68.4281 72.1686C68.4721 71.9912 68.8838 70.3305 68.8399 70.5078C69.0923 70.3531 75.4315 66.4677 75.029 66.7144L74.6171 68.3748ZM71.6073 54.3592C71.5938 55.2729 71.3183 55.934 70.8394 56.2196L68.6554 57.4942C68.4755 57.3484 66.2462 55.5425 66.426 55.6882C66.4257 55.6879 66.4264 55.6885 66.426 55.6882L66.4244 55.6873C66.1382 55.4569 65.7338 55.4291 65.4234 55.6229C65.2408 55.7352 56.5852 61.0596 57.1272 60.7262C56.983 60.8146 56.7917 61.0444 56.7399 61.2551C56.4144 62.5614 55.7642 65.1711 55.816 64.9632C55.642 65.064 53.6434 66.2228 53.8174 66.1219C53.8266 65.9863 53.8314 65.8479 53.8316 65.7059C53.8316 65.7052 53.8318 65.7047 53.8318 65.7041C53.8318 65.5618 53.8316 65.363 53.8123 65.2226C53.6753 63.251 52.5712 60.8071 50.8429 59.137C50.7411 59.0381 50.6432 58.9319 50.5381 58.8395L53.1279 57.3312L68.4306 48.4283C70.1895 49.6971 71.6048 52.2896 71.6073 54.3592ZM59.258 34.1813L41.4964 44.5031L41.5354 30.8312L59.297 20.5087L59.258 34.1813ZM42.3555 46.0113L60.1261 35.6844L66.3973 39.3057L48.6254 49.6311C48.3616 49.4788 41.9467 45.7753 42.3555 46.0113ZM67.2338 47.1073L50.9739 56.5767L49.4786 57.4467L49.489 53.6337L49.4981 51.1346L67.2575 40.8142L67.2338 47.1073ZM36.286 6.21055L58.4376 19.0006C54.3016 21.4043 44.0438 27.3658 40.6676 29.3279L18.5148 16.5383L36.286 6.21055ZM52.2087 69.0613C52.2098 69.0607 52.2106 69.0596 52.2117 69.059C52.2128 69.0584 52.2143 69.0587 52.2155 69.0579C52.2169 69.0571 52.2182 69.0562 52.2196 69.0554C52.3937 68.9545 56.7724 66.4157 56.4935 66.5774L59.0411 68.6375L49.4302 74.2215L49.4439 69.2173C50.4584 69.5699 51.4128 69.5173 52.2087 69.0613ZM23.7935 56.2406C23.7929 56.4188 23.7719 62.8468 23.7731 62.4741C23.5972 62.3724 18.0584 59.1682 18.3986 59.365L23.7935 56.2406Z" fill="white"/>
<path d="M24.6808 49.2745H24.6834C25.1614 49.2745 25.5496 48.8872 25.5513 48.4091L25.5648 43.6355C25.5665 43.1558 25.1783 42.7668 24.6995 42.7651H24.6969C24.2189 42.7651 23.8307 43.1524 23.829 43.6305L23.8154 48.404C23.8137 48.8838 24.2019 49.2728 24.6808 49.2745Z" fill="white"/>
<path d="M34.0789 20.8245C36.5464 22.2497 40.4227 22.2636 42.9023 20.8228C45.6584 19.2211 45.6657 16.3275 42.8734 14.7143C40.3917 13.2802 36.5166 13.2819 34.0518 14.716C31.3062 16.3106 31.2758 19.2052 34.0789 20.8245ZM34.924 16.2162C36.8357 15.1051 40.0794 15.105 42.0055 16.2179C43.618 17.1492 43.6338 18.3896 42.0301 19.3226C40.1171 20.433 36.8734 20.433 34.9468 19.3209C33.3342 18.3896 33.3193 17.1477 34.924 16.2162Z" fill="white"/>
<path d="M50.8467 37.2668C53.042 35.9988 54.7566 33.0238 54.7498 30.4938C54.7428 27.6136 52.4635 26.2962 49.9559 27.7442C47.7556 29.0147 46.0367 31.9923 46.0435 34.5232C46.0522 37.3862 48.3174 38.7246 50.8467 37.2668ZM50.8238 29.2478C52.1102 28.5041 53.0103 28.9023 53.014 30.4989C53.0191 32.3991 51.629 34.8105 49.9788 35.7632C48.629 36.5434 47.7846 36.0454 47.7793 34.5181C47.7742 32.617 49.1685 30.2031 50.8238 29.2478Z" fill="white"/>
</svg>
