<svg width="93" height="92" viewBox="0 0 93 92" fill="none" xmlns="http://www.w3.org/2000/svg">
<path d="M79.6243 44.7542C79.5582 39.3425 77.6182 35.1681 74.217 33.0482C74.1637 32.989 74.1131 32.9274 74.0421 32.883L65.1967 27.3822C63.1559 26.2124 60.6757 25.8967 58.0067 26.3711C57.0853 23.7701 55.5407 21.7705 53.4306 20.5499C53.4252 20.5464 53.4226 20.5405 53.417 20.5371L44.5818 15.0346C40.9745 12.9682 36.2671 13.4293 31.3223 16.3331C30.9095 16.5755 30.7713 17.1078 31.0137 17.5197C31.2578 17.935 31.7893 18.0707 32.2021 17.8282C36.5849 15.255 40.6762 14.7939 43.691 16.5247L48.073 19.2539C45.9823 19.3189 43.0908 20.0827 40.132 21.817C34.9025 24.8846 30.2324 30.2659 27.0107 36.3295C24.1803 41.6545 22.4624 47.5048 22.5099 52.7995C22.5444 55.8945 23.1579 58.3123 24.0051 60.1124L20.1749 57.7257C17.1761 56.0034 15.4937 52.2977 15.4377 47.2936C15.3699 39.7332 19.1654 30.5149 25.1078 23.8105C25.4256 23.4511 25.3926 22.9019 25.034 22.5849C24.6747 22.2645 24.1263 22.2967 23.8093 22.6578C17.5974 29.6673 13.6307 39.3433 13.7019 47.3123C13.7654 52.9572 15.7573 57.19 19.284 59.2157L27.559 64.3707C27.7404 64.4928 27.9268 64.608 28.1176 64.7182C28.6882 64.946 30.1184 65.9862 33.0776 65.9862C33.8195 65.9862 34.5876 65.8935 35.3683 65.7504C36.294 68.3442 37.8348 70.3671 39.9015 71.5565C42.6904 73.2967 48.4955 76.9407 48.7342 77.0387C52.8942 79.4374 57.8753 78.1898 62.0098 75.752C71.8291 70.0156 79.7311 56.1102 79.6243 44.7542ZM58.5025 28.006C60.6995 27.6466 62.6955 27.9501 64.3068 28.8722L68.7117 31.6116C68.6286 31.6141 68.5425 31.6317 68.459 31.6358C64.976 31.8019 61.6653 33.4182 58.8568 35.3902C58.8711 35.2539 58.8641 35.1281 58.8763 34.9929C59.0617 32.9408 59.0626 30.621 58.5441 28.247C58.5269 28.1698 58.5207 28.0824 58.5025 28.006ZM24.2526 52.7826C24.2027 47.6294 25.9113 41.921 28.7175 36.7619C31.3102 31.9972 34.8417 27.7158 38.8263 24.7785C39.5426 24.2507 40.2679 23.7508 41.0101 23.3155C44.5599 21.2322 48.9798 19.9969 52.5262 22.0272C52.5261 22.0271 52.5263 22.0273 52.5262 22.0272C54.5079 23.1578 55.9006 25.1614 56.642 27.8171C57.3046 30.1256 57.553 33.4775 56.736 37.7238C55.1005 46.1889 49.8863 54.6029 43.8907 59.541C43.8905 59.5411 43.891 59.5409 43.8907 59.541C33.5145 67.9982 24.3666 64.6267 24.2526 52.7826ZM40.7923 70.0665C39.1101 69.0986 37.82 67.4801 37.0285 65.3596C39.2446 64.6894 41.337 63.5689 43.2639 62.2039C43.2708 62.1989 43.2772 62.1957 43.2842 62.1907C43.2765 62.2633 43.2808 62.3278 43.2737 62.4001C42.9652 65.5526 43.1225 69.4375 44.5496 72.2651C44.5683 72.3227 44.5929 72.3837 44.6217 72.4448L40.7923 70.0665ZM49.547 75.5028C45.4862 73.1824 44.5608 67.6052 44.9634 62.8969C44.9853 62.64 45.032 62.3672 45.0621 62.1049C45.1167 61.6295 45.1728 61.1533 45.254 60.6626C51.3045 55.564 56.5939 46.9443 58.3564 38.4472C58.3977 38.2475 58.4614 38.0461 58.4987 37.8469C58.6779 37.7012 58.863 37.559 59.0485 37.4167C69.5516 29.3819 77.7551 33.8391 77.8884 44.7729C77.9902 55.5711 70.4738 68.7968 61.1309 74.2552C56.7184 76.8539 52.6059 77.298 49.547 75.5028Z" fill="white"/>
<path d="M66.4877 62.4331C66.247 62.0195 65.7164 61.8737 65.3019 62.1161C62.9131 63.4942 60.4994 63.4419 59.5961 60.7548L65.8528 57.1425C66.2682 56.9035 66.4106 56.3729 66.1707 55.9576C65.93 55.5423 65.3969 55.3965 64.9849 55.6406L59.2846 58.9317C59.2818 58.8438 59.2631 58.7702 59.2629 58.68C59.2606 57.8979 59.3884 57.0822 59.5717 56.2613L66.1698 52.452C66.5852 52.213 66.7276 51.6824 66.4877 51.2671C66.247 50.8501 65.7164 50.7077 65.3019 50.9501L60.344 53.8126C61.5614 50.9115 63.6879 48.2147 66.1224 46.8088C66.5377 46.5698 66.6801 46.0392 66.4402 45.6239C66.1987 45.2086 65.6672 45.0628 65.2545 45.3069C61.9772 47.1976 59.1909 51.1655 58.0678 55.1266L56.2616 56.1695C55.8463 56.4085 55.7039 56.9391 55.9438 57.3544C56.1854 57.7716 56.7191 57.9111 57.1295 57.6714L57.6327 57.3809C57.5835 57.8193 57.5258 58.2602 57.527 58.6851C57.5282 59.1106 57.5916 59.4906 57.6421 59.88L55.9446 60.86C55.5293 61.099 55.3869 61.6296 55.6268 62.0449C55.8684 62.4621 56.4021 62.6016 56.8125 62.3619L58.0748 61.6331C59.4607 65.1272 62.9241 65.4928 66.1698 63.618C66.5852 63.379 66.7276 62.8484 66.4877 62.4331Z" fill="white"/>
<path d="M28.671 18.1147C27.9446 18.664 27.2106 19.2759 26.4876 19.9353C26.1333 20.2574 26.1079 20.8067 26.4308 21.1609C26.7536 21.5156 27.3052 21.5403 27.6573 21.2169C28.3404 20.5948 29.0338 20.0167 29.7186 19.498C30.1009 19.2098 30.1763 18.6657 29.8873 18.2826C29.5966 17.8994 29.0533 17.8249 28.671 18.1147Z" fill="white"/>
<path d="M41.2 43.3591C41.6662 43.0862 42.0985 43.0099 42.3485 43.1506C42.6002 43.293 42.7537 43.6982 42.7587 44.2338C42.7732 45.7341 41.6857 47.6445 40.3855 48.4073C39.9143 48.687 39.4803 48.765 39.2252 48.6192C38.976 48.4768 38.8243 48.0768 38.8192 47.5462C38.8149 47.0698 38.4268 46.6867 37.9513 46.6867H37.9428C37.4639 46.6918 37.0791 47.0834 37.0833 47.5631C37.0944 48.7362 37.5631 49.6719 38.37 50.1296C38.7175 50.3263 39.1099 50.4246 39.5252 50.4246C39.6555 50.4246 39.7934 50.3826 39.9275 50.3634L39.9405 52.2265C39.9439 52.7029 40.3321 53.0877 40.8085 53.0877H40.8144C41.2941 53.0843 41.6798 52.6927 41.6764 52.213L41.6584 49.6292C43.2923 48.4478 44.5126 46.1755 44.4946 44.2169C44.4697 41.7402 42.4669 40.6074 40.3219 41.8606C39.8507 42.1386 39.4193 42.2166 39.165 42.0725C38.9141 41.9301 38.7607 41.525 38.7556 40.9893C38.7412 39.4857 39.8312 37.5668 41.1373 36.8022C41.6035 36.5293 42.0341 36.453 42.2858 36.5937C42.5367 36.7361 42.6901 37.1413 42.6952 37.6786C42.6994 38.155 43.0876 38.5381 43.5631 38.5381H43.5716C44.0505 38.533 44.4353 38.1414 44.431 37.6617C44.42 36.4818 43.9496 35.5427 43.141 35.0833C42.6766 34.8198 42.1299 34.7548 41.5578 34.8426L41.545 33.0085C41.5416 32.5321 41.1534 32.1473 40.6771 32.1473H40.6711C40.1914 32.1507 39.8058 32.5423 39.8092 33.022L39.8272 35.6063C38.2061 36.7986 37.0003 39.0587 37.0198 41.0062C37.0447 43.4865 39.0508 44.6167 41.2 43.3591Z" fill="white"/>
<path d="M29.3016 8.10902L28.0633 13.3089C27.9345 13.8497 28.342 14.3786 28.9084 14.3786C29.3008 14.3786 29.6568 14.1108 29.7517 13.7124L31.5122 6.31808C31.6319 5.81053 31.2866 5.32207 30.7799 5.25521L23.7941 4.3466C23.3093 4.28219 22.8829 4.61952 22.8219 5.09586C22.76 5.57051 23.0948 6.00617 23.5703 6.06889L28.3085 6.68423C15.5635 14.8147 5.38723 32.7105 5.34644 47.5225C5.34475 48.0005 5.73294 48.3904 6.21182 48.3921H6.21437C6.6924 48.3921 7.08059 48.0056 7.08229 47.5258C7.1216 33.2182 16.9757 15.9229 29.3016 8.10902Z" fill="white"/>
<path d="M86.7881 43.9846H86.7856C86.3075 43.9846 85.9193 44.3711 85.9176 44.8509C85.8789 58.996 76.2638 76.0592 64.1484 84.0055L65.4138 78.6915C65.5248 78.2253 65.2366 77.7557 64.7705 77.6455C64.3111 77.5354 63.8373 77.8218 63.7254 78.288C61.8835 86.0249 62.0022 85.4858 61.9631 85.7599C61.8989 86.2476 62.2162 86.6817 62.6973 86.7452L69.6839 87.6538C70.1475 87.7156 70.5932 87.3884 70.6561 86.9045C70.7179 86.4299 70.3832 85.9942 69.9077 85.9315L65.2966 85.3328C77.7584 77.0284 87.6133 59.4418 87.6535 44.8543C87.6552 44.3762 87.267 43.9863 86.7881 43.9846Z" fill="white"/>
</svg>
