<svg width="93" height="92" viewBox="0 0 93 92" fill="none" xmlns="http://www.w3.org/2000/svg">
<rect x="0.5" width="92" height="92" rx="46" fill="black"/>
<path d="M50.4687 24.4055L52.6853 23.1252C52.9562 22.9688 53.049 22.6228 52.8926 22.3519C52.7356 22.0811 52.389 21.9887 52.1193 22.1446L49.9027 23.4248C49.6318 23.5813 49.5389 23.9273 49.6954 24.1982C49.8522 24.4697 50.1993 24.5611 50.4687 24.4055Z" fill="white"/>
<path d="M30.7795 70.4889C30.7801 70.6901 30.8873 70.8758 31.0614 70.9764C31.0866 70.991 30.7118 70.7733 34.7058 73.0947C34.878 73.1938 35.0942 73.1961 35.2713 73.0941L62.0387 57.6403C62.2145 57.5386 62.3223 57.3512 62.3217 57.1483L62.2206 21.5117C62.1734 21.3984 62.1898 21.1696 61.9392 21.0241L61.9379 21.0234L61.937 21.0225L61.9358 21.0221L58.2965 18.907C58.1201 18.8042 57.904 18.8053 57.7288 18.9059L54.0622 21.023C53.7914 21.1795 53.6985 21.5255 53.8549 21.7964C54.0114 22.0678 54.3569 22.1595 54.6283 22.0037L58.0107 20.0502L60.5252 21.5117L34.8879 36.313L32.3737 34.8523L47.9884 25.8371C48.2592 25.6807 48.3521 25.3347 48.1957 25.0638C48.0387 24.7918 47.6926 24.699 47.4223 24.8565L30.9614 34.3603C30.7613 34.4762 30.6783 34.7176 30.6783 34.8501L30.6786 34.8512C30.6786 35.0323 30.779 70.3615 30.7795 70.4889ZM31.8132 35.8357L34.322 37.2932L34.4194 71.6188L31.9105 70.1611L31.8132 35.8357ZM35.5516 71.6248L35.4543 37.2935C41.2154 33.9674 54.8794 26.0786 61.0913 22.4923L61.1886 56.8238L35.5516 71.6248Z" fill="white"/>
<path d="M58.6414 55.0572C58.5429 17.7667 58.5769 30.6282 58.5695 27.8459C58.5683 27.3937 58.0743 27.1495 57.715 27.3561L38.2845 38.5741C38.1087 38.6758 38.0009 38.8632 38.0015 39.0661C38.0011 38.9527 38.0144 43.6119 38.0789 66.2834C38.0797 66.5914 38.329 66.8478 38.6449 66.8478C38.7427 66.8478 38.8406 66.8224 38.9279 66.7721C39.3219 66.5445 35.7261 68.6215 58.3584 55.5491C58.358 55.5493 58.3587 55.5489 58.3584 55.5491C58.545 55.4382 58.6419 55.2414 58.6414 55.0572ZM51.1629 40.7901C51.1508 41.318 50.9977 41.7066 50.7445 41.8548L48.7086 43.0372C48.7091 43.0233 48.7091 43.0091 48.7095 42.9951C48.7108 42.9559 48.7208 42.9218 48.7208 42.8818C48.7208 40.9906 47.3705 39.0543 46.0658 38.2889C46.0172 38.2607 45.9686 38.2341 45.9205 38.2087L47.9414 37.0346C48.3018 36.8179 48.7999 37.0435 49.0619 37.1949C50.2206 37.8751 51.1629 39.5839 51.1629 40.7901ZM51.0784 37.5371L53.8213 35.9429L53.8261 37.572L51.8058 38.7427C51.6661 38.4359 51.3188 37.85 51.0784 37.5371ZM57.5032 54.0766L55.0025 52.62L54.99 48.3738L56.8034 47.3206C57.139 47.105 57.3241 46.7308 57.3241 46.2664C57.3241 45.4931 56.82 44.612 56.1351 44.2074C55.5839 43.9065 55.1839 44.0262 54.9776 44.1385L54.9601 38.2233L56.7786 37.1695C57.1251 36.9716 57.3241 36.5819 57.3241 36.1004C57.3241 35.3271 56.82 34.446 56.1351 34.0414C55.7335 33.8212 55.3087 33.8004 54.9476 33.9873L54.9367 30.2687L57.4347 28.8288C57.4418 31.4554 57.4092 19.4224 57.5032 54.0766ZM45.041 54.4944C45.041 55.5375 44.4675 55.9255 43.5165 55.3667C43.428 55.3153 43.3396 55.2573 43.2517 55.1932L45.0161 54.1679C45.0273 54.2777 45.0423 54.3887 45.041 54.4944ZM39.1574 47.3952L44.7218 44.1654C44.9609 44.3866 45.2106 44.5899 45.4827 44.753C46.1854 45.1588 47.0321 45.3209 47.7347 44.9166C47.7421 44.9123 47.7471 44.9049 47.7544 44.9006L51.3144 42.8326C51.9247 42.4761 52.2735 41.7597 52.295 40.8034C52.295 40.4905 52.2434 40.1661 52.1691 39.8407L53.8299 38.8782L53.8474 44.7903L47.7707 48.3226C47.5539 48.1327 47.33 47.9574 47.0935 47.8186C46.2632 47.3388 45.4567 47.2835 44.8271 47.6616C43.718 48.3037 42.3657 49.0979 41.2689 49.7213C40.6421 50.08 40.2933 50.7936 40.2866 51.7345C40.2866 52.0015 40.3269 52.2938 40.3871 52.6065L39.1742 53.3114L39.1574 47.3952ZM47.5511 42.5232C47.5656 42.6479 47.5807 42.7731 47.5793 42.8929C47.5793 43.9942 46.9496 44.2927 46.0565 43.7773C45.9518 43.7144 45.85 43.6447 45.7498 43.5686L47.5511 42.5232ZM43.1465 51.002L41.4314 51.9976C41.4226 51.9075 41.4187 51.8212 41.4187 51.7383C41.4277 50.5652 42.152 50.3115 43.1465 51.002ZM39.1783 54.6183L43.9985 51.8169C44.3126 52.2135 44.565 52.6638 44.7183 53.0307L39.1844 56.244L39.1783 54.6183ZM46.1706 54.6248C46.2362 53.1876 45.4403 51.64 44.5772 50.7422C44.1367 50.284 43.6953 49.9764 43.3821 49.8108L45.4031 48.6362C45.7635 48.4189 46.2615 48.645 46.5235 48.7965C47.6623 49.4653 48.6246 51.1176 48.6246 52.3917C48.6125 52.9196 48.4593 53.3082 48.2062 53.4563L46.1703 54.6387C46.1705 54.6341 46.1705 54.6294 46.1706 54.6248ZM48.5666 49.1685L53.8513 46.0875L53.8561 47.7238L49.2824 50.3796C49.1795 50.1511 48.8684 49.5707 48.5666 49.1685ZM54.9814 45.4286L55.4585 45.1504C55.4585 45.1504 55.5017 45.1515 55.5757 45.1919C55.9041 45.3859 56.1921 45.8878 56.1921 46.2664C56.1921 46.3339 56.1738 46.3764 56.2086 46.3577L54.9862 47.0676L54.9814 45.4286ZM55.4619 34.9894C55.4707 34.9932 55.5182 34.9949 55.5757 35.0258C55.9041 35.2199 56.1921 35.7218 56.1921 36.1004C56.1921 36.164 56.1849 36.1977 56.1998 36.1966L54.9563 36.9172L54.9515 35.286L55.4619 34.9894ZM45.6631 39.3847L43.9636 40.3705C43.8648 39.0348 44.6032 38.6579 45.6631 39.3847ZM46.5213 40.1961C46.8181 40.5661 47.0997 41.0541 47.2411 41.3871C47.2418 41.3888 47.2424 41.3906 47.243 41.3923C47.1091 41.4701 38.7155 46.3428 39.1537 46.0884L39.1491 44.472C41.8425 42.9098 43.825 41.76 46.5213 40.1961ZM39.1862 57.5525L42.2141 55.7943C42.4528 56.0061 42.6953 56.198 42.9438 56.3435C43.6493 56.7574 44.4747 56.9282 45.1853 56.5242C45.2988 56.4597 48.89 54.3703 48.7761 54.4342C49.3863 54.0777 49.7351 53.3613 49.7567 52.405C49.7567 52.1046 49.7085 51.7937 49.6398 51.4814L53.8599 49.0302L53.8706 52.6198L39.1962 61.0923L39.1862 57.5525ZM39.201 62.3969L54.4365 53.6006C54.5776 53.6828 57.0978 55.1506 56.9418 55.0597L39.2082 65.2984C39.2076 65.054 39.2006 62.2506 39.201 62.3969ZM53.8064 30.9201L53.8174 34.6402L50.2789 36.6927C50.0714 36.5139 49.8571 36.3492 49.6318 36.2171C48.8021 35.7367 47.9939 35.6814 47.366 36.0601C45.7137 37.0148 45.9113 36.9151 43.805 38.1175C43.1782 38.4762 42.8294 39.1893 42.8222 40.1307C42.8222 40.408 42.8607 40.6922 42.9164 40.978L39.1454 43.1655L39.1346 39.3905L53.8064 30.9201Z" fill="white"/>
</svg>
