<svg width="93" height="92" viewBox="0 0 93 92" fill="none" xmlns="http://www.w3.org/2000/svg">
<path d="M77.4122 69.92C77.0442 70.104 76.8602 70.656 77.0442 71.208C77.2282 71.576 77.7802 71.76 78.3322 71.576L82.9322 68.816C83.3002 68.632 83.4842 68.264 83.4842 68.08V48.024C83.4842 47.656 83.3002 47.472 83.1162 47.288L57.9082 32.568C60.1162 26.312 61.7722 20.424 61.7722 17.296C61.7722 13.064 60.3002 9.75198 57.5402 8.27998C57.3562 8.09598 52.9402 5.51998 48.1562 2.75998C45.3962 1.10398 41.9002 1.47198 38.0362 3.67998C30.4922 8.09598 24.6042 18.216 24.6042 27.048C24.6042 30.36 26.4442 34.224 28.6522 38.088L10.2522 48.76C9.8842 48.944 9.8842 49.312 9.7002 49.496V69.552C9.7002 69.92 9.88419 70.104 10.0682 70.288L44.8442 90.528C45.2122 90.712 45.3962 90.712 45.7642 90.528L68.2122 77.28C68.5802 77.096 68.7642 76.544 68.5802 75.992C68.3962 75.624 67.8442 75.44 67.2922 75.624L46.1322 87.952C46.1322 87.584 46.1322 69.736 46.1322 70.104L81.6442 49.68V67.528L77.4122 69.92ZM59.7482 17.112C59.7482 20.24 58.0922 26.128 55.7002 32.384C53.3082 39.008 50.1802 46.92 47.4202 53.36C43.3722 48.576 35.4602 38.272 35.4602 32.016C35.4602 24.104 41.1642 14.352 47.9722 10.304C54.5962 6.62398 59.7482 9.56798 59.7482 17.112ZM38.7722 4.96798C41.9002 3.12798 44.8442 2.75998 47.0522 4.04798L52.0202 7.17598C50.7322 7.35998 48.8922 7.91198 47.0522 9.01598C39.6922 13.248 33.6202 23.736 33.6202 32.384C33.6202 38.456 39.8762 47.288 43.5562 52.072L38.7722 49.312C36.0122 46.184 32.7002 41.952 30.3082 38.088C27.9162 34.224 25.8922 30.176 25.8922 26.864C26.0762 18.768 31.7802 9.01598 38.7722 4.96798ZM29.3882 39.376C32.5162 44.344 35.6442 47.84 37.6682 50.416L37.8522 50.6L47.2362 56.12C47.6042 56.304 48.1562 56.12 48.3402 55.936C48.5242 55.568 53.6762 43.424 56.9882 34.408L80.7242 47.84L45.2122 68.448C41.9002 66.424 57.3562 75.624 12.2762 49.312L29.3882 39.376ZM11.3562 50.968C56.4362 77.096 40.7962 68.08 44.2922 70.104V87.952L11.3562 68.816V50.968Z" fill="white"/>
<path d="M74.1003 71.76L70.7883 73.784C70.4203 73.968 70.2363 74.52 70.4203 75.072C70.6043 75.44 71.1563 75.624 71.7083 75.44L75.0203 73.416C75.3883 73.232 75.5723 72.68 75.3883 72.128C75.0203 71.76 74.4683 71.576 74.1003 71.76Z" fill="white"/>
<path d="M60.8523 56.6719C61.2203 56.8559 61.4043 56.8559 61.7723 56.6719L75.0203 48.944C75.3883 48.76 75.3883 48.392 75.5723 48.208C75.5723 47.84 75.3883 47.6559 75.2043 47.4719L67.2923 42.8719C66.9243 42.6879 66.7403 42.6879 66.3723 42.8719L53.1243 50.5999C52.7563 50.7839 52.7563 51.1519 52.5723 51.3359C52.5723 51.7039 52.7563 51.8879 52.9403 52.0719L60.8523 56.6719ZM66.5563 44.528L72.8123 48.024L61.2203 54.648L54.9643 51.1519L66.5563 44.528Z" fill="white"/>
<path d="M65.6361 47.84L67.8441 49.128C68.2121 49.312 68.7641 49.312 69.1321 48.76C69.3161 48.392 69.3161 47.84 68.7641 47.472L66.5561 46.184C66.1881 46 65.6361 46 65.2681 46.552C64.9001 47.104 65.0841 47.656 65.6361 47.84Z" fill="white"/>
<path d="M62.324 49.8639L64.532 51.1519C64.9 51.3359 65.452 51.3359 65.82 50.7839C66.004 50.4159 66.004 49.8639 65.452 49.4959L63.244 48.2079C62.876 48.0239 62.324 48.0239 61.956 48.5759C61.772 48.9439 61.956 49.4959 62.324 49.8639Z" fill="white"/>
<path d="M62.5082 52.624C62.6922 52.256 62.6922 51.704 62.1402 51.336L59.9322 50.048C59.5642 49.864 59.0122 49.864 58.6442 50.416C58.4602 50.784 58.4602 51.336 59.0122 51.704L61.2202 52.992C61.7722 53.176 62.3242 52.992 62.5082 52.624Z" fill="white"/>
<path d="M47.2361 17.296C43.9241 19.136 41.3481 23.552 41.3481 27.416C41.3481 31.464 44.4761 33.304 48.1561 31.28C51.4681 29.44 54.0441 25.024 54.0441 21.16C53.8601 17.112 50.7321 15.272 47.2361 17.296ZM47.2361 29.624C44.8441 30.912 43.1881 29.992 43.1881 27.416C43.1881 24.288 45.3961 20.424 48.1561 18.952C50.3641 17.48 52.0201 18.4 52.0201 21.16C52.0201 24.288 49.8121 28.152 47.2361 29.624Z" fill="white"/>
</svg>
