<svg width="93" height="92" viewBox="0 0 93 92" fill="none" xmlns="http://www.w3.org/2000/svg">
<rect x="0.5" width="92" height="92" rx="46" fill="black"/>
<path d="M24.7802 62.32C25.1402 62.32 25.3802 62.08 25.3802 61.72V59.32C25.3802 58.96 25.1402 58.72 24.7802 58.72C24.4202 58.72 24.1802 58.96 24.1802 59.32V61.72C24.1802 62.08 24.4202 62.32 24.7802 62.32Z" fill="white"/>
<path d="M34.38 36.76L46.14 29.92C46.38 29.8 46.5 29.44 46.38 29.08C46.26 28.84 45.9 28.72 45.54 28.84L33.78 35.68C33.54 35.8 33.42 36.16 33.54 36.52C33.78 36.88 34.14 37 34.38 36.76Z" fill="white"/>
<path d="M53.1001 30.52L33.9001 41.56C33.6601 41.68 33.5401 42.04 33.6601 42.4C33.7801 42.64 34.1401 42.76 34.5001 42.64L53.7001 31.6C53.9401 31.48 54.0601 31.12 53.9401 30.76C53.7001 30.52 53.3401 30.4 53.1001 30.52Z" fill="white"/>
<path d="M53.1001 36.52L33.9001 47.56C33.6601 47.68 33.5401 48.04 33.6601 48.4C33.7801 48.64 34.1401 48.76 34.5001 48.64L53.7001 37.6C53.9401 37.48 54.0601 37.12 53.9401 36.76C53.7001 36.4 53.3401 36.28 53.1001 36.52Z" fill="white"/>
<path d="M50.5801 68.08C51.4201 68.56 52.5001 68.8 53.5801 68.8C55.1401 68.8 56.7001 68.32 58.5001 67.36C64.2601 64 68.9401 55.84 68.9401 49.24C68.9401 45.88 67.7401 43.36 65.7001 42.16L61.2601 39.64C60.1801 39.04 58.9801 38.8 57.6601 38.92V24.88C57.6601 24.64 57.5401 24.52 57.4201 24.4L51.0601 20.56L45.3001 17.32C45.0601 17.2 44.9401 17.2 44.7001 17.32L24.4201 28.96C24.1801 29.08 24.1801 29.32 24.0601 29.44L24.1801 56.44C24.1801 56.8 24.4201 57.04 24.7801 57.04C25.1401 57.04 25.3801 56.8 25.3801 56.44L25.2601 30.52L29.7001 33.16L29.8201 73.12L25.3801 70.48V64.24C25.3801 63.88 25.1401 63.64 24.7801 63.64C24.4201 63.64 24.1801 63.88 24.1801 64.24V70.84C24.1801 71.08 24.3001 71.2 24.4201 71.32C24.5401 71.44 30.1801 74.68 30.0601 74.68C30.3001 74.8 30.4201 74.8 30.6601 74.68L46.2601 65.68C46.6201 65.8 50.9401 68.32 50.5801 68.08ZM67.7401 49.24C67.7401 55.48 63.3001 63.16 57.9001 66.28C52.7401 69.28 48.5401 67 48.5401 61C48.5401 57.16 50.1001 52.96 52.6201 49.48C54.1801 47.2 56.3401 45.04 58.7401 43.84C64.0201 40.96 67.7401 43.6 67.7401 49.24ZM60.6601 40.72L61.9801 41.44C61.8601 41.44 61.7401 41.44 61.6201 41.56C60.4201 41.68 59.1001 42.16 57.7801 43C55.5001 44.32 53.4601 46.36 51.6601 48.76C49.0201 52.48 47.2201 57.04 47.2201 61.12C47.2201 62.92 47.5801 64.24 48.0601 65.32C47.5801 65.08 47.1001 64.84 46.6201 64.48C45.1801 63.64 44.4601 61.96 44.2201 60.4C43.8601 58.36 44.1001 56.2 44.7001 54.16C46.2601 48.52 50.1001 43.6 53.9401 41.44C55.9801 40.24 58.6201 39.52 60.6601 40.72ZM53.3401 40.36C51.3001 41.56 49.2601 43.48 47.8201 45.4L33.7801 53.44C33.5401 53.56 33.4201 53.92 33.5401 54.28C33.6601 54.52 34.0201 54.64 34.3801 54.52L46.2601 47.68C45.3001 49.36 44.2201 51.52 43.6201 53.56V53.68L33.7801 59.32C33.5401 59.44 33.4201 59.8 33.5401 60.16C33.6601 60.4 34.0201 60.52 34.3801 60.4L43.1401 55.36C42.9001 56.8 42.7801 58.48 42.9001 59.92C42.9001 59.92 42.9001 59.92 42.9001 60.04L33.6601 65.32C33.4201 65.44 33.3001 65.8 33.4201 66.16C33.5401 66.4 33.9001 66.52 34.2601 66.4L43.1401 61.36C43.5001 62.68 44.1001 64 45.1801 64.96C45.1801 64.96 45.1801 65.08 45.3001 65.08L44.9401 65.2L31.1401 73.24C31.0201 49.6 31.1401 56.8 31.0201 33.28C32.9401 32.2 23.9401 37.36 50.1001 22.24V28.6C50.1001 29.08 50.5801 29.32 51.0601 29.08L56.4601 25.96V39.16C55.3801 39.4 54.3001 39.88 53.3401 40.36ZM51.3001 27.52V22.12L55.8601 24.88L51.3001 27.52ZM44.9401 18.52L49.3801 21.16C47.4601 22.24 56.4601 17.08 30.3001 32.2C30.1801 32.08 25.5001 29.44 25.8601 29.56L44.9401 18.52Z" fill="white"/>
<path d="M64.5 50.32L63.9 50.44C63.78 50.08 63.66 49.84 63.54 49.6L64.14 48.04C64.38 47.32 64.02 46.96 63.9 46.96L63.18 46.48C62.94 46.24 62.58 46.24 62.22 46.48C62.1 46.6 61.98 46.6 61.98 46.72L60.9 47.92C60.66 47.92 60.42 47.92 60.06 47.92L59.82 47.08C59.82 46.84 59.58 46.6 59.34 46.48C59.1 46.36 58.86 46.36 58.62 46.48L57.54 47.08C57.18 47.2 57.06 47.56 56.94 48.04L56.46 49.48C56.1 49.84 55.62 50.2 55.26 50.68L54.42 50.56C54.18 50.56 53.94 50.56 53.82 50.68C53.7 50.8 53.46 50.92 53.46 51.04L52.62 52.36C52.38 52.72 52.38 53.2 52.5 53.56L52.86 54.4C52.62 55 52.38 55.6 52.26 55.96C52.26 56.08 52.14 56.08 52.14 56.08L50.94 57.04C50.7 57.28 50.46 57.64 50.46 58V59.2C50.46 59.56 50.58 59.8 50.7 59.92C50.82 60.04 51.06 60.16 51.42 60.16L52.14 60.04C52.26 60.4 52.38 60.64 52.5 60.88L51.9 62.44C51.66 62.92 51.78 63.4 52.14 63.64L52.86 64.24C53.1 64.36 53.46 64.36 53.7 64.24C53.82 64.24 53.94 64.12 53.94 64L55.02 62.8C55.26 62.8 55.5 62.8 55.74 62.8L55.98 63.64C56.1 64.12 56.58 64.36 57.18 64.12L58.26 63.52C58.5 63.4 58.74 63.16 58.86 62.56L59.34 61.12C59.82 60.76 60.18 60.28 60.54 59.92L61.62 60.04C61.86 60.04 62.1 59.92 62.22 59.8L63.42 57.88C63.54 57.64 63.54 57.52 63.42 57.28L62.82 56.2C63.06 55.48 63.3 55 63.42 54.4L64.62 53.44C64.86 53.2 65.1 52.84 65.1 52.48L65.22 51.28C65.22 50.92 65.1 50.68 64.98 50.56C65.1 50.44 64.86 50.2 64.5 50.32ZM64.14 52.48L62.94 53.44C62.82 53.56 62.58 53.8 62.58 54.16C62.46 54.64 62.34 55.12 62.1 55.72C61.98 55.96 61.98 56.32 62.1 56.56L62.58 57.4L61.86 58.6H60.9C60.66 58.6 60.42 58.6 60.3 58.72C60.18 58.84 60.06 58.84 59.94 58.96C59.46 59.44 59.1 59.8 58.86 60.04C58.62 60.16 58.5 60.52 58.38 60.76L58.02 62.2C58.02 62.32 57.9 62.44 57.9 62.44L57.3 62.68L57.18 61.96C57.06 61.6 56.7 61.36 56.22 61.36C55.86 61.48 55.62 61.48 55.26 61.36C55.02 61.36 54.78 61.36 54.66 61.48C54.54 61.6 54.42 61.6 54.3 61.72L53.58 62.8L53.34 62.68L53.94 61.24C54.06 61 54.06 60.64 53.94 60.28C53.82 60.04 53.7 59.68 53.58 59.32C53.46 58.84 53.1 58.6 52.74 58.72L52.14 58.84L52.26 58L53.46 57.04C53.7 56.92 53.82 56.68 53.94 56.32C54.06 55.84 54.18 55.36 54.42 54.76C54.54 54.4 54.54 54.04 54.42 53.92L53.94 53.08L54.66 51.88L55.38 52C55.62 52 55.86 52 55.98 51.88C56.1 51.76 56.22 51.76 56.34 51.64C56.7 51.28 57.06 50.8 57.54 50.56C57.66 50.44 57.9 50.2 57.9 49.84L58.26 48.4C58.26 48.28 58.38 48.16 58.26 48.16L58.86 47.8L58.98 48.4C59.1 48.88 59.46 49.12 59.94 49C60.3 48.88 60.54 48.88 60.78 49C60.9 49 61.14 49 61.38 48.88C61.5 48.76 61.62 48.76 61.74 48.64L62.7 47.56L62.94 47.68L62.34 49.12C62.22 49.48 62.22 49.84 62.46 50.08C62.58 50.32 62.7 50.56 62.82 50.92C62.82 51.16 62.94 51.4 63.18 51.52C63.3 51.64 63.54 51.76 63.78 51.64L64.38 51.52L64.14 52.48Z" fill="white"/>
<path d="M59.9402 52.12C58.6202 51.28 56.9402 52.6 56.1002 54.04C55.0202 55.72 55.1402 57.64 56.2202 58.36C57.5402 59.2 59.2202 57.88 60.0602 56.44C61.1402 54.64 61.0202 52.72 59.9402 52.12ZM59.1002 55.72C58.6202 56.44 57.5402 57.64 56.9402 57.16C56.4602 56.92 56.4602 55.72 57.1802 54.52C57.5402 53.8 58.7402 52.6 59.3402 53.08C59.8202 53.32 59.8202 54.52 59.1002 55.72Z" fill="white"/>
</svg>
