<svg width="93" height="92" viewBox="0 0 93 92" fill="none" xmlns="http://www.w3.org/2000/svg">
<rect x="0.5" width="92" height="92" rx="46" fill="black"/>
<path d="M27.8999 63.88C27.8999 64.12 28.0199 64.24 28.1399 64.36C29.9399 65.44 46.1399 74.8 45.8999 74.68C46.1399 74.8 46.2599 74.8 46.4999 74.68L56.9399 68.68C57.1799 68.56 57.2999 68.2 57.1799 67.84C57.0599 67.6 56.6999 67.48 56.3399 67.6L46.8599 73.12C46.8599 60.4 46.7399 51.4 46.7399 39.04L52.2599 35.92V41.44C52.2599 41.92 52.7399 42.16 53.2199 41.92L58.2599 39.04C58.4999 38.92 58.6199 38.68 58.6199 38.56V32.32L64.1399 29.2L64.2599 63.28L61.2599 65.08C61.0199 65.2 60.8999 65.56 61.0199 65.92C61.1399 66.16 61.4999 66.28 61.8599 66.16L65.2199 64.24C65.4599 64.12 65.5799 63.88 65.5799 63.76L65.4599 28.36C65.4599 28.12 65.3399 28 65.2199 27.88C42.6599 14.8 69.5399 30.4 46.9799 17.32C46.7399 17.2 46.6199 17.2 46.3799 17.32L28.0199 27.88C27.7799 28 27.6599 28.24 27.6599 28.36L27.8999 63.88ZM40.0199 22.36L56.5799 31.96L52.7399 34.12L36.1799 24.52L40.0199 22.36ZM29.0999 63.52L28.9799 29.44L45.5399 39.04C45.5399 50.8 45.6599 61.12 45.6599 73.12L29.0999 63.52ZM53.4599 40.48V35.2L57.2999 33.04V38.2L53.4599 40.48ZM46.7399 18.52L63.2999 28.12L57.7799 31.24L41.2199 21.64L46.7399 18.52ZM35.0999 25.24L51.6599 34.84L46.1399 37.96L29.5799 28.36L35.0999 25.24Z" fill="white"/>
<path d="M59.4599 65.92L58.1399 66.64C57.8999 66.76 57.7799 67.12 57.8999 67.48C58.0199 67.72 58.3799 67.84 58.7399 67.72L60.0599 67C60.2999 66.88 60.4199 66.52 60.2999 66.16C60.1799 65.8 59.6999 65.68 59.4599 65.92Z" fill="white"/>
<path d="M36.5399 60.28C36.1799 60.28 35.9399 60.52 35.9399 60.88V64.48C35.9399 64.84 36.1799 65.08 36.5399 65.08C36.8999 65.08 37.1399 64.84 37.1399 64.48V60.88C37.1399 60.52 36.8999 60.28 36.5399 60.28Z" fill="white"/>
<path d="M34.0199 58.72C33.6599 58.72 33.4199 58.96 33.4199 59.32V62.92C33.4199 63.28 33.6599 63.52 34.0199 63.52C34.3799 63.52 34.6199 63.28 34.6199 62.92V59.32C34.6199 58.96 34.3799 58.72 34.0199 58.72Z" fill="white"/>
<path d="M31.38 57.28C31.02 57.28 30.78 57.52 30.78 57.88V61.48C30.78 61.84 31.02 62.08 31.38 62.08C31.74 62.08 31.98 61.84 31.98 61.48V57.88C31.98 57.52 31.74 57.28 31.38 57.28Z" fill="white"/>
</svg>
