<svg width="93" height="92" viewBox="0 0 93 92" fill="none" xmlns="http://www.w3.org/2000/svg">
<rect x="0.5" width="92" height="92" rx="46" fill="black"/>
<path d="M35.6001 35.2L36.2001 34.8C36.4001 34.7 36.6001 34.4 36.7001 34.2L39.7001 26.8C39.9001 26.3 39.8001 25.8 39.5001 25.5C39.2001 25.3 38.8001 25.3 38.5001 25.5L32.2001 29.1C31.8001 29.3 31.5001 29.8 31.4001 30.2C31.3001 30.5 31.4001 30.8 31.6001 31.1L34.6001 35C34.7001 35.2 34.9001 35.3 35.1001 35.3C35.4001 35.4 35.5001 35.3 35.6001 35.2ZM32.5001 30.6C32.5001 30.5 32.6001 30.2 32.8001 30L38.8001 26.5L35.9001 33.8C35.9001 33.9 35.8001 33.9 35.8001 33.9L35.3001 34.2L32.5001 30.6Z" fill="white"/>
<path d="M65.6 53.3C65.6 53.2 65.5 53 65.4001 52.9C63.2001 51.6 56.9 47.9 57.3 48.2V42.2C57.3 42.1 57.2 41.9 57.1 41.8C54.3 40.2 48.3001 36.7 48.7001 36.9C48.5 36.8 48.4001 36.8 48.2001 36.9L39.2 42.1C39 42.2 38.9 42.4 38.9 42.5C38.9 42.6 38.9 44.2 38.9 44.1L38.1 44.6V36.7C38.1 36.5 38.2 36.2 38.3 36L42.9 24.7C43.3 23.8 43.2001 22.9 42.7 22.4C42.3 22 41.7 22 41.1 22.4L30.7 28C30 28.4 29.4 29.3 29.2 30.3C29.1 30.9 29.2 31.4 29.4 31.8L34 37.8C34 37.8 34.1 37.9 34.1 38.2V46.7L29 49.7C28.8 49.8 28.7 50 28.7 50.1C28.7 50.2 28.7 52.9 28.7 52.8C28.7 52.8 28.8 52.8 27.7 53.4C27.1 53.7 26.8 54.4 26.8 55.3C26.8 56.9 27.9 58.9 29.3 59.7C30 60.1 30.8 60.3 31.4 59.9L34 58.4C34.5 58.1 34.8 57.6 34.9 57L45.4 63L44.9 63.3C44.4 63.6 44 64.3 44 65.2C44 66.8 45.1 68.8 46.5 69.6C47.2001 70 48 70.2 48.6 69.8C49.3 69.4 51.1 68.3 51.2001 68.3C51.8001 68 52.1 67.3 52.1 66.4C52.1 65.8 52 65.2 51.7001 64.6L59 60.4C59.4001 60.9 59.9001 61.4 60.4001 61.7C61.3001 62.2 61.9001 62.1 62.4001 61.9C62.6001 61.8 63.1 61.5 65.1 60.4C65.7 60.1 66 59.4 66 58.5C66 57.8 65.8001 57.1 65.4001 56.3L65.6 53.3ZM50 64.4C47.6 63 38.9 58 34.9 55.6L29.9 52.7V50.9L49.8 62.5C50 62.6 50.1 62.6 50.3 62.5L64.7001 54.2V56C63.9001 56.4 51.9 63.3 50 64.4ZM64.1 53.3L50 61.4L30.3 50C30.9 49.6 39.2 44.9 38.7 45.1V52C38.7 52.2 38.8 52.3 38.9 52.4L47.3 57.3C47.5 57.4 47.6 57.4 47.8 57.3C48.8 56.7 44.9 58.9 56.8 52.1C57 52 57.1 51.8 57.1 51.7V49.3L64.1 53.3ZM45.2001 39.5L52.6 43.8L50.6 44.9L43.2001 40.6L45.2001 39.5ZM56.2001 51.5C56.1 51.6 47.7001 56.4 48.2001 56.1C48.2001 56 48.2001 47.2 48.2001 47.6L50.3 46.4V49.3C50.3 49.6 50.5 49.8 50.8 49.8C50.9 49.8 51 49.8 51.1 49.7L54.1 48C54.3 47.9 54.4001 47.7 54.4001 47.6V44.1L56.4001 43L56.2001 51.5ZM39.7 43.3L47.1 47.6C47.1 47.7 47.1 56.6 47.1 56.1L39.7 51.8C39.7 50.8 39.7 45.6 39.7 43.3ZM53.2001 44.7V47.3L51.2001 48.4V45.8C51.4001 45.7 53.3001 44.7 53.2001 44.7ZM48.2001 37.8L55.6 42.1L53.6 43.3L46.2001 39L48.2001 37.8ZM42.2 41.2L49.6 45.5L47.6 46.7L40.2 42.4L42.2 41.2ZM35.1 38.1C35.1 37.7 35 37.4 34.8 37.1L30.2 31.1C30.1 31 30.1 30.8 30.2 30.5C30.3 29.9 30.8 29.2 31.3 28.9L41.3 23.1C41.3 23.1 41.5 23 41.6 23H41.7C41.8 23.1 41.9 23.5 41.7 24.1L37.1 35.4C37 35.8 36.9 36.1 36.9 36.5V45C36.8 45.1 35 46.1 35.1 46V38.1ZM29.9 58.8C28.8 58.2 27.8 56.5 27.9 55.3C27.9 54.5 28.2 54 29 54.2C30.3 54.5 31.8 56.9 31.5 58.4C31.3 59.1 30.6 59.2 29.9 58.8ZM34.1 56.4C34.1 56.9 33.9 57.3 33.7 57.4L32.5 58.1C32.6 57 32 55.6 31.4 54.8L34.1 56.4ZM47.1 68.7C46 68.1 45 66.4 45.1 65.2C45.1 64.1 45.7001 63.8 46.7001 64.3C47.2001 64.6 47.6 65 47.9 65.5C48.5 66.3 48.7001 67.2 48.7001 67.8C48.6 68.9 48 69.3 47.1 68.7ZM51.2001 66.4C51.2001 66.9 51 67.3 50.8 67.4L49.6 68.1C49.7 67.2 49.3 65.9 48.5 64.8L49.7001 65.5C49.8001 65.6 50 65.6 50.2001 65.5L50.9 65.1C51.1 65.5 51.2001 66 51.2001 66.4ZM61 60.7C60.6 60.5 60.3 60.2 60 59.8L62.3 58.5C62.9 60.1 62.4001 61.6 61 60.7ZM64.7001 59.4L63.5 60.1C63.5 59.4 63.4 58.6 63.1 58.1C63.2 58 64.9 57 64.8 57.1C65 57.6 65.1 58 65.1 58.4C65.1 58.6 65.1001 59.2 64.7001 59.4Z" fill="white"/>
</svg>
