<svg width="93" height="92" viewBox="0 0 93 92" fill="none" xmlns="http://www.w3.org/2000/svg">
<rect x="0.5" width="92" height="92" rx="46" fill="black"/>
<path d="M48.3999 32.2C48.1999 32.1 47.8999 32.1 47.6999 32.4C47.5999 32.6 47.5999 32.9 47.8999 33.1L48.7999 33.6C48.9999 33.7 49.2999 33.7 49.4999 33.4C49.5999 33.2 49.5999 32.9 49.2999 32.7L48.3999 32.2Z" fill="white"/>
<path d="M61.8999 33.2L60.1999 32.2C59.9999 32.1 59.8999 32.1 59.6999 32.2L57.9999 33.2C57.8999 33.3 57.7999 33.5 57.7999 33.6V37.6L50.8999 33.6C50.6999 33.5 50.3999 33.5 50.1999 33.8C50.0999 34 50.0999 34.3 50.3999 34.5L57.7999 38.8V39.7V40.1L53.0999 42.8C53.0999 41.1 53.0999 38.8 53.0999 38.9C53.0999 38.8 52.9999 38.6 52.7999 38.5L51.0999 37.5C50.8999 37.4 50.7999 37.4 50.5999 37.5L48.8999 38.5C48.6999 38.6 48.6999 38.8 48.6999 38.9V42.9C48.0999 42.6 34.6999 34.7 34.2999 34.5C35.2999 33.9 42.7999 29.6 42.3999 29.8C42.4999 29.9 46.7999 32.4 46.6999 32.3C46.8999 32.4 47.1999 32.4 47.3999 32.1C47.4999 31.9 47.4999 31.6 47.1999 31.4L44.4999 30C44.4999 27.5 44.4999 23.2 44.4999 23.5C44.4999 23.3 44.3999 23.2 44.1999 23.1L42.4999 22.1C42.2999 22 42.1999 22 41.9999 22.1L40.2999 23.1C40.0999 23.2 40.0999 23.4 40.0999 23.5V30L35.3999 32.7V28.7C35.3999 28.5 35.2999 28.4 35.0999 28.3L33.3999 27.3C33.1999 27.2 33.0999 27.2 32.8999 27.3L31.1999 28.3C30.9999 28.4 30.8999 28.6 30.8999 28.7V58.3C30.8999 58.5 30.9999 58.6 31.1999 58.7L32.8999 59.7C32.9999 59.7 32.9999 59.8 33.0999 59.8C33.1999 59.8 33.2999 59.8 33.2999 59.7C33.3999 59.6 35.0999 58.7 34.9999 58.7C35.1999 58.6 35.1999 58.4 35.1999 58.3V50.9L48.4999 58.6V68.5C48.4999 68.7 48.5999 68.8 48.7999 68.9L50.4999 69.9C50.6999 70 50.7999 70 50.9999 69.9C51.2999 69.7 52.7999 68.8 52.6999 68.9C52.8999 68.8 52.8999 68.6 52.8999 68.5V58.6L57.5999 55.9V63.3C57.5999 63.5 57.6999 63.6 57.8999 63.7L59.5999 64.7C59.7999 64.8 59.8999 64.8 60.0999 64.7C60.1999 64.6 61.8999 63.7 61.7999 63.7C61.9999 63.6 61.9999 63.4 61.9999 63.3C61.9999 63.1 62.0999 33.5 62.0999 33.7C62.0999 33.5 61.9999 33.3 61.8999 33.2ZM59.8999 33.2L60.5999 33.6C60.4999 33.7 59.7999 34.1 59.8999 34L59.1999 33.6L59.8999 33.2ZM33.6999 35.4L48.4999 44.1V45.6C32.0999 36.1 34.1999 37.3 33.5999 37L33.6999 35.4ZM34.2999 45.2L33.5999 45.6V38.1L34.2999 38.5C34.3999 38.6 34.2999 45.5 34.2999 45.2ZM35.3999 39.1L40.1999 41.9L35.3999 44.7C35.2999 44.5 35.3999 38.9 35.3999 39.1ZM41.0999 42.4C41.3999 42.6 48.8999 46.9 48.4999 46.7V54.8L34.0999 46.4C34.2999 46.4 41.1999 42.4 41.0999 42.4ZM33.6999 30L34.3999 29.6V33.3L33.6999 33.7V30ZM33.6999 48.8V47.3L48.4999 56V57.5C45.3999 55.6 36.7999 50.6 33.6999 48.8ZM52.9999 48L57.6999 50.7V52L52.9999 54.7V48ZM52.9999 46.8V46.7L57.6999 44V49.6L52.9999 46.8ZM57.6999 42.8L52.9999 45.5C52.9999 45.4 52.9999 43.9 52.9999 44L57.6999 41.3V42.8ZM51.4999 38.9C51.3999 39 50.6999 39.4 50.7999 39.3L50.0999 38.9L50.7999 38.5L51.4999 38.9ZM42.7999 29C42.7999 28.9 42.7999 24.5 42.7999 24.8C42.8999 24.7 43.5999 24.3 43.4999 24.4V29.4L42.7999 29ZM42.2999 23.1L42.9999 23.5C42.8999 23.6 42.1999 24 42.2999 23.9L41.5999 23.5L42.2999 23.1ZM41.0999 24.4L41.7999 24.8V29C41.6999 29.1 40.9999 29.5 41.0999 29.4V24.4ZM33.0999 28.3L33.7999 28.7L33.0999 29.1L32.3999 28.7L33.0999 28.3ZM31.8999 29.6L32.6999 30C32.6999 33.7 32.5999 57.1 32.5999 58.5L31.8999 58V29.6ZM34.2999 58.1L33.5999 58.5V50L34.2999 50.4V58.1ZM49.5999 39.8C49.6999 39.9 50.3999 40.3 50.2999 40.2L50.1999 68.7L49.4999 68.2C49.5999 27.1 49.4999 79.7 49.5999 39.8ZM51.1999 68.6L51.2999 40.1L51.9999 39.7C51.9999 58.2 51.9999 49.4 51.8999 68.2L51.1999 68.6ZM52.8999 55.9L57.5999 53.2V54.7L52.8999 57.4V55.9ZM58.6999 34.5C58.7999 34.6 59.4999 35 59.3999 34.9C59.3999 39.3 59.3999 55.9 59.2999 63.4L58.5999 63C58.6999 31.5 58.4999 93.3 58.6999 34.5ZM61.0999 63L60.3999 63.4C60.3999 56.8 60.4999 41.5 60.4999 34.9L61.1999 34.5L61.0999 63Z" fill="white"/>
</svg>
