<svg width="93" height="92" viewBox="0 0 93 92" fill="none" xmlns="http://www.w3.org/2000/svg">
<rect x="0.5" width="92" height="92" rx="46" fill="black"/>
<path d="M30.2001 65.9C30.2001 66.1 30.3001 66.2 30.4001 66.3C30.7001 66.5 28.9001 65.4 36.5001 69.9C36.7001 70 36.8001 70 37.0001 69.9L62.5001 55.2C62.7001 55.1 62.8001 54.9 62.8001 54.8V26.1C62.8001 25.9 62.7001 25.7 62.6001 25.7L56.5001 22.1C56.3001 22 56.2001 22 56.0001 22.1L52.5001 24C52.3001 24.1 52.2001 24.4 52.3001 24.7C52.4001 25 52.7001 25 53.0001 24.9L56.2001 23.1L61.3001 26.1C56.7001 28.8 42.2001 37.1 36.8001 40.2C36.7001 40.1 31.6001 37.2 31.7001 37.2L46.8001 28.5C47.0001 28.4 47.1001 28.1 47.0001 27.8C46.9001 27.6 46.6001 27.5 46.3001 27.6L30.4001 36.8C30.2001 36.9 30.1001 37.1 30.1001 37.2L30.2001 65.9ZM31.2001 65.7V38.1C31.3001 38.2 36.5001 41.2 36.3001 41.1C36.3001 47.6 36.4001 62 36.4001 68.7L31.2001 65.7ZM37.4001 68.6L37.3001 41L61.8001 26.9L61.9001 54.5L37.4001 68.6Z" fill="white"/>
<path d="M49.0002 27.2L51.0002 26C51.2002 25.9 51.3002 25.6 51.2002 25.3C51.0002 25.1 50.7002 25 50.5002 25.2L48.5002 26.4C48.3002 26.5 48.2002 26.8 48.3002 27.1C48.4002 27.3 48.7002 27.4 49.0002 27.2Z" fill="white"/>
<path d="M41.7002 44.2V49.6C41.7002 49.8 41.8002 49.9 42.0002 50C42.2002 50.1 42.3002 50.1 42.5002 50L47.2002 47.3C47.4002 47.2 47.5002 47 47.5002 46.9V41.5C47.5002 41.3 47.4002 41.2 47.2002 41.1C47.0002 41 46.9002 41 46.7002 41.1L42.0002 43.8C41.8002 43.8 41.7002 44 41.7002 44.2ZM46.4002 42.3V46.6L42.7002 48.7V44.4L46.4002 42.3Z" fill="white"/>
<path d="M51.9001 44.2C52.0001 44.2 52.1001 44.3 52.1001 44.3C52.1001 44.3 52.3001 44.3 52.4001 44.2L57.1001 41.5C57.3001 41.4 57.4001 41.2 57.4001 41.1V35.7C57.4001 35.5 57.3001 35.4 57.1001 35.3C56.9001 35.2 56.8001 35.2 56.6001 35.3L51.9001 38C51.7001 38.1 51.6001 38.3 51.6001 38.4V43.8C51.7001 44 51.8001 44.1 51.9001 44.2ZM56.4001 36.6V40.9L52.7001 43V38.7L56.4001 36.6Z" fill="white"/>
<path d="M47.2002 51.3C47.0002 51.2 46.9002 51.2 46.7002 51.3L42.0002 54C41.8002 54.1 41.7002 54.3 41.7002 54.4V59.8C41.7002 60 41.8002 60.1 42.0002 60.2C42.2002 60.3 42.3002 60.3 42.5002 60.2L47.2002 57.5C47.4002 57.4 47.5002 57.2 47.5002 57.1V51.7C47.4002 51.6 47.3002 51.4 47.2002 51.3ZM42.7002 59V54.7L46.4002 52.6V56.9L42.7002 59Z" fill="white"/>
<path d="M57.4001 51.4V46C57.4001 45.8 57.3001 45.7 57.1001 45.6C56.9001 45.5 56.8001 45.5 56.6001 45.6L51.9001 48.3C51.7001 48.4 51.6001 48.6 51.6001 48.7V54.1C51.6001 54.3 51.7001 54.4 51.9001 54.5C52.1001 54.6 52.2001 54.6 52.4001 54.5L57.1001 51.8C57.3001 51.7 57.4001 51.6 57.4001 51.4ZM52.7001 53.2V49L56.4001 46.9V51.2L52.7001 53.2Z" fill="white"/>
<path d="M39.1001 47.2C39.4001 47.2 39.6001 47 39.6001 46.7V43.4L42.5001 41.7C42.7001 41.6 42.8001 41.3 42.7001 41C42.6001 40.8 42.3001 40.7 42.0001 40.8L38.9001 42.6C38.7001 42.7 38.6001 42.9 38.6001 43V46.6C38.6001 46.9 38.8001 47.2 39.1001 47.2Z" fill="white"/>
<path d="M57.1001 33.2L59.5001 31.8V34.5C59.5001 34.8 59.7001 35 60.0001 35C60.3001 35 60.5001 34.8 60.5001 34.5V30.9C60.5001 30.7 60.4001 30.6 60.2001 30.5C60.0001 30.4 59.9001 30.4 59.7001 30.5L56.6001 32.3C56.4001 32.4 56.3001 32.7 56.4001 33C56.6001 33.3 56.9001 33.3 57.1001 33.2Z" fill="white"/>
<path d="M60.6002 48.9C60.6002 48.6 60.4002 48.4 60.1002 48.4C59.8002 48.4 59.6002 48.6 59.6002 48.9V52.2L56.7002 53.9C56.5002 54 56.4002 54.3 56.5002 54.6C56.6002 54.8 56.9002 54.9 57.2002 54.8L60.3002 53C60.5002 52.9 60.6002 52.7 60.6002 52.6V48.9Z" fill="white"/>
<path d="M42.0001 62.3L39.6001 63.7V61C39.6001 60.7 39.4001 60.5 39.1001 60.5C38.8001 60.5 38.6001 60.7 38.6001 61V64.6C38.6001 64.9 38.8001 65.1 39.1001 65.1C39.2001 65.1 39.3001 65.1 39.4001 65L42.5001 63.2C42.7001 63.1 42.8001 62.8 42.7001 62.5C42.5001 62.3 42.2001 62.2 42.0001 62.3Z" fill="white"/>
<path d="M50.4002 39.5C50.1002 39.5 49.9002 39.7 49.9002 40V43.3L48.8002 43.9C48.6002 44 48.5002 44.2 48.5002 44.3V47.9L45.5002 49.6C45.3002 49.7 45.2002 50 45.3002 50.3C45.4002 50.5 45.7002 50.6 46.0002 50.5L49.3002 48.6C49.5002 48.5 49.6002 48.3 49.6002 48.2V44.6L50.7002 44C50.9002 43.9 51.0002 43.7 51.0002 43.6V40C50.9002 39.8 50.7002 39.5 50.4002 39.5Z" fill="white"/>
<path d="M53.9 45.8C54.1 45.7 54.2 45.4 54.1 45.1C54 44.9 53.7 44.8 53.4 44.9L51.3 46.1C51.1 46.2 51 46.5 51.1 46.8C51.2 47 51.4 47.1 51.5 47.1C51.6 47.1 51.7 47.1 51.8 47L53.9 45.8Z" fill="white"/>
<path d="M50.3 50.6C50 50.6 49.8 50.8 49.8 51.1V53.3L48.6 54C48.4 54.1 48.3 54.3 48.3 54.4V55.9C48.3 56.2 48.5 56.4 48.8 56.4C49 56.4 49.3 56.2 49.3 55.9V54.7L50.5 54C50.7 53.9 50.8 53.7 50.8 53.6V51.1C50.8 50.8 50.6 50.6 50.3 50.6Z" fill="white"/>
<path d="M42.9002 51.2L42.0002 51.7C41.8002 51.8 41.7002 52.1 41.8002 52.4C41.9002 52.6 42.2002 52.7 42.5002 52.6L43.4002 52.1C43.6002 52 43.7002 51.7 43.6002 51.4C43.4002 51.2 43.1002 51.1 42.9002 51.2Z" fill="white"/>
<path d="M56.6002 43.3L55.7002 43.8C55.5002 43.9 55.4002 44.2 55.5002 44.5C55.6002 44.7 55.9002 44.8 56.2002 44.7L57.1002 44.2C57.3002 44.1 57.4002 43.8 57.3002 43.5C57.2002 43.2 56.9002 43.1 56.6002 43.3Z" fill="white"/>
</svg>
