<svg width="93" height="92" viewBox="0 0 93 92" fill="none" xmlns="http://www.w3.org/2000/svg">
<rect x="0.5" width="92" height="92" rx="46" fill="black"/>
<path d="M24.9001 65.8C25.1401 65.92 25.5001 65.92 25.7401 65.56C25.8601 65.32 25.8601 64.96 25.5001 64.72L23.9401 63.76C23.7001 63.64 23.3401 63.64 23.1001 64C22.9801 64.24 22.9801 64.6 23.3401 64.84L24.9001 65.8Z" fill="white"/>
<path d="M71.2201 47.08C68.46 45.52 69.5401 46.12 67.5 44.92C66.9001 44.56 66.1801 44.32 65.5801 44.2V30.28C65.5801 30.04 65.4601 29.92 65.34 29.8L43.86 17.32C43.62 17.2 43.5 17.2 43.26 17.32C37.62 20.56 24.3 28.24 18.66 31.48C18.42 31.6 18.42 31.84 18.3 31.96C18.3 32.2 18.42 61.6 18.42 61.72C18.42 61.96 18.54 62.08 18.66 62.2L21.42 63.76C21.66 63.88 22.02 63.88 22.26 63.52C22.38 63.28 22.38 62.92 22.02 62.68L19.62 61.24L19.5 33.04C20.58 33.64 37.98 43.84 39.78 44.8C39.78 46.96 39.7801 41.44 39.9 73.12L27.3 65.8C27.06 65.68 26.7 65.68 26.46 66.04C26.34 66.28 26.34 66.64 26.7 66.88C27.9 67.6 40.3801 74.8 40.1401 74.68C40.3801 74.8 40.5001 74.8 40.7401 74.68L49.86 69.4C50.46 70.36 51.18 71.08 52.0201 71.56L54.5401 73C54.7801 73.24 55.14 73.48 55.5 73.72C58.0201 75.16 61.3801 74.32 63.7801 73C69.7801 69.52 74.5801 61.12 74.5801 54.28C74.5801 50.92 73.3801 48.28 71.2201 47.08ZM49.86 39.64L55.62 36.28V42.88L52.98 41.8C52.7401 41.68 52.3801 41.8 52.26 42.04L49.86 45.76V39.64ZM27.78 27.52L48.06 39.28L40.38 43.72L20.1 31.96L27.78 27.52ZM34.74 23.56L55.0201 35.32L49.26 38.68L28.98 26.92L34.74 23.56ZM43.5 18.52L63.7801 30.28L56.22 34.6L35.9401 22.84L43.5 18.52ZM49.38 68.44L41.1 73.24L40.98 44.8L48.66 40.36V47.92C48.66 48.16 48.7801 48.4 49.1401 48.52H49.26C49.5 48.52 49.6201 48.4 49.7401 48.28L52.98 43.24L55.9801 44.44C56.2201 44.56 56.3401 44.44 56.5801 44.44C56.7001 44.32 56.82 44.2 56.82 43.96V35.68L64.3801 31.36V44.2C62.7001 44.2 60.9001 44.8 59.46 45.76C57.9001 46.6 56.4601 47.8 55.1401 49.36C51.18 53.56 48.66 59.56 48.66 64.48C48.66 65.68 48.9 67.24 49.38 68.44ZM52.6201 70.6C50.5801 69.4 49.86 66.76 49.86 64.36C49.86 59.68 52.2601 54.04 55.9801 50.08C58.7401 47.08 63.5401 43.96 66.9001 46L67.5 46.36C64.3801 46.6 60.78 49 58.8601 51.28C56.2201 54.04 53.7001 58.48 52.7401 62.8C52.1401 65.32 52.14 68.44 52.98 70.84V70.96L52.6201 70.6ZM63.3 72.04C55.98 76.24 52.26 70.72 54.0601 62.8C55.0201 58.84 57.3 54.76 59.82 52.12C65.34 45.76 73.3801 45.76 73.3801 54.4C73.5001 60.88 68.9401 68.8 63.3 72.04Z" fill="white"/>
<path d="M63.1801 59.92C60.7801 61.36 58.8601 64.6 58.8601 67.36V67.84C58.8601 68.2 59.1001 68.44 59.4601 68.44C59.5801 68.44 59.7001 68.44 59.8201 68.32L67.8601 63.64C68.1001 63.52 68.2201 63.28 68.2201 63.16V62.68C68.1001 59.68 65.8201 58.48 63.1801 59.92ZM60.1801 66.76C60.4201 64.6 61.9801 62.08 63.7801 61C65.5801 59.92 66.9001 60.64 66.9001 62.8V62.92L60.1801 66.76Z" fill="white"/>
<path d="M63.78 58.6C65.1 57.88 66.18 56.08 66.18 54.52C66.18 52.72 64.74 52 63.18 52.84C61.86 53.56 60.78 55.36 60.78 56.92C60.78 58.6 62.22 59.44 63.78 58.6ZM63.78 53.92C64.5 53.56 64.98 53.68 64.98 54.52C64.98 55.6 64.14 57.04 63.18 57.52C62.46 57.88 61.98 57.76 61.98 56.92C61.98 55.84 62.82 54.4 63.78 53.92Z" fill="white"/>
</svg>
