<svg width="93" height="92" viewBox="0 0 93 92" fill="none" xmlns="http://www.w3.org/2000/svg">
<rect x="0.5" width="92" height="92" rx="46" fill="white"/>
<path d="M29.5529 50.9663C29.8718 50.9657 30.1293 50.7066 30.1287 50.3882L30.1208 46.9628C30.1203 46.6444 29.8622 46.387 29.5439 46.387C29.225 46.3875 28.9664 46.6467 28.967 46.965L28.9749 50.3905C28.9754 50.7088 29.2346 50.9663 29.5529 50.9663Z" fill="black"/>
<path d="M61.5671 50.6761C62.9654 49.8682 64.0573 47.9763 64.0528 46.3695L64.0004 22.3641C63.998 21.3879 63.5883 20.7508 63.0725 20.4496L59.7817 18.5352C59.1721 18.1836 58.4103 18.24 57.634 18.6912L31.4262 33.8174C30.0273 34.6333 28.9382 36.5274 28.9473 38.1269L28.9591 43.3592C28.9597 43.6775 29.2177 43.935 29.536 43.935C29.8549 43.9344 30.1135 43.6753 30.1129 43.357L30.1011 38.1224C30.0943 36.9359 30.9676 35.4209 32.0054 34.8152L58.2126 19.6896C58.6103 19.4569 58.9726 19.4 59.203 19.5335L60.9778 20.5657C60.9592 20.5758 60.9411 20.586 60.9231 20.5961L34.7176 35.7285C33.5529 36.4003 32.6135 37.8232 32.3318 39.2086C32.1961 39.868 32.2311 37.433 32.2837 64.0806L30.5017 63.0439C30.2814 62.9188 30.1552 62.5881 30.1552 62.1363L30.1377 54.2103C30.1372 53.892 29.8791 53.6345 29.5608 53.6345C29.2419 53.6351 28.9833 53.8943 28.9839 54.2126L29.0013 62.1374C29.0013 63.0276 29.3315 63.7053 29.9259 64.0439L33.215 65.9567C33.2164 65.9575 33.2181 65.9571 33.2195 65.9579C33.2208 65.9587 33.2216 65.9599 33.2229 65.9606C33.902 66.3506 34.6875 66.195 35.3633 65.8051L42.5433 61.6597L42.5461 62.9556L37.6338 65.8063C37.5441 65.8584 37.4724 65.9327 37.4228 66.0197C37.372 66.1063 37.3433 66.2056 37.3431 66.3094L37.3352 69.4515C37.3346 69.6582 37.4445 69.8492 37.6236 69.9529L43.9687 73.6161C44.0582 73.6674 44.1574 73.6933 44.2571 73.6933C44.3563 73.6933 44.456 73.6674 44.545 73.6161C44.5447 73.6163 44.5453 73.616 44.545 73.6161C44.5455 73.6158 44.5468 73.6153 44.5473 73.615L58.0041 65.795C58.181 65.6919 58.2903 65.5026 58.2909 65.2975L58.2982 62.1639C58.2983 62.1601 58.301 62.157 58.301 62.1532C58.3005 61.9475 58.1906 61.7577 58.0126 61.6546L51.6659 57.9919C51.5312 57.9148 51.3774 57.9151 51.2311 57.9543L51.2274 56.6458L61.5671 50.6761ZM34.7864 64.8057C34.3892 65.035 34.0291 65.0913 33.7981 64.9606C33.5172 64.7986 33.4412 64.3682 33.4404 64.0439C33.4397 63.9262 33.3468 39.926 33.4808 39.3471C33.7232 38.3115 34.4511 37.2163 35.2968 36.7285L61.5006 21.5995C61.7696 21.4438 62.2037 21.2943 62.4751 21.4417C62.7726 21.8204 62.8452 21.8211 62.8466 22.3669L62.899 46.3723C62.9023 47.5639 62.0279 49.0772 60.9902 49.6766C60.6646 49.8634 36.3634 63.8946 34.7864 64.8057ZM44.696 60.4168C44.6965 60.5812 44.7121 66.0498 44.7117 65.9301C44.5963 65.8627 43.5907 65.2761 43.7061 65.3435C43.7058 65.225 43.6951 60.8786 43.6954 60.9971C43.811 60.93 44.8116 60.3497 44.696 60.4168ZM38.4947 67.3088C38.6116 67.3764 44.0313 70.5066 43.6872 70.3079C43.6869 70.4241 43.6822 72.2348 43.6825 72.1186L38.4896 69.1207L38.4947 67.3088ZM44.8366 72.1123C44.8369 71.9961 44.8417 70.1978 44.8414 70.314L57.1421 63.1601L57.1376 64.964L44.8366 72.1123ZM51.2377 59.2443L51.3808 59.1598L56.5712 62.1549L44.2642 69.3075C44.1472 69.2399 38.7299 66.1059 39.0738 66.3049L42.5492 64.288L42.5523 65.6761C42.5526 65.7772 42.5802 65.874 42.6282 65.959C42.6288 65.9601 42.6285 65.9613 42.629 65.9623C42.6784 66.0485 42.7498 66.1219 42.8385 66.1736L45.0008 67.4345C45.0013 67.4348 45.0019 67.4346 45.0024 67.4349C45.0029 67.4352 45.0031 67.4359 45.0036 67.4362C45.1783 67.5367 45.3989 67.5399 45.58 67.4356L50.9594 64.3273C51.1385 64.2237 51.2484 64.0327 51.2478 63.8265V63.8239L51.2377 59.2443ZM50.0928 63.4952C49.9773 63.562 45.5868 66.0989 45.8656 65.9377L45.8482 59.7516L50.0754 57.3109L50.0928 63.4952Z" fill="black"/>
<path d="M61.0228 45.9623C61.202 45.8586 61.3119 45.6676 61.3113 45.4608L61.2595 24.5767C61.2589 24.371 61.149 24.1812 60.9704 24.0786C60.7918 23.9755 60.5715 23.9766 60.3941 24.0786L35.2641 38.5873C35.0849 38.691 34.9751 38.882 34.9756 39.0888L35.0275 59.9729C35.028 60.1786 35.1379 60.3684 35.3165 60.471C35.495 60.5738 35.7141 60.5739 35.8929 60.471L61.0228 45.9623ZM60.1079 25.5761L60.1569 45.1301L36.1791 58.9734L36.1301 39.4195L60.1079 25.5761Z" fill="black"/>
<path d="M48.6336 54.3541L47.1282 55.2228C46.8521 55.3823 46.7575 55.735 46.9169 56.011C47.0779 56.2889 47.4317 56.3802 47.7051 56.2223L49.2105 55.3535C49.4866 55.1941 49.5813 54.8414 49.4218 54.5653C49.2624 54.2893 48.908 54.1941 48.6336 54.3541Z" fill="black"/>
<path d="M39.9567 53.7184C40.1322 53.8195 40.3525 53.8218 40.5331 53.7178L56.3658 44.5766C56.5449 44.473 56.6548 44.282 56.6542 44.0752L56.6193 31.3294C56.6187 31.1237 56.5083 30.9339 56.3303 30.8308C56.1517 30.7277 55.9314 30.7294 55.7539 30.8313L39.9212 39.9725C39.7421 40.0762 39.6322 40.2672 39.6328 40.474L39.6677 53.2198C39.6682 53.4254 39.7787 53.6153 39.9567 53.7184ZM55.4683 32.3289L55.4993 43.7445L40.8187 52.2203L40.7877 40.8047L55.4683 32.3289Z" fill="black"/>
<path d="M44.2808 47.7537L42.7568 48.6337C42.4807 48.7932 42.3861 49.1459 42.5455 49.4219C42.7054 49.6987 43.0591 49.7918 43.3337 49.6332L44.8577 48.7532C45.1338 48.5937 45.2284 48.2411 45.069 47.965C44.9096 47.6889 44.5552 47.5948 44.2808 47.7537Z" fill="black"/>
<path d="M47.3952 47.2884L48.9192 46.4084C49.1953 46.2489 49.29 45.8962 49.1305 45.6202C48.9705 45.3435 48.6173 45.2489 48.3423 45.4089L46.8183 46.2889C46.5423 46.4484 46.4476 46.801 46.607 47.0771C46.7669 47.3539 47.1207 47.447 47.3952 47.2884Z" fill="black"/>
<path d="M52.4045 43.0639L50.8799 43.9439C50.6038 44.1034 50.5092 44.4561 50.6686 44.7321C50.8296 45.0101 51.1834 45.1013 51.4568 44.9434L52.9814 44.0634C53.2575 43.9039 53.3521 43.5513 53.1927 43.2752C53.0321 42.9997 52.6794 42.9033 52.4045 43.0639Z" fill="black"/>
<path d="M42.159 46.1835C42.3401 46.2871 42.5605 46.2845 42.7359 46.1824L45.2932 44.7012C45.4718 44.5981 45.5817 44.4071 45.5811 44.2009L45.5766 41.4425C45.5761 41.2368 45.4662 41.0464 45.2876 40.9438C45.1096 40.8413 44.8893 40.8413 44.7112 40.9438L42.1534 42.4205C41.9748 42.5236 41.8644 42.7146 41.8649 42.9214L41.87 45.6843C41.8706 45.8905 41.9804 46.0804 42.159 46.1835ZM44.4245 42.4419L44.4267 43.8696L43.0222 44.6831L43.0193 43.2532L44.4245 42.4419Z" fill="black"/>
<path d="M49.6827 40.8976C49.8596 40.9996 50.0788 41.0017 50.2596 40.8971L54.1341 38.6553C54.3127 38.5522 54.4226 38.3618 54.422 38.1556L54.4181 35.4152C54.4175 35.209 54.3076 35.0186 54.129 34.916C53.951 34.8135 53.7307 34.8135 53.5527 34.916L49.6782 37.1522C49.4996 37.2553 49.3891 37.4463 49.3897 37.6525L49.3937 40.3985C49.3942 40.6047 49.5041 40.7951 49.6827 40.8976ZM53.2659 36.4141L53.2676 37.8237L50.5458 39.3984L50.5441 37.9849L53.2659 36.4141Z" fill="black"/>
</svg>
