<svg width="93" height="92" viewBox="0 0 93 92" fill="none" xmlns="http://www.w3.org/2000/svg">
<path d="M23.9152 60.5301C23.9161 61.0081 24.3051 61.3955 24.7832 61.3955C24.784 61.3955 24.7848 61.3955 24.7857 61.3955C25.2646 61.3946 25.6519 61.0047 25.6511 60.525L25.5587 24.8325L35.9259 30.8569C35.9402 36.3913 36.052 79.7871 36.0662 85.282L25.7002 79.2574L25.6841 73.0404C25.6833 72.5624 25.2942 72.175 24.8162 72.175C24.8154 72.175 24.8145 72.175 24.8137 72.175C24.3348 72.1759 23.9474 72.5658 23.9483 73.0455L23.9652 79.76C23.9661 80.0677 24.1305 80.3533 24.3967 80.5076C24.5717 80.6093 36.6778 87.6441 36.5042 87.5432C36.5037 87.543 36.5046 87.5434 36.5042 87.5432C36.7723 87.6976 37.1011 87.6994 37.3723 87.5442L68.7473 69.4305C69.0168 69.2746 69.1821 68.9873 69.1812 68.6762L69.0346 12.2399C69.0335 11.8869 68.777 11.5933 68.6023 11.4923L68.6003 11.4912L56.4963 4.45741C56.2276 4.30061 55.8954 4.30061 55.6267 4.45572L24.2526 22.5703C23.9812 22.7273 23.8194 23.0164 23.8186 23.3212C23.8186 23.3218 23.819 23.3223 23.819 23.3229C23.819 23.3235 23.8186 23.324 23.8186 23.3246L23.9152 60.5301ZM37.8023 85.2911C37.7575 67.8968 37.69 41.6546 37.6622 30.8573L62.5983 16.4598L67.303 13.7435L67.4437 68.1787L37.8023 85.2911ZM56.0589 6.21021L66.4351 12.2399L36.7937 29.354L26.4181 23.3246L56.0589 6.21021Z" fill="white"/>
<path d="M24.8086 70.0036C25.2875 70.0019 25.6757 69.6128 25.674 69.1331L25.6621 64.8672C25.6604 64.3892 25.2722 64.0018 24.7942 64.0018H24.7917C24.3128 64.0035 23.9246 64.3926 23.9263 64.8723L23.9381 69.1382C23.9398 69.6162 24.328 70.0036 24.8061 70.0036H24.8086Z" fill="white"/>
<path d="M63.1803 48.7656C62.9124 48.6105 62.581 48.6122 62.3132 48.7656L41.8822 60.5614C41.6127 60.7174 41.4474 61.0047 41.4482 61.3158L41.4898 77.2876C41.4911 77.7669 41.8811 78.153 42.3577 78.153C42.5077 78.153 42.6577 78.114 42.7917 78.0369L63.2226 66.2419C63.4922 66.0859 63.6574 65.7986 63.6566 65.4876L63.6151 49.5149C63.6142 49.2055 63.4489 48.9199 63.1803 48.7656ZM43.2214 75.784L43.1858 61.8133L61.8835 51.0185L61.9191 64.99L43.2214 75.784Z" fill="white"/>
<path d="M53.3492 42.6393L50.3945 44.3692C49.9809 44.6116 49.8419 45.143 50.0835 45.5566C50.3285 45.9749 50.8628 46.107 51.2709 45.8677L54.2256 44.1378C54.6392 43.8954 54.7782 43.364 54.5367 42.9503C54.2943 42.535 53.7603 42.3977 53.3492 42.6393Z" fill="white"/>
<path d="M43.0333 52.1017L45.5854 53.29C45.7015 53.3443 45.827 53.3714 45.9516 53.3714C45.9589 53.3714 45.9664 53.3658 45.9737 53.3656C46.1127 53.362 46.2517 53.3303 46.377 53.2604C46.3796 53.2589 46.3809 53.2559 46.3834 53.2544C47.0785 52.849 59.2899 45.7044 59.1069 45.8093C59.3679 45.6567 59.5298 45.3795 59.5366 45.0778C59.6426 39.9643 60.6258 34.1677 62.5413 27.3557C62.6574 26.9428 62.4206 26.518 62.1116 26.3538L57.3956 23.8552C57.1303 23.7162 56.8091 23.7238 56.5489 23.8747C56.3711 23.9796 42.9952 31.8744 43.1769 31.7671C43.1757 31.7679 43.1743 31.7675 43.1732 31.7682C42.8717 31.9498 42.7549 32.3137 42.7528 32.5014L42.5316 51.305C42.5273 51.6457 42.724 51.9576 43.0333 52.1017ZM44.4717 33.9255L47.4262 35.4455C45.8948 41.0356 45.7024 46.2021 45.215 51.2033L44.2742 50.7651L44.4717 33.9255ZM57.8135 44.5548L46.9741 50.8992C47.0489 50.1059 47.1291 49.3257 47.1984 48.5097C47.5535 44.3575 47.9339 40.0636 49.2093 35.559L60.3415 28.9412C58.8132 34.7959 57.9561 39.9545 57.8135 44.5548ZM57.0125 25.6165L59.9341 27.1641L48.4242 34.0066L45.4172 32.4595L57.0125 25.6165Z" fill="white"/>
<path d="M47.1331 62.9668C45.6413 63.8288 44.4776 65.8469 44.4827 67.5607C44.4898 69.6349 46.2015 70.6278 48.0163 69.5822C49.508 68.7211 50.6717 66.7021 50.6666 64.9875C50.6595 62.9066 48.9271 61.9283 47.1331 62.9668ZM47.1483 68.0786C46.7839 68.2879 46.5338 68.293 46.4364 68.2362C46.3363 68.1786 46.2194 67.9659 46.2185 67.5556C46.2151 66.4623 47.0483 65.0205 48.001 64.4704C48.3612 64.2628 48.6121 64.2585 48.7113 64.3162C48.8121 64.3738 48.9299 64.5857 48.9308 64.9925C48.9342 66.0859 48.101 67.5285 47.1483 68.0786Z" fill="white"/>
<path d="M57.0897 57.2186C55.5988 58.0798 54.4343 60.0979 54.4385 61.8134C54.4456 63.892 56.1618 64.877 57.9721 63.834C59.4638 62.9729 60.6275 60.9539 60.6225 59.2401C60.6171 57.1688 58.8926 56.1742 57.0897 57.2186ZM57.1041 62.3304C56.7405 62.5398 56.4913 62.5465 56.3913 62.4881C56.2922 62.4304 56.1752 62.2185 56.1743 61.8091C56.1718 60.7149 57.005 59.2723 57.9577 58.7222C58.1967 58.5841 58.3857 58.5358 58.5154 58.5358C58.5823 58.5358 58.6332 58.5485 58.6679 58.568C58.7679 58.6256 58.8858 58.8375 58.8866 59.2444C58.89 60.3377 58.0568 61.7803 57.1041 62.3304Z" fill="white"/>
</svg>
