<svg width="93" height="92" viewBox="0 0 93 92" fill="none" xmlns="http://www.w3.org/2000/svg">
<path d="M19.6082 80.2426L27.003 84.5595L27.0082 84.5609C30.1755 87.4805 33.9689 88.3253 36.8288 88.4573C36.8426 88.4582 36.8564 88.4582 36.8703 88.4582C37.3402 88.4582 37.7324 88.0884 37.7531 87.6142C37.7756 87.1261 37.399 86.7123 36.9117 86.6898C33.9219 86.5518 30.6727 85.6477 28.0317 83.1253C10.5515 66.3883 37.5127 10.168 66.0646 11.4871C68.3209 11.6188 70.5098 12.1939 72.4708 13.322C77.8304 16.4061 80.7952 22.9586 80.8194 31.7745C80.873 50.4888 67.6884 73.3515 51.4284 82.7401C51.0051 82.9846 50.86 83.5254 51.1053 83.9487C51.3472 84.3737 51.8897 84.5137 52.313 84.2727C69.0637 74.6015 82.6439 51.0486 82.5886 31.7694C82.5627 22.296 79.2817 15.2001 73.3537 11.7886C70.0713 9.89952 66.2556 7.658 62.8887 5.69826C56.9192 2.22631 49.0441 2.9658 40.7284 7.77849C24.725 16.743 10.3591 40.3036 10.4113 60.2334C10.4458 69.7041 13.713 76.8104 19.6082 80.2426ZM41.6026 9.31533C47.8901 5.67876 55.6661 3.54769 61.9989 7.22646L66.2768 9.72222C66.2627 9.72179 66.2491 9.72114 66.2353 9.72039C39.4655 8.06681 11.1112 57.7532 24.0191 80.7696L20.4997 78.7144C15.1661 75.6096 12.2133 69.0441 12.1805 60.2274C12.1308 40.8871 26.1663 17.9678 41.6026 9.31533Z" fill="black"/>
<path d="M47.1973 84.7746C45.5956 85.4035 43.9767 85.889 42.3872 86.2165C41.9086 86.3149 41.5993 86.7832 41.6995 87.2617C41.7842 87.6799 42.1539 87.9675 42.5634 87.9675C42.6239 87.9675 42.6826 87.9615 42.7431 87.9494C44.4328 87.6013 46.1485 87.0872 47.8435 86.4212C48.2979 86.2424 48.5225 85.7292 48.3445 85.2748C48.1631 84.8196 47.6482 84.5975 47.1973 84.7746Z" fill="black"/>
<path d="M53.1758 69.1525L54.0545 65.3727C54.165 64.8967 53.8679 64.4207 53.3927 64.311C52.9107 64.1944 52.4407 64.4967 52.3301 64.9719C52.2604 65.2721 50.8741 71.2413 50.96 70.8713C50.9111 71.0806 50.9707 71.354 51.0568 71.5028C51.256 71.7088 51.3368 71.9024 51.7133 71.9494L57.2854 72.6423C57.7447 72.7079 58.2102 72.3741 58.2719 71.8734C58.3324 71.3888 57.9886 70.9473 57.5031 70.8869L54.3433 70.4938C64.0775 63.6733 71.6617 49.7774 71.631 38.2649C71.6223 35.1912 71.0833 32.4994 70.0311 30.2637C69.8238 29.8214 69.2951 29.6304 68.8545 29.8404C68.4122 30.0477 68.2221 30.5747 68.4312 31.017C69.3728 33.0169 69.8531 35.4573 69.8618 38.2701C69.8927 49.3287 62.556 62.6922 53.1758 69.1525Z" fill="black"/>
<path d="M50.7038 29.0929L49.8457 32.7844C49.7351 33.2604 50.0323 33.7364 50.5074 33.8461C50.9653 33.9577 51.4567 33.6724 51.57 33.1853L52.9401 27.2858C52.9971 27.0413 52.947 26.7848 52.8036 26.5792C52.6602 26.3736 52.4356 26.2388 52.1868 26.2077L46.6147 25.514C46.131 25.4406 45.6869 25.7973 45.6282 26.282C45.5677 26.7675 45.9115 27.2089 46.397 27.2694L49.641 27.6735C39.6845 34.3709 31.8579 48.5071 31.8907 60.1928C31.9011 64.2228 32.8496 67.6732 34.6344 70.1707C34.9171 70.5665 35.4672 70.6616 35.8698 70.3763C36.2672 70.092 36.3587 69.54 36.0754 69.1426C34.5048 66.9449 33.6703 63.8488 33.66 60.1876C33.627 48.9978 41.1537 35.4555 50.7038 29.0929Z" fill="black"/>
<path d="M52.239 54.8255C52.0144 54.3918 51.477 54.2242 51.0468 54.448L45.1551 57.5078L50.0482 47.276C51.1747 45.0394 50.5596 43.7108 50.0914 43.1173C49.3104 42.1273 47.8487 41.7446 46.3075 42.11C44.4899 42.5385 42.3251 44.071 41.6996 47.0868C41.5994 47.5654 41.9069 48.0336 42.3855 48.133C42.852 48.228 43.3323 47.9256 43.4308 47.4462C43.8887 45.2442 45.4264 44.1358 46.7136 43.8317C47.574 43.6278 48.3567 43.7764 48.7022 44.2135C49.0547 44.6602 48.97 45.486 48.4603 46.4959L42.4183 59.1293C42.2542 59.4723 42.3285 59.8826 42.6015 60.147C42.7708 60.3103 42.992 60.3958 43.2166 60.3958C43.3548 60.3958 43.4947 60.363 43.6243 60.2964L51.8623 56.0185C52.296 55.793 52.4653 55.2591 52.239 54.8255Z" fill="black"/>
<path d="M58.9512 37.7828C58.54 37.686 58.1357 37.8873 57.956 38.2588L51.5028 51.5444C51.3352 51.89 51.4095 52.3047 51.6877 52.5707C51.9676 52.8359 52.3857 52.8904 52.7226 52.7081L57.8679 49.9091V53.0493C57.8679 53.5383 58.2635 53.9339 58.7525 53.9339C59.2415 53.9339 59.6371 53.5383 59.6371 53.0493V48.9468L61.3787 48.0008C61.8072 47.7667 61.9661 47.2302 61.7329 46.8009C61.4979 46.3698 60.9623 46.2152 60.5321 46.4458L59.6371 46.933V38.645C59.6371 38.2329 59.352 37.8752 58.9512 37.7828ZM57.8679 47.8954L54.3001 49.8357L57.8679 42.491V47.8954Z" fill="black"/>
</svg>
