<svg width="93" height="92" viewBox="0 0 93 92" fill="none" xmlns="http://www.w3.org/2000/svg">
<path d="M59.498 11.7244C59.9267 11.9731 60.4658 11.8212 60.7075 11.4039C60.9528 10.9823 60.8094 10.4407 60.3861 10.1953L57.2433 8.36909C56.8217 8.12548 56.2792 8.2637 56.0339 8.68959C55.7885 9.11117 55.9319 9.65282 56.3552 9.89816L59.498 11.7244Z" fill="black"/>
<path d="M80.4714 21.8681L64.0887 12.3473C63.6689 12.1036 63.1246 12.2436 62.8793 12.6669C62.6339 13.0893 62.7773 13.631 63.2006 13.8763L78.2629 22.6297L66.3254 29.5219L36.7539 12.3368L48.6909 5.44484L53.171 8.04772C53.5891 8.29133 54.1333 8.15138 54.3804 7.72722C54.6258 7.30564 54.4823 6.76399 54.059 6.51865L49.1366 3.65833C48.8671 3.49938 48.5267 3.49851 48.2503 3.6566L12.413 24.3474C12.2761 24.4267 12.1655 24.5397 12.0891 24.6724C12.0764 24.6944 12.08 24.7228 12.0693 24.7458C12.0156 24.8607 11.9707 24.9815 11.9707 25.1128C11.9707 25.1135 11.9711 25.1139 11.9711 25.1146C11.9711 25.1152 11.9707 25.1157 11.9707 25.1163L12.0865 69.3687C12.0865 69.6831 12.2541 69.9734 12.527 70.1306L43.8618 88.3412C43.8625 88.3417 43.8634 88.3415 43.8642 88.3419C43.8637 88.3417 43.8646 88.3421 43.8642 88.3419C44.1386 88.4999 44.4746 88.5005 44.7481 88.343L80.5871 67.6521C80.8619 67.4932 81.0294 67.2003 81.0294 66.8833L80.912 22.6301C80.912 22.368 80.66 21.9772 80.4714 21.8681ZM59.111 35.732L65.4416 32.0772V36.3139L59.111 40.0295V35.732ZM58.2262 34.198L28.6557 17.014L34.9897 13.3571L64.5592 30.5416L58.2262 34.198ZM56.4604 35.2175L44.1912 42.3012C33.4656 36.0683 25.9091 31.677 14.6194 25.1163L26.8881 18.0329L56.4604 35.2175ZM13.7434 26.6531L43.3067 43.833L43.4172 86.0369L13.854 68.8564L13.7434 26.6531ZM45.187 86.0468L45.0764 43.8334L57.3418 36.7519V41.575C57.3418 42.2601 58.0881 42.682 58.6739 42.3378L66.7737 37.583C67.0449 37.424 67.2108 37.1338 67.2108 36.8202V31.054L79.1462 24.163L79.2585 66.3762L45.187 86.0468Z" fill="black"/>
<path d="M67.8966 46.7894C67.4284 46.6892 66.9498 46.9898 66.8461 47.4693L62.6217 67.2358C62.5198 67.7135 62.8239 68.1834 63.3025 68.2854C63.3647 68.2992 63.4269 68.3052 63.4891 68.3052C63.8968 68.3052 64.2631 68.021 64.353 67.6055L68.5773 47.839C68.6793 47.3613 68.3752 46.8913 67.8966 46.7894Z" fill="black"/>
<path d="M54.2266 64.7832L50.8851 66.5187L53.907 60.1977C54.7587 58.5071 54.2905 57.4773 53.9346 57.0134C53.361 56.2619 52.3468 55.95 51.2047 56.185C49.8588 56.4623 48.2157 57.5715 47.6404 59.8513C47.5194 60.3256 47.8079 60.8067 48.2814 60.926C48.7565 61.0435 49.2368 60.7566 49.3543 60.285C49.731 58.7956 50.7797 58.0786 51.5624 57.9171C52.003 57.8289 52.3848 57.8998 52.5299 58.089C52.6647 58.2635 52.6802 58.6997 52.3191 59.4176L48.1483 68.1402C47.9842 68.4841 48.0585 68.8935 48.3314 69.1579C48.5008 69.3212 48.7219 69.4067 48.9465 69.4067C49.0848 69.4067 49.2247 69.3739 49.3543 69.3073L55.0421 66.3537C55.4758 66.1283 55.6451 65.5944 55.4188 65.1607C55.1941 64.7262 54.6568 64.5603 54.2266 64.7832Z" fill="black"/>
<path d="M62.7187 59.4435C62.4837 59.0133 61.9481 58.8587 61.5179 59.0885L61.1274 59.3018V53.2512C61.1274 52.8391 60.8423 52.4815 60.4415 52.3891C60.032 52.2914 59.6277 52.4936 59.4463 52.8651L54.4686 63.1107C54.301 63.4563 54.3753 63.8709 54.6535 64.1361C54.9334 64.4031 55.3515 64.4558 55.6884 64.2744L59.3582 62.2779V64.359C59.3582 64.848 59.7539 65.2436 60.2428 65.2436C60.7318 65.2436 61.1274 64.848 61.1274 64.359V61.3156L62.3645 60.6435C62.793 60.4093 62.9519 59.8729 62.7187 59.4435ZM59.3582 60.2642L57.2659 61.4011L59.3582 57.0964V60.2642Z" fill="black"/>
<path d="M75.969 46.6235C75.6891 46.4075 75.309 46.379 74.9963 46.5492L69.5297 49.5866C69.1029 49.8242 68.9491 50.3624 69.1858 50.7891C69.4243 51.2185 69.9651 51.3688 70.3901 51.1329L74.046 49.1011L71.4665 58.9554C71.3421 59.4279 71.6254 59.9109 72.0971 60.0353C72.1731 60.0543 72.2474 60.0638 72.3217 60.0638C72.7157 60.0638 73.0733 59.8011 73.177 59.4029L76.2818 47.5461C76.3716 47.204 76.2489 46.8403 75.969 46.6235Z" fill="black"/>
</svg>
