<svg width="93" height="92" viewBox="0 0 93 92" fill="none" xmlns="http://www.w3.org/2000/svg">
<path d="M18.4705 61.5016H18.4731C18.9612 61.4999 19.3568 61.1034 19.3551 60.6144L19.3395 54.81C19.3378 54.3228 18.9422 53.928 18.4549 53.928H18.4523C17.9642 53.9297 17.5686 54.3262 17.5703 54.8152L17.5859 60.6196C17.5876 61.1068 17.9833 61.5016 18.4705 61.5016Z" fill="black"/>
<path d="M60.3872 46.5271C60.1419 46.103 59.6011 45.9587 59.1786 46.2032L43.2694 55.388C42.8461 55.6324 42.7009 56.1732 42.9454 56.5965C43.1905 57.021 43.733 57.1637 44.154 56.9205L60.0632 47.7357C60.4865 47.4912 60.6317 46.9504 60.3872 46.5271Z" fill="black"/>
<path d="M44.154 44.5471L60.0632 35.3624C60.4865 35.1179 60.6317 34.5771 60.3872 34.1538C60.1419 33.7288 59.6011 33.5853 59.1786 33.8298L43.2694 43.0146C42.8461 43.2591 42.7009 43.7999 42.9454 44.2232C43.1905 44.6476 43.733 44.7903 44.154 44.5471Z" fill="black"/>
<path d="M44.154 32.1737L60.0632 22.9881C60.4865 22.7436 60.6317 22.2028 60.3872 21.7795C60.1419 21.3553 59.6011 21.2093 59.1786 21.4555L43.2694 30.6412C42.8461 30.8857 42.7009 31.4265 42.9454 31.8498C43.1905 32.2742 43.733 32.4169 44.154 32.1737Z" fill="black"/>
<path d="M33.4182 40.9386C34.2968 41.4446 34.8022 40.3591 40.6273 37.2861C40.902 37.1272 41.0705 36.8343 41.0696 36.5173L41.0506 29.7453C41.0498 29.43 40.8804 29.1389 40.6075 28.9808C40.3336 28.8227 39.9958 28.8253 39.7237 28.9816L33.3984 32.6333C33.1237 32.7922 32.9552 33.0851 32.9561 33.4021L32.9751 40.1741C32.9759 40.4894 33.1452 40.7805 33.4182 40.9386ZM39.2857 31.2778L39.2987 36.0102L34.74 38.6416L34.727 33.9092L39.2857 31.2778Z" fill="black"/>
<path d="M33.4539 53.3129C33.7229 53.4679 34.0608 53.4715 34.3376 53.312L40.663 49.6595C40.9377 49.5006 41.1061 49.2077 41.1053 48.8907L41.0863 42.1187C41.0854 41.8034 40.9161 41.5123 40.6431 41.3542C40.3693 41.1961 40.0315 41.1987 39.7594 41.355L33.434 45.0075C33.1593 45.1665 32.9908 45.4594 32.9917 45.7764L33.0107 52.5484C33.0116 52.8637 33.1809 53.1548 33.4539 53.3129ZM39.3214 43.6512L39.3343 48.3836L34.7756 51.0158L34.7627 46.2835L39.3214 43.6512Z" fill="black"/>
<path d="M40.6778 53.7285C40.4039 53.5712 40.0661 53.5721 39.794 53.7293L33.4687 57.3809C33.194 57.5399 33.0255 57.8328 33.0264 58.1498L33.0462 64.9131C33.0471 65.2284 33.2164 65.5196 33.4894 65.6777C33.7585 65.8326 34.0963 65.8363 34.3732 65.6768L40.6985 62.0243C40.9732 61.8654 41.1417 61.5725 41.1408 61.2555L41.1209 54.493C41.1201 54.1777 40.9508 53.8865 40.6778 53.7285ZM34.8112 63.3806L34.7973 58.6569L39.356 56.0255L39.3699 60.7484L34.8112 63.3806Z" fill="black"/>
<path d="M71.9217 57.0751C71.9151 57.0714 71.9077 57.0692 71.9012 57.0654L67.4183 54.455C67.1159 54.2789 66.8005 54.1334 66.4755 54.0121L66.3531 12.4306C66.3531 10.7895 65.7931 10.4616 64.9406 9.5262L55.2142 3.86863C54.2959 3.35289 53.1106 3.44533 51.9686 4.12261L21.2429 21.8503C21.2387 21.8528 21.2371 21.8579 21.2328 21.8604C19.1309 23.0788 17.4902 25.9234 17.4971 28.3424C17.4971 28.3436 17.498 28.3445 17.498 28.3457L17.555 49.3417C17.5567 49.8298 17.9264 50.2582 18.4422 50.2237C18.9303 50.222 19.3259 49.8254 19.3242 49.3365L19.2715 29.8795L27.2348 34.5069L27.373 85.2247C27.373 85.2368 27.373 85.2481 27.373 85.2602L19.9315 80.933C19.5981 80.7395 19.4071 80.2462 19.4071 79.5767L19.3734 67.3044C19.3717 66.8171 18.9761 66.4223 18.4888 66.4223C18.488 66.4223 18.4871 66.4223 18.4862 66.4223C17.9981 66.4241 17.6025 66.8206 17.6042 67.3095L17.6379 79.5793C17.6379 80.8941 18.1511 81.9454 19.0434 82.4629L28.7785 88.1239C29.5783 88.5859 30.729 88.6308 32.0302 87.8933L48.4943 78.3922C49.0871 80.0092 50.0605 81.2666 51.3924 82.0431L55.9079 84.6736C55.9105 84.6744 55.9122 84.6762 55.9148 84.6779L55.9187 84.6727C55.9271 84.6776 55.934 84.6843 55.9424 84.6891C58.6021 86.2194 61.7752 85.4567 64.4119 83.9341C70.5481 80.3913 75.5241 71.762 75.5033 64.6989C75.493 61.106 74.2213 58.3986 71.9217 57.0751ZM52.8627 5.64909C53.4527 5.29922 53.9918 5.2111 54.3339 5.40375L61.7711 9.72921C61.7486 9.74217 61.7253 9.75512 61.7028 9.76808C59.2128 11.206 35.267 25.034 31.4217 27.2546L23.4501 22.6192L52.8627 5.64909ZM21.7128 23.661L29.8221 28.3735C28.6375 29.4812 27.7394 31.1253 27.402 32.5563L19.2968 27.843C19.4795 26.3209 20.4813 24.5863 21.7128 23.661ZM48.0258 76.6196L31.1516 86.3573C30.5469 86.7002 30.0061 86.7789 29.6675 86.5828C29.2662 86.349 29.1465 85.6929 29.1465 85.2317L29.0049 33.9905C28.99 32.2062 30.3109 29.9317 31.8531 29.0491L31.8616 29.0441C31.8613 29.0443 31.8619 29.0439 31.8616 29.0441C67.0947 8.6986 61.7095 11.8087 62.5848 11.3032C63.7947 10.6043 64.5839 10.9733 64.5839 12.4332L64.7048 53.6257C62.767 53.4691 60.6405 54.2115 58.941 55.1867C52.7953 58.7269 47.8107 67.3502 47.8297 74.4063C47.8297 74.4058 47.8297 74.4069 47.8297 74.4063C47.8297 74.4075 47.8297 74.4103 47.8297 74.4115C47.8331 75.1915 47.9063 75.9211 48.0252 76.6127C48.0256 76.6149 48.0254 76.6174 48.0258 76.6196ZM49.5991 74.4048C49.5859 67.9183 54.1702 59.9879 59.8195 56.7253C64.6543 53.9294 66.8912 56.3292 67.2066 56.3788C66.1701 56.5718 64.6959 57.112 63.4582 57.8267C56.005 62.1301 50.4532 73.7414 52.9586 80.9079C52.7901 80.6969 49.5991 79.8169 49.5991 74.4048ZM63.5273 82.4016C60.9478 83.89 58.5678 84.1587 56.8245 83.1557C55.0932 82.1588 54.1352 79.9879 54.1266 77.0412C54.1086 70.5823 58.6964 62.6201 64.3428 59.3601C64.3669 59.3462 64.3902 59.3363 64.4142 59.3226C66.4375 58.1713 69.0332 57.4396 71.0492 58.6172L71.0517 58.618C72.7729 59.6165 73.7255 61.7762 73.7341 64.7041C73.7531 71.2022 69.1745 79.1413 63.5273 82.4016Z" fill="black"/>
<path d="M65.891 69.9582C65.2102 69.566 64.3343 69.6222 63.4911 70.1103C63.181 70.2908 62.9469 70.3202 62.851 70.2623C62.7594 70.2096 62.6661 69.9988 62.6652 69.6464C62.6618 68.6054 63.4548 67.2335 64.3619 66.71C64.672 66.5312 64.9036 66.5105 64.9951 66.5597C65.0876 66.6133 65.1809 66.8241 65.1817 67.1774C65.1826 67.6646 65.5791 68.0594 66.0663 68.0594H66.0689C66.557 68.0585 66.9518 67.6612 66.951 67.1722C66.9484 66.2003 66.5579 65.4177 65.878 65.0272C65.5564 64.8411 65.1892 64.764 64.8042 64.7771V63.6579C64.8042 63.169 64.4086 62.7733 63.9196 62.7733C63.4306 62.7733 63.035 63.169 63.035 63.6579V65.4828C61.8019 66.431 60.8914 68.1564 60.896 69.6515C60.8986 70.6234 61.2891 71.4052 61.9681 71.7957C62.6514 72.1888 63.5283 72.1318 64.3757 71.6428C64.6833 71.4657 64.9157 71.4363 65.0098 71.4925C65.1014 71.5452 65.1956 71.7568 65.1964 72.1093C65.199 73.1459 64.4086 74.5135 63.5049 75.0353C63.1939 75.2149 62.9572 75.2435 62.8631 75.1873C62.7724 75.1355 62.6799 74.9273 62.6791 74.5791C62.6782 74.091 62.343 73.6867 61.7919 73.6971C61.3038 73.698 60.909 74.0954 60.9098 74.5843C60.9124 75.5519 61.302 76.3311 61.9802 76.7207C62.2808 76.8943 62.6195 76.9799 62.9771 76.9799C62.9959 76.9799 63.0161 76.9718 63.035 76.9713V78.1055C63.035 78.5945 63.4306 78.9901 63.9196 78.9901C64.4086 78.9901 64.8042 78.5945 64.8042 78.1055V76.2816C66.047 75.3405 66.9695 73.6066 66.9657 72.1041C66.9622 71.1314 66.5709 70.3496 65.891 69.9582Z" fill="black"/>
</svg>
