<svg width="93" height="92" viewBox="0 0 93 92" fill="none" xmlns="http://www.w3.org/2000/svg">
<path d="M11.9155 79.1927C11.9155 80.6328 12.4735 81.7826 13.4445 82.3441C15.4728 83.5209 23.0465 87.9423 23.3918 88.1138C24.4985 88.7237 25.7894 88.4646 26.8779 87.8419L77.0176 58.894C79.4015 57.5602 81.1902 54.3283 81.1902 51.6823V51.6798L81.0848 12.8146C81.0848 11.5965 80.6822 10.5788 80.0015 9.99571C79.6635 9.65994 79.36 9.58055 69.6504 3.90188C68.6501 3.33863 67.4009 3.43366 66.1241 4.16969L56.2827 9.85144C55.8594 10.0959 55.7143 10.6367 55.9596 11.06C56.2015 11.4842 56.7423 11.6259 57.1673 11.384L67.0087 5.70221C67.7188 5.29014 68.3512 5.20203 68.7727 5.437L76.2591 9.79097C71.9961 12.0615 90.7821 1.40313 26.3183 38.6189L18.1825 33.8903L43.3055 19.387C43.7288 19.1425 43.8739 18.6017 43.6286 18.1784C43.3867 17.7534 42.8442 17.6117 42.4209 17.8544L15.9823 33.118L15.974 33.1201C13.6374 34.4695 11.8133 37.6263 11.8148 40.3141C11.8147 40.3204 11.8101 40.3255 11.8101 40.3318L11.9155 79.1927ZM14.3326 80.8142C13.9214 80.5758 13.6847 79.9849 13.6847 79.1901L13.5827 41.8695L21.7098 46.5939C21.8488 97.9952 21.6811 82.0444 21.8173 85.1673L14.3326 80.8142ZM76.1434 57.3555L25.9967 86.3076C25.2918 86.7128 24.6491 86.8069 24.2275 86.5625C23.7538 86.2878 23.5813 85.5158 23.5813 84.928L23.4777 46.0843C23.4777 44.017 24.9756 41.4203 26.7552 40.4104L76.9172 11.4506C78.2461 10.6617 79.3155 11.0605 79.3155 12.8171L79.4209 51.6849C79.4209 53.7976 77.7848 56.4386 76.1434 57.3555ZM16.4409 34.9261L24.6995 39.7287C23.2931 40.9966 22.2168 42.986 21.8656 44.6322L13.6087 39.8333C13.7969 38.0482 14.9848 35.9907 16.4409 34.9261Z" fill="black"/>
<path d="M51.6627 12.5182L46.6314 15.4226C46.2081 15.6671 46.063 16.2079 46.3083 16.6312C46.5491 17.0526 47.0903 17.1996 47.516 16.9551L52.5473 14.0508C52.9706 13.8063 53.1157 13.2655 52.8704 12.8422C52.6268 12.4163 52.086 12.2738 51.6627 12.5182Z" fill="black"/>
<path d="M28.1736 61.1574C28.4431 61.3126 28.7809 61.3161 29.0565 61.1557L47.8891 50.2587C48.1638 50.1006 48.3314 49.8077 48.3314 49.4915L48.3055 35.5243C48.3055 35.209 48.1362 34.917 47.8632 34.7598C47.5867 34.6025 47.2515 34.6025 46.9786 34.7598L28.1459 45.6309C27.8712 45.7889 27.7036 46.0818 27.7036 46.3989L27.7295 60.392C27.7295 60.7082 27.8989 60.9993 28.1736 61.1574ZM46.5527 44.528L42.4856 46.8807L42.48 43.8681L46.5475 41.5148L46.5527 44.528ZM40.7265 52.3592L35.329 55.4822L35.3084 43.5402L40.7044 40.4252C40.7081 42.4004 40.7272 52.7415 40.7265 52.3592ZM33.5538 52.0485L29.4875 54.4014L29.4823 51.3882L33.5486 49.0351L33.5538 52.0485ZM29.4911 56.442L33.5574 54.0891L33.5616 56.505L29.4953 58.8578L29.4911 56.442ZM42.4939 51.3366L42.4894 48.9211L46.5562 46.5685L46.5604 48.9836L42.4939 51.3366ZM46.5439 39.4743L42.4762 41.8277L42.4718 39.4051L46.5397 37.0568L46.5439 39.4743ZM33.541 44.5604L33.5451 46.9944L29.4788 49.3475L29.4746 46.9077L33.541 44.5604Z" fill="black"/>
<path d="M37.2563 66.6767C36.9834 66.5195 36.6464 66.5203 36.3735 66.6776L27.7485 71.6578C27.4737 71.8168 27.3062 72.1096 27.3062 72.4267L27.32 77.9823C27.32 78.2976 27.4893 78.5888 27.764 78.746C28.0384 78.904 28.3733 78.9035 28.6469 78.746L37.2736 73.7657C37.5483 73.6068 37.7177 73.3139 37.7159 72.9969L37.7004 67.4412C37.6987 67.1259 37.5311 66.8348 37.2563 66.6767ZM29.0857 76.4498L29.0771 72.9338L35.9346 68.9738L35.945 72.4898L29.0857 76.4498Z" fill="black"/>
<path d="M49.8418 59.4106C49.5688 59.2534 49.2319 59.2542 48.9589 59.4114L40.3339 64.3917C40.0592 64.5507 39.8916 64.8435 39.8916 65.1606L39.9054 70.7171C39.9054 71.0324 40.0747 71.3235 40.3495 71.4807C40.6239 71.6388 40.9588 71.6383 41.2323 71.4807L49.8591 66.5005C50.1338 66.3415 50.3031 66.0487 50.3014 65.7316L50.2858 60.1751C50.2841 59.8598 50.1165 59.5687 49.8418 59.4106ZM41.6712 69.1845L41.6626 65.6677L48.5201 61.7076L48.5304 65.2245L41.6712 69.1845Z" fill="black"/>
<path d="M62.4268 52.1454C62.1538 51.9882 61.8169 51.9891 61.5439 52.1463L52.9189 57.1266C52.6442 57.2855 52.4766 57.5784 52.4766 57.8954L52.4904 63.4511C52.4904 63.7664 52.6597 64.0575 52.9344 64.2147C53.2088 64.3728 53.5437 64.3723 53.8173 64.2147L62.444 59.2345C62.7188 59.0755 62.8881 58.7826 62.8863 58.4656L62.8708 52.91C62.8691 52.5947 62.7015 52.3035 62.4268 52.1454ZM54.2562 61.9185L54.2475 58.4025L61.105 54.4425L61.1154 57.9585L54.2562 61.9185Z" fill="black"/>
<path d="M75.1328 44.8093C74.8598 44.652 74.5229 44.6529 74.2499 44.8101L65.6249 49.7904C65.3502 49.9494 65.1826 50.2422 65.1826 50.5593L65.1964 56.1149C65.1964 56.4302 65.3658 56.7213 65.6405 56.8786C65.9149 57.0366 66.2498 57.0361 66.5234 56.8786L75.1501 51.8991C75.4248 51.7402 75.5941 51.4473 75.5924 51.1303L75.5768 45.5738C75.5751 45.2585 75.4075 44.9674 75.1328 44.8093ZM66.9622 54.5824L66.9536 51.0664L73.8111 47.1063L73.8214 50.6232L66.9622 54.5824Z" fill="black"/>
</svg>
