<svg width="93" height="92" viewBox="0 0 93 92" fill="none" xmlns="http://www.w3.org/2000/svg">
<path d="M23.3212 43.5358C23.3221 44.023 23.7186 44.4178 24.2058 44.4178H24.2084C24.6965 44.4169 25.0913 44.0196 25.0904 43.5306L25.0455 26.2599L32.6602 30.6845C32.6811 38.6728 32.8036 85.5496 32.8049 86.0414L25.1898 81.6157L25.1388 62.0514C25.138 61.5641 24.7414 61.1693 24.2542 61.1693H24.2516C23.7635 61.1702 23.3687 61.5676 23.3696 62.0566L23.4223 82.128C23.4232 82.4424 23.5907 82.7327 23.862 82.8899L33.2489 88.3454C33.5919 88.5445 34.1151 88.4843 34.3945 88.1207L52.0073 65.246L68.3874 75.1124C68.9759 75.4689 69.73 75.0413 69.7281 74.3531L69.5769 9.8798C69.5763 9.70189 69.3833 9.25997 69.1372 9.11699L59.7511 3.66244C59.4755 3.50262 59.1378 3.50262 58.8639 3.66071L23.7143 23.9542C23.4377 24.1143 23.2728 24.4089 23.272 24.7196L23.2724 24.7213L23.272 24.723L23.3212 43.5358ZM52.244 63.323C51.8596 63.0906 51.3602 63.1848 51.0872 63.5407L34.5717 84.9907C34.5385 72.2824 34.4644 43.9184 34.4299 30.6849L67.8111 11.4119L67.9554 72.7868L52.244 63.323ZM59.3045 5.44895L66.9274 9.87894L33.5447 29.1527L25.9215 24.723L59.3045 5.44895Z" fill="black"/>
<path d="M24.2387 56.0889C24.7268 56.088 25.1216 55.6906 25.1207 55.2016L25.1052 49.0517C25.1043 48.5636 24.7095 48.1213 24.218 48.1696C23.7299 48.1705 23.3351 48.5679 23.3359 49.0569L23.3515 55.2068C23.3524 55.6941 23.7489 56.0889 24.2361 56.0889H24.2387Z" fill="black"/>
<path d="M60.5217 24.4855L63.3958 22.8268C63.8191 22.5823 63.9642 22.0415 63.7198 21.6182C63.4744 21.1949 62.9328 21.0498 62.5112 21.2943L59.637 22.9529C59.2137 23.1974 59.0686 23.7382 59.3131 24.1615C59.5599 24.5876 60.1024 24.7276 60.5217 24.4855Z" fill="black"/>
<path d="M55.4509 27.414L57.6356 26.1519C58.0589 25.9074 58.2041 25.3657 57.9596 24.9433C57.7142 24.5191 57.1709 24.374 56.751 24.6193L54.5662 25.8815C54.1429 26.1259 53.9978 26.6676 54.2423 27.09C54.4874 27.5145 55.0298 27.6572 55.4509 27.414Z" fill="black"/>
<path d="M39.8747 36.4062L52.5262 29.1021C52.9495 28.8576 53.0947 28.3168 52.8502 27.8935C52.6049 27.4685 52.0615 27.3259 51.6416 27.5696L38.9901 34.8737C38.5668 35.1182 38.4216 35.6589 38.6661 36.0822C38.9112 36.5067 39.4537 36.6494 39.8747 36.4062Z" fill="black"/>
<path d="M62.511 49.7427L38.9901 63.3221C38.5668 63.5666 38.4216 64.1074 38.6661 64.5307C38.9112 64.9551 39.4537 65.0978 39.8747 64.8546L63.3956 51.2753C63.8189 51.0308 63.964 50.49 63.7196 50.0667C63.4742 49.6425 62.9326 49.4974 62.511 49.7427Z" fill="black"/>
<path d="M50.8478 36.8597C49.7152 36.5202 48.593 36.6368 47.5616 37.2122C47.5581 37.2139 47.5538 37.2165 47.5503 37.2182C44.6278 38.9062 42.3282 42.8593 42.3135 46.2233C42.3161 52.7266 50.2405 53.3089 51.1441 53.3538C51.1588 53.3547 51.1735 53.3547 51.1881 53.3547C51.449 53.3547 51.6978 53.2389 51.8663 53.0376C53.2338 51.4049 60.0533 42.9604 60.0723 37.0903C60.0795 33.363 57.2106 31.7 53.9621 33.5571C52.941 34.1462 51.9423 35.2036 50.8478 36.8597ZM54.8432 35.0913C56.8375 33.9522 58.3068 34.6625 58.3031 37.086C58.2893 41.3061 53.7115 47.9977 50.7985 51.5535C49.1623 51.3954 44.0844 50.5539 44.0827 46.2268C44.0948 43.4857 46.0437 40.1347 48.4289 38.7542C49.1917 38.3317 49.9528 38.3292 50.8236 38.743C51.2331 38.9347 51.7168 38.7931 51.9553 38.4112C53.0178 36.7016 53.9906 35.5837 54.8432 35.0913Z" fill="black"/>
</svg>
