<svg width="93" height="92" viewBox="0 0 93 92" fill="none" xmlns="http://www.w3.org/2000/svg">
<path d="M71.9212 34.8253V18.7628C71.9723 14.0373 68.3427 10.1754 64.2326 7.80216C54.3878 2.13077 38.4284 2.14027 28.6493 7.8203C23.7476 10.6651 21.0592 14.5024 21.0782 18.6309C21.0898 19.6293 21.0835 30.7188 21.0851 34.8253C21.0851 41.6076 23.7303 47.9891 28.5353 52.7931C32.2589 56.5168 36.9337 58.9249 42.0033 59.8286L41.9912 65.3758C39.6663 65.8095 37.5458 66.5384 35.8472 67.5327C32.8844 69.2561 31.2464 71.5935 31.2175 74.1213C31.2167 74.1316 31.2102 74.1397 31.2098 74.15L31.0422 79.1277C31.0336 81.7185 32.713 84.1175 35.7677 85.8816C41.6701 89.289 51.2641 89.3091 57.1488 85.8885C60.143 84.1486 61.7947 81.7833 61.8034 79.2547C61.8113 79.0247 61.971 74.5785 61.971 74.277C61.971 74.2739 61.9692 74.2713 61.9692 74.2683C61.9692 74.261 61.971 74.254 61.971 74.2468C61.9675 71.6672 60.2933 69.2821 57.2559 67.531C55.497 66.5143 53.336 65.7845 50.9905 65.369L51.0092 59.8391C57.9756 58.5984 64.1335 54.5145 68.0078 48.3822C68.2687 47.9692 68.146 47.4224 67.7313 47.1615C67.327 46.9032 66.7759 47.0233 66.5115 47.4371C58.4085 60.2651 40.5179 62.2719 29.7862 51.5422C25.3164 47.0725 22.8544 41.1351 22.8544 34.8253V24.1822C24.0342 25.959 26.0621 27.886 28.772 29.439C29.3955 29.7998 30.0444 30.1371 30.714 30.4523L28.4057 35.0836C28.2053 35.4853 28.3366 35.9734 28.7132 36.2187L32.7044 38.8268L31.7472 48.5014C31.6527 49.4579 32.9499 49.856 33.4058 49.0093L39.7053 37.3495C39.9422 36.9134 39.7726 36.3693 39.3321 36.1418L35.4619 34.1566L36.5044 32.4811C46.5015 35.0099 57.4193 33.4874 64.3587 29.4545C66.9732 27.9256 69.0649 25.9044 70.1519 24.2678V34.8253C70.1519 35.3142 70.5476 35.7099 71.0365 35.7099C71.5255 35.7099 71.9212 35.3142 71.9212 34.8253ZM49.2391 60.0964L49.189 74.9146C49.189 76.4286 43.7396 76.5081 43.7396 74.8982L43.7724 60.1033C45.1928 60.2577 47.5623 60.2882 49.2391 60.0964ZM56.2607 84.3594C50.8735 87.4875 42.0775 87.4832 36.6523 84.349C32.0433 81.6885 32.9036 78.6298 32.8374 78.4055C33.4849 79.1852 34.6719 80.202 35.937 80.935C41.708 84.2615 51.3725 84.3933 57.3164 80.9376C58.3303 80.349 59.4908 79.4041 60.048 78.7995C59.9693 79.0395 60.5311 81.8762 56.2607 84.3594ZM50.9893 67.1474C53.016 67.5353 54.8612 68.1901 56.3713 69.0635C58.8398 70.4861 60.1995 72.3265 60.2016 74.2474L60.2015 74.2508C60.2043 76.4935 58.364 78.2782 56.4231 79.4033C50.8722 82.6323 41.9798 82.381 36.8182 79.399C34.8701 78.2733 32.9829 76.4539 32.9808 74.195C32.9791 72.2953 34.3129 70.4716 36.737 69.0609C38.1883 68.2117 39.9869 67.5621 41.9859 67.1595L41.9704 74.8964C41.9704 76.9468 44.6049 77.8786 46.4781 77.8786C46.4777 77.8786 46.4785 77.8786 46.4781 77.8786C48.5264 77.8788 50.9582 76.8826 50.9582 74.918L50.9893 67.1474ZM63.4655 27.9194C54.1736 33.323 39.0055 33.3143 29.6514 27.9021C27.7435 26.8027 25.8527 25.3037 24.578 23.5189C25.7065 21.9473 27.4069 20.4789 29.5374 19.246C38.8293 13.8467 53.9956 13.8407 63.3463 19.2296C65.5654 20.5163 67.2707 21.9825 68.4279 23.5931C67.1821 25.3457 65.2693 26.8692 63.4655 27.9194ZM29.5374 9.35024C38.8466 3.94148 54.0157 3.95759 63.348 9.33469C66.8925 11.382 70.1519 14.5489 70.1519 18.6767C70.1519 19.842 69.868 20.9171 69.3868 21.9681C68.1102 20.3912 66.3979 18.9543 64.2326 17.6979C54.3878 12.0265 38.4267 12.0343 28.651 17.7161C26.5417 18.9351 24.8706 20.3383 23.6218 21.8853C23.1409 20.836 22.8595 19.7855 22.8544 18.6257C22.8544 18.6163 22.8493 18.6086 22.849 18.5992C22.8399 15.1434 25.2151 11.8598 29.5374 9.35024ZM33.7998 35.2926L37.7201 37.3037L33.9414 44.2969L34.5185 38.4674C34.5496 38.1391 34.3976 37.8203 34.1211 37.6398L30.339 35.1682L32.3444 31.1458C33.1179 31.4535 33.909 31.7395 34.7247 31.9918L33.4525 34.0383C33.1782 34.4826 33.3454 35.0583 33.7998 35.2926Z" fill="black"/>
<path d="M69.8116 38.844C69.5766 40.2107 69.2207 41.5635 68.749 42.8662C68.5832 43.3258 68.8216 43.8329 69.2812 43.9988C69.736 44.1634 70.2455 43.9313 70.4146 43.4675C70.9191 42.0663 71.3027 40.6124 71.5566 39.1446C71.6396 38.6626 71.3148 38.2056 70.8344 38.1227C70.3455 38.0371 69.8945 38.3628 69.8116 38.844Z" fill="black"/>
</svg>
