<svg width="93" height="92" viewBox="0 0 93 92" fill="none" xmlns="http://www.w3.org/2000/svg">
<path d="M13.3068 54.4244C13.7949 54.4227 14.1905 54.0262 14.1888 53.5372L14.1784 49.7033C14.1767 49.2161 13.781 48.8213 13.2938 48.8213H13.2912C12.8031 48.823 12.4075 49.2195 12.4092 49.7085L12.4196 53.5424C12.4213 54.0296 12.8169 54.4244 13.3042 54.4244H13.3068Z" fill="black"/>
<path d="M8.32234 26.6602L8.43897 35.0986C8.44329 35.4096 8.61002 35.6955 8.87868 35.851L12.365 37.8769L12.3981 45.4375C12.3999 45.9256 12.7955 46.3187 13.2828 46.3187C13.2836 46.3187 13.2853 46.3187 13.2862 46.3187C13.7752 46.3169 14.1691 45.9187 14.1674 45.4306L14.1388 38.9077L28.404 47.1975L28.5092 76.7509L14.2356 68.4548L14.2019 57.5146C14.2002 57.0265 13.8045 56.6326 13.3173 56.6326C13.3164 56.6326 13.3156 56.6326 13.3147 56.6326C12.8258 56.6343 12.431 57.0317 12.4327 57.5198L12.4681 68.9671C12.469 69.2815 12.6366 69.5718 12.9078 69.729C24.4226 76.4282 44.7325 88.226 44.9311 88.3414C44.9318 88.3418 44.9327 88.3416 44.9335 88.342C44.933 88.3418 44.9339 88.3422 44.9335 88.342C45.07 88.4215 45.2239 88.4614 45.376 88.4614C45.5289 88.4614 45.6818 88.4217 45.8183 88.3431C76.7225 70.5054 50.0816 85.8823 80.0885 68.5628C80.3632 68.4038 80.5317 68.111 80.5308 67.7939L80.4263 36.7404L84.2351 34.5414C84.5124 34.3807 84.6818 34.0835 84.6774 33.763L84.5611 25.3475C84.5612 25.3433 84.5643 25.34 84.5643 25.3358C84.5643 25.0205 84.3967 24.7285 84.1237 24.5696L66.2703 14.1855C66.2893 13.9162 66.334 13.6417 66.3329 13.3771C66.3329 10.7067 65.2176 8.9962 63.8847 8.22319L63.8812 8.2206L57.8841 4.73483C56.2946 3.81912 54.2558 3.99708 52.1549 5.22984C51.9471 5.34884 51.7433 5.49235 51.5385 5.62971L48.1378 3.65757C47.8631 3.49862 47.5245 3.49948 47.2515 3.65671C-1.74853 31.9514 57.6161 -2.32881 8.7707 25.8784C8.76886 25.8794 8.76811 25.8817 8.76627 25.8828C8.76444 25.8839 8.76217 25.8833 8.76033 25.8844C8.58122 25.9891 8.31018 26.3794 8.44739 26.2022C8.36683 26.3392 8.32008 26.4955 8.32234 26.6602ZM29.7364 15.8143L31.8605 17.0486C30.5249 18.0706 29.2622 19.5137 28.373 20.8825L24.6737 18.7378L29.7364 15.8143ZM31.8692 33.5332C31.8954 33.7101 31.9247 33.943 31.959 34.0992L29.1013 32.443C24.8645 29.99 29.9258 17.7531 36.1281 17.0031C36.8012 16.9258 37.4095 17.0264 37.906 17.3138L40.7689 18.9777C35.7517 20.5119 31.0803 27.941 31.8692 33.5332ZM61.591 77.1961L56.9487 79.8756L57.0539 50.2657L61.6964 47.5851L61.591 77.1961ZM46.1742 56.5159C46.3536 56.4124 55.8883 50.9069 55.2811 51.2575L55.1761 80.8987L46.2564 86.0469C46.2267 75.3962 46.2051 67.6313 46.1742 56.5159ZM46.1682 54.4754C46.1644 54.2062 46.0741 47.6846 46.0794 48.0645L58.3959 40.9536L58.3107 47.4596L46.1682 54.4754ZM58.8767 38.6267L48.0443 32.3272L53.1142 29.4046L63.9539 35.6997C63.7744 35.8032 58.5476 38.8164 58.8767 38.6267ZM46.277 33.3461L57.1139 39.6478L45.1845 46.5335C45.0013 46.427 33.6129 39.808 34.3389 40.23C34.516 40.1279 46.4544 33.2438 46.277 33.3461ZM31.6948 40.7477L31.7793 47.1126L27.1472 44.4199L27.0625 38.0669C27.2418 38.1706 31.9961 40.9221 31.6948 40.7477ZM33.5626 48.1493L33.4778 41.7764C33.6678 41.8868 45.0308 48.4925 44.31 48.0734L44.3981 54.4461L33.5626 48.1493ZM60.0941 46.4292L60.1786 39.9251C60.358 39.8215 65.1122 37.0761 64.8107 37.2502L64.7261 43.7443C64.5469 43.8482 59.79 46.6055 60.0941 46.4292ZM65.7214 34.6796L54.8821 28.3856C68.4597 20.5386 68.4548 20.5414 71.0641 19.0335L81.9132 25.3329C60.5689 37.6538 67.4449 33.6847 65.7214 34.6796ZM69.3044 18.0068L63.8423 21.1641C64.7514 19.7375 65.631 17.7622 66.0167 16.0871L69.3044 18.0068ZM34.9938 37.8086L32.5757 39.2049L27.8006 36.4286L30.1191 35.084C32.5759 36.479 34.2633 37.5628 34.9938 37.8086ZM10.1132 28.1979L25.2789 37.0115L25.364 43.3848L10.2013 34.5733L10.1132 28.1979ZM30.1768 48.2607L34.8193 50.9413L34.9247 80.4796L30.2822 77.7814L30.1768 48.2607ZM36.6973 81.5099L36.5922 51.9558L44.4047 56.4956L44.487 86.0374L36.6973 81.5099ZM78.7598 67.2868L63.3641 76.1728L63.4691 46.5303L78.6605 37.7598L78.7598 67.2868ZM66.5087 42.723L66.5941 36.2205C71.0852 33.6277 79.3432 28.86 82.8123 26.8571L82.9013 33.2689C82.7238 33.3712 83.8285 32.7341 66.5087 42.723ZM60.4698 22.5977C59.5763 23.5197 58.4397 24.2803 58.2535 24.3923C58.1581 24.4404 38.9848 35.5027 39.0774 35.4493C37.8937 36.1321 36.7679 36.3916 35.8453 36.2008C35.8361 36.1988 35.8287 36.1935 35.8195 36.1916C34.4958 35.9036 33.8434 34.7025 33.6437 33.3882C32.6854 27.1366 39.9408 18.7452 43.8061 20.7642C44.4644 21.106 44.6552 21.3793 48.3719 26.5755C48.5496 26.8236 48.9103 26.9452 49.0915 26.9452C49.4647 26.9452 49.7918 26.7075 49.9209 26.3742C53.8968 16.0474 53.7856 16.388 54.3287 15.3826C55.5282 13.1741 57.2271 11.2809 59.0184 10.2412C60.1781 9.5838 61.8442 9.09022 62.9871 9.75313C62.9923 9.75658 62.9975 9.76004 63.0035 9.76263C63.9952 10.3138 64.5637 11.6312 64.5637 13.3806C64.5764 16.5555 62.6954 20.3006 60.4698 22.5977ZM56.9978 6.2665L59.8745 7.93897C56.9081 8.85237 54.402 11.6304 52.8856 14.3383C52.095 15.7449 52.0412 15.9484 48.854 24.2162C47.949 22.965 45.9349 20.0863 45.2153 19.5444C47.221 14.3789 48.576 9.31874 53.0421 6.76064C54.5789 5.85788 55.9853 5.68513 56.9978 6.2665ZM47.6929 5.44495L50.0297 6.80038C46.6383 9.90997 45.5116 13.8914 43.6715 18.6183C42.4084 17.8864 39.5121 16.1817 38.7069 15.7427C37.9095 15.3036 37.065 15.1606 36.1749 15.2238C36.1732 15.2239 36.1717 15.2238 36.17 15.2239C35.3339 15.2839 34.4491 15.5448 33.5562 15.9883L31.5027 14.7943L47.6929 5.44495ZM22.9066 19.7583L27.5078 22.4262C26.3137 24.7434 25.6286 27.009 25.8445 29.5367C26.0094 31.5821 26.8118 33.1623 28.2141 33.9772L28.357 34.0603L26.0395 35.4047L10.9771 26.6472L22.9066 19.7583Z" fill="black"/>
<path d="M61.3329 13.6395C61.1831 13.4914 61.0247 13.352 60.8387 13.2449C58.8993 12.1333 56.5535 14.0012 55.3768 15.906C54.538 17.2668 53.441 20.4656 52.009 24.1566C51.8734 24.5073 51.9736 24.9047 52.2587 25.1483L52.2648 25.1519L52.269 25.1587C52.5524 25.4017 52.9616 25.4396 53.2858 25.2512C58.077 22.4154 58.6624 22.2611 59.5894 21.4462C61.6896 19.5832 63.2609 15.5248 61.3329 13.6395ZM58.4572 20.0912C57.7836 20.6987 57.0958 20.9556 54.5741 22.4502C55.7491 19.4135 56.3534 17.6827 56.8822 16.833C59.2015 14.1059 59.7339 14.65 59.9645 14.7887C60.0647 14.8454 60.143 14.9273 60.2055 15.0226C61.0044 16.2543 59.7209 18.9633 58.4572 20.0912Z" fill="black"/>
<path d="M42.9444 23.7549C41.0618 22.1484 38.3123 24.0587 36.9966 26.3587C36.3296 27.5128 35.9668 28.7551 35.9737 29.8513C35.981 32.4904 38.103 33.7287 40.4149 32.3929L45.7926 29.2915C46.0086 29.1671 46.1624 28.9564 46.2151 28.7127C46.2678 28.4683 46.2151 28.2134 46.0699 28.0104C43.5543 24.4178 43.2342 23.99 42.9444 23.7549ZM39.5295 30.8612C38.4284 31.4985 37.7466 31.1508 37.743 29.8427C37.7378 29.0531 38.0168 28.1296 38.5308 27.2398C39.1295 26.1936 40.929 24.3572 41.7954 25.1008C42.3678 25.8834 43.3124 27.175 44.0666 28.2445L39.5295 30.8612Z" fill="black"/>
</svg>
