<svg width="93" height="92" viewBox="0 0 93 92" fill="none" xmlns="http://www.w3.org/2000/svg">
<path d="M35.7463 88.3421C35.7471 88.3425 35.7473 88.3436 35.7482 88.344C36.0201 88.5006 36.357 88.501 36.6311 88.3432L40.9781 85.8335L44.937 88.1165L44.939 88.1177C45.2202 88.2786 45.5545 88.2721 45.8211 88.1186C45.8207 88.1188 45.8214 88.1184 45.8211 88.1186C45.8221 88.1179 45.8243 88.1175 45.8254 88.1168L52.9023 84.0117C53.1727 83.8544 53.3403 83.5659 53.3429 83.2523L53.3747 78.6767L64.6246 72.1817L68.5749 74.4753C68.8465 74.6325 69.1816 74.6352 69.4577 74.4779C69.4584 74.4774 69.4587 74.4767 69.4594 74.4762C69.4604 74.4756 69.4618 74.4759 69.4629 74.4753L76.5399 70.371C76.8102 70.2137 76.9778 69.9252 76.9804 69.6116L77.0123 65.0299L80.2839 63.1411C80.5586 62.9822 80.7271 62.6885 80.7262 62.3714L80.7072 57.1847C80.7068 57.0074 80.5046 56.5614 80.2675 56.4236L80.2634 56.4212L74.6143 53.1374C74.1918 52.8912 73.6502 53.0346 73.4048 53.457C73.1586 53.8795 73.302 54.4211 73.7245 54.6665L78.0576 57.1855C76.3245 58.1802 36.3958 81.2382 36.1719 81.3679C31.3045 78.5393 18.7271 71.2303 14.9235 69.0199C71.0239 36.6289 53.2089 46.9148 56.8088 44.8363L60.8604 47.1913C61.282 47.4358 61.8245 47.295 62.0698 46.8717C62.316 46.4492 62.1726 45.9076 61.7502 45.6622L57.2554 43.0498C56.9816 42.8892 56.6421 42.8909 56.3682 43.0481L37.6666 53.8457L37.6509 33.3199L47.4452 27.665C47.7199 27.506 47.8883 27.2131 47.8875 26.8961L47.8305 6.89291C47.8299 6.71472 47.708 6.31516 47.3907 6.13096L47.3887 6.12978C47.3881 6.12945 47.3878 6.1287 47.3873 6.12837C47.3867 6.12805 47.386 6.12816 47.3854 6.12783L43.1378 3.65853C42.864 3.49871 42.5245 3.49871 42.2506 3.6568L17.3458 18.0361C17.0692 18.1962 16.9043 18.4908 16.9035 18.8015C16.9035 18.8022 16.9039 18.8026 16.9039 18.8033C16.9039 18.8039 16.9035 18.8043 16.9035 18.805L16.9596 38.809C16.9605 39.1235 17.1281 39.4138 17.4002 39.571L21.654 42.0425C21.655 42.0432 21.6555 42.0445 21.6566 42.0451C21.9256 42.2001 22.2634 42.2037 22.5403 42.0443L26.4169 39.8061L26.4325 60.3318L12.7162 68.251C12.4033 68.4323 12.2744 68.8095 12.2739 69.0164C12.2739 69.0172 12.2745 69.0178 12.2745 69.0186C12.2745 69.0193 12.2739 69.02 12.2739 69.0207L12.2921 74.2075C12.2929 74.5211 12.4605 74.8113 12.7318 74.9686L35.7439 88.3415C35.7446 88.3419 35.7455 88.3417 35.7463 88.3421ZM35.8985 54.8664L32.1113 57.0532C32.1108 56.4517 32.0959 37.3055 32.0953 36.5351C32.2724 36.4325 36.1263 34.1997 35.8821 34.3411L35.8985 54.8664ZM22.9783 39.7481L22.9273 21.7839C26.0122 20.0029 40.8886 11.4142 46.0655 8.42544L46.1165 26.389C38.6392 30.7061 27.6095 37.0742 22.9783 39.7481ZM42.6912 5.44504L45.1808 6.89291C42.5329 8.42163 29.4479 15.976 22.0423 20.2516L19.553 18.805L42.6912 5.44504ZM18.677 20.342L21.1578 21.7838L21.209 39.7386L18.7271 38.2968L18.677 20.342ZM28.1849 38.7853C28.3619 38.6835 30.5034 37.4521 30.3265 37.5538C30.3271 38.3815 30.3414 56.7752 30.3425 58.0738C30.1655 58.1761 28.0243 59.4128 28.2013 59.3106L28.1849 38.7853ZM44.5214 83.7879C44.5201 83.9661 44.5059 86.004 44.5071 85.8258L42.7479 84.8117L44.5214 83.7879ZM51.5771 82.7349L46.2767 85.8092C46.278 85.6176 46.2991 82.5707 46.2978 82.7623L51.5986 79.702L51.5771 82.7349ZM68.159 70.1412C68.1578 70.3193 68.1434 72.3572 68.1446 72.1791L66.3936 71.1632C66.5709 71.0605 68.3364 70.0385 68.159 70.1412ZM75.2147 69.0942L69.9142 72.1676C69.9155 71.986 69.9368 68.924 69.9355 69.1156L75.2363 66.0553L75.2147 69.0942ZM37.0682 86.0478C37.0675 85.8458 37.0564 82.7085 37.0571 82.9001C38.174 82.2552 79.1524 58.5966 78.9432 58.7175L78.9553 61.8652C20.8337 95.4203 41.9155 83.2491 37.0682 86.0478ZM14.0483 70.5576C18.4883 73.1377 30.2214 79.956 35.2878 82.9002C35.2884 83.0918 35.2994 86.2182 35.2988 86.0365L14.0596 73.6943L14.0483 70.5576Z" fill="black"/>
<path d="M65.9426 48.0992C65.5227 47.853 64.9785 47.9946 64.734 48.4197C64.4878 48.8421 64.632 49.3829 65.0545 49.6282L69.3618 52.1309C69.779 52.3745 70.3231 52.2372 70.5704 51.8104C70.8166 51.388 70.6723 50.8472 70.2499 50.6018L65.9426 48.0992Z" fill="black"/>
<path d="M42.5324 14.5633C42.2585 14.4052 41.9208 14.4078 41.6486 14.5642L26.4858 23.3196C26.2111 23.4786 26.0426 23.7714 26.0435 24.0885L26.0676 32.8448C26.0695 33.5225 26.8045 33.9483 27.3946 33.6084L42.5592 24.8539C42.8339 24.6949 43.0023 24.402 43.0015 24.085L42.9756 15.3278C42.9747 15.0125 42.8054 14.7214 42.5324 14.5633ZM27.8326 31.3122L27.8144 24.5956L41.2106 16.8604L41.2305 23.5779L27.8326 31.3122Z" fill="black"/>
</svg>
