<svg width="93" height="92" viewBox="0 0 93 92" fill="none" xmlns="http://www.w3.org/2000/svg">
<path d="M88.9616 22.5209C88.9608 22.2047 88.7923 21.9136 88.5193 21.7555L74.2722 13.5296C73.8498 13.2834 73.3081 13.4285 73.0636 13.8535C72.8191 14.2768 72.9643 14.8176 73.3876 15.0621L86.3121 22.5243L76.0493 28.4897L47.7762 12.1664L58.0407 6.20126L63.9246 9.59891C64.3445 9.84166 64.8878 9.69653 65.1332 9.27496C65.3777 8.85165 65.2325 8.31086 64.8092 8.06639L58.4813 4.41303C58.2066 4.25494 57.8688 4.25321 57.5941 4.41476L46.015 11.1436L34.436 4.41389C34.1535 4.24975 33.8036 4.25407 33.5246 4.42685L4.46015 22.4518C4.19667 22.615 4.03771 22.9053 4.04203 23.2163C4.04635 23.5264 4.21395 23.8124 4.48175 23.9679L15.193 30.1925L4.47829 36.419C4.20617 36.5771 4.03771 36.8691 4.03858 37.1844C4.03944 37.5006 4.2079 37.7917 4.48089 37.9498L16.0406 44.6227L15.9722 66.7568C15.9714 67.0739 16.1398 67.3667 16.4146 67.5257L45.4825 84.2979C45.6198 84.3766 45.7719 84.4163 45.9248 84.4163C46.0768 84.4163 46.2297 84.3766 46.3662 84.2979C46.3658 84.2982 46.3666 84.2977 46.3662 84.2979C46.367 84.2975 46.3689 84.2966 46.3697 84.2962L56.4381 78.4448C57.0792 80.7579 58.3165 82.534 60.0985 83.574L65.4986 86.7185C65.5043 86.7219 65.511 86.7204 65.5168 86.7235C65.5213 86.7261 65.5252 86.7298 65.5297 86.7324C68.6336 88.5169 72.3552 87.6301 75.4713 85.8313C82.7486 81.6285 88.6507 71.3933 88.6273 63.0153C88.6152 58.7892 87.1268 55.6101 84.4366 54.0621C84.4294 54.0579 84.4214 54.0556 84.4142 54.0515L79.059 50.9331C78.379 50.5368 77.6466 50.2604 76.8728 50.1018L76.9021 44.019L88.5185 37.2673C88.7906 37.1092 88.9582 36.8181 88.9582 36.5028C88.9582 36.1875 88.7906 35.8964 88.5185 35.7383L77.8075 29.5139L88.5219 23.2863C88.7941 23.1282 88.9625 22.8362 88.9616 22.5209ZM45.1265 13.7633V45.428L18.6835 30.1617L45.1265 13.7633ZM46.8958 13.7014L74.2838 29.5141L46.8958 45.4323V13.7014ZM34.0058 6.2099L44.2972 12.1912L16.9395 29.1613L6.64491 23.1783L34.0058 6.2099ZM16.9468 31.2193C25.8938 36.382 38.5093 43.6617 44.2408 46.9691L33.9816 52.9278C-3.42153 31.3482 9.47886 38.7911 6.6881 37.1809L16.9468 31.2193ZM17.8071 45.6425L33.5419 54.7255C33.6784 54.8041 33.8313 54.8439 33.9842 54.8439C34.138 54.8439 34.2909 54.8041 34.4291 54.7238L45.1254 48.5075C45.1186 51.2668 45.0632 73.9806 45.0436 82.0017L17.7432 66.2497L17.8071 45.6425ZM86.8581 63.0205C86.8797 70.8335 81.375 80.3794 74.5866 84.2988C71.4516 86.1078 68.5481 86.4274 66.4126 85.199C63.9103 83.7577 63.1131 80.6271 63.1048 77.7506C63.0833 69.9287 68.6572 60.378 75.3875 56.4922C77.8909 55.0442 81.0594 54.1473 83.5693 55.6067C83.5702 55.6072 83.5712 55.6071 83.5721 55.6077C85.6805 56.8321 86.8477 59.4631 86.8581 63.0205ZM79.3933 53.1749C78.0674 53.3573 76.2196 53.9692 74.5029 54.9588C67.4047 59.058 61.3116 69.2252 61.3304 77.7549C61.3384 79.6797 61.7194 81.5302 62.2133 82.7576C61.6478 82.2594 57.7081 81.2899 57.7081 74.613C57.6908 66.8035 63.1981 57.2671 69.9873 53.3528C72.4496 51.9284 75.712 51.0322 78.1692 52.4622L79.3933 53.1749ZM75.1274 45.0526L75.1041 49.9509C73.4932 49.9776 71.3002 50.5439 69.1019 51.816C61.8211 56.0196 55.9121 66.2445 55.9303 74.6104C55.933 75.2388 55.9971 76.1002 56.0667 76.6146L46.8132 81.992L46.8207 78.8757L46.8975 48.5077L57.5941 54.7238C57.7323 54.8041 57.8852 54.8439 58.039 54.8439C58.1928 54.8439 58.3465 54.8041 58.4839 54.7238C60.1868 53.7343 52.319 58.306 75.1274 45.0526ZM58.0442 52.9269L47.7796 46.9651C56.701 41.7805 71.0494 33.4419 76.0478 30.5372L86.313 36.5028C83.4213 38.1829 96.7859 30.4181 58.0442 52.9269Z" fill="black"/>
<path d="M67.8586 9.82709C67.4353 9.58175 66.8936 9.72688 66.65 10.151C66.4055 10.5743 66.5507 11.1151 66.974 11.3596L70.2593 13.2567C70.6811 13.5004 71.2232 13.3564 71.4679 12.9327C71.7124 12.5094 71.5672 11.9687 71.1439 11.7242L67.8586 9.82709Z" fill="black"/>
<path d="M79.7974 68.6358L78.1941 69.561L78.169 60.7175C78.1681 60.4022 77.9988 60.111 77.7258 59.9529C77.452 59.7957 77.1142 59.7966 76.8421 59.9538L72.1771 62.6474C71.9024 62.8063 71.7339 63.0992 71.7348 63.4162L71.7625 73.2749L69.2805 74.7072C69.0335 74.8497 68.8702 75.1037 68.8425 75.3879C68.8149 75.6721 68.9263 75.952 69.1414 76.1404L74.4154 80.7405C74.8554 81.1243 75.5365 80.9816 75.7907 80.4641L81.0336 69.7926C81.2056 69.4427 81.1287 69.022 80.8436 68.7559C80.5594 68.4907 80.1343 68.444 79.7974 68.6358ZM74.7109 78.6499L71.2372 75.6203L73.0911 74.5508C73.3658 74.3919 73.5343 74.099 73.5334 73.782L73.5058 63.9233L76.4041 62.25L76.4291 71.0936C76.431 71.7657 77.1601 72.1997 77.7561 71.8572L78.1638 71.6223L74.7109 78.6499Z" fill="black"/>
</svg>
