<svg width="93" height="92" viewBox="0 0 93 92" fill="none" xmlns="http://www.w3.org/2000/svg">
<path d="M24.4646 43.805C24.4663 44.2923 24.862 44.6871 25.3492 44.6871C25.82 44.6249 26.2355 44.2897 26.2338 43.7998L26.1949 30.0073L33.18 34.0666L33.3272 86.0342L26.3418 81.9748L26.2848 59.8707C26.2839 59.3834 25.8874 58.9886 25.4002 58.9886C25.3993 58.9886 25.3984 58.9886 25.3976 58.9886C24.9095 58.9895 24.5147 59.3869 24.5156 59.8758L24.5743 82.4871C24.5752 82.8015 24.7428 83.0918 25.014 83.249L33.7712 88.3382C33.7709 88.3379 33.7715 88.3384 33.7712 88.3382C33.7722 88.3387 33.7737 88.3402 33.7746 88.3408C34.0437 88.4957 34.3815 88.4994 34.6584 88.3399L68.1364 69.0114C68.4111 68.8524 68.5796 68.5596 68.5787 68.2425C68.5782 68.0648 68.4104 14.0185 68.4168 14.1989C68.4062 13.9002 68.2453 13.6145 67.9861 13.4638L59.2289 8.37463C59.1641 8.33662 59.095 8.30811 59.0233 8.28738L42.2545 3.56799C41.9131 3.47261 41.4734 3.64834 41.2887 3.91527L24.5795 27.9632C24.5335 28.08 24.4206 28.3046 24.4214 28.4703L24.4646 43.805ZM42.2761 5.59466C42.4531 5.69754 49.9758 10.0691 49.4987 9.79183L33.8023 32.3819C33.6253 32.279 26.1026 27.9075 26.5797 28.1847L42.2761 5.59466ZM35.0964 86.0437L34.9487 33.8332L51.1392 10.5313L66.6583 14.899L66.8078 67.7354L35.0964 86.0437ZM61.0611 11.4855C60.8819 11.435 50.6151 8.54534 51.1197 8.68736C50.9425 8.58439 48.3184 7.05975 48.4956 7.16271L58.4368 9.96072L61.0611 11.4855Z" fill="black"/>
<path d="M26.265 54.5629L26.2478 48.539C26.246 48.0509 25.8504 47.657 25.3631 47.657H25.3605C24.8725 47.6587 24.4768 48.0552 24.4785 48.5442L24.4958 54.568C24.4975 55.0553 24.8932 55.4501 25.3804 55.4501C25.8201 55.3827 26.2668 55.0527 26.265 54.5629Z" fill="black"/>
<path d="M47.9287 31.5172C48.9862 32.1269 50.2201 31.8765 51.2745 31.2675C53.455 30.0088 55.1577 27.0475 55.1508 24.5249C55.1473 23.1531 54.6126 22.0603 53.6856 21.5273C52.7475 20.9865 51.5683 21.0711 50.3675 21.7657C48.1741 23.0313 46.4619 25.9987 46.4688 28.5212C46.4722 29.9138 46.9906 30.9781 47.9287 31.5172ZM51.2521 23.2982C51.706 23.0355 52.3556 22.8025 52.8036 23.0606C53.169 23.2706 53.3798 23.8062 53.3816 24.5301C53.3867 26.4125 52.0166 28.796 50.3899 29.735C49.7533 30.1039 49.177 30.1972 48.8108 29.9838C48.4488 29.7756 48.2397 29.2409 48.238 28.5161C48.2328 26.6337 49.6133 24.2442 51.2521 23.2982Z" fill="black"/>
<path d="M63.2012 36.8638C63.2003 36.5476 63.031 36.2556 62.7572 36.0984C62.4825 35.9403 62.1455 35.9421 61.8726 36.1001L38.9425 49.4039C38.6695 49.5629 38.5011 49.8549 38.502 50.1711L38.5529 78.4321C38.5548 79.113 39.2924 79.535 39.8798 79.1966L62.8194 65.9525C63.0941 65.7944 63.2626 65.5007 63.2617 65.1845L63.2012 36.8638ZM40.3196 76.8996L40.2721 50.6782L61.4354 38.3998L61.4916 64.6765L40.3196 76.8996Z" fill="black"/>
</svg>
