<svg width="93" height="92" viewBox="0 0 93 92" fill="none" xmlns="http://www.w3.org/2000/svg">
<path d="M6.64067 42.726C7.12963 42.7242 7.52442 42.3268 7.52269 41.8388L7.50801 37.2058C7.50628 36.7159 7.08816 36.4032 6.6208 36.3237C6.13184 36.3255 5.73705 36.7228 5.73878 37.2109L5.75346 41.8439C5.75519 42.332 6.15085 42.726 6.63808 42.726H6.64067Z" fill="black"/>
<path d="M35.5332 71.7913C36.1185 72.1315 36.8646 71.7121 36.8627 71.025L36.8281 55.9002C36.8273 55.5857 36.6597 55.2954 36.3884 55.1373L12.1919 41.0768C11.6048 40.7341 10.8614 41.1601 10.8633 41.8431L10.8978 56.9671C10.8987 57.2815 11.0663 57.5718 11.3376 57.7299L35.5332 71.7913ZM35.0598 56.4116L35.09 69.4873L12.6662 56.4556L12.636 43.3808L35.0598 56.4116Z" fill="black"/>
<path d="M14.9193 26.0746C19.975 29.0149 39.4966 40.368 40.5178 40.9619C40.7905 41.1214 41.13 41.122 41.405 40.9636L68.7875 25.1589C69.3758 24.8212 69.3784 23.9683 68.7909 23.6281C68.613 23.5247 42.9569 8.63668 43.1346 8.72938C42.8515 8.58171 42.6018 8.58812 42.3314 8.72797C42.1368 8.82865 15.0988 24.4275 14.9218 24.5438C14.335 24.8836 14.3312 25.7341 14.9193 26.0746ZM23.0411 28.7515L42.7311 17.3736L60.6687 27.7972L40.9644 39.1754L23.0411 28.7515ZM62.4384 26.78L43.6166 15.8431V11.0425L66.5803 24.3892L62.4384 26.78ZM41.8473 11.0372V15.841L21.2784 27.7264L17.1282 25.3127L41.8473 11.0372Z" fill="black"/>
<path d="M72.6312 50.5431L61.6184 57.8637C61.3714 58.0287 61.2228 58.306 61.2236 58.6032L61.2556 68.8661C61.2575 69.5477 61.996 69.9676 62.5825 69.6298L73.5987 63.2699C73.8735 63.1109 74.0419 62.8181 74.0411 62.501L74.0056 51.2774C74.0038 50.5798 73.2263 50.1521 72.6312 50.5431ZM63.0196 67.3344L62.9946 59.074L72.2416 52.9266L72.2701 61.9939L63.0196 67.3344Z" fill="black"/>
<path d="M50.2635 70.7149C49.7798 70.7097 49.3772 71.1123 49.3789 71.6021L49.385 73.7488C49.3867 74.2361 49.7823 74.6309 50.2696 74.6309C50.7577 74.6214 51.1559 74.2335 51.1542 73.7437L51.1481 71.5969C51.1464 71.1097 50.7508 70.7149 50.2635 70.7149Z" fill="black"/>
<path d="M86.8575 29.049L77.5781 23.6562C77.5721 23.6526 77.5699 23.6454 77.5638 23.642L43.1753 3.65865C42.9014 3.49884 42.5628 3.49884 42.2889 3.65693L6.14494 24.5249C5.86841 24.685 5.70345 24.9796 5.70264 25.2903C5.70264 25.2909 5.70307 25.2913 5.70307 25.292C5.70307 25.2926 5.70264 25.2931 5.70264 25.2937L5.7251 32.7603C5.72683 33.2483 6.12248 33.6423 6.60971 33.6423C6.61058 33.6423 6.61144 33.6423 6.6123 33.6423C7.10126 33.6406 7.49606 33.2432 7.49433 32.7551L7.47619 26.8314L40.0917 45.7839C40.1189 55.5537 40.1833 78.7601 40.2035 86.0376L7.58849 67.0832L7.53839 47.1145C7.53752 46.6264 7.0883 46.1651 6.65118 46.2325C6.16309 46.2334 5.76829 46.6307 5.76916 47.1197L5.82012 67.5954C5.82099 67.909 5.98858 68.2002 6.25984 68.3574L40.6475 88.3416C40.6472 88.3414 40.6479 88.3418 40.6475 88.3416C40.6485 88.3421 40.65 88.3436 40.651 88.3442C40.92 88.4991 41.2579 88.5028 41.5347 88.3433C44.6958 86.5205 69.766 72.0441 77.6787 67.4754C77.9534 67.3164 78.1219 67.0236 78.121 66.7065L78.0507 41.4567C79.4087 42.4111 80.9777 42.1077 82.3558 41.3127C85.1357 39.7067 87.3058 35.9471 87.2972 32.7499L87.2844 29.8616C87.2854 29.8449 87.2972 29.8313 87.2972 29.8144C87.298 29.4991 87.1296 29.2071 86.8575 29.049ZM60.6476 34.9545L60.6333 34.9462L67.9962 30.6951L75.5218 35.0685L68.1587 39.3194L60.6476 34.9545ZM66.3923 40.3392L59.0295 44.5904L51.5042 40.217L58.8671 35.9659C59.3605 36.2526 66.6177 40.4702 66.3923 40.3392ZM49.738 41.2367C49.9337 41.3504 57.6943 45.8607 57.2631 45.6101L50.2689 49.648L42.7433 45.2751L49.738 41.2367ZM41.8639 46.8097L49.3854 51.1801L49.3961 53.6178C49.3968 53.9207 49.4407 54.1937 49.48 54.4696H41.8852L41.8639 46.8097ZM51.1653 53.6118L51.1549 51.18L51.3033 51.0943L58.4288 46.9897L58.4349 48.3983C58.4426 50.932 56.5853 54.1483 54.3789 55.4216C52.4732 56.5206 51.1708 55.7967 51.1653 53.6118ZM60.1942 45.972L67.4555 41.7803L67.4616 43.1873C67.4693 45.7202 65.612 48.9365 63.4056 50.2098C61.518 51.302 60.2114 50.582 60.2041 48.3922L60.1942 45.972ZM69.2209 40.7605L76.4952 36.5604L76.5012 37.9686C76.5081 40.5015 74.6499 43.7177 72.4445 44.9911C70.5441 46.0888 69.2381 45.3714 69.2308 43.1813L69.2209 40.7605ZM77.2882 34.0488L69.7624 29.6754L77.1125 25.4318L84.6381 29.8055L77.2882 34.0488ZM42.7295 5.44516L75.3488 24.4009C74.8716 24.6764 39.2552 45.2439 40.9625 44.2442L8.35216 25.2937L42.7295 5.44516ZM47.467 65.6759L56.416 60.5082L56.4739 77.6749L47.5249 82.8416L47.467 65.6759ZM58.2396 76.6554L58.18 58.9765C58.1782 58.2999 57.4449 57.8728 56.8531 58.2128L46.1384 64.3999C45.8637 64.5589 45.6952 64.8518 45.6961 65.1688L45.7591 83.8611L41.9728 86.0471L41.89 56.2388H50.119C51.3217 58.0654 53.391 58.0344 55.2636 56.9541C57.1505 55.8647 58.7371 53.7788 59.5712 51.5538C60.889 52.8664 62.7007 52.661 64.2903 51.7423C66.1775 50.6527 67.7644 48.5666 68.5983 46.3413C69.9116 47.6472 71.7183 47.4538 73.3291 46.5236C74.453 45.8745 75.4666 44.8647 76.2876 43.6906L76.3501 66.1994L58.2396 76.6554ZM81.4712 39.7802C79.5773 40.8734 78.2759 40.1448 78.2705 37.9626L78.2605 35.5417L85.5219 31.3494L85.5279 32.7568C85.5349 35.2897 83.6766 38.5059 81.4712 39.7802Z" fill="black"/>
</svg>
