<svg width="93" height="92" viewBox="0 0 93 92" fill="none" xmlns="http://www.w3.org/2000/svg">
<path d="M23.6905 57.5493C24.1795 57.5476 24.5752 57.151 24.5734 56.6621L24.551 48.5278C24.5492 48.0405 24.1536 47.6458 23.6664 47.6458C23.1774 47.6475 22.78 48.044 22.7817 48.533L22.8042 56.6673C22.8059 57.1545 23.2033 57.5493 23.6905 57.5493Z" fill="black"/>
<path d="M57.7744 73.9241L63.6332 66.9171L69.3642 67.1374C69.8101 67.1817 70.2834 66.7878 70.2834 66.2511L70.1227 9.47761C70.1217 9.30011 70.0151 8.90881 69.6821 8.71567L69.6801 8.71448C69.6795 8.71416 69.6793 8.7134 69.6787 8.71308C69.6781 8.71275 69.6774 8.71286 69.6768 8.71254L60.9828 3.6611C60.7115 3.50128 60.3712 3.50128 60.0965 3.65937L23.1586 24.9852C22.8456 25.1664 22.7163 25.5727 22.7163 25.7506C22.7163 25.7512 22.7167 25.7516 22.7167 25.7523C22.7167 25.7529 22.7163 25.7534 22.7163 25.754L22.7647 42.2861C22.7664 42.7742 23.1621 43.1682 23.6493 43.1682C24.1383 43.1664 24.5356 42.7699 24.5339 42.281L24.4907 27.291C24.6698 27.395 31.776 31.5241 31.417 31.3155C31.4534 44.2472 31.5341 72.9013 31.5711 86.0392L24.6462 82.0143L24.5961 64.316C24.5944 63.8288 24.1987 63.434 23.7115 63.434C23.2225 63.4357 22.8252 63.8322 22.8269 64.3212L22.8787 82.5266C22.8804 82.8411 23.0463 83.1313 23.3193 83.2886L32.0169 88.344C32.3535 88.5421 32.8516 88.489 33.1399 88.147L39.016 81.1289L44.7488 81.3492C45.0217 81.3682 45.2844 81.2429 45.4623 81.033L51.3281 74.02L57.0608 74.2403C57.3252 74.2515 57.5964 74.1349 57.7744 73.9241ZM60.5371 5.4476L67.4723 9.47761C24.811 34.1083 33.5146 29.0832 32.3014 29.7837L25.3667 25.754L60.5371 5.4476ZM50.9635 72.2352C50.6767 72.2041 50.4262 72.3406 50.25 72.5514L44.3842 79.5644L38.6515 79.3441C38.3733 79.3208 38.1141 79.4495 37.9379 79.6603L33.3386 85.1536C33.2853 66.2961 33.2463 52.4559 33.1866 31.3159C41.4516 26.5443 60.0258 15.8209 68.3587 11.0101L68.5107 65.3345L63.2669 65.1324C62.9801 65.1064 62.7296 65.2369 62.5534 65.4485L56.6945 72.4555L50.9635 72.2352Z" fill="black"/>
<path d="M39.3529 35.5359L63.1028 21.8243C63.5261 21.5798 63.6712 21.0391 63.4259 20.6157C63.1823 20.1916 62.6398 20.0473 62.2182 20.2918L38.4683 34.0033C38.045 34.2478 37.8999 34.7886 38.1452 35.2119C38.3861 35.6333 38.9272 35.7803 39.3529 35.5359Z" fill="black"/>
<path d="M62.218 29.8704L59.0147 31.72C58.5914 31.9645 58.4463 32.5052 58.6916 32.9286C58.9324 33.35 59.4736 33.4969 59.8993 33.2525L63.1026 31.4029C63.5259 31.1585 63.671 30.6177 63.4257 30.1944C63.1821 29.7702 62.6396 29.6259 62.218 29.8704Z" fill="black"/>
<path d="M39.3529 45.1146L56.33 35.313C56.7533 35.0685 56.8984 34.5277 56.653 34.1044C56.4112 33.6785 55.8686 33.536 55.4453 33.7805L38.4683 43.5821C38.045 43.8265 37.8999 44.3673 38.1452 44.7906C38.3861 45.2121 38.9272 45.359 39.3529 45.1146Z" fill="black"/>
<path d="M62.218 39.4491L46.9566 48.2598C46.5333 48.5043 46.3882 49.0451 46.6335 49.4684C46.8743 49.8898 47.4155 50.0367 47.8412 49.7923L63.1026 40.9816C63.5259 40.7371 63.671 40.1963 63.4257 39.773C63.182 39.348 62.6395 39.2055 62.218 39.4491Z" fill="black"/>
<path d="M39.3529 54.6932L44.3928 51.7837C44.8161 51.5392 44.9613 50.9984 44.7159 50.5751C44.4723 50.1492 43.9315 50.0067 43.5082 50.2512L38.4683 53.1607C38.045 53.4052 37.8999 53.946 38.1452 54.3693C38.3861 54.7907 38.9272 54.9377 39.3529 54.6932Z" fill="black"/>
<path d="M62.2183 49.0279L58.7212 51.0477C58.298 51.2922 58.1528 51.833 58.3982 52.2563C58.639 52.6777 59.1801 52.8246 59.6058 52.5802L63.1029 50.5605C63.5262 50.316 63.6713 49.7752 63.426 49.3519C63.1823 48.9269 62.6398 48.7843 62.2183 49.0279Z" fill="black"/>
<path d="M39.3529 64.2718L56.2332 54.5264C56.6565 54.2819 56.8016 53.7411 56.5563 53.3178C56.3127 52.8928 55.7684 52.7511 55.3486 52.9939L38.4683 62.7393C38.045 62.9838 37.8999 63.5246 38.1452 63.9479C38.3861 64.3693 38.9272 64.5162 39.3529 64.2718Z" fill="black"/>
<path d="M63.4259 58.9305C63.1823 58.5055 62.6398 58.3629 62.2182 58.6065L38.4683 72.3181C38.045 72.5626 37.8999 73.1033 38.1452 73.5266C38.3861 73.9481 38.9272 74.095 39.3529 73.8506L63.1028 60.1391C63.5261 59.8946 63.6712 59.3538 63.4259 58.9305Z" fill="black"/>
</svg>
