<svg width="93" height="92" viewBox="0 0 93 92" fill="none" xmlns="http://www.w3.org/2000/svg">
<path d="M10.183 78.2102C10.183 79.6822 10.7514 80.8554 11.7414 81.429C12.9143 82.1107 7.49382 78.9576 23.2121 88.0957C24.356 88.7422 25.669 88.4709 26.798 87.8192L50.324 74.2361L59.9046 79.8118C60.2902 80.0368 60.8563 79.9172 61.1064 79.4912C61.2103 79.3141 70.3996 62.7997 70.4414 62.6223L78.65 57.883C81.0559 56.493 82.9348 53.2431 82.927 50.4847L82.8234 13.7905C82.8191 12.2891 82.2627 11.1436 81.2563 10.5639C81.2448 10.5572 81.231 10.5562 81.2194 10.5497L69.8323 3.92236C68.8207 3.32542 67.5301 3.42044 66.198 4.1893L58.3712 8.7074C57.9479 8.95188 57.8028 9.49267 58.0472 9.91598C58.2917 10.3401 58.8334 10.4835 59.2558 10.2399L67.0826 5.72183C67.8264 5.29334 68.5045 5.19054 68.9382 5.44884L77.9329 10.684C77.4798 10.9146 77.5134 10.9212 26.2283 40.5203C26.0492 40.4162 15.9088 34.5209 16.5481 34.8925L46.606 17.5415C47.0293 17.297 47.1744 16.7562 46.9299 16.3329C46.6846 15.9087 46.1429 15.7627 45.7214 16.0089L14.3417 34.1228L14.3372 34.1274C11.9378 35.5149 10.0655 38.7595 10.0733 41.5177L10.0741 41.5209L10.183 78.2102ZM12.6295 79.8991C12.1993 79.6494 11.9522 79.0343 11.9522 78.2076L11.8477 43.0547C12.0267 43.1589 22.1546 49.0502 21.5154 48.6784L21.6225 84.8681C21.6225 84.9588 21.6242 85.0487 21.6286 85.1368L12.6295 79.8991ZM59.9653 68.6695L59.9953 68.6522L59.5397 77.552L52.0898 73.2166L59.9653 68.6695ZM77.7654 56.3505L69.3442 61.2124C69.2051 61.2928 69.0902 61.4103 69.0125 61.5502L61.4316 75.2569L61.8526 67.1153C61.8691 66.7914 61.7075 66.4847 61.4311 66.3154C61.1563 66.1461 60.8091 66.1426 60.5274 66.3033L60.5229 66.3059L60.5197 66.3068C52.4735 70.9457 46.8467 74.2007 25.9134 86.2866C25.1817 86.7082 24.5139 86.8067 24.0768 86.5544C23.644 86.3056 23.3943 85.6871 23.3917 84.8569L23.2881 48.1635C23.282 46.0553 24.8258 43.3794 26.6614 42.3145L26.6659 42.3133C81.7262 10.544 78.5826 12.3066 79.0289 12.1295C79.4559 11.9639 79.9667 11.8714 80.3639 12.099L80.3777 12.1068C80.3811 12.1087 80.385 12.1085 80.3883 12.1103C80.8084 12.3644 81.0516 12.9746 81.0542 13.7957L81.1578 50.4899C81.1639 52.6013 79.6106 55.2853 77.7654 56.3505ZM14.8073 35.9292C14.9864 36.0333 25.2527 42.0052 24.6135 41.6334C23.1274 42.9603 22.0401 44.9627 21.6735 46.7191C21.4944 46.615 11.2293 40.645 11.8685 41.0167C12.06 39.1657 13.2949 37.0282 14.8073 35.9292Z" fill="black"/>
<path d="M54.3345 11.0374L50.2777 13.3794C49.8544 13.6239 49.7092 14.1647 49.9537 14.588C50.2006 15.0141 50.7431 15.1541 51.1623 14.9119L55.2191 12.5699C55.6424 12.3254 55.7875 11.7847 55.543 11.3614C55.2968 10.9372 54.7552 10.7929 54.3345 11.0374Z" fill="black"/>
<path d="M73.8665 25.8381L62.1229 32.6178C61.6996 32.8623 61.5545 33.4031 61.7989 33.8264C62.044 34.2508 62.5865 34.3936 63.0075 34.1504L74.7511 27.3706C75.1744 27.1261 75.3196 26.5853 75.0751 26.162C74.8306 25.7379 74.2872 25.5927 73.8665 25.8381Z" fill="black"/>
<path d="M56.4933 37.9118L59.5575 36.1426C59.9808 35.8981 60.126 35.3573 59.8815 34.934C59.637 34.5098 59.0936 34.3647 58.6729 34.61L55.6087 36.3793C55.1854 36.6238 55.0403 37.1645 55.2848 37.5879C55.5299 38.0123 56.0723 38.155 56.4933 37.9118Z" fill="black"/>
<path d="M52.9892 38.9138C52.743 38.4888 52.2014 38.3437 51.7807 38.5899L29.6947 51.3408C29.2714 51.5852 29.1262 52.126 29.3707 52.5493C29.6158 52.9738 30.1583 53.1165 30.5793 52.8733L52.6653 40.1224C53.0886 39.8779 53.2337 39.3371 52.9892 38.9138Z" fill="black"/>
<path d="M69.6502 39.1074L47.0916 52.1313C46.6683 52.3758 46.5232 52.9166 46.7677 53.3399C47.0128 53.7643 47.5552 53.907 47.9763 53.6638L70.5348 40.6399C70.9581 40.3955 71.1032 39.8547 70.8588 39.4314C70.6134 39.0063 70.0718 38.8629 69.6502 39.1074Z" fill="black"/>
<path d="M44.0776 54.8932C43.8323 54.4691 43.2889 54.3239 42.8691 54.5693L33.9115 59.7413C33.4882 59.9858 33.343 60.5266 33.5875 60.9499C33.8326 61.3743 34.3751 61.5171 34.7961 61.2739L43.7537 56.1018C44.177 55.8573 44.3221 55.3165 44.0776 54.8932Z" fill="black"/>
<path d="M62.5611 54.0352L41.0003 66.4838C40.577 66.7283 40.4319 67.2691 40.6764 67.6924C40.9215 68.1168 41.4639 68.2595 41.8849 68.0163L63.4457 55.5678C63.869 55.3233 64.0141 54.7825 63.7697 54.3592C63.5243 53.935 62.9809 53.789 62.5611 54.0352Z" fill="black"/>
</svg>
