<svg width="93" height="92" viewBox="0 0 93 92" fill="none" xmlns="http://www.w3.org/2000/svg">
<path d="M35.6938 39.3093C36.0394 38.9637 36.0394 38.4031 35.6938 38.0584C35.3483 37.7128 34.7885 37.7128 34.4429 38.0584C29.0932 43.4097 29.9608 49.8241 29.8678 50.3592C29.8678 61.9694 29.8678 68.5516 29.8678 78.4812C29.8886 81.2171 31.7459 83.8416 34.963 85.6799C41.375 89.3836 51.7676 89.3803 58.1219 85.6799C61.3719 83.8018 63.1497 81.2404 63.129 78.4743C63.1295 75.6082 63.1271 88.8568 63.1342 50.4439C63.1342 46.0665 62.3362 41.7989 58.5556 38.061C56.4702 35.9583 55.1295 33.3122 54.6785 30.407L53.3762 22.1835C53.8714 21.537 54.1558 20.8236 54.1567 20.0663C54.1647 15.6831 54.1786 7.90013 54.1792 8.35985C54.1775 6.97937 53.3136 5.72069 51.7448 4.81448C48.8007 3.11523 44.191 3.12041 41.2538 4.8283C39.7227 5.7181 38.879 6.94946 38.8549 8.29917C38.8403 13.6559 38.8222 20.2585 38.8228 20.0421C38.8219 20.818 39.1188 21.5471 39.6338 22.2063L38.4047 29.9465C38.3287 30.4295 38.657 30.883 39.1407 30.959C39.6132 31.0378 40.0758 30.7126 40.1532 30.2247L41.2105 23.5666C44.1701 25.3103 48.8344 25.3284 51.8016 23.5559L52.93 30.6808C53.4397 33.955 54.9498 36.9371 57.3047 39.3136C61.1435 43.1005 61.0948 46.7925 61.3598 50.4934C61.3234 52.5677 59.8655 54.5466 57.2373 56.0764C51.3629 59.487 41.7652 59.487 35.8424 56.0747C33.1437 54.5179 31.6491 52.4956 31.6371 50.386V50.3592C31.7843 49.4976 30.646 44.3605 35.6938 39.3093ZM42.1419 6.3574C44.504 4.98494 48.4951 4.98268 50.8602 6.34701C52.9397 7.54867 52.9047 9.1942 50.8688 10.3796C48.519 11.7428 44.5383 11.7445 42.1712 10.3779C40.1212 9.19395 40.0861 7.55252 42.1419 6.3574ZM50.8463 22.074C48.4966 23.4372 44.5158 23.4389 42.1488 22.0723C41.1588 21.5004 40.5903 20.7617 40.5921 20.0456L40.6093 11.4646C40.8167 11.621 41.043 11.7696 41.2866 11.9104C44.2299 13.6098 48.831 13.611 51.7569 11.9087C51.9884 11.7748 52.2044 11.6322 52.4048 11.4837L52.3875 20.0629C52.3858 20.773 51.8242 21.5056 50.8463 22.074ZM61.3598 78.4812C61.3753 80.5899 59.9119 82.6028 57.2339 84.1491C51.3629 87.5701 41.7704 87.5683 35.8442 84.1456C33.1869 82.6269 31.6526 80.5571 31.6371 78.4388V71.5149C32.4717 72.5203 33.5751 73.4452 34.9578 74.243C41.373 77.9379 51.7683 77.9343 58.1254 74.2412C59.4674 73.4608 60.5425 72.5596 61.3598 71.5807V78.4812ZM34.9578 57.6072C41.3713 61.3011 51.7638 61.3011 58.1254 57.6055C59.4584 56.8303 60.5448 55.9397 61.3598 54.9676V67.089C61.3408 69.1775 59.8834 71.1727 57.2373 72.7113C51.3629 76.1228 41.7652 76.1219 35.8424 72.7104C33.1437 71.1537 31.6491 69.1314 31.6371 66.995V54.9067C32.4698 55.9036 33.586 56.815 34.9578 57.6072Z" fill="black"/>
<path d="M38.3252 35.7933C38.7105 35.091 39.0422 34.3601 39.3117 33.6215C39.4793 33.1619 39.2426 32.654 38.783 32.4872C38.3217 32.3214 37.8172 32.5564 37.6496 33.0151C37.4112 33.6699 37.1157 34.3178 36.7736 34.9415C36.5387 35.37 36.6959 35.9074 37.1244 36.1432C37.5592 36.3801 38.0936 36.2154 38.3252 35.7933Z" fill="black"/>
</svg>
