<svg width="93" height="92" viewBox="0 0 93 92" fill="none" xmlns="http://www.w3.org/2000/svg">
<path d="M22.3015 83.4667L30.6898 88.3416C30.6894 88.3414 30.6901 88.3418 30.6898 88.3416C30.6907 88.3421 30.6922 88.3436 30.6932 88.3442C30.9623 88.4991 31.3001 88.5028 31.577 88.3433L70.8689 65.6586C71.1436 65.4997 71.3121 65.2068 71.3112 64.8898L71.1697 14.9157C71.1703 14.9023 71.1798 14.8914 71.1799 14.8779C71.1816 14.5634 71.0166 14.2723 70.7462 14.1116C68.9264 13.0428 77.3386 17.9835 52.9485 3.65866C52.673 3.49884 52.3352 3.49884 52.0613 3.65693L22.1313 20.9372C21.8547 21.0973 21.6898 21.3919 21.689 21.7026C21.689 21.7032 21.6894 21.7036 21.6894 21.7043C21.6894 21.7049 21.689 21.7054 21.689 21.706L21.7486 42.6776C21.7503 43.1649 22.146 43.5596 22.6332 43.5596C22.6341 43.5596 22.6349 43.5596 22.6358 43.5596C23.1239 43.5579 23.5195 43.1614 23.5178 42.6724L23.4625 23.2431L30.0787 27.0881L30.2457 86.0376L23.6292 82.1925L23.5645 59.1847C23.5627 58.6975 23.1671 58.3027 22.6798 58.3027C22.679 58.3027 22.6781 58.3027 22.6772 58.3027C22.1892 58.3044 21.7935 58.7009 21.7952 59.1899L21.8617 82.7048C21.8626 83.0192 22.0302 83.3095 22.3015 83.4667ZM32.0149 86.0471L31.8482 27.0882C38.5322 23.2292 20.1593 33.8368 60.0116 10.828L60.0384 20.2988C60.0393 20.6141 60.2086 20.9052 60.4816 21.0633C60.7554 21.2205 61.0932 21.2197 61.3653 21.0624L69.4046 16.4217L69.5403 64.3827L32.0149 86.0471ZM61.8033 18.7533C61.8026 18.4762 61.7805 10.6695 61.781 10.8539L68.5433 14.8623L61.8033 18.7533ZM52.5019 5.44516L59.127 9.29549L30.9632 25.5559L24.4605 21.777L24.3385 21.706L52.5019 5.44516Z" fill="black"/>
<path d="M22.6641 53.7328C23.1522 53.731 23.5479 53.3345 23.5461 52.8456L23.5314 47.4636C23.5297 46.9763 23.1341 46.5815 22.6468 46.5815H22.6442C22.1561 46.5833 21.7605 46.9798 21.7622 47.4688L21.7769 52.8507C21.7786 53.338 22.1743 53.7328 22.6615 53.7328H22.6641Z" fill="black"/>
<path d="M64.7821 59.24L35.8602 75.9371C35.4369 76.1816 35.2918 76.7224 35.5362 77.1457C35.7813 77.5701 36.3238 77.7128 36.7448 77.4696L65.6667 60.7725C66.09 60.528 66.2352 59.9872 65.9907 59.5639C65.7453 59.1389 65.2019 58.9955 64.7821 59.24Z" fill="black"/>
<path d="M36.7448 32.2548L56.3463 20.938C56.7696 20.6935 56.9147 20.1527 56.6702 19.7294C56.424 19.3052 55.8824 19.1601 55.4617 19.4055L35.8602 30.7223C35.4369 30.9668 35.2918 31.5076 35.5362 31.9309C35.7813 32.3553 36.3238 32.498 36.7448 32.2548Z" fill="black"/>
<path d="M50.3623 36.9933C48.6708 36.3894 47.0355 36.5207 45.4891 37.3837C45.4857 37.3855 45.4814 37.388 45.4779 37.3898C41.2406 39.8363 37.906 45.5681 37.8853 50.4448C37.8896 59.7116 49.3326 60.5772 50.6379 60.6446C50.6526 60.6455 50.6681 60.6463 50.6828 60.6463C50.9446 60.6463 51.1994 60.528 51.3679 60.3258C52.6075 58.8443 63.4752 45.5949 63.5028 36.8213C63.508 34.3031 62.6147 32.3957 60.9898 31.4506C59.3553 30.5012 57.2466 30.6714 55.0428 31.9283C53.5457 32.7922 52.0106 34.4526 50.3623 36.9933ZM60.1008 32.9797C61.1574 33.5947 61.737 34.9579 61.7336 36.817C61.7094 44.5108 52.3553 56.3364 50.2958 58.8477C48.0626 58.656 39.6579 57.4664 39.6545 50.4474C39.6718 46.2204 42.6781 41.0535 46.3565 38.9258C47.6108 38.2295 48.911 38.2191 50.3303 38.8938C50.7398 39.0873 51.2236 38.9439 51.462 38.5612C53.1069 35.9143 54.5668 34.2452 55.924 33.4626C57.5524 32.5322 59.0357 32.362 60.1008 32.9797Z" fill="black"/>
</svg>
