<svg width="93" height="92" viewBox="0 0 93 92" fill="none" xmlns="http://www.w3.org/2000/svg">
<rect x="0.5" width="92" height="92" rx="46" fill="black"/>
<path d="M31.2668 69.5563C31.557 69.6697 31.8865 69.5298 32.002 69.2391C32.117 68.9488 31.9755 68.6194 31.6847 68.5039C26.1774 66.3144 20.447 62.1265 20.4635 56.2611L20.4662 55.3474C24.4607 63.3112 36.8404 66.7139 46.3418 66.7587C46.3423 66.8749 46.3616 71.4581 46.3604 71.1658C44.131 71.1561 41.9149 70.9839 39.7662 70.653C39.4595 70.6072 39.1681 70.8172 39.1206 71.1262C39.0731 71.4352 39.2848 71.7243 39.5938 71.7719C41.864 72.1218 44.2061 72.2986 46.5609 72.2986C53.0671 72.2986 60.1021 70.9371 65.6498 67.7123C70.8005 64.7196 73.6434 60.7054 73.6555 56.4087C73.6557 56.2954 73.6737 50.7903 73.6671 50.5659C73.6671 50.5656 73.6671 50.5662 73.6671 50.5659C73.6671 50.5655 73.6671 50.5646 73.6671 50.5642C73.4539 43.2792 65.6071 38.5407 58.5994 36.5102L58.5864 30.0183C58.5864 30.0161 58.5881 30.0144 58.5881 30.0122C58.5887 29.8099 58.4814 29.623 58.3067 29.5219L53.3821 26.6574C53.2069 26.5546 52.9896 26.5552 52.8133 26.6569L52.5266 26.8232L52.5203 23.1263C52.5197 22.8902 52.3517 22.7039 52.2384 22.6382L52.2371 22.6375L47.3165 19.7782C47.1413 19.6754 46.9246 19.6765 46.7494 19.7771L40.7015 23.2687C40.6981 23.2706 40.6939 23.2698 40.6905 23.2717C40.5147 23.3729 40.4064 23.5603 40.4069 23.7631L40.4263 35.2251C35.4698 35.8669 30.9522 37.3029 27.3411 39.4049C22.2696 42.3527 19.433 46.3154 19.3512 50.5648C19.351 50.5691 19.3486 50.5726 19.3485 50.5769C19.3465 50.6996 19.341 52.9764 19.3314 56.2578C19.3135 62.6628 25.3113 67.1877 31.2668 69.5563ZM51.3899 24.1071C51.4103 43.611 51.406 33.6271 51.4368 51.8042L46.5134 54.6464L46.4669 26.9498C46.5846 26.8819 51.6804 23.9394 51.3899 24.1071ZM57.4566 30.9917C57.4981 52.0746 57.4469 27.2429 57.4909 48.3089L52.5679 51.1509L52.5385 33.8318C52.653 33.7657 57.7805 30.8046 57.4566 30.9917ZM40.4539 58.1449C40.4536 58.0317 40.433 49.804 40.4343 50.329L45.3625 47.4839L45.3824 55.2998L40.4539 58.1449ZM41.5406 24.7471L45.3321 26.9521L45.3636 45.5202L41.5722 43.3152C41.5644 38.6732 41.5439 26.3165 41.5406 24.7471ZM41.0033 44.298L44.7969 46.503L39.8682 49.3485L36.0748 47.1442L41.0033 44.298ZM39.3019 50.3287C39.3022 50.442 39.3229 58.6535 39.3216 58.1387L35.5337 55.9377L35.5138 48.1276L39.3019 50.3287ZM40.4401 43.3162L34.6625 46.6523C34.4953 46.7491 34.3801 46.9315 34.3795 47.142C34.3795 47.1424 34.3798 47.1427 34.3798 47.1431C34.3798 47.1435 34.3795 47.1438 34.3795 47.1442L34.4022 56.2655C34.4027 56.4662 34.5099 56.6525 34.6841 56.7531C34.7987 56.8196 39.7213 59.6799 39.6067 59.6133C39.6071 59.6135 39.6072 59.614 39.6076 59.6142C39.7825 59.7149 39.9962 59.7154 40.1731 59.6142C41.5569 58.8153 41.3492 58.9354 58.3405 49.1254C58.5157 49.0237 58.624 48.8368 58.6235 48.634L58.6119 42.7845C61.8534 44.3384 65.0347 47.0385 65.1661 50.6018C65.1664 50.6087 65.1702 50.6144 65.1706 50.6212C65.2617 53.4599 63.3839 56.1446 59.8777 58.1825C56.4373 60.1813 51.8338 61.3101 46.9152 61.361C41.7269 61.3969 36.8703 60.2875 33.2209 58.1814C29.6787 56.1362 27.7695 53.4447 27.8452 50.6018C27.8453 50.5973 27.8429 50.5933 27.8429 50.5888C27.928 47.889 29.8077 45.3343 33.1407 43.3942C35.1681 42.2152 37.6858 41.3331 40.4358 40.7961L40.4401 43.3162ZM71.6013 54.7409C69.9946 58.0949 66.5525 60.5878 63.2392 62.1755C58.4326 64.478 52.7534 65.4995 47.5084 65.6064C47.5076 65.4734 47.4895 62.2804 47.4907 62.4825C52.3904 62.3521 56.9718 61.1796 60.4465 59.1609C64.1059 57.0339 66.1633 54.2075 66.2998 51.1485H72.5143C72.4636 52.5543 72.1044 53.6923 71.6013 54.7409ZM32.6548 59.162C36.3412 61.2901 41.1867 62.4657 46.3537 62.4946L46.345 65.615C36.3126 65.5786 20.9936 61.1403 20.5154 51.1579H26.7215C26.8862 54.2111 28.971 57.035 32.6548 59.162ZM72.5235 56.4054C72.5124 60.2831 69.8696 63.9512 65.081 66.7339C60.3946 69.458 54.1687 71.0206 47.4973 71.1566L47.5101 66.751C53.7556 66.6266 59.5731 65.1909 63.7462 63.1872C67.2278 61.5166 70.7625 58.9434 72.5262 55.4784L72.5235 56.4054ZM72.4986 50.0148H66.2567C65.8088 46.0544 62.2552 43.1753 58.6097 41.5292C58.6094 41.4129 58.6012 37.438 58.6017 37.6811C64.7468 39.5218 71.8823 43.6919 72.4986 50.0148ZM52.5314 28.1295L53.0969 27.8011L56.8933 30.0094C56.7765 30.0769 52.2527 32.6887 52.5363 32.525C52.5362 32.4087 52.5311 27.8864 52.5314 28.1295ZM47.0313 20.9213L50.825 23.1258C50.6783 23.2105 45.6707 26.102 45.901 25.969L42.1078 23.7642L47.0313 20.9213ZM27.9104 40.3833C31.3585 38.376 35.675 36.9893 40.4283 36.3585L40.4338 39.6256C37.472 40.1808 34.7628 41.1409 32.5714 42.4158C29.0998 44.4367 27.0518 47.1196 26.7466 50.0209H20.5124C20.8217 46.3932 23.4262 42.9901 27.9104 40.3833Z" fill="white"/>
<path d="M36.799 71.2462C36.8404 71.2556 36.8825 71.26 36.9234 71.26C37.1826 71.26 37.4159 71.0809 37.475 70.8178C37.5436 70.5126 37.3518 70.2103 37.0466 70.1417C36.1987 69.9516 35.3651 69.7354 34.5691 69.4994C34.2689 69.4104 33.9544 69.5823 33.8654 69.8814C33.777 70.181 33.9478 70.4961 34.2474 70.5851C35.0677 70.8283 35.9262 71.0505 36.799 71.2462Z" fill="white"/>
</svg>
