<svg width="93" height="92" viewBox="0 0 93 92" fill="none" xmlns="http://www.w3.org/2000/svg">
<path d="M74.9608 65.0346L74.8001 13.7087C74.799 13.5315 74.6682 13.1267 74.3595 12.9468L74.3575 12.9456C74.3569 12.9453 74.3566 12.9445 74.356 12.9442C74.3555 12.9439 74.3548 12.944 74.3542 12.9437L69.9191 10.3638C69.6479 10.2048 69.3075 10.2048 69.0328 10.3621L63.2823 13.6811L63.2638 6.99498C63.2638 6.99271 63.2655 6.99088 63.2655 6.98861C63.2655 6.67243 63.0979 6.38044 62.8232 6.22235L58.3829 3.65662C58.1099 3.49939 57.7712 3.49939 57.4982 3.65662L18.4854 26.1788C18.4844 26.1794 18.483 26.1791 18.4819 26.1798C18.2072 26.3387 18.0378 26.6316 18.0396 26.9486L18.1847 78.2874C18.1864 78.6019 18.3523 78.8921 18.6253 79.0493C19.348 79.4697 35.6039 88.919 34.6054 88.3438C34.7419 88.4225 34.8939 88.4613 35.0459 88.4613C35.198 88.4613 35.3518 88.4216 35.4883 88.343C48.4114 80.88 62.6171 72.6764 74.5185 65.8034C74.7932 65.6445 74.9625 65.3516 74.9608 65.0346ZM46.539 25.3867L50.1034 27.46C50.1055 27.6417 50.1784 34.114 50.1741 33.7342L47.8159 32.4135C47.3981 32.1816 46.8819 32.3275 46.6323 32.7133L43.9577 36.8797C43.956 36.698 43.9062 31.1862 43.9094 31.5375C43.9073 31.3599 43.7255 30.9377 43.4878 30.792L40.4271 28.9101L46.539 25.3867ZM69.4734 12.1503L72.1507 13.7083L50.9875 25.9229L48.31 24.3647L69.4734 12.1503ZM34.9406 30.0448L29.5931 26.9469C73.3157 1.70089 58.2242 10.4149 61.498 8.52459L61.5157 14.7006C24.8845 35.833 71.4753 8.94829 34.9406 30.0448ZM57.9406 5.44485L60.6117 6.98861C57.2009 8.95816 72.9412 -0.131151 27.3868 26.1746C26.8055 26.5103 26.8374 27.3944 27.3833 27.7106L34.4965 31.833C34.773 31.992 35.1082 31.992 35.3846 31.833L38.6754 29.9242L41.2902 31.5251C41.0973 31.6365 34.633 35.3686 34.9065 35.2107L30.3611 32.5693L20.6917 26.9477L57.9406 5.44485ZM19.814 28.4855L28.5849 33.5824L34.0211 36.7429L34.157 86.0297L19.9522 77.7751L19.814 28.4855ZM35.9297 86.0453C35.8967 74.365 35.8264 49.4197 35.7906 36.7435L42.1504 33.0718C42.152 33.2535 42.2144 40.2487 42.211 39.8688C42.2192 40.7942 43.4057 41.0211 43.8472 40.3336L47.6739 34.3701L50.6442 36.0332C50.9207 36.187 51.2576 36.1826 51.5271 36.022C51.5295 36.0206 51.5302 36.0177 51.5326 36.0163C51.5322 36.0166 51.533 36.0161 51.5326 36.0163C51.8039 35.8548 51.9694 35.5606 51.9659 35.2453C51.9639 35.0637 51.8702 26.9413 51.8761 27.4531L73.036 15.2404L73.1898 64.5275C59.2549 72.5749 48.8181 78.6022 35.9297 86.0453Z" fill="black"/>
<path d="M55.0204 35.5754C54.591 35.1891 53.8647 35.3694 53.6313 35.8458C51.479 40.289 44.5707 55.1627 44.5865 60.0984C44.5951 62.881 45.6162 64.9984 47.4615 66.0601C49.3424 67.142 51.6085 66.8514 53.5997 66.0067L53.5933 69.6262C53.5933 70.1151 53.9872 70.5117 54.4762 70.5125C54.9634 70.5125 55.3625 70.1177 55.3625 69.6296L55.3706 65.0498C59.9952 62.1556 64.4012 55.4268 64.3866 49.6835C64.3711 44.2367 56.5823 36.9757 55.0204 35.5754ZM47.7334 54.2483L53.5957 54.9507L53.6079 59.3144L46.5088 58.6971C46.7198 57.4963 47.15 55.9725 47.7334 54.2483ZM49.9931 48.2808L53.5778 48.594L53.5907 53.1679L48.3369 52.5383C48.8345 51.1765 49.3938 49.7423 49.9931 48.2808ZM61.1503 45.4518L55.3564 51.9004L55.346 48.2052L59.9969 43.677C60.4196 44.2691 60.8065 44.8632 61.1503 45.4518ZM53.5729 46.8175L50.7073 46.5673C51.645 44.3508 52.6292 42.1473 53.5542 40.1474L53.5729 46.8175ZM55.3735 58.0051L55.3638 54.539L62.0061 47.1466C62.724 48.8584 62.6003 49.5922 62.5758 50.1658L55.3735 58.0051ZM58.9194 42.2568L55.3391 45.7429L55.3181 38.2856C56.4843 39.433 57.7612 40.8096 58.9194 42.2568ZM48.3443 64.5267C47.1468 63.8379 46.4762 62.3902 46.3889 60.4622L53.6083 61.0904L53.6031 64.0485C51.5641 65.1045 49.6649 65.2898 48.3443 64.5267ZM55.3872 62.8998L55.3808 60.6133L62.0135 53.3933C60.9224 57.0004 58.4219 60.6391 55.3872 62.8998Z" fill="black"/>
</svg>
