<svg width="93" height="92" viewBox="0 0 93 92" fill="none" xmlns="http://www.w3.org/2000/svg">
<path d="M21.4762 82.6464C25.7317 85.1136 31.3227 86.3801 36.9431 86.3801C41.1325 86.3801 45.3246 85.6566 49.0052 84.2217C49.034 84.2387 49.0585 84.2615 49.0876 84.2783L54.6579 87.4729C54.6651 87.477 54.6733 87.4751 54.6806 87.479C54.6841 87.481 54.6872 87.4838 54.6907 87.4859C57.8897 89.2977 61.7061 88.352 64.8776 86.4907C72.3226 82.1246 78.311 71.574 78.2263 62.9715C78.1849 58.6382 76.6385 55.3883 73.8706 53.8204C73.2546 53.4714 68.1406 50.5397 68.3211 50.6413C65.745 49.1647 62.448 49.3707 58.9669 51.1705C58.9669 49.0742 58.9632 39.2905 58.9669 39.4721C58.9462 38.4813 58.6473 37.5137 58.1013 36.6732C53.6446 29.8082 63.9462 45.6762 46.965 19.5195C47.7869 18.5461 48.2334 17.4541 48.2375 16.3054C48.2384 15.9753 48.2401 15.3378 48.2531 10.5001C48.2514 8.54517 46.9953 6.74397 44.7181 5.42914C40.3607 2.91611 33.2993 2.91093 28.9764 5.42569C26.7366 6.72605 25.503 8.50726 25.4922 10.4439C25.4921 10.4479 25.4898 10.4512 25.4898 10.4552C25.4898 10.4561 25.4898 10.4569 25.4898 10.4578L25.4725 16.2406C25.4694 17.4137 25.9241 18.528 26.7682 19.5191L15.6139 36.6853C15.0835 37.5327 14.7932 38.4899 14.7725 39.4721C14.7725 57.9448 14.7725 53.2308 14.7725 73.2111C14.7725 76.778 17.2172 80.218 21.4762 82.6464ZM76.4571 62.9888C76.5349 71.0263 70.9386 80.8841 63.9827 84.9651C60.7638 86.8509 57.7748 87.1965 55.5633 85.9473C52.9767 84.481 52.1286 81.2588 52.1008 78.2942C52.0228 70.2437 57.6905 60.3836 64.5856 56.3394C67.1596 54.8262 70.4479 53.9028 73.0119 55.371C73.0135 55.3719 73.0153 55.3718 73.0168 55.3727C75.2004 56.6216 76.4227 59.324 76.4571 62.9888ZM67.4416 52.1764L68.7668 52.9366C67.4208 53.1215 65.4562 53.7767 63.6907 54.8121C56.2243 59.1921 50.2493 69.7941 50.3247 78.3114C50.3476 80.3147 50.7605 82.2289 51.2922 83.5034C50.6293 82.9261 48.0048 82.5087 46.9249 78.2823C44.8533 70.1364 51.0853 57.7963 59.0136 53.1448C61.5997 51.6267 64.8327 50.6819 67.4416 52.1764ZM16.5417 52.5289V44.4438C17.6803 46.0325 19.3459 47.4821 21.4779 48.7131C30.0269 53.6545 43.8853 53.6545 52.3721 48.7114C54.4523 47.5002 56.0799 46.0731 57.1977 44.5077V52.2049C54.2586 54.1393 51.0434 57.4562 48.5673 61.8493C40.4057 65.12 29.436 64.5605 22.3591 60.4645C18.6617 58.3575 16.5417 55.4782 16.5417 52.5643L16.5417 52.5289ZM42.3114 20.5415C38.4954 21.9981 33.2808 21.755 29.8956 19.8085C29.8928 19.8068 29.8907 19.8051 29.8879 19.8035C28.5628 19.0349 27.2378 17.7849 27.2417 16.2449L27.2469 14.2373C27.6385 14.6157 28.3462 15.1636 29.0352 15.5616C33.4531 18.1111 40.3608 18.1136 44.7578 15.5547C45.4081 15.177 46.0644 14.6764 46.4735 14.2865L46.4683 16.3002C46.463 18.2922 44.1709 19.8297 42.3114 20.5415ZM29.8645 6.95476C31.7806 5.84122 34.3031 5.28488 36.8291 5.28488C39.3603 5.28488 41.8984 5.84381 43.8335 6.96167C45.5341 7.94369 46.4724 9.19589 46.4813 10.4884C46.3064 11.3511 46.2849 12.6217 43.8697 14.0256C40.0324 16.2536 33.7744 16.2553 29.9198 14.0291C28.5934 13.2629 27.2565 11.978 27.26 10.4656C27.2609 9.17753 28.1856 7.93138 29.8645 6.95476ZM17.1049 37.6364L28.0832 20.7423C28.2607 20.8722 28.6919 21.1581 29.0179 21.3462C32.7594 23.5068 38.4675 23.8999 42.9206 22.1983C43.8731 21.8355 44.8252 21.3609 45.6528 20.7449L56.6172 37.6364C57.2049 38.5428 57.1557 39.262 57.1977 39.5248C57.0837 42.3826 55.0536 45.1021 51.4805 47.1823C43.4862 51.8404 30.4226 51.8404 22.3625 47.1806C18.7468 45.0949 16.6821 42.3787 16.5417 39.5319C16.5976 39.1787 16.5321 38.5532 17.1049 37.6364ZM21.4779 61.9987C25.7403 64.4651 31.3296 65.7307 36.9466 65.7307C40.5378 65.7307 44.121 65.183 47.3933 64.1307C46.0018 67.1124 45.0025 70.4357 44.7985 73.7723C37.1634 75.6003 28.2333 74.5862 22.3608 71.1879C18.6634 69.0644 16.5417 66.1782 16.5417 63.2505V57.7264C17.6851 59.3287 19.3556 60.7895 21.4779 61.9987ZM16.5417 68.43C17.6851 70.0352 19.3556 71.5021 21.4779 72.7204C25.6677 75.1453 31.3072 76.4316 36.9984 76.4316C39.6294 76.4316 42.2641 76.1388 44.778 75.5732C44.8755 78.2367 45.5604 80.9664 47.3919 82.9183C47.3999 82.9268 47.4053 82.9385 47.4134 82.947C39.3879 85.7227 29.0904 85.0186 22.3591 81.1121C18.6617 79.0043 16.5417 76.1249 16.5417 73.1757V68.43Z" fill="black"/>
<path d="M64.7774 61.3249C64.5666 61.166 64.2954 61.1167 64.0431 61.1729C63.7892 61.2299 63.5697 61.4044 63.4488 61.6359C62.1927 64.0669 58.091 72.2513 58.0996 75.5306C58.1103 79.5306 61.1751 81.3672 64.7308 79.3161C67.9531 77.4562 70.4687 73.1065 70.4566 69.4126C70.448 65.8145 65.7242 62.0437 64.7774 61.3249ZM63.8462 77.7836C61.5135 79.1298 59.876 78.2004 59.8689 75.5254C59.8637 73.275 62.6039 67.2382 64.5355 63.4008C66.3601 64.9498 68.6822 67.4412 68.6874 69.4178C68.696 72.4327 66.4793 76.264 63.8462 77.7836Z" fill="black"/>
</svg>
