<svg width="93" height="92" viewBox="0 0 93 92" fill="none" xmlns="http://www.w3.org/2000/svg">
<rect x="0.5" width="92" height="92" rx="46" fill="white"/>
<path d="M27.9206 62.2415H27.9222C28.2345 62.2404 28.4877 61.9862 28.4866 61.6744L28.4811 59.6933C28.48 59.3804 28.2268 59.1283 27.915 59.1283H27.9134C27.6011 59.1294 27.3479 59.3837 27.349 59.6955L27.3545 61.6766C27.3556 61.9895 27.6088 62.2415 27.9206 62.2415Z" fill="black"/>
<path d="M65.6251 23.0313C65.6244 22.7982 65.4567 22.6087 65.3431 22.5426L65.3418 22.5419L59.0852 18.9065C58.91 18.8048 58.6933 18.8048 58.5181 18.9065L27.5684 36.7754C27.3813 36.8831 27.2854 37.089 27.2854 37.264C27.2854 37.2644 27.2857 37.2647 27.2857 37.2651C27.2857 37.3819 27.3427 57.6817 27.3434 57.7973C27.3445 58.1101 27.5977 58.3622 27.9095 58.3622C27.91 58.3622 27.9106 58.3622 27.9111 58.3622C28.2235 58.3611 28.4766 58.1068 28.4755 57.795L28.4202 38.2504L33.5442 41.2277C33.5516 43.838 33.6284 71.0215 33.63 71.6188L28.5065 68.6404L28.4921 63.6555C28.491 63.3427 28.2378 63.0906 27.9261 63.0906C27.5657 63.0751 27.3589 63.3449 27.36 63.6577L27.3755 68.9677C27.3761 69.1689 27.4833 69.3546 27.6569 69.4563C27.7715 69.5229 34.0303 73.1606 33.9158 73.094C33.9155 73.0938 33.916 73.0941 33.9158 73.094C34.0913 73.1939 34.3069 73.1955 34.4819 73.0935L65.4316 55.2247C65.6074 55.1241 65.7152 54.9361 65.7146 54.7338C65.7142 54.5732 65.6276 23.9155 65.6251 23.0313ZM34.6956 48.0572C34.6953 47.941 34.6752 40.7788 34.6765 41.2274L64.4958 24.0108L64.5145 30.8412C59.7923 33.5676 41.2281 44.2857 34.6956 48.0572ZM58.8 20.0507L63.9296 23.0313C57.3341 26.839 38.427 37.7547 34.1105 40.2468L28.9808 37.2662L58.8 20.0507ZM34.7622 71.6254L34.6993 49.3619C76.7203 25.1018 60.7275 34.335 64.5184 32.1464L64.5814 54.4088L34.7622 71.6254Z" fill="black"/>
<path d="M56.024 30.0857C55.0683 30.6374 54.3215 31.9276 54.3242 33.0243C54.3289 34.3538 55.4409 34.9857 56.5994 34.3166C57.5524 33.7672 58.2959 32.4781 58.2926 31.3825C58.2891 30.0414 57.1788 29.4203 56.024 30.0857ZM56.0334 33.3371C55.6527 33.5563 55.4573 33.4926 55.4563 33.0209C55.4546 32.3289 55.9842 31.4157 56.59 31.0652C57.0217 30.8186 57.1595 30.9642 57.1605 31.3858C57.1627 32.0768 56.6359 32.9889 56.0334 33.3371Z" fill="black"/>
<path d="M50.7738 33.1149C49.8175 33.6666 49.0713 34.9568 49.0746 36.0523C49.0781 37.3843 50.1929 38.0159 51.3492 37.3469C52.3017 36.7975 53.0457 35.5084 53.0429 34.4117C53.0383 33.0784 51.9334 32.443 50.7738 33.1149ZM50.7832 36.3674C50.3946 36.5903 50.2077 36.5128 50.2067 36.049C50.2045 35.3581 50.734 34.4449 51.3399 34.0944C51.7606 33.8531 51.9099 33.9822 51.9109 34.415C51.9125 35.1071 51.3857 36.0192 50.7832 36.3674Z" fill="black"/>
<path d="M61.2681 27.0565C60.3124 27.6082 59.5656 28.8984 59.5684 29.9951C59.573 31.3289 60.6898 31.9547 61.843 31.2874C62.7988 30.7369 63.5456 29.4456 63.5428 28.3489C63.5381 27.0151 62.4271 26.3867 61.2681 27.0565ZM61.2764 30.3079C60.8957 30.526 60.7015 30.4632 60.7004 29.9918C60.6988 29.2997 61.2283 28.3865 61.8342 28.036C62.2266 27.8097 62.4097 27.8889 62.4107 28.3522C62.4124 29.0443 61.8828 29.9586 61.2764 30.3079Z" fill="black"/>
<path d="M45.9525 51.9169C46.0504 51.9169 46.1482 51.8914 46.2355 51.8406L50.1486 49.582C50.3255 49.4803 50.4338 49.2912 50.4316 49.0867L50.3841 44.3649C50.3819 44.1637 50.2735 43.9791 50.0983 43.8785C49.9231 43.7779 49.7081 43.779 49.535 43.8807L45.6236 46.1393C45.4467 46.241 45.3384 46.4301 45.3406 46.6346L45.3865 51.3564C45.3898 51.6616 45.6363 51.9169 45.9525 51.9169ZM49.262 45.3455L49.2962 48.7672L46.5092 50.3758L46.476 46.9541L49.262 45.3455Z" fill="black"/>
<path d="M51.8035 48.5394C51.9014 48.5394 51.9992 48.514 52.0866 48.4632L55.9996 46.2045C56.1765 46.1028 56.2849 45.9138 56.2826 45.7093L56.2351 40.9864C56.2329 40.7852 56.1246 40.6005 55.9499 40.4999C55.7735 40.3993 55.5591 40.4004 55.3861 40.5021L51.4741 42.7608C51.2972 42.8625 51.1889 43.0515 51.1911 43.2561L51.2375 47.9789C51.2409 48.2841 51.4873 48.5394 51.8035 48.5394ZM55.113 41.967L55.1473 45.3898L52.3602 46.9983L52.3265 43.5756L55.113 41.967Z" fill="black"/>
<path d="M57.6546 45.1609C57.7525 45.1609 57.8503 45.1355 57.9376 45.0846L61.8507 42.826C62.0276 42.7243 62.1359 42.5352 62.1337 42.3307L62.0862 37.609C62.084 37.4077 61.9756 37.2231 61.801 37.1225C61.6246 37.0219 61.4101 37.023 61.2371 37.1247L57.3252 39.3833C57.1483 39.4851 57.0399 39.6741 57.0421 39.8786L57.0886 44.6004C57.0919 44.9056 57.3384 45.1609 57.6546 45.1609ZM60.9641 38.5896L60.9983 42.0112L58.2113 43.6198L58.1775 40.1981L60.9641 38.5896Z" fill="black"/>
<path d="M61.4637 51.6029L37.2955 65.5571C37.0246 65.7129 36.9318 66.059 37.0882 66.3298C37.2458 66.6019 37.5938 66.6929 37.8615 66.5366L62.0298 52.5824C62.3006 52.4265 62.3935 52.0805 62.2371 51.8096C62.0801 51.5388 61.7335 51.4437 61.4637 51.6029Z" fill="black"/>
<path d="M61.4638 46.691L46.5069 55.3264C46.2361 55.4822 46.1432 55.8283 46.2996 56.0991C46.4572 56.3712 46.8053 56.4622 47.0729 56.3059L62.0298 47.6705C62.3007 47.5146 62.3936 47.1686 62.2371 46.8977C62.0801 46.6268 61.7335 46.5329 61.4638 46.691Z" fill="black"/>
<path d="M37.5354 61.7009C37.6333 61.7009 37.7311 61.6755 37.8184 61.6246L44.5556 57.7353C44.7314 57.6347 44.8392 57.4468 44.8386 57.2445L44.8375 56.8465C44.8307 54.2864 42.8686 53.1249 40.6088 54.432C38.5608 55.6138 36.9616 58.3843 36.9683 60.738L36.9694 61.136C36.9702 61.4455 37.22 61.7009 37.5354 61.7009ZM41.1749 55.4115C42.6836 54.5425 43.7009 55.169 43.7055 56.8487V56.9195L38.1418 60.1311C38.3861 58.3312 39.6741 56.2782 41.1749 55.4115Z" fill="black"/>
<path d="M41.1682 53.4591C42.2555 52.8323 43.1051 51.3619 43.1018 50.1148C43.0983 48.6243 41.8778 47.934 40.5911 48.6798C39.5055 49.3056 38.6586 50.7759 38.6625 52.0263C38.666 53.5113 39.8832 54.2022 41.1682 53.4591ZM41.1571 49.6605C41.6699 49.3656 41.9685 49.482 41.9697 50.117C41.9719 50.9683 41.3456 52.0495 40.6022 52.4796C40.0724 52.7846 39.7957 52.6301 39.7946 52.023C39.7918 51.1695 40.4159 50.0872 41.1571 49.6605Z" fill="black"/>
</svg>
