<svg width="93" height="92" viewBox="0 0 93 92" fill="none" xmlns="http://www.w3.org/2000/svg">
<rect x="0.5" width="92" height="92" rx="46" fill="white"/>
<path d="M58.3 61L60.1 59.9C60.3 59.8 60.4 59.5 60.3 59.2C60.2 59 59.9 58.9 59.6 59L57.8 60.1C57.6 60.2 57.5 60.5 57.6 60.8C57.8 61.1 58.1 61.1 58.3 61Z" fill="black"/>
<path d="M64.9 41.2L70.2 38.1C70.4 38 70.4 37.8 70.4 37.7C70.4 37.6 70.3 37.4 70.1 37.3L50 25.6C49.8 25.5 49.7 25.5 49.5 25.6L47.2 26.9C47.1 26.9 47 26.9 46.9 27L43.6 28.9L37.9 25.6C37.7 25.5 37.5 25.5 37.4 25.6L22.7 34.7C22.6 34.8 22.5 34.9 22.5 35.1C22.5 35.3 22.6 35.4 22.7 35.5L28 38.6L22.7 41.7C22.6 41.8 22.5 42 22.5 42.2C22.5 42.4 22.6 42.5 22.8 42.6L28.5 45.9V54.5C28.5 54.7 28.6 54.8 28.8 54.9L48.5 66.4C48.7 66.5 48.8 66.5 49 66.4C51.7 64.9 57 61.8 56.7 61.9C56.9 61.8 57 61.5 56.9 61.2C56.8 61 56.5 60.9 56.2 61L49.2 65.1V50.9L54.5 54C54.7 54.1 54.8 54.1 55 54L63.3 49.2V56.9L61.1 58.2C60.9 58.3 60.8 58.6 60.9 58.9C61 59.1 61.3 59.2 61.6 59.1L64 57.7C64.2 57.6 64.2 57.4 64.2 57.3V48.7L70 45.3C70.2 45.2 70.2 45 70.2 44.9C70.2 44.8 70.1 44.6 70 44.5L64.9 41.2ZM47.2 28L59.2 35C59.1 35.1 54.6 37.7 54.7 37.6L42.7 30.6L47.2 28ZM44.8 43.9C44.8 44.2 44.8 47.3 44.8 47.2L32.8 40.3V37C32.9 37 44.2 43.5 44.8 43.9ZM51.2 40.8L54.2 39.1V42.5L51.2 44.3V40.8ZM50.7 39.9L38.7 32.9L41.7 31.2L53.7 38.2L50.7 39.9ZM62.9 41.2L60.7 42.5V39.9L62.9 41.2ZM59.7 35.9C59.7 36.2 59.7 43.6 59.7 43.1L48.8 49.4L45.8 47.7C45.8 47.6 45.8 43.6 45.8 43.9L50.2 41.4V45.2C50.2 45.5 50.4 45.7 50.7 45.7C50.8 45.7 50.9 45.7 51 45.6L55 43.2C55.2 43.1 55.2 42.9 55.2 42.8V38.5C55.6 38.2 59.9 35.7 59.7 35.9ZM30 38.6L31.7 37.5V39.6L30 38.6ZM37.6 33.5L49.6 40.5L45.3 43L33.3 36C33.4 36 37.9 33.4 37.6 33.5ZM29.6 39.5C29.4 39.4 31.4 40.6 47.8 50L42.7 53L29.5 45.4L29.6 39.5ZM49.8 26.6L69 37.7L63.9 40.6L60.7 38.7V34.9C60.7 34.7 60.5 34.5 60.5 34.5L48.3 27.5L49.8 26.6ZM37.7 26.6L42.6 29.5C42.3 29.7 31.9 35.7 32 35.6C31.8 35.7 31.8 35.9 31.8 36V36.3L29.1 38L24 35L37.7 26.6ZM24 42.2L28.6 39.5V44.8L24 42.2ZM29.5 46.5L42.5 54C42.7 54.1 42.8 54.1 43 54L48.3 50.9V65.1L29.5 54.3V46.5ZM54.9 53L49.8 50C51.2 49.2 44.7 52.9 63.4 42.1V48L54.9 53ZM64.4 47.4V42.1L69 44.8L64.4 47.4Z" fill="black"/>
</svg>
