<svg width="93" height="92" viewBox="0 0 93 92" fill="none" xmlns="http://www.w3.org/2000/svg">
<rect x="0.5" width="92" height="92" rx="46" fill="black"/>
<path d="M57.0909 63.6171L54.311 65.2324C54.035 65.3924 53.9414 65.7451 54.1014 66.0206C54.2593 66.293 54.611 66.3916 54.8902 66.2296L57.67 64.6143C57.9461 64.4543 58.0396 64.1016 57.8796 63.8261C57.7185 63.5489 57.3635 63.4576 57.0909 63.6171Z" fill="white"/>
<path d="M41.6052 73.6152C41.6943 73.6664 41.7945 73.6924 41.8937 73.6924C41.9929 73.6924 42.092 73.667 42.181 73.6157C42.1817 73.6154 42.1819 73.6146 42.1825 73.6143C42.1823 73.6144 42.1827 73.6141 42.1825 73.6143L53.1561 67.2375C53.4322 67.0775 53.5257 66.7242 53.3657 66.4487C53.2045 66.1721 52.8507 66.0808 52.5769 66.2402L42.474 72.1115L42.4821 69.2332L70.7592 52.8007L70.7511 55.6782L58.6707 62.6987C58.3946 62.8587 58.3011 63.212 58.4611 63.4875C58.6211 63.7635 58.976 63.8548 59.2498 63.6959L71.6165 56.5092C71.7945 56.4066 71.9027 56.2173 71.9038 56.0123C71.9837 32.5223 71.9676 33.614 71.976 30.6023C71.976 30.6019 71.9757 30.6016 71.9757 30.6012C71.9757 30.6007 71.976 30.6005 71.976 30.6C71.976 30.3974 71.8678 30.2053 71.6875 30.1009C59.6504 23.1512 65.1334 26.3168 51.3949 18.3849C51.2157 18.2818 50.9938 18.2818 50.8168 18.3861L21.3871 35.4883C21.3867 35.4885 21.3862 35.4885 21.3859 35.4887C21.3855 35.4889 21.3853 35.4894 21.385 35.4896L21.3836 35.4904C21.1986 35.5977 21.0969 35.8713 21.0963 35.9873L21.0242 61.3978C21.0231 61.6046 21.1335 61.7956 21.3126 61.8992L41.6052 73.6152ZM65.7037 27.9788L37.4214 44.4146L27.3692 38.611L55.6519 22.175L65.7037 27.9788ZM70.8106 34.482L42.5336 50.9144L42.5418 48.0372C48.9449 44.3162 63.8192 35.6724 70.8187 31.6047L70.8106 34.482ZM22.2468 36.9867C26.7561 39.5901 36.8819 45.4361 41.3878 48.0374C41.3826 49.8485 41.3281 69.0954 41.3196 72.1173L22.1792 61.0671L22.2468 36.9867ZM42.4977 67.8904L42.5416 52.2437L70.8069 35.8178L70.7629 51.4646L42.4977 67.8904ZM41.965 47.0382L38.5727 45.0796L66.855 28.6436L70.2474 30.6023L41.965 47.0382ZM51.1076 19.5512L54.5004 21.5101L26.2178 37.9464L22.8248 35.9873L51.1076 19.5512Z" fill="white"/>
<path d="M38.6113 49.3015L25.5809 41.7784C25.2003 41.5592 24.718 41.83 24.7155 42.2765L24.6682 59.3014C24.6671 59.5081 24.7775 59.6991 24.9567 59.8028L37.9859 67.3253C38.3672 67.545 38.8488 67.2736 38.8513 66.8273L38.8997 49.803C38.9009 49.5962 38.7904 49.4052 38.6113 49.3015ZM37.7008 65.8278L25.8232 58.9706L25.8671 43.276L37.7448 50.1337L37.7008 65.8278Z" fill="white"/>
<path d="M28.2999 49.3618L34.6911 53.0521C34.9697 53.212 35.3219 53.1146 35.4788 52.8408C35.6388 52.5648 35.5441 52.2121 35.2681 52.0526L28.8768 48.3623C28.6008 48.2046 28.2481 48.2976 28.0892 48.5736C27.9292 48.8497 28.0238 49.2024 28.2999 49.3618Z" fill="white"/>
<path d="M28.2999 53.2065L34.6911 56.8968C34.9697 57.0567 35.3219 56.9593 35.4788 56.6855C35.6388 56.4095 35.5441 56.0568 35.2681 55.8973L28.8768 52.2071C28.6008 52.0504 28.2481 52.1428 28.0892 52.4183C27.9292 52.6944 28.0238 53.0471 28.2999 53.2065Z" fill="white"/>
<path d="M28.2999 57.0511L34.6911 60.7414C34.9697 60.9013 35.3219 60.8039 35.4788 60.5301C35.6388 60.2541 35.5441 59.9014 35.2681 59.7419L28.8768 56.0517C28.6008 55.8945 28.2481 55.9874 28.0892 56.2629C27.9292 56.539 28.0238 56.8917 28.2999 57.0511Z" fill="white"/>
<path d="M37.0642 39.1288C38.5624 39.9938 40.9035 39.9965 42.3883 39.1322C44.0762 38.1519 44.0815 36.3675 42.3714 35.3805C40.8762 34.5174 38.5369 34.5207 37.0484 35.3861C35.3599 36.3668 35.3542 38.1406 37.0642 39.1288ZM37.6276 36.3833C38.7523 35.7301 40.6611 35.7262 41.7945 36.38C42.7201 36.914 42.7305 37.5985 41.8092 38.135C40.6857 38.7868 38.7758 38.7857 37.6411 38.1293C36.7167 37.5959 36.7039 36.92 37.6276 36.3833Z" fill="white"/>
<path d="M50.7008 31.2045C52.1975 32.0686 54.5356 32.073 56.0238 31.2079C57.7088 30.2293 57.7215 28.4464 56.008 27.4562C54.5128 26.5931 52.1747 26.5953 50.6839 27.4619C48.9962 28.4421 48.9908 30.2176 50.7008 31.2045ZM51.2631 28.4591C52.3919 27.8047 54.2989 27.8015 55.4311 28.4557C56.3549 28.9899 56.3688 29.6738 55.4446 30.2107C54.3212 30.8626 52.4124 30.8603 51.2777 30.2051C50.3524 29.6711 50.3418 28.9955 51.2631 28.4591Z" fill="white"/>
<path d="M59.5079 48.2294C59.3253 48.0705 59.0651 48.0423 58.8555 48.1556L57.9732 48.6288L59.1563 45.6693C59.2465 45.4462 59.1879 45.1915 59.0098 45.0293C58.8329 44.867 58.5726 44.8315 58.3597 44.9408L53.9268 47.195C53.733 47.2936 53.6113 47.4925 53.6113 47.7094V53.5603C53.6113 53.7417 53.697 53.9124 53.8412 54.0217C53.9866 54.1305 54.1747 54.1671 54.3494 54.1141L54.9274 53.9468L54.9624 58.2506C54.9646 58.5289 55.1652 58.7656 55.439 58.814C55.7035 58.8625 55.9805 58.7145 56.079 58.4484L59.6679 48.866C59.7524 48.6412 59.6882 48.3877 59.5079 48.2294ZM56.0903 55.1294L56.0745 53.1761C56.0734 52.9952 55.9866 52.8256 55.8424 52.718C55.6901 52.6055 55.5008 52.5778 55.3365 52.6267L54.7652 52.7924V48.0632L57.5157 46.6643L56.3134 49.6734C56.2233 49.8987 56.283 50.1562 56.4644 50.3179C56.6458 50.4796 56.9095 50.51 57.1213 50.3957L58.0498 49.8971L56.0903 55.1294Z" fill="white"/>
</svg>
