<svg width="1029" height="128" viewBox="0 0 1029 128" fill="none" xmlns="http://www.w3.org/2000/svg">
<g clip-path="url(#clip0_1901_711)">
<path d="M173.729 118.568C168.841 118.568 164.871 117.8 161.828 116.243C158.785 114.696 156.591 112.45 155.244 109.506C153.897 106.562 153.219 102.949 153.219 98.6473V9.43156H178.508V93.5672C178.508 95.6631 179.006 97.0604 180.004 97.759C181.002 98.4577 182.249 98.807 183.745 98.807H188.533V118.568H173.719H173.729ZM270.395 59.3541C267.702 52.1182 263.302 46.4592 257.227 42.3672C251.142 38.2752 243.361 36.2292 233.884 36.2292C225.893 36.2292 218.94 37.9459 213.004 41.3891C207.068 44.8324 202.46 49.7229 199.168 56.0605C195.876 62.3981 194.23 70.0132 194.23 78.8959C194.23 87.0799 195.826 94.2659 199.018 100.454C202.21 106.642 206.819 111.452 212.854 114.896C218.89 118.339 226.192 120.065 234.781 120.065C241.665 120.065 247.74 118.968 253.037 116.772C258.324 114.576 262.664 111.512 266.056 107.56C269.438 103.618 271.533 98.9068 272.341 93.4175H248.249C247.551 95.713 246.074 97.5794 243.83 99.0266C241.585 100.474 238.572 101.202 234.781 101.202C231.579 101.202 228.796 100.524 226.402 99.1763C224.007 97.8289 222.182 95.8627 220.935 93.2678C219.688 90.6729 219.069 87.5789 219.069 83.9859H272.939C273.927 74.8039 273.089 66.5999 270.395 59.3541ZM219.199 68.5661C219.299 66.2306 219.798 64.1846 220.715 62.4281C221.913 60.1325 223.628 58.336 225.873 57.0386C228.118 55.7411 230.791 55.0924 233.884 55.0924C236.777 55.0924 239.32 55.6912 241.515 56.8889C243.71 58.0865 245.406 59.8032 246.603 62.0488C247.541 63.8054 248.049 65.9811 248.129 68.5661H219.199ZM358.971 100.753C357.774 100.753 356.856 100.374 356.208 99.6254C355.559 98.8769 355.23 97.6592 355.23 95.9626V66.3204C355.23 61.5298 354.512 57.2581 353.065 53.5155C351.619 49.7728 349.444 46.6289 346.551 44.0839C343.658 41.5389 340.067 39.5927 335.777 38.2453C331.487 36.8979 326.45 36.2292 320.664 36.2292C313.082 36.2292 306.478 37.4069 300.842 39.7424C295.205 42.0878 290.836 45.4113 287.743 49.7029C284.651 53.9945 283.104 58.9349 283.104 64.524H307.795C307.795 62.7275 308.274 61.1805 309.221 59.883C310.169 58.5856 311.466 57.5576 313.112 56.809C314.758 56.0605 316.773 55.6912 319.167 55.6912C321.162 55.6912 322.988 55.9607 324.634 56.5096C326.28 57.0585 327.577 58.0366 328.525 59.4339C329.472 60.8312 329.941 62.7275 329.941 65.1228V71.1111H314.977C309.79 71.1111 305.101 71.66 300.911 72.7579C296.722 73.8557 293.16 75.5225 290.217 77.7681C287.274 80.0137 285 82.7683 283.404 86.002C281.808 89.2457 281.01 92.9684 281.01 97.1602C281.01 103.947 283.334 109.386 287.973 113.478C292.612 117.57 298.866 119.616 306.747 119.616C312.134 119.616 317.122 118.538 321.711 116.393C326.3 114.247 329.542 111.432 331.438 107.939H332.335C333.433 111.333 335.458 113.947 338.401 115.794C341.344 117.64 345.154 118.568 349.843 118.568H362.413V100.753H358.971ZM329.941 92.3696C329.642 95.6631 328.275 98.2082 325.831 100.005C323.387 101.801 320.314 102.699 316.623 102.699C313.631 102.699 311.216 102.001 309.371 100.603C307.525 99.2062 306.598 97.26 306.598 94.7649C306.598 92.9684 307.126 91.3915 308.174 90.0441C309.221 88.6967 310.738 87.6488 312.733 86.9003C314.728 86.1517 317.222 85.7824 320.215 85.7824H329.941V92.3696ZM378.583 118.568V57.9368H366.313V37.5766H378.583V30.8397C378.583 23.9532 380.748 18.6635 385.088 14.9707C389.427 11.278 395.582 9.43156 403.573 9.43156H420.482V26.0491H410.307C408.212 26.0491 406.616 26.4982 405.518 27.3965C404.421 28.2947 403.872 29.8916 403.872 32.1871V37.5766H419.285V57.9368H403.872V118.568H378.583ZM105.554 15.35C85.5326 -1.77654 56.1138 -5.34957 31.9921 8.58322C18.8041 16.2083 9.34695 27.8157 4.27921 41.0199C17.6269 52.4376 37.2395 54.8129 53.3205 45.5311L105.564 15.36L105.554 15.35ZM85.2932 124.347C110.133 115.564 127.93 91.8606 127.93 63.995C127.93 48.7548 122.603 34.7621 113.704 23.7636C97.1445 29.6221 85.2832 45.4213 85.2832 63.995V124.347H85.2932ZM1.06698 52.2978C-3.75136 78.2072 7.87052 105.484 31.9921 119.417C45.1802 127.042 59.9645 129.427 73.9207 127.212C77.1329 109.935 69.3817 91.7608 53.3106 82.4689L1.06698 52.2978ZM450.26 120.614C442.15 120.614 435.605 118.469 430.817 114.227C425.979 109.955 423.525 104.206 423.525 97.1602C423.525 92.8387 424.363 88.9363 426.019 85.5728C427.685 82.1994 430.069 79.3151 433.112 76.9896C436.134 74.6841 439.845 72.9375 444.165 71.7997C448.414 70.6819 453.233 70.123 458.49 70.123H472.456V65.1328C472.456 62.967 472.037 61.2404 471.199 60.0028C470.371 58.7852 469.274 57.9568 467.818 57.4777C466.281 56.9587 464.555 56.6992 462.68 56.6992C460.455 56.6992 458.55 57.0486 457.024 57.7372C455.547 58.4059 454.37 59.3341 453.522 60.4819C452.704 61.6096 452.305 62.9371 452.305 64.5339C452.305 65.0829 451.856 65.532 451.307 65.532H426.617C426.069 65.532 425.62 65.0829 425.62 64.5339C425.62 58.7552 427.246 53.5753 430.448 49.134C433.64 44.7127 438.189 41.2494 443.965 38.8441C449.701 36.4588 456.505 35.2412 464.176 35.2412C470.022 35.2412 475.21 35.9398 479.589 37.3171C483.988 38.7044 487.739 40.7304 490.722 43.3553C493.715 45.9902 495.999 49.2937 497.496 53.1761C498.982 57.0286 499.74 61.45 499.74 66.3304V95.9725C499.74 97.4197 499.98 98.4377 500.469 98.9866C500.917 99.5056 501.576 99.7651 502.484 99.7651H505.925C506.474 99.7651 506.923 100.214 506.923 100.763V118.578C506.923 119.127 506.474 119.576 505.925 119.576H493.356C488.487 119.576 484.457 118.598 481.375 116.662C478.572 114.906 476.526 112.44 475.289 109.346C473.244 112.6 470.012 115.275 465.643 117.321C460.944 119.517 455.767 120.624 450.26 120.624V120.614ZM458.49 72.1091C453.412 72.1091 448.764 72.6481 444.674 73.726C440.613 74.8039 437.132 76.4307 434.319 78.5765C431.515 80.7123 429.331 83.3671 427.804 86.4611C426.288 89.5551 425.51 93.158 425.51 97.1702C425.51 103.707 427.675 108.807 432.124 112.74C436.543 116.642 442.638 118.628 450.25 118.628C455.467 118.628 460.366 117.58 464.795 115.504C469.164 113.458 472.287 110.754 474.062 107.47C474.232 107.151 474.571 106.951 474.94 106.951H475.838C476.267 106.951 476.656 107.231 476.786 107.64C477.803 110.794 479.699 113.259 482.422 114.965C485.185 116.702 488.857 117.58 493.346 117.58H504.918V101.761H502.474C500.977 101.761 499.79 101.272 498.942 100.294C498.124 99.3559 497.735 97.9387 497.735 95.9725V66.3304C497.735 61.6995 497.027 57.5176 495.63 53.8947C494.244 50.3217 492.149 47.2776 489.395 44.8524C486.622 42.4072 483.121 40.5109 478.981 39.2134C474.801 37.896 469.813 37.2373 464.166 37.2373C456.754 37.2373 450.21 38.395 444.713 40.6805C439.287 42.9361 435.027 46.1698 432.054 50.2918C429.291 54.1343 427.794 58.5856 427.625 63.5259H450.35C450.499 61.929 451.028 60.5118 451.916 59.2942C452.973 57.857 454.41 56.7192 456.196 55.9108C457.981 55.1024 460.166 54.6932 462.67 54.6932C464.765 54.6932 466.71 54.9926 468.446 55.5714C470.301 56.1902 471.778 57.2981 472.845 58.875C473.903 60.4519 474.441 62.5578 474.441 65.1228V71.1111C474.441 71.66 473.993 72.1091 473.444 72.1091H458.48H458.49ZM460.136 103.697C456.914 103.697 454.27 102.919 452.265 101.402C450.17 99.815 449.113 97.5894 449.113 94.7649C449.113 92.7488 449.711 90.9623 450.888 89.4453C452.046 87.9582 453.732 86.7905 455.896 85.982C458.001 85.1936 460.635 84.7944 463.727 84.7944H473.454C474.003 84.7944 474.451 85.2435 474.451 85.7924V92.3795C474.451 92.3795 474.451 92.4394 474.451 92.4694C474.122 96.0424 472.606 98.8469 469.932 100.813C467.329 102.729 464.037 103.697 460.146 103.697H460.136ZM463.727 86.7805C460.874 86.7805 458.48 87.1398 456.595 87.8484C454.779 88.5271 453.392 89.4752 452.465 90.6729C451.547 91.8506 451.108 93.188 451.108 94.7749C451.108 96.9606 451.886 98.6074 453.472 99.815C455.118 101.073 457.363 101.711 460.136 101.711C463.588 101.711 466.491 100.873 468.745 99.2062C470.96 97.5794 472.177 95.3238 472.456 92.3297V86.7905H463.727V86.7805ZM596.147 119.566H570.858C570.31 119.566 569.861 119.117 569.861 118.568V75.0035C569.861 71.0512 569.402 67.7377 568.494 65.1527C567.616 62.6676 566.289 60.7913 564.523 59.5836C562.758 58.356 560.354 57.7372 557.381 57.7372C554.218 57.7372 551.535 58.4858 549.42 59.9529C547.285 61.44 545.629 63.3762 544.512 65.7017C543.385 68.0471 542.816 70.5721 542.816 73.207V118.568C542.816 119.117 542.367 119.566 541.818 119.566H516.53C515.981 119.566 515.532 119.117 515.532 118.568V37.7263C515.532 37.1774 515.981 36.7282 516.53 36.7282H540.921C541.449 36.7282 541.878 37.1375 541.918 37.6664L542.706 49.8726C544.891 45.1917 548.123 41.5987 552.323 39.1835C556.892 36.5586 562.069 35.2312 567.706 35.2312C571.786 35.2312 575.647 35.85 579.178 37.0875C582.749 38.3251 585.922 40.3512 588.615 43.0958C591.299 45.8405 593.414 49.4334 594.91 53.8049C596.386 58.1364 597.135 63.4061 597.135 69.4743V118.578C597.135 119.127 596.686 119.576 596.137 119.576L596.147 119.566ZM571.856 117.57H595.149V69.4643C595.149 63.6157 594.441 58.5656 593.034 54.4436C591.638 50.3616 589.683 47.0182 587.209 44.4931C584.735 41.968 581.812 40.1116 578.54 38.9739C575.218 37.8161 571.576 37.2373 567.716 37.2373C562.429 37.2373 557.59 38.4748 553.321 40.9201C549.101 43.3353 545.948 47.078 543.943 52.0284C543.794 52.4076 543.425 52.6472 543.016 52.6472H541.818C541.29 52.6472 540.861 52.238 540.821 51.709L539.983 38.7243H517.527V117.57H540.821V73.207C540.821 70.2727 541.459 67.4582 542.716 64.8433C543.983 62.1985 545.859 60.0028 548.283 58.3161C550.737 56.6094 553.799 55.7411 557.381 55.7411C560.763 55.7411 563.546 56.4797 565.651 57.9368C567.766 59.394 569.352 61.5997 570.359 64.494C571.337 67.2886 571.836 70.8217 571.836 75.0035V117.57H571.856ZM642.385 121.064C636.729 121.064 631.601 120.395 627.142 119.077C622.663 117.76 618.752 115.864 615.53 113.458C612.288 111.033 609.724 108.109 607.919 104.745C606.103 101.372 605.185 97.5594 605.185 93.4175C605.185 92.8686 605.634 92.4195 606.183 92.4195H631.023C631.541 92.4195 631.97 92.8087 632.02 93.3277C632.2 95.224 632.758 96.781 633.686 97.9786C634.624 99.1862 635.841 100.025 637.417 100.564C639.053 101.122 640.929 101.412 643.004 101.412C646.266 101.412 648.69 100.873 650.206 99.7951C651.633 98.787 652.331 97.4397 652.331 95.6731C652.331 94.0762 651.952 92.9085 651.224 92.2099C650.396 91.4314 649.059 90.7827 647.233 90.2737C645.288 89.7347 642.605 89.2157 639.273 88.7267C632.05 87.7286 626.025 86.2715 621.386 84.3951C616.627 82.4789 613.026 79.7342 610.682 76.2411C608.337 72.7479 607.15 68.2068 607.15 62.7374C607.15 57.2681 608.697 52.3677 611.759 48.2258C614.792 44.1038 619.091 40.8702 624.528 38.6146C629.915 36.3789 636.24 35.2412 643.313 35.2412C650.386 35.2412 656.122 36.329 661.21 38.4649C666.337 40.6206 670.447 43.6946 673.44 47.607C676.443 51.5493 678.069 56.1703 678.278 61.3502C678.288 61.6196 678.188 61.8891 677.999 62.0787C677.809 62.2783 677.55 62.3881 677.281 62.3881H652.441C651.892 62.3881 651.443 61.939 651.443 61.3901C651.443 59.913 651.094 58.7353 650.376 57.8071C649.648 56.8689 648.64 56.1403 647.373 55.6613C646.046 55.1622 644.42 54.9027 642.565 54.9027C639.991 54.9027 637.946 55.4217 636.479 56.4497C635.103 57.4079 634.434 58.7353 634.434 60.4918C634.434 61.9091 634.843 62.967 635.681 63.7155C636.599 64.5439 638.215 65.2525 640.49 65.8015C642.894 66.3903 646.046 66.9392 649.877 67.4283C656.82 68.3365 662.546 69.7737 666.916 71.6999C671.375 73.6761 674.697 76.4507 676.792 79.9638C678.867 83.457 679.924 87.9781 679.924 93.4275C679.924 99.316 678.318 104.386 675.156 108.488C672.013 112.56 667.564 115.714 661.928 117.87C656.351 119.996 649.787 121.083 642.415 121.083L642.385 121.064ZM607.19 94.4156C607.32 97.8389 608.158 100.993 609.674 103.797C611.34 106.901 613.714 109.606 616.727 111.852C619.76 114.117 623.461 115.904 627.711 117.161C631.99 118.429 636.928 119.067 642.395 119.067C649.518 119.067 655.843 118.029 661.19 115.993C666.477 113.977 670.637 111.033 673.55 107.26C676.443 103.518 677.909 98.8569 677.909 93.4275C677.909 88.3474 676.951 84.1656 675.056 80.9918C673.181 77.8479 670.158 75.3328 666.078 73.5364C661.888 71.69 656.341 70.3027 649.598 69.4244C645.697 68.9254 642.455 68.3664 639.991 67.7576C637.357 67.1089 635.502 66.2805 634.325 65.2126C633.068 64.0748 632.429 62.4879 632.429 60.5018C632.429 58.0766 633.407 56.1603 635.322 54.8129C637.138 53.5554 639.562 52.9166 642.555 52.9166C644.66 52.9166 646.515 53.216 648.071 53.8049C649.687 54.4237 650.994 55.3619 651.952 56.5994C652.76 57.6474 653.239 58.9249 653.388 60.402H676.223C675.864 56.0605 674.398 52.1781 671.854 48.8346C669.081 45.2017 665.24 42.3373 660.441 40.3212C655.603 38.2852 649.837 37.2572 643.323 37.2572C636.809 37.2572 630.444 38.3351 625.296 40.4709C620.199 42.5868 616.188 45.6009 613.375 49.4235C610.572 53.226 609.156 57.7073 609.156 62.7574C609.156 67.8075 610.233 71.9894 612.358 75.1532C614.473 78.317 617.775 80.8022 622.154 82.5687C626.643 84.3752 632.509 85.7924 639.572 86.7705C642.994 87.2795 645.747 87.8085 647.782 88.3674C649.957 88.9662 651.543 89.7547 652.62 90.7727C653.768 91.8606 654.356 93.5173 654.356 95.6931C654.356 98.1183 653.359 100.055 651.393 101.452C649.508 102.779 646.774 103.428 643.034 103.428C640.739 103.428 638.644 103.109 636.799 102.48C634.873 101.821 633.307 100.723 632.14 99.2262C631.132 97.9387 630.474 96.3318 630.175 94.4455H607.23L607.19 94.4156ZM785.888 119.566H752.668C752.189 119.566 751.78 119.227 751.691 118.758L745.855 88.3674L743.54 71.3307L741.236 88.3175L735.689 118.758C735.599 119.227 735.19 119.576 734.712 119.576H702.091C701.622 119.576 701.223 119.257 701.123 118.798L682.568 37.9559C682.498 37.6564 682.568 37.347 682.757 37.1075C682.947 36.868 683.236 36.7282 683.536 36.7282H709.573C710.051 36.7282 710.46 37.0576 710.55 37.5267L718.331 75.8518L721.055 92.1999L723.399 75.9117L729.993 37.5566C730.073 37.0776 730.492 36.7282 730.981 36.7282H758.514C759.003 36.7282 759.422 37.0776 759.502 37.5566L765.936 75.8818L768.141 92.3895L770.705 75.9017L778.496 37.5267C778.586 37.0576 778.995 36.7282 779.473 36.7282H804.463C804.762 36.7282 805.051 36.868 805.241 37.1075C805.431 37.347 805.5 37.6564 805.431 37.9559L786.875 118.798C786.776 119.247 786.367 119.576 785.908 119.576L785.888 119.566ZM753.496 117.57H785.1L803.196 38.7243H780.271L772.65 76.2511L769.517 96.4117C769.438 96.9007 769.019 97.26 768.53 97.26H767.632C767.133 97.26 766.714 96.8907 766.644 96.3917L763.951 76.1812L757.666 38.7243H731.819L725.374 76.2211L722.541 95.9526C722.471 96.4416 722.052 96.8109 721.554 96.8109H720.656C720.167 96.8109 719.748 96.4616 719.668 95.9725L716.376 76.2111L708.764 38.7243H684.792L702.889 117.57H733.884L739.271 87.9981L742.104 67.079C742.174 66.5799 742.593 66.2107 743.091 66.2107H743.989C744.488 66.2107 744.907 66.5799 744.977 67.079L747.82 88.038L753.496 117.56V117.57ZM849.195 121.064C840.476 121.064 832.924 119.287 826.769 115.774C820.574 112.241 815.786 107.241 812.543 100.913C809.291 94.6351 807.645 87.2296 807.645 78.8959C807.645 69.8935 809.341 62.0588 812.693 55.6114C816.065 49.134 820.843 44.0539 826.919 40.5408C832.984 37.0177 840.176 35.2412 848.297 35.2412C857.924 35.2412 865.964 37.367 872.199 41.5488C878.444 45.7606 883.003 51.6391 885.746 59.0247C888.47 66.3504 889.347 74.7839 888.35 84.0957C888.3 84.6047 887.871 84.984 887.362 84.984H834.51C834.62 87.9981 835.199 90.633 836.256 92.8386C837.413 95.2639 839.069 97.0604 841.314 98.318C843.568 99.5855 846.152 100.204 849.205 100.204C852.786 100.204 855.649 99.5256 857.714 98.1982C859.779 96.8708 861.086 95.204 861.724 93.1281C861.854 92.7089 862.243 92.4195 862.682 92.4195H886.774C887.063 92.4195 887.342 92.5492 887.532 92.7688C887.721 92.9884 887.801 93.2778 887.761 93.5672C886.933 99.2262 884.739 104.157 881.247 108.229C877.746 112.281 873.246 115.474 867.85 117.7C862.453 119.936 856.178 121.074 849.215 121.074L849.195 121.064ZM848.297 37.2273C840.536 37.2273 833.672 38.924 827.916 42.2575C822.18 45.581 817.651 50.3816 814.469 56.5296C811.266 62.6975 809.64 70.2228 809.64 78.8959C809.64 86.9003 811.217 93.9964 814.319 99.9947C817.392 105.973 821.911 110.704 827.767 114.037C833.622 117.371 840.825 119.067 849.205 119.067C855.908 119.067 861.924 117.99 867.081 115.854C872.179 113.738 876.439 110.734 879.731 106.921C882.733 103.418 884.699 99.2162 885.597 94.4156H863.4C862.562 96.6113 861.016 98.4477 858.811 99.8749C856.417 101.412 853.195 102.2 849.225 102.2C845.873 102.2 842.88 101.482 840.356 100.055C837.782 98.6074 835.807 96.4616 834.48 93.697C833.183 90.9923 832.515 87.7187 832.515 83.9859C832.515 83.437 832.964 82.9879 833.513 82.9879H886.484C887.302 74.3348 886.435 66.5101 883.911 59.7134C881.307 52.727 877.007 47.1679 871.122 43.1956C865.226 39.2334 857.554 37.2273 848.337 37.2273H848.297ZM862.542 69.5641H833.602C833.333 69.5641 833.074 69.4543 832.884 69.2547C832.695 69.0551 832.595 68.7956 832.605 68.5261C832.715 66.0709 833.263 63.8752 834.241 61.9689C835.538 59.5038 837.403 57.5576 839.787 56.1703C842.192 54.793 845.055 54.0943 848.297 54.0943C851.339 54.0943 854.073 54.7431 856.407 56.0106C858.771 57.3081 860.617 59.1744 861.894 61.5897C862.901 63.476 863.45 65.8114 863.54 68.5361C863.54 68.8056 863.45 69.0651 863.261 69.2647C863.071 69.4643 862.812 69.5641 862.542 69.5641ZM834.67 67.568H861.485C861.325 65.6018 860.866 63.9052 860.138 62.5279C859.041 60.4719 857.465 58.865 855.45 57.7672C853.414 56.6593 851.01 56.0904 848.297 56.0904C845.414 56.0904 842.88 56.6992 840.785 57.9069C838.73 59.0946 837.124 60.7713 836.017 62.8971C835.308 64.2645 834.859 65.8314 834.68 67.578L834.67 67.568ZM924.453 119.566H899.164C898.615 119.566 898.166 119.117 898.166 118.568V37.7263C898.166 37.1774 898.615 36.7282 899.164 36.7282H922.058C922.577 36.7282 923.006 37.1275 923.056 37.6465L923.904 47.5771C925.789 43.3653 928.513 40.3711 932.024 38.6345C935.985 36.6783 940.544 35.6903 945.561 35.6903H950.2C950.749 35.6903 951.198 36.1394 951.198 36.6883V60.4918C951.198 61.0408 950.749 61.4899 950.2 61.4899C949.552 61.4899 948.804 61.4599 947.966 61.41C947.128 61.3601 946.17 61.3402 945.113 61.3402C940.204 61.3402 936.274 62.0388 933.421 63.4161C930.648 64.7535 928.642 66.6698 927.445 69.095C926.218 71.6001 925.54 74.764 925.45 78.4867V118.578C925.45 119.127 925.001 119.576 924.453 119.576V119.566ZM900.161 117.57H923.455V78.4468C923.555 74.4047 924.293 70.9714 925.65 68.1968C927.036 65.3623 929.361 63.1367 932.543 61.5997C935.665 60.0926 939.885 59.3341 945.103 59.3341C946.2 59.3341 947.207 59.364 948.075 59.4139C948.474 59.4339 948.844 59.4539 949.193 59.4638V37.6764H945.552C940.843 37.6764 936.583 38.5946 932.902 40.421C929.321 42.1876 926.647 45.5311 924.951 50.3417C924.812 50.7409 924.433 51.0104 924.014 51.0104H923.116C922.597 51.0104 922.168 50.6111 922.118 50.0921L921.151 38.7343H900.171V117.58L900.161 117.57ZM991.49 121.064C985.834 121.064 980.706 120.395 976.247 119.077C971.768 117.76 967.857 115.864 964.635 113.458C961.393 111.033 958.829 108.109 957.024 104.745C955.208 101.372 954.29 97.5594 954.29 93.4175C954.29 92.8686 954.739 92.4195 955.288 92.4195H980.128C980.647 92.4195 981.076 92.8087 981.125 93.3277C981.305 95.224 981.864 96.781 982.791 97.9786C983.729 99.1862 984.946 100.025 986.522 100.564C988.158 101.122 990.034 101.412 992.109 101.412C995.371 101.412 997.795 100.873 999.311 99.7951C1000.74 98.787 1001.44 97.4397 1001.44 95.6731C1001.44 94.0762 1001.06 92.9085 1000.33 92.2099C999.501 91.4314 998.164 90.7827 996.339 90.2737C994.393 89.7347 991.71 89.2157 988.378 88.7267C981.155 87.7286 975.13 86.2715 970.491 84.3951C965.733 82.4789 962.131 79.7342 959.787 76.2411C957.443 72.7479 956.256 68.2068 956.256 62.7374C956.256 57.2681 957.802 52.3677 960.864 48.2258C963.897 44.1038 968.197 40.8702 973.634 38.6146C979.021 36.3789 985.345 35.2412 992.418 35.2412C999.491 35.2412 1005.23 36.329 1010.31 38.4649C1015.44 40.6206 1019.55 43.6946 1022.55 47.607C1025.55 51.5493 1027.17 56.1703 1027.38 61.3502C1027.39 61.6196 1027.29 61.8891 1027.1 62.0787C1026.91 62.2783 1026.66 62.3881 1026.39 62.3881H1001.55C1001 62.3881 1000.55 61.939 1000.55 61.3901C1000.55 59.913 1000.2 58.7353 999.481 57.8071C998.753 56.8689 997.745 56.1403 996.478 55.6613C995.151 55.1622 993.525 54.9027 991.67 54.9027C989.096 54.9027 987.051 55.4217 985.585 56.4497C984.208 57.4079 983.54 58.7353 983.54 60.4918C983.54 61.9091 983.949 62.967 984.786 63.7155C985.704 64.5439 987.32 65.2525 989.595 65.8015C991.999 66.3903 995.151 66.9392 998.982 67.4283C1005.93 68.3365 1011.65 69.7737 1016.02 71.6999C1020.48 73.6761 1023.8 76.4507 1025.9 79.9638C1027.97 83.457 1029.03 87.9781 1029.03 93.4275C1029.03 99.316 1027.42 104.386 1024.26 108.488C1021.12 112.56 1016.67 115.714 1011.03 117.87C1005.46 119.996 998.892 121.083 991.52 121.083L991.49 121.064ZM956.295 94.4156C956.425 97.8389 957.263 100.993 958.779 103.797C960.445 106.901 962.82 109.606 965.832 111.852C968.865 114.117 972.566 115.904 976.816 117.161C981.095 118.429 986.034 119.067 991.5 119.067C998.623 119.067 1004.95 118.029 1010.29 115.993C1015.58 113.977 1019.74 111.033 1022.65 107.26C1025.55 103.518 1027.01 98.8569 1027.01 93.4275C1027.01 88.3474 1026.06 84.1656 1024.16 80.9918C1022.29 77.8479 1019.26 75.3328 1015.18 73.5364C1010.99 71.69 1005.45 70.3027 998.703 69.4244C994.802 68.9254 991.56 68.3664 989.096 67.7576C986.462 67.1089 984.607 66.2805 983.43 65.2126C982.173 64.0748 981.534 62.4879 981.534 60.5018C981.534 58.0766 982.512 56.1603 984.427 54.8129C986.243 53.5554 988.667 52.9166 991.66 52.9166C993.765 52.9166 995.62 53.216 997.177 53.8049C998.793 54.4237 1000.1 55.3619 1001.06 56.5994C1001.87 57.6474 1002.34 58.9249 1002.49 60.402H1025.33C1024.97 56.0605 1023.5 52.1781 1020.96 48.8346C1018.19 45.2017 1014.35 42.3373 1009.55 40.3212C1004.71 38.2852 998.942 37.2572 992.428 37.2572C985.914 37.2572 979.549 38.3351 974.402 40.4709C969.304 42.5868 965.294 45.6009 962.481 49.4235C959.677 53.226 958.261 57.7073 958.261 62.7574C958.261 67.8075 959.338 71.9894 961.463 75.1532C963.578 78.317 966.88 80.8022 971.259 82.5687C975.748 84.3752 981.614 85.7924 988.677 86.7705C992.099 87.2795 994.852 87.8085 996.887 88.3674C999.062 88.9662 1000.65 89.7547 1001.73 90.7727C1002.87 91.8606 1003.46 93.5173 1003.46 95.6931C1003.46 98.1183 1002.46 100.055 1000.5 101.452C998.613 102.779 995.88 103.428 992.139 103.428C989.844 103.428 987.749 103.109 985.904 102.48C983.978 101.821 982.412 100.723 981.245 99.2262C980.238 97.9387 979.579 96.3318 979.28 94.4455H956.335L956.295 94.4156Z" fill="black"/>
</g>
<defs>
<clipPath id="clip0_1901_711">
<rect width="1029" height="128" fill="white"/>
</clipPath>
</defs>
</svg>
