<svg width="93" height="93" viewBox="0 0 93 93" fill="none" xmlns="http://www.w3.org/2000/svg">
<rect x="0.5" y="0.5" width="92" height="92" rx="46" fill="black"/>
<path d="M23.6175 53.2822C23.6341 53.2838 23.6501 53.2844 23.6661 53.2844C23.9569 53.2844 24.2045 53.0616 24.2294 52.7665C24.2852 52.1076 24.3659 51.4437 24.4682 50.7754C24.5157 50.4664 24.3035 50.1778 23.9945 50.1303C23.6822 50.0844 23.3969 50.295 23.3494 50.604C23.2427 51.2977 23.1598 51.987 23.1017 52.6703C23.0752 52.982 23.3063 53.2562 23.6175 53.2822Z" fill="white"/>
<path d="M64.171 25.2617C64.1563 25.2532 64.1401 25.2486 64.1254 25.2402C64.0953 25.223 64.0655 25.2056 64.035 25.1887L56.1199 20.6858C52.35 18.4919 47.3794 18.9551 42.1182 21.9981C32.7147 27.6175 25.9123 38.6139 23.7529 48.4438C23.6855 48.7495 23.8789 49.0513 24.184 49.1182C24.487 49.185 24.7915 48.9921 24.8584 48.687C26.9675 39.0872 33.5999 28.4084 42.6919 22.9737C47.5784 20.148 52.1438 19.6825 55.5555 21.667L59.5387 23.9334C59.5239 23.9326 59.5084 23.9338 59.4936 23.9331C59.472 23.9321 59.4497 23.9336 59.4282 23.9328C56.2764 23.8026 52.9812 24.9989 50.2679 26.5583C50.2478 26.5698 50.2281 26.5778 50.208 26.5894C39.7829 32.609 31.0531 47.4478 31.0799 59.6883C31.0939 62.897 31.7529 66.4313 33.5226 69.1058L29.3696 66.7422C26.0154 64.7859 24.1548 60.6462 24.1304 55.0864C24.1293 54.7747 23.8762 54.5226 23.5644 54.5226H23.5622C23.2493 54.5237 22.9973 54.7785 22.9984 55.0909C23.0243 61.0685 25.0845 65.5537 28.8047 67.7233L36.8856 72.3213C36.894 72.3261 36.9036 72.3241 36.9121 72.3283C36.9164 72.3308 36.92 72.3343 36.9243 72.3368C41.2645 74.8345 46.5229 73.5284 50.8973 71.0029C61.4657 64.9009 70.0359 50.0391 70.0016 37.8737C69.9845 31.8944 67.9138 27.4153 64.171 25.2617ZM50.3312 70.0223C40.3288 75.8023 32.2532 71.3241 32.2197 59.6871C32.1863 47.8092 40.658 33.4122 50.7729 27.5717C60.6261 21.8709 68.8357 26.1243 68.8695 37.877C68.9027 49.6809 60.5862 64.101 50.3312 70.0223Z" fill="white"/>
<path d="M51.8232 29.6921C42.4471 35.1049 34.5518 48.7677 34.5822 59.528C34.6111 69.3919 40.8665 72.7567 49.2821 67.9008C58.6493 62.4925 66.5368 48.8164 66.5059 38.0362C66.4786 28.1588 60.1778 24.869 51.8232 29.6921ZM48.716 66.9202C40.8386 71.4675 35.7394 68.186 35.7143 59.5246C35.685 49.1204 43.321 35.9075 52.3892 30.6727C60.2898 26.1125 65.3505 29.4618 65.3738 38.0395C65.4037 48.4637 57.7754 61.6898 48.716 66.9202Z" fill="white"/>
<path d="M54.4909 35.166C54.4831 35.1666 54.4757 35.1659 54.4679 35.1666C53.1332 35.2808 51.6965 35.7632 50.2223 36.6139C44.2765 40.0465 39.7788 48.2386 39.7976 54.6857C39.807 58.0073 40.9656 60.5003 43.0606 61.7059C45.4824 63.0993 48.3901 62.3894 50.8165 60.9985C50.9484 60.9247 50.934 60.9285 50.9383 60.9258C56.7427 57.5216 61.3096 49.4682 61.291 42.9266C61.2783 38.4092 58.9818 34.7956 54.4909 35.166ZM57.5632 52.1034C56.9579 51.8239 56.3094 51.65 55.6215 51.592C55.9486 49.8797 56.1369 48.0593 56.1524 46.2219L60.1185 43.9321C59.9335 46.6118 58.9968 49.4768 57.5632 52.1034ZM54.0455 56.9733C53.9991 57.0221 53.9504 57.0668 53.9036 57.115C54.5027 55.8372 55.0047 54.338 55.384 52.7123C55.9591 52.7456 56.5045 52.859 57.0036 53.0753C56.1017 54.5593 55.0706 55.8966 54.0455 56.9733ZM44.0767 60.9348C44.6569 59.9733 45.2979 59.0775 45.9775 58.2452C46.4853 59.5449 47.1555 60.5108 47.9664 61.008C46.6761 61.3895 45.3214 61.4718 44.0767 60.9348ZM40.9699 53.6802C41.154 50.9981 42.0872 48.1322 43.516 45.5048C44.1232 45.7852 44.7774 45.9511 45.4686 46.0076C45.1408 47.7236 44.9519 49.5483 44.9358 51.3905L40.9699 53.6802ZM47.1955 40.4596C46.5925 41.7429 46.0875 43.2514 45.706 44.8875C45.1276 44.8559 44.5791 44.7431 44.0777 44.5259C44.9854 43.0291 45.9513 41.7408 47.1955 40.4596ZM57.0056 36.6672C56.423 37.6267 55.7817 38.5198 55.1035 39.3492C54.594 38.0502 53.9222 37.0844 53.1097 36.5873C54.7188 36.1119 56.0039 36.2344 57.0056 36.6672ZM51.0714 59.3781V53.8662C52.1612 53.2734 53.2141 52.8979 54.1945 52.7586C53.4765 55.6666 52.3537 58.1093 51.0714 59.3781ZM54.4584 51.5863C53.3858 51.6795 52.2447 52.0244 51.0714 52.5952V49.1555L55.0079 46.8828C54.9535 48.4795 54.7621 50.0776 54.4584 51.5863ZM51.0714 47.8481V44.4208C52.3034 43.6823 53.4951 42.7245 54.6107 41.5918C54.8559 42.7538 54.9934 44.1056 55.0159 45.5708L51.0714 47.8481ZM49.9393 38.2824V43.7617C48.8693 44.3375 47.8361 44.7034 46.8731 44.8401C47.5712 41.9706 48.6661 39.5732 49.9393 38.2824ZM51.0714 43.084V37.4691C51.5725 37.2569 52.0381 37.2638 52.4804 37.5188C53.2192 37.944 53.8296 38.9365 54.2698 40.3102C53.2644 41.4011 52.1884 42.3399 51.0714 43.084ZM46.619 45.9901C47.6726 45.8985 48.7873 45.5793 49.9393 45.0255V48.5017L46.0796 50.7301C46.1324 49.1089 46.3197 47.5008 46.619 45.9901ZM49.9393 49.8091V53.2149C48.73 53.9514 47.5629 54.8925 46.4718 56.0003C46.2294 54.8436 46.0942 53.4986 46.072 52.042L49.9393 49.8091ZM49.9393 54.5523V60.1608C49.4629 60.3429 49.0201 60.3217 48.5983 60.078C47.8601 59.6534 47.2503 58.6597 46.8114 57.2831C47.7933 56.2172 48.8447 55.2921 49.9393 54.5523ZM60.1445 42.6096L56.1249 44.9304C56.0611 43.3157 55.8525 41.8591 55.5164 40.6127C56.4058 39.5921 57.2306 38.4595 57.9723 37.237C59.3176 38.2968 60.0756 40.1713 60.1445 42.6096ZM40.9441 55.0026L44.963 52.6822C45.0261 54.2886 45.2327 55.7384 45.5658 56.9798C44.6733 58.0044 43.8483 59.1405 43.1096 60.3656C41.7689 59.309 41.0129 57.4381 40.9441 55.0026Z" fill="white"/>
</svg>
