<svg width="93" height="93" viewBox="0 0 93 93" fill="none" xmlns="http://www.w3.org/2000/svg">
<rect x="0.5" y="0.5" width="92" height="92" rx="46" fill="black"/>
<path d="M32.1664 69.5289C38.6261 73.4516 24.6813 64.9833 38.8279 73.5741C39.597 74.0173 40.5004 73.829 41.2705 73.385L59.0532 63.1184C60.6944 62.1704 61.9757 59.9499 61.9702 58.0633L61.8784 25.6366C61.8754 24.5448 61.4189 23.8122 60.8425 23.4642L54.1789 19.4185C53.4951 19.0354 52.6272 19.1018 51.7328 19.6114C24.2824 35.4612 37.8739 27.6135 33.9452 29.8819L33.943 29.8841C32.3097 30.8316 31.0361 33.0338 31.034 34.9101C31.0338 34.9156 31.0299 34.9199 31.0299 34.9254L31.083 54.0037C31.0841 54.3155 31.3372 54.5681 31.649 54.5681H31.6507C31.963 54.567 32.2162 54.3133 32.215 54.0004L32.1647 35.9314L37.6781 39.2785L37.7676 71.3829C37.7676 71.4597 37.7698 71.5354 37.7743 71.6095L32.7418 68.5543C32.4334 68.3774 32.2598 67.9463 32.2526 67.3454L32.2349 61.025C32.2338 60.7133 31.9807 60.4607 31.6689 60.4607H31.6673C31.3549 60.4618 31.1018 60.7155 31.1029 61.0284L31.1206 67.3537C31.1327 68.3769 31.5081 69.1519 32.1664 69.5289ZM58.4872 62.1378L40.7045 72.4044C39.5535 73.0709 38.9052 72.5333 38.9019 71.3818L38.8096 38.9551C38.8057 37.4903 39.8825 35.6296 41.1611 34.8917L50.7032 29.3823L58.9476 24.6267C59.9774 24.0224 60.7427 24.3542 60.7463 25.6399L60.8381 58.0666C60.8425 59.5353 59.7657 61.3993 58.4872 62.1378ZM52.2939 20.5942C52.8295 20.2897 53.3016 20.225 53.6084 20.3958L58.6922 23.4825C58.6088 23.5216 58.5253 23.5677 58.4418 23.6147C58.4203 23.6266 58.3993 23.6314 58.3777 23.6439L49.5077 28.7652L40.8831 33.7403C40.7697 33.6715 34.9768 30.159 35.3441 30.3817L52.2939 20.5942ZM34.2385 31.0401C34.3519 31.1088 40.2296 34.6698 39.8549 34.4428C38.7967 35.36 38.0204 36.7884 37.7748 38.0104L32.1791 34.6153C32.2995 33.3188 33.1711 31.8077 34.2385 31.0401Z" fill="white"/>
<path d="M31.6634 59.1517C31.9757 59.1506 32.2289 58.8969 32.2278 58.584L32.2217 56.3906C32.2206 56.0788 31.9674 55.8262 31.6556 55.8262H31.654C31.3417 55.8273 31.0885 56.0811 31.0896 56.3939L31.0957 58.5873C31.0968 58.8991 31.35 59.1517 31.6617 59.1517H31.6634Z" fill="white"/>
<path d="M59.1112 29.0798C58.936 28.9792 58.7199 28.9798 58.5457 29.0804L40.4641 39.52C40.2883 39.6217 40.1805 39.8091 40.181 40.012L40.2534 65.3919C40.2543 65.6999 40.5036 65.9563 40.8195 65.9563C40.9173 65.9563 41.0152 65.9309 41.1025 65.8806L59.1836 55.4409C59.3594 55.3392 59.4672 55.1518 59.4667 54.949L59.3948 29.569C59.3943 29.3673 59.2859 29.181 59.1112 29.0798ZM41.3828 64.4113L41.3142 40.3365L58.2655 30.5497L58.3335 54.6245L41.3828 64.4113Z" fill="white"/>
<path d="M47.6739 34.0973L52.4681 31.3296C52.7389 31.1732 52.8318 30.8271 52.6754 30.5563C52.5184 30.286 52.1707 30.1931 51.902 30.349L47.1079 33.1167C46.837 33.2732 46.7441 33.6192 46.9006 33.89C47.0574 34.1616 47.4045 34.253 47.6739 34.0973Z" fill="white"/>
<path d="M50.2304 61.3655C49.2548 61.9288 48.4925 63.2466 48.4952 64.366C48.4999 65.7201 49.6283 66.3615 50.8058 65.681C51.7754 65.1216 52.5327 63.8066 52.5299 62.6867C52.5264 61.3333 51.4052 60.6899 50.2304 61.3655ZM50.2398 64.7004C49.8228 64.9417 49.6283 64.8414 49.6273 64.3632C49.6257 63.649 50.1718 62.7066 50.7964 62.3462C51.2399 62.0903 51.3969 62.2507 51.3978 62.6894C51.3995 63.4036 50.8583 64.3433 50.2398 64.7004Z" fill="white"/>
<path d="M34.482 44.1572C34.7451 44.1506 35.0486 43.9029 35.048 43.5895L35.0425 41.431C35.0419 41.1192 34.7882 40.8666 34.4764 40.8666H34.4748C34.1625 40.8671 33.9098 41.1214 33.9104 41.4343L33.9159 43.5928C33.9165 43.9046 34.1702 44.1572 34.482 44.1572Z" fill="white"/>
<path d="M33.9159 48.6944C33.9165 49.0061 34.1702 49.2588 34.482 49.2588H34.4836C34.7959 49.2582 35.0486 49.0039 35.048 48.6911L35.0425 46.533C35.0419 46.2207 34.7429 46.0024 34.4748 45.9687C34.1625 45.9692 33.9098 46.2235 33.9104 46.5364L33.9159 48.6944Z" fill="white"/>
<path d="M50.5499 25.0446C51.4883 25.5868 52.9007 25.5846 53.8306 25.0441C54.3652 24.7334 54.6708 24.2696 54.6703 23.7705C54.6697 23.2697 54.3602 22.8042 53.8207 22.4925C52.8987 21.9607 51.457 21.9596 50.5394 22.4936C50.0055 22.8042 49.6992 23.268 49.7003 23.7666C49.7009 24.268 50.011 24.7334 50.5499 25.0446ZM51.1088 23.472C51.6768 23.1415 52.6802 23.1417 53.2546 23.4731C53.4498 23.5853 53.5382 23.7069 53.5382 23.7716C53.5388 23.8357 53.452 23.9545 53.2618 24.0651C52.6836 24.4017 51.6997 24.4012 51.116 24.064C50.9208 23.9518 50.8324 23.8302 50.8324 23.7649C50.8318 23.6992 50.9175 23.5831 51.1088 23.472Z" fill="white"/>
<path d="M46.8977 53.7108L43.7342 55.5371C43.4633 55.6936 43.3705 56.0396 43.5269 56.3105C43.6838 56.582 44.0308 56.6734 44.3002 56.5177L47.4638 54.6914C47.7346 54.535 47.8275 54.1889 47.671 53.9181C47.5141 53.6467 47.1669 53.5538 46.8977 53.7108Z" fill="white"/>
<path d="M46.8977 56.6886L43.7342 58.5149C43.4633 58.6713 43.3705 59.0174 43.5269 59.2882C43.6838 59.5598 44.0308 59.6511 44.3002 59.4955L47.4638 57.6692C47.7346 57.5127 47.8275 57.1667 47.671 56.8958C47.5141 56.6244 47.1669 56.531 46.8977 56.6886Z" fill="white"/>
<path d="M55.348 48.8315L52.1845 50.6578C51.9137 50.8143 51.8208 51.1603 51.9772 51.4311C52.1341 51.7027 52.4812 51.7941 52.7506 51.6384L55.9141 49.8121C56.1849 49.6556 56.2778 49.3096 56.1214 49.0388C55.9644 48.7673 55.6178 48.6745 55.348 48.8315Z" fill="white"/>
<path d="M55.348 51.8098L52.1845 53.6362C51.9137 53.7926 51.8208 54.1386 51.9772 54.4095C52.1341 54.6811 52.4812 54.7724 52.7506 54.6168L55.9141 52.7904C56.1849 52.634 56.2778 52.2879 56.1214 52.0171C55.9644 51.7451 55.6178 51.6534 55.348 51.8098Z" fill="white"/>
<path d="M54.688 35.6042C54.4127 35.3759 54.0423 35.3267 53.6758 35.4677L51.3653 36.3328C50.7696 36.5539 50.2766 37.2228 50.1525 37.8639C50.0198 38.5273 49.8429 39.1856 49.6262 39.8207C49.4681 40.2845 49.4947 40.7361 49.6987 41.0601C49.8418 41.2867 50.0591 41.4359 50.3161 41.4862C49.66 42.9439 48.8341 44.3584 47.8872 45.6458C47.4711 45.205 46.7007 45.2282 46.1045 45.9123C45.6568 46.4247 45.1764 46.9078 44.6784 47.3462C44.161 47.7967 43.8614 48.5595 43.9653 49.1593L44.3744 51.5881C44.5297 52.4446 45.4503 52.7528 46.2472 52.058C50.6074 48.3135 53.976 42.4818 55.039 36.8358C55.1341 36.3173 55.0058 35.8679 54.688 35.6042ZM53.9262 36.629C52.9086 42.0318 49.6837 47.6143 45.5064 51.2017C45.4932 51.2134 45.4799 51.2244 45.4633 51.236L45.0808 48.9663C45.0482 48.7778 45.1903 48.402 45.4246 48.198C45.9614 47.7248 46.4771 47.2069 46.9575 46.6569C47.0127 46.5933 47.0625 46.5524 47.1305 46.5137L47.4317 46.9194C47.5373 47.0609 47.702 47.145 47.8784 47.1477C48.0199 47.14 48.2217 47.0703 48.3305 46.9321C49.734 45.1522 50.9175 43.0998 51.7522 40.9981C51.8285 40.8063 51.7937 40.588 51.6621 40.4288C51.5305 40.2696 51.3216 40.1972 51.1198 40.2331L50.6632 40.3204C50.6693 40.2823 50.6804 40.237 50.6975 40.1861C50.9302 39.5046 51.1204 38.7981 51.263 38.0828C51.3798 37.4786 52.0084 37.2721 51.7599 37.3935L53.9334 36.5809C53.9318 36.5959 53.929 36.6119 53.9262 36.629Z" fill="white"/>
<path d="M46.8602 44.4596C47.1675 44.4054 47.3731 44.1113 47.3184 43.8035C47.1222 42.6957 47.5721 41.4674 48.4378 40.7477C48.6782 40.5482 48.7108 40.1911 48.5107 39.9506C48.3112 39.7107 47.9541 39.677 47.7136 39.8777C46.5274 40.8638 45.9348 42.4823 46.204 44.0013C46.2592 44.3125 46.5566 44.5143 46.8602 44.4596Z" fill="white"/>
</svg>
