<svg width="93" height="93" viewBox="0 0 93 93" fill="none" xmlns="http://www.w3.org/2000/svg">
<rect x="0.5" y="0.5" width="92" height="92" rx="46" fill="black"/>
<path d="M49.868 23.3276L51.5545 22.347C51.8248 22.19 51.9166 21.8434 51.7591 21.5731C51.6021 21.3017 51.2544 21.2105 50.9852 21.3686L49.2987 22.3492C49.0284 22.5062 48.9366 22.8528 49.0942 23.1231C49.251 23.3929 49.597 23.4848 49.868 23.3276Z" fill="white"/>
<path d="M67.4075 31.6418L64.1362 29.7176C63.9598 29.6137 63.7426 29.6126 63.5646 29.7165L58.4965 32.6621L58.5173 21.8069C58.518 21.5947 58.3438 21.3883 58.2248 21.3188L54.9303 19.4057C54.7545 19.304 54.5373 19.3034 54.3615 19.4062L52.8027 20.3122C52.5324 20.4692 52.4406 20.8158 52.5982 21.0861C52.7546 21.3564 53.1006 21.446 53.3721 21.2906L54.6462 20.5499L56.811 21.8073L43.1463 29.7519C43.033 29.6444 41.3874 28.0828 41.5007 28.1903L47.9582 24.4376C48.228 24.2806 48.3203 23.934 48.1627 23.6642C48.0058 23.3928 47.6586 23.3022 47.3889 23.4591L40.641 27.3805C40.5887 27.3322 39.7875 26.5687 39.7258 26.5331L36.4114 24.62C36.2367 24.5194 36.02 24.5194 35.8453 24.62L25.6522 30.5049C25.6491 30.5066 25.6454 30.5057 25.6423 30.5075C25.4671 30.6081 25.3593 30.795 25.3587 30.9967L25.3134 61.4721C25.3012 65.6008 28.221 70.6559 31.8234 72.7415C33.4384 73.6712 35.2756 74.0718 36.8746 73.1433L43.8532 69.0819C44.0902 69.288 44.3399 69.4779 44.6128 69.6371L48.4961 71.8465C48.5001 71.8488 48.5047 71.8477 48.5087 71.8498C48.5101 71.8507 48.5113 71.8518 48.5126 71.8526C50.6999 73.1114 53.3254 72.4801 55.5218 71.2119C60.1366 68.5474 63.9609 62.4646 64.7075 56.9594L65.512 56.4961C66.858 55.7211 67.6059 54.133 67.6186 52.023L67.6866 32.1316C67.6872 31.9208 67.5116 31.7033 67.4075 31.6418ZM63.8476 30.8613L65.9996 32.1272C63.2218 33.7426 55.7361 38.096 52.3505 40.0649L50.7038 38.5006L63.8476 30.8613ZM38.4499 42.5735L36.2601 41.3105L45.3237 36.0789L47.5088 37.3392L38.4499 42.5735ZM49.8463 37.6894L49.0328 36.9252C48.9179 36.8173 47.6502 36.1185 45.6067 34.9352C45.4309 34.8346 45.2154 34.8346 45.0407 34.9352C44.9275 35.0007 34.7062 40.918 34.82 40.8432C34.6128 40.9794 34.5831 41.1709 34.5623 41.3289L34.5054 66.7715C34.5054 68.296 33.522 68.6373 32.3994 67.9683C30.9638 67.1408 29.751 65.0425 29.751 63.388L29.8068 33.2453L39.3604 27.7249C39.474 27.8325 42.8931 31.0743 42.6754 30.8679C42.8195 31.0053 43.1166 31.0817 43.3498 30.947L57.3835 22.7873L57.3631 33.3207L49.8463 37.6894ZM36.1284 25.7636L38.3107 27.0234L29.243 32.2588L27.0601 30.9994L36.1284 25.7636ZM32.3894 71.7614C29.101 69.8571 26.4344 65.2431 26.4455 61.4749L26.4891 31.9794L28.6748 33.241L28.619 63.3869C28.619 65.4664 30.0313 67.9097 31.8256 68.9439C33.7737 70.1106 35.6375 69.0875 35.6375 66.7726L35.6922 42.2939L37.8889 43.5609L37.7994 68.6814C37.7921 70.0486 37.4251 71.5189 36.2444 72.197C35.245 72.7702 33.8764 72.6171 32.3894 71.7614ZM45.1778 68.6565C43.6593 67.7704 42.8174 65.8705 42.8064 63.3079C42.797 58.7365 45.4801 53.1678 49.3247 49.7727C51.6079 47.8278 54.8668 45.9911 57.4675 47.5052L58.4824 48.0829C57.4884 48.1999 56.2197 48.5969 54.8966 49.3603C49.7964 52.3054 45.5448 59.5602 45.5575 65.5217C45.5626 66.7072 45.7933 68.1923 46.275 69.2806L45.1778 68.6565ZM54.9557 70.2313C50.2791 72.9309 46.7083 70.8077 46.6935 65.519C46.6775 59.9962 50.5923 53.1539 55.4621 50.3415C59.9874 47.7231 63.7014 49.6196 63.7166 55.0401C63.7327 60.6181 59.8024 67.4332 54.9557 70.2313ZM66.4866 52.0175C66.4766 53.7068 65.9299 54.9494 64.9471 55.5155L64.8267 55.5848C64.8338 55.4021 64.8492 55.2172 64.8487 55.0368C64.8404 52.0546 63.7929 49.812 61.8997 48.7225C61.7863 48.6572 57.9185 46.4583 58.0319 46.5241C54.9594 44.7347 51.2895 46.613 48.5828 48.917C44.5045 52.5194 41.6638 58.4385 41.6743 63.3112C41.683 65.3345 42.176 67.0081 43.0746 68.2252L38.6208 70.8167C38.6319 70.782 38.6356 70.7408 38.6461 70.7055C38.8314 70.09 38.9284 69.3112 38.932 68.688C39.0723 31.9788 38.9054 76.2787 39.0227 43.5513C39.1583 43.4729 49.1968 37.6725 48.5624 38.039C48.9035 38.3611 47.3271 36.8718 51.8988 41.1888C52.0473 41.3186 52.3239 41.3909 52.5529 41.2573C54.0467 40.3885 65.4446 33.7597 66.5512 33.1161L66.4866 52.0175Z" fill="white"/>
<path d="M54.9115 59.7818C53.0376 60.8641 51.5744 63.3985 51.5805 65.5527L51.5816 65.9136C51.5822 66.1154 51.6905 66.3017 51.8652 66.4028C52.0374 66.502 52.2535 66.5043 52.4307 66.4023L58.5465 62.8712C58.7223 62.7695 58.8301 62.5821 58.8296 62.3792L58.8285 62.0183C58.8216 59.6369 56.9831 58.5844 54.9115 59.7818ZM52.7657 64.9015C53.0194 63.309 54.157 61.5246 55.4776 60.7624C56.7462 60.03 57.6917 60.4687 57.6964 62.0216L52.7657 64.9015Z" fill="white"/>
<path d="M55.4715 58.9703C56.5107 58.3705 57.3222 56.9665 57.3189 55.7742C57.3154 54.3441 56.1397 53.6689 54.8955 54.3884C53.8591 54.987 53.0492 56.3916 53.0526 57.5867C53.056 59.0074 54.2279 59.6883 55.4715 58.9703ZM55.4615 55.369C55.9179 55.1041 56.1855 55.19 56.1868 55.7775C56.189 56.5746 55.6025 57.5878 54.9055 57.9897C54.4382 58.2629 54.1859 58.1477 54.1846 57.5834C54.1824 56.7973 54.7789 55.7625 55.4615 55.369Z" fill="white"/>
</svg>
