<svg width="93" height="92" viewBox="0 0 93 92" fill="none" xmlns="http://www.w3.org/2000/svg">
<path d="M18.5319 43.424L29.3879 65.872C29.3879 66.056 29.5719 66.24 29.7559 66.24C32.1479 67.712 40.4279 72.496 40.7959 72.68C40.9799 72.864 41.1639 72.864 41.5319 72.68C41.8999 72.496 47.7879 69 50.1799 67.712V73.416C46.6839 75.808 43.9239 80.592 43.9239 84.64C43.9239 89.24 47.4199 91.448 51.4679 89.056C55.3319 86.848 58.2759 81.696 58.0919 77.464C58.0919 76.912 57.7239 76.544 57.1719 76.544C56.6199 76.544 56.2519 76.912 56.2519 77.464C56.2519 81.144 53.6759 85.56 50.5479 87.4C47.7879 89.056 45.7639 87.952 45.7639 84.64C45.7639 80.96 48.3399 76.544 51.4679 74.704C51.8359 74.52 52.0199 74.152 52.0199 73.968V66.608L63.2439 60.168C63.4279 59.984 63.6119 59.8 63.6119 59.616C67.2919 47.472 70.2359 37.904 74.2839 24.656C74.2839 24.472 74.2839 24.104 74.0999 23.92C73.9159 23.736 63.2439 8.83199 63.2439 8.64799C63.2439 8.46399 63.0599 8.46399 63.0599 8.46399L52.2039 2.02399C52.0199 1.83999 51.6519 1.83999 51.2839 2.02399L47.7879 4.04799C47.4199 4.23199 47.2359 4.78399 47.4199 5.33599C47.7879 5.70399 48.3399 5.88799 48.7079 5.51999L51.8359 3.67999L60.8519 9.19999L40.9799 20.608C40.7959 20.424 31.2279 14.904 31.9639 15.272L39.1399 11.04C39.5079 10.856 39.6919 10.304 39.5079 9.75199C39.3239 9.38399 38.7719 9.19999 38.2199 9.38399L29.5719 14.352C29.3879 14.352 29.2039 14.72 29.2039 14.904C17.6119 45.08 18.5319 42.504 18.5319 42.872C18.5319 43.056 18.5319 43.24 18.5319 43.424ZM30.6759 16.56C31.2279 16.928 40.6119 22.264 40.0599 21.896C35.6439 33.304 33.4359 38.824 29.9399 47.84C29.3879 47.472 20.0039 42.136 20.5559 42.504L30.6759 16.56ZM72.4439 24.288L36.9319 60.72C36.7479 60.536 33.4359 53.544 33.6199 53.728L68.5799 18.768L72.4439 24.288ZM66.5559 43.976L41.1639 69.552L37.6679 62.56L71.5239 27.784L66.5559 43.976ZM41.8999 22.264L60.1159 11.776L36.9319 34.776L41.8999 22.264ZM32.6999 52.072L31.4119 49.312C31.4119 49.128 35.6439 38.64 35.4599 39.008L63.0599 11.224L67.2919 17.296L32.6999 52.072ZM31.0439 64.952L21.6599 45.448C21.8439 45.632 30.3079 50.416 29.7559 50.232L39.1399 69.552L31.0439 64.952ZM62.1399 58.88L44.1079 69.368L65.4519 47.84L62.1399 58.88Z" fill="white"/>
<path d="M42.6361 9.016L45.9481 7.176C46.3161 6.992 46.5001 6.44 46.3161 5.888C45.9481 5.52 45.3961 5.336 45.0281 5.52L41.7161 7.36C41.3481 7.544 41.1641 8.096 41.3481 8.648C41.7161 9.2 42.2681 9.384 42.6361 9.016Z" fill="white"/>
</svg>
