<svg width="93" height="92" viewBox="0 0 93 92" fill="none" xmlns="http://www.w3.org/2000/svg">
<rect x="0.5" width="92" height="92" rx="46" fill="black"/>
<path d="M54.9769 23.6463C55.2565 23.8085 55.608 23.7094 55.7657 23.4373C55.9257 23.1623 55.8321 22.8091 55.5561 22.6491L53.5064 21.458C53.2315 21.2991 52.8777 21.3893 52.7177 21.6671C52.5576 21.942 52.6512 22.2952 52.9272 22.4552L54.9769 23.6463Z" fill="white"/>
<path d="M68.6552 30.2618L57.9708 24.0525C57.697 23.8937 57.3421 23.9849 57.1821 24.261C57.0221 24.5365 57.1156 24.8897 57.3917 25.0498L67.2149 30.7585L59.4296 35.2534L40.1438 24.0457L47.9288 19.551L50.8506 21.2485C51.1233 21.4074 51.4782 21.3161 51.6393 21.0395C51.7993 20.7645 51.7058 20.4113 51.4298 20.2513L48.2195 18.3858C48.0437 18.2822 47.8217 18.2816 47.6414 18.3847L24.2693 31.8787C24.18 31.9304 24.1079 32.0041 24.058 32.0907C24.0498 32.105 24.0521 32.1235 24.0451 32.1385C24.0101 32.2135 23.9808 32.2923 23.9808 32.3779C23.9808 32.3783 23.9811 32.3786 23.9811 32.379C23.9811 32.3795 23.9808 32.3797 23.9808 32.3802L24.0563 61.2404C24.0563 61.4455 24.1656 61.6348 24.3437 61.7373L44.7794 73.6138C44.7799 73.6141 44.7804 73.614 44.7809 73.6143C44.7806 73.6141 44.7812 73.6144 44.7809 73.6143C44.9599 73.7173 45.179 73.7177 45.3574 73.615L68.7307 60.1209C68.9098 60.0173 69.0191 59.8263 69.0191 59.6195L68.9425 30.7587C68.9425 30.5878 68.7782 30.3329 68.6552 30.2618ZM54.7245 39.3035L58.8531 36.9199V39.683L54.7245 42.1062V39.3035ZM54.1475 38.303L34.8624 27.096L38.9932 24.7111L58.2777 35.9184L54.1475 38.303ZM52.9959 38.9679L44.9942 43.5877C37.9992 39.5228 33.0711 36.6589 25.7082 32.3802L33.7096 27.7606L52.9959 38.9679ZM25.1369 33.3825L44.4174 44.5867L44.4894 72.111L25.2091 60.9063L25.1369 33.3825ZM45.6436 72.1174L45.5715 44.587L53.5707 39.9686V43.1141C53.5707 43.5609 54.0574 43.8361 54.4394 43.6116L59.7219 40.5106C59.8988 40.4069 60.007 40.2177 60.007 40.0131V36.2526L67.7909 31.7585L67.8642 59.2888L45.6436 72.1174Z" fill="white"/>
<path d="M60.4543 46.5147C60.1489 46.4494 59.8368 46.6455 59.7692 46.9581L57.0142 59.8493C56.9477 60.1609 57.146 60.4674 57.4581 60.5339C57.4987 60.5429 57.5393 60.5468 57.5798 60.5468C57.8458 60.5468 58.0846 60.3615 58.1432 60.0905L60.8983 47.1993C60.9647 46.8877 60.7664 46.5812 60.4543 46.5147Z" fill="white"/>
<path d="M51.5391 58.2499L49.3598 59.3818L51.3306 55.2594C51.8861 54.1568 51.5807 53.4852 51.3486 53.1827C50.9745 52.6925 50.3131 52.4891 49.5683 52.6424C48.6905 52.8232 47.6189 53.5466 47.2437 55.0335C47.1648 55.3428 47.353 55.6566 47.6617 55.7343C47.9716 55.811 48.2848 55.6239 48.3615 55.3163C48.6071 54.345 49.2911 53.8774 49.8015 53.772C50.0889 53.7145 50.3379 53.7607 50.4325 53.8841C50.5204 53.9979 50.5306 54.2824 50.2951 54.7506L47.575 60.4393C47.4679 60.6635 47.5164 60.9306 47.6944 61.103C47.8048 61.2095 47.9491 61.2652 48.0955 61.2652C48.1857 61.2652 48.277 61.2438 48.3615 61.2005L52.0709 59.2742C52.3537 59.1271 52.4642 58.779 52.3166 58.4961C52.1701 58.2127 51.8196 58.1046 51.5391 58.2499Z" fill="white"/>
<path d="M57.0773 54.7674C56.924 54.4869 56.5747 54.386 56.2941 54.5359L56.0395 54.675V50.729C56.0395 50.4602 55.8536 50.227 55.5921 50.1667C55.3251 50.103 55.0614 50.2349 54.9431 50.4771L51.6968 57.1591C51.5875 57.3844 51.6359 57.6549 51.8174 57.8278C51.9999 58.0019 52.2726 58.0363 52.4923 57.918L54.8856 56.616V57.9732C54.8856 58.2921 55.1437 58.5501 55.4626 58.5501C55.7814 58.5501 56.0395 58.2921 56.0395 57.9732V55.9883L56.8463 55.55C57.1257 55.3973 57.2294 55.0474 57.0773 54.7674ZM54.8856 55.3027L53.5211 56.0441L54.8856 53.2367V55.3027Z" fill="white"/>
<path d="M65.7187 46.4066C65.5362 46.2657 65.2883 46.2471 65.0843 46.3581L61.5191 48.3391C61.2408 48.494 61.1405 48.845 61.2949 49.1233C61.4504 49.4033 61.8031 49.5014 62.0803 49.3475L64.4646 48.0224L62.7823 54.4491C62.7011 54.7573 62.8859 55.0723 63.1936 55.1534C63.2431 55.1658 63.2916 55.172 63.34 55.172C63.5969 55.172 63.8302 55.0007 63.8978 54.741L65.9227 47.0083C65.9813 46.7852 65.9013 46.548 65.7187 46.4066Z" fill="white"/>
</svg>
