<svg width="93" height="92" viewBox="0 0 93 92" fill="none" xmlns="http://www.w3.org/2000/svg">
<rect x="0.5" width="92" height="92" rx="46" fill="black"/>
<path d="M24.4567 49.4238C24.4578 49.7415 24.7158 49.999 25.0336 49.999C25.3277 49.9973 25.6116 49.7398 25.6105 49.4204L25.5891 41.4456L30.126 44.0822C30.1448 52.1906 30.159 56.4285 30.2005 72.0376L25.6635 69.4009L25.6375 59.7092C25.6364 59.3915 25.3784 59.134 25.0606 59.134C25.0601 59.134 25.0595 59.134 25.0589 59.134C24.7406 59.1351 24.4826 59.3937 24.4837 59.7126L24.5107 69.7349C24.5113 69.94 24.6206 70.1293 24.7975 70.2319L30.4901 73.5402C30.4906 73.5404 30.4912 73.5403 30.4917 73.5406C30.4914 73.5404 30.492 73.5407 30.4917 73.5406C30.668 73.6433 30.8896 73.6444 31.0687 73.5413L68.2792 52.0577C68.4583 51.954 68.5682 51.763 68.5676 51.5562C68.5404 41.3838 68.5165 32.4348 68.4893 22.2644C68.4889 22.1458 68.4172 21.8914 68.2003 21.7658C68.1996 21.7654 68.1987 21.7657 68.198 21.7653L62.5094 18.4598C62.3302 18.355 62.1093 18.3561 61.9313 18.4587C41.8269 30.0655 62.6586 18.0387 24.7209 39.9417C24.5405 40.0461 24.433 40.2383 24.4324 40.4409C24.4324 40.4413 24.4327 40.4416 24.4327 40.442C24.4327 40.4424 24.4324 40.4427 24.4324 40.4431L24.4567 49.4238ZM39.6391 32.6612L44.1782 35.2991L42.6661 36.17L38.1289 33.5331L39.6391 32.6612ZM53.5299 42.6593C53.5233 42.1151 53.4218 41.6366 53.2459 41.2261L67.3643 33.0664C67.3645 33.1826 67.3672 34.5985 67.367 34.4824L53.5299 42.6593ZM46.8345 48.7297C47.2289 47.8773 47.4358 46.9128 47.4339 46.227C47.432 45.522 47.1998 44.6655 46.689 44.1757C47.9356 42.7559 50.8262 39.8692 52.0034 41.3516C52.537 42.0265 52.4121 43.1761 52.1838 44.0094C51.4974 46.5142 49.6612 48.4114 46.8345 48.7297ZM44.7509 64.2947L43.3182 65.1263L43.2899 53.178L43.6248 51.971C44.163 51.785 44.3934 51.611 44.6116 51.4602L44.7211 51.7229L44.7509 64.2947ZM31.3147 57.1181L34.9664 54.9626C35.6121 55.9501 36.9803 56.3827 38.5831 55.4939L36.4723 63.0879C36.4025 63.3403 36.5112 63.6085 36.7377 63.7409C36.9657 63.8726 37.252 63.8354 37.4369 63.6496L38.9158 62.1673L39.522 63.1415C39.6431 63.3358 39.8663 63.4412 40.0939 63.4079C40.3204 63.3753 40.5063 63.2113 40.5677 62.991L42.1456 57.3029L42.1658 65.8018L31.3545 72.0437C31.3449 68.4556 31.3242 60.6775 31.3147 57.1181ZM36.0525 51.0112C36.0559 51.0036 36.0653 51.0006 36.0684 50.9928C36.9567 48.7477 38.7118 47.3227 41.1505 47.0404C40.8185 47.7587 40.549 48.7431 40.5513 49.5376C40.5532 50.2524 40.7847 51.096 41.2983 51.587C40.5785 52.4082 39.7511 53.1925 39.2043 53.6459C36.1044 56.2153 34.8396 54.0297 36.0525 51.0112ZM34.5401 53.8744L31.3111 55.7807C31.311 55.6645 31.3092 53.7617 31.3093 53.8825L34.567 52.0032C34.4473 52.6602 34.4139 53.2215 34.5401 53.8744ZM40.0803 54.4172C40.7582 53.8419 41.6248 52.9712 42.1339 52.3923L42.1354 53.0219L39.8071 61.4158L39.5107 60.9397C39.3142 60.6241 38.8743 60.5742 38.6127 60.8371L38.1732 61.2777L40.0803 54.4172ZM41.7052 49.5342C41.7009 47.8995 42.9001 45.8831 44.2715 45.0912C45.7599 44.231 46.515 45.2135 46.2194 46.905C45.9421 48.493 44.8034 50.0434 43.7137 50.674C42.5874 51.3225 41.7097 50.9689 41.7052 49.5342ZM44.704 43.7028C44.0648 43.8443 43.6794 44.0801 43.2715 44.3784L43.2529 37.1697L44.685 36.3428L44.704 43.7028ZM42.1005 37.835L42.1204 45.4771C42.0201 45.5971 41.9272 45.7183 41.8404 45.8411C38.9099 45.8996 36.3622 47.3643 35.0554 50.3893L31.3026 52.5544L31.28 44.0823L42.1005 37.835ZM45.8715 50.2739C45.9114 50.2246 46.1198 49.9559 46.138 49.9303C46.6272 49.9382 47.3999 49.8515 48.1054 49.6688L50.2041 54.7034L48.946 54.8944C48.7364 54.9259 48.5612 55.0696 48.4897 55.2685L48.0068 56.606L45.8744 51.4915L45.8715 50.2739ZM67.3383 23.2639L67.3608 31.7359L52.5698 40.2843C52.4438 40.1803 52.1505 40.0114 52.2659 40.077C50.1878 38.8962 47.4385 41.5915 45.8569 43.3711L45.8369 35.6778C50.672 32.8862 60.259 27.3511 67.3383 23.2639ZM45.903 63.6441L45.8815 54.5068L47.5127 58.4202C47.6023 58.6354 47.8125 58.7751 48.0452 58.7751C48.0497 58.7751 48.0542 58.7751 48.0592 58.7751C48.297 58.7689 48.5071 58.6179 48.5877 58.3942L49.4582 55.9834L51.1072 55.7333C51.283 55.7068 51.4368 55.6009 51.5236 55.446C51.6109 55.2916 51.6216 55.1051 51.5535 54.9412L49.2017 49.3C51.2809 48.4304 52.8502 46.2327 53.3608 44.0996L67.3717 35.8199L67.4126 51.2255L45.903 63.6441ZM62.2186 19.6249L66.7613 22.2644L45.3333 34.636L40.7909 31.9961L62.2186 19.6249ZM36.977 34.1982L41.5193 36.838L30.7028 43.083C30.5221 42.9779 26.0436 40.3753 26.1604 40.4431L36.977 34.1982Z" fill="white"/>
<path d="M25.0527 56.5373C25.371 56.5362 25.6291 56.2776 25.628 55.9587L25.6189 52.594C25.6178 52.2763 25.3598 52.0188 25.042 52.0188H25.0403C24.722 52.0199 24.464 52.2785 24.4651 52.5974L24.4741 55.962C24.4752 56.2798 24.7333 56.5373 25.051 56.5373H25.0527Z" fill="white"/>
</svg>
