<svg width="93" height="92" viewBox="0 0 93 92" fill="none" xmlns="http://www.w3.org/2000/svg">
<rect x="0.5" width="92" height="92" rx="46" fill="black"/>
<path d="M73.7839 37.6216L61.2971 30.4091L61.3123 25.2996C61.3123 25.2991 61.3121 25.2988 61.3121 25.2984C61.3121 25.298 61.3123 25.2977 61.3123 25.2973C61.3123 25.0946 61.2042 24.9025 61.0239 24.7981L49.9159 18.3849C49.7367 18.2818 49.5147 18.2818 49.3378 18.3861L44.9165 20.9552L40.9206 18.6463C40.7414 18.5432 40.5217 18.5438 40.3425 18.6469L33.9502 22.3507C33.6753 22.5102 33.5806 22.8634 33.7406 23.1389C33.9012 23.4162 34.2554 23.508 34.5294 23.3491L40.6321 19.8126L43.7664 21.6236L39.6282 24.0282C39.6279 24.0284 39.6274 24.0283 39.627 24.0285C39.6266 24.0287 39.6265 24.0292 39.6261 24.0294L39.6248 24.0302C39.4398 24.1375 39.3381 24.4111 39.3374 24.5271L39.3014 36.6628C39.3003 36.8696 39.4107 37.0606 39.5898 37.1642L50.6979 43.5774C50.8758 43.6799 51.0956 43.6805 51.2737 43.578C51.2743 43.5776 51.2745 43.5769 51.2751 43.5765C51.2749 43.5766 51.2754 43.5764 51.2751 43.5765L60.989 37.9321C61.1659 37.8296 61.2752 37.6403 61.2763 37.4352L61.2932 31.7396L72.3532 38.1277C70.7586 39.0544 54.6923 48.3912 52.4357 49.7025C48.5404 47.4534 23.6412 33.0768 20.7148 31.3871L27.0418 27.7103C27.3178 27.5503 27.4114 27.1977 27.2514 26.9221C27.0902 26.6444 26.7364 26.5531 26.4626 26.7131L19.2872 30.8823C19.2819 30.8851 19.2755 30.8838 19.2702 30.8868C19.091 30.9899 18.9817 31.1798 18.9806 31.3854L18.9164 54.1316C18.9153 54.3384 19.0257 54.5294 19.2049 54.633L52.0838 73.6152C52.1729 73.6664 52.2731 73.6924 52.3723 73.6924C52.4715 73.6924 52.5706 73.667 52.6596 73.6157C52.6603 73.6154 52.6605 73.6146 52.6611 73.6143C52.6609 73.6144 52.6613 73.6141 52.6611 73.6143L73.732 61.3691C73.91 61.2665 74.0182 61.0772 74.0193 60.8722L74.0835 38.1259C74.0847 37.9192 73.9742 37.7282 73.7951 37.6245C73.7916 37.6225 73.7874 37.6235 73.7839 37.6216ZM59.585 25.2996C59.3987 25.4078 50.8712 30.3633 51.0216 30.2759L47.8229 28.4289L56.3863 23.4528L59.585 25.2996ZM55.2332 22.7885L46.6714 27.764L44.7894 26.6773L53.3515 21.7017L55.2332 22.7885ZM44.2154 27.6788C44.3324 27.7463 46.2136 28.8327 46.0949 28.7641V31.7623L44.2154 30.662V27.6788ZM49.6285 19.5512L52.2009 21.0363L43.6381 26.0126L41.0651 24.527C41.2638 24.4116 49.8837 19.4029 49.6285 19.5512ZM40.4879 25.5266L43.0615 27.0125V30.9927C43.0615 31.1978 43.1697 31.3871 43.3466 31.4908L46.38 33.2666C46.769 33.4927 47.2487 33.2105 47.2487 32.7686V29.43C47.6178 29.6431 50.5812 31.3541 50.4443 31.2751C50.444 31.3955 50.4103 42.7704 50.4124 42.0797L40.4564 36.3321L40.4879 25.5266ZM51.5666 42.0737C51.5677 41.6975 51.6001 30.6539 51.5983 31.2749L60.1551 26.3024L60.1236 37.1011L51.5666 42.0737ZM20.1322 32.3849C24.0993 34.6752 43.3349 45.7808 51.8585 50.7018L51.7976 72.1176L20.0714 53.8009L20.1322 32.3849ZM52.9526 72.1115C52.9623 68.6497 52.9374 77.5463 53.0125 50.7015C71.0787 40.204 71.2752 40.0899 72.9263 39.1305L72.8666 60.5381L52.9526 72.1115Z" fill="white"/>
<path d="M31.4994 23.7806L29.0712 25.1919C28.7951 25.3519 28.7016 25.7051 28.8616 25.9807C29.0203 26.2538 29.3725 26.3503 29.6503 26.1891L32.0786 24.7778C32.3547 24.6178 32.4482 24.2645 32.2882 23.989C32.1271 23.7124 31.7732 23.6206 31.4994 23.7806Z" fill="white"/>
<path d="M24.4952 39.1305C24.1774 39.1305 23.9182 39.388 23.9171 39.7057L23.8833 51.5281C23.8822 51.847 24.1402 52.1056 24.4591 52.1068C24.7769 52.1068 25.036 51.8493 25.0372 51.5315L25.071 39.7091C25.0721 39.3902 24.814 39.1316 24.4952 39.1305Z" fill="white"/>
<path d="M47.4707 52.3958C47.153 52.3958 46.8938 52.6532 46.8927 52.971L46.8589 64.7928C46.8578 65.1117 47.1158 65.3703 47.4347 65.3715C47.7524 65.3715 48.0116 65.114 48.0127 64.7962L48.0465 52.9744C48.0477 52.6555 47.7896 52.3969 47.4707 52.3958Z" fill="white"/>
<path d="M42.9534 49.7924C42.6356 49.7924 42.3764 50.0498 42.3753 50.3676L42.3438 62.1861C42.3426 62.5049 42.6007 62.7635 42.9195 62.7647C43.2373 62.7647 43.4965 62.5072 43.4976 62.1894L43.5292 50.371C43.5303 50.0521 43.2722 49.7935 42.9534 49.7924Z" fill="white"/>
<path d="M38.3154 47.1139C37.9977 47.1139 37.7385 47.3714 37.7374 47.6891L37.7058 59.5076C37.7047 59.8265 37.9627 60.0851 38.2816 60.0862C38.5994 60.0862 38.8585 59.8287 38.8597 59.511L38.8912 47.6925C38.8923 47.3736 38.6343 47.115 38.3154 47.1139Z" fill="white"/>
<path d="M33.6572 44.4248C33.3395 44.4248 33.0803 44.6823 33.0792 45L33.0476 56.8191C33.0465 57.138 33.3045 57.3966 33.6234 57.3977C33.9412 57.3977 34.2003 57.1402 34.2015 56.8225L34.233 45.0034C34.2341 44.6845 33.9761 44.4259 33.6572 44.4248Z" fill="white"/>
<path d="M29.0193 41.7463C28.7015 41.7463 28.4423 42.0038 28.4412 42.3216L28.4097 54.14C28.4085 54.4589 28.6666 54.7175 28.9855 54.7187C29.3032 54.7187 29.5624 54.4612 29.5635 54.1434L29.5951 42.325C29.5962 42.0061 29.3382 41.7475 29.0193 41.7463Z" fill="white"/>
<path d="M56.0164 53.1176C55.6975 53.1187 55.4383 53.3773 55.4395 53.6962L55.4733 65.518C55.4744 65.8358 55.7324 66.0933 56.0502 66.0933C56.3691 66.0921 56.6282 65.8335 56.6271 65.5146L56.5933 53.6928C56.5922 53.3745 56.3341 53.1176 56.0164 53.1176Z" fill="white"/>
<path d="M60.5337 50.514C60.2148 50.5152 59.9557 50.7738 59.9568 51.0927L59.9883 62.9111C59.9895 63.2289 60.2475 63.4864 60.5653 63.4864C60.8841 63.4852 61.1433 63.2266 61.1422 62.9077L61.1106 51.0893C61.1095 50.7715 60.8515 50.514 60.5337 50.514Z" fill="white"/>
<path d="M65.1717 47.8356C64.8528 47.8367 64.5936 48.0953 64.5947 48.4142L64.6263 60.2327C64.6274 60.5504 64.8854 60.8079 65.2032 60.8079C65.5221 60.8068 65.7813 60.5482 65.7801 60.2293L65.7486 48.4108C65.7474 48.093 65.4894 47.8356 65.1717 47.8356Z" fill="white"/>
<path d="M69.831 45.1465C69.5121 45.147 69.2529 45.4062 69.254 45.7251L69.2845 57.5436C69.2856 57.8613 69.5436 58.1188 69.8614 58.1188C70.1803 58.1182 70.4394 57.8591 70.4383 57.5402L70.4079 45.7217C70.4068 45.404 70.1487 45.1465 69.831 45.1465Z" fill="white"/>
</svg>
