<svg width="93" height="92" viewBox="0 0 93 92" fill="none" xmlns="http://www.w3.org/2000/svg">
<rect x="0.5" width="92" height="92" rx="46" fill="black"/>
<path d="M62.713 31.04C62.7007 26.7619 61.2177 23.5528 58.5382 21.9963C58.5299 21.9914 58.5229 21.9847 58.5145 21.98C58.5071 21.9757 58.4988 21.9733 58.4913 21.969L53.8856 19.2914C51.17 17.7111 47.6009 18.0423 43.8368 20.2233C36.3419 24.5468 30.2633 35.083 30.287 43.7103C30.2983 47.9708 31.7789 51.1794 34.4567 52.7451L39.1082 55.4505C39.113 55.4533 39.1185 55.452 39.1233 55.4546C39.1261 55.4562 39.1285 55.4585 39.1313 55.4601C39.8626 55.8809 40.6607 56.1494 41.5026 56.2958C40.9187 61.9622 40.5629 67.4718 40.5629 68.6561C40.5629 70.0635 41.0711 71.13 41.9928 71.659L44.843 73.3092C44.8491 73.3127 44.8561 73.311 44.8623 73.3144C45.9123 73.9623 47.184 73.7061 48.2601 73.09C50.6134 71.7232 52.4473 68.5445 52.436 65.852C52.436 63.6785 51.7189 56.7507 51.2369 53.1132C57.7463 48.195 62.7349 38.84 62.713 31.04ZM31.4408 43.707C31.4183 35.4486 37.2377 25.3621 44.4143 21.2222C47.1575 19.633 50.555 18.6903 53.3059 20.2886L54.5544 21.0148C52.5566 21.0575 50.211 21.9249 48.4882 22.9175C41.1458 27.1645 34.9121 37.6533 34.9373 46.4135C34.9441 48.9212 35.5308 51.0754 36.2867 52.4746C35.8351 52.014 31.4601 50.9814 31.4408 43.707ZM42.5691 70.6595C42.0193 70.344 41.7167 69.6325 41.7167 68.6561C41.7167 67.4932 42.0688 62.0479 42.6486 56.4224C43.1471 56.4361 44.1951 56.3375 44.6058 56.2624C44.2649 59.3229 43.4819 68.0147 43.4819 70.3519C43.4819 70.6618 43.5066 70.9553 43.5557 71.2308L42.5691 70.6595ZM50.1768 53.8921C50.2981 54.8348 50.4092 55.7827 50.5135 56.7131L45.4309 59.5425C45.4909 58.9158 45.5742 57.9716 45.8012 55.9821C47.2925 55.56 48.8695 54.7644 50.1768 53.8921ZM51.2821 65.8548C51.2923 68.0961 49.6432 70.9525 47.6837 72.09C46.8076 72.592 45.9907 72.6771 45.4402 72.3221C44.9287 71.9993 44.6357 71.281 44.6357 70.3519C44.6357 69.4166 44.8871 65.4171 45.298 60.9373L50.6492 57.9584C51.056 61.8653 51.2821 65.059 51.2821 65.852C51.2821 65.8532 51.2821 65.8537 51.2821 65.8548ZM42.5216 55.2547C41.4973 55.2025 40.548 54.9441 39.7071 54.46C36.9983 52.901 36.101 49.5362 36.0923 46.4124C36.0699 37.9976 42.0785 27.9548 49.0663 23.9203C51.8193 22.3302 55.2342 21.4114 57.9585 22.9941C57.9581 22.9939 57.9588 22.9943 57.9585 22.9941C60.2681 24.3364 61.548 27.1929 61.5592 31.0434C61.5907 42.2864 51.0397 55.6531 42.5216 55.2547Z" fill="white"/>
<path d="M55.022 23.771C53.6169 23.771 51.9689 24.2938 50.2562 25.2832C43.5168 29.174 37.8422 39.0076 37.8648 46.7561C37.8704 48.8345 38.3448 53.6696 42.6227 53.6696C44.0255 53.6696 45.6729 53.1467 47.3862 52.1574C54.129 48.2637 59.8075 38.4369 59.7856 30.698C59.7743 26.3604 57.9934 23.771 55.022 23.771ZM46.8093 51.1579C45.2712 52.0464 43.8233 52.5157 42.6227 52.5157C39.3837 52.5157 39.0231 48.4857 39.0186 46.7527C38.9972 39.3665 44.4075 29.9921 50.8331 26.2826C52.3706 25.3942 53.8192 24.9248 55.022 24.9248C58.2661 24.9248 58.6272 28.9644 58.6317 30.7014C58.6526 38.0774 53.2389 47.4457 46.8093 51.1579Z" fill="white"/>
</svg>
