<svg width="93" height="92" viewBox="0 0 93 92" fill="none" xmlns="http://www.w3.org/2000/svg">
<rect x="0.5" width="92" height="92" rx="46" fill="black"/>
<path d="M30.6324 53.7465C30.9513 53.7453 31.2094 53.4867 31.2082 53.1678L31.1958 48.6482C31.1947 48.3305 30.9367 48.073 30.6189 48.073C30.3 48.0741 30.0409 48.3327 30.042 48.6516L30.0544 53.1712C30.0555 53.489 30.3147 53.7465 30.6324 53.7465Z" fill="white"/>
<path d="M31.233 70.1786C36.809 73.3163 37.3469 74.425 39.4406 73.2147L59.8155 61.4515C61.6048 60.4188 63.0021 57.995 62.9953 55.9335L62.9052 24.1802C62.8997 21.4758 61.001 21.7229 56.2007 18.5885C55.4762 18.1546 54.5116 18.2234 53.5505 18.7783L33.1846 30.5382C31.3147 31.6479 29.9926 34.0575 30.0048 36.0533L30.0307 44.9016C30.0318 45.2199 30.2899 45.4768 30.6076 45.4768C30.9265 45.4757 31.1857 45.2171 31.1845 44.8982L31.1617 37.1156L35.5755 39.6152C35.5758 39.7528 35.6549 71.1409 35.6816 71.431L31.8144 69.1825C31.4516 68.9689 31.251 68.481 31.251 67.8078L31.2217 57.6389C31.2206 57.3212 30.9626 57.0637 30.6448 57.0637C30.3259 57.0648 30.0668 57.3234 30.0679 57.6423L30.0972 67.8095C30.0972 68.907 30.4995 69.7481 31.233 70.1786ZM59.2386 60.452L38.8637 72.2153C37.6511 72.9142 36.8233 72.4473 36.8186 71.0473C36.7336 38.6926 36.6923 39.2045 36.787 38.6402C37.0342 37.1806 38.075 35.5108 39.3313 34.7857C41.4277 33.5754 31.7637 39.1547 59.7028 23.0247C60.8994 22.3305 61.7489 22.7719 61.7513 24.183L61.8415 55.9369C61.846 57.5674 60.655 59.6351 59.2386 60.452ZM54.1274 19.7778C54.7144 19.4381 55.2542 19.366 55.6136 19.5823L59.4966 21.8348C59.1688 21.9822 60.5353 21.2108 39.0413 33.6169L34.6226 31.0402L54.1274 19.7778ZM33.506 31.7253L37.9905 34.3404C36.8164 35.341 35.9507 36.8818 35.6725 38.3445L31.1787 35.7996C31.2734 34.3182 32.2711 32.5771 33.506 31.7253Z" fill="white"/>
<path d="M58.976 25.6569L38.929 37.2308C38.7499 37.3345 38.6394 37.5255 38.6406 37.7323L38.7296 64.9322C38.732 65.3783 39.2131 65.6502 39.595 65.4302L59.6408 53.8557C59.82 53.752 59.9304 53.561 59.9293 53.3543L59.8414 26.1549C59.8389 25.7088 59.3579 25.4369 58.976 25.6569ZM39.8801 63.9333L39.7955 38.063L58.6909 27.1538L58.7743 53.0236L39.8801 63.9333Z" fill="white"/>
<path d="M55.8604 46.9079L49.2393 50.7306C48.9632 50.89 48.8686 51.2427 49.0286 51.5188C49.1856 51.7936 49.5386 51.8894 49.8162 51.73L56.4373 47.9074C56.7134 47.7479 56.808 47.3952 56.648 47.1192C56.4891 46.842 56.1365 46.7496 55.8604 46.9079Z" fill="white"/>
<path d="M55.8604 35.3992L49.2393 39.2219C48.9632 39.3814 48.8686 39.734 49.0286 40.0101C49.1856 40.285 49.5386 40.3808 49.8162 40.2214L56.4373 36.3987C56.7134 36.2393 56.808 35.8866 56.648 35.6105C56.4891 35.3333 56.1365 35.2392 55.8604 35.3992Z" fill="white"/>
<path d="M47.5255 37.1649C47.3474 37.0623 47.1277 37.0629 46.9497 37.1654L42.1326 39.947C41.9534 40.0506 41.843 40.2416 41.8441 40.4484L41.8644 46.6204C41.8668 47.0666 42.3479 47.3384 42.7298 47.1185L47.5469 44.3375C47.726 44.2339 47.8365 44.0429 47.8353 43.8361L47.8151 37.6635C47.8139 37.4573 47.7046 37.2674 47.5255 37.1649ZM43.0149 45.6215L42.9991 40.7791L46.6646 38.6624L46.6804 43.5054L43.0149 45.6215Z" fill="white"/>
<path d="M47.5255 48.6048C47.3474 48.5023 47.1277 48.5028 46.9497 48.6054L42.1326 51.3863C41.9534 51.49 41.843 51.681 41.8441 51.8878L41.8644 58.0604C41.8668 58.5066 42.3479 58.7784 42.7298 58.5584L47.5469 55.7775C47.726 55.6738 47.8365 55.4828 47.8353 55.2761L47.8151 49.1034C47.8139 48.8972 47.7046 48.7074 47.5255 48.6048ZM43.0149 57.0615L42.9991 52.2185L46.6646 50.1023L46.6804 54.9453L43.0149 57.0615Z" fill="white"/>
<path d="M48.9948 60.7895C48.0528 61.3337 47.317 62.6064 47.3192 63.687C47.3216 64.9973 48.4246 65.6417 49.5807 64.9744C50.5216 64.4318 51.2551 63.1603 51.2506 62.0802C51.2483 60.7583 50.1487 60.1253 48.9948 60.7895ZM49.0038 63.9749C48.6431 64.1826 48.4753 64.1277 48.4731 63.6837C48.4708 63.0132 48.9846 62.1275 49.5717 61.7889C49.9355 61.5804 50.0945 61.6375 50.0968 62.0842C50.099 62.754 49.5886 63.6375 49.0038 63.9749Z" fill="white"/>
</svg>
