<svg width="93" height="92" viewBox="0 0 93 92" fill="none" xmlns="http://www.w3.org/2000/svg">
<rect x="0.5" width="92" height="92" rx="46" fill="black"/>
<path d="M31.9287 69.8559C35.5072 72.0565 37.9344 73.5458 37.8107 73.4752C38.4756 73.8545 39.2441 73.7 39.902 73.3203L59.6323 61.9238C61.0082 61.1373 62.0752 59.2916 62.064 57.7208C62.034 46.4696 61.9933 31.6029 61.9727 24.0024C61.9659 23.128 61.6369 22.4603 61.0465 22.1228C61.0401 22.1192 61.0326 22.1186 61.0262 22.115L55.195 18.5233C54.6 18.1881 53.8575 18.2421 53.1002 18.6776L33.3587 30.0657C33.3496 30.0709 33.346 30.0812 33.3373 30.0869C31.9861 30.8832 30.9347 32.7101 30.9377 34.2672C30.9377 34.2694 30.936 34.271 30.936 34.2732L31.0036 57.9022C31.0048 58.22 31.2628 58.4775 31.5806 58.4775C31.8995 58.4763 32.1586 58.2177 32.1575 57.8988L32.0933 35.3059L36.794 38.1982L36.8174 46.8205C36.8179 46.9948 36.881 70.3534 36.8843 71.5505L32.5305 68.8711C32.3152 68.7415 32.1879 68.4153 32.1812 67.9854L32.1721 64.858C32.171 64.5396 31.913 64.2827 31.5952 64.2827C31.2763 64.2839 31.0172 64.5425 31.0183 64.8614L31.0273 67.9967C31.042 68.8519 31.3631 69.5128 31.9287 69.8559ZM39.7995 34.6749C39.9162 34.6048 60.0317 22.9348 60.4305 23.1139C60.7423 23.2649 60.8162 23.6652 60.8188 24.0086L60.828 27.3984L37.9544 40.6027C37.9613 37.7985 37.9196 37.923 37.9798 37.4956C38.1343 36.4159 38.9025 35.1924 39.7995 34.6749ZM60.8865 52.2941L38.0218 65.4932L37.9729 47.4494L37.9605 41.9315L60.8316 28.7286C60.904 59.8171 60.8806 49.7806 60.8865 52.2941ZM60.9101 57.727C60.9191 58.8803 60.0718 60.3434 59.0577 60.9232L39.3251 72.3208C38.9425 72.5425 38.5992 72.5977 38.384 72.4738L38.382 72.4726C38.3794 72.471 38.3775 72.4679 38.375 72.4663C38.1682 72.3309 38.045 72.0111 38.0383 71.5895L38.0254 66.8235L60.899 53.6192L60.9101 57.7242C60.9101 57.7253 60.9101 57.7264 60.9101 57.727ZM53.6772 19.6771C54.058 19.4568 54.4062 19.4022 54.6079 19.5171L59.0295 22.2412C58.6608 22.4539 39.2259 33.671 39.5211 33.5007L34.7739 30.5812L53.6772 19.6771ZM33.6629 31.2533L38.4867 34.2213C37.7357 34.921 37.129 36.0199 36.9137 36.9166L32.109 33.9605C32.224 32.9773 32.8685 31.8562 33.6629 31.2533Z" fill="white"/>
<path d="M31.5919 62.7396C31.9097 62.7385 32.1677 62.4793 32.1666 62.161L32.1609 60.4894C32.1587 60.1694 31.9266 59.8871 31.5818 59.9142C31.264 59.9153 31.006 60.1744 31.0071 60.4928L31.0127 62.1644C31.0138 62.4827 31.2719 62.7396 31.5896 62.7396H31.5919Z" fill="white"/>
<path d="M34.179 42.83C34.4979 42.8295 34.757 42.5703 34.7559 42.2514L34.7503 40.0519C34.7492 39.7342 34.4911 39.4767 34.1734 39.4767C33.8545 39.4772 33.5953 39.7364 33.5964 40.0553L33.6021 42.2548C33.6032 42.5726 33.8612 42.83 34.179 42.83Z" fill="white"/>
<path d="M33.6021 47.455C33.6032 47.7728 33.8612 48.0302 34.179 48.0302C34.4979 48.0297 34.757 47.7705 34.7559 47.4516L34.7503 45.2521C34.7492 44.9344 34.4911 44.6769 34.1734 44.6769C33.8545 44.6774 33.5953 44.9366 33.5964 45.2555L33.6021 47.455Z" fill="white"/>
<path d="M47.5541 33.463L51.8123 31.0054C52.0883 30.846 52.183 30.4933 52.023 30.2172C51.8641 29.9411 51.5103 29.8459 51.2353 30.0059L46.9772 32.4635C46.7011 32.6229 46.6064 32.9756 46.7664 33.2517C46.9242 33.5269 47.2767 33.6222 47.5541 33.463Z" fill="white"/>
<path d="M50.0985 60.6303C49.108 61.2016 48.335 62.5379 48.3373 63.6732C48.3421 65.0591 49.4912 65.6952 50.6855 65.0062C51.6681 64.4383 52.4343 63.1059 52.4298 61.9734C52.4275 60.6036 51.3006 59.9389 50.0985 60.6303ZM50.1086 64.0067C49.6942 64.2477 49.4932 64.1653 49.4911 63.6698C49.4889 62.9481 50.0433 61.9948 50.6754 61.6297C51.1178 61.3738 51.2741 61.52 51.276 61.9768C51.2782 62.6974 50.7329 63.6462 50.1086 64.0067Z" fill="white"/>
<path d="M52.494 23.4485C52.8896 23.6767 53.3842 23.7905 53.8778 23.7905C54.3724 23.7905 54.866 23.6761 55.2592 23.4474C56.2429 22.8777 56.2451 21.7551 55.2513 21.1825C54.4716 20.7335 53.2591 20.7329 52.4862 21.1831C51.4988 21.7562 51.5042 22.877 52.494 23.4485ZM53.0665 22.1808C53.4834 21.9375 54.2507 21.9363 54.6744 22.182C54.8645 22.292 54.9087 22.3167 54.6789 22.4501C54.2552 22.698 53.5014 22.698 53.071 22.449C52.8529 22.324 52.8501 22.3055 53.0665 22.1808Z" fill="white"/>
<path d="M49.1147 38.3584C44.994 40.7371 41.653 46.5221 41.6665 51.2535C41.6804 56.2035 45.3311 58.4088 49.7378 55.8655C53.854 53.4891 57.1928 47.6996 57.1804 42.9597C57.1663 37.9612 53.4641 35.8476 49.1147 38.3584ZM49.1609 54.8661C45.5709 56.9391 42.8321 55.3611 42.8204 51.2501C42.8069 46.8872 45.8898 41.5523 49.6916 39.3579C53.2632 37.2966 56.0148 38.8518 56.0265 42.9631C56.0389 47.3345 52.9582 52.6744 49.1609 54.8661Z" fill="white"/>
<path d="M50.6089 46.5204C50.1886 46.2787 49.6511 46.3125 49.1361 46.6094C48.9536 46.7148 48.8387 46.712 48.8139 46.6996C48.7868 46.6844 48.7327 46.5869 48.7316 46.3841C48.7305 45.7869 49.1846 44.9998 49.7052 44.6989C49.8843 44.5953 49.9936 44.5941 50.0241 44.6105C50.05 44.6257 50.1052 44.7232 50.1063 44.9271C50.1074 45.2449 50.3655 45.5023 50.6832 45.5023C51.0021 45.5012 51.2613 45.2426 51.2602 44.9237C51.259 44.3299 51.0179 43.851 50.5987 43.6104C50.4163 43.5055 50.2092 43.4621 49.9936 43.4601V42.851C49.9936 42.5321 49.7356 42.274 49.4167 42.274C49.0978 42.274 48.8398 42.5321 48.8398 42.851V43.9318C48.1166 44.5069 47.5758 45.503 47.5778 46.3875C47.5789 46.9807 47.82 47.459 48.2381 47.6996C48.6561 47.9407 49.1936 47.9081 49.7131 47.6089C49.8911 47.5052 50.0038 47.5041 50.0331 47.5204C50.059 47.5357 50.1142 47.6337 50.1153 47.8371C50.1165 48.4315 49.6635 49.2163 49.1451 49.5154C48.9626 49.6197 48.8488 49.6191 48.8206 49.6056C48.7947 49.5904 48.7395 49.4946 48.7395 49.294C48.7384 48.9763 48.4803 48.7188 48.1626 48.7188C47.8437 48.7199 47.5845 48.9785 47.5857 49.2974C47.5868 49.8884 47.8279 50.3651 48.2448 50.6056C48.4246 50.7091 48.627 50.7596 48.8398 50.763V51.3747C48.8398 51.6936 49.0978 51.9516 49.4167 51.9516C49.7356 51.9516 49.9936 51.6936 49.9936 51.3747V50.2962C50.7234 49.7249 51.2711 48.7227 51.2692 47.8337C51.268 47.2399 51.0269 46.7615 50.6089 46.5204Z" fill="white"/>
</svg>
