<svg width="93" height="92" viewBox="0 0 93 92" fill="none" xmlns="http://www.w3.org/2000/svg">
<rect x="0.5" width="92" height="92" rx="46" fill="black"/>
<path d="M29.5529 50.9663C29.8717 50.9657 30.1292 50.7066 30.1287 50.3882L30.1208 46.9628C30.1202 46.6444 29.8622 46.387 29.5438 46.387C29.225 46.3875 28.9664 46.6467 28.9669 46.965L28.9748 50.3905C28.9754 50.7088 29.2345 50.9663 29.5529 50.9663Z" fill="white"/>
<path d="M61.567 50.6761C62.9654 49.8682 64.0573 47.9763 64.0527 46.3695L64.0003 22.3641C63.9979 21.3879 63.5883 20.7508 63.0724 20.4496L59.7816 18.5352C59.172 18.1836 58.4103 18.24 57.6339 18.6912L31.4262 33.8174C30.0272 34.6333 28.9382 36.5274 28.9472 38.1269L28.959 43.3592C28.9596 43.6775 29.2176 43.935 29.536 43.935C29.8548 43.9344 30.1134 43.6753 30.1129 43.357L30.101 38.1224C30.0943 36.9359 30.9676 35.4209 32.0053 34.8152L58.2125 19.6896C58.6103 19.4569 58.9726 19.4 59.203 19.5335L60.9777 20.5657C60.9591 20.5758 60.9411 20.586 60.923 20.5961L34.7176 35.7285C33.5529 36.4003 32.6135 37.8232 32.3317 39.2086C32.1961 39.868 32.231 37.433 32.2837 64.0806L30.5016 63.0439C30.2813 62.9188 30.1551 62.5881 30.1551 62.1363L30.1377 54.2103C30.1371 53.892 29.8791 53.6345 29.5607 53.6345C29.2419 53.6351 28.9833 53.8943 28.9838 54.2126L29.0013 62.1374C29.0013 63.0276 29.3314 63.7053 29.9258 64.0439L33.215 65.9567C33.2164 65.9575 33.2181 65.9571 33.2195 65.9579C33.2207 65.9587 33.2216 65.9599 33.2229 65.9606C33.902 66.3506 34.6875 66.195 35.3632 65.8051L42.5432 61.6597L42.5461 62.9556L37.6337 65.8063C37.5441 65.8584 37.4723 65.9327 37.4227 66.0197C37.372 66.1063 37.3433 66.2056 37.343 66.3094L37.3351 69.4515C37.3346 69.6582 37.4444 69.8492 37.6236 69.9529L43.9686 73.6161C44.0582 73.6674 44.1573 73.6933 44.2571 73.6933C44.3562 73.6933 44.4559 73.6674 44.545 73.6161C44.5447 73.6163 44.5452 73.616 44.545 73.6161C44.5455 73.6158 44.5467 73.6153 44.5472 73.615L58.0041 65.795C58.181 65.6919 58.2903 65.5026 58.2908 65.2975L58.2982 62.1639C58.2982 62.1601 58.301 62.157 58.301 62.1532C58.3004 61.9475 58.1905 61.7577 58.0125 61.6546L51.6658 57.9919C51.5311 57.9148 51.3773 57.9151 51.2311 57.9543L51.2273 56.6458L61.567 50.6761ZM34.7863 64.8057C34.3891 65.035 34.0291 65.0913 33.7981 64.9606C33.5172 64.7986 33.4411 64.3682 33.4403 64.0439C33.4397 63.9262 33.3467 39.926 33.4807 39.3471C33.7232 38.3115 34.4511 37.2163 35.2967 36.7285L61.5005 21.5995C61.7695 21.4438 62.2037 21.2943 62.4751 21.4417C62.7725 21.8204 62.8451 21.8211 62.8465 22.3669L62.8989 46.3723C62.9023 47.5639 62.0279 49.0772 60.9901 49.6766C60.6645 49.8634 36.3633 63.8946 34.7863 64.8057ZM44.696 60.4168C44.6964 60.5812 44.712 66.0498 44.7117 65.9301C44.5962 65.8627 43.5906 65.2761 43.7061 65.3435C43.7058 65.225 43.6951 60.8786 43.6954 60.9971C43.811 60.93 44.8116 60.3497 44.696 60.4168ZM38.4946 67.3088C38.6116 67.3764 44.0313 70.5066 43.6872 70.3079C43.6869 70.4241 43.6821 72.2348 43.6824 72.1186L38.4895 69.1207L38.4946 67.3088ZM44.8365 72.1123C44.8368 71.9961 44.8416 70.1978 44.8413 70.314L57.1421 63.1601L57.1376 64.964L44.8365 72.1123ZM51.2376 59.2443L51.3807 59.1598L56.5711 62.1549L44.2641 69.3075C44.1472 69.2399 38.7298 66.1059 39.0738 66.3049L42.5491 64.288L42.5522 65.6761C42.5525 65.7772 42.5801 65.874 42.6281 65.959C42.6287 65.9601 42.6284 65.9613 42.629 65.9623C42.6783 66.0485 42.7498 66.1219 42.8384 66.1736L45.0008 67.4345C45.0012 67.4348 45.0018 67.4346 45.0023 67.4349C45.0029 67.4352 45.003 67.4359 45.0036 67.4362C45.1782 67.5367 45.3988 67.5399 45.5799 67.4356L50.9593 64.3273C51.1385 64.2237 51.2483 64.0327 51.2478 63.8265V63.8239L51.2376 59.2443ZM50.0928 63.4952C49.9772 63.562 45.5867 66.0989 45.8656 65.9377L45.8481 59.7516L50.0753 57.3109L50.0928 63.4952Z" fill="white"/>
<path d="M61.0228 45.9623C61.2019 45.8586 61.3118 45.6676 61.3112 45.4608L61.2594 24.5767C61.2588 24.371 61.149 24.1812 60.9704 24.0786C60.7918 23.9755 60.5715 23.9766 60.394 24.0786L35.264 38.5873C35.0849 38.691 34.975 38.882 34.9756 39.0888L35.0274 59.9729C35.028 60.1786 35.1378 60.3684 35.3164 60.471C35.495 60.5738 35.714 60.5739 35.8928 60.471L61.0228 45.9623ZM60.1078 25.5761L60.1568 45.1301L36.179 58.9734L36.13 39.4195L60.1078 25.5761Z" fill="white"/>
<path d="M48.6336 54.3541L47.1282 55.2228C46.8521 55.3823 46.7575 55.735 46.9169 56.011C47.0779 56.2889 47.4317 56.3802 47.7051 56.2223L49.2105 55.3535C49.4866 55.1941 49.5813 54.8414 49.4218 54.5653C49.2624 54.2893 48.908 54.1941 48.6336 54.3541Z" fill="white"/>
<path d="M39.9566 53.7184C40.1321 53.8195 40.3524 53.8218 40.533 53.7178L56.3657 44.5766C56.5449 44.473 56.6547 44.282 56.6542 44.0752L56.6192 31.3294C56.6187 31.1237 56.5083 30.9339 56.3302 30.8308C56.1516 30.7277 55.9313 30.7294 55.7539 30.8313L39.9212 39.9725C39.742 40.0762 39.6321 40.2672 39.6327 40.474L39.6676 53.2198C39.6682 53.4254 39.7786 53.6153 39.9566 53.7184ZM55.4682 32.3289L55.4992 43.7445L40.8187 52.2203L40.7877 40.8047L55.4682 32.3289Z" fill="white"/>
<path d="M44.2807 47.7537L42.7567 48.6337C42.4807 48.7932 42.386 49.1459 42.5455 49.4219C42.7053 49.6987 43.0591 49.7918 43.3337 49.6332L44.8577 48.7532C45.1337 48.5937 45.2284 48.2411 45.0689 47.965C44.9095 47.6889 44.5551 47.5948 44.2807 47.7537Z" fill="white"/>
<path d="M47.3952 47.2884L48.9192 46.4084C49.1953 46.2489 49.2899 45.8962 49.1305 45.6202C48.9705 45.3435 48.6172 45.2489 48.3423 45.4089L46.8183 46.2889C46.5422 46.4484 46.4475 46.801 46.607 47.0771C46.7668 47.3539 47.1206 47.447 47.3952 47.2884Z" fill="white"/>
<path d="M52.4045 43.0639L50.8799 43.9439C50.6038 44.1034 50.5092 44.4561 50.6686 44.7321C50.8296 45.0101 51.1834 45.1013 51.4568 44.9434L52.9814 44.0634C53.2575 43.9039 53.3521 43.5513 53.1927 43.2752C53.0321 42.9997 52.6794 42.9033 52.4045 43.0639Z" fill="white"/>
<path d="M42.159 46.1835C42.3401 46.2871 42.5604 46.2845 42.7359 46.1824L45.2932 44.7012C45.4718 44.5981 45.5816 44.4071 45.5811 44.2009L45.5766 41.4425C45.576 41.2368 45.4661 41.0464 45.2875 40.9438C45.1095 40.8413 44.8892 40.8413 44.7112 40.9438L42.1533 42.4205C41.9747 42.5236 41.8643 42.7146 41.8649 42.9214L41.8699 45.6843C41.8705 45.8905 41.9804 46.0804 42.159 46.1835ZM44.4244 42.4419L44.4267 43.8696L43.0221 44.6831L43.0193 43.2532L44.4244 42.4419Z" fill="white"/>
<path d="M49.6826 40.8976C49.8596 40.9996 50.0787 41.0017 50.2595 40.8971L54.1341 38.6553C54.3127 38.5522 54.4225 38.3618 54.422 38.1556L54.418 35.4152C54.4174 35.209 54.3076 35.0186 54.129 34.916C53.951 34.8135 53.7307 34.8135 53.5526 34.916L49.6781 37.1522C49.4995 37.2553 49.3891 37.4463 49.3897 37.6525L49.3936 40.3985C49.3942 40.6047 49.504 40.7951 49.6826 40.8976ZM53.2659 36.4141L53.2675 37.8237L50.5458 39.3984L50.5441 37.9849L53.2659 36.4141Z" fill="white"/>
</svg>
