<svg width="93" height="92" viewBox="0 0 93 92" fill="none" xmlns="http://www.w3.org/2000/svg">
<rect x="0.5" width="92" height="92" rx="46" fill="black"/>
<path d="M22.9577 53.0472C23.2766 53.0461 23.5346 52.7875 23.5335 52.4686L23.5256 49.7525C23.5245 49.4342 23.2665 49.1772 22.9487 49.1772C22.6298 49.1784 22.3706 49.437 22.3718 49.7559L22.3797 52.472C22.3808 52.7903 22.6399 53.0472 22.9577 53.0472Z" fill="white"/>
<path d="M70.6485 44.3394L70.5866 22.4631C70.5859 22.3473 70.5164 22.0921 70.2992 21.9661L70.2979 21.9654C70.2975 21.9652 70.2974 21.9647 70.297 21.9644C70.2966 21.9642 70.2961 21.9643 70.2958 21.9641L64.1435 18.3891C63.9677 18.2849 63.7457 18.2849 63.5654 18.388L22.64 42.0165C22.4596 42.1209 22.3515 42.313 22.3515 42.5156C22.3515 42.5161 22.3518 42.5163 22.3518 42.5168C22.3518 42.5172 22.3515 42.5175 22.3515 42.5179L22.3661 47.1355C22.3673 47.4539 22.6253 47.7108 22.9431 47.7108C22.9442 47.7108 22.9442 47.7108 22.9453 47.7108C23.2631 47.7096 23.5211 47.4505 23.52 47.1322L23.5087 43.5208L28.5081 46.4255L28.5235 51.8335L28.5658 66.9661L23.5662 64.0607L23.5414 55.3533C23.5403 55.035 23.2822 54.7781 22.9645 54.7781C22.6456 54.7792 22.3864 55.0378 22.3876 55.3567L22.4135 64.3948C22.4146 64.5999 22.5239 64.7892 22.7008 64.8917L27.3339 67.5839L27.5235 69.5955C27.5416 69.7809 27.6475 69.9465 27.8086 70.0401L33.9632 73.6171C34.1955 73.7536 34.5773 73.7013 34.7475 73.4148L42.0706 61.1738L70.3601 44.8408C70.5392 44.7371 70.6497 44.5461 70.6485 44.3394ZM63.8528 19.5542L68.858 22.4631C59.3241 27.9676 35.5059 41.7193 29.0849 45.4265L24.08 42.5179L63.8528 19.5542ZM28.5605 68.2967L28.8565 68.4687C28.8563 68.4686 28.8567 68.4689 28.8565 68.4687C28.8572 68.4691 28.8582 68.4701 28.8588 68.4704C29.0319 68.5701 29.2526 68.5747 29.4346 68.4699L33.0391 66.3887C33.056 66.5686 33.608 72.4277 33.573 72.0563L28.6447 69.1916L28.5605 68.2967ZM41.364 60.2493C41.2795 60.2983 41.2074 60.3687 41.1578 60.4527L34.6622 71.3099L34.1041 65.3852C34.0616 64.9424 33.5777 64.7527 33.248 64.9377C33.2458 64.9389 33.2431 64.9383 33.2409 64.9396L29.7202 66.972L29.6762 51.4403L29.6622 46.4258C39.0139 41.0266 60.0469 28.8833 69.4361 23.4625L69.4936 44.0087L41.364 60.2493Z" fill="white"/>
<path d="M41.9038 47.1946L38.7172 49.0347L37.756 46.2278C37.6726 45.9855 37.4529 45.8244 37.1836 45.8385C36.9278 45.8503 36.7103 46.0301 36.6495 46.2796L35.543 50.8674L31.9744 52.9278C31.7716 53.045 31.66 53.2731 31.6916 53.5053C31.7231 53.7374 31.891 53.9273 32.1186 53.9858L34.6393 54.6394L33.6071 58.9162C33.5429 59.1849 33.6781 59.4621 33.9294 59.5765C34.1889 59.6931 34.4837 59.6058 34.6393 59.3844L37.4766 55.3707L40.1719 56.0614C40.3781 56.1166 40.5956 56.0496 40.7387 55.8941C40.8829 55.738 40.9291 55.516 40.8604 55.3155L39.7674 52.1249L42.6632 48.0273C42.8199 47.8059 42.8007 47.5056 42.6182 47.3056C42.4345 47.1039 42.1382 47.06 41.9038 47.1946ZM38.6552 51.7001C38.5482 51.8517 38.52 52.0449 38.5808 52.2201L39.4226 54.6783L37.3774 54.1543C37.1464 54.0957 36.9008 54.1853 36.7633 54.3802L35.4359 56.2586L35.8945 54.3583C35.9678 54.0523 35.783 53.7436 35.4776 53.6647L33.7716 53.2224L36.334 51.7429C36.4703 51.6641 36.5695 51.5322 36.6067 51.3784L37.3064 48.4769L37.8529 50.0719C37.9684 50.4124 38.3695 50.5671 38.6868 50.3846L40.2034 49.5085L38.6552 51.7001Z" fill="white"/>
<path d="M54.2546 40.0642L51.068 41.9043L50.1058 39.0974C50.0235 38.8552 49.8038 38.694 49.5333 38.7081C49.2776 38.72 49.0601 38.8997 48.9992 39.1493L47.8938 43.7371L44.3241 45.7974C44.1213 45.9146 44.0097 46.1428 44.0413 46.3749C44.0728 46.607 44.2407 46.7969 44.4684 46.8555L46.989 47.509L45.9569 51.7858C45.8926 52.0545 46.0279 52.3317 46.2791 52.4461C46.5386 52.5627 46.8334 52.4754 46.989 52.254L49.8263 48.2403L52.5216 48.931C52.7278 48.9851 52.9453 48.9187 53.0884 48.7637C53.2326 48.6082 53.2788 48.3857 53.2101 48.1851L52.1182 44.9951L55.0141 40.8969C55.1707 40.6755 55.1516 40.3752 54.969 40.1752C54.7854 39.9747 54.489 39.9307 54.2546 40.0642ZM51.0061 44.5698C50.899 44.7208 50.8709 44.9146 50.9317 45.0898L51.7723 47.5479L49.7271 47.0239C49.495 46.9631 49.2505 47.0544 49.113 47.2499L47.7857 49.1282L48.2443 47.2279C48.3175 46.922 48.1327 46.6132 47.8274 46.5343L46.1214 46.0921L48.6849 44.6126C48.8212 44.5337 48.9204 44.4019 48.9575 44.2481L49.6573 41.346L50.2038 42.9415C50.259 43.1044 50.3852 43.2339 50.5463 43.2948C50.7075 43.3545 50.8889 43.3415 51.0376 43.2542L52.5543 42.3781L51.0061 44.5698Z" fill="white"/>
<path d="M66.6044 32.9339L63.4189 34.7734L62.4566 31.9671C62.3733 31.7248 62.1547 31.5637 61.8842 31.5778C61.6284 31.5896 61.411 31.7693 61.3501 32.0189L60.2436 36.6067L56.675 38.667C56.4722 38.7842 56.3606 39.0124 56.3922 39.2445C56.4237 39.4766 56.5916 39.6665 56.8192 39.7251L59.3399 40.3787L58.3078 44.6554C58.2435 44.9242 58.3787 45.2014 58.63 45.3157C58.8895 45.4323 59.1843 45.3451 59.3399 45.1236L62.1772 41.1094L64.8725 41.8007C65.0787 41.8542 65.2962 41.7888 65.4393 41.6333C65.5835 41.4773 65.6297 41.2553 65.561 41.0547L64.468 37.8636L67.3639 33.7666C67.5205 33.5452 67.5013 33.2449 67.3188 33.0449C67.1351 32.8437 66.8377 32.7998 66.6044 32.9339ZM63.3558 37.4388C63.2488 37.5904 63.2206 37.7836 63.2815 37.9588L64.1232 40.4175L62.078 39.893C61.847 39.8338 61.6014 39.924 61.4639 40.1189L60.1366 41.9973L60.5952 40.0975C60.6684 39.7916 60.4836 39.4828 60.1782 39.404L58.4723 38.9617L61.0346 37.4822C61.171 37.4033 61.2701 37.2715 61.3073 37.1177L62.007 34.215L62.5547 35.8106C62.6099 35.9734 62.7361 36.103 62.8972 36.1638C63.0584 36.2236 63.2386 36.2106 63.3885 36.1233L64.9041 35.2483L63.3558 37.4388Z" fill="white"/>
</svg>
