<svg width="93" height="92" viewBox="0 0 93 92" fill="none" xmlns="http://www.w3.org/2000/svg">
<rect x="0.5" width="92" height="92" rx="46" fill="black"/>
<path d="M32.1291 44.5685C32.1302 44.8862 32.3882 45.1437 32.706 45.1437C33.013 45.1031 33.284 44.8845 33.2829 44.5651L33.2576 35.57L37.813 38.2173L37.909 72.1092L33.3533 69.4618L33.3162 55.0461C33.3156 54.7283 33.057 54.4708 32.7392 54.4708C32.7387 54.4708 32.7381 54.4708 32.7375 54.4708C32.4192 54.4714 32.1617 54.7305 32.1623 55.0494L32.2006 69.7959C32.2012 70.001 32.3105 70.1903 32.4874 70.2928L38.1986 73.6118C38.1984 73.6117 38.1988 73.612 38.1986 73.6118C38.1992 73.6122 38.2002 73.6132 38.2008 73.6135C38.3763 73.7146 38.5966 73.717 38.7772 73.613L60.6107 61.0074C60.7899 60.9037 60.8997 60.7128 60.8992 60.506C60.8988 60.3901 60.7894 25.1425 60.7935 25.2601C60.7866 25.0653 60.6817 24.879 60.5127 24.7807L54.8015 21.4617C54.7592 21.4369 54.7141 21.4183 54.6674 21.4048L43.7312 18.3269C43.5085 18.2647 43.2218 18.3793 43.1013 18.5534L32.204 34.2368C32.174 34.313 32.1004 34.4595 32.1009 34.5675L32.1291 44.5685ZM43.7453 19.6487C43.8607 19.7158 48.7668 22.5668 48.4557 22.386L38.2189 37.1186C38.1034 37.0515 33.1973 34.2005 33.5085 34.3813L43.7453 19.6487ZM39.0628 72.1154L38.9665 38.0651L49.5256 22.8682L59.6467 25.7167L59.7442 60.1753L39.0628 72.1154ZM55.9964 23.4905C55.8795 23.4576 49.1838 21.573 49.5128 21.6656C49.3972 21.5985 47.6859 20.6042 47.8015 20.6713L54.2848 22.4961L55.9964 23.4905Z" fill="white"/>
<path d="M33.3032 51.5844L33.2919 47.6558C33.2908 47.3375 33.0327 47.0806 32.715 47.0806H32.7133C32.395 47.0817 32.1369 47.3403 32.1381 47.6592L32.1493 51.5878C32.1505 51.9055 32.4085 52.163 32.7263 52.163C33.013 52.1191 33.3043 51.9038 33.3032 51.5844Z" fill="white"/>
<path d="M47.4316 36.5548C48.1213 36.9524 48.9259 36.7891 49.6136 36.3919C51.0357 35.5711 52.1461 33.6397 52.1416 31.9946C52.1394 31.0999 51.7906 30.3872 51.1861 30.0396C50.5742 29.6869 49.8052 29.7421 49.0221 30.1951C47.5916 31.0205 46.4749 32.9558 46.4794 34.6009C46.4817 35.5091 46.8197 36.2032 47.4316 36.5548ZM49.599 31.1946C49.895 31.0232 50.3187 30.8713 50.6109 31.0396C50.8492 31.1765 50.9867 31.5258 50.9878 31.998C50.9912 33.2256 50.0976 34.7801 49.0367 35.3925C48.6215 35.633 48.2457 35.6939 48.0068 35.5547C47.7708 35.419 47.6344 35.0702 47.6333 34.5975C47.6299 33.3699 48.5302 31.8115 49.599 31.1946Z" fill="white"/>
<path d="M57.392 40.0415C57.3914 39.8353 57.281 39.6449 57.1024 39.5423C56.9232 39.4392 56.7035 39.4404 56.5255 39.5435L41.5711 48.2199C41.3931 48.3235 41.2832 48.5139 41.2838 48.7202L41.317 67.1513C41.3182 67.5954 41.7993 67.8705 42.1824 67.6499L57.1429 59.0124C57.3221 58.9093 57.432 58.7177 57.4314 58.5115L57.392 40.0415ZM42.4692 66.1518L42.4382 49.0509L56.2404 41.0432L56.277 58.1802L42.4692 66.1518Z" fill="white"/>
</svg>
