<svg width="93" height="92" viewBox="0 0 93 92" fill="none" xmlns="http://www.w3.org/2000/svg">
<path d="M18.4798 59.2286C18.4815 59.7167 18.8771 60.1106 19.3644 60.1106H19.367C19.8559 60.1089 20.2507 59.7115 20.249 59.2234L20.1626 31.7019L28.1017 36.3159L28.157 86.0366L20.3172 81.4684L20.2853 70.7692C20.2835 70.2811 19.8879 69.8872 19.4007 69.8872H19.3981C18.9091 69.8889 18.5143 70.2863 18.516 70.7744L18.5497 81.9807C18.5506 82.2943 18.7182 82.5845 18.9886 82.7426C19.1676 82.8469 28.7777 88.4461 28.5987 88.3418L28.6001 88.3432C28.8814 88.5042 29.2184 88.4975 29.4848 88.344C29.7236 88.2065 73.7022 62.9194 74.1673 62.6522C74.4429 62.4932 74.6122 62.1995 74.6114 61.8825C74.5948 56.5807 74.6712 81.0759 74.4498 10.0651C74.4488 9.74139 74.2705 9.4533 74.0066 9.30055L74.0032 9.29968L64.2957 3.65853C64.0219 3.49785 63.6833 3.49958 63.4094 3.6568L18.8305 29.3953C18.554 29.5554 18.389 29.85 18.3882 30.1607L18.3886 30.1624L18.3882 30.1642L18.4798 59.2286ZM72.6849 11.5976L72.7143 22.1843L29.902 46.9015L29.8718 36.3161C53.5985 22.6173 48.2643 25.697 72.6849 11.5976ZM29.9271 86.0487L29.9055 48.9441L72.7212 24.2244L72.8404 61.3745L29.9271 86.0487ZM63.85 5.44504L71.8003 10.0651L28.9867 34.7838C26.8072 33.5172 20.8337 30.0456 21.0377 30.1642L63.85 5.44504Z" fill="white"/>
<path d="M19.392 68.1275C19.8809 68.1257 20.2757 67.7283 20.274 67.2402L20.2619 63.5281C20.2602 63.04 19.8645 62.6461 19.3773 62.6461H19.3747C18.8857 62.6478 18.491 63.0452 18.4927 63.5333L18.5048 67.2454C18.5065 67.7335 18.9022 68.1275 19.3894 68.1275H19.392Z" fill="white"/>
<path d="M59.7786 28.1711C61.2584 27.3176 62.4152 25.3143 62.4109 23.6107C62.4036 21.536 60.687 20.5499 58.8802 21.5909C57.3943 22.4496 56.2341 24.4556 56.2393 26.1574C56.2447 28.2271 57.9805 29.2106 59.7786 28.1711ZM59.7648 23.1235C60.4347 22.7363 60.6401 22.9766 60.6416 23.6159C60.6442 24.688 59.8278 26.1004 58.894 26.6386C58.3078 26.9782 58.0101 26.8812 58.0085 26.1522C58.0051 25.081 58.8257 23.6651 59.7648 23.1235Z" fill="white"/>
<path d="M51.6305 32.8742C53.1104 32.019 54.2662 30.0156 54.2619 28.3129C54.2547 26.2388 52.5363 25.253 50.7312 26.294C49.2454 27.1519 48.0852 29.1569 48.0903 30.8596C48.0976 32.9105 49.8107 33.9211 51.6305 32.8742ZM51.6159 27.8265C52.2868 27.4388 52.4912 27.6806 52.4927 28.3181C52.4953 29.3893 51.6789 30.8026 50.7459 31.3417C50.1398 31.6926 49.8612 31.5629 49.8596 30.8545C49.8561 29.7832 50.6768 28.3682 51.6159 27.8265Z" fill="white"/>
<path d="M67.9178 23.47C69.4036 22.6122 70.5638 20.6062 70.5595 18.9035C70.5522 16.8329 68.8287 15.8461 67.0193 16.8898C65.5334 17.7468 64.3733 19.7527 64.3784 21.4563C64.3839 23.5383 66.1296 24.5037 67.9178 23.47ZM67.9039 18.4223C68.5757 18.033 68.7889 18.2726 68.7903 18.9087C68.7929 19.9799 67.9722 21.3958 67.0331 21.9375C66.4407 22.2823 66.1493 22.1717 66.1477 21.4511C66.1442 20.379 66.9649 18.964 67.9039 18.4223Z" fill="white"/>
<path d="M32.1454 40.7674C32.3885 41.1906 32.9305 41.3364 33.3531 41.0923L45.8846 33.8702C46.3079 33.6266 46.4539 33.0858 46.2094 32.6625C45.9658 32.2392 45.4241 32.0923 45.0017 32.3377L32.4702 39.5597C32.0469 39.8033 31.9009 40.3441 32.1454 40.7674Z" fill="white"/>
<path d="M65.1859 42.0234C65.0415 41.2925 64.4664 41.3632 64.0282 41.3609L57.8117 43.5958C57.3512 43.7616 57.1128 44.2679 57.2778 44.7275C57.4437 45.1871 57.9499 45.4246 58.4095 45.2613L62.3527 43.8438L54.5108 57.4257L51.9554 55.7135C51.7533 55.5778 51.5045 55.532 51.2626 55.5873C51.0242 55.6426 50.8194 55.7947 50.6968 56.0063L45.9808 64.1743L43.5507 62.7887C43.1309 62.5485 42.5961 62.691 42.3508 63.1074L36.7425 72.6084C36.4945 73.0291 36.6336 73.5716 37.0543 73.8204C37.4822 74.0709 38.021 73.9235 38.2664 73.5086L43.4315 64.7574L45.8694 66.1474C46.2927 66.3885 46.8309 66.2425 47.0736 65.8209L51.7567 57.7099L54.3121 59.4221C54.7388 59.7096 55.3162 59.5686 55.5708 59.1292L63.8134 44.8529L64.3677 48.7333C64.4308 49.1747 64.8091 49.4926 65.2428 49.4926C65.2843 49.4926 65.3266 49.4901 65.3689 49.484C65.8527 49.4149 66.1888 48.9665 66.1196 48.4828C66.0243 47.8223 66.4636 50.8756 65.1859 42.0234Z" fill="white"/>
<path d="M33.8146 54.3321L44.3341 48.259C44.7574 48.0146 44.9026 47.4738 44.6581 47.0505C44.4127 46.6263 43.8711 46.4812 43.4495 46.7265L32.93 52.7996C32.5067 53.0441 32.3616 53.5849 32.6061 54.0082C32.8512 54.4326 33.3936 54.5753 33.8146 54.3321Z" fill="white"/>
<path d="M40.1227 55.4569C39.8774 55.0319 39.334 54.8884 38.9141 55.1329L32.93 58.5876C32.5067 58.8321 32.3616 59.3729 32.6061 59.7962C32.8512 60.2206 33.3936 60.3633 33.8146 60.1201L39.7987 56.6655C40.222 56.421 40.3672 55.8802 40.1227 55.4569Z" fill="white"/>
</svg>
