<svg width="93" height="93" viewBox="0 0 93 93" fill="none" xmlns="http://www.w3.org/2000/svg">
<path d="M82.4892 28.2287C82.4889 28.2285 82.4895 28.2289 82.4892 28.2287C82.4889 28.2285 82.4875 28.2277 82.4872 28.2275L51.838 10.4159C51.7719 10.3778 51.7016 10.3481 51.6278 10.3286L31.4223 4.86168C31.1306 4.84169 30.773 4.78856 30.4849 5.20157C30.4619 5.2345 10.3538 34.0056 10.3352 34.0414C10.2759 34.1536 10.2445 34.2725 10.2381 34.398C10.2279 34.5958 10.0721 69.2894 10.0793 69.4636C10.0776 69.7738 10.2429 70.0611 10.5108 70.2171L41.1534 88.0341C41.1531 88.0339 41.1537 88.0343 41.1534 88.0341C41.4205 88.1887 41.751 88.1915 42.0213 88.0375C42.022 88.0372 42.0221 88.0364 42.0227 88.0361C104.292 52.0851 73.36 69.9435 82.3374 64.7603C82.6044 64.6061 82.7697 64.3213 82.7714 64.0119L82.9206 28.9822C82.8715 28.5719 82.6922 28.3466 82.4892 28.2287ZM31.4494 6.85011C48.1179 16.5368 44.6103 14.4984 60.5944 23.7874C60.3732 24.1036 44.2976 47.0823 41.4855 51.102L12.3452 34.1586L31.4494 6.85011ZM44.6924 49.546C48.9001 43.5315 58.0767 30.4146 62.2091 24.5078L79.81 29.2712C71.3737 34.1418 52.6465 44.9538 44.6924 49.546ZM51.0642 11.9737L75.9246 26.4216L62.1845 22.7033L37.324 8.25625L51.0642 11.9737ZM11.9576 35.9501L39.3772 51.8846L40.8686 52.7518C40.8531 56.4029 40.7421 82.5536 40.7284 85.7785L11.8177 68.9686L11.9576 35.9501ZM68.8583 51.555L68.9088 69.4561L55.8703 61.8794L55.8624 59.0582C56.0379 58.9569 69.1211 51.4033 68.8583 51.555ZM68.0795 70.9806L55.9158 78.003L55.876 63.8892L68.0795 70.9806ZM70.6451 69.5065L70.5913 50.5541L72.6072 49.3903C73.0225 49.1504 73.1649 48.6198 72.925 48.2045C72.6843 47.7883 72.1512 47.646 71.7393 47.8867C71.5204 48.0131 51.1661 59.765 52.1076 59.2214C51.6923 59.4613 51.5499 59.9918 51.7897 60.4072C52.0302 60.8236 52.5624 60.9636 52.9755 60.725L54.1291 60.059L54.1828 79.0114L42.4646 85.777C42.4767 82.9445 42.5918 55.8401 42.6049 52.7559L81.178 30.4861L81.0381 63.5059L70.6451 69.5065Z" fill="black"/>
<path d="M33.982 56.2133L19.6434 47.8884C19.3764 47.7316 19.0459 47.7307 18.7755 47.8858C18.506 48.0392 18.3398 48.3257 18.339 48.6359L18.2788 64.7425C18.2787 64.7571 18.2889 64.7689 18.2895 64.7833C18.2949 64.9176 18.3213 65.0517 18.3924 65.1765C18.3923 65.1764 18.3925 65.1766 18.3924 65.1765C18.4669 65.3076 18.5755 65.4195 18.7102 65.4977L18.7163 65.5012C18.7161 65.5011 18.7165 65.5013 18.7163 65.5012L33.0301 73.8244C33.1649 73.9032 33.3158 73.9422 33.4666 73.9422C33.9495 73.9422 34.332 73.5514 34.3346 73.0785L34.4151 56.9685C34.4168 56.6574 34.2515 56.3693 33.982 56.2133ZM32.6258 67.1861L23.839 62.0786L23.8729 52.356L32.6767 57.4627L32.6258 67.1861ZM22.1387 51.3452L22.1014 62.0703L20.0218 63.2523L20.0706 50.1446L22.1387 51.3452ZM20.8881 64.756L22.9627 63.577L32.6175 69.1886L32.6055 71.5698L20.8881 64.756Z" fill="black"/>
<path d="M27.6648 16.0684L27.625 28.2575C27.6242 28.5686 27.7894 28.8559 28.059 29.0119C30.2998 30.2954 33.1231 31.9571 33.2979 32.0199C33.5447 32.1073 33.7731 32.0785 33.9908 31.9644C35.6095 30.1823 34.1279 31.8714 39.3191 25.5817C39.4454 25.4274 39.5149 25.235 39.5157 25.0358L39.5556 16.0794C39.5556 16.0784 39.5548 16.0775 39.5548 16.0765C39.5548 16.0754 39.5556 16.0746 39.5556 16.0735C39.5548 15.7651 39.3902 15.4802 39.1227 15.3245L34.0234 12.3806C33.7539 12.2255 33.4225 12.2246 33.1529 12.3823C33.0482 12.4432 33.9957 11.8927 28.0996 15.3183C28.0991 15.3186 28.0988 15.3194 28.0983 15.3197L28.0963 15.3209C27.8892 15.4411 27.6659 15.7245 27.6648 16.0684ZM29.3956 17.5713L32.7614 19.5141C32.7608 19.6897 32.7261 30.3003 32.7281 29.7025L29.3625 27.76L29.3956 17.5713ZM34.467 28.7639L34.4973 19.5142L37.8129 17.5873L37.7816 24.7197L34.467 28.7639ZM33.5911 14.1351L36.956 16.0777L33.6297 18.0108L30.2646 16.0683L33.5911 14.1351Z" fill="black"/>
</svg>
