<svg width="92" height="92" viewBox="0 0 92 92" fill="none" xmlns="http://www.w3.org/2000/svg">
<rect width="92" height="92" rx="46" fill="black"/>
<path d="M32.2 31.72V35.08C31.24 35.68 35.8 32.92 22.36 40.72C22.24 40.84 22 41.08 22 41.2V61.12C22 65.08 24.52 69.88 27.76 72.64C29.8 74.32 32.56 75.4 34.72 74.08L48.76 65.92C49.24 66.52 49.72 67.12 50.44 67.48L54.16 69.52C56.32 70.72 58.84 70.12 60.88 68.92C65.8 66.04 69.88 59.08 69.88 53.44C69.88 50.56 68.8 48.4 67 47.32C66.64 47.08 68.44 48.04 63.28 45.28C62.56 44.92 61.84 44.68 61 44.56V19.72C61 19.6 61 19.48 60.88 19.36C60.88 19.24 60.76 19.24 60.64 19.12L56.92 16.96C56.68 16.84 56.56 16.84 56.32 16.96L32.32 30.88C32.44 31.24 32.2 31.48 32.2 31.72ZM36.04 34.24C36.04 38.8 35.92 65.44 35.92 69.28C35.92 72.4 34.12 74.32 31.12 73.24C30.28 72.88 29.44 72.4 28.84 71.92C25.6 69.52 23.2 65.08 23.2 61.24C23.32 22.36 23.2 70.12 23.2 42.28C23.32 42.4 25.96 43.84 25.72 43.72C25.72 55 25.72 52 25.72 63.4C25.72 64.84 26.44 66.88 27.88 68.32C30.28 70.84 33.28 70.24 33.28 67.12C33.4 32.2 33.28 57.88 33.4 32.8L36.04 34.24ZM32.2 67.12C32.2 69.64 29.92 69.04 28.36 66.88C27.64 65.92 27.04 64.6 27.04 63.4C27.04 50.92 27.04 48.76 27.04 43.72L32.2 40.72C32.2 43.48 32.2 31.12 32.2 67.12ZM32.2 39.4L26.44 42.76L23.92 41.32L32.2 36.52V39.4ZM48.28 65.08L36.76 71.8C37.36 70.12 37.24 34.48 37.24 34.36C39.52 33.04 28.84 39.28 59.92 21.16V45.04C58.84 45.16 57.64 45.64 56.68 46.24C54.76 47.32 52.96 49.12 51.52 51.16L40 57.88C39.76 58 39.64 58.36 39.76 58.72C39.88 58.96 40.24 59.08 40.6 58.96L50.08 53.44C49.84 53.8 49.6 54.28 49.48 54.76C48.16 57.52 47.32 60.88 47.92 63.76C47.92 64 48.04 64.6 48.28 65.08ZM68.8 53.68C68.8 58.96 65.08 65.56 60.4 68.2C55.96 70.72 52.6 68.8 52.6 63.76C52.6 58.12 56.8 51.16 61.84 48.88C65.8 46.96 68.68 48.88 68.8 53.68ZM63.52 46.96C62.8 47.08 61.84 47.44 61.12 47.68C55.72 50.2 51.28 57.64 51.28 63.64C51.28 65.08 51.52 66.28 51.88 67.12L50.92 66.64C49.72 65.92 49.12 64.72 48.88 63.4C48.28 60.52 49.24 57.04 50.56 54.28C52.12 51.28 54.4 48.52 57.04 47.08C58.72 46.12 60.88 45.52 62.56 46.48L63.52 46.96ZM56.8 18.52L59.32 19.96C57.04 21.28 67.72 15.04 36.52 33.16L34 31.72L56.8 18.52Z" fill="white"/>
<path d="M52.12 32.56L57.28 29.56C57.52 29.44 57.64 29.08 57.52 28.72C57.4 28.48 57.04 28.36 56.68 28.48L51.52 31.48C51.28 31.6 51.16 31.96 51.28 32.32C51.4 32.56 51.76 32.68 52.12 32.56Z" fill="white"/>
<path d="M52.12 39.04L57.28 36.04C57.52 35.92 57.64 35.56 57.52 35.2C57.4 34.96 57.04 34.84 56.68 34.96L51.52 37.96C51.28 38.08 51.16 38.44 51.28 38.8C51.4 39.04 51.76 39.16 52.12 39.04Z" fill="white"/>
<path d="M40.4801 52.24L57.1601 42.52C57.4001 42.4 57.5201 42.04 57.4001 41.68C57.2801 41.44 56.9201 41.32 56.5601 41.44L39.8801 51.16C39.6401 51.28 39.5201 51.64 39.6401 52C39.8801 52.24 40.2401 52.36 40.4801 52.24Z" fill="white"/>
<path d="M40.2399 47.08C40.3599 47.08 40.4799 47.08 40.5999 46.96L49.3599 41.92C49.5999 41.8 49.7199 41.56 49.7199 41.44V31.48C49.7199 31.24 49.5999 31.12 49.3599 31C49.1199 30.88 48.9999 30.88 48.7599 31L39.9999 36.04C39.7599 36.16 39.6399 36.4 39.6399 36.52V46.48C39.6399 46.84 39.8799 47.08 40.2399 47.08ZM45.2799 36.16L43.8399 37V35.08L45.2799 34.24V36.16ZM42.6399 35.8V38.08C42.6399 38.44 42.8799 38.68 43.2399 38.68C43.3599 38.68 43.4799 38.68 43.5999 38.56L46.2399 37C46.4799 36.88 46.5999 36.64 46.5999 36.52V33.52L48.3999 32.44V41.08L40.8399 45.4V36.76L42.6399 35.8Z" fill="white"/>
<path d="M64.36 54.4C64.12 54.28 63.76 54.28 63.52 54.64L59.56 61.6L57.4001 60.4C57.1601 60.28 56.8001 60.28 56.5601 60.64C56.4401 60.88 56.4401 61.24 56.8001 61.48L59.4401 62.92C59.6801 63.04 60.0401 63.04 60.2801 62.68L64.6 55.24C64.84 55 64.72 54.52 64.36 54.4Z" fill="white"/>
</svg>
