<svg width="93" height="92" viewBox="0 0 93 92" fill="none" xmlns="http://www.w3.org/2000/svg">
<rect x="0.5" width="92" height="92" rx="46" fill="black"/>
<path d="M60.7215 45.7596C62.402 44.789 63.7143 42.5154 63.7098 40.5835C63.7029 38.4183 62.0122 37.4588 60.1378 38.5432C58.4574 39.5144 57.1462 41.788 57.1506 43.7199C57.1552 45.8607 58.8274 46.8541 60.7215 45.7596ZM60.7039 39.5238C61.8241 38.8786 62.5731 39.3036 62.5778 40.5868C62.5811 42.0986 61.4722 44.019 60.1555 44.779C59.0448 45.4214 58.2851 45.0062 58.2827 43.7166C58.2783 42.2048 59.3872 40.2845 60.7039 39.5238Z" fill="white"/>
<path d="M24.347 64.5705L39.0828 73.0782C39.2574 73.1788 39.473 73.1794 39.6477 73.0787C39.6483 73.0784 39.6485 73.0776 39.6492 73.0773C39.6489 73.0774 39.6494 73.0772 39.6492 73.0773L46.9741 68.8208C47.1477 68.7201 47.2549 68.5344 47.256 68.3332L47.266 65.4114C47.2661 65.4084 47.2682 65.4059 47.2682 65.403C47.2682 65.2067 47.1626 65.0143 46.983 64.9104C46.8687 64.8443 38.6998 60.1256 38.8141 60.1923L38.8091 58.5849C42.2259 61.5586 43.9889 59.4094 44.289 59.4088L52.2409 63.2527C52.4034 63.3305 52.5901 63.3279 52.7506 63.2444L68.6328 54.9009C68.8196 54.803 68.9357 54.6096 68.9357 54.3995C68.9321 36.1427 68.9419 47.7821 68.9297 30.1507C68.9218 29.9591 68.846 29.8179 68.68 29.7084C68.5666 29.6336 59.5329 24.2285 59.5784 24.342C59.3982 24.2364 59.1738 24.2375 58.9969 24.3464L57.435 25.2972C56.885 22.8126 55.6041 20.9082 53.6958 19.8098C51.0746 18.3163 47.7745 18.5645 44.4026 20.5141C38.2923 24.0574 33.3317 32.6518 33.3439 39.6731L33.3939 57.0619L32.245 56.4C32.067 56.2988 31.8514 56.2988 31.6778 56.4011L24.3536 60.658C24.1789 60.7591 24.0717 60.946 24.0717 61.1477C24.0717 61.1506 24.0739 61.1529 24.0739 61.1558L24.064 64.0785C24.0629 64.2814 24.1712 64.4688 24.347 64.5705ZM25.2027 62.1272C28.0993 63.8001 36.3491 68.5644 38.8096 69.9854C38.8091 70.0994 38.8026 71.7235 38.8031 71.6095L25.1972 63.754L25.2027 62.1272ZM39.9356 71.6021C39.936 71.4881 39.9422 69.8726 39.9418 69.9865L46.1306 66.39L46.1251 68.0054L39.9356 71.6021ZM38.7544 39.1043C38.7434 34.1051 42.2734 27.9925 46.6226 25.478C48.3085 24.5034 49.7899 24.2784 50.7927 24.8467C51.3701 25.1759 51.7322 25.745 51.9615 26.3742C51.9587 26.3759 51.9552 26.3766 51.9524 26.3784C51.0227 26.9203 50.5108 27.6707 50.4987 28.4933C50.4983 28.5009 50.4942 28.5072 50.4942 28.5149L50.4853 29.554L43.5536 33.7883C43.4979 33.8224 43.3376 34.0098 43.3093 34.1012L39.3419 46.6711C39.2512 46.7113 39.1595 46.7492 39.0728 46.7995L38.7744 46.9709L38.7544 39.1043ZM58.6055 28.5514C58.6055 29.7474 56.431 30.313 55.1372 30.3126C53.7771 30.3116 51.6294 29.6721 51.6263 28.5215C51.6263 28.1876 51.8452 27.8433 52.2453 27.5411C52.2485 27.5637 52.2534 27.5869 52.2563 27.6093C52.3043 27.9547 52.2948 28.1069 52.3371 28.2247C52.6025 30.4732 57.7399 30.3618 57.7399 28.0378C57.7399 27.9142 57.7255 27.5669 57.7146 27.3789C58.1179 27.6189 58.6055 28.0651 58.6055 28.5514ZM58.5901 30.4877L58.5724 32.5794C58.5713 32.9929 58.254 33.4041 57.6791 33.738C56.2839 34.5484 53.9169 34.5467 52.5063 33.7325C51.9236 33.3964 51.5909 32.9669 51.592 32.5567L51.6097 30.4452C52.5715 31.1413 53.9965 31.4518 55.1408 31.4518C55.1404 31.4518 55.1411 31.4518 55.1408 31.4518C56.2969 31.4518 57.6637 31.1407 58.5901 30.4877ZM67.8037 45.7148L53.0535 53.4637V39.5069L67.8037 31.1468V45.7148ZM45.1256 57.61C45.1428 57.4922 45.2528 57.1708 45.2528 56.4602V56.4376C45.2528 54.6698 44.5198 52.7366 43.5635 51.304C42.6135 49.8569 41.1084 48.3508 39.4774 47.8729L39.6378 47.7806C41.1654 46.9001 43.4196 48.7126 44.5915 50.3637C45.5338 51.6918 46.2848 53.5083 46.2906 55.1341C46.2908 55.1493 46.2942 55.1659 46.2942 55.1811C46.2942 56.1954 46.0276 57.1273 45.1256 57.61ZM38.7794 48.8705C40.224 49.074 41.7537 50.6112 42.6194 51.9292C43.4663 53.1976 44.1207 54.9045 44.1207 56.4602C44.1207 57.0593 44.0231 57.3132 44.0069 57.4292C44.0046 57.4353 44.0013 57.442 43.9991 57.448C43.5282 57.4713 42.9079 57.2805 42.2999 56.9212C40.8688 56.0915 39.534 54.4484 38.7935 52.6149C38.7931 52.4986 38.7785 48.6275 38.7794 48.8705ZM46.1508 50.7089C45.9603 50.3682 45.7498 50.0409 45.5254 49.7236C45.517 49.7117 45.5097 49.6986 45.5013 49.6867C45.2479 49.3316 44.9774 48.9936 44.6879 48.6791C44.6811 48.6717 44.6752 48.6631 44.6683 48.6557C43.6377 47.5435 42.1716 46.4865 40.6427 46.431C40.6307 46.4306 40.6182 46.4277 40.6062 46.4274L44.178 35.1094L51.9214 39.5029V53.4977L46.1508 50.7089ZM40.5576 58.4618C39.9429 58.1025 39.3415 57.5978 38.8108 56.9959L38.8031 55.0353C39.612 56.249 40.6294 57.2611 41.7283 57.8985C42.3068 58.2404 42.8787 58.4549 43.4235 58.5396C42.6689 59.2973 41.4974 59.0086 40.5576 58.4618ZM45.8675 58.4883C47.0018 57.8239 47.4252 56.4924 47.4263 55.1833C47.4263 55.1829 47.4262 55.1825 47.4262 55.1821C47.4262 54.2067 47.2048 53.2335 46.874 52.316L51.9214 54.7553V61.8409L45.4684 58.7216L45.8675 58.4883ZM53.0535 61.8061V54.7428L67.8037 46.994V54.0574L53.0535 61.8061ZM59.2954 25.4896L67.24 30.1654L52.4917 38.5245L44.9643 34.2532L50.474 30.8875L50.4599 32.5496C50.4566 33.3925 50.9828 34.1609 51.9402 34.7131C53.7143 35.7381 56.4841 35.7416 58.2473 34.717C59.1837 34.1731 59.7011 33.4158 59.7044 32.5866C59.7047 32.5588 59.7011 32.9736 59.7387 28.5519C59.7387 28.5429 59.7341 28.5355 59.7337 28.5266C59.7233 27.6903 59.1996 26.9279 58.2518 26.3784C58.2494 26.377 58.2465 26.376 58.2441 26.3746C58.1744 26.3348 58.1025 26.2972 58.0296 26.2607L59.2954 25.4896ZM44.9698 21.4941C47.5364 20.0103 50.5697 19.3306 53.1331 20.7927C55.6213 22.2238 56.5718 25.1876 56.6078 28.045C56.6078 28.1733 56.484 28.3181 56.264 28.4403C55.1444 29.0989 53.443 28.5025 53.4603 28.0649C53.5016 26.7758 52.7569 24.6632 51.3521 23.8622C49.9867 23.0872 48.1051 23.3139 46.0565 24.4979C41.3945 27.1927 37.6113 33.7463 37.6223 39.1071C37.6987 69.4166 37.6136 36.0487 37.6909 63.1283C37.6909 63.2444 37.5615 63.3903 37.3504 63.5103C36.4685 64.0215 35.0447 63.7992 34.6256 63.2932C34.5778 63.2354 34.5434 63.178 34.5434 63.1267C34.5425 62.6971 34.5321 57.9277 34.5324 58.0439C34.4453 29.6856 34.4884 43.7314 34.476 39.6704C34.4638 33.01 39.1723 24.8555 44.9698 21.4941ZM31.9631 57.5442L33.3977 58.3707L33.4113 63.1283C33.4113 64.8539 36.4155 65.363 37.9142 64.492C38.4913 64.1642 38.823 63.6673 38.823 63.1056V61.5048L45.57 65.4032L39.3763 69.0031C32.7638 65.1854 31.4771 64.4425 25.7665 61.1455L31.9631 57.5442Z" fill="white"/>
</svg>
