<svg width="93" height="92" viewBox="0 0 93 92" fill="none" xmlns="http://www.w3.org/2000/svg">
<rect x="0.5" width="92" height="92" rx="46" fill="white"/>
<path d="M66.9506 26.0722C67.3287 25.8478 67.5454 25.4144 67.5454 24.8826C67.5454 23.9794 66.9544 22.9645 66.1667 22.519C65.5145 22.1564 65.054 22.3189 64.8456 22.4405C59.1048 25.6584 61.6931 24.2094 58.6475 25.9192L56.8903 24.9047C58.9541 23.7554 59.0197 23.7104 60.9818 22.6085C61.3615 22.3863 61.5793 21.9529 61.5793 21.4179C61.5793 20.5301 60.9757 19.4942 60.2151 19.0642C59.7469 18.7845 59.256 18.7568 58.8796 18.9768C58.7593 19.0443 56.015 20.5837 55.8967 20.6501C55.8889 20.6543 55.8797 20.655 55.8719 20.6595C55.8674 20.662 55.865 20.6665 55.8606 20.6691L52.6637 22.4643L51.5482 21.8203C51.3724 21.7186 51.1562 21.7186 50.9805 21.8203L47.0027 24.132L43.2466 21.964C43.0709 21.8612 42.8547 21.8623 42.6789 21.964L25.8183 31.7624C25.6087 31.8848 25.5373 32.1363 25.537 32.2511L25.4546 61.4131C25.454 61.6154 25.5618 61.8033 25.7376 61.9039L45.1172 73.0931C45.2925 73.1952 45.5074 73.1941 45.6827 73.0942C45.6824 73.0944 45.683 73.0941 45.6827 73.0942C45.6832 73.094 45.6844 73.0934 45.6849 73.0931L62.545 63.2947C62.7186 63.193 62.8258 63.0073 62.8264 62.8061L62.8468 55.7262C62.8479 55.4144 62.613 55.1623 62.2808 55.159C61.969 55.159 61.7158 55.4111 61.7147 55.7239L61.6954 62.4788L53.871 67.0261L53.9502 39.1748L61.7744 34.6283L61.7335 49.0443C61.7324 49.356 61.9856 49.6103 62.2979 49.6114C62.2985 49.6114 62.299 49.6114 62.2996 49.6114C62.6113 49.6114 62.8645 49.3593 62.8656 49.0465C62.9509 18.7651 62.8731 46.2336 62.9053 33.6269L63.1293 28.8593C63.0881 28.7435 63.1159 28.53 62.8749 28.3671L66.9506 26.0722ZM59.4307 19.9641C59.4522 19.9663 59.5219 19.9685 59.6479 20.0437C60.0664 20.2803 60.4472 20.9347 60.4472 21.4179C60.4472 21.5583 60.4152 21.6235 60.4185 21.6268L58.5127 22.6997C58.3988 22.0628 58.0448 21.4412 57.5546 21.0178L59.4307 19.9641ZM56.4255 21.6506C56.4454 21.6446 56.5212 21.6526 56.6447 21.7241C57.062 21.9629 57.4418 22.6207 57.4418 23.1038C57.4418 23.2376 57.412 23.305 57.3987 23.3216C57.395 23.3238 57.3932 23.3276 57.3896 23.3298L55.7536 24.2436L53.804 23.1215C53.9175 23.0578 56.5946 21.5556 56.4255 21.6506ZM45.4814 42.7857C41.0331 40.2178 31.9055 34.9487 27.2324 32.251L34.399 28.0865L52.6479 38.6211L45.4814 42.7857ZM61.8161 32.6854L59.4303 31.3079L61.9497 29.8443L61.8161 32.6854ZM65.3879 23.4322C65.3895 23.4322 65.4631 23.4233 65.614 23.5073C66.0324 23.7439 66.4133 24.3995 66.4133 24.8826C66.4133 25.0241 66.3801 25.0894 66.3845 25.0916L64.4787 26.1643C64.3639 25.5277 64.0091 24.9058 63.5181 24.4826L65.3879 23.4322ZM62.3859 25.1171C62.4007 25.1104 62.4836 25.1174 62.6108 25.1911C63.0281 25.431 63.4084 26.0888 63.4084 26.5719C63.4084 26.7024 63.3791 26.7698 63.3659 26.7886C63.3634 26.79 63.3622 26.7925 63.3598 26.7941L61.7413 27.7051L59.7894 26.5763C60.0549 26.4271 58.828 27.1174 62.3859 25.1171ZM42.9647 23.1082L46.7208 25.2762C46.8955 25.3779 47.1116 25.3779 47.2885 25.2762L51.2662 22.9645C51.5354 23.1199 62.2244 29.2917 61.4285 28.8322L58.0128 30.8172C57.8387 30.9189 57.7309 31.1057 57.7315 31.308C57.7315 31.3078 57.7315 31.3083 57.7315 31.308C57.7315 31.3098 57.7304 31.3118 57.7304 31.3136C57.7309 31.5148 57.8387 31.7016 58.0134 31.8022L61.2098 33.6464L53.776 37.9661L35.5269 27.4307L42.9647 23.1082ZM26.6663 33.2306L44.9155 43.7664C44.9021 48.514 44.8595 63.6278 44.837 71.625L26.5878 61.088L26.6663 33.2306ZM52.7372 67.6848L45.969 71.6183L46.0477 43.7668L52.8162 39.8337L52.7372 67.6848Z" fill="black"/>
<path d="M62.294 50.9536C61.9806 50.9967 61.7275 51.2045 61.7264 51.5185L61.7214 53.3006C61.7208 53.6135 61.9873 53.9109 62.2874 53.8678C62.5992 53.8678 62.8523 53.6157 62.8535 53.3028L62.8584 51.5207C62.8595 51.2089 62.6064 50.9547 62.294 50.9536Z" fill="black"/>
<path d="M34.2237 59.6907L29.9226 57.2076C29.6523 57.0484 29.3057 57.1435 29.1493 57.4143C28.9929 57.6852 29.0857 58.0312 29.3566 58.1871L33.6577 60.6702C33.9259 60.8267 34.2736 60.7351 34.431 60.4634C34.5875 60.1926 34.4946 59.8465 34.2237 59.6907Z" fill="black"/>
<path d="M42.1466 64.2643L37.8455 61.7812C37.5747 61.6231 37.2292 61.7182 37.0722 61.9879C36.9158 62.2588 37.0086 62.6048 37.2795 62.7607L41.5806 65.2438C41.8488 65.4003 42.1966 65.3087 42.3539 65.037C42.5104 64.7662 42.4175 64.4201 42.1466 64.2643Z" fill="black"/>
<path d="M42.968 53.1314C42.9802 48.7347 39.8775 43.3607 36.0518 41.1518C32.0187 38.8203 28.549 40.7567 28.5352 45.4501C28.523 49.8469 31.6219 55.2187 35.4426 57.4243C39.5109 59.7766 42.9543 57.7788 42.968 53.1314ZM29.6673 45.4523C29.6787 41.6727 32.1736 40.2191 35.4857 42.1313C38.9986 44.16 41.847 49.0929 41.836 53.1292C41.8245 56.907 39.3138 58.35 36.0087 56.4448C32.5008 54.4194 29.6562 49.4887 29.6673 45.4523Z" fill="black"/>
<path d="M33.5156 45.8249C32.4005 45.1811 31.3506 45.8043 31.3471 47.0654C31.3444 48.1035 32.0442 49.3229 32.9413 49.8425C34.0455 50.4788 35.1113 49.8692 35.1159 48.5899C35.1187 47.5584 34.4161 46.3434 33.5156 45.8249ZM33.5073 48.8619C32.9579 48.5435 32.4775 47.7055 32.4792 47.0676C32.4802 46.6849 32.5933 46.6012 32.9496 46.8045C33.5024 47.1229 33.9855 47.9564 33.9838 48.5866C33.983 48.9668 33.8656 49.0696 33.5073 48.8619Z" fill="black"/>
<path d="M40.1561 51.4997C40.1588 50.4693 39.4563 49.2554 38.5564 48.7347C37.4431 48.0932 36.3919 48.7187 36.3873 49.9752C36.3845 51.0144 37.0843 52.2338 37.9809 52.7512C39.0708 53.3833 40.1526 52.7925 40.1561 51.4997ZM38.547 51.7717C37.9981 51.4544 37.5177 50.6164 37.5194 49.9785C37.5202 49.6136 37.6268 49.5064 37.9892 49.7142C38.542 50.0337 39.0257 50.8673 39.024 51.4975C39.0231 51.8772 38.9078 51.9798 38.547 51.7717Z" fill="black"/>
</svg>
