<svg width="93" height="92" viewBox="0 0 93 92" fill="none" xmlns="http://www.w3.org/2000/svg">
<rect x="0.5" width="92" height="92" rx="46" fill="black"/>
<path d="M59.3399 63.28C59.0999 63.4 58.9799 63.76 59.0999 64.12C59.2199 64.36 59.5799 64.48 59.9399 64.36L61.1399 63.64C61.6199 64.12 62.0999 64.6 62.5799 64.84C63.2999 65.32 64.2599 65.44 64.9799 64.96C66.1799 64.24 67.4999 63.52 67.2599 63.64C67.8599 63.28 68.3399 62.44 68.3399 61.48C68.3399 60.64 68.0999 59.8 67.7399 59.2V55.72C67.7399 55.48 67.6199 55.36 67.4999 55.24L58.8599 49.96C58.9799 48.52 58.9799 46.6 58.8599 45.04C58.8599 44.92 58.3799 41.2 56.9399 37.84C56.6999 37.36 56.5799 36.88 56.3399 36.52C56.0999 35.68 55.2599 34.96 54.1799 34.36C52.9799 33.76 51.5399 33.4 50.0999 33.4V29.68C50.0999 29.44 49.9799 29.32 49.7399 29.2L46.6199 27.4C46.3799 27.28 46.2599 27.28 46.0199 27.4L44.8199 28.12V21.64C44.8199 20.92 44.4599 20.2 43.7399 19.72L39.2999 17.2C38.2199 16.6 36.8999 16.96 36.4199 18.04C35.8199 19.12 36.1799 20.32 37.2599 20.92L40.4999 22.84V30.52L33.4199 34.72V28.24C33.4199 27.52 33.0599 26.8 32.3399 26.32L27.8999 23.8C26.8199 23.2 25.4999 23.56 24.8999 24.64C24.2999 25.6 24.6599 26.92 25.7399 27.52L29.0999 29.44V37.12C28.9799 37.24 27.5399 38.08 27.6599 37.96C27.4199 38.2 27.2999 38.44 27.2999 38.56V57.64C26.9399 57.88 26.3399 58.12 26.2199 58.24C25.6199 58.6 25.2599 59.44 25.2599 60.4C25.2599 62.2 26.4599 64.36 28.1399 65.32C28.8599 65.8 29.8199 65.92 30.5399 65.56L32.8199 64.24C33.4199 63.88 33.7799 63.16 33.8999 62.2L43.4999 67.72L43.3799 67.84C42.7799 68.2 42.5399 68.92 42.4199 69.88C42.4199 71.68 43.6199 73.84 45.2999 74.8C46.0199 75.28 46.9799 75.4 47.6999 75.04C48.1799 74.8 50.2199 73.6 50.0999 73.72C50.6999 73.36 51.1799 72.52 51.1799 71.56C51.1799 71.08 51.0599 70.48 50.8199 70L55.8599 67.12C56.0999 67 56.2199 66.64 56.0999 66.28C55.9799 66.04 55.6199 65.92 55.2599 66.04L49.6199 69.28V67L66.6599 56.8V59.08C46.8599 70.48 76.6199 53.2 59.3399 63.28ZM28.4999 57.64V39.64L30.4199 40.72V56.2C30.4199 56.44 30.6599 56.56 30.7799 56.68L48.2999 66.76V69.04C26.8199 56.68 28.9799 57.88 28.4999 57.64ZM48.7799 30.76V33.4C47.0999 33.4 45.4199 33.76 44.0999 34.48C42.0599 35.56 42.0599 36.52 41.6999 37.24C40.2599 40 39.6599 43.84 39.5399 43.96C39.1799 45.64 39.0599 48.16 39.4199 50.44L31.7399 55.12V40.72C55.1399 27.04 47.0999 31.72 48.7799 30.76ZM44.3399 40.36C43.9799 41.92 43.6199 43.36 43.4999 44.8C42.6599 44.56 41.6999 44.2 40.9799 43.72C41.2199 42.4 41.5799 41.08 42.4199 38.8C42.6599 39.28 43.3799 39.88 44.3399 40.36ZM48.7799 41.32V45.64C47.3399 45.64 45.8999 45.4 44.5799 45.16C44.8199 43.72 45.0599 42.28 45.4199 40.84C46.3799 41.08 47.5799 41.2 48.7799 41.32ZM52.8599 40.72C53.2199 42.16 53.4599 43.6 53.6999 45.04C52.4999 45.28 51.1799 45.4 49.9799 45.52V41.2C50.8199 41.2 51.8999 41.08 52.8599 40.72ZM53.5799 55.36C52.3799 55.6 51.1799 55.72 49.8599 55.84V46.84C51.1799 46.84 52.4999 46.6 53.8199 46.36C54.1799 49.36 54.0599 52.24 53.5799 55.36ZM54.6599 56.32C55.2599 56.2 55.7399 55.96 56.2199 55.84C55.6199 57.64 55.1399 58.36 55.1399 58.6C55.0199 58.96 54.5399 59.44 53.9399 59.8C54.2999 58.6 54.5399 57.4 54.6599 56.32ZM53.4599 56.68C53.2199 57.88 52.9799 59.08 52.6199 60.4C51.7799 60.64 50.9399 60.76 49.9799 60.88V57.04C51.1799 56.92 52.2599 56.8 53.4599 56.68ZM44.5799 55.36C44.0999 52.24 44.0999 49.36 44.3399 46.24C45.6599 46.48 47.0999 46.72 48.6599 46.72V55.72C47.3399 55.84 45.8999 55.6 44.5799 55.36ZM48.7799 57.04V60.88C47.6999 60.88 46.6199 60.64 45.7799 60.4C45.4199 59.08 45.1799 57.88 44.9399 56.68C46.0199 56.8 47.3399 57.04 48.7799 57.04ZM40.6199 44.92C41.3399 45.28 42.1799 45.64 43.2599 45.88C42.8999 48.88 42.8999 51.88 43.3799 54.88C42.6599 54.64 42.0599 54.4 41.4599 54.16C40.4999 51.4 40.2599 48.16 40.6199 44.92ZM43.4999 56.32C43.7399 57.4 43.8599 58.48 44.2199 59.68C43.6199 59.32 43.2599 58.96 43.1399 58.48C43.0199 58.24 42.8999 58.12 41.9399 55.72C42.4199 55.96 43.0199 56.2 43.4999 56.32ZM63.1799 63.88C62.8199 63.64 62.5799 63.4 62.2199 63.04L64.6199 61.72C64.7399 62.08 64.8599 62.56 64.8599 62.92C64.8599 64 64.1399 64.48 63.1799 63.88ZM66.6599 62.68L65.9399 63.04V62.92C65.9399 62.44 65.8199 61.72 65.5799 61.12L66.8999 60.4C67.0199 60.88 67.1399 61.24 67.1399 61.6C67.1399 62.08 67.0199 62.44 66.6599 62.68ZM58.7399 51.4L66.0599 55.84L48.8999 65.8L32.2199 56.2L39.5399 51.76C40.0199 54.76 41.6999 58.72 42.0599 59.2C43.0199 61.36 46.7399 62.2 49.3799 62.2C51.4199 62.2 53.0999 61.72 54.1799 61.12C55.2599 60.64 55.9799 59.92 56.3399 59.08C56.3399 58.72 58.0199 55.48 58.7399 51.4ZM57.6599 45.04C58.0199 48.88 57.8999 50.8 56.8199 54.4C56.2199 54.64 55.6199 54.88 54.8999 55.12C55.3799 52 55.3799 49.12 55.0199 46.12C55.9799 45.76 56.8199 45.4 57.6599 45.04ZM57.4199 43.72C56.5799 44.2 55.7399 44.56 54.8999 44.8C54.6599 43.36 54.4199 41.92 54.0599 40.36C54.7799 40 55.6199 39.52 55.9799 38.8C56.5799 40.36 57.0599 42.04 57.4199 43.72ZM53.0999 39.4C50.4599 40.36 46.2599 40.24 44.0999 38.8C42.5399 37.72 42.8999 36.4 44.6999 35.56C47.2199 34.36 51.1799 34.36 53.6999 35.56C56.0999 36.76 55.6199 38.44 53.0999 39.4ZM46.2599 28.6L48.1799 29.68C46.3799 30.64 54.5399 25.96 31.0199 39.64C30.8999 39.52 28.9799 38.44 29.0999 38.56C29.2199 38.44 40.4999 31.96 46.2599 28.6ZM41.4599 22L37.7399 19.84C37.2599 19.6 37.1399 19 37.3799 18.52C37.6199 18.04 38.2199 17.92 38.6999 18.16L43.1399 20.8C43.3799 20.92 43.6199 21.28 43.6199 21.64V28.84L41.6999 29.92V22.6C41.6999 22.24 41.5799 22.12 41.4599 22ZM30.0599 28.6L26.3399 26.44C25.8599 26.2 25.7399 25.72 25.9799 25.24C26.2199 24.76 26.8199 24.64 27.2999 24.88L31.7399 27.4C31.9799 27.52 32.2199 27.88 32.2199 28.24V35.44L30.2999 36.52V29.2C30.2999 28.96 30.1799 28.72 30.0599 28.6ZM28.6199 64.24C27.4199 63.52 26.3399 61.72 26.3399 60.4C26.3399 57.52 30.1799 60.4 30.1799 63.28C30.2999 64.36 29.6999 64.84 28.6199 64.24ZM32.2199 63.04L31.4999 63.4C31.4999 62.32 31.0199 61 30.4199 60.04L32.5799 61.24C32.5799 61.48 32.5799 61.6 32.5799 61.84C32.5799 62.2 32.5799 62.8 32.2199 63.04ZM45.7799 73.6C44.5799 72.88 43.4999 71.08 43.4999 69.76C43.4999 68.8 43.9799 68.32 44.8199 68.68C46.0199 69.16 47.0999 70.72 47.3399 72.04C47.6999 73.48 47.0999 74.44 45.7799 73.6ZM49.3799 72.4L48.6599 72.76C48.6599 71.92 48.4199 70.96 48.0599 70.24L48.5399 70.6C48.7799 70.72 48.8999 70.72 49.1399 70.6L49.6199 70.36C49.7399 70.72 49.7399 71.08 49.7399 71.32C49.8599 71.68 49.7399 72.28 49.3799 72.4Z" fill="white"/>
<path d="M57.8998 64.12L56.5798 64.96C56.3398 65.08 56.2198 65.44 56.3398 65.8C56.4598 66.04 56.8198 66.16 57.1798 66.04L58.4998 65.2C58.7398 65.08 58.8598 64.72 58.7398 64.36C58.4998 64.12 58.1398 64 57.8998 64.12Z" fill="white"/>
</svg>
