<svg width="93" height="92" viewBox="0 0 93 92" fill="none" xmlns="http://www.w3.org/2000/svg">
<rect x="0.5" width="92" height="92" rx="46" fill="black"/>
<path d="M64.62 43.48C64.62 42.64 64.02 42.28 63.42 42.4C62.58 42.52 58.62 44.68 55.86 46.96C53.82 48.76 52.38 50.8 51.66 53.2C50.7 56.2 50.58 59.68 50.82 60.64C51.18 62.56 53.22 63.04 55.26 61C56.22 60.04 57.18 58.84 58.14 57.64C60.54 54.52 62.46 50.68 63.78 47.08C64.02 46.24 64.74 44.44 64.62 43.48ZM62.58 46.96C61.26 50.56 59.46 54.04 57.06 57.16C55.98 58.6 55.14 59.56 54.3 60.4C53.7 61 52.5 61.72 52.02 61C52.02 61 51.9 60.88 51.9 60.76C51.78 60.28 51.78 59.32 51.78 58.6C52.62 57.76 53.34 56.8 54.18 55.72C56.46 52.84 58.26 49.6 59.58 45.76C59.7 45.64 60.3 45.04 63.18 43.72C63.42 44.56 62.82 46 62.58 46.96ZM56.58 47.92C57.06 47.56 57.54 47.2 58.02 46.84C56.7 49.84 55.26 52.48 53.34 54.88C52.86 55.48 52.5 55.96 52.02 56.44C52.14 55.48 52.38 54.52 52.74 53.56C53.46 51.52 54.66 49.6 56.58 47.92Z" fill="white"/>
<path d="M29.0999 70.6C29.3399 70.72 33.5399 73.24 33.7799 73.36C35.4599 74.32 37.3799 74.8 39.4199 74.8C42.4199 74.8 45.6599 73.84 49.1399 71.92C61.0199 65.08 70.2599 49 70.2599 35.44C70.2599 28.84 67.9799 23.8 63.8999 21.4C63.7799 21.28 59.2199 18.64 59.3399 18.76C52.4999 14.8 43.8599 19.12 37.9799 24.52C37.7399 24.76 37.7399 25.12 37.9799 25.36C38.2199 25.6 38.5799 25.6 38.8199 25.36C44.2199 20.44 52.4999 16.12 58.7399 19.72L58.9799 19.84C55.4999 19.6 52.0199 20.8 48.8999 22.48C36.8999 29.08 27.0599 46.12 27.2999 59.92C27.4199 63.28 28.1399 67 29.9399 69.76L29.6999 69.64C26.0999 67.6 24.0599 63.16 23.9399 57.28C23.6999 48.28 27.8999 37.72 34.7399 29.56C34.9799 29.32 34.9799 28.96 34.6199 28.72C34.3799 28.48 34.0199 28.48 33.7799 28.84C26.6999 37.24 22.4999 48.16 22.6199 57.28C22.8599 63.52 25.1399 68.32 29.0999 70.6ZM69.0599 35.44C69.0599 48.4 59.8199 64.36 48.5399 70.96C42.4199 74.44 35.3399 75.28 31.2599 69.64C29.2199 66.88 28.4999 63.28 28.4999 60.04C28.3799 55.36 29.4599 50.44 31.3799 45.64C34.7399 37.12 40.9799 28.84 49.1399 23.92C53.4599 21.52 58.8599 20.08 63.1799 22.6C67.0199 24.64 69.0599 29.2 69.0599 35.44Z" fill="white"/>
<path d="M36.06 28.12C36.42 27.64 36.9 27.16 37.38 26.8C37.62 26.56 37.62 26.2 37.38 25.96C37.14 25.72 36.78 25.72 36.54 25.96C36.06 26.44 35.7 26.92 35.22 27.28C34.98 27.52 34.98 27.88 35.22 28.12C35.46 28.36 35.82 28.36 36.06 28.12Z" fill="white"/>
<path d="M51.78 48.76C52.86 47.68 53.46 46.12 53.22 44.92C52.98 43.6 51.66 43 50.34 43.84L46.86 45.88C45.42 46.72 44.46 48.4 44.46 49.96C44.46 51.76 45.9 52.6 47.46 51.64C47.82 51.16 50.94 49.48 51.78 48.76ZM46.74 50.44C46.02 50.92 45.54 50.8 45.54 49.84C45.54 48.76 46.38 47.32 47.46 46.72L50.94 44.68C51.54 44.32 52.02 44.32 52.14 45.04C52.26 45.88 51.78 47.08 51.06 47.8C50.22 48.52 46.86 50.32 46.74 50.44Z" fill="white"/>
<path d="M60.4199 26.68C59.2199 25.96 57.5399 25.6 56.0999 25.6C53.6999 25.6 51.1799 26.32 48.2999 28C48.1799 28.12 44.4599 30.04 40.4999 34.96C36.4199 40 33.8999 45.64 32.8199 50.8C32.4599 52.36 33.4199 53.2 34.4999 52.96C35.0999 52.84 35.4599 52.36 35.9399 52C40.8599 47.8 45.8999 44.2 48.5399 42.52C52.1399 40.24 58.4999 37.84 62.6999 36.64C64.0199 36.28 65.3399 34.36 64.8599 32.68C64.0199 30.16 62.5799 27.88 60.4199 26.68ZM62.3399 35.32C57.7799 36.76 51.7799 38.92 47.6999 41.44C41.0999 45.64 34.7399 51.4 34.2599 51.52C33.7799 51.76 33.7799 51.4 33.8999 50.92C34.2599 49.12 34.8599 47.32 35.4599 45.64C36.6599 44.68 37.8599 43.72 39.0599 42.88C40.6199 41.8 42.2999 40.6 43.9799 39.52C46.0199 38.2 48.4199 37.24 50.3399 36.4C52.7399 35.44 55.2599 34.48 58.1399 33.64C59.4599 33.4 60.8999 31.24 60.2999 29.68C60.0599 28.84 59.6999 28 59.2199 27.28C61.4999 28.24 62.9399 30.28 63.6599 32.68C63.8999 33.76 63.0599 35.2 62.3399 35.32ZM41.3399 35.68C45.0599 31 51.4199 25.96 57.2999 26.92C58.0199 27.88 58.6199 28.96 58.9799 30.28C59.2199 31.12 58.3799 32.56 57.6599 32.8C54.7799 33.64 52.1399 34.6 49.7399 35.56C47.6999 36.4 45.2999 37.36 43.2599 38.8C41.5799 39.88 39.8999 41.08 38.3399 42.16C37.7399 42.64 37.1399 43.12 36.4199 43.6C37.7399 40.72 39.2999 38.2 41.3399 35.68Z" fill="white"/>
<path d="M46.5 58.12C45.78 55.84 44.22 55 42.42 55.12C42.18 55.12 41.82 55.24 41.46 55.24C39.54 55.84 34.98 58.12 33.66 59.68C33.06 60.4 32.82 61.24 33.06 61.84C33.42 62.56 33.78 63.4 34.26 64.24C36.18 67.36 39.9 68.68 43.5 67.96C44.58 67.72 45.78 67 46.5 65.44C47.34 64 47.1 62.68 47.1 61.84C47.1 60.76 46.86 59.32 46.5 58.12ZM45.54 64.84C45.06 65.8 44.22 66.64 43.26 66.88C40.86 67.36 38.58 66.76 37.02 65.56C37.62 65.56 38.22 65.56 38.94 65.44C39.3 65.32 39.66 65.2 40.02 65.08C41.58 64.24 42.66 62.32 42.54 60.52C42.54 58.96 42.42 57.64 42.18 56.56C43.86 56.2 44.82 57.04 45.3 58.6C45.66 59.68 45.78 61.12 45.9 62.2C45.9 62.92 46.02 63.76 45.54 64.84ZM34.14 61.48C34.14 61.36 34.14 61 34.5 60.64C35.58 59.44 39.54 57.4 40.98 56.8C41.22 57.76 41.34 58.96 41.34 60.4C41.34 61.84 40.5 63.28 39.42 64C39.18 64.12 38.94 64.24 38.7 64.24C37.74 64.48 36.78 64.48 35.7 64.24C35.58 64 35.34 63.88 35.22 63.64C34.86 62.92 34.5 62.08 34.14 61.48Z" fill="white"/>
</svg>
