<svg width="93" height="92" viewBox="0 0 93 92" fill="none" xmlns="http://www.w3.org/2000/svg">
<rect x="0.5" width="92" height="92" rx="46" fill="black"/>
<path d="M61.4998 30.16C60.2998 30.88 59.3398 32.56 59.3398 33.88C59.3398 35.56 60.6598 36.28 62.0998 35.44C63.2998 34.72 64.2598 33.04 64.2598 31.72C64.2598 30.04 62.9398 29.32 61.4998 30.16ZM61.4998 34.48C60.8998 34.84 60.5398 34.6 60.5398 33.88C60.5398 32.92 61.2598 31.72 62.0998 31.24C62.6998 30.88 63.0598 31 63.0598 31.84C63.0598 32.68 62.3398 33.88 61.4998 34.48Z" fill="white"/>
<path d="M27.4199 48.16C25.9799 49 24.8999 50.92 24.8999 52.6V66.76C24.8999 67.72 25.2599 68.32 25.8599 68.68C28.3799 70.12 31.6199 72.04 31.8599 72.16C32.4599 72.52 33.2999 72.4 34.0199 72.04L34.8599 71.56C37.9799 73.36 40.4999 74.8 40.3799 74.68C40.7399 74.92 41.0999 74.68 41.2199 74.44C41.3399 74.32 47.0999 64.48 46.9799 64.48L55.6199 59.44C57.0599 58.6 58.1399 56.68 58.1399 55V45.64L60.8999 44.08L66.4199 47.2C66.5399 47.2 66.6599 47.32 66.6599 47.32C67.0199 47.32 67.3799 46.96 67.2599 46.48L65.5799 41.32C67.0199 40.48 68.0999 38.56 68.0999 36.88V22.72C68.0999 21.88 67.7399 21.28 67.2599 20.92C67.1399 20.8 61.0199 17.32 61.1399 17.32C60.5399 16.96 59.6999 17.08 58.9799 17.44L56.5799 18.76C56.3399 18.88 56.2199 19.24 56.3399 19.6C56.4599 19.84 56.8199 19.96 57.1799 19.84L59.5799 18.52C60.0599 18.4 60.4199 18.4 60.5399 18.52L64.9799 21.04L43.7399 33.28C43.6199 33.16 38.6999 30.28 38.9399 30.52L52.7399 22.6C52.9799 22.48 53.0999 22.12 52.9799 21.76C52.8599 21.52 52.4999 21.4 52.1399 21.52L37.4999 29.92C36.0599 30.76 34.9799 32.68 34.9799 34.36V43.72L27.4199 48.16ZM40.8599 40.36L36.0599 43.12V35.44L40.8599 38.2C40.8599 38.32 40.8599 40.48 40.8599 40.36ZM55.0199 37.84L53.4599 37C53.6999 36.28 54.1799 35.68 54.7799 35.44C55.3799 35.08 55.7399 35.2 55.7399 35.92C55.7399 36.52 55.4999 37.24 55.0199 37.84ZM28.8599 48.64L49.4999 36.76C49.8599 36.52 50.2199 36.52 50.4599 36.64L54.8999 39.16L33.6599 51.4C33.5399 51.4 28.6199 48.52 28.8599 48.64ZM27.7799 49.36C27.8999 49.48 32.9399 52.36 32.5799 52.12C31.7399 52.84 31.1399 54.04 30.8999 55C30.7799 54.88 25.7399 52 26.0999 52.24C26.2199 51.16 26.9399 50.08 27.7799 49.36ZM30.8999 70.24L26.4599 67.72C26.2199 67.6 26.0999 67.24 26.0999 66.76V53.56C26.2199 53.68 31.1399 56.56 30.8999 56.32C30.8999 75.4 30.8999 68.8 30.8999 70.24ZM40.4999 68.32C40.4999 68.68 40.0199 73.6 40.0199 73.24L35.9399 70.84L40.4999 68.32ZM54.8999 58.6L46.1399 63.64C46.0199 63.64 46.0199 63.76 45.8999 63.88L41.4599 71.56C41.4599 71.44 41.8199 67 41.8199 67.24C41.8199 66.88 41.5799 66.64 41.2199 66.64C41.0999 66.64 40.9799 66.64 40.8599 66.76L33.2999 71.08C32.4599 71.56 31.9799 71.2 31.9799 70.36C31.9799 49.72 31.9799 75.16 31.9799 56.2C31.9799 55 32.8199 53.44 33.8999 52.84C57.0599 39.4 55.1399 40.48 55.4999 40.36C56.3399 40 56.6999 40.24 56.6999 41.2C56.6999 47.56 56.6999 55.72 56.6999 55.36C56.9399 56.44 55.9799 58 54.8999 58.6ZM64.9799 40.36L64.6199 40.6C64.3799 40.72 64.2599 41.08 64.3799 41.32L65.6999 45.52L61.1399 43C60.8999 42.88 60.7799 42.88 60.5399 43L58.0199 44.44C58.0199 40.24 58.0199 41.08 58.0199 40.72C57.8999 40 57.6599 39.4 57.1799 39.16C56.9399 39.04 55.9799 38.44 56.0999 38.56C56.6999 37.84 56.9399 36.88 56.9399 36.04C56.9399 34.36 55.6199 33.64 54.1799 34.48C53.4599 34.84 52.8599 35.68 52.3799 36.52L51.0599 35.8C50.4599 35.44 49.6199 35.56 48.8999 35.92L42.0599 39.88C42.0599 39.4 42.0599 38.32 42.0599 38.08C42.0599 36.88 43.0199 35.32 43.9799 34.72L65.5799 22.12C66.2999 21.64 66.8999 21.88 66.8999 22.84V37C66.8999 38.32 66.0599 39.76 64.9799 40.36ZM37.7399 31.24C37.8599 31.36 42.8999 34.24 42.5399 34C41.6999 34.72 41.0999 35.8 40.8599 36.88L36.0599 34.12C36.2999 33.04 36.8999 31.84 37.7399 31.24Z" fill="white"/>
<path d="M36.9 57.28C35.7 58 34.74 59.68 34.74 61C34.74 62.68 36.06 63.4 37.5 62.56C38.7 61.84 39.66 60.16 39.66 58.84C39.66 57.28 38.34 56.44 36.9 57.28ZM36.9 61.6C36.3 61.96 35.94 61.72 35.94 61C35.94 60.04 36.66 58.84 37.5 58.36C38.1 58 38.46 58.12 38.46 58.96C38.46 59.92 37.74 61.12 36.9 61.6Z" fill="white"/>
<path d="M44.0999 53.08C42.8999 53.8 41.9399 55.48 41.9399 56.8C41.9399 58.48 43.2599 59.2 44.6999 58.36C45.8999 57.64 46.8599 55.96 46.8599 54.64C46.8599 53.08 45.5399 52.36 44.0999 53.08ZM44.0999 57.4C43.4999 57.76 43.1399 57.52 43.1399 56.8C43.1399 55.84 43.8599 54.64 44.6999 54.16C45.2999 53.8 45.6599 53.92 45.6599 54.76C45.7799 55.72 45.0599 56.92 44.0999 57.4Z" fill="white"/>
<path d="M51.42 49C50.22 49.72 49.26 51.4 49.26 52.72C49.26 54.4 50.58 55.12 52.02 54.28C53.22 53.56 54.18 51.88 54.18 50.56C54.18 48.88 52.86 48.16 51.42 49ZM51.42 53.2C50.82 53.56 50.46 53.32 50.46 52.6C50.46 51.64 51.18 50.44 52.02 49.96C52.62 49.6 52.98 49.72 52.98 50.56C52.98 51.52 52.26 52.72 51.42 53.2Z" fill="white"/>
<path d="M54.2999 21.64L55.6199 20.92C55.8599 20.8 55.9799 20.44 55.8599 20.08C55.7399 19.84 55.3799 19.72 55.0199 19.84L53.6999 20.68C53.4599 20.8 53.3399 21.16 53.4599 21.52C53.5799 21.76 53.9399 21.88 54.2999 21.64Z" fill="white"/>
</svg>
