<svg width="93" height="92" viewBox="0 0 93 92" fill="none" xmlns="http://www.w3.org/2000/svg">
<rect x="0.5" width="92" height="92" rx="46" fill="black"/>
<path d="M23.82 70.72C23.82 70.96 23.94 71.08 24.06 71.2L30.06 74.68C30.3 74.8 30.42 74.8 30.66 74.68C30.78 74.68 30.78 74.56 30.9 74.44L50.6999 63.04C50.9399 62.92 51.0599 62.56 50.94 62.2C50.82 61.96 50.4599 61.84 50.0999 61.96L31.02 73L30.9 43.72C42.1799 37.24 57.06 28.6 67.9799 22.36L68.0999 51.64L58.1399 57.4C57.9 57.52 57.7799 57.88 57.8999 58.24C58.02 58.6 58.38 58.6 58.7399 58.48L69.0599 52.48C69.2999 52.36 69.4199 52.12 69.4199 52L69.18 21.28C69.18 21.04 69.0599 20.92 68.8199 20.8L62.8199 17.32C62.5799 17.2 62.4599 17.2 62.2199 17.32L24.06 39.4C23.82 39.4 23.7 39.64 23.7 39.88L23.82 70.72ZM25.02 70.36V40.96L29.82 43.72C29.82 46.6 29.94 70 29.94 73.24L25.02 70.36ZM62.58 18.52L67.38 21.28L30.3 42.64L25.5 39.88L62.58 18.52Z" fill="white"/>
<path d="M55.6199 58.84L52.9799 60.4C52.7399 60.52 52.6199 60.88 52.7399 61.24C52.8599 61.48 53.2199 61.6 53.5799 61.48L56.2199 59.92C56.4599 59.8 56.5799 59.44 56.4599 59.08C56.2199 58.84 55.8599 58.72 55.6199 58.84Z" fill="white"/>
<path d="M64.8601 37.96V30.64C64.8601 30.4 64.7401 30.28 64.5001 30.16C64.2601 30.04 64.1401 30.04 63.9001 30.16L51.1801 37.6C50.9401 37.72 50.8201 37.96 50.8201 38.08V45.4C50.8201 45.64 50.9401 45.76 51.1801 45.88C51.4201 46 51.5401 46 51.7801 45.88L64.6201 38.44C64.7401 38.44 64.8601 38.2 64.8601 37.96ZM52.1401 44.32V38.44L63.7801 31.72V37.6L52.1401 44.32Z" fill="white"/>
<path d="M43.0199 49.96V43.12C43.0199 42.88 42.8999 42.76 42.6599 42.64C42.4199 42.52 42.2999 42.52 42.0599 42.64L35.4599 46.48C35.2199 46.6 35.0999 46.84 35.0999 46.96V53.8C35.0999 54.04 35.2199 54.16 35.4599 54.28C35.6999 54.4 35.8199 54.4 36.0599 54.28L42.6599 50.44C42.8999 50.44 43.0199 50.2 43.0199 49.96ZM36.4199 52.84V47.32L41.8199 44.2V49.72L36.4199 52.84Z" fill="white"/>
<path d="M39.42 62.08L36.3 63.88C36.06 64 35.94 64.36 36.06 64.72C36.18 64.96 36.54 65.08 36.9 64.96L40.02 63.16C40.26 63.04 40.38 62.68 40.26 62.32C40.14 61.96 39.78 61.84 39.42 62.08Z" fill="white"/>
<path d="M46.9798 57.64L43.8598 59.44C43.6198 59.56 43.4998 59.92 43.6198 60.28C43.7398 60.52 44.0998 60.64 44.4598 60.52L47.5798 58.72C47.8198 58.6 47.9398 58.24 47.8198 57.88C47.6998 57.64 47.2198 57.52 46.9798 57.64Z" fill="white"/>
<path d="M52.14 56.08L55.26 54.28C55.5 54.16 55.62 53.8 55.5 53.44C55.38 53.2 55.02 53.08 54.66 53.2L51.54 55C51.3 55.12 51.18 55.48 51.3 55.84C51.42 56.2 51.78 56.32 52.14 56.08Z" fill="white"/>
<path d="M61.9798 49.12L58.8598 50.92C58.6198 51.04 58.4998 51.4 58.6198 51.76C58.7398 52 59.0998 52.12 59.4598 52L62.5798 50.2C62.8198 50.08 62.9398 49.72 62.8198 49.36C62.6998 49.12 62.3398 49 61.9798 49.12Z" fill="white"/>
</svg>
