<svg width="93" height="92" viewBox="0 0 93 92" fill="none" xmlns="http://www.w3.org/2000/svg">
<rect x="0.5" width="92" height="92" rx="46" fill="black"/>
<path d="M51.7801 24.4C51.4201 24.4 51.1801 24.64 51.0601 24.88C51.0601 25.24 51.3001 25.48 51.5401 25.6C52.2601 25.72 53.1001 25.84 53.8201 25.96H53.9401C54.1801 25.96 54.5401 25.72 54.5401 25.48C54.5401 25.12 54.4201 24.88 54.0601 24.76C53.3401 24.52 52.5001 24.4 51.7801 24.4Z" fill="white"/>
<path d="M75.2999 41.08C75.2999 36.52 72.1799 32.2 66.6599 28.96C63.7799 27.28 60.42 26.08 56.58 25.24C56.22 25.12 55.9799 25.36 55.8599 25.72C55.7399 26.08 55.9799 26.32 56.34 26.44C59.5799 27.16 62.5799 28.24 65.0999 29.56L58.9799 33.04C54.9 30.76 49.3799 29.92 44.5799 30.16C40.9799 30.4 36.78 31.36 33.66 33.04L27.54 29.56C33.3 26.44 41.1 25 49.0199 25.48C49.3799 25.48 49.6199 25.24 49.6199 24.88C49.6199 24.52 49.3799 24.28 49.0199 24.28C40.5 23.8 32.1 25.48 25.98 29.08C20.7 32.08 17.7 36.4 17.7 40.96V51.04C17.7 55.6 20.7 59.92 26.34 63.16C31.9799 66.4 39.2999 67.96 46.6199 67.96C53.9399 67.96 61.2599 66.4 66.7799 63.16C72.18 60.04 75.2999 55.72 75.2999 51.16V41.08ZM74.0999 41.08C74.0999 45.76 70.5 49.48 66.5399 51.88L60.4199 48.28C63.2999 46.36 65.4599 43.48 64.9799 40.12C64.6199 37.48 62.5799 35.2 60.2999 33.64L66.4199 30.04C71.3399 33.04 74.0999 37 74.0999 41.08ZM52.7399 56.32C44.58 57.4 35.58 56.32 28.5 52.84C28.26 52.72 28.14 52.6 27.9 52.48L33.9 49C40.9799 52.84 52.1399 52.84 59.0999 49L65.2199 52.48C61.3799 54.52 57.0599 55.72 52.7399 56.32ZM29.34 41.56C28.9799 38.68 30.9 36.4 33.3 34.84V43.48C32.46 43.96 31.62 44.56 31.02 45.16C30.06 44.08 29.46 42.88 29.34 41.56ZM44.82 31.24C49.3799 31 54.4199 31.72 58.5 34C58.5 34.12 58.5 43.24 58.5 42.64C55.0199 40.96 50.82 40 46.5 40C42.18 40 37.9799 40.84 34.5 42.64C34.5 42.52 34.5 33.64 34.5 34C37.5 32.32 41.34 31.48 44.82 31.24ZM62.0999 45.16C61.3799 44.56 60.66 43.96 59.6999 43.36C59.6999 43.24 59.6999 34.12 59.6999 34.72C63.7799 37.48 65.2199 41.56 62.0999 45.16ZM61.2599 46C54.4199 52.24 38.58 52.24 31.86 45.88C38.6999 39.64 54.7799 39.88 61.2599 46ZM26.46 30.16L32.5799 33.76C29.58 35.68 27.54 38.56 28.02 42.04C28.38 44.68 30.42 46.96 32.7 48.4L26.58 52C22.5 49.6 18.9 45.76 18.9 41.08C18.9 36.88 21.66 33.04 26.46 30.16ZM18.9 50.92V45.76C18.9 45.76 18.9 45.76 18.9 45.88C20.46 48.88 23.1 51.16 25.98 52.84C25.98 52.96 25.98 62.08 25.98 61.48C21.42 58.6 18.9 54.88 18.9 50.92ZM27.1799 62.2V53.56C33.4199 56.92 42.78 58.84 52.7399 57.52C57.18 56.92 61.8599 55.72 65.8199 53.56V62.2C55.1399 68.32 37.9799 68.32 27.1799 62.2ZM74.0999 46V51.16C74.0999 55 71.5799 58.72 67.1399 61.6C67.1399 61.48 67.1399 52.36 67.1399 52.96C69.8999 51.16 72.6599 48.88 74.0999 46Z" fill="white"/>
</svg>
