<svg width="93" height="92" viewBox="0 0 93 92" fill="none" xmlns="http://www.w3.org/2000/svg">
<rect x="0.5" width="92" height="92" rx="46" fill="black"/>
<path d="M75.0599 39.04L68.8199 35.44C68.8199 35.44 68.6999 35.44 68.6999 35.32L59.0999 33.28C58.7399 33.16 58.38 33.52 58.38 33.88V38.2L52.8599 41.44V35.2L56.58 33.04C56.7 32.92 56.8199 32.8 56.8199 32.56C56.8199 32.32 56.82 32.2 56.6999 32.08L50.0999 24.88L49.9799 24.76L43.74 21.16C43.62 21.04 43.3799 21.04 43.2599 21.16C43.1399 21.16 43.0199 21.28 42.9 21.52L36.42 36.28C36.2999 36.52 36.4199 36.88 36.6599 37L40.3799 39.16V48.76L31.9799 53.56L28.26 51.4C28.02 51.28 27.66 51.28 27.42 51.52L17.82 64.48C17.7 64.6 17.7 64.72 17.7 64.96C17.7 65.2 17.82 65.32 17.94 65.32L24.18 68.92C24.18 68.92 24.3 68.92 24.3 69.04L33.7799 71.08C33.9 71.08 34.1399 71.08 34.26 70.96C34.3799 70.84 34.5 70.72 34.5 70.48V66.16L61.0199 50.8L64.7399 52.96C64.9799 53.08 65.34 52.96 65.5799 52.84L75.0599 39.76C75.4199 39.52 75.2999 39.16 75.0599 39.04ZM64.4999 37.84V41.08L59.4599 38.08V34.84C59.9399 35.08 64.7399 37.96 64.4999 37.84ZM68.2199 36.4L71.2199 38.08C71.0999 38.08 65.0999 36.76 65.4599 36.88L62.4599 35.2L68.2199 36.4ZM58.8599 39.16L63.8999 42.16L52.7399 48.64V42.76L58.8599 39.16ZM43.5 22.36L48.7799 25.36C48.1799 26.68 43.4999 37.24 42.7799 39.04L37.5 36.04L43.5 22.36ZM43.3799 40.48L46.5 38.68V51.52L41.4599 48.52V39.64L42.7799 40.48C42.7799 40.48 43.1399 40.6 43.3799 40.48ZM32.9399 54.04L40.74 49.48L45.7799 52.48L34.62 58.96V55.36C34.62 55.12 34.5 55 34.3799 54.88L32.9399 54.04ZM28.02 52.6C28.14 52.72 33.66 55.84 33.3 55.6L24.42 67.6L19.14 64.6L28.02 52.6ZM62.4599 50.2L64.6199 49V51.52L62.4599 50.2ZM65.8199 50.68V47.92C65.8199 47.68 65.6999 47.56 65.4599 47.44C65.2199 47.32 65.0999 47.32 64.8599 47.44C27.6599 68.92 54.1799 53.56 33.7799 65.44C33.5399 65.56 33.42 65.8 33.42 65.92V69.76L25.5 68.08L33.42 57.28V60.04C33.42 60.4 33.66 60.64 34.02 60.64C34.1399 60.64 34.26 60.64 34.26 60.52L47.2199 52.96C47.4599 52.84 47.5799 52.6 47.5799 52.48C47.5799 52.36 47.5799 37.72 47.5799 37.48C47.5799 37.24 47.4599 37.12 47.2199 37C46.9799 36.88 46.8599 36.88 46.6199 37L44.2199 38.44L49.6199 26.2L55.1399 32.08L51.7799 34C51.5399 34.12 51.4199 34.36 51.4199 34.48C51.4199 34.6 51.4199 42.28 51.4199 42.16V49.36C51.4199 49.84 51.8999 50.08 52.3799 49.84L65.34 42.28C65.5799 42.16 65.6999 41.92 65.6999 41.8C65.6999 41.68 65.6999 37.84 65.6999 37.96L73.6199 39.64L65.8199 50.68Z" fill="white"/>
</svg>
