<svg width="93" height="92" viewBox="0 0 93 92" fill="none" xmlns="http://www.w3.org/2000/svg">
<rect x="0.5" width="92" height="92" rx="46" fill="black"/>
<path d="M50.5799 21.76L52.1399 20.92C52.4999 20.8 52.6199 20.32 52.3799 20.08C52.2599 19.84 51.8999 19.72 51.5399 19.84L49.9799 20.8C49.7399 20.92 49.6199 21.28 49.7399 21.64C49.9799 21.88 50.3399 22 50.5799 21.76Z" fill="white"/>
<path d="M30.42 70.96C30.42 71.2 30.54 71.32 30.66 71.44C30.66 71.44 30.06 71.08 36.3 74.68C36.54 74.8 36.66 74.8 36.9 74.68L55.1401 64.12C55.26 64.12 55.2601 64 55.3801 63.88L62.5801 51.4C62.5801 51.28 62.7001 51.16 62.7001 51.04L62.5801 21.04C62.5801 20.92 62.34 20.56 62.34 20.56C61.1401 19.84 56.4601 17.08 56.7001 17.32C56.4601 17.2 56.2201 17.2 56.1 17.32L53.46 18.88C53.22 19 53.1 19.36 53.2201 19.72C53.34 19.96 53.7 20.08 54.06 19.96L56.46 18.64L60.9 21.28L36.5401 35.08C36.3 34.96 31.86 32.32 32.1 32.44L48.66 22.84C48.9 22.84 49.0201 22.36 48.9 22.12C48.7801 21.88 48.42 21.76 48.06 21.88L30.66 31.96C30.42 32.08 30.42 32.32 30.3 32.44L30.42 70.96ZM31.5 33.52C31.62 33.64 36.3 36.28 35.9401 36.16L36.06 73.12L31.62 70.48L31.5 33.52ZM61.3801 22.12L61.5 50.92L55.1401 54.76C55.0201 54.88 54.9 55 54.9 55.24L54.42 63.4L37.38 73.24L37.26 36.16C42.42 33.16 52.2601 27.4 61.3801 22.12ZM55.62 61.12L55.9801 55.6L60.42 52.96L55.62 61.12Z" fill="white"/>
<path d="M46.38 35.8L58.26 28.96C58.5 28.84 58.62 28.48 58.5 28.12C58.38 27.88 58.02 27.76 57.66 27.88L45.78 34.72C45.54 34.84 45.42 35.2 45.54 35.56C45.66 35.92 46.02 36.04 46.38 35.8Z" fill="white"/>
<path d="M46.38 41.56L58.26 34.72C58.5 34.6 58.62 34.24 58.5 33.88C58.38 33.64 58.02 33.52 57.66 33.64L45.78 40.48C45.54 40.6 45.42 40.96 45.54 41.32C45.66 41.56 46.02 41.68 46.38 41.56Z" fill="white"/>
<path d="M57.6601 39.28L40.3801 49.24C40.1401 49.36 40.0201 49.72 40.1401 50.08C40.2601 50.32 40.6201 50.44 40.9801 50.32L58.2601 40.36C58.5001 40.24 58.6201 39.88 58.5001 39.52C58.3801 39.16 57.9001 39.16 57.6601 39.28Z" fill="white"/>
<path d="M57.6601 44.92L40.3801 54.88C40.1401 55 40.0201 55.36 40.1401 55.72C40.2601 55.96 40.6201 56.08 40.9801 55.96L58.2601 46C58.5001 45.88 58.6201 45.52 58.5001 45.16C58.3801 44.92 57.9001 44.8 57.6601 44.92Z" fill="white"/>
<path d="M57.6601 50.68L40.3801 60.64C40.1401 60.76 40.0201 61.12 40.1401 61.48C40.2601 61.72 40.6201 61.84 40.9801 61.72L58.2601 51.76C58.5001 51.64 58.6201 51.28 58.5001 50.92C58.3801 50.56 57.9001 50.44 57.6601 50.68Z" fill="white"/>
<path d="M50.9401 60.28L40.3801 66.4C40.1401 66.52 40.0201 66.88 40.1401 67.24C40.2601 67.48 40.6201 67.6 40.9801 67.48L51.5401 61.36C51.7801 61.24 51.9001 60.88 51.7801 60.52C51.5401 60.16 51.1801 60.04 50.9401 60.28Z" fill="white"/>
<path d="M40.5 41.56C40.98 41.8 41.58 41.8 42.06 41.44C42.3 41.32 42.42 41.32 42.42 41.32C42.42 41.32 42.54 41.44 42.54 41.68C42.54 42.4 42.06 43.24 41.46 43.6C41.22 43.72 41.1 43.72 41.1 43.72C41.1 43.72 40.98 43.6 40.98 43.36C40.98 43 40.74 42.76 40.38 42.76C40.02 42.76 39.78 43 39.78 43.36C39.78 43.96 40.02 44.56 40.5 44.8C40.74 44.92 40.98 44.92 41.22 44.92V45.64C41.22 46 41.46 46.24 41.82 46.24C42.18 46.24 42.42 46 42.42 45.64V44.44C43.26 43.84 43.86 42.64 43.86 41.68C43.86 40.36 42.78 39.64 41.58 40.36C41.34 40.48 41.22 40.48 41.22 40.48C41.22 40.48 41.1 40.36 41.1 40.12C41.1 39.4 41.58 38.56 42.18 38.2C42.42 38.08 42.54 38.08 42.54 38.08C42.54 38.08 42.66 38.2 42.66 38.44C42.66 38.8 42.9 39.04 43.26 39.04C43.62 39.04 43.86 38.8 43.86 38.44C43.86 37.48 43.38 36.88 42.42 36.88V36.16C42.42 35.8 42.18 35.56 41.82 35.56C41.46 35.56 41.22 35.8 41.22 36.16V37.36C40.38 37.96 39.78 39.16 39.78 40.12C39.78 40.84 40.02 41.32 40.5 41.56Z" fill="white"/>
</svg>
