<svg width="93" height="92" viewBox="0 0 93 92" fill="none" xmlns="http://www.w3.org/2000/svg">
<rect x="0.5" width="92" height="92" rx="46" fill="black"/>
<path d="M32.7001 72.76C32.3401 72.64 32.1001 72.76 31.9801 73.12C31.8601 73.48 31.9801 73.72 32.3401 73.84C32.8201 74.08 33.3001 74.2 33.9001 74.32C34.2601 74.44 34.5001 74.2 34.6201 73.84C34.7401 73.48 34.5001 73.24 34.1401 73.12C33.5401 73.12 33.0601 73 32.7001 72.76Z" fill="white"/>
<path d="M45.5401 55.12L51.3001 60.88C55.5001 65.08 61.3801 68.2 66.5401 65.2C71.7001 62.2 71.7001 55.96 67.2601 51.4L61.7401 45.76V36.28C61.7401 32.08 59.3401 31 59.2201 30.88L36.4201 17.8C34.7401 16.84 32.7001 17.08 30.4201 18.28C26.1001 20.8 22.6201 26.92 22.6201 31.84V41.56C22.6201 41.8 22.7401 41.92 22.8601 42.04L25.3801 43.48C25.7401 43.72 26.1001 43.6 26.3401 43.24C26.4601 43 26.4601 42.64 26.1001 42.4L23.8201 41.2V32.92C25.9801 34.24 15.9001 28.36 45.1801 45.4V53.68C41.4601 51.52 35.7001 48.16 32.1001 46.12C31.8601 46 31.5001 46 31.2601 46.36C31.1401 46.6 31.1401 46.96 31.5001 47.2L34.2601 48.88V60.52C32.9401 60.76 31.6201 61.24 30.6601 61.84C28.7401 62.92 27.7801 64.36 27.7801 66.04V69.4C27.7801 70.96 28.8601 72.52 30.6601 73.6C30.9001 73.72 31.2601 73.72 31.5001 73.36C31.6201 73.12 31.6201 72.76 31.2601 72.52C29.8201 71.68 28.9801 70.6 28.9801 69.4V68.92C29.8201 69.88 31.1401 70.6 32.3401 70.96C35.4601 72.04 39.1801 72.04 42.3001 70.96C43.5001 70.48 44.8201 69.88 45.6601 68.92V69.4C45.6601 70.6 44.8201 71.68 43.2601 72.52C41.2201 73.72 38.3401 74.2 35.5801 73.84C35.2201 73.84 34.9801 74.08 34.8601 74.32C34.8601 74.68 35.1001 74.92 35.3401 75.04C38.1001 75.4 41.3401 74.92 43.7401 73.6C45.6601 72.52 46.7401 70.96 46.7401 69.4C46.7401 69.28 46.7401 66.28 46.7401 66.04C46.7401 64.48 45.6601 62.92 43.8601 61.84C42.7801 61.24 41.5801 60.76 40.2601 60.52V52.48L45.5401 55.12ZM65.8201 64.12C60.3001 67.36 54.3001 62.32 52.0201 60.04L46.8601 54.88L60.7801 46.84L66.1801 52.24C70.1401 56.08 70.2601 61.48 65.8201 64.12ZM60.3001 36.28V45.64C58.9801 46.36 47.9401 52.72 46.5001 53.68V45.04C46.3801 34.12 60.1801 26.08 60.3001 36.28ZM31.0201 19.36C32.8201 18.28 34.5001 18.16 35.8201 18.88L55.7401 30.4C54.3001 30.64 52.9801 31.36 51.7801 32.32C48.3001 34.96 45.6601 39.76 45.3001 43.96C15.9001 26.8 25.9801 32.8 23.8201 31.48C23.9401 26.92 27.1801 21.64 31.0201 19.36ZM40.3801 61.48C41.4601 61.72 42.5401 62.08 43.3801 62.56C44.8201 63.4 45.6601 64.48 45.6601 65.68C45.5401 65.8 45.9001 67.96 41.9401 69.52C39.1801 70.6 35.5801 70.6 32.8201 69.52C31.0201 68.92 28.9801 67.6 28.9801 65.68C28.9801 64.48 29.8201 63.4 31.2601 62.56C32.1001 62.08 33.1801 61.72 34.2601 61.48V66.04C34.2601 68.68 40.2601 68.68 40.2601 66.04L40.3801 61.48ZM39.1801 51.4V65.92C39.1801 66.88 35.5801 67 35.5801 65.92V60.64V49.24C35.7001 49.48 39.4201 51.52 39.1801 51.4Z" fill="white"/>
<path d="M30.5401 45.76C30.6601 45.52 30.6601 45.16 30.3001 44.92L27.9001 43.48C27.6601 43.36 27.3001 43.36 27.0601 43.72C26.9401 43.96 26.9401 44.32 27.3001 44.56L29.7001 46C30.0601 46.12 30.4201 46 30.5401 45.76Z" fill="white"/>
<path d="M53.4602 34.12C50.2202 36.04 47.4602 40.72 47.4602 44.44V50.8C47.4602 51.16 47.7002 51.4 48.0602 51.4C48.1802 51.4 48.3002 51.4 48.4202 51.28C48.5402 51.16 59.1002 45.16 58.8602 45.16C58.9802 45.04 59.1002 44.92 59.1002 44.68C59.1002 44.56 59.1002 37.12 59.1002 37.24C59.2202 33.88 56.8202 32.32 53.4602 34.12ZM48.6602 44.44C48.6602 43.24 49.0202 41.92 49.5002 40.72L57.3002 44.8L48.6602 49.84V44.44ZM58.0202 43.84L50.1002 39.64C51.0602 37.72 52.5002 36.16 54.1802 35.2C56.7002 33.76 58.1402 34.72 58.1402 37.48L58.0202 43.84Z" fill="white"/>
</svg>
