<svg width="93" height="92" viewBox="0 0 93 92" fill="none" xmlns="http://www.w3.org/2000/svg">
<rect x="0.5" width="92" height="92" rx="46" fill="black"/>
<path d="M30.5399 45.52C30.8999 45.52 31.1399 45.28 31.1399 44.92V43.12C31.1399 42.76 30.8999 42.52 30.5399 42.52C30.1799 42.52 29.9399 42.76 29.9399 43.12V44.92C29.9399 45.28 30.1799 45.52 30.5399 45.52Z" fill="white"/>
<path d="M31.1399 71.32L36.7799 74.56C37.6199 75.04 38.5799 74.8 39.4199 74.32L59.8199 62.56C61.6199 61.48 63.0599 59.08 63.0599 57.04L62.9399 23.08C62.9399 22 62.5799 21.16 61.8599 20.68C61.7399 20.56 58.7399 18.88 56.2199 17.44C55.4999 16.96 54.5399 17.08 53.5799 17.68C48.1799 20.8 32.0999 30.04 33.0599 29.56C31.2599 30.64 29.9399 33.04 29.9399 35.08V41.2C29.9399 41.56 30.1799 41.8 30.5399 41.8C30.8999 41.8 31.1399 41.56 31.1399 41.2V36.28L35.5799 38.8C35.5799 42.28 35.5799 26.44 35.6999 72.28C35.6999 72.4 35.6999 72.52 35.6999 72.64L31.8599 70.36C31.4999 70.12 31.2599 69.64 31.2599 69.04V47.08C31.2599 46.72 31.0199 46.48 30.6599 46.48C30.2999 46.48 30.0599 46.72 30.0599 47.08V69.04C30.0599 70 30.4199 70.84 31.1399 71.32ZM59.2199 61.48L38.8199 73.24C37.4999 73.96 36.7799 73.36 36.7799 72.04C36.7799 71.92 36.6599 35.92 36.6599 38.2C36.6599 36.52 37.8599 34.48 39.2999 33.76C59.0999 22.36 57.8999 23.08 59.8199 22C61.0199 21.28 61.8599 21.76 61.8599 23.2L61.9799 57.04C61.8599 58.6 60.6599 60.64 59.2199 61.48ZM54.1799 18.76C54.7799 18.4 55.2599 18.4 55.6199 18.52L59.4599 20.8C59.3399 20.8 59.2199 20.92 59.0999 20.92C58.6199 21.16 39.1799 32.44 38.9399 32.56L34.4999 30.04L54.1799 18.76ZM33.4199 30.76L37.8599 33.4C36.6599 34.36 35.8199 35.92 35.5799 37.36L31.1399 34.84C31.2599 33.28 32.2199 31.6 33.4199 30.76Z" fill="white"/>
<path d="M59.58 24.64C59.34 24.52 59.22 24.52 58.98 24.64L38.82 36.28C38.58 36.4 38.46 36.64 38.46 36.76L38.58 66.04C38.58 66.28 38.7 66.4 38.94 66.52C39.18 66.64 39.3 66.64 39.54 66.52L59.7 54.88C59.94 54.76 60.06 54.52 60.06 54.4L59.94 25.12C59.94 24.88 59.82 24.64 59.58 24.64ZM39.9 64.96L39.78 37.12L58.74 26.2L58.86 54.04L39.9 64.96Z" fill="white"/>
<path d="M49.0198 61.84C48.0598 62.44 47.3398 63.64 47.3398 64.72C47.3398 66.04 48.4198 66.76 49.6198 66.04C50.5798 65.44 51.2998 64.24 51.2998 63.16C51.2998 61.84 50.2198 61.12 49.0198 61.84ZM49.0198 64.96C48.6598 65.2 48.5398 65.08 48.5398 64.72C48.5398 64 49.0198 63.16 49.6198 62.8C49.9798 62.56 50.0998 62.68 50.0998 63.04C50.0998 63.76 49.6198 64.72 49.0198 64.96Z" fill="white"/>
<path d="M44.34 48.76C44.58 48.88 44.7 48.88 44.94 48.76L54.18 43.48C54.42 43.36 54.54 43.12 54.54 43V32.44C54.54 32.2 54.42 32.08 54.18 31.96C53.94 31.84 53.82 31.84 53.58 31.96L44.34 37.24C44.1 37.36 43.98 37.6 43.98 37.72V48.28C44.1 48.52 44.22 48.64 44.34 48.76ZM50.1 37.36L48.54 38.32V36.28L50.1 35.2V37.36ZM47.34 36.88V39.28C47.34 39.76 47.82 40 48.3 39.76L51.06 38.2C51.3 38.08 51.42 37.84 51.42 37.72V34.6L53.46 33.4V42.64L45.3 47.2V37.96L47.34 36.88Z" fill="white"/>
<path d="M47.5799 50.92C47.3399 50.8 47.2199 50.8 46.9799 50.92L42.5399 53.56C42.2999 53.68 42.1799 53.92 42.1799 54.04V59.2C42.1799 59.44 42.2999 59.56 42.5399 59.68C42.7799 59.8 42.8999 59.8 43.1399 59.68L47.5799 57.04C47.8199 56.92 47.9399 56.68 47.9399 56.56V51.4C47.8199 51.28 47.8199 51.04 47.5799 50.92ZM43.3799 58.12V54.4L46.6199 52.48V56.2L43.3799 58.12Z" fill="white"/>
<path d="M56.1 46C55.86 45.88 55.74 45.88 55.5 46L51.06 48.64C50.82 48.76 50.7 49 50.7 49.12V54.28C50.7 54.64 50.94 54.88 51.3 54.88C51.42 54.88 51.54 54.88 51.66 54.76L56.1 52.12C56.34 52 56.46 51.76 56.46 51.64V46.48C56.34 46.36 56.22 46.12 56.1 46ZM51.9 53.2V49.48L55.14 47.56V51.28L51.9 53.2Z" fill="white"/>
</svg>
