<svg width="93" height="92" viewBox="0 0 93 92" fill="none" xmlns="http://www.w3.org/2000/svg">
<rect x="0.5" width="92" height="92" rx="46" fill="black"/>
<path d="M18.3 52C18.66 52 18.9 51.76 18.9 51.4V49.84C18.9 49.48 18.66 49.24 18.3 49.24C18.06 49.24 17.7 49.6 17.7 49.84V51.4C17.7 51.76 18.06 52 18.3 52Z" fill="white"/>
<path d="M72.06 47.08C71.82 46.96 67.98 44.8 67.74 44.68C66.9 44.2 66.06 43.96 65.1 43.96V31.6C65.1 31.36 64.98 31.24 64.86 31.12L43.14 18.52C42.9 18.4 42.78 18.4 42.54 18.52C31.5 24.88 37.5 21.4 17.94 32.68C17.82 32.8 17.7 33.04 17.7 33.28C17.7 33.4 17.7 47.8 17.7 48.04C17.7 48.4 17.94 48.64 18.3 48.64C18.66 48.64 18.9 48.4 18.9 48.04V34.36L39.18 46.12L39.3 70.72L19.02 58.96V53.2C19.02 52.84 18.78 52.6 18.42 52.6C18.06 52.6 17.82 52.84 17.82 53.2V59.2C17.82 59.44 17.94 59.56 18.06 59.68L39.54 72.16C39.78 72.28 39.9 72.28 40.14 72.16L49.86 66.52C50.34 68.2 51.3 69.52 52.62 70.24L56.94 72.64C59.34 74.08 62.34 73.36 64.74 71.92C70.5 68.56 75.18 60.52 75.18 53.92C75.3 50.8 74.1 48.28 72.06 47.08ZM34.14 24.88L54.42 36.64L48.66 40L28.38 28.12L34.14 24.88ZM49.26 40.96L55.02 37.6V44.2L52.38 43.12C52.14 43 51.78 43.12 51.66 43.36L49.26 47.08V40.96ZM42.9 19.72L63.18 31.6L55.6199 35.92L35.34 24.16L42.9 19.72ZM27.18 28.84L47.46 40.6L39.78 45.04L19.5 33.28L27.18 28.84ZM49.62 65.44L40.5 70.72L40.38 46.12L48.06 41.68V49.24C48.06 49.48 48.18 49.72 48.54 49.84C48.78 49.96 49.02 49.84 49.26 49.6L52.5 44.56L55.5 45.76C55.86 45.88 56.34 45.64 56.34 45.16V36.88L63.9 32.56V43.96C62.7 44.08 61.38 44.56 59.94 45.4C54.18 48.76 49.5 56.92 49.5 63.4C49.5 64.24 49.62 65.32 49.62 65.44ZM53.34 69.28C51.3 68.08 50.7 65.56 50.7 63.28C50.7 57.16 55.02 49.48 60.54 46.36C62.58 45.16 65.1 44.44 67.14 45.64L68.34 46.24C67.02 46.36 65.46 46.96 64.38 47.68C58.62 51.04 53.94 59.08 53.94 65.68C53.94 67 54.18 68.32 54.66 69.52C54.66 69.64 54.78 69.88 54.78 70L53.34 69.28ZM64.26 71.08C61.74 72.52 59.46 72.76 57.66 71.8C55.62 70.6 55.02 68.08 55.02 65.8C55.02 59.44 59.46 51.88 64.86 48.88C69.9 46 74.1 48.04 74.1 54.16C74.1 60.28 69.78 67.96 64.26 71.08Z" fill="white"/>
<path d="M65.4601 50.44C60.7801 53.2 56.8201 60.04 56.8201 65.44C56.8201 70 59.5801 71.8 63.6601 69.4C68.3401 66.64 72.3001 59.8 72.3001 54.4C72.3001 49.84 69.5401 48.04 65.4601 50.44ZM63.0601 68.32C59.9401 70.12 58.0201 69.28 58.0201 65.44C58.0201 60.4 61.7401 54.04 66.0601 51.52C69.1801 49.72 71.1001 50.56 71.1001 54.4C71.1001 59.44 67.5001 65.8 63.0601 68.32Z" fill="white"/>
<path d="M65.8199 59.32C65.3399 59.08 64.86 59.08 64.26 59.44C64.02 59.56 63.9 59.56 63.9 59.56C63.9 59.56 63.78 59.44 63.78 59.2C63.78 58.6 64.26 57.76 64.86 57.4C65.1 57.28 65.2199 57.28 65.2199 57.28C65.2199 57.28 65.34 57.4 65.34 57.64C65.34 58 65.58 58.24 65.94 58.24C66.3 58.24 66.54 58 66.54 57.64C66.54 57.04 66.2999 56.56 65.8199 56.2C65.5799 56.08 65.4599 56.08 65.2199 56.08V55.48C65.2199 55.12 64.9799 54.88 64.6199 54.88C64.2599 54.88 64.0199 55.12 64.0199 55.48V56.68C63.2999 57.28 62.7 58.36 62.7 59.32C62.7 59.92 62.9399 60.4 63.4199 60.64C63.8999 60.88 64.38 60.88 64.98 60.52C65.22 60.4 65.34 60.4 65.34 60.4C65.34 60.4 65.46 60.52 65.46 60.76C65.46 61.36 64.98 62.2 64.38 62.56C64.14 62.68 64.0199 62.68 64.0199 62.68C64.0199 62.68 63.9 62.56 63.9 62.32C63.9 61.96 63.66 61.72 63.3 61.72C62.94 61.72 62.7 61.96 62.7 62.32C62.7 62.92 62.9399 63.4 63.4199 63.64C63.6599 63.76 63.7799 63.76 64.0199 63.76V64.36C64.0199 64.72 64.2599 64.96 64.6199 64.96C64.9799 64.96 65.2199 64.72 65.2199 64.36V63.16C65.9399 62.56 66.54 61.48 66.54 60.52C66.54 60.04 66.2999 59.56 65.8199 59.32Z" fill="white"/>
</svg>
