<svg width="93" height="92" viewBox="0 0 93 92" fill="none" xmlns="http://www.w3.org/2000/svg">
<rect x="0.5" width="92" height="92" rx="46" fill="black"/>
<path d="M61.9001 54.7L62.9001 54.1C63.1001 54 63.2001 53.7 63.1001 53.4C63.0001 53.2 62.7001 53.1 62.4001 53.2L61.4001 53.8C61.2001 53.9 61.1001 54.2 61.2001 54.5C61.3001 54.7 61.5001 54.7 61.6001 54.7C61.7001 54.8 61.8001 54.8 61.9001 54.7Z" fill="white"/>
<path d="M23.1 50.3C22.9 50.4 22.8 50.6 22.8 50.7V54C22.8 54.2 22.9 54.3 23.1 54.4L42.6 65.6C42.8001 65.7 42.9 65.7 43.1 65.6C43.2001 65.5 60.3001 55.6 60.4001 55.5C60.6001 55.4 60.7 55.1 60.6 54.8C60.5 54.6 60.2001 54.5 59.9001 54.6L43.3 64.2V62.1L69.1 47.1V49.2L63.7001 52.3C63.5 52.4 63.4001 52.7 63.5 53C63.6 53.2 63.9001 53.3 64.2001 53.2L69.8 49.9C70 49.8 70 49.6 70 49.5V46.2C70 46 69.9001 45.9 69.7001 45.8L61.1 40.8C61.1 27.3 61.1 31.9 61.1 30.9C61.1 29.6 60.2001 28.4 58.7001 27.5C55.7001 25.8 50.8 25.8 47.8 27.5C46.5 28.5 45.7001 29.7 45.7001 31C45.7001 31.2 45.7001 33.7 45.7001 34.7C42.7001 33.2 38.2 33.3 35.4 35C33.9 35.9 33 37.1 33 38.4C33 38.6 33 45 33 44.6L23.1 50.3ZM35.4 41.9C36 42.2 36.7 42.5 37.4 42.7C40.3 43.6 43.9 43.3 46.3 41.9C46.7 41.6 47.2001 41.3 47.6 40.9C47.6 40.9 47.7001 40.9 47.7001 40.8C47.7001 41 47.7001 43.5 47.7001 43.3C47.7001 46.4 40.5 48.5 35.9 45.9C34.7 45.2 34 44.3 34 43.3V40.8C34.3 41.2 34.9 41.6 35.4 41.9ZM46.6 35.3V33.4C46.9 33.7 47.4 34.2 48 34.5C50.9 36.2 55.8001 36.3 58.9001 34.5C59.4001 34.2 60 33.7 60.3 33.4V36C60.3 36.9 59.6001 37.8 58.4001 38.5C55.7001 40.1 51.4 40.1 48.6 38.5C48.6 38.3 48.7001 36.7 46.6 35.3ZM53 48.5C51.5 48.4 50 48.1 48.6 47.4C48.6 46 48.6 43.5 48.6 43.6C51.8001 45.1 56.2001 44.9 58.9001 43.4C59.4001 43.1 59.9 42.7 60.3 42.3V44.8C60.3 45.7 59.6001 46.7 58.4001 47.4C57.2001 48.1 55.2001 48.6 53 48.5ZM47.6 47.3C47.6 50.6 40.1 52.3 35.9 49.8C34.7 49.1 34 48.1 34 47.2V45.5C34.4 45.9 34.8 46.3 35.4 46.6C36.9 47.5 38.9 47.9 40.8 47.9C43.2 47.9 46 47.2 47.6 45.5C47.6 45.7 47.6 45.4 47.6 47.3ZM35.8 54.8C34.8 54.2 33.8 53.3 33.8 52.2V49.7C34.2 50.1 34.7 50.5 35.3 50.8C36.8 51.7 38.8001 52.1 40.7001 52.1C43.1 52.1 45.9 51.4 47.5 49.7V52.2C47.6 55.3 40.4 57.3 35.8 54.8ZM60.3 39.9C60.3 40.8 59.6001 41.8 58.4001 42.5C55.7001 44.1 51.4 44.1 48.6 42.5V39.6C51.8001 41.1 56.2001 40.9 58.9001 39.3C59.5 39 59.9 38.6 60.3 38.2V39.9ZM23.9 51.6L42.4 62.3V64.4L23.9 53.7V51.6ZM68.7001 46.3L42.9 61.3L24.4 50.7L32.9 45.7V52.1C32.9 53.6 34 54.8 35.3 55.6C40.1 58.4 48.5 56.5 48.6 52.2V48.5C49.7001 49 51.3 49.4 53 49.5C55.4001 49.6 57.6001 49 58.9001 48.2C60.2001 47.4 61.3 46.3 61.3 44.8V44.7V42L68.7001 46.3ZM48.5 28.5C51.2001 26.9 55.7001 26.9 58.4001 28.5C60.9001 30 60.9001 32.2 58.4001 33.6C55.7001 35.2 51.2001 35.1 48.5 33.6C46 32.1 46 29.9 48.5 28.5ZM35.8 35.9C38.5 34.3 43 34.3 45.7001 35.9C48.2001 37.4 48.2001 39.6 45.7001 41C43 42.6 38.6 42.6 35.8 41C33.3 39.6 33.3 37.3 35.8 35.9Z" fill="white"/>
<path d="M49.0001 33.1C51.4001 34.5 55.5001 34.5 57.9001 33.1C60.0001 31.9 60.0001 30.2 57.9001 29C56.7001 28.3 55.1001 27.9 53.4001 27.9C51.7001 27.9 50.1001 28.3 48.9001 29C46.9001 30.2 46.9001 31.9 49.0001 33.1ZM49.5001 29.8C51.6001 28.6 55.4001 28.6 57.5001 29.8C58.9001 30.6 59.0001 31.3 57.5001 32.2C55.4001 33.4 51.7001 33.4 49.6001 32.2C48.1001 31.4 48.0001 30.7 49.5001 29.8Z" fill="white"/>
<path d="M51.5001 31.8C51.7001 31.7 51.7001 31.3 51.5001 31.1C51.3001 30.9 50.9001 30.9 50.8001 31.1C50.6001 31.2 50.6001 31.6 50.8001 31.8C51.0001 32 51.3001 32 51.5001 31.8Z" fill="white"/>
<path d="M36.3001 40.5C38.7001 41.9 42.8001 41.9 45.2001 40.5C47.3001 39.3 47.3001 37.6 45.2001 36.4C42.8001 35 38.7001 35 36.2001 36.4C34.2001 37.6 34.2001 39.3 36.3001 40.5ZM36.8001 37.2C38.9001 36 42.7001 36 44.8001 37.2C46.1001 38 46.4001 38.7 44.8001 39.6C42.7001 40.8 39.0001 40.8 36.9001 39.6C35.2001 38.7 35.5001 38 36.8001 37.2Z" fill="white"/>
<path d="M38.8 39.2C39 39.1 39 38.7 38.8 38.5C38.6 38.3 38.3 38.3 38.1 38.5C37.9 38.7 37.9 39 38.1 39.2C38.3 39.4 38.6 39.4 38.8 39.2Z" fill="white"/>
</svg>
