<svg width="93" height="92" viewBox="0 0 93 92" fill="none" xmlns="http://www.w3.org/2000/svg">
<rect x="0.5" width="92" height="92" rx="46" fill="black"/>
<path d="M66.1001 43.2C66.3001 43.1 66.4001 42.9 66.4001 42.7V33.4C66.4001 33.3 66.3001 33.1 66.1001 33C65.5001 32.6 62.9001 31.1 63.0001 31.2C63.1001 31 62.5001 31.9 64.2001 29.3C64.3001 29.1 64.3001 28.8 64.0001 28.6C64.2001 28.7 56.2001 24.1 52.6001 22.1C52.3001 22 52.0001 22.1 51.9001 22.3C51.8001 22.4 50.8001 24.5 50.8001 24.4L47.7001 22.6C47.5001 22.5 47.4001 22.5 47.2001 22.6C47.1001 22.7 39.0001 27.3 39.1001 27.3C39.0001 27.4 38.9001 27.5 38.9001 27.7C38.9001 27.8 39.2001 31.2 39.2001 31.1C38.4001 31.9 37.6001 32.7 36.8001 33.6L34.8001 32.4C34.7001 32.3 34.6001 32.3 34.4001 32.3C34.3001 32.3 34.2001 32.4 34.1001 32.5L28.4001 42.4C28.5001 42.6 28.6001 42.9 28.8001 43L30.8001 44.2C30.4001 45.3 30.1001 46.4 29.9001 47.4L26.9001 48.8C26.7001 48.9 26.6001 49 26.6001 49.2V58.5C26.6001 58.7 26.7001 58.8 26.8001 58.9L29.9001 60.7L28.7001 62.6C28.6001 62.7 28.6001 62.9 28.6001 63C28.6001 63.1 28.7001 63.2 28.8001 63.3C30.0001 64 24.6001 60.9 40.1001 69.8C40.3001 69.9 40.7001 69.8 40.8001 69.6L41.9001 67.5L45.0001 69.3C45.1001 69.4 45.3001 69.4 45.5001 69.3C45.6001 69.2 53.7001 64.6 53.6001 64.6C53.8001 64.5 53.9001 64.3 53.8001 64.1L53.6001 61C54.5001 60.2 55.4001 59.2 56.2001 58.3L57.9001 59.7C58.0001 59.8 58.2001 59.8 58.3001 59.8C58.4001 59.8 58.6001 59.7 58.6001 59.6L61.3001 54.9C61.4001 54.7 61.4001 54.4 61.1001 54.2C60.9001 54.1 60.6001 54.1 60.4001 54.4L58.0001 58.5L56.4001 57.2C56.2001 57 55.9001 57.1 55.7001 57.3C54.8001 58.4 53.8001 59.5 52.7001 60.5C52.6001 60.6 52.5001 60.8 52.5001 60.9L52.8001 64.1L45.8001 68.1L46.0001 65.1C46.0001 64.8 45.7001 64.5 45.4001 64.6C44.5001 64.8 43.5001 65 42.5001 64.9C42.3001 64.9 42.1001 65 42.0001 65.2C41.9001 65.4 40.0001 69.1 40.2001 68.8L35.5001 66.1L37.7001 62.7C37.8001 62.5 37.8001 62.2 37.7001 62.1C37.2001 61.4 36.8001 60.5 36.5001 59.5C36.4001 59.2 36.0001 59.1 35.7001 59.2C35.6001 59.3 33.1001 61 33.2001 60.9V52.9C33.3001 52.8 36.3001 51.4 36.2001 51.5C36.4001 51.4 36.5001 51.3 36.5001 51.1C36.8001 49.6 37.5001 47.6 37.7001 47C37.8001 46.7 37.7001 46.4 37.4001 46.4C37.3001 46.4 35.3001 45.6 35.4001 45.7C42.4001 33.6 40.0001 37.8 40.5001 36.9L42.1001 38.2C42.5001 38.5 42.8001 38 42.9001 38C43.8001 36.9 44.7001 35.9 45.7001 35C45.8001 34.9 45.9001 34.7 45.9001 34.6L45.6001 31.4C45.7001 31.3 53.0001 27.1 52.6001 27.4C52.5001 28.8 52.4001 30.2 52.4001 30.4C52.4001 30.7 52.7001 30.9 53.0001 30.9C54.0001 30.7 54.8001 30.5 55.9001 30.6C56.1001 30.6 56.3001 30.5 56.4001 30.3C56.5001 30 58.5001 26.2 58.3001 26.5L63.1001 29.2C63.0001 29.4 60.8001 32.7 60.9001 32.6C60.8001 32.8 60.8001 33 60.9001 33.2C61.4001 33.9 61.8001 34.8 62.1001 35.8C62.1001 36 62.3001 36.1 62.4001 36.1C62.5001 36.2 62.7001 36.1 62.8001 36L65.3001 34.3V42.3L62.3001 43.7C62.2001 43.8 62.1001 43.9 62.0001 44C61.7001 45.4 61.3001 46.8 60.8001 48.1C60.7001 48.4 60.8001 48.7 61.1001 48.7L63.1001 49.4L62.3001 50.8C62.2001 51 62.2001 51.3 62.5001 51.5C62.7001 51.6 63.0001 51.6 63.2001 51.3L64.3001 49.4C64.5001 49.1 64.3001 48.8 64.0001 48.7L62.0001 47.9C62.4001 46.7 62.8001 45.5 63.0001 44.3L66.1001 43.2ZM42.9001 65.9C43.6001 65.9 44.3001 65.9 45.1001 65.7L44.9001 68.1L42.5001 66.7L42.9001 65.9ZM52.7001 23.2C52.8001 23.3 57.7001 26.1 57.4001 26C57.3001 26.1 55.6001 29.6 55.7001 29.4C55.1001 29.4 53.8001 29.5 53.5001 29.6C53.6001 27.9 53.7001 26.2 53.7001 26.3C53.7001 26.2 53.6001 26 53.5001 25.9C53.4001 25.8 51.7001 24.9 51.8001 24.9L52.7001 23.2ZM40.4001 30.9L40.2001 28.6L44.8001 31.2L45.0001 33.5L40.4001 30.9ZM47.7001 23.6C48.9001 24.3 52.5001 26.4 52.3001 26.3L45.2001 30.4L40.6001 27.7L47.7001 23.6ZM40.0001 31.8L44.7001 34.5C43.8001 35.3 43.5001 35.7 42.4001 36.9C42.3001 36.8 40.5001 35.4 40.6001 35.5L37.9001 34C38.6001 33.2 39.3001 32.5 40.0001 31.8ZM35.0001 33.4C35.8001 33.9 39.9001 36.2 39.7001 36.2C39.2001 37.1 41.6001 32.9 34.5001 45.2C34.4001 45.1 29.7001 42.4 29.8001 42.4L35.0001 33.4ZM34.4001 46.3C34.5001 46.3 36.7001 47.2 36.5001 47.1C36.3001 47.5 35.8001 49.1 35.6001 50.2L30.9001 47.5C31.1001 46.6 31.4001 45.6 31.7001 44.7L34.4001 46.3ZM30.3001 48.3L34.9001 51L32.8001 52L28.2001 49.3L30.3001 48.3ZM27.6001 50.2L32.2001 52.9V61C29.5001 59.5 30.2001 59.9 27.6001 58.3V50.2ZM30.8001 61.3L32.5001 62.3C32.6001 62.3 32.8001 62.4 33.0001 62.3C33.2001 62.2 35.8001 60.4 35.7001 60.5C36.0001 61.2 36.3001 61.9 36.6001 62.5L34.5001 65.7L29.8001 62.9L30.8001 61.3ZM62.9001 34.8C62.6001 34.1 62.3001 33.4 62.0001 32.8L62.5001 32L64.9001 33.4L62.9001 34.8Z" fill="white"/>
<path d="M62.4001 52C62.2001 51.9 61.9001 51.9 61.7001 52.2L61.1001 53.2C61.0001 53.4 61.0001 53.7 61.3001 53.9C61.5001 54 61.8001 54 62.0001 53.7L62.6001 52.7C62.7001 52.5 62.6001 52.2 62.4001 52Z" fill="white"/>
<path d="M49.1002 37.2C44.2002 40 40.2002 46.9 40.2002 52.5C40.2002 58.3 44.5002 60.8 49.6002 57.8C54.5002 55 58.4002 48.1 58.4002 42.5C58.5002 36.7 54.2002 34.3 49.1002 37.2ZM57.5002 42.6C57.5002 47.9 53.8002 54.4 49.2002 57C44.7002 59.6 41.3002 57.6 41.3002 52.5C41.3002 47.2 45.0002 40.7 49.7002 38C54.1002 35.5 57.5002 37.5 57.5002 42.6Z" fill="white"/>
<path d="M53.7001 40.4C53.5001 40.3 53.4001 40.3 53.2001 40.4L45.1 45.1C44.9 45.2 44.8 45.4 44.8 45.5V54.2C44.8 54.4 44.9 54.5 45.1 54.6C45.3 54.7 45.4 54.7 45.6 54.6L53.7001 49.9C53.9001 49.8 54 49.6 54 49.5V40.8C53.9 40.7 53.8001 40.5 53.7001 40.4ZM50.3 44.8L48.6 45.8V44.3L50.3 43.3V44.8ZM45.8 53.4V45.9L47.6 44.9V46.7C47.6 46.9 47.7 47 47.9 47.1C48.1 47.2 48.2 47.2 48.4 47.1L51.1 45.6C51.3 45.5 51.4 45.3 51.4 45.2V42.8L53.1 41.8V49.3L45.8 53.4Z" fill="white"/>
</svg>
