<svg width="93" height="92" viewBox="0 0 93 92" fill="none" xmlns="http://www.w3.org/2000/svg">
<rect x="0.5" width="92" height="92" rx="46" fill="black"/>
<path d="M37.6001 50.8C37.6001 51 37.7001 51.1 37.8001 51.2C37.9001 51.3 46.1001 56 46.0001 55.9C46.1001 55.9 46.2001 56 46.2001 56C46.2001 56 46.4001 56 46.5001 55.9L50.8001 53.4C51.0001 53.3 51.1001 53 51.0001 52.7C50.9001 52.5 50.6001 52.4 50.3001 52.5L46.7001 54.6C46.7001 54.5 46.7001 45.9 46.7001 46.4L48.7001 45.3V47.3C48.7001 47.6 48.9001 47.8 49.2001 47.8C49.3001 47.8 49.4001 47.8 49.5001 47.7L52.4001 46C52.6001 45.9 52.7001 45.7 52.7001 45.6V43L54.5001 42V50.2L53.6001 50.7C53.4001 50.8 53.3001 51.1 53.4001 51.4C53.5001 51.6 53.8001 51.7 54.1001 51.6L55.2001 50.9C55.4001 50.8 55.5001 50.6 55.5001 50.5V41.1V41V40.9L55.4001 40.8C55.4001 40.8 55.4001 40.7 55.3001 40.7C53.1001 39.4 46.7001 35.7 47.1001 36C46.9001 35.9 46.8001 35.9 46.6001 36L37.8001 41C37.7001 41 37.7001 41.1 37.6001 41.2V41.3V41.4V50.8ZM43.9001 38.7L51.1001 42.9L49.2001 44L42.0001 39.8L43.9001 38.7ZM38.6001 50.5V42.3L45.8001 46.5C45.8001 46.6 45.8001 54.9 45.8001 54.7L38.6001 50.5ZM49.7001 46.5V44.8L51.6001 43.7V45.4L49.7001 46.5ZM46.8001 37L54.0001 41.2L52.1001 42.3L44.9001 38.1L46.8001 37ZM41.0001 40.4L48.2001 44.6L46.2001 45.7L39.0001 41.5L41.0001 40.4Z" fill="white"/>
<path d="M52.5 51.4L51.5 52C51.3 52.1 51.2 52.4 51.3 52.7C51.4 52.9 51.7 53 52 52.9L53 52.3C53.2 52.2 53.3 51.9 53.2 51.6C53 51.3 52.7 51.3 52.5 51.4Z" fill="white"/>
<path d="M42.5001 65.6L46.2001 69.8C46.3001 69.9 46.4001 70 46.6001 70C46.8001 70 47.0001 69.9 47.1001 69.7L50.7001 61.3C50.8001 61.1 50.7001 60.9 50.6001 60.7C50.5001 60.5 50.2001 60.5 50.0001 60.6L48.3001 61.6V58.4C48.3001 58.2 48.2001 58.1 48.0001 58C47.8001 57.9 47.7001 57.9 47.5001 58L45.1001 59.4C44.9001 59.5 44.8001 59.7 44.8001 59.8V63.5L42.6001 64.7C42.4001 65 42.3001 65.4 42.5001 65.6ZM45.6001 64.3C45.8001 64.2 45.9001 64 45.9001 63.9V60.1L47.3001 59.3V62.5C47.3001 62.7 47.4001 62.8 47.6001 62.9C47.8001 63 47.9001 63 48.1001 62.9L49.2001 62.3L46.5001 68.6L43.8001 65.5L45.6001 64.3Z" fill="white"/>
<path d="M50.5001 26.4L46.8001 22.2C46.7001 22 46.5001 22 46.4001 22C46.2001 22 46.1001 22.1 46.0001 22.3L42.4001 30.7C42.3001 30.9 42.4001 31.1 42.5001 31.3C42.7001 31.4 42.9001 31.5 43.1001 31.4L44.8001 30.4V33.5C44.8001 33.8 45.0001 34 45.3001 34C45.4001 34 45.5001 34 45.6001 33.9L48.1001 32.5C48.3001 32.4 48.4001 32.2 48.4001 32.1V28.5L50.6001 27.3C50.6001 27 50.7001 26.6 50.5001 26.4ZM47.4001 27.6C47.2001 27.7 47.1001 27.9 47.1001 28V31.6L45.6001 32.4V29.3C45.6001 29.1 45.5001 29 45.3001 28.9C45.1001 28.8 44.9001 28.8 44.8001 28.9L43.7001 29.5L46.4001 23.2L49.1001 26.3L47.4001 27.6Z" fill="white"/>
<path d="M31 50.4C30.8 50.3 30.6 50.4 30.4 50.6L24.9 58C24.8 58.1 24.8 58.3 24.8 58.5C24.9 58.7 25 58.8 25.2 58.8L30.7 59.8C31 59.9 31.3 59.6 31.3 59.3V56.8L34.8 54.8C35 54.7 35.1 54.5 35.1 54.4V51.6C35.1 51.4 35 51.3 34.8 51.2C34.6 51.1 34.5 51.1 34.3 51.2L31.3 53V51.1C31.3 50.6 31.2 50.5 31 50.4ZM34.1 52.3V54L30.6 56C30.4 56.1 30.3 56.3 30.3 56.4V58.6L26.2 57.8L30.3 52.3V53.6C30.3 53.8 30.4 53.9 30.6 54C30.8 54.1 30.9 54.1 31.1 54L34.1 52.3Z" fill="white"/>
<path d="M58.4001 40.8C58.6001 40.9 58.7001 40.9 58.9001 40.8L61.7001 39.2V41.1C61.7001 41.3 61.8001 41.5 62.0001 41.6C62.2001 41.7 62.4001 41.6 62.6001 41.4L68.1001 34C68.2001 33.9 68.2001 33.7 68.2001 33.5C68.1001 33.3 68.0001 33.2 67.8001 33.2L62.3001 32.2C62.0001 32.1 61.7001 32.4 61.7001 32.7V35.2L58.4001 37.1C58.2001 37.2 58.1001 37.4 58.1001 37.5V40.3C58.1001 40.6 58.2001 40.7 58.4001 40.8ZM62.4001 36C62.6001 35.9 62.7001 35.7 62.7001 35.6V33.4L66.8001 34.2L62.7001 39.7V38.4C62.7001 38.2 62.6001 38.1 62.4001 38C62.3001 37.9 62.1001 37.9 61.9001 38L59.1001 39.6V37.9L62.4001 36Z" fill="white"/>
</svg>
