<svg width="93" height="92" viewBox="0 0 93 92" fill="none" xmlns="http://www.w3.org/2000/svg">
<rect x="0.5" width="92" height="92" rx="46" fill="black"/>
<g clip-path="url(#clip0_14_38678)">
<path d="M28.9001 49.9C29.2001 49.9 29.4001 49.7 29.4001 49.4V48.4C29.4001 48.1 29.2001 47.9 28.9001 47.9C28.6001 47.9 28.4001 48.1 28.4001 48.4V49.4C28.4001 49.6 28.6001 49.9 28.9001 49.9Z" fill="white"/>
<path d="M68 47L64.3 44.9C63.1 44.2 61.6 44.1 60 44.5V42.7L66 39.2C66.2001 39.1 66.2001 38.9 66.2001 38.8C66.2001 38.7 66.1 38.5 66 38.4L60.5 35.1L66 31.9C66.2001 31.8 66.2001 31.6 66.2001 31.5C66.2001 31.3 66.1001 31.2 65.9001 31.1L50.4 22.1C50.2 22 50.1 22 49.9 22.1L43.9 25.6L37.9 22.1C37.8 22 37.6 22 37.5 22.1L22.5 31.4C22.4 31.5 22.3 31.7 22.3 31.8C22.3 32 22.4 32.1 22.5 32.2L28 35.4L22.5 38.6C22.3 38.7 22.3 38.9 22.3 39C22.3 39.2 22.4 39.3 22.6 39.4L28.6 42.8V46.9C28.6 47.2 28.8 47.4 29.1 47.4C29.4 47.4 29.6 47.2 29.6 46.9V43.4L37.7 48.1C37.9 48.2 38 48.2 38.2 48.1L43.7001 44.9C43.7001 46.9 43.7001 37.7 43.7001 64.2L29.7 56.1V50.7C29.7 50.4 29.5 50.2 29.2 50.2C28.9 50.2 28.7 50.4 28.7 50.7V56.4C28.7 56.6 28.8 56.7 29 56.8C34.1 59.7 39.6 62.9 44 65.5C44.2001 65.6 44.3 65.6 44.5 65.5L49.1 62.8C49.5 64.8 50.4 66.3 51.8 67.1L55.5 69.2C57.6 70.4 60.1001 69.8 62.2001 68.5C67.2001 65.6 71.2 58.6 71.1 52.8C70.8 50.2 69.8 48 68 47ZM50.2001 47.1C50.1 47 44.6 43.9 45 44.1C46.2001 43.4 58.1 36.5 59.5 35.7L64.7001 38.7L50.2001 47.1ZM44.4 43.2V27L58.4001 35.1C57.2001 35.8 46 42.3 44.4 43.2ZM43.4 27V43.2C41.9 42.4 30.9 36 29.9 35.4L43.4 27ZM50.2001 23.1L64.7001 31.5L59.5 34.5L44.9 26.1L50.2001 23.1ZM37.7 23.1L42.9 26.1C37.6 29.4 52.7 20 28.8 34.8L23.6 31.8L37.7 23.1ZM28.9 36L42.9 44.1L37.7 47.1C22.4 38.3 23.8 39.1 23.7 39L28.9 36ZM44.4 64.3C44.5 37.8 44.4 46.9 44.4 45C44.5 45.1 50.2 48.4 49.9 48.2C50.1 48.3 50.2 48.3 50.4 48.2L58.9001 43.2V44.8C58.5 44.9 57.9001 45.2 57.4001 45.5C52.4001 48.4 48.4 55.4 48.5 61.2C48.5 61.5 48.5 61.7 48.5 61.9L44.4 64.3ZM51.9 66.3C50.4 65.4 49.6 63.6 49.5 61.1C49.5 55.7 53.2001 49.1 57.9001 46.3C59.7001 45.3 61.9 44.6 63.6 45.7L64.7001 46.3H64.6C63.8 46.4 62.9001 46.6 62 47.1C56.7001 49.6 52.1 57.1 52.2001 63.3C52.2001 64.6 52.4 65.9 53 67L51.9 66.3ZM61.4001 67.8C56.9001 70.5 53.3 68.4 53.3 63.3C53.3 57.5 57.5 50.4 62.5 48.1C66.6 46.2 69.7001 48.2 69.8 53.1C69.9 58.4 66.1001 65.1 61.4001 67.8Z" fill="white"/>
<path d="M66.7 57.1L65.8 57.6V54.2C65.8 54 65.7 53.9 65.5 53.8C65.3 53.7 65.2 53.7 65 53.8L63.4 54.7C63.2 54.8 63.1 55 63.1 55.1V59.1L61.7 60C61.6 60 61.5 60.2 61.5 60.3C61.5 60.5 61.5 60.6 61.7 60.7L64.2 62.9C64.4 63.1 64.8 63 65 62.7L67.5 57.7C67.6 57.5 67.6 57.3 67.4 57.1C67.1 57 66.9 57 66.7 57.1ZM64.3 61.8L62.8 60.5L63.9 59.9C64.1 59.8 64.2 59.6 64.2 59.5V55.5L64.8 55.1V58.5C64.8 58.7 64.9 58.8 65.1 58.9C65.3 59 65.4 59 65.6 58.9L65.9 58.8L64.3 61.8Z" fill="white"/>
<path d="M61.5 55.6L59 53.4C58.9 53.3 58.7 53.3 58.6 53.3C58.4 53.3 58.3 53.4 58.2 53.6L55.7 58.6C55.6 58.8 55.6 59 55.8 59.2C56 59.3 56.2 59.4 56.4 59.3L57.3 58.8V62.2C57.3 62.6 57.7 62.8 58.1 62.6L59.7 61.7C59.9 61.6 60 61.4 60 61.3V57.3L61.4 56.5C61.7 56.2 61.8 55.8 61.5 55.6ZM59.2 56.5C59 56.6 58.9 56.8 58.9 56.9V60.9L58.3 61.3V57.9C58.3 57.6 58.1 57.4 57.8 57.4C57.7 57.4 57.6 57.4 57.5 57.5L57.2 57.6L58.7 54.6L60.2 55.9L59.2 56.5Z" fill="white"/>
</g>
<defs>
<clipPath id="clip0_14_38678">
<rect width="50" height="50" fill="white" transform="translate(21.5 21)"/>
</clipPath>
</defs>
</svg>
