<svg width="93" height="92" viewBox="0 0 93 92" fill="none" xmlns="http://www.w3.org/2000/svg">
<rect x="0.5" width="92" height="92" rx="46" fill="black"/>
<path d="M64.5 58.9L62.7001 59.9C62.5 60 62.4001 60.3 62.5 60.6C62.6 60.8 62.9001 60.9 63.2001 60.8L65 59.7C65.5 59.4 65.7001 59 65.7001 58.6C65.7001 57.8 65.7001 53.7 65.7001 53.9C65.7001 53.5 65.4001 53 65 52.8L52.4 45.5V45.4C56 41.6 58.2001 36.4 58.2001 31.9C58.2001 28.9 57.2 26.7 55.3 25.6C55.3 25.6 55.3001 25.6 55.2001 25.6L50.2001 22.7C48.3001 21.6 45.8 21.8 43.1 23.4C37.3 27 33.6 34.2 33.6 39.8C33.6 42.8 34.7 45.1 36.6 46.2L38.1 47.1L28 52.9C27.5 53.1 27.3 53.5 27.3 54V58.6C27.3 58.9 27.4 59.3 28 59.7L45.1 69.6C45.9 70.1 47.2001 70.1 48 69.6L58.4001 63.6C58.6001 63.5 58.7 63.2 58.6 62.9C58.5 62.7 58.2001 62.6 57.9001 62.7L47.5 68.7C47 69 46.1 69 45.6 68.7L28.5 58.9C28.3 58.8 28.3 58.7 28.3 58.6V55.2C42.8 63.6 44.7001 64.7 45.2001 64.9C46 65.4 47.3 65.4 48 64.9C48.1 64.8 64.3 55.5 64.7001 55.2V58.6C64.7001 58.7 64.7001 58.8 64.5 58.9ZM38.5 60L28.9 54.5L38.6 54.6L38.5 60ZM43.6 63V60.8L48 63.9L47.5 64.1C47 64.4 46.1 64.4 45.6 64.1L43.6 63ZM64.7001 54C64.7001 54.1 64.6 54.2 64.5 54.3L61.4001 56.1L54.8 52V48.1L64.6 53.7C64.7 53.8 64.7001 53.9 64.7001 54ZM53.7001 47.5V52.2C53.7001 52.4 53.8001 52.5 53.9001 52.6L60.3 56.6L48.9 63.2L43.3 59.3C43.1 59.2 42.9 59.2 42.8 59.3C42.6 59.4 42.5 59.6 42.5 59.7V62.3L39.5 60.6L39.6 54.1C39.6 54 39.6 53.8 39.5 53.7C39.4 53.6 39.3 53.6 39.1 53.5H28.9L39 47.6L40.1 48.3L42.6 54.6L42.9 55.4C42.9 55.5 43 55.6 43.1 55.6L48.1 58.5C48.4 58.7 48.8 58.5 48.8 58.2L51.3 48.8L51.9 46.5L53.7001 47.5ZM44.6 49.8L47.5 57L43.8 54.9L41.5 49.1C42.4 49.5 43.5 49.8 44.6 49.8ZM57.2001 32C57.2001 36.2 55 41.3 51.6 44.9C51.5 45 51.5 45 51.4 45.1L48.4 56.5L45.5 49.1C45.4 49 45.2001 48.8 45 48.8C44.8 48.8 44.6 48.8 44.1 48.8C41 48.6 39.7 45.8 39.7 42.8C39.7 37.1 43.7001 30.1 48.7001 27.2C51 25.9 53.2 25.6 54.8 26.5C56.3 27.4 57.2001 29.4 57.2001 32ZM34.6 39.8C34.6 34.6 38 27.7 43.6 24.2C45 23.4 46.3 23 47.5 23C48.3 23 49 23.2 49.7001 23.6L52.1 25C51 25.1 49.6 25.5 48.2001 26.3C42.9001 29.3 38.7 36.7 38.7 42.7C38.7 44 38.9 45.5 39.5 46.7L37.1 45.3C35.5 44.4 34.6 42.4 34.6 39.8Z" fill="white"/>
<path d="M61.2001 60.8L59.6001 61.7C59.4001 61.8 59.3001 62.1 59.4001 62.4C59.5001 62.6 59.8001 62.7 60.1001 62.6L61.7001 61.7C61.9001 61.6 62.0001 61.3 61.9001 61C61.7001 60.8 61.4001 60.7 61.2001 60.8Z" fill="white"/>
<path d="M48.2001 29.9C44.7001 31.9 41.8 36.9 41.8 41C41.8 45.2 45.0001 47.1 48.7001 44.9C52.2001 42.9 55.1 37.9 55.1 33.9C55.1 29.6 51.9001 27.7 48.2001 29.9ZM48.2001 44C45.1001 45.8 42.8 44.4 42.8 40.9C42.8 37.2 45.4001 32.6 48.7001 30.7C51.7001 29 54.1 30.3 54.1 33.8C54.1 37.5 51.4001 42.2 48.2001 44Z" fill="white"/>
<path d="M51.6 31.9C51.4 31.8 51.3 31.8 51.1 31.9L45.3 35.2C45.1 35.3 45 35.5 45 35.6V42.3C45 42.5 45.1 42.6 45.3 42.7C45.5 42.8 45.6 42.8 45.8 42.7L51.6 39.4C51.8 39.3 51.9 39.1 51.9 39V32.3C51.8 32.2 51.7 32 51.6 31.9ZM48 36.3V34.9L48.9 34.4V35.8L48.1 36.2L48 36.3ZM46 41.5V36L47 35.4C47 35.5 47 37.2 47 37.1C47 37.4 47.2 37.6 47.5 37.6C47.6 37.6 47.7 37.6 47.8 37.5L48.6 37L49.7 36.4C49.9 36.3 50 36.1 50 36V33.8L50.9 33.3V38.8L46 41.5Z" fill="white"/>
</svg>
