<svg width="93" height="92" viewBox="0 0 93 92" fill="none" xmlns="http://www.w3.org/2000/svg">
<rect x="0.5" width="92" height="92" rx="46" fill="black"/>
<path d="M26.2001 58.8C26.2001 59 26.3001 59.1 26.4001 59.2C27.8001 60 45.2001 70.1 45.0001 69.9C45.2001 70 45.3001 70 45.5001 69.9L66.6001 57.7C66.8001 57.6 66.9001 57.4 66.9001 57.3L66.8001 33.2C66.8001 33 66.7001 32.8 66.6001 32.8C52.2001 24.4 70.0001 34.8 54.9001 26C54.7001 25.9 54.4001 25.9 54.2001 26.2C54.1001 26.4 54.1001 26.7 54.4001 26.9L65.4001 33.3L58.5001 37.2L41.0001 27L47.8001 23.1L50.5001 24.6C50.7001 24.7 51.0001 24.7 51.2001 24.4C51.3001 24.2 51.3001 23.9 51.0001 23.7L48.1001 22C47.9001 22 47.7001 22 47.5001 22.1L26.4001 34.3C26.2001 34.4 26.1001 34.6 26.1001 34.7L26.2001 58.8ZM53.3001 41.3L58.0001 38.6V41.4L53.3001 44.2V41.3ZM27.2001 58.5V35.6C31.6001 38.1 40.2001 43.2 44.7001 45.8C44.7001 51.2 44.7001 63.2 44.8001 68.7L27.2001 58.5ZM45.7001 68.6C45.7001 66.5 45.6001 48.7 45.6001 45.7C45.7001 45.6 52.7001 41.6 52.2001 41.9V45.1C52.2001 45.3 52.3001 45.4 52.5001 45.5C52.7001 45.6 52.8001 45.6 53.0001 45.5L58.7001 42.2C58.9001 42.1 58.9001 41.9 58.9001 41.8V38L65.7001 34.1L65.8001 57L45.7001 68.6ZM52.8001 40.5L35.3001 30.3L40.0001 27.6L57.5001 37.7C57.4001 37.8 52.7001 40.5 52.8001 40.5ZM34.3001 30.9L51.8001 41L45.2001 44.8L27.7001 34.7L34.3001 30.9Z" fill="white"/>
<path d="M52.8002 26C53.0002 26.1 53.3002 26 53.5002 25.8C53.6002 25.6 53.6002 25.3 53.3002 25.1L52.4002 24.6C52.2002 24.5 51.9002 24.5 51.7002 24.8C51.6002 25 51.6002 25.3 51.9002 25.5L52.8002 26Z" fill="white"/>
<path d="M42.9 64.6V47.1C42.9 47 42.8 46.8 42.7 46.7C42.5 46.6 29.9 39.2 29.8 39.2C29.5 39 29 39.3 29 39.6V57.1C29 57.2 29.1 57.5 29.2 57.5C36.9 61.9 34.3 60.5 42 64.9C42.5 65.2 42.9 64.9 42.9 64.6ZM30 41.7L35.3 52L30.1 56.1L30 41.7ZM30.7 40.9L41.4 47.1L36.1 51.3L30.7 40.9ZM35.8 52.9L41.2 63.3L30.4 57.1L35.8 52.9ZM36.6 52.2L41.8 48.1V62.5L36.6 52.2Z" fill="white"/>
<path d="M56.0002 45.5C52.2002 47.7 49.2002 53 49.2002 57.3C49.2002 61.3 51.9002 63 55.5002 60.9C57.3002 59.8 59.0002 58.1 60.2002 56C61.5002 53.8 62.3002 51.3 62.3002 49.1C62.3002 45.2 59.7002 43.4 56.0002 45.5ZM55.9002 59.5V58.8C55.9002 58.5 55.7002 58.3 55.4002 58.3C55.1002 58.3 54.9002 58.5 54.9002 58.8V60.1C54.1002 60.6 53.0002 60.9 52.1002 60.8L52.7002 59.7C52.8002 59.5 52.8002 59.2 52.5002 59C52.3002 58.9 52.0002 58.9 51.8002 59.2L51.1002 60.4C50.2002 59.6 50.1002 58.1 50.1002 57.4C50.1002 57.3 50.1002 57.2 50.1002 57.2L51.2002 56.5C51.4002 56.4 51.5002 56.1 51.4002 55.8C51.3002 55.6 51.0002 55.5 50.7002 55.6L50.2002 55.9C50.4002 54.5 50.9002 53.1 51.6002 51.8L52.2002 52.1C52.4002 52.2 52.7002 52.2 52.9002 51.9C53.0002 51.7 53.0002 51.4 52.7002 51.2L52.1002 50.9C53.0002 49.4 54.2002 48 55.5002 47V47.6C55.5002 47.9 55.7002 48.1 56.0002 48.1C56.3002 48.1 56.5002 47.9 56.5002 47.6V46.3C57.4002 45.8 58.6002 45.4 59.5002 45.7L58.9002 46.7C58.8002 46.9 58.8002 47.2 59.1002 47.4C59.3002 47.5 59.6002 47.5 59.8002 47.2L60.4002 46.2C61.1002 47 61.2002 48.3 61.2002 49C61.2002 49.1 61.2002 49.3 61.2002 49.4L60.1002 50.1C59.9002 50.2 59.8002 50.5 59.9002 50.8C60.0002 51 60.3002 51.1 60.6002 51L61.1002 50.7C60.9002 52.2 60.3002 53.7 59.5002 55.1L58.9002 54.8C58.7002 54.7 58.4002 54.7 58.2002 55C58.1002 55.2 58.1002 55.5 58.4002 55.7L59.0002 56C58.2002 57.4 57.1002 58.6 55.9002 59.5Z" fill="white"/>
<path d="M58.1 49.4C57.9 49.3 57.6001 49.3 57.4001 49.6L55.9001 52C55.7001 52 55.4 52 55.1 52.2C54.4 52.6 53.8 53.6 53.8 54.4C53.8 55.5 54.7 56 55.6 55.4C56.3 55 56.9001 54 56.9001 53.2C56.9001 52.9 56.8001 52.7 56.7001 52.5L58.2001 50.1C58.4001 49.8 58.4 49.5 58.1 49.4ZM55.1 54.5C54.9 54.6 54.8 54.6 54.8 54.3C54.8 53.8 55.2 53.2 55.6 52.9C55.8 52.8 55.9001 52.8 55.9001 53.1C55.9001 53.6 55.6 54.3 55.1 54.5Z" fill="white"/>
</svg>
