<svg width="93" height="92" viewBox="0 0 93 92" fill="none" xmlns="http://www.w3.org/2000/svg">
<rect x="0.5" width="92" height="92" rx="46" fill="black"/>
<path d="M32.0999 59.7C31.2999 59.3 30.3999 59.3 29.2999 59.9C27.3999 61 25.8999 63.6 25.8999 65.8C25.8999 67 26.2999 67.8 27.0999 68.2C27.8999 68.7 29.3999 69.7 29.2999 69.6C30.1999 70.1 31.1999 69.9 31.9999 69.4C33.8999 68.3 35.3999 65.7 35.3999 63.5C35.3999 62.4 34.9999 61.5 34.2999 61.1C34.1999 61 33.9999 60.9 33.8999 60.8L38.3999 56.7C38.4999 56.8 42.9999 59.4 42.8999 59.3C43.0999 59.4 43.1999 59.4 43.3999 59.3L47.6999 56.8C47.8999 56.7 47.9999 56.4 47.8999 56.1C47.7999 56 47.4999 56 47.2999 56.1L43.7999 58.1V48L46.5999 46.4V48.2C46.5999 48.6 46.9999 48.8 47.3999 48.6L50.3999 46.8C50.5999 46.7 50.5999 46.5 50.5999 46.4V44L53.3999 42.4V52.5L51.2999 53.7C51.0999 53.8 50.9999 54.1 51.0999 54.4C51.1999 54.6 51.4999 54.7 51.7999 54.6L54.0999 53.3C54.2999 53.2 54.3999 53 54.3999 52.9V51.5L58.2999 53.5C57.7999 54.5 57.4999 55.6 57.4999 56.6C57.4999 57.8 57.8999 58.6 58.6999 59C59.0999 59.2 61.0999 60.5 60.8999 60.4C61.7999 60.9 62.7999 60.7 63.5999 60.2C65.4999 59.1 66.9999 56.5 66.9999 54.3C66.9999 53.2 66.5999 52.3 65.8999 51.9C65.7999 51.8 64.2999 50.9 63.5999 50.5C62.7999 50.1 61.8999 50.1 60.7999 50.7C59.9999 51.2 59.2999 51.9 58.7999 52.7L54.3999 50.5V41.8C54.3999 41.6 54.2999 41.5 54.0999 41.4C53.7999 41.2 50.2999 39.2 50.3999 39.2L51.9999 32.4C52.0999 32.5 52.2999 32.6 52.1999 32.5C53.0999 33 54.0999 32.8 54.8999 32.3C56.7999 31.2 58.2999 28.6 58.2999 26.4C58.2999 25.3 57.8999 24.4 57.1999 24L54.9999 22.6C54.1999 22.2 53.2999 22.2 52.1999 22.8C50.2999 23.9 48.7999 26.5 48.7999 28.7C48.7999 29.9 49.1999 30.7 49.9999 31.1L51.1999 31.8L49.4999 38.5L44.7999 35.8C44.5999 35.7 44.4999 35.7 44.2999 35.8C44.0999 35.9 33.5999 42 33.6999 41.9C33.4999 42 33.4999 42.2 33.3999 42.3C33.3999 42.4 33.3999 53.5 33.3999 53.6C33.3999 53.8 33.4999 53.9 33.5999 54L37.4999 56.2L32.9999 60.3L32.0999 59.7ZM63.0999 59.3C61.5999 60.2 60.6999 59.5 60.6999 57.9C60.6999 56.1 61.9999 53.8 63.5999 52.8C64.8999 52 65.9999 52.5 65.9999 54.2C65.9999 56 64.6999 58.3 63.0999 59.3ZM61.3999 51.4C61.8999 51.1 62.5999 50.9 63.0999 51.2L63.7999 51.6C63.1999 51.8 62.8999 52.1 62.5999 52.3C60.8999 53.5 59.6999 55.9 59.6999 57.9C59.6999 58.1 59.6999 58.3 59.6999 58.5L59.0999 58.1C58.6999 57.8 58.3999 57.3 58.3999 56.5C58.4999 54.8 59.6999 52.4 61.3999 51.4ZM54.3999 31.2C52.8999 32.1 51.9999 31.4 51.9999 29.8C51.9999 28 53.2999 25.6 54.8999 24.7C56.2999 23.9 57.2999 24.4 57.2999 26.1C57.2999 28 55.9999 30.3 54.3999 31.2ZM50.3999 30C49.9999 29.7 49.6999 29.2 49.6999 28.4C49.6999 26.6 50.9999 24.3 52.5999 23.3C53.0999 23 53.7999 22.8 54.2999 23.1L54.9999 23.5C54.7999 23.6 54.3999 23.8 54.2999 23.8C52.4999 25 50.8999 27.6 50.8999 29.8C50.8999 30 50.8999 30.2 50.8999 30.4L50.3999 30ZM37.7999 40.7L46.0999 45.5L43.2999 47.1L34.9999 42.3L37.7999 40.7ZM40.7999 39L49.0999 43.8L47.0999 45L38.7999 40.2L40.7999 39ZM49.5999 46.2L47.5999 47.4V45.9L49.5999 44.7V46.2ZM44.5999 36.8L52.8999 41.6L50.0999 43.2L41.7999 38.4L44.5999 36.8ZM34.3999 43.2C34.4999 43.3 43.1999 48.3 42.6999 48V58.1L34.4999 53.3L34.3999 43.2ZM27.6999 67.5C27.2999 67.2 26.9999 66.7 26.9999 65.9C26.9999 64.1 28.2999 61.8 29.8999 60.8C30.3999 60.5 31.0999 60.3 31.5999 60.6L32.2999 61C32.0999 61.1 31.8999 61.2 31.5999 61.3C29.6999 62.4 28.1999 65 28.1999 67.3C28.1999 67.5 28.1999 67.7 28.1999 67.9L27.6999 67.5ZM31.5999 68.6C30.1999 69.4 29.1999 68.8 29.1999 67.2C29.1999 65.4 30.4999 63.1 32.0999 62.1C33.3999 61.3 34.4999 61.8 34.4999 63.5C34.4999 65.4 33.1999 67.7 31.5999 68.6Z" fill="white"/>
<path d="M49.3 56.1L50.5 55.4C50.7 55.3 50.8 55 50.7 54.7C50.6 54.5 50.3 54.4 50 54.5L48.8 55.2C48.6 55.3 48.5 55.6 48.6 55.9C48.7 56.2 49 56.2 49.3 56.1Z" fill="white"/>
</svg>
