<svg width="93" height="92" viewBox="0 0 93 92" fill="none" xmlns="http://www.w3.org/2000/svg">
<rect x="0.5" width="92" height="92" rx="46" fill="black"/>
<path d="M66.6999 52.3C65.9999 52.7 65.3999 53.7 65.3999 54.5C65.3999 55.5 66.2999 56 67.1999 55.5C67.8999 55.1 68.3999 54.2 68.3999 53.3C68.4999 52.3 67.5999 51.8 66.6999 52.3ZM66.6999 54.6C66.4999 54.7 66.4999 54.7 66.4999 54.5C66.4999 54 66.8999 53.4 67.2999 53.2C67.4999 53.1 67.5999 53.1 67.5999 53.3C67.4999 53.8 67.0999 54.4 66.6999 54.6Z" fill="white"/>
<path d="M56.2999 32.6L56.9999 33C57.1999 33.1 57.4999 33.1 57.6999 32.8C57.7999 32.6 57.7999 32.3 57.4999 32.1L56.7999 31.7C56.5999 31.6 56.2999 31.6 56.0999 31.9C55.8999 32.1 55.9999 32.4 56.2999 32.6Z" fill="white"/>
<path d="M22.8 44.5L26 46.4C26.1 48.7 27.6 51.4 29.6 52.6C31.6 53.8 33.4 52.9 33.7 50.9L45.1 57.5C45.2 59.8 46.7 62.5 48.7 63.7C49.3 64.1 49.9 64.2 50.5 64.2C50.9 64.2 51.3 64.1 51.6 63.9C52.2 63.5 52.6 62.8 52.8 62L55.9 63.8C56 63.8 56.1 63.9 56.1 63.9C56.2 63.9 56.3 63.9 56.4 63.8L70.2 55.8C70.4 55.7 70.4 55.5 70.4 55.4V50.4C70.4 49.3 70 48.2 69.1 47.2C68.2 46.2 67.4 45.9 65.2 44.5C65.1 44.4 65 44.3 65 44.1L64.4 39.1C64.1 37.3 62.9 35.5 61.4 34.7C60.6 34.2 58.4 33 58.6 33.1C58.4 33 58.1 33 57.9 33.3C57.8 33.5 57.8 33.8 58.1 34L60.2 35.2C59.7 35.5 58 36.5 47.4 42.6C47.1 42.4 41 38.9 41.3 39.1C46.7 35.9 53.2 32.2 54.1 31.7C54.1 31.7 54.2 31.7 54.3 31.8L54.9 32.2C55.1 32.3 55.4 32.3 55.6 32C55.7 31.8 55.7 31.5 55.4 31.3L54.8 30.9C54.4 30.6 53.9 30.6 53.6 30.8L47.6 34.3C47.5 34 37 27.9 37.1 28C36.9 27.9 36.8 27.9 36.6 28L22.8 36C22.7 36.1 22.5 36.1 22.5 36.4V44.1C22.5 44.3 22.6 44.4 22.8 44.5ZM39.9 38.6C39.6 38.8 39.4 39.2 39.4 39.7V45.3C38.4 44.7 42.1 46.8 28.5 39L30.8 37.7V38.4C30.8 38.6 30.9 38.7 31.1 38.8L35.1 41.1C35.3 41.2 35.4 41.2 35.6 41.1L39.5 38.8C39.7 38.7 39.7 38.5 39.7 38.4V36.2L41.8 37.5L39.9 38.6ZM35.8 37L38.8 35.3V38.1L35.8 39.8V37ZM34.8 37V39.8L31.8 38.1V35.3C31.9 35.4 35 37.1 34.8 37ZM35.3 36.2C35.2 36.1 32.1 34.4 32.3 34.5L35.3 32.8L38.3 34.5C38.1 34.5 35.1 36.2 35.3 36.2ZM36.2 32.1L35.5 31.7C35.3 31.6 35.2 31.6 35 31.7L31 34C30.8 34.1 30.7 34.3 30.7 34.4V36.4L27.5 38.4C27.4 38.3 23.8 36.3 24.1 36.4L36.4 29.3L36.2 32.1ZM30.1 51.7C28.3 50.7 26.8 48.1 27 46C27.1 44.6 28.1 43.9 29.6 44.8C31.3 45.8 32.7 48.3 32.7 50.2C32.7 51.9 31.6 52.5 30.1 51.7ZM51.1 62.9C50.6 63.2 49.9 63.1 49.2 62.7C47.5 61.7 46.1 59.3 46.1 57.3C46.1 55.4 47.3 55 48.7 55.8C50 56.5 51.2 58.2 51.7 60C52 61 52 62.4 51.1 62.9ZM52.9 60.7C52.9 60.4 52.8 60.1 52.8 59.9C52.3 57.8 50.9 55.8 49.3 54.9C47.3 53.8 45.7 54.5 45.3 56.3L33.8 49.7C33.6 47.5 32.1 45 30.2 43.9C28.3 42.8 26.6 43.5 26.2 45.3L23.5 43.8V37.3C27.2 39.4 30.2 41.2 39.5 46.6C39.7 46.7 39.8 46.7 40 46.6C40.1 46.5 40.2 46.5 40.2 46.4C40.2 46.3 40.2 46.3 40.2 46.2V39.7C40.2 39.5 40.2 39.4 40.5 39.6C40.6 39.7 47.6 43.7 47.1 43.4C48.3 44.1 49.3 45.7 49.6 47.1L49.9 49.6C49.9 49.9 50.2 52.3 50.2 52.1C50.3 52.5 50.5 53 50.9 53.2C51 53.3 53.5 54.8 53.4 54.7C54.7 55.5 55.6 56.8 55.6 58.4C55.6 58.5 55.6 62.7 55.6 62.4L52.9 60.7ZM69.5 54.9L56.7 62.3C56.7 62.2 56.7 58.1 56.7 58.3C56.7 58 56.7 57.6 56.6 57.3L69.5 49.9C69.5 50 69.5 50.1 69.5 50.2V54.9ZM68.5 47.7C68.9 48.1 69.1 48.5 69.3 49L56.4 56.5C55.9 55.4 55.1 54.5 54.1 53.9C51.6 52.4 51.6 52.3 51.5 52.2L64.4 44.7C64.5 44.9 64.7 45.1 64.9 45.2C67 46.6 67.8 46.8 68.5 47.7ZM63.5 39L64.1 43.7L51.2 51.2L51 49.7L50.7 47C50.4 45.5 49.5 44 48.4 43.1C49.2 42.6 58.2 37.4 61.3 35.6C62.3 36.2 63.3 37.7 63.5 39ZM42.8 36.9L39.7 35C39.7 34.9 39.7 35.2 39.7 34.5C39.7 34.4 39.6 34.2 39.4 34.1L37.2 32.8L37.3 29.3L46.6 34.7L42.8 36.9Z" fill="white"/>
<path d="M30.1 46.5C29.1 45.9 28.2 46.5 28.2 47.6C28.2 48.5 28.8 49.5 29.6 50C30.5 50.5 31.5 50 31.5 48.9C31.5 47.9 30.9 46.9 30.1 46.5ZM30.1 49.1C29.6 48.8 29.2 48.1 29.2 47.6C29.2 47.2 29.3 47.3 29.6 47.4C30.1 47.7 30.5 48.4 30.5 48.9C30.5 49.2 30.4 49.2 30.1 49.1Z" fill="white"/>
<path d="M49.2001 57.5C48.2001 56.9 47.3 57.5 47.3 58.6C47.3 59.5 47.9001 60.5 48.7001 61C49.6001 61.5 50.6 61 50.6 59.9C50.6 59 50.0001 58 49.2001 57.5ZM49.2001 60.1C48.7001 59.8 48.3 59.1 48.3 58.6C48.3 58.2 48.4001 58.3 48.7001 58.4C49.2001 58.7 49.6 59.4 49.6 59.9C49.6 60.2 49.5001 60.3 49.2001 60.1Z" fill="white"/>
<path d="M47.1999 45C46.8999 44.8 42.9999 42.4 42.1999 42C41.9999 41.9 41.8999 41.9 41.6999 42C41.4999 42.1 41.3999 42.3 41.3999 42.4V47.6C41.3999 47.8 41.4999 47.9 41.5999 48L48.3999 51.9C48.4999 51.9 48.5999 52 48.6999 52C48.9999 52 49.2999 51.7 49.1999 51.4L47.3999 45.3C47.3999 45.2 47.2999 45.1 47.1999 45ZM42.3999 47.4V43.4C43.9999 44.3 45.8999 45.5 46.3999 45.8L47.7999 50.6L42.3999 47.4Z" fill="white"/>
<path d="M61.4001 40.5L59.1001 39.3C58.9001 39.2 58.6001 39.3 58.4001 39.5C58.3001 39.7 58.4001 40 58.6001 40.2L60.9001 41.4C61.1001 41.5 61.4001 41.4 61.6001 41.2C61.7001 40.9 61.6001 40.6 61.4001 40.5Z" fill="white"/>
<path d="M60.6001 38C60.4001 37.9 60.1001 38 59.9001 38.2C59.8001 38.4 59.9001 38.7 60.1001 38.9L61.0001 39.4C61.2001 39.5 61.5001 39.4 61.7001 39.2C61.8001 39 61.7001 38.7 61.5001 38.5L60.6001 38Z" fill="white"/>
<path d="M58.9001 56.8C58.2001 57.2 57.6001 58.2 57.6001 59C57.6001 60 58.5001 60.5 59.4001 60C60.1001 59.6 60.6001 58.7 60.6001 57.8C60.7001 56.8 59.8001 56.3 58.9001 56.8ZM58.9001 59.1C58.7001 59.2 58.6001 59.2 58.6001 59C58.6001 58.5 59.0001 57.9 59.4001 57.7C59.6001 57.6 59.7001 57.6 59.7001 57.8C59.7001 58.3 59.3001 58.9 58.9001 59.1Z" fill="white"/>
<path d="M64.2 54.9L61.5 56.6C61.3 56.7 61.2 57.1 61.3 57.3C61.4 57.5 61.8 57.6 62 57.5L64.7 55.8C64.9 55.7 65 55.3 64.9 55.1C64.7 54.8 64.4 54.8 64.2 54.9Z" fill="white"/>
</svg>
