<svg width="93" height="92" viewBox="0 0 93 92" fill="none" xmlns="http://www.w3.org/2000/svg">
<rect x="0.5" width="92" height="92" rx="46" fill="black"/>
<path d="M33.5999 63C33.3999 62.9 33.0999 62.9 32.8999 63.2C32.7999 63.4 32.7999 63.7 33.0999 63.9L34.1999 64.5C34.2999 64.5 34.3999 64.6 34.4999 64.6C34.6999 64.6 34.7999 64.5 34.8999 64.4C34.9999 64.2 34.9999 63.9 34.6999 63.7L33.5999 63Z" fill="white"/>
<path d="M39.5 39.4L36 41.4L30 44.9C29.8 45 29.7 45.2 29.7 45.3L29.8 61.6C29.8 61.8 29.9 61.9 30 62L31.7 63C31.9 63.1 32.2 63.1 32.4 62.8C32.5 62.6 32.5 62.3 32.2 62.1L30.8 61.3V46.1L43.3 53.3V68.5L36.1 64.3C35.9 64.2 35.6 64.2 35.4 64.5C35.3 64.7 35.3 65 35.6 65.2C36.4 65.7 32.6 63.5 43.6 69.8C43.8 69.9 43.9 69.9 44.1 69.8L59.5 61C59.7 60.9 59.7999 60.7 59.7999 60.6C59.7999 60.5 59.7999 44.2 59.7999 44.3C59.7999 44.1 59.6999 44 59.5999 43.9L54.2999 40.8L54.7999 40L62.2 35.7C62.9 35.3 63.5 34.3 63.5 33.5V25.3C63.5 24.8 63.2999 24.4 63 24.2C62 23.6 59.4999 22.2 59.5999 22.2C59.3999 22.1 59 21.9 58.4 22.3L46.2999 29C45.5999 29.4 45 30.4 45 31.2V36.2L39.5 39.4ZM43.7 52.6L31.3 45.3L36.3 42.4L48.7999 49.7C48.6999 49.7 43.4 52.8 43.7 52.6ZM50.2999 50L52.7999 48.6V52.2L50.2999 53.7V50ZM49.7999 49.1L37.3 41.8L39.8 40.4L52.2999 47.7L49.7999 49.1ZM44.3 68.6V53.4C44.4 53.3 49.6999 50.3 49.2999 50.5V54.4C49.2999 54.7 49.5 54.9 49.7999 54.9C49.9 54.9 50 54.9 50.1 54.8L53.5999 52.8C53.7999 52.7 53.7999 52.5 53.7999 52.4V48C53.9 47.9 59 45 58.7 45.2V60.4L44.3 68.6ZM53.5999 41.6L58.2 44.3C58.1 44.4 53 47.3 53.2999 47.1L40.8 39.8L45 37.4V39.5C45 40 45.2 40.4 45.6 40.6C45.7 40.7 49.2 42.7 49 42.6C49.2999 42.8 49.8 42.8 50.2 42.5L50.7 42.2L50.9 44.6C50.9 45.1 51.5999 45.2 51.7999 44.8C51.7999 44.7 53.6999 41.4 53.5999 41.6ZM61.5 34.8L53.9 39.2C53.8 39.2 53.8 39.3 53.7 39.4C53.6 39.5 51.5 43.2 51.7 43L51.6 41.4C51.6 41 51.1999 40.8 50.7999 41L49.7 41.7C49.6 41.8 49.5 41.8 49.5 41.7C49.5 41.7 49.5 41.6 49.5 41.5C49.5 41.4 49.5 33.1 49.5 33.2C49.5 32.7 49.9 32.1 50.2999 31.9C51.5 31.2 45.8999 34.4 62.0999 25.1C62.2999 25 62.4 25 62.4 25.3V33.5C62.2 33.9 61.9 34.5 61.5 34.8ZM46.7999 29.9L58.5999 23.1C58.6999 23 58.6999 23 58.7999 23L61.0999 24.4C45.3999 33.4 50.8 30.3 49.7 31C49 31.4 48.4 32.4 48.4 33.2V41.1C48.3 41 45.9 39.7 46.1 39.8C46.1 39.7 46 39.8 46 39.6V31.4C46 30.7 46.4 30.1 46.7999 29.9Z" fill="white"/>
<path d="M57.9999 34L56.4999 33.1L57.8999 30.7C57.9999 30.5 57.9999 30.2 57.6999 30C57.4999 29.9 57.1999 29.9 56.9999 30.2L55.5999 32.6L54.0999 31.7C53.8999 31.6 53.5999 31.6 53.3999 31.9C53.2999 32.1 53.2999 32.4 53.5999 32.6L55.0999 33.5L53.6999 35.9C53.5999 36.1 53.5999 36.4 53.8999 36.6C54.0999 36.7 54.3999 36.7 54.5999 36.4L55.9999 34L57.4999 34.9C57.6999 35 57.9999 35 58.1999 34.7C58.2999 34.4 58.2999 34.1 57.9999 34Z" fill="white"/>
</svg>
