<svg width="93" height="92" viewBox="0 0 93 92" fill="none" xmlns="http://www.w3.org/2000/svg">
<rect x="0.5" width="92" height="92" rx="46" fill="white"/>
<path d="M30.0526 42.3119C30.0537 42.6237 30.3069 42.8763 30.6186 42.8763H30.6203C30.9326 42.8752 31.1858 42.6215 31.1847 42.3086L31.1625 34.4584L37.36 38.0601L37.4552 71.6187L31.2571 68.0169L31.2134 52.4039C31.2123 52.0921 30.9591 51.8395 30.6474 51.8395H30.6457C30.3334 51.8406 30.0802 52.0943 30.0813 52.4072L30.1261 68.3447C30.1267 68.5459 30.2339 68.7316 30.4075 68.8322C30.4566 68.8608 29.7139 68.4292 37.7416 73.0946C37.9138 73.1938 38.13 73.1961 38.3071 73.0941L62.6893 59.0167C62.8651 58.915 62.9729 58.7276 62.9723 58.5247L62.8734 23.6553C62.873 23.5413 62.7672 23.2695 62.592 23.1678L62.5907 23.167L62.5898 23.1661L62.5886 23.1658L55.2606 18.907C55.0843 18.8042 54.8681 18.8053 54.6929 18.9059L30.3107 32.9828C30.1109 33.0985 30.028 33.3585 30.0277 33.4726L30.028 33.4737L30.0277 33.4748L30.0526 42.3119ZM38.5874 71.6248L38.4923 38.0601C44.1842 34.774 56.3088 27.774 61.7441 24.636L61.8391 58.2002L38.5874 71.6248ZM54.9748 20.0502L61.178 23.6553L37.926 37.0797C37.7748 36.9918 31.6034 33.4052 31.7231 33.4748L54.9748 20.0502Z" fill="black"/>
<path d="M30.6397 49.6726C30.9525 49.6715 31.2051 49.4178 31.204 49.1049L31.1941 45.7065C31.193 45.3942 30.9398 45.1421 30.6281 45.1421H30.6264C30.3135 45.1432 30.0609 45.3969 30.062 45.7098L30.072 49.1083C30.0731 49.4206 30.3262 49.6726 30.638 49.6726H30.6397Z" fill="black"/>
<path d="M48.6058 45.6369C48.4305 45.5357 48.2144 45.5374 48.0403 45.6374L41.1478 49.6168C40.972 49.7185 40.8642 49.9059 40.8647 50.1088L40.8841 57.0217C40.8846 57.2235 40.993 57.4098 41.1677 57.5109C41.3398 57.6101 41.556 57.6124 41.7332 57.5104L48.6257 53.531C48.8014 53.4293 48.9092 53.2419 48.9087 53.039L48.8893 46.1261C48.8888 45.9243 48.7804 45.738 48.6058 45.6369ZM42.0134 56.0411L41.9979 50.4333L47.76 47.1067L47.7755 52.7145L42.0134 56.0411Z" fill="black"/>
<path d="M58.6785 39.5071L51.7666 43.4865C51.5908 43.5877 51.4825 43.7756 51.483 43.9785L51.5029 50.8915C51.5035 51.0932 51.6118 51.2795 51.7865 51.3807C51.9587 51.4798 52.1748 51.4822 52.352 51.3801L59.2439 47.4007C59.4192 47.2996 59.527 47.1127 59.527 46.9104V39.9975C59.527 39.7951 59.4192 39.6089 59.2445 39.5071C59.0687 39.4065 58.8531 39.406 58.6785 39.5071ZM58.3949 46.5837L52.6322 49.9109L52.6162 44.3035L58.3949 40.9764V46.5837Z" fill="black"/>
<path d="M58.6785 49.8125L51.7666 53.7913C51.5914 53.8919 51.483 54.0793 51.483 54.2816V61.1952C51.483 61.3975 51.5908 61.5843 51.7655 61.6855C51.9451 61.7883 52.1595 61.7846 52.3315 61.6855L59.2434 57.7055C59.4186 57.6049 59.527 57.4175 59.527 57.2152V50.3028C59.527 50.1005 59.4192 49.9142 59.2445 49.813C59.0687 49.7108 58.8531 49.7113 58.6785 49.8125ZM58.3949 56.888L52.6151 60.2162V54.6089L58.3949 51.2818V56.888Z" fill="black"/>
<path d="M48.0602 55.9427L41.1483 59.9216C40.9725 60.0227 40.8642 60.2107 40.8647 60.4135L40.8841 67.327C40.8846 67.5288 40.993 67.7151 41.1677 67.8162C41.3398 67.9154 41.556 67.9177 41.7332 67.8157L48.6257 63.8357C48.8009 63.7346 48.9087 63.5477 48.9087 63.3454V56.433C48.9087 56.2307 48.8009 56.0444 48.6262 55.9433C48.4504 55.8415 48.2348 55.841 48.0602 55.9427ZM47.7766 63.0187L42.0134 66.3464L41.9979 60.7385L47.7766 57.412V63.0187Z" fill="black"/>
<path d="M59.8409 28.444C59.6657 28.3428 59.4496 28.3445 59.2754 28.4445L40.4702 39.3015C40.2944 39.4032 40.1866 39.5906 40.1871 39.7935L40.207 46.9137C40.2076 47.1155 40.3159 47.3018 40.4906 47.4029C40.5779 47.4532 40.6758 47.4781 40.7731 47.4781C40.8709 47.4781 40.9688 47.4527 41.0561 47.4024L59.8614 36.5448C60.0371 36.4431 60.1449 36.2557 60.1444 36.0529L60.1245 28.9332C60.1239 28.7314 60.0156 28.5451 59.8409 28.444ZM41.3363 45.9331L41.3203 40.118L58.9952 29.9138L59.0112 35.7284L41.3363 45.9331Z" fill="black"/>
<path d="M54.4718 46.6937L57.104 45.1742C57.3749 45.0177 57.4678 44.6717 57.3113 44.4008C57.1543 44.13 56.8078 44.0371 56.538 44.1935L53.9057 45.7131C53.6349 45.8695 53.542 46.2156 53.6984 46.4864C53.8564 46.7591 54.2035 46.8487 54.4718 46.6937Z" fill="black"/>
<path d="M54.6293 56.0135L56.9466 54.6757C57.2174 54.5193 57.3103 54.1733 57.1538 53.9024C56.9963 53.631 56.6503 53.5376 56.3805 53.6951L54.0633 55.0328C53.7924 55.1893 53.6996 55.5353 53.856 55.8062C54.014 56.0788 54.3611 56.1684 54.6293 56.0135Z" fill="black"/>
<path d="M54.6293 57.8028L56.9466 56.4651C57.2174 56.3086 57.3103 55.9626 57.1538 55.6918C56.9963 55.4209 56.6503 55.3275 56.3805 55.4845L54.0633 56.8222C53.7924 56.9786 53.6996 57.3246 53.856 57.5955C54.014 57.8682 54.3611 57.9577 54.6293 57.8028Z" fill="black"/>
<path d="M43.4761 61.7523L44.1211 62.15L43.4573 63.4261C43.313 63.7031 43.4208 64.0452 43.6978 64.1889C43.9712 64.332 44.3155 64.2287 44.4611 63.9479L45.0867 62.7452L45.7032 63.1254C45.9668 63.2879 46.3163 63.2085 46.4821 62.9402C46.6457 62.6743 46.5633 62.3255 46.2975 62.1614L45.6106 61.7379L46.3417 60.3323C46.4859 60.0553 46.3782 59.7131 46.1012 59.5694C45.8221 59.4224 45.481 59.5324 45.3378 59.8104L44.645 61.1425L44.0703 60.7883C43.8033 60.6236 43.4557 60.707 43.2915 60.9735C43.1279 61.2393 43.2102 61.5881 43.4761 61.7523Z" fill="black"/>
<path d="M45.9519 50.3564L45.4527 50.6258V50.0579C45.4527 49.7451 45.1996 49.4919 44.8867 49.4919C44.5738 49.4919 44.3207 49.7451 44.3207 50.0579V51.2366L43.2842 51.7958C43.0089 51.944 42.9061 52.2878 43.0548 52.5625C43.2054 52.8418 43.5528 52.9385 43.8215 52.7919L44.3207 52.5226V53.0899C44.3207 53.4027 44.5738 53.6559 44.8867 53.6559C45.1996 53.6559 45.4527 53.4027 45.4527 53.0899V51.9118L46.4892 51.3525C46.7645 51.2044 46.8673 50.8605 46.7186 50.5858C46.5705 50.3105 46.2255 50.2072 45.9519 50.3564Z" fill="black"/>
</svg>
