<svg width="93" height="92" viewBox="0 0 93 92" fill="none" xmlns="http://www.w3.org/2000/svg">
<rect x="0.5" width="92" height="92" rx="46" fill="white"/>
<path d="M28.6942 66.8373C28.8767 66.9433 37.1683 71.7637 37.3411 71.8625C37.3409 71.8624 37.3414 71.8626 37.3411 71.8625C37.3418 71.8629 37.343 71.8636 37.3436 71.864C41.6491 74.3264 46.856 73.0129 51.1666 70.5242C61.6507 64.4712 70.1389 49.859 70.1206 37.6935C70.104 31.7374 68.0377 27.2843 64.3021 25.1555C64.3006 25.1547 64.2991 25.1543 64.2977 25.1535L55.6573 20.132C51.9244 18.0038 47.0147 18.4797 41.8336 21.4708C41.8334 21.4709 41.8338 21.4706 41.8336 21.4708C36.7371 24.4225 31.9639 29.4531 28.3942 35.6358C28.394 35.6362 28.3944 35.6355 28.3942 35.6358C28.3937 35.6366 28.3931 35.6385 28.3926 35.6393C24.8209 41.8362 22.8636 48.464 22.8796 54.3026C22.8968 60.2687 24.9636 64.7213 28.6942 66.8373ZM32.6709 59.6432C33.4741 59.1794 40.3668 55.1996 40.1145 55.3454C40.2854 57.5729 41.1274 59.8373 42.896 61.1061L42.8558 61.1758L37.4348 70.5656C33.9201 68.248 32.7391 63.8691 32.6709 59.6432ZM37.7518 41.7218L42.8329 44.6172C41.1079 47.7624 40.1382 51.0822 40.0785 54.0587L32.6953 58.3216C32.8998 52.6098 34.8637 46.8772 37.7518 41.7218ZM50.1982 28.0127L50.2224 36.499C47.6692 38.0505 45.2711 40.5597 43.4021 43.633L38.3466 40.6948C41.3202 35.7026 45.3012 31.103 50.1982 28.0127ZM62.7871 25.6982C62.9347 25.7598 63.0786 25.8299 63.2226 25.8996C63.0454 26.2065 57.4967 35.8163 57.7645 35.3525C55.7401 34.458 53.3959 34.885 51.3529 35.8799L51.3453 33.2004L51.3286 27.3271C54.8257 25.3684 59.0525 24.1427 62.7871 25.6982ZM63.8964 55.3174L58.8037 52.4153C60.3371 49.6147 61.4945 46.1852 61.5587 42.9649L68.9708 38.6854C68.7768 43.9477 66.9957 49.7942 63.8964 55.3174ZM57.5384 52.343C55.7242 55.5099 53.1842 58.1941 50.5613 59.7126C46.3641 62.2366 42.2337 61.1624 41.3738 56.2497C44.0709 55.0519 47.3552 52.2667 49.8714 47.8927C52.3832 43.5461 53.1592 39.3736 52.8702 36.4746C56.9046 34.9981 60.1103 37.0168 60.399 41.9666C60.6021 45.5074 59.2965 49.312 57.5384 52.343ZM41.2079 54.3848C41.1997 51.3662 42.224 47.9223 44.0928 44.6872C44.0926 44.6874 44.0929 44.687 44.0928 44.6872C44.093 44.6867 44.0935 44.6856 44.0938 44.6851C45.9704 41.4444 48.4487 38.8257 51.0726 37.311C51.2998 37.1798 51.5237 37.0698 51.7477 36.958C51.9681 40.5039 50.6696 44.2493 48.8903 47.3272C47.1221 50.4018 44.4548 53.47 41.2514 55.0539C41.2379 54.8298 41.2091 54.6149 41.2079 54.3848ZM38.407 71.1461L43.8788 61.6683C45.8872 62.5605 48.2733 62.1249 50.292 61.1465C50.2929 61.4573 50.3176 70.1366 50.3164 69.705C45.834 72.2157 41.6413 72.7199 38.407 71.1461ZM51.4468 69.0334L51.4225 60.5296C54.1757 58.8568 56.5532 56.1746 58.238 53.3964L63.3296 56.2978C60.0866 61.7514 55.9082 66.226 51.4468 69.0334ZM68.9852 37.3696L61.525 41.6768C61.5214 41.629 61.5131 41.5849 61.509 41.5374C61.3242 39.4167 60.5804 37.3382 58.9032 36.0413C58.8502 36.0004 58.8026 35.9527 58.748 35.9137L64.2214 26.4341C67.2224 28.4186 68.9028 32.2669 68.9852 37.3696ZM55.0929 21.1131L59.8263 23.8643C59.7897 23.8623 59.7517 23.8647 59.715 23.863C59.6412 23.8596 59.5655 23.8627 59.4912 23.8605C56.4631 23.7786 53.3979 24.8571 50.7644 26.3323L43.2658 21.9743C47.7571 19.6206 51.9305 19.31 55.0929 21.1131ZM42.1183 22.6167L49.6503 26.9941C44.6509 30.1324 40.3305 35.1252 37.3575 40.12C37.2428 40.0542 29.1553 35.4202 29.6626 35.7109C33.0326 30.0365 37.4308 25.4113 42.1183 22.6167ZM29.0939 36.6957L36.7597 41.1511C33.8492 46.3411 31.7362 52.5478 31.5399 58.35L24.0128 53.9759C24.0675 48.5665 25.8629 42.4639 29.0939 36.6957ZM31.5272 59.6518C31.5747 62.7054 32.2141 65.9838 33.8593 68.5298L29.2575 65.8555C26.0962 64.0623 24.2604 60.335 24.0355 55.2982L31.5272 59.6518Z" fill="black"/>
</svg>
