<svg width="93" height="92" viewBox="0 0 93 92" fill="none" xmlns="http://www.w3.org/2000/svg">
<rect x="0.5" width="92" height="92" rx="46" fill="white"/>
<path d="M30.913 36.4543L51.4672 24.5913C51.7381 24.4349 51.8309 24.0888 51.6739 23.818C51.5192 23.5471 51.172 23.4542 50.9012 23.6107L30.3447 35.4748C28.8578 36.3427 27.7003 38.3553 27.7102 40.0556L27.7688 65.66C27.7688 66.5958 28.1137 67.3072 28.735 67.6605C30.0805 68.4426 32.4238 69.8047 32.2728 69.7179C32.9828 70.1261 33.812 69.9588 34.5181 69.5509L42.0173 65.2211L41.8799 67.8086C41.8689 68.0176 41.9739 68.2154 42.153 68.3232C44.13 69.516 48.084 71.9014 50.061 73.0942C50.2617 73.2144 50.5137 73.1639 50.627 73.1019C50.7405 73.0399 60.0597 67.6845 59.9456 67.687C60.1148 67.5892 60.2209 67.4117 60.2275 67.2166C60.2372 66.9245 60.3204 64.3596 60.3204 64.4981C60.3204 64.355 60.1838 64.0918 60.0429 64.0077C59.9291 63.9398 54.6563 60.8929 54.7706 60.9636L55.0823 57.6779L62.6476 53.31C64.1334 52.4521 65.2931 50.4416 65.2898 48.733L65.2334 23.1347C65.2313 22.2196 64.8944 21.5207 64.2917 21.151C64.2807 21.1436 64.2744 21.1322 64.2628 21.1254L60.7306 19.0708C60.0904 18.7026 59.2922 18.764 58.4786 19.2377L55.2017 21.1287C54.9309 21.2852 54.838 21.6312 54.995 21.9021C55.1498 22.1724 55.4958 22.2652 55.7678 22.1093L59.0468 20.2172C59.4957 19.9541 59.8937 19.8961 60.1634 20.0503L62.1512 21.2067C62.1036 21.2304 62.0572 21.2564 62.0097 21.283L33.878 37.5272C32.3741 38.3948 31.2325 40.4278 31.238 42.1108L31.2662 54.9079C31.2751 59.1374 31.2885 67.614 31.2944 67.8401L29.2989 66.6793C29.0457 66.5356 28.9009 66.1636 28.9009 65.6589L28.8423 40.0512C28.8345 38.7605 29.7842 37.1127 30.913 36.4543ZM43.1867 64.5522L44.5708 63.7507L44.2922 66.629C44.2764 66.7938 44.3766 67.0606 44.5742 67.1746L49.8652 70.2165L49.8182 71.6191L43.0286 67.5289L43.1867 64.5522ZM50.9575 71.6019L51.0034 70.2323C51.1176 70.166 59.6943 65.188 59.1516 65.5029L59.1065 66.8656L50.9575 71.6019ZM58.6201 64.4972C58.5059 64.5635 49.8989 69.5629 50.4468 69.2447L45.9841 66.6793L54.1673 61.923L58.6201 64.4972ZM53.6368 60.9227L45.5257 65.637L45.7766 63.0538C45.8898 62.9884 54.4227 58.0585 53.8794 58.3724L53.6368 60.9227ZM62.0815 52.3293C50.9329 58.7662 43.0812 63.2995 33.9521 68.5703C32.9791 69.1327 32.4286 68.7044 32.4265 67.7063L32.3983 54.93L32.3734 42.1042C32.3658 40.856 33.2928 39.1744 34.4463 38.5084L62.5757 22.2674C63.4791 21.7455 64.099 22.0503 64.1014 23.1375L64.1577 48.7352C64.1611 50.032 63.2103 51.6776 62.0815 52.3293Z" fill="black"/>
<path d="M62.0064 25.0208C61.8317 24.9202 61.6161 24.9202 61.4414 25.0208L34.464 40.5962C34.2882 40.6979 34.181 40.8853 34.181 41.0882L34.2374 63.3361C34.2374 63.7676 34.7091 64.0421 35.0864 63.8248L62.0628 48.2499C62.2385 48.1482 62.3458 47.9608 62.3458 47.7579L62.2905 25.5094C62.2905 25.3077 62.1821 25.1214 62.0064 25.0208ZM35.3672 62.3555L35.3142 41.4127L61.1606 26.4901L61.2126 47.4335L35.3672 62.3555Z" fill="black"/>
<path d="M57.8606 52.1292L56.2443 53.0623C55.9734 53.2188 55.8806 53.5648 56.0376 53.8357C56.1915 54.1043 56.5371 54.1998 56.8103 54.0429L58.4266 53.1099C58.6975 52.9534 58.7904 52.6074 58.6334 52.3365C58.4786 52.0651 58.1303 51.9728 57.8606 52.1292Z" fill="black"/>
<path d="M61.0854 50.2675L59.4691 51.2C59.1983 51.3565 59.1054 51.7025 59.2624 51.9734C59.4172 52.2434 59.763 52.3369 60.0352 52.1807L61.6515 51.2481C61.9223 51.0917 62.0152 50.7457 61.8582 50.4748C61.7023 50.2039 61.3563 50.1111 61.0854 50.2675Z" fill="black"/>
<path d="M49.5225 49.6219L47.6232 50.7184L47.6221 50.2581C47.621 49.9458 47.3678 49.6932 47.0561 49.6932C46.7432 49.6937 46.4889 49.948 46.49 50.2603L46.4927 51.3712L37.6302 56.4879C37.3594 56.6443 37.2665 56.9903 37.4235 57.2612C37.5776 57.5308 37.9238 57.6249 38.1963 57.4685L46.4957 52.6768L46.4978 53.546C46.4989 53.8583 46.752 54.1109 47.0638 54.1109C47.3767 54.1104 47.631 53.8561 47.6298 53.5438L47.6263 52.0241L50.0886 50.6025C50.3594 50.4461 50.4523 50.1 50.2953 49.8292C50.1394 49.5572 49.7923 49.466 49.5225 49.6219Z" fill="black"/>
<path d="M37.6977 52.635C37.8723 52.7356 38.0879 52.7351 38.2626 52.6345L49.3335 46.2428C49.5093 46.1411 49.6177 45.9537 49.6165 45.7508L49.59 36.441C49.5889 36.2393 49.4817 36.053 49.3059 35.9518C49.1312 35.8512 48.9156 35.8518 48.741 35.9524L37.6701 42.3441C37.4943 42.4458 37.3859 42.6332 37.387 42.8361L37.4136 52.1458C37.4147 52.3476 37.5219 52.5339 37.6977 52.635ZM48.4613 37.4217L48.4834 45.4263L38.5423 51.1652L38.5202 43.1605L48.4613 37.4217Z" fill="black"/>
<path d="M42.0413 47.9459C42.2127 47.9459 42.3796 47.8679 42.488 47.727L45.6288 43.6823C45.7538 43.522 45.7825 43.3081 45.7062 43.1202C45.6288 42.9328 45.4575 42.8007 45.2563 42.7741L42.1021 42.3562C41.7755 42.3101 41.462 42.5662 41.462 42.919L41.4753 47.3815C41.4767 47.6954 41.732 47.9459 42.0413 47.9459ZM44.1308 43.7669L42.603 45.7342L42.5963 43.5635L44.1308 43.7669Z" fill="black"/>
<path d="M58.8931 43.5303L56.5007 42.1755L57.0425 41.2358C57.1563 41.0395 57.142 40.7947 57.006 40.6134C56.87 40.4326 56.6434 40.3513 56.4178 40.4028L52.0841 41.463C51.7695 41.5405 51.5843 41.8667 51.6762 42.1744L52.9431 46.4258C53.0083 46.6424 53.1952 46.8 53.4196 46.8265C53.644 46.8541 53.8629 46.743 53.9768 46.5474L54.5218 45.6016L56.9153 46.9702C57.1835 47.1244 57.5308 47.0323 57.6859 46.7618L59.1043 44.3059C59.2623 44.0356 59.1673 43.6847 58.8931 43.5303ZM56.9883 45.7077L54.5937 44.339C54.3271 44.1858 53.9799 44.2748 53.822 44.5474L53.6529 44.8421L52.9309 42.4215L55.3996 41.8179L55.2349 42.1036C55.0768 42.3739 55.1719 42.7248 55.4461 42.8792L57.8384 44.234L56.9883 45.7077Z" fill="black"/>
<path d="M52.9763 23.7207L54.4179 22.8882C54.6888 22.7318 54.7816 22.3857 54.6246 22.1149C54.4688 21.8429 54.1216 21.7506 53.8519 21.9076L52.4102 22.7401C52.1394 22.8965 52.0465 23.2425 52.2035 23.5134C52.3576 23.7831 52.7039 23.8771 52.9763 23.7207Z" fill="black"/>
</svg>
