<svg width="93" height="92" viewBox="0 0 93 92" fill="none" xmlns="http://www.w3.org/2000/svg">
<rect x="0.5" width="92" height="92" rx="46" fill="white"/>
<path d="M73.6725 33.6033C73.672 33.401 73.5642 33.2147 73.3895 33.1136L54.1664 22.0194C53.9895 21.9177 53.7733 21.9172 53.5987 22.0205L51.9385 22.986L50.6905 22.2687C50.4029 22.1051 50.0608 22.2328 49.92 22.4788C49.8551 22.5921 48.9694 24.3349 49.0359 24.2215L46.4204 22.7016C46.2451 22.5982 46.0285 22.5993 45.8532 22.7005L42.8882 24.4121L38.7717 22.0205C38.592 21.915 38.3676 21.9183 38.1891 22.0288L19.6005 33.5646C19.4319 33.6696 19.3302 33.8548 19.3329 34.0538C19.3357 34.2523 19.4429 34.4352 19.6148 34.5347L26.4769 38.5084L19.6088 42.4996C19.4346 42.6008 19.3268 42.7876 19.3274 42.9894C19.3279 43.1917 19.4357 43.378 19.6104 43.4791L26.9956 47.7424L26.9628 58.7561C26.9623 58.9595 27.0701 59.1474 27.2458 59.248L38.6573 65.8371C38.9254 65.9936 39.2732 65.902 39.4306 65.6303C39.587 65.3595 39.4941 65.0134 39.2233 64.8576L28.096 58.4321L28.1257 48.3948L38.2051 54.2134C38.3826 54.3167 38.5999 54.3134 38.7728 54.2134L45.6165 50.2359C45.5998 56.2372 45.5768 64.528 45.5657 68.5136L43.7732 67.4832C43.5023 67.3262 43.1557 67.4202 43.0004 67.6922C42.8445 67.963 42.9379 68.3091 43.2093 68.4649L45.8471 69.9817C46.0225 70.0816 46.2344 70.0823 46.4121 69.9817C46.4125 69.9815 46.4126 69.981 46.413 69.9808C46.4128 69.981 46.4132 69.9807 46.413 69.9808L65.6247 58.8069C65.7983 58.7052 65.9056 58.5195 65.9061 58.3194L65.9394 47.3698L73.3834 43.043C73.5576 42.9418 73.6648 42.7555 73.6648 42.5538C73.6648 42.352 73.5576 42.1657 73.3834 42.0646L66.5269 38.0801L73.3906 34.0931C73.5653 33.9919 73.6731 33.8051 73.6725 33.6033ZM38.9037 34.9299L34.8044 42.0237L30.8066 39.7088L34.9017 32.6017C35.2242 32.7893 39.1553 35.0762 38.9037 34.9299ZM54.2062 43.9274L46.1843 48.595L41.1608 45.6941C42.314 41.9553 44.9935 38.365 47.9283 36.664C51.7737 34.4483 54.6884 36.156 54.6987 40.5677C54.6987 41.6262 54.5328 42.7555 54.2062 43.9274ZM64.2776 38.078L62.8355 38.9165C62.8351 38.8026 62.8299 37.1311 62.8302 37.2451L64.2776 38.078ZM39.7761 30.1385L39.6272 28.3658L43.4036 30.5598L43.5532 32.333L39.7761 30.1385ZM39.3215 31.1829L43.2708 33.4774C41.3267 35.4105 41.9409 34.8971 41.4576 35.4181C41.3436 35.3274 39.9152 34.192 40.0292 34.2827C40.0235 34.2781 40.0159 34.2775 40.01 34.2732L39.964 34.2368C39.8504 34.1707 37.5034 32.806 37.6526 32.8927C38.1817 32.2885 38.7436 31.7211 39.3215 31.1829ZM59.3046 31.3746L61.187 32.4674L59.6852 33.4944C59.4746 32.9328 59.222 32.416 58.9307 31.9489L59.3046 31.3746ZM57.7793 31.6421C57.6532 31.8355 57.6571 32.0865 57.7898 32.2756C58.2325 32.9085 58.5869 33.6719 58.8422 34.5441C58.9504 34.9105 59.3848 35.0703 59.7051 34.852L61.6868 33.4972C61.6966 36.76 61.7055 39.7172 61.705 39.5732L55.5504 43.1508C55.7315 42.2616 55.8307 41.3951 55.8307 40.5666C55.8182 35.2859 51.9725 33.0261 47.3623 35.6839C44.2085 37.5111 41.4549 41.1665 40.1736 45.124L35.7851 42.5897C35.8538 42.4707 40.0896 35.1406 39.8369 35.5779L41.1795 36.6502C41.3805 36.8121 41.6695 36.8073 41.8766 36.6446C42.2001 36.399 43.019 35.1837 44.5841 33.794C44.586 33.7923 44.5865 33.7895 44.5884 33.7878C44.72 33.6721 44.792 33.4587 44.7797 33.3175L44.5389 30.5301C44.6537 30.4639 50.8569 26.8863 50.4683 27.1105C50.4368 27.5472 50.2906 29.6142 50.2981 29.4982C50.2733 29.8859 50.6689 30.1634 50.994 30.0822C51.3772 29.9854 52.6591 29.775 53.4986 29.8439C53.738 29.8622 53.9447 29.7411 54.0481 29.5366L55.6246 26.4416L59.6697 28.7389C59.4883 29.0176 57.6916 31.7767 57.7793 31.6421ZM50.6458 23.5523C50.759 23.6181 54.9065 26.0275 54.6429 25.8743L53.204 28.6903C52.9597 28.6831 52.0202 28.7332 51.4793 28.8241C51.4844 28.7534 51.6721 26.1529 51.6772 26.0823C51.6776 25.9684 51.6023 25.7359 51.4171 25.6143C51.3036 25.5398 49.9025 24.7151 50.0165 24.7913L50.6458 23.5523ZM46.1351 23.8447C46.2509 23.9119 50.1051 26.1517 49.9819 26.0801C49.8671 26.1464 43.5589 29.788 43.9474 29.5637L40.1057 27.3315C41.2483 26.6708 46.4414 23.6676 46.1351 23.8447ZM38.497 23.1698L41.7582 25.0645C37.6913 27.4123 38.939 26.6922 38.6683 26.8484C38.4179 27.0069 38.4278 27.2609 38.4074 27.3741L38.6495 30.2502C37.9537 30.8907 37.2944 31.5897 36.6668 32.3192L34.9797 31.3375C34.8487 31.2618 34.6933 31.2397 34.5491 31.28C34.4037 31.3187 34.2799 31.4138 34.2047 31.5442L29.8268 39.1415L20.9984 34.0295L38.497 23.1698ZM38.487 53.0691L21.0227 42.9872L27.5846 39.1739C46.1008 49.8545 9.47194 28.711 45.055 49.2517L38.487 53.0691ZM64.7751 57.991L46.6979 68.5047C46.7106 63.9185 46.7447 51.6826 46.7487 50.2338L53.5959 54.2134C53.7721 54.3147 53.9877 54.3155 54.1653 54.2134L64.8055 48.0288L64.7751 57.991ZM53.8833 53.0669L47.3127 49.2496L65.4025 38.7358L71.9722 42.5538C71.346 42.9177 75.7769 40.3425 53.8833 53.0669ZM65.407 37.4219L62.8262 35.9366C62.8188 34.5757 62.8238 32.646 62.8061 32.3911C62.793 32.213 62.6944 32.0333 62.5359 31.9411C62.2253 31.7608 59.7712 30.3361 59.9233 30.4244C60.029 30.2611 59.54 31.0156 60.9566 28.8273C60.9576 28.8256 60.9595 28.8252 60.9605 28.8235C61.1043 28.5746 61.0367 28.2163 60.7543 28.0524L53.0712 23.6369L53.8844 23.1637L71.9766 33.6055L65.407 37.4219Z" fill="black"/>
<path d="M41.6914 67.5838C41.9596 67.7404 42.3073 67.6488 42.4647 67.3771C42.6212 67.1062 42.5283 66.7602 42.2574 66.6043L40.8153 65.7718C40.545 65.6137 40.1984 65.7077 40.0419 65.9786C39.8855 66.2494 39.9784 66.5955 40.2492 66.7513L41.6914 67.5838Z" fill="black"/>
</svg>
