<svg width="93" height="92" viewBox="0 0 93 92" fill="none" xmlns="http://www.w3.org/2000/svg">
<rect x="0.5" width="92" height="92" rx="46" fill="white"/>
<path d="M30.8051 36.3182L31.8819 34.452C32.0384 34.1811 31.9455 33.8351 31.6746 33.6787C31.4043 33.5217 31.0578 33.6151 30.9013 33.886L29.8245 35.7521C29.6681 36.023 29.761 36.369 30.0318 36.5255C30.2997 36.6802 30.6469 36.5912 30.8051 36.3182Z" fill="black"/>
<path d="M69.0276 42.2676L68.9977 31.7484C68.9972 31.6003 68.8892 31.3617 68.7125 31.2592C67.0352 30.2851 65.111 29.1677 65.2319 29.2379C65.3057 29.1239 66.7091 26.9477 66.6429 27.0626C66.7934 26.8013 66.7099 26.4502 66.4368 26.2914C65.1224 25.536 71.1982 29.0279 53.5821 18.9037C53.2948 18.7398 52.9519 18.8706 52.8115 19.1137C52.7461 19.227 51.5433 21.5944 51.6113 21.4811L48.1268 19.4559C47.9504 19.3531 47.7343 19.3542 47.5591 19.4548C46.1913 20.2443 39.7416 23.9682 38.3858 24.7503C38.2401 24.8427 38.1219 25.1211 38.1216 25.2296C38.1213 25.3436 38.4358 29.141 38.4411 29.0271C37.5053 29.8838 36.618 30.8222 35.7786 31.806L33.5176 30.4903C33.3877 30.4151 33.2329 30.3947 33.087 30.4323C32.9416 30.4709 32.8172 30.566 32.742 30.6965L32.108 31.7954C31.9516 32.0662 32.0444 32.4123 32.3153 32.5687C32.5839 32.7229 32.9316 32.6317 33.0886 32.3614L33.4385 31.755C34.3872 32.307 38.9365 34.9537 38.8157 34.8834C38.2145 35.9238 40.9934 31.1148 32.9363 45.0577C32.8217 44.9912 27.4485 41.8694 27.5631 41.936L29.6161 38.3783C29.7725 38.1075 29.6797 37.7614 29.4088 37.605C29.1385 37.448 28.7919 37.5414 28.6355 37.8123L26.3006 41.8586C26.1447 42.1289 26.237 42.4744 26.5068 42.6308L28.7809 43.9523C28.3559 45.1686 27.9929 46.3886 27.724 47.5897L24.2968 49.2033C24.1066 49.2928 23.9817 49.4802 23.9723 49.6902C23.9718 49.7023 23.98 49.7122 23.9802 49.7242L23.9795 49.7267L24.0094 60.246C24.0099 60.4472 24.1171 60.6329 24.2913 60.7335L27.7702 62.755L26.3841 64.8942C26.2995 65.0241 26.2724 65.1833 26.3083 65.3337C26.3443 65.4846 26.4404 65.6139 26.5748 65.6913C27.8877 66.4483 21.8184 62.9491 39.4156 73.0946C39.6983 73.2559 40.0555 73.1458 40.2006 72.8602L41.3932 70.5212L44.8809 72.5407C45.0395 72.6331 45.2557 72.6426 45.4292 72.5512C45.5439 72.4908 54.7163 67.257 54.6025 67.254C54.7926 67.144 54.9026 66.9339 54.8833 66.7145L54.5588 62.9728C55.5903 62.0204 56.5676 60.9889 57.4714 59.8983L59.4105 61.4576C59.6772 61.6708 60.0786 61.6053 60.2557 61.2995L66.7076 50.1242C66.8807 49.8241 66.7456 49.4354 66.4174 49.3116L64.1007 48.4371C64.58 47.1226 64.978 45.7661 65.2853 44.3925L68.7031 42.7812C68.9016 42.6877 69.0281 42.4876 69.0276 42.2676ZM67.3694 31.7888L65.0703 33.3536C64.7773 32.5306 64.4191 31.7876 64.0001 31.1354L64.6145 30.189L67.3694 31.7888ZM39.5676 28.9149L39.3445 26.2666L44.5009 29.2634L44.724 31.9113L39.5676 28.9149ZM53.5378 20.1883C53.6524 20.2549 59.2511 23.5072 58.9108 23.3096C58.8507 23.4277 56.8423 27.372 56.965 27.1311C56.1764 27.0957 55.3502 27.1662 54.4927 27.331C54.5204 26.9535 54.3913 28.6984 54.7633 23.6392C54.7639 23.426 54.6114 23.2302 54.498 23.1594C54.3839 23.0883 52.4782 21.979 52.5918 22.0509L53.5378 20.1883ZM47.841 20.599C48.1953 20.8049 53.2263 23.7291 53.0679 23.637L45.0462 28.2681L39.8187 25.2307L47.841 20.599ZM39.1142 29.9601L44.4403 33.055C43.504 33.9543 43.0058 34.4357 41.8838 35.7792C41.7696 35.6888 39.7523 34.0915 39.8794 34.1922L36.7624 32.3784C37.5045 31.5201 38.296 30.7158 39.1142 29.9601ZM32.8576 46.3211C32.8654 46.3257 32.8752 46.3238 32.8832 46.328L32.9084 46.3427C32.9214 46.3488 32.9303 46.3607 32.9438 46.3659L35.2627 47.2492C35.1546 47.5449 35.0668 47.8478 34.9674 48.1468C34.6725 49.0266 34.4126 49.9138 34.1979 50.8073L28.8675 47.7086C29.1082 46.6568 29.4031 45.5918 29.7681 44.5259L32.8576 46.3211ZM28.1878 48.6229L33.3519 51.6248L30.9269 52.7775L25.7545 49.7682L28.1878 48.6229ZM25.1143 50.7101L30.3362 53.7447L30.3623 62.9489C27.3732 61.2187 28.1218 61.6487 25.1403 59.9182L25.1143 50.7101ZM28.7501 63.3243C28.8893 63.4052 30.5382 64.3631 30.6675 64.4382C30.7811 64.4976 31.0282 64.5347 31.2142 64.4277C31.3593 64.3442 34.1567 62.4217 34.2932 62.3281C34.5873 63.1558 34.9445 63.8999 35.3611 64.5501L33.0289 68.1329L27.6571 65.0114L28.7501 63.3243ZM42.3918 68.5628C43.1255 68.5923 43.9081 68.5251 44.7359 68.377C44.7789 68.3691 44.8195 68.3678 44.8626 68.3596L44.6648 71.1074L41.9082 69.5113L42.3918 68.5628ZM64.5507 43.4876C64.3915 43.5628 64.276 43.7082 64.2389 43.8806C63.8957 45.477 63.4264 47.0524 62.8443 48.5637C62.73 48.8569 62.8802 49.1868 63.1721 49.2967L65.3937 50.1352L59.6056 60.1614L57.7422 58.6634C57.625 58.5689 57.4763 58.5285 57.3254 58.5418C57.1756 58.5584 57.0391 58.6335 56.9451 58.7513C55.9214 60.0315 54.7932 61.2338 53.5904 62.3238C53.4593 62.4427 53.3914 62.6162 53.4068 62.7926L53.7241 66.4536L45.8068 71.0256L46.0467 67.6846C46.0744 67.3063 45.7253 67.002 45.3458 67.0948C44.3061 67.3529 43.1866 67.4987 42.1021 67.4104C41.8647 67.3926 41.6429 67.5305 41.5471 67.7183C41.4884 67.8337 39.3864 71.9658 39.4621 71.8171L34.0123 68.7039L36.5147 64.8555C36.6502 64.6479 36.5828 64.334 36.5031 64.2204C35.9442 63.4238 35.4876 62.4316 35.1449 61.2719C35.0274 60.875 34.5625 60.7715 34.2787 60.9646C34.1633 61.0434 31.3132 62.9907 31.4944 62.8669L31.4684 53.7763C31.5821 53.7226 35.0243 52.0957 34.8099 52.1971C34.9233 52.1433 35.0872 51.9675 35.1239 51.7974C35.3722 50.6438 35.7111 49.5033 36.0913 48.377C36.2334 47.9588 36.3617 47.5365 36.5219 47.1243C36.6366 46.83 36.488 46.5012 36.1963 46.3902C36.0788 46.3456 33.8302 45.4921 33.9681 45.5445C41.9072 31.8298 39.169 36.56 39.7613 35.5367L41.6146 37.0119C41.8776 37.2208 42.2517 37.1223 42.4083 36.9323C42.7549 36.536 43.8281 35.1231 45.7642 33.3686C45.8412 33.2984 45.9617 33.068 45.9477 32.9015L45.6371 29.2344C45.76 29.1634 53.7629 24.5432 53.5544 24.6635C53.2526 28.9039 53.3146 27.7319 53.3146 28.0474C53.3141 28.3968 53.5978 28.6131 53.8695 28.6131C54.1616 28.6131 55.4431 28.141 57.2503 28.2908C57.4824 28.3185 57.6985 28.1897 57.803 27.9835C57.861 27.8698 60.0378 23.6057 59.8991 23.8773C60.0617 23.9697 65.4657 27.0414 65.3505 26.9759C64.4722 28.3288 62.7677 30.9546 62.8471 30.8325C62.721 31.027 62.726 31.278 62.8592 31.467C63.4269 32.2713 63.8852 33.2602 64.2212 34.4056C64.3302 34.7745 64.7671 34.9308 65.083 34.714L67.8684 32.818L67.8944 41.9111L64.5507 43.4876Z" fill="black"/>
<path d="M49.4938 36.0379C43.929 39.2512 39.4168 47.0403 39.435 53.4016C39.4533 60.0019 44.2805 62.8098 50.1234 59.4362C55.6295 56.2572 60.0943 48.4957 60.076 42.1344C60.0577 35.4929 55.2507 32.7162 49.4938 36.0379ZM49.5573 58.4555C44.4941 61.3784 40.5831 59.1464 40.5671 53.3982C40.5499 47.3985 44.8085 40.051 50.0598 37.0185C55.0729 34.1228 58.928 36.3923 58.9439 42.1377C58.9611 48.1375 54.7501 55.4579 49.5573 58.4555Z" fill="black"/>
<path d="M49.502 51.4934C48.4523 52.0992 47.6326 53.5198 47.6359 54.7271C47.6393 56.1656 48.8139 56.8586 50.078 56.13C51.1277 55.5242 51.9475 54.1008 51.9442 52.8902C51.9407 51.4502 50.7603 50.7691 49.502 51.4934ZM49.512 55.1494C49.0249 55.4324 48.7692 55.3041 48.7679 54.7238C48.7657 53.9123 49.3611 52.882 50.0681 52.474C50.5337 52.2052 50.8108 52.2935 50.8121 52.8936C50.8143 53.7083 50.219 54.7415 49.512 55.1494Z" fill="black"/>
<path d="M51.7613 39.1528L47.1838 41.7956C46.9903 41.9078 46.8803 42.1228 46.9041 42.3456L47.7609 50.452C47.7808 50.6421 47.8958 50.8096 48.0666 50.8969C48.2387 50.9836 48.4407 50.9781 48.6066 50.8826L51.5192 49.201C51.6789 49.1087 51.7834 48.9446 51.8 48.761L52.6081 39.6934C52.6269 39.4828 52.5269 39.2794 52.3489 39.166C52.1709 39.0527 51.9454 39.0483 51.7613 39.1528ZM50.6983 48.3675L48.7951 49.4664L48.0682 42.5921L51.3837 40.6779L50.6983 48.3675Z" fill="black"/>
</svg>
