<svg width="93" height="92" viewBox="0 0 93 92" fill="none" xmlns="http://www.w3.org/2000/svg">
<rect x="0.5" width="92" height="92" rx="46" fill="white"/>
<path d="M35.6732 70.3943L33.7938 70.6032C33.4831 70.6375 33.2592 70.9183 33.2935 71.229C33.3271 71.5314 33.599 71.7623 33.9187 71.7287L35.7981 71.5197C36.1088 71.4855 36.3326 71.2047 36.2984 70.894C36.2641 70.5844 35.9833 70.3655 35.6732 70.3943Z" fill="black"/>
<path d="M66.9766 58.4633C66.8589 58.116 66.4561 57.9782 66.1558 58.1537L63.2018 59.8673L58.2578 57.0095C59.1179 55.8122 59.4573 54.501 59.24 53.181C58.9432 51.3723 57.5845 49.6853 55.4149 48.4283C54.2824 47.7722 52.9664 47.2659 51.5133 46.903L52.1839 44.3908C56.0506 40.3081 58.5336 34.5681 58.5198 29.728C58.5105 26.4762 57.3825 24.0285 55.3469 22.8159C55.3302 22.8035 55.3195 22.786 55.301 22.7753C54.0981 22.0782 49.5519 19.4438 49.8065 19.5913C47.7126 18.3697 44.9647 18.6206 42.0699 20.2933C42.0654 20.2955 42.0605 20.2988 42.0555 20.3022C39.6438 21.7935 37.7118 23.632 35.9745 26.0875C33.3162 29.8563 31.7364 34.3757 31.7485 38.1777C31.7518 39.2628 31.8909 40.2485 32.1355 41.1386L23.7886 40.2163C23.486 40.1838 23.1635 40.4353 23.1623 40.7801L23.1469 46.3023C23.1469 46.3642 23.1568 46.4261 23.1767 46.4847L26.0262 54.9255C26.1193 55.201 26.5295 55.428 26.8532 55.2373L29.7961 53.5237C32.5134 55.3814 32.991 54.7174 34.9214 57.1941L31.1399 59.393L28.1632 57.6883C28.0162 57.6043 27.8377 57.5899 27.6785 57.6507C27.5193 57.7126 27.3966 57.8419 27.3435 58.0034C24.7894 65.8651 24.5655 66.4627 24.5653 66.6133L24.5498 72.1355C24.5486 72.4648 24.833 72.7357 25.1783 72.6993L32.0238 71.9387C32.3345 71.9044 32.5583 71.6236 32.5241 71.313C32.4898 71.0034 32.2023 70.7845 31.8989 70.8133L25.6835 71.5042L25.6957 67.1208L39.1335 65.6283L39.1208 70.0118L37.3453 70.2085C37.0347 70.2428 36.8108 70.5236 36.8451 70.8343C36.8799 71.1449 37.1657 71.3716 37.4703 71.334L39.7477 71.0808C40.034 71.0488 40.2501 70.8078 40.2512 70.5192L40.2613 67.0761L41.3325 66.4508C44.7381 67.3441 48.7048 67.3153 52.0457 66.3745L54.1342 67.5742L54.1247 70.9824C54.1242 71.271 54.3408 71.5142 54.6283 71.5463L69.2087 73.1692C69.5499 73.2051 69.8361 72.9402 69.8372 72.6076L69.8533 67.0854C69.8536 67.0032 69.8325 66.927 69.8008 66.8561L66.9766 58.4633ZM43.6805 49.0519C43.7095 49.0506 43.7363 49.0557 43.7656 49.0539L46.8086 56.8012L42.9112 54.5297L40.4635 48.3082C41.4489 48.8778 42.5659 49.1026 43.6805 49.0519ZM57.3877 29.7302C57.401 34.3359 54.9981 39.8238 51.2658 43.712C51.1994 43.7817 51.1519 43.8657 51.1276 43.9586C47.4043 57.8896 47.9185 55.9657 47.8306 56.2946C47.5064 55.4705 49.004 59.2804 44.6604 48.2344C44.5818 48.0534 44.415 47.9168 44.1803 47.8979C43.979 47.8833 43.6712 47.9476 43.0818 47.9137C43.0752 47.9133 43.0687 47.9132 43.062 47.9129C39.7861 47.7171 38.378 44.7254 38.3685 41.3627C38.3508 35.1584 42.726 27.5777 48.1222 24.4623C53.3155 21.4657 57.3705 23.7748 57.3877 29.7302ZM36.8992 26.7408C38.5437 24.4159 40.369 22.678 42.6442 21.2684C45.1676 19.8124 47.5086 19.5625 49.2377 20.5697L51.7782 22.0423C51.7626 22.0436 51.7461 22.0481 51.7305 22.0495C50.5727 22.1536 49.0572 22.6156 47.5561 23.4784C41.8449 26.7806 37.2143 34.8024 37.2342 41.3627C37.2382 42.7394 37.4766 44.3223 38.0733 45.608L36.894 44.9212C35.6386 44.1181 34.3844 43.813 33.4965 41.6482C33.1008 40.6758 32.8845 39.5096 32.8806 38.1732C32.8695 34.5979 34.372 30.3239 36.8992 26.7408ZM24.285 44.2003L26.0124 49.3139L26.0063 51.327L24.2789 46.2116L24.285 44.2003ZM33.7523 54.4988L30.078 52.3795C29.8959 52.2741 29.6786 52.2811 29.5104 52.3806L27.1368 53.7625L27.145 49.5504L29.8072 47.9993L34.7609 50.8575C33.9207 52.028 33.6128 53.387 33.7523 54.4988ZM28.2042 59.016L30.8608 60.5373C31.0366 60.6368 31.2521 60.6379 31.4268 60.5362L36.0795 57.8309C36.2287 57.7436 36.3304 57.5932 36.3553 57.4218C36.3796 57.2494 36.3244 57.0769 36.205 56.9509C34.4076 55.0596 34.4586 52.8642 36.0386 51.0694C36.2688 50.8073 36.2081 50.3848 35.8965 50.206L30.0891 46.8551C29.9122 46.7523 29.6961 46.7523 29.5214 46.8562L26.8941 48.3862C26.8416 48.2309 24.3965 40.9908 24.5479 41.4391L32.5485 42.3232C33.0945 43.5435 33.9077 44.4958 34.969 45.1094C35.0824 45.1757 39.1483 47.55 38.8892 47.3987L41.9295 55.1267C41.9759 55.2461 42.061 55.3445 42.171 55.4087C42.4366 55.5634 47.4421 58.4802 47.6501 58.6015C47.9883 58.7989 48.3934 58.5919 48.4826 58.2565L51.2241 47.9865C52.584 48.3237 53.8006 48.801 54.8472 49.4078C56.7183 50.4912 57.8819 51.8963 58.1229 53.3645C58.3158 54.5386 57.9211 55.7259 56.9803 56.7972C56.8687 56.9255 56.82 57.0957 56.8477 57.2626C56.8747 57.4296 56.9759 57.5766 57.1229 57.6606L62.9193 61.0115C63.094 61.1133 63.3107 61.1133 63.4864 61.0115L66.1243 59.4804L68.4603 66.4226C67.2348 66.2858 72.8996 66.9178 56.4751 65.0855L58.2229 64.0673C58.3976 63.9655 58.5049 63.7787 58.5043 63.5775C58.5038 63.3752 58.3954 63.1884 58.2207 63.0877L52.4128 59.7479C52.3345 59.7031 52.1137 59.654 51.9694 59.6959C48.7037 60.6677 44.758 60.6976 41.4137 59.7722C41.2704 59.734 41.0674 59.7775 40.9787 59.8286L36.1674 62.6245C35.9927 62.7262 35.8855 62.9131 35.8855 63.1154C35.8855 63.3166 35.9933 63.5034 36.1679 63.604L37.9263 64.6211L25.9411 65.9533L28.2042 59.016ZM52.4012 65.2734C52.2668 65.1971 52.1065 65.1783 51.9584 65.2214C48.6871 66.191 44.7409 66.2198 41.4021 65.2966C41.2545 65.2579 41.097 65.2778 40.966 65.3541L40.2667 65.7621C40.2668 65.6481 40.2674 64.883 40.2673 64.997C40.2673 64.9961 40.2667 64.9953 40.2667 64.9944C40.2667 64.9934 40.266 64.992 40.266 64.9911C40.2644 64.7864 40.1277 64.587 39.9848 64.5039L37.5886 63.1132L41.3435 60.9264C44.8437 61.8432 48.8593 61.752 52.0568 60.8501L56.7955 63.5895L54.4271 64.9694C54.4154 64.9762 54.4124 64.9905 54.4014 64.9981C54.3803 65.0119 54.355 65.0179 54.3359 65.0346C54.3355 65.035 54.3354 65.0354 54.335 65.0358C54.3333 65.0372 54.3309 65.0375 54.3292 65.039C54.2093 65.1463 54.1407 65.2988 54.1402 65.4602L54.1379 66.2712L52.4012 65.2734ZM55.2584 70.4772L55.2679 67.0569L55.2739 66.0941C73.6998 68.1517 67.3447 67.442 68.7195 67.5955L68.7068 71.9741L55.2584 70.4772Z" fill="black"/>
<path d="M47.5981 28.5528C44.3003 30.4577 41.6254 35.0799 41.6359 38.8565C41.6473 42.8457 44.6444 44.6323 48.2012 42.5766C51.4752 40.6861 54.1307 36.076 54.1202 32.2995C54.1088 28.2664 51.0922 26.533 47.5981 28.5528ZM47.6351 41.5971C44.8734 43.1915 42.7772 42.0059 42.768 38.8532C42.7586 35.4381 45.1792 31.257 48.1641 29.5323C50.8838 27.963 52.9789 29.1262 52.9882 32.3017C52.9976 35.6592 50.546 39.9156 47.6351 41.5971Z" fill="black"/>
</svg>
