<svg width="93" height="92" viewBox="0 0 93 92" fill="none" xmlns="http://www.w3.org/2000/svg">
<rect x="0.5" width="92" height="92" rx="46" fill="white"/>
<path d="M35.407 40.0602L42.9606 35.6706C43.2303 35.5137 43.3227 35.1671 43.1651 34.8968C43.0081 34.6259 42.6588 34.5347 42.3918 34.6922L34.8376 39.0818C34.5679 39.2388 34.4756 39.5854 34.6331 39.8557C34.7899 40.1256 35.136 40.2174 35.407 40.0602Z" fill="black"/>
<path d="M35.407 45.6559L43.6167 40.8849C43.8865 40.728 43.9788 40.3814 43.8213 40.1111C43.6637 39.8408 43.316 39.7484 43.0474 39.9065L34.8376 44.6775C34.5679 44.8345 34.4756 45.1811 34.6331 45.4514C34.7899 45.7213 35.136 45.8132 35.407 45.6559Z" fill="black"/>
<path d="M35.407 51.2522L53.6562 40.6467C53.9259 40.4897 54.0182 40.1431 53.8607 39.8728C53.7037 39.6025 53.356 39.5096 53.0868 39.6683L34.8376 50.2738C34.5679 50.4307 34.4756 50.7773 34.6331 51.0476C34.7899 51.3175 35.136 51.4094 35.407 51.2522Z" fill="black"/>
<path d="M35.407 56.8479L53.6562 46.2424C53.9259 46.0854 54.0182 45.7388 53.8607 45.4685C53.7037 45.1977 53.356 45.107 53.0868 45.264L34.8376 55.8695C34.5679 56.0265 34.4756 56.373 34.6331 56.6433C34.7899 56.9132 35.136 57.0051 35.407 56.8479Z" fill="black"/>
<path d="M53.8607 51.0642C53.7037 50.7934 53.356 50.7022 53.0868 50.8597L34.8376 61.4652C34.5679 61.6222 34.4756 61.9687 34.6331 62.2391C34.7899 62.5089 35.136 62.6008 35.407 62.4436L53.6562 51.8381C53.9259 51.6811 54.0182 51.3345 53.8607 51.0642Z" fill="black"/>
<path d="M47.1566 39.7208C47.3844 39.7208 47.5988 39.5826 47.6851 39.3571L51.2527 30.0291C51.3643 29.7372 51.2184 29.41 50.9265 29.2983C50.6341 29.1872 50.3074 29.332 50.1958 29.6244L46.6282 38.9525C46.4864 39.3231 46.7609 39.7208 47.1566 39.7208Z" fill="black"/>
<path d="M50.1427 35.543C50.1262 36.5529 50.3793 37.2405 50.8746 37.5324C50.9857 37.5976 51.1637 37.6728 51.3937 37.6728C51.5772 37.6728 51.7933 37.6253 52.0343 37.486C52.8778 36.999 53.34 35.8785 53.335 34.3307C53.3322 33.2689 53.0967 32.6171 52.6142 32.3397C52.3732 32.1998 51.9774 32.0992 51.4434 32.4088C50.4794 32.9654 50.1394 34.3982 50.1427 35.543ZM52.0094 33.3894C52.031 33.3767 52.0498 33.3673 52.0631 33.3595C52.1194 33.4751 52.2013 33.7664 52.2029 34.3341C52.2062 35.4263 51.9321 36.2378 51.4683 36.5053L51.4567 36.5617C51.4064 36.5169 51.2638 36.2372 51.2748 35.5507C51.2715 34.412 51.6418 33.6016 52.0094 33.3894Z" fill="black"/>
<path d="M45.2734 36.6198C45.3845 36.6855 45.5631 36.7618 45.7941 36.7618C45.9771 36.7618 46.1932 36.7137 46.4342 36.575C47.28 36.0858 47.7437 34.9697 47.7393 33.4319C47.736 32.369 47.5005 31.7172 47.0191 31.4403C46.7786 31.3021 46.3812 31.2032 45.8477 31.5099C44.8848 32.066 44.5443 33.4872 44.5465 34.6342C44.5277 35.6414 44.7792 36.3279 45.2734 36.6198ZM45.6786 34.637C45.6758 33.6409 45.9848 32.7382 46.4138 32.4906C46.4359 32.4778 46.4547 32.4685 46.4679 32.4602C46.5238 32.5757 46.6056 32.8676 46.6072 33.4352C46.61 34.5021 46.327 35.3296 45.8577 35.6508C45.8068 35.606 45.6653 35.3252 45.6786 34.6497C45.6786 34.6453 45.6786 34.6414 45.6786 34.637Z" fill="black"/>
<path d="M28.1867 42.478H28.1884C28.5001 42.478 28.7533 42.2254 28.7544 41.9137L28.7594 40.1592C28.7605 39.8463 28.5073 39.5926 28.195 39.5915H28.1933C27.8816 39.5915 27.6284 39.8441 27.6273 40.1558L27.6223 41.9103C27.6212 42.2232 27.8744 42.4769 28.1867 42.478Z" fill="black"/>
<path d="M27.5653 61.7272C27.5537 65.6043 30.2911 70.3449 33.6674 72.2945C35.1404 73.1451 36.8982 73.5538 38.3787 72.7025C38.381 72.7011 38.3829 72.6992 38.3852 72.6979C38.3877 72.6965 38.3905 72.6973 38.393 72.6958C38.393 72.6958 38.3963 72.6936 38.3986 72.6925L63.449 58.1347C64.7237 57.3935 65.4291 55.8927 65.4346 53.9082C65.4352 53.7054 65.3274 53.518 65.1516 53.4163C63.7371 52.5978 61.4849 51.2946 61.6304 51.3787C61.4535 51.2765 61.2363 51.277 61.0616 51.3793L59.0567 52.5454C58.0595 51.8237 57.2625 50.3684 57.2713 49.1986L57.3503 21.4373C57.3504 21.4336 57.3531 21.4306 57.3531 21.4268C57.3525 21.2245 57.2447 21.0382 57.0701 20.9371L53.5489 18.904C53.3731 18.8023 53.157 18.8023 52.9812 18.9051L27.9252 33.4662C27.7511 33.5674 27.6433 33.7542 27.6438 33.956L27.6449 33.96L27.6328 38.1366C27.6317 38.4494 27.8843 38.7032 28.1972 38.7043H28.1988C28.5106 38.7043 28.7638 38.4516 28.7649 38.1399L28.7743 34.9366C28.8877 35.002 31.3184 36.4036 31.1644 36.3148L31.0865 63.7553C31.0865 65.4418 32.2258 67.4174 33.6823 68.2549C34.9478 68.9743 36.2808 68.6848 36.7201 67.3367L39.2194 68.7754C39.1624 69.9254 38.8095 71.149 37.8143 71.7213C36.8829 72.2553 35.6131 72.1099 34.2334 71.3139C31.1705 69.5456 28.6869 65.2461 28.6974 61.7305L28.7488 43.824C28.7499 43.5112 28.4968 43.2574 28.1844 43.2563H28.1828C27.871 43.2563 27.6179 43.5089 27.6168 43.8207L27.5653 61.7272ZM62.8797 57.1563L40.1144 70.3858C40.2576 69.9133 40.3521 69.2411 40.3714 68.7977L64.2174 54.9397C64.0377 55.98 63.5778 56.7506 62.8797 57.1563ZM61.348 52.523L63.7392 53.9071L39.8139 67.8108L37.5279 66.4915L37.5256 66.4908L37.4278 66.4343C38.3076 65.9227 57.7954 54.5891 61.348 52.523ZM53.267 20.0482L55.6561 21.4282L31.7301 35.3319C31.6166 35.2665 29.1853 33.865 29.3392 33.9537L53.267 20.0482ZM34.2445 67.272C33.1461 66.6408 32.2186 65.03 32.2186 63.757L32.2967 36.3132L56.2155 22.4138L56.1392 49.1925C56.1287 50.5767 56.9053 52.1676 58.0028 53.1583L36.0095 65.9492C35.8089 66.0658 35.7299 66.305 35.7281 66.4302C35.7133 67.4344 35.1799 67.8047 34.2445 67.272Z" fill="black"/>
</svg>
