<svg width="93" height="92" viewBox="0 0 93 92" fill="none" xmlns="http://www.w3.org/2000/svg">
<rect x="0.5" width="92" height="92" rx="46" fill="white"/>
<path d="M21.9907 40.7115C21.9934 40.9105 22.1001 41.0929 22.272 41.1935L28.3539 44.7308L22.2742 48.2634C22.0996 48.3651 21.9918 48.552 21.9923 48.7543C21.9929 48.9555 22.1007 49.1423 22.2753 49.2429L28.8953 53.0648L28.8627 62.9351C28.8622 63.1385 28.9699 63.3265 29.1457 63.4271L45.8776 73.095C46.0469 73.1936 46.2612 73.1994 46.4425 73.0961C46.4423 73.0963 46.4427 73.096 46.4425 73.0961C48.4911 71.9049 55.7022 67.7117 55.2642 67.9664C55.5345 67.8083 55.6262 67.4623 55.4687 67.1925C55.3111 66.9206 54.9635 66.8299 54.6948 66.9869L46.7299 71.6191L46.78 55.3706L52.858 58.9032C53.0393 59.0075 53.256 59.0023 53.4273 58.9032L62.9234 53.3841L62.8935 62.2264L59.5172 64.191C59.2469 64.3491 59.1557 64.6951 59.3127 64.966C59.4712 65.238 59.8195 65.3254 60.0865 65.1705L63.7431 63.0423C63.9167 62.9406 64.0239 62.7549 64.0245 62.5548L64.0577 52.7248L70.7219 48.8516C70.896 48.7499 71.0032 48.563 71.0032 48.3618C71.0032 48.1606 70.896 47.9738 70.7219 47.8721L64.6413 44.338L70.7279 40.7966C70.9026 40.6949 71.0099 40.5081 71.0093 40.3057C71.0087 40.1045 70.901 39.9177 70.7263 39.8171L55.1986 30.8511C55.9411 28.6915 57.7071 23.6326 57.7371 23.4559C57.773 23.2401 57.6913 23.0254 57.4945 22.8959C57.3805 22.8209 50.5252 18.8068 50.6391 18.9046C50.3987 18.7665 50.0919 18.8206 49.9172 19.0362L41.233 29.6376L32.6216 29.0889C32.1955 29.0521 31.8864 29.5293 32.0921 29.9161C32.1795 30.0806 33.9505 33.1222 33.8921 33.0075L22.2582 40.2228C22.0896 40.3278 21.9879 40.5136 21.9907 40.7115ZM41.3163 30.777C41.6251 30.9565 46.2492 33.6435 45.9557 33.4729L39.5867 33.0674L34.9473 30.3713L41.3163 30.777ZM48.0759 49.3944C48.0765 49.3947 48.0772 49.3945 48.0778 49.3949C48.3423 49.5466 48.7793 49.4242 48.8951 49.0893L52.5071 38.6385L62.3823 44.3377L46.783 53.4039V48.643L48.0759 49.3944ZM39.0036 34.0383L46.7828 47.3309C46.6693 47.265 41.6219 44.3344 41.9432 44.5209C34.9741 32.5981 39.8128 40.8811 35.8736 34.1518L34.1599 31.2237C34.2745 31.2903 39.1311 34.1124 39.0036 34.0383ZM38.0368 40.0897L41.0397 45.221C41.0889 45.305 41.1597 45.3747 41.2442 45.4244C41.438 45.5384 45.7849 48.063 45.6509 47.9852V53.4083L30.5896 44.714C30.7469 44.6163 38.3044 39.9235 38.0368 40.0897ZM29.4825 45.385L45.0865 54.391C44.973 54.4569 38.9021 57.9787 39.2885 57.7545C32.1523 53.6366 49.4489 63.6175 23.6877 48.7521L29.4825 45.385ZM30.0252 53.7171L39.0083 58.9032C39.1858 59.0065 39.4031 59.0032 39.576 58.9032C39.6892 58.8374 45.7611 55.3083 45.6476 55.3743L45.5973 71.6258L29.9959 62.6112L30.0252 53.7171ZM53.1426 57.7589L47.3459 54.3895L63.515 44.993L69.3106 48.3618L53.1426 57.7589ZM69.3145 40.3091L63.5143 43.6832C63.1606 43.4791 62.0722 42.8511 52.8835 37.5495L54.822 31.9407L69.3145 40.3091ZM48.2242 47.5512L40.4437 34.2565L48.2827 34.7559C48.4387 34.7697 48.6723 34.6524 48.7564 34.5492L55.6174 26.1747C45.2022 56.2937 58.8796 16.7428 48.2242 47.5512ZM50.4877 20.1263L56.3283 23.5203L48.186 33.459C48.0714 33.3925 42.2109 29.987 42.3453 30.0651L50.4877 20.1263ZM34.4639 33.9854C34.5309 34.0997 37.6634 39.4517 37.4647 39.1121C37.1776 39.2903 28.9877 44.376 29.4754 44.0732L23.6556 40.6883L34.4639 33.9854Z" fill="black"/>
<path d="M57.9468 65.0986L56.4096 65.9919C56.1393 66.1489 56.0469 66.496 56.2045 66.7658C56.363 67.0395 56.7124 67.1264 56.9778 66.9714L58.5151 66.0781C58.7854 65.9212 58.8777 65.574 58.7201 65.3043C58.5632 65.0323 58.2144 64.9416 57.9468 65.0986Z" fill="black"/>
</svg>
