<svg width="93" height="92" viewBox="0 0 93 92" fill="none" xmlns="http://www.w3.org/2000/svg">
<rect x="0.5" width="92" height="92" rx="46" fill="white"/>
<path d="M24.5671 62.7187C24.88 62.7176 25.1326 62.4633 25.1315 62.1515L25.1271 60.6403C25.126 60.3285 24.8728 60.0764 24.561 60.0764H24.5594C24.2465 60.0775 23.9939 60.3318 23.995 60.6436L23.9994 62.1549C24.0005 62.4666 24.2537 62.7187 24.5655 62.7187H24.5671Z" fill="black"/>
<path d="M23.9375 40.3061L23.99 58.8272C23.9911 59.14 24.2443 59.3921 24.5561 59.3921C24.5566 59.3921 24.5572 59.3921 24.5577 59.3921C24.87 59.391 25.1232 59.1367 25.1221 58.825L25.0723 41.2933L30.459 44.4259C30.4675 47.2146 30.4285 34.3419 30.5415 71.6216L25.1492 68.4874L25.1365 63.8961C25.1354 63.5832 24.8822 63.3311 24.5704 63.3311C24.5699 63.3311 24.5693 63.3311 24.5688 63.3311C24.2565 63.3322 24.0033 63.5865 24.0044 63.8983L24.0182 68.8146C24.0188 69.0158 24.126 69.2016 24.2996 69.3033C24.97 69.692 21.8723 67.8928 30.8565 73.1047C31.0446 73.2004 31.2348 73.1901 31.3977 73.0953C78.3379 45.9924 60.8557 56.0865 64.8995 53.7516C65.0667 53.6557 65.1602 53.4784 65.17 53.2889C65.1858 53.0272 65.1553 46.5804 65.1344 37.5466C67.5912 34.386 69.0955 30.3796 69.0619 27.034C69.0619 27.0329 69.0619 27.0329 69.0619 27.0318C69.0256 24.3946 68.09 22.4159 66.414 21.4421C66.4105 21.44 66.4088 21.4365 66.4053 21.4344L66.386 21.4231C66.3856 21.4229 66.3853 21.4225 66.3848 21.4222C66.3842 21.422 66.3838 21.4218 66.3833 21.4215L63.0157 19.4389C61.3026 18.455 59.0783 18.6661 56.7517 20.0304C55.5 20.7678 54.2607 21.8328 53.1606 23.106L24.2384 39.807C24.2328 39.81 24.226 39.8086 24.2205 39.8118C24.0447 39.9124 23.9369 40.1004 23.9375 40.3027V40.3061ZM60.8919 41.4182C61.827 40.8703 63.0173 39.9377 64.0062 38.8854L64.0439 52.3698L52.0849 46.7866L54.853 42.1306C56.7537 43.0698 59.0726 42.4907 60.8919 41.4182ZM32.7619 70.9992L44.5745 51.7717C44.8831 51.9315 43.4564 51.1928 47.5933 53.3339C47.878 53.4695 48.1933 53.3234 48.3175 53.1203C48.3905 53.0008 51.4368 47.8785 51.5042 47.7651L63.3862 53.3122C60.2347 55.1323 74.7625 46.7417 32.7619 70.9992ZM31.5983 45.0346L43.5668 51.2485L31.6742 70.6069C31.5702 35.5625 31.606 47.6494 31.5983 45.0346ZM53.8623 41.5807C53.2241 42.6542 56.1739 37.6925 47.6215 52.0778C26.4906 41.1074 33.7789 44.8912 32.2021 44.0726L48.5861 34.6147C48.6431 36.7427 49.371 38.9604 51.2372 40.0241L53.8623 41.5807ZM67.9298 27.045C67.9784 31.9139 64.5303 37.973 60.3181 40.442C56.2435 42.8462 53.0995 40.9154 53.0995 36.3957C53.0587 32.5069 55.1285 28.3075 57.7428 25.4376C59.8576 23.2167 63.1171 20.9559 65.8438 22.4179C67.158 23.1713 67.8989 24.8142 67.9298 27.045ZM57.3254 21.0066C58.9031 20.081 60.867 19.5131 62.4469 20.4173L63.2329 20.8805C60.7701 21.2182 58.6202 22.8854 56.9153 24.6648C54.0815 27.7786 51.9237 32.2886 51.9674 36.4012C51.9674 37.3754 52.1351 38.5027 52.5131 39.4646L51.8066 39.0457C50.4777 38.2873 49.7348 36.6389 49.7149 34.409C49.7149 30.7655 51.5738 26.6826 53.9474 23.9219C53.9473 23.922 53.9476 23.9217 53.9474 23.9219C53.9479 23.9213 53.9486 23.9202 53.9491 23.9197C54.9872 22.7036 56.1552 21.6964 57.3254 21.0066ZM51.3875 25.5067C50.335 27.1881 49.4694 29.143 48.997 31.1149C48.785 31.9978 48.6871 32.683 48.6386 33.277L31.0318 43.4408L25.6382 40.3059L51.4511 25.4C51.429 25.4349 51.4095 25.4716 51.3875 25.5067Z" fill="black"/>
<path d="M59.4934 33.8673L58.7693 34.2854L58.7554 29.3501C58.7549 29.1036 58.5946 28.8858 58.3597 28.8117C58.1242 28.7365 57.8682 28.8239 57.7262 29.0251L55.8645 31.6717C55.6848 31.9282 55.7462 32.2809 56.0021 32.4611C56.258 32.6413 56.6112 32.5772 56.7909 32.324L57.6283 31.1322L57.6391 34.9378L56.3526 35.6804C56.0817 35.8363 55.9888 36.1823 56.1453 36.4532C56.3029 36.7253 56.6509 36.8162 56.9186 36.6599L60.0594 34.8468C60.3303 34.691 60.4232 34.3449 60.2667 34.0741C60.1092 33.8032 59.7626 33.7081 59.4934 33.8673Z" fill="black"/>
<path d="M64.726 31.0272L63.2749 31.8641C63.9095 30.7221 64.4098 29.5712 64.5038 28.344C64.564 27.5613 64.3495 26.9511 63.8996 26.6271C63.4535 26.3054 62.8593 26.2933 62.1313 26.6006C61.3596 26.9323 60.746 27.5348 60.2563 28.4413C60.1076 28.7155 60.2104 29.0593 60.4851 29.2075C60.7609 29.3567 61.1042 29.2539 61.2524 28.9786C61.6161 28.3053 62.05 27.8675 62.574 27.642C62.9477 27.485 63.1655 27.4939 63.2368 27.5447C63.3247 27.6077 63.4059 27.8587 63.375 28.2578C63.2799 29.4971 62.6779 30.7022 61.6691 32.3671L61.2231 33.1078C61.1705 33.1963 61.1424 33.319 61.1424 33.4218C61.1424 33.8567 61.6143 34.1297 61.9914 33.9116L65.292 32.0067C65.5629 31.8508 65.6557 31.5048 65.4993 31.2339C65.3423 30.9631 64.9957 30.868 64.726 31.0272Z" fill="black"/>
</svg>
