<svg width="93" height="92" viewBox="0 0 93 92" fill="none" xmlns="http://www.w3.org/2000/svg">
<rect x="0.5" width="92" height="92" rx="46" fill="white"/>
<path d="M31.8712 69.5524C31.9904 69.6245 37.2356 72.7988 37.3497 72.8646C37.8541 73.1544 38.4569 73.0498 38.9594 72.7601L60.1875 60.5041C61.1742 59.9342 61.9442 58.5965 61.9409 57.4577L61.8458 23.8879C61.8444 23.3334 61.6462 22.882 61.3111 22.5945C61.2684 22.4709 61.1888 22.3591 61.0669 22.2882L55.6564 19.1424C55.3856 18.9843 54.8184 18.792 54.0495 19.2458L32.8231 31.5029C31.8342 32.0662 31.0592 33.4017 31.0592 34.5459L31.1289 56.9287C31.13 57.2411 31.3831 57.4931 31.6949 57.4931H31.6965C32.0094 57.492 32.262 57.2377 32.2609 56.9254L32.1913 34.5443C32.1913 33.8096 32.7485 32.8484 33.3864 32.4852L54.62 20.2236C54.8173 20.107 54.9964 20.07 55.0882 20.1214L59.2107 22.5182L38.2275 34.641C37.2243 35.2247 36.4681 36.5354 36.4681 37.6918L36.5615 70.9702L32.4328 68.5695C32.3776 68.5386 32.2952 68.3921 32.2952 68.1146L32.2836 64.3281C32.2825 64.0158 32.0293 63.7638 31.7176 63.7638H31.7159C31.403 63.7649 31.1504 64.0191 31.1515 64.3315L31.1631 68.1163C31.1631 68.7763 31.424 69.3014 31.8712 69.5524ZM59.6214 59.5234L38.3934 71.7795C37.9588 72.03 37.7633 71.7278 37.7627 71.4174L37.6676 37.8471C37.6654 37.1147 38.2198 36.1512 38.8544 35.7852L60.083 23.5292C60.2417 23.4374 60.3682 23.4048 60.4561 23.4048C60.502 23.4048 60.5374 23.4137 60.5612 23.4275C60.6535 23.4806 60.7132 23.6624 60.7137 23.8913L60.8088 57.4611C60.811 58.1935 60.256 59.157 59.6214 59.5234Z" fill="black"/>
<path d="M31.7126 62.6311C32.0255 62.63 32.2781 62.3758 32.277 62.0634L32.2687 59.5517C32.2676 59.2393 32.0144 58.9873 31.7026 58.9873H31.701C31.3881 58.9884 31.1355 59.2427 31.1366 59.555L31.1449 62.0668C31.146 62.3791 31.3992 62.6311 31.7109 62.6311H31.7126Z" fill="black"/>
<path d="M58.056 29.2907L47.8154 35.1988C47.5445 35.3552 47.4517 35.7012 47.6081 35.9721C47.766 36.2448 48.1132 36.3343 48.3814 36.1794L58.6221 30.2714C58.8929 30.1149 58.9858 29.7689 58.8293 29.498C58.6718 29.2277 58.3252 29.1332 58.056 29.2907Z" fill="black"/>
<path d="M48.3814 40.3025L55.5276 36.1794C55.7985 36.0229 55.8914 35.6769 55.7349 35.406C55.5779 35.1357 55.2303 35.0423 54.9616 35.1988L47.8154 39.3219C47.5445 39.4783 47.4517 39.8244 47.6081 40.0952C47.766 40.3679 48.1132 40.4574 48.3814 40.3025Z" fill="black"/>
<path d="M58.056 39.9095L47.8154 45.8181C47.5445 45.9745 47.4517 46.3205 47.6081 46.5914C47.766 46.864 48.1132 46.9536 48.3814 46.7987L58.6221 40.8901C58.8929 40.7337 58.9858 40.3876 58.8293 40.1168C58.6718 39.8459 58.3252 39.7525 58.056 39.9095Z" fill="black"/>
<path d="M48.3814 50.9212L55.5276 46.7987C55.7985 46.6422 55.8914 46.2962 55.7349 46.0253C55.5779 45.755 55.2303 45.6622 54.9616 45.8181L47.8154 49.9406C47.5445 50.0971 47.4517 50.4431 47.6081 50.7139C47.7131 50.8953 47.9033 50.997 48.099 50.997C48.1951 50.997 48.2924 50.9726 48.3814 50.9212Z" fill="black"/>
<path d="M58.056 50.5282L47.8154 56.4368C47.5445 56.5932 47.4517 56.9392 47.6081 57.2101C47.766 57.4828 48.1132 57.5723 48.3814 57.4174L58.6221 51.5088C58.8929 51.3524 58.9858 51.0063 58.8293 50.7355C58.6718 50.4646 58.3252 50.3723 58.056 50.5282Z" fill="black"/>
<path d="M54.9616 56.4368L47.8154 60.5593C47.5445 60.7158 47.4517 61.0618 47.6081 61.3327C47.766 61.6053 48.1132 61.6949 48.3814 61.54L55.5276 57.4174C55.7985 57.2609 55.8914 56.9149 55.7349 56.6441C55.5779 56.3732 55.2303 56.2798 54.9616 56.4368Z" fill="black"/>
<path d="M40.1937 52.4181L41.139 52.663L40.71 54.4523C40.543 55.1298 40.9604 55.5921 41.4629 55.5921C41.8183 55.5921 42.1299 55.3697 42.3357 55.0747L43.606 53.2981L44.7055 53.5883C44.9177 53.6364 45.1427 53.601 45.3539 53.4794C45.8104 53.2152 46.183 52.5336 45.9895 51.9842L45.5208 50.6216C45.5208 50.6028 45.5363 50.5415 45.5777 50.4823L46.8281 48.7151C47.1675 48.2375 47.1863 47.6643 46.8745 47.3221C46.6175 47.0402 46.2134 46.9938 45.8436 47.2071L44.6071 47.9208L44.2594 46.9031C44.0969 46.4063 43.5592 46.1992 43.0571 46.4885C42.7426 46.6693 42.4993 47.0054 42.407 47.3879L41.9394 49.3392C41.9156 49.4287 41.8504 49.51 41.8228 49.5282L40.2805 50.4187C39.8328 50.6774 39.5393 51.2628 39.6117 51.752C39.662 52.0914 39.8903 52.3479 40.1937 52.4181ZM40.8466 51.3994L42.3877 50.5094C42.6884 50.3364 42.936 49.9986 43.0372 49.6156L43.4302 47.9766L43.6712 48.6814C43.8439 49.151 44.3715 49.3634 44.8674 49.0777L45.4042 48.7682L44.6518 49.8306C44.4125 50.1722 44.329 50.5907 44.4368 50.9334L44.9094 52.3015C44.9067 52.3385 44.8718 52.4049 44.8354 52.4518L43.7381 52.1622C43.3264 52.0537 42.9089 52.2991 42.6624 52.653L42.1246 53.4076L42.2827 52.7487C42.4159 52.1594 42.1069 51.7482 41.7266 51.6459L40.8283 51.4132C40.8344 51.4077 40.8405 51.4027 40.8466 51.3994Z" fill="black"/>
<path d="M40.1639 41.9188L41.1092 42.1637L40.6797 43.9475C40.4187 45.0293 41.6177 45.5448 42.3059 44.5754L43.5729 42.7977L44.6657 43.0785C44.8796 43.1332 45.1162 43.0962 45.3257 42.9746C45.7823 42.7109 46.1543 42.0283 45.9592 41.476L45.491 40.1229C45.491 40.1041 45.5065 40.0421 45.5479 39.983L46.8011 38.2125C47.1382 37.7288 47.1554 37.1528 46.8425 36.8123C46.5838 36.5304 46.1792 36.4878 45.8138 36.6995L44.5756 37.4143L44.2296 36.3944C44.0702 35.9107 43.5413 35.6882 43.0289 35.9826L43.0278 35.9837C42.7144 36.165 42.4712 36.4989 42.3772 36.8803L41.9085 38.8366C41.8853 38.9278 41.8217 39.004 41.793 39.0212L40.2507 39.9111C39.8079 40.1665 39.5139 40.7491 39.5808 41.2367C39.6272 41.5772 39.8505 41.8387 40.1639 41.9188ZM40.8168 40.8918L42.3595 40.0012C42.6636 39.8255 42.9112 39.4861 43.0074 39.108L43.3999 37.4718L43.6409 38.1815C43.7243 38.4087 43.8902 38.5768 44.1069 38.6552C44.3368 38.7371 44.5961 38.7083 44.8376 38.5707L45.3838 38.255L44.622 39.3313C44.3827 39.6734 44.2987 40.0913 44.4076 40.4357L44.8796 41.795C44.8769 41.832 44.8431 41.8984 44.8067 41.9459L43.7404 41.6734C43.3175 41.5345 42.8806 41.7856 42.6326 42.1537L42.0937 42.9094L42.2523 42.251C42.3877 41.6607 42.0782 41.2494 41.6968 41.1466L40.7919 40.9122C40.8002 40.9034 40.8085 40.8962 40.8168 40.8918Z" fill="black"/>
<path d="M45.8735 57.7059L44.6347 58.4212L44.2887 57.4019C44.1305 56.9158 43.6012 56.6963 43.0886 56.9896C42.7735 57.1709 42.5303 57.5053 42.4369 57.8867L41.9682 59.843C41.9449 59.9325 41.8803 60.0116 41.8526 60.0276L40.311 60.9181C39.8682 61.1729 39.5736 61.755 39.6404 62.2431C39.6863 62.583 39.9102 62.8451 40.2231 62.9252L41.1689 63.1706L40.7388 64.9539C40.5767 65.6294 40.9851 66.0948 41.4928 66.0948C41.7821 66.0948 42.1105 65.9421 42.3656 65.5818L43.6314 63.8036L44.7254 64.0849C44.9448 64.1419 45.1704 64.1059 45.3848 63.9816C45.8414 63.7179 46.2129 63.0352 46.0189 62.4824L45.5507 61.1293C45.5507 61.1105 45.5661 61.0491 45.6076 60.99L46.8607 59.2189C47.1979 58.7352 47.2145 58.1592 46.9016 57.8193C46.6446 57.539 46.2405 57.4948 45.8735 57.7059ZM44.6823 60.3377C44.4424 60.6793 44.3583 61.0977 44.4672 61.4421L44.9393 62.8014C44.9365 62.8384 44.9023 62.9053 44.8663 62.9529L43.8 62.6798C43.3796 62.5396 42.9381 62.7933 42.6923 63.1601L42.1539 63.9152L42.3125 63.2563C42.4463 62.6649 42.1362 62.2541 41.757 62.1535L40.8516 61.9186C40.8599 61.9103 40.8681 61.9031 40.8764 61.8987L42.4198 61.0076C42.7232 60.8313 42.9709 60.4925 43.0671 60.1149L43.459 58.4793L43.7011 59.1907C43.8701 59.6456 44.3884 59.8702 44.8973 59.5771L45.444 59.2614L44.6823 60.3377Z" fill="black"/>
</svg>
