<svg width="93" height="92" viewBox="0 0 93 92" fill="none" xmlns="http://www.w3.org/2000/svg">
<rect x="0.5" width="92" height="92" rx="46" fill="white"/>
<path d="M21.911 68.6965C21.9116 68.8977 22.0188 69.0834 22.193 69.1841L28.915 73.0903C28.9176 73.0919 28.9186 73.095 28.9213 73.0966C28.9305 73.1019 28.9417 73.0997 28.9511 73.1045C29.0308 73.1449 29.1155 73.1717 29.2038 73.1717C29.3016 73.1717 29.3994 73.1463 29.4868 73.096L51.5155 60.3815C51.8814 61.9241 52.663 63.1035 53.8187 63.7774L57.0938 65.685L57.0949 65.6856C57.0987 65.6878 57.1032 65.6867 57.107 65.6888C57.1095 65.6903 57.1117 65.6923 57.1143 65.6939C59.0027 66.7818 61.2693 66.247 63.1749 65.1472C67.5992 62.5928 71.1867 56.3714 71.1724 51.2781C71.1652 48.7033 70.257 46.7648 68.6152 45.8201C68.6087 45.8163 68.6016 45.8143 68.5951 45.8106L65.3522 43.9219C65.0108 43.723 64.6433 43.5855 64.2623 43.4848L64.1959 23.3186C64.1961 23.3129 64.2003 23.3082 64.2003 23.3024C64.2003 23.2884 64.1908 23.277 64.1898 23.2631C64.1875 23.2289 64.1731 23.2016 64.1646 23.1683C64.1446 23.0893 64.1135 23.02 64.0626 22.957C64.05 22.9411 64.0516 22.919 64.0372 22.9044C64.0223 22.8893 63.9997 22.8907 63.9836 22.8776C63.9597 22.8577 63.9462 22.8285 63.9189 22.8126L57.1955 18.9051C57.0192 18.8023 56.8031 18.8034 56.6278 18.904L50.6458 22.3577C50.3749 22.5141 50.282 22.8602 50.4385 23.131C50.5949 23.4019 50.9415 23.4931 51.2118 23.3383L56.9098 20.0482L62.5045 23.3L29.1148 42.574L23.5229 39.3245L44.3071 27.3249C44.578 27.1685 44.6708 26.8224 44.5144 26.5516C44.3574 26.2796 44.0108 26.1867 43.7411 26.3443L22.1106 38.8325C21.9336 38.9349 21.8281 39.1234 21.8276 39.3222C21.8276 39.3227 21.8279 39.3229 21.8279 39.3233C21.8279 39.3238 21.8276 39.324 21.8276 39.3245L21.911 68.6965ZM23.042 68.3687L22.9624 40.3078C23.0863 40.3798 28.897 43.7566 28.548 43.5538C28.5566 46.4314 28.517 33.1482 28.6316 71.6168L23.042 68.3687ZM63.1295 43.3232C63.0998 43.3225 63.068 43.3291 63.0381 43.3289C62.3957 43.3277 61.7346 43.4487 61.1414 43.6336C58.8278 44.3592 56.7361 46.1812 55.2221 48.0846L50.7826 46.0135L63.0706 25.3567L63.1295 43.3232ZM46.2158 51.476L30.2944 43.2038L62.0389 24.8767L46.2158 51.476ZM29.6856 44.1633L42.0569 50.5909L29.7639 70.6113C29.7559 67.8979 29.793 80.4232 29.6856 44.1633ZM43.0628 51.1167L46.1727 52.7308C46.4401 52.8686 46.7876 52.7435 46.9201 52.5174L50.2019 46.9919L54.5257 49.009C53.1481 50.9681 52.0722 53.3044 51.5742 55.6507C51.2665 57.1135 51.2307 58.2206 51.3176 59.1882L30.8543 70.9994L43.0628 51.1167ZM70.0403 51.2814C70.0535 56.0126 66.7198 61.7929 62.6088 64.1665C58.7099 66.4194 55.6991 64.7048 55.6865 60.2187C55.6792 57.6248 56.6862 54.7164 58.2736 52.2253C59.577 50.1807 61.2697 48.4165 63.124 47.3457C64.6213 46.4793 66.5537 45.9349 68.0564 46.8068L68.0591 46.8084C68.06 46.809 68.0611 46.8089 68.062 46.8094C69.3316 47.5477 70.0342 49.1343 70.0403 51.2814ZM65.4528 45.2905C64.6247 45.4157 63.5719 45.7779 62.5585 46.3645C60.9628 47.2859 59.4796 48.6868 58.2309 50.3346C56.0147 53.2584 54.544 56.9691 54.5511 60.2214C54.5512 60.254 54.5583 60.2813 54.5587 60.3137C54.5691 61.223 54.7111 62.2123 55.027 63.0763C55.0399 63.1114 55.0441 63.1541 55.0574 63.1887L54.3886 62.799C53.3505 62.1938 52.6985 61.0089 52.4878 59.4204C52.3757 58.4166 52.3713 57.4869 52.6239 56.1483C53.0952 53.6411 54.2946 51.1645 55.8396 49.129C55.84 49.1284 55.84 49.1277 55.8404 49.1272C55.8403 49.1273 55.8405 49.127 55.8404 49.1272C57.0987 47.4543 58.8424 45.8101 60.7807 44.9711C62.4929 44.2313 63.9447 44.4123 64.7829 44.9003L65.4528 45.2905Z" fill="black"/>
<path d="M48.3656 23.6744L46.134 24.9629C45.8632 25.1193 45.7703 25.4654 45.9268 25.7362C46.0318 25.9181 46.2219 26.0192 46.4176 26.0192C46.5138 26.0192 46.6111 25.9949 46.7001 25.9435L48.9316 24.655C49.2025 24.4986 49.2953 24.1525 49.1389 23.8817C48.9814 23.6097 48.6353 23.5179 48.3656 23.6744Z" fill="black"/>
<path d="M68.1133 50.6131C67.9381 50.512 67.722 50.5136 67.5478 50.6137L62.4518 53.5561L62.4496 52.7795C62.4491 52.5296 62.2838 52.309 62.0444 52.2383C61.8029 52.1697 61.5464 52.2615 61.4093 52.4716L57.4095 58.6012C57.3155 58.7455 57.2923 58.9246 57.3459 59.0877C57.4001 59.2513 57.525 59.3812 57.6858 59.4415L61.7073 60.9406C62.0801 61.0788 62.4724 60.801 62.4712 60.4082L62.4673 58.9782L68.1255 55.7114C68.3013 55.6096 68.4091 55.4223 68.4085 55.2194L68.3969 51.1023C68.3963 50.9006 68.288 50.7143 68.1133 50.6131ZM61.6172 58.1618C61.4414 58.2635 61.3336 58.4509 61.3341 58.6538L61.3369 59.594L58.7444 58.6278L61.3358 54.6567C61.3695 54.8103 61.4668 54.9452 61.6061 55.0259C61.7808 55.1265 61.9969 55.126 62.1716 55.0254L67.2676 52.083L67.2753 54.8949L61.6172 58.1618Z" fill="black"/>
</svg>
