<svg width="93" height="92" viewBox="0 0 93 92" fill="none" xmlns="http://www.w3.org/2000/svg">
<rect x="0.5" width="92" height="92" rx="46" fill="white"/>
<path d="M28.0501 58.9341L25.5882 67.5947C25.5174 67.8435 25.6235 68.1088 25.848 68.2393L34.2081 73.0981C34.4147 73.2184 34.6748 73.1924 34.8526 73.0451L42.2332 66.9635C44.9064 67.2708 47.9389 66.4914 51.0245 64.7093C60.227 59.396 67.6883 46.4667 67.6585 35.8889C67.6431 30.6953 65.8579 26.8027 62.6339 24.9035C62.6199 24.8935 62.6114 24.8788 62.5962 24.87L62.594 24.8688C62.5907 24.8666 62.5862 24.8644 62.5818 24.8622L54.2328 20.0177C50.9338 18.0985 46.5857 18.5076 41.9922 21.1686C41.7224 21.3256 41.6296 21.6716 41.7866 21.9425C41.9435 22.2122 42.2907 22.3029 42.5604 22.1481C46.7869 19.6993 50.7304 19.2892 53.6645 20.9972L58.2956 23.6837C55.596 23.6258 52.7549 24.6449 50.4106 25.9916C50.3911 26.0029 50.3719 26.0106 50.3523 26.0219C41.8772 30.9136 34.6372 42.5501 33.7886 52.7926C33.5359 55.8241 33.8371 59.2009 35.1783 61.8884C35.1885 61.909 35.1952 61.9331 35.2056 61.9536C35.091 61.887 28.6273 58.1301 29.0363 58.3679C27.3692 56.4431 26.4836 53.5466 26.4737 49.9835C26.456 42.4315 30.3785 33.4246 36.4689 27.0357C36.6845 26.8102 36.6756 26.452 36.449 26.2353C36.2235 26.0208 35.8664 26.0286 35.6486 26.2552C29.3691 32.8431 25.3228 42.1584 25.3416 49.9857C25.3523 53.7274 26.2931 56.8053 28.0501 58.9341ZM29.0175 59.668C29.1319 59.7345 36.8554 64.2244 36.3677 63.9409L34.1473 71.7527L26.7965 67.4809L29.0175 59.668ZM66.5264 35.8911C66.5551 46.1085 59.3481 58.5967 50.4584 63.7298C47.4978 65.4389 44.6223 66.1631 42.1403 65.8104C41.9833 65.7905 41.8253 65.8325 41.7014 65.9342L35.5325 71.0175C35.6598 70.5695 37.6092 63.7105 37.5767 63.8248C37.617 63.6837 37.5929 63.4522 37.4588 63.2984L37.4573 63.2953C35.1073 60.6317 34.6258 56.4624 34.9126 52.9098C35.7239 42.9337 42.7738 31.7037 50.9228 27.0003C59.7508 21.8985 66.4991 26.0054 66.5264 35.8911Z" fill="black"/>
<path d="M39.895 22.5262C39.1477 23.0646 38.3981 23.6638 37.6673 24.3094C37.433 24.5162 37.4109 24.8744 37.6176 25.1087C37.8244 25.3442 38.185 25.3641 38.4169 25.1585C39.1189 24.5372 39.8397 23.9612 40.5561 23.446C40.8104 23.2625 40.8679 22.9087 40.6855 22.6555C40.502 22.4013 40.146 22.3427 39.895 22.5262Z" fill="black"/>
<path d="M60.2469 32.6817C60.2449 32.2877 59.7645 31.9798 59.3979 32.1931L41.3543 42.6095C41.1439 42.73 41.0707 42.9835 41.0713 43.1004C41.0978 52.3019 41.0893 49.3383 41.1155 58.4541C41.1181 58.8402 41.5718 59.1715 41.9646 58.9428L60.007 48.5264C60.1857 48.4241 60.291 48.2253 60.29 48.0355C60.265 39.101 60.2718 41.54 60.2469 32.6817ZM52.7668 45.4131L58.5001 48.0897C42.4143 57.376 43.8433 56.5511 43.3332 56.8456L49.0268 47.5767L50.4264 48.303C50.665 48.4274 51.0294 48.3346 51.1737 48.0908L52.7668 45.4131ZM58.0856 34.2571L50.4739 47.0527L42.8151 43.0729C44.1576 42.2978 56.6786 35.0694 58.0856 34.2571ZM42.2414 56.4606L42.2062 44.0323L48.0201 47.0529L42.2414 56.4606ZM59.1201 34.7328L59.1553 47.1461L53.3485 44.4349L59.1201 34.7328Z" fill="black"/>
</svg>
