<svg width="93" height="92" viewBox="0 0 93 92" fill="none" xmlns="http://www.w3.org/2000/svg">
<rect x="0.5" width="92" height="92" rx="46" fill="white"/>
<path d="M42.5006 25.7483L43.6736 25.0717C43.9444 24.9147 44.0373 24.5687 43.8814 24.2978C43.7244 24.0259 43.3784 23.9352 43.1075 24.09L41.9346 24.7666C41.6637 24.9236 41.5708 25.2696 41.7267 25.5405C41.8828 25.8099 42.2266 25.9039 42.5006 25.7483Z" fill="black"/>
<path d="M60.8427 22.9635L54.1785 18.9183C53.4931 18.5347 52.6252 18.6032 51.7297 19.1129L44.5094 23.2819C44.2386 23.4378 44.1457 23.7838 44.3027 24.0546C44.4575 24.3255 44.8035 24.4184 45.0755 24.2614L52.2924 20.0946C52.8264 19.7917 53.2985 19.7231 53.6069 19.8956L58.6913 22.9823C55.9779 24.2401 41.0126 33.1642 40.8821 33.2395C40.7688 33.1708 34.9769 29.6579 35.3442 29.8806L41.0303 26.5974C41.3011 26.4415 41.394 26.0955 41.237 25.8246C41.0811 25.5527 40.7351 25.4609 40.4642 25.6179L33.9449 29.3811C33.9437 29.3818 33.9433 29.3832 33.9421 29.3839C32.3093 30.3312 31.0351 32.5341 31.0329 34.4109C31.0329 34.4154 31.0295 34.419 31.0295 34.4235L31.1202 66.8535C31.1324 67.8761 31.5082 68.6511 32.166 69.0292C41.2509 74.5449 38.1604 72.6914 38.8247 73.0711C38.8244 73.0709 38.825 73.0712 38.8247 73.0711C38.8256 73.0716 38.8271 73.0727 38.828 73.0733C39.5979 73.5178 40.5025 73.3282 41.2702 72.8842L59.0528 62.6171C60.6935 61.6696 61.9748 59.4497 61.9704 57.5636L61.8786 25.1348C61.875 24.053 61.427 23.3192 60.8427 22.9635ZM34.2382 30.5389C34.3516 30.6075 40.2297 34.1685 39.8551 33.9415C38.8149 34.8433 38.0205 36.2891 37.7745 37.5102C37.6612 37.4414 31.8077 33.8885 32.1785 34.1136C32.3004 32.8161 33.1708 31.3056 34.2382 30.5389ZM32.742 68.0541C32.4336 67.8772 32.2589 67.4461 32.2523 66.8458L32.1649 35.4314C32.2782 35.5001 38.0453 39.001 37.6781 38.7781C37.798 82.2148 37.7556 66.8497 37.7667 70.8821C37.7667 70.9584 37.7689 71.0347 37.7733 71.1087L32.742 68.0541ZM58.4868 61.6376L40.7041 71.9036C39.595 72.5479 38.9055 72.0762 38.901 70.8821L38.8092 38.4554C38.8059 36.9906 39.8827 35.1289 41.1607 34.3904L48.2738 30.2835L58.9467 24.1265C59.9332 23.5428 60.7416 23.8333 60.7465 25.1381L60.8383 57.5658C60.8416 59.0351 59.7648 60.8991 58.4868 61.6376Z" fill="black"/>
<path d="M47.3905 33.6728C47.4867 33.6728 47.5839 33.6485 47.6735 33.5966L52.4682 30.8283C52.7391 30.6724 52.832 30.3264 52.675 30.0555C52.5202 29.7835 52.173 29.6918 51.9022 29.8488L47.1075 32.617C46.8366 32.7729 46.7437 33.119 46.9007 33.3898C47.0046 33.5711 47.1959 33.6728 47.3905 33.6728Z" fill="black"/>
<path d="M50.2295 60.8659C49.2544 61.4286 48.4927 62.7464 48.4949 63.8652C48.4972 65.2091 49.6191 65.8665 50.8055 65.1797C51.7761 64.6192 52.5334 63.3036 52.529 62.187C52.5267 60.8326 51.3995 60.186 50.2295 60.8659ZM50.2394 64.2002C49.8405 64.4292 49.6291 64.3626 49.627 63.863C49.6247 63.1488 50.1709 62.2058 50.7955 61.8454C51.2419 61.5903 51.3951 61.7487 51.3969 62.1903C51.3991 62.9023 50.8585 63.842 50.2394 64.2002Z" fill="black"/>
<path d="M34.4755 40.3658H34.4733C34.1615 40.367 33.9083 40.6212 33.9094 40.9341L33.9161 43.0921C33.9172 43.4039 34.1703 43.6559 34.4821 43.6559C34.7861 43.6217 35.0492 43.4017 35.0481 43.0877L35.0415 40.9297C35.0404 40.6179 34.7872 40.3658 34.4755 40.3658Z" fill="black"/>
<path d="M34.4755 45.4679C34.1604 45.4989 33.9083 45.7222 33.9094 46.0361L33.9161 48.1942C33.9172 48.5059 34.1703 48.758 34.4821 48.758H34.4843C34.7961 48.7569 35.0492 48.5026 35.0481 48.1897L35.0415 46.0317C35.0404 45.72 34.7872 45.4679 34.4755 45.4679Z" fill="black"/>
<path d="M53.8303 24.5433C54.9509 23.8913 54.9532 22.6452 53.8203 21.9928C52.8983 21.4599 51.4567 21.4599 50.5391 21.9928C49.4201 22.6415 49.4161 23.8909 50.549 24.5433C51.4874 25.0855 52.8957 25.0858 53.8303 24.5433ZM51.1073 22.9723C51.6793 22.6398 52.6809 22.6415 53.2543 22.9723C53.6121 23.1765 53.6371 23.3479 53.262 23.5638C52.6827 23.8999 51.6988 23.8999 51.115 23.5638C50.7595 23.3577 50.7301 23.1916 51.1073 22.9723Z" fill="black"/>
<path d="M59.1103 28.5796C58.9356 28.4801 58.72 28.479 58.5453 28.5807L40.4642 39.0203C40.2884 39.1209 40.1801 39.3089 40.1812 39.5112L40.253 64.89C40.2541 65.0924 40.3614 65.2792 40.5371 65.3798C40.7186 65.4832 40.9331 65.4771 41.1021 65.3787L59.1832 54.9402C59.359 54.8396 59.4674 54.6516 59.4662 54.4493L59.3944 29.0694C59.3933 28.867 59.286 28.6802 59.1103 28.5796ZM41.3818 63.9105L41.3143 39.8362L58.2656 30.0489L58.3331 54.1243L41.3818 63.9105Z" fill="black"/>
<path d="M46.3346 53.9794C46.16 53.8799 45.9444 53.8788 45.7697 53.9805L42.7858 55.703C42.6101 55.8036 42.5017 55.9915 42.5028 56.1938L42.5128 59.6221C42.5139 59.8244 42.6211 60.0113 42.7969 60.1119C42.9784 60.2153 43.1928 60.2092 43.3618 60.1108L46.3457 58.3883C46.5215 58.2877 46.6298 58.0998 46.6287 57.8975L46.6188 54.4692C46.6176 54.2669 46.5104 54.08 46.3346 53.9794ZM43.6415 58.6426L43.636 56.5189L45.49 55.4487L45.4955 57.5725L43.6415 58.6426Z" fill="black"/>
<path d="M51.5949 50.9425C51.4202 50.843 51.2046 50.8419 51.0299 50.9436L48.0472 52.6661C47.8714 52.7667 47.7631 52.9546 47.7642 53.1569L47.7741 56.5852C47.7752 56.7875 47.8825 56.9744 48.0582 57.075C48.2397 57.1783 48.4541 57.1723 48.6232 57.0739L51.6059 55.3514C51.7817 55.2508 51.8901 55.0629 51.8889 54.8606L51.879 51.4323C51.8779 51.23 51.7707 51.0431 51.5949 50.9425ZM48.9029 55.6057L48.8973 53.4819L50.7502 52.4118L50.7558 54.5355L48.9029 55.6057Z" fill="black"/>
<path d="M56.8506 47.9089C56.6759 47.8094 56.4604 47.8083 56.2857 47.9101L53.3018 49.6325C53.126 49.7331 53.0177 49.921 53.0188 50.1233L53.0288 53.5505C53.0299 53.7528 53.1371 53.9397 53.3129 54.0403C53.4944 54.1437 53.7088 54.1376 53.8778 54.0392L56.8617 52.3167C57.0375 52.2161 57.1458 52.0282 57.1447 51.8259L57.1347 48.3987C57.1336 48.1964 57.0264 48.0096 56.8506 47.9089ZM54.1575 52.571L54.152 50.4484L56.006 49.3782L56.0115 51.5009L54.1575 52.571Z" fill="black"/>
<path d="M55.1469 39.7909C55.1469 36.4139 52.9134 35.3526 50.1543 36.9519C47.0776 38.7274 44.4884 43.2126 44.5005 46.7437C44.5005 50.152 46.7324 51.1775 49.4932 49.5805C52.5699 47.8061 55.1591 43.3231 55.1469 39.7909ZM45.6326 46.7415C45.6227 43.5641 47.952 39.53 50.7214 37.9314C52.7072 36.7789 54.0148 37.2877 54.0148 39.7931V39.7954C54.0248 42.9705 51.6954 47.0024 48.926 48.5999C46.8729 49.7898 45.6326 49.1633 45.6326 46.7415Z" fill="black"/>
<path d="M52.3974 41.7533C52.32 41.5654 52.1487 41.4327 51.9475 41.4062L48.8309 40.9938C48.6717 40.9717 48.5059 41.0236 48.3832 41.1298C48.2605 41.2381 48.1908 41.394 48.1908 41.5565L48.203 45.9654C48.2041 46.2075 48.3578 46.422 48.5866 46.5005C48.8201 46.5783 49.069 46.4996 49.2157 46.3114L52.32 42.3149C52.4449 42.1546 52.4737 41.9401 52.3974 41.7533ZM49.3306 44.3193L49.3251 42.201L50.8209 42.4L49.3306 44.3193Z" fill="black"/>
</svg>
