<svg width="93" height="92" viewBox="0 0 93 92" fill="none" xmlns="http://www.w3.org/2000/svg">
<rect x="0.5" width="92" height="92" rx="46" fill="white"/>
<path d="M64.1712 62.1989L62.5975 63.0712C62.3239 63.2232 62.2249 63.5675 62.3764 63.8406C62.5281 64.1148 62.8737 64.2125 63.1458 64.0617L64.7196 63.1894C64.9932 63.0374 65.0921 62.6931 64.9407 62.42C64.7892 62.1458 64.4443 62.0485 64.1712 62.1989Z" fill="black"/>
<path d="M65.5836 62.0629C65.735 62.3371 66.0805 62.436 66.353 62.284L70.1362 60.1873C70.4125 60.0342 70.5107 59.6846 70.3523 59.4096L65.8645 51.6162C65.8641 51.6156 65.8642 51.615 65.8638 51.6144C65.8635 51.6138 65.8629 51.6135 65.8626 51.6129L60.7361 42.7106C60.7359 42.7103 60.7362 42.7108 60.7361 42.7106C60.7359 42.7103 60.7354 42.7095 60.7352 42.7092L55.6111 33.811C46.4696 17.9504 47.2341 19.2454 47.1158 19.0741C46.8661 18.7201 46.3739 18.7778 46.1766 19.1047C45.9681 19.4503 22.7301 59.2719 22.6493 59.4118C22.4887 59.6848 22.5859 60.0395 22.8649 60.1929L46.2985 73.0967C46.4681 73.1903 46.6748 73.1905 46.8457 73.0962L61.0514 65.2225C61.325 65.0705 61.424 64.7261 61.2725 64.4531C61.1211 64.1789 60.7767 64.081 60.5031 64.232L47.1393 71.6391L47.1529 63.0165L65.1644 52.6689L69.0843 59.4759L65.8047 61.2934C65.5311 61.4449 65.4321 61.7898 65.5836 62.0629ZM33.1232 43.71L46.0394 51.1754L46.0227 61.72L28.5138 51.6085L33.1232 43.71ZM38.3078 34.826L46.0581 39.3064L46.0414 49.8688L33.6939 42.7321L38.3078 34.826ZM47.2183 21.505L54.3488 33.8873L47.1923 38.026L47.2183 21.505ZM46.0602 37.9987L38.8785 33.848L46.0862 21.4972L46.0602 37.9987ZM47.1902 39.3351L54.9137 34.8681L59.4724 42.7845L47.1736 49.8656L47.1902 39.3351ZM27.943 52.5864L46.0207 63.0262L46.0071 71.644L23.9196 59.4809L27.943 52.5864ZM47.155 61.7094L47.1715 51.1729L60.0371 43.7652L64.5994 51.6879L47.155 61.7094Z" fill="black"/>
</svg>
