<svg width="93" height="92" viewBox="0 0 93 92" fill="none" xmlns="http://www.w3.org/2000/svg">
<rect x="0.5" width="92" height="92" rx="46" fill="white"/>
<path d="M29.0495 67.5995L36.3295 71.7973C36.3482 71.808 36.3692 71.8047 36.3884 71.813C36.3954 71.817 36.4011 71.8226 36.408 71.8266C40.7908 74.3489 46.1004 73.0141 50.4948 70.4767C61.1622 64.3177 69.812 49.3299 69.7777 37.0661C69.7611 31.026 67.6749 26.5049 63.905 24.3352C54.0341 18.654 57.4337 20.6211 56.6969 20.1983C53.0442 18.0701 48.2229 18.4211 43.122 21.1883C42.8467 21.3375 42.745 21.6808 42.8942 21.9555C43.0446 22.2314 43.3906 22.3314 43.6615 22.1833C48.4031 19.6107 52.8308 19.2536 56.1287 21.1778L59.3139 23.0144C56.4178 22.8529 53.1715 23.7449 49.805 25.6879C43.5931 29.2742 38.0811 35.8587 34.5554 43.1493C32.0226 48.367 30.4992 53.9461 30.5011 59.0603C30.5099 62.8993 31.3512 66.1264 32.9255 68.5276L29.6177 66.62C26.2248 64.645 24.3554 60.4688 24.3543 54.8604C24.341 45.6191 29.4608 34.4598 37.0945 27.0924C37.319 26.8752 37.3256 26.517 37.1078 26.292C36.8922 26.0676 36.534 26.061 36.3074 26.2777C28.468 33.8457 23.2089 45.3322 23.2222 54.8609C23.2233 60.8883 25.2918 65.4122 29.0495 67.5995ZM68.6456 37.0694C68.6788 48.9717 60.2833 63.5184 49.9288 69.4961C45.0025 72.3412 40.4023 72.8182 36.9718 70.8454C33.5634 68.8836 31.6774 64.703 31.6608 59.073C31.6467 54.0264 33.1613 48.5076 35.6877 43.365C39.1279 36.3881 44.4388 30.1115 50.4031 26.6823C55.3216 23.8587 59.9118 23.3806 63.3335 25.3324L63.4076 25.3755C63.4185 25.3818 63.4306 25.3816 63.4418 25.387C66.7792 27.3726 68.6303 31.5092 68.6456 37.0694Z" fill="black"/>
<path d="M39.2139 25.203C39.8573 24.6773 40.5151 24.1798 41.1696 23.7244C41.4261 23.5458 41.4902 23.1931 41.3111 22.9367C41.1331 22.6791 40.7794 22.6155 40.524 22.7946C39.8441 23.2667 39.1631 23.7824 38.4975 24.3274C38.2554 24.5253 38.22 24.8819 38.4179 25.124C38.5296 25.2605 38.6921 25.3313 38.8557 25.3313C38.9818 25.3313 39.1089 25.2893 39.2139 25.203Z" fill="black"/>
<path d="M62.0648 39.469C61.273 33.8575 57.0952 31.3919 51.8422 33.3975L51.8337 30.4666C51.8326 30.2648 51.7253 30.0786 51.5496 29.9774C51.3749 29.8768 51.1593 29.8773 50.9846 29.978L48.6597 31.3201C48.4839 31.4218 48.3766 31.6092 48.3766 31.812L48.3862 35.2949C42.9265 39.2046 38.6867 46.6604 38.1648 53.2678L34.9001 55.1528C34.7243 55.2545 34.6171 55.4419 34.6171 55.6448L34.6237 58.3069C34.6237 58.7399 35.0961 59.0125 35.4728 58.7956L38.3373 57.1419C38.8047 59.6491 40.0129 61.5617 41.8053 62.5677C42.7572 63.1022 43.8439 63.3681 45.0169 63.3681C46.1053 63.3681 47.2688 63.1258 48.4637 62.668L48.4739 66.1994C48.4757 66.5127 48.7291 66.7638 49.04 66.7638C49.1373 66.7638 49.2357 66.7383 49.323 66.688L51.6479 65.3454C51.8237 65.2436 51.931 65.0563 51.931 64.8534L51.9198 60.7895C57.216 56.9802 61.3434 49.931 62.082 43.4328L65.4075 41.5126C65.5833 41.4109 65.6917 41.2235 65.6905 41.0207L65.6828 38.3591C65.6817 38.1573 65.5745 37.971 65.3987 37.8699C65.224 37.7693 65.0084 37.7698 64.8337 37.8704L62.0648 39.469ZM50.7049 31.4472C50.7066 32.0683 50.7224 37.7422 50.7214 37.3885L50.7215 37.4011C50.6083 37.4666 49.4176 38.1556 49.5308 38.0901L49.522 35.5737C49.522 35.5703 49.5194 35.5677 49.5194 35.5644L49.5098 32.1365L50.7049 31.4472ZM35.7502 55.9693L40.9463 52.9694C40.9467 53.0834 40.9511 54.4394 40.9507 54.3254C40.8359 54.3917 35.6388 57.3926 35.7536 57.3263L35.7502 55.9693ZM49.6027 65.2188C49.6025 65.1025 49.5897 58.8742 49.5905 59.2676L50.7812 58.5762L50.7978 64.5289L49.6027 65.2188ZM51.9177 59.3815L51.9111 57.5922C51.9088 57.1356 51.4045 56.9066 51.062 57.1041C51.0619 57.1042 51.061 57.1046 51.0609 57.1046C50.8691 57.2154 48.5904 58.5308 48.7359 58.4468C48.5602 58.5485 48.4518 58.7359 48.4529 58.9387C48.4532 59.055 48.4588 61.625 48.4585 61.461C46.1423 62.4505 43.9876 62.4953 42.3592 61.5804C40.7667 60.6869 39.7123 58.8882 39.3736 56.5436L41.8009 55.1423C41.8014 55.142 41.8015 55.1415 41.802 55.1412C41.8034 55.1404 41.8039 55.1387 41.8053 55.1379C41.988 55.0294 42.086 54.8412 42.085 54.6487C42.0846 54.5354 42.0756 51.8145 42.0762 51.9882C42.0751 51.7864 41.9678 51.6002 41.792 51.499C41.6174 51.3984 41.4018 51.3989 41.2271 51.4995L41.2254 51.5005C41.2253 51.5006 41.2256 51.5004 41.2254 51.5005L39.3643 52.573C40.0849 46.7431 43.708 40.3697 48.3901 36.6972L48.3965 39.0733C48.3989 39.5119 48.8797 39.7807 49.2522 39.5636C49.3659 39.4977 51.7219 38.1321 51.5717 38.2192C51.7474 38.1175 51.8558 37.9301 51.8547 37.7273V37.725L51.8546 37.7036L51.8456 34.6071C56.7726 32.5062 60.4828 34.7864 61.0086 40.0787L58.5067 41.5231C58.3309 41.6248 58.2226 41.8122 58.2237 42.0151C58.2239 42.1283 58.2284 44.8515 58.2281 44.6778C58.2281 45.113 58.7003 45.3852 59.0772 45.1681C59.1905 45.1027 60.9615 44.0798 60.8482 44.1452C59.9404 49.7607 56.3652 55.8621 51.9177 59.3815ZM59.3602 43.6966V42.3446C59.4749 42.2782 64.8946 39.1426 64.554 39.3397L64.5574 40.6962C64.2755 40.8589 59.1055 43.8437 59.3602 43.6966Z" fill="black"/>
<path d="M49.8569 48.6184C47.501 49.9793 45.6603 53.1672 45.668 55.8757L45.6691 56.3384C45.6691 56.771 46.1406 57.0451 46.5182 56.8276L54.3565 52.3026C54.5322 52.2009 54.6395 52.0135 54.6395 51.8112L54.6384 51.348C54.6292 48.4136 52.4022 47.1496 49.8569 48.6184ZM53.5063 51.4862L46.8266 55.3423C47.0422 53.1545 48.5711 50.6686 50.4229 49.599C52.2093 48.5684 53.4994 49.2926 53.5063 51.3508V51.4862Z" fill="black"/>
<path d="M50.4152 47.2924C51.7021 46.5489 52.707 44.8104 52.7037 43.334C52.6968 41.6224 51.3339 40.8342 49.837 41.6961C48.5524 42.4374 47.5497 44.1775 47.5552 45.6567C47.5598 47.3613 48.9312 48.1488 50.4152 47.2924ZM50.4031 42.6767C51.1031 42.2728 51.5692 42.4645 51.5716 43.3378C51.575 44.4091 50.7856 45.7711 49.8492 46.3117C49.1441 46.7203 48.6897 46.5076 48.6873 45.6528C48.684 44.5783 49.4689 43.2151 50.4031 42.6767Z" fill="black"/>
</svg>
