<svg width="93" height="92" viewBox="0 0 93 92" fill="none" xmlns="http://www.w3.org/2000/svg">
<rect x="0.5" width="92" height="92" rx="46" fill="white"/>
<path d="M31.3536 50.4001C31.3558 50.4012 31.3569 50.4023 31.358 50.4023C31.3594 50.4032 31.3611 50.4027 31.3625 50.4036C31.3675 50.4065 31.3718 50.4105 31.3768 50.4134C32.9476 51.3192 34.827 50.8802 36.4048 49.969C40.0365 47.8728 42.9817 42.7785 42.9706 38.6128C42.9651 36.4725 42.2078 34.8595 40.8391 34.0724C40.8315 34.068 40.8231 34.0655 40.8155 34.0612L37.0162 31.8491C35.6442 31.0531 33.8499 31.2046 31.9594 32.2836C28.3377 34.3731 25.4002 39.4718 25.4113 43.6486C25.4113 45.7778 26.1619 47.3831 27.5229 48.1691L31.3536 50.4001ZM41.8385 38.615C41.8496 42.4192 39.1576 47.0735 35.8388 48.9894C34.3352 49.8562 32.95 50.0121 31.9417 49.4328C30.8136 48.7835 30.3865 47.2291 30.3786 45.8813C30.3786 45.8804 30.3787 45.8795 30.3787 45.8785C30.369 42.1668 32.9445 37.5451 36.2695 35.5608C39.4071 33.6878 41.8292 35.0006 41.8385 38.615ZM26.5434 43.6475C26.5323 39.83 29.2166 35.1724 32.5232 33.2664C33.721 32.5807 35.2453 32.1291 36.4468 32.8275L37.9105 33.6799C37.8972 33.6827 37.883 33.6894 37.8697 33.6923C37.2128 33.834 36.3677 34.1865 35.7945 34.5179C32.1717 36.614 29.2354 41.7128 29.2464 45.8851C29.2484 46.5342 29.3616 47.4261 29.5626 48.0478L28.0911 47.1907C27.0928 46.6136 26.5434 45.3555 26.5434 43.6475Z" fill="black"/>
<path d="M35.8763 64.1211C34.3297 65.0132 33.1213 67.1049 33.1268 68.8838L33.128 69.1756C33.1291 69.3779 33.2374 69.5637 33.4121 69.6643C33.5936 69.7677 33.808 69.7616 33.977 69.6632L38.9243 66.8064C39.099 66.7058 39.2073 66.519 39.2073 66.3167V66.0237C39.2027 64.0142 37.6251 63.1097 35.8763 64.1211ZM34.3429 68.1452C34.6072 66.9479 35.4606 65.6677 36.4424 65.1006C37.3753 64.5606 38.0557 64.8395 38.0753 65.9905L34.3429 68.1452Z" fill="black"/>
<path d="M36.4368 63.4102C37.308 62.9072 37.9879 61.7298 37.9857 60.7304C37.9834 59.5039 36.9603 58.887 35.8631 59.5154C34.9941 60.0162 34.3153 61.1947 34.3175 62.1974C34.3198 63.4335 35.3629 64.0304 36.4368 63.4102ZM36.4291 60.4971C36.7442 60.3167 36.8536 60.3781 36.8536 60.7326C36.8547 61.334 36.3959 62.1267 35.8708 62.4296C35.5682 62.6004 35.4496 62.5685 35.4496 62.1952C35.4485 61.5916 35.9051 60.7978 36.4291 60.4971Z" fill="black"/>
<path d="M35.8166 41.861C34.27 42.7531 33.0627 44.8448 33.0683 46.6236L33.0694 46.9155C33.0711 47.2272 33.3237 47.4793 33.6354 47.4793C33.7327 47.4793 33.8311 47.4539 33.9184 47.4031L38.8657 44.5463C39.0404 44.4457 39.1487 44.2589 39.1487 44.0566V43.7636C39.1442 41.7777 37.584 40.8398 35.8166 41.861ZM34.2844 45.8851C34.5486 44.6878 35.4021 43.4076 36.3827 42.8405C37.3272 42.2958 37.9972 42.5874 38.0167 43.7304L34.2844 45.8851Z" fill="black"/>
<path d="M36.3782 41.1501C37.2494 40.6471 37.9293 39.4697 37.9271 38.4703C37.9248 37.2317 36.8837 36.6301 35.8045 37.2564C34.9355 37.7583 34.2567 38.9357 34.2589 39.9373C34.2612 41.1734 35.3043 41.7704 36.3782 41.1501ZM36.3705 38.2359C36.7016 38.0447 36.795 38.1257 36.795 38.4725C36.7961 39.0739 36.3373 39.8666 35.8122 40.1695C35.5109 40.3396 35.391 40.3099 35.391 39.9351C35.3899 39.3326 35.8476 38.5388 36.3705 38.2359Z" fill="black"/>
<path d="M27.5782 70.4337C27.6918 70.4997 31.6799 72.8157 31.4255 72.668L31.4286 72.6688C31.431 72.6702 31.433 72.6722 31.4354 72.6735C33.0062 73.5793 34.8856 73.1404 36.4634 72.2291C40.0951 70.133 43.0403 65.0387 43.0292 60.873C43.0237 58.7415 42.2724 57.136 40.9158 56.3439C40.9117 56.3414 40.9096 56.3372 40.9055 56.3347C40.9022 56.3336 40.8989 56.3314 40.8955 56.3292L37.0737 54.1148C35.6973 53.3011 33.8997 53.457 32.0136 54.5482C28.3908 56.6432 25.4544 61.7419 25.4655 65.9154C25.4776 68.0413 26.2272 69.6455 27.5782 70.4337ZM41.8972 60.8752C41.9082 64.6794 39.2162 69.3337 35.8974 71.2496C34.3938 72.1164 33.0086 72.2722 32.0003 71.6929C30.8358 71.0226 30.4415 69.4878 30.4371 68.143C30.4308 65.9831 31.2904 63.5537 32.6376 61.505C33.6704 59.9362 34.9888 58.5901 36.4258 57.7609C37.6099 57.0773 39.1445 56.627 40.3328 57.3131C41.3367 57.8902 41.8927 59.1561 41.8972 60.8752ZM32.5797 55.5277C33.7842 54.8327 35.3016 54.3836 36.5021 55.0921L37.9692 55.9423C37.9606 55.9441 37.9515 55.9484 37.943 55.9502C37.2677 56.094 36.4426 56.4431 35.8565 56.7814C34.2433 57.712 32.7681 59.2402 31.6263 61.0162C30.2009 63.2305 29.2951 65.8306 29.3006 68.1486C29.3039 68.7418 29.4117 69.6448 29.6147 70.2828C29.6176 70.2917 29.6184 70.3022 29.6212 70.311L28.1475 69.4553C27.1581 68.8771 26.6075 67.6179 26.5976 65.9109C26.5865 62.1001 29.2708 57.4425 32.5797 55.5277Z" fill="black"/>
<path d="M43.7047 35.8932C43.7058 36.0933 43.813 36.2791 43.9866 36.3808C44.1012 36.4474 47.9423 38.6788 47.8277 38.6122C47.8274 38.612 47.828 38.6123 47.8277 38.6122C48.0092 38.7156 48.2243 38.7102 48.3933 38.6118L67.2472 27.7266C67.423 27.626 67.5313 27.438 67.5302 27.2357L67.5148 21.624C67.5139 21.4619 67.3743 21.2177 67.2328 21.1353L63.3933 18.9044C63.2208 18.8038 63.003 18.8026 62.8262 18.9044L52.4296 24.9063C52.1588 25.0622 52.0659 25.4083 52.2229 25.6791C52.3777 25.95 52.7237 26.0417 52.9957 25.8859L55.3056 24.5524L58.2305 26.0051L48.0948 31.8569L47.6307 31.5873L45.3837 30.281L48.7924 28.3125C49.0633 28.1566 49.1561 27.8106 48.9991 27.5398C48.8433 27.2678 48.4961 27.1749 48.2264 27.333L43.9711 29.7895C43.77 29.9054 43.6881 30.1208 43.6881 30.2782C43.6881 30.3944 43.7044 36.0095 43.7047 35.8932ZM44.8357 35.5649L44.8235 31.2652L47.5286 32.8378C47.529 32.954 47.5416 37.38 47.5409 37.137L44.8357 35.5649ZM48.6608 32.8375L58.8647 26.9457L58.8732 31.2546L48.6734 37.1433C48.6727 36.9003 48.6601 32.5944 48.6608 32.8375ZM60.004 30.6017L59.9955 26.2928L66.3849 22.6038L66.3971 26.9107L60.004 30.6017ZM56.4838 23.8724L63.1081 20.0486L65.8189 21.624L59.4085 25.3249L56.4838 23.8724Z" fill="black"/>
<path d="M50.3025 27.4402L51.6458 26.6653C51.9166 26.5094 52.0095 26.1633 51.8525 25.8925C51.6966 25.6216 51.3495 25.5266 51.0797 25.6858L49.7365 26.4607C49.4656 26.6166 49.3728 26.9627 49.5297 27.2335C49.685 27.5044 50.0323 27.597 50.3025 27.4402Z" fill="black"/>
<path d="M67.5888 49.4959L67.5734 43.8841C67.5724 43.7071 67.3993 43.4583 67.2914 43.3955L63.4519 41.1645C63.2783 41.0639 63.0605 41.0628 62.8848 41.1645C55.9084 45.192 51.128 47.9517 44.0297 52.0497C43.8286 52.1655 43.7467 52.3809 43.7467 52.5383C43.7467 52.5389 43.7471 52.5393 43.7471 52.54C43.7471 52.6562 43.763 58.2696 43.7633 58.1534C43.7644 58.3535 43.8716 58.5392 44.0452 58.6409C44.1598 58.7075 48.0009 60.9389 47.8863 60.8723C47.886 60.8722 47.8865 60.8724 47.8863 60.8723C48.0678 60.9757 48.2829 60.9703 48.4519 60.8719C66.6197 50.3829 56.5866 56.1754 67.3058 49.9867C67.4816 49.8861 67.5899 49.6982 67.5888 49.4959ZM48.7194 55.0965C48.8327 55.0312 53.8224 52.1509 53.515 52.3284L53.5234 56.6372L48.732 59.4035C48.7313 59.1604 48.7187 54.8535 48.7194 55.0965ZM50.244 49.7689L52.9552 51.3439L48.1534 54.1159L45.4426 52.5405L50.244 49.7689ZM63.1667 42.3087L65.8775 43.8841L54.0849 50.6918L51.3745 49.1161L63.1667 42.3087ZM44.8943 57.825L44.8821 53.5251L47.5872 55.0969C47.5876 55.2131 47.6002 59.6402 47.5995 59.3971L44.8943 57.825ZM54.6543 55.9843L54.6458 51.675C54.9918 51.4753 66.0028 45.1183 66.4435 44.8638L66.4557 49.1708L54.6543 55.9843Z" fill="black"/>
</svg>
