<svg width="93" height="92" viewBox="0 0 93 92" fill="none" xmlns="http://www.w3.org/2000/svg">
<rect x="0.5" width="92" height="92" rx="46" fill="white"/>
<path d="M46.2171 21.7609L43.7761 23.1699C43.5052 23.3264 43.4124 23.6724 43.5688 23.9433C43.7267 24.2159 44.0739 24.3055 44.3421 24.1506L46.7831 22.7415C47.054 22.5851 47.1469 22.2391 46.9904 21.9682C46.834 21.6974 46.4863 21.6045 46.2171 21.7609Z" fill="black"/>
<path d="M34.6918 65.9406L40.7356 69.453C42.4606 70.5029 44.4118 71.3408 46.577 72.0775L49.6349 73.1383C49.8753 73.2227 50.1481 73.134 50.2921 72.9171L53.3434 68.3297C62.4459 54.6774 67.7072 43.6518 67.6619 27.6933C67.6613 27.4915 67.553 27.3052 67.3783 27.2041C67.3712 27.2 67.3627 27.2017 67.3555 27.198L60.9219 23.4508C60.7467 23.3479 60.53 23.349 60.3548 23.4496C59.7312 23.8089 59.1295 24.0663 58.5432 24.2713C58.4974 23.9125 58.4654 23.5415 58.4643 23.1451C58.4171 23.0318 58.4335 22.8029 58.1829 22.6575L58.1816 22.6568L58.1807 22.6559L58.1796 22.6555L51.7293 18.907C51.553 18.8042 51.3369 18.8053 51.1616 18.9059L48.4006 20.5001C48.1297 20.6565 48.0368 21.0025 48.1933 21.2734C48.3491 21.5437 48.6952 21.6366 48.9666 21.4807L51.4436 20.0501L56.769 23.1451L41.5094 31.9554C41.3318 31.8522 36.0361 28.7746 36.1843 28.8607L42.0116 25.496C42.2825 25.3396 42.3753 24.9935 42.2189 24.7227C42.0619 24.4513 41.7142 24.359 41.4456 24.5154L34.772 28.3688C34.595 28.4712 34.4895 28.6597 34.489 28.8585L34.4892 28.8596L34.489 28.8607C34.5039 34.1065 30.5256 40.6784 25.6208 43.5103C25.4439 43.6127 25.3383 43.8012 25.3378 44L25.3381 44.0011L25.3378 44.0022C25.3704 55.5889 28.1675 62.1497 34.6918 65.9406ZM26.4793 44.9896C26.6258 45.0748 31.9066 48.1438 31.7931 48.0778C31.8358 54.042 32.6092 60.8735 36.27 65.5488L35.2601 64.9622C29.2327 61.4593 26.6556 55.6374 26.4793 44.9896ZM52.401 67.7023L49.5923 71.9255L46.9451 71.0073C37.9866 67.9586 33.0461 63.1012 32.9291 48.0697C37.7093 45.158 41.9218 38.5515 42.0708 32.9388L57.3765 24.1017C57.5505 25.9769 58.294 27.7994 59.9199 28.8113C61.9681 30.0736 64.3693 29.6837 66.5259 28.638C66.3634 43.8054 61.2022 54.5021 52.401 67.7023ZM60.6317 24.5917L65.9195 27.6716C64.3647 28.4043 62.4012 28.8374 60.8467 28.0443C59.9837 27.6221 59.1957 26.7551 58.7916 25.4583C58.7868 25.443 58.7837 25.426 58.779 25.4105C59.3809 25.2095 60.0017 24.9356 60.6317 24.5917ZM35.5834 29.8209C35.7451 29.9148 41.2691 33.125 40.9289 32.9273C40.7886 38.199 36.8845 44.3204 32.3457 47.0895L27.0011 43.9834C31.5493 40.9377 35.1794 34.9429 35.5834 29.8209Z" fill="black"/>
<path d="M60.0944 33.7428C59.9192 33.6422 59.7031 33.6428 59.529 33.7434L40.0521 44.9884C39.8763 45.0901 39.7685 45.2775 39.769 45.4804L39.8122 61.1592C39.8127 61.3609 39.9211 61.5472 40.0957 61.6484C40.2679 61.7475 40.4841 61.7498 40.6612 61.6478L60.1381 50.4028C60.3139 50.3011 60.4217 50.1137 60.4211 49.9108L60.378 34.232C60.3775 34.0303 60.2691 33.844 60.0944 33.7428ZM40.9415 60.1785L40.9022 45.8048L59.2487 35.2126L59.2879 49.5863L40.9415 60.1785Z" fill="black"/>
<path d="M44.9082 54.852L42.9049 56.0084C42.6341 56.1648 42.5412 56.5109 42.6976 56.7817C42.8545 57.0533 43.2016 57.1446 43.471 56.989L45.4742 55.8326C45.7451 55.6762 45.8379 55.3302 45.6815 55.0593C45.5245 54.7873 45.1779 54.6956 44.9082 54.852Z" fill="black"/>
<path d="M48.845 52.579L46.8417 53.7354C46.5709 53.8919 46.478 54.2379 46.6345 54.5088C46.7913 54.7803 47.1384 54.8717 47.4078 54.716L49.411 53.5597C49.6819 53.4032 49.7748 53.0572 49.6183 52.7863C49.4613 52.5144 49.1147 52.4232 48.845 52.579Z" fill="black"/>
<path d="M52.7824 50.306L50.7791 51.4624C50.5083 51.6189 50.4154 51.9649 50.5718 52.2357C50.7287 52.5073 51.0758 52.5987 51.3452 52.443L53.3484 51.2866C53.6193 51.1302 53.7121 50.7842 53.5557 50.5133C53.3982 50.2419 53.0516 50.1501 52.7824 50.306Z" fill="black"/>
<path d="M56.7192 48.0325L54.716 49.1894C54.4451 49.3459 54.3522 49.6919 54.5087 49.9628C54.6655 50.2344 55.0126 50.3257 55.282 50.1701L57.2852 49.0131C57.5561 48.8567 57.649 48.5106 57.4925 48.2398C57.3361 47.9684 56.9884 47.8755 56.7192 48.0325Z" fill="black"/>
<path d="M46.0778 46.4543C45.9032 46.3537 45.6881 46.3537 45.5123 46.4543L42.366 48.2702C42.1907 48.3713 42.0824 48.5587 42.0829 48.7616L42.0896 52.1606C42.0901 52.3629 42.1979 52.5492 42.3732 52.6503C42.5508 52.752 42.7671 52.7495 42.9392 52.6492L46.085 50.8273C46.2602 50.7261 46.368 50.5388 46.3675 50.3364L46.3614 46.9435C46.3608 46.7418 46.2531 46.5549 46.0778 46.4543ZM43.22 51.1789L43.2156 49.0872L45.231 47.9236L45.2349 50.0114L43.22 51.1789Z" fill="black"/>
<path d="M57.8187 38.4021C57.644 38.3015 57.4279 38.3015 57.2532 38.4021L52.4872 41.1533C52.312 41.2544 52.2036 41.4418 52.2042 41.6447L52.2091 44.3737C52.2097 44.576 52.3175 44.7623 52.4927 44.8635C52.6655 44.963 52.8817 44.9648 53.0587 44.8624L57.8247 42.1051C58 42.004 58.1078 41.8166 58.1072 41.6143L58.1022 38.8913C58.1017 38.6896 57.9939 38.5027 57.8187 38.4021ZM53.3396 43.392L53.3368 41.9703L56.9718 39.8719L56.9746 41.2892L53.3396 43.392Z" fill="black"/>
</svg>
