<svg width="93" height="92" viewBox="0 0 93 92" fill="none" xmlns="http://www.w3.org/2000/svg">
<rect x="0.5" width="92" height="92" rx="46" fill="white"/>
<path d="M59.34 63.28C59.1 63.4 58.98 63.76 59.1 64.12C59.22 64.36 59.58 64.48 59.94 64.36L61.14 63.64C61.62 64.12 62.1 64.6 62.58 64.84C63.3 65.32 64.26 65.44 64.98 64.96C66.18 64.24 67.5 63.52 67.26 63.64C67.86 63.28 68.34 62.44 68.34 61.48C68.34 60.64 68.1 59.8 67.74 59.2V55.72C67.74 55.48 67.62 55.36 67.5 55.24L58.86 49.96C58.98 48.52 58.98 46.6 58.86 45.04C58.86 44.92 58.38 41.2 56.94 37.84C56.7 37.36 56.58 36.88 56.34 36.52C56.1 35.68 55.26 34.96 54.18 34.36C52.98 33.76 51.54 33.4 50.1 33.4V29.68C50.1 29.44 49.98 29.32 49.74 29.2L46.62 27.4C46.38 27.28 46.26 27.28 46.02 27.4L44.82 28.12V21.64C44.82 20.92 44.46 20.2 43.74 19.72L39.3 17.2C38.22 16.6 36.9 16.96 36.42 18.04C35.82 19.12 36.18 20.32 37.26 20.92L40.5 22.84V30.52L33.42 34.72V28.24C33.42 27.52 33.06 26.8 32.34 26.32L27.9 23.8C26.82 23.2 25.5 23.56 24.9 24.64C24.3 25.6 24.66 26.92 25.74 27.52L29.1 29.44V37.12C28.98 37.24 27.54 38.08 27.66 37.96C27.42 38.2 27.3 38.44 27.3 38.56V57.64C26.94 57.88 26.34 58.12 26.22 58.24C25.62 58.6 25.26 59.44 25.26 60.4C25.26 62.2 26.46 64.36 28.14 65.32C28.86 65.8 29.82 65.92 30.54 65.56L32.82 64.24C33.42 63.88 33.78 63.16 33.9 62.2L43.5 67.72L43.38 67.84C42.78 68.2 42.54 68.92 42.42 69.88C42.42 71.68 43.62 73.84 45.3 74.8C46.02 75.28 46.98 75.4 47.7 75.04C48.18 74.8 50.22 73.6 50.1 73.72C50.7 73.36 51.18 72.52 51.18 71.56C51.18 71.08 51.06 70.48 50.82 70L55.86 67.12C56.1 67 56.22 66.64 56.1 66.28C55.98 66.04 55.62 65.92 55.26 66.04L49.62 69.28V67L66.66 56.8V59.08C46.86 70.48 76.62 53.2 59.34 63.28ZM28.5 57.64V39.64L30.42 40.72V56.2C30.42 56.44 30.66 56.56 30.78 56.68L48.3 66.76V69.04C26.82 56.68 28.98 57.88 28.5 57.64ZM48.78 30.76V33.4C47.1 33.4 45.42 33.76 44.1 34.48C42.06 35.56 42.06 36.52 41.7 37.24C40.26 40 39.66 43.84 39.54 43.96C39.18 45.64 39.06 48.16 39.42 50.44L31.74 55.12V40.72C55.14 27.04 47.1 31.72 48.78 30.76ZM44.34 40.36C43.98 41.92 43.62 43.36 43.5 44.8C42.66 44.56 41.7 44.2 40.98 43.72C41.22 42.4 41.58 41.08 42.42 38.8C42.66 39.28 43.38 39.88 44.34 40.36ZM48.78 41.32V45.64C47.34 45.64 45.9 45.4 44.58 45.16C44.82 43.72 45.06 42.28 45.42 40.84C46.38 41.08 47.58 41.2 48.78 41.32ZM52.86 40.72C53.22 42.16 53.46 43.6 53.7 45.04C52.5 45.28 51.18 45.4 49.98 45.52V41.2C50.82 41.2 51.9 41.08 52.86 40.72ZM53.58 55.36C52.38 55.6 51.18 55.72 49.86 55.84V46.84C51.18 46.84 52.5 46.6 53.82 46.36C54.18 49.36 54.06 52.24 53.58 55.36ZM54.66 56.32C55.26 56.2 55.74 55.96 56.22 55.84C55.62 57.64 55.14 58.36 55.14 58.6C55.02 58.96 54.54 59.44 53.94 59.8C54.3 58.6 54.54 57.4 54.66 56.32ZM53.46 56.68C53.22 57.88 52.98 59.08 52.62 60.4C51.78 60.64 50.94 60.76 49.98 60.88V57.04C51.18 56.92 52.26 56.8 53.46 56.68ZM44.58 55.36C44.1 52.24 44.1 49.36 44.34 46.24C45.66 46.48 47.1 46.72 48.66 46.72V55.72C47.34 55.84 45.9 55.6 44.58 55.36ZM48.78 57.04V60.88C47.7 60.88 46.62 60.64 45.78 60.4C45.42 59.08 45.18 57.88 44.94 56.68C46.02 56.8 47.34 57.04 48.78 57.04ZM40.62 44.92C41.34 45.28 42.18 45.64 43.26 45.88C42.9 48.88 42.9 51.88 43.38 54.88C42.66 54.64 42.06 54.4 41.46 54.16C40.5 51.4 40.26 48.16 40.62 44.92ZM43.5 56.32C43.74 57.4 43.86 58.48 44.22 59.68C43.62 59.32 43.26 58.96 43.14 58.48C43.02 58.24 42.9 58.12 41.94 55.72C42.42 55.96 43.02 56.2 43.5 56.32ZM63.18 63.88C62.82 63.64 62.58 63.4 62.22 63.04L64.62 61.72C64.74 62.08 64.86 62.56 64.86 62.92C64.86 64 64.14 64.48 63.18 63.88ZM66.66 62.68L65.94 63.04V62.92C65.94 62.44 65.82 61.72 65.58 61.12L66.9 60.4C67.02 60.88 67.14 61.24 67.14 61.6C67.14 62.08 67.02 62.44 66.66 62.68ZM58.74 51.4L66.06 55.84L48.9 65.8L32.22 56.2L39.54 51.76C40.02 54.76 41.7 58.72 42.06 59.2C43.02 61.36 46.74 62.2 49.38 62.2C51.42 62.2 53.1 61.72 54.18 61.12C55.26 60.64 55.98 59.92 56.34 59.08C56.34 58.72 58.02 55.48 58.74 51.4ZM57.66 45.04C58.02 48.88 57.9 50.8 56.82 54.4C56.22 54.64 55.62 54.88 54.9 55.12C55.38 52 55.38 49.12 55.02 46.12C55.98 45.76 56.82 45.4 57.66 45.04ZM57.42 43.72C56.58 44.2 55.74 44.56 54.9 44.8C54.66 43.36 54.42 41.92 54.06 40.36C54.78 40 55.62 39.52 55.98 38.8C56.58 40.36 57.06 42.04 57.42 43.72ZM53.1 39.4C50.46 40.36 46.26 40.24 44.1 38.8C42.54 37.72 42.9 36.4 44.7 35.56C47.22 34.36 51.18 34.36 53.7 35.56C56.1 36.76 55.62 38.44 53.1 39.4ZM46.26 28.6L48.18 29.68C46.38 30.64 54.54 25.96 31.02 39.64C30.9 39.52 28.98 38.44 29.1 38.56C29.22 38.44 40.5 31.96 46.26 28.6ZM41.46 22L37.74 19.84C37.26 19.6 37.14 19 37.38 18.52C37.62 18.04 38.22 17.92 38.7 18.16L43.14 20.8C43.38 20.92 43.62 21.28 43.62 21.64V28.84L41.7 29.92V22.6C41.7 22.24 41.58 22.12 41.46 22ZM30.06 28.6L26.34 26.44C25.86 26.2 25.74 25.72 25.98 25.24C26.22 24.76 26.82 24.64 27.3 24.88L31.74 27.4C31.98 27.52 32.22 27.88 32.22 28.24V35.44L30.3 36.52V29.2C30.3 28.96 30.18 28.72 30.06 28.6ZM28.62 64.24C27.42 63.52 26.34 61.72 26.34 60.4C26.34 57.52 30.18 60.4 30.18 63.28C30.3 64.36 29.7 64.84 28.62 64.24ZM32.22 63.04L31.5 63.4C31.5 62.32 31.02 61 30.42 60.04L32.58 61.24C32.58 61.48 32.58 61.6 32.58 61.84C32.58 62.2 32.58 62.8 32.22 63.04ZM45.78 73.6C44.58 72.88 43.5 71.08 43.5 69.76C43.5 68.8 43.98 68.32 44.82 68.68C46.02 69.16 47.1 70.72 47.34 72.04C47.7 73.48 47.1 74.44 45.78 73.6ZM49.38 72.4L48.66 72.76C48.66 71.92 48.42 70.96 48.06 70.24L48.54 70.6C48.78 70.72 48.9 70.72 49.14 70.6L49.62 70.36C49.74 70.72 49.74 71.08 49.74 71.32C49.86 71.68 49.74 72.28 49.38 72.4Z" fill="black"/>
<path d="M57.9 64.12L56.58 64.96C56.34 65.08 56.22 65.44 56.34 65.8C56.46 66.04 56.82 66.16 57.18 66.04L58.5 65.2C58.74 65.08 58.86 64.72 58.74 64.36C58.5 64.12 58.14 64 57.9 64.12Z" fill="black"/>
</svg>
