<svg width="93" height="92" viewBox="0 0 93 92" fill="none" xmlns="http://www.w3.org/2000/svg">
<rect x="0.5" width="92" height="92" rx="46" fill="white"/>
<path d="M73.5 41.92L61.38 34.96V27.4C61.38 27.16 61.26 26.92 61.14 26.92C60.66 26.56 53.22 22.36 53.7 22.6C53.46 22.48 53.1 22.48 52.86 22.84C52.74 23.08 52.74 23.44 53.1 23.68L59.58 27.52L55.14 30.04L43.02 22.96L47.46 20.44L49.26 21.52C49.5 21.64 49.86 21.64 50.1 21.28C50.22 21.04 50.22 20.68 49.86 20.44L47.82 19.24C47.58 19.12 47.46 19.12 47.22 19.24L31.98 28C31.74 28.12 31.62 28.36 31.62 28.48V34.84L19.5 42.04C18.42 42.64 17.7 43.6 17.7 44.68C17.7 44.8 17.7 56.08 17.7 55.96C17.7 57.04 18.42 58 19.5 58.6L42.54 71.92C44.82 73.24 48.3 73.24 50.58 71.92L73.38 58.6C74.58 57.88 75.18 56.92 75.18 55.96C75.18 55.84 75.18 44.2 75.18 44.68C75.3 43.6 74.58 42.64 73.5 41.92ZM44.94 36.64C44.94 37.84 44.94 51.04 44.94 52.6C43.74 51.88 49.38 55.24 32.82 45.52C32.7 12.04 32.94 43.96 32.82 29.56C34.02 30.28 43.86 36.04 44.94 36.64ZM50.46 34.12V50.08C50.1 50.32 46.14 52.6 46.26 52.48C46.26 51.04 46.26 38.56 46.26 36.52C46.26 36.52 50.58 34 50.46 34.12ZM51.66 33.4L54.54 31.72V47.68L51.66 49.36V33.4ZM60.18 44.44L55.74 46.96V31.12L60.18 28.6C60.18 34.96 60.18 33.4 60.18 44.44ZM31.74 45.88C31.74 46.12 31.86 46.24 31.98 46.36C40.5 51.28 45.06 53.92 45.3 54.04C45.54 54.16 45.66 54.16 45.9 54.04C46.02 53.92 61.26 45.16 61.14 45.28C61.38 45.16 61.5 44.92 61.5 44.8V40.6L65.94 43.12C66.54 43.48 66.78 44.08 66.78 44.68C66.78 45.28 66.42 45.88 65.94 46.24L48.3 56.44C47.58 56.92 45.9 56.92 45.06 56.44L27.18 46.24C25.98 45.52 25.98 43.84 27.18 43.12L31.62 40.48C31.74 40.6 31.74 46.24 31.74 45.88ZM51.06 32.44L38.94 25.36L41.82 23.68L53.94 30.76L51.06 32.44ZM49.86 33.04L45.54 35.56C43.98 34.72 36.54 30.28 33.42 28.48L37.74 25.96L49.86 33.04ZM20.22 43L31.74 36.28V39.04L26.7 41.92C24.66 43.12 24.66 46 26.7 47.08L44.46 57.28C45.66 57.88 47.82 57.88 48.9 57.28L66.42 47.2C68.46 46 68.46 43.12 66.42 42.04L61.38 39.16C61.38 39.04 61.38 36.16 61.38 36.4L72.9 43C74.58 43.96 74.58 45.28 72.9 46.24L50.1 59.56C48.42 60.52 45.3 60.64 43.26 59.56L20.22 46.24C18.54 45.4 18.42 43.96 20.22 43ZM74.1 55.96C74.1 56.56 73.62 57.16 72.9 57.52L50.1 70.84C48.3 71.92 45.18 71.92 43.26 70.84L20.1 57.52C19.26 57.04 18.9 56.44 18.9 55.84V46.84C19.14 46.96 19.26 47.2 19.5 47.32L42.54 60.64C44.82 61.96 48.3 61.96 50.58 60.64L73.38 47.32C73.62 47.2 73.86 47.08 73.98 46.96L74.1 55.96Z" fill="black"/>
<path d="M21.18 51.28C20.94 51.16 20.82 51.16 20.58 51.28C20.34 51.4 20.22 51.64 20.22 51.76V54.52C20.22 54.76 20.34 54.88 20.58 55L25.14 57.64C25.26 57.64 25.38 57.76 25.5 57.76C25.86 57.76 26.1 57.52 26.1 57.16V54.4C26.1 54.16 25.98 54.04 25.74 53.92L21.18 51.28ZM24.9 56.2L21.54 54.28V52.96L24.9 54.76V56.2Z" fill="black"/>
<path d="M36.54 60.16C36.3 60.04 36.18 60.04 35.94 60.16C35.7 60.28 35.58 60.52 35.58 60.64V63.4C35.58 63.64 35.7 63.76 35.94 63.88L40.5 66.52C40.86 66.76 41.46 66.52 41.46 66.04V63.28C41.46 63.04 41.34 62.92 41.1 62.8L36.54 60.16ZM40.26 65.08L36.9 63.16V61.84L40.26 63.76V65.08Z" fill="black"/>
<path d="M28.38 55C28.02 55 27.78 55.24 27.78 55.6V59.44C27.78 59.8 28.02 60.04 28.38 60.04C28.74 60.04 28.98 59.8 28.98 59.44V55.6C28.98 55.24 28.74 55 28.38 55Z" fill="black"/>
<path d="M30.9 56.44C30.54 56.44 30.3 56.68 30.3 57.04V60.88C30.3 61.24 30.54 61.48 30.9 61.48C31.26 61.48 31.5 61.24 31.5 60.88V57.04C31.5 56.68 31.26 56.44 30.9 56.44Z" fill="black"/>
<path d="M33.3 57.88C32.94 57.88 32.7 58.12 32.7 58.48V62.32C32.7 62.68 32.94 62.92 33.3 62.92C33.66 62.92 33.9 62.68 33.9 62.32V58.48C33.9 58.12 33.66 57.88 33.3 57.88Z" fill="black"/>
<path d="M70.5 51.28C70.14 51.28 69.9 51.52 69.9 51.88V56.32C69.9 56.68 70.14 56.92 70.5 56.92C70.86 56.92 71.1 56.68 71.1 56.32V51.88C71.1 51.52 70.86 51.28 70.5 51.28Z" fill="black"/>
<path d="M67.5 52.96C67.14 52.96 66.9 53.2 66.9 53.56V58C66.9 58.36 67.14 58.6 67.5 58.6C67.86 58.6 68.1 58.36 68.1 58V53.56C68.1 53.32 67.86 52.96 67.5 52.96Z" fill="black"/>
<path d="M64.5 54.76C64.14 54.76 63.9 55 63.9 55.36V59.8C63.9 60.16 64.14 60.4 64.5 60.4C64.86 60.4 65.1 60.16 65.1 59.8V55.36C65.1 55 64.86 54.76 64.5 54.76Z" fill="black"/>
<path d="M61.5 56.56C61.14 56.56 60.9 56.8 60.9 57.16V61.6C60.9 61.96 61.14 62.2 61.5 62.2C61.86 62.2 62.1 61.96 62.1 61.6V57.16C62.1 56.8 61.86 56.56 61.5 56.56Z" fill="black"/>
<path d="M58.5 58.2401C58.14 58.2401 57.9 58.4801 57.9 58.8401V63.2801C57.9 63.6401 58.14 63.8801 58.5 63.8801C58.86 63.8801 59.1 63.6401 59.1 63.2801V58.8401C59.1 58.4801 58.74 58.2401 58.5 58.2401Z" fill="black"/>
<path d="M55.5 60.04C55.14 60.04 54.9 60.28 54.9 60.64V65.08C54.9 65.44 55.14 65.68 55.5 65.68C55.86 65.68 56.1 65.44 56.1 65.08V60.64C56.1 60.28 55.74 60.04 55.5 60.04Z" fill="black"/>
<path d="M52.38 61.72C52.02 61.72 51.78 61.96 51.78 62.32V66.76C51.78 67.12 52.02 67.36 52.38 67.36C52.74 67.36 52.98 67.12 52.98 66.76V62.32C52.98 62.08 52.74 61.72 52.38 61.72Z" fill="black"/>
<path d="M51.18 21.28C50.94 21.16 50.58 21.16 50.34 21.52C50.22 21.76 50.22 22.12 50.58 22.36L51.54 22.96C51.78 23.08 52.14 23.08 52.38 22.72C52.62 22.36 52.5 22 52.14 21.88L51.18 21.28Z" fill="black"/>
</svg>
