<svg width="93" height="92" viewBox="0 0 93 92" fill="none" xmlns="http://www.w3.org/2000/svg">
<rect x="0.5" width="92" height="92" rx="46" fill="white"/>
<path d="M75.3 52.96C75.3 52.72 75.18 52.6 75.06 52.48L70.26 49.72V35.8C70.26 35.68 70.26 35.44 70.02 35.32L41.58 18.88C41.34 18.76 41.22 18.76 40.98 18.88L25.98 27.64C25.74 27.76 25.74 28 25.62 28.12C25.62 28.24 25.62 42.28 25.62 42.4L21.42 44.8C21.18 44.92 21.06 45.16 21.06 45.28V48.64C21.06 48.88 21.18 49 21.3 49.12L22.5 49.84C22.5 49.96 22.38 50.08 22.38 50.2C22.5 50.56 22.38 50.8 22.38 51.16C22.38 52.12 22.74 53.08 23.22 54.04L18.54 51.28C18.3 51.16 17.94 51.16 17.7 51.52C17.58 51.64 17.7 52 17.94 52.24L53.82 73.12C54.06 73.24 54.42 73.24 54.66 72.88C54.78 72.64 54.78 72.28 54.42 72.04L51.3 70.24C51.42 70.24 51.54 70.12 51.66 70.12C52.26 69.76 52.62 69.04 52.62 68.08C52.62 67.84 52.62 67.6 52.5 67.36C52.62 67.48 54.42 68.44 54.3 68.44C54.54 68.56 54.66 68.56 54.9 68.44L61.86 64.36C62.1 64.24 62.22 63.88 62.1 63.52C61.98 63.28 61.62 63.16 61.26 63.28L55.14 66.76C55.14 66.64 55.14 64.6 55.14 64.72C57.06 63.64 48.18 68.68 73.86 53.92V55.96L65.82 60.52C65.58 60.64 65.46 61 65.58 61.36C65.7 61.72 66.06 61.72 66.42 61.6L68.22 60.52L71.7 62.56C71.94 62.68 72.3 62.68 72.54 62.32C72.66 62.08 72.66 61.72 72.3 61.48L69.42 59.8L74.7 56.68C74.94 56.56 75.06 56.32 75.06 56.2L75.3 52.96ZM73.5 52.96C47.94 67.72 56.7 62.68 54.78 63.76L22.98 45.28L25.62 43.72V45.28C25.62 45.52 25.74 45.64 25.86 45.76L54.06 62.2C54.3 62.32 54.42 62.32 54.66 62.2C58.38 60.04 65.94 55.72 69.66 53.56C69.9 53.44 70.02 53.2 70.02 53.08V51.04L73.5 52.96ZM68.94 36.88V50.08V52.84L55.14 60.88V44.92C58.74 42.76 65.58 38.8 68.94 36.88ZM53.94 44.92V60.76L26.94 45.04V29.2L53.94 44.92ZM41.34 20.08L68.34 35.8L54.54 43.84L27.42 28.12L41.34 20.08ZM27.18 53.8C27.18 54.88 26.58 55.12 25.74 54.64C24.66 54.04 23.7 52.36 23.7 51.04C23.7 50.8 23.7 50.68 23.82 50.56L26.94 52.36C27.06 52.72 27.18 53.32 27.18 53.8ZM28.38 53.8C28.38 53.56 28.38 53.32 28.26 53.08L30.78 54.52C30.66 54.76 30.54 55 30.54 55.72C30.54 56.68 30.9 57.64 31.38 58.48L26.94 55.84C27.9 55.84 28.38 54.88 28.38 53.8ZM41.94 64.12C40.86 63.52 39.9 61.84 39.9 60.52C39.9 60.4 39.9 60.16 40.02 59.92L43.14 61.72C43.26 61.96 43.38 62.32 43.38 62.56C43.38 62.8 43.5 63.04 43.5 63.28C43.5 64.36 42.9 64.72 41.94 64.12ZM39.66 63.4L35.22 60.76C36.18 60.52 36.66 59.56 36.66 58.6C36.66 58.36 36.66 58.12 36.54 57.88L39.06 59.32C38.94 59.56 38.82 59.8 38.82 60.52C38.7 61.48 39.06 62.56 39.66 63.4ZM35.34 58.6C35.34 59.68 34.74 59.92 33.9 59.44C32.82 58.84 31.86 57.16 31.86 55.84C31.86 55.6 31.86 55.36 31.98 55.24C32.1 55.36 35.34 57.16 35.1 57.04C35.22 57.64 35.34 58.12 35.34 58.6ZM50.1 68.92C48.78 68.2 47.7 66.04 48.06 64.72L51.18 66.52C51.3 66.76 51.42 67.12 51.42 67.36C51.78 68.68 51.42 69.64 50.1 68.92ZM47.7 68.08L43.26 65.44C44.22 65.2 44.7 64.24 44.7 63.28C44.7 63.04 44.7 62.8 44.58 62.56L47.1 64C47.1 64.12 46.98 64.24 46.98 64.36C46.62 65.68 47.1 67 47.7 68.08ZM22.38 48.4V46.36L54.18 64.84C54.18 64.96 54.18 67 54.18 66.88C49.5 64.12 26.94 51.04 22.38 48.4Z" fill="black"/>
<path d="M63.78 63.4L65.34 62.44C65.58 62.32 65.7 61.96 65.58 61.6C65.46 61.36 65.1 61.24 64.74 61.36L63.18 62.32C62.94 62.44 62.82 62.8 62.94 63.16C63.06 63.52 63.42 63.64 63.78 63.4Z" fill="black"/>
<path d="M30.3 44.08C30.54 44.08 30.9 43.84 30.9 43.48V34.48C30.9 34.12 30.66 33.88 30.3 33.88C29.94 33.88 29.7 34.12 29.7 34.48V43.48C29.7 43.84 29.94 44.08 30.3 44.08Z" fill="black"/>
<path d="M33.66 46.12C34.02 46.12 34.26 45.88 34.26 45.52V36.52C34.26 36.16 34.02 35.92 33.66 35.92C33.3 35.92 33.06 36.16 33.06 36.52V45.52C33.06 45.88 33.3 46.12 33.66 46.12Z" fill="black"/>
<path d="M37.02 48.04C37.38 48.04 37.62 47.8 37.62 47.44V38.44C37.62 38.08 37.38 37.84 37.02 37.84C36.66 37.84 36.42 38.08 36.42 38.44V47.44C36.42 47.8 36.66 48.04 37.02 48.04Z" fill="black"/>
<path d="M40.38 50.08C40.74 50.08 40.98 49.84 40.98 49.48V40.48C40.98 40.12 40.74 39.88 40.38 39.88C40.02 39.88 39.78 40.12 39.78 40.48V49.48C39.78 49.72 40.02 50.08 40.38 50.08Z" fill="black"/>
<path d="M43.74 52C44.1 52 44.34 51.76 44.34 51.4V42.4C44.34 42.04 44.1 41.8 43.74 41.8C43.38 41.8 43.14 42.04 43.14 42.4V51.4C43.14 51.76 43.5 52 43.74 52Z" fill="black"/>
<path d="M47.22 53.92C47.58 53.92 47.82 53.68 47.82 53.32V44.32C47.82 43.96 47.58 43.72 47.22 43.72C46.86 43.72 46.62 43.96 46.62 44.32V53.32C46.62 53.68 46.86 53.92 47.22 53.92Z" fill="black"/>
<path d="M50.58 55.9599C50.94 55.9599 51.18 55.7199 51.18 55.3599V46.3599C51.18 45.9999 50.94 45.7599 50.58 45.7599C50.22 45.7599 49.98 45.9999 49.98 46.3599V55.3599C49.98 55.7199 50.22 55.9599 50.58 55.9599Z" fill="black"/>
<path d="M31.98 28.6L54.3 41.56C54.54 41.68 54.66 41.68 54.9 41.56L63.9 36.28C64.14 36.16 64.14 35.92 64.26 35.8C64.26 35.56 64.14 35.44 64.02 35.32L41.58 22.36C41.34 22.24 41.22 22.24 40.98 22.36L31.98 27.64C31.74 27.76 31.74 28 31.62 28.12C31.62 28.36 31.74 28.48 31.98 28.6ZM41.34 23.56L62.46 35.8L54.54 40.36L33.42 28.12L41.34 23.56Z" fill="black"/>
</svg>
