<svg width="93" height="92" viewBox="0 0 93 92" fill="none" xmlns="http://www.w3.org/2000/svg">
<rect x="0.5" width="92" height="92" rx="46" fill="white"/>
<path d="M48.8999 20.5601C48.6599 20.4401 48.2999 20.4401 48.0599 20.8001C47.9399 21.0401 47.9399 21.4001 48.2999 21.6401L51.0599 23.2001C51.2999 23.3201 51.6599 23.3201 51.8999 22.9601C52.0199 22.7201 52.0199 22.3601 51.6599 22.1201L48.8999 20.5601Z" fill="black"/>
<path d="M74.9399 43.6C74.2199 43.24 71.4599 41.56 71.5799 41.68C71.34 41.56 71.22 41.56 70.9799 41.68L66.7799 44.08V31.24C66.7799 31 66.66 30.88 66.5399 30.76L54.54 23.8C54.2999 23.68 53.9399 23.68 53.6999 24.04C53.5799 24.28 53.5799 24.64 53.9399 24.88L64.9799 31.36C64.86 31.48 56.5799 36.28 57.0599 35.92L35.94 23.56L43.8599 19L46.1399 20.32C46.3799 20.44 46.7399 20.44 46.9799 20.08C47.0999 19.84 47.1 19.48 46.74 19.24L44.0999 17.68C43.8599 17.56 43.74 17.56 43.5 17.68C10.98 36.52 50.34 13.84 18.06 32.44C17.82 32.56 17.7 32.8 17.7 32.92C17.7 33.04 17.82 59.8 17.82 59.92C17.82 60.16 17.94 60.28 18.06 60.4L40.3799 73.36C40.6199 73.48 40.74 73.48 40.9799 73.36L49.2599 68.56V71.68C49.2599 71.92 49.3799 72.04 49.4999 72.16L52.8599 74.08C53.0999 74.2 53.2199 74.2 53.4599 74.08L53.5799 73.96L74.9399 61.6C75.1799 61.48 75.2999 61.24 75.2999 61.12V43.84C75.1799 43.84 75.0599 43.6 74.9399 43.6ZM71.34 42.76L73.4999 43.96L53.2199 55.6L51.0599 54.4L71.34 42.76ZM27.54 28.36L48.6599 40.6L40.6199 45.16L19.5 32.92L27.54 28.36ZM50.4599 40.96L56.4599 37.48V44.44L53.6999 43.24C53.4599 43.12 53.0999 43.24 52.9799 43.48L50.4599 47.44V40.96ZM55.8599 36.52C55.7399 36.64 49.4999 40.24 49.8599 40L28.74 27.64L34.74 24.16L55.8599 36.52ZM18.9 34C20.94 35.2 38.1 45.16 40.02 46.24L40.1399 71.8L19.02 59.68L18.9 34ZM41.34 71.92L41.2199 46.24L49.2599 41.68V49.6C49.2599 49.84 49.3799 50.08 49.7399 50.2C49.9799 50.32 50.2199 50.2 50.4599 49.96L53.82 44.68L56.9399 46C57.2999 46.12 57.7799 45.88 57.7799 45.4V36.88C57.9 36.76 66.1799 31.96 65.6999 32.32V44.8L49.7399 54.04C49.5 54.16 49.3799 54.52 49.3799 54.64C49.3799 54.76 49.3799 67.36 49.3799 67.48L41.34 71.92ZM50.4599 71.44C50.4599 69.76 50.4599 77.32 50.4599 55.6L52.6199 56.8C52.6199 58.6 52.6199 71.44 52.6199 72.76L50.4599 71.44ZM53.82 72.64V56.8C55.6199 55.84 71.3399 46.6 74.0999 45.16V61L53.82 72.64Z" fill="black"/>
<path d="M72.54 48.88C72.3 48.76 72.18 48.76 71.94 48.88L64.74 52.96C64.5 53.08 64.38 53.32 64.38 53.44V57.52C64.38 57.88 64.62 58.12 64.98 58.12C65.1 58.12 65.22 58.12 65.34 58L72.54 53.8C72.78 53.68 72.9 53.44 72.78 53.32V49.24C72.78 49.12 72.66 49 72.54 48.88ZM65.7 56.56V53.8L71.7 50.32V53.08L65.7 56.56Z" fill="black"/>
<path d="M60.54 56.32C60.54 56.08 60.42 55.96 60.18 55.84C59.94 55.72 59.82 55.72 59.58 55.84L55.86 58C55.62 58.12 55.5 58.36 55.5 58.48V62.32C55.5 62.56 55.62 62.68 55.86 62.8C56.1 62.92 56.22 62.92 56.46 62.8L60.18 60.64C60.42 60.52 60.54 60.28 60.42 60.16L60.54 56.32ZM56.82 61.24V58.72L59.34 57.28V59.8L56.82 61.24Z" fill="black"/>
<path d="M58.1399 66.64L56.4599 67.6C56.2199 67.72 56.0999 68.08 56.2199 68.44C56.3399 68.68 56.6999 68.8 57.0599 68.68L58.7399 67.72C58.9799 67.6 59.0999 67.24 58.9799 66.88C58.8599 66.64 58.4999 66.52 58.1399 66.64Z" fill="black"/>
<path d="M62.46 64.24L60.66 65.2C60.42 65.32 60.3 65.68 60.42 66.04C60.54 66.28 60.9 66.4 61.26 66.28L62.94 65.32C63.18 65.2 63.3 64.84 63.18 64.48C63.06 64.24 62.7 64.12 62.46 64.24Z" fill="black"/>
<path d="M66.6599 61.84L64.9799 62.8C64.7399 62.92 64.6199 63.28 64.7399 63.64C64.8599 63.88 65.2199 64 65.5799 63.88L67.2599 62.92C67.4999 62.8 67.6199 62.44 67.4999 62.08C67.2599 61.72 66.8999 61.6 66.6599 61.84Z" fill="black"/>
<path d="M70.8599 59.44L69.0599 60.4C68.8199 60.52 68.6999 60.88 68.8199 61.24C68.9399 61.48 69.2999 61.6 69.6599 61.48L71.3399 60.52C71.5799 60.4 71.6999 60.04 71.5799 59.68C71.4599 59.44 71.0999 59.32 70.8599 59.44Z" fill="black"/>
</svg>
