<svg width="93" height="92" viewBox="0 0 93 92" fill="none" xmlns="http://www.w3.org/2000/svg">
<rect x="0.5" width="92" height="92" rx="46" fill="white"/>
<path d="M24.18 49C24.54 49 24.78 48.76 24.78 48.4V46.72C24.78 46.36 24.54 46.12 24.18 46.12C23.82 46.12 23.58 46.36 23.58 46.72V48.4C23.58 48.76 23.82 49 24.18 49Z" fill="black"/>
<path d="M50.34 40.48L47.58 42.04C47.34 42.16 47.22 42.52 47.34 42.88C47.46 43.12 47.82 43.24 48.18 43.12L50.94 41.56C51.18 41.44 51.3 41.08 51.18 40.72C50.94 40.48 50.58 40.36 50.34 40.48Z" fill="black"/>
<path d="M32.34 40.84C32.58 40.96 32.7 40.96 32.94 40.84L50.58 30.64C50.82 30.52 50.94 30.28 50.94 30.16V26.44C50.94 26.2 50.82 26.08 50.58 25.96C50.34 25.84 50.22 25.84 49.98 25.96L32.34 36.16C32.22 36.16 32.1 36.4 32.1 36.52V40.24C32.1 40.6 32.22 40.72 32.34 40.84ZM49.74 27.4V29.8L33.3 39.28V36.88L49.74 27.4Z" fill="black"/>
<path d="M32.7 47.92C32.82 47.92 32.94 47.92 33.06 47.8L50.7 37.6C50.94 37.48 51.06 37.24 51.06 37.12V33.4C51.06 33.16 50.94 33.04 50.7 32.92C50.46 32.8 50.34 32.8 50.1 32.92L32.46 43.12C32.22 43.12 32.1 43.36 32.1 43.6V47.32C32.1 47.68 32.34 47.92 32.7 47.92ZM49.74 34.48V36.88L33.3 46.36V43.96L49.74 34.48Z" fill="black"/>
<path d="M69.42 66.88V53.32C69.42 53.08 69.3 52.84 69.18 52.84L57.3 46C57.06 45.88 56.94 45.88 56.7 46L54.54 47.2V20.68C54.54 20.44 54.42 20.32 54.3 20.2L49.38 17.32C49.14 17.2 49.02 17.2 48.78 17.32L23.82 31.6C23.7 31.6 23.7 31.72 23.58 31.84V31.96V32.08V44.68C23.58 45.04 23.82 45.28 24.18 45.28C24.54 45.28 24.78 45.04 24.78 44.68V33.04L28.5 35.2L28.62 72.64L24.9 70.6V50.32C24.9 49.96 24.66 49.72 24.3 49.72C24.06 49.72 23.7 49.96 23.7 50.32V70.96C23.7 71.2 23.82 71.32 23.94 71.44L28.86 74.32C29.1 74.44 29.22 74.44 29.46 74.32L43.74 66.04V67.36C43.74 67.6 43.86 67.72 43.98 67.84C44.94 68.32 55.98 74.8 55.74 74.68C55.98 74.8 56.1 74.8 56.34 74.68L68.94 67.36C69.3 67.36 69.42 67.12 69.42 66.88ZM64.02 59.56L61.02 61.24V58.48L64.02 56.8V59.56ZM60.42 57.52L49.86 51.4L52.86 49.72L63.42 55.84L60.42 57.52ZM59.22 58.24L56.1 60.04L45.54 53.92L48.66 52.12L59.22 58.24ZM43.74 58.36L33.3 64.36V55.6L47.22 47.56V51.4L44.1 53.32C43.86 53.44 43.74 53.68 43.86 53.8L43.74 58.36ZM48.42 50.8V46.96L49.74 46.24V50.08L48.42 50.8ZM43.74 59.68V61L33.3 67V65.68L43.74 59.68ZM56.94 47.2L67.5 53.32L64.5 55.12L53.94 49L56.94 47.2ZM48.9 18.52L52.62 20.68L29.1 34.24C28.98 34.12 25.14 31.96 25.38 32.08L48.9 18.52ZM29.82 72.76L29.7 35.32L53.34 21.76L53.46 47.92L51.06 49.24V45.04C51.06 44.8 50.94 44.68 50.7 44.56C50.46 44.44 50.34 44.44 50.1 44.56L32.46 54.76C32.22 54.88 32.1 55.12 32.1 55.24C32.1 55.36 32.1 66.64 32.1 68.08C32.1 68.32 32.22 68.44 32.46 68.56C32.7 68.68 32.82 68.68 33.06 68.56L43.74 62.44V64.72L29.82 72.76ZM44.94 67V54.88C45.42 55.12 54.66 60.52 55.5 61C55.5 76.24 55.5 72.16 55.5 73.12L44.94 67ZM56.82 73.12V61L59.94 59.2V62.32C59.94 62.56 60.06 62.68 60.3 62.8C60.54 62.92 60.66 62.92 60.9 62.8L65.1 60.4C65.34 60.28 65.46 60.04 65.46 59.92V56.08C65.7 55.96 68.58 54.28 68.46 54.4V66.52L56.82 73.12Z" fill="black"/>
</svg>
