<svg width="93" height="92" viewBox="0 0 93 92" fill="none" xmlns="http://www.w3.org/2000/svg">
<rect x="0.5" width="92" height="92" rx="46" fill="white"/>
<path d="M26.1 42.2C26 42.3 25.9 42.5 25.9 42.6C25.9 42.8 26 42.9 26.1 43L31.5 46.1L28 52C27.9 52.1 27.9 52.3 27.9 52.4C27.9 52.5 28 52.6 28.1 52.7L31.6 54.7V61.4C31.6 61.6 31.7 61.7 31.9 61.8L46 69.9C46.2 70 46.3 70 46.5 69.9L56.3 64.2C56.5 64.1 56.6 63.8 56.5 63.5C56.4 63.3 56.1 63.2 55.8 63.3L46.7 68.6V55L51.8 57.9C51.9 58 52.1 58 52.3 57.9L60.3 53.3V60.7L59.5 61.2C59.3 61.3 59.2 61.6 59.3 61.9C59.4 62.1 59.7 62.2 60 62.1L61.1 61.5C61.3 61.4 61.3 61.2 61.3 61.1V52.8L66.9 49.5C67.1 49.4 67.1 49.2 67.1 49.1C67.1 49 67 48.8 66.9 48.7L61.8 45.8L66.8 42.9C67 42.8 67 42.6 67 42.5C67 42.4 66.9 42.2 66.7 42.1L56.7 36C56.7 35.8 56.7 35.6 56.7 35.4C56.7 32.9 55.8 31 54.2 30C54.1 30 54.5 30.2 50.2 27.8C49.9 27.6 49.6 27.5 49.2 27.4V27.2H49.3C49.9 26.8 50.2 26.3 50.2 25.8C50.2 25.4 50.2 24.5 50.2 24C50.2 23.4 49.9 22.9 49.2 22.6C48.1 22 46.4 22 45.4 22.6C44.8 22.9 44.5 23.4 44.5 23.9C44.5 24.1 44.5 23.8 44.5 25.8C44.5 26.3 44.8 26.9 45.5 27.2V27.8C44.4 28.2 43.6 28.7 42.6 29.5C42.5 29.4 42.9 29.8 41.9 28.8C41.6 28.5 41.2 28.4 40.7 28.6C39.9 28.8 39.2 29.6 38.9 30.4C38.8 30.9 38.9 31.3 39.1 31.6C39.2 31.7 40 32.5 39.9 32.4C39.3 33.2 38.8 34 38.3 34.9L26.1 42.2ZM37.5 36.3V36.4C36.8 38.2 36.3 40.1 36.3 42C36.3 42.3 36.3 42.6 36.3 42.8L34.8 43.8L32.2 45.4L27.3 42.6L37.5 36.3ZM38.8 47.5C39.8 48.1 41.8 49.2 42.8 49.8C43.7 50.3 44.7 50.5 45.8 50.3V53.3C45.3 53.1 33.5 46.2 33.2 46L36.5 44C36.5 44 36.5 44 36.5 44.1C36.8 45.5 37.6 46.8 38.8 47.5ZM48.8 49.2C51.3 47.8 53.4 45.2 54.7 42.7L59.8 45.6L46.8 53.2V50C47.3 49.9 48.1 49.6 48.8 49.2ZM32.4 46.7L45.6 54.3L42.4 59.7L29.1 52.1L32.4 46.7ZM32.6 61.1V55.3L42.2 60.8C42.4 60.9 42.7 60.8 42.9 60.6L45.7 55.9V68.5L32.6 61.1ZM60.6 52L52.1 56.9L47.3 54.1L60.9 46.2L65.7 49L60.6 52ZM56.6 37.1L65.6 42.3L60.8 45.1L55.2 41.8C55.8 40.6 56.4 38.8 56.6 37.1C56.6 37.2 56.6 37.2 56.6 37.1ZM55.7 35.5C55.7 40.1 52.4 46 48.2 48.4C44.4 50.6 41.2 49 41.2 44.4C41.2 38 47.2 30.2 52.1 30.5C54.7 30.6 55.7 32.9 55.7 35.5ZM48.2 29.1C48.2 29.1 48.2 29.2 48 29.2C47.6 29.4 47 29.4 46.6 29.2C46.5 29.2 46.5 29.1 46.5 29.1V27.4C47 27.5 47.6 27.5 48.2 27.4C48.2 27.5 48.2 29 48.2 29.1ZM45.9 23.3C46.7 22.9 48 22.9 48.7 23.3C49.3 23.7 49.3 24 48.7 24.4C48.3 24.6 47.8 24.7 47.3 24.7C46.6 24.7 45.4 24.4 45.4 23.8C45.5 23.7 45.7 23.5 45.9 23.3ZM45.5 25.3C46 25.6 46.7 25.7 47.4 25.7C48.1 25.7 48.8 25.5 49.3 25.3V25.7C49.3 26.2 48.5 26.4 48 26.5C47.2 26.6 45.5 26.4 45.5 25.7V25.3ZM40.8 31.5C41.3 31.3 41.8 30.8 42.1 30.2C42.2 30.3 43.7 31.7 43.6 31.6C43.6 31.6 43.6 31.7 43.6 31.8C43.5 32.2 43 32.7 42.6 32.8C42.4 32.8 42.5 32.8 42.4 32.8C42.1 32.8 40.7 31.4 40.8 31.5ZM40 30.5C40.1 30.1 40.6 29.6 41 29.5C41.1 29.5 41.1 29.5 41.2 29.5C41.2 29.5 41.2 29.6 41.2 29.7C41.1 30.1 40.6 30.6 40.2 30.7C40.1 30.7 40 30.7 40 30.7C39.9 30.6 39.9 30.6 40 30.5ZM41.6 33.7C41.9 34 42.3 34 42.7 33.9C43.4 33.7 44.2 33 44.4 32.1C44.5 31.6 44.4 31.2 44.1 30.9L43.2 30.1C43.9 29.5 44.6 29.1 45.4 28.8V29.2C45.4 29.6 45.6 30 46 30.2C46.7 30.6 47.7 30.6 48.4 30.2C48.8 30 49.1 29.6 49.1 29.2V28.5C49.3 28.6 49.4 28.6 49.6 28.7L51.2 29.6C45.7 30.3 40.2 38.2 40.2 44.5C40.2 45.8 40.5 46.9 40.8 47.6L39.3 46.7C38.7 46.1 37.2 45.5 37.2 42.1C37.2 38.8 38.7 35.4 40.7 32.9C41 33.1 41.2 33.4 41.6 33.7Z" fill="black"/>
<path d="M57.6 63.5L58.7 62.8C58.9 62.7 59 62.4 58.9 62.1C58.8 61.9 58.5 61.8 58.2 61.9L57.1 62.6C56.9 62.7 56.8 63 56.9 63.3C57 63.5 57.3 63.6 57.6 63.5Z" fill="black"/>
<path d="M51.7 31.5C47.3 31.5 42.2 38.6 42.2 44C42.2 47.8 44.7 49.4 48.2 47.4C51.8 45.3 54.9 40 54.9 35.8C54.8 33.2 53.6 31.5 51.7 31.5ZM53.8 36.6L52.7 37.2C52.5 37.3 52.4 37.6 52.5 37.9C52.6 38.1 52.9 38.2 53.2 38.1L53.6 37.9C52.9 41 50.9 44.2 48.5 46V45.6C48.5 45.3 48.3 45.1 48 45.1C47.7 45.1 47.5 45.3 47.5 45.6V46.7C44.8 48.2 43.1 47.1 43.1 44.1C43.1 44 43.1 44 43.1 43.9L44.1 43.3C44.3 43.2 44.4 42.9 44.3 42.6C44.2 42.4 43.9 42.3 43.6 42.4L43.2 42.6C43.7 39.5 45.7 36 48.2 34V34.4C48.2 34.7 48.4 34.9 48.7 34.9C49 34.9 49.2 34.7 49.2 34.4V33.3C49.9 32.9 50.8 32.5 51.6 32.5C53.5 32.5 53.8 34.8 53.8 35.8C53.8 36.1 53.8 36.3 53.8 36.6Z" fill="black"/>
<path d="M51.5 35C51.3 34.9 51 34.9 50.8 35.2L49 38.1C48.7 38.1 48.5 38.1 48.2 38.3C47.4 38.7 46.9 39.8 46.9 40.6C46.9 41.7 47.8 42.2 48.8 41.7C49.6 41.3 50.1 40.2 50.1 39.4C50.1 39.1 50 38.9 49.9 38.7L51.7 35.8C51.8 35.5 51.7 35.2 51.5 35ZM48.1 40.8C47.8 41 47.7 40.9 47.7 40.6C47.7 40.1 48.1 39.4 48.5 39.1C48.8 38.9 48.9 39 48.9 39.3C49 39.9 48.6 40.5 48.1 40.8Z" fill="black"/>
</svg>
