<svg width="93" height="92" viewBox="0 0 93 92" fill="none" xmlns="http://www.w3.org/2000/svg">
<rect x="0.5" width="92" height="92" rx="46" fill="white"/>
<path d="M28.3 60.8C28.5 60.9 28.8 60.9 29 60.6C29.1 60.4 29.1 60.1 28.8 59.9L27.5 59.2C27.3 59.1 27 59.1 26.8 59.4C26.7 59.6 26.7 59.9 27 60.1L28.3 60.8Z" fill="black"/>
<path d="M62.5999 51.2C63.5999 50.6 64.5 49.2 64.5 48C64.5 46.6 63.3999 45.9 62.0999 46.7C61.0999 47.3 60.2 48.7 60.2 49.9C60.2 51.2 61.3999 51.8 62.5999 51.2ZM62.5999 47.5C63.0999 47.2 63.5 47.3 63.5 48C63.5 48.8 62.8999 49.9 62.0999 50.3C61.5999 50.6 61.2 50.5 61.2 49.8C61.2 49 61.7999 47.9 62.5999 47.5Z" fill="black"/>
<path d="M68.5 43.1L65.1 41.1L61.5 40C61.4 40 61.2 39.9 61.1 39.9V32.4C61.1 32.3 61 32.1 60.8 32L43.8 22.1C43.7 22 43.5 22 43.3 22.1L23.8 33.3C23.6 33.4 23.5 33.6 23.5 33.7C23.5 33.9 23.6 57.6 23.6 57.7C23.6 57.9 23.7 58 23.8 58.1L25.6 59.1C25.8 59.2 26.1 59.2 26.3 58.9C26.4 58.7 26.4 58.4 26.1 58.2L24.6 57.3V34.6L40.6 44C40.7 75.3 40.7 64.5 40.7 66.9L30.4 60.9C30.2 60.8 29.9 60.8 29.7 61.1C29.6 61.3 29.6 61.6 29.9 61.8C30.9 62.4 41.7 68.6 41 68.3C41.2 68.4 41.3 68.4 41.5 68.3L52.1 62.2V66.4C52.1 67.1 52.4 67.7 52.9 68C53.7 68.5 55.4 69.4 56.2 69.9C56.8 70.2 57.5 70.1 58 69.8L67.4 64.4C68.6 63.7 69.5 62.1 69.5 60.8V45C69.4 44 69 43.4 68.5 43.1ZM31.1 30.3L47.2 39.6L41.2 43.1C34.9 39.4 30.9 37.1 25.1 33.8L31.1 30.3ZM48.1 39.1L32.1 29.7L36.5 27.2L52.5 36.5C52.4 36.6 47.8 39.2 48.1 39.1ZM48.6 39.9L53 37.4V42.3L48.6 44.9V39.9ZM43.6 23.1L59.7 32.4L53.5 36L37.4 26.6L43.6 23.1ZM41.7 66.9C41.7 64.6 41.7 75.4 41.6 44L47.6 40.5V45.7C47.6 45.9 47.7 46 47.9 46.1C48.1 46.2 48.2 46.2 48.4 46.1L53.8 43C54 42.9 54 42.7 54 42.6V36.9L60.1 33.4V40.1C59.9 40.2 59.8 40.2 59.6 40.3L57.8 41.3C57.2 41.7 56.6 42.3 56.2 42.9C56.1 43 52.4 48.6 52.7 48.2C52.2 48.9 51.9 49.7 51.9 50.5C51.9 64.7 51.9 59.8 51.9 60.9L41.7 66.9ZM53 66.3V61.2C53 60.1 53 65.2 53 50.5C53 50 53.2 49.3 53.6 48.7C53.7 48.6 57.4 43 57.1 43.4C57.4 42.9 57.9 42.4 58.4 42.1L60.2 41.1C60.4 41 60.9 40.8 61.2 40.9L63.8 41.8C63.6 41.8 63.2 42 62.9 42.1C61.7 42.9 60.5 43.2 59.5 44.7L56 50C55.5 50.8 55.2 51.8 55.2 52.4C55.2 52.5 55.2 68.3 55.2 68.2L53.2 67C53.1 66.9 53 66.7 53 66.3ZM66.8 63.4L57.4 68.8C56.6 69.2 56.3 68.9 56.3 68.2C56.3 66.6 56.3 74 56.3 52.4C56.3 52 56.5 51.2 56.9 50.6L60.4 45.3C60.7 44.9 61.2 44.3 61.7 44L63.5 43C63.8 42.8 64.2 42.7 64.5 42.8L65.3 43.1L68 44C68.2 44.1 68.4 44.4 68.4 44.8V60.6C68.4 61.6 67.7 62.9 66.8 63.4Z" fill="black"/>
<path d="M66.2999 52.5C66.0999 52.4 65.9999 52.4 65.7999 52.5L58.4 56.8C58.2 56.9 58.2 57.1 58.2 57.2V64.9C58.2 65.1 58.3 65.2 58.5 65.3C58.7 65.4 58.8 65.4 59 65.3L66.4 61C66.5 61 66.5 60.9 66.5 60.7V53C66.5 52.8 66.4 52.6 66.2999 52.5ZM59.0999 64.1V57.5L65.5 53.8V60.4L59.0999 64.1Z" fill="black"/>
</svg>
