<svg width="93" height="92" viewBox="0 0 93 92" fill="none" xmlns="http://www.w3.org/2000/svg">
<rect x="0.5" width="92" height="92" rx="46" fill="white"/>
<path d="M28.6 29.6C28.8 29.4 29 29.3 29.2 29.1C29.4 29 29.5 28.7 29.3 28.4C29.1 28.2 28.8 28.2 28.6 28.3C28.4 28.5 28.1 28.7 27.9 28.9C27.7 29 27.7 29.4 27.9 29.6C28 29.8 28.3 29.8 28.6 29.6Z" fill="black"/>
<path d="M68 55.8C68.3 55.4 68.7 54.7 68.7 53.9C68.6 52.8 67.8 51.7 66.2 50.7C66.2 50.5 66.2 41.2 66.2 41.3C66.2 41.2 66.1 41 65.9 40.9L55.1 34.6C54.9 34.5 54.8 34.5 54.6 34.6C54.5 34.7 48.3 38.3 48.7 38C47.4 37.2 46.2 36.5 44.9 36C44.8 33.9 44 32.3 42.7 31.5C42.6 31.4 34.9 27 35 27C33.7 26.2 31.9 26.3 30 27.2C29.8 27.6 29.7 27.9 29.8 28.1C29.9 28.4 30.2 28.5 30.5 28.3C32 27.5 33.5 27.4 34.5 28L39.9 31.1C37.5 31.5 35.3 33.3 33.8 35.2C31.3 38.2 29.3 43.3 30.7 46.9V47L25.3 44C24.1 43.3 23.5 41.9 23.5 40C23.5 37.5 24.6 34.4 26.5 31.9C26.8 31.5 27.2 31 27.5 30.6C27.7 30.4 27.7 30.1 27.5 29.9C27.2 29.8 26.9 29.8 26.7 30C26.3 30.4 25.9 30.9 25.6 31.4C23.7 34 22.5 37.2 22.5 40C22.5 42.3 23.3 44 24.8 44.8C32.2 49 32.5 49.6 34.1 49.8V50C34 50.8 34.3 51.7 34.8 52.4C34.9 52.5 39.2 58.3 38.9 57.9C39.7 58.9 40.7 59.6 41.9 60C42.8 60.4 43.2 60.4 44.6 60.9C46 61.5 47.1 61.9 48 62.1C48.4 62.2 48.9 62.2 49.2 62C49.4 61.9 49.5 61.8 49.7 61.7C51.6 62.6 57.4 65.4 60.8 65.4C61.6 65.4 62.3 65.2 62.8 64.8C63.3 64.4 63.5 63.8 63.4 63C64.6 63.6 66.8 64.3 68.1 63.6C68.5 63.4 69 62.9 69.1 61.9C69.6 61.7 70.4 61.2 70.6 60.2C70.7 58.9 69.9 57.5 68 55.8ZM67.7 54C67.7 54.6 67.4 55 67.2 55.3C66.8 55.1 66.3 54.9 65.6 54.5L66 54.3C66.2 54.2 66.2 54 66.2 53.9V52C67.1 52.6 67.6 53.3 67.7 54ZM58.1 45.2L48.3 39.5C48.6 39.3 50.7 38.1 50.6 38.2L60.4 43.9C60.3 43.9 58 45.3 58.1 45.2ZM65.2 51V53.6L54.3 59.9V48.6L57.6 46.7V50.3C57.6 50.5 57.7 50.6 57.9 50.7C58.1 50.8 58.2 50.8 58.4 50.7L61.6 48.8C61.8 48.7 61.8 48.5 61.8 48.4V44.2L65.1 42.3L65.2 51ZM58.6 46L60.8 44.7V48L58.6 49.3V46ZM47.3 40.1L57.1 45.8L53.8 47.7L44 42C44.1 41.9 47.5 40 47.3 40.1ZM43.5 54.2C43.5 53 43.5 58.4 43.5 42.9C45.7 44.2 52.4 48 53.3 48.6C53.3 50.2 53.3 57.4 53.3 59.9C52.3 59.3 57 62 43.5 54.2ZM54.9 35.7L64.7 41.4L61.4 43.3L51.5 37.6L54.9 35.7ZM43.9 35.7C41.6 34.7 40.4 34.2 37.7 33.1C38.9 32.4 40.5 31.8 41.8 32.4C43.1 32.9 43.8 34.3 43.9 35.7ZM31.2 44.1V44C31.8 44.4 32.4 44.9 32.9 45.5C33.7 46.4 34.2 47.4 34.1 48.7V48.9C31.9 48.6 31.1 46.3 31.2 44.1ZM48.7 61.1C48.5 61.2 48.3 61.2 48.1 61.1C47.3 60.9 46.2 60.5 44.9 60C43.4 59.4 43.1 59.4 42.2 59C41.2 58.7 40.3 58 39.6 57.2C39.5 57.1 35.3 51.4 35.5 51.7C34.7 50.6 35.1 48.6 35.1 48.7C35.2 47.1 34.6 45.8 33.6 44.7C33 44 32 43.3 31.3 42.8C31.8 39.6 33.9 36 36.6 33.8C36.6 33.8 36.7 33.8 36.7 33.7C42.2 36 43.5 36.6 43.8 36.7C45 37.1 46.4 37.7 47.7 38.6C37.8 44.4 51.9 36.2 42.7 41.5C42.6 41.7 42.5 41.8 42.5 42C42.4 59.1 42.5 53.2 42.5 54.5C42.5 54.7 42.6 54.8 42.8 54.9C42.9 55 48.7 58.3 48.4 58.1C49 59.5 48.9 60.9 48.9 60.9C48.8 61 48.7 61 48.7 61.1ZM62 64C60.5 65.3 53.9 62.7 49.8 60.6C49.8 60.2 49.7 59.6 49.6 58.8L53.6 61.1C53.8 61.2 53.9 61.2 54.1 61.1C54.2 61 58.2 58.7 57.9 58.9L58.9 59.3C60.7 60.2 63.4 62.8 62 64ZM67.4 62.6C66.4 63.1 64.2 62.3 62.9 61.6C62.6 60.9 61.6 59.4 59.3 58.4L59 58.3L61.9 56.6L66.5 58.7C68 59.6 68.1 61.3 68.1 61.4C67.9 62 67.8 62.4 67.4 62.6ZM69.5 59.9C69.4 60.3 69.2 60.6 68.9 60.7C68.7 59.9 68.3 58.7 66.9 57.9L62.9 56.1L64.6 55.1C65.9 55.8 66.6 56.1 67 56.3C69.4 58.3 69.6 59.4 69.5 59.9Z" fill="black"/>
</svg>
