<svg width="93" height="92" viewBox="0 0 93 92" fill="none" xmlns="http://www.w3.org/2000/svg">
<rect x="0.5" width="92" height="92" rx="46" fill="white"/>
<path d="M24.18 65.08C24.54 65.32 24.9 65.2 25.02 64.84C25.14 64.6 25.14 64.24 24.78 64L22.86 62.92C22.62 62.8 22.14 62.8 22.02 63.16C21.9 63.4 21.9 63.76 22.26 64L24.18 65.08Z" fill="black"/>
<path d="M75.3 48.76L71.1 46.24C70.98 46.12 70.74 46.12 70.62 46.24C69.66 46.48 68.82 46.6 67.98 46.72V31.24C67.98 31 67.86 30.88 67.62 30.76L44.58 17.32C44.34 17.2 44.22 17.2 43.98 17.32C36.66 21.52 31.26 24.64 17.7 32.44C17.46 32.56 17.46 32.8 17.34 32.92C17.34 33.04 17.46 60.64 17.46 60.76C17.46 61 17.58 61.12 17.7 61.24L20.46 62.8C20.7 62.92 21.06 62.92 21.3 62.56C21.42 62.32 21.42 61.96 21.06 61.72L18.66 60.28L18.54 34C26.82 38.8 32.22 41.92 40.38 46.72L40.5 73.12L26.94 65.32C26.7 65.08 26.22 65.2 26.1 65.56C25.98 65.8 25.98 66.16 26.34 66.4C28.98 67.96 41.58 75.28 40.74 74.8C40.86 74.92 41.1 74.92 41.34 74.8C41.46 74.68 53.82 67.6 53.94 67.48C54.66 68.44 55.62 69.28 56.7 69.88L60.9 72.4C62.1 73.12 63.54 73.6 65.1 73.72C65.22 73.72 65.46 73.6 65.58 73.48C71.34 66.76 74.7 58.48 75.54 49.48C75.66 49.12 75.42 48.76 75.3 48.76ZM70.62 47.44L73.26 49C70.5 49.48 67.98 49 65.34 48.28L64.5 47.8C66.54 48.04 68.7 47.92 70.62 47.44ZM55.5 59.56L52.38 57.76C54.66 55.36 59.58 49.36 61.14 47.08L64.38 49C61.74 52.84 58.86 56.44 55.5 59.56ZM44.22 18.52L66.06 31.24C65.94 31.36 57.3 36.28 57.9 35.92L36.06 23.2L44.22 18.52ZM34.86 23.92L56.7 36.64L50.46 40.24L28.62 27.52L34.86 23.92ZM51.06 41.2L57.3 37.6V44.8L54.42 43.6C54.18 43.48 53.82 43.6 53.7 43.84L51.06 47.92V41.2ZM27.42 28.24L49.26 40.96C49.14 41.08 40.38 46.12 40.98 45.76C38.34 44.2 24.42 36.16 19.14 33.04L27.42 28.24ZM53.34 66.4L41.7 73.12L41.58 46.6C41.7 46.48 50.46 41.56 49.86 41.8V49.96C49.86 50.2 49.98 50.44 50.34 50.56C50.58 50.68 50.82 50.56 51.06 50.32L54.54 44.92L57.78 46.24C58.02 46.36 58.14 46.24 58.38 46.24C58.5 46.12 58.62 46 58.62 45.76V36.88C58.74 36.76 67.38 31.84 66.78 32.2V46.72C64.86 46.72 62.94 46.36 61.14 45.76C60.9 45.76 60.66 45.76 60.54 46C60.42 46.12 53.82 54.88 51.06 57.52C50.94 57.64 50.82 57.88 50.82 58C50.82 58.12 50.94 62.68 53.34 66.4ZM52.14 59.2V59.08L55.14 60.76C55.38 63.52 56.1 66.52 57.54 68.8L57.3 68.68C54.06 66.76 52.62 62.92 52.14 59.2ZM64.98 72.28C63.54 72.16 62.34 71.68 61.26 70.96C60.18 70.24 59.34 69.28 58.62 68.2C57.18 65.92 56.58 63.28 56.34 60.52C59.82 57.28 62.94 53.32 65.58 49.48C68.58 50.32 71.46 50.68 74.34 49.96H74.46C73.5 58.36 70.26 66.04 64.98 72.28Z" fill="black"/>
<path d="M64.9799 56.32C63.6599 57.04 62.5799 58.84 62.5799 60.4C62.5799 61.12 62.8199 61.72 63.1799 62.08L62.5799 65.2C62.4599 65.56 62.8199 65.92 63.1799 65.92C63.2999 65.92 63.4199 65.92 63.5399 65.8L67.6199 63.4C67.8599 63.28 67.9799 63.04 67.8599 62.68L67.2599 60.16C67.6199 59.44 67.8599 58.6 67.8599 57.88C67.9799 56.2 66.5399 55.36 64.9799 56.32ZM66.0599 60.28L66.6599 62.56L64.1399 64L64.6199 61.72C64.6199 61.48 64.4999 61.12 64.2599 61C64.0199 60.88 63.8999 60.64 63.8999 60.16C63.8999 59.08 64.7399 57.64 65.6999 57.16C66.4199 56.8 66.8999 56.92 66.8999 57.76C66.8999 58.36 66.6599 58.96 66.2999 59.56C66.0599 59.92 66.0599 60.16 66.0599 60.28Z" fill="black"/>
</svg>
