<svg width="93" height="92" viewBox="0 0 93 92" fill="none" xmlns="http://www.w3.org/2000/svg">
<rect x="0.5" width="92" height="92" rx="46" fill="white"/>
<path d="M47.94 74.68C48.18 74.8 48.3 74.8 48.54 74.68C87.3 52.36 68.1 63.4 73.62 60.28C73.86 60.16 73.86 59.92 73.98 59.8C73.98 59.68 74.1 37.84 74.1 37.96C74.1 37.72 73.98 37.6 73.86 37.48C56.58 27.4 63.42 31.36 45.06 20.8C45.06 20.8 44.94 20.8 44.94 20.68L32.34 17.2C32.22 17.2 31.86 17.08 31.74 17.44L29.34 20.92C29.1 21.16 29.22 21.52 29.46 21.76C29.7 22 30.06 21.88 30.3 21.64L32.46 18.64L60.18 34.72C55.86 40.96 49.74 49.6 48.3 51.64L20.46 35.44L27.42 25.36C27.66 25.12 27.54 24.76 27.3 24.52C27.06 24.4 26.7 24.52 26.58 24.76L19.14 35.32C19.14 35.44 19.02 35.56 19.02 35.68L18.9 57.52C18.9 57.76 19.02 57.88 19.14 58L47.94 74.68ZM20.22 36.76L46.38 51.88L47.82 52.72C47.82 54.88 47.7 71.08 47.7 73.12L20.1 57.16L20.22 36.76ZM61.14 35.2L71.94 38.08L50.46 50.56C53.7 45.88 58.02 39.64 61.14 35.2ZM65.22 54.28V62.92L57.66 58.6L65.22 54.28ZM64.62 64L57.3 68.32V59.8L64.62 64ZM66.42 63.04V53.68L67.62 52.96C67.86 52.84 67.98 52.48 67.86 52.12C67.74 51.88 67.38 51.76 67.02 51.88C65.34 52.84 67.86 51.4 54.78 58.96C54.54 59.08 54.42 59.44 54.54 59.8C54.66 60.04 55.02 60.16 55.38 60.04L55.98 59.68V69.04L48.78 73.24C48.78 71.56 48.9 54.88 48.9 52.84L72.9 38.92L72.78 59.32L66.42 63.04ZM69.18 36.16L61.14 34C58.62 32.56 38.7 20.92 36.42 19.6L44.58 21.76L69.18 36.16Z" fill="black"/>
<path d="M27.66 24.16C28.02 24.28 28.38 24.28 28.5 23.92L29.22 22.96C29.46 22.72 29.34 22.36 29.1 22.12C28.86 21.88 28.5 22 28.26 22.24L27.54 23.32C27.42 23.56 27.42 23.92 27.66 24.16Z" fill="black"/>
<path d="M23.34 42.16C23.1 42.04 22.98 42.04 22.74 42.16C22.5 42.28 22.38 42.52 22.38 42.64V46.36C22.38 46.6 22.5 46.72 22.74 46.84L28.02 49.96C28.26 50.08 28.38 50.08 28.62 49.96C28.86 49.84 28.98 49.6 28.98 49.48V45.76C28.98 45.52 28.86 45.4 28.62 45.28L23.34 42.16ZM27.78 48.52L23.7 46.12V43.72L27.78 46.12V48.52Z" fill="black"/>
<path d="M31.62 46.96C31.38 46.84 31.26 46.84 31.02 46.96C30.78 47.08 30.66 47.32 30.66 47.44V51.16C30.66 51.4 30.78 51.52 31.02 51.64L36.3 54.76C36.42 54.76 36.54 54.88 36.66 54.88C37.02 54.88 37.26 54.64 37.26 54.28V50.56C37.26 50.32 37.14 50.2 36.9 50.08L31.62 46.96ZM36.06 53.32L31.98 50.92V48.52L36.06 50.92V53.32Z" fill="black"/>
<path d="M44.58 59.56C44.7 59.56 44.82 59.68 44.94 59.68C45.3 59.68 45.54 59.44 45.54 59.08V55.36C45.54 55.12 45.42 55 45.18 54.88L39.78 51.76C39.54 51.64 39.42 51.64 39.18 51.76C38.94 51.88 38.82 52.12 38.82 52.24V55.96C38.82 56.2 38.94 56.32 39.18 56.44L44.58 59.56ZM40.14 53.32L44.34 55.72V58.12L40.14 55.72V53.32Z" fill="black"/>
<path d="M23.34 50.32C23.1 50.2 22.98 50.2 22.74 50.32C22.5 50.44 22.38 50.56 22.38 50.8V54.52C22.38 54.76 22.5 54.88 22.74 55L28.02 58.12C28.14 58.12 28.26 58.24 28.38 58.24C28.74 58.24 28.98 58 28.98 57.64V53.92C28.98 53.68 28.86 53.56 28.62 53.44L23.34 50.32ZM27.78 56.56L23.7 54.16V51.76L27.78 54.16V56.56Z" fill="black"/>
<path d="M31.62 55C31.38 54.88 31.26 54.88 31.02 55C30.78 55.12 30.66 55.36 30.66 55.48V59.2C30.66 59.44 30.78 59.56 31.02 59.68L36.3 62.8C36.42 62.8 36.54 62.92 36.66 62.92C37.02 62.92 37.26 62.68 37.26 62.32V58.6C37.26 58.36 37.14 58.24 36.9 58.12L31.62 55ZM36.06 61.36L31.98 58.96V56.56L36.06 58.96V61.36Z" fill="black"/>
<path d="M39.9 59.8C39.66 59.68 39.54 59.68 39.3 59.8C39.06 59.92 38.94 60.16 38.94 60.28V64C38.94 64.24 39.06 64.36 39.3 64.48L44.7 67.6C44.94 67.72 45.06 67.72 45.3 67.6C45.54 67.48 45.66 67.24 45.66 67.12V63.4C45.66 63.16 45.54 63.04 45.3 62.92L39.9 59.8ZM44.34 66.16L40.14 63.76V61.36L44.34 63.76V66.16Z" fill="black"/>
</svg>
