<svg width="93" height="92" viewBox="0 0 93 92" fill="none" xmlns="http://www.w3.org/2000/svg">
<rect x="0.5" width="92" height="92" rx="46" fill="white"/>
<path d="M58.86 44.44C60.06 43.72 61.02 42.16 61.02 40.72C61.02 39.16 59.7 38.32 58.26 39.16C57.06 39.88 56.1 41.44 56.1 42.88C56.22 44.44 57.54 45.16 58.86 44.44ZM58.86 40.24C59.46 39.88 59.82 40 59.82 40.72C59.82 41.68 59.1 42.88 58.26 43.36C57.66 43.72 57.3 43.48 57.3 42.88C57.42 41.92 58.02 40.72 58.86 40.24Z" fill="black"/>
<path d="M58.86 38.44C60.06 37.72 61.02 36.16 61.02 34.72C61.02 33.16 59.7 32.32 58.26 33.16C57.06 33.88 56.1 35.44 56.1 36.88C56.22 38.44 57.42 39.28 58.86 38.44ZM58.86 34.24C59.46 33.88 59.82 34 59.82 34.72C59.82 35.68 59.1 36.88 58.26 37.36C57.66 37.72 57.3 37.6 57.3 36.88C57.3 35.92 58.02 34.72 58.86 34.24Z" fill="black"/>
<path d="M58.26 45.16C57.06 45.88 56.1 47.44 56.1 48.88C56.1 50.56 57.42 51.28 58.86 50.44C60.06 49.72 61.02 48.16 61.02 46.72C61.02 45.04 59.7 44.32 58.26 45.16ZM58.26 49.36C57.66 49.72 57.3 49.48 57.3 48.88C57.3 47.92 58.02 46.72 58.86 46.24C59.46 45.88 59.82 46.12 59.82 46.72C59.82 47.68 59.1 48.88 58.26 49.36Z" fill="black"/>
<path d="M42.54 49.6C42.18 49.6 41.94 49.84 41.94 50.2V52.36C41.94 52.72 42.18 52.96 42.54 52.96C42.9 52.96 43.14 52.72 43.14 52.36V50.2C43.14 49.96 42.9 49.6 42.54 49.6Z" fill="black"/>
<path d="M42.18 19.84C40.98 19.12 39.18 19.12 37.98 19.84C37.38 20.2 37.02 20.8 36.9 21.4C37.02 21.64 36.9 60.4 36.9 60.52L29.7 64.72C29.46 64.84 29.34 65.08 29.34 65.2V68.44C29.34 68.68 29.46 68.8 29.7 68.92L39.9 74.8C40.14 74.92 40.26 74.92 40.5 74.8L50.58 68.92C50.82 68.8 50.82 68.56 50.82 68.44V65.2C50.82 64.96 50.7 64.84 50.46 64.72L43.14 60.52V54.88C43.14 54.52 42.9 54.28 42.54 54.28C42.18 54.28 41.94 54.52 41.94 54.88V65.68C41.94 66.76 38.1 66.76 38.1 65.68C38.22 9.40001 38.22 27.52 38.22 22.96C39.18 23.44 40.86 23.56 42.06 22.96C42.06 27.76 42.06 43.6 42.06 48.16C42.06 48.52 42.3 48.76 42.66 48.76C43.02 48.76 43.26 48.52 43.26 48.16V32.2L53.7 25.96V27.52L48.54 30.52C48.3 30.64 48.3 30.88 48.18 31C48.18 31.12 48.18 51.28 48.18 51.4C48.18 51.64 48.3 51.76 48.42 51.88C48.42 51.88 47.94 51.64 53.7 55C53.94 55.12 54.06 55.12 54.3 55L63.18 49.84C63.42 49.72 63.54 49.48 63.54 49.36C63.54 49.24 63.54 28.84 63.54 28.96C63.54 28.72 63.42 28.48 63.3 28.48C62.7 28.12 57.78 25.36 58.02 25.36C57.9 25.24 57.66 25.24 57.42 25.36V23.68L59.94 22.12C62.1 20.8 59.22 16 57.06 17.32L43.14 25.72V21.4C43.26 20.8 42.78 20.2 42.18 19.84ZM54.78 30.16C54.78 30.04 54.78 25.12 54.78 25.24L56.22 24.4C56.22 24.64 56.22 30.28 56.22 30.04C56.22 30.04 56.22 30.04 56.1 30.16C55.5 30.52 54.66 30.04 54.78 30.16ZM49.38 32.08C49.5 32.2 53.82 34.6 53.46 34.48V53.56L49.38 51.16V32.08ZM54.78 53.56V34.48L62.46 30.04V49.12L54.78 53.56ZM57.66 26.56L61.86 28.96L54.18 33.4C54.06 33.28 49.74 30.88 49.98 31L53.58 28.84V30.04C53.58 31.84 57.3 31.84 57.3 30.04V26.56H57.66ZM38.58 20.8C39.42 20.32 40.74 20.32 41.58 20.8C42.18 21.16 42.18 21.52 41.58 21.76C40.74 22.24 39.42 22.24 38.58 21.76C38.1 21.52 37.98 21.16 38.58 20.8ZM30.54 66.28C30.66 66.4 40.14 71.8 39.54 71.44V73.24L30.54 68.08V66.28ZM40.74 73.24V71.44C40.86 71.32 50.22 65.92 49.62 66.28V68.08L40.74 73.24ZM49.02 65.2C48.9 65.32 39.54 70.72 40.14 70.36C40.02 70.24 30.54 64.84 31.14 65.2L36.9 61.84V65.68C36.9 68.44 43.14 68.32 43.14 65.68V61.84L49.02 65.2ZM57.78 18.4C58.5 18.04 60.18 20.68 59.34 21.16L43.14 30.88V27.16L57.78 18.4Z" fill="black"/>
</svg>
