<svg width="93" height="92" viewBox="0 0 93 92" fill="none" xmlns="http://www.w3.org/2000/svg">
<path d="M23.0015 58.4042C23.0033 58.8923 23.3989 59.2862 23.8862 59.2862C24.3751 59.2845 24.7725 58.888 24.7708 58.399L24.7017 34.0317C24.8808 34.1358 34.0583 39.469 33.8792 39.3649C33.9103 50.3785 33.9791 74.7774 34.0109 86.0372L24.833 80.7036L24.8001 68.7189C24.7984 68.2317 24.4028 67.8369 23.9155 67.8369C23.4266 67.8386 23.0292 68.2352 23.0309 68.7241L23.0655 81.2159C23.0672 81.5303 23.2331 81.8206 23.506 81.9778L34.4566 88.3412C34.4563 88.341 34.4569 88.3414 34.4566 88.3412C34.4576 88.3417 34.4591 88.3432 34.4601 88.3438C34.733 88.5009 35.07 88.5001 35.343 88.3429L69.6304 68.5462C69.9052 68.3872 70.0745 68.0944 70.0728 67.7773L69.9345 19.0561C69.9345 18.7891 69.8136 18.5378 69.6045 18.3702C67.4529 16.6392 59.6625 10.3324 59.2909 10.0747C58.9816 9.85796 51.0997 5.2976 48.2874 3.65825C48.0161 3.4993 47.6757 3.4993 47.401 3.65652L33.5357 11.6613C33.5171 11.6721 33.5092 11.6934 33.4916 11.7054C33.4012 11.7662 33.3275 11.8425 33.2646 11.9323C33.2465 11.9582 33.2221 11.9768 33.2069 12.0045C33.202 12.0133 33.193 12.0186 33.1884 12.0275L23.0223 32.0921C22.9619 32.2118 22.9387 32.3385 22.9351 32.4648C22.9348 32.4754 22.9271 32.4839 22.9272 32.4946L23.0015 58.4042ZM68.3018 67.2702L35.781 86.0462L35.6477 39.0666L45.5992 19.4257C46.1456 19.1103 59.2237 11.5596 58.711 11.8556L68.167 19.4828L68.3018 67.2702ZM47.8416 5.44476L57.0281 10.7836C56.8492 10.8869 44.1385 18.2255 44.9298 17.7686L35.7438 12.4301L47.8416 5.44476ZM34.3443 13.6629C34.5332 13.7726 44.1079 19.3372 43.7615 19.1359L34.3961 37.6199C34.2171 37.5159 24.6128 31.9342 24.9781 32.1465L34.3443 13.6629Z" fill="white"/>
<path d="M23.9104 66.8789C24.3977 66.8772 24.7933 66.4798 24.7916 65.9917L24.7778 61.3475C24.7761 60.8594 24.3804 60.4655 23.8932 60.4655H23.8897C23.4025 60.4672 23.0068 60.8646 23.0086 61.3527L23.0224 65.9969C23.0241 66.485 23.4198 66.8789 23.907 66.8789H23.9104Z" fill="white"/>
<path d="M52.3372 30.2927C56.0213 28.1641 57.186 23.0038 55.112 21.1562C54.1824 20.3261 52.8106 20.2984 51.4387 21.0897C49.3291 22.3069 47.6808 25.1724 47.6895 27.6103C47.6966 30.4131 49.9079 31.6944 52.3372 30.2927ZM52.3234 22.6222C52.812 22.3388 53.5093 22.0991 53.9354 22.4771C54.9363 23.3691 54.1733 27.1798 51.5009 28.7342C50.1622 29.1691 49.4631 29.3527 49.4587 27.606C49.4535 25.8039 50.7649 23.5216 52.3234 22.6222Z" fill="white"/>
<path d="M39.5173 49.8595C39.2426 50.0185 39.0732 50.3113 39.075 50.6284L39.1527 78.1542C39.1544 78.4695 39.322 78.7607 39.5967 78.9188C39.8696 79.0759 40.2067 79.0751 40.4796 78.9179L64.4334 65.088C64.7081 64.9291 64.8774 64.6362 64.8757 64.3192L64.7979 36.7933C64.7962 36.478 64.6286 36.1868 64.3539 36.0287C64.0809 35.8715 63.744 35.8724 63.471 36.0296L39.5173 49.8595ZM40.9185 76.6217L40.8459 51.1355L63.0321 38.3258L63.1047 63.8121L40.9185 76.6217Z" fill="white"/>
<path d="M49.2791 64.6985L46.3609 66.383L48.4221 60.9449C48.5949 60.4879 48.3651 59.9773 47.9072 59.8037C47.4511 59.6301 46.9397 59.8616 46.7669 60.3177L43.828 68.0762C43.6967 68.4261 43.7969 68.8218 44.0819 69.0637C44.3676 69.3057 44.7726 69.3431 45.0979 69.1561L50.1637 66.231C50.587 65.9865 50.7321 65.4457 50.4868 65.0224C50.2449 64.5974 49.7024 64.4531 49.2791 64.6985Z" fill="white"/>
<path d="M57.4256 55.638C57.1474 55.2338 56.598 55.1344 56.1954 55.4074C55.7928 55.683 55.6892 56.2341 55.9639 56.6367L58.0251 59.6491L53.6539 62.1733C53.2306 62.4178 53.0854 62.9586 53.3308 63.3819C53.5716 63.8033 54.1127 63.9503 54.5385 63.7058L59.7373 60.7039C59.9516 60.5803 60.1036 60.3738 60.1572 60.1337C60.2125 59.8935 60.1641 59.6413 60.0259 59.4383L57.4256 55.638Z" fill="white"/>
<path d="M55.2675 54.0408C55.6718 53.7643 55.7737 53.214 55.4973 52.8106L52.6672 48.6812C52.4806 48.41 52.1679 48.2597 51.8327 48.3029C51.5061 48.3417 51.228 48.5594 51.1105 48.867L48.3029 56.2514C48.1301 56.7084 48.3599 57.219 48.816 57.3926C49.2643 57.5645 49.7817 57.3427 49.9581 56.8804L52.1644 51.0759L54.039 53.811C54.3155 54.2135 54.8684 54.3164 55.2675 54.0408Z" fill="white"/>
</svg>
