<svg width="93" height="93" viewBox="0 0 93 93" fill="none" xmlns="http://www.w3.org/2000/svg">
<path d="M13.7866 79.0447L26.1775 86.0941C26.1944 86.1038 26.214 86.0999 26.2314 86.1084C26.2336 86.1096 26.2354 86.1114 26.2376 86.1127C32.9264 89.9637 41.0058 87.9189 47.6637 84.0777C50.6591 82.3562 53.5957 80.1204 56.4139 77.4655C56.985 78.1569 57.6463 78.7443 58.4127 79.1914L64.1017 82.4274C64.1072 82.4306 64.1135 82.429 64.1191 82.432C64.1219 82.4337 64.1242 82.436 64.1271 82.4376C67.355 84.2938 71.2175 83.3537 74.4329 81.4985C82.0026 77.1275 88.1408 66.4827 88.1162 57.7679C88.1035 53.398 86.5701 50.11 83.8008 48.5015C83.8002 48.5011 83.8013 48.5018 83.8008 48.5015C83.8 48.501 83.7981 48.4997 83.7974 48.4992C83.6235 48.3999 77.9368 45.1639 78.1105 45.2635C77.334 44.812 76.4813 44.5125 75.5684 44.3611C76.4865 40.53 76.9649 36.8018 76.9485 33.2778C76.9231 24.1087 73.7506 17.2407 68.0167 13.9385C66.7091 13.1822 55.8555 7.02518 55.6699 6.91968C49.8869 3.55309 42.2663 4.26421 34.2108 8.92591C33.7964 9.16578 33.654 9.69636 33.8947 10.1117C34.132 10.5261 34.6626 10.6694 35.0805 10.4278C42.5722 6.09414 49.575 5.37963 54.8046 8.42414L60.9122 11.8992C60.8839 11.8979 60.8545 11.9002 60.8261 11.8989C60.8242 11.8988 60.8222 11.899 60.8203 11.8989C53.1401 11.567 45.5023 15.9689 39.6918 20.9486C26.8184 31.9719 17.2405 50.8404 17.2753 66.7243C17.2963 71.5428 18.2676 76.7836 20.8203 80.8271C20.8541 80.8806 20.8841 80.9381 20.9184 80.9911C20.9544 81.0468 20.9851 81.1085 21.0216 81.1637L14.6529 77.5411C9.50974 74.5398 6.65678 68.1923 6.61949 59.669C6.58728 44.8329 15.2809 26.7726 27.7607 15.7498C28.1201 15.4328 28.154 14.8844 27.8362 14.525C27.52 14.1665 26.9716 14.1326 26.6114 14.4496C13.7858 25.7775 4.85058 44.3744 4.88364 59.6741C4.92347 68.839 8.08241 75.7171 13.7866 79.0447ZM44.4912 75.768C33.3914 82.1331 26.1183 77.6599 26.0707 65.2876C26.0368 50.5066 36.8951 31.7259 49.7818 24.2765C60.7364 17.9633 68.1157 22.2825 68.165 34.7068C68.1816 38.6138 67.4212 42.8933 65.9237 47.4233C59.8614 51.8767 55.0674 60.1579 54.2326 67.609C51.146 71.0568 47.8701 73.8083 44.4912 75.768ZM86.3804 57.7729C86.4033 65.9326 80.6541 75.9019 73.5649 79.9949C70.2814 81.8909 67.2343 82.2257 64.9925 80.9323C62.3764 79.4273 61.5273 76.1561 61.5191 73.1244C61.4954 65.009 67.2553 55.0164 74.3456 50.9236C81.164 46.9784 86.3576 50.0704 86.3804 57.7729ZM78.6309 47.557C76.863 47.7857 75.0108 48.5352 73.4776 49.4192C65.9232 53.7808 59.7587 64.4373 59.7773 73.1286C59.7861 75.2914 60.2188 77.2249 60.7851 78.5438L59.2789 77.6877C57.0667 76.3969 55.8403 73.6253 55.8242 69.8866C55.8072 61.7405 61.5632 51.7822 68.6566 47.6867C71.2984 46.1581 74.6072 45.2341 77.2451 46.7679L78.6309 47.557ZM75.2126 33.2846C75.2287 36.7722 74.7452 40.472 73.8067 44.2841C72.0221 44.3481 70.123 44.9177 68.16 45.9949C69.3073 42.0143 69.9159 38.2159 69.9008 34.7001C69.8455 20.7144 60.946 15.8369 48.9147 22.7729C35.5551 30.4952 24.2992 49.9659 24.3348 65.2927C24.3889 79.3275 33.2696 84.2036 45.3582 77.2716C48.3841 75.517 51.3133 73.1421 54.1063 70.2605C54.1612 72.4969 54.6227 74.4325 55.4477 75.9962C52.6597 78.652 49.7557 80.8736 46.7974 82.5732C39.3158 86.8908 32.3224 87.6112 27.103 84.6083C21.9175 81.6231 19.0476 75.273 19.0239 66.7277C18.9797 51.3063 28.2906 32.9693 40.8073 22.2672C52.729 12.0819 60.3632 12.7006 67.1954 15.4743C67.1953 15.4742 67.1955 15.4744 67.1954 15.4743C72.3395 18.4659 75.189 24.7851 75.2126 33.2846Z" fill="white"/>
<path d="M30.3102 13.641C30.9866 13.1189 31.6714 12.6197 32.363 12.1442C32.7589 11.873 32.8589 11.3331 32.5876 10.9381C32.3164 10.5423 31.7774 10.4431 31.3815 10.7135C30.6628 11.2059 29.9508 11.7255 29.249 12.2679C28.8693 12.5604 28.7998 13.1053 29.0931 13.4851C29.3854 13.8647 29.9316 13.9341 30.3102 13.641Z" fill="white"/>
<path d="M46.6585 48.9589C41.8816 51.717 38.0081 58.4273 38.0242 63.9171L38.0268 64.8884C38.0276 65.1978 38.1937 65.4834 38.4616 65.6377C38.5955 65.7156 38.7455 65.7538 38.8947 65.7538C39.0447 65.7538 39.1947 65.7148 39.3286 65.6377L55.7836 56.1371C56.0531 55.9812 56.2184 55.6938 56.2176 55.3828L56.215 54.4114C56.1975 48.5181 51.8042 45.988 46.6585 48.9589ZM39.7719 63.3772C39.9965 58.5485 43.3835 52.8544 47.5265 50.4625C51.5009 48.1675 54.4651 49.8586 54.4792 54.4165L54.48 54.8852L39.7719 63.3772Z" fill="white"/>
<path d="M47.5103 46.1882C50.1217 44.6803 52.161 41.1527 52.1525 38.1582C52.1438 34.8372 49.5576 33.295 46.6152 34.995C44.0106 36.4995 41.9764 40.0297 41.9849 43.0318C41.9936 46.3331 44.5689 47.8877 47.5103 46.1882ZM47.4832 36.4986C49.1425 35.5402 50.411 36.0507 50.4166 38.1633C50.4234 40.5136 48.6952 43.4997 46.6424 44.6846C44.9096 45.6845 43.7261 45.0275 43.7207 43.0267C43.714 40.6696 45.4371 37.6802 47.4832 36.4986Z" fill="white"/>
<path d="M78.3251 61.932L74.8131 63.9596L74.8017 59.9317C74.8 59.4537 74.4118 59.0664 73.9337 59.0664H73.9312C73.4523 59.068 73.0641 59.4571 73.0658 59.9368L73.0801 64.96L68.7058 67.4854C68.2905 67.7253 68.1481 68.2558 68.388 68.6712C68.549 68.95 68.8406 69.1051 69.1407 69.1051C69.2881 69.1051 69.4373 69.0678 69.5738 68.989L73.0857 66.9615L73.0972 70.9893C73.0989 71.4673 73.4871 71.8547 73.9651 71.8547H73.9676C74.4465 71.853 74.8347 71.4639 74.833 70.9842L74.8187 65.961L79.193 63.4356C79.6083 63.1958 79.7507 62.6652 79.5108 62.2499C79.2693 61.8329 78.7387 61.6922 78.3251 61.932Z" fill="white"/>
</svg>
