<svg width="93" height="93" viewBox="0 0 93 93" fill="none" xmlns="http://www.w3.org/2000/svg">
<path d="M44.6166 11.2529C43.7589 11.8962 42.9019 12.6234 42.0713 13.4142C41.7238 13.7448 41.7102 14.294 42.0408 14.6415C42.3732 14.9887 42.9204 15.0021 43.2681 14.672C44.0504 13.927 44.8539 13.2438 45.6574 12.6412C46.0414 12.3539 46.1194 11.8097 45.8312 11.4266C45.543 11.041 44.998 10.9638 44.6166 11.2529Z" fill="white"/>
<path d="M85.0006 33.9927C81.3949 31.9132 81.1887 31.7769 78.6899 30.3242C79.1874 25.3511 78.239 19.8395 73.8939 17.3394C73.8824 17.3327 73.8695 17.3291 73.858 17.3225L58.8273 8.57536C55.8896 6.87087 52.0322 7.0726 47.9647 9.14833C47.5383 9.36616 47.3688 9.88911 47.5866 10.3154C47.8045 10.7409 48.3232 10.9113 48.7546 10.6943C52.2755 8.89659 55.5454 8.67792 57.9551 10.0764L68.5321 16.2316C66.3529 16.4167 63.9969 17.3445 62.1176 18.4285C55.5833 22.2015 49.8216 30.0835 47.4961 38.3016C47.4929 38.3129 47.488 38.3239 47.4848 38.3353C47.3063 38.2314 33.0474 29.9366 33.9457 30.4591C35.0899 26.1373 37.3072 21.7451 40.2322 18.0251C40.5288 17.6479 40.4636 17.1029 40.0864 16.8062C39.7075 16.5079 39.1634 16.5765 38.8676 16.952C35.8081 20.8424 33.4989 25.4403 32.2921 29.9746C30.4305 29.8474 28.3558 30.378 26.2166 31.6127C20.7069 34.7938 16.0233 41.7215 14.7056 48.5518C8.95479 52.9666 4.81965 60.9863 4.83967 67.7663C4.85069 71.5965 6.1958 74.4842 8.62837 75.898C18.4393 81.5996 23.9666 84.8105 23.7467 84.684C24.7765 85.2765 25.936 85.5706 27.1836 85.5706C28.9203 85.5706 30.8265 85.0002 32.7853 83.8695L78.47 57.4927C83.8301 54.3991 88.1774 46.8683 88.1604 40.7064C88.1511 37.544 87.0289 35.1598 85.0006 33.9927ZM78.4454 32.1907L80.5797 33.4358C79.8835 33.5854 78.8791 33.938 78.0177 34.3891C78.0026 34.3971 77.9878 34.4014 77.9727 34.4094C78.1469 33.7232 78.2852 33.046 78.4061 32.3737C78.4173 32.3127 78.4346 32.2517 78.4454 32.1907ZM27.0845 33.1163C29.1077 31.9483 31.0232 31.4677 32.6344 31.7127C32.8095 31.8144 45.8232 39.3787 44.9995 38.9C37.8592 40.4706 31.6366 49.328 29.9671 56.4604L17.4082 49.1625L16.4473 48.6041C17.7365 42.4126 22.1363 35.9735 27.0845 33.1163ZM9.50053 74.3978C7.62313 73.3061 6.58484 70.9498 6.57552 67.7612C6.55772 61.6662 10.3828 54.1773 15.5454 50.0875L20.7116 53.0898L29.0373 57.9284C24.1034 62.0928 19.9154 69.8154 19.9343 76.5388C19.9389 78.1441 20.2505 79.8032 20.6556 80.8801L9.50053 74.3978ZM77.6021 55.9891L31.9174 82.3659C26.1454 85.7028 21.6895 83.1802 21.6701 76.5337C21.6523 70.2616 25.7029 62.5147 31.091 58.5141C31.2059 58.429 31.3931 58.1692 31.4283 57.9682C33.3861 46.8658 42.7754 39.5733 47.8731 40.5089C48.3025 40.5895 48.7848 40.2463 48.8767 39.8664C50.8685 31.6652 56.5405 23.6539 62.994 19.9287C66.0323 18.1688 69.9822 17.0804 73.0455 18.8582L73.0527 18.8607C78.2144 21.8633 77.6046 30.2931 75.6569 36.1311C75.5365 36.4913 75.6645 36.8872 75.9722 37.1092C76.1239 37.2194 76.3019 37.2737 76.4799 37.2737L76.4892 37.2706C76.6224 37.2699 76.7449 37.2069 76.8663 37.1452C76.9094 37.1232 76.9606 37.1304 77.0003 37.1007L77.0043 37.098L77.0062 37.0974C82.3685 33.0508 86.4078 35.1588 86.4246 40.7115C86.4398 46.3191 82.4825 53.1726 77.6021 55.9891Z" fill="white"/>
<path d="M67.6482 45.8766C67.1693 45.8783 66.7811 46.2674 66.7828 46.7471L66.8023 53.8473L45.8271 65.9575L45.8093 59.8533C45.8076 59.3752 45.4195 58.9879 44.9414 58.9879H44.9389C44.46 58.9896 44.0718 59.3786 44.0735 59.8583L44.0955 67.4612C44.0964 67.7705 44.2625 68.0562 44.5303 68.2113C44.7943 68.3633 45.1258 68.3669 45.3974 68.2104L68.1059 55.0992C68.3754 54.9432 68.5407 54.6559 68.5398 54.3448L68.5186 46.742C68.5169 46.2631 68.0669 45.8588 67.6482 45.8766Z" fill="white"/>
<path d="M50.8633 52.5225L52.2432 51.7258L52.2762 57.7462C52.2779 58.0547 52.4441 58.3403 52.7119 58.4937C52.9786 58.6474 53.3092 58.6478 53.5781 58.4929L57.7779 56.068C58.0483 55.912 58.2136 55.623 58.2119 55.3111L58.172 48.3024L60.4054 47.0141C60.6283 46.8852 60.7826 46.664 60.8266 46.4098C60.8707 46.1555 60.7995 45.8953 60.6317 45.6995L55.8386 40.0741C55.4181 39.5801 54.6305 39.7084 54.3799 40.2961L49.6309 51.43C49.4843 51.7741 49.5741 52.1725 49.8538 52.42C50.1327 52.6675 50.5404 52.7064 50.8633 52.5225ZM55.4267 42.2668L58.6348 46.0317L56.8676 47.0514C56.5972 47.2073 56.4319 47.4964 56.4336 47.8083L56.4735 54.8169L54.0036 56.2426L53.9706 50.2222C53.9669 49.5588 53.2468 49.1425 52.6687 49.4755L52.2483 49.7179L55.4267 42.2668Z" fill="white"/>
</svg>
