<svg width="93" height="93" viewBox="0 0 93 93" fill="none" xmlns="http://www.w3.org/2000/svg">
<path d="M75.0959 57.8711L69.6991 54.7477C69.4279 54.5901 69.0948 54.5926 68.827 54.7486L65.7472 56.5397C64.218 55.4324 62.9958 53.2017 63.01 51.4082L63.1311 8.85599C63.1316 8.84349 63.1405 8.83322 63.1405 8.82061C63.1397 8.51039 62.9744 8.22476 62.7066 8.06965L57.3075 4.95309C57.0379 4.79798 56.7065 4.79629 56.437 4.95478L51.2668 7.95946C50.8531 8.20018 50.7116 8.73161 50.9532 9.14608C51.193 9.56055 51.7236 9.69955 52.1398 9.45968L56.8752 6.70758L60.5404 8.82368L23.8535 30.1427C23.6795 30.0425 19.9499 27.8934 20.1859 28.0294L44.7073 13.779C45.1209 13.5383 45.2625 13.0068 45.0209 12.5924C44.7794 12.1779 44.2479 12.0363 43.8343 12.2787L18.0178 27.2818C17.7508 27.4369 17.5855 27.7234 17.5864 28.0328C17.5874 28.4118 17.4681 70.4323 17.4669 70.6153C17.4482 76.5594 21.6454 83.8283 26.8225 86.8185C28.371 87.7127 29.8822 88.1637 31.2664 88.1637C32.2724 88.1637 33.2116 87.9246 34.0464 87.4441C34.0507 87.4416 34.0544 87.4381 34.0586 87.4357C34.5415 87.158 72.1256 65.3187 72.4877 65.1069C74.4422 63.9711 75.5237 61.6691 75.533 58.6263C75.5339 58.3152 75.3686 58.0279 75.0991 57.8719C75.0981 57.8714 75.0969 57.8716 75.0959 57.8711ZM69.266 56.5022L72.9327 58.6246L36.2467 79.943C30.1699 76.4365 37.8477 80.8663 32.5877 77.8325L69.266 56.5022ZM64.1458 57.4711L30.4137 77.0891C30.1475 77.2409 29.9806 77.5231 29.9763 77.8308C29.9546 79.4221 29.0949 79.91 27.7074 79.1174C26.0232 78.1495 24.601 75.6796 24.601 73.7276L24.7208 31.6482L61.3911 10.3375L61.2742 51.3989C61.2573 53.523 62.4587 55.9524 64.1458 57.4711ZM27.6904 85.3149C22.9931 82.6027 19.1858 76.0102 19.2027 70.6204L19.3197 29.5355C19.4936 29.6359 23.2158 31.7826 22.9799 31.6465L22.86 73.7293C22.86 76.3145 24.6069 79.3437 26.8403 80.6278C28.7618 81.7213 30.8208 81.3114 31.5003 79.2166C31.9486 79.4744 35.446 81.4853 35.2225 81.3568L35.3357 81.4221C35.2508 83.1373 34.6503 85.0949 33.181 85.9396C31.7579 86.7575 29.8094 86.5388 27.6904 85.3149ZM71.6147 63.6066L36.7078 83.8918C36.8764 83.3342 37.0637 82.3291 37.102 81.4567L73.6667 60.2078C73.3904 61.803 72.6852 62.9845 71.6147 63.6066Z" fill="white"/>
<path d="M47.3618 12.2355L49.635 10.915C50.0495 10.6743 50.191 10.1437 49.9495 9.72922C49.7088 9.31221 49.1731 9.17236 48.7637 9.41477L46.4905 10.7353C46.076 10.976 45.9345 11.5066 46.1761 11.9211C46.4184 12.3394 46.9519 12.4748 47.3618 12.2355Z" fill="white"/>
<path d="M57.7024 18.6975C57.4338 18.5432 57.1023 18.5441 56.8354 18.6983L28.8524 34.8541C28.5829 35.0101 28.4176 35.2974 28.4185 35.6085L28.449 46.2422C28.449 46.2563 28.4589 46.2678 28.4597 46.2817C28.493 46.9838 29.2278 47.2936 29.7509 46.9915L57.7329 30.8357C57.9977 30.6828 58.168 30.3286 58.1669 30.0814L58.1372 19.4476C58.1364 19.1382 57.9703 18.8526 57.7024 18.6975ZM56.4056 20.9512L56.4294 29.5836C54.8236 30.5108 57.3798 29.0349 30.1806 44.7386L30.156 36.106L56.4056 20.9512Z" fill="white"/>
<path d="M56.8651 35.5178L42.4536 43.8385C42.0383 44.0783 41.8959 44.6089 42.1358 45.0242C42.3763 45.4407 42.9085 45.5807 43.3216 45.3421L57.733 37.0214C58.1483 36.7815 58.2907 36.2509 58.0509 35.8356C57.811 35.4194 57.2779 35.2779 56.8651 35.5178Z" fill="white"/>
<path d="M56.8651 41.7034L42.4536 50.0241C42.0383 50.264 41.8959 50.7946 42.1358 51.2099C42.3763 51.6263 42.9085 51.7664 43.3216 51.5278L57.733 43.207C58.1483 42.9672 58.2907 42.4366 58.0509 42.0213C57.811 41.6051 57.2779 41.4636 56.8651 41.7034Z" fill="white"/>
<path d="M56.8651 47.8882L42.4536 56.2098C42.0383 56.4497 41.8959 56.9802 42.1358 57.3956C42.3763 57.812 42.9085 57.952 43.3216 57.7134L57.733 49.3918C58.1483 49.152 58.2907 48.6214 58.0509 48.2061C57.811 47.7891 57.2779 47.6484 56.8651 47.8882Z" fill="white"/>
<path d="M56.8649 54.0739L28.8828 70.2297C28.4675 70.4695 28.3251 71.0001 28.565 71.4154C28.8055 71.8318 29.3377 71.9719 29.7508 71.7333L57.7329 55.5775C58.1482 55.3376 58.2906 54.807 58.0507 54.3917C57.8108 53.9764 57.2777 53.834 56.8649 54.0739Z" fill="white"/>
<path d="M29.3169 63.7762C29.4669 63.7762 29.6169 63.7372 29.7509 63.66L39.5565 57.9982C39.8261 57.8422 39.9914 57.5549 39.9905 57.2438L39.9608 46.6101C39.96 46.3007 39.7939 46.0151 39.526 45.86C39.2573 45.7049 38.9259 45.7074 38.659 45.8608L28.8524 51.5227C28.5829 51.6786 28.4176 51.9659 28.4185 52.277L28.449 62.9108C28.4503 63.383 28.8326 63.7762 29.3169 63.7762ZM38.2292 48.1137L38.253 56.7463L30.1806 61.4072L30.156 52.7745L38.2292 48.1137Z" fill="white"/>
</svg>
