<svg width="93" height="93" viewBox="0 0 93 93" fill="none" xmlns="http://www.w3.org/2000/svg">
<path d="M15.959 51.0236C15.9607 51.5024 16.3489 51.8889 16.827 51.8889C16.8278 51.8889 16.8287 51.8889 16.8295 51.8889C17.3092 51.8872 17.6966 51.4982 17.6949 51.0185L17.6161 24.0297C17.7918 24.1319 23.8463 27.6503 23.4683 27.4306L23.6194 80.6413L17.7661 77.2393L17.7246 62.5973C17.7229 62.1193 17.3347 61.7319 16.8566 61.7319C16.8558 61.7319 16.8549 61.7319 16.8541 61.7319C16.3752 61.7336 15.987 62.1227 15.9887 62.6024L16.0319 77.7419C16.0328 78.0504 16.1972 78.3352 16.4634 78.4895L24.0365 82.8911C24.0455 82.8968 24.0492 82.9076 24.0585 82.913C24.3225 83.065 24.654 83.0686 24.9256 82.9122L56.3058 64.7953L56.301 66.1141C56.0216 66.2258 55.7404 66.3556 55.4572 66.5157C54.0841 67.3124 53.329 68.4227 53.3307 69.6424C53.331 69.8785 53.2256 84.0698 53.2179 83.8945C53.2145 85.1252 53.9807 86.2466 55.3759 87.0534C57.9319 88.5275 61.935 88.5362 64.4908 87.0518C65.8571 86.2593 66.6114 85.1515 66.6148 83.9369L66.7326 69.706C66.7326 69.7022 66.7326 69.6982 66.7326 69.6942C66.7326 69.6887 66.7352 69.6835 66.7352 69.678C66.7369 68.46 65.9478 67.3073 64.5764 66.5174C64.2638 66.3349 63.9404 66.1887 63.6129 66.0608L63.6323 62.2821C71.1359 57.6663 77.1489 47.0966 77.124 38.4039C77.1114 33.9602 75.5613 30.6164 72.7622 28.9713C72.7511 28.9641 72.7451 28.9524 72.7335 28.9457L67.3115 25.7893C65.9969 25.0315 64.4896 24.7133 62.868 24.7895L62.8363 15.1823C62.8364 15.1779 62.8397 15.1744 62.8397 15.17C62.8414 14.8614 62.6795 14.5758 62.4142 14.4182C60.7666 13.4506 68.3827 17.9231 46.3008 4.95575C46.0321 4.7981 45.6999 4.79979 45.4312 4.95406L16.3099 21.7667C16.0386 21.9238 15.8768 22.2128 15.876 22.5177C15.876 22.5183 15.8764 22.5187 15.8764 22.5194C15.8764 22.52 15.876 22.5204 15.876 22.5211L15.959 51.0236ZM61.8641 68.5685C61.8641 68.6507 61.7505 68.7991 61.4937 68.9482C60.6749 69.4305 59.2374 69.4288 58.4119 68.9465C58.1305 68.7821 58.028 68.6202 58.028 68.5541L58.0341 66.8589C58.0376 66.8364 58.0327 66.8133 58.0344 66.7904L58.0429 64.4478C59.2767 64.272 60.5687 63.8565 61.8915 63.2276L61.8641 68.5685ZM64.879 83.9276C64.8773 84.4954 64.4179 85.0871 63.6186 85.5507C61.6285 86.7068 58.2509 86.7076 56.2438 85.5498C55.4225 85.0752 54.9521 84.4734 54.9538 83.9038L55.0479 72.5166C57.7094 74.3764 62.3484 74.3516 64.973 72.57L64.879 83.9276ZM63.7051 68.0184C64.5236 68.4905 64.9932 69.09 64.9974 69.6668C64.9974 69.668 64.9968 69.6691 64.9968 69.6704V69.689C64.9761 70.9426 63.0011 71.7732 61.6013 72.0193C59.5067 72.3859 57.5808 71.9946 56.3608 71.2884C54.7231 70.3448 54.5859 69.0469 56.2939 68.0407L56.2921 68.5507C56.2921 69.2949 56.7473 69.9865 57.5364 70.4451C58.8964 71.2431 61.0214 71.2399 62.3693 70.4468C63.4398 69.8246 63.6 69.0033 63.6 68.5728L63.603 67.9749C63.6365 67.9934 63.6718 67.9991 63.7051 68.0184ZM75.3881 38.409C75.4119 46.7263 69.5424 56.8931 62.3032 61.0717C59.6404 62.6092 56.2016 63.5642 53.5364 62.0326C53.5279 62.0273 53.5234 62.0184 53.5146 62.0133C51.2558 60.7097 50.0047 57.889 49.9937 54.0732C49.9707 46.2743 55.1306 36.8441 61.7439 32.2449C64.699 30.1928 68.7393 28.6643 71.8255 30.4295C71.8302 30.4322 71.8355 30.434 71.8402 30.4366C74.1168 31.747 75.3771 34.5788 75.3881 38.409ZM66.4419 27.2912L67.6073 27.9702C65.7382 28.1877 63.3091 29.0433 60.7853 30.799C53.7325 35.6974 48.2289 45.7533 48.2528 54.0757C48.2578 55.8209 48.5895 57.9691 49.2656 59.5553L48.0867 58.8739C45.4612 57.3367 44.5712 53.954 44.5624 50.9185C44.5378 42.5994 50.4107 32.4242 57.6508 28.238C59.6697 27.081 61.598 26.4962 63.3135 26.4962C64.4645 26.4962 65.5206 26.7598 66.4419 27.2912ZM56.7845 26.7344C53.6817 28.5285 50.8242 31.3622 48.5061 34.6757L28.3278 46.3271C27.9125 46.567 27.7701 47.0976 28.01 47.5129C28.2505 47.9293 28.7827 48.0693 29.1957 47.8307L46.5599 37.8042C45.1613 40.3487 44.0823 43.0534 43.456 45.7308L28.3278 54.4681C27.9125 54.708 27.7701 55.2386 28.01 55.6539C28.2505 56.0703 28.7827 56.2104 29.1957 55.9717L43.0474 47.9717C42.9081 48.9709 42.8237 49.9603 42.8266 50.9235C42.8299 52.0465 42.9332 53.0987 43.129 54.0726L28.3278 62.6092C27.9125 62.8482 27.7701 63.3796 28.01 63.7949C28.2473 64.2046 28.7744 64.3547 29.1957 64.1128L43.6183 55.7947C44.2808 57.6458 45.3563 59.1034 46.7986 60.0838L28.3278 70.7502C27.9125 70.9901 27.7701 71.5207 28.01 71.936C28.2505 72.3524 28.7827 72.4924 29.1957 72.2538L48.4897 61.112C52.8621 63.5808 52.7033 63.679 54.0015 64.1209L25.357 80.6583L25.2067 27.4323C28.0152 25.8114 15.0513 33.2934 52.5949 11.6252C52.5953 11.8 52.613 20.6293 52.6119 20.0707C52.6127 20.3801 52.778 20.6665 53.0467 20.8208C53.3145 20.9751 53.6442 20.9751 53.9138 20.8208L61.1055 16.6727L61.1329 25.0034C59.7364 25.3035 58.2749 25.8797 56.7845 26.7344ZM54.3503 18.5628C54.3499 18.3892 54.3323 11.1886 54.3334 11.6456L60.2529 15.1547L54.3503 18.5628ZM45.8634 6.70855L51.727 10.1158C14.1843 31.7804 27.1328 24.3083 24.3317 25.9247C24.156 25.8226 18.0975 22.3013 18.4755 22.5211L45.8634 6.70855Z" fill="white"/>
<path d="M16.849 59.5646C17.3288 59.563 17.7161 59.1731 17.7144 58.6942L17.7034 54.9902C17.7017 54.5114 17.3135 54.1249 16.8355 54.1249H16.8329C16.3532 54.1266 15.9658 54.5164 15.9675 54.9953L15.9786 58.6993C15.9802 59.1782 16.3684 59.5646 16.8465 59.5646H16.849Z" fill="white"/>
<path d="M39.2286 25.7588L49.7292 19.6969C50.1446 19.457 50.287 18.9265 50.0471 18.5111C49.8055 18.0967 49.2741 17.9543 48.8613 18.1933L38.3606 24.2552C37.9453 24.4951 37.8029 25.0257 38.0428 25.441C38.285 25.8591 38.8172 25.9964 39.2286 25.7588Z" fill="white"/>
<path d="M56.771 21.7667L39.2014 31.9106C38.7861 32.1504 38.6437 32.681 38.8836 33.0963C39.1241 33.5128 39.6563 33.6528 40.0694 33.4142L57.6389 23.2703C58.0542 23.0305 58.1966 22.4999 57.9568 22.0846C57.716 21.6684 57.1829 21.5268 56.771 21.7667Z" fill="white"/>
<path d="M63.4914 33.7159C57.3523 37.2631 52.1863 46.2127 52.21 53.2569C52.21 56.9067 53.6295 60.1995 57.2633 60.1995C58.644 60.1995 60.2417 59.6977 61.8827 58.7484C68.0217 55.2081 73.1877 46.2635 73.164 39.2159C73.164 32.5801 68.8692 30.6025 63.4914 33.7159ZM64.3601 35.2187C65.6247 34.4872 67.2827 33.8712 68.717 34.0745C69.0732 35.1363 69.132 36.2884 69.132 36.9223V36.9249C69.1541 43.4267 64.3847 51.6804 58.7169 54.9496C57.0786 55.8965 55.5446 56.3218 54.3823 56.1158C54.0699 55.1909 53.9459 54.2043 53.9459 53.2544C53.9239 46.7517 58.6932 38.4929 64.3601 35.2187ZM71.4281 39.221C71.4502 45.7236 66.6817 53.9774 61.0139 57.2457C59.6366 58.0424 58.3398 58.4636 57.2633 58.4636C56.5246 58.4636 55.9435 58.2523 55.4636 57.8594C56.7279 57.7574 58.1354 57.291 59.5857 56.4523C65.7247 52.912 70.8916 43.9666 70.8679 36.9198C70.8679 36.6354 70.8472 36.2447 70.8105 35.8206C71.3452 36.9901 71.4281 38.4433 71.4281 39.2184V39.221Z" fill="white"/>
<path d="M32.5259 33.3515C30.0128 34.8034 28.0506 38.203 28.0591 41.0907L28.06 41.5688C28.0613 42.0511 28.4541 42.435 28.9279 42.435C29.0779 42.435 29.2279 42.396 29.3618 42.3189L37.4546 37.6462C37.7241 37.4902 37.8894 37.202 37.8885 36.891L37.8868 36.4146C37.878 33.1717 35.3502 31.723 32.5259 33.3515ZM29.9077 39.999C30.3103 37.9903 31.7419 35.8086 33.3938 34.8551C35.0022 33.9237 36.1346 34.4756 36.151 36.3943L29.9077 39.999Z" fill="white"/>
<path d="M33.3853 32.186C34.7948 31.3724 35.8942 29.4695 35.8891 27.854C35.8837 25.865 34.2243 24.921 32.5047 25.9173C31.0985 26.7293 30.0018 28.633 30.0069 30.2527C30.0122 32.2214 31.6549 33.184 33.3853 32.186ZM33.3726 27.4209C33.9627 27.0807 34.1517 27.2507 34.1532 27.8591C34.1566 28.8584 33.3921 30.1781 32.5174 30.6824C31.9899 30.9891 31.7444 30.9115 31.7427 30.2476C31.7393 29.2449 32.5013 27.9235 33.3726 27.4209Z" fill="white"/>
</svg>
