<svg width="93" height="93" viewBox="0 0 93 93" fill="none" xmlns="http://www.w3.org/2000/svg">
<path d="M50.0027 16.7115L53.6109 14.6299C54.0262 14.39 54.1686 13.8594 53.9287 13.4441C53.6872 13.0296 53.1557 12.8847 52.743 13.1263L49.1348 15.2079C48.7195 15.4478 48.5771 15.9784 48.817 16.3937C49.0591 16.8118 49.5914 16.9491 50.0027 16.7115Z" fill="white"/>
<path d="M76.9625 53.3424L76.871 11.771C76.8669 10.308 76.3317 9.19294 75.3771 8.60112C75.1263 8.42363 73.1604 7.30392 69.5852 5.21577C68.5655 4.62839 67.2865 4.72587 65.9796 5.48615L55.9077 11.2811C55.4924 11.5201 55.3492 12.0507 55.5882 12.4668C55.8272 12.8813 56.3578 13.0254 56.774 12.7864L66.8492 6.98891C67.5984 6.55325 68.2621 6.45663 68.7147 6.71769L72.0245 8.64255C71.9211 8.6934 71.8177 8.74849 71.7134 8.80782L26.0287 35.1888C23.5766 36.6035 21.7599 39.9374 21.768 42.5874C21.7767 46.8477 21.7362 27.1721 21.8536 84.1613C21.8544 84.2639 21.8586 84.3639 21.8646 84.463L18.5412 82.5306C18.1132 82.2873 17.8682 81.6677 17.8682 80.8295L17.7733 39.2428C17.7614 37.1306 19.315 34.4345 21.1594 33.3589L47.1141 18.5321C47.5302 18.2948 47.6752 17.7642 47.437 17.3481C47.1997 16.9311 46.6682 16.7853 46.2529 17.0251L20.2915 31.8553C17.8911 33.2555 16.0222 36.5043 16.0374 39.2496L16.1324 80.8312C16.1324 82.3314 16.6833 83.4705 17.6758 84.035L23.4097 87.3694C23.4118 87.3707 23.4144 87.37 23.4165 87.3712C23.4184 87.3723 23.4197 87.3743 23.4216 87.3753C24.5606 88.0313 25.8864 87.756 27.0162 87.105L37.3506 81.1384L43.917 86.7786C46.0225 88.4959 49.783 88.5739 52.0233 87.2482L64.9286 79.7564C66.038 79.1258 66.6898 78.1799 66.7178 77.1374V72.6079C66.7178 72.5982 66.7126 72.5901 66.7123 72.5804C66.7166 71.5703 66.0772 70.6106 64.9362 69.9397C64.4208 69.6403 64.4385 69.6965 60.1022 68.003L72.6983 60.7307C75.097 59.3449 76.9702 56.0995 76.9625 53.3424ZM64.9819 77.1137C64.9718 77.5112 64.6395 77.9239 64.064 78.2511L51.1452 85.7505C49.4335 86.7651 46.4537 86.6107 45.0315 85.4479L38.9439 80.2186L40.5142 79.312C44.5409 82.7688 44.1257 82.4436 44.6451 82.7603C46.7659 83.9496 49.9837 83.9166 52.0308 82.741C52.034 82.7392 52.0379 82.7383 52.0411 82.7365L64.9531 75.2422C64.9625 75.2363 64.9726 75.2303 64.9819 75.2252V77.1137ZM64.0598 71.4382C65.3576 72.2004 65.2079 73.0712 64.081 73.7233L51.1714 81.2338C49.868 81.985 47.2719 82.2247 45.4943 81.2287C44.6386 80.5305 43.9752 79.9893 42.108 78.3918L58.1728 69.1169C63.6362 71.2412 63.7098 71.2337 64.0598 71.4382ZM26.1483 85.6013C24.5746 86.5073 23.5997 85.876 23.5945 84.1545C23.5856 79.8911 23.6265 99.5711 23.508 42.5772C23.4964 40.4928 25.0332 37.7706 26.9001 36.6924L72.5822 10.3182C74.0174 9.49008 75.1295 9.91313 75.1351 11.7752L75.2267 53.3466C75.2326 55.4672 73.6773 58.1609 71.8304 59.2271C66.6288 62.2303 25.9533 85.7148 26.1483 85.6013Z" fill="white"/>
<path d="M71.6583 14.8782C71.3896 14.7231 71.0582 14.7248 70.7912 14.8782L26.9813 40.1718C26.7118 40.3277 26.5465 40.6151 26.5474 40.9261L26.6372 77.0569C26.6385 77.5405 27.0332 77.9222 27.5051 77.9222C27.6552 77.9222 27.8052 77.8833 27.9391 77.8061L71.7489 52.5126C72.0185 52.3566 72.1838 52.0693 72.1829 51.7582L72.093 15.6275C72.0922 15.3181 71.9269 15.0325 71.6583 14.8782ZM28.3697 75.5532L28.2841 41.4236L70.3606 17.1311L70.4462 51.2607L28.3697 75.5532Z" fill="white"/>
<path d="M50.2882 67.3809L47.6641 68.8955C47.2488 69.1354 47.1064 69.666 47.3462 70.0813C47.5884 70.4994 48.1207 70.6367 48.532 70.3991L51.1561 68.8845C51.5714 68.6446 51.7138 68.114 51.474 67.6987C51.2333 67.2834 50.7018 67.141 50.2882 67.3809Z" fill="white"/>
<path d="M48.9 32.6241C42.4347 36.356 37.1915 45.4319 37.2127 52.8567C37.2354 60.633 42.9641 64.0293 49.8417 60.0603C56.3003 56.3309 61.5383 47.2516 61.5171 39.8209C61.4943 32.001 55.7333 28.6805 48.9 32.6241ZM48.9738 58.5567C43.2824 61.8447 38.966 59.3108 38.9486 52.8516C38.9291 45.982 43.7823 37.5824 49.768 34.1277C55.3934 30.8789 59.7636 33.3042 59.7813 39.826C59.8008 46.7016 54.9526 55.1045 48.9738 58.5567Z" fill="white"/>
<path d="M49.1694 50.5207C47.9378 51.2319 47.0131 52.8346 47.0173 54.2493C47.0227 56.0156 48.5239 56.8636 50.0483 55.9834C51.2773 55.274 52.202 53.6712 52.1986 52.2549C52.1933 50.4966 50.6985 49.6363 49.1694 50.5207ZM49.1804 54.4798C48.9727 54.6002 48.8473 54.6061 48.8312 54.6061C48.8117 54.5866 48.754 54.479 48.7532 54.2442C48.7507 53.4576 49.3507 52.4202 50.0373 52.0244C50.2466 51.9032 50.3721 51.8981 50.3856 51.8981C50.4051 51.9176 50.4619 52.0252 50.4628 52.2591C50.4645 53.0474 49.8652 54.0848 49.1804 54.4798Z" fill="white"/>
<path d="M48.7718 50.0427L51.0857 48.7069C51.3392 48.5603 51.5019 48.2959 51.518 48.0034L52.1215 37.2646C52.1393 36.9467 51.9816 36.6441 51.7104 36.4772C51.4383 36.3093 51.0959 36.3068 50.8213 36.4645L46.9656 38.6911C46.6715 38.8614 46.5037 39.1869 46.5359 39.5251L47.4742 49.3731C47.5343 50.0049 48.2288 50.3555 48.7718 50.0427ZM50.2983 38.7707L49.8118 47.4381L49.0736 47.8636L48.3167 39.9158L50.2983 38.7707Z" fill="white"/>
</svg>
