<svg width="93" height="93" viewBox="0 0 93 93" fill="none" xmlns="http://www.w3.org/2000/svg">
<path d="M23.9301 82.3565C23.931 82.6651 24.0954 82.9499 24.3624 83.1041C24.4172 83.136 23.6003 82.6612 32.3076 87.7217C32.5716 87.8738 32.903 87.8773 33.1747 87.7209L68.7935 67.1568C69.063 67.0009 69.2283 66.7136 69.2275 66.4025L69.069 10.6443C69.0682 10.3939 68.8081 9.99572 68.6376 9.89671L68.6355 9.89555L68.6342 9.89417L68.6324 9.89364L60.6957 5.28078C60.427 5.12313 60.0939 5.12482 59.8252 5.27908L54.4897 8.3592C54.0744 8.59906 53.932 9.12965 54.1719 9.54497C54.4109 9.96028 54.9415 10.101 55.3576 9.86281L60.2575 7.03358L66.4693 10.6443L32.5834 30.2079C30.445 28.9652 26.104 26.4426 26.372 26.5983L48.61 13.7591C49.0253 13.5193 49.1677 12.9887 48.9279 12.5734C48.6872 12.1572 48.154 12.0148 47.7421 12.2555L24.2064 25.844C23.8999 26.0214 23.7729 26.4201 23.7725 26.5949L23.7729 26.5966L23.7725 26.5983L23.9301 82.3565ZM25.5125 28.1062C25.6979 28.2139 32.0301 31.8937 31.7157 31.7111L31.8685 85.4587L25.6643 81.8539L25.5125 28.1062ZM33.6044 85.468L33.4519 31.7112C41.4078 27.1179 59.5393 16.65 67.3374 12.1479L67.4899 65.905L33.6044 85.468Z" fill="white"/>
<path d="M50.9053 12.4335L52.9539 11.2511C53.3692 11.0113 53.5116 10.4807 53.2718 10.0654C53.031 9.65006 52.4979 9.50682 52.086 9.74754L50.0374 10.9299C49.6221 11.1698 49.4797 11.7004 49.7195 12.1157C49.9617 12.5338 50.494 12.6711 50.9053 12.4335Z" fill="white"/>
<path d="M61.0712 62.1519L39.0027 74.891C38.5874 75.1309 38.445 75.6615 38.6849 76.0768C38.9254 76.4932 39.4576 76.6332 39.8706 76.3946L61.9391 63.6555C62.3545 63.4156 62.4969 62.885 62.257 62.4697C62.0163 62.0535 61.484 61.9112 61.0712 62.1519Z" fill="white"/>
<path d="M61.0712 56.1154L39.0027 68.8554C38.5874 69.0953 38.445 69.6259 38.6849 70.0412C38.9254 70.4576 39.4576 70.5976 39.8706 70.359L61.9391 57.619C62.3545 57.3791 62.4969 56.8486 62.257 56.4332C62.0163 56.0171 61.484 55.8747 61.0712 56.1154Z" fill="white"/>
<path d="M53.4201 31.5007L39.0027 39.8231C38.5874 40.063 38.445 40.5936 38.6849 41.0089C38.9271 41.427 39.4593 41.5644 39.8706 41.3268L54.288 33.0043C54.7033 32.7645 54.8457 32.2339 54.6059 31.8186C54.366 31.4016 53.8329 31.2609 53.4201 31.5007Z" fill="white"/>
<path d="M61.0712 21.2213L39.0027 33.9613C38.5874 34.2011 38.445 34.7317 38.6849 35.147C38.9254 35.5635 39.4576 35.7035 39.8706 35.4649L61.9391 22.7249C62.3545 22.485 62.4969 21.9544 62.257 21.5391C62.0163 21.1229 61.484 20.9805 61.0712 21.2213Z" fill="white"/>
<path d="M43.7466 60.7296C43.7475 61.039 43.9127 61.3246 44.1814 61.4789C44.45 61.6336 44.7795 61.6338 45.0485 61.4789L56.7638 54.7152C57.0333 54.5592 57.1986 54.2711 57.1977 53.96L57.1952 53.2692C57.1828 48.8636 53.8303 46.9685 50.017 49.1712C46.4877 51.2087 43.733 55.9823 43.7449 60.038L43.7466 60.7296ZM50.8849 50.6748C53.5142 49.1555 55.4505 50.1853 55.4593 53.2752L55.4602 53.4633L45.524 59.1998C45.8605 55.9467 48.1328 52.264 50.8849 50.6748Z" fill="white"/>
<path d="M50.8739 46.8106C52.8039 45.696 54.31 43.0897 54.3033 40.8767C54.2961 38.2517 52.1843 37.1357 49.9857 38.4085C48.0608 39.5197 46.558 42.1286 46.564 44.3475C46.5729 46.9182 48.6453 48.0958 50.8739 46.8106ZM50.8536 39.9121C51.9321 39.2913 52.5638 39.6447 52.5674 40.8818C52.5725 42.4761 51.3994 44.5026 50.006 45.307C48.9025 45.9402 48.3033 45.5336 48.2998 44.3425C48.2956 42.7431 49.4653 40.714 50.8536 39.9121Z" fill="white"/>
</svg>
