<svg width="93" height="93" viewBox="0 0 93 93" fill="none" xmlns="http://www.w3.org/2000/svg">
<path d="M21.8488 82.6677C21.8505 82.9754 22.0133 83.2602 22.2794 83.4153C22.455 83.5176 30.3975 88.1452 30.2219 88.0429C30.2215 88.0427 30.2223 88.0431 30.2219 88.0429C30.4896 88.1971 30.8213 88.1991 31.0892 88.0448L70.8696 65.1643C71.1409 65.0083 71.307 64.721 71.3053 64.4091C71.299 62.1952 71.1538 10.7619 71.1527 10.3689C71.1518 10.1948 71.0472 9.81086 70.7204 9.62136L70.7184 9.6202C70.7179 9.61988 70.7177 9.61914 70.7171 9.61882C70.7165 9.6185 70.7158 9.61861 70.7153 9.61829L62.6938 4.95711C62.4294 4.80116 62.0954 4.80116 61.8242 4.95542L56.8082 7.85161C56.3929 8.09147 56.2505 8.62206 56.4912 9.03738C56.7286 9.45354 57.2591 9.5917 57.6762 9.35522L62.2565 6.70992L68.5523 10.3689C40.5578 26.5321 32.4734 31.1998 30.5903 32.2871L24.295 28.6284L49.8733 13.861C50.2886 13.6211 50.431 13.0905 50.1903 12.6752C49.9513 12.2573 49.419 12.1175 49.0054 12.3574L22.1285 27.8741C21.8215 28.0519 21.6946 28.4505 21.6946 28.625C21.6946 28.6256 21.695 28.6261 21.695 28.6267C21.695 28.6273 21.6946 28.6278 21.6946 28.6284L21.8488 82.6677ZM69.4203 11.873L69.444 20.3041L31.4825 42.2215L31.4587 33.7904L69.4203 11.873ZM23.583 82.1659L23.4355 30.1365C23.6091 30.2374 30.1254 34.0251 29.7212 33.7902L29.7873 85.7809L23.583 82.1659ZM31.5231 85.7928L31.4859 44.2251L69.4508 22.3066L69.5677 63.9107L31.5231 85.7928Z" fill="white"/>
<path d="M52.762 12.1929L55.1996 10.7859C55.6149 10.5461 55.7573 10.0155 55.5166 9.60018C55.2776 9.18486 54.747 9.04332 54.3317 9.28233L51.8941 10.6893C51.4787 10.9292 51.3364 11.4598 51.5771 11.8751C51.8132 12.287 52.343 12.4335 52.762 12.1929Z" fill="white"/>
<path d="M59.5052 24.9686C60.7664 24.2405 61.753 22.5326 61.7479 21.0807C61.7444 19.2614 60.2061 18.3791 58.6254 19.294C57.3609 20.0238 56.3726 21.7325 56.3743 23.1861C56.3778 24.991 57.9163 25.8848 59.5052 24.9686ZM59.4934 20.7976C59.9084 20.5592 60.0121 20.6148 60.0121 21.0858C60.0138 21.9291 59.373 23.0411 58.6373 23.4649C58.2334 23.6978 58.1128 23.6481 58.1101 23.1818C58.1084 22.3377 58.756 21.2231 59.4934 20.7976Z" fill="white"/>
<path d="M52.7721 28.8547C54.0333 28.1266 55.0199 26.4187 55.0148 24.9668C55.0112 23.1476 53.4729 22.2652 51.8923 23.1801C50.626 23.9116 49.636 25.6212 49.6411 27.0722C49.6447 28.8843 51.1905 29.7671 52.7721 28.8547ZM52.7602 24.6837C53.1752 24.4453 53.279 24.501 53.279 24.9719C53.2807 25.8153 52.6399 26.9273 51.9042 27.3511C51.4976 27.5853 51.3797 27.5344 51.377 27.0671C51.3753 26.2238 52.0211 25.1101 52.7602 24.6837Z" fill="white"/>
<path d="M66.2316 21.0841C67.4979 20.3526 68.4878 18.643 68.4828 17.1911C68.4792 15.3777 66.9397 14.4918 65.3518 15.4087C64.0855 16.1401 63.0955 17.8497 63.1006 19.3016C63.1042 21.1101 64.6469 21.9983 66.2316 21.0841ZM66.2197 16.9123C66.6642 16.6549 66.7444 16.763 66.7469 17.1962C66.7486 18.0252 66.0909 19.1618 65.3637 19.5805C64.9583 19.8141 64.8392 19.7628 64.8365 19.2965C64.8348 18.4532 65.4806 17.3386 66.2197 16.9123Z" fill="white"/>
<path d="M33.6252 36.9771C33.8654 37.393 34.3952 37.535 34.8118 37.2958L48.0256 29.6777C48.4409 29.4387 48.5833 28.9073 48.3443 28.4928C48.1036 28.0775 47.573 27.9334 47.1577 28.1741L33.9439 35.7922C33.5286 36.0312 33.3862 36.5626 33.6252 36.9771Z" fill="white"/>
<path d="M48.8833 52.1064C49.0325 52.1064 49.1817 52.0683 49.3156 51.9912L66.4961 42.1338C66.7656 41.9787 66.9334 41.6905 66.9317 41.3786L66.8995 30.0905C66.8978 29.7811 66.7334 29.4955 66.4639 29.3404C66.196 29.1861 65.8655 29.187 65.5976 29.3412L48.4816 39.2283C48.2137 39.3834 48.0493 39.6682 48.0476 39.9775L48.0154 51.236C48.0137 51.5462 48.1798 51.8335 48.4477 51.9886C48.5816 52.0674 48.7324 52.1064 48.8833 52.1064ZM49.7818 40.4818L65.1688 31.5941L65.1942 40.8794L49.7563 49.7374L49.7818 40.4818Z" fill="white"/>
<path d="M65.6315 46.4361L48.451 56.2926C48.0357 56.5308 47.8916 57.0614 48.1306 57.4775C48.3684 57.8892 48.8926 58.0381 49.3156 57.7979L66.496 47.9414C66.9114 47.7032 67.0554 47.1726 66.8164 46.7565C66.5757 46.3395 66.0468 46.1988 65.6315 46.4361Z" fill="white"/>
<path d="M65.6315 53.1871L35.4576 70.4998C35.0423 70.738 34.8982 71.2686 35.1372 71.6848C35.375 72.0964 35.8992 72.2453 36.3221 72.0051L66.4961 54.6924C66.9114 54.4543 67.0555 53.9237 66.8165 53.5075C66.5758 53.0905 66.0469 52.9506 65.6315 53.1871Z" fill="white"/>
<path d="M65.6315 59.9389L35.4576 77.2516C35.0423 77.4898 34.8982 78.0204 35.1372 78.4366C35.375 78.8482 35.8992 78.9972 36.3221 78.757L66.4961 61.4442C66.9114 61.2061 67.0555 60.6755 66.8165 60.2593C66.5758 59.844 66.0469 59.7016 65.6315 59.9389Z" fill="white"/>
<path d="M45.8643 58.2896C46.1338 58.1336 46.3 57.8463 46.2983 57.5352L46.2966 56.9199C46.286 52.9158 43.218 51.1912 39.76 53.1871C36.5884 55.0187 34.1134 59.3066 34.1253 62.9496L34.127 63.5658C34.1296 64.0462 34.5183 64.4311 34.9949 64.4311C35.1441 64.4311 35.295 64.3921 35.4289 64.315L45.8643 58.2896ZM40.6279 54.6907C42.8944 53.3811 44.5536 54.2342 44.5607 56.9249V57.0377L35.9239 62.0248C36.2951 59.2304 38.2954 56.0375 40.6279 54.6907Z" fill="white"/>
<path d="M40.6177 51.3894C42.362 50.3825 43.725 48.0245 43.7216 46.0208C43.7182 44.8944 43.2724 43.9942 42.5011 43.5492C41.7247 43.1051 40.7194 43.1721 39.7328 43.7399C37.9902 44.746 36.6307 47.1065 36.6375 49.1136C36.6447 51.4866 38.5774 52.566 40.6177 51.3894ZM40.6008 45.2436C41.0263 44.9986 41.4111 44.9266 41.6348 45.0537C41.8535 45.18 41.984 45.5428 41.9857 46.025C41.9891 47.4168 40.9652 49.1848 39.7498 49.8858C39.3294 50.1282 38.9446 50.2002 38.7225 50.0731C38.5055 49.9476 38.375 49.5874 38.3733 49.1085C38.3699 47.7134 39.3887 45.9437 40.6008 45.2436Z" fill="white"/>
</svg>
