<svg width="93" height="92" viewBox="0 0 93 92" fill="none" xmlns="http://www.w3.org/2000/svg">
<path d="M74.3112 12.4571C74.2999 12.4505 74.2864 12.4495 74.275 12.4431L60.8329 4.62206C60.4032 4.37288 59.5014 4.06775 58.2461 4.79158L20.249 26.7321C18.6598 27.6492 17.4155 29.8088 17.4155 31.6549L17.552 77.2514C17.552 78.2973 17.9495 79.1127 18.6818 79.5501C18.8565 79.6515 32.382 87.5042 32.1736 87.3851C32.9792 87.8454 33.9421 87.6848 34.7494 87.2173L72.7474 65.2802C74.3434 64.3597 75.5894 62.2 75.5843 60.3642L75.4953 29.0918C75.4936 28.612 75.1054 28.2255 74.6273 28.2255H74.6248C74.1459 28.2272 73.7577 28.6171 73.7594 29.0952L73.8484 60.3676C73.8518 61.5762 72.9313 63.1697 71.8795 63.7782L33.8815 85.7154C33.1555 86.1312 32.7678 85.9212 32.7678 85.0933C32.5865 22.5615 32.6491 44.1543 32.6356 39.4781C32.6328 38.4744 33.4981 36.7065 34.6122 36.0629C99.688 -1.48513 49.9404 27.2187 72.6186 14.1336C72.804 14.0231 72.9687 13.9621 73.1051 13.9359C73.236 13.9119 73.3466 13.9197 73.4283 13.9595L73.4416 13.9675C73.4453 13.9696 73.4495 13.9693 73.4532 13.9714C73.6148 14.0739 73.7179 14.3715 73.7187 14.7592L73.7374 21.1754C73.7391 21.6551 74.1273 22.0416 74.6053 22.0416H74.6079C75.0876 22.0399 75.4749 21.65 75.4732 21.172L75.4546 14.7558C75.452 13.7115 75.035 12.8741 74.3112 12.4571ZM19.2878 77.248L19.1514 31.6515C19.1514 30.436 20.0693 28.8392 21.1161 28.2357L59.1132 6.29519C59.3607 6.1511 59.5887 6.07652 59.7624 6.07652C59.8404 6.07652 59.9074 6.09177 59.9608 6.12398L71.4363 12.8005C56.8489 21.2284 34.0415 34.3742 33.5498 34.694C31.9248 35.7558 30.8963 37.8555 30.8963 39.4814C30.9099 44.1251 30.8474 22.7279 31.0283 84.7119L19.5625 78.0532C19.3904 77.9515 19.2878 77.6515 19.2878 77.248Z" fill="black"/>
<path d="M74.6115 23.2706C74.1326 23.2723 73.7444 23.6622 73.7461 24.1402L73.7512 26.0575C73.7529 26.5372 74.1411 26.9237 74.6191 26.9237H74.6217C75.1005 26.922 75.4887 26.5321 75.487 26.0541L75.4819 24.1369C75.4803 23.6554 75.0709 23.3079 74.6115 23.2706Z" fill="black"/>
<path d="M64.1456 32.3741C64.1166 32.3518 64.0972 32.3213 64.0648 32.3024L58.475 29.0681C56.1577 27.7221 53.1352 27.9899 49.972 29.8241C43.8186 33.3585 38.8382 42.0056 38.8713 49.0964C38.8713 52.6834 40.1325 55.4041 42.4286 56.7586L48.0175 59.993C50.6592 61.528 53.8729 60.7509 56.4967 59.2352C62.6468 55.6855 67.6331 47.0266 67.6128 39.9341C67.6028 36.3932 66.3685 33.7209 64.1456 32.3741ZM43.3041 55.2601C41.5649 54.2345 40.6071 52.0443 40.6071 49.093C40.5766 42.5548 45.1654 34.5858 50.8391 31.3277C52.4055 30.4208 53.8989 29.9614 55.2228 29.9614C56.1001 29.9614 56.9036 30.1631 57.6045 30.57L59.3692 31.5922C57.7959 31.8747 56.3012 32.584 54.9745 33.4297C49.1097 37.1539 44.4297 45.4449 44.4297 52.3088C44.4407 53.5547 44.6578 55.0568 45.0694 56.2224C45.0772 56.2442 45.0796 56.2708 45.0874 56.2924L43.3041 55.2601ZM55.6288 57.7333C53.042 59.225 50.6544 59.4963 48.9015 58.486C46.8612 57.3126 46.1858 54.6626 46.1791 52.3088C46.1615 46.1484 50.2652 38.7466 55.4295 35.1941C57.7125 33.6275 60.7876 32.4321 63.1664 33.7993C64.9056 34.8011 65.8685 36.9811 65.8769 39.9375C65.8956 46.4774 61.2983 54.4599 55.6288 57.7333Z" fill="black"/>
<path d="M56.1575 39.1323C52.7528 41.1173 50.0015 45.896 50.0236 49.7796C50.0236 51.9886 51.0294 53.9667 53.2164 53.9667C54.0453 53.9667 54.9718 53.6853 55.8965 53.153C59.3004 51.1849 62.0533 46.3994 62.0338 42.4836C62.0338 38.7562 59.3933 37.2404 56.1575 39.1323ZM57.0314 40.6308C57.1211 40.5787 57.2134 40.5419 57.3039 40.497C57.5337 43.766 55.0833 48.2836 52.0434 50.0441C51.9573 50.0944 51.8711 50.141 51.7845 50.1836C51.7749 50.0492 51.7594 49.9231 51.7594 49.7745C51.7408 46.5537 54.2047 42.2802 57.0314 40.6308ZM60.298 42.4904C60.3158 45.7926 57.9018 49.9881 55.0285 51.6494C54.3683 52.0291 53.7419 52.2308 53.2164 52.2308C52.9226 52.2308 52.6107 52.1464 52.3367 51.8294C52.5307 51.7415 52.7251 51.6552 52.9155 51.5443C56.3203 49.5728 59.074 44.7857 59.0529 40.8715C59.0529 40.5957 59.0284 40.3364 58.9985 40.0813C60.156 40.2222 60.298 41.7875 60.298 42.4853V42.4904Z" fill="black"/>
<path d="M44.1832 69.4774C42.5965 70.3928 41.3582 72.5355 41.3633 74.3527C41.3686 76.519 43.1543 77.5607 45.0681 76.4581C46.648 75.5444 47.8812 73.4068 47.8761 71.5913C47.8708 69.4035 46.0762 68.3876 44.1832 69.4774ZM44.1993 74.9562C43.5012 75.357 43.1011 75.2298 43.0991 74.3493C43.0958 73.1576 44.0078 71.5845 45.0511 70.9827C45.7427 70.5807 46.1383 70.7094 46.1403 71.5947C46.1437 72.8067 45.2545 74.3459 44.1993 74.9562Z" fill="black"/>
<path d="M52.7943 64.5072C51.2135 65.4209 49.9803 67.5585 49.9854 69.374C49.9907 71.5543 51.7925 72.5778 53.6791 71.4862C55.265 70.5691 56.5033 68.4281 56.4982 66.6126C56.4929 64.4427 54.703 63.4043 52.7943 64.5072ZM52.8104 69.9826C52.1059 70.3906 51.7231 70.2287 51.7212 69.3706C51.7178 68.1789 52.6247 66.6092 53.6622 66.0091C54.3536 65.6131 54.7604 65.7269 54.7623 66.616C54.7657 67.828 53.8715 69.3689 52.8104 69.9826Z" fill="black"/>
<path d="M61.416 59.5302C59.8361 60.4422 58.6028 62.5798 58.6079 64.3953C58.6133 66.5977 60.4231 67.5948 62.3008 66.5075C63.8875 65.5921 65.1258 63.4511 65.1207 61.6339C65.1154 59.4667 63.326 58.4225 61.416 59.5302ZM61.4329 65.0056C60.7059 65.421 60.3456 65.2366 60.3438 64.3919C60.3404 63.1799 61.2295 61.6423 62.2847 61.0321C62.9967 60.6224 63.383 60.7733 63.3849 61.6373C63.3883 62.829 62.4763 64.4021 61.4329 65.0056Z" fill="black"/>
<path d="M25.4513 39.2797C22.8973 37.8082 20.6042 39.151 20.5972 42.053C20.5896 44.6178 22.3305 47.6352 24.5605 48.9201C27.0975 50.389 29.4219 49.0852 29.429 46.157C29.4366 43.5922 27.6898 40.5714 25.4513 39.2797ZM25.4284 47.4165C23.7443 46.4468 22.3271 43.9923 22.333 42.0581C22.3367 40.4393 23.2575 40.0165 24.5834 40.7833C26.2751 41.758 27.6991 44.2177 27.6932 46.1519C27.6895 47.7526 26.784 48.2068 25.4284 47.4165Z" fill="black"/>
<path d="M25.4193 51.3053C23.7238 50.3227 22.0766 51.2674 22.0713 53.2361C22.0662 54.8414 23.1494 56.7264 24.5378 57.5265C26.2453 58.5166 27.9091 57.5987 27.9145 55.6127C27.9188 54.0074 26.8229 52.1156 25.4193 51.3053ZM25.4057 56.0246C24.5505 55.5313 23.8038 54.2311 23.8072 53.2411C23.8087 52.6426 23.9939 52.488 24.5513 52.8072C25.421 53.3106 26.1812 54.6193 26.1787 55.6093C26.177 56.2608 25.9423 56.3313 25.4057 56.0246Z" fill="black"/>
<path d="M42.2582 23.4706C44.4064 24.7116 47.7721 24.7129 49.9229 23.4655C52.3753 22.0365 52.3758 19.4508 49.9085 18.0274C47.7488 16.778 44.3797 16.7831 42.2336 18.0274C39.7976 19.4428 39.7741 22.038 42.2582 23.4706ZM43.1058 19.5293C44.7042 18.599 47.4197 18.5973 49.0405 19.5293C50.3404 20.2802 50.3397 21.2163 49.0507 21.9636C47.4462 22.8942 44.734 22.8976 43.1261 21.9669C41.8303 21.2225 41.8118 20.2799 43.1058 19.5293Z" fill="black"/>
</svg>
