<svg width="93" height="92" viewBox="0 0 93 92" fill="none" xmlns="http://www.w3.org/2000/svg">
<path d="M88.1428 45.9784C88.1428 45.9486 88.1287 45.9235 88.1257 45.8944C88.0884 45.1347 87.6155 44.43 86.7943 43.9527L40.4214 17.0038C38.9322 16.1385 36.5945 16.1402 35.0985 17.0021L6.21123 33.68C5.40921 34.1431 4.94219 34.8213 4.87491 35.5554C4.86305 35.611 4.83984 35.6623 4.83984 35.7218V35.7244V35.7269V35.7295L4.87459 46.0327C4.87459 46.837 5.37213 47.5753 6.22564 48.0499L52.596 75.0107C53.3351 75.4328 54.2878 75.6447 55.243 75.6447C56.1576 75.6447 57.0738 75.4506 57.8061 75.0624C57.8858 75.0302 57.9595 74.9861 58.0256 74.9319L75.3833 64.9177C75.7986 64.6778 75.941 64.1472 75.7011 63.7319C75.4604 63.3166 74.9273 63.1734 74.5154 63.4141L57.0543 73.4884C57.0306 73.502 57.0077 73.5173 56.9857 73.5334C56.016 74.0444 54.3878 74.0351 53.4631 73.5071L7.08424 46.5412C6.75708 46.359 6.61044 46.1547 6.61044 46.0301L6.58332 37.9872L52.5665 64.7096L52.5706 64.7126C54.0539 65.5796 56.3907 65.5805 57.8875 64.7151C57.8941 64.7113 57.9014 64.7056 57.9081 64.7012L70.7492 57.2875L86.4112 48.2517L86.4248 56.274C86.4248 56.441 86.2417 56.6478 85.9382 56.8241L82.4877 58.8151C82.0724 59.055 81.93 59.5855 82.1699 60.0009C82.4098 60.4145 82.9412 60.5552 83.3557 60.3187L86.8095 58.326C87.9851 57.6403 88.1606 56.7461 88.1606 56.2723L88.1428 45.9784ZM7.07916 35.1836L35.9665 18.5058C36.9429 17.943 38.5838 17.943 39.5483 18.5041L85.9221 45.4529C86.2775 45.6603 86.4037 45.8691 86.4041 45.9861C86.4021 46.0606 86.3569 46.1451 86.2846 46.2314C86.2063 46.3244 86.0875 46.4275 85.9094 46.5302L69.5581 55.9706L57.0365 63.1945C57.0275 63.1998 57.0179 63.2071 57.0085 63.2132C56.2977 63.6182 55.2042 63.7203 54.2981 63.5235C54.2204 63.5065 54.1572 63.4728 54.0828 63.4511C53.8734 63.3913 53.6684 63.3253 53.4951 63.2305C53.4784 63.2192 53.4631 63.2064 53.4453 63.1962L7.05881 36.2524C7.03582 36.2393 7.02629 36.2247 7.00468 36.2112C6.87256 36.1253 6.75782 36.0388 6.69425 35.9619C6.68153 35.947 6.68344 35.9339 6.67285 35.919C6.62284 35.8462 6.58417 35.7756 6.58417 35.7278C6.58502 35.6083 6.71385 35.3938 7.07916 35.1836Z" fill="black"/>
<path d="M45.1265 47.8287C45.1299 50.1053 46.603 52.209 49.2745 53.7516C51.8503 55.2382 55.2271 55.9816 58.6039 55.9816C61.9908 55.9816 65.3786 55.2331 67.9527 53.7372C70.5862 52.2064 72.0355 50.1197 72.0321 47.8617C72.0287 45.5868 70.5548 43.484 67.8807 41.9397C62.7138 38.957 54.3465 38.9528 49.2254 41.9286C46.5792 43.4662 45.1231 45.5614 45.1265 47.8287ZM58.5217 41.4099C61.5899 41.4099 64.6658 42.088 67.0127 43.4433C69.1283 44.6646 70.2946 46.2344 70.2963 47.8643C70.2988 49.4772 69.1563 51.03 67.0806 52.2369C62.4188 54.9441 54.822 54.9509 50.1425 52.248C48.0294 51.0283 46.8649 49.4577 46.8623 47.8261C46.8598 46.2047 48.0091 44.6434 50.0984 43.4289C52.4148 42.0829 55.4644 41.4099 58.5217 41.4099Z" fill="black"/>
<path d="M55.2921 50.2528C56.2169 50.7867 57.4018 51.0537 58.5867 51.0537C59.7759 51.0537 60.965 50.7851 61.8906 50.2468C62.9111 49.6535 63.4967 48.7788 63.495 47.8482C63.4942 46.9108 62.9 46.031 61.8651 45.4334C60.0106 44.3629 57.1144 44.3604 55.2752 45.4309C54.2496 46.0267 53.6622 46.904 53.6631 47.838C53.6639 48.7754 54.2581 49.6552 55.2921 50.2528ZM56.1474 46.9311C56.7991 46.5522 57.6789 46.3632 58.5604 46.3632C59.4461 46.3632 60.3353 46.5539 60.9972 46.937C61.4744 47.2125 61.7592 47.5532 61.7592 47.8499C61.76 48.1414 61.4829 48.4762 61.0184 48.7466C59.703 49.5103 57.4789 49.5111 56.1601 48.7492C55.6837 48.4745 55.3989 48.133 55.3989 47.8355C55.3989 47.5414 55.6778 47.204 56.1474 46.9311Z" fill="black"/>
<path d="M14.8498 37.1128L32.382 46.5819C32.5108 46.6514 32.6532 46.6862 32.7948 46.6862C32.9448 46.6862 33.0948 46.6472 33.2287 46.5701L56.7534 32.9876C57.0246 32.8308 57.1907 32.5392 57.1874 32.2256C57.184 31.9128 57.0111 31.6255 56.7364 31.4746L39.5042 22.0351C39.4475 22.0037 39.3881 21.9792 39.3254 21.9614C39.2347 21.9359 39.1194 21.9181 38.9576 21.9131C38.7592 21.8758 38.5456 21.9054 38.3575 22.0131L14.8286 35.5973C14.5565 35.7549 14.3904 36.0473 14.3946 36.3618C14.3988 36.6762 14.5735 36.9636 14.8498 37.1128ZM38.9186 23.6938L54.5488 32.2553L32.7804 44.8241L17.0425 36.3237L38.9186 23.6938Z" fill="black"/>
<path d="M33.1422 38.1925C33.2939 38.1925 33.4448 38.1527 33.5787 38.0747L41.468 33.4893C41.7875 33.3037 41.9545 32.9358 41.8833 32.573C41.8121 32.2094 41.5188 31.9314 41.1527 31.8797L30.6715 30.399C30.3579 30.3575 30.051 30.482 29.8612 30.7304C29.6705 30.9796 29.6289 31.311 29.7518 31.5992L32.3437 37.6653C32.4421 37.8942 32.6328 38.0705 32.8692 38.1484C32.9582 38.1781 33.0506 38.1925 33.1422 38.1925ZM31.953 32.3332L38.4285 33.2477L33.5549 36.0812L31.953 32.3332Z" fill="black"/>
<path d="M78.3438 63.2097L81.0671 61.6383C81.4824 61.3985 81.6248 60.8679 81.3849 60.4526C81.1442 60.0372 80.6111 59.894 80.1991 60.1347L77.4759 61.7061C77.0605 61.946 76.9182 62.4766 77.158 62.8919C77.3191 63.1699 77.6106 63.3259 77.9107 63.3259C78.0581 63.3259 78.2073 63.2886 78.3438 63.2097Z" fill="black"/>
</svg>
