<svg width="93" height="92" viewBox="0 0 93 92" fill="none" xmlns="http://www.w3.org/2000/svg">
<path d="M18.1086 56.8675L15.6167 55.4283C15.2023 55.1842 14.6708 55.33 14.431 55.7453C14.1911 56.1606 14.3335 56.6912 14.7488 56.9302L17.2407 58.3694C17.6519 58.6095 18.1852 58.469 18.4265 58.0524C18.6663 57.6371 18.5239 57.1065 18.1086 56.8675Z" fill="black"/>
<path d="M88.1049 41.0828C88.0474 40.8603 87.9312 40.6567 87.7266 40.5397L48.2344 17.7397C47.9648 17.5821 47.6334 17.5821 47.3639 17.7397L5.2933 42.1891C5.05396 42.3288 4.86243 42.7647 4.86188 42.9383L4.83985 50.7073C4.839 51.0175 5.00428 51.3057 5.27381 51.4599L11.6705 55.1537C12.0824 55.3944 12.6156 55.2503 12.8563 54.8367C13.0961 54.4214 12.9538 53.8908 12.5384 53.6518L6.57739 50.2089L6.5935 44.4402L44.3516 66.2401L44.3355 72.0104L21.1906 58.6474C20.7752 58.4033 20.2447 58.5491 20.0048 58.9644C19.7649 59.3797 19.9073 59.9103 20.3226 60.1493L44.7652 74.2616C45.0339 74.4181 45.3635 74.4164 45.6323 74.2633C95.306 45.3962 76.0417 56.5913 87.7071 49.8122C87.9733 49.6563 88.1377 49.3715 88.1386 49.063C88.1485 45.4866 88.1601 41.1107 88.1606 41.2889C88.1604 41.2154 88.1229 41.1523 88.1049 41.0828ZM47.8021 19.4942L85.5611 41.2923L82.2928 43.1917L79.4585 41.5551C79.044 41.311 78.5126 41.4568 78.2727 41.8721C78.0328 42.2874 78.1752 42.818 78.5905 43.057L80.5638 44.1964L79.0931 45.0511L76.2588 43.4147C75.8444 43.1723 75.3129 43.3147 75.0731 43.7317C74.8332 44.147 74.9756 44.6776 75.3909 44.9166L77.3641 46.0558L75.8929 46.9108L73.0584 45.2743C72.6422 45.0319 72.1116 45.1759 71.8726 45.5913C71.6327 46.0066 71.7751 46.5372 72.1904 46.7762L74.1639 47.9157L72.6928 48.7705L69.8587 47.1356C69.44 46.8915 68.912 47.0372 68.673 47.4526C68.4331 47.8679 68.5755 48.3985 68.9908 48.6375L70.9636 49.7755L69.4914 50.631L66.6583 48.9952C66.243 48.7511 65.7124 48.8968 65.4725 49.3122C65.2326 49.7275 65.375 50.2581 65.7904 50.4971L67.7625 51.6358L66.2913 52.4908L63.4578 50.8548C63.0433 50.6106 62.5119 50.7564 62.272 51.1717C62.0322 51.5871 62.1746 52.1176 62.5899 52.3567L64.5623 53.4955L63.0914 54.3503L60.2582 52.7143C59.8437 52.4702 59.3123 52.616 59.0724 53.0313C58.8325 53.4467 58.9749 53.9772 59.3903 54.2163L61.3625 55.355L59.8913 56.21L57.0577 54.5739C56.6415 54.3298 56.1127 54.4756 55.8719 54.8909C55.6321 55.3063 55.7745 55.8368 56.1898 56.0759L58.1623 57.2148L56.6914 58.0696L53.8581 56.4335C53.4419 56.1894 52.9113 56.3352 52.6723 56.7505C52.4324 57.1659 52.5748 57.6964 52.9902 57.9355L54.9626 59.0743L53.4913 59.9293L50.6576 58.2931C50.2431 58.049 49.7109 58.1948 49.4718 58.6101C49.232 59.0254 49.3744 59.556 49.7897 59.7951L51.7623 60.9341L50.2911 61.789L47.458 60.1527C47.0435 59.9086 46.5121 60.0544 46.2722 60.4697C46.0324 60.885 46.1747 61.4156 46.5901 61.6546L48.5623 62.7937L45.2194 64.7365C39.8315 61.626 16.3346 48.0609 7.46153 42.9383L10.7864 41.0061L13.5928 42.6264C14.004 42.8665 14.5373 42.726 14.7786 42.3094C15.0185 41.8941 14.8761 41.3635 14.4608 41.1245L12.5153 40.0012L13.9865 39.1462L16.7933 40.7668C17.2045 41.0069 17.7378 40.8664 17.9791 40.4498C18.2189 40.0345 18.0765 39.5039 17.6612 39.2649L15.7155 38.1414L17.1863 37.2867L19.9929 38.9072C20.4041 39.1473 20.9374 39.0068 21.1787 38.5902C21.4186 38.1749 21.2762 37.6443 20.8609 37.4053L18.9152 36.2819L20.3864 35.427L23.1934 37.0476C23.6046 37.2877 24.1379 37.1472 24.3792 36.7306C24.619 36.3153 24.4766 35.7847 24.0613 35.5457L22.1154 34.4221L23.5866 33.5671L26.393 35.188C26.8042 35.4281 27.3375 35.2876 27.5788 34.871C27.8187 34.4557 27.6763 33.9251 27.2609 33.6861L25.3153 32.5624L26.7863 31.7075L29.5935 33.3284C30.0047 33.5685 30.538 33.428 30.7793 33.0114C31.0191 32.5961 30.8767 32.0655 30.4614 31.8265L28.5153 30.7028L29.9865 29.8478L32.794 31.4688C33.2052 31.7089 33.7384 31.5684 33.9797 31.1518C34.2196 30.7365 34.0772 30.2059 33.6619 29.9669L31.7154 28.843L33.1862 27.9882L35.9936 29.6092C36.4048 29.8493 36.938 29.7088 37.1794 29.2923C37.4192 28.8769 37.2768 28.3464 36.8615 28.1073L34.9151 26.9835L36.3863 26.1285L39.1941 27.7497C39.6052 27.9897 40.1385 27.8492 40.3798 27.4327C40.6197 27.0173 40.4773 26.4868 40.062 26.2477L38.1153 25.1237L39.5861 24.269L42.3937 25.8901C42.8049 26.1301 43.3381 25.9896 43.5795 25.5731C43.8193 25.1577 43.6769 24.6272 43.2616 24.3881L41.315 23.2641L42.7862 22.4091L45.5942 24.0305C46.0053 24.2705 46.5386 24.13 46.7799 23.7135C47.0198 23.2982 46.8774 22.7676 46.4621 22.5285L44.5152 21.4044L47.8021 19.4942ZM46.0713 72.0002L46.0878 66.241L86.4205 42.8021L86.4044 48.5612L46.0713 72.0002Z" fill="black"/>
<path d="M45.6992 30.2568L26.8981 41.1821C26.6303 41.3381 26.465 41.6246 26.4658 41.9348C26.4667 42.2433 26.6319 42.5298 26.8998 42.6841L28.8397 43.8041L27.4024 44.6386C26.9879 44.8793 26.8464 45.4116 27.0871 45.8252C27.3282 46.2415 27.8617 46.3796 28.2737 46.1405L30.5735 44.8052L32.9148 46.157L31.4776 46.9915C31.0631 47.2322 30.9216 47.7645 31.1623 48.1781C31.4034 48.5944 31.9369 48.7325 32.3489 48.4934L34.6486 47.1582L36.9887 48.5094L35.5519 49.3444C35.1374 49.5851 34.9967 50.1174 35.2383 50.531C35.4807 50.9494 36.0146 51.0844 36.4249 50.8463L38.7229 49.5107L41.0637 50.8623L39.6271 51.6973C39.2126 51.938 39.0719 52.4702 39.3135 52.8839C39.5559 53.3023 40.0897 53.4373 40.5001 53.1992L42.798 51.8636L46.4527 53.9739C46.7181 54.1284 47.0494 54.1313 47.3231 53.9739L66.1251 43.0468C66.392 42.8909 66.5573 42.6044 66.5565 42.2942C66.5556 41.9857 66.3903 41.6992 66.1225 41.5449L63.3648 39.9529L64.8401 39.0954C65.2546 38.8547 65.3953 38.3224 65.1537 37.9088C64.913 37.4918 64.3799 37.3511 63.9671 37.5935L61.6303 38.9516L59.2893 37.6002L60.7649 36.7425C61.1794 36.5018 61.3201 35.9695 61.0785 35.5559C60.837 35.1389 60.3056 34.9982 59.8919 35.2406L57.5548 36.5989L55.2138 35.2475L56.6898 34.3896C57.1042 34.1489 57.2449 33.6166 57.0034 33.203C56.761 32.786 56.2295 32.6453 55.8168 32.8877L53.4793 34.2462L51.1383 32.8947L52.6146 32.0367C53.0291 31.796 53.1698 31.2637 52.9282 30.8501C52.6866 30.4331 52.1535 30.2924 51.7416 30.5348L49.4039 31.8935L46.5688 30.2568C46.2993 30.0992 45.967 30.0992 45.6992 30.2568ZM46.8849 52.2194C46.4539 51.9705 28.0018 41.3174 29.0654 41.9314L46.1365 32.0113L63.9569 42.2976L46.8849 52.2194Z" fill="black"/>
</svg>
