<svg width="93" height="92" viewBox="0 0 93 92" fill="none" xmlns="http://www.w3.org/2000/svg">
<path d="M48.3587 11.6989L51.8558 9.67992C52.2711 9.44006 52.4135 8.90947 52.1728 8.49415C51.9338 8.07714 51.4015 7.93814 50.9879 8.17631L47.4907 10.1953C47.0754 10.4351 46.933 10.9657 47.1737 11.381C47.3331 11.6599 47.6264 11.815 47.9247 11.815C48.0722 11.815 48.2214 11.7777 48.3587 11.6989Z" fill="black"/>
<path d="M81.3279 65.0932L81.1957 18.2583C81.1953 18.1809 81.1568 18.1144 81.1369 18.0416C81.1172 17.9696 81.1158 17.8913 81.0787 17.8271C81.0339 17.7494 80.956 17.6974 80.8886 17.6364C80.8443 17.5962 80.8164 17.5415 80.7634 17.5107L80.7614 17.5096C80.7609 17.5093 80.7607 17.5085 80.76 17.5082C80.7595 17.5079 80.7588 17.508 80.7582 17.5077L58.3025 4.45711C58.0363 4.30116 57.7024 4.30116 57.4329 4.45542L53.8883 6.50148C53.473 6.74135 53.3306 7.27194 53.5713 7.68725C53.8086 8.10257 54.3409 8.24242 54.7562 8.0051L57.8651 6.20992L78.5965 18.258L42.7505 38.9534L22.0192 26.9062L45.0141 13.6297C45.4294 13.3898 45.5718 12.8592 45.3311 12.4439C45.0921 12.026 44.5598 11.8862 44.1462 12.126L19.8527 26.1518C19.7186 26.2295 19.6102 26.3399 19.5352 26.4697C19.4995 26.5316 19.4992 26.6072 19.4796 26.6765C19.4581 26.7522 19.4188 26.8219 19.4188 26.9028C19.4188 26.9034 19.4192 26.9039 19.4192 26.9045C19.4192 26.9051 19.4188 26.9056 19.4188 26.9062L19.4238 28.6347L12.1085 32.8665C12.1076 32.8669 12.1067 32.8667 12.1058 32.8672C12.0078 32.9239 11.9419 33.0129 11.8747 33.0992C11.8494 33.1313 11.8088 33.1504 11.7883 33.1857C11.7663 33.2242 11.7699 33.2726 11.7538 33.314C11.7155 33.4122 11.6719 33.5095 11.6719 33.6182C11.6719 33.6188 11.6723 33.6193 11.6723 33.6199C11.6723 33.6205 11.6719 33.6209 11.6719 33.6216L11.7583 65.4746C11.7583 65.7831 11.9245 66.0679 12.1906 66.223L19.5434 70.4899L19.5527 73.7419C19.5544 74.0504 19.7171 74.3352 19.985 74.4895L42.4459 87.5422C42.4456 87.542 42.4462 87.5425 42.4459 87.5422C42.4469 87.5428 42.4483 87.5443 42.4493 87.5448C42.5832 87.6219 42.7324 87.6601 42.8816 87.6601C43.0307 87.6601 43.1816 87.6211 43.3155 87.5439L80.8939 65.8475C81.1635 65.6916 81.3296 65.4042 81.3279 65.0932ZM19.4425 36.6211L14.2708 33.6198L19.4205 30.6415L19.4425 36.6211ZM13.4925 64.9711L13.4111 35.1286L16.005 36.6338L19.451 38.6335L19.5324 68.4759L13.4925 64.9711ZM21.2869 73.2393L21.1597 28.4142L31.7164 34.5485L41.8828 40.4563L41.9161 52.2453L42.0086 85.2817L21.2869 73.2393ZM43.7461 85.2911L43.619 40.4567L79.4632 19.7623L79.5904 64.5956L43.7461 85.2911Z" fill="black"/>
<path d="M76.885 25.7374C76.8833 25.428 76.7188 25.1424 76.4493 24.9881C76.1815 24.8338 75.8509 24.8338 75.5831 24.9881L70.8503 27.7212C70.846 27.7236 70.8409 27.7225 70.8366 27.7249L46.6449 41.6999C46.3754 41.8558 46.2093 42.1432 46.211 42.4542L46.2788 66.0586C46.2788 66.0624 46.2815 66.0653 46.2816 66.0692L46.2974 71.3415C46.2991 71.6509 46.4635 71.9365 46.7331 72.0908C46.867 72.1679 47.0162 72.2061 47.1653 72.2061C47.3145 72.2061 47.4654 72.1671 47.5993 72.09L76.5375 55.3782C76.807 55.2222 76.9731 54.9349 76.9714 54.6238L76.885 25.7374ZM70.4705 51.581L48.0125 64.5533L47.9485 42.9518L70.4077 29.9806L70.4705 51.581ZM48.0282 69.8379L48.0184 66.5549L71.774 52.8329C72.0436 52.6769 72.2097 52.3896 72.208 52.0785L72.14 28.9801L75.1542 27.2393L75.2339 54.1263L48.0282 69.8379Z" fill="black"/>
<path d="M75.4353 59.4906C74.803 59.127 74.0012 59.1779 73.2265 59.6237C71.9229 60.3772 70.9041 62.1419 70.9092 63.6413C70.9109 64.5304 71.272 65.2466 71.8975 65.6068C72.1755 65.7661 72.4891 65.8458 72.818 65.8458C73.2333 65.8458 73.674 65.7204 74.1063 65.4712C75.4116 64.7177 76.4287 62.953 76.4253 61.4536C76.4236 60.5671 76.0625 59.8517 75.4353 59.4906ZM73.2384 63.9676C72.9756 64.1184 72.801 64.121 72.7637 64.1023C72.7264 64.0812 72.645 63.9345 72.645 63.6362C72.6434 62.7471 73.3197 61.5749 74.0944 61.1273C74.3572 60.9756 74.5318 60.9731 74.5691 60.9951C74.608 61.018 74.6894 61.1604 74.6894 61.4587C74.6911 62.3478 74.013 63.5201 73.2384 63.9676Z" fill="black"/>
<path d="M67.8784 63.8523C67.2512 63.4895 66.4494 63.5387 65.673 63.9854C64.3677 64.738 63.3489 66.5027 63.354 68.0029C63.3557 68.8912 63.7168 69.6074 64.3423 69.9676C64.622 70.1278 64.9339 70.2075 65.2645 70.2075C65.6798 70.2075 66.1205 70.082 66.5528 69.8328C67.8564 69.0802 68.8735 67.3155 68.8701 65.8153C68.8684 64.9287 68.5056 64.2125 67.8784 63.8523ZM65.6849 68.3292C65.3933 68.4971 65.2357 68.4784 65.2085 68.4631C65.1831 68.4487 65.0916 68.3284 65.0899 67.9978C65.0882 67.1087 65.7645 65.9365 66.5409 65.489C66.7342 65.3779 66.8749 65.3457 66.9529 65.3457C66.9817 65.3457 67.0037 65.3508 67.0139 65.3568C67.0529 65.3788 67.1342 65.522 67.1342 65.8204C67.1359 66.7095 66.4596 67.8826 65.6849 68.3292Z" fill="black"/>
<path d="M60.3264 68.2148C59.6975 67.8512 58.8923 67.9012 58.1176 68.3479C56.814 69.1006 55.7952 70.8644 55.8003 72.3646C55.802 73.2537 56.1631 73.9699 56.7886 74.3301C57.0666 74.4903 57.3802 74.57 57.7091 74.57C58.1244 74.57 58.5651 74.4437 58.9974 74.1945C60.3027 73.441 61.3198 71.6764 61.3164 70.177C61.3147 69.2904 60.9536 68.5751 60.3264 68.2148ZM58.1295 72.6909C57.8667 72.8418 57.6938 72.8477 57.6548 72.8257C57.6175 72.8045 57.5362 72.6579 57.5362 72.3595C57.5345 71.4704 58.2108 70.2982 58.9855 69.8515C59.1788 69.7396 59.3212 69.7083 59.3991 69.7083C59.4297 69.7083 59.45 69.7125 59.4602 69.7193C59.4992 69.7413 59.5805 69.8837 59.5805 70.1821C59.5822 71.0712 58.9042 72.2434 58.1295 72.6909Z" fill="black"/>
<path d="M52.7712 72.5765C52.1406 72.2137 51.3371 72.2629 50.5624 72.7096C49.2588 73.4622 48.2401 75.226 48.2451 76.7262C48.2468 77.6154 48.6079 78.3316 49.2351 78.6918C49.5131 78.852 49.8267 78.9317 50.1556 78.9317C50.5709 78.9317 51.0116 78.8054 51.4439 78.5562C52.7475 77.8035 53.7646 76.0389 53.7612 74.5386C53.7595 73.6521 53.3984 72.9367 52.7712 72.5765ZM50.576 77.0526C50.2827 77.2221 50.1285 77.2 50.0996 77.1873C50.0759 77.1729 49.9827 77.0517 49.981 76.7212C49.9793 75.832 50.6557 74.6598 51.4304 74.2132C51.6236 74.1013 51.766 74.0699 51.8439 74.0699C51.8745 74.0699 51.8948 74.0742 51.905 74.0809C51.944 74.103 52.0254 74.2454 52.0254 74.5437C52.0271 75.4328 51.3507 76.6059 50.576 77.0526Z" fill="black"/>
<path d="M61.9743 39.2012L66.4682 41.8135C66.6055 41.8931 66.7547 41.9313 66.9039 41.9313C67.2022 41.9313 67.4938 41.777 67.6548 41.4999C67.8956 41.0854 67.7549 40.554 67.3395 40.3133L62.8457 37.701C62.432 37.4611 61.8998 37.5984 61.659 38.0146C61.4183 38.4291 61.559 38.9605 61.9743 39.2012Z" fill="black"/>
<path d="M64.6423 37.2441L66.6935 38.4375C66.8308 38.5172 66.9799 38.5554 67.1291 38.5554C67.4275 38.5554 67.7173 38.4011 67.8801 38.1239C68.1208 37.7095 67.9801 37.178 67.5648 36.9373L65.5136 35.7439C65.1017 35.5032 64.5694 35.6414 64.327 36.0575C64.0863 36.472 64.227 37.0034 64.6423 37.2441Z" fill="black"/>
</svg>
