<svg width="93" height="92" viewBox="0 0 93 92" fill="none" xmlns="http://www.w3.org/2000/svg">
<path d="M88.1606 26.2608C88.1597 25.9561 87.9938 25.6654 87.7266 25.5115L60.2234 9.6329C59.9539 9.47694 59.6216 9.47694 59.3538 9.6329L41.2088 20.1768C40.7951 20.4175 40.6536 20.9498 40.8952 21.3634C41.135 21.7788 41.6673 21.9178 42.0809 21.6787L59.7912 11.3874L85.5611 26.2642L33.2559 56.6602C29.6038 54.5518 13.7097 45.3763 7.48611 41.7834L30.9039 28.1746C31.3175 27.9339 31.459 27.4016 31.2175 26.988C30.9767 26.571 30.4436 26.4303 30.0308 26.6727L5.31788 41.0341C5.16497 41.1234 4.8874 41.4867 4.88646 41.7834C4.86988 47.7117 4.84862 55.298 4.83985 58.4316C4.839 58.7418 5.00428 59.03 5.27381 59.1843L10.7624 62.3532L10.7789 68.2551C10.8086 69.7971 12.1222 70.5969 13.525 69.8028C14.5913 69.179 15.3956 67.7889 15.3956 66.5718V65.0281C18.3541 66.7372 33.5849 75.5265 32.7719 75.0663C32.9067 75.1426 33.0559 75.1815 33.2059 75.1815C33.2403 75.1815 33.2712 75.1587 33.3054 75.1545C33.4214 75.1412 33.5388 75.1241 33.6432 75.0646C33.6455 75.0633 33.6463 75.0606 33.6485 75.0593L36.3378 73.4925L36.3402 74.3441C36.3421 75.5229 37.4404 76.1301 38.4524 75.5392L39.4492 74.9646L39.4661 80.662C39.4715 82.1787 40.7843 82.9534 42.1216 82.1809C43.1387 81.5944 43.9032 80.2687 43.8998 79.0974L43.8812 72.8151C43.8803 72.6286 44.0744 72.293 44.238 72.1997L45.7408 71.3335C46.4604 70.9148 46.9808 70.0164 46.9783 69.1993L46.9732 67.3146L48.883 66.2046L48.8853 67.0532C48.8871 68.2134 49.9599 68.8448 50.9992 68.2483L51.9943 67.6737L52.0112 73.3711C52.0166 74.9038 53.3418 75.6553 54.6667 74.89C55.6838 74.3035 56.4483 72.9778 56.4449 71.8065L56.4263 65.5259C56.4263 65.3377 56.6204 65.0021 56.7831 64.9088L58.2833 64.0426C58.9919 63.6341 59.5259 62.717 59.5242 61.9101L59.5189 60.0262L61.4281 58.9165L61.4304 59.7623C61.4322 60.921 62.5047 61.555 63.5443 60.9574L64.5393 60.3828L64.5563 66.0819C64.5616 67.613 65.8889 68.3697 67.2117 67.5991C68.2288 67.0125 68.9934 65.6886 68.99 64.5173L68.9713 58.2367C68.9713 58.0485 69.1663 57.7112 69.3299 57.6162L70.8284 56.7517C71.5488 56.3364 72.0709 55.4396 72.0692 54.6192L72.0639 52.7381L73.9731 51.6292L73.9755 52.4731C73.979 53.6407 75.0603 54.2606 76.0893 53.6665L77.0844 53.0935L77.1013 58.791C77.1067 60.3236 78.432 61.0752 79.7568 60.3099C80.7739 59.7233 81.5384 58.3977 81.535 57.2281L81.5172 50.9441C81.5164 50.7576 81.7105 50.422 81.8749 50.327L83.3726 49.4625C84.0947 49.0455 84.6169 48.147 84.6143 47.3283L84.609 45.4405L87.6775 43.6633C87.9445 43.5091 88.1097 43.2243 88.1106 42.9158C88.1157 41.2129 88.0922 49.0834 88.1606 26.2608C88.1606 26.2611 88.1606 26.2605 88.1606 26.2608ZM34.0998 66.7158C34.1003 66.541 34.1073 64.071 34.1068 64.2458L86.4002 33.8568L86.3934 36.3267C83.9498 37.7472 33.9051 66.8296 34.0998 66.7158ZM6.61808 43.2853L32.388 58.1638L32.3865 58.6885L32.3755 62.2454L6.60674 47.3677L6.61808 43.2853ZM6.60123 49.3676L32.3679 64.2448L32.361 66.6869L6.59445 51.8103L6.60123 49.3676ZM34.1125 62.2344L34.1241 58.1671L86.4214 27.7762L86.4089 31.8436L34.1125 62.2344ZM6.58883 53.8108L32.3554 68.6867L32.3426 72.8095C29.9339 71.4187 8.59394 59.0975 6.57739 57.9332L6.58883 53.8108ZM13.6598 66.5718C13.6598 67.1787 13.1868 67.989 12.6588 68.2992C12.6012 68.3314 12.5528 68.3517 12.5291 68.3704C12.5223 68.3365 12.5156 68.2924 12.5147 68.2365L12.5011 63.357L13.6598 64.026V66.5718ZM34.0824 72.7995L34.0939 68.7269L36.3152 67.436L36.3284 71.4895L34.0824 72.7995ZM44.8703 69.8299L43.3709 70.6961C42.67 71.0996 42.1428 72.015 42.1453 72.8219L42.164 79.1042C42.1657 79.6517 41.7317 80.4027 41.2545 80.6773C41.2359 80.6891 41.2189 80.6976 41.2037 80.7044C41.1954 78.141 41.1825 74.1152 41.1833 74.373C41.1816 73.8186 40.9375 73.3592 40.5137 73.1168C40.0621 72.8571 39.54 72.9075 39.0847 73.1694L38.0744 73.7525L38.0549 66.7735C38.0543 66.637 38.1756 66.4238 38.3155 66.2737L45.2196 62.2615C45.2223 63.0157 45.237 67.0834 45.236 66.824L45.2424 69.2044C45.2433 69.3824 45.0619 69.7197 44.8703 69.8299ZM46.9678 65.3093L46.9579 61.6338C46.9575 61.5088 46.9026 61.4115 46.8782 61.2976L48.8654 60.1429C48.8659 60.32 48.8782 64.4639 48.8774 64.1993L46.9678 65.3093ZM57.4154 62.539L55.9152 63.4052C55.2159 63.8087 54.6887 64.7224 54.6904 65.531L54.7091 71.8133C54.7108 72.3608 54.2768 73.1117 53.7988 73.3881C53.781 73.3982 53.764 73.4067 53.7487 73.4152C53.7405 70.8518 53.7276 66.826 53.7284 67.0837C53.7267 65.9341 52.6617 65.2847 51.6298 65.8802L50.6195 66.4633L50.6145 64.6994C50.6145 64.6973 50.6161 64.6957 50.6161 64.6936C50.6155 64.5179 50.5989 59.1454 50.6 59.487C50.6009 59.3475 50.724 59.1327 50.8656 58.9806L57.7689 54.9689L57.7883 61.9135C57.7883 62.0898 57.6044 62.4305 57.4154 62.539ZM59.5157 58.0197L59.5038 54.3514C59.5038 54.35 59.503 54.3491 59.503 54.3477V54.3446C59.5028 54.2191 59.4478 54.1217 59.4234 54.0074L61.411 52.8524L61.4224 56.9114L59.5157 58.0197ZM69.9605 55.2498L68.4602 56.1143C67.7601 56.5212 67.2338 57.4349 67.2355 58.2418L67.2541 64.524C67.2558 65.0716 66.8219 65.8208 66.343 66.0972C66.3252 66.1073 66.3082 66.1158 66.2938 66.1243C66.2856 63.5609 66.2726 59.5351 66.2735 59.7928C66.2726 59.2385 66.0285 58.7791 65.6047 58.535C65.1478 58.2723 64.6259 58.329 64.1749 58.5893L63.1645 59.1724L63.1597 57.4275C63.1599 57.4188 63.1662 57.4116 63.1662 57.4027L63.1493 52.1985C63.1493 52.1009 63.1967 51.9734 63.2615 51.8564C63.301 51.7877 63.3567 51.7466 63.4074 51.6924L70.314 47.6788L70.3334 54.6226C70.3334 54.7972 70.1495 55.1396 69.9605 55.2498ZM72.0658 50.7288L72.054 47.0604C72.054 46.9315 71.9986 46.8314 71.9733 46.7145L73.9561 45.5622L73.9675 49.625L72.0658 50.7288ZM82.5055 47.9589L81.007 48.8251C80.3061 49.2286 79.7789 50.144 79.7814 50.9492L79.7992 57.2331C79.8009 57.7807 79.3669 58.5316 78.8889 58.8079C78.8711 58.8181 78.8541 58.8266 78.8389 58.8351C78.8307 56.2717 78.8177 52.2459 78.8185 52.5036C78.8168 51.3454 77.7399 50.7068 76.7199 51.3001L75.7096 51.8815L75.7048 50.1573C75.7056 50.1418 75.7164 50.1291 75.7164 50.1134L75.6986 44.8794C75.7085 44.7404 75.818 44.5463 75.9511 44.403L82.8523 40.3925C82.853 40.5662 82.8802 47.7934 82.8785 47.3334C82.8793 47.508 82.6954 47.8487 82.5055 47.9589ZM84.6034 43.4387L84.5931 39.7645C84.5929 39.6388 84.538 39.5414 84.5137 39.4271L86.3889 38.3373L86.3764 42.4106L84.6034 43.4387Z" fill="black"/>
<path d="M39.6706 22.0754C39.429 21.6584 38.8959 21.5177 38.484 21.7601L33.4086 24.7097C32.995 24.9504 32.8535 25.4827 33.095 25.8963C33.2561 26.1743 33.5468 26.3286 33.846 26.3286C33.9943 26.3286 34.1443 26.2913 34.2816 26.2116L39.357 23.262C39.7706 23.0213 39.9121 22.489 39.6706 22.0754Z" fill="black"/>
<path d="M24.0196 41.0494C21.0344 42.7714 21.0682 45.8268 23.9891 47.5249C26.6418 49.0634 30.7971 49.0704 33.4609 47.5351C36.3953 45.8424 36.4631 42.771 33.4914 41.0409C30.8478 39.5068 26.687 39.5102 24.0196 41.0494ZM32.5929 46.0315C30.4943 47.2418 26.9531 47.2401 24.8613 46.023C23.0793 44.9894 23.0948 43.5868 24.8876 42.5513C26.9947 41.3376 30.535 41.3291 32.6184 42.5428C34.4021 43.5764 34.3857 44.996 32.5929 46.0315Z" fill="black"/>
<path d="M69.0271 26.9999C71.9609 25.3076 72.0294 22.237 69.0567 20.5074C66.4131 18.9733 62.2532 18.9733 59.5858 20.5159C56.6183 22.2286 56.6001 25.2896 59.5409 26.9999C62.2011 28.5443 66.3676 28.5384 69.0271 26.9999ZM60.4538 22.0178C62.5598 20.8042 66.0964 20.7932 68.1846 22.0093C69.9458 23.0298 69.9753 24.4479 68.1591 25.498C66.0537 26.7168 62.5049 26.7168 60.4131 25.498C58.6344 24.4647 58.656 23.0581 60.4538 22.0178Z" fill="black"/>
</svg>
