<svg width="93" height="92" viewBox="0 0 93 92" fill="none" xmlns="http://www.w3.org/2000/svg">
<path d="M27.3599 22.7254C27.3599 23.0356 27.526 23.3212 27.7938 23.4763L42.9723 32.2386C43.2429 32.3945 43.5769 32.3929 43.842 32.2369L65.3519 19.7368C65.6197 19.5817 65.7842 19.2952 65.7842 18.9858C65.7842 18.6756 65.618 18.39 65.3502 18.2349L50.1717 9.47171C49.9022 9.3166 49.5682 9.3166 49.3021 9.47341L27.7921 21.9744C27.5243 22.1295 27.3599 22.416 27.3599 22.7254ZM49.7394 11.2262L63.1855 18.9892L43.4046 30.4841L29.9602 22.722L49.7394 11.2262Z" fill="black"/>
<path d="M39.0581 12.4136L42.1297 10.6278C42.545 10.3871 42.6857 9.85562 42.445 9.44115C42.2026 9.02499 41.6686 8.88768 41.2584 9.12755L38.1867 10.9134C37.7714 11.1541 37.6307 11.6856 37.8714 12.1C38.1102 12.511 38.6401 12.6562 39.0581 12.4136Z" fill="black"/>
<path d="M42.8368 87.5442C43.1045 87.6984 43.4351 87.6993 43.703 87.5451L43.7052 87.5429C90.2514 60.4926 67.2051 73.886 73.8668 70.0145C74.1346 69.8603 74.2973 69.5755 74.299 69.267L74.4414 18.9765L74.441 18.9748L74.4414 18.9731C74.4414 18.6682 74.2788 18.3792 74.0075 18.2222L50.165 4.45572C49.8954 4.30061 49.5615 4.30061 49.2953 4.45741L44.1353 7.45616C43.7199 7.69687 43.5792 8.22831 43.82 8.64278C44.0607 9.05809 44.593 9.1954 45.0066 8.95638L49.7327 6.21022L71.8427 18.9765L43.412 35.499C39.4548 33.2142 25.3852 25.0909 21.3014 22.733L35.8832 14.2589C36.2985 14.0181 36.4392 13.4876 36.1985 13.0731C35.9561 12.6561 35.4238 12.5188 35.0119 12.7586C30.0789 15.6249 18.9533 22.09 19.1333 21.9854C18.855 22.1468 18.702 22.5585 18.701 22.733L18.5586 73.0243C18.5569 73.3354 18.723 73.6227 18.9926 73.7786L42.8368 87.5442ZM20.4318 24.2366C25.6417 27.2444 37.3383 33.9971 42.5435 37.0023C42.533 40.7059 42.4247 79.0326 42.407 85.2908L20.2962 72.5268L20.4318 24.2366ZM44.1437 85.282C44.1767 73.5602 44.2477 48.3653 44.2797 37.0018C47.0609 35.3855 68.8998 22.6934 72.7005 20.4846L72.5649 68.7644L44.1437 85.282Z" fill="black"/>
<path d="M58.7748 46.6975C62.2211 44.715 65.0096 39.8846 64.9893 35.9298C64.9863 31.5201 61.5655 29.7341 57.8763 31.8792C54.4386 33.849 51.6585 38.6709 51.6788 42.6249C51.6788 46.8899 54.9618 48.9134 58.7748 46.6975ZM58.7443 33.382C61.2497 31.9265 63.2534 32.8411 63.2534 35.934V35.9383C63.2704 39.2786 60.8225 43.5165 57.9069 45.1947C55.1938 46.768 53.4147 45.4795 53.4147 42.6206C53.3977 39.2778 55.8371 35.0483 58.7443 33.382Z" fill="black"/>
<path d="M58.8597 42.3655C60.2412 41.5697 61.3193 39.7024 61.3126 38.1141C61.3096 36.1535 59.6527 35.2358 57.9833 36.2104C56.6017 37.0012 55.5253 38.8676 55.5337 40.4542C55.5337 42.38 57.1501 43.3558 58.8597 42.3655ZM58.8512 37.714C59.3622 37.4156 59.5767 37.5113 59.5767 38.1175V38.1208C59.5801 39.093 58.841 40.3737 57.99 40.8628C57.553 41.1185 57.2696 41.1303 57.2696 40.45C57.2645 39.477 58.0002 38.2005 58.8512 37.714Z" fill="black"/>
<path d="M69.0815 55.6887C69.0552 48.689 63.8038 45.9483 57.9443 49.3615C52.3079 52.6052 47.7377 60.519 47.753 67.0047C47.7951 74.0313 53.056 76.716 58.8766 73.3464C64.5215 70.0882 69.0985 62.1667 69.0815 55.6887C69.0815 55.6895 69.0815 55.6887 69.0815 55.6887ZM58.007 71.8436C53.2757 74.5789 49.5228 72.6056 49.4888 66.9971C49.4736 61.07 53.6555 53.8325 58.8139 50.8634C63.4865 48.1449 67.3239 49.9967 67.3457 55.6954C67.3609 61.6184 63.1739 68.8618 58.007 71.8436Z" fill="black"/>
<path d="M57.9744 56.8846C55.9182 58.073 54.3128 60.8539 54.3213 63.2161C54.3285 65.9292 56.5049 67.1735 58.8644 65.8122C60.924 64.6222 62.531 61.8396 62.5225 59.4774C62.5154 56.7223 60.3051 55.5394 57.9744 56.8846ZM57.9964 64.3086C56.803 64.9978 56.0607 64.5901 56.0572 63.211C56.0521 61.4718 57.3269 59.2638 58.8423 58.3883C60.0365 57.6963 60.7831 58.1012 60.7867 59.4825C60.7918 61.2217 59.5153 63.4314 57.9964 64.3086Z" fill="black"/>
<path d="M69.6067 66.4793C69.2275 66.1001 68.6121 66.1836 68.3743 66.4793C68.0472 66.7423 68.0059 67.3656 68.3743 67.6947C68.6243 68.0056 69.2277 68.0755 69.6067 67.6947C69.9321 67.3693 69.9257 66.7983 69.6067 66.4793Z" fill="black"/>
<path d="M48.4646 78.3353C48.151 78.0055 47.5611 78.0233 47.2492 78.3353C46.8726 78.7155 46.9245 79.243 47.2492 79.5676C47.59 79.9103 48.1126 79.9178 48.4646 79.5676C48.7846 79.2476 48.8458 78.7202 48.4646 78.3353Z" fill="black"/>
<path d="M68.3744 26.1903C68.0131 26.5499 68.0397 27.1238 68.3744 27.4227C68.6204 27.7317 69.2243 27.807 69.6068 27.4227C69.9205 27.109 69.9385 26.5599 69.6068 26.1903C69.1706 25.8397 68.6598 25.9049 68.3744 26.1903Z" fill="black"/>
<path d="M48.4648 39.2965C48.8004 38.9592 48.8232 38.4225 48.4648 38.0641C48.1342 37.7344 47.5613 37.7513 47.2494 38.0641C46.8841 38.4294 46.9149 38.9636 47.2494 39.2965C47.5926 39.6397 48.1527 39.6086 48.4648 39.2965Z" fill="black"/>
</svg>
