<svg width="93" height="92" viewBox="0 0 93 92" fill="none" xmlns="http://www.w3.org/2000/svg">
<path d="M73.1944 73.3355L76.172 71.6047C76.5865 71.364 76.7272 70.8317 76.4856 70.4181C76.244 70.0011 75.7117 69.8621 75.299 70.1028L72.3214 71.8335C71.9069 72.0743 71.7662 72.6065 72.0078 73.0202C72.2502 73.4386 72.7841 73.5736 73.1944 73.3355Z" fill="black"/>
<path d="M81.9882 56.5804L78.4107 54.5205L78.4004 39.8033C78.4004 39.7957 78.3962 39.7895 78.396 39.7818C78.3886 38.9252 77.852 38.1278 76.9197 37.5928L63.517 29.8491L63.4931 21.6702C63.488 19.8496 62.7998 18.4239 61.603 17.7526C61.3887 17.6257 58.006 15.67 57.8202 15.5625C56.6446 14.8573 55.0537 14.981 53.4526 15.9049C51.4888 17.0326 49.819 19.1698 48.8908 21.4848C47.6846 20.9577 46.1926 20.8242 44.8695 21.143L44.8395 10.8991C44.8344 9.08017 44.1462 7.65454 42.9502 6.98495C42.9358 6.97636 42.918 6.9752 42.9035 6.96683C42.9013 6.96556 42.8991 6.96418 42.8968 6.96291L39.1666 4.7931C37.9893 4.0896 36.3967 4.21335 34.799 5.13552C31.8028 6.85611 29.455 10.9194 29.455 14.3928L29.5018 29.7958L16.0725 37.5962C15.13 38.1489 14.6113 38.9303 14.6139 39.7932C14.6139 39.8006 14.6171 39.8075 14.6172 39.8149L14.6274 54.4965L11.004 56.6024C9.97832 57.2044 9.41193 58.0464 9.38756 58.9746C9.38675 59.1603 9.35604 66.226 9.358 65.775C9.358 66.7463 9.95385 67.6244 11.0345 68.2448L43.2393 86.8425C45.1169 87.9294 48.0612 87.9298 49.9487 86.8425L69.9932 75.195C70.4077 74.9543 70.5492 74.422 70.3077 74.0084C70.0661 73.5914 69.533 73.4524 69.1219 73.6931C52.0742 82.6422 48.4937 87.8677 44.1072 85.3406L11.9016 66.7412C11.388 66.4463 11.0938 66.0937 11.0938 65.7784L11.1066 61.5235C55.181 86.9784 39.9473 78.1803 43.2579 80.0923C45.2116 81.2314 48.1817 81.0977 49.8665 80.15C49.9064 80.1347 49.9453 80.1144 49.9826 80.094C53.2465 78.1963 38.1609 86.9676 81.8984 61.5371L81.8848 65.7953C81.8848 66.0937 81.5907 66.448 81.116 66.7226L78.058 68.4991C77.6435 68.7398 77.5019 69.2721 77.7435 69.6857C77.9842 70.0993 78.5165 70.24 78.9293 70.001L81.9865 68.2245C83.0248 67.6227 83.6206 66.7378 83.6206 65.7987L83.6418 59.0519C83.6418 59.0503 83.6418 59.0503 83.6418 59.0486C83.6418 59.0469 83.6418 59.0452 83.6418 59.0435C83.6418 59.0008 83.6234 58.964 83.6175 58.9229C83.5656 58.0067 82.989 57.1564 81.9882 56.5804ZM16.9905 58.7994C16.604 58.5824 16.3734 58.3129 16.3734 58.0789C16.3721 56.8964 16.3538 41.3234 16.3548 42.1499C53.7816 63.7607 40.8731 56.3071 43.6656 57.9196C45.3082 58.8655 47.884 58.8672 49.5317 57.9179C52.3062 56.3058 39.481 63.7576 76.6662 42.152C76.6663 42.3331 76.6752 59.1497 76.6745 58.1105C76.6709 58.2802 76.4894 58.5535 76.0832 58.7885C65.5458 64.9118 55.0392 71.0173 48.6757 74.7153C47.5552 75.3628 45.665 75.3611 44.5462 74.717C41.719 73.0838 54.7693 80.6223 16.9905 58.7994ZM53.7069 49.0556L53.6442 27.354C53.6376 25.1492 54.8493 22.5756 56.5464 20.8596C58.9725 18.4119 61.7473 18.2588 61.7573 21.6752C61.7633 23.9958 61.7353 13.269 61.8166 44.3701C61.6406 44.4718 53.1845 49.3574 53.7069 49.0556ZM54.318 17.4102C55.358 16.8084 56.3073 16.6796 56.937 17.0576L58.0601 17.7103C57.042 18.1276 56.2274 18.7554 55.4523 19.5134C53.3696 21.546 51.9033 24.6245 51.9033 27.3524L51.9694 49.0404C51.7955 48.9404 49.7393 47.757 49.9131 47.8571L49.8445 25.1588C49.8445 22.3499 51.8922 18.8019 54.318 17.4102ZM35.0533 38.281L34.9906 16.5847C34.984 14.3798 36.1958 11.8062 37.8928 10.0902C40.3002 7.66145 43.0937 7.462 43.1037 10.9042L43.1698 33.599C42.9937 33.7006 34.5307 38.5824 35.0533 38.281ZM35.6653 6.63913C36.7036 6.04074 37.6545 5.91021 38.2835 6.28823L39.4065 6.94087C38.3685 7.36517 37.505 8.05326 36.7987 8.744C34.716 10.7766 33.2497 13.8551 33.2497 16.583L33.3158 38.2726L31.2663 37.0916C31.1629 5.98043 31.1986 16.7107 31.1909 14.3894C31.1909 11.5805 33.2386 8.03256 35.6653 6.63913ZM16.9481 39.0948L29.5078 31.7994L29.5254 37.5928C29.5264 37.9638 29.7812 38.2385 29.9593 38.3421L29.9614 38.3433C31.0538 38.9748 33.9428 40.6451 33.7565 40.539C34.0256 40.6923 34.3552 40.6936 34.6236 40.5373C34.7997 40.4359 45.1045 34.498 44.4759 34.8602C44.7454 34.7043 44.9115 34.4161 44.9107 34.1042L44.8776 22.9364C45.9422 22.5635 47.4026 22.6228 48.3595 23.0975C48.2443 23.5835 48.1052 24.5241 48.1052 25.1707L48.1747 48.3622C48.1756 48.6708 48.3417 48.9572 48.6096 49.1115C48.7836 49.2118 52.3728 51.2947 52.4101 51.3169C52.6796 51.4695 53.0093 51.4712 53.2789 51.3152C53.4548 51.2135 63.755 45.2562 63.1269 45.6195C63.3965 45.4652 63.5618 45.177 63.5609 44.8651L63.5229 31.8568L76.0534 39.0965C76.434 39.3151 76.6611 39.5779 76.662 39.7966C76.6624 39.9 76.6052 40.0129 76.5137 40.1256C76.2556 40.4383 77.8514 39.4503 48.6579 56.4109C47.5458 57.055 45.6549 57.055 44.5293 56.4092C41.7027 54.7772 54.7499 62.3102 16.9803 40.5034C16.5938 40.2814 16.3531 40.0068 16.3531 39.7847C16.3531 39.7837 16.3526 39.7829 16.3526 39.7819C16.3557 39.5728 16.5835 39.3081 16.9481 39.0948ZM11.8796 58.101L14.6289 56.5041L14.63 58.0874C14.63 59.0504 15.2924 59.8291 16.1268 60.3081C18.9453 61.9363 5.91903 54.411 43.68 76.2257C45.3243 77.1733 47.901 77.1716 49.5487 76.224L76.9493 60.2945C77.9609 59.721 78.4131 58.8541 78.4131 58.1044V58.0976V56.5261L81.122 58.0857C81.9697 58.5726 82.2003 59.1913 81.4025 59.7843C81.2542 59.9139 75.3189 63.3484 49.1003 78.5887C47.7995 79.3363 45.4759 79.364 44.1275 78.5887C7.72638 57.4717 12.6489 60.5351 11.4175 59.6036C11.4147 59.43 10.4892 58.9177 11.8796 58.101Z" fill="black"/>
<path d="M38.6117 12.3146C37.1962 13.1316 36.091 15.0472 36.0952 16.6762C36.1024 18.6733 37.7718 19.5987 39.4932 18.6087C40.9078 17.7917 42.013 15.8812 42.0088 14.2589C42.0017 12.2757 40.3539 11.3089 38.6117 12.3146ZM38.6253 17.1034C38.0802 17.4144 37.8328 17.3347 37.8311 16.6712C37.8285 15.6591 38.599 14.3267 39.4796 13.8182C40.0342 13.4988 40.2713 13.6189 40.273 14.264C40.2755 15.2676 39.5059 16.5949 38.6253 17.1034Z" fill="black"/>
<path d="M57.2633 23.0856C55.8496 23.9027 54.7443 25.8182 54.7485 27.4456C54.7557 29.4255 56.4109 30.3804 58.1457 29.3764C59.5611 28.5593 60.6664 26.6505 60.6621 25.0283C60.655 23.043 59.0039 22.0819 57.2633 23.0856ZM57.2777 27.8745C56.7333 28.186 56.4861 28.1066 56.4844 27.4405C56.4819 26.4302 57.2523 25.0978 58.1321 24.5875C58.7337 24.241 58.9248 24.4224 58.9263 25.0334C58.9288 26.0386 58.1584 27.3659 57.2777 27.8745Z" fill="black"/>
</svg>
