<svg width="93" height="92" viewBox="0 0 93 92" fill="none" xmlns="http://www.w3.org/2000/svg">
<path d="M14.9939 74.9225C14.9939 75.231 15.1583 75.5167 15.4261 75.6718C25.2371 81.3733 36.0802 87.6718 35.8597 87.5464C36.1411 87.7065 36.4681 87.6959 36.7276 87.5464L77.6065 63.9387C77.876 63.7836 78.0404 63.4962 78.0404 63.1852L77.9879 37.7382C77.9879 37.5645 77.8723 37.1716 77.5539 36.9881C77.375 36.885 65.4706 29.9734 65.6452 30.0711L65.5928 11.6911C65.5912 11.3818 65.4267 11.0961 65.1572 10.941C65.1463 10.9348 65.133 10.9373 65.1219 10.9316L54.0013 4.45364C53.8257 4.40307 53.5382 4.22046 53.13 4.45195L24.9224 20.734C24.6546 20.8891 24.4885 21.1739 24.4885 21.4833C24.4885 21.4948 24.4966 21.504 24.4971 21.5155L24.5581 43.435L15.3939 48.722C15.0871 48.8998 14.96 49.2697 14.96 49.473C14.96 49.4726 14.96 49.4734 14.96 49.473C14.96 49.7494 14.9929 74.6943 14.9939 74.9225ZM76.2554 39.2411L76.2673 45.953L37.1242 68.5418L37.1107 61.8307C46.5725 56.3705 69.2073 43.3084 76.2554 39.2411ZM35.3867 68.5343L16.7111 57.6878L16.6992 50.9834L35.3741 61.8295C35.3744 62.0077 35.3874 68.907 35.3867 68.5343ZM16.7297 74.4216L16.7105 59.6938L35.3921 70.5441C35.3925 70.7177 35.4238 86.0361 35.4223 85.2842L16.7297 74.4216ZM37.1585 85.2933C37.158 85.0669 37.1264 69.6096 37.1283 70.5438L76.2731 47.9546L76.3029 62.686C25.564 91.9891 88.4917 55.6397 37.1585 85.2933ZM52.7028 17.6304L36.526 26.9717L27.0898 21.4875L52.7028 6.70334V17.6304ZM63.8621 13.1948C63.8725 16.9186 63.926 35.9571 63.935 39.1672L37.4692 54.4462C37.463 52.2621 37.4045 31.6723 37.3955 28.475C47.5801 22.6044 53.6885 19.0713 63.8621 13.1948ZM35.6594 28.4817C35.6766 34.5874 35.7148 48.1325 35.7325 54.4371L26.3108 48.9568C26.2085 13.3794 26.2438 25.6595 26.2362 23.0011L35.6594 28.4817ZM54.4387 16.628V6.71785L62.9823 11.6945L54.4387 16.628ZM24.5631 45.4368C24.5636 45.6104 24.5757 49.7265 24.5749 49.4637C24.5766 49.7722 24.7394 50.057 25.0072 50.2112C25.1825 50.3131 36.9177 57.1333 36.1699 56.6986C36.1706 56.6991 36.1715 56.6988 36.1722 56.6993C36.1718 56.6991 36.1726 56.6995 36.1722 56.6993C36.2085 56.7202 36.2524 56.7164 36.2906 56.7316C36.5338 56.8295 36.8075 56.8346 37.0395 56.7003L65.247 40.4183C65.5166 40.2623 65.6827 39.9741 65.681 39.6631C65.6803 39.4848 65.6489 31.5795 65.6509 32.0817L75.3875 37.7374C67.9747 42.0151 46.5315 54.3893 36.2423 60.3269L17.5603 49.4764L24.5631 45.4368Z" fill="black"/>
<path d="M48.1513 28.3835C47.8834 28.2292 47.5529 28.23 47.285 28.3843L40.7553 32.1544C40.4857 32.3103 40.3196 32.5976 40.3213 32.9087L40.3433 40.3979C40.345 40.7073 40.5095 40.9929 40.779 41.1481C41.0467 41.3023 41.3774 41.3015 41.6452 41.1472L48.175 37.3772C48.4445 37.2212 48.6107 36.9339 48.609 36.6228L48.5869 29.1336C48.5852 28.8242 48.4208 28.5386 48.1513 28.3835ZM42.0741 38.8943L42.0588 33.4062L46.8562 30.6372L46.8714 36.1253L42.0741 38.8943Z" fill="black"/>
<path d="M52.7231 25.7492L52.7435 33.2384C52.7452 33.5478 52.9096 33.8334 53.1791 33.9885C53.4469 34.1427 53.7775 34.1419 54.0454 33.9877L60.5751 30.2176C60.8447 30.0617 61.0091 29.7743 61.0091 29.4633L60.9888 21.9732C60.9871 21.6638 60.8226 21.3782 60.5531 21.2231C60.2853 21.0688 59.9547 21.0696 59.6869 21.2239L53.1571 24.9948C52.8876 25.1508 52.7231 25.4381 52.7231 25.7492ZM59.2563 23.4768L59.2716 28.9657L54.4759 31.7348L54.4607 26.2467L59.2563 23.4768Z" fill="black"/>
</svg>
