<svg width="93" height="92" viewBox="0 0 93 92" fill="none" xmlns="http://www.w3.org/2000/svg">
<path d="M20.4666 80.7972C20.4683 81.1057 20.631 81.3905 20.8988 81.5448C21.0745 81.6469 31.3942 87.6447 31.2185 87.5426L31.2207 87.5448C31.4884 87.699 31.8191 87.6982 32.0869 87.544L72.2488 64.3558C72.5183 64.1998 72.6844 63.9125 72.6827 63.6015C72.6577 54.8102 72.5585 19.9615 72.5336 11.2014C72.5316 10.8404 72.2751 10.5546 72.1013 10.4538L72.0993 10.4526L72.0979 10.4512L72.0961 10.4507L61.7828 4.45715C61.5167 4.30119 61.1827 4.30119 60.9132 4.45545L52.2594 9.4511C51.8441 9.69097 51.7017 10.2216 51.9424 10.6369C52.1797 11.0522 52.7103 11.192 53.1273 10.9547L61.3455 6.20994L69.9343 11.201L31.5049 33.3882L22.9161 28.3971L43.5055 16.5098C43.9209 16.2699 44.0633 15.7393 43.8225 15.324C43.5835 14.9078 43.0495 14.7663 42.6376 15.0062L20.7513 27.6428C20.4443 27.8206 20.3174 28.2192 20.3174 28.3937C20.3174 30.1723 20.4427 72.4743 20.4666 80.7972ZM70.8028 12.705L70.9058 49.1688L32.4769 71.3557C32.467 67.8579 32.3831 38.3166 32.3734 34.8915L42.7449 28.9035L70.8028 12.705ZM30.6372 34.8911C30.6536 40.6562 30.7333 68.7829 30.7405 71.3455L22.1613 66.3604L22.0583 29.9052C22.6917 30.2733 30.8929 35.0397 30.6372 34.8911ZM22.167 68.3701L30.7463 73.3554L30.7799 85.2808L22.2007 80.2946L22.167 68.3701ZM32.5175 85.2901L32.4836 73.3563L70.9113 51.17L70.9452 63.1039L32.5175 85.2901Z" fill="black"/>
<path d="M47.1297 14.418L50.0691 12.7203C50.4844 12.4804 50.6268 11.9498 50.3861 11.5345C50.1471 11.1184 49.6148 10.9768 49.2012 11.2167L46.2617 12.9144C45.8464 13.1542 45.704 13.6848 45.9447 14.1001C46.181 14.5136 46.7119 14.6578 47.1297 14.418Z" fill="black"/>
<path d="M35.0179 64.5338C35.0206 65.0142 35.4092 65.3992 35.8859 65.3992C36.035 65.3992 36.1859 65.3602 36.3198 65.283L68.0601 46.9592C68.3296 46.8032 68.4957 46.5159 68.4941 46.2048L68.4161 18.4965C68.4144 18.1871 68.2499 17.9015 67.9804 17.7464C67.7126 17.5921 67.382 17.593 67.1142 17.7472L35.3739 36.0703C35.1044 36.2262 34.9383 36.5135 34.94 36.8246L35.0179 64.5338ZM66.6836 20.0001L66.7565 45.7073L36.7504 63.0302L36.6775 37.3221L66.6836 20.0001Z" fill="black"/>
<path d="M66.3308 58.7897L46.2439 70.3884C45.5623 69.0726 44.0961 68.8979 42.7629 69.6642C41.3056 70.5068 40.1347 72.3478 39.8874 74.0729L36.2518 76.1643C35.8365 76.4033 35.6924 76.9339 35.9314 77.35C36.174 77.7701 36.7065 77.9053 37.1163 77.6696L40.0767 75.9666C40.6917 77.4863 42.238 77.7366 43.6478 76.9203C45.188 76.0305 46.399 74.0251 46.5475 72.2178L67.1987 60.2933C67.614 60.0534 67.7564 59.5228 67.5157 59.1075C67.2767 58.6897 66.7461 58.5498 66.3308 58.7897ZM42.7799 75.4167C41.99 75.8763 41.5748 75.6538 41.5712 74.7361C41.5678 73.4495 42.5103 71.8162 43.6309 71.1678C44.4284 70.7038 44.8053 70.9375 44.8325 71.7913C44.8343 71.8097 44.8375 71.8269 44.8405 71.8452L44.8412 71.8501C44.8446 73.1367 43.9004 74.77 42.7799 75.4167Z" fill="black"/>
<path d="M52.1731 51.1564C56.7551 48.5094 60.3319 42.3127 60.3149 37.0483C60.3009 31.4649 56.1144 29.0693 51.2543 31.8772C46.7536 34.4751 43.1056 40.8014 43.1192 45.9802C43.1331 51.5034 47.2585 53.9905 52.1731 51.1564ZM52.1222 33.3809C55.8344 31.2365 58.5686 32.8262 58.5791 37.0534C58.5926 41.6753 55.3295 47.3278 51.3051 49.6527C47.5985 51.7934 44.8655 50.1988 44.855 45.9751C44.8415 41.3507 48.103 35.7007 52.1222 33.3809Z" fill="black"/>
<path d="M49.9776 47.6474C50.2403 47.6474 50.4946 47.5288 50.6607 47.3135L56.8752 39.3581C57.0685 39.1123 57.1142 38.7809 56.9939 38.4919C56.8735 38.2028 56.6074 38.0011 56.2972 37.963L50.059 37.1976C49.8233 37.1645 49.564 37.2434 49.3775 37.4095C49.191 37.5748 49.0859 37.8121 49.0859 38.0613L49.1097 46.7821C49.1118 47.2568 49.4964 47.6474 49.9776 47.6474ZM54.563 39.4988L50.8387 44.2673L50.8252 39.0402L54.563 39.4988Z" fill="black"/>
</svg>
