<svg width="93" height="92" viewBox="0 0 93 92" fill="none" xmlns="http://www.w3.org/2000/svg">
<rect x="0.5" width="92" height="92" rx="46" fill="white"/>
<path d="M41.1345 73.1626C44.5833 73.1626 48.0298 72.4014 50.6488 70.8791C53.2728 69.354 54.7217 67.296 54.7283 65.085L54.7432 61.6688C54.7432 61.6672 54.7432 61.665 54.7432 61.6628V61.6589C54.7432 61.655 54.7411 61.6513 54.7411 61.6474C54.7411 61.6453 54.7416 61.6433 54.7416 61.6412C54.7388 59.4047 53.2668 57.3224 50.5952 55.7768C46.9923 53.6957 41.7863 52.9632 36.9495 53.8797L36.5498 53.9995L36.6256 24.3485C36.6223 24.0102 36.724 23.7504 36.8975 23.6542C37.0728 23.5558 37.3464 23.61 37.6797 23.8211L46.2921 28.5054L46.2897 29.9023C41.9362 32.1614 39.2291 36.5616 39.2065 41.5391C39.2065 43.6789 40.6293 45.686 43.2141 47.1918C48.3136 50.1396 56.5525 50.1284 61.576 47.1918C64.1166 45.7264 65.5162 43.743 65.5162 41.5391C65.5162 40.1881 65.305 38.8394 64.8893 37.5299C64.7942 37.2319 64.4764 37.0661 64.1785 37.1617C63.8805 37.2562 63.7158 37.5746 63.8103 37.8726C64.1912 39.071 64.3841 40.3048 64.3841 41.6071C64.3841 43.3213 63.1857 44.9564 61.0072 46.2128C56.2865 48.9733 48.5588 48.9728 43.7818 46.2122C41.5613 44.9188 40.3385 43.2593 40.3385 41.4849C40.3584 37.1822 42.622 33.3095 46.3057 31.1752C46.5277 33.3213 49.2531 34.4246 51.4667 34.6237C53.5246 34.812 55.3077 34.3746 56.5447 33.6555C57.7037 32.9819 58.3411 31.9312 58.4175 31.1669C59.4069 31.7435 60.3019 32.4516 61.0863 33.2791C61.3018 33.5074 61.66 33.5168 61.8861 33.3006C62.1133 33.0856 62.1227 32.7274 61.9077 32.5008C60.9054 31.4428 59.7321 30.573 58.4287 29.8934L58.4335 27.0455C58.4335 27.0438 58.4326 27.0414 58.4326 27.0397C58.4326 27.0377 58.4335 27.0359 58.4335 27.0339C58.4319 25.9709 57.7536 24.9941 56.5242 24.2844C54.209 22.9478 50.6202 22.9342 48.2831 24.2305L39.998 19.7649C35.9567 17.4459 31.9776 19.6602 31.9497 24.3524L31.8697 55.6159C31.7712 55.6695 31.6725 55.7203 31.5744 55.778C28.9415 57.3086 27.4932 59.3787 27.4966 61.6069C27.4966 61.6171 27.4991 61.627 27.4991 61.6371L27.4839 65.0065C27.4673 70.6046 35.4875 73.1626 41.1345 73.1626ZM53.5968 64.9363L53.5962 65.0811C53.5912 66.8743 52.342 68.5857 50.0795 69.9007C42.2714 74.4391 28.599 71.2246 28.6159 65.0109L28.6165 64.8622C28.6283 64.8785 28.6439 64.8938 28.6559 64.91C30.7794 67.7945 34.996 69.1942 38.5716 69.5927C43.5714 70.1537 50.6323 68.9592 53.5968 64.9363ZM52.3762 30.7883C53.8798 30.7883 55.3828 30.4489 56.5513 29.7695C56.8288 29.6081 57.0781 29.4329 57.2976 29.2455L57.2948 30.9276C57.293 31.6276 56.6297 32.298 55.9709 32.6727C54.8304 33.3362 53.2777 33.6064 51.784 33.5092C50.4885 33.4229 49.0143 33.0511 48.0679 32.1592C47.6533 31.7672 47.4191 31.3374 47.4251 30.8977C47.4249 30.7845 47.4227 29.1127 47.4229 29.2267C48.6957 30.323 50.6546 30.7883 52.3762 30.7883ZM55.9582 25.265C56.8233 25.7641 57.3003 26.3932 57.3014 27.0355C57.3025 27.776 56.6354 28.4112 55.9825 28.7911C52.765 30.6575 47.4255 29.2561 47.4272 27.0162C47.428 25.2906 50.311 24.3988 52.3398 24.3988C53.6482 24.3988 54.9582 24.6879 55.9582 25.265ZM39.4475 20.7538L47.2576 24.9637C46.1372 26.0425 46.3158 27.104 46.293 27.2174L38.254 22.8461C36.8481 21.951 35.4774 22.7626 35.4935 24.3524C35.37 71.5303 35.5218 13.1874 35.4029 59.7994C35.4029 59.8298 35.3481 59.9259 35.19 60.021C34.29 60.5343 32.9911 60.0853 32.9911 59.79L33.0027 55.9521C33.1247 7.18778 33.0643 31.3406 33.0818 24.3573C33.1039 20.5354 36.1507 18.8636 39.4475 20.7538ZM31.8664 56.9232L31.859 59.7883C31.859 60.2703 32.1515 60.717 32.6677 61.0171C33.7402 61.6223 35.3656 61.4312 36.0897 60.7521C36.3763 60.4833 36.5349 60.1501 36.5349 59.801L36.5467 55.181L37.217 54.9781C41.6735 54.1373 46.7015 54.836 50.0286 56.7569C52.3359 58.0913 53.6073 59.8265 53.6095 61.6423C53.61 62.2672 53.4504 62.8806 53.159 63.4725C52.3495 65.1129 50.6394 66.2856 48.9624 67.052C46.0119 68.3959 42.26 68.8776 38.7368 68.487C34.4084 68.0038 28.6214 65.6977 28.6314 61.5854C28.6314 61.5848 28.6314 61.5843 28.6314 61.5837C28.6314 61.5824 28.6307 61.5814 28.6307 61.5801C28.6391 59.8573 29.7821 58.2135 31.8664 56.9232Z" fill="black"/>
<path d="M43.9465 65.1226C45.1646 65.8253 47.0632 65.8239 48.2736 65.1204C49.7115 64.2847 49.6551 62.7698 48.2597 61.9646C47.042 61.2621 45.1427 61.2604 43.9326 61.9641C42.5225 62.7837 42.5302 64.3053 43.9465 65.1226ZM44.5014 62.9425C45.3668 62.4397 46.8309 62.4464 47.6937 62.9452C48.3526 63.3251 48.3609 63.7607 47.7042 64.142C46.8424 64.6423 45.3809 64.6434 44.5125 64.142C43.8744 63.774 43.8267 63.3349 44.5014 62.9425Z" fill="black"/>
<path d="M62.419 33.9578C62.1614 34.1347 62.0967 34.4874 62.2742 34.745C62.555 35.1529 62.8131 35.583 63.0414 36.023C63.142 36.2175 63.3399 36.3286 63.5444 36.3286C63.6323 36.3286 63.7213 36.3082 63.8042 36.2651C64.0817 36.1214 64.1901 35.7797 64.0464 35.5022C63.7965 35.0202 63.514 34.5493 63.2061 34.1026C63.0298 33.8467 62.6782 33.7804 62.419 33.9578Z" fill="black"/>
</svg>
