<svg width="93" height="92" viewBox="0 0 93 92" fill="none" xmlns="http://www.w3.org/2000/svg">
<path d="M11.7239 25.392C24.2359 32.568 32.1479 37.168 40.0599 41.768C40.4279 41.952 40.6119 41.952 40.9799 41.768L69.1319 25.392C69.4999 25.208 69.4999 24.84 69.4999 24.656C69.4999 24.288 69.3159 24.104 68.9479 23.92L40.7959 7.35999C40.6119 7.35999 40.4279 7.35999 40.4279 7.35999C40.2439 7.35999 40.0599 7.35999 40.0599 7.54399L11.7239 23.736C11.3559 23.92 11.3559 24.288 11.3559 24.472C11.1719 25.024 11.3559 25.208 11.7239 25.392ZM18.5319 27.232L40.2439 14.536L62.1399 27.232L40.4279 39.928L18.5319 27.232ZM64.1639 26.312L41.1639 13.064V9.75199L66.7399 24.472L64.1639 26.312ZM39.3239 9.93599V13.064L16.6919 26.128L13.9319 24.472L39.3239 9.93599Z" fill="black"/>
<path d="M8.41194 46.184C8.04394 46 7.85994 46 7.49194 46.184C7.12394 46.368 6.93994 46.736 6.93994 46.92V53.728C6.93994 54.096 7.12394 54.28 7.49194 54.464L35.4599 70.84C35.6439 70.84 35.8279 71.024 36.0119 71.024C36.5639 71.024 36.9319 70.656 36.9319 70.104V63.296C36.9319 62.928 36.7479 62.744 36.3799 62.56L8.41194 46.184ZM34.9079 68.448L8.77994 53.36V48.76L34.9079 63.848V68.448Z" fill="black"/>
<path d="M36.3799 50.048L8.41194 33.856C8.04394 33.672 7.85994 33.672 7.49194 33.856C7.12394 34.04 6.93994 34.408 6.93994 34.592V41.4C6.93994 41.768 7.12394 41.952 7.49194 42.136L35.4599 58.328C35.6439 58.328 35.8279 58.512 36.0119 58.512C36.5639 58.512 36.9319 58.144 36.9319 57.592V50.784C36.9319 50.6 36.7479 50.232 36.3799 50.048ZM35.0919 55.936L8.77994 40.848V36.248L34.9079 51.336L35.0919 55.936Z" fill="black"/>
<path d="M46.6839 20.608C46.6839 20.424 46.4999 20.056 46.1319 19.872L40.9799 16.744C40.6119 16.56 40.4279 16.56 40.0599 16.744C39.8759 16.744 40.9799 16.192 34.7239 19.872C34.3559 20.056 34.1719 20.424 34.1719 20.608V25.76C34.1719 26.128 34.3559 26.312 34.7239 26.496L40.0599 29.624C40.4279 29.808 40.6119 29.808 40.9799 29.624C43.1879 28.336 46.4999 26.496 46.3159 26.496C46.6839 26.312 46.6839 25.944 46.6839 25.76V20.608ZM40.4279 18.584L43.9239 20.608L40.4279 22.632C40.2439 22.448 36.7479 20.608 36.9319 20.608L40.4279 18.584ZM36.0119 22.264L39.5079 24.288C39.5079 24.472 39.5079 27.6 39.5079 27.416L36.0119 25.392V22.264ZM44.8439 25.392L41.3479 27.416C41.3479 27.232 41.3479 24.104 41.3479 24.288L44.8439 22.264V25.392Z" fill="black"/>
<path d="M90.1078 65.32C89.9238 65.136 77.5958 57.96 78.3318 58.512C78.3318 32.2 78.5158 24.288 78.5158 24.656C78.5158 24.288 78.3318 24.104 77.9638 23.92L40.7958 2.392C40.4278 2.208 40.2438 2.208 39.8758 2.392C1.41984 24.656 14.8518 16.928 2.89184 23.736C2.52384 23.92 2.52384 24.288 2.52384 24.472L2.33984 67.344C2.33984 67.712 2.52384 67.896 2.89184 68.08L40.0598 89.608C40.4278 89.792 40.6118 89.792 40.9798 89.608C41.7158 89.24 61.9558 77.464 62.5078 77.096V81.144C62.5078 81.512 62.6918 81.696 62.8758 81.88C63.0598 82.064 75.3878 89.056 75.2038 89.056C75.5718 89.24 75.7558 89.24 76.1238 89.056L90.1078 80.96C90.4758 80.776 90.6598 80.408 90.6598 80.224V66.24C90.6598 65.872 90.4758 65.504 90.1078 65.32ZM80.7238 70.288L70.2358 64.216C70.4198 64.032 72.4438 62.928 72.2598 63.112L82.7478 69.184L80.7238 70.288ZM69.4998 47.84V51.704L48.3398 64.032V60.168C51.4678 58.512 39.1398 65.504 69.4998 47.84ZM48.5238 66.24L69.6838 53.912V58.328L48.5238 70.656V66.24ZM48.3398 72.68L69.4998 60.352V62.376L63.0598 66.24C62.6918 66.424 62.6918 66.792 62.5078 66.976V68.816L48.3398 77.096V72.68ZM41.5318 46.552L76.6758 26.128L76.4918 58.328L71.3398 61.272V46.552L73.5478 45.264C73.9158 45.08 74.0998 44.528 73.9158 43.976C73.7318 43.608 73.1798 43.424 72.6278 43.608C62.5078 49.496 54.4118 54.28 44.2918 60.168C43.9238 60.352 43.7398 60.904 43.9238 61.456C44.1078 61.824 44.6598 62.008 45.2118 61.824L46.4998 61.088C46.4998 67.528 46.4998 79.304 46.4998 84.088L41.3478 87.032L41.5318 46.552ZM48.3398 79.304L62.5078 71.024V74.888L48.3398 83.168V79.304ZM65.2678 67.16L68.3959 65.32L78.8838 71.392L75.7558 73.232C75.3878 72.864 65.0838 66.976 65.2678 67.16ZM81.6438 71.944L83.6678 70.84V74.336L81.6438 75.44V71.944ZM84.5878 68.08L74.0998 62.008L77.4118 60.168L87.8998 66.24L84.5878 68.08ZM40.2438 4.232L75.5718 24.656L40.6118 45.08L5.28384 24.656L40.2438 4.232ZM4.36384 26.128C12.8278 30.912 31.7798 41.952 39.6918 46.552L39.5078 87.216L4.17984 66.792L4.36384 26.128ZM64.3478 68.632C64.7158 68.816 75.3878 75.072 74.6518 74.704C74.6518 75.072 74.6518 87.4 74.6518 86.48L64.1638 80.408C64.3478 80.224 64.3478 68.264 64.3478 68.632ZM76.6758 86.664C76.6758 86.296 76.6758 74.152 76.6758 74.704L79.8038 72.864V76.912C79.8038 77.28 79.9878 77.464 80.3559 77.648C80.7238 77.832 80.9078 77.832 81.2758 77.648L85.1398 75.44C85.5078 75.256 85.5078 74.888 85.5078 74.704V69.736L88.8198 67.896V79.856L76.6758 86.664Z" fill="black"/>
</svg>
