<svg width="93" height="92" viewBox="0 0 93 92" fill="none" xmlns="http://www.w3.org/2000/svg">
<path d="M8.96419 39.008C8.78019 39.192 8.59619 39.56 8.59619 39.744C8.59619 40.112 8.78019 40.296 8.96419 40.48L18.9002 46.184L12.4602 57.04C12.2762 57.224 12.2762 57.592 12.2762 57.776C12.2762 57.96 12.4602 58.144 12.6442 58.328L19.0842 62.008V74.336C19.0842 74.704 19.2682 74.888 19.6362 75.072L45.5802 89.976C45.9482 90.16 46.1322 90.16 46.5002 89.976L64.5322 79.488C64.9002 79.304 65.0842 78.752 64.9002 78.2C64.7162 77.832 64.1642 77.648 63.6122 77.832L46.8682 87.584V62.56L56.2522 67.896C56.4362 68.08 56.8042 68.08 57.1722 67.896L71.8922 59.432V73.048L70.4202 73.968C70.0522 74.152 69.8682 74.704 70.0522 75.256C70.2362 75.624 70.7882 75.808 71.3402 75.624L73.3642 74.52C73.7322 74.336 73.7322 73.968 73.7322 73.784V58.512L84.0362 52.44C84.4042 52.256 84.4042 51.888 84.4042 51.704C84.4042 51.52 84.2202 51.152 84.0362 50.968L74.6522 45.632L83.8522 40.296C84.2202 40.112 84.2202 39.744 84.2202 39.56C84.2202 39.376 84.0362 39.008 83.6682 38.824L65.2682 27.6C65.2682 27.232 65.2682 26.864 65.2682 26.496C65.2682 21.896 63.6122 18.4 60.6682 16.56C60.4842 16.56 61.2202 16.928 53.3082 12.512C52.7562 12.144 52.2042 11.96 51.4682 11.776V11.408H51.6522C52.7562 10.672 53.3082 9.752 53.3082 8.832C53.3082 8.096 53.3082 6.44 53.3082 5.52C53.3082 4.416 52.7562 3.496 51.4682 2.944C49.4442 1.84 46.3162 1.84 44.4762 2.944C43.3722 3.496 42.8202 4.416 42.8202 5.336C42.8202 5.704 42.8202 5.152 42.8202 8.832C42.8202 9.752 43.3722 10.856 44.6602 11.408V12.512C42.6362 13.248 41.1642 14.168 39.3242 15.64C39.1402 15.456 39.8762 16.192 38.0362 14.352C37.4842 13.8 36.7482 13.616 35.8282 13.984C34.3562 14.352 33.0682 15.824 32.5162 17.296C32.3322 18.216 32.5162 18.952 32.8842 19.504C33.0682 19.688 34.5402 21.16 34.3562 20.976C33.2522 22.448 32.3322 23.92 31.4122 25.576L8.96419 39.008ZM29.9402 28.152V28.336C28.6522 31.648 27.7322 35.144 27.7322 38.64C27.7322 39.192 27.7322 39.744 27.7322 40.112L24.9722 41.952L20.1882 44.896L11.1722 39.744L29.9402 28.152ZM32.3322 48.76C34.1722 49.864 37.8522 51.888 39.6922 52.992C41.3482 53.912 43.1882 54.28 45.2122 53.912V59.432C44.2922 59.064 22.5802 46.368 22.0282 46L28.1002 42.32C28.1002 42.32 28.1002 42.32 28.1002 42.504C28.6522 45.08 30.1242 47.472 32.3322 48.76ZM50.7322 51.888C55.3322 49.312 59.1962 44.528 61.5882 39.928L70.9722 45.264L47.0522 59.248V53.36C47.9722 53.176 49.4442 52.624 50.7322 51.888ZM20.5562 47.288L44.8442 61.272L38.9562 71.208L14.4842 57.224L20.5562 47.288ZM20.9242 73.784V63.112L38.5882 73.232C38.9562 73.416 39.5082 73.232 39.8762 72.864L45.0282 64.216V87.4L20.9242 73.784ZM72.4442 57.04L56.8042 66.056L47.9722 60.904L72.9962 46.368L81.8282 51.52L72.4442 57.04ZM65.0842 29.624L81.6442 39.192L72.8122 44.344L62.5082 38.272C63.6122 36.064 64.7162 32.752 65.0842 29.624C65.0842 29.808 65.0842 29.808 65.0842 29.624ZM63.4282 26.68C63.4282 35.144 57.3562 46 49.6282 50.416C42.6362 54.464 36.7482 51.52 36.7482 43.056C36.7482 31.28 47.7882 16.928 56.8042 17.48C61.5882 17.664 63.4282 21.896 63.4282 26.68ZM49.6282 14.904C49.6282 14.904 49.6282 15.088 49.2602 15.088C48.5242 15.456 47.4202 15.456 46.6842 15.088C46.5002 15.088 46.5002 14.904 46.5002 14.904V11.776C47.4202 11.96 48.5242 11.96 49.6282 11.776C49.6282 11.96 49.6282 14.72 49.6282 14.904ZM45.3962 4.232C46.8682 3.496 49.2602 3.496 50.5482 4.232C51.6522 4.968 51.6522 5.52 50.5482 6.256C49.8122 6.624 48.8922 6.808 47.9722 6.808C46.6842 6.808 44.4762 6.256 44.4762 5.152C44.6602 4.968 45.0282 4.6 45.3962 4.232ZM44.6602 7.912C45.5802 8.464 46.8682 8.648 48.1562 8.648C49.4442 8.648 50.7322 8.28 51.6522 7.912V8.648C51.6522 9.568 50.1802 9.936 49.2602 10.12C47.7882 10.304 44.6602 9.936 44.6602 8.648V7.912ZM36.0122 19.32C36.9322 18.952 37.8522 18.032 38.4042 16.928C38.5882 17.112 41.3482 19.688 41.1642 19.504C41.1642 19.504 41.1642 19.688 41.1642 19.872C40.9802 20.608 40.0602 21.528 39.3242 21.712C38.9562 21.712 39.1402 21.712 38.9562 21.712C38.4042 21.712 35.8282 19.136 36.0122 19.32ZM34.5402 17.48C34.7242 16.744 35.6442 15.824 36.3802 15.64C36.5642 15.64 36.5642 15.64 36.7482 15.64C36.7482 15.64 36.7482 15.824 36.7482 16.008C36.5642 16.744 35.6442 17.664 34.9082 17.848C34.7242 17.848 34.5402 17.848 34.5402 17.848C34.3562 17.664 34.3562 17.664 34.5402 17.48ZM37.4842 23.368C38.0362 23.92 38.7722 23.92 39.5082 23.736C40.7962 23.368 42.2682 22.08 42.6362 20.424C42.8202 19.504 42.6362 18.768 42.0842 18.216L40.4282 16.744C41.7162 15.64 43.0042 14.904 44.4762 14.352V15.088C44.4762 15.824 44.8442 16.56 45.5802 16.928C46.8682 17.664 48.7082 17.664 49.9962 16.928C50.7322 16.56 51.2842 15.824 51.2842 15.088V13.8C51.6522 13.984 51.8362 13.984 52.2042 14.168L55.1482 15.824C45.0282 17.112 34.9082 31.648 34.9082 43.24C34.9082 45.632 35.4602 47.656 36.0122 48.944L33.2522 47.288C32.1482 46.184 29.3882 45.08 29.3882 38.824C29.3882 32.752 32.1482 26.496 35.8282 21.896C36.3802 22.264 36.7482 22.816 37.4842 23.368Z" fill="black"/>
<path d="M66.9241 78.2L68.9481 76.912C69.3161 76.728 69.5001 76.176 69.3161 75.624C69.1322 75.256 68.5801 75.072 68.0281 75.256L66.0041 76.544C65.6361 76.728 65.4521 77.28 65.6361 77.832C65.8201 78.2 66.3721 78.384 66.9241 78.2Z" fill="black"/>
<path d="M56.0684 19.32C47.9724 19.32 38.5884 32.384 38.5884 42.32C38.5884 49.312 43.1884 52.256 49.6284 48.576C56.2524 44.712 61.9564 34.96 61.9564 27.232C61.7724 22.448 59.5644 19.32 56.0684 19.32ZM59.9324 28.704L57.9084 29.808C57.5404 29.992 57.3564 30.544 57.5404 31.096C57.7244 31.464 58.2764 31.648 58.8284 31.464L59.5644 31.096C58.2764 36.8 54.5964 42.688 50.1804 46V45.264C50.1804 44.712 49.8124 44.344 49.2604 44.344C48.7084 44.344 48.3404 44.712 48.3404 45.264V47.288C43.3724 50.048 40.2444 48.024 40.2444 42.504C40.2444 42.32 40.2444 42.32 40.2444 42.136L42.0844 41.032C42.4524 40.848 42.6364 40.296 42.4524 39.744C42.2684 39.376 41.7164 39.192 41.1644 39.376L40.4284 39.744C41.3484 34.04 45.0284 27.6 49.6284 23.92V24.656C49.6284 25.208 49.9964 25.576 50.5484 25.576C51.1004 25.576 51.4684 25.208 51.4684 24.656V22.632C52.7564 21.896 54.4124 21.16 55.8844 21.16C59.3804 21.16 59.9324 25.392 59.9324 27.232C59.9324 27.784 59.9324 28.152 59.9324 28.704Z" fill="black"/>
<path d="M55.7003 25.76C55.3323 25.576 54.7803 25.576 54.4123 26.128L51.1003 31.464C50.5483 31.464 50.1803 31.464 49.6283 31.832C48.1563 32.568 47.2363 34.592 47.2363 36.064C47.2363 38.088 48.8923 39.008 50.7323 38.088C52.2043 37.352 53.1243 35.328 53.1243 33.856C53.1243 33.304 52.9403 32.936 52.7563 32.568L56.0683 27.232C56.2523 26.68 56.0683 26.128 55.7003 25.76ZM49.4443 36.432C48.8923 36.8 48.7083 36.616 48.7083 36.064C48.7083 35.144 49.4443 33.856 50.1803 33.304C50.7323 32.936 50.9163 33.12 50.9163 33.672C51.1003 34.776 50.3643 35.88 49.4443 36.432Z" fill="black"/>
</svg>
