<svg width="93" height="92" viewBox="0 0 93 92" fill="none" xmlns="http://www.w3.org/2000/svg">
<path d="M38.588 82.064C38.956 82.248 39.508 82.248 39.876 81.696C40.06 81.328 40.06 80.776 39.508 80.408L37.852 79.488C37.484 79.304 36.932 79.304 36.564 79.856C36.196 80.408 36.38 80.776 36.932 81.144L38.588 82.064Z" fill="black"/>
<path d="M82.5638 63.112C82.9318 62.928 83.1158 62.56 83.1158 62.376L82.9318 22.08C82.9318 21.712 82.7478 21.528 82.3798 21.344L49.2598 2.02399C49.0758 1.83999 48.7078 1.83999 48.3398 2.02399C43.1878 4.96799 10.9878 23.552 10.4358 23.92C10.0678 24.104 10.0678 24.472 9.88379 24.656C9.88379 24.84 10.0678 64.584 10.0678 64.952C10.0678 65.32 10.2518 65.504 10.4358 65.688L34.3558 79.672C34.7238 79.856 35.2758 79.856 35.6438 79.304C35.8278 78.936 35.8278 78.384 35.2758 78.016L11.9078 64.4L11.7238 26.312C14.6678 28.152 40.2438 42.872 43.0038 44.528L43.1878 82.616L41.5318 81.696C41.1638 81.512 40.6118 81.512 40.2438 82.064C40.0598 82.432 40.0598 82.984 40.6118 83.352L43.7398 85.192C44.1078 85.376 44.2918 85.376 44.6598 85.192C48.5238 82.984 55.5158 78.936 55.1478 79.12V85.744C55.1478 86.112 55.3318 86.296 55.5158 86.48L61.7718 90.16C62.1398 90.344 62.6918 90.344 63.0598 89.976L67.4758 84.088L71.7078 84.824C71.8918 84.824 72.2598 84.824 72.4438 84.64C72.6278 84.456 72.8118 84.272 72.8118 83.904V71.76C74.0998 70.288 75.2038 68.632 76.1238 66.976L82.5638 63.112ZM77.0438 57.96C76.4918 62.56 74.0998 67.344 70.9718 70.656C64.3478 78.016 56.6198 77.648 56.4358 68.816C56.4358 65.32 57.7238 61.456 59.5638 58.144C61.5878 54.832 64.1638 51.888 67.1078 50.232C73.7318 46.552 78.1478 50.416 77.0438 57.96ZM62.6918 45.816C64.5318 45.08 66.5558 44.712 68.2118 45.816L70.4198 47.104C69.3158 47.288 67.8438 47.84 66.3718 48.576C63.0598 50.416 60.1158 53.728 57.9078 57.592C55.8838 61.272 54.5958 65.32 54.5958 68.816C54.5958 70.288 54.9638 72.128 55.3318 72.864C53.3078 71.576 53.1238 71.576 52.3878 71.024C51.0998 69.736 50.3638 67.712 50.3638 65.32C50.3638 57.96 56.0678 48.76 62.6918 45.816ZM24.6038 17.848L55.8838 36.064L44.1078 42.872L12.8278 24.656L24.6038 17.848ZM35.2758 11.592L66.5558 29.808C66.3718 29.992 57.1718 35.328 57.7238 34.96L26.4438 16.744L35.2758 11.592ZM58.6438 36.616C58.8278 36.432 68.0278 31.096 67.4758 31.464V35.88L58.6438 41.032V36.616ZM48.8918 3.86399L80.1718 22.08L68.3958 28.888L37.1158 10.672L48.8918 3.86399ZM45.0278 82.616L44.8438 44.528L56.6198 37.72V42.688C56.6198 43.24 56.9878 43.608 57.5398 43.608C57.7238 43.608 57.9078 43.608 58.0918 43.424L68.7638 37.168C69.1318 36.984 69.1318 36.616 69.1318 36.432V30.36L80.9078 23.552L81.0918 61.64L77.2278 63.848C77.9638 62.008 78.5158 59.8 78.8838 57.776C79.2518 53.912 78.5158 49.68 75.2038 47.84L69.1318 44.344C67.4758 43.424 64.8998 43.056 61.7718 44.344C54.4118 47.472 48.5238 57.408 48.5238 65.32C48.5238 68.632 49.4438 71.024 51.2838 72.68C52.2038 73.416 52.3878 73.416 54.9638 75.072C54.9638 75.256 54.9638 77.28 54.9638 77.096L45.0278 82.616ZM56.9878 85.192C56.9878 76.544 56.9878 76.36 56.9878 75.992L58.6438 76.912C59.3798 77.28 60.6678 77.648 61.4038 77.832V87.768L56.9878 85.192ZM67.1078 82.064C66.7398 82.064 66.3718 82.064 66.1878 82.432L63.2438 86.48C63.2438 86.112 63.2438 77.096 63.2438 77.648C66.0038 77.28 68.7638 75.44 70.9718 73.6V82.616L67.1078 82.064Z" fill="black"/>
<path d="M67.4756 53.912C63.2436 56.304 59.9316 62.192 59.9316 67.16C59.9316 73.416 65.2676 73.048 69.6836 68.264C72.4436 65.32 74.0996 61.088 74.0996 57.776C73.9156 53.36 71.1556 51.704 67.4756 53.912ZM68.2116 66.976C65.2676 70.288 61.7716 71.576 61.7716 67.16C61.7716 63.112 64.8996 57.592 68.3956 55.568C70.7876 54.096 72.0756 54.832 72.0756 57.592C72.0756 60.536 70.6036 64.216 68.2116 66.976Z" fill="black"/>
</svg>
