<svg width="93" height="92" viewBox="0 0 93 92" fill="none" xmlns="http://www.w3.org/2000/svg">
<path d="M36.3726 10.0074C35.2215 10.8363 34.0722 11.756 32.9585 12.74C32.5991 13.0579 32.5652 13.6062 32.8822 13.9656C33.2025 14.3287 33.7544 14.3553 34.1078 14.0419C35.1792 13.0951 36.2827 12.212 37.3863 11.4161C37.7762 11.1355 37.8643 10.5931 37.5829 10.204C37.3032 9.815 36.7574 9.72686 36.3726 10.0074Z" fill="black"/>
<path d="M71.232 13.6455C71.2128 13.6323 71.2014 13.6122 71.1809 13.6003C71.1707 13.5944 71.1605 13.5884 71.1504 13.5825L58.3587 6.16192C53.3054 3.21996 46.6366 3.84548 39.5898 7.92489C39.1762 8.16476 39.0338 8.69619 39.2745 9.11066C39.5152 9.52682 40.0475 9.66583 40.4611 9.42681C46.9434 5.67456 52.9918 5.0465 57.4873 7.66299L64.5867 11.7805C60.4434 11.6844 56.0733 13.2632 52.4947 15.3194C52.4652 15.3363 52.4364 15.348 52.4069 15.365C38.3861 23.4609 26.8248 43.2269 26.8794 59.552C26.8947 64.1099 27.8597 67.7738 29.1192 70.3153C29.1418 70.3611 29.1568 70.4143 29.1798 70.4596C29.0041 70.3575 19.0952 64.5984 19.7225 64.963C17.1678 62.0117 15.81 57.5703 15.7931 52.1085C15.7676 40.5255 21.7838 26.7141 31.1207 16.922C31.4513 16.5745 31.4377 16.0252 31.0902 15.6947C30.7444 15.365 30.1969 15.3777 29.8629 15.7235C20.2344 25.8224 14.0301 40.1059 14.0572 52.1136C14.0751 57.8479 15.5179 62.5671 18.2105 65.8299L14.4352 79.1108C14.3267 79.4922 14.4895 79.8991 14.8336 80.0991L27.6541 87.5493C27.9783 87.7381 28.3756 87.6874 28.6424 87.468L39.9593 78.1446C44.0481 78.6022 48.7064 77.419 53.4393 74.6864C67.5482 66.5412 78.9888 46.7162 78.9431 30.4952C78.9211 22.5268 76.1804 16.5538 71.232 13.6455ZM19.6936 66.9565C19.8689 67.0584 31.7116 73.943 30.9638 73.5083C30.9134 73.6858 27.3526 86.2144 27.5597 85.4857L16.2881 78.9362L19.6936 66.9565ZM52.5714 73.1845C48.03 75.8052 43.6175 76.902 39.8169 76.3765C39.5745 76.346 39.3338 76.4121 39.144 76.5664L29.6863 84.358C29.843 83.8065 32.8923 73.0733 32.8193 73.3303C32.8821 73.106 32.8463 72.7633 32.637 72.5231L32.6345 72.5183C29.6351 69.1196 28.6301 64.1188 28.6154 59.5498C28.5728 43.7464 39.8097 24.6432 53.2816 16.866C58.482 13.8587 65.0633 12.0864 70.2672 15.0819C74.7221 17.6458 77.1869 23.1212 77.2072 30.5003C77.2513 46.167 66.2005 65.3139 52.5714 73.1845Z" fill="black"/>
<path d="M55.8787 21.3777C43.8837 28.3042 33.7839 45.7805 33.8229 59.5384C33.8513 71.2036 40.5617 74.1051 49.9676 68.6737C61.9507 61.7557 72.0387 44.2803 71.9997 30.5147C71.9657 18.8028 65.3424 15.9148 55.8787 21.3777ZM49.0997 67.1718C40.6249 72.0556 35.5859 69.5542 35.5587 59.535C35.5197 46.3195 45.2229 29.5349 56.7466 22.8813C64.9883 18.121 70.236 20.2363 70.2638 30.5198C70.3028 43.7412 60.6099 60.525 49.0997 67.1718Z" fill="black"/>
<path d="M52.4526 35.034C49.2826 36.8648 46.7145 41.3171 46.7246 44.96C46.7263 45.4381 47.1145 45.8246 47.5926 45.8246C47.5926 45.8246 47.5943 45.8246 47.596 45.8246C48.074 45.8229 48.4622 45.433 48.4605 44.9532C48.452 41.9189 50.6778 38.0641 53.3205 36.5376C55.6283 35.2055 57.3546 36.0671 57.3618 38.8176C57.3703 41.5977 55.5632 45.0346 53.1612 46.8111C52.9408 46.9756 52.8103 47.2349 52.8103 47.5112L52.8171 51.9017C52.8171 52.3798 53.207 52.768 53.685 52.768C54.1647 52.768 54.5529 52.3781 54.5529 51.8983L54.5461 47.9333C57.2126 45.7703 59.1061 42.0087 59.0976 38.8125C59.0871 34.7987 56.0003 32.9914 52.4526 35.034Z" fill="black"/>
<path d="M53.6654 56.2847C54.384 56.2847 54.9666 55.7021 54.9666 54.9835C54.9666 54.2649 54.384 53.6824 53.6654 53.6824C52.9468 53.6824 52.3643 54.2649 52.3643 54.9835C52.3643 55.7021 52.9468 56.2847 53.6654 56.2847Z" fill="black"/>
</svg>
