<svg width="93" height="92" viewBox="0 0 93 92" fill="none" xmlns="http://www.w3.org/2000/svg">
<rect x="0.5" width="92" height="92" rx="46" fill="white"/>
<path d="M65.1532 29.8513V29.8469C65.1532 29.8293 65.1447 29.8144 65.1431 29.7972C65.1253 29.2832 64.8022 28.8051 64.24 28.4805L48.2815 19.2669C47.2799 18.6876 45.7156 18.6876 44.7206 19.2669L28.866 28.4805C28.2955 28.8132 27.9683 29.3063 27.9694 29.8359C27.9694 29.8454 27.9736 29.8543 27.9738 29.8638L27.8467 62.1608C27.8467 62.6915 28.1673 63.1724 28.7554 63.5195L44.7162 72.7397C45.7262 73.315 47.2903 73.3062 48.2782 72.7375C61.95 64.7541 64.1014 63.5982 64.5009 63.2586C64.8392 62.9513 65.0261 62.5654 65.0261 62.173L65.1024 42.8304C65.1035 42.5175 64.8514 42.2633 64.5385 42.2622H64.5363C64.2246 42.2622 63.9714 42.5142 63.9703 42.826L63.9063 59.0477L47.8271 68.4735C47.1705 68.8516 46.0627 68.8505 45.4038 68.4724L28.9909 59.0788L29.1004 31.3272L44.84 40.4137C45.835 40.9886 47.396 40.9897 48.3943 40.4137L64.0156 31.335L63.999 35.2906C63.9979 35.6035 64.25 35.8578 64.5628 35.8589H64.5651C64.8768 35.8589 65.13 35.6068 65.1311 35.295C65.1328 34.8828 65.1544 29.5675 65.1532 29.8513ZM29.4342 29.46L45.2888 20.2464C45.9263 19.874 47.0607 19.87 47.7155 20.2464L63.674 29.46C63.9283 29.607 64.0178 29.7574 64.0178 29.8414C64.0184 29.8955 63.9855 29.9593 63.9271 30.0244L63.9217 30.0286C63.7448 30.2223 64.6212 29.6512 47.8283 39.4287C47.1738 39.809 46.0627 39.809 45.4016 39.4287L29.4431 30.2151C29.2352 30.0946 29.1015 29.9453 29.1015 29.8336C29.1015 29.7463 29.1888 29.6026 29.4342 29.46ZM44.84 69.453C45.8361 70.029 47.3982 70.029 48.3965 69.4519L63.9006 60.3632L63.894 62.1708C63.894 62.2388 63.8374 62.3302 63.8042 62.3695C38.9655 76.8583 51.2681 69.6821 47.7111 71.7569C47.0566 72.1361 45.94 72.1339 45.2789 71.758L29.3259 62.5422C29.0705 62.3908 28.9788 62.2459 28.9788 62.163L28.9858 60.38L44.84 69.453Z" fill="black"/>
<path d="M64.5573 37.4155H64.5551C64.2433 37.4155 63.9902 37.6675 63.9891 37.9793L63.9813 39.9958C63.9802 40.3087 64.2323 40.5629 64.5452 40.5641H64.5474C64.8591 40.5641 65.1123 40.312 65.1134 40.0002L65.1211 37.9837C65.1222 37.6708 64.8702 37.4166 64.5573 37.4155Z" fill="black"/>
<path d="M60.8416 48.6478C60.5299 48.6478 60.2767 48.8998 60.2756 49.2116L60.2413 57.1052C60.2402 57.418 60.4923 57.6723 60.8052 57.6734H60.8074C61.1191 57.6734 61.3723 57.4213 61.3734 57.1096L61.4077 49.216C61.4088 48.9031 61.1567 48.6489 60.8439 48.6478H60.8416Z" fill="black"/>
<path d="M57.5106 50.5714C57.1988 50.5714 56.9457 50.8235 56.9446 51.1352L56.9103 59.0288C56.9092 59.3417 57.1612 59.596 57.4741 59.5971H57.4763C57.7881 59.5971 58.0413 59.345 58.0424 59.0332L58.0766 51.1397C58.0777 50.8268 57.8257 50.5725 57.5128 50.5714H57.5106Z" fill="black"/>
<path d="M54.1795 52.494C53.8678 52.494 53.6146 52.746 53.6135 53.0578L53.5792 60.9514C53.5781 61.2642 53.8302 61.5185 54.1431 61.5196H54.1453C54.457 61.5196 54.7102 61.2675 54.7113 60.9558L54.7456 53.0622C54.7467 52.7493 54.4946 52.4951 54.1817 52.494H54.1795Z" fill="black"/>
<path d="M50.8486 54.4176C50.5368 54.4176 50.2837 54.6697 50.2826 54.9814L50.2483 62.8739C50.2472 63.1879 50.4981 63.4775 50.8143 63.4421C51.1261 63.4421 51.3793 63.1901 51.3804 62.8783L51.4146 54.9859C51.4157 54.673 51.1637 54.4187 50.8508 54.4176H50.8486Z" fill="black"/>
<path d="M31.9637 48.6478H31.9559C31.6431 48.6522 31.3932 48.9087 31.3976 49.2215L31.5049 57.1151C31.5093 57.4247 31.7614 57.6734 32.0709 57.6734H32.0787C32.3915 57.669 32.6414 57.4125 32.637 57.0996L32.5297 49.2061C32.5253 48.8965 32.2732 48.6478 31.9637 48.6478Z" fill="black"/>
<path d="M35.402 59.5971H35.4097C35.7226 59.5926 35.9724 59.3361 35.968 59.0233L35.8608 51.1297C35.8563 50.8179 35.5667 50.6057 35.287 50.5714C34.9741 50.5758 34.7243 50.8323 34.7287 51.1452L34.8359 59.0388C34.8404 59.3483 35.0924 59.5971 35.402 59.5971Z" fill="black"/>
<path d="M38.6179 52.4939C38.3051 52.4984 38.0552 52.7549 38.0596 53.0677L38.1669 60.9613C38.1713 61.2708 38.4234 61.5196 38.7329 61.5196H38.7406C39.0535 61.5152 39.3034 61.2587 39.2989 60.9458L39.1917 53.0522C39.1873 52.7405 38.9186 52.4763 38.6179 52.4939Z" fill="black"/>
<path d="M41.9567 54.4176H41.949C41.6361 54.422 41.3863 54.6785 41.3907 54.9914L41.4979 62.8838C41.5023 63.1934 41.7544 63.4421 42.064 63.4421H42.0717C42.3846 63.4377 42.6344 63.1812 42.63 62.8684L42.5228 54.9759C42.5183 54.6663 42.2663 54.4176 41.9567 54.4176Z" fill="black"/>
<path d="M36.617 31.3118L45.7465 36.5863C46.2832 36.9021 46.9487 36.9035 47.4833 36.5885C47.5998 36.5209 56.6313 31.2736 56.5123 31.3427C57.649 30.679 57.6529 29.0279 56.5101 28.3611L47.3695 23.0854C46.8333 22.7714 46.1678 22.7714 45.6338 23.0843L36.6048 28.3312C35.467 28.9918 35.4672 30.6497 36.617 31.3118ZM46.317 35.609L39.4596 31.6466L46.2042 27.7276C46.3855 27.6215 46.6122 27.6215 46.8001 27.7298L53.6567 31.6921L46.9118 35.6112C46.7294 35.7184 46.5038 35.7184 46.317 35.609ZM37.1742 29.3096L46.2042 24.0616C46.3811 23.9581 46.6064 23.9522 46.8001 24.0638L55.9419 29.3395C56.205 29.4931 56.2337 29.7496 56.2337 29.8524C56.2337 29.9553 56.205 30.2117 55.9419 30.3654L54.7851 31.0374L47.3695 26.7514C46.8333 26.4374 46.1678 26.4374 45.6338 26.7503L38.3295 30.9936L37.183 30.3311C36.7886 30.1056 36.786 29.5366 37.1742 29.3096Z" fill="black"/>
<path d="M34.7763 42.8779L34.7918 37.6388C34.7929 37.4354 34.6845 37.2474 34.5087 37.1468L32.1197 35.7682C31.945 35.6665 31.7294 35.6676 31.5547 35.7671C31.3789 35.8677 31.2706 36.0545 31.2706 36.2569L31.2562 41.496C31.2562 41.6983 31.3635 41.8863 31.5392 41.9869L33.9272 43.3655C34.2958 43.5801 34.7738 43.3198 34.7763 42.8779ZM33.6475 41.8973L32.3894 41.171L32.4005 37.2364L33.6586 37.9627L33.6475 41.8973Z" fill="black"/>
<path d="M39.7059 42.4236C39.7103 41.339 38.9685 40.0599 38.0177 39.5116C36.8596 38.8425 35.7571 39.4684 35.7524 40.7918C35.7502 41.883 36.4921 43.1687 37.4417 43.7193C38.6044 44.386 39.7036 43.743 39.7059 42.4236ZM38.0078 42.7386C37.4074 42.3915 36.8823 41.4828 36.8845 40.7951C36.8867 40.3374 37.0626 40.2675 37.4517 40.4911C38.052 40.8382 38.576 41.7381 38.5738 42.4203C38.5718 42.8813 38.3915 42.9599 38.0078 42.7386Z" fill="black"/>
<path d="M44.0739 44.9453C44.0783 43.8608 43.3387 42.5839 42.3912 42.0366C41.242 41.3691 40.1318 41.9886 40.1271 43.3168C40.1249 44.4102 40.8667 45.696 41.8163 46.2432C42.9612 46.9086 44.0715 46.2783 44.0739 44.9453ZM42.3824 45.2637C41.7821 44.9165 41.2569 44.0089 41.2592 43.3201C41.2611 42.9107 41.397 42.7701 41.8252 43.0161C42.4332 43.3677 42.944 44.2488 42.9418 44.942C42.9397 45.3941 42.7746 45.4914 42.3824 45.2637Z" fill="black"/>
</svg>
