<svg width="93" height="92" viewBox="0 0 93 92" fill="none" xmlns="http://www.w3.org/2000/svg">
<path d="M19.5402 71.0667C23.5001 72.0601 29.162 71.5532 31.4047 68.9961C32.3099 67.9595 32.4947 66.811 32.6591 65.7981C33.3842 61.3145 39.1779 60.8488 42.1317 61.3941C44.1773 61.7705 46.1738 62.7539 48.058 63.9334C49.0134 64.5028 56.1197 68.7389 56.9542 69.2096C58.6867 70.2259 60.8192 71.3498 63.5111 71.988C68.3507 73.1452 74.5825 72.3389 79.0151 70.0437C84.9354 67.0006 88.1622 61.2474 88.1622 55.3L88.1452 46.9665C88.1451 46.9373 88.1313 46.9127 88.1284 46.8843C88.1135 39.4985 83.1005 32.115 74.1042 26.9204C72.6114 26.0561 71.0026 25.2571 69.4154 24.5641C68.9797 24.3751 68.4661 24.5726 68.2728 25.0133C68.0813 25.4523 68.2813 25.9634 68.7204 26.1558C70.3263 26.8555 71.8185 27.6077 73.2363 28.424C81.8896 33.4198 86.6323 40.5027 86.3847 47.461C86.2199 52.1821 83.788 56.8715 79.0166 59.6898C74.4119 62.3902 68.3112 63.0228 63.8942 61.9662C62.1919 61.5623 60.3496 60.8668 57.8018 59.3718C56.9526 58.8923 48.6085 53.9159 48.3326 53.7557C46.4985 52.779 45.0849 51.8355 42.4232 51.3502C38.2548 50.5772 33.3948 52.013 31.8013 54.477C31.7196 54.6047 31.6634 54.7348 31.5974 54.8641C31.2776 55.4881 31.1146 56.1197 31.009 56.7174C30.7306 58.2752 30.6909 59.255 29.3562 60.1325C27.3599 61.4367 23.3165 61.8818 19.942 61.05C14.5814 59.721 10.4622 55.3318 8.35361 51.1514C6.91306 48.3138 6.25677 45.2043 6.73833 42.0946C7.39537 37.7417 10.196 33.9352 13.5342 31.1032C21.9107 24.0736 33.0648 21.2872 43.8675 21.2263C49.0971 21.2 54.5013 21.8349 59.6648 23.1139C60.1343 23.2266 60.6005 22.9435 60.7158 22.4799C60.8311 22.0146 60.548 21.5441 60.0818 21.4289C54.7793 20.1151 49.331 19.4379 43.8574 19.4905C32.5864 19.5546 21.1403 22.4412 12.4154 29.7767C7.81008 33.6824 5.59782 38.0245 5.02282 41.8319C4.73427 43.6923 4.87943 45.9866 4.84144 50.6459C4.80546 59.5514 10.5153 68.8398 19.5402 71.0667ZM19.5182 62.735C22.8431 63.5595 27.3265 63.317 30.0165 61.7291C31.9887 60.57 32.3168 59.4129 32.6821 57.221C32.7923 56.5676 32.9199 55.9502 33.2609 55.4169C34.3526 53.737 38.3786 52.3767 42.1147 53.0607C45.7912 53.738 48.1024 55.7917 56.9423 60.8872C59.33 62.2664 61.2792 63.1674 63.8944 63.7282C68.971 64.8151 75.3198 63.8692 79.8519 61.2091C82.7158 59.5393 84.919 57.3116 86.4247 54.2507C85.9971 59.7216 84.9796 65.0212 78.2201 68.5011C74.0974 70.637 68.3508 71.3591 63.9129 70.2996C61.443 69.714 59.4529 68.663 57.8204 67.706C57.0215 67.2531 52.6235 64.6326 48.9615 62.451C45.8909 60.5254 43.9499 59.9638 42.447 59.6871C38.1263 58.8919 31.8365 60.0359 30.9453 65.521C30.8012 66.4177 30.6758 67.1916 30.0977 67.8527C28.5382 69.6334 23.7951 70.3446 19.9606 69.3826C12.0131 67.4195 7.07331 59.4398 6.60441 51.5698C9.07469 56.6989 13.8303 61.3374 19.5182 62.735Z" fill="white"/>
<path d="M62.9568 23.1139C62.811 23.5707 63.0636 24.0589 63.5196 24.2047C64.2723 24.4437 65.0097 24.6971 65.7369 24.9616C66.1913 25.1261 66.6853 24.8904 66.8489 24.4437C67.0134 23.9928 66.7811 23.4953 66.3302 23.3308C65.5826 23.0579 64.8215 22.7977 64.0485 22.5502C63.5874 22.4027 63.1026 22.6579 62.9568 23.1139Z" fill="white"/>
<path d="M65.2674 48.8456C62.2243 50.6112 62.1797 53.8022 65.2979 55.6034C68.0805 57.2107 72.4387 57.2035 75.218 55.589C78.2782 53.8106 78.2645 50.634 75.1875 48.8575C72.3922 47.2429 68.0322 47.2378 65.2674 48.8456ZM74.3467 54.0879C72.1311 55.3737 68.3848 55.3805 66.1658 54.0998C64.2653 53.0031 64.212 51.4677 66.1387 50.3459C68.3395 49.0669 72.086 49.0703 74.3196 50.3611C76.201 51.4479 76.2685 52.9717 74.3467 54.0879Z" fill="white"/>
<path d="M20.1029 34.0816C17.0426 35.86 17.0564 39.0357 20.1334 40.8122C22.9132 42.4154 27.2613 42.4214 30.0315 40.8105C33.0959 39.0297 33.0734 35.8547 29.9993 34.0799C27.2158 32.4729 22.8694 32.4729 20.1029 34.0816ZM29.1602 39.3103C26.9565 40.5901 23.222 40.5901 21.0014 39.3086C19.0966 38.2084 19.0759 36.6862 20.9742 35.5818C23.1779 34.3019 26.9141 34.3019 29.1314 35.5835C31.0398 36.6838 31.0573 38.2066 29.1602 39.3103Z" fill="white"/>
<path d="M72.7599 34.9817C69.9747 33.373 65.6283 33.3747 62.8635 34.9834C59.8208 36.7502 59.7772 39.9415 62.872 41.7277C65.6321 43.3204 70.094 43.3088 72.8141 41.726C75.9165 39.9255 75.7856 36.7291 72.7599 34.9817ZM71.9428 40.2257C69.7222 41.5141 65.9674 41.5107 63.7399 40.224C61.8276 39.1201 61.842 37.5855 63.7348 36.4837C65.9385 35.2039 69.6684 35.2021 71.892 36.4854C73.7645 37.5657 73.8794 39.0982 71.9428 40.2257Z" fill="white"/>
<path d="M42.2792 27.3722C39.2179 29.1501 39.2103 32.3277 42.2996 34.1096C45.0958 35.7244 49.4592 35.7275 52.2298 34.1147C55.2836 32.343 55.2725 29.1586 52.1756 27.3705C49.3921 25.7634 45.0457 25.7634 42.2792 27.3722ZM51.3585 32.6144C49.148 33.8985 45.3983 33.8935 43.1675 32.606C41.2609 31.5065 41.2409 29.9821 43.1505 28.8724C45.3549 27.5921 49.092 27.5935 51.3077 28.8741C53.2162 29.9766 53.2737 31.4999 51.3585 32.6144Z" fill="white"/>
</svg>
