<svg width="93" height="92" viewBox="0 0 93 92" fill="none" xmlns="http://www.w3.org/2000/svg">
<rect x="0.5" width="92" height="92" rx="46" fill="white"/>
<path d="M62.5766 63.6517V62.3103C63.3927 61.106 63.831 59.8056 63.8347 58.4584C63.9249 26.2823 63.9405 29.6289 63.9147 29.3422C63.8911 26.5999 62.0392 23.9132 58.6663 21.9517C58.1034 21.6333 57.5809 21.3762 57.07 21.1499C57.0176 20.4953 56.5895 19.8826 55.851 19.4565C54.4674 18.6573 52.3435 18.6351 50.9129 19.3747C45.0015 18.4642 38.6662 19.4488 34.3405 21.9672C30.7786 24.0472 28.9568 26.8546 29.1632 29.694L29.1284 40.9223C29.1273 41.2346 29.3799 41.4889 29.6928 41.49H29.6945C30.0062 41.49 30.2594 41.2379 30.2605 40.9256L30.2848 33.0033C31.0128 34.1464 32.3003 35.4506 34.1691 36.5697C34.2489 36.6176 34.317 36.6703 34.3985 36.7174C39.4513 39.634 47.5217 40.61 54.4646 38.5319C57.5723 37.6063 60.8471 35.9221 62.6684 33.2379C62.7028 33.1871 62.7481 33.1391 62.7811 33.0879L62.7026 58.4551C62.6994 59.6101 62.3043 60.7355 61.5651 61.7862C61.5601 61.7928 61.551 61.7936 61.5462 61.8005C59.4157 64.861 54.9066 66.5555 51.1845 67.1935C46.2333 68.0408 40.7184 67.5018 36.448 65.5917C34.4006 64.6748 32.9979 63.6268 32.0532 62.616C30.9563 61.4368 30.2018 60.0013 30.2063 58.3716L30.224 52.6703C30.2251 52.358 29.9725 52.1038 29.6596 52.1026H29.658C29.3462 52.1026 29.093 52.3547 29.0919 52.667L29.0742 58.3683C29.0702 59.738 29.513 61.0598 30.3462 62.283V63.5699C30.3335 66.1956 32.0581 68.6421 35.2028 70.4591C41.4565 74.0679 51.5839 74.0588 57.7786 70.458C60.8591 68.6675 62.5633 66.2514 62.5766 63.6517ZM38.7857 37.3769C35.6963 36.4096 32.2926 34.5967 30.8723 31.6865C30.8512 31.6415 30.8255 31.5973 30.8056 31.5522L30.8041 31.5487C31.5101 29.9933 32.9242 28.5689 34.9132 27.4148C35.2706 27.2043 35.6423 27.0066 36.0367 26.8171L36.0049 27.8808C36.0033 28.3991 36.3334 29.0803 36.9966 29.5474L36.8899 34.5914C36.8899 35.1486 37.2409 35.6699 37.8534 36.022C38.9462 36.6505 40.5868 36.6549 41.6714 36.0303C42.485 35.5505 42.6066 34.9369 42.6066 34.6268L42.7249 29.4656C43.1925 29.1008 43.5806 28.5087 43.5806 27.9289L43.6481 25.6371C43.6481 25.4686 43.616 25.3049 43.567 25.1445C43.5563 25.1096 43.5389 25.0767 43.5259 25.0423C43.4951 24.9603 43.4708 24.8767 43.4275 24.798C45.6254 24.5598 47.8948 24.5847 50.0697 24.867C50.1795 24.975 50.3082 25.0743 50.4458 25.1707L50.3388 30.2328C50.3388 30.7972 50.6898 31.3229 51.3039 31.6761C52.3802 32.2886 54.0507 32.2886 55.1092 31.6717C55.7195 31.3118 56.0556 30.8088 56.0556 30.2682L56.142 26.4375C58.5757 27.4573 61.1965 29.1709 62.2939 31.5803C60.9695 34.5654 57.3348 36.4824 54.2244 37.4337C49.4115 38.8974 43.5917 38.8757 38.7857 37.3769ZM41.8405 24.7935C42.1995 25.0008 42.5928 25.3735 42.4853 25.7748C42.4069 26.0676 42.1289 26.2998 41.8659 26.453C40.7908 27.0754 38.9644 27.0732 37.8771 26.4452C37.5942 26.2818 37.2758 26.0224 37.2228 25.6953C37.2183 25.6677 37.2056 25.6395 37.2056 25.6122C37.2054 25.3344 37.4451 25.0355 37.8639 24.7924C38.9424 24.166 40.7646 24.1715 41.8405 24.7935ZM39.6063 28.0369C40.5261 28.0791 41.6034 27.9141 42.4347 27.4314C42.443 27.4264 42.4519 27.4214 42.4602 27.4164L42.4452 27.9095C42.4439 28.2478 42.0908 28.5553 41.7968 28.726C40.7228 29.3489 38.8959 29.3467 37.8086 28.7182C37.5095 28.5459 37.1386 28.2389 37.1386 27.8951L37.1551 27.3303C37.7295 27.6988 38.548 27.9883 39.6063 28.0369ZM38.118 30.0652C38.6525 30.2327 39.2322 30.3262 39.8168 30.3262C40.4268 30.3262 41.0302 30.2262 41.5792 30.0438L41.4746 34.6141C41.4746 34.7528 41.3369 34.9137 41.1014 35.0519C40.379 35.4664 39.1491 35.4615 38.4177 35.0403C38.1734 34.9004 38.022 34.7279 38.022 34.6036L38.118 30.0652ZM55.8792 23.075C55.886 23.0709 55.8927 23.067 55.8995 23.0633L55.8859 23.5537C55.8859 23.8888 55.5266 24.2038 55.2408 24.3696C54.1667 24.9936 52.3409 24.9903 51.2525 24.3618C50.8252 24.1153 50.5804 23.8107 50.5809 23.5432L50.5981 22.9733C52.0347 23.9047 54.4004 23.9336 55.8792 23.075ZM51.5669 25.7102C52.1003 25.8766 52.6783 25.9698 53.2613 25.9698C53.8715 25.9698 54.475 25.8697 55.0239 25.6872L54.9235 30.2555C54.9235 30.3881 54.7781 30.5529 54.5371 30.6949C53.8218 31.1112 52.598 31.1106 51.8661 30.6933C51.5748 30.5258 51.4709 30.3456 51.4709 30.245L51.5669 25.7102ZM62.7771 29.5688C62.7696 29.7663 62.7487 29.9184 62.7333 30.0518C61.8355 28.6899 60.4565 27.4534 58.6685 26.4248C57.8532 25.9588 57.0132 25.5709 56.169 25.2416L56.1722 25.1009C56.7357 24.6669 57.0197 24.0505 57.0213 23.5725L57.0573 22.3829C57.3938 22.5464 57.7409 22.7285 58.103 22.9335C61.2265 24.7499 62.8724 27.1283 62.7771 29.5688ZM55.285 20.4371C55.7117 20.6833 55.9568 20.9894 55.958 21.2766L55.9579 21.2796C55.9574 21.6093 55.6151 21.9191 55.3104 22.0966C54.2145 22.7325 52.379 22.7002 51.3211 22.0888C51.0253 21.918 50.6592 21.6135 50.6521 21.2669C50.652 21.2636 50.65 21.2602 50.65 21.2568C50.6495 20.9782 50.8894 20.6793 51.3084 20.436C52.3869 19.8096 54.2091 19.8151 55.285 20.4371ZM34.9104 22.9451C38.007 21.143 42.202 20.1663 46.5059 20.1663C47.5926 20.1663 48.686 20.2288 49.7706 20.3559C49.6299 20.5889 49.5124 20.9412 49.5124 21.2387L49.4444 23.531C49.4444 23.5787 49.4663 23.6239 49.4703 23.6713C47.1226 23.4307 44.6967 23.4656 42.3715 23.7963C40.9321 22.9844 38.7114 22.9885 37.2951 23.814C36.5452 24.2491 36.1286 24.8508 36.0891 25.513C36.0868 25.5291 36.081 25.5439 36.0798 25.5602C35.4583 25.8344 34.8786 26.121 34.3416 26.4375C32.5971 27.4497 31.2468 28.6714 30.3617 30.0212C30.3463 29.911 30.3199 29.6607 30.3145 29.5224C30.2141 27.1105 31.8299 24.7442 34.9104 22.9451ZM35.7689 69.4785C33.0243 67.8926 31.5037 65.8263 31.4782 63.65C31.5341 63.7059 31.6063 63.7553 31.6638 63.8106C32.8288 64.9286 34.0525 65.6784 35.2577 66.278C39.7924 68.5377 45.5868 69.1476 50.7874 68.3778C54.5639 67.82 58.5349 66.4593 61.2549 63.8479C61.3136 63.791 61.3872 63.7403 61.444 63.6827C61.418 65.8495 59.9156 67.9069 57.2092 69.4796C51.3211 72.9023 41.7023 72.9023 35.7689 69.4785Z" fill="black"/>
<path d="M29.6685 49.2913H29.6702C29.9819 49.2913 30.2351 49.0392 30.2362 48.7269L30.2484 44.7569C30.2495 44.4446 29.9969 44.1903 29.684 44.1892H29.6823C29.3706 44.1892 29.1174 44.4413 29.1163 44.7536L29.1041 48.7236C29.103 49.0359 29.3556 49.2902 29.6685 49.2913Z" fill="black"/>
<path d="M48.3405 29.3351C47.3295 28.752 45.7519 28.7531 44.7475 29.3362C43.5365 30.0404 43.5346 31.3606 44.7591 32.0686C45.7702 32.6522 47.3459 32.6513 48.3522 32.0675C49.5595 31.3656 49.5558 30.0372 48.3405 29.3351ZM47.7833 31.0885C47.1184 31.4749 45.9935 31.4744 45.3252 31.088C45.0648 30.9376 44.9725 30.784 44.972 30.6983C44.972 30.5872 45.1074 30.4368 45.3163 30.3152C45.9788 29.9299 47.1048 29.9294 47.7745 30.3158C48.031 30.4639 48.1222 30.6143 48.1228 30.706C48.1228 30.8204 47.9923 30.9669 47.7833 31.0885Z" fill="black"/>
</svg>
