<svg width="93" height="92" viewBox="0 0 93 92" fill="none" xmlns="http://www.w3.org/2000/svg">
<rect x="0.5" width="92" height="92" rx="46" fill="white"/>
<path d="M62.7869 33.6395C63.0593 33.7976 63.4049 33.7032 63.5608 33.435C63.7178 33.1647 63.626 32.8181 63.3551 32.6611L61.7388 31.7214C61.4702 31.5655 61.1219 31.6551 60.965 31.9259C60.808 32.1962 60.8997 32.5428 61.1706 32.6998L62.7869 33.6395Z" fill="black"/>
<path d="M73.6688 48.2686L73.6566 43.857C73.6553 43.6216 73.4881 43.4352 73.3747 43.3694L73.3734 43.3687C73.373 43.3685 73.3729 43.368 73.3725 43.3678C72.8159 43.0444 68.8301 40.7284 69.0844 40.8762L69.0741 36.3022C69.0741 36.0999 68.9658 35.9137 68.79 35.813C68.7838 35.8095 68.7761 35.811 68.7698 35.8077L65.103 33.6766C64.8333 33.5207 64.4861 33.6103 64.3292 33.8811C64.1722 34.1514 64.2639 34.498 64.5348 34.655L67.3737 36.3049C51.4781 45.4826 55.1638 43.3545 54.5971 43.6817L43.2393 37.0816L56.0161 29.7044L59.3089 31.6181C59.5764 31.7728 59.9247 31.685 60.0828 31.4135C60.2397 31.1432 60.148 30.7966 59.8771 30.6397L52.1627 26.1561C51.9891 26.0544 51.7713 26.0544 51.5955 26.155L46.857 28.891C39.6447 26.8365 31.0358 27.6503 25.3521 30.9459C21.4562 33.2095 19.3181 36.3393 19.3314 39.756C19.3314 43.187 21.5015 46.3323 25.4439 48.6125L31.472 52.0927L30.0618 52.9069C29.8848 53.0094 29.7787 53.1979 29.7787 53.3967C29.7787 53.5107 29.7918 58.1385 29.792 58.0245C29.7931 58.2257 29.8992 58.4114 30.0739 58.512L40.6837 64.6777C40.6884 64.6805 40.6902 64.686 40.6949 64.6887C40.8628 64.7854 41.0779 64.7928 41.2609 64.6876C41.2617 64.6871 41.2634 64.687 41.2642 64.6865C41.3775 64.6204 43.1597 63.5859 43.0465 63.652L46.8139 65.8339C46.8185 65.8367 46.8203 65.8423 46.8251 65.8451C46.9997 65.9457 47.2154 65.9452 47.39 65.8446C47.5345 65.7611 52.9844 62.6129 52.8448 62.6954C53.0206 62.5937 53.1289 62.4063 53.1278 62.2034L53.1201 59.5966C53.1188 59.3612 52.9515 59.1748 52.8381 59.109C52.7215 59.0413 51.0844 58.09 51.2211 58.1693C51.2204 57.8728 51.2239 59.4557 51.2119 53.9843C51.2119 53.7825 51.1047 53.5957 50.93 53.4945L40.3068 47.3206C40.1344 47.2189 39.9166 47.2189 39.7397 47.3195L36.1872 49.3705L28.1271 44.7226C25.675 43.3059 24.324 41.542 24.324 39.756C24.324 37.9744 25.6506 36.2221 28.0607 34.8225C31.3847 32.8919 36.1236 32.016 40.7575 32.4127L37.6889 34.1846C37.5119 34.287 37.4059 34.4755 37.4059 34.6743C37.4059 34.6748 37.4062 34.675 37.4062 34.6754C37.4062 34.7917 37.4242 41.4393 37.4247 41.3231C37.4258 41.5243 37.5319 41.71 37.7066 41.8106C43.2539 45.0343 55.0023 51.8611 54.3362 51.4775C54.5086 51.5768 54.7248 51.579 54.9011 51.4764L57.0052 50.2592C57.6786 50.6509 54.5659 48.8403 63.5906 54.0899C63.7665 54.1911 63.9844 54.1939 64.1611 54.091C64.5239 53.8797 73.5008 48.6852 73.3858 48.7606C73.5615 48.6589 73.6699 48.4715 73.6688 48.2686ZM57.5494 49.2684L57.5417 46.1745L63.291 49.5129L63.2998 51.1379L63.3038 52.6123L57.5494 49.2684ZM63.8612 48.5338L58.1057 45.1894L66.1975 40.5122C66.5057 40.691 72.2704 44.036 71.9615 43.8568L63.8612 48.5338ZM38.5556 40.9953L38.5413 35.6605L41.545 37.4061L41.5594 42.7409L38.5556 40.9953ZM51.8774 27.2993L54.8878 29.0488L42.1112 36.426C41.9224 36.3163 38.9139 34.568 39.1007 34.6765C42.5344 32.6957 48.4455 29.2808 51.8774 27.2993ZM50.0809 54.9649L50.0876 57.5077L48.8339 56.7797C48.6631 56.6806 48.4424 56.6778 48.2645 56.7797C48.1497 56.8459 42.4503 60.1334 42.8098 59.926C42.8096 59.9261 42.8099 59.926 42.8098 59.926C42.8096 59.9262 42.8089 59.9264 42.8087 59.9266C42.6786 60.0023 42.5466 60.1748 42.5351 60.3876C42.5227 60.6177 42.537 62.7551 42.5371 62.6389L41.5444 63.2145L41.5349 59.8975L48.4061 55.9305L50.0809 54.9649ZM43.6632 61.405C43.8625 61.5208 46.6686 63.1514 46.5342 63.0733L46.538 64.3657L43.6699 62.7043L43.6632 61.405ZM30.9141 54.3825C31.499 54.7224 40.9262 60.2014 40.3994 59.8952L40.4081 63.209L30.923 57.6967L30.9141 54.3825ZM47.674 64.3728L47.6679 63.0728C47.7847 63.0053 52.275 60.4135 51.9913 60.5772L51.9946 61.879L47.674 64.3728ZM47.1 62.0932C46.9844 62.026 44.0373 60.311 44.2243 60.4198C44.3411 60.3524 48.8307 57.7605 48.547 57.9242L51.4242 59.5966C51.3074 59.664 46.8164 62.257 47.1 62.0932ZM40.0216 48.4638L49.5171 53.9821C49.4038 54.0474 40.3906 59.2448 40.9639 58.9142L31.4735 53.3989C37.6164 49.8533 40.1374 48.3969 40.0216 48.4638ZM27.4925 33.8441C24.7187 35.4543 23.1919 37.5543 23.1919 39.756C23.1919 41.9637 24.743 44.0753 27.561 45.7032L35.0548 50.0243L32.6045 51.4389L26.0099 47.6324C22.4335 45.5634 20.4634 42.7664 20.4634 39.7538C20.4524 36.7566 22.3904 33.9767 25.9204 31.9249C31.0755 28.935 38.769 28.0832 45.4698 29.6919L42.4129 31.457C37.0815 30.675 31.3823 31.5835 27.4925 33.8441ZM42.6939 43.4002L42.6788 38.0646C49.0188 41.749 52.1406 43.5632 54.0299 44.6612L54.0348 46.0355L54.0454 49.9972L42.6939 43.4002ZM55.1808 50.0071C55.1804 49.8931 55.1618 44.313 55.163 44.6668L67.9443 37.2829L67.9509 40.2175L66.4861 39.3663C66.3125 39.2646 66.0947 39.2646 65.9189 39.3652L56.6887 44.6944C56.5141 44.7956 56.4057 44.9819 56.4057 45.1842C56.4057 45.1863 56.4073 45.188 56.4073 45.1901C56.4073 45.3928 56.4166 49.4081 56.4168 49.2918L55.1808 50.0071ZM64.4392 52.6184L64.4327 51.3062L64.4275 49.5142L72.5267 44.8379L72.5356 47.9442L64.4392 52.6184Z" fill="black"/>
<path d="M67.9918 43.0505L66.4706 43.9288C66.1998 44.0853 66.1069 44.4313 66.2639 44.7022C66.418 44.9718 66.7642 45.0658 67.0366 44.9094L68.5579 44.0311C68.8287 43.8747 68.9216 43.5286 68.7646 43.2578C68.6098 42.9852 68.2627 42.894 67.9918 43.0505Z" fill="black"/>
<path d="M64.5934 45.0123L63.0722 45.8906C62.8013 46.0471 62.7084 46.3931 62.8654 46.6639C63.0195 46.9336 63.3658 47.0276 63.6382 46.8712L65.1594 45.9929C65.4303 45.8364 65.5232 45.4904 65.3662 45.2196C65.2103 44.9481 64.8632 44.8558 64.5934 45.0123Z" fill="black"/>
</svg>
