<svg width="93" height="92" viewBox="0 0 93 92" fill="none" xmlns="http://www.w3.org/2000/svg">
<rect x="0.5" width="92" height="92" rx="46" fill="white"/>
<path d="M63.726 53.0538L66.2422 51.6C66.513 51.4435 66.6059 51.097 66.4495 50.8267C66.2925 50.5552 65.9459 50.4624 65.6761 50.6194L63.1599 52.0732C62.8891 52.2296 62.7962 52.5762 62.9526 52.8465C63.0577 53.0283 63.2478 53.1295 63.4435 53.1295C63.5397 53.1295 63.637 53.1052 63.726 53.0538Z" fill="black"/>
<path d="M73.6488 36.2733C73.6526 33.631 71.9241 31.1707 68.7827 29.3449C62.4944 25.6905 52.2327 25.6905 45.9068 29.3438L24.2714 41.8353C21.0891 43.6721 19.3346 46.1486 19.3307 48.8074C19.3307 48.8119 19.3318 48.8162 19.3318 48.8207C19.3318 48.8236 19.3301 48.826 19.3301 48.8289C19.3301 48.8295 19.3301 48.8306 19.3301 48.8312L19.3523 55.7574C19.365 58.3897 21.094 60.8407 24.2222 62.6593C30.5117 66.3106 40.7773 66.3058 47.1025 62.6598L61.1406 54.5479C61.4115 54.3915 61.5044 54.0449 61.3479 53.7746C61.1904 53.5026 60.8433 53.4098 60.5746 53.5673L46.537 61.6792C40.5206 65.1467 30.7653 65.149 24.791 61.6803C22.0243 60.0718 20.4948 57.9662 20.4843 55.753L20.4738 52.4103C20.486 52.4287 20.5028 52.4458 20.5151 52.4641C21.3919 53.7588 22.8704 54.9672 24.2001 55.7425C30.4823 59.3891 40.7417 59.3907 47.0693 55.743L68.3717 43.4402C68.5852 43.2835 70.9953 42.1704 72.5272 39.8425L72.5377 43.1708C72.5482 45.4167 70.996 47.5509 68.1675 49.1805C67.8966 49.3364 67.8032 49.6824 67.9596 49.9533C68.115 50.2241 68.4621 50.3181 68.7324 50.1611C71.9291 48.3198 73.6825 45.8357 73.6698 43.1663L73.6477 36.2861C73.6477 36.2818 73.6488 36.2776 73.6488 36.2733ZM24.8374 42.8159L46.4729 30.3244C49.4799 28.5881 53.4217 27.7197 57.3591 27.7197C61.2954 27.7197 65.2267 28.5876 68.2134 30.3233C70.9905 31.9372 72.5185 34.0489 72.5165 36.2689C72.5165 36.2705 72.5156 36.2718 72.5156 36.2733C72.5156 36.5216 72.4892 36.7677 72.4515 37.0128C71.9519 40.2173 68.5979 41.8282 67.8308 42.4451L46.506 54.7569C40.4935 58.2288 30.7399 58.2288 24.7661 54.758C22.6203 53.511 20.6688 51.6195 20.4914 49.1473C20.4836 49.0344 20.4626 48.9226 20.4628 48.809C20.4661 46.5709 22.0194 44.4427 24.8374 42.8159Z" fill="black"/>
<path d="M45.0534 51.3501C45.1418 51.4015 45.2396 51.427 45.338 51.427C45.4359 51.427 45.5337 51.4015 45.6211 51.3512L61.1407 42.3914C61.3153 42.2902 61.4231 42.1039 61.4237 41.9016C61.4242 41.6999 61.3164 41.513 61.1423 41.4119L47.9256 33.7311C47.7492 33.6288 47.5331 33.6288 47.3579 33.73L31.8383 42.6899C31.6636 42.791 31.5558 42.9773 31.5552 43.1796C31.5547 43.3814 31.6625 43.5682 31.8366 43.6694L45.0534 51.3501ZM47.6398 34.8742L59.7283 41.8994L45.3391 50.207L33.2506 43.1818L47.6398 34.8742Z" fill="black"/>
<path d="M27.5438 53.8238C29.8616 55.1624 33.4875 55.1684 35.7966 53.8265C38.2912 52.3766 38.2798 49.8415 35.7695 48.3917C33.4523 47.054 29.8306 47.0579 27.5233 48.4C25.0319 49.8474 25.0353 52.3757 27.5438 53.8238ZM28.0921 49.3784C30.0548 48.2371 33.2478 48.2428 35.2035 49.3723C36.9427 50.377 36.9769 51.8304 35.2278 52.8481C33.3053 53.9636 30.0467 53.962 28.1098 52.8432C26.3665 51.8374 26.3521 50.3896 28.0921 49.3784Z" fill="black"/>
<path d="M29.7875 50.6829L30.5301 51.1117L29.7963 51.5381C29.526 51.6951 29.4337 52.0411 29.5913 52.3114C29.7493 52.5842 30.0973 52.6725 30.3646 52.5165L31.6598 51.7639L32.9654 52.5176C33.2332 52.6723 33.5805 52.5834 33.7387 52.3103C33.8951 52.0394 33.8023 51.6934 33.5314 51.537L32.7885 51.1081L33.522 50.6818C33.7923 50.5248 33.8846 50.1788 33.7271 49.9085C33.5695 49.6376 33.2213 49.5459 32.9538 49.7034L31.6588 50.4559L30.3535 49.7023C30.0821 49.5453 29.7372 49.6393 29.5802 49.9096C29.4238 50.1805 29.5166 50.5265 29.7875 50.6829Z" fill="black"/>
<path d="M58.9948 33.1905C60.1733 33.8716 62.0264 33.8776 63.2097 33.1894C64.5841 32.3919 64.5824 30.8965 63.197 30.0972C62.0118 29.4129 60.1595 29.414 58.9821 30.0983C58.3149 30.4858 57.9479 31.0336 57.949 31.6411C57.9495 32.2419 58.3309 32.8069 58.9948 33.1905ZM59.5509 31.0767C60.3811 30.5936 61.7924 30.5939 62.6309 31.0778C62.9283 31.2492 63.1058 31.4625 63.1063 31.6483C63.1063 31.8312 62.9328 32.0413 62.6409 32.211C61.8095 32.6952 60.3989 32.6941 59.5609 32.2099C59.2607 32.0363 59.0811 31.8235 59.0811 31.6394C59.0805 31.4581 59.2563 31.2481 59.5509 31.0767Z" fill="black"/>
<path d="M63.218 34.9986C62.0328 34.3143 60.1805 34.3148 59.0031 34.9997C57.6287 35.7972 57.6303 37.2926 59.0158 38.0919C60.2031 38.7769 62.055 38.7753 63.2307 38.0908C63.8979 37.7033 64.2649 37.1555 64.2638 36.548C64.2632 35.9472 63.8818 35.3822 63.218 34.9986ZM62.6619 37.1124C61.8316 37.5961 60.4209 37.5961 59.5818 37.1113C59.2844 36.9399 59.107 36.7266 59.1064 36.5408C59.1064 36.3579 59.28 36.1478 59.5719 35.9781C60.4021 35.495 61.8134 35.4953 62.6519 35.9792C62.9521 36.1528 63.1317 36.3656 63.1317 36.5497C63.1323 36.731 62.9565 36.941 62.6619 37.1124Z" fill="black"/>
<path d="M45.9156 40.9464L49.4733 40.0051C49.7756 39.9249 49.9558 39.6154 49.8757 39.313C49.795 39.0106 49.4849 38.8326 49.1836 38.9106L45.626 39.8519C45.3236 39.9321 45.1434 40.2416 45.2236 40.544C45.3034 40.8442 45.6103 41.0262 45.9156 40.9464Z" fill="black"/>
<path d="M46.2711 38.6314L47.8963 38.2014C48.1986 38.1212 48.3788 37.8116 48.2987 37.5093C48.2185 37.2069 47.9068 37.0278 47.6066 37.1069L45.9815 37.5369C45.6791 37.6171 45.4989 37.9266 45.579 38.229C45.6588 38.5292 45.9658 38.7112 46.2711 38.6314Z" fill="black"/>
</svg>
