<svg width="93" height="92" viewBox="0 0 93 92" fill="none" xmlns="http://www.w3.org/2000/svg">
<rect x="0.5" width="92" height="92" rx="46" fill="white"/>
<path d="M19.8827 40.0139C19.9048 40.0172 19.928 40.0183 19.9512 40.0183C20.2276 40.0183 20.4686 39.816 20.5095 39.5352L20.8146 37.4855C20.86 37.1848 20.6587 36.9029 20.3602 36.8465C20.0606 36.789 19.771 36.9814 19.7036 37.2766C19.5654 37.8813 19.4648 38.5557 19.3863 39.4003C19.3586 39.7055 19.5775 39.9774 19.8827 40.0139Z" fill="black"/>
<path d="M73.1045 51.883L72.104 51.3126C72.7815 48.6528 72.9867 45.5752 72.0454 42.9967L73.2836 40.8519C73.745 40.0418 73.7133 39.2275 73.2666 38.7541C73.0806 38.4389 62.8077 32.6371 62.289 32.3426C62.2708 32.3321 62.2507 32.3317 62.2319 32.3235C61.4654 31.9472 60.631 32.5666 60.1918 33.3199L59.9195 33.7962C56.8306 29.2005 53.173 25.8904 48.9761 23.423C44.775 21.1268 40.7995 20.8328 37.7791 22.5928L24.1489 30.5052C24.1152 30.5247 24.0931 30.5545 24.0651 30.5794C22.3867 31.5849 21.0874 33.1865 20.2817 35.2988C20.1701 35.5918 20.316 35.919 20.6079 36.0295C20.6753 36.055 20.7427 36.0671 20.8102 36.0671C21.0379 36.0671 21.2524 35.9289 21.3386 35.7034C22.0926 33.7283 23.3149 32.2592 24.898 31.3986C27.7052 29.8787 31.0515 30.5172 33.9061 31.8885C33.8887 32.0247 33.865 32.1514 33.8534 32.2972C33.829 32.693 33.8069 33.1109 33.8069 33.5399C33.7828 41.1643 38.0703 50.0687 43.9557 55.7572C43.9881 57.1344 44.2452 58.4037 44.584 59.3237L43.3544 61.4581C42.7705 62.4827 43.0089 63.4145 43.5611 63.7499L48.3183 66.5195C45.6714 70.0161 40.8939 70.3507 35.6852 67.3551C27.5462 62.6588 20.8632 51.4718 20.4708 41.8856C20.4564 41.5738 20.19 41.335 19.8815 41.3428C19.5698 41.3561 19.3265 41.6192 19.3387 41.932C19.7455 51.8676 26.6773 63.4647 35.1203 68.3357C37.6885 69.8138 40.1726 70.5424 42.4025 70.5424C45.2172 70.5424 47.6197 69.3665 49.2893 67.0849C49.4044 67.1505 54.4564 70.0298 54.3413 69.9642C54.7276 70.1857 55.1873 70.1149 55.5695 69.8934C55.9078 69.6988 56.2163 69.3782 56.4385 68.9913L57.4788 67.1904C58.8486 67.0654 60.3024 66.5635 61.8081 65.6946C63.2796 64.8455 64.698 63.7013 66.0302 62.2906L66.8394 62.7516C67.1932 62.9539 67.6409 62.9252 68.0677 62.6787C68.4049 62.483 68.7122 62.1624 68.9344 61.7765L73.3212 54.1792C73.8464 53.2561 73.7568 52.2722 73.1045 51.883ZM56.9647 43.7086C56.8501 43.6421 51.2714 40.4023 51.6117 40.5999C53.5926 38.5447 56.5272 36.4429 59.379 36.2645L64.1919 39.0557C61.4659 39.7547 58.8943 41.6752 56.9647 43.7086ZM48.6698 41.0996C48.8748 40.7545 49.1511 40.5742 49.2496 40.5559C49.3628 40.6191 54.6192 43.5524 54.5057 43.6659C54.3391 43.8296 54.1859 44.0159 54.0627 44.2305L49.6737 51.8222C49.5441 52.0534 49.4537 52.2858 49.3976 52.511C49.2828 52.4447 44.0101 49.4006 44.1249 49.4669C44.1236 49.4645 44.123 49.4572 44.1218 49.4542C44.0531 49.2416 44.185 48.8834 44.2985 48.6814C44.4579 48.405 48.8145 40.8487 48.6698 41.0996ZM50.5638 61.616C50.5783 61.6869 50.5838 61.7653 50.5996 61.8351C50.4849 61.7685 45.3388 58.7801 45.6661 58.9702C44.8217 56.7168 45.0096 53.9494 45.5568 51.6077C45.6715 51.6741 51.01 54.7619 50.8953 54.6955C50.3351 56.946 50.1006 59.3517 50.5638 61.616ZM49.4205 65.8505L44.1651 62.7972C44.0766 62.6435 44.213 62.2465 44.3394 62.0253L45.4244 60.1425C45.5391 60.2091 51.161 63.4733 50.8021 63.2649L49.7168 65.1462C49.7157 65.1484 49.7146 65.1506 49.7135 65.1529C49.6954 65.1851 49.4602 65.7429 49.4336 65.8543L49.4316 65.8593L49.4283 65.8574C49.4253 65.8556 49.4236 65.8522 49.4205 65.8505ZM61.1724 33.8859C61.5517 33.2367 61.8418 33.3967 61.7285 33.3287L67.0318 36.4121C67.0194 36.4235 67.0122 36.4408 66.9999 36.4526C66.8409 36.609 66.6964 36.7884 66.5761 36.992C65.3072 39.185 65.7446 38.4285 65.6499 38.5921C65.5324 38.524 59.961 35.2927 60.267 35.4701L61.1724 33.8859ZM38.3485 23.5712C41.0151 22.019 44.5959 22.3197 48.4167 24.407C52.7856 26.9759 56.453 30.4798 59.2996 34.8776L59.1526 35.1374C55.9937 35.403 52.754 37.7333 50.5998 40.0165C50.3054 39.8527 49.9189 39.6185 49.7398 39.5399C48.9752 39.1562 48.1211 39.7942 47.6903 40.5291L46.8714 41.9497C46.7747 41.808 46.6624 41.6673 46.5619 41.5257C45.014 39.3443 43.1707 37.3453 41.1586 35.5511C37.7017 32.4685 32.9996 29.282 28.3555 29.3731L38.3485 23.5712ZM34.9663 32.7864L35.3956 32.6877C37.2676 33.7854 38.8386 34.9932 40.4493 36.4329C42.4509 38.2228 44.2342 40.179 45.7286 42.3126C45.9016 42.5596 46.0744 42.8064 46.2352 43.0533L45.6734 44.028L43.3057 48.1242C43.1936 48.3304 43.1222 48.536 43.0667 48.7379C42.9006 49.3272 42.9946 50.1028 43.507 50.4171C43.5114 50.4204 43.5147 50.4226 43.518 50.4237L44.5274 51.0119C44.3346 51.7806 44.1048 53.023 44.0165 54.0395C44.0123 54.0898 44.0017 54.1425 43.9978 54.1925C38.5309 48.5189 34.918 40.329 34.939 33.5421C34.939 33.2791 34.954 33.0341 34.9663 32.7864ZM72.3395 53.6165L67.9538 61.2105C67.8311 61.425 67.6653 61.603 67.5005 61.6991C67.4265 61.7423 67.3756 61.7522 67.3955 61.7655L66.2015 61.0845C65.9716 60.9562 65.6819 60.9993 65.5017 61.1961C64.1585 62.6731 62.7257 63.8572 61.2421 64.7151C59.8004 65.5464 58.3721 66.0196 57.1118 66.0815C56.9194 66.0904 56.7458 66.1965 56.6496 66.3634L55.4579 68.4253C55.3352 68.6397 55.1693 68.8177 55.0035 68.9139C54.9305 68.9559 54.8819 68.967 54.8985 68.9791L50.5249 66.4961C50.4418 66.363 50.5719 65.9409 50.6973 65.7143L52.0661 63.3431C52.1382 63.2181 52.1517 63.0086 52.1039 62.8718C52.0855 62.7212 50.6414 59.9851 52.0981 54.5651C52.1695 54.3044 52.0289 54.0413 51.8361 53.9283L50.4804 53.1403C50.4748 53.1239 50.4686 53.11 50.4658 53.0809C50.4545 52.9484 50.4837 52.698 50.6587 52.3849L55.0444 44.8009C55.1654 44.5941 55.2398 44.476 55.6093 44.2482L55.6153 44.2501L56.7967 44.9225C56.9941 45.0355 57.3114 45.0156 57.4965 44.8098C59.5716 42.5137 62.7976 40.0863 65.8853 39.9354C66.0748 39.9264 66.2752 39.779 66.3486 39.6524L67.5392 37.5817C67.6714 37.3508 67.9232 37.0867 68.1234 37.043C68.7248 37.3843 72.7277 39.6557 72.4718 39.5106C72.514 39.5852 72.5231 39.8989 72.3019 40.2892L70.931 42.6639C70.8437 42.8143 70.8304 42.9956 70.8957 43.157C71.9024 45.6791 71.6242 48.8221 70.9001 51.4375C70.8304 51.6873 70.9399 51.9527 71.1654 52.0809L72.5098 52.8382C72.5518 52.9057 72.5606 53.2263 72.3395 53.6165Z" fill="black"/>
<path d="M66.9886 43.5229C61.7452 40.5041 53.5431 49.6044 53.564 57.2593C53.5777 62.337 57.3146 64.5547 61.8058 61.9611C68.4659 58.1155 72.1868 46.5137 66.9886 43.5229ZM61.2398 60.9816C57.5402 63.1165 54.7076 61.4929 54.6961 57.2571C54.675 50.1146 62.28 42.1158 66.4237 44.5046C70.5077 46.8539 67.5446 57.3394 61.2398 60.9816Z" fill="black"/>
</svg>
