<svg width="93" height="92" viewBox="0 0 93 92" fill="none" xmlns="http://www.w3.org/2000/svg">
<rect x="0.5" width="92" height="92" rx="46" fill="white"/>
<path d="M42.4833 37.1926C43.292 36.726 43.8995 35.673 43.8967 34.7432C43.8933 33.5891 42.9156 33.0275 41.9101 33.6067C41.1152 34.0655 40.4944 35.1412 40.4972 36.0555C40.4995 37.2115 41.4801 37.7724 42.4833 37.1926ZM42.4761 34.5874C42.6027 34.5138 42.6834 34.5044 42.7066 34.5044C42.7094 34.5044 42.7111 34.5044 42.7122 34.5044C42.7254 34.5172 42.7641 34.5885 42.7647 34.7466C42.7663 35.2662 42.3705 35.9505 41.9173 36.2119C41.7708 36.2971 41.6917 36.2993 41.6812 36.2943C41.6674 36.2816 41.6298 36.2103 41.6293 36.0527C41.6276 35.5331 42.0234 34.8483 42.4761 34.5874Z" fill="black"/>
<path d="M32.3769 68.6613C32.3769 69.2765 32.624 69.7674 33.053 70.0073L38.3502 73.0061C38.3536 73.008 38.3576 73.0071 38.361 73.009C38.8367 73.2779 39.4003 73.1836 39.8775 72.9082L59.1051 61.8075C60.0177 61.2801 60.7302 60.0452 60.7275 58.9955L60.6263 23.3434C60.6247 22.7621 60.3976 22.2962 60.01 22.038C59.9881 22.0209 59.9725 21.9983 59.9475 21.9842L54.6558 18.9981C54.2191 18.7455 53.662 18.7809 53.1313 19.0921L50.5405 20.5884C50.2696 20.7449 50.1767 21.0909 50.3332 21.3618C50.489 21.6321 50.8356 21.7249 51.1065 21.569L53.7018 20.0699C53.888 19.9605 54.0329 19.945 54.0942 19.9809L58.1304 22.2588C56.2224 23.36 65.0403 18.2708 39.4789 33.0236C39.3657 32.9595 35.0544 30.5232 35.3295 30.6786L44.2864 25.507C44.5573 25.3505 44.6501 25.0045 44.4937 24.7337C44.3367 24.4617 43.9901 24.3699 43.7204 24.5264L33.917 30.187C33.9122 30.1896 33.9063 30.1884 33.9015 30.1912C32.9855 30.7207 32.2697 31.9573 32.2725 33.007C32.2725 33.0077 32.273 33.0082 32.273 33.0089C32.273 33.0096 32.2725 33.0102 32.2725 33.0109L32.3769 68.6613ZM33.608 69.0206C33.577 69.0034 33.509 68.889 33.509 68.6596L33.4073 33.9804C33.5206 34.0444 37.846 36.4855 37.5708 36.3302L37.673 71.3223L33.608 69.0206ZM58.5391 60.8269L39.3115 71.9276C38.9954 72.1123 38.8062 72.089 38.8062 71.649C38.7477 51.0067 38.7632 56.4877 38.7051 35.9997C38.7034 35.3518 39.2004 34.4956 39.768 34.1678C41.7346 33.0329 32.6453 38.2785 58.994 23.072C59.0993 23.0115 59.1868 22.9794 59.2552 22.9665C59.2548 22.9666 59.2556 22.9664 59.2552 22.9665C59.3165 22.9551 59.3582 22.9624 59.3873 22.9749C59.4391 23.0082 59.4937 23.1354 59.4942 23.3468L59.5954 58.9988C59.5971 59.6467 59.1034 60.5007 58.5391 60.8269ZM34.217 31.3539L38.4983 33.7699C38.4841 33.7857 38.4744 33.8061 38.4605 33.8222C38.1332 34.1999 37.9163 34.5661 37.7461 35.062C37.7399 35.0802 37.7282 35.097 37.7222 35.1153L33.4372 32.6936C33.5359 32.2104 33.8433 31.6814 34.217 31.3539Z" fill="black"/>
<path d="M35.4288 42.445C35.7146 42.4644 35.996 42.1907 35.9949 41.8773L35.9877 39.3943C35.9866 39.0819 35.7334 38.8299 35.4216 38.8299H35.42C35.1071 38.831 34.8545 39.0847 34.8556 39.3976L34.8628 41.8806C34.8639 42.1929 35.1171 42.445 35.4288 42.445Z" fill="black"/>
<path d="M35.42 44.5947C35.1071 44.5958 34.8545 44.8495 34.8556 45.1624L34.8628 47.6455C34.8639 47.9578 35.1171 48.2098 35.4288 48.2098H35.4305C35.7433 48.2087 35.996 47.955 35.9949 47.6421L35.9877 45.1591C35.9866 44.8462 35.6798 44.5864 35.42 44.5947Z" fill="black"/>
<path d="M46.6014 24.1704L48.9811 22.7962C49.2519 22.6398 49.3448 22.2937 49.1884 22.0229C49.0314 21.7509 48.6837 21.6597 48.415 21.8156L46.0354 23.1898C45.7645 23.3462 45.6716 23.6922 45.8281 23.9631C45.9849 24.2347 46.332 24.326 46.6014 24.1704Z" fill="black"/>
<path d="M57.5933 29.4377C57.4175 29.3371 57.2019 29.3371 57.0272 29.4377L40.7597 38.8299C40.6845 38.8735 40.6199 38.9338 40.5718 39.0062C40.4656 39.1654 40.4656 39.1654 40.4717 63.8876C40.4717 64.2012 40.7261 64.4536 41.0378 64.4536C41.1356 64.4536 41.2334 64.4282 41.3208 64.3779L57.5922 54.9835C57.6673 54.9398 57.732 54.8796 57.7801 54.8072C57.8851 54.6496 57.8851 54.6496 57.8763 29.9281C57.8763 29.7257 57.7685 29.5389 57.5933 29.4377ZM56.7448 54.1654L41.6038 62.9075C41.6016 55.0095 41.6005 41.8425 41.6066 39.648L56.7448 30.9081C56.7475 38.8061 56.7503 51.9681 56.7448 54.1654Z" fill="black"/>
<path d="M47.8092 32.6742L51.1064 30.7705C51.3773 30.614 51.4702 30.268 51.3137 29.9971C51.1567 29.7252 50.8101 29.634 50.5404 29.7898L47.2431 31.6936C46.9723 31.85 46.8794 32.1961 47.0358 32.4669C47.1927 32.7385 47.5398 32.8298 47.8092 32.6742Z" fill="black"/>
<path d="M49.7699 60.4642L47.9562 61.5112C47.4554 61.8003 47.0784 62.4537 47.0801 63.0313L47.0845 64.584C47.0868 65.393 47.8231 65.823 48.5306 65.4132L50.3442 64.3662C50.845 64.0777 51.222 63.4243 51.2209 62.8461L51.2165 61.2934C51.2142 60.487 50.481 60.0532 49.7699 60.4642ZM49.7782 63.3856L48.2155 64.2861L48.2122 63.028C48.2116 62.8544 48.3708 62.5791 48.5223 62.4918L50.0855 61.5897L50.0888 62.8489C50.0888 63.0225 49.9296 63.2983 49.7782 63.3856Z" fill="black"/>
<path d="M54.8106 38.9067L51.5371 37.003C51.2668 36.8465 50.9202 36.9366 50.7632 37.2075C50.6057 37.4778 50.6974 37.8244 50.9677 37.9814L54.2413 39.8851C54.5123 40.0424 54.8584 39.9504 55.0151 39.6806C55.1727 39.4103 55.0809 39.0637 54.8106 38.9067Z" fill="black"/>
<path d="M54.9753 36.4469L53.4801 35.5774C53.2098 35.4204 52.8638 35.5116 52.7062 35.7819C52.5487 36.0522 52.6404 36.3988 52.9107 36.5558L54.406 37.4253C54.677 37.5826 55.0231 37.4906 55.1799 37.2208C55.3369 36.9504 55.2456 36.6039 54.9753 36.4469Z" fill="black"/>
</svg>
