<svg width="93" height="92" viewBox="0 0 93 92" fill="none" xmlns="http://www.w3.org/2000/svg">
<rect x="0.5" width="92" height="92" rx="46" fill="white"/>
<path d="M31.6696 61.7237C31.9825 61.7226 32.2356 61.4688 32.2345 61.156L32.229 59.2163C32.2279 58.9045 31.9747 58.6519 31.663 58.6519C31.3501 58.653 31.0958 58.9067 31.0969 59.2196L31.1025 61.1593C31.1036 61.471 31.3578 61.7237 31.6696 61.7237Z" fill="black"/>
<path d="M61.9681 57.5635L61.8764 25.1363C61.8743 24.1691 61.5246 23.4313 60.9073 23.0248C60.8844 23.0053 60.8681 22.9805 60.8416 22.9644L54.1774 18.9187C53.4942 18.5345 52.6263 18.6025 51.7308 19.1111C24.2813 34.9608 37.8723 27.1132 33.9438 29.3816C33.9426 29.3823 33.9422 29.3836 33.941 29.3843C32.308 30.3323 31.0336 32.5362 31.0318 34.4132C31.0305 35.7064 31.0918 56.7468 31.0926 56.8609C31.0937 57.1727 31.3468 57.4253 31.6586 57.4253C31.9715 57.4242 32.2257 57.1705 32.2246 56.8576L32.1638 35.4318C32.2771 35.5005 38.0395 38.9994 37.6761 38.7787L37.7656 70.8831C37.7656 70.9599 37.7678 71.0356 37.7722 71.1097L32.7398 68.0545C32.4325 67.8777 32.2578 67.4459 32.2501 66.8456L32.2412 63.367C32.2401 63.0553 31.9869 62.8027 31.6752 62.8027C31.3623 62.8032 31.108 63.0575 31.1091 63.3704L31.118 66.8545C31.1313 67.8771 31.5071 68.6515 32.1638 69.0291C41.2473 74.5444 38.1585 72.6889 38.8215 73.0707C38.8231 73.0717 38.8242 73.0733 38.8258 73.0743C39.5932 73.5156 40.4954 73.3318 41.2691 72.8852L59.0517 62.6186C60.6935 61.6706 61.9748 59.4501 61.9681 57.5635ZM52.2913 20.095C52.8286 19.791 53.3007 19.7252 53.6058 19.896L58.6902 22.9827C58.3727 23.1314 58.355 23.1667 49.5935 28.2147L40.881 33.2405C40.7677 33.1717 34.9749 29.6589 35.3422 29.8816L52.2913 20.095ZM34.2371 30.5398C34.3505 30.6085 40.2286 34.1694 39.854 33.9425C38.9103 34.7604 38.051 36.1359 37.7734 37.5106C37.4061 37.2878 31.8805 33.9356 32.1771 34.1155C32.2986 32.8182 33.1693 31.3072 34.2371 30.5398ZM40.703 71.9046C39.5682 72.5614 38.9021 72.0465 38.8999 70.882L38.8081 38.4553C38.8048 36.9905 39.8816 35.1293 41.1596 34.3913L50.5281 28.9825C59.7519 23.6698 59.0982 24.0055 59.4883 23.8981C60.3519 23.6644 60.7426 24.2376 60.7443 25.1396L60.8361 57.5668C60.8405 59.035 59.7648 60.8995 58.4857 61.638L40.703 71.9046Z" fill="black"/>
<path d="M59.3933 29.0692C59.3922 28.8675 59.2849 28.6812 59.1092 28.58C58.9345 28.4794 58.7189 28.48 58.5442 28.5806L40.462 39.0202C40.2862 39.1219 40.1779 39.3093 40.179 39.5122L40.2519 64.8916C40.253 65.0933 40.3603 65.2796 40.5361 65.3808C40.7107 65.4814 40.9263 65.4808 41.101 65.3802L59.1821 54.9412C59.3579 54.8394 59.4663 54.6521 59.4652 54.4492L59.3933 29.0692ZM41.3807 63.911L41.3121 39.8367L58.2645 30.0499L58.332 54.1247L41.3807 63.911Z" fill="black"/>
<path d="M47.6724 33.5976L52.466 30.8293C52.7369 30.6728 52.8297 30.3268 52.6728 30.0559C52.5169 29.7834 52.1697 29.6922 51.9 29.8487L47.1064 32.6169C46.8355 32.7734 46.7426 33.1194 46.8996 33.3903C47.0537 33.6599 47.4 33.7539 47.6724 33.5976Z" fill="black"/>
<path d="M51.8148 60.7613C51.3693 60.5059 50.7933 60.5418 50.2339 60.8613C49.2566 61.4263 48.4905 62.7457 48.4905 63.8717C48.5067 65.2214 49.6224 65.8616 50.7977 65.1829C51.7706 64.6274 52.5323 63.3129 52.5323 62.1896V62.1825C52.5235 61.5252 52.2692 61.0205 51.8148 60.7613ZM50.2339 64.2012C49.9973 64.3388 49.837 64.3421 49.7696 64.3045C49.7044 64.267 49.6259 64.1277 49.6226 63.8651C49.6226 63.1498 50.1731 62.204 50.7977 61.8431C50.9525 61.7546 51.0741 61.7237 51.157 61.7237C51.1991 61.7237 51.2311 61.7314 51.2521 61.7436C51.3185 61.7811 51.3958 61.9215 51.4003 62.1935C51.3981 62.9099 50.8552 63.8463 50.2339 64.2012Z" fill="black"/>
<path d="M34.4799 43.6574C34.7928 43.6569 35.047 43.4026 35.0459 43.0897L35.0404 40.9312C35.0393 40.6194 34.7861 40.3668 34.4744 40.3668C34.1615 40.3673 33.9072 40.6216 33.9083 40.9345L33.9139 43.0931C33.915 43.4048 34.1681 43.6574 34.4799 43.6574Z" fill="black"/>
<path d="M33.9139 48.1946C33.915 48.5063 34.1681 48.759 34.4799 48.759C34.7928 48.7584 35.047 48.5041 35.0459 48.1913L35.0404 46.0333C35.0393 45.7215 34.7861 45.4689 34.4744 45.4689C34.1615 45.4694 33.9072 45.7237 33.9083 46.0366L33.9139 48.1946Z" fill="black"/>
<path d="M50.548 24.5448C51.4812 25.083 52.892 25.089 53.8292 24.5437C54.9512 23.8921 54.9511 22.6455 53.8193 21.9927C52.8972 21.4609 51.4556 21.4598 50.538 21.9938C49.4151 22.6459 49.4173 23.8926 50.548 24.5448ZM51.1063 22.9722C51.6797 22.6399 52.682 22.6437 53.2532 22.9733C53.4489 23.086 53.5362 23.2043 53.5373 23.2718C53.5373 23.3353 53.45 23.4547 53.261 23.5653C52.6817 23.9014 51.6977 23.9014 51.114 23.5642C50.9194 23.452 50.831 23.3304 50.8299 23.2646C50.8299 23.1994 50.9161 23.0833 51.1063 22.9722Z" fill="black"/>
<path d="M54.1685 44.019C54.1685 44.019 54.1674 44.019 54.1663 44.019C53.8546 44.0201 53.6014 44.2743 53.6025 44.5866L53.6158 49.089L46.0395 53.463L46.0284 49.6102C46.0273 49.2985 45.7742 49.0459 45.4624 49.0459C45.1495 49.047 44.8953 49.3007 44.8964 49.6135L44.9096 54.4437C44.9107 54.6454 45.018 54.8317 45.1938 54.9329C45.3684 55.0334 45.584 55.0329 45.7587 54.9323L54.4659 49.9054C54.6417 49.8037 54.7501 49.6163 54.749 49.4134L54.7346 44.5833C54.7335 44.271 54.4803 44.019 54.1685 44.019Z" fill="black"/>
<path d="M46.8256 44.9459C47.0945 45.102 47.4411 45.0137 47.5994 44.742L48.7945 42.693L48.8122 49.2747C48.8133 49.5865 49.0665 49.8391 49.3783 49.8391C49.6911 49.838 49.9454 49.5842 49.9443 49.2714L49.9251 42.1278L51.397 43.8105C51.6026 44.0477 51.9608 44.0698 52.1952 43.8642C52.4307 43.658 52.455 43.3003 52.2483 43.0654L49.7774 40.2407C49.5046 39.9264 49.0256 40.0494 48.8631 40.3281L46.6221 44.1715C46.4641 44.4418 46.5558 44.7884 46.8256 44.9459Z" fill="black"/>
</svg>
