<svg width="93" height="92" viewBox="0 0 93 92" fill="none" xmlns="http://www.w3.org/2000/svg">
<rect x="0.5" width="92" height="92" rx="46" fill="white"/>
<path d="M47.7122 23.6297L49.993 22.313C50.2638 22.1565 50.3567 21.8105 50.1997 21.5396C50.0438 21.2677 49.6967 21.177 49.4269 21.3324L47.1462 22.6491C46.8753 22.8055 46.7825 23.1515 46.9395 23.4224C47.0434 23.6042 47.2347 23.7054 47.4292 23.7054C47.5254 23.7054 47.6227 23.6811 47.7122 23.6297Z" fill="black"/>
<path d="M69.2139 58.4521L69.1277 27.9076C69.1274 27.8571 69.1023 27.8137 69.0893 27.7663C69.0765 27.7193 69.0756 27.6682 69.0514 27.6264C69.0222 27.5757 68.9714 27.5418 68.9274 27.502C68.8985 27.4758 68.8803 27.4401 68.8458 27.42L68.8445 27.4193C68.8441 27.4191 68.844 27.4186 68.8436 27.4184C68.8432 27.4182 68.8427 27.4182 68.8424 27.418L54.1973 18.9068C54.0238 18.8051 53.806 18.8051 53.6302 18.9057L51.3185 20.2401C51.0476 20.3965 50.9548 20.7426 51.1118 21.0134C51.2665 21.2843 51.6137 21.3755 51.8845 21.2207L53.9121 20.0499L67.4325 27.9074L44.0547 41.4044L30.5343 33.5475L45.531 24.8889C45.8018 24.7325 45.8947 24.3864 45.7377 24.1156C45.5818 23.8431 45.2347 23.7518 44.9649 23.9083L29.1214 33.0555C29.0339 33.1062 28.9633 33.1782 28.9143 33.2628C28.8911 33.3032 28.8908 33.3525 28.8781 33.3977C28.864 33.4471 28.8384 33.4925 28.8384 33.5453C28.8384 33.5457 28.8387 33.546 28.8387 33.5464C28.8387 33.5468 28.8384 33.5471 28.8384 33.5475L28.8416 34.6748L24.0708 37.4347C24.0703 37.4349 24.0696 37.4348 24.0691 37.4351C24.0052 37.4721 23.9622 37.5301 23.9183 37.5864C23.9019 37.6073 23.8753 37.6198 23.862 37.6428C23.8476 37.6679 23.85 37.6995 23.8395 37.7265C23.8145 37.7906 23.7861 37.854 23.7861 37.9249C23.7861 37.9253 23.7863 37.9256 23.7863 37.926C23.7863 37.9264 23.7861 37.9267 23.7861 37.9271L23.8425 58.7008C23.8425 58.902 23.9508 59.0877 24.1244 59.1889L28.9197 61.9717L28.9257 64.0925C28.9268 64.2937 29.033 64.4795 29.2077 64.5801L43.8561 73.0928C43.8559 73.0926 43.8563 73.0929 43.8561 73.0928C43.8567 73.0931 43.8577 73.0941 43.8583 73.0944C43.9456 73.1447 44.0429 73.1696 44.1402 73.1696C44.2375 73.1696 44.3359 73.1442 44.4232 73.0939L68.9309 58.944C69.1067 58.8423 69.215 58.6549 69.2139 58.4521ZM28.8539 39.8833L25.481 37.9259L28.8395 35.9836L28.8539 39.8833ZM24.9734 58.3725L24.9204 38.9099L26.612 39.8916L28.8594 41.1958L28.9125 60.6582L24.9734 58.3725ZM30.0567 63.7647L29.9738 34.531L36.8586 38.5316L43.4888 42.3845L43.5105 50.073L43.5709 71.6185L30.0567 63.7647ZM44.704 71.6246L44.6211 42.3848L67.9978 28.8885L68.0807 58.1276L44.704 71.6246Z" fill="black"/>
<path d="M66.3163 32.7852C66.3152 32.5835 66.2079 32.3972 66.0321 32.2966C65.8575 32.196 65.6419 32.196 65.4672 32.2966L62.3806 34.0791C62.3778 34.0806 62.3745 34.0799 62.3717 34.0815L46.5945 43.1956C46.4187 43.2973 46.3104 43.4847 46.3115 43.6875L46.3557 59.0817C46.3557 59.0842 46.3575 59.0861 46.3576 59.0886L46.3679 62.5271C46.369 62.7288 46.4762 62.9151 46.652 63.0157C46.7393 63.066 46.8366 63.0909 46.9339 63.0909C47.0312 63.0909 47.1296 63.0655 47.2169 63.0152L66.0896 52.1162C66.2654 52.0145 66.3738 51.8271 66.3726 51.6242L66.3163 32.7852ZM62.1329 49.6398L47.4864 58.0999L47.4447 44.012L62.092 35.5525L62.1329 49.6398ZM47.4966 61.5465L47.4903 59.4054L62.9831 50.4562C63.1588 50.3545 63.2672 50.1671 63.2661 49.9643L63.2217 34.9001L65.1875 33.7647L65.2395 51.2998L47.4966 61.5465Z" fill="black"/>
<path d="M65.3711 54.7982C64.9587 54.5611 64.4358 54.5943 63.9305 54.885C63.0804 55.3764 62.4159 56.5273 62.4193 57.5052C62.4204 58.085 62.6558 58.5521 63.0638 58.787C63.2451 58.891 63.4496 58.9429 63.6641 58.9429C63.935 58.9429 64.2224 58.8611 64.5043 58.6986C65.3556 58.2072 66.0189 57.0563 66.0167 56.0785C66.0156 55.5003 65.7801 55.0337 65.3711 54.7982ZM63.9383 57.718C63.7669 57.8164 63.653 57.818 63.6287 57.8059C63.6044 57.792 63.5513 57.6964 63.5513 57.5018C63.5502 56.922 63.9913 56.1575 64.4966 55.8656C64.6679 55.7667 64.7818 55.765 64.8061 55.7794C64.8316 55.7943 64.8846 55.8872 64.8846 56.0818C64.8857 56.6616 64.4435 57.4261 63.9383 57.718Z" fill="black"/>
<path d="M60.4425 57.6428C60.0335 57.4062 59.5106 57.4383 59.0042 57.7296C58.1529 58.2204 57.4885 59.3713 57.4918 60.3497C57.4929 60.929 57.7284 61.3961 58.1364 61.631C58.3188 61.7355 58.5222 61.7875 58.7378 61.7875C59.0086 61.7875 59.2961 61.7057 59.578 61.5431C60.4282 61.0523 61.0915 59.9014 61.0893 58.923C61.0882 58.3448 60.8516 57.8777 60.4425 57.6428ZM59.012 60.5625C58.8218 60.672 58.719 60.6598 58.7013 60.6499C58.6847 60.6405 58.625 60.562 58.6239 60.3464C58.6228 59.7665 59.0639 59.0021 59.5703 58.7102C59.6963 58.6378 59.788 58.6168 59.8389 58.6168C59.8577 58.6168 59.8721 58.6201 59.8787 58.624C59.9041 58.6383 59.9572 58.7318 59.9572 58.9263C59.9583 59.5062 59.5172 60.2712 59.012 60.5625Z" fill="black"/>
<path d="M55.5174 60.4879C55.1072 60.2508 54.5821 60.2834 54.0768 60.5747C53.2267 61.0656 52.5622 62.2159 52.5656 63.1943C52.5667 63.7742 52.8022 64.2412 53.2101 64.4762C53.3914 64.5806 53.5959 64.6326 53.8104 64.6326C54.0813 64.6326 54.3687 64.5502 54.6506 64.3877C55.5019 63.8963 56.1652 62.7454 56.163 61.7676C56.1619 61.1894 55.9264 60.7229 55.5174 60.4879ZM54.0846 63.4071C53.9132 63.5055 53.8005 63.5094 53.775 63.495C53.7507 63.4812 53.6976 63.3856 53.6976 63.191C53.6965 62.6111 54.1376 61.8466 54.6429 61.5553C54.7689 61.4824 54.8618 61.4619 54.9126 61.4619C54.9325 61.4619 54.9458 61.4647 54.9524 61.4691C54.9779 61.4835 55.0309 61.5763 55.0309 61.7709C55.032 62.3508 54.5898 63.1153 54.0846 63.4071Z" fill="black"/>
<path d="M50.5899 63.3325C50.1787 63.0959 49.6546 63.128 49.1494 63.4193C48.2992 63.9101 47.6348 65.0605 47.6381 66.0389C47.6392 66.6187 47.8747 67.0858 48.2838 67.3207C48.4651 67.4252 48.6696 67.4772 48.8841 67.4772C49.1549 67.4772 49.4424 67.3948 49.7243 67.2323C50.5745 66.7414 51.2378 65.5906 51.2356 64.6122C51.2345 64.034 50.999 63.5674 50.5899 63.3325ZM49.1583 66.2517C48.967 66.3622 48.8664 66.3479 48.8476 66.3396C48.8321 66.3302 48.7713 66.2511 48.7702 66.0355C48.7691 65.4557 49.2102 64.6912 49.7154 64.3999C49.8415 64.3269 49.9343 64.3065 49.9852 64.3065C50.0051 64.3065 50.0184 64.3092 50.025 64.3137C50.0504 64.328 50.1035 64.4209 50.1035 64.6155C50.1046 65.1953 49.6635 65.9604 49.1583 66.2517Z" fill="black"/>
<path d="M56.5919 41.566L59.5227 43.2696C59.6123 43.3216 59.7095 43.3465 59.8068 43.3465C60.0014 43.3465 60.1916 43.2459 60.2966 43.0651C60.4536 42.7948 60.3618 42.4482 60.091 42.2912L57.1602 40.5876C56.8904 40.4312 56.5433 40.5207 56.3863 40.7921C56.2293 41.0624 56.3211 41.409 56.5919 41.566Z" fill="black"/>
<path d="M58.3321 40.2897L59.6698 41.068C59.7593 41.1199 59.8566 41.1448 59.9539 41.1448C60.1485 41.1448 60.3375 41.0442 60.4437 40.8634C60.6007 40.5931 60.5089 40.2465 60.238 40.0896L58.9003 39.3113C58.6317 39.1543 58.2846 39.2444 58.1265 39.5158C57.9695 39.7861 58.0612 40.1327 58.3321 40.2897Z" fill="black"/>
</svg>
