<svg width="93" height="92" viewBox="0 0 93 92" fill="none" xmlns="http://www.w3.org/2000/svg">
<rect x="0.5" width="92" height="92" rx="46" fill="white"/>
<path d="M67.9282 60.8869L71.7755 58.651C71.9501 58.5498 72.0574 58.3641 72.0574 58.1629L72.0662 53.4378C72.0751 50.2289 69.8142 46.3032 67.0227 44.6863C65.5745 43.8511 64.1273 43.7344 63.0572 44.3602L57.1577 47.7869C57.1001 47.5215 57.064 47.2621 57.064 47.0201L57.1204 28.8936C57.1204 25.4692 54.707 21.303 51.7475 19.6098C50.2273 18.7149 48.6962 18.5855 47.553 19.2572L22.7038 33.6911C22.6819 33.7038 22.6687 33.7237 22.6493 33.7387C21.5537 34.4115 20.9414 35.7155 20.936 37.4411L20.9338 38.4693C20.9338 38.6716 21.041 38.859 21.2168 38.9607L23.6015 40.3376C23.7761 40.4383 23.9906 40.4383 24.1675 40.3376C24.3422 40.237 24.4505 40.0508 24.4505 39.8484L24.4527 38.8208C24.4574 37.5354 25.2158 37.113 26.3299 37.7562C27.6488 38.5174 28.7599 40.4405 28.7555 41.9551L28.7035 60.0843C28.6947 63.4943 31.1026 67.6633 34.072 69.378C35.6209 70.2724 37.1101 70.3979 38.2587 69.7362C38.2755 69.7266 38.2866 69.7101 38.3031 69.7002C38.3077 69.6977 38.3128 69.6991 38.3173 69.6964L43.71 66.5726L43.6969 71.2259C43.6958 71.4288 43.8041 71.6162 43.9799 71.7179L46.359 73.0921C46.5337 73.1927 46.7493 73.1933 46.924 73.0927L46.9276 73.0891L46.9306 73.0882L60.8516 64.9984C61.1225 64.8414 61.2142 64.4949 61.0572 64.2251C60.8991 63.9526 60.5509 63.8641 60.2833 64.02L47.2136 71.6145C47.2139 71.4983 47.223 67.6309 47.2225 67.874C47.2309 64.3651 44.3826 59.6489 40.9585 58.5952C40.9283 58.5859 40.8973 58.5709 40.8673 58.5622L48.1799 54.3109L63.6265 45.3386C64.3429 44.9218 65.3744 45.0428 66.4567 45.6664C68.9342 47.1019 70.943 50.5866 70.9341 53.435L70.9264 57.8356L67.3599 59.9085C67.0891 60.0655 66.9973 60.4121 67.1543 60.6824C67.3113 60.9538 67.6584 61.0417 67.9282 60.8869ZM48.1235 20.235C48.9029 19.7784 50.0173 19.9045 51.1792 20.5888C53.8303 22.1056 55.9883 25.8313 55.9883 28.892L55.9319 47.0184C55.9319 47.4573 55.9994 47.9128 56.1331 48.3783L50.7237 51.5241C35.0594 60.6227 53.5187 49.9004 38.2035 58.7969C37.3006 59.3197 36.5275 60.5435 36.5275 62.3578C36.5272 62.4718 36.5227 64.7422 36.523 64.5982C36.5164 66.3802 35.0908 66.2927 33.8051 64.9888C32.9284 64.0954 32.218 62.6601 32.2258 61.4651C32.2305 59.611 32.2086 68.1807 32.2722 43.3348C32.2809 40.0422 29.9263 35.7834 26.9103 34.0443C26.4034 33.7444 25.6826 33.4759 25.4344 33.4142L48.1235 20.235ZM39.8474 67.5014C39.9439 67.1505 40.0316 66.5805 40.0362 66.0162C40.0363 66.0028 40.0398 65.9919 40.0398 65.9785C40.0402 65.8645 40.0492 63.5822 40.0486 63.7276C40.0486 62.6826 40.6443 62.2942 41.6008 62.8498C41.6058 62.8527 41.6104 62.8571 41.6154 62.86C42.3607 63.303 43.1588 64.2867 43.5101 65.3798L39.8474 67.5014ZM44.8301 70.9015L44.8422 66.5003C44.8479 64.7698 43.5538 62.4495 41.8005 61.7026C40.2778 61.048 38.9187 61.8929 38.9143 63.7276C38.9139 63.8416 38.9049 66.1261 38.9055 65.9807C38.9055 65.9907 38.9046 66.0014 38.9046 66.0114C38.8821 68.6412 37.1569 69.8532 34.6381 68.3974C31.9815 66.8635 29.8268 63.1356 29.8356 60.0876L29.8876 41.9584C29.8931 40.0237 28.5786 37.7474 26.896 36.7756C25.0182 35.6903 23.3275 36.6575 23.3206 38.8181V38.8678L22.067 38.1443L22.0681 37.4439C22.0725 36.0996 22.5036 35.1123 23.2819 34.664C25.9964 33.1101 31.1549 38.4565 31.139 43.3375C31.0693 68.1736 31.0934 59.6069 31.0882 61.4607C31.0841 62.9024 31.9036 64.8516 33.3085 66.0735C35.2481 67.7709 37.6222 67.2813 37.6595 64.5993C37.6596 64.4853 37.6619 62.2086 37.6617 62.354C37.6661 60.7087 38.4316 59.3582 40.0522 59.5476C42.8505 59.8787 46.0993 64.2707 46.0882 67.8717C46.0879 67.988 46.0788 71.8659 46.0793 71.6228L44.8301 70.9015Z" fill="black"/>
<path d="M65.9515 61.3806C65.7934 61.1097 65.4451 61.0201 65.1776 61.176L62.9278 62.4839C62.6569 62.6409 62.5652 62.9875 62.7222 63.2578C62.8272 63.4385 63.0173 63.5391 63.2119 63.5391C63.3092 63.5391 63.4065 63.5142 63.496 63.4623L65.7458 62.1544C66.0167 61.9974 66.1084 61.6509 65.9515 61.3806Z" fill="black"/>
<path d="M65.4164 47.91C65.2583 47.6375 64.9112 47.548 64.6425 47.705L45.2469 58.9716C44.976 59.1285 44.8843 59.4746 45.0413 59.7449C45.1961 60.0122 45.5412 60.1089 45.8151 59.95L65.2108 48.6834C65.4816 48.5264 65.5734 48.1804 65.4164 47.91Z" fill="black"/>
<path d="M68.8402 51.853C68.6821 51.581 68.3339 51.4915 68.0664 51.6479L48.6707 62.9145C48.3999 63.0715 48.3081 63.4175 48.4651 63.6878C48.6199 63.9551 48.965 64.0518 49.239 63.8929L68.6346 52.6263C68.9055 52.4693 68.9972 52.1233 68.8402 51.853Z" fill="black"/>
<path d="M53.7187 34.8094L34.0754 46.2899C33.8056 46.4474 33.7139 46.794 33.872 47.0643C34.0305 47.3363 34.3789 47.4237 34.6458 47.2672L54.2891 35.7867C54.5589 35.6292 54.6506 35.2826 54.4925 35.0123C54.3344 34.7414 53.9862 34.6513 53.7187 34.8094Z" fill="black"/>
<path d="M34.6458 52.5754L49.4225 43.9395C49.6923 43.782 49.784 43.4354 49.6259 43.1651C49.4679 42.8948 49.1207 42.8036 48.8521 42.9622L34.0754 51.5981C33.8056 51.7557 33.7139 52.1023 33.872 52.3726C33.977 52.5528 34.166 52.6528 34.3606 52.6528C34.4579 52.6528 34.5563 52.628 34.6458 52.5754Z" fill="black"/>
<path d="M53.7187 45.4259L34.0754 56.907C33.8056 57.0645 33.7139 57.4111 33.872 57.6814C34.0305 57.9534 34.3789 58.0408 34.6458 57.8843L54.2891 46.4032C54.5589 46.2457 54.6506 45.8991 54.4925 45.6288C54.3344 45.3579 53.9862 45.2678 53.7187 45.4259Z" fill="black"/>
<path d="M33.8123 41.6101C33.9069 41.9793 34.3265 42.1469 34.6458 41.9589L54.2891 30.4784C54.4627 30.3773 54.5699 30.1921 54.5699 29.9914C54.5761 27.3023 52.2716 23.5963 49.8283 22.8054C49.6547 22.7048 49.438 22.7004 49.2589 22.8054L29.8953 34.0571C29.5623 34.2494 29.5167 34.7125 29.8014 34.968C31.7372 36.701 33.1611 39.0596 33.8123 41.6101ZM49.5917 23.9209C49.7011 23.9607 49.8504 24.0248 50.0394 24.1354C51.701 25.09 53.272 27.698 53.4257 29.6719L34.7055 40.6129C34.0068 38.3725 32.7587 36.3002 31.1181 34.6557L49.5917 23.9209Z" fill="black"/>
</svg>
