<svg width="93" height="92" viewBox="0 0 93 92" fill="none" xmlns="http://www.w3.org/2000/svg">
<rect x="0.5" width="92" height="92" rx="46" fill="white"/>
<path d="M43.7204 24.1932L42.1627 23.2889C41.8902 23.1319 41.5458 23.2236 41.3888 23.4945C41.2318 23.7643 41.3241 24.1114 41.5944 24.2684L43.1521 25.1727C43.4213 25.3289 43.769 25.2382 43.926 24.9671C44.083 24.6973 43.9907 24.3502 43.7204 24.1932Z" fill="black"/>
<path d="M34.1458 22.6288C33.9889 22.358 33.6412 22.264 33.3725 22.4221L30.7347 23.9444C30.4638 24.1003 30.371 24.4463 30.5274 24.7172C30.685 24.9893 31.033 25.0802 31.3007 24.9239L33.9386 23.4016C34.2094 23.2457 34.3023 22.8997 34.1458 22.6288Z" fill="black"/>
<path d="M34.0756 26.5359L36.7135 25.0135C36.9843 24.8576 37.0772 24.5116 36.9207 24.2408C36.7638 23.9699 36.4172 23.8759 36.1474 24.034L33.5096 25.5563C33.2387 25.7122 33.1459 26.0583 33.3023 26.3291C33.4599 26.6012 33.8079 26.6922 34.0756 26.5359Z" fill="black"/>
<path d="M36.8505 28.1488L39.4884 26.6265C39.7592 26.4706 39.8521 26.1246 39.6956 25.8537C39.5381 25.5829 39.1915 25.4878 38.9223 25.647L36.2845 27.1693C36.0136 27.3252 35.9208 27.6712 36.0772 27.9421C36.2348 28.2142 36.5828 28.3051 36.8505 28.1488Z" fill="black"/>
<path d="M38.8522 29.554C39.0098 29.8261 39.3578 29.917 39.6255 29.7607L42.2633 28.2384C42.5342 28.0825 42.627 27.7365 42.4706 27.4656C42.3136 27.1948 41.9659 27.0997 41.6973 27.2589L39.0595 28.7812C38.7886 28.9371 38.6957 29.2831 38.8522 29.554Z" fill="black"/>
<path d="M44.4722 28.8718L41.8344 30.3942C41.5635 30.5501 41.4706 30.8961 41.6271 31.167C41.7847 31.439 42.1327 31.53 42.4004 31.3737L45.0382 29.8514C45.3091 29.6955 45.4019 29.3494 45.2455 29.0786C45.0885 28.8077 44.7419 28.7138 44.4722 28.8718Z" fill="black"/>
<path d="M47.2471 30.4837L44.6093 32.0072C44.3384 32.163 44.2455 32.5091 44.402 32.7799C44.5596 33.052 44.9076 33.143 45.1753 32.9867L47.8131 31.4632C48.084 31.3074 48.1768 30.9613 48.0204 30.6905C47.8634 30.4196 47.5168 30.3256 47.2471 30.4837Z" fill="black"/>
<path d="M50.022 32.0967L47.3842 33.619C47.1133 33.7749 47.0204 34.121 47.1769 34.3918C47.3345 34.6639 47.6825 34.7548 47.9502 34.5985L50.588 33.0762C50.8589 32.9203 50.9518 32.5743 50.7953 32.3034C50.6389 32.0326 50.2912 31.9375 50.022 32.0967Z" fill="black"/>
<path d="M52.7969 33.7086L50.1591 35.232C49.8882 35.3879 49.7953 35.7339 49.9518 36.0048C50.1094 36.2769 50.4574 36.3678 50.7251 36.2115L53.3629 34.6881C53.6338 34.5322 53.7267 34.1862 53.5702 33.9153C53.4132 33.6445 53.0655 33.5494 52.7969 33.7086Z" fill="black"/>
<path d="M55.5718 35.3216L52.934 36.8439C52.6631 36.9998 52.5702 37.3458 52.7267 37.6167C52.8843 37.8887 53.2323 37.9797 53.5 37.8234L56.1378 36.3011C56.4087 36.1452 56.5016 35.7991 56.3451 35.5283C56.1876 35.2574 55.8415 35.1635 55.5718 35.3216Z" fill="black"/>
<path d="M55.5016 39.2296C55.6592 39.5017 56.0072 39.5927 56.2749 39.4364L58.9127 37.9129C59.1836 37.7571 59.2765 37.411 59.12 37.1402C58.9625 36.8693 58.6159 36.7753 58.3467 36.9334L55.7089 38.4569C55.438 38.6128 55.3452 38.9588 55.5016 39.2296Z" fill="black"/>
<path d="M53.7538 44.0299C53.7532 43.862 53.5856 43.6074 53.4724 43.5413L29.9608 29.8779C29.7845 29.7761 29.5684 29.7761 29.3932 29.8779L26.8112 31.3692C26.6241 31.477 26.5281 31.6829 26.5281 31.8579C26.5281 31.9743 26.5887 53.2652 26.5895 53.3927C26.59 53.594 26.6973 53.7797 26.8709 53.8814C48.9945 66.7385 21.4952 50.7574 50.3841 67.5459C50.5596 67.6459 50.7745 67.6467 50.9496 67.5448L53.5316 66.0534C53.7073 65.9528 53.8151 65.7649 53.8146 65.5626L53.7538 44.0299ZM35.7085 37.5195L35.7723 57.7448L31.7554 55.4104L31.7024 35.1916L35.7085 37.5195ZM36.8426 38.1785L40.859 40.5124L40.9125 60.732L36.9065 58.404L36.8426 38.1785ZM41.9928 41.1713L46.0103 43.5058L46.0632 63.7253L42.0464 61.3909L41.9928 41.1713ZM47.1441 44.1646L50.0406 45.8478L50.0977 66.07L47.197 64.3843L47.1441 44.1646ZM29.6751 31.0221L52.0584 44.0288L50.6069 44.8668L28.2235 31.8601L29.6751 31.0221ZM27.663 32.8444L30.5686 34.5328L30.6216 54.7515L27.7205 53.0655L27.663 32.8444ZM51.2298 66.0755C51.2067 57.8703 51.2005 55.6514 51.1729 45.8474L52.6245 45.0094L52.6814 65.2375L51.2298 66.0755Z" fill="black"/>
<path d="M66.1778 51.0004C67.5498 50.2088 68.6211 48.3559 68.6167 46.7827C68.6145 45.9172 68.2912 45.2554 67.7095 44.9155C67.7076 44.9143 67.7066 44.9122 67.7046 44.9111C67.704 44.9111 67.7035 44.9111 67.7029 44.9099L67.7019 44.9093C67.7016 44.9092 67.7022 44.9095 67.7019 44.9093C67.7017 44.9092 67.7008 44.9087 67.7006 44.9086L65.2891 43.5075L65.2674 37.0319C65.2669 36.8306 65.1585 36.6438 64.9839 36.5432C64.977 36.5393 64.9688 36.541 64.9619 36.5374L45.56 25.2622C45.2903 25.1042 44.9431 25.197 44.7861 25.4679C44.6286 25.7376 44.7209 26.0848 44.9907 26.2418L63.5657 37.0364L55.3048 41.804C43.8404 35.1414 30.9608 27.6562 26.0787 24.8189L34.3382 20.0507L39.8869 23.2756C40.1567 23.4315 40.5038 23.3408 40.6608 23.07C40.8184 22.8002 40.7266 22.4531 40.4563 22.2961L34.624 18.9065C34.4477 18.8048 34.2315 18.8048 34.0563 18.9065L24.6664 24.3281C24.491 24.4284 24.3837 24.703 24.3834 24.8167C24.3834 24.8171 24.3836 24.8174 24.3836 24.8178C24.3836 24.8182 24.3834 24.8185 24.3834 24.8189L24.4685 54.9626C24.469 55.1638 24.5763 55.3496 24.7504 55.4513C33.6958 60.6493 45.2275 67.3503 55.113 73.0946C55.2937 73.1977 55.5091 73.1922 55.6785 73.0935L63.2721 68.7081L64.0779 69.1788C64.0915 69.1869 64.1072 69.1838 64.1213 69.1906C64.7768 69.5484 65.5369 69.3971 66.1778 69.0285C67.5498 68.2369 68.6211 66.384 68.6167 64.8108C68.6145 63.9522 68.2954 63.2968 67.7219 62.9534C67.7152 62.9492 67.7115 62.9421 67.7046 62.938C67.704 62.938 67.7035 62.938 67.7029 62.9369L65.3344 61.5611L65.3028 51.3114C65.5901 51.2593 65.8833 51.1698 66.1778 51.0004ZM65.6118 50.0198C65.2078 50.2536 64.9818 50.251 64.7682 50.2074C64.2916 50.072 64.2638 49.3212 64.3431 48.82C64.4505 48.1645 64.7808 47.4682 65.2209 46.9058C65.649 46.3635 66.5825 45.5727 67.1369 45.8906C67.3563 46.0166 67.4835 46.3427 67.4846 46.7849C67.4879 47.9513 66.6306 49.4316 65.6118 50.0198ZM65.6562 45.0393C65.6367 45.0501 65.6176 45.0545 65.598 45.0658C65.2244 45.2813 64.8772 45.5812 64.5643 45.9284C63.8695 46.6936 63.3624 47.7094 63.2188 48.6892C63.1985 48.8233 63.1618 49.1562 63.1757 49.3133C63.0624 49.2471 61.1424 48.1244 61.2643 48.1956C61.0415 48.0641 60.9088 47.7302 60.9088 47.3023H60.9069C60.9069 47.3012 60.9066 47.3002 60.9066 47.299C60.9066 45.8942 62.0772 44.2761 63.0958 43.9169C63.3023 43.8432 63.5595 43.8094 63.744 43.9194L65.6638 45.0349C65.6613 45.0363 65.6587 45.0378 65.6562 45.0393ZM59.971 46.0626C59.9572 46.1086 59.9489 46.1544 59.9364 46.2004C59.933 46.2132 59.9299 46.226 59.9268 46.2387L59.0908 45.7502C59.0432 45.7214 58.962 45.602 58.962 45.3323C58.962 44.6192 59.4755 43.7182 60.0907 43.3611C60.3008 43.235 60.4589 43.2185 60.534 43.2638L61.3658 43.7468C60.7671 44.3407 60.2368 45.1593 59.971 46.0626ZM25.5995 54.6354L25.5182 25.8036L54.7403 42.7863C54.7492 45.7942 54.7087 32.0133 54.825 71.6187L25.5995 54.6354ZM55.9588 71.6254C55.8441 32.1051 55.8837 45.7461 55.8751 42.787L64.1387 38.0161L64.1547 42.8581C63.8081 42.7025 63.2713 42.6643 62.7734 42.8279C62.7706 42.8288 62.7681 42.8289 62.7653 42.8298C62.6291 42.8751 62.4926 42.9409 62.3558 43.0124L61.1117 42.2898C60.659 42.0145 60.0736 42.051 59.5153 42.386C58.57 42.9343 57.8299 44.2289 57.8299 45.3323C57.8299 45.9602 58.0797 46.4677 58.5175 46.7264L59.792 47.4712C59.8356 48.2376 60.1487 48.8555 60.6877 49.1707C64.1841 51.2162 63.9243 51.0709 64.1702 51.1938L64.2006 60.9016C64.1132 60.8596 64.0189 60.8417 63.9267 60.8155C63.4728 60.6874 62.9785 60.7133 62.3633 61.0416L61.1117 60.3234C60.6667 60.0537 60.0852 60.0835 59.5153 60.4085C58.57 60.9569 57.8299 62.2515 57.8299 63.3548C57.8299 63.9817 58.0792 64.4891 58.5181 64.75L59.7914 65.4933C59.8338 66.2636 60.1477 66.8837 60.6872 67.1977L62.1476 68.051L55.9588 71.6254ZM65.598 63.0917C64.2676 63.8603 63.1687 65.6916 63.173 67.3027C63.173 67.3142 63.1761 67.3237 63.1762 67.3352C63.1763 67.3364 63.1762 67.3378 63.1763 67.3391L61.2631 66.2171C60.467 65.7515 61.1684 63.8455 61.7318 63.073C61.7496 63.0487 61.7696 63.0274 61.7879 63.0035C62.2099 62.4491 63.1799 61.6104 63.744 61.9464L65.6644 63.0616C65.6421 63.0738 65.6203 63.0788 65.598 63.0917ZM59.981 64.0635C59.9614 64.127 59.9476 64.1902 59.9306 64.2539C59.9298 64.2568 59.9284 64.2596 59.9277 64.2625L59.0924 63.7749C59.0277 63.7362 58.962 63.5914 58.962 63.3548C58.962 62.6417 59.4755 61.7407 60.0802 61.3892C60.2013 61.3209 60.4174 61.2289 60.5368 61.2985L61.3627 61.7728C60.7626 62.3678 60.2434 63.2046 59.981 64.0635ZM65.6118 68.0478C65.2249 68.269 64.8755 68.3231 64.6544 68.1971C64.2912 67.9876 64.2729 67.2951 64.3428 66.8498C64.7101 64.6025 67.479 62.597 67.4846 64.813C67.4879 65.9794 66.6306 67.4597 65.6118 68.0478Z" fill="black"/>
</svg>
