<svg width="93" height="92" viewBox="0 0 93 92" fill="none" xmlns="http://www.w3.org/2000/svg">
<rect x="0.5" width="92" height="92" rx="46" fill="white"/>
<path d="M28.2994 67.6266C28.3 67.8278 28.4072 68.0136 28.5813 68.1153C28.6978 68.1829 37.2679 73.1629 37.1489 73.0938L37.1498 73.0947C37.3254 73.1946 37.5403 73.1955 37.7153 73.0935L64.5103 57.6237C64.6861 57.5231 64.7939 57.3351 64.7934 57.1328L64.7005 24.3734C64.6554 24.2592 64.6587 24.0246 64.4191 23.8847L55.8528 18.9065C55.6765 18.8048 55.4604 18.8048 55.2851 18.9065L51.6241 21.0203C51.3533 21.1762 51.2604 21.5222 51.4169 21.7931C51.5733 22.0628 51.9199 22.1568 52.1902 21.9998L55.5671 20.0507L63.0051 24.3734L62.4193 24.7116L37.3405 39.191L29.9019 34.8683L45.7946 25.6923C46.0655 25.5364 46.1583 25.1904 46.0019 24.9195C45.8449 24.6487 45.4972 24.5536 45.2286 24.7128L28.4896 34.3774C28.3142 34.4778 28.2069 34.7524 28.2065 34.8661L28.2068 34.8672C28.2068 35.0445 28.2986 67.4342 28.2994 67.6266ZM29.3414 35.8526L36.7743 40.1719L36.8635 71.6188L29.4304 67.2994L29.3414 35.8526ZM37.9956 71.6254L37.9066 40.1716L63.5712 25.3529L63.6602 56.8078L37.9956 71.6254Z" fill="black"/>
<path d="M48.1351 24.3413L50.1367 23.186C50.4075 23.0301 50.5004 22.6841 50.344 22.4132C50.1864 22.1424 49.8398 22.0473 49.5706 22.2065L47.569 23.3618C47.2982 23.5177 47.2053 23.8637 47.3618 24.1346C47.5194 24.4067 47.8674 24.4976 48.1351 24.3413Z" fill="black"/>
<path d="M61.8261 28.3865C61.6508 28.287 61.4347 28.2859 61.2606 28.3876L39.6644 40.8559C39.4886 40.9565 39.3808 41.1444 39.3813 41.3468L39.4571 68.102C39.4579 68.4115 39.7077 68.6669 40.0231 68.6669C40.121 68.6669 40.2188 68.6415 40.3061 68.5906L61.9024 56.1223C62.0781 56.0217 62.1859 55.8338 62.1854 55.6315L62.1096 28.8762C62.1091 28.6739 62.0007 28.4871 61.8261 28.3865ZM40.5864 67.1225L40.5145 41.6718L60.9803 29.8558L61.0522 55.3064L40.5864 67.1225Z" fill="black"/>
<path d="M57.9954 43.9183C57.995 43.9181 57.9947 43.9174 57.9943 43.9172C57.9939 43.917 57.9934 43.9171 57.993 43.9169L53.754 41.454C53.5373 41.3302 53.2637 41.3601 53.0807 41.5325L49.0323 45.369C48.6321 45.4764 48.2195 45.6408 47.7979 45.884C45.2612 47.3488 43.2812 50.7793 43.2895 53.6946C43.2939 55.1959 43.8328 56.3346 44.8079 56.9018C45.1237 57.0853 49.3139 59.519 49.0587 59.3727C50.1848 60.0183 51.514 59.7189 52.6335 59.072C55.1735 57.606 57.1568 54.1733 57.1485 51.258C57.1474 50.7716 57.0905 50.3238 56.9788 49.9225L58.2618 44.5396C58.3067 44.3511 58.2102 44.0431 57.9954 43.9183ZM53.5517 42.6458L56.7729 44.5174L53.4903 47.6288L50.2691 45.7565L53.5517 42.6458ZM45.3767 55.9223C44.7637 55.5663 44.4248 54.7747 44.4215 53.6924C44.4143 51.1861 46.1827 48.1238 48.3633 46.8646C48.6698 46.6879 48.9657 46.5565 49.2463 46.4724L52.2627 48.2258C52.1887 48.2644 52.1143 48.3063 52.0398 48.3493C49.088 50.0539 47.0294 54.2843 47.6367 57.2276C47.6373 57.2301 47.637 57.2332 47.6376 57.2357L45.3767 55.9223ZM55.8545 50.1138C55.9612 50.4421 56.0154 50.8279 56.0165 51.2602C56.0236 53.7665 54.252 56.831 52.0675 58.0925C50.1198 59.2177 48.6698 58.4099 48.6629 56.1567C48.6558 53.6515 50.4246 50.5891 52.6064 49.3288C52.9884 49.1077 53.3538 48.9585 53.6926 48.8844C53.7033 48.882 53.7104 48.8724 53.7209 48.8695C53.8083 48.8454 53.8922 48.808 53.9613 48.7429L56.7196 46.1283L55.8423 49.8075C55.818 49.9092 55.8224 50.0154 55.8545 50.1138Z" fill="black"/>
<path d="M45.6879 42.9697C45.6833 41.6275 44.593 40.9632 43.4088 41.6508C42.4459 42.2058 41.6947 43.5114 41.698 44.6236C41.7026 45.9614 42.8101 46.6078 43.9843 45.9304C44.9583 45.3687 45.6907 44.0951 45.6879 42.9697ZM43.4182 44.9508C43.01 45.185 42.8311 45.0884 42.8301 44.6192C42.8279 43.9138 43.363 42.9841 43.9749 42.6303C44.4032 42.3847 44.5548 42.5129 44.5558 42.973C44.5575 43.6883 44.0368 44.5937 43.4182 44.9508Z" fill="black"/>
<path d="M48.7088 43.203C49.6706 42.648 50.4224 41.3457 50.4196 40.2379C50.415 38.8818 49.3058 38.2468 48.1333 38.9234C47.1748 39.4762 46.4264 40.7796 46.4297 41.8918C46.4344 43.2517 47.5638 43.8666 48.7088 43.203ZM48.6994 39.9029C49.1311 39.654 49.2865 39.7872 49.2875 40.2412C49.2892 40.9565 48.7652 41.8642 48.1427 42.2224C47.7438 42.4526 47.5628 42.3569 47.5618 41.8874C47.5596 41.182 48.0913 40.2545 48.6994 39.9029Z" fill="black"/>
<path d="M53.4334 40.4745C54.4112 39.9096 55.147 38.636 55.1442 37.5105C55.1396 36.1607 54.038 35.5178 52.8585 36.1938L52.8574 36.1949C51.9 36.7488 51.1515 38.0523 51.1543 39.1644C51.1589 40.5066 52.2725 41.1474 53.4334 40.4745ZM53.4245 37.1745C53.8153 36.9491 54.011 37.0144 54.0121 37.5139C54.0138 38.228 53.4898 39.1357 52.8668 39.495C52.462 39.728 52.2874 39.6232 52.2864 39.1611C52.2847 38.4547 52.8165 37.526 53.4245 37.1745Z" fill="black"/>
<path d="M57.5824 33.4676C56.6245 34.0193 55.876 35.3238 55.8788 36.436C55.8835 37.789 57.0055 38.4139 58.1579 37.7471C59.1208 37.1911 59.872 35.8887 59.8687 34.7821C59.864 33.4253 58.7513 32.7914 57.5824 33.4676ZM57.5918 36.7676C57.1805 37.0024 57.0118 36.8884 57.0109 36.4327C57.0092 35.7251 57.5404 34.7987 58.1485 34.4471C58.5562 34.2141 58.7356 34.3072 58.7366 34.7865C58.7388 35.5007 58.2143 36.4072 57.5918 36.7676Z" fill="black"/>
</svg>
