<svg width="93" height="92" viewBox="0 0 93 92" fill="none" xmlns="http://www.w3.org/2000/svg">
<rect x="0.5" width="92" height="92" rx="46" fill="white"/>
<path d="M51.674 65.5366C51.3622 65.5366 51.109 65.7886 51.1079 66.1004L51.1057 66.7615C51.1046 67.0744 51.3578 67.3286 51.6695 67.3297H51.6718C51.9835 67.3297 52.2367 67.0777 52.2378 66.7659L52.24 66.1048C52.2411 65.7919 51.9879 65.5377 51.6762 65.5366H51.674Z" fill="black"/>
<path d="M58.0474 29.7225C58.0474 29.7189 58.0454 29.7159 58.0454 29.7123C58.0454 29.7083 58.0463 29.7044 58.0463 29.7004C58.0419 27.7911 56.7971 26.0234 54.5473 24.7266C54.5263 24.714 54.5053 24.7047 54.4843 24.6928C54.4855 24.1174 54.502 23.8312 54.4851 23.6259C54.483 23.3782 54.4602 23.1303 54.3969 22.8836C54.125 21.8245 53.3113 20.8793 52.0454 20.1518C49.0163 18.3962 44.0911 18.3962 41.0685 20.1518C39.8193 20.8738 39.0166 21.8124 38.7469 22.8671C38.6843 23.1097 38.6606 23.3536 38.6573 23.5971C38.6534 23.8546 38.6398 24.7628 38.6415 24.6466C38.5936 24.673 38.5419 24.6962 38.4959 24.7233C36.2605 26.0256 35.0334 27.7867 35.0378 29.6838C35.0389 30.1826 34.9564 49.9785 34.9527 50.8804C34.9471 52.7974 36.1953 54.574 38.4672 55.8841C38.5158 55.9122 38.5692 55.9356 38.6186 55.9631L38.5888 58.303C38.5888 59.5978 39.3913 60.7933 40.8413 61.6968L40.8297 68.6498C40.8297 69.0544 41.0751 69.4314 41.4787 69.6514C42.1572 70.0372 43.1621 70.0306 43.8081 69.6558C44.2248 69.4281 44.4636 69.061 44.4636 68.652L44.4844 62.977C45.9973 63.2231 47.0897 63.2235 48.6056 62.9745L48.5851 71.8647C48.5851 72.2837 48.825 72.6552 49.2341 72.8774C49.9026 73.2588 50.9088 73.261 51.5623 72.8818C51.9736 72.6574 52.219 72.2804 52.219 71.878L52.2301 68.8676C52.2312 68.5547 51.9791 68.3004 51.6662 68.2993C51.6651 68.2993 51.6651 68.2993 51.664 68.2993C51.3523 68.2993 51.0991 68.5514 51.098 68.8631L51.0062 71.8957C50.6934 72.077 50.1152 72.0759 49.7172 71.8658L49.7382 62.744C49.826 62.7209 49.898 62.6854 49.9838 62.6606C50.3201 62.5616 50.6511 62.457 50.9664 62.3273C51.0136 62.308 51.0705 62.2962 51.1168 62.2763L51.1091 64.0065C51.1079 64.3183 51.36 64.5736 51.6729 64.5747C51.6729 64.5747 51.674 64.5747 51.6751 64.5747C51.9869 64.5747 52.24 64.3227 52.2411 64.0109L52.2518 61.6753C53.6586 60.785 54.4378 59.6102 54.4378 58.3406L54.4571 55.9092C54.4705 55.9015 54.4853 55.8951 54.4986 55.8874C56.7252 54.5939 57.9546 52.8383 57.9612 50.9456C58.1211 11.6388 58.0003 41.328 58.0474 29.7391C58.0474 29.7336 58.0474 29.7281 58.0474 29.7225ZM56.8624 42.7651C56.8085 44.2203 55.802 45.5931 54 46.6395C49.9084 49.0187 43.2265 49.0142 39.104 46.6362C37.2035 45.5384 36.1146 44.0725 36.119 42.6143C36.1193 42.5003 36.1244 41.2375 36.1241 41.3515C36.7132 42.0957 37.5161 42.7809 38.5379 43.3704C42.9703 45.9301 50.1583 45.9365 54.5683 43.3738C55.5347 42.8123 56.2989 42.1557 56.8678 41.4387L56.8624 42.7651ZM42.3246 27.7279C45.3402 28.8788 49.4387 28.6861 52.0742 27.1555C52.5144 26.899 53.0421 26.4808 53.2621 26.2689C53.2852 26.2468 53.3142 26.227 53.3367 26.2047L53.3036 29.5003C53.2963 32.594 46.0894 34.5818 41.6113 32.001C40.6536 31.4479 39.7213 30.5762 39.7253 29.4649C39.7266 29.3504 39.7653 25.9117 39.7629 26.1312C39.7793 26.1479 39.8009 26.1627 39.8177 26.1794C40.5169 26.8763 41.394 27.3742 42.3246 27.7279ZM39.8424 23.1479C40.0359 22.395 40.6561 21.6974 41.6357 21.1314C44.352 19.5538 48.7702 19.5629 51.4794 21.1325C53.9928 22.5759 53.9559 24.7098 51.5632 26.136C51.5428 26.1482 51.5256 26.1617 51.5048 26.1737C49.0476 27.6006 45.1853 27.7148 42.4566 26.5435C40.985 25.91 39.4427 24.7063 39.8424 23.1479ZM38.6282 25.9727C38.6269 26.0889 38.5862 29.682 38.5888 29.4572C38.5888 31.1359 39.8575 32.3446 41.3386 33.1207C46.3602 35.7579 54.4378 33.735 54.4378 29.5081L54.4732 26.0112C56.0497 27.0549 56.9109 28.3517 56.9143 29.7037C56.9183 31.4377 55.5099 32.817 54.0166 33.6848C50.0374 35.9986 43.3105 36.1046 39.1194 33.6759C37.6023 32.8033 36.1681 31.4256 36.1721 29.6617C36.1721 29.6617 36.1721 29.6606 36.1721 29.6595C36.1721 29.6587 36.1717 29.6582 36.1717 29.6574C36.1782 28.3096 37.0443 27.0153 38.6282 25.9727ZM54.586 34.6676C54.586 34.6676 54.586 34.6676 54.5871 34.6665C55.3602 34.2162 56.3018 33.4895 56.9032 32.7451C56.9006 32.8612 56.8726 34.0383 56.8722 34.1624C56.8678 35.6593 55.8485 37.0755 54 38.149C49.9084 40.5281 43.2265 40.527 39.104 38.1445C37.1999 37.0474 36.1528 35.6238 36.1539 34.1384L36.1599 32.6754C39.524 36.9073 49.009 37.9024 54.586 34.6676ZM38.5379 39.1252C42.9703 41.6848 50.1583 41.6912 54.5683 39.1285C55.5445 38.5613 56.3147 37.8971 56.8852 37.1715L56.8803 38.3682C56.8793 38.382 56.8723 38.3936 56.8722 38.4077C56.8678 39.9046 55.8485 41.3208 54 42.3943C49.9084 44.7734 43.2265 44.7723 39.104 42.3909C37.187 41.2832 36.1323 39.8548 36.1367 38.369C36.137 38.255 36.1419 37.0064 36.1415 37.1204C36.7275 37.8602 37.5245 38.5405 38.5379 39.1252ZM43.347 62.7539L43.252 68.6697C42.938 68.8521 42.3598 68.851 41.9618 68.6509L41.9729 62.2863C42.0587 62.3228 43.2138 62.7184 43.347 62.7539ZM53.3058 58.3362C53.3058 60.1405 50.9558 61.3237 49.0505 61.7457C49.0474 61.7464 49.045 61.7485 49.0418 61.7493C47.4219 62.1108 45.6153 62.1099 43.993 61.7428C42.1904 61.3327 39.7209 60.1646 39.7209 58.3107L39.7441 56.5109C39.7462 56.5118 39.7486 56.5124 39.7507 56.5133C40.5536 56.8573 41.6439 57.2489 43.234 57.5298C46.4963 58.0943 50.2904 57.8068 53.3201 56.4743L53.3058 58.3362ZM56.8291 50.9412C56.8236 52.416 55.7943 53.8256 53.9304 54.9079C53.8279 54.9674 53.7063 55.0077 53.6007 55.0643C50.6646 56.6477 46.4682 57.0618 42.861 56.302C42.8401 56.2976 42.8182 56.2956 42.7975 56.2911C39.896 55.6675 36.076 53.843 36.0847 50.8837L36.0892 49.8187C36.685 50.5689 37.4999 51.2619 38.5379 51.861C42.9652 54.4177 50.1584 54.427 54.5683 51.8643C55.515 51.3138 56.2674 50.6719 56.8331 49.9718L56.8291 50.9412ZM56.8443 47.2159C56.7063 48.5938 55.7163 49.8871 54 50.8848C49.9084 53.2639 43.2265 53.2595 39.104 50.8815C37.1915 49.7771 36.097 48.3114 36.1013 46.8588L36.1066 45.5852C36.6991 46.3323 37.508 47.0214 38.5379 47.6157C42.9652 50.1724 50.1584 50.1817 54.5683 47.619C55.5248 47.0633 56.2831 46.4143 56.8504 45.7059L56.8443 47.2159Z" fill="black"/>
<path d="M42.8794 25.3534C44.9035 26.5193 48.2731 26.5219 50.2898 25.3545C51.9316 24.3995 52.1064 23.0106 50.2666 21.9505C48.3441 20.8328 44.7732 20.8351 42.8529 21.9505C41.1186 22.9524 41.1293 24.338 42.8794 25.3534ZM43.42 22.9312C45.0883 21.9613 48.0356 21.9622 49.7006 22.9312C50.5791 23.4355 50.7331 23.7881 49.7216 24.375C48.1362 25.2948 45.0452 25.2948 43.4465 24.3728C42.421 23.7793 42.52 23.4502 43.42 22.9312Z" fill="black"/>
</svg>
