<svg width="93" height="92" viewBox="0 0 93 92" fill="none" xmlns="http://www.w3.org/2000/svg">
<rect x="0.5" width="92" height="92" rx="46" fill="white"/>
<path d="M65.7408 56.4725L67.4279 55.4985C67.6987 55.3421 67.7916 54.996 67.6351 54.7252C67.4782 54.4538 67.1316 54.3614 66.8618 54.5179L65.1748 55.4919C64.9039 55.6483 64.811 55.9943 64.9675 56.2652C65.1243 56.5368 65.4714 56.6281 65.7408 56.4725Z" fill="black"/>
<path d="M25.1575 46.6415C24.8877 46.485 24.5411 46.5751 24.3836 46.846C24.226 47.1163 24.3178 47.4629 24.5881 47.6199L26.3807 48.6618C26.6518 48.8191 26.9978 48.7271 27.1546 48.4573C27.3122 48.187 27.2204 47.8404 26.9501 47.6834L25.1575 46.6415Z" fill="black"/>
<path d="M28.9418 48.8415C28.672 48.685 28.3249 48.7757 28.1679 49.046C28.0103 49.3163 28.1021 49.6629 28.3724 49.8199L30.165 50.8618C30.4361 51.0191 30.7822 50.9271 30.9389 50.6573C31.0965 50.387 31.0047 50.0404 30.7344 49.8834L28.9418 48.8415Z" fill="black"/>
<path d="M74.0318 45.9289C74.0329 45.432 73.7306 44.9715 73.2027 44.6647L44.039 27.7173C43.1314 27.19 41.7047 27.19 40.7904 27.7162L19.8061 39.8313C19.2292 40.1641 18.9603 40.673 18.9603 41.1027C18.9603 41.2166 18.9788 46.1872 18.9791 46.0732C18.9791 46.5745 19.2848 47.0344 19.811 47.3313L48.9681 64.2798C49.8903 64.8112 51.2854 64.8112 52.2189 64.2798L63.8105 57.5868C64.0814 57.4304 64.1743 57.0844 64.0178 56.8135C63.8603 56.5421 63.5137 56.4498 63.2445 56.6062L51.6556 63.2975C51.0758 63.6264 50.1029 63.6281 49.5352 63.3003L20.3738 46.349C20.1659 46.2318 20.1112 46.1174 20.1112 46.071L20.0979 42.5394L48.9592 59.3115C49.9362 59.8797 51.3988 59.7789 52.2079 59.3126C80.5762 42.9417 70.7769 48.5967 72.8997 47.3716L72.9075 50.9127C72.9086 50.9575 72.8384 51.0697 72.6394 51.1819L68.6788 53.4687C68.4079 53.6251 68.3151 53.9712 68.4715 54.242C68.6274 54.5129 68.9734 54.6046 69.2448 54.4493L73.201 52.1653C73.7499 51.8546 74.0556 51.3848 74.039 50.8928L74.0291 45.9465C74.0292 45.9405 74.0318 45.9349 74.0318 45.9289ZM20.3721 40.8119L41.3564 28.6968C41.9198 28.3711 42.9089 28.3699 43.4708 28.6957L72.6333 45.6431C72.8141 45.7481 72.8944 45.8574 72.8971 45.9221C72.8971 45.9218 72.8971 45.9223 72.8971 45.9221C72.8971 45.9453 72.8746 45.9817 72.8538 46.0159C72.8444 46.0303 72.8472 46.0395 72.8334 46.0552C72.8332 46.0555 72.8327 46.0558 72.8324 46.056C72.7875 46.1068 72.7196 46.163 72.6261 46.2169C70.4802 47.4556 80.3988 41.7304 51.6418 58.3292C51.069 58.6633 50.0316 58.6208 49.5253 58.3292L20.3605 41.3813C20.2883 41.3395 20.0955 41.1847 20.0963 41.101C20.0963 41.0385 20.1825 40.9213 20.3721 40.8119Z" fill="black"/>
<path d="M46.3014 55.0192C46.5137 55.1025 46.9535 55.1133 47.1428 55.0038L65.9254 44.1589C66.1 44.0578 66.2078 43.8715 66.2084 43.6697C66.2089 43.4674 66.1017 43.2811 65.927 43.1794C65.2137 42.7645 44.2623 30.5777 44.396 30.6553C44.2116 30.5482 43.6932 30.5059 43.4746 30.6326L24.692 41.4774C24.5173 41.5786 24.4095 41.7649 24.4089 41.9666C24.4084 42.169 24.5156 42.3558 24.6903 42.457L46.3014 55.0192ZM43.8775 31.7072C44.4597 31.9639 45.628 32.7078 64.5136 43.667L46.7028 53.9507L26.1037 41.9694L43.8775 31.7072Z" fill="black"/>
<path d="M32.26 36.1565L34.4451 34.895C34.7159 34.7386 34.8088 34.3926 34.6524 34.1217C34.4954 33.8509 34.1477 33.758 33.879 33.9144L31.6939 35.1759C31.4231 35.3323 31.3302 35.6783 31.4866 35.9492C31.6446 36.2218 31.9917 36.3114 32.26 36.1565Z" fill="black"/>
<path d="M61.3109 49.4456C60.432 48.9382 59.0533 48.9387 58.1722 49.4506C57.0886 50.0812 57.0898 51.2841 58.1822 51.9154C59.0625 52.423 60.4373 52.4238 61.3136 51.9143C62.398 51.2845 62.3956 50.0721 61.3109 49.4456ZM60.7448 50.9359C60.2147 51.2438 59.2816 51.2427 58.7482 50.9348C58.4318 50.7516 58.4027 50.6257 58.741 50.4295C59.2745 50.1194 60.2103 50.1173 60.7448 50.4262C61.0613 50.6085 61.0783 50.7409 60.7448 50.9359Z" fill="black"/>
</svg>
