<svg width="93" height="92" viewBox="0 0 93 92" fill="none" xmlns="http://www.w3.org/2000/svg">
<rect x="0.5" width="92" height="92" rx="46" fill="white"/>
<path d="M61.3195 63.7411C62.114 64.2029 63.3299 64.212 64.1447 63.7378C64.6163 63.4592 64.8866 63.0413 64.8866 62.5969L64.8962 60.0795C64.8995 60.0775 64.9049 60.0761 64.9081 60.0741C65.6024 59.6761 65.9849 59.1111 65.9849 58.4865L66.0062 50.256L68.7029 48.6991C68.8787 48.5985 68.9865 48.4106 68.9859 48.2083L68.9743 44.0271C68.9738 43.8248 68.8654 43.638 68.6907 43.5374C68.5198 43.4389 66.2724 42.1343 66.3873 42.2003L66.3503 29.12C66.3499 28.9926 66.2354 28.7285 66.0689 28.6313L49.3327 18.9059C49.1575 18.8042 48.9408 18.8042 48.7655 18.9059L26.8283 31.5721C26.6948 31.6484 26.619 31.7812 26.5816 31.9263C26.5698 31.9716 26.5454 32.0128 26.5452 32.0607C26.5449 32.177 26.5588 37.142 26.5591 37.0257C26.5602 37.3386 26.8133 37.5906 27.1251 37.5906H27.1268C27.4391 37.5895 27.6922 37.3353 27.6911 37.0235L27.6801 33.0476L43.2813 42.114L43.3239 57.1965L27.7226 48.129L27.7061 42.2737C27.705 41.9609 27.4518 41.7088 27.14 41.7088H27.1384C26.8261 41.7099 26.5729 41.9642 26.574 42.2759L26.5907 48.1301L24.2971 49.4542C24.1637 49.5306 24.0879 49.6633 24.0505 49.8084C24.0387 49.8537 24.0142 49.8949 24.0141 49.9429C24.0138 50.0569 24.0261 54.2402 24.0263 54.1262C24.0268 54.3274 24.1341 54.5132 24.3076 54.6149C45.4466 66.899 20.1723 52.2116 41.045 64.3415C41.2205 64.4414 41.4354 64.4423 41.6105 64.3403L43.7261 63.119L43.7165 67.5641C43.7165 68.1876 44.109 68.7714 44.8011 69.1694C44.8122 69.1756 44.8248 69.1801 44.8361 69.1862L44.8259 71.6734C44.8259 72.1267 45.1029 72.5446 45.5827 72.8188C45.9846 73.0531 46.4881 73.1703 46.9928 73.1703C47.4986 73.1703 48.0049 73.0531 48.409 72.8165C48.8805 72.5379 49.1508 72.1256 49.1508 71.6878L49.1605 69.1706C49.1639 69.1685 49.1696 69.167 49.1729 69.1649C49.8567 68.7714 50.2486 68.1876 50.2486 67.5652L50.2705 59.3407L51.5937 58.5767L51.5847 63.0137C51.5847 63.6439 51.9766 64.232 52.6698 64.63C52.6807 64.6361 52.6926 64.6405 52.7038 64.6465L52.6941 67.1341C52.6941 67.5873 52.971 68.0052 53.4508 68.2794C53.8521 68.5138 54.3557 68.631 54.8604 68.631C55.3662 68.631 55.8725 68.5127 56.2777 68.2772C56.7487 67.9975 57.0184 67.5807 57.0184 67.1363L57.0286 64.631C57.0319 64.629 57.0373 64.6277 57.0405 64.6256C57.7243 64.232 58.1168 63.6483 58.1168 63.0259L58.1385 54.7982L59.4618 54.0343L59.4523 58.4743C59.4523 59.1001 59.832 59.6705 60.5368 60.0895C60.5474 60.0953 60.5607 60.1016 60.5718 60.1077L60.5622 62.5947C60.5622 63.048 60.8397 63.467 61.3195 63.7411ZM49.1166 67.5641C49.1166 67.7686 48.9264 67.9997 48.5914 68.1932C47.2845 69.0138 44.8486 68.3645 44.8486 67.5652L44.8597 62.4687L49.1365 59.9989L49.1166 67.5641ZM48.0204 71.6712C48.0143 71.69 47.9673 71.763 47.8358 71.8415C47.3869 72.1013 46.6009 72.1024 46.1487 71.8392C46.0072 71.7574 45.9619 71.6867 45.958 71.6756L45.9663 69.595C45.9812 69.598 45.9972 69.5966 46.0121 69.5995C46.7071 69.7371 47.3383 69.7271 47.9938 69.5886C48.0046 69.5864 48.0163 69.5874 48.027 69.585L48.0204 71.6712ZM63.755 62.5903C63.7506 62.6091 63.7075 62.682 63.5721 62.7616C63.1238 63.0236 62.3372 63.0225 61.8845 62.7594C61.743 62.6787 61.6982 62.608 61.6943 62.5969L61.7026 60.5052C61.7148 60.5078 61.7281 60.5065 61.7404 60.509C62.0598 60.5729 62.3895 60.6091 62.7197 60.6091C63.0646 60.6091 63.4034 60.568 63.7283 60.499C63.7395 60.4967 63.7517 60.4977 63.7628 60.4953L63.755 62.5903ZM41.8908 62.8722C41.8902 62.6702 41.8825 59.8132 41.883 59.9956L44.1759 58.6722C44.3093 58.5959 44.3851 58.4631 44.4226 58.318C44.4343 58.2727 44.4588 58.2315 44.4589 58.1836C44.4593 58.0537 44.4148 42.2474 44.4136 42.1134L65.221 30.0995L65.2561 42.4965C65.2556 42.5065 65.2486 42.5146 65.2486 42.5247L65.2602 45.5141C65.2608 45.7099 65.3662 45.8894 65.5328 45.9917C65.5391 45.9957 65.5417 46.0034 65.5482 46.0071C65.7235 46.1066 65.9396 46.1077 66.1137 46.006L67.845 45.0066L67.8527 47.8832C62.1026 51.2009 48.5775 59.0098 41.8908 62.8722ZM27.1565 49.1105L42.7627 58.1808L41.317 59.0149L25.7095 49.9451L27.1565 49.1105ZM67.2756 44.026L66.394 44.5325L66.3911 43.5113L67.2756 44.026ZM49.0475 20.0501L64.655 29.12C58.3207 32.7769 53.3703 35.635 43.8476 41.1328L28.2406 32.0629L49.0475 20.0501ZM25.1572 53.799L25.1489 50.9297L40.7507 59.9959C40.7517 60.3497 40.7591 63.037 40.7587 62.8656L25.1572 53.799ZM55.8869 67.1296C55.8825 67.1484 55.8394 67.2214 55.7039 67.3021C55.2556 67.5608 54.4685 67.563 54.0169 67.2999C53.8754 67.2181 53.83 67.1473 53.8262 67.1363L53.8345 65.0567C53.8463 65.0592 53.8593 65.058 53.8712 65.0603C54.5594 65.1983 55.1877 65.1932 55.8617 65.0492C55.8724 65.047 55.884 65.048 55.8946 65.0457L55.8869 67.1296ZM56.9847 63.0248C56.9847 64.4146 52.7168 64.2466 52.7168 63.0148L52.7273 57.9223L57.0046 55.4529L56.9847 63.0248ZM64.8722 50.9107L64.8528 58.4854C64.8528 58.6855 64.6677 58.9066 64.3272 59.1023C63.6019 59.5525 62.0845 59.636 61.1001 59.1078C60.9077 58.9928 60.5843 58.7585 60.5843 58.4754L60.5954 53.3798L64.8722 50.9107Z" fill="black"/>
<path d="M27.135 41.0598H27.1367C27.449 41.0587 27.7022 40.8044 27.7011 40.4926L27.6961 38.758C27.695 38.4452 27.4418 38.1931 27.1301 38.1931H27.1284C26.8161 38.1942 26.5629 38.4485 26.564 38.7603L26.569 40.4949C26.5701 40.8077 26.8233 41.0598 27.135 41.0598Z" fill="black"/>
<path d="M32.9684 32.5604L43.5667 38.7194C43.7453 38.822 43.9613 38.8202 44.1344 38.7194L59.9254 29.602C60.1001 29.5014 60.2079 29.3145 60.2085 29.1133C60.209 28.911 60.1012 28.7242 59.9265 28.6225L49.3277 22.4635C49.1525 22.3618 48.9358 22.3618 48.7606 22.4635L32.9701 31.5809C32.7954 31.6815 32.6876 31.8683 32.6871 32.0695C32.6865 32.2719 32.7943 32.4587 32.9684 32.5604ZM49.0425 23.6077L58.5131 29.1111L43.8525 37.5752L34.3824 32.0718L49.0425 23.6077Z" fill="black"/>
<path d="M63.0038 33.9545C62.8286 33.855 62.6125 33.8539 62.4384 33.9556L46.6473 43.0719C46.4716 43.1726 46.3638 43.3605 46.3643 43.5628L46.3931 53.7449C46.3936 53.9472 46.502 54.134 46.6766 54.2346C46.8522 54.3346 47.0671 54.3354 47.2421 54.2335L63.0331 45.1161C63.2089 45.0155 63.3167 44.8275 63.3162 44.6252L63.2874 34.4443C63.2869 34.242 63.1785 34.0551 63.0038 33.9545ZM47.5224 52.7653L47.4975 43.8878L62.1581 35.4238L62.183 44.3002L47.5224 52.7653Z" fill="black"/>
</svg>
