<svg width="93" height="92" viewBox="0 0 93 92" fill="none" xmlns="http://www.w3.org/2000/svg">
<rect x="0.5" width="92" height="92" rx="46" fill="white"/>
<path d="M60.5838 72.8265C60.9735 73.0504 61.4726 73.162 61.9734 73.162C62.4754 73.162 62.9789 73.0493 63.3725 72.8232C64.0088 72.4473 64.1038 71.952 64.1038 71.6922L64.1255 64.213C66.3946 62.8797 67.6391 61.0952 67.6244 59.1686L67.5338 55.2408V55.2301C67.5338 55.2174 67.5332 55.2047 67.5327 55.1926C67.5311 53.7355 66.8073 52.3661 65.4472 51.2083L65.4272 46.686C65.4255 46.3742 65.1729 46.1227 64.8611 46.1227C64.8606 46.1227 64.8595 46.1227 64.8584 46.1227C64.546 46.1243 64.294 46.3786 64.2951 46.6915L64.316 51.4327C64.3155 51.4439 64.3072 51.4528 64.3072 51.4641L64.3189 53.197C64.3238 53.8599 64.092 54.5093 63.6453 55.1165C63.1964 55.7241 62.5321 56.29 61.6733 56.7851C57.9609 58.9354 51.9263 58.9315 48.2216 56.7735L31.5135 47.0746C30.2584 46.3409 29.4263 45.448 29.0886 44.4923C29.0677 44.433 29.0582 44.3723 29.0411 44.3126C29.0124 44.2124 28.9795 44.1126 28.9617 44.0112C28.9333 43.8494 28.9188 43.6863 28.9188 43.5224L28.9078 40.3412C28.9078 40.3368 28.9044 40.3334 28.9042 40.3289L28.8503 28.0537C28.8618 28.0672 28.8788 28.0791 28.8905 28.0927C29.1183 28.3548 29.3796 28.606 29.6694 28.8472C29.7302 28.898 29.795 28.9468 29.8586 28.9967C30.1472 29.2223 30.456 29.4398 30.7986 29.6428C30.8218 29.6566 30.8389 29.6729 30.8624 29.6866L47.5732 39.3988C48.0963 39.7017 48.6656 39.9609 49.2634 40.185C50.963 40.8247 52.917 41.1488 54.8748 41.1488C56.5409 41.1488 58.1894 40.8899 59.6986 40.4263C59.9814 40.3397 60.2765 40.2714 60.5472 40.1685C60.5593 40.1639 60.5696 40.157 60.5818 40.1523C61.1377 39.9389 61.6678 39.6938 62.1581 39.4115C62.4032 39.2707 62.6321 39.1213 62.8517 38.9672C62.9161 38.9221 62.9744 38.8747 63.0367 38.8288C63.171 38.7289 63.3026 38.6281 63.4261 38.5234C63.5236 38.4415 63.6145 38.3576 63.705 38.2733C63.7755 38.2069 63.8447 38.1402 63.911 38.0723C64.02 37.9618 64.1238 37.8499 64.221 37.7357C64.2319 37.7228 64.2451 37.7108 64.2558 37.6979L64.2663 40.1483C64.2674 40.4601 64.5206 40.7122 64.8324 40.7122C64.8329 40.7122 64.834 40.7122 64.8346 40.7122C65.1475 40.7111 65.3995 40.4562 65.3984 40.1439L65.3755 34.9007C65.3758 34.8794 65.3807 34.8587 65.3807 34.8373C65.3829 33.0977 64.258 31.4853 62.2122 30.2963L45.5031 20.5863C41.4938 18.2553 34.9485 18.2553 30.9138 20.5852C28.8442 21.7803 27.7033 23.401 27.7005 25.15C27.7005 25.1712 27.7053 25.1918 27.7056 25.213L27.771 40.0764C26.2167 41.2986 25.3629 42.8101 25.3756 44.3621C25.3756 44.4132 25.38 44.4603 25.3811 44.5105C25.3816 44.5266 25.3815 44.5428 25.3822 44.5589L25.4684 48.3299C25.4684 50.2491 26.7149 52.034 28.9791 53.3573L47.7396 64.2481C47.9992 64.3992 48.2703 64.5394 48.5477 64.6731L48.5262 71.6906C48.5262 72.1311 48.7965 72.544 49.2746 72.8265C49.6638 73.0498 50.1635 73.162 50.6637 73.162C51.1662 73.162 51.6692 73.0493 52.0634 72.8226C52.52 72.5529 52.7836 72.1604 52.8057 71.6917L52.8156 65.9651C53.8261 66.1274 54.8658 66.2132 55.9073 66.2132C57.2466 66.2129 58.5826 66.0715 59.8561 65.8029L59.8359 71.6906C59.8359 72.1311 60.1062 72.5435 60.5838 72.8265ZM31.4798 21.5658C33.341 20.4912 35.7804 19.9539 38.2175 19.9539C40.6531 19.9539 43.0864 20.4907 44.9343 21.5647L61.6429 31.2747C63.3192 32.2492 64.2428 33.5088 64.2475 34.8222C64.2472 34.8298 64.2431 34.8363 64.2431 34.8439C64.2431 35.8789 63.6347 36.9076 62.5548 37.772C62.2675 38.0001 61.9539 38.2203 61.5987 38.4253C60.8248 38.8723 59.9357 39.2035 59.003 39.4641C56.1208 40.2669 52.7032 40.1892 49.9396 39.2177C49.3035 38.9932 48.6928 38.7369 48.1442 38.4182L31.4356 28.7082C31.0796 28.5013 30.7654 28.2791 30.479 28.0487C29.4257 27.1994 28.8467 26.2116 28.8376 25.1914V25.1644C28.8376 25.157 28.8336 25.1509 28.8333 25.1436C28.8393 23.8188 29.778 22.5483 31.4798 21.5658ZM62.9717 71.6911C62.9701 71.7027 62.9331 71.7674 62.8026 71.8448C62.3709 72.0941 61.5815 72.0946 61.1542 71.8487C61.0194 71.7685 60.9724 71.6961 60.968 71.6928L60.989 65.5377C61.0755 65.5134 61.1559 65.4821 61.2412 65.4565C61.2673 65.4486 61.2926 65.4395 61.3187 65.4315C61.628 65.3367 61.9305 65.235 62.2232 65.1224C62.2652 65.1064 62.305 65.0878 62.3468 65.0715C62.5642 64.9853 62.7842 64.9016 62.9916 64.8058L62.9717 71.6911ZM27.7776 41.5769L27.7862 43.5213C27.7862 43.7384 27.804 43.9535 27.8388 44.1661C28.0809 45.649 29.1616 47.0118 30.9442 48.0557L47.6528 57.7569C51.6759 60.0984 58.2179 60.1039 62.2344 57.7701C63.2799 57.1693 64.0881 56.461 64.633 55.6831C65.1795 54.9061 65.4628 54.0607 65.4559 53.1843L65.4542 52.8042C66.088 53.566 66.4118 54.3936 66.4 55.2431C66.3976 55.7925 66.2473 56.3401 65.9646 56.8677C65.9571 56.8812 65.9512 56.8945 65.9433 56.9084C65.8732 57.0358 65.7878 57.1607 65.7023 57.2855C65.6481 57.3643 65.5933 57.4429 65.5334 57.5201C65.4515 57.6259 65.3637 57.7304 65.2708 57.8337C65.1945 57.9182 65.1133 58.0011 65.03 58.0833C64.9388 58.1738 64.8468 58.264 64.7471 58.3518C64.6181 58.4647 64.4795 58.5742 64.3365 58.6823C64.2694 58.7334 64.2068 58.7863 64.1368 58.8363C63.9032 59.0015 63.6556 59.1617 63.3885 59.3146C63.3643 59.3287 63.3361 59.3405 63.3116 59.3545C62.8129 59.6363 62.2824 59.8888 61.72 60.1031C61.7042 60.109 61.6857 60.1142 61.6698 60.1202C61.2258 60.2873 60.7532 60.4154 60.2797 60.5407C60.0489 60.602 59.8211 60.6655 59.5801 60.7177C59.0366 60.835 58.4841 60.9352 57.92 60.9999C57.9044 61.0018 57.8903 61.0053 57.8746 61.0072C56.5193 61.1487 55.0925 61.1498 53.7593 61.0083C53.7394 61.0058 53.7228 61.0025 53.7031 61C53.1074 60.9314 52.5232 60.8265 51.951 60.6993C51.7897 60.6647 51.6357 60.6195 51.4776 60.5801C50.9591 60.4479 50.4484 60.3014 49.9644 60.1194C49.8919 60.0921 49.8242 60.0589 49.7526 60.0305C49.2465 59.8298 48.7614 59.6044 48.3087 59.3479C48.2807 59.3321 48.2501 59.319 48.2222 59.303L29.4639 48.4012C29.4559 48.3967 29.4473 48.3931 29.4392 48.389C29.3689 48.3477 29.3072 48.3034 29.2394 48.2613C29.0339 48.1323 28.8344 48.0008 28.6497 47.8641C28.5927 47.8221 28.5386 47.7791 28.4838 47.7365C28.2983 47.5919 28.1257 47.4438 27.9652 47.2929C27.9166 47.247 27.8648 47.202 27.8186 47.1555C27.7345 47.0689 27.6637 46.9894 27.5886 46.9058C27.5012 46.8071 27.4106 46.7091 27.3336 46.6081C27.3252 46.5969 27.3166 46.5848 27.3083 46.5735C27.2317 46.4713 27.1681 46.3666 27.1022 46.2623C27.0526 46.1857 27.004 46.1091 26.9595 46.0284C26.915 45.9469 26.8792 45.8643 26.8414 45.7818C26.7831 45.6527 26.7304 45.5229 26.6876 45.3918C26.665 45.3232 26.643 45.2546 26.625 45.1855C26.5902 45.0533 26.5684 44.9196 26.5493 44.7856C26.5374 44.696 26.518 44.607 26.5137 44.5169L26.5099 44.3522C26.5098 44.3504 26.5088 44.349 26.5087 44.3473C26.5042 43.3901 26.9474 42.4327 27.7776 41.5769ZM51.6742 71.6629C51.6726 71.7011 51.614 71.7735 51.4935 71.8448C51.0612 72.0941 50.2724 72.0935 49.8445 71.8487C49.7097 71.7685 49.6627 71.6961 49.6583 71.6922L49.6782 65.1535C49.773 65.1899 49.8743 65.2182 49.9708 65.2526C50.17 65.3222 50.3671 65.3942 50.5717 65.4561C50.7276 65.5034 50.8892 65.5426 51.0488 65.5847C51.2594 65.6414 51.4692 65.6987 51.6842 65.7476L51.6742 71.6629ZM52.3364 64.7221C51.9643 64.6533 51.6144 64.5536 51.2619 64.4577C50.9819 64.3795 50.7049 64.2977 50.435 64.2045C50.1394 64.1013 49.8485 63.9927 49.5711 63.8694C49.1364 63.6837 48.701 63.4977 48.3084 63.2691L29.549 52.3789C27.6475 51.2679 26.6005 49.8301 26.6005 48.3172L26.5812 47.483C26.9257 47.9 27.3496 48.2936 27.8327 48.6646C27.8849 48.7049 27.9377 48.7446 27.9914 48.7843C28.2297 48.9592 28.4809 49.1288 28.7495 49.2912C28.7947 49.3189 28.8325 49.3501 28.8785 49.3774C28.8911 49.3846 28.9047 49.3902 28.9179 49.3965L47.6489 60.2836C47.6489 60.2835 47.649 60.2836 47.6489 60.2836L47.65 60.2841C48.229 60.6195 48.8563 60.9099 49.5171 61.1589C49.7001 61.2286 49.8904 61.2881 50.0785 61.3509C50.216 61.3965 50.3505 61.4458 50.4905 61.4879C50.6937 61.5491 50.9026 61.6012 51.1111 61.6545C51.266 61.6944 51.4195 61.7361 51.5769 61.7719C51.621 61.7818 51.6629 61.7953 51.7074 61.8048C52.2856 61.9358 52.9108 62.0425 53.6288 62.1326C53.7781 62.1484 53.935 62.1439 54.086 62.1563C54.5647 62.198 55.046 62.2242 55.529 62.2311C55.622 62.2323 55.7119 62.2454 55.8051 62.2454C55.8962 62.2454 55.9858 62.2325 56.077 62.2313C56.5796 62.2248 57.0803 62.198 57.5782 62.1538C57.7179 62.1421 57.8616 62.1466 58.0001 62.132C58.2272 62.1052 58.4386 62.0605 58.66 62.0269C58.8687 61.9965 59.0766 61.9651 59.2826 61.9278C59.4833 61.8906 59.6808 61.8517 59.8758 61.8087C60.249 61.728 60.6163 61.6367 60.9761 61.5328C61.0143 61.5216 61.0572 61.5145 61.0951 61.503C61.1144 61.4997 61.1338 61.4947 61.1526 61.4892C61.774 61.3041 62.3151 61.0949 62.8137 60.8667C63.2089 60.6919 63.5944 60.5064 63.9562 60.2979C64.2534 60.1273 64.5295 59.9454 64.7929 59.7573C64.8895 59.6889 64.9758 59.6165 65.0677 59.546C65.212 59.4344 65.3545 59.3223 65.4871 59.2057C65.6103 59.098 65.725 58.9875 65.8378 58.8758C65.9222 58.7917 66.0035 58.7069 66.0819 58.6207C66.1993 58.4922 66.3128 58.3627 66.4166 58.2295C66.4327 58.2089 66.4528 58.1895 66.4686 58.1687L66.4924 59.1863C66.504 60.7015 65.4349 62.1558 63.4814 63.2824C62.9625 63.5827 62.4025 63.8448 61.8132 64.0706C61.7482 64.0956 61.674 64.1114 61.6081 64.1355C58.8093 65.1569 55.3852 65.3454 52.3364 64.7221Z" fill="black"/>
<path d="M64.8401 41.7839C64.5273 41.785 64.2752 42.0399 64.2763 42.3522L64.2852 44.3676C64.2863 44.6799 64.5394 44.9314 64.8512 44.9314H64.8534C65.1663 44.9303 65.4183 44.6755 65.4172 44.3632L65.4084 42.3478C65.4073 42.0354 65.1541 41.7839 64.8423 41.7839H64.8401Z" fill="black"/>
<path d="M32.2885 27.2395L48.9966 36.9495C50.5056 37.8267 52.6476 38.3297 54.8736 38.3297C57.0947 38.3297 59.2367 37.8284 60.7496 36.955C61.8762 36.3044 62.5494 35.5112 62.5505 34.8335C62.5516 34.1657 61.8933 33.3841 60.7894 32.7434L44.0819 23.0335C42.575 22.1579 40.438 21.6554 38.2181 21.6554C35.9954 21.6554 33.849 22.159 32.3289 23.0362C31.204 23.6857 30.5318 24.4773 30.5307 25.1539C30.5296 25.82 31.1868 26.5994 32.2885 27.2395ZM32.8949 24.0168C34.2481 23.2358 36.1883 22.7875 38.2181 22.7875C40.244 22.7875 42.1737 23.2336 43.5125 24.0119L60.2206 33.7224C61.1559 34.2658 61.4068 34.7494 61.419 34.8241C61.4074 34.9175 61.1509 35.4161 60.1836 35.9744C58.8376 36.7516 56.9023 37.1977 54.8736 37.1977C52.8417 37.1977 50.907 36.7505 49.5659 35.9711L32.8573 26.2611C31.9253 25.7194 31.6744 25.2374 31.6622 25.1633C31.6744 25.0704 31.9303 24.5735 32.8949 24.0168Z" fill="black"/>
<path d="M43.1323 42.9271L32.7413 36.9417C32.4698 36.7847 32.1244 36.8787 31.9685 37.1495C31.8121 37.4204 31.9055 37.7664 32.1763 37.9223L42.5673 43.9077C42.6563 43.9591 42.7536 43.9834 42.8492 43.9834C43.0449 43.9834 43.2356 43.8817 43.3401 43.6999C43.4965 43.429 43.4031 43.083 43.1323 42.9271Z" fill="black"/>
<path d="M43.1323 39.6559L32.7413 33.6704C32.4698 33.5146 32.1244 33.6074 31.9685 33.8783C31.8121 34.1491 31.9055 34.4952 32.1763 34.6511L42.5673 40.6365C42.6563 40.6879 42.7536 40.7122 42.8492 40.7122C43.0449 40.7122 43.2356 40.6105 43.3401 40.4286C43.4965 40.1578 43.4031 39.8117 43.1323 39.6559Z" fill="black"/>
<path d="M43.1323 46.1985L32.7413 40.2131C32.4698 40.0566 32.1244 40.1506 31.9685 40.4209C31.8121 40.6918 31.9055 41.0378 32.1763 41.1937L42.5673 47.1791C42.6563 47.2305 42.7536 47.2548 42.8492 47.2548C43.0449 47.2548 43.2356 47.1531 43.3401 46.9712C43.4965 46.7004 43.4031 46.3543 43.1323 46.1985Z" fill="black"/>
<path d="M43.1323 49.4697L32.7413 43.4843C32.4698 43.3284 32.1244 43.4213 31.9685 43.6921C31.8121 43.963 31.9055 44.309 32.1763 44.4649L42.5673 50.4503C42.6563 50.5017 42.7536 50.526 42.8492 50.526C43.0449 50.526 43.2356 50.4243 43.3401 50.2425C43.4965 49.9716 43.4031 49.6256 43.1323 49.4697Z" fill="black"/>
</svg>
