<svg width="93" height="92" viewBox="0 0 93 92" fill="none" xmlns="http://www.w3.org/2000/svg">
<rect x="0.5" width="92" height="92" rx="46" fill="white"/>
<path d="M58.8081 38.5683C58.5394 38.4124 58.1912 38.5019 58.0342 38.7728C57.8772 39.0431 57.9689 39.3897 58.2398 39.5467L59.5399 40.3023C59.8123 40.4604 60.158 40.366 60.3138 40.0978C60.4708 39.8275 60.379 39.4809 60.1082 39.3239L58.8081 38.5683Z" fill="black"/>
<path d="M73.0199 58.3651C72.8548 58.2381 71.1233 57.2551 66.8805 54.7799C67.8072 52.615 68.3136 50.4343 68.3136 48.4408C68.3026 45.6258 67.3144 43.5099 65.5328 42.4762C65.5312 42.4752 65.5303 42.4735 65.5287 42.4725L65.5269 42.4721C65.5229 42.4697 65.5195 42.4665 65.5154 42.4642C65.5118 42.4621 65.508 42.461 65.5044 42.459L61.5874 40.1835C61.3188 40.0276 60.9705 40.116 60.8136 40.3885C60.6566 40.6588 60.7483 41.0049 61.0192 41.1619L62.232 41.8667C61.2994 41.9837 60.1137 42.3606 58.8844 43.0656C55.1131 45.2442 51.9081 49.8326 50.6599 54.3869C50.2934 55.7161 50.0848 57.0428 50.0876 58.3055C50.0926 59.5831 50.3663 60.8975 50.7023 61.7067L38.2848 54.4931C37.8513 54.2395 37.4851 53.8886 37.1745 53.4688C36.4687 52.5099 36.0837 51.1544 36.0837 49.4921C36.0511 44.3579 39.699 37.9068 44.3056 35.2456C46.415 34.0228 48.3707 33.8117 49.8134 34.6508L56.4721 38.5196C56.7396 38.6744 57.0879 38.5865 57.246 38.3145C57.403 38.0442 57.3112 37.6982 57.0403 37.5412L54.403 36.0086C54.0296 33.5678 52.9228 31.7147 51.2494 30.7137C51.2293 30.6981 51.2158 30.6768 51.1931 30.6636C51.1887 30.6614 51.1854 30.6592 51.1821 30.657L46.3741 27.8644C44.1862 26.5908 41.3262 26.8512 38.3158 28.5957C35.9744 29.9477 33.8147 32.0619 32.0485 34.5386L22.6889 29.0965C22.2157 28.8395 21.6243 28.8854 21.0859 29.2148C20.0865 29.7853 19.3148 31.113 19.3292 32.2313C19.3292 32.8913 19.5912 33.4175 20.0411 33.6718L29.4253 39.1271C28.2302 41.8235 27.5325 44.6539 27.5456 47.2628C27.5456 50.6773 28.7329 53.251 30.8909 54.5102C32.9753 55.7133 35.5443 57.2325 35.7834 57.3301C37.5392 58.3222 39.5062 58.2769 41.4441 57.6372L52.8614 64.2705C52.866 64.2732 52.8714 64.2719 52.8761 64.2745C52.8814 64.2776 52.8859 64.2818 52.8912 64.2848C54.9607 65.473 57.4383 64.8797 59.5068 63.6829C61.2215 62.6869 62.839 61.184 64.2282 59.348L70.3002 62.8775C70.3057 62.8803 70.3102 62.8836 70.3146 62.8863C70.3174 62.888 70.3207 62.8872 70.3236 62.8888C70.8239 63.1711 71.4162 63.073 71.9198 62.7824C72.9049 62.2136 73.6732 60.8781 73.671 59.7405C73.6689 59.1281 73.4286 58.6369 73.0199 58.3651ZM20.4613 32.2236C20.4513 31.5105 21.0063 30.5641 21.6619 30.1899C21.8012 30.1048 21.9338 30.0611 22.0322 30.0611C22.072 30.0611 22.1074 30.0689 22.135 30.0832L31.4039 35.4733C30.8589 36.3036 30.3548 37.1808 29.8982 38.0929L20.6039 32.6901C20.5331 32.6497 20.4613 32.4922 20.4613 32.2236ZM31.4603 53.5323C29.666 52.4848 28.6776 50.2583 28.6776 47.26C28.6646 44.6153 29.4278 41.7323 30.7096 39.02C31.2854 37.8154 31.9452 36.667 32.6775 35.6109C32.6884 35.5951 32.6902 35.5756 32.6994 35.559C34.4159 33.061 36.5541 30.9205 38.8829 29.5758C41.0225 28.3347 43.6664 27.5987 45.8047 28.8428L47.6134 29.8936C46.4216 29.9809 44.715 30.488 43.1337 31.395C37.0305 34.921 32.3356 43.4207 32.3591 50.0753C32.3661 51.9095 32.7508 53.4993 33.2668 54.5821L31.4603 53.5323ZM35.5001 55.7423C33.9953 54.3638 33.4967 52.1176 33.4967 50.0764C33.4644 43.7768 37.9256 35.7218 43.702 32.3817C45.7495 31.1983 48.3604 30.4531 50.4574 31.5642C51.7357 32.2368 52.6559 33.5151 53.1046 35.2511L50.3817 33.6657C48.5675 32.6205 46.206 32.8316 43.7362 34.2661C38.7788 37.1322 34.9223 44.0316 34.9494 49.4999C34.9494 51.4585 35.4367 53.0715 36.3312 54.2287C36.7182 54.7316 37.1737 55.1582 37.7121 55.4759L40.0658 56.8423C38.3741 57.177 36.7344 56.8806 35.5001 55.7423ZM71.1008 58.5861C70.3008 59.1718 69.7275 60.1898 69.6188 61.1295C69.6174 61.1419 69.6116 61.1548 69.6104 61.1672C68.1935 60.3436 58.3529 54.6234 58.496 54.7064C58.292 54.5765 58.3368 54.0154 58.4422 53.6712C58.6244 53.0832 59.0535 52.4793 59.5311 52.204C59.5378 52.2001 59.5425 52.1995 59.5492 52.1958C59.6615 52.1331 59.9042 52.0376 60.0142 52.1023C75.275 60.9666 69.9758 57.8886 71.1305 58.5592C71.1199 58.5668 71.1113 58.5784 71.1008 58.5861ZM63.5122 52.8204C63.3976 52.7538 60.3904 51.0076 60.5803 51.1178C60.1722 50.8852 59.5735 50.8687 58.9651 51.2223C58.3445 51.5766 57.8119 52.2311 57.5033 52.9498C57.0907 53.9038 57.0449 55.1756 57.9314 55.6904L60.8522 57.3885C59.959 58.4653 58.9784 59.3254 57.9944 59.8931C55.3758 61.3687 54.1405 60.4393 54.1405 57.7129C54.1283 53.8015 57.0005 48.8321 60.4122 46.8615C62.8232 45.4673 64.2606 46.1104 64.2606 49.0317C64.2606 50.2019 64.003 51.5009 63.5122 52.8204ZM58.9397 62.7039C56.8424 63.9167 54.8934 64.1306 53.4551 63.3031C51.795 62.3501 51.2274 60.2328 51.2274 58.3105C51.2204 56.9292 51.4785 55.4668 51.9373 54.0135C53.2215 49.9662 56.1003 45.9909 59.4493 44.054C61.1126 43.0933 63.2596 42.4877 64.9345 43.439C64.94 43.4421 64.9461 43.4438 64.9516 43.447L64.9573 43.4499C66.3818 44.2716 67.1715 46.0451 67.1815 48.443C67.1815 50.2456 66.7437 52.2289 65.9112 54.2128L64.4925 53.3901C65.0732 51.8857 65.3927 50.3879 65.3927 49.0317C65.3927 45.3999 63.1898 43.9501 59.8462 45.8809C56.1272 48.0295 52.9963 53.4494 53.0084 57.7146C53.0084 61.2938 55.1358 62.8052 58.5549 60.8765C59.7027 60.215 60.8242 59.202 61.8338 57.9562L63.2572 58.7836C61.9762 60.453 60.4923 61.8017 58.9397 62.7039ZM71.3538 61.8018C70.9538 62.0333 70.7303 61.9483 70.7303 61.4408C70.7225 60.7217 71.2742 59.7687 71.9121 59.4011C72.3643 59.1393 72.5367 59.3032 72.5389 59.7438C72.5411 60.4746 71.9873 61.4364 71.3538 61.8018Z" fill="black"/>
</svg>
