<svg width="93" height="92" viewBox="0 0 93 92" fill="none" xmlns="http://www.w3.org/2000/svg">
<rect x="0.5" width="92" height="92" rx="46" fill="white"/>
<path d="M30.6592 49.8095C30.6603 50.1213 30.9135 50.3739 31.2253 50.3739C31.5381 50.3728 31.7924 50.1191 31.7913 49.8062L31.746 33.0926L39.1441 37.3914L39.2367 71.6183L31.8388 67.3197L31.8145 58.2028C31.8134 57.8911 31.5602 57.6384 31.2485 57.6384C30.9356 57.6395 30.6813 57.8933 30.6824 58.2061L30.7079 67.6475C30.7079 67.8487 30.8151 68.0344 30.9898 68.135L39.5213 73.0928C39.5211 73.0927 39.5215 73.093 39.5213 73.0928C39.5219 73.0932 39.5229 73.0941 39.5235 73.0945C39.6108 73.1448 39.7081 73.1697 39.8054 73.1697C39.9027 73.1697 40.0011 73.1442 40.0884 73.0939L62.1053 60.3829C62.2811 60.2812 62.3883 60.0938 62.3883 59.891L62.2921 24.3522C62.2921 24.2743 62.2632 24.2035 62.2333 24.1343C62.2247 24.1144 62.2272 24.0904 62.2165 24.0716C62.1826 24.0128 62.1262 23.9711 62.0727 23.9273C62.0495 23.9083 62.0366 23.8799 62.0102 23.8647L62.0089 23.8639C62.0085 23.8637 62.0084 23.8632 62.008 23.863C62.0077 23.8628 62.0072 23.8629 62.0068 23.8627L53.4776 18.9069C53.3041 18.8052 53.0863 18.8052 52.9105 18.9058L30.8947 31.6173C30.8071 31.668 30.7363 31.7403 30.6874 31.8252C30.6793 31.8393 30.6816 31.8575 30.6748 31.8722C30.6404 31.9457 30.6117 32.023 30.6117 32.107C30.6117 32.1075 30.612 32.1077 30.612 32.1081C30.612 32.1086 30.6117 32.1088 30.6117 32.1093L30.6592 49.8095ZM40.3692 71.6247L40.2763 37.3917L61.1623 25.3331L61.2551 59.5665L40.3692 71.6247ZM53.1924 20.05L60.5962 24.3522L52.2479 29.1724L39.71 36.4113L33.013 32.5198L32.3065 32.1093L53.1924 20.05Z" fill="black"/>
<path d="M31.243 55.7982C31.5548 55.7971 31.8079 55.5429 31.8068 55.2306L31.798 52.3539C31.7969 52.0416 31.5437 51.7896 31.2319 51.7896H31.2297C30.918 51.7907 30.6648 52.0449 30.6659 52.3572L30.6747 55.2339C30.6758 55.5462 30.929 55.7982 31.2408 55.7982H31.243Z" fill="black"/>
<path d="M59.379 29.7831C59.379 29.5814 59.2706 29.3951 59.0949 29.2945C58.9202 29.1928 58.7046 29.1939 58.5299 29.2945L42.4023 38.6059C42.2265 38.7076 42.1193 38.895 42.1193 39.0979L42.1524 51.4562C42.1524 51.658 42.2608 51.8442 42.4366 51.9448C42.5239 51.9957 42.6212 52.0206 42.7185 52.0206C42.8158 52.0206 42.9141 51.9952 43.0015 51.9448L59.1291 42.6334C59.3049 42.5317 59.4122 42.3443 59.4122 42.1415L59.379 29.7831ZM43.2823 50.4756L43.2524 39.4224L58.2491 30.7638L58.279 41.817L43.2823 50.4756Z" fill="black"/>
<path d="M51.0598 38.2925C51.3727 38.292 51.627 38.0377 51.6259 37.7248L51.6255 37.5529C51.6255 37.5521 51.6259 37.5514 51.6259 37.5507L51.6226 36.4407C51.6215 36.1284 51.3683 35.8763 51.0565 35.8763C51.0561 35.8763 51.0549 35.8763 51.0543 35.8763C51.0171 35.8765 50.9846 35.8909 50.9494 35.8979C50.6893 35.9496 50.4895 36.1688 50.4905 36.444L50.4938 37.7281C50.4949 38.0399 50.7481 38.2925 51.0598 38.2925Z" fill="black"/>
<path d="M54.6439 36.6596C54.7998 36.3888 54.7058 36.0427 54.435 35.8868C54.1652 35.731 53.8181 35.8238 53.6622 36.0958L52.9834 37.2771C52.8275 37.5479 52.9215 37.894 53.1924 38.0498C53.2808 38.1007 53.3781 38.125 53.4743 38.125C53.6699 38.125 53.8601 38.0233 53.9651 37.8409L54.6439 36.6596Z" fill="black"/>
<path d="M55.0575 38.9581L54.0912 39.5158C53.8204 39.6722 53.7275 40.0183 53.8845 40.2891C53.9884 40.4704 54.1797 40.5722 54.3742 40.5722C54.4704 40.5722 54.5677 40.5478 54.6573 40.4964L55.6235 39.9387C55.8944 39.7822 55.9872 39.4362 55.8302 39.1654C55.6755 38.8939 55.3272 38.8011 55.0575 38.9581Z" fill="black"/>
<path d="M46.8742 43.6915L45.908 44.2492C45.6371 44.4056 45.5443 44.7517 45.7013 45.0225C45.8052 45.2038 45.9964 45.3056 46.191 45.3056C46.2872 45.3056 46.3845 45.2812 46.474 45.2298L47.4403 44.6721C47.7111 44.5156 47.804 44.1696 47.647 43.8988C47.4911 43.6279 47.1451 43.535 46.8742 43.6915Z" fill="black"/>
<path d="M48.7636 40.4473L47.6647 39.821C47.6335 39.8033 47.5994 39.8 47.5666 39.7888C47.3153 39.7012 47.0298 39.7906 46.8919 40.0321C46.8532 40.1002 46.8301 40.1729 46.8215 40.246C46.7957 40.4651 46.8999 40.6888 47.1031 40.8049L47.7772 41.1891L47.7907 41.1968L48.202 41.4312C48.2904 41.4815 48.3877 41.5053 48.4828 41.5053C48.6785 41.5053 48.8697 41.4024 48.9748 41.2195C49.1295 40.9481 49.0345 40.602 48.7636 40.4473Z" fill="black"/>
<path d="M52.4307 39.2108C52.1454 39.0842 51.8115 39.2102 51.6833 39.496L50.7564 41.5652C50.5703 41.5942 50.3806 41.6523 50.193 41.7601C49.4192 42.2068 48.8376 43.2139 48.841 44.1028C48.8432 44.6346 49.061 45.0641 49.4391 45.2819C49.6082 45.3791 49.7984 45.4272 49.9974 45.4272C50.2461 45.4272 50.5092 45.3526 50.7657 45.2045C51.5374 44.7589 52.1189 43.7523 52.1178 42.8618C52.1163 42.4987 52.0072 42.1894 51.8212 41.9567L52.7159 39.9592C52.8441 39.6734 52.7159 39.339 52.4307 39.2108ZM50.1997 44.2238C50.0814 44.2924 50.0084 44.2985 50.0139 44.3084C50.004 44.2963 49.973 44.2316 49.973 44.0995C49.9719 43.618 50.339 42.9834 50.7591 42.7408C50.8763 42.6728 50.9492 42.6672 50.9448 42.6584C50.9548 42.6706 50.9857 42.7341 50.9857 42.8646C50.9868 43.3466 50.6198 43.9817 50.1997 44.2238Z" fill="black"/>
<path d="M55.8258 50.9576C55.8138 50.9507 55.8006 50.9467 55.7885 50.94L53.1415 49.3972C52.026 48.7515 50.5943 48.8715 49.1118 49.7261C46.2728 51.3667 43.9777 55.3488 43.9953 58.6002C43.9953 60.3022 44.6012 61.5841 45.6968 62.2076L48.3788 63.7698C48.3832 63.7725 48.3877 63.7753 48.3921 63.7781C48.3965 63.7806 48.4016 63.7794 48.406 63.7818C48.8703 64.0481 49.3912 64.181 49.9498 64.181C50.717 64.181 51.555 63.9312 52.4129 63.4359C55.2464 61.8002 57.5438 57.8197 57.536 54.5623C57.5316 52.8697 56.9236 51.5895 55.8258 50.9576ZM46.2617 61.2265C45.5298 60.8102 45.1274 59.8777 45.1274 58.5969C45.1119 55.7546 47.1959 52.1411 49.6778 50.7067C50.3533 50.317 50.9956 50.1202 51.5628 50.1202C51.9365 50.1202 52.277 50.2053 52.5732 50.3767L53.1603 50.7188C53.1329 50.7264 53.1049 50.7401 53.0775 50.7483C52.9263 50.7937 52.7736 50.8487 52.6197 50.9109C52.5614 50.9343 52.5038 50.9547 52.4453 50.9805C52.237 51.0726 52.0274 51.1755 51.8159 51.2976C51.1107 51.7048 50.4391 52.2578 49.8276 52.908C49.8274 52.9082 49.8278 52.9078 49.8276 52.908C48.6372 54.1739 47.6848 55.8117 47.1542 57.4705C47.1364 57.5258 47.11 57.58 47.0933 57.6354C47.0432 57.8011 47.0188 57.9654 46.9776 58.1309C46.8049 58.8226 46.6895 59.5118 46.6895 60.1707C46.6895 60.5574 46.7329 60.9179 46.7978 61.2625C46.8077 61.316 46.8158 61.3704 46.8271 61.4228C46.8378 61.4711 46.8423 61.524 46.8543 61.5714L46.2617 61.2265ZM51.8469 62.4553C50.7281 63.1004 49.7055 63.2242 48.9648 62.7985C48.8233 62.717 48.7051 62.6003 48.5886 62.4816C48.5537 62.4458 48.5094 62.4247 48.4768 62.3857C48.4154 62.3128 48.3741 62.2141 48.3211 62.1302C48.2522 62.021 48.1747 61.9228 48.1199 61.7964C47.9285 61.3519 47.8266 60.8027 47.8249 60.1685C47.8234 59.6732 47.9013 59.1576 48.0121 58.6383C48.554 56.1142 50.3005 53.476 52.3908 52.2754C52.5841 52.1625 52.7728 52.0856 52.9617 52.0052C53.0392 51.9723 53.1205 51.922 53.1966 51.8946C53.7751 51.6867 54.3113 51.6537 54.7771 51.7686L52.9491 55.597C52.8143 55.879 52.9337 56.2167 53.2156 56.3516C53.2952 56.3892 53.3781 56.4069 53.4599 56.4069C53.671 56.4069 53.8734 56.288 53.9706 56.0846L55.752 52.3539C56.1734 52.8539 56.4015 53.6147 56.4039 54.5656C56.4117 57.461 54.3664 61.0009 51.8469 62.4553Z" fill="black"/>
</svg>
