<svg width="93" height="92" viewBox="0 0 93 92" fill="none" xmlns="http://www.w3.org/2000/svg">
<path d="M47.8418 18.7349L49.2649 17.9127C49.6802 17.6737 49.8226 17.1431 49.5828 16.7278C49.3421 16.3125 48.8106 16.1684 48.397 16.4108L46.9739 17.233C46.5586 17.472 46.4162 18.0026 46.6561 18.4179C46.8977 18.8351 47.4314 18.9745 47.8418 18.7349Z" fill="white"/>
<path d="M85.7984 53.8095C85.4691 53.5481 72.4557 46.5149 72.2565 46.4064C72.4623 45.6954 72.6675 44.982 72.8335 44.242L76.7706 42.3774C77.0749 42.2333 77.2681 41.9264 77.2673 41.5908L77.2325 29.1974C77.1744 29.0196 77.1972 28.6712 76.8045 28.4431L72.8805 26.1645C73.7431 24.823 74.3011 24.0354 74.4578 23.7063C74.6704 23.2656 74.5121 22.7982 74.1193 22.5778C53.35 10.6512 60.5134 14.7647 58.9637 13.8748C58.5433 13.6341 58.0109 13.801 57.7822 14.1969C57.6818 14.3706 56.3557 16.9812 56.4588 16.8073L52.5331 14.5258C52.2619 14.3698 51.9305 14.3698 51.6626 14.5258L50.5387 15.175C50.1243 15.4141 49.9819 15.9446 50.2217 16.36C50.4608 16.7736 50.9913 16.9177 51.4084 16.677L52.0957 16.2803C52.6652 16.6113 58.1807 19.8172 57.8585 19.6299L48.801 24.8581L43.0374 21.5085L45.6567 19.9961C46.072 19.7571 46.2144 19.2265 45.9745 18.8112C45.7329 18.3959 45.2024 18.2518 44.7887 18.4942C43.8017 19.0637 41.8277 20.203 40.8407 20.7725C40.6911 20.8673 40.4362 21.2451 40.4355 21.5065C40.4351 21.6813 40.7987 26.0784 40.8042 25.9037C39.763 26.8626 38.7749 27.911 37.8327 29.006C34.2262 26.909 30.53 24.8368 30.6002 24.8765C29.9788 24.5128 29.2463 24.317 28.5358 24.2874L5.80587 21.6862C5.46599 21.654 5.13458 21.8133 4.95998 22.1066C4.78622 22.4015 4.80148 22.7728 4.99982 23.0508C7.69891 26.849 18.5131 42.1183 18.7503 42.3967C19.075 42.7784 19.4444 43.1103 19.8783 43.3622L28.0381 47.8084L24.251 49.592C24.0515 49.6859 23.7675 50.0247 23.7534 50.3395C23.7453 50.5205 23.7669 62.9696 23.7967 62.7922C23.7975 63.1007 23.9619 63.3855 24.2281 63.5415L28.1485 65.8199L26.6293 68.1642C26.4996 68.3625 26.4581 68.6066 26.5132 68.8372C26.5683 69.0677 26.7157 69.2661 26.9208 69.3864C28.4696 70.2798 21.3103 66.1502 42.068 78.1233C42.4974 78.3655 43.0455 78.209 43.2724 77.7622L44.5793 75.1889L48.5054 77.4622C48.7433 77.6007 49.0752 77.6219 49.3462 77.4774C49.5205 77.3844 60.3434 71.1529 60.169 71.2274C60.4614 71.0595 60.6292 70.7358 60.5995 70.4001L60.2207 66.091C60.6409 65.7043 61.0489 65.2866 61.4569 64.8725C85.0861 77.7077 55.8458 61.8291 75.0028 72.2201C76.827 73.2525 78.9675 72.7619 80.783 71.7139C84.9336 69.3203 88.1739 63.7059 88.1604 58.9357C88.1538 56.55 87.3081 54.7474 85.7984 53.8095ZM43.8006 53.3155C43.9403 51.6632 44.3487 50.0088 44.8525 48.518C45.7738 45.7936 47.2144 43.1002 49.0332 40.7805C49.982 39.5711 51.0303 38.4667 52.1487 37.508C52.1622 37.4965 52.1756 37.4847 52.189 37.4732C52.1958 37.4677 52.2024 37.4624 52.2092 37.4569C52.4688 37.5984 75.6148 50.2178 75.0638 49.9173C74.5298 50.0954 73.9845 50.3427 73.4336 50.6633C69.3483 53.0179 66.0376 58.7425 66.0529 63.4296C66.058 64.2118 66.181 64.9063 66.3564 65.556C62.7022 63.5514 46.7061 54.8902 43.8006 53.3155ZM53.7202 60.678C50.9983 62.1599 48.5015 62.3994 46.6577 61.3378C44.8826 60.317 43.8527 58.1699 43.7268 55.26L53.7202 60.678ZM64.9489 42.4143L53.712 36.285C56.1079 34.5653 59.4859 33.2954 62.0413 34.7678C63.9272 35.8561 64.9697 38.2242 64.9773 41.4382C64.9773 41.7619 64.9677 42.0873 64.9489 42.4143ZM69.3958 67.1522C68.371 66.5589 67.8006 65.2333 67.7887 63.4211C67.7752 59.3629 70.757 54.2096 74.3024 52.1669C75.4613 51.493 76.7858 51.0518 78.0311 51.5352L81.5467 53.4519C81.1205 53.5868 80.4222 53.8852 79.8812 54.196C76.7131 56.0365 73.5197 60.3113 72.7032 64.8653C72.4618 66.1996 72.3939 67.293 72.6511 68.6304C72.6585 68.6687 72.6637 68.7085 72.6717 68.7464C72.6879 68.8239 72.6953 68.9085 72.7137 68.9843L69.3958 67.1522ZM74.74 29.2521L72.5072 30.7672C72.1928 29.9247 71.8165 29.1551 71.3808 28.4634L71.9306 27.6207L74.74 29.2521ZM58.8951 15.8446C59.0715 15.9472 65.2829 19.5554 64.8878 19.3259L62.7329 23.5441C62.246 23.5296 60.7438 23.6416 60.1647 23.7407L60.4622 19.6977C60.4332 19.5239 60.4165 19.1226 60.0579 18.8976C59.8833 18.7881 57.7883 17.5705 57.9623 17.681L58.8951 15.8446ZM42.5314 25.7302L42.3098 23.0976L47.9657 26.3846L48.1882 29.0176L42.5314 25.7302ZM41.8343 27.3342L47.7543 30.7748C46.8906 31.6345 46.5776 31.8555 45.0439 33.6676C44.8686 33.5291 42.6335 31.7627 42.8088 31.9012L39.3441 29.8854C40.1349 28.9839 40.9729 28.1367 41.8343 27.3342ZM30.8984 44.5553L34.3296 46.5492C34.5237 46.6241 37.1859 47.6523 37.0113 47.5849C36.6173 48.6849 36.1918 50.1013 35.88 51.3566L29.9551 47.9118C30.2151 46.7994 30.5218 45.6773 30.8984 44.5553ZM34.4506 44.6104C34.2748 44.5083 28.2852 41.0293 28.4609 41.1314L35.1882 29.4754C35.4644 29.6363 41.5685 33.1893 41.1787 32.9624C41.0773 33.138 34.0021 45.3867 34.4506 44.6104ZM13.8397 24.3533L24.4613 25.5692C20.6774 27.9314 17.6537 33.1156 17.4312 37.5708L11.0751 28.6129C11.3034 27.0728 12.3905 25.3953 13.8397 24.3533ZM11.5287 24.0887C10.7775 24.896 10.18 25.8315 9.78982 26.8018L7.54087 23.6322L11.5287 24.0887ZM19.1222 38.1174C19.1087 34.0575 22.0905 28.9042 25.6351 26.8615C26.8415 26.1604 28.5272 25.6731 29.7357 26.3818L33.6821 28.6122L26.525 41.0127C26.286 41.4264 26.4276 41.957 26.8412 42.1977L29.3816 43.6738C29.0972 44.4981 28.8436 45.3221 28.6181 46.1463L20.7293 41.8485C19.535 41.1549 19.1308 39.5249 19.1222 38.1174ZM28.9121 49.3149L34.5824 52.6117L32.1635 53.7618L26.4852 50.4582L28.9121 49.3149ZM25.502 51.8991C25.7492 52.0427 31.4933 55.381 31.2517 55.2406L31.2801 65.628C31.1043 65.526 25.1527 62.0709 25.5308 62.2905L25.502 51.8991ZM29.6506 66.6928C29.8334 66.7991 31.5584 67.8015 31.7478 67.9116C32.0122 68.05 32.3608 68.0311 32.592 67.8964C32.7662 67.7949 36.1926 65.4649 36.0188 65.5611C36.3372 66.4071 36.7112 67.1771 37.1376 67.8608C37.021 68.0406 34.4059 72.0719 34.5677 71.8224L28.5813 68.3422L29.6506 66.6928ZM45.7906 72.8038C46.5989 72.8188 47.4602 72.7595 48.3655 72.6021L48.174 75.2653L45.3665 73.639L45.7906 72.8038ZM58.8222 70.0018L49.9242 75.1381L50.1853 71.5834C50.2299 70.974 49.67 70.548 49.1165 70.6747C47.7358 71.0087 46.4703 71.1307 45.349 71.0358C44.9983 71.0031 44.6906 71.186 44.5253 71.4827C44.2788 71.9253 42.0456 76.3449 42.1375 76.1637L36.0713 72.6954C36.1849 72.5209 39.0927 68.0533 38.9091 68.3354C39.1023 68.0388 39.0964 67.654 38.8929 67.3641C38.2454 66.4402 37.7157 65.2892 37.319 63.9449C37.1467 63.3569 36.4537 63.1558 35.9857 63.4771L33.0214 65.5007L32.9928 55.2956C34.0898 54.776 37.0332 53.3595 36.8535 53.4543C37.1019 53.3233 37.2692 53.0393 37.3063 52.8653C37.7918 50.5895 38.8154 47.709 38.9379 47.3933C39.11 46.9471 38.8899 46.4403 38.4378 46.2695L38.4344 46.2682C38.4331 46.2677 38.4323 46.2665 38.431 46.2661L36.0349 45.3591C36.1364 45.1836 43.0561 33.2177 42.6231 33.9665C42.7982 34.1051 44.8113 35.698 44.6362 35.5594C44.9141 35.7809 45.5157 35.8303 45.844 35.434C48.8372 32.0178 49.9582 31.086 49.7844 31.2452C49.9932 31.0539 50.0782 30.7052 50.0632 30.5315L49.7106 26.3428L58.6111 21.2047L58.3559 24.6684C58.2283 25.3339 58.8731 25.8006 59.4155 25.6715C60.0378 25.5144 61.9681 25.2073 63.1592 25.324C63.5829 25.3444 63.9236 25.0306 64.0145 24.8544L66.397 20.1944C66.571 20.2933 72.8572 23.8633 72.4572 23.6361L69.6136 27.9956C69.4186 28.2956 69.4271 28.6838 69.6339 28.9737C70.2976 29.9043 70.8273 31.0486 71.2087 32.3725C71.3717 32.9347 72.0388 33.1829 72.5301 32.8505L75.5009 30.8333L75.5297 41.0433L71.7054 42.8554C71.4605 42.9724 71.2842 43.1944 71.2274 43.4589C71.0765 44.1708 70.9044 44.8726 70.7146 45.5592L66.5901 43.3095C66.6517 42.6838 66.7132 42.0561 66.7132 41.4365C66.7038 37.5766 65.3528 34.6728 62.9084 33.2641C57.9256 30.3917 51.5646 34.8613 47.8896 39.4401C42.5919 46.0362 38.7701 58.8019 45.7923 62.8431C48.629 64.4741 52.0431 63.6504 54.8936 62.0108C55.0882 61.8977 55.2806 61.7579 55.4774 61.6307L59.8792 64.0172C59.5039 64.3889 59.1211 64.7493 58.7391 65.0926C58.5357 65.2756 58.4306 65.5418 58.4543 65.8147L58.8222 70.0018ZM79.9151 70.212C75.9324 72.5084 73.5585 69.8996 74.4081 65.1728C75.0718 61.5312 77.6157 57.519 80.7373 55.7149C83.8603 53.9126 86.4136 55.0706 86.4245 58.9391C86.4364 63.077 83.5165 68.1337 79.9151 70.212Z" fill="white"/>
</svg>
