<svg width="93" height="92" viewBox="0 0 93 92" fill="none" xmlns="http://www.w3.org/2000/svg">
<path d="M9.63458 82.4573C9.63631 82.7717 9.80217 83.062 10.0752 83.2192L18.8885 88.3412C18.8882 88.341 18.8888 88.3414 18.8885 88.3412C18.8895 88.3417 18.891 88.3432 18.8919 88.3438C19.1648 88.5009 19.5018 88.5001 19.7748 88.3429L83.0404 51.8171C83.3151 51.6581 83.4844 51.3653 83.4827 51.0482L83.3652 9.54129C83.3642 9.36379 83.2576 8.97249 82.9246 8.77934L82.9226 8.77816C82.922 8.77783 82.9218 8.77708 82.9212 8.77675C82.9206 8.77643 82.9199 8.77654 82.9193 8.77621L74.1113 3.65825C73.84 3.4993 73.4997 3.4993 73.2249 3.65652L68.0866 6.62223C67.6633 6.86671 67.5181 7.4075 67.7635 7.8308C68.0071 8.2541 68.5479 8.39751 68.9712 8.15476L73.6655 5.44476L80.7148 9.54129C46.5242 29.2812 29.346 39.199 19.2162 45.0474L12.1675 40.9512L54.0312 16.7806C54.4545 16.5361 54.5996 15.9954 54.3543 15.5721C54.1107 15.147 53.5682 15.0045 53.1466 15.2481L9.9594 40.1823C9.68282 40.3425 9.51709 40.637 9.51709 40.9477C9.51709 40.9484 9.51752 40.9488 9.51752 40.9495C9.51752 40.9501 9.51709 40.9505 9.51709 40.9512L9.63458 82.4573ZM11.4021 81.945L11.2915 42.4881C11.8289 42.8004 18.7588 46.8273 18.3318 46.5792L18.3613 56.965L18.4427 86.0372L11.4021 81.945ZM20.2128 86.0462L20.1284 56.213L20.1014 46.5796C34.5304 38.2493 66.9742 19.5184 81.6012 11.0738L81.7117 50.5411L20.2128 86.0462Z" fill="white"/>
<path d="M59.7846 13.459L64.4616 10.7585C64.8849 10.514 65.0301 9.97325 64.7847 9.54995C64.5411 9.12405 63.9986 8.98238 63.577 9.22599L58.9 11.9265C58.4767 12.171 58.3315 12.7118 58.5769 13.1351C58.8177 13.5565 59.3588 13.7034 59.7846 13.459Z" fill="white"/>
<path d="M77.6981 16.9033L23.144 48.3987C22.8693 48.5576 22.6999 48.8505 22.7017 49.1675L22.7881 79.4535C22.7918 80.1387 23.5307 80.5537 24.115 80.2172L78.6674 48.7218C78.9421 48.5628 79.1115 48.27 79.1097 47.9529L79.0251 17.6669C79.0214 16.9879 78.2879 16.5636 77.6981 16.9033ZM24.5521 77.921L24.4726 49.6746L77.2593 19.1995L77.3388 47.4458L24.5521 77.921Z" fill="white"/>
<path d="M71.9361 33.0346C70.9806 32.4834 69.7712 32.5741 68.5358 33.286C66.2915 34.5818 64.5395 37.6106 64.5447 40.1823C64.5499 41.587 65.0768 42.6626 66.0306 43.2111C67.0955 43.8241 68.3815 43.577 69.4429 42.964C71.6786 41.6734 73.4237 38.6481 73.4185 36.0763C73.4133 34.6621 72.8881 33.5814 71.9361 33.0346ZM68.5583 41.4315C67.8983 41.8116 67.297 41.9015 66.9135 41.6777C66.5351 41.46 66.3156 40.9132 66.3139 40.178C66.3087 38.2473 67.7324 35.793 69.4204 34.8185C70.077 34.4393 70.6748 34.3503 71.0549 34.568C71.4298 34.7839 71.6475 35.336 71.6493 36.0806C71.6544 38.0114 70.2377 40.4614 68.5583 41.4315Z" fill="white"/>
<path d="M35.7842 53.9068C34.827 53.3548 33.6193 53.4463 32.384 54.1582C30.1396 55.454 28.3877 58.4828 28.3928 61.0545C28.398 62.4592 28.925 63.5347 29.8787 64.0833C30.9422 64.6955 32.2279 64.4478 33.291 63.8354C35.5268 62.5456 37.2718 59.5211 37.2666 56.9485C37.2614 55.5343 36.7362 54.4536 35.7842 53.9068ZM32.4064 62.3028C31.7516 62.6821 31.1503 62.7737 30.7616 62.5499C30.3832 62.3322 30.1638 61.7854 30.1621 61.0502C30.1569 59.1194 31.5806 56.6651 33.2686 55.6907C33.9251 55.3123 34.5229 55.2225 34.9031 55.4402C35.278 55.6561 35.4957 56.2082 35.4974 56.9528C35.5026 58.8836 34.0858 61.3336 32.4064 62.3028Z" fill="white"/>
<path d="M50.4531 37.5604C45.2767 40.5495 41.0782 47.8026 41.0938 53.7297C41.1117 60.0209 45.8607 62.7617 51.3965 59.5644C56.5521 56.5866 60.7333 49.3429 60.7177 43.4167C60.6998 37.069 55.9762 34.3725 50.4531 37.5604ZM50.5118 58.0318C46.1929 60.5297 42.8774 58.6758 42.863 53.7245C42.8492 48.3624 46.6503 41.7986 51.3377 39.093C55.6735 36.5872 58.9342 38.4451 58.9485 43.4219C58.9641 48.7831 55.1785 55.3374 50.5118 58.0318Z" fill="white"/>
<path d="M52.6818 47.6558C52.0529 47.2929 51.246 47.3422 50.4668 47.7888C50.2042 47.9409 50.0452 47.9409 50.0107 47.9227C49.9934 47.9123 49.9035 47.7931 49.9018 47.4752C49.9001 46.5949 50.5705 45.433 51.3376 44.9898C51.595 44.8395 51.7592 44.8421 51.7868 44.8585C51.8162 44.8749 51.8974 45.0123 51.8974 45.3069C51.8991 45.7941 52.2948 46.1889 52.782 46.1889C53.271 46.1872 53.6683 45.7906 53.6666 45.3017C53.6649 44.4084 53.3003 43.688 52.6697 43.3251C52.4014 43.1707 52.0968 43.1069 51.7799 43.1005V42.2168C51.7799 41.7278 51.3842 41.3322 50.8953 41.3322C50.4063 41.3322 50.0107 41.7278 50.0107 42.2168V43.8107C48.9204 44.6743 48.1281 46.1367 48.1326 47.4804C48.1343 48.3728 48.4989 49.0933 49.1278 49.4561C49.7636 49.8207 50.5722 49.7723 51.3514 49.3213C51.6106 49.171 51.773 49.1745 51.7989 49.1892C51.8179 49.1995 51.9078 49.3187 51.9095 49.6384C51.9112 50.5161 51.2443 51.6728 50.4789 52.1143C50.2128 52.2672 50.0539 52.2663 50.021 52.2473C50.0038 52.2378 49.9156 52.1203 49.9139 51.8067C49.9122 51.3186 49.5165 50.9247 49.0293 50.9247C48.5404 50.9264 48.1429 51.323 48.1447 51.8119C48.1464 52.7008 48.5092 53.4187 49.1381 53.7807C49.4027 53.9324 49.6995 54.0069 50.0107 54.0161V54.9037C50.0107 55.3927 50.4063 55.7884 50.8953 55.7884C51.3842 55.7884 51.7799 55.3927 51.7799 54.9037V53.3117C52.8677 52.4554 53.6834 50.9602 53.6787 49.6332C53.677 48.7399 53.3124 48.0186 52.6818 47.6558Z" fill="white"/>
</svg>
