<svg width="93" height="92" viewBox="0 0 93 92" fill="none" xmlns="http://www.w3.org/2000/svg">
<path d="M74.327 35.841L70.673 33.7308C70.6737 33.3106 70.6957 20.7077 70.6943 21.5122C70.6961 21.4892 70.7116 21.4703 70.7116 21.447C70.7116 21.1317 70.5423 20.8397 70.2693 20.6816L65.2096 17.7625C64.9349 17.6053 64.5988 17.6045 64.3241 17.7634L58.2099 21.3033L58.2389 14.25C58.2406 13.933 58.0722 13.6401 57.7975 13.4811C57.7879 13.4755 57.7761 13.4779 57.7663 13.4727L53.1293 10.798L53.1083 4.42334C53.1074 4.10802 52.9381 3.8169 52.6651 3.65967C52.3913 3.50158 52.0544 3.50331 51.7822 3.65967C28.8486 16.8796 54.4846 2.10005 31.551 15.335C31.2763 15.494 31.1078 15.7868 31.1087 16.1039L31.1254 22.5528L22.393 27.6186C19.8112 29.1174 18.3862 31.1597 18.3669 33.373C18.3664 33.3842 18.3604 33.3935 18.3604 33.4049L18.3314 44.4144C18.331 44.4255 18.325 44.4349 18.325 44.4461C18.2042 93.6915 18.2459 76.7067 18.2368 80.381C18.2368 82.6332 19.6873 84.7203 22.3247 86.2606C27.4421 89.2037 35.6805 89.1796 40.6943 86.2563L51.4764 79.9111C52.5996 79.267 71.3459 68.5132 70.1467 69.2041C70.4196 69.046 70.5872 68.7558 70.5881 68.4405C70.5887 68.2624 70.6422 52.5326 70.6398 53.2188L74.2898 51.0851C74.5602 50.927 74.727 50.6376 74.7278 50.324L74.763 36.7167C74.7629 36.717 74.7631 36.7163 74.763 36.7167C74.7414 36.3203 74.6398 36.0215 74.327 35.841ZM72.1197 36.6096L70.663 37.457L70.6675 35.771L72.1197 36.6096ZM58.2916 46.9454C58.2916 46.9497 58.2916 46.954 58.2916 46.9583L58.2743 56.0895C58.2743 58.2352 60.5247 59.0656 61.9916 58.2346C62.174 58.129 69.2938 54.0069 68.8508 54.2634L68.8442 57.1771L39.8374 73.9719C35.2795 76.618 27.8285 76.6162 23.2292 73.9736C21.174 72.7728 20.0415 71.2282 20.0415 69.6257C20.0465 67.4654 20.0235 77.4516 20.0902 48.4976C20.7192 49.1621 21.5044 49.7688 22.4293 50.2912C27.5072 53.2301 35.7374 53.2284 40.7773 50.2912L68.8995 34.0252L68.8906 38.4879L60.3243 43.4708C59.0942 44.1861 58.3149 45.5174 58.2916 46.9454ZM22.6361 39.3584C27.7217 42.1923 35.8177 42.1702 40.8127 39.2689L68.9217 22.9941L68.9036 31.9792L39.8883 48.7612C35.3365 51.4151 27.9011 51.4133 23.3078 48.756C21.2962 47.6183 20.1351 46.078 20.1007 44.5187L20.1192 37.4824C20.6165 38.006 21.5237 38.7411 22.6361 39.3584ZM53.1733 24.2193L53.1519 17.7069L56.4636 15.786L56.4364 22.3301L53.1733 24.2193ZM46.2819 8.8759L46.1705 28.2656C45.7073 28.534 47.2614 27.6345 42.5483 30.3617L42.6743 10.958L46.2819 8.8759ZM55.5686 14.2474L53.1451 15.6492L53.136 12.8445L55.5686 14.2474ZM51.4073 25.2343L47.946 27.2385L48.0569 7.85144L51.3443 5.95414C51.35 7.69698 51.408 25.4131 51.4073 25.2343ZM40.8984 11.983L40.772 31.3921C40.5623 31.5135 34.5093 35.0185 34.8657 34.8121C34.2706 35.1541 33.6058 35.3196 32.928 35.4401C32.8633 2.27613 32.9648 49.6379 32.8796 16.611L40.8984 11.983ZM28.3391 32.0684L31.1458 30.4489L31.1591 35.5508C30.1211 35.4921 29.1147 35.2553 28.3589 34.819C26.9307 33.9862 26.8835 32.9098 28.3391 32.0684ZM23.281 29.1485L31.1307 24.5954L31.1405 28.3922L27.4303 30.5394C24.922 32.0141 24.7589 34.7693 27.4717 36.3498C29.4317 37.4824 33.0521 37.8128 35.7538 36.349C45.9549 30.4429 59.6555 22.5108 64.7681 19.5508L68.051 21.4446L39.9255 37.739C35.4727 40.3238 28.2673 40.3626 23.6513 37.8877C21.8777 36.9319 20.1333 35.4516 20.1322 33.4204C20.1305 31.8456 21.2492 30.3286 23.281 29.1485ZM50.5901 78.3794L39.8002 84.729C35.2579 87.3776 27.8147 87.3768 23.2119 84.7298C21.1447 83.523 20.0061 81.9784 20.0061 80.3836L20.0238 73.6873C20.6447 74.3497 21.4157 74.963 22.3429 75.5044C27.4333 78.4315 35.6807 78.4315 40.7246 75.5027L68.8395 59.2244L68.8197 67.9282L50.5901 78.3794ZM72.9603 49.8134C72.7817 49.9173 60.3213 57.1586 61.1113 56.6994C60.6347 56.9663 60.0436 56.6296 60.0436 56.0913L60.0608 46.9747C60.072 46.27 60.4804 45.4268 61.2141 44.9999C61.3925 44.8961 73.1667 38.0472 72.9897 38.1502L72.9603 49.8134Z" fill="white"/>
<path d="M65.7806 44.9507C64.3353 45.7852 63.2071 47.7358 63.2114 49.3936C63.2187 51.4236 64.918 52.3822 66.6791 51.3676C68.1157 50.5383 69.2362 48.5902 69.231 46.9341C69.2255 44.9119 67.5348 43.9366 65.7806 44.9507ZM65.7944 49.8351C65.2458 50.155 64.9824 50.0708 64.9807 49.3884C64.9781 48.3604 65.7651 47.0024 66.6652 46.4832C67.2753 46.1317 67.4602 46.3343 67.4617 46.9393C67.4652 47.9673 66.686 49.3202 65.7944 49.8351Z" fill="white"/>
</svg>
