<svg width="93" height="92" viewBox="0 0 93 92" fill="none" xmlns="http://www.w3.org/2000/svg">
<path d="M27.5976 76.8432L23.006 74.1756C22.5853 73.9302 22.0428 74.0728 21.7975 74.4961C21.5513 74.9185 21.6955 75.4593 22.118 75.7046L26.7095 78.3723C27.1267 78.6159 27.6708 78.4786 27.9181 78.0518C28.1643 77.6294 28.02 77.0886 27.5976 76.8432Z" fill="white"/>
<path d="M81.0294 66.8835L80.9128 22.6302C80.9118 22.3254 80.6314 21.9603 80.4731 21.8683L49.1366 3.65853C48.8628 3.49871 48.5242 3.49871 48.2503 3.6568L12.413 24.3476C12.1365 24.5078 11.9715 24.8024 11.9707 25.113C11.9707 25.1137 11.9711 25.1141 11.9711 25.1148C11.9711 25.1154 11.9707 25.1159 11.9707 25.1165L12.0873 69.3689C12.0882 69.6833 12.2558 69.9736 12.527 70.1308L18.0879 73.3626C18.5086 73.6071 19.0528 73.4663 19.2973 73.043C19.5435 72.6205 19.3992 72.0789 18.9777 71.8335L13.8548 68.8566L13.7443 26.6536C17.2491 28.6903 40.6145 42.2682 43.3076 43.8332C43.3381 55.4379 43.4006 79.1851 43.4186 86.0375L32.3756 79.6206C31.9558 79.3752 31.4132 79.5178 31.167 79.9402C30.9208 80.3626 31.0651 80.9043 31.4875 81.1496L43.8626 88.3415C43.8634 88.3419 43.8643 88.3417 43.865 88.3421C43.8646 88.3419 43.8655 88.3423 43.865 88.3421C44.1354 88.4995 44.4752 88.5014 44.7499 88.3432L80.5871 67.6523C80.8619 67.4934 81.0303 67.2005 81.0294 66.8835ZM26.8888 18.033L56.4598 35.2185L44.1922 42.3013L14.6202 25.1165L26.8888 18.033ZM58.2259 34.1989L28.6566 17.0142L34.9897 13.3573L64.5601 30.5418L58.2259 34.1989ZM59.111 35.7331L65.4416 32.0776V35.325L59.111 39.0406V35.7331ZM48.6909 5.44504L78.2633 22.6302L66.3263 29.5221L36.7544 12.3368L48.6909 5.44504ZM45.1882 86.0468C45.1725 80.0742 45.0929 49.7705 45.0773 43.8336L57.3418 36.7526V40.586C57.3418 41.2724 58.0881 41.693 58.6739 41.3489L66.7737 36.594C67.0449 36.4351 67.2108 36.1448 67.2108 35.8312V31.0547C67.6127 30.8227 79.4409 23.9936 79.1479 24.1628L79.2585 66.3764L45.1882 86.0468Z" fill="white"/>
<path d="M61.6914 43.2408C54.8261 47.2052 49.2584 56.8444 49.2808 64.7281C49.3051 72.9529 55.3577 76.5709 62.6537 72.3571C69.4744 68.4191 75.0773 58.7461 75.0548 50.8637C75.0317 42.6314 68.9079 39.0748 61.6914 43.2408ZM62.2855 70.4964L62.2814 69.1098C62.2797 68.6217 61.884 68.2277 61.3968 68.2277H61.3942C60.9052 68.2295 60.5104 68.6268 60.5122 69.1149L60.5192 71.4612C58.6532 72.3046 56.9169 72.5437 55.4376 72.1773L56.6903 69.9952C56.934 69.5711 56.7871 69.0311 56.3638 68.7875C55.9379 68.5439 55.3988 68.6899 55.1561 69.1141L53.8139 71.4519C52.2545 70.3822 51.3067 68.4224 51.0985 65.8109L53.1571 64.6228C53.5804 64.3783 53.7255 63.8375 53.481 63.4142C53.2365 62.9909 52.6932 62.8449 52.2725 63.0902L51.0883 63.7738C51.2494 60.8845 52.1579 57.7986 53.5984 54.9099L54.6723 55.5218C55.0959 55.7627 55.6366 55.6158 55.8792 55.1909C56.121 54.7667 55.9725 54.2259 55.5483 53.984L54.4351 53.3498C56.4028 49.955 59.0794 46.9791 62.0445 45.1112L62.0481 46.5011C62.0499 46.9883 62.4455 47.3831 62.9328 47.3831H62.9354C63.4234 47.3814 63.8191 46.9849 63.8174 46.4959L63.8111 44.143C66.0864 43.1117 68.1706 42.9766 69.8256 43.748L68.4893 46.0743C68.2456 46.4976 68.3925 47.0384 68.8158 47.282C69.2415 47.5253 69.7814 47.3782 70.0235 46.9555L71.2748 44.7771C72.5665 46.0971 73.278 48.1959 73.2855 50.8689C73.2856 50.8911 73.2828 50.9142 73.2828 50.9366L71.169 52.1569C70.7457 52.4014 70.6006 52.9422 70.8451 53.3655C71.0902 53.7899 71.6326 53.9327 72.0536 53.6895L73.132 53.0669C72.7477 56.1065 71.6051 59.2958 69.9345 62.1958L68.8797 61.5948C68.4547 61.3512 67.9148 61.5007 67.6729 61.9257C67.431 62.3499 67.5796 62.8907 68.0037 63.1326L68.9996 63.6999C67.148 66.4935 64.8232 68.9015 62.2855 70.4964Z" fill="white"/>
<path d="M62.9915 54.228L62.8371 51.0063C62.8137 50.5173 62.3766 50.1389 61.911 50.1648C61.4229 50.1882 61.0462 50.6028 61.0696 51.0909L61.2544 54.9472C60.0616 55.8822 59.1841 57.5593 59.188 59.0118C59.1906 59.9574 59.567 60.8542 60.4962 61.2237L58.5401 66.151C58.3604 66.6054 58.5824 67.1194 59.036 67.2999C59.4876 67.4784 60.0028 67.2605 60.185 66.8041L62.4751 61.0354C64.0546 60.2169 65.1522 58.2012 65.148 56.5869C65.1429 55.188 64.2932 54.162 62.9915 54.228ZM61.733 59.4412C61.2054 59.7478 60.959 59.6795 60.9573 59.0067C60.9547 57.9977 61.7244 56.6664 62.6038 56.1584C63.1337 55.8533 63.377 55.9233 63.3787 56.5921C63.3813 57.602 62.6125 58.9341 61.733 59.4412Z" fill="white"/>
</svg>
