<svg width="93" height="92" viewBox="0 0 93 92" fill="none" xmlns="http://www.w3.org/2000/svg">
<path d="M17.4493 66.1014C17.9382 66.0997 18.3356 65.7032 18.3339 65.2142L18.3149 58.5062C18.3132 58.0189 17.9175 57.6241 17.4303 57.6241C16.9413 57.6259 16.5439 58.0224 16.5457 58.5114L16.5647 65.2194C16.5664 65.7066 16.9621 66.1014 17.4493 66.1014Z" fill="white"/>
<path d="M76.3886 10.1037C76.3876 9.92617 76.281 9.53488 75.948 9.34173L75.9459 9.34054C75.9454 9.34022 75.9452 9.33946 75.9445 9.33914C75.944 9.33882 75.9432 9.33892 75.9427 9.3386L66.1689 3.65825C65.8976 3.4993 65.5572 3.4993 65.2825 3.65652L16.9137 31.5824C16.6372 31.7425 16.4714 32.0371 16.4714 32.3478C16.4714 32.3484 16.4719 32.3489 16.4719 32.3495C16.4719 32.3502 16.4714 32.3506 16.4714 32.3512L16.5302 53.2771C16.5319 53.7643 16.9276 54.1591 17.4148 54.1591C17.9038 54.1574 18.3011 53.7608 18.2994 53.2719L18.2458 33.8884C18.5623 34.0723 26.7561 38.8347 26.252 38.5417C26.4247 100.046 26.3577 76.1962 26.3853 86.0372L18.3789 81.3835L18.3478 70.5962C18.3461 70.1081 17.9504 69.7141 17.4632 69.7141C16.9742 69.7159 16.5768 70.1124 16.5786 70.6013L16.6114 81.8957C16.6131 82.2102 16.779 82.5005 17.052 82.6577L26.8311 88.3412C26.8308 88.341 26.8314 88.3414 26.8311 88.3412C26.8321 88.3417 26.8336 88.3432 26.8346 88.3438C27.1075 88.5009 27.4445 88.5001 27.7175 88.3429L76.0862 60.417C76.3609 60.2581 76.5303 59.9652 76.5285 59.6482C76.5186 56.1398 76.3916 11.1638 76.3886 10.1037ZM28.0512 49.1372C28.0507 48.9579 28.0203 38.0853 28.0215 38.542C38.9789 32.2159 63.621 17.989 74.6245 11.6362L74.6539 22.2315C63.6966 28.5576 39.0547 42.7845 28.0512 49.1372ZM65.7231 5.44476L73.7395 10.1034L27.1364 37.0098L19.1201 32.3512L65.7231 5.44476ZM28.1563 86.0467L28.0578 51.1772L74.6591 24.2718L74.7576 59.1411L28.1563 86.0467Z" fill="white"/>
<path d="M61.3846 21.1277C59.8901 21.9907 58.7238 24.0078 58.7273 25.7209C58.7346 27.7872 60.4652 28.7909 62.283 27.7424C63.7724 26.8828 64.9334 24.8683 64.93 23.1552C64.9263 21.0737 63.1952 20.0772 61.3846 21.1277ZM61.3984 26.2099C60.7815 26.5633 60.4997 26.4286 60.4965 25.7149C60.4931 24.6342 61.3224 23.207 62.2692 22.6602C62.8582 22.3214 63.1572 22.405 63.1607 23.1604C63.1642 24.2411 62.3401 25.6665 61.3984 26.2099Z" fill="white"/>
<path d="M53.1795 25.8626C51.685 26.7265 50.517 28.7437 50.524 30.455C50.5276 32.5221 52.2602 33.5258 54.078 32.4774C55.5673 31.6178 56.7284 29.6032 56.7249 27.8902C56.7213 25.8067 54.9899 24.8147 53.1795 25.8626ZM53.1934 30.9448C52.597 31.2864 52.2964 31.1903 52.2932 30.449C52.2897 29.3691 53.1173 27.942 54.0641 27.3951C54.7377 27.0077 54.9526 27.2363 54.9557 27.8953C54.9591 28.9761 54.135 30.4015 53.1934 30.9448Z" fill="white"/>
<path d="M69.5794 16.3937C68.0849 17.2575 66.9169 19.2747 66.9239 20.9861C66.9275 23.0484 68.6548 24.0599 70.4779 23.0084C71.9724 22.1454 73.1386 20.1282 73.1352 18.4151C73.1279 16.3348 71.3957 15.3468 69.5794 16.3937ZM69.5933 21.4759C68.9923 21.8247 68.6963 21.7147 68.6931 20.98C68.6896 19.9002 69.5172 18.473 70.464 17.9262C71.0734 17.5734 71.3627 17.6913 71.3659 18.4212C71.3694 19.5019 70.5401 20.929 69.5933 21.4759Z" fill="white"/>
<path d="M63.4925 53.0343L57.3624 56.5736C56.9391 56.8181 56.7939 57.3588 57.0393 57.7821C57.2801 58.2036 57.8212 58.3505 58.247 58.1061L64.3771 54.5668C64.8004 54.3223 64.9455 53.7815 64.7002 53.3582C64.4566 52.9323 63.9123 52.7889 63.4925 53.0343Z" fill="white"/>
<path d="M66.1187 44.1545L57.3624 49.2099C56.9391 49.4544 56.7939 49.9952 57.0393 50.4185C57.2801 50.8399 57.8212 50.9869 58.247 50.7424L67.0033 45.687C67.4266 45.4425 67.5717 44.9017 67.3264 44.4784C67.0828 44.0525 66.5403 43.91 66.1187 44.1545Z" fill="white"/>
<path d="M69.0231 36.135C68.7794 35.7109 68.2369 35.5666 67.8153 35.8111L57.3624 41.847C56.9391 42.0915 56.7939 42.6323 57.0393 43.0556C57.2801 43.477 57.8212 43.624 58.247 43.3796L68.7 37.3436C69.1233 37.0991 69.2684 36.5583 69.0231 36.135Z" fill="white"/>
<path d="M53.9726 41.3002C53.6996 41.143 53.3627 41.1439 53.0897 41.3011L34.1154 52.256C33.8407 52.4149 33.6714 52.7078 33.6731 53.0248L33.7319 73.7425C33.7336 74.0578 33.9012 74.3489 34.1759 74.507C34.4488 74.6642 34.7858 74.6634 35.0588 74.5061L54.0331 63.5521C54.3078 63.3931 54.4771 63.1003 54.4754 62.7832L54.4166 42.0648C54.4149 41.7494 54.2473 41.4583 53.9726 41.3002ZM46.1977 51.6841L44.99 51.2513C44.6047 51.1131 44.1779 51.2547 43.9533 51.5951L43.1171 52.8547L43.0739 49.1287L46.1458 47.3543L46.1977 51.6841ZM35.4959 72.2099L35.4441 53.5319L41.3157 50.1422L41.3824 55.7452C41.3876 56.1331 41.645 56.4735 42.0165 56.5832C42.4009 56.6953 42.795 56.5385 43.0048 56.2238L45.0453 53.1501L46.7989 53.779C47.0702 53.8766 47.376 53.8334 47.611 53.6667C47.8477 53.4982 47.9859 53.2253 47.9825 52.9359L47.9039 46.3387L52.6526 43.5973L52.7044 62.2761L35.4959 72.2099Z" fill="white"/>
</svg>
