<svg width="93" height="92" viewBox="0 0 93 92" fill="none" xmlns="http://www.w3.org/2000/svg">
<path d="M70.154 73.827C72.3697 75.1353 73.6411 74.0588 73.8186 74.0248L77.186 72.0785C78.1553 71.5161 78.703 70.394 78.7237 68.9202C78.7237 68.9158 78.7237 68.9115 78.7237 68.9072C78.7237 67.6239 78.2992 66.4205 77.9089 65.5717L77.9237 60.461C77.9239 60.4564 77.9272 60.4527 77.9272 60.4481C77.9272 60.1328 77.7579 59.8408 77.4849 59.6835L64.9377 52.4525L64.9172 45.4511C64.9162 45.2736 64.8096 44.8823 64.4766 44.6891L64.4745 44.688C64.474 44.6876 64.4738 44.6869 64.4731 44.6865C64.4726 44.6862 64.4718 44.6863 64.4713 44.686L51.6571 37.2398L51.7084 21.9989C51.7084 21.9966 51.7101 21.9947 51.7101 21.9924C51.7101 21.8154 51.539 21.3788 51.2661 21.2209C51.2611 21.218 51.255 21.2194 51.2499 21.2166L46.6288 18.5481C46.354 18.39 46.0137 18.39 45.7424 18.5498L43.9963 19.5645L44.0112 10.0639C44.0112 10.063 44.0112 10.0647 44.0112 10.0639C44.0112 8.92874 43.4082 7.87394 42.4372 7.315L35.8527 3.5096C34.3426 2.64486 32.4162 3.16405 31.5506 4.66548C30.678 6.17209 31.1946 8.11064 32.7064 8.98834L37.6945 11.8642L37.678 23.2364L27.1526 29.3531L27.169 19.856C27.1897 18.7252 26.585 17.6686 25.5915 17.0976L19.0191 13.3164C17.4948 12.4191 15.5553 12.966 14.7118 14.4602C13.829 15.9523 14.3262 17.8813 15.8625 18.7727L20.8678 21.665L20.8364 33.0236L18.7255 34.2503C18.7249 34.2506 18.7242 34.2505 18.7236 34.2509C18.723 34.2512 18.7228 34.2519 18.7222 34.2523L18.7202 34.2534C18.4365 34.418 18.2806 34.8375 18.2796 35.0154L18.2623 40.7386C18.2606 41.2267 18.6563 41.6241 19.1435 41.6258C19.1452 41.6258 19.1452 41.6258 19.1469 41.6258C19.6342 41.6258 20.0298 41.2319 20.0316 40.7438L20.0437 36.5479C20.2257 36.653 23.099 38.3118 22.9169 38.2067L22.8517 60.8387L22.8513 60.9785V60.982V60.9863C22.8495 61.3033 23.0189 61.5962 23.2936 61.7551C25.9443 63.2859 13.7084 56.2197 49.1306 76.6759C49.1301 76.8576 49.1206 80.1709 49.1212 79.9688L19.9694 63.1382L19.9953 53.7668C19.997 53.2779 19.6013 52.8813 19.1124 52.8796C18.6252 52.8796 18.2278 53.2744 18.226 53.7616L18.1999 63.1086L16.6382 64.0211C16.6195 64.032 16.6092 64.0505 16.5916 64.0626C15.6417 64.644 15.109 65.7463 15.1057 67.1915C15.0971 69.892 16.9268 73.0668 19.2696 74.4188C20.385 75.0618 21.6942 75.331 22.8133 74.6857C22.8189 74.6825 22.8227 74.677 22.8283 74.6736L26.2861 72.6625C27.2073 72.1279 27.7316 71.0748 27.8019 69.7035L41.9553 77.8753C41.8753 77.9221 41.8128 77.9855 41.754 78.051C40.9185 78.6581 40.4396 79.6939 40.4365 81.0439C40.4278 83.7444 42.2592 86.9192 44.6021 88.272C45.7253 88.921 47.0279 89.1799 48.144 88.5389C48.1487 88.5362 48.1518 88.5317 48.1564 88.529L51.6203 86.5157C52.5913 85.9533 53.1373 84.8312 53.158 83.3565C53.158 83.3522 53.158 83.3479 53.158 83.3435C53.158 82.5724 52.9679 81.7633 52.6872 80.961L68.0917 72.0088C68.7205 72.7752 69.4219 73.4005 70.154 73.827ZM71.049 72.3005C70.5704 72.0215 70.0866 71.6103 69.6426 71.1075L69.6721 71.0903L73.116 69.089C73.7665 71.0156 73.4387 71.5195 73.223 72.101C72.7617 72.9516 71.8813 72.7942 71.049 72.3005ZM50.8912 79.9597C50.8916 79.778 50.9006 76.4687 50.9 76.6708L76.1494 61.997L76.1407 65.2831C54.2086 78.0351 70.7369 68.4242 50.8912 79.9597ZM76.2997 70.5469L75.2509 71.1533C75.2927 70.2334 75.0446 69.0847 74.7154 68.2165C74.7092 68.2002 74.7074 68.1841 74.7011 68.1678L76.6078 67.0597C76.8337 67.7127 76.9528 68.3455 76.9545 68.9003C76.9407 69.7132 76.7022 70.3136 76.2997 70.5469ZM64.9448 54.4985L75.2768 60.4533L50.0106 75.136C16.4068 55.7262 28.0146 62.431 25.4999 60.9785L35.0648 55.4203L35.0942 62.9836C35.0959 63.2972 35.2635 63.5874 35.5348 63.7447L48.6451 71.3701C48.9181 71.5308 49.2584 71.53 49.5314 71.371C49.7083 71.2687 65.5243 62.1268 64.5232 62.7054C64.7979 62.5464 64.9673 62.2536 64.9655 61.9365C64.965 61.7584 64.9434 54.0047 64.9448 54.4985ZM55.7928 51.2327L58.1115 49.8941V52.4183L55.7928 53.7763V51.2327ZM49.0367 53.0901L37.6876 46.4947L41.7938 44.1235L53.1437 50.7188L49.0367 53.0901ZM36.8289 53.8826L36.8142 48.0332L48.1524 54.6217L48.1948 69.0616L36.8617 62.4704L36.8289 53.8826ZM49.9633 69.067L49.9219 54.6223C50.5205 54.2766 54.203 52.1506 54.0236 52.2542V55.3192C54.0236 56.005 54.7667 56.4252 55.3557 56.0829L59.4436 53.6891C59.7149 53.5301 59.8807 53.2398 59.8807 52.9254V48.8728L63.1531 46.9836C63.1535 47.1611 63.19 62.3979 63.1877 61.4269C63.0107 61.5291 49.081 69.5768 49.9633 69.067ZM54.9094 49.6993L43.5603 43.1039C43.7373 43.0017 46.0581 41.6611 45.8811 41.7634L57.2303 48.3589C57.0533 48.4611 54.7324 49.8016 54.9094 49.6993ZM49.934 23.534L49.8873 37.3988C49.7051 37.5042 34.5124 46.2848 35.4795 45.7258C35.2065 45.8839 35.0372 46.175 35.0372 46.4912C35.0372 46.4958 35.0405 46.4996 35.0406 46.5043L35.0579 53.3781L24.6257 59.4408L24.6896 38.2074C59.3012 18.0892 47.3343 25.045 49.934 23.534ZM58.9968 47.3393L47.6466 40.7438L50.9171 38.8553L62.2668 45.4511L58.9968 47.3393ZM46.1882 20.3363L49.0557 21.9926C46.4632 23.4998 58.4098 16.5543 23.8022 36.6746L20.9286 35.0152C21.2721 34.8155 46.3687 20.2311 46.1882 20.3363ZM39.0214 10.5874L33.5928 7.45668C32.9155 7.06361 32.6909 6.22738 33.0831 5.54923C33.4525 4.90459 34.3164 4.66811 34.9698 5.04299L41.5543 8.84753C41.9776 9.09201 42.242 9.55678 42.242 10.0613L42.2247 20.5937C42.0475 20.6967 39.271 22.3106 39.4482 22.2076L39.4637 11.3545C39.4637 11.0383 39.2961 10.7455 39.0214 10.5874ZM22.1964 20.389L16.7488 17.241C16.1002 16.8641 15.8301 16.0456 16.2443 15.3448C16.6174 14.6839 17.4599 14.4497 18.1293 14.8455L24.7103 18.6319C25.1457 18.8824 25.4101 19.3402 25.3997 19.8275C25.3997 19.8335 25.3997 19.8396 25.3997 19.8448L25.3824 30.3817L22.6077 31.9943L22.6388 21.1579C22.6405 20.8408 22.4712 20.548 22.1964 20.389ZM20.1542 72.8863C18.3712 71.8574 16.8697 69.2519 16.8749 67.1967C16.8767 66.3901 17.1163 65.7916 17.53 65.5516C17.5381 65.5471 17.5476 65.5484 17.5558 65.5442C20.0314 64.2135 24.3084 71.7609 21.9338 73.1463L21.9304 73.1497C21.9284 73.1508 21.9275 73.1529 21.9256 73.1539C21.5108 73.3936 20.8654 73.2952 20.1542 72.8863ZM25.398 71.1326L24.3492 71.7416C24.41 70.3929 23.9157 68.4939 22.7735 66.8037L25.9854 68.6575C26.0304 68.9392 26.0545 69.2199 26.0545 69.4843C26.0459 69.9655 25.9492 70.8129 25.398 71.1326ZM45.4867 86.7395C43.7019 85.7097 42.2005 83.1042 42.2057 81.0491C42.2104 78.9017 43.869 78.8699 45.269 80.1273C47.5913 81.9737 48.7168 86.126 47.2546 87.0077C46.8398 87.2438 46.1953 87.1488 45.4867 86.7395ZM50.7322 84.9858L49.6852 85.594C49.7412 84.3756 49.3183 82.8962 48.7867 81.8205L49.566 82.2706C49.8407 82.4287 50.1793 82.4287 50.454 82.2689L51.1607 81.8568C51.3093 82.3648 51.3888 82.8701 51.3888 83.3366C51.3818 83.8178 51.2851 84.6644 50.7322 84.9858Z" fill="white"/>
<path d="M19.1192 50.1714H19.1227C19.6099 50.1714 20.0055 49.7774 20.0073 49.2894L20.0194 45.287C20.0211 44.7989 19.6254 44.4015 19.1382 44.3998H19.1348C18.6475 44.3998 18.2519 44.7937 18.2501 45.2818L18.238 49.2842C18.2363 49.7723 18.632 50.1696 19.1192 50.1714Z" fill="white"/>
</svg>
