<svg width="93" height="92" viewBox="0 0 93 92" fill="none" xmlns="http://www.w3.org/2000/svg">
<path d="M22.1698 57.8778C22.6587 57.876 23.0544 57.4795 23.0526 56.9906L23.0336 50.0605C23.0319 49.5733 22.6363 49.1785 22.149 49.1785C21.6601 49.1802 21.2627 49.5767 21.2644 50.0657L21.2834 56.9957C21.2851 57.483 21.6825 57.8778 22.1698 57.8778Z" fill="white"/>
<path d="M23.0907 83.0738C31.6406 87.885 32.4653 89.5849 35.6757 87.7292L66.9171 69.6922C69.6608 68.1087 71.8033 64.3923 71.7929 61.2314L71.6547 12.543C71.6463 8.39617 68.735 8.77515 61.3745 3.96895C60.2635 3.30376 58.7846 3.40915 57.3108 4.26008L26.0832 22.2919C23.2159 23.9935 21.1887 27.6881 21.2074 30.7484L21.2471 44.3157C21.2489 44.8038 21.6445 45.1977 22.1318 45.1977C22.6207 45.196 23.0181 44.7995 23.0164 44.3105L22.9814 32.3773L29.7491 36.2099C29.7497 36.4209 29.8709 84.5493 29.9119 84.9942L23.9822 81.5464C23.4259 81.219 23.1183 80.4709 23.1183 79.4386L23.0734 63.8464C23.0717 63.3591 22.676 62.9643 22.1888 62.9643C21.6998 62.9661 21.3024 63.3626 21.3042 63.8515L21.3491 79.4412C21.3491 81.124 21.9659 82.4138 23.0907 83.0738ZM66.0325 68.1597L34.7911 86.1967C32.9318 87.2684 31.6625 86.5526 31.6552 84.4059C31.525 34.7953 31.4616 35.5801 31.6068 34.715C31.9859 32.4769 33.5817 29.9166 35.5081 28.8047C38.7225 26.9489 23.9044 35.5039 66.7444 10.7712C68.5792 9.70675 69.8818 10.3835 69.8854 12.5473L70.0237 61.2366C70.0306 63.7366 68.2043 66.9071 66.0325 68.1597ZM58.1954 5.7926C59.0956 5.27168 59.9232 5.1611 60.4743 5.49284L66.4282 8.94664C65.9255 9.17271 68.0209 7.9899 35.0634 27.0126L28.2881 23.0616L58.1954 5.7926ZM26.576 24.1121L33.4522 28.1219C31.6519 29.6562 30.3245 32.0187 29.898 34.2615L23.0074 30.3594C23.1527 28.0879 24.6825 25.4182 26.576 24.1121Z" fill="white"/>
<path d="M65.63 14.8073L34.8913 32.554C34.6166 32.713 34.4473 33.0058 34.449 33.3229L34.5855 75.0294C34.5892 75.7135 35.3268 76.1303 35.9124 75.793L66.6493 58.0454C66.924 57.8865 67.0934 57.5936 67.0916 57.2766L66.9569 15.5709C66.9531 14.8868 66.2156 14.47 65.63 14.8073ZM36.3495 73.4977L36.2199 33.83L65.1928 17.1026L65.3207 56.7695L36.3495 73.4977Z" fill="white"/>
<path d="M60.8526 47.392L50.7003 53.2535C50.277 53.498 50.1318 54.0388 50.3772 54.4621C50.618 54.8835 51.1591 55.0304 51.5849 54.786L61.7372 48.9246C62.1605 48.6801 62.3057 48.1393 62.0603 47.716C61.8167 47.291 61.2759 47.1493 60.8526 47.392Z" fill="white"/>
<path d="M60.8526 29.7455L50.7003 35.6069C50.277 35.8514 50.1318 36.3922 50.3772 36.8155C50.618 37.2369 51.1591 37.3839 51.5849 37.1395L61.7372 31.278C62.1605 31.0335 62.3057 30.4927 62.0603 30.0694C61.8167 29.6444 61.2759 29.5001 60.8526 29.7455Z" fill="white"/>
<path d="M48.0725 32.4528C47.7995 32.2956 47.4626 32.2965 47.1896 32.4537L39.8034 36.7187C39.5287 36.8776 39.3594 37.1705 39.3611 37.4875L39.3922 46.9514C39.3959 47.6355 40.1335 48.0523 40.7191 47.715L48.1053 43.4509C48.38 43.2919 48.5493 42.9991 48.5476 42.682L48.5165 33.2174C48.5148 32.9012 48.3472 32.61 48.0725 32.4528ZM41.1562 45.4197L41.1321 37.9946L46.7525 34.749L46.7767 42.1749L41.1562 45.4197Z" fill="white"/>
<path d="M48.0725 49.994C47.7995 49.8367 47.4626 49.8376 47.1896 49.9948L39.8034 54.2589C39.5287 54.4179 39.3594 54.7108 39.3611 55.0278L39.3922 64.4925C39.3959 65.1766 40.1335 65.5934 40.7191 65.2562L48.1053 60.992C48.38 60.8331 48.5493 60.5402 48.5476 60.2232L48.5165 50.7585C48.5148 50.4423 48.3472 50.1512 48.0725 49.994ZM41.1562 62.9608L41.1321 55.5349L46.7525 52.2902L46.7767 59.7161L41.1562 62.9608Z" fill="white"/>
<path d="M50.3255 68.6772C48.8811 69.5117 47.7529 71.4632 47.7564 73.1201C47.76 75.1293 49.4513 76.1173 51.224 75.0941C52.6667 74.2622 53.7914 72.3124 53.7845 70.6563C53.7809 68.6295 52.0949 67.6589 50.3255 68.6772ZM50.3394 73.5616C49.7863 73.88 49.529 73.7958 49.5256 73.115C49.5221 72.0869 50.31 70.7289 51.2102 70.2097C51.7681 69.89 52.0119 69.9775 52.0153 70.6624C52.0188 71.6896 51.2361 73.0441 50.3394 73.5616Z" fill="white"/>
</svg>
