<svg width="93" height="92" viewBox="0 0 93 92" fill="none" xmlns="http://www.w3.org/2000/svg">
<path d="M17.9874 57.0806C18.4746 57.0806 18.872 56.6858 18.8737 56.1986L18.8876 51.1121C18.8893 50.6231 18.4936 50.2266 18.0047 50.2249C17.5174 50.2249 17.12 50.6196 17.1183 51.1069L17.1045 56.1934C17.1028 56.6824 17.4984 57.0789 17.9874 57.0806Z" fill="white"/>
<path d="M17.0527 73.902C17.051 74.2191 17.2203 74.5119 17.4951 74.6709L41.1499 88.328C41.2864 88.4066 41.4401 88.4464 41.5922 88.4464C41.7442 88.4464 41.8963 88.4075 42.0328 88.3289C42.0337 88.3283 42.0341 88.3271 42.035 88.3266C42.0347 88.3268 42.0354 88.3264 42.035 88.3266L75.3942 68.9408C75.6672 68.7835 75.833 68.4933 75.8347 68.1788L75.9471 28.5888C75.9488 28.2718 75.7795 27.9789 75.5047 27.82C75.501 27.8178 75.4962 27.8188 75.4923 27.8166L59.3836 18.5069L59.3882 17.1648C59.3899 16.8478 59.2206 16.5549 58.9459 16.396C58.9448 16.3953 58.9434 16.3957 58.9423 16.395C58.9409 16.3942 58.9403 16.3925 58.9389 16.3917L50.5306 11.5416L50.5593 7.13172C50.5593 7.12567 50.5593 7.11963 50.5593 7.11358C50.5593 7.11001 50.5593 7.10677 50.5593 7.10321C50.5514 2.33176 39.5248 2.41684 39.5071 7.07902H39.505L39.4541 14.9017L31.0373 19.7902C30.7643 19.9483 30.5967 20.2403 30.5967 20.5556C30.5967 20.5669 30.6048 20.576 30.6052 20.5873L30.5865 26.0029L17.6306 33.5418C17.6239 33.5455 17.6157 33.5437 17.6091 33.5475C17.3344 33.7056 17.1668 33.9967 17.1651 34.312L17.1322 46.3157C17.1305 46.8046 17.5262 47.2012 18.0151 47.2029C18.5023 47.2029 18.8997 46.8081 18.9015 46.3209L18.9308 35.8482L40.8181 48.4866C40.81 51.3662 40.7257 81.1654 40.7119 86.0313L18.8237 73.3949L18.86 60.9404C18.8617 60.4514 18.4661 60.0549 17.9771 60.0531C17.4899 60.0531 17.0925 60.4471 17.0908 60.9352L17.0527 73.902ZM74.0672 67.6665L42.482 86.0223C42.5069 77.1864 42.5629 57.285 42.5877 48.488C45.8248 46.6061 31.2313 55.0902 74.1726 30.1257L74.0672 67.6665ZM57.6137 18.7026C57.611 19.5227 57.57 31.8128 57.5705 31.634L42.9468 40.132C42.948 39.7461 42.9922 26.5412 42.9899 27.2085C43.1719 27.1026 58.5793 18.1409 57.6137 18.7026ZM32.3314 35.0308C32.3319 34.8527 32.3719 21.2224 32.3694 22.0898L41.2207 27.2006C41.2157 28.6919 41.1751 40.8377 41.1774 40.1433C40.9998 40.0406 31.7444 34.6916 32.3314 35.0308ZM42.133 19.1086C41.7193 18.8696 41.2001 18.4141 41.2121 17.9605C41.219 16.6862 41.2594 9.28845 41.257 9.73201C42.3926 10.3945 43.7418 10.6728 45.0408 10.6728C45.0429 10.6728 45.0447 10.6724 45.0467 10.6724C46.2287 10.6715 47.6841 10.3944 48.771 9.76138C48.771 9.76138 48.7728 9.76138 48.7728 9.76051C48.7685 10.3391 48.709 18.4344 48.7123 17.9899C48.7123 18.3631 48.3771 18.7769 47.8035 19.1034C46.2554 20.0158 43.656 19.9877 42.133 19.1086ZM45.0097 5.29338C46.3091 5.29338 48.7901 5.90371 48.7901 7.1058C48.7901 8.3339 46.3925 8.90223 45.0466 8.90322C43.7068 8.90392 41.2716 8.30192 41.2745 7.08854C41.2759 5.88439 43.6872 5.29338 45.0097 5.29338ZM39.4407 16.955L39.4342 17.9553C39.4304 19.0994 40.2494 20.0733 41.2484 20.6497C43.3822 21.8713 46.6508 21.8266 48.7002 20.6342C49.8474 19.9681 50.4833 19.0282 50.4884 17.9899L50.5173 13.5766L56.7326 17.1614C56.5507 17.2672 41.1412 26.23 42.1068 25.6684L33.2471 20.5521L39.4407 16.955ZM30.5535 35.5379C30.5518 35.8558 30.7211 36.1487 30.9958 36.3076C31.1736 36.4103 42.3285 42.856 41.6181 42.4455C41.8911 42.6045 42.2315 42.6053 42.5044 42.4446L58.9061 32.9082C59.1791 32.7501 59.3467 32.4599 59.3467 32.1463L59.3778 20.5469L73.2932 28.5897C31.6919 52.7685 45.0715 44.9923 41.7036 46.9497L19.8204 34.3154L30.5742 28.0575C30.5737 28.2357 30.5521 36.0317 30.5535 35.5379Z" fill="white"/>
<path d="M44.3617 12.2147C44.0328 12.5401 44.0281 13.1226 44.3617 13.4527C44.7499 13.8446 45.3727 13.7606 45.6178 13.4527C45.971 13.1341 45.9696 12.532 45.6178 12.2147C45.3638 11.8956 44.7341 11.8387 44.3617 12.2147Z" fill="white"/>
<path d="M57.8522 47.6296C52.966 50.4502 49.0043 57.3137 49.0198 62.9307C49.0341 68.9308 53.5135 71.5687 58.7921 68.52C63.6851 65.6951 67.6503 58.822 67.6348 53.1982C67.6205 47.2309 63.1434 44.5742 57.8522 47.6296ZM57.9074 66.9875C53.8342 69.3415 50.7998 67.5823 50.7891 62.9255C50.7735 57.8735 54.3396 51.6993 58.7368 49.1621C62.7769 46.8301 65.8547 48.5218 65.8655 53.2034C65.8811 58.2622 62.3098 64.4459 57.9074 66.9875Z" fill="white"/>
</svg>
