<svg width="93" height="92" viewBox="0 0 93 92" fill="none" xmlns="http://www.w3.org/2000/svg">
<path d="M67.7183 27.8902C67.4082 28.2685 67.4643 28.8258 67.8418 29.135L72.2079 32.7106C72.5893 33.0221 73.1457 32.9626 73.4528 32.5871C73.7629 32.2087 73.7067 31.6515 73.3292 31.3422L68.9632 27.7666C68.5822 27.4565 68.0276 27.5135 67.7183 27.8902Z" fill="white"/>
<path d="M4.08383 53.1621C4.08383 55.0367 5.48764 56.6988 7.93933 57.7243L50.7404 75.4002C54.2428 76.8227 58.7549 76.5571 61.7186 74.8308L86.1872 60.7046C87.9538 59.6853 88.9672 58.2149 88.9672 56.6677C88.923 45.8555 89.5672 44.6398 87.1755 42.6858L77.3972 34.675C77.0188 34.3649 76.4599 34.4219 76.1523 34.7985C75.8422 35.1769 75.8984 35.7341 76.2759 36.0434L86.055 44.055C87.8932 45.556 87.313 47.3321 85.2818 48.5049L75.6547 54.0631L44.5243 36.0909C48.189 32.1464 46.6989 27.313 41.7335 24.4276C40.5271 23.7253 38.638 23.006 37.6543 22.7206L44.6466 18.6837C47.7816 16.8721 53.1593 17.1201 55.7068 19.1934L63.8645 25.8764C64.242 26.1874 64.8009 26.1304 65.1093 25.7528C65.4195 25.3745 65.3633 24.8173 64.9858 24.508L56.8256 17.8233C53.6802 15.2627 47.5751 14.9509 43.7619 17.1512L35.1002 22.152C29.5691 21.1841 23.6176 22.0383 19.4868 24.4294C15.3591 26.8073 13.7189 30.3765 15.0617 33.7209L6.82493 38.477C2.41074 41.0267 4.60193 43.9719 4.08383 53.1621ZM8.61835 56.0906C6.88713 55.3667 5.85306 54.2713 5.85306 53.1586L5.82541 45.8346C6.27686 46.2012 7.12432 46.7239 7.91169 47.051L50.7214 64.7191C51.8907 65.1975 53.2831 65.48 54.5536 65.5796V74.4797C53.4552 74.3825 52.3769 74.1549 51.4108 73.7631L8.61835 56.0906ZM85.3026 59.1721L60.8305 73.3001C59.5843 74.0263 57.9811 74.4377 56.3228 74.5244V65.6189C57.988 65.5428 60.1031 65.0876 61.6987 64.1697C87.3744 49.3069 86.3596 50.0262 87.1841 49.3403L87.1979 56.6695C87.1979 57.5653 86.5068 58.4776 85.3026 59.1721ZM43.1399 37.3349L73.8838 55.0842L67.4971 58.7687L35.8108 40.482C38.1178 40.0011 40.2079 39.161 41.6558 38.3301C42.2824 37.9605 42.9499 37.4833 43.1399 37.3349ZM20.3715 25.961C26.1659 22.6065 35.4041 22.8001 40.8394 25.961C46.1973 29.0662 46.0244 33.7532 40.7643 36.7898C36.0315 39.5198 28.364 40.1088 22.5412 37.8847C15.2696 35.1042 14.2297 29.5001 20.3715 25.961ZM7.70954 40.0095L15.8801 35.291C17.241 37.184 19.6707 38.6745 21.8477 39.5074C21.8577 39.5111 21.869 39.5131 21.879 39.5169C25.3503 40.8382 29.1819 41.2043 32.9333 40.8642L65.7314 59.7924L60.8176 62.6294C58.3555 64.0524 54.2741 64.269 51.3943 63.0821C3.3818 43.2553 9.20971 45.6619 8.59243 45.407C5.50359 44.1423 4.73124 41.7285 7.70954 40.0095Z" fill="white"/>
<path d="M21.7097 32.2769C21.7097 32.2769 21.7174 32.2769 21.7218 32.2769L26.1115 32.2177C26.3294 32.7612 26.7225 33.2515 27.4648 33.6833C29.1826 34.6836 31.897 34.6858 33.6425 33.6808C35.7052 32.4888 35.6987 30.2683 33.6632 29.0884C31.9268 28.0802 29.2055 28.0933 27.4899 29.0866C26.8108 29.4779 26.3935 29.9536 26.1635 30.4474L21.6976 30.5077C21.2095 30.5146 20.8181 30.9155 20.825 31.4044C20.832 31.8891 21.2267 32.2769 21.7097 32.2769ZM28.3745 30.6183C29.5973 29.9106 31.644 29.9592 32.7743 30.6183C33.6284 31.1118 33.6328 31.6428 32.7587 32.1482C31.5571 32.8402 29.5408 32.8445 28.3546 32.1543C27.5054 31.6616 27.4989 31.1231 28.3745 30.6183Z" fill="white"/>
</svg>
