<svg width="93" height="92" viewBox="0 0 93 92" fill="none" xmlns="http://www.w3.org/2000/svg">
<rect x="0.5" width="92" height="92" rx="46" fill="white"/>
<path d="M65.894 54.6691L65.8034 23.1645C65.803 22.9872 65.6783 22.7672 65.5215 22.6758L65.5202 22.675L59.0231 18.9059C58.8473 18.8042 58.6306 18.8042 58.4559 18.9059L45.6143 26.3224L41.0763 23.6852C40.8999 23.5846 40.6838 23.5823 40.5086 23.6852L27.3891 31.2603C27.1919 31.3739 27.1061 31.6352 27.1061 31.749C27.1061 31.7494 27.1064 31.7497 27.1064 31.7501C27.1064 31.9289 27.1806 58.1097 27.1813 58.2477C27.1824 58.5606 27.4355 58.8127 27.7473 58.8127C27.7478 58.8127 27.7484 58.8127 27.749 58.8127C28.0613 58.8116 28.3144 58.5573 28.3133 58.2455L28.2409 32.7354L33.5966 35.847C33.6075 39.5196 33.5572 22.5759 33.7029 71.6193L28.3421 68.5039L28.3305 64.4366C28.3294 64.1237 28.0762 63.8716 27.7644 63.8716C27.7639 63.8716 27.7633 63.8716 27.7628 63.8716C27.4505 63.8727 27.1973 64.127 27.1984 64.4388L27.2111 68.8311C27.2117 69.0323 27.3189 69.218 27.4925 69.3197L33.987 73.0941C34.1655 73.1967 34.3816 73.1948 34.5547 73.0941C45.9556 66.5104 53.7308 62.0204 65.611 55.16C65.7868 55.0593 65.8946 54.8714 65.894 54.6691ZM58.7384 20.0501L64.1075 23.1645L49.9118 31.3698L47.7829 27.6894C47.7598 27.645 47.5983 27.4756 47.5708 27.4595L46.7426 26.9782L58.7384 20.0501ZM40.7905 24.8294C40.905 24.8961 46.2662 28.0178 46.1517 27.9511L34.1677 34.8688L28.8014 31.7512L40.7905 24.8294ZM34.8382 71.6248C34.6947 22.5843 34.7443 39.5195 34.7336 35.8511L47.0749 28.7264L49.2153 32.4256C49.3649 32.6844 49.7409 32.7753 49.988 32.6323L64.6741 24.1451L64.7609 54.3441L34.8382 71.6248Z" fill="black"/>
<path d="M27.7606 62.9043C28.0735 62.9032 28.3261 62.6489 28.325 62.3371L28.3195 60.4267C28.3184 60.1128 28.0884 59.895 27.7518 59.8618C27.4389 59.8629 27.1863 60.1172 27.1874 60.429L27.1929 62.3393C27.194 62.6522 27.4472 62.9043 27.7589 62.9043H27.7606Z" fill="black"/>
<path d="M60.5062 42.7392C60.331 42.6397 60.1148 42.6386 59.9407 42.7403L54.8265 45.6932C54.6507 45.7938 54.5429 45.9817 54.5435 46.184L54.5722 56.3252C54.5728 56.5275 54.6811 56.7143 54.8558 56.8149C55.0313 56.9149 55.2462 56.9158 55.4213 56.8138L60.5355 53.8609C60.7113 53.7603 60.8191 53.5724 60.8185 53.3701L60.7898 43.2289C60.7892 43.0266 60.6809 42.8398 60.5062 42.7392ZM55.7015 55.3457L55.6766 46.5091L59.6605 44.2084L59.6853 53.045L55.7015 55.3457Z" fill="black"/>
<path d="M52.5866 47.3117C52.4114 47.2111 52.1953 47.2122 52.0212 47.3128L46.9069 50.2646C46.7311 50.3652 46.6234 50.5532 46.6239 50.7555L46.6526 60.8977C46.6532 61.1 46.7615 61.2869 46.9362 61.3875C47.1117 61.4875 47.3267 61.4883 47.5017 61.3864L52.6159 58.4335C52.7917 58.3329 52.8995 58.1449 52.899 57.9426L52.8702 47.8015C52.8697 47.5992 52.7613 47.4123 52.5866 47.3117ZM47.782 59.9182L47.7571 51.0805L51.7409 48.781L51.7658 57.6176L47.782 59.9182Z" fill="black"/>
<path d="M39.2958 52.2822C39.3937 52.2822 39.4915 52.2568 39.5788 52.2059L60.5239 40.1135C60.6997 40.0129 60.8075 39.825 60.8069 39.6226L60.7804 30.3096C60.7798 30.1072 60.6715 29.9204 60.4968 29.8198C60.3216 29.7203 60.1054 29.7192 59.9313 29.8209L38.9863 41.9133C38.8105 42.0139 38.7027 42.2019 38.7032 42.4042L38.7298 51.7173C38.7306 52.0268 38.9804 52.2822 39.2958 52.2822ZM59.6511 31.2891L59.6737 39.2976L39.8591 50.7378L39.8364 42.7292L59.6511 31.2891Z" fill="black"/>
<path d="M43.1226 44.2284L56.9535 36.243C57.2244 36.0871 57.3172 35.7411 57.1608 35.4702C57.0038 35.1994 56.6572 35.1043 56.3875 35.2635L42.5566 43.2488C42.2857 43.4047 42.1929 43.7508 42.3493 44.0216C42.5069 44.2937 42.8549 44.3846 43.1226 44.2284Z" fill="black"/>
<path d="M52.0034 40.5989L46.94 43.5219C46.6692 43.6778 46.5763 44.0238 46.7327 44.2947C46.8903 44.5668 47.2384 44.6577 47.5061 44.5014L52.5694 41.5784C52.8403 41.4225 52.9332 41.0765 52.7767 40.8056C52.6203 40.5347 52.2726 40.4408 52.0034 40.5989Z" fill="black"/>
<path d="M44.6754 51.8787C44.5002 51.7792 44.284 51.7781 44.1099 51.8798L38.9957 54.8327C38.8199 54.9333 38.7121 55.1213 38.7126 55.3236L38.7414 65.4658C38.7419 65.6681 38.8503 65.855 39.025 65.9556C39.2005 66.0556 39.4154 66.0564 39.5904 65.9545L44.7047 63.0016C44.8805 62.901 44.9883 62.713 44.9877 62.5107L44.959 52.3685C44.9584 52.1661 44.8501 51.9793 44.6754 51.8787ZM39.8707 64.4863L39.8458 55.6486L43.8297 53.348L43.8545 62.1857L39.8707 64.4863Z" fill="black"/>
<path d="M40.0901 38.6531C40.3642 38.8097 40.7092 38.713 40.8629 38.4431C41.0182 38.1722 40.9237 37.8262 40.6528 37.6714L39.7713 37.167L40.8557 35.2889C41.0121 35.0181 40.9193 34.672 40.6484 34.5162C40.377 34.3581 40.0315 34.452 39.8751 34.7229L38.7885 36.6047L37.9034 36.0982C37.6308 35.9423 37.2854 36.0352 37.1306 36.3082C36.9753 36.5791 37.0698 36.9251 37.3406 37.0799L38.2227 37.5846L37.1378 39.4635C36.9813 39.7343 37.0742 40.0804 37.3451 40.2362C37.6132 40.3928 37.961 40.3012 38.1184 40.0295L39.2054 38.1469L40.0901 38.6531Z" fill="black"/>
</svg>
