<svg width="93" height="92" viewBox="0 0 93 92" fill="none" xmlns="http://www.w3.org/2000/svg">
<rect x="0.5" width="92" height="92" rx="46" fill="white"/>
<path d="M68.0247 63.1527C67.4963 62.8458 66.5085 62.28 65.9381 61.9518L67.4609 58.8825C67.5941 58.615 67.4957 58.2899 67.237 58.1407L58.9488 53.3554C58.8139 53.2769 58.6514 53.2581 58.5021 53.3039C58.3523 53.3493 58.2279 53.4543 58.1589 53.5942L56.6416 56.6528L55.7439 56.1396C57.6859 52.147 58.7561 47.966 58.747 44.3082C58.7379 39.8983 57.2214 36.6085 54.4907 34.9674C54.4618 34.941 54.4385 34.91 54.4033 34.8895C54.3989 34.8873 54.3945 34.8845 54.3901 34.8817L48.8646 31.6663C48.1153 31.2334 47.301 30.9485 46.4407 30.7916L42.3153 23.4099C42.8605 22.604 43.192 21.6755 43.192 20.8491V20.8441C43.1761 19.1152 41.8031 18.3134 40.2927 19.1819C38.9854 19.9403 37.9716 21.7092 37.9844 23.2039C37.9844 23.982 38.2691 24.5911 38.7458 24.9238L35.501 34.6114C34.357 35.5378 33.2473 36.6123 32.1615 37.8822C29.7962 40.5753 27.8034 43.7852 26.3988 47.1643C26.2789 47.4529 26.416 47.784 26.7045 47.9045C26.9908 48.0233 27.3247 47.8873 27.4447 47.5988C29.2056 43.3621 31.8214 39.6211 34.7798 36.7643L33.3947 40.8998C33.2952 41.1961 33.4555 41.5167 33.7518 41.6162C34.0488 41.7152 34.3695 41.555 34.4682 41.2591L36.4642 35.3C37.2744 34.6649 38.0991 34.0931 38.9572 33.6231C41.3956 32.2122 43.7147 31.6267 45.7326 31.8458L46.6374 33.465C46.7893 33.7356 47.1315 33.8358 47.408 33.6828C47.6805 33.5302 47.7784 33.1853 47.6258 32.9122L47.2048 32.1589C47.5832 32.2893 47.9502 32.4457 48.2969 32.6458L50.3897 33.8635C50.3248 33.864 50.2559 33.879 50.1907 33.8809C46.3413 33.9893 43.5744 35.9376 40.5365 38.2818C35.8387 42.1991 30.7853 50.6444 29.9808 57.3934C29.658 59.4918 29.6733 62.0912 30.2378 64.2438C30.4657 65.1637 31.0114 66.4005 31.2189 66.7777C31.2296 66.7973 31.2368 66.8207 31.2477 66.8402L29.1444 65.6164C26.7139 64.2013 25.3712 61.1997 25.3635 57.1645C25.3602 56.1297 25.4464 55.0424 25.62 53.933C25.6681 53.624 25.4569 53.3349 25.1479 53.2863C24.8334 53.2437 24.5498 53.4504 24.5012 53.7583C24.3187 54.9263 24.2281 56.0733 24.2314 57.1673C24.2397 61.6204 25.7825 64.9685 28.5751 66.5948C28.6886 66.6607 34.5121 70.0402 34.1406 69.8246C37.4051 71.7027 41.2936 70.7401 44.5817 68.8412C47.6369 67.0772 50.5092 64.336 52.9226 60.9087L56.1966 62.7791L57.8206 67.9878C57.8631 68.1232 57.9549 68.2382 58.0781 68.3095L66.3675 73.0954C66.4554 73.1462 66.5532 73.1711 66.6505 73.1711C67.0341 73.1711 67.3037 72.7993 67.1911 72.4365L65.8458 68.1238C66.2399 68.1473 66.5808 68.0433 66.9241 67.8451C67.9617 67.2465 68.7721 65.8425 68.7687 64.649C68.7671 63.9691 68.4957 63.4235 68.0247 63.1527ZM40.8593 20.1626C41.5882 19.7423 42.0505 19.9766 42.0599 20.8513C42.059 21.9665 41.1958 23.3592 40.2994 23.8716C39.6088 24.2827 39.1164 24.098 39.1164 23.1989C39.107 22.1061 39.9058 20.7153 40.8593 20.1626ZM38.4017 32.6369C37.954 32.8821 37.5182 33.1627 37.084 33.4494L39.8531 25.1822C40.1863 25.1518 40.5296 25.052 40.8693 24.8501C41.1025 24.7166 41.3283 24.5449 41.5421 24.3477L45.072 30.6639C43.0149 30.6285 40.7443 31.2809 38.4017 32.6369ZM58.9051 54.6372L66.2105 58.8554L64.6249 62.0515L57.3196 57.8336L58.9051 54.6372ZM56.0683 57.8085C55.9351 58.076 56.0334 58.4011 56.2921 58.5503C57.1426 59.0404 53.2139 56.7706 64.6096 63.3429C64.9039 63.4932 65.2346 63.3716 65.372 63.0968L65.4361 62.9686L66.1464 63.3771C65.4409 63.8608 64.6862 64.9868 64.5353 66.0442C64.5273 66.1021 64.5032 66.161 64.4986 66.2183C59.9794 63.6362 47.6732 56.6059 43.1533 54.0237C43.0721 53.9778 42.9847 53.8186 42.9847 53.5046C42.977 52.7142 43.5596 51.703 44.258 51.2948C44.3943 51.2186 44.6775 51.1133 44.8061 51.1907C50.6319 54.5227 51.9814 55.2927 56.1374 57.6686L56.0683 57.8085ZM42.963 50.9033C42.2967 51.6101 41.8444 52.6228 41.8527 53.5101L41.8528 53.5113L41.8527 53.5129C41.853 54.0475 42.063 54.7071 42.5934 55.0076L45.6724 56.7678C45.6679 56.7722 45.6639 56.7772 45.6594 56.7816C45.134 57.3009 44.464 57.8062 43.9858 58.081C41.4304 59.5644 39.4225 58.515 39.4144 55.4642C39.41 53.9187 40.014 51.7494 41.3527 49.7469C42.7588 47.6433 45.6867 45.034 47.7905 46.2406C48.6291 46.7232 49.0934 47.7845 49.0973 49.2278C49.0973 49.9944 48.9497 50.9792 48.5891 52.0477L45.3777 50.2134C44.5948 49.7459 43.6366 50.1886 42.963 50.9033ZM49.5959 52.6235C49.9602 51.61 50.2293 50.3637 50.2293 49.2262C50.2244 47.3606 49.5583 45.9521 48.3549 45.2595C45.6938 43.7307 42.3528 46.2825 40.4836 49.0408C38.9007 51.3766 38.2823 53.6248 38.2823 55.4465C38.2823 55.4531 38.2823 55.4603 38.2823 55.4675C38.2823 59.331 41.195 61.0089 44.5524 59.0616C45.2806 58.6392 46.016 58.033 46.6077 57.4249C46.6341 57.3978 46.6632 57.3772 46.6894 57.3497L48.8607 58.5901C47.3887 60.4723 45.7198 61.9797 44.0057 62.9714C41.6011 64.3621 39.3657 64.6037 37.7129 63.6524C36.0712 62.7066 35.1647 60.6724 35.1603 57.9235C35.1353 49.7845 42.6297 40.4786 48.5539 40.4786C49.3781 40.4786 50.1365 40.6682 50.8004 41.0496C52.4432 41.9937 53.3525 44.0257 53.3608 46.7685C53.3608 48.9878 52.7911 51.4182 51.7088 53.831C51.5937 53.7653 49.4609 52.5463 49.5959 52.6235ZM44.0156 67.8606C40.436 69.9281 37.1214 70.2645 34.6588 68.8222C32.9915 67.8374 31.9011 66.0441 31.3957 64.1755C30.9169 62.4557 30.7019 60.3066 31.1345 57.3482C32.1122 50.5563 36.4009 43.1576 41.6256 38.8478C45.2484 36.1122 49.7607 33.6061 53.7253 35.8156C56.2236 37.2015 57.6061 40.2114 57.6149 44.3104C57.6232 47.779 56.615 51.7595 54.7682 55.5792L52.6903 54.3919C53.866 51.8019 54.4929 49.1766 54.4929 46.7669C54.4829 43.6012 53.3719 41.222 51.3642 40.0684C44.7127 36.2465 33.9973 47.8664 34.0282 57.9262C34.0332 61.0958 35.1415 63.4777 37.148 64.633C39.462 65.9657 42.2423 65.2987 44.5728 63.9509C46.4483 62.8664 48.2549 61.2011 49.8385 59.1488L51.9413 60.3507C49.6351 63.6037 46.9044 66.1935 44.0156 67.8606ZM58.836 67.4394L57.6398 63.6037L64.4671 67.5069L65.6787 71.3901L58.836 67.4394ZM66.3581 66.8645C65.8579 67.1521 65.6368 66.9741 65.6345 66.4582C65.6323 65.6733 66.2304 64.6391 66.9142 64.2444C67.3976 63.9648 67.6355 64.1152 67.6367 64.6523C67.6389 65.4505 67.0535 66.4632 66.3581 66.8645Z" fill="black"/>
<path d="M25.5514 52.0331C25.804 52.0331 26.034 51.8629 26.0992 51.6069C26.2761 50.9149 26.4862 50.2095 26.7233 49.5108C26.8233 49.2151 26.6652 48.8934 26.369 48.7928C26.0727 48.6922 25.7515 48.8514 25.6509 49.1471C25.4044 49.8729 25.186 50.6064 25.0025 51.3272C24.9109 51.6859 25.1828 52.0331 25.5514 52.0331Z" fill="black"/>
</svg>
