<svg width="93" height="92" viewBox="0 0 93 92" fill="none" xmlns="http://www.w3.org/2000/svg">
<rect x="0.5" width="92" height="92" rx="46" fill="white"/>
<path d="M22.8706 64.0458C22.8718 64.247 22.9779 64.4328 23.1526 64.5334L27.6921 67.1717L27.8799 69.1529C27.8975 69.3347 28.0015 69.4972 28.1596 69.589L34.2047 73.0985C34.4343 73.2307 34.8072 73.1806 34.9741 72.8996L42.1557 60.8895L69.9115 44.8652C70.0873 44.7635 70.1945 44.5761 70.1945 44.3732L70.1381 22.9091C70.1381 22.7636 70.0357 22.5251 69.8562 22.421L69.8529 22.4177L63.8133 18.9082C63.6397 18.8065 63.4219 18.8065 63.2462 18.9071L53.3814 24.6028C53.1106 24.7593 53.0177 25.1053 53.1747 25.3762C53.3262 25.6422 53.699 25.7294 53.9497 25.5857L63.5259 20.0552L68.4369 22.9064L29.4155 45.4362C29.3021 45.3703 24.1799 42.391 24.5067 42.5811C26.6765 41.329 16.6481 47.1159 45.7189 30.3406C45.9898 30.1847 46.0826 29.8381 45.9267 29.5673L45.9241 29.5643L45.9234 29.5623C45.7675 29.2903 45.4204 29.1997 45.1506 29.355C14.9165 46.7999 25.3443 40.7832 23.0884 42.0848C22.9138 42.1854 22.8054 42.3722 22.8054 42.574C22.8054 42.5799 22.8096 42.5847 22.8098 42.5906L22.8706 64.0458ZM23.9452 43.5658C24.0586 43.6318 29.1753 46.6104 28.8494 46.4207C28.8499 46.5794 28.9034 65.8385 28.9054 66.5632C28.3072 66.2162 23.708 63.5477 24.0016 63.718L23.9452 43.5658ZM28.8963 67.8716L29.191 68.0429C29.3638 68.1446 29.5816 68.1457 29.7582 68.044C29.7643 68.0405 29.7667 68.0332 29.7727 68.0295L33.2948 65.9993L33.8213 71.5663L28.9799 68.756L28.8963 67.8716ZM41.4626 59.9824C41.3785 60.0305 41.3089 60.0996 41.2602 60.1819L34.8901 70.8355L34.3395 65.0159C34.2986 64.5983 33.8435 64.3769 33.4927 64.5787L30.0384 66.5695C29.9647 39.4245 29.9896 48.5764 29.9837 46.4218L69.0083 23.8898L69.0613 44.0488L41.4626 59.9824Z" fill="black"/>
<path d="M50.9249 26.0207L47.4347 28.0361C47.1639 28.1925 47.071 28.5386 47.228 28.8094C47.3821 29.0791 47.7283 29.1731 48.0008 29.0167L51.491 27.0013C51.7618 26.8449 51.8547 26.4988 51.6977 26.228C51.5429 25.9555 51.1958 25.8643 50.9249 26.0207Z" fill="black"/>
<path d="M65.7469 29.8669L41.8318 43.6745C41.561 43.831 41.4681 44.177 41.6251 44.4479C41.7792 44.7175 42.1254 44.8116 42.3979 44.6552L66.3129 30.8475C66.5838 30.6911 66.6767 30.345 66.5197 30.0742C66.3649 29.8016 66.0178 29.711 65.7469 29.8669Z" fill="black"/>
<path d="M65.3843 35.6057L45.3264 47.1863C45.0556 47.3427 44.9627 47.6888 45.1197 47.9596C45.2738 48.2293 45.6201 48.3233 45.8925 48.1669L65.9503 36.5864C66.2212 36.4299 66.3141 36.0839 66.1571 35.813C66.0012 35.5405 65.6552 35.4493 65.3843 35.6057Z" fill="black"/>
<path d="M59.8842 44.3097L43.1806 53.9544C42.9097 54.1109 42.8168 54.4569 42.9738 54.7278C43.1279 54.9974 43.4742 55.0914 43.7466 54.9351L60.4503 45.2903C60.7211 45.1339 60.814 44.7878 60.657 44.517C60.5011 44.245 60.154 44.1538 59.8842 44.3097Z" fill="black"/>
<path d="M41.8351 47.7457C41.0766 48.1838 38.8068 49.4949 38.9524 49.4108C38.913 49.2962 38.0274 46.7169 38.084 46.8817C38.0022 46.644 37.7799 46.4815 37.5224 46.4997C37.2763 46.5111 37.0542 46.6897 36.995 46.937C36.9671 47.0528 35.9211 51.3998 35.9879 51.1226C35.873 51.1888 32.5248 53.1184 32.7354 52.997C32.5374 53.1109 32.4227 53.3423 32.4534 53.5691C32.4844 53.7969 32.6491 53.9832 32.8724 54.0407C32.9878 54.0706 35.287 54.6681 35.1443 54.631C35.1165 54.7469 34.1502 58.764 34.2101 58.5148C34.1254 58.8698 34.3917 59.2162 34.7607 59.2162C34.9398 59.2162 35.1145 59.1311 35.2228 58.9769L37.8065 55.3209C37.922 55.3502 40.412 55.9837 40.253 55.9433C40.4554 55.9964 40.6687 55.9311 40.8091 55.7791L40.8115 55.7744L40.8147 55.7725C40.9551 55.6194 41.0004 55.401 40.933 55.2048C40.8935 55.0903 39.868 52.1154 39.9335 52.3055C40.0139 52.1919 42.7534 48.3188 42.5813 48.5621C42.735 48.3449 42.7162 48.0503 42.5371 47.8535C42.3569 47.6567 42.0639 47.6119 41.8351 47.7457ZM38.8379 51.8931C38.7329 52.0418 38.7053 52.2325 38.765 52.405C38.806 52.5238 39.5653 54.7238 39.5172 54.5844C39.4018 54.555 37.5948 54.0935 37.7103 54.123C37.4837 54.0633 37.2427 54.1529 37.1078 54.3447L36.0033 55.9074L36.3781 54.3546C36.45 54.0545 36.2687 53.7516 35.9691 53.6742C35.8538 53.6441 34.3806 53.2607 34.4959 53.2907C34.6276 53.2149 36.9086 51.9027 36.7628 51.9866C36.8977 51.9086 36.995 51.7793 37.0315 51.6278C37.0588 51.5142 37.6822 48.9244 37.6429 49.0878L38.1028 50.4294C38.2131 50.7548 38.6059 50.9265 38.9275 50.7401L40.158 50.0265C40.0773 50.1406 38.754 52.0118 38.8379 51.8931Z" fill="black"/>
</svg>
