<svg width="93" height="92" viewBox="0 0 93 92" fill="none" xmlns="http://www.w3.org/2000/svg">
<rect x="0.5" width="92" height="92" rx="46" fill="white"/>
<path d="M25.3131 60.9714C25.3015 65.1011 28.2213 70.1562 31.8231 72.2407C33.3926 73.1442 35.2511 73.5716 36.8086 72.6779C37.4532 72.3081 65.3991 56.0619 65.5129 55.9953C66.8589 55.2203 67.6068 53.6322 67.6189 51.5223L67.6869 31.6314C67.6876 31.3956 67.5218 31.2089 67.4078 31.1416L64.1359 29.2169C63.9596 29.1129 63.7418 29.1118 63.5644 29.2157L58.4962 32.1613L58.517 21.3061C58.5177 21.1012 58.3394 20.8851 58.2251 20.8186L54.9306 18.9055C54.7548 18.8038 54.5376 18.8032 54.3618 18.906L40.6413 26.8803L39.8289 26.1114C39.8164 26.0997 39.798 26.1012 39.7846 26.0909C39.7627 26.0734 39.7508 26.0466 39.7261 26.0323L36.4111 24.1198C36.2354 24.0191 36.0198 24.0191 35.8451 24.1198L25.6524 30.0044C25.649 30.0063 25.6449 30.0054 25.6415 30.0073C25.4668 30.1079 25.359 30.2948 25.3585 30.4965L25.3496 36.4543C25.3491 36.7672 25.6022 37.0209 25.9146 37.0214C25.914 37.0214 25.9151 37.0214 25.9146 37.0214C26.2269 37.0214 26.4812 36.7683 26.4817 36.4565L26.4889 31.479L28.6751 32.7403L28.6193 62.8862C28.6193 64.9657 30.0316 67.4089 31.8259 68.4432C33.7324 69.5849 35.6378 68.6307 35.6378 66.2724L35.6925 41.7934L37.8897 43.0605C37.8615 50.975 37.8254 61.1116 37.8002 68.1811C37.7795 71.7156 35.4365 73.0151 32.3892 71.2606C29.1013 69.3574 26.4347 64.7429 26.4452 60.973V46.3141C26.4452 46.0012 26.1921 45.748 25.8792 45.748C25.5663 45.748 25.3131 46.0012 25.3131 46.3141V60.9714ZM38.4495 42.0726L36.26 40.8096L45.324 35.5781L47.5084 36.8389C47.2691 36.9772 37.9056 42.3868 38.4495 42.0726ZM66.4869 51.5168C66.4775 53.2066 65.9308 54.4487 64.9457 55.0158L38.6211 70.3182C38.6342 70.2774 38.6387 70.229 38.6509 70.1875C38.8397 69.5527 38.9284 68.7831 38.9321 68.1903C38.9321 68.1894 38.9323 68.1887 38.9323 68.1878L39.0168 44.4871C39.0174 44.4763 39.023 44.4672 39.023 44.4562V43.0506L48.5591 37.5408C48.9003 37.8624 47.3234 36.3753 51.8961 40.6864C52.0449 40.8181 52.3232 40.8904 52.5526 40.7565L66.5515 32.6158L66.4869 51.5168ZM63.8474 30.3605L65.9998 31.6269L52.3502 39.5647L50.7036 37.9998L63.8474 30.3605ZM41.5011 27.6901L54.6465 20.0497L56.8108 21.3068L43.1467 29.2517L42.6521 28.7836L41.5011 27.6901ZM36.1281 25.2634L38.3105 26.5226L29.2432 31.7581L27.0604 30.4991L36.1281 25.2634ZM32.3997 67.4675C30.9641 66.64 29.7513 64.5417 29.7513 62.8873L29.8071 32.7443C30.0613 32.5974 39.947 26.8851 39.3602 27.2242C39.4738 27.3318 42.8934 30.5736 42.6757 30.3672C42.8193 30.5042 43.1165 30.5811 43.3501 30.4462L57.3833 22.2873L57.3629 32.82L49.8461 37.1886L49.0331 36.425C49.0159 36.4088 48.9909 36.4104 48.9722 36.3967C48.9536 36.3826 48.9442 36.36 48.9237 36.3482L45.607 34.4345C45.4313 34.3339 45.2168 34.3339 45.041 34.4345L34.8407 40.3215C34.8314 40.3269 34.8276 40.3376 34.8187 40.3435C34.7593 40.3828 34.7089 40.4338 34.6667 40.4955C34.6448 40.5272 34.6308 40.5594 34.6157 40.5949C34.5915 40.6527 34.573 40.7105 34.5687 40.7705C34.5676 40.785 34.5577 40.797 34.5577 40.8118C34.5577 40.8183 34.5624 40.8236 34.5626 40.8302L34.5057 66.2713C34.5057 67.7288 33.5865 68.173 32.3997 67.4675Z" fill="black"/>
<path d="M25.9052 44.0024C26.2175 44.0024 26.4712 43.7492 26.4718 43.4369L26.4768 39.7814C26.4773 39.4691 26.2242 39.2154 25.9113 39.2148C25.599 39.2148 25.3453 39.468 25.3447 39.7803L25.3397 43.4358C25.3392 43.7481 25.5923 44.0018 25.9052 44.0024Z" fill="black"/>
<path d="M45.1974 51.6146C45.0692 51.7362 45.005 51.9109 45.0244 52.0872C45.5562 56.8914 47.723 59.9106 51.1264 60.5889C51.1635 60.5966 51.2005 60.5999 51.237 60.5999C51.4061 60.5999 51.5692 60.5236 51.6775 60.3893C55.3629 55.8184 57.7696 50.2681 58.6369 44.3379C58.6624 44.1644 58.606 43.9886 58.4838 43.8625C58.3622 43.736 58.1908 43.6757 58.0134 43.6934C56.3606 43.8791 54.6211 43.7354 52.5913 43.2274C52.3608 43.1694 52.1203 43.2606 51.9865 43.4568C49.7368 46.743 47.5157 49.4118 45.1974 51.6146ZM52.6991 44.4181C54.4127 44.8172 55.93 44.9659 57.4059 44.8808C56.5049 50.226 54.306 55.2259 51.0159 59.4026C47.6932 58.5414 46.5456 55.1159 46.1824 52.2387C48.409 50.0923 50.5455 47.5285 52.6991 44.4181Z" fill="black"/>
<path d="M49.9745 55.374C50.074 55.4475 50.1923 55.4851 50.3111 55.4851C50.4084 55.4851 50.5063 55.4602 50.5941 55.4094L53.636 53.6532C53.8666 53.52 53.9732 53.2441 53.892 52.9904L53.3619 51.3343C53.6189 50.8468 53.7577 50.3288 53.7566 49.8518C53.7549 49.2354 53.5067 48.7396 53.075 48.4914C52.6394 48.2405 52.0783 48.2769 51.5377 48.5893C50.6129 49.1238 49.891 50.3725 49.8943 51.4311C49.8954 51.8954 50.0314 52.2845 50.2774 52.5554L49.7595 54.7914C49.7086 55.0108 49.7932 55.2397 49.9745 55.374ZM52.1038 49.5699C52.3006 49.4555 52.452 49.4372 52.5101 49.4726C52.567 49.5046 52.6239 49.6357 52.6245 49.8546C52.625 50.1901 52.4913 50.6074 52.2652 50.9723C52.1784 51.1132 52.1568 51.2851 52.2077 51.4427L52.6748 52.9009L51.1569 53.7776L51.4626 52.4576C51.5234 52.195 51.3901 51.9258 51.1447 51.8141C51.0972 51.7931 51.027 51.6726 51.0264 51.4283C51.0242 50.771 51.5278 49.9026 52.1038 49.5699Z" fill="black"/>
</svg>
