<svg width="93" height="92" viewBox="0 0 93 92" fill="none" xmlns="http://www.w3.org/2000/svg">
<rect x="0.5" width="92" height="92" rx="46" fill="white"/>
<path d="M65.2661 29.3818C65.8904 27.299 66.3065 25.4838 66.3033 24.3353C66.2896 19.484 62.7145 17.4125 58.4915 19.8557C57.206 20.5975 56.0105 21.6556 54.9758 22.9017C51.5491 21.4431 47.2289 22.0332 42.7232 24.6272C32.2532 30.7005 24.6075 44.8095 24.6337 55.956C24.6564 61.5998 26.6055 65.8374 30.1233 67.8893C33.2358 69.7659 37.4967 72.3324 39.2656 72.8266C43.094 73.8153 46.6048 72.5573 50.0716 70.7244C59.4325 65.8059 68.3903 51.4264 68.3662 39.3121C68.355 35.1443 67.2781 31.7278 65.2661 29.3818ZM62.4118 55.9826C61.1782 55.3441 59.7984 54.999 58.3001 54.9411C58.9608 51.6947 59.3234 48.2569 59.3454 44.9169C59.3469 44.914 59.3501 44.9124 59.3516 44.9095C59.3605 44.8918 59.38 44.8429 59.3918 44.8162L67.1946 40.3165C67.0021 45.2672 65.3303 50.7653 62.4118 55.9826ZM50.4183 56.965V49.998L58.1999 45.5091C58.1409 48.6653 57.784 51.8925 57.1487 54.9394C55.0221 55.0613 52.7652 55.7381 50.4183 56.965ZM53.3843 38.233C52.4207 39.0296 51.4245 39.7243 50.4183 40.3542V29.4529C50.8745 29.2274 51.3207 29.0728 51.7461 29.0361C51.7436 29.0449 51.7429 29.0536 51.7404 29.0624C51.5874 29.6185 51.4562 30.2353 51.3734 30.8416C51.1698 32.3387 51.2037 33.3889 51.8641 35.1477C52.1611 35.9336 52.6873 37.0512 53.3843 38.233ZM45.658 42.6052C44.782 42.4055 43.8422 42.5554 43.0024 42.8748C43.0007 42.8755 42.9991 42.8757 42.9973 42.8764C44.4156 36.938 46.7438 32.2645 49.2862 30.1843V41.0371C48.0424 41.7238 46.8233 42.2553 45.658 42.6052ZM50.4183 41.7014C51.6303 40.9878 52.8235 40.1462 53.9787 39.2006C55.3711 41.3791 56.9521 43.3265 57.8659 44.3956L50.4183 48.6909V41.7014ZM38.2778 41.7598C38.4757 41.4193 38.6846 41.0898 38.9096 40.7526C40.8607 37.74 43.1783 35.0258 45.6539 32.8385C44.0578 35.4736 42.7069 39.0283 41.7676 43.1844C40.3765 43.1669 39.0866 42.8825 37.9467 42.3026C38.0534 42.1224 38.1628 41.9422 38.2778 41.7598ZM47.0909 43.3075C47.8112 43.0355 48.5443 42.7059 49.2862 42.3213V49.3438L48.1561 49.9955C48.4607 48.8012 48.6113 47.8863 48.6113 47.2223C48.6072 45.7882 48.194 44.223 47.0909 43.3075ZM47.7173 51.5561L49.2862 50.6511V57.6068C47.4436 58.7057 45.6625 60.0729 43.9697 61.6842C45.0814 58.9984 46.7169 54.872 47.7173 51.5561ZM37.3577 43.2475C38.3729 43.7784 39.4752 44.1246 40.6609 44.2585C37.8517 46.5317 35.8044 50.5117 35.8141 53.9583C35.8164 54.8012 36.0832 55.7536 36.4933 56.7332L32.6066 58.9748C32.7839 53.8505 34.5509 48.2871 37.3577 43.2475ZM36.9462 53.9561C36.9361 50.414 39.4793 45.9855 42.6838 44.2649C43.7667 43.7755 44.8591 43.338 45.9691 43.9226C47.5865 44.7613 47.6334 47.1347 47.2389 48.9433C46.4179 52.7332 43.6268 59.6439 42.0988 63.2134C39.9565 60.676 36.9533 56.4663 36.9462 53.9561ZM49.2862 58.9505V69.8458C46.0542 71.3399 43.9406 67.8238 42.8869 64.4127C44.8721 62.2178 47.0639 60.3618 49.2862 58.9505ZM50.4183 69.1574V58.2517C52.6927 56.9874 54.868 56.2599 56.9017 56.0876C55.4733 62.2369 53.1025 67.0315 50.4183 69.1574ZM67.2227 38.9921L60.1322 43.081C61.3515 40.194 63.4528 35.05 64.8632 30.6805C66.3588 32.7304 67.1651 35.5772 67.2227 38.9921ZM59.0576 20.8352C62.5116 18.8393 65.1598 20.3484 65.1712 24.3375C65.1806 27.5701 61.2547 37.5914 58.6822 43.6007C56.6317 41.1709 53.9418 37.5548 52.8624 34.564C52.3489 33.1369 52.3119 32.3138 52.5031 30.9504C52.8236 28.6731 53.9223 26.073 55.6199 23.9406C55.6268 23.9319 55.6277 23.9203 55.634 23.9112C56.6356 22.6398 57.8042 21.5588 59.0576 20.8352ZM30.6927 66.9109C27.5363 65.0701 25.7868 61.1786 25.7658 55.9527C25.7396 44.6608 33.7473 31.1411 43.2898 25.6078C46.5955 23.7033 50.7001 22.4391 54.2764 23.8129C53.5223 24.8619 52.881 26.0084 52.3857 27.1946C51.4668 27.5509 50.5067 28.0189 49.5289 28.5883C39.5188 34.3504 31.403 48.3952 31.4378 59.8973C31.4563 63.6697 32.349 66.5475 33.6456 68.6256L30.6927 66.9109ZM32.5858 60.295L36.9692 57.7669C38.3315 60.4466 40.5263 63.126 41.5071 64.2631C39.839 66.1663 38.3239 68.2705 36.9907 70.5325C33.8174 68.3822 32.673 64.1384 32.5858 60.295ZM39.5586 71.7332C38.8321 71.5317 38.2371 71.2747 37.9456 71.1197C39.1557 69.0651 40.5285 67.1537 42.0232 65.4004C42.8302 67.7373 44.2197 70.3677 46.5813 71.1218C44.3652 71.867 42.1119 72.3889 39.5586 71.7332ZM54.1969 66.3593C55.7906 63.715 57.142 60.1588 58.0703 56.0571C59.4593 56.0785 60.7482 56.3716 61.8756 56.951C59.6345 60.778 56.6451 64.2635 54.1969 66.3593Z" fill="black"/>
<path d="M59.0824 31.9238C60.8529 30.9023 62.236 28.5066 62.2304 26.4701C62.2247 24.219 60.4761 23.1927 58.4976 24.3387C56.7226 25.3624 55.3368 27.7592 55.3429 29.7956C55.3486 32.0197 57.0657 33.0878 59.0824 31.9238ZM59.0636 25.3182C60.248 24.6363 61.0948 25.0554 61.0984 26.4724C61.1028 28.0865 59.9204 30.1339 58.5164 30.9443C57.3312 31.6282 56.4785 31.2163 56.475 29.7923C56.47 28.1793 57.6557 26.1307 59.0636 25.3182Z" fill="black"/>
<path d="M42.5087 53.6664C44.02 52.7942 45.2001 50.75 45.1952 49.0132C45.1894 47.0457 43.6464 46.1546 41.9272 47.1448C40.4126 48.0193 39.2302 50.0646 39.2352 51.8025C39.2409 53.759 40.7787 54.6677 42.5087 53.6664ZM40.3673 51.8003C40.3634 50.4747 41.3368 48.7932 42.4932 48.1255C43.4302 47.587 44.0595 47.902 44.0631 49.0154C44.067 50.3399 43.0957 52.0203 41.9427 52.6869C40.99 53.2375 40.3708 52.8977 40.3673 51.8003Z" fill="black"/>
</svg>
