<svg width="93" height="92" viewBox="0 0 93 92" fill="none" xmlns="http://www.w3.org/2000/svg">
<rect x="0.5" width="92" height="92" rx="46" fill="white"/>
<path d="M47.5067 24.014L49.7316 22.7293C50.0024 22.5729 50.0953 22.2269 49.9389 21.956C49.7819 21.684 49.4342 21.5923 49.1655 21.7487L46.9406 23.0334C46.6698 23.1898 46.5769 23.5358 46.7333 23.8067C46.8902 24.0783 47.2373 24.1696 47.5067 24.014Z" fill="black"/>
<path d="M45.3807 25.2411C45.6515 25.0846 45.7444 24.7386 45.588 24.4677C45.431 24.1963 45.0849 24.1035 44.8146 24.2604C36.8974 28.8397 45.0241 24.1276 33.3513 30.8926C31.6299 31.9274 30.3038 34.2557 30.316 36.2429L30.4061 67.3998C30.4061 68.4772 30.8013 69.3025 31.5205 69.7237L36.9736 72.8944C36.9758 72.8955 36.9774 72.8966 36.9797 72.8982C36.9802 72.8988 36.9813 72.8988 36.9819 72.8993C36.9832 72.9001 36.9848 72.8997 36.9861 72.9004C36.9876 72.9013 36.9886 72.9029 36.9902 72.9038C37.8067 73.3733 38.761 73.1716 39.5738 72.7031L59.5637 61.1618C61.3198 60.148 62.6902 57.77 62.6841 55.748L62.5962 24.5927C62.5929 23.5317 62.2051 22.7246 61.5112 22.3041C61.4997 22.2962 61.4929 22.2842 61.4807 22.2771L56.0171 19.107C55.3068 18.6802 54.3593 18.7471 53.4169 19.2932L50.9416 20.7227C50.6707 20.8791 50.5778 21.2252 50.7343 21.496C50.8907 21.7663 51.2373 21.8592 51.5076 21.7033L53.9829 20.2739C54.5572 19.9411 55.0868 19.8692 55.4417 20.082L59.2508 22.292C59.1342 22.345 59.0172 22.4053 58.8996 22.4727C58.8967 22.4744 58.8939 22.475 58.891 22.4767C29.0424 39.7044 43.1453 31.5646 39.1822 33.852L34.8468 31.3242L45.3807 25.2411ZM33.7511 31.9964L38.1511 34.5618C37.0043 35.5395 36.1495 37.0535 35.8764 38.49L31.4678 35.9932C31.5612 34.5394 32.5397 32.8316 33.7511 31.9964ZM32.0915 68.7458C31.7344 68.5369 31.5382 68.0587 31.5382 67.3982L31.4511 37.2849L35.7816 39.7375C35.7902 42.8917 35.7504 28.3129 35.8658 70.581C35.8675 70.7087 35.8741 70.8325 35.8863 70.9525L32.0915 68.7458ZM58.9976 60.1812L39.0078 71.7225C38.4373 72.0525 37.9072 72.1255 37.5545 71.9226C37.2046 71.7208 37.0029 71.23 37.0007 70.576C36.8886 27.8708 36.9272 42.5999 36.9189 39.4136C36.9189 39.4037 36.9165 39.3937 36.9159 39.3838C36.9291 37.769 38.1044 35.7851 39.4666 34.9986C53.4849 26.9054 59.618 23.3684 59.4782 23.4477C60.5767 22.8244 61.4592 23.1583 61.4641 24.596L61.552 55.7513C61.557 57.3504 60.3873 59.3791 58.9976 60.1812Z" fill="black"/>
<path d="M59.3055 26.0415C59.1292 25.9409 58.9142 25.9414 58.7401 26.042L39.0714 37.3982C38.8956 37.4999 38.7878 37.6873 38.7883 37.8901L38.8757 64.5763C38.8762 64.7786 38.9846 64.9649 39.1592 65.0655C39.3366 65.167 39.5516 65.1646 39.7247 65.0649L59.3929 53.7093C59.5687 53.6076 59.6765 53.4202 59.6759 53.2174L59.5891 26.5307C59.5886 26.3284 59.4802 26.1421 59.3055 26.0415ZM40.0044 63.5962L39.9215 38.2146L58.4604 27.5108L58.5427 52.8929L40.0044 63.5962Z" fill="black"/>
<path d="M47.746 37.4258C47.5707 37.3246 47.3551 37.3263 47.181 37.4263L42.4554 40.1553C42.2796 40.2571 42.1718 40.4444 42.1724 40.6473L42.1923 46.7029C42.1928 46.9052 42.3012 47.0915 42.4758 47.1921C42.6532 47.2936 42.8682 47.2913 43.0413 47.1916L47.767 44.4631C47.9427 44.3614 48.0505 44.174 48.05 43.9711L48.0301 37.915C48.0295 37.7127 47.9212 37.5264 47.746 37.4258ZM43.321 45.7229L43.3055 40.9718L46.9013 38.895L46.9168 43.6467L43.321 45.7229Z" fill="black"/>
<path d="M55.9894 32.6908C55.8142 32.5902 55.5981 32.5907 55.4239 32.6913L50.6978 35.4204C50.522 35.5221 50.4142 35.7095 50.4147 35.9123L50.4346 41.9679C50.4352 42.1703 50.5435 42.3565 50.7182 42.4571C50.8956 42.5586 51.1106 42.5563 51.2837 42.4566L56.0093 39.7281C56.1851 39.6264 56.2929 39.439 56.2924 39.2361L56.273 33.18C56.2725 32.9777 56.1641 32.7914 55.9894 32.6908ZM51.5634 40.9879L51.5479 36.2368L55.1442 34.16L55.1592 38.9117L51.5634 40.9879Z" fill="black"/>
<path d="M47.7465 48.6498C47.5702 48.5492 47.3551 48.5497 47.181 48.6503L42.4554 51.3788C42.2796 51.4805 42.1718 51.6679 42.1724 51.8708L42.1923 57.9269C42.1928 58.1292 42.3012 58.3155 42.4758 58.4161C42.6532 58.5176 42.8682 58.5153 43.0413 58.4156L47.767 55.6871C47.9427 55.5854 48.0505 55.398 48.05 55.1951L48.0301 49.139C48.0295 48.9367 47.9212 48.7504 47.7465 48.6498ZM43.321 56.9469L43.3055 52.1952L46.9013 50.119L46.9168 54.8707L43.321 56.9469Z" fill="black"/>
<path d="M55.9894 43.9148C55.8142 43.8136 55.5981 43.8153 55.4239 43.9153L50.6978 46.6444C50.522 46.7461 50.4142 46.9335 50.4147 47.1363L50.4346 53.1919C50.4352 53.3943 50.5435 53.5805 50.7182 53.6811C50.8956 53.7826 51.1106 53.7803 51.2837 53.6806L56.0093 50.9521C56.1851 50.8504 56.2929 50.663 56.2924 50.4601L56.273 44.404C56.2725 44.2017 56.1641 44.0154 55.9894 43.9148ZM51.5634 52.2119L51.5479 47.4608L55.1442 45.384L55.1592 50.1357L51.5634 52.2119Z" fill="black"/>
<path d="M48.9477 60.5118C48.0229 61.0463 47.3005 62.295 47.3032 63.3552C47.3079 64.646 48.3915 65.2706 49.5226 64.6178C50.4446 64.0854 51.1643 62.8384 51.161 61.7782C51.1575 60.4788 50.0796 59.8618 48.9477 60.5118ZM48.9566 63.6371C48.6016 63.8426 48.4364 63.7837 48.4353 63.3519C48.4336 62.6947 48.9378 61.8257 49.5138 61.4924C49.8661 61.2902 50.0278 61.3399 50.0289 61.7815C50.0312 62.4393 49.5298 63.3066 48.9566 63.6371Z" fill="black"/>
</svg>
