<svg width="93" height="92" viewBox="0 0 93 92" fill="none" xmlns="http://www.w3.org/2000/svg">
<rect x="0.5" width="92" height="92" rx="46" fill="white"/>
<path d="M28.658 66.7195C40.8176 73.7912 36.7842 71.4488 37.625 71.9343C37.6278 71.9359 37.631 71.9351 37.6338 71.9366C41.718 74.2584 46.6361 73.0074 50.6898 70.6668C53.0103 69.3269 55.27 67.5204 57.4059 65.2977C57.6226 65.0722 57.6154 64.714 57.3905 64.4973C57.1644 64.2801 56.8062 64.2878 56.59 64.5128C54.5277 66.6592 52.3519 68.3993 50.1237 69.6862C45.5899 72.3047 41.3512 72.7513 38.1877 70.9498C35.9165 69.6534 34.5227 67.3117 33.8479 64.8168C32.2493 58.9082 33.9618 50.5531 38.316 43.0116C41.131 38.1342 45.2087 33.3897 49.9882 30.4485C49.9755 30.5654 47.4294 54.0491 47.4361 53.9315C47.4098 54.3923 47.9417 54.7071 48.3283 54.4192L67.4387 40.3821C67.311 45.5262 65.5389 51.285 62.3903 56.732C62.2338 57.0023 62.3267 57.3489 62.5976 57.5053C62.8668 57.6612 63.2145 57.5694 63.3709 57.298C66.8495 51.28 68.6968 44.8701 68.5725 39.25C68.5724 39.2471 68.5701 39.2449 68.57 39.242C68.5698 39.2386 68.5721 39.2357 68.5719 39.2324C68.5665 39.1349 68.5353 39.0432 68.4851 38.9632C68.4743 38.9458 68.4544 38.9368 68.4417 38.9207C68.3981 38.8654 68.3536 38.8099 68.2911 38.7736L66.0867 37.4928L69.5951 34.9158C69.7615 34.7942 69.8477 34.5913 69.8217 34.3868C69.2634 30.079 67.4232 26.926 64.503 25.2694L64.5 25.2679L55.5425 20.0617C50.6152 17.2421 44.7857 20.14 44.8989 20.1148C44.7849 20.1726 44.615 20.3416 44.5916 20.5592C44.5696 20.7621 44.1014 25.0886 44.1199 24.9171L41.9941 23.6807C41.8183 23.5779 41.6005 23.5779 41.4248 23.6807L41.0456 23.9018C36.2464 26.6668 31.7479 31.4018 28.3783 37.2357C23.8781 45.0364 22.1231 53.7244 23.7969 59.9099C24.641 63.0303 26.3236 65.3862 28.658 66.7195ZM66.975 39.318L60.9255 43.7617L48.6954 52.7448L49.3695 46.5637C49.483 46.6294 51.6064 47.8588 51.4929 47.7931C51.6207 47.8671 51.8434 47.9041 52.033 47.808C52.1465 47.7509 56.0869 44.8356 65.0919 38.2235L66.975 39.318ZM68.6532 34.2032L64.7165 37.0949L64.7149 37.096L52.4789 46.084C55.3225 19.9429 54.4088 28.3429 54.6381 26.2352C57.6591 25.0248 61.0918 24.6282 63.9275 26.246C63.9324 26.2488 63.9376 26.2505 63.9424 26.2533C66.4703 27.6866 68.0949 30.4317 68.6532 34.2032ZM54.9765 21.0423L60.1261 24.0356C58.5451 23.9648 56.3021 24.3287 54.1556 25.1975C54.0413 25.1311 45.9538 20.4304 46.4593 20.7242C49.7097 19.597 52.6375 19.7036 54.9765 21.0423ZM45.623 21.5485C45.7363 21.6144 54.0362 26.4401 53.5067 26.1322C53.2816 28.2039 54.3215 18.6334 51.3068 46.3771L49.5041 45.3338L51.242 29.4439C51.2581 29.2977 51.1923 29.0905 51.0313 28.9572C50.8701 28.8194 51.9535 29.4914 45.1914 25.5402L45.623 21.5485ZM29.3589 37.8018C32.6302 32.1381 36.981 27.5495 41.6127 24.8813L41.7094 24.8249C43.1386 25.6566 49.9722 29.6334 49.5343 29.3786C47.6357 30.5315 45.6166 32.1396 43.7281 34.0392C41.3759 36.4033 39.2465 39.1367 37.3309 42.4484C32.8341 50.2364 31.0808 58.9204 32.7545 65.1114C32.7552 65.1137 32.7561 65.1156 32.7568 65.1179C33.0233 66.102 33.5128 67.4022 34.2147 68.5472C34.4178 68.8782 34.6308 68.8114 29.2234 65.7388C27.1522 64.5554 25.6536 62.4377 24.8892 59.6141C23.2917 53.7089 25.0041 45.351 29.3589 37.8018Z" fill="black"/>
<path d="M59.4959 62.9341C60.2074 62.0613 60.9011 61.1343 61.5572 60.1774C61.7341 59.9198 61.6689 59.5677 61.4107 59.3908C61.1543 59.2139 60.8005 59.2797 60.6241 59.5373C59.9851 60.4676 59.3102 61.3703 58.6181 62.2188C58.4208 62.4609 58.4573 62.8175 58.6994 63.0153C58.94 63.2116 59.2966 63.1776 59.4959 62.9341Z" fill="black"/>
</svg>
