<svg width="93" height="92" viewBox="0 0 93 92" fill="none" xmlns="http://www.w3.org/2000/svg">
<rect x="0.5" width="92" height="92" rx="46" fill="white"/>
<path d="M21.7738 41.6621L24.6073 43.2797V50.0559C24.6073 50.738 24.9749 51.3654 25.5691 51.6954L38.2369 58.6354C38.2571 58.6466 38.2796 58.6434 38.3005 58.6518L43.6668 65.5285C43.6709 65.5337 43.6774 65.5353 43.6816 65.5404C44.4679 66.982 45.5249 68.1345 46.8613 68.9037C50.4059 70.9427 54.6894 69.8648 58.2301 67.8203C66.7715 62.889 73.6978 50.8867 73.6696 41.0651C73.6558 36.194 71.9704 32.5452 68.9235 30.7918C67.1708 29.784 65.7332 29.8058 64.838 29.6835C48.1183 27.4257 45.6737 27.0998 40.909 26.4575C40.1602 26.3519 39.4112 26.1534 38.6815 25.953L32.8695 22.5832C31.2952 21.6622 29.1632 21.8458 27.0196 23.0884C22.7627 25.5477 19.3134 31.5259 19.3305 36.4129C19.3305 38.8838 20.1973 40.7472 21.7738 41.6621ZM26.1158 50.7043C25.8869 50.5771 25.7393 50.3229 25.7393 50.0559V43.926L27.4985 44.9304C27.5048 44.9366 27.5102 44.9436 27.5165 44.9498V48.1991C27.5165 48.8696 27.8863 49.4959 28.4899 49.8386L33.6119 52.6438L36.5659 56.4293L26.1158 50.7043ZM28.6486 46.2832C28.8991 46.6043 32.0119 50.5934 31.8532 50.39L29.0416 48.8503C28.7956 48.7104 28.6486 48.4672 28.6486 48.1991V46.2832ZM72.5375 41.0684C72.5646 50.5285 65.8926 62.0897 57.6641 66.8397C53.7621 69.0911 50.1271 69.4769 47.4262 67.9226C44.3454 66.1498 43.2528 62.2178 43.2528 58.6233C43.2197 49.322 49.8162 37.6526 58.1312 32.852C61.2529 31.0499 65.2529 29.9863 68.3586 31.773C71.0411 33.3169 72.5248 36.618 72.5375 41.0684ZM61.0227 30.3092C60.1697 30.5821 58.7002 31.2138 57.5618 31.8708C48.8668 36.8919 42.0888 49.0443 42.1157 58.6321C42.1196 60.0234 42.3079 61.3994 42.4452 62.0864C42.4481 62.101 42.4489 62.1172 42.4518 62.1317C42.3642 62.0183 27.727 43.0751 28.6707 44.296C27.4717 43.594 26.8885 42.2391 26.8885 40.153C26.8725 35.6258 30.0681 30.0887 34.0121 27.8102C36.3059 26.4822 36.2224 26.9414 40.7548 27.5791L61.0227 30.3092ZM27.5861 24.0684C28.6541 23.4499 29.6983 23.1354 30.6247 23.1354C31.2449 23.1354 31.8132 23.2763 32.2996 23.5616L36.1297 25.7824C35.2733 25.9298 34.376 26.2674 33.461 26.7991C29.1914 29.2507 25.7272 35.251 25.7393 40.1762C25.7456 41.2355 25.8648 42.0964 26.119 42.8338L25.4536 42.4542C25.4481 42.4511 25.4415 42.4525 25.436 42.4496L22.3387 40.6809C21.1287 39.9794 20.4626 38.4632 20.4626 36.4107C20.4466 31.8835 23.6421 26.347 27.5861 24.0684Z" fill="black"/>
<path d="M59.2958 34.8657C56.3143 36.591 53.0439 39.6452 50.2149 44.2033C46.9098 49.5205 45.5716 54.7732 45.5843 58.6238C45.5843 66.2484 50.2489 68.4386 56.4949 64.8242C63.9557 60.5204 70.2351 49.6451 70.207 41.0772V41.0755C70.1593 33.4712 65.6143 31.2315 59.2958 34.8657ZM53.5392 51.98C53.0898 51.7385 52.8273 51.1465 52.8184 50.3527C52.788 48.4467 54.1595 46.009 55.8145 45.0284C56.3336 44.7184 57.0856 44.4775 57.622 44.7697C58.072 45.0113 58.3345 45.6116 58.3434 46.4164V46.4192C58.3738 48.3307 57.0029 50.7684 55.349 51.7424C54.6365 52.1652 54.0014 52.2526 53.5392 51.98ZM56.0239 43.6842C53.6643 44.5207 51.6442 47.7064 51.6864 50.3676C51.6897 50.6462 51.7168 50.911 51.7676 51.1586L48.6639 49.6728C49.8329 46.8102 51.4175 44.1097 53.3232 41.7149L56.0593 43.6675C56.0477 43.6715 56.0356 43.68 56.0239 43.6842ZM48.2474 50.7288L53.0158 53.0115C54.0166 53.4848 54.9976 53.2666 55.925 52.7169C57.9531 51.5224 59.5125 48.7491 59.4755 46.402C59.4616 45.1732 58.9813 44.2147 58.203 43.799C58.1332 43.7469 54.165 40.9245 54.0479 40.8412C55.8126 38.7886 57.7859 37.0473 59.8613 35.8463C61.2031 35.075 62.7839 34.4201 64.3348 34.3325C65.0024 35.7528 65.1663 37.5124 65.1806 38.7821C65.2071 46.9941 59.1869 57.4166 52.0341 61.5435C50.43 62.4716 48.8949 62.9973 47.5672 63.0772C46.935 61.7582 46.7164 60.0843 46.7164 58.6221C46.7081 56.1173 47.2688 53.4058 48.2474 50.7288ZM69.0749 41.0805C69.102 49.2936 63.0817 59.7172 55.9283 63.8442C53.4429 65.282 50.14 66.3167 48.2549 64.1299C49.603 63.9388 51.0811 63.4029 52.6006 62.5236C60.0614 58.2192 66.3409 47.3445 66.3127 38.7766V38.7721C66.2991 37.5418 66.1457 35.8833 65.5842 34.4014C68.5559 35.032 69.0602 38.7663 69.0749 41.0805Z" fill="black"/>
</svg>
