<svg width="93" height="92" viewBox="0 0 93 92" fill="none" xmlns="http://www.w3.org/2000/svg">
<rect x="0.5" width="92" height="92" rx="46" fill="white"/>
<path d="M38.9649 32.7528C39.2357 32.5964 39.3286 32.2504 39.1721 31.9795C39.0157 31.707 38.668 31.6152 38.3988 31.7722L25.8989 38.9885L25.8968 38.9898C25.7221 39.0909 25.6143 39.2772 25.6138 39.4795C25.6138 39.481 25.6149 39.4822 25.6149 39.4837L25.6259 44.7894C25.6265 44.9907 25.7332 45.1764 25.9067 45.277L29.2153 47.2085L29.248 61.5441L25.9548 63.441C25.7796 63.5428 25.6718 63.7285 25.6713 63.9308C25.6713 63.9383 25.6766 63.9444 25.6769 63.9519L25.6917 69.2485C25.6923 69.4497 25.7995 69.6354 25.9736 69.7371C26.0882 69.8037 31.8649 73.1603 31.7503 73.0937C31.7507 73.094 31.7508 73.0944 31.7512 73.0946C31.9267 73.1946 32.1416 73.1955 32.3167 73.0935L67.1031 53.0091C67.2789 52.9085 67.3867 52.7206 67.3861 52.5183L67.3712 47.2051C67.3707 47.0027 67.2623 46.8159 67.0876 46.7153C67.0786 46.7102 67.0677 46.7123 67.0585 46.7076L63.7824 44.7951L63.7464 30.458L67.0368 28.5584C67.2126 28.4573 67.3209 28.2699 67.3204 28.067L67.3093 22.746C67.3088 22.5437 67.201 22.3574 67.0257 22.2568C67.0199 22.2534 67.0127 22.255 67.0067 22.2518L61.2509 18.907C61.0746 18.8048 60.8585 18.8048 60.6832 18.9059L43.654 28.7381C43.3832 28.8945 43.2903 29.2405 43.4467 29.5114C43.6032 29.7823 43.9497 29.874 44.22 29.7187L60.9651 20.0502L65.6088 22.7487C62.1579 24.7415 78.0869 15.5427 31.9563 42.1826C31.8428 42.1166 27.0009 39.3019 27.3097 39.4814L38.9649 32.7528ZM26.7492 40.4656C26.8683 40.5349 31.695 43.3453 31.3893 43.1673L31.3976 47.1648C30.8608 46.8523 26.546 44.3402 26.7575 44.4633L26.7492 40.4656ZM32.0202 66.6365L27.3687 63.9335L29.814 62.5247C29.9276 62.5905 34.7793 65.4011 34.4702 65.222L32.0202 66.6365ZM34.9799 47.0647C34.9848 48.8212 34.9624 40.7032 35.0272 64.2361L30.3803 61.5439L30.3488 47.864C30.4621 47.93 31.7945 48.7063 31.6812 48.6403C31.682 48.6407 31.6824 48.6418 31.6832 48.6423C31.7964 48.7068 32.0523 48.7535 32.2476 48.6423C32.248 48.642 32.2481 48.6416 32.2485 48.6414C32.8474 48.2957 35.1255 46.9807 34.9799 47.0647ZM26.8116 64.9209L31.4536 67.6184L31.4649 71.6187L26.8227 68.9212L26.8116 64.9209ZM32.5969 71.6254C32.5946 70.7803 32.5854 67.4474 32.5859 67.6216C48.808 58.2489 39.5379 63.6024 66.2419 48.1863L66.253 52.1933L32.5969 71.6254ZM65.6705 47.2082C65.5556 47.2743 63.6712 48.3598 63.7912 48.2906L63.7857 46.1074L65.6705 47.2082ZM62.6512 45.0944C62.6509 45.1027 62.645 45.1094 62.645 45.1178L62.6552 48.949C60.4532 50.2204 38.6295 62.8199 36.1627 64.244C36.0962 39.8044 36.1192 48.2337 36.1142 46.4102C42.3285 42.8226 56.4026 34.6976 62.6157 31.1107L62.6512 45.0944ZM57.3318 32.8536C50.6809 36.6929 39.5805 43.1007 32.5317 47.1697C32.5219 43.271 32.5224 43.4302 32.5218 43.1676C35.9647 41.1794 20.0524 50.3683 66.1794 23.7313L66.1877 27.7414C65.3845 28.2051 56.8254 33.1459 57.3318 32.8536Z" fill="black"/>
<path d="M40.0489 31.4727C40.2068 31.7453 40.554 31.8349 40.8222 31.68L42.4838 30.7209C42.7547 30.5645 42.8476 30.2184 42.6911 29.9476C42.5347 29.6767 42.187 29.5839 41.9178 29.7403L40.2562 30.6994C39.9853 30.8558 39.8925 31.2018 40.0489 31.4727Z" fill="black"/>
<path d="M48.9944 54.5912C52.3724 52.6422 55.2153 47.7203 55.202 43.8426C55.202 40.1738 52.8003 39.01 49.7815 40.7598C46.4035 42.7116 43.5606 47.6363 43.5739 51.5112C43.5739 55.1389 45.9159 56.3704 48.9944 54.5912ZM44.706 51.509C44.6938 47.9878 47.2775 43.5137 50.3481 41.7399C52.5809 40.4468 54.0699 41.0287 54.0699 43.8448V43.847C54.0821 47.3687 51.4984 51.8395 48.4278 53.6106C46.1587 54.9251 44.706 54.2905 44.706 51.509Z" fill="black"/>
<path d="M48.2249 51.2182C48.3962 51.2182 48.5626 51.1397 48.6721 50.9993L52.0959 46.5904C52.2203 46.4301 52.2496 46.2156 52.1722 46.0288C52.0954 45.8408 51.924 45.7093 51.7228 45.6816L48.2857 45.2262C48.1248 45.204 47.9601 45.2549 47.8374 45.3621C47.7147 45.4705 47.6445 45.6264 47.645 45.7889L47.6588 50.6533C47.6595 50.9611 47.9079 51.2182 48.2249 51.2182ZM50.5968 46.6744L48.7865 49.006L48.7788 46.4345L50.5968 46.6744Z" fill="black"/>
<path d="M63.6798 51.3862C63.6787 51.0734 63.4255 50.8213 63.1138 50.8213H63.1121C62.7998 50.8224 62.5466 51.0767 62.5477 51.3884L62.551 52.609C62.5522 52.9218 62.8053 53.1739 63.1171 53.1739H63.1187C63.4311 53.1728 63.6842 52.9185 63.6831 52.6067L63.6798 51.3862Z" fill="black"/>
<path d="M59.6899 52.798H59.6883C59.376 52.7991 59.1228 53.0534 59.1239 53.3651L59.1272 54.5856C59.1283 54.8985 59.3815 55.1506 59.6933 55.1506H59.6949C60.0072 55.1495 60.2604 54.8952 60.2593 54.5834L60.256 53.3629C60.2549 53.05 60.0017 52.798 59.6899 52.798Z" fill="black"/>
<path d="M56.2638 54.7758C55.951 54.7769 55.6984 55.0311 55.6995 55.344L55.7033 56.5634C55.7044 56.8752 55.9576 57.1272 56.2694 57.1272H56.271C56.5839 57.1261 56.8365 56.8719 56.8354 56.559L56.8315 55.3396C56.8304 55.0267 56.6049 54.8167 56.2638 54.7758Z" fill="black"/>
<path d="M52.8417 56.7526H52.84C52.5277 56.7537 52.2745 57.0079 52.2756 57.3197L52.279 58.5391C52.2801 58.852 52.5332 59.1041 52.845 59.1041H52.8467C53.159 59.1029 53.4121 58.8487 53.411 58.5369L53.4077 57.3175C53.4066 57.0046 53.1534 56.7526 52.8417 56.7526Z" fill="black"/>
<path d="M49.4177 58.7292H49.4161C49.1038 58.7304 48.8506 58.9846 48.8517 59.2964L48.855 60.5158C48.8561 60.8287 49.1093 61.0807 49.421 61.0807H49.4227C49.735 61.0796 49.9882 60.8254 49.9871 60.5136L49.9838 59.2942C49.9827 58.9813 49.7295 58.7292 49.4177 58.7292Z" fill="black"/>
<path d="M45.9939 60.7059H45.9922C45.6799 60.707 45.4268 60.9613 45.4279 61.2731L45.4312 62.4936C45.4323 62.8065 45.6855 63.0585 45.9972 63.0585H45.9989C46.3112 63.0574 46.5644 62.8031 46.5633 62.4914L46.5599 61.2709C46.5588 60.958 46.3057 60.7059 45.9939 60.7059Z" fill="black"/>
<path d="M42.5695 62.6826C42.2969 62.7202 42.0023 62.9369 42.0034 63.2509L42.0073 64.4714C42.0084 64.7831 42.2616 65.0352 42.5733 65.0352H42.575C42.8879 65.0341 43.1405 64.7798 43.1394 64.467L43.1355 63.2464C43.1344 62.9347 42.8812 62.6826 42.5695 62.6826Z" fill="black"/>
<path d="M39.1456 64.6593H39.144C38.8317 64.6604 38.5785 64.9147 38.5796 65.2264L38.5829 66.447C38.584 66.7598 38.8372 67.0119 39.1489 67.0119H39.1506C39.4629 67.0108 39.7161 66.7565 39.715 66.4448L39.7117 65.2242C39.7106 64.9114 39.4574 64.6593 39.1456 64.6593Z" fill="black"/>
<path d="M35.7218 66.6361H35.7201C35.4078 66.6372 35.1547 66.8915 35.1558 67.2033L35.1591 68.4238C35.1602 68.7366 35.4134 68.9887 35.7251 68.9887H35.7268C36.0391 68.9876 36.2923 68.7333 36.2912 68.4216L36.2878 67.201C36.2867 66.8882 36.0336 66.6361 35.7218 66.6361Z" fill="black"/>
<path d="M63.6168 26.9322C63.6157 26.6204 63.3625 26.3678 63.0508 26.3678C62.7401 26.3651 62.4836 26.6221 62.4847 26.9355L62.4881 28.1555C62.4892 28.4672 62.7423 28.7199 63.0541 28.7199H63.0558C63.3681 28.7188 63.6212 28.465 63.6201 28.1522L63.6168 26.9322Z" fill="black"/>
<path d="M59.6263 28.3445H59.6247C59.3118 28.3456 59.0592 28.5999 59.0603 28.9122L59.0642 30.1321C59.0653 30.4445 59.3185 30.6965 59.6302 30.6965H59.6319C59.9447 30.6954 60.1974 30.4411 60.1963 30.1288L60.1924 28.9089C60.1913 28.5965 59.9381 28.3445 59.6263 28.3445Z" fill="black"/>
<path d="M56.2025 30.3218H56.2009C55.8885 30.3229 55.6354 30.5766 55.6365 30.8895L55.6398 32.1094C55.6409 32.4212 55.8941 32.6738 56.2058 32.6738H56.2075C56.5198 32.6727 56.773 32.419 56.7719 32.1061L56.7686 30.8862C56.7674 30.5744 56.5143 30.3218 56.2025 30.3218Z" fill="black"/>
<path d="M52.7786 32.2985C52.4154 32.3101 52.2114 32.5527 52.2125 32.8662L52.2158 34.0861C52.217 34.3979 52.4701 34.6505 52.7819 34.6505H52.7835C53.0959 34.6494 53.349 34.3957 53.3479 34.0828L53.3446 32.8628C53.3435 32.5511 53.0903 32.2985 52.7786 32.2985Z" fill="black"/>
<path d="M49.3547 34.2751H49.3531C49.0408 34.2763 48.7876 34.53 48.7887 34.8428L48.792 36.0628C48.7931 36.3746 49.0463 36.6272 49.3581 36.6272H49.3597C49.672 36.6261 49.9252 36.3724 49.9241 36.0595L49.9208 34.8395C49.9197 34.5278 49.6665 34.2751 49.3547 34.2751Z" fill="black"/>
<path d="M45.9303 36.2518H45.9286C45.6158 36.2529 45.3632 36.5072 45.3643 36.8195L45.3681 38.0395C45.3692 38.3518 45.6224 38.6039 45.9342 38.6039H45.9358C46.2487 38.6028 46.5013 38.3485 46.5002 38.0362L46.4963 36.8162C46.4952 36.5039 46.2421 36.2518 45.9303 36.2518Z" fill="black"/>
<path d="M42.5065 38.2291H42.5048C42.1925 38.2302 41.9393 38.484 41.9404 38.7968L41.9437 40.0168C41.9449 40.3286 42.198 40.5812 42.5098 40.5812H42.5114C42.8238 40.5801 43.0769 40.3263 43.0758 40.0135L43.0725 38.7935C43.0714 38.4817 42.8182 38.2291 42.5065 38.2291Z" fill="black"/>
<path d="M39.0826 40.2058H39.081C38.7687 40.2069 38.5155 40.4606 38.5166 40.7735L38.5199 41.9935C38.521 42.3052 38.7742 42.5579 39.086 42.5579H39.0876C39.3999 42.5567 39.6531 42.303 39.652 41.9902L39.6487 40.7702C39.6476 40.4584 39.3944 40.2058 39.0826 40.2058Z" fill="black"/>
<path d="M35.6582 42.1826H35.6565C35.3437 42.1837 35.0911 42.438 35.0922 42.7503L35.096 43.9703C35.0971 44.282 35.3503 44.5341 35.6621 44.5341H35.6637C35.9766 44.5341 36.2292 44.2798 36.2281 43.967L36.2242 42.747C36.2231 42.4347 35.97 42.1826 35.6582 42.1826Z" fill="black"/>
</svg>
