<svg width="93" height="93" viewBox="0 0 93 93" fill="none" xmlns="http://www.w3.org/2000/svg">
<path d="M10.8835 61.3829C10.4038 61.3829 10.0156 61.7711 10.0156 62.2508V67.1422C10.0156 67.622 10.4038 68.0102 10.8835 68.0102C11.3633 68.0102 11.7515 67.622 11.7515 67.1422V62.2508C11.7515 61.7711 11.3633 61.3829 10.8835 61.3829Z" fill="black"/>
<path d="M14.1375 63.2738C13.6577 63.2738 13.2695 63.662 13.2695 64.1418V69.0332C13.2695 69.5129 13.6577 69.9011 14.1375 69.9011C14.6172 69.9011 15.0054 69.5129 15.0054 69.0332V64.1418C15.0054 63.662 14.6172 63.2738 14.1375 63.2738Z" fill="black"/>
<path d="M17.3914 65.1648C16.9116 65.1648 16.5234 65.553 16.5234 66.0327V70.9241C16.5234 71.4039 16.9116 71.7921 17.3914 71.7921C17.8711 71.7921 18.2593 71.4039 18.2593 70.9241V66.0327C18.2593 65.553 17.8711 65.1648 17.3914 65.1648Z" fill="black"/>
<path d="M27.9207 71.3073C27.4409 71.3073 27.0527 71.6954 27.0527 72.1752V77.0666C27.0527 77.5463 27.4409 77.9345 27.9207 77.9345C28.4004 77.9345 28.7886 77.5463 28.7886 77.0666V72.1752C28.7886 71.6954 28.4004 71.3073 27.9207 71.3073Z" fill="black"/>
<path d="M31.1736 73.1982C30.6939 73.1982 30.3057 73.5864 30.3057 74.0661V78.9575C30.3057 79.4373 30.6939 79.8254 31.1736 79.8254C31.6533 79.8254 32.0415 79.4373 32.0415 78.9575V74.0661C32.0415 73.5864 31.6533 73.1982 31.1736 73.1982Z" fill="black"/>
<path d="M34.4275 75.0892C33.9478 75.0892 33.5596 75.4774 33.5596 75.9571V80.8485C33.5596 81.3282 33.9478 81.7164 34.4275 81.7164C34.9072 81.7164 35.2954 81.3282 35.2954 80.8485V75.9571C35.2954 75.4774 34.9072 75.0892 34.4275 75.0892Z" fill="black"/>
<path d="M85.9641 47.7936C85.9675 46.9443 85.4454 46.1476 84.5249 45.6043L66.1595 34.9459C65.7433 34.7044 65.2127 34.8468 64.9729 35.2612C64.7322 35.6757 64.8737 36.2071 65.2882 36.4479L83.6485 47.1028C84.0121 47.3173 84.2291 47.5724 84.2282 47.7851C84.2274 47.8898 84.1703 48.0071 84.0699 48.1242C83.9773 48.2323 83.8366 48.3478 83.6499 48.4577C83.6447 48.4608 83.6427 48.4645 83.6375 48.4674L68.0226 57.4822L41.8678 72.5786C40.7913 73.2092 38.8987 73.2109 37.8189 72.5769C10.3366 56.5971 9.4078 56.1701 8.9982 55.7643C8.6578 55.4262 8.64256 55.107 9.36043 54.6921C70.3161 19.5054 41.4594 36.1615 51.1276 30.58C52.2354 29.9359 54.0908 29.935 55.1884 30.5826L57.7226 32.0404C58.138 32.2778 58.6677 32.1345 58.9084 31.7209C59.1474 31.3047 59.0042 30.7741 58.5889 30.5351L56.0622 29.0824C54.4417 28.128 51.8913 28.1271 50.2571 29.0781L49.3451 29.6046C49.3495 26.2357 49.4051 24.4703 49.3436 24.1141C49.2827 23.0598 48.6218 22.101 47.4118 21.3956C47.227 21.2944 47.0003 21.183 46.7509 21.0775L46.7736 7.18846C46.7736 7.18751 46.773 7.18603 46.773 7.18507C46.773 7.18391 46.7736 7.18285 46.7736 7.18168C46.7727 6.47565 46.3413 5.82131 45.5904 5.38735C43.5757 4.22545 39.9846 4.97311 39.9545 7.15159C39.9542 7.15827 39.9505 7.16388 39.9505 7.17066L39.9286 21.0746C39.7199 21.1634 39.5109 21.2681 39.2979 21.3914C38.0638 22.1169 37.3866 23.1315 37.3908 24.2486C37.3908 24.2577 37.395 24.2661 37.3951 24.2752L37.3445 36.5324L21.6379 45.5997L21.6504 41.3672C21.6504 41.3647 21.6504 41.3621 21.6504 41.3596C21.6504 41.3588 21.6504 41.3562 21.6504 41.3554C21.6504 39.9077 20.4333 38.7723 19.035 38.1775L19.0576 24.2851C19.0576 24.2841 19.0571 24.2824 19.0571 24.2814C19.0571 24.2804 19.0576 24.2793 19.0576 24.2783C19.0568 23.5722 18.6254 22.9179 17.8744 22.4839C16.6157 21.7584 14.6536 21.755 13.4051 22.4805C12.6694 22.9083 12.2481 23.5515 12.2385 24.2483C12.2383 24.255 12.2346 24.2605 12.2346 24.2673L12.2127 38.1801C12.0043 38.2669 11.7945 38.3674 11.5972 38.488C10.353 39.2127 9.66896 40.2281 9.67065 41.3469C9.67065 41.3522 9.67309 41.3571 9.67309 41.3624L9.62372 52.5354L8.49251 53.1885C7.5661 53.7233 7.03467 54.52 7.03467 55.3744C7.03467 55.3763 7.03552 55.378 7.03552 55.3799L7.04145 68.7425C7.04145 69.5858 7.55339 70.3529 8.48827 70.9055L36.9552 87.4503C38.5878 88.3926 41.1376 88.3931 42.7467 87.4503L84.4868 63.3442C85.4454 62.817 85.9836 62.0118 85.9649 61.1329L85.959 47.8254C85.9592 47.8146 85.964 47.8044 85.9641 47.7936ZM41.683 9.23029C42.6048 9.57159 43.9139 9.64391 45.0343 9.23453L45.0115 23.312C44.9259 24.0818 41.7125 24.0756 41.661 23.3019L41.683 9.23029ZM41.9932 6.88503C42.3526 6.67652 42.8484 6.57227 43.346 6.57227C43.8494 6.57227 44.3546 6.67822 44.7224 6.89096C44.9708 7.0342 45.0352 7.16134 45.0377 7.18338C45.0352 7.20626 44.9716 7.32831 44.7318 7.46817C44.1456 7.80973 42.8095 7.9363 42.0034 7.47156C41.8272 7.37008 41.8091 7.34837 41.6866 7.17448C41.6885 7.15435 41.7462 7.0288 41.9932 6.88503ZM39.9254 23.0636L39.9251 23.2959C39.9217 24.0087 40.354 24.6673 41.11 25.1038C42.3533 25.8225 44.3174 25.8292 45.5776 25.0979C46.3193 24.6673 46.7456 24.0181 46.7473 23.3163L46.7477 23.0388C47.3027 23.4114 47.6296 23.8466 47.631 24.2624C47.5972 24.9448 46.893 25.4304 46.2806 25.7292C44.5381 26.5765 41.8504 26.5462 40.2065 25.6059C39.5213 25.2103 39.1284 24.7129 39.1267 24.2418C39.1252 23.8405 39.4225 23.4225 39.9254 23.0636ZM39.0843 35.5274L39.1199 26.9787C41.4532 28.4508 45.2464 28.4533 47.6229 26.9854L47.6042 30.6096C47.4299 30.7102 38.5194 35.8534 39.0843 35.5274ZM13.967 26.3277C14.8761 26.6648 16.1857 26.7465 17.3184 26.3311L17.2955 40.4086C17.293 40.4315 17.2294 40.5544 16.9895 40.6934C16.2648 41.1155 14.9901 41.1172 14.262 40.6968C14.0086 40.551 13.9467 40.4239 13.945 40.3984L13.967 26.3277ZM14.2773 23.9816C15.0046 23.5596 16.2788 23.5677 17.0065 23.9875C17.2548 24.1308 17.3192 24.2579 17.3218 24.28C17.3192 24.3029 17.2557 24.4249 17.0158 24.5648C16.2897 24.9868 15.0153 24.9894 14.2874 24.569C14.1172 24.4707 14.0498 24.3943 14.0126 24.339C13.9936 24.3107 13.971 24.2778 13.9706 24.2711C13.9726 24.2509 14.0294 24.1254 14.2773 23.9816ZM12.2095 40.1693L12.2092 40.3925C12.2058 41.1053 12.638 41.7639 13.3941 42.2004C14.646 42.924 16.6081 42.9229 17.8617 42.1945C18.6033 41.7639 19.0297 41.1146 19.0314 40.4128L19.0318 40.1405C20.3 40.994 20.1462 41.9401 18.85 42.6903C17.1417 43.6939 14.2285 43.703 12.4898 42.7059C11.803 42.3043 11.409 41.8052 11.409 41.3384C11.409 41.337 11.4083 41.336 11.4083 41.3346C11.4117 40.9404 11.7041 40.5305 12.2095 40.1693ZM11.3972 44.071C11.4692 44.1176 11.543 44.1634 11.6192 44.2083C13.9603 45.5535 17.5774 45.452 19.7221 44.1914C19.7229 44.1909 19.7234 44.1903 19.7241 44.1899C19.724 44.19 19.7242 44.1898 19.7241 44.1899C19.786 44.1543 19.8476 44.1176 19.9069 44.0803L19.8991 46.6035L11.364 51.5307L11.3972 44.071ZM84.2291 61.1668C84.235 61.3693 84.0079 61.6262 83.6349 61.8313L41.8737 85.9501C40.8049 86.5756 38.9106 86.5739 37.8248 85.9484L9.36637 69.4087C8.93241 69.151 8.7773 68.8959 8.7773 68.7425L8.77221 57.7113L36.9433 74.0822C38.3991 74.921 41.0066 75.0913 42.7408 74.0822L68.9432 58.9553L84.224 50.1355L84.2291 61.143C84.2291 61.1515 84.2291 61.1591 84.2291 61.1668Z" fill="black"/>
<path d="M63.5438 33.4211L61.1307 32.0184C60.7163 31.7777 60.1848 31.9175 59.9441 32.3328C59.7026 32.7465 59.8441 33.2779 60.2586 33.5186L62.6716 34.9214C62.8089 35.001 62.959 35.0392 63.1073 35.0392C63.4065 35.0392 63.6972 34.8849 63.8583 34.6078C64.0998 34.1933 63.9583 33.6619 63.5438 33.4211Z" fill="black"/>
<path d="M52.5336 33.2643L15.5375 54.6234C15.2696 54.7785 15.1044 55.0642 15.1035 55.3744C15.1027 55.6837 15.2679 55.9702 15.5349 56.1253L39.2223 69.8901C39.5266 70.0704 40.1625 70.0692 40.4717 69.8918L77.4695 48.5301C77.7373 48.375 77.9026 48.0894 77.9035 47.7792C77.9043 47.4698 77.739 47.1833 77.472 47.0282L53.7838 33.2618C53.4606 33.073 52.8115 33.1039 52.5336 33.2643ZM39.8487 68.2466L17.7031 55.3778L53.16 34.907L75.3039 47.7758L39.8487 68.2466Z" fill="black"/>
<path d="M20.497 67.21C20.2292 67.0549 19.8977 67.0541 19.6299 67.2092C19.3621 67.3643 19.196 67.6499 19.1951 67.9593L19.1841 71.915C19.1832 72.226 19.3485 72.5134 19.618 72.6693L24.5408 75.5121C25.1165 75.8437 25.8409 75.4303 25.8427 74.7628L25.8537 70.8072C25.8546 70.4961 25.6893 70.2088 25.4198 70.0528L20.497 67.21ZM24.1111 73.2592L20.9216 71.4174L20.9267 69.4629L24.1162 71.3047L24.1111 73.2592Z" fill="black"/>
<path d="M54.2847 69.8011C52.8438 70.6326 51.7191 72.5778 51.7241 74.228C51.7295 76.2392 53.3953 77.218 55.1662 76.1969C56.6011 75.3689 57.7216 73.422 57.7174 71.7649C57.7103 69.7638 56.0395 68.7917 54.2847 69.8011ZM54.2982 74.6933C53.71 75.0292 53.4616 74.9112 53.46 74.2229C53.4566 73.1906 54.2474 71.8268 55.1526 71.3047C55.6925 70.9919 55.9798 71.0625 55.9815 71.77C55.9841 72.8083 55.1975 74.1746 54.2982 74.6933Z" fill="black"/>
<path d="M46.3794 74.6043C44.9385 75.4358 43.8138 77.381 43.8189 79.0313C43.8242 81.0465 45.4936 82.0192 47.2609 81.0002C48.6967 80.1712 49.8172 78.2244 49.8121 76.5682C49.8068 74.5596 48.1258 73.5988 46.3794 74.6043ZM46.393 79.4966C45.8309 79.8214 45.5564 79.7419 45.5547 79.0262C45.5513 77.9938 46.3421 76.63 47.2473 76.1079C47.87 75.7497 48.0748 75.9589 48.0763 76.5733C48.0797 77.6107 47.2931 78.977 46.393 79.4966Z" fill="black"/>
<path d="M62.5884 65.0063C61.1483 65.8378 60.0236 67.7821 60.0278 69.4332C60.035 71.4586 61.7115 72.4165 63.4707 71.4022C64.9057 70.5732 66.0262 68.6263 66.0211 66.9702C66.0157 64.9579 64.3293 64.0011 62.5884 65.0063ZM62.6028 69.8986C62.0314 70.2279 61.7654 70.1326 61.7637 69.4282C61.7612 68.3958 62.5519 67.032 63.4563 66.5099C64.013 66.1885 64.2836 66.2858 64.2853 66.9752C64.2886 68.0135 63.5021 69.379 62.6028 69.8986Z" fill="black"/>
<path d="M70.8931 60.2124C69.453 61.0439 68.3283 62.9874 68.3325 64.6385C68.3396 66.6517 70.0134 67.6238 71.7754 66.6074C73.2104 65.7785 74.3309 63.8316 74.3258 62.1754C74.3205 60.1729 72.6461 59.2033 70.8931 60.2124ZM70.9075 65.1038C70.3345 65.4385 70.07 65.3245 70.0684 64.6334C70.0658 63.601 70.8566 62.2381 71.761 61.716C72.3078 61.3992 72.5882 61.4788 72.5899 62.1805C72.5933 63.2188 71.8068 64.5842 70.9075 65.1038Z" fill="black"/>
<path d="M79.1978 55.4176C77.7569 56.2491 76.6321 58.1934 76.6372 59.8437C76.6426 61.875 78.336 62.8209 80.0793 61.8135C81.5151 60.9845 82.6356 59.0376 82.6305 57.3806C82.6234 55.3811 80.9544 54.4082 79.1978 55.4176ZM79.2113 60.3098C78.6538 60.6349 78.3748 60.5477 78.3731 59.8386C78.3697 58.8062 79.1605 57.4433 80.0657 56.9212C80.6059 56.6082 80.8929 56.6799 80.8946 57.3857C80.898 58.424 80.1115 59.7903 79.2113 60.3098Z" fill="black"/>
</svg>
