<svg width="93" height="92" viewBox="0 0 93 92" fill="none" xmlns="http://www.w3.org/2000/svg">
<rect x="0.5" width="92" height="92" rx="46" fill="black"/>
<path d="M50.3677 22.4447C50.0933 22.2853 49.7395 22.3777 49.5795 22.6537C49.4189 22.9292 49.513 23.2819 49.7885 23.4419L52.5802 25.064C52.8523 25.2228 53.2071 25.1333 53.3684 24.855C53.5289 24.5795 53.4349 24.2268 53.1594 24.0668L50.3677 22.4447Z" fill="white"/>
<path d="M71.2879 49.3033C67.2305 46.9693 67.1898 46.8021 66.0809 46.5606L66.0477 31.8846C66.0471 31.6784 65.9373 31.4885 65.7587 31.386C65.7559 31.3845 65.7526 31.3852 65.7499 31.3837L56.3251 25.9069C56.0513 25.7464 55.6975 25.8399 55.5369 26.1159C55.3763 26.3909 55.4704 26.7441 55.7459 26.9041L64.3152 31.8841L56.3539 36.4807L35.2557 24.2197L43.217 19.6233L47.1433 21.9051C47.4194 22.0645 47.7726 21.9716 47.9321 21.6966C48.0927 21.4211 47.9986 21.0679 47.7236 20.9079L43.5083 18.4582C43.3285 18.3534 43.1082 18.3545 42.9296 18.4571L19.0961 32.217C18.9157 32.3214 18.8081 32.5136 18.8076 32.7162C18.8076 32.7166 18.8079 32.7169 18.8079 32.7173C18.8079 32.7177 18.8076 32.718 18.8076 32.7184L18.8854 60.1155C18.8859 60.3206 18.9952 60.5099 19.1727 60.6125L41.4203 73.5414C41.4215 73.5421 41.423 73.5417 41.4242 73.5424C41.4247 73.5427 41.4249 73.5434 41.4254 73.5436C41.502 73.5876 41.679 73.6197 41.7104 73.6197C41.7103 73.6197 41.7106 73.6197 41.7104 73.6197C41.7113 73.6197 41.7124 73.6203 41.7133 73.6203C41.813 73.6203 41.9127 73.5943 42.0017 73.5431L52.3015 67.5931C52.7874 68.5593 53.4681 69.3256 54.3391 69.8336L58.1054 72.027C58.106 72.0275 58.1071 72.0281 58.1082 72.0292L58.1112 72.0251C58.1179 72.029 58.1235 72.0344 58.1302 72.0382C60.2875 73.2792 62.8737 72.6534 65.0291 71.4089C70.098 68.4826 74.2086 61.3539 74.1922 55.5182C74.1838 52.5834 73.1528 50.376 71.2879 49.3033ZM55.862 44.7927L53.9599 44.1116C53.712 44.0231 53.432 44.1149 53.285 44.3352L51.6173 46.8463L51.548 40.5911L55.7882 38.1427L55.862 44.7927ZM50.9673 39.5908L29.87 27.3306L34.1051 24.8855L55.202 37.1458L50.9673 39.5908ZM49.8158 40.2557L41.6339 44.9797L20.5356 32.7184L28.7169 27.995L49.8158 40.2557ZM20.0381 59.7814L19.9643 33.7209L41.0562 45.9785C41.1541 80.2296 41.1228 69.2696 41.1307 72.0388L20.0381 59.7814ZM51.8584 66.5163L42.2874 72.0456C42.2869 71.9 42.2934 74.0841 42.2106 45.983L50.4012 41.2534L50.4843 48.732C50.4871 48.9855 50.655 49.207 50.8978 49.2791C51.148 49.352 51.4054 49.2509 51.5418 49.0453L53.996 45.3499L56.2535 46.159C56.4304 46.2221 56.6288 46.195 56.7826 46.0857C56.9364 45.9764 57.0271 45.7984 57.0248 45.6096L56.9345 37.4808L64.8961 32.8835L64.9271 46.4384C64.9243 46.4384 64.922 46.4384 64.9192 46.4384C62.9859 46.4384 61.0789 47.3405 59.5209 48.4558C54.9705 51.7079 51.4378 58.2063 51.45 63.6114C51.4544 64.6645 51.6505 65.8465 51.8584 66.5163ZM52.6055 63.6036C52.5947 58.3845 56.0901 52.1709 60.4392 49.2187C61.8662 48.2513 63.727 47.4295 65.4415 47.621C65.4424 47.6211 65.4432 47.6206 65.4441 47.6207C66.6421 47.7638 67.175 48.2954 67.9114 48.674C61.3974 49.4503 55.2043 58.8229 55.2191 65.8065C55.2248 67.2083 55.5025 68.5055 55.8777 69.3948C55.3599 68.9941 52.6055 68.2677 52.6055 63.6036ZM64.4521 70.4094C62.2504 71.681 60.2103 71.9036 58.706 71.0382C56.951 70.0285 56.3823 67.8213 56.3769 65.8042C56.3636 61.1935 59.0997 55.866 62.5992 52.6892C64.7643 50.7241 68.1105 48.8548 70.6693 50.2861C72.4598 51.2873 73.0328 53.4698 73.0384 55.5216C73.0536 60.9888 69.2016 67.6674 64.4521 70.4094Z" fill="white"/>
<path d="M68.8224 56.245C68.5446 56.0872 68.1931 56.1836 68.0353 56.4608L63.8509 63.803L61.1692 62.2396C60.8931 62.0813 60.5421 62.1725 60.3798 62.4475C60.2198 62.723 60.3128 63.0762 60.5877 63.2368L63.7732 65.0932C63.902 65.1682 64.0579 65.1926 64.2138 65.1518C64.3625 65.1118 64.4887 65.0138 64.5653 64.8803L69.0382 57.0321C69.1959 56.7554 69.099 56.4027 68.8224 56.245Z" fill="white"/>
</svg>
