<svg width="93" height="92" viewBox="0 0 93 92" fill="none" xmlns="http://www.w3.org/2000/svg">
<path d="M9.36952 55.2037C8.93979 54.9918 8.41938 55.1681 8.20748 55.5978C6.01987 60.029 4.87055 64.5254 4.88242 68.5997C4.89682 73.4869 6.60301 77.1654 9.68736 78.958L22.7147 86.5278C22.7163 86.5288 22.7181 86.5283 22.7197 86.5292C22.7281 86.534 22.735 86.5407 22.7435 86.5456C26.3333 88.6106 30.6475 87.5657 34.2469 85.4878C39.7181 82.3289 44.7883 76.0602 47.5336 69.0786L59.0243 62.4446C62.0603 66.107 67.2374 66.4409 72.745 63.2608C81.2488 58.3525 88.1447 46.4066 88.1176 36.6323C88.1033 31.7537 86.4026 28.0862 83.3303 26.2897C83.3234 26.2853 83.3197 26.2781 83.3126 26.274L70.2861 18.7034C67.1629 16.889 63.073 17.2566 58.7665 19.7368C58.7618 19.7395 58.756 19.7382 58.7514 19.7408L49.9485 24.8227C49.7492 24.74 49.5463 24.6715 49.3365 24.6059C49.3533 23.9604 49.3484 23.3075 49.283 22.6413C49.0313 19.957 47.9769 17.5744 46.3097 15.9284C44.6857 14.3468 42.7202 13.612 41.0157 13.1026C40.5682 12.967 40.102 12.8491 39.5426 12.7076C38.5789 12.4491 37.6695 12.205 36.8761 11.8702C35.8734 11.4261 35.1699 10.8463 34.897 10.2437C34.736 9.87837 34.8173 9.48509 34.8784 9.41305C35.4835 8.95874 35.8726 8.29508 35.9743 7.54413C36.076 6.79486 35.8777 6.05238 35.4225 5.46331C34.4834 4.21313 32.7509 3.96224 31.4677 4.90306C29.2758 6.57025 28.5401 9.8665 29.7581 12.5737C30.6277 14.4867 32.3076 16.0293 34.6232 17.0371C35.7938 17.5329 36.9168 17.8439 38.1517 18.1694L39.4223 18.5152C40.8648 18.9424 41.7718 19.3899 42.3625 19.9638C43.0686 20.6537 43.5322 21.7954 43.6678 23.1735C43.7102 23.6277 43.7096 24.0982 43.6944 24.5698C43.1565 24.7297 42.6344 24.9265 42.1718 25.1925C40.7688 26.0089 40.1607 27.1518 40.1563 28.1463L40.1479 30.4904L20.2662 41.9674C20.2628 41.9693 20.2585 41.9684 20.255 41.9704C17.6529 43.4732 15.0865 45.7074 12.8344 48.4324C12.5285 48.8011 12.581 49.3486 12.9506 49.6537C13.3184 49.9589 13.8668 49.9055 14.1719 49.5376C16.1669 47.1252 18.4106 45.1275 20.6875 43.7336L32.032 50.3205C25.0406 55.0035 19.0101 64.742 18.0556 73.7244C17.7654 76.4533 17.878 79.1213 18.8465 81.701C18.9389 81.9468 19.0203 82.2031 19.126 82.4357L10.5595 77.4578C8.03034 75.9873 6.63013 72.8402 6.61826 68.5947C6.60725 64.8416 7.72436 60.4985 9.76364 56.3657C9.97639 55.936 9.79924 55.4156 9.36952 55.2037ZM86.3817 36.6374C86.4071 45.8574 79.9003 57.126 71.877 61.7572C66.8407 64.6644 62.3883 64.3118 59.966 60.8164C59.7083 60.4451 59.2091 60.3324 58.8183 60.5587L46.4012 67.7276C46.2292 67.8276 46.0961 67.9827 46.0249 68.1692C43.4423 74.9117 38.5967 80.9719 33.379 83.9842C29.6437 86.1405 26.1737 86.5159 23.6097 85.0411C22.2815 84.2766 21.3014 83.0483 20.675 81.6431C16.9685 73.3303 23.6024 57.1475 34.1342 51.0542C34.1405 51.0509 34.1483 51.0524 34.1545 51.0488C34.3289 50.9478 72.7534 28.6817 74.1914 28.028C76.8135 26.8359 79.9278 26.3268 82.4232 27.7654C84.9637 29.2306 86.3699 32.3807 86.3817 36.6374ZM69.414 20.2036L77.9771 25.1806C76.2404 25.3396 74.4244 25.9728 72.8635 26.7514C72.6525 26.8568 72.4434 26.9468 72.231 27.0625L60.9845 20.5333C64.2072 19.0206 67.1612 18.8972 69.414 20.2036ZM42.2108 31.1569C42.655 31.4117 43.1559 31.6031 43.6762 31.7634C45.453 32.3145 47.548 32.3114 49.3149 31.7532C49.9603 31.5514 50.4507 31.3525 51.0198 30.982L51.0096 35.2813C51.0096 37.0002 46.2544 38.6052 43.044 36.7527C42.4938 36.434 41.8656 35.8987 41.8667 35.2609L41.8819 30.9501C41.9759 31.0125 42.0746 31.0729 42.1755 31.1319C42.1887 31.1396 42.1976 31.1493 42.2108 31.1569ZM43.5746 18.7212C42.7702 17.9389 41.6412 17.3617 39.8969 16.8455L38.6009 16.4929C37.4253 16.1827 36.365 15.8894 35.3089 15.4419C33.4002 14.6113 32.0279 13.3713 31.3397 11.8583C30.4455 9.87159 30.9524 7.47547 32.506 6.29394C32.7085 6.14561 32.9408 6.07357 33.1688 6.07357C33.4993 6.07357 33.8231 6.22444 34.0418 6.51516C34.2172 6.74316 34.2935 7.02541 34.2545 7.31104C34.2156 7.59837 34.0672 7.8518 33.8418 8.02047C32.9806 8.65531 32.895 10.0055 33.312 10.9514C33.7706 11.9651 34.7597 12.8313 36.187 13.4628C37.1033 13.8501 38.0695 14.1095 39.2121 14.4155C39.6511 14.5257 40.0901 14.6358 40.5148 14.7647C42.0209 15.2147 43.7441 15.853 45.0951 17.1684C46.4674 18.5229 47.3412 20.524 47.5548 22.8065C47.7099 24.3872 47.5391 26.1202 47.3065 27.714C47.2686 27.9801 46.5395 28.1066 46.2101 28.1117C45.6879 28.1164 44.9682 27.8806 45.1174 27.7296C45.34 26.2123 45.538 24.5283 45.396 23.0083C45.2197 21.219 44.573 19.6976 43.5746 18.7212ZM43.0414 26.6953C43.1982 26.6046 43.3652 26.5207 43.5381 26.4452C43.3409 27.9677 43.3516 27.7741 43.3516 27.8395C43.3516 28.1805 43.4766 28.6374 43.948 29.0708C44.5341 29.6179 45.4032 29.85 46.1919 29.85C46.8547 29.85 47.5192 29.694 48.0456 29.3838C48.6935 28.995 48.9908 28.4496 49.0122 28.0386C49.034 27.8635 49.1421 27.1989 49.2271 26.3859C50.1325 26.7481 51.2628 27.5377 50.9735 28.478C50.7181 29.2878 49.7241 29.7916 48.9216 30.0622C46.8969 30.7351 44.4311 30.4314 43.0719 29.6465C42.3243 29.2153 41.8963 28.6739 41.8935 28.1598C41.8956 27.6522 42.3133 27.118 43.0414 26.6953ZM40.1257 35.2643C40.1257 36.2501 40.6759 37.3653 42.133 38.2258C42.1484 38.2349 42.1589 38.2464 42.1744 38.2554C42.174 38.2552 42.1747 38.2556 42.1744 38.2554C42.1759 38.2563 42.1778 38.258 42.1794 38.2588C44.5923 39.6515 48.345 39.641 50.7248 38.2571C51.8529 37.6011 52.7424 36.5869 52.7454 35.2923L52.7708 28.1836C52.7708 28.1804 52.769 28.177 52.769 28.1739C52.769 28.1738 52.769 28.174 52.769 28.1739C52.7676 27.3579 52.2365 26.3969 51.6385 25.8517L59.1815 21.497L70.4813 28.0638C13.0902 61.1984 42.6344 44.1411 33.7168 49.2897L22.424 42.7267L40.1376 32.5012L40.1257 35.2643Z" fill="black"/>
<path d="M10.0747 53.9221C10.4848 54.1716 11.0194 54.0397 11.2664 53.6306C11.6258 53.0398 12.0021 52.4584 12.3937 51.8905C12.6666 51.4964 12.5675 50.9556 12.1734 50.6835C11.7767 50.4089 11.2368 50.5089 10.9664 50.9039C10.5545 51.4989 10.1595 52.1092 9.78317 52.7304C9.53398 53.1398 9.66451 53.6738 10.0747 53.9221Z" fill="black"/>
<path d="M32.3322 58.9966C27.5993 61.7292 23.9047 68.1302 23.92 73.57C23.9358 79.3193 28.2319 81.8073 33.2527 78.9114C37.9059 76.2237 41.6794 69.6796 41.6641 64.322C41.6483 58.5618 37.3411 56.1047 32.3322 58.9966ZM32.3848 77.4078C28.5223 79.6385 25.6681 77.9633 25.6558 73.5649C25.6423 68.7701 29.0267 62.9091 33.2002 60.5002C37.0363 58.2856 39.9159 59.8987 39.9283 64.3271C39.9418 69.1303 36.5583 74.9981 32.3848 77.4078Z" fill="black"/>
<path d="M36.694 65.6976L33.6563 67.4514L33.6461 63.8338C33.6444 63.3557 33.2562 62.9684 32.7782 62.9684H32.7756C32.2967 62.9701 31.9085 63.3591 31.9102 63.8389L31.9233 68.4518L28.0232 70.7034C27.6079 70.9433 27.4655 71.4739 27.7054 71.8892C27.9459 72.3056 28.4781 72.4457 28.8911 72.207L31.9289 70.4533L31.9391 74.0709C31.9408 74.5489 32.3289 74.9363 32.807 74.9363H32.8095C33.2884 74.9346 33.6766 74.5455 33.6749 74.0658L33.6619 69.4528L37.5619 67.2012C37.9772 66.9614 38.1196 66.4308 37.8798 66.0155C37.6382 65.5993 37.1076 65.4569 36.694 65.6976Z" fill="black"/>
<path d="M76.0562 34.4091C73.8356 35.6907 72.1023 38.6945 72.1099 41.2474C72.1168 44.1084 74.3659 45.5065 76.947 44.019C79.1677 42.7375 80.901 39.7302 80.8934 37.1731C80.8864 34.2738 78.5989 32.9418 76.0562 34.4091ZM76.0791 42.5154C74.7177 43.3006 73.8493 42.8116 73.8457 41.2423C73.8398 39.32 75.2493 36.879 76.9242 35.9127C78.2346 35.156 79.1538 35.5529 79.1575 37.1782C79.1635 39.1047 77.7539 41.5491 76.0791 42.5154Z" fill="black"/>
<path d="M69.0079 47.9475C66.7881 49.2291 65.0548 52.2329 65.0615 54.7858C65.0702 57.6677 67.3407 59.0357 69.8987 57.5566C72.1185 56.275 73.8527 53.2687 73.8459 50.7115C73.8371 47.8051 71.5437 46.4832 69.0079 47.9475ZM69.0308 56.053C67.67 56.8409 66.8027 56.3485 66.7974 54.7807C66.7923 52.8584 68.2018 50.4174 69.8758 49.4511C71.2365 48.6643 72.1047 49.1471 72.11 50.7166C72.1151 52.6431 70.7047 55.0867 69.0308 56.053Z" fill="black"/>
<path d="M50.4746 55.6495L47.3699 57.4422C46.9546 57.682 46.8122 58.2126 47.0521 58.6279C47.2131 58.9068 47.5047 59.0619 47.8047 59.0619C47.9522 59.0619 48.1014 59.0246 48.2378 58.9458L51.3425 57.1531C51.7578 56.9133 51.9002 56.3827 51.6604 55.9674C51.4197 55.5512 50.8874 55.408 50.4746 55.6495Z" fill="black"/>
<path d="M57.7886 51.4269L54.6839 53.2187C54.2686 53.4585 54.1262 53.9891 54.366 54.4044C54.6082 54.8225 55.1405 54.9599 55.5518 54.7223L58.6565 52.9305C59.0718 52.6906 59.2142 52.16 58.9743 51.7447C58.7336 51.3285 58.2022 51.1878 57.7886 51.4269Z" fill="black"/>
</svg>
