<svg width="93" height="92" viewBox="0 0 93 92" fill="none" xmlns="http://www.w3.org/2000/svg">
<path d="M18.5926 79.1609C18.5934 79.4694 18.7579 79.7542 19.0249 79.9101C19.2034 80.0139 32.3443 87.6497 32.1619 87.5438L32.1632 87.5451C32.4324 87.6984 32.7619 87.6997 33.0303 87.5434L74.116 63.823C74.3856 63.6687 74.5508 63.3806 74.55 63.0704L74.4076 12.8392C74.3384 12.6642 74.3435 12.3045 73.9762 12.09L60.8412 4.45663C60.5708 4.30067 60.2394 4.30067 59.9707 4.45663L54.3572 7.69778C53.9419 7.9368 53.7995 8.46739 54.0393 8.8827C54.2792 9.29632 54.8106 9.44041 55.2251 9.1997L60.403 6.21112L71.8081 12.8392L70.9098 13.3578L32.4557 35.5595L21.0497 28.9314L45.4186 14.8616C45.8339 14.6225 45.9763 14.0919 45.7364 13.6766C45.4957 13.2613 44.9626 13.1155 44.5507 13.3596L18.8842 28.1788C18.6153 28.3326 18.4507 28.7537 18.4502 28.928L18.4506 28.9297C18.4506 29.2017 18.5913 78.8657 18.5926 79.1609ZM20.1903 30.4406L31.5874 37.0637L31.7242 85.2821L20.3267 78.6591L20.1903 30.4406ZM33.46 85.2923L33.3236 37.0631L72.676 14.3411L72.8124 62.572L33.46 85.2923Z" fill="white"/>
<path d="M49.0074 12.79L52.0765 11.0186C52.4918 10.7796 52.6342 10.249 52.3943 9.83368C52.1527 9.41836 51.6213 9.27258 51.2085 9.51668L48.1394 11.2881C47.7241 11.5271 47.5817 12.0577 47.8216 12.4731C48.0633 12.8902 48.5969 13.0297 49.0074 12.79Z" fill="white"/>
<path d="M70.0002 18.9927C69.7315 18.8401 69.4001 18.8384 69.1331 18.9944L36.0189 38.1124C35.7494 38.2667 35.5841 38.5549 35.585 38.8651L35.7011 79.8898C35.7024 80.3644 36.0853 80.756 36.569 80.756C36.719 80.756 36.8691 80.717 37.003 80.639L70.1172 61.521C70.3867 61.3667 70.552 61.0785 70.5511 60.7683L70.435 19.7436C70.4342 19.4334 70.268 19.1469 70.0002 18.9927ZM37.4327 78.3879L37.3225 39.3635L68.7034 21.2455L68.8136 60.2699L37.4327 78.3879Z" fill="white"/>
<path d="M64.1265 42.808C64.1259 42.8077 64.1255 42.8066 64.1248 42.8063C64.1242 42.806 64.1236 42.8062 64.1229 42.8059L57.623 39.0295C57.2908 38.8396 56.8712 38.8854 56.5907 39.1499L50.3831 45.0325C49.7694 45.1971 49.1368 45.4492 48.4903 45.822C44.6008 48.0681 41.5647 53.3282 41.5774 57.7984C41.5842 60.1004 42.4106 61.8464 43.9057 62.716C44.39 62.9974 50.815 66.7291 50.4237 66.5047C52.1503 67.4946 54.1884 67.0356 55.905 66.0437C59.7996 63.7959 62.8407 58.5324 62.828 54.0622C62.8263 53.3164 62.739 52.6298 62.5678 52.0145L64.5351 43.7607C64.6039 43.4716 64.4559 42.9994 64.1265 42.808ZM57.3128 40.8569L62.2521 43.7266L57.2187 48.4975L52.2795 45.6266L57.3128 40.8569ZM44.7779 61.2141C43.8379 60.6683 43.3184 59.4545 43.3133 57.795C43.3023 53.952 46.0137 49.2564 49.3574 47.3256C49.8273 47.0547 50.2809 46.8533 50.7113 46.7244L55.3363 49.4128C55.223 49.472 55.1089 49.5362 54.9947 49.6022C50.4685 52.216 47.312 58.7026 48.2432 63.2156C48.2441 63.2194 48.2437 63.2242 48.2445 63.228L44.7779 61.2141ZM60.8438 52.3077C61.0074 52.8112 61.0905 53.4028 61.0922 54.0656C61.1032 57.9086 58.3867 62.6076 55.037 64.5417C52.0506 66.2671 49.8274 65.0284 49.8168 61.5735C49.8058 57.7323 52.518 53.0367 55.8634 51.1042C56.4491 50.7651 57.0094 50.5363 57.5289 50.4227C57.5453 50.4191 57.5563 50.4043 57.5724 50.3998C57.7064 50.3628 57.8349 50.3056 57.9409 50.2057L62.1703 46.1967L60.8252 51.8382C60.7879 51.9941 60.7947 52.1569 60.8438 52.3077Z" fill="white"/>
<path d="M45.2551 41.3536C45.248 39.2955 43.5762 38.277 41.7605 39.3312C40.284 40.1822 39.1321 42.1842 39.1372 43.8895C39.1443 45.9408 40.8424 46.932 42.6428 45.8932C44.1363 45.0321 45.2593 43.0792 45.2551 41.3536ZM41.7749 44.3913C41.1489 44.7503 40.8746 44.6022 40.8731 43.8828C40.8697 42.8012 41.6901 41.3756 42.6284 40.8331C43.2851 40.4565 43.5177 40.6532 43.5192 41.3586C43.5218 42.4554 42.7233 43.8438 41.7749 44.3913Z" fill="white"/>
<path d="M49.8869 41.7113C51.3617 40.8603 52.5144 38.8634 52.5102 37.1648C52.5031 35.0855 50.8023 34.1119 49.0046 35.1493C47.5349 35.9969 46.3873 37.9955 46.3924 39.7008C46.3996 41.786 48.1313 42.7289 49.8869 41.7113ZM49.8725 36.6512C50.5345 36.2695 50.7728 36.4738 50.7744 37.1699C50.7769 38.2667 49.9734 39.6584 49.019 40.2077C48.4073 40.5606 48.1297 40.414 48.1282 39.694C48.1248 38.6125 48.9402 37.1903 49.8725 36.6512Z" fill="white"/>
<path d="M57.1313 37.5276C58.6307 36.6614 59.7588 34.7085 59.7546 32.9829C59.7475 30.913 58.0584 29.9274 56.2498 30.9639L56.2481 30.9656C54.7801 31.8149 53.6325 33.8135 53.6367 35.5188C53.6438 37.5768 55.3513 38.5593 57.1313 37.5276ZM57.1178 32.4675C57.717 32.1221 58.017 32.2221 58.0187 32.9879C58.0213 34.083 57.2178 35.4748 56.2625 36.0257C55.6419 36.383 55.3741 36.2223 55.3726 35.5137C55.37 34.4305 56.1854 33.0066 57.1178 32.4675Z" fill="white"/>
<path d="M63.4934 26.7836C62.0245 27.6295 60.8769 29.6298 60.8811 31.3351C60.8883 33.4097 62.6087 34.368 64.3757 33.3456C65.8522 32.4929 67.0041 30.496 66.999 28.7992C66.9918 26.7187 65.2856 25.7469 63.4934 26.7836ZM63.5078 31.8437C62.8771 32.2036 62.6184 32.0288 62.617 31.3301C62.6144 30.2452 63.4289 28.8246 64.3613 28.2855C64.9865 27.9283 65.2615 28.0711 65.2631 28.806C65.2665 29.901 64.4622 31.2911 63.5078 31.8437Z" fill="white"/>
</svg>
