<svg width="93" height="92" viewBox="0 0 93 92" fill="none" xmlns="http://www.w3.org/2000/svg">
<rect x="0.5" width="92" height="92" rx="46" fill="black"/>
<path d="M22.7773 60.668C23.0465 60.8228 23.3942 60.7311 23.5506 60.4608C23.7071 60.1899 23.6142 59.8439 23.3433 59.6874L20.4601 58.023L20.4706 53.5877L43.9714 67.1588C43.9712 67.2845 43.9605 71.8551 43.9611 71.5914L30.442 63.7857C30.1717 63.6292 29.8251 63.721 29.6687 63.993C29.5123 64.2638 29.6051 64.6099 29.876 64.7663L44.242 73.0606C44.4185 73.1617 44.6323 73.1615 44.8074 73.0606C78.5162 53.4717 65.4461 61.067 73.3724 56.4609C73.546 56.3597 73.6533 56.174 73.6538 55.9728L73.667 50.2532C73.6673 50.2458 73.6726 50.2397 73.6726 50.2323C73.6726 50.03 73.5643 49.8437 73.3896 49.7425L73.3883 49.7418C66.979 46.0421 63.7282 44.1656 63.872 44.2474L63.8344 28.7112C63.8338 28.5405 63.6657 28.2886 63.5525 28.2226L47.5564 18.9393C47.3822 18.8387 47.1661 18.8382 46.9898 18.9388C46.8765 19.0041 44.3402 20.4652 44.4535 20.3999C44.453 20.4002 44.4525 20.4 44.452 20.4003C44.2661 20.5085 44.1709 20.7752 44.1707 20.8884C44.1704 21.0024 44.2045 24.2825 44.2054 24.1685L41.3642 22.5174C41.189 22.4152 40.9723 22.4152 40.7971 22.5163C40.6822 22.5825 35.3101 25.6776 35.651 25.4812C35.6489 25.4824 35.6462 25.4818 35.6442 25.4831C35.4678 25.5859 35.3606 25.7749 35.3628 25.9783L35.3976 29.2533L32.552 27.5996C32.3756 27.4974 32.1595 27.4974 31.9843 27.5985L29.3807 29.1015C29.1808 29.2172 29.098 29.4772 29.0977 29.5912C29.0974 29.7072 29.145 46.4692 29.146 46.5851L19.644 52.1102C19.6378 52.1136 19.6304 52.112 19.6243 52.1156C19.4491 52.2162 19.3413 52.4025 19.3407 52.6048L19.3275 58.3481C19.3269 58.5504 19.4347 58.7378 19.6105 58.8395L22.7773 60.668ZM45.0933 71.5852C45.0944 71.1195 45.1043 66.9095 45.1037 67.1526C82.6631 45.3362 69.7457 52.8393 72.5328 51.2204L72.5223 55.6456L45.0933 71.5852ZM30.2325 30.577L45.0858 39.2084L45.149 61.443L30.2955 52.8115L30.2325 30.577ZM46.2811 61.4491L46.2181 39.2085C46.3326 39.1424 54.3987 34.4859 53.8928 34.7779C53.8987 37.0523 53.8713 26.5387 53.9507 57.0216L46.2811 61.4491ZM62.7581 51.9332L55.092 56.3629C55.0109 28.0869 55.0317 35.3648 55.0282 34.1214L62.7045 29.6911C62.7091 31.5908 62.7536 50.0323 62.7581 51.9332ZM45.3447 24.8297L45.3132 21.8795L57.0685 28.7112L54.5406 30.1744L45.3447 24.8297ZM41.0796 23.6611L54.2554 31.3181C54.4323 31.4209 54.6479 31.4204 54.8237 31.3187L58.4802 29.2021C58.6549 29.1009 58.7627 28.9147 58.7627 28.7129C58.7627 28.5111 58.6555 28.3243 58.4813 28.2231L45.8671 20.8917L47.2711 20.083L62.1379 28.7107C61.6036 29.0191 54.3401 33.2113 54.4616 33.1411C51.5916 31.4752 43.1618 26.5794 39.6045 24.5134L41.0796 23.6611ZM45.7317 35.2567L36.5369 29.9124L36.5054 26.9623L48.2612 33.794C48.1444 33.8615 45.5697 35.3504 45.7317 35.2567ZM32.2662 28.7427L45.4442 36.4008C45.5327 36.4525 45.6312 36.4776 45.7296 36.4774C45.7307 36.4774 45.7317 36.4782 45.7328 36.4782C45.8306 36.4782 45.9285 36.4528 46.0164 36.4019C46.1311 36.3356 49.9114 34.1506 49.6774 34.2859C49.852 34.1848 49.9598 33.9985 49.9604 33.7962C49.9609 33.5944 49.8531 33.4076 49.679 33.3064L37.062 25.9739L38.4586 25.1671C38.5723 25.2331 54.3232 34.3756 53.3267 33.7972L45.6518 38.2281L30.793 29.5935L32.2662 28.7427ZM29.1646 53.1393C29.1651 53.3405 29.2724 53.5262 29.4465 53.6268C36.0324 57.4543 45.6791 63.0593 45.4354 62.9189C45.6075 63.0181 45.8237 63.0204 46.0009 62.9184C46.1175 62.851 55.3944 57.4947 54.8075 57.8336C56.8595 56.6482 64.047 52.4962 63.6083 52.7496C63.7841 52.6479 63.8919 52.4605 63.8913 52.2582C63.891 52.1419 63.8748 45.4406 63.8751 45.5569L71.9701 50.2304C67.7528 52.6812 74.4541 48.7869 44.5374 66.1723L21.0413 52.6072L29.1496 47.8924L29.1646 53.1393Z" fill="white"/>
<path d="M27.9529 62.3485L25.6196 61.0014C25.3493 60.8449 25.0027 60.9378 24.8463 61.2087C24.6899 61.4795 24.7827 61.8256 25.0536 61.982L27.3868 63.3291C27.6547 63.4838 28.002 63.3949 28.1602 63.1218C28.3166 62.8509 28.2237 62.5049 27.9529 62.3485Z" fill="white"/>
<path d="M60.9738 33.0748C60.7986 32.9742 60.5825 32.9748 60.4083 33.0754L56.765 35.1787C56.5892 35.2804 56.4814 35.4678 56.482 35.6706L56.508 44.7576C56.5088 45.0656 56.7581 45.322 57.074 45.322C57.1719 45.322 57.2697 45.2966 57.357 45.2463L60.9998 43.1424C61.1756 43.0407 61.2834 42.8533 61.2828 42.6505L61.2574 33.564C61.2568 33.3623 61.1485 33.176 60.9738 33.0748ZM57.6373 43.777L57.6152 35.9951L60.1281 34.5446L60.1496 42.326L57.6373 43.777Z" fill="white"/>
<path d="M60.4337 46.1081L56.791 48.2114C56.5201 48.3678 56.4272 48.7138 56.5837 48.9847C56.7405 49.2563 57.0876 49.3476 57.357 49.192L60.9998 47.0887C61.2706 46.9322 61.3635 46.5862 61.2071 46.3153C61.0501 46.0434 60.7035 45.9516 60.4337 46.1081Z" fill="white"/>
<path d="M60.4337 49.9017L56.791 52.005C56.5201 52.1615 56.4272 52.5075 56.5837 52.7783C56.7405 53.0499 57.0876 53.1413 57.357 52.9856L60.9998 50.8823C61.2706 50.7259 61.3635 50.3799 61.2071 50.109C61.0501 49.8376 60.7035 49.7458 60.4337 49.9017Z" fill="white"/>
<path d="M52.166 38.1575C51.9907 38.0569 51.7746 38.0575 51.6005 38.1581L47.9572 40.2619C47.7814 40.3637 47.6736 40.551 47.6741 40.7539L47.7001 49.8409C47.701 50.1489 47.9503 50.4053 48.2662 50.4053C48.364 50.4053 48.4618 50.3799 48.5492 50.3296L52.1919 48.2257C52.3677 48.124 52.4755 47.9366 52.475 47.7338L52.4495 38.6467C52.449 38.445 52.3406 38.2587 52.166 38.1575ZM48.8294 48.8603L48.8073 41.0784L51.3202 39.6274L51.3418 47.4093L48.8294 48.8603Z" fill="white"/>
<path d="M51.6259 51.1908L47.9831 53.2946C47.7122 53.4511 47.6194 53.7971 47.7758 54.068C47.9327 54.3395 48.2797 54.4309 48.5491 54.2753L52.1919 52.1714C52.4628 52.015 52.5556 51.6689 52.3992 51.3981C52.2422 51.1267 51.8956 51.0338 51.6259 51.1908Z" fill="white"/>
<path d="M51.6259 54.985L47.9831 57.0883C47.7122 57.2447 47.6194 57.5908 47.7758 57.8616C47.9327 58.1332 48.2797 58.2245 48.5491 58.0689L52.1919 55.9656C52.4628 55.8092 52.5556 55.4632 52.3992 55.1923C52.2422 54.9209 51.8956 54.828 51.6259 54.985Z" fill="white"/>
</svg>
