<svg width="93" height="92" viewBox="0 0 93 92" fill="none" xmlns="http://www.w3.org/2000/svg">
<rect x="0.5" width="92" height="92" rx="46" fill="black"/>
<path d="M67.3174 26.9655C66.3535 26.4235 65.4292 26.3518 64.7094 26.7624C56.5814 31.496 52.7284 33.7019 52.5688 33.8393C51.9121 34.2664 51.5403 35.0611 51.5346 36.114C51.5346 36.3996 51.5702 36.7013 51.6222 37.0087L46.1521 40.2126L46.1538 39.7711C47.4726 38.7429 48.198 37.4854 48.2016 36.1486C48.2033 36.0382 48.2651 32.127 48.2651 31.987L48.2642 31.9825C48.2642 31.9788 48.2651 31.9751 48.2651 31.9714C48.2632 30.3191 47.1855 28.7873 45.2309 27.6589C44.9922 27.5202 44.686 27.6027 44.5478 27.842C44.4096 28.0813 44.4917 28.3869 44.7309 28.5251C46.3633 29.4675 47.2637 30.6921 47.2651 31.9729C47.2669 33.453 46.0581 34.6492 44.7651 35.4006C41.2339 37.4528 35.4668 37.4543 31.9101 35.4001C30.6059 34.6466 29.3675 33.4263 29.3686 31.9389C29.3697 30.6706 30.2543 29.4578 31.8608 28.5241C33.5967 27.5153 35.9292 26.9582 38.4067 26.9885C38.7309 26.9943 38.9087 26.7683 38.9106 26.4924C38.9126 26.216 38.6904 25.9904 38.4145 25.9885C35.7353 25.948 33.2466 26.5617 31.3584 27.6599C29.4418 28.7733 28.3844 30.2815 28.371 31.9099C28.3708 31.9149 28.3682 31.9189 28.3681 31.924L28.3047 36.0852C28.301 37.4608 29.0517 38.7499 30.4239 39.7985L30.4095 43.5437C29.3244 43.9278 28.3008 44.3796 27.3838 44.9118C24.2541 46.7294 22.5288 49.1746 22.5174 51.7994C22.5173 51.8034 22.5151 51.8067 22.5151 51.8108C22.5128 52.4816 22.4991 56.5398 22.5 56.28C22.4922 58.9411 24.2431 61.4196 27.4297 63.2595C33.7788 66.9249 44.0856 66.9365 50.4057 63.2634C53.5376 61.4431 55.2666 58.9934 55.2744 56.3659L55.2895 51.8967C55.2895 51.8905 55.2862 51.8854 55.286 51.8792C55.286 51.8749 55.2871 51.8708 55.2871 51.8664C55.2817 49.2146 53.5263 46.7444 50.3442 44.9104C49.8475 44.6249 49.3597 44.3823 48.8719 44.1584L54.0332 41.138C54.2571 41.3256 54.4861 41.4984 54.7236 41.6364C55.5341 42.1062 56.4652 42.3082 57.2826 41.8563C57.2956 41.8501 57.3101 41.8527 57.3227 41.8454L69.3974 34.8283C70.1079 34.4123 70.4995 33.5832 70.5 32.4943C70.5132 30.4441 69.1186 28.0178 67.3174 26.9655ZM54.0093 36.7697C54.1045 36.717 54.2788 36.7478 54.4712 36.8547C55.0586 37.2009 55.5547 38.0656 55.5547 38.7439C55.5547 38.9987 55.478 39.1335 55.4121 39.1721C55.312 39.2304 53.7321 40.1503 53.833 40.0915C53.8276 40.0946 53.8251 40.1007 53.8199 40.104C52.2059 41.0484 45.8822 44.7487 46.2685 44.5227L46.2639 44.5193C46.222 44.4864 46.1794 44.4535 46.1362 44.4211L46.1533 41.3713L54.0093 36.7697ZM29.3286 50.6965C29.7821 51.2705 30.5015 51.9039 31.4101 52.4284C34.7578 54.3612 39.9277 54.6208 43.7449 53.1497C45.035 52.6543 46.3408 51.8901 47.2241 50.8274L47.2016 52.3015C47.1982 53.57 46.3105 54.7834 44.7016 55.718C41.1704 57.7707 35.4033 57.7707 31.8467 55.717C30.2041 54.7688 29.3012 53.5373 29.3047 52.257L29.3286 50.6965ZM43.3576 52.2304C39.6281 53.6635 34.8012 53.2353 31.914 51.5603C30.6115 50.8111 29.3938 49.6196 29.3722 48.1432C29.3602 47.3324 29.7153 46.5289 30.4008 45.8105L30.3945 47.4436C30.3945 48.7673 31.2807 50.0334 32.8237 50.9162C35.8335 52.6615 40.7299 52.6659 43.7344 50.9167C45.0289 50.1694 46.1245 48.9724 46.1245 47.4963L46.1331 45.7685C46.9245 46.5599 47.3197 47.4387 47.2502 48.3394C47.1113 50.2235 45.126 51.5476 43.3576 52.2304ZM44.7287 40.6456C44.8658 40.5754 45.0198 40.5229 45.1513 40.4475C45.1499 40.8295 45.1228 47.9486 45.1245 47.4939C45.1245 48.4255 44.4355 49.3571 43.2329 50.0515C40.5073 51.6389 36.063 51.6389 33.3227 50.0495C32.0976 49.3484 31.3945 48.3986 31.3945 47.4455L31.4145 43.8899C31.4147 43.8803 31.4087 43.8722 31.4083 43.8628L31.4214 40.4607C35.1859 42.5907 41.0149 42.5473 44.7287 40.6456ZM29.3047 36.0944L29.3286 34.5344C29.7672 35.0888 30.5133 35.7481 31.4101 36.2663C35.2345 38.4742 41.452 38.4836 45.2676 36.2649C46.0902 35.7873 46.7975 35.1783 47.2241 34.6648L47.2016 36.1394C47.1976 37.6466 46.0006 38.7733 44.7026 39.5515C41.4292 41.4604 35.5657 41.7036 31.8462 39.5515C31.6235 39.4221 31.4101 39.2927 31.2251 39.154L31.2218 39.1528C29.9785 38.2705 29.3017 37.2014 29.3047 36.0944ZM54.2783 55.2697L54.2744 56.363C54.268 58.6208 52.7153 60.7644 49.9028 62.3991C43.8681 65.9065 34.0102 65.9045 27.9297 62.3933C25.0664 60.7404 23.4931 58.5705 23.5 56.2829L23.5039 55.1867C24.2017 56.3238 25.5888 57.7186 27.4448 58.7902C33.4727 62.2705 43.0282 62.4518 49.386 59.3374C51.2615 58.4203 53.1693 57.0485 54.2783 55.2697ZM49.8452 45.7771C52.7051 47.425 54.2827 49.5886 54.2871 51.8689C54.2931 54.9498 51.5167 57.2315 48.7434 58.5465C42.6176 61.4459 33.5896 61.1831 27.9448 57.9206C25.6105 56.5733 23.5121 54.4482 23.5157 51.8206C23.5179 49.559 25.069 47.4128 27.8857 45.7766C28.5625 45.3838 29.3045 45.0382 30.0846 44.729C28.985 45.6933 28.3952 46.8463 28.3764 48.0432C28.3609 48.2141 28.3253 51.0231 28.3047 52.2478C28.3003 53.9084 29.3804 55.448 31.3467 56.5832C35.187 58.8003 41.4032 58.7922 45.2041 56.5822C47.1328 55.4621 48.1972 53.9426 48.2016 52.3108C48.2305 50.2101 48.2712 48.2987 48.2582 48.1144C48.2519 47.0985 47.8263 46.1011 47.031 45.2357L47.8102 44.7797C48.4884 45.0534 49.1567 45.3811 49.8452 45.7771ZM54.9557 40.5981L55.9165 40.0359C56.3222 39.799 56.5547 39.3283 56.5547 38.7439C56.5547 37.7219 55.8623 36.5134 54.9668 35.9865C54.2641 35.5969 53.7593 35.7639 53.5117 35.9021C53.4114 35.9607 52.45 36.5232 52.5503 36.4646C52.54 36.3454 52.5346 36.2292 52.5346 36.1169C52.5386 35.3917 52.7561 34.8685 53.1468 34.6419C53.6221 34.3793 54.2774 34.5871 54.7456 34.8576C57.1443 36.2339 58.184 40.1927 56.8115 40.9777C56.248 41.3027 55.485 40.9713 54.9557 40.5981ZM69.5 32.4924C69.5 33.2126 69.2842 33.736 68.8935 33.9646L58.3891 40.0691C58.4757 39.4417 58.4367 38.826 58.2101 38.0201C57.7566 36.3839 56.6218 34.7765 55.2441 33.9826C55.0649 33.882 54.8877 33.7976 54.7124 33.7297L65.209 27.6286C65.6094 27.4006 66.1826 27.4758 66.8203 27.8332C68.3091 28.7033 69.5117 30.7917 69.5 32.489V32.4924Z" fill="white"/>
<path d="M40.584 26.1462C40.3081 26.1047 40.0576 26.2985 40.0195 26.572C39.9814 26.8454 40.1718 27.0983 40.4453 27.1364C41.2353 27.2468 41.9941 27.4172 42.7011 27.6428C42.7514 27.6589 42.8027 27.6662 42.853 27.6662C43.0649 27.6662 43.2617 27.5305 43.3296 27.3181C43.4131 27.0549 43.268 26.7736 43.0048 26.6897C42.2441 26.4475 41.4297 26.2644 40.584 26.1462Z" fill="white"/>
</svg>
