<svg width="93" height="92" viewBox="0 0 93 92" fill="none" xmlns="http://www.w3.org/2000/svg">
<rect x="0.5" width="92" height="92" rx="46" fill="black"/>
<path d="M52.4698 50.018C53.026 49.2543 53.4179 48.3096 53.4157 47.3727C53.4111 45.7319 52.0838 44.9661 50.6458 45.7951L50.6089 45.8164L50.6038 45.1434C50.6015 44.8321 50.3484 44.5817 50.0377 44.5817H50.0333C49.721 44.584 49.4695 44.8393 49.4717 45.1522L49.4818 46.4672L48.9832 46.755L48.9781 46.082C48.9758 45.7708 48.7227 45.5203 48.412 45.5203H48.4076C48.0953 45.5226 47.8438 45.7779 47.846 46.0908L47.8561 47.4059C47.7429 47.4722 45.7854 48.6184 45.9096 48.5457C45.641 48.7049 45.552 49.052 45.7112 49.3212C45.871 49.5915 46.219 49.678 46.4867 49.5196L46.746 49.3662C46.7463 49.4824 46.7685 57.3493 46.7671 56.8503L45.9096 57.3579C45.641 57.5171 45.552 57.8643 45.7112 58.1335C45.871 58.4038 46.219 58.4903 46.4867 58.3319L47.5938 57.6765C47.6011 57.6727 47.61 57.6744 47.6171 57.6703L47.8534 57.5339L47.8587 58.2181C47.8609 58.5293 48.1141 58.7797 48.4247 58.7797H48.4292C48.7415 58.7775 48.993 58.5221 48.9908 58.2092L48.9805 56.8831L49.4791 56.5953L49.4844 57.2794C49.4866 57.5907 49.7398 57.8411 50.0504 57.8411H50.0549C50.3672 57.8389 50.6187 57.5835 50.6165 57.2706L50.6062 55.9445L51.2372 55.5802C52.444 54.884 53.4319 53.2376 53.4284 51.7777C53.4263 51.0412 53.1577 50.3423 52.4698 50.018ZM51.2118 46.7757C51.8683 46.3973 52.2812 46.5812 52.2836 47.376C52.286 48.4323 51.4995 49.7099 50.6585 50.1946L47.8847 51.796L47.8764 48.7015C48.7415 48.202 50.4405 47.221 51.2118 46.7757ZM50.6712 54.5996L47.8974 56.2015L47.8885 53.1012L51.2245 51.1752C51.8812 50.7955 52.294 50.9885 52.2963 51.781C52.2987 52.8165 51.5369 54.1006 50.6712 54.5996Z" fill="white"/>
<path d="M56.2465 41.0833L60.3552 38.7113C60.6261 38.5549 60.7189 38.2088 60.5625 37.938C60.4055 37.6666 60.0589 37.5737 59.7892 37.7307L55.6804 40.1026C55.4096 40.2591 55.3167 40.6051 55.4731 40.876C55.6311 41.1486 55.9782 41.2382 56.2465 41.0833Z" fill="white"/>
<path d="M59.7892 42.6459L55.6804 45.0184C55.4096 45.1749 55.3167 45.5209 55.4731 45.7918C55.63 46.0633 55.9771 46.1547 56.2465 45.9991L60.3552 43.6266C60.6261 43.4701 60.7189 43.1241 60.5625 42.8532C60.4055 42.5813 60.0589 42.4884 59.7892 42.6459Z" fill="white"/>
<path d="M59.7892 47.5617L57.5079 48.879C57.237 49.0354 57.1442 49.3815 57.3006 49.6523C57.4056 49.8342 57.5958 49.9353 57.7914 49.9353C57.8876 49.9353 57.9849 49.911 58.0739 49.8596L60.3552 48.5424C60.6261 48.3859 60.7189 48.0399 60.5625 47.769C60.4055 47.4976 60.0589 47.4047 59.7892 47.5617Z" fill="white"/>
<path d="M59.7892 52.4775L55.6804 54.8495C55.4096 55.0059 55.3167 55.3519 55.4731 55.6228C55.6311 55.8955 55.9782 55.985 56.2465 55.8301L60.3552 53.4582C60.6261 53.3017 60.7189 52.9557 60.5625 52.6848C60.4055 52.414 60.0589 52.3217 59.7892 52.4775Z" fill="white"/>
<path d="M43.3437 47.2257L38.7054 49.9038C38.4345 50.0603 38.3416 50.4063 38.4981 50.6772C38.6549 50.9487 39.002 51.0401 39.2714 50.8845L43.9097 48.2063C44.1806 48.0498 44.2734 47.7038 44.117 47.4329C43.96 47.1621 43.6123 47.0698 43.3437 47.2257Z" fill="white"/>
<path d="M39.2714 55.7997L42.184 54.1182C42.4548 53.9617 42.5477 53.6157 42.3912 53.3448C42.2343 53.0734 41.8866 52.9806 41.6179 53.1375L38.7054 54.8191C38.4345 54.9755 38.3416 55.3215 38.4981 55.5924C38.6031 55.7743 38.7933 55.8754 38.9889 55.8754C39.0851 55.8754 39.1824 55.8511 39.2714 55.7997Z" fill="white"/>
<path d="M43.3437 57.0567L38.7054 59.7349C38.4345 59.8913 38.3416 60.2373 38.4981 60.5082C38.6549 60.7798 39.002 60.8711 39.2714 60.7155L43.9097 58.0373C44.1806 57.8809 44.2734 57.5348 44.117 57.264C43.96 56.9926 43.6123 56.9008 43.3437 57.0567Z" fill="white"/>
<path d="M43.3437 61.9725L38.7054 64.6501C38.4345 64.8065 38.3416 65.1526 38.4981 65.4234C38.656 65.6961 39.0032 65.7857 39.2714 65.6307L43.9097 62.9531C44.1806 62.7967 44.2734 62.4506 44.117 62.1798C43.96 61.9084 43.6123 61.8155 43.3437 61.9725Z" fill="white"/>
<path d="M28.2862 69.6035C28.4007 69.6702 34.3827 73.1553 34.2681 73.0886C34.2681 73.0885 34.2682 73.0886 34.2681 73.0886C34.4433 73.1899 34.6585 73.1904 34.8343 73.0898L64.7962 55.8566C64.9719 55.7549 65.0803 55.5675 65.0797 55.3641C65.0704 52.0742 65.002 27.8601 64.988 22.9026C64.9876 22.7862 64.9172 22.5366 64.7044 22.4134C64.4028 22.2388 58.5466 18.8361 58.6615 18.9022C58.4734 18.7928 58.2079 18.8352 58.0938 18.9011C57.9803 18.9667 28.0641 36.2539 28.1777 36.1814C28.0188 36.2828 27.9306 36.4179 27.9209 36.625C27.9133 36.7883 27.9742 59.9346 27.9799 60.0538C27.981 60.3656 28.2342 60.6182 28.546 60.6182C28.8213 60.5861 29.1131 60.3639 29.112 60.0505L29.0485 37.638C29.3442 37.8099 34.2275 40.648 33.9587 40.4918L33.9847 71.6134L29.1363 68.7887L29.1286 65.9259C29.1275 65.6141 28.8743 65.3615 28.5626 65.3615C28.562 65.3615 28.5615 65.3615 28.5609 65.3615C28.2486 65.3626 27.9954 65.6164 27.9965 65.9292L28.0054 69.1159C28.0059 69.3166 28.1132 69.5023 28.2862 69.6035ZM63.8587 23.8832L63.8769 30.4362L35.1101 47.0446L35.0913 40.4919L56.6865 28.024L63.8587 23.8832ZM35.1179 71.6206L35.1124 48.3516L63.8808 31.7419L63.9466 55.0391L35.1179 71.6206ZM58.3757 20.0453L63.2926 22.9026L34.525 39.5115C34.3477 39.4084 29.4235 36.5466 29.609 36.6545L58.3757 20.0453Z" fill="white"/>
<path d="M29.1225 63.7999L29.1181 62.1991C29.117 61.8874 28.8638 61.6347 28.5521 61.6347H28.5504C28.2381 61.6358 27.9849 61.8896 27.986 62.2024L27.9904 63.8033C27.9916 64.115 28.2447 64.3676 28.5565 64.3676C28.8213 64.3406 29.1236 64.1134 29.1225 63.7999Z" fill="white"/>
<path d="M56.2592 33.8226C57.1856 33.2875 57.9081 32.035 57.9048 30.9709C57.9013 29.67 56.8202 29.0452 55.6843 29.7006C54.7551 30.2368 54.0298 31.491 54.0332 32.5557C54.0366 33.8535 55.127 34.4758 56.2592 33.8226ZM56.2503 30.6812C56.6558 30.4463 56.7717 30.5866 56.7727 30.9742C56.7749 31.6359 56.2702 32.5087 55.6931 32.842C55.3355 33.0486 55.1663 32.9906 55.1652 32.5523C55.163 31.8901 55.6699 31.0162 56.2503 30.6812Z" fill="white"/>
<path d="M51.188 36.7495C52.1134 36.2144 52.8364 34.9619 52.8336 33.8972C52.829 32.5936 51.7463 31.9723 50.6132 32.627C49.6845 33.1631 48.9587 34.4174 48.9615 35.4826C48.9661 36.7809 50.0544 37.4023 51.188 36.7495ZM51.1792 33.6076C51.5367 33.403 51.7005 33.4553 51.7016 33.9005C51.7032 34.5628 51.1985 35.4356 50.622 35.7689C50.2653 35.9741 50.0947 35.9195 50.0936 35.4793C50.0919 34.817 50.5993 33.9426 51.1792 33.6076Z" fill="white"/>
<path d="M61.3253 30.8962C62.2545 30.3601 62.9798 29.1058 62.9764 28.0412C62.973 26.7452 61.8908 26.1164 60.7504 26.7742C59.8218 27.3104 59.096 28.5647 59.0988 29.6298C59.1034 30.9298 60.1958 31.5499 61.3253 30.8962ZM61.3165 27.7548C61.6738 27.5497 61.8433 27.5988 61.8444 28.0445C61.8466 28.7067 61.3397 29.5806 60.7593 29.9156C60.4029 30.1227 60.2319 30.0658 60.2308 29.6265C60.2292 28.9643 60.7366 28.0898 61.3165 27.7548Z" fill="white"/>
</svg>
