<svg width="93" height="92" viewBox="0 0 93 92" fill="none" xmlns="http://www.w3.org/2000/svg">
<rect x="0.5" width="92" height="92" rx="46" fill="black"/>
<path d="M27.4604 61.5512C32.9611 64.727 40.2007 66.1253 46.5785 66.1253C52.9565 66.1253 60.1346 64.7505 65.6326 61.555C70.7877 58.5596 73.6334 54.5448 73.6455 50.2498L73.6699 41.9256C73.6699 41.8964 73.6577 41.8713 73.6536 41.8433C73.6422 39.3924 72.7029 36.9794 70.8563 34.781C70.6562 34.5417 70.2991 34.5107 70.0592 34.7119C69.8193 34.9131 69.7883 35.2702 69.9895 35.5096C75.0947 41.5881 72.0765 48.1901 65.0875 52.2519C54.9099 58.1649 38.2969 58.1621 28.0508 52.2464C24.1377 49.9871 20.4834 46.3311 20.4871 41.7919C20.4898 37.9098 23.1309 34.2371 27.9291 31.4483C37.5768 25.8423 53.7245 25.3373 64.3678 31.1095C64.6387 31.2565 64.9847 31.1576 65.1351 30.8818C65.2843 30.607 65.1826 30.2632 64.9073 30.1145C53.8853 24.1357 37.3075 24.686 27.3609 30.4699C22.212 33.4622 19.3716 37.4702 19.3555 41.7602C19.3555 41.7637 19.3535 41.7667 19.3535 41.7702L19.3302 50.095C19.3181 54.4486 22.2058 58.5176 27.4604 61.5512ZM25.801 59.0868V52.1594C26.3473 52.537 26.9604 52.9242 27.4847 53.227C29.2178 54.2276 31.14 55.0473 33.1683 55.7195V62.8618C31.3393 62.232 29.6013 61.4797 28.0264 60.5705C27.2154 60.1023 26.4886 59.6013 25.801 59.0868ZM41.6788 57.5346V64.7407C39.132 64.4621 36.6427 63.965 34.3004 63.2482V56.0861C36.6506 56.7802 39.1366 57.2637 41.6788 57.5346ZM42.8109 64.8352V57.629C45.4087 57.8401 47.8609 57.8275 50.1892 57.6458V64.8484C47.7412 65.0445 45.2598 65.0398 42.8109 64.8352ZM58.6887 56.1382V63.294C56.3513 64.001 53.8648 64.4846 51.3213 64.7541V57.5514C54.0853 57.2682 56.6466 56.7316 58.6887 56.1382ZM65.0643 60.5766C63.4635 61.5068 61.6904 62.2732 59.8207 62.9106V55.784C62.9725 54.7549 65.2165 53.5953 67.1114 52.3072C67.1394 52.288 67.1712 52.2708 67.1991 52.2515V59.1499C66.5379 59.6442 65.8401 60.1257 65.0643 60.5766ZM72.5135 50.2464C72.5052 53.1221 71.0405 55.8817 68.3312 58.253V51.4125C70.0201 50.0821 71.5407 48.4591 72.5245 46.5296L72.5135 50.2464ZM20.4723 46.3859C21.4361 48.3082 22.9703 49.9765 24.6689 51.3227V58.1894C21.9288 55.7917 20.4542 53.0041 20.4623 50.0983L20.4723 46.3859Z" fill="white"/>
<path d="M66.5347 31.7419C66.3556 31.9984 66.4186 32.351 66.6751 32.5301C67.2577 32.9375 67.8105 33.3698 68.3191 33.8142C68.4263 33.9082 68.559 33.9541 68.6916 33.9541C68.8486 33.9541 69.0056 33.8888 69.1173 33.7606C69.324 33.5251 69.2997 33.1675 69.0642 32.9618C68.5247 32.4903 67.9399 32.0332 67.323 31.6026C67.0698 31.424 66.7149 31.4843 66.5347 31.7419Z" fill="white"/>
<path d="M34.6309 34.666C27.9024 38.5753 27.9053 45.1029 34.7072 49.0309C41.259 52.813 51.8811 52.8145 58.3879 49.0326C65.1195 45.1218 65.1206 38.5931 58.3116 34.6616C51.7624 30.8818 41.1403 30.8834 34.6309 34.666ZM57.8197 48.0541C51.6242 51.6532 41.5107 51.6516 35.2732 48.0503C29.2389 44.5654 29.2206 39.1197 35.1992 35.6444C41.4264 32.0267 51.5393 32.0592 57.7456 35.6422C63.7856 39.1298 63.8041 44.576 57.8197 48.0541Z" fill="white"/>
<path d="M55.3356 38.2673L53.5189 39.3233L52.2808 38.6085L53.5357 37.8793C53.8066 37.7223 53.8983 37.3763 53.7414 37.106C53.5833 36.8334 53.235 36.745 52.9675 36.9009L51.1512 37.9562L49.7254 37.133C49.7105 37.1219 49.7014 37.1058 49.6851 37.096C49.5718 37.0859 44.9671 35.5692 47.3878 37.0297L48.2707 37.5635L43.9573 40.0705L39.1233 42.88L37.6966 42.0173C37.4313 41.8581 37.0819 41.9405 36.9194 42.2086C36.758 42.4761 36.8431 42.8244 37.1107 42.9858L38.8221 44.0206L38.8236 44.021C38.8271 44.0231 38.8285 44.0273 38.832 44.0294L39.7687 44.5701L38.5225 45.2942C38.2516 45.4511 38.1599 45.7972 38.3168 46.0675C38.4219 46.2488 38.612 46.3494 38.8066 46.3494C38.9039 46.3494 39.0012 46.3245 39.0907 46.2726L40.8984 45.2223L42.1364 45.937L40.8905 46.6612C40.6197 46.8181 40.5279 47.1647 40.6849 47.435C40.7899 47.6158 40.9801 47.7164 41.1747 47.7164C41.272 47.7164 41.3692 47.6915 41.4588 47.6396L43.266 46.589L43.6964 46.8375C44.467 47.2819 45.4586 47.5257 46.4868 47.5257C46.5321 47.5257 46.5797 47.5257 46.6272 47.5257C47.6598 47.5257 48.6459 47.2819 49.4121 46.8369C50.2766 46.335 50.752 45.6347 50.7509 44.8652C50.7507 44.7297 50.7173 44.5997 50.6881 44.4691C50.9987 44.5149 51.3152 44.5463 51.6397 44.5463C51.674 44.5463 51.7127 44.5463 51.7503 44.5468C52.7862 44.5468 53.7756 44.3014 54.544 43.8542C55.4052 43.3539 55.8795 42.6558 55.8784 41.8874C55.8773 41.1516 55.429 40.4835 54.6346 39.9835L55.9038 39.2457C56.1747 39.0887 56.2664 38.7422 56.1094 38.4719C55.9513 38.201 55.6031 38.1115 55.3356 38.2673ZM49.6188 44.8669C49.6188 45.2101 49.3369 45.5717 48.8438 45.858C48.2424 46.2068 47.4199 46.4141 46.5576 46.3931C45.6587 46.4041 44.8683 46.2068 44.2624 45.8569L40.2449 43.5375L44.2422 41.2138L48.8228 43.8586C49.328 44.1499 49.6188 44.5175 49.6188 44.8669ZM53.9746 42.8758C53.3721 43.2262 52.5153 43.4076 51.6862 43.4142C50.8095 43.4042 49.9892 43.224 49.3888 42.878L45.3705 40.5579L49.3689 38.2342L53.9492 40.8792C54.4555 41.171 54.7452 41.5392 54.7463 41.8891C54.7463 42.2313 54.4655 42.5911 53.9746 42.8758Z" fill="white"/>
</svg>
