<svg width="93" height="92" viewBox="0 0 93 92" fill="none" xmlns="http://www.w3.org/2000/svg">
<rect x="0.5" width="92" height="92" rx="46" fill="black"/>
<path d="M28.0601 60.4235C28.048 64.7451 31.0971 70.0279 34.8581 72.1997C36.4874 73.14 38.4304 73.5939 40.0597 72.6558C40.0634 72.6536 40.0665 72.6507 40.0703 72.6485C40.0714 72.6478 40.0729 72.6482 40.0741 72.6475C40.0763 72.6469 40.0774 72.6458 40.0796 72.6447L62.6625 59.5153C64.0676 58.6988 64.847 57.0389 64.8581 54.8399L64.9377 21.4548C64.9378 21.4519 64.9399 21.4495 64.9399 21.4465C64.9399 21.3448 64.9121 21.2473 64.8627 21.1625C64.8139 21.0766 64.7433 21.0033 64.6547 20.9523C64.6516 20.9505 64.6478 20.9513 64.6446 20.9496L61.1015 18.9037C60.9268 18.8026 60.709 18.8026 60.5343 18.9048L37.9426 32.0337C37.8242 32.1022 37.6607 32.3407 37.6607 32.5213L37.6526 35.7032C33.9485 37.8541 40.0712 34.2995 28.3973 41.0776C28.2003 41.1904 28.1139 41.4456 28.1132 41.5662L28.0856 51.5023C28.0844 51.8152 28.3376 52.0689 28.6505 52.07C28.9622 52.07 29.2165 51.8174 29.2176 51.5056L29.2431 42.5485L31.6557 43.9438L31.6226 57.6939L31.6089 62.4732C31.6039 64.8582 33.4648 67.776 35.662 68.4592C35.6933 68.4687 35.7236 68.47 35.7548 68.4786C37.385 68.9315 38.7029 67.8958 38.7087 65.9208L38.7905 33.5021L41.2161 34.9022C41.2158 35.0184 41.2261 26.9937 41.1276 67.971C41.1276 71.6225 38.6873 73.1042 35.4241 71.2191C31.976 69.2286 29.18 64.3869 29.1922 60.4251V56.6923C29.1922 56.3794 28.939 56.1262 28.6262 56.1262C28.3133 56.1262 28.0601 56.3794 28.0601 56.6923V60.4235ZM62.0942 58.5369L41.9181 70.2661C41.92 70.2603 41.9206 70.2532 41.9225 70.2473C42.1453 69.5762 42.2624 68.6706 42.2641 67.9738C42.2644 67.8605 42.3555 32.6569 42.3484 34.9018L63.8034 22.4329L63.726 54.8361C63.7172 56.616 63.1379 57.9299 62.0942 58.5369ZM60.8196 20.048L63.2403 21.4459L41.7816 33.9214C41.6649 33.8539 39.2001 32.4309 39.3566 32.5213L60.8196 20.048ZM34.3947 66.2829C33.3154 65.1235 32.7369 63.5288 32.7432 62.4682L32.7986 43.9443L37.6319 41.1287L37.5766 65.9136C37.5543 68.0146 35.8178 67.8025 34.3947 66.2829ZM37.6352 39.816L32.2309 42.9643L29.8098 41.5669L37.643 37.018L37.6352 39.816Z" fill="white"/>
<path d="M28.6416 55.3717C28.9534 55.3717 29.2066 55.1196 29.2077 54.8073L29.2121 53.3685C29.2132 53.0562 28.96 52.8019 28.6483 52.8008H28.6461C28.3343 52.8008 28.0811 53.0528 28.08 53.3652L28.0756 54.804C28.0745 55.1174 28.2912 55.3695 28.6416 55.3717Z" fill="white"/>
<path d="M50.6729 35.9053L61.2297 29.7679C61.5006 29.6109 61.5923 29.2643 61.4353 28.994C61.2773 28.7232 60.929 28.6336 60.6615 28.7895L50.1046 34.9269C49.8338 35.0839 49.742 35.4305 49.899 35.7008C50.0547 35.9688 50.4003 36.0635 50.6729 35.9053Z" fill="white"/>
<path d="M50.6729 41.9703L61.2297 35.8329C61.5006 35.6759 61.5923 35.3293 61.4353 35.059C61.2773 34.7876 60.929 34.6981 60.6615 34.8545L50.1046 40.9919C49.8338 41.1489 49.742 41.4955 49.899 41.7658C50.0547 42.0338 50.4003 42.1285 50.6729 41.9703Z" fill="white"/>
<path d="M45.4426 51.0761L61.2297 41.8985C61.5006 41.7415 61.5923 41.3949 61.4354 41.1246C61.2773 40.8537 60.929 40.7642 60.6615 40.9201L44.8743 50.0977C44.6035 50.2547 44.5117 50.6013 44.6687 50.8716C44.8244 51.1396 45.17 51.2343 45.4426 51.0761Z" fill="white"/>
<path d="M61.2275 46.9834C61.0517 46.8822 60.835 46.8828 60.6615 46.9851L44.8743 56.1627C44.6996 56.2639 44.5924 56.4502 44.5924 56.6519V62.7169C44.5924 62.9193 44.7007 63.1066 44.8765 63.2078C45.0552 63.3107 45.2732 63.3058 45.4426 63.2061L61.2297 54.0285C61.4044 53.9273 61.5116 53.741 61.5116 53.5393V47.4743C61.5116 47.272 61.4033 47.0846 61.2275 46.9834ZM60.3796 53.2137L45.7245 61.733V56.9775L60.3796 48.4582V53.2137Z" fill="white"/>
<path d="M45.7179 41.784C46.1656 42.0411 46.7416 42.004 47.2999 41.6812C47.5287 41.5491 47.6835 41.5436 47.7476 41.5806C47.8106 41.6165 47.8836 41.752 47.8847 42.0134C47.8869 42.7144 47.353 43.6375 46.7427 43.9896C46.5116 44.1223 46.3535 44.1278 46.2894 44.0913C46.2275 44.0559 46.1556 43.9222 46.1545 43.6635C46.1534 43.3517 45.9003 43.0991 45.5885 43.0991C45.2756 43.0996 45.0214 43.3539 45.0225 43.6662C45.0236 44.3041 45.2801 44.8165 45.7245 45.0725C45.9213 45.1858 46.1435 45.2422 46.3779 45.2422C46.3983 45.2422 46.4202 45.2337 46.4409 45.2328V46.0183C46.4409 46.3311 46.694 46.5843 47.0069 46.5843C47.3198 46.5843 47.573 46.3311 47.573 46.0183V44.7879C48.4023 44.1659 49.0188 43.0116 49.0168 42.0101C49.0121 40.6591 47.8928 40.0299 46.7338 40.7006C46.4995 40.8344 46.3436 40.8388 46.2817 40.8023C46.2187 40.7664 46.1457 40.6315 46.1446 40.37C46.1424 39.6669 46.6786 38.7405 47.2899 38.3873C47.5188 38.2563 47.6747 38.2502 47.7388 38.2872C47.8007 38.3231 47.8737 38.4586 47.8748 38.72C47.8759 39.0323 48.129 39.285 48.4408 39.285C48.7537 39.2844 49.0079 39.0301 49.0068 38.7178C49.0057 38.0772 48.7493 37.5631 48.3037 37.3066C48.0859 37.1806 47.836 37.1274 47.573 37.141V36.3707C47.573 36.0579 47.3198 35.8047 47.0069 35.8047C46.694 35.8047 46.4409 36.0579 46.4409 36.3707V37.602C45.6196 38.2286 45.0105 39.3771 45.0125 40.3734C45.0147 41.0135 45.2723 41.5276 45.7179 41.784Z" fill="white"/>
</svg>
