<svg width="93" height="92" viewBox="0 0 93 92" fill="none" xmlns="http://www.w3.org/2000/svg">
<rect x="0.5" width="92" height="92" rx="46" fill="black"/>
<path d="M45.7001 34.5894L56.8926 27.9379C57.1612 27.7782 57.2497 27.431 57.0894 27.1624C56.9291 26.8932 56.5819 26.8053 56.3133 26.965L45.1208 33.6165C44.8521 33.7763 44.7637 34.1234 44.924 34.3921C45.0866 34.6648 45.4361 34.7472 45.7001 34.5894Z" fill="white"/>
<path d="M45.7001 40.1768L56.8926 33.5253C57.1612 33.3656 57.2497 33.0184 57.0894 32.7498C56.9291 32.4811 56.5819 32.3932 56.3133 32.5524L45.1208 39.2039C44.8521 39.3637 44.7637 39.7108 44.924 39.9795C45.0866 40.2522 45.4361 40.3346 45.7001 40.1768Z" fill="white"/>
<path d="M40.0884 48.8144L56.886 39.116C57.1569 38.9596 57.2497 38.6136 57.0928 38.3427C56.9369 38.0702 56.5908 37.9784 56.32 38.1354L39.5224 47.8338C39.2515 47.9902 39.1586 48.3363 39.3156 48.6071C39.4697 48.8768 39.816 48.9708 40.0884 48.8144Z" fill="white"/>
<path d="M57.0507 57.9058L55.2951 58.9196C55.0243 59.0761 54.9314 59.4221 55.0884 59.693C55.2425 59.9626 55.5887 60.0566 55.8612 59.9002L57.6168 58.8865C57.8876 58.73 57.9805 58.384 57.8235 58.1131C57.6676 57.8412 57.3205 57.75 57.0507 57.9058Z" fill="white"/>
<path d="M58.7433 56.9291C58.4724 57.0855 58.3796 57.4316 58.5366 57.7024C58.6913 57.9733 59.0385 58.0645 59.3093 57.9097L64.1516 55.1138C64.3143 55.0202 64.4346 54.8354 64.4346 54.6218L64.3705 31.9101C64.3484 31.7456 64.3195 31.5617 64.0897 31.427L61.335 29.8233L61.3137 19.3943C61.3137 19.192 61.2053 19.0057 61.0307 18.9051C60.8538 18.8045 60.6393 18.8045 60.4646 18.9051L47.5804 26.3438L44.7891 25.6931C44.5725 25.6417 44.3359 25.7285 44.201 25.9137L41.2674 29.9886L35.3666 33.3954C35.1908 33.4966 35.0836 33.6845 35.0836 33.8868L35.0932 38.573L28.6692 47.5027C28.6245 47.5651 28.565 47.7835 28.5653 47.8399L28.6294 70.5516C28.6305 70.7528 28.7367 70.9385 28.9113 71.0391C32.0415 72.8478 32.3771 73.0718 32.5379 73.1294C32.6517 73.1468 32.7551 73.2284 32.9969 73.097C33.1267 73.0264 53.7413 61.1277 53.8546 61.0589C54.1254 60.9024 54.2183 60.5564 54.0613 60.2855C53.9054 60.0136 53.5572 59.9224 53.2886 60.0782L34.7262 70.7954C34.8449 70.6305 44.6832 56.9587 48.5029 51.6507C63.9113 55.2133 42.4867 50.2554 62.3418 54.8512L58.7433 56.9291ZM45.6191 53.7188L33.2893 70.8529L33.2318 50.6201C33.3464 50.6488 45.7526 53.7522 45.6191 53.7188ZM33.6095 49.5448L35.1112 47.4563C35.1115 47.5725 35.1167 50.0777 35.1163 49.9222L33.6095 49.5448ZM62.8509 32.2766L61.3443 34.3999L61.3393 31.927C61.4525 31.9532 62.9641 32.3028 62.8509 32.2766ZM50.9232 51.0459C51.0038 50.9324 64.1111 32.4612 63.244 33.6825L63.3003 53.9108L50.9232 51.0459ZM43.6571 28.6068L44.8997 26.881L46.1464 27.1717C45.7893 27.3776 43.5114 28.6907 43.6571 28.6068ZM60.1838 20.3749C60.1879 22.4108 60.1706 13.8588 60.2155 35.9909L49.7295 50.7696C49.5911 50.738 50.2308 50.8841 48.3758 50.4611C48.1756 50.4197 47.9216 50.5176 47.8029 50.6828L46.3292 52.7264C46.2146 52.6977 35.5915 50.0413 36.249 50.2057C36.2479 49.6904 36.2162 33.9449 36.2168 34.2119C44.9028 29.1985 50.8517 25.7627 60.1838 20.3749ZM35.0971 40.5069C35.0974 40.6231 35.1074 45.8546 35.1068 45.5216L32.5029 49.1435C32.3864 49.0756 29.791 47.5638 29.9528 47.658L35.0971 40.5069ZM29.7604 70.2238L29.7007 48.8238C29.815 48.8904 32.2534 50.311 32.0984 50.2207C32.1124 55.2269 32.1443 66.5933 32.1583 71.6179L29.7604 70.2238Z" fill="white"/>
<path d="M41.6804 39.7794C41.8628 39.6738 41.9866 39.6683 42.0242 39.6898C42.0618 39.7114 42.1171 39.8192 42.1182 40.0281C42.1193 40.6384 41.6549 41.4427 41.1232 41.7494C40.9375 41.8572 40.8103 41.8644 40.7749 41.8407C40.7373 41.8196 40.6832 41.7135 40.6821 41.5073C40.681 41.1956 40.4278 40.943 40.116 40.943C39.8032 40.9441 39.5489 41.1978 39.55 41.5106C39.5517 42.4485 40.1354 42.9816 40.8236 42.982V43.62C40.8236 43.9329 41.0768 44.1861 41.3896 44.1861C41.7025 44.1861 41.9557 43.9329 41.9557 43.62V42.5461C42.7011 41.9732 43.2523 40.9293 43.2502 40.0248C43.2491 39.4295 43.0081 38.9497 42.5891 38.7087C42.169 38.4676 41.6317 38.5003 41.1143 38.7988C40.9286 38.906 40.8026 38.9099 40.7672 38.8905C40.7318 38.8701 40.6754 38.7601 40.6743 38.5522C40.6721 37.9403 41.1387 37.1327 41.6726 36.8248C41.8551 36.7187 41.9811 36.7143 42.0154 36.7347C42.0529 36.7563 42.1082 36.8641 42.1093 37.0736C42.1104 37.3853 42.3636 37.6379 42.6754 37.6379C42.9882 37.6368 43.2425 37.3831 43.2414 37.0702C43.2403 36.4743 42.9993 35.9945 42.5803 35.7535C42.3926 35.6461 42.179 35.6017 41.9557 35.6032V34.9653C41.9557 34.6524 41.7025 34.3992 41.3896 34.3992C41.0768 34.3992 40.8236 34.6524 40.8236 34.9653V36.0395C40.0831 36.6166 39.5383 37.6557 39.5423 38.5561C39.5446 39.808 40.5936 40.4083 41.6804 39.7794Z" fill="white"/>
</svg>
