<svg width="93" height="92" viewBox="0 0 93 92" fill="none" xmlns="http://www.w3.org/2000/svg">
<rect x="0.5" width="92" height="92" rx="46" fill="black"/>
<path d="M28.3713 69.8503C28.4859 69.9169 33.8264 73.0203 33.7118 72.9537C33.7125 72.9541 33.7127 72.9548 33.7133 72.9552C33.8879 73.0557 34.1036 73.0552 34.2782 72.9546L67.1117 53.9984C67.2875 53.8967 67.3959 53.7093 67.3948 53.5065L67.3273 30.0087C67.3267 29.8954 67.2289 29.6276 67.0454 29.5212L67.0441 29.5204C67.0437 29.5202 67.0436 29.5197 67.0432 29.5195C65.4338 28.5843 61.4513 26.2701 61.7056 26.4179C61.5321 26.3168 61.3143 26.3157 61.1385 26.4168L47.4636 34.312L47.443 27.8043C47.4298 25.048 46.4565 22.9867 44.6991 21.9913C44.6969 21.9899 44.6958 21.9877 44.6935 21.9863L40.6174 19.6078C38.8585 18.5907 36.5634 18.7941 34.1522 20.1849C29.4271 22.9095 25.5931 29.5494 25.6053 34.9864L25.6506 45.9202C25.6506 48.4881 26.5009 50.4493 28.0383 51.5106L28.0629 60.0159C28.064 60.3277 28.3171 60.5803 28.6289 60.5803C28.9418 60.5792 29.1961 60.3255 29.1949 60.0126L29.1699 51.2203C29.1699 51.2193 29.1706 51.2185 29.1706 51.2174L29.162 46.8511C29.5432 47.0726 33.6214 49.4423 33.3637 49.2926C33.3667 50.3323 33.4089 65.4394 33.4259 71.4793L29.2204 69.0349L29.2104 65.5082C29.2093 65.1959 28.9562 64.9439 28.6444 64.9439C28.3315 64.945 28.0772 65.1987 28.0784 65.5116L28.0894 69.3627C28.0905 69.5639 28.1966 69.7497 28.3713 69.8503ZM34.6475 41.7103C34.1655 41.2598 33.9001 40.4976 33.8913 39.5241C33.8913 36.8399 35.7818 33.5608 38.1001 32.2159C38.9099 31.7561 39.944 31.445 40.7512 31.9075L46.1713 35.058C44.993 35.7382 50.4398 32.594 34.6475 41.7103ZM34.559 71.4854L34.496 49.2928C41.9453 44.992 58.7161 35.3094 66.1986 30.9893L66.2616 53.182L34.559 71.4854ZM61.4204 27.561L65.6322 30.0085L33.9296 48.3124L29.7194 45.8659C34.245 43.2527 31.9295 44.6093 61.4204 27.561ZM46.311 27.8087L46.3295 33.8407L41.3172 30.9274C40.278 30.331 38.9381 30.4393 37.5363 31.2342C34.9018 32.7615 32.7592 36.4806 32.7592 39.5291C32.7691 40.6779 33.0786 41.6277 33.6422 42.2916L31.0532 43.7863L30.8769 43.888L30.8577 37.3506C30.8577 33.2025 33.4037 28.1311 36.5049 25.3261C38.1711 23.7758 40.4032 22.356 42.6538 22.5203C44.0907 22.5203 46.2927 23.954 46.311 27.8087ZM26.7827 45.918L26.7373 34.9831C26.7252 29.9081 30.306 23.7099 34.7182 21.1655C36.3609 20.218 38.4068 19.6372 40.0481 20.5862L41.4829 21.4236C41.4826 21.4236 41.4833 21.4235 41.4829 21.4236C40.1167 21.5012 37.6139 22.6538 35.7309 24.5004C32.7477 27.1908 29.7256 32.6063 29.7256 37.386L29.7466 44.5407L28.305 45.373C28.128 45.4755 28.022 45.6639 28.022 45.8627C28.022 45.8632 28.0222 45.8634 28.0222 45.8639C28.0222 45.8643 28.022 45.8645 28.022 45.865L28.034 50.02C27.2209 49.0969 26.7827 47.6833 26.7827 45.918Z" fill="white"/>
<path d="M28.6411 64.2125C28.9529 64.2114 29.206 63.9572 29.2049 63.6448L29.1994 61.8522C29.1983 61.5399 28.9451 61.2878 28.6334 61.2878H28.6312C28.3194 61.2889 28.0662 61.5432 28.0673 61.8555L28.0729 63.6482C28.074 63.9605 28.3271 64.2125 28.6389 64.2125H28.6411Z" fill="white"/>
<path d="M64.2274 34.4143C64.0527 34.3137 63.8371 34.3143 63.6624 34.4149L36.4805 50.108C36.3047 50.2097 36.1964 50.3971 36.1975 50.6L36.2461 67.5712C36.2472 67.7729 36.3544 67.9592 36.5302 68.0604C36.7048 68.161 36.9205 68.1604 37.0952 68.0598L64.2771 52.3667C64.4529 52.2649 64.5613 52.0776 64.5601 51.8747L64.5115 34.9035C64.5104 34.7017 64.4032 34.5155 64.2274 34.4143ZM37.3749 66.5906L37.3306 50.9245L63.3827 35.8841L63.427 51.5502L37.3749 66.5906Z" fill="white"/>
<path d="M50.187 47.7471L39.5373 53.8956C39.2665 54.052 39.1736 54.3981 39.3306 54.6689C39.4847 54.9386 39.8309 55.0326 40.1034 54.8762L50.753 48.7278C51.0239 48.5713 51.1168 48.2253 50.9598 47.9544C50.8039 47.6825 50.4567 47.5913 50.187 47.7471Z" fill="white"/>
<path d="M50.187 53.8956L39.5373 60.0441C39.2665 60.2005 39.1736 60.5466 39.3306 60.8174C39.4847 61.0871 39.8309 61.1811 40.1034 61.0247L50.753 54.8762C51.0239 54.7198 51.1168 54.3738 50.9598 54.1029C50.8039 53.8304 50.4567 53.7386 50.187 53.8956Z" fill="white"/>
<path d="M61.2081 40.1886C61.0335 40.0879 60.8179 40.0885 60.6432 40.1891L52.6822 44.7859C52.5064 44.8877 52.3981 45.075 52.3992 45.2779L52.4091 48.7023C52.4108 49.0157 52.6643 49.2667 52.9752 49.2667C53.0725 49.2667 53.1708 49.2413 53.2582 49.191L61.2192 44.5958C61.395 44.4941 61.5033 44.3067 61.5022 44.1038L61.4923 40.6778C61.4912 40.476 61.3839 40.2897 61.2081 40.1886ZM53.5379 47.7223L53.5324 45.6024L60.3635 41.6584L60.369 43.7794L53.5379 47.7223Z" fill="white"/>
<path d="M61.2081 46.8865C61.0335 46.7859 60.8179 46.7864 60.6432 46.887L52.6822 51.4839C52.5064 51.5856 52.3981 51.773 52.3992 51.9759L52.4091 55.4008C52.4108 55.7142 52.6643 55.9652 52.9752 55.9652C53.0725 55.9652 53.1708 55.9398 53.2582 55.8895L61.2192 51.2937C61.395 51.192 61.5033 51.0046 61.5022 50.8018L61.4923 47.3757C61.4912 47.1739 61.3839 46.9876 61.2081 46.8865ZM53.5379 54.4202L53.5324 52.3003L60.3635 48.3563L60.369 50.4773L53.5379 54.4202Z" fill="white"/>
</svg>
