<svg width="93" height="92" viewBox="0 0 93 92" fill="none" xmlns="http://www.w3.org/2000/svg">
<rect x="0.5" width="92" height="92" rx="46" fill="black"/>
<path d="M23.1545 54.7224C23.1717 60.7139 25.2352 65.2068 28.9647 67.3737L36.601 71.8115C36.6141 71.8191 36.6251 71.8297 36.6383 71.8373C41.0054 74.3467 46.2862 73.0192 50.6676 70.4852C55.825 67.5047 60.6545 62.4181 64.2674 56.1612C64.2713 56.1545 64.2712 56.1464 64.2748 56.1396C67.8833 49.8809 69.862 43.1789 69.8455 37.2648C69.8289 31.2916 67.7713 26.8155 64.0558 24.6427C64.0479 24.6376 64.0435 24.6293 64.0353 24.6245L56.3971 20.1858C52.6117 17.9852 47.6185 18.4556 42.3362 21.5058C41.386 22.0547 40.4319 22.6854 39.5016 23.3797C39.2507 23.5671 39.1993 23.9214 39.3861 24.1718C39.5735 24.4228 39.9295 24.4742 40.1782 24.2874C40.9814 23.6876 41.8017 23.1387 42.6204 22.6517L49.1453 26.4437C44.0955 29.6032 39.6741 34.7173 36.671 39.7787C36.4341 39.641 29.6709 35.7106 30.0111 35.9083C31.0686 34.1278 32.2421 32.4264 33.5046 30.8449C33.6997 30.6006 33.6599 30.244 33.4156 30.0494C33.1719 29.8538 32.8159 29.8947 32.6202 30.1384C27.2352 36.8849 23.1297 46.1614 23.1545 54.7224ZM56.265 31.3367C59.6488 31.312 61.7857 33.2581 62.8018 36.4834C63.1219 37.5516 63.2204 38.3525 63.2854 39.3562L56.8216 35.6026C56.7852 34.0243 56.5511 32.5965 56.1233 31.342C56.1704 31.3406 56.2181 31.3373 56.265 31.3367ZM59.7334 52.9208C59.6188 52.8542 52.6418 48.7989 53.0841 49.0559C55.3216 45.0281 56.6226 40.7697 56.8034 36.906L63.3193 40.6927C63.259 44.9436 61.7796 49.2333 59.7334 52.9208ZM47.7618 64.4276C44.0255 65.8064 40.3933 65.1638 38.5339 61.6094C44.1912 60.5453 49.4446 55.1485 52.5213 50.0386C52.6359 50.1053 59.6067 54.1597 59.1645 53.9026C56.6116 58.1545 52.3811 62.7507 47.7618 64.4276ZM54.9467 31.459C55.425 32.7395 55.6843 34.2337 55.6939 35.9326C55.6939 35.934 55.6929 35.9351 55.6929 35.9365C55.7045 40.0082 54.3308 44.6409 51.8251 48.9813C51.8211 48.9883 51.8215 48.9962 51.8177 49.0033C48.8774 54.0635 43.6332 59.6488 38.0527 60.5274C37.5676 59.2483 37.3093 57.7522 37.3093 56.0479C37.3093 56.0455 37.3075 56.0436 37.3075 56.0412C37.2981 51.9823 38.674 47.3554 41.1832 43.0103C43.6889 38.6699 47.0182 35.1537 50.5582 33.1101C52.0857 32.2281 53.5617 31.689 54.9467 31.459ZM24.2877 54.3957C24.3419 48.9078 26.1638 42.7245 29.4445 36.8883L36.1043 40.7588C33.1541 46.0027 31.0043 52.3336 30.8082 58.1849C30.6191 58.0751 24.0838 54.2772 24.2877 54.3957ZM31.9642 58.155C32.1692 52.3568 34.2074 46.4689 37.0964 41.3297L39.9222 42.9398C37.5567 47.197 36.2363 51.7015 36.1769 55.7213L31.9642 58.155ZM24.3098 55.7179C24.4512 55.8001 31.2275 59.7381 30.796 59.4873C30.8421 62.4951 31.4435 65.6769 33.0248 68.2506C33.0776 68.3365 33.1239 68.4292 33.1785 68.5131L29.5335 66.3953C26.3706 64.5573 24.5342 60.7874 24.3098 55.7179ZM50.101 69.5051C45.2002 72.3398 40.6177 72.819 37.2027 70.8556C37.1928 70.8499 37.1846 70.842 37.1747 70.8362C37.1739 70.8358 37.1736 70.835 37.1728 70.8346C33.3416 68.6079 32.0117 63.9248 31.9399 59.4786L36.2035 57.0169C36.2927 58.6616 36.6143 60.1283 37.1601 61.3811C39.058 65.9776 43.6792 67.2373 48.1547 65.4898C48.1564 65.4892 48.1582 65.4883 48.1599 65.4877C48.1625 65.4866 48.1654 65.4859 48.168 65.4848C48.169 65.4844 48.1696 65.4835 48.1707 65.4831C53.0599 63.7022 57.4946 58.911 60.1559 54.472C60.2694 54.5366 63.1827 56.195 62.9974 56.0895C59.5168 61.9493 54.9531 66.7008 50.101 69.5051ZM63.5616 55.105C63.4481 55.0404 60.5389 53.386 60.7242 53.4914C62.827 49.7058 64.3994 45.0811 64.462 40.702C64.5861 40.6303 68.8457 38.1708 68.6973 38.2564C68.5094 43.5789 66.7066 49.5021 63.5616 55.105ZM68.7101 36.9414L67.9103 37.4033L64.4402 39.4071C64.1539 31.3136 57.7297 27.6631 49.9921 32.1295C46.4168 34.1936 43.0577 37.6722 40.4878 41.9588L37.6633 40.3494C40.758 35.138 45.2721 29.9668 50.5405 26.9257C60.8032 21.0036 68.533 25.8118 68.7101 36.9414ZM55.8277 21.1642L59.4683 23.2797C59.4288 23.2773 59.3879 23.2799 59.3483 23.2779C59.2808 23.2747 59.2115 23.2772 59.1436 23.275C56.0706 23.1775 52.9206 24.2907 50.2604 25.7825C50.1458 25.7159 43.3365 21.7581 43.7679 22.0088C48.3576 19.5999 52.6134 19.2964 55.8277 21.1642Z" fill="white"/>
<path d="M37.4426 25.0507C36.5239 25.8578 35.6156 26.7417 34.7423 27.6769C34.5289 27.9058 34.5416 28.264 34.7699 28.4774C34.9996 28.6908 35.3572 28.6776 35.5703 28.4497C36.4177 27.541 37.2994 26.6836 38.1899 25.9009C38.4248 25.6947 38.448 25.3371 38.2413 25.1021C38.0357 24.8678 37.678 24.844 37.4426 25.0507Z" fill="white"/>
<path d="M48.0375 45.0284C47.5284 44.7349 46.8657 44.7813 46.2195 45.1534C45.9348 45.3181 45.675 45.3629 45.5263 45.2788C45.3793 45.1943 45.2914 44.951 45.2903 44.6282C45.288 43.7023 45.9674 42.526 46.7739 42.0606C47.0575 41.8975 47.3156 41.8517 47.4615 41.9362C47.6086 42.0214 47.697 42.2646 47.6981 42.5879C47.6992 42.9003 47.9524 43.1523 48.2642 43.1523H48.2658C48.5787 43.1512 48.8313 42.8975 48.8302 42.5846C48.828 41.8417 48.535 41.248 48.0259 40.9551C47.7417 40.7919 47.4077 40.745 47.0569 40.7905V39.6831C47.0569 39.3703 46.8037 39.1171 46.4909 39.1171C46.178 39.1171 45.9248 39.3703 45.9248 39.6831V41.2755C44.9128 42.016 44.1551 43.4174 44.1582 44.6315C44.1604 45.3739 44.4534 45.9676 44.9614 46.26C45.4727 46.5546 46.1377 46.5093 46.7855 46.134C47.068 45.9709 47.325 45.9256 47.4732 46.0096C47.6202 46.0942 47.7086 46.3379 47.7097 46.6613C47.7125 47.5839 47.0354 48.7563 46.2311 49.2206C45.9453 49.3854 45.6849 49.4313 45.5368 49.3467C45.3909 49.2627 45.303 49.0211 45.3019 48.7016C45.3008 48.3893 45.0476 48.1372 44.7358 48.1372H44.7342C44.4213 48.1383 44.1687 48.392 44.1698 48.7049C44.172 49.444 44.4644 50.0354 44.9724 50.3278C45.1946 50.4561 45.4467 50.5197 45.7137 50.5197C45.7821 50.5197 45.8547 50.4964 45.9248 50.488V51.6136C45.9248 51.9265 46.178 52.1796 46.4909 52.1796C46.8037 52.1796 47.0569 51.9265 47.0569 51.6136V50.0218C48.0783 49.2871 48.8454 47.8776 48.8418 46.658C48.8396 45.9151 48.5466 45.3208 48.0375 45.0284Z" fill="white"/>
</svg>
