<svg width="93" height="92" viewBox="0 0 93 92" fill="none" xmlns="http://www.w3.org/2000/svg">
<rect x="0.5" width="92" height="92" rx="46" fill="black"/>
<path d="M37.3948 71.9591C43.3624 73.6307 50.4887 73.5891 56.451 71.7418C56.7495 71.6495 56.9164 71.3322 56.8236 71.0337C56.7307 70.7363 56.42 70.5683 56.1149 70.6606C50.4225 72.4251 43.536 72.5036 37.7132 70.8729C32.509 69.2819 26.3761 66.0404 26.3902 60.5764L26.3946 59.0215C27.1487 60.3393 28.3813 61.7501 30.3064 63.0876C38.3687 68.6931 52.8136 68.9646 61.4414 63.9588C61.4425 63.9582 61.4437 63.9572 61.4447 63.9566C63.4462 62.7937 65.4275 61.1515 66.5966 59.1331L66.5921 60.6914C66.5844 63.6581 64.5491 66.4723 60.8599 68.6159C60.589 68.7729 60.4973 69.1189 60.6543 69.3892C60.8113 69.6612 61.1584 69.7491 61.4281 69.5943C65.48 67.2406 67.7154 64.0799 67.7242 60.6947C67.7286 59.2763 67.7375 56.4395 67.7419 55.0211C67.7324 48.6293 60.3027 44.6406 53.7464 43.234C57.2783 39.304 59.5384 33.968 59.5277 29.4267C59.5277 29.4261 59.5277 29.4272 59.5277 29.4267C59.5171 26.3092 58.3987 23.9028 56.4883 22.7513C56.315 22.5881 56.9924 23.0345 51.0526 19.5779C49.024 18.3817 46.3508 18.6216 43.504 20.2634C41.1459 21.7254 39.2698 23.512 37.6015 25.8862C35.0156 29.5532 33.4789 33.9461 33.49 37.6375C33.5001 40.5385 34.4339 42.7745 36.1177 44.0333C30.8321 45.7587 25.2877 49.5245 25.275 54.9341C25.275 54.9346 25.2747 54.9349 25.2747 54.9354C25.2744 55.0516 25.2578 60.6893 25.2581 60.5731C25.2426 66.5955 31.5604 70.1761 37.3948 71.9591ZM37.862 65.2531C32.667 63.8262 26.3908 60.35 26.4068 54.9387C26.4068 54.9385 26.4068 54.9389 26.4068 54.9387C26.4073 54.7188 26.439 54.5011 26.4617 54.2831L38.0172 54.4429L37.862 65.2531ZM64.8445 50.3966C67.0554 53.1921 67.25 56.4908 64.9946 59.4725L57.3343 54.7049V50.3966H64.8445ZM48.5432 66.3459C48.5167 66.3473 48.4901 66.3484 48.4635 66.3498V61.9489L53.7739 65.6317C52.2667 65.9633 50.3106 66.2436 48.5432 66.3459ZM63.8071 49.2645H56.7683C56.4554 49.2645 56.2022 49.5177 56.2022 49.8305V55.0194C56.2022 55.2151 56.3029 55.3964 56.4687 55.4998L64.2645 60.3512C63.3712 61.301 62.2373 62.1866 60.8732 62.9799C59.1917 63.9557 57.2747 64.7092 55.235 65.2676L48.2202 60.4028C48.0456 60.2818 47.82 60.2691 47.6354 60.3664C47.4486 60.4636 47.3314 60.6571 47.3314 60.8677V66.3806C44.5035 66.4405 41.6572 66.1717 38.99 65.5518L39.157 53.8929C39.1592 53.7425 39.1017 53.5977 38.9967 53.4899C38.8917 53.3821 38.7491 53.3207 38.5987 53.3185L26.6781 53.1538C26.9178 52.3068 27.3054 51.4796 27.8724 50.6904C29.3474 50.8668 30.8019 50.7997 32.2883 50.422C33.4841 50.1054 34.3063 49.4848 34.3368 48.0396C34.3508 47.4146 34.1778 46.6687 33.9898 46.0717C35.0476 45.591 36.1738 45.1677 37.376 44.8224L40.4117 46.5836L43.3669 54.099C43.4133 54.2173 43.4985 54.3168 43.609 54.381C43.9428 54.5751 49.2468 57.6604 48.941 57.4826C49.2473 57.6606 49.6821 57.4787 49.7724 57.1393L53.2129 44.2586C57.0193 45.0349 61.0155 46.5858 63.8071 49.2645ZM32.9649 46.5709C33.086 47.0556 33.2155 47.5369 33.2048 48.0152C33.1853 48.9064 32.7378 49.1325 32.0041 49.3259C30.9627 49.5901 29.855 49.6973 28.7516 49.6376C29.7148 48.6069 31.1811 47.4833 32.9649 46.5709ZM42.027 47.5216C42.9038 48.012 43.9634 48.2691 45.1734 48.2109L48.1044 55.6867L44.3475 53.5015L41.9905 47.5056C42.0027 47.5111 42.0148 47.5166 42.027 47.5216ZM58.3956 29.43C58.4056 33.9008 56.0729 39.2251 52.4511 42.9933C52.3837 43.0635 52.3362 43.1492 52.3118 43.2426L49.1235 55.1823L46.0733 47.4022C46.0051 47.2294 45.8266 47.061 45.5706 47.0505C45.5617 47.0501 45.5548 47.0429 45.5459 47.0429C41.9554 47.0429 39.9541 45.2464 39.9541 40.7231C39.9321 36.1907 42.5967 29.8783 47.076 26.0255C52.4779 21.2574 58.3701 22.1712 58.3956 29.43ZM34.6221 37.6336C34.6121 34.1683 36.0714 30.0209 38.5268 26.5379C40.1056 24.2925 41.8766 22.6044 44.0855 21.2346C46.0662 20.0926 48.5217 19.3995 50.4822 20.5552L52.911 21.9609C50.5571 22.1674 48.1053 23.5809 46.332 25.172C42.3104 28.6229 38.7951 35.1165 38.822 40.7258C38.822 42.3813 39.1699 43.835 39.6191 44.813L37.1924 43.4057C35.5452 42.4494 34.632 40.3992 34.6221 37.6336Z" fill="white"/>
<path d="M59.3663 69.4008C58.8721 69.6363 58.3625 69.8552 57.8407 70.0586C57.5499 70.172 57.4051 70.5003 57.519 70.7916C57.6341 71.0867 57.9658 71.2259 58.2519 71.1133C58.8003 70.9 59.3343 70.67 59.8528 70.4235C60.1347 70.2891 60.2552 69.9514 60.1203 69.6689C59.9865 69.3859 59.646 69.2676 59.3663 69.4008Z" fill="white"/>
<path d="M48.8924 27.7108C45.4132 29.7196 42.593 34.5945 42.6041 38.5778C42.6155 42.7936 45.7825 44.6303 49.4982 42.4842C52.9519 40.4904 55.7523 35.6276 55.7401 31.6438C55.7287 27.4071 52.5688 25.5901 48.8924 27.7108ZM48.9322 41.5036C45.9898 43.2045 43.7453 41.9306 43.7361 38.5745C43.7262 34.9527 46.2922 30.5195 49.4584 28.6915C52.3729 27.0087 54.5989 28.2835 54.608 31.6471C54.618 35.2081 52.0189 39.7215 48.9322 41.5036Z" fill="white"/>
<path d="M50.2754 34.5282C49.8807 34.3015 49.3755 34.3303 48.8913 34.61C48.7365 34.6995 48.6459 34.6973 48.6348 34.6935C48.6226 34.6835 48.5773 34.61 48.5773 34.4359C48.5762 33.9013 48.983 33.196 49.4496 32.9268C49.6077 32.8356 49.6884 32.8389 49.7028 32.845C49.7138 32.8549 49.7602 32.9285 49.7602 33.1026C49.7613 33.4149 50.0145 33.667 50.3263 33.667C50.3263 33.667 50.3274 33.667 50.3285 33.667C50.6403 33.6658 50.8934 33.4116 50.8923 33.0993C50.8901 32.5421 50.6635 32.0921 50.2688 31.8644C50.1057 31.7715 49.9225 31.7325 49.7326 31.7252V31.2021C49.7326 30.8893 49.4794 30.6361 49.1666 30.6361C48.8537 30.6361 48.6005 30.8893 48.6005 31.2021V32.1723C47.9294 32.7084 47.4423 33.6104 47.4452 34.4392C47.4474 34.9969 47.6741 35.4463 48.0688 35.6735C48.4645 35.9013 48.9731 35.8697 49.4573 35.5906C49.6154 35.4994 49.6983 35.5033 49.7094 35.5088C49.7215 35.5187 49.768 35.5923 49.768 35.7669C49.7691 36.2998 49.3634 37.0024 48.8979 37.271C48.7454 37.3589 48.6547 37.3584 48.6414 37.3539C48.6293 37.344 48.585 37.2716 48.585 37.1008C48.585 36.7885 48.3308 36.5358 48.019 36.5358C47.7061 36.5364 47.453 36.7901 47.453 37.103C47.4541 37.658 47.6807 38.1068 48.0754 38.334C48.2345 38.4261 48.4133 38.4702 48.6005 38.4788V39.0051C48.6005 39.3179 48.8537 39.5711 49.1666 39.5711C49.4794 39.5711 49.7326 39.3179 49.7326 39.0051V38.0351C50.4021 37.5028 50.903 36.5821 50.9001 35.7636C50.8978 35.2059 50.6712 34.7559 50.2754 34.5282Z" fill="white"/>
</svg>
