<svg width="93" height="92" viewBox="0 0 93 92" fill="none" xmlns="http://www.w3.org/2000/svg">
<rect x="0.5" width="92" height="92" rx="46" fill="black"/>
<path d="M22.1747 58.6207C22.1758 58.9324 22.429 59.185 22.7408 59.185C23.0536 59.1845 23.3079 58.9302 23.3068 58.6173L23.3035 57.4808L30.3168 61.5557L30.3422 71.6184L23.33 67.5435L23.319 63.1456C23.3178 62.8339 23.0647 62.5813 22.7529 62.5813C22.44 62.5818 22.1858 62.8361 22.1869 63.149L22.199 67.8713C22.199 68.0719 22.3063 68.2582 22.481 68.3588C22.5951 68.4252 30.7414 73.159 30.6281 73.0932C30.6278 73.093 30.6284 73.0933 30.6281 73.0932C30.8018 73.1943 31.0187 73.1947 31.1937 73.0939L39.4289 68.3389C39.6047 68.2372 39.7119 68.0498 39.7119 67.847L39.6945 60.9265L46.1838 64.7017C46.3565 64.8034 46.5744 64.8045 46.7509 64.7028C46.7559 64.7 46.7578 64.694 46.7627 64.691L54.9861 59.9434C55.1619 59.8417 55.2702 59.6543 55.2691 59.4515L55.2465 51.3422L61.7498 55.1244C61.9225 55.226 62.1404 55.2272 62.317 55.1255C62.3177 55.1251 62.318 55.1241 62.3188 55.1237C62.3192 55.1234 62.3198 55.1235 62.3203 55.1233L70.5477 50.3728C70.7235 50.271 70.8318 50.0837 70.8307 49.8808L70.7578 24.1283C70.7572 24.0149 70.6594 23.7472 70.4759 23.6407L70.4746 23.64C70.4742 23.6398 70.4741 23.6393 70.4737 23.6391C70.4733 23.6389 70.4728 23.6389 70.4725 23.6387L62.3302 18.9068C62.1578 18.8051 61.94 18.8051 61.7631 18.9057L53.5345 23.6562C53.5339 23.6566 53.5337 23.6573 53.5331 23.6577C53.5329 23.6578 53.5333 23.6575 53.5331 23.6577C53.3573 23.7594 53.2482 23.947 53.2493 24.1498L53.2915 37.4371L49.9791 35.5123C51.2718 33.341 52.0793 30.8699 52.073 28.65C52.0675 26.4549 51.2892 24.7999 49.8818 23.9901C49.7686 23.9249 46.9977 22.35 47.1124 22.4163C45.6962 21.5911 43.8522 21.7514 41.9263 22.8658C38.1863 25.0249 35.1516 30.2779 35.1604 34.5757C35.1704 36.7685 35.9431 38.4252 37.345 39.2433L37.6952 39.4425L37.737 55.0189L31.2556 51.2522C31.0832 51.1505 30.8654 51.1505 30.6885 51.2511L22.4522 56.0055C22.2501 56.1225 22.1692 56.3646 22.1692 56.4952C22.1692 56.4957 22.1695 56.4959 22.1695 56.4964C22.1695 56.4968 22.1692 56.497 22.1692 56.4975L22.1747 58.6207ZM31.4745 71.6246L31.4491 61.556L38.5533 57.4546L38.5788 67.5225L31.4745 71.6246ZM47.0312 63.2282L46.9785 43.9611L54.0782 39.8628C54.0895 43.6343 54.0487 30.0289 54.1359 59.127L47.0312 63.2282ZM62.6 53.654C62.5931 51.1455 62.6247 62.7243 62.5334 29.2056C62.7353 29.089 70.0524 24.8645 69.629 25.1089L69.6976 49.5563L62.6 53.654ZM62.045 20.0499L69.0627 24.1281L61.9662 28.2256C61.8526 28.1596 54.477 23.8749 54.9474 24.1482L62.045 20.0499ZM54.3847 25.1332C54.4981 25.1991 61.866 29.4774 61.3992 29.2064C61.406 31.7067 61.3745 20.1508 61.4657 53.6496L55.2428 50.0309L55.2116 38.8801C55.2106 38.6851 55.1031 38.4894 54.9253 38.3865L54.4256 38.0961L54.3847 25.1332ZM49.381 36.4739L53.5135 38.8762L46.4128 42.9772L43.3316 41.1879C43.3759 41.1773 43.422 41.1556 43.4665 41.1438C45.8133 40.52 47.969 38.4989 49.381 36.4739ZM50.9409 28.6533C50.9477 30.8476 50.0884 33.3115 48.7356 35.4072C48.7349 35.4083 48.7339 35.4088 48.7332 35.4098C45.2215 40.8136 39.0907 42.4269 39.0751 36.1544C39.0677 33.7392 40.1147 30.996 41.7155 28.7778C42.6184 27.5269 43.6833 26.4939 44.638 25.8308C44.6385 25.8304 44.6391 25.8302 44.6396 25.8298C48.0725 23.4463 50.9309 24.6525 50.9409 28.6533ZM36.2925 34.5723C36.2836 30.6366 39.0652 25.8247 42.4924 23.8458C43.7445 23.1214 45.3049 22.6731 46.5486 23.3975L46.8792 23.5855C46.8687 23.5876 46.8575 23.593 46.8469 23.5952C44.287 24.1385 42.0004 26.3449 40.5253 28.5357C38.9493 30.8755 37.9346 33.6742 37.9398 36.1571C37.942 36.8309 38.0592 37.7554 38.2892 38.4433C38.2935 38.4559 38.2948 38.4712 38.2991 38.4838L37.9099 38.2626C36.8751 37.6579 36.3002 36.3467 36.2925 34.5723ZM38.8286 40.0912C40.4666 40.9631 40.2007 40.998 41.1388 41.2241L45.8442 43.9565L45.899 63.2265L39.6965 59.6184L39.6865 56.4787C39.6854 56.2782 39.5733 56.0856 39.4013 55.9861L38.8706 55.6778L38.8286 40.0912ZM30.9704 52.3953L37.9881 56.4735L30.8827 60.5756L23.8651 56.4975L30.9704 52.3953Z" fill="white"/>
<path d="M22.7506 61.9975C23.0624 61.9964 23.3156 61.7422 23.3145 61.4298L23.3112 60.4216C23.3089 60.1076 23.0945 59.8561 22.7429 59.8572C22.4311 59.8583 22.178 60.1126 22.1791 60.4249L22.1824 61.4332C22.1835 61.7455 22.4367 61.9975 22.7484 61.9975H22.7506Z" fill="white"/>
<path d="M44.7267 31.9157C44.5487 32.0174 44.4393 32.018 44.4116 32.0036C44.3862 31.9887 44.3331 31.8942 44.332 31.6957C44.3309 31.112 44.7754 30.342 45.285 30.0479C45.4564 29.9484 45.5669 29.9456 45.5957 29.9611C45.6211 29.976 45.6742 30.0711 45.6753 30.2701C45.6764 30.5819 45.9295 30.8345 46.2413 30.8345C46.5542 30.8334 46.8084 30.5797 46.8073 30.2668C46.8062 29.6847 46.5696 29.216 46.1606 28.9799C45.9818 28.8773 45.779 28.8351 45.568 28.8331V28.2381C45.568 27.9253 45.3149 27.6721 45.002 27.6721C44.6891 27.6721 44.436 27.9253 44.436 28.2381V29.295C43.7276 29.8582 43.198 30.833 43.2 31.699C43.2023 32.9145 44.2228 33.5127 45.2927 32.8963C45.4674 32.7952 45.5791 32.7924 45.6034 32.8101C45.6299 32.825 45.6841 32.9201 45.6841 33.1185C45.6852 33.7001 45.2419 34.4673 44.7344 34.7603C44.5565 34.862 44.4459 34.8625 44.4194 34.8482C44.3939 34.8338 44.3409 34.7404 44.3409 34.5441C44.3398 34.2324 44.0866 33.9798 43.7748 33.9798C43.462 33.9809 43.2077 34.2346 43.2088 34.5475C43.2099 35.1268 43.4454 35.5944 43.8544 35.8293C44.0308 35.9308 44.2282 35.9804 44.436 35.9837V36.5811C44.436 36.894 44.6891 37.1471 45.002 37.1471C45.3149 37.1471 45.568 36.894 45.568 36.5811V35.5255C46.2825 34.9656 46.8192 33.985 46.8162 33.1152C46.8139 31.8943 45.7854 31.3039 44.7267 31.9157Z" fill="white"/>
</svg>
