<svg width="93" height="92" viewBox="0 0 93 92" fill="none" xmlns="http://www.w3.org/2000/svg">
<rect x="0.5" width="92" height="92" rx="46" fill="black"/>
<path d="M29.0498 67.5994L36.3292 71.7971C36.3481 71.8079 36.3692 71.8046 36.3887 71.813C36.3952 71.8168 36.4006 71.8221 36.4072 71.8259C40.7946 74.3516 46.1051 73.0113 50.4951 70.4771C61.163 64.3181 69.8133 49.3297 69.778 37.066C69.7608 31.0264 67.6752 26.5053 63.9048 24.3356C54.0331 18.6559 57.434 20.6211 56.6972 20.1982C53.0456 18.0694 48.2232 18.421 43.1217 21.1882C42.847 21.3374 42.7447 21.6807 42.8939 21.9554C43.0426 22.2301 43.387 22.3324 43.6612 22.1832C48.4018 19.6117 52.8294 19.2535 56.1289 21.1777L59.315 23.0151C56.4185 22.853 53.1715 23.745 49.8047 25.6883C43.5931 29.2745 38.0807 35.8597 34.5551 43.1508C32.0227 48.3682 30.4995 53.9468 30.5014 59.0602C30.5108 62.8992 31.351 66.1262 32.9253 68.5275L29.6175 66.6199C26.2246 64.6454 24.3557 60.4692 24.354 54.8608C24.3413 45.6201 29.461 34.4608 37.0943 27.0923C37.3192 26.8751 37.3259 26.5169 37.1086 26.2919C36.892 26.0675 36.5338 26.0608 36.3082 26.2775C28.4677 33.8461 23.2087 45.3332 23.2219 54.8613C23.2236 60.8893 25.2926 65.4126 29.0498 67.5994ZM68.6459 37.0693C68.6802 48.9716 60.2836 63.5183 49.9291 69.4965C39.7823 75.3557 31.6949 70.7651 31.6616 59.0729C31.6476 54.1204 33.11 48.7144 35.5515 43.654C38.9865 36.5626 44.3577 30.1589 50.4033 26.6822C60.5644 20.851 68.6126 25.4299 68.6459 37.0693Z" fill="white"/>
<path d="M40.5242 22.7945C39.8443 23.2666 39.1622 23.7823 38.4972 24.3273C38.2556 24.5252 38.2197 24.8823 38.4182 25.1239C38.6159 25.3657 38.9733 25.4011 39.2147 25.2029C39.8565 24.6773 40.5143 24.1798 41.1699 23.7243C41.4269 23.5457 41.4905 23.1931 41.3119 22.9366C41.1334 22.6795 40.7813 22.616 40.5242 22.7945Z" fill="white"/>
<path d="M62.0564 39.4743C61.6794 36.7553 60.482 34.6742 58.6186 33.5725C56.7622 32.4756 54.3798 32.4282 51.8422 33.3987L51.8339 30.4664C51.8333 30.2647 51.725 30.0784 51.5503 29.9778C51.3751 29.8761 51.1601 29.8772 50.9848 29.9778L48.6593 31.3199C48.4836 31.4216 48.3758 31.609 48.3763 31.8119L48.3862 35.308C42.9274 39.2071 38.6888 46.6556 38.1668 53.2667L34.8998 55.1526C34.724 55.2544 34.6162 55.4417 34.6167 55.6446L34.6245 58.3068C34.625 58.5085 34.7334 58.6948 34.908 58.796C35.0802 58.8951 35.2964 58.8974 35.4735 58.7954L38.3396 57.1405C39.2921 62.2661 43.2743 64.6658 48.4637 62.671L48.4736 66.1992C48.4742 66.401 48.5825 66.5873 48.7572 66.6884C48.9293 66.7876 49.1455 66.7899 49.3227 66.6879L51.6482 65.3452C51.8239 65.2435 51.9317 65.0561 51.9312 64.8532L51.9197 60.7813C57.2217 56.9871 61.3461 49.9424 62.0723 43.4382L65.4077 41.5125C65.5835 41.4108 65.6913 41.2234 65.6908 41.0205L65.6836 38.3589C65.683 38.1571 65.5747 37.9709 65.4 37.8703C65.2248 37.768 65.0086 37.7702 64.8345 37.8703L62.0564 39.4743ZM50.7046 31.4465L50.7212 37.4023C50.6079 37.4677 49.4128 38.1579 49.5261 38.0925C49.5255 37.8903 49.5084 31.7371 49.5095 32.1364L50.7046 31.4465ZM35.7499 55.9691L40.9471 52.9692L40.9504 54.3257C40.7727 54.4283 35.4675 57.4914 35.7538 57.3261L35.7499 55.9691ZM49.6029 65.2186L49.5863 59.2631L50.7814 58.5732L50.798 64.5287L49.6029 65.2186ZM51.9196 59.3742L51.9129 57.5931C51.9124 57.3919 51.8046 57.2056 51.6299 57.105L51.6284 57.1046L51.6272 57.1034C51.5451 57.0563 51.4536 57.0359 51.3622 57.033C51.357 57.0328 51.3524 57.029 51.3473 57.029C51.2484 57.0286 51.1497 57.0531 51.0617 57.1039L50.5926 57.3748L48.7334 58.4394C48.5565 58.5411 48.4482 58.7296 48.4487 58.933L48.4587 61.4625C43.7181 63.4981 40.0835 61.4519 39.3757 56.5422C39.4892 56.4768 41.9597 55.0519 41.8033 55.1421C41.9796 55.041 42.088 54.8525 42.0869 54.6496L42.0782 52.6547L42.0764 51.9886C42.0758 51.7868 41.9675 51.6005 41.7928 51.4999C41.6176 51.3977 41.4014 51.3999 41.2273 51.4999C41.1125 51.5662 39.2479 52.6422 39.3661 52.574C40.0857 46.7404 43.7082 40.372 48.3901 36.7085C48.3902 36.8231 48.3925 39.2266 48.3923 39.0747C48.3923 39.2771 48.5001 39.4639 48.6754 39.5651C48.8511 39.6657 49.0667 39.6657 49.2414 39.5651C49.3548 39.4995 51.7222 38.1319 51.5713 38.2191L51.5722 38.2182L51.5735 38.2174C51.7493 38.1157 51.8571 37.9283 51.8566 37.7254L51.8461 34.6078C54.2097 33.6012 56.3998 33.5769 58.0421 34.547C59.7074 35.5316 60.7518 37.5032 61.0006 40.0838L58.507 41.5235L58.5046 41.5259L58.502 41.5274C58.3262 41.6291 58.2179 41.817 58.219 42.0199L58.23 44.6804C58.2311 44.8822 58.3389 45.0684 58.5136 45.169C58.6894 45.2696 58.9038 45.2691 59.0785 45.1685L60.8402 44.1536C59.9425 49.7725 56.371 55.8674 51.9196 59.3742ZM59.3604 43.6965L59.3571 42.3409C59.4719 42.2746 64.669 39.2732 64.5543 39.3395L64.5576 40.696L59.3604 43.6965Z" fill="white"/>
<path d="M49.8732 47.5415C49.2336 47.9091 48.8784 47.7053 48.876 46.9777C48.8733 46.0093 49.5836 44.7793 50.4277 44.2923C51.0567 43.9284 51.417 44.1289 51.4193 44.8589C51.4204 45.1707 51.6736 45.4233 51.9854 45.4233C52.3402 45.4305 52.552 45.169 52.5514 44.8556C52.5481 43.7158 51.8663 42.8527 50.7107 43.0177V41.8425C50.7107 41.5296 50.4575 41.2764 50.1446 41.2764C49.8318 41.2764 49.5786 41.5296 49.5786 41.8425V43.507C48.5279 44.27 47.7404 45.7231 47.744 46.981C47.7486 48.5851 49.0445 49.3261 50.4393 48.5222C51.0649 48.1592 51.4291 48.3551 51.4315 49.0882C51.4343 50.0533 50.7262 51.2794 49.8854 51.7647C49.2574 52.1268 48.8906 51.9409 48.8882 51.207C48.8871 50.8952 48.6339 50.6426 48.3222 50.6426H48.3205C48.0082 50.6437 47.755 50.8974 47.7561 51.2103C47.7593 52.3063 48.4002 53.1923 49.5786 53.0364V54.2306C49.5786 54.5435 49.8318 54.7967 50.1446 54.7967C50.4575 54.7967 50.7107 54.5435 50.7107 54.2306V52.5663C51.7703 51.8095 52.5672 50.3489 52.5636 49.0849C52.5589 47.4839 51.2646 46.7375 49.8732 47.5415Z" fill="white"/>
</svg>
