<svg width="93" height="92" viewBox="0 0 93 92" fill="none" xmlns="http://www.w3.org/2000/svg">
<rect x="0.5" width="92" height="92" rx="46" fill="black"/>
<path d="M59.5472 32.465C59.6976 32.3782 59.7998 32.2267 59.8242 32.0548C59.8485 31.8823 59.7921 31.7088 59.6722 31.5833C50.8306 22.393 50.3404 21.8379 50.2082 21.7611L45.2951 18.9082C44.9972 18.7392 44.6307 18.8644 44.4953 19.1647L35.2574 39.6211C35.138 39.8859 35.238 40.1982 35.489 40.3442L40.2124 43.0866L40.2566 60.098C40.2572 60.2992 40.3644 60.4849 40.5385 60.5861C40.6532 60.6526 45.5677 63.5059 45.4531 63.4394C45.453 63.4393 45.4531 63.4394 45.4531 63.4394C45.6261 63.5401 45.843 63.5407 46.0187 63.4395L53.0387 59.3904L55.8133 60.9692L55.8151 60.966C55.8195 60.9686 55.8232 60.9721 55.8276 60.9747C57.7472 62.0805 60.0472 61.5251 61.9601 60.4208C66.4403 57.8344 70.0731 51.5345 70.0582 46.3771C70.051 43.7789 69.1369 41.8225 67.4855 40.8638C66.5314 40.3212 63.9836 38.8719 64.1297 38.955C62.457 37.9811 60.2758 38.1734 57.9868 39.4973C56.8771 40.138 55.82 41.0071 54.8564 42.0286L54.8387 35.1885L59.5472 32.465ZM45.2686 20.2023L49.1977 22.4836C48.3893 24.2736 41.5017 39.5246 40.4279 41.9023L36.4994 39.6217L45.2686 20.2023ZM41.3445 42.977L45.1044 40.8007L45.1667 61.9641L41.3876 59.7702L41.3445 42.977ZM46.299 61.9708L46.2337 39.819C46.2325 39.3777 45.7536 39.1164 45.3841 39.3309L41.9294 41.3302C43.9466 36.863 48.6876 26.3641 50.0954 23.2464L58.3555 31.8464L53.988 34.3726C53.8128 34.4737 53.705 34.6611 53.7055 34.864L53.7277 43.338C51.5647 46.1149 49.8715 50.0813 49.8793 53.5289C49.8793 53.5295 49.8793 53.5302 49.8793 53.5309C49.8793 53.5315 49.8793 53.5321 49.8793 53.5327C49.8878 55.4435 50.4403 57.5304 51.9444 58.7144L46.299 61.9708ZM68.9261 46.3804C68.9399 51.1757 65.5608 57.0345 61.394 59.4402C59.4737 60.549 57.6977 60.7442 56.392 59.9935C54.8618 59.1127 54.3754 57.1945 54.3705 55.4343C54.3633 52.9392 55.2841 50.1577 56.7531 47.7219C58.5259 44.7835 61.9479 41.3088 65.2365 41.388C67.8124 41.4513 68.9188 43.7694 68.9261 46.3804ZM58.5533 40.4774C60.0994 39.5835 62.023 39.0373 63.5653 39.9362L64.2447 40.3226C60.7741 40.864 57.5427 44.1561 55.6664 47.3599C54.163 49.9261 53.2293 52.8281 53.2351 55.4376C53.2402 56.6187 53.4777 57.7649 53.773 58.506C53.6595 58.4414 52.9094 58.0141 53.0229 58.0787C51.7357 57.3283 51.0216 55.7108 51.0114 53.5264C50.9955 48.7778 54.3992 42.8761 58.5533 40.4774Z" fill="white"/>
<path d="M22.9853 69.7499C22.9859 69.9511 23.0931 70.1369 23.2672 70.2375C23.3011 70.2572 22.796 69.9636 28.1797 73.0925C28.3519 73.1917 28.568 73.194 28.7452 73.092L37.3436 68.1276C37.5193 68.0258 37.6271 67.8384 37.6266 67.6356L37.5835 52.2713C37.5829 52.108 37.4133 51.8483 37.3021 51.7838L37.3008 51.783L37.2999 51.7821L37.2987 51.7818L32.3913 48.9298C32.2149 48.827 31.9988 48.8281 31.8236 48.9287L23.2247 53.8931C23.0248 54.0089 22.9419 54.2689 22.9417 54.3829L22.9419 54.384L22.9417 54.3851L22.9853 69.7499ZM24.0765 55.3686L27.8534 57.5636L27.8933 71.6166L24.1163 69.4221L24.0765 55.3686ZM29.0255 71.6227L28.9857 57.5637C29.1922 57.4444 36.9089 52.9894 36.4541 53.2519L36.4934 67.3111L29.0255 71.6227ZM32.1055 50.0729L35.888 52.2713L28.4193 56.5832C28.3047 56.5166 24.5224 54.3185 24.637 54.3851L32.1055 50.0729Z" fill="white"/>
<path d="M61.3675 50.4201C60.9454 50.6632 60.7171 50.5886 60.7158 50.0536C60.7136 49.2996 61.2669 48.3422 61.9236 47.963C62.3549 47.7153 62.5703 47.813 62.5715 48.3317C62.5726 48.644 62.8258 48.8961 63.1375 48.8961C63.1381 48.8961 63.1386 48.8961 63.1392 48.8961C63.452 48.895 63.7047 48.6413 63.7036 48.3284C63.7011 47.3582 63.1127 46.6468 62.2066 46.7086V45.8796C62.2066 45.5668 61.9535 45.3136 61.6406 45.3136C61.3277 45.3136 61.0746 45.5668 61.0746 45.8796V47.1778C60.2169 47.8259 59.5808 49.0212 59.5838 50.0569C59.5872 51.437 60.7241 52.0971 61.9336 51.4007C62.3563 51.1565 62.5796 51.2417 62.5809 51.7694C62.5831 52.5079 62.0204 53.4813 61.3769 53.8528C60.9459 54.101 60.727 54.0115 60.7258 53.4919C60.7252 53.1795 60.4721 52.9269 60.1597 52.9269C59.8469 52.9275 59.5931 53.1817 59.5937 53.4941C59.5963 54.524 60.222 55.1137 60.9839 55.1137C61.0134 55.1137 61.0448 55.1019 61.0746 55.1002V55.9489C61.0746 56.2618 61.3277 56.515 61.6406 56.515C61.9535 56.515 62.2066 56.2618 62.2066 55.9489V54.6516C63.0717 54.0086 63.716 52.8072 63.713 51.7661C63.7095 50.3836 62.5713 49.7271 61.3675 50.4201Z" fill="white"/>
</svg>
