<svg width="93" height="92" viewBox="0 0 93 92" fill="none" xmlns="http://www.w3.org/2000/svg">
<rect x="0.5" width="92" height="92" rx="46" fill="black"/>
<path d="M38.1054 25.6403L40.0506 24.5171C40.3214 24.3607 40.4143 24.0146 40.2578 23.7438C40.1009 23.4718 39.7532 23.3801 39.4845 23.5365L37.5393 24.6597C37.2685 24.8162 37.1756 25.1622 37.332 25.4331C37.4889 25.7046 37.836 25.796 38.1054 25.6403Z" fill="white"/>
<path d="M22.787 69.4795C22.7875 69.6852 22.8997 69.8748 23.0799 69.9737L28.7596 73.0996C28.8448 73.1466 28.9387 73.1698 29.0327 73.1698C29.1306 73.1698 29.2295 73.1444 29.3168 73.0941L45.4679 63.7685C45.9148 65.3301 47.151 66.7555 49.0812 67.8699C53.911 70.6582 61.7453 70.6619 66.5482 67.871C68.9644 66.4669 70.2987 64.567 70.3043 62.5218C70.3102 55.2053 70.2948 58.8048 70.3137 51.297C70.3137 51.2922 70.3148 51.2876 70.3148 51.2828C70.3073 45.689 61.5127 42.8032 54.0956 44.1139L54.0302 22.7142C54.0304 22.7084 54.0346 22.7037 54.0346 22.6979C54.0351 22.4962 53.9273 22.3093 53.7532 22.2082L48.0729 18.907C47.8966 18.8042 47.6805 18.8053 47.5052 18.9059L41.6016 22.3143C41.3308 22.4708 41.2379 22.8168 41.3943 23.0876C41.5502 23.3591 41.8968 23.4503 42.1677 23.2949L47.7871 20.0502L52.3392 22.6957L28.9327 36.2098C28.8181 36.1432 24.266 33.4977 24.3806 33.5643L36.1784 26.7531C36.4492 26.5966 36.5421 26.2506 36.3857 25.9797C36.2287 25.7078 35.8815 25.616 35.6124 25.7725L22.9683 33.0724C22.7684 33.1881 22.6855 33.4481 22.6852 33.5621C22.6852 33.5625 22.6855 33.5628 22.6855 33.5632C22.6855 33.5636 22.6852 33.5639 22.6852 33.5643L22.787 69.4795ZM23.9179 69.1429L23.8201 34.5478L28.3664 37.19C28.3914 46.0248 28.44 63.2035 28.4639 71.6447L23.9179 69.1429ZM69.1739 58.1814L69.1722 58.7779C69.1678 60.4041 68.0335 61.9574 65.9788 63.1514C61.4901 65.7601 54.1712 65.7541 49.6577 63.1481C47.5616 61.9381 46.4096 60.3627 46.4141 58.7126C46.4145 58.5943 46.4072 58.246 46.4052 58.119C46.4098 58.125 46.4157 58.1305 46.4203 58.1365C47.0594 58.9706 47.9463 59.7362 49.0812 60.3914C53.0578 62.6872 58.9802 63.0659 63.5751 61.6648C65.6834 61.0233 67.8637 59.8832 69.1739 58.1814ZM69.1722 62.5185C69.1678 64.1453 68.0335 65.6986 65.9788 66.8926C61.4931 69.4994 54.1661 69.4983 49.6472 66.8892C45.874 64.7111 46.4602 62.0434 46.4052 61.8601C47.1026 62.776 48.0921 63.5576 49.0812 64.1287C54.0013 66.9691 61.8601 66.8598 66.5592 64.1298C67.7416 63.4426 68.6512 62.6014 69.1739 61.9226L69.1722 62.5185ZM69.1739 54.4447L69.1722 55.0406C69.1654 57.557 66.5699 59.3513 64.1802 60.267C59.7101 61.9748 53.6102 61.6886 49.6577 59.4075C47.5616 58.1969 46.4096 56.6215 46.4141 54.9715C46.4145 54.8537 46.4072 54.5076 46.4052 54.3817C47.2767 55.5256 48.8278 56.7481 51.1891 57.6193C55.8634 59.344 62.3203 59.115 66.5592 56.6514C66.581 56.6387 66.5992 56.6245 66.6207 56.6118C67.7745 55.9319 68.6565 55.1165 69.1739 54.4447ZM62.4273 45.4749C65.385 46.1905 69.1786 48.2389 69.1827 51.2845C69.1863 53.1672 67.6394 54.7139 65.9899 55.673C62.0184 57.9812 55.9062 58.2173 51.4727 56.5265C49.0841 55.6156 46.4132 53.7825 46.4147 51.2417C46.4159 49.6132 47.547 48.0589 49.6027 46.8641C53.2243 44.7884 58.3327 44.4375 62.4273 45.4749ZM45.2792 51.2414V51.424L32.079 59.0377C31.8082 59.1941 31.7153 59.5401 31.8717 59.811C32.0265 60.0782 32.3703 60.176 32.6451 60.0183L45.2757 52.7331C45.2756 52.8494 45.2681 58.5735 45.2695 58.1702L32.079 65.7854C31.8082 65.9418 31.7153 66.2878 31.8717 66.5587C32.0286 66.8303 32.3757 66.9216 32.6451 66.766L45.2778 59.4728L45.2676 62.4488C45.2676 62.4908 45.2682 62.5328 45.2698 62.5754L29.5971 71.6248L29.4987 37.1905L52.9008 23.6802L52.9644 44.3306C49.3596 45.2485 45.2792 47.5209 45.2792 51.2414Z" fill="white"/>
<path d="M49.8562 28.5302L42.2976 32.8943C42.0267 33.0508 41.9338 33.3968 42.0903 33.6677C42.2471 33.9392 42.5942 34.0306 42.8636 33.875L50.4222 29.5108C50.693 29.3544 50.7859 29.0084 50.6295 28.7375C50.4725 28.4661 50.1259 28.3732 49.8562 28.5302Z" fill="white"/>
<path d="M49.8562 35.2796L44.4351 38.4094C44.1643 38.5658 44.0714 38.9119 44.2278 39.1827C44.3847 39.4543 44.7318 39.5456 45.0012 39.39L50.4222 36.2602C50.6931 36.1038 50.7859 35.7577 50.6295 35.4869C50.4725 35.2149 50.1259 35.1232 49.8562 35.2796Z" fill="white"/>
<path d="M49.8561 42.0284L32.079 52.2917C31.8082 52.4481 31.7153 52.7942 31.8717 53.065C32.0286 53.3366 32.3757 53.4279 32.6451 53.2723L50.4222 43.009C50.693 42.8526 50.7859 42.5065 50.6295 42.2357C50.4725 41.9643 50.1259 41.8714 49.8561 42.0284Z" fill="white"/>
<path d="M37.2469 46.9303C40.6891 44.9423 42.8946 39.7136 41.6304 36.7881C40.8566 34.9946 38.9043 34.375 36.661 35.6698C33.4027 37.5526 30.9438 42.7045 32.2813 45.822C33.0384 47.5741 34.9824 48.2374 37.2469 46.9303ZM40.4197 36.9124L38.1186 39.2888L39.0213 36.1132C39.6054 36.1339 40.091 36.3994 40.4197 36.9124ZM37.227 36.6505C37.41 36.5443 37.5907 36.4542 37.7687 36.379L36.4139 41.1461C36.2471 41.735 36.982 42.089 37.3652 41.6945L40.8233 38.1236C41.1575 40.7574 39.2075 44.4921 36.6809 45.9497C35.3429 46.7219 33.9209 46.7636 33.3211 45.3743C32.2836 42.9554 34.3004 38.3407 37.227 36.6505Z" fill="white"/>
<path d="M51.7593 48.0552C51.6311 48.3404 51.7588 48.6754 52.044 48.8031L53.0323 49.2466C52.8226 49.5326 52.7019 49.8494 52.7013 50.1801C52.7007 50.7909 53.0838 51.3647 53.7532 51.7533C54.9643 52.4564 56.8675 52.4575 58.0864 51.7544C58.9537 51.2524 60.4141 51.2535 61.2758 51.7533C61.5854 51.9335 61.7706 52.1568 61.7706 52.3508C61.77 52.5465 61.5826 52.7715 61.2692 52.9522C60.4003 53.4558 58.9349 53.4547 58.0703 52.9533C57.7995 52.7969 57.454 52.8881 57.297 53.1584C57.1395 53.4287 57.2318 53.7747 57.5021 53.9317C58.5758 54.5558 60.255 54.6586 61.5455 54.0703L63.0895 54.7636C63.3779 54.893 63.7114 54.7607 63.8374 54.479C63.9656 54.1943 63.8379 53.8593 63.5527 53.7311L62.5675 53.2886C62.7795 53.002 62.902 52.6843 62.9027 52.3525C62.9032 51.7317 62.5273 51.1712 61.8447 50.7748C60.6357 50.0723 58.7359 50.0712 57.5203 50.7737C56.6508 51.2773 55.1849 51.2762 54.322 50.7748C54.0113 50.5941 53.8333 50.378 53.8333 50.1812C53.8339 49.9838 54.0224 49.7572 54.3375 49.5753C55.2053 49.0751 56.6657 49.074 57.527 49.5742C57.7978 49.7312 58.1427 49.6395 58.3003 49.3692C58.4578 49.0988 58.3655 48.7528 58.0952 48.5958C56.9735 47.9431 55.2624 47.9053 54.0498 48.4627L52.5072 47.7705C52.2242 47.6445 51.8876 47.77 51.7593 48.0552Z" fill="white"/>
</svg>
