<svg width="93" height="92" viewBox="0 0 93 92" fill="none" xmlns="http://www.w3.org/2000/svg">
<rect x="0.5" width="92" height="92" rx="46" fill="black"/>
<path d="M72.839 48.1465C71.871 47.5841 57.4047 39.1781 56.5819 38.7L56.6224 27.2606C56.6224 27.2593 56.6217 27.2577 56.6217 27.2564C56.6217 27.2548 56.6224 27.2534 56.6224 27.2518C56.6207 26.3806 56.0757 25.5868 55.0868 25.0158C53.2405 23.9506 50.3556 23.9517 48.5182 25.0213C47.5503 25.5832 47.017 26.3617 47.0071 27.2148C47.0069 27.2208 47.0036 27.2258 47.0036 27.2319V27.2373C47.0036 27.2385 47.003 27.2395 47.003 27.2407C47.003 27.2418 47.0035 27.2428 47.0035 27.2439L46.9827 33.1245C45.3972 32.2036 44.4112 31.6308 44.3873 31.617C43.4979 31.0946 42.0939 31.0941 41.1901 31.6153L20.1505 43.8106C19.6221 44.1257 19.3307 44.5679 19.3307 45.056C19.3307 45.0554 19.3307 45.0565 19.3307 45.056L19.3401 49.6152C19.3401 49.9065 19.4479 50.456 20.1616 50.859L25.7302 54.0954C26.0005 54.2519 26.3471 54.1612 26.5041 53.8909C26.6616 53.6206 26.5698 53.274 26.2995 53.117L20.7248 49.8767C20.5386 49.7717 20.4722 49.67 20.4722 49.6141L20.4656 46.4915C67.0483 73.5707 38.7422 57.1385 48.595 62.8403C49.4966 63.3593 50.899 63.3588 51.7884 62.8397C77.3749 48.0069 69.9821 52.2965 72.5245 50.8153L72.5372 53.9407C72.5372 53.9843 72.4803 54.0999 72.2702 54.2242L51.24 66.4095C50.6834 66.7312 49.7177 66.7323 49.1721 66.4106L31.9677 56.4116C31.6973 56.2546 31.3508 56.3452 31.1938 56.6161C31.0362 56.8864 31.128 57.233 31.3983 57.39L48.6 67.3874C49.4887 67.9122 50.8971 67.9142 51.8066 67.3896L72.8418 55.2015C73.3675 54.8909 73.6693 54.431 73.6693 53.9385L73.6505 49.3886C73.6489 48.8447 73.3036 48.4222 72.839 48.1465ZM72.4814 49.4622C72.3478 49.6871 72.0858 49.7165 51.2218 61.8525C50.6651 62.1731 49.7044 62.1742 49.1622 61.8536L46.2607 60.168L68.7902 47.1034C70.1838 47.913 71.38 48.608 72.263 49.1211C72.6597 49.358 72.4575 49.3489 72.4814 49.4622ZM24.6351 47.6037L35.6916 41.1877L35.6729 43.6823C35.6696 44.5563 36.2163 45.3539 37.2118 45.9288C38.1377 46.4633 39.3228 46.7303 40.5063 46.7303C41.6865 46.7303 42.8644 46.4644 43.7809 45.9321C44.7544 45.3661 45.2922 44.5795 45.2955 43.7194L45.3359 38.3647C45.3359 38.3586 45.3359 38.3531 45.3359 38.347C45.3359 38.3457 45.3352 38.3446 45.3352 38.3433C45.3352 38.3417 45.3359 38.3403 45.3359 38.3387C45.3348 37.5201 44.755 36.7484 44.1148 36.3012L46.9748 34.6484C46.9695 36.2365 46.9943 28.8956 46.9223 50.1796C46.9201 51.0508 47.4651 51.8468 48.4579 52.42C50.3076 53.4878 53.1943 53.4887 55.0265 52.4228C56.001 51.8573 56.5389 51.0701 56.5411 50.2078L56.5772 40.0077C60.4122 42.2357 64.4466 44.5797 67.6627 46.4483L45.1334 59.5132C30.0194 50.7322 46.8091 60.4892 24.6351 47.6037ZM43.2342 37.0834C44.5758 37.8584 44.4409 38.8925 43.2519 39.5841C41.7876 40.4354 39.2985 40.4337 37.8187 39.5791C36.5566 38.8509 36.5011 37.8343 37.7928 37.0823C39.2607 36.2295 41.7519 36.2276 43.2342 37.0834ZM36.8214 41.9616L36.8326 40.2842C38.4925 41.5212 41.7376 41.7742 43.8207 40.5631C43.9512 40.4868 44.0744 40.4072 44.1889 40.3237L44.1634 43.7127C44.1618 44.1572 43.824 44.5977 43.2121 44.9537C41.7462 45.805 39.257 45.8028 37.7778 44.9482C37.1582 44.5905 36.8033 44.1306 36.805 43.689L36.8179 41.962C36.819 41.962 36.8202 41.9616 36.8214 41.9616ZM48.1285 29.2047C49.9944 30.5839 53.521 30.6633 55.4831 29.2312L55.409 50.2039C55.4079 50.6484 55.0702 51.0884 54.4577 51.4444C52.9929 52.2967 50.5043 52.2951 49.024 51.4394C48.4065 51.0828 48.0533 50.6246 48.0544 50.1835L48.1285 29.2047ZM49.087 25.9997C50.5552 25.1459 53.0438 25.1433 54.5207 25.9964C55.7897 26.7295 55.8225 27.751 54.5384 28.4972C53.0741 29.349 50.585 29.3462 49.1052 28.4922C47.8641 27.7754 47.7745 26.7629 49.087 25.9997ZM20.7243 44.7868L41.7578 32.5949C42.3001 32.2803 43.2812 32.2798 43.818 32.5954C43.8429 32.6098 44.6757 33.0936 46.0354 33.8834L42.8919 35.7C41.0963 35.0683 38.7848 35.1965 37.224 36.1038C36.2659 36.6608 35.7377 37.4314 35.7203 38.2765C35.7072 38.4644 35.7065 39.4321 35.7015 39.8729L23.5068 46.9493C16.9521 43.1224 24.4717 47.5118 20.6991 45.3122C20.3586 45.0964 20.4167 44.9701 20.7243 44.7868Z" fill="white"/>
<path d="M29.9865 55.2602L28.0922 54.159C27.8213 54.0015 27.4758 54.0933 27.3183 54.3636C27.1608 54.6339 27.2525 54.9805 27.5228 55.1374L29.4172 56.2386C29.6882 56.3958 30.0343 56.3038 30.1911 56.034C30.3486 55.7637 30.2568 55.4171 29.9865 55.2602Z" fill="white"/>
<path d="M61.3756 53.0811L58.2978 54.8583C58.0269 55.0147 57.9341 55.3607 58.0905 55.6316C58.2474 55.9032 58.5944 55.9945 58.8638 55.8389L61.9417 54.0617C62.2125 53.9053 62.3054 53.5593 62.149 53.2884C61.992 53.0164 61.6454 52.9247 61.3756 53.0811Z" fill="white"/>
</svg>
