<svg width="93" height="92" viewBox="0 0 93 92" fill="none" xmlns="http://www.w3.org/2000/svg">
<rect x="0.5" width="92" height="92" rx="46" fill="black"/>
<path d="M39.382 27.0302C39.2261 26.7583 38.8801 26.6676 38.6092 26.8229L34.0219 29.4722C34.0217 29.4723 34.0221 29.472 34.0219 29.4722C34.0213 29.4725 34.02 29.4733 34.0193 29.4737L34.0168 29.4751C34.0164 29.4753 34.0162 29.4759 34.0158 29.4761C32.3924 30.4177 31.1241 32.6074 31.1207 34.4739C31.1205 34.4803 31.1158 34.4856 31.1158 34.4921L31.2065 66.7325C31.2186 67.7501 31.5923 68.5218 32.2479 68.8977C41.28 74.3832 38.2073 72.54 38.8679 72.9174C38.8685 72.9178 38.8691 72.9176 38.8698 72.9179C38.8703 72.9183 38.8707 72.9187 38.8712 72.9191C39.6362 73.361 40.537 73.1737 41.3023 72.7317L58.9821 62.5242C60.6139 61.5812 61.8886 59.3729 61.8842 57.4957L61.7924 25.2569C61.7904 24.2938 61.4426 23.5595 60.8271 23.1548C60.6819 23.0314 57.0998 20.8782 54.1365 19.0725C53.4555 18.6911 52.5932 18.7586 51.6977 19.2655L45.5056 22.8413C45.2347 22.9978 45.1419 23.3438 45.2988 23.6147C45.4536 23.8861 45.7996 23.9773 46.0716 23.822L52.2604 20.2483C52.7922 19.947 53.2598 19.8796 53.565 20.0498L58.614 23.1155C58.3011 23.2636 58.7896 23.0057 50.1743 27.9692L40.9154 33.3103C40.802 33.2415 35.0488 29.7524 35.4157 29.9749L39.1752 27.8036C39.4461 27.6471 39.539 27.3011 39.382 27.0302ZM34.3098 30.6331C34.4232 30.7018 40.2593 34.237 39.8883 34.0123C38.9425 34.8343 38.0975 36.1975 37.8243 37.5544L32.2656 34.182C32.3871 32.8949 33.2511 31.3955 34.3098 30.6331ZM58.9664 24.2125C60.0272 23.652 60.6581 24.1013 60.6603 25.2603L60.6665 27.4123L38.8622 40.0011L38.8579 38.4986C38.8546 37.0437 39.9237 35.1947 41.194 34.4611L51.139 28.7196C54.3275 26.8832 58.5721 24.4254 58.9664 24.2125ZM60.7377 52.6457L38.9652 65.2157L38.8977 41.2879L60.6702 28.7179C60.6846 33.8411 60.7261 48.5128 60.7377 52.6457ZM32.8239 67.9231C32.5177 67.7474 32.3452 67.3201 32.3386 66.7242L32.2512 35.4981L37.7259 38.8214L37.8154 70.7384C37.8154 70.8125 37.8176 70.886 37.8221 70.9579L32.8239 67.9231ZM58.4161 61.5436L40.7363 71.7511C39.6116 72.4002 38.9519 71.8962 38.9497 70.7373L38.9378 66.5393L60.742 53.9505L60.7521 57.499C60.7554 58.9577 59.6864 60.8101 58.4161 61.5436Z" fill="white"/>
<path d="M41.5135 26.4537L43.8683 25.0939C44.1391 24.9375 44.232 24.5914 44.075 24.3206C43.9191 24.048 43.572 23.9568 43.3022 24.1133L40.9474 25.4731C40.6766 25.6295 40.5837 25.9756 40.7407 26.2464C40.8948 26.5161 41.241 26.6101 41.5135 26.4537Z" fill="white"/>
<path d="M47.6691 33.6718L52.4351 30.9201C52.706 30.7636 52.7988 30.4176 52.6419 30.1467C52.486 29.8748 52.1388 29.7836 51.8691 29.9394L47.1031 32.6911C46.8322 32.8476 46.7394 33.1936 46.8963 33.4645C47.0504 33.7341 47.3967 33.8282 47.6691 33.6718Z" fill="white"/>
<path d="M50.2074 60.7758C49.2368 61.3369 48.4784 62.648 48.4806 63.7613C48.4829 65.0992 49.6003 65.7545 50.7823 65.0719C51.7475 64.5159 52.5003 63.2069 52.4981 62.0931C52.4958 60.7417 51.3694 60.1011 50.2074 60.7758ZM50.2163 64.0913C49.8276 64.3177 49.6148 64.257 49.6127 63.7591C49.6105 63.0505 50.1533 62.1146 50.7735 61.7564C51.1585 61.5334 51.364 61.5989 51.3661 62.0953C51.3683 62.8045 50.831 63.7375 50.2163 64.0913Z" fill="white"/>
<path d="M34.5463 40.3957C34.2335 40.3962 33.9792 40.6505 33.9803 40.9634L33.9858 43.1092C33.9869 43.421 34.2401 43.6736 34.5519 43.6736C34.8647 43.6731 35.119 43.4188 35.1179 43.1059L35.1124 40.9601C35.1113 40.6483 34.8581 40.3957 34.5463 40.3957Z" fill="white"/>
<path d="M34.5463 45.4679C34.2335 45.4684 33.9792 45.7227 33.9803 46.0356L33.9858 48.1814C33.9869 48.4932 34.2401 48.7458 34.5519 48.7458C34.8647 48.7453 35.119 48.491 35.1179 48.1781L35.1124 46.0323C35.1113 45.7205 34.8581 45.4679 34.5463 45.4679Z" fill="white"/>
<path d="M53.7894 24.671C54.9077 24.0214 54.906 22.7785 53.7795 22.1283C52.8607 21.5987 51.4269 21.6004 50.5148 22.1288C49.3955 22.7791 49.3994 24.0221 50.5247 24.6716C51.4539 25.2077 52.8562 25.2132 53.7894 24.671ZM51.083 23.1084C51.6512 22.7788 52.6445 22.7803 53.2134 23.1089C53.5641 23.3115 53.5949 23.4744 53.2212 23.6921C52.6452 24.026 51.669 24.0248 51.0908 23.691C50.7449 23.4912 50.7035 23.3282 51.083 23.1084Z" fill="white"/>
<path d="M53.565 45.0627C53.4708 45.0086 53.3663 44.9829 53.2652 44.9473C54.0176 43.9793 54.5394 42.7742 54.5379 41.5775C54.5356 40.6384 54.1852 39.9209 53.5528 39.5566C52.9171 39.1901 52.1101 39.2509 51.2854 39.7257L51.0271 39.8748L51.0189 38.7882C51.0167 38.477 50.7635 38.2266 50.4529 38.2266H50.4485C50.1356 38.2288 49.8846 38.4842 49.8868 38.7971L49.8998 40.5255L48.994 41.0485L48.9858 39.9629C48.9836 39.6517 48.7304 39.4013 48.4198 39.4013H48.4154C48.1025 39.4035 47.8515 39.6589 47.8537 39.9717L47.8667 41.6991C47.7532 41.7656 45.2473 43.2339 45.3607 43.1667C45.0921 43.3259 45.0026 43.6731 45.1618 43.9423C45.322 44.2119 45.6693 44.2995 45.9378 44.1407L46.4757 43.8223L46.4884 48.3374L46.5029 53.5161L45.3607 54.1923C45.0921 54.3515 45.0026 54.6987 45.1618 54.9678C45.2679 55.1464 45.4558 55.2453 45.6493 55.2453C45.7477 55.2453 45.8472 55.2199 45.9378 55.1663L47.3245 54.3453C47.3335 54.3407 47.3442 54.3427 47.3529 54.3377L47.861 54.0444L47.8692 55.1447C47.8714 55.4559 48.1246 55.7064 48.4353 55.7064H48.4397C48.7526 55.7041 49.0035 55.4488 49.0013 55.1359L48.9882 53.3935L49.8941 52.8705L49.9023 53.9707C49.9045 54.2819 50.1577 54.5323 50.4684 54.5323H50.4728C50.7856 54.5301 51.0366 54.2747 51.0344 53.9618L51.0213 52.2197L51.8823 51.7225C53.337 50.8826 54.558 48.8747 54.5533 47.0887C54.5511 46.1473 54.1996 45.4281 53.565 45.0627ZM51.8514 40.7064C52.3058 40.4432 52.7203 40.3835 52.9879 40.5378C53.2521 40.6898 53.4047 41.0701 53.4058 41.5797C53.4081 42.9543 52.3975 44.5977 51.3008 45.2308L47.6183 47.3565L47.6061 43.1568C47.7401 43.0794 52.0265 40.6053 51.8514 40.7064ZM51.3163 50.7419L47.6337 52.8684L47.6216 48.662L51.8669 46.2114C52.3201 45.9494 52.7303 45.8897 53.0012 46.0445C53.2665 46.197 53.4202 46.579 53.4213 47.092C53.4259 48.4402 52.44 50.093 51.3163 50.7419Z" fill="white"/>
</svg>
