<svg width="93" height="92" viewBox="0 0 93 92" fill="none" xmlns="http://www.w3.org/2000/svg">
<rect x="0.5" width="92" height="92" rx="46" fill="black"/>
<path d="M20.631 42.945L19.3364 51.5455C19.3021 51.7755 19.4116 52.0032 19.6133 52.1199L39.8514 63.8044C40.12 63.9597 40.4677 63.8679 40.6247 63.5971C40.7811 63.3262 40.6883 62.9802 40.4174 62.8237L20.5132 51.3322L21.6271 43.9344L45.6665 57.8129L47.4266 66.8706L45.9075 65.9933C45.6372 65.8369 45.2907 65.9298 45.1342 66.2006C44.9778 66.4715 45.0707 66.8175 45.3415 66.9739L47.9362 68.472C47.9444 68.4767 47.9543 68.4747 47.9626 68.479C47.9714 68.4836 47.9764 68.4928 47.9854 68.4968C48.1467 68.5709 48.3402 68.5656 48.5039 68.4709L73.388 54.0098C73.5964 53.8888 73.7053 53.6494 73.6594 53.4128L71.6125 42.8831C71.5825 42.7279 71.4179 42.5434 71.3422 42.5L68.05 40.6039L68.0549 39.3326C68.0549 39.3326 68.0549 39.3327 68.0549 39.3326C68.0549 39.3311 68.056 39.3297 68.056 39.3282C68.0554 39.1264 67.9476 38.9396 67.773 38.839L58.455 33.4656C58.4559 33.1298 58.4619 30.888 58.4621 31.0278C58.4562 27.3541 54.3574 24.9251 50.7736 24.0573C46.3601 22.9391 40.8502 23.3284 36.9764 25.5802C34.544 26.9939 33.2024 28.9045 33.1915 30.9631C33.1913 30.9676 33.1888 30.9713 33.1888 30.9758L33.1817 33.4196L23.8859 38.8306C23.8807 38.8335 23.8743 38.8321 23.8691 38.8351C23.6939 38.9357 23.5855 39.122 23.585 39.3238L23.579 40.9839L20.9079 42.5354C20.7947 42.601 20.6471 42.8391 20.631 42.945ZM48.6228 67.0922C48.594 66.9439 46.6879 57.1348 46.8053 57.7388C47.652 57.2468 45.5709 58.4561 70.6535 43.8806L72.4715 53.2337L48.6228 67.0922ZM45.327 52.2122C45.3266 52.3262 45.3201 54.0702 45.3205 53.9562L24.7071 42.056L24.7137 40.3062L45.327 52.2122ZM46.4529 53.9484C46.4533 53.8344 46.4596 52.0939 46.4592 52.2079C49.786 50.2742 41.2232 55.2513 66.9189 40.316L66.9123 42.06C64.8185 43.2766 74.4906 37.6565 46.4529 53.9484ZM37.0339 36.4449C41.9579 39.2874 49.8701 39.2358 54.6712 36.4461C55.8133 35.782 56.7673 34.9279 57.3206 34.2046L57.319 34.8237C57.3145 36.4682 56.1681 38.0386 54.0908 39.2458C49.5575 41.8792 42.1548 41.8787 37.5894 39.2431C35.8845 38.2585 34.3151 36.7258 34.3209 34.7656C34.3213 34.6516 34.3133 34.2542 34.3115 34.141C35.0218 35.079 36.011 35.854 37.0339 36.4449ZM34.3115 37.9275C35.0175 38.8596 36.0336 39.6534 37.0339 40.2314C41.9127 43.0478 49.825 43.0489 54.6706 40.2325C55.7939 39.5803 56.6855 38.8219 57.3206 37.9916L57.319 38.6102C57.3145 40.2552 56.1681 41.8256 54.0908 43.0329C49.5586 45.6663 42.1559 45.6652 37.5894 43.0296C35.4701 41.8057 34.3054 40.2132 34.3099 38.5444L34.3115 37.9275ZM37.5452 26.5586C41.1864 24.4438 46.3996 24.1171 50.5016 25.1563C53.4924 25.8805 57.3249 27.95 57.33 31.0294C57.3323 32.9424 55.7885 34.4871 54.1024 35.4676C49.568 38.101 42.1653 38.0999 37.6 35.4643C35.8825 34.4727 34.3202 32.9351 34.3215 30.9866C34.3222 29.3393 35.4667 27.7669 37.5452 26.5586ZM33.1778 38.5411C33.1723 40.6327 34.5376 42.5752 37.0234 44.0102C41.899 46.8246 49.8115 46.8292 54.6596 44.0113C57.099 42.5945 58.4455 40.677 58.451 38.6135L58.4621 34.8347C58.4622 34.8172 58.4538 34.8026 58.4523 34.7855C58.4527 34.781 58.4552 34.7773 58.4555 34.7728L66.3601 39.3315C43.6289 52.5413 46.0862 51.1133 45.8935 51.2253L25.2843 39.3266L33.1778 34.7317L33.1778 34.7546C33.1774 34.8943 33.1778 38.377 33.1778 38.5411ZM23.5695 42.2982V42.3795C23.5695 42.5818 23.6773 42.7686 23.8525 42.8698L23.8552 42.8713C57.4171 62.2495 40.794 52.6515 45.6002 55.4266C45.7756 55.5275 45.9911 55.5273 46.1651 55.4271C46.1657 55.4268 46.1658 55.4261 46.1664 55.4259C46.1669 55.4256 46.1674 55.4257 46.1679 55.4255C75.3035 38.5029 65.8173 44.0127 67.7669 42.8803C67.9416 42.7786 68.0488 42.5923 68.0488 42.3906V41.9091L69.9285 42.992C38.6175 61.1845 48.7055 55.3231 46.1756 56.793L22.3219 43.0229L23.5695 42.2982Z" fill="white"/>
<path d="M43.5859 65.9602C43.8538 66.1149 44.201 66.026 44.3592 65.7529C44.5157 65.482 44.4228 65.136 44.1519 64.9796L42.1299 63.8127C41.8596 63.6562 41.513 63.7491 41.3566 64.02C41.2001 64.2908 41.293 64.6369 41.5639 64.7933L43.5859 65.9602Z" fill="white"/>
<path d="M40.7624 28.9212L41.5441 29.2724C41.0144 30.0775 41.3652 30.9844 42.2515 31.4988C43.3305 32.1267 45.027 32.1256 46.1126 31.4999C46.839 31.0803 48.1087 31.0792 48.8317 31.4988C49.362 31.8075 49.3517 32.1212 48.8256 32.4247C48.0849 32.8531 46.8357 32.8531 46.0994 32.4258C45.8296 32.2693 45.4825 32.3594 45.3255 32.6303C45.1679 32.9006 45.2603 33.2472 45.53 33.4042C46.0706 33.7182 46.7649 33.8751 47.4597 33.8751C48.0325 33.8751 48.5858 33.7419 49.0735 33.5287L50.4242 34.1349C50.7127 34.2643 51.0461 34.132 51.1721 33.8503C51.3004 33.565 51.1727 33.2301 50.8875 33.1024L50.1104 32.7536C50.6397 31.9561 50.3011 31.0436 49.4005 30.5204C48.3237 29.8946 46.6311 29.8935 45.5466 30.5193C44.8053 30.9477 43.5561 30.9477 42.8203 30.5204C42.295 30.2146 42.3049 29.8995 42.833 29.5939C43.5594 29.1733 44.8302 29.1744 45.5521 29.5928C45.8213 29.7493 46.1685 29.6592 46.3255 29.3877C46.483 29.1174 46.3907 28.7714 46.1204 28.6144C45.1349 28.0407 43.6529 28.0192 42.5748 28.4941L41.2267 27.8886C40.9409 27.7609 40.6065 27.8881 40.4782 28.1728C40.35 28.458 40.4777 28.793 40.7624 28.9212Z" fill="white"/>
<path d="M59.4024 52.3349L49.1628 58.2855C48.955 58.4066 48.8461 58.6459 48.892 58.8825L49.8201 63.6596C49.8933 64.0386 50.3204 64.2376 50.6603 64.041L60.8998 58.0904C61.1077 57.9693 61.2166 57.73 61.1707 57.4934L60.2426 52.7163C60.1697 52.3391 59.7435 52.1369 59.4024 52.3349ZM50.7797 62.6624L50.0799 59.0622L59.283 53.7135L59.9828 57.3143L50.7797 62.6624Z" fill="white"/>
<path d="M64.1722 49.01C63.3956 49.4588 62.7886 50.5141 62.7908 51.4129C62.7943 52.5442 63.7589 53.1009 64.7454 52.5312C65.5271 52.0801 66.1368 51.0265 66.134 50.1332C66.1317 49.0068 65.1649 48.4381 64.1722 49.01ZM64.1794 51.5505C64.0512 51.6246 63.9738 51.629 63.9693 51.6318C63.9572 51.6196 63.9235 51.5522 63.9229 51.4101C63.9218 50.9143 64.3104 50.2377 64.7383 49.9906C64.8682 49.9154 64.9461 49.9132 64.9544 49.9127C64.9665 49.9248 65.0014 49.9912 65.0019 50.136C65.0036 50.6274 64.6117 51.3012 64.1794 51.5505Z" fill="white"/>
<path d="M68.9095 50.1299C69.69 49.6794 70.3002 48.6258 70.298 47.7314C70.2945 46.5972 69.319 46.0399 68.3362 46.6088C67.5585 47.0582 66.9521 48.1134 66.9549 49.0111C66.9572 50.1435 67.9233 50.6994 68.9095 50.1299ZM68.9023 47.5894C69.0322 47.5148 69.1096 47.512 69.1179 47.5114C69.1306 47.5236 69.1654 47.5905 69.166 47.7342C69.1671 48.2262 68.7751 48.9006 68.3434 49.1493C68.2152 49.2234 68.1373 49.2278 68.1328 49.2311C68.1212 49.2184 68.0875 49.1515 68.0869 49.0083C68.0853 48.5131 68.4739 47.8365 68.9023 47.5894Z" fill="white"/>
<path d="M64.0982 53.4659C63.321 53.9142 62.714 54.9656 62.7162 55.8599C62.7197 56.9989 63.6907 57.5519 64.6714 56.987C65.4524 56.5354 66.0621 55.4785 66.0594 54.5808C66.0571 53.4502 65.0878 52.8972 64.0982 53.4659ZM64.1053 56.0064C63.9793 56.0794 63.903 56.0827 63.8969 56.0844C63.8848 56.0722 63.8489 56.0037 63.8483 55.8572C63.8472 55.3658 64.2358 54.6936 64.6642 54.4465C64.7957 54.3702 64.8753 54.3669 64.882 54.3653C64.8936 54.3774 64.9268 54.4432 64.9273 54.5836C64.929 55.0789 64.5371 55.7571 64.1053 56.0064Z" fill="white"/>
<path d="M68.2616 51.0647C67.4844 51.513 66.8775 52.5649 66.8802 53.4587C66.8813 54.0004 67.1041 54.4388 67.4911 54.6615C67.9124 54.9039 68.4131 54.8297 68.8348 54.5858C69.6154 54.1353 70.2256 53.0784 70.2234 52.179C70.2199 51.0492 69.2484 50.4927 68.2616 51.0647ZM68.2688 53.6052C68.1428 53.6782 68.067 53.682 68.0604 53.6837C68.0482 53.6715 68.0129 53.603 68.0123 53.4559C68.0107 52.9645 68.3993 52.2924 68.8277 52.0453C68.9598 51.969 69.0388 51.9657 69.046 51.964C69.0576 51.9762 69.0908 52.042 69.0913 52.1818C69.0924 52.6776 68.7005 53.3565 68.2688 53.6052Z" fill="white"/>
</svg>
