<svg width="93" height="92" viewBox="0 0 93 92" fill="none" xmlns="http://www.w3.org/2000/svg">
<rect x="0.5" width="92" height="92" rx="46" fill="black"/>
<path d="M58.7593 60.8019L60.7103 54.2603C61.1214 53.4384 61.3369 52.5744 61.3352 51.6873C61.3297 49.2628 59.7322 47.0075 56.8379 45.3376C54.7518 44.1236 52.1344 43.3358 49.2612 43.0129L49.2633 42.4859C50.4616 42.4614 53.343 42.2775 55.3598 41.1139C57.9611 39.6114 57.9224 37.2002 57.9091 36.9305C57.8948 36.6325 57.6516 36.3965 57.3542 36.3915C56.9318 36.386 53.173 36.3639 50.732 37.7729C50.1042 38.1352 49.6353 38.5525 49.2773 38.9794L49.2848 37.1166C52.6321 34.599 55.1995 29.7847 55.1884 25.7695C55.1818 23.5225 54.3875 21.8287 52.9529 20.9953C52.9527 20.9951 52.9531 20.9954 52.9529 20.9953C52.2932 20.6199 49.9521 19.2878 50.0907 19.3667C48.6348 18.5199 46.7454 18.6841 44.7665 19.8294C40.9203 22.0504 37.8004 27.4516 37.8104 31.8699C37.8203 34.1219 38.6141 35.8222 40.0513 36.6607L42.9136 38.2892L42.9149 38.2869C42.9183 38.2889 42.9212 38.2916 42.9246 38.2936C43.1886 38.4453 43.4692 38.5575 43.7596 38.6432L43.7471 41.4873C43.3865 41.053 42.9082 40.6276 42.2668 40.2571C39.8247 38.848 36.0658 38.8679 35.6435 38.8757C35.3439 38.8807 35.0996 39.1222 35.0874 39.4218C35.0775 39.6927 35.0576 42.1077 37.639 43.598C37.992 43.8018 38.3748 43.9664 38.7661 44.1147C37.8022 44.4592 36.8993 44.8625 36.0846 45.337C33.2323 46.9904 31.6625 49.2274 31.6647 51.637C31.6658 52.8874 32.0908 53.6746 32.2528 54.1277L36.1698 67.0444C36.1742 67.0748 36.1808 67.1046 36.1908 67.1339C36.6109 68.4307 37.1858 70.2068 39.3305 71.4455C43.3124 73.739 49.7593 73.7437 53.6981 71.4455C56.223 69.9873 56.3878 68.0763 56.9838 66.5502C57.0745 66.2511 56.9042 65.9355 56.6057 65.8454C56.3017 65.7536 55.9899 65.925 55.9004 66.224C55.4499 68.547 54.3153 69.7819 53.1299 70.4666C49.5059 72.5809 43.5692 72.5798 39.8965 70.4649C38.1575 69.4611 37.6866 68.078 37.2875 66.847C37.2841 66.8227 37.2775 66.7989 37.2709 66.7752L34.1875 56.6053C34.7558 57.1061 35.4147 57.5721 36.162 58.001C41.912 61.3113 51.2084 61.313 56.9053 58.011C56.9053 58.011 56.9053 58.0104 56.9064 58.0104C57.6264 57.591 58.264 57.1347 58.8161 56.6485L57.6737 60.478C57.5852 60.7776 57.7555 61.0932 58.0551 61.1822C58.3536 61.2712 58.6698 61.101 58.7593 60.8019ZM51.298 38.7535C53.026 37.7563 55.5654 37.5629 56.7362 37.5291C56.6212 38.1947 56.2099 39.3151 54.7937 40.1332C53.0812 41.1221 50.5142 41.3156 49.3556 41.351C49.4761 40.6844 49.8918 39.565 51.298 38.7535ZM57.6033 51.9909C57.0769 51.4197 56.398 50.8771 55.5676 50.396C53.8605 49.4177 51.6264 48.7376 49.2418 48.4304L49.2494 46.7018C51.4296 46.9976 53.4538 47.6366 55.0016 48.5238C56.2654 49.2559 57.8554 50.5564 57.6033 51.9909ZM55.058 54.8353C50.5298 57.4619 42.6107 57.4703 38.0027 54.8148C37.2555 54.3749 36.4452 53.7673 35.9169 53.0514C36.3605 52.4629 37.0617 51.8777 37.932 51.3766C39.4817 50.4785 41.5155 49.8389 43.7118 49.5521L43.693 53.91C43.693 54.2261 43.8135 54.8265 44.6161 55.2908C45.6964 55.9302 47.3467 55.8594 48.2909 55.3051C48.4924 55.1882 48.6511 55.063 48.7757 54.9361C49.1496 54.5552 49.2174 54.1588 49.2174 53.9238L49.2373 49.5547C51.4262 49.851 53.4549 50.49 55.0016 51.3766C55.9043 51.8989 56.63 52.5076 57.0859 53.1179C56.563 53.8205 55.8045 54.3948 55.058 54.8353ZM35.3494 51.6292C35.3406 50.6237 36.3057 49.4629 37.932 48.5238C39.4818 47.6262 41.5189 46.986 43.7242 46.6992L43.7167 48.4283C40.8432 48.7835 37.36 49.8185 35.3982 51.9288C35.3807 51.8287 35.3494 51.7266 35.3494 51.6292ZM40.6163 35.6796C39.545 35.0549 38.9502 33.7001 38.9425 31.8665C38.9325 27.8103 41.7992 22.8503 45.3325 20.8095C46.6272 20.0608 48.2382 19.5984 49.5258 20.3479L49.905 20.5635C49.8884 20.5667 49.8708 20.5751 49.8542 20.5785C49.1167 20.7313 48.2434 21.1031 47.6298 21.4573C47.6297 21.4573 47.6299 21.4573 47.6298 21.4573C47.6295 21.4575 47.6291 21.4577 47.6287 21.4579C43.8633 23.6326 40.6625 28.9959 40.6726 33.4983C40.6745 34.2077 40.7971 35.1561 41.0431 35.8773C41.0487 35.8938 41.0505 35.9137 41.0563 35.93L40.6163 35.6796ZM41.8069 33.4956C41.7948 29.4388 44.6614 24.4782 48.1959 22.4379C51.1499 20.7325 54.0436 21.5764 54.0563 25.7728C54.0677 29.5622 51.5765 34.1335 48.3767 36.3869C47.296 37.1702 45.7547 37.8489 44.4298 37.638C44.0924 37.583 43.7764 37.477 43.4896 37.3124C42.2247 36.5843 41.8113 34.9663 41.8069 33.4956ZM44.9544 38.8176C45.8133 38.8176 46.9646 38.5457 48.1494 37.8801L48.0853 53.921C48.0853 54.0426 47.9493 54.1941 47.7205 54.3273C47.0483 54.7203 45.8665 54.7153 45.1877 54.314C44.961 54.1825 44.8251 54.0316 44.8251 53.9122L44.8483 48.9201C44.8483 48.9179 44.847 48.9162 44.847 48.914L44.8914 38.8138C44.9127 38.8141 44.933 38.8176 44.9544 38.8176ZM36.2648 40.0133C37.4378 40.0476 39.975 40.2416 41.7008 41.2377C42.861 41.9078 43.4281 42.7913 43.6376 43.8364C41.9383 43.788 39.6846 43.4721 38.2051 42.6174C36.7999 41.8059 36.3842 40.6827 36.2648 40.0133ZM36.654 46.316C37.8502 45.6189 39.2365 45.0667 40.7788 44.6737C41.6237 44.8297 42.7218 44.9497 43.6951 44.9702C43.7061 44.9705 43.7209 44.9714 43.7317 44.9716L43.729 45.5751C41.3234 45.8719 39.0749 46.5535 37.3649 47.5437C35.3517 48.7067 34.2041 50.1992 34.2174 51.6342C34.2174 53.4198 35.8908 54.8848 37.4323 55.7927C42.3806 58.6434 50.7306 58.6533 55.6295 55.8126C59.9681 53.2523 59.7066 49.9417 55.5676 47.5431C53.8602 46.5647 51.6301 45.8843 49.2541 45.5783L49.2605 44.1331C51.9326 44.4465 54.3449 45.1966 56.2707 46.3171C58.8024 47.7775 60.1987 49.6857 60.2031 51.69C60.2083 54.0102 58.3262 55.8694 56.3315 57.032C50.9378 60.1653 42.1347 60.1368 36.7314 57.0193C34.6978 55.8456 32.7994 53.9748 32.7968 51.6359C32.7945 49.6475 34.1643 47.7587 36.654 46.316Z" fill="white"/>
<path d="M57.7068 62.2142C57.4094 62.1247 57.0921 62.2932 57.0015 62.5917L56.5902 63.9493C56.4799 64.3131 56.7536 64.6796 57.1319 64.6796C57.3751 64.6796 57.5996 64.522 57.6736 64.2777L58.0849 62.9201C58.1756 62.621 58.0064 62.3049 57.7068 62.2142Z" fill="white"/>
<path d="M46.8028 30.2126C47.2063 30.4448 47.7215 30.4138 48.2168 30.1269C48.3904 30.0263 48.4865 30.0335 48.4954 30.0435C48.5064 30.0495 48.5617 30.1236 48.5628 30.3237C48.5639 30.8787 48.1416 31.6106 47.6585 31.8897C47.4794 31.9936 47.3865 31.9809 47.3744 31.9749C47.3633 31.9682 47.3091 31.8958 47.308 31.699C47.3069 31.3867 47.0538 31.1346 46.742 31.1346C46.4291 31.1357 46.1749 31.3895 46.176 31.7023C46.1771 32.2684 46.4081 32.7255 46.8094 32.956C46.9767 33.052 47.1641 33.0988 47.36 33.1051V33.6636C47.36 33.9764 47.6132 34.2296 47.926 34.2296C48.2389 34.2296 48.4921 33.9764 48.4921 33.6636V32.655C49.1812 32.1108 49.6978 31.1628 49.6949 30.3204C49.6927 29.7516 49.4616 29.2934 49.0603 29.0623C48.6568 28.8307 48.1438 28.8611 47.6508 29.1463C47.475 29.2475 47.3799 29.2364 47.3666 29.2314C47.3567 29.2248 47.3014 29.1513 47.3003 28.9517C47.2992 28.3946 47.7237 27.6599 48.2091 27.3797C48.3815 27.2791 48.4777 27.2868 48.4877 27.2962C48.4987 27.3023 48.554 27.3763 48.5551 27.5765C48.5562 27.8888 48.8094 28.1408 49.1211 28.1408C49.434 28.1397 49.6883 27.886 49.6872 27.5731C49.6861 27.0043 49.4539 26.5461 49.0526 26.315C48.8828 26.2173 48.6911 26.1769 48.4921 26.1718V25.6163C48.4921 25.3035 48.2389 25.0503 47.926 25.0503C47.6132 25.0503 47.36 25.3035 47.36 25.6163V26.6248C46.668 27.173 46.1653 28.1014 46.1682 28.9551C46.1704 29.5233 46.4015 29.9816 46.8028 30.2126Z" fill="white"/>
</svg>
