<svg width="93" height="92" viewBox="0 0 93 92" fill="none" xmlns="http://www.w3.org/2000/svg">
<rect x="0.5" width="92" height="92" rx="46" fill="black"/>
<path d="M31.7802 69.3839C31.7814 69.5851 31.8875 69.7709 32.0622 69.8715C32.1768 69.9381 37.3581 72.9487 37.2435 72.8821L37.2449 72.8835C37.4196 72.9841 37.6352 72.9836 37.8099 72.883L61.0395 59.4716C61.2153 59.3699 61.3237 59.1825 61.3225 58.9797L61.2186 22.6151C61.2177 22.452 61.05 22.1932 60.9367 22.1275L60.9354 22.1268L60.9345 22.1259L60.9333 22.1255L55.7572 19.1177C55.5848 19.016 55.367 19.016 55.1901 19.1166L51.2522 21.3901C50.9813 21.5466 50.8884 21.8926 51.0454 22.1635C51.2013 22.4354 51.5473 22.525 51.8182 22.3707L55.472 20.2608L59.5227 22.6151C57.8679 23.5705 40.0992 33.8297 37.4237 35.3745L33.3722 33.0199L43.8063 26.9958C44.0772 26.8393 44.1701 26.4933 44.0131 26.2224C43.8572 25.951 43.51 25.8587 43.2403 26.0152L31.9604 32.5279C31.7835 32.6304 31.6774 32.8189 31.6774 33.0177L31.6777 33.0188L31.6774 33.0199L31.7802 69.3839ZM32.9112 69.0561L32.8128 34.0035C33.1184 34.1811 37.1121 36.5024 36.8578 36.3546C36.8813 44.6148 36.9334 62.9463 36.9575 71.4076L32.9112 69.0561ZM38.0901 71.4134C38.0809 68.1939 38.0034 41.0284 37.9901 36.3549C43.1843 33.356 54.8753 26.6063 60.0899 23.5957L60.1894 58.6552L38.0901 71.4134Z" fill="white"/>
<path d="M46.5083 25.4359L49.3727 23.7826C49.6436 23.6261 49.7364 23.2801 49.5795 23.0092C49.4236 22.7378 49.0764 22.6455 48.8067 22.8019L45.9422 24.4553C45.6714 24.6117 45.5785 24.9577 45.7355 25.2286C45.8903 25.4986 46.2361 25.5921 46.5083 25.4359Z" fill="white"/>
<path d="M56.0027 55.8449L41.6107 64.1536C41.3399 64.31 41.247 64.6561 41.404 64.9269C41.5581 65.1966 41.9044 65.2906 42.1768 65.1342L56.5687 56.8255C56.8396 56.6691 56.9325 56.3231 56.7755 56.0522C56.6196 55.7797 56.2736 55.6879 56.0027 55.8449Z" fill="white"/>
<path d="M56.0027 50.8135L41.6107 59.1222C41.3399 59.2787 41.247 59.6247 41.404 59.8956C41.5581 60.1652 41.9044 60.2592 42.1768 60.1029L56.5687 51.7941C56.8396 51.6377 56.9325 51.2917 56.7755 51.0208C56.6196 50.7489 56.2736 50.6565 56.0027 50.8135Z" fill="white"/>
<path d="M42.1768 44.1964L51.5794 38.7681C51.8503 38.6117 51.9431 38.2657 51.7862 37.9948C51.6303 37.7234 51.2831 37.6311 51.0134 37.7875L41.6107 43.2157C41.3399 43.3722 41.247 43.7182 41.404 43.9891C41.5581 44.2587 41.9044 44.3528 42.1768 44.1964Z" fill="white"/>
<path d="M42.1768 39.1645L56.5687 30.8558C56.8396 30.6994 56.9325 30.3533 56.7755 30.0825C56.6196 29.81 56.2736 29.7187 56.0027 29.8752L41.6107 38.1839C41.3399 38.3403 41.247 38.6864 41.404 38.9572C41.5581 39.2269 41.9044 39.3209 42.1768 39.1645Z" fill="white"/>
<path d="M55.9717 35.7549C55.8457 35.5786 55.6235 35.4929 55.4167 35.5272C55.2023 35.5637 55.0287 35.7185 54.9679 35.9269L51.5772 47.5638L50.8973 45.6772C50.8243 45.4765 50.6463 45.3339 50.434 45.3074C50.2229 45.2825 50.015 45.3759 49.8956 45.5517L48.1865 48.0779L47.375 45.7562C47.2932 45.5235 47.0721 45.3544 46.8233 45.3776C46.5757 45.3853 46.3623 45.5528 46.296 45.7905L44.3436 52.7775L43.3851 51.3928C43.2668 51.2215 43.0722 51.1286 42.8544 51.1524C42.6477 51.1762 42.4697 51.3127 42.3934 51.5067L40.839 55.4485C40.6926 55.8188 40.9651 56.2224 41.3653 56.2224C41.5908 56.2224 41.8042 56.0864 41.8915 55.8642L43.0568 52.9085L44.0982 54.4132C44.222 54.5945 44.4365 54.6846 44.6576 54.6498C44.8743 54.6133 45.0501 54.4552 45.1086 54.244L46.9007 47.8308L47.49 49.5151C47.5607 49.7168 47.7387 49.8622 47.951 49.8893C48.161 49.9197 48.3722 49.823 48.4927 49.6455L50.2096 47.1078L51.1018 49.5825C51.1858 49.8125 51.3903 49.9717 51.6524 49.9562C51.8978 49.949 52.11 49.7843 52.1786 49.5488L55.7296 37.3591L56.3542 38.228C56.5366 38.4823 56.8893 38.5387 57.1447 38.3579C57.3979 38.1755 57.4565 37.8218 57.274 37.568L55.9717 35.7549Z" fill="white"/>
</svg>
