<svg width="93" height="92" viewBox="0 0 93 92" fill="none" xmlns="http://www.w3.org/2000/svg">
<rect x="0.5" width="92" height="92" rx="46" fill="black"/>
<path d="M27.3755 68.9688C27.3761 69.17 27.4833 69.3557 27.6569 69.4563C27.7715 69.5229 34.0296 73.1598 33.915 73.0932L33.9164 73.0946C34.0886 73.1938 34.3048 73.1961 34.4819 73.0941L65.4316 55.2252C65.6074 55.1235 65.7152 54.9361 65.7146 54.7332C65.7037 50.8566 65.6326 25.6882 65.6251 23.0313C65.6243 22.7996 65.4569 22.6094 65.3437 22.5437L65.3424 22.543L65.3415 22.5421L65.3403 22.5417L59.0858 18.907C58.9094 18.8042 58.6933 18.8053 58.5181 18.9059L54.0091 21.5089C53.7383 21.6654 53.6454 22.0114 53.8018 22.2823C53.9583 22.552 54.3043 22.6454 54.5752 22.4895L58.8 20.0502L63.9296 23.0313L34.1102 40.2471L28.9807 37.2662L48.7362 25.8609C49.0071 25.7045 49.1 25.3584 48.9435 25.0876C48.7865 24.8156 48.4389 24.7238 48.1702 24.8803L27.5684 36.7743C27.3915 36.8767 27.2859 37.0652 27.2854 37.264L27.2857 37.2651L27.2854 37.2662L27.3755 68.9688ZM64.4958 24.0119L64.5145 30.7915C53.354 37.235 45.8095 41.5909 34.6955 48.0076C34.6952 47.8936 34.6756 40.9166 34.6765 41.2275C41.5758 37.2443 57.5377 28.029 64.4958 24.0119ZM28.4202 38.2497L33.5442 41.2275C33.5515 43.7944 33.6196 67.9009 33.6301 71.6187L28.5065 68.641L28.4202 38.2497ZM34.7622 71.6248C34.7443 65.294 34.7226 57.6035 34.6992 49.3129C45.8713 42.8626 53.3892 38.5222 64.5184 32.0967L64.5814 54.4088L34.7622 71.6248Z" fill="white"/>
<path d="M50.7212 24.7145L52.7853 23.5233C53.0561 23.3668 53.149 23.0208 52.9926 22.75C52.8356 22.4791 52.4879 22.3857 52.2192 22.5427L50.1552 23.7339C49.8843 23.8903 49.7915 24.2364 49.9479 24.5072C50.1059 24.7799 50.453 24.8695 50.7212 24.7145Z" fill="white"/>
<path d="M56.5994 34.3178C57.5524 33.7678 58.2959 32.4781 58.2925 31.3831C58.289 30.0403 57.1744 29.4184 56.024 30.0852C55.0682 30.6369 54.3214 31.9276 54.3242 33.0237C54.3289 34.3546 55.4426 34.985 56.5994 34.3178ZM56.59 31.0658C56.9852 30.837 57.1594 30.9326 57.1605 31.3859C57.1627 32.0774 56.6359 32.9894 56.0334 33.3371C55.6536 33.5554 55.4573 33.4947 55.4563 33.0204C55.4546 32.3289 55.9842 31.4152 56.59 31.0658Z" fill="white"/>
<path d="M51.3492 37.3475C52.3016 36.7975 53.0456 35.5085 53.0429 34.4123C53.0382 33.0793 51.9345 32.4442 50.7738 33.115C49.8175 33.6672 49.0712 34.9579 49.0745 36.0535C49.078 37.382 50.1906 38.0158 51.3492 37.3475ZM51.3398 34.0956C51.714 33.8789 51.9097 33.9304 51.9108 34.4156C51.9125 35.1071 51.3857 36.0192 50.7832 36.3669C50.4015 36.5861 50.2077 36.5228 50.2066 36.0502C50.2044 35.3587 50.734 34.4449 51.3398 34.0956Z" fill="white"/>
<path d="M61.843 31.2886C62.7987 30.7369 63.5455 29.4462 63.5428 28.35C63.5381 27.0193 62.4316 26.3847 61.2681 27.056C60.3124 27.6077 59.5656 28.8984 59.5683 29.9945C59.573 31.3226 60.6839 31.9571 61.843 31.2886ZM61.8341 28.0366C62.2677 27.7866 62.4098 27.9372 62.4107 28.3533C62.4123 29.0449 61.8828 29.9586 61.277 30.3079C60.8995 30.5247 60.7015 30.468 60.7004 29.9912C60.6988 29.2997 61.2283 28.386 61.8341 28.0366Z" fill="white"/>
<path d="M57.0682 48.1674L54.2905 49.771C54.0196 49.9274 53.9268 50.2735 54.0832 50.5443C54.24 50.8159 54.5871 50.9072 54.8565 50.7516L57.6342 49.148C57.905 48.9916 57.9979 48.6456 57.8415 48.3747C57.685 48.1038 57.3374 48.011 57.0682 48.1674Z" fill="white"/>
<path d="M60.8966 45.9575L59.1587 46.9607C58.8879 47.1172 58.795 47.4632 58.9514 47.7341C59.1094 48.0067 59.4565 48.0963 59.7248 47.9414L61.4627 46.9381C61.7335 46.7816 61.8264 46.4356 61.67 46.1647C61.513 45.8928 61.1664 45.7999 60.8966 45.9575Z" fill="white"/>
<path d="M44.7182 46.1039C40.7443 48.3985 37.5222 53.977 37.5354 58.5396C37.5491 63.347 41.0946 65.4376 45.3295 62.9927C49.2995 60.7004 52.5189 55.1174 52.5061 50.5465C52.4924 45.7237 48.9182 43.6804 44.7182 46.1039ZM44.7635 62.0121C41.3101 64.0071 38.679 62.4891 38.6675 58.5363C38.6554 54.3352 41.6237 49.1978 45.2842 47.0845C48.7268 45.0931 51.3626 46.609 51.3741 50.5499C51.3857 54.7587 48.4201 59.9011 44.7635 62.0121Z" fill="white"/>
<path d="M46.2057 53.966C45.7883 53.7261 45.2538 53.7593 44.7397 54.0556C44.559 54.1595 44.4346 54.165 44.4003 54.1462C44.366 54.1263 44.3108 54.0191 44.3102 53.8157C44.3086 53.2109 44.7701 52.4133 45.2975 52.1087C45.4766 52.0048 45.5993 51.9982 45.6324 52.0197C45.6673 52.0396 45.722 52.1469 45.7225 52.3503C45.7237 52.6626 45.9862 52.9578 46.2902 52.9147C46.6026 52.9135 46.8557 52.6598 46.8546 52.347C46.853 51.7549 46.6136 51.2779 46.1974 51.0385C46.0119 50.9317 45.8008 50.8875 45.5805 50.8882V50.2614C45.5805 49.9485 45.3273 49.6953 45.0144 49.6953C44.7016 49.6953 44.4484 49.9485 44.4484 50.2614V51.3558C43.7206 51.9304 43.1757 52.9308 43.1781 53.819C43.1804 54.4116 43.4197 54.888 43.8359 55.1274C44.2538 55.3673 44.79 55.3347 45.3058 55.0362C45.4843 54.9339 45.6065 54.929 45.6407 54.9472C45.6756 54.9671 45.7303 55.0743 45.7308 55.2778C45.7325 55.8808 45.2731 56.6763 44.748 56.9792C44.5673 57.0831 44.4423 57.0886 44.4075 57.0698C44.3738 57.0499 44.3191 56.9444 44.3185 56.7431C44.3174 56.4314 44.0642 56.1793 43.7525 56.1793H43.7503C43.4379 56.1804 43.1853 56.4347 43.1864 56.7476C43.1886 57.3368 43.428 57.8122 43.8431 58.051C44.0264 58.156 44.2321 58.2083 44.4484 58.2094V58.837C44.4484 59.1499 44.7016 59.4031 45.0144 59.4031C45.3273 59.4031 45.5805 59.1499 45.5805 58.837V57.7454C46.3142 57.1747 46.8654 56.1676 46.8629 55.2744C46.8613 54.6824 46.6219 54.2054 46.2057 53.966Z" fill="white"/>
</svg>
