<svg width="93" height="92" viewBox="0 0 93 92" fill="none" xmlns="http://www.w3.org/2000/svg">
<rect x="0.5" width="92" height="92" rx="46" fill="black"/>
<path d="M32.0542 69.4994C32.0547 69.7006 32.1619 69.8864 32.3355 69.987C32.4501 70.0536 37.7956 73.1598 37.681 73.0932L37.6825 73.0946C37.8546 73.1938 38.0708 73.1961 38.248 73.0941L60.7684 60.0918C60.9442 59.9901 61.052 59.8027 61.0514 59.5998C61.0453 57.4237 61.0702 66.2173 60.9464 22.5006C60.9457 22.2689 60.7783 22.0788 60.665 22.0131L60.6637 22.0123L60.6628 22.0114L60.6617 22.0111L55.3203 18.907C55.144 18.8048 54.9278 18.8048 54.7526 18.9059L49.572 21.8964C49.3012 22.0529 49.2083 22.3989 49.3647 22.6697C49.5212 22.9406 49.8678 23.0318 50.1381 22.877L55.0345 20.0502L59.251 22.5006L37.8602 34.8503L33.6439 32.4002L45.806 25.3783C46.0769 25.2219 46.1697 24.8759 46.0133 24.605C45.8563 24.333 45.5097 24.2413 45.24 24.3977L32.2316 31.9082C32.0546 32.0107 31.9491 32.1992 31.9486 32.398L31.9489 32.3991L31.9486 32.4002L32.0542 69.4994ZM59.8171 23.4812L59.8409 32.0722L47.5483 39.1694L46.8546 37.4415C46.726 37.1198 46.3419 36.9922 46.0465 37.1623L41.6718 39.6885C41.5336 39.7686 41.4352 39.9029 41.4015 40.0588L40.7421 43.0991L38.4508 44.4218L38.4265 35.8308C43.462 32.9236 54.7919 26.3824 59.8171 23.4812ZM33.0834 33.3837L37.2942 35.8307L37.3187 44.4158L33.1078 41.9687L33.0834 33.3837ZM33.1115 43.28L37.3224 45.727L37.3961 71.6187L33.1851 69.1716L33.1115 43.28ZM38.5282 71.6248L38.4547 45.7271L41.5253 43.9542C41.6635 43.8741 41.7619 43.7397 41.7956 43.5838L42.4551 40.5436L46.0476 38.4691L46.7413 40.197C46.8021 40.349 46.9265 40.4673 47.0818 40.5209C47.2349 40.574 47.4074 40.5585 47.5494 40.4762L59.8447 33.3775L59.9183 59.2754L38.5282 71.6248Z" fill="white"/>
<path d="M47.5633 24.3639L48.5864 23.773C48.8573 23.6166 48.9502 23.2706 48.7937 22.9997C48.6367 22.7277 48.289 22.636 48.0204 22.7924L46.9972 23.3833C46.7264 23.5398 46.6335 23.8858 46.7899 24.1567C46.9468 24.4282 47.2939 24.5196 47.5633 24.3639Z" fill="white"/>
<path d="M53.0003 33.4609C53.8483 32.9712 54.5105 31.8236 54.5077 30.8485C54.5042 29.6345 53.4828 29.046 52.4265 29.6573C51.5758 30.1487 50.9114 31.2979 50.9142 32.273C50.9176 33.4808 51.9418 34.0706 53.0003 33.4609ZM52.9926 30.6379C53.3051 30.4585 53.3748 30.538 53.3757 30.8518C53.3773 31.4289 52.9373 32.1901 52.4343 32.4803C52.1452 32.646 52.0472 32.6074 52.0462 32.2697C52.0446 31.6926 52.4868 30.9298 52.9926 30.6379Z" fill="white"/>
<path d="M48.4438 36.0905C49.2918 35.6008 49.954 34.4532 49.9512 33.4781C49.9477 32.2646 48.926 31.677 47.8695 32.2875C47.0188 32.7783 46.3543 33.927 46.3571 34.9026C46.3606 36.1148 47.3895 36.6998 48.4438 36.0905ZM48.4355 33.2681C48.7442 33.0894 48.8183 33.1706 48.8192 33.4814C48.8208 34.0585 48.3808 34.8197 47.8778 35.1099C47.5912 35.2757 47.4902 35.236 47.4892 34.8993C47.4875 34.3222 47.9297 33.5599 48.4355 33.2681Z" fill="white"/>
<path d="M57.5518 30.832C58.4025 30.3405 59.067 29.1913 59.0642 28.2162C59.0607 27.0046 58.0377 26.4171 56.9781 27.0283C56.1273 27.5198 55.4629 28.669 55.4657 29.6441C55.4692 30.8542 56.495 31.4406 57.5518 30.832ZM57.5441 28.009C57.8378 27.8393 57.9313 27.883 57.9321 28.2196C57.9338 28.7967 57.4916 29.5595 56.9858 29.8513C56.6948 30.0185 56.5987 29.9776 56.5978 29.6407C56.5961 29.0636 57.0383 28.3008 57.5441 28.009Z" fill="white"/>
<path d="M56.5745 39.2877L47.2172 44.6899C46.9464 44.8463 46.8535 45.1924 47.0099 45.4632C47.1668 45.7348 47.5139 45.8261 47.7833 45.6705L57.1406 40.2683C57.4114 40.1118 57.5043 39.7658 57.3479 39.4949C57.1914 39.223 56.8437 39.1312 56.5745 39.2877Z" fill="white"/>
<path d="M56.5745 43.5744L47.2172 48.9766C46.9464 49.1331 46.8535 49.4791 47.0099 49.75C47.1668 50.0215 47.5139 50.1129 47.7833 49.9572L57.1406 44.555C57.4114 44.3986 57.5043 44.0525 57.3479 43.7817C57.1914 43.5097 56.8437 43.4169 56.5745 43.5744Z" fill="white"/>
<path d="M56.5745 47.8611L47.2172 53.2634C46.9464 53.4198 46.8535 53.7658 47.0099 54.0367C47.1668 54.3083 47.5139 54.3996 47.7833 54.244L57.1406 48.8418C57.4114 48.6853 57.5043 48.3393 57.3479 48.0684C57.1914 47.797 56.8437 47.7042 56.5745 47.8611Z" fill="white"/>
<path d="M43.6319 56.3705V55.0092C44.53 54.3464 45.201 53.1007 45.198 52.0213C45.1945 50.5969 44.0244 49.9291 42.7928 50.6405C42.3224 50.9138 42.0826 50.7935 42.0814 50.2403C42.0792 49.4487 42.6596 48.4443 43.3489 48.0469C43.8129 47.7757 44.0547 47.8947 44.0559 48.4498C44.057 48.7616 44.3102 49.0142 44.622 49.0142H44.6236C44.9359 49.0131 45.1891 48.7594 45.188 48.4465C45.1855 47.4443 44.5773 46.7092 43.6319 46.7881V45.8999C43.6319 45.587 43.3788 45.3339 43.0659 45.3339C42.753 45.3339 42.4999 45.587 42.4999 45.8999V47.2614C41.6091 47.9287 40.9464 49.1687 40.9494 50.2436C40.9528 51.6648 42.1215 52.3371 43.3589 51.6211C43.8292 51.3473 44.0647 51.4755 44.0659 52.0246C44.0681 52.7996 43.4777 53.8206 42.8028 54.2103C42.3264 54.4865 42.0926 54.3574 42.0914 53.8145C42.0903 53.5027 41.8371 53.2501 41.5253 53.2501H41.5237C41.2114 53.2512 40.9582 53.5049 40.9593 53.8178C40.9619 54.8797 41.607 55.4794 42.3832 55.4794C42.421 55.4794 42.4615 55.4648 42.4999 55.4621V56.3705C42.4999 56.6834 42.753 56.9365 43.0659 56.9365C43.3788 56.9365 43.6319 56.6834 43.6319 56.3705Z" fill="white"/>
<path d="M54.7156 52.51C54.4453 52.3524 54.0987 52.4469 53.9422 52.7172L51.1977 57.4711L49.1707 57.03C48.8733 56.9658 48.5848 57.1427 48.5046 57.4324L47.4571 61.2172L45.4301 60.9452C45.1781 60.9126 44.937 61.0475 44.8364 61.2797L43.2113 64.9971C43.0858 65.2834 43.2168 65.6173 43.5032 65.7422C43.783 65.8663 44.1215 65.7409 44.2483 65.4503L45.7026 62.1237L47.796 62.4046C48.0773 62.4383 48.3416 62.2669 48.4167 61.9944L49.4532 58.2505L51.3608 58.6656C51.6029 58.7143 51.8483 58.6081 51.9716 58.3953L54.9229 53.2833C55.0793 53.0124 54.9864 52.6664 54.7156 52.51Z" fill="white"/>
</svg>
