<svg width="93" height="92" viewBox="0 0 93 92" fill="none" xmlns="http://www.w3.org/2000/svg">
<rect x="0.5" width="92" height="92" rx="46" fill="black"/>
<path d="M64.749 23.0464C64.7484 22.1266 64.4057 21.4235 63.7827 21.0675C62.6869 20.4452 61.4414 19.7032 60.3528 19.0687C59.7243 18.7116 58.9421 18.7691 58.1483 19.229L30.7629 35.0438C29.3097 35.8873 28.1815 37.8508 28.1942 39.5091L28.2511 64.4357C28.2511 65.3555 28.6027 66.073 29.1991 66.3959C30.2338 66.997 32.5325 68.3553 32.6927 68.4238C33.3856 68.7965 34.1564 68.6391 34.8407 68.2421C34.9281 68.1903 37.9488 66.4465 38.0364 66.3959L38.0319 67.0282C38.0319 68.7385 39.138 70.3161 41.1456 71.4703C45.0544 73.7238 51.4086 73.7308 55.3082 71.4692C57.2799 70.3272 58.3733 68.7673 58.3866 67.0758L58.3982 64.3086C58.3982 64.2986 58.3982 64.2876 58.3982 64.2776C58.3982 62.5696 57.2882 60.9887 55.2734 59.8256C54.539 59.4015 53.7036 59.0656 52.8098 58.7977L52.6537 57.9548L62.2256 52.4273C63.6727 51.5871 64.8059 49.627 64.8059 47.9632L64.749 23.0464ZM29.7541 65.4097C29.522 65.2837 29.3832 64.92 29.3832 64.4346L29.3263 39.5035C29.3169 38.2532 30.235 36.6601 31.3301 36.0233C31.9184 35.6836 58.8485 20.1316 58.7155 20.2085C59.0296 20.0272 59.4767 19.8724 59.7873 20.0493L61.6943 21.167C61.5526 21.2367 63.4088 20.1742 34.2045 37.0371C32.7579 37.8762 31.6247 39.8407 31.6247 41.5123L31.6811 66.4279C31.6811 66.4644 31.6816 66.5009 31.6827 66.5363L29.7541 65.4097ZM54.7405 70.4897C51.1591 72.5659 45.3146 72.567 41.71 70.4886C40.0804 69.5522 39.1772 68.3339 39.1639 67.0603C39.6975 67.6909 40.4213 68.2574 41.1672 68.6843C45.0743 70.9425 51.4218 70.9532 55.3237 68.6821C56.087 68.2311 56.6873 67.7535 57.1478 67.2328C57.1837 67.1941 57.2191 67.1554 57.2539 67.1167C57.2219 68.3715 56.3319 69.5677 54.7405 70.4897ZM53.0451 60.0467C53.6438 60.259 54.2004 60.5133 54.7073 60.8051C58.0084 62.7117 58.2127 65.661 54.751 67.7048C51.1648 69.7953 45.3258 69.7815 41.7321 67.7037C40.9194 67.2389 40.0721 66.5497 39.6117 65.7347C39.5756 65.6764 39.5561 65.6042 39.5251 65.5432C39.6398 65.4768 43.4242 63.2842 43.1903 63.4197L42.8039 66.0753C42.7702 66.3041 42.8797 66.5307 43.0803 66.6468L45.5031 68.0498C45.5873 68.0988 45.8541 68.156 46.0332 68.0697C46.1468 68.0149 53.474 63.8115 53.3602 63.8387C53.5675 63.7193 53.6775 63.4817 53.6338 63.2462L53.0451 60.0467ZM44.439 62.6986L46.0638 61.7603L45.3478 66.6512L43.9791 65.8597L44.439 62.6986ZM52.4481 63.0582L46.5164 66.4854L47.3134 61.0387L51.6157 58.5543L52.4481 63.0582ZM61.6584 51.4478C61.5319 51.5209 32.5079 68.2813 34.2758 67.2604C34.2736 67.2626 34.2725 67.2637 34.2703 67.2637C33.3453 67.7988 32.8132 67.3703 32.8132 66.4268L32.7568 41.5112C32.7568 40.2509 33.6799 38.6501 34.7716 38.0166L62.1609 22.2106C62.9425 21.7488 63.6169 21.9431 63.6169 23.0475L63.6738 47.9643C63.6738 49.2179 62.7501 50.8132 61.6584 51.4478Z" fill="white"/>
<path d="M61.6015 24.8662C61.4263 24.7667 61.2113 24.7656 61.036 24.8673L34.7717 40.0254C34.5959 40.126 34.4881 40.3139 34.4886 40.5162L34.545 62.1727C34.5456 62.375 34.6534 62.5618 34.8286 62.6624C35.0009 62.7606 35.2148 62.7651 35.3941 62.6613L61.6585 47.5032C61.8342 47.4026 61.942 47.2147 61.9415 47.0124L61.8851 25.3559C61.8845 25.1536 61.7768 24.9668 61.6015 24.8662ZM35.6743 61.1932L35.6218 40.8412L60.7558 26.3354L60.8083 46.6874L35.6743 61.1932Z" fill="white"/>
<path d="M48.7197 56.3387L47.1466 57.2464C46.8757 57.4022 46.7828 57.7483 46.9393 58.0191C47.0969 58.2912 47.4449 58.3822 47.7126 58.2259L49.2858 57.3182C49.5566 57.1623 49.6495 56.8163 49.4931 56.5454C49.3355 56.2746 48.9889 56.1795 48.7197 56.3387Z" fill="white"/>
<path d="M57.1003 45.3276L39.1667 55.5516V42.1116C39.1667 41.7987 38.9136 41.5455 38.6007 41.5455C38.2878 41.5455 38.0347 41.7987 38.0347 42.1116V56.5256C38.0347 56.8351 38.2851 57.0917 38.6007 57.0917C38.6974 57.0917 38.7942 57.0673 38.881 57.0176L57.6608 46.3115C57.9322 46.1567 58.0273 45.8107 57.8725 45.5388C57.7172 45.2679 57.3717 45.1739 57.1003 45.3276Z" fill="white"/>
<path d="M41.2573 50.0636C41.2606 50.0636 41.2645 50.0636 41.2684 50.0636C41.5813 50.057 41.8294 49.7994 41.8234 49.4865C41.7902 47.8227 42.3535 45.6514 43.2357 44.1346C43.949 42.9056 44.67 42.3427 45.5584 43.437C46.3093 44.3588 46.2437 45.8484 47.0012 46.9858C48.0639 48.5793 50.1644 48.6761 51.2177 46.0218C51.8915 44.3192 52.2525 42.5139 52.6019 40.7682C52.9484 39.0347 53.3066 37.2416 53.97 35.6054C54.1772 35.0946 54.4459 34.5131 54.8677 34.0841C55.2612 33.6839 55.7571 33.4816 56.1954 33.517C56.6199 33.5612 56.998 33.9006 57.0213 34.2588C57.0417 34.5706 57.3153 34.8138 57.6227 34.7873C57.935 34.7674 58.171 34.4976 58.1511 34.1858C58.0925 33.2804 57.2844 32.4921 56.3115 32.3915C55.5387 32.3131 54.693 32.6469 54.0606 33.2904C53.5001 33.8608 53.1695 34.5661 52.9208 35.1808C52.2171 36.9154 51.8484 38.7606 51.4919 40.546C51.1525 42.243 50.8015 43.9975 50.1652 45.6039C49.4853 47.3187 48.5459 47.2628 47.9431 46.3579C47.6403 45.9037 47.4979 45.3061 47.3461 44.7416C47.1676 44.0871 46.9354 43.3364 46.4373 42.7228C45.3697 41.4105 43.6973 41.0832 42.2142 43.6393C41.2662 45.27 40.6543 47.6292 40.6913 49.5087C40.6974 49.8171 40.9494 50.0636 41.2573 50.0636Z" fill="white"/>
<path d="M48.6335 41.6914C49.681 41.0867 50.4985 39.6705 50.4952 38.4666C50.4918 37.0385 49.321 36.3538 48.0575 37.0791C47.0139 37.6816 46.1991 39.0934 46.2024 40.2929C46.2059 41.7378 47.3885 42.4117 48.6335 41.6914ZM48.6235 38.0608C49.0946 37.7907 49.3619 37.8804 49.3631 38.4688C49.3654 39.278 48.7722 40.3051 48.0675 40.7108C47.5507 41.0072 47.3356 40.8289 47.3345 40.2907C47.3323 39.4991 47.9348 38.4577 48.6235 38.0608Z" fill="white"/>
<path d="M55.9599 38.5506L55.9588 38.5517C54.9157 39.1542 54.1009 40.5671 54.1043 41.7655C54.1077 43.204 55.2819 43.8853 56.5359 43.164C57.5828 42.5593 58.4004 41.1431 58.3971 39.938C58.3936 38.5103 57.2235 37.8275 55.9599 38.5506ZM55.9693 42.1834C55.4937 42.4578 55.2376 42.3416 55.2363 41.7633C55.2341 40.9585 55.8239 39.9369 56.5248 39.5323C57.0025 39.2552 57.2638 39.3624 57.265 39.9402C57.2672 40.7495 56.6741 41.7766 55.9693 42.1834Z" fill="white"/>
<path d="M44.25 46.6421C43.3059 47.1871 42.5696 48.464 42.5729 49.5485C42.5764 50.8758 43.6767 51.5096 44.8254 50.8431C45.7718 50.297 46.5114 49.0157 46.5086 47.9267C46.504 46.6037 45.3997 45.9732 44.25 46.6421ZM44.2594 49.8636C43.8868 50.0779 43.7061 50.0174 43.705 49.5452C43.7028 48.8642 44.2218 47.9654 44.816 47.6216C45.1895 47.4079 45.3754 47.4596 45.3765 47.93C45.3782 48.6276 44.8669 49.5121 44.2594 49.8636Z" fill="white"/>
</svg>
