<svg width="93" height="92" viewBox="0 0 93 92" fill="none" xmlns="http://www.w3.org/2000/svg">
<rect x="0.5" width="92" height="92" rx="46" fill="black"/>
<path d="M26.4715 65.6215C27.1061 65.988 27.7816 66.3368 28.4786 66.6585C28.7644 66.7895 29.0994 66.6657 29.2298 66.3815C29.3608 66.0974 29.2364 65.7613 28.9529 65.6303C28.2868 65.3235 27.6428 64.9902 27.0375 64.6409C22.7878 62.1877 20.4524 58.9578 20.4623 55.5461L20.5049 40.6462C24.7703 48.572 37.9208 51.0988 47.0473 50.2428L46.9964 68.3289C43.6798 68.6473 40.2355 68.5396 36.9996 68.0133C36.6944 67.9658 36.4004 68.1731 36.3501 68.4815C36.3003 68.79 36.5098 69.0807 36.8183 69.131C38.9017 69.4693 41.0691 69.6396 43.2348 69.6396C44.7069 69.6396 46.1783 69.5611 47.6222 69.403C47.9091 69.3715 48.1263 69.1299 48.1269 68.8419L48.181 49.6182C48.1812 49.5839 48.1662 49.553 48.1603 49.5198C48.1555 49.4923 48.1611 49.4643 48.1523 49.4374L44.0231 37.0438L65.5029 39.399L65.4879 44.7485L50.3026 43.0839C49.9721 43.0448 49.6756 43.3237 49.6746 43.6449L49.6403 55.6594C49.6403 55.7208 49.6497 55.7816 49.6691 55.8396C49.7073 55.9545 54.1267 69.2083 54.0835 69.0924C54.1712 69.3278 54.42 69.487 54.6689 69.4594C61.8583 68.6791 71.426 65.2612 73.6096 58.3382C73.6267 58.2834 73.6356 58.2265 73.6356 58.1696L73.6699 46.1545C73.6699 45.8776 73.4461 45.6334 73.1906 45.5935C73.0773 45.5758 66.5063 44.8474 66.6196 44.8726L66.6362 38.963C68.0565 34.3379 65.5399 29.6349 59.8766 26.3648C50.6248 21.0233 35.6182 21.0261 26.4228 26.3697C21.9019 28.9971 19.4089 32.5219 19.3895 36.2984C19.3892 36.3057 19.385 36.3117 19.385 36.3191L19.3302 55.5428C19.3192 59.3774 21.8553 62.9566 26.4715 65.6215ZM72.3129 46.6356C72.2923 46.6857 72.2767 46.7367 72.255 46.7866C69.7417 52.5769 61.2965 55.5063 55.0323 56.2598C54.6361 55.0687 51.3726 45.2559 51.0565 44.3055L72.3129 46.6356ZM50.7967 47.1127L54.076 56.973L54.0519 65.4306L50.7724 55.5704L50.7967 47.1127ZM72.5035 58.0784C70.4738 64.2873 61.6397 67.4506 55.1759 68.2604L55.207 57.3863C61.3718 56.6386 69.1775 53.9335 72.5306 48.6796L72.5035 58.0784ZM26.9922 27.3481C31.4343 24.7667 37.2804 23.476 43.1342 23.476C48.9848 23.476 54.8425 24.7662 59.3105 27.3454C64.3335 30.2458 66.6756 34.3031 65.6585 38.277L43.2691 35.8221C43.0707 35.7995 42.8877 35.8791 42.7666 36.0294C42.6456 36.1792 42.6091 36.381 42.6699 36.5639L46.8482 49.1054C41.2705 49.613 35.2178 48.985 29.9102 46.775C25.1899 44.8093 20.5135 41.3229 20.5183 36.3379C20.5204 32.9662 22.818 29.7738 26.9922 27.3481Z" fill="white"/>
<path d="M33.9543 68.5484C33.9997 68.56 34.0456 68.565 34.0903 68.565C34.3446 68.565 34.5757 68.3925 34.6392 68.1344C34.7144 67.8309 34.5287 67.5241 34.2252 67.4495C33.3203 67.2267 32.4359 66.968 31.5957 66.6817C31.2999 66.58 30.9777 66.7386 30.8771 67.0343C30.7759 67.3306 30.934 67.6523 31.2297 67.7529C32.1015 68.0503 33.018 68.3179 33.9543 68.5484Z" fill="white"/>
</svg>
