<svg width="93" height="92" viewBox="0 0 93 92" fill="none" xmlns="http://www.w3.org/2000/svg">
<rect x="0.5" width="92" height="92" rx="46" fill="black"/>
<path d="M68.9354 39.6895C68.6214 39.653 68.3456 39.8829 68.314 40.1936C68.2251 41.0427 68.0957 41.9194 67.9299 42.7994C67.8718 43.1067 68.0736 43.403 68.3809 43.4605C68.4163 43.4671 68.4517 43.4704 68.4865 43.4704C68.7535 43.4704 68.9906 43.2814 69.042 43.0094C69.214 42.0996 69.3477 41.1919 69.4395 40.3108C69.4721 40.0001 69.2466 39.7215 68.9354 39.6895Z" fill="white"/>
<path d="M63.6824 24.1046C61.9686 23.1179 67.4284 26.3034 56.9867 20.2098C49.9374 16.1203 40.4994 21.8404 34.9803 27.9342C28.3359 35.125 23.3843 45.775 23.4075 55.1052C23.4262 60.0864 24.9942 65.3932 29.2934 67.9096L33.9372 70.6065C38.2026 74.6313 45.1784 73.3946 50.2197 70.4844C57.0602 66.5354 63.4613 58.6263 66.9283 49.835C67.5203 48.2519 68.0211 46.6898 68.4174 45.1918C68.4976 44.89 68.3174 44.5793 68.015 44.4997C67.7132 44.4179 67.4031 44.6003 67.323 44.9021C66.936 46.3636 66.4468 47.8904 65.8714 49.4293C62.4978 57.984 56.2836 65.6764 49.6536 69.5037C45.1403 72.108 38.5863 73.4921 34.6735 69.7481C34.6712 69.7458 34.6703 69.7426 34.668 69.7403C31.5436 66.7365 31.0288 61.1974 31.3564 56.8992C32.0373 48.1161 36.6967 38.9183 42.7744 32.3597C42.7776 32.3563 42.7812 32.3529 42.7844 32.3494C48.0963 26.7028 56.088 21.6611 63.0925 25.0744C63.1006 25.0791 63.1099 25.0817 63.118 25.0864C66.5469 27.0587 68.4445 31.252 68.4606 36.8925C68.4617 37.2053 68.7148 37.4574 69.0266 37.4574H69.0283C69.3406 37.4563 69.5937 37.202 69.5926 36.8902C69.5755 30.8286 67.4761 26.2881 63.6824 24.1046ZM56.4168 21.1882L59.1505 22.7839C57.5399 22.6818 55.769 22.9521 54.2385 23.4001L48.8978 20.2842C49.8486 20.0747 50.7728 19.9633 51.6596 19.9633C53.4031 19.9633 55.0089 20.3701 56.4168 21.1882ZM47.3718 20.7039L52.8141 23.8792C50.9032 24.6065 48.7822 25.7265 46.3498 27.5919L40.6972 24.2993C42.635 22.8717 44.6941 21.5774 47.3718 20.7039ZM30.6678 53.4502L24.9797 50.1315C25.4786 47.2381 26.3916 44.2558 27.6504 41.334L33.3979 44.6819C32.3123 47.1776 31.2564 50.2791 30.6678 53.4502ZM24.5396 55.1018C24.5365 53.8794 24.6328 52.6189 24.8036 51.3389L30.4756 54.6482C30.3583 55.4415 30.2649 56.3328 30.2279 56.8146C30.1003 58.4678 30.056 60.2013 30.3841 62.6452L25.0173 59.5161C24.7183 58.1663 24.5455 56.6993 24.5396 55.1018ZM33.8715 43.6488L28.119 40.2981C29.3559 37.6171 30.8816 35.0076 32.6474 32.5797L38.3883 35.9274C36.4698 38.5861 35.0993 41.0075 33.8715 43.6488ZM35.8155 28.6982C37.0343 27.3529 38.3439 26.1375 39.72 25.039L45.4 28.3476C44.062 29.4514 42.8434 30.6143 41.9436 31.5903C40.5994 33.0419 40.1995 33.5326 39.0698 35.0148L33.3218 31.663C34.1112 30.6342 34.9431 29.6423 35.8155 28.6982ZM32.107 68.2346L29.8633 66.9312C27.806 65.7271 26.3133 63.7092 25.4385 61.0716L30.6292 64.0981C30.9233 65.5135 31.3996 66.9736 32.107 68.2346Z" fill="white"/>
<path d="M49.5447 31.8888C41.9066 36.2977 35.7127 47.0203 35.7376 55.7906C35.7629 64.8708 42.3414 68.5875 50.1992 64.0501C57.8313 59.6434 64.0196 48.9119 63.9942 40.1273C63.9689 31.0915 57.4115 27.3472 49.5447 31.8888ZM49.6332 63.0706C42.4456 67.2172 36.8924 63.89 36.8697 55.7884C36.8459 47.3785 42.786 37.097 50.1108 32.8683C57.2399 28.7551 62.8392 31.9931 62.8621 40.1295C62.8864 48.5526 56.9519 58.8441 49.6332 63.0706Z" fill="white"/>
<path d="M53.727 48.7471C52.7389 48.8907 52.108 48.4392 52.486 47.1518L52.5761 46.8578C52.9871 45.491 53.8662 44.2255 54.7518 42.8767C55.8137 41.2372 56.3499 39.8133 56.3466 38.6458C56.3433 37.485 55.9221 36.605 55.1598 36.1661C52.7558 34.779 49.4618 38.4488 49.0832 41.5578C48.9688 42.5484 49.1213 43.3908 49.5204 43.9867C49.8631 44.514 49.883 45.4946 49.5729 46.5427C49.3135 47.4104 48.2749 48.416 47.934 47.9069C47.2331 46.7837 45.8605 46.5913 44.4405 47.4105C44.3802 47.4448 44.3188 47.4813 44.2614 47.5189C41.9602 48.9804 40.2278 52.8598 41.5423 54.978C42.1594 55.9709 43.4559 56.3832 45.0264 55.4799C45.8202 55.0222 46.5852 54.2682 47.1805 53.3573C47.9499 52.1819 49.4516 50.9346 49.6829 51.2656C49.8344 51.4767 49.8792 51.982 49.6188 52.5955C49.2645 53.4335 49.0782 54.2782 49.0799 55.0399C49.0867 57.4151 50.9316 58.5032 53.0244 57.293C54.9138 56.2018 56.3892 53.6458 56.3831 51.4745C56.3781 49.7095 55.3258 48.5094 53.727 48.7471ZM52.4584 56.3135C51.1466 57.0733 50.2166 56.5548 50.2119 55.0377C50.2103 54.4274 50.3662 53.7353 50.6608 53.0366C51.0483 52.1257 51.0256 51.1937 50.6033 50.6067C49.5098 49.0699 47.2785 51.1408 46.2331 52.7381C45.7328 53.5032 45.1032 54.1289 44.4615 54.4993C43.756 54.9048 42.9324 55.069 42.5041 54.381C41.6246 52.9637 42.9281 49.7068 44.8716 48.4719L45.0026 48.3934C45.3299 48.2032 46.4398 47.6515 46.9788 48.5139C47.9041 49.9461 50.0473 48.9092 50.658 46.8655C51.072 45.4648 51.003 44.1912 50.4651 43.3631C50.2175 42.9928 50.1257 42.398 50.207 41.6916C50.4557 39.6496 53.0249 36.241 54.5954 37.1478C54.9923 37.3766 55.2123 37.9095 55.2145 38.6491C55.2173 39.58 54.7286 40.8292 53.8022 42.2609C52.9061 43.6249 51.9511 45.0035 51.4927 46.5294L51.4015 46.8268C50.7692 48.984 52.2065 50.1223 53.8917 49.8671C54.8667 49.7303 55.2485 50.5145 55.251 51.4767C55.256 53.2213 53.9769 55.4357 52.4584 56.3135Z" fill="white"/>
</svg>
