<svg width="93" height="92" viewBox="0 0 93 92" fill="none" xmlns="http://www.w3.org/2000/svg">
<rect x="0.5" width="92" height="92" rx="46" fill="black"/>
<path d="M25.388 69.7824C25.3886 69.9836 25.4958 70.1693 25.6699 70.2699C26.203 70.58 23.7389 69.1467 30.8831 73.3024C31.052 73.3997 31.2671 73.4058 31.4486 73.3019L47.5608 64.004C47.9796 64.6355 48.5072 65.1487 49.1411 65.5183L52.691 67.5381C52.6944 67.5401 52.6984 67.5392 52.7019 67.541L52.7065 67.5442C54.7184 68.7019 57.1342 68.1279 59.1612 66.9577C63.8913 64.227 67.727 57.5756 67.7115 52.1302C67.7038 49.3857 66.7375 47.3205 64.9913 46.3156C64.8779 46.2504 61.3429 44.2411 61.4563 44.3068C60.5868 43.8001 59.5848 43.5967 58.503 43.6866L58.4598 30.3234L58.4587 30.3192L58.4371 22.2164C58.4365 22.0213 58.257 21.7878 58.1557 21.7289L52.9431 18.6991C52.7679 18.5963 52.5506 18.5974 52.3754 18.698L39.3145 26.2389C39.0437 26.3954 38.9508 26.7414 39.1072 27.0123C39.2631 27.2831 39.6097 27.3743 39.8806 27.2196L52.6573 19.8423L56.7417 22.2164L31.0679 37.0388L26.9839 34.6654L32.3977 31.54C32.6686 31.3836 32.7614 31.0376 32.605 30.7667C32.448 30.4953 32.1003 30.4035 31.8317 30.5594L25.5715 34.1734C25.3946 34.2759 25.289 34.4644 25.2885 34.6632L25.2888 34.6643L25.2885 34.6654L25.388 69.7824ZM57.3078 23.197L57.3255 29.9994L31.6534 44.8195L31.6363 38.7764L31.6343 38.0192C37.5686 34.5932 51.3027 26.664 57.3078 23.197ZM26.4234 35.6489L30.502 38.0191C30.5117 41.4757 30.4669 25.4976 30.5966 71.8242L26.519 69.4546L26.4234 35.6489ZM66.5794 52.1335C66.5938 57.2174 63.0124 63.4277 58.5952 65.9771C56.5527 67.1562 54.6628 67.3629 53.2709 66.5631C49.5805 64.439 51.297 57.5729 53.4481 53.8498C54.8956 51.3455 56.8971 49.1566 59.1071 47.8805C59.1225 47.8716 59.1375 47.8652 59.153 47.8564C63.4428 45.407 66.566 47.4611 66.5794 52.1335ZM60.892 45.288L61.6929 45.7435C60.6227 45.8949 59.4502 46.373 58.541 46.8993C56.3783 48.1478 54.4081 50.2171 52.9012 52.6106C51.1091 55.4558 49.9736 58.7613 49.9803 61.7141C49.9857 62.9931 50.2452 64.2247 50.5828 65.0363L49.7061 64.5377C49.0738 64.1687 48.578 63.5965 48.2188 62.8679C47.7476 61.9168 47.5671 60.7279 47.5624 59.6916C47.5584 57.6403 48.1975 54.8917 49.7503 52.1103C49.7587 52.0954 49.7652 52.0793 49.772 52.0634C51.4557 49.0659 53.6193 46.98 55.5605 45.8612C57.2032 44.9213 59.2489 44.3318 60.892 45.288ZM54.9906 44.8806C52.4558 46.3442 50.3047 48.8256 48.8352 51.4237L34.2335 59.8458C33.9626 60.0022 33.8697 60.3482 34.0262 60.6191C34.1809 60.8863 34.5247 60.9841 34.7995 60.8264L47.9131 53.2627C47.1385 55.0028 46.6106 56.8475 46.4684 58.7639L34.2335 65.8234C33.9626 65.9799 33.8697 66.3259 34.0262 66.5968C34.1841 66.8694 34.5312 66.959 34.7995 66.8041L46.4445 60.0849C46.4956 61.3095 46.7323 62.2913 47.0296 63.0038L31.73 71.8326L31.6571 46.1271L57.331 31.3041L57.3714 43.8873C57.3537 43.8918 57.3354 43.9007 57.3177 43.9054C56.5311 44.1137 55.6515 44.4988 54.9906 44.8806Z" fill="white"/>
<path d="M34.7774 30.1664L37.2361 28.7463C37.507 28.5899 37.5999 28.2438 37.4434 27.973C37.2859 27.7016 36.9393 27.6087 36.6701 27.7657L34.2114 29.1858C33.9405 29.3422 33.8477 29.6882 34.0041 29.9591C34.1609 30.2307 34.508 30.322 34.7774 30.1664Z" fill="white"/>
<path d="M43.0883 37.149C44.0214 36.6101 44.7505 35.347 44.7477 34.273C44.7431 32.985 43.6545 32.3518 42.5134 33.0093C41.5765 33.5505 40.8446 34.8091 40.8474 35.8749C40.852 37.1914 41.935 37.8142 43.0883 37.149ZM43.0794 33.9899C43.4468 33.7777 43.6145 33.8506 43.6156 34.2763C43.6173 34.9468 43.1065 35.8312 42.5223 36.1684C42.141 36.3913 41.9805 36.3221 41.9794 35.8716C41.9778 35.2088 42.4919 34.3293 43.0794 33.9899Z" fill="white"/>
<path d="M48.5933 33.9706C49.527 33.4317 50.2561 32.1686 50.2527 31.0945C50.2493 29.8048 49.1645 29.1709 48.0184 29.8309C47.0843 30.3704 46.3557 31.6274 46.359 32.6926C46.3625 34.0112 47.4494 34.6322 48.5933 33.9706ZM48.5845 30.8115C48.9853 30.5804 49.1197 30.7043 49.1207 31.0979C49.1229 31.7689 48.6121 32.6528 48.0273 32.99C47.6652 33.1991 47.4922 33.1574 47.4911 32.6893C47.4889 32.0265 47.9996 31.1487 48.5845 30.8115Z" fill="white"/>
<path d="M54.0984 30.7927C55.032 30.2531 55.7611 28.9901 55.7584 27.916C55.7537 26.6196 54.6615 25.9938 53.5235 26.6524C52.5904 27.1913 51.8613 28.4483 51.8641 29.5141C51.8687 30.8289 52.9504 31.4545 54.0984 30.7927ZM54.0895 27.633C54.4553 27.4222 54.6252 27.4844 54.6263 27.9193C54.6279 28.602 54.1271 29.4688 53.5323 29.812C53.1661 30.0258 52.9973 29.9716 52.9962 29.5108C52.9945 28.848 53.5053 27.9702 54.0895 27.633Z" fill="white"/>
<path d="M39.4522 46.0994C39.5483 46.0994 39.6456 46.0751 39.7346 46.0237L54.8242 37.3115C55.095 37.1551 55.1879 36.809 55.0315 36.5382C54.8745 36.2667 54.5268 36.1733 54.2581 36.3309L39.1686 45.0431C38.8977 45.1995 38.8049 45.5456 38.9613 45.8164C39.0663 45.9983 39.2565 46.0994 39.4522 46.0994Z" fill="white"/>
<path d="M54.2581 42.3085L39.1686 51.0208C38.8977 51.1772 38.8049 51.5232 38.9613 51.7941C39.0663 51.9759 39.2565 52.0771 39.4522 52.0771C39.5483 52.0771 39.6456 52.0528 39.7346 52.0014L54.8242 43.2891C55.095 43.1327 55.1879 42.7867 55.0315 42.5158C54.8745 42.2444 54.5268 42.1515 54.2581 42.3085Z" fill="white"/>
<path d="M37.3549 51.285C36.9033 51.0252 36.3235 51.0628 35.7619 51.3867C35.5247 51.5244 35.3622 51.5277 35.2964 51.4901C35.2312 51.4525 35.1549 51.3138 35.1544 51.0451C35.1522 50.3304 35.6966 49.3884 36.3191 49.0291C36.554 48.8926 36.7143 48.8887 36.7806 48.9274C36.8458 48.965 36.9227 49.1043 36.9232 49.3735C36.9243 49.6864 37.1775 49.8859 37.4909 49.9379C37.8038 49.9368 38.0564 49.6825 38.0553 49.3702C38.0531 48.724 37.7944 48.205 37.345 47.9463C37.123 47.8186 36.8691 47.7648 36.6021 47.7798V46.9922C36.6021 46.6793 36.3489 46.4261 36.036 46.4261C35.7232 46.4261 35.47 46.6793 35.47 46.9922V48.2439C34.6367 48.8772 34.0193 50.0403 34.0223 51.0479C34.0239 51.6941 34.2826 52.2131 34.7315 52.4713C35.1842 52.7327 35.7652 52.6929 36.3285 52.3673C36.5639 52.2314 36.7242 52.2275 36.79 52.2662C36.8552 52.3038 36.9321 52.4431 36.9326 52.7117C36.9348 53.4237 36.3926 54.3623 35.7718 54.7205C35.5341 54.8576 35.3722 54.8625 35.3047 54.8238C35.24 54.7863 35.1643 54.6486 35.1638 54.3833C35.1627 54.071 34.9095 53.8189 34.5977 53.8189H34.5961C34.2832 53.82 34.0306 54.0743 34.0317 54.3866C34.0339 55.03 34.292 55.5469 34.7403 55.805C34.9388 55.9189 35.1621 55.9758 35.3987 55.9758C35.4218 55.9758 35.4466 55.9664 35.47 55.9653V56.7702C35.47 57.083 35.7232 57.3362 36.036 57.3362C36.3489 57.3362 36.6021 57.083 36.6021 56.7702V55.5188C37.4425 54.89 38.0677 53.7211 38.0647 52.7084C38.063 52.0622 37.8038 51.5437 37.3549 51.285Z" fill="white"/>
<path d="M60.6598 56.4772C61.1352 55.6867 61.4027 54.8145 61.4005 54.0389C61.3983 53.202 61.0705 52.5343 60.5017 52.2065C59.9307 51.8792 59.1867 51.9306 58.4581 52.3519C57.1232 53.1219 56.0812 54.9256 56.0856 56.4573C56.0878 57.2306 56.3554 57.8409 56.8236 58.1858L55.8783 61.5887C55.817 61.8103 55.8955 62.0469 56.0773 62.1879C56.1785 62.2664 56.3012 62.3062 56.4239 62.3062C56.5212 62.3062 56.619 62.2813 56.7069 62.2304L61.5542 59.4318C61.8145 59.2814 61.9118 58.9542 61.7764 58.6861L60.6598 56.4772ZM57.3398 60.5577L58.0391 58.041C58.0795 57.8956 58.0601 57.7403 57.9855 57.6093C57.9103 57.4783 57.7865 57.3821 57.6411 57.3428C57.2608 57.2406 57.2182 56.6872 57.2177 56.454C57.2144 55.3285 58.0413 53.8991 59.0241 53.3325C59.2629 53.1943 59.4863 53.1241 59.6714 53.1241C59.7726 53.1241 59.8621 53.1451 59.9368 53.1876C60.1463 53.3087 60.2673 53.6199 60.2684 54.0422C60.2701 54.679 59.9987 55.4573 59.5415 56.1234C59.4249 56.2937 59.41 56.5142 59.5034 56.6989L60.5244 58.7187L57.3398 60.5577Z" fill="white"/>
</svg>
