<svg width="93" height="92" viewBox="0 0 93 92" fill="none" xmlns="http://www.w3.org/2000/svg">
<rect x="0.5" width="92" height="92" rx="46" fill="black"/>
<path d="M72.7953 48.425C72.7886 48.4211 72.7805 48.4228 72.7737 48.4193L69.739 46.6551L71.5792 45.5926C71.755 45.4909 71.8634 45.3035 71.8622 45.1006L71.8502 41.0381C71.8502 41.0352 71.8523 41.0329 71.8523 41.03C71.8523 40.8286 71.7408 40.6354 71.566 40.5348C71.5636 40.5334 71.5607 40.5341 71.5584 40.5328L62.6081 35.3281L62.6732 34.9593C62.792 34.8977 62.926 34.8516 63.04 34.7854C64.7304 33.8037 65.6624 32.4654 65.6668 31.0149V27.4706C65.6668 27.4693 65.6661 27.4682 65.6661 27.467C65.6661 27.4639 65.6668 27.461 65.6668 27.4578C65.6646 25.9952 64.7171 24.6437 63.0013 23.6526C59.6924 21.7405 54.3217 21.7438 51.0305 23.657C49.3419 24.638 48.4118 25.9741 48.4061 27.4212C48.4056 27.5352 48.4053 31.0803 48.406 30.9663C48.3992 32.7542 49.7246 34.0624 51.3821 34.9312L51.5885 36.1008L43.5294 31.4157C43.3569 31.314 43.1391 31.314 42.9623 31.4146C30.2299 38.7651 31.9946 37.7465 20.1998 44.5602C20.1948 44.5629 20.1886 44.5616 20.1837 44.5645C20.0079 44.6662 19.8995 44.8536 19.9006 45.0564L19.9205 52.2049C19.9216 52.4061 20.0278 52.5918 20.2025 52.6924C20.4913 52.8602 49.6616 69.8113 49.4761 69.7045C49.6507 69.8051 49.8664 69.8045 50.041 69.7039L72.8163 56.5546C72.9921 56.4529 73.1005 56.2655 73.0993 56.0626L73.0794 48.9142C73.0783 48.7125 72.9711 48.5262 72.7953 48.425ZM21.0349 46.0428C59.5955 68.4467 46.2855 60.7136 49.173 62.3912L49.1793 64.6569L21.0414 48.3048L21.0349 46.0428ZM50.3053 62.3918L71.9496 49.8964L71.956 52.1658L50.3117 64.6582L50.3053 62.3918ZM53.8264 53.8742L44.1994 48.2791L44.1916 45.5149L53.8186 51.113C53.8191 51.3178 53.8269 54.0485 53.8264 53.8742ZM54.9596 53.8802L54.9517 51.1139L70.7213 42.0089L70.7291 44.7762L54.9596 53.8802ZM70.1532 41.0248L54.3842 50.1291L44.7484 44.5287L52.3042 40.1685L52.8558 43.282C52.8558 43.3274 52.8613 43.3727 52.8723 43.4169C53.0227 44.0299 53.298 44.727 54.2023 45.2433C55.7899 46.1653 58.2784 46.1658 59.8616 45.2449C60.6487 44.7955 61.0976 44.1499 61.1904 43.3578L62.3985 36.5154L70.1532 41.0248ZM51.5988 24.6354C54.5926 22.8953 59.4529 22.9107 62.4353 24.6332C63.7874 25.4137 64.5325 26.4175 64.5347 27.4595C64.5358 28.6718 63.5445 29.6385 62.4718 30.2626C59.4945 31.9922 54.6335 31.99 51.6341 30.2582C50.5641 29.6404 49.542 28.674 49.538 27.4424V27.4241C49.538 27.424 49.538 27.4243 49.538 27.4241C49.5424 26.3962 50.2727 25.4058 51.5988 24.6354ZM49.538 30.9685V30.0575C49.8589 30.3985 50.4739 30.8955 51.0681 31.2388C52.7253 32.1951 54.8966 32.6738 57.0657 32.6738C59.4076 32.6738 61.7115 32.0132 63.04 31.241C63.6113 30.9089 64.2123 30.4251 64.5347 30.0835V31.0133C64.5261 33.6867 60.1922 35.015 57.3962 35.0844C54.3531 35.1611 49.5289 33.8395 49.538 30.9685ZM61.425 35.5164C61.4248 35.5175 61.4239 35.5184 61.4237 35.5195L60.0716 43.1925C60.034 43.5065 59.9124 43.9122 59.2966 44.2638C58.0684 44.9757 55.9977 44.9752 54.7672 44.2621C54.2565 43.9702 54.094 43.6452 53.979 43.1726C52.2513 33.3156 54.3592 45.3361 52.6302 35.4957C55.3439 36.466 58.8492 36.428 61.425 35.5164ZM43.2442 32.5588L51.8459 37.5595L51.8968 37.8483L52.0951 38.982L43.3359 44.0371C43.1613 44.1383 43.0529 44.3246 43.0529 44.5263C43.0529 44.5308 43.0561 44.5343 43.0562 44.5388L43.0574 44.9135L35.2765 49.41C35.0057 49.5665 34.9128 49.9131 35.0698 50.1834C35.228 50.4573 35.5766 50.5452 35.8426 50.3907L43.0613 46.219L43.0684 48.6069C43.0695 48.8081 43.1756 48.9938 43.3503 49.0944L45.4752 50.3294L41.1536 52.8179C40.8816 52.9738 40.7888 53.3198 40.9446 53.5907C41.1032 53.8652 41.4519 53.9528 41.7174 53.7985L46.6034 50.9852L51.3454 53.7412L47.0273 56.2368C46.7565 56.3932 46.6636 56.7398 46.8206 57.0101C46.9788 57.284 47.3274 57.372 47.5934 57.2174L52.4736 54.3969L54.1063 55.3459C54.1094 55.3478 54.1106 55.3516 54.1139 55.3534C54.2885 55.4552 54.5041 55.454 54.6788 55.3534L68.6131 47.3095L71.3788 48.9173L49.743 61.4086C46.8534 59.7299 60.1839 67.4743 21.5994 45.0587L43.2442 32.5588ZM21.0451 49.6156L49.1829 65.9679L49.1892 68.2282L21.0515 51.8771L21.0451 49.6156ZM50.3219 68.2347L50.3154 65.9631L71.9597 53.471L71.9662 55.7382L50.3219 68.2347Z" fill="white"/>
<path d="M29.1828 46.7645C29.3376 47.0346 29.6834 47.1281 29.9555 46.9718L45.9638 37.7345C46.2347 37.578 46.3275 37.232 46.1705 36.9611C46.0147 36.6903 45.6686 36.5969 45.3978 36.7538L29.3895 45.9912C29.1187 46.1476 29.0258 46.4937 29.1828 46.7645Z" fill="white"/>
</svg>
