<svg width="93" height="92" viewBox="0 0 93 92" fill="none" xmlns="http://www.w3.org/2000/svg">
<rect x="0.5" width="92" height="92" rx="46" fill="black"/>
<path d="M21.0457 63.1171L38.3287 73.0957C38.5038 73.1966 38.7187 73.1967 38.8941 73.0957L38.8976 73.0922C43.321 70.5646 67.4419 56.5154 71.9101 53.9145C72.0842 53.8139 72.1914 53.6276 72.192 53.4264C72.1931 52.8574 72.2373 29.0534 72.2373 29.3798C72.2373 29.2289 72.1488 29.0024 71.9543 28.89L64.1768 24.3954C63.9059 24.239 63.5593 24.3313 63.4035 24.6027C63.247 24.873 63.3399 25.2196 63.6108 25.3761L70.5425 29.3814L60.3076 35.3293L58.7641 34.4374L66.6129 29.8695C66.9891 29.6505 66.9865 29.1074 66.6112 28.89L54.6791 22.0069C54.5027 21.9058 54.2872 21.9052 54.1119 22.0075L45.7034 26.8904L44.1551 25.9958L54.385 20.0495L57.2942 21.7311C57.564 21.887 57.9106 21.7952 58.0676 21.5238C58.224 21.2535 58.1311 20.9074 57.8603 20.7505L54.6675 18.9048C54.4922 18.8036 54.275 18.8025 54.0998 18.9059C53.1479 19.456 35.7342 29.5792 21.1146 38.0862C21.1091 38.0892 21.1025 38.0877 21.0971 38.0909C20.9219 38.1915 20.8141 38.3778 20.8136 38.5801C20.8019 44.1122 20.7756 56.5415 20.7627 62.6256C20.7621 62.828 20.8705 63.0154 21.0457 63.1171ZM46.1559 40.4541L38.6592 44.8131L27.8459 38.5707L35.3442 34.2115C36.4502 34.8501 31.3388 31.8988 46.1559 40.4541ZM33.8099 32.0169L43.0275 26.6516C58.5686 35.6347 58.3587 35.5108 59.728 36.302C59.7238 44.9298 59.7206 51.4253 59.7166 59.6888L50.6327 64.9657L50.5156 41.9885C50.5147 41.8355 50.3544 41.5713 50.2326 41.5009C26.9838 28.0746 57.1936 45.5184 33.8099 32.0169ZM39.2279 48.8825L49.3863 42.9829L49.4107 47.6912L39.2179 53.6173L39.2279 48.8825ZM39.2151 54.9282L49.4175 48.9967L49.4418 53.7043L39.2054 59.6524C39.2056 59.5384 39.2157 54.6233 39.2151 54.9282ZM38.0847 53.624L21.9334 44.3052L21.9434 39.5607L38.0937 48.8847L38.0847 53.624ZM38.0823 54.9295C38.082 55.0435 38.0725 59.9777 38.0731 59.6637L21.9206 50.3275L21.9306 45.6108L38.0823 54.9295ZM21.9179 51.6337L38.0704 60.9695L38.0606 65.5772L21.9081 56.241L21.9179 51.6337ZM39.2029 60.9626L49.4485 55.009L49.4724 59.6088L39.1942 65.5798L39.2029 60.9626ZM71.0832 41.1215L60.8589 47.0585L60.8611 42.3506L71.0921 36.4036L71.0832 41.1215ZM71.0946 35.0928L60.8617 41.0409L60.8639 36.3149L71.1036 30.3648L71.0946 35.0928ZM60.8584 48.3684L71.0807 42.4324L71.0719 47.0541L60.8562 52.9812L60.8584 48.3684ZM21.8953 62.3006L21.9053 57.5472L38.0579 66.883L38.0479 71.6259L21.8953 62.3006ZM39.1827 71.6181L39.1917 66.8899L49.4791 60.9134L49.5035 65.6217L39.1827 71.6181ZM60.8535 59.0281L60.8556 54.2908L71.0694 48.3645L71.0605 53.0992L60.8535 59.0281ZM54.3972 23.1511L65.1989 29.3825L57.6345 33.7847L46.8336 27.5435L54.3972 23.1511ZM32.6822 32.673L34.2154 33.5584L26.4319 38.0832C26.2578 38.1843 26.15 38.3712 26.1506 38.5735C26.1511 38.7752 26.2589 38.9615 26.4336 39.0627L38.3773 45.9574C38.5532 46.0587 38.7704 46.0584 38.945 45.9563L47.286 41.1067L48.829 41.9978L38.6592 47.9037L22.5139 38.5823L32.6822 32.673Z" fill="white"/>
<path d="M61.4853 24.1484C61.7532 24.3031 62.1005 24.2142 62.2587 23.9411C62.4151 23.6702 62.3222 23.3242 62.0514 23.1678L59.8873 21.9185C59.617 21.7615 59.2704 21.8544 59.114 22.1258C58.9575 22.3967 59.0504 22.7427 59.3212 22.8991L61.4853 24.1484Z" fill="white"/>
<path d="M57.9896 30.3013C59.4946 29.428 59.4349 27.8439 57.9758 27.0012C56.6895 26.2588 54.6802 26.2588 53.4016 27.0023C51.9561 27.8424 51.8978 29.4255 53.416 30.3024C54.7003 31.0434 56.7102 31.0461 57.9896 30.3013ZM53.9821 29.3218C53.2579 28.9042 53.2469 28.4025 53.9704 27.9807C54.8997 27.442 56.474 27.4416 57.4098 27.9818C58.1235 28.3939 58.1562 28.8949 57.4208 29.3229C56.5093 29.853 54.9013 29.8519 53.9821 29.3218Z" fill="white"/>
<path d="M35.0761 40.9603C36.3604 41.7013 38.3703 41.7041 39.6497 40.9592C41.1581 40.0839 41.0916 38.4996 39.6354 37.6592C38.3491 36.9174 36.3397 36.9163 35.0612 37.6603C33.6171 38.4994 33.557 40.0829 35.0761 40.9603ZM35.63 38.6387C36.5592 38.0999 38.1336 38.0996 39.0693 38.6398C39.7931 39.0576 39.8066 39.5596 39.0809 39.9808C38.1689 40.5104 36.562 40.5115 35.6421 39.9797C34.9159 39.5604 34.9089 39.0579 35.63 38.6387Z" fill="white"/>
</svg>
