<svg width="93" height="92" viewBox="0 0 93 92" fill="none" xmlns="http://www.w3.org/2000/svg">
<rect x="0.5" width="92" height="92" rx="46" fill="black"/>
<path d="M29.2779 38.2752L29.3166 55.1137C29.3177 55.426 29.5709 55.6786 29.8826 55.6786C30.1955 55.6781 30.4498 55.4238 30.4487 55.1115L30.41 38.2708C30.4033 37.1066 31.2601 35.6202 32.2783 35.026L57.9921 20.1857C58.3846 19.9569 58.7384 19.9027 58.9639 20.0326L60.704 21.0453C60.6863 21.0552 60.6687 21.0652 60.651 21.0751L34.9405 35.922C33.5137 36.7452 32.4997 38.6662 32.5028 40.1535C32.5322 54.0656 32.5031 39.0866 32.5514 63.7386L30.8035 62.722C30.588 62.5993 30.4641 62.2748 30.4641 61.831L30.4597 60.0903C30.4586 59.7785 30.2054 59.5259 29.8937 59.5259C29.5808 59.5265 29.3265 59.7807 29.3276 60.0936L29.3321 61.8326C29.3321 62.706 29.656 63.371 30.2397 63.7032C31.3808 64.3664 33.619 65.6672 33.4734 65.5832C34.1231 65.9579 34.9133 65.8115 35.5728 65.4312L42.6183 61.3636L42.6208 62.6351L37.8016 65.4323C37.6251 65.5351 37.5164 65.7294 37.5164 65.9259L37.5086 69.0087C37.5086 69.2116 37.6159 69.399 37.7917 69.5007L44.0159 73.0948C44.1908 73.1955 44.4051 73.196 44.5808 73.0948C61 63.5538 41.1008 75.1166 57.7865 65.4212C57.9612 65.3206 58.0684 65.1343 58.0684 64.9337L58.0762 61.8565C58.0762 61.8535 58.0784 61.8511 58.0784 61.8481C58.0784 61.6463 57.97 61.4601 57.7954 61.3589L51.5678 57.7653C51.4359 57.6895 51.285 57.6902 51.1415 57.7287L51.1376 56.445L61.2833 50.5876C62.6553 49.7949 63.7255 47.9387 63.7222 46.3622L63.6702 22.8103C63.6681 21.9549 63.3519 21.3011 62.7848 20.954C62.7751 20.9475 62.7695 20.9374 62.7592 20.9314L59.5311 19.0531C58.9341 18.7082 58.1834 18.7646 57.4239 19.2062L31.7101 34.047C30.337 34.848 29.269 36.7064 29.2779 38.2752ZM44.7295 60.1447C44.7298 60.2587 44.7454 65.9142 44.7444 65.5535L43.7583 64.9785C43.758 64.8622 43.7492 60.5976 43.7494 60.7138C43.8628 60.648 44.8429 60.0788 44.7295 60.1447ZM38.6463 66.9065C38.761 66.9728 44.0771 70.0432 43.7395 69.8482L43.7351 71.6255L38.6418 68.6842L38.6463 66.9065ZM44.8674 71.6193L44.8718 69.8551L56.9419 62.8354L56.9374 64.6059L44.8674 71.6193ZM51.1488 58.9936L51.2881 58.9112L56.382 61.85L44.3061 68.8677C44.1914 68.8013 38.8771 65.7262 39.2145 65.9215L42.6234 63.9425L42.6262 65.3046C42.6262 65.5058 42.7334 65.691 42.907 65.7927C43.0215 65.8594 45.1652 67.1087 45.0308 67.0304C45.0312 67.0307 45.0315 67.0312 45.0319 67.0314C45.0849 67.062 45.145 67.0652 45.2033 67.0771C45.3375 67.1048 45.4757 67.1014 45.5968 67.0309L50.8758 63.9813C51.0277 63.8934 51.1144 63.7369 51.1384 63.5663C51.1422 63.5397 51.1588 63.5171 51.1588 63.4898V63.4877L51.1488 58.9936ZM50.0256 63.1648L45.8771 65.5613C45.876 65.2041 45.8589 59.1402 45.8599 59.4921L50.0079 57.0973L50.0256 63.1648ZM60.7173 49.607C37.1459 63.2097 60.1825 49.9078 35.0068 64.4506C34.6159 64.6764 34.2647 64.7327 34.038 64.6023C33.761 64.44 33.6876 64.0247 33.6868 63.7032C33.6817 61.2866 33.7052 72.4419 33.637 40.148C33.6315 38.9831 34.4872 37.4921 35.5076 36.9032L61.217 22.0596C61.4426 21.9293 61.6516 21.8631 61.8343 21.8489C61.8904 21.8447 61.9474 21.8393 61.9975 21.8462C62.016 21.8487 62.0299 21.8584 62.0473 21.8625C62.0967 21.874 62.1459 21.8857 62.1875 21.9093C62.4093 22.0386 62.537 22.3673 62.5381 22.8125L62.5901 46.3644C62.5934 47.5341 61.7355 49.0188 60.7173 49.607Z" fill="white"/>
<path d="M29.8904 58.8217C30.2033 58.8211 30.4564 58.5668 30.4553 58.2545L30.452 56.8356C30.4509 56.5232 30.1978 56.2706 29.886 56.2706C29.5731 56.2712 29.3188 56.5255 29.3199 56.8378L29.3232 58.2567C29.3244 58.5691 29.5787 58.8217 29.8904 58.8217Z" fill="white"/>
<path d="M60.6974 24.4918C60.5227 24.3912 60.3071 24.3912 60.1324 24.4918L35.4755 38.7268C35.2997 38.8285 35.1925 39.0159 35.1925 39.2188L35.2434 59.7089C35.2434 60.1403 35.7151 60.4148 36.0924 60.1975L60.7493 45.9626C60.9251 45.8609 61.0323 45.6735 61.0323 45.4706L60.9815 24.9805C60.9815 24.7787 60.8731 24.5924 60.6974 24.4918ZM36.3732 58.7283L36.3257 39.5432L59.8516 25.9611L59.8992 45.1461L36.3732 58.7283Z" fill="white"/>
<path d="M48.5929 54.1961L47.117 55.0485C46.8461 55.2049 46.7532 55.5509 46.9102 55.8218C47.0643 56.0915 47.4106 56.1855 47.683 56.0291L49.1589 55.1767C49.4298 55.0203 49.5226 54.6742 49.3656 54.4034C49.2098 54.1314 48.8626 54.0397 48.5929 54.1961Z" fill="white"/>
<path d="M55.6086 37.6511C55.7844 37.5494 55.8917 37.362 55.8917 37.1591L55.8784 32.2599C55.8784 32.0581 55.77 31.8719 55.5943 31.7707C55.4196 31.6701 55.204 31.6707 55.0293 31.7713L39.7795 40.5758C39.6037 40.6775 39.4965 40.8649 39.4965 41.0678L39.5097 45.9664C39.5097 46.3975 39.9803 46.6731 40.3588 46.4551L55.6086 37.6511ZM54.7485 33.2405L54.7585 36.8346L40.6396 44.9858L40.6296 41.3922L54.7485 33.2405Z" fill="white"/>
<path d="M44.8892 50.2427L43.7818 49.856L44.9777 48.5562C45.1889 48.3262 45.1745 47.968 44.9445 47.7563C44.7135 47.5457 44.3575 47.5601 44.1441 47.79L43.2481 48.7639L43.2133 47.6955C43.2033 47.3837 42.98 47.1289 42.6284 47.1483C42.3167 47.1582 42.0712 47.4197 42.0812 47.732L42.1316 49.2799L41.0608 48.9061C40.7656 48.8032 40.4428 48.9591 40.34 49.2538C40.236 49.5489 40.3919 49.8718 40.6871 49.9751L41.7821 50.3574L40.6031 51.639C40.3919 51.8689 40.4063 52.2271 40.6362 52.4388C40.8685 52.6512 41.2262 52.6343 41.4367 52.4051L42.2062 51.5686L42.2349 52.446C42.2448 52.7522 42.4969 52.9938 42.8009 52.9938C42.8064 52.9938 42.8131 52.9938 42.8197 52.9933C43.1314 52.9833 43.3769 52.7218 43.3669 52.4095L43.3175 50.8935L44.5156 51.3117C44.8072 51.4133 45.1332 51.2624 45.2364 50.964C45.3403 50.6689 45.1844 50.346 44.8892 50.2427Z" fill="white"/>
<path d="M50.6868 47.0206L49.453 46.5897L50.6403 45.2992C50.8515 45.0693 50.8371 44.7111 50.6072 44.4994C50.3761 44.2882 50.0201 44.3031 49.8067 44.5331L48.9107 45.5071L48.8759 44.4391C48.8659 44.1329 48.6139 43.8913 48.3098 43.8913C48.3043 43.8913 48.2977 43.8913 48.291 43.8919C47.9793 43.9018 47.7338 44.1633 47.7438 44.4756L47.7938 46.0102L46.5841 45.5878C46.2889 45.4861 45.965 45.6408 45.8633 45.9355C45.7593 46.2307 45.9152 46.5535 46.2104 46.6568L47.4535 47.091L46.2657 48.382C46.0545 48.612 46.0689 48.9702 46.2989 49.1819C46.5312 49.3943 46.8888 49.3774 47.0993 49.1482L47.8689 48.3117L47.8975 49.1891C47.9074 49.4953 48.1595 49.7369 48.4635 49.7369C48.469 49.7369 48.4757 49.7369 48.4823 49.7363C48.7941 49.7264 49.0395 49.4649 49.0295 49.1526L48.9797 47.624L50.3131 48.0896C50.6047 48.1912 50.9307 48.0403 51.0339 47.7419C51.1378 47.4468 50.9819 47.1239 50.6868 47.0206Z" fill="white"/>
<path d="M56.3493 43.7636L55.1148 43.3325L56.3018 42.0423C56.513 41.8123 56.4986 41.4542 56.2686 41.2424C56.0387 41.0318 55.6805 41.0457 55.4682 41.2762L54.5725 42.2499L54.5374 41.1816C54.5263 40.8704 54.3096 40.5974 53.9525 40.6349C53.6408 40.6449 53.3953 40.9064 53.4053 41.2192L53.4557 42.753L52.2467 42.3308C51.9504 42.2291 51.6287 42.3839 51.5259 42.6785C51.4219 42.9737 51.5778 43.2965 51.873 43.3999L53.1152 43.8338L51.9272 45.1251C51.716 45.3551 51.7304 45.7133 51.9603 45.925C52.1927 46.1373 52.5503 46.1204 52.7608 45.8912L53.5312 45.0538L53.5601 45.9333C53.57 46.2389 53.8221 46.4805 54.1261 46.4805C54.1316 46.4805 54.1383 46.4805 54.1449 46.4799C54.4567 46.47 54.7021 46.2085 54.6921 45.8957L54.642 44.3669L55.9757 44.8327C56.2673 44.9342 56.5933 44.7833 56.6965 44.485C56.8004 44.1898 56.6445 43.867 56.3493 43.7636Z" fill="white"/>
</svg>
