<svg width="93" height="92" viewBox="0 0 93 92" fill="none" xmlns="http://www.w3.org/2000/svg">
<rect x="0.5" width="92" height="92" rx="46" fill="black"/>
<path d="M29.1087 60.0493C29.1087 60.2505 29.216 60.4363 29.3906 60.5369C29.5052 60.6034 33.4746 62.9095 33.36 62.8429C33.3597 62.8427 33.3602 62.843 33.36 62.8429C33.5336 62.944 33.7505 62.9444 33.9256 62.8436L46.1309 55.7968L46.1243 62.7341C45.3082 62.9192 44.5588 63.1759 43.934 63.5434C42.6556 64.2861 41.9503 65.3042 41.9387 66.4124C41.9328 66.9724 41.926 69.3692 41.9275 69.253C41.9242 70.385 42.6439 71.4248 43.9517 72.1804C46.4519 73.6234 50.3671 73.6328 52.8679 72.1793C54.1548 71.4314 54.8634 70.4055 54.8668 69.2905L54.8744 66.4867C54.8745 66.4769 54.8767 66.4674 54.8767 66.4576C54.8745 65.331 54.1526 64.2957 52.848 63.5445C52.2258 63.1789 51.4752 62.9223 50.6551 62.7361L50.6707 53.1758L63.6702 45.6706C63.846 45.5689 63.9532 45.3815 63.9532 45.1787L63.8924 21.6035C63.8924 21.4257 63.7283 21.1841 63.6105 21.116L59.6427 18.8104C59.4691 18.7087 59.2513 18.7087 59.0756 18.8093L53.4937 22.0319C53.2228 22.1884 53.13 22.5344 53.2869 22.8052C53.4417 23.0772 53.7878 23.1673 54.0597 23.0125L59.3575 19.9535L62.1965 21.6035C56.879 24.6735 39.61 34.6435 33.5814 38.124L30.7427 36.4742L45.3701 28.0295C45.641 27.8731 45.7339 27.527 45.5769 27.2562C45.421 26.9847 45.075 26.8935 44.8041 27.0489L29.3298 35.9822C29.1277 36.0992 29.0468 36.3413 29.0468 36.472C29.0468 36.4724 29.0471 36.4727 29.0471 36.4731C29.0471 36.4735 29.0468 36.4738 29.0468 36.4742L29.1087 60.0493ZM47.2529 66.3537L47.2639 55.1451L49.538 53.8378C49.531 58.0499 49.5341 56.1824 49.517 66.3537C49.517 66.3802 49.4662 66.4626 49.2981 66.5554C48.815 66.839 47.9593 66.8373 47.4629 66.5516C47.306 66.4626 47.2529 66.3785 47.2529 66.3537ZM52.2997 71.2009C50.1605 72.443 46.6703 72.4419 44.5178 71.1998C43.5759 70.6559 43.0574 69.9655 43.0596 69.2563L43.0607 68.7123C43.0634 68.7148 43.0675 68.7168 43.0703 68.7193C43.6198 69.2098 44.2812 69.5696 44.9605 69.8308C46.8851 70.5729 49.2924 70.6212 51.2979 70.0103C52.2072 69.7345 53.0217 69.3766 53.7358 68.7448L53.7347 69.2872C53.7325 69.9837 53.2228 70.6631 52.2997 71.2009ZM52.2798 64.5229C53.221 65.0652 53.7408 65.7518 53.7439 66.4559C53.7438 66.4584 53.7424 66.4606 53.7424 66.4631C53.7383 67.7544 52.1549 68.5936 50.8469 68.9671C49.1693 69.4439 47.1682 69.4022 45.5515 68.8322C42.8335 67.8696 42.1441 65.8936 44.5045 64.5207C44.9722 64.2459 45.5139 64.0293 46.1208 63.8723V66.3537C46.1208 66.823 46.4071 67.2541 46.9013 67.5344C47.7919 68.0473 49.1415 67.9599 49.8575 67.5394C49.9833 67.47 50.0957 67.3909 50.1934 67.304C50.4868 67.043 50.6491 66.7109 50.6491 66.3548L50.6532 63.8741C51.265 64.0327 51.8188 64.2521 52.2798 64.5229ZM30.1811 37.4576L33.0154 39.1041L33.0739 61.368L30.2397 59.7215L30.1811 37.4576ZM34.2064 61.3743L34.1478 39.1044L62.7625 22.5844L62.82 44.8542L34.2064 61.3743Z" fill="white"/>
<path d="M48.4303 26.2623L51.2118 24.6565C51.4827 24.5 51.5755 24.154 51.4185 23.8832C51.2627 23.6106 50.9144 23.5194 50.6458 23.6759L47.8642 25.2817C47.5934 25.4381 47.5005 25.7841 47.6575 26.055C47.8116 26.3247 48.1578 26.4187 48.4303 26.2623Z" fill="white"/>
<path d="M61.3397 26.1595C61.3397 25.9577 61.2313 25.7714 61.0556 25.6708C60.8809 25.5702 60.6653 25.5702 60.4906 25.6708L35.8669 39.887C35.6911 39.9887 35.5839 40.1761 35.5839 40.379L35.6281 57.799C35.6281 58.2299 36.0986 58.5056 36.4771 58.2876L61.1009 44.0715C61.2767 43.9698 61.3839 43.7824 61.3839 43.5795L61.3397 26.1595ZM36.7579 56.8184L36.717 40.7034L60.2098 27.1401L60.2507 43.255L36.7579 56.8184Z" fill="white"/>
<path d="M54.3748 34.2907C54.0973 34.1476 53.7557 34.2603 53.6142 34.5395L49.3921 42.8747L47.2286 41.5663C47.097 41.4867 46.9411 41.4651 46.7941 41.5022C46.6471 41.5403 46.521 41.6365 46.4447 41.7686L42.3575 48.8811C42.2017 49.152 42.2956 49.498 42.5665 49.6539C42.8347 49.8081 43.1816 49.7187 43.3393 49.445L47.1379 42.8344L49.328 44.1594C49.6157 44.3327 49.9784 44.2199 50.1262 43.9311L54.6246 35.0513C54.7662 34.7722 54.6545 34.4317 54.3748 34.2907Z" fill="white"/>
</svg>
