<svg width="93" height="92" viewBox="0 0 93 92" fill="none" xmlns="http://www.w3.org/2000/svg">
<rect x="0.5" width="92" height="92" rx="46" fill="black"/>
<path d="M33.9687 32.4693C35.2145 33.1925 42.0622 37.1679 41.624 36.9135C41.7923 37.0116 42.0078 37.0187 42.1906 36.9141L58.9462 27.2528C59.1214 27.1521 59.2292 26.9653 59.2298 26.7636C59.2303 26.5612 59.1231 26.3744 58.9484 26.2732C58.1617 25.8168 61.7969 27.9291 51.2545 21.8095C51.0733 21.715 50.9135 21.7191 50.7405 21.8086C50.6264 21.8676 34.0845 31.4139 33.9709 31.4897C33.7962 31.5909 33.6884 31.7772 33.6879 31.9789C33.6873 32.1807 33.7946 32.3675 33.9687 32.4693ZM37.8919 33.4391L50.9957 25.8686L55.0165 28.2079L41.9081 35.7699L37.8919 33.4391ZM56.1503 27.558L51.5628 24.8886V23.2901L57.5339 26.7602L56.1503 27.558ZM50.4308 23.2869V24.8873L36.7629 32.7839L35.3816 31.9823L50.4308 23.2869Z" fill="white"/>
<path d="M63.967 26.2766L63.9657 26.2758L63.9648 26.2749L63.9636 26.2746L51.2848 18.907C51.1096 18.8042 50.8929 18.8053 50.7176 18.9059L28.9407 31.4792C28.7408 31.595 28.658 31.855 28.6577 31.969L28.6579 31.9701C28.6579 32.1481 28.7508 65.0381 28.7516 65.2359C28.7522 65.4371 28.8594 65.6228 29.0335 65.7234C35.4319 69.442 41.9678 73.2391 41.7169 73.0946C41.889 73.1938 42.1052 73.1961 42.2824 73.0941L64.0593 60.5213C64.2351 60.4196 64.3429 60.2322 64.3424 60.0293L64.2766 36.819C64.2755 36.5073 64.0223 36.2546 63.7105 36.2546H63.7089C63.3966 36.2557 63.1434 36.5095 63.1445 36.8223L63.2092 59.7049L57.6997 62.8856L57.6737 53.7885C57.6732 53.5868 57.5648 53.4005 57.3901 53.2993C57.2149 53.1982 56.9988 53.1998 56.8247 53.2999L48.2617 58.2444C48.0859 58.3461 47.9781 58.5335 47.9787 58.7364L48.0065 68.4819L42.5626 71.6248L42.472 39.6654C45.7433 37.7767 57.628 30.915 63.1191 27.7447L63.1274 30.8203C63.1285 31.1321 63.3816 31.3847 63.6934 31.3847H63.6951C64.0074 31.3836 64.2605 31.1299 64.2594 30.817L64.2484 26.7641C64.248 26.6501 64.1422 26.3783 63.967 26.2766ZM50.9996 20.0502L62.553 26.7641L41.9056 38.6849L30.353 31.9712L50.9996 20.0502ZM29.7925 32.9547L41.3397 39.6653L41.4305 71.6187L29.8826 64.9081L29.7925 32.9547ZM56.5673 62.8266L49.6014 58.7782L56.5444 54.7692L56.5673 62.8266ZM56.0506 63.8356L49.1367 67.8267L49.114 59.8042L56.0506 63.8356Z" fill="white"/>
<path d="M63.6989 32.7639C63.3866 32.765 63.1334 33.0187 63.1345 33.3316L63.1378 34.5112C63.1389 34.823 63.3921 35.0756 63.7039 35.0756H63.7055C64.0179 35.0745 64.271 34.8207 64.2699 34.5079L64.2666 33.3283C64.2655 33.0165 64.0123 32.7639 63.7006 32.7639H63.6989Z" fill="white"/>
<path d="M49.1516 51.1772C48.9764 51.075 48.7603 51.0772 48.5861 51.1772L45.5564 52.9262C45.3806 53.0279 45.2728 53.2153 45.2734 53.4182L45.2844 57.2793C45.285 57.4811 45.3933 57.6673 45.568 57.7685C45.7402 57.8676 45.9563 57.87 46.1335 57.7679L49.1627 56.0195C49.3385 55.9178 49.4462 55.7304 49.4457 55.5276L49.4352 51.6659C49.4346 51.4641 49.3263 51.2779 49.1516 51.1772ZM46.4137 56.2992L46.4066 53.7427L48.3059 52.6465L48.3125 55.2031L46.4137 56.2992Z" fill="white"/>
<path d="M55.027 47.786C54.8518 47.6837 54.6357 47.6859 54.4616 47.786L51.4318 49.535C51.256 49.6367 51.1483 49.8241 51.1488 50.0269L51.1599 53.888C51.1607 54.196 51.41 54.4524 51.7259 54.4524C51.8237 54.4524 51.9216 54.427 52.0089 54.3767L55.0381 52.6283C55.2139 52.5266 55.3217 52.3392 55.3211 52.1363L55.3106 48.2746C55.3101 48.0729 55.2017 47.8866 55.027 47.786ZM52.2892 52.908L52.282 50.3514L54.1813 49.2553L54.1879 51.8118L52.2892 52.908Z" fill="white"/>
<path d="M57.6013 51.0612C57.6992 51.0612 57.797 51.0357 57.8843 50.9854L60.9135 49.237C61.0893 49.1353 61.1971 48.9479 61.1966 48.7451L61.186 44.8834C61.1855 44.6816 61.0772 44.4954 60.9025 44.3947C60.7272 44.293 60.5111 44.2941 60.337 44.3947L57.3073 46.1437C57.1315 46.2454 57.0237 46.4328 57.0242 46.6357L57.0353 50.4968C57.0361 50.8048 57.2855 51.0612 57.6013 51.0612ZM60.0567 45.864L60.0634 48.4206L58.1646 49.5167L58.1574 46.9602L60.0567 45.864Z" fill="white"/>
<path d="M52.5401 35.4708C49.7752 37.0672 47.5326 40.9565 47.5414 44.1405C47.5505 47.5414 50.1091 49.0868 53.1371 47.3388C55.9518 45.7131 58.1491 41.9062 58.1397 38.6719C58.1306 35.2465 55.5521 33.73 52.5401 35.4708ZM52.5711 46.3582C50.3366 47.6485 48.6804 46.7066 48.6735 44.1372C48.6657 41.3147 50.6541 37.8671 53.1062 36.4514C55.3472 35.1581 57.0007 36.1074 57.0076 38.6752C57.0159 41.4944 55.0259 44.9409 52.5711 46.3582Z" fill="white"/>
<path d="M53.79 40.8449C53.4351 40.6403 52.9851 40.6652 52.559 40.9117C52.5192 40.935 52.4871 40.9482 52.4716 40.9609C52.4672 40.9377 52.4628 40.9051 52.4628 40.862C52.4617 40.4673 52.7745 39.9261 53.1189 39.7271C53.1571 39.705 53.1886 39.6918 53.2035 39.6791C53.2079 39.7028 53.2123 39.7354 53.2123 39.7786C53.2134 40.0903 53.4666 40.3429 53.7784 40.3429H53.78C54.0923 40.3418 54.3455 40.0881 54.3444 39.7752C54.3433 39.2833 54.1388 38.8842 53.7844 38.6802C53.6664 38.6126 53.5361 38.5793 53.4019 38.5616V38.2341C53.4019 37.9213 53.1488 37.6681 52.8359 37.6681C52.523 37.6681 52.2699 37.9213 52.2699 38.2341V38.9726C51.722 39.4328 51.3288 40.1785 51.3307 40.8653C51.3318 41.3567 51.5358 41.7558 51.8901 41.9598C52.2461 42.1649 52.6966 42.14 53.125 41.8924C53.1631 41.8702 53.1946 41.857 53.2096 41.8443C53.214 41.868 53.2184 41.9006 53.2184 41.9438C53.2195 42.3368 52.9078 42.8757 52.565 43.0736C52.5252 43.0968 52.4926 43.1101 52.4777 43.1234C52.4727 43.1002 52.4689 43.0681 52.4689 43.0266C52.4677 42.7149 52.2146 42.4623 51.9028 42.4623H51.9012C51.5888 42.4634 51.3357 42.7171 51.3368 43.03C51.3379 43.5197 51.5419 43.9177 51.8962 44.1217C52.0114 44.1879 52.1386 44.2217 52.2699 44.2401V44.575C52.2699 44.8878 52.523 45.141 52.8359 45.141C53.1488 45.141 53.4019 44.8878 53.4019 44.575V43.8379C53.9546 43.3799 54.3524 42.6306 54.3505 41.9404C54.3494 41.4485 54.1449 41.0494 53.79 40.8449Z" fill="white"/>
<path d="M38.3544 41.6375L33.4999 38.835C33.3252 38.7344 33.1091 38.7327 32.9344 38.8344C32.7598 38.9356 32.6514 39.1219 32.6509 39.3236L32.6354 44.9011C32.6348 45.104 32.7426 45.2913 32.9184 45.3931L37.7723 48.1956C37.8596 48.2459 37.9575 48.2713 38.0553 48.2713C38.3708 48.2713 38.6205 48.0153 38.6213 47.707L38.6374 42.1295C38.6379 41.9266 38.5301 41.7392 38.3544 41.6375ZM37.492 46.7263L33.7686 44.5766L33.7802 40.3042L37.5042 42.454L37.492 46.7263Z" fill="white"/>
<path d="M33.4751 47.6064C33.3004 47.5057 33.0843 47.5041 32.9096 47.6058C32.7349 47.707 32.6266 47.8932 32.626 48.095L32.6105 53.673C32.61 53.8759 32.7178 54.0633 32.8936 54.165L37.7474 56.967C37.8348 57.0173 37.9326 57.0427 38.0305 57.0427C38.346 57.0427 38.5957 56.7867 38.5965 56.4783L38.6125 50.9009C38.6131 50.698 38.5053 50.5106 38.3295 50.4089L33.4751 47.6064ZM37.4672 55.4977L33.7437 53.3485L33.7553 49.0756L37.4793 51.2253L37.4672 55.4977Z" fill="white"/>
<path d="M33.4502 56.3777C33.2755 56.2771 33.0594 56.2755 32.8847 56.3772C32.71 56.4783 32.6017 56.6646 32.6011 56.8664L32.5856 62.4444C32.5851 62.6473 32.6929 62.8346 32.8687 62.9364L37.7225 65.7389C37.8099 65.7892 37.9077 65.8146 38.0056 65.8146C38.3211 65.8146 38.5707 65.5586 38.5716 65.2503L38.5876 59.6722C38.5882 59.4694 38.4804 59.282 38.3046 59.1803L33.4502 56.3777ZM37.4423 64.2696L33.7188 62.1199L33.7304 57.847L37.4544 59.9967L37.4423 64.2696Z" fill="white"/>
</svg>
