<svg width="93" height="92" viewBox="0 0 93 92" fill="none" xmlns="http://www.w3.org/2000/svg">
<rect x="0.5" width="92" height="92" rx="46" fill="black"/>
<path d="M64.9096 30.1136C53.9567 24.1722 37.3768 24.6499 27.3632 30.469C22.2138 33.4611 19.3738 37.4692 19.3578 41.7596C19.3577 41.763 19.3557 41.7659 19.3557 41.7693L19.3325 50.094C19.3198 54.4471 22.2075 58.5161 27.4632 61.5502C32.937 64.7102 40.1606 66.1244 46.5808 66.1244C52.946 66.1244 60.1269 64.7547 65.6349 61.5535C70.7906 58.5586 73.6362 54.5438 73.6484 50.2488C73.6513 48.1586 73.6844 42.0376 73.6561 41.8433C73.6316 36.5979 69.5089 32.6373 64.9096 30.1136ZM27.9314 31.4474C37.7873 25.7242 54.0122 25.4904 64.3674 31.1075C68.6452 33.454 72.6311 37.2029 72.5263 42.0782C72.4304 46.5065 68.8854 50.045 65.0898 52.251C52.9573 59.3016 31.9553 57.7777 23.5154 48.7346C21.4704 46.5424 20.4875 43.9328 20.4893 41.7904C20.4918 37.9088 23.1335 34.2358 27.9314 31.4474ZM41.6811 57.534V64.7398C39.134 64.4613 36.6446 63.9642 34.3021 63.2472V56.0852C36.6525 56.7795 39.1386 57.2631 41.6811 57.534ZM58.6909 56.1376V63.2925C56.3538 63.9995 53.8675 64.4834 51.3242 64.7529V57.5508C53.8633 57.2913 56.3441 56.8195 58.6909 56.1376ZM20.4646 50.0974L20.4751 46.3849C20.4864 46.4073 20.501 46.429 20.5124 46.4513C21.2009 47.7995 22.2002 49.058 23.2462 50.0759C23.7023 50.5197 24.2324 50.9742 24.6712 51.322V58.1885C21.9306 55.7906 20.456 53.0028 20.4646 50.0974ZM25.8033 59.0858V52.1586C26.3448 52.533 26.9597 52.9216 27.487 53.226C29.22 54.2266 31.1419 55.0463 33.1701 55.7186V62.8608C31.3413 62.231 29.6038 61.4787 28.0293 60.5696C27.218 60.1013 26.491 59.6004 25.8033 59.0858ZM42.8131 64.8344V57.6284C45.2628 57.8281 47.7428 57.8341 50.1921 57.6452V64.8472C47.7439 65.0434 45.2623 65.0389 42.8131 64.8344ZM65.0661 60.5751C63.4655 61.5052 61.6926 62.2717 59.823 62.9091V55.7835C61.9119 55.1015 63.8859 54.26 65.6592 53.2294C66.1706 52.9322 66.6509 52.6216 67.1163 52.3051C67.1434 52.2865 67.1744 52.2697 67.2014 52.2511V59.1485C66.54 59.6428 65.8421 60.1243 65.0661 60.5751ZM72.5163 50.2455C72.5081 53.1212 71.0433 55.8809 68.3335 58.252V51.4121C70.0391 50.0668 71.548 48.4476 72.5268 46.5276L72.5163 50.2455Z" fill="white"/>
<path d="M32.3094 50.4246C40.188 54.9731 52.9708 54.9807 60.807 50.4268C64.6957 48.1665 66.8349 45.1291 66.8305 41.8743C66.8261 38.5975 64.6537 35.5401 60.7141 33.2655C52.8321 28.7151 40.0487 28.7178 32.2165 33.2704C28.3305 35.5285 26.1924 38.5649 26.1974 41.8196C26.2018 45.0959 28.3726 48.1516 32.3094 50.4246ZM32.7859 34.2489C40.3403 29.8577 52.619 29.8984 60.1481 34.2461C63.7234 36.3101 65.6946 39.0198 65.6984 41.8754C65.7023 44.7101 63.7632 47.3993 60.2376 49.4484C52.721 53.8164 40.4451 53.8153 32.8754 49.444C29.3029 47.3816 27.3333 44.6736 27.3295 41.8185C27.325 38.9844 29.2631 36.2963 32.7859 34.2489Z" fill="white"/>
<path d="M36.988 41.7367C36.9858 43.3276 38.0096 44.799 39.8707 45.8808C43.1342 47.777 48.4701 48.0714 52.3902 46.2194L54.7464 47.6397C55.0138 47.8009 55.3625 47.715 55.5236 47.4474C55.685 47.1793 55.5987 46.8316 55.3312 46.6702L53.5393 45.59C54.9951 44.6299 55.4568 43.8677 55.8972 42.7566C55.9486 42.6244 56.0006 42.4846 56.0244 42.3829C56.0957 42.0783 55.9061 41.7737 55.6021 41.703C55.2942 41.6322 54.9924 41.8207 54.9222 42.1253C54.6392 43.3475 53.627 44.2742 52.5491 44.8969C52.5213 44.913 52.4877 44.9233 52.4596 44.9391L41.2368 38.1738C42.4702 37.6055 43.9238 37.1716 46.0104 37.1039C46.3227 37.094 46.5681 36.8325 46.5576 36.5202C46.5471 36.2073 46.2464 35.9376 45.9739 35.9729C43.8924 36.0406 41.8777 36.4882 40.0848 37.4794L37.9178 36.1731C37.6486 36.0094 37.3015 36.0973 37.1406 36.3654C36.9792 36.6335 37.0654 36.9812 37.333 37.1426L39.027 38.1638C37.7124 39.1715 36.9903 40.4114 36.988 41.7367ZM51.2292 45.5195C47.8957 46.8019 43.3566 46.5976 40.4401 44.9024C37.4901 43.1873 37.3354 40.6228 40.0796 38.7983L51.2292 45.5195Z" fill="white"/>
</svg>
