<svg width="93" height="92" viewBox="0 0 93 92" fill="none" xmlns="http://www.w3.org/2000/svg">
<rect x="0.5" width="92" height="92" rx="46" fill="black"/>
<path d="M41.2501 66.1947C41.5607 66.1947 41.8133 65.9443 41.8161 65.6337L41.8272 64.3021C41.8299 63.9892 41.5784 63.7338 41.2655 63.731H41.2611C40.9505 63.731 40.6978 63.9815 40.6951 64.2927L40.684 65.6243C40.6813 65.9366 40.9328 66.192 41.2456 66.1947H41.2501Z" fill="white"/>
<path d="M61.6761 30.5775C61.6645 26.6706 60.3128 23.7361 57.8737 22.2964C57.8622 22.2886 57.8555 22.2765 57.8432 22.2693L52.9777 19.4375C50.483 17.9981 47.2045 18.301 43.7436 20.2854C36.8721 24.2582 31.3007 33.9135 31.324 41.8081C31.335 45.7185 32.6948 48.6647 35.1547 50.1058C41.1566 53.56 39.799 52.8121 40.0825 52.9396C41.0184 53.4718 42.0824 53.7673 43.2419 53.8054L43.2398 54.1243C43.0133 54.2191 42.7844 54.303 42.5651 54.429C41.4091 55.0999 40.773 56.0205 40.7592 57.0232C40.7482 58.0939 40.7028 62.4949 40.7056 62.2259C40.7028 62.5387 40.9538 62.7947 41.2661 62.7974C41.2683 62.7974 41.27 62.7974 41.2716 62.7974C41.5817 62.7974 41.8349 62.5476 41.8377 62.2369L41.8664 59.1972C42.0781 59.3763 42.318 59.5438 42.585 59.698C44.7551 60.9506 48.2603 61.0336 50.5499 59.6986C50.5517 59.6976 50.5529 59.6962 50.5547 59.6951C50.7924 59.5568 51.0089 59.4072 51.2022 59.2486L51.1143 69.8696C51.1132 70.4638 50.6737 71.0464 49.8777 71.5091C48.0011 72.5992 44.9354 72.6003 43.0455 71.508C42.229 71.0365 41.7802 70.445 41.7818 69.8464L41.8056 67.7193C41.8089 67.407 41.5585 67.1505 41.2456 67.1472C40.9438 67.1262 40.6763 67.3943 40.6735 67.7071L40.6498 69.8386C40.647 70.8646 41.2965 71.8059 42.4794 72.4886C43.5993 73.1353 45.0338 73.4587 46.4671 73.4587C47.9005 73.4587 49.3332 73.1348 50.4471 72.4875C51.6051 71.8142 52.2441 70.8856 52.2463 69.8751C52.3069 62.4749 52.3516 56.7817 52.3519 57.0713C52.3508 56.0497 51.7024 55.1117 50.5283 54.4301C50.2763 54.2828 50.0138 54.1631 49.7437 54.0549L49.7537 51.7612C56.4826 47.5829 61.6989 38.3561 61.6761 30.5775ZM44.355 56.6876L44.3743 53.7828C45.535 53.6654 47.0564 53.2375 48.6185 52.4274L48.6003 56.6965C48.6003 56.8966 48.4173 57.1188 48.1011 57.3045C46.6948 58.122 44.355 57.4707 44.355 56.6876ZM60.544 30.5808C60.5661 37.9791 55.3419 47.1253 48.828 51.0184C48.7119 51.0716 46.3471 52.5959 43.7884 52.6894C40.2147 52.8171 37.3466 50.2096 37.3298 44.6361C37.3083 37.1019 42.6265 27.8877 49.1851 24.0957C55.5154 20.4352 60.5222 23.2825 60.544 30.5808ZM35.7246 49.1274C33.6268 47.8991 32.466 45.2983 32.456 41.8048C32.4339 34.2711 37.7516 25.0575 44.3085 21.2661C46.8054 19.8354 49.907 18.9738 52.4105 20.417L54.0467 21.3694C53.9684 21.3724 53.8857 21.3913 53.8067 21.3965C52.3614 21.4912 50.5159 22.0157 48.6119 23.1156C41.7409 27.0829 36.1695 36.7392 36.1928 44.6405C36.1964 46.4284 36.519 48.4034 37.3436 50.0142C37.3543 50.0352 37.3615 50.06 37.3724 50.0809L35.7246 49.1274ZM51.2198 57.0724C51.2204 57.8926 50.4093 58.5046 49.6719 58.866C47.8078 59.7786 44.9191 59.7377 43.1555 58.7191C42.5422 58.3656 41.8849 57.7565 41.8869 57.0514C41.8869 57.0512 41.8869 57.0516 41.8869 57.0514C41.8891 56.458 42.3305 55.8742 43.1317 55.4091C43.1643 55.3903 43.1969 55.372 43.2301 55.3544L43.2229 56.6849C43.2229 57.3178 43.6054 57.8866 44.2975 58.2835C45.5075 58.9866 47.4293 59.0048 48.6716 58.2824C49.3559 57.8811 49.7323 57.3178 49.7323 56.6992L49.7395 55.288C49.813 55.3262 49.8855 55.366 49.9579 55.4085C50.771 55.88 51.2193 56.471 51.2198 57.0724Z" fill="white"/>
<path d="M49.891 25.3345C43.7982 28.8542 38.7284 37.7081 38.7515 44.6284C38.7515 48.0528 40.0679 51.2738 43.5059 51.2738C44.8359 51.2738 46.3826 50.7857 47.9778 49.862C54.039 46.3669 59.14 37.5374 59.1173 30.5792C59.1173 24.3955 55.2761 22.2167 49.891 25.3345ZM50.4576 26.3145C51.7775 25.5502 53.6293 24.8751 55.1302 25.1377C55.1516 25.1412 55.172 25.1474 55.1922 25.1516C55.6205 26.3058 55.6873 27.5914 55.6873 28.2813V28.283C55.7095 34.8853 50.8672 43.2658 45.1128 46.5841C43.3281 47.6171 41.6514 48.0462 40.3923 47.7527C40.0254 46.7641 39.8836 45.6195 39.8836 44.6267C39.8615 38.0244 44.7038 29.6389 50.4576 26.3145ZM57.9852 30.5808C58.0073 37.1837 53.1656 45.5637 47.4113 48.882C45.9873 49.7062 44.6369 50.1417 43.5059 50.1417C42.426 50.1417 41.6166 49.7336 41.0244 48.9616C41.0866 48.9639 41.1449 48.9754 41.2081 48.9754C42.5391 48.9754 44.0852 48.4873 45.6794 47.5642C51.7411 44.0684 56.8426 35.2374 56.8194 28.2796C56.8194 27.7452 56.7796 26.8881 56.5924 25.972C57.8146 27.227 57.9852 29.5103 57.9852 30.5792V30.5808Z" fill="white"/>
<path d="M47.2117 32.685C46.3463 33.3382 45.7035 34.5444 45.7065 35.5889C45.7082 36.2522 45.9729 36.784 46.4328 37.0488C46.8939 37.3136 47.4897 37.2743 48.0707 36.941C48.3233 36.7945 48.4952 36.7906 48.5726 36.8354C48.6495 36.8791 48.7313 37.0294 48.7324 37.318C48.7346 38.0653 48.1652 39.0504 47.5141 39.4263C47.3046 39.5484 47.105 39.5904 47.0061 39.5335C46.9303 39.4898 46.8485 39.3417 46.848 39.0564C46.8469 38.7441 46.5937 38.4921 46.2819 38.4921C46.2814 38.4921 46.2808 38.4921 46.2803 38.4921C45.968 38.4932 45.7148 38.7469 45.7159 39.0598C45.7176 39.7203 45.9823 40.2504 46.4411 40.5147C46.644 40.6313 46.8729 40.6893 47.115 40.6893C47.1463 40.6893 47.1799 40.6769 47.2117 40.675V41.5378C47.2117 41.8507 47.4649 42.1039 47.7777 42.1039C48.0906 42.1039 48.3438 41.8507 48.3438 41.5378V40.2249C49.2165 39.5772 49.8675 38.3651 49.8645 37.3147C49.8628 36.6513 49.5975 36.1185 49.1376 35.8542C48.6765 35.5889 48.0818 35.6271 47.5047 35.9604C47.2952 36.0825 47.0956 36.1246 46.9978 36.0676C46.9215 36.0234 46.8397 35.8741 46.8386 35.5856C46.8364 34.8228 47.3963 33.8538 48.0608 33.4701C48.3134 33.3237 48.4858 33.3198 48.5627 33.3646C48.6395 33.4088 48.7213 33.5586 48.7224 33.8477C48.7235 34.1595 48.9767 34.4121 49.2885 34.4121C49.289 34.4121 49.2896 34.4121 49.2901 34.4121C49.6024 34.411 49.8556 34.1572 49.8545 33.8444C49.8528 33.1805 49.5875 32.6482 49.1271 32.3834C48.894 32.2491 48.626 32.194 48.3438 32.2142V31.3718C48.3438 31.059 48.0906 30.8058 47.7777 30.8058C47.4649 30.8058 47.2117 31.059 47.2117 31.3718V32.685Z" fill="white"/>
</svg>
