<svg width="93" height="92" viewBox="0 0 93 92" fill="none" xmlns="http://www.w3.org/2000/svg">
<rect x="0.5" width="92" height="92" rx="46" fill="black"/>
<path d="M24.472 48.6457C24.4731 48.9574 24.7263 49.21 25.038 49.21C25.3509 49.2089 25.6052 48.9552 25.6041 48.6423L25.5798 39.9106C25.694 39.9768 34.0705 44.8373 33.5384 44.5285C33.5564 50.9104 33.5966 65.151 33.6148 71.6205L25.656 66.9955L25.6361 59.8365C25.635 59.5248 25.3819 59.2721 25.0701 59.2721C24.7572 59.2732 24.503 59.527 24.5041 59.8398L24.5251 67.3233C24.5262 67.5245 24.6323 67.7102 24.807 67.8108C24.9234 67.8785 34.0198 73.1641 33.9008 73.0949C33.9015 73.0953 33.9017 73.0961 33.9023 73.0964C34.0769 73.197 34.2925 73.1964 34.4672 73.0958L68.278 53.5758C68.4538 53.4741 68.5621 53.2867 68.561 53.0839L68.4803 24.6808C68.4792 24.4791 68.372 24.2928 68.1962 24.1916C68.195 24.1909 68.1936 24.1913 68.1924 24.1906L59.1042 18.9055C58.9296 18.8026 58.7118 18.8032 58.5371 18.9049L54.4321 21.2786C54.4464 21.2563 54.4663 21.2391 54.4775 21.2144C54.598 20.9502 54.4985 20.6373 54.2487 20.4908L51.9812 19.1647C51.2482 18.7418 50.3196 18.8148 49.3655 19.3681L40.5013 24.5028C38.7324 25.5166 37.3472 27.9151 37.3472 29.9637L37.3489 31.1446C37.1994 31.2309 25.6047 37.9231 24.7219 38.4327C24.5472 38.5338 24.4388 38.7207 24.4388 38.9224C24.4388 39.0405 24.4696 48.7601 24.472 48.6457ZM34.7475 71.6262C34.7407 69.2329 34.6805 48.0007 34.6706 44.5286L67.3516 25.6614L67.4279 52.7594L34.7475 71.6262ZM52.0752 21.5947C52.7937 21.1765 54.1227 20.9423 54.1227 22.7577L54.1337 29.2677L52.3781 30.2798L52.3682 24.4083C52.3682 24.2065 52.2598 24.0197 52.0851 23.9191C51.9105 23.8185 51.6938 23.8185 51.5191 23.9191L49.3788 25.1534C49.3719 25.1574 49.3693 25.1654 49.3627 25.1695L42.6538 29.0599C42.4791 29.161 42.3718 29.3479 42.3718 29.5502L42.3829 36.0723L40.638 37.0818L40.6295 31.2074C40.6207 29.5905 41.8047 27.5409 43.2176 26.7305L52.0752 21.5947ZM51.2372 25.3884L51.2455 30.2734L50.2378 29.6873L50.2289 25.9733L51.2372 25.3884ZM41.0673 25.4834L49.9349 20.3471C50.5208 20.006 51.0504 19.9342 51.4119 20.1437L51.895 20.4261C51.7667 20.477 51.6363 20.54 51.5058 20.6157L42.6515 25.7499C40.8515 26.7823 39.4865 29.2324 39.4974 31.2113L39.5063 37.0773L38.4892 36.4869L38.4792 29.9631C38.4792 28.3391 39.6633 26.2883 41.0673 25.4834ZM37.356 36.818C37.356 37.0198 37.4643 37.2061 37.6379 37.3067L39.7893 38.5521C39.9662 38.6538 40.1818 38.6538 40.3564 38.5521L43.232 36.8882C43.4077 36.7871 43.515 36.5997 43.515 36.3974L43.5039 29.8747L49.0982 26.6292L49.1068 30.0151C49.1068 30.2157 49.214 30.4014 49.3887 30.5026C49.5021 30.5686 51.6428 31.8144 51.5295 31.7484C51.5292 31.7483 51.5297 31.7486 51.5295 31.7484C51.6442 31.8145 51.8846 31.8695 52.0962 31.7491L54.9828 30.0847C55.1586 29.9836 55.2658 29.7962 55.2658 29.5933L55.2547 22.7566C55.2547 22.5366 55.2381 22.3321 55.205 22.1386L58.819 20.0491L66.7822 24.6797L34.1068 43.5441C33.9926 43.4778 25.6093 38.612 26.1414 38.9209L37.3472 32.4528L37.356 36.818Z" fill="white"/>
<path d="M25.0601 56.5906C25.373 56.5895 25.6262 56.3358 25.6251 56.0229L25.6151 52.3979C25.614 52.0861 25.3608 51.8335 25.0491 51.8335C24.7362 51.8346 24.4819 52.0883 24.483 52.4012L24.493 56.0263C24.4941 56.338 24.7484 56.5906 25.0601 56.5906Z" fill="white"/>
<path d="M50.743 38.8362C46.1163 41.5078 42.3641 48.0045 42.3785 53.3177C42.3945 58.9122 46.5054 61.2546 51.3621 58.4502C55.9855 55.7798 59.7344 49.2781 59.72 43.9566C59.704 38.389 55.6037 36.0308 50.743 38.8362ZM50.7961 57.4696C46.6989 59.8336 43.5243 58.0351 43.5105 53.3144C43.4962 48.3627 46.9952 42.3076 51.309 39.8169C55.3937 37.4576 58.5741 39.2506 58.5879 43.9599C58.6023 48.9199 55.1066 54.9805 50.7961 57.4696Z" fill="white"/>
<path d="M50.7684 48.1498C50.3106 48.4153 50.0689 48.3108 50.0664 47.7551C50.0642 46.9702 50.6413 45.973 51.3245 45.5783C51.7747 45.317 52.0185 45.4127 52.021 45.9752C52.0221 46.2875 52.2753 46.5401 52.587 46.5401C52.8999 46.5396 53.1542 46.2853 53.1531 45.973C53.1515 44.9843 52.5536 44.2445 51.6075 44.3199V43.4424C51.6075 43.1295 51.3544 42.8763 51.0415 42.8763C50.7286 42.8763 50.4755 43.1295 50.4755 43.4424V44.7931C49.5902 45.4579 48.9323 46.6901 48.9343 47.7579C48.939 49.1696 50.0972 49.8431 51.3345 49.1304C51.8003 48.86 52.0297 48.9851 52.0321 49.5273C52.0343 50.2962 51.4483 51.31 50.7784 51.6964C50.307 51.9702 50.0798 51.8438 50.0775 51.3072C50.0764 50.9949 49.8232 50.7423 49.5114 50.7423C49.1986 50.7428 48.9443 50.9971 48.9454 51.3094C48.947 52.2797 49.5165 52.9644 50.3627 52.9644C50.3993 52.9644 50.4383 52.9503 50.4755 52.9476V53.8461C50.4755 54.159 50.7286 54.4121 51.0415 54.4121C51.3544 54.4121 51.6075 54.159 51.6075 53.8461V52.4953C52.4995 51.8358 53.1661 50.5978 53.1641 49.5245C53.1595 48.1079 51.9958 47.4408 50.7684 48.1498Z" fill="white"/>
</svg>
