<svg width="93" height="92" viewBox="0 0 93 92" fill="none" xmlns="http://www.w3.org/2000/svg">
<rect x="0.5" width="92" height="92" rx="46" fill="black"/>
<path d="M29.4009 63.0353H29.4025C29.7148 63.0342 29.968 62.7805 29.9669 62.4676L29.9608 60.345C29.9597 60.0332 29.7065 59.7806 29.3948 59.7806C29.0592 59.7557 28.8276 60.0349 28.8287 60.3483L28.8348 62.4709C28.8359 62.7827 29.0891 63.0353 29.4009 63.0353Z" fill="white"/>
<path d="M28.8232 58.2964C28.8243 58.6082 29.0775 58.8608 29.3893 58.8608C29.685 58.8171 29.9564 58.6065 29.9553 58.2931L29.9267 48.2242L35.1224 51.2434L35.1801 71.6187L29.984 68.5995L29.9724 64.4134C29.9713 64.1016 29.7182 63.849 29.4064 63.849C29.0593 63.823 28.8392 64.1033 28.8404 64.4167L28.8531 68.9273C28.8536 69.1285 28.9609 69.3142 29.135 69.4149C29.1783 69.44 28.5304 69.0635 35.4664 73.0946C35.6386 73.1938 35.8547 73.1961 36.0319 73.0941L63.9585 56.9709C64.1342 56.8692 64.242 56.6818 64.2415 56.4789C64.2378 55.1868 64.1569 26.7558 64.1464 23.0733C64.146 22.9593 64.0403 22.6874 63.865 22.5857L63.8637 22.585L63.8628 22.5841C63.7492 22.5159 57.4224 18.835 57.5358 18.907C57.3606 18.8048 57.1433 18.8048 56.9681 18.9059L29.0416 35.0297C28.8646 35.1322 28.7591 35.3207 28.7585 35.5195L28.7588 35.5206L28.7585 35.5217C28.8444 65.7477 28.8155 55.5733 28.8232 58.2964ZM63.0171 24.0539L63.0464 34.468L47.0763 43.6889L46.2095 41.5314C46.1487 41.3794 46.0244 41.2611 45.869 41.2075C45.7159 41.155 45.5434 41.1704 45.4014 41.2523L40.2208 44.2433C40.0826 44.3235 39.9842 44.4578 39.9505 44.6137L39.16 48.2592L36.2508 49.9385L36.2215 39.5244C41.2298 36.6329 55.1687 28.5852 63.0171 24.0539ZM29.8934 36.5051L35.0892 39.5242L35.1187 49.9324L29.923 46.9133L29.8934 36.5051ZM36.3122 71.6248L36.2547 51.2437L39.9433 49.1143C40.0815 49.0342 40.1799 48.8998 40.2136 48.744L41.0041 45.0984L45.4025 42.559L46.2692 44.7165C46.33 44.8685 46.4544 44.9868 46.6097 45.0404C46.7634 45.0935 46.9359 45.078 47.0774 44.9956L63.0503 35.7732L63.1083 56.1544L36.3122 71.6248ZM57.25 20.0502L62.4511 23.0733L35.6551 38.544L30.4539 35.5217L57.25 20.0502Z" fill="white"/>
<path d="M54.3723 36.3674C55.3971 35.7759 56.197 34.3896 56.1937 33.2116C56.1902 31.797 55.0253 31.1286 53.7963 31.8407C52.7682 32.4339 51.9655 33.8213 51.9689 35.0004C51.9723 36.4033 53.1379 37.0798 54.3723 36.3674ZM54.3624 32.8213C54.8087 32.5632 55.0604 32.6461 55.0616 33.2149C55.0638 33.9844 54.4773 34.9993 53.8063 35.3868C53.3391 35.66 53.1021 35.5318 53.1009 34.9971C53.0987 34.227 53.688 33.2099 54.3624 32.8213Z" fill="white"/>
<path d="M48.6478 39.6708C49.6721 39.0794 50.472 37.693 50.4686 36.5151C50.4652 35.1076 49.3118 34.4321 48.0718 35.1442C47.0437 35.7379 46.241 37.1259 46.2444 38.3038C46.2479 39.7181 47.4225 40.3781 48.6478 39.6708ZM48.6379 36.1248C49.0899 35.8634 49.3353 35.9569 49.3366 36.5184C49.3388 37.2884 48.7523 38.3033 48.0818 38.6902C47.6296 38.9523 47.3777 38.8551 47.3764 38.3005C47.3742 37.5305 47.9635 36.514 48.6379 36.1248Z" fill="white"/>
<path d="M60.0907 33.0646C61.1189 32.4703 61.9215 31.0829 61.9182 29.9049C61.9147 28.4987 60.7518 27.8224 59.5142 28.5379C58.486 29.1316 57.6834 30.519 57.6867 31.6976C57.6902 33.1032 58.8588 33.7756 60.0907 33.0646ZM60.0802 29.5185C60.5453 29.2498 60.7849 29.3597 60.7861 29.9082C60.7883 30.6777 60.1985 31.6948 59.5247 32.0839C59.0686 32.3496 58.82 32.2436 58.8188 31.6942C58.8166 30.9242 59.4058 29.9077 60.0802 29.5185Z" fill="white"/>
<path d="M59.9536 39.8675C59.7784 39.7669 59.5623 39.7675 59.3881 39.8681L39.3651 51.4282C39.1893 51.5299 39.0815 51.7173 39.0821 51.9202L39.1252 67.0418C39.1258 67.2435 39.2341 67.4298 39.4088 67.531C39.5809 67.6301 39.7971 67.6325 39.9743 67.5304L59.9973 55.9698C60.1731 55.8681 60.2809 55.6807 60.2803 55.4778L60.2372 40.3567C60.2366 40.155 60.1283 39.9687 59.9536 39.8675ZM40.231 57.7912L43.1984 56.078L43.2083 59.5527L40.2409 61.2659L40.231 57.7912ZM44.3286 55.4256L47.358 53.6766L47.3679 57.1512L44.3385 58.9002L44.3286 55.4256ZM51.5197 49.9665L48.4845 51.7188L48.4724 47.4775L51.5078 45.7251L51.5197 49.9665ZM52.638 45.0726L55.6735 43.3201L55.6855 47.5614L52.65 49.3139L52.638 45.0726ZM51.5235 51.2718L51.5332 54.7465L48.4981 56.4987L48.4882 53.024L51.5235 51.2718ZM47.3542 52.3713L44.3249 54.1203L44.3128 49.8791L47.3422 48.1301L47.3542 52.3713ZM47.3716 58.4565L47.3816 61.9463L44.3522 63.6953L44.3423 60.2054L47.3716 58.4565ZM48.5019 57.804L51.5369 56.0518L51.5467 59.5415L48.5118 61.2937L48.5019 57.804ZM52.6671 55.3992L55.7027 53.6467L55.7126 57.1363L52.6769 58.8889L52.6671 55.3992ZM52.6635 54.0939L52.6537 50.6192L55.6892 48.8667L55.699 52.3414L52.6635 54.0939ZM56.8194 48.2142L59.1236 46.8839L59.1335 50.3586L56.8293 51.6889L56.8194 48.2142ZM59.1199 45.5786L56.8158 46.9089L56.8037 42.6676L59.1079 41.3374L59.1199 45.5786ZM43.1826 50.5315L43.1946 54.7728L40.2273 56.4859L40.2153 52.2446L43.1826 50.5315ZM40.2446 62.5712L43.212 60.858L43.222 64.3478L40.2545 66.0612L40.2446 62.5712ZM56.8428 56.4837L56.833 52.9942L59.1373 51.6639L59.1471 55.1533L56.8428 56.4837Z" fill="white"/>
</svg>
