<svg width="93" height="93" viewBox="0 0 93 93" fill="none" xmlns="http://www.w3.org/2000/svg">
<rect x="0.5" y="0.5" width="92" height="92" rx="46" fill="black"/>
<path d="M22.7225 48.2613L27.2702 50.8482C27.2745 50.8507 27.2795 50.8495 27.2839 50.8519C27.2862 50.8533 27.2883 50.8551 27.2906 50.8565C28.2049 51.3828 29.2369 51.6442 30.3491 51.6437C31.9107 51.6437 33.6304 51.1279 35.4009 50.1059C41.4167 46.6322 46.2949 38.1726 46.275 31.2481C46.2656 27.791 45.0561 25.1947 42.8699 23.9366C42.8602 23.931 42.8495 23.9279 42.8397 23.9223C42.8231 23.9129 42.8066 23.9033 42.7898 23.894L38.3405 21.3623C36.1377 20.0815 33.2539 20.3424 30.2176 22.0975C29.0927 22.7448 28.1966 23.465 27.3879 24.1544C26.9501 24.5407 26.5234 24.952 26.1094 25.3832C25.8932 25.6087 25.9004 25.9669 26.1259 26.1836C26.352 26.3992 26.7097 26.392 26.9264 26.167C27.3183 25.7579 27.7229 25.3688 28.1297 25.0095C29.0075 24.2616 29.7947 23.6469 30.7836 23.0781C33.454 21.5342 35.9349 21.2722 37.7761 22.3435L39.2299 23.171C39.2114 23.1724 39.1919 23.1777 39.1733 23.1793C36.3535 23.4226 33.5897 25.1874 31.5227 27.1229C27.0869 31.276 23.8657 37.9075 23.8778 43.5251C23.8839 44.9546 24.1584 46.7288 24.8061 48.0855C24.8177 48.1099 24.8255 48.1381 24.8374 48.1623L23.2875 47.2806C21.4793 46.2248 20.4755 43.9706 20.4622 40.9348C20.4556 37.6796 21.6408 33.8378 23.7131 30.3946C23.8745 30.127 23.7883 29.7788 23.5202 29.6179C23.2521 29.4549 22.9049 29.5428 22.7435 29.8109C20.5352 33.4791 19.323 37.4303 19.3302 40.9387C19.3456 44.393 20.5485 46.9926 22.7225 48.2613ZM45.1429 31.2514C45.1617 37.8144 40.5378 45.8324 34.8349 49.1252C29.3043 52.3175 25.0326 49.8036 25.0143 43.5229C25.0025 39.2731 26.952 34.4163 29.8764 30.624C36.3543 22.2254 45.1174 21.9291 45.1429 31.2514Z" fill="white"/>
<path d="M24.733 28.8341C24.9839 28.4787 25.2437 28.1321 25.5113 27.7938C25.7053 27.5489 25.6638 27.1929 25.4184 26.9989C25.1741 26.8043 24.8175 26.8469 24.6235 27.0918C24.3438 27.4455 24.0719 27.8087 23.8087 28.1796C23.628 28.435 23.6888 28.7882 23.9436 28.969C24.1991 29.1492 24.5521 29.0891 24.733 28.8341Z" fill="white"/>
<path d="M34.7834 36.888C32.616 38.1395 30.924 41.0708 30.9312 43.5621L30.9323 43.9845C30.9331 44.2984 31.1893 44.5488 31.4983 44.5488C31.5962 44.5488 31.694 44.5234 31.7813 44.4731L38.943 40.3384C39.1188 40.2367 39.2266 40.0493 39.2261 39.8464L39.225 39.4235C39.2181 36.7413 37.1724 35.511 34.7834 36.888ZM38.0929 39.5219L32.0986 42.9828C32.3352 41.0421 33.726 38.8055 35.3495 37.8686C36.9485 36.9459 38.0883 37.5831 38.0929 39.4269V39.5219Z" fill="white"/>
<path d="M35.3423 35.7697C36.5319 35.0826 37.4611 33.4757 37.4572 32.1109C37.4525 30.5054 36.1534 29.7692 34.7647 30.572C33.5779 31.2569 32.6514 32.8649 32.6553 34.2336C32.6599 35.8284 33.9536 36.5718 35.3423 35.7697ZM35.3307 31.5526C35.9407 31.1997 36.3227 31.361 36.3251 32.1143C36.3279 33.0777 35.6187 34.3032 34.7763 34.7891C34.1274 35.1619 33.7896 34.9309 33.7874 34.2303C33.7846 33.2629 34.491 32.0369 35.3307 31.5526Z" fill="white"/>
<path d="M70.2653 44.7313C70.2546 44.7251 70.2427 44.7217 70.2319 44.7156C70.2161 44.7066 70.2005 44.6975 70.1846 44.6887L65.7353 42.157C62.1743 40.0837 57.9075 42.2856 54.7827 44.9491C50.0261 49.1501 46.7128 56.0515 46.7249 61.7323C46.7399 65.1877 47.9427 67.7874 50.1173 69.0554L54.665 71.6429C54.6697 71.6456 54.6752 71.6444 54.68 71.6469L54.6854 71.6507C57.2149 73.1057 60.2566 72.3658 62.7957 70.9C68.8115 67.4269 73.6897 58.9673 73.6698 52.0422C73.6604 48.5857 72.4509 45.9894 70.2653 44.7313ZM50.6822 68.0742C48.8736 67.0196 47.8697 64.7654 47.857 61.729C47.8454 56.3505 51.0017 49.7991 55.5245 45.8042C58.2428 43.4882 62.0722 41.335 65.1709 43.1382L66.6247 43.9657C66.6064 43.9671 66.5871 43.9723 66.5687 43.9739C63.2137 44.2623 59.9915 46.655 57.7109 49.1512C53.9118 53.3083 51.2616 59.2275 51.2726 64.3198C51.2807 66.2026 51.7099 67.8932 52.2322 68.9565L50.6822 68.0742ZM62.2296 69.9194C59.562 71.4589 57.0839 71.7236 55.2503 70.6695C53.1113 69.4387 52.4162 66.7743 52.4091 64.3176C52.3978 60.2632 54.1685 55.6522 56.8704 51.9435C63.4593 42.9018 72.512 42.6738 72.5377 52.0455C72.5565 58.6091 67.9326 66.6271 62.2296 69.9194Z" fill="white"/>
<path d="M62.1782 57.6821C60.0108 58.9342 58.3188 61.8655 58.326 64.3563L58.3271 64.7792C58.3279 65.0931 58.5841 65.3435 58.8931 65.3435C58.9909 65.3435 59.0888 65.3181 59.1761 65.2678L66.3378 61.1331C66.5136 61.0314 66.6214 60.844 66.6208 60.6411L66.6197 60.2183C66.6129 57.5128 64.5493 56.3149 62.1782 57.6821ZM65.4877 60.3166L59.4934 63.7775C59.73 61.8368 61.1208 59.6003 62.7443 58.6628C64.3394 57.741 65.483 58.3751 65.4877 60.2216V60.3166Z" fill="white"/>
<path d="M62.7371 56.5644C63.9266 55.8773 64.8559 54.2704 64.852 52.9056C64.8473 51.2969 63.5447 50.5653 62.1594 51.3667C60.9721 52.0516 60.0456 53.6596 60.0495 55.0283C60.0541 56.6121 61.3377 57.3706 62.7371 56.5644ZM62.7255 52.3473C63.3329 51.9959 63.7175 52.1581 63.7199 52.909C63.7227 53.8724 63.0135 55.0979 62.171 55.5838C61.5476 55.9459 61.1839 55.75 61.1816 55.025C61.1788 54.0576 61.8858 52.8316 62.7255 52.3473Z" fill="white"/>
<path d="M49.873 25.9945C57.2065 27.7063 57.837 33.0287 57.8915 37.3895L55.9933 35.7775C55.7556 35.5763 55.3985 35.6045 55.1951 35.8427C54.9928 36.0809 55.0221 36.4386 55.2603 36.6409L58.1226 39.0709C58.378 39.2879 58.7672 39.2357 58.9561 38.9587L60.9201 36.0854C61.097 35.8272 61.0307 35.4751 60.7725 35.2988C60.5144 35.1224 60.1623 35.1882 59.986 35.4464L59.015 36.8668C58.9054 32.3799 57.9788 26.7241 50.1306 24.8923C49.8221 24.821 49.5214 25.0106 49.4507 25.3146C49.3794 25.6192 49.569 25.9238 49.873 25.9945Z" fill="white"/>
<path d="M37.3726 57.3162C37.5976 57.0984 37.6031 56.7402 37.3859 56.5158L34.9177 53.9664C34.6594 53.7009 34.239 53.754 34.0438 54.0405L32.0804 56.9138C31.9035 57.1719 31.9698 57.5241 32.228 57.7004C32.4865 57.8771 32.8386 57.8106 33.0146 57.5528L33.9855 56.1319C34.0952 60.6187 35.0217 66.2746 42.8699 68.1069C42.9136 68.1168 42.9567 68.1218 42.9993 68.1218C43.2563 68.1218 43.489 67.9454 43.5498 67.6845C43.6211 67.38 43.4321 67.0754 43.1275 67.0046C35.8977 65.3165 35.1829 60.1196 35.1118 55.7946L36.5722 57.3029C36.79 57.529 37.1482 57.5334 37.3726 57.3162Z" fill="white"/>
</svg>
