<svg width="93" height="92" viewBox="0 0 93 92" fill="none" xmlns="http://www.w3.org/2000/svg">
<path d="M88.9067 20.2673L61.5247 4.45818C61.2561 4.30222 60.9246 4.30222 60.6543 4.45987C54.767 7.88115 9.97803 33.9099 4.1061 37.3223C3.9552 37.4099 3.67566 37.7683 3.67468 38.0699L3.65943 43.4758C3.65858 43.7869 3.82386 44.0742 4.09339 44.2301L7.57727 46.2416L7.50915 71.8605C7.5083 72.1707 7.67273 72.458 7.94141 72.614C8.13523 72.7266 33.8109 87.6449 33.6337 87.5419C33.6334 87.5418 33.6339 87.542 33.6337 87.5419C33.9025 87.6968 34.2336 87.697 34.5004 87.5433C36.639 86.301 39.2017 84.8124 39.0163 84.92C39.2833 84.7658 39.4478 84.481 39.4486 84.1725L39.4748 73.3223L72.0584 54.3927L81.3683 59.8019C81.3691 59.8024 81.3693 59.8032 81.37 59.8036C81.6421 59.9603 81.9734 59.9563 82.2354 59.8045C84.3741 58.5624 86.9375 57.0736 86.7522 57.1812C87.0192 57.0269 87.1836 56.7413 87.1844 56.4328L87.2527 28.1289L88.894 27.1751C89.1602 27.0208 89.3246 26.736 89.3254 26.4275L89.3407 21.0216C89.3407 21.021 89.3403 21.0206 89.3403 21.0199C89.3403 21.0193 89.3407 21.0189 89.3407 21.0182C89.3399 20.7134 89.178 20.4244 88.9067 20.2673ZM61.0925 6.21267L86.7412 21.0216L31.9233 52.8785L6.27422 38.0699L61.0925 6.21267ZM5.4063 39.5735C46.4937 63.2954 24.1395 50.3892 31.055 54.3819C31.0545 54.5575 31.0451 57.9896 31.0457 57.7864C-6.31799 36.2092 41.4804 63.8103 5.39697 42.9783L5.4063 39.5735ZM9.31026 47.2421C39.6936 64.7898 29.2143 58.7376 31.4813 60.0469C31.7509 60.202 32.0848 60.2011 32.3543 60.0443L33.266 59.5097C33.2624 61.0035 33.205 84.7208 33.2036 85.2862L9.24669 71.3638L9.31026 47.2421ZM34.9397 85.281C34.9451 83.0482 34.9961 62.0386 35.0047 58.5009L37.7789 56.8879L37.7144 83.669L34.9397 85.281ZM39.5173 55.8725L77.6853 33.6924L77.639 49.1436L39.4867 71.3079L39.5173 55.8725ZM78.9417 50.3938C79.2078 50.2387 79.3723 49.9539 79.3731 49.6462L79.4242 32.68C79.598 32.5789 81.1917 31.651 81.018 31.7521C81.0073 35.3003 80.9577 51.7591 80.9403 57.5465L73.7918 53.3925L78.9417 50.3938ZM85.4494 55.931L82.6765 57.5412L82.7569 30.7416L85.5147 29.1389L85.4494 55.931ZM32.7815 57.7771L32.7912 54.3817L87.6006 22.5297L87.5913 25.9249C20.6225 64.842 58.1229 43.0502 32.7815 57.7771Z" fill="white"/>
</svg>
