<svg width="93" height="92" viewBox="0 0 93 92" fill="none" xmlns="http://www.w3.org/2000/svg">
<rect x="0.5" width="92" height="92" rx="46" fill="black"/>
<path d="M28.4542 54.4048C28.7671 54.4036 29.0213 54.1494 29.0202 53.8376L29.0136 51.244C29.0125 50.9311 28.7593 50.6791 28.4476 50.6791C28.1347 50.6802 27.8804 50.9345 27.8815 51.2462L27.8882 53.8398C27.8893 54.1527 28.1424 54.4048 28.4542 54.4048Z" fill="white"/>
<path d="M27.8539 67.973C27.855 68.1742 27.9623 68.3589 28.1358 68.4606C28.25 68.5269 36.2205 73.159 36.1072 73.0932C36.1069 73.0931 36.1075 73.0933 36.1072 73.0932C36.2781 73.1906 36.5645 73.1997 36.748 73.0928L64.8796 56.8513C65.0554 56.7507 65.1638 56.5627 65.1627 56.3604C65.1379 47.6469 65.1011 34.6718 65.0709 24.0255C65.0695 23.7852 64.9026 23.6043 64.789 23.5385L64.7877 23.5378C64.7873 23.5375 64.7871 23.5371 64.7868 23.5369C64.7864 23.5367 64.7859 23.5367 64.7856 23.5365L56.8191 18.9063C56.6467 18.8051 56.4289 18.8046 56.252 18.9052C33.82 31.853 40.5516 27.9695 28.1204 35.1467C27.9434 35.2492 27.8373 35.4377 27.8373 35.6365C27.8373 35.6369 27.8376 35.6372 27.8376 35.6376C27.8376 35.638 27.8373 35.6383 27.8373 35.6387C27.8599 43.6004 27.8513 40.5461 27.8738 48.51C27.8749 48.8228 28.1281 49.0749 28.4399 49.0749C28.7527 49.0738 29.007 48.8195 29.0059 48.5077L28.9841 40.6826L35.8196 44.6556C35.9219 80.9216 35.8681 61.8489 35.8843 67.6012L29.0486 63.628L29.0291 56.827C29.028 56.5141 28.7748 56.262 28.4631 56.262C28.1502 56.2631 27.8959 56.5174 27.897 56.8292C27.8962 57.0445 27.852 68.4797 27.8539 67.973ZM63.9421 25.0067L63.9499 27.767L36.9518 43.3545L36.9406 40.5954C43.2807 36.935 57.531 28.708 63.9421 25.0067ZM37.0281 71.5803L37.0203 68.8201L63.9433 53.2759L63.9543 56.0354L37.0281 71.5803ZM64.0179 51.9255L37.0166 67.5155C37.0076 64.3257 36.9812 55.0137 36.9518 44.6619L63.9536 29.0722L64.0179 51.9255ZM48.5158 24.6786L52.4556 26.9679L50.7574 27.9485L46.8174 25.6592L48.5158 24.6786ZM43.4988 27.5751L47.4386 29.8644L45.7405 30.845L41.8005 28.5557L43.4988 27.5751ZM38.4818 30.4716L42.4217 32.761L40.7235 33.7416L36.7835 31.4521L38.4818 30.4716ZM33.4648 33.3682L37.4047 35.6575L35.7077 36.6381L31.7675 34.3481L33.4648 33.3682ZM30.6374 35.0006L35.4225 37.7812C35.5952 37.8829 35.813 37.884 35.9896 37.7823L38.8176 36.1494C38.9923 36.0483 39.1006 35.862 39.1006 35.6597C39.1006 35.4579 38.9934 35.2711 38.8187 35.1699L34.5948 32.7158L35.6539 32.1043L40.4383 34.8847C40.611 34.9864 40.8289 34.9875 41.0055 34.8858L43.8334 33.2529C44.0081 33.1518 44.1165 32.9655 44.1165 32.7632C44.1165 32.5614 44.0092 32.3746 43.8345 32.2734L39.6116 29.8194L40.6709 29.2078L45.4552 31.9882C45.6283 32.09 45.8462 32.0908 46.0224 31.9893L48.8504 30.3564C49.0251 30.2552 49.1334 30.069 49.1334 29.8666C49.1334 29.6649 49.0262 29.478 48.8515 29.3769L44.6287 26.9229L45.6878 26.3113L50.4722 29.0917C50.6449 29.1933 50.8628 29.1945 51.0394 29.0928L53.8673 27.4599C54.042 27.3587 54.1504 27.1724 54.1504 26.9701C54.1504 26.7684 54.0431 26.5815 53.8684 26.4804L49.6456 24.0263L56.5339 20.0494L63.3758 24.0259L36.374 39.6151L29.5321 35.6387L30.6374 35.0006ZM28.9849 39.3738L28.9738 36.6232C29.284 36.8035 36.2532 40.8545 35.8081 40.5958L35.8159 43.3445L28.9849 39.3738ZM35.8083 68.8663L35.8192 71.5736L29.0601 67.6447L29.0523 64.9397L35.8083 68.8663Z" fill="white"/>
<path d="M50.7939 56.4124C54.5981 54.2168 57.6815 48.8704 57.6693 44.4947C57.6555 39.8453 54.2042 37.8944 50.1848 40.2162C46.3773 42.4146 43.2895 47.7627 43.3017 52.1384C43.3154 56.7452 46.7342 58.7572 50.7939 56.4124ZM50.7508 41.1968C54.0287 39.3037 56.5258 40.7446 56.5372 44.4969C56.5494 48.5122 53.7181 53.4175 50.2279 55.4329C46.9493 57.3194 44.4452 55.8945 44.4337 52.1362C44.4216 48.122 47.2562 43.2145 50.7508 41.1968Z" fill="white"/>
<path d="M50.166 47.243L48.7255 48.049C48.3945 48.2344 48.3382 48.6869 48.605 48.9467L51.5722 51.8576C51.7959 52.0767 52.154 52.0739 52.3726 51.8509C52.5927 51.6276 52.5882 51.2694 52.366 51.0505L49.9371 48.6681L51.3511 47.8776C51.6719 47.6987 51.7393 47.2639 51.4871 46.9954L49.4142 44.7887C49.1986 44.561 48.8404 44.5499 48.6138 44.7644C48.3861 44.9778 48.375 45.336 48.5895 45.5648L50.166 47.243Z" fill="white"/>
</svg>
