<svg width="93" height="92" viewBox="0 0 93 92" fill="none" xmlns="http://www.w3.org/2000/svg">
<rect x="0.5" width="92" height="92" rx="46" fill="white"/>
<path d="M39.895 22.5266C39.1443 23.0672 38.3948 23.6669 37.6684 24.3087C37.4341 24.516 37.412 24.8736 37.6187 25.108C37.8276 25.3448 38.1875 25.3621 38.418 25.1578C39.1167 24.5403 39.8364 23.9643 40.5561 23.4453C40.8104 23.2623 40.8679 22.9085 40.6844 22.6548C40.5019 22.4011 40.146 22.3436 39.895 22.5266Z" fill="black"/>
<path d="M62.6295 24.8993C62.617 24.8906 62.6096 24.8775 62.5962 24.8698C62.5895 24.8659 62.5829 24.862 62.5763 24.8582L54.2339 20.0187C50.9382 18.1 46.589 18.5079 41.9933 21.1684C41.7235 21.3249 41.6307 21.6714 41.7877 21.9417C41.9446 22.2132 42.2918 22.3038 42.5615 22.1479C46.7891 19.7008 50.7337 19.2912 53.6656 20.9976L58.2956 23.683C55.5935 23.6203 52.7434 24.6499 50.4095 25.9909C50.3903 26.0019 50.3715 26.0096 50.3523 26.0206C41.2083 31.3006 33.6683 44.1915 33.7039 54.8383C33.7139 57.8108 34.3432 60.2003 35.1646 61.8578C35.1793 61.8877 35.1892 61.9224 35.2042 61.9519C35.0896 61.8853 28.6273 58.1294 29.0363 58.3672C27.3703 56.4424 26.4847 53.5459 26.4737 49.9838C26.4571 42.4297 30.3807 33.4223 36.47 27.0361C36.6856 26.8095 36.6767 26.4513 36.4501 26.2357C36.2246 26.0206 35.8675 26.0289 35.6497 26.2545C29.3702 32.8407 25.3239 42.156 25.3416 49.9871C25.3533 53.7269 26.2942 56.8046 28.0503 58.9326L25.5881 67.594C25.5174 67.8428 25.6235 68.1081 25.8479 68.2385L34.2092 73.0974C34.4206 73.2205 34.6797 73.1874 34.8537 73.0443L42.2343 66.9639C44.9009 67.2623 47.9389 66.4907 51.0256 64.7085C60.227 59.3964 67.6883 46.4671 67.6585 35.8882C67.6442 30.6914 65.8567 26.796 62.6295 24.8993ZM29.0175 59.6673C29.1318 59.7337 36.8554 64.2237 36.3677 63.9402C36.3348 64.056 34.0125 72.2268 34.1476 71.7515L26.7965 67.4801L29.0175 59.6673ZM50.4595 63.729C47.4978 65.4382 44.6201 66.1535 42.1414 65.8108C41.9833 65.7909 41.8264 65.834 41.7025 65.9346L35.5345 71.0161C35.6367 70.6564 37.6254 63.6565 37.5778 63.8241C37.6187 63.6778 37.5954 63.4543 37.4588 63.2977L37.4572 63.2946C35.5011 61.078 34.8457 57.8166 34.8361 54.8368C34.8083 44.5303 42.1367 32.0717 50.9228 26.9996C54.3143 25.0383 58.6064 23.8825 62.0003 25.836C64.9057 27.5082 66.5131 31.0791 66.5264 35.8915C66.5551 46.1089 59.3481 58.596 50.4595 63.729Z" fill="black"/>
<path d="M52.6165 29.942C44.7936 34.4593 38.2068 45.8568 38.2323 54.8294C38.2508 62.4371 42.6272 64.3294 48.7614 60.7872C56.5765 56.2755 63.1556 44.8784 63.1302 35.9009C63.108 28.2627 58.7885 26.3792 52.6165 29.942ZM48.1954 59.8077C42.6683 62.9928 39.382 61.3614 39.3643 54.8272C39.3389 46.2084 45.667 35.2619 53.1825 30.9226C58.5575 27.8181 61.9799 29.1976 61.9981 35.9042C62.0235 44.5269 55.702 55.4729 48.1954 59.8077Z" fill="black"/>
<path d="M50.3821 38.8483C48.3148 40.0422 46.6399 42.946 46.6465 45.3218C46.6476 45.6335 46.9008 45.8856 47.2125 45.8856C47.2125 45.8856 47.2136 45.8856 47.2148 45.8856C47.5265 45.8845 47.7797 45.6302 47.7786 45.3173C47.7731 43.3384 49.2246 40.8244 50.9482 39.8289C52.4532 38.9601 53.5791 39.522 53.5838 41.3158C53.5893 43.1289 52.4108 45.3704 50.8442 46.529C50.7005 46.6363 50.6154 46.8054 50.6154 46.9856L50.6198 49.849C50.6198 50.1607 50.8741 50.4139 51.1859 50.4139C51.4987 50.4139 51.7519 50.1596 51.7519 49.8467L51.7475 47.2609C53.4865 45.8502 54.7214 43.397 54.7159 41.3125C54.709 38.6948 52.6958 37.5162 50.3821 38.8483Z" fill="black"/>
<path d="M51.1732 52.7074C51.6418 52.7074 52.0217 52.3275 52.0217 51.8588C52.0217 51.3902 51.6418 51.0103 51.1732 51.0103C50.7045 51.0103 50.3246 51.3902 50.3246 51.8588C50.3246 52.3275 50.7045 52.7074 51.1732 52.7074Z" fill="black"/>
</svg>
