<svg width="93" height="92" viewBox="0 0 93 92" fill="none" xmlns="http://www.w3.org/2000/svg">
<rect x="0.5" width="92" height="92" rx="46" fill="white"/>
<path d="M27.7174 57.4282C27.7174 57.4316 27.7184 57.4349 27.7184 57.4382L27.7056 62.5439C27.6932 65.5835 29.6967 68.4253 33.3486 70.5459C36.9826 72.6395 41.7428 73.6858 46.4973 73.6858C51.262 73.6858 56.021 72.635 59.6336 70.5335C63.2213 68.4518 65.2039 65.6488 65.2174 62.6397L65.2746 39.4794C66.0631 38.1982 66.4986 36.8344 66.5026 35.4252C66.5462 33.0483 66.5964 29.9852 66.5966 30.1912C66.5921 26.9556 64.449 23.9374 60.5621 21.6934C56.6109 19.4122 51.3803 18.2178 45.8393 18.3203C45.5209 18.3265 45.2674 18.5896 45.2736 18.9085C45.2804 19.2263 45.5114 19.468 45.8618 19.4741C51.1133 19.3716 56.2678 20.5469 59.9851 22.6929C63.5008 24.7222 65.4389 27.386 65.4428 30.1923C65.4519 37.3154 54.5011 40.8751 46.6023 40.8762C42.3308 40.8769 38.0551 40.0534 34.5557 38.406C31.0922 36.7752 27.6495 33.9497 27.6526 30.1374C27.6544 27.3521 29.5617 24.7102 33.0258 22.6968C35.1617 21.4556 37.8102 20.5193 40.6853 19.9891C40.9985 19.9311 41.2058 19.6302 41.1478 19.317C41.0898 19.0043 40.7968 18.793 40.4757 18.8544C37.4288 19.4161 34.7273 20.3733 32.4455 21.6996C28.6305 23.9166 26.5257 26.8937 26.5028 30.0891C26.4867 30.9365 26.3979 35.6137 26.4036 35.3159C26.3994 36.8249 26.8782 38.2819 27.7627 39.64L27.7174 57.4282ZM32.4365 43.8458C40.2947 48.3863 52.9468 48.2574 60.5514 43.8373C60.5527 43.8365 60.5539 43.8356 60.5552 43.8349C60.555 43.835 60.5554 43.8347 60.5552 43.8349C61.9706 43.0175 63.2647 41.9704 64.1166 41.0384L64.0749 57.444C64.0642 60.0289 62.2894 62.4791 59.0769 64.3434C52.1786 68.3605 40.9005 68.3656 33.9357 64.3541C30.6966 62.4865 28.8997 60.0277 28.8724 57.3676L28.913 41.124C29.8653 42.143 31.2305 43.1547 32.4365 43.8458ZM59.0538 69.5357C52.1544 73.5494 40.8819 73.5539 33.9261 69.547C30.6483 67.6433 28.8488 65.1581 28.8595 62.5473L28.8628 61.2076C29.8101 62.7592 31.317 64.1758 33.3599 65.3536C36.9978 67.4495 41.7614 68.4968 46.5182 68.4968C51.2851 68.4968 56.0447 67.445 59.6567 65.3412C61.6525 64.183 63.1295 62.7944 64.0669 61.2748L64.0636 62.6358C64.0523 65.2173 62.2731 67.6675 59.0538 69.5357ZM27.5811 34.0319C30.8365 39.6577 39.653 42.013 46.597 42.013C46.5975 42.013 46.5978 42.013 46.5982 42.013C50.7852 42.013 54.9572 41.241 58.4608 39.7226C61.1589 38.5535 63.8232 36.8118 65.3684 34.3254C65.2033 34.7606 66.358 39.1542 59.9772 42.8362C52.6239 47.1113 40.4967 47.1658 33.0117 42.844C30.1746 41.206 27.5483 38.5904 27.5574 35.3283L27.5811 34.0319Z" fill="black"/>
<path d="M42.3833 19.726C42.882 19.6623 43.3845 19.6105 43.8893 19.5705C44.2065 19.5451 44.4437 19.2668 44.4184 18.9491C44.393 18.6313 44.1248 18.3975 43.7969 18.42C43.2741 18.4623 42.7535 18.5152 42.2369 18.5812C41.9208 18.6217 41.6977 18.9107 41.7377 19.2268C41.7762 19.5286 42.0479 19.7641 42.3833 19.726Z" fill="black"/>
<path d="M50.4738 25.1527C48.2591 23.8732 44.7987 23.8743 42.5963 25.1549C41.6132 25.7262 40.816 26.6164 40.8092 27.7528C40.8085 27.869 40.8083 30.6432 40.8092 30.527C40.8064 31.5467 41.4492 32.4803 42.62 33.1558C43.7265 33.7947 45.144 34.1142 46.5604 34.1142C47.9785 34.1142 49.3955 33.7941 50.4975 33.1536C51.6479 32.4848 52.2829 31.562 52.2851 30.5546V27.7798C52.2851 27.7786 52.2844 27.7776 52.2844 27.7764C52.2844 27.7749 52.2851 27.7735 52.2851 27.772C52.284 26.7567 51.6406 25.8265 50.4738 25.1527ZM43.1761 26.1522C44.1 25.6158 45.3159 25.3476 46.5328 25.3476C47.7498 25.3476 48.9678 25.6158 49.8969 26.1522C50.6924 26.6113 51.1307 27.1871 51.1313 27.7736C51.1323 28.4419 50.5286 29.0262 49.9172 29.3816C48.1024 30.4351 45.024 30.4368 43.1969 29.3822C42.6133 29.0452 41.9637 28.4376 41.9631 27.7612C41.9619 27.1793 42.3929 26.608 43.1761 26.1522ZM51.1313 30.5535C51.1302 31.1326 50.6986 31.7017 49.9177 32.1563C48.1013 33.211 45.0235 33.211 43.1969 32.1563C42.3997 31.6966 41.9614 31.1191 41.9631 30.5287V29.9309C42.1591 30.0915 42.3783 30.2419 42.62 30.3816C44.7571 31.6152 48.2928 31.6603 50.4975 30.3788C50.7077 30.2566 50.9421 30.0977 51.1313 29.9433V30.5535Z" fill="black"/>
<path d="M49.1402 63.1783L52.6981 61.1242C52.9742 60.9647 53.0688 60.612 52.9094 60.336C52.7499 60.0593 52.3956 59.9647 52.1212 60.1247L49.9645 61.3704L51.4547 57.4356C51.5674 57.1375 51.4175 56.8046 51.1194 56.6913C50.8214 56.5792 50.4879 56.7285 50.3752 57.0265L48.312 62.4741C48.2258 62.7022 48.2923 62.9603 48.4782 63.118C48.6659 63.2779 48.932 63.2988 49.1402 63.1783Z" fill="black"/>
<path d="M58.3039 56.5556L55.1923 58.3517C54.9162 58.5112 54.8216 58.8638 54.981 59.1399C55.1409 59.4167 55.4946 59.5098 55.7692 59.3512L59.42 57.2435C59.5592 57.1629 59.6584 57.0283 59.6939 56.8717C59.7299 56.715 59.6984 56.5505 59.6076 56.4181L57.7822 53.7499C57.6031 53.4867 57.2453 53.4203 56.9805 53.5994C56.7174 53.7791 56.6504 54.138 56.8301 54.4011L58.3039 56.5556Z" fill="black"/>
<path d="M51.7888 54.9154C52.0819 55.0278 52.4189 54.8825 52.533 54.5814L54.1134 50.4263L55.4768 52.4168C55.6576 52.6787 56.016 52.7469 56.2791 52.5666C56.5416 52.3863 56.6087 52.0275 56.4289 51.7643L54.4418 48.8645C54.3201 48.6882 54.1089 48.5907 53.8976 48.6177C53.6841 48.6431 53.5026 48.7851 53.4266 48.9856L51.4547 54.1712C51.3414 54.4692 51.4907 54.8022 51.7888 54.9154Z" fill="black"/>
</svg>
