<svg width="93" height="92" viewBox="0 0 93 92" fill="none" xmlns="http://www.w3.org/2000/svg">
<rect x="0.5" width="92" height="92" rx="46" fill="white"/>
<path d="M24.6288 53.3738C24.6293 53.5789 24.7386 53.7682 24.9155 53.8713L28.1117 55.7294C28.1122 55.7296 28.1128 55.7295 28.1133 55.7298C28.1138 55.7301 28.114 55.7308 28.1145 55.7311C28.2035 55.7823 28.3027 55.8077 28.4019 55.8077C28.5016 55.8077 28.6013 55.7818 28.6903 55.7305L30.5041 54.6807L30.5129 59.4438L24.9403 62.6575C24.7369 62.7747 24.6523 63.021 24.6519 63.1561C24.6519 63.1565 24.6521 63.1568 24.6521 63.1572C24.6521 63.1577 24.6519 63.158 24.6519 63.1584L24.6637 67.9935C24.6643 68.1986 24.7741 68.3884 24.9522 68.4915L28.1483 70.3378C28.2373 70.3891 28.3371 70.415 28.4368 70.415C28.5359 70.415 28.6351 70.3896 28.7247 70.3384L30.5479 69.2868V71.2573C30.5479 71.4629 30.6572 71.6528 30.8346 71.7559L34.0308 73.614C34.0306 73.6138 34.031 73.6141 34.0308 73.614C34.0314 73.6143 34.0324 73.6153 34.0331 73.6157C34.1221 73.6669 34.2218 73.6923 34.321 73.6923C34.4207 73.6923 34.5204 73.6664 34.6094 73.6151C34.6091 73.6153 34.6098 73.6149 34.6094 73.6151L43.5168 68.4803C43.6965 68.3772 43.8064 68.1856 43.8058 67.9783L43.7838 61.6435L49.2866 58.4658V60.4343C49.2866 60.64 49.3959 60.8298 49.5734 60.9329L52.7695 62.7905C52.7693 62.7903 52.7697 62.7906 52.7695 62.7905C52.7702 62.7908 52.7712 62.7918 52.7718 62.7922C52.8608 62.8434 52.9605 62.8688 53.0597 62.8688C53.1594 62.8688 53.2591 62.8429 53.3481 62.7916C53.3478 62.7918 53.3485 62.7914 53.3481 62.7916C53.467 62.7229 62.8373 57.3078 62.2392 57.6534C62.4144 57.5492 62.522 57.3604 62.5215 57.1565L62.5102 50.8326L68.0941 47.6074C68.2732 47.5037 68.3831 47.3127 68.3825 47.1065L68.3713 42.2832C68.3709 42.1676 68.2389 41.8756 68.0845 41.7857L64.8883 39.9282C64.7103 39.8245 64.49 39.8234 64.3108 39.9265L62.4817 40.9783L62.4676 36.2185L68.0591 32.9995C68.2388 32.8964 68.3493 32.7043 68.3481 32.4969L68.3251 27.6624C68.3245 27.5468 68.2528 27.2922 68.0388 27.1666L68.0362 27.1651L64.8545 25.3091C64.6759 25.206 64.4545 25.2048 64.2759 25.3079L61.8878 26.6844L57.8835 20.4306C57.879 20.4236 57.8702 20.4215 57.8655 20.4147C57.8187 20.3477 57.7625 20.2868 57.688 20.2435L54.4919 18.386C54.3431 18.2998 54.1656 18.284 54.0051 18.342C53.8445 18.4001 53.7183 18.5268 53.6597 18.6868L49.241 30.8135C49.2171 30.8787 49.2061 30.9459 49.2062 31.0121C49.2062 31.0118 49.2062 31.0124 49.2062 31.0121L49.206 31.0134L49.2162 34.0014L43.1466 37.5017L39.1598 31.2594C39.1263 31.2053 38.9394 31.0472 38.9189 31.0372L35.7655 29.1977C35.619 29.112 35.4404 29.0957 35.2787 29.1532C35.1182 29.2112 34.9914 29.3374 34.9328 29.498L30.5022 41.6364C30.4783 41.7021 30.467 41.7698 30.4673 41.8365L30.4779 44.814L24.9067 48.0382C24.9065 48.0383 24.9069 48.038 24.9067 48.0382C24.9065 48.0383 24.9056 48.0388 24.9054 48.0389C24.715 48.1491 24.6175 48.3583 24.6175 48.5381L24.6288 53.3738ZM67.2281 46.7752L62.5074 49.5015L62.4989 46.0094C62.8376 45.8137 67.5087 43.1157 67.2197 43.2827L67.2281 46.7752ZM64.5965 41.0933L66.6433 42.2827L62.495 44.6788L62.4876 42.3058L64.5965 41.0933ZM67.1926 32.1674L62.4729 34.8846L62.4643 31.3677L67.1757 28.6597L67.1926 32.1674ZM64.5621 26.4747L66.5971 27.6613C66.4034 27.7726 62.3446 30.1056 62.46 30.0392C62.4599 30.009 62.453 27.7219 62.4505 27.6917L64.5621 26.4747ZM43.7258 42.2021L52.4135 37.1818L52.4232 40.6948C51.8659 41.0162 43.6149 45.7747 43.7352 45.7053C43.7349 45.5868 43.7252 41.9729 43.7258 42.2021ZM52.4268 42.0245C52.4271 42.1459 52.4474 50.3161 52.4461 49.8075L52.3092 49.7278L50.4055 48.6209L50.3948 43.1966L52.4268 42.0245ZM43.7393 47.0354L49.2424 43.8613L49.2516 48.6204L43.7538 51.7991L43.7393 47.0354ZM43.7607 53.1281L49.8286 49.6204L51.8739 50.8097L43.7681 55.4908L43.7607 53.1281ZM43.7805 60.3132L43.772 56.8212C43.9076 56.743 52.7062 51.6623 52.4507 51.8099L52.4591 55.3017L43.7805 60.3132ZM50.4404 60.1025V57.8021L52.463 56.6325L52.4794 61.2873L50.4404 60.1025ZM61.2989 27.9013C61.3923 67.5449 61.3601 53.8718 61.367 56.8297L53.6332 61.2952C53.6277 59.2224 53.5756 40.0511 53.5564 32.9697L57.541 22.0346C57.6156 22.1511 61.5491 28.292 61.2989 27.9013ZM54.5076 19.7297L56.6902 20.9985C56.22 22.289 53.0187 31.0738 52.6726 32.0233L50.4906 30.7549L54.5076 19.7297ZM52.4025 33.2009L52.408 35.1775C52.2925 35.1109 50.2388 33.9247 50.37 34.0005L50.3632 32.0158C50.4932 32.0913 52.5328 33.2766 52.4025 33.2009ZM49.7939 35.0003L51.837 36.1806L43.7219 40.8711C43.7218 40.8407 43.7145 38.5387 43.7112 38.5084L49.7939 35.0003ZM28.9743 54.2341L28.9574 50.7173C29.0812 50.6462 33.8119 47.927 33.668 48.0097L33.6848 51.4981L33.6849 51.5064C33.556 51.581 28.6623 54.4148 28.9743 54.2341ZM33.6885 52.8382C33.6888 52.9567 33.7087 61.1431 33.7074 60.6218C33.5871 60.5523 31.5366 59.3682 31.6668 59.4433L31.6566 54.0161L33.6885 52.8382ZM25.817 67.6583L25.808 64.1612C25.9257 64.2297 27.9722 65.4196 27.8486 65.3478C27.8489 65.4662 27.858 69.0659 27.8574 68.8368L25.817 67.6583ZM28.4255 64.3483C28.3023 64.2767 26.2523 63.085 26.3804 63.1595L31.0901 60.443C31.2055 60.5097 33.2648 61.6991 33.1333 61.6231L28.4255 64.3483ZM29.0115 68.842C29.0112 68.7238 29.0022 65.1182 29.0027 65.3474L33.7119 62.6217L33.7204 66.1247C32.8742 66.613 28.7484 68.9938 29.0115 68.842ZM31.7017 70.9254V68.6251L33.7243 67.4554L33.7407 72.1108L31.7017 70.9254ZM42.5601 38.7332C42.5751 44.028 42.6338 62.2788 42.6508 67.6481L34.8945 72.1187C34.8942 71.9899 34.837 50.8745 34.8179 43.7931L38.8124 32.8598C38.8868 32.9764 42.8097 39.1244 42.5601 38.7332ZM35.7802 30.5419L37.9523 31.8089L33.9233 42.8361L31.752 41.5774L35.7802 30.5419ZM33.6536 44.0138L33.6619 45.9896L31.6318 44.8126L31.6245 42.8376L33.6536 44.0138ZM31.0556 45.8127C31.1724 45.8804 33.2381 47.0782 33.1062 47.0017L28.3802 49.7181L26.3457 48.5385L31.0556 45.8127ZM27.8034 50.7178C27.8039 50.836 27.8209 54.4542 27.8199 54.2251L25.782 53.0402L25.7736 49.541L27.8034 50.7178Z" fill="black"/>
<path d="M57.741 53.7248C58.7731 53.1384 59.5675 51.7159 59.5675 50.5805C59.5675 49.1127 58.3176 48.5639 57.1708 49.2255C56.1528 49.8047 55.3555 51.1754 55.3555 52.3535C55.3733 53.7731 56.5559 54.4237 57.741 53.7248ZM57.7438 50.2267C58.2265 49.9495 58.4137 50.1064 58.4137 50.5805C58.4137 51.345 57.8328 52.3456 57.1624 52.7265C56.7214 52.9839 56.5154 52.8509 56.5094 52.3462C56.5094 51.5912 57.0852 50.6019 57.7438 50.2267Z" fill="black"/>
<path d="M57.741 34.6283L57.7431 34.6268L57.7449 34.626C58.7469 34.0542 59.5675 32.6805 59.5675 31.4845C59.5675 30.0902 58.4015 29.4215 57.1703 30.129C56.1528 30.7087 55.3555 32.0795 55.3555 33.257C55.3733 34.6786 56.5597 35.3282 57.741 34.6283ZM57.7438 31.1307C58.2302 30.8489 58.4137 31.0166 58.4137 31.4845C58.4137 32.2485 57.8328 33.2491 57.1624 33.6305C56.7294 33.8842 56.5155 33.7635 56.5094 33.2496C56.5094 32.4953 57.0852 31.5054 57.7438 31.1307Z" fill="black"/>
<path d="M39.0225 44.627C39.9564 44.0755 40.8288 42.7125 40.8288 41.4883C40.8288 40.0923 39.6633 39.4196 38.4265 40.1249C37.4185 40.7131 36.6286 42.0872 36.6286 43.2534C36.6286 44.6582 37.79 45.3298 39.0225 44.627ZM39.0023 41.1243C39.4719 40.857 39.675 41.0078 39.675 41.4883C39.675 42.253 39.0886 43.2476 38.4439 43.6292C38.0064 43.8787 37.7825 43.7797 37.7825 43.2534C37.7825 42.4985 38.3549 41.5018 39.0023 41.1243Z" fill="black"/>
<path d="M39.0169 64.5347C40.0386 63.9465 40.843 62.5722 40.8288 61.4033L40.8287 61.4019L40.8288 61.3999C40.8265 60.0247 39.6845 59.3154 38.4265 60.0399C37.4185 60.6281 36.6286 61.9971 36.6286 63.1572C36.6286 64.5756 37.8067 65.2389 39.0169 64.5347ZM39.0051 61.0382C39.4705 60.7701 39.675 60.8978 39.675 61.4101C39.6831 62.0906 39.1407 63.132 38.4383 63.5358C38.0169 63.7842 37.7825 63.6957 37.7825 63.1572C37.7825 62.4084 38.3549 61.4168 39.0051 61.0382Z" fill="black"/>
</svg>
