<svg width="93" height="92" viewBox="0 0 93 92" fill="none" xmlns="http://www.w3.org/2000/svg">
<rect x="0.5" width="92" height="92" rx="46" fill="white"/>
<path d="M72.8992 55.1503C72.5654 54.9492 70.9966 54.0378 71.1121 54.1079C71.9268 51.7831 72.3562 49.5202 72.3562 47.3802C72.3562 47.3797 72.3562 47.3791 72.3562 47.3785C72.3461 44.2733 71.3975 41.1372 68.7155 39.62C53.9285 31.0319 51.8721 29.8375 51.6383 29.7017C51.6383 29.7002 51.6374 29.6988 51.6374 29.6972C51.6374 29.6963 51.6376 29.6954 51.6376 29.6945C51.6343 28.379 50.7846 27.1637 49.2482 26.2741C49.0389 26.1519 48.7959 26.0334 48.531 25.9138V25.9079C48.531 25.9069 48.5305 25.9062 48.5305 25.9052C48.5305 25.904 48.531 25.9029 48.531 25.9017C48.5299 25.0645 48.0065 24.3022 47.0572 23.7534C45.403 22.7982 42.8812 22.756 41.1353 23.6043L38.9228 22.3179C36.6157 20.9556 33.5654 21.2277 30.3332 23.0881C23.965 26.7626 18.7941 35.7195 18.8065 43.055C18.8181 46.61 20.0359 49.2976 22.2439 50.6764L22.2219 57.1879C22.2219 57.9102 22.667 58.5699 23.4816 59.05C24.2152 59.4691 25.1521 59.6787 26.0868 59.6787C27.0328 59.6787 27.977 59.4646 28.7083 59.0364C29.492 58.5801 29.941 57.9147 29.941 57.2133L29.9486 55.169L40.9015 61.5302L40.8795 68.0452C40.8795 68.7675 41.3246 69.4278 42.1392 69.9078C42.8739 70.3276 43.8114 70.5372 44.7467 70.5372C45.6909 70.5372 46.6318 70.3236 47.3586 69.8977C48.1468 69.4543 48.5986 68.7872 48.5986 68.0706L48.6066 66.0052L52.2298 68.1095C52.2319 68.1107 52.234 68.112 52.2361 68.1133C52.2422 68.1168 52.2473 68.1217 52.2534 68.1252C53.2202 68.6824 54.3115 68.9591 55.4885 68.9591C57.1392 68.9591 58.9573 68.4137 60.8301 67.3331C62.4044 66.4215 63.9177 65.181 65.3405 63.667L67.2658 64.782L67.2675 64.7831C67.2767 64.7885 67.2873 64.7862 67.2967 64.791C68.271 65.3396 69.3966 65.0909 70.3612 64.5341C72.5167 63.2896 74.2002 60.3728 74.1934 57.8944C74.1895 56.6183 73.7275 55.6493 72.8992 55.1503ZM50.4787 32.2078L50.4753 33.4338C50.4731 34.3116 49.8421 35.1606 48.6989 35.8249C46.0926 37.3404 41.8344 37.3404 39.209 35.8237C38.0405 35.1494 37.3988 34.2873 37.401 33.3966L37.4044 32.1712C37.6817 32.4435 38.1754 32.8287 38.6422 33.0997C41.6173 34.8078 46.3621 34.7883 49.2905 33.0991C49.2922 33.0986 49.2933 33.098 49.2944 33.0974C49.7363 32.8385 50.1945 32.4837 50.4787 32.2078ZM48.6674 27.2713C49.8364 27.948 50.4815 28.8094 50.4838 29.6979C50.4865 30.7054 49.5988 31.5809 48.7102 32.0974C46.0902 33.6193 41.7364 33.5494 39.2191 32.0963C38.2999 31.5659 37.4018 30.6728 37.4213 29.6338C37.4459 28.6139 38.3141 27.7859 39.191 27.2741C39.2498 27.2407 39.3082 27.2141 39.3667 27.1828V28.8815C39.3645 29.7204 39.8856 30.4838 40.835 31.032C41.7133 31.5391 42.8379 31.7926 43.9619 31.7926C45.0858 31.7926 46.2087 31.5391 47.082 31.0309C48.0138 30.49 48.5288 29.7356 48.531 28.9063V27.2001C48.5745 27.2239 48.6258 27.247 48.6674 27.2713ZM47.3772 27.8448V28.9046C47.3761 29.2996 47.0572 29.7114 46.5022 30.0337C45.1275 30.8326 42.7956 30.832 41.4119 30.0325C40.8446 29.7052 40.5195 29.2866 40.5206 28.8832V27.833C41.9372 28.8365 44.4401 29.1238 46.3814 28.3668C46.7275 28.2327 47.0677 28.0605 47.3772 27.8448ZM46.4803 24.7529C47.0499 25.0819 47.3766 25.5011 47.3772 25.9028C47.378 26.5532 46.555 27.0645 45.9432 27.2979C44.4573 27.8587 42.5341 27.6824 41.4119 27.0341C40.9957 26.7939 40.5262 26.3542 40.5217 25.8956C40.5217 25.8956 40.5217 25.8957 40.5217 25.8956C40.5217 25.49 40.8338 25.0853 41.4006 24.7557C41.4037 24.7539 41.4049 24.7502 41.408 24.7483C42.7815 23.9546 45.0986 23.9557 46.4803 24.7529ZM28.7872 57.211C28.7872 57.4933 28.5466 57.7953 28.1269 58.0398C27.0322 58.6809 25.1679 58.6838 24.0608 58.0522C23.6191 57.7919 23.3757 57.4848 23.3757 57.1896L23.3954 51.3631L28.7973 54.5004L28.7872 57.211ZM47.4448 68.0683C47.4448 68.3585 47.207 68.6593 46.7839 68.8971C45.6904 69.5394 43.8255 69.5422 42.7184 68.91C42.2767 68.6498 42.0333 68.3427 42.0333 68.0469L42.053 62.199L47.4555 65.3367L47.4448 68.0683ZM41.7691 60.6928C41.7665 60.6914 41.7633 60.6921 41.7607 60.6906L23.0952 49.8485L22.9628 49.7775C21.037 48.6552 19.9705 46.2664 19.9604 43.0522C19.9491 36.0857 24.8609 27.5778 30.9095 24.0875C32.5862 23.1224 34.2246 22.6323 35.6798 22.6323C36.6658 22.6323 37.5678 22.8576 38.3391 23.3134L40.0738 24.3219C39.6715 24.7228 39.3801 25.3 39.3708 25.8634C39.3705 25.8703 39.3667 25.8761 39.3667 25.8831C39.3667 25.8856 39.3667 25.8879 39.3667 25.8904C39.1254 25.998 38.8779 26.1244 38.6163 26.2735C38.6131 26.2754 38.6107 26.2775 38.6076 26.2794C37.365 27.0064 36.3147 28.1287 36.2675 29.5792C36.2466 30.3558 36.2588 31.1627 36.2472 33.3932C36.2438 34.715 37.0906 35.933 38.6321 36.8232C40.129 37.6875 42.0463 38.1202 43.9613 38.1202C45.8774 38.1202 47.7907 37.6875 49.2787 36.8221C50.7908 35.9437 51.6258 34.742 51.6292 33.4372L51.6361 31.0343L65.05 38.8233C63.7553 38.9032 61.99 39.396 60.1833 40.4419C58.1917 41.5911 56.3179 43.2554 54.6837 45.2241C51.0882 49.5553 48.6517 55.3603 48.6679 60.3965C48.6679 60.3992 48.6683 60.4021 48.6683 60.4048C48.6725 62.4011 49.1064 64.1278 49.6764 65.2885C49.4876 65.1787 41.5143 60.5448 41.7691 60.6928ZM60.2526 66.3342C57.4181 67.9697 54.7808 68.2503 52.8298 67.1252C52.829 67.1247 52.8283 67.1241 52.8275 67.1236C52.826 67.1227 52.8252 67.121 52.8236 67.1201L52.8225 67.1196L52.8161 67.1156C50.5727 65.8126 49.83 62.9884 49.8218 60.3937C49.7993 53.4362 54.7065 44.9339 60.7608 41.4409C63.0214 40.1328 65.9183 39.3363 68.1802 40.6436L68.2011 40.6555C68.2025 40.6563 68.2042 40.6562 68.2057 40.657C70.1271 41.7778 71.1917 44.1631 71.2023 47.3819C71.2023 49.3306 70.8343 51.3942 70.1078 53.5254L68.8324 52.7858L68.8357 51.9448C68.8891 51.9196 68.936 51.8918 68.9855 51.8651C69.0253 51.8439 69.0702 51.8287 69.1087 51.8063C69.8704 51.364 70.2913 50.7404 70.2941 50.0536C70.2965 49.791 70.3166 47.4398 70.3166 47.5583C70.3162 46.9327 69.9373 46.3488 69.2949 45.9157C68.9203 43.2411 67.5957 41.7609 65.5255 41.7609C64.3897 41.7609 63.0493 42.1862 61.6493 42.9919C56.1837 46.1402 51.5864 54.1061 51.61 60.3841C51.61 63.9099 53.0597 66.0147 55.4874 66.0147C56.6153 66.0147 57.9517 65.5894 59.3545 64.7826C60.5451 64.0882 61.6686 63.196 62.7086 62.1454L64.3221 63.0805C63.0296 64.4248 61.6628 65.5172 60.2526 66.3342ZM60.265 49.8795C58.1528 51.0919 56.444 54.0616 56.4564 56.4955C56.4564 57.7947 56.9263 58.7869 57.7827 59.2905L61.6832 61.5511C60.7733 62.438 59.7977 63.1881 58.7759 63.7837C57.5511 64.4885 56.4142 64.8609 55.4874 64.8609C53.0292 64.8609 52.7639 61.7301 52.7639 60.3818C52.7413 54.4644 57.0739 46.9588 62.2251 43.9919C63.4499 43.2871 64.5914 42.9147 65.5255 42.9147C66.8129 42.9147 67.654 43.7362 68.0332 45.3604C68.0325 45.3603 68.0318 45.3602 68.0311 45.3601C66.8159 45.0485 65.2472 45.1574 64.1615 45.7858C63.5112 46.1661 62.9856 46.7584 62.9682 47.5211C62.9557 48.5297 62.9431 49.5536 62.9445 49.4351C62.2827 49.2173 61.2757 49.2913 60.265 49.8795ZM68.5521 48.3234C67.5199 48.9223 65.7745 48.9256 64.7424 48.329C64.0684 47.9405 64.1832 47.6689 64.1181 47.5532C64.1181 47.0016 65.0317 46.5896 65.608 46.4547C67.1931 46.089 69.16 46.7273 69.16 47.5594L69.1598 47.5743C69.1512 47.8797 68.8201 48.1675 68.5521 48.3234ZM64.095 50.0508L64.102 49.2911C64.8635 49.7403 65.7637 49.9296 66.6399 49.9296C66.6396 49.9296 66.6402 49.9296 66.6399 49.9296C67.6104 49.9296 68.504 49.686 69.1324 49.3206C69.136 49.3183 69.14 49.3161 69.1441 49.3138L69.1374 50.0457C69.1374 50.3065 68.92 50.5758 68.5177 50.8085C68.1943 51.0011 67.6437 51.1907 66.9681 51.2402C66.1528 51.3016 65.0022 51.1552 64.3733 50.5553C64.2324 50.4224 64.095 50.2453 64.095 50.0508ZM65.5576 52.3184C66.0659 52.4251 66.9605 52.4602 67.6777 52.3201C67.6771 52.5321 67.6717 54.6179 67.672 54.4994C67.672 54.5101 67.6405 54.5816 67.4855 54.6701C67.0264 54.9366 66.2111 54.9354 65.743 54.6678C65.5987 54.5856 65.5525 54.5129 65.5486 54.5016L65.5576 52.3184ZM62.9104 60.9267C62.9089 60.9258 62.9083 60.9241 62.9068 60.9233L58.3641 58.2939C57.8779 58.0082 57.6103 57.3693 57.6103 56.4927C57.6001 54.4611 59.079 51.8908 60.8425 50.8784C62.3348 50.0101 63.0131 50.8008 63.1361 50.8198C63.3269 51.1897 63.7476 51.6339 64.4049 51.9494L64.3947 54.4994C64.3947 54.9608 64.677 55.3873 65.17 55.6696C65.5858 55.9067 66.1041 56.0256 66.6213 56.0256C67.1385 56.0256 67.654 55.9067 68.0625 55.6696C68.5476 55.3918 68.8259 54.9653 68.8259 54.4994L68.8274 54.1171C68.943 54.1842 70.5495 55.1157 70.4338 55.0487C69.8125 55.285 69.5363 55.528 69.3734 55.6415C67.2888 57.0809 65.93 59.8907 65.9413 61.9875C65.9413 62.2405 65.9599 62.4833 65.9965 62.7138L62.9104 60.9267ZM69.7842 63.5346C69.0236 63.9741 68.338 64.0625 67.854 63.7831C67.3701 63.5048 67.1024 62.8681 67.0996 61.9904C67.094 59.9627 68.5769 57.3902 70.3381 56.3732C70.9227 56.0348 71.6946 55.7865 72.2795 56.1186L72.2969 56.1289C72.7725 56.4097 73.0367 57.036 73.0396 57.8978C73.0452 59.9661 71.5849 62.4952 69.7842 63.5346Z" fill="black"/>
</svg>
