<svg width="93" height="92" viewBox="0 0 93 92" fill="none" xmlns="http://www.w3.org/2000/svg">
<rect x="0.5" width="92" height="92" rx="46" fill="white"/>
<path d="M37.4172 18.3859C37.1395 18.2242 36.7874 18.32 36.6285 18.5955L35.2955 20.8958C35.1355 21.1713 35.2296 21.524 35.5051 21.684C35.7806 21.8439 36.1341 21.7494 36.2938 21.4745L37.6268 19.1741C37.7868 18.8986 37.6927 18.5459 37.4172 18.3859Z" fill="black"/>
<path d="M22.9559 43.4223C23.231 43.5812 23.5845 43.4873 23.7441 43.211L25.0697 40.9157C25.2292 40.6396 25.1345 40.287 24.8585 40.1275C24.583 39.9669 24.2297 40.0616 24.0703 40.3388L22.7446 42.6341C22.5851 42.9102 22.6798 43.2628 22.9559 43.4223Z" fill="black"/>
<path d="M30.5252 37.5516C33.7534 35.6879 36.3716 31.1531 36.3609 27.442C36.3492 23.4626 33.377 21.751 29.9122 23.7539C26.6844 25.6177 24.0663 30.1564 24.0765 33.8715C24.0881 37.8452 27.0543 39.5557 30.5252 37.5516ZM30.4891 24.7534C33.1742 23.2045 35.1977 24.3486 35.207 27.4453C35.2166 30.7874 32.8576 34.8732 29.9482 36.5522C27.2656 38.1048 25.2397 36.9625 25.2303 33.8681C25.2213 30.5221 27.5803 26.4329 30.4891 24.7534Z" fill="black"/>
<path d="M30.2119 39.4796H30.2102C29.8919 39.4807 29.6339 39.7393 29.635 40.0582L29.6412 42.2239C29.6423 42.5423 29.9003 42.7992 30.2181 42.7992H30.2198C30.5381 42.798 30.7962 42.5394 30.795 42.2206L30.7888 40.0548C30.7877 39.7365 30.5297 39.4796 30.2119 39.4796Z" fill="black"/>
<path d="M30.1539 19.009H30.1522C29.8338 19.0102 29.5758 19.2688 29.5769 19.5876L29.5831 21.7528C29.5843 22.0711 29.8423 22.328 30.1601 22.328H30.1617C30.4801 22.3269 30.7381 22.0683 30.737 21.7494L30.7308 19.5843C30.7297 19.2659 30.4716 19.009 30.1539 19.009Z" fill="black"/>
<path d="M38.4686 26.5575L40.3531 25.469C40.6292 25.3096 40.7238 24.9569 40.5644 24.6808C40.4044 24.4047 40.0517 24.3107 39.7762 24.4695L37.8916 25.558C37.6156 25.7175 37.5209 26.0702 37.6804 26.3462C37.8402 26.623 38.194 26.7161 38.4686 26.5575Z" fill="black"/>
<path d="M20.6611 36.8384L22.5384 35.7544C22.8144 35.595 22.9091 35.2423 22.7496 34.9662C22.5896 34.689 22.2353 34.5955 21.9614 34.7549L20.0842 35.8389C19.8081 35.9984 19.7135 36.3511 19.8729 36.6271C20.0328 36.9039 20.3865 36.997 20.6611 36.8384Z" fill="black"/>
<path d="M37.4888 34.133L36.1473 33.3775C35.8679 33.2192 35.5169 33.3194 35.3614 33.5966C35.2048 33.8744 35.3034 34.2265 35.5805 34.3826L36.922 35.1381C37.1962 35.2933 37.55 35.1986 37.7079 34.9189C37.8646 34.6412 37.766 34.2891 37.4888 34.133Z" fill="black"/>
<path d="M25.0675 27.718C25.2252 27.4408 25.1283 27.0887 24.8517 26.9309L23.5176 26.1709C23.2398 26.012 22.8877 26.1101 22.7305 26.3867C22.5727 26.6639 22.6696 27.016 22.9463 27.1738L24.2804 27.9338C24.5567 28.0909 24.9093 27.9951 25.0675 27.718Z" fill="black"/>
<path d="M50.5031 20.8844C50.2846 20.8844 50.0929 21.0132 50.0036 21.1669L27.5865 59.9272C27.5098 60.0602 27.489 60.2174 27.5284 60.3655C27.5679 60.5131 27.6648 60.6393 27.7972 60.716L50.1405 73.6156C50.2301 73.6669 50.3293 73.6928 50.429 73.6928C50.5282 73.6928 50.6279 73.6669 50.7169 73.6156C50.7173 73.6154 50.7174 73.6149 50.7178 73.6147C50.7176 73.6148 50.718 73.6145 50.7178 73.6147L63.7151 66.0621C63.9906 65.9021 64.0847 65.5488 63.9242 65.2739C63.7636 64.9973 63.4103 64.9049 63.1354 65.0649L51.0078 72.1123L51.0649 42.1446L53.5638 38.9715L55.2455 40.3006C55.3881 40.4132 55.5745 40.4515 55.7481 40.4059C55.9233 40.3608 56.0664 40.2358 56.1357 40.069L57.96 35.6838L71.8428 60.0044L67.3502 62.6158C67.0747 62.7758 66.9812 63.129 67.1417 63.4045C67.3017 63.6795 67.655 63.773 67.9305 63.613L72.9177 60.7143C73.1915 60.5554 73.2856 60.205 73.1284 59.9295L51.0037 21.1697C50.9139 21.0123 50.72 20.8844 50.5031 20.8844ZM49.9004 39.3095L47.7247 34.6265C47.6362 34.4367 47.4526 34.3093 47.2441 34.2941C47.0323 34.2806 46.8351 34.3775 46.7196 34.5522L44.6603 37.6779L43.6557 34.4471L49.9228 23.6112L49.9004 39.3095ZM42.8698 35.8059L43.9206 39.1845C43.9871 39.3974 44.1702 39.5529 44.391 39.5845C44.617 39.6183 44.831 39.5163 44.9533 39.3304L47.1139 36.0508L49.8964 42.0404L49.8535 72.1174L28.8738 60.0055L42.8698 35.8059ZM55.3633 38.9225L53.8257 37.7078C53.7052 37.6131 53.5519 37.5675 53.4004 37.5878C53.2483 37.6058 53.1097 37.6836 53.015 37.8036L51.0685 40.2754C51.0839 17.4653 51.0786 25.3326 51.0797 23.6306L57.2374 34.4181L55.3633 38.9225Z" fill="black"/>
<path d="M65.9997 63.4005L64.6904 64.1611C64.4149 64.3211 64.3208 64.6738 64.4814 64.9493C64.6424 65.2274 64.9971 65.3174 65.2696 65.1584L66.5789 64.3978C66.8544 64.2378 66.9485 63.8851 66.7879 63.6096C66.6274 63.3329 66.273 63.2405 65.9997 63.4005Z" fill="black"/>
</svg>
