<svg width="93" height="92" viewBox="0 0 93 92" fill="none" xmlns="http://www.w3.org/2000/svg">
<rect x="0.5" width="92" height="92" rx="46" fill="white"/>
<path d="M25.7195 55.9763L33.9778 60.7759C33.9778 60.7759 33.9801 60.7776 33.9824 60.7788L33.9866 60.7799C33.9895 60.7816 33.9919 60.7838 33.9948 60.7855C35.5706 61.693 37.4568 61.2558 39.044 60.3399L64.0511 45.9027C67.0135 44.1922 69.4147 40.0309 69.4057 36.6257C69.4008 34.6984 68.604 33.4273 67.6411 32.8667L64.217 30.8802C64.257 30.4563 64.2958 30.0326 64.2945 29.6227C64.2866 26.849 63.3097 24.7622 61.5451 23.7469C61.5404 23.7443 61.5352 23.7427 61.5304 23.74L53.2991 18.9501C51.5188 17.9191 49.1863 18.1304 46.731 19.5462C46.4549 19.7057 46.3603 20.0584 46.5203 20.3344C46.678 20.6099 47.0296 20.7046 47.3079 20.5457C49.3925 19.3434 51.3148 19.1327 52.7188 19.9479L58.2413 23.1616C53.3177 23.8226 48.5335 29.8135 46.9771 35.1743C46.8606 35.1065 39.2629 30.6858 39.7471 30.9675C40.475 28.2733 41.9725 25.5307 43.8971 23.3824C44.1101 23.1452 44.0898 22.7807 43.8532 22.5677C43.6165 22.3565 43.2514 22.3751 43.0385 22.6128C41.0018 24.8852 39.4252 27.7877 38.6487 30.6447C37.6326 30.5957 36.5045 30.8917 35.3469 31.5602C32.3153 33.3104 29.7376 37.1158 29.0037 40.8736C25.8513 43.3143 23.5844 47.7119 23.5944 51.4381C23.6 53.5717 24.355 55.1836 25.7195 55.9763ZM64.0556 32.1208L64.8895 32.6045C64.5594 32.6945 64.2219 32.8212 63.8798 32.9879C63.9076 32.8718 64.0345 32.2368 64.0556 32.1208ZM63.1406 29.626C63.1423 30.1339 63.0966 30.6595 63.0285 31.1926C62.9107 32.103 62.6864 33.1204 62.3631 34.0814C62.1865 34.6016 62.7968 35.0774 63.2612 34.731C64.3082 33.9411 65.9138 33.2071 67.0495 33.8628C67.8214 34.3068 68.2484 35.2888 68.2518 36.6291C68.2608 39.6653 66.1165 43.3775 63.4742 44.9032L38.467 59.3404C36.9616 60.2103 35.5768 60.3675 34.5705 59.7855C33.4256 59.1267 33.0145 57.556 33.0111 56.2361C33.002 52.8325 35.2004 48.6279 38.1267 46.4548C38.2034 46.3979 38.3286 46.223 38.351 46.092C38.4272 45.6596 38.5322 45.2239 38.663 44.7893C39.7601 41.146 43.233 36.6785 46.609 36.5801C47.1198 36.5649 47.7463 36.8041 47.9006 36.1902C49.5856 29.2507 56.6889 22.2655 60.9794 24.7549L60.9817 24.7556C62.3672 25.5607 63.1339 27.2886 63.1406 29.626ZM35.9238 32.5597C37.0033 31.936 38.0186 31.6718 38.8761 31.8008C38.9929 31.8687 45.8263 35.8408 45.4094 35.5984C45.3995 35.6011 45.3893 35.6061 45.3793 35.6088C41.6034 36.6363 38.3315 41.2298 37.3831 45.0924C37.2676 45.0253 29.6854 40.6182 30.1659 40.8975C30.8848 37.5565 33.2578 34.0989 35.9238 32.5597ZM29.5653 41.8834L36.7667 46.0683C34.0033 48.4582 31.8466 52.6351 31.8572 56.2394C31.8589 56.891 31.9657 57.73 32.1574 58.3468C32.1616 58.3602 32.1629 58.3761 32.1671 58.3894L26.2987 54.9791C25.3037 54.4005 24.7527 53.1419 24.7482 51.4347C24.7392 48.1484 26.79 44.1139 29.5653 41.8834Z" fill="black"/>
<path d="M45.3056 20.5006C44.9495 20.7721 44.6014 21.064 44.2622 21.3744C44.0267 21.5896 44.0098 21.9542 44.225 22.1897C44.4407 22.4256 44.8054 22.4402 45.0397 22.2263C45.3541 21.9395 45.6752 21.6691 46.0042 21.4189C46.2578 21.2257 46.3073 20.864 46.1135 20.6104C45.9208 20.3558 45.5558 20.3085 45.3056 20.5006Z" fill="black"/>
<path d="M47.6877 57.1871C47.5029 57.2203 47.3451 57.3409 47.2662 57.5111C46.8561 58.3905 44.8121 62.8566 44.8166 64.4527C44.8235 66.4325 46.3797 67.3383 48.1001 66.3441C49.6179 65.468 50.8033 63.411 50.7976 61.6622C50.7931 60.0402 48.8077 57.9511 48.1992 57.3494C48.0834 57.248 48.0789 57.2441 48.1947 57.3454C48.0629 57.213 47.8736 57.1544 47.6877 57.1871ZM47.9592 58.7719C48.846 59.7652 49.6415 60.9467 49.6438 61.6656C49.6472 62.9941 48.677 64.6786 47.5231 65.3446C46.5786 65.8897 45.9728 65.5361 45.9704 64.4493C45.9682 63.5321 47.0555 60.7934 47.9592 58.7719Z" fill="black"/>
<path d="M57.9202 60.6745C59.4346 59.7995 60.6166 57.7448 60.611 55.9966C60.6065 54.3052 58.4452 52.0995 58.0126 51.6741C57.8785 51.5429 57.6858 51.4893 57.501 51.5271C57.3162 51.5603 57.1551 51.6905 57.0762 51.8606C56.5015 53.1035 54.6254 57.2766 54.6299 58.7871C54.6368 60.7488 56.1751 61.68 57.9202 60.6745ZM55.7837 58.7837C55.7815 57.9296 56.7359 55.4343 57.7782 53.1041C58.5883 54.0156 59.4549 55.2382 59.4571 55.9999C59.4605 57.3279 58.4926 59.0108 57.3432 59.675C56.4338 60.1997 55.7862 59.9185 55.7837 58.7837Z" fill="black"/>
<path d="M53.0309 73.2863C54.5488 72.4107 55.7341 70.3577 55.7285 68.6123C55.724 66.9824 53.7363 64.8972 53.1267 64.2972C53.0113 64.1817 53.009 64.1795 53.1245 64.2949C52.9915 64.1625 52.8 64.1028 52.6185 64.1377C52.4337 64.171 52.2771 64.2915 52.1971 64.4617C51.9458 64.9992 49.7429 69.7627 49.7474 71.4028C49.7521 73.3717 51.3014 74.2852 53.0309 73.2863ZM52.8901 65.7209C53.778 66.7125 54.5724 67.8928 54.5747 68.6157C54.578 69.9402 53.6079 71.6214 52.454 72.2868C51.5104 72.8312 50.9036 72.4866 50.9013 71.3994C50.899 70.4754 51.9864 67.7384 52.8901 65.7209Z" fill="black"/>
</svg>
