<svg width="93" height="92" viewBox="0 0 93 92" fill="none" xmlns="http://www.w3.org/2000/svg">
<rect x="0.5" width="92" height="92" rx="46" fill="white"/>
<path d="M61.8887 51.4722C59.6571 50.1885 59.344 49.9949 57.217 48.76C55.471 47.7301 53.1881 47.929 50.7903 49.3166L25.1167 64.1375C23.6343 64.9995 22.4732 67.0142 22.4732 68.7343C22.4906 69.674 22.8411 70.3833 23.4529 70.7276C23.6056 70.8165 28.026 73.3923 28.159 73.4685C28.8643 73.8724 29.7662 73.6668 30.4076 73.2967C46.8008 63.8314 37.2685 69.3342 53.2176 60.1275C52.6261 61.2583 51.764 62.2461 50.8331 62.7876L49.2421 63.7099C47.7603 64.5629 46.5992 66.5714 46.5992 68.283C46.5992 69.221 46.949 69.936 47.5783 70.2932C53.6139 73.7575 51.8383 72.8327 52.4785 73.0981C53.7075 73.6097 54.7805 72.6857 56.1071 71.944C57.0237 71.4146 57.9593 70.6757 58.6354 70.0425C59.1641 69.5476 59.7587 68.9129 60.36 68.1636C62.8972 65.0026 64.6072 60.8602 64.5993 57.251V57.2493C64.5893 54.9603 63.8798 52.6183 61.8887 51.4722ZM57.8868 69.1724C57.1703 69.843 56.3809 70.452 55.5347 70.9405C54.3165 71.5974 53.5645 72.2583 52.9583 72.0562C52.1605 71.7815 52.4684 70.2343 52.8171 69.455C53.2389 68.5143 53.9388 67.7594 54.5144 67.4328C56.2551 66.3982 55.9228 66.6735 56.6321 66.1483C58.3651 64.8729 59.6707 62.5472 59.832 60.4245C59.942 59.0228 59.5862 57.7759 58.3404 57.1136C57.6724 56.8278 56.5861 56.8412 55.4953 57.4792C26.2383 74.3706 35.4483 69.0533 29.8335 72.295C29.4818 72.4976 29.0033 72.6526 28.7106 72.4465C28.4706 72.3 28.3275 71.9259 28.3275 71.4403C28.3275 70.1222 29.3185 68.4864 30.3878 67.8711C33.0372 66.3412 20.852 73.3779 56.0575 53.0475C57.6445 52.1326 59.703 51.5544 61.2865 52.4649C62.8803 53.2192 63.435 55.4767 63.4398 57.2493C63.4494 60.5468 61.9202 64.3195 59.6351 67.2413C59.0903 67.9377 58.5075 68.5912 57.8868 69.1724ZM24.0253 69.7253C23.7814 69.5884 23.636 69.2194 23.627 68.7236C23.627 67.4306 24.5747 65.7871 25.6953 65.1358L51.3678 50.3155C52.9955 49.373 55.0141 48.802 56.6339 49.7555L58.6035 50.9026C57.7467 51.0235 56.5746 51.4147 55.4772 52.0458C52.8022 53.5906 65.0656 46.5082 29.8154 66.866C28.3663 67.7027 27.1686 69.7048 27.1686 71.4487C27.1687 71.4694 27.1741 71.4863 27.1746 71.5068C27.1749 71.5228 27.1748 71.5389 27.1753 71.5547L24.0253 69.7253ZM48.153 69.2926C47.8989 69.1484 47.753 68.7805 47.753 68.283C47.753 66.9905 48.6984 65.3539 49.819 64.7088L51.4123 63.7854C52.9438 62.8949 54.2758 61.1067 54.8547 59.1823L56.0733 58.4787C56.6424 58.15 57.383 57.9085 57.9564 58.2247C58.6357 58.6316 58.7437 59.5238 58.6852 60.3166C58.5452 62.1393 57.4077 64.0591 56.108 65.108C55.5699 65.5399 55.2564 65.6487 53.9391 66.4209C53.0173 66.9473 52.1695 68.0544 51.7474 69.0159C51.3905 69.8264 51.2658 70.5612 51.2855 71.1135L48.153 69.2926Z" fill="black"/>
<path d="M22.4377 52.3714C22.4377 53.3033 22.7966 54.0413 23.4169 54.3929L28.0424 57.082C28.5976 57.4381 29.4135 57.501 30.3614 56.9541L56.0271 42.1355C60.7197 39.4261 64.5249 32.8343 64.5091 27.4415C64.5013 24.7422 63.5551 22.707 61.848 21.6984C61.8379 21.6917 61.8323 21.6813 61.8217 21.6751L57.1319 18.9437C55.3753 17.9346 53.0952 18.1363 50.7092 19.5172L49.1283 20.4344C47.6437 21.2824 46.4808 23.292 46.4808 25.0098C46.4808 25.927 46.833 26.6572 47.4471 27.0133L52.1475 29.743C52.1484 29.7435 52.1494 29.7432 52.1503 29.7437C52.1507 29.744 52.1511 29.7444 52.1515 29.7447C52.4919 29.9408 52.8923 30.0011 53.315 29.9506C52.7244 31.2411 51.7727 32.3883 50.7413 32.9831L25.0772 47.8C23.5972 48.6648 22.4377 50.6728 22.4377 52.3714ZM48.0262 26.0149C47.7772 25.8707 47.6347 25.5045 47.6347 25.0098C47.6347 23.7123 48.5806 22.0762 49.7041 21.4345L51.2878 20.5156C52.4929 19.8181 53.6473 19.4654 54.6766 19.4654C55.3662 19.4654 55.9995 19.6237 56.5539 19.9426L58.5348 21.0964C56.952 21.3176 55.2833 22.2285 53.8113 23.1529C52.6875 23.8064 51.7746 25.1264 51.3921 26.3688C51.2483 26.8335 51.1529 27.3524 51.1695 27.8404L48.0262 26.0149ZM52.7288 28.7453C52.1733 28.4125 52.2953 27.3524 52.4881 26.7225C52.7915 25.7372 53.514 24.6626 54.3921 24.1563C56.1053 23.2113 58.7791 21.2586 61.229 22.6683C62.5936 23.4537 63.3491 25.1501 63.3553 27.4449C63.3699 32.4693 59.8239 38.6109 55.4502 41.1361L29.7844 55.9547C29.3446 56.2083 28.9441 56.271 28.685 56.1219C28.6838 56.1212 28.6831 56.1199 28.6819 56.1192L28.6793 56.1177C28.0525 55.7474 28.2747 54.4351 28.6072 53.6462C28.9429 52.8491 29.5851 51.9647 30.3416 51.5325L56.0147 36.7055C56.0146 36.7055 56.0148 36.7054 56.0147 36.7055L56.0175 36.7038C58.043 35.5194 59.8443 32.6128 59.7704 30.0445C59.741 28.9051 59.3341 27.8447 58.3033 27.3361C58.3018 27.3354 58.3003 27.3356 58.2989 27.3349L58.2875 27.3288C57.5982 27.0104 56.5243 27.0234 55.4119 27.6651L53.8304 28.5784C53.3898 28.8324 52.9896 28.8927 52.7288 28.7453ZM51.3182 33.9826C52.8512 33.098 54.1893 31.3042 54.7747 29.366L55.9916 28.6635C56.5426 28.3437 57.2993 28.1065 57.8621 28.4114C58.4506 28.7748 58.6221 29.4825 58.6221 30.1712C58.6221 32.2077 57.1408 34.7203 55.4344 35.7049C52.8083 37.2207 64.9424 30.2166 29.7653 50.5218C28.9476 50.9897 28.0219 52.016 27.5132 53.2774C27.2183 54.007 27.1035 54.7671 27.1252 55.2143L23.9915 53.3923C23.7374 53.2481 23.5915 52.8762 23.5915 52.3714C23.5915 51.0886 24.5386 49.4513 25.657 48.7978L51.3182 33.9826Z" fill="black"/>
<path d="M69.5031 34.6761C68.1773 33.9117 66.8226 35.0516 66.5661 35.1505C66.29 35.3099 66.1954 35.6626 66.3548 35.9387C66.5148 36.2136 66.8664 36.3083 67.143 36.15C67.3627 36.0536 68.303 35.3151 68.9279 35.6762C69.2316 35.8508 69.4068 36.2818 69.4085 36.8582C69.4124 38.3078 68.3493 40.1484 67.0867 40.8769L58.9129 45.5965C58.6368 45.756 58.5421 46.1087 58.7016 46.3847C58.8614 46.6615 59.2152 46.7546 59.4898 46.596L67.6636 41.8764C69.2941 40.9349 70.5674 38.7292 70.5623 36.8548C70.5589 35.8412 70.1831 35.0671 69.5031 34.6761Z" fill="black"/>
<path d="M36.2506 34.884L28.0762 39.603C27.8001 39.7625 27.7055 40.1152 27.8649 40.3912C28.0248 40.668 28.3785 40.7611 28.6531 40.6025L36.8275 35.8835C38.458 34.942 39.7307 32.7363 39.7257 30.8619C39.7223 29.8477 39.3465 29.0742 38.667 28.6832C37.3401 27.9207 35.9865 29.0589 35.73 29.1576C35.4539 29.317 35.3593 29.6703 35.5187 29.9458C35.6782 30.2213 36.0314 30.3159 36.3069 30.157C36.5231 30.0621 37.4655 29.3237 38.0912 29.6832C38.3949 29.8579 38.5701 30.2889 38.5718 30.8652C38.5757 32.3149 37.5126 34.1549 36.2506 34.884Z" fill="black"/>
</svg>
