<svg width="93" height="92" viewBox="0 0 93 92" fill="none" xmlns="http://www.w3.org/2000/svg">
<rect x="0.5" width="92" height="92" rx="46" fill="white"/>
<path d="M22.916 52.9277C22.8939 53.392 22.8834 53.853 22.8851 54.3102C22.8989 60.2281 24.9386 64.6641 28.6267 66.8C28.7431 66.8678 37.3932 71.9017 37.2742 71.8325L37.2754 71.833C37.2787 71.8349 37.2827 71.834 37.2861 71.8359C37.2941 71.8406 37.3009 71.8471 37.3091 71.8518C41.6133 74.3285 46.8268 73.032 51.1621 70.529C61.647 64.4756 70.1492 49.7526 70.1149 37.7093C70.0984 31.7654 68.0443 27.315 64.3313 25.1786C64.3028 25.1622 64.2713 25.153 64.2426 25.1369L55.713 20.1727C49.7267 16.6867 41.966 20.4996 36.7806 25.1614C30.9959 30.3227 26.2647 37.999 24.1255 45.6963C24.042 45.9976 24.2183 46.3094 24.5196 46.3934C24.8214 46.4741 25.1326 46.3005 25.2166 45.9992C27.3 38.5031 31.9046 31.0285 37.5363 26.005C42.2971 21.7239 49.6351 17.9421 55.1431 21.1511L59.8129 23.8685C59.7883 23.8671 59.7628 23.8689 59.7381 23.8677C48.1367 23.2949 36.1279 38.201 32.6756 51.1934C31.9408 53.9563 31.5224 56.7102 31.5298 59.3365C31.5381 62.4435 32.1643 65.9059 33.8636 68.5379L29.1949 65.8211C25.8689 63.8947 24.0298 59.8058 24.0171 54.3068C24.0155 53.8685 24.026 53.4263 24.047 52.9807C24.0619 52.669 23.8203 52.4037 23.508 52.3887C23.2156 52.3832 22.9309 52.6148 22.916 52.9277ZM68.9829 37.7127C69.016 49.3944 60.7676 63.6758 50.596 69.5484C45.7615 72.3399 41.2442 72.8092 37.8734 70.8706C34.0138 68.6493 32.675 63.8183 32.6647 59.3393C32.6556 56.7638 33.0686 54.0616 33.7957 51.3512C38.3761 34.2928 54.4936 20.7836 63.778 26.1763L63.7907 26.1835C63.7972 26.1872 63.8045 26.187 63.8111 26.1904C67.1292 28.1286 68.9675 32.2151 68.9829 37.7127Z" fill="black"/>
<path d="M23.722 50.9576C24.0006 50.9576 24.2432 50.752 24.2825 50.4684C24.3787 49.7631 24.5047 49.034 24.6567 48.3021C24.7197 47.9959 24.5235 47.6963 24.2173 47.6327C23.9083 47.568 23.612 47.7654 23.5479 48.0722C23.3909 48.8294 23.2604 49.584 23.1604 50.3147C23.1183 50.6243 23.335 50.9101 23.6446 50.9526C23.6706 50.956 23.6965 50.9576 23.722 50.9576Z" fill="black"/>
<path d="M51.4434 32.2502C43.4553 36.8619 36.9774 48.0876 37.0034 57.2747C37.0283 66.133 42.9335 68.9726 50.1942 64.7808C58.1872 60.1651 64.6679 48.945 64.6408 39.769C64.616 30.9528 58.7557 28.0277 51.4434 32.2502ZM49.6281 63.8001C42.8905 67.6892 38.1566 64.9103 38.1354 57.2714C38.1106 48.4458 44.3342 37.6612 52.0095 33.2308C58.748 29.3385 63.4876 32.1182 63.5088 39.7723C63.5347 48.5868 57.3078 59.3653 49.6281 63.8001Z" fill="black"/>
<path d="M59.0518 43.0684L51.0786 40.8297C50.7108 40.7294 50.3583 41.005 50.3594 41.3764L50.3721 45.9539L44.8798 44.4084C44.5151 44.3074 44.1595 44.5825 44.1606 44.9551L44.1999 58.629C44.2006 58.9395 44.453 59.1933 44.7659 59.1933C44.9478 59.1933 45.1236 59.1054 45.2314 58.9496L50.3882 51.512L50.3981 55.0503C50.3987 55.2974 50.5601 55.5158 50.7961 55.5893C51.0316 55.6633 51.2881 55.5743 51.429 55.3715L59.3635 43.9363C59.468 43.7859 59.4934 43.5941 59.4315 43.4217C59.3696 43.2498 59.2281 43.1182 59.0518 43.0684ZM51.5252 53.2472L51.5153 49.7078C51.5147 49.4607 51.3533 49.2423 51.1173 49.1688C50.8812 49.0953 50.6248 49.1838 50.4838 49.3872L45.327 56.8247L45.2949 45.7013L50.7873 47.2468C51.1542 47.3472 51.5076 47.0716 51.5064 46.7002L51.4937 42.1221L57.9805 43.9435L51.5252 53.2472Z" fill="black"/>
</svg>
