<svg width="93" height="92" viewBox="0 0 93 92" fill="none" xmlns="http://www.w3.org/2000/svg">
<rect x="0.5" width="92" height="92" rx="46" fill="black"/>
<path d="M31.5205 69.7239C33.2584 70.7344 37.2362 73.0469 36.9819 72.8991L36.9861 72.9002L36.9902 72.9035C37.8045 73.3732 38.763 73.1712 39.5733 72.7028L59.5637 61.1615C61.3187 60.1477 62.6896 57.7697 62.6841 55.7477L62.5956 24.5924C62.5929 23.532 62.2052 22.7249 61.5112 22.3039C61.3386 22.186 58.4677 20.5322 56.0171 19.1067C55.3079 18.6799 54.3588 18.7485 53.4163 19.293C48.3998 22.1924 38.3673 27.9921 33.3513 30.8923C31.6299 31.9271 30.3038 34.2554 30.316 36.2426L30.3873 58.8487C30.3884 59.161 30.6416 59.4131 30.9533 59.4131H30.955C31.2679 59.412 31.5205 59.1577 31.5194 58.8454L31.4514 37.2848L35.781 39.7369L35.8419 61.1898C35.8744 70.9297 35.8486 70.5793 35.8863 70.9527L32.0915 68.7466C31.735 68.5371 31.5382 68.0584 31.5382 67.3979L31.5293 64.3123C31.5282 64 31.2751 63.7479 30.9633 63.7479C30.7018 63.7662 30.3962 64.0022 30.3973 64.3156L30.4061 67.3995C30.4061 68.4769 30.8013 69.3016 31.5205 69.7239ZM58.9976 60.1809L39.0072 71.7222C38.4362 72.0528 37.905 72.1252 37.5545 71.9223C37.2041 71.7211 37.0023 71.2302 37.0007 70.5758C37.0015 70.8795 36.9898 66.7108 36.9156 39.3808C36.93 37.7596 38.1122 35.7803 39.4666 34.9983C55.1569 25.94 59.3632 23.4987 59.6887 23.3473C60.7015 22.8792 61.4601 23.2569 61.4636 24.5957L61.552 55.751C61.5564 57.3502 60.3868 59.3788 58.9976 60.1809ZM53.9823 20.2736C54.5594 19.9408 55.0879 19.8695 55.4417 20.0818L59.2508 22.2917C59.1359 22.3439 59.0199 22.4042 58.9039 22.4705C58.4536 22.728 61.8991 20.7402 39.1819 33.8515L34.8468 31.324L53.9823 20.2736ZM33.7511 31.9961L38.151 34.5615C36.9939 35.5478 36.148 37.0651 35.8764 38.4897L31.4678 35.9929C31.5612 34.5391 32.5397 32.8313 33.7511 31.9961Z" fill="white"/>
<path d="M59.305 26.0417C59.1287 25.9411 58.9136 25.9417 58.7395 26.0423L39.0714 37.3979C38.8956 37.4996 38.7878 37.687 38.7883 37.8898L38.8757 64.576C38.8765 64.8864 39.1275 65.1404 39.4417 65.1404C39.5395 65.1404 39.6374 65.1149 39.7247 65.0646L59.3929 53.709C59.5687 53.6073 59.6765 53.42 59.6759 53.2171L59.5886 26.5309C59.588 26.3286 59.4797 26.1423 59.305 26.0417ZM40.0044 63.5959L39.9215 38.2143L58.4598 27.511L58.5427 52.8926L40.0044 63.5959Z" fill="white"/>
<path d="M55.9253 32.4743L41.9071 40.568C41.6362 40.7245 41.5433 41.0705 41.6998 41.3413C41.8566 41.6129 42.2037 41.7042 42.4731 41.5486L56.4914 33.455C56.7622 33.2985 56.8551 32.9525 56.6987 32.6816C56.5422 32.4102 56.1945 32.3174 55.9253 32.4743Z" fill="white"/>
<path d="M55.9253 38.169L41.9071 46.2627C41.6362 46.4191 41.5433 46.7651 41.6998 47.036C41.8566 47.3076 42.2037 47.3989 42.4731 47.2433L56.4914 39.1496C56.7622 38.9932 56.8551 38.6471 56.6987 38.3763C56.5422 38.1038 56.1945 38.012 55.9253 38.169Z" fill="white"/>
<path d="M55.9253 43.8636L41.9071 51.9573C41.6362 52.1137 41.5433 52.4598 41.6998 52.7306C41.8566 53.0022 42.2037 53.0935 42.4731 52.9379L56.4914 44.8443C56.7622 44.6878 56.8551 44.3418 56.6987 44.0709C56.5422 43.7995 56.1945 43.7067 55.9253 43.8636Z" fill="white"/>
<path d="M49.1699 53.4581L41.9071 57.652C41.6362 57.8084 41.5433 58.1544 41.6998 58.4253C41.8566 58.6969 42.2037 58.7882 42.4731 58.6326L49.736 54.4387C50.0068 54.2823 50.0997 53.9362 49.9432 53.6654C49.7863 53.394 49.4397 53.3011 49.1699 53.4581Z" fill="white"/>
<path d="M48.9477 60.512C48.0229 61.046 47.3005 62.2947 47.3032 63.3549C47.3079 64.6475 48.3936 65.2696 49.5226 64.618C50.4441 64.0851 51.1638 62.8381 51.161 61.7778C51.1575 60.4793 50.0786 59.8608 48.9477 60.512ZM48.9566 63.6374C48.6055 63.8385 48.4364 63.7889 48.4353 63.3516C48.4336 62.6938 48.9378 61.8248 49.5138 61.4926C49.9132 61.2625 50.028 61.3944 50.0289 61.7812C50.0306 62.439 49.5292 63.3063 48.9566 63.6374Z" fill="white"/>
<path d="M30.9595 62.9508C31.2718 62.9497 31.5249 62.696 31.5238 62.3831L31.5194 60.8138C31.5183 60.5021 31.2651 60.2494 30.9534 60.2494H30.9517C30.6394 60.2505 30.3862 60.5043 30.3873 60.8171L30.3918 62.3864C30.3929 62.6982 30.646 62.9508 30.9578 62.9508H30.9595Z" fill="white"/>
</svg>
