<svg width="93" height="92" viewBox="0 0 93 92" fill="none" xmlns="http://www.w3.org/2000/svg">
<rect x="0.5" width="92" height="92" rx="46" fill="black"/>
<path d="M24.18 65.08C24.54 65.32 24.9 65.2 25.02 64.84C25.14 64.6 25.14 64.24 24.78 64L22.86 62.92C22.62 62.8 22.14 62.8 22.02 63.16C21.9 63.4 21.9 63.76 22.26 64L24.18 65.08Z" fill="white"/>
<path d="M75.3001 48.76L71.1001 46.24C70.9801 46.12 70.7401 46.12 70.6201 46.24C69.6601 46.48 68.8201 46.6 67.9801 46.72V31.24C67.9801 31 67.8601 30.88 67.6201 30.76L44.5801 17.32C44.3401 17.2 44.2201 17.2 43.9801 17.32C36.6601 21.52 31.2601 24.64 17.7001 32.44C17.4601 32.56 17.4601 32.8 17.3401 32.92C17.3401 33.04 17.4601 60.64 17.4601 60.76C17.4601 61 17.5801 61.12 17.7001 61.24L20.4601 62.8C20.7001 62.92 21.0601 62.92 21.3001 62.56C21.4201 62.32 21.4201 61.96 21.0601 61.72L18.6601 60.28L18.5401 34C26.8201 38.8 32.2201 41.92 40.3801 46.72L40.5001 73.12L26.9401 65.32C26.7001 65.08 26.2201 65.2 26.1001 65.56C25.9801 65.8 25.9801 66.16 26.3401 66.4C28.9801 67.96 41.5801 75.28 40.7401 74.8C40.8601 74.92 41.1001 74.92 41.3401 74.8C41.4601 74.68 53.8201 67.6 53.9401 67.48C54.6601 68.44 55.6201 69.28 56.7001 69.88L60.9001 72.4C62.1001 73.12 63.5401 73.6 65.1001 73.72C65.2201 73.72 65.4601 73.6 65.5801 73.48C71.3401 66.76 74.7001 58.48 75.5401 49.48C75.6601 49.12 75.4201 48.76 75.3001 48.76ZM70.6201 47.44L73.2601 49C70.5001 49.48 67.9801 49 65.3401 48.28L64.5001 47.8C66.5401 48.04 68.7001 47.92 70.6201 47.44ZM55.5001 59.56L52.3801 57.76C54.6601 55.36 59.5801 49.36 61.1401 47.08L64.3801 49C61.7401 52.84 58.8601 56.44 55.5001 59.56ZM44.2201 18.52L66.0601 31.24C65.9401 31.36 57.3001 36.28 57.9001 35.92L36.0601 23.2L44.2201 18.52ZM34.8601 23.92L56.7001 36.64L50.4601 40.24L28.6201 27.52L34.8601 23.92ZM51.0601 41.2L57.3001 37.6V44.8L54.4201 43.6C54.1801 43.48 53.8201 43.6 53.7001 43.84L51.0601 47.92V41.2ZM27.4201 28.24L49.2601 40.96C49.1401 41.08 40.3801 46.12 40.9801 45.76C38.3401 44.2 24.4201 36.16 19.1401 33.04L27.4201 28.24ZM53.3401 66.4L41.7001 73.12L41.5801 46.6C41.7001 46.48 50.4601 41.56 49.8601 41.8V49.96C49.8601 50.2 49.9801 50.44 50.3401 50.56C50.5801 50.68 50.8201 50.56 51.0601 50.32L54.5401 44.92L57.7801 46.24C58.0201 46.36 58.1401 46.24 58.3801 46.24C58.5001 46.12 58.6201 46 58.6201 45.76V36.88C58.7401 36.76 67.3801 31.84 66.7801 32.2V46.72C64.8601 46.72 62.9401 46.36 61.1401 45.76C60.9001 45.76 60.6601 45.76 60.5401 46C60.4201 46.12 53.8201 54.88 51.0601 57.52C50.9401 57.64 50.8201 57.88 50.8201 58C50.8201 58.12 50.9401 62.68 53.3401 66.4ZM52.1401 59.2V59.08L55.1401 60.76C55.3801 63.52 56.1001 66.52 57.5401 68.8L57.3001 68.68C54.0601 66.76 52.6201 62.92 52.1401 59.2ZM64.9801 72.28C63.5401 72.16 62.3401 71.68 61.2601 70.96C60.1801 70.24 59.3401 69.28 58.6201 68.2C57.1801 65.92 56.5801 63.28 56.3401 60.52C59.8201 57.28 62.9401 53.32 65.5801 49.48C68.5801 50.32 71.4601 50.68 74.3401 49.96H74.4601C73.5001 58.36 70.2601 66.04 64.9801 72.28Z" fill="white"/>
<path d="M64.9802 56.32C63.6602 57.04 62.5802 58.84 62.5802 60.4C62.5802 61.12 62.8202 61.72 63.1802 62.08L62.5802 65.2C62.4602 65.56 62.8202 65.92 63.1802 65.92C63.3002 65.92 63.4202 65.92 63.5402 65.8L67.6202 63.4C67.8602 63.28 67.9802 63.04 67.8602 62.68L67.2602 60.16C67.6202 59.44 67.8602 58.6 67.8602 57.88C67.9802 56.2 66.5402 55.36 64.9802 56.32ZM66.0602 60.28L66.6602 62.56L64.1402 64L64.6202 61.72C64.6202 61.48 64.5002 61.12 64.2602 61C64.0202 60.88 63.9002 60.64 63.9002 60.16C63.9002 59.08 64.7402 57.64 65.7002 57.16C66.4202 56.8 66.9002 56.92 66.9002 57.76C66.9002 58.36 66.6602 58.96 66.3002 59.56C66.0602 59.92 66.0602 60.16 66.0602 60.28Z" fill="white"/>
</svg>
