<svg width="93" height="92" viewBox="0 0 93 92" fill="none" xmlns="http://www.w3.org/2000/svg">
<rect x="0.5" width="92" height="92" rx="46" fill="white"/>
<path d="M30.9208 67.3062C30.9208 68.7216 31.5362 69.6019 32.1726 69.9187C32.7861 70.2751 29.9508 68.6268 38.1725 73.4039C39.0852 73.9225 40.1583 73.6857 41.0603 73.1616L58.6215 63.0193C60.6272 61.8649 62.1884 59.1555 62.176 56.8511L62.0836 24.6849C62.0836 23.6392 61.7698 22.8211 61.185 22.3259C60.9239 22.095 61.0462 22.2112 54.8614 18.6013C54.0518 18.1381 53.0168 18.2227 51.9475 18.8384L45.3838 22.6273C45.1078 22.7868 45.0131 23.1395 45.1726 23.4155C45.332 23.6916 45.6847 23.7851 45.9608 23.6268L52.5238 19.8379C53.2224 19.4351 53.8484 19.3511 54.285 19.6007L58.4801 22.0425C57.8899 22.2884 58.1702 22.1921 40.6563 32.2878C40.5406 32.2205 35.5025 29.2923 35.8235 29.4788L40.9425 26.5238C41.2186 26.3644 41.3133 26.0117 41.1538 25.7356C40.9944 25.4584 40.64 25.3649 40.3656 25.5243L34.3845 28.9769L34.3834 28.978C32.3827 30.1329 30.8202 32.8388 30.8247 35.14L30.8239 35.1433L30.9208 67.3062ZM32.7231 68.9051C32.2272 68.6572 32.0746 67.8564 32.0746 67.3045L31.9805 36.1467L36.8036 38.9534L36.8951 70.7925C36.8951 70.7976 36.9313 71.3338 36.9339 71.3548L32.7231 68.9051ZM61.0222 56.8579C61.0323 58.7532 59.6971 61.0688 58.0452 62.0198L40.4822 72.1633C38.9842 73.0325 38.0529 72.3218 38.0529 70.7841L37.9565 38.6308C37.9567 38.6256 37.9605 38.6214 37.9605 38.6161C37.9552 36.832 39.2406 34.4393 40.9454 33.4582L58.5075 23.3151L58.5117 23.3131C59.828 22.5479 60.9298 22.9389 60.9298 24.6866L61.0222 56.8562V56.8579ZM34.6837 30.1515C34.7993 30.2188 39.9061 33.1901 39.582 33.0015C38.2873 34.0709 37.1809 35.9221 36.8883 37.6628L31.9901 34.8171C32.1169 33.0987 33.2544 31.1285 34.6837 30.1515Z" fill="black"/>
<path d="M42.7555 25.477L44.1111 24.6945C44.3871 24.535 44.4818 24.1823 44.3224 23.9063C44.1624 23.6302 43.808 23.5356 43.5342 23.695L42.1786 24.4776C41.9025 24.637 41.8079 24.9897 41.9673 25.2658C42.1272 25.5426 42.481 25.6356 42.7555 25.477Z" fill="black"/>
<path d="M46.7687 34.0232L51.4827 31.302C51.7588 31.1426 51.8534 30.7899 51.694 30.5138C51.534 30.2377 51.1796 30.1437 50.9058 30.3025L46.1918 33.0238C45.9157 33.1832 45.8211 33.5359 45.9805 33.812C46.1404 34.0888 46.4941 34.1819 46.7687 34.0232Z" fill="black"/>
<path d="M52.0364 60.8711L47.7963 63.319C47.034 63.7596 46.461 64.7495 46.4633 65.6222C46.4656 66.7191 47.4063 67.2732 48.38 66.7113L52.6196 64.2633C53.383 63.8233 53.9559 62.8334 53.9531 61.9607C53.9508 60.8619 53.0099 60.3107 52.0364 60.8711ZM52.0432 63.2638L47.803 65.7118C47.6407 65.8058 47.6171 65.8217 47.6171 65.6188C47.616 65.1597 47.9692 64.5518 48.3732 64.3185L52.6134 61.8705C52.7759 61.7765 52.7993 61.7612 52.7993 61.9641C52.801 62.4238 52.4477 63.0306 52.0432 63.2638Z" fill="black"/>
<path d="M54.0338 23.8663C55.0929 23.2506 55.0982 22.0575 54.0242 21.4363C53.1678 20.9417 51.828 20.9422 50.9751 21.4374C49.9117 22.0563 49.9149 23.2487 50.9846 23.8674C51.8559 24.3701 53.1658 24.3701 54.0338 23.8663ZM51.5554 22.4347C51.8061 22.2893 52.152 22.2161 52.4985 22.2161C52.8461 22.2161 53.1937 22.2893 53.4473 22.4358C53.7379 22.6039 53.7455 22.6992 53.454 22.8685C52.952 23.1609 52.0675 23.1603 51.5621 22.8679C51.256 22.6914 51.2772 22.5966 51.5554 22.4347Z" fill="black"/>
<path d="M34.0099 39.6139H34.0082C33.6899 39.615 33.4319 39.8736 33.433 40.1925L33.4386 42.2377C33.4397 42.5554 33.6978 42.8129 34.0155 42.8129H34.0172C34.3356 42.8118 34.5936 42.5532 34.5925 42.2343L34.5868 40.1891C34.5857 39.8714 34.3277 39.6139 34.0099 39.6139Z" fill="black"/>
<path d="M34.0099 44.449H34.0082C33.6899 44.4501 33.4319 44.7087 33.433 45.0276L33.4386 47.0727C33.4397 47.3905 33.6978 47.648 34.0155 47.648H34.0172C34.3356 47.6468 34.5936 47.3882 34.5925 47.0694L34.5868 45.0242C34.5857 44.7064 34.3277 44.449 34.0099 44.449Z" fill="black"/>
<path d="M59.4447 27.2134C59.3342 26.9418 59.1269 26.7446 58.8621 26.6584C58.5719 26.5643 58.2435 26.615 57.9539 26.7925L54.0197 29.054C53.9115 29.1166 53.8264 29.2118 53.7768 29.3267L52.7565 31.7003L45.8312 35.6954L45.0238 34.7804C44.8407 34.5737 44.5382 34.5258 44.3027 34.6621L40.3651 36.9377C39.7915 37.274 39.3757 37.9974 39.3757 38.66L39.454 65.1703L39.4986 65.4109C39.6646 66.0521 40.3316 66.3713 41.0259 65.9731L58.6103 55.8195C59.1731 55.495 59.6142 54.7384 59.6142 54.0966V54.095L59.5337 27.6849C59.5337 27.4878 59.4976 27.3154 59.4447 27.2134ZM58.0339 54.8201L40.5983 64.8813L40.5296 38.6583C40.5296 38.4121 40.7335 38.0594 40.9454 37.9349L44.4706 35.8977L45.2779 36.8126C45.4593 37.0183 45.7602 37.0667 45.9991 36.9309L53.4991 32.604C53.6067 32.542 53.6912 32.4463 53.7408 32.3319L54.7611 29.9588L58.3804 27.881L58.4604 54.0978C58.4598 54.3344 58.2452 54.6984 58.0339 54.8201Z" fill="black"/>
<path d="M49.313 49.4644C49.3485 49.4712 49.384 49.474 49.419 49.474C49.5998 49.474 49.7745 49.3889 49.8849 49.2418C50.7108 48.1404 54.8327 42.4664 54.8423 38.926C54.8446 36.6439 53.0848 35.6009 51.0821 36.7445C50.4708 37.0972 49.8528 37.7501 49.1992 38.7333C48.5046 38.531 47.8358 38.6054 47.2031 38.9609L47.1975 38.9643C45.4115 39.9953 44.0103 42.4055 44.0081 44.4512C44.0081 48.3505 48.7705 49.3619 49.313 49.4644ZM47.7716 39.9654C48.215 39.717 48.6646 39.7147 49.1868 39.9609C49.4528 40.0843 49.7677 39.9908 49.9232 39.7423C50.5604 38.7136 51.1447 38.0409 51.6568 37.7451C52.8535 37.0626 53.6896 37.5083 53.6884 38.9237C53.6817 41.4494 50.9514 45.8366 49.1806 48.2536C48.1051 47.9877 45.1619 47.0249 45.1619 44.4518C45.1642 42.8365 46.3586 40.7829 47.7716 39.9654Z" fill="black"/>
<path d="M54.8056 48.6058L43.6074 55.0725C43.3314 55.2319 43.2367 55.5846 43.3962 55.8607C43.556 56.1375 43.9098 56.2306 44.1844 56.072L55.3825 49.6052C55.6586 49.4458 55.7533 49.0931 55.5938 48.817C55.4338 48.5398 55.0794 48.4469 54.8056 48.6058Z" fill="black"/>
<path d="M54.8056 52.6296L43.6074 59.0957C43.3314 59.2552 43.2367 59.6079 43.3962 59.8839C43.556 60.1607 43.9098 60.2538 44.1844 60.0952L55.3825 53.6291C55.6586 53.4696 55.7533 53.1169 55.5938 52.8409C55.4338 52.5642 55.0794 52.4696 54.8056 52.6296Z" fill="black"/>
</svg>
