<svg width="93" height="92" viewBox="0 0 93 92" fill="none" xmlns="http://www.w3.org/2000/svg">
<rect x="0.5" width="92" height="92" rx="46" fill="white"/>
<path d="M39.2617 73.6142C39.3507 73.6655 39.4505 73.6914 39.5502 73.6914C39.6493 73.6914 39.7491 73.666 39.8381 73.6148C39.8387 73.6144 39.8389 73.6136 39.8396 73.6133C39.8393 73.6134 39.8398 73.6131 39.8396 73.6133L64.4091 59.3354C64.5861 59.2328 64.6954 59.0435 64.6959 58.8384L64.7613 35.8421C64.7618 35.6353 64.652 35.4443 64.4728 35.3406C64.4656 35.3365 64.4569 35.3383 64.4496 35.3345L56.9711 31.0183L56.9553 26.9144C56.9553 19.6052 50.858 16.1103 44.4845 19.7812C39.2865 22.7813 35.2238 29.8221 35.2357 35.8111L35.2449 39.559L28.5975 43.4192C28.5962 43.42 28.5945 43.4196 28.5932 43.4204C28.4151 43.5235 28.3047 43.7134 28.3041 43.919L28.2816 51.9542C28.2805 52.2731 28.5385 52.5317 28.8568 52.5328C28.8574 52.5328 28.8579 52.5328 28.8585 52.5328C29.1763 52.5328 29.4343 52.2754 29.4354 51.9576L29.4552 44.9185C29.5706 44.9851 39.375 50.6456 39.0375 50.4508L38.9761 72.1167L29.3937 66.5846L29.414 59.4576C29.4152 59.1387 29.1571 58.8801 28.8388 58.879C28.8382 58.879 28.8377 58.879 28.8371 58.879C28.5193 58.879 28.2613 59.1365 28.2602 59.4542L28.2388 66.9154C28.2382 67.1221 28.3481 67.3131 28.5272 67.4168L39.2617 73.6142ZM40.13 72.1105L40.1915 50.4504L60.5106 38.6424L63.6046 36.8447L63.5432 58.5043L40.13 72.1105ZM41.5801 35.7964C41.5694 32.0008 44.3543 27.1815 47.662 25.2721C49.6975 24.0937 50.6216 24.4553 50.6216 26.9375L50.631 30.6208L41.5803 35.8774L41.5801 35.7964ZM45.0608 20.7807C50.6675 17.5501 55.8015 20.5031 55.8015 26.9167L55.8342 35.726C55.833 35.7311 55.8319 35.7362 55.8308 35.7412C55.3164 36.9098 51.8798 36.7069 51.798 35.6004L51.7861 30.9501C51.7861 30.9494 51.7856 30.9488 51.7856 30.9481L51.7754 26.9358C51.7754 23.6456 50.0089 22.583 47.0851 24.2726C43.4641 26.3628 40.4144 31.6419 40.4263 35.7998C40.427 36.3542 40.4382 45.0962 40.4375 44.5831C40.2159 45.7439 36.5988 45.7051 36.4109 44.5404L36.3895 35.8083C36.3788 30.194 40.188 23.5932 45.0608 20.7807ZM35.243 40.8947L35.2514 44.5444C35.2514 47.2553 41.6015 47.2985 41.6015 44.5168L41.5836 37.2093L50.6343 31.9528C50.6358 32.5131 50.634 35.5998 50.6458 35.7181C50.6459 35.7188 50.6462 35.7194 50.6462 35.72C50.6463 35.7208 50.6463 35.7237 50.6464 35.7243C50.8965 38.3882 56.9903 38.241 56.9903 35.6483L56.9813 32.3563L63.0271 35.8457L57.7637 38.9044L39.6126 49.4502C39.4938 49.3816 29.4029 43.5553 30.0338 43.9196L35.243 40.8947Z" fill="black"/>
<path d="M28.8422 57.6288H28.8439C29.1617 57.6288 29.4197 57.3713 29.4208 57.0536L29.4281 54.4794C29.4293 54.1605 29.1712 53.9019 28.8529 53.9008H28.8512C28.5335 53.9008 28.2754 54.1582 28.2743 54.476L28.267 57.0502C28.2658 57.3691 28.5239 57.6277 28.8422 57.6288Z" fill="black"/>
<path d="M45.3499 53.3228C45.1707 53.2197 44.9493 53.2191 44.7712 53.3239L42.3705 54.7195L42.3644 54.7211C42.1864 54.8242 42.0759 55.0141 42.0754 55.2197L42.054 62.7417C42.0534 62.9485 42.1633 63.1395 42.3424 63.2431C43.1463 63.707 44.093 63.9079 44.9003 63.4426C45.0173 63.3751 47.4192 61.9756 47.3037 62.042C48.008 61.6448 48.4119 60.8109 48.4119 59.7545V58.6379C48.421 56.6536 47.0761 54.3194 45.3499 53.3228ZM43.2089 62.3901L43.2258 56.4116C44.2849 57.4915 44.8566 58.991 44.8512 60.0374V61.154C44.8512 61.1586 44.8503 61.1622 44.8503 61.1667C44.8424 62.2867 44.2689 62.8519 43.2089 62.3901ZM47.2581 58.6373V59.7545C47.2581 60.3827 47.0682 60.8504 46.7302 61.0408L45.9933 61.4695C46.001 61.369 46.0047 61.2657 46.0049 61.1604L46.0051 61.158L46.0085 60.0363C46.0126 58.4082 45.0461 56.4271 43.712 55.2744L45.0467 54.498C46.2778 55.3718 47.2654 57.1854 47.2581 58.6345V58.6373Z" fill="black"/>
<path d="M52.2278 49.3254C52.0487 49.2223 51.8273 49.2218 51.6492 49.3266L49.2508 50.7217C49.2484 50.723 49.2454 50.7224 49.2429 50.7238C49.0649 50.8269 48.9545 51.0168 48.9539 51.2224L48.9325 58.7444C48.9319 58.9512 49.0418 59.1422 49.221 59.2458C50.0248 59.7097 50.9716 59.9106 51.7788 59.4453C51.8958 59.3778 54.2977 57.9783 54.1823 58.0446C54.8865 57.648 55.2905 56.8142 55.2905 55.7572V54.6406C55.2995 52.6563 53.9547 50.3227 52.2278 49.3254ZM50.0875 58.3928L50.1044 52.4149C50.1158 52.4264 50.1279 52.4361 50.1392 52.4477C50.9986 53.3395 51.7356 54.797 51.7292 56.0401V57.1567C51.7292 58.2664 51.1604 58.8602 50.0875 58.3928ZM54.1366 54.64V55.7572C54.1366 56.3854 53.9468 56.8531 53.6087 57.0435L52.8712 57.4722C52.8787 57.3748 52.8821 57.2743 52.8825 57.1722C52.8825 57.1681 52.8836 57.1648 52.8836 57.1607L52.8864 56.0389C52.8905 54.4413 51.9411 52.4444 50.5906 51.2771L51.9247 50.5013C53.1563 51.3745 54.144 53.1881 54.1366 54.6372V54.64Z" fill="black"/>
<path d="M59.1064 45.328C58.9272 45.2249 58.7058 45.2243 58.5278 45.3291L56.1294 46.7243C56.1269 46.7257 56.1239 46.725 56.1215 46.7264C55.9434 46.8295 55.833 47.0193 55.8324 47.225L55.811 54.747C55.8105 54.9537 55.9203 55.1447 56.0995 55.2484C56.9121 55.7172 57.854 55.9097 58.6568 55.4478C58.7722 55.3814 61.1752 53.981 61.0597 54.0472C61.7645 53.6511 62.1685 52.8173 62.1685 51.7598V50.6465C62.1792 48.6617 60.8343 46.3258 59.1064 45.328ZM56.966 54.3954L56.9829 48.4177C58.0465 49.5086 58.613 51.0069 58.6078 52.0426V53.1593C58.6078 53.1635 58.6068 53.1668 58.6068 53.171C58.5993 54.2937 58.0242 54.8563 56.966 54.3954ZM61.0146 50.6431V51.7598C61.0146 52.3886 60.8247 52.8556 60.4867 53.046L59.7498 53.4748C59.7575 53.3743 59.7613 53.2709 59.7614 53.1656L59.7616 53.1632L59.765 52.0415C59.7689 50.4712 58.8459 48.4699 57.4691 47.2796L58.8033 46.5038C60.0349 47.3771 61.0225 49.1907 61.0146 50.6398V50.6431Z" fill="black"/>
</svg>
