<svg width="93" height="92" viewBox="0 0 93 92" fill="none" xmlns="http://www.w3.org/2000/svg">
<rect x="0.5" width="92" height="92" rx="46" fill="white"/>
<path d="M31.0924 35.7669L48.5331 25.7012C48.8091 25.5417 48.9038 25.1891 48.7443 24.913C48.5838 24.6375 48.2305 24.5417 47.9561 24.7017L30.5132 34.7691C29.0377 35.63 27.8895 37.6273 27.899 39.3147L27.9565 61.8766C27.9565 62.8085 28.3008 63.5173 28.9205 63.8699L32.413 65.901C32.4141 65.9016 32.4156 65.9014 32.4167 65.902C32.4181 65.9028 32.4189 65.9042 32.4203 65.9049C33.1282 66.3115 33.9505 66.1479 34.6576 65.7399L42.3344 61.3077L42.3375 62.7653L37.1039 65.803C36.9268 65.9061 36.8137 66.1024 36.8132 66.3061L36.8053 69.2251C36.8047 69.4318 36.9146 69.6228 37.0938 69.7265L43.8298 73.6157C44.0103 73.7196 44.2306 73.7173 44.4061 73.6162C44.5487 73.5341 58.5123 65.4208 58.6963 65.3117C58.8732 65.2091 58.9825 65.0198 58.983 64.8148L58.9909 61.9037C58.991 61.8999 58.9937 61.8968 58.9937 61.893C58.9932 61.6873 58.8833 61.4975 58.7053 61.3944L51.967 57.5063C51.8187 57.4212 51.6454 57.4246 51.4871 57.4813L51.4829 56.0257L62.4795 49.6767C63.9539 48.8254 65.1055 46.8304 65.101 45.1346L65.0452 22.5782C65.043 21.6673 64.7075 20.9719 64.1072 20.6025C63.9471 20.4941 61.5799 19.1259 60.5837 18.5443C59.9493 18.1786 59.1509 18.2378 58.3391 18.7094L53.6465 21.4176C53.3704 21.5771 53.2758 21.9298 53.4352 22.2058C53.5941 22.4808 53.9473 22.5754 54.2234 22.4171L58.9177 19.7077C59.3599 19.4508 59.7464 19.3933 60.005 19.5426L61.9443 20.6706C59.5494 21.9216 70.0682 15.9779 34.008 36.7985C32.492 37.6736 31.384 39.7197 31.3888 41.3474L31.412 50.7486L31.4406 63.906C31.4411 63.9381 31.4417 63.9702 31.4428 64.0023L29.4957 62.8699C29.2506 62.7307 29.1104 62.3685 29.1104 61.8749L29.0529 39.3096C29.0456 38.0385 29.9808 36.4154 31.0924 35.7669ZM44.6197 59.9882C44.6202 60.1707 44.6381 66.3328 44.6371 65.9652L43.4974 65.3013C43.4971 65.1828 43.4864 60.5271 43.4867 60.6456C43.6023 60.5785 44.7353 59.9211 44.6197 59.9882ZM37.9642 67.3056C38.0812 67.3731 43.9149 70.7422 43.5486 70.5307L43.5441 72.1181L37.9603 68.8944L37.9642 67.3056ZM44.6981 72.1119L44.7026 70.5377L57.8343 62.9003L57.8303 64.4807L44.6981 72.1119ZM51.4943 58.7847L51.6819 58.6743L57.2639 61.8952L44.1259 69.5302C44.0089 69.4626 38.1778 66.0898 38.544 66.3016L42.3403 64.0978L42.3435 65.634C42.3438 65.735 42.3714 65.8318 42.4195 65.9169C42.42 65.9179 42.4197 65.9192 42.4203 65.9202C42.4697 66.0063 42.5411 66.0797 42.6297 66.1314C42.7522 66.2028 45.0761 67.5564 44.9277 67.4699C44.9283 67.4702 44.9284 67.4709 44.929 67.4712C45.1029 67.5713 45.3223 67.5754 45.5053 67.4706L51.2165 64.1708C51.3957 64.0671 51.5056 63.8761 51.505 63.6699V63.6676L51.4943 58.7847ZM50.35 63.3387C50.231 63.4074 45.4914 66.1459 45.791 65.9728L45.7718 59.323L50.3309 56.6908L50.35 63.3387ZM61.9026 48.6773C41.3438 60.5403 34.4705 64.5152 34.0807 64.7404C33.1326 65.2883 32.6006 64.878 32.5984 63.9004L32.5659 50.7636L32.5454 41.3406C32.5382 40.0966 33.4571 38.4511 34.5866 37.7985L62.4091 21.7354C63.4158 21.1564 63.8899 21.9312 63.8914 22.5816L63.9472 45.138C63.9505 46.4146 63.0142 48.0355 61.9026 48.6773Z" fill="black"/>
<path d="M50.4154 24.615L52.3197 23.5158C52.5958 23.3563 52.6904 23.0036 52.531 22.7276C52.3704 22.4515 52.0171 22.3568 51.7428 22.5163L49.8385 23.6155C49.5624 23.7749 49.4677 24.1276 49.6272 24.4037C49.7882 24.6816 50.142 24.7729 50.4154 24.615Z" fill="black"/>
<path d="M61.8463 24.4284C61.6677 24.3253 61.4474 24.327 61.2699 24.429L34.5883 39.8341C34.4092 39.9377 34.2993 40.1287 34.2999 40.3355L34.3545 59.5785C34.3551 59.7841 34.4655 59.974 34.6435 60.0771C34.819 60.1782 35.0393 60.1805 35.2199 60.0765C42.765 55.7268 63.222 43.9215 61.9015 44.6714C62.0806 44.5678 62.1905 44.3768 62.1899 44.17L62.1353 24.927C62.1347 24.7214 62.0243 24.5315 61.8463 24.4284ZM53.8516 41.5874L57.6048 45.8197L50.1336 50.1333C50.1838 50.018 54.0563 41.1169 53.8516 41.5874ZM48.4532 51.1035L39.2116 56.4393L45.4789 42.0359L50.1219 47.2681L48.4532 51.1035ZM58.6249 45.2308L54.1147 40.1456C53.984 39.9986 53.7907 39.9265 53.5924 39.9586C53.3981 39.9896 53.2324 40.1175 53.1541 40.2983L50.6295 46.1013L45.742 40.5941C45.6113 40.4471 45.4192 40.3749 45.2197 40.4076C45.0253 40.4386 44.8603 40.5665 44.7814 40.7468L37.5305 57.4099L35.5055 58.579L35.4548 40.6662L60.9842 25.9265L61.035 43.8393L58.6249 45.2308Z" fill="black"/>
<path d="M48.7832 53.6431L47.1848 54.566C46.9088 54.7254 46.8141 55.0781 46.9736 55.3542C47.1334 55.631 47.4872 55.7241 47.7618 55.5654L49.3601 54.6426C49.6362 54.4832 49.7309 54.1305 49.5714 53.8544C49.4108 53.5783 49.0576 53.4837 48.7832 53.6431Z" fill="black"/>
<path d="M49.9962 36.3737C48.8384 37.0419 47.9342 38.6082 47.9381 39.9401C47.9428 41.4967 49.2092 42.2397 50.5844 41.446C51.7349 40.7823 52.6341 39.2217 52.6307 37.8932C52.626 36.3166 51.348 35.593 49.9962 36.3737ZM50.0075 40.4466C49.4162 40.7868 49.0944 40.6147 49.092 39.9367C49.0892 39.0116 49.7675 37.838 50.5732 37.3732C51.1529 37.0377 51.4745 37.2184 51.4768 37.8966C51.4791 38.8178 50.8064 39.9857 50.0075 40.4466Z" fill="black"/>
</svg>
