<svg width="93" height="92" viewBox="0 0 93 92" fill="none" xmlns="http://www.w3.org/2000/svg">
<rect x="0.5" width="92" height="92" rx="46" fill="white"/>
<path d="M49.6866 22.3429L50.6681 21.7761C50.9442 21.6167 51.0388 21.264 50.8788 20.9879C50.721 20.7113 50.3672 20.6172 50.0912 20.7767L49.1097 21.3434C48.8337 21.5029 48.739 21.8556 48.899 22.1316C49.0561 22.4065 49.409 22.5023 49.6866 22.3429Z" fill="black"/>
<path d="M48.2827 23.1537C48.5587 22.9942 48.6534 22.6415 48.4934 22.3655C48.3345 22.0883 47.9807 21.9953 47.7057 22.1542L33.1846 30.5393C31.3717 31.6053 29.9922 34.0061 30.0048 36.0544L30.0972 67.8111C30.0972 68.9086 30.4995 69.7492 31.233 70.1797L36.7983 73.4153L36.7994 73.4158L36.8018 73.4165C36.8038 73.4177 36.8053 73.4197 36.8073 73.4209C37.6401 73.8981 38.6132 73.6941 39.4406 73.2158L59.8155 61.4526C61.6048 60.4199 63.0021 57.9961 62.9953 55.9346L62.9063 24.1808C62.9026 22.9568 62.3945 22.1818 61.7694 21.8207L56.2007 18.5896C55.4773 18.1557 54.5105 18.2245 53.5505 18.7794L51.5673 19.9243C51.2912 20.0837 51.1966 20.4364 51.3566 20.7125C51.5143 20.9891 51.867 21.0821 52.1442 20.9237L54.1274 19.7789C54.7122 19.4409 55.2542 19.3659 55.6136 19.5834L59.4955 21.8359C59.1696 21.9838 54.6223 24.6253 39.0413 33.618L34.6228 31.0414L48.2827 23.1537ZM33.5064 31.7266L37.9905 34.3415C36.8228 35.3367 35.9525 36.8735 35.6726 38.3457L31.1787 35.8007C31.2734 34.3192 32.2713 32.5779 33.5064 31.7266ZM31.8144 69.1836C31.4516 68.97 31.251 68.4827 31.251 67.8094L31.1617 37.1167L35.5755 39.6163L35.634 60.2241L35.6613 71.0529C35.6625 71.1831 35.6704 71.3099 35.6816 71.4321L31.8144 69.1836ZM59.2386 60.4531L38.8637 72.2164C38.2812 72.5533 37.7425 72.6271 37.3831 72.4203C37.0259 72.2152 36.8208 71.7149 36.8186 71.0484L36.7886 60.5036C36.7883 60.3871 36.7404 39.0142 36.7708 38.7871C36.9912 37.1399 38.1425 35.473 39.3313 34.7868C53.6193 26.538 59.8708 22.9329 59.7282 23.0137C60.1428 22.7788 60.7796 22.5839 61.1891 22.8196C61.5451 23.0241 61.7502 23.5216 61.7525 24.1841L61.8415 55.938C61.846 57.5685 60.655 59.6362 59.2386 60.4531Z" fill="black"/>
<path d="M59.5518 25.6574C59.3737 25.5549 59.154 25.5555 58.976 25.658L38.929 37.232C38.7499 37.3356 38.6394 37.5266 38.6406 37.7334L38.7296 64.9333C38.7307 65.1395 38.84 65.3293 39.0192 65.4319C39.1972 65.5344 39.4169 65.5339 39.595 65.4313L59.6408 53.8574C59.82 53.7537 59.9304 53.5627 59.9293 53.3559L59.8414 26.156C59.8402 25.9498 59.7309 25.76 59.5518 25.6574ZM39.8801 63.9344L39.7955 38.0641L58.6909 27.155L58.7743 53.0252L39.8801 63.9344Z" fill="black"/>
<path d="M48.9948 60.7906C48.0528 61.3354 47.317 62.6087 47.3192 63.6887C47.3216 65.003 48.4294 65.6422 49.5807 64.9755C50.5216 64.433 51.2551 63.1614 51.2506 62.0813C51.2483 60.763 50.1537 60.126 48.9948 60.7906ZM49.0038 63.9766C48.6342 64.1894 48.4753 64.1188 48.4731 63.6853C48.4708 63.0154 48.9846 62.1292 49.5717 61.79C49.9323 61.5821 50.0945 61.6364 50.0968 62.0853C50.099 62.7551 49.5886 63.6386 49.0038 63.9766Z" fill="black"/>
<path d="M55.0232 48.1688L42.9698 55.1279C42.6937 55.2873 42.599 55.64 42.7591 55.9161C42.9161 56.1909 43.269 56.2868 43.5467 56.1274L55.6001 49.1682C55.8762 49.0088 55.9708 48.6561 55.8108 48.38C55.6519 48.1023 55.297 48.0093 55.0232 48.1688Z" fill="black"/>
<path d="M55.0232 51.5209L42.9698 58.4806C42.6937 58.6401 42.599 58.9927 42.7591 59.2688C42.9161 59.5437 43.269 59.6395 43.5467 59.4801L55.6001 52.5204C55.8762 52.361 55.9708 52.0083 55.8108 51.7322C55.6519 51.455 55.297 51.3626 55.0232 51.5209Z" fill="black"/>
<path d="M46.2003 47.7371C46.8368 48.1039 47.7099 48.2264 48.844 47.8173L48.8416 49.1676C48.8404 49.4865 49.0985 49.7451 49.4174 49.7456C49.7351 49.7456 49.9943 49.4882 49.9954 49.1698L49.9989 47.2251C52.2769 45.7565 54.0234 42.783 54.0158 40.2805C54.0091 37.7745 50.4878 34.491 49.7813 33.8583C49.6835 33.7702 49.5018 33.7003 49.3205 33.7254C49.1087 33.7526 48.9429 33.9002 48.8742 34.0414C48.197 35.4409 44.8211 42.542 44.8279 44.9229C44.8313 46.2306 45.3192 47.23 46.2003 47.7371ZM46.7761 46.7371C46.2657 46.4441 45.984 45.7984 45.9817 44.9195C45.9814 44.7938 45.9976 44.6426 46.0212 44.4802L48.8491 44.8188C48.8489 44.935 48.8461 46.6733 48.8463 46.5571C48.0349 46.9525 47.289 47.0342 46.7761 46.7371ZM47.1158 40.9216L48.8384 41.0719L48.8458 43.6561L46.2801 43.3488C46.4822 42.6426 46.7734 41.8103 47.1158 40.9216ZM52.7499 39.6266L49.9969 42.6907L49.9912 40.6977L52.245 38.503C52.4704 38.8913 52.6458 39.2705 52.7499 39.6266ZM48.8351 39.9133L47.5603 39.8022C47.9629 38.8177 48.4009 37.8117 48.8264 36.8709L48.8351 39.9133ZM50.0058 45.7999C50.0054 45.6837 50.0015 44.2952 50.0018 44.4114L52.7266 41.3788C52.3803 42.988 51.3364 44.6921 50.0058 45.7999ZM51.594 37.5263L49.9866 39.0917L49.9767 35.6482C50.5258 36.2098 51.0983 36.8585 51.594 37.5263Z" fill="black"/>
</svg>
