<svg width="93" height="92" viewBox="0 0 93 92" fill="none" xmlns="http://www.w3.org/2000/svg">
<path d="M18.2102 65.8324L14.4353 79.112C14.3268 79.4934 14.4895 79.9002 14.8336 80.1003L27.6525 87.5505C27.9692 87.735 28.3682 87.695 28.6407 87.4692L39.9577 78.1441C44.0566 78.6153 48.7064 77.4202 53.4376 74.6876C67.5482 66.5406 78.9888 46.7157 78.9431 30.4963C78.9195 22.5329 76.1822 16.5641 71.2387 13.652C71.2172 13.6368 71.2042 13.6142 71.1809 13.6006L71.1775 13.5989C71.1724 13.5956 71.1656 13.5922 71.1589 13.5888L58.357 6.16056C53.2986 3.21776 46.6315 3.84497 39.5881 7.92523C39.1745 8.16594 39.0321 8.69653 39.2728 9.11184C39.5135 9.52547 40.0458 9.66447 40.4594 9.42715C46.94 5.67235 52.9867 5.04345 57.4857 7.66248L64.5867 11.7817C60.4473 11.693 56.0909 13.2556 52.4964 15.3205C52.4664 15.3378 52.437 15.3496 52.4069 15.367C39.4117 22.8675 28.3105 40.7102 27.0092 56.4153C26.6218 61.0636 27.0837 66.2414 29.1401 70.3623C29.1558 70.3939 29.1661 70.4307 29.182 70.4622C29.0063 70.3601 19.0952 64.5996 19.7225 64.9641C17.1662 62.0129 15.8083 57.5715 15.7931 52.108C15.766 40.5283 21.7804 26.7178 31.1191 16.9215C31.4496 16.5757 31.4361 16.0264 31.0886 15.6942C30.7427 15.3653 30.1952 15.3772 29.8613 15.7247C20.2327 25.8262 14.0284 40.1096 14.0572 52.1114C14.0735 57.8488 15.5161 62.5681 18.2102 65.8324ZM19.6937 66.9577C19.8689 67.0595 31.7116 73.9442 30.9639 73.5095L27.5592 85.4875L16.2881 78.9374L19.6937 66.9577ZM77.2072 30.4997C77.2513 46.1665 66.2005 65.315 52.5697 73.1857C48.03 75.8064 43.6209 76.9167 39.8153 76.376C39.5745 76.3455 39.3321 76.4099 39.1423 76.5658L29.6833 84.3602C29.8785 83.6733 32.8675 73.1561 32.8176 73.3315C32.8795 73.115 32.8425 72.7601 32.637 72.5243L32.6345 72.5195C29.0313 68.4353 28.293 62.0424 28.7328 56.5951C29.9767 41.2983 40.7865 24.079 53.2817 16.8672C66.8179 9.04445 77.1654 15.3417 77.2072 30.4997Z" fill="black"/>
<path d="M36.3723 10.0069C35.2264 10.8325 34.0771 11.7512 32.9565 12.7412C32.5972 13.0582 32.5633 13.6074 32.8803 13.9668C33.1973 14.3278 33.7503 14.3584 34.1059 14.0431C35.1823 13.0904 36.2875 12.2072 37.386 11.4173C37.7759 11.1359 37.864 10.5934 37.5843 10.2052C37.303 9.81536 36.7571 9.72551 36.3723 10.0069Z" fill="black"/>
<path d="M67.5789 25.5787C67.5759 24.9745 66.8391 24.5023 66.277 24.8294L38.6102 40.8013C38.2876 40.986 38.1754 41.3747 38.1763 41.5539C38.2169 55.6629 38.2038 51.1187 38.2441 65.0964C38.248 65.6884 38.9437 66.1964 39.5459 65.8456L67.2111 49.8738C67.4851 49.717 67.6466 49.4121 67.645 49.1211C67.6066 35.4215 67.6171 39.1613 67.5789 25.5787ZM56.1094 45.1002L64.9004 49.2042C40.2356 63.4433 42.4266 62.1784 41.6446 62.6299L50.3747 48.4176L52.5208 49.5314C52.8866 49.722 53.4454 49.5798 53.6667 49.2059L56.1094 45.1002ZM64.2649 27.9943L52.5937 47.6141L40.8501 41.5117C42.9085 40.3234 62.1074 29.2398 64.2649 27.9943ZM39.9704 62.0396L39.9165 42.9828L48.8311 47.6144L39.9704 62.0396ZM65.8511 28.7237L65.905 47.7574L57.0014 43.6002L65.8511 28.7237Z" fill="black"/>
</svg>
