<svg width="93" height="92" viewBox="0 0 93 92" fill="none" xmlns="http://www.w3.org/2000/svg">
<path d="M87.7264 25.647L71.9995 16.5694C71.73 16.4134 71.3994 16.4134 71.1299 16.5694L62.5516 21.5441L59.5197 19.7936C59.2502 19.6376 58.9171 19.6376 58.6492 19.7936L41.5221 29.7476L35.1042 26.0419C34.6881 25.7995 34.1575 25.9436 33.9185 26.3589C33.6786 26.7743 33.821 27.3048 34.2363 27.5439L41.0899 31.5021C41.3577 31.658 41.6908 31.6563 41.9603 31.5021L59.0874 21.5481C60.7743 22.5221 52.9814 18.0224 75.5706 31.0656L59.3061 40.517C59.0383 40.6729 58.873 40.9594 58.8738 41.2696C58.8738 41.5773 59.0451 41.8728 59.3112 42.0257C81.7531 54.9767 74.0129 50.5099 75.6873 51.4762L59.3171 60.9895L42.0756 51.0355C41.8078 50.8778 41.4764 50.8795 41.2085 51.0338C19.9094 63.4121 45.7229 48.4108 24.0779 60.9894L7.5934 51.4728C8.43374 50.9849 23.0253 42.5138 23.8661 42.0257C24.134 41.8697 24.2992 41.5832 24.2984 41.273C24.2976 40.9769 24.1326 40.6753 23.8577 40.517L7.47897 31.0613L23.8483 21.5481L26.77 23.2331C27.1827 23.4738 27.7142 23.3297 27.9557 22.9161C28.1956 22.5007 28.0532 21.9702 27.6379 21.7311L24.2806 19.7936C24.0094 19.6376 23.678 19.6376 23.4101 19.7936L5.31086 30.3121C5.15471 30.4032 4.87523 30.7643 4.87435 31.0664L4.8396 43.7547C4.83876 44.0649 5.00488 44.3531 5.27441 44.5091L10.7211 47.6457L5.42528 50.7235C5.15829 50.8795 4.99302 51.166 4.99386 51.4762C4.99436 51.6573 4.96464 64.3264 4.96165 64.1509C4.96081 64.4612 5.12609 64.7493 5.39562 64.9036L23.6022 75.4226C23.6056 75.4246 23.6068 75.4287 23.6102 75.4306C23.8744 75.5844 24.2067 75.5886 24.4798 75.4306L41.6083 65.4775L58.8493 75.4306C59.118 75.587 59.4476 75.5854 59.7163 75.4323C59.7279 75.4256 59.7326 75.412 59.7438 75.4049L77.8165 64.9036C78.0834 64.7476 78.2479 64.4629 78.2487 64.1543L78.2835 51.4856C78.2836 51.4811 78.2869 51.4774 78.2869 51.4728C78.286 51.1643 78.1207 50.8778 77.8529 50.7235L72.4165 47.5846L77.6969 44.5057C77.9622 44.3514 78.1267 44.0666 78.1275 43.7598L78.1419 40.2151L87.7111 34.6652C87.9781 34.511 88.1426 34.2245 88.1434 33.916C88.1435 33.8532 88.1416 34.7125 88.1599 26.3979C88.1599 26.3973 88.1604 26.3969 88.1604 26.3962C88.1597 26.1312 88.014 25.8126 87.7264 25.647ZM6.57715 43.2546L6.60596 32.5683L21.6892 41.2713L12.4522 46.6397L6.57715 43.2546ZM60.1854 62.4974L72.6911 55.231L72.6776 61.7099L60.1671 68.9927L60.1854 62.4974ZM10.3218 55.0666L23.2042 62.5016L23.1872 69.1768L10.3082 61.7438L10.3218 55.0666ZM6.72802 52.9849L8.58825 54.0594L8.57151 62.2422C8.57066 62.5524 8.73679 62.8406 9.00547 62.9948L23.1821 71.1777L23.1771 73.1726L6.6992 63.6526L6.72802 52.9849ZM24.946 62.4942L40.7695 53.2979L40.7395 63.9749L24.9163 73.1692C24.921 71.4863 24.9464 62.316 24.946 62.4942ZM42.5053 53.2876C44.1423 54.2327 36.6023 49.8794 58.4419 62.4888L58.4119 73.1749L42.4757 63.9747C42.4765 63.688 42.5058 53.1093 42.5053 53.2876ZM76.5146 63.6526L60.1554 73.1578L60.1614 71.0042L73.9811 62.9592C74.2481 62.805 74.4117 62.5202 74.4126 62.2117L74.4293 54.2201L76.5434 52.9917L76.5146 63.6526ZM64.289 22.5431L71.5664 18.3239L85.5608 26.3996C85.3825 26.5032 77.6156 31.0161 78.1103 30.7288C78.104 30.714 78.0858 30.7077 78.0788 30.6933C78.0044 30.5405 77.898 30.4053 77.7461 30.3171C77.7456 30.3168 77.7466 30.3175 77.7461 30.3171L77.7392 30.3137C67.9137 24.6372 64.0694 22.4162 64.289 22.5431ZM70.6855 46.5852L61.4809 41.2706L76.4374 32.5802L76.3934 43.2563L70.6855 46.5852ZM86.4084 33.4142L78.1513 38.2031L78.1767 32.6983C78.3524 32.5962 86.9085 27.6251 86.4211 27.9083L86.4084 33.4142Z" fill="white"/>
<path d="M74.3898 22.4533L71.7979 20.9565C71.3826 20.7141 70.8511 20.8582 70.6121 21.2735C70.3723 21.6888 70.5146 22.2194 70.93 22.4584L73.5219 23.9552C73.9331 24.1953 74.4663 24.0548 74.7076 23.6382C74.9475 23.2229 74.8051 22.6923 74.3898 22.4533Z" fill="white"/>
<path d="M80.4974 26.981C80.7373 26.5657 80.5949 26.0351 80.1796 25.7961L77.5877 24.2993C77.1724 24.0552 76.6409 24.1993 76.4019 24.6163C76.162 25.0316 76.3044 25.5622 76.7198 25.8012L79.3117 27.298C79.7228 27.5381 80.2561 27.3976 80.4974 26.981Z" fill="white"/>
<path d="M31.5842 26.0131C31.9954 26.2532 32.5287 26.1127 32.77 25.6961C33.0099 25.2808 32.8675 24.7502 32.4521 24.5112L30.0967 23.1517C29.6806 22.9076 29.15 23.0534 28.9109 23.4687C28.6711 23.884 28.8135 24.4146 29.2288 24.6536L31.5842 26.0131Z" fill="white"/>
<path d="M23.4177 24.7892L13.9358 30.3002C13.6688 30.4562 13.5036 30.7427 13.5044 31.0529C13.5052 31.3614 13.6705 31.6479 13.9384 31.8021L30.3179 41.2595L14.0519 50.7117C13.7841 50.8677 13.6188 51.1541 13.6197 51.4644C13.6205 51.7729 13.7858 52.0594 14.0536 52.2136L23.6398 57.7483C23.912 57.9068 24.2451 57.9017 24.5103 57.7483L41.6374 47.7943L58.878 57.7483C59.1459 57.9043 59.479 57.9026 59.7485 57.7483L69.2296 52.2373C69.4965 52.0814 69.6618 51.7949 69.661 51.4847C69.6601 51.1762 69.4949 50.8897 69.227 50.7354L52.8475 41.2781L69.1143 31.8242C69.3813 31.6682 69.5466 31.3817 69.5457 31.0715C69.5449 30.763 69.3796 30.4765 69.1117 30.3223L59.5264 24.7892C59.2569 24.6316 58.9247 24.6333 58.6568 24.7892L41.5289 34.7415L24.2882 24.7892C24.0187 24.6316 23.6856 24.6333 23.4177 24.7892ZM41.9662 36.496L59.0942 26.5437L66.9462 31.0766L50.6794 40.5305C50.4124 40.6865 50.2471 40.973 50.2479 41.2832C50.2488 41.5917 50.4141 41.8782 50.6819 42.0325L67.0614 51.4898L59.3103 55.9938L42.0696 46.0398C41.8001 45.8822 41.467 45.8822 41.1992 46.0398L24.0721 55.9938L16.2192 51.461L32.4852 42.0087C32.753 41.8528 32.9183 41.5663 32.9174 41.2561C32.9174 40.9475 32.7513 40.6611 32.4835 40.5068L16.1039 31.0495L23.8559 26.5437L41.0966 36.496C41.3636 36.652 41.6958 36.652 41.9662 36.496Z" fill="white"/>
</svg>
