<svg width="93" height="92" viewBox="0 0 93 92" fill="none" xmlns="http://www.w3.org/2000/svg">
<path d="M21.9796 80.3731L34.061 87.386C34.0796 87.3962 34.0983 87.4064 34.1161 87.4148C34.9555 87.8222 35.8452 87.6846 36.6495 87.2114L69.4442 68.29C71.0376 67.3576 72.2861 65.1828 72.2861 63.3401L72.1471 13.9379C72.1471 12.9226 71.7522 12.1426 71.1394 11.7431C71.0948 11.7026 71.058 11.6554 71.0037 11.624L58.9486 4.63484C58.2273 4.20088 57.2831 4.25512 56.3507 4.78571C1.72626 36.3513 48.9378 9.06909 23.5645 23.7207C21.966 24.6344 20.7141 26.7957 20.7141 28.6435L20.7489 39.0416C20.7506 39.5196 21.1388 39.9061 21.6168 39.9061C21.6176 39.9061 21.6185 39.9061 21.6193 39.9061C22.0991 39.9044 22.4864 39.5146 22.4847 39.0348L22.45 28.6401C22.45 27.4246 23.373 25.8295 24.4282 25.226L30.0867 21.9696L40.4018 27.962L35.6078 30.7268C33.9469 31.7479 32.7786 33.8786 32.7786 35.6716L32.9165 84.7143L22.8763 78.8865C22.7373 78.8 22.589 78.5373 22.589 78.0558L22.5025 49.1194C22.5008 48.6413 22.1126 48.2548 21.6346 48.2548C21.6337 48.2548 21.6329 48.2548 21.632 48.2548C21.1523 48.2565 20.765 48.6464 20.7667 49.1261L20.8531 78.0592C20.8531 79.0814 21.254 79.9188 21.9796 80.3731ZM68.572 66.7898L35.7765 85.7112C35.0338 86.1445 34.7571 85.9053 34.684 85.3874C34.6277 85.1266 34.6697 87.6206 34.5145 35.6699C34.5145 34.3345 35.5773 32.7163 36.4936 32.2372L41.2993 29.4588L41.4053 39.5502C41.4125 40.2104 42.1302 40.6352 42.7097 40.2977C44.7727 39.1058 35.2379 44.6147 62.878 28.6452C63.1466 28.4909 63.3119 28.2044 63.3119 27.8942V16.757C69.7198 13.0373 69.2695 13.3092 69.2899 13.2971C69.9999 12.881 70.4113 13.0713 70.4113 13.9396L70.5503 63.3418C70.5494 64.5844 69.6417 66.1626 68.572 66.7898ZM57.2136 6.29271C57.6399 6.0503 57.9289 6.04691 58.0679 6.12998L68.1194 11.958L62.4457 15.2262L52.1281 9.23552L57.2136 6.29271ZM50.3888 10.2441L61.5693 16.7298V27.3924C36.287 41.9972 45.0202 36.9523 43.1283 38.0452L43.0242 27.9518C43.0208 27.645 42.8564 27.3636 42.5919 27.2094L31.8225 20.9627L50.3888 10.2441Z" fill="white"/>
<path d="M21.6338 46.3918C22.1127 46.3901 22.5001 46.0002 22.4992 45.5222L22.4907 42.3386C22.489 41.8589 22.1008 41.4724 21.6228 41.4724H21.6203C21.1414 41.4741 20.754 41.864 20.7549 42.342L20.7634 45.5256C20.7651 46.0053 21.1532 46.3918 21.6313 46.3918H21.6338Z" fill="white"/>
<path d="M58.6934 66.2049L45.5008 73.8213C45.0854 74.0603 44.9431 74.5909 45.1829 75.0062C45.4246 75.4234 45.9582 75.5628 46.3687 75.3232L59.5613 67.7068C59.9766 67.4678 60.119 66.9372 59.8792 66.5219C59.6384 66.1066 59.107 65.9625 58.6934 66.2049Z" fill="white"/>
<path d="M58.6934 62.3959L45.5008 70.0123C45.0854 70.2513 44.9431 70.7819 45.1829 71.1972C45.4246 71.6144 45.9582 71.7539 46.3687 71.5142L59.5613 63.8979C59.9766 63.6588 60.119 63.1282 59.8792 62.7129C59.6384 62.2976 59.107 62.1535 58.6934 62.3959Z" fill="white"/>
<path d="M58.6934 58.5869L45.5008 66.2049C45.0854 66.4439 44.9431 66.9745 45.1829 67.3898C45.4246 67.807 45.9582 67.9465 46.3687 67.7068L59.5613 60.0888C59.9766 59.8498 60.119 59.3192 59.8792 58.9038C59.6384 58.4885 59.107 58.3444 58.6934 58.5869Z" fill="white"/>
<path d="M45.2848 32.8119C45.3204 33.4978 46.0448 33.8259 46.5771 33.517L58.9357 26.3719C59.1957 26.2221 59.3688 25.8692 59.3688 25.6209V18.4979C59.3688 18.1893 59.2044 17.9029 58.9366 17.7469L50.8201 13.036C50.5514 12.8801 50.2192 12.8801 49.9505 13.036L37.5148 20.2184C37.2461 20.3727 37.0808 20.6592 37.0808 20.9694C37.0808 21.2779 37.2452 21.5644 37.5131 21.7204L45.2066 26.182C45.2145 26.8599 45.1789 23.7263 45.2848 32.8119ZM50.3836 14.7905L57.633 18.9979V25.1203L46.995 31.2707L46.9373 25.6701C46.934 25.3633 46.7695 25.0819 46.5051 24.9276L39.6812 20.9711L50.3836 14.7905Z" fill="white"/>
<path d="M63.7509 32.4033C63.233 32.1067 62.5812 32.1389 61.965 32.4949L42.1773 43.9186C41.1891 44.4882 40.4466 45.7748 40.45 46.9105L40.494 62.5111C40.4994 63.9992 41.7952 64.7526 43.097 63.9995L62.8855 52.5741C63.8738 52.0045 64.6154 50.7179 64.612 49.5838L64.5679 33.9832C64.5654 33.2763 64.2679 32.7017 63.7509 32.4033ZM62.0175 51.0722L42.2299 62.4722L42.1858 46.9055C42.1841 46.3901 42.5927 45.6832 43.0444 45.4222L62.8321 33.9985L62.8762 49.5889C62.8778 50.0941 62.46 50.8162 62.0175 51.0722Z" fill="white"/>
<path d="M45.8737 52.1978C44.6184 52.9234 43.6386 54.6219 43.6428 56.0662C43.6482 57.8605 45.1716 58.7448 46.7535 57.8309C48.002 57.1104 48.9775 55.4203 48.9733 53.9828C48.968 52.1886 47.4415 51.3029 45.8737 52.1978ZM45.8855 56.3273C45.4891 56.5614 45.3801 56.5144 45.3787 56.0594C45.3761 55.239 46.0254 54.1151 46.7416 53.7031C47.1336 53.4775 47.2361 53.5356 47.2374 53.9896C47.24 54.8186 46.6085 55.9119 45.8855 56.3273Z" fill="white"/>
<path d="M52.0907 48.6091C50.8413 49.3295 49.8666 51.0247 49.8709 52.469C49.8762 54.2734 51.3975 55.1501 52.9705 54.2421C54.2257 53.5166 55.2055 51.8248 55.2013 50.3873C55.196 48.5916 53.65 47.7054 52.0907 48.6091ZM52.1025 52.7402C51.7068 52.9656 51.6081 52.9305 51.6067 52.4622C51.6042 51.6417 52.2483 50.5212 52.9586 50.111C53.3696 49.8744 53.4641 49.9604 53.4655 50.3941C53.468 51.2078 52.8179 52.3266 52.1025 52.7402Z" fill="white"/>
<path d="M58.3197 45.0137C57.0644 45.7375 56.0846 47.4361 56.0889 48.8804C56.0942 50.6734 57.6032 51.5648 59.1987 50.6467C60.448 49.9263 61.4236 48.2362 61.4193 46.797C61.414 45.0057 59.8873 44.1118 58.3197 45.0137ZM58.3316 49.1431C57.9269 49.3724 57.8262 49.3386 57.8247 48.8736C57.8222 48.0396 58.4587 46.936 59.1876 46.5156C59.5797 46.29 59.6822 46.3497 59.6835 46.8038C59.686 47.6327 59.0546 48.7261 58.3316 49.1431Z" fill="white"/>
<path d="M25.0563 78.1813H25.0588C25.5377 78.1796 25.9251 77.7897 25.9242 77.3117L25.9124 72.7432C25.9115 72.2635 25.5225 71.877 25.0444 71.877H25.0419C24.563 71.8786 24.1757 72.2685 24.1765 72.7466L24.1884 77.315C24.1892 77.7948 24.5783 78.1813 25.0563 78.1813Z" fill="white"/>
<path d="M27.888 79.829H27.8905C28.3694 79.8273 28.7576 79.4374 28.7559 78.9593L28.7432 74.3892C28.7415 73.9094 28.3533 73.5229 27.8753 73.5229H27.8727C27.3938 73.5246 27.0056 73.9145 27.0073 74.3926L27.02 78.9627C27.0217 79.4425 27.4099 79.829 27.888 79.829Z" fill="white"/>
</svg>
