<svg width="93" height="92" viewBox="0 0 93 92" fill="none" xmlns="http://www.w3.org/2000/svg">
<path d="M14.6393 48.9106C14.6401 49.3886 15.0283 49.7768 15.5072 49.7768C15.987 49.7768 16.376 49.3869 16.3751 48.9072L16.3489 25.6102L43.8763 41.6083L43.9258 85.2837L16.398 69.2848L16.3845 57.4356C16.3836 56.9575 15.9954 56.5693 15.5165 56.5693C15.0368 56.5693 14.6478 56.9592 14.6486 57.4389L14.663 69.7865C14.663 70.0951 14.8275 70.3798 15.0945 70.5358C15.8106 70.952 44.5398 87.646 44.3615 87.5451C44.6371 87.7011 44.963 87.6963 45.2286 87.5451C95.7389 58.3804 70.7213 72.8256 77.9546 68.6491C78.2232 68.4948 78.3885 68.2083 78.3885 67.8964L78.336 22.2117C78.336 22.0381 78.1572 21.6101 77.9046 21.4625L48.6392 4.45657C48.3705 4.30061 48.0383 4.30061 47.7696 4.45657C45.3401 5.85911 13.1088 24.4679 15.0461 23.3475C14.7787 23.5021 14.6119 23.9248 14.6113 24.0984C14.6113 24.0991 14.6118 24.0995 14.6118 24.1001C14.6118 24.38 14.6385 48.6963 14.6393 48.9106ZM45.6617 85.2905L45.6125 41.6078L76.6018 23.7153L76.6518 67.398L45.6617 85.2905ZM48.2019 6.21106L75.7364 22.2117C68.7596 26.2398 53.1466 35.2538 44.7455 40.1041C33.7216 33.6973 28.1776 30.4753 17.2109 24.1018L48.2019 6.21106Z" fill="white"/>
<path d="M15.5139 55.3708C15.9936 55.3708 16.3818 54.981 16.381 54.5012L16.3784 51.9093C16.3776 51.4313 15.9894 51.0431 15.5105 51.0431C15.0308 51.0431 14.6417 51.433 14.6426 51.9127L14.6451 54.5029C14.646 54.9827 15.035 55.3708 15.5139 55.3708Z" fill="white"/>
<path d="M22.7481 24.8613L44.314 37.3953C44.5877 37.5527 44.9191 37.5499 45.1844 37.3953L70.1966 22.9542C70.4644 22.8 70.6297 22.5135 70.6306 22.205C70.6314 21.8947 70.4661 21.6083 70.1991 21.4523L48.6341 8.91994C48.3637 8.76399 48.0323 8.76399 47.7636 8.91994L22.7506 23.3594C22.4828 23.5136 22.3175 23.8001 22.3167 24.1086C22.3158 24.4188 22.4811 24.7053 22.7481 24.8613ZM48.1959 10.6744L68.031 22.2016L44.7522 35.6408L24.9162 24.112L48.1959 10.6744Z" fill="white"/>
<path d="M74.527 27.3989C74.2591 27.2463 73.9277 27.2446 73.6599 27.4006L47.6925 42.3943C47.4238 42.5486 47.2585 42.8351 47.2585 43.147L47.3001 80.8559C47.3001 81.3202 47.6753 81.7222 48.168 81.7222C48.318 81.7222 48.468 81.6832 48.602 81.6052L74.5702 66.6115C74.8389 66.4572 75.0042 66.1707 75.0042 65.8588L74.9618 28.1499C74.9618 27.8413 74.7957 27.5549 74.527 27.3989ZM49.0342 79.3523L48.9952 43.6454L73.2276 29.6535L73.2675 65.3604L49.0342 79.3523Z" fill="white"/>
<path d="M51.9177 52.4348C52.0677 52.4348 52.2177 52.3958 52.3517 52.3178L70.7688 41.6841C71.0383 41.5298 71.2036 41.2416 71.2027 40.9314L71.1832 34.1101C71.1824 33.7999 71.0163 33.5134 70.7484 33.3591C70.4798 33.2049 70.1483 33.2065 69.8814 33.3608L51.4642 43.9946C51.1947 44.1488 51.0294 44.437 51.0303 44.7472L51.0498 51.5686C51.0511 52.0432 51.434 52.4348 51.9177 52.4348ZM69.4516 35.612L69.4652 40.433L52.7814 50.0667L52.7678 45.2456L69.4516 35.612Z" fill="white"/>
<path d="M52.3592 56.0523L55.3477 54.3266C55.7631 54.0876 55.9055 53.557 55.6656 53.1417C55.4249 52.7263 54.8934 52.5806 54.4798 52.8247L51.4912 54.5503C51.0759 54.7894 50.9335 55.3199 51.1734 55.7353C51.4151 56.1525 51.9487 56.2919 52.3592 56.0523Z" fill="white"/>
<path d="M57.4998 53.0858L60.4884 51.3601C60.9037 51.1211 61.0461 50.5905 60.8062 50.1752C60.5655 49.7599 60.0324 49.6175 59.6204 49.8565L56.6319 51.5822C56.2166 51.8212 56.0742 52.3518 56.314 52.7671C56.5543 53.182 57.0837 53.3236 57.4998 53.0858Z" fill="white"/>
<path d="M69.9084 43.9166L66.9207 45.6422C66.5054 45.8813 66.363 46.4118 66.6028 46.8272C66.8445 47.2444 67.3781 47.3838 67.7886 47.1442L70.7763 45.4185C71.1917 45.1795 71.334 44.6489 71.0942 44.2336C70.8535 43.8182 70.3203 43.6742 69.9084 43.9166Z" fill="white"/>
<path d="M62.648 50.1125L65.6281 48.3919C66.0434 48.1528 66.1858 47.6223 65.9459 47.2069C65.7044 46.7933 65.1738 46.6475 64.7602 46.8899L61.7801 48.6105C61.3647 48.8496 61.2224 49.3801 61.4622 49.7955C61.7039 50.2127 62.2375 50.3521 62.648 50.1125Z" fill="white"/>
<path d="M52.3704 59.8495L55.359 58.1238C55.7743 57.8848 55.9167 57.3542 55.6768 56.9389C55.4369 56.5236 54.9038 56.3795 54.491 56.6219L51.5025 58.3476C51.0872 58.5866 50.9448 59.1172 51.1846 59.5325C51.4263 59.9497 51.9599 60.0891 52.3704 59.8495Z" fill="white"/>
<path d="M57.5108 56.8812L60.4985 55.1555C60.9138 54.9165 61.0562 54.3859 60.8163 53.9706C60.5756 53.5553 60.0425 53.4112 59.6306 53.6536L56.6429 55.3793C56.2275 55.6183 56.0851 56.1489 56.325 56.5642C56.5667 56.9814 57.1003 57.1209 57.5108 56.8812Z" fill="white"/>
<path d="M69.9195 47.7138L66.9309 49.4395C66.5156 49.6785 66.3732 50.2091 66.6131 50.6244C66.8548 51.0416 67.3884 51.1811 67.7989 50.9414L70.7874 49.2157C71.2028 48.9767 71.3451 48.4461 71.1053 48.0308C70.8646 47.6155 70.3331 47.4697 69.9195 47.7138Z" fill="white"/>
<path d="M62.659 53.9079L65.6391 52.1873C66.0544 51.9483 66.1968 51.4177 65.9569 51.0024C65.717 50.587 65.1839 50.443 64.7711 50.6854L61.791 52.406C61.3757 52.645 61.2333 53.1756 61.4732 53.5909C61.7149 54.0081 62.2485 54.1475 62.659 53.9079Z" fill="white"/>
<path d="M54.5012 60.4173L51.5135 62.143C51.0981 62.382 50.9557 62.9126 51.1956 63.3279C51.4373 63.7451 51.9709 63.8846 52.3814 63.6449L55.3691 61.9192C55.7844 61.6802 55.9268 61.1496 55.687 60.7343C55.4471 60.319 54.914 60.1732 54.5012 60.4173Z" fill="white"/>
<path d="M60.8275 57.7679C60.5867 57.3525 60.0553 57.2102 59.6417 57.4492L56.6531 59.1749C56.2378 59.4139 56.0954 59.9445 56.3353 60.3598C56.5756 60.7746 57.1049 60.9162 57.521 60.6785L60.5096 58.9528C60.9249 58.7138 61.0673 58.1832 60.8275 57.7679Z" fill="white"/>
<path d="M69.9305 51.5092L66.9419 53.2349C66.5266 53.4739 66.3842 54.0045 66.6241 54.4198C66.8657 54.837 67.3994 54.9765 67.8098 54.7368L70.7984 53.0111C71.2137 52.7721 71.3561 52.2415 71.1163 51.8262C70.8747 51.4126 70.3433 51.2668 69.9305 51.5092Z" fill="white"/>
<path d="M62.6692 57.7051L65.6502 55.9845C66.0655 55.7455 66.2079 55.2149 65.968 54.7996C65.7273 54.3843 65.1942 54.2402 64.7822 54.4826L61.8013 56.2032C61.386 56.4422 61.2436 56.9728 61.4835 57.3881C61.7251 57.8053 62.2588 57.9448 62.6692 57.7051Z" fill="white"/>
<path d="M61.9692 59.702C59.5748 61.0835 57.705 64.323 57.7127 67.0759C57.7221 70.0591 60.0932 71.6182 62.8617 70.017C65.2604 68.6321 67.1327 65.3909 67.1242 62.6397C67.1155 59.5364 64.6642 58.1481 61.9692 59.702ZM62.8372 61.2039C63.1616 61.0182 63.4699 60.9058 63.756 60.8469L59.6602 68.2108C59.5243 67.9101 59.4498 67.5241 59.4485 67.0708C59.4426 64.9553 60.9945 62.2684 62.8372 61.2039ZM61.9938 68.5134C61.7588 68.6496 61.5334 68.7392 61.3151 68.8073L65.2503 61.7322C65.3334 61.9956 65.3873 62.2959 65.3884 62.6448C65.3952 64.7586 63.8407 67.4472 61.9938 68.5134Z" fill="white"/>
</svg>
