<svg width="93" height="92" viewBox="0 0 93 92" fill="none" xmlns="http://www.w3.org/2000/svg">
<path d="M75.3031 66.5855L73.2808 67.7602C72.8663 68.0009 72.7248 68.5332 72.9663 68.9468C73.2094 69.3665 73.7452 69.4997 74.1521 69.2621L76.1744 68.0874C76.5889 67.8467 76.7304 67.3144 76.4889 66.9008C76.2473 66.4838 75.7142 66.3431 75.3031 66.5855Z" fill="white"/>
<path d="M82.556 56.5111L81.8788 51.841C81.8406 51.5765 81.6847 51.346 81.4541 51.2137L74.1463 46.9962C73.8793 46.8419 73.553 46.8419 73.2843 46.9911L72.2248 47.5929C70.9347 48.3642 68.8846 48.5088 67.1317 48.0412L67.1445 44.6921C67.1447 44.6688 67.1502 44.6462 67.1503 44.6229C67.1503 44.6132 67.1451 44.6051 67.1448 44.5955L67.1664 38.9356C71.2199 35.9361 73.4439 32.2347 73.4555 28.3121L73.564 21.8196C73.5674 21.723 73.5691 21.628 73.5691 21.5314C73.5691 21.5271 73.5666 21.5235 73.5666 21.5191C73.5666 21.509 73.5691 21.4991 73.5691 21.489C73.5623 16.8121 70.4652 12.4504 64.8466 9.20755C53.6297 2.73032 35.4279 2.73372 24.2737 9.21772C18.7662 12.4178 15.7279 16.713 15.6957 21.3205C15.6951 21.332 15.6887 21.3416 15.6885 21.3534L15.5749 28.1341C15.5634 32.1428 17.8409 35.9153 22.0174 38.9625L21.9962 44.4776C21.9961 44.4834 21.9928 44.4883 21.9928 44.4941C21.9928 44.5074 21.996 44.5201 21.996 44.5333L21.9718 50.8036C21.9717 50.8084 21.9691 50.8123 21.9691 50.8171C21.9691 50.8278 21.9716 50.8382 21.9716 50.8489L21.9579 54.4282L10.8734 60.8643C10.5666 61.0423 10.3996 61.3898 10.4504 61.739L11.1114 66.3034L11.0844 73.5475C11.0836 73.8595 11.2489 74.1476 11.5184 74.3019L18.8074 78.5093C18.8166 78.5149 18.8202 78.526 18.8296 78.5313C19.0914 78.6814 19.4246 78.6874 19.7069 78.5212L20.6909 77.9262C22.0885 77.1414 24.2864 77.0117 26.0574 77.5208L26.046 82.1827C26.0451 82.4946 26.2104 82.7811 26.4791 82.9371L33.77 87.1546C33.784 87.1627 33.8007 87.1595 33.815 87.1667C33.9228 87.2223 34.0405 87.2609 34.1692 87.2665L34.1894 87.2675C45.2788 87.7887 41.4511 87.6088 42.2797 87.6479C42.4171 87.6479 42.5463 87.6054 42.6673 87.5441C42.6828 87.5364 42.7011 87.5398 42.7162 87.531L71.7832 70.6386C72.1968 70.3979 72.3384 69.8656 72.0968 69.452C71.8561 69.035 71.323 68.896 70.9102 69.1367L43.1531 85.2677C43.1538 85.0895 43.1735 79.6719 43.1722 80.0166L80.8167 58.1505L80.7972 63.3918L77.5188 65.2972C77.1043 65.5396 76.9636 66.0702 77.2052 66.4838C77.4459 66.8991 77.9773 67.0398 78.3918 66.7991L82.1 64.6428C82.3661 64.4869 82.5306 64.2038 82.5314 63.8953L82.5585 56.6315C82.5585 56.6135 82.5462 56.599 82.5452 56.5812C82.5437 56.5569 82.5596 56.5355 82.556 56.5111ZM28.3029 63.9156C25.2976 61.8106 23.6706 59.2479 23.6854 56.5824L23.6877 56.013C24.853 57.6883 26.5877 59.2204 28.8455 60.5236C33.2123 63.046 38.9351 64.3072 44.6512 64.3072C51.9606 64.3072 61.2546 62.0149 65.3648 56.1897L65.3628 56.7044C65.3628 67.4153 40.8824 72.7262 28.3029 63.9156ZM23.7363 43.4259C24.8974 45.0824 26.6178 46.5951 28.8455 47.881C33.2123 50.4035 38.9351 51.663 44.6512 51.663C51.9967 51.663 61.307 49.3527 65.4134 43.4948L65.4089 44.6826C65.2843 54.8441 42.9461 60.3349 29.7134 52.7004C25.8626 50.4758 23.7427 47.5787 23.732 44.5367L23.7363 43.4259ZM64.85 40.4749C64.9276 40.4292 64.9971 40.3855 65.0719 40.3403C62.0418 49.7186 41.5139 53.1898 29.7134 46.3791C26.7691 44.6781 24.8427 42.5832 24.0904 40.3318C24.1288 40.3544 24.1686 40.3784 24.2065 40.4003C24.242 40.4209 24.2719 40.444 24.3076 40.4647C35.6439 47.0121 53.8568 46.8622 64.85 40.4749ZM25.145 10.7196C35.8647 4.49055 53.2892 4.53898 63.9787 10.7095C69.0379 13.6319 71.8273 17.4596 71.8332 21.4907C71.8395 26.119 68.1201 29.8647 64.0897 32.2059C53.4305 38.4 36.0245 38.3932 25.2891 32.1957C21.1345 29.7962 17.4222 26.1023 17.4259 21.3891C17.4285 17.3988 20.1681 13.6104 25.145 10.7196ZM17.3108 28.151L17.3277 27.139C17.4102 27.278 17.5263 27.4086 17.6147 27.5462C19.2545 30.0932 21.8078 32.1891 24.4211 33.6976C35.4961 40.0941 53.7237 40.2352 64.961 33.7078C67.4969 32.2343 69.9001 30.283 71.539 27.8222C71.5979 27.7337 71.6759 27.6502 71.7324 27.5611L71.7196 28.2951C71.7098 31.6156 69.7797 34.7917 66.2697 37.4346C65.9036 37.4401 65.5979 37.6726 65.4758 37.9981C65.0284 38.3117 64.5693 38.6151 64.0747 38.91C64.04 38.9304 64.011 38.9527 63.9761 38.973C53.4728 45.0763 36.0214 45.2167 25.1797 38.9594C21.1111 36.5926 17.297 32.8573 17.3108 28.151ZM28.8455 54.2023C33.2131 56.7247 38.936 57.9842 44.6521 57.9842C51.9788 57.9842 61.2659 55.687 65.389 49.8531L65.3846 51.0102C65.2507 61.2162 42.894 66.6332 29.7134 59.0217C25.844 56.7884 23.7146 53.888 23.7076 50.8516L23.712 49.7074C24.8733 51.3792 26.6002 52.9063 28.8455 54.2023ZM21.9496 56.4399V56.5772C21.9292 60.2693 24.3635 63.7173 28.8057 66.2905C33.1673 68.8096 38.8843 70.0691 44.5961 70.0691C53.9448 70.0691 67.0986 65.8371 67.0986 56.7078L67.1234 50.9818C67.1235 50.9692 67.1266 50.9568 67.1266 50.9442C67.1266 50.939 67.1237 50.9347 67.1236 50.9295L67.1283 49.8627C69.2167 50.3034 71.5425 50.022 73.0987 49.0931L73.7081 48.7473L80.2217 52.5055L80.7525 56.1686C68.2671 63.4244 57.1777 69.8689 42.0966 78.633L34.4904 78.2737L28.6616 74.9223C28.6973 74.8985 29.2186 74.4726 29.2774 74.4161C30.9636 72.7803 30.3712 70.7584 28.7964 69.6351C26.8674 68.0919 23.1349 67.7855 20.7909 68.7367C20.4706 68.8587 20.1502 68.9994 19.8611 69.1638L19.2899 69.4995L12.7838 65.7447L12.2524 62.0713L21.9496 56.4399ZM12.8415 67.7874L18.4194 71.0065C18.4187 71.1847 18.3964 76.6135 18.3978 76.2687L12.822 73.0509L12.8415 67.7874ZM20.1354 76.2593C20.1362 76.081 20.1602 70.6651 20.1587 71.0099C20.5606 70.7887 20.869 70.578 21.3602 70.3815C21.3785 70.3743 21.3928 70.3654 21.4114 70.3583C25.3494 68.8937 30.9088 71.6279 27.5216 73.5882L26.4985 74.1794C26.4979 74.1797 26.499 74.1791 26.4985 74.1794C26.309 74.2896 26.0638 74.6824 26.0638 74.9308L26.0619 75.6866C24.0687 75.233 21.8157 75.4378 20.1354 76.2593ZM27.7996 76.4305L33.3672 79.6316C33.3664 79.8098 33.3421 85.2482 33.3436 84.9035L27.7835 81.686C27.7881 80.1826 27.8004 76.1727 27.7996 76.4305ZM35.1031 80.0469L41.4347 80.3435C41.434 80.5217 41.4138 86.2333 41.4151 85.8697L35.0812 85.573C35.0819 85.3948 35.1046 79.6833 35.1031 80.0469Z" fill="white"/>
<path d="M30.3492 29.1308C38.263 33.7005 51.1309 33.7105 58.9984 29.141C66.4885 24.7845 66.4394 18.1216 58.9162 13.7777C51.0207 9.21756 38.1391 9.19358 30.2424 13.7828C22.7613 18.1298 22.8291 24.7889 30.3492 29.1308ZM31.1146 15.2847C34.6609 13.2234 39.4387 12.0877 44.5691 12.0877C49.6961 12.0877 54.4833 13.2217 58.0482 15.2797C64.3617 18.9259 64.5002 23.933 58.1262 27.6391C54.5901 29.6936 49.8241 30.8243 44.7073 30.8243C39.5786 30.8243 34.788 29.6886 31.2172 27.6289C24.8675 23.9619 24.7896 18.957 31.1146 15.2847Z" fill="white"/>
</svg>
