<svg width="93" height="92" viewBox="0 0 93 92" fill="none" xmlns="http://www.w3.org/2000/svg">
<path d="M29.5848 37.2563L32.0047 38.6582C32.411 38.8955 32.9473 38.7626 33.1905 38.3429C33.4312 37.9276 33.2896 37.397 32.8743 37.1563L30.4545 35.7544C30.04 35.512 29.5077 35.6527 29.2687 36.0697C29.028 36.485 29.1695 37.0156 29.5848 37.2563Z" fill="white"/>
<path d="M71.5936 17.8315L49.5344 5.09571C47.8096 4.09896 45.1126 4.09896 43.3962 5.09571L21.504 17.8179C20.5588 18.368 20.0162 19.1767 19.9934 20.0425C19.9927 20.0566 19.9852 20.0685 19.9852 20.0827V20.0961L19.9843 20.1013C19.9843 20.2831 19.875 49.0012 19.8733 49.1802C19.8733 50.0667 20.4157 50.8753 21.4074 51.4602L25.2066 53.6535L25.1571 64.5112C25.1571 69.1784 29.135 72.5926 33.3642 74.558L33.3329 79.666C33.3329 81.8986 34.7755 83.9599 37.3937 85.4686C42.3952 88.3666 50.5597 88.3929 55.5879 85.4686C58.162 83.9734 59.5791 81.9375 59.5791 79.7406L59.6105 74.5565C60.205 74.2791 60.7828 73.984 61.3336 73.6634C65.4207 71.2987 67.6829 68.088 67.7032 64.6197L67.7527 53.6407L71.4919 51.4653C72.4743 50.9109 73.015 50.1057 73.015 49.2022C73.0769 33.1398 73.063 36.7489 73.1269 20.1403C73.1269 20.1352 73.1269 20.1284 73.1269 20.1234L73.1262 20.1196L73.1269 20.1149C73.1261 19.2249 72.5667 18.3926 71.5936 17.8315ZM27.8372 34.2407L21.6802 30.6779L21.7117 22.4966L43.5768 35.1205C45.3955 36.1698 48.2408 35.9667 49.7218 35.1069L71.3817 22.5191L71.3503 30.7088L48.8487 43.8353C47.6596 44.5269 45.639 44.5337 44.443 43.8506L35.2467 38.5278C34.8297 38.2837 34.3008 38.4294 34.061 38.8448C33.8203 39.2584 33.9627 39.789 34.3771 40.0297L43.5785 45.3559C45.3092 46.3442 48.0071 46.3323 49.7226 45.3338L71.3309 32.7286C71.3305 32.9068 71.316 39.7782 71.3168 39.4055L48.8547 52.4586C47.6579 53.1418 45.6364 53.1435 44.443 52.4603L21.6498 39.2482L21.7075 32.6981L26.9676 35.7426C27.3837 35.9816 27.9126 35.8392 28.1533 35.4256C28.394 35.012 28.2516 34.4797 27.8372 34.2407ZM22.377 19.3198L44.2693 6.59763C44.8626 6.25181 45.6618 6.07891 46.4628 6.07891C47.2646 6.07891 48.0681 6.25181 48.6665 6.59763L70.7257 19.3334C71.1419 19.5741 71.3911 19.8674 71.3911 20.1166C71.3911 20.3607 71.1486 20.6472 70.741 20.8828C68.5251 22.1702 50.9473 32.383 48.8471 33.6033C47.8299 34.2031 45.6998 34.3373 44.4388 33.6118C21.3533 20.2301 22.2329 20.9102 21.8795 20.4551C21.7862 20.3329 21.7245 20.2094 21.7231 20.0911C21.7274 19.8432 21.9687 19.5567 22.377 19.3198ZM57.8433 79.7355C57.8433 81.2934 56.733 82.7953 54.7157 83.9667C50.1879 86.6009 42.8072 86.6009 38.2624 83.965C36.2028 82.7783 35.0688 81.2527 35.0688 79.6711L35.0959 75.2814C41.9028 77.832 50.9424 77.885 57.8704 75.285L57.8433 79.7355ZM66.0123 54.6539L65.9674 64.6113C65.9504 67.4354 63.9959 70.1172 60.4623 72.1632C59.8042 72.546 59.0996 72.884 58.3765 73.2013C51.3752 76.2762 41.5963 76.2745 34.5848 73.1939C34.5812 73.1923 34.5769 73.1936 34.5733 73.192C30.8061 71.5387 26.893 68.5897 26.893 64.5146L26.9379 54.6573C49.5962 67.7324 41.7693 63.2158 43.4649 64.1943C45.222 65.2111 48.0444 65.0965 49.6124 64.1943C51.2893 63.2188 43.5378 67.7281 66.0123 54.6539ZM70.6291 49.9583C40.6256 67.4072 50.9897 61.3798 48.7445 62.6856C47.5647 63.3755 45.5093 63.3772 44.3379 62.6822C42.0775 61.3785 52.5161 67.3988 22.2821 49.9616C21.8609 49.7125 21.6091 49.4209 21.6091 49.1836L21.6397 41.2496L43.5776 53.9639C45.3119 54.9583 48.009 54.941 49.7209 53.9622L71.3091 41.4185L71.2792 49.1988C71.2792 49.448 71.0461 49.7243 70.6291 49.9583Z" fill="white"/>
<path d="M34.7349 19.3232L48.7387 27.4719C49.9864 28.1815 51.8731 28.1719 53.1342 27.4465L58.3613 24.424C59.1038 24.0019 59.5326 23.3611 59.5394 22.6661C59.5453 21.9728 59.1283 21.3252 58.3901 20.8879L44.3846 12.7375C43.1514 12.0374 41.224 12.0374 39.9908 12.7392L34.7281 15.7702C33.9941 16.2024 33.5729 16.8483 33.572 17.5416C33.572 18.2366 33.9924 18.8825 34.7349 19.3232ZM49.6032 25.9683L37.8989 19.1503L40.3137 17.7722C41.0062 17.3602 42.2691 17.3619 42.9683 17.7755L54.6573 24.5528L52.2646 25.9428C51.5518 26.3548 50.3041 26.3616 49.6032 25.9683ZM35.602 17.2704L40.8519 14.2462C41.5527 13.8501 42.8272 13.8479 43.5201 14.2428L57.512 22.3864C57.7349 22.5186 57.7985 22.6322 57.8036 22.6458C57.7985 22.6695 57.7324 22.7848 57.5035 22.9153H57.501L56.3954 23.5545L43.8456 16.277C42.6089 15.5464 40.6688 15.5464 39.4415 16.2702L36.1614 18.1437L35.6105 17.823C35.3757 17.684 35.3121 17.5653 35.3079 17.5467C35.3121 17.5213 35.3757 17.4043 35.602 17.2704Z" fill="white"/>
<path d="M61.8769 67.3489H61.8811C62.3583 67.3489 62.7465 66.9624 62.749 66.4861L62.7762 61.1328C62.7787 60.653 62.3922 60.2615 61.9125 60.2598H61.9082C61.4311 60.2598 61.0429 60.6463 61.0403 61.1226L61.0132 66.4759C61.0107 66.9557 61.3972 67.3473 61.8769 67.3489Z" fill="white"/>
</svg>
