<svg width="93" height="92" viewBox="0 0 93 92" fill="none" xmlns="http://www.w3.org/2000/svg">
<path d="M13.0273 60.4148L13.0154 56.7261C13.0137 56.2481 12.6255 55.8616 12.1475 55.8616H12.1441C11.666 55.8633 11.2779 56.2532 11.2795 56.7329L11.2914 60.4216C11.2931 60.8996 11.6813 61.2861 12.1593 61.2861C12.7086 61.2522 13.029 60.8962 13.0273 60.4148Z" fill="white"/>
<path d="M13.429 34.5662C12.1761 35.3157 11.2386 36.9416 11.2301 38.3956C11.2299 38.4043 11.2236 38.4112 11.2236 38.42L11.2711 53.6409C11.2728 54.119 11.661 54.5055 12.139 54.5055C12.1407 54.5055 12.1407 54.5055 12.1424 54.5055C12.6204 54.5038 13.0086 54.1139 13.0069 53.6341L12.9646 39.935L19.6056 43.7952L24.6239 46.7162L24.6912 68.6549L24.7373 84.8468L13.1646 78.1242C13.1629 78.1242 13.0798 78.0293 13.0798 77.7004L13.0375 63.9458C13.0358 63.4678 12.6476 63.0813 12.1695 63.0813C12.1695 63.0813 12.1678 63.0813 12.1661 63.0813C11.6881 63.083 11.2999 63.4729 11.3016 63.9526L11.344 77.7038C11.344 78.9209 11.9559 79.4396 12.3051 79.6329C15.6556 81.5806 22.3567 85.476 25.7071 87.4239C26.3804 87.8128 27.1875 87.6861 27.8668 87.2933L79.5269 57.4669C80.7932 56.7363 81.7815 55.0242 81.7764 53.5697L81.6662 14.2826C81.663 13.4721 81.344 12.8195 80.8005 12.4483C80.7659 12.4201 80.7414 12.3835 80.7017 12.3603C80.7 12.3603 80.7 12.3603 80.7 12.3594L67.3014 4.58369C66.6708 4.22008 65.8622 4.26754 65.1451 4.7032L55.9682 9.99752L54.352 9.05639C53.8909 8.82584 53.3451 8.8589 52.8026 9.16064L46.9289 12.5476C46.0983 13.0332 45.4711 14.1173 45.4711 15.0734L45.4748 16.0506L44.7639 16.4645L43.1995 15.5523C42.7181 15.2751 42.1282 15.3082 41.601 15.6311L35.7289 19.018C34.8966 19.5037 34.2694 20.5877 34.2694 21.5438L34.2731 22.5177L33.5545 22.9364L31.9996 22.0252C31.5402 21.754 30.9587 21.7761 30.3993 22.0863L24.5273 25.4885C23.6967 25.9733 23.0694 27.0582 23.0694 28.0143L23.0728 28.9758L13.4697 34.5254C13.4526 34.5354 13.4454 34.5552 13.429 34.5662ZM13.0192 37.9528C13.154 37.3619 13.5186 36.7304 13.963 36.3172L25.8224 43.2089C25.3986 43.699 25.0628 44.3085 24.8731 44.8481L20.8383 42.5034L13.0192 37.9528ZM78.659 55.965L26.9988 85.7914C26.749 85.9351 26.6123 85.9339 26.5825 85.92C26.5795 85.9182 26.578 85.9152 26.575 85.9135C26.5564 85.9016 26.4784 85.7931 26.4784 85.4982L26.4303 69.7929L26.3632 46.211C26.3615 45.3626 27.006 44.2524 27.7398 43.8266C27.7445 43.8239 27.7502 43.8252 27.7549 43.8225C33.8181 40.3212 9.59836 54.3074 79.3916 14.0037C79.5752 13.9005 79.6835 13.8779 79.7534 13.8703C79.7838 13.8694 79.8235 13.8656 79.8304 13.8698C79.8473 13.8791 79.9287 13.9893 79.9304 14.2877L80.0406 53.5748C80.0423 54.4207 79.3981 55.5378 78.659 55.965ZM56.7642 20.503L50.579 24.0736L50.5651 16.9859C50.5786 16.6511 50.8735 16.1546 51.1414 15.9998C51.3175 15.8983 57.1015 12.567 56.7422 12.7739L56.7642 20.503ZM45.5626 26.9709L39.3769 30.5418C39.3765 30.367 39.3589 23.019 39.36 23.4865C39.36 23.1243 39.6578 22.6352 39.9414 22.4711C40.1175 22.3696 45.846 19.0674 45.4868 19.2744C45.4886 19.4527 45.5675 27.4731 45.5626 26.9709ZM34.3592 33.4379L28.1753 37.0088C28.1751 36.834 28.1681 29.427 28.1685 29.8991C28.1966 29.5523 28.3641 29.3219 28.5611 29.0865C28.6181 29.0273 28.6766 28.9712 28.7364 28.9364C28.9124 28.8348 34.6442 25.5255 34.2852 25.7328C34.2869 25.911 34.3641 33.9401 34.3592 33.4379ZM47.8002 14.0495L53.6757 10.6702L55.2808 11.6055C54.0222 12.3312 50.5864 14.3122 50.2463 14.508C49.4458 15.0071 48.819 16.0425 48.8224 17.0237C48.8228 17.1985 48.8387 24.5295 48.8377 24.062L47.2873 23.1579C47.2774 22.3502 47.3058 25.2379 47.2069 15.07C47.2069 14.7293 47.5019 14.2232 47.8002 14.0495ZM36.6003 20.5199L42.4706 17.1364L44.0765 18.0734C43.9004 18.175 38.7439 21.1503 39.0667 20.9641C38.3638 21.3746 37.6157 22.4723 37.6157 23.4924L37.6292 30.5294L36.0866 29.6289C36.0839 28.77 36.0864 25.8549 36.0053 21.5404C36.0053 21.2005 36.3019 20.6937 36.6003 20.5199ZM25.4003 26.9895L31.2588 23.6026L32.8658 24.5451C32.6734 24.6521 27.8471 27.4305 27.5004 27.726C26.7903 28.3426 26.4191 29.246 26.4191 29.9493C26.4248 32.9234 26.4331 37.2595 26.4327 37.0017C26.2589 36.8995 24.6637 35.9616 24.8375 36.0638C24.8368 35.8855 24.8032 27.4904 24.8053 28.0109C24.8053 27.6701 25.1003 27.1641 25.4003 26.9895ZM23.0762 30.9791C23.077 31.1574 23.1015 36.9368 23.1 36.5732C23.1017 36.8808 23.2644 37.1648 23.5305 37.3199C23.7059 37.4226 27.069 39.3915 26.8632 39.271C27.1096 39.4145 27.4558 39.43 27.7413 39.2676C27.7453 39.2653 27.7468 39.2605 27.7507 39.2582L35.6628 34.6898C35.9324 34.5339 36.0985 34.2465 36.0968 33.9355L36.0904 31.6501L38.0632 32.798C38.3344 32.9557 38.6667 32.9565 38.9345 32.7997C38.9351 32.7993 38.9354 32.7986 38.9361 32.7981C38.9371 32.7975 38.9385 32.7978 38.9396 32.7972C38.9392 32.7974 38.94 32.797 38.9396 32.7972C38.9414 32.7961 38.9446 32.7957 38.9464 32.7946L46.8662 28.2228C47.1357 28.0668 47.3018 27.7795 47.3001 27.4684L47.2934 25.1751C47.4672 25.2761 49.4455 26.4252 49.2716 26.3242C49.2745 26.3259 49.2781 26.3251 49.2809 26.3267C49.2805 26.3265 49.2814 26.3269 49.2809 26.3267C49.5344 26.4728 49.8702 26.4868 50.148 26.3267L58.0678 21.7549C58.3374 21.5989 58.5035 21.3116 58.5018 21.0005L58.4764 12.4467C58.4748 11.8365 58.2178 11.339 57.7776 11.063C57.7629 11.0532 57.7544 11.0378 57.739 11.0287L57.6964 11.0039L66.0283 6.19749C66.2656 6.0551 66.408 6.07205 66.4284 6.08476L78.0013 12.801C3.32675 55.9148 35.834 37.1465 27.3163 42.0643L15.6345 35.2789L23.0762 30.9791Z" fill="white"/>
<path d="M72.5801 21.9447L32.4488 45.116C30.8383 46.0449 29.8416 47.7774 29.845 49.6387L29.9179 75.595C29.9252 77.6137 32.1083 78.8345 33.8235 77.8411L73.9549 54.6716C75.567 53.741 76.5654 52.0068 76.5586 50.1472L76.4858 24.1925C76.4821 22.1967 74.3223 20.943 72.5801 21.9447ZM73.0869 53.168L32.9556 76.3392C32.5674 76.5664 32.2216 76.4138 32.0894 76.3392C31.9589 76.2646 31.6554 76.0409 31.6537 75.5899L31.5808 49.6353C31.5774 48.3944 32.2436 47.2383 33.3167 46.6196L73.448 23.4484C74.0314 23.1118 74.7474 23.5319 74.7499 24.1976L74.8228 50.1523C74.8262 51.3915 74.1617 52.5476 73.0869 53.168Z" fill="white"/>
<path d="M64.8552 34.0991L40.6346 48.0842C36.5323 50.4523 33.2064 56.2159 33.2183 60.9318C33.2322 65.9744 37.0278 68.2981 41.5483 65.6868C50.2058 60.6885 57.0711 56.7249 65.7689 51.7034C69.8712 49.3352 73.1988 43.5708 73.1869 38.854C73.1729 33.7548 69.3216 31.5197 64.8552 34.0991ZM40.6804 64.1849C37.3893 66.0834 34.9647 64.6994 34.9541 60.9284C34.9423 56.7651 37.88 51.6779 41.5026 49.5861L52.3149 43.3438L52.3519 57.4465L40.6804 64.1849ZM64.9009 50.2014L54.0852 56.4458L54.0481 42.3431L65.7231 35.6027C68.9884 33.7169 71.4404 35.0568 71.4511 38.8591C71.4629 43.0207 68.5235 48.1096 64.9009 50.2014Z" fill="white"/>
<path d="M42.8707 51.1185C40.8043 52.3102 39.1905 55.1055 39.199 57.4788C39.206 60.2105 41.3767 61.4632 43.759 60.0859C45.8254 58.8942 47.4392 56.0989 47.4307 53.724C47.4237 50.9914 45.2505 49.7441 42.8707 51.1185ZM42.8911 58.584C41.6735 59.2828 40.9384 58.8636 40.9349 57.4737C40.9298 55.7243 42.213 53.5019 43.7387 52.6204C44.9616 51.9184 45.6913 52.3452 45.6949 53.729C45.7 55.4802 44.4167 57.7025 42.8911 58.584Z" fill="white"/>
<path d="M62.6449 39.7007C60.5802 40.8933 58.9681 43.6869 58.9732 46.0635C58.9836 48.7619 61.1158 50.0639 63.5348 48.669C65.5996 47.4773 67.2117 44.682 67.2066 42.307C67.1962 39.6082 65.0585 38.3111 62.6449 39.7007ZM62.6669 47.1654C61.49 47.8497 60.7127 47.4838 60.709 46.0584C60.7039 44.3073 61.9889 42.0841 63.5128 41.2043C64.7246 40.5054 65.4672 40.9234 65.4707 42.3121C65.4758 44.0632 64.1909 46.2856 62.6669 47.1654Z" fill="white"/>
<path d="M63.8907 15.5116C65.5576 16.4744 68.1684 16.4896 69.834 15.5201C71.805 14.3772 71.7894 12.2289 69.7984 11.0796C68.1337 10.1184 65.5316 10.1167 63.8738 11.0813C61.9138 12.2175 61.9082 14.3655 63.8907 15.5116ZM64.7451 12.5815C65.8656 11.9324 67.8182 11.9394 68.9304 12.5832C69.7422 13.0523 69.7897 13.5377 68.9626 14.0198C67.8303 14.6759 65.9046 14.6716 64.7586 14.008C63.9571 13.5459 63.9256 13.0589 64.7451 12.5815Z" fill="white"/>
</svg>
