<svg width="93" height="92" viewBox="0 0 93 92" fill="none" xmlns="http://www.w3.org/2000/svg">
<path d="M65.3129 49.0542L44.0775 61.395C43.8106 61.5509 43.6461 61.8357 43.6453 62.1442L43.6309 68.0027C43.63 68.3129 43.7953 68.6011 44.0648 68.7554C44.3417 68.9156 44.6732 68.907 44.9353 68.7554L66.1706 56.4146C66.4368 56.2586 66.6012 55.9738 66.602 55.6653L66.6173 49.8068C66.6191 49.1421 65.8958 48.7169 65.3129 49.0542ZM64.8679 55.1635L45.3701 66.494L45.3803 62.646L64.8772 51.3155L64.8679 55.1635Z" fill="white"/>
<path d="M72.1656 45.0993C70.5213 46.0486 69.2381 48.2828 69.2432 50.1848C69.2503 52.4264 71.076 53.4974 73.0497 52.3614C74.694 51.4121 75.9781 49.188 75.9721 47.2979C75.9668 44.9703 74.0876 43.9981 72.1656 45.0993ZM72.1817 50.8578C71.4289 51.287 70.9829 51.1427 70.979 50.1797C70.9756 48.8863 71.9165 47.2488 73.0336 46.6029C73.7863 46.1693 74.2344 46.3261 74.2363 47.303C74.2405 48.5846 73.2997 50.2119 72.1817 50.8578Z" fill="white"/>
<path d="M80.205 40.4596C78.5598 41.4089 77.2766 43.6432 77.2825 45.5417C77.2878 47.797 79.1301 48.8521 81.089 47.7183C82.7604 46.7538 84.0165 44.5772 84.0114 42.6549C84.0044 40.3772 82.1869 39.316 80.205 40.4596ZM80.2211 46.2164C79.4373 46.6668 79.0202 46.463 79.0183 45.5367C79.0141 44.2449 79.9549 42.6091 81.0729 41.9616C81.8585 41.5065 82.2719 41.7072 82.2756 42.66C82.279 43.9432 81.3382 45.5706 80.2211 46.2164Z" fill="white"/>
<path d="M88.1046 31.7302C88.0472 31.5077 87.931 31.3042 87.7264 31.1871L53.0831 11.1858C52.8136 11.0282 52.4822 11.0299 52.2127 11.1858L26.7564 25.9795C26.3428 26.2203 26.2012 26.7525 26.4428 27.1662C26.6835 27.5815 27.2141 27.7205 27.6294 27.4815L52.6509 12.9403L85.5608 31.9397L40.3889 58.1894C31.3761 52.986 14.8036 43.4182 7.47982 39.19L20.1859 31.8058C20.5996 31.5651 20.7411 31.0328 20.4995 30.6192C20.2588 30.2022 19.7265 30.0615 19.3129 30.3039L5.31171 38.4407C5.15386 38.533 4.88091 38.9558 4.88029 39.19L4.8396 55.7009C4.83876 56.0111 5.00403 56.2993 5.27357 56.4535L6.99204 57.4457L6.97636 61.1051C6.97466 61.4153 7.14079 61.7051 7.41032 61.8594L40.2355 80.8147C40.4951 80.9659 40.8237 80.9748 41.1017 80.8164C41.1014 80.8167 41.102 80.8162 41.1017 80.8164C109.694 40.9493 75.7212 60.6946 85.5439 54.9855C85.81 54.8296 85.9744 54.5465 85.9753 54.2379L85.9904 50.1844L87.6874 49.1982C87.9535 49.0423 88.118 48.7575 88.1188 48.449C88.1471 37.1017 88.1596 31.6827 88.1604 31.9364C88.1601 31.8628 88.1226 31.7997 88.1046 31.7302ZM6.61275 40.6936L39.5214 59.6928C39.521 59.8669 39.4831 75.134 39.4854 74.1998C39.2784 74.0803 36.6836 72.5824 6.5763 55.2025L6.61275 40.6936ZM8.72323 58.4452L39.8158 76.397L39.8074 78.5636L8.71475 60.6084L8.72323 58.4452ZM84.2411 53.7345L41.5433 78.5517L41.5535 76.0157L84.2505 51.2138L84.2411 53.7345ZM41.2215 74.1932C41.2221 73.9772 41.2601 58.7217 41.2577 59.6932L86.4211 33.4486L86.3838 47.9472L41.2215 74.1932Z" fill="white"/>
<path d="M21.5132 30.031C21.7556 30.4494 22.2894 30.5844 22.6998 30.3463L25.1468 28.924C25.5612 28.6833 25.7019 28.151 25.4604 27.7374C25.218 27.3221 24.6874 27.1814 24.2738 27.4221L21.8268 28.8443C21.4123 29.0851 21.2716 29.6173 21.5132 30.031Z" fill="white"/>
<path d="M14.0554 39.1815C14.0563 39.49 14.2215 39.7765 14.4894 39.9308L39.9491 54.6312C40.2212 54.7897 40.5544 54.7846 40.8195 54.6312L78.5539 32.7009C78.8209 32.5449 78.9862 32.2584 78.9853 31.9482C78.9845 31.6397 78.8192 31.3532 78.5514 31.199L53.0908 16.4985C52.8213 16.3408 52.4882 16.3408 52.2204 16.4985L14.4868 38.4288C14.2199 38.5848 14.0546 38.8713 14.0554 39.1815ZM52.6586 18.253L76.3858 31.9516L40.3813 52.8767L16.655 39.1781L52.6586 18.253Z" fill="white"/>
<path d="M51.6194 22.6553L56.3922 25.4099C56.8033 25.65 57.3366 25.5095 57.5779 25.0929C57.8178 24.6776 57.6754 24.147 57.2601 23.908L52.4873 21.1534C52.072 20.911 51.5414 21.0551 51.3016 21.4704C51.0617 21.8857 51.2041 22.4163 51.6194 22.6553Z" fill="white"/>
<path d="M48.3926 24.5302L53.1653 27.2848C53.5765 27.5249 54.1098 27.3844 54.3511 26.9678C54.591 26.5525 54.4486 26.0219 54.0333 25.7829L49.2605 23.0283C48.8444 22.7859 48.3155 22.9299 48.0748 23.3453C47.8349 23.7606 47.9773 24.2912 48.3926 24.5302Z" fill="white"/>
<path d="M45.1658 26.4051L49.9385 29.1614C50.3497 29.4015 50.883 29.261 51.1243 28.8444C51.3642 28.4291 51.2218 27.8985 50.8065 27.6595L46.0337 24.9031C45.6193 24.6607 45.0878 24.8048 44.848 25.2201C44.6081 25.6354 44.7505 26.166 45.1658 26.4051Z" fill="white"/>
<path d="M41.94 28.2799L46.7119 31.0362C47.123 31.2763 47.6563 31.1358 47.8976 30.7192C48.1375 30.3039 47.9951 29.7733 47.5798 29.5343L42.8079 26.778C42.3917 26.5355 41.8611 26.6796 41.6221 27.0949C41.3823 27.5103 41.5247 28.0409 41.94 28.2799Z" fill="white"/>
</svg>
