<svg width="93" height="92" viewBox="0 0 93 92" fill="none" xmlns="http://www.w3.org/2000/svg">
<path d="M48.733 87.5427C49 87.6965 49.3322 87.6992 49.6026 87.541L76.7684 71.7624C77.0363 71.6073 77.2007 71.3208 77.2007 71.0114C77.2007 70.7012 77.0346 70.4156 76.7667 70.2605L65.538 63.7755L65.5864 48.9733L77.9567 41.7842C78.2229 41.63 78.3873 41.3452 78.3882 41.0367C78.3887 40.8556 78.4361 24.2884 78.4331 25.3276C78.4331 25.3262 78.4321 25.3253 78.4321 25.3239C78.4321 25.3237 78.4321 25.3241 78.4321 25.3239C78.4309 25.0301 78.2774 24.7352 77.9995 24.5737C77.9993 24.5736 77.9998 24.5738 77.9995 24.5737C77.9992 24.5735 77.9986 24.5726 77.9983 24.5724L43.1592 4.45756C42.8897 4.30245 42.5583 4.30161 42.2888 4.45926L15.1349 20.239C15.1344 20.2393 15.1336 20.2392 15.1331 20.2396C15.1326 20.2399 15.1322 20.2406 15.1317 20.2409L15.1297 20.2421C14.9551 20.3434 14.6994 20.6347 14.6983 20.9897L14.6567 35.7088C14.655 36.1885 15.0432 36.5775 15.5221 36.5792C15.523 36.5792 15.5238 36.5792 15.5247 36.5792C16.0027 36.5792 16.3909 36.1919 16.3926 35.7139L16.4299 22.4933C27.7578 29.0336 29.3532 29.9547 49.5303 41.6042C49.5299 41.7853 49.497 55.487 49.4975 55.3116C49.3219 55.2103 37.2788 48.2623 38.028 48.6946C37.4342 48.3507 36.7228 48.8026 36.721 49.4506L36.6388 78.5553L16.3044 66.8159L16.3612 46.8341C16.3629 46.3544 15.9747 45.9654 15.4958 45.9637C15.495 45.9637 15.4942 45.9637 15.4933 45.9637C15.0153 45.9637 14.6271 46.351 14.6254 46.8291L14.5669 67.3134C14.5661 67.6245 14.7313 67.9118 15.0009 68.0678C21.2022 71.648 24.2848 73.4278 48.733 87.5427ZM49.9272 57.5696C50.2367 57.7479 50.6181 57.6707 50.7943 57.5705C50.7952 57.5699 50.7955 57.5688 50.7965 57.5682C50.9704 57.4672 52.8472 56.3768 52.6734 56.4778V58.5664C52.6734 59.497 53.2302 60.326 54.2329 60.8955C55.9909 61.9168 58.7419 61.9198 60.505 60.8955C61.4992 60.3175 62.0468 59.5021 62.0468 58.6028L62.0634 51.0266L63.847 49.9914L63.8021 63.7765L38.3797 78.5426L38.4577 50.9555C38.6333 51.0568 50.6765 58.0017 49.9272 57.5696ZM54.4092 55.4691C56.5483 54.2276 60.5256 51.9191 60.3253 52.0353L60.3109 58.6011C60.3109 58.8512 60.0575 59.1478 59.632 59.3953C58.4056 60.109 56.3315 60.1064 55.0983 59.3911C54.6601 59.1419 54.4092 58.8418 54.4092 58.5664V55.4691ZM76.6922 26.8402L76.6472 40.5332L60.7701 49.7584C60.7672 49.76 60.7638 49.7593 60.761 49.7608C60.5853 49.863 51.0602 55.4002 51.2359 55.2981C51.2363 55.1234 51.2741 40.7107 51.2718 41.6072C51.6836 41.3679 76.8694 26.7325 76.6922 26.8354V26.8402ZM49.1652 85.7882L39.234 80.0535L64.6704 65.2793L74.6012 71.0148L49.1652 85.7882ZM42.727 6.21206L75.8327 25.3267C40.9742 45.5747 53.0006 38.589 50.3982 40.1006L17.2978 20.9897L42.727 6.21206Z" fill="white"/>
<path d="M15.5019 43.6854H15.5044C15.9824 43.6854 16.3706 43.2981 16.3723 42.82L16.3817 39.4026C16.3833 38.9228 15.9952 38.5338 15.5163 38.5321H15.5137C15.0357 38.5321 14.6475 38.9194 14.6458 39.3975L14.6365 42.8149C14.6348 43.2947 15.023 43.6837 15.5019 43.6854Z" fill="white"/>
<path d="M67.5332 36.8056C67.2629 36.6513 66.9332 36.6522 66.6662 36.8064L60.3805 40.4358C60.111 40.5917 59.9457 40.8791 59.9465 41.1901L59.9576 44.5864C59.9589 45.0623 60.3437 45.4518 60.8255 45.4518C60.9755 45.4518 61.1255 45.4128 61.2594 45.3357L67.5451 41.7063C67.8146 41.5503 67.9799 41.263 67.9791 40.952L67.9681 37.5557C67.9672 37.2455 67.8011 36.9598 67.5332 36.8056ZM61.6883 43.0836L61.6841 41.6877L66.2373 39.0585L66.2415 40.4544L61.6883 43.0836Z" fill="white"/>
<path d="M71.6338 32.7109C69.9632 33.6763 68.6587 35.9368 68.6638 37.8583C68.6692 40.1371 70.5324 41.2078 72.5178 40.062C74.1892 39.0966 75.4937 36.8361 75.4877 34.9155C75.4824 32.643 73.6262 31.5617 71.6338 32.7109ZM71.6499 38.5584C70.8348 39.0298 70.4015 38.7985 70.3997 37.8532C70.3963 36.564 71.3786 34.8638 72.5017 34.2145C73.346 33.7281 73.7501 34.0079 73.7519 34.9206C73.7561 36.2326 72.7933 37.8981 71.6499 38.5584Z" fill="white"/>
<path d="M55.4077 42.0801C53.7363 43.0446 52.4318 45.3051 52.4378 47.2266C52.4431 49.5002 54.301 50.5791 56.2917 49.4303C57.9632 48.4658 59.2676 46.2052 59.2617 44.2838C59.2563 42.0049 57.3962 40.9349 55.4077 42.0801ZM55.4238 47.9267C54.612 48.3977 54.1754 48.1716 54.1736 47.2215C54.1694 45.9315 55.1517 44.2321 56.2756 43.5837C57.0758 43.1199 57.524 43.327 57.5258 44.2889C57.53 45.6009 56.5672 47.2673 55.4238 47.9267Z" fill="white"/>
</svg>
