<svg width="93" height="92" viewBox="0 0 93 92" fill="none" xmlns="http://www.w3.org/2000/svg">
<path d="M30.5697 69.7022C30.9824 69.9412 31.5156 69.8005 31.7554 69.3843C31.9953 68.969 31.8529 68.4384 31.4376 68.1985L6.57715 53.8456L6.62292 37.4584C16.1993 42.9873 37.4115 55.234 47.2552 60.9172L47.2086 77.3041L41.3975 73.9494C40.9822 73.7095 40.4508 73.8519 40.2118 74.2672C39.9719 74.6826 40.1143 75.2131 40.5296 75.453L47.6383 79.557C47.9054 79.7109 48.2341 79.7124 48.5054 79.5578L48.5076 79.5556C109.006 44.398 78.9541 61.8623 87.6764 56.7935C87.9425 56.6392 88.107 56.3544 88.1078 56.0459C88.14 44.6986 88.1597 37.4005 88.1604 37.6542C88.1596 37.3494 87.9977 37.0603 87.7264 36.9033L45.3608 12.4437C45.0921 12.2886 44.7607 12.2869 44.4904 12.4454C20.2585 26.5275 29.5567 21.1239 5.32272 35.2072C4.99936 35.3949 4.89187 35.7805 4.8913 35.9548L4.8396 54.3431C4.83876 54.6542 5.00403 54.9415 5.27357 55.0975L30.5697 69.7022ZM48.9445 77.2948L48.9913 60.9171L86.4203 39.1657L86.3736 55.5433L48.9445 77.2948ZM44.9286 14.1982L85.5608 37.6576L48.1235 59.4138L7.49095 35.9548L44.9286 14.1982Z" fill="white"/>
<path d="M37.3292 73.6044C37.7431 73.8435 38.2749 73.7023 38.515 73.2866C38.7549 72.8713 38.6125 72.3407 38.1972 72.1008L34.511 69.9725C34.0949 69.7327 33.5643 69.8734 33.3253 70.2904C33.0854 70.7057 33.2278 71.2363 33.6431 71.4761L37.3292 73.6044Z" fill="white"/>
<path d="M13.3969 36.7278L47.6307 56.4934C47.8977 56.6472 48.2299 56.6499 48.5003 56.4917L79.6566 38.3865C79.9245 38.2314 80.0897 37.9449 80.0889 37.6355C80.088 37.3253 79.9228 37.0397 79.6549 36.8846L45.4211 17.1198C45.1515 16.9639 44.8193 16.9639 44.5514 17.1215L13.3952 35.2259C13.1273 35.381 12.962 35.6675 12.9629 35.9768C12.9637 36.287 13.129 36.5727 13.3969 36.7278ZM44.9888 18.8743L77.4893 37.6389L48.063 54.7389L15.5624 35.9734L44.9888 18.8743Z" fill="white"/>
<path d="M83.4121 43.0211L67.5081 52.2631C67.2411 52.4174 67.0767 52.7022 67.0758 53.0107L67.0461 63.3546C67.0453 63.6657 67.2106 63.953 67.4801 64.109C67.7465 64.2624 68.0779 64.2657 68.3506 64.1073L84.2538 54.8652C84.5208 54.711 84.6852 54.4262 84.686 54.1177L84.7157 43.7738C84.7165 43.4627 84.5513 43.1754 84.2817 43.0194C84.0122 42.8634 83.68 42.8634 83.4121 43.0211ZM82.9519 53.615L68.7862 61.8468L68.81 53.5133L82.9756 45.2816L82.9519 53.615Z" fill="white"/>
<path d="M53.835 62.6503C52.2297 63.5767 50.9761 65.749 50.9812 67.5959C50.9866 69.8055 52.8108 70.8343 54.7191 69.7335C56.3269 68.8054 57.5822 66.6322 57.5771 64.7853C57.5718 62.5893 55.7651 61.5385 53.835 62.6503ZM53.8511 68.2299C53.11 68.659 52.7189 68.4592 52.7171 67.5908C52.7137 66.372 53.6418 64.7658 54.703 64.1539C55.426 63.735 55.8393 63.8901 55.8413 64.7904C55.8446 66.0092 54.9148 67.6162 53.8511 68.2299Z" fill="white"/>
<path d="M61.5699 58.1556C59.9637 59.0828 58.7102 61.2552 58.7161 63.1012C58.7214 65.2999 60.5358 66.3448 62.4531 65.2388C64.0609 64.3107 65.3162 62.1375 65.3111 60.2906C65.3058 58.0871 63.4938 57.047 61.5699 58.1556ZM61.5852 63.7352C60.8385 64.1657 60.4538 63.9585 60.4519 63.0961C60.4477 61.8781 61.3758 60.272 62.4378 59.6592C63.1562 59.243 63.5734 59.39 63.5753 60.2957C63.5787 61.5145 62.6489 63.1215 61.5852 63.7352Z" fill="white"/>
<path d="M81.0466 53.3523H81.0491C81.528 53.3506 81.9162 52.9616 81.9145 52.4818L81.906 49.3975C81.9043 48.9194 81.5161 48.5321 81.0381 48.5321C80.4923 48.4829 80.1685 48.922 80.1702 49.4026L80.1786 52.4869C80.1803 52.9649 80.5685 53.3523 81.0466 53.3523Z" fill="white"/>
<path d="M77.6071 55.2679H77.6105C78.0894 55.2662 78.4768 54.8763 78.4751 54.3965L78.47 52.9768C78.4683 52.4988 78.0801 52.1123 77.6021 52.1123H77.5987C77.1198 52.114 76.7324 52.5039 76.7341 52.9836L76.7392 54.4033C76.7409 54.8814 77.1291 55.2679 77.6071 55.2679Z" fill="white"/>
<path d="M74.1677 57.1825H74.1702C74.6499 57.1808 75.0373 56.791 75.0356 56.3121L75.0254 52.9777C75.0237 52.4988 74.6355 52.1123 74.1575 52.1123H74.1549C73.6752 52.114 73.2879 52.5039 73.2896 52.9828L73.2997 56.3172C73.3014 56.796 73.6896 57.1825 74.1677 57.1825Z" fill="white"/>
<path d="M70.7281 59.098H70.7307C71.2104 59.0963 71.5977 58.7065 71.596 58.2276L71.5901 56.4841C71.5884 56.0052 71.2002 55.6187 70.7222 55.6187H70.7196C70.2399 55.6204 69.8526 56.0103 69.8543 56.4892L69.8602 58.2327C69.8619 58.7115 70.2501 59.098 70.7281 59.098Z" fill="white"/>
</svg>
