<svg width="93" height="92" viewBox="0 0 93 92" fill="none" xmlns="http://www.w3.org/2000/svg">
<path d="M5.54397 69.3153C5.54482 69.623 5.70925 69.9078 5.97539 70.0629L36.0527 87.5426C36.0534 87.543 36.0543 87.5428 36.055 87.5432C36.0546 87.543 36.0555 87.5434 36.055 87.5432C36.189 87.6203 36.34 87.6604 36.4892 87.6604C36.6392 87.6604 36.7884 87.6214 36.9232 87.5443L87.1085 58.5697C87.3781 58.4137 87.5433 58.1264 87.5425 57.8153L87.456 22.6839C87.4553 22.4016 87.1777 22.0252 87.0246 21.9363L56.9473 4.45744C56.6769 4.30064 56.3455 4.30064 56.0768 4.45575L5.89148 33.4304C5.63505 33.5789 5.45841 33.8585 5.45752 34.1813C5.45752 34.182 5.45794 34.1824 5.45794 34.183C5.45794 34.1836 5.45752 34.1841 5.45752 34.1847L5.54397 69.3153ZM7.19676 35.6926L35.5357 52.1611C35.5455 56.1473 35.6098 82.1338 35.6176 85.2819L7.27897 68.8127L7.19676 35.6926ZM37.3537 85.2914C37.3467 82.4201 37.2806 55.6817 37.272 52.1615L85.7236 24.1879L85.8058 57.3178L37.3537 85.2914ZM56.5091 6.21025L84.8564 22.6839L36.404 50.6579L8.05706 34.1847L56.5091 6.21025Z" fill="white"/>
<path d="M20.4452 71.4317L10.9752 65.9275C10.5607 65.6877 10.0293 65.8258 9.78857 66.2411C9.54701 66.6556 9.68771 67.187 10.1022 67.4278L19.5722 72.932C19.9878 73.1731 20.5184 73.0321 20.7588 72.6183C21.0004 72.2039 20.8597 71.6724 20.4452 71.4317Z" fill="white"/>
<path d="M10.1022 62.9101L19.5723 68.4135C19.9879 68.6546 20.5185 68.5136 20.7589 68.0999C21.0005 67.6854 20.8589 67.154 20.4453 66.9133L10.9752 61.4099C10.5608 61.1692 10.0293 61.309 9.78863 61.7235C9.54707 62.138 9.68862 62.6694 10.1022 62.9101Z" fill="white"/>
<path d="M10.1022 58.3917L19.5723 63.895C19.9879 64.1362 20.5185 63.9951 20.7589 63.5814C21.0005 63.1669 20.8589 62.6355 20.4453 62.3948L10.9752 56.8914C10.5608 56.6499 10.0293 56.7906 9.78863 57.2051C9.54707 57.6195 9.68862 58.151 10.1022 58.3917Z" fill="white"/>
<path d="M50.6253 49.0242C50.3566 48.8691 50.0252 48.8716 49.7582 49.025L40.673 54.2699C40.4034 54.4258 40.2382 54.7132 40.239 55.0242L40.2568 60.6123C40.2577 60.9225 40.4238 61.2082 40.6916 61.3624C40.9636 61.5181 41.2933 61.5145 41.5587 61.3616L50.6422 56.1159C50.9118 55.9599 51.0771 55.6726 51.0762 55.3616L51.0601 49.7743C51.0593 49.4649 50.8931 49.1793 50.6253 49.0242ZM41.9876 59.1087L41.9766 55.5217L49.3285 51.2779L49.3387 54.864L41.9876 59.1087Z" fill="white"/>
<path d="M45.2048 69.8925C43.4436 70.9096 42.0688 73.3023 42.0747 75.3391C42.0818 77.7382 44.0208 78.8539 46.0906 77.6581C47.8629 76.6342 49.2461 74.2372 49.2402 72.1996C49.2349 69.8399 47.3304 68.6613 45.2048 69.8925ZM45.2226 76.1545C44.7912 76.4028 44.4013 76.474 44.1767 76.3435C43.9487 76.2129 43.8123 75.8349 43.8106 75.334C43.8063 73.9101 44.8421 72.1064 46.0728 71.3961C46.3694 71.2249 46.6474 71.1351 46.867 71.1351C46.9738 71.1351 47.067 71.1563 47.1416 71.1995C47.367 71.3292 47.5035 71.7055 47.5043 72.2047C47.5086 73.6295 46.4635 75.4382 45.2226 76.1545Z" fill="white"/>
<path d="M48.3731 59.7936L42.0747 63.4305C41.6594 63.6704 41.517 64.201 41.7569 64.6163C41.9974 65.0327 42.5296 65.1728 42.9427 64.9342L49.241 61.2972C49.6564 61.0573 49.7988 60.5267 49.5589 60.1114C49.3182 59.6944 48.785 59.552 48.3731 59.7936Z" fill="white"/>
<path d="M48.3731 64.2035L42.0747 67.8405C41.6594 68.0804 41.517 68.611 41.7569 69.0263C41.9974 69.4427 42.5296 69.5827 42.9427 69.3441L49.241 65.7071C49.6564 65.4673 49.7988 64.9367 49.5589 64.5214C49.3182 64.1052 48.785 63.9628 48.3731 64.2035Z" fill="white"/>
<path d="M82.7791 31.4623C82.7783 31.1521 82.613 30.8664 82.3443 30.7122C82.0756 30.5571 81.7442 30.5587 81.4773 30.7122L54.0546 46.5442C53.785 46.7001 53.6198 46.9874 53.6206 47.2985L53.6816 71.5953C53.6825 71.9047 53.8478 72.1903 54.1164 72.3446C54.385 72.4992 54.7146 72.4995 54.9835 72.3446L82.4045 56.5126C82.674 56.3566 82.8393 56.0693 82.8385 55.7591L82.7791 31.4623ZM55.4141 70.0917L55.3573 47.796L81.0467 32.965L81.1018 55.2607L55.4141 70.0917Z" fill="white"/>
<path d="M59.0339 53.6189H59.0314C58.5525 53.6198 58.1652 54.0097 58.166 54.4894L58.1779 59.1833C58.1787 59.6613 58.5678 60.0487 59.0458 60.0487C59.4874 60.0182 59.9146 59.6596 59.9137 59.1782L59.9019 54.4843C59.901 54.0063 59.512 53.6189 59.0339 53.6189Z" fill="white"/>
<path d="M78.6989 43.6234L73.6795 40.7043C73.2651 40.4653 72.7336 40.6035 72.4929 41.0179C72.2514 41.4324 72.3921 41.9638 72.8065 42.2045L77.8259 45.1236C78.2415 45.3648 78.7721 45.2237 79.0125 44.81C79.2541 44.3955 79.1134 43.8641 78.6989 43.6234Z" fill="white"/>
<path d="M78.9515 39.8517L76.6588 38.5184C76.2443 38.2785 75.7129 38.4167 75.4722 38.832C75.2306 39.2465 75.3713 39.7779 75.7858 40.0186L78.0785 41.3519C78.4941 41.593 79.0247 41.452 79.2651 41.0383C79.5058 40.6238 79.366 40.0924 78.9515 39.8517Z" fill="white"/>
</svg>
