<svg width="93" height="92" viewBox="0 0 93 92" fill="none" xmlns="http://www.w3.org/2000/svg">
<path d="M21.3641 57.0373C21.1234 57.451 21.2641 57.9832 21.6794 58.224L24.8528 60.0683C25.2662 60.3082 25.7989 60.1682 26.0394 59.753C26.2801 59.3394 26.1394 58.8071 25.7241 58.5664L22.5507 56.722C22.1371 56.4813 21.6048 56.6186 21.3641 57.0373Z" fill="white"/>
<path d="M45.1404 64.9741C45.6201 64.9724 46.01 64.5825 46.0083 64.1045L45.9744 52.1163C45.9727 51.6365 45.5845 51.25 45.1065 51.25C44.6267 51.2517 44.2368 51.6416 44.2385 52.1197L44.2724 64.1079C44.2741 64.5876 44.6623 64.9741 45.1404 64.9741Z" fill="white"/>
<path d="M35.8816 59.5937C36.3613 59.592 36.7512 59.2021 36.7495 58.724L36.7173 46.7358C36.7156 46.2561 36.3274 45.8696 35.8494 45.8696C35.3696 45.8713 34.9798 46.2612 34.9815 46.7392L35.0137 58.7274C35.0154 59.2072 35.4035 59.5937 35.8816 59.5937Z" fill="white"/>
<path d="M26.6242 54.2132C27.104 54.2115 27.4939 53.8216 27.4922 53.3436L27.4583 41.3554C27.4566 40.8756 27.0684 40.4891 26.5903 40.4891C26.1106 40.4908 25.7207 40.8807 25.7224 41.3588L25.7563 53.347C25.758 53.8267 26.1462 54.2132 26.6242 54.2132Z" fill="white"/>
<path d="M34.0134 34.4035C34.0134 34.7137 34.1779 35.0002 34.4457 35.1561L44.776 41.1587C45.0421 41.3136 45.3762 41.3156 45.6456 41.1587L58.2221 33.9017C58.4899 33.7475 58.656 33.461 58.656 33.1524C58.656 32.8422 58.4916 32.5557 58.2238 32.3998L47.8951 26.3972C47.629 26.243 47.295 26.2413 47.0255 26.3972L34.4474 33.6542C34.1796 33.8085 34.0134 34.095 34.0134 34.4035ZM47.4578 28.1517L56.0557 33.1474L45.2134 39.4042L36.6138 34.4086L47.4578 28.1517Z" fill="white"/>
<path d="M31.9674 30.9267C32.2055 31.3421 32.738 31.4841 33.1524 31.2437L43.5115 25.2666C43.9268 25.0275 44.0692 24.4969 43.8285 24.0816C43.5895 23.6663 43.0606 23.5205 42.6436 23.7646L32.2844 29.7418C31.8691 29.9808 31.7267 30.5114 31.9674 30.9267Z" fill="white"/>
<path d="M28.1735 28.723C28.4116 29.1384 28.9441 29.2804 29.3584 29.04L39.7193 23.0628C40.1346 22.8238 40.277 22.2932 40.0363 21.8779C39.7972 21.4626 39.2667 21.3168 38.8513 21.5609L28.4905 27.5381C28.0752 27.7771 27.9328 28.3077 28.1735 28.723Z" fill="white"/>
<path d="M24.6985 25.3343C24.2832 25.5734 24.1408 26.104 24.3815 26.5193C24.6196 26.9346 25.1521 27.0767 25.5664 26.8363L35.9273 20.8574C36.3426 20.6184 36.485 20.0878 36.2443 19.6725C36.0053 19.2572 35.4747 19.1131 35.0594 19.3555L24.6985 25.3343Z" fill="white"/>
<path d="M58.7375 46.8206C58.9756 47.2359 59.508 47.378 59.9224 47.1376L70.2815 41.1587C70.6969 40.9197 70.8393 40.3891 70.5985 39.9738C70.3595 39.5585 69.8289 39.4144 69.4136 39.6568L59.0545 45.6356C58.6391 45.8747 58.4968 46.4053 58.7375 46.8206Z" fill="white"/>
<path d="M54.9435 44.6169C55.1816 45.0322 55.7141 45.1743 56.1284 44.9338L66.4893 38.955C66.9046 38.716 67.047 38.1854 66.8063 37.7701C66.5673 37.3548 66.0384 37.209 65.6214 37.4531L55.2605 43.4319C54.8452 43.6709 54.7028 44.2015 54.9435 44.6169Z" fill="white"/>
<path d="M51.1515 42.4115C51.3896 42.8268 51.9221 42.9689 52.3364 42.7284L62.6973 36.7513C63.1126 36.5123 63.255 35.9817 63.0143 35.5664C62.7753 35.1511 62.2447 35.0053 61.8294 35.2494L51.4685 41.2265C51.0532 41.4655 50.9108 41.9961 51.1515 42.4115Z" fill="white"/>
<path d="M88.1265 56.9814C88.1265 56.6829 87.9612 56.3791 87.6857 56.2203C87.6822 56.2183 87.678 56.2192 87.6745 56.2173L81.7717 52.7873L81.7391 39.133C81.7391 38.8228 81.573 38.5363 81.3034 38.382L81.2958 38.38L37.8682 13.1427C37.6021 12.9885 37.2698 12.9868 36.9986 13.1427L25.2316 19.9362L17.394 15.3685C17.1262 15.2108 16.7939 15.2108 16.5227 15.3668L5.27527 21.8593C5.07058 21.9764 4.95393 22.1801 4.89672 22.4028C4.87881 22.4722 4.84131 22.5351 4.84131 22.6085C4.84131 22.7871 4.87404 35.0798 4.87521 34.9019C4.87691 35.2104 5.03964 35.4952 5.30578 35.6494L13.2795 40.2943L13.3154 52.8655C13.3171 53.1741 13.4799 53.4588 13.7477 53.6148L18.462 56.3542C18.8722 56.5915 19.4062 56.4542 19.6486 56.0389C19.8893 55.6253 19.7486 55.093 19.3333 54.8523L15.0496 52.3638L14.9835 28.8698L56.6744 53.0979C56.6818 55.5006 56.6474 44.394 56.7473 76.5961L28.5601 60.2141C28.1464 59.9734 27.6142 60.1107 27.3734 60.5294C27.1327 60.943 27.2734 61.4753 27.6887 61.716L57.1846 78.8575C57.4524 79.0134 57.795 79.0117 58.0627 78.8558L68.8748 72.5983L75.6161 76.5165C75.8822 76.6714 76.2163 76.6734 76.4858 76.5165C76.4936 76.512 76.4966 76.5027 76.5042 76.498L87.7247 70.0274C87.9942 69.8714 88.1604 69.5833 88.1587 69.2713L88.1215 56.9999C88.1216 56.9934 88.1265 56.988 88.1265 56.9814ZM63.4957 67.4643L63.4669 57.1825L75.146 63.969C75.1465 64.1472 75.1782 74.4327 75.1776 74.2545C61.2518 66.1599 70.9972 71.8246 63.4957 67.4643ZM76.8856 63.9721L83.1664 60.3497L83.18 66.7269L76.904 70.3482L76.8856 63.9721ZM76.0179 62.4669L64.3317 55.6759L73.8396 50.1889L80.4677 54.0488C80.4781 54.0548 80.4906 54.0523 80.5011 54.0579L85.5188 56.9738C85.3428 57.0755 75.3898 62.8301 76.0179 62.4669ZM37.4309 14.8972L79.1368 39.1346C74.0203 42.0884 59.4941 50.4747 57.5491 51.5975L15.8487 27.3635C45.425 10.2797 35.2241 16.1719 37.4309 14.8972ZM16.955 17.1213L23.4995 20.9363L21.6037 22.0308L19.1841 20.6252C18.7705 20.3845 18.2382 20.5218 17.9975 20.9405C17.7568 21.3541 17.8975 21.8864 18.3128 22.1271L19.87 23.0317L17.6285 24.3258L15.2089 22.9187C14.797 22.678 14.263 22.8153 14.0223 23.234C13.7816 23.6477 13.9223 24.1783 14.3376 24.4207L15.8952 25.3265L14.0019 26.4196L7.44169 22.6119L16.955 17.1213ZM6.60937 34.4001L6.58055 24.1206C6.75941 24.2244 13.6786 28.2403 13.2442 27.9882L13.2731 38.282L6.60937 34.4001ZM58.4916 76.6029C58.4839 74.1989 58.5193 85.3099 58.4168 53.1007L80.0066 40.6366L80.0337 51.7773L74.2719 48.4293C74.0057 48.275 73.6718 48.2733 73.4023 48.4293L62.1599 54.9201C61.8909 55.0741 61.726 55.4949 61.726 55.6693L61.7264 55.671L61.726 55.6727C61.7285 56.6037 61.7604 68.1817 61.7599 67.9695C61.7616 68.278 61.926 68.5628 62.1921 68.7187L67.1454 71.5937L58.4916 76.6029ZM76.9154 74.2562L76.9099 72.3476L84.4836 67.9779C84.7531 67.8237 84.9175 67.5355 84.9175 67.2253L84.8999 59.343L86.3906 58.4823L86.4211 68.7747L76.9154 74.2562Z" fill="white"/>
<path d="M78.6268 55.1693L76.0705 53.6843C75.6569 53.4436 75.1246 53.5809 74.8839 53.9996C74.6432 54.4132 74.7839 54.9455 75.1992 55.1862L77.7555 56.6712C78.1689 56.9111 78.7016 56.771 78.9421 56.3559C79.1828 55.9423 79.0421 55.41 78.6268 55.1693Z" fill="white"/>
<path d="M74.6532 57.4645L72.0969 55.9796C71.6833 55.7388 71.151 55.8761 70.9103 56.2949C70.6695 56.7085 70.8102 57.2408 71.2256 57.4815L73.7819 58.9664C74.1953 59.2063 74.728 59.0663 74.9685 58.6511C75.2092 58.2375 75.0685 57.7052 74.6532 57.4645Z" fill="white"/>
</svg>
