<svg width="93" height="92" viewBox="0 0 93 92" fill="none" xmlns="http://www.w3.org/2000/svg">
<path d="M42.1769 15.5763C42.5922 15.3373 42.7346 14.8067 42.4948 14.3914C42.254 13.9761 41.7226 13.832 41.309 14.0744L23.2254 24.5232C23.2172 24.5275 23.2075 24.5255 23.1995 24.5302C21.3319 25.6078 19.8732 28.132 19.873 30.2819C19.8729 30.2867 19.8694 30.2906 19.8694 30.2954L19.9677 65.9532C19.9838 72.3559 22.2053 77.1651 26.2229 79.4942C26.431 79.6152 37.5978 86.103 37.7898 86.2138C42.4857 88.9127 48.14 87.5014 52.8149 84.8001C64.053 78.3127 73.1671 62.5256 73.1306 49.6101L73.0298 13.9574C73.0264 12.7471 72.5695 11.8181 71.744 11.3435C70.5413 10.652 60.0488 4.55549 60.2236 4.65267C59.4133 4.17125 58.3445 4.23905 57.2868 4.84423L51.8317 7.99554C51.4164 8.23456 51.274 8.76514 51.5139 9.18046C51.7529 9.59578 52.2835 9.73817 52.6996 9.49746L58.1513 6.34953C58.6387 6.06814 59.0828 5.99016 59.3447 6.14951L68.7229 11.6017L49.4651 22.7205L35.1649 30.9752C34.9891 30.8731 24.7451 24.9227 25.3724 25.2871L42.1769 15.5763ZM23.6598 26.309C23.8356 26.411 34.2748 32.4678 33.6129 32.0838C33.5813 32.1147 33.5548 32.1529 33.5235 32.1846C32.6756 33.0426 31.9005 34.3475 31.5838 35.5911C31.3115 35.4329 21.076 29.4863 21.64 29.8139C21.8117 28.5384 22.6397 27.1035 23.6598 26.309ZM27.0942 77.9923C23.6327 75.9852 21.718 71.7083 21.7036 65.9498L21.6095 31.8041L31.4014 37.4993C31.5351 85.6267 31.4891 69.0471 31.4991 72.6441C31.5066 75.546 32.1189 79.1335 33.5155 81.7183L27.0942 77.9923ZM51.947 83.2982C46.8801 86.2223 42.1608 86.7258 38.6552 84.7085L38.6508 84.7055C38.641 84.6992 38.6356 84.6889 38.6255 84.6831L38.6145 84.678C34.5721 82.3223 33.2505 77.3281 33.2375 72.6441C33.2313 70.4515 33.1387 37.733 33.1366 36.9981L33.1357 36.995V36.9913C33.1315 35.4538 34.2579 33.5044 35.5954 32.7314C86.9149 3.10893 62.3103 17.3111 69.6945 13.0488C70.5637 12.5346 71.29 12.695 71.2939 13.9608L71.3948 49.6135C71.4295 61.9764 62.7054 77.0871 51.947 83.2982Z" fill="white"/>
<path d="M45.5555 13.6252L49.4704 11.3638C49.8858 11.1248 50.0281 10.5942 49.7883 10.1789C49.5476 9.76359 49.0144 9.6195 48.6025 9.86191L44.6875 12.1233C44.2722 12.3623 44.1298 12.8929 44.3697 13.3082C44.6114 13.7254 45.145 13.8648 45.5555 13.6252Z" fill="white"/>
<path d="M63.585 20.5008C63.0002 20.1668 62.2577 20.2058 61.5458 20.6194L42.1514 31.816C40.9622 32.5042 40.068 34.0536 40.0723 35.4165L40.0256 69.5012C40.0487 77.4636 45.9371 80.6691 52.7317 76.7429C57.5914 73.9361 61.7614 68.1139 63.5323 62.2373C64.1328 60.2596 64.4642 58.2751 64.4589 56.3959L64.5047 22.3129C64.503 21.4958 64.1673 20.8364 63.585 20.5008ZM62.4137 22.1213C62.5968 22.0162 62.7103 22.0078 62.7052 21.9942C62.7214 22.0129 62.768 22.1129 62.7688 22.3129L62.7312 50.3344C60.1548 46.7467 55.725 46.9707 51.7901 49.244C47.5351 51.6991 43.82 56.4747 41.7723 61.5721L41.8081 35.4148C41.8056 34.674 42.3726 33.6925 43.0201 33.3179L62.4137 22.1213ZM51.8452 75.236C46.1231 78.5392 41.8433 75.9692 41.8259 69.5165C41.8064 62.6256 46.6656 54.2057 52.658 50.7459C58.2977 47.491 62.6867 49.9176 62.7044 56.4637C62.7093 58.1834 62.4097 59.9989 61.8642 61.8089C60.211 67.2516 56.3473 72.6361 51.8452 75.236Z" fill="white"/>
<path d="M47.3684 37.2015L58.031 31.0447C58.4463 30.8057 58.5887 30.2751 58.3489 29.8598C58.1082 29.4462 57.5767 29.3004 57.1631 29.5428L46.5005 35.6996C46.0852 35.9386 45.9428 36.4692 46.1827 36.8845C46.4243 37.3017 46.958 37.4412 47.3684 37.2015Z" fill="white"/>
<path d="M47.3684 43.0244L58.031 36.8676C58.4463 36.6286 58.5887 36.098 58.3489 35.6827C58.1082 35.2673 57.5767 35.1233 57.1631 35.3657L46.5005 41.5225C46.0852 41.7615 45.9428 42.2921 46.1827 42.7074C46.4243 43.1246 46.958 43.2641 47.3684 43.0244Z" fill="white"/>
<path d="M47.3684 48.8473L58.031 42.6922C58.4463 42.4531 58.5887 41.9226 58.3489 41.5072C58.1082 41.0902 57.5767 40.9478 57.1631 41.1903L46.5005 47.3454C46.0852 47.5844 45.9428 48.115 46.1827 48.5303C46.4243 48.9475 46.958 49.087 47.3684 48.8473Z" fill="white"/>
<path d="M48.6983 59.5065L56.7003 54.8872C57.1156 54.6482 57.258 54.1176 57.0181 53.7023C56.7774 53.287 56.2443 53.1429 55.8324 53.3853L47.8304 58.0046C47.415 58.2436 47.2726 58.7742 47.5125 59.1895C47.7542 59.6067 48.2878 59.7462 48.6983 59.5065Z" fill="white"/>
<path d="M59.0185 56.1653L44.6443 64.4649C44.229 64.7039 44.0866 65.2345 44.3265 65.6498C44.5681 66.067 45.1018 66.2064 45.5122 65.9668L59.8864 57.6673C60.3017 57.4282 60.4441 56.8977 60.2042 56.4823C59.9627 56.067 59.4312 55.9229 59.0185 56.1653Z" fill="white"/>
<path d="M57.7969 61.4915L45.8655 68.379C45.4502 68.618 45.3078 69.1486 45.5477 69.5639C45.7893 69.9811 46.323 70.1206 46.7334 69.8809L58.6649 62.9935C59.0802 62.7544 59.2226 62.2239 58.9827 61.8085C58.7411 61.3932 58.2097 61.2491 57.7969 61.4915Z" fill="white"/>
<path d="M54.511 68.0078L49.1526 71.1014C48.7373 71.3405 48.5949 71.8711 48.8348 72.2864C49.0764 72.7036 49.6101 72.843 50.0205 72.6034L55.379 69.5097C55.7943 69.2707 55.9367 68.7401 55.6968 68.3248C55.4561 67.9095 54.9247 67.7637 54.511 68.0078Z" fill="white"/>
</svg>
