<svg width="93" height="92" viewBox="0 0 93 92" fill="none" xmlns="http://www.w3.org/2000/svg">
<path d="M88.1046 50.0253C88.0472 49.8028 87.931 49.5993 87.7264 49.4822L75.8924 42.6507C75.6229 42.4947 75.2907 42.4947 75.0228 42.6507L68.2885 46.5639L37.339 28.6999L37.3613 20.9068C37.3613 20.9062 37.3609 20.9057 37.3609 20.9051C37.3609 20.9045 37.3613 20.904 37.3613 20.9034C37.3613 20.6389 37.2155 20.3201 36.9274 20.1541L25.1045 13.3277C24.8349 13.1701 24.5018 13.1718 24.234 13.3277L5.31849 24.3209C5.16557 24.4101 4.888 24.7734 4.88707 25.0701L4.8396 41.7658C4.83876 42.076 5.00403 42.3642 5.27357 42.5185L11.5389 46.1359C11.9508 46.3766 12.4839 46.2326 12.7247 45.8189C12.9645 45.4036 12.8221 44.873 12.4068 44.634L6.57715 41.2674L6.61868 26.572L16.7083 32.3966L16.6871 40.1774C16.6863 40.4839 16.8495 40.7668 17.1133 40.9223C17.5953 41.2065 55.9035 63.3319 56.0785 63.4317C56.3382 63.5829 56.6667 63.5918 56.9447 63.4334C56.9465 63.4323 56.9472 63.4302 56.949 63.4292C56.95 63.4285 56.9513 63.429 56.9524 63.4283C57.2202 63.2741 57.3863 62.9876 57.3872 62.6774C57.3878 62.4991 57.4107 55.4466 57.4092 55.8948L67.5082 61.7264L67.4666 76.4218L21.6014 49.9433C21.1869 49.6992 20.6555 49.845 20.4156 50.2603C20.1758 50.6756 20.3182 51.2062 20.7335 51.4452L67.8964 78.6729C68.0303 78.7509 68.1803 78.7899 68.3303 78.7899C68.4795 78.7899 68.6295 78.7509 68.7634 78.6746C68.7641 78.6743 68.7642 78.6736 68.7648 78.6733C68.7645 78.6735 68.7651 78.673 68.7648 78.6733L87.6806 67.6815C87.9476 67.5255 88.112 67.2407 88.1129 66.9322C88.1449 55.5849 88.1596 49.9778 88.1604 50.2315C88.1601 50.1579 88.1226 50.0948 88.1046 50.0253ZM35.6035 28.6876L18.4274 38.6686L18.4445 32.3972L35.6213 22.416L35.6035 28.6876ZM75.4602 44.4052L85.5608 50.2348C81.797 52.4224 72.423 57.8705 68.376 60.2227C67.9491 59.9762 57.78 54.1059 58.2803 54.3947C81.8237 40.705 73.7035 45.4266 75.4602 44.4052ZM56.1073 53.6421C55.7855 53.8296 55.6756 54.216 55.675 54.3914C55.6744 54.5696 55.6489 61.6206 55.6505 61.1725L19.2942 40.1811L36.4654 30.1997L66.5521 47.565C65.7185 48.0584 56.9582 53.1478 56.1073 53.6421ZM24.6722 15.0822L34.7618 20.9068L17.5762 30.893L7.4866 25.0684L24.6722 15.0822ZM69.2026 76.4116L69.2443 61.7273L86.4203 51.7447L86.3787 66.4305L69.2026 76.4116Z" fill="white"/>
<path d="M18.3271 48.0515L15.0232 46.1444C14.6079 45.9003 14.0765 46.0461 13.8375 46.4614C13.5976 46.8767 13.74 47.4073 14.1553 47.6463L17.4592 49.5534C17.5956 49.6331 17.7448 49.6703 17.8923 49.6703C18.1923 49.6703 18.4839 49.5144 18.6449 49.2364C18.8848 48.8211 18.7424 48.2905 18.3271 48.0515Z" fill="white"/>
<path d="M35.9231 32.4509L31.3699 35.097C31.1029 35.253 30.9385 35.5395 30.9385 35.8497C30.9393 36.1582 31.1046 36.4447 31.3724 36.5989L35.3527 38.8976C35.6249 39.0561 35.958 39.051 36.2232 38.8976L40.7764 36.2514C41.0434 36.0955 41.2078 35.809 41.2078 35.4988C41.2069 35.1903 41.0417 34.9038 40.7738 34.7495L36.7936 32.4509C36.524 32.2949 36.1909 32.2949 35.9231 32.4509ZM38.6083 35.5022L35.785 37.1431L33.538 35.8463L36.3613 34.2054L38.6083 35.5022Z" fill="white"/>
<path d="M55.2003 51.5588L51.2328 49.2686C50.9633 49.1126 50.6302 49.1126 50.3623 49.2686L45.8091 51.9147C45.5421 52.0707 45.3768 52.3572 45.3777 52.6674C45.3785 52.9759 45.5438 53.2624 45.8117 53.4167L49.7783 55.7068C50.0426 55.8607 50.3748 55.8649 50.648 55.7068L55.202 53.0607C55.4699 52.9047 55.6351 52.6182 55.6343 52.308C55.6334 51.9995 55.4682 51.713 55.2003 51.5588ZM50.2106 53.9523L47.9772 52.664L50.8005 51.0231L53.0347 52.3114L50.2106 53.9523Z" fill="white"/>
<path d="M48.3809 48.121C48.38 47.8125 48.2147 47.526 47.9469 47.3717L43.9794 45.0815C43.7107 44.9256 43.3776 44.9256 43.1089 45.0815L38.5557 47.7277C38.2887 47.8837 38.1234 48.1701 38.1243 48.4803C38.1251 48.7889 38.2904 49.0754 38.5582 49.2296L42.5249 51.5198C42.7892 51.6736 43.1214 51.6778 43.3945 51.5198L47.9486 48.8736C48.2164 48.7177 48.3817 48.4312 48.3809 48.121ZM42.9572 49.7653L40.7238 48.477L43.5471 46.836L45.7813 48.1244L42.9572 49.7653Z" fill="white"/>
<path d="M45.4456 44.2255C45.4464 44.534 45.6117 44.8205 45.8795 44.9747L49.8462 47.2649C50.1116 47.4195 50.4429 47.4223 50.7167 47.2649L55.2699 44.6188C55.5369 44.4628 55.7022 44.1763 55.7013 43.8661C55.7005 43.5576 55.5352 43.2711 55.2673 43.1168L51.3007 40.8267C51.0311 40.6707 50.6997 40.6707 50.4302 40.8267L45.877 43.4728C45.61 43.6288 45.4447 43.9153 45.4456 44.2255ZM50.8684 42.5812L53.1018 43.8695L50.2785 45.5104L48.0451 44.2221L50.8684 42.5812Z" fill="white"/>
<path d="M41.1272 43.9339C41.1272 43.6254 40.9611 43.3389 40.6932 43.1846L36.7257 40.8928C36.4562 40.7368 36.1231 40.7368 35.8552 40.8928L31.302 43.5389C31.035 43.6949 30.8706 43.9814 30.8706 44.2916C30.8706 44.6001 31.0367 44.8866 31.3046 45.0409L35.2721 47.3327C35.5443 47.4912 35.8774 47.4861 36.1426 47.3327L40.6958 44.6866C40.9628 44.5306 41.1272 44.2441 41.1272 43.9339ZM35.7044 45.5782L33.4701 44.2882L36.2934 42.6473L38.5277 43.9373L35.7044 45.5782Z" fill="white"/>
<path d="M38.1919 40.0384C38.1927 40.3469 38.358 40.6334 38.6259 40.7877L42.5925 43.0779C42.858 43.2324 43.1893 43.2353 43.463 43.0779L48.0162 40.4317C48.2832 40.2757 48.4485 39.9893 48.4476 39.679C48.4468 39.3705 48.2815 39.084 48.0137 38.9298L44.047 36.6396C43.7775 36.4837 43.4461 36.4837 43.1765 36.6396L38.6233 39.2858C38.3563 39.4417 38.1911 39.7282 38.1919 40.0384ZM43.6147 38.3941L45.8481 39.6824L43.0248 41.3234L40.7914 40.035L43.6147 38.3941Z" fill="white"/>
<path d="M52.6992 48.4142C52.7001 48.7228 52.8653 49.0092 53.1332 49.1635L57.0999 51.4537C57.3653 51.6082 57.6966 51.6111 57.9703 51.4537L62.5236 48.8075C62.7905 48.6516 62.9558 48.3651 62.955 48.0549C62.9541 47.7463 62.7888 47.4599 62.521 47.3056L58.5543 45.0154C58.2848 44.8595 57.9534 44.8595 57.6839 45.0154L53.1306 47.6616C52.8637 47.8175 52.6984 48.104 52.6992 48.4142ZM58.1221 46.7699L60.3554 48.0582L57.5321 49.6992L55.2988 48.4108L58.1221 46.7699Z" fill="white"/>
<path d="M33.8863 39.7519C33.8854 39.4434 33.7201 39.1569 33.4523 39.0027L29.4729 36.7057C29.2017 36.5481 28.8711 36.5498 28.6033 36.7057L24.0492 39.3519C23.7814 39.5078 23.6161 39.7943 23.6169 40.1045C23.6178 40.4131 23.7831 40.6995 24.0509 40.8538L28.0312 43.1507C28.308 43.311 28.6395 43.3024 28.9016 43.1507L33.4548 40.5046C33.7218 40.3486 33.8871 40.0622 33.8863 39.7519ZM28.4634 41.3963L26.2165 40.0995L29.0406 38.4602L31.2867 39.757L28.4634 41.3963Z" fill="white"/>
</svg>
