<svg width="93" height="92" viewBox="0 0 93 92" fill="none" xmlns="http://www.w3.org/2000/svg">
<path d="M18.1086 56.8675L15.6167 55.4283C15.2023 55.1842 14.6708 55.33 14.431 55.7453C14.1911 56.1606 14.3335 56.6912 14.7488 56.9302L17.2407 58.3694C17.6519 58.6095 18.1852 58.469 18.4265 58.0524C18.6663 57.6371 18.5239 57.1065 18.1086 56.8675Z" fill="white"/>
<path d="M88.1046 41.0828C88.0472 40.8603 87.931 40.6567 87.7264 40.5397L48.2341 17.7397C47.9646 17.5821 47.6332 17.5821 47.3637 17.7397L5.29306 42.1891C5.05371 42.3288 4.86218 42.7647 4.86164 42.9383L4.8396 50.7073C4.83876 51.0175 5.00403 51.3057 5.27357 51.4599L11.6703 55.1537C12.0822 55.3944 12.6153 55.2503 12.856 54.8367C13.0959 54.4214 12.9535 53.8908 12.5382 53.6518L6.57715 50.2089L6.59325 44.4402L44.3514 66.2401L44.3353 72.0104L21.1903 58.6474C20.775 58.4033 20.2444 58.5491 20.0045 58.9644C19.7647 59.3797 19.9071 59.9103 20.3224 60.1493L44.765 74.2616C45.0337 74.4181 45.3633 74.4164 45.6321 74.2633C95.3057 45.3962 76.0415 56.5913 87.7069 49.8122C87.973 49.6563 88.1375 49.3715 88.1383 49.063C88.1483 45.4866 88.1598 41.1107 88.1604 41.2889C88.1601 41.2154 88.1226 41.1523 88.1046 41.0828ZM47.8019 19.4942L85.5608 41.2923L82.2925 43.1917L79.4582 41.5551C79.0438 41.311 78.5123 41.4568 78.2725 41.8721C78.0326 42.2874 78.175 42.818 78.5903 43.057L80.5636 44.1964L79.0928 45.0511L76.2586 43.4147C75.8441 43.1723 75.3127 43.3147 75.0728 43.7317C74.833 44.147 74.9754 44.6776 75.3907 44.9166L77.3638 46.0558L75.8927 46.9108L73.0581 45.2743C72.642 45.0319 72.1114 45.1759 71.8724 45.5913C71.6325 46.0066 71.7749 46.5372 72.1902 46.7762L74.1637 47.9157L72.6926 48.7705L69.8585 47.1356C69.4398 46.8915 68.9118 47.0372 68.6727 47.4526C68.4329 47.8679 68.5753 48.3985 68.9906 48.6375L70.9633 49.7755L69.4912 50.631L66.658 48.9952C66.2427 48.7511 65.7121 48.8968 65.4723 49.3122C65.2324 49.7275 65.3748 50.2581 65.7901 50.4971L67.7622 51.6358L66.291 52.4908L63.4576 50.8548C63.0431 50.6106 62.5117 50.7564 62.2718 51.1717C62.0319 51.5871 62.1743 52.1176 62.5896 52.3567L64.5621 53.4955L63.0912 54.3503L60.2579 52.7143C59.8435 52.4702 59.312 52.616 59.0722 53.0313C58.8323 53.4467 58.9747 53.9772 59.39 54.2163L61.3622 55.355L59.891 56.21L57.0575 54.5739C56.6413 54.3298 56.1124 54.4756 55.8717 54.8909C55.6318 55.3063 55.7742 55.8368 56.1895 56.0759L58.1621 57.2148L56.6912 58.0696L53.8578 56.4335C53.4417 56.1894 52.9111 56.3352 52.6721 56.7505C52.4322 57.1659 52.5746 57.6964 52.9899 57.9355L54.9623 59.0743L53.491 59.9293L50.6574 58.2931C50.2429 58.049 49.7106 58.1948 49.4716 58.6101C49.2317 59.0254 49.3741 59.556 49.7894 59.7951L51.7621 60.9341L50.2909 61.789L47.4577 60.1527C47.0433 59.9086 46.5118 60.0544 46.272 60.4697C46.0321 60.885 46.1745 61.4156 46.5898 61.6546L48.562 62.7937L45.2192 64.7365C39.8313 61.626 16.3344 48.0609 7.46128 42.9383L10.7861 41.0061L13.5926 42.6264C14.0038 42.8665 14.537 42.726 14.7784 42.3094C15.0182 41.8941 14.8758 41.3635 14.4605 41.1245L12.5151 40.0012L13.9863 39.1462L16.7931 40.7668C17.2042 41.0069 17.7375 40.8664 17.9788 40.4498C18.2187 40.0345 18.0763 39.5039 17.661 39.2649L15.7153 38.1414L17.186 37.2867L19.9927 38.9072C20.4039 39.1473 20.9371 39.0068 21.1785 38.5902C21.4183 38.1749 21.2759 37.6443 20.8606 37.4053L18.915 36.2819L20.3862 35.427L23.1932 37.0476C23.6043 37.2877 24.1376 37.1472 24.3789 36.7306C24.6188 36.3153 24.4764 35.7847 24.0611 35.5457L22.1151 34.4221L23.5863 33.5671L26.3928 35.188C26.804 35.4281 27.3372 35.2876 27.5785 34.871C27.8184 34.4557 27.676 33.9251 27.2607 33.6861L25.3151 32.5624L26.7861 31.7075L29.5932 33.3284C30.0044 33.5685 30.5377 33.428 30.779 33.0114C31.0189 32.5961 30.8765 32.0655 30.4612 31.8265L28.515 30.7028L29.9862 29.8478L32.7937 31.4688C33.2049 31.7089 33.7382 31.5684 33.9795 31.1518C34.2194 30.7365 34.077 30.2059 33.6616 29.9669L31.7152 28.843L33.1859 27.9882L35.9933 29.6092C36.4045 29.8493 36.9378 29.7088 37.1791 29.2923C37.419 28.8769 37.2766 28.3464 36.8613 28.1073L34.9149 26.9835L36.3861 26.1285L39.1938 27.7497C39.605 27.9897 40.1383 27.8492 40.3796 27.4327C40.6194 27.0173 40.4771 26.4868 40.0617 26.2477L38.1151 25.1237L39.5858 24.269L42.3934 25.8901C42.8046 26.1301 43.3379 25.9896 43.5792 25.5731C43.8191 25.1577 43.6767 24.6272 43.2614 24.3881L41.3148 23.2641L42.786 22.4091L45.5939 24.0305C46.0051 24.2705 46.5384 24.13 46.7797 23.7135C47.0195 23.2982 46.8772 22.7676 46.4618 22.5285L44.5149 21.4044L47.8019 19.4942ZM46.0711 72.0002L46.0875 66.241L86.4203 42.8021L86.4042 48.5612L46.0711 72.0002Z" fill="white"/>
<path d="M45.6989 30.2568L26.8978 41.1821C26.63 41.3381 26.4647 41.6246 26.4656 41.9348C26.4664 42.2433 26.6317 42.5298 26.8995 42.6841L28.8394 43.8041L27.4022 44.6386C26.9877 44.8793 26.8461 45.4116 27.0869 45.8252C27.328 46.2415 27.8615 46.3796 28.2735 46.1405L30.5733 44.8052L32.9145 46.157L31.4773 46.9915C31.0629 47.2322 30.9213 47.7645 31.162 48.1781C31.4032 48.5944 31.9367 48.7325 32.3486 48.4934L34.6484 47.1582L36.9884 48.5094L35.5517 49.3444C35.1372 49.5851 34.9965 50.1174 35.2381 50.531C35.4804 50.9494 36.0143 51.0844 36.4247 50.8463L38.7227 49.5107L41.0635 50.8623L39.6268 51.6973C39.2124 51.938 39.0717 52.4702 39.3132 52.8839C39.5556 53.3023 40.0895 53.4373 40.4998 53.1992L42.7978 51.8636L46.4524 53.9739C46.7178 54.1284 47.0492 54.1313 47.3229 53.9739L66.1248 43.0468C66.3918 42.8909 66.5571 42.6044 66.5562 42.2942C66.5554 41.9857 66.3901 41.6992 66.1223 41.5449L63.3646 39.9529L64.8399 39.0954C65.2543 38.8547 65.395 38.3224 65.1535 37.9088C64.9128 37.4918 64.3796 37.3511 63.9669 37.5935L61.6301 38.9516L59.2891 37.6002L60.7647 36.7425C61.1792 36.5018 61.3199 35.9695 61.0783 35.5559C60.8367 35.1389 60.3053 34.9982 59.8917 35.2406L57.5546 36.5989L55.2136 35.2475L56.6895 34.3896C57.104 34.1489 57.2447 33.6166 57.0031 33.203C56.7607 32.786 56.2293 32.6453 55.8165 32.8877L53.4791 34.2462L51.1381 32.8947L52.6143 32.0367C53.0288 31.796 53.1695 31.2637 52.928 30.8501C52.6864 30.4331 52.1533 30.2924 51.7413 30.5348L49.4037 31.8935L46.5685 30.2568C46.299 30.0992 45.9668 30.0992 45.6989 30.2568ZM46.8847 52.2194C46.4536 51.9705 28.0015 41.3174 29.0651 41.9314L46.1363 32.0113L63.9567 42.2976L46.8847 52.2194Z" fill="white"/>
</svg>
