<svg width="93" height="92" viewBox="0 0 93 92" fill="none" xmlns="http://www.w3.org/2000/svg">
<path d="M38.1736 16.0785L41.2919 14.2782C41.7072 14.0383 41.8496 13.5077 41.6097 13.0924C41.369 12.6763 40.8359 12.5339 40.424 12.7746L37.3057 14.5749C36.8904 14.8147 36.748 15.3453 36.9879 15.7606C37.2283 16.177 37.7605 16.3171 38.1736 16.0785Z" fill="white"/>
<path d="M70.2208 63.7304L70.0801 14.0087C70.0761 12.525 69.5399 11.394 68.5926 10.771C68.3703 10.5817 62.8143 7.24158 58.2741 4.47507C57.224 3.886 55.8933 3.99194 54.5261 4.76918L43.9618 10.7319C43.544 10.9675 43.3965 11.4973 43.6321 11.9143C43.8669 12.3313 44.3958 12.4805 44.8145 12.244L55.3813 6.27957C56.2035 5.8117 56.929 5.70999 57.3994 5.97359L65.1946 10.7065C65.0203 10.7882 64.8864 10.8536 64.7124 10.954C61.9683 12.5376 74.6504 5.21864 37.8872 26.4351C37.7134 26.3297 28.8091 20.9305 29.3723 21.272L34.9368 17.9474C35.3487 17.7016 35.4826 17.1685 35.2368 16.7574C34.9902 16.3455 34.4562 16.2124 34.0468 16.4573C33.3498 16.8741 36.5719 14.9478 27.23 20.5333C24.7334 21.9913 22.7885 25.3581 22.7853 28.2289C22.7851 28.2373 22.7791 28.2439 22.7791 28.2523L22.9181 77.9757C22.9367 79.5429 23.5122 80.7312 24.5217 81.311L34.6266 87.4466C34.6603 87.468 34.6948 87.4886 34.7293 87.5083L34.7359 87.5136C35.9152 88.1932 37.3005 87.9045 38.4814 87.2237L65.7481 71.4816C68.2646 70.028 70.2293 66.6232 70.2208 63.7304ZM27.6996 22.2943C27.8734 22.3996 36.8852 27.8596 36.3107 27.5115C36.2457 27.5679 36.1915 27.6425 36.1277 27.7013C34.553 29.1535 33.4845 31.1848 33.1221 32.9827L24.5412 27.7768C24.7257 25.7887 26.0627 23.4711 27.6996 22.2943ZM25.404 79.8167C24.9311 79.5446 24.6649 78.8835 24.6539 77.963L24.5191 29.7949L32.9729 34.927L33.1102 84.1538C33.1102 84.2716 33.1136 84.3877 33.1204 84.5013L25.404 79.8167ZM37.6134 85.7201C36.8177 86.1801 36.0875 86.2869 35.6058 86.0104L35.5983 86.0057C35.0248 85.6722 34.8514 84.8182 34.8495 84.1521L34.7079 34.4312C34.702 32.1851 36.3531 29.3313 38.3135 28.1998C41.1032 26.5899 28.2097 34.0306 65.5862 12.461C67.193 11.5163 68.3388 12.0813 68.3442 14.0138L68.4849 63.7355C68.4917 65.9875 66.8406 68.8456 64.8802 69.9779L37.6134 85.7201Z" fill="white"/>
<path d="M66.2719 20.0392C66.2711 19.7299 66.1049 19.4442 65.8371 19.2891C65.5684 19.1349 65.237 19.1357 64.97 19.29L37.2448 35.2974C36.9752 35.4534 36.8099 35.7407 36.8108 36.0518L36.9218 74.9668C36.9231 75.439 37.3054 75.8322 37.7898 75.8322C37.9398 75.8322 38.0898 75.7932 38.2237 75.7161L65.9481 59.7095C66.2177 59.5535 66.3829 59.2662 66.3821 58.9551L66.2719 20.0392ZM38.6534 73.4632L38.5483 36.5493L64.5403 21.5428L64.6446 58.4576L38.6534 73.4632Z" fill="white"/>
<path d="M48.2998 26.9826L55.6509 22.7379C56.0662 22.4981 56.2086 21.9675 55.9688 21.5522C55.7281 21.1352 55.1949 20.9928 54.783 21.2343L47.4319 25.479C47.0166 25.7189 46.8742 26.2495 47.1141 26.6648C47.3546 27.0812 47.8868 27.2212 48.2998 26.9826Z" fill="white"/>
<path d="M52.2199 68.7939C50.7239 69.6575 49.5551 71.6773 49.5593 73.3945C49.5665 75.467 51.2932 76.4564 53.1022 75.4109C54.5889 74.5532 55.7501 72.5368 55.7458 70.8196C55.7405 68.7467 54.0249 67.7576 52.2199 68.7939ZM52.2343 73.9073C51.6001 74.2743 51.2967 74.128 51.2952 73.3903C51.2926 72.2944 52.1301 70.8501 53.0878 70.2975C53.7678 69.9051 54.0086 70.151 54.01 70.8238C54.0125 71.9189 53.1828 73.3598 52.2343 73.9073Z" fill="white"/>
<path d="M28.0612 37.3621C27.5823 37.363 27.195 37.7529 27.1958 38.2326L27.2043 41.5424C27.2051 42.0204 27.5942 42.4078 28.0722 42.4078H28.0747C28.5536 42.4069 28.941 42.017 28.9401 41.5373L28.9317 38.2275C28.9308 37.7486 28.4723 37.4062 28.0612 37.3621Z" fill="white"/>
<path d="M28.0637 45.1853H28.0612C27.5823 45.1862 27.195 45.576 27.1958 46.0558L27.2043 49.3647C27.2051 49.8428 27.5942 50.2301 28.0722 50.2301C28.4757 50.2293 28.941 49.8402 28.9401 49.3596L28.9317 46.0507C28.9308 45.5726 28.5418 45.1853 28.0637 45.1853Z" fill="white"/>
<path d="M57.7401 13.1009C59.4609 12.1008 59.4585 10.1885 57.7248 9.18847C56.3085 8.37056 54.1006 8.3731 52.6944 9.18932C50.9738 10.1893 50.9762 12.1018 52.7097 13.1018C54.1486 13.9332 56.3142 13.9297 57.7401 13.1009ZM53.5666 10.6904C54.4376 10.1837 55.9761 10.1839 56.8569 10.6921C57.3893 10.9983 57.4603 11.2554 56.8679 11.5998C55.9814 12.116 54.4744 12.116 53.5776 11.5982C53.0327 11.2848 52.9849 11.0283 53.5666 10.6904Z" fill="white"/>
<path d="M58.2581 38.3063C57.7783 38.3072 57.3893 38.6971 57.3901 39.1759L57.419 52.1262C57.4198 52.605 57.808 52.9924 58.2869 52.9924C58.7666 52.9915 59.1557 52.6016 59.1548 52.1228L59.126 39.1725C59.1251 38.6937 58.7369 38.3063 58.2581 38.3063Z" fill="white"/>
<path d="M54.3525 44.5454L45.0994 42.4383C44.846 42.3781 44.5722 42.4417 44.3645 42.6061C44.1586 42.7714 44.0382 43.0223 44.0391 43.2867L44.0814 58.1491C44.0823 58.5254 44.3255 58.8577 44.6832 58.9729C45.05 59.0893 45.4367 58.9542 45.6529 58.6542L54.8635 45.899C55.2256 45.3982 54.9613 44.6835 54.3525 44.5454ZM45.8097 55.4724L45.7783 44.3725L52.6886 45.9464L45.8097 55.4724Z" fill="white"/>
</svg>
