<svg width="93" height="92" viewBox="0 0 93 92" fill="none" xmlns="http://www.w3.org/2000/svg">
<path d="M48.0425 12.2873L51.454 10.3175C51.8694 10.0776 52.0117 9.54702 51.7719 9.1317C51.5312 8.71469 50.9997 8.57399 50.5861 8.81386L47.1746 10.7836C46.7593 11.0235 46.6169 11.5541 46.8567 11.9694C47.0972 12.3858 47.6294 12.5259 48.0425 12.2873Z" fill="white"/>
<path d="M44.7836 14.1689C45.1989 13.929 45.3413 13.3984 45.1015 12.9831C44.8599 12.567 44.3285 12.4246 43.9157 12.6653C31.7759 19.6867 44.2369 12.4616 26.3385 22.8346C23.6983 24.4212 21.665 27.9913 21.6845 31.0383L21.8226 78.8123C21.8226 80.4642 22.4286 81.7297 23.5313 82.3755C23.9188 82.6008 32.0874 87.351 31.9021 87.2432L31.9046 87.2449L31.9111 87.2466L31.9173 87.2517C33.1664 87.9686 34.6262 87.6669 35.8789 86.944L66.5309 69.2473C69.2228 67.6929 71.324 64.0466 71.3155 60.9461L71.1799 13.1747C71.1758 11.5488 70.5811 10.3106 69.5172 9.66557C69.4995 9.65349 69.4891 9.63506 69.4703 9.62415L61.0928 4.76326C60.0037 4.11062 58.5492 4.21403 57.1049 5.04889L53.3095 7.24074C52.8942 7.48061 52.7518 8.0112 52.9916 8.42651C53.2315 8.84098 53.7621 8.98337 54.1774 8.74436L57.9729 6.55251C58.8552 6.04226 59.6672 5.93292 60.2105 6.2584L66.0503 9.64703C65.5706 9.8626 58.1762 14.1564 35.2788 27.372L28.6317 23.4964L44.7836 14.1689ZM26.9517 24.5271L33.6983 28.4607C31.9058 29.9888 30.6213 32.3259 30.2097 34.4838L23.4504 30.6553C23.5925 28.4268 25.0932 25.8078 26.9517 24.5271ZM24.4069 80.8762C23.8594 80.5558 23.5585 79.8226 23.5585 78.8098L23.425 32.6361L30.0642 36.3967L30.1521 67.3826L30.1933 83.691C30.1959 83.8859 30.2061 84.0758 30.2247 84.2597L24.4069 80.8762ZM65.663 67.7437L35.011 85.4404C34.1346 85.9464 33.3218 86.0549 32.7836 85.7472C32.2462 85.4379 31.9368 84.6852 31.9343 83.6825L31.8893 67.8168C31.8086 37.2776 31.9439 87.4329 31.8038 35.8507C31.8258 33.4154 33.5957 30.3542 35.7153 29.1304C68.5646 10.163 64.0006 12.7996 66.3992 11.419C68.1524 10.4243 69.4386 11.0537 69.4441 13.1798L69.5797 60.9512C69.5864 63.4033 67.793 66.5139 65.663 67.7437Z" fill="white"/>
<path d="M66.1343 15.3962C65.8639 15.2419 65.5342 15.2428 65.2672 15.397L35.1085 32.8098C34.839 32.9657 34.6737 33.2531 34.6746 33.5641L34.8085 74.4829C34.8093 74.7931 34.9755 75.0787 35.2433 75.233C35.5152 75.3886 35.845 75.385 36.1104 75.2321L66.2691 57.8202C66.5386 57.6643 66.7039 57.3769 66.703 57.0659L66.5691 16.1463C66.5683 15.8361 66.4021 15.5504 66.1343 15.3962ZM36.5392 72.9801L36.4121 34.0617L64.8383 17.6491L64.9655 56.5684L36.5392 72.9801Z" fill="white"/>
<path d="M50.2522 68.2506C48.8333 69.0702 47.7264 70.9857 47.7315 72.6105C47.7368 74.59 49.399 75.5463 51.1345 74.5464C52.5474 73.731 53.651 71.8189 53.6467 70.1924C53.6396 68.2007 51.9864 67.253 50.2522 68.2506ZM50.2666 73.0428C49.7235 73.3555 49.469 73.2707 49.4673 72.6055C49.4639 71.5968 50.2361 70.2653 51.1201 69.7542C51.6535 69.4481 51.9092 69.5142 51.9109 70.1975C51.9134 71.2061 51.1455 72.536 50.2666 73.0428Z" fill="white"/>
<path d="M42.0619 41.4619C43.6189 40.5626 44.8344 38.4521 44.8293 36.6569C44.824 34.5217 43.0586 33.4847 41.1787 34.5693C39.6217 35.4678 38.4063 37.5749 38.4114 39.365C38.4168 41.531 40.2039 42.5344 42.0619 41.4619ZM42.0467 36.073C42.7084 35.691 43.0915 35.8095 43.0934 36.662C43.0968 37.8317 42.2094 39.3717 41.194 39.9583C40.4907 40.3648 40.1491 40.1716 40.1472 39.3607C40.1439 38.1953 41.0313 36.6586 42.0467 36.073Z" fill="white"/>
<path d="M51.104 36.2408C52.661 35.3423 53.8764 33.2327 53.8713 31.4367C53.866 29.3057 52.0968 28.2676 50.2208 29.3482C48.6596 30.2501 47.4407 32.3589 47.4458 34.1489C47.4512 36.2982 49.2301 37.322 51.104 36.2408ZM51.0887 30.8518C51.7808 30.4551 52.1336 30.6303 52.1355 31.4418C52.1389 32.6114 51.2515 34.1515 50.2361 34.7372C49.5356 35.141 49.1835 34.9595 49.1817 34.1439C49.1783 32.9793 50.0691 31.4409 51.0887 30.8518Z" fill="white"/>
<path d="M60.1383 31.0248C61.6996 30.1229 62.9184 28.0107 62.9133 26.2156C62.908 24.0717 61.126 23.0523 59.2552 24.1322C57.6982 25.0323 56.4827 27.1386 56.4878 28.9287C56.4931 31.0709 58.2663 32.1059 60.1383 31.0248ZM60.1231 25.6358C60.7877 25.251 61.1755 25.3706 61.1775 26.2207C61.1809 27.3903 60.2901 28.9329 59.2704 29.5211C58.5693 29.9256 58.2255 29.7304 58.2237 28.9236C58.2203 27.759 59.1077 26.2232 60.1231 25.6358Z" fill="white"/>
<path d="M42.0883 50.8031C43.6453 49.9047 44.8607 47.7942 44.8557 45.999C44.8503 43.8532 43.0721 42.8305 41.2051 43.9106C39.6481 44.8098 38.4327 46.9169 38.4378 48.707C38.4431 50.8601 40.2172 51.8832 42.0883 50.8031ZM42.073 45.4142C42.7583 45.0153 43.1179 45.1813 43.1198 46.0041C43.1232 47.1737 42.2358 48.7138 41.2204 49.2995C40.518 49.7083 40.1754 49.5122 40.1736 48.7019C40.1702 47.5374 41.0576 46.0007 42.073 45.4142Z" fill="white"/>
<path d="M51.1303 45.5828C52.6874 44.6844 53.9028 42.5748 53.8977 40.7796C53.8924 38.6373 52.115 37.6146 50.2472 38.6903C48.6859 39.5921 47.4671 41.7009 47.4722 43.491C47.4775 45.6316 49.2491 46.6683 51.1303 45.5828ZM51.1151 40.1939C51.773 39.8148 52.1599 39.9333 52.1619 40.7838C52.1652 41.9535 51.2778 43.4935 50.2624 44.0792C49.5605 44.4839 49.2099 44.3 49.208 43.4859C49.2046 42.3213 50.0955 40.783 51.1151 40.1939Z" fill="white"/>
<path d="M60.1656 40.3668C61.726 39.465 62.9448 37.3528 62.9397 35.5585C62.9343 33.4131 61.1546 32.3961 59.2824 33.4743C57.7254 34.3736 56.5091 36.4806 56.5142 38.2707C56.5195 40.4231 58.3034 41.4423 60.1656 40.3668ZM60.1503 34.9779C60.8344 34.5819 61.202 34.7341 61.2038 35.5627C61.2072 36.7324 60.3164 38.275 59.2976 38.8632C58.6048 39.265 58.2519 39.0807 58.25 38.2657C58.2466 37.1002 59.1349 35.5644 60.1503 34.9779Z" fill="white"/>
<path d="M41.2315 53.2526C39.6745 54.1519 38.459 56.259 38.4641 58.0491C38.4695 60.198 40.2406 61.227 42.1147 60.1452C43.6717 59.2467 44.888 57.1371 44.8829 55.3411C44.8776 53.2095 43.1171 52.1695 41.2315 53.2526ZM41.2467 58.6415C40.4996 59.0745 40.2017 58.8087 40.2 58.044C40.1966 56.8794 41.084 55.3428 42.0994 54.7562C42.7883 54.3588 43.1452 54.5248 43.147 55.3461C43.1504 56.5158 42.2621 58.0559 41.2467 58.6415Z" fill="white"/>
<path d="M50.2734 48.0323C48.713 48.9342 47.4942 51.043 47.4993 52.8331C47.5046 54.981 49.2836 56.0074 51.1566 54.9249C52.7136 54.0256 53.9299 51.9151 53.9248 50.1199C53.9195 47.9815 52.1423 46.9537 50.2734 48.0323ZM50.2887 53.4213C49.584 53.8265 49.237 53.6387 49.2351 52.828C49.2317 51.6625 50.1226 50.1242 51.1413 49.536C51.8025 49.1562 52.187 49.2776 52.189 50.125C52.1923 51.2947 51.3041 52.8348 50.2887 53.4213Z" fill="white"/>
<path d="M59.3086 42.8163C57.7516 43.7148 56.5362 45.821 56.5413 47.6128C56.5466 49.7527 58.3176 50.788 60.1918 49.7089C61.7531 48.807 62.9719 46.6949 62.9668 44.8997C62.9614 42.7564 61.1817 41.7368 59.3086 42.8163ZM59.3239 48.2053C58.6245 48.609 58.2789 48.4154 58.2771 47.6077C58.2737 46.4414 59.1612 44.9056 60.1766 44.3199C60.8402 43.9359 61.229 44.0536 61.2309 44.9048C61.2343 46.0744 60.3427 47.617 59.3239 48.2053Z" fill="white"/>
</svg>
