<svg width="93" height="92" viewBox="0 0 93 92" fill="none" xmlns="http://www.w3.org/2000/svg">
<path d="M6.21946 62.2363L33.0243 77.7064C33.7862 78.1463 34.761 78.3658 35.7331 78.3658C36.7062 78.3658 37.6775 78.1454 38.431 77.7047L86.7635 49.626C87.6332 49.0996 88.112 48.369 88.112 47.5714L88.1604 31.8471C88.1604 31.8462 88.1604 31.8479 88.1604 31.8471V31.8437C88.1604 31.8428 88.1604 31.842 88.1604 31.8411C88.1604 31.8401 88.1597 31.8392 88.1597 31.8382C88.1597 31.8369 88.1604 31.8356 88.1604 31.8344C88.1595 31.0241 87.6552 30.268 86.7779 29.7612L59.9808 14.2903C58.4628 13.413 56.087 13.4155 54.5707 14.2979L36.5909 24.7469C36.1773 24.9876 36.0357 25.519 36.2773 25.9335C36.5188 26.3471 37.0477 26.487 37.4639 26.2471L55.4437 15.7981C56.4184 15.2311 58.1347 15.2277 59.1129 15.7939L85.91 31.2648C86.2897 31.4835 86.4245 31.7098 86.4245 31.8369C86.4245 31.9174 86.3749 32.0119 86.2901 32.1081C86.2745 32.1266 86.2375 32.1475 86.2187 32.1667C86.1364 32.2462 86.046 32.3267 85.9219 32.3989L37.6088 60.475C36.6392 61.0378 34.9245 61.037 33.9397 60.4674C31.1965 58.8834 43.8705 66.2019 7.12892 44.9857C6.9522 44.8814 6.82644 44.7758 6.74857 44.6811C6.73246 44.661 6.73511 44.6476 6.72293 44.6285C6.67578 44.5573 6.63775 44.4883 6.63605 44.4395C6.63594 44.4354 6.63393 44.432 6.63372 44.4279C6.63457 44.3045 6.76446 44.0872 7.13062 43.8743L26.3267 32.7184C26.7403 32.4777 26.8818 31.9462 26.6403 31.5318C26.3987 31.1165 25.8673 30.9775 25.4537 31.2182L6.25761 42.3741C5.39138 42.8775 4.89469 43.6285 4.89639 44.4337C4.89639 44.4501 4.90349 44.4654 4.90391 44.4817L4.8396 60.1538C4.8396 60.9607 5.33967 61.7176 6.21946 62.2363ZM86.3762 47.5689C86.3762 47.696 86.2423 47.913 85.8787 48.1334L37.558 76.2053C36.5892 76.7715 34.8762 76.7706 33.8922 76.2028L7.09417 60.7369C6.71106 60.5115 6.57545 60.2818 6.57545 60.1572L6.63054 46.7056C42.8899 67.6503 30.3549 60.4096 33.0726 61.9795C34.5974 62.8593 36.974 62.8593 38.4785 61.9778L86.4177 34.1279L86.3762 47.5689Z" fill="white"/>
<path d="M33.3626 26.6234L29.2077 29.0373C28.7941 29.2781 28.6525 29.8095 28.8941 30.2231C29.1364 30.6414 29.67 30.7769 30.0799 30.5376L34.2339 28.1237C34.6483 27.8829 34.7899 27.3515 34.5483 26.9379C34.3076 26.5217 33.7719 26.3819 33.3626 26.6234Z" fill="white"/>
<path d="M20.5945 44.8015C20.1792 44.5617 19.6478 44.7041 19.4087 45.1194C19.1689 45.5347 19.3113 46.0653 19.7266 46.3051L33.3642 54.1783C33.7749 54.4156 34.3074 54.2792 34.55 53.8605C34.7898 53.4452 34.6474 52.9146 34.2321 52.6747L20.5945 44.8015Z" fill="white"/>
<path d="M40.1203 50.6236C40.3601 50.2083 40.2177 49.6777 39.8024 49.4378L26.1648 41.5638C25.7504 41.3239 25.2189 41.4646 24.9791 41.8816C24.7392 42.2969 24.8816 42.8275 25.2969 43.0674L38.9345 50.9414C39.3484 51.1805 39.8802 51.0393 40.1203 50.6236Z" fill="white"/>
<path d="M45.6897 47.3858C45.9296 46.9705 45.7872 46.4399 45.3719 46.2L31.7351 38.3268C31.319 38.0853 30.7884 38.2302 30.5494 38.6447C30.3095 39.06 30.4519 39.5906 30.8672 39.8305L44.504 47.7036C44.9147 47.9409 45.4472 47.8045 45.6897 47.3858Z" fill="white"/>
<path d="M49.8733 21.7117C49.6335 22.127 49.7759 22.6576 50.1912 22.8975L55.0055 25.6767C55.1419 25.7555 55.2911 25.7928 55.4386 25.7928C55.7386 25.7928 56.0302 25.6368 56.1912 25.3588C56.4311 24.9435 56.2887 24.4129 55.8734 24.1731L51.0591 21.3938C50.6446 21.154 50.1132 21.2972 49.8733 21.7117Z" fill="white"/>
<path d="M60.5758 22.4397C60.7122 22.5186 60.8614 22.5559 61.0089 22.5559C61.3089 22.5559 61.6005 22.4008 61.7615 22.1219C62.0014 21.7066 61.859 21.176 61.4437 20.9361L56.6294 18.1561C56.2133 17.9162 55.6835 18.0569 55.4437 18.4739C55.2038 18.8892 55.3462 19.4198 55.7615 19.6597L60.5758 22.4397Z" fill="white"/>
<path d="M25.3198 61.8981L25.324 60.5488C25.3249 60.2377 25.1596 59.9504 24.8901 59.7944L21.7218 57.9653C21.454 57.8102 21.1226 57.8111 20.8547 57.9645C20.5869 58.1196 20.4208 58.4052 20.4199 58.7146L20.4191 59.068L19.4571 58.5129C19.1892 58.3578 18.8578 58.3569 18.59 58.512C18.3221 58.6671 18.156 58.9528 18.1552 59.2621L18.1416 63.923C18.1408 64.2341 18.306 64.5214 18.5756 64.6773L26.2631 69.1161C26.5346 69.2725 26.8661 69.2691 27.1302 69.117C27.3981 68.9619 27.5642 68.6762 27.565 68.3669L27.5786 63.7052C27.5794 63.3941 27.4142 63.1059 27.1446 62.9508L25.3198 61.8981ZM25.8334 66.8633L19.8791 63.4255L19.8868 60.7657L20.8488 61.3209C21.1149 61.4743 21.4463 61.4743 21.7159 61.3209C21.9837 61.1667 22.1498 60.881 22.1507 60.5716L22.1515 60.2182L23.5865 61.0463L23.5822 62.3956C23.5814 62.7067 23.7467 62.994 24.0162 63.15L25.841 64.2027L25.8334 66.8633Z" fill="white"/>
<path d="M14.9165 58.1365L11.0015 55.704C10.5955 55.4505 10.0598 55.5751 9.80641 55.9837C9.55383 56.3905 9.67843 56.9253 10.0861 57.1788L14.0011 59.6113C14.407 59.8626 14.9426 59.7408 15.1962 59.3316C15.4488 58.9248 15.3242 58.39 14.9165 58.1365Z" fill="white"/>
<path d="M43.3147 68.8305C43.4648 68.8305 43.6148 68.7915 43.7487 68.7144L49.9055 65.1596C50.1751 65.0036 50.3403 64.7163 50.3395 64.4053L50.3285 60.603C50.3276 60.2936 50.1615 60.008 49.8937 59.8529C49.625 59.6978 49.2936 59.7003 49.0266 59.8537L42.8698 63.4085C42.6002 63.5644 42.4349 63.8518 42.4358 64.1628L42.4468 67.9651C42.4481 68.4373 42.8304 68.8305 43.3147 68.8305ZM48.5969 62.1066L48.602 63.9077L44.1784 66.4615L44.1733 64.6604L48.5969 62.1066Z" fill="white"/>
<path d="M54.418 62.4202C54.568 62.4202 54.7181 62.3812 54.852 62.3041L61.0088 58.7493C61.2783 58.5934 61.4436 58.3061 61.4428 57.995L61.4318 54.1927C61.4309 53.8834 61.2648 53.5977 60.9969 53.4426C60.7283 53.2884 60.3969 53.2892 60.1299 53.4435L53.973 56.9982C53.7035 57.1542 53.5382 57.4415 53.5391 57.7526L53.5501 61.5548C53.5514 62.0271 53.9337 62.4202 54.418 62.4202ZM59.7001 55.6964L59.7052 57.4975L55.2817 60.0512L55.2766 58.2501L59.7001 55.6964Z" fill="white"/>
<path d="M65.5215 56.0099C65.6715 56.0099 65.8216 55.971 65.9555 55.8938L72.1123 52.3391C72.3819 52.1831 72.5471 51.8958 72.5463 51.5847L72.5353 47.7825C72.5344 47.4731 72.3683 47.1875 72.1005 47.0324C71.8318 46.8773 71.5004 46.8798 71.2334 47.0332L65.0765 50.588C64.807 50.7439 64.6417 51.0313 64.6426 51.3423L64.6536 55.1446C64.6549 55.6168 65.0372 56.0099 65.5215 56.0099ZM70.8037 49.2861L70.8087 51.0872L66.3852 53.641L66.3801 51.8398L70.8037 49.2861Z" fill="white"/>
<path d="M76.6128 49.6065C76.7629 49.6065 76.9129 49.5675 77.0468 49.4904L83.2147 45.9288C83.4842 45.7729 83.6495 45.4855 83.6486 45.1745L83.6384 41.3722C83.6376 41.0628 83.4715 40.7772 83.2036 40.623C82.935 40.467 82.6035 40.4687 82.3366 40.623L76.1679 44.1845C75.8983 44.3405 75.733 44.6278 75.7339 44.9388L75.7449 48.7411C75.7462 49.2133 76.1285 49.6065 76.6128 49.6065ZM81.9068 42.8758L81.9111 44.6769L77.4765 47.2375L77.4714 45.4364L81.9068 42.8758Z" fill="white"/>
</svg>
