<svg width="93" height="92" viewBox="0 0 93 92" fill="none" xmlns="http://www.w3.org/2000/svg">
<path d="M13.273 60.5459C12.8594 60.3052 12.3271 60.4442 12.0864 60.8612C11.8449 61.2748 11.9856 61.8071 12.4 62.0478L14.3944 63.2073C14.8042 63.4451 15.3383 63.3109 15.581 62.892C15.8226 62.4784 15.6819 61.9461 15.2674 61.7054L13.273 60.5459Z" fill="white"/>
<path d="M33.8321 47.6424L66.7734 28.6243C67.0412 28.4692 67.2065 28.1835 67.2074 27.8733C67.2082 27.564 67.0429 27.2775 66.776 27.1224L47.6036 15.9801C47.3333 15.8233 47.0019 15.8233 46.7332 15.9784L13.7919 34.9973C13.524 35.1524 13.3588 35.438 13.3579 35.7482C13.3571 36.0576 13.5223 36.3441 13.7893 36.4992L32.9617 47.6424C33.2354 47.7997 33.5667 47.7969 33.8321 47.6424ZM47.1654 17.7329L64.6078 27.8699L33.3999 45.8879L15.9574 35.7516L47.1654 17.7329Z" fill="white"/>
<path d="M47.5348 20.9562C47.2941 20.5392 46.761 20.3968 46.3491 20.6383L22.7676 34.253C22.3523 34.4929 22.2099 35.0235 22.4498 35.4388C22.6902 35.8552 23.2225 35.9953 23.6355 35.7567L47.217 22.1419C47.6323 21.9021 47.7747 21.3715 47.5348 20.9562Z" fill="white"/>
<path d="M51.3515 23.1743C51.1108 22.7573 50.5776 22.6166 50.1657 22.8564L26.5843 36.4712C26.1689 36.711 26.0265 37.2416 26.2664 37.6569C26.5069 38.0734 27.0391 38.2134 27.4522 37.9748L51.0336 24.3601C51.4489 24.1202 51.5913 23.5896 51.3515 23.1743Z" fill="white"/>
<path d="M49.9192 27.7843L35.0933 36.3449C34.678 36.5848 34.5356 37.1153 34.7754 37.5307C35.0159 37.9471 35.5481 38.0871 35.9612 37.8485L50.7871 29.2879C51.2024 29.048 51.3448 28.5175 51.105 28.1021C50.8643 27.6851 50.3311 27.5444 49.9192 27.7843Z" fill="white"/>
<path d="M80.1973 70.3796C80.4615 70.5301 80.7895 70.537 81.0644 70.3779L87.7264 66.5316C87.9959 66.3773 88.1612 66.0891 88.1604 65.7789L88.1485 60.3866C88.1476 60.0867 87.8729 59.7283 87.7171 59.6373L73.3075 51.2631L75.3415 50.0868C75.6102 49.9308 75.7755 49.6443 75.7746 49.3341C75.7742 49.153 75.7259 27.7097 75.7255 27.8852C75.7265 27.5085 75.4693 27.2359 75.2941 27.1342C58.6493 17.4614 64.1413 20.653 47.6103 11.0463C47.3391 10.8903 47.0077 10.8903 46.7398 11.0446L5.27356 34.9854C4.96558 35.1637 4.84008 35.5616 4.8396 35.7363L4.84002 35.738C4.84002 35.9874 4.89067 57.0084 4.893 57.1878C4.89384 57.4963 5.05828 57.7811 5.32526 57.9371L10.1853 60.7612C10.5964 61.0002 11.1304 60.8612 11.3711 60.4459C11.6126 60.0323 11.4711 59.5 11.0566 59.2593L6.628 56.686L6.57884 37.2476C9.69639 39.0592 2.33151 34.7794 32.5186 52.3213L32.5655 71.7583L17.6856 63.1107C17.2711 62.87 16.7405 63.0107 16.4989 63.426C16.2574 63.8396 16.3989 64.3719 16.8134 64.6126C22.3646 67.8401 33.679 74.4104 33.0039 74.0259C33.1378 74.1022 33.287 74.1411 33.437 74.1411L33.4409 74.1401L33.4447 74.1411C33.5947 74.1411 33.7439 74.1022 33.8786 74.0242C35.5206 73.0741 42.1293 69.2648 41.9457 69.3714C67.3768 84.15 37.485 66.7789 61.8794 80.9557C62.1436 81.1062 62.4715 81.1131 62.7464 80.954L69.4084 77.1077C69.678 76.9534 69.8433 76.6652 69.8424 76.355L69.8305 70.9627C69.8297 70.6628 69.5549 70.3044 69.3991 70.2134L54.9828 61.8353L60.2651 58.7961C85.6944 73.5736 55.8048 56.2038 80.1973 70.3796ZM66.925 49.563C71.5721 52.2637 80.899 57.6842 85.549 60.3866L85.2803 60.5416L80.6204 63.231C75.743 60.3965 65.4595 54.4201 62.0014 52.4104C62.1773 52.3087 67.2477 49.3764 66.925 49.563ZM61.1437 57.298C61.1435 57.1232 61.141 53.7012 61.1411 53.9197L79.7515 64.7353L79.7591 68.1165L61.1437 57.298ZM81.4951 68.125L81.4875 64.7346L86.416 61.8902L86.4237 65.2805L81.4951 68.125ZM47.1721 12.7991L73.1212 27.879L33.3865 50.8171L7.43914 35.7397L47.1721 12.7991ZM48.6071 60.1459C48.8007 60.2583 46.3793 58.8519 67.231 70.9627C66.9626 71.1176 62.1019 73.9228 62.3024 73.8071C57.3157 70.909 47.1374 64.9938 43.6784 62.9836C45.1369 62.1438 48.8304 60.0173 48.6071 60.1459ZM42.8267 67.8747C42.8262 67.6999 42.8175 64.2743 42.8181 64.4929L61.4335 75.3114L61.4412 78.6927L42.8267 67.8747ZM63.1771 78.7011L63.1696 75.3107L68.0981 72.4663L68.1057 75.8567L63.1771 78.7011ZM53.2512 60.8289L49.0453 58.3846C48.7749 58.2286 48.4435 58.2286 48.1748 58.3846C47.9956 58.4879 41.0743 62.4784 41.5094 62.2275C41.2399 62.3835 41.0738 62.6717 41.0746 62.9836C41.0751 63.1584 41.0905 68.1804 41.0895 67.8612L34.3089 71.7688L34.2605 52.3241L73.9896 29.3877L74.0379 48.8357L71.5784 50.2582C71.3949 50.1515 67.0849 47.6462 67.3581 47.8051C67.0895 47.6457 66.7564 47.6474 66.486 47.8034C66.307 47.907 59.3961 51.9063 59.8308 51.6548C59.5445 51.8197 59.3974 52.1352 59.3968 52.404L59.3972 52.4057L59.3968 52.4074C59.3971 52.5822 59.4058 57.607 59.4053 57.2878L53.2512 60.8289Z" fill="white"/>
</svg>
