<svg width="93" height="92" viewBox="0 0 93 92" fill="none" xmlns="http://www.w3.org/2000/svg">
<path d="M69.1336 24.9121C69.2709 24.9918 69.4209 25.0291 69.5684 25.0291C69.8676 25.0291 70.1591 24.8748 70.3202 24.5968C70.5609 24.1815 70.4193 23.6509 70.0049 23.4102L68.1004 22.3049C67.6842 22.0625 67.1536 22.2049 66.9137 22.6202C66.673 23.0356 66.8146 23.5661 67.229 23.8069L69.1336 24.9121Z" fill="white"/>
<path d="M86.97 33.2693L72.5577 24.8935C72.1424 24.6528 71.6109 24.7935 71.3711 25.2088C71.1295 25.6224 71.2711 26.1547 71.6847 26.3954L84.8018 34.0185C81.3517 36.0102 62.0008 47.1813 55.9485 50.6752L32.905 37.2845L61.7472 20.6205L64.5523 22.2507C64.9668 22.4897 65.4982 22.3507 65.7389 21.9354C65.9805 21.5218 65.8389 20.9895 65.4253 20.7488L37.3907 4.45657C37.1203 4.30061 36.7889 4.30061 36.5202 4.45657L5.93347 22.1168C5.66462 22.2706 5.50001 22.6917 5.49951 22.8661C5.49951 22.8667 5.49994 22.8671 5.49994 22.8678C5.49994 23.1062 5.59815 57.738 5.59953 57.9831C5.60037 58.2916 5.7648 58.5764 6.03179 58.7324L55.6111 87.5434C55.6108 87.5432 55.6115 87.5436 55.6111 87.5434C55.6118 87.5437 55.613 87.5448 55.6137 87.5451C55.7476 87.6214 55.8976 87.6604 56.0468 87.6604C56.1968 87.6604 56.3468 87.6214 56.4808 87.5434L87.0666 69.8848C87.3362 69.7306 87.5014 69.4424 87.5006 69.1322L87.4014 34.0185C87.4008 33.8233 87.2252 33.4183 86.97 33.2693ZM55.0802 52.1794L55.1745 85.282L32.1733 71.9158L32.079 38.8133L55.0802 52.1794ZM36.9525 6.21106L60.0186 19.6159L31.1763 36.2799L8.09905 22.8694L36.9525 6.21106ZM7.2396 24.3792L30.3401 37.8029L30.4344 70.9053L7.33368 57.4813L7.2396 24.3792ZM56.9105 85.2922L56.8164 52.1789L85.6698 35.5205L85.763 68.6338L56.9105 85.2922Z" fill="white"/>
<path d="M75.4199 47.9664C73.979 47.9426 72.3796 48.4122 70.8353 49.314C65.5523 52.3535 61.4136 59.5054 61.4136 65.5961C61.4136 71.7639 66.0613 74.8071 71.76 71.5037C76.9642 68.4999 81.1817 61.187 81.1622 55.2013C81.1411 50.8753 78.889 48.0359 75.4199 47.9664ZM70.8912 70.0018C66.3758 72.6167 63.1494 70.4198 63.1494 65.5961C63.1494 60.1597 66.9856 53.5316 71.7066 50.8159C72.9551 50.0853 74.2027 49.7022 75.3165 49.7022C75.3411 49.7022 75.3648 49.7022 75.3894 49.7022C77.9007 49.7514 79.4094 51.811 79.4264 55.2081C79.4433 60.6394 75.6157 67.2743 70.8912 70.0018Z" fill="white"/>
<path d="M45.8614 32.8218C42.3887 38.9796 50.5981 43.7522 58.6116 43.7522C63.9195 43.7522 71.3784 41.5453 72.167 36.3359C72.5985 33.4837 70.6094 31.0836 68.0469 29.6095C61.1447 25.6104 48.9987 27.062 45.8614 32.8218ZM67.179 31.1131C69.0466 32.1883 70.7716 33.9559 70.4507 36.0765C69.6584 41.294 58.3649 43.9223 51.0478 40.467C48.0237 39.038 45.8019 36.4614 47.3795 33.6626C49.7814 29.2524 60.4604 27.2188 67.179 31.1131Z" fill="white"/>
<path d="M43.7771 27.3413C49.2584 24.1547 49.3023 18.691 43.7059 15.4599C38.5009 12.456 30.0649 12.4493 24.904 15.4463C19.38 18.6561 19.3842 24.142 24.9523 27.3549C30.1568 30.359 38.6002 30.3493 43.7771 27.3413ZM25.7753 16.9482C30.4777 14.2158 38.1327 14.2471 42.838 16.9618C47.2327 19.5 47.2653 23.307 42.9049 25.8394C38.2059 28.5703 30.5413 28.5771 25.8202 25.8529C21.4068 23.3024 21.4224 19.4756 25.7753 16.9482Z" fill="white"/>
<path d="M43.2551 73.1904C48.9039 76.4288 53.5803 73.5658 53.5803 67.2811C53.599 61.2972 49.3814 53.9927 44.1798 50.999C38.5663 47.7444 33.8825 50.6473 33.8511 56.8846C33.8308 62.8703 38.0484 70.1849 43.2551 73.1904ZM43.311 52.5026C48.0346 55.22 51.8631 61.8481 51.8445 67.2777V67.2811C51.8445 72.1911 48.6274 74.2689 44.1205 71.6868C39.3969 68.9593 35.5683 62.321 35.587 56.8931C35.6138 51.6436 39.1557 50.0921 43.311 52.5026Z" fill="white"/>
<path d="M19.1625 36.4613C13.6016 33.2331 8.86539 36.0543 8.83381 42.3469C8.81347 48.3309 13.031 55.6455 18.2377 58.6527C23.7949 61.8385 28.563 59.1417 28.563 52.7417C28.5816 46.756 24.3641 39.4533 19.1625 36.4613ZM26.8271 52.7417C26.8271 57.6421 23.6259 59.7343 19.1031 57.1491C14.3795 54.4199 10.551 47.7816 10.5697 42.3554C10.5968 37.0319 14.2011 35.5887 18.2945 37.9649C23.0181 40.6806 26.8458 47.3087 26.8271 52.7383V52.7417Z" fill="white"/>
<path d="M76.6133 55.364C75.9988 55.0098 75.2131 55.0555 74.457 55.4929C73.173 56.2337 72.2076 57.9085 72.2109 59.385C72.2163 61.2281 73.757 62.1007 75.3368 61.1852C76.6006 60.4563 77.5872 58.7408 77.5829 57.2796C77.5804 56.4151 77.2269 55.7166 76.6133 55.364ZM74.4689 59.6833C74.0468 59.9265 73.9482 59.8582 73.9468 59.3816C73.9451 58.5357 74.5884 57.422 75.325 56.9948C75.7332 56.7619 75.8457 56.8147 75.8471 57.2847C75.8496 58.1373 75.2055 59.2578 74.4689 59.6833Z" fill="white"/>
<path d="M67.239 59.6613C65.9541 60.4038 64.9887 62.0769 64.9929 63.5534C64.9983 65.394 66.5392 66.2674 68.1188 65.352C69.4029 64.6112 70.3683 62.933 70.3641 61.4497C70.3605 59.6388 68.8276 58.7434 67.239 59.6613ZM67.2509 63.8501C66.8306 64.0922 66.7302 64.0293 66.7288 63.5467C66.7262 62.7042 67.3704 61.5904 68.107 61.1633C68.5367 60.9169 68.6269 61.0059 68.6282 61.4531C68.6308 62.3058 67.9874 63.4246 67.2509 63.8501Z" fill="white"/>
<path d="M39.6665 62.8601C41.2464 63.7756 42.7871 62.902 42.7924 61.0615C42.7966 59.5833 41.8312 57.9102 40.5463 57.1677C38.957 56.2448 37.4257 57.1502 37.4204 58.9561C37.4162 60.4411 38.3816 62.1193 39.6665 62.8601ZM39.6784 58.6697C40.4149 59.0968 41.0591 60.2106 41.0566 61.0564C41.0552 61.5306 40.9603 61.6019 40.5344 61.3582C39.7979 60.9327 39.1537 59.8139 39.1563 58.9629C39.1576 58.4968 39.2598 58.4289 39.6784 58.6697Z" fill="white"/>
<path d="M46.8861 67.0302C48.4668 67.9416 50.0049 67.0688 50.0103 65.2282C50.0145 63.7501 49.0491 62.0769 47.7651 61.3361C46.1768 60.4159 44.6445 61.3139 44.6392 63.1228C44.6349 64.6061 45.6003 66.286 46.8861 67.0302ZM46.8971 62.8381C47.6337 63.2652 48.277 64.379 48.2745 65.2232C48.2731 65.6927 48.1771 65.7736 47.754 65.5266C47.0166 65.0994 46.3725 63.9789 46.375 63.1296C46.3763 62.6725 46.4703 62.5936 46.8971 62.8381Z" fill="white"/>
<path d="M15.529 42.63C13.9342 41.7095 12.4084 42.6111 12.4031 44.4184C12.3997 45.9016 13.3651 47.5798 14.65 48.324C16.2311 49.2357 17.7697 48.3628 17.7751 46.5221C17.7793 45.0456 16.8139 43.3724 15.529 42.63ZM15.518 46.8204C14.7814 46.3932 14.1372 45.2727 14.1389 44.4235C14.1402 43.9663 14.2342 43.8874 14.661 44.1319C15.3976 44.5591 16.0418 45.6728 16.0392 46.517C16.0379 46.9922 15.9391 47.0655 15.518 46.8204Z" fill="white"/>
<path d="M19.6218 48.5851C19.6176 50.0701 20.583 51.7483 21.8679 52.4891C23.4463 53.4037 24.9894 52.53 24.993 50.6905C24.9972 49.2123 24.0327 47.5392 22.7486 46.7984C21.1416 45.8688 19.6271 46.792 19.6218 48.5851ZM21.8806 48.302C22.6163 48.7258 23.2597 49.8395 23.2571 50.6854C23.2558 51.1581 23.1619 51.231 22.7359 50.9871C21.9993 50.5617 21.3551 49.4429 21.3577 48.5919C21.359 48.1278 21.4584 48.0595 21.879 48.3003L21.8806 48.302Z" fill="white"/>
<path d="M35.7592 25.441C37.109 26.2215 39.1311 26.2263 40.47 25.4495C42.1021 24.5001 42.105 22.6822 40.4404 21.7218C39.0995 20.9505 37.0805 20.9488 35.7448 21.7235C34.1142 22.6716 34.1195 24.496 35.7592 25.441ZM36.6169 23.2255C37.0161 22.9932 37.5535 22.8763 38.0917 22.8763C38.6308 22.8763 39.1707 22.9932 39.5724 23.2255L39.5741 23.2271C40.056 23.5029 40.0722 23.6719 39.5979 23.9476C38.813 24.407 37.4255 24.4019 36.6271 23.9391C36.165 23.6718 36.1424 23.5009 36.6169 23.2255Z" fill="white"/>
<path d="M28.2072 21.0759C29.557 21.8565 31.5791 21.8612 32.918 21.0844C34.5588 20.129 34.5445 18.3134 32.8892 17.3584C31.5466 16.5821 29.5268 16.5838 28.1928 17.3584C26.5622 18.3065 26.5675 20.1309 28.2072 21.0759ZM29.0649 18.8604C29.8663 18.3932 31.2247 18.4009 32.0213 18.8604C32.503 19.1386 32.5213 19.3062 32.0459 19.5825C31.2602 20.0419 29.8727 20.0368 29.0751 19.574C28.613 19.3067 28.5904 19.1358 29.0649 18.8604Z" fill="white"/>
<path d="M60.0991 39.5871C61.4454 40.3632 63.4703 40.3689 64.8091 39.5922C66.4499 38.6368 66.4356 36.8212 64.7803 35.8663C63.4378 35.0899 61.418 35.0916 60.0839 35.8663C58.4584 36.8113 58.4539 38.6338 60.0991 39.5871ZM60.956 37.3682C61.7574 36.901 63.1158 36.9087 63.9124 37.3682C64.3941 37.6464 64.4124 37.814 63.937 38.0903C63.1521 38.5446 61.7638 38.5412 60.967 38.0835C60.4983 37.8132 60.4845 37.6419 60.956 37.3682Z" fill="white"/>
<path d="M52.5464 35.2204C53.9011 36.0037 55.9213 36.0032 57.2572 35.2272C58.897 34.2723 58.8843 32.456 57.2293 31.5012C53.4897 29.3556 49.0248 33.1907 52.5464 35.2204ZM53.4041 33.0031C54.2012 32.5385 55.5586 32.541 56.3613 33.0031C56.8402 33.2797 56.8616 33.4476 56.3842 33.727C55.5985 34.1813 54.2119 34.1796 53.4143 33.7185C52.9198 33.4311 52.9587 33.261 53.4041 33.0031Z" fill="white"/>
</svg>
