<svg width="93" height="92" viewBox="0 0 93 92" fill="none" xmlns="http://www.w3.org/2000/svg">
<path d="M24.8528 50.8049C24.8519 51.116 25.0172 51.4033 25.2867 51.5593L42.4587 61.474L42.4685 68.3555C39.8743 69.9553 37.8737 73.4777 37.892 76.4697C37.892 76.5836 37.9168 76.6793 37.9225 76.7892L30.1485 81.2738C29.0178 81.9299 28.2584 83.2504 28.2584 84.5591C28.2584 86.8788 30.6579 88.4794 32.8743 87.2213L42.4331 81.7378C42.6068 81.8459 47.5662 84.9392 47.7409 85.0396C48.9796 85.7513 50.4262 85.453 51.6686 84.7354C54.3275 83.2012 56.4023 79.5999 56.393 76.5384C56.3905 75.5701 56.1579 74.7609 55.7634 74.112L64.1399 69.3051C65.2706 68.6491 66.03 67.3286 66.03 66.0199C66.03 64.885 65.4613 63.8721 64.5095 63.311C64.5044 63.3085 64.5002 63.3051 64.4951 63.3025C63.5441 62.7652 62.3897 62.7872 61.4183 63.3559L49.7877 69.9733L49.3428 69.6981L49.3346 65.3714C49.4021 65.3878 49.4653 65.4249 49.5344 65.4249C49.6836 65.4249 49.8336 65.3867 49.9675 65.3096C49.9685 65.3091 49.9688 65.3079 49.9697 65.3074C49.9694 65.3076 49.97 65.3072 49.9697 65.3074L67.615 55.053C67.8812 54.8988 68.0456 54.614 68.0464 54.3055L68.1473 18.957C68.1473 18.9564 68.1469 18.956 68.1469 18.9553C68.1469 18.9547 68.1473 18.9543 68.1473 18.9536C68.1468 18.777 68.019 18.3797 67.7133 18.2027L43.8988 4.45404C43.6293 4.29808 43.297 4.29808 43.0292 4.45573C42.8507 4.55947 25.205 14.8121 25.3876 14.7064C25.1287 14.8563 24.9538 15.1389 24.9528 15.4565L24.9291 23.7671C24.9274 24.2468 25.3156 24.6358 25.7945 24.6375C25.7953 24.6375 25.7961 24.6375 25.797 24.6375C26.275 24.6375 26.6632 24.2502 26.6649 23.7721L26.6844 16.9601C32.2868 20.1948 43.138 26.4601 48.7648 29.7088L48.6707 63.0543L43.7598 60.2165C43.7558 60.2142 43.7509 60.2153 43.7469 60.2131L26.5903 50.3074L26.6327 35.0797C26.6344 34.6 26.2462 34.211 25.7673 34.2093C25.7665 34.2093 25.7656 34.2093 25.7648 34.2093C25.2867 34.2093 24.8986 34.5966 24.8969 35.0747L24.8528 50.8049ZM47.5968 64.4406L47.6129 72.837C47.6116 72.8446 47.5881 72.8752 47.5733 72.898C47.5626 72.9142 47.5631 72.9209 47.5433 72.9428C47.4956 72.9956 47.4197 73.0621 47.301 73.132C46.5763 73.5524 45.2922 73.549 44.5523 73.1286C44.2997 72.9853 44.2184 72.8658 44.2107 72.8234V68.8669C44.2107 68.8588 44.2054 68.852 44.2052 68.8439L44.1963 62.4772L47.5968 64.4406ZM32.0132 85.7143C30.9864 86.2968 29.9942 85.5742 29.9942 84.5591C29.9942 83.87 30.4256 83.1199 31.0181 82.7766L38.3123 78.5683C38.5954 79.1765 39.0126 79.6506 39.5524 79.9499L39.5657 79.9582C39.5655 79.9581 39.5658 79.9583 39.5657 79.9582L39.5825 79.9686L40.7575 80.6978L32.0132 85.7143ZM40.3475 78.382C39.7831 77.9882 39.6278 77.1252 39.6278 76.4646C39.6151 74.4057 40.8366 71.9498 42.4715 70.4926L42.4749 72.8421C42.4749 73.254 42.6334 74.0355 43.6954 74.6381C44.3362 75.0026 45.1354 75.1848 45.9339 75.1848C46.7357 75.1848 47.5375 75 48.1749 74.6322C48.9207 74.1931 49.3488 73.5405 49.3488 72.8421V71.7465L51.3868 73.006C51.2125 73.0839 51.0361 73.178 50.8588 73.2783C48.0478 74.848 46.033 78.6125 46.033 81.5213C46.033 81.6671 46.0381 81.8078 46.0483 81.9392C45.8738 81.8316 40.5772 78.5473 40.3475 78.382ZM50.8007 83.2317C49.937 83.731 49.1369 83.8403 48.6071 83.5352C48.0128 83.1934 47.7765 82.2099 47.7748 81.5145C47.7682 79.1697 49.5078 76.0564 51.6457 74.8229C53.3086 73.8492 54.6516 74.3697 54.6572 76.5435C54.6648 78.9582 52.8984 82.0214 50.8007 83.2317ZM62.2854 64.8595C62.7245 64.6019 63.2279 64.5832 63.6348 64.8104C64.0475 65.057 64.2942 65.5088 64.2942 66.0199C64.2942 66.72 63.8729 67.4531 63.272 67.8015L54.456 72.8613L51.469 71.0134L62.2854 64.8595ZM50.4066 63.0466L50.501 29.7087L66.4072 20.4651L66.3123 53.8028L50.4066 63.0466ZM43.4665 6.20853L65.5478 18.957L49.6331 28.2054L27.5523 15.4565L43.4665 6.20853Z" fill="white"/>
<path d="M25.7733 32.2454H25.7759C26.2539 32.2454 26.6421 31.8581 26.6438 31.3801L26.6548 27.2862C26.6565 26.8065 26.2683 26.4175 25.7895 26.4158H25.7869C25.3089 26.4158 24.9207 26.8031 24.919 27.2812L24.908 31.375C24.9063 31.8547 25.2945 32.2437 25.7733 32.2454Z" fill="white"/>
<path d="M63.3585 25.0164L52.6204 31.2572C52.3543 31.4123 52.1899 31.697 52.189 32.0056L52.1509 49.2912C52.15 49.6014 52.3162 49.8896 52.5848 50.0447C52.8611 50.2028 53.1915 50.1968 53.4545 50.043L64.1925 43.8031C64.4595 43.648 64.6239 43.3632 64.6248 43.0547L64.6629 25.7682C64.6637 25.4571 64.4976 25.1698 64.2289 25.0147C63.9577 24.8587 63.6263 24.8587 63.3585 25.0164ZM53.9103 38.6945L62.9099 33.4641L62.9035 36.3656L53.9039 41.5953L53.9103 38.6945ZM62.9237 27.2769L62.9144 31.4539L53.9147 36.6843L53.924 32.5073L62.9237 27.2769ZM53.8901 47.7825L53.8994 43.6045L62.8991 38.3748L62.8898 42.5529L53.8901 47.7825Z" fill="white"/>
<path d="M57.9654 49.2759C56.377 50.1921 55.137 52.3416 55.1421 54.169C55.1475 56.3627 56.9506 57.3828 58.8486 56.2888C60.437 55.3709 61.677 53.2223 61.6719 51.3957C61.6665 49.2078 59.865 48.1755 57.9654 49.2759ZM57.9807 54.7852C57.6332 54.9852 57.3136 55.0479 57.1449 54.9539C56.9814 54.8598 56.8788 54.5572 56.878 54.1639C56.8746 52.9637 57.7883 51.3822 58.8333 50.7795C59.0749 50.6405 59.302 50.5659 59.4749 50.5659C59.5512 50.5659 59.6165 50.5803 59.6682 50.61C59.8318 50.7049 59.9352 51.0075 59.936 51.4008C59.9394 52.6213 59.0435 54.1707 57.9807 54.7852Z" fill="white"/>
</svg>
