<svg width="93" height="92" viewBox="0 0 93 92" fill="none" xmlns="http://www.w3.org/2000/svg">
<path d="M9.67086 66.4214C10.054 66.1316 10.1286 65.5874 9.83868 65.206C7.66548 62.3395 6.56702 59.3034 6.57549 56.1826L6.59583 50.3445C6.61353 50.3798 6.63662 50.4139 6.65463 50.4492C8.92028 54.8855 13.0766 58.3678 17.3381 60.8274C25.441 65.506 36.0595 67.8454 46.6645 67.8454C51.4095 67.8454 56.1388 67.3503 60.6514 66.4137C61.1789 66.3042 61.7163 66.2149 62.2372 66.0927C62.3231 66.0726 62.4047 66.045 62.4904 66.0246C71.6181 63.8402 82.1238 58.9366 86.3887 50.6047C86.3923 50.5976 86.3972 50.5906 86.4008 50.5835L86.3805 56.4098C86.3635 62.3497 82.3138 67.9691 74.9754 72.2325C59.3646 81.3033 33.8812 81.2982 18.1619 72.2257C17.7483 71.985 17.216 72.1274 16.977 72.5427C16.7363 72.958 16.8787 73.4886 17.294 73.7276C25.3952 78.4046 36.0137 80.7439 46.6187 80.7439C57.2186 80.7439 67.8049 78.4063 75.8467 73.7344C83.7411 69.1473 88.0977 62.9972 88.1163 56.4149C88.1204 55.2168 88.1631 42.724 88.1604 43.5215V43.5147C88.1604 43.5111 88.1584 43.5081 88.1584 43.5045C88.1584 43.4874 88.1604 43.4707 88.1604 43.4536C88.1519 36.795 83.7174 30.5721 75.6738 25.929C59.4986 16.5887 33.2557 16.5921 17.1754 25.9375C9.2708 30.5313 4.91381 36.6808 4.88689 43.2617C4.88679 43.2672 4.88372 43.2718 4.88372 43.2773L4.83964 56.1776C4.83117 59.6374 6.0805 63.1226 8.45543 66.2536C8.747 66.6367 9.29284 66.7079 9.67086 66.4214ZM18.0467 27.4394C25.8512 22.9049 36.1188 20.6384 46.4 20.6384C56.6744 20.6384 66.9607 22.9032 74.8059 27.4309C82.29 31.7536 86.4161 37.4443 86.4246 43.4553C86.4336 50.3016 81.0136 55.8509 75.0195 59.334C59.4121 68.4082 33.9253 68.3963 18.206 59.3255C13.8476 56.8093 9.85185 53.4223 7.8332 48.7849C6.9893 46.8443 6.62094 44.9061 6.62179 43.3122C6.62529 37.3566 10.6802 31.7201 18.0467 27.4394Z" fill="white"/>
<path d="M14.0341 71.4018C14.2952 71.4018 14.5545 71.2848 14.724 71.0593C15.0156 70.6779 14.941 70.1338 14.5596 69.8439C13.6035 69.115 12.7204 68.3539 11.9355 67.5792C11.5982 67.2435 11.0455 67.2469 10.7082 67.5893C10.3726 67.9301 10.3759 68.4793 10.7184 68.8166C11.5541 69.6405 12.4932 70.4508 13.5086 71.2238C13.6646 71.3441 13.8493 71.4018 14.0341 71.4018Z" fill="white"/>
<path d="M83.2579 19.5619C83.9071 20.5909 84.2428 21.5843 84.258 22.5183C84.2665 22.9929 84.653 23.3727 85.126 23.3727C85.1311 23.3727 85.1395 23.3727 85.1395 23.3727C85.6193 23.3642 86.0024 22.9692 85.9939 22.4912C85.9736 21.2334 85.5463 19.9366 84.7259 18.6364C82.0306 14.3595 75.6958 11.0776 70.7255 11.2641C69.1948 11.3285 67.8929 11.715 66.8538 12.4151C66.4554 12.683 66.3503 13.2237 66.6182 13.6204C66.8877 14.0204 67.4284 14.1205 67.8234 13.856C68.593 13.3373 69.5932 13.0491 70.7967 12.9999C75.3364 12.7541 80.8575 15.758 83.2579 19.5619Z" fill="white"/>
<path d="M72.0479 16.9497C71.263 16.9836 70.5917 17.187 70.051 17.5532C69.6543 17.8227 69.5509 18.3618 69.8187 18.7584C70.0866 19.1568 70.6273 19.2568 71.024 18.9907C71.2918 18.8093 71.6699 18.7042 72.1191 18.6855C73.921 18.5601 76.3417 19.8654 77.3266 21.4266C77.5724 21.8182 77.7013 22.1861 77.7063 22.52C77.7148 22.9946 78.1013 23.3727 78.5743 23.3727C78.5793 23.3727 78.5844 23.3727 78.5895 23.3727C79.0692 23.3642 79.4507 22.9675 79.4422 22.4895C79.4303 21.8352 79.2133 21.1673 78.7963 20.5028C77.4758 18.4092 74.4737 16.9039 72.0479 16.9497Z" fill="white"/>
<path d="M26.4276 13.6204C26.6955 13.222 26.5887 12.683 26.192 12.4151C25.1512 11.715 23.8493 11.3285 22.3202 11.2641C17.3297 11.0726 11.0135 14.3612 8.31987 18.6364C7.49941 19.9349 7.07222 21.2317 7.05019 22.4895C7.04171 22.9692 7.42312 23.3642 7.90286 23.3727C7.90794 23.3727 7.91303 23.3727 7.91811 23.3727C8.39106 23.3727 8.77756 22.9947 8.78604 22.52C8.80299 21.5843 9.14033 20.5892 9.78788 19.562C12.1848 15.758 17.7145 12.7728 22.249 13C23.4509 13.0491 24.4528 13.3373 25.2224 13.856C25.6207 14.1222 26.1598 14.0205 26.4276 13.6204Z" fill="white"/>
<path d="M14.2495 20.5028C13.8325 21.1639 13.6138 21.8335 13.6019 22.4895C13.5935 22.9675 13.9749 23.3642 14.4546 23.3727C14.4597 23.3727 14.4648 23.3727 14.4699 23.3727C14.9428 23.3727 15.3293 22.9947 15.3378 22.52C15.3429 22.1861 15.4717 21.8182 15.7175 21.4283C16.7024 19.8671 19.0587 18.5754 20.9251 18.6856C21.3811 18.7042 21.7506 18.8076 22.0218 18.9907C22.4185 19.2619 22.9593 19.1568 23.2271 18.7584C23.4966 18.3601 23.3915 17.821 22.9949 17.5532C22.4507 17.1853 21.7794 16.9836 20.9963 16.9497C18.5128 16.8921 15.57 18.4092 14.2495 20.5028Z" fill="white"/>
<path d="M10.7167 44.0723C10.8812 44.2368 11.1015 44.33 11.3338 44.33H35.0802C35.5211 45.8019 36.6999 47.1517 38.4852 48.1899C43.0075 50.7856 50.0897 50.8028 54.6147 48.1865C56.3836 47.1475 57.543 45.7993 57.9672 44.33H81.7238C82.216 44.33 82.6058 43.922 82.5917 43.4366C82.4595 38.9801 78.9302 34.4319 72.9056 30.9585C65.8859 26.9105 56.4726 24.6813 46.3983 24.6813C36.4595 24.6813 26.8293 26.9698 19.9774 30.9602C13.9714 34.4455 10.5048 38.9987 10.4658 43.4553C10.4641 43.6858 10.554 43.9079 10.7167 44.0723ZM53.7417 46.6863C49.7886 48.9697 43.3334 48.9714 39.3532 46.6863C35.6666 44.5452 35.7512 41.4352 39.3176 39.353C43.2357 37.077 49.6793 37.0543 53.6705 39.353C57.2882 41.4478 57.3613 44.5587 53.7417 46.6863ZM20.8504 32.4604C27.4446 28.6209 36.7562 26.4172 46.3983 26.4172C56.1726 26.4172 65.2773 28.565 72.0376 32.4638C77.1045 35.3846 80.2321 39.0309 80.7745 42.5941H58.1373C57.9392 40.5484 56.3332 38.8883 54.5384 37.8494C50.0869 35.2863 42.8655 35.2863 38.4445 37.8528C36.6788 38.883 35.0773 40.541 34.8932 42.5941H12.2627C12.7272 39.0377 15.8022 35.3897 20.8504 32.4604Z" fill="white"/>
<path d="M30.4841 53.6094C28.5974 52.5177 25.6512 52.5211 23.7713 53.6094C21.588 54.8788 21.5908 57.2282 23.7899 58.4965C25.6762 59.5903 28.6293 59.5901 30.5079 58.4982C32.6942 57.2285 32.6813 54.8745 30.4841 53.6094ZM29.6366 56.9963C28.2923 57.7795 26.0123 57.7778 24.6579 56.9946C23.6438 56.4071 23.5967 55.7193 24.6426 55.1113C25.9861 54.331 28.2644 54.332 29.6162 55.1113C30.6357 55.6998 30.6796 56.3915 29.6366 56.9963Z" fill="white"/>
<path d="M43.4115 53.6094C41.5231 52.5177 38.5769 52.5211 36.6987 53.6094C34.514 54.8796 34.5165 57.2282 36.7156 58.4965C38.6151 59.5961 41.5683 59.5843 43.4336 58.4982C45.6233 57.2265 45.6043 54.872 43.4115 53.6094ZM42.5622 56.9963C41.2197 57.7812 38.9397 57.7778 37.5835 56.9946C36.5669 56.4036 36.5245 55.719 37.57 55.1113C38.9134 54.331 41.1918 54.332 42.5436 55.1113C43.555 55.6952 43.6136 56.3867 42.5622 56.9963Z" fill="white"/>
<path d="M56.3371 53.6077C54.4487 52.516 51.5008 52.5211 49.6259 53.6094C47.4362 54.8825 47.4482 57.2308 49.6429 58.4965C51.5424 59.5961 54.4956 59.5843 56.3608 58.4982C58.5438 57.2305 58.5387 54.8789 56.3371 53.6077ZM55.4895 56.9963C54.147 57.7812 51.867 57.7778 50.5108 56.9946C49.4781 56.3964 49.4678 55.7097 50.4973 55.1113C51.8439 54.3291 54.1206 54.3339 55.4692 55.1113C56.4907 55.6975 56.5331 56.3912 55.4895 56.9963Z" fill="white"/>
<path d="M69.2644 53.6094C67.3777 52.5177 64.4315 52.5211 62.5516 53.6094C60.3683 54.8788 60.3711 57.2282 62.5702 58.4965C64.4565 59.5903 67.4096 59.5901 69.2881 58.4982C71.4745 57.2285 71.4616 54.8745 69.2644 53.6094ZM68.4168 56.9963C67.0726 57.7795 64.7926 57.7778 63.4381 56.9946C62.4241 56.4071 62.377 55.7193 63.4229 55.1113C64.7663 54.331 67.0447 54.332 68.3965 55.1113C69.416 55.6998 69.4598 56.3915 68.4168 56.9963Z" fill="white"/>
</svg>
