<svg width="93" height="92" viewBox="0 0 93 92" fill="none" xmlns="http://www.w3.org/2000/svg">
<path d="M60.3676 11.3715L62.6756 10.0408C63.0909 9.80005 63.2341 9.26946 62.9943 8.85415C62.7561 8.44052 62.2238 8.29813 61.8094 8.53545L59.5014 9.86616C59.0861 10.1069 58.9428 10.6375 59.1827 11.0528C59.4203 11.4651 59.9495 11.6104 60.3676 11.3715Z" fill="white"/>
<path d="M83.711 12.0478C83.6962 12.0393 83.6786 12.0377 83.6636 12.0297L70.9574 4.62977C70.1887 4.18903 69.2029 4.25514 68.2613 4.81285L64.2692 7.11658C63.8539 7.3556 63.7115 7.88618 63.9513 8.3015C64.1912 8.71512 64.7218 8.85921 65.1371 8.6185L69.1368 6.31138C69.5259 6.07914 69.881 6.01642 70.0878 6.13169L80.7843 12.3631C74.9728 15.7188 101.746 0.259617 24.194 45.0395L13.154 38.6231L57.6546 12.9378C58.07 12.6988 58.2123 12.1682 57.9725 11.7529C57.7318 11.3375 57.1986 11.1918 56.7867 11.4359L10.9859 37.8703C10.9788 37.8744 10.9759 37.8829 10.9689 37.8872C9.29634 38.8675 7.99308 41.1371 7.99816 43.071C7.99816 43.0717 7.99869 43.0722 7.99869 43.0728C7.99869 43.0746 7.99731 43.076 7.99731 43.0778L8.08801 77.5676C8.12276 79.0594 8.85253 79.6985 9.28055 79.946C11.7849 81.4024 22.6953 87.7472 22.0473 87.3705C22.049 87.3714 22.0502 87.3732 22.0519 87.3742C22.8886 87.8547 23.8934 87.6821 24.7396 87.1928L82.0099 54.1269C83.6932 53.1573 85.0078 50.879 85.0027 48.9431L84.9044 14.4583C84.9019 13.3616 84.4662 12.4835 83.711 12.0478ZM11.4609 39.6499L22.6558 46.1606C22.6424 46.1743 22.6311 46.1912 22.6177 46.2052C21.9176 46.9338 21.2956 47.9501 20.9806 49.0515C20.9766 49.0655 20.9697 49.0793 20.9659 49.0933C20.7906 48.9915 9.02334 42.1569 9.7713 42.5913C9.93393 41.5189 10.6166 40.3315 11.4609 39.6499ZM10.1502 78.4423C9.95353 78.3288 9.83403 77.9965 9.82385 77.5456L9.7374 44.5848C9.911 44.6856 21.5018 51.4175 20.7658 50.9901C20.7752 54.4358 20.7318 38.5148 20.8577 84.6704L10.1502 78.4423ZM81.142 52.625L23.8717 85.6909C23.4808 85.9161 23.1257 85.9825 22.924 85.8712C22.9237 85.871 22.9243 85.8714 22.924 85.8712L22.9173 85.8672C22.869 85.8389 22.8433 85.7645 22.805 85.7145C22.6849 85.5513 22.599 85.3121 22.5978 84.9721C22.5967 84.5805 22.5026 49.7226 22.5019 50.4774C22.5032 49.1482 23.468 47.4704 24.6167 46.8005C24.6188 46.7993 24.6214 46.7999 24.6235 46.7987C30.5024 43.4041 3.41 59.0477 81.8947 13.7294C81.9066 13.7225 81.9171 13.7203 81.9291 13.7137C82.1225 13.6098 82.2907 13.5527 82.4312 13.5281C82.4547 13.5238 82.4787 13.5182 82.5012 13.5155C82.6399 13.5011 82.7545 13.513 82.8219 13.548L82.8397 13.5582C82.8434 13.5604 82.8476 13.5601 82.8514 13.5622C83.0482 13.6821 83.1677 14.0154 83.1686 14.4617L83.2669 48.9465C83.2703 50.2517 82.2778 51.969 81.142 52.625Z" fill="white"/>
<path d="M79.8665 18.7302C79.3122 18.4115 78.6494 18.4098 78.095 18.7319L25.7882 48.9346C25.4062 49.2207 24.9304 50.0074 24.9304 50.4772L25.0126 79.1577C25.0163 80.5244 26.497 81.3698 27.6732 80.6884L79.975 50.4891C80.3403 50.2145 80.7615 49.5195 80.837 48.955L80.7547 20.2626C80.7531 19.6218 80.4208 19.0506 79.8665 18.7302ZM79.0206 49.0431L26.7485 79.1543L26.6663 50.6027C26.7095 50.506 26.79 50.3738 26.7409 50.3823L79.0189 20.266L79.1011 48.8193C79.0536 48.9194 78.968 49.0516 79.0206 49.0431Z" fill="white"/>
<path d="M39.0282 46.2681C33.7884 49.294 29.5395 56.6544 29.5564 62.6773C29.5756 69.0602 34.3186 71.8794 39.9546 68.6206C45.1884 65.6015 49.4323 58.2377 49.4145 52.208C49.3969 45.7899 44.628 43.0307 39.0282 46.2681ZM39.0867 67.1187C34.6738 69.6686 31.3082 67.7881 31.2923 62.6723C31.277 57.2037 35.1369 50.5196 39.8961 47.7701C44.3266 45.2129 47.6646 47.1272 47.6786 52.2131C47.6947 57.6885 43.8408 64.3742 39.0867 67.1187Z" fill="white"/>
<path d="M35.1419 56.5781C33.7137 57.402 32.6398 59.2565 32.6441 60.894C32.6512 62.8901 34.3121 63.8144 36.0234 62.8248C37.4456 62.0043 38.5136 60.1464 38.5085 58.5055C38.5031 56.5252 36.8667 55.5813 35.1419 56.5781ZM35.1554 61.3229C34.6274 61.6281 34.3816 61.5557 34.3799 60.8889C34.3774 59.8956 35.1393 58.5835 36.0098 58.08C36.5911 57.7485 36.7713 57.895 36.7726 58.5106C36.776 59.526 36.0352 60.8143 35.1554 61.3229Z" fill="white"/>
<path d="M42.9481 52.0723C41.5496 52.8792 40.4579 54.771 40.4622 56.3781C40.4675 58.3398 42.0995 59.3161 43.8296 58.3173C45.2349 57.507 46.3317 55.6051 46.3266 53.9913C46.3212 52.0133 44.6757 51.073 42.9481 52.0723ZM42.9617 56.8154C42.3943 57.1382 42.1996 56.9884 42.198 56.3747C42.1955 55.3813 42.9515 54.0743 43.8161 53.5743C44.4334 53.2217 44.5894 53.4589 44.5907 53.9964C44.5941 54.9948 43.833 56.312 42.9617 56.8154Z" fill="white"/>
<path d="M65.8237 30.798C60.5848 33.8239 56.3359 41.1826 56.3528 47.2038C56.3704 53.6543 61.1685 56.3801 66.751 53.1505C71.984 50.1297 76.2278 42.7659 76.2108 36.7379C76.1934 30.3723 71.4655 27.5388 65.8237 30.798ZM65.8831 51.6486C61.4521 54.202 58.1028 52.3027 58.0887 47.2005C58.0734 41.7335 61.9325 35.0495 66.6916 32.3C71.1454 29.7314 74.461 31.6826 74.475 36.7413C74.4903 42.2167 70.6363 48.9024 65.8831 51.6486Z" fill="white"/>
<path d="M69.7437 36.6005C68.3452 37.4074 67.2535 39.3009 67.2586 40.908C67.2639 42.8779 68.9005 43.8428 70.6252 42.8472C72.0296 42.0369 73.1272 40.1367 73.123 38.5195C73.1159 36.5451 71.4728 35.5993 69.7437 36.6005ZM69.7572 41.3453C69.196 41.6655 68.996 41.5245 68.9944 40.9029C68.991 39.9112 69.7471 38.6025 70.6116 38.1025C71.2103 37.7605 71.3857 37.9669 71.3871 38.5245C71.3897 39.5247 70.6277 40.8418 69.7572 41.3453Z" fill="white"/>
<path d="M61.9374 41.108C60.5084 41.9336 59.4354 43.7881 59.4404 45.4222C59.4458 47.4123 61.1018 48.3477 62.8189 47.3547C64.2403 46.5343 65.3091 44.6764 65.3049 43.0338C65.2995 41.04 63.6467 40.1142 61.9374 41.108ZM61.951 45.8528C61.416 46.1621 61.178 46.0787 61.1763 45.4172C61.1729 44.4085 61.9188 43.1219 62.8054 42.61C63.3953 42.2698 63.5678 42.4674 63.569 43.0371C63.5716 44.0373 62.8155 45.3527 61.951 45.8528Z" fill="white"/>
</svg>
