<svg width="93" height="92" viewBox="0 0 93 92" fill="none" xmlns="http://www.w3.org/2000/svg">
<path d="M82.9257 32.7837H82.9223C82.4443 32.7837 82.0561 33.1702 82.0544 33.6482L82.0442 36.7589C82.0425 37.2386 82.4307 37.6285 82.9087 37.6302H82.9121C83.3902 37.6302 83.7783 37.2437 83.78 36.7656L83.7902 33.655C83.7919 33.1753 83.4037 32.7854 82.9257 32.7837Z" fill="white"/>
<path d="M39.8685 57.6026C40.0025 57.6805 40.1533 57.7195 40.3025 57.7195C40.776 57.7195 41.1704 57.3369 41.1704 56.8533L41.1874 50.4405C41.1874 50.1303 41.0229 49.8421 40.7534 49.6878L15.8074 35.2823C15.5395 35.1264 15.209 35.1281 14.9411 35.2806C14.6716 35.4349 14.5072 35.7214 14.5055 36.0316L14.4868 42.4444C14.4851 42.7546 14.6513 43.0428 14.9208 43.197L39.8685 57.6026ZM16.2362 37.5335L39.4498 50.9389L39.438 55.3497L16.2244 41.946L16.2362 37.5335Z" fill="white"/>
<path d="M47.034 4.46084L9.6878 26.164C9.51567 26.2641 9.257 26.6425 9.25554 26.9116L9.18434 48.6131C9.18264 48.925 9.34877 49.2132 9.6183 49.3675L15.3313 52.666L15.2802 71.9572C15.2802 72.4285 15.4598 73.3269 16.6702 74.0457C18.2035 74.9277 20.5883 74.9278 22.1049 74.0423C22.9745 73.5354 23.4729 72.7828 23.4729 71.9776L23.5205 57.3943L41.4385 67.7398L41.3874 84.9235C41.3874 85.7321 41.8858 86.4848 42.7605 86.995C44.2954 87.878 46.6819 87.8745 48.1867 86.9967C49.3987 86.3085 49.5801 85.4033 49.5801 84.9269L49.6312 67.7219L69.4684 56.1938L69.422 71.9572C69.422 72.4285 69.6017 73.3269 70.8121 74.0457C72.341 74.9271 74.7295 74.9282 76.2468 74.0423C77.1164 73.5354 77.6148 72.7828 77.6148 71.9776L77.6826 51.4202L83.3122 48.1486C83.5784 47.9927 83.7428 47.7079 83.7445 47.4011L83.7682 40.0203C83.7699 39.5406 83.3817 39.1507 82.9037 39.149C82.902 39.149 82.902 39.149 82.9003 39.149C82.4223 39.149 82.0341 39.5355 82.0324 40.0135L82.0103 46.8976C39.2603 71.7356 89.0831 42.7904 46.4034 67.5853C46.4104 65.4498 46.461 50.0142 46.4679 47.8984C50.4827 45.5653 78.695 29.1706 82.0747 27.2066L82.0629 30.1951C82.0612 30.6749 82.4477 31.0648 82.9274 31.0665C83.4427 31.0698 83.797 30.6817 83.7987 30.2019C83.8011 29.5374 83.8157 25.435 83.8157 25.6928C83.8157 25.5185 83.6697 25.1092 83.3817 24.9435L47.9036 4.46084C47.6341 4.30488 47.3001 4.30488 47.034 4.46084ZM47.4713 6.21533L81.217 25.6962C70.827 31.734 56.5017 40.0588 45.5999 46.3941C42.3426 44.5137 57.0957 53.0307 11.8548 26.913L47.4713 6.21533ZM10.9863 28.4152L44.732 47.8977L44.7191 51.8216L44.6674 67.5916C44.9868 67.7778 38.7681 64.1944 10.9219 48.1164L10.9863 28.4152ZM21.737 71.9742C21.737 72.1098 21.5811 72.3386 21.2302 72.5438C20.2538 73.1133 18.5281 73.1099 17.5449 72.5471C17.2143 72.3505 17.016 72.1301 17.016 71.9589L17.0652 53.6671L21.7879 56.3939L21.737 71.9742ZM47.8443 84.9235C47.8443 85.0931 47.651 85.305 47.3205 85.4931C46.3424 86.0627 44.615 86.0593 43.6301 85.4931C43.2792 85.288 43.1232 85.0592 43.1232 84.9269L43.1707 68.7399L45.0964 69.8518C45.3556 70.0027 45.6843 70.0121 45.9626 69.8535C45.9622 69.8537 45.9631 69.8533 45.9626 69.8535C45.9634 69.8531 45.9653 69.8523 45.966 69.8518L47.8917 68.7327L47.8443 84.9235ZM75.8789 71.9742C75.8789 72.1098 75.723 72.3386 75.3721 72.5438C74.3973 73.1133 72.6716 73.1099 71.6868 72.5471C71.3562 72.3505 71.1579 72.1301 71.1579 71.9606L71.207 55.1853C71.3827 55.0831 76.2414 52.2576 75.9433 52.4309L75.8789 71.9742Z" fill="white"/>
<path d="M21.0573 27.9949L46.005 42.4004C46.1389 42.4784 46.2898 42.5174 46.439 42.5174C46.5898 42.5174 46.7407 42.4784 46.8746 42.4004L55.0945 37.6251C55.3623 37.4692 55.5267 37.1827 55.5267 36.8725C55.5267 36.5639 55.3606 36.2775 55.0928 36.1232L30.1433 21.7177C29.8738 21.56 29.5399 21.5634 29.2737 21.7177L21.0556 26.493C20.7877 26.6489 20.6233 26.9354 20.6233 27.2456C20.6233 27.5541 20.7894 27.8406 21.0573 27.9949ZM29.7111 23.4722L52.9263 36.8758L46.4373 40.6459L23.222 27.2422L29.7111 23.4722Z" fill="white"/>
<path d="M36.7715 22.16L53.5587 31.853C53.9725 32.0931 54.5056 31.9513 54.7436 31.536C54.9844 31.1207 54.842 30.5901 54.4266 30.3511L37.6394 20.6581C37.2258 20.4191 36.6918 20.5598 36.4545 20.9751C36.2138 21.3904 36.3562 21.921 36.7715 22.16Z" fill="white"/>
<path d="M43.6895 21.4837C46.2588 22.9683 50.2592 22.9667 52.8044 21.4905C54.1758 20.6937 54.9319 19.5851 54.9336 18.3697C54.9345 18.1931 54.928 19.3778 54.9624 13.1113L54.9613 13.1061L54.9624 13.0994C54.9607 11.8721 54.1945 10.7533 52.8044 9.94978C50.2447 8.4716 46.2424 8.47499 43.6895 9.95656C42.3411 10.7399 41.5996 11.8279 41.5765 13.0259C41.5589 15.4991 41.5374 18.5089 41.5384 18.3307C41.5367 19.5631 42.2995 20.6836 43.6895 21.4837ZM53.1977 18.3629C53.196 18.9291 52.7349 19.5224 51.9331 19.9886C49.9413 21.1447 46.5662 21.143 44.5575 19.9801C43.7404 19.5105 43.2725 18.9104 43.2742 18.3375L43.2878 15.9558C45.8655 17.7602 50.5067 17.8354 53.2113 15.9947L53.1977 18.3629ZM44.5608 11.4585C46.562 10.2951 49.939 10.3006 51.9365 11.4517C53.2828 12.2322 53.7304 13.325 52.5044 14.3531L52.4977 14.3599C50.7257 15.8365 46.856 16.0328 44.5863 14.7268C42.8791 13.7385 42.8922 12.4273 44.5608 11.4585Z" fill="white"/>
<path d="M59.929 30.8631C62.4998 32.3418 66.4965 32.344 69.0439 30.8665C70.4136 30.0697 71.1697 28.9628 71.1748 27.7474C71.1813 26.4903 71.2032 22.2002 71.2036 22.4771C71.2019 21.2481 70.4357 20.1293 69.0439 19.3258C66.4842 17.8459 62.482 17.851 59.929 19.3326C58.5824 20.1158 57.8393 21.2038 57.816 22.4017C57.8151 22.4175 57.8068 22.4306 57.8067 22.4466C57.8008 23.5201 57.7767 27.921 57.7779 27.7067C57.7762 28.9374 58.539 30.0579 59.929 30.8631ZM69.4389 27.7389C69.4372 28.3051 68.9744 28.8984 68.1726 29.3646C66.1842 30.5207 62.8091 30.519 60.797 29.3595C59.9799 28.8865 59.512 28.2847 59.5137 27.7135L59.5273 25.3318C62.1645 27.1778 66.8544 27.1626 69.4508 25.3707L69.4389 27.7389ZM60.8004 20.8345C62.8015 19.6711 66.1785 19.6766 68.176 20.8277C69.5434 21.6187 69.9593 22.7237 68.7355 23.7389C66.9485 25.2221 63.0768 25.4005 60.8258 24.1028C59.2399 23.1844 59.0379 21.8577 60.8004 20.8345Z" fill="white"/>
</svg>
