<svg width="987" height="128" viewBox="0 0 987 128" fill="none" xmlns="http://www.w3.org/2000/svg">
<path d="M954.991 121.52C950.026 121.52 945.567 120.912 941.615 119.696C937.663 118.48 934.269 116.808 931.431 114.68C928.594 112.451 926.415 109.816 924.895 106.776C923.375 103.635 922.565 100.189 922.463 96.4399H934.623C934.826 99.9866 935.789 102.976 937.511 105.408C939.335 107.739 941.767 109.461 944.807 110.576C947.949 111.691 951.445 112.248 955.295 112.248C961.477 112.248 966.189 111.083 969.431 108.752C972.775 106.421 974.447 103.128 974.447 98.8719C974.447 95.6293 973.738 93.1466 972.319 91.4239C970.901 89.5999 968.722 88.1813 965.783 87.1679C962.845 86.1546 958.994 85.2933 954.231 84.5839C947.645 83.6719 942.173 82.4053 937.815 80.7839C933.458 79.1626 930.165 76.8826 927.935 73.9439C925.706 70.9039 924.591 66.9519 924.591 62.0879C924.591 57.4266 925.858 53.3733 928.391 49.9279C930.925 46.3813 934.471 43.6453 939.031 41.7199C943.591 39.6933 948.911 38.6799 954.991 38.6799C961.173 38.6799 966.493 39.6933 970.951 41.7199C975.41 43.6453 978.906 46.4319 981.439 50.0799C983.973 53.6266 985.29 57.8826 985.391 62.8479H973.383C973.181 59.3013 972.269 56.4639 970.647 54.3359C969.127 52.1066 966.999 50.5359 964.263 49.6239C961.629 48.6106 958.487 48.1039 954.839 48.1039C949.165 48.1039 944.757 49.2693 941.615 51.5999C938.474 53.9306 936.903 57.0213 936.903 60.8719C936.903 63.8106 937.663 66.1919 939.183 68.0159C940.703 69.7386 943.034 71.1066 946.175 72.1199C949.418 73.0319 953.471 73.8426 958.335 74.5519C964.314 75.3626 969.431 76.5786 973.687 78.1999C978.045 79.8213 981.338 82.2026 983.567 85.3439C985.797 88.3839 986.911 92.5386 986.911 97.8079C986.911 102.875 985.594 107.181 982.959 110.728C980.325 114.173 976.575 116.859 971.711 118.784C966.949 120.608 961.375 121.52 954.991 121.52Z" fill="#FB5E48"/>
<path d="M876.049 120V40.1999H886.993L887.753 54.9439H888.361C890.084 49.8773 893.124 45.9759 897.481 43.2399C901.838 40.5039 906.702 39.1359 912.073 39.1359C912.985 39.1359 913.846 39.1866 914.657 39.2879C915.468 39.2879 916.228 39.3386 916.937 39.4399V51.1439C916.228 51.0426 915.468 50.9919 914.657 50.9919C913.846 50.8906 912.985 50.8399 912.073 50.8399C907.412 50.8399 903.358 51.7013 899.913 53.4239C896.468 55.1466 893.732 57.6293 891.705 60.8719C889.78 64.0133 888.614 67.8639 888.209 72.4239V120H876.049Z" fill="#FB5E48"/>
<path d="M827.109 121.368C819.509 121.368 812.973 119.696 807.501 116.352C802.13 113.008 798.026 108.245 795.189 102.064C792.351 95.8826 790.933 88.6879 790.933 80.4799C790.933 72.0693 792.351 64.7733 795.189 58.5919C798.026 52.3093 802.079 47.4959 807.349 44.1519C812.618 40.7066 819.053 38.9839 826.653 38.9839C834.759 38.9839 841.447 40.8079 846.717 44.4559C851.986 48.1039 855.786 53.1706 858.117 59.6559C860.549 66.1413 861.461 73.6399 860.853 82.1519H802.941C803.042 88.7386 804.055 94.2613 805.981 98.7199C808.007 103.077 810.794 106.371 814.341 108.6C817.989 110.728 822.245 111.792 827.109 111.792C832.783 111.792 837.445 110.475 841.093 107.84C844.741 105.205 847.173 101.709 848.389 97.3519H860.245C859.333 102.419 857.306 106.776 854.165 110.424C851.125 113.971 847.274 116.707 842.613 118.632C837.951 120.456 832.783 121.368 827.109 121.368ZM803.093 75.1599L801.725 73.3359H850.213L848.845 75.4639C848.946 69.0799 848.085 63.9626 846.261 60.1119C844.437 56.1599 841.802 53.2719 838.357 51.4479C835.013 49.5226 831.111 48.5599 826.653 48.5599C821.991 48.5599 817.938 49.5733 814.493 51.5999C811.047 53.6266 808.311 56.6159 806.285 60.5679C804.359 64.4186 803.295 69.2826 803.093 75.1599Z" fill="#FB5E48"/>
<path d="M701.131 120L680.459 40.1999H692.771L704.627 87.4719L709.491 109.056H710.403L714.811 87.4719L725.603 40.1999H740.499L751.899 87.4719L756.611 109.208H757.371L762.083 87.4719L773.787 40.1999H785.643L765.123 120H748.859L737.763 75.1599L733.203 54.0319H732.443L728.187 75.1599L717.851 120H701.131Z" fill="#FB5E48"/>
<path d="M642.515 121.52C637.549 121.52 633.091 120.912 629.139 119.696C625.187 118.48 621.792 116.808 618.955 114.68C616.117 112.451 613.939 109.816 612.419 106.776C610.899 103.635 610.088 100.189 609.987 96.4399H622.147C622.349 99.9866 623.312 102.976 625.035 105.408C626.859 107.739 629.291 109.461 632.331 110.576C635.472 111.691 638.968 112.248 642.819 112.248C649 112.248 653.712 111.083 656.955 108.752C660.299 106.421 661.971 103.128 661.971 98.8719C661.971 95.6293 661.261 93.1466 659.843 91.4239C658.424 89.5999 656.245 88.1813 653.307 87.1679C650.368 86.1546 646.517 85.2933 641.755 84.5839C635.168 83.6719 629.696 82.4053 625.339 80.7839C620.981 79.1626 617.688 76.8826 615.459 73.9439C613.229 70.9039 612.115 66.9519 612.115 62.0879C612.115 57.4266 613.381 53.3733 615.915 49.9279C618.448 46.3813 621.995 43.6453 626.555 41.7199C631.115 39.6933 636.435 38.6799 642.515 38.6799C648.696 38.6799 654.016 39.6933 658.475 41.7199C662.933 43.6453 666.429 46.4319 668.963 50.0799C671.496 53.6266 672.813 57.8826 672.915 62.8479H660.907C660.704 59.3013 659.792 56.4639 658.171 54.3359C656.651 52.1066 654.523 50.5359 651.787 49.6239C649.152 48.6106 646.011 48.1039 642.363 48.1039C636.688 48.1039 632.28 49.2693 629.139 51.5999C625.997 53.9306 624.427 57.0213 624.427 60.8719C624.427 63.8106 625.187 66.1919 626.707 68.0159C628.227 69.7386 630.557 71.1066 633.699 72.1199C636.941 73.0319 640.995 73.8426 645.859 74.5519C651.837 75.3626 656.955 76.5786 661.211 78.1999C665.568 79.8213 668.861 82.2026 671.091 85.3439C673.32 88.3839 674.435 92.5386 674.435 97.8079C674.435 102.875 673.117 107.181 670.483 110.728C667.848 114.173 664.099 116.859 659.235 118.784C654.472 120.608 648.899 121.52 642.515 121.52Z" fill="#FB5E48"/>
<path d="M526.166 120V40.1999H537.87L538.326 56.7679H539.238C541.67 50.8906 545.419 46.4826 550.486 43.5439C555.553 40.5039 561.075 38.9839 567.054 38.9839C571.209 38.9839 575.009 39.5919 578.454 40.8079C582.001 42.0239 585.041 43.9999 587.574 46.7359C590.209 49.4719 592.235 53.0186 593.654 57.3759C595.073 61.6319 595.782 66.8506 595.782 73.0319V120H583.47V75.4639C583.47 69.4853 582.71 64.5706 581.19 60.7199C579.771 56.8693 577.542 54.0319 574.502 52.2079C571.563 50.2826 567.763 49.3199 563.102 49.3199C558.137 49.3199 553.779 50.5359 550.03 52.9679C546.281 55.3999 543.393 58.6933 541.366 62.8479C539.339 66.9013 538.326 71.5626 538.326 76.8319V120H526.166Z" fill="#FB5E48"/>
<path d="M464.533 121.216C456.73 121.216 450.397 119.189 445.533 115.136C440.77 110.981 438.389 105.509 438.389 98.7199C438.389 94.8693 439.149 91.4239 440.669 88.3839C442.189 85.2426 444.367 82.6079 447.205 80.4799C450.042 78.2506 453.487 76.6293 457.541 75.6159C461.594 74.5013 466.154 73.9439 471.221 73.9439H492.045V82.1519H473.045C468.282 82.1519 464.229 82.7599 460.885 83.9759C457.642 85.1919 455.159 87.0159 453.437 89.4479C451.714 91.7786 450.853 94.6159 450.853 97.9599C450.853 102.317 452.373 105.813 455.413 108.448C458.554 110.981 462.709 112.248 467.877 112.248C473.349 112.248 478.061 111.032 482.013 108.6C486.066 106.067 488.903 102.571 490.525 98.1119V65.4319C490.525 61.5813 489.815 58.4399 488.397 56.0079C487.079 53.4746 485.053 51.6506 482.317 50.5359C479.682 49.3199 476.389 48.7119 472.437 48.7119C468.586 48.7119 465.242 49.3199 462.405 50.5359C459.567 51.7519 457.338 53.4239 455.717 55.5519C454.095 57.5786 453.183 60.0106 452.981 62.8479H440.821C440.922 58.0853 442.341 53.8799 445.077 50.2319C447.813 46.5839 451.562 43.7466 456.325 41.7199C461.189 39.6933 466.762 38.6799 473.045 38.6799C477.909 38.6799 482.165 39.2879 485.813 40.5039C489.562 41.7199 492.653 43.4933 495.085 45.8239C497.618 48.0533 499.543 50.8399 500.861 54.1839C502.178 57.5279 502.837 61.4293 502.837 65.8879V101.912C502.837 104.952 503.343 107.131 504.357 108.448C505.37 109.765 506.941 110.424 509.069 110.424H513.325V120H505.725C501.469 120 498.226 118.936 495.997 116.808C493.767 114.68 492.399 111.589 491.893 107.536H491.285C489.055 111.792 485.509 115.136 480.645 117.568C475.882 120 470.511 121.216 464.533 121.216Z" fill="#FB5E48"/>
<path d="M378.822 119.808V58.248H366.358V37.728H378.822V30.736C378.822 23.744 381.001 18.3733 385.358 14.624C389.817 10.8747 396.1 9 404.206 9H421.382V25.872H411.046C408.918 25.872 407.297 26.328 406.182 27.24C405.068 28.152 404.51 29.7733 404.51 32.104V37.728H420.166V58.248H404.51V119.808H378.822Z" fill="white"/>
<path d="M306.522 120.872C298.516 120.872 292.132 118.795 287.37 114.64C282.708 110.485 280.378 104.963 280.378 98.072C280.378 93.816 281.188 90.0667 282.81 86.824C284.431 83.48 286.711 80.6933 289.65 78.464C292.69 76.1333 296.338 74.4107 300.594 73.296C304.85 72.1813 309.612 71.624 314.882 71.624H332.362V86.52H320.202C317.162 86.52 314.628 86.9253 312.602 87.736C310.575 88.4453 309.004 89.5093 307.89 90.928C306.876 92.2453 306.37 93.816 306.37 95.64C306.37 98.1733 307.282 100.149 309.106 101.568C311.031 102.987 313.514 103.696 316.554 103.696C320.303 103.696 323.394 102.784 325.826 100.96C328.359 99.136 329.778 96.552 330.082 93.208V65.544C330.082 63.112 329.575 61.1867 328.562 59.768C327.65 58.3493 326.332 57.3867 324.61 56.88C322.988 56.272 321.164 55.968 319.138 55.968C316.706 55.968 314.628 56.3733 312.906 57.184C311.284 57.8933 309.967 58.9067 308.954 60.224C308.042 61.5413 307.586 63.112 307.586 64.936H282.506C282.506 59.2613 284.076 54.2453 287.218 49.888C290.359 45.5307 294.767 42.1867 300.442 39.856C306.218 37.424 312.956 36.208 320.658 36.208C326.535 36.208 331.652 36.9173 336.01 38.336C340.367 39.6533 344.015 41.6293 346.954 44.264C349.892 46.7973 352.071 49.9893 353.49 53.84C355.01 57.5893 355.77 61.896 355.77 66.76V96.856C355.77 98.5787 356.074 99.8453 356.682 100.656C357.391 101.365 358.354 101.72 359.57 101.72H363.066V119.808H350.298C345.535 119.808 341.634 118.896 338.594 117.072C335.655 115.147 333.628 112.461 332.514 109.016H331.602C329.676 112.563 326.383 115.451 321.722 117.68C317.06 119.808 311.994 120.872 306.522 120.872Z" fill="white"/>
<path d="M234.21 121.328C225.496 121.328 218.048 119.605 211.866 116.16C205.786 112.613 201.125 107.699 197.882 101.416C194.64 95.1333 193.018 87.7867 193.018 79.376C193.018 70.56 194.64 62.9093 197.882 56.424C201.226 49.9387 205.938 44.9733 212.018 41.528C218.098 37.9813 225.192 36.208 233.298 36.208C242.925 36.208 250.829 38.336 257.01 42.592C263.192 46.7467 267.6 52.472 270.234 59.768C272.97 67.064 273.882 75.3733 272.97 84.696H218.25C218.149 88.4453 218.757 91.6373 220.074 94.272C221.493 96.8053 223.368 98.7813 225.698 100.2C228.13 101.517 230.968 102.176 234.21 102.176C238.061 102.176 241.101 101.467 243.33 100.048C245.661 98.6293 247.232 96.7547 248.042 94.424H272.21C271.501 99.896 269.424 104.659 265.978 108.712C262.634 112.664 258.226 115.755 252.754 117.984C247.282 120.213 241.101 121.328 234.21 121.328ZM218.25 71.32L216.122 69.04H250.018L247.738 71.32C247.941 67.7733 247.434 64.8347 246.218 62.504C245.104 60.1733 243.432 58.4 241.202 57.184C238.973 55.968 236.338 55.36 233.298 55.36C230.157 55.36 227.472 56.0187 225.242 57.336C223.013 58.552 221.29 60.376 220.074 62.808C218.858 65.24 218.25 68.0773 218.25 71.32Z" fill="white"/>
<path d="M173.036 119.808C168.071 119.808 164.018 119.048 160.876 117.528C157.836 115.907 155.607 113.627 154.188 110.688C152.871 107.648 152.212 103.949 152.212 99.592V9H177.9V94.424C177.9 96.552 178.407 97.9707 179.42 98.68C180.434 99.3893 181.7 99.744 183.22 99.744H188.084V119.808H173.036Z" fill="white"/>
<path d="M105.613 15.3506C85.581 -1.77539 56.1472 -5.34829 32.0133 8.58404C18.8185 16.2089 9.35659 27.8159 4.28627 41.0196C17.6408 52.437 37.2633 54.8122 53.3526 45.5307L105.623 15.3606L105.613 15.3506ZM85.3415 124.344C110.194 115.562 128 91.8587 128 63.994C128 48.7543 122.67 34.7621 113.767 23.7639C97.1988 29.6223 85.3315 45.4209 85.3315 63.994V124.344H85.3415ZM1.07241 52.2972C-3.74838 78.2058 7.87941 105.482 32.0133 119.414C45.2081 127.039 59.9999 129.424 73.9632 127.208C77.1771 109.933 69.4219 91.7589 53.3426 82.4673L1.07241 52.2972Z" fill="white"/>
</svg>
