<svg width="93" height="92" viewBox="0 0 93 92" fill="none" xmlns="http://www.w3.org/2000/svg">
<path d="M18.3847 70.1161C18.8627 70.1144 19.2509 69.7245 19.2492 69.2456L19.2407 66.4961C19.239 66.0172 18.8508 65.6307 18.3728 65.6307C17.9405 65.6171 17.5032 66.0206 17.5049 66.5011L17.5134 69.2507C17.5151 69.7296 17.9033 70.1161 18.3813 70.1161H18.3847Z" fill="white"/>
<path d="M42.9207 26.986L50.2709 22.7422C50.6862 22.5023 50.8286 21.9717 50.5879 21.5564C50.3489 21.1385 49.8166 20.9995 49.403 21.2385L42.0528 25.4824C41.6374 25.7223 41.495 26.2528 41.7358 26.6682C41.972 27.0816 42.503 27.2258 42.9207 26.986Z" fill="white"/>
<path d="M46.8399 68.7972C45.3414 69.6626 44.1734 71.6841 44.1802 73.3971C44.1838 75.4787 45.9195 76.4549 47.7231 75.4143C49.2098 74.5557 50.3693 72.5402 50.3659 70.823C50.3587 68.7488 48.6366 67.7581 46.8399 68.7972ZM46.8552 73.9107C46.2426 74.2636 45.9193 74.1592 45.9161 73.392C45.9127 72.2994 46.7501 70.8543 47.7078 70.3008C48.3114 69.9512 48.6269 70.0668 48.63 70.828C48.6334 71.9231 47.8028 73.3632 46.8552 73.9107Z" fill="white"/>
<path d="M22.6921 42.4112C23.1718 42.4103 23.5617 42.0204 23.56 41.5407L23.5515 38.2317C23.5498 37.7537 23.1616 37.3663 22.6836 37.3663C22.2039 37.3672 21.814 37.7571 21.8157 38.2368L21.8242 41.5458C21.8258 42.0238 22.214 42.4112 22.6921 42.4112Z" fill="white"/>
<path d="M21.8242 49.3681C21.8258 49.8461 22.214 50.2335 22.6921 50.2335C23.1718 50.2326 23.5617 49.8428 23.56 49.363L23.5515 46.0541C23.5498 45.576 23.1616 45.1887 22.6836 45.1887C22.2039 45.1895 21.814 45.5794 21.8157 46.0591L21.8242 49.3681Z" fill="white"/>
<path d="M47.3297 13.106C48.7684 13.9356 50.927 13.9358 52.3592 13.1043C54.0746 12.1102 54.0845 10.1976 52.344 9.19185C50.9285 8.37563 48.7197 8.37563 47.3144 9.19354C45.5923 10.1916 45.596 12.1041 47.3297 13.106ZM48.1857 10.6938C49.055 10.1901 50.5901 10.1843 51.4761 10.6955C52.0269 11.0147 52.0609 11.2709 51.4879 11.6041C50.5997 12.1202 49.0926 12.1186 48.1976 11.6024C47.6562 11.2886 47.5999 11.0341 48.1857 10.6938Z" fill="white"/>
<path d="M75.6017 33.7116C75.5915 30.1602 74.3388 27.4861 72.074 26.1825C67.237 23.4034 67.7286 23.6802 67.6937 23.6601C66.8047 23.1411 65.8068 22.8726 64.7375 22.8356L64.7052 14.0044C64.6874 12.5339 64.1612 11.443 63.2699 10.8281C63.0095 10.5616 63.992 11.2478 52.895 4.48014C51.8507 3.88937 50.5149 3.99447 49.1452 4.7734C49.1419 4.7751 49.1402 4.77594 49.1385 4.77679L21.87 20.5223C21.8682 20.5234 21.8676 20.5255 21.8658 20.5266C19.3644 21.9769 17.4126 25.3508 17.4057 28.2276C17.4054 28.2376 17.3981 28.2456 17.3982 28.2557L17.4965 63.4643C17.4982 63.9423 17.8864 64.3296 18.3644 64.3296C18.8442 64.3279 19.2341 63.9389 19.2324 63.4592L19.1391 29.7983L27.5929 34.9304L27.7302 84.158C27.7302 84.2758 27.7336 84.3919 27.7404 84.5055L20.024 79.8209C19.5511 79.5488 19.2832 78.8877 19.273 77.9672L19.2578 72.5173C19.2561 72.0392 18.8679 71.6519 18.3899 71.6519C17.9101 71.6536 17.5202 72.0426 17.5219 72.5224L17.5372 77.9799C17.5558 79.5471 18.1322 80.7354 19.1408 81.3152C19.4191 81.4843 29.1527 87.4005 29.3491 87.5178C30.5223 88.1872 31.9064 87.8986 33.0954 87.2211L60.3638 71.4781C62.8761 70.0364 64.8442 66.6334 64.8442 63.7295C64.8442 63.7287 64.8442 63.7278 64.8442 63.727L64.8117 52.5863C70.7935 49.0323 75.6201 40.6159 75.6017 33.7116ZM59.2705 58.4559L33.2666 73.4606L33.1666 36.5603L59.1569 21.5394L59.1671 24.4822C53.2042 28.013 48.3442 36.4963 48.3689 43.363C48.3689 45.9397 49.0657 48.0345 50.3324 49.5235L48.4384 56.0115C48.3265 56.3946 48.4892 56.8048 48.835 57.0048L53.2882 59.5916C53.4221 59.6696 53.573 59.7095 53.7239 59.7095C54.066 59.7095 54.3555 59.5224 54.5047 59.177L59.2196 54.2451C59.2323 54.2456 59.2459 54.2429 59.2586 54.2433L59.2705 58.4559ZM51.8083 50.6573C51.9838 50.7598 54.8373 52.4275 54.6567 52.3219C54.6053 52.4973 53.0442 57.8302 53.1411 57.4993L50.2946 55.8453L51.8083 50.6573ZM66.819 25.1595L67.427 25.5134C66.2379 25.7323 64.9911 26.1967 63.7169 26.9317C57.6601 30.4297 52.7492 38.9378 52.7695 45.8973C52.773 47.237 52.9619 48.4484 53.3117 49.5187L52.957 49.3124L51.8253 48.6485C50.7014 47.489 50.1081 45.6659 50.1081 43.3638C50.0751 37.1213 54.4776 29.2191 60.2546 25.8625C62.2526 24.7246 64.838 24.0007 66.819 25.1595ZM50.003 6.28294C50.8252 5.81508 51.5473 5.71591 52.0186 5.97781L59.8115 10.7099C59.6515 10.7822 59.49 10.855 59.3247 10.9548C56.5825 12.5381 69.2587 5.2193 32.5055 26.4393C32.3317 26.3339 23.4512 20.9475 24.0143 21.2891L50.003 6.28294ZM22.3193 22.2979C22.4931 22.4032 31.5069 27.8638 30.9324 27.5157C30.9201 27.5263 30.9101 27.5408 30.8979 27.5515C29.4407 28.8442 28.1689 30.8634 27.7421 32.986L19.1612 27.7802C19.3474 25.7913 20.6824 23.4746 22.3193 22.2979ZM59.4976 69.9737L32.2309 85.715C30.3866 86.7687 29.4678 85.8295 29.4678 84.158L29.3288 34.4343C29.3232 32.5889 30.4519 30.255 32.0694 28.843C32.8153 28.1869 60.4646 12.3051 60.7805 12.1843C60.7851 12.1826 60.7898 12.1807 60.7943 12.1792C62.2035 11.6481 62.9508 12.4947 62.9693 14.0188L63.0015 22.9796C62.3189 23.1075 61.6163 23.3245 60.8999 23.6233L60.8877 20.035C60.886 19.7256 60.7198 19.44 60.452 19.2857C60.1842 19.1314 59.8536 19.1323 59.5858 19.2866L31.863 35.3084C31.5935 35.4644 31.4291 35.7517 31.4291 36.0628L31.5342 74.9634C31.5342 75.6241 32.2557 76.0469 32.8361 75.7127L60.574 59.7078C60.8436 59.5527 61.0097 59.2645 61.008 58.9534L60.9933 54.0832C61.4526 53.9974 62.1107 53.8731 63.0778 53.4662L63.1083 63.7312C63.1066 65.9926 61.4555 68.8506 59.4976 69.9737ZM63.7864 51.1828C62.8959 51.6968 61.8938 52.1003 61.0872 52.2994C60.5247 52.4387 59.7254 52.5541 58.9484 52.4847C58.7009 52.4525 58.428 52.5584 58.2466 52.7491L55.5986 55.5138L56.5718 52.1804C56.6552 51.8946 56.5604 51.5529 56.3701 51.349C56.2673 51.175 54.5714 49.8595 54.5545 45.9388C54.5427 39.5353 59.0653 31.707 64.6357 28.4888C66.8401 27.2134 69.0634 26.658 71.3242 27.7683C72.9525 28.7813 73.8576 30.8803 73.8658 33.7166C73.8845 40.1278 69.3618 47.9628 63.7864 51.1828Z" fill="white"/>
<path d="M65.741 38.8318C65.1629 38.5063 64.4374 38.5546 63.7491 38.9581C63.6034 39.0446 63.5135 39.0607 63.4966 39.0751C63.4813 39.0429 63.4508 38.9606 63.4491 38.7996C63.4423 38.091 63.978 37.1527 64.5916 36.7917C64.734 36.7086 64.8222 36.6925 64.8374 36.6781C64.8527 36.7103 64.8832 36.7925 64.8849 36.9544C64.8883 37.4308 65.2765 37.8147 65.7528 37.8147H65.7596C66.2393 37.8105 66.6241 37.4189 66.6208 36.9392C66.614 36.1399 66.2817 35.4949 65.7071 35.1694C65.4943 35.0489 65.2574 34.9965 65.0131 34.9771L65.0087 34.3396C65.0052 33.8624 64.6171 33.4776 64.1407 33.4776H64.1339C63.6559 33.481 63.2694 33.8726 63.2728 34.3515L63.2818 35.6445C62.3629 36.4084 61.703 37.6631 61.7133 38.8157C61.7312 40.509 63.1864 41.3069 64.6272 40.4558C64.7679 40.3727 64.8561 40.3566 64.873 40.3422C64.8883 40.3744 64.9188 40.4575 64.9205 40.6194C64.9273 41.3118 64.3848 42.2645 63.783 42.618C63.6373 42.7027 63.5474 42.7197 63.5322 42.7341C63.5152 42.7019 63.4864 42.6205 63.4847 42.462C63.4796 41.9814 63.0796 41.5585 62.6083 41.6026C62.1286 41.6076 61.7438 42.0001 61.7489 42.479C61.7573 43.2757 62.0896 43.919 62.6625 44.2436C62.8712 44.3611 63.1021 44.4179 63.3411 44.4389L63.3457 45.0836C63.3491 45.5608 63.7373 45.9456 64.2136 45.9456H64.2204C64.6984 45.9422 65.0849 45.5506 65.0815 45.0717L65.0725 43.7819C66.0014 43.0215 66.6682 41.7597 66.6564 40.6024C66.6479 39.8023 66.3139 39.1564 65.741 38.8318Z" fill="white"/>
</svg>
