<svg width="93" height="92" viewBox="0 0 93 92" fill="none" xmlns="http://www.w3.org/2000/svg">
<rect x="0.5" width="92" height="92" rx="46" fill="white"/>
<path d="M73.6526 43.3698C73.6441 42.8691 73.3351 42.4031 72.7959 42.09L47.3181 27.284C46.3723 26.7345 44.8815 26.7345 43.9247 27.2862L20.2074 40.9795C19.6508 41.3012 19.3308 41.7799 19.3302 42.2939C19.3302 42.2989 19.3323 42.3036 19.3324 42.3085L19.3451 48.5961C19.3451 48.9001 19.4579 49.4739 20.2074 49.8984C55.1352 70.2121 43.0894 63.2487 45.7029 64.726C46.6718 65.2654 48.1239 65.2639 49.0759 64.7083L64.1926 55.9855C64.4634 55.8291 64.5563 55.4831 64.3998 55.2122C64.2429 54.9414 63.8968 54.8485 63.6265 55.0049L48.5077 63.7293C47.9223 64.0709 46.9268 64.0831 46.301 63.7619C46.1838 63.676 45.0773 63.048 20.7713 48.9167C20.6828 48.8664 20.4772 48.7354 20.4772 48.595L20.4673 43.7567L45.6288 58.3786C45.6418 58.3875 45.6531 58.3981 45.667 58.4061C46.6022 58.9526 48.1073 58.9504 49.0616 58.3995L60.7649 51.6425L72.5278 44.8549L72.5377 49.6933C72.5377 49.7774 72.4416 49.9178 72.2271 50.0421L68.4942 52.1963C68.2234 52.3527 68.1305 52.6988 68.2869 52.9696C68.4428 53.2394 68.7894 53.3322 69.0603 53.1769L72.7942 51.0222C73.3509 50.6994 73.6698 50.2152 73.6698 49.6922L73.6571 43.3918C73.6571 43.3839 73.653 43.3775 73.6526 43.3698ZM20.7735 41.9601L44.4907 28.2668C45.0979 27.9157 46.153 27.9163 46.7488 28.2624L72.2265 43.0684C72.4322 43.1878 72.5239 43.316 72.5239 43.3901C72.5234 43.468 72.4272 43.6018 72.2127 43.7256L59.9583 50.8008L48.4977 57.4139C47.8577 57.7817 46.8017 57.7349 46.2592 57.4315C6.90073 34.5652 26.3948 45.8907 20.7586 42.6162C20.6897 42.5773 20.6561 42.5401 20.6134 42.5023C20.5523 42.4483 20.5129 42.4024 20.4939 42.3592C20.4856 42.3386 20.4646 42.3125 20.4645 42.2967V42.2945L20.464 42.2922C20.4662 42.2139 20.5609 42.0824 20.7735 41.9601Z" fill="black"/>
<path d="M66.0195 54.9314L67.5015 54.0763C67.7723 53.9198 67.8652 53.5738 67.7087 53.3029C67.5523 53.0315 67.2046 52.9398 66.9354 53.0957L65.4534 53.9508C65.1826 54.1072 65.0897 54.4533 65.2462 54.7241C65.4041 54.9968 65.7512 55.0864 66.0195 54.9314Z" fill="black"/>
<path d="M44.0988 32.8863C45.0529 33.4412 46.5426 33.4472 47.4917 32.8996C48.6485 32.233 48.6513 30.9559 47.4906 30.2806C46.5404 29.7278 45.0496 29.7228 44.0972 30.2723C42.9454 30.9353 42.9427 32.2133 44.0988 32.8863ZM44.6621 31.2529C45.2624 30.9067 46.3207 30.9087 46.9213 31.259C47.1335 31.3822 47.2281 31.516 47.2281 31.5934C47.2281 31.6636 47.149 31.7907 46.9263 31.919C46.3271 32.2639 45.2718 32.2595 44.6682 31.9079C44.4438 31.7775 44.3647 31.6476 44.3647 31.5757C44.3647 31.5061 44.4427 31.3795 44.6621 31.2529Z" fill="black"/>
<path d="M64.2312 44.5968C65.1811 45.1503 66.6733 45.159 67.6247 44.6101C68.7809 43.9437 68.7834 42.6665 67.6236 41.991C66.6728 41.4383 65.182 41.4344 64.2301 41.9827C63.0757 42.6482 63.0739 43.9226 64.2312 44.5968ZM64.7951 42.9633C65.3968 42.6163 66.454 42.62 67.0542 42.9694C67.266 43.0927 67.3605 43.2265 67.3605 43.3039C67.3605 43.3741 67.2814 43.5012 67.0592 43.6294C66.46 43.9744 65.4042 43.9699 64.8006 43.6184C64.59 43.4957 64.4955 43.3636 64.496 43.2867C64.496 43.2115 64.5883 43.0827 64.7951 42.9633Z" fill="black"/>
<path d="M25.3592 43.6919C26.3133 44.2468 27.803 44.2528 28.7521 43.7052C29.9113 43.038 29.9138 41.7579 28.756 41.0834C27.8047 40.5306 26.3128 40.5273 25.3581 41.0778C24.2059 41.7411 24.2031 43.0188 25.3592 43.6919ZM25.9231 42.0585C26.5296 41.709 27.587 41.7125 28.1867 42.0618C28.4111 42.1928 28.4907 42.3227 28.4907 42.3945C28.4907 42.4664 28.4111 42.5952 28.1867 42.7246C27.588 43.07 26.5328 43.0651 25.9286 42.7135C25.7047 42.583 25.6251 42.4531 25.6251 42.3818C25.6257 42.3116 25.7036 42.185 25.9231 42.0585Z" fill="black"/>
<path d="M48.8886 52.7938C47.9378 52.2405 46.4448 52.2372 45.4907 52.7883C44.9413 53.1045 44.6256 53.5793 44.6245 54.0895C44.6234 54.6025 44.9396 55.0807 45.4918 55.4024C46.446 55.9573 47.9363 55.9629 48.8858 55.4162C49.4375 55.0978 49.7548 54.6208 49.7559 54.1078C49.7564 53.5943 49.4408 53.1156 48.8886 52.7938ZM48.3203 54.4356C47.72 54.7799 46.6642 54.775 46.0612 54.424C45.8506 54.3012 45.7566 54.1691 45.7566 54.0923C45.7566 54.0171 45.8495 53.8878 46.0556 53.7689C46.3569 53.5954 46.7709 53.5091 47.1844 53.5091C47.6012 53.5091 48.0174 53.5965 48.3192 53.7722C48.5442 53.9033 48.6238 54.0337 48.6238 54.1056C48.6233 54.1769 48.5437 54.3062 48.3203 54.4356Z" fill="black"/>
<path d="M33.0262 42.8605C32.8515 42.9617 32.7437 43.148 32.7432 43.3503C32.7426 43.5521 32.8504 43.7389 33.0245 43.8401L45.4348 51.0521C45.6123 51.1553 45.8285 51.1534 46.0025 51.0532C46.8117 50.5861 48.1754 50.585 48.9786 51.0521C49.1555 51.1554 49.3755 51.1532 49.5524 51.0498L59.9544 44.8743C60.1269 44.7715 60.2325 44.5852 60.2314 44.3845C60.2303 44.1839 60.123 43.9987 59.9495 43.8981C59.6703 43.7356 59.5039 43.5371 59.5039 43.3663C59.5039 43.1922 59.6747 42.9899 59.96 42.8252C60.1346 42.724 60.2424 42.5377 60.243 42.3354C60.2435 42.1336 60.1357 41.9468 59.9616 41.8457L47.5514 34.6336C47.375 34.5314 47.1594 34.5314 46.9837 34.6325C46.1739 35.1007 44.8113 35.0996 44.007 34.6336C43.8295 34.5292 43.6101 34.5314 43.4338 34.6359L33.0317 40.8109C32.8592 40.9137 32.7537 41.1 32.7548 41.3006C32.7559 41.5013 32.8626 41.6865 33.0361 41.7871C33.3158 41.9496 33.4822 42.1486 33.4822 42.3194C33.4817 42.4935 33.3114 42.6958 33.0262 42.8605ZM34.2804 41.3863L43.745 35.7679C44.7864 36.2289 46.2037 36.2284 47.2473 35.7663L58.709 42.4272C58.2618 43.0081 58.2583 43.7163 58.7052 44.2989L49.2412 49.9178C48.2009 49.4568 46.7836 49.4573 45.7388 49.9194L34.2771 43.2585C34.7213 42.6816 34.7311 41.9734 34.2804 41.3863Z" fill="black"/>
</svg>
