<svg width="93" height="92" viewBox="0 0 93 92" fill="none" xmlns="http://www.w3.org/2000/svg">
<rect x="0.5" width="92" height="92" rx="46" fill="white"/>
<path d="M71.6038 58.3855C71.6032 58.1843 71.4954 57.9974 71.3208 57.8968L63.4663 53.3629C63.467 52.9745 63.5097 28.7754 63.5101 28.904C63.51 28.8542 63.4851 28.8117 63.4726 28.7649C63.4343 28.6214 63.3588 28.4903 63.2271 28.4142L46.7567 18.9049C46.5815 18.8038 46.3653 18.8032 46.189 18.906L29.8253 28.4153C29.7172 28.4781 29.5446 28.7099 29.544 28.9034L29.5002 53.352L21.678 57.8968C21.5034 57.9986 21.3961 58.1854 21.3961 58.3866C21.3961 58.5889 21.5039 58.7757 21.6786 58.8764C30.9431 64.226 41.4128 70.2717 46.3018 73.0947C46.4823 73.1992 46.6985 73.1936 46.8695 73.0947L71.3224 58.8764C71.4971 58.7746 71.6043 58.5878 71.6038 58.3855ZM62.3211 58.5248C41.4546 70.6511 48.658 66.4649 47.0946 67.3735L47.1058 61.1794L60.0094 53.6803C60.1841 53.5786 60.2913 53.3918 60.2908 53.1894L60.2841 49.9226C60.2836 49.7203 60.1752 49.5334 60 49.4328C59.8242 49.3333 59.6081 49.3333 59.4334 49.4339L47.1141 56.5934L47.118 54.4274L60.0094 46.9354C60.1841 46.8337 60.2913 46.6468 60.2908 46.4445L60.2841 43.1777C60.2836 42.9753 60.1752 42.7885 60 42.6879C59.8242 42.5867 59.6081 42.5878 59.4334 42.6896L47.1263 49.8414L47.1302 47.674L60.0088 40.1899C60.1841 40.0888 60.2913 39.9014 60.2908 39.6996L60.2841 36.4322C60.2836 36.2299 60.1752 36.043 60 35.9424C59.8242 35.8413 59.6092 35.8424 59.4334 35.9441L47.1385 43.0892L47.1464 38.74C52.4731 35.6444 57.1549 32.9235 62.3764 29.8891C62.3707 32.8175 62.3968 19.2823 62.3211 58.5248ZM47.1398 57.888L59.1543 50.9065L59.1581 52.8655L47.1436 59.847L47.1398 57.888ZM47.1398 51.1431L59.1543 44.161L59.1581 46.1206L47.1436 53.1021L47.1398 51.1431ZM47.1398 44.3976L59.1543 37.4156L59.1581 39.3751L47.1436 46.3561L47.1398 44.3976ZM46.0143 38.7406C46.002 45.494 45.9748 60.5006 45.9624 67.3791L30.623 58.5237C30.65 43.4488 30.6438 46.9146 30.6744 29.8841C34.3012 31.978 42.3054 36.5992 46.0143 38.7406ZM46.4748 20.0492L61.8147 28.9062L46.5801 37.7597L31.2394 28.9029L46.4748 20.0492ZM46.5837 71.9505L23.0904 58.3855L29.4978 54.6631L29.4903 58.8487C29.4898 59.051 29.5976 59.2401 29.7734 59.3407C40.9009 65.7649 46.365 68.9171 46.2474 68.8504C46.3102 68.886 46.3821 68.8955 46.4532 68.9052C46.5763 68.922 46.7014 68.9131 46.8125 68.8495C48.562 67.8326 41.5722 71.8952 63.1746 59.3396C63.2555 59.2926 63.3144 59.2257 63.3615 59.1518C63.3749 59.131 63.3823 59.1095 63.3928 59.0871C63.4214 59.0262 63.4383 58.9638 63.4441 58.8968C63.4456 58.8806 63.4564 58.8673 63.4565 58.8509L63.4639 54.6687L69.9084 58.3888L46.5837 71.9505Z" fill="black"/>
<path d="M32.0391 58.0339L43.9867 64.9314C44.0741 64.9822 44.1719 65.0077 44.2697 65.0077C44.5851 65.0077 44.8349 64.7519 44.8358 64.4427L44.8806 39.7206C44.8811 39.5177 44.7728 39.3303 44.5975 39.2292L32.6499 32.3317C32.4753 32.2311 32.2591 32.2305 32.0845 32.3317C31.9092 32.4323 31.8014 32.6191 31.8009 32.8209L31.7561 57.543C31.7556 57.7454 31.8639 57.9333 32.0391 58.0339ZM32.9313 33.8015L43.7479 40.0462L43.7054 63.4621L32.8887 57.218L32.9313 33.8015Z" fill="black"/>
<path d="M37.3558 27.6558L37.3447 30.1405C37.3436 30.344 37.452 30.5319 37.6278 30.6336L46.2731 35.6251C46.4484 35.7261 46.664 35.7259 46.838 35.6257C53.2364 31.9073 55.5606 30.5566 55.4176 30.6397C55.5912 30.5391 55.6978 30.3539 55.699 30.1533C55.6998 29.9557 55.7097 27.549 55.71 27.6652C55.7099 27.6158 55.6851 27.5735 55.6728 27.527C55.6599 27.4783 55.6588 27.4259 55.6339 27.3827C55.5852 27.2985 55.5147 27.227 55.4279 27.1764C55.4277 27.1763 55.428 27.1764 55.4279 27.1764C52.412 25.435 46.5309 22.0392 46.7816 22.184C46.6064 22.0822 46.3903 22.0817 46.214 22.1851L37.6401 27.1677L37.6372 27.1694C37.5029 27.2474 37.3564 27.5421 37.3558 27.6558ZM38.4834 28.6366C38.6307 28.7216 46.4551 33.2393 45.9995 32.9763C45.999 33.0903 45.9939 34.2709 45.9944 34.1569L38.4785 29.8172L38.4834 28.6366ZM47.1266 34.1487C47.1271 34.0347 47.1323 32.8627 47.1318 32.9767C47.4518 32.7907 55.0534 28.373 54.5735 28.6519L54.5685 29.8238L47.1266 34.1487ZM46.4997 23.3282L54.0147 27.6674L46.5663 31.9959L39.0511 27.6569L46.4997 23.3282Z" fill="black"/>
<path d="M42.8508 28.1285L46.3034 30.1212C46.4845 30.2249 46.7006 30.2198 46.8711 30.1201L50.2159 28.1755C50.39 28.0743 50.4978 27.8875 50.4973 27.6857C50.4967 27.4834 50.3889 27.2971 50.2142 27.1959L46.7627 25.2026C46.5875 25.1009 46.3703 25.1015 46.195 25.2038L42.8491 27.149C42.675 27.2501 42.5672 27.4369 42.5678 27.6393C42.5683 27.841 42.6761 28.0273 42.8508 28.1285ZM46.4808 26.3469L48.8025 27.6879L46.5853 28.977L44.2631 27.6365L46.4808 26.3469Z" fill="black"/>
</svg>
