<svg width="93" height="92" viewBox="0 0 93 92" fill="none" xmlns="http://www.w3.org/2000/svg">
<rect x="0.5" width="92" height="92" rx="46" fill="black"/>
<path d="M20.3539 40.3203C20.3544 40.5226 20.4622 40.7089 20.6375 40.8095L23.716 42.5821L23.728 48.0176C23.7286 48.2188 23.8358 48.4046 24.0099 48.5063L26.6842 50.0607C26.9551 50.2176 27.3017 50.1259 27.4581 49.855C27.6156 49.5853 27.5233 49.2381 27.253 49.0812L24.8595 47.6904C24.8525 44.5253 24.8388 38.3849 24.8319 35.2823L33.8548 40.5258L33.8752 52.929L32.3982 52.0705C32.1285 51.9135 31.7813 52.0042 31.6243 52.2762C31.4668 52.5459 31.5591 52.8931 31.8289 53.05C36.7861 55.9354 50.6608 64.0098 56.184 67.2043C56.3563 67.3025 56.5701 67.307 56.7494 67.2032L60.8645 64.8274L63.4789 66.3376C63.6564 66.4409 63.8737 66.4376 64.0466 66.3376L71.2276 62.1641C71.4017 62.0624 71.5095 61.8756 71.509 61.6733C71.5084 61.4721 71.4006 61.2852 71.226 61.1846L69.1997 60.015L72.363 58.1886C72.5388 58.088 72.6466 57.9001 72.646 57.6977L72.6156 43.982L72.6167 43.978C72.6173 43.7762 72.5095 43.5894 72.3348 43.4882C72.2213 43.4223 39.3516 24.3269 40.1613 24.7974C39.9861 24.6945 39.7694 24.6956 39.5942 24.7962C39.4804 24.8619 22.9282 34.4145 23.9806 33.807C23.8054 33.9081 23.697 34.0961 23.6976 34.2984L23.7059 38.0462L20.6358 39.83C20.4611 39.9311 20.3533 40.118 20.3539 40.3203ZM52.152 33.0729L37.6721 41.4311L35.5492 40.198L50.0302 31.8393C50.1448 31.9059 52.2865 33.151 52.152 33.0729ZM58.7775 36.9209L44.2974 45.2797L38.801 42.0869L53.2817 33.7283L58.7775 36.9209ZM62.0199 38.8046L47.549 47.1686L45.4254 45.935L59.9036 37.5785C60.0182 37.645 62.1545 38.8825 62.0199 38.8046ZM44.8803 59.325L44.8599 46.9212L46.9759 48.1508L46.9964 60.5547L44.8803 59.325ZM43.7267 46.2626L43.7472 58.6664L38.2576 55.476L38.2371 43.0725L43.7267 46.2626ZM34.9879 41.1843L37.104 42.414L37.1244 54.8173L35.0084 53.5875L34.9879 41.1843ZM48.1295 61.2134L48.1091 48.8094L55.8705 53.3198L55.8982 65.7284L48.1295 61.2134ZM67.5014 59.6872C67.3866 59.7535 61.0657 63.4044 61.4541 63.18L61.4718 56.8697L67.5191 53.3563L67.5014 59.6872ZM69.8136 61.6755L63.7608 65.1933L62.0146 64.1851C62.1292 64.1185 68.4556 60.4432 68.0677 60.6685L69.8136 61.6755ZM68.6351 59.0343L68.6539 52.3723C68.6545 52.17 68.5467 51.9821 68.3709 51.8815C68.1951 51.7787 67.9784 51.7787 67.8038 51.8815L60.6227 56.0538C60.4486 56.1555 60.3414 56.3412 60.3408 56.5425L60.3202 63.8346L57.0303 65.7339L57.0028 53.3197L71.4858 44.9586L71.5134 57.3727L68.6351 59.0343ZM56.4404 52.3337L48.6768 47.8237L63.1481 39.46L70.9214 43.9758L56.4404 52.3337ZM39.8761 25.9405L48.9012 31.1835L34.4203 39.5422L25.3952 34.2995L39.8761 25.9405ZM23.7075 39.354C23.7079 39.468 23.7134 41.3906 23.7131 41.2744L22.0503 40.317L23.7075 39.354Z" fill="white"/>
<path d="M28.9527 50.0684C28.683 49.9125 28.3359 50.0032 28.1789 50.274C28.0213 50.5438 28.1131 50.8898 28.3834 51.0479L30.0528 52.0186C30.32 52.1737 30.6684 52.0862 30.8266 51.813C30.9842 51.5432 30.8924 51.1972 30.6221 51.0391L28.9527 50.0684Z" fill="white"/>
<path d="M38.8944 34.074C40.4359 33.1878 40.4413 31.5627 38.8905 30.66C37.5456 29.8884 35.4467 29.8895 34.1107 30.6634C32.5657 31.5718 32.6084 33.1998 34.1356 34.074C35.4763 34.855 37.5664 34.854 38.8944 34.074ZM34.6812 31.6407C35.6637 31.0726 37.3355 31.0724 38.3239 31.6401C39.1063 32.0954 39.115 32.6427 38.3278 33.0933L38.3223 33.0967C37.3466 33.6704 35.6905 33.6693 34.7016 33.0933C33.9175 32.6444 33.9098 32.0944 34.6812 31.6407Z" fill="white"/>
</svg>
