<svg width="93" height="92" viewBox="0 0 93 92" fill="none" xmlns="http://www.w3.org/2000/svg">
<rect x="0.5" width="92" height="92" rx="46" fill="black"/>
<path d="M33.684 56.5762C33.951 56.732 34.2991 56.6442 34.4573 56.3711C34.6149 56.1008 34.5226 55.7548 34.2523 55.5978L32.7045 54.6984C32.4353 54.5414 32.0882 54.6326 31.9312 54.9035C31.7736 55.1738 31.8659 55.5198 32.1362 55.6768L33.684 56.5762Z" fill="white"/>
<path d="M73.3686 43.5899L73.3672 43.5892L73.3663 43.5883L73.3652 43.5879L70.4886 41.9161C70.3123 41.8139 70.0962 41.8139 69.9209 41.915L67.6789 43.2098V40.611C67.6789 40.5095 67.6515 40.412 67.6023 40.3272C67.5537 40.2422 67.4832 40.1698 67.3959 40.1191L50.0969 30.0658C49.9206 29.963 49.7044 29.9641 49.5292 30.0647L47.2905 31.3572V28.7585C47.2905 28.5562 47.1827 28.3699 47.008 28.2688C47.0057 28.2674 47.003 28.268 47.0008 28.2668L44.1242 26.595C43.949 26.4927 43.7317 26.4927 43.5565 26.5939L19.6132 40.4176C19.4363 40.52 19.3307 40.7085 19.3302 40.9073L19.3305 40.9084L19.3302 40.9095L19.3501 47.9225C19.3507 48.1238 19.4579 48.3095 19.632 48.4101L22.5125 50.0839C22.6887 50.187 22.9054 50.1853 23.0796 50.085L23.0813 50.0833C23.0865 50.0806 23.0928 50.0819 23.0979 50.0789L25.3154 48.7977L25.3228 51.3934C25.3233 51.5946 25.4306 51.7803 25.6042 51.8809L30.358 54.6437C30.6288 54.8001 30.9743 54.71 31.1319 54.4392C31.2894 54.1689 31.1971 53.8223 30.9273 53.6653L26.4538 51.0656C26.4535 50.951 26.4401 44.9897 26.4409 45.3683C29.4956 47.143 39.547 52.9826 42.6035 54.7583L42.6196 60.4599L36.0593 56.6475C35.789 56.4911 35.4424 56.5823 35.2854 56.852C35.1278 57.1223 35.2202 57.4689 35.4899 57.6259C37.3451 58.7055 41.0556 60.8646 42.9109 61.9441C43.0916 62.0471 43.3078 62.0408 43.4769 61.9419L45.7071 60.6433L45.7145 63.2437C45.7151 63.4449 45.8223 63.6306 45.9964 63.7312C46.0161 63.7427 45.7217 63.5716 48.8786 65.4067C49.0507 65.5058 49.2669 65.5082 49.4441 65.4061L73.3868 51.5824C73.5626 51.4807 73.6704 51.2933 73.6698 51.0905L73.6499 44.0775C73.6492 43.8458 73.4818 43.6556 73.3686 43.5899ZM64.8343 43.3887C64.3706 43.12 64.4028 42.8312 64.8487 42.5734L66.5468 41.5917V43.6337C65.8196 43.7374 65.1787 43.5895 64.8343 43.3887ZM44.4431 31.539C43.9626 31.2586 44.0034 30.9791 44.4514 30.7209C44.5648 30.6555 46.2717 29.6716 46.1584 29.7369V31.7825C45.4274 31.8868 44.7794 31.7342 44.4431 31.539ZM43.8384 27.7381L45.5901 28.7563C45.4768 28.8216 43.7682 29.8055 43.8815 29.7402C42.6964 30.428 42.6332 31.7851 43.8727 32.5207C44.7736 33.0375 46.4938 33.1237 47.5436 32.5185L49.8111 31.209L65.9819 40.6066C65.4638 40.9092 64.517 41.4428 64.1761 41.6637C63.0356 42.3993 63.0965 43.7064 64.2727 44.3737C65.1817 44.8953 66.885 44.9746 67.9359 44.3688L70.2028 43.0593L71.9546 44.0775L49.1419 57.2487L47.3905 56.231C47.5037 56.1656 49.2085 55.1808 49.0953 55.2462C50.2858 54.559 50.3457 53.1902 49.1063 52.4691C48.136 51.9058 46.4504 51.8847 45.4365 52.4685L43.1696 53.778C40.1128 52.0014 30.0577 46.1576 27.002 44.3817C27.1153 44.3163 28.8162 43.3338 28.703 43.3992C29.8424 42.7387 29.9623 41.4807 28.8568 40.7224C27.9836 40.1266 26.3613 39.9416 25.1552 40.575C24.4989 40.9186 23.4522 41.5436 22.7778 41.9277L21.0255 40.9095L43.8384 27.7381ZM20.4811 47.5947L20.465 41.8929L22.2118 42.9078L22.2278 48.6096L20.4811 47.5947ZM23.3776 48.6096L23.3593 42.9078C24.7636 42.1031 25.479 41.6802 25.7174 41.5583C26.378 41.2331 27.4955 41.2258 28.1392 41.595L28.1403 41.5955C28.6069 41.8731 28.6016 42.1471 28.137 42.4153L25.5859 43.8884C25.4459 43.9693 25.3029 44.201 25.3029 44.3782C25.3029 44.4922 25.3116 47.6201 25.3117 47.5061C25.0883 47.6099 25.0499 47.6483 23.3776 48.6096ZM43.7549 60.4699L43.7367 54.7598L46.0009 53.4519C46.5882 53.1115 47.9042 53.0774 48.5447 53.4574C49.0113 53.7141 48.9813 53.9938 48.5226 54.2617C48.4059 54.3294 45.8158 55.8327 45.9776 55.7387C45.8007 55.8412 45.6951 56.0297 45.6946 56.2285L45.6949 56.2296L45.6946 56.2307V56.2335C45.6984 57.5534 45.7038 59.4734 45.7035 59.3572C45.445 59.4686 45.4361 59.4987 43.7549 60.4699ZM46.8295 57.2141L48.576 58.2288L48.5922 63.9308L46.8455 62.9159C46.8411 61.3442 46.8333 58.5753 46.8295 57.2141ZM49.7243 63.9369L49.7083 58.2291L68.2632 47.5161L72.5206 45.0581L72.5366 50.766L49.7243 63.9369Z" fill="white"/>
<path d="M58.4327 44.5562L62.1644 46.7109C62.4323 46.8656 62.7796 46.7767 62.9378 46.5036C63.0942 46.2327 63.0013 45.8867 62.7305 45.7302L58.9987 43.5755C58.7284 43.4197 58.3818 43.5125 58.2254 43.7828C58.069 44.0537 58.1618 44.3997 58.4327 44.5562Z" fill="white"/>
<path d="M55.048 45.6297C54.8916 45.9005 54.9845 46.2465 55.2553 46.403L58.9871 48.5571C59.2549 48.7119 59.6022 48.6229 59.7604 48.3498C59.9168 48.079 59.824 47.7329 59.5531 47.5765L55.8214 45.4224C55.5511 45.2665 55.2045 45.3593 55.048 45.6297Z" fill="white"/>
<path d="M56.3758 49.4228L52.6446 47.2686C52.3743 47.1116 52.0277 47.2045 51.8713 47.4759C51.7148 47.7468 51.8077 48.0928 52.0786 48.2492L55.8098 50.4034C56.0776 50.5581 56.4249 50.4692 56.5831 50.1961C56.7395 49.9252 56.6467 49.5792 56.3758 49.4228Z" fill="white"/>
<path d="M53.1984 51.269L49.4672 49.1149C49.1958 48.9584 48.8498 49.0513 48.6939 49.3222C48.5375 49.593 48.6303 49.939 48.9012 50.0955L52.6324 52.2496C52.9003 52.4044 53.2475 52.3154 53.4057 52.0423C53.5622 51.7715 53.4693 51.4254 53.1984 51.269Z" fill="white"/>
<path d="M34.6266 42.3331L33.9626 42.7188C33.6923 42.8757 33.6 43.2218 33.7575 43.4921C33.9124 43.7594 34.2569 43.8561 34.5309 43.6972L35.7564 42.9854L36.8766 43.6322L36.2124 44.0183C35.9421 44.1753 35.8503 44.5219 36.0079 44.7922C36.1647 45.0621 36.5108 45.154 36.7817 44.9967L38.0066 44.2846L39.1267 44.9313L38.4627 45.3173C38.1924 45.4743 38.1007 45.8209 38.2582 46.0912C38.415 46.3611 38.7611 46.453 39.0321 46.2957L40.2567 45.5838L41.3766 46.2303L40.7125 46.6163C40.4422 46.7733 40.3504 47.1199 40.508 47.3902C40.6648 47.6601 41.0109 47.752 41.2819 47.5947L42.5066 46.8827L44.4818 48.0231C44.6556 48.1232 44.8717 48.1254 45.0495 48.022L55.4306 41.9891C55.6047 41.8879 55.7125 41.7011 55.7119 41.4993C55.7114 41.297 55.6036 41.1107 55.4289 41.0096L54.0354 40.205L54.7208 39.8068C54.9911 39.6498 55.0834 39.3037 54.9259 39.0334C54.7684 38.762 54.4207 38.6714 54.1526 38.8283L52.9057 39.5528L51.7854 38.9059L52.4711 38.5077C52.7414 38.3508 52.8337 38.0047 52.6761 37.7344C52.5186 37.463 52.1726 37.3723 51.9028 37.5293L50.6556 38.2537L49.5354 37.6069L50.2207 37.2087C50.491 37.0517 50.5833 36.7057 50.4258 36.4354C50.2688 36.164 49.9195 36.0733 49.6525 36.2303L48.4058 36.9547L47.2853 36.3078L47.9709 35.9092C48.2412 35.7522 48.333 35.4056 48.1755 35.1353C48.0185 34.865 47.6713 34.7738 47.4016 34.9308L46.1552 35.6553L44.6322 34.776C44.4564 34.6748 44.2403 34.6737 44.0645 34.7771L33.6835 40.81C33.5093 40.9112 33.4015 41.098 33.4021 41.2998C33.4027 41.5021 33.5104 41.6884 33.6851 41.7895L34.6266 42.3331ZM44.3503 35.9202L54.0166 41.5015L44.7638 46.8789C43.8376 46.3441 34.5066 40.9564 35.0975 41.2976L44.3503 35.9202Z" fill="white"/>
</svg>
