<svg width="93" height="92" viewBox="0 0 93 92" fill="none" xmlns="http://www.w3.org/2000/svg">
<rect x="0.5" width="92" height="92" rx="46" fill="black"/>
<path d="M58.3055 58.5666L60.3027 57.4058C60.573 57.2488 60.6648 56.9022 60.5072 56.6319C60.3497 56.3616 60.0036 56.2693 59.7333 56.4274L57.7362 57.5882C57.4659 57.7452 57.3741 58.0918 57.5317 58.3621C57.6367 58.5429 57.8263 58.6435 58.0214 58.6435C58.1181 58.6435 58.216 58.6186 58.3055 58.5666Z" fill="white"/>
<path d="M46.29 65.2203C46.463 65.32 46.678 65.3224 46.8554 65.2209C46.8561 65.2205 46.8563 65.2198 46.8569 65.2194C46.8567 65.2196 46.8571 65.2193 46.8569 65.2194L55.9281 59.948C56.1978 59.791 56.2901 59.4444 56.1326 59.1741C55.9751 58.9033 55.6274 58.8126 55.3587 58.9696L47.1423 63.7444C47.1429 63.5619 47.161 58.0989 47.16 58.4038L65.353 47.8311L72.5344 43.6578L72.5167 48.9987L61.7852 55.2351C61.5155 55.3921 61.4232 55.7387 61.5807 56.009C61.7371 56.2787 62.0832 56.3694 62.3546 56.2135L73.3663 49.8141C73.5399 49.7134 73.6472 49.5277 73.6477 49.3265L73.6698 42.6739C73.6698 42.6735 73.6695 42.6732 73.6695 42.6728C73.6695 42.6724 73.6698 42.6721 73.6698 42.6717C73.6697 42.6188 73.644 42.5733 73.63 42.5238C73.6172 42.4788 73.6169 42.4295 73.5937 42.3892C73.5448 42.3046 73.4743 42.2326 73.3868 42.1819L46.7101 26.7801C46.5343 26.6784 46.3181 26.6784 46.1424 26.7812L19.6371 42.1844C19.6367 42.1846 19.6362 42.1845 19.6359 42.1847C19.6355 42.1849 19.6353 42.1854 19.635 42.1856L19.6337 42.1864C19.4336 42.3026 19.3526 42.5605 19.3523 42.6739L19.3302 49.3265C19.3296 49.5294 19.4374 49.7168 19.6132 49.8185L46.29 65.2203ZM20.4811 43.6542L46.0279 58.4037C46.0273 58.6058 46.0094 63.982 46.0102 63.7516L20.4634 49.002L20.4811 43.6542ZM46.4282 27.9243L71.9745 42.6739L46.5943 57.4232L21.0477 42.6739L46.4282 27.9243Z" fill="white"/>
<path d="M55.7257 45.8583L56.4311 45.451C56.6058 45.3499 56.7136 45.1636 56.7141 44.9613C56.7141 44.7595 56.6069 44.5727 56.4328 44.4715L54.173 43.1587C53.9978 43.0559 53.7811 43.057 53.6059 43.1576L52.3376 43.8897L42.9722 38.4469C42.7959 38.344 42.5798 38.3452 42.4045 38.4458L40.2974 39.6624C40.1227 39.7636 40.0143 39.9498 40.0143 40.1522C40.0138 40.3539 40.1216 40.5408 40.2963 40.6419L49.1009 45.7582L48.4015 46.1619C48.2269 46.263 48.1191 46.4493 48.1185 46.6511C48.118 46.8534 48.2258 47.0402 48.3999 47.1414L50.6596 48.4548C50.8372 48.558 51.0533 48.5561 51.2273 48.4559L52.4889 47.7274L55.0365 49.2077C55.2127 49.3107 55.4294 49.3091 55.6036 49.2088L57.7102 47.9921C57.8849 47.891 57.9932 47.7047 57.9932 47.5024C57.9932 47.3006 57.886 47.1138 57.7119 47.0126L55.7257 45.8583ZM41.7097 40.1544L42.6864 39.59L51.2073 44.5422L50.2309 45.1059L41.7097 40.1544ZM50.9454 47.3117L49.8139 46.6539C52.9744 44.8295 53.9981 44.2381 53.8878 44.3018L55.0188 44.9591C52.538 46.3915 50.8238 47.3819 50.9454 47.3117ZM55.3217 48.0645L53.6186 47.0751L54.5957 46.5109L56.2979 47.5001L55.3217 48.0645Z" fill="white"/>
<path d="M47.6 35.772C47.5995 35.9743 47.7073 36.1612 47.8814 36.2623L49.7612 37.355L49.0621 37.7587C48.8874 37.8598 48.7797 38.0461 48.7791 38.2484C48.7791 38.4502 48.8863 38.637 49.061 38.7382L51.3207 40.051C51.497 40.1541 51.7136 40.1525 51.8879 40.0521L53.1493 39.3239L62.6216 44.8281C62.7931 44.9284 63.0086 44.9323 63.1887 44.8292L65.3025 43.6092C65.4772 43.508 65.585 43.3218 65.5856 43.12C65.5861 42.9177 65.4783 42.7309 65.3042 42.6297L56.3935 37.4511L57.0922 37.0478C57.2669 36.9467 57.3747 36.7604 57.3752 36.5586C57.3758 36.3563 57.268 36.1695 57.0939 36.0683L54.8342 34.7549C54.6578 34.6521 54.4417 34.6532 54.2665 34.7538L53.0049 35.4822L50.564 34.0639C50.3882 33.9617 50.1726 33.9617 49.9969 34.0628L47.8831 35.2828C47.7084 35.384 47.6006 35.5703 47.6 35.772ZM63.8902 43.1172L62.9068 43.6849L54.2795 38.6715L55.2634 38.1035L63.8902 43.1172ZM54.5484 35.898L55.6799 36.5558L54.983 36.9582L54.9806 36.9588C54.8028 37.0616 51.3955 39.0295 51.606 38.9079L50.4744 38.2506C52.7584 36.9321 53.2436 36.6515 54.5484 35.898ZM50.2788 35.2071L51.875 36.1346L50.8912 36.7026L49.2954 35.7748L50.2788 35.2071Z" fill="white"/>
<path d="M42.9434 47.2176L43.6488 46.8103C43.8235 46.7091 43.9313 46.5229 43.9318 46.3205C43.9318 46.1188 43.8246 45.9319 43.6505 45.8308L41.3907 44.5179C41.2155 44.4151 40.9988 44.4162 40.8236 44.5168L39.5555 45.2489L35.3871 42.8265C35.2107 42.7242 34.9946 42.7242 34.8194 42.8254L32.7122 44.042C32.5375 44.1432 32.4298 44.3295 32.4292 44.5318C32.4286 44.7335 32.5364 44.9204 32.7106 45.0215L36.3179 47.1178L35.6192 47.5212C35.4446 47.6223 35.3368 47.8086 35.3362 48.0104C35.3357 48.2127 35.4435 48.3995 35.6176 48.5007L37.8773 49.8141C38.0549 49.9173 38.271 49.9154 38.445 49.8152L39.7062 49.0869L47.4502 53.5873C47.6278 53.6905 47.8439 53.6886 48.0179 53.5884L50.1251 52.3717C50.2997 52.2706 50.4075 52.0843 50.4081 51.882C50.4086 51.6802 50.3008 51.4934 50.1267 51.3922L42.9434 47.2176ZM34.1246 44.534L35.1013 43.9696L38.4252 45.9013L37.4481 46.4654L34.1246 44.534ZM38.1631 48.6709L37.0316 48.0131C37.334 47.8385 41.3619 45.513 41.1055 45.6611L42.2365 46.3183C42.0968 46.399 37.9084 48.818 38.1631 48.6709ZM47.736 52.4441L40.8363 48.4343L41.8134 47.8702L48.7127 51.8798L47.736 52.4441Z" fill="white"/>
<path d="M29.264 42.4478C30.2293 43.0085 31.7306 42.9997 32.6851 42.4489C33.8531 41.7752 33.8578 40.4924 32.6956 39.8172C31.7388 39.2611 30.2364 39.2611 29.2751 39.8161C28.1056 40.492 28.11 41.7781 29.264 42.4478ZM29.8411 40.7967C30.4515 40.4435 31.5212 40.4441 32.1268 40.7956C32.5137 41.0212 32.5441 41.2232 32.1191 41.4683C31.5061 41.821 30.4381 41.8215 29.8328 41.4689C29.4244 41.2323 29.4449 41.0254 29.8411 40.7967Z" fill="white"/>
<path d="M34.0776 39.6508C35.0328 40.2062 36.5346 40.2079 37.4981 39.6519C38.6663 38.9781 38.6715 37.695 37.5092 37.0202C36.5523 36.4646 35.0505 36.4635 34.0881 37.0191C32.9243 37.6912 32.9185 38.9777 34.0776 39.6508ZM34.6541 37.9997C35.2655 37.6465 36.3346 37.6465 36.9404 37.9986C37.3278 38.2236 37.3571 38.4262 36.9321 38.6713C36.3213 39.0245 35.2522 39.024 34.6469 38.6724C34.2643 38.4494 34.2315 38.2437 34.6541 37.9997Z" fill="white"/>
<path d="M38.8906 36.8538C39.8469 37.4093 41.3488 37.4108 42.3111 36.8549C43.4826 36.1787 43.4812 34.8961 42.3222 34.2231C41.3653 33.6676 39.8629 33.6665 38.9016 34.222C37.7332 34.8961 37.7351 36.1828 38.8906 36.8538ZM39.4676 35.2027C40.078 34.8495 41.1477 34.8501 41.7534 35.2015C42.1372 35.4251 42.1735 35.6273 41.7451 35.8743C41.1337 36.228 40.0657 36.2269 39.4599 35.8754C39.0766 35.652 39.0448 35.4462 39.4676 35.2027Z" fill="white"/>
<path d="M43.7035 34.0568C44.6599 34.6122 46.1618 34.6138 47.1241 34.0579C48.2956 33.3817 48.2942 32.099 47.1351 31.4261C46.1777 30.8706 44.6753 30.8695 43.7146 31.425C42.5448 32.1011 42.55 33.3862 43.7035 34.0568ZM44.2806 32.4056C44.891 32.0524 45.9607 32.0531 46.5663 32.4045C46.9502 32.6281 46.9865 32.8302 46.5581 33.0773C45.9467 33.431 44.8787 33.4299 44.2729 33.0784C43.882 32.8516 43.8651 32.6455 44.2806 32.4056Z" fill="white"/>
</svg>
