<svg width="93" height="92" viewBox="0 0 93 92" fill="none" xmlns="http://www.w3.org/2000/svg">
<rect x="0.5" width="92" height="92" rx="46" fill="black"/>
<path d="M56.9364 56.7233L59.3912 55.2966C59.661 55.1397 59.7533 54.7931 59.5958 54.5228C59.4388 54.2519 59.0916 54.1613 58.8219 54.3182L56.367 55.7449C56.0973 55.9019 56.005 56.2485 56.1625 56.5188C56.2675 56.6996 56.4571 56.8002 56.6523 56.8002C56.749 56.8002 56.8468 56.7753 56.9364 56.7233Z" fill="white"/>
<path d="M72.7998 40.2657L51.7292 28.1003C50.7901 27.5608 49.3186 27.5674 48.3816 28.1136L20.2074 44.4916C19.6536 44.8006 19.3357 45.2755 19.3357 45.7951C19.3357 45.8099 19.341 45.8322 19.3417 45.8483L19.3302 50.435C19.3302 50.9469 19.648 51.4179 20.1947 51.7235L41.2537 63.8889C41.7313 64.1631 42.3305 64.3002 42.9302 64.3002C43.5311 64.3002 44.1325 64.1626 44.6129 63.8873L54.2504 58.2849C54.5207 58.128 54.6125 57.7814 54.4549 57.5111C54.2974 57.2402 53.9497 57.1479 53.6811 57.3065L44.0468 62.9072C43.4415 63.2532 42.4211 63.2538 41.818 62.9078L20.7541 50.7391C20.5402 50.6197 20.4623 50.492 20.4623 50.4367L20.47 47.2394L41.2586 59.2484C41.7324 59.5204 42.3376 59.6558 42.9413 59.6558L42.9442 59.6555C43.5503 59.656 44.1552 59.5202 44.6245 59.2468L72.5306 43.0246L72.5151 46.2168C72.5151 46.2848 72.4416 46.4053 72.2265 46.5258L61.076 53.0076C60.8057 53.1646 60.714 53.5112 60.8715 53.7815C61.0274 54.0518 61.3745 54.143 61.6454 53.986L72.7876 47.5092C73.3337 47.2035 73.6472 46.7326 73.6472 46.2196L73.6698 41.5769C73.6698 41.573 73.6698 41.5691 73.6698 41.5653C73.6698 41.5438 73.66 41.5256 73.6577 41.5048C73.644 41.1985 73.5098 40.6828 72.7998 40.2657ZM20.768 45.475L48.9516 29.092C49.2495 28.9179 49.6613 28.8311 50.0715 28.8311C50.4733 28.8311 50.8735 28.9145 51.1648 29.0815L72.2299 41.2441C72.4532 41.3751 72.5322 41.4989 72.5322 41.5653C72.5322 41.6388 72.4499 41.72 72.3691 41.7908C72.3459 41.8135 72.2735 41.8593 72.2321 41.8859L44.049 58.2684C43.7556 58.4385 43.3496 58.5237 42.9423 58.5242C42.5348 58.5236 42.1266 58.4382 41.8291 58.2673L20.7762 46.1057C20.7588 46.0955 20.7487 46.0862 20.7331 46.0762C20.6631 46.0307 20.6077 45.987 20.5686 45.9469C20.5495 45.9273 20.5327 45.9094 20.5204 45.8924C20.4995 45.8633 20.4851 45.8381 20.4806 45.8187C20.4784 45.8108 20.4739 45.8007 20.4739 45.7951C20.4739 45.7919 20.4722 45.7893 20.4721 45.7861C20.477 45.7149 20.5513 45.5959 20.768 45.475Z" fill="white"/>
<path d="M42.5035 41.6112C42.5909 41.6615 42.6887 41.6869 42.7865 41.6869C42.8849 41.6869 42.9833 41.6615 43.0712 41.61L46.5382 39.5952C46.7123 39.494 46.8201 39.3072 46.8196 39.1054C46.819 38.9031 46.7112 38.7168 46.5365 38.6157L43.0546 36.6053C42.8788 36.5035 42.6622 36.5035 42.4875 36.6064L39.02 38.6212C38.8453 38.7224 38.7375 38.9092 38.738 39.111C38.7386 39.3133 38.8464 39.4996 39.0211 39.6007L42.5035 41.6112ZM42.7727 37.7495L45.1242 39.1077L42.7854 40.4669L40.4334 39.1088L42.7727 37.7495Z" fill="white"/>
<path d="M48.5104 40.0838L45.0434 42.0987C44.8693 42.1999 44.7615 42.3867 44.7621 42.5884C44.7626 42.7908 44.8704 42.977 45.0451 43.0782L48.527 45.0886C48.6143 45.1389 48.7122 45.1644 48.81 45.1644C48.9084 45.1644 49.0063 45.1389 49.0947 45.0875L52.5617 43.0727C52.7358 42.9715 52.8436 42.7847 52.843 42.5829C52.8425 42.3806 52.7347 42.1943 52.56 42.0932L49.0781 40.0827C48.9023 39.981 48.6862 39.981 48.5104 40.0838ZM48.8089 43.9444L46.4574 42.5862L48.7962 41.227L51.1477 42.5851L48.8089 43.9444Z" fill="white"/>
<path d="M48.8914 47.1781C48.7156 47.0764 48.4994 47.0764 48.3237 47.1792L44.8567 49.1941C44.6826 49.2952 44.5748 49.4821 44.5753 49.6838C44.5759 49.8861 44.6837 50.0724 44.8583 50.1736L48.3402 52.184C48.4276 52.2343 48.5254 52.2597 48.6233 52.2597C48.7217 52.2597 48.8195 52.2343 48.9079 52.1829L52.3749 50.168C52.549 50.0669 52.6568 49.88 52.6563 49.6783C52.6557 49.476 52.5479 49.2897 52.3733 49.1885L48.8914 47.1781ZM48.6222 51.0398L46.2707 49.6816L48.6094 48.3223L50.9609 49.6805L48.6222 51.0398Z" fill="white"/>
<path d="M55.1089 43.5646C54.9331 43.4635 54.7159 43.4624 54.5412 43.5657L51.0742 45.5806C50.9001 45.6818 50.7923 45.8686 50.7928 46.0704C50.7934 46.2727 50.9012 46.4589 51.0759 46.5601L54.5583 48.5705C54.6457 48.6208 54.7435 48.6463 54.8413 48.6463C54.9397 48.6463 55.0381 48.6208 55.126 48.5694L58.593 46.5546C58.7671 46.4534 58.8749 46.2666 58.8744 46.0648C58.8738 45.8625 58.766 45.6762 58.5913 45.5751L55.1089 43.5646ZM54.8402 47.4263L52.4882 46.0681L54.827 44.7089L57.179 46.067L54.8402 47.4263Z" fill="white"/>
<path d="M36.2853 45.2246C36.3727 45.2749 36.4705 45.3003 36.5683 45.3003C36.6667 45.3003 36.7646 45.2749 36.853 45.2235L40.32 43.2087C40.4941 43.1075 40.6019 42.9207 40.6013 42.7189C40.6008 42.5166 40.493 42.3303 40.3183 42.2292L36.8364 40.2187C36.6606 40.1176 36.4445 40.1165 36.2687 40.2198L32.8017 42.2347C32.6276 42.3358 32.5198 42.5227 32.5204 42.7244C32.5209 42.9267 32.6287 43.113 32.8034 43.2142L36.2853 45.2246ZM36.5545 41.363L38.906 42.7211L36.5672 44.0804L34.2157 42.7222L36.5545 41.363Z" fill="white"/>
<path d="M42.2923 43.6973L38.8253 45.7122C38.6512 45.8133 38.5434 46.0002 38.5439 46.2019C38.5445 46.4042 38.6523 46.5905 38.827 46.6917L42.3089 48.7021C42.3962 48.7524 42.4941 48.7778 42.5919 48.7778C42.6903 48.7778 42.7881 48.7524 42.8766 48.701L46.3435 46.6861C46.5177 46.585 46.6255 46.3981 46.6249 46.1964C46.6244 45.9941 46.5166 45.8078 46.3419 45.7066L42.86 43.6962C42.6842 43.5945 42.4681 43.5945 42.2923 43.6973ZM42.5908 47.5579L40.2393 46.1997L42.5781 44.8404L44.9296 46.1986L42.5908 47.5579Z" fill="white"/>
<path d="M30.0672 48.8381C30.1545 48.8884 30.2524 48.9138 30.3502 48.9138C30.4486 48.9138 30.5464 48.8884 30.6349 48.837L34.1019 46.8221C34.276 46.721 34.3838 46.5341 34.3832 46.3324C34.3827 46.1301 34.2749 45.9438 34.1002 45.8426L30.6183 43.8322C30.4431 43.7305 30.2269 43.7305 30.0506 43.8333L26.5836 45.8481C26.4095 45.9493 26.3017 46.1361 26.3022 46.3379C26.3028 46.5402 26.4106 46.7265 26.5853 46.8277L30.0672 48.8381ZM30.3364 44.9764L32.6879 46.3346L30.3491 47.6938L27.9976 46.3357L30.3364 44.9764Z" fill="white"/>
<path d="M42.6732 50.7921C42.4974 50.691 42.2813 50.6899 42.1055 50.7932L38.6385 52.8081C38.4644 52.9092 38.3566 53.0961 38.3572 53.2978C38.3577 53.5001 38.4655 53.6864 38.6402 53.7876L42.1221 55.798C42.2094 55.8483 42.3073 55.8737 42.4051 55.8737C42.5035 55.8737 42.6014 55.8483 42.6898 55.7969L46.1568 53.7821C46.3309 53.6809 46.4387 53.4941 46.4381 53.2923C46.4376 53.09 46.3298 52.9037 46.1551 52.8025L42.6732 50.7921ZM42.404 54.6538L40.0525 53.2956L42.3913 51.9364L44.7428 53.2945L42.404 54.6538Z" fill="white"/>
<path d="M40.4073 49.8098C40.4068 49.6075 40.299 49.4213 40.1243 49.3201L36.6418 47.3097C36.4661 47.2085 36.2488 47.2074 36.0741 47.3108L32.6072 49.3256C32.433 49.4268 32.3253 49.6136 32.3258 49.8154C32.3264 50.0177 32.4342 50.204 32.6088 50.3051L36.0907 52.3156C36.1781 52.3659 36.2759 52.3913 36.3738 52.3913C36.4721 52.3913 36.57 52.3659 36.6579 52.3145L40.1254 50.2996C40.3001 50.1984 40.4079 50.0116 40.4073 49.8098ZM36.3726 51.1713L34.0212 49.8132L36.3599 48.4539L38.712 49.8121L36.3726 51.1713Z" fill="white"/>
<path d="M54.0851 41.5796C54.5102 41.8273 55.0574 41.9506 55.6047 41.9506C56.1513 41.9506 56.6986 41.8273 57.1259 41.5807C57.6311 41.2889 57.9213 40.8483 57.9224 40.3724C57.923 39.8981 57.6361 39.4592 57.1353 39.1679C56.2846 38.6754 54.9496 38.6737 54.0945 39.1673C53.5865 39.4603 53.2946 39.9009 53.2941 40.3757C53.293 40.8483 53.5815 41.2872 54.0851 41.5796ZM54.6605 40.148C54.9153 40.0009 55.2658 39.9269 55.6163 39.9269C55.9656 39.9269 56.3144 40.0004 56.567 40.1469C56.7494 40.253 56.7903 40.3464 56.7903 40.3707C56.7898 40.3956 56.7478 40.4918 56.5598 40.6001C56.0513 40.8953 55.1597 40.8953 54.6533 40.6012C54.4814 40.5012 54.4261 40.4072 54.4261 40.3774C54.4261 40.3464 54.4831 40.2502 54.6605 40.148Z" fill="white"/>
<path d="M52.9957 36.7628C52.1416 36.2664 50.8039 36.2636 49.9488 36.7578C49.4413 37.0513 49.1495 37.4913 49.1489 37.9651C49.1484 38.4388 49.4386 38.8793 49.9455 39.174C50.3678 39.42 50.9117 39.5427 51.4567 39.5427C52.0034 39.5427 52.5523 39.4188 52.9802 39.1718C53.4876 38.8782 53.7789 38.4371 53.7795 37.9612C53.78 37.4891 53.4943 37.0524 52.9957 36.7628ZM52.4141 38.1911C51.9045 38.4863 51.0162 38.4863 50.5143 38.1956C50.3202 38.0828 50.281 37.9866 50.281 37.9667C50.281 37.9468 50.3208 37.8506 50.5148 37.7384C51.0256 37.4449 51.9183 37.4466 52.4269 37.7412C52.5932 37.8385 52.6474 37.9302 52.6474 37.9601C52.6474 37.9916 52.5899 38.0894 52.4141 38.1911Z" fill="white"/>
<path d="M45.7991 36.7645C46.2313 37.016 46.7747 37.142 47.3186 37.142C47.862 37.142 48.4059 37.0165 48.8404 36.7656C49.3473 36.4731 49.6381 36.0326 49.6386 35.5567C49.6392 35.0835 49.3517 34.6446 48.8493 34.3533C48.0008 33.8602 46.6647 33.8591 45.8085 34.3522C45.3005 34.6457 45.0086 35.0862 45.0081 35.5605C45.0075 36.0337 45.2961 36.4726 45.7991 36.7645ZM46.3745 35.3328C46.8842 35.0387 47.7758 35.0382 48.281 35.3322C48.4518 35.4312 48.5065 35.5251 48.5065 35.555C48.5065 35.5865 48.4496 35.6838 48.2744 35.7849C47.7647 36.0801 46.8742 36.0807 46.3679 35.7855C46.196 35.686 46.1401 35.592 46.1401 35.5622C46.1401 35.5312 46.1976 35.435 46.3745 35.3328Z" fill="white"/>
<path d="M57.6223 37.8766C57.6218 38.3498 57.9103 38.7887 58.4139 39.0806C58.839 39.3277 59.3857 39.4515 59.9329 39.4515C60.4801 39.4515 61.0274 39.3282 61.4547 39.0817C61.9599 38.7898 62.2501 38.3493 62.2512 37.8733C62.2518 37.399 61.9649 36.9601 61.4646 36.6694C60.615 36.1752 59.279 36.1752 58.4227 36.6683C57.9147 36.9618 57.6229 37.4024 57.6223 37.8766ZM58.9888 37.6489C59.2441 37.5013 59.5946 37.4278 59.9445 37.4278C60.2939 37.4278 60.6427 37.5013 60.8958 37.6478C61.0782 37.7539 61.1191 37.8473 61.1191 37.8717C61.1186 37.8965 61.0766 37.9927 60.8886 38.1011C60.3801 38.3957 59.4885 38.3962 58.9821 38.1016C58.8102 38.0021 58.7544 37.9081 58.7544 37.8783C58.7544 37.8473 58.8119 37.7512 58.9888 37.6489Z" fill="white"/>
<path d="M61.5829 41.7361C60.7333 41.2419 59.3984 41.2419 58.541 41.735C58.033 42.0285 57.7412 42.469 57.7406 42.9433C57.74 43.4165 58.0286 43.8554 58.5322 44.1473C58.9573 44.3943 59.5039 44.5182 60.0512 44.5182C60.5984 44.5182 61.1457 44.3949 61.573 44.1484C62.0782 43.8565 62.3684 43.4159 62.3695 42.94C62.3701 42.4657 62.0832 42.0268 61.5829 41.7361ZM61.0069 43.1677C60.4978 43.4624 59.6062 43.4629 59.1004 43.1683C58.9285 43.0688 58.8727 42.9748 58.8727 42.945C58.8727 42.914 58.9302 42.8178 59.1071 42.7156C59.6184 42.421 60.5094 42.4221 61.0141 42.7145C61.1965 42.8206 61.2374 42.914 61.2374 42.9383C61.2369 42.9632 61.1949 43.0594 61.0069 43.1677Z" fill="white"/>
<path d="M62.8609 41.6482C63.286 41.8953 63.8327 42.0191 64.3799 42.0191C64.9272 42.0191 65.4744 41.8958 65.9017 41.6493C66.4069 41.3574 66.6971 40.9174 66.6977 40.4409C66.6982 39.9667 66.4114 39.5278 65.9111 39.237C65.0615 38.7428 63.726 38.7417 62.8697 39.2359C62.3618 39.5294 62.0699 39.9694 62.0693 40.4437C62.0688 40.9169 62.3568 41.3558 62.8609 41.6482ZM63.4358 40.2165C63.6912 40.0689 64.0416 39.9954 64.3915 39.9954C64.7409 39.9954 65.0897 40.0684 65.3423 40.2154C65.5247 40.3215 65.5656 40.415 65.5656 40.4393C65.5656 40.4647 65.5231 40.5603 65.3357 40.6687C64.826 40.9628 63.9349 40.9639 63.4297 40.6698C63.2572 40.5692 63.2014 40.4752 63.2014 40.4459C63.2014 40.415 63.2589 40.3188 63.4358 40.2165Z" fill="white"/>
<path d="M53.4777 35.466C53.4766 35.9397 53.7668 36.3803 54.2737 36.6749C54.6965 36.9209 55.2399 37.0436 55.7849 37.0436C56.3322 37.0436 56.8805 36.9198 57.3089 36.6727C57.8164 36.3797 58.1071 35.9386 58.1082 35.4621C58.1088 34.99 57.823 34.5534 57.3238 34.2626C56.4709 33.7679 55.1327 33.7662 54.2775 34.2587C53.7701 34.5523 53.4782 34.9923 53.4777 35.466ZM54.8436 35.2393C55.3538 34.9464 56.247 34.9464 56.755 35.2416C56.922 35.3388 56.9762 35.4312 56.9762 35.461C56.9756 35.4925 56.9187 35.5904 56.7429 35.6921C56.2332 35.9872 55.3455 35.9895 54.8425 35.6965C54.6667 35.5942 54.6097 35.498 54.6097 35.4676C54.6097 35.4372 54.6672 35.3411 54.8436 35.2393Z" fill="white"/>
<path d="M50.1284 34.2654C50.5606 34.5169 51.1034 34.6424 51.6474 34.6424C52.1908 34.6424 52.7347 34.5169 53.1692 34.2665C53.676 33.9741 53.9668 33.5335 53.9674 33.0576C53.9679 32.5844 53.6805 32.1455 53.178 31.8542C52.3289 31.3611 50.9929 31.36 50.1372 31.8531C49.6292 32.1466 49.3373 32.5872 49.3368 33.0614C49.3362 33.5346 49.6248 33.9735 50.1284 34.2654ZM50.7032 32.8337C51.2135 32.5391 52.1051 32.5396 52.6098 32.8331C52.7806 32.9321 52.8353 33.0261 52.8353 33.0559C52.8353 33.0874 52.7783 33.1847 52.6031 33.2859C52.0929 33.5805 51.2024 33.581 50.6966 33.2864C50.5247 33.1869 50.4689 33.0929 50.4689 33.0631C50.4689 33.0321 50.5264 32.936 50.7032 32.8337Z" fill="white"/>
</svg>
