<svg width="93" height="92" viewBox="0 0 93 92" fill="none" xmlns="http://www.w3.org/2000/svg">
<rect x="0.5" width="92" height="92" rx="46" fill="black"/>
<path d="M59.9721 44.1677L50.2074 49.8419C50.0333 49.9425 49.926 50.1282 49.9255 50.3294L49.9133 54.908C49.9128 55.1109 50.0206 55.2983 50.1964 55.4C50.2842 55.4503 50.3815 55.4757 50.4794 55.4757C50.5778 55.4757 50.6762 55.4503 50.764 55.3989L60.5282 49.7242C60.7018 49.6236 60.809 49.4378 60.8096 49.2366L60.8223 44.6586C60.8228 44.4557 60.715 44.2683 60.5393 44.1666C60.364 44.0654 60.1473 44.0643 59.9721 44.1677ZM59.6786 48.9088L51.0482 53.9247L51.0565 50.6572L59.6874 45.6419L59.6786 48.9088Z" fill="white"/>
<path d="M59.5852 51.8463L57.7091 52.9364C57.4388 53.0934 57.3465 53.4394 57.504 53.7097C57.6091 53.891 57.7987 53.9916 57.9938 53.9916C58.0905 53.9916 58.1884 53.9668 58.2774 53.9148L60.1535 52.8247C60.4238 52.6677 60.5161 52.3217 60.3586 52.0514C60.201 51.7794 59.8528 51.6888 59.5852 51.8463Z" fill="white"/>
<path d="M56.0077 53.9252L54.1316 55.0153C53.8613 55.1722 53.769 55.5183 53.9265 55.7886C54.0316 55.9699 54.2212 56.0705 54.4163 56.0705C54.513 56.0705 54.6109 56.0456 54.6999 55.9937L56.576 54.9036C56.8463 54.7466 56.9386 54.4006 56.781 54.1303C56.6235 53.8583 56.2758 53.7671 56.0077 53.9252Z" fill="white"/>
<path d="M52.4308 56.0042L50.5541 57.0942C50.2838 57.2512 50.1915 57.5973 50.349 57.8676C50.454 58.0489 50.6436 58.1495 50.8388 58.1495C50.9355 58.1495 51.0328 58.1246 51.1223 58.0726L52.999 56.9826C53.2693 56.8256 53.3616 56.4795 53.2041 56.2092C53.046 55.9378 52.7 55.8466 52.4308 56.0042Z" fill="white"/>
<path d="M73.63 33.1037C73.6172 33.0587 73.6169 33.0094 73.5937 32.9691C73.5448 32.8845 73.4743 32.8125 73.3868 32.7618L55.6506 22.5223C55.4748 22.4212 55.2576 22.42 55.0829 22.5234L49.7492 25.6234C49.4789 25.7803 49.3871 26.1269 49.5447 26.3972C49.7017 26.6675 50.0482 26.7571 50.3186 26.6018L55.3687 23.6665L71.9745 33.2538L37.672 53.1882L21.066 43.6011L44.138 30.1931C44.4078 30.0361 44.5001 29.6895 44.3425 29.4192C44.185 29.1484 43.839 29.0572 43.5687 29.2147L19.6519 43.1136C19.5942 43.1472 19.5567 43.2012 19.5151 43.251C19.4943 43.2759 19.463 43.2917 19.4468 43.3196C19.4185 43.3686 19.4153 43.4274 19.4026 43.483C19.3934 43.5232 19.3707 43.5589 19.3706 43.6011L19.3302 58.7465C19.3296 58.9494 19.4374 59.1368 19.6132 59.2385L37.3489 69.478C37.4362 69.5283 37.5341 69.5537 37.6319 69.5537C37.7292 69.5537 37.827 69.5283 37.9144 69.478C37.9141 69.4782 37.9146 69.4779 37.9144 69.478C37.9149 69.4777 37.9161 69.4772 37.9166 69.4769L73.3476 48.8867C73.5211 48.7861 73.6284 48.6004 73.6289 48.3992L73.6698 33.2538C73.6698 33.2534 73.6695 33.2531 73.6695 33.2527C73.6695 33.2523 73.6698 33.252 73.6698 33.2516C73.6697 33.1987 73.644 33.1532 73.63 33.1037ZM20.4999 44.5818L25.7368 47.6051L37.1057 54.1686L37.082 63.0145L37.0685 68.0087L20.4634 58.422L20.4999 44.5818ZM38.2007 68.0027L38.2119 63.8307L38.2379 54.1685L72.535 34.2373L72.4979 48.0714L38.2007 68.0027Z" fill="white"/>
<path d="M46.0312 29.0931L48.4093 27.7106C48.6796 27.5536 48.7713 27.207 48.6138 26.9367C48.4562 26.6659 48.1102 26.5752 47.8399 26.7322L45.4619 28.1147C45.1916 28.2717 45.0998 28.6183 45.2574 28.8886C45.3624 29.0693 45.552 29.1699 45.7471 29.1699C45.8439 29.1699 45.9417 29.1451 46.0312 29.0931Z" fill="white"/>
<path d="M47.4143 54.6124C47.4041 54.6065 47.3921 54.6056 47.3818 54.5999L45.0341 53.2321C44.3365 52.8181 43.446 52.8866 42.5306 53.4195C40.8468 54.3763 39.5373 56.6477 39.55 58.5868C39.55 59.6022 39.9414 60.412 40.6235 60.8084L43.0082 62.1981L43.0126 62.2008L43.0151 62.2015L43.0198 62.2052C43.3199 62.3777 43.6543 62.4634 44.0098 62.4634C44.4796 62.4634 44.9871 62.3136 45.5023 62.0162C47.1854 61.0444 48.4999 58.7747 48.4944 56.8489C48.4916 55.8058 48.1075 55.012 47.4143 54.6124ZM41.1934 59.83C40.8684 59.6409 40.6821 59.1882 40.6821 58.5829C40.6721 57.065 41.7749 55.1508 43.0949 54.4007C43.4393 54.2 43.7577 54.0983 44.0291 54.0983C44.1911 54.0983 44.337 54.1348 44.4608 54.2083L45.2159 54.6483C45.1159 54.6942 45.0158 54.7456 44.9152 54.8025C43.2458 55.7715 41.9385 58.0451 41.9385 59.9792C41.9385 60.0782 41.9424 60.1755 41.9496 60.2711L41.1934 59.83ZM44.9362 61.0356C44.4045 61.3435 43.9114 61.4142 43.5847 61.2235C43.2613 61.0378 43.075 60.584 43.0734 59.9787C43.069 58.4635 44.1734 56.5443 45.4846 55.787C45.7528 55.6319 46.0107 55.5368 46.2427 55.5034C46.2688 55.4996 46.2909 55.5041 46.3162 55.502C46.4012 55.4946 46.4851 55.4899 46.5614 55.5003C46.6417 55.5118 46.713 55.5381 46.7805 55.5703C46.7942 55.5763 46.8105 55.5779 46.8235 55.5848L46.8499 55.6007C46.8539 55.603 46.8585 55.6027 46.8625 55.6049C47.178 55.797 47.3607 56.2484 47.3623 56.8522C47.3668 58.3585 46.2557 60.2739 44.9362 61.0356Z" fill="white"/>
<path d="M70.105 41.4254C70.0946 41.4194 70.0823 41.4185 70.0718 41.4127L67.7254 40.0445C67.0272 39.6322 66.1356 39.6996 65.2219 40.2325C63.5376 41.1893 62.228 43.4612 62.2413 45.4003C62.2413 46.4152 62.6327 47.225 63.3148 47.6214L65.7033 49.0138C65.7041 49.0142 65.7055 49.014 65.7062 49.0144C65.7082 49.0156 65.7096 49.0176 65.7116 49.0188C66.0112 49.1907 66.3451 49.2764 66.7005 49.2764C67.1709 49.2764 67.6784 49.1266 68.1936 48.8292C69.8762 47.858 71.1907 45.5883 71.1857 43.6624C71.1829 42.6194 70.7988 41.8245 70.105 41.4254ZM63.8847 46.643C63.5597 46.4539 63.3734 46.0012 63.3734 45.3965C63.3629 43.878 64.4657 41.9643 65.7862 41.2137C66.1306 41.0136 66.449 40.9113 66.721 40.9113C66.8829 40.9113 67.0283 40.9478 67.1521 41.0213L67.9078 41.4613C67.8077 41.5077 67.7066 41.5591 67.606 41.6161C65.9371 42.5845 64.6298 44.8581 64.6298 46.7928C64.6298 46.8917 64.6337 46.989 64.6409 47.0835L63.8847 46.643ZM67.6275 47.8486C67.0952 48.1565 66.6027 48.2256 66.276 48.0371C66.2012 47.9941 66.1356 47.9336 66.076 47.8633C66.0712 47.8577 66.0646 47.855 66.0599 47.8492C65.871 47.6147 65.7659 47.2461 65.7647 46.7922C65.7603 45.2771 66.8647 43.3579 68.1759 42.6006C68.3344 42.5089 68.4882 42.4427 68.6363 42.3933C68.6696 42.3823 68.7009 42.3763 68.7333 42.3674C68.8439 42.337 68.9495 42.3195 69.0499 42.3142C69.0848 42.3125 69.1197 42.3108 69.1531 42.3123C69.2891 42.3175 69.4142 42.3448 69.5208 42.4017L69.5412 42.4137C69.5452 42.416 69.5497 42.4157 69.5537 42.4179C69.8687 42.61 70.052 43.0614 70.0536 43.6658C70.0575 45.1715 68.9464 47.0874 67.6275 47.8486Z" fill="white"/>
<path d="M22.2737 54.132H22.2721C21.9603 54.132 21.7066 54.3846 21.706 54.6963L21.7 57.029C21.6994 57.3419 21.952 57.5962 22.2643 57.5967H22.266C22.5778 57.5967 22.8315 57.3441 22.832 57.0323L22.8381 54.6997C22.8387 54.3868 22.586 54.1325 22.2737 54.132Z" fill="white"/>
<path d="M24.3029 55.3033H24.3012C23.9895 55.3033 23.7358 55.556 23.7352 55.8677L23.7291 58.201C23.7286 58.5138 23.9812 58.7681 24.2935 58.7687H24.2952C24.6069 58.7687 24.8606 58.5161 24.8612 58.2043L24.8673 55.871C24.8678 55.5582 24.6152 55.3039 24.3029 55.3033Z" fill="white"/>
<path d="M26.3322 56.4752H26.3305C26.0188 56.4752 25.7651 56.7278 25.7645 57.0396L25.7584 59.3723C25.7579 59.6852 26.0105 59.9394 26.3228 59.94H26.3245C26.6362 59.94 26.8899 59.6874 26.8905 59.3756L26.8966 57.0429C26.8971 56.73 26.6445 56.4758 26.3322 56.4752Z" fill="white"/>
<path d="M28.3614 57.6465H28.3597C28.048 57.6465 27.7942 57.8991 27.7937 58.2109L27.7876 60.5441C27.787 60.857 28.0397 61.1113 28.352 61.1118H28.3536C28.6654 61.1118 28.9191 60.8592 28.9197 60.5474L28.9258 58.2142C28.9263 57.9013 28.6737 57.647 28.3614 57.6465Z" fill="white"/>
</svg>
