<svg width="93" height="92" viewBox="0 0 93 92" fill="none" xmlns="http://www.w3.org/2000/svg">
<rect x="0.5" width="92" height="92" rx="46" fill="black"/>
<path d="M26.8823 61.1187C27.2012 61.1176 27.4603 60.859 27.4592 60.5401L27.4051 41.176C27.3972 39.772 28.4294 37.9798 29.6576 37.2637L60.0272 19.7363C60.5264 19.4462 60.9658 19.3848 61.2667 19.556L63.4673 20.8361C63.2347 20.9505 64.7895 20.0669 32.8927 38.4813C31.2823 39.4097 30.0543 41.579 30.0599 43.3992C30.1235 73.9962 30.1138 71.0361 30.1241 71.2346L27.9156 69.95C27.6316 69.7883 27.4682 69.3765 27.4682 68.8187L27.4637 67.1505C27.4626 66.8327 27.2046 66.5753 26.8868 66.5753C26.5679 66.5764 26.3087 66.835 26.3099 67.1539L26.3144 68.8204C26.3144 69.8176 26.6806 70.5749 27.3409 70.9501C30.3663 72.7088 23.4068 68.6632 31.1552 73.1674C31.1569 73.1684 31.1579 73.17 31.1596 73.171C31.9143 73.6056 32.7974 73.4244 33.5485 72.9907L40.418 69.0247L44.7816 72.7727C46.1708 73.9156 48.6828 73.9674 50.1711 73.0859L58.7494 68.106C59.4863 67.6874 59.9202 67.0587 59.9393 66.3651C59.939 66.0557 59.9403 67.4861 59.9361 63.3387C59.9394 62.666 59.5136 62.0269 58.755 61.5813C58.4226 61.3864 58.4432 61.4262 55.5417 60.2933L63.9147 55.4594C65.5091 54.5388 66.7542 52.3809 66.7486 50.5482L66.6877 22.915C66.6855 21.9399 66.3281 21.1957 65.689 20.8033C65.5306 20.6953 62.9446 19.1998 61.8447 18.5577C61.1675 18.1673 60.3168 18.232 59.448 18.738L29.0784 36.2654C27.4829 37.1961 26.2411 39.3562 26.2513 41.1811L26.3054 60.5435C26.3065 60.8613 26.5645 61.1187 26.8823 61.1187ZM58.7855 66.3488C58.7787 66.6136 58.5567 66.8885 58.1747 67.1054L49.5874 72.0904C48.4518 72.7633 46.4624 72.6634 45.5241 71.8893L41.4771 68.4133L42.5214 67.8104C44.9966 69.9362 44.8292 69.8343 45.2661 70.1027C46.7067 70.9093 48.8494 70.8494 50.1707 70.0925C50.1746 70.0903 50.1796 70.0892 50.1835 70.087C50.2999 70.0194 58.9009 65.027 58.7855 65.0941V66.3488ZM58.1725 62.5768C59.0344 63.0839 58.937 63.6574 58.1871 64.0957L49.6054 69.088C48.6505 69.6387 46.9652 69.7198 45.8317 69.0847C43.9095 67.475 43.4621 67.1004 43.5801 67.1992L54.2594 61.0336C57.9057 62.4518 57.9386 62.4408 58.1725 62.5768ZM63.3377 54.4599C62.358 54.9181 33.0908 71.9222 32.9715 71.9912C31.874 72.6254 31.2767 72.0991 31.2746 71.0295C31.2687 68.2025 31.2959 81.2682 31.2171 43.393C31.2094 42.0227 32.2199 40.2037 33.4718 39.4813L63.8369 21.9494C64.8026 21.3901 65.5314 21.7015 65.5339 22.9179L65.5947 50.551C65.5981 51.9612 64.5648 53.7511 63.3377 54.4599Z" fill="white"/>
<path d="M26.8833 65.6101C27.2022 65.6095 27.4603 65.3504 27.4591 65.0321L27.4546 63.0365C27.4535 62.7182 27.1955 62.4607 26.8777 62.4607C26.5588 62.4613 26.2997 62.7204 26.3008 63.0387L26.3053 65.0343C26.3064 65.3526 26.5656 65.6101 26.8833 65.6101Z" fill="white"/>
<path d="M63.2218 24.9811C63.0437 24.8785 62.824 24.8785 62.646 24.9811L33.526 41.7941C33.3468 41.8978 33.2375 42.0888 33.2375 42.2955L33.2973 66.3116C33.2973 66.751 33.7769 67.0319 34.1627 66.8097L63.2837 49.9967C63.4629 49.893 63.5722 49.702 63.5722 49.4952L63.5114 25.4791C63.5114 25.2735 63.4009 25.0836 63.2218 24.9811ZM34.4489 65.3122L34.3925 42.6262L62.3598 26.4786L62.4172 49.1645L34.4489 65.3122Z" fill="white"/>
<path d="M49.0184 59.8798L47.2741 60.8872C46.9981 61.0466 46.9034 61.3993 47.0634 61.6754C47.1694 61.8607 47.3643 61.9638 47.5626 61.9638C47.6606 61.9638 47.7598 61.9391 47.8511 61.8867L49.5954 60.8793C49.8714 60.7199 49.9661 60.3672 49.8061 60.0911C49.6472 59.8133 49.2934 59.7204 49.0184 59.8798Z" fill="white"/>
<path d="M55.2168 35.4322L40.9819 43.6511C40.3385 44.0224 39.8563 44.859 39.8596 45.5971L39.8867 55.3828C39.8915 56.3625 40.7529 56.8425 41.5915 56.3586L55.8276 48.1391C56.4687 47.7684 56.951 46.9323 56.9499 46.1937L56.9217 36.4091C56.9193 35.4321 56.0555 34.9455 55.2168 35.4322ZM55.2506 47.1402L41.0405 55.3304L41.0135 45.5931C41.0124 45.2709 41.2772 44.8128 41.5589 44.6506L55.7678 36.4463L55.796 46.1965C55.7971 46.5194 55.5312 46.978 55.2506 47.1402Z" fill="white"/>
<path d="M51.1716 43.6476L46.8086 43.1293C46.4743 43.0833 46.1641 43.3523 46.1641 43.7039L46.181 49.7583C46.1821 50.0039 46.3376 50.2219 46.5697 50.3019C46.8016 50.3821 47.0599 50.3063 47.212 50.1126L51.5581 44.5767C51.6865 44.4127 51.7169 44.1919 51.6369 43.9992C51.5569 43.8065 51.3789 43.6724 51.1716 43.6476ZM47.3303 48.0934L47.3202 44.3519L50.0155 44.6724L47.3303 48.0934Z" fill="white"/>
</svg>
