<svg width="93" height="92" viewBox="0 0 93 92" fill="none" xmlns="http://www.w3.org/2000/svg">
<path d="M16.6721 59.7351C17.0859 59.9752 17.619 59.8334 17.857 59.4181C18.0978 59.0028 17.9554 58.4722 17.54 58.2332L14.304 56.3651C13.8904 56.1261 13.3581 56.2668 13.1191 56.6821C12.8783 57.0974 13.0207 57.628 13.436 57.867L16.6721 59.7351Z" fill="black"/>
<path d="M16.2196 36.8114L42.4438 51.9526C42.7131 52.1094 43.0472 52.1076 43.3134 51.9526L69.3037 36.8504C69.5715 36.6944 69.736 36.4079 69.736 36.0977C69.736 35.7892 69.5698 35.5027 69.302 35.3485L43.0761 20.2072C42.8066 20.0513 42.4726 20.0513 42.2065 20.2072L16.2179 35.3095C15.9501 35.4654 15.7856 35.7519 15.7856 36.0621C15.7856 36.3706 15.9518 36.6571 16.2196 36.8114ZM42.6438 21.9617L67.1356 36.1011L42.8761 50.1981L18.3843 36.0587L42.6438 21.9617Z" fill="black"/>
<path d="M41.542 26.3217L45.2731 28.4746C45.6872 28.7149 46.2198 28.5732 46.458 28.1576C46.6987 27.7423 46.5563 27.2117 46.141 26.9727L42.4099 24.8198C41.9929 24.5774 41.4623 24.7215 41.225 25.1368C40.9843 25.5521 41.1267 26.0827 41.542 26.3217Z" fill="black"/>
<path d="M42.6693 28.9916L38.9383 26.837C38.5246 26.598 37.9924 26.7387 37.7533 27.154C37.5126 27.5694 37.655 28.0999 38.0703 28.339L41.8014 30.4935C42.2152 30.7336 42.7483 30.5918 42.9863 30.1765C43.227 29.7612 43.0846 29.2306 42.6693 28.9916Z" fill="black"/>
<path d="M39.1959 31.0088L35.4666 28.8543C35.053 28.6153 34.5224 28.756 34.2817 29.1713C34.0409 29.5866 34.1833 30.1172 34.5987 30.3562L38.328 32.5108C38.7428 32.7514 39.2727 32.6085 39.5129 32.1938C39.7536 31.7784 39.6113 31.2479 39.1959 31.0088Z" fill="black"/>
<path d="M35.724 33.0261L31.9929 30.8732C31.5742 30.6291 31.0453 30.7749 30.808 31.1902C30.5673 31.6055 30.7097 32.1361 31.125 32.3751L34.8561 34.528C35.2702 34.7683 35.8028 34.6266 36.041 34.211C36.2817 33.7957 36.1393 33.2651 35.724 33.0261Z" fill="black"/>
<path d="M32.2523 35.0433L28.5213 32.8905C28.1043 32.6464 27.5737 32.7921 27.3363 33.2075C27.0956 33.6228 27.238 34.1534 27.6533 34.3924L31.3844 36.5452C31.7985 36.7855 32.3311 36.6438 32.5693 36.2282C32.81 35.8129 32.6676 35.2823 32.2523 35.0433Z" fill="black"/>
<path d="M28.7789 37.0623L25.0496 34.9077C24.6377 34.6687 24.1054 34.8094 23.8647 35.2247C23.624 35.64 23.7663 36.1706 24.1817 36.4096L27.911 38.5642C28.3258 38.8049 28.8557 38.662 29.0959 38.2472C29.3367 37.8319 29.1943 37.3013 28.7789 37.0623Z" fill="black"/>
<path d="M87.7267 59.0096L82.1072 55.7616C82.1075 54.9873 82.1044 58.5667 82.1097 48.1887C82.0969 47.8896 81.9825 47.6758 81.7177 47.5067C81.544 47.3958 80.4313 46.7405 80.6064 46.853C80.6083 46.1204 80.6341 35.7539 80.6341 36.0808C80.6341 35.787 80.4747 35.4896 80.2001 35.3315L43.0675 13.8928C42.798 13.7368 42.464 13.7368 42.1979 13.8928L5.31789 35.3247C5.10138 35.4508 4.88694 35.8251 4.88563 36.074L4.83986 52.4018C4.83816 52.712 5.00429 53.0002 5.27382 53.1545L10.461 56.1481C10.878 56.3888 11.4069 56.2465 11.6459 55.8311C11.8867 55.4158 11.7443 54.8852 11.3289 54.6462L6.5774 51.9034L6.61808 37.5763C8.82582 38.851 37.8142 55.5882 42.0121 58.012C42.0116 58.1861 41.9734 73.3041 41.9758 72.342L20.4591 59.9199C20.0455 59.6792 19.5132 59.8216 19.2742 60.2369C19.0335 60.6522 19.1759 61.1828 19.5912 61.4218L42.4064 74.5932C42.5403 74.6712 42.6912 74.7102 42.8404 74.7102L42.8429 74.7096L42.8455 74.7102C42.9963 74.7102 43.1472 74.6712 43.2811 74.5932L50.0981 70.6314C50.0981 70.9651 50.0992 69.4223 50.0982 73.8958C50.111 74.1942 50.2537 74.4553 50.5212 74.6102L56.5882 78.109C56.8536 78.2602 57.1841 78.2656 57.4595 78.1073L62.0059 75.4611C62.2721 75.3052 62.4365 75.0187 62.4365 74.7085C62.4365 74.4 62.2704 74.1135 62.0025 73.9592L56.383 70.7113L56.3898 66.973L58.673 65.6485L58.6614 68.872C58.7107 69.0503 58.6757 69.3852 59.0953 69.6281L65.1623 73.1252C65.4278 73.2764 65.7583 73.2818 66.0336 73.1235L70.5801 70.4774C70.8462 70.3214 71.0106 70.0349 71.0106 69.7247C71.0106 69.4162 70.8445 69.1297 70.5767 68.9754L64.9572 65.7292L64.964 61.9885L67.2481 60.6543C67.2481 60.9892 67.2491 59.441 67.2482 63.9299C67.261 64.2284 67.4037 64.4895 67.6712 64.6443L73.7382 68.1431C74.0036 68.2943 74.3341 68.2997 74.6095 68.1414L79.1559 65.4953C79.422 65.3393 79.5865 65.0528 79.5865 64.7426C79.5865 64.4341 79.4203 64.1476 79.1525 63.9934L73.5347 60.7454L73.5407 57.0074L75.8223 55.6731L75.8113 58.9045C75.8607 59.0827 75.8257 59.4176 76.2453 59.6605L82.3123 63.1593C82.5777 63.3105 82.9083 63.316 83.1836 63.1576L87.73 60.5115C87.9962 60.3555 88.1606 60.069 88.1606 59.7588C88.1606 59.4503 87.9945 59.1638 87.7267 59.0096ZM78.8643 48.6129L76.7039 49.8704L73.1499 47.8232L75.9656 46.184L78.8664 47.8559L78.8643 48.6129ZM77.565 53.6465L77.576 51.3796C77.7496 51.2782 80.5552 49.6395 80.3816 49.7409L80.3721 55.7611L77.5523 57.3975L77.565 53.6465ZM42.6353 15.6472L78.0354 36.0842C29.8555 64.072 46.4728 54.4189 42.878 56.5072C42.4852 56.2804 12.0007 38.6809 7.48474 36.0737L42.6353 15.6472ZM51.8519 66.3242L54.6575 64.6976L54.6479 70.7108L51.8281 72.3471C51.8288 72.1689 51.8533 65.9515 51.8519 66.3242ZM50.9797 64.8184L47.4275 62.7728L50.2415 61.1336L53.7945 63.1801L50.9797 64.8184ZM59.8395 74.7136L57.0204 76.3528L52.6885 73.8554L55.5167 72.2142L59.8395 74.7136ZM60.426 61.3421C60.6016 61.2397 63.4098 59.6014 63.2316 59.7053L63.2221 65.7287L60.4025 67.3649C60.4032 67.1867 60.4275 60.9694 60.426 61.3421ZM59.557 59.8371L56.0016 57.7891L58.8173 56.1498L62.369 58.1977C62.1934 58.3001 59.3789 59.941 59.557 59.8371ZM68.4119 69.7298L65.5946 71.369L61.2629 68.8732L64.091 67.2321L68.4119 69.7298ZM68.9908 58.6261L69.0019 56.36C69.1774 56.2576 71.9856 54.6191 71.8075 54.723L71.7979 60.7449L68.9781 62.3813L68.9908 58.6261ZM68.1298 54.8525L64.5758 52.8053L67.3915 51.1677L70.9445 53.2142L68.1298 54.8525ZM76.9895 64.7477L74.1704 66.3869L69.8385 63.8895L72.6667 62.2483L76.9895 64.7477ZM73.5534 54.9886V53.2036C73.5534 53.0008 73.3816 52.6466 73.1664 52.4994C72.9845 52.3745 69.9819 50.658 67.8237 49.4115C67.5508 49.2573 67.2202 49.259 66.9541 49.4132L62.4077 52.0577C62.1398 52.2137 61.9754 52.5001 61.9754 52.8104C61.9754 53.1206 62.1415 53.4054 62.4094 53.5613L67.2626 56.3566L67.2549 58.6406L64.9775 59.9707V58.1857C64.9775 58.0138 64.81 57.6346 64.5936 57.4847C64.4396 57.3778 63.9104 57.0874 59.2496 54.3936C58.98 54.2411 58.6478 54.2394 58.3783 54.3953L53.8318 57.0415C53.5657 57.1974 53.4013 57.4839 53.4013 57.7941C53.4013 58.1044 53.5674 58.3891 53.8352 58.5451L58.6885 61.3404C58.6878 61.5152 58.6794 63.8122 58.68 63.6374L56.4034 64.9579V63.1848C56.4034 62.8649 56.2354 62.6095 55.9933 62.4544C55.818 62.3421 50.4996 59.2596 50.6737 59.3774C50.4025 59.2232 50.0736 59.2232 49.8024 59.3808L45.2577 62.027C44.9915 62.1812 44.8271 62.4694 44.8271 62.7779C44.8271 63.0881 44.9932 63.3729 45.2611 63.5289L50.1126 66.3225C50.112 66.4973 50.1035 68.7943 50.1042 68.6195L43.7168 72.3319C43.7172 72.1577 43.7551 57.053 43.7527 58.015C47.3584 55.9202 30.7154 65.5895 78.8948 37.5979L78.872 45.8536L76.3979 44.4278C76.1283 44.2752 75.7961 44.2718 75.5266 44.4312L70.9818 47.0773C70.7157 47.2316 70.5512 47.518 70.5512 47.8283C70.5512 48.1385 70.7174 48.4233 70.9852 48.5792L75.8368 51.3745L75.829 53.6585L73.5534 54.9886ZM82.7446 61.4031L78.4127 58.9057L81.2408 57.2645L85.5636 59.7639L82.7446 61.4031Z" fill="black"/>
</svg>
