<svg width="93" height="92" viewBox="0 0 93 92" fill="none" xmlns="http://www.w3.org/2000/svg">
<path d="M3.25984 45.816C3.81184 45.816 4.17984 45.448 4.17984 44.896V40.848C4.17984 40.296 3.81184 39.928 3.25984 39.928C2.70784 39.928 2.33984 40.48 2.33984 40.848V44.896C2.33984 45.448 2.89184 45.816 3.25984 45.816Z" fill="black"/>
<path d="M85.6918 45.08C85.6918 45.08 81.2758 42.504 79.8038 41.768C77.5958 40.48 74.6518 40.296 71.7078 41.216V23.92C71.7078 23.736 71.5238 23.368 71.1558 23.184L39.6918 4.784C39.3238 4.6 39.1398 4.6 38.7718 4.784L2.70784 25.392C2.52384 25.576 2.33984 25.944 2.33984 26.312C2.33984 26.496 2.33984 37.352 2.33984 37.168C2.33984 37.72 2.70784 38.088 3.25984 38.088C3.81184 38.088 4.17984 37.72 4.17984 37.168V27.784L33.8038 44.896C33.8038 48.944 33.8038 30.176 33.9878 84.824L4.36384 67.712V48.576C4.36384 48.024 3.99584 47.656 3.44384 47.656C2.89184 47.656 2.52384 48.024 2.52384 48.576V68.264C2.52384 68.632 2.70784 68.816 2.89184 69C4.54784 69.92 35.8278 88.136 34.3558 87.216C34.7238 87.4 34.9078 87.4 35.2758 87.216L53.1238 76.912C54.0438 78.752 55.1478 80.04 56.8038 81.144L62.6918 84.64C66.3718 86.848 70.9718 85.744 74.6518 83.536C83.4838 78.384 90.6598 66.056 90.6598 55.936C90.6598 50.784 88.8198 46.92 85.6918 45.08ZM68.9478 42.32C64.5318 44.528 60.6678 48.392 57.9078 52.624C57.9078 52.808 57.7238 52.808 57.7238 52.992V32.568L69.8678 25.576V41.952C69.4998 41.952 69.1318 42.136 68.9478 42.32ZM35.6438 45.08L47.7878 38.088L47.9718 78.016L35.8278 85.008C35.8278 80.776 35.8278 99.728 35.6438 45.08ZM25.1558 14.72L54.7798 31.832L48.7078 35.328L19.0838 18.216C19.2678 18.032 25.3398 14.536 25.1558 14.72ZM49.8118 76.912L49.6278 36.984L55.6998 33.488V55.936C53.4918 60.168 51.6518 65.504 51.6518 70.472C51.6518 71.944 51.8358 73.784 52.2038 75.256L49.8118 76.912ZM39.1398 6.624L68.7638 23.736L56.6198 30.728L26.9958 13.616L39.1398 6.624ZM17.2438 19.32L46.8678 36.432L34.7238 43.424L5.09984 26.312L17.2438 19.32ZM57.7238 79.488C54.7798 77.648 53.6758 73.784 53.6758 70.288C53.6758 64.216 56.4358 57.408 60.1158 52.44C62.8758 48.76 66.9238 44.712 70.9718 43.24C73.5478 42.136 76.3078 41.952 78.6998 43.24L79.8038 43.976C77.7798 44.16 75.7558 44.896 73.5478 46.184C64.7158 51.336 57.5398 63.848 57.5398 73.784C57.5398 76.36 57.9078 78.384 58.8278 80.224L57.7238 79.488ZM73.7318 81.88C65.8198 86.48 59.5638 82.984 59.5638 73.784C59.5638 64.216 66.3718 52.624 74.6518 47.84C82.5638 43.24 88.8198 46.736 88.8198 55.936C88.8198 65.504 82.1958 77.096 73.7318 81.88Z" fill="black"/>
<path d="M85.8761 57.04L84.2201 57.96C83.4841 52.808 79.62 50.6 75.02 52.624V50.784C75.02 50.232 74.652 49.864 74.1 49.864C73.548 49.864 73.18 50.232 73.18 50.784V53.544C68.212 56.672 64.1641 63.664 63.7961 69.736L61.404 71.208C61.036 71.392 60.8521 71.944 61.0361 72.496C61.2201 72.864 61.772 73.048 62.324 72.864L63.7961 71.944C64.5321 76.912 68.3961 79.304 72.9961 77.28V79.12C72.9961 79.672 73.3641 80.04 73.9161 80.04C74.4681 80.04 74.8361 79.672 74.8361 79.12V76.36C79.8041 73.232 83.8521 66.24 84.2201 60.168L86.612 58.696C86.98 58.512 87.1641 57.96 86.9801 57.408C86.9801 56.856 86.4281 56.672 85.8761 57.04ZM75.204 73.784V72.864C75.204 72.312 74.836 71.944 74.284 71.944C73.732 71.944 73.364 72.312 73.364 72.864V74.888C69.132 77.096 66.188 75.44 65.82 70.656L67.66 69.552C68.028 69.368 68.2121 68.816 68.0281 68.264C67.8441 67.896 67.292 67.712 66.74 67.896L66.004 68.448C66.556 63.664 69.5 58.512 73.364 55.752V56.672C73.364 57.224 73.732 57.592 74.284 57.592C74.836 57.592 75.204 57.224 75.204 56.672V54.648C79.436 52.44 82.3801 54.28 82.7481 58.88L80.9081 59.984C80.5401 60.168 80.3561 60.72 80.5401 61.272C80.7241 61.64 81.2761 61.824 81.8281 61.64L82.564 61.088C82.012 65.872 78.884 71.024 75.204 73.784Z" fill="black"/>
</svg>
