<svg width="93" height="92" viewBox="0 0 93 92" fill="none" xmlns="http://www.w3.org/2000/svg">
<path d="M15.8793 69.5744C16.359 69.5727 16.7472 69.1828 16.7455 68.7048L16.7354 65.1789C16.7337 64.6991 16.3455 64.3126 15.8674 64.3126C15.3877 64.3143 14.9978 64.7042 14.9995 65.1822L15.0097 68.7082C15.0114 69.1879 15.4013 69.5744 15.8793 69.5744Z" fill="white"/>
<path d="M15.4792 82.7594L23.7093 87.5431C23.8432 87.6211 23.994 87.6601 24.1449 87.6601C24.2941 87.6601 24.445 87.6211 24.5789 87.5431C24.588 87.5379 24.5915 87.5272 24.6003 87.5217L49.065 73.3986C50.2752 74.1015 54.1455 76.349 53.8968 76.2059C57.1495 78.0779 61.0479 77.1294 64.2847 75.2583C71.9401 70.8407 78.1461 60.1035 78.1224 51.3242C78.1105 46.9021 76.5674 43.5783 73.7799 41.9534C73.7724 41.9487 73.7684 41.9408 73.7607 41.9364L67.1241 38.0918C66.0339 37.4474 64.8069 37.1092 63.4886 37.058L63.422 15.5125C63.4232 15.495 63.4353 15.4807 63.4354 15.463C63.4371 15.1545 63.2761 14.868 63.01 14.712C62.9436 14.6727 56.0848 10.6068 53.7764 9.23836L45.5464 4.4563C45.2802 4.30204 44.9463 4.30034 44.6767 4.4563L15.3114 21.4096C15.1067 21.5268 14.9901 21.7305 14.9329 21.9532C14.9149 22.0226 14.8774 22.0855 14.8774 22.1589C14.8774 22.1595 14.8779 22.16 14.8779 22.1606C14.8779 22.4634 14.9882 61.0576 14.9893 61.2765C14.991 61.7563 15.3792 62.1428 15.8572 62.1428C16.337 62.1411 16.7269 61.7512 16.7252 61.2731L16.6184 23.6719L23.1092 27.4435C23.1253 33.3707 23.0509 5.99866 23.2663 85.2785L16.7811 81.5083L16.7557 72.4477C16.754 71.9679 16.3658 71.5814 15.8878 71.5814C15.408 71.5831 15.0181 71.973 15.0198 72.4511L15.047 82.0101C15.0487 82.3186 15.2114 82.6034 15.4792 82.7594ZM76.3865 51.3276C76.4102 59.5542 70.5907 69.6151 63.4168 73.7563C56.5391 77.7247 51.2819 74.6259 51.2574 66.835C51.2432 61.8929 53.3339 56.3019 56.5465 51.7192C58.6936 48.6604 61.3363 46.0465 64.2051 44.391C66.8742 42.853 70.2016 41.892 72.8792 43.4349C75.1304 44.73 76.3763 47.5338 76.3865 51.3276ZM66.2477 39.5903L68.6566 40.9854C67.2272 41.158 65.2413 41.7843 63.3303 42.8874C60.4658 44.5414 57.8044 47.0862 55.598 50.085C51.9155 55.0837 49.4982 61.3447 49.5131 66.8452C49.5254 68.9845 49.9623 70.9425 50.5047 72.2273C50.331 72.1261 47.9018 70.7106 48.0756 70.8118C45.9566 69.5916 45.0139 67.1065 44.7178 64.6693C44.7139 64.6362 44.7079 64.6054 44.7043 64.5722C44.1404 59.6244 46.2256 52.135 51.3991 45.8654C51.4583 45.7942 51.5215 45.7289 51.5812 45.6586C54.2998 42.4666 58.4998 39.0408 62.6675 38.8241C62.6744 38.8238 62.68 38.8198 62.6869 38.8193C63.978 38.744 65.1043 38.9135 66.2477 39.5903ZM50.2007 44.5976L28.9999 56.8403C28.5845 57.0793 28.4422 57.6099 28.6829 58.0252C28.9206 58.44 29.4532 58.5828 29.8678 58.3422L47.6698 48.0623C45.8069 50.9872 44.4917 54.0469 43.7286 56.9107L28.9999 65.4144C28.5845 65.6535 28.4422 66.184 28.6829 66.5994C28.9206 67.0142 29.4532 67.1569 29.8678 66.9164L43.2224 59.206C42.8812 61.1438 42.7781 62.9316 42.9808 64.7765C42.9877 64.8368 42.9991 64.8921 43.0066 64.9517C43.0423 65.2457 43.0823 65.5362 43.1334 65.8175L28.9999 73.9699C28.5845 74.2106 28.4422 74.7412 28.6812 75.1565C28.9204 75.5696 29.4476 75.7139 29.8678 75.4752L43.5732 67.5696C44.216 69.4979 45.4602 71.3004 47.2093 72.3205L47.335 72.3935C44.1895 74.2095 33.9339 80.1304 25.0086 85.2831C24.9925 79.3554 25.0667 106.732 24.8518 27.4382C27.6906 25.7994 14.6208 33.3444 52.4728 11.4929L52.5033 20.7773C52.505 21.0859 52.6695 21.3723 52.939 21.5266C53.2068 21.6792 53.5374 21.6792 53.8052 21.5266L61.6911 16.9785L61.7538 37.1672C57.2949 37.8065 53.0775 41.2102 50.2007 44.5976ZM60.8486 15.4477L54.2341 19.267L54.2137 11.515L60.8486 15.4477ZM45.109 6.21079L51.6083 9.98762C51.2241 10.2094 25.068 25.3077 23.9756 25.9383L17.4778 22.1623L45.109 6.21079Z" fill="white"/>
<path d="M29.8677 32.6554L46.9194 22.8081C47.3347 22.5691 47.4771 22.0385 47.2364 21.6232C46.9973 21.2079 46.4651 21.0621 46.0514 21.3062L28.9998 31.1534C28.5845 31.3925 28.4421 31.9231 28.6828 32.3384C28.9205 32.7532 29.4531 32.8959 29.8677 32.6554Z" fill="white"/>
<path d="M56.8039 23.6608L28.9998 39.7174C28.5845 39.9565 28.4421 40.487 28.6828 40.9024C28.9205 41.3172 29.4531 41.4599 29.8677 41.2194L57.6718 25.1627C58.0871 24.9237 58.2295 24.3931 57.9888 23.9778C57.7515 23.5608 57.2192 23.4184 56.8039 23.6608Z" fill="white"/>
<path d="M56.8039 32.2248L28.9998 48.2814C28.5845 48.5204 28.4421 49.051 28.6828 49.4663C28.9205 49.8811 29.4531 50.0239 29.8677 49.7833L57.6718 33.7267C58.0871 33.4877 58.2295 32.9571 57.9888 32.5418C57.7515 32.1265 57.2192 31.9824 56.8039 32.2248Z" fill="white"/>
<path d="M63.3711 58.5474C60.1655 60.3968 57.6635 64.7313 57.6753 68.4132L57.677 69.0353C57.6797 69.5229 58.0736 69.9016 58.545 69.9016C58.6941 69.9016 58.845 69.8626 58.9789 69.7846L69.5347 63.6905C69.8042 63.5362 69.9687 63.2481 69.9687 62.9378L69.967 62.314C69.9564 58.2933 66.8786 56.52 63.3711 58.5474ZM68.2311 62.4395L59.4722 67.4961C59.8418 64.6618 61.8726 61.4156 64.239 60.0493C66.5995 58.6899 68.2241 59.6529 68.2311 62.3174V62.4395Z" fill="white"/>
<path d="M64.2271 56.4419C65.9901 55.4248 67.3682 53.0431 67.3615 51.0191C67.3543 48.6361 65.4211 47.5261 63.3422 48.7221C61.5826 49.7358 60.2096 52.1209 60.2163 54.15C60.2235 56.5243 62.1603 57.6391 64.2271 56.4419ZM64.2101 50.2274C65.0972 49.7169 65.6219 49.9505 65.6256 51.0259C65.629 52.4362 64.5916 54.228 63.3592 54.94C62.4678 55.4559 61.9558 55.1942 61.9522 54.1433C61.9488 52.7295 62.9811 50.9343 64.2101 50.2274Z" fill="white"/>
</svg>
