<svg width="93" height="92" viewBox="0 0 93 92" fill="none" xmlns="http://www.w3.org/2000/svg">
<path d="M75.1438 20.2557C74.5912 19.9404 73.9335 19.9387 73.3843 20.2574L44.7004 36.8174C43.8782 37.2921 43.3714 38.1753 43.3731 39.1229L43.4527 67.7779C43.4564 69.1302 44.9194 69.9767 46.0955 69.2985L74.8726 52.6825C75.4201 52.3112 76.0541 51.2314 76.1084 50.5093L76.0253 21.7779C76.0236 21.1422 75.6948 20.5727 75.1438 20.2557ZM73.9521 51.2128L45.1885 67.7745L45.1089 39.1195C45.1072 38.7906 45.2835 38.4838 45.5683 38.3193L74.2895 21.7813L74.3776 50.4211C74.3403 50.6161 74.0369 51.1297 73.9521 51.2128Z" fill="black"/>
<path d="M52.0031 43.8286C53.3948 43.0251 54.4814 41.1418 54.478 39.5416C54.4745 37.5752 52.834 36.6211 51.1216 37.6108C49.7248 38.4177 48.6348 40.3078 48.6382 41.9148C48.6417 43.8669 50.2794 44.8245 52.0031 43.8286ZM51.9895 39.1127C52.4997 38.8212 52.7387 38.8815 52.7422 39.545C52.7456 40.5316 51.9946 41.83 51.1352 42.3267C50.611 42.6289 50.374 42.5516 50.374 41.9114C50.3707 40.9197 51.1267 39.6128 51.9895 39.1127Z" fill="black"/>
<path d="M60.162 39.1195C61.5537 38.316 62.6387 36.4327 62.6353 34.8324C62.6317 32.8586 60.9826 31.916 59.2805 32.8982C57.882 33.7051 56.792 35.5986 56.7954 37.204C56.799 39.1752 58.4562 40.1051 60.162 39.1195ZM60.1485 34.4035C60.6861 34.0918 60.8962 34.2068 60.8994 34.8358C60.9028 35.8224 60.1518 37.1209 59.2941 37.6159C58.7721 37.9146 58.5313 37.85 58.5313 37.2006C58.5279 36.2089 59.2839 34.9036 60.1485 34.4035Z" fill="black"/>
<path d="M68.319 34.4086C69.7107 33.6051 70.7973 31.7218 70.7939 30.1198C70.7868 28.146 69.1394 27.205 67.4375 28.1907C66.0322 29.001 64.9371 30.8945 64.9439 32.5016C64.9474 34.4562 66.5991 35.405 68.319 34.4086ZM68.3054 29.6944C68.8668 29.3735 69.0548 29.5189 69.058 30.1249C69.0614 31.1115 68.3105 32.41 67.451 32.905C66.916 33.2186 66.6797 33.1275 66.6797 32.4965C66.6763 31.5048 67.4358 30.1944 68.3054 29.6944Z" fill="black"/>
<path d="M52.0285 52.5943C53.4219 51.7908 54.5085 49.9058 54.5018 48.3073C54.4982 46.3335 52.8454 45.3872 51.147 46.3765C49.7485 47.1834 48.6568 49.0752 48.6636 50.6805C48.6672 52.6346 50.3049 53.5902 52.0285 52.5943ZM52.0149 47.8801C52.5795 47.5575 52.7628 47.7057 52.7659 48.3124C52.7693 49.2972 52.02 50.5957 51.1606 51.0907C50.6346 51.3965 50.3995 51.3185 50.3995 50.6754C50.396 49.6837 51.1504 48.3785 52.0149 47.8801Z" fill="black"/>
<path d="M60.1857 47.8852C61.5774 47.0817 62.664 45.1983 62.6607 43.5981C62.6571 41.6317 61.0166 40.6776 59.3042 41.6673C57.9074 42.4742 56.8174 44.3643 56.8208 45.9713C56.8244 47.9242 58.463 48.8805 60.1857 47.8852ZM60.1721 43.1692C60.6772 42.8776 60.9248 42.9377 60.9248 43.6015C60.9282 44.5881 60.1772 45.8866 59.3178 46.3832C58.7979 46.6799 58.5567 46.6149 58.5567 45.9679C58.5533 44.9763 59.3093 43.6693 60.1721 43.1692Z" fill="black"/>
<path d="M68.3446 43.1743C69.7363 42.3708 70.8212 40.4875 70.8178 38.8889C70.8142 36.9177 69.1684 35.9706 67.4631 36.9547C66.0595 37.765 64.9644 39.6619 64.9678 41.2672C64.9714 43.2267 66.6281 44.1687 68.3446 43.1743ZM68.331 38.46C68.859 38.1502 69.0786 38.255 69.0819 38.8923C69.0853 39.8772 68.3344 41.1757 67.4766 41.6707C66.9214 41.9981 66.7036 41.8695 66.7036 41.2639C66.7002 40.2722 67.4614 38.9618 68.331 38.46Z" fill="black"/>
<path d="M51.1726 55.1405C49.7741 55.9474 48.6841 57.8409 48.6875 59.4462C48.6911 61.4174 50.3483 62.3473 52.0541 61.3617C53.4458 60.5582 54.5307 58.6749 54.5274 57.0747C54.5238 55.1007 52.8746 54.1583 51.1726 55.1405ZM51.1862 59.8581C50.6568 60.1611 50.4234 60.0839 50.4234 59.4428C50.42 58.4512 51.176 57.1442 52.0405 56.6441C52.6083 56.3182 52.7915 56.4817 52.7915 57.0781C52.7949 58.0647 52.0439 59.3632 51.1862 59.8581Z" fill="black"/>
<path d="M59.3296 50.433C57.9311 51.2399 56.8394 53.1317 56.8462 54.737C56.8498 56.6912 58.4875 57.6468 60.2111 56.6509C61.6029 55.8474 62.6895 53.9641 62.6861 52.3621C62.6789 50.3883 61.0316 49.4473 59.3296 50.433ZM59.3432 55.1473C58.803 55.4632 58.5821 55.3577 58.5821 54.732C58.5787 53.7403 59.333 52.435 60.1976 51.9366C60.759 51.6158 60.9471 51.7612 60.9502 52.3672C60.9536 53.3538 60.2026 54.6523 59.3432 55.1473Z" fill="black"/>
<path d="M67.4868 45.7238C66.0849 46.5324 64.9898 48.4259 64.9932 50.0329C64.9967 51.986 66.6423 52.9353 68.3682 51.9417C69.76 51.1399 70.8466 49.2566 70.8432 47.6546C70.8396 45.6911 69.1989 44.7307 67.4868 45.7238ZM67.4986 50.4381C66.9582 50.7536 66.729 50.6501 66.729 50.0296C66.7256 49.0379 67.4868 47.7275 68.3547 47.2258C68.8869 46.9185 69.1073 47.0259 69.1073 47.658C69.1107 48.6446 68.3598 49.9431 67.4986 50.4381Z" fill="black"/>
<path d="M11.982 68.9476C11.7584 69.0777 11.5526 69.4668 11.5514 69.6935L11.5361 74.6569C11.5345 74.9688 11.7006 75.257 11.9701 75.4113L16.2582 77.8873C16.2599 77.8882 16.2606 77.8903 16.2623 77.8913C16.5406 78.0479 16.8639 78.042 17.1285 77.8913C17.1297 77.8907 17.1301 77.8892 17.1312 77.8885C17.132 77.8881 17.1328 77.8883 17.1336 77.8879L22.3021 74.8692L22.2886 80.9426C22.2886 81.2528 22.453 81.541 22.7225 81.6952C31.6911 86.8721 11.7125 75.34 32.8545 87.5436C33.1117 87.6933 33.4453 87.7051 33.7259 87.5453C33.7286 87.5437 33.7296 87.5404 33.7323 87.5388L39.2572 84.3278C39.525 84.1719 39.6878 83.8871 39.6894 83.5786L39.702 79.1798L77.5255 57.3408C79.7343 56.0576 81.4634 53.052 81.4634 50.4974L81.36 15.0329C81.36 13.5852 80.7887 12.4613 79.7937 11.9511L79.792 11.9528C77.1094 10.3954 66.6369 4.31589 67.3088 4.70593C66.368 4.14483 65.1661 4.23128 63.9303 4.94325L31.7671 23.5086L29.2896 22.078C29.0201 21.9203 28.6861 21.9237 28.42 22.078L22.9217 25.2742C22.9086 25.2808 22.893 25.2779 22.8802 25.2852C22.6107 25.4395 22.4462 25.726 22.4445 26.0345L22.3936 41.7892C22.2093 41.8968 12.2229 47.73 12.0413 47.836C11.8949 47.9212 11.6124 48.2565 11.6107 48.5836L11.5972 53.5487C11.5972 53.8589 11.7616 54.1471 12.0311 54.3014C12.0903 54.3355 11.4445 53.9625 16.325 56.7814C16.5938 56.9345 16.9188 56.9356 17.1895 56.7814C17.1907 56.7808 17.1911 56.7793 17.1923 56.7786C17.193 56.7782 17.1939 56.7784 17.1946 56.778L22.3705 53.754L22.3426 62.8959C22.1582 63.0036 12.1637 68.8415 11.982 68.9476ZM25.884 62.8365C26.058 62.9373 28.6169 64.4189 28.4429 64.3181L16.7096 71.1716L14.1467 69.6918C15.3746 68.9746 26.0662 62.7301 25.884 62.8365ZM13.2822 71.1971L15.8419 72.6753C15.8413 72.8535 15.8323 75.8261 15.8329 75.6381L13.2737 74.1602L13.2822 71.1971ZM17.5779 72.6739C17.8042 72.5418 29.6796 65.6052 29.2963 65.8291L29.2862 68.7798C29.1112 68.882 16.7951 76.0753 17.5692 75.6232C17.5692 75.6232 17.5785 72.4859 17.5779 72.6739ZM24.0397 73.8568C24.2182 73.7525 31.0319 69.7707 30.5983 70.024C30.8644 69.8698 31.0288 69.585 31.0288 69.2765C31.0319 68.1207 31.0424 64.0519 31.0424 64.3096C31.0424 64.0186 30.8821 63.718 30.6088 63.5607C30.6079 63.5602 30.6076 63.5592 30.6068 63.5587C27.8149 61.9453 26.1324 60.9731 26.318 61.0803C26.0468 60.9244 25.7128 60.9227 25.445 61.082L24.0821 61.8788L24.1092 52.7486L30.6593 48.9192C30.9254 48.7633 31.0882 48.4802 31.0899 48.1734L31.1068 43.2099C31.1084 42.9112 30.9448 42.6083 30.6681 42.4491C28.9155 41.4371 26.19 39.8633 26.3756 39.9705C26.112 39.8178 25.7628 39.8139 25.4958 39.9738L24.1329 40.7706L24.1753 27.5411L32.5735 32.3892L32.4248 85.289L24.0261 80.4442L24.0397 73.8568ZM17.6374 51.5622C17.8829 51.4188 29.7004 44.5162 29.3625 44.7135L29.354 47.6648L17.6293 54.5128L17.6374 51.5622ZM34.1659 85.2797L34.3161 32.3863L38.0981 30.1889C37.8885 107.489 37.9755 74.5745 37.9553 83.0768L34.1659 85.2797ZM76.6559 55.8389L39.7081 77.1725C39.8624 22.6639 39.8136 39.8881 39.8262 35.4427L77.4001 13.7547C78.7548 12.9798 79.6241 13.4431 79.6241 15.0346L79.7276 50.4991C79.7259 52.4265 78.3189 54.871 76.6559 55.8389ZM64.8016 6.44517C65.1881 6.22141 65.9086 5.89255 66.429 6.20276L76.6915 12.163C76.639 12.1901 76.5864 12.2206 76.5339 12.2511L39.8318 33.4351C39.8345 32.4889 39.8454 28.4144 39.8454 28.6722C39.8454 28.4985 39.6811 28.0773 39.4114 27.9229L33.5036 24.5114C58.9085 9.85425 54.6439 12.3088 64.8016 6.44517ZM28.8573 23.8325C29.0333 23.9342 37.7903 28.9974 37.2394 28.6788L33.4449 30.8838L25.0541 26.0416L28.8573 23.8325ZM25.9385 41.7278L28.5022 43.2065L16.7689 50.06L14.206 48.5802L25.9385 41.7278ZM13.3432 50.086C13.5169 50.1863 16.0749 51.664 15.9012 51.5637L15.8927 54.5285L13.3347 53.0503L13.3432 50.086Z" fill="black"/>
</svg>
