<svg width="93" height="92" viewBox="0 0 93 92" fill="none" xmlns="http://www.w3.org/2000/svg">
<rect x="0.5" width="92" height="92" rx="46" fill="black"/>
<path d="M37.0007 29.502L38.2941 28.7502C38.5645 28.5932 38.6562 28.2461 38.4987 27.9763C38.3411 27.7044 37.9945 27.6126 37.7248 27.7707L36.4313 28.5225C36.161 28.6795 36.0692 29.0266 36.2268 29.2964C36.3849 29.5692 36.733 29.6573 37.0007 29.502Z" fill="white"/>
<path d="M33.6669 72.2942C34.6768 72.8779 35.663 73.172 36.5651 73.172C37.2212 73.172 37.8337 73.0161 38.3787 72.7022L38.3831 72.6992C38.386 72.6975 38.3896 72.6984 38.3925 72.6966L63.4486 58.1355C64.7232 57.3937 65.4286 55.8935 65.4347 53.909C65.4352 53.7056 65.3274 53.5177 65.1516 53.4171C65.0383 53.3522 61.5164 51.3139 61.6299 51.3785C61.453 51.2756 61.2358 51.2756 61.0611 51.3796L59.0525 52.5476C58.0554 51.8263 57.2582 50.3707 57.2675 49.2005C57.2727 47.5044 57.3478 19.6965 57.3526 21.426C57.352 21.2248 57.2442 21.038 57.0696 20.9373L53.5484 18.9043C53.3726 18.8025 53.1554 18.8025 52.9807 18.9043L39.1045 26.9692C38.8342 27.1262 38.7424 27.4733 38.9 27.7431C39.0564 28.0139 39.4025 28.1046 39.6739 27.9487L53.2665 20.0485L55.6563 21.4277L31.7298 35.3318C31.6164 35.2664 29.1848 33.8653 29.3387 33.954L35.4711 30.3908C35.7414 30.2339 35.8338 29.8867 35.6762 29.617C35.5187 29.345 35.171 29.2543 34.9029 29.4113L27.9253 33.4654C27.7506 33.5671 27.6433 33.7539 27.6433 33.9562C27.6433 34.126 27.5666 61.4735 27.5654 61.7263C27.5532 65.6046 30.2906 70.3451 33.6669 72.2942ZM34.2329 71.3147C31.1695 69.5458 28.6864 65.2464 28.6975 61.7297L28.7738 34.9368C28.8872 35.0022 31.3148 36.4011 31.1608 36.3124L31.0827 63.7583C31.0827 67.5942 35.7161 70.4331 36.7171 67.3347L39.2191 68.7747C39.1619 69.9304 38.8124 71.1473 37.8143 71.7215C36.8857 72.2533 35.6149 72.1118 34.2329 71.3147ZM62.8792 57.156L40.1139 70.3861C40.1266 70.344 40.1324 70.2962 40.1442 70.2535C40.2718 69.792 40.3525 69.219 40.3709 68.7985L64.2175 54.9405C64.0373 55.9797 63.5773 56.7503 62.8792 57.156ZM61.3475 52.5227L63.7388 53.9079L39.8132 67.8101L37.4277 66.4343L59.3182 53.7078C59.326 53.7033 59.331 53.6959 59.3384 53.691L61.3475 52.5227ZM57.9984 53.1607C49.6165 58.0355 40.5166 63.3279 36.0051 65.9517C35.8332 66.0523 35.7265 66.2347 35.7238 66.4337C35.7098 67.4543 35.1649 67.7937 34.2434 67.2717C33.1456 66.6405 32.2181 65.0308 32.2181 63.7561L32.2962 36.3147L56.2117 22.4164L56.1354 49.195C56.1243 50.5789 56.9007 52.1699 57.9984 53.1607Z" fill="white"/>
<path d="M34.9764 44.8126C35.0743 44.8126 35.1721 44.7872 35.2594 44.7364L54.288 33.7506C54.4638 33.65 54.5716 33.462 54.5711 33.2597L54.5534 26.9371C54.5528 26.7348 54.4445 26.548 54.2698 26.4474C54.0946 26.3479 53.8784 26.3468 53.7043 26.4485L34.6757 37.4354C34.4999 37.536 34.3921 37.7239 34.3927 37.9262L34.4104 44.2477C34.4112 44.5573 34.661 44.8126 34.9764 44.8126ZM53.4241 27.9166L53.4379 32.9347L35.5397 43.2682L35.5259 38.2512L53.4241 27.9166Z" fill="white"/>
<path d="M44.9163 44.6147L34.6934 50.5172C34.4225 50.6731 34.3296 51.0191 34.4861 51.29C34.6437 51.5621 34.9917 51.653 35.2594 51.4967L45.4824 45.5943C45.7532 45.4384 45.8461 45.0923 45.6896 44.8215C45.5327 44.5506 45.1861 44.4555 44.9163 44.6147Z" fill="white"/>
<path d="M44.9163 54.3623L34.6934 60.2648C34.4225 60.4207 34.3296 60.7667 34.4861 61.0376C34.6437 61.3097 34.9917 61.4006 35.2594 61.2443L45.4824 55.3418C45.7532 55.186 45.8461 54.8399 45.6896 54.5691C45.5327 54.2982 45.1861 54.2031 44.9163 54.3623Z" fill="white"/>
<path d="M54.3251 45.969C54.1499 45.8695 53.9337 45.8684 53.7596 45.9701L47.1545 49.7832C46.9788 49.8838 46.871 50.0717 46.8715 50.274L46.8898 56.5966C46.8903 56.7989 46.9987 56.9858 47.1733 57.0864C47.3489 57.1864 47.5638 57.1872 47.7388 57.0853L54.3433 53.2722C54.5191 53.1716 54.6269 52.9837 54.6263 52.7814L54.6087 46.4588C54.6081 46.2565 54.4998 46.0696 54.3251 45.969ZM48.0191 55.6171L48.0047 50.599L53.4793 47.4383L53.4932 52.4564L48.0191 55.6171Z" fill="white"/>
<path d="M47.4282 47.4007C47.526 47.4007 47.6238 47.3753 47.7112 47.3244L54.3157 43.5114C54.4915 43.4108 54.5993 43.2229 54.5987 43.0206L54.581 36.698C54.5805 36.4956 54.4721 36.3088 54.2974 36.2082C54.1222 36.1087 53.9061 36.1076 53.732 36.2093L47.1269 40.0223C46.9511 40.1229 46.8433 40.3109 46.8439 40.5132L46.8621 46.8358C46.863 47.1453 47.1127 47.4007 47.4282 47.4007ZM53.4517 37.6775L53.4655 42.6955L47.9914 45.8563L47.9771 40.8382L53.4517 37.6775Z" fill="white"/>
</svg>
