<svg width="93" height="92" viewBox="0 0 93 92" fill="none" xmlns="http://www.w3.org/2000/svg">
<rect x="0.5" width="92" height="92" rx="46" fill="black"/>
<path d="M59.2729 41.6645C62.8217 39.6148 65.6994 34.6299 65.6884 30.5516C65.6828 28.4621 64.941 26.8867 63.6022 26.1161C60.8061 24.5125 59.1385 23.5201 56.4759 21.9714C55.3811 21.3347 53.9781 21.3288 52.5041 21.9327L48.1014 19.3767C46.6122 18.5056 44.6598 18.6747 42.6058 19.8532C42.3349 20.0091 42.2409 20.3551 42.3968 20.626C42.5527 20.8969 42.8998 20.9875 43.1696 20.8349C44.8566 19.8665 46.4055 19.6951 47.532 20.3551L52.1637 23.0442C52.1672 23.0463 52.1685 23.0506 52.172 23.0527L52.1929 23.0648C50.7844 23.3229 49.3317 24.1571 48.1978 25.0994C45.2562 27.5422 42.9463 31.7231 42.6048 35.4881L41.7257 34.9773L36.5595 31.97C36.6425 29.4748 37.7458 26.5904 39.5467 24.1836C39.7336 23.9327 39.6827 23.5789 39.4328 23.391C39.1841 23.2052 38.8292 23.255 38.6402 23.5048C36.6957 26.1034 35.5204 29.2393 35.4382 31.9693C34.8828 32.1209 34.3127 32.3398 33.7271 32.6775C30.1783 34.7272 27.3006 39.7088 27.3117 43.7827C27.3172 45.8677 28.0546 47.442 29.3879 48.217L36.5308 52.3672C36.5316 52.3676 36.5324 52.3674 36.5331 52.3678C36.5363 52.3696 36.5387 52.3721 36.5419 52.3739C38.0856 53.2616 39.9241 52.8344 41.4748 51.9405L48.7083 47.7641L48.7032 52.2174L39.2748 57.6606C39.099 57.7612 38.9917 57.9491 38.9917 58.1514L38.9988 61.1767C38.7052 61.2745 38.4061 61.4078 38.104 61.5852C35.904 62.8765 34.1981 65.8747 34.2213 68.4142C34.2368 69.7397 34.7221 70.7435 35.5701 71.2289C35.6841 71.301 37.509 72.4503 38.1554 72.8573C38.1564 72.858 38.1571 72.8589 38.1582 72.8596C39.1582 73.4254 40.3283 73.1589 41.3156 72.5799C43.5156 71.2886 45.2192 68.287 45.1938 65.7454C45.182 64.4547 44.7109 63.4784 43.8805 62.9699C43.8677 62.9601 43.8601 62.9461 43.8462 62.9373L41.2691 61.3122C40.9251 61.1153 40.5365 61.0374 40.1306 61.0227L40.1249 58.4765L58.4194 47.9152L58.424 49.9314C58.0446 50.0272 57.6576 50.1661 57.2619 50.3983C55.0619 51.6884 53.356 54.6867 53.3782 57.2272C53.3936 58.5527 53.879 59.5566 54.7269 60.0419C54.8414 60.1142 57.1893 61.6015 57.3039 61.667C57.3059 61.6682 57.3082 61.6676 57.3102 61.6687C57.312 61.6697 57.3132 61.6715 57.315 61.6726C58.3132 62.2391 59.4879 61.9703 60.4724 61.3929C62.6725 60.1027 64.3761 57.1012 64.3518 54.5584C64.3388 53.2666 63.8679 52.2912 63.0373 51.7828C62.895 51.6749 61.1706 50.5971 60.4249 50.1241C60.1578 49.9705 59.8625 49.8917 59.5559 49.8492L59.5493 46.9346C59.5493 46.7323 59.441 46.5454 59.2663 46.4448C59.0894 46.3453 58.8749 46.3442 58.7002 46.4459L49.836 51.5634L49.8412 47.11L59.2729 41.6645ZM40.7429 71.6026C39.0748 72.5853 37.9294 71.8443 37.9116 70.0161C37.8917 67.9178 39.4129 65.2435 41.2349 64.1755C42.7674 63.2735 44.0425 63.7806 44.0618 65.7565C44.0828 67.8581 42.5626 70.5357 40.7429 71.6026ZM40.6854 62.2817L41.5091 62.8013C41.2305 62.8986 40.9474 63.0313 40.6611 63.1982C38.5575 64.4339 36.7552 67.4793 36.7784 70.0283C36.7806 70.2571 36.7972 70.476 36.8282 70.685L36.1538 70.2593C35.6475 69.9686 35.3633 69.3097 35.3534 68.402C35.3346 66.3048 36.8558 63.6294 38.6778 62.5614C38.7897 62.4957 38.8931 62.4644 39.0017 62.4134L39.0028 62.8721C39.0039 63.185 39.2571 63.437 39.5688 63.437C39.8817 63.4359 40.136 63.1827 40.1349 62.8699L40.1332 62.134C40.3363 62.146 40.5251 62.1896 40.6854 62.2817ZM59.8997 60.4156C58.3759 61.3112 57.364 60.7524 57.1259 59.4485C56.7383 57.3006 58.386 54.1637 60.3917 52.9885C61.9338 52.0805 63.2006 52.6152 63.2197 54.5695C63.2396 56.6711 61.7195 59.3487 59.8997 60.4156ZM59.8423 51.0936L60.667 51.6143C57.926 52.5715 55.5617 56.5345 55.985 59.498L55.3106 59.0723C54.8043 58.7816 54.5202 58.1227 54.5102 57.2161C54.4925 55.1167 56.0149 52.4424 57.8357 51.3744C58.0399 51.2544 58.2348 51.1748 58.4267 51.1039L58.4272 51.317C58.4283 51.6298 58.6814 51.8819 58.9932 51.8819C59.3061 51.8808 59.5603 51.6276 59.5592 51.3147L59.5585 50.9816C59.6593 51.0079 59.7549 51.044 59.8423 51.0936ZM55.9065 22.9498L60.6917 25.7431C59.7923 25.9369 58.6555 26.4338 57.4731 27.3643C57.2405 25.5137 56.3863 24.2464 55.3405 23.5955C55.2219 23.4857 54.9251 23.3425 53.8211 22.6972C54.6143 22.5314 55.3304 22.6154 55.9065 22.9498ZM29.9561 47.2375C28.9855 46.6737 28.4482 45.4454 28.4438 43.7805C28.4327 40.067 31.0573 35.5265 34.2932 33.6581C34.8489 33.3377 35.3848 33.1157 35.8897 32.9963L41.7321 36.3923C37.7489 38.1121 34.4417 43.5758 34.4535 47.934C34.4551 48.5699 34.5586 49.3815 34.7447 49.9835C34.7487 49.9968 34.75 50.0126 34.7542 50.0257L29.9561 47.2375ZM40.9087 50.9588C37.8406 52.7275 35.5946 51.3327 35.5856 47.9318C35.5711 43.0666 39.7821 37.7308 43.2304 37.1063C43.3924 37.0765 43.6934 36.8803 43.6942 36.4495C43.6942 36.4488 43.6947 36.4481 43.6947 36.4474C43.6841 32.726 45.9734 28.4344 48.847 26.0255C52.6702 22.8238 56.3837 23.6415 56.4073 28.5516C56.4073 29.039 56.981 29.2924 57.3435 28.974C57.9384 28.4516 58.5923 27.9073 59.2397 27.5345C62.1478 25.8343 64.5469 26.9965 64.5563 30.5538C64.5673 34.2717 61.9428 38.8155 58.7069 40.685L40.9087 50.9588Z" fill="white"/>
<path d="M40.6213 22.9012C40.943 22.5596 41.278 22.2379 41.6185 21.9449C41.8562 21.7415 41.8838 21.3844 41.6793 21.1478C41.4759 20.9112 41.1188 20.8847 40.8822 21.087C40.5108 21.4054 40.1459 21.7548 39.7966 22.1251C39.5821 22.3529 39.5932 22.7111 39.8209 22.9255C40.0482 23.139 40.4061 23.1293 40.6213 22.9012Z" fill="white"/>
</svg>
