<svg width="93" height="92" viewBox="0 0 93 92" fill="none" xmlns="http://www.w3.org/2000/svg">
<rect x="0.5" width="92" height="92" rx="46" fill="black"/>
<path d="M42.6057 29.5996L44.8478 30.9015C44.8528 30.9046 44.8548 30.9106 44.8599 30.9136L49.4899 33.5967C49.6714 33.7011 49.8864 33.6955 50.0571 33.5973L62.3507 26.5107C62.5265 26.4096 62.6348 26.2233 62.6348 26.021C62.6348 25.8192 62.5276 25.6318 62.3529 25.5307L55.4587 21.5236C55.4507 21.5189 55.4408 21.5209 55.4326 21.5166C55.2565 21.4246 55.0971 21.4228 54.9182 21.5155C54.9098 21.5198 54.8998 21.5178 54.8916 21.5225L42.6079 28.6201C42.4332 28.7213 42.3249 28.9076 42.3249 29.1093C42.3249 29.3111 42.431 29.4979 42.6057 29.5996ZM46.2765 30.4228L55.1735 25.2819L58.6759 27.32L49.7751 32.453L46.2765 30.4228ZM59.8076 26.6688L55.7406 24.3017V22.9969L60.9378 26.0171L59.8076 26.6688ZM54.6086 22.9937V24.3007L45.1477 29.7678L44.0186 29.1126L54.6086 22.9937Z" fill="white"/>
<path d="M57.169 34.3977C56.9943 34.2971 56.7788 34.2976 56.6041 34.3982L52.3234 36.8697C52.1477 36.9714 52.0393 37.1588 52.0404 37.3616L52.0537 42.1851C52.0548 42.3869 52.162 42.5732 52.3378 42.6738C52.5134 42.7749 52.7277 42.7746 52.9027 42.6738L57.1845 40.2029C57.3603 40.1012 57.4686 39.9138 57.4675 39.7109L57.4531 34.8869C57.452 34.6851 57.3448 34.4988 57.169 34.3977ZM53.1835 41.2051L53.1736 37.6861L56.3244 35.8675L56.3343 39.3864L53.1835 41.2051Z" fill="white"/>
<path d="M59.3824 38.8453C59.4796 38.8453 59.578 38.8198 59.6654 38.7695L63.9471 36.2987C64.1229 36.1969 64.2313 36.0096 64.2302 35.8067L64.2158 30.9821C64.2147 30.7803 64.1074 30.5941 63.9317 30.4929C63.757 30.3923 63.5414 30.3929 63.3667 30.4935L59.0861 32.9654C58.9103 33.0672 58.8019 33.2545 58.803 33.4574L58.8163 38.2809C58.818 38.5966 59.0746 38.8453 59.3824 38.8453ZM63.087 31.9627L63.097 35.4822L59.9462 37.3008L59.9362 33.7819L63.087 31.9627Z" fill="white"/>
<path d="M57.169 42.2669C56.9943 42.1663 56.7788 42.1669 56.6041 42.2675L52.3234 44.7389C52.1477 44.8406 52.0393 45.028 52.0404 45.2309L52.0537 50.0549C52.0561 50.4924 52.5287 50.759 52.9027 50.5436L57.1845 48.0721C57.3603 47.9704 57.4686 47.783 57.4675 47.5802L57.4531 42.7561C57.452 42.5544 57.3448 42.3681 57.169 42.2669ZM53.1835 49.0743L53.1736 45.5554L56.3244 43.7368L56.3343 47.2557L53.1835 49.0743Z" fill="white"/>
<path d="M63.9317 38.3627C63.757 38.2621 63.5414 38.2627 63.3667 38.3633L59.0861 40.8347C58.9103 40.9364 58.8019 41.1238 58.803 41.3267L58.8163 46.1507C58.8174 46.3525 58.9247 46.5387 59.1004 46.6393C59.276 46.7405 59.4903 46.7402 59.6654 46.6393L63.9471 44.1679C64.1229 44.0662 64.2313 43.8788 64.2302 43.6759L64.2158 38.8519C64.2147 38.6501 64.1074 38.4639 63.9317 38.3627ZM59.9462 45.1701L59.9362 41.6511L63.087 39.8325L63.097 43.3515L59.9462 45.1701Z" fill="white"/>
<path d="M25.8291 65.9786C25.8302 66.1798 25.9375 66.3655 26.111 66.4661L37.5147 73.0928C37.5145 73.0926 37.5149 73.0929 37.5147 73.0928C37.5153 73.0931 37.5163 73.0941 37.5169 73.0944C37.6042 73.1447 37.7015 73.1696 37.7988 73.1696C37.8961 73.1696 37.9945 73.1442 38.0818 73.0939L43.6704 69.8673C43.9412 69.7109 44.0341 69.3649 43.8771 69.094C43.7212 68.8215 43.3741 68.7309 43.1043 68.8867L38.362 71.6243C38.3569 69.8162 38.3126 54.3593 38.3052 51.741L49.2323 45.4324L49.2887 65.3158L47.2623 66.486C46.9914 66.6425 46.8985 66.9885 47.0555 67.2594C47.2103 67.5313 47.5563 67.6209 47.8283 67.4667C48.1857 67.2603 66.7897 56.519 66.9487 56.4273C67.1244 56.3256 67.2328 56.1382 67.2317 55.9353L67.1477 26.0215C67.1474 25.971 67.1223 25.9277 67.1093 25.8802C67.0965 25.8333 67.0956 25.7822 67.0714 25.7403C67.0421 25.6897 66.9914 25.6557 66.9474 25.6159C66.9185 25.5898 66.9003 25.554 66.8657 25.534L66.8644 25.5332C52.8616 17.3954 69.778 27.226 55.4621 18.9068C55.2885 18.8051 55.0707 18.8051 54.8949 18.9057L38.0852 28.6113C37.9977 28.6619 37.927 28.7339 37.8781 28.8186C37.8548 28.8589 37.8546 28.9082 37.8418 28.9534C37.8278 29.0028 37.8021 29.0482 37.8021 29.101C37.8021 29.2191 37.8247 37.6145 37.8256 37.5001L26.0513 44.2978C25.9639 44.3485 25.8932 44.4205 25.8442 44.5051C25.821 44.5455 25.8208 44.5948 25.808 44.64C25.7939 44.6894 25.7683 44.7348 25.7683 44.7876C25.7683 44.788 25.7686 44.7883 25.7686 44.7887C25.7686 44.7891 25.7683 44.7894 25.7683 44.7898L25.8291 65.9786ZM26.9601 65.6508L26.9037 45.7733C28.031 46.4284 36.3943 51.2883 37.1729 51.7408C37.1755 52.6662 37.2141 66.2207 37.2295 71.6185L26.9601 65.6508ZM49.2276 43.4679L38.9574 37.5004L38.9364 30.0866L49.2067 36.0548L49.2276 43.4679ZM55.4191 54.0025L61.4928 50.496L61.5129 57.5433L55.4191 54.0025ZM60.9926 58.5496L54.9447 62.0407L54.9246 55.0238L60.9926 58.5496ZM62.6454 57.6045L62.6227 49.5154C62.6216 49.3137 62.5143 49.1274 62.3385 49.0262C62.1639 48.9256 61.9483 48.9262 61.7736 49.0268L54.0724 53.4727C53.8966 53.5744 53.7883 53.7618 53.7894 53.9647L53.8139 62.7034L50.4197 64.663L50.339 36.055L66.0178 27.0024L66.0985 55.6108L62.6454 57.6045ZM55.1768 20.05L65.4526 26.0214L49.7726 35.0746C46.9505 33.4346 41.7432 30.4086 39.4969 29.1032L55.1768 20.05ZM38.3914 38.4804L48.6663 44.4515C47.5196 45.1135 38.8673 50.1091 37.7388 50.7606L27.4642 44.7898L38.3914 38.4804Z" fill="white"/>
<path d="M38.0221 49.2882L43.5697 46.096C43.5758 46.0925 43.5782 46.0853 43.5842 46.0816L45.5641 44.9401C45.7388 44.839 45.8461 44.6527 45.8461 44.4509C45.8461 44.2492 45.7388 44.0623 45.5641 43.9612L38.67 39.9536C38.662 39.9489 38.652 39.9507 38.6439 39.9465C38.5663 39.906 38.482 39.8778 38.3885 39.8773C38.3883 39.8773 38.3886 39.8773 38.3885 39.8773C38.3877 39.8773 38.3866 39.8767 38.3859 39.8767C38.292 39.8767 38.2072 39.9051 38.1294 39.9454C38.1209 39.9496 38.1111 39.9478 38.1028 39.9525L30.5741 44.2995C30.3994 44.4006 30.2911 44.5869 30.2911 44.7887C30.2911 44.9904 30.3983 45.1773 30.5719 45.279L37.455 49.2866C37.6327 49.3899 37.8496 49.3876 38.0221 49.2882ZM33.9871 45.9571L38.3859 43.4067L42.1551 45.6007L37.7424 48.1434L33.9871 45.9571ZM43.2862 44.949L38.9519 42.4265V41.4264L44.1524 44.4498L43.2862 44.949ZM37.8198 41.423V42.426L32.8608 45.3014L31.9859 44.792L37.8198 41.423Z" fill="white"/>
<path d="M45.2513 68.9547L46.4906 68.2389C46.7615 68.0824 46.8543 67.7364 46.6974 67.4656C46.5426 67.1936 46.1954 67.1013 45.9246 67.2583L44.6853 67.9741C44.4144 68.1305 44.3215 68.4766 44.4785 68.7474C44.6326 69.0171 44.9789 69.1111 45.2513 68.9547Z" fill="white"/>
<path d="M41.3819 58.7323C41.5565 58.8329 41.7721 58.8324 41.9468 58.7318L46.2275 56.2609C46.4033 56.1592 46.5116 55.9718 46.5105 55.7689L46.4972 50.9443C46.4961 50.7426 46.3889 50.5563 46.2131 50.4551C46.0384 50.3545 45.8228 50.3551 45.6482 50.4557L41.3664 52.9277C41.1906 53.0294 41.0823 53.2168 41.0834 53.4196L41.0978 58.2431C41.0989 58.4449 41.2061 58.6312 41.3819 58.7323ZM45.3674 51.925L45.3773 55.4444L42.2265 57.2631L42.2166 53.7441L45.3674 51.925Z" fill="white"/>
<path d="M41.0978 66.1129C41.0989 66.3147 41.2061 66.501 41.3819 66.6021C41.5565 66.7027 41.7721 66.7022 41.9468 66.6016L46.2275 64.1301C46.4033 64.0284 46.5116 63.841 46.5105 63.6382L46.4972 58.8141C46.4961 58.6124 46.3889 58.4261 46.2131 58.3255C46.0384 58.2249 45.8228 58.2249 45.6482 58.3255L41.3664 60.7969C41.1906 60.8986 41.0823 61.086 41.0834 61.2889L41.0978 66.1129ZM45.3674 59.7947L45.3773 63.3137L42.2265 65.1323L42.2166 61.6134L45.3674 59.7947Z" fill="white"/>
<path d="M33.9173 58.8993C34.0046 58.9496 34.103 58.975 34.2003 58.975C34.5111 58.975 34.7646 58.7239 34.7663 58.4106L34.7796 53.5866C34.7807 53.3837 34.6724 53.1963 34.4966 53.0946L30.2159 50.6232C30.0412 50.5226 29.8257 50.5231 29.651 50.6226C29.4752 50.7238 29.368 50.9101 29.3669 51.1118L29.3536 55.9359C29.3525 56.1387 29.4608 56.3261 29.6366 56.4278L33.9173 58.8993ZM30.4967 52.0924L33.6464 53.9111L33.6365 57.43L30.4868 55.6114L30.4967 52.0924Z" fill="white"/>
<path d="M30.2159 58.4924C30.0412 58.3918 29.8257 58.3913 29.651 58.4919C29.4752 58.593 29.368 58.7793 29.3669 58.9811L29.3536 63.8057C29.3525 64.0085 29.4608 64.1959 29.6366 64.2976L33.9173 66.7685C34.292 66.9844 34.7639 66.7164 34.7663 66.2799L34.7796 61.4564C34.7807 61.2535 34.6724 61.0661 34.4966 60.9644L30.2159 58.4924ZM33.6365 65.2992L30.4868 63.4812L30.4967 59.9617L33.6464 61.7809L33.6365 65.2992Z" fill="white"/>
</svg>
