<svg width="93" height="92" viewBox="0 0 93 92" fill="none" xmlns="http://www.w3.org/2000/svg">
<rect x="0.5" width="92" height="92" rx="46" fill="black"/>
<path d="M33.3203 56.4529L36.8832 58.5278C36.9338 58.5749 36.9775 58.6306 37.0294 58.6761C38.3903 59.869 40.1725 60.4826 42.242 60.4826C42.51 60.4826 42.7942 60.4485 43.0721 60.4278L43.0911 65.9285L40.6921 67.3149C40.3535 67.51 40.312 67.9801 40.6047 68.233L46.1523 73.0333C46.4274 73.2718 46.8638 73.1939 47.0301 72.8553L52.5324 61.6816C52.643 61.4582 52.5932 61.1885 52.4119 61.0182C52.2284 60.8474 51.9564 60.8159 51.742 60.9414L49.9034 62.0044L49.886 58.1035C57.8352 53.2254 64.2397 41.9279 64.2169 32.7211C64.2058 28.0579 62.5861 24.5602 59.6565 22.8709C59.6438 22.8636 59.6297 22.8596 59.617 22.8524C59.4893 22.7773 58.4372 22.1657 54.5511 19.9048C51.5927 18.1801 47.7067 18.5378 43.6118 20.9119C43.342 21.0689 43.2492 21.4149 43.4062 21.6858C43.5631 21.9567 43.9103 22.0473 44.18 21.8914C47.909 19.7279 51.3893 19.373 53.9818 20.8832L55.5926 21.8207C53.2101 21.8207 50.7986 22.7055 48.7305 23.8886C41.0508 28.3177 34.8693 38.5936 34.012 47.4542C33.7447 50.2357 33.9548 53.6961 35.1887 56.2122C35.1924 56.2199 35.1949 56.2291 35.1986 56.2368L33.8908 55.475C31.337 53.982 29.9252 50.8224 29.9152 46.5771C29.8931 40.0621 33.2462 32.2111 38.4589 26.5745C38.6711 26.3451 38.6568 25.9869 38.4279 25.7747C38.1968 25.5624 37.8398 25.5779 37.6275 25.8062C32.2313 31.6412 28.7599 39.7957 28.7832 46.5799C28.7942 51.2425 30.405 54.7487 33.3203 56.4529ZM50.6928 62.8556L46.3392 71.6978L41.9468 67.8975L43.9412 66.7449C44.117 66.6432 44.2254 66.4553 44.2243 66.2524L44.2044 60.3123C45.5376 60.0889 47.2654 59.541 48.757 58.764L48.7758 62.9855C48.7769 63.1873 48.8852 63.373 49.0599 63.4736C49.2346 63.5743 49.4502 63.5737 49.6248 63.4731L50.6928 62.8556ZM63.0848 32.7235C63.111 43.3189 53.8005 57.9618 43.5631 59.2626C40.5265 59.6583 37.92 58.785 36.4059 56.0811C35.0784 53.6946 34.8728 50.2392 35.1436 47.4992C35.9682 39.0546 41.9264 29.1357 49.2766 24.8812C49.2825 24.8778 49.2884 24.8737 49.2943 24.8703C52.3078 23.1464 56.0392 22.1237 59.0499 23.8318L59.0993 23.8604C59.1018 23.8618 59.1044 23.8616 59.1069 23.863C61.6618 25.3464 63.0749 28.4912 63.0848 32.7235Z" fill="white"/>
<path d="M41.3277 22.4309C40.6876 22.9135 40.052 23.4425 39.4362 24.0047C39.2051 24.2153 39.1885 24.5735 39.3997 24.804C39.5113 24.9267 39.6639 24.9886 39.8176 24.9886C39.9536 24.9886 40.0906 24.94 40.199 24.8405C40.7882 24.3026 41.3974 23.7957 42.0088 23.3353C42.2586 23.1468 42.3084 22.7919 42.1204 22.5426C41.9314 22.2922 41.5743 22.2436 41.3277 22.4309Z" fill="white"/>
<path d="M48.7481 29.151C43.0679 32.4306 38.4622 40.406 38.4799 46.9292C38.4982 53.7127 43.4435 56.5826 49.3794 53.1556C55.0553 49.8788 59.6576 41.8968 59.6399 35.3625C59.6216 28.5921 54.6702 25.735 48.7481 29.151ZM48.8134 52.175C43.6153 55.1762 39.6279 52.8036 39.6119 46.9259C39.5943 40.7641 43.9468 33.2304 49.3142 30.1316C54.4766 27.1504 58.4919 29.4723 58.5079 35.3658C58.5255 41.5386 54.1764 49.0789 48.8134 52.175Z" fill="white"/>
<path d="M50.5933 40.5359C50.0847 40.2407 49.4214 40.2882 48.7791 40.6597C48.4961 40.8239 48.2385 40.8692 48.0903 40.7852C47.9444 40.7011 47.8571 40.4596 47.856 40.139C47.8538 39.2164 48.5315 38.0451 49.3341 37.5813C49.6138 37.4188 49.8681 37.3729 50.0173 37.4575C50.1632 37.5415 50.2506 37.7836 50.2517 38.1053C50.2528 38.4176 50.506 38.6697 50.8177 38.6697H50.8199C51.1317 38.6686 51.3849 38.4149 51.3838 38.102C51.3815 37.3613 51.0897 36.7687 50.5811 36.4763C50.2993 36.3135 49.9666 36.2661 49.6171 36.311V35.2105C49.6171 34.8976 49.3639 34.6444 49.0511 34.6444C48.7382 34.6444 48.485 34.8976 48.485 35.2105V36.7961C47.4768 37.5342 46.7219 38.9315 46.7239 40.1417C46.7261 40.8824 47.018 41.4745 47.5254 41.7663C48.0351 42.0599 48.6984 42.014 49.3451 41.6403C49.6271 41.4778 49.8813 41.4347 50.0284 41.5165C50.1743 41.6005 50.2616 41.8426 50.2627 42.1643C50.2649 43.0836 49.5917 44.2505 48.7913 44.7126C48.5093 44.8757 48.2507 44.9243 48.1014 44.8381C47.9566 44.7552 47.8692 44.5153 47.8681 44.1974C47.867 43.8851 47.6139 43.633 47.3021 43.633H47.2999C46.9881 43.6341 46.735 43.8884 46.7361 44.2007C46.7383 44.9381 47.0301 45.5285 47.5365 45.8198C47.7587 45.9475 48.0096 46.0105 48.2761 46.0105C48.3437 46.0105 48.4157 45.9875 48.485 45.9793V47.0989C48.485 47.4118 48.7382 47.665 49.0511 47.665C49.3639 47.665 49.6171 47.4118 49.6171 47.0989V45.5138C50.6345 44.7818 51.3989 43.3772 51.3948 42.1616C51.3937 41.4208 51.1018 40.8283 50.5933 40.5359Z" fill="white"/>
</svg>
