<svg width="93" height="92" viewBox="0 0 93 92" fill="none" xmlns="http://www.w3.org/2000/svg">
<rect x="0.5" width="92" height="92" rx="46" fill="black"/>
<path d="M25.1249 69.3303C25.1254 69.5315 25.2327 69.7172 25.4068 69.8178L31.0434 73.093C31.2197 73.1961 31.4363 73.1944 31.6106 73.0941C81.0469 44.4797 63.9855 54.3291 67.6722 52.1921C67.848 52.0904 67.9558 51.903 67.9553 51.7002L67.8751 22.6703C67.8747 22.5563 67.769 22.2844 67.5938 22.1827C67.4381 22.0923 61.8439 18.8412 61.9571 18.907C61.7808 18.8042 61.5647 18.8053 61.3895 18.9059L54.382 22.9522C54.1111 23.1086 54.0182 23.4547 54.1747 23.7255C54.3311 23.9964 54.6777 24.0876 54.948 23.9328L61.6714 20.0502L66.1797 22.6703L31.2481 42.8379L26.7401 40.2186L45.7422 29.2477C46.013 29.0913 46.1059 28.7452 45.9494 28.4744C45.7919 28.203 45.4459 28.1101 45.1761 28.2671L25.3278 39.7266C25.1508 39.829 25.0453 40.0176 25.0447 40.2164L25.045 40.2175L25.0447 40.2186L25.1249 69.3303ZM26.2559 69.0025L26.1796 41.2019L30.6822 43.8181L30.7161 56.0861L30.7587 71.6187L26.2559 69.0025ZM31.8908 71.543L31.8145 43.8183L58.0316 28.682L66.7458 23.6509L66.8221 51.3757L31.8908 71.543Z" fill="white"/>
<path d="M51.3904 24.6791L48.0643 26.5994C47.7935 26.7558 47.7006 27.1019 47.8571 27.3727C48.0139 27.6443 48.361 27.7356 48.6304 27.58L51.9564 25.6597C52.2273 25.5032 52.3201 25.1572 52.1637 24.8863C52.0067 24.6149 51.6601 24.5221 51.3904 24.6791Z" fill="white"/>
<path d="M40.498 58.6656C40.3228 58.565 40.1066 58.5656 39.9325 58.6662L34.6845 61.6959C34.5087 61.7976 34.4009 61.985 34.4015 62.1879L34.4087 64.9987C34.4092 65.2005 34.517 65.3868 34.6922 65.4874C34.8674 65.5883 35.0823 65.5884 35.2577 65.4874L40.5063 62.4571C40.6821 62.3554 40.7899 62.168 40.7893 61.9651L40.7816 59.1548C40.781 58.9531 40.6727 58.7668 40.498 58.6656ZM35.538 64.0181L35.5347 62.5124L39.6523 60.1355L39.6561 61.6407L35.538 64.0181Z" fill="white"/>
<path d="M48.4601 54.0688C48.2849 53.9676 48.0687 53.9693 47.8946 54.0694L42.6466 57.0996C42.4708 57.2014 42.363 57.3887 42.3636 57.5916L42.3708 60.4019C42.3716 60.7173 42.6291 60.9663 42.9368 60.9663C43.0347 60.9663 43.1325 60.9409 43.2198 60.8906L48.4684 57.8603C48.6442 57.7585 48.752 57.5712 48.7514 57.3683L48.7437 54.558C48.7431 54.3562 48.6348 54.17 48.4601 54.0688ZM43.5001 59.4213L43.4968 57.9161L47.6144 55.5386L47.6182 57.0438L43.5001 59.4213Z" fill="white"/>
<path d="M56.4217 49.472C56.2465 49.3713 56.0303 49.3719 55.8562 49.4725L50.6082 52.5028C50.4324 52.6045 50.3246 52.7919 50.3252 52.9948L50.3324 55.8051C50.3332 56.1204 50.5907 56.3694 50.8984 56.3694C50.9963 56.3694 51.0941 56.344 51.1814 56.2937L56.43 53.2634C56.6058 53.1617 56.7136 52.9743 56.713 52.7714L56.7053 49.9612C56.7047 49.7594 56.5964 49.5731 56.4217 49.472ZM51.4617 54.8244L51.4584 53.3192L55.576 50.9418L55.5798 52.447L51.4617 54.8244Z" fill="white"/>
<path d="M64.3838 44.8751C64.2091 44.7739 63.993 44.7756 63.8183 44.8757L58.5703 47.906C58.3945 48.0077 58.2867 48.195 58.2873 48.3979L58.2945 51.2082C58.295 51.41 58.4028 51.5963 58.5781 51.6969C58.7532 51.7977 58.9681 51.7979 59.1435 51.6969L64.3921 48.6666C64.5679 48.5649 64.6757 48.3775 64.6751 48.1746L64.6674 45.3643C64.6668 45.1625 64.5585 44.9763 64.3838 44.8751ZM59.4238 50.2276L59.4205 48.7224L63.5381 46.3449L63.5419 47.8501L59.4238 50.2276Z" fill="white"/>
<path d="M40.7561 44.8762C40.5815 44.7756 40.3653 44.7756 40.1906 44.8762L34.3655 48.2387C34.1903 48.3399 34.082 48.5273 34.0825 48.7301L34.0941 55.024C34.0947 55.2263 34.2025 55.4126 34.3777 55.5137C34.5554 55.6154 34.7716 55.6129 34.9437 55.5126L40.7688 52.1385C40.9441 52.0374 41.0519 51.85 41.0513 51.6477L41.0397 45.3654C41.0391 45.1637 40.9314 44.9768 40.7561 44.8762ZM35.2245 54.0417L35.2151 49.0557L39.9093 46.346L39.9187 51.3226L35.2245 54.0417Z" fill="white"/>
<path d="M54.8314 39.6658C54.9187 39.7161 55.0165 39.741 55.1138 39.741C55.2117 39.741 55.3095 39.7155 55.3974 39.6647L64.2213 34.5593C64.3965 34.4581 64.5043 34.2707 64.5038 34.0684L64.4949 29.0266C64.4944 28.8248 64.3866 28.638 64.2113 28.5374C64.0367 28.4368 63.8205 28.4368 63.6459 28.5374L54.8214 33.6312C54.6462 33.7323 54.5378 33.9197 54.5384 34.1226L54.5478 39.176C54.5483 39.3783 54.6561 39.5646 54.8314 39.6658ZM63.3645 30.0072L63.3711 33.7434L55.6782 38.1943L55.671 34.4482L63.3645 30.0072Z" fill="white"/>
</svg>
