<svg width="93" height="92" viewBox="0 0 93 92" fill="none" xmlns="http://www.w3.org/2000/svg">
<rect x="0.5" width="92" height="92" rx="46" fill="black"/>
<path d="M41.9961 31.083C41.4494 31.4943 40.8988 31.9531 40.3593 32.4451C40.1283 32.6551 40.1117 33.0133 40.3223 33.2444C40.434 33.3671 40.5871 33.429 40.7407 33.429C40.8773 33.429 41.0138 33.3804 41.1222 33.2809C41.6357 32.8132 42.1586 32.3776 42.6771 31.9874C42.927 31.7994 42.9767 31.4446 42.7888 31.1947C42.6014 30.9448 42.2454 30.8973 41.9961 31.083Z" fill="white"/>
<path d="M57.9076 31.4711C57.9008 31.4669 57.8932 31.464 57.8863 31.4598C57.8853 31.4593 57.8848 31.4584 57.8838 31.4578L53.481 28.8941C50.9173 27.3961 47.5426 27.7045 43.9805 29.7652C43.7097 29.9211 43.6168 30.2671 43.7732 30.538C43.9297 30.8078 44.2763 30.9017 44.5466 30.7447C47.7438 28.8974 50.7127 28.5878 52.9106 29.8714L54.0813 30.5551C50.9111 30.6652 47.9257 32.3453 45.4962 34.3842C40.0519 38.9371 35.558 47.2148 35.558 54.5382C35.558 56.3484 35.8287 58.4366 36.5741 60.0856L35.6735 59.5629C33.5028 58.2971 32.2955 55.5984 32.2751 51.9667C32.2645 46.365 35.1517 39.6156 39.6302 34.7711C39.8425 34.5412 39.8281 34.183 39.5987 33.9707C39.3693 33.7585 39.0106 33.7717 38.7989 34.0017C34.1373 39.0452 31.1319 46.0974 31.143 51.9712C31.1662 56.0219 32.5724 59.0654 35.1041 60.5413L38.0809 62.2692C40.917 64.9814 45.6158 64.2155 49.0412 62.2394C56.1304 58.1456 61.8793 48.1747 61.8561 40.0125C61.845 35.9751 60.4382 32.9392 57.9076 31.4711ZM48.4757 61.2588C45.4012 63.0321 41.2217 63.7673 38.8188 61.4125C38.8149 61.4092 38.8105 61.4048 38.8066 61.4014C37.1155 59.7047 36.7016 56.9211 36.7016 54.5349C36.6651 47.5507 41.0701 39.5794 46.2237 35.2509C48.4594 33.3772 51.4224 31.6701 54.3052 31.6701C58.9302 31.6701 60.7115 35.4961 60.724 40.0147C60.7461 47.8165 55.251 57.3463 48.4757 61.2588Z" fill="white"/>
<path d="M69.5108 26.6553L69.5014 26.6443C69.4966 26.6385 69.4886 26.6373 69.4835 26.6318C69.4459 26.5907 69.4059 26.5509 69.3555 26.5216L67.1964 25.2668C66.9042 25.0972 66.525 25.2196 66.391 25.5343L62.3944 34.9027C62.2822 35.1658 62.3839 35.4709 62.631 35.6147L64.6098 36.7643L64.6298 40.1529C64.6309 40.353 64.7382 40.5387 64.9118 40.6393L67.0742 41.8952C67.2534 41.9989 67.4707 41.995 67.6419 41.8952C68.1384 41.6061 71.2907 39.7853 71.1763 39.8522C71.3526 39.7505 71.4604 39.5625 71.4593 39.3591L71.4256 33.3671L73.3868 32.2339C73.5322 32.1499 73.6328 32.0062 73.6616 31.8403C73.6903 31.6745 73.6439 31.5054 73.5344 31.3771C72.9441 30.6843 69.2791 26.3835 69.5108 26.6553ZM67.1809 26.568L68.3539 27.249C68.2772 27.4287 64.7385 35.7251 64.8055 35.5682L63.6321 34.8872L67.1809 26.568ZM65.7603 39.8223L65.7415 36.648L66.7635 36.058C66.7721 37.6709 66.7875 40.5599 66.7868 40.4193L65.7603 39.8223ZM70.5749 32.5512C70.3986 32.6529 70.2908 32.8408 70.2919 33.0443L70.3256 39.0363L67.9199 40.426C67.9187 40.2011 67.8888 34.8421 67.8901 35.074C67.889 34.8728 67.7806 34.6871 67.6054 34.5865C67.4302 34.487 67.2157 34.4859 67.0405 34.5876L66.2627 35.0378L69.233 28.074L72.2321 31.5938L70.5749 32.5512Z" fill="white"/>
<path d="M26.5041 51.516C26.4593 51.4553 26.405 51.401 26.3361 51.3609L24.1764 50.1061C24.0354 50.0243 23.8668 50.0077 23.7137 50.0586C23.5601 50.1094 23.4351 50.2244 23.3716 50.3736L19.3756 59.742C19.2634 60.0051 19.3651 60.3103 19.6116 60.454L21.5909 61.6043L21.611 64.99C21.6121 65.1901 21.7193 65.3759 21.8923 65.4765C22.0057 65.5423 24.1705 66.8 24.0571 66.7341C24.0569 66.7339 24.0573 66.7342 24.0571 66.7341C24.2324 66.834 24.4448 66.8351 24.6225 66.7346L28.1547 64.6971C28.3305 64.5953 28.4388 64.4063 28.4377 64.2029L28.4051 58.2042L30.3719 57.0777C30.6811 56.9019 30.75 56.4869 30.5211 56.2186L26.5041 51.516ZM24.1615 51.4073L25.3338 52.0876L21.7835 60.406L20.6132 59.7265L24.1615 51.4073ZM22.7414 64.6595L22.7226 61.4855L23.7447 60.894L23.7679 65.2565L22.7414 64.6595ZM27.556 57.3861C27.3791 57.4867 27.2703 57.6758 27.2714 57.8803L27.304 63.8801L24.9002 65.2663L24.8712 59.9123C24.8689 59.4806 24.3984 59.2078 24.0216 59.4258L23.2445 59.8756C23.2938 59.76 26.4078 52.4594 26.212 52.9184L29.2166 56.4353L27.556 57.3861Z" fill="white"/>
<path d="M48.4099 46.5418C45.6184 48.1526 43.3542 52.0751 43.3631 55.2845L43.3647 55.8494C43.3656 56.1579 43.6158 56.4132 43.9308 56.4132C44.0286 56.4132 44.1265 56.3878 44.2138 56.3369L53.7729 50.8181C53.9486 50.7175 54.0564 50.5295 54.0559 50.3272L54.0542 49.7623C54.0439 46.2857 51.4359 44.7924 48.4099 46.5418ZM44.5084 54.8599C44.6842 52.0983 46.6183 48.8834 48.9759 47.5213C51.2359 46.2182 52.9141 47.1553 52.9222 49.7656L52.9227 50.0022L44.5084 54.8599Z" fill="white"/>
<path d="M48.9671 45.1798C50.5016 44.2943 51.6994 42.2214 51.6944 40.4625C51.6888 38.483 50.1326 37.5608 48.385 38.5709C46.8544 39.4542 45.6593 41.5293 45.6643 43.2926C45.67 45.2816 47.2387 46.1807 48.9671 45.1798ZM48.951 39.5504C49.9206 38.9931 50.5589 39.34 50.5624 40.4647C50.5662 41.8112 49.5762 43.5215 48.401 44.1992C47.4575 44.7448 46.7999 44.4269 46.7963 43.2904C46.7925 41.9395 47.7792 40.2281 48.951 39.5504Z" fill="white"/>
</svg>
