<svg width="93" height="92" viewBox="0 0 93 92" fill="none" xmlns="http://www.w3.org/2000/svg">
<rect x="0.5" width="92" height="92" rx="46" fill="black"/>
<path d="M31.2347 41.5312C31.2358 41.843 31.4889 42.0956 31.8007 42.0956C32.1136 42.0945 32.3678 41.8408 32.3667 41.5279L32.3468 34.2545L36.5466 36.6943C36.5699 44.9355 36.6214 63.193 36.6452 71.6185L32.4463 69.1786L32.4032 52.6132C32.4021 52.3014 32.1489 52.0488 31.8372 52.0488C31.5243 52.0493 31.27 52.3036 31.2711 52.6165L31.3154 69.5064C31.3154 69.7076 31.4226 69.8933 31.5973 69.9939C31.7119 70.0605 37.0458 73.1596 36.9312 73.093C36.9318 73.0933 36.932 73.0941 36.9326 73.0944C37.1073 73.195 37.3229 73.1945 37.4976 73.0939L54.6788 63.1739C54.7315 63.1433 54.7641 63.0931 54.8035 63.049C54.8297 63.0201 54.8654 63.0024 54.8855 62.9677C60.3905 53.4892 56.491 60.2036 61.7114 51.2142C61.7607 51.129 61.788 51.0313 61.7874 50.9294L61.7067 22.4938C61.7053 22.2594 61.5381 22.0719 61.4248 22.0062L61.4235 22.0055C61.4232 22.0053 61.423 22.0048 61.4226 22.0046C59.8133 21.0692 55.8385 18.759 56.0928 18.9068C55.9203 18.8051 55.7025 18.8051 55.5256 18.9057L31.4956 32.7792C31.2935 32.8962 31.2126 33.1383 31.2126 33.2689C31.2126 33.2694 31.2128 33.2696 31.2128 33.27C31.2128 33.2705 31.2126 33.2707 31.2126 33.2711L31.2347 41.5312ZM54.9408 55.2106L59.6658 52.4828L54.9563 60.5919L54.9408 55.2106ZM37.7778 71.6243C37.7687 68.4153 37.6921 41.3688 37.6789 36.6946C43.0737 33.58 55.1831 26.589 60.578 23.4744L60.6543 50.6048L54.0907 54.3942C53.9149 54.4959 53.8065 54.6833 53.8076 54.8862L53.8286 62.3574L37.7778 71.6243ZM55.8076 20.05L60.0116 22.4936L37.1125 35.7142L32.9085 33.2711L55.8076 20.05Z" fill="white"/>
<path d="M31.825 49.5956C32.1379 49.5945 32.391 49.3408 32.3899 49.0279L32.3767 44.4996C32.3756 44.1873 32.1224 43.9352 31.8106 43.9352C31.4978 43.9363 31.2435 44.19 31.2446 44.5029L31.2579 49.0312C31.259 49.3435 31.5133 49.5956 31.825 49.5956Z" fill="white"/>
<path d="M51.0482 42.3742C49.6845 41.5547 47.963 42.8955 47.1313 44.3277C46.0733 46.1076 46.1407 48.0384 47.275 48.7167C48.606 49.5534 50.3274 48.251 51.2008 46.7748C52.2477 45.0004 52.1814 43.0679 51.0482 42.3742ZM50.2257 46.1988C49.7507 47.0032 48.5577 48.1871 47.8665 47.7516C47.3601 47.4492 47.3546 46.1679 48.1075 44.9009C48.5419 44.1527 49.7493 42.9138 50.4601 43.3421C50.9631 43.6494 50.9697 44.9368 50.2257 46.1988Z" fill="white"/>
<path d="M55.2238 48.3928C55.33 48.2225 55.3388 48.0086 55.2459 47.83L54.6257 46.5808C54.922 45.8329 55.1144 45.2552 55.2515 44.6947C55.257 44.6748 55.2913 44.6173 55.3255 44.5858L56.6257 43.4786C56.8943 43.2509 57.0878 42.8678 57.1077 42.5196L57.1751 41.1476C57.1983 40.7861 57.0336 40.5749 56.933 40.4809C56.8059 40.361 56.5704 40.2311 56.1978 40.2786C56.1956 40.2792 56.1934 40.2797 56.1901 40.2797L55.4162 40.3914C55.3134 39.9912 55.1387 39.6628 54.9817 39.3666C54.9795 39.3638 54.9773 39.3594 54.9751 39.3549L55.6904 37.6297C55.8529 37.1201 55.7423 36.6922 55.4372 36.5132L54.6899 35.9736C54.4367 35.7592 54.0741 35.7454 53.7711 35.9333C53.6551 36.004 53.5534 36.0908 53.4771 36.182L52.2952 37.4799C51.9735 37.4374 51.6485 37.4374 51.3179 37.4777L51.0791 36.4971C50.974 35.9761 50.4367 35.7127 49.9294 35.9687L48.7155 36.5822C48.4071 36.7597 48.187 37.0902 48.0677 37.5551L47.6299 39.1349C47.6243 39.1554 47.5901 39.2123 47.5624 39.2383C47.0892 39.6291 46.6216 40.0835 46.2236 40.5611L45.2198 40.4445C45.0385 40.4085 44.8594 40.4384 44.6128 40.5644C44.4536 40.6639 44.3044 40.8115 44.185 40.9928L43.3116 42.388C43.0739 42.7749 43.0496 43.1995 43.2442 43.587L43.7162 44.5062C43.7151 44.5068 43.7151 44.5079 43.714 44.5095C43.4365 45.1596 43.2243 45.7925 43.1016 46.3293C43.0573 46.452 43.0131 46.5144 42.9965 46.5294L41.7185 47.6167C41.43 47.8483 41.2376 48.2164 41.2133 48.589L41.158 49.9483C41.1359 50.3219 41.3106 50.5359 41.4167 50.6304C41.5483 50.7476 41.7837 50.8775 42.1397 50.8128L42.9545 50.7C43.0728 51.1301 43.2165 51.4916 43.347 51.7376L42.6649 53.4274C42.4614 53.8845 42.5576 54.3544 42.8926 54.5888L43.7173 55.1902C43.9876 55.3443 44.2983 55.3141 44.5708 55.1614C44.6537 55.1117 44.7621 55.0382 44.8461 54.9315L46.0511 53.6264C46.3673 53.6673 46.6946 53.6673 47.0152 53.6303L47.2573 54.6728C47.3965 55.1259 47.8828 55.3832 48.4037 55.1355L49.5922 54.5346C49.81 54.4119 50.1018 54.1416 50.2555 53.559L50.6867 51.9935C50.7011 51.9404 50.7309 51.8979 50.7652 51.8708C51.2726 51.4645 51.7369 50.977 52.1383 50.5475L53.3798 50.7116C53.5976 50.7409 53.8154 50.6392 53.9337 50.4513L55.2238 48.3928ZM56.357 41.4002C56.3548 41.4002 56.3526 41.4002 56.3515 41.4002L56.2708 40.8402L56.357 41.4002ZM53.1675 49.542L52.1814 49.4121C51.9669 49.3739 51.7546 49.4204 51.6286 49.5088C51.5015 49.5724 51.4064 49.6669 51.3036 49.7708C50.8083 50.3192 50.4236 50.6945 50.0797 50.9698C49.8498 51.1362 49.6729 51.4026 49.5933 51.6972L49.1621 53.2643C49.1124 53.4539 49.0494 53.5368 49.0582 53.5368L48.249 53.9453L48.0345 53.0189C47.9239 52.653 47.5856 52.418 47.1412 52.4672C46.7686 52.5363 46.416 52.5441 46.0909 52.4877C45.8842 52.4545 45.6576 52.507 45.5315 52.5971C45.3933 52.6662 45.2839 52.7525 45.2187 52.8359L44.1021 54.073L43.7339 53.8027L44.4017 52.1499C44.5166 51.847 44.5233 51.564 44.3818 51.2296C44.2193 50.9582 44.0855 50.5939 43.9882 50.176C43.913 49.7559 43.567 49.4834 43.1281 49.5337L42.3034 49.6481L42.3443 48.6481C42.3465 48.6139 42.383 48.5348 42.4404 48.4889L43.7229 47.3978C43.9561 47.2065 44.0932 46.918 44.185 46.6493C44.311 46.1148 44.5034 45.5449 44.7554 44.954C44.9003 44.614 44.8936 44.2752 44.761 44.0673L44.2734 42.9844L45.1369 41.6058C45.1435 41.5948 45.1523 41.5843 45.159 41.5749L46.0567 41.6805C46.3076 41.7247 46.5486 41.681 46.6747 41.5915C46.8261 41.5307 46.9312 41.435 47.0229 41.3394C47.4309 40.8778 47.8543 40.4649 48.302 40.0951C48.4059 40.0017 48.6558 39.7441 48.7277 39.408L49.161 37.8481C49.2141 37.6419 49.2694 37.5756 49.2594 37.5756C49.2594 37.5756 49.2583 37.5756 49.2572 37.5761L50.0764 37.1627L50.2843 38.0095C50.3594 38.4346 50.7608 38.7369 51.1963 38.6452C51.5523 38.5711 51.905 38.5601 52.2267 38.6137C52.3627 38.6397 52.5783 38.6419 52.7916 38.5186C52.9132 38.4578 52.9962 38.376 53.1034 38.2699L54.2344 37.0388L54.6025 37.3036L53.9204 38.9431C53.7811 39.3113 53.8098 39.6651 53.9823 39.8994C54.1548 40.2228 54.304 40.5019 54.3493 40.8121C54.3916 41.2909 54.8221 41.6321 55.2437 41.5594L56.0276 41.4472L55.9778 42.4577C55.9734 42.4986 55.9258 42.5864 55.8927 42.6152L54.5782 43.7351C54.4743 43.8296 54.2244 44.0878 54.1492 44.4388C54.0276 44.9335 53.8496 45.4658 53.5799 46.1474C53.4516 46.4426 53.4373 46.7461 53.5633 47.0528L54.0918 48.0661L53.1675 49.542Z" fill="white"/>
</svg>
