<svg width="93" height="92" viewBox="0 0 93 92" fill="none" xmlns="http://www.w3.org/2000/svg">
<rect x="0.5" width="92" height="92" rx="46" fill="black"/>
<path d="M53.7168 41.1441C53.5399 41.0341 53.3166 41.0308 53.1347 41.1341L44.3412 46.2108C44.1522 46.3202 44.0427 46.5281 44.0599 46.7459L45.6867 67.3211C45.7199 67.7369 46.1747 67.9736 46.5341 67.7667L52.1961 64.4976C52.3597 64.403 52.4653 64.2333 52.478 64.0454L53.9827 41.6626C53.9965 41.4536 53.8942 41.2546 53.7168 41.1441ZM51.3686 63.6679L46.7447 66.3377L45.2168 47.0129L52.782 42.6454L51.3686 63.6679Z" fill="white"/>
<path d="M36.0895 50.4417C36.1149 50.7535 36.3808 50.9851 36.6986 50.9613C37.0104 50.9365 37.2426 50.6639 37.2182 50.3522L36.6284 42.8948C36.873 43.037 40.9766 45.4221 40.7206 45.2733C41.3398 53.1042 41.8527 59.59 42.8001 71.5714L38.708 69.1928L37.8794 58.7145C37.8539 58.4033 37.5875 58.1678 37.2702 58.1949C36.959 58.2198 36.7263 58.4923 36.7506 58.804L37.6024 69.5781C37.6173 69.7633 37.7218 69.9291 37.8821 70.0225L43.165 73.0926C43.1685 73.0947 43.173 73.0938 43.1766 73.0958C43.1804 73.0979 43.1821 73.1022 43.186 73.1042C43.3627 73.1973 43.5689 73.1881 43.7327 73.0937L55.2867 66.4229C55.401 66.3566 55.5551 66.167 55.5686 65.9707C57.6254 35.2455 57.6088 35.8922 57.5786 35.7289C57.5764 35.7166 57.4929 35.5069 57.474 35.4826L52.5311 29.1416L52.5162 22.6114C52.463 22.498 52.5146 22.3016 52.2547 22.1354L47.2223 18.9188C46.994 18.7735 46.6916 18.8105 46.5042 19.0089L40.5437 25.3769C40.4707 25.4548 40.3909 25.6829 40.3912 25.7655L40.4019 29.4931L35.4549 41.6493C35.4081 41.7638 35.429 41.789 35.4146 41.9075L36.0895 50.4417ZM54.459 65.5933L43.9433 71.6648C43.1098 61.1229 42.6998 55.9374 41.8543 45.2446L56.3912 36.8521L54.459 65.5933ZM42.4082 43.6172L46.6976 33.0766L51.848 30.1071L56.1809 35.6659C53.7648 37.0607 47.0594 40.932 42.4082 43.6172ZM51.399 29.055L46.79 31.716C46.7866 31.5723 46.7288 29.1532 46.7323 29.3006L51.3874 24.0917L51.399 29.055ZM45.6021 29.4053L45.6565 31.6854L41.5332 29.2872L41.526 26.7995L45.6021 29.4053ZM41.2424 30.4297L45.5369 32.9255C44.2944 35.979 41.9948 41.6302 40.9832 44.1163L36.6887 41.6205L41.2424 30.4297ZM47.0095 20.1261L51.0849 22.7312L46.06 28.3537L41.8359 25.6535L47.0095 20.1261Z" fill="white"/>
<path d="M37.1254 56.358C37.4372 56.3332 37.6693 56.0606 37.645 55.7489L37.436 53.11C37.4112 52.7982 37.1436 52.5671 36.8269 52.5904C36.5151 52.6152 36.283 52.8877 36.3073 53.1995L36.5162 55.8384C36.5406 56.142 36.803 56.3811 37.1254 56.358Z" fill="white"/>
</svg>
