<svg width="93" height="92" viewBox="0 0 93 92" fill="none" xmlns="http://www.w3.org/2000/svg">
<rect x="0.5" width="92" height="92" rx="46" fill="black"/>
<path d="M73.3874 34.7633L56.0104 24.7343C51.3675 19.4208 43.7796 19.0451 38.6617 22.7051C37.8462 23.3 37.1022 24.0027 36.4215 24.7877L19.5989 35.2143C19.4297 35.3193 19.328 35.5051 19.3308 35.703C19.3335 35.902 19.4408 36.0844 19.6127 36.185L26.4615 40.1634L19.611 44.1449C19.4369 44.2466 19.3291 44.4334 19.3297 44.6358C19.3302 44.837 19.438 45.0238 19.6127 45.1244L27.0056 49.3924L26.9723 60.3953C26.9717 60.5976 27.079 60.7844 27.2536 60.8861L28.9633 61.8822C29.2275 62.0387 29.5783 61.9514 29.7372 61.6788C29.8942 61.4079 29.803 61.0619 29.5327 60.9049L28.1054 60.0724L28.1356 50.0448L38.2073 55.8592C38.3848 55.9626 38.6021 55.9593 38.775 55.8592L45.615 51.8838L45.5641 70.1605L33.8896 63.4167C33.6182 63.2586 33.2728 63.3526 33.1163 63.6234C32.9599 63.8943 33.0528 64.2403 33.3236 64.3962L45.8444 71.6298C46.0197 71.7318 46.2346 71.7307 46.4099 71.6309C46.4096 71.631 46.4102 71.6307 46.4099 71.6309C46.4104 71.6306 46.4116 71.6301 46.4121 71.6298L65.6347 60.4561C65.8083 60.3544 65.9156 60.1686 65.9161 59.9685L65.9489 49.0112L73.3851 44.6888C73.5593 44.5871 73.6665 44.4003 73.6665 44.1991C73.6665 43.9979 73.5593 43.811 73.3846 43.7093L66.5308 39.7266L73.3885 35.7428C73.5631 35.6411 73.6709 35.4542 73.6704 35.2519C73.6698 35.0507 73.562 34.8639 73.3874 34.7633ZM39.3245 23.6238C44.2787 20.0785 51.6922 20.6624 55.9065 26.4054C57.5973 28.8543 58.2731 31.8782 57.8787 34.7946C57.569 37.1275 56.4874 39.5267 54.7921 41.3202C53.3347 42.8834 52.417 44.9268 52.1464 46.7775L49.2384 48.4676L52.1609 31.89C52.1991 31.5594 51.994 31.2498 51.674 31.1548C51.355 31.0608 51.0178 31.2078 50.8691 31.5074C50.5695 32.1155 50.1118 32.6395 49.6447 32.9093C49.3739 33.0651 49.1218 33.1182 48.9538 33.0674C48.9156 33.0541 48.799 33.0154 48.715 32.8175C48.6 32.5466 48.3231 32.3642 48.0323 32.4062C47.7377 32.4306 47.4939 32.6406 47.4265 32.9258C47.2164 33.7937 46.6017 34.6704 45.9318 35.0562C45.6581 35.2132 45.4033 35.2718 45.2364 35.2143C45.1982 35.2011 45.0827 35.1624 44.9992 34.9634C44.8854 34.6925 44.6112 34.5145 44.3188 34.5499C44.0242 34.5731 43.7793 34.7821 43.7096 35.0695C43.4996 35.9373 42.8843 36.8163 42.2171 37.2043C42.0806 37.2806 41.6185 37.5172 41.3891 37.2773C41.184 37.065 40.8678 37.0108 40.6031 37.138C40.3361 37.2673 40.1829 37.5525 40.236 37.9141L42.9792 48.3916L39.9839 46.6625C39.6629 45.3666 39.1325 43.6747 38.4765 42.5173C38.0309 41.7307 37.1762 40.9177 36.5651 40.0565C35.0594 37.932 34.3877 35.4991 34.3877 33.2387C34.3877 29.4891 36.127 25.9526 39.3245 23.6238ZM35.7199 40.8178C36.7858 42.2882 36.8614 42.0482 37.3825 42.8928C37.915 43.7564 38.3051 44.8817 38.5918 45.8588L28.6999 40.1481L33.8042 36.9826C33.8112 37.0055 33.8218 37.0268 33.8288 37.0497C34.2151 38.3091 34.8471 39.6144 35.7199 40.8178ZM48.5961 34.1408C48.9372 34.2536 49.4955 34.3034 50.2108 33.8899C50.3866 33.7882 50.559 33.6655 50.7243 33.5251L47.9582 49.2117L46.1848 50.2422L44.3584 49.1879L41.5582 38.5088C41.9479 38.5265 42.3647 38.4237 42.7826 38.1849C43.5139 37.7604 44.1552 36.9953 44.5404 36.1242C44.6438 36.1927 44.7555 36.2469 44.8738 36.2867C45.2159 36.4028 45.7737 36.4525 46.4961 36.0379C47.217 35.6223 47.8676 34.8462 48.2567 33.9761C48.3617 34.0447 48.4751 34.101 48.5961 34.1408ZM53.4696 46.0085C53.4796 45.97 53.4825 45.9296 53.493 45.8912C53.846 44.6009 54.6101 43.176 55.6202 42.0919C55.6201 42.092 55.6203 42.0918 55.6202 42.0919C57.0954 40.53 58.1968 38.5002 58.7124 36.5133L64.2771 39.726C63.189 40.3586 68.2507 37.4162 53.4696 46.0085ZM34.7757 27.1394C33.7494 29.0628 33.2556 31.2478 33.2556 33.2387C33.2556 33.8448 33.3064 34.7692 33.5017 35.7614C33.5055 35.7813 33.5066 35.8018 33.5107 35.8217L27.585 39.5067L20.9968 35.6798L34.7757 27.1394ZM38.4893 54.715L21.025 44.6335L27.5905 40.8176C29.3763 41.8487 21.122 37.0832 45.0537 50.8996L38.4893 54.715ZM64.7851 59.6402L46.6962 70.155C46.7138 63.8587 46.7294 58.2408 46.7471 51.8804L53.5976 55.8603C53.7734 55.962 53.9901 55.962 54.1658 55.8603L64.815 49.6759L64.7851 59.6402ZM53.8828 54.715L47.3141 50.897C47.4386 50.8246 66.4858 39.7531 65.4048 40.3816L71.9739 44.1991L53.8828 54.715ZM65.4053 39.0705L58.96 35.3481C58.9861 35.1926 58.9923 35.0344 59.0125 34.8781C59.3408 32.3036 58.9164 29.5815 57.6536 27.1437C57.6176 27.0743 57.5915 27.0003 57.5543 26.9316L71.9745 35.2541L65.4053 39.0705Z" fill="white"/>
<path d="M31.7692 63.5007C32.0374 63.6573 32.3851 63.5657 32.5425 63.294C32.699 63.0231 32.6061 62.6771 32.3352 62.5212L31.2286 61.8822C30.9577 61.7241 30.6111 61.8181 30.4553 62.089C30.2988 62.3598 30.3917 62.7059 30.6625 62.8617L31.7692 63.5007Z" fill="white"/>
</svg>
