<svg width="93" height="92" viewBox="0 0 93 92" fill="none" xmlns="http://www.w3.org/2000/svg">
<rect x="0.5" width="92" height="92" rx="46" fill="black"/>
<path d="M43.3957 44.4891C49.7096 48.1491 60.312 48.1616 66.6054 44.4891C68.659 43.2975 70.7833 41.3212 70.7833 38.9658C70.7833 36.9786 69.2311 34.9433 66.5258 33.3823C60.2095 29.7209 49.6153 29.7116 43.326 33.3828C40.6716 34.924 39.1493 36.941 39.1493 38.9155C39.1493 41.3263 41.3087 43.2868 43.3957 44.4891ZM43.9628 43.509C42.8439 42.8643 41.7008 41.9762 40.974 40.8969C41.5906 39.9863 42.5913 39.1131 43.8943 38.3567C49.8625 34.8929 59.948 34.895 65.9587 38.3567C67.3001 39.1335 68.325 40.0237 68.9495 40.9474C68.2436 42.0037 67.132 42.8745 66.0361 43.5107C60.0796 46.9869 49.9144 46.9591 43.9628 43.509ZM43.8954 34.3607C49.8397 30.8916 59.9952 30.9054 65.9587 34.3623C68.3058 35.7161 69.6512 37.3943 69.6512 38.9658C69.6512 39.2516 69.6075 39.5384 69.5214 39.8254C68.8001 38.9398 67.7841 38.1054 66.5247 37.3766C60.1717 33.7165 49.6524 33.7073 43.326 37.3772C42.1075 38.0852 41.1167 38.8987 40.4079 39.7658C40.3238 39.4792 40.2814 39.1951 40.2814 38.9155C40.2814 37.355 41.5981 35.6951 43.8954 34.3607Z" fill="white"/>
<path d="M73.6676 38.9789C73.6676 38.9744 73.6687 38.9698 73.6687 38.9652C73.6643 35.9372 71.6611 33.1147 68.0283 31.0169C60.7781 26.8314 49.0185 26.8319 41.817 31.0186C38.2646 33.0827 36.3015 35.8539 36.2676 38.8286C36.2651 38.8498 36.255 38.8682 36.255 38.8901L36.2439 44.5632C36.2439 45.6639 36.5253 46.748 37.0499 47.7974L34.8537 49.0741C34.8021 49.0414 34.7539 48.9987 34.7017 48.9682C33.6901 48.3878 32.7095 48.3165 31.9434 48.7637L20.5121 55.3488C19.8631 55.7242 19.3327 56.598 19.3291 57.8253C19.3225 59.9888 20.7929 62.5354 22.6756 63.6222C23.542 64.1219 24.5385 64.3321 25.4006 63.8491C25.6257 63.7381 27.58 62.5967 29.2657 61.6272C29.5366 61.4708 29.6295 61.1247 29.4725 60.8539C29.3166 60.5819 28.9706 60.4907 28.6997 60.6466L26.5715 61.8754C26.8661 59.3932 24.998 56.2738 22.795 55.34L32.5116 49.7426C32.9162 49.5077 33.4944 49.5796 34.1345 49.9477C35.6355 50.8243 36.915 53.0513 36.915 54.7767C36.915 55.5058 36.6972 56.0315 36.2981 56.2592L34.9184 57.0558C34.6475 57.2122 34.5547 57.5583 34.7116 57.8291C34.8664 58.1005 35.2136 58.1912 35.4844 58.0364L36.8619 57.241C37.6259 56.8048 38.0471 55.9292 38.0471 54.7767C38.0471 54.6207 38.0234 54.4596 38.0085 54.3002L41.4772 52.2783C41.6079 52.3601 41.7345 52.4433 41.8711 52.5253C49.1395 56.7266 60.9073 56.7103 68.1034 52.5242C71.6666 50.448 73.6356 47.6576 73.6477 44.6671L73.671 38.9968C73.671 38.9908 73.6678 38.9848 73.6676 38.9789ZM23.2416 62.6415C21.7293 61.7687 20.4568 59.5648 20.4612 57.8286C20.4659 56.2858 21.4055 55.8104 22.69 56.5506C24.2101 57.4228 25.4815 59.6312 25.4671 61.3774C25.4671 62.8778 24.566 63.4091 23.2416 62.6415ZM42.3852 31.997C49.2812 27.9904 60.5307 27.9948 67.4622 31.9976C70.7313 33.8847 72.5334 36.36 72.5367 38.9669C72.5417 41.9295 70.1884 44.3226 67.6139 45.8368C67.5934 45.8488 67.5762 45.862 67.5557 45.8741C67.3483 45.9946 67.125 46.0999 66.91 46.2133C59.8635 49.9262 49.0661 49.6928 42.4593 45.8727C39.8483 44.3693 37.3977 41.9394 37.3926 38.9144C37.3893 36.3269 39.1626 33.8704 42.3852 31.997ZM35.8876 49.9139C35.8609 49.8867 35.8376 49.8538 35.8105 49.8272L39.293 47.803C39.4489 47.7112 39.6987 47.7538 39.9762 47.9152C40.7766 48.3845 41.4521 49.5558 41.4521 50.4728C41.4521 50.7984 41.3703 51.0317 41.2233 51.1157L37.7897 53.1169C37.4603 52.0082 36.7809 50.8162 35.8876 49.9139ZM67.5341 51.5458C60.6355 55.5572 49.3789 55.5578 42.4449 51.5496C42.4162 51.5325 42.3874 51.5148 42.3587 51.4977C42.4747 51.2783 42.5842 50.8891 42.5842 50.4728C42.5842 49.1606 41.6898 47.6078 40.5467 46.9379C39.9594 46.5956 39.3801 46.5448 38.8898 46.758C38.8345 46.7818 38.7754 46.7937 38.7225 46.8245L38.0172 47.233C37.5916 46.3608 37.376 45.4653 37.376 44.5643L37.3793 42.7252C38.1926 44.0548 39.7517 45.619 41.8944 46.8561C48.9539 50.9326 60.764 51.1346 68.1256 46.8522C68.1581 46.8333 68.1848 46.8118 68.217 46.7927C70.2813 45.575 71.7309 44.0991 72.5234 42.8236C72.2909 43.7155 73.8228 47.8813 67.5341 51.5458Z" fill="white"/>
<path d="M31.5774 60.2922L33.4181 59.2298C33.689 59.0734 33.7819 58.7274 33.6249 58.4565C33.4701 58.1856 33.1219 58.0922 32.8521 58.2492L31.0114 59.3116C30.7405 59.4681 30.6477 59.8141 30.8046 60.085C30.9594 60.355 31.3052 60.4485 31.5774 60.2922Z" fill="white"/>
</svg>
