<svg width="93" height="92" viewBox="0 0 93 92" fill="none" xmlns="http://www.w3.org/2000/svg">
<rect x="0.5" width="92" height="92" rx="46" fill="black"/>
<path d="M41.6643 60.4415C41.7539 60.4934 41.8517 60.5183 41.9485 60.5183C42.1436 60.5183 42.3332 60.4177 42.4382 60.237C42.5958 59.9666 42.504 59.6201 42.2337 59.4631L41.2188 58.8727C40.9485 58.7157 40.6019 58.8075 40.4449 59.0772C40.2874 59.3475 40.3791 59.6941 40.6494 59.8511L41.6643 60.4415Z" fill="white"/>
<path d="M19.3346 41.1475C19.3345 41.2638 19.3349 46.7876 19.3352 46.6714C19.3352 47.1716 19.6475 47.642 20.1914 47.9626C22.1032 49.103 13.2083 43.9056 39.068 58.9313C39.3389 59.0877 39.6843 58.9976 39.8419 58.7267C39.9994 58.4564 39.9077 58.1099 39.6374 57.9529C20.3882 46.7583 20.8033 46.9829 20.6895 46.9383C20.5281 46.8261 20.4672 46.7206 20.4672 46.6714L20.4684 42.6129C23.3192 44.2688 10.1424 36.6154 48.3457 58.8047C49.3344 59.3797 50.8567 59.3028 51.7115 58.8097L72.5328 46.7883L72.5317 50.8487C72.5317 50.9144 72.4504 51.0416 72.237 51.1737L51.1317 63.3457C50.5408 63.6928 49.5198 63.6906 48.9068 63.3446L43.766 60.3541C43.4951 60.1966 43.1486 60.2883 42.9921 60.5586C42.8346 60.8289 42.9263 61.1755 43.1966 61.3325L48.3435 64.3269C49.3242 64.8801 50.7689 64.8728 51.7016 64.3241L72.818 52.1455C73.5537 51.6905 73.6637 51.1378 73.6637 50.8487L73.6654 45.332C73.6654 45.3182 73.6585 45.3066 73.6575 45.293C73.6415 44.7992 73.3366 44.3411 72.8058 44.033L44.6515 27.6715C43.7135 27.1254 42.2381 27.1243 41.2923 27.6704L20.2025 39.8463C19.6514 40.1647 19.3352 40.639 19.3346 41.1475ZM20.7685 40.8269L41.8584 28.651C42.4532 28.3072 43.4918 28.3061 44.0822 28.6499L72.237 45.0119C72.4405 45.1302 72.5317 45.2579 72.5317 45.332C72.5317 45.3549 72.5058 45.3894 72.4878 45.4206C72.4476 45.4866 72.379 45.5678 72.2276 45.6565L51.1472 57.8268C50.6653 58.1055 49.6018 58.2181 48.9195 57.8274C10.3266 35.4021 23.6414 43.139 20.7602 41.4648C20.3514 41.2265 20.3974 41.0406 20.7685 40.8269Z" fill="white"/>
<path d="M46.0976 54.2261C46.2975 54.3417 46.624 54.3252 46.7996 54.2245L64.9698 43.734C65.1444 43.6328 65.2522 43.4465 65.2528 43.2442C65.2533 43.0424 65.1455 42.8556 64.9714 42.7545L43.3249 30.1756C43.2387 30.1253 43.1408 30.0988 43.0408 30.0988H43.0386L42.8921 30.0993C42.7937 30.0999 42.697 30.1258 42.6113 30.175L24.4456 40.6628C24.2709 40.7639 24.1631 40.9502 24.1625 41.1525C24.162 41.3543 24.2698 41.5411 24.4439 41.6423L46.0976 54.2261ZM42.9673 31.2767L63.5574 43.242L46.4475 53.12L25.8579 41.1547L42.9673 31.2767Z" fill="white"/>
<path d="M60.4094 49.0008C59.4421 48.4425 57.9291 48.4441 56.9629 49.0046C55.7964 49.6831 55.7992 50.9702 56.9739 51.6491C57.95 52.2129 59.4675 52.2115 60.4254 51.6535C61.5965 50.9737 61.5904 49.6825 60.4094 49.0008ZM59.8566 50.6751C59.2447 51.0311 58.1618 51.0278 57.54 50.6685C57.1405 50.4381 57.1095 50.2289 57.5317 49.9836C58.1561 49.6202 59.217 49.6195 59.8434 49.9814C60.2392 50.2096 60.2941 50.421 59.8566 50.6751Z" fill="white"/>
<path d="M51.9757 44.7776C52.1089 44.5609 52.0819 44.2818 51.9083 44.0955L49.9692 42.0082L51.9343 39.9105C52.1084 39.7247 52.1371 39.445 52.0039 39.2278C51.8713 39.0111 51.6092 38.9083 51.3644 38.9796L42.7914 41.4582C42.5493 41.5284 42.3824 41.7501 42.3824 42.0022C42.3824 42.2537 42.5488 42.4753 42.7909 42.5455L51.3362 45.0242C51.571 45.0941 51.8383 45.0004 51.9757 44.7776ZM48.7802 42.3919L49.6862 43.3669L44.9832 42.0033L49.7 40.639L48.7818 41.6196C48.5784 41.8363 48.5778 42.1741 48.7802 42.3919Z" fill="white"/>
<path d="M41.6622 44.3918C39.5377 43.1651 39.5209 41.3579 41.6484 40.1216C41.9187 39.9646 42.011 39.6186 41.8534 39.3483C41.6959 39.0763 41.3476 38.9851 41.0801 39.1432C39.6904 39.9503 38.9265 41.0558 38.9282 42.2564C38.9298 43.4592 39.6998 44.5659 41.0961 45.3724C41.3661 45.5283 41.7129 45.4362 41.8695 45.1651C42.0259 44.8942 41.933 44.5482 41.6622 44.3918Z" fill="white"/>
</svg>
