<svg width="93" height="92" viewBox="0 0 93 92" fill="none" xmlns="http://www.w3.org/2000/svg">
<rect x="0.5" width="92" height="92" rx="46" fill="black"/>
<path d="M32.2027 69.4065C33.8015 70.3902 33.3637 70.1207 37.9526 72.9442C37.9553 72.9459 37.9587 72.9451 37.9614 72.9467C37.966 72.9493 37.969 72.9537 37.9736 72.9564C38.6203 73.3267 39.3722 73.1831 40.026 72.8049L59.3841 61.6235C60.7339 60.8518 61.7815 59.0409 61.7698 57.4987C61.7675 56.6312 61.6776 23.4317 61.6803 24.4175C61.6731 23.5596 61.3503 22.9051 60.7715 22.5735C60.7644 22.5694 60.756 22.5687 60.7488 22.5648L55.0293 19.0418C54.444 18.7107 53.7154 18.766 52.9747 19.1933L33.6061 30.367C33.5979 30.3718 33.5944 30.3814 33.5864 30.3866C32.2595 31.1667 31.2268 32.9616 31.23 34.4916C31.2337 36.2851 31.2941 58.3471 31.2945 58.4616C31.2956 58.7745 31.5487 59.0265 31.8605 59.0265H31.8622C32.1745 59.0254 32.4276 58.7712 32.4265 58.4594L32.3641 35.5078L36.9767 38.3456C37.0665 75.7976 37.0373 63.6037 37.0433 66.1097C37.0433 66.1212 37.0512 66.1305 37.0519 66.1419L37.0652 71.0691L32.793 68.4402C32.5824 68.3131 32.458 67.9936 32.4509 67.5713L32.4437 64.9334C32.4426 64.6206 32.1894 64.3685 31.8776 64.3685H31.876C31.5637 64.3696 31.3105 64.6239 31.3116 64.9357L31.3188 67.5812C31.3326 68.4214 31.6477 69.0704 32.2027 69.4065ZM39.9254 34.8887C65.9957 19.838 57.5392 24.72 59.2907 23.7089C60.01 23.2842 60.541 23.4787 60.5482 24.4236L60.5572 27.7495L38.1152 40.7043C38.1151 40.6852 38.1158 40.9654 38.109 38.0273C38.1059 36.9465 38.9105 35.4742 39.9254 34.8887ZM60.6145 52.1755L38.1813 65.1244C38.0973 34.1125 38.135 47.7598 38.1201 42.0084L60.5607 29.0546C60.6317 59.5565 60.6088 49.7094 60.6145 52.1755ZM60.6378 57.5053C60.6472 58.6374 59.8158 60.0724 58.8203 60.6428L39.4605 71.8243C39.0874 72.0411 38.7524 72.0951 38.5395 71.9757L38.533 71.9713C38.3262 71.8415 38.2088 71.5382 38.1988 71.1232C38.1988 71.1174 38.1975 71.1127 38.1975 71.1068L38.1848 66.4296L60.6268 53.4747C60.6333 55.8646 60.6313 55.1299 60.6378 57.5053ZM53.5407 20.1739C53.9155 19.9578 54.2555 19.9053 54.455 20.0169L58.7926 22.6896C58.7863 22.6932 58.7798 22.697 58.7734 22.7006C58.7553 22.7106 58.7378 22.7146 58.7197 22.7249C56.7575 23.8582 65.8028 18.6341 39.6524 33.7373L34.9947 30.8728L53.5407 20.1739ZM33.9041 31.5322L38.6375 34.4442C37.9107 35.1198 37.3079 36.1955 37.0936 37.0876C36.8863 36.9601 32.1304 34.0345 32.3795 34.1878C32.4923 33.2232 33.1247 32.1226 33.9041 31.5322Z" fill="white"/>
<path d="M31.8727 63.0695C32.185 63.0684 32.4376 62.8141 32.437 62.5024L32.4326 60.7954C32.4321 60.4825 32.1783 60.2305 31.8666 60.2305H31.8649C31.5526 60.2316 31.3 60.4858 31.3005 60.7976L31.305 62.5046C31.3055 62.8174 31.5592 63.0695 31.871 63.0695H31.8727Z" fill="white"/>
<path d="M34.4109 42.8906H34.4126C34.7249 42.89 34.9775 42.6357 34.977 42.3229L34.9714 40.1648C34.9709 39.8531 34.7172 39.6005 34.4054 39.6005H34.4037C34.0914 39.601 33.8388 39.8553 33.8394 40.1682L33.8449 42.3262C33.8454 42.6379 34.0992 42.8906 34.4109 42.8906Z" fill="white"/>
<path d="M33.8449 47.4272C33.8454 47.7401 34.0992 47.9921 34.4109 47.9921C34.6906 47.9534 34.9775 47.7378 34.977 47.425L34.9714 45.267C34.9709 44.9541 34.7172 44.702 34.4054 44.702H34.4037C34.0914 44.7031 33.8388 44.9574 33.8394 45.2692L33.8449 47.4272Z" fill="white"/>
<path d="M47.5338 33.6996L51.7111 31.2884C51.9819 31.132 52.0748 30.7859 51.9183 30.5151C51.7608 30.2448 51.4142 30.1508 51.145 30.3078L46.9677 32.719C46.6969 32.8754 46.604 33.2215 46.7604 33.4923C46.9184 33.765 47.2655 33.8546 47.5338 33.6996Z" fill="white"/>
<path d="M50.0306 60.3543C49.0589 60.9148 48.2994 62.226 48.3021 63.3404C48.3068 64.6963 49.4315 65.3244 50.6055 64.6482C51.5679 64.0921 52.3202 62.7854 52.3175 61.671C52.3128 60.3151 51.1958 59.6815 50.0306 60.3543ZM50.0395 63.6676C49.7996 63.8047 49.6382 63.8069 49.573 63.7715C49.5094 63.7351 49.4348 63.5991 49.4342 63.3371C49.4325 62.6284 49.9754 61.6931 50.5956 61.336L50.5967 61.3349C50.7509 61.2454 50.872 61.2144 50.9543 61.2144C50.9941 61.2144 51.0251 61.2222 51.0461 61.2332C51.1097 61.2708 51.1848 61.4079 51.1854 61.6743C51.187 62.383 50.652 63.3138 50.0395 63.6676Z" fill="white"/>
<path d="M52.3799 23.8747C53.1498 24.3184 54.3175 24.3247 55.094 23.8736C56.0568 23.3135 56.061 22.215 55.0852 21.6509C54.3224 21.2109 53.1312 21.2109 52.3716 21.652C51.4048 22.2145 51.408 23.3129 52.3799 23.8747ZM52.941 22.6304C53.3512 22.3916 54.1035 22.3916 54.5192 22.6315C54.7163 22.7452 54.7365 22.7722 54.5252 22.8946C54.1062 23.1379 53.3683 23.1384 52.946 22.8941C52.7328 22.7718 52.7297 22.7528 52.941 22.6304Z" fill="white"/>
<path d="M52.0184 43.4373C52.1942 43.3356 52.302 43.1482 52.3014 42.9453L52.2921 39.5342C52.2915 39.3324 52.1832 39.1461 52.0085 39.045C51.8333 38.9438 51.6171 38.9449 51.443 39.0455L45.8423 42.2793L45.8384 40.8857C45.8379 40.6381 45.6765 40.4197 45.4399 40.3468C45.2039 40.2749 44.9463 40.3622 44.8064 40.5662L40.1383 47.3432C39.9182 47.661 40.0774 48.0992 40.4451 48.2066L45.1359 49.583C45.496 49.6903 45.8623 49.4168 45.8611 49.0391L45.8556 46.9949L52.0184 43.4373ZM45.0054 46.1791C44.8296 46.2797 44.7218 46.4676 44.7224 46.6699L44.7268 48.284L41.5141 47.341L44.7113 42.6994L44.713 43.2599C44.7136 43.4616 44.8219 43.6479 44.9966 43.7491C45.1718 43.8497 45.3879 43.8486 45.5621 43.7485L51.1627 40.5148L51.1683 42.6209L45.0054 46.1791Z" fill="white"/>
<path d="M58.6638 46.5141C58.603 46.3427 58.4637 46.2111 58.2896 46.1603L53.6016 44.7861C53.238 44.6766 52.8752 44.9563 52.8763 45.33L52.8819 47.3698L47.0385 50.7439C46.8627 50.8445 46.7549 51.0324 46.7555 51.2347L46.7649 54.6497C46.7654 54.8521 46.8738 55.0389 47.0485 55.1395C47.224 55.2395 47.4389 55.2403 47.6139 55.1384L52.8957 52.0893L52.8995 53.4823C52.9001 53.7299 53.0615 53.9488 53.2981 54.0218C53.5358 54.097 53.7912 54.0063 53.9321 53.8018L58.597 47.0237C58.6998 46.8745 58.7247 46.6843 58.6638 46.5141ZM54.0266 51.6681L54.025 51.1098C54.0244 50.9075 53.9161 50.7206 53.7414 50.62C53.5667 50.5205 53.3506 50.5205 53.1759 50.6212L47.8942 53.6702L47.8887 51.5598L53.732 48.1856C53.9078 48.085 54.0156 47.8971 54.015 47.6948L54.0106 46.0851L57.2206 47.0259L54.0266 51.6681Z" fill="white"/>
</svg>
