<svg width="93" height="92" viewBox="0 0 93 92" fill="none" xmlns="http://www.w3.org/2000/svg">
<rect x="0.5" width="92" height="92" rx="46" fill="black"/>
<path d="M38.58 56.7102L37.2589 55.9419C36.9891 55.786 36.642 55.8756 36.485 56.1475C36.328 56.4173 36.4198 56.7633 36.6906 56.9214L38.0117 57.6897C38.2814 57.8462 38.6288 57.7549 38.7856 57.4841C38.9426 57.2144 38.8508 56.8683 38.58 56.7102Z" fill="white"/>
<path d="M25.4528 46.6255C25.1831 46.4696 24.8359 46.5591 24.6789 46.8311C24.522 47.1009 24.6137 47.448 24.8846 47.605L26.6534 48.6331C26.9231 48.7896 27.2705 48.6983 27.4273 48.4275C27.5843 48.1578 27.4926 47.8106 27.2217 47.6536L25.4528 46.6255Z" fill="white"/>
<path d="M29.1862 48.7956C28.9165 48.6387 28.5693 48.7282 28.4123 49.0013C28.2554 49.271 28.3471 49.6182 28.618 49.7752L30.3857 50.8022C30.6554 50.9587 31.0028 50.8673 31.1596 50.5966C31.3166 50.3268 31.2248 49.9797 30.954 49.8227L29.1862 48.7956Z" fill="white"/>
<path d="M73.6622 45.9301C73.6633 45.4371 73.3637 44.9805 72.8397 44.6753L44.0768 27.9606C43.1802 27.4399 41.7684 27.4388 40.8652 27.9606L20.1683 39.9094C19.6598 40.2023 19.3667 40.6381 19.3426 41.1088C19.3403 41.1297 19.3303 41.1481 19.3303 41.1697C19.3303 41.2837 19.3488 46.1867 19.3491 46.0728C19.3491 46.5702 19.652 47.0268 20.1739 47.3198L35.28 56.1011C35.5475 56.257 35.8958 56.1675 36.0539 55.8955C36.2108 55.6257 36.1191 55.2786 35.8482 55.1216L20.7355 46.337C20.5486 46.2319 20.4812 46.1214 20.4812 46.0705L20.4679 42.601L48.9224 59.1358C49.8888 59.6975 51.3346 59.5982 52.134 59.1358C80.085 43.0067 70.4446 48.5697 72.5301 47.3662L72.5368 50.8465C72.5379 50.8819 72.4782 50.9902 72.277 51.1041L51.5801 63.0539C51.0207 63.3745 50.0456 63.3745 49.4973 63.0561L39.9421 57.5018C39.6723 57.3449 39.3252 57.4344 39.1682 57.7075C39.0112 57.9772 39.1029 58.3244 39.3738 58.4814L48.9301 64.0356C49.8417 64.5622 51.2226 64.5615 52.1439 64.0356L72.8375 52.0869C73.3836 51.7796 73.6865 51.313 73.6688 50.8255L73.6601 45.9442C73.6601 45.9394 73.6622 45.9349 73.6622 45.9301ZM20.7344 40.8889L41.4312 28.9402C41.9873 28.6207 42.9569 28.6184 43.5085 28.9402L72.2714 45.6549C72.4465 45.7559 72.5254 45.8646 72.5281 45.9239C72.5281 45.9237 72.5281 45.9241 72.5281 45.9239C72.5281 45.9432 72.5064 45.9749 72.4908 46.0029C72.4545 46.0634 72.3912 46.1339 72.2637 46.2076C70.1471 47.4293 79.9299 41.7826 51.5668 58.1541C51.0074 58.4796 49.9817 58.4385 49.4873 58.153C17.6866 39.6632 20.904 41.5621 20.6546 41.3857C20.5367 41.3003 20.4657 41.2165 20.4657 41.1686C20.4657 41.1254 20.5221 41.0116 20.7344 40.8889Z" fill="white"/>
<path d="M46.31 54.906C46.4572 54.961 46.658 54.9735 46.8163 54.9613C46.9202 54.969 47.0164 54.9491 47.1082 54.9027C47.1181 54.8972 47.1281 54.8916 47.138 54.8861L65.6636 44.19C65.8383 44.0894 65.9466 43.9026 65.9466 43.7013C65.9466 43.499 65.8394 43.3122 65.6647 43.2105L44.4527 30.8726C44.4438 30.8682 44.4361 30.8627 44.4283 30.8583C44.3333 30.803 44.2437 30.7842 44.1221 30.782C44.0182 30.7554 43.9109 30.7588 43.8413 30.7632C43.7473 30.7477 43.6379 30.772 43.5428 30.8207C43.5317 30.8262 43.5207 30.8317 43.5107 30.8384L24.9874 41.5334C24.8127 41.634 24.7043 41.8208 24.7043 42.022C24.7043 42.2243 24.8116 42.4112 24.9863 42.5129L46.31 54.906ZM43.9143 31.9118C43.964 31.9339 44.0182 31.9605 44.0646 31.9815C44.1144 32.0047 44.1619 32.0246 44.2061 32.039L64.2518 43.698L46.6991 53.8325L26.3991 42.0253L43.9143 31.9118Z" fill="white"/>
<path d="M32.4586 36.2975L34.6145 35.0538C34.8853 34.8979 34.9782 34.5519 34.8212 34.281C34.6664 34.0102 34.3193 33.9162 34.0484 34.0743L31.8926 35.318C31.6217 35.4739 31.5289 35.82 31.6859 36.0908C31.8411 36.3617 32.1884 36.4543 32.4586 36.2975Z" fill="white"/>
<path d="M61.1121 49.3916C60.2265 48.8808 58.8932 48.8819 58.0077 49.3971C56.9345 50.022 56.9369 51.2172 58.0188 51.8403C58.8863 52.3436 60.2495 52.3424 61.1143 51.8403C62.1948 51.2102 62.1815 50.0083 61.1121 49.3916ZM60.546 50.8608C60.0264 51.1637 59.1088 51.1637 58.5848 50.8608C58.2678 50.6772 58.2585 50.5608 58.5771 50.3755C59.1005 50.0698 60.0237 50.069 60.546 50.3722C60.8748 50.5603 60.8457 50.6874 60.546 50.8608Z" fill="white"/>
<path d="M44.3556 43.2017L42.0725 44.5195C41.8978 44.6201 41.7895 44.8069 41.7895 45.0081C41.7895 45.2104 41.8967 45.3973 42.0714 45.499L45.5096 47.4978C45.6831 47.5988 45.901 47.6001 46.0767 47.4978C46.1934 47.4305 56.0829 41.721 55.4639 42.0784C55.6386 41.9778 55.7469 41.791 55.7469 41.5898C55.7469 41.3875 55.6397 41.2006 55.465 41.0989L46.0989 35.6552C45.9264 35.5546 45.7075 35.5535 45.5317 35.6552L42.403 37.4617C42.2284 37.5623 42.12 37.7491 42.12 37.9503C42.12 38.1526 42.2272 38.3395 42.4019 38.4412L44.1951 39.4834L41.9122 40.8015C41.7375 40.9021 41.6292 41.089 41.6292 41.2902C41.6292 41.4925 41.7364 41.6793 41.9111 41.781L44.3556 43.2017ZM45.7948 46.3535L43.4843 45.0114L45.4838 43.8574L47.7938 45.1999L45.7948 46.3535ZM45.8136 36.7995L54.0521 41.5876L52.0533 42.7406L43.8148 37.9525L45.8136 36.7995ZM45.3228 40.1393L50.9234 43.394L48.9246 44.5471C48.7939 44.4711 43.2105 41.2258 43.3251 41.2924L45.3228 40.1393Z" fill="white"/>
<path d="M58.0055 42.2509C57.8497 41.98 57.5025 41.886 57.2328 42.0441L45.3139 48.925L33.4183 42.0121C33.1485 41.8562 32.8014 41.9457 32.6444 42.2177C32.4874 42.4875 32.5792 42.8346 32.85 42.9916L45.0287 50.0693C45.2022 50.1703 45.4201 50.1716 45.5958 50.0693L57.7988 43.0236C58.0697 42.8678 58.1625 42.5217 58.0055 42.2509Z" fill="white"/>
</svg>
