<svg width="93" height="92" viewBox="0 0 93 92" fill="none" xmlns="http://www.w3.org/2000/svg">
<rect x="0.5" width="92" height="92" rx="46" fill="black"/>
<path d="M27.6508 55.9871C27.6513 56.2994 27.905 56.552 28.2168 56.552C28.5297 56.5514 28.7834 56.2972 28.7829 55.9849L28.7491 41.6946C28.7392 40.4028 29.6944 38.7461 30.832 38.08L36.7831 34.6439V37.4464L33.8302 39.1546C32.4372 39.923 31.1603 41.9678 31.1603 43.7719L31.2167 69.4913C31.2167 69.5371 31.2184 69.5814 31.2211 69.6284L29.2035 68.4526C28.9509 68.3128 28.8055 67.9402 28.8055 67.43L28.7945 61.9282C28.7939 61.6154 28.4954 61.3429 28.2273 61.3633C27.9144 61.3639 27.6618 61.6181 27.6624 61.9305L27.6734 67.4311C27.6734 68.3647 28.0316 69.0982 28.6447 69.4371C28.7592 69.5038 32.3146 71.5758 32.2001 71.509C32.1999 71.5089 32.2003 71.5092 32.2001 71.509C32.9036 71.9168 33.7566 71.7498 34.4548 71.3403L38.8467 68.804L42.9249 72.3071C44.2212 73.3689 46.5695 73.4322 47.9745 72.6L55.961 67.964C56.6563 67.5693 57.0648 66.9745 57.0825 66.3178V63.5153C57.0825 63.509 57.0791 63.5038 57.0789 63.4975C57.0814 62.8619 56.6809 62.2592 55.9659 61.8393C55.6493 61.6549 55.655 61.6869 52.9794 60.6423L62.7191 55.0175C64.2127 54.1673 65.3829 52.1514 65.3829 50.4273C65.3829 50.2579 65.327 24.8114 65.3266 24.6869C65.3143 23.8513 65.0126 23.2018 64.5208 22.8267C64.3934 22.657 64.489 22.775 60.8016 20.618C60.5185 20.4524 60.1878 20.3845 59.8382 20.3936C59.8212 19.7636 59.5655 19.2568 59.1234 19.0022C58.6673 18.7397 58.0792 18.7795 57.5115 19.1062L38.5398 30.0599C37.5515 30.6309 36.7798 31.9725 36.7831 33.1128V33.3365L30.2626 37.1011C28.7663 37.9783 27.6038 39.9998 27.6171 41.7001L27.6508 55.9871ZM36.7831 63.2687L35.3127 64.1194L35.2591 43.0666L36.7831 42.1849V63.2687ZM59.8469 28.8604L61.2305 28.0622L61.2841 49.1161L59.8469 49.9453V28.8604ZM55.9504 66.3023C55.9444 66.5384 55.7443 66.7854 55.3971 66.9822L47.4018 71.6233C46.3649 72.2371 44.5412 72.1604 43.6518 71.4392L39.8919 68.2094L40.8084 67.6765L42.9874 69.5488C44.1571 70.5642 46.5869 70.6096 47.979 69.8114C47.981 69.8102 47.9836 69.8097 47.9856 69.8086L55.9504 65.1846V66.3023ZM55.3944 62.8166C55.8722 63.0973 56.1442 63.4583 55.7868 63.8817C55.4347 64.23 55.7716 63.942 47.419 68.8285C46.5157 69.3483 44.9013 69.4656 43.6745 68.6477L41.8505 67.0795L51.7284 61.3716C55.4023 62.8002 55.1982 62.7023 55.3944 62.8166ZM62.1564 54.0352L33.8855 70.3613C32.9354 70.9198 32.3488 70.5192 32.3488 69.4902L32.3035 43.7708C32.3035 42.2831 33.4149 40.6781 34.3874 40.1397L36.7831 38.7539V40.8769L34.409 42.2507C34.2337 42.3519 34.1259 42.5392 34.1265 42.7421L34.1829 65.1006C34.1841 65.5371 34.6572 65.8058 35.0325 65.5887C39.3583 63.0888 56.6986 53.072 62.1337 49.9326C62.3095 49.8314 62.4173 49.6435 62.4168 49.4406L62.3604 27.0821C62.3598 26.8803 62.252 26.6941 62.0768 26.5935C61.9016 26.4929 61.6866 26.4929 61.5113 26.5935L59.8469 27.5532V25.4415C61.8401 24.3007 62.4505 23.9298 62.8805 23.7085C63.7372 23.3383 64.181 23.778 64.1945 24.6963L64.2509 50.4273C64.2509 51.7368 63.2929 53.3885 62.1564 54.0352ZM60.2311 21.5964L62.2349 22.7578C62.0622 22.8442 62.1465 22.8052 59.8442 24.1343V21.523C59.9918 21.516 60.126 21.5346 60.2311 21.5964ZM39.1059 31.0405L58.0775 20.0868C58.3207 19.9469 58.4888 19.9425 58.5584 19.9834C58.6286 20.0238 58.711 20.1714 58.7121 20.4522V50.6001C56.2927 51.9977 39.6241 61.6261 37.9191 62.6109C37.919 62.4845 37.9151 32.9826 37.9152 33.1112C37.913 32.3754 38.4696 31.4081 39.1059 31.0405Z" fill="white"/>
<path d="M28.2267 60.4711C28.5396 60.4706 28.7922 60.2163 28.7916 59.904L28.7872 58.0494C28.7867 57.7371 28.533 57.4845 28.2212 57.4845C27.9083 57.485 27.6546 57.7393 27.6552 58.0516L27.6596 59.9062C27.6601 60.2185 27.915 60.4711 28.2267 60.4711Z" fill="white"/>
<path d="M48.8286 59.0859L47.2045 60.0234C46.9337 60.1798 46.8408 60.5258 46.9973 60.7967C47.1541 61.0683 47.5012 61.1596 47.7706 61.004L49.3946 60.0665C49.6655 59.9101 49.7583 59.564 49.6019 59.2932C49.4444 59.0218 49.0978 58.9289 48.8286 59.0859Z" fill="white"/>
<path d="M40.6414 36.3543L56.4673 27.217C56.7381 27.0606 56.831 26.7145 56.6746 26.4437C56.5176 26.1717 56.171 26.0794 55.9012 26.2364L40.0754 35.3737C39.8045 35.5301 39.7117 35.8762 39.8681 36.147C40.0249 36.4186 40.372 36.5099 40.6414 36.3543Z" fill="white"/>
<path d="M40.6414 41.6411L56.4673 32.5037C56.7381 32.3473 56.831 32.0013 56.6746 31.7304C56.5176 31.459 56.171 31.3661 55.9012 31.5231L40.0754 40.6604C39.8045 40.8169 39.7117 41.1629 39.8681 41.4338C40.0249 41.7053 40.372 41.7967 40.6414 41.6411Z" fill="white"/>
<path d="M40.359 47.0034C40.4551 47.0034 40.5524 46.9791 40.6414 46.9277L56.4673 37.7904C56.7381 37.6339 56.831 37.2879 56.6746 37.017C56.5176 36.7451 56.171 36.6533 55.9012 36.8097L40.0754 45.9471C39.8045 46.1035 39.7117 46.4495 39.8681 46.7204C39.9731 46.9022 40.1633 47.0034 40.359 47.0034Z" fill="white"/>
<path d="M40.6414 52.2144L48.001 47.9653C48.2719 47.8089 48.3647 47.4628 48.2083 47.192C48.0513 46.92 47.7036 46.8282 47.435 46.9847L40.0754 51.2338C39.8045 51.3903 39.7117 51.7363 39.8681 52.0072C40.0249 52.2787 40.372 52.3701 40.6414 52.2144Z" fill="white"/>
<path d="M40.6414 57.5011L48.001 53.2519C48.2719 53.0955 48.3647 52.7494 48.2083 52.4786C48.0513 52.2066 47.7036 52.1138 47.435 52.2713L40.0754 56.5205C39.8045 56.6769 39.7117 57.0229 39.8681 57.2938C40.0249 57.5654 40.372 57.6567 40.6414 57.5011Z" fill="white"/>
<path d="M56.3717 46.879L54.2419 45.6735L54.709 44.8647C54.8223 44.6685 54.8074 44.4236 54.6714 44.2423C54.5348 44.061 54.3027 43.9803 54.0843 44.0317L50.1464 44.9952C49.8311 45.0726 49.6463 45.3978 49.7385 45.7066L50.8893 49.5705C50.9534 49.7872 51.1408 49.9447 51.3653 49.9713C51.5969 50 51.8091 49.8872 51.9219 49.6921L52.3923 48.8768L54.5232 50.0951C54.7895 50.2482 55.1364 50.1593 55.2944 49.8867L56.5829 47.6546C56.658 47.5236 56.6785 47.3683 56.6387 47.2229C56.5989 47.0769 56.5027 46.9531 56.3717 46.879ZM54.5957 48.8325L52.4647 47.6142C52.1984 47.4611 51.8515 47.55 51.6936 47.8226L51.5985 47.9874L50.9932 45.9537L53.0656 45.4468L52.976 45.6016C52.8177 45.8763 52.9164 46.2241 53.1872 46.3771L55.317 47.5827L54.5957 48.8325Z" fill="white"/>
</svg>
