<svg width="93" height="92" viewBox="0 0 93 92" fill="none" xmlns="http://www.w3.org/2000/svg">
<rect x="0.5" width="92" height="92" rx="46" fill="black"/>
<path d="M29.4409 68.2358L35.664 71.7951C35.6664 71.7964 35.6691 71.7958 35.6716 71.7971C35.6778 71.8007 35.6832 71.8058 35.6895 71.8094C40.1194 74.3589 45.4864 73.0268 49.9532 70.448C60.7515 64.2133 69.5085 49.0452 69.4732 36.6355C69.456 30.5246 67.3433 25.9482 63.5237 23.7504C63.5104 23.7427 63.4955 23.7384 63.4821 23.7308C63.4575 23.7168 63.433 23.7022 63.4082 23.6885L57.336 20.2154C53.4914 17.9706 48.4165 18.4482 43.0457 21.5598C42.7749 21.7168 42.6826 22.0628 42.8396 22.3331C42.996 22.604 43.3448 22.6968 43.6129 22.5393C48.616 19.64 53.2858 19.1613 56.7699 21.1955L58.8738 22.3989C58.8388 22.397 58.8023 22.3996 58.7673 22.398C55.5102 22.2442 52.0295 23.5139 49.2611 25.1124C38.4627 31.3471 29.7057 46.5152 29.7405 58.9249C29.741 59.0953 29.76 59.2517 29.7637 59.4197C29.8229 62.5044 30.4471 65.7181 32.1009 68.3186C32.1174 68.3446 32.1321 68.3727 32.1488 68.3986C32.1749 68.4388 32.1971 68.4833 32.2236 68.5232L30.0053 67.2546C26.5577 65.2574 24.6589 61.0359 24.6589 55.3667C24.6335 47.3067 28.4681 37.6968 34.6652 30.2869C34.8658 30.047 34.8343 29.6899 34.5944 29.4898C34.3534 29.2881 33.9974 29.3212 33.7973 29.5606C27.436 37.1656 23.5009 47.0552 23.5268 55.3684C23.5268 61.4566 25.6263 66.0258 29.4409 68.2358ZM68.3411 36.6388C68.3754 48.687 59.8726 63.4139 49.3871 69.4673C44.3978 72.3473 39.7335 72.8304 36.2538 70.8283C32.2258 68.51 30.882 63.5642 30.882 58.926C30.845 46.8723 39.3477 32.1464 49.8365 26.0991C53.8737 23.7604 58.9177 22.4353 62.9209 24.7139L62.9902 24.7534C66.424 26.7497 68.3251 30.9669 68.3411 36.6388Z" fill="white"/>
<path d="M39.8391 23.7089C38.7524 24.5414 37.6761 25.4756 36.6413 26.4844C36.4175 26.7027 36.413 27.0609 36.6314 27.2848C36.8483 27.5082 37.2075 27.5134 37.4318 27.2947C38.4345 26.3174 39.476 25.4131 40.5279 24.6077C40.7761 24.4176 40.8231 24.0621 40.6329 23.8139C40.4433 23.5663 40.0879 23.5193 39.8391 23.7089Z" fill="white"/>
<path d="M51.0338 51.2464C52.1537 50.5997 53.0277 49.0851 53.0238 47.7977C53.0203 46.2795 51.782 45.5649 50.4567 46.3295C49.3374 46.9757 48.4629 48.4908 48.4662 49.7788C48.4708 51.2972 49.7078 52.0103 51.0338 51.2464ZM51.0228 47.3101C51.2041 47.2056 51.3732 47.1509 51.507 47.1509C51.5717 47.1509 51.6275 47.1636 51.6728 47.1896C51.8094 47.2681 51.8912 47.4964 51.8917 47.801C51.8945 48.6898 51.2422 49.8186 50.4678 50.2658C50.1997 50.4206 49.9576 50.4664 49.8172 50.3863C49.6812 50.3078 49.5994 50.0795 49.5983 49.7755C49.5961 48.8861 50.2483 47.7567 51.0228 47.3101Z" fill="white"/>
<path d="M56.4217 52.295C55.3018 52.9418 54.4278 54.4569 54.4317 55.7437C54.4352 57.2534 55.665 57.9806 56.9993 57.2119C58.1193 56.5652 58.9932 55.0506 58.9893 53.7632C58.9858 52.2449 57.7465 51.5295 56.4217 52.295ZM56.4333 56.2313C56.1647 56.3872 55.9231 56.4319 55.7827 56.3518C55.6462 56.2733 55.5643 56.045 55.5638 55.7404C55.561 54.8516 56.2133 53.7228 56.9877 53.2756C57.2564 53.1208 57.499 53.0744 57.6383 53.1551C57.7749 53.2336 57.8567 53.4619 57.8572 53.7665C57.86 54.6553 57.2077 55.7841 56.4333 56.2313Z" fill="white"/>
<path d="M49.7343 57.0714L58.5642 47.226C58.7732 46.9933 58.7538 46.6351 58.5211 46.4267C58.2884 46.2189 57.9319 46.2377 57.7218 46.4698L48.8918 56.3153C48.6829 56.548 48.7022 56.9062 48.935 57.1146C49.1674 57.3233 49.5253 57.3042 49.7343 57.0714Z" fill="white"/>
<path d="M49.9305 30.4019C49.7973 30.2874 49.6193 30.2427 49.4474 30.2753C49.2755 30.3107 49.1295 30.4229 49.0521 30.5804L39.7114 49.5786C39.6014 49.8025 39.6506 50.0717 39.8325 50.2419C40.016 50.4127 40.2874 50.4431 40.5024 50.3188L44.2104 48.1779L44.2674 64.7323C44.2679 64.934 44.3762 65.1203 44.5515 65.2209C44.6388 65.2712 44.7361 65.2961 44.8334 65.2961C44.9312 65.2961 45.0291 65.2707 45.1164 65.2204L54.7755 59.6435C55.0464 59.487 55.1393 59.141 54.9828 58.8701C54.8258 58.5982 54.4781 58.5059 54.2095 58.6628L45.3961 63.7517L45.3392 47.1973C45.3386 46.9955 45.2303 46.8092 45.055 46.7086C44.8798 46.6075 44.6642 46.6091 44.4901 46.7092L41.5488 48.4073L49.7448 31.7379L58.022 38.8963L54.1492 41.1328C53.9735 41.2345 53.8657 41.4219 53.8662 41.6253L53.8795 45.4406C53.8806 45.7523 54.1338 46.0044 54.4455 46.0044H54.4477C54.7601 46.0033 55.0127 45.749 55.0116 45.4361L54.9994 41.9492L59.2773 39.4789C59.4359 39.3872 59.5404 39.2246 59.5576 39.0422C59.5752 38.8598 59.5028 38.6802 59.3646 38.5602L49.9305 30.4019Z" fill="white"/>
</svg>
