<svg width="93" height="92" viewBox="0 0 93 92" fill="none" xmlns="http://www.w3.org/2000/svg">
<rect x="0.5" width="92" height="92" rx="46" fill="black"/>
<path d="M69.7346 36.0949C69.7571 32.1424 67.8237 27.0843 64.0543 24.8561C64.05 24.8536 64.0454 24.852 64.0412 24.8496C64.0389 24.8482 64.0377 24.8458 64.0355 24.8444L56.0888 20.1719C50.6137 16.9534 43.9915 20.5504 44.1047 20.5212C43.9895 20.5872 43.8648 20.7438 43.8381 20.9431C43.8018 21.2246 43.825 22.3266 43.8103 24.1417L41.1142 22.5565C40.9252 22.4471 40.693 22.4532 40.5128 22.5737C37.624 24.5017 34.9022 27.0782 32.4236 30.2318C32.2312 30.4777 32.2732 30.8337 32.5198 31.0266C32.7641 31.2207 33.1212 31.1787 33.3146 30.9316C35.6341 27.9792 38.1669 25.5525 40.8478 23.7135L47.721 27.7553C38.2681 34.4887 31.2379 47.8311 31.2119 59.0134C31.2045 62.174 31.7906 65.5838 33.4424 68.2786C33.4783 68.3371 33.5098 68.4001 33.5464 68.4577C33.5548 68.4707 33.5617 68.4854 33.57 68.4984L29.5923 66.1591C26.2292 64.1824 24.3852 59.9858 24.3973 54.3431C24.4084 49.8618 25.5913 44.8984 27.8201 39.9904C27.9494 39.7057 27.8234 39.3702 27.5393 39.2414C27.2541 39.1126 26.9202 39.2375 26.7897 39.5227C24.4946 44.5756 23.2763 49.6998 23.2653 54.3409C23.252 60.402 25.295 64.9458 29.0174 67.1353C30.5903 68.0601 37.4008 72.0646 36.964 71.8079C36.9667 71.8094 36.9696 71.8086 36.9723 71.8101C36.9815 71.8155 36.9891 71.823 36.9983 71.8283C41.206 74.2793 46.2877 73.0557 50.5047 70.6498C54.8893 68.1474 59.1611 63.9099 62.5341 58.7172C62.7136 58.4422 62.621 58.0782 62.3407 57.9173L49.2875 50.4543L49.2922 48.4138L52.0337 50.0293C52.0495 50.0387 52.0686 50.0356 52.0851 50.0433C52.0907 50.0459 52.0933 50.0522 52.0989 50.0547L64.4744 55.4967C64.7494 55.6178 65.0677 55.5028 65.2051 55.2386C69.6254 46.6801 69.7075 39.8429 69.687 39.9561C69.6876 39.8412 69.6185 39.6039 69.4209 39.478C69.3076 39.4057 66.8293 37.9466 66.9429 38.0209L69.4581 36.5859C69.614 36.4968 69.7337 36.2968 69.7346 36.0949ZM68.5881 35.7788C66.9751 36.6987 74.4205 32.4526 52.8584 44.7493L52.9004 26.0603C56.2799 24.533 60.2479 23.9198 63.4772 25.8306C66.419 27.5691 68.2266 31.0941 68.5881 35.7788ZM44.9483 22.001L51.765 26.0119L51.723 44.7381C51.609 44.6711 49.1551 43.228 49.3107 43.3196L49.3439 27.7161C49.3439 27.5154 49.2378 27.3292 49.0653 27.2274L44.9405 24.7997L44.9483 22.001ZM55.5139 21.1481L59.5459 23.5183C57.615 23.4067 54.9165 23.8843 52.3665 25.0462L45.6293 21.0845C49.3693 19.5655 52.8485 19.5799 55.5139 21.1481ZM61.255 58.6005C58.0335 63.4163 54.0336 67.3327 49.9431 69.667C45.2501 72.3435 40.8544 72.7636 37.5677 70.8499C33.6378 68.5621 32.334 63.6561 32.344 59.0157C32.3687 48.4763 39.1555 35.4003 48.2051 28.8277L48.1543 50.781C48.1543 50.9844 48.2627 51.1724 48.4396 51.2735L61.255 58.6005ZM64.4401 54.2452L53.5855 49.4717C55.1081 48.6028 48.0708 52.6186 68.4709 40.9776C68.053 45.2478 66.6711 49.8026 64.4401 54.2452ZM65.8121 38.6709L67.99 39.9467C66.3816 40.8645 73.7926 36.6354 52.3242 48.8865L49.2952 47.1018L49.3009 44.6281C49.45 44.7157 52.1785 46.3202 52.0043 46.2178C52.004 46.2176 52.0045 46.2179 52.0043 46.2178C52.1732 46.316 52.389 46.3243 52.571 46.2207C53.9249 45.4487 47.6664 49.0171 65.8121 38.6709Z" fill="white"/>
<path d="M29.5315 36.6113C30.0876 35.6186 30.6901 34.6335 31.3214 33.6839C31.4949 33.4241 31.4242 33.0725 31.1644 32.8995C30.9035 32.7259 30.553 32.795 30.3794 33.057C29.7316 34.0304 29.1136 35.0404 28.5431 36.0586C28.3906 36.3311 28.4879 36.676 28.7609 36.8286C29.0311 36.9807 29.3774 36.8859 29.5315 36.6113Z" fill="white"/>
</svg>
