<svg width="93" height="92" viewBox="0 0 93 92" fill="none" xmlns="http://www.w3.org/2000/svg">
<rect x="0.5" width="92" height="92" rx="46" fill="black"/>
<path d="M64.2661 41.066L64.2648 41.0652L60.0805 38.6338C59.9053 38.5332 59.6886 38.531 59.5134 38.6338L53.5882 42.0543C53.4129 42.1547 53.3055 42.4293 53.3052 42.543C53.3049 42.6604 53.3273 50.7645 53.3281 50.6494L49.9106 48.6633C49.7337 48.5616 49.5176 48.5616 49.3429 48.6633L43.4172 52.0849C43.22 52.1985 43.1342 52.4597 43.1342 52.5736C43.1342 52.6917 43.1594 62.0893 43.1609 61.9749L39.7424 59.9884C39.5672 59.8867 39.3505 59.8867 39.1753 59.9884L33.2556 63.4057C33.0803 63.506 32.9729 63.7806 32.9726 63.8943C32.9723 64.0106 32.992 71.0153 32.9925 70.899C32.9931 71.1002 33.1003 71.286 33.2739 71.3877C33.3885 71.4543 37.575 73.8869 37.4604 73.8203C37.4601 73.8202 37.4607 73.8204 37.4604 73.8203C37.6359 73.9203 37.8516 73.9218 38.0266 73.8199L43.9468 70.4015C44.1226 70.3009 44.2304 70.113 44.2298 69.9107L44.2185 65.9578C44.3331 66.0244 47.7521 68.0109 47.6375 67.9443C47.6372 67.9442 47.6378 67.9445 47.6375 67.9443C47.813 68.0443 48.0286 68.0458 48.2037 67.9439L54.1294 64.5223C54.3052 64.4217 54.413 64.2337 54.4124 64.0314L54.4011 60.0782C54.5157 60.1448 57.935 62.1314 57.8204 62.0649C57.8209 62.0651 57.8209 62.0655 57.8213 62.0658C57.9969 62.1657 58.2118 62.1666 58.3868 62.0646L64.312 58.6441C64.4878 58.5435 64.5956 58.3556 64.595 58.1532L64.5817 53.3508C64.5806 53.0379 64.3275 52.7858 64.0157 52.7858C64.0151 52.7858 64.0146 52.7858 64.014 52.7858C63.7017 52.7869 63.4485 53.0412 63.4497 53.353L63.4618 57.8282L58.6671 60.5965L58.6234 45.3024L63.4187 42.5341L63.4353 48.4245C63.4364 48.7373 63.6896 48.9894 64.0013 48.9894C64.0019 48.9894 64.0024 48.9894 64.003 48.9894C64.3153 48.9883 64.5685 48.734 64.5674 48.4223L64.548 41.5546C64.5477 41.4409 64.449 41.1725 64.2661 41.066ZM59.7953 39.778L62.8525 41.5546C62.6269 41.6848 57.7511 44.4985 58.0574 44.3217C57.6109 44.0622 54.87 42.4693 55.0005 42.5452L59.7953 39.778ZM49.6248 49.8075L52.6817 51.5841L47.8869 54.3524L44.8296 52.5758L49.6248 49.8075ZM39.4572 61.1327L42.5144 62.9092C42.2596 63.0563 37.4155 65.8516 37.7249 65.6731C37.2783 65.4135 34.5374 63.8207 34.668 63.8965L39.4572 61.1327ZM34.1075 64.8812L37.1585 66.6544L37.1747 72.3451L34.1235 70.5718L34.1075 64.8812ZM38.3069 72.3517L38.2908 66.6538L43.0806 63.8888L43.0966 69.5857L38.3069 72.3517ZM44.3006 64.6958L44.269 53.5601L47.3207 55.3333C47.322 55.8192 47.3531 66.9082 47.3519 66.4691L44.3006 64.6958ZM48.4839 66.4758C48.4834 66.2806 48.4516 54.823 48.453 55.333C48.6114 55.2415 53.3933 52.4796 53.2477 52.5637L53.2792 63.7064L48.4839 66.4758ZM54.44 43.5299L57.4911 45.303L57.5349 60.5898L54.4832 58.8166L54.44 43.5299Z" fill="white"/>
<path d="M64.0046 49.6018C63.6923 49.6029 63.4391 49.8572 63.4403 50.1689L63.4441 51.5863C63.4452 51.8991 63.6984 52.1512 64.0102 52.1512H64.0118C64.3241 52.1501 64.5773 51.8958 64.5762 51.584L64.5723 50.1667C64.5712 49.8539 64.3181 49.6018 64.0063 49.6018H64.0046Z" fill="white"/>
<path d="M38.0636 38.3264C38.0632 38.3261 38.0627 38.3262 38.0623 38.3259L38.0592 38.3242C37.8249 38.1925 37.4566 38.2418 37.2887 38.5331L28.4808 53.7896C28.3249 54.0594 28.4172 54.4054 28.687 54.5624C28.7021 54.5712 31.6728 56.2829 32.668 56.8564C32.9453 57.0124 33.2852 56.9123 33.4386 56.6475L40.272 44.8248L47.144 48.7539C47.4154 48.9098 47.7598 48.8158 47.9151 48.546L56.5898 33.5217L59.949 35.4365C60.112 35.5294 60.3072 35.5349 60.4735 35.4553C60.6405 35.3757 60.7582 35.2187 60.7881 35.0352L63.2158 20.0816C63.2474 19.8879 63.1411 19.6181 62.9411 19.5012C62.9407 19.501 62.9404 19.5003 62.94 19.5001C62.9396 19.4999 62.9391 19.5001 62.9387 19.4998L60.667 18.1801C60.4636 18.0629 60.2077 18.0817 60.0247 18.2321L48.2589 27.8558C47.9539 28.1045 47.9901 28.5827 48.3325 28.7834C48.5653 28.9186 50.7957 30.2067 51.6169 30.6809L44.9251 42.2657C44.7603 42.1711 37.6083 38.065 38.0636 38.3264ZM37.9851 39.5913L39.2804 40.3444L31.039 54.6187L29.7433 53.867L37.9851 39.5913ZM59.8014 34.0491L56.6611 32.2592C56.3897 32.1066 56.0469 32.1984 55.8905 32.4681L47.2164 47.4914L40.3449 43.5634C40.0752 43.4075 39.7302 43.5014 39.5738 43.7712L32.7399 55.5939L32.0202 55.1837C36.729 47.0282 35.727 48.7636 40.2615 40.9101C40.3748 40.9748 47.5884 45.0992 47.1296 44.8369C47.1305 44.8374 47.1314 44.8372 47.1323 44.8376C47.429 45.0075 47.7702 44.8624 47.9041 44.6302L55.1675 32.0558C55.3382 31.7594 55.1977 31.4204 54.9613 31.283C52.4219 29.8264 53.528 30.4267 51.8879 29.5318L61.8588 21.3751L59.8014 34.0491ZM60.4376 19.3564L61.6663 20.0705C58.7972 22.4175 53.3669 26.8594 50.8365 28.9293L49.6077 28.2151L60.4376 19.3564ZM52.6008 31.2413L53.9019 31.9827L47.2076 43.5722L45.9124 42.8204L52.6008 31.2413Z" fill="white"/>
</svg>
