<svg width="93" height="92" viewBox="0 0 93 92" fill="none" xmlns="http://www.w3.org/2000/svg">
<rect x="0.5" width="92" height="92" rx="46" fill="black"/>
<path d="M25.1154 70.4554L29.9704 73.0999C30.033 73.1342 30.1023 73.1422 30.1707 73.1509C30.1959 73.1544 30.2188 73.1706 30.244 73.1706C30.3419 73.1706 30.4392 73.1452 30.5271 73.0949L44.3626 65.1154C44.8744 65.8751 45.5146 66.4909 46.281 66.9309L49.9785 69.0508C49.9796 69.0514 49.9813 69.0525 49.9824 69.053C49.9873 69.0559 49.9935 69.0546 49.9985 69.0572C50.0018 69.059 50.0045 69.0617 50.0078 69.0635C52.4779 70.4626 55.4299 69.7152 57.8715 68.283C63.6773 64.8785 68.3471 56.6505 68.2819 49.9415C68.2498 46.589 67.0592 44.0783 64.9288 42.8716C64.9204 42.8669 64.9112 42.8643 64.9029 42.8596L61.2446 40.7611C59.6354 39.84 57.658 39.7622 55.5319 40.509L55.4781 22.214C55.4775 22.0122 55.3692 21.8259 55.1945 21.7248C55.1922 21.7234 55.1894 21.7241 55.187 21.7228L50.3406 18.9062C50.1637 18.8039 49.9476 18.8039 49.7729 18.9051L25.0005 33.208C24.913 33.2587 24.8424 33.3307 24.7936 33.4153C24.7704 33.4556 24.7701 33.5049 24.7573 33.5499C24.7432 33.5994 24.7176 33.6449 24.7174 33.6978C24.7174 33.6982 24.7177 33.6985 24.7177 33.6989C24.7177 33.6993 24.7174 33.6996 24.7174 33.7L24.7827 56.6417C24.7838 56.9534 25.0369 57.206 25.3487 57.206C25.703 57.2326 25.9158 56.9518 25.9147 56.6383L25.8523 34.6834L29.5741 36.8458L29.6725 71.6488L25.9512 69.6218L25.9269 61.06C25.9258 60.7476 25.6726 60.4956 25.3609 60.4956C25.3603 60.4956 25.3598 60.4956 25.3592 60.4956C25.0469 60.4967 24.7937 60.7504 24.7948 61.0633L24.8203 69.9601C24.8208 70.1669 24.9341 70.3565 25.1154 70.4554ZM67.1498 49.9526C67.2117 56.2995 62.7923 64.0847 57.2989 67.3068C54.7346 68.8104 52.3427 69.0845 50.5656 68.0785C48.4974 66.9069 47.8058 64.3512 47.7829 61.9637C47.7212 55.596 52.187 47.8259 57.6427 44.6261C59.7006 43.4167 62.3133 42.6851 64.3782 43.8632L64.3832 43.866C64.3842 43.8666 64.3852 43.8664 64.3862 43.867C66.14 44.8704 67.1217 47.0296 67.1498 49.9526ZM60.6818 41.7434L61.3927 42.1513C61.372 42.1531 61.3501 42.1591 61.3293 42.1611C60.1439 42.2723 58.6651 42.7138 57.0706 43.6488C54.5542 45.1245 52.2528 47.505 50.4552 50.2719C50.4371 50.2997 50.4171 50.326 50.3991 50.3538C48.2399 53.7092 46.611 57.9993 46.6464 61.9742C46.6612 63.304 46.8701 64.6798 47.3897 65.944C47.4434 66.0746 47.4885 66.2135 47.5479 66.3383C47.5506 66.3441 47.5524 66.3508 47.5552 66.3566L46.8443 65.9492C44.1435 64.3972 44.2541 60.7693 44.0782 59.8422C44.0725 58.9507 44.1551 58.0564 44.3005 57.1893C44.3073 57.1483 44.3168 57.107 44.324 57.066C44.9724 53.3645 46.8027 49.6809 49.1157 46.7957C50.4056 45.1859 52.1725 43.5434 53.943 42.5034C53.95 42.4994 53.9566 42.4962 53.9636 42.4921C55.24 41.7454 56.8248 41.1364 58.2917 41.1364C59.1672 41.1364 59.9737 41.3376 60.6818 41.7434ZM48.3001 46.0093L41.7118 49.8122C41.441 49.9686 41.3481 50.3146 41.5045 50.5855C41.6625 50.8582 42.0096 50.9477 42.2779 50.7928L46.6878 48.2473C45.6171 49.9117 44.6838 51.8103 44.0199 53.7637C44.0189 53.7668 44.0175 53.7698 44.0165 53.7728L41.7124 55.0983C41.4415 55.2542 41.3481 55.6002 41.504 55.8717C41.6605 56.1427 42.0058 56.2352 42.2773 56.08L43.5394 55.354C43.1791 56.7542 42.9546 58.2124 42.9503 59.6814L41.7118 60.3972C41.441 60.5536 41.3481 60.9002 41.5045 61.1705C41.6096 61.3524 41.7997 61.4535 41.9954 61.4535C42.0916 61.4535 42.1889 61.4292 42.2779 61.3778L43.0058 60.9571C43.124 62.2199 43.4871 63.4407 43.8057 64.1295L30.8073 71.6262L30.7095 36.8513L50.7846 25.2537L54.3487 23.1959L54.4013 40.9805C52.1317 42.0417 49.853 44.0942 48.3001 46.0093ZM50.0548 20.0493L53.7812 22.2151L50.5908 24.0582L30.1401 35.8658L26.4128 33.7L50.0548 20.0493Z" fill="white"/>
<path d="M25.3581 59.9478C25.671 59.9467 25.9236 59.6924 25.9225 59.3801L25.9192 58.3011C25.9181 57.9888 25.6649 57.7367 25.3531 57.7367H25.3515C25.0386 57.7378 24.786 57.9921 24.7871 58.3044L24.7904 59.3834C24.7915 59.6957 25.0447 59.9478 25.3564 59.9478H25.3581Z" fill="white"/>
<path d="M51.3433 28.3757L41.7168 33.9338C41.446 34.0902 41.3531 34.4363 41.5095 34.7071C41.6145 34.889 41.8047 34.9901 42.0004 34.9901C42.0966 34.9901 42.1939 34.9658 42.2828 34.9144L51.9094 29.3563C52.1802 29.1998 52.2731 28.8538 52.1166 28.583C51.9597 28.311 51.612 28.2192 51.3433 28.3757Z" fill="white"/>
<path d="M51.3433 33.6679L41.7168 39.226C41.446 39.3825 41.3531 39.7285 41.5095 39.9993C41.6145 40.1812 41.8047 40.2824 42.0004 40.2824C42.0966 40.2824 42.1939 40.258 42.2828 40.2066L51.9094 34.6485C52.1802 34.4921 52.2731 34.1461 52.1166 33.8752C51.9597 33.6038 51.612 33.5109 51.3433 33.6679Z" fill="white"/>
<path d="M51.3433 38.9601L41.7168 44.5183C41.446 44.6747 41.3531 45.0207 41.5095 45.2916C41.6664 45.5632 42.0134 45.6545 42.2828 45.4989L51.9094 39.9408C52.1802 39.7843 52.2731 39.4383 52.1166 39.1674C51.9597 38.896 51.612 38.8032 51.3433 38.9601Z" fill="white"/>
<path d="M33.2627 46.2026C33.4349 46.3018 33.651 46.3041 33.8282 46.202L39.519 42.9164C39.6948 42.8147 39.8026 42.6273 39.802 42.4244L39.7838 35.8846C39.7832 35.6828 39.6749 35.4965 39.5002 35.3954C39.325 35.2948 39.1088 35.2953 38.9347 35.3959L33.2434 38.6816C33.0676 38.7833 32.9598 38.9707 32.9604 39.1736L32.9792 45.7134C32.9797 45.9152 33.0881 46.1014 33.2627 46.2026ZM38.6545 36.8652L38.6688 42.0999L34.1085 44.7328L34.0935 39.498L38.6545 36.8652Z" fill="white"/>
<path d="M33.5734 56.399C33.6712 56.399 33.7691 56.3736 33.8564 56.3233L39.5477 53.0376C39.7235 52.9359 39.8313 52.7485 39.8308 52.5456L39.8125 46.0058C39.812 45.804 39.7036 45.6177 39.5289 45.5166C39.3537 45.4154 39.1376 45.4171 38.9635 45.5171L33.2721 48.8034C33.0963 48.9051 32.9886 49.0925 32.9891 49.2953L33.0073 55.8346C33.0082 56.1426 33.2575 56.399 33.5734 56.399ZM38.6832 46.9864L38.6976 52.2211L34.1367 54.854L34.1223 49.6198L38.6832 46.9864Z" fill="white"/>
<path d="M39.5577 55.6384C39.383 55.5373 39.1669 55.5389 38.9922 55.639L33.3009 58.9246C33.1251 59.0263 33.0173 59.2137 33.0179 59.4166L33.0361 65.9564C33.0366 66.1582 33.145 66.3445 33.3197 66.4456C33.4918 66.5448 33.708 66.5471 33.8852 66.4451L39.5765 63.1589C39.7523 63.0572 39.8601 62.8698 39.8595 62.6669L39.8413 56.1276C39.8407 55.9259 39.7324 55.7396 39.5577 55.6384ZM34.1654 64.9758L34.151 59.7411L38.712 57.1082L38.7263 62.3424L34.1654 64.9758Z" fill="white"/>
<path d="M61.7586 57.4387C61.5299 57.3073 61.2609 57.2849 60.9923 57.369C61.0622 56.5393 61.2651 55.624 61.4673 54.7279C61.5994 54.1447 61.731 53.561 61.8299 52.9939C61.9372 52.3952 62.0041 51.7739 62.0273 51.1443C62.0881 49.282 61.663 47.8686 60.7941 47.0521C60.2264 46.5314 59.6592 46.4761 59.2927 46.5182C59.1496 46.5342 58.9998 46.5712 58.85 46.6099C58.7466 46.637 58.6432 46.6668 58.5305 46.6757C58.4144 46.6917 58.2878 46.6619 58.128 46.6293C58.0042 46.6044 57.8798 46.5801 57.7704 46.569C57.4819 46.5309 57.0568 46.5303 56.6726 46.752C56.5582 46.8178 56.4554 46.9001 56.3835 46.9775C56.0203 47.3329 56.1381 47.7492 56.1873 47.9277L56.305 48.4943C56.3249 48.6132 56.3299 48.659 56.3083 48.7281C56.289 48.7972 56.1978 48.9216 56.0259 49.0532L55.8545 49.1825C55.6947 49.2986 55.5383 49.4163 55.3896 49.5777C54.9469 50.0659 54.779 50.7145 54.5776 51.1985C54.2845 51.8905 53.7891 52.5354 53.3687 53.205C53.1188 53.6025 52.8198 54.1276 52.7181 54.682C52.5954 55.4415 52.9237 56.0872 53.5434 56.2585C53.8695 56.3332 54.236 56.2591 54.6036 56.0474C54.7987 55.9346 54.9916 55.7815 55.1674 55.5985C55.4277 55.3186 55.629 54.9948 55.8451 54.7456C56.0372 54.5251 56.296 54.3006 56.5742 54.2144C56.6715 54.1818 56.7693 54.1652 56.8661 54.1469C56.8876 54.1431 56.9097 54.1387 56.9324 54.1348C55.9941 56.0298 55.0349 58.5027 54.8878 60.8578L54.3405 61.1738C53.8076 61.4817 53.4074 62.176 53.409 62.789L53.4146 64.8635C53.4154 65.1745 53.6685 65.4279 53.9806 65.4279C54.0784 65.4279 54.1763 65.4025 54.2636 65.3522L61.9576 60.9101C62.1334 60.8084 62.2412 60.621 62.2407 60.4181L62.2346 58.3441C62.2335 57.9423 62.0599 57.6123 61.7586 57.4387ZM58.3508 53.8523C58.5222 53.5328 58.6858 53.0795 58.4901 52.7324C58.3812 52.5384 58.1822 52.4157 57.9932 52.4074C57.8789 52.3937 57.6624 52.4417 57.5543 52.5041C57.4288 52.576 57.3343 52.6722 57.1883 52.8181C57.1474 52.859 57.106 52.8911 57.0623 52.9165C56.9545 52.9789 56.8235 53.0033 56.6588 53.0342C56.5106 53.0619 56.3625 53.0912 56.2276 53.1365C55.7512 53.2832 55.3196 53.6244 54.9905 54.0038C54.875 54.1364 54.7666 54.2813 54.6588 54.4255C54.5538 54.5665 54.4505 54.7069 54.3449 54.8208C54.2476 54.9219 54.1415 55.0071 54.0375 55.0673C53.9397 55.1237 53.8662 55.1447 53.8507 55.1629C53.833 55.1204 53.8098 55.0231 53.8336 54.8744C53.8993 54.5179 54.1464 54.0944 54.3272 53.8081C54.7587 53.119 55.2765 52.4514 55.6218 51.6363C55.8272 51.138 55.9633 50.6307 56.2248 50.3417C56.3573 50.1989 56.5403 50.0934 56.7251 49.9431C56.9672 49.7585 57.2812 49.4506 57.3934 49.0521C57.4924 48.7375 57.4503 48.481 57.4144 48.2649L57.2989 47.7132L57.2978 47.7072C57.3824 47.6812 57.5006 47.6762 57.6383 47.6933C57.7284 47.7022 57.8152 47.721 57.902 47.7387C58.1037 47.7801 58.3536 47.8315 58.63 47.8033C58.793 47.7912 58.9644 47.7497 59.1346 47.7055C59.2308 47.6806 59.3259 47.6535 59.4215 47.643C59.5514 47.6281 59.756 47.6353 60.024 47.8818C60.6349 48.4562 60.945 49.6015 60.8963 51.105C60.8506 52.3218 60.6455 53.2255 60.3634 54.4786C60.0948 55.6682 59.8179 56.8948 59.8317 58.0036C59.7169 58.0699 55.9713 60.2323 56.0861 60.1661C56.4028 57.8848 57.4575 55.5256 58.3508 53.8523ZM54.5439 63.8829L54.5411 62.7857C54.5406 62.5778 54.7252 62.2589 54.9065 62.1544C56.3904 61.2977 52.0449 63.8065 61.1031 58.5769L61.1075 60.0937L54.5439 63.8829Z" fill="white"/>
<path d="M57.8666 50.6762C57.6128 50.4401 57.1518 50.4384 56.9385 50.8685C56.8619 51.0983 56.9174 51.3344 57.0628 51.4799C57.3045 51.7215 57.676 51.6912 57.8666 51.4799C58.1258 51.2193 58.0457 50.8553 57.8666 50.6762Z" fill="white"/>
</svg>
