<svg width="93" height="92" viewBox="0 0 93 92" fill="none" xmlns="http://www.w3.org/2000/svg">
<rect x="0.5" width="92" height="92" rx="46" fill="black"/>
<path d="M28.5115 58.6231C28.8238 58.622 29.0764 58.3689 29.0758 58.056L29.0709 56.0273C29.0703 55.7145 28.8166 55.4624 28.5048 55.4624H28.5032C28.1908 55.4635 27.9382 55.7167 27.9388 56.0295L27.9438 58.0582C27.9443 58.3711 28.198 58.6231 28.5098 58.6231H28.5115Z" fill="white"/>
<path d="M62.4853 50.1989C63.9579 49.3488 65.1077 47.3566 65.1027 45.664L65.0474 23.091C65.0447 22.1912 64.7144 21.5039 64.1261 21.1347C64.1108 21.1236 64.1012 21.1075 64.0845 21.0977L60.5877 19.0635C59.9564 18.6998 59.161 18.7584 58.3534 19.2305L30.5081 35.3006C29.0349 36.1596 27.8879 38.154 27.8973 39.8389L27.9333 53.9545C27.9338 54.2673 28.1875 54.5194 28.4993 54.5194C28.4999 54.5194 28.5004 54.5194 28.501 54.5194C28.8133 54.5183 29.0659 54.264 29.0653 53.9522L29.0294 39.8345C29.0222 38.5587 29.9608 36.9302 31.0763 36.279L58.9216 20.2089C59.3661 19.9502 59.7574 19.8894 60.0205 20.0442L61.979 21.1829C61.9353 21.2061 61.8917 21.2293 61.848 21.2547L34.0055 37.3315C32.4771 38.2134 31.3849 40.2745 31.3897 41.8731L31.4119 50.9003L31.4417 64.4483C31.4423 64.487 31.4434 64.5257 31.445 64.5643L29.4788 63.4212C29.2301 63.2797 29.0874 62.9138 29.0874 62.4163L29.0814 60.1145C29.0808 59.8017 28.8271 59.5496 28.5153 59.5496C28.5148 59.5496 28.5142 59.5496 28.5137 59.5496C28.2014 59.5507 27.9487 59.805 27.9493 60.1167L27.9554 62.4174C27.9554 63.3449 28.2975 64.0514 28.9139 64.4029L32.4091 66.4349C32.4105 66.4357 32.4122 66.4353 32.4136 66.4362C32.4146 66.4367 32.4153 66.4377 32.4162 66.4382C33.1222 66.8437 33.9391 66.6806 34.6439 66.2735L35.48 65.7908C35.5803 65.9566 35.722 66.1274 35.9534 66.2912C36.0673 66.3715 45.0901 72.7409 45.2035 72.8073C46.0433 73.2822 47.3426 73.2948 48.1968 72.8371C49.133 72.4504 52.4172 70.3892 57.8642 67.2188C58.3628 66.9203 58.6486 66.4791 58.6486 66.0104C58.6554 64.158 58.6533 64.7131 58.6602 62.8729C58.6602 62.3953 58.3816 61.9663 57.8752 61.6634C57.803 61.617 56.3109 60.9156 52.4164 59.0603L52.4081 56.0172L62.4853 50.1989ZM51.2779 56.6807L51.2967 63.6865L47.5052 65.8763C47.5049 65.76 47.4805 58.4255 47.482 58.8741C47.6091 58.8007 51.3915 56.6151 51.2779 56.6807ZM46.3687 65.8722L45.2052 65.1934L45.1952 60.2008L46.3473 59.5323C46.3476 59.6485 46.3701 66.2872 46.3687 65.8722ZM34.0784 65.2929C33.1328 65.8431 32.5805 65.4513 32.5771 64.4427L32.544 50.9188L32.524 41.8676C32.5171 40.6607 33.4202 38.9783 34.5732 38.3121L62.4146 22.2387C62.5459 22.163 62.6727 22.1081 62.7943 22.0674C62.821 22.0587 62.846 22.054 62.8721 22.047C62.9599 22.0227 63.0432 22.0088 63.1223 22.0043C63.1555 22.0026 63.1881 22.0019 63.2196 22.0037C63.3194 22.0088 63.4116 22.0283 63.4897 22.069C63.4971 22.0728 63.5066 22.0731 63.5138 22.0772C63.7671 22.227 63.9137 22.5962 63.9154 23.0943L63.9706 45.6673C63.9745 46.9475 63.0348 48.5749 61.9193 49.2194C33.0334 65.8961 60.6816 49.9316 34.0784 65.2929ZM57.2893 66.2437C48.4869 71.3577 47.7668 71.7603 47.6534 71.8443C47.152 72.1075 46.3157 72.1097 45.8044 71.8443C45.6496 71.7245 38.7852 66.9006 36.6057 65.3659C36.5244 65.3084 36.4791 65.2619 36.4548 65.231C36.5682 65.1652 37.9153 64.3845 37.8018 64.4503L44.984 69.4917C45.5376 70.041 47.2404 70.2416 48.2505 69.6638C48.256 69.6606 48.2636 69.6597 48.2692 69.6565L57.5231 64.2766L57.5165 66.0082C57.5154 66.0281 57.47 66.1353 57.2893 66.2437ZM57.2937 62.6341C57.4645 62.7369 57.5281 62.8353 57.5281 62.8729C57.5281 62.9093 57.4678 63.0011 57.2998 63.0962C57.1856 63.1625 47.0667 69.0336 47.7004 68.6659C46.7324 69.2154 45.8204 68.6567 45.7065 68.625L38.8828 63.8261L44.0644 60.8344L44.0736 65.5206C44.0742 65.7218 44.1809 65.9076 44.355 66.0082C44.5208 66.1048 46.7983 67.4318 46.6531 67.3472C46.6539 67.3477 46.6542 67.3487 46.6551 67.3492C46.8342 67.4513 47.0543 67.4436 47.22 67.3492C47.2197 67.3494 47.2204 67.349 47.22 67.3492C47.2217 67.3482 47.2244 67.348 47.2261 67.347L52.1507 64.5057C52.3265 64.4051 52.4343 64.2172 52.4337 64.0149L52.4244 60.318L57.2937 62.6341Z" fill="white"/>
<path d="M61.9072 45.1908C62.0829 45.0902 62.1907 44.9022 62.1902 44.6999L62.1349 25.4425C62.1343 25.2401 62.026 25.0533 61.8513 24.9527C61.6761 24.8532 61.46 24.8521 61.2858 24.9538L34.5853 40.3695C34.4095 40.4701 34.3018 40.658 34.3023 40.8604L34.3576 60.1167C34.3584 60.4262 34.6082 60.6816 34.9236 60.6816C35.0215 60.6816 35.1193 60.6562 35.2066 60.6053L61.9072 45.1908ZM61.0056 26.422L61.057 44.3749L35.4869 59.1372L35.4355 41.1854L61.0056 26.422Z" fill="white"/>
<path d="M48.7904 54.1888L47.1912 55.1119C46.9204 55.2678 46.8275 55.6138 46.9839 55.8847C47.1416 56.1568 47.4896 56.2477 47.7573 56.0914L49.3564 55.1683C49.6273 55.0124 49.7202 54.6664 49.5637 54.3955C49.4062 54.1247 49.0596 54.0307 48.7904 54.1888Z" fill="white"/>
<path d="M38.0048 44.0156L59.0537 31.8624C59.3246 31.7065 59.4175 31.3605 59.261 31.0896C59.104 30.8188 58.7564 30.7237 58.4877 30.8829L37.4387 43.0361C37.1679 43.192 37.075 43.538 37.2314 43.8089C37.3891 44.081 37.7371 44.1719 38.0048 44.0156Z" fill="white"/>
<path d="M40.375 49.3012C38.8792 50.1657 37.7118 52.1889 37.7168 53.9069L37.7173 54.1888C37.7181 54.498 37.9679 54.7537 38.2833 54.7537C38.3812 54.7537 38.479 54.7283 38.5664 54.6775L43.3329 51.9247C43.5081 51.8241 43.6165 51.6361 43.6159 51.4338L43.6154 51.153C43.6097 49.2148 42.0871 48.314 40.375 49.3012ZM38.9395 53.1551C39.2043 52.0208 40.013 50.818 40.9411 50.2807C41.8349 49.7659 42.4597 50.0356 42.4827 51.1088L38.9395 53.1551Z" fill="white"/>
<path d="M40.9367 48.2454C41.7819 47.7578 42.4413 46.6169 42.4385 45.6474C42.435 44.4242 41.4041 43.8548 40.3629 44.4589C39.5199 44.9464 38.861 46.0885 38.8638 47.0591C38.8673 48.2774 39.8956 48.8474 40.9367 48.2454ZM40.9289 45.4384C41.221 45.2705 41.3056 45.3166 41.3065 45.6496C41.3081 46.2222 40.8709 46.9762 40.3706 47.2648C40.0704 47.4403 39.9967 47.3704 39.9959 47.0569C39.9942 46.4831 40.4303 45.7281 40.9289 45.4384Z" fill="white"/>
<path d="M47.9552 44.9255C46.4588 45.789 45.2914 47.811 45.2963 49.5312L45.2974 49.8132C45.2983 50.1273 45.5543 50.377 45.8635 50.377C45.9613 50.377 46.0592 50.3516 46.1465 50.3007L50.9131 47.549C51.0888 47.4484 51.1966 47.2605 51.1961 47.057L51.195 46.7762C51.1904 44.8247 49.6525 43.9416 47.9552 44.9255ZM46.5191 48.7784C46.7833 47.6441 47.5926 46.4412 48.5212 45.9051C49.4251 45.3856 50.0406 45.6677 50.0623 46.7331L46.5191 48.7784Z" fill="white"/>
<path d="M48.5163 43.8697C49.3614 43.3821 50.0215 42.2401 50.0187 41.2705C50.0152 40.0527 48.9878 39.4767 47.9425 40.0832C47.0995 40.5696 46.4412 41.7116 46.4439 42.6834C46.4474 43.8958 47.4715 44.4749 48.5163 43.8697ZM48.5085 41.0638C48.81 40.8912 48.8858 40.951 48.8866 41.2727C48.8883 41.8454 48.4505 42.6005 47.9502 42.889C47.6723 43.0497 47.577 43.0221 47.576 42.6812C47.5743 42.1063 48.0099 41.3501 48.5085 41.0638Z" fill="white"/>
<path d="M55.5348 40.5487C54.039 41.411 52.8716 43.4352 52.8765 45.1544L52.8771 45.4352C52.8776 45.6375 52.9854 45.8232 53.1607 45.9249C53.3362 46.0249 53.5511 46.0257 53.7262 45.9238L58.4927 43.1721C58.6679 43.0715 58.7763 42.8836 58.7757 42.6813L58.7752 42.4005C58.7695 40.4678 57.2543 39.5579 55.5348 40.5487ZM54.0998 44.4015C54.364 43.2672 55.1728 42.0644 56.1009 41.5282C57.0044 41.0071 57.6197 41.2925 57.6425 42.3562L54.0998 44.4015Z" fill="white"/>
<path d="M56.0964 39.4929C56.9416 39.0054 57.601 37.8644 57.5983 36.8949C57.5948 35.6778 56.5662 35.0976 55.5221 35.7064C54.6791 36.1929 54.0207 37.3349 54.0235 38.3066C54.027 39.5209 55.0529 40.0974 56.0964 39.4929ZM56.0881 36.687C56.3886 36.5146 56.4653 36.5726 56.4662 36.8971C56.4679 37.4698 56.0306 38.2237 55.5304 38.5123C55.2533 38.6756 55.1566 38.6445 55.1556 38.3044C55.1539 37.7296 55.5895 36.9734 56.0881 36.687Z" fill="white"/>
</svg>
