<svg width="93" height="92" viewBox="0 0 93 92" fill="none" xmlns="http://www.w3.org/2000/svg">
<rect x="0.5" width="92" height="92" rx="46" fill="black"/>
<path d="M67.2892 45.6742C67.4638 45.573 67.57 45.3878 67.5711 45.1866C67.5714 45.0734 67.6208 28.2676 67.6208 29.3182C67.6208 29.1238 67.5133 28.927 67.3334 28.8229C67.3304 28.8212 67.3268 28.822 67.3238 28.8204L50.1577 18.9101C49.9819 18.8089 49.7641 18.8089 49.5905 18.9112C42.9749 22.7557 51.8552 17.5946 25.7239 32.7808C25.7188 32.7836 25.7125 32.7823 25.7075 32.7852C25.5328 32.8858 25.4245 33.0726 25.4245 33.2744L25.4134 40.1238C25.4134 40.4367 25.6655 40.6904 25.9784 40.6909C26.2901 40.6909 26.5455 40.4383 26.5455 40.126L26.5554 34.2562L42.6079 43.5235L42.5658 58.0735L26.5123 48.8095L26.5223 44.8699C26.5234 44.557 26.2702 44.3027 25.9573 44.3022C25.6456 44.3022 25.3913 44.5548 25.3902 44.8666L25.3792 49.1345C25.3792 49.3374 25.4864 49.5253 25.6622 49.6265L41.4067 58.7098C40.7661 58.9393 40.1547 59.1981 39.6086 59.515C37.6843 60.6323 36.6277 62.1467 36.6233 63.7785C36.6193 64.7308 36.6086 67.3467 36.6093 67.1786C36.6037 68.8425 37.6838 70.3836 39.6484 71.5179C43.4435 73.7087 49.6159 73.7215 53.4091 71.5168C55.3327 70.3996 56.3929 68.8789 56.3974 67.2356L56.4072 63.8825C56.4073 63.8727 56.4095 63.863 56.4095 63.8531C56.4095 62.1904 55.3316 60.6498 53.3748 59.5139C52.5052 59.0121 51.4965 58.6383 50.4073 58.3591L50.3986 55.487L51.7693 54.6912L55.0619 56.6047C55.0745 56.612 55.0891 56.6092 55.102 56.6155C56.5925 57.4578 58.3489 57.0439 59.8312 56.1873C63.0218 54.3454 65.5447 50.2285 65.9344 46.4618L67.2892 45.6742ZM66.0001 45.1142C65.9995 45.1017 65.996 45.0916 65.9954 45.0791C65.9397 43.939 65.6236 42.7314 64.8636 41.8742C64.8614 41.8717 64.8597 41.8687 64.8575 41.8662C64.6356 41.6173 64.2759 41.3293 64.0134 41.1669C64.0123 41.1662 64.0112 41.1656 64.0101 41.1649C64.009 41.1649 64.009 41.1641 64.0079 41.1635L63.5764 40.9127L63.597 31.9825L66.481 30.3065L66.4401 44.8588L66.0001 45.1142ZM55.8393 38.4004C51.8093 39.8949 48.494 45.3917 48.5071 49.6569C48.5071 51.1973 48.9277 52.4498 49.7028 53.2948C49.9421 53.5572 50.2129 53.7839 50.5192 53.9646L50.6411 54.0354C50.3745 54.1903 47.543 55.8349 47.7177 55.7334L47.7586 41.1868L62.4635 32.642L62.4458 40.2531C62.3311 40.1866 59.2741 38.4123 59.4686 38.5252C58.5587 37.998 57.3482 37.8385 55.8393 38.4004ZM49.2766 64.2832C49.2766 64.5773 49.019 64.9018 48.5867 65.1516C47.469 65.7978 45.5708 65.7978 44.4464 65.1527C43.9976 64.8907 43.7411 64.5651 43.7411 64.2605V59.3547C47.8869 56.945 47.5945 57.116 49.2688 56.1432L49.2766 64.2832ZM30.0131 31.5974L46.0592 40.8617L43.1744 42.5388L27.1244 33.2762L30.0131 31.5974ZM45.8586 22.3889L61.9016 31.652L47.1872 40.206L31.1414 30.9418L45.8586 22.3889ZM43.698 58.0684C43.7017 56.7854 43.7357 45.0468 43.7401 43.5219L46.6248 41.8455L46.5833 56.3925L43.698 58.0684ZM49.8758 20.0543L65.9186 29.3168L63.0302 30.9959L46.9868 21.7332L49.8758 20.0543ZM55.2653 67.2328C55.262 68.4577 54.4007 69.6313 52.8408 70.5384C49.3716 72.5538 43.7079 72.5549 40.2144 70.5373C38.6158 69.6147 37.7369 68.4229 37.7413 67.1819L37.7435 66.6059C38.5514 67.537 39.2515 67.9027 39.9589 68.2799C42.02 69.3778 44.3586 69.786 46.5459 69.786C48.5279 69.786 50.6959 69.3184 51.9026 68.8557C53.1285 68.3852 54.4037 67.6413 55.2675 66.6585L55.2653 67.2328ZM55.2767 63.8449C55.2766 63.8474 55.2752 63.8495 55.2752 63.852C55.269 65.5911 53.5768 66.8521 51.9786 67.5716C48.4888 69.1397 43.4439 69.0165 40.2233 67.1571C38.9775 66.4385 37.7672 65.2141 37.754 63.8344C37.754 63.8277 37.7524 63.8213 37.7524 63.8145C37.7424 62.5868 38.6036 61.4077 40.1768 60.494C40.8934 60.0783 41.7234 59.7568 42.609 59.5117V64.2605C42.609 64.988 43.0579 65.6519 43.8782 66.1322C45.3603 66.9837 47.6788 66.9849 49.1527 66.1317C49.9509 65.6701 50.4086 64.9968 50.4086 64.2832V59.5367C51.2847 59.7834 52.1048 60.0884 52.8077 60.494C54.3972 61.4156 55.2727 62.6057 55.2767 63.8449ZM50.471 52.4587C49.9337 51.819 49.6447 50.8548 49.6447 49.6569C49.625 45.4142 53.0492 40.5103 56.4066 39.3986C57.2102 39.1316 58.1167 39.0719 58.8656 39.4901C59.1031 39.6222 61.2525 40.8725 61.1392 40.8067C61.1141 40.8124 61.0877 40.8249 61.0625 40.831C60.3029 41.0128 59.3801 41.4215 58.4596 42.0848C54.9426 44.611 52.1129 50.3089 53.3244 54.2667C53.3266 54.2738 53.3273 54.2821 53.3295 54.2891C51.2637 53.0838 50.866 52.9246 50.471 52.4587ZM59.2651 55.2067C57.8644 56.0149 56.5765 56.1647 55.6378 55.6229C55.4372 55.5075 55.2657 55.3484 55.1044 55.176C54.397 54.4089 54.1803 53.3268 54.1774 52.2864C54.1673 49.0244 56.2795 45.1222 59.0142 43.102C60.686 41.8703 62.803 41.1206 64.0886 42.7276C64.7148 43.5067 64.8943 44.6154 64.8689 45.6104C64.8094 49.1646 62.3283 53.4391 59.2651 55.2067Z" fill="white"/>
<path d="M25.9662 43.7627C26.278 43.7627 26.5311 43.5106 26.5322 43.1983L26.5366 41.8286C26.5378 41.5162 26.2846 41.262 25.9728 41.2609C25.6533 41.2515 25.4057 41.5113 25.4046 41.8252L25.4001 43.195C25.399 43.5084 25.6787 43.7793 25.9662 43.7627Z" fill="white"/>
<path d="M59.6046 44.4149C57.4366 45.6797 55.6854 48.7216 55.6998 51.193C55.6998 52.6063 56.3443 53.8679 57.7428 53.8679C58.2724 53.8679 58.8639 53.6888 59.4531 53.3494C61.62 52.0962 63.3723 49.0499 63.3601 46.558C63.3601 44.1615 61.6577 43.2167 59.6046 44.4149ZM60.175 45.3928C60.2235 45.3645 60.2793 45.3564 60.3282 45.3314C60.3318 45.3978 60.3342 45.4654 60.3342 45.5354V45.5382C60.3453 47.6321 58.8141 50.292 56.99 51.3483C56.9397 51.3773 56.8905 51.4047 56.8402 51.4298C56.7102 49.2815 58.3576 46.4528 60.175 45.3928ZM62.228 46.5613C62.2391 48.6558 60.709 51.3157 58.8882 52.3688C58.4769 52.6053 58.0701 52.7358 57.7428 52.7358C57.5642 52.7358 57.3755 52.6843 57.2076 52.4998C57.3251 52.4458 57.443 52.3942 57.5582 52.3267C59.7262 51.0725 61.4785 48.0262 61.4663 45.5348C61.4663 45.3651 61.4506 45.2058 61.4327 45.0482C62.1407 45.1503 62.228 46.1229 62.228 46.5586V46.5613Z" fill="white"/>
</svg>
