<svg width="93" height="92" viewBox="0 0 93 92" fill="none" xmlns="http://www.w3.org/2000/svg">
<rect x="0.5" width="92" height="92" rx="46" fill="black"/>
<path d="M53.3218 26.5418L34.7863 37.3114C34.5154 37.4684 34.4236 37.8144 34.5806 38.0847C34.7355 38.352 35.0805 38.4488 35.3545 38.2898L53.89 27.5202C54.1609 27.3632 54.2526 27.0171 54.0957 26.7468C53.9376 26.4749 53.5904 26.3853 53.3218 26.5418Z" fill="white"/>
<path d="M53.3218 31.2988L34.7863 42.0685C34.5154 42.2255 34.4236 42.5715 34.5806 42.8418C34.7355 43.1091 35.0805 43.2058 35.3545 43.0469L53.89 32.2772C54.1609 32.1203 54.2526 31.7742 54.0957 31.5039C53.9376 31.2314 53.5904 31.143 53.3218 31.2988Z" fill="white"/>
<path d="M53.3218 48.3165L34.7863 59.0862C34.5154 59.2432 34.4236 59.5892 34.5806 59.8595C34.7355 60.1268 35.0805 60.2235 35.3545 60.0646L53.89 49.2949C54.1609 49.138 54.2526 48.7919 54.0957 48.5216C53.9376 48.2491 53.5904 48.1607 53.3218 48.3165Z" fill="white"/>
<path d="M28.0325 62.8422C28.0237 66.3418 30.4923 70.6186 33.5359 72.3764C34.8745 73.1492 36.4729 73.5177 37.8177 72.7435C37.8224 72.7407 37.8265 72.7369 37.8313 72.7341C37.8322 72.7336 37.8329 72.733 37.8342 72.7324L63.1357 58.0309C64.3042 57.3532 64.9488 55.9879 64.9488 54.1891L64.9676 49.9925C64.9687 49.7891 64.8603 49.6011 64.6845 49.5C64.6787 49.4966 64.6716 49.4981 64.6657 49.4949L61.6631 47.7621C61.4873 47.6609 61.2695 47.6609 61.096 47.7632L57.5932 49.7987C57.5527 45.5992 57.5614 28.2464 57.5693 21.1334C57.5693 20.9311 57.4609 20.7437 57.2863 20.6426C57.2817 20.6399 57.2761 20.6411 57.2715 20.6386L54.267 18.9041C54.0912 18.8029 53.8734 18.8029 53.6999 18.9052L28.3874 33.615C28.2478 33.6958 28.1055 33.9297 28.1055 34.1025L28.0734 47.0529C28.0723 47.3657 28.3255 47.62 28.6383 47.6206C28.9501 47.6206 29.2044 47.3679 29.2055 47.0562L29.2353 35.0832L31.1225 36.1723C31.0208 73.5189 31.0533 61.5689 31.0451 64.5818C31.0451 66.2031 32.144 68.1046 33.5447 68.9089C33.5445 68.9087 33.545 68.909 33.5447 68.9089C33.5448 68.909 33.5458 68.9094 33.5458 68.9094C35.1861 69.8557 36.594 68.9253 36.6259 67.1533L36.6351 63.9427C36.7498 64.009 38.6356 65.0978 38.5157 65.0285L38.5075 68.8855V68.8901C38.505 69.9292 38.2545 70.7612 37.791 71.3087C36.8602 72.4033 35.359 72.1207 34.1019 71.3958C31.3712 69.8187 29.1557 65.9831 29.1646 62.8455L29.1845 54.8746C29.1856 54.5617 28.9324 54.3074 28.6195 54.3069C28.3078 54.3069 28.0535 54.5595 28.0524 54.8713L28.0325 62.8422ZM62.5674 57.0519L39.4428 70.4882C39.5356 70.1454 39.6382 69.4853 39.6396 68.8934L39.6508 65.0299L63.8311 50.9781L63.8167 54.1864C63.8167 55.5672 63.3734 56.5849 62.5674 57.0519ZM61.3812 48.9063L63.2668 49.9949L39.0845 64.0495L37.2011 62.9618C54.4553 52.9358 50.2518 55.3938 61.3812 48.9063ZM35.7879 62.4704C35.7876 62.4706 35.7871 62.4706 35.7868 62.4708C35.7864 62.471 35.7862 62.4715 35.7859 62.4717L35.7846 62.4724C35.5766 62.593 35.5033 62.8436 35.5026 62.96L35.4905 67.1489C35.4905 67.1569 35.4888 67.1634 35.4888 67.1714C35.4595 68.0993 34.9655 68.4217 34.1119 67.9288C33.0616 67.323 32.1783 65.7924 32.1816 64.5873C32.1892 61.6814 32.1542 75.1127 32.2557 36.1714L56.4361 22.1188C56.4129 43.7821 56.4492 49.1007 56.4779 50.4469L35.7879 62.4704ZM53.9851 20.0483L55.8698 21.1371L31.6834 35.1887C31.5592 35.1171 29.6866 34.0363 29.8014 34.1025L53.9851 20.0483Z" fill="white"/>
<path d="M28.6251 52.7856C28.9368 52.7856 29.1911 52.533 29.1922 52.2207L29.1977 49.7797C29.1988 49.4674 28.9457 49.2131 28.6328 49.2125C28.321 49.2125 28.0668 49.4651 28.0657 49.7775L28.0601 52.2185C28.059 52.5308 28.3122 52.7851 28.6251 52.7856Z" fill="white"/>
<path d="M44.6389 51.2727C49.3706 48.5409 53.0134 41.7623 53.4136 40.9984C53.5418 40.7529 53.4743 40.4483 53.2522 40.282C52.8287 39.9636 48.9627 37.2577 44.0441 40.0973C39.2958 42.8391 35.6608 49.6105 35.2617 50.3739C35.1334 50.6199 35.202 50.9234 35.4253 51.0897C35.7072 51.2998 37.5004 52.5579 40.1084 52.5579C41.697 52.5579 43.4061 51.9846 44.6389 51.2727ZM44.6068 41.0824C46.6443 39.904 48.1995 40.713 48.2065 43.1243C48.2142 45.7533 46.3591 48.9677 44.0695 50.2888C43.0635 50.8697 42.1459 50.982 41.487 50.6033C40.8347 50.2274 40.4732 49.3889 40.4699 48.2419C40.4621 45.6156 42.3172 42.404 44.6068 41.0824ZM52.1687 40.921C51.6528 41.8539 50.4422 43.9177 48.797 45.9637C49.1348 45.0138 49.3416 44.0441 49.3385 43.121C49.3345 41.6901 48.8435 40.6019 47.9842 39.9746C49.9598 39.8058 51.4671 40.5027 52.1687 40.921ZM36.5076 50.4491C37.0236 49.5152 38.2322 47.4533 39.878 45.4083C39.541 46.3563 39.3348 47.324 39.3378 48.2452C39.3418 49.6772 39.8316 50.7662 40.689 51.3947C38.7175 51.5597 37.2109 50.8656 36.5076 50.4491Z" fill="white"/>
<path d="M44.6267 48.2386C45.793 47.5659 46.704 45.9877 46.6996 44.6462C46.6949 43.0798 45.4233 42.3408 44.0496 43.1332C42.8832 43.8059 41.9723 45.383 41.9767 46.7235C41.9813 48.2976 43.2564 49.0304 44.6267 48.2386ZM44.6156 44.1138C45.1927 43.7811 45.565 43.9159 45.5675 44.6495C45.5697 45.5908 44.8799 46.7854 44.0606 47.258C43.4508 47.6106 43.1111 47.42 43.1088 46.7202C43.1066 45.7799 43.7964 44.5865 44.6156 44.1138Z" fill="white"/>
</svg>
