<svg width="93" height="92" viewBox="0 0 93 92" fill="none" xmlns="http://www.w3.org/2000/svg">
<rect x="0.5" width="92" height="92" rx="46" fill="black"/>
<path d="M64.6074 44.1227C64.6008 41.9448 64.6314 52.0023 64.5427 22.8719C64.5411 22.3154 64.2793 21.8722 63.9336 21.673C62.1489 20.6489 60.5215 19.6852 58.8033 18.6841C58.5772 18.5653 58.1051 18.4194 57.4623 18.7748L48.8293 23.7938L48.8374 21.0804C48.8374 21.0799 48.8374 21.0787 48.8374 21.0782C48.8374 21.0779 48.8374 21.0765 48.8374 21.0763C48.8374 21.075 48.8379 21.0739 48.8379 21.0727C48.8368 20.5006 48.4759 19.9644 47.8468 19.6012C46.7424 18.9633 45.0166 18.9638 43.9177 19.6017C43.332 19.9418 42.994 20.438 42.958 20.971C42.9526 21.0021 42.9394 21.0302 42.9393 21.0627L42.9288 27.224L29.7745 34.8715C28.9868 35.3237 28.3926 36.3573 28.3926 37.2777L28.4263 46.8208C28.4274 47.1325 28.6806 47.3846 28.9923 47.3846C28.9929 47.3846 28.9934 47.3846 28.9945 47.3846C29.3069 47.3835 29.5595 47.1292 29.5584 46.8163L29.5247 37.2755C29.5247 36.7669 29.905 36.102 30.3411 35.8516C68.7064 13.547 43.0795 28.4471 58.0217 19.7587C58.1659 19.6786 58.256 19.6747 58.2538 19.6736L62.197 21.9756L34.8926 37.8504C34.1044 38.3053 33.5112 39.3362 33.5135 40.2489L33.5724 61.0298L29.6269 58.7495C29.6148 58.7363 29.581 58.6677 29.581 58.5229L29.57 54.2323C29.5694 53.9194 29.3157 53.6674 29.0039 53.6674C29.0034 53.6674 29.0028 53.6674 29.0023 53.6674C28.69 53.6685 28.4374 53.9228 28.4379 54.2345L28.449 58.524C28.449 59.0724 28.6745 59.5135 29.0598 59.728C30.2024 60.3886 34.3818 62.8047 34.1271 62.6574C34.1301 62.6592 34.1319 62.6608 34.1349 62.6626C34.4848 62.8903 34.953 62.9432 35.5255 62.6256L42.8576 58.363L42.8507 60.9557C41.8823 61.1821 40.993 61.4945 40.2423 61.9302C38.6647 62.8538 37.7945 64.1046 37.7831 65.4569C37.7784 66.0169 37.7784 68.6432 37.7797 68.527C37.7764 69.9067 38.6647 71.1803 40.2816 72.1133C41.8233 73.0044 43.8447 73.4488 45.8651 73.4488C47.8905 73.4488 49.9147 73.0011 51.4531 72.1078C53.0324 71.1891 53.9046 69.9332 53.9085 68.5701C53.9085 68.5068 53.9083 69.0795 53.9096 65.5155C53.909 64.1391 53.0252 62.8699 51.4188 61.9401C50.6531 61.497 49.7336 61.155 48.7456 60.9264L48.7577 54.933L63.2138 46.5289C63.9955 46.0789 64.6074 45.0231 64.6074 44.1227ZM44.4865 20.5807C45.2433 20.1402 46.5236 20.1438 47.2808 20.5818C47.5461 20.7346 47.7041 20.9189 47.7054 21.0733C47.7054 21.0732 47.7054 21.0734 47.7054 21.0733L47.7053 21.0754C47.7053 21.0796 47.6996 21.0843 47.6994 21.0886C47.6703 21.5776 46.5803 21.8908 45.8077 21.8705C45.1995 21.8535 44.0758 21.5543 44.0758 21.0611C44.0758 20.9096 44.2289 20.7305 44.4865 20.5807ZM44.0686 22.6061C45.0269 23.091 46.6261 23.1588 47.7009 22.6171L47.6953 24.4512C47.5808 24.5179 43.8283 26.7013 44.062 26.5653L44.0686 22.6061ZM44.392 66.3568C44.0802 66.1744 43.9697 65.9754 43.9697 65.8615L43.9912 57.707L47.624 55.5925L47.6036 65.8825C47.6036 66.0251 47.4483 66.2042 47.1979 66.3546C46.4406 66.7879 45.1526 66.7879 44.392 66.3568ZM52.7764 68.5679C52.7737 69.512 52.1015 70.4208 50.8837 71.1283C48.1226 72.7336 43.6209 72.7336 40.8476 71.1338C39.5967 70.4108 38.9096 69.4866 38.9118 68.5281V68.0206C39.4971 68.6167 40.4151 69.2233 41.5236 69.6456C45.0958 71.0266 50.2468 70.54 52.7208 68.0948C52.7378 68.078 52.7598 68.063 52.7764 68.0461V68.5679ZM48.7451 62.0828C49.5272 62.2851 50.2464 62.5692 50.8522 62.9197C53.9792 64.7295 53.0926 67.3724 49.6621 68.6354C46.9218 69.6402 43.2407 69.4564 40.8454 68.0759C39.8699 67.5132 38.9165 66.6109 38.9124 65.4888C38.909 64.5436 39.5846 63.6271 40.8122 62.9086C41.4032 62.5648 42.0853 62.2928 42.847 62.096L42.8376 65.8604C42.8376 66.4309 43.1958 66.9682 43.8271 67.3385C44.9418 67.9696 46.6757 67.9588 47.7705 67.3308C48.3929 66.9571 48.7357 66.443 48.7357 65.8836L48.7451 62.0828ZM35.4603 38.8299L63.1497 22.731C63.377 22.5999 63.4073 22.6153 63.4073 22.8769C63.4944 51.9945 63.4644 41.9518 63.4709 44.1243C63.472 44.6185 63.0812 45.2951 62.6489 45.5438L34.9601 61.6439C34.839 61.7129 34.7671 61.7199 34.7584 61.7234C34.7557 61.7206 34.7527 61.7186 34.75 61.7158C34.736 61.6963 34.7063 61.6327 34.7058 61.4957L34.6455 40.2461C34.6444 39.7425 35.0242 39.0814 35.4603 38.8299Z" fill="white"/>
<path d="M29.0029 52.5033C29.3152 52.5022 29.5678 52.2479 29.5672 51.9362L29.5601 49.1767C29.5595 48.8639 29.3058 48.6118 28.994 48.6118H28.9924C28.68 48.6129 28.4274 48.8672 28.428 49.179L28.4352 51.9384C28.4357 52.2513 28.6894 52.5033 29.0012 52.5033H29.0029Z" fill="white"/>
<path d="M40.6475 55.498C40.7454 55.498 40.8432 55.4726 40.9306 55.4218L46.6296 52.1306C46.8054 52.03 46.9132 51.842 46.9127 51.6397L46.8994 46.8218C46.8988 46.6194 46.7905 46.4326 46.6158 46.332C46.4406 46.2325 46.2245 46.2314 46.0503 46.3331L43.8278 47.6162L43.8232 45.8765L53.6404 40.2084L53.6455 41.9018L51.4868 43.148C51.3111 43.2497 51.2033 43.4371 51.2038 43.64L51.2171 48.458C51.2176 48.6603 51.326 48.8471 51.5007 48.9477C51.6762 49.0477 51.8911 49.0485 52.0661 48.9466L57.7652 45.6565C57.941 45.5559 58.0488 45.368 58.0482 45.1656L58.035 40.3466C58.0344 40.1448 57.9261 39.9585 57.7514 39.8574C57.5767 39.7568 57.3606 39.7579 57.1859 39.8579L54.7757 41.2493L54.7697 39.2278C54.7692 39.026 54.6608 38.8397 54.4862 38.7386C54.3109 38.638 54.0948 38.6391 53.9207 38.7391L49.302 41.4061L49.2979 39.2826L51.8776 37.7933C52.0534 37.6916 52.1612 37.5042 52.1607 37.3014L52.1474 32.4823C52.1468 32.2806 52.0385 32.0943 51.8638 31.9931C51.6886 31.892 51.4725 31.8931 51.2983 31.9937L45.5993 35.2838C45.4235 35.3855 45.3157 35.5729 45.3162 35.7757L45.3295 40.5948C45.3301 40.7965 45.4384 40.9828 45.6131 41.084C45.7852 41.1831 46.0014 41.1855 46.1786 41.0834L48.1671 39.9355L48.1712 42.0591L42.9731 45.0606C42.7973 45.1612 42.6895 45.3492 42.69 45.5515L42.6974 48.2688L40.3513 49.6232C40.1755 49.7238 40.0677 49.9117 40.0682 50.1141L40.0815 54.9331C40.0824 55.2427 40.3321 55.498 40.6475 55.498ZM56.915 44.8406L52.3464 47.4784L52.337 43.9645L56.9057 41.3272L56.915 44.8406ZM46.4494 36.1002L51.0181 33.4629L51.0275 36.9769L46.4588 39.6142L46.4494 36.1002ZM45.7701 47.8013L45.7795 51.3147L41.2108 53.9525L41.2014 50.4391L45.7701 47.8013Z" fill="white"/>
</svg>
