<svg width="734" height="144" viewBox="0 0 734 144" fill="none" xmlns="http://www.w3.org/2000/svg">
<g clip-path="url(#clip0_1901_720)">
<path d="M173.185 118.111C168.312 118.111 164.354 117.346 161.321 115.795C158.288 114.254 156.1 112.017 154.757 109.084C153.415 106.151 152.738 102.552 152.738 98.2669V9.3953H177.948V93.2064C177.948 95.2942 178.445 96.6861 179.44 97.382C180.434 98.078 181.677 98.426 183.169 98.426H187.942V118.111H173.175H173.185ZM269.548 59.1252C266.863 51.9173 262.477 46.2801 256.421 42.2039C250.355 38.1277 242.598 36.0896 233.15 36.0896C225.185 36.0896 218.253 37.7996 212.336 41.2296C206.419 44.6596 201.825 49.5312 198.543 55.8443C195.261 62.1575 193.621 69.7433 193.621 78.5917C193.621 86.7441 195.212 93.9024 198.394 100.066C201.576 106.23 206.171 111.022 212.187 114.452C218.204 117.882 225.483 119.602 234.045 119.602C240.907 119.602 246.963 118.509 252.244 116.322C257.515 114.134 261.841 111.082 265.222 107.145C268.593 103.218 270.681 98.5254 271.487 93.0573H247.471C246.774 95.3439 245.303 97.2031 243.065 98.6447C240.828 100.086 237.824 100.812 234.045 100.812C230.853 100.812 228.079 100.136 225.692 98.7938C223.305 97.4516 221.485 95.4931 220.242 92.9081C218.999 90.3232 218.383 87.2412 218.383 83.6621H272.083C273.068 74.5154 272.233 66.3431 269.548 59.1252ZM218.512 68.3017C218.611 65.9753 219.109 63.9371 220.024 62.1874C221.217 59.9007 222.927 58.1111 225.165 56.8187C227.402 55.5262 230.068 54.88 233.15 54.88C236.034 54.88 238.57 55.4765 240.758 56.6695C242.946 57.8626 244.636 59.5726 245.83 61.8096C246.765 63.5593 247.272 65.7267 247.351 68.3017H218.512ZM357.846 100.365C356.652 100.365 355.737 99.9869 355.091 99.2412C354.444 98.4956 354.116 97.2826 354.116 95.5925V66.0647C354.116 61.2926 353.4 57.0374 351.958 53.3091C350.516 49.5809 348.348 46.4492 345.465 43.9139C342.581 41.3787 339.001 39.44 334.724 38.0979C330.448 36.7557 325.426 36.0896 319.658 36.0896C312.1 36.0896 305.517 37.2627 299.898 39.5892C294.28 41.9255 289.924 45.2362 286.841 49.5113C283.758 53.7864 282.217 58.7076 282.217 64.2752H306.83C306.83 62.4856 307.307 60.9446 308.252 59.6521C309.197 58.3597 310.489 57.3357 312.13 56.59C313.771 55.8443 315.78 55.4765 318.167 55.4765C320.156 55.4765 321.975 55.7449 323.616 56.2917C325.257 56.8386 326.55 57.8129 327.495 59.2048C328.439 60.5966 328.907 62.4856 328.907 64.8717V70.8369H313.99C308.819 70.8369 304.145 71.3837 299.968 72.4773C295.791 73.5709 292.241 75.2313 289.307 77.4682C286.374 79.7052 284.106 82.4492 282.515 85.6704C280.924 88.9015 280.129 92.6099 280.129 96.7855C280.129 103.546 282.446 108.964 287.07 113.041C291.694 117.117 297.929 119.155 305.786 119.155C311.156 119.155 316.128 118.081 320.702 115.944C325.277 113.806 328.509 111.003 330.398 107.523H331.294C332.387 110.903 334.406 113.508 337.34 115.347C340.273 117.187 344.072 118.111 348.746 118.111H361.276V100.365H357.846ZM328.907 92.0134C328.608 95.2942 327.246 97.8294 324.81 99.619C322.373 101.409 319.31 102.303 315.631 102.303C312.647 102.303 310.241 101.607 308.401 100.216C306.561 98.8236 305.636 96.8849 305.636 94.3994C305.636 92.6099 306.164 91.039 307.208 89.6969C308.252 88.3547 309.763 87.3108 311.752 86.5651C313.741 85.8195 316.227 85.4516 319.211 85.4516H328.907V92.0134ZM377.397 118.111V57.7134H365.165V37.4318H377.397V30.7209C377.397 23.8609 379.555 18.5917 383.88 14.9131C388.206 11.2346 394.342 9.3953 402.308 9.3953H419.164V25.9487H409.02C406.932 25.9487 405.341 26.3961 404.247 27.2909C403.153 28.1857 402.606 29.7764 402.606 32.0631V37.4318H417.97V57.7134H402.606V118.111H377.397ZM105.223 15.2909C85.2644 -1.76957 55.9378 -5.32881 31.8918 8.55023C18.7451 16.1459 9.31763 27.7085 4.26578 40.8617C17.5716 52.2354 37.1227 54.6016 53.1534 45.3555L105.233 15.3009L105.223 15.2909ZM85.0258 123.868C109.788 115.119 127.529 91.5063 127.529 63.7482C127.529 48.5668 122.219 34.6281 113.348 23.672C96.8399 29.508 85.0158 45.2462 85.0158 63.7482V123.868H85.0258ZM1.06362 52.0962C-3.73961 77.9057 7.84583 105.077 31.8918 118.956C45.0386 126.552 59.7765 128.928 73.6889 126.721C76.8911 109.511 69.1641 91.4069 53.1434 82.1509L1.06362 52.0962ZM478.076 120.597C474.197 120.597 470.518 119.97 467.146 118.747C463.745 117.515 460.822 115.765 458.455 113.548C456.386 111.619 454.805 109.402 453.741 106.956L452.816 118.201C452.777 118.718 452.339 119.115 451.822 119.115H427.806C427.259 119.115 426.811 118.668 426.811 118.121V9.3953C426.811 8.84849 427.259 8.4011 427.806 8.4011H453.015C453.562 8.4011 454.01 8.84849 454.01 9.3953V48.1095C455.72 44.4608 458.544 41.4384 462.423 39.112C466.888 36.4475 472.149 35.0954 478.076 35.0954C483.068 35.0954 487.682 36.0796 491.779 38.0283C495.876 39.9769 499.456 42.8303 502.42 46.5088C505.364 50.1675 507.661 54.701 509.232 59.9703C510.793 65.2097 511.589 71.2346 511.589 77.8559C511.589 86.6944 510.207 94.4094 507.482 100.762C504.727 107.175 500.769 112.136 495.707 115.516C490.646 118.897 484.709 120.607 478.076 120.607V120.597ZM452.866 104.441H454.209C454.626 104.441 455.004 104.709 455.143 105.097C456.078 107.722 457.649 110.068 459.807 112.086C461.985 114.124 464.68 115.735 467.823 116.878C470.975 118.022 474.426 118.608 478.076 118.608C484.311 118.608 489.87 117.008 494.603 113.856C499.337 110.704 503.056 106.032 505.652 99.9769C508.267 93.8626 509.6 86.416 509.6 77.846C509.6 71.4135 508.834 65.5875 507.333 60.527C505.831 55.5063 503.663 51.2014 500.869 47.7416C498.094 44.3017 494.743 41.6273 490.924 39.8178C487.095 37.9985 482.769 37.0838 478.076 37.0838C472.517 37.0838 467.594 38.3365 463.447 40.822C459.35 43.2777 456.556 46.5585 455.153 50.585C455.014 50.9827 454.636 51.2511 454.219 51.2511H453.025C452.478 51.2511 452.031 50.8038 452.031 50.2569V10.3895H428.81V117.117H450.917L451.882 105.356C451.921 104.839 452.359 104.441 452.876 104.441H452.866ZM468.081 100.315C464.81 100.315 461.945 99.5096 459.549 97.909C457.172 96.3183 455.293 94.1012 453.98 91.3174C452.677 88.5635 452.021 85.2826 452.021 81.5743V74.1178C452.021 70.6182 452.627 67.4069 453.811 64.5635C455.024 61.6505 456.914 59.3638 459.41 57.7731C461.896 56.1824 465.058 55.3771 468.817 55.3771C471.751 55.3771 474.336 55.9438 476.504 57.0473C478.682 58.1608 480.482 59.7516 481.864 61.7698C483.217 63.7482 484.241 66.1144 484.917 68.7988C485.584 71.4533 485.922 74.4956 485.922 77.8361C485.922 82.2105 485.295 86.1376 484.072 89.508C482.809 92.9678 480.83 95.6621 478.185 97.5113C475.54 99.3605 472.139 100.305 468.071 100.305L468.081 100.315ZM468.827 57.3655C465.456 57.3655 462.652 58.0614 460.484 59.4434C458.326 60.8154 456.705 62.7938 455.641 65.329C454.557 67.9239 454 70.8866 454 74.1178V81.5743C454 84.9943 454.596 87.9869 455.77 90.4724C456.923 92.928 458.564 94.8767 460.643 96.2586C462.701 97.6306 465.207 98.3265 468.071 98.3265C471.721 98.3265 474.744 97.5113 477.051 95.9007C479.358 94.2901 481.089 91.9139 482.203 88.8419C483.346 85.6803 483.933 81.9819 483.933 77.846C483.933 74.6646 483.615 71.7913 482.988 69.2859C482.372 66.8303 481.447 64.6828 480.224 62.8932C479.03 61.1534 477.469 59.7814 475.589 58.817C473.7 57.8526 471.423 57.3655 468.807 57.3655H468.827ZM557.881 119.105H543.113C538.101 119.105 533.954 118.29 530.802 116.689C527.58 115.049 525.213 112.633 523.791 109.501C522.399 106.449 521.683 102.671 521.683 98.2768V9.3953C521.683 8.84849 522.13 8.4011 522.677 8.4011H547.887C548.434 8.4011 548.881 8.84849 548.881 9.3953V93.2064C548.881 94.3994 549.07 95.9504 549.945 96.5668C550.761 97.1434 551.825 97.4318 553.107 97.4318H557.881C558.428 97.4318 558.875 97.8792 558.875 98.426V118.111C558.875 118.658 558.428 119.105 557.881 119.105ZM523.672 10.3895V98.2768C523.672 102.393 524.318 105.892 525.591 108.676C526.834 111.39 528.882 113.488 531.697 114.91C534.571 116.371 538.409 117.117 543.103 117.117H556.876V99.4202H553.098C551.407 99.4202 549.955 99.0125 548.801 98.1973C547.529 97.3125 546.882 95.6323 546.882 93.2064V10.3895H523.662H523.672ZM604.571 120.597C598.316 120.597 592.578 119.642 587.516 117.773C582.424 115.894 577.969 113.051 574.25 109.342C570.54 105.634 567.646 101.071 565.667 95.7913C563.698 90.532 562.694 84.4972 562.694 77.846C562.694 69.3754 564.335 61.8692 567.577 55.5461C570.829 49.1931 575.652 44.1327 581.907 40.5237C588.152 36.9247 595.77 35.0954 604.561 35.0954C610.816 35.0954 616.544 36.0498 621.616 37.9189C626.707 39.8079 631.143 42.6414 634.812 46.3597C638.472 50.068 641.336 54.6016 643.315 59.8311C645.284 65.0407 646.288 71.1053 646.288 77.8559C646.288 86.2271 644.647 93.7035 641.405 100.076C638.144 106.489 633.35 111.569 627.145 115.168C620.949 118.767 613.352 120.597 604.571 120.597ZM604.571 37.0838C596.138 37.0838 588.848 38.8236 582.911 42.2437C576.994 45.6637 572.43 50.4458 569.357 56.4508C566.264 62.4956 564.693 69.6936 564.693 77.846C564.693 84.2586 565.648 90.0647 567.537 95.0954C569.417 100.106 572.151 104.431 575.662 107.94C579.172 111.45 583.389 114.134 588.212 115.914C593.055 117.704 598.554 118.608 604.571 118.608C613.004 118.608 620.263 116.868 626.151 113.448C632.018 110.038 636.552 105.236 639.635 99.1716C642.728 93.0772 644.299 85.899 644.299 77.846C644.299 71.3439 643.345 65.508 641.455 60.527C639.576 55.566 636.861 51.2611 633.4 47.7516C629.939 44.252 625.753 41.5676 620.93 39.788C616.087 37.9985 610.587 37.0937 604.571 37.0937V37.0838ZM604.571 100.166C602.164 100.166 599.897 99.7383 597.858 98.9032C595.76 98.0482 593.97 96.6563 592.528 94.7872C591.106 92.9479 590.022 90.5618 589.296 87.7184C588.58 84.9247 588.222 81.6041 588.222 77.8559C588.222 72.7756 588.868 68.5602 590.161 65.339C591.474 62.0283 593.403 59.513 595.909 57.8626C598.395 56.2221 601.319 55.387 604.591 55.387C607.107 55.387 609.374 55.8444 611.343 56.7391C613.322 57.6538 615.052 59.0556 616.494 60.9148C617.906 62.754 619.02 65.1302 619.796 67.9736C620.562 70.7872 620.949 74.1078 620.949 77.8559C620.949 82.827 620.273 87.0225 618.941 90.3133C617.578 93.6737 615.639 96.1791 613.193 97.7797C610.746 99.3704 607.852 100.176 604.591 100.176L604.571 100.166ZM604.571 57.3655C601.697 57.3655 599.151 58.0912 596.993 59.513C594.835 60.9347 593.154 63.1318 592.001 66.0548C590.807 69.0473 590.211 73.0142 590.211 77.846C590.211 81.4251 590.549 84.5767 591.225 87.2213C591.881 89.8062 592.856 91.9438 594.109 93.5743C595.332 95.165 596.854 96.3381 598.624 97.0639C600.434 97.8096 602.433 98.1774 604.591 98.1774C607.465 98.1774 609.991 97.4815 612.099 96.0995C614.207 94.7275 615.878 92.5204 617.091 89.5477C618.334 86.4956 618.961 82.5585 618.961 77.846C618.961 74.2768 618.593 71.1252 617.877 68.4906C617.171 65.8957 616.176 63.7582 614.913 62.1277C613.68 60.527 612.198 59.3241 610.508 58.5486C608.807 57.7731 606.808 57.3754 604.581 57.3754L604.571 57.3655ZM702.724 144H671.249C664.089 144 658.53 142.469 654.741 139.457C650.883 136.394 648.924 132.368 648.924 127.496C648.924 123.48 650.187 120.03 652.673 117.226C654.86 114.761 657.725 112.633 661.195 110.883C658.878 109.73 656.999 108.109 655.586 106.071C653.936 103.685 653.1 101.011 653.1 98.1178C653.1 93.7035 654.721 89.7565 657.923 86.3961C659.813 84.4077 662.259 82.4094 665.213 80.4409C663.105 78.8999 661.305 77.1202 659.863 75.1418C656.969 71.2246 655.497 66.5618 655.497 61.2826C655.497 56.0034 656.969 51.1915 659.873 47.2743C662.756 43.3671 666.913 40.3149 672.244 38.2172C677.504 36.1393 683.799 35.0854 690.959 35.0854C696.837 35.0854 702.167 35.8212 706.841 37.2727C708.73 32.8087 711.286 29.0705 714.458 26.1774C718.804 22.2006 724.642 20.073 731.812 19.8742C732.08 19.8742 732.339 19.9636 732.538 20.1525C732.727 20.3414 732.836 20.5999 732.836 20.8684V39.0622C732.836 39.3307 732.727 39.5892 732.528 39.7781C732.329 39.967 732.07 40.0863 731.802 40.0564C729.415 39.967 727.197 40.1559 725.208 40.6231C723.17 41.1202 721.191 41.8858 719.341 42.9098C719.033 43.0788 718.715 43.2578 718.387 43.4666C719.699 44.6099 720.873 45.8924 721.897 47.2644C724.801 51.2213 726.273 55.9338 726.273 61.2826C726.273 66.6314 724.801 71.1948 721.907 75.1418C719.023 79.049 714.866 82.1211 709.546 84.2685C704.265 86.3961 698.02 87.4699 690.979 87.4699C686.643 87.4699 682.606 87.0821 678.986 86.3066C678.698 86.5055 678.409 86.7043 678.141 86.9032C677.007 87.7482 676.45 88.7325 676.45 89.9057C676.45 91.218 677.027 91.6753 677.534 91.9239C678.499 92.4011 679.662 92.6397 681.124 92.6397H702.754C712.688 92.6397 720.455 94.9562 725.845 99.5196C731.275 104.123 734.029 110.217 734.029 117.644C734.029 123.291 732.687 128.123 730.052 132C727.426 135.868 723.747 138.87 719.122 140.918C714.538 142.956 709.039 143.99 702.754 143.99L702.724 144ZM690.939 37.0838C684.038 37.0838 677.982 38.0879 672.96 40.0763C667.987 42.0349 664.119 44.8584 661.464 48.4574C658.818 52.0366 657.476 56.3514 657.476 61.2926C657.476 66.2337 658.818 70.3994 661.454 73.9786C663.035 76.1459 665.083 78.0548 667.53 79.6555C667.808 79.8444 667.987 80.1525 667.977 80.4906C667.967 80.8286 667.798 81.1468 667.52 81.3257C664.139 83.4632 661.394 85.6405 659.355 87.7781C656.482 90.8004 655.089 94.1907 655.089 98.1277C655.089 100.603 655.805 102.9 657.217 104.948C658.639 107.006 660.618 108.567 663.115 109.581C663.492 109.73 663.731 110.098 663.731 110.506V111.251C663.731 111.639 663.502 111.987 663.154 112.156C659.415 113.876 656.392 116.033 654.154 118.559C651.967 121.024 650.903 123.957 650.903 127.516C650.903 131.811 652.563 135.211 655.964 137.926C659.395 140.65 664.537 142.032 671.239 142.032H702.714C708.71 142.032 713.941 141.057 718.267 139.138C722.543 137.24 725.944 134.476 728.361 130.916C730.777 127.367 732.001 122.913 732.001 117.674C732.001 110.764 729.554 105.336 724.512 101.061C719.5 96.8154 712.161 94.6579 702.714 94.6579H681.084C679.314 94.6579 677.852 94.3597 676.609 93.7333C675.615 93.2362 674.422 92.1724 674.422 89.9355C674.422 88.1161 675.257 86.5651 676.908 85.3423C677.305 85.044 677.733 84.7458 678.19 84.4475C678.419 84.2984 678.698 84.2487 678.956 84.3083C682.546 85.1136 686.574 85.5212 690.93 85.5212C697.722 85.5212 703.718 84.4873 708.76 82.4591C713.732 80.4508 717.601 77.5975 720.266 73.9885C722.911 70.3895 724.244 66.1244 724.244 61.3025C724.244 56.4806 722.901 52.0664 720.256 48.4674C719.063 46.8667 717.651 45.4152 716.04 44.1625C715.791 43.9637 715.642 43.6555 715.662 43.3373C715.682 43.0192 715.841 42.7209 716.109 42.5519C716.925 42.015 717.651 41.5776 718.347 41.1998C720.356 40.0962 722.494 39.2611 724.711 38.7143C726.581 38.2669 728.639 38.0482 730.817 38.068V21.9322C724.612 22.2801 719.55 24.2089 715.781 27.6687C712.629 30.5519 710.123 34.3199 708.313 38.8932C708.114 39.3903 707.567 39.6389 707.07 39.4699C702.406 37.899 696.976 37.0937 690.939 37.0937V37.0838ZM700.039 126.264H679.155C676.261 126.264 674.054 125.806 672.403 124.872C670.613 123.858 669.658 122.138 669.658 119.901C669.658 118.747 669.956 117.574 670.573 116.332C671.199 115.099 672.114 113.985 673.308 113.021C673.487 112.882 673.706 112.802 673.934 112.802H700.188C702.555 112.802 704.534 113.309 706.095 114.303C707.786 115.397 708.641 117.187 708.641 119.612C708.641 121.601 707.895 123.241 706.413 124.484C704.991 125.677 702.853 126.274 700.039 126.274V126.264ZM674.302 114.781C673.457 115.506 672.81 116.332 672.363 117.216C671.886 118.181 671.657 119.056 671.657 119.901C671.657 121.442 672.204 122.476 673.387 123.142C674.71 123.897 676.659 124.275 679.165 124.275H700.049C702.386 124.275 704.096 123.828 705.15 122.943C706.175 122.088 706.662 120.994 706.662 119.602C706.662 117.863 706.125 116.679 705.031 115.964C703.808 115.178 702.177 114.781 700.198 114.781H674.302ZM690.939 73.4616C687.568 73.4616 684.833 72.3481 682.815 70.1608C680.816 68.0034 679.802 65.0109 679.802 61.2826C679.802 57.7731 680.726 54.8502 682.556 52.6033C684.426 50.2768 687.25 49.1037 690.939 49.1037C694.281 49.1037 696.986 50.1575 698.965 52.2453C700.924 54.3133 701.928 57.3555 701.928 61.2826C701.928 64.7723 701.003 67.6853 699.174 69.962C697.274 72.2884 694.51 73.4616 690.939 73.4616ZM690.939 51.0921C687.837 51.0921 685.599 51.9968 684.107 53.8559C682.556 55.7648 681.79 58.1907 681.79 61.2826C681.79 64.5337 682.606 66.9993 684.277 68.8087C685.927 70.5983 688.105 71.4732 690.939 71.4732C693.923 71.4732 696.111 70.5685 697.622 68.7093C699.154 66.8004 699.939 64.305 699.939 61.2826C699.939 57.8825 699.124 55.3075 697.523 53.6173C695.932 51.9471 693.714 51.0921 690.939 51.0921Z" fill="black"/>
</g>
<defs>
<clipPath id="clip0_1901_720">
<rect width="734" height="144" fill="white"/>
</clipPath>
</defs>
</svg>
