<svg width="93" height="92" viewBox="0 0 93 92" fill="none" xmlns="http://www.w3.org/2000/svg">
<path d="M12.8665 62.4261C13.3454 62.4244 13.7336 62.0346 13.7319 61.5565L13.7251 59.0612C13.7234 58.5815 13.3352 58.195 12.8572 58.195H12.8546C12.3758 58.1967 11.9876 58.5866 11.9893 59.0646L11.996 61.5599C11.9977 62.0396 12.3859 62.4261 12.864 62.4261H12.8665Z" fill="black"/>
<path d="M12.4556 50.9109C12.1632 51.0482 11.9716 51.3364 11.958 51.6585C11.9573 51.6759 11.9692 51.6905 11.9695 51.7078C11.9695 51.7095 11.9682 51.711 11.9682 51.7127L11.9801 55.8099C11.9818 56.2896 12.37 56.6761 12.848 56.6761C12.8489 56.6761 12.8497 56.6761 12.8505 56.6761C13.3294 56.6744 13.7176 56.2846 13.7159 55.8065L13.7083 53.2214L21.5342 57.7677L21.7151 57.8729L21.7551 71.986C17.1411 69.3162 18.3484 70.0089 13.7481 67.3387L13.7422 64.9553C13.7414 64.4756 13.3523 64.0891 12.8743 64.0891C12.8734 64.0891 12.8726 64.0891 12.8717 64.0891C12.3929 64.0908 12.0055 64.4807 12.0064 64.9587L12.014 67.8405C12.0148 68.149 12.1793 68.4338 12.4454 68.5898L17.781 71.6905L15.6552 74.9704C15.5255 75.1687 15.484 75.4128 15.5391 75.6433C15.5942 75.8739 15.7416 76.0722 15.9476 76.1926C17.9609 77.3534 8.65427 71.9875 35.6378 87.5451C36.0672 87.7873 36.6145 87.6306 36.8414 87.184L38.6695 83.5978L44.017 86.6941C44.2539 86.8321 44.585 86.8549 44.8578 86.7094C45.0325 86.6162 59.0994 78.5812 58.9243 78.5878C59.2159 78.42 59.3845 78.0979 59.3549 77.7623L58.8565 72.0225C60.4398 70.5612 61.9383 68.9813 63.3224 67.3099L66.2974 69.7001C66.7149 70.0369 67.3268 69.9147 67.5925 69.4577L70.8328 63.845C71.0727 63.4297 70.9303 62.8991 70.515 62.6601C70.0988 62.416 69.5682 62.5618 69.3292 62.9771L66.5949 67.7134L63.7369 65.4164C63.3651 65.1169 62.8173 65.174 62.5155 65.5503C60.9483 67.5133 59.2176 69.356 57.3715 71.0291C57.1706 71.2105 57.0664 71.4766 57.0901 71.7462L57.5775 77.3622L45.4367 84.3717L45.8046 79.249C45.8479 78.6567 45.2944 78.1995 44.7298 78.3437C44.4208 78.4207 44.1204 78.4779 43.8187 78.538C42.1126 78.8727 40.8483 78.9204 39.7571 78.8286C39.5294 78.8068 39.3319 78.9 39.1636 79.0357C39.0655 79.1111 38.9638 79.1852 38.9052 79.2998C38.8017 79.5033 35.6067 85.785 35.7082 85.5855L27.3518 80.8119L31.1897 74.911C31.3838 74.6144 31.3762 74.2279 31.1719 73.938C31.1717 73.9377 31.1721 73.9383 31.1719 73.938C31.1718 73.9378 31.1712 73.9365 31.171 73.9363C30.315 72.7158 29.614 71.1952 29.0885 69.4153C29.0097 69.1492 28.8088 68.9373 28.5478 68.844C28.2858 68.7504 27.9878 68.7885 27.7604 68.944C27.586 69.0632 23.2131 72.05 23.4911 71.8602L23.4513 57.9221C23.6255 57.8397 28.9036 55.3443 28.5749 55.4997C28.7485 55.3417 29.0067 55.1195 29.0563 54.8894C29.6844 51.9689 30.9864 48.2731 31.2007 47.7206C31.3729 47.2743 31.1527 46.7676 30.7006 46.5967C30.5205 46.5283 27.0727 45.2197 27.284 45.2999C39.457 24.2714 35.2585 31.5241 36.1668 29.9552C36.3416 30.0942 39.1898 32.3608 39.0086 32.2166C39.0104 32.2181 39.0128 32.2183 39.0146 32.2197L39.0171 32.2217C39.3876 32.5174 39.9688 32.4073 40.2258 32.0946C40.7588 31.4852 42.3958 29.3299 45.3714 26.6293C45.565 26.4541 45.6688 26.1033 45.6528 25.914L45.1773 20.2911L57.3164 13.2816C56.8292 19.8939 56.9488 18.1578 56.9488 18.4714C56.9479 19.0501 57.5003 19.4254 57.9973 19.3148C58.0026 19.3136 58.0078 19.316 58.0131 19.3147C59.7897 18.8723 61.4586 18.7197 62.9842 18.8451C63.3444 18.8774 63.6724 18.6909 63.8318 18.3739C63.9207 18.1996 67.2571 11.6612 67.0447 12.0776L75.4038 16.8279L71.566 22.7406C71.3727 23.039 71.3804 23.4238 71.5846 23.7137C72.4542 24.946 73.1569 26.4632 73.6722 28.2194C73.842 28.7925 74.5186 29.0208 74.9936 28.6924L79.2646 25.7868L79.3044 39.7296L74.1774 42.1469C73.9333 42.2622 73.7561 42.4842 73.6993 42.7487C73.173 45.1948 72.4534 47.6104 71.56 49.9294C71.3871 50.3778 71.6135 50.8839 72.0635 51.0533L75.4708 52.3399L74.3554 54.2724C74.1155 54.6877 74.2579 55.2183 74.6732 55.4573C75.086 55.698 75.6191 55.5539 75.859 55.1403L77.4855 52.323C77.7524 51.8603 77.5407 51.2657 77.0405 51.077L73.4874 49.7344C74.2232 47.7189 74.8326 45.6389 75.3038 43.5352L80.5444 41.0637C80.8487 40.9196 81.0428 40.6128 81.042 40.2771L80.9962 24.1476C80.9956 23.9668 80.8605 23.5715 80.5597 23.3967C79.4981 22.7803 75.0458 20.195 75.2215 20.2971C75.3347 20.1222 77.4868 16.7839 77.3855 16.9601C77.6119 16.5665 77.4934 16.0242 77.0685 15.7769C75.0532 14.6189 84.369 19.9719 57.3588 4.4515C56.9489 4.21536 56.4054 4.37561 56.1773 4.77358C56.0777 4.94732 54.234 8.57597 54.3373 8.40218L48.9932 5.29738C48.7245 5.14143 48.3922 5.14143 48.1235 5.29738C44.9286 7.1414 37.9924 11.1464 34.0588 13.4155C33.8845 13.5258 33.6125 13.9555 33.6587 14.2224L34.1427 19.9741C32.7059 21.2889 31.3462 22.7274 30.0608 24.2343L26.5932 22.2168C26.3941 22.1016 26.1584 22.071 25.933 22.127C25.7101 22.1863 25.5194 22.3321 25.4041 22.5321L15.5272 39.6482C15.2882 40.0618 15.4297 40.5924 15.8434 40.8331L19.3301 42.8592C18.6798 44.7216 18.1236 46.5912 17.7106 48.4359L12.4556 50.9109ZM40.1995 80.5964C41.4592 80.6429 42.7702 80.5149 43.989 80.2831L43.6856 84.4972L39.459 82.0492L40.1995 80.5964ZM78.4995 24.2083L74.9741 26.6073C74.5249 25.3444 73.9757 24.2053 73.334 23.2051L74.275 21.7554L78.4995 24.2083ZM18.4199 50.0204L26.3386 54.6243L22.6216 56.3909L14.6906 51.7771L18.4199 50.0204ZM19.2833 72.5635C19.5839 72.7381 18.1945 71.931 22.2231 74.2703C22.3972 74.3622 22.7782 74.4181 23.0614 74.2533C23.2949 74.1174 27.5603 71.1872 27.7825 71.0348C28.2334 72.3038 28.7817 73.4459 29.4197 74.4431L25.844 79.9355L17.6072 75.1484L19.2833 72.5635ZM35.8698 19.8004L35.5279 15.7412L43.4342 20.3359L43.7765 24.3948L35.8698 19.8004ZM57.2907 6.42011L65.5294 11.208C65.4372 11.3891 62.3587 17.4347 62.5469 17.0652C62.06 17.0444 59.8263 17.1733 58.7548 17.3754L59.1684 11.7746C59.092 11.5656 59.1508 11.2169 58.7641 10.9745C58.5895 10.865 55.667 9.16473 55.8408 9.27562L57.2907 6.42011ZM48.5558 7.05188C49.0682 7.34957 56.7925 11.837 56.5714 11.7085C56.2749 11.8796 44.0846 18.9171 44.2709 18.8095L36.2547 14.1515L48.5558 7.05188ZM35.1744 21.4044L43.341 26.1499C41.857 27.5778 41.185 28.2176 39.4214 30.3265L36.4439 27.955C36.4309 27.9447 36.4138 27.943 36.4003 27.9336L36.3481 27.8922L31.5683 25.1113C32.7052 23.7978 33.9189 22.5641 35.1744 21.4044ZM26.472 24.1544C27.9266 25.0009 34.9023 29.0607 34.717 28.953C33.7953 30.5481 38.0561 23.1747 25.7022 44.553C25.5265 44.4509 17.2874 39.6648 17.4631 39.7669L26.472 24.1544ZM25.5812 46.4916C25.7609 46.5609 29.5011 48.0033 29.2691 47.9138C28.9816 48.7008 28.1198 51.3616 27.6366 53.3695L19.4639 48.6179C19.8336 47.0027 20.2856 45.3695 20.8439 43.7388L25.5812 46.4916Z" fill="black"/>
<path d="M74.0501 56.5371C73.6348 56.293 73.1034 56.4388 72.8644 56.8541L71.0887 59.9292C70.8488 60.3445 70.9912 60.8751 71.4065 61.1141C71.8177 61.3541 72.351 61.2137 72.5923 60.7971L74.368 57.7221C74.6078 57.3067 74.4654 56.7761 74.0501 56.5371Z" fill="black"/>
<path d="M51.0909 30.7248C42.6256 35.6103 35.6384 47.5362 35.6666 57.3457C35.6949 67.5438 43.1672 71.7351 52.0563 66.5996C60.4982 61.7277 67.3441 49.826 67.317 40.072C67.2872 29.8889 59.9179 25.6261 51.0909 30.7248ZM46.5394 51.1702C47.9503 50.3544 48.8903 50.8634 48.8957 52.5196C48.9016 54.5165 47.4361 57.0541 45.6952 58.0611C44.3148 58.8537 43.3334 58.4252 43.3279 56.732C43.322 54.725 44.7925 52.1788 46.5394 51.1702ZM56.4442 46.7662C55.0292 47.5833 54.0933 47.0695 54.0879 45.4151C54.082 43.4182 55.5475 40.8806 57.2884 39.8753C58.6898 39.0707 59.6502 39.5336 59.6557 41.2043C59.6616 43.2114 58.1911 45.7576 56.4442 46.7662ZM65.5812 40.0754C65.5986 46.3825 62.5691 53.6387 58.0982 59.0608L58.0652 47.7486C59.9862 46.2428 61.3983 43.5409 61.3916 41.1993C61.3828 38.2356 59.0232 36.8626 56.4205 38.3734C54.1312 39.6939 52.3445 42.7893 52.3521 45.4202C52.3599 48.0741 54.1919 49.3784 56.3321 48.6985L56.3678 60.9749C54.7586 62.6248 53.0165 64.042 51.1884 65.0977C43.3791 69.6078 37.4269 66.1017 37.4024 57.3423C37.3845 51.0767 40.4113 43.8565 44.8855 38.4169L44.9185 50.1877C42.9975 51.6935 41.5853 54.3955 41.592 56.7371C41.6008 59.6818 43.9357 61.084 46.5631 59.563C48.8524 58.2407 50.6391 55.1437 50.6315 52.5128C50.6242 50.0322 48.9172 48.5132 46.6516 49.234L46.616 36.4872C48.2718 34.7813 50.0705 33.3171 51.9588 32.2267C59.606 27.8127 65.5566 31.2089 65.5812 40.0754Z" fill="black"/>
</svg>
