<svg width="93" height="92" viewBox="0 0 93 92" fill="none" xmlns="http://www.w3.org/2000/svg">
<path d="M11.724 83.904C11.724 84.272 11.908 84.456 12.092 84.64L21.292 89.976C21.66 90.16 21.844 90.16 22.212 89.976C22.396 89.976 22.396 89.792 22.58 89.608L52.94 72.128C53.308 71.944 53.492 71.392 53.308 70.84C53.124 70.472 52.572 70.288 52.02 70.472L22.764 87.4L22.58 42.504C39.876 32.568 62.692 19.32 79.436 9.75199L79.62 54.648L64.348 63.48C63.98 63.664 63.796 64.216 63.98 64.768C64.164 65.32 64.716 65.32 65.268 65.136L81.092 55.936C81.46 55.752 81.644 55.384 81.644 55.2L81.276 8.09599C81.276 7.72799 81.092 7.54399 80.724 7.35999L71.524 2.02399C71.156 1.83999 70.972 1.83999 70.604 2.02399L12.092 35.88C11.724 35.88 11.54 36.248 11.54 36.616L11.724 83.904ZM13.564 83.352V38.272L20.924 42.504C20.924 46.92 21.108 82.8 21.108 87.768L13.564 83.352ZM71.156 3.86399L78.516 8.09599L21.66 40.848L14.3 36.616L71.156 3.86399Z" fill="black"/>
<path d="M60.4843 65.688L56.4363 68.08C56.0683 68.264 55.8843 68.816 56.0683 69.368C56.2523 69.736 56.8043 69.92 57.3563 69.736L61.4043 67.344C61.7723 67.16 61.9563 66.608 61.7723 66.056C61.4043 65.688 60.8523 65.504 60.4843 65.688Z" fill="black"/>
<path d="M74.652 33.672V22.448C74.652 22.08 74.468 21.896 74.1 21.712C73.732 21.528 73.548 21.528 73.18 21.712L53.676 33.12C53.308 33.304 53.124 33.672 53.124 33.856V45.08C53.124 45.448 53.308 45.632 53.676 45.816C54.044 46 54.228 46 54.596 45.816L74.284 34.408C74.468 34.408 74.652 34.04 74.652 33.672ZM55.148 43.424V34.408L72.996 24.104V33.12L55.148 43.424Z" fill="black"/>
<path d="M41.164 52.072V41.584C41.164 41.216 40.98 41.032 40.612 40.848C40.244 40.664 40.06 40.664 39.692 40.848L29.572 46.736C29.204 46.92 29.02 47.288 29.02 47.472V57.96C29.02 58.328 29.204 58.512 29.572 58.696C29.94 58.88 30.124 58.88 30.492 58.696L40.612 52.808C40.98 52.808 41.164 52.44 41.164 52.072ZM31.044 56.488V48.024L39.324 43.24V51.704L31.044 56.488Z" fill="black"/>
<path d="M35.6441 70.656L30.8601 73.416C30.4921 73.6 30.3081 74.152 30.4921 74.704C30.6761 75.072 31.2281 75.256 31.7801 75.072L36.5641 72.312C36.9321 72.128 37.1161 71.576 36.9321 71.024C36.7481 70.472 36.1961 70.288 35.6441 70.656Z" fill="black"/>
<path d="M47.2359 63.848L42.4519 66.608C42.0839 66.792 41.8999 67.344 42.0839 67.896C42.2679 68.264 42.8199 68.448 43.3719 68.264L48.1559 65.504C48.5239 65.32 48.7079 64.768 48.5239 64.216C48.3399 63.848 47.6039 63.664 47.2359 63.848Z" fill="black"/>
<path d="M55.1483 61.456L59.9323 58.696C60.3003 58.512 60.4843 57.96 60.3003 57.408C60.1163 57.04 59.5643 56.856 59.0123 57.04L54.2283 59.8C53.8603 59.984 53.6763 60.536 53.8603 61.088C54.0443 61.64 54.5963 61.824 55.1483 61.456Z" fill="black"/>
<path d="M70.2359 50.784L65.4519 53.544C65.0839 53.728 64.8999 54.28 65.0839 54.832C65.2679 55.2 65.8199 55.384 66.3719 55.2L71.1559 52.44C71.5239 52.256 71.7079 51.704 71.5239 51.152C71.3399 50.784 70.7879 50.6 70.2359 50.784Z" fill="black"/>
</svg>
