<svg width="93" height="92" viewBox="0 0 93 92" fill="none" xmlns="http://www.w3.org/2000/svg">
<path d="M16.137 47.0769V68.0437C16.137 69.6532 16.988 71.145 18.3509 71.9324C19.2998 72.4938 20.3756 73.0647 21.5609 73.6569L20.4233 77.8366C19.8464 79.4474 20.2974 80.8569 22.071 81.8643C24.3772 83.2051 27.9507 83.1839 30.1874 81.8711C31.3918 81.1956 32.0546 80.1938 32.0546 79.0487V79.0317C32.0546 79.0241 32.0216 78.4155 31.8512 77.9545L31.7358 77.527C36.5638 78.8535 41.5138 79.5445 46.4593 79.5445C56.2718 79.5445 66.0376 76.9653 74.6533 71.9366C76.0128 71.1501 76.857 69.6583 76.857 68.0437V47.0986L87.706 40.7939C87.9722 40.6396 88.1366 40.3548 88.1375 40.0472C88.1461 37.5739 88.16 33.4434 88.1604 33.6216C88.1599 33.4037 88.0447 33.0551 87.7264 32.8707L46.8212 9.25364C46.5517 9.09853 46.2194 9.09769 45.9516 9.25534L39.8498 12.8008C39.4354 13.0415 39.2938 13.5721 39.5354 13.9865C39.7761 14.4027 40.3067 14.54 40.7212 14.301L46.3889 11.0081L85.5608 33.625C78.2044 37.9003 56.8878 50.2887 46.636 56.2466L27.8737 45.4143L41.7144 37.4239C44.8261 38.9545 49.0913 38.7806 51.8219 37.1917C55.0887 35.2941 55.0523 31.9423 51.7889 30.0576C48.8147 28.3412 44.1674 28.3446 41.2068 30.066C39.6363 30.9789 38.7717 32.2435 38.7734 33.6276C38.7752 34.6303 39.2456 35.565 40.0959 36.3537L26.1378 44.412L7.46298 33.6301L34.6355 17.8388C35.0491 17.5981 35.1907 17.0667 34.9491 16.6522C34.7076 16.2369 34.1744 16.097 33.7625 16.3386L5.2992 32.8799L5.29475 32.8825C5.08835 33.0026 4.86381 33.455 4.86334 33.6293L4.8396 40.0497C4.83876 40.3608 5.00403 40.6489 5.27357 40.8049L16.137 47.0769ZM42.079 31.5663C44.4707 30.1783 48.5178 30.1736 50.921 31.5612C53.0107 32.7681 53.0645 34.4627 50.9498 35.6914C47.7393 37.5549 40.5158 36.5436 40.5093 33.625C40.5084 32.8868 41.0661 32.1553 42.079 31.5663ZM27.0202 51.3556L27.0041 46.9168L45.7675 57.7499L45.7511 62.1673C20.4844 47.5831 28.7109 52.3315 27.0202 51.3556ZM6.59325 35.1329L25.2648 45.9126L25.2809 50.3513L6.57715 39.553L6.59325 35.1329ZM19.2273 70.4347C18.3916 69.9516 17.8729 69.0353 17.8729 68.0437V48.0916L25.2881 52.3685L25.3262 62.8875C23.1495 63.2852 21.5463 65.1441 21.5463 67.4529C21.5463 68.4999 21.9066 69.4564 22.4924 70.2344L22.0264 71.9469C21.0065 71.431 20.0737 70.9355 19.2273 70.4347ZM28.2511 69.5178C28.2449 69.5238 28.2355 69.5243 28.2295 69.5303C27.1062 70.6527 25.112 70.5713 24.0987 69.4667C23.5955 68.9425 23.2822 68.2348 23.2822 67.4529C23.2822 65.8188 24.5628 64.5381 26.197 64.5381C27.804 64.5381 29.1118 65.8459 29.1118 67.4529C29.1118 68.2592 28.7821 68.9896 28.2511 69.5178ZM30.3188 79.0487C30.3188 79.6759 29.7857 80.1065 29.3237 80.3658C27.5735 81.3905 24.712 81.3914 22.9363 80.3599C21.8957 79.7682 21.7621 79.2573 22.0777 78.3571L23.9399 71.5238C25.1425 72.1906 26.9065 72.3306 28.3329 71.5849C30.2454 78.6695 30.3157 78.8519 30.3188 79.0334C30.3188 79.2073 30.3188 79.2225 30.3188 79.0487ZM75.1211 68.0437C75.1211 69.0413 74.6084 69.9575 73.7811 70.4364C60.9312 77.937 45.445 79.8031 31.2159 75.6013L29.8001 70.3572C30.4451 69.5588 30.8477 68.5571 30.8477 67.4529C30.8477 65.1843 29.2137 63.2968 27.0621 62.8896L27.0275 53.3718C28.9858 54.5017 19.9335 49.2788 46.1796 64.4219C46.4585 64.5826 46.7961 64.5666 47.0458 64.4228C81.953 44.1447 39.6473 68.7199 75.1211 48.1136V68.0437ZM86.4033 39.5437L47.4874 62.1589L47.5035 57.7506L86.4194 35.1337L86.4033 39.5437Z" fill="white"/>
<path d="M37.0994 16.4064L38.4199 15.6393C38.8344 15.3986 38.9759 14.868 38.7344 14.4536C38.4928 14.0374 37.9597 13.8984 37.5486 14.1391L36.2281 14.9062C35.8136 15.1469 35.672 15.6775 35.9136 16.0919C36.1559 16.5102 36.6895 16.6457 37.0994 16.4064Z" fill="white"/>
</svg>
