<svg width="93" height="93" viewBox="0 0 93 93" fill="none" xmlns="http://www.w3.org/2000/svg">
<path d="M24.0644 69.8279C24.5433 69.8262 24.9314 69.4372 24.9297 68.9574L24.9204 65.5535C24.9187 65.0755 24.5305 64.6881 24.0525 64.6881H24.05C23.5711 64.6898 23.1829 65.0789 23.1846 65.5586L23.1939 68.9625C23.1956 69.4405 23.5838 69.8279 24.0618 69.8279H24.0644Z" fill="black"/>
<path d="M27.9642 41.7314H27.9667C28.4456 41.7297 28.8338 41.3406 28.8321 40.8609L28.8228 37.5519C28.8211 37.0739 28.4329 36.6866 27.9548 36.6866H27.9523C27.4734 36.6883 27.0852 37.0773 27.0869 37.557L27.0962 40.866C27.0979 41.344 27.4861 41.7314 27.9642 41.7314Z" fill="black"/>
<path d="M27.0962 48.6892C27.0979 49.1672 27.4861 49.5546 27.9642 49.5546H27.9667C28.4456 49.5529 28.8338 49.1638 28.8321 48.6841L28.8228 45.3743C28.8211 44.8962 28.4329 44.5089 27.9548 44.5089H27.9523C27.4734 44.5106 27.0852 44.8996 27.0869 45.3794L27.0962 48.6892Z" fill="black"/>
<path d="M69.9144 64.1313C69.7569 0.607284 69.8156 27.5216 69.7771 13.4069C69.7661 12.0906 69.2711 11.087 68.3837 10.5785C68.2099 10.4789 59.4043 5.07389 59.5798 5.16412C58.6848 4.65896 57.566 4.74118 56.4294 5.39551L26.7301 22.5285C26.7182 22.5354 26.7132 22.5493 26.7017 22.5567C24.6645 23.7535 23.0787 26.5102 23.0855 28.8583L23.1745 61.5987C23.1762 62.0767 23.5644 62.4641 24.0424 62.4641C24.0432 62.4641 24.0441 62.4641 24.0449 62.4641C24.5238 62.4624 24.912 62.0734 24.9103 61.5936L24.8256 30.4115C25.0017 30.5199 32.3259 35.0264 31.8982 34.7632C31.926 45.0402 31.9894 68.4353 32.034 84.9393L25.4824 80.9075C25.1604 80.7125 24.9696 80.2226 24.9586 79.5751L24.9391 72.5512C24.9374 72.0731 24.5492 71.6858 24.0712 71.6858C24.0704 71.6858 24.0695 71.6858 24.0687 71.6858C23.5898 71.6875 23.2016 72.0765 23.2033 72.5563L23.2228 79.592C23.244 80.8787 23.7271 81.8729 24.5772 82.3891C27.623 84.2634 33.7787 88.0509 33.3946 87.8144C33.3987 87.817 33.4037 87.8157 33.4079 87.8181C33.4153 87.8225 33.4203 87.8297 33.4277 87.8339C34.4213 88.402 35.5776 88.1759 36.5739 87.6009L66.2562 70.4559C68.326 69.2727 69.9322 66.496 69.9144 64.1313ZM68.1514 55.9691L33.7453 75.8298C33.6904 55.5583 33.7011 57.6653 33.6591 40.3795L68.0605 20.521C68.0698 24.1456 68.0269 7.39093 68.1514 55.9691ZM33.6439 38.3843L33.6328 34.2783C33.6328 34.2771 33.6336 34.2764 33.6336 34.2752C33.6297 32.6209 34.8674 30.3572 36.4196 29.4618C76.4717 6.33902 63.4313 13.8675 66.1113 12.3203C67.2193 11.6638 68.0302 11.9835 68.0413 13.4162L68.055 18.5199L33.6439 38.3843ZM57.2956 6.89912C57.8711 6.56772 58.3932 6.48889 58.6984 6.65926L65.3485 10.7565C65.3357 10.7636 65.323 10.7711 65.3102 10.7784C64.8731 11.0206 36.1769 27.5946 36.0009 27.6963L28.8592 23.3041L57.2956 6.89912ZM27.1861 24.3153L34.4448 28.7803C33.3298 29.8167 32.4051 31.4717 32.0766 32.835L24.8485 28.3875C25.0217 26.9083 25.9911 25.2212 27.1861 24.3153ZM35.706 86.0972C34.4307 86.8338 33.7969 86.2693 33.7712 85.0092C33.7711 85.0045 33.7701 85.0009 33.7701 84.9962L33.7507 77.8311L68.1618 57.9669L68.1786 64.1381C68.1786 64.1389 68.1786 64.1406 68.1786 64.1415C68.193 65.8765 66.9182 68.0785 65.3917 68.9506L35.706 86.0972Z" fill="black"/>
<path d="M53.6232 22.4387L47.218 26.1359C46.8027 26.3757 46.6603 26.9063 46.9002 27.3216C47.1424 27.7397 47.6747 27.8771 48.086 27.6395L54.4912 23.9423C54.9065 23.7024 55.0489 23.1719 54.809 22.7565C54.5683 22.3421 54.0368 22.1997 53.6232 22.4387Z" fill="black"/>
<path d="M51.9132 68.5091C50.4223 69.3702 49.2586 71.3815 49.2637 73.0868C49.2708 75.1589 50.9869 76.1339 52.7956 75.0922C54.2721 74.2396 55.4248 72.235 55.4197 70.5305C55.4143 68.4573 53.7092 67.4752 51.9132 68.5091ZM51.9276 73.5886C51.3096 73.9459 51.0011 73.8352 50.9995 73.0818C50.9961 71.9969 51.8285 70.5636 52.7812 70.0127C53.3732 69.6696 53.6822 69.7676 53.6838 70.5348C53.6872 71.6197 52.8668 73.047 51.9276 73.5886Z" fill="black"/>
<path d="M55.5167 12.5737C56.7009 13.2579 58.4903 13.262 59.6766 12.572C61.1564 11.713 61.1588 10.0279 59.6656 9.16471C58.4959 8.49003 56.6685 8.48919 55.504 9.16556C54.0214 10.028 54.0264 11.7122 55.5167 12.5737ZM56.377 10.6658C57.0059 10.2996 58.1603 10.3005 58.796 10.6666C58.979 10.7726 59.0443 10.87 59.0519 10.8548C59.0443 10.8785 58.9816 10.9692 58.8044 11.0718C58.1637 11.4447 57.0321 11.4447 56.3846 11.0701C56.2117 10.9709 56.1447 10.8811 56.1312 10.8811C56.1303 10.8811 56.1295 10.8819 56.1295 10.8828C56.1371 10.859 56.1998 10.7683 56.377 10.6658Z" fill="black"/>
<path d="M63.6837 36.406C62.9556 35.3745 61.8368 34.8015 60.534 34.7931H60.5281C60.0518 34.7931 59.6636 35.1779 59.6602 35.6551C59.6568 36.1348 60.0433 36.5255 60.5222 36.5289C62.2367 36.5405 62.8868 38.0942 62.8912 39.8158C62.8971 42.1365 61.7122 45.0073 59.8721 47.1296C59.5585 47.4924 59.5975 48.0399 59.9594 48.3544C60.1238 48.4968 60.3264 48.5663 60.5281 48.5663C60.7705 48.5663 61.0121 48.4646 61.1841 48.2671C63.315 45.8082 64.6338 42.5688 64.627 39.8108C64.6236 38.4529 64.2973 37.2748 63.6837 36.406Z" fill="black"/>
<path d="M41.289 59.8196C39.5686 59.8079 38.9243 58.245 38.92 56.5327C38.9132 54.212 40.0981 51.3413 41.9391 49.2189C42.2527 48.857 42.2137 48.3086 41.8518 47.9942C41.4907 47.6806 40.9431 47.7195 40.627 48.0815C38.4953 50.5403 37.1765 53.7806 37.1841 56.5378C37.1875 57.8948 37.5138 59.0721 38.1283 59.9434C38.8564 60.974 39.9752 61.547 41.2771 61.5555H41.283C41.7594 61.5555 42.1476 61.1707 42.1509 60.6935C42.1543 60.2138 41.7678 59.823 41.289 59.8196Z" fill="black"/>
<path d="M56.4243 40.5397L53.3331 42.3247L52.4118 39.6455C52.2821 39.2632 52.0177 38.9793 51.6659 38.8462C51.2862 38.7013 50.8573 38.753 50.453 38.9869C49.9216 39.2937 49.4927 39.8862 49.3359 40.5354L48.2807 44.9539C48.2281 45.1624 48.0739 45.3607 47.9857 45.4116L44.5106 47.4178C43.747 47.8594 43.2384 48.857 43.3537 49.6893C43.4308 50.2521 43.7843 50.6674 44.3004 50.7988L46.7237 51.415L45.6845 55.6995C45.254 57.5091 47.2233 58.3361 48.3798 56.6997L51.1913 52.7254C51.2286 52.6728 51.265 52.6321 51.2964 52.6033L53.9603 53.2907C54.3163 53.3822 54.6884 53.3238 55.0418 53.1195C55.8199 52.6694 56.4607 51.5074 56.1369 50.5581L55.0613 47.4068C55.0588 47.3602 55.0927 47.2008 55.2105 47.0338L58.005 43.0807C58.5881 42.2611 58.6331 41.2898 58.1135 40.7185C57.6948 40.2583 57.0337 40.1896 56.4243 40.5397ZM51.326 40.4871C51.3243 40.488 51.3218 40.4888 51.3193 40.4897L50.8861 39.7387L51.326 40.4871ZM53.7925 46.0329C53.3679 46.6346 53.2195 47.3551 53.4069 47.9187L54.4867 51.087C54.4935 51.1972 54.3663 51.4472 54.2349 51.5693L51.571 50.8819C51.2176 50.7886 50.8438 50.8514 50.4835 51.0573C50.2191 51.2099 49.9741 51.4404 49.7741 51.7235L47.7365 54.6036L48.446 51.6803C48.6901 50.6835 48.179 49.9961 47.5441 49.8326L45.1378 49.2206C45.1921 49.1028 45.2785 48.979 45.3786 48.9214L48.8536 46.9152C49.3681 46.6177 49.8038 46.0142 49.9665 45.3675L51.0226 40.9448L51.8583 43.3723C51.9804 43.7562 52.2431 44.0427 52.5991 44.1809C52.9814 44.3267 53.4162 44.2809 53.8247 44.0453L56.1437 42.7061L53.7925 46.0329Z" fill="black"/>
</svg>
