<svg width="93" height="93" viewBox="0 0 93 93" fill="none" xmlns="http://www.w3.org/2000/svg">
<path d="M11.0134 65.8999H11.0167C11.4948 65.8982 11.883 65.5083 11.8813 65.0294L11.8711 61.6662C11.8694 61.1874 11.4812 60.8009 11.0032 60.8009H10.9998C10.5218 60.8026 10.1336 61.1924 10.1353 61.6713L10.1454 65.0345C10.1471 65.5134 10.5353 65.8999 11.0134 65.8999Z" fill="black"/>
<path d="M35.1308 27.5994C35.2782 27.5994 35.4274 27.5621 35.5647 27.4832L42.9167 23.2385C43.332 22.9987 43.4744 22.4681 43.2336 22.0528C42.9946 21.6349 42.464 21.4959 42.0487 21.7349L34.6968 25.9796C34.2815 26.2195 34.1391 26.7501 34.3798 27.1654C34.5391 27.4442 34.8324 27.5994 35.1308 27.5994Z" fill="black"/>
<path d="M39.4856 69.2936C37.9888 70.1573 36.8208 72.178 36.8242 73.896C36.8314 75.9738 38.5658 76.9536 40.3671 75.9107C41.8555 75.0504 43.0167 73.034 43.0099 71.3211C43.0063 69.2475 41.2846 68.2549 39.4856 69.2936ZM39.4992 74.408C38.8783 74.7626 38.5633 74.6486 38.5601 73.8909C38.5567 72.7959 39.3958 71.3499 40.3536 70.7973C41.0317 70.4045 41.2713 70.6507 41.274 71.3261C41.2774 72.4187 40.4485 73.8596 39.4992 74.408Z" fill="black"/>
<path d="M15.3376 42.9075C15.7529 42.8719 16.2072 42.5177 16.2055 42.0371L16.1953 38.7281C16.1936 38.2492 15.8054 37.8627 15.3274 37.8627C14.7934 37.8348 14.4578 38.2526 14.4595 38.7332L14.4697 42.0422C14.4713 42.521 14.8595 42.9075 15.3376 42.9075Z" fill="black"/>
<path d="M14.4697 49.8653C14.4713 50.3442 14.8595 50.7307 15.3376 50.7307C15.7529 50.7884 16.2072 50.3408 16.2055 49.8603L16.1953 46.5513C16.1936 46.0724 15.8054 45.6859 15.3274 45.6859C14.7934 45.7512 14.4578 46.0766 14.4595 46.5564L14.4697 49.8653Z" fill="black"/>
<path d="M39.9738 13.6024C40.6925 14.0168 41.591 14.2245 42.4911 14.2245C43.3912 14.2245 44.2897 14.0168 45.005 13.6007C45.8255 13.1243 46.2933 12.4115 46.2933 11.6462C46.2916 10.8791 45.8153 10.1654 44.9898 9.68909C43.576 8.87371 41.3655 8.87202 39.9585 9.69078C39.1397 10.1663 38.6702 10.8774 38.6719 11.6411C38.6719 12.4098 39.1465 13.1243 39.9738 13.6024ZM40.8298 11.191C41.2672 10.9376 41.869 10.8113 42.4724 10.8113C43.0759 10.8113 43.6811 10.9384 44.1218 11.1927C44.4202 11.3648 44.5558 11.5504 44.5575 11.6495C44.5575 11.7479 44.4236 11.9309 44.1337 12.1005C43.2454 12.6158 41.7367 12.6158 40.8417 12.0988C40.5433 11.9267 40.4077 11.7402 40.4077 11.6394C40.4077 11.5385 40.5383 11.3614 40.8298 11.191Z" fill="black"/>
<path d="M78.1301 44.5086C77.9565 44.4088 71.589 40.7883 71.7647 40.8903C68.6423 39.0748 64.5637 39.4435 60.2749 41.9252C59.1922 42.5474 58.2689 43.2168 57.4252 43.8871L57.344 14.5135C57.344 12.8222 56.654 11.7231 55.7573 11.1791L45.5388 4.97653C44.4912 4.38576 43.1588 4.49171 41.7891 5.27149C41.7874 5.27233 41.7857 5.27318 41.7841 5.27403C41.5899 5.38612 14.3324 21.1258 14.5097 21.023C12.0057 22.4765 10.0518 25.855 10.0489 28.733C10.0469 30.6876 10.1238 57.8328 10.1251 58.0064C10.1268 58.4844 10.515 58.8718 10.9931 58.8718C11.4728 58.8701 11.8627 58.481 11.861 58.0013L11.7847 30.2949C11.9847 30.4163 20.7889 35.7609 20.2314 35.4224C20.2621 45.88 20.3616 84.0176 20.3766 84.7377C20.3777 84.8265 20.3791 84.9149 20.3843 85.0019L12.6696 80.3173C12.1966 80.0461 11.9288 79.3849 11.9186 78.4636L11.8915 68.7724C11.8898 68.2943 11.5016 67.907 11.0236 67.907C10.5439 67.9087 10.154 68.2977 10.1557 68.7775L10.1828 78.4763C10.2014 80.0444 10.7778 81.2335 11.7864 81.8116C12.8318 82.4461 7.99972 79.5126 22.01 88.0176C23.1939 88.6922 24.5776 88.4027 25.7512 87.7201L46.6544 75.6433C47.4369 76.9888 48.4634 78.0748 49.7429 78.8205L56.1336 82.4566C56.1402 82.4603 56.1478 82.4585 56.1545 82.4621C56.1574 82.4637 56.1596 82.466 56.1624 82.4676C59.7544 84.5362 64.0693 83.469 67.6319 81.4124C76.1061 76.5193 82.9783 64.6023 82.9511 54.8457C82.9376 49.9611 81.2255 46.2894 78.1301 44.5086ZM42.6486 6.77933C43.4674 6.31316 44.1895 6.20806 44.6624 6.4742L52.4585 11.2071C48.2963 13.1554 25.3508 26.8205 25.1511 26.9357C24.9773 26.8303 16.0957 21.4435 16.6588 21.785L42.6486 6.77933ZM14.9638 22.7947C15.1376 22.9 24.1508 28.3601 23.5763 28.0121C22.1458 29.2513 20.8086 31.3927 20.386 33.4833C20.2033 33.3724 11.2475 27.9381 11.8051 28.2765C11.9913 26.2881 13.3265 23.9705 14.9638 22.7947ZM24.8816 86.2182C23.1223 87.2422 22.11 86.4074 22.11 84.6518C22.109 84.2991 21.9722 34.7435 21.9727 34.9318C21.9678 32.823 23.5228 29.971 25.4793 28.7693C26.2348 28.3094 51.5826 13.6926 52.8501 12.9616C54.4978 11.9924 55.6081 12.6189 55.6081 14.5161L55.6935 45.377C54.9768 46.0463 54.2841 46.7544 53.6211 47.503L53.5417 20.5348C53.54 20.2254 53.3756 19.9398 53.1061 19.7846C52.8382 19.6304 52.5077 19.6312 52.2398 19.7855L24.5188 35.7904C24.2493 35.9463 24.0848 36.2337 24.0848 36.5447L24.1882 75.4623C24.1882 76.1239 24.9116 76.5448 25.4901 76.2116L45.2405 64.8132C45.0463 66.0555 44.9345 67.2805 44.9371 68.4655C44.9459 70.5851 45.2901 72.4598 45.9083 74.0694L24.8816 86.2182ZM45.6885 62.5502L25.9207 73.9587L25.8224 37.0423L51.811 22.0384L51.8915 49.6203C48.9614 53.512 46.7679 58.0842 45.6885 62.5502ZM50.6091 77.316C48.0884 75.8471 46.6916 72.7009 46.6729 68.4605C46.6517 59.0499 53.4126 47.8701 61.1411 43.4288C61.1428 43.428 61.1428 43.428 61.1428 43.4271C64.1528 41.6868 67.8825 40.6403 70.8985 42.3948L72.7412 43.4432C62.1268 44.5033 51.3042 59.9325 51.3295 72.1017C51.3385 74.2596 51.6811 76.4912 52.5856 78.4416L50.6091 77.316ZM66.764 79.9088C59.0925 84.3384 53.0952 80.9339 53.0705 72.0974C53.0479 64.4762 57.5106 55.451 63.6393 49.9406C66.2357 47.6063 69.6209 45.4329 73.1284 45.1691C73.4281 45.1465 73.7273 45.1256 74.0163 45.1336C79.0792 45.2776 81.201 49.7729 81.2153 54.8508C81.2424 64.0522 74.7584 75.2937 66.764 79.9088Z" fill="black"/>
<path d="M76.6468 54.9093C76.3637 54.7601 76.0196 54.7805 75.7535 54.9593L74.8737 55.5586C74.8466 55.5026 74.8178 55.4475 74.7889 55.3941L75.862 53.738C75.9925 53.5379 76.0349 53.293 75.9772 53.0607C75.9213 52.8285 75.7721 52.6293 75.5636 52.5115L72.414 50.7206C72.2089 50.6036 71.9631 50.5748 71.7359 50.6434C71.5088 50.7121 71.3189 50.8697 71.2121 51.0808L70.3137 52.8446C70.251 52.8471 70.1866 52.8497 70.1221 52.8539L70.2001 51.8046C70.2239 51.4842 70.0679 51.1766 69.795 51.0062C69.5221 50.8341 69.1762 50.8282 68.8999 50.9892L64.4586 53.554C64.167 53.7227 63.9992 54.0439 64.028 54.3796L64.1586 55.9112C63.8568 56.1993 63.5652 56.5011 63.2839 56.8138L62.7872 56.418C62.5888 56.2595 62.3278 56.1968 62.0854 56.2443C61.8362 56.2909 61.6209 56.4443 61.4955 56.663L58.3679 62.079C58.2407 62.2994 58.2153 62.5638 58.3018 62.8037C58.3865 63.0436 58.573 63.2334 58.8103 63.3241L59.3985 63.5479C59.2697 63.9437 59.1561 64.3429 59.0595 64.743L57.6593 65.4075C57.3542 65.5516 57.1609 65.8575 57.1626 66.194L57.1779 71.2982C57.1796 71.6194 57.3576 71.9144 57.6423 72.0635C57.9271 72.2136 58.2696 72.1949 58.5357 72.0118L59.4121 71.4126C59.4409 71.4685 59.468 71.5236 59.4985 71.5779L58.4238 73.2298C58.2933 73.4298 58.2509 73.6748 58.3068 73.907C58.3645 74.1393 58.5137 74.3376 58.7205 74.4563L61.8684 76.254C62.0006 76.3294 62.1498 76.3684 62.299 76.3684C62.382 76.3684 62.4668 76.3565 62.5481 76.332C62.7753 76.2642 62.9652 76.1057 63.072 75.8946L63.9704 74.1333C64.0331 74.1308 64.0975 74.1274 64.1619 74.1232L64.0857 75.1691C64.0636 75.4895 64.2196 75.7971 64.4908 75.9675C64.7637 76.1387 65.1095 76.1438 65.3859 75.9836L69.8272 73.4188C70.1188 73.2501 70.2866 72.9281 70.2578 72.5924L70.1255 71.0625C70.4272 70.7735 70.7188 70.4709 70.9985 70.1573L71.4918 70.5548C71.6902 70.7125 71.9461 70.7752 72.1953 70.732C72.4445 70.6854 72.6615 70.532 72.7869 70.3124L75.9179 64.8896C76.0467 64.6692 76.0705 64.4039 75.984 64.1641C75.8993 63.9242 75.7111 63.7335 75.4738 63.6436L74.889 63.4224C75.0161 63.03 75.1297 62.6308 75.2263 62.2265L76.6265 61.5662C76.9316 61.423 77.1266 61.1153 77.1249 60.7788L77.1096 55.6747C77.1079 55.3534 76.9299 55.0593 76.6468 54.9093ZM74.1058 60.8365C73.86 60.9517 73.6837 61.1738 73.6277 61.4382C73.465 62.1867 73.2463 62.9215 72.9768 63.6225C72.8937 63.8386 72.9005 64.0785 72.9955 64.2895C73.0887 64.4997 73.265 64.665 73.4803 64.7464L73.9041 64.9065L71.7902 68.5673L71.4274 68.274C71.2477 68.1291 71.0189 68.0629 70.7883 68.0875C70.5595 68.113 70.3493 68.2282 70.2052 68.4079C69.7289 69.0038 69.2034 69.5649 68.6423 70.0743C68.4422 70.2565 68.3371 70.5218 68.3609 70.7913L68.4812 72.1915L65.9351 73.6612L65.9724 73.1569C65.991 72.8789 65.8775 72.6094 65.6656 72.4297C65.452 72.2508 65.1706 72.1864 64.896 72.2517C64.3942 72.3763 63.9331 72.4263 63.5127 72.3899C63.1601 72.3627 62.8295 72.5475 62.6702 72.8611L61.9396 74.2952L60.38 73.4053L61.2513 72.0644C61.4446 71.7669 61.4378 71.3821 61.2344 71.0914C60.9971 70.7557 60.8021 70.3328 60.6563 69.8352C60.5784 69.5691 60.3766 69.3564 60.1156 69.2631C59.8545 69.1707 59.563 69.2072 59.3341 69.364L58.9086 69.6547L58.9002 66.7399L60.1817 66.1313C60.4258 66.016 60.6021 65.794 60.6597 65.5304C60.8174 64.7964 61.0361 64.0624 61.3107 63.3504C61.3937 63.1351 61.387 62.8952 61.2937 62.6842C61.1988 62.474 61.0242 62.3096 60.8089 62.2273L60.38 62.0646L62.4939 58.403L62.8601 58.6946C63.2313 58.9921 63.7754 58.9328 64.0755 58.5607C64.5552 57.9665 65.0824 57.4088 65.6418 56.902C65.8419 56.7197 65.947 56.4553 65.9232 56.1849L65.8046 54.7813L68.3473 53.3125L68.31 53.8176C68.2897 54.0948 68.4049 54.366 68.6168 54.5449C68.8287 54.7245 69.1152 54.7915 69.3864 54.7237C69.8848 54.5991 70.3459 54.5576 70.7646 54.5898C71.1392 54.6279 71.4529 54.433 71.6122 54.1194L72.3462 52.6785L73.9058 53.565L73.0344 54.9093C72.8395 55.2068 72.848 55.5933 73.0531 55.8832C73.2904 56.2171 73.4837 56.6375 73.6294 57.1334C73.7074 57.3995 73.9075 57.6123 74.1685 57.7055C74.4346 57.7987 74.7228 57.7623 74.95 57.6063L75.3789 57.3139L75.3873 60.2321L74.1058 60.8365Z" fill="black"/>
<path d="M66.7522 58.9277C64.6655 60.1321 63.0364 62.9478 63.0415 65.3371C63.0485 68.065 65.2211 69.3427 67.6422 67.946C69.7086 66.7526 71.3224 63.9462 71.3173 61.5569C71.3103 58.8069 69.1381 57.5518 66.7522 58.9277ZM66.7743 66.4424C65.5719 67.1358 64.781 66.7765 64.7774 65.332C64.7723 63.5674 66.0742 61.323 67.6202 60.4313C68.8027 59.7499 69.5778 60.1149 69.5815 61.562C69.5865 63.3258 68.2999 65.5609 66.7743 66.4424Z" fill="black"/>
</svg>
