<svg width="93" height="93" viewBox="0 0 93 93" fill="none" xmlns="http://www.w3.org/2000/svg">
<path d="M51.2651 23.7317L48.1409 25.5345C47.7256 25.7744 47.5832 26.305 47.8231 26.7203C48.0652 27.1384 48.5975 27.2757 49.0088 27.0381L52.133 25.2353C52.5483 24.9955 52.6907 24.4649 52.4509 24.0496C52.2093 23.6342 51.6779 23.491 51.2651 23.7317Z" fill="black"/>
<path d="M87.4663 26.8737L74.8645 24.3047C74.6094 24.2555 74.3441 24.3182 74.1407 24.4835C73.9389 24.6488 73.822 24.8963 73.8228 25.1573L73.8381 30.3318L68.4299 33.4637L68.4008 23.2994C68.3992 22.9815 68.2019 22.6859 67.966 22.5493L67.9626 22.5485L61.0972 18.5589C60.8285 18.4013 60.4963 18.403 60.2276 18.5572L54.5522 21.834C54.1369 22.0738 53.9945 22.6044 54.2343 23.0197C54.4742 23.4351 55.0056 23.5758 55.4201 23.3376L60.6599 20.3117L65.8012 23.2994L32.2551 42.6672L27.1142 39.6798L45.8399 28.8681C46.2552 28.6282 46.3976 28.0976 46.1577 27.6823C45.917 27.2653 45.3839 27.1254 44.9719 27.3644L24.9487 38.9255L24.9434 38.9308L24.941 38.9314C24.6715 39.0874 24.5062 39.3755 24.5071 39.6866L24.5578 54.305L19.1359 57.435L19.1241 53.2445C19.1232 52.8699 18.8817 52.5377 18.5248 52.4215C18.1714 52.308 17.779 52.4309 17.556 52.7334L5.00758 69.8436C4.83298 70.0826 4.79145 70.3937 4.89825 70.67C5.00419 70.9454 5.24406 71.148 5.53393 71.2073L18.1383 73.7806C18.6741 73.8909 19.1818 73.4798 19.18 72.9279L19.1656 67.7416L24.5806 64.6151L24.5944 69.6987C24.5952 70.0072 24.7596 70.292 25.0266 70.4462C28.7455 72.6061 32.1434 74.5525 31.9522 74.4556C32.2421 74.6024 32.5212 74.5879 32.7735 74.4426L68.0525 54.0743C68.3617 53.8955 68.4871 53.5163 68.4864 53.32L68.4592 43.7603L73.8618 40.6452L73.8745 44.8416C73.8756 45.3172 74.261 45.707 74.7424 45.707C75.0137 45.707 75.2756 45.5798 75.4425 45.3527L87.9927 28.2375C88.1673 27.9984 88.2088 27.6874 88.102 27.4111C87.9961 27.1356 87.7562 26.9322 87.4663 26.8737ZM34.8728 71.2258L46.616 52.1099L49.5489 53.6336C49.9742 53.8528 50.4936 53.6451 50.6948 53.3073L53.9199 47.8853L65.7411 53.4039C61.3904 55.9158 37.6727 69.6092 34.8728 71.2258ZM49.6218 51.7155C38.739 46.0616 40.1148 46.7764 34.0593 43.6304L65.0868 25.7167L49.6218 51.7155ZM45.0712 51.3074L33.1988 70.6332L33.1262 45.1017L45.0712 51.3074ZM54.8119 46.3857L66.6739 26.4434L66.7465 51.9575L54.8119 46.3857ZM17.862 66.4897C17.5925 66.6457 17.4272 66.933 17.4281 67.2441L17.4408 71.8668L7.20876 69.7775L17.3959 55.8881L17.4043 58.9386C17.4052 59.248 17.5713 59.5336 17.8391 59.6887C18.1078 59.8438 18.4392 59.8413 18.7062 59.6879L25.7473 55.6231C25.7829 55.6089 25.8114 55.5856 25.8443 55.567L27.6152 54.5447L27.633 60.8482L17.862 66.4897ZM26.3285 69.196L26.3137 63.6144L28.9365 62.1001C29.2061 61.9441 29.3713 61.6568 29.3705 61.3457L29.3468 53.0411C29.3459 52.7317 29.1798 52.4461 28.912 52.291C28.6433 52.1359 28.3119 52.1384 28.0449 52.2919L26.2902 53.3048L26.248 41.1945L31.3827 44.1762L31.464 72.1787L26.3285 69.196ZM75.6027 42.198L75.5934 39.1433C75.5926 38.8339 75.4264 38.5483 75.1586 38.394C74.8899 38.2398 74.5594 38.2398 74.2924 38.394L68.4535 41.7605L68.4355 35.4659L75.1425 31.582C75.4112 31.4269 75.5765 31.1387 75.5756 30.8285L75.562 26.2185L85.7915 28.3036L75.6027 42.198Z" fill="black"/>
</svg>
