<svg width="93" height="93" viewBox="0 0 93 93" fill="none" xmlns="http://www.w3.org/2000/svg">
<path d="M12.4892 81.745C12.4901 82.0536 12.6545 82.3383 12.9207 82.4926C13.0964 82.5947 22.6473 88.145 22.4715 88.0429L22.4738 88.0451C22.7377 88.1971 23.0692 88.2007 23.3408 88.0443L80.1992 55.2174C80.4688 55.0614 80.634 54.7741 80.6332 54.463L80.5103 11.2541C80.5097 11.0757 80.4018 10.6929 80.0755 10.504L80.0721 10.5032L70.5283 4.95744C70.2596 4.79979 69.9274 4.80149 69.6587 4.95575L64.8919 7.70785C64.4766 7.94772 64.3342 8.4783 64.574 8.89362C64.8131 9.30978 65.3436 9.45048 65.7598 9.21146L70.091 6.71024L77.9106 11.2541L22.786 43.0805L14.9667 38.537L59.3589 12.9069C59.7742 12.6671 59.9166 12.1365 59.6767 11.7212C59.4351 11.305 58.9037 11.1634 58.4909 11.4033L12.8011 37.7826C12.5298 37.9397 12.368 38.2288 12.3672 38.5336L12.3676 38.5353L12.3672 38.537L12.4892 81.745ZM78.7787 12.7577L78.8012 20.6982L23.6768 52.5245L23.6544 44.5838C44.4108 32.6001 58.0701 24.7139 78.7787 12.7577ZM14.1073 40.0448L21.9183 44.5834C21.9432 53.3904 22.0107 77.2819 22.0347 85.7821L14.2234 81.2424L14.1073 40.0448ZM23.7706 85.7914C23.7517 79.1091 23.6984 60.2125 23.6824 54.5258L78.8066 22.6999L78.8956 53.9655L23.7706 85.7914Z" fill="black"/>
<path d="M61.5581 11.6372L63.2948 10.6346C63.7102 10.3947 63.8525 9.8641 63.6127 9.44879C63.372 9.03178 62.8388 8.88938 62.4269 9.13094L60.6902 10.1336C60.2749 10.3735 60.1325 10.9041 60.3724 11.3194C60.6129 11.7358 61.1451 11.8759 61.5581 11.6372Z" fill="black"/>
<path d="M72.788 32.9132L45.4729 48.6834C45.0576 48.9232 44.9152 49.4538 45.1551 49.8691C45.3956 50.2856 45.9278 50.4256 46.3409 50.187L73.6559 34.4169C74.0712 34.177 74.2136 33.6464 73.9737 33.2311C73.733 32.8149 73.2016 32.6725 72.788 32.9132Z" fill="black"/>
<path d="M72.7877 40.6458L52.0618 52.6111C51.6465 52.851 51.5041 53.3815 51.744 53.7969C51.9844 54.2133 52.5166 54.3533 52.9297 54.1147L73.6557 42.1494C74.071 41.9095 74.2134 41.3789 73.9735 40.9636C73.7328 40.5483 73.2014 40.4068 72.7877 40.6458Z" fill="black"/>
<path d="M72.788 48.3774L45.4729 64.1475C45.0576 64.3874 44.9152 64.918 45.1551 65.3333C45.3956 65.7497 45.9278 65.8898 46.3409 65.6511L73.6559 49.881C74.0712 49.6412 74.2136 49.1106 73.9737 48.6953C73.733 48.2799 73.2016 48.1375 72.788 48.3774Z" fill="black"/>
<path d="M35.1647 62.5219C31.4082 64.6908 28.4756 69.7721 28.4883 74.0888L28.49 74.8279C28.4913 75.3106 28.8839 75.6941 29.3579 75.6941C29.508 75.6941 29.658 75.6551 29.7919 75.578L42.3192 68.3456C42.5887 68.1896 42.754 67.9023 42.7531 67.5904L42.7506 66.8522C42.7382 62.1897 39.203 60.1873 35.1647 62.5219ZM30.2589 73.304C30.5785 69.7789 33.0424 65.752 36.0327 64.0255C38.8706 62.3854 41.0058 63.4942 41.0147 66.8581L41.0156 67.0937L30.2589 73.304Z" fill="black"/>
<path d="M36.0206 60.3546C38.0675 59.1731 39.6652 56.4083 39.6584 54.0613C39.6513 51.3493 37.4906 50.1116 35.1315 51.4745C33.0896 52.6543 31.4962 55.4208 31.503 57.7729C31.5101 60.5224 33.7159 61.6851 36.0206 60.3546ZM35.9994 52.9781C37.2168 52.2789 37.919 52.7227 37.9225 54.0664C37.9276 55.7904 36.6588 57.9814 35.1526 58.851C33.9716 59.5357 33.2424 59.1282 33.2388 57.7678C33.2337 56.0396 34.4983 53.8452 35.9994 52.9781Z" fill="black"/>
<path d="M47.2615 35.0746C47.502 35.491 48.0342 35.6311 48.4473 35.3924L54.6092 31.8351C55.0245 31.5953 55.1669 31.0647 54.9271 30.6494C54.6864 30.2324 54.1532 30.09 53.7413 30.3315L47.5794 33.8888C47.1641 34.1287 47.0217 34.6593 47.2615 35.0746Z" fill="black"/>
</svg>
