<svg width="93" height="93" viewBox="0 0 93 93" fill="none" xmlns="http://www.w3.org/2000/svg">
<path d="M55.2545 11.3725L52.1489 13.1651C51.7336 13.405 51.5912 13.9356 51.8319 14.3509C52.0681 14.7628 52.5979 14.9093 53.0169 14.6687L56.1224 12.8761C56.5377 12.6362 56.6801 12.1056 56.4394 11.6903C56.2021 11.2742 55.6698 11.1326 55.2545 11.3725Z" fill="black"/>
<path d="M79.1648 11.108C76.3211 9.47246 72.0371 6.97012 69.0413 5.2309C68.0632 4.64014 66.7528 4.73592 65.4425 5.49111L58.2617 9.63664C57.8464 9.8765 57.704 10.4071 57.9447 10.8224C58.1821 11.2386 58.7127 11.3784 59.1297 11.1402L66.3104 6.99472C67.0427 6.57263 67.7309 6.46498 68.1564 6.7235L75.8762 11.214C75.7796 11.2631 75.683 11.3157 75.5846 11.3716C70.6071 14.2461 93.5951 0.971012 27.0119 39.4213L18.6051 34.5327L49.3926 16.7606C49.808 16.5207 49.9504 15.9901 49.7096 15.5748C49.4706 15.1569 48.9383 15.0171 48.5247 15.257L16.4403 33.7783C16.4394 33.7789 16.4391 33.78 16.4381 33.7806C16.4366 33.7814 16.4349 33.7809 16.4335 33.7817C14.0436 35.1611 12.1783 38.3889 12.1785 41.1378C12.1785 41.142 12.1753 41.1455 12.1753 41.1498L12.2838 75.8727C12.2838 77.3568 12.8313 78.4968 13.8298 79.0876L23.955 84.9672C23.9559 84.9678 23.9587 84.9674 23.9597 84.968C23.9637 84.9703 23.9662 84.9742 23.9703 84.9766C24.9772 85.5546 26.2502 85.4597 27.564 84.7019L39.1175 78.0316L40.7558 81.7566C40.8304 81.9253 40.9558 82.066 41.1152 82.1583C41.6013 82.4405 51.4766 88.1725 51.2522 88.0423C51.776 88.3461 52.3915 87.9711 52.5151 87.5371C56.0633 75.1478 54.8826 79.2705 58.4313 66.8798L76.5797 56.4029C78.9682 55.0238 80.8329 51.7937 80.8244 49.0484L80.7261 14.3238C80.7227 12.8269 80.1667 11.6844 79.1648 11.108ZM16.8912 35.5515L25.4264 40.5107C23.9681 41.8028 22.8301 43.8686 22.4666 45.6249L13.9373 40.6638C14.1271 38.8044 15.3703 36.6516 16.8912 35.5515ZM14.7062 77.589C14.1095 77.2364 14.0196 76.3617 14.0196 75.8701L13.9162 42.6635C14.1166 42.78 22.869 47.8659 22.3188 47.5462C22.3193 47.7401 22.4015 81.8248 22.4192 82.0677L14.7062 77.589ZM40.6304 77.1581L45.1632 74.5411L49.8196 85.2035L42.2306 80.7988L40.6304 77.1581ZM75.7118 54.8992L57.2599 65.5517C57.0649 65.6644 56.9209 65.8483 56.8598 66.0644L51.5152 84.7277L46.3736 72.9536C46.1788 72.5064 45.6374 72.3281 45.231 72.5061C45.0571 72.5815 41.2987 74.7674 26.6961 83.1983C25.9553 83.6255 25.2755 83.7238 24.8365 83.4729C24.4042 83.2229 24.1533 82.6016 24.1516 81.7676L24.0533 47.0438C24.0482 44.9326 25.5932 42.2538 27.4307 41.1856C27.4369 41.1822 27.4444 41.1838 27.4504 41.1803C32.4756 38.2782 9.27952 51.674 76.456 12.8795C77.9998 11.9898 78.9867 12.6018 78.9902 14.3289L79.0885 49.0535C79.0936 51.1614 77.5476 53.8389 75.7118 54.8992Z" fill="black"/>
<path d="M60.8437 37.5613L60.8248 31.0474C60.8231 30.7381 60.6586 30.4524 60.3891 30.2973C60.1213 30.1431 59.7907 30.1439 59.5229 30.2982L56.1936 32.2205C55.924 32.3764 55.7579 32.6638 55.7596 32.9748L55.7637 34.4544L51.2284 31.6806C51.0284 31.5577 50.7877 31.5229 50.5571 31.5814C50.33 31.6407 50.1351 31.7899 50.0198 31.995L37.2942 54.5568C37.1026 54.8975 37.162 55.3247 37.44 55.6002C37.6061 55.7655 37.8282 55.8511 38.0502 55.8511C38.1994 55.8511 38.3486 55.8129 38.4842 55.735L40.7837 54.4073L40.8218 67.8562C40.8235 68.1656 40.9879 68.4512 41.2575 68.6064C41.5252 68.7606 41.8559 68.7598 42.1237 68.6055C67.8485 53.7533 51.1038 63.4208 60.4654 58.0158C60.7349 57.8599 60.901 57.5725 60.8994 57.2615L60.8583 42.8174L64.0066 40.9997C64.271 40.8463 64.4372 40.5649 64.4405 40.2589C64.4439 39.953 64.2863 39.6673 64.0252 39.5071L60.8437 37.5613ZM47.6474 63.4118L47.6279 56.4478L54.0492 52.7405L54.0678 59.705L47.6474 63.4118ZM55.8011 58.7035L55.78 51.2368C55.7783 50.9275 55.6138 50.6418 55.3443 50.4867C55.0765 50.3325 54.7459 50.3333 54.4781 50.4876L46.3243 55.1959C46.0548 55.3519 45.8887 55.6392 45.8904 55.9502L45.9141 64.4134L42.5526 66.3535L42.517 53.4067L59.1262 43.8179L59.1618 56.7639L55.8011 58.7035ZM57.4972 33.4724L59.094 32.551L59.1042 36.4974L57.5022 35.5177L57.4972 33.4724ZM40.3658 52.6438L51.0894 33.6309C52.068 34.2294 62.0784 40.3517 61.8741 40.2267C39.3387 53.2367 75.8233 32.1728 40.3658 52.6438Z" fill="black"/>
<path d="M50.9131 38.1298C49.4993 38.9452 48.3941 40.8641 48.3975 42.4983C48.4046 44.4832 50.0651 45.4388 51.7946 44.4401C53.2083 43.623 54.3119 41.7092 54.3085 40.0826C54.305 38.0841 52.6503 37.1277 50.9131 38.1298ZM50.9267 42.9365C50.3924 43.2461 50.1367 43.1674 50.1333 42.4923C50.1299 41.4769 50.9012 40.1411 51.781 39.6334C52.3853 39.2854 52.5696 39.4707 52.5727 40.0877C52.5761 41.0972 51.8064 42.4288 50.9267 42.9365Z" fill="black"/>
</svg>
