<svg width="93" height="93" viewBox="0 0 93 93" fill="none" xmlns="http://www.w3.org/2000/svg">
<path d="M48.043 12.7869L51.4545 10.8171C51.8698 10.5772 52.0122 10.0467 51.7724 9.63134C51.5317 9.21602 51.0002 9.07363 50.5866 9.31349L47.1751 11.2833C46.7598 11.5231 46.6174 12.0537 46.8572 12.469C47.0977 12.8855 47.6299 13.0255 48.043 12.7869Z" fill="black"/>
<path d="M69.5273 10.174C69.2724 9.99344 65.4954 7.82535 61.0931 5.26374C60.0039 4.60941 58.5495 4.71621 57.1052 5.54938L53.3097 7.74123C52.8944 7.98109 52.752 8.51168 52.9919 8.927C53.2309 9.34231 53.7623 9.48301 54.1776 9.24484L57.9731 7.05299C58.8563 6.54359 59.6691 6.43256 60.2107 6.75888L66.0514 10.1475C65.6076 10.3469 56.4588 15.6474 35.2785 27.8721L28.6318 23.9961L44.7839 14.6694C45.1992 14.4295 45.3416 13.8989 45.1017 13.4836C44.8619 13.0666 44.3287 12.9242 43.916 13.1658C31.481 20.3572 45.0199 12.5078 26.3388 23.3342C23.6986 24.9217 21.6652 28.4917 21.6847 31.538L21.8229 79.3119C21.8229 80.9639 22.4289 82.2285 23.5316 82.876C28.075 85.518 32.1409 87.8799 31.9176 87.7513C33.1609 88.4672 34.6257 88.1682 35.8792 87.4436L66.5312 69.747C69.2231 68.1925 71.3242 64.5462 71.3158 61.4458L71.1801 13.6752C71.176 12.0548 70.5852 10.8208 69.5273 10.174ZM26.9519 25.0268L33.6985 28.961C31.9173 30.4788 30.6244 32.8096 30.21 34.9843L23.4506 31.155C23.5928 28.9272 25.0935 26.3082 26.9519 25.0268ZM24.4071 81.3775C23.8605 81.0563 23.5587 80.3223 23.5587 79.3094L23.4252 33.136L30.0644 36.8972L30.1524 67.8849L30.1936 84.1906C30.1961 84.3864 30.2063 84.5763 30.225 84.7602L24.4071 81.3775ZM65.6632 68.2434L35.0113 85.94C34.1365 86.4452 33.3246 86.5588 32.7838 86.2469C32.2464 85.9383 31.9371 85.1857 31.9345 84.183L31.8895 68.3193C31.8089 37.7779 31.9441 87.9368 31.804 36.3508C31.8253 33.8863 33.6173 30.8415 35.7156 29.6309C38.8496 27.8215 24.3642 36.1846 66.3616 11.9376C68.1074 10.9319 69.4387 11.4857 69.4443 13.6802L69.5799 61.4508C69.5867 63.9029 67.7932 67.0135 65.6632 68.2434Z" fill="black"/>
<path d="M66.1345 15.8967C65.8642 15.7416 65.5344 15.7441 65.2675 15.8975L35.1088 33.3094C34.8392 33.4654 34.674 33.7527 34.6748 34.0638L34.8087 74.9833C34.81 75.4593 35.1949 75.8487 35.6767 75.8487C35.8267 75.8487 35.9767 75.8097 36.1106 75.7326L66.2693 58.3199C66.5388 58.1639 66.7041 57.8766 66.7033 57.5655L66.5693 16.6468C66.5685 16.3366 66.4024 16.0509 66.1345 15.8967ZM36.5395 73.4806L36.4124 34.5613L64.8386 18.1495L64.9657 57.068L36.5395 73.4806Z" fill="black"/>
<path d="M50.2527 68.7511C48.8338 69.5698 47.7269 71.4845 47.732 73.1102C47.7373 75.0798 49.3908 76.0518 51.135 75.0469C52.5479 74.2315 53.6515 72.3194 53.6472 70.6929C53.6401 68.6933 51.9784 67.7559 50.2527 68.7511ZM50.2671 73.5433C49.7292 73.853 49.4695 73.777 49.4678 73.1051C49.4644 72.0965 50.2366 70.7649 51.1206 70.2547C51.6586 69.9461 51.9097 70.0195 51.9114 70.698C51.9139 71.7066 51.146 73.0364 50.2671 73.5433Z" fill="black"/>
<path d="M59.3829 45.4959C58.5158 45.4112 57.6157 45.2544 56.7088 45.0315C56.3104 44.9331 55.8824 45.006 55.4738 45.2408C55.0187 45.5044 54.6245 45.9469 54.3635 46.4902L53.3074 48.6913C51.33 48.0039 49.5179 46.975 47.9049 45.6248L49.2899 43.6075C49.9645 42.6167 49.9908 41.4504 49.3678 40.8478C48.7576 40.2291 48.1829 39.5544 47.621 38.7975C47.0491 37.9993 45.8319 37.9918 44.9257 39.0814L40.3377 44.6407C39.6986 45.4256 39.3545 46.647 39.9351 47.4666C44.1843 53.3829 50.9396 56.4772 55.8679 56.4772C56.8162 56.4772 57.6449 55.582 57.9793 54.6837L60.4907 47.9472C60.7432 47.2699 60.7153 46.6071 60.4118 46.1282C60.1813 45.7629 59.8024 45.5324 59.3829 45.4959ZM58.865 47.3403L56.3519 54.0777C56.2324 54.399 56.0137 54.6397 55.89 54.7422C49.8857 54.2091 44.8562 51.3426 41.3785 46.5173C41.3573 46.4283 41.4158 46.0655 41.6803 45.74L46.2631 40.1884C46.3106 40.1299 46.3555 40.0867 46.3937 40.0536C46.9522 40.7859 47.5311 41.4547 48.0736 41.9734C48.0905 42.0395 48.0693 42.3158 47.8574 42.6269L46.0368 45.2781C45.791 45.6358 45.847 46.1189 46.1674 46.4113C48.2965 48.3523 50.7672 49.7559 53.5117 50.5823C53.9244 50.7026 54.3618 50.5119 54.5449 50.1246L55.929 47.2403C56.0553 46.9775 56.2248 46.8114 56.2926 46.7165C57.1741 46.9334 58.0505 47.0928 58.9091 47.1911C58.9006 47.2335 58.8862 47.2826 58.865 47.3403Z" fill="black"/>
<path d="M53.6545 43.0651C53.8206 43.26 54.063 43.3702 54.3147 43.3702C54.6614 43.3702 54.9765 43.1636 55.1131 42.843L59.0044 33.7188C59.151 33.3747 59.0612 32.9763 58.7815 32.7288C58.5009 32.4796 58.0933 32.4398 57.772 32.6263L56.8753 33.1441L56.849 28.4807C56.8473 28.1714 56.6812 27.8866 56.4125 27.7332C56.1455 27.5789 55.8141 27.5797 55.5471 27.734L52.1059 29.7207C51.8355 29.8767 51.6703 30.1657 51.672 30.4776L51.7042 36.131L49.9531 37.1413C49.7301 37.2702 49.5759 37.4914 49.5318 37.7457C49.4877 37.9999 49.5589 38.2601 49.7268 38.4559L53.6545 43.0651ZM53.0086 37.382C53.279 37.2261 53.4443 36.9371 53.4426 36.6251L53.4104 30.9718L55.1216 29.9843L55.1479 34.6477C55.1496 34.9571 55.3157 35.2419 55.5844 35.3953C55.8319 35.5385 56.1345 35.5479 56.3888 35.4267L54.0664 40.8724L51.7237 38.1237L53.0086 37.382Z" fill="black"/>
</svg>
