<svg width="93" height="93" viewBox="0 0 93 93" fill="none" xmlns="http://www.w3.org/2000/svg">
<path d="M41.9315 13.4017L38.1631 15.5774C37.7478 15.8173 37.6054 16.3479 37.8461 16.7632C38.0824 17.1767 38.6133 17.3209 39.031 17.0811L42.7994 14.9053C43.2147 14.6654 43.3571 14.1349 43.1164 13.7195C42.8774 13.3017 42.3468 13.1627 41.9315 13.4017Z" fill="black"/>
<path d="M67.9725 12.0142L57.9998 5.96162C56.9726 5.38272 55.6639 5.48528 54.3146 6.2515L45.8184 11.1573C45.4031 11.3972 45.2607 11.9278 45.5014 12.3431C45.7387 12.7592 46.2693 12.8991 46.6863 12.6609L55.1774 7.75765C55.9623 7.31352 56.681 7.20926 57.1234 7.4593L64.6974 12.0574C64.2717 12.2578 63.7253 12.6051 52.0144 19.3539L38.0952 27.3834L36.3793 26.3441L29.8505 22.3828L34.9049 19.4636C35.3202 19.2237 35.4626 18.6932 35.2219 18.2778C34.9846 17.8608 34.4523 17.721 34.037 17.96L27.7134 21.6119C27.7131 21.6121 27.7137 21.6117 27.7134 21.6119C27.7124 21.6124 27.7104 21.6137 27.7095 21.6142L27.7056 21.6165C27.7049 21.6168 27.7047 21.6176 27.7041 21.618C25.253 23.0395 23.3382 26.3459 23.3371 29.1621C23.337 29.1689 23.332 29.1744 23.332 29.1811L23.4676 77.7027C23.4863 79.2411 24.0525 80.4065 25.0425 80.9752C38.6327 89.2273 34.0113 86.4512 35.0032 87.0224C35.0058 87.0239 35.0075 87.0263 35.01 87.0278C36.167 87.6927 37.5238 87.4155 38.6851 86.7447L65.2924 71.3831C67.7538 69.9609 69.6778 66.6316 69.6694 63.8015L69.5321 15.2825C69.5267 13.649 68.8416 12.5414 67.9725 12.0142ZM28.1548 23.3921L34.4798 27.2224L36.5221 28.4616C34.9927 29.795 33.8111 31.9156 33.4318 33.7632C33.2581 33.6578 24.5494 28.3757 25.0934 28.7057C25.2784 26.7781 26.5706 24.5371 28.1548 23.3921ZM25.9256 79.4809C25.4713 79.2199 25.2137 78.5808 25.2035 77.69L25.073 30.7246C25.2467 30.8301 33.795 36.0189 33.2793 35.7058L33.4132 83.7307C33.4132 83.8324 33.4166 83.9324 33.4217 84.0316L25.9256 79.4809ZM64.4245 69.8795L37.8172 85.2411C36.1164 86.2183 35.1557 85.4396 35.1524 83.729L35.0151 35.21C35.01 33.0258 36.6153 30.2491 38.5224 29.1481L52.54 21.0551C58.54 17.6 64.757 13.9956 65.3038 13.708C66.8788 12.8958 67.7895 13.5692 67.7962 15.2876L67.9335 63.8066C67.9386 65.9967 66.3333 68.7777 64.4245 69.8795Z" fill="black"/>
<path d="M65.3787 20.4163C65.1109 20.262 64.7803 20.2629 64.5125 20.4171L37.4594 36.0372C37.1898 36.1932 37.0237 36.4805 37.0254 36.7916L37.1322 74.7667C37.1339 75.076 37.2983 75.3617 37.5679 75.5168C37.8356 75.671 38.1662 75.6702 38.4341 75.5159L65.4889 59.8958C65.7584 59.7399 65.9246 59.4526 65.9229 59.1415L65.8144 21.1664C65.8127 20.857 65.6483 20.5714 65.3787 20.4163ZM38.8647 73.2631L38.7629 37.2891L64.0836 22.67L64.1853 58.644L38.8647 73.2631Z" fill="black"/>
<path d="M47.8339 28.0767C47.9814 28.0767 48.1305 28.0394 48.2678 27.9606L55.4401 23.8185C55.8554 23.5786 55.9978 23.048 55.7571 22.6327C55.5181 22.2157 54.9858 22.0742 54.5722 22.3149L47.3999 26.457C46.9846 26.6969 46.8422 27.2275 47.0829 27.6428C47.2423 27.9216 47.5355 28.0767 47.8339 28.0767Z" fill="black"/>
<path d="M52.0715 68.7234C50.6052 69.5702 49.461 71.5501 49.4644 73.2317C49.4679 75.2715 51.1739 76.2433 52.953 75.2176C54.4092 74.3768 55.5466 72.4011 55.5432 70.7195C55.5397 68.6828 53.8443 67.7018 52.0715 68.7234ZM52.0851 73.714C51.5039 74.0479 51.2034 73.9607 51.2002 73.2266C51.1968 72.1654 52.0105 70.7635 52.9395 70.227C53.5105 69.8939 53.8042 69.9922 53.8074 70.7246C53.8108 71.7857 53.0056 73.1834 52.0851 73.714Z" fill="black"/>
<path d="M28.509 38.0502H28.5057C28.0276 38.0519 27.6394 38.4418 27.6411 38.9207L27.6513 42.1492C27.653 42.628 28.0412 43.0145 28.5192 43.0145H28.5226C29.0006 43.0128 29.3888 42.623 29.3871 42.1441L29.377 38.9156C29.3753 38.4367 28.9871 38.0502 28.509 38.0502Z" fill="black"/>
<path d="M28.509 45.6836H28.5057C28.0276 45.6853 27.6394 46.0752 27.6411 46.554L27.6513 49.7833C27.653 50.2622 28.0412 50.6487 28.5192 50.6487H28.5226C29.0006 50.647 29.3888 50.2571 29.3871 49.7782L29.377 46.549C29.3753 46.0701 28.9871 45.6836 28.509 45.6836Z" fill="black"/>
<path d="M57.4792 14.4137C59.1658 13.4358 59.1759 11.5495 57.464 10.5598C56.0807 9.75964 53.9109 9.75964 52.5344 10.5615C50.8385 11.5466 50.8444 13.4313 52.5497 14.4154C53.9533 15.2272 56.0747 15.2316 57.4792 14.4137ZM53.4058 12.0617C54.2549 11.5692 55.7423 11.5704 56.5961 12.0634C57.15 12.3834 57.1215 12.6144 56.6079 12.9135C55.7468 13.4136 54.2856 13.4136 53.4176 12.9118C52.8483 12.5829 52.9053 12.3532 53.4058 12.0617Z" fill="black"/>
<path d="M15.2428 75.6016C11.886 73.6896 11.4264 68.897 11.9661 65.0712C12.4221 61.836 13.6443 58.4244 15.5022 55.2053C15.7429 54.79 15.6005 54.2594 15.1852 54.0196C14.7716 53.7822 14.2393 53.9221 14.0003 54.3374C12.0322 57.7472 10.7337 61.3749 10.2472 64.8288C9.59637 69.4429 10.3394 74.8047 14.3817 77.1102C14.8052 77.3482 15.3294 77.1989 15.5666 76.7856C15.8039 76.3695 15.6581 75.8389 15.2428 75.6016Z" fill="black"/>
<path d="M11.5844 81.9338C3.43698 77.3064 6.48725 62.3409 11.8218 53.1076C12.0625 52.6931 11.9201 52.1617 11.5048 51.9218C11.0962 51.6836 10.5606 51.8235 10.3199 52.2396C4.59053 62.1498 1.53658 78.2226 10.7267 83.4425C11.1406 83.6779 11.6723 83.5368 11.9099 83.1171C12.1472 82.7001 12.0015 82.1703 11.5844 81.9338Z" fill="black"/>
<path d="M18.8973 69.2684C17.8853 68.6912 17.4174 67.6283 17.2021 66.8375C16.5071 64.2736 17.2666 60.6205 19.1821 57.3022C19.4228 56.8869 19.2804 56.3563 18.8651 56.1165C18.4498 55.88 17.9192 56.0182 17.6802 56.4343C15.5087 60.1942 14.7035 64.2524 15.5273 67.2918C15.9579 68.8811 16.8258 70.0863 18.0395 70.7771C18.4523 71.0118 18.9816 70.8727 19.2228 70.4525C19.4601 70.0355 19.3143 69.5057 18.8973 69.2684Z" fill="black"/>
<path d="M78.6164 18.5169C78.1994 18.2795 77.6688 18.4245 77.4332 18.8415C77.1958 19.2585 77.3416 19.7882 77.7586 20.0256C83.516 23.3052 81.1846 34.0314 77.4993 40.4218C77.2586 40.8371 77.401 41.3677 77.8163 41.6076C78.2336 41.8471 78.7638 41.7038 79.0012 41.2897C83.2827 33.8728 85.3049 22.3265 78.6164 18.5169Z" fill="black"/>
<path d="M82.2726 12.1837C81.8556 11.9464 81.325 12.0913 81.0894 12.5092C80.8521 12.9262 80.9979 13.456 81.4149 13.6924C89.564 18.3241 86.5165 33.2824 81.1776 42.5179C80.9369 42.9332 81.0792 43.4638 81.4946 43.7045C81.9019 43.9412 82.4367 43.807 82.6795 43.3866C88.4088 33.4775 91.4636 17.4006 82.2726 12.1837Z" fill="black"/>
<path d="M74.9634 24.8492C74.5497 24.6144 74.0175 24.7568 73.7784 25.1738C73.5411 25.5899 73.6869 26.1197 74.1022 26.3578C77.4156 28.2445 75.943 34.6425 73.8191 38.324C73.5784 38.7393 73.7208 39.2699 74.1361 39.5098C74.5551 39.7503 75.085 39.6038 75.321 39.1919C78.0227 34.5142 79.2484 27.2977 74.9634 24.8492Z" fill="black"/>
</svg>
