<svg width="93" height="93" viewBox="0 0 93 93" fill="none" xmlns="http://www.w3.org/2000/svg">
<path d="M15.4715 60.7488L23.3591 56.1948C23.7744 55.9549 23.9168 55.4243 23.6761 55.009C23.437 54.592 22.9048 54.453 22.4911 54.6912L14.6035 59.2452C14.1882 59.4851 14.0458 60.0157 14.2865 60.431C14.5228 60.8445 15.0537 60.9886 15.4715 60.7488Z" fill="black"/>
<path d="M10.9368 69.4255L23.359 62.2541C23.7743 62.0143 23.9167 61.4837 23.676 61.0684C23.4369 60.6522 22.9047 60.5124 22.491 60.7505L10.0689 67.9219C9.65355 68.1618 9.51116 68.6924 9.75187 69.1077C9.98815 69.5212 10.5191 69.6653 10.9368 69.4255Z" fill="black"/>
<path d="M23.6762 67.1277C23.4372 66.7107 22.9049 66.5692 22.4912 66.8099L5.27346 76.7512C4.85814 76.991 4.71575 77.5216 4.95646 77.937C5.19274 78.3504 5.72366 78.4946 6.14138 78.2548L23.3592 68.3135C23.7745 68.0736 23.9169 67.543 23.6762 67.1277Z" fill="black"/>
<path d="M23.6759 73.1879C23.4369 72.7709 22.9046 72.6319 22.491 72.8701L15.2188 77.0682C14.8035 77.308 14.6611 77.8386 14.9018 78.2539C15.138 78.6674 15.669 78.8116 16.0867 78.5718L23.359 74.3737C23.7743 74.1338 23.9167 73.6033 23.6759 73.1879Z" fill="black"/>
<path d="M67.864 16.2211L71.2595 14.2615C71.6748 14.0216 71.8172 13.491 71.5764 13.0757C71.3391 12.6604 70.8068 12.5188 70.3915 12.7579L66.9961 14.7175C66.5808 14.9573 66.4384 15.4879 66.6791 15.9032C66.9165 16.3173 67.4467 16.4607 67.864 16.2211Z" fill="black"/>
<path d="M88.0365 11.8484C88.0356 11.6742 87.931 11.2903 87.6043 11.1008L87.6022 11.0997L87.6009 11.0983L87.5991 11.0978L80.8914 7.19941C80.6253 7.04345 80.2913 7.04345 80.0218 7.19771L73.6005 10.905C73.1852 11.1449 73.0428 11.6755 73.2835 12.0908C73.5225 12.507 74.0531 12.6451 74.4684 12.4087L80.454 8.95221L85.4374 11.8481L35.5605 40.6447L30.5772 37.7488L64.689 18.0544C65.1043 17.8145 65.2467 17.2839 65.006 16.8686C64.767 16.4516 64.2347 16.3109 63.8211 16.5508L28.4125 36.9945C28.1411 37.1516 27.9785 37.4406 27.9785 37.7454C27.9785 38.0097 28.1012 80.9251 28.1023 81.1518C28.104 81.4604 28.2684 81.7451 28.5345 81.8994C28.7103 82.0015 35.4243 85.9024 35.2485 85.8003L35.2508 85.8025C35.5185 85.9567 35.8492 85.9559 36.117 85.8017L87.7263 56.0058C87.9958 55.8498 88.162 55.5625 88.1603 55.2514L88.0365 11.8484ZM29.8364 80.6492L29.7195 39.257C29.9143 39.3703 35.0071 42.3303 34.6927 42.1476C34.7204 51.8979 34.7817 73.5302 34.81 83.5395L29.8364 80.6492ZM36.5467 83.5484C36.5362 79.8356 36.4443 47.5478 36.4289 42.148C48.1719 35.3683 74.5645 20.1307 86.3058 13.352L86.4227 54.7539L36.5467 83.5484Z" fill="black"/>
<path d="M83.329 18.5223C83.0611 18.368 82.7306 18.3689 82.4628 18.5231L39.4242 43.37C39.1547 43.526 38.9886 43.8133 38.9902 44.1243L39.0869 77.6293C39.0886 77.9387 39.253 78.2243 39.5225 78.3794C39.7903 78.5336 40.1209 78.5328 40.3888 78.3785L83.4256 53.5317C83.6951 53.3757 83.8613 53.0884 83.8596 52.7773L83.7646 19.2724C83.7629 18.963 83.5985 18.6774 83.329 18.5223ZM40.8176 76.1257L40.7278 44.6219L82.0339 20.776L82.122 52.2798L40.8176 76.1257Z" fill="black"/>
<path d="M78.9995 44.0108L61.7818 53.9512C61.3664 54.1911 61.224 54.7217 61.4648 55.137C61.701 55.5505 62.232 55.6946 62.6497 55.4548L79.8675 45.5144C80.2828 45.2745 80.4252 44.7439 80.1845 44.3286C79.9455 43.9108 79.4132 43.7709 78.9995 44.0108Z" fill="black"/>
<path d="M78.9995 48.7962L61.7818 58.7367C61.3664 58.9765 61.224 59.5071 61.4648 59.9224C61.701 60.3359 62.232 60.4801 62.6497 60.2403L79.8675 50.2998C80.2828 50.06 80.4252 49.5294 80.1845 49.1141C79.9455 48.6962 79.4132 48.5572 78.9995 48.7962Z" fill="black"/>
<path d="M69.154 44.9609C69.3032 44.9609 69.4541 44.9219 69.588 44.8448L79.0284 39.3948C79.2979 39.2389 79.4623 38.9515 79.4623 38.6405L79.4301 26.8226C79.4265 26.1574 78.7069 25.7401 78.1282 26.0734L68.6879 31.5233C68.4183 31.6793 68.2539 31.9666 68.2539 32.2777L68.2861 44.0955C68.2888 44.5796 68.6821 44.9609 69.154 44.9609ZM77.6977 28.3262L77.7248 38.143L70.0186 42.5919L69.9915 32.7752L77.6977 28.3262Z" fill="black"/>
</svg>
