<svg width="93" height="92" viewBox="0 0 93 92" fill="none" xmlns="http://www.w3.org/2000/svg">
<path d="M74.7906 37.0823C74.3155 36.9829 73.8447 37.293 73.7479 37.7725C73.5389 38.7962 73.3238 39.8026 73.0992 40.7935C72.9912 41.2704 73.2909 41.7438 73.7669 41.8517C74.242 41.958 74.7164 41.6623 74.8252 41.184C75.0515 40.181 75.2701 39.1625 75.4809 38.125C75.5785 37.6464 75.2701 37.179 74.7906 37.0823Z" fill="white"/>
<path d="M15.7548 38.5447C17.3823 43.0473 20.8085 47.1274 25.4043 50.0335C28.578 52.0311 32.2736 53.4944 36.6485 54.5206C39.0817 60.4265 41.0814 66.2573 42.2529 72.4853C40.7506 72.4063 39.2538 72.3239 37.7466 72.2215C37.2697 72.1981 36.8378 72.5575 36.8041 73.0447C36.7713 73.532 37.1393 73.9535 37.6274 73.9872C39.2744 74.0986 40.9098 74.1908 42.554 74.2755C43.278 79.0694 43.3166 83.4953 42.6258 87.4172C42.5679 87.7428 42.6966 88.0737 42.9601 88.2741C43.2286 88.4791 43.5842 88.509 43.875 88.3709C51.0229 84.9883 57.1395 79.6638 62.066 72.5574C66.4585 71.1426 70.1273 69.0145 72.9472 66.2106C74.7432 64.4474 76.8986 61.6199 76.966 58.1626C77.023 55.0946 75.3095 51.9429 72.5232 49.9592C73.009 48.3705 73.4844 46.6906 73.9346 44.9211C74.0556 44.4468 73.7696 43.9656 73.2954 43.8455C72.8245 43.7185 72.3399 44.0097 72.2207 44.4839C69.8861 53.6455 66.2892 63.2415 60.9549 71.053C59.3277 71.5301 57.6107 71.9129 55.8337 72.1731C51.6431 72.7793 47.4223 72.7243 44.0728 72.5807C43.5082 69.4631 42.668 66.184 41.5358 62.6441C42.4476 62.9055 43.6468 63.1403 45.0792 63.1403C46.9081 63.1403 49.0911 62.7602 51.4504 61.575C51.8866 61.3556 52.0629 60.8243 51.8434 60.3871C51.6249 59.9509 51.0962 59.7764 50.6556 59.9941C45.8207 62.4202 41.893 61.0008 40.8299 60.5238C40.2176 58.7578 39.5051 56.8917 38.7361 54.9788C42.7932 55.781 46.7154 56.142 50.6064 56.142C54.5543 56.142 58.4962 55.7611 62.4018 55C62.8813 54.9067 63.194 54.4419 63.1007 53.9624C63.0074 53.4821 62.54 53.1651 62.0632 53.2636C53.9781 54.8396 45.6496 54.7189 37.9363 53.0063C37.2692 51.4051 36.5339 49.7401 35.7604 48.0434C37.6754 48.7362 40.6897 49.5463 44.4279 49.5463C47.9326 49.5463 52.0482 48.8327 56.4194 46.6367C56.8557 46.4173 57.0319 45.886 56.8125 45.4489C56.5939 45.0126 56.067 44.8381 55.6246 45.0558C45.3159 50.2349 36.3424 46.4729 34.6735 45.6804C33.1423 42.4197 31.6236 39.3504 30.1539 36.3859C29.0149 34.0895 27.9569 31.9527 27.0191 29.9788C27.9816 30.7715 29.0548 31.5176 30.2447 32.1987C36.4623 35.7896 44.5702 37.2093 51.8642 36.9345C58.6405 36.6727 65.0073 34.9899 69.7889 32.1978C72.1172 30.8463 73.9796 29.2839 75.3668 27.561L74.3959 34.424C74.3286 34.9 74.6551 35.3432 75.1302 35.4201C75.5987 35.4967 76.0534 35.1855 76.1418 34.7074C76.7294 31.5199 77.2794 27.9511 78.1737 20.2469C78.153 15.6743 75.1302 11.4258 69.6619 8.28468C58.732 1.96452 40.9948 1.96365 30.1185 8.28727C23.3516 12.2211 20.4677 17.819 22.2587 23.3671C21.5268 23.8392 20.7939 24.3195 20.0837 24.8557C15.296 28.5071 13.5847 32.4649 15.7548 38.5447ZM75.1968 58.129C75.1415 60.9884 73.2686 63.4159 71.7041 64.9519C69.5627 67.0808 66.87 68.7813 63.7222 70.0634C66.9541 64.8958 69.7106 58.7485 71.9533 51.7658C74.0035 53.4344 75.2401 55.8177 75.1968 58.129ZM56.0886 73.9242C57.1969 73.7619 58.2785 73.5468 59.3402 73.3014C55.1907 78.7926 50.2576 83.0666 44.6222 86.0211C45.0628 82.4549 44.9557 78.5364 44.3521 74.3596C48.2613 74.5158 52.1639 74.4901 56.0886 73.9242ZM31.0083 9.81634C36.2011 6.79707 43.0327 5.28787 49.8721 5.28787C56.7114 5.28787 63.5585 6.79794 68.7781 9.8172L68.7807 9.81893C73.6798 12.6326 76.3872 16.3387 76.414 20.1587C76.1643 20.7209 77.0079 25.9621 68.8991 30.6687C64.3611 33.3183 58.2871 34.9156 51.7968 35.167C44.0944 35.4469 36.576 33.8124 31.1258 30.6644C28.2196 29.0016 25.3058 26.5192 24.1335 23.3966C22.2218 18.507 24.7918 13.4308 31.0083 9.81634ZM22.9191 25.0564C24.2158 28.3855 26.2314 32.458 28.5687 37.172C30.8365 41.7471 33.4325 46.9665 35.7808 52.4665C32.1592 51.5079 29.0375 50.2293 26.3477 48.5373C22.0844 45.8411 18.9131 42.0789 17.4195 37.9469C15.5223 32.6306 16.998 29.4346 21.1532 26.2647C21.729 25.8302 22.326 25.4481 22.9191 25.0564Z" fill="white"/>
<path d="M35.1653 27.6175C39.1323 29.8956 44.4089 31.15 50.025 31.15C55.6609 31.15 60.9203 29.8947 64.8319 27.6175C67.6559 25.997 70.3176 23.5393 70.3176 20.2866C70.3176 17.6112 68.2857 14.9072 64.7429 12.8676C60.776 10.5896 55.4994 9.33521 49.8833 9.33521C44.2465 9.33521 38.9863 10.5904 35.072 12.8702C31.537 14.9254 29.5898 17.5343 29.5898 20.2158C29.5898 23.4351 32.3907 26.0162 35.1653 27.6175ZM50.025 29.3807C44.7138 29.3807 39.7491 28.2093 36.0482 26.0842C34.5296 25.2072 32.8693 23.8847 31.9928 22.3658C32.8586 20.8423 34.4627 19.6096 35.9618 18.7334C39.5919 16.6203 44.5359 15.4567 49.8833 15.4567C55.2135 15.4567 60.1782 16.6212 63.8592 18.7342C65.4447 19.6512 67.012 20.8818 67.9037 22.4825C67.0499 23.9604 65.427 25.2369 63.9464 26.0859C60.2965 28.211 55.3525 29.3807 50.025 29.3807ZM49.8833 11.1044C55.1944 11.1044 60.1592 12.2759 63.8609 14.401C66.0297 15.6504 68.5398 17.784 68.5473 20.2759C67.5685 19.1073 66.0572 17.9615 64.7429 17.2017C60.795 14.9358 55.5175 13.6874 49.8833 13.6874C44.2283 13.6874 38.9681 14.9366 35.0712 17.2052C33.7161 17.995 32.3672 19.0094 31.3618 20.1889C31.3776 17.7379 33.8276 15.6402 35.9618 14.3993C39.6109 12.2741 44.5549 11.1044 49.8833 11.1044Z" fill="white"/>
</svg>
