<svg width="93" height="92" viewBox="0 0 93 92" fill="none" xmlns="http://www.w3.org/2000/svg">
<path d="M15.5367 76.1512C16.024 76.1512 16.4196 75.7564 16.4213 75.2692L16.4282 72.5048C16.43 72.0158 16.0343 71.6184 15.5454 71.6176C15.0581 71.6176 14.6607 72.0123 14.659 72.4996L14.6521 75.264C14.6504 75.753 15.0478 76.1503 15.5367 76.1512Z" fill="white"/>
<path d="M75.8146 46.6559L75.8115 46.6514C49.5659 20.9441 78.2259 49.0135 51.9614 23.3076C51.7844 23.246 47.2895 17.8983 38.2464 23.1288C37.3752 23.6318 36.5264 24.2239 35.6926 24.8592L27.5903 18.9185C27.5925 15.6596 27.6374 7.7867 27.5911 7.48655C27.5399 6.35497 26.8292 5.32825 25.5491 4.58898C23.1095 3.17999 19.2894 3.18258 16.8567 4.59676C15.5419 5.36043 14.8197 6.42905 14.8214 7.60566C14.8239 9.2689 14.6322 69.288 14.6314 69.4657C14.6296 69.9538 15.0253 70.3512 15.5125 70.3529C16.0464 70.3036 16.3989 69.9598 16.4006 69.4709L16.5872 10.4375C17.2183 10.8474 17.9224 11.1943 19.0514 11.4484C20.7811 11.843 22.7145 11.7486 24.325 11.179C24.9056 10.9772 25.3045 10.8018 25.8394 10.4504L25.8226 17.6225L22.2819 15.0264C21.8914 14.7396 21.3334 14.8225 21.0448 15.2173C20.7563 15.6113 20.8409 16.1641 21.2349 16.4535L25.8175 19.8136L25.7772 37.1254C23.4402 41.7389 21.8058 47.4756 22.2443 52.631L20.3814 52.9526C19.8993 53.0355 19.5762 53.4934 19.6591 53.9745C19.7427 54.4591 20.2035 54.7784 20.682 54.6959L22.4856 54.3846C23.0409 57.334 24.3057 59.437 25.6973 60.7167C25.7 60.7192 25.7019 60.7224 25.7046 60.7249L25.6545 84.3832C25.6545 84.8903 25.2191 85.438 24.4658 85.8838C22.6171 86.9602 19.4674 86.9602 17.5876 85.882C16.8325 85.4449 16.4006 84.8912 16.4006 84.3676L16.4179 78.5822C16.4196 78.0941 16.0239 77.6967 15.5367 77.695C15.0685 77.638 14.6504 78.0872 14.6486 78.577L14.6314 84.3651C14.6314 85.5391 15.3847 86.65 16.7029 87.4146C17.9245 88.1152 19.4829 88.4659 21.0396 88.4659C22.5981 88.4659 24.1548 88.1134 25.3608 87.4094C26.6911 86.6241 27.4237 85.5494 27.4237 84.3849L27.4721 61.9361C28.6702 62.5688 23.8208 61.086 60.7575 71.5891C62.7328 72.1351 64.4692 72.8993 68.2231 70.733C73.8349 67.4926 78.3859 59.6088 78.3686 53.1573C78.361 50.2647 77.461 47.9946 75.8146 46.6559ZM17.7448 6.12583C19.6179 5.03924 22.7822 5.03476 24.6645 6.12151C25.4109 6.55259 25.8411 7.09511 25.8411 7.61084C25.8448 8.64316 24.3272 9.35936 23.331 9.63524C22.0858 9.97378 20.6295 10.0029 19.3552 9.70425C18.2623 9.44399 16.5958 8.70412 16.5958 7.59789C16.5958 7.59421 16.5938 7.59119 16.5938 7.58752C16.6021 7.08085 17.0178 6.54913 17.7448 6.12583ZM37.1072 63.017C36.7145 61.6745 36.4828 60.188 36.4703 58.5505C36.4392 48.6254 43.4556 36.493 52.1135 31.505C53.4862 30.7152 54.8148 30.1566 56.0766 29.8146L60.957 34.5903C51.0787 39.5995 42.8594 53.7636 43.5859 64.8613L37.1072 63.017ZM32.6013 61.7342C31.7923 60.053 31.3734 57.9836 31.3578 55.5779C31.3267 45.6502 38.3311 33.51 46.9699 28.5159C48.9509 27.3778 50.9162 26.6832 52.6833 26.4939C52.8609 26.6678 54.8067 28.5723 54.6291 28.3984C53.5251 28.7803 52.3865 29.3064 51.2306 29.9716C42.0821 35.243 34.6682 48.0656 34.7011 58.56C34.7114 59.9399 34.8494 61.2412 35.1077 62.4478L32.6013 61.7342ZM45.3631 65.3614C44.2874 54.8962 52.5236 40.4396 62.2735 35.8786L64.7432 38.2953C55.8989 43.6378 48.7616 56.0151 48.6182 66.29L45.3631 65.3614ZM27.5851 21.1095L34.2754 26.015C31.7398 28.2232 29.4483 30.9783 27.5543 34.0181L27.5851 21.1095ZM27.4479 37.7431C27.4544 37.7304 27.452 37.7151 27.4578 37.7022C30.2481 32.2439 34.4419 27.3682 39.1311 24.6604C47.3663 19.8998 50.9457 24.9013 51.1236 24.9676C49.5048 25.3206 47.8197 25.9876 46.087 26.9825C36.9558 32.2609 29.5558 45.0912 29.5886 55.5857C29.601 57.651 29.8987 59.5003 30.4559 61.1236L28.837 60.6627C21.3464 57.5551 23.6991 45.0386 27.4479 37.7431ZM50.392 66.7989C50.1651 57.3059 57.1302 44.7184 66.0082 39.6021L66.0535 39.5775L71.9741 45.3711C70.7254 45.3912 68.8903 45.8898 67.2712 46.8276C61.6611 50.0663 57.1102 57.951 57.1257 64.4059C57.1376 66.3896 57.5779 67.9122 58.157 69.0022L58.1606 69.0104L50.392 66.7989ZM67.3385 69.2005C65.0147 70.5436 62.879 70.7871 61.3176 69.8932C61.3123 69.8902 61.3078 69.8864 61.3025 69.8833C59.4859 68.8305 58.904 66.4992 58.8984 64.399C58.8811 58.5134 63.0364 51.3181 68.1592 48.361C69.9794 47.3095 72.3139 46.6362 74.1375 47.6563C75.9949 48.6811 76.5938 51.0386 76.5993 53.1625C76.6166 59.0481 72.4614 66.2434 67.3385 69.2005Z" fill="white"/>
</svg>
