<svg width="93" height="92" viewBox="0 0 93 92" fill="none" xmlns="http://www.w3.org/2000/svg">
<rect x="0.5" width="92" height="92" rx="46" fill="black"/>
<path d="M24.8061 62.1723C25.0095 62.2923 25.2251 62.4122 25.4296 62.5139C32.5571 66.2764 43.4692 66.124 50.2722 62.174L64.1733 54.0908C64.348 53.9896 64.4541 53.8045 64.4552 53.6033C64.4591 52.313 64.4785 45.8469 64.4785 46.0491C64.4785 45.918 64.4042 45.6806 64.1954 45.5604L58.9308 42.5263C58.7551 42.4251 58.5373 42.4257 58.3637 42.5268C39.3121 53.604 45.883 49.7835 44.4615 50.61C40.6952 52.7952 34.5953 52.812 30.7615 50.6778L44.4637 42.7137C44.6373 42.6131 44.7445 42.4273 44.7456 42.2261L44.7688 34.6753C44.7688 34.5275 44.6511 34.2781 44.4792 34.1789C44.3645 34.1125 38.8817 30.9422 39.2223 31.1392C39.1077 31.0715 38.8238 31.041 38.653 31.1392L32.3271 34.8173C32.0562 34.9738 31.9633 35.3203 32.1203 35.5907C32.2762 35.8621 32.6244 35.9527 32.8931 35.7979L34.8559 34.6568L38.9863 37.0411L30.0187 42.2482C26.1499 44.349 25.51 48.4462 29.3294 51.1258C29.2139 51.2093 25.5211 53.8779 25.6526 53.7829C22.9835 52.3263 20.4989 49.9482 20.4856 46.9202C20.4746 44.3985 22.1926 42.0122 25.3212 40.2002L28.7506 38.208C29.0215 38.051 29.1133 37.705 28.9563 37.4347C28.7982 37.1627 28.4499 37.0732 28.1824 37.2296L24.753 39.2213C21.2612 41.2433 19.3451 43.9763 19.3541 46.9292L19.3535 46.9319L19.3314 54.4899C19.3557 57.4141 21.3015 60.1436 24.8061 62.1723ZM49.704 61.195C43.2989 64.9143 33.09 65.0968 26.2599 61.6564V55.351C32.8765 58.4607 41.9837 58.4068 48.4462 55.5465C49.7826 54.9549 63.1597 47.1473 63.3431 47.0384L63.3243 53.2755L49.704 61.195ZM62.7837 46.0535L59.8298 47.7764L55.7009 45.3826L58.6489 43.6705L62.7837 46.0535ZM45.0298 51.589L54.5728 46.0375L58.6974 48.4288C50.5961 53.051 50.0431 53.5951 48.0323 54.4954C41.7514 57.3065 33.1365 57.2152 27.0355 54.4674C26.9547 54.4311 26.8776 54.3906 26.7976 54.3533L27.6429 53.7442C27.6457 53.7422 27.6471 53.7392 27.6499 53.7371L27.655 53.7354C28.4066 53.1916 30.5098 51.6701 30.3736 51.7686C34.5282 53.9802 41.0111 53.9205 45.0298 51.589ZM35.9875 34.0025L38.9368 32.288C39.0501 32.3537 43.3319 34.8322 43.0602 34.6749C42.9456 34.7415 39.9224 36.4976 40.115 36.3857L35.9875 34.0025ZM30.5737 43.2454C31.8861 42.4824 25.777 46.0342 43.6335 35.6525L43.6147 41.8983C43.4132 42.0154 29.837 49.9049 29.6948 49.9909C27.2539 48.0957 27.0774 45.5049 30.5737 43.2454ZM20.4746 50.662C21.3071 52.0003 22.9814 53.6169 25.1278 54.7859V61.036C22.1452 59.2343 20.4839 56.9177 20.4635 54.4866L20.4746 50.662Z" fill="white"/>
<path d="M30.7738 35.7233L29.6528 36.3745C29.3819 36.5315 29.2902 36.8775 29.4471 37.1478C29.602 37.4151 29.9471 37.5119 30.221 37.3529L31.342 36.7017C31.6129 36.5448 31.7047 36.1987 31.5477 35.9284C31.3896 35.6559 31.0413 35.5675 30.7738 35.7233Z" fill="white"/>
<path d="M54.3827 27.2305C54.3296 26.9226 54.0377 26.7154 53.7282 26.7695L44.592 28.3565C44.3642 28.3963 44.1829 28.5716 44.1354 28.7988C44.0879 29.0259 44.184 29.2592 44.3775 29.3869L46.3885 30.7119L43.2653 31.5726C42.9635 31.6555 42.7866 31.9672 42.8696 32.2685C42.9521 32.566 43.2595 32.747 43.566 32.6637L47.892 31.472C48.1065 31.4128 48.2657 31.2343 48.3011 31.0148C48.3354 30.7954 48.2392 30.5759 48.0534 30.4538L46.1928 29.2277L53.9228 27.885C54.2301 27.8314 54.4368 27.5384 54.3827 27.2305Z" fill="white"/>
<path d="M73.66 38.3606C73.6069 38.0527 73.3173 37.846 73.0055 37.8996L63.8693 39.486C63.6416 39.5258 63.4603 39.7011 63.4127 39.9282C63.3652 40.1554 63.4614 40.3887 63.6549 40.5164L65.6658 41.8419L62.5427 42.7026C62.2409 42.7855 62.064 43.0973 62.1469 43.3985C62.2295 43.696 62.5368 43.8771 62.8434 43.7938L67.1694 42.602C67.3839 42.5434 67.543 42.3643 67.5784 42.1449C67.6127 41.9254 67.5165 41.706 67.3308 41.5838L65.4702 40.3572L73.2001 39.0151C73.5075 38.9615 73.7142 38.6685 73.66 38.3606Z" fill="white"/>
</svg>
