<svg width="93" height="92" viewBox="0 0 93 92" fill="none" xmlns="http://www.w3.org/2000/svg">
<path d="M7.30794 60.72C7.30794 61.088 7.49194 61.272 7.67594 61.456L10.9879 63.48C11.3559 63.664 11.9079 63.664 12.2759 63.112C12.4599 62.744 12.4599 62.192 11.9079 61.824L8.96394 60.168V34.592L27.9159 45.632C28.0999 80.04 27.9159 68.816 27.9159 71.208L19.6359 66.24C19.2679 66.056 18.7159 66.056 18.3479 66.608C18.1639 66.976 18.1639 67.528 18.7159 67.896C19.2679 68.264 28.8359 73.784 28.4679 73.6C28.8359 73.784 29.0199 73.784 29.3879 73.6L35.8279 69.92V79.856C35.8279 81.512 36.3799 82.8 37.4839 83.352C52.2039 92.184 47.2359 89.24 48.1559 89.976C49.4439 90.712 50.9159 90.344 52.0199 89.608L80.7239 73.048C83.2999 71.576 85.5079 67.896 85.5079 64.952L85.6919 12.328C85.6919 10.672 85.1399 9.568 84.0359 8.832C83.8519 8.648 77.9639 5.152 73.1799 2.208C72.0759 1.656 70.6039 1.656 69.1319 2.576L40.4279 19.136C39.5079 19.688 38.5879 20.608 37.8519 21.528L32.3319 18.4C31.9639 18.216 31.7799 18.216 31.4119 18.4L7.49194 32.2C7.12394 32.384 6.93994 32.752 6.93994 32.936C7.12394 33.856 7.30794 60.352 7.30794 60.72ZM23.3159 25.392L36.0119 32.752V38.272L18.5319 28.152L23.3159 25.392ZM40.9799 20.976C41.1639 21.16 50.7319 26.864 49.9959 26.496C48.5239 27.784 47.0519 30.176 46.6839 32.2L37.6679 26.68C38.0359 24.656 39.5079 22.264 40.9799 20.976ZM29.9399 71.208C29.9399 68.632 29.9399 80.592 29.9399 45.632C30.1239 45.448 36.3799 41.952 36.0119 42.136V67.712L29.9399 71.208ZM38.5879 81.696C38.0359 81.328 37.8519 80.776 37.8519 79.672C37.8519 74.52 37.6679 41.952 37.6679 28.888L46.4999 34.224L46.6839 86.112C46.6839 86.296 46.6839 86.296 46.6839 86.48L38.5879 81.696ZM80.1719 71.208L51.4679 87.768C49.6279 88.872 48.5239 87.952 48.5239 86.112L48.3399 33.672C48.3399 31.28 49.9959 28.336 52.2039 27.048C55.1479 25.392 41.5319 33.12 80.9079 10.488C82.5639 9.568 83.8519 10.12 83.8519 12.144L84.0359 64.584C84.0359 66.976 82.3799 70.104 80.1719 71.208ZM70.2359 4.232C71.1559 3.68 71.8919 3.496 72.2599 3.864L80.5399 8.832C76.1239 10.856 52.0199 25.208 51.8359 25.392C51.6519 25.208 42.2679 19.688 42.8199 20.056L70.2359 4.232ZM31.9639 20.24L36.9319 23.184C36.1959 24.656 35.8279 26.128 35.8279 27.232V30.544L24.9719 24.288L31.9639 20.24ZM16.6919 29.072L35.8279 40.112L29.0199 44.16L9.88394 33.12L16.6919 29.072Z" fill="black"/>
<path d="M14.484 63.296C14.116 63.112 13.564 63.112 13.196 63.664C13.012 64.032 13.012 64.584 13.564 64.952L15.956 66.424C16.324 66.608 16.876 66.608 17.244 66.056C17.428 65.688 17.428 65.136 16.876 64.768L14.484 63.296Z" fill="black"/>
<path d="M41.3477 36.984C40.7957 36.984 40.4277 37.352 40.4277 37.904V41.4C40.4277 41.952 40.7957 42.32 41.3477 42.32C41.8997 42.32 42.2677 41.952 42.2677 41.4V37.904C42.2677 37.352 41.8997 36.984 41.3477 36.984Z" fill="black"/>
<path d="M41.3477 45.08C40.7957 45.08 40.4277 45.448 40.4277 46V49.496C40.4277 50.048 40.7957 50.416 41.3477 50.416C41.8997 50.416 42.2677 50.048 42.2677 49.496V46C42.2677 45.632 41.8997 45.08 41.3477 45.08Z" fill="black"/>
<path d="M81.2759 17.848C80.9079 17.664 80.7239 17.664 80.3559 17.848L51.0999 34.776C50.7319 34.96 50.5479 35.328 50.5479 35.512L50.7318 76.544C50.7318 76.912 50.9159 77.096 51.2839 77.28C51.6519 77.464 51.8359 77.464 52.2039 77.28L81.4599 60.352C81.8279 60.168 82.0118 59.8 82.0118 59.616L81.8279 18.584C81.6439 18.4 81.4599 18.032 81.2759 17.848ZM52.5718 74.888L52.3879 36.064L79.8038 20.24L79.9879 59.064L52.5718 74.888Z" fill="black"/>
<path d="M62.6917 25.944L70.4197 21.528C70.7877 21.344 70.9717 20.792 70.7877 20.24C70.6037 19.872 70.0517 19.688 69.4997 19.872L61.7717 24.288C61.4037 24.472 61.2197 25.024 61.4037 25.576C61.7717 26.128 62.3237 26.128 62.6917 25.944Z" fill="black"/>
<path d="M66.9241 70.104C65.2681 71.024 64.1641 73.232 64.1641 74.888C64.1641 77.096 66.0041 78.2 67.8441 77.096C69.5001 76.176 70.6041 74.152 70.6041 72.312C70.6041 69.92 68.7641 69 66.9241 70.104ZM66.9241 75.44C66.3721 75.808 66.0041 75.624 66.0041 74.888C66.0041 73.784 66.9241 72.128 67.8441 71.576C68.5801 71.208 68.7641 71.392 68.7641 72.128C68.7641 73.232 67.8441 74.888 66.9241 75.44Z" fill="black"/>
<path d="M67.4757 11.408C68.9477 12.328 71.3397 12.328 72.8117 11.408C74.6517 10.304 74.6517 8.28 72.8117 7.36C71.3397 6.44 68.9477 6.44 67.4757 7.36C65.6357 8.28 65.6357 10.304 67.4757 11.408ZM68.3957 8.832C69.3157 8.28 70.9717 8.28 71.8917 8.832C72.4437 9.2 72.4437 9.384 71.8917 9.752C70.9717 10.304 69.3157 10.304 68.3957 9.752C67.8437 9.384 67.6597 9.2 68.3957 8.832Z" fill="black"/>
<path d="M57.9078 46.368C57.3558 46.368 56.9878 46.736 56.9878 47.288V57.224C56.9878 57.776 57.3558 58.144 57.9078 58.144C58.4598 58.144 58.8278 57.776 58.8278 57.224V47.288C58.8278 46.92 58.4598 46.368 57.9078 46.368Z" fill="black"/>
<path d="M63.4278 43.24C62.8758 43.24 62.5078 43.608 62.5078 44.16V54.096C62.5078 54.648 62.8758 55.016 63.4278 55.016C63.7958 55.016 64.3478 54.648 64.3478 54.096V44.16C64.3478 43.608 63.7958 43.24 63.4278 43.24Z" fill="black"/>
<path d="M68.9478 40.112C68.3958 40.112 68.0278 40.48 68.0278 41.032V50.968C68.0278 51.52 68.3958 51.888 68.9478 51.888C69.4998 51.888 69.8678 51.52 69.8678 50.968V41.032C69.8678 40.48 69.4998 40.112 68.9478 40.112Z" fill="black"/>
<path d="M74.4679 36.984C73.9159 36.984 73.5479 37.352 73.5479 37.904V47.84C73.5479 48.392 73.9159 48.76 74.4679 48.76C75.0199 48.76 75.3879 48.392 75.3879 47.84V37.904C75.3879 37.352 75.0199 36.984 74.4679 36.984Z" fill="black"/>
</svg>
