<svg width="93" height="92" viewBox="0 0 93 92" fill="none" xmlns="http://www.w3.org/2000/svg">
<path d="M14.8521 73.784C15.4041 73.784 15.7721 73.416 15.7721 72.864V69.736C15.7721 69.184 15.4041 68.816 14.8521 68.816C14.3001 68.816 13.9321 69.184 13.9321 69.736V72.864C13.9321 73.416 14.3001 73.784 14.8521 73.784Z" fill="black"/>
<path d="M40.7962 25.76L48.5242 21.344C48.8922 21.16 49.0762 20.608 48.8922 20.056C48.7082 19.688 48.1562 19.504 47.6042 19.688L39.8762 24.104C39.5082 24.288 39.3242 24.84 39.5082 25.392C39.8762 25.944 40.4282 26.128 40.7962 25.76Z" fill="black"/>
<path d="M45.0281 70.104C43.3721 71.024 42.2681 73.232 42.2681 75.072C42.2681 77.28 44.1081 78.384 45.9481 77.28C47.6041 76.36 48.7081 74.152 48.7081 72.496C48.7081 70.104 46.8681 69 45.0281 70.104ZM45.0281 75.624C44.2921 75.992 44.1081 75.808 44.1081 75.072C44.1081 73.968 45.0281 72.312 45.9481 71.76C46.5001 71.392 46.8681 71.576 46.8681 72.312C46.8681 73.416 45.9481 75.072 45.0281 75.624Z" fill="black"/>
<path d="M19.4522 42.136C20.0042 42.136 20.3722 41.768 20.3722 41.216V37.72C20.3722 37.168 20.0042 36.8 19.4522 36.8C18.9002 36.8 18.5322 37.168 18.5322 37.72V41.216C18.5322 41.768 18.9002 42.136 19.4522 42.136Z" fill="black"/>
<path d="M18.5322 49.496C18.5322 50.048 18.9002 50.416 19.4522 50.416C20.0042 50.416 20.3722 50.048 20.3722 49.496V46C20.3722 45.448 20.0042 45.08 19.4522 45.08C18.9002 45.08 18.5322 45.448 18.5322 46V49.496Z" fill="black"/>
<path d="M45.5802 11.04C47.0522 11.96 49.4442 11.96 50.9162 11.04C52.7562 9.936 52.7562 7.912 50.9162 6.808C49.4442 5.888 47.0522 5.888 45.5802 6.808C43.7402 8.096 43.7402 10.12 45.5802 11.04ZM46.5002 8.648C47.4202 8.096 49.0762 8.096 49.9962 8.648C50.3642 8.832 50.5482 9.016 50.5482 9.2C50.5482 9.384 50.3642 9.568 50.1802 9.752C49.2602 10.304 47.6042 10.304 46.6842 9.752C45.9482 9.2 45.7642 9.016 46.5002 8.648Z" fill="black"/>
<path d="M79.252 26.312C79.252 21.712 77.596 18.216 74.652 16.56C71.708 14.904 68.028 15.272 63.98 17.48V12.144C63.98 10.488 63.428 9.38399 62.324 8.64799C62.14 8.46399 55.332 4.41599 51.468 2.02399C50.364 1.47199 48.892 1.47199 47.42 2.39199L18.532 18.952C15.956 20.424 13.748 24.104 13.748 27.048L13.932 66.792C13.932 67.344 14.3 67.712 14.852 67.712C15.404 67.712 15.772 67.344 15.772 66.792L15.588 28.888L24.604 34.408L24.788 86.48C24.788 86.664 24.788 86.664 24.788 86.848L16.692 81.88C16.14 81.512 15.956 80.96 15.956 79.856V75.808C15.956 75.256 15.588 74.888 15.036 74.888C14.484 74.888 14.116 75.256 14.116 75.808V79.856C14.116 81.512 14.668 82.8 15.772 83.352C18.532 85.008 23.868 88.32 26.628 89.976C27.916 90.712 29.388 90.344 30.676 89.608L59.38 73.048C61.956 71.576 64.164 67.896 64.164 64.768V51.52C64.348 51.336 64.716 51.336 64.9 51.152C72.812 46.552 79.252 35.328 79.252 26.312ZM77.412 26.312C77.412 34.776 71.34 45.264 63.98 49.68C62.14 50.784 59.38 51.704 57.172 51.336C56.804 51.336 56.62 51.336 56.4361 51.52L54.412 53.544L51.652 56.304L52.2041 54.464L53.492 49.864C53.492 49.496 53.492 49.312 53.308 48.944C52.02 47.288 51.284 45.08 51.284 42.136C51.284 36.248 54.228 28.52 59.564 23C61.22 21.16 63.244 19.688 64.716 18.952C71.892 15.088 77.412 18.032 77.412 26.312ZM57.908 22.264C52.204 28.336 49.444 36.432 49.444 42.32C49.444 45.448 50.18 48.024 51.652 49.864L50.3641 53.912L48.708 59.432C48.524 59.8 48.708 60.352 49.076 60.536C49.444 60.72 49.996 60.72 50.18 60.352L55.516 54.832L57.172 53.176C57.54 53.176 57.724 53.176 58.092 53.176V59.248L30.492 75.072L30.308 35.88L57.908 20.056V22.264C58.092 22.264 58.092 22.264 57.908 22.264ZM48.34 3.86399C49.26 3.31199 49.996 3.31199 50.548 3.49599L58.828 8.46399C58.092 8.832 54.596 10.856 42.636 17.848L29.94 25.208C29.756 25.024 20.372 19.32 20.924 19.688L48.34 3.86399ZM19.084 20.792C19.268 20.976 28.836 26.68 28.284 26.312C26.628 27.784 25.34 30.176 24.972 32.2L15.956 26.68C15.772 24.656 17.244 22.08 19.084 20.792ZM62.14 52.44V64.768C62.14 67.16 60.3 70.104 58.2761 71.392L29.388 88.136C27.548 89.24 26.444 88.504 26.444 86.48L26.26 33.856C26.26 31.464 28.1 28.52 30.124 27.232L43.924 19.32L59.012 10.672C60.668 9.752 61.9561 10.12 61.9561 12.328V18.952C61.404 19.32 60.852 19.872 60.3 20.24C60.116 20.424 59.932 20.608 59.748 20.608V18.584C59.748 18.216 59.564 18.032 59.196 17.848C58.828 17.664 58.6441 17.664 58.2761 17.848L28.836 34.776C28.468 34.96 28.284 35.328 28.284 35.512L28.468 76.728C28.468 77.464 29.204 77.832 29.94 77.464L59.38 60.536C59.748 60.352 59.932 59.984 59.932 59.8V52.992C60.116 52.992 61.036 52.808 62.14 52.44Z" fill="black"/>
<path d="M58.0923 31.096V44.528C58.0923 44.896 58.2763 45.08 58.6443 45.264C59.0123 45.448 59.1963 45.448 59.5643 45.264L71.3403 38.456C71.7083 38.272 71.8923 37.904 71.8923 37.72V24.288C71.8923 23.92 71.7083 23.736 71.3403 23.552C70.9723 23.368 70.7883 23.368 70.4203 23.552L58.6443 30.36C58.2763 30.544 58.0923 30.728 58.0923 31.096ZM65.6363 30.544L63.9803 31.464V29.256L65.6363 28.336V30.544ZM62.1403 30.36V33.12C62.1403 33.488 62.3243 33.672 62.6923 33.856C63.0603 34.04 63.2443 34.04 63.6123 33.856L67.1083 31.832C67.4763 31.648 67.6603 31.28 67.6603 31.096V27.232L69.8683 25.944V37.168L59.9323 42.872V31.648L62.1403 30.36Z" fill="black"/>
</svg>
