<svg width="93" height="92" viewBox="0 0 93 92" fill="none" xmlns="http://www.w3.org/2000/svg">
<path d="M3.25984 55.2C3.81184 55.2 4.17984 54.832 4.17984 54.28V51.888C4.17984 51.336 3.81184 50.968 3.25984 50.968C2.89184 50.968 2.33984 51.52 2.33984 51.888V54.28C2.33984 54.832 2.89184 55.2 3.25984 55.2Z" fill="black"/>
<path d="M85.6918 47.656C85.3238 47.472 79.4358 44.16 79.0678 43.976C77.7798 43.24 76.4918 42.872 75.0198 42.872V23.92C75.0198 23.552 74.8358 23.368 74.6518 23.184L41.3478 3.864C40.9798 3.68 40.7958 3.68 40.4278 3.864C23.4998 13.616 32.6998 8.28 2.70784 25.576C2.52384 25.76 2.33984 26.128 2.33984 26.496C2.33984 26.68 2.33984 48.76 2.33984 49.128C2.33984 49.68 2.70784 50.048 3.25984 50.048C3.81184 50.048 4.17984 49.68 4.17984 49.128V28.152L35.2758 46.184L35.4598 83.904L4.36384 65.872V57.04C4.36384 56.488 3.99584 56.12 3.44384 56.12C2.89184 56.12 2.52384 56.488 2.52384 57.04V66.24C2.52384 66.608 2.70784 66.792 2.89184 66.976L35.8278 86.112C36.1958 86.296 36.3798 86.296 36.7478 86.112L51.6518 77.464C52.3878 80.04 53.8598 82.064 55.8838 83.168L62.5078 86.848C66.1878 89.056 70.7878 87.952 74.4678 85.744C83.2998 80.592 90.4758 68.264 90.4758 58.144C90.6598 53.36 88.8198 49.496 85.6918 47.656ZM27.5478 13.616L58.6438 31.648L49.8118 36.8L18.7158 18.584L27.5478 13.616ZM50.7318 38.272L59.5638 33.12V43.24L55.5158 41.584C55.1478 41.4 54.5958 41.584 54.4118 41.952L50.7318 47.656V38.272ZM40.9798 5.704L72.0758 23.92L60.4838 30.544L29.3878 12.512L40.9798 5.704ZM16.8758 19.688L47.9718 37.72L36.1958 44.528L5.09984 26.496L16.8758 19.688ZM51.2838 75.808L37.2998 83.904L37.1158 46.184L48.8918 39.376V50.968C48.8918 51.336 49.0758 51.704 49.6278 51.888C49.9958 52.072 50.3638 51.888 50.7318 51.52L55.6998 43.792L60.2998 45.632C60.8518 45.816 61.5878 45.448 61.5878 44.712V32.016L73.1798 25.392V42.872C71.3398 43.056 69.3158 43.792 67.1078 45.08C58.2758 50.232 51.0998 62.744 51.0998 72.68C51.0998 73.968 51.2838 75.624 51.2838 75.808ZM56.9878 81.696C53.8598 79.856 52.9398 75.992 52.9398 72.496C52.9398 63.112 59.5638 51.336 68.0278 46.552C71.1558 44.712 75.0198 43.608 78.1478 45.448L79.9878 46.368C77.9638 46.552 75.5718 47.472 73.9158 48.576C65.0838 53.728 57.9078 66.056 57.9078 76.176C57.9078 78.2 58.2758 80.224 59.0118 82.064C59.0118 82.248 59.1958 82.616 59.1958 82.8L56.9878 81.696ZM73.7318 84.456C69.8678 86.664 66.3718 87.032 63.6118 85.56C60.4838 83.72 59.5638 79.856 59.5638 76.36C59.5638 66.608 66.3718 55.016 74.6518 50.416C82.3798 46 88.8198 49.128 88.8198 58.512C88.8198 67.896 82.1958 79.672 73.7318 84.456Z" fill="black"/>
<path d="M75.5717 52.808C68.3957 57.04 62.3237 67.528 62.3237 75.808C62.3237 82.8 66.5557 85.56 72.8117 81.88C79.9877 77.648 86.0597 67.16 86.0597 58.88C86.0597 51.888 81.8277 49.128 75.5717 52.808ZM71.8917 80.224C67.1077 82.984 64.1637 81.696 64.1637 75.808C64.1637 68.08 69.8677 58.328 76.4917 54.464C81.2757 51.704 84.2197 52.992 84.2197 58.88C84.2197 66.608 78.6997 76.36 71.8917 80.224Z" fill="black"/>
<path d="M76.1238 66.424C75.3878 66.056 74.6518 66.056 73.7318 66.608C73.3638 66.792 73.1798 66.792 73.1798 66.792C73.1798 66.792 72.9958 66.608 72.9958 66.24C72.9958 65.32 73.7318 64.032 74.6518 63.48C75.0198 63.296 75.2038 63.296 75.2038 63.296C75.2038 63.296 75.3878 63.48 75.3878 63.848C75.3878 64.4 75.7558 64.768 76.3078 64.768C76.8598 64.768 77.2278 64.4 77.2278 63.848C77.2278 62.928 76.8598 62.192 76.1238 61.64C75.7558 61.456 75.5718 61.456 75.2038 61.456V60.536C75.2038 59.984 74.8358 59.616 74.2838 59.616C73.7318 59.616 73.3638 59.984 73.3638 60.536V62.376C72.2598 63.296 71.3398 64.952 71.3398 66.424C71.3398 67.344 71.7078 68.08 72.4438 68.448C73.1798 68.816 73.9158 68.816 74.8358 68.264C75.2038 68.08 75.3878 68.08 75.3878 68.08C75.3878 68.08 75.5718 68.264 75.5718 68.632C75.5718 69.552 74.8358 70.84 73.9158 71.392C73.5478 71.576 73.3638 71.576 73.3638 71.576C73.3638 71.576 73.1798 71.392 73.1798 71.024C73.1798 70.472 72.8118 70.104 72.2598 70.104C71.7078 70.104 71.3398 70.472 71.3398 71.024C71.3398 71.944 71.7078 72.68 72.4438 73.048C72.8118 73.232 72.9958 73.232 73.3638 73.232V74.152C73.3638 74.704 73.7318 75.072 74.2838 75.072C74.8358 75.072 75.2038 74.704 75.2038 74.152V72.312C76.3078 71.392 77.2278 69.736 77.2278 68.264C77.2278 67.528 76.8598 66.792 76.1238 66.424Z" fill="black"/>
</svg>
