<svg width="93" height="92" viewBox="0 0 93 92" fill="none" xmlns="http://www.w3.org/2000/svg">
<path d="M9.14787 69.552C9.14787 69.92 9.33187 70.104 9.51587 70.288C12.0919 71.76 44.1079 90.344 43.7399 89.976C44.1079 90.16 44.2919 90.16 44.6599 89.976L83.4839 67.528C83.8519 67.344 84.0359 66.976 84.0359 66.792L83.8519 22.448C83.8519 22.08 83.6679 21.712 83.4839 21.712C56.9879 6.256 89.7399 25.392 61.9559 9.2C61.5879 9.016 61.0359 9.016 60.6679 9.568C60.4839 9.936 60.4839 10.488 61.0359 10.856L81.2759 22.632L68.5799 29.808L36.3799 11.04L48.8919 3.864L53.8599 6.624C54.2279 6.808 54.7799 6.808 55.1479 6.256C55.3319 5.888 55.3319 5.336 54.7799 4.968L49.4439 1.84C49.0759 1.84 48.7079 1.84 48.3399 2.024L9.51587 24.472C9.14787 24.656 8.96387 25.024 8.96387 25.208L9.14787 69.552ZM59.0119 37.352L67.6599 32.384V37.536L59.0119 42.688V37.352ZM10.9879 69V26.864C19.0839 31.464 34.9079 40.848 43.1879 45.632C43.1879 55.568 43.1879 77.648 43.3719 87.768L10.9879 69ZM45.0279 87.584C45.0279 83.72 44.8439 50.968 44.8439 45.448C45.0279 45.264 57.9079 37.904 56.9879 38.456V44.344C56.9879 44.712 57.1719 44.896 57.5399 45.08C57.9079 45.264 58.0919 45.264 58.4599 45.08L68.9479 39.008C69.3159 38.824 69.3159 38.456 69.3159 38.272V31.28L81.8279 24.104L82.0119 66.24L45.0279 87.584ZM58.0919 35.88L25.8919 17.112L34.5399 12.144L66.7399 30.728C66.5559 30.912 57.9079 35.88 58.0919 35.88ZM24.0519 18.216L56.2519 36.8L44.1079 43.792L11.9079 25.208L24.0519 18.216Z" fill="black"/>
<path d="M58.0921 9.19999C58.4601 9.38399 59.0121 9.19999 59.3801 8.83199C59.5641 8.46399 59.5641 7.91199 59.0121 7.54399L57.3561 6.62399C56.9881 6.43999 56.4361 6.43999 56.0681 6.99199C55.8841 7.35999 55.8841 7.91199 56.4361 8.27999L58.0921 9.19999Z" fill="black"/>
<path d="M39.8758 80.224V48.024C39.8758 47.84 39.6918 47.472 39.5078 47.288C39.1398 47.104 15.9558 33.488 15.7718 33.488C15.2198 33.12 14.2998 33.672 14.2998 34.224V66.424C14.2998 66.608 14.4838 67.16 14.6678 67.16C28.8358 75.256 24.0518 72.68 38.2198 80.776C39.1398 81.328 39.8758 80.776 39.8758 80.224ZM16.1398 38.088L25.8918 57.04L16.3238 64.584L16.1398 38.088ZM17.4278 36.616L37.1158 48.024L27.3638 55.752L17.4278 36.616ZM26.8118 58.696L36.7478 77.832L16.8758 66.424L26.8118 58.696ZM28.2838 57.408L37.8518 49.864V76.36L28.2838 57.408Z" fill="black"/>
<path d="M63.9798 45.08C56.9878 49.128 51.4678 58.88 51.4678 66.792C51.4678 74.152 56.4358 77.28 63.0598 73.416C66.3718 71.392 69.4998 68.264 71.7078 64.4C74.0998 60.352 75.5718 55.752 75.5718 51.704C75.5718 44.528 70.7878 41.216 63.9798 45.08ZM63.7958 70.84V69.552C63.7958 69 63.4278 68.632 62.8758 68.632C62.3238 68.632 61.9558 69 61.9558 69.552V71.944C60.4838 72.864 58.4598 73.416 56.8038 73.232L57.9078 71.208C58.0918 70.84 58.0918 70.288 57.5398 69.92C57.1718 69.736 56.6198 69.736 56.2518 70.288L54.9638 72.496C53.3078 71.024 53.1238 68.264 53.1238 66.976C53.1238 66.792 53.1238 66.608 53.1238 66.608L55.1478 65.32C55.5158 65.136 55.6998 64.584 55.5158 64.032C55.3318 63.664 54.7798 63.48 54.2278 63.664L53.3078 64.216C53.6758 61.64 54.5958 59.064 55.8838 56.672L56.9878 57.224C57.3558 57.408 57.9078 57.408 58.2758 56.856C58.4598 56.488 58.4598 55.936 57.9078 55.568L56.8038 55.016C58.4598 52.256 60.6678 49.68 63.0598 47.84V48.944C63.0598 49.496 63.4278 49.864 63.9798 49.864C64.5318 49.864 64.8998 49.496 64.8998 48.944V46.552C66.5558 45.632 68.7638 44.896 70.4198 45.448L69.3158 47.288C69.1318 47.656 69.1318 48.208 69.6838 48.576C70.0518 48.76 70.6038 48.76 70.9718 48.208L72.0758 46.368C73.3638 47.84 73.5478 50.232 73.5478 51.52C73.5478 51.704 73.5478 52.072 73.5478 52.256L71.5238 53.544C71.1558 53.728 70.9718 54.28 71.1558 54.832C71.3398 55.2 71.8918 55.384 72.4438 55.2L73.3638 54.648C72.9958 57.408 71.8918 60.168 70.4198 62.744L69.3158 62.192C68.9478 62.008 68.3958 62.008 68.0278 62.56C67.8438 62.928 67.8438 63.48 68.3958 63.848L69.4998 64.4C68.0278 66.976 66.0038 69.184 63.7958 70.84Z" fill="black"/>
<path d="M67.8436 52.256C67.4756 52.072 66.9236 52.072 66.5556 52.624L63.7956 57.04C63.4276 57.04 62.8756 57.04 62.3236 57.408C61.0356 58.144 59.9316 59.984 59.9316 61.456C59.9316 63.48 61.5876 64.4 63.2436 63.296C64.5316 62.56 65.6356 60.72 65.6356 59.248C65.6356 58.696 65.4516 58.328 65.2676 57.96L68.0276 53.544C68.3956 52.992 68.3956 52.44 67.8436 52.256ZM62.3236 61.64C61.9556 61.824 61.7716 61.824 61.7716 61.272C61.7716 60.352 62.5076 59.248 63.2436 58.696C63.6116 58.512 63.7956 58.512 63.7956 59.064C63.7956 59.984 63.2436 61.272 62.3236 61.64Z" fill="black"/>
</svg>
