<svg width="93" height="92" viewBox="0 0 93 92" fill="none" xmlns="http://www.w3.org/2000/svg">
<path d="M83.8521 23.368L64.7161 12.328C64.3481 9.2 63.0601 6.992 60.8521 5.704C60.6681 5.52 55.7001 2.576 55.1481 2.392C52.7561 1.472 49.6281 1.84 46.5001 3.68C45.0281 4.6 43.3721 5.888 42.0841 7.176L8.96411 26.128C8.59611 26.312 8.41211 26.68 8.41211 26.864C8.41211 27.232 8.59611 69 8.59611 69.184C8.59611 69.552 8.78011 69.736 8.96411 69.92C20.0041 76.36 44.6601 90.712 43.3721 89.976C43.7401 90.16 43.9241 90.16 44.2921 89.976C44.4761 89.792 83.4841 67.344 83.6681 67.16C84.0361 66.976 84.2201 66.608 84.2201 66.424L84.0361 24.104C84.2201 23.92 84.0361 23.552 83.8521 23.368ZM43.9241 45.816L31.4121 38.456L35.4601 31.464C36.0121 32.568 36.9321 33.304 37.8521 33.856C38.2201 34.04 42.4521 36.432 42.6361 36.616C43.7401 37.168 45.0281 37.536 46.3161 37.536C48.1561 37.536 50.1801 36.984 52.2041 35.696C57.7241 32.568 62.5081 25.576 64.1641 18.584C64.5321 17.112 64.7161 15.64 64.7161 13.984L81.4601 23.736C30.1241 53.912 47.7881 43.608 43.9241 45.816ZM29.2041 39.376C29.2041 39.56 29.2041 45.816 29.2041 45.448C29.0201 45.264 26.2601 43.608 26.4441 43.792V37.72L29.2041 39.376ZM31.7801 49.128C32.7001 49.68 33.6201 51.152 33.6201 52.44C33.6201 53.176 33.4361 53.36 32.7001 52.992L21.6601 46.552C20.7401 46 19.8201 44.528 19.8201 43.24C19.8201 42.504 20.0041 42.32 20.7401 42.688C21.1081 42.872 31.9641 49.312 31.7801 49.128ZM39.3241 32.936L38.5881 32.568C37.6681 32.016 36.9321 31.096 36.3801 29.992L38.7721 25.944V26.128C38.7721 26.864 38.5881 27.6 38.5881 28.336C38.5881 29.992 38.9561 31.648 39.3241 32.936ZM62.8761 14.168C62.8761 15.64 62.6921 17.112 62.3241 18.584C60.8521 25.024 56.2521 31.464 51.1001 34.408C45.2121 37.72 40.4281 35.512 40.2441 28.704C40.0601 25.208 41.3481 21.344 42.8201 18.216C44.6601 14.536 47.6041 10.856 51.1001 8.464C53.6761 6.808 56.9881 5.704 59.5641 7.176C61.7721 8.28 62.8761 10.856 62.8761 14.168ZM47.2361 5.152C49.9961 3.496 52.5721 3.128 54.5961 4.048C55.1481 4.232 54.9641 4.232 55.7001 4.6C54.2281 4.784 52.3881 5.52 50.3641 6.808C46.5001 9.384 43.3721 13.248 41.3481 17.296C40.9801 18.032 29.7561 37.536 29.7561 37.352L26.6281 35.512C38.5881 14.904 40.7961 9.016 47.2361 5.152ZM38.5881 11.224C38.0361 11.96 25.1561 34.776 24.9721 34.96C24.7881 34.776 10.9881 26.864 11.1721 27.048L38.5881 11.224ZM10.4361 28.52C10.6201 28.704 25.3401 37.168 24.6041 36.8V42.872L21.8441 41.216C20.0041 40.112 18.1641 41.216 18.1641 43.424C18.1641 45.264 19.4521 47.288 20.9241 48.208L31.9641 54.648C33.8041 55.752 35.6441 54.648 35.6441 52.44C35.6441 50.6 34.3561 48.576 32.8841 47.656L31.2281 46.736C31.2281 46.552 31.2281 40.112 31.2281 40.664L43.1881 47.656C43.1881 51.704 43.1881 32.752 43.3721 87.768L10.6201 68.632L10.4361 28.52ZM45.0281 87.584C44.8441 34.592 44.8441 51.704 44.8441 47.472C48.3401 45.448 78.3321 28.152 82.3801 25.76L82.5641 65.872L45.0281 87.584Z" fill="black"/>
<path d="M51.2839 13.984C47.9719 16.008 45.2119 20.424 45.3959 24.288C45.3959 27.968 47.9719 29.624 50.5479 28.888C54.5959 27.968 58.2759 22.448 58.2759 17.848C58.0919 13.8 54.7799 11.96 51.2839 13.984ZM51.2839 26.68C49.4439 27.784 47.7879 27.6 47.2359 25.576C50.5479 23.736 53.3079 19.136 53.3079 15.272C55.3319 14.72 56.2519 16.008 56.2519 18.032C56.2519 21.16 53.8599 25.208 51.2839 26.68ZM51.2839 16.192C50.9159 18.768 49.2599 21.712 47.0519 23.368C47.6039 20.792 49.2599 17.848 51.2839 16.192Z" fill="black"/>
<path d="M77.9639 57.592C77.4119 57.592 77.0439 57.96 77.0439 58.512V62.928C77.0439 63.48 77.4119 63.848 77.9639 63.848C78.5159 63.848 78.8839 63.48 78.8839 62.928V58.512C78.8839 57.96 78.5159 57.592 77.9639 57.592Z" fill="black"/>
<path d="M73.5479 60.168C72.9959 60.168 72.6279 60.536 72.6279 61.088V65.504C72.6279 66.056 72.9959 66.424 73.5479 66.424C74.0999 66.424 74.4679 66.056 74.4679 65.504V61.088C74.4679 60.536 74.0999 60.168 73.5479 60.168Z" fill="black"/>
<path d="M69.1319 62.744C68.5799 62.744 68.2119 63.112 68.2119 63.664V68.08C68.2119 68.632 68.5799 69 69.1319 69C69.6839 69 70.0519 68.632 70.0519 68.08V63.664C70.0519 63.112 69.6839 62.744 69.1319 62.744Z" fill="black"/>
</svg>
