<svg width="93" height="92" viewBox="0 0 93 92" fill="none" xmlns="http://www.w3.org/2000/svg">
<path d="M14.1163 53.176C14.6683 53.176 15.0363 52.808 15.0363 52.256V50.416C15.0363 49.864 14.6683 49.496 14.1163 49.496C13.5643 49.496 13.1963 49.864 13.1963 50.416V52.256C13.1963 52.624 13.5643 53.176 14.1163 53.176Z" fill="black"/>
<path d="M86.0602 47.84L79.2522 43.976C77.0442 42.688 74.2842 42.504 71.3402 43.24V39.928L82.3802 33.488C82.7482 33.304 82.7482 32.936 82.7482 32.752C82.7482 32.568 82.5642 32.2 82.3802 32.016L72.2602 25.944L82.3802 20.056C82.7482 19.872 82.7482 19.504 82.7482 19.32C82.7482 18.952 82.5642 18.768 82.1962 18.584L53.6762 2.024C53.3082 1.84 53.1242 1.84 52.7562 2.024L41.7162 8.464L30.6762 2.024C30.4922 1.84 30.1242 1.84 29.9402 2.024L2.34017 19.136C2.15617 19.32 1.97217 19.688 1.97217 19.872C1.97217 20.24 2.15617 20.424 2.34017 20.608L12.4602 26.496L2.34017 32.384C1.97217 32.568 1.97217 32.936 1.97217 33.12C1.97217 33.488 2.15617 33.672 2.52417 33.856L13.5642 40.112V47.656C13.5642 48.208 13.9322 48.576 14.4842 48.576C15.0362 48.576 15.4042 48.208 15.4042 47.656V41.216L30.3082 49.864C30.6762 50.048 30.8602 50.048 31.2282 49.864L41.3482 43.976C41.3482 47.656 41.3482 30.728 41.3482 79.488L15.5882 64.584V54.648C15.5882 54.096 15.2202 53.728 14.6682 53.728C14.1162 53.728 13.7482 54.096 13.7482 54.648V65.136C13.7482 65.504 13.9322 65.688 14.3002 65.872C23.6842 71.208 33.8042 77.096 41.9002 81.88C42.2682 82.064 42.4522 82.064 42.8202 81.88L51.2842 76.912C52.0202 80.592 53.6762 83.352 56.2522 84.824L63.0602 88.688C66.9242 90.896 71.5242 89.792 75.3882 87.4C84.5882 82.064 91.9482 69.184 91.7642 58.512C91.2122 53.728 89.3722 49.68 86.0602 47.84ZM53.3082 48.024C53.1242 47.84 43.0042 42.136 43.7402 42.504C45.9482 41.216 67.8442 28.52 70.4202 27.048L79.9882 32.568L53.3082 48.024ZM42.6362 40.848V11.04L68.3962 25.944C66.1882 27.232 45.5802 39.192 42.6362 40.848ZM40.7962 11.04V40.848C38.0362 39.376 17.7962 27.6 15.9562 26.496L40.7962 11.04ZM53.3082 3.864L79.9882 19.32L70.4202 24.84L43.5562 9.384L53.3082 3.864ZM30.3082 3.864L39.8762 9.384C30.1242 15.456 57.9082 -1.84 13.9322 25.392L4.36417 19.872L30.3082 3.864ZM14.1162 27.6L39.8762 42.504L30.3082 48.024C2.15617 31.832 4.73217 33.304 4.54817 33.12L14.1162 27.6ZM42.6362 79.672C42.8202 30.912 42.6362 47.656 42.6362 44.16C42.8202 44.344 53.3082 50.416 52.7562 50.048C53.1242 50.232 53.3082 50.232 53.6762 50.048L69.3162 40.848V43.792C68.5802 43.976 67.4762 44.528 66.5562 45.08C57.3562 50.416 49.9962 63.296 50.1802 73.968C50.1802 74.52 50.1802 74.888 50.1802 75.256L42.6362 79.672ZM56.4362 83.352C53.6762 81.696 52.2042 78.384 52.0202 73.784C52.0202 63.848 58.8282 51.704 67.4762 46.552C70.7882 44.712 74.8362 43.424 77.9642 45.448L79.9882 46.552H79.8042C78.3322 46.736 76.6762 47.104 75.0202 48.024C65.2682 52.624 56.8042 66.424 56.9882 77.832C56.9882 80.224 57.3562 82.616 58.4602 84.64L56.4362 83.352ZM73.9162 86.112C65.6362 91.08 59.0122 87.216 59.0122 77.832C59.0122 67.16 66.7402 54.096 75.9402 49.864C83.4842 46.368 89.1882 50.048 89.3722 59.064C89.5562 68.816 82.5642 81.144 73.9162 86.112Z" fill="black"/>
<path d="M83.6681 66.424L82.0121 67.344V61.088C82.0121 60.72 81.8281 60.536 81.4601 60.352C81.0921 60.168 80.9081 60.168 80.5401 60.352L77.5961 62.008C77.2281 62.192 77.0441 62.56 77.0441 62.744V70.104L74.4681 71.76C74.2841 71.76 74.1001 72.128 74.1001 72.312C74.1001 72.68 74.1001 72.864 74.4681 73.048L79.0681 77.096C79.4361 77.464 80.1721 77.28 80.5401 76.728L85.1401 67.528C85.3241 67.16 85.3241 66.792 84.9561 66.424C84.4041 66.24 84.0361 66.24 83.6681 66.424ZM79.2521 75.072L76.4921 72.68L78.5161 71.576C78.8841 71.392 79.0681 71.024 79.0681 70.84V63.48L80.1721 62.744V69C80.1721 69.368 80.3561 69.552 80.7241 69.736C81.0921 69.92 81.2761 69.92 81.6441 69.736L82.1961 69.552L79.2521 75.072Z" fill="black"/>
<path d="M74.1 63.664L69.5 59.616C69.316 59.432 68.948 59.432 68.764 59.432C68.396 59.432 68.212 59.616 68.028 59.984L63.428 69.184C63.244 69.552 63.244 69.92 63.612 70.288C63.98 70.472 64.348 70.656 64.716 70.472L66.372 69.552V75.808C66.372 76.544 67.108 76.912 67.844 76.544L70.788 74.888C71.156 74.704 71.34 74.336 71.34 74.152V66.792L73.916 65.32C74.468 64.768 74.652 64.032 74.1 63.664ZM69.868 65.32C69.5 65.504 69.316 65.872 69.316 66.056V73.416L68.212 74.152V67.896C68.212 67.344 67.844 66.976 67.292 66.976C67.108 66.976 66.924 66.976 66.74 67.16L66.188 67.344L68.948 61.824L71.708 64.216L69.868 65.32Z" fill="black"/>
</svg>
