<svg width="93" height="92" viewBox="0 0 93 92" fill="none" xmlns="http://www.w3.org/2000/svg">
<path d="M50.1803 59.064C49.6283 59.064 49.2603 59.432 49.2603 59.984V62.192C49.2603 62.744 49.6283 63.112 50.1803 63.112C50.7323 63.112 51.1003 62.744 51.1003 62.192V59.984C51.1003 59.432 50.7323 59.064 50.1803 59.064Z" fill="black"/>
<path d="M86.4282 35.696C83.3002 32.016 80.9082 28.152 79.6202 24.472C79.6202 24.288 79.2522 23.92 79.2522 23.92C78.8842 23.552 78.1482 22.816 77.0442 22.08C75.7562 18.768 71.7082 14.536 71.3402 14.352L67.1082 11.96C66.9242 11.776 66.5562 11.776 66.3722 11.96C66.1882 11.96 66.0042 12.144 65.8202 12.512C65.6362 13.064 65.0842 14.168 64.3482 15.64C55.7002 11.96 49.0762 10.672 39.3242 12.696C39.3242 12.144 39.5082 11.776 39.5082 11.224C39.5082 7.912 34.7242 2.944 34.1722 2.576L30.6762 0.552001C30.4922 0.368001 30.1242 0.368001 29.9402 0.552001C29.7562 0.552001 29.5722 0.736001 29.3882 1.104C28.6522 2.76 24.6042 11.776 24.6042 14.904C24.6042 16.192 24.9722 17.296 25.7082 18.032C22.7642 19.688 20.0042 21.16 17.6122 23.736C17.4282 23.552 16.5082 22.448 16.3242 22.448L12.6442 20.24C12.4602 20.24 12.0922 20.24 11.9082 20.24C11.7242 20.24 11.5402 20.424 11.3562 20.792C10.4362 22.632 6.38818 31.832 6.38818 34.96C6.38818 36.8 7.12418 38.272 8.22818 38.824C8.59618 39.008 6.94018 38.088 11.7242 40.848C12.4602 41.216 13.0122 41.216 13.7482 41.216C15.2202 43.24 16.1402 45.816 16.3242 48.208C16.3242 48.76 16.8762 48.944 17.2442 48.944C23.6842 48.76 29.7562 51.152 35.2762 55.752C35.6442 55.936 35.8282 55.936 36.1962 55.936C38.7722 55.2 41.1642 54.648 44.1082 54.28V71.944C44.1082 78.568 48.5242 86.112 54.2282 89.424C56.0682 90.528 57.9082 91.08 59.7482 91.08C61.2202 91.08 62.5082 90.712 63.6122 89.976C66.1882 88.504 67.8442 85.376 67.8442 81.512C67.8442 74.704 67.8442 77.28 67.8442 70.472C67.8442 69.736 67.4762 69 66.5562 68.632C65.2682 67.896 63.2442 67.896 61.9562 68.632C61.2202 69 60.6682 69.736 60.6682 70.472V81.512C60.6682 82.984 60.3002 83.72 59.9322 83.904C59.5642 84.088 58.6442 84.088 57.3562 83.352C53.8602 81.328 50.7322 75.808 50.7322 71.76V64.4C50.7322 63.848 50.3642 63.48 49.8122 63.48C49.2602 63.48 48.8922 63.848 48.8922 64.4V70.84H45.5802V53.912C46.8682 53.912 48.1562 53.912 48.8922 53.912V56.856C48.8922 57.408 49.2602 57.776 49.8122 57.776C50.3642 57.776 50.7322 57.408 50.7322 56.856V53.912C55.5162 54.28 57.9082 55.2 59.5642 55.568C59.7482 55.568 60.1162 55.568 60.3002 55.384C66.1882 51.152 70.7882 48.576 78.3322 48.392C78.7002 48.392 79.0682 48.208 79.2522 47.656C79.8042 46.184 80.7242 41.584 86.0602 36.248C86.7962 36.432 86.7962 35.88 86.4282 35.696ZM84.4042 36.248C81.6442 39.192 79.6202 42.32 78.3322 45.816C75.9402 42.136 73.1802 38.456 70.6042 35.328C70.7882 35.144 70.9722 35.144 71.3402 34.96C73.3642 33.672 75.2042 31.648 76.3082 29.256C79.2522 31.28 82.0122 33.672 84.4042 36.248ZM66.0042 30.176C66.5562 26.864 69.6842 19.504 70.9722 16.376C72.6282 18.032 75.5722 21.712 75.5722 24.104C75.5722 27.232 73.3642 31.464 70.2362 33.304C67.4762 34.96 65.6362 33.304 66.0042 30.176ZM79.9882 29.624C79.0682 28.888 77.9642 28.152 77.0442 27.416C77.2282 26.68 77.4122 25.208 77.5962 24.656C78.5162 25.576 77.5962 25.208 79.9882 29.624ZM67.1082 13.616L69.6842 15.088C68.0282 18.584 65.2682 25.392 64.3482 29.072C64.1642 29.992 64.1642 30.912 64.1642 31.832L63.6122 31.464C63.4282 31.28 61.7722 31.096 61.7722 28.152C61.7722 25.576 65.8202 16.376 67.1082 13.616ZM45.3962 20.24C44.1082 19.504 44.1082 18.4 45.3962 17.664C46.8682 16.744 49.8122 16.56 51.6522 17.664C52.9402 18.4 52.9402 19.32 51.8362 20.056C50.3642 21.16 47.4202 21.344 45.3962 20.24ZM42.2682 43.424C38.7722 49.312 32.7002 49.864 33.9882 43.424C34.7242 39.744 37.6682 32.752 39.3242 29.44C41.3482 31.648 44.4762 35.512 44.1082 38.456C43.9242 40.112 43.1882 41.952 42.2682 43.424ZM35.4602 53.544C30.4922 49.68 24.9722 47.656 19.0842 47.288C22.5802 42.688 25.8922 38.64 29.3882 34.96C28.2842 37.72 27.5482 40.48 27.5482 41.952C27.5482 44.16 28.2842 45.816 29.7562 46.552C29.9402 46.736 34.3562 49.128 34.1722 49.128C34.7242 49.496 35.4602 49.68 36.1962 49.68H36.3802C36.0122 51.152 35.8282 52.256 35.4602 53.544ZM32.7002 31.648C33.6202 29.44 34.3562 27.6 34.9082 26.496C35.0922 26.68 37.8522 28.152 37.6682 28.152C36.0122 31.832 32.8842 39.008 32.1482 43.056C31.9642 44.344 31.9642 45.264 31.9642 46L30.6762 45.264C29.7562 44.712 29.3882 43.608 29.3882 42.136C29.3882 40.296 31.0442 35.88 32.7002 31.648ZM39.3242 26.864L38.5882 26.496C40.7962 24.84 43.0042 23.368 45.0282 22.08C45.2122 22.08 45.3962 22.264 45.5802 22.264C44.6602 24.288 43.7402 26.864 42.4522 30.36C42.0842 29.808 39.8762 27.232 39.3242 26.864ZM54.7802 14.168C56.8042 14.72 58.8282 15.272 60.8522 15.824C58.4602 15.824 55.8842 16.008 53.3082 16.56C52.5722 16.008 52.3882 16.008 52.0202 15.824C52.9402 15.272 53.8602 14.72 54.7802 14.168ZM62.3242 20.24C59.9322 19.504 57.3562 18.768 54.7802 18.216C57.7242 17.664 60.4842 17.48 63.4282 17.848C62.8762 18.584 62.6922 19.504 62.3242 20.24ZM54.2282 20.056C56.8042 20.608 59.1962 21.344 61.5882 22.08C61.2202 23.184 60.8522 24.288 60.6682 25.208C58.4602 23.368 56.0682 21.896 54.0442 20.608C54.0442 20.424 54.2282 20.24 54.2282 20.056ZM51.8362 13.8C51.1002 14.168 50.5482 14.72 49.9962 15.088C48.7082 14.904 47.4202 14.904 46.1322 15.272C45.5802 14.72 44.8442 14.168 44.1082 13.8C46.6842 13.616 49.0762 13.616 51.8362 13.8ZM39.3242 14.536C40.0602 14.352 40.7962 14.168 41.5322 14.168C42.6362 14.904 43.5562 15.456 44.2922 16.192C43.9242 16.56 43.5562 16.744 43.1882 17.112C41.1642 16.928 39.5082 16.744 37.6682 16.56C38.0362 16.008 38.4042 15.272 38.5882 14.536H39.3242ZM33.2522 18.768C31.2282 19.872 29.7562 19.136 29.7562 16.928C29.7562 14.536 32.8842 7.36 33.8042 5.152C35.4602 6.992 37.4842 9.568 37.4842 11.408C37.4842 13.984 35.6442 17.48 33.2522 18.768ZM30.6762 2.76L32.5162 3.864C31.4122 6.44 28.1002 13.984 28.1002 16.744C28.1002 16.928 28.1002 17.112 28.1002 17.48L27.3642 17.112C26.8122 16.744 26.4442 16.008 26.4442 14.904C26.4442 12.88 29.0202 6.624 30.6762 2.76ZM26.9962 19.32L27.1802 19.136L29.7562 20.608C31.0442 21.344 32.7002 20.976 33.9882 20.24C34.7242 19.688 35.6442 19.136 36.1962 18.4C38.0362 18.4 40.2442 18.584 42.4522 18.952C36.7482 20.056 28.6522 22.448 20.1882 27.416C19.6362 26.496 19.0842 25.76 18.5322 25.024C21.1082 22.632 23.8682 21.16 26.9962 19.32ZM9.14818 37.168C8.59618 36.8 8.22818 35.88 8.22818 34.776C8.22818 32.568 10.8042 26.312 12.6442 22.264L14.6682 23.368C13.3802 26.496 11.1722 31.28 10.4362 34.592C10.0682 35.696 10.0682 36.616 10.0682 37.536L9.14818 37.168ZM12.6442 39.192C11.3562 38.456 11.7242 36.248 12.0922 34.776C12.8282 31.832 14.6682 27.6 15.9562 24.84C17.2442 26.312 19.6362 29.44 19.6362 31.28C19.6362 32.936 18.9002 34.96 17.6122 36.616C16.6922 38.272 14.1162 40.112 12.6442 39.192ZM15.5882 40.848C16.8762 40.296 17.9802 39.192 18.9002 38.088C18.9002 37.904 19.0842 37.904 19.0842 37.72C20.5562 35.88 21.4762 33.304 21.4762 31.28C21.4762 30.728 21.2922 29.808 21.1082 29.256C29.3882 24.288 37.6682 21.896 43.1882 20.792L43.3722 20.976C41.1642 22.264 38.9562 23.736 36.9322 25.576C36.7482 25.392 34.9082 24.472 34.7242 24.288C34.1722 24.104 33.8042 24.288 33.6202 24.656C33.2522 25.208 31.4122 29.624 31.0442 30.728C26.6282 34.96 22.2122 40.112 17.7962 46C17.7962 45.632 17.4282 43.424 15.5882 40.848ZM63.0602 70.656C63.7962 70.288 65.0842 70.288 65.8202 70.656C66.0042 70.84 66.0042 70.84 66.1882 70.84C66.0042 71.024 66.1882 71.024 66.0042 71.024C65.2682 71.392 63.9802 71.392 63.2442 71.024C63.0602 70.84 62.8762 70.84 62.8762 70.84C62.8762 70.84 62.8762 70.84 63.0602 70.656ZM56.8042 85.376C58.4602 86.296 60.1162 86.48 61.2202 85.928C62.3242 85.376 62.8762 83.904 62.8762 81.88V73.048C63.9802 73.416 65.2682 73.416 66.1882 73.048V81.88C66.1882 85.008 64.9002 87.584 62.8762 88.688C60.6682 89.976 57.9082 89.608 55.3322 88.136C50.3642 85.376 46.5002 78.936 46.1322 73.048H49.4442C49.6282 77.648 52.9402 83.168 56.8042 85.376ZM37.3002 53.912C37.6682 52.44 38.0362 50.968 38.4042 49.496C40.7962 48.576 42.6362 46.368 43.9242 44.16C44.8442 42.504 45.5802 40.664 45.7642 38.824C45.9482 36.984 45.7642 35.328 43.7402 32.384C45.2122 28.152 46.5002 25.024 47.4202 22.816C47.6042 22.816 48.5242 22.816 49.2602 22.816C53.3082 32.384 57.9082 43.608 59.0122 54.096C52.5722 52.256 46.1322 51.704 37.3002 53.912ZM61.0362 53.544C59.7482 42.32 55.1482 32.016 51.2842 22.448C51.6522 22.264 51.8362 22.264 52.2042 22.08C52.2042 22.08 52.3882 22.08 52.3882 21.896C54.7802 23 57.3562 24.84 60.1162 27.048C60.1162 27.416 59.9322 27.968 59.9322 28.52C59.9322 30.728 60.8522 32.2 62.1402 32.936C62.6922 33.304 66.5562 35.512 66.3722 35.328C66.9242 35.696 67.8442 35.88 68.7642 35.88C71.7082 39.376 74.6522 43.24 77.0442 47.104C71.5242 47.472 65.6362 50.048 61.0362 53.544Z" fill="black"/>
</svg>
