<svg width="93" height="92" viewBox="0 0 93 92" fill="none" xmlns="http://www.w3.org/2000/svg">
<path d="M75.572 20.976L42.636 2.02399C42.268 1.83999 42.084 1.83999 41.716 2.02399L17.428 16.192C17.06 16.192 16.876 16.744 16.876 16.928C16.876 115.184 16.876 -0.736019 16.876 69.92C16.876 70.288 17.06 70.472 17.244 70.656C17.612 70.84 20.74 72.68 20.556 72.68C20.924 72.864 21.108 72.864 21.476 72.68C22.58 72.128 24.972 70.656 24.788 70.656C25.156 70.472 25.156 70.104 25.156 69.92V64.032L46.5 76.176V87.4C46.5 87.768 46.684 87.952 46.868 88.136C47.236 88.32 50.364 90.16 50.18 90.16C50.548 90.344 50.732 90.344 51.1 90.16C52.204 89.608 54.596 88.136 54.412 88.136C54.78 87.952 54.78 87.584 54.78 87.4V76.176L67.292 69V75.256C67.292 75.624 67.476 75.808 67.844 75.992C68.212 76.176 66.556 75.256 71.156 77.832C71.34 78.016 71.708 78.016 71.892 77.832C72.076 77.832 75.572 75.808 75.388 75.808C75.756 75.624 75.94 75.256 75.94 75.072C75.94 7.72798 75.94 28.152 75.94 21.712C76.124 21.528 75.94 21.16 75.572 20.976ZM25.524 50.784L29.94 48.208L46.684 57.776C46.684 57.96 46.684 70.288 46.684 69.552L25.524 57.408V50.784ZM25.524 41.216C31.044 44.344 41.164 50.232 46.684 53.36V55.752C22.028 41.584 26.628 44.16 25.524 43.608V41.216ZM46.5 39.008V51.336C40.98 48.208 30.86 42.32 25.34 39.192V32.568L30.124 29.808L46.5 39.008ZM25.524 45.632L28.1 47.104L25.524 48.576V45.632ZM67.66 62.376L55.148 69.552C55.148 69.368 55.148 57.04 55.148 57.776L63.244 53.176L67.66 55.752V62.376ZM55.148 55.568V53.36L67.66 46.184V48.392C66.556 48.944 54.964 55.752 55.148 55.568ZM67.66 43.976L55.148 51.152V38.824L62.876 34.408L67.66 37.168V43.976ZM64.9 52.072L67.476 50.6V53.544L64.9 52.072ZM67.66 31.648V35.144L64.716 33.488L67.66 31.648ZM49.996 36.432V38.824C47.236 37.168 19.268 21.16 18.9 20.792V18.4C21.844 20.24 47.42 34.96 49.996 36.432ZM28.468 28.52L25.524 30.176V26.68L28.468 28.52ZM74.284 25.76C66.372 30.36 67.108 29.992 51.836 38.824C51.836 38.64 51.836 36.432 51.836 36.616L74.284 23.552V25.76ZM42.268 3.86399L73.364 21.896L50.732 34.96L19.636 16.928L42.268 3.86399ZM18.716 23L20.188 23.92V70.104L18.716 69.184C18.716 51.52 18.716 67.528 18.716 23ZM22.028 70.104V25.024L23.5 25.944C23.5 68.08 23.5 69.552 23.5 69.368L22.028 70.104ZM25.524 61.824V59.616L46.5 71.76V74.152L25.524 61.824ZM48.34 40.112C48.524 40.296 49.996 41.032 49.812 41.032C49.812 49.312 49.812 77.832 49.812 87.768L48.34 86.848C48.34 83.904 48.34 42.136 48.34 40.112ZM51.836 87.584C51.836 66.056 51.836 62.56 51.836 40.848L53.308 39.928C53.308 77.096 53.308 79.304 53.308 86.664L51.836 87.584ZM55.148 73.968V71.76L67.66 64.584V66.792L55.148 73.968ZM69.5 30.728L70.972 29.808C70.972 59.432 70.972 46.92 70.972 75.44L69.5 74.52C69.5 62.192 69.5 41.584 69.5 30.728ZM72.812 75.44C72.812 61.456 72.812 42.872 72.812 28.704C72.996 28.52 74.468 27.784 74.284 27.784C74.284 38.272 74.284 75.808 74.284 74.52L72.812 75.44Z" fill="black"/>
</svg>
