<svg width="93" height="92" viewBox="0 0 93 92" fill="none" xmlns="http://www.w3.org/2000/svg">
<path d="M15.0358 75.44C15.4038 75.624 15.9558 75.624 16.3238 75.072C16.5078 74.704 16.5078 74.152 15.9558 73.784L12.0918 71.576C11.5398 71.208 10.9878 71.392 10.6198 71.76C10.4358 72.128 10.4358 72.68 10.9878 73.048L15.0358 75.44Z" fill="black"/>
<path d="M85.6918 48.944L79.2518 45.264C77.2278 44.16 75.0198 43.792 72.4438 44.344V22.448C72.4438 22.08 72.2598 21.896 71.8918 21.712L40.0598 3.31201C39.6918 3.12801 39.5078 3.12801 39.1398 3.31201C24.9718 11.408 16.3238 16.56 2.89184 24.288C2.52384 24.472 2.33984 24.84 2.33984 25.024L2.52384 67.528C2.52384 67.896 2.70784 68.08 2.89184 68.264L7.12384 70.656C7.49184 70.84 8.04384 70.84 8.41184 70.288C8.59584 69.92 8.59584 69.368 8.04384 69L4.36384 66.792L4.17984 26.68L34.1718 44.16L34.3558 84.456L20.1878 76.176C19.8198 75.992 19.2678 75.992 18.8998 76.544C18.7158 76.912 18.7158 77.464 19.2678 77.832C20.9238 78.752 13.5638 74.52 34.9078 86.848C35.2758 87.032 35.4598 87.032 35.8278 86.848L52.7558 77.096C53.4918 80.224 54.9638 82.616 57.3558 83.904L63.7958 87.584C67.4758 89.608 71.8918 88.504 75.3878 86.48C84.0358 81.512 90.8438 69.368 90.8438 59.432C90.6598 54.464 88.8198 50.784 85.6918 48.944ZM67.4758 46.368C63.9798 48.392 60.8518 51.52 58.0918 55.384V31.28L70.4198 24.104V44.896C69.4998 45.448 68.3959 45.816 67.4758 46.368ZM17.4278 18.032L47.4198 35.512L35.0918 42.688C25.7078 37.168 13.5638 30.176 5.09984 25.208L17.4278 18.032ZM25.5238 13.432L55.5158 30.912C55.3318 31.096 50.9158 33.672 49.2598 34.592L19.2678 16.928C19.4518 16.744 25.8918 13.064 25.5238 13.432ZM56.4358 32.384V58.328C54.0438 62.744 52.2038 68.448 52.2038 73.416C52.2038 73.968 52.2038 74.52 52.3878 75.072L50.1798 76.36V35.88C50.3638 35.88 56.8038 32.2 56.4358 32.384ZM39.6918 5.15201L69.6838 22.632L57.3558 29.808L27.3638 12.328L39.6918 5.15201ZM36.0118 44.16L48.3398 36.984V77.28L36.0118 84.456V44.16ZM58.0918 82.432C55.1478 80.776 54.2278 76.912 54.0438 73.416C54.0438 64.216 60.2998 52.808 68.5798 48.024C71.5238 46.184 75.3878 45.08 78.5158 46.92L80.3559 48.024C78.6998 48.208 76.4918 48.944 74.2838 50.232C65.8198 55.2 58.8278 67.344 58.8278 77.28C58.8278 79.856 59.3798 81.88 60.1158 83.536L58.0918 82.432ZM74.2838 85.008C66.7398 89.424 60.4838 86.296 60.2998 77.28C60.2998 67.896 66.7398 56.488 74.8358 51.888C77.7798 50.048 81.6438 49.128 84.7718 50.784C87.3478 52.256 88.8198 55.384 88.8198 59.616C88.8198 68.816 82.3798 80.224 74.2838 85.008Z" fill="black"/>
<path d="M80.3557 61.824C79.9877 61.64 79.4357 61.64 79.0677 62.192L72.9957 72.864L69.6837 71.024C69.3157 70.84 68.7637 70.84 68.3957 71.392C68.2117 71.76 68.2117 72.312 68.7637 72.68L72.8117 74.888C73.1797 75.072 73.7317 75.072 74.0997 74.52L80.7237 63.112C80.9077 62.56 80.9077 62.008 80.3557 61.824Z" fill="black"/>
</svg>
