<svg width="93" height="92" viewBox="0 0 93 92" fill="none" xmlns="http://www.w3.org/2000/svg">
<rect x="0.5" width="92" height="92" rx="46" fill="black"/>
<path d="M48.4672 25.8829L51.3022 24.2462C51.5783 24.0868 51.673 23.7341 51.5135 23.458C51.353 23.1814 50.9997 23.0879 50.7253 23.2468L47.8903 24.8834C47.6142 25.0429 47.5196 25.3956 47.679 25.6716C47.8389 25.9484 48.1926 26.0415 48.4672 25.8829Z" fill="white"/>
<path d="M64.2885 45.163L64.226 21.1345C64.2254 20.9563 64.0546 20.7047 63.9392 20.6376L59.8957 18.2877C59.7154 18.1834 59.4951 18.1834 59.3171 18.2865L53.6273 21.5712C53.3512 21.7306 53.2566 22.0833 53.416 22.3594C53.5749 22.6354 53.9281 22.729 54.2042 22.5706L59.6044 19.4528L62.498 21.1345L33.3327 37.9726C32.6394 37.5697 30.2893 36.2039 30.4394 36.2912L45.3475 27.6841C45.6236 27.5246 45.7183 27.1719 45.5588 26.8959C45.3983 26.6187 45.045 26.524 44.7706 26.6846L28.9999 35.7897C28.7952 35.9083 28.7117 36.1728 28.7114 36.2889C28.7114 36.2893 28.7117 36.2896 28.7117 36.29C28.7117 36.4604 28.773 60.1311 28.774 60.3197C28.7745 60.5247 28.8838 60.714 29.0607 60.8166C29.1775 60.8845 33.2226 63.2348 33.1058 63.167C33.1055 63.1668 33.1061 63.1671 33.1058 63.167C33.2777 63.2671 33.4982 63.2733 33.6829 63.1677L46.1264 55.9835L46.1126 63.0407C45.2804 63.222 44.5119 63.5034 43.8765 63.877C42.5638 64.6398 41.8426 65.69 41.846 66.8343C41.846 66.8386 41.8471 66.8428 41.8471 66.8471L41.8392 69.7003C41.8359 70.8536 42.5683 71.9133 43.9024 72.6841C46.4648 74.163 50.454 74.1563 52.9901 72.6829C54.3006 71.9207 55.024 70.875 55.0268 69.7386L55.0352 66.8608C55.0352 66.854 55.0316 66.8478 55.0314 66.8411C55.0276 65.6954 54.2964 64.6426 52.9743 63.8781C52.3379 63.5042 51.5698 63.2416 50.7299 63.0515L50.7542 53.3117L64.0001 45.6645C64.1792 45.5608 64.2891 45.3698 64.2885 45.163ZM29.9267 59.9856L29.8681 37.2937L32.7558 38.9719C32.7635 41.9506 32.812 60.6134 32.8147 61.6639L29.9267 59.9856ZM53.8729 69.7352C53.8712 70.4457 53.3518 71.1381 52.4098 71.6857C50.2311 72.9511 46.6727 72.9523 44.4793 71.6846C43.5187 71.1296 42.9908 70.4265 42.9931 69.7037L42.9948 69.1499C43.0007 69.1551 43.0094 69.1593 43.0153 69.1646C45.3413 71.2196 50.0835 71.4975 52.998 69.8045C53.2658 69.6491 53.7532 69.286 53.8746 69.178L53.8729 69.7352ZM52.416 68.8039C50.2362 70.0705 46.6817 70.0699 44.4884 68.8022C42.5459 67.6881 42.4759 66.0251 44.4591 64.8731C44.9307 64.596 45.4928 64.374 46.1102 64.2191L46.1053 66.7407C46.1053 67.2168 46.3943 67.6591 46.902 67.956C47.9477 68.5586 49.5548 68.3728 50.2708 67.7102C50.5603 67.4421 50.7207 67.1077 50.7207 66.7548L50.7297 64.2116C51.3562 64.3733 51.9224 64.5987 52.3929 64.8748C54.36 66.0124 54.3759 67.6642 52.416 68.8039ZM49.5669 66.7526C49.5669 66.77 49.5308 66.8557 49.3556 66.9582C48.8688 67.2427 47.973 67.2427 47.4817 66.9582C47.3059 66.8557 47.2609 66.7582 47.2592 66.7419L47.2704 63.5125C47.2704 63.5046 47.2659 63.4979 47.2656 63.4901L47.2817 55.3166L49.599 53.9787L49.5669 66.7526ZM33.9687 61.67C33.9634 59.6074 33.9168 41.62 33.9099 38.972C40.6518 35.0797 56.255 26.0714 63.075 22.134L63.1336 44.8323C48.495 53.2834 48.5285 53.2617 33.9687 61.67Z" fill="white"/>
<path d="M61.3351 25.28C61.1565 25.1775 60.9362 25.1775 60.7587 25.28L35.662 39.7696C35.4828 39.8733 35.373 40.0642 35.3735 40.271L35.4186 58.026C35.4192 58.2317 35.529 58.4216 35.7076 58.5241C35.8861 58.6269 36.1052 58.6271 36.284 58.5241L61.3807 44.0345C61.5599 43.9309 61.6697 43.7399 61.6692 43.5331L61.6241 25.7781C61.6235 25.5724 61.5137 25.3826 61.3351 25.28ZM36.5702 57.0266L36.5285 40.6017L60.4725 26.7776L60.5142 43.2024L36.5702 57.0266Z" fill="white"/>
<path d="M57.8512 30.4577L53.5519 32.9401C53.2758 33.0995 53.1812 33.4522 53.3406 33.7283C53.5005 34.0051 53.8542 34.0981 54.1288 33.9395L58.4281 31.4572C58.7042 31.2977 58.7989 30.9451 58.6394 30.669C58.4789 30.3918 58.1256 30.2971 57.8512 30.4577Z" fill="white"/>
<path d="M57.8512 33.8798L55.9818 34.9593C55.7058 35.1187 55.6111 35.4714 55.7706 35.7475C55.9304 36.0243 56.2842 36.1174 56.5588 35.9588L58.4281 34.8793C58.7042 34.7199 58.7988 34.3672 58.6394 34.0911C58.4788 33.8145 58.1256 33.7198 57.8512 33.8798Z" fill="white"/>
<path d="M39.1918 50.094L41.3418 48.8528C41.6178 48.6934 41.7125 48.3407 41.553 48.0646C41.3936 47.788 41.0392 47.6928 40.7648 47.8533L38.6149 49.0945C38.3388 49.254 38.2442 49.6066 38.4036 49.8827C38.5646 50.1606 38.9184 50.2519 39.1918 50.094Z" fill="white"/>
<path d="M42.9147 50.0336L38.9084 52.347C38.6323 52.5064 38.5376 52.8591 38.6971 53.1352C38.8569 53.412 39.2107 53.505 39.4853 53.3464L43.4916 51.0331C43.7677 50.8737 43.8623 50.521 43.7029 50.2449C43.5429 49.9677 43.1902 49.8742 42.9147 50.0336Z" fill="white"/>
<path d="M49.9579 41.2835C49.4728 41.004 48.844 41.0452 48.2355 41.3979C47.9972 41.5359 47.7747 41.5793 47.6598 41.5134C47.5454 41.4474 47.4738 41.239 47.4727 40.9686C47.4705 40.1392 48.0789 39.0862 48.8018 38.6687C49.039 38.5324 49.2564 38.4896 49.3725 38.5549C49.4869 38.6214 49.559 38.8304 49.5595 39.1009C49.5607 39.4186 49.8187 39.6761 50.1365 39.6761H50.1382C50.4565 39.675 50.7145 39.4164 50.7134 39.0975C50.7117 38.3961 50.4323 37.8338 49.9477 37.5549C49.6941 37.4084 49.3999 37.3552 49.0902 37.3836V36.4411C49.0902 36.1222 48.8322 35.8641 48.5133 35.8641C48.1944 35.8641 47.9364 36.1222 47.9364 36.4411V37.8684C47.0075 38.5618 46.3158 39.8532 46.3189 40.9719C46.3211 41.6734 46.6 42.2351 47.0845 42.5134C47.5719 42.794 48.2017 42.7512 48.8125 42.3973C49.0497 42.2616 49.2694 42.2193 49.3826 42.2835C49.4976 42.3494 49.5691 42.559 49.5702 42.8295C49.5725 43.6419 48.9533 44.7129 48.2457 45.1214C48.0062 45.2605 47.7865 45.3051 47.6688 45.2369C47.555 45.1715 47.484 44.9648 47.4834 44.6971C47.4823 44.3794 47.2242 44.1219 46.9065 44.1219H46.9048C46.5865 44.123 46.3284 44.3816 46.3296 44.7005C46.3313 45.3986 46.6101 45.9586 47.0935 46.2369C47.3065 46.3592 47.5465 46.42 47.8012 46.42C47.845 46.42 47.8918 46.4035 47.9364 46.3999V47.3632C47.9364 47.682 48.1944 47.9401 48.5133 47.9401C48.8322 47.9401 49.0902 47.682 49.0902 47.3632V45.9361C50.0267 45.2483 50.7272 43.9502 50.7241 42.8261C50.7218 42.1241 50.4424 41.5618 49.9579 41.2835Z" fill="white"/>
</svg>
