<svg width="93" height="92" viewBox="0 0 93 92" fill="none" xmlns="http://www.w3.org/2000/svg">
<rect x="0.5" width="92" height="92" rx="46" fill="white"/>
<path d="M29.2411 67.4688L36.4492 71.5703C36.4578 71.5752 36.4678 71.5732 36.4766 71.5776C36.4808 71.58 36.4842 71.5834 36.4884 71.5858C40.8284 74.0834 46.0852 72.7776 50.4608 70.2514C61.0293 64.1499 69.5994 49.2887 69.5652 37.1227C69.5486 31.1434 67.4779 26.6648 63.7351 24.5107C63.7196 24.5018 63.7024 24.4969 63.6869 24.488C63.6578 24.4715 63.6289 24.4547 63.5997 24.4383L56.5563 20.4307C52.9793 18.349 48.2686 18.6696 43.2942 21.3312C43.0183 21.4787 42.9144 21.822 43.062 22.0973C43.2096 22.3731 43.5518 22.4759 43.8281 22.3295C48.4443 19.8586 52.762 19.5319 55.9919 21.4119L59.1029 23.1824C59.0873 23.1816 59.0709 23.1829 59.0553 23.1821C59.0368 23.1813 59.0177 23.1826 58.9992 23.1818C55.856 23.0491 52.5623 24.2379 49.8312 25.8077C49.8113 25.8191 49.7919 25.827 49.7721 25.8385C39.3334 31.865 30.6173 46.7273 30.6434 58.9373C30.6572 62.0718 31.2729 65.4494 32.9366 68.1038C32.9679 68.1536 32.9958 68.2069 33.0277 68.2561C33.0483 68.288 33.0658 68.3233 33.0867 68.3549L29.806 66.4876C26.4518 64.5313 24.5912 60.3916 24.5668 54.8324C24.5469 45.7476 29.5556 34.732 37.0296 27.4221C37.2529 27.2038 37.2568 26.8451 37.0385 26.6217C36.8201 26.399 36.4625 26.394 36.238 26.6129C28.5595 34.1228 23.4143 45.464 23.4348 54.8357C23.4607 60.8139 25.5209 65.2991 29.2411 67.4688ZM68.4331 37.126C68.4663 48.9305 60.1498 63.3506 49.8948 69.2708C39.843 75.0757 31.8165 70.5174 31.7833 58.9356C31.75 47.1219 40.1068 32.7276 50.337 26.8207C60.3487 21.028 68.401 25.5828 68.4331 37.126Z" fill="black"/>
<path d="M40.7564 22.8773C39.9577 23.424 39.16 24.0281 38.3845 24.6732C38.144 24.8733 38.1114 25.2299 38.3115 25.4703C38.5105 25.7096 38.8675 25.744 39.1086 25.5433C39.8571 24.9209 40.6265 24.3382 41.3954 23.8114C41.6536 23.6351 41.7193 23.2824 41.543 23.0249C41.3678 22.7678 41.0146 22.7015 40.7564 22.8773Z" fill="black"/>
<path d="M47.8243 47.4435L53.0672 44.4166C53.338 44.2601 53.4309 43.9141 53.2744 43.6432C53.1175 43.3718 52.7698 43.2789 52.5011 43.4359L48.3139 45.8534C49.2586 43.4276 51.0061 41.1374 53.0296 39.9695C53.3004 39.8131 53.3933 39.467 53.2369 39.1962C53.0793 38.9253 52.7327 38.8319 52.4635 38.9889C49.8911 40.4735 47.6996 43.5985 46.8333 46.7083L45.377 47.5491C45.1061 47.7055 45.0133 48.0516 45.1697 48.3224C45.3265 48.594 45.6736 48.6853 45.943 48.5297L46.5237 48.1945C46.3997 49.1099 46.4094 49.7274 46.5113 50.4464L45.1271 51.2455C44.8563 51.4019 44.7634 51.748 44.9199 52.0188C45.0767 52.2904 45.4238 52.3817 45.6932 52.2261L46.7895 51.5931C47.6624 53.994 50.1263 54.9132 53.0672 53.2156C53.338 53.0591 53.4309 52.7131 53.2744 52.4422C53.1175 52.1708 52.7698 52.0785 52.5011 52.2349C51.138 53.0215 49.8854 53.1653 48.9733 52.6423C48.4181 52.3224 48.0366 51.7455 47.8074 51.0054L52.8173 48.1129C53.0882 47.9565 53.181 47.6105 53.0246 47.3396C52.8676 47.0682 52.5216 46.9759 52.2513 47.1323L47.5991 49.8183C47.5907 49.685 47.5653 49.567 47.5649 49.4269C47.5631 48.7859 47.67 48.1166 47.8243 47.4435Z" fill="black"/>
<path d="M49.7887 32.6939C42.4971 36.9038 36.5841 47.1406 36.6079 55.5134C36.6319 64.1365 42.8778 67.7648 50.4387 63.4004C57.7248 59.1938 63.6328 48.9542 63.6091 40.5743C63.5852 32.0072 57.3779 28.3129 49.7887 32.6939ZM49.8727 62.4198C43.0928 66.335 37.7617 63.2778 37.7399 55.5101C37.7173 47.4988 43.376 37.7031 50.3547 33.6745C57.0956 29.7819 62.4551 32.7615 62.477 40.5776C62.4997 48.5961 56.8454 58.3945 49.8727 62.4198Z" fill="black"/>
</svg>
