<svg width="93" height="92" viewBox="0 0 93 92" fill="none" xmlns="http://www.w3.org/2000/svg">
<path d="M75.0377 23.2781C77.8686 16.2279 74.4376 8.18432 67.3874 5.34577C63.9631 3.96591 60.2101 4.00235 56.818 5.45002C53.4379 6.89176 50.8222 9.5608 49.4491 12.9672C49.439 12.9876 49.4288 13.0079 49.4203 13.0291C49.0634 13.912 48.9535 14.8874 49.0901 15.893C46.3609 16.16 43.4951 17.1125 40.5377 18.8181C38.9271 19.7523 37.3102 20.9122 35.7205 22.2323C30.6163 20.9754 25.1878 22.4652 21.4382 26.2116C15.9427 31.7062 15.4795 40.2664 20.25 46.2913C19.8996 47.4671 19.5892 48.6855 19.3447 49.9345C19.2515 50.405 19.5583 50.8618 20.0279 50.9542C20.5025 51.0398 20.9534 50.7406 21.0467 50.2702C21.2094 49.4413 21.3992 48.6242 21.6111 47.8266C22.9283 49.041 25.0703 49.8054 27.9726 49.3587C28.4358 49.2873 28.9071 49.1963 29.3936 49.0658C31.2818 48.5608 33.3609 47.5374 35.0097 46.4247C32.6109 51.6665 30.7605 58.0002 30.8193 63.7637C30.8193 66.931 31.4561 70.7663 33.1264 73.7203C32.711 73.479 26.0784 69.6278 26.2542 69.7298C23.2131 67.9787 21.2653 64.6138 20.6212 59.9979C20.5534 59.5224 20.1058 59.1868 19.6414 59.2588C19.1667 59.3249 18.8362 59.764 18.9023 60.2386C19.6227 65.4038 21.8654 69.206 25.3846 71.2326L27.6025 72.5205L24.5065 79.3075C23.3622 81.8477 23.6504 84.2583 25.2117 85.172C29.2975 87.5266 29.3382 87.663 30.2141 87.663C30.8464 87.663 31.5228 87.4647 32.1652 87.0849C33.3925 86.3908 34.5419 85.0541 35.2369 83.5132L37.6066 78.3117C37.6134 78.3149 37.6203 78.3147 37.6272 78.3177C42.6769 81.2293 48.6927 79.7044 53.7142 76.8046C55.9852 75.4913 58.1752 73.8241 60.2348 71.8913L61.6425 73.3346C63.2979 75.0859 66.0297 73.7252 67.6484 71.4352C69.447 68.9136 69.7386 65.9284 68.3299 64.4969L67.3131 63.4451C72.3533 55.9016 75.5887 46.905 75.5682 38.9211C75.5532 33.6436 74.1585 29.415 71.5303 26.5697C73.2079 25.8551 74.4426 24.7302 75.0377 23.2781ZM41.4073 20.3209C44.245 18.6842 46.9742 17.7561 49.5322 17.5552C49.5386 17.5713 49.5497 17.5877 49.5561 17.6039C50.6374 20.3056 53.228 22.6923 55.7662 24.2323C55.8075 24.2573 55.8442 24.2856 55.8857 24.3104C55.3438 24.5347 53.8134 25.2485 52.7089 25.881C50.1323 27.3592 47.5879 29.3451 45.1672 31.7675C45.0061 31.92 44.8451 32.0802 44.684 32.2446C44.69 32.1897 44.6824 32.1411 44.6875 32.0866C44.7384 31.547 44.7542 31.0237 44.7218 30.5245C44.474 26.7299 41.3691 24.2973 37.8667 22.893C37.8177 22.8734 37.7713 22.8471 37.722 22.828C38.9459 21.8719 40.1817 21.032 41.4073 20.3209ZM28.9444 47.3893C26.7839 47.9689 24.2539 48.0234 22.6655 46.434C17.3872 41.1556 17.3793 32.726 22.6655 27.4389C25.2117 24.8927 28.6393 23.512 32.1432 23.512C37.2572 23.512 43.3994 26.6385 42.9844 31.7921C42.4878 37.9387 35.7583 45.5661 28.9444 47.3893ZM26.0847 83.6709C25.4592 83.3056 25.2846 81.807 26.0881 80.0246L29.1106 73.3965C29.2845 73.4975 31.4547 74.7575 31.2808 74.6565L28.1901 81.4375C27.766 82.3564 27.4799 83.445 27.5008 84.4788C27.5008 84.4815 27.5001 84.4845 27.5001 84.4871L26.0847 83.6709ZM33.6553 82.7962C33.1061 84.0167 32.228 85.055 31.2973 85.5822C29.131 86.8585 28.7427 84.3784 29.7683 82.1596L32.7897 75.5327C32.9654 75.6348 36.2974 77.5702 36.0912 77.4505L33.6553 82.7962ZM66.3347 64.93L67.0873 65.7089C67.7773 66.4099 67.5959 68.5203 66.2347 70.4283C66.2347 70.4291 66.233 70.4299 66.233 70.4308C65.4585 71.5238 63.7193 73.0034 62.8952 72.1319L61.4831 70.6834C62.5972 69.5608 64.8701 66.9603 66.3347 64.93ZM73.8324 38.9261C73.8581 48.5609 68.9946 59.2315 62.7951 66.6569C60.1275 69.8588 56.6017 73.1302 52.8463 75.3018C47.2403 78.5362 42.0599 79.027 38.2509 76.686C33.9581 74.003 32.5721 68.806 32.5721 63.7391C32.5176 57.6183 34.594 51.089 37.3541 45.5686C37.6776 44.937 38.0183 44.307 38.358 43.689C40.6129 41.5198 42.6138 38.759 43.7351 35.8814C44.2863 35.2351 44.8373 34.6003 45.4062 34.0008C45.7232 33.6644 46.0436 33.3287 46.3775 33.0109C48.7067 30.6809 51.1291 28.7891 53.5718 27.3872C55.5194 26.272 56.3963 26.0081 56.5988 25.925C57.0621 25.7348 57.5241 25.5493 57.9751 25.4008C61.2987 26.9338 65.3905 27.8053 68.8723 27.3168C69.152 27.2702 69.425 27.2227 69.6894 27.1668C72.3491 29.6383 73.8171 33.7915 73.8324 38.9261ZM73.4289 22.6254C72.895 23.9299 71.5761 24.9063 69.6979 25.3801C62.9664 27.2159 52.603 22.0212 50.9731 16.4101C50.9729 16.4093 50.9718 16.4088 50.9716 16.408C50.9716 16.4079 50.9716 16.4081 50.9716 16.408C50.6868 15.4401 50.7036 14.5056 51.0206 13.7038C51.0307 13.6834 51.0392 13.6631 51.0477 13.6419C52.2462 10.6516 54.5363 8.31061 57.4978 7.04687C60.4626 5.78228 63.7445 5.74922 66.7398 6.95618C72.9018 9.43705 75.9022 16.4686 73.4289 22.6254Z" fill="white"/>
<path d="M20.4075 56.6822C20.4024 55.5566 20.4685 54.3742 20.6024 53.1672C20.655 52.6909 20.3126 52.262 19.8362 52.2086C19.3446 52.1544 18.9293 52.4985 18.8768 52.9757C18.7361 54.2488 18.6666 55.4981 18.6716 56.689C18.6733 57.167 19.0615 57.5535 19.5396 57.5535C20.0752 57.5832 20.4092 57.1628 20.4075 56.6822Z" fill="white"/>
<path d="M62.024 28.5365C59.7559 28.5365 57.1436 29.3519 54.4703 30.8953C49.269 33.8987 44.5078 39.2852 41.1245 45.3732C41.1116 45.3922 41.0919 45.4034 41.0802 45.4237C41.0659 45.4489 41.0657 45.4769 41.0542 45.5029C37.4815 51.9795 36.0425 58.1621 36.0558 62.7661C36.0761 69.9002 39.1901 74.1593 44.3858 74.1593C52.1057 74.1593 60.0827 65.965 64.3953 58.8428C64.4127 58.8185 64.4414 58.808 64.4566 58.7816C64.4717 58.7549 64.4721 58.7253 64.4842 58.6978C68.0765 52.7159 70.3606 45.9022 70.3439 39.9178C70.3235 32.7914 67.2129 28.5365 62.024 28.5365ZM52.9408 69.0948L52.9345 66.7616C52.9328 66.2836 52.5446 65.8962 52.0666 65.8962C51.5869 65.8979 51.197 66.287 51.1987 66.7667L51.2079 70.2115C51.1637 70.2374 51.1208 70.2697 51.0766 70.2952C48.6644 71.6878 46.3505 72.4235 44.3858 72.4235C43.7389 72.4235 43.1506 72.3101 42.5909 72.1443L44.4061 68.9831C44.6452 68.567 44.5011 68.0372 44.0858 67.7982C43.6738 67.5601 43.1399 67.6999 42.9008 68.1186L41.0291 71.3782C38.9644 69.9244 37.8033 66.9798 37.7916 62.761C37.7904 62.3732 37.822 61.9742 37.8409 61.5793L40.7344 59.9089C41.1497 59.6691 41.2921 59.1385 41.0514 58.7232C40.8124 58.307 40.2801 58.1646 39.8665 58.4053L38.0295 59.4657C38.5605 55.3826 40.0317 51.0746 42.1618 47.0387L43.7738 47.9572C44.1865 48.1918 44.7161 48.0524 44.9571 47.6325C45.1944 47.2164 45.0486 46.6858 44.6316 46.4485L42.9911 45.5138C45.7065 40.8229 49.2851 36.6364 53.2198 33.7921L53.2261 36.1393C53.2278 36.6174 53.616 37.0047 54.094 37.0047C54.5737 37.003 54.9636 36.614 54.9619 36.1342L54.9526 32.6448C55.082 32.5668 55.2084 32.4739 55.3383 32.3989C57.7471 31.008 60.0593 30.2723 62.024 30.2723C62.9178 30.2723 63.7174 30.4735 64.4471 30.8034L62.5444 34.1161C62.3054 34.5315 62.4495 35.062 62.8648 35.3011C63.276 35.5375 63.808 35.4005 64.0497 34.9807L65.912 31.7382C67.6335 33.3271 68.5974 36.1499 68.608 39.9229C68.6099 40.5557 68.5784 41.2003 68.5277 41.8506L65.4448 43.6302C65.0295 43.8701 64.8871 44.4007 65.1278 44.816C65.3641 45.2295 65.895 45.3737 66.3128 45.1339L68.2732 44.0021C67.5817 48.377 65.8437 52.9784 63.4104 57.1857L61.7646 56.2474C61.351 56.0126 60.8204 56.155 60.5797 56.572C60.3424 56.9882 60.4882 57.5179 60.9035 57.7561L62.5013 58.6671C59.8573 62.8518 56.5491 66.5499 52.9408 69.0948Z" fill="white"/>
<path d="M58.8623 41.7308C58.4639 41.4774 57.9249 41.591 57.6638 41.9969L54.3182 47.246C53.7894 47.1921 53.2146 47.3117 52.6478 47.6393C51.1357 48.5123 49.9559 50.5558 49.9627 52.2908C49.9644 53.2901 50.3644 54.0928 51.0594 54.4929C51.3663 54.6692 51.7138 54.7573 52.0782 54.7573C52.1272 54.7573 52.1795 54.7381 52.2291 54.7349V63.3577C52.2291 63.8375 52.6173 64.2257 53.097 64.2257C53.5768 64.2257 53.965 63.8375 53.965 63.3577V54.0329C55.2599 53.0507 56.2206 51.2439 56.2144 49.6794C56.2134 49.0842 56.0559 48.5732 55.7937 48.1612L59.1284 42.9293C59.3861 42.525 59.2674 41.9885 58.8623 41.7308ZM52.6631 52.8291C52.2884 53.046 52.0325 53.0486 51.9257 52.9884C51.8223 52.9282 51.7002 52.7087 51.6985 52.2858C51.6951 51.1729 52.5444 49.704 53.5157 49.1429C53.7632 48.9997 53.9582 48.9497 54.0938 48.9497C54.158 48.9497 54.2041 48.9627 54.2395 48.981L54.2413 48.9827C54.245 48.9851 54.2496 48.9839 54.2534 48.9862C54.358 49.0471 54.4769 49.2651 54.4786 49.6845C54.482 50.7991 53.6344 52.2688 52.6631 52.8291Z" fill="white"/>
<path d="M66.2364 8.01654C65.5273 7.738 64.788 7.68779 64.0852 7.80623C62.7345 8.03222 61.5279 8.9172 60.9814 10.2694C60.9797 10.2737 60.978 10.2813 60.978 10.2813C60.6831 11.0424 60.856 11.8917 61.4679 12.6757C61.7055 12.9785 61.9987 13.2576 62.3301 13.506C63.324 14.2513 64.6603 14.7201 65.8669 14.7201C66.0584 14.7201 66.2483 14.7082 66.4314 14.6836C66.4348 14.6828 66.4382 14.6828 66.4415 14.6819C66.6903 14.6455 66.9232 14.5863 67.1373 14.5062C67.78 14.2659 68.2533 13.8385 68.4757 13.2809C68.6835 12.766 68.7766 12.2322 68.7672 11.7081C68.7397 10.1367 67.7891 8.65106 66.2364 8.01654ZM66.6594 12.8231C66.5484 12.8824 66.3942 12.9336 66.1987 12.9629C66.129 12.9724 66.0469 12.9536 65.974 12.9571C65.7522 12.9667 65.5284 12.9747 65.2919 12.9361C65.1331 12.9098 64.9746 12.8474 64.8148 12.8016C64.6625 12.7582 64.5083 12.7323 64.3601 12.6729C63.7455 12.4258 63.183 12.0492 62.8359 11.6061C62.7345 11.4759 62.5088 11.1504 62.595 10.915C62.5979 10.9078 62.6036 10.9028 62.6066 10.8957C62.7137 10.639 62.8711 10.4196 63.0511 10.226C63.1075 10.1655 63.1721 10.1158 63.2341 10.0621C63.3804 9.93536 63.539 9.82698 63.7104 9.74063C63.7841 9.70365 63.8563 9.66509 63.9333 9.63606C64.1443 9.5566 64.3654 9.50818 64.5919 9.49208C64.6345 9.48911 64.6748 9.47407 64.7177 9.47343C65.0087 9.46919 65.3042 9.5156 65.5889 9.6278C66.767 10.1092 67.34 11.456 66.8636 12.6342C66.8399 12.6952 66.7708 12.7632 66.6594 12.8231Z" fill="white"/>
<path d="M26.9204 27.972C24.8608 28.8145 23.8607 31.1733 24.6913 33.2321C24.993 33.9788 25.7338 34.489 26.7357 34.6348C28.4481 34.8647 30.631 33.988 31.7008 32.626C32.3094 31.8471 32.484 30.9987 32.1873 30.2198C31.3533 28.1652 28.9936 27.1574 26.9204 27.972ZM30.3345 31.5547C29.6361 32.4438 28.0799 33.0583 26.9764 32.9159C26.5797 32.8583 26.3509 32.7066 26.3017 32.5828C26.3017 32.582 26.3017 32.5837 26.3017 32.5828C25.7039 31.1044 26.7725 29.4163 28.4393 29.4163C29.3547 29.4163 30.2074 29.9587 30.5718 30.8563C30.66 31.0877 30.4599 31.3945 30.3345 31.5547Z" fill="white"/>
</svg>
