<svg width="93" height="92" viewBox="0 0 93 92" fill="none" xmlns="http://www.w3.org/2000/svg">
<path d="M58.4034 20.337C57.6847 20.8684 56.9608 21.3948 56.2302 21.9177C55.8403 22.1975 55.7505 22.7391 56.0302 23.1289C56.312 23.5221 56.8551 23.6061 57.2405 23.3298C57.9779 22.8018 58.7085 22.2686 59.4341 21.7321C59.8206 21.4473 59.9019 20.904 59.6172 20.5184C59.3307 20.1327 58.7865 20.0522 58.4034 20.337Z" fill="white"/>
<path d="M17.1466 77.2259C21.9576 80.0032 25.8316 79.1991 28.0363 76.8453C34.6363 71.5453 41.2522 66.7933 47.9289 62.5348C48.9164 68.0034 51.2715 71.7969 54.8165 73.505C55.2515 73.7132 55.7757 73.53 55.9828 73.0837L59.8766 64.563C62.9025 64.9876 73.7651 66.2539 76.7164 63.0331C76.9299 62.8 76.9994 62.4686 76.8977 62.1694C76.7977 61.8694 76.5401 61.6482 76.2298 61.5922C69.9258 60.4552 65.507 57.9482 62.7146 53.9801C69.5676 50.4178 76.5176 47.3415 83.6174 44.7406C83.9513 44.6185 84.387 44.4414 84.7853 44.1566C86.9619 42.6089 88.1604 39.7475 88.1604 36.102C88.1926 28.2797 82.6681 18.7054 75.845 14.7599C72.6412 12.9071 69.5204 12.5155 67.0624 13.6538C66.6166 13.8606 66.2487 14.1471 65.9775 14.3734C64.301 15.7787 62.5295 17.1984 60.7123 18.5944C60.3326 18.8859 60.2614 19.4309 60.553 19.8115C60.8462 20.1921 61.3887 20.2607 61.7701 19.9708C63.6076 18.5605 65.3977 17.1247 67.0929 15.7041C67.2811 15.5465 67.5303 15.3498 67.7913 15.2286C69.7221 14.3336 72.2733 14.7014 74.9771 16.2627C81.3187 19.9302 86.4534 28.8272 86.4246 36.0986C86.4246 39.1694 85.4854 41.5291 83.7767 42.7428C83.5462 42.9081 83.2512 43.0268 83.0207 43.1107C75.899 45.7197 68.9286 48.8064 62.0555 52.3717C61.4949 44.9985 56.3259 36.6637 49.8005 32.8888C48.2249 31.9783 46.6902 31.4376 45.2423 31.2332C48.5593 29.2154 51.7598 27.1492 54.8369 25.0207C55.2318 24.7478 55.3302 24.2079 55.0572 23.8129C54.786 23.418 54.2436 23.3213 53.8503 23.5934C49.5592 26.5614 45.026 29.4087 40.2528 32.1656L27.3854 39.0533C27.3449 39.0729 27.3073 39.0958 27.2678 39.1165C17.3504 44.039 8.17855 47.7124 8.76397 47.4927C8.76069 47.4946 8.75889 47.498 8.7556 47.4999C6.24157 48.9597 4.84984 51.9385 4.83967 55.8956C4.81763 63.7273 10.3371 73.2956 17.1466 77.2259ZM73.6549 62.8144C70.2561 63.8248 63.6415 63.3993 59.4918 62.7517C59.0985 62.6941 58.7307 62.8958 58.5679 63.2484L54.7911 71.5132C52.0302 69.8012 50.2561 66.4638 49.5058 61.5743C59.8275 55.5765 60.3487 55.2457 61.1501 54.8195C63.8337 58.7202 68.03 61.4018 73.6549 62.8144ZM48.9326 34.3916C55.2284 38.0337 60.1698 46.2289 60.3665 53.2435L59.7121 53.6244C56.7342 55.2175 53.9006 56.8237 50.5731 58.8505C50.0918 59.1437 49.6086 59.4268 49.1279 59.725C48.517 52.3161 43.4259 44.0405 37.0105 40.3306C35.4129 39.4079 33.7616 38.8155 32.2037 38.5561C35.3539 36.9186 38.4108 35.2511 41.3593 33.5432C43.3177 32.4017 46.0093 32.7026 48.9326 34.3916ZM27.8508 40.7596C27.8692 40.7513 27.8894 40.7522 27.9075 40.7425L28.1821 40.5951C30.0858 39.6737 33.232 40.1526 36.1426 41.8334C42.3859 45.4449 47.2707 53.7037 47.4392 60.8125C41.5904 64.5221 35.7865 68.5813 30.0044 73.0778C30.2039 72.2976 30.4046 70.8999 30.4078 69.6612C30.43 61.712 24.7825 52.1922 18.0908 48.3208C17.011 47.6974 15.5032 47.0955 14.6665 46.8799C19.2618 44.8891 23.636 42.8475 27.8508 40.7596ZM17.2245 49.8286C23.4794 53.4398 28.6977 62.3241 28.6686 69.6595C28.6686 76.2163 24.2994 79.3518 18.0145 75.7223C11.6864 72.0692 6.55517 63.1772 6.57551 55.9007C6.59322 48.9387 11.3104 46.4221 17.2245 49.8286Z" fill="white"/>
<path d="M18.6704 72.7608C22.8731 75.1919 25.7732 73.6982 25.7732 68.7424C25.7884 62.989 21.5709 55.6829 16.5634 52.7875C12.482 50.4218 9.47587 51.79 9.47587 56.8178C9.46061 62.5746 13.6697 69.8757 18.6704 72.7608ZM15.6937 54.2895C20.23 56.9136 24.0526 63.5307 24.0373 68.7399V68.7424C24.0373 72.3329 22.4878 72.9635 19.5384 71.2572C15.0106 68.6441 11.1965 62.0338 11.2117 56.8203C11.2117 53.5018 12.5402 52.4623 15.6937 54.2895Z" fill="white"/>
</svg>
