<svg width="93" height="92" viewBox="0 0 93 92" fill="none" xmlns="http://www.w3.org/2000/svg">
<path d="M36.5817 14.0612C35.8909 14.5596 35.212 15.097 34.5483 15.6674C34.1847 15.9801 34.1432 16.5285 34.4551 16.8913C34.7702 17.2577 35.3186 17.2945 35.679 16.9845C36.3053 16.4463 36.9453 15.9395 37.5971 15.4699C37.9861 15.1894 38.0734 14.6469 37.7937 14.2579C37.5123 13.8714 36.9715 13.7824 36.5817 14.0612Z" fill="white"/>
<path d="M82.9893 18.5034L70.3874 11.1956C67.1658 9.32834 62.9541 9.70891 58.5314 12.2703C57.73 12.7305 56.9541 13.255 56.2027 13.8124L52.0576 11.4049C48.4639 9.31139 43.7717 9.73603 38.843 12.6026C38.4293 12.8433 38.2878 13.3747 38.5294 13.7892C38.7692 14.2036 39.3007 14.3409 39.716 14.1028C44.0819 11.5668 48.1553 11.1396 51.1855 12.906L59.2604 17.594C56.1169 17.7244 51.86 19.632 49.6462 21.3733C41.5694 27.0509 35.4195 37.8051 34.1441 47.0885L22.9465 40.5877C23.7882 33.1944 27.7448 25.0483 33.3616 19.1959C33.693 18.8501 33.682 18.3009 33.3362 17.9686C32.9912 17.6372 32.4403 17.6474 32.1089 17.994C26.2383 24.1111 22.1251 32.6424 21.2441 40.402C20.1401 40.7268 19.0473 41.1683 17.9975 41.7806C10.7244 45.9804 4.82184 56.2158 4.83964 64.5992C4.85829 68.8142 6.33054 71.9884 8.98686 73.5387C17.8955 78.7097 21.5481 80.8583 21.7684 80.9541C24.83 82.804 28.6915 81.9019 31.8021 80.0989C38.5606 76.194 45.5366 72.1623 52.1572 68.3246L66.1851 76.4213C66.4537 76.576 66.7833 76.5762 67.0522 76.4213C67.7372 76.0238 76.4228 70.9841 76.2374 71.0917C76.5044 70.9366 76.6689 70.6509 76.6697 70.3424L76.7095 53.4578C83.483 47.3356 88.178 37.4618 88.1604 29.2864C88.1463 24.9101 86.7619 20.698 82.9893 18.5034ZM57.8373 14.7605C58.3458 14.4088 58.8671 14.079 59.3985 13.7739C63.2635 11.5363 66.8573 11.154 69.5161 12.6975L77.8436 17.5262C77.8292 17.527 77.8148 17.5287 77.8004 17.5296C74.2446 17.8868 70.8687 19.7244 68.1261 21.9683C67.1709 20.5029 65.9546 19.3832 64.5205 18.6433L57.8373 14.7605ZM9.85987 72.0384C7.75787 70.812 6.59159 68.1667 6.57549 64.5933C6.55938 56.7658 12.0721 47.2068 18.8688 43.2825C19.8537 42.7078 20.8717 42.273 21.8989 41.9874L21.9214 42.0004L32.7453 48.2985C32.2938 48.4837 31.4628 48.8829 30.8435 49.2444C23.5526 53.4442 17.65 63.6804 17.6856 72.0588C17.6856 73.4058 17.9791 75.9088 18.5951 77.1095L9.85987 72.0384ZM66.9988 42.0849L51.6275 33.2145L51.6546 31.025L68.8813 40.9889L66.9988 42.0849ZM66.5665 43.8394C66.8442 43.9983 67.1756 43.9906 67.437 43.8377L71.0477 41.7374C71.3147 41.5822 71.4791 41.2958 71.4791 40.9864C71.4791 40.677 71.3138 40.3905 71.046 40.2363L52.5362 29.5291L53.4968 28.9711L74.1405 40.9031L66.7046 45.2259C56.61 39.3917 54.8959 38.401 46.0635 33.2963L47.1781 32.6513C73.7481 47.9835 64.5841 42.6954 66.5665 43.8394ZM45.1134 62.2539L45.1939 34.7989L65.8359 46.73L65.7545 74.1684C51.1738 65.7521 73.9788 78.9156 45.1134 62.2539ZM67.4915 74.1593L67.572 46.7304L74.9987 42.4131L74.9678 53.0839C74.9678 53.0917 74.9738 53.0976 74.974 53.1053L74.9347 69.8406L67.4915 74.1593ZM76.7153 51.0654C76.7274 45.8098 76.7386 40.6414 76.7392 40.8991C76.7385 40.5935 76.5754 40.3053 76.3053 40.149L53.9299 27.2166C53.6604 27.0615 53.3281 27.0606 53.0603 27.2174L50.3692 28.7795C50.1631 28.8991 49.9409 29.2421 49.937 29.5195L49.9036 32.2196L47.6112 30.8968C47.3434 30.7425 47.012 30.7417 46.7424 30.8976C46.4669 31.0571 47.7707 30.3024 43.8971 32.5445C43.6267 32.7011 43.4631 32.9893 43.4623 33.2946L43.3758 62.7523C43.375 63.0634 43.5403 63.3516 43.8098 63.5067L50.4223 67.3233C44.1898 70.9352 37.9613 74.5353 30.9291 78.5987C27.7744 80.4295 24.7561 80.7439 22.6499 79.4582L22.649 79.4599C20.3523 78.0147 19.4214 74.7024 19.4214 72.0554C19.3875 64.2288 24.9002 54.6706 31.7139 50.7463C33.3412 49.7969 35.282 49.2938 35.1024 49.3447C35.4436 49.248 35.7067 48.9581 35.7357 48.5884C36.4036 40.0645 42.2064 28.7452 50.6778 22.7693C56.0965 18.5656 63.8861 17.5683 67.1361 23.705C67.4128 24.2282 68.0917 24.2924 68.4795 23.9474C69.6619 22.8964 70.8875 22.0107 72.2292 21.236C75.1325 19.5432 78.8991 18.4255 81.9163 19.9316C84.7658 21.3081 86.4093 24.7196 86.4245 29.2906C86.4398 36.5358 82.5162 45.2189 76.7153 51.0654Z" fill="white"/>
<path d="M48.5309 40.6169C48.263 40.4626 47.9325 40.4634 47.6646 40.6177C47.3968 40.772 47.2307 41.0568 47.2298 41.3661L47.1951 50.1835C47.1942 50.4946 47.3595 50.7828 47.629 50.9387L62.4185 59.4798C62.5524 59.5569 62.7024 59.5959 62.8525 59.5959C63.3301 59.5959 63.7191 59.209 63.7204 58.7314L63.7543 49.9131C63.7551 49.6021 63.5899 49.3139 63.3203 49.1579L48.5309 40.6169ZM61.9905 57.2278L48.9326 49.6868L48.9597 42.8663L62.0167 50.4098L61.9905 57.2278Z" fill="white"/>
<path d="M60.3012 61.0224L51.4939 55.9378C51.0778 55.697 50.5489 55.8403 50.3082 56.2556C50.0683 56.6709 50.2107 57.2015 50.626 57.4414L59.4332 62.526C59.8439 62.7633 60.3764 62.6269 60.619 62.2082C60.8589 61.7929 60.7165 61.2623 60.3012 61.0224Z" fill="white"/>
</svg>
