<svg width="93" height="92" viewBox="0 0 93 92" fill="none" xmlns="http://www.w3.org/2000/svg">
<path d="M72.2398 24.34C71.8261 24.1044 71.2939 24.2434 71.0548 24.6579C70.8141 25.0732 70.9565 25.6038 71.3718 25.8436L74.9198 27.8914C75.3388 28.1319 75.8687 27.9854 76.1047 27.5736C76.3455 27.1582 76.2031 26.6277 75.7878 26.3878L72.2398 24.34Z" fill="white"/>
<path d="M6.18435 46.9086L8.36995 48.1712L8.30331 78.0115C8.30331 78.7853 8.77796 79.5024 9.61028 79.9821C11.0592 80.8025 13.2843 80.7877 14.672 79.9796C15.501 79.5024 15.9756 78.7921 15.9756 78.031L16.0236 52.5927L18.7625 54.1749C20.2066 55.0153 22.4901 55.0184 23.9565 54.1749L40.2046 44.7264L40.1555 66.8327C40.1555 67.5921 40.6115 68.2872 41.4624 68.8033C42.1693 69.2034 43.0745 69.4043 43.9831 69.4043C44.9002 69.4043 45.819 69.2 46.5428 68.7906C47.3718 68.2872 47.8278 67.5921 47.8278 66.8353L47.8955 40.6266C48.6855 40.5367 49.5408 40.6367 50.1264 40.9772L69.1021 51.928C70.5769 52.7823 72.8671 52.7823 74.3147 51.928L77.0031 50.3694L76.9372 78.0115C76.9372 78.7845 77.4118 79.5007 78.2458 79.9821C78.9747 80.3949 79.8817 80.6008 80.7852 80.6008C81.6921 80.6008 82.5956 80.3932 83.3093 79.9787C84.1365 79.5007 84.6112 78.7904 84.6112 78.031L84.6796 45.9186L86.8301 44.6718C87.6421 44.1845 88.1066 43.486 88.1422 42.669C88.1599 35.1651 88.1696 34.958 88.1447 34.6979C88.1143 33.9372 87.6399 33.2314 86.8166 32.7557L79.6155 28.5983C79.2019 28.3601 78.6696 28.5016 78.4306 28.9161C78.1899 29.3314 78.3323 29.862 78.7476 30.1019L85.9487 34.2593C86.5145 34.585 86.5882 34.8937 85.9656 35.2687C85.7905 35.3705 72.6452 43.0113 73.4688 42.5325C72.6964 42.98 71.0089 43.1144 69.9971 42.5308L51.0249 31.5775C49.5585 30.7299 47.2701 30.7316 45.8139 31.5792L23.1165 44.7689C23.1018 44.7773 23.0811 44.7799 23.0662 44.788C22.0838 45.3296 20.4261 45.2145 19.6524 44.765C19.4787 44.6649 6.22763 37.0227 7.06923 37.508C6.43609 37.1432 6.48454 36.8438 7.06923 36.502L46.5869 13.5367C47.5091 13.0027 49.1246 12.9994 50.0467 13.5316L67.7002 23.7238C68.1155 23.9628 68.6478 23.823 68.8851 23.406C69.1258 22.9907 68.9834 22.4601 68.5681 22.2202L50.9147 12.028C49.4568 11.1864 47.1734 11.1898 45.7156 12.0365L6.19792 35.0017C5.35203 35.4933 4.86891 36.2257 4.86891 37.0105C4.86891 37.0323 4.87812 37.0527 4.87886 37.0744L4.84009 44.8964C4.84009 45.6898 5.31643 46.4034 6.18435 46.9086ZM14.2398 78.0293C14.2398 78.1081 14.1245 78.292 13.8041 78.4768C12.9277 78.9845 11.3716 78.9837 10.4714 78.4743C10.1544 78.292 10.0392 78.0979 10.0392 78.0132L10.1036 49.1727L14.2889 51.5905L14.2398 78.0293ZM45.6631 67.293C44.7748 67.799 43.2101 67.7998 42.3422 67.3057C42.0117 67.1056 41.8913 66.9132 41.8913 66.8344L41.9422 43.716L46.158 41.2643L46.0919 66.8327C46.0919 66.9132 45.9716 67.1056 45.6631 67.293ZM82.8753 78.0293C82.8753 78.1081 82.76 78.2912 82.4397 78.4768C81.5463 78.993 80.0173 78.9913 79.107 78.4751C78.7883 78.2912 78.673 78.0971 78.673 78.0132L78.7408 49.3666C78.9148 49.2655 83.2147 46.7676 82.9414 46.9264L82.8753 78.0293ZM85.947 43.1767C84.7168 43.89 73.2559 50.5353 73.4383 50.4294C72.5229 50.9677 70.9041 50.9668 69.9717 50.4252L50.9977 39.4753C49.8446 38.8038 48.1885 38.6831 46.8172 39.0715C46.4779 39.1394 46.1292 39.27 45.7783 39.4719C15.9571 56.821 25.1379 51.4799 23.0885 52.6721C22.1613 53.2036 20.5492 53.2061 19.6321 52.673C8.67786 46.344 11.2631 47.8376 7.05567 45.4067C6.70138 45.2007 6.57594 45.0032 6.57594 44.9007L6.60475 39.249C6.77843 39.3492 19.6051 46.7494 18.7879 46.278C20.3826 47.198 22.7159 47.0087 23.9955 46.2678L46.6988 33.0837C47.6108 32.5463 49.2297 32.5438 50.1654 33.0879L69.1292 44.0438C70.6131 44.8795 73.082 44.755 74.3351 44.0378C74.5089 43.9368 87.2319 36.5406 86.4199 37.0126L86.4063 42.6291C86.3996 42.8063 86.2284 43.008 85.947 43.1767Z" fill="white"/>
</svg>
