<svg width="93" height="92" viewBox="0 0 93 92" fill="none" xmlns="http://www.w3.org/2000/svg">
<path d="M15.4064 26.6209C14.741 27.8397 14.1172 29.0865 13.5527 30.3274C13.3544 30.763 13.5468 31.2784 13.9833 31.4767C14.0994 31.5301 14.2214 31.5547 14.3418 31.5547C14.6715 31.5547 14.9868 31.3657 15.1326 31.0461C15.6801 29.8443 16.2853 28.6348 16.9303 27.4515C17.16 27.0311 17.0049 26.5039 16.5837 26.2742C16.1658 26.0446 15.6369 26.1988 15.4064 26.6209Z" fill="white"/>
<path d="M80.7746 66.67C82.4943 65.6766 83.8369 63.3509 83.8309 61.3743C83.8284 60.2623 83.3885 59.3723 82.624 58.9324C82.6044 58.9212 79.9585 57.4032 79.0701 56.8935L81.6637 51.6644C81.8679 51.2542 81.7171 50.7558 81.3204 50.527L67.3912 42.4851C67.1844 42.3656 66.9352 42.3351 66.7064 42.4063C66.4767 42.4758 66.286 42.6368 66.18 42.8512L63.5908 48.071L61.9386 47.1266C65.218 40.4052 67.0254 33.363 67.0098 27.2074C66.9951 19.8288 64.4617 14.3258 59.8991 11.5819C59.8514 11.5367 59.8111 11.4854 59.752 11.4509L50.443 6.03396C45.7067 3.29881 39.4846 3.88025 32.9073 7.6859C29.0771 10.01 25.5673 12.9621 22.4761 16.4635C20.6665 18.5239 18.9731 20.7836 17.4415 23.1806C17.1838 23.584 17.3016 24.1205 17.7059 24.379C18.1068 24.635 18.6451 24.518 18.9044 24.1146C20.3885 21.7922 22.0295 19.6038 23.7789 17.6111C26.753 14.2428 30.1273 11.4025 33.7922 9.17849C39.7931 5.70594 45.3973 5.12535 49.5725 7.53587L53.3586 9.73959C47.6566 9.68722 41.8023 12.8445 37.4095 16.4222C37.4081 16.4233 37.4068 16.4243 37.4054 16.4253C37.2645 16.599 20.4934 29.7591 18.6433 50.9112C18.199 55.6349 18.6875 61.1905 21.1056 65.3054L17.3008 63.0915C13.19 60.6979 10.9185 55.6277 10.9049 48.8148C10.8922 44.4481 11.8347 39.5635 13.6316 34.689C13.7969 34.239 13.5672 33.7406 13.1171 33.5745C12.6688 33.4117 12.1704 33.6397 12.0026 34.0889C10.1353 39.1549 9.15552 44.2489 9.16908 48.8191C9.18349 56.2736 11.7618 61.8752 16.4278 64.5917L22.0299 67.8518L18.6171 79.4312C18.0212 81.3484 18.434 83.0521 19.6689 83.7708L25.5071 87.173C26.3431 87.7904 27.5398 87.8767 28.7881 87.1391C30.184 86.3263 31.4156 84.6769 31.9258 82.9385L35.3346 71.4156C38.5613 70.8236 41.4556 69.4849 44.2617 67.7335L44.3107 67.8405C44.5463 68.366 44.8854 68.7491 45.2914 68.9661C45.5897 69.1395 51.6532 72.6597 51.4304 72.5302L51.4279 72.5361C52.8677 73.3921 54.5941 72.4826 55.7624 71.2622C57.5288 69.4153 58.3018 66.6302 57.5211 64.9198L54.5983 58.5275C55.527 57.4096 56.4188 56.2262 57.2814 54.9983L62.8785 58.1961L65.6164 66.9802C65.6816 67.1879 65.8223 67.3642 66.0114 67.4735L79.9431 75.5162C80.6193 75.9075 81.4414 75.2648 81.206 74.5059L78.8999 67.1141C78.9851 67.1233 79.0665 67.1455 79.154 67.1455C79.6718 67.1455 80.2279 66.9862 80.7746 66.67ZM78.9104 65.3526C78.9044 65.3464 78.8975 65.3404 78.8915 65.3338C78.2001 64.888 78.685 63.1406 79.3119 62.1303C79.8598 61.2447 81.1282 60.062 81.7577 60.4369C81.9679 60.5572 82.0942 60.9098 82.0951 61.3794C82.1024 63.7331 79.7109 65.7969 78.9104 65.3526ZM67.3243 44.4506L79.7473 51.6229L77.0079 57.145L64.585 49.9733L67.3243 44.4506ZM62.666 49.9328C62.466 50.3399 62.6098 50.8403 63.0101 51.0711L76.9392 59.1138C77.374 59.3661 77.9552 59.1431 78.153 58.7477L78.3005 58.4535L79.6871 59.2503C78.1016 60.2725 76.9279 62.3915 76.8341 64.1705C68.386 59.3438 49.5478 48.5808 40.8458 43.609C40.6415 43.4937 40.5195 43.1437 40.5195 42.6648C40.5068 41.3109 41.5044 39.5793 42.6999 38.8788C42.942 38.7432 43.4557 38.5551 43.7055 38.7032C60.052 48.0505 62.9667 49.7133 62.8168 49.6277L62.666 49.9328ZM41.2045 37.8112C39.7901 38.9587 38.7673 40.9577 38.7836 42.6733C38.7836 42.674 38.7838 42.6746 38.7838 42.6754C38.7838 42.6763 38.7836 42.6774 38.7836 42.6783C38.7855 43.9304 39.3852 44.777 39.9872 45.1177L45.2532 48.1288C45.2381 48.1441 45.2237 48.1609 45.2085 48.1761C43.0371 50.3414 39.418 52.5934 36.763 51.0703C35.3229 50.243 34.5262 48.4275 34.5194 45.9576C34.5047 40.8463 38.1671 33.8877 43.1334 31.0249C47.6093 28.4408 50.946 30.4189 50.96 35.4756C50.96 36.8141 50.6962 38.5121 50.0672 40.337L44.5828 37.2055C43.5002 36.5552 42.1866 37.0141 41.2045 37.8112ZM51.6126 41.2205C52.2213 39.5452 52.6958 37.358 52.6958 35.473C52.6783 29.0405 47.8784 26.2751 42.2663 29.5213C37.0182 32.5459 32.7836 39.9326 32.7836 45.9271C32.7836 45.939 32.7836 45.9509 32.7836 45.9627C32.7921 49.0776 33.8982 51.4262 35.8984 52.5756C39.4391 54.6118 43.9643 52.0284 46.8145 49.0216L50.6032 51.1864C48.107 54.3945 45.2727 56.9618 42.3604 58.646C33.986 63.4889 27.3859 59.7567 27.3701 50.0913C27.3396 40.0788 34.4042 27.8389 43.119 22.8059C51.5169 17.9498 58.0956 21.7161 58.1255 31.3428C58.1255 35.1102 57.1517 39.2367 55.3034 43.3303C55.1291 43.2307 51.3738 41.084 51.6126 41.2205ZM20.5428 82.2715C20.1258 82.0291 19.9003 81.1518 20.2783 79.9347L23.5774 68.7523C24.0687 69.0387 25.2325 69.7135 25.7232 70.0036C26.6641 70.5586 27.7873 70.9767 28.2708 71.1223L24.7578 83.0207C24.5961 83.5748 24.5069 84.3432 24.5018 84.582L20.5428 82.2715ZM30.2603 82.4478C29.8738 83.7641 28.9313 85.0473 27.9108 85.6414C26.376 86.5429 25.9416 85.1577 26.4233 83.5106L29.9654 71.5139C30.0175 71.5227 30.0735 71.5226 30.126 71.5308C30.7991 71.6349 32.1844 71.7584 33.4506 71.6658L30.2603 82.4478ZM46.1355 67.4498C46.0288 67.3922 45.9457 67.2447 45.8914 67.1243L45.7304 66.7726C45.7528 66.7573 45.7737 66.7397 45.7961 66.7244C46.3599 66.3314 46.9203 65.9251 47.4739 65.4935C47.5406 65.4417 47.6117 65.3958 47.6782 65.3435L49.5454 69.4272L46.1355 67.4498ZM55.9421 65.641C56.3693 66.5768 55.8853 68.6228 54.508 70.062C53.9241 70.6725 52.9877 71.3908 52.239 70.9978C51.7699 70.2502 52.5414 71.7482 49.0645 64.1998C50.5457 62.9229 52.0324 61.4299 53.3461 59.9628L55.9421 65.641ZM31.4019 69.9237C29.6966 69.8045 28.0656 69.3572 26.5671 68.4786C20.8815 65.1201 19.7365 57.2856 20.4131 50.6953C21.6407 38.773 28.9943 25.6131 38.2663 17.9671C55.0753 5.24927 65.2447 13.0549 65.274 27.2117C65.2884 33.0761 63.5771 39.811 60.4436 46.267L56.8076 44.1897C58.7995 39.8252 59.8613 35.3997 59.8613 31.3402C59.8261 20.3591 51.8003 15.781 42.2502 21.3032C33.0557 26.6133 25.602 39.5296 25.6342 50.0955C25.6518 61.0796 33.6692 65.6776 43.23 60.1479C46.3914 58.3198 49.4489 55.5239 52.1167 52.051L55.7776 54.1436C50.3338 61.8477 40.6016 70.5749 31.4019 69.9237ZM67.1734 66.1394L65.0914 59.4604C65.2674 59.561 77.5556 66.5861 76.7774 66.1411L78.887 72.9023L67.1734 66.1394Z" fill="white"/>
</svg>
