<svg width="93" height="92" viewBox="0 0 93 92" fill="none" xmlns="http://www.w3.org/2000/svg">
<path d="M60.9389 44.8546C60.6982 44.4375 60.1651 44.2968 59.7523 44.5393L55.2872 47.1346C54.8728 47.3753 54.7321 47.9076 54.9736 48.3212C55.216 48.7396 55.7499 48.8746 56.1602 48.6365L60.6253 46.0412C61.0398 45.8005 61.1805 45.2682 60.9389 44.8546Z" fill="white"/>
<path d="M54.9737 36.2906C55.2168 36.7102 55.7525 36.8435 56.1594 36.6059L60.6245 34.0123C61.039 33.7716 61.1805 33.2393 60.9389 32.8257C60.6982 32.4087 60.1651 32.2697 59.7532 32.5104L55.2881 35.104C54.8736 35.3447 54.7321 35.877 54.9737 36.2906Z" fill="white"/>
<path d="M75.102 17.6591L52.2342 4.4571C51.9647 4.29945 51.6316 4.29945 51.3638 4.4571L18.0063 23.843C17.8434 23.9382 17.5757 24.2774 17.5749 24.5923L17.4639 73.5876C17.463 73.8979 17.6283 74.186 17.8978 74.3403L28.2655 80.3276C28.6782 80.5683 29.2114 80.4242 29.4512 80.0106C29.6911 79.5953 29.5487 79.0647 29.1334 78.8257L19.2006 73.0893L19.3074 26.0959L40.4413 38.2957C40.3945 58.9035 40.3283 69.4145 40.335 85.2911L35.6598 82.5924C35.2445 82.3499 34.713 82.494 34.474 82.9093C34.2341 83.3247 34.3765 83.8553 34.7918 84.0943L40.7656 87.5439C41.331 87.8731 42.0656 87.4727 42.0675 86.7947L42.0886 77.4677L65.74 63.7224L74.118 68.0699C74.2443 68.136 74.3807 68.1682 74.518 68.1682C75.0061 68.1682 75.386 67.7722 75.386 67.3003C75.3899 66.0094 75.5353 18.1759 75.536 18.4083C75.5355 18.2346 75.3712 17.8131 75.102 17.6591ZM42.1489 50.896L73.7603 32.5249L73.7318 42.5845L42.1261 60.9526L42.1489 50.896ZM73.7261 44.5971L73.6936 56.1316L63.7533 50.393L73.7261 44.5971ZM73.7659 30.5123L42.1534 48.8841L42.1774 38.2968L73.7959 19.9215L73.7659 30.5123ZM51.802 6.2116L72.9364 18.4117C63.6847 23.7884 50.9836 31.1697 41.3088 36.7923C40.8479 36.5262 36.2493 33.8716 20.1745 24.5922L51.802 6.2116ZM42.1215 62.9646L62.0242 51.3978L72.7927 57.6157L42.0932 75.4568L42.1215 62.9646ZM67.5169 62.6898L73.6501 59.1254V65.8712L67.5169 62.6898Z" fill="white"/>
<path d="M26.6669 25.333L40.8698 33.5326C41.1352 33.6871 41.4665 33.6899 41.7403 33.5326L66.4465 19.1745C66.7135 19.0185 66.8787 18.7321 66.8779 18.4218C66.877 18.1133 66.7118 17.8268 66.4439 17.6726L52.2418 9.47307C51.9723 9.31542 51.6409 9.31712 51.3714 9.47307L26.6652 23.8311C26.3973 23.9871 26.2321 24.2736 26.2329 24.5838C26.2338 24.8923 26.399 25.1788 26.6669 25.333ZM51.8096 11.2276L64.2784 18.4252L41.3021 31.7781L28.8324 24.5804L51.8096 11.2276Z" fill="white"/>
<path d="M31.7507 80.3344C31.332 80.092 30.8039 80.2361 30.5649 80.6514C30.3242 81.065 30.4666 81.5973 30.881 81.8363L32.2617 82.6347C32.6744 82.8742 33.2071 82.7349 33.4475 82.3177C33.6882 81.9041 33.5458 81.3718 33.1314 81.1328L31.7507 80.3344Z" fill="white"/>
</svg>
