<svg width="93" height="92" viewBox="0 0 93 92" fill="none" xmlns="http://www.w3.org/2000/svg">
<path d="M8.92928 37.1229C8.93013 37.4305 9.09456 37.7153 9.3607 37.8696L12.6084 39.757C12.6047 43.0945 12.6218 27.6668 12.5722 72.3975C12.5696 72.7112 12.7358 73.001 13.007 73.157C13.1845 73.2592 14.3347 73.9214 17.5899 75.7955C17.8547 75.9481 18.1827 75.952 18.4544 75.7972C20.5957 74.5595 23.2076 73.0497 23.022 73.157C23.289 73.0027 23.4535 72.7196 23.456 72.412L23.4796 69.2191L33.086 74.8015L33.0201 84.134C33.0176 84.4459 33.1829 84.735 33.4532 84.8909C33.897 85.1481 31.7973 83.9312 38.0353 87.5464C38.3087 87.7046 38.6392 87.6993 38.9015 87.5489C38.9026 87.5483 38.9029 87.5471 38.9039 87.5465C38.905 87.5459 38.9064 87.5462 38.9074 87.5455L43.4734 84.8901C43.7386 84.7358 43.9022 84.4527 43.9048 84.1459L43.9707 74.875L69.5482 60.1065L69.5255 62.9724C69.523 63.2852 69.6891 63.5751 69.9603 63.731C70.1379 63.8332 71.1694 64.4271 74.5432 66.3695C74.8138 66.5254 75.1418 66.5227 75.4077 66.3712C75.4086 66.3708 75.4088 66.3698 75.4096 66.3693C75.4104 66.3689 75.4112 66.3691 75.412 66.3687L79.9592 63.7302C80.2245 63.5759 80.389 63.2937 80.3915 62.9868C80.5602 43.9851 80.412 44.4949 80.4282 29.5774L83.6572 27.713C83.9268 27.557 84.0921 27.2689 84.0912 26.9578L84.0709 21.3714C84.0704 21.1968 83.8735 20.7608 83.6395 20.6247L83.6354 20.6223L55.815 4.45448C55.5446 4.29768 55.2132 4.29768 54.9445 4.45279L46.5552 9.29672C46.1399 9.53659 45.9975 10.0672 46.2373 10.4825C46.4772 10.8978 47.0078 11.0377 47.4231 10.8003L55.3768 6.20729L81.4712 21.3722L37.6026 46.6994C28.2383 41.2576 21.349 37.2541 11.5085 31.5356L40.7018 14.6806C41.1171 14.4407 41.2595 13.9101 41.0196 13.4948C40.778 13.0778 40.2466 12.9362 39.8338 13.177L9.3429 30.7812C9.03588 30.9591 8.90939 31.3292 8.90894 31.5322C8.90855 31.707 8.92899 37.2976 8.92928 37.1229ZM39.4431 75.4836C39.4425 75.3053 39.4064 64.2411 39.4087 64.929L78.7196 42.2326L78.7421 52.7938C49.6152 69.6106 66.7689 59.7068 39.4431 75.4836ZM39.4029 62.9275L39.3753 53.2905L78.6946 30.5804L78.7153 40.2304L39.4029 62.9275ZM10.6507 33.0443L36.7351 48.2033L36.7478 51.7784C36.5737 51.6772 8.90687 35.5949 10.6634 36.6185L10.6507 33.0443ZM37.6216 54.1576C37.6223 54.1576 37.6229 54.157 37.6236 54.157C37.6301 54.1571 37.6351 54.1617 37.6417 54.1617C37.6458 56.3399 37.6269 46.2712 37.6816 75.464C33.6207 73.1041 18.4686 64.2987 14.4106 61.9402L14.347 40.7674C38.1606 54.6116 37.2453 54.1576 37.6216 54.1576ZM14.3826 63.9327L17.2372 65.5916C17.2357 65.7663 17.1636 74.0348 17.1678 73.5503L14.3123 71.906L14.3826 63.9327ZM21.7235 71.9026L18.9045 73.5316L18.9647 66.5975L21.7515 68.2156L21.7235 71.9026ZM34.8145 75.8059C34.9901 75.9081 37.8485 77.5713 37.6676 77.4661C37.6664 77.6443 37.6096 85.8157 37.6132 85.2952L34.7594 83.6416L34.8145 75.8059ZM42.1723 83.639L39.3499 85.28L39.405 77.5113L42.2274 75.8816L42.1723 83.639ZM71.2918 59.0997L74.1813 57.4314C74.1688 58.8309 74.1189 64.434 74.1216 64.1241L71.2656 62.48L71.2918 59.0997ZM78.6599 62.4766L75.8578 64.1031C75.8844 61.1291 75.9292 56.1251 75.9264 56.435L78.7294 54.8085L78.6599 62.4766ZM38.4845 51.7894C38.4837 51.5691 38.4702 47.9765 38.471 48.2026L82.3401 22.8753L82.3537 26.4611L38.4845 51.7894Z" fill="white"/>
<path d="M43.2683 13.199L45.2322 12.0658C45.6475 11.8259 45.7899 11.2953 45.55 10.88C45.3093 10.4656 44.7779 10.3232 44.3643 10.5622L42.4004 11.6954C41.9851 11.9353 41.8427 12.4658 42.0826 12.8812C42.2436 13.1592 42.5352 13.3151 42.8352 13.3151C42.9827 13.3151 43.1319 13.2778 43.2683 13.199Z" fill="white"/>
<path d="M60.7684 56.8419L56.4771 59.3194C56.0618 59.5592 55.9194 60.0898 56.1592 60.5051C56.3997 60.9215 56.9319 61.0616 57.345 60.823L61.6363 58.3455C62.0516 58.1056 62.194 57.575 61.9542 57.1597C61.7134 56.7427 61.182 56.6003 60.7684 56.8419Z" fill="white"/>
<path d="M60.7684 44.496L56.4771 46.9735C56.0618 47.2133 55.9194 47.7439 56.1592 48.1592C56.3997 48.5757 56.9319 48.7157 57.345 48.4771L61.6363 45.9996C62.0516 45.7597 62.194 45.2292 61.9542 44.8138C61.7134 44.3968 61.182 44.2544 60.7684 44.496Z" fill="white"/>
</svg>
