<svg width="93" height="92" viewBox="0 0 93 92" fill="none" xmlns="http://www.w3.org/2000/svg">
<path d="M23.8577 81.4445C23.8577 81.753 24.0221 82.0378 24.29 82.192L33.4998 87.5437C33.8867 87.7716 34.3777 87.6412 34.6237 87.3233L51.9042 64.8801L67.9744 74.5604C68.2405 74.7214 68.5761 74.7274 68.8491 74.5723C69.122 74.418 69.2898 74.1281 69.2898 73.8154L69.1423 10.5594C69.1423 10.3881 68.9788 9.96641 68.7101 9.811L59.5002 4.45852C59.2341 4.30256 58.9001 4.30256 58.6306 4.45682L53.8384 7.22418C53.4231 7.46405 53.2807 7.99463 53.5214 8.40995C53.7587 8.82611 54.2893 8.96596 54.7063 8.72779L59.0629 6.21132L66.5431 10.5583L33.7891 29.4687L26.3106 25.1226L44.876 14.4032C45.2914 14.1633 45.4337 13.6328 45.193 13.2175C44.954 12.8004 44.4217 12.6606 44.0081 12.8996L24.1442 24.3682C23.8343 24.5476 23.7102 24.9189 23.7102 25.1192L23.7106 25.1209L23.7102 25.1226L23.8577 81.4445ZM25.4494 26.6304L32.9213 30.9715L33.0636 85.2828L25.5918 80.9418L25.4494 26.6304ZM52.1364 62.9934C51.7618 62.7688 51.2719 62.857 51.0007 63.207L34.7967 84.2523C34.7643 71.8409 34.6916 43.9822 34.6576 30.972L67.4099 12.0626L67.5506 72.2787L52.1364 62.9934Z" fill="white"/>
<path d="M48.2849 12.4351L51.538 10.556C51.9533 10.3161 52.0957 9.78556 51.855 9.37025C51.6142 8.95239 51.0837 8.81254 50.67 9.0524L47.417 10.9315C47.0017 11.1714 46.8593 11.7019 47.1 12.1173C47.3393 12.5316 47.8678 12.6746 48.2849 12.4351Z" fill="white"/>
<path d="M60.1681 30.5259C58.7069 29.6775 56.8253 29.8258 54.8657 30.9438C53.5553 31.7007 52.2127 33.1449 50.7752 35.3478C49.2937 34.8384 47.8562 34.9647 46.5017 35.7208C46.4966 35.7224 46.4932 35.725 46.4898 35.7267C42.752 37.8855 39.8109 42.9413 39.7939 47.2402C39.7973 55.4474 49.9005 56.2085 51.0515 56.2679C51.0668 56.2687 51.0804 56.2695 51.0956 56.2695C51.3533 56.2695 51.6042 56.1509 51.7703 55.9526C53.5434 53.8294 62.3922 42.8565 62.4159 35.3105C62.4193 33.0704 61.6209 31.371 60.1681 30.5259ZM50.7142 54.504C48.7054 54.3252 41.5332 53.2632 41.5298 47.2436C41.5434 43.5719 44.1556 39.0831 47.3527 37.2337C48.4206 36.6404 49.5327 36.6319 50.7464 37.2091C51.1482 37.3998 51.6245 37.2583 51.8567 36.8828C53.2892 34.5774 54.5571 33.1263 55.7302 32.4491C57.1287 31.6507 58.395 31.5032 59.2951 32.0261C60.1902 32.5474 60.6835 33.712 60.6801 35.3063C60.6597 41.9657 52.5772 52.2283 50.7142 54.504Z" fill="white"/>
</svg>
