<svg width="93" height="92" viewBox="0 0 93 92" fill="none" xmlns="http://www.w3.org/2000/svg">
<path d="M66.1291 54.011C66.3969 54.1653 66.7275 54.1645 66.9953 54.0102L73.9065 50.0198C74.1761 49.8638 74.3422 49.5765 74.3405 49.2654L74.2913 32.0256C74.2896 31.7162 74.1252 31.4306 73.8557 31.2755C73.5878 31.1212 73.2573 31.1221 72.9895 31.2763L66.0783 35.2676C65.8087 35.4236 65.6426 35.7109 65.6443 36.022L65.6935 53.2609C65.6952 53.5703 65.8596 53.8559 66.1291 54.011ZM72.5606 33.5292L72.603 48.7679L67.4242 51.7573L67.3818 36.5195L72.5606 33.5292Z" fill="white"/>
<path d="M73.0386 56.002L66.1275 59.9933C65.7121 60.2331 65.5698 60.7637 65.8105 61.179C66.0467 61.5925 66.5777 61.7367 66.9954 61.4969L73.9066 57.5056C74.3219 57.2657 74.4643 56.7352 74.2236 56.3198C73.9845 55.9028 73.4523 55.7638 73.0386 56.002Z" fill="white"/>
<path d="M73.0386 63.1997L66.1275 67.1901C65.7121 67.43 65.5698 67.9605 65.8105 68.3759C66.0467 68.7893 66.5777 68.9335 66.9954 68.6937L73.9066 64.7033C74.3219 64.4634 74.4643 63.9328 74.2236 63.5175C73.9845 63.1005 73.4523 62.9606 73.0386 63.1997Z" fill="white"/>
<path d="M57.1447 40.9193C56.8769 40.765 56.5463 40.7658 56.2785 40.9201L49.3673 44.9105C49.0978 45.0665 48.9317 45.3538 48.9334 45.6649L48.9825 62.9047C48.9862 63.5755 49.7111 63.9842 50.2844 63.654L57.1956 59.6635C57.4651 59.5076 57.6313 59.2203 57.6296 58.9092L57.5804 41.6694C57.5787 41.36 57.4143 41.0744 57.1447 40.9193ZM50.7133 61.4011L50.6709 46.1624L55.8496 43.173L55.892 58.4117L50.7133 61.4011Z" fill="white"/>
<path d="M56.3277 65.6458L49.4165 69.6362C49.0012 69.8761 48.8588 70.4067 49.0995 70.822C49.3358 71.2355 49.8667 71.3796 50.2844 71.1398L57.1956 67.1494C57.611 66.9095 57.7533 66.379 57.5126 65.9636C57.2736 65.5466 56.7413 65.4051 56.3277 65.6458Z" fill="white"/>
<path d="M56.3277 72.8435L49.4165 76.8339C49.0012 77.0737 48.8588 77.6043 49.0995 78.0196C49.3358 78.4331 49.8667 78.5773 50.2844 78.3375L57.1956 74.3471C57.611 74.1072 57.7533 73.5766 57.5126 73.1613C57.2736 72.7443 56.7413 72.6053 56.3277 72.8435Z" fill="white"/>
<path d="M13.813 69.1582C13.8147 69.4667 13.9774 69.7515 14.2453 69.9057C16.4815 71.2055 44.8057 87.6678 44.5921 87.5448C44.8598 87.699 45.1905 87.6982 45.4583 87.5439C48.8763 85.5695 33.0789 94.6951 78.8734 68.2411C79.143 68.0851 79.3091 67.7978 79.3074 67.4867L79.1684 22.8234C79.1666 22.492 78.944 22.1963 78.7361 22.0758L78.7341 22.0746C78.7335 22.0743 78.7334 22.0736 78.7327 22.0733C31.9398 -5.11252 55.1083 8.34793 48.4113 4.45711C48.1452 4.30116 47.8112 4.30116 47.5417 4.45542L42.7325 7.23295C42.7104 7.24577 42.7007 7.27088 42.6799 7.2855C42.5955 7.34451 42.5251 7.41454 42.4663 7.49909C42.4437 7.53161 42.421 7.55969 42.403 7.59497C42.3459 7.706 42.3095 7.82678 42.3053 7.9589C42.305 7.9678 42.2985 7.9749 42.2985 7.98391C42.2985 7.98539 42.2997 7.98666 42.2997 7.98814C42.2997 7.99026 42.2985 7.99196 42.2985 7.99408L42.3687 14.5731L36.6418 11.2446C36.3756 11.0886 36.0417 11.0886 35.7722 11.2429C35.5961 11.3444 25.3879 17.2289 26.0165 16.8666C26.0161 16.8668 26.0169 16.8664 26.0165 16.8666C26.0157 16.867 26.0138 16.8678 26.0131 16.8683C25.8849 17.0321 25.5825 17.1927 25.5825 17.6175C25.5825 17.6193 25.5839 17.6207 25.5839 17.6225C25.5839 17.7973 25.6515 24.3971 25.6527 24.2223L19.9257 20.896C19.6596 20.74 19.3257 20.74 19.0561 20.8943L14.1266 23.7405C13.8195 23.9183 13.6926 24.3169 13.6926 24.4914C13.6926 24.4921 13.6931 24.4925 13.6931 24.4931C13.6931 24.4938 13.6926 24.4942 13.6926 24.4948L13.813 69.1582ZM15.5471 68.6556C15.5254 60.4961 15.4625 36.8754 15.4336 26.0028C20.3745 28.8736 34.0201 36.8021 44.019 42.6118C44.0496 52.4729 44.1204 75.3037 44.1514 85.2809L15.5471 68.6556ZM45.8876 85.2908C45.8381 69.3559 45.8047 58.6186 45.755 42.6128C45.9339 42.5097 61.0401 33.8036 60.7368 33.9784L60.8538 76.6406L45.8876 85.2908ZM62.588 75.6396C62.499 42.1586 62.5367 55.9236 62.471 32.9774C62.8652 32.7496 78.4102 23.7651 77.4376 24.3272L77.5698 66.9892L62.588 75.6396ZM44.0507 9.50203L66.9683 22.8225L61.7421 25.8331L44.1155 15.5884L44.0507 9.50203ZM36.2044 12.9974L61.3047 27.5859C61.5709 27.7436 61.9014 27.7436 62.1743 27.5876L69.1347 23.5777C69.4025 23.4235 69.5687 23.137 69.5687 22.8276C69.5687 22.5174 69.4042 22.2309 69.1364 22.0758L44.8972 7.9873L47.9739 6.20992L76.5697 22.8234L61.6031 31.4738C27.9613 11.907 33.668 15.2264 33.009 14.8434L36.2044 12.9974ZM27.3353 19.1364L50.2556 32.4595L45.0413 35.4837L27.3997 25.2371L27.3353 19.1364ZM19.4884 22.6488C21.2813 23.6902 44.4303 37.1364 44.6057 37.2382C44.8665 37.3901 45.1988 37.3982 45.477 37.2382L52.4204 33.2114C52.6882 33.0562 52.8526 32.7698 52.8526 32.4612C52.8526 32.1519 52.6882 31.8654 52.4204 31.7103L28.1812 17.6209L31.2661 15.8404C45.1295 23.9092 59.783 32.4244 59.8672 32.4731C59.6883 32.5762 44.7042 41.2145 44.8869 41.1092L16.293 24.4948L19.4884 22.6488Z" fill="white"/>
</svg>
