<svg width="93" height="92" viewBox="0 0 93 92" fill="none" xmlns="http://www.w3.org/2000/svg">
<path d="M71.9944 13.7806L64.8891 9.77664C64.8814 9.7724 64.8724 9.77187 64.8646 9.76763L56.2133 4.72759C55.1038 4.11055 53.6553 4.2309 52.2474 5.0573L23.9449 21.3953C23.9403 21.3979 23.9386 21.4035 23.934 21.4062C21.2424 22.9676 19.1417 26.6148 19.1502 29.7177C19.1508 29.957 19.2912 78.4618 19.2917 78.6436C19.2917 80.2836 19.9172 81.5796 21.0013 82.1966L29.6704 87.2474C29.6769 87.2512 29.6846 87.2494 29.6912 87.253C30.9445 87.9715 32.4099 87.6647 33.6625 86.9406L69.055 66.507C71.752 64.9492 73.8582 61.3003 73.8498 58.199L73.7938 38.3936C73.7921 37.9155 73.4039 37.5282 72.9259 37.5282H72.9234C72.4445 37.5299 72.0563 37.9189 72.058 38.3987L72.1139 58.2041C72.1207 60.657 70.3221 63.7702 68.1871 65.0034L67.5717 65.3587L67.5192 46.7355C67.5121 44.3985 65.6102 43.2959 63.5635 44.4741L37.4715 59.5391C35.7441 60.5358 34.3956 62.8726 34.4016 64.8585L34.457 84.4772L32.7946 85.4369C31.9131 85.9463 31.0985 86.0582 30.5552 85.748C30.4433 85.6835 30.3473 85.5891 30.2558 85.4876C29.9111 85.0984 29.7127 84.4751 29.7127 83.6918L29.5737 34.7557C29.5737 34.7508 29.5701 34.7468 29.57 34.742C29.5711 32.2868 31.3621 29.1834 33.4905 27.9515L33.4972 27.9497L36.801 26.0425L36.7587 40.7346C36.7587 42.9526 38.5815 44.011 40.5084 42.8891L58.6136 32.4469C60.2342 31.4976 61.503 29.3032 61.5047 27.4504L61.5581 11.7507L61.8048 11.6083C62.2277 11.3606 62.6436 11.2081 63.0221 11.1519C63.0271 11.1512 63.0328 11.1487 63.0377 11.1479C63.42 11.0936 63.7631 11.14 64.0339 11.2921C64.0402 11.2956 64.0473 11.2952 64.0536 11.2986L71.1383 15.2902C71.6816 15.6004 71.9953 16.3573 71.9986 17.3659L72.0181 24.3669C72.0198 24.845 72.408 25.2323 72.8861 25.2323H72.8886C73.3675 25.2306 73.7557 24.8416 73.754 24.3618L73.7345 17.3608C73.7294 15.6894 73.1124 14.4188 71.9944 13.7806ZM38.3394 61.0427L64.4314 45.9777C64.8476 45.7379 65.2239 45.6684 65.4426 45.7921C65.6545 45.9142 65.7816 46.2685 65.7833 46.7406L65.8384 66.3579L36.19 83.4748L36.1374 64.8534C36.1332 63.4786 37.1418 61.7334 38.3394 61.0427ZM53.1204 6.55752C53.9901 6.04727 54.8097 5.9337 55.3555 6.23628L61.4979 9.81478C61.3366 9.88714 61.1753 9.97412 61.0144 10.0652C60.9866 10.0807 60.9596 10.087 60.9318 10.103C25.8927 30.3319 42.6496 20.6582 33.0628 26.1931C32.884 26.0892 25.6597 21.888 26.1097 22.1496L53.1204 6.55752ZM24.4001 23.1667C24.5737 23.2676 31.8776 27.5121 31.4654 27.2725C29.8463 28.6548 28.3929 31.0347 27.9691 33.3258L20.9085 29.2194C21.103 27.0176 22.5876 24.4425 24.4001 23.1667ZM21.8667 80.6922C21.3335 80.3887 21.0276 79.642 21.0276 78.641L20.8936 31.2273L27.8342 35.2606C27.9853 82.9302 27.9392 83.5899 28.004 84.2673L21.8667 80.6922ZM59.7689 27.4479C59.7689 28.6998 58.8374 30.3034 57.7406 30.9467L39.6379 41.3872C39.2828 41.5949 38.9522 41.6585 38.7768 41.5601C38.603 41.4601 38.4945 41.1431 38.4945 40.7371L38.5395 25.0388L41.078 23.5734V34.3294C41.0797 35.3482 42.0494 35.9779 43.0223 35.4152L47.0322 32.9156C47.6315 32.5707 48.0816 31.7909 48.0799 31.1027V19.5314L50.2378 18.2856V29.0439C50.2431 30.076 51.2208 30.6835 52.1813 30.1279L56.1955 27.6276C56.7939 27.2801 57.2431 26.4994 57.2397 25.8154V14.2436L59.8189 12.7547C59.7888 21.5907 59.7987 18.6753 59.7689 27.4479ZM46.344 20.5698V31.1018C46.3389 31.1866 46.2347 31.3671 46.1406 31.4273L42.8138 33.5005V22.6073L46.344 20.5698ZM55.5038 15.2825V25.8163C55.4988 25.901 55.3937 26.0807 55.3013 26.1401L51.9737 28.2133V17.3201L55.5038 15.2825Z" fill="white"/>
<path d="M72.8961 27.9081C72.4173 27.9098 72.0291 28.2988 72.0308 28.7786L72.0435 33.3352C72.0452 33.8132 72.4334 34.2006 72.9114 34.2006H72.9139C73.3928 34.1989 73.781 33.8098 73.7793 33.3301L73.7666 28.7735C73.7649 28.2955 73.3767 27.9081 72.8987 27.9081H72.8961Z" fill="white"/>
<path d="M41.9392 65.267L60.9064 54.3154C61.3218 54.0755 61.4642 53.5449 61.2243 53.1296C60.9827 52.7135 60.4513 52.5711 60.0385 52.8118L41.0713 63.7634C40.656 64.0033 40.5136 64.5338 40.7535 64.9492C40.994 65.3656 41.5262 65.5056 41.9392 65.267Z" fill="white"/>
<path d="M41.9392 71.1476L60.9064 60.1968C61.3218 59.9569 61.4642 59.4263 61.2243 59.011C60.9827 58.594 60.4513 58.4533 60.0385 58.6932L41.0713 69.6439C40.656 69.8838 40.5136 70.4144 40.7535 70.8297C40.994 71.2461 41.5262 71.3862 41.9392 71.1476Z" fill="white"/>
<path d="M41.9392 77.0281L60.9064 66.0773C61.3218 65.8375 61.4642 65.3069 61.2243 64.8916C60.9827 64.4754 60.4513 64.333 60.0385 64.5737L41.0713 75.5245C40.656 75.7643 40.5136 76.2949 40.7535 76.7102C40.994 77.1267 41.5262 77.2667 41.9392 77.0281Z" fill="white"/>
</svg>
