<svg width="93" height="92" viewBox="0 0 93 92" fill="none" xmlns="http://www.w3.org/2000/svg">
<path d="M70.146 56.433C63.5509 59.7199 55.2149 61.5304 46.6756 61.5304C37.987 61.5304 29.5196 59.6623 22.8322 56.272C22.2544 55.9776 21.5737 56.4024 21.5719 57.0433L21.5193 69.9587C21.5125 72.3574 23.7001 75.0001 27.521 77.2073C32.4362 80.0433 39.3685 81.6706 46.5408 81.6706C53.7079 81.6706 60.6107 80.0483 65.48 77.2174C69.2034 75.051 71.3427 72.454 71.3487 70.0926L71.4012 57.2128C71.4021 56.911 71.2478 56.6313 70.9918 56.472C70.735 56.3126 70.4146 56.2974 70.146 56.433ZM69.6128 70.0876C69.6086 71.7658 67.6905 73.9237 64.6079 75.7172C59.9953 78.3973 53.4104 79.9348 46.5408 79.9348C39.6635 79.9348 33.0473 78.3922 28.389 75.7053C25.2173 73.8729 23.2501 71.6725 23.2552 69.9638L23.3018 58.4299C37.0174 64.8167 55.8998 64.8793 69.6595 58.5876L69.6128 70.0876Z" fill="white"/>
<path d="M71.0042 28.9029L71.0451 18.9987C71.0451 18.9902 71.0451 18.98 71.0451 18.9699C71.0451 18.966 71.043 18.9629 71.043 18.9591C71.043 18.9502 71.0451 18.9415 71.0451 18.9326C71.0392 14.9421 68.41 11.228 63.6407 8.47509C63.2262 8.23268 62.6948 8.37677 62.4549 8.79209C62.215 9.2074 62.3574 9.73799 62.7727 9.97701C66.9827 12.4079 69.3042 15.5897 69.3093 18.9343C69.3144 22.7712 66.2234 25.8839 62.871 27.8305C53.9307 33.0279 39.3345 33.0245 30.3349 27.8305C28.1393 26.5624 25.9529 24.779 24.7472 22.5254C22.0821 17.548 25.2187 12.8822 30.2196 9.97701C36.0425 6.59346 44.6387 5.28818 52.6568 6.56973C53.1315 6.63923 53.5765 6.32393 53.651 5.84928C53.7265 5.37633 53.4044 4.9305 52.9314 4.85422C44.5395 3.51504 35.5009 4.89999 29.3483 8.47509C24.662 11.1985 22.0775 14.8652 22.0565 18.805C22.0561 18.8135 22.0515 18.8206 22.0515 18.8292L22.0108 28.8954C18.5611 31.8035 16.6831 35.3103 16.6241 38.9066C16.5633 39.2868 16.6295 36.3079 16.471 69.8587C16.4574 74.7171 19.6647 79.2482 25.502 82.6165C37.1394 89.3368 55.9874 89.3129 67.5107 82.6165C73.2294 79.2923 76.3866 74.8222 76.401 70.0299C76.5154 36.3224 76.5675 39.4649 76.4972 39.0629C76.4552 35.4104 74.5389 31.8483 71.0042 28.9029ZM69.2872 24.413C69.2863 24.5913 69.2565 30.4408 69.2584 30.0681C69.2584 33.3754 66.9767 36.5233 62.8329 38.9338C52.4929 44.9454 34.796 43.9169 26.9237 36.4458C25.111 34.7209 24.0427 32.7936 23.8131 30.7849C23.6768 29.5732 23.7823 30.7163 23.7653 24.2673C24.8303 25.8696 26.8292 27.81 29.467 29.3324C38.9497 34.8095 54.3266 34.8061 63.7432 29.3324C66.323 27.8331 68.2321 25.9783 69.2872 24.413ZM22.0845 31.153C22.091 31.2028 22.1077 31.2511 22.115 31.3008C22.4987 33.8705 23.9629 36.073 25.8693 37.8382C31.0524 42.6457 39.3774 44.5482 46.5805 44.5482C52.7874 44.5482 58.9883 43.1785 63.6991 40.4425C67.1425 38.4402 70.3265 35.3042 70.8937 31.33C70.9025 31.2683 70.9223 31.2081 70.9299 31.1462C73.53 33.6682 74.8642 36.5707 74.7675 39.482C74.6094 44.1853 70.8309 47.9328 66.7631 50.2948C55.6988 56.7263 37.6343 56.7263 26.4954 50.2965C22.3317 47.8907 18.476 44.0857 18.3545 39.3016C18.2848 36.4589 19.5777 33.6246 22.0845 31.153ZM74.6652 70.0231C74.6525 74.1746 71.802 78.1142 66.6377 81.1146C55.5734 87.5478 37.5088 87.5478 26.3699 81.1146C21.0946 78.0684 18.195 74.0729 18.2068 69.8638L18.3086 45.0398C19.5997 47.2033 22.1422 49.7945 25.6198 51.8069C28.6936 53.575 32.2755 54.8628 36.0859 55.6973C40.3908 56.6419 44.9911 57.0023 49.5135 56.7511C56.1421 56.3844 62.5869 54.7347 67.6294 51.8052C70.9881 49.8508 73.4963 47.3159 74.766 45.2229L74.6652 70.0231Z" fill="white"/>
<path d="M59.4654 8.39203C59.5697 8.43441 59.6773 8.45306 59.7833 8.45306C60.1291 8.45306 60.4563 8.24456 60.591 7.90383C60.7665 7.458 60.5478 6.95284 60.1011 6.77824C58.962 6.32902 57.7542 5.93574 56.5099 5.60857C56.0548 5.48483 55.5733 5.76283 55.4504 6.22731C55.3284 6.69009 55.6055 7.16474 56.0692 7.28679C57.2465 7.597 58.389 7.96824 59.4654 8.39203Z" fill="white"/>
</svg>
