<svg width="93" height="92" viewBox="0 0 93 92" fill="none" xmlns="http://www.w3.org/2000/svg">
<path d="M36.4099 54.7064L38.9188 53.257C39.3341 53.0171 39.4765 52.4857 39.2366 52.0712C38.9959 51.6542 38.4653 51.5135 38.0509 51.7534L35.542 53.2028C35.1267 53.4426 34.9843 53.9741 35.2242 54.3885C35.4647 54.8049 35.9969 54.945 36.4099 54.7064Z" fill="white"/>
<path d="M18.4826 80.5839C18.4835 80.8924 18.6479 81.1772 18.9141 81.3315C19.0901 81.4338 29.7786 87.6448 29.6032 87.5429L29.6055 87.5451C29.8694 87.6971 30.2009 87.7007 30.4725 87.5443C40.209 81.923 60.5812 70.1612 74.1315 62.338C74.5082 62.1201 74.4862 61.8407 74.5655 61.5837L74.4231 11.4169C74.3481 11.1291 74.3951 10.9389 74.0197 10.6976C73.8451 10.5852 63.1289 4.31648 63.3028 4.45744C63.0324 4.30064 62.701 4.30064 62.4323 4.45575L47.6378 12.9977C47.3665 13.1548 47.2046 13.4438 47.2038 13.7486C47.2033 13.9358 47.2954 46.2345 47.2965 46.4159L40.6071 50.2778C40.1918 50.5176 40.0494 51.0482 40.2892 51.4635C40.5291 51.8797 41.0597 52.0204 41.475 51.7814L48.164 47.919C48.3397 48.0212 57.717 53.4713 57.1222 53.1256C45.0998 60.0667 37.8879 64.2305 29.9915 68.7894C29.8158 68.6873 20.4391 63.2374 21.0339 63.5831L33.8222 56.1998C34.2375 55.96 34.3799 55.4294 34.14 55.014C33.9002 54.5979 33.367 54.4555 32.9543 54.6962L18.8683 62.8288C18.5618 63.0062 18.4348 63.4049 18.4343 63.5797L18.4347 63.5814L18.4343 63.5831L18.4826 80.5839ZM20.1744 65.0913L29.1237 70.2927L29.1663 85.2821L20.2168 80.0813L20.1744 65.0913ZM72.6915 12.9206L72.7077 18.6263L69.4774 20.4912C69.0621 20.731 68.9197 21.2616 69.1596 21.6769C69.4001 22.0934 69.9323 22.2334 70.3454 21.9948L72.7133 20.6276L72.7265 25.3087L69.4774 27.1854C69.0621 27.4252 68.9197 27.9558 69.1596 28.3711C69.4001 28.7876 69.9323 28.9276 70.3454 28.689L72.7323 27.3104L72.7455 31.992L67.9535 34.7594C67.5382 34.9992 67.3958 35.5298 67.6356 35.9451C67.8761 36.3616 68.4083 36.5016 68.8214 36.263L72.7512 33.9936L72.7645 38.6752L69.4774 40.5729C69.0621 40.8128 68.9197 41.3434 69.1596 41.7587C69.4001 42.1751 69.9323 42.3152 70.3454 42.0765L72.7701 40.6767L72.7833 45.3585L69.4774 47.2671C69.0621 47.507 68.9197 48.0376 69.1596 48.4529C69.4001 48.8693 69.9323 49.0094 70.3454 48.7708L72.7891 47.36L72.8023 52.0418L69.4774 53.9613C69.0621 54.2012 68.9197 54.7318 69.1596 55.1471C69.4001 55.5635 69.9323 55.7036 70.3454 55.465L72.808 54.0431L72.8251 60.0899L59.7204 52.6227L59.6302 20.4617C59.9761 20.262 73.5085 12.4488 72.6915 12.9206ZM48.9439 15.2601L57.8941 20.4616L57.9814 51.6173L49.0321 46.4159L48.9439 15.2601ZM58.8566 54.129L71.9529 61.5913L66.2165 64.9031L66.21 62.7576C66.2083 62.2787 65.8201 61.8922 65.3421 61.8922H65.3395C64.8598 61.8939 64.4725 62.2838 64.4742 62.7626L64.4837 65.9036L61.1136 67.8493L61.1076 65.7038C61.1059 65.2257 60.7177 64.8384 60.2396 64.8384H60.2371C59.7582 64.8401 59.37 65.2291 59.3717 65.7088L59.3805 68.8499L56.0103 70.7956L56.0043 68.65C56.0026 68.1719 55.6144 67.7846 55.1363 67.7846H55.1338C54.6549 67.7863 54.2667 68.1753 54.2684 68.655L54.2772 71.7962L50.9079 73.7414L50.8959 69.484C50.8942 69.0059 50.506 68.6186 50.028 68.6186C49.5016 68.5949 49.1583 69.0085 49.16 69.4891L49.1748 74.742L45.8046 76.6878L45.7985 74.5424C45.7968 74.0643 45.4086 73.677 44.9306 73.677H44.9281C44.4492 73.6787 44.061 74.0677 44.0627 74.5474L44.0715 77.6884L40.7021 79.6336L40.6961 77.4885C40.6944 77.0105 40.3062 76.6232 39.8282 76.6232H39.8256C39.3467 76.6249 38.9585 77.0139 38.9602 77.4936L38.969 80.6341L35.5988 82.5799L35.5928 80.4347C35.5911 79.9567 35.2029 79.5694 34.7249 79.5694H34.7223C34.2434 79.5711 33.8552 79.9601 33.8569 80.4398L33.8657 83.5804L30.9023 85.2914L30.8599 70.2928L58.8566 54.129ZM62.8646 6.21025L71.8236 11.4169L58.7619 18.9583C58.5862 18.8562 49.6276 13.6499 49.8034 13.752L62.8646 6.21025Z" fill="white"/>
</svg>
