<svg width="93" height="92" viewBox="0 0 93 92" fill="none" xmlns="http://www.w3.org/2000/svg">
<path d="M23.5313 82.3767C26.1961 83.9261 32.2954 87.4719 31.9054 87.2452L31.9119 87.2469L31.9182 87.252C33.1668 87.9722 34.6365 87.6625 35.8789 86.9443L66.5309 69.2477C69.222 67.6932 71.324 64.0469 71.3155 60.9464L71.1799 13.175C71.1758 11.5491 70.5812 10.3115 69.5171 9.66599C69.2524 9.48527 64.8504 6.94943 61.0928 4.76357C60.0054 4.10924 58.5501 4.21434 57.1049 5.0492C49.413 9.49505 34.0298 18.3879 26.3385 22.8349C23.6992 24.4216 21.6658 27.9916 21.6845 31.0386L21.7938 65.7014C21.7955 66.1802 22.1837 66.5667 22.6617 66.5667H22.6643C23.144 66.565 23.5313 66.1752 23.5296 65.6963L23.4254 32.6366L30.0642 36.3966L30.1575 69.291C30.2074 84.2255 30.1678 83.6883 30.2255 84.2609L24.4069 80.8782C23.8602 80.5569 23.5585 79.8229 23.5585 78.8101L23.5449 74.0789C23.5432 73.6 23.155 73.2135 22.677 73.2135C22.2761 73.2415 21.8074 73.6034 21.809 74.084L21.8226 78.8126C21.8226 80.4646 22.4286 81.7291 23.5313 82.3767ZM65.663 67.744L35.011 85.4407C34.1354 85.9476 33.3209 86.0586 32.7835 85.7475C32.2462 85.439 31.9368 84.6864 31.9343 83.6828C31.9355 84.1485 31.9176 77.7565 31.8038 35.8506C31.8258 33.3647 33.6386 30.3299 35.7153 29.1307C59.7739 15.2414 66.2234 11.498 66.7225 11.2658C68.2755 10.5481 69.4388 11.1273 69.444 13.1801L69.5796 60.9515C69.5864 63.4036 67.7929 66.5142 65.663 67.744ZM57.9729 6.55282C58.8577 6.04257 59.668 5.93323 60.2105 6.25871L66.0512 9.64734C65.875 9.72733 65.6971 9.81972 65.5192 9.92143C64.8287 10.3162 70.1118 7.26834 35.2788 27.3723L28.6317 23.4967L57.9729 6.55282ZM26.9516 24.5274L33.6981 28.4609C31.9239 29.9733 30.6268 32.2999 30.2104 34.4842L23.4506 30.6557C23.5937 28.4267 25.0942 25.808 26.9516 24.5274Z" fill="white"/>
<path d="M66.1342 15.3973C65.8638 15.2431 65.5341 15.2439 65.2671 15.3982L35.1093 32.8101C34.8397 32.966 34.6744 33.2534 34.6753 33.5644L34.8092 74.4832C34.8105 74.9591 35.1954 75.3485 35.6771 75.3485C35.8272 75.3485 35.9772 75.3096 36.1111 75.2324L66.2689 57.8205C66.5385 57.6646 66.7037 57.3773 66.7029 57.0662L66.569 16.1474C66.5681 15.8372 66.402 15.5516 66.1342 15.3973ZM36.54 72.9804L36.4128 34.062L64.8382 17.6502L64.9654 56.5687L36.54 72.9804Z" fill="white"/>
<path d="M60.952 25.2607L39.4573 37.671C39.042 37.9108 38.8996 38.4414 39.1395 38.8567C39.3799 39.2732 39.9122 39.4132 40.3252 39.1746L61.8199 26.7643C62.2352 26.5244 62.3776 25.9938 62.1378 25.5785C61.8979 25.1623 61.3648 25.0199 60.952 25.2607Z" fill="white"/>
<path d="M60.952 33.9925L39.4573 46.4028C39.042 46.6426 38.8996 47.1732 39.1395 47.5885C39.3799 48.0049 39.9122 48.145 40.3252 47.9064L61.8199 35.4961C62.2352 35.2562 62.3776 34.7256 62.1378 34.3103C61.8979 33.8924 61.3648 33.7517 60.952 33.9925Z" fill="white"/>
<path d="M60.952 42.7242L39.4573 55.1345C39.042 55.3744 38.8996 55.905 39.1395 56.3203C39.3799 56.7367 39.9122 56.8768 40.3252 56.6382L61.8199 44.2279C62.2352 43.988 62.3776 43.4574 62.1378 43.0421C61.8979 42.6259 61.3648 42.4835 60.952 42.7242Z" fill="white"/>
<path d="M50.5937 57.4357L39.4573 63.8663C39.042 64.1062 38.8996 64.6368 39.1395 65.0521C39.3799 65.4685 39.9122 65.6086 40.3252 65.37L51.4616 58.9394C51.8769 58.6995 52.0193 58.1689 51.7795 57.7536C51.5387 57.3374 51.0073 57.195 50.5937 57.4357Z" fill="white"/>
<path d="M50.253 68.2517C48.835 69.0705 47.7272 70.9852 47.7315 72.6109C47.7386 74.5928 49.4034 75.5468 51.1345 74.5476C52.5474 73.7305 53.651 71.8184 53.6467 70.1927C53.6414 68.2016 51.9871 67.2532 50.253 68.2517ZM50.2666 73.044C49.7283 73.3524 49.469 73.2762 49.4673 72.6058C49.4648 71.5971 50.2378 70.2647 51.1209 69.7553C51.7335 69.4025 51.9094 69.6047 51.9109 70.1978C51.9134 71.2064 51.1447 72.5363 50.2666 73.044Z" fill="white"/>
<path d="M22.671 71.9913C23.1498 71.9896 23.538 71.6005 23.5363 71.1208L23.5296 68.7145C23.5279 68.2365 23.1397 67.8491 22.6616 67.8491H22.6591C22.1802 67.8508 21.792 68.2399 21.7937 68.7196L21.8005 71.1259C21.8022 71.6039 22.1904 71.9913 22.6684 71.9913H22.671Z" fill="white"/>
</svg>
