<svg width="93" height="92" viewBox="0 0 93 92" fill="none" xmlns="http://www.w3.org/2000/svg">
<path d="M4.87366 47.5998C4.87451 47.9083 5.03894 48.1931 5.30593 48.3474L6.90563 49.277C6.85817 49.6522 6.81695 50.0272 6.81801 50.3926C6.82607 53.4108 8.55107 54.9306 10.555 54.9306C11.2934 54.9306 12.0869 54.715 12.8979 54.3112C12.999 56.0052 13.6529 57.3106 14.8124 57.9776C16.1146 58.7261 17.5941 58.491 18.9387 57.822C19.0397 59.5158 19.6936 60.8204 20.8531 61.4875C22.1501 62.235 23.6321 62.0021 24.9793 61.3317C25.0802 63.0259 25.7341 64.331 26.893 64.9981C28.1952 65.7466 29.6756 65.5115 31.0201 64.8425C31.1212 66.5363 31.7751 67.8409 32.9337 68.508C34.2308 69.2556 35.7122 69.0224 37.0599 68.3529C37.1609 70.0468 37.815 71.3516 38.9744 72.0187C40.7368 73.0344 42.7233 72.2739 44.3636 71.0449C44.5393 71.147 50.8615 74.8206 50.6858 74.7185L50.688 74.7208C50.9548 74.8744 51.2854 74.8748 51.5543 74.7199L87.7215 53.8389C88.1368 53.599 88.2792 53.0684 88.0393 52.6531C87.7986 52.2361 87.2655 52.0945 86.8535 52.3353L84.2634 53.8307L84.2413 47.1467C88.1073 44.9231 87.8587 45.0895 87.9941 44.8521C88.0082 44.6772 88.4087 44.065 87.6918 43.6509C87.4678 43.5216 54.5876 24.4141 54.3106 24.2523C53.897 24.0124 53.3647 24.1523 53.124 24.5659C52.8824 24.9804 53.024 25.5118 53.4376 25.7525L85.5261 44.4002L51.0918 64.2808L43.4025 59.8123C43.4292 59.7963 43.4542 59.773 43.481 59.7575C44.933 58.9201 46.1925 58.9778 46.8442 59.9126C47.118 60.3068 47.663 60.4034 48.0529 60.1279C48.4462 59.8533 48.542 59.3126 48.2682 58.9193C47.0782 57.2182 44.8592 56.9571 42.6131 58.2539C42.3158 58.4257 42.0318 58.6382 41.7483 58.8509L37.362 56.302C37.3889 56.2859 37.4142 56.2624 37.4412 56.2468C38.8939 55.4086 40.1526 55.4671 40.8052 56.402C41.0798 56.7961 41.6223 56.8919 42.013 56.6164C42.4063 56.3426 42.5021 55.801 42.2275 55.4086C41.0409 53.7075 38.821 53.4473 36.5732 54.7432C36.2756 54.915 35.9914 55.1277 35.7077 55.3406L31.3218 52.7919C31.3485 52.7759 31.3736 52.7525 31.4004 52.737C32.8549 51.8979 34.1102 51.9564 34.7645 52.8913C35.0391 53.2845 35.5824 53.3829 35.9723 53.1057C36.3656 52.8319 36.4614 52.2903 36.1867 51.8979C34.9976 50.196 32.7752 49.9349 30.5325 51.2334C30.2351 51.4051 29.9511 51.6178 29.6676 51.8305L25.2809 49.2813C25.3077 49.2653 25.3328 49.2419 25.3597 49.2263C26.8116 48.3855 28.0695 48.4465 28.7238 49.3814C28.9992 49.7756 29.54 49.8713 29.9316 49.5959C30.3249 49.3221 30.4206 48.7805 30.146 48.3881C28.9594 46.6878 26.7396 46.4268 24.4918 47.7227C24.1944 47.8945 23.9103 48.1072 23.6266 48.3199L19.24 45.7707C19.2669 45.7546 19.292 45.7312 19.319 45.7156C20.7726 44.8757 22.0279 44.9359 22.6831 45.8707C22.9568 46.2657 23.4993 46.3623 23.8909 46.0852C24.2841 45.8114 24.3799 45.2698 24.1053 44.8774C22.9195 43.1771 20.698 42.9152 18.4511 44.212C18.1536 44.3839 17.8693 44.5965 17.5857 44.8094L13.2002 42.2609C13.227 42.2449 13.2522 42.2214 13.2791 42.2058C14.7336 41.3684 15.9897 41.4252 16.6432 42.3601C16.917 42.755 17.4594 42.8508 17.851 42.5745C18.2443 42.3007 18.3401 41.7591 18.0654 41.3667C16.878 39.6656 14.6573 39.4045 12.4112 40.7022C12.1137 40.8739 11.8296 41.0867 11.5458 41.2994L7.44353 38.9155L41.8774 19.0346L46.4459 21.6884C46.8561 21.9282 47.3909 21.7892 47.6317 21.3739C47.8732 20.9594 47.7317 20.4289 47.3172 20.1881L42.3148 17.2818C42.0461 17.1241 41.7138 17.1258 41.4452 17.2801L5.27796 38.1611C5.00538 38.319 4.84475 38.6098 4.84399 38.9121L4.84442 38.9138L4.84399 38.9155L4.87366 47.5998ZM39.0519 65.951C39.5384 64.1364 40.6094 62.2952 41.9467 60.9735L50.2244 65.7838C50.2256 66.1286 50.248 72.6926 50.2472 72.4569L39.0519 65.951ZM11.7443 43.4224L16.2172 46.0216C14.9155 47.4092 13.8878 49.186 13.3274 51.0021L8.84988 48.4C9.33618 46.5854 10.407 44.7443 11.7443 43.4224ZM14.8898 51.91C15.3761 50.0953 16.4469 48.2541 17.7841 46.9322L22.258 49.5321C20.9562 50.9196 19.9286 52.6962 19.3683 54.5125L14.8898 51.91ZM20.9305 55.4203C21.4169 53.6057 22.4878 51.7645 23.8251 50.4427L28.2989 53.0426C26.9973 54.43 25.9697 56.2067 25.4091 58.023L20.9305 55.4203ZM26.9713 58.9307C27.4577 57.116 28.5287 55.2751 29.866 53.9532L34.339 56.5526C33.0373 57.94 32.0098 59.7167 31.4495 61.5331L26.9713 58.9307ZM33.0119 62.4411C33.4982 60.6264 34.5691 58.7853 35.9063 57.4633L40.3797 60.0629C39.078 61.4503 38.0503 63.2271 37.4898 65.0433L33.0119 62.4411ZM6.60781 47.0972L6.58493 40.4242L10.177 42.5116C8.87531 43.8989 7.84772 45.6757 7.28747 47.4922L6.60781 47.0972ZM9.63792 52.9625C8.94206 52.5624 8.55725 51.6479 8.55386 50.3875C8.55376 50.3404 8.56509 50.2895 8.56605 50.2419L12.5225 52.5411C12.4963 52.5568 12.4704 52.582 12.4443 52.5972C11.3373 53.2362 10.3397 53.3668 9.63792 52.9625ZM15.6778 56.4732C14.9828 56.0722 14.5971 55.1577 14.5937 53.8974C14.5936 53.8502 14.605 53.7995 14.6059 53.7519L18.5634 56.0517C18.5369 56.0675 18.5115 56.0926 18.485 56.1078C17.3772 56.7486 16.3813 56.8774 15.6778 56.4732ZM21.7185 59.983C21.0226 59.5829 20.6378 58.6684 20.6345 57.408C20.6344 57.3608 20.6457 57.3099 20.6466 57.2623L24.6037 59.5619C24.5774 59.5775 24.5521 59.6025 24.5257 59.6177C23.4196 60.2568 22.422 60.3881 21.7185 59.983ZM27.7592 63.4937C27.0634 63.0936 26.6786 62.1791 26.6752 60.9187C26.6751 60.8714 26.6864 60.8204 26.6874 60.7727L30.6445 63.0723C30.6183 63.088 30.5926 63.1132 30.5664 63.1284C29.4578 63.7691 28.461 63.8988 27.7592 63.4937ZM33.8 67.0035C33.1041 66.6035 32.7193 65.6889 32.7159 64.4286C32.7158 64.3814 32.7271 64.3307 32.7281 64.2831L36.685 66.5827C36.6585 66.5985 36.6328 66.6237 36.6063 66.6391C35.4985 67.2781 34.5018 67.407 33.8 67.0035ZM42.647 70.1489C41.5401 70.7888 40.5425 70.9185 39.8398 70.5142C39.144 70.1141 38.7592 69.1996 38.7558 67.9393C38.7557 67.8919 38.767 67.8409 38.768 67.7931L42.7253 70.0928C42.699 70.1085 42.6733 70.1337 42.647 70.1489ZM82.5309 54.831L51.9831 72.4679C51.9817 72.0529 51.9594 65.5263 51.9603 65.7841L82.5087 48.1469L82.5309 54.831Z" fill="white"/>
<path d="M50.9169 24.2871C51.0542 24.3667 51.2034 24.4049 51.3517 24.4049C51.6509 24.4049 51.9416 24.2498 52.1026 23.9726C52.3442 23.5581 52.2026 23.0275 51.7882 22.7868L49.7336 21.5934C49.3192 21.3527 48.7894 21.4934 48.5479 21.9079C48.3063 22.3224 48.4479 22.8529 48.8623 23.0937L50.9169 24.2871Z" fill="white"/>
<path d="M43.6158 26.4509C43.3471 26.2941 43.0149 26.2941 42.7462 26.4492L23.0687 37.8085C22.8009 37.9636 22.6356 38.2493 22.6348 38.5595C22.6339 38.8689 22.7992 39.1553 23.0662 39.3105L32.0607 44.5375C32.333 44.6957 32.6644 44.6929 32.9312 44.5392L52.6087 33.179C52.8765 33.0239 53.0418 32.7383 53.0426 32.4281C53.0435 32.1187 52.8782 31.8322 52.6104 31.6771L43.6158 26.4509ZM32.4989 42.7847L25.2343 38.5629L43.1785 28.2037L50.4431 32.4247L32.4989 42.7847Z" fill="white"/>
<path d="M57.5044 35.0259L37.8269 46.3852C37.4116 46.6251 37.2692 47.1557 37.5091 47.571C37.7496 47.9874 38.2818 48.1274 38.6949 47.8888L58.3723 36.5295C58.7877 36.2897 58.93 35.7591 58.6902 35.3438C58.4486 34.9268 57.9172 34.7852 57.5044 35.0259Z" fill="white"/>
<path d="M63.2688 38.3756L43.5913 49.7349C43.176 49.9747 43.0336 50.5053 43.2735 50.9206C43.514 51.3371 44.0462 51.4771 44.4593 51.2385L64.1367 39.8792C64.5521 39.6393 64.6945 39.1087 64.4546 38.6934C64.2139 38.2764 63.6807 38.1366 63.2688 38.3756Z" fill="white"/>
<path d="M49.0379 54.2711C49.2784 54.6875 49.8106 54.8276 50.2237 54.589L69.9011 43.2288C70.3165 42.989 70.4589 42.4584 70.219 42.0431C69.9783 41.6269 69.4468 41.4845 69.0332 41.7252L49.3557 53.0854C48.9404 53.3252 48.798 53.8558 49.0379 54.2711Z" fill="white"/>
</svg>
