<svg width="93" height="92" viewBox="0 0 93 92" fill="none" xmlns="http://www.w3.org/2000/svg">
<path d="M17.0329 73.0599C14.1465 76.5546 14.2977 81.7525 17.5659 85.0391C21.4965 88.9697 28.2048 88.4343 31.348 83.6288C33.2252 84.5102 35.1212 85.236 37.0112 85.7366C42.5044 87.1911 48.6161 87.0652 52.6592 83.0439C54.0371 81.6676 58.146 77.6111 58.332 77.3711C60.6551 75.0098 62.1699 71.4347 61.8015 66.3152L66.702 61.4144C71.5146 56.601 74.176 50.1823 74.1946 43.3406V43.3346C74.1771 38.9992 73.0755 34.7637 71.0259 31.0172C76.6177 27.4687 83.1423 22.2359 84.8267 20.5508C88.5648 16.7912 88.7224 10.0155 83.8696 6.31816C80.4641 3.71153 75.6742 3.65506 72.2333 6.37749C71.7538 6.75549 71.7911 7.52968 72.3781 7.82749C72.6709 7.97667 73.0348 7.95696 73.3097 7.73956C76.1085 5.53002 80.0082 5.56773 82.7968 7.67387C86.7244 10.6561 86.6712 16.2432 83.5943 19.3201C80.5858 22.3286 70.0867 30.164 65.078 32.3364C62.7404 33.3531 60.5475 31.5433 59.6145 29.5775C59.0364 28.3782 59.2789 27.6713 59.5552 27.0085C59.7511 26.6937 60.0871 25.5657 61.9528 22.5688C61.9657 22.5478 61.9797 22.5258 61.9927 22.5047C63.5522 19.9651 65.7405 16.8912 67.5852 14.4643C67.875 14.082 67.8004 13.5379 67.419 13.248L67.4163 13.2467L67.4123 13.2421C67.0291 12.953 66.485 13.0251 66.1951 13.4073C64.4741 15.6735 62.443 18.5325 60.912 20.9457C51.6774 15.8782 39.7346 16.331 29.9949 25.782C29.7339 26.043 25.4924 30.2844 25.6665 30.1102C20.6411 29.744 17.0038 31.267 14.6876 33.547C14.6719 33.5606 14.6517 33.5656 14.6367 33.5807L9.02569 39.1611C5.47432 42.6905 4.50977 48.3286 6.30495 55.0347C7.99355 61.332 11.9471 67.6989 17.0329 73.0599ZM29.7948 82.8693C27.2849 86.4796 21.9725 86.99 18.7949 83.8135C16.2115 81.2156 16.0132 77.1193 18.1999 74.3061C21.4816 77.5485 25.6288 80.6839 29.7812 82.8614C29.7857 82.8638 29.7903 82.8669 29.7948 82.8693ZM23.8494 31.7911C23.8984 31.7899 23.9446 31.7837 23.994 31.7829C21.8349 34.968 14.1025 37.5613 17.2727 49.4313C20.2562 60.4668 31.6222 71.8219 42.6069 74.7452C47.163 75.9511 52.3853 75.7754 55.68 72.4372L60.1297 67.9884C60.0992 70.2834 59.6059 72.3247 58.6908 74.0153C56.11 78.7253 50.7562 79.8491 45.4353 78.9798C41.3075 78.3125 37.2117 76.5091 33.6242 74.2965C24.3123 68.5476 16.1927 58.6708 13.6009 48.9973C12.7028 45.6496 12.37 41.7871 13.585 38.4653C15.2156 34.0373 19.1136 31.8845 23.8494 31.7911ZM54.4493 71.2142C51.9896 73.7018 47.9433 74.3621 43.0527 73.067C32.602 70.2861 21.7886 59.4802 18.9492 48.9812C17.6337 44.0576 18.2711 39.9774 20.7376 37.4939L21.6502 36.5813C21.1499 38.9296 21.2663 41.6523 22.0666 44.6416C25.0297 55.6746 36.389 67.0339 47.389 69.964C50.8989 70.8905 53.2767 70.7804 55.32 70.3434L54.4493 71.2142ZM59.2229 66.4296C56.7785 68.9206 52.7321 69.5783 47.8348 68.2866C37.3705 65.4989 26.5639 54.6897 23.7431 44.1915C22.4277 39.2739 23.06 35.1961 25.5196 32.7127L27.2555 30.9769C26.7673 33.3154 26.908 36.0353 27.703 39.0052C30.6679 50.0382 42.0272 61.3966 53.0254 64.3267C55.9394 65.0963 58.6025 65.2294 60.8977 64.7564L59.2229 66.4296ZM60.0196 22.4019C59.3512 23.5223 58.4408 25.166 57.9956 26.2296C57.5617 27.2636 57.1701 28.5197 58.0431 30.3387C59.3625 33.0858 62.393 35.4063 65.7696 33.9299C66.8891 33.4515 68.3422 32.6507 69.3954 32.0223C69.454 31.9873 69.5025 31.9635 69.5617 31.9279C71.4434 35.3987 72.4418 39.3239 72.4588 43.3363C72.4418 49.7161 69.9618 55.7009 65.4747 60.1871L64.8906 60.7713C64.8837 60.7777 64.8745 60.7797 64.8678 60.7864L64.7593 60.8948C62.3047 63.3003 58.3024 63.9233 53.4712 62.6493C43.0087 59.8616 32.202 49.0533 29.3795 38.5551C28.0641 33.6366 28.6964 29.5589 31.1595 27.0729L31.1626 27.068L31.212 27.0187C40.4731 18.0356 51.6433 17.8422 60.0196 22.4019ZM10.2496 40.3918L11.5328 39.1162C10.8986 41.5612 10.8294 45.0486 11.8175 48.9858C11.8572 49.1445 11.8748 49.2942 11.9176 49.4542C14.575 59.3685 22.8145 69.4779 32.3244 75.5016C36.2255 77.9746 40.5151 79.905 44.9983 80.6661C48.0426 81.1866 50.795 81.0215 52.722 80.5333L51.4353 81.8132C48.3874 84.8416 43.4172 85.64 37.4553 84.0584C35.4121 83.5173 33.3616 82.702 31.3384 81.7015C20.9387 76.6129 10.9217 65.5512 7.98316 54.5854C6.35411 48.5057 7.15931 43.4643 10.2496 40.3918Z" fill="white"/>
<path d="M69.7923 11.6393C70.2805 11.0367 70.7331 10.4874 71.1399 10.0069C71.4501 9.64155 71.4044 9.09401 71.0382 8.78379C70.6754 8.47697 70.1262 8.51935 69.8143 8.88635C69.4007 9.37541 68.9379 9.93481 68.4429 10.5493C68.1412 10.9214 68.1988 11.4681 68.5717 11.7698C68.9436 12.0692 69.4905 12.0143 69.7923 11.6393Z" fill="white"/>
</svg>
