<svg width="93" height="92" viewBox="0 0 93 92" fill="none" xmlns="http://www.w3.org/2000/svg">
<path d="M29.7715 75.4814L37.434 79.9344L49.9329 87.5341C50.3521 87.7876 50.8971 87.6476 51.1399 87.2188L63.5485 65.2342C63.6476 65.0579 63.6824 64.8519 63.6459 64.6519C50.5628 -7.10627 64.0098 66.6538 55.7905 21.5176L58.7156 9.87855C58.8121 9.49109 58.5261 9.04246 58.3104 8.91655L50.6372 4.45741C50.366 4.30061 50.0346 4.30061 49.7668 4.45572L47.4444 5.79659C47.0291 6.03646 46.8867 6.56705 47.1266 6.98236C47.3656 7.39853 47.8979 7.53668 48.3123 7.30021L50.199 6.21022L56.1422 9.66411L42.4721 17.5564L36.5292 14.1029L41.7317 11.0991C42.147 10.8592 42.2894 10.3286 42.0495 9.9133C41.808 9.49629 41.2774 9.35559 40.8638 9.59546L34.3637 13.3486C34.0551 13.5275 33.8497 14.0319 33.9814 14.3962L36.9359 22.55C35.1265 34.9836 31.0617 62.8602 29.3494 74.6067C29.2977 74.9568 29.4655 75.3034 29.7715 75.4814ZM35.507 44.3991L41.5629 47.9185L38.8619 66.4275L32.8059 62.908L35.507 44.3991ZM38.4999 23.8537L44.5557 27.3731L41.8327 46.0674L35.7767 42.5482L38.4999 23.8537ZM32.5363 64.7595C32.7105 64.8607 38.9933 68.5121 38.593 68.2794L37.2073 77.7953L31.1513 74.2753L32.5363 64.7595ZM50.0685 85.5846L38.8228 78.7472C38.9044 78.1866 40.4486 67.5811 40.3528 68.2393L59.1783 49.8458L61.8821 64.6544L50.0685 85.5846ZM40.7654 65.4088C41.4322 60.8378 42.6882 52.2275 43.3226 47.8786L56.4788 35.0178L58.8029 47.7858C54.409 52.0787 44.9783 61.2927 40.7654 65.4088ZM56.1033 32.9574C55.8838 33.1719 42.9322 45.8326 43.7355 45.0473L46.2972 27.4591L54.2691 22.8563L56.1033 32.9574ZM54.151 20.9198L45.9625 25.6476L43.5348 18.9476L56.5321 11.4437L54.151 20.9198ZM41.762 19.1518L43.8693 24.9664L38.5346 21.8659L36.4275 16.0515L41.762 19.1518Z" fill="white"/>
<path d="M44.0735 9.74718L45.9331 8.67329C46.3484 8.43342 46.4908 7.90284 46.251 7.48752C46.0102 7.07051 45.4771 6.92981 45.0652 7.16968L43.2056 8.24357C42.7903 8.48343 42.6479 9.01402 42.8878 9.42933C43.1282 9.84575 43.6604 9.98579 44.0735 9.74718Z" fill="white"/>
</svg>
