<svg width="93" height="92" viewBox="0 0 93 92" fill="none" xmlns="http://www.w3.org/2000/svg">
<path d="M71.1529 10.7032L60.3326 4.45572C60.0631 4.30061 59.7292 4.30061 59.463 4.45741C59.1988 4.61095 20.9974 26.8117 21.9982 26.2301C21.6793 26.415 21.5669 26.7992 21.5659 26.9777L21.4659 62.3956C21.4642 62.8753 21.8524 63.2644 22.3321 63.2661C22.8102 63.2661 23.2 62.8787 23.2017 62.4007L23.2984 28.4818L32.3845 33.728L32.2387 85.2914L23.1509 80.0448L23.1763 71.369C23.178 70.8892 22.7898 70.5002 22.3118 70.4985C22.3101 70.4985 22.3084 70.4985 22.3084 70.4985C21.8304 70.4985 21.4422 70.8858 21.4405 71.3639L21.4133 80.5424C21.4116 80.8534 21.5778 81.1407 21.8473 81.2967L32.6692 87.5442C32.937 87.6984 33.2676 87.6993 33.5355 87.5451C33.5364 87.5445 33.5367 87.5434 33.5377 87.5429C33.5374 87.5431 33.538 87.5426 33.5377 87.5429L71.0037 65.7707C71.2715 65.6164 71.4343 65.3316 71.436 65.0231C71.4381 64.2704 71.5868 10.9796 71.5868 11.4542C71.5868 11.2776 71.4586 10.8802 71.1529 10.7032ZM34.0488 59.3011L34.0817 47.5279L58.747 33.1826L68.9045 39.0466L34.0488 59.3011ZM69.7773 37.5459L60.4768 32.1765L69.8073 26.75L69.7773 37.5459ZM34.0874 45.5175L34.1206 33.7276C41.9954 29.1511 54.3306 21.9824 58.7826 19.3951L68.9305 25.253L34.0874 45.5175ZM60.5131 18.3894L69.8459 12.9657L69.8157 23.7593L60.5131 18.3894ZM59.9004 6.21022L68.9882 11.4576C56.0164 18.996 47.5294 23.9281 33.2529 32.2248L24.165 26.9775L59.9004 6.21022ZM34.0432 61.3109L51.0371 51.4358L50.9682 75.4073L33.9762 85.282L34.0432 61.3109ZM52.707 74.3969L52.7759 50.4254L69.7688 40.551L69.7018 64.5205L52.707 74.3969Z" fill="white"/>
<path d="M22.3152 69.2695C22.7932 69.2695 23.1831 68.8822 23.1848 68.4041L23.1933 65.374C23.195 64.8943 22.8068 64.5052 22.3271 64.5035C21.849 64.5035 21.4592 64.8909 21.4575 65.3689L21.449 68.399C21.4473 68.8788 21.8355 69.2678 22.3152 69.2695Z" fill="white"/>
<path d="M47.6544 62.3464C47.1764 62.3464 46.7865 62.7338 46.7848 63.2118L46.773 67.526C46.7713 68.0057 47.1595 68.3948 47.6392 68.3965C48.1172 68.3965 48.5071 68.0091 48.5088 67.5311L48.5207 63.2169C48.5224 62.7372 48.1342 62.3481 47.6544 62.3464Z" fill="white"/>
<path d="M56.1049 57.4355C55.6268 57.4355 55.237 57.8229 55.2353 58.3009L55.2234 62.6151C55.2217 63.0949 55.6099 63.4839 56.0896 63.4856C56.5677 63.4856 56.9575 63.0982 56.9592 62.6202L56.9711 58.306C56.9728 57.8263 56.5846 57.4372 56.1049 57.4355Z" fill="white"/>
</svg>
