<svg width="93" height="92" viewBox="0 0 93 92" fill="none" xmlns="http://www.w3.org/2000/svg">
<rect x="0.5" width="92" height="92" rx="46" fill="black"/>
<path d="M28.4799 37.7306L28.5695 68.7826C28.5695 69.4116 28.8182 69.9213 29.256 70.1833C29.3703 70.2503 34.1636 73.061 34.0492 72.9939C34.0527 72.9959 34.055 72.9993 34.0585 73.0013C34.5442 73.2812 35.126 73.1877 35.6179 72.904L62.8363 57.1887C63.7838 56.642 64.5234 55.3568 64.5201 54.2629L64.4322 23.2066C64.4306 22.5972 64.1891 22.1077 63.7745 21.8463C63.6235 21.7395 60.2916 19.7955 58.9509 19.0066C58.5098 18.7413 57.9371 18.7767 57.3849 19.1011L52.8433 21.7218C52.5725 21.8783 52.4796 22.2243 52.636 22.4952C52.793 22.7655 53.1379 22.8572 53.4094 22.7024L57.9553 20.079C58.1709 19.9519 58.3202 19.9485 58.3732 19.98L61.9193 22.0596L34.954 37.6284C34.0193 38.1682 33.2674 39.4471 33.2708 40.5481L33.3578 71.2768L29.8331 69.2098C29.7679 69.1706 29.7015 69.023 29.7015 68.7809L29.612 37.729C29.612 37.0386 30.1333 36.132 30.7275 35.7893L46.5323 26.6702C46.8032 26.5138 46.896 26.1678 46.7396 25.8969C46.5826 25.6261 46.2355 25.5326 45.9663 25.6896L30.1614 34.8087C29.2184 35.3526 28.4799 36.6356 28.4799 37.7306ZM62.2703 56.2081L35.0518 71.9234C34.8483 72.0425 34.6936 72.0573 34.6253 72.0203C34.6252 72.0202 34.6254 72.0203 34.6253 72.0203C34.5645 71.9838 34.4935 71.8526 34.4935 71.6011L34.4045 40.5487C34.4045 39.865 34.9186 38.9569 35.5211 38.6095L62.739 22.8948C63.1811 22.6391 63.2992 22.8236 63.3001 23.2099L63.388 54.2662C63.3902 54.9561 62.8678 55.8632 62.2703 56.2081Z" fill="white"/>
<path d="M50.4747 23.0883L48.2802 24.3541C48.0093 24.5105 47.9165 24.8566 48.0729 25.1274C48.2277 25.3946 48.5714 25.4925 48.8462 25.3347L51.0407 24.0689C51.3116 23.9124 51.4045 23.5664 51.248 23.2955C51.091 23.0247 50.7461 22.9313 50.4747 23.0883Z" fill="white"/>
<path d="M48.582 34.5085C42.4684 38.038 37.5106 46.6214 37.5305 53.6416C37.5518 60.933 42.8689 63.9713 49.2182 60.3069C55.2896 56.8021 60.2808 48.1864 60.2604 41.1683C60.2396 33.8496 54.8439 30.8929 48.582 34.5085ZM48.7729 59.2496L48.7683 57.5851C48.7672 57.2733 48.514 57.0207 48.2023 57.0207H48.2006C47.8883 57.0218 47.6351 57.2755 47.6362 57.5884L47.6424 59.8539C45.7401 60.7422 43.9698 60.9514 42.4928 60.4875L43.7679 58.2661C43.9238 57.9947 43.8298 57.6486 43.559 57.4933C43.2859 57.338 42.941 57.4309 42.7862 57.7023L41.454 60.0229C39.8366 59.0376 38.8777 57.0939 38.7008 54.487L40.6735 53.3475C40.9444 53.1911 41.0372 52.8451 40.8808 52.5742C40.7244 52.3028 40.3767 52.2099 40.1075 52.3669L38.6806 53.1911C38.7595 50.3713 39.6454 47.3195 41.0908 44.4899L42.2655 45.1593C42.5365 45.3135 42.8825 45.2195 43.0377 44.9476C43.1925 44.6762 43.0974 44.3302 42.826 44.1754L41.6302 43.4939C43.5064 40.1888 46.1174 37.289 49.0132 35.5748L49.0181 37.2414C49.0193 37.5538 49.2724 37.8058 49.5842 37.8058H49.5858C49.8987 37.8047 50.1513 37.551 50.1502 37.2381L50.1435 34.9794C52.0655 34.0793 54.2301 33.6576 56.1106 34.6615L54.783 36.9728C54.6271 37.2437 54.7211 37.5897 54.9919 37.7456C55.2643 37.9012 55.6098 37.8071 55.7647 37.5366L57.0383 35.3192C58.3814 36.5315 59.1209 38.5605 59.1283 41.1716C59.1285 41.2367 59.1211 41.3039 59.1204 41.3692L57.1096 42.5304C56.8388 42.6868 56.7459 43.0328 56.9023 43.3037C57.0592 43.5753 57.4062 43.6666 57.6757 43.511L59.0432 42.7213C58.7491 45.6887 57.6269 48.8392 55.9612 51.6722L54.8211 51.0226C54.5486 50.8678 54.2031 50.9623 54.0489 51.2343C53.8941 51.5057 53.9892 51.8517 54.2606 52.0065L55.368 52.6376C53.5781 55.3962 51.2813 57.7685 48.7729 59.2496Z" fill="white"/>
<path d="M53.0628 40.7355C52.8007 40.568 52.4503 40.6448 52.2817 40.9085L49.7521 44.8762C49.3917 44.8351 48.9973 44.9156 48.608 45.1405C47.5809 45.7337 46.7794 47.1228 46.7827 48.3024C46.785 49.2436 47.3307 50.0247 48.3349 49.9429V55.3668C48.3349 55.6797 48.5881 55.9328 48.9009 55.9328C49.2138 55.9328 49.467 55.6797 49.467 55.3668V49.4801C50.3524 48.8151 51.0111 47.5818 51.0081 46.5131C51.0071 46.1036 50.8969 45.7533 50.7137 45.4734L53.2363 41.5166C53.4038 41.2534 53.3264 40.903 53.0628 40.7355ZM48.6179 48.6948C48.1484 48.9663 47.916 48.8417 47.9148 48.2991C47.9126 47.5141 48.4891 46.5164 49.174 46.1211C49.6458 45.8495 49.8748 45.9716 49.876 46.5164C49.8782 47.2886 49.2901 48.3068 48.6179 48.6948Z" fill="white"/>
</svg>
