<svg width="93" height="92" viewBox="0 0 93 92" fill="none" xmlns="http://www.w3.org/2000/svg">
<rect x="0.5" width="92" height="92" rx="46" fill="black"/>
<path d="M22.6 57.7C22.6 57.9 22.7 58 22.8 58.1C22.9 58.2 41.2 68.8 40.1 68.1C40.3 68.2 40.4 68.2 40.6 68.1L49.8 62.8C50.2 64.5 51 65.8 52.3 66.5L55.8 68.5C57.8 69.6 60.2 69 62.1 67.9C66.8 65.2 70.5 58.6 70.5 53.2C70.5 50.5 69.5 48.5 67.8 47.5L64.3 45.5C63.2 44.9 62 44.7 60.6 45V33.1C60.6 32.9 60.5 32.8 60.3 32.7L50.7 27.1C50.5 27 50.2 27 50 27.3C49.9 27.5 49.9 27.8 50.2 28L59.1 33.2L52.4 37.1L36.1 27.7L42.8 23.8L46.1 25.7C46.3 25.8 46.6 25.8 46.8 25.5C46.8 25.3 46.8 25 46.5 24.8L43 22.8C42.8 22.7 42.7 22.7 42.5 22.8C35.3 27 30 30 22.7 34.2C22.6 34.3 22.5 34.5 22.5 34.6L22.6 57.7ZM23.5 35.5C33.5 41.3 30 39.3 39.8 45C39.8 47.2 39.8 36.9 39.9 66.9L23.6 57.4L23.5 35.5ZM51.9 52.7C50.6 55.1 49.5 58.1 49.6 60.9C49.6 61.2 49.6 61.5 49.7 61.8L48.5 62.5V40.5C48.6 40.4 52.1 38.4 51.9 38.5V52.7ZM40.8 45C40.9 44.9 47.7 41 47.5 41.1V63L40.8 66.9C40.8 36.9 40.8 47.2 40.8 45ZM69.5 53.3C69.5 58.4 66 64.6 61.6 67.2C57.3 69.7 54.1 67.8 54 63C54 57.9 57.6 51.7 61.9 49.2C66 46.7 69.5 48.3 69.5 53.3ZM63.8 46.5L64.8 47.1C63.7 47.2 62.5 47.7 61.5 48.3C56.9 51 53.1 57.6 53.1 63C53.1 64.4 53.4 65.6 53.8 66.4L52.8 65.8C51.2 64.9 50.6 62.8 50.6 60.9C50.6 58.2 51.5 55.4 52.9 53.1C54.5 50.2 56.6 48.2 58.5 47.1C60.1 46.1 62.1 45.5 63.8 46.5ZM57.9 46.2C56 47.3 54.3 49 52.8 51.1V38L59.5 34.1V45.4C59.3 45.5 58.6 45.8 57.9 46.2ZM35.1 28.3L51.4 37.8C51.3 37.9 47.8 39.9 48 39.8L31.7 30.2C31.8 30.1 35.2 28.2 35.1 28.3ZM30.7 30.8L47 40.3L40.3 44.2C36.3 41.9 28 37 24 34.7L30.7 30.8Z" fill="white"/>
<path d="M47.8999 25.7C47.6999 25.6 47.3999 25.6 47.1999 25.9C47.0999 26.1 47.0999 26.4 47.3999 26.6L48.5999 27.3C48.7999 27.4 49.0999 27.4 49.2999 27.1C49.3999 26.9 49.3999 26.6 49.0999 26.4L47.8999 25.7Z" fill="white"/>
<path d="M66.6999 55.6C66.6999 54.8 66.5999 54.2 66.2999 53.6C66.1999 53.3 65.8999 53.2 65.5999 53.4C65.2999 53.5 65.1999 53.8 65.3999 54.1C65.5999 54.5 65.6999 55 65.6999 55.7C65.6999 57.9 64.3999 60.5 62.5999 62.1L62.7999 61.4C62.8999 61.1 62.6999 60.9 62.3999 60.8C62.0999 60.7 61.8999 60.9 61.7999 61.2L61.2999 63.2C61.1999 63.5 61.3999 63.8 61.6999 63.8L63.5999 64C63.8999 64 64.0999 63.8 64.1999 63.6C64.1999 63.3 63.9999 63.1 63.7999 63L63.0999 62.9C65.1999 61.1 66.6999 58.1 66.6999 55.6Z" fill="white"/>
<path d="M61.8 55.2L62.3 53.2C62.4 53 62.2001 52.7 61.9001 52.6C61.8001 52.6 59.8001 52.3 59.9001 52.3C59.6001 52.3 59.4 52.5 59.3 52.7C59.3 53 59.5001 53.2 59.7001 53.3L60.4001 53.4C58.4001 55.1 56.8 58.1 56.8 60.6C56.8 61.6 57 62.5 57.5 63.1C57.7 63.3 58.0001 63.4 58.2001 63.2C58.4001 63 58.5 62.7 58.3 62.5C58 62 57.8 61.4 57.8 60.6C57.8 58.4 59.1001 55.8 60.9001 54.2L60.8 55C60.7 55.3 61 55.6 61.3 55.6C61.5 55.6 61.7 55.5 61.8 55.2Z" fill="white"/>
</svg>
