<svg width="93" height="92" viewBox="0 0 93 92" fill="none" xmlns="http://www.w3.org/2000/svg">
<path d="M12.2761 75.256C12.8281 75.624 13.38 75.44 13.564 74.888C13.748 74.52 13.7481 73.968 13.1961 73.6L10.2521 71.944C9.88405 71.76 9.14805 71.76 8.96405 72.312C8.78005 72.68 8.78005 73.232 9.33205 73.6L12.2761 75.256Z" fill="black"/>
<path d="M90.6601 50.232L84.2201 46.368C84.0361 46.184 83.6681 46.184 83.4841 46.368C82.0121 46.736 80.7241 46.92 79.4361 47.104V23.368C79.4361 23 79.2521 22.816 78.8841 22.632L43.5561 2.02399C43.1881 1.83999 43.0041 1.83999 42.6361 2.02399C31.4121 8.46399 23.1321 13.248 2.34009 25.208C1.97209 25.392 1.97209 25.76 1.78809 25.944C1.78809 26.128 1.97209 68.448 1.97209 68.632C1.97209 69 2.15609 69.184 2.34009 69.368L6.57209 71.76C6.94009 71.944 7.49209 71.944 7.86009 71.392C8.04409 71.024 8.04409 70.472 7.49209 70.104L3.81209 67.896L3.62809 27.6C16.3241 34.96 24.6041 39.744 37.1161 47.104L37.3001 87.584L16.5081 75.624C16.1401 75.256 15.4041 75.44 15.2201 75.992C15.0361 76.36 15.0361 76.912 15.5881 77.28C19.6361 79.672 38.9561 90.896 37.6681 90.16C37.8521 90.344 38.2201 90.344 38.5881 90.16C38.7721 89.976 57.7241 79.12 57.9081 78.936C59.0121 80.408 60.4841 81.696 62.1401 82.616L68.5801 86.48C70.4201 87.584 72.6281 88.32 75.0201 88.504C75.2041 88.504 75.5721 88.32 75.7561 88.136C84.5881 77.832 89.7401 65.136 91.0281 51.336C91.2121 50.784 90.8441 50.232 90.6601 50.232ZM83.4841 48.208L87.5321 50.6C83.3001 51.336 79.4361 50.6 75.3881 49.496L74.1001 48.76C77.2281 49.128 80.5401 48.944 83.4841 48.208ZM60.3001 66.792L55.5161 64.032C59.0121 60.352 66.5561 51.152 68.9481 47.656L73.9161 50.6C69.8681 56.488 65.4521 62.008 60.3001 66.792ZM43.0041 3.86399L76.4921 23.368C76.3081 23.552 63.0601 31.096 63.9801 30.544L30.4921 11.04L43.0041 3.86399ZM28.6521 12.144L62.1401 31.648L52.5721 37.168L19.0841 17.664L28.6521 12.144ZM53.4921 38.64L63.0601 33.12V44.16L58.6441 42.32C58.2761 42.136 57.7241 42.32 57.5401 42.688L53.4921 48.944V38.64ZM17.2441 18.768L50.7321 38.272C50.5481 38.456 37.1161 46.184 38.0361 45.632C33.9881 43.24 12.6441 30.912 4.54809 26.128L17.2441 18.768ZM56.9881 77.28L39.1401 87.584L38.9561 46.92C39.1401 46.736 52.5721 39.192 51.6521 39.56V52.072C51.6521 52.44 51.8361 52.808 52.3881 52.992C52.7561 53.176 53.1241 52.992 53.4921 52.624L58.8281 44.344L63.7961 46.368C64.1641 46.552 64.3481 46.368 64.7161 46.368C64.9001 46.184 65.0841 46 65.0841 45.632V32.016C65.2681 31.832 78.5161 24.288 77.5961 24.84V47.104C74.6521 47.104 71.7081 46.552 68.9481 45.632C68.5801 45.632 68.2121 45.632 68.0281 46C67.8441 46.184 57.7241 59.616 53.4921 63.664C53.3081 63.848 53.1241 64.216 53.1241 64.4C53.1241 64.584 53.3081 71.576 56.9881 77.28ZM55.1481 66.24V66.056L59.7481 68.632C60.1161 72.864 61.2201 77.464 63.4281 80.96L63.0601 80.776C58.0921 77.832 55.8841 71.944 55.1481 66.24ZM74.8361 86.296C72.6281 86.112 70.7881 85.376 69.1321 84.272C67.4761 83.168 66.1881 81.696 65.0841 80.04C62.8761 76.544 61.9561 72.496 61.5881 68.264C66.9241 63.296 71.7081 57.224 75.7561 51.336C80.3561 52.624 84.7721 53.176 89.1881 52.072H89.3721C87.9001 64.952 82.9321 76.728 74.8361 86.296Z" fill="black"/>
<path d="M74.8362 61.824C72.8122 62.928 71.1562 65.688 71.1562 68.08C71.1562 69.184 71.5242 70.104 72.0762 70.656L71.1562 75.44C70.9722 75.992 71.5242 76.544 72.0762 76.544C72.2602 76.544 72.4442 76.544 72.6282 76.36L78.8842 72.68C79.2522 72.496 79.4362 72.128 79.2522 71.576L78.3322 67.712C78.8842 66.608 79.2522 65.32 79.2522 64.216C79.4362 61.64 77.2282 60.352 74.8362 61.824ZM76.4922 67.896L77.4122 71.392L73.5482 73.6L74.2842 70.104C74.2842 69.736 74.1002 69.184 73.7322 69C73.3642 68.816 73.1802 68.448 73.1802 67.712C73.1802 66.056 74.4682 63.848 75.9402 63.112C77.0442 62.56 77.7802 62.744 77.7802 64.032C77.7802 64.952 77.4122 65.872 76.8602 66.792C76.4922 67.344 76.4922 67.712 76.4922 67.896Z" fill="black"/>
</svg>
