<svg width="93" height="92" viewBox="0 0 93 92" fill="none" xmlns="http://www.w3.org/2000/svg">
<rect x="0.5" width="92" height="92" rx="46" fill="white"/>
<path d="M26.923 39.8867L50.4954 26.2835C50.7662 26.1271 50.8591 25.7811 50.7021 25.5102C50.5473 25.2394 50.1991 25.1465 49.9293 25.3029L26.3569 38.9061C25.2603 39.5384 24.4012 41.0359 24.4012 42.3167L24.472 68.1797C24.472 68.8939 24.7418 69.4494 25.2326 69.7446L30.6111 72.9789C30.6181 72.983 30.6261 72.9812 30.6332 72.985C31.1803 73.2958 31.8315 73.1857 32.3855 72.8667L66.6319 53.0941C67.7385 52.455 68.603 50.962 68.5986 49.694L68.5257 23.8248C68.5235 23.1189 68.2466 22.5555 67.7694 22.2669C66.8763 21.7267 62.2562 18.9487 62.3744 19.0207C61.8714 18.7294 61.2258 18.7753 60.61 19.1395L55.1519 22.2892C54.8811 22.4457 54.7882 22.7917 54.9452 23.0625C55.1 23.3334 55.4449 23.4252 55.7179 23.2698L61.1804 20.1174C61.4358 19.9659 61.6691 19.92 61.7995 19.9963L65.8628 22.4392C21.2488 48.1934 35.2677 40.1007 31.7354 42.1398C30.5904 42.8006 29.7712 44.3331 29.7753 45.5471L29.8476 71.199L25.8163 68.774C25.6837 68.6944 25.6041 68.4721 25.6041 68.1781L25.5333 42.315C25.5333 41.4483 26.1823 40.3134 26.923 39.8867ZM66.0658 52.1134L31.8194 71.8861C31.2641 72.208 30.9825 72.0189 30.9825 71.4123L30.9118 45.5426C30.9021 44.6904 31.5625 43.5665 32.2795 43.1383C32.2866 43.1341 32.2933 43.1278 32.3003 43.1237C37.9353 39.8704 59.0601 27.6742 66.5423 23.3544C67.0907 23.0392 67.3912 23.1853 67.3936 23.8281L67.4665 49.6973C67.4688 50.5673 66.8275 51.674 66.0658 52.1134Z" fill="black"/>
<path d="M52.1725 25.3156L53.9768 24.2742C54.2476 24.1178 54.3405 23.7717 54.1835 23.5009C54.0276 23.23 53.6805 23.1377 53.4107 23.2936L51.6065 24.335C51.3356 24.4914 51.2427 24.8375 51.3997 25.1083C51.5537 25.377 51.8993 25.4725 52.1725 25.3156Z" fill="black"/>
<path d="M65.167 26.7268C64.9194 26.5853 64.6131 26.5853 64.3655 26.7279L33.1925 44.7317C33.0035 44.8892 32.81 45.2242 32.7658 45.3768C32.7503 45.4293 32.7426 45.4835 32.7426 45.5382L32.8045 67.8121C32.8092 68.4303 33.4779 68.8103 34.0095 68.5042L65.1792 50.5032C65.3638 50.3517 65.5584 50.0245 65.6059 49.8741C65.6236 49.8189 65.6324 49.7608 65.6324 49.7022L65.5705 27.4195C65.5683 27.1342 65.4135 26.8689 65.167 26.7268ZM64.4639 49.6171L33.9354 67.24L33.8746 45.672C33.8879 45.651 33.9023 45.63 33.9144 45.6123L64.4396 27.9921L64.5004 49.5635C64.4882 49.5823 64.4749 49.6011 64.4639 49.6171Z" fill="black"/>
<path d="M36.948 48.0008L61.1749 34.0163C61.4457 33.8598 61.5386 33.5138 61.3816 33.2429C61.2257 32.9721 60.8797 32.8798 60.6088 33.0356L36.382 47.0202C36.1111 47.1766 36.0183 47.5227 36.1752 47.7935C36.3292 48.0622 36.6748 48.1577 36.948 48.0008Z" fill="black"/>
<path d="M36.948 52.9686L56.3536 41.7672C56.6245 41.6108 56.7173 41.2648 56.5603 40.9939C56.4045 40.7225 56.0562 40.6296 55.7876 40.7866L36.382 51.988C36.1111 52.1444 36.0183 52.4904 36.1752 52.7613C36.3292 53.03 36.6748 53.1255 36.948 52.9686Z" fill="black"/>
<path d="M36.948 57.9369L51.5323 49.5187C51.8032 49.3623 51.8961 49.0162 51.7391 48.7454C51.5832 48.4745 51.2361 48.3816 50.9663 48.5381L36.382 56.9562C36.1111 57.1127 36.0183 57.4587 36.1752 57.7296C36.33 57.9996 36.6758 58.0931 36.948 57.9369Z" fill="black"/>
<path d="M52.8623 52.4114L36.382 61.924C36.1111 62.0804 36.0183 62.4265 36.1752 62.6973C36.33 62.9674 36.6758 63.0609 36.948 62.9046L53.4283 53.392C53.6992 53.2356 53.7921 52.8895 53.6351 52.6187C53.4792 52.3467 53.1321 52.2549 52.8623 52.4114Z" fill="black"/>
<path d="M61.7819 43.9573C61.7653 43.9064 61.7609 43.75 61.7576 43.6466C61.7487 43.3299 61.7366 42.9357 61.4635 42.6616C61.1407 42.3388 60.704 42.4123 60.442 42.4537C60.3801 42.4642 60.2872 42.4792 60.3126 42.4974C60.1994 42.4261 59.8402 41.9494 59.2613 42.0751C59.1518 42.0972 59.0446 42.1392 58.9307 42.2039C58.9296 42.2044 58.9285 42.205 58.9274 42.2055C58.7372 42.315 58.5659 42.4725 58.3989 42.6251C58.2784 42.7351 58.1436 42.8595 58.0518 42.912C57.9777 42.9545 57.876 42.9789 57.7577 43.0071C57.5908 43.0469 57.3841 43.096 57.1762 43.2171C56.7507 43.4606 56.5361 43.886 56.326 44.3226C56.1095 44.7694 56.0934 44.7995 55.7445 45.1452C55.519 45.3696 55.2625 45.6233 55.0978 45.9743C54.9397 46.3242 54.932 46.667 54.9253 46.9422C54.9141 47.3544 54.9059 47.3824 54.7108 47.8228C54.5638 48.1539 54.4124 48.4966 54.4135 48.8532C54.4146 49.3114 54.6677 49.5845 54.8192 49.7475C54.8546 49.7857 54.9032 49.8382 54.9076 49.841C54.9253 49.8946 54.9309 50.0549 54.9342 50.161C54.9452 50.4816 54.9574 50.8802 55.226 51.1427C55.5489 51.475 55.99 51.402 56.2564 51.3556C56.315 51.3456 56.4012 51.3312 56.3802 51.3124C56.4134 51.3346 56.4421 51.3655 56.4731 51.3943C56.6179 51.5269 56.8711 51.758 57.2503 51.758C57.6669 51.758 57.9796 51.474 58.2873 51.193C58.4133 51.0781 58.5438 50.9587 58.6377 50.9045C58.714 50.8608 58.819 50.8354 58.9395 50.8055C59.1054 50.7652 59.3121 50.7143 59.52 50.5944C60.1502 50.2297 60.3287 49.4305 60.6089 49.0394C60.704 48.9035 60.8278 48.7857 60.9483 48.6658C61.1739 48.4425 61.4281 48.1893 61.5906 47.8405C61.7476 47.4944 61.7576 47.1683 61.7653 46.8803C61.7767 46.4539 61.7935 46.4097 61.9809 45.9909C62.1268 45.6609 62.2772 45.3193 62.2761 44.9639C62.275 44.5122 62.0273 44.2397 61.8792 44.0772C61.8438 44.038 61.7941 43.9838 61.7819 43.9573ZM60.945 45.5332C60.7042 46.0804 60.6493 46.2645 60.6332 46.8494C60.6277 47.0644 60.6222 47.2341 60.5625 47.3673C60.4233 47.6663 59.9855 47.959 59.6847 48.385C59.5575 48.5635 59.4481 48.783 59.3398 49.0063C59.2314 49.2329 59.1175 49.4673 58.9528 49.6149C58.8865 49.653 58.787 49.6773 58.6709 49.7061C58.5006 49.7475 58.2873 49.7995 58.0717 49.9244C57.7746 50.0961 57.5112 50.3831 57.2669 50.5861C57.0941 50.4229 56.9323 50.291 56.6997 50.229C56.4869 50.1744 56.2818 50.2031 56.0707 50.239C56.0585 50.0196 56.0686 49.7474 55.98 49.4767C55.8993 49.2462 55.7545 49.0909 55.6495 48.9775C55.6119 48.9366 55.5544 48.8753 55.5455 48.8498C55.5455 48.7349 55.6616 48.4723 55.7456 48.281C56.0072 47.6947 56.0419 47.5223 56.0574 46.9699C56.0618 46.7526 56.0662 46.5807 56.1259 46.4469C56.2673 46.1488 56.7076 45.8495 57.0071 45.4287C57.132 45.2508 57.2403 45.0335 57.3454 44.8135C57.4559 44.5858 57.5687 44.3503 57.7422 44.1972C57.8075 44.159 57.9059 44.1358 58.0208 44.1082C58.19 44.0678 58.4011 44.0175 58.6189 43.892C58.8168 43.7776 58.9926 43.6162 59.1629 43.4598C59.2524 43.378 59.3519 43.2879 59.4304 43.2287C59.4381 43.2365 59.447 43.2447 59.4547 43.2519C59.5774 43.3636 59.7455 43.5167 59.9942 43.5797C60.2198 43.6383 60.442 43.6013 60.6222 43.5714C60.6339 43.7772 60.6221 44.0685 60.7095 44.3204C60.7891 44.5603 60.9351 44.7212 61.0412 44.8389C61.0788 44.8798 61.1352 44.9418 61.144 44.9672C61.144 45.0822 61.029 45.3431 60.945 45.5332Z" fill="black"/>
</svg>
