<svg width="93" height="92" viewBox="0 0 93 92" fill="none" xmlns="http://www.w3.org/2000/svg">
<path d="M47.6624 10.8823L49.9543 9.55922C50.3696 9.31936 50.512 8.78877 50.2721 8.37345C50.0314 7.95814 49.4983 7.8149 49.0863 8.05561L46.7945 9.37869C46.3791 9.61855 46.2368 10.1491 46.4766 10.5645C46.6377 10.8425 46.9292 10.9984 47.2293 10.9984C47.3768 10.9984 47.5259 10.9611 47.6624 10.8823Z" fill="white"/>
<path d="M53.0454 27.094L38.2356 35.6444C37.8203 35.8843 37.6779 36.4149 37.9178 36.8302C38.1583 37.2466 38.6905 37.3866 39.1036 37.148L53.9134 28.5976C54.3287 28.3578 54.4711 27.8272 54.2312 27.4119C53.9905 26.9957 53.4591 26.8525 53.0454 27.094Z" fill="white"/>
<path d="M53.0454 34.4493L38.2356 42.9998C37.8203 43.2396 37.6779 43.7702 37.9178 44.1855C38.1583 44.602 38.6905 44.742 39.1036 44.5034L53.9134 35.953C54.3287 35.7131 54.4711 35.1825 54.2312 34.7672C53.9905 34.351 53.4591 34.2086 53.0454 34.4493Z" fill="white"/>
<path d="M53.0454 41.8038L38.2356 50.3542C37.8203 50.5941 37.6779 51.1247 37.9178 51.54C38.0788 51.8189 38.3704 51.974 38.6704 51.974C38.8179 51.974 38.9671 51.9367 39.1036 51.8579L53.9134 43.3074C54.3287 43.0676 54.4711 42.537 54.2312 42.1217C53.9905 41.7064 53.4591 41.564 53.0454 41.8038Z" fill="white"/>
<path d="M53.0454 49.1583L38.2356 57.7087C37.8203 57.9486 37.6779 58.4791 37.9178 58.8945C38.0788 59.1733 38.3704 59.3284 38.6704 59.3284C38.8179 59.3284 38.9671 59.2911 39.1036 59.2123L53.9134 50.6619C54.3287 50.422 54.4711 49.8914 54.2312 49.4761C53.9905 49.06 53.4591 48.9176 53.0454 49.1583Z" fill="white"/>
<path d="M71.0087 51.1234L71.0071 51.1224C71.001 51.1188 70.9958 51.1139 70.9896 51.1103C70.9842 51.1071 70.9781 51.1054 70.9727 51.1023L66.6822 48.6057C66.4329 48.4621 66.1734 48.3426 65.9074 48.2394L65.805 11.1502C65.805 10.1819 65.4234 9.4053 64.765 8.99634C64.7471 8.98405 64.7366 8.96519 64.7175 8.95406L57.2681 4.61105C56.5723 4.20845 55.6781 4.26015 54.8076 4.75344L51.4673 6.68085C51.052 6.92071 50.9096 7.4513 51.1494 7.86662C51.3893 8.28108 51.9207 8.42178 52.3352 8.18446L55.6687 6.2613C56.0349 6.05364 56.2951 6.05448 56.3977 6.11297L61.8942 9.31768L28.8716 28.3874C27.3697 29.2443 26.1932 31.2735 26.1932 33.0102C26.2712 59.1232 26.2703 58.8185 26.3478 84.7577L20.8534 81.5427C20.7187 81.4648 20.6331 81.202 20.6254 80.8562L20.4839 28.6663C20.4839 27.5619 21.3239 26.0973 22.274 25.537L44.7256 12.5775C45.1409 12.3376 45.2833 11.807 45.0434 11.3917C44.8027 10.9764 44.2722 10.834 43.8577 11.0739L21.3993 24.0376C19.9126 24.9149 18.748 26.9474 18.748 28.6688L18.8896 80.8782C18.9201 82.2327 19.5905 82.8175 19.9821 83.0438L27.4273 87.4004C27.4498 87.4135 27.4757 87.4089 27.4988 87.4198C28.2674 87.8276 29.1344 87.6741 29.8904 87.2385L52.8211 74.0013L54.4882 74.9695L54.505 84.127C54.5059 84.4355 54.6703 84.7212 54.9373 84.8763L59.2769 87.3936C59.3077 87.4115 59.3443 87.4066 59.3767 87.4204C59.4014 87.4312 59.4137 87.4579 59.4396 87.4665C59.6641 87.5406 59.8933 87.5237 60.1215 87.4006C60.1297 87.3962 60.1393 87.3983 60.1474 87.3936C60.1828 87.3731 60.1994 87.3345 60.2311 87.3097C60.2915 87.263 60.3593 87.2269 60.4067 87.1639L64.1666 82.1555L67.74 82.776C68.2839 82.8648 68.758 82.4495 68.7563 81.9182L68.7226 71.6102C72.147 67.664 74.2644 62.5032 74.252 58.0494C74.2427 54.7908 73.0905 52.3328 71.0087 51.1234ZM72.5161 58.0545C72.5318 63.4273 68.8798 70.4848 63.6684 73.7362C58.568 76.8877 54.98 74.4937 54.9644 69.1833C54.9572 66.5942 55.7976 63.7613 57.1436 61.1407C58.8284 57.8636 61.3224 54.9263 64.1446 53.297C68.8771 50.5642 72.5003 52.6097 72.5161 58.0545ZM29.0224 85.7349C28.6571 85.9451 28.4079 85.9519 28.3054 85.8908C28.2577 85.8634 28.2076 85.7939 28.1664 85.6927C28.1403 85.6261 28.1333 85.5235 28.1196 85.4293C28.1083 85.3557 28.0873 85.3044 28.0867 85.2104L27.9291 33.0218C27.9291 32.8541 27.9804 32.6735 28.0145 32.4966C28.2357 31.3577 28.986 30.3291 29.7344 29.9029L63.1317 10.6179C63.2145 10.5702 63.2825 10.5458 63.3528 10.5176C63.3924 10.5019 63.4357 10.4787 63.4724 10.468C63.5301 10.4509 63.5761 10.4469 63.6228 10.4418C63.6958 10.4351 63.7658 10.4327 63.8163 10.4541C63.8256 10.4577 63.842 10.4568 63.8496 10.4611C63.9505 10.5196 64.0691 10.7357 64.0691 11.1527L64.1708 47.8611C63.0238 47.7813 61.8363 48.0194 60.7501 48.4248L60.6669 21.6848C60.6661 21.3745 60.4991 21.0881 60.2296 20.9338C59.9618 20.7804 59.6303 20.7829 59.3608 20.938C58.8599 21.2313 58.398 21.3093 58.1166 21.1482C57.8403 20.9889 57.6809 20.5719 57.6809 20.0032C57.6809 19.6929 57.5156 19.4065 57.2469 19.2513C56.9791 19.0971 56.6469 19.0971 56.379 19.2513L34.7852 31.715C34.5165 31.8702 34.3512 32.1566 34.3512 32.4669C34.3512 34.0408 33.1883 36.0504 31.8127 36.8556C31.5457 37.0116 31.3821 37.2981 31.383 37.6074L31.4872 74.6502C31.4881 74.9596 31.6533 75.2452 31.9212 75.3995C32.189 75.552 32.5179 75.5546 32.7874 75.4003C33.2909 75.1113 33.7435 75.035 34.024 75.1977C34.3037 75.3579 34.4682 75.7809 34.4732 76.3572C34.4758 76.6657 34.6428 76.9488 34.9106 77.1022C35.1702 77.2511 35.4991 77.2591 35.7743 77.1005L49.2154 69.3512C49.227 69.3987 49.2395 69.4451 49.2518 69.492C49.5877 70.786 50.2239 72.0253 51.2122 72.9262L29.0224 85.7349ZM48.9228 67.4364C48.9246 67.4649 48.9233 67.4863 48.9254 67.5152L35.9641 74.9875C35.5173 73.8493 34.4967 73.2174 33.2197 73.4187L33.1205 38.0719C34.6724 36.948 35.8701 34.8748 36.0608 32.983L56.1841 21.3686C56.4036 21.9306 56.7681 22.3755 57.2537 22.6535C57.7462 22.9375 58.3242 23.0265 58.9353 22.9248L59.0167 49.2422C58.9938 49.2549 58.9718 49.2685 58.9497 49.282C54.4309 51.8869 50.6066 57.5296 49.342 62.9799C49.0042 64.4338 48.8293 65.9588 48.9228 67.4364ZM53.0141 72.1066C52.1908 71.6271 51.321 70.5445 50.9233 68.9347C50.4995 67.2181 50.47 65.0522 51.3472 62.1463C52.8549 57.1566 56.9125 51.5566 61.6501 49.954C63.4158 49.3658 64.8383 49.5463 65.8126 50.1076L66.5051 50.5102C66.4883 50.5137 66.4707 50.5222 66.4539 50.5258C65.4288 50.745 64.1418 51.2914 63.2724 51.7917C60.2437 53.542 57.5339 56.6606 55.6921 60.1664C54.1537 63.0923 53.218 66.2874 53.226 69.1918C53.2306 70.7076 53.4794 71.4835 53.518 71.6571C53.5818 71.9443 53.6285 72.2463 53.7151 72.5134L53.0141 72.1066ZM56.24 83.6252L56.2256 75.9787C56.4003 76.0577 57.3354 76.7141 58.8124 76.8581L58.8396 85.1331L56.24 83.6252ZM63.9403 80.3544C63.6233 80.3019 63.2928 80.4282 63.0978 80.6884L60.572 84.0524L60.5483 76.8064C61.5669 76.6543 62.9363 76.1993 64.3089 75.3854C65.2355 74.8394 66.306 74.0221 66.9924 73.4017L67.017 80.8884L63.9403 80.3544Z" fill="white"/>
<path d="M67.673 58.8394C67.256 58.6038 66.7271 58.7445 66.4881 59.1615L62.4154 66.271L60.8279 64.7962C60.4787 64.4724 59.9295 64.4902 59.6015 64.8411C59.2752 65.192 59.2955 65.7413 59.6464 66.0676L62.0349 68.2865C62.4483 68.6697 63.1025 68.5628 63.3791 68.0823L67.9951 60.0243C68.2333 59.6081 68.0892 59.0784 67.673 58.8394Z" fill="white"/>
</svg>
