<svg width="128" height="128" viewBox="0 0 128 128" fill="none" xmlns="http://www.w3.org/2000/svg">
<path d="M105.613 15.3506C85.581 -1.77539 56.1472 -5.34829 32.0133 8.58404C18.8185 16.2089 9.35659 27.8159 4.28627 41.0196C17.6408 52.437 37.2633 54.8122 53.3526 45.5307L105.623 15.3606L105.613 15.3506ZM85.3415 124.344C110.194 115.562 128 91.8587 128 63.994C128 48.7543 122.67 34.7621 113.767 23.7639C97.1988 29.6223 85.3315 45.4209 85.3315 63.994V124.344H85.3415ZM1.07241 52.2972C-3.74838 78.2058 7.87941 105.482 32.0133 119.414C45.2081 127.039 59.9999 129.424 73.9632 127.208C77.1771 109.933 69.4219 91.7589 53.3426 82.4673L1.07241 52.2972Z" fill="#FB5E48"></path>
</svg>