<svg width="93" height="92" viewBox="0 0 93 92" fill="none" xmlns="http://www.w3.org/2000/svg">
<path d="M17.0572 82.3506C17.1186 82.3863 16.2015 81.8534 25.9949 87.5454C26.2589 87.6975 26.5903 87.7011 26.862 87.5446L76.0447 59.1489C76.3142 58.9929 76.4795 58.7056 76.4786 58.3945L76.3761 21.9739C76.3755 21.7991 76.2133 21.3823 75.9447 21.2264L75.9426 21.2252L75.9413 21.2238L75.9395 21.2233L67.0086 16.0332C66.7382 15.8756 66.4068 15.8773 66.1381 16.0315L58.144 20.6469L49.976 12.2299C50.7717 10.8404 51.241 9.33307 51.241 7.99135V7.98542C51.22 4.8483 48.7642 3.40562 46.0157 4.98328C43.5526 6.40976 41.6396 9.71703 41.6599 12.5047C41.6599 13.8159 42.0829 14.8517 42.8271 15.4798L34.1987 34.4718L16.9554 44.4272C16.6841 44.5843 16.5223 44.8734 16.5215 45.1782L16.5219 45.1799C16.5219 45.3844 16.5721 64.853 16.5783 65.1379C16.58 65.6159 16.9682 66.0033 17.4462 66.0033H17.4487C17.9276 66.0016 18.3158 65.6126 18.3141 65.1328L18.2616 46.6897L25.4581 50.8723L25.5558 85.2824L18.359 81.1004L18.3362 73.74C18.3345 73.2611 17.9463 72.8746 17.4682 72.8746H17.4657C16.986 72.8763 16.5986 73.2662 16.6003 73.7451L16.6249 81.6031C16.6257 81.9116 16.7902 82.1964 17.0572 82.3506ZM27.2917 85.2917L27.1942 50.8725C38.3973 44.4045 63.4062 29.9658 74.6445 23.4775L74.7411 57.897L27.2917 85.2917ZM46.8819 6.48774C48.4035 5.61667 49.4906 6.13555 49.5052 7.99474C49.5036 10.2356 47.8547 12.9447 46.0369 14.0075C44.5406 14.8638 43.3958 14.4131 43.3958 12.4988C43.3805 10.3442 44.9782 7.59045 46.8819 6.48774ZM44.437 16.1323C45.3199 16.2111 46.1329 15.9519 46.9056 15.5103C47.6364 15.0828 48.3514 14.4537 48.9818 13.698L56.5938 21.542L36.7829 32.9798L44.437 16.1323ZM32.9642 37.1891L30.1074 43.4771C29.8453 44.0539 30.2707 44.7044 30.8965 44.7044C31.227 44.7044 31.5423 44.5154 31.6873 44.1958L35.5484 35.6969L57.8403 22.8265L61.3806 26.4746C61.7145 26.8184 62.2636 26.8272 62.6079 26.4932C62.9521 26.1593 62.9605 25.6101 62.6266 25.2659L59.3906 21.9313L66.5704 17.786L73.7764 21.9739L26.3259 49.3691C25.9797 49.1679 18.758 44.9706 19.121 45.1816L32.9642 37.1891Z" fill="black"/>
<path d="M18.3286 70.4853L18.3218 67.912C18.3209 67.434 17.9319 67.0467 17.4539 67.0467C16.9936 67.0958 16.5851 67.4365 16.5859 67.9171L16.5927 70.4904C16.5936 70.9684 16.9826 71.3558 17.4606 71.3558C17.9531 71.4134 18.3294 70.9659 18.3286 70.4853Z" fill="black"/>
<path d="M70.7398 30.2607C70.4711 30.1056 70.1397 30.1082 69.8727 30.2616L31.1263 52.6318C30.8568 52.7878 30.6915 53.0751 30.6924 53.3862L30.7619 77.7584C30.7627 78.0678 30.9289 78.3534 31.1967 78.5085C31.4607 78.6605 31.7921 78.6641 32.0638 78.5077L70.811 56.1374C71.0805 55.9815 71.2458 55.6941 71.245 55.3831L71.1746 31.0108C71.1738 30.7015 71.0076 30.4158 70.7398 30.2607ZM32.4935 76.2548L32.4299 53.8837L69.443 32.5144L69.5074 54.8855L32.4935 76.2548Z" fill="black"/>
<path d="M45.5002 58.8855L42.3403 53.4693C42.1691 53.1743 41.8428 53.0082 41.4978 53.0438C41.1571 53.0811 40.8706 53.3141 40.7647 53.6405L36.2454 67.6485C36.0656 68.2075 36.482 68.7825 37.0718 68.7825C37.4388 68.7825 37.7795 68.5486 37.8981 68.1807L39.4462 63.3825L44.4347 60.5026L45.8163 62.8706C46.0587 63.2843 46.5918 63.4258 47.0029 63.1825C47.4165 62.9418 47.5564 62.4096 47.3148 61.9959L45.5002 58.8855ZM40.241 60.9191L41.8208 56.0222L43.5599 59.003L40.241 60.9191Z" fill="black"/>
<path d="M54.7394 52.5662C55.3667 51.6415 55.7693 50.5389 55.7664 49.5339C55.7638 48.5355 55.3629 47.7328 54.6662 47.3319C53.9652 46.9276 53.0651 46.987 52.1938 47.4896L49.3866 49.1102C49.1171 49.2661 48.9518 49.5534 48.9526 49.8645C48.9531 50.0427 48.9843 60.9285 48.9823 60.2406C48.9836 60.7128 49.3659 61.106 49.8502 61.106C50.0003 61.106 50.1503 61.067 50.2842 60.9899L53.0905 59.3701C54.6035 58.4963 55.7859 56.4528 55.7816 54.7169C55.7792 53.7511 55.3963 52.9763 54.7394 52.5662ZM53.0617 48.9932C53.4347 48.7771 53.694 48.7745 53.8 48.8364C53.939 48.9161 54.0297 49.1915 54.0305 49.5382C54.0339 50.6511 53.1821 52.1208 52.2082 52.6827L50.6987 53.554L50.6902 50.362L53.0617 48.9932ZM52.2226 57.8665L50.7139 58.7378L50.7046 55.5554L53.0761 54.1863C53.4508 53.9702 53.7093 53.9634 53.8186 54.027C53.9559 54.1058 54.0449 54.3787 54.0458 54.7212C54.0483 55.8349 53.1965 57.3046 52.2226 57.8665Z" fill="black"/>
<path d="M64.2083 51.3851C63.8879 51.7555 63.1793 52.3801 62.2368 52.9243C61.3435 53.4421 60.5832 53.5956 60.1509 53.3455C59.7076 53.0904 59.4517 52.3064 59.4483 51.1944C59.4407 48.5041 60.9994 45.7936 63.326 44.4501C64.3312 43.8695 64.8287 43.8551 64.8287 43.8551C65.2593 43.8967 65.7094 43.4966 65.7246 43.0169C65.7407 42.538 65.3661 42.1371 64.8864 42.121C64.3193 42.104 63.4014 42.4024 62.4581 42.9465C59.6102 44.5908 57.7031 47.9074 57.7124 51.1994C57.7192 53.4727 58.5719 54.4397 59.2855 54.85C59.6178 55.0415 60.0679 55.1992 60.6485 55.1992C61.2986 55.1992 62.1114 55.0008 63.1048 54.4279C64.2329 53.7761 65.0923 53.0158 65.5204 52.5208C65.834 52.1581 65.795 51.6105 65.4322 51.2969C65.0695 50.9833 64.5228 51.0223 64.2083 51.3851Z" fill="black"/>
</svg>
