<svg width="93" height="93" viewBox="0 0 93 93" fill="none" xmlns="http://www.w3.org/2000/svg">
<rect x="0.5" y="0.5" width="92" height="92" rx="46" fill="black"/>
<path d="M64.9294 34.6511C62.6862 35.9462 60.935 38.987 60.9422 41.574C60.9502 44.3365 63.0538 45.6086 65.5197 44.1875C67.7678 42.889 69.5229 39.8526 69.5157 37.2745C69.5077 34.4748 67.37 33.2437 64.9294 34.6511ZM64.9537 43.2069C63.2872 44.1709 62.08 43.4979 62.0743 41.5707C62.0682 39.4254 63.6348 36.7057 65.4954 35.6317C67.1379 34.6825 68.3778 35.3111 68.3836 37.2778C68.3897 39.4143 66.8187 42.1295 64.9537 43.2069Z" fill="white"/>
<path d="M22.0896 51.3636C22.0923 54.72 26.792 56.3015 30.1794 56.3015C32.1904 56.3015 34.1986 55.8476 35.7596 54.94C37.3466 54.0174 38.22 52.7571 38.2172 51.3912C38.2156 50.3623 37.7178 49.3933 36.7924 48.5799C40.3782 47.3915 44.9927 47.699 47.9604 49.4272C51.3511 51.3921 51.3342 54.403 47.9162 56.3717L39.0188 61.5113C36.7047 62.8444 36.708 65.1956 38.9834 66.5106C41.0991 67.7375 44.402 67.7216 46.5011 66.5111L62.6406 57.1898C63.2817 57.5601 64.8122 58.4625 65.0361 58.5725C65.2881 58.6904 65.642 58.6233 65.7881 58.3085C67.6133 54.3762 73.6822 39.9779 73.6698 35.4294C73.6621 32.8258 72.7496 30.8644 71.1015 29.8966C71.0957 29.8929 71.0926 29.8869 71.0867 29.8834L71.0812 29.8801L65.9603 26.8996C64.2732 25.9322 62.0837 26.1295 59.7963 27.4501C55.2968 30.0509 51.6501 36.3724 51.6667 41.5414C51.6833 46.5102 58.3978 54.0196 59.7438 55.4745C59.782 55.516 59.8267 55.5519 59.8754 55.5801L61.5131 56.5334L45.9356 65.5305C44.1988 66.5305 41.2763 66.5305 39.5505 65.5305C37.9989 64.6347 38.0682 63.365 39.5843 62.4919L48.4817 57.3523C50.5059 56.1865 51.6214 54.6006 51.6236 52.8859C51.6264 51.1822 50.5269 49.6063 48.5292 48.4482C45.0314 46.4118 39.6741 46.154 35.6555 47.7857C35.1441 47.4999 34.5758 47.2728 33.9801 47.0799C35.9075 42.3389 38.2242 36.0881 38.2195 33.4399C38.2156 31.1951 37.4268 29.5011 36.0003 28.6604C35.9946 28.6568 35.9916 28.6509 35.9857 28.6474L35.9813 28.6447L31.6271 26.1047C30.1639 25.2639 28.2734 25.4286 26.299 26.5679C26.0286 26.7238 25.9352 27.0704 26.0917 27.3412C26.2481 27.6115 26.5925 27.7033 26.865 27.5485C28.473 26.6193 29.9649 26.4535 31.06 27.0847L32.9797 28.2041C31.9228 28.4063 30.5771 29.0011 29.2506 30.0785C25.1662 33.3907 23.1088 39.181 23.8621 42.495C24.4738 45.2001 26.6617 48.3525 28.3889 50.5249L26.986 49.7063C24.5389 47.0414 20.4694 41.7735 20.4622 38.6178C20.4584 36.8561 21.0145 34.823 22.0288 32.8921C22.1747 32.6158 22.068 32.2736 21.7911 32.1282C21.5158 31.9834 21.1731 32.0901 21.0272 32.3659C19.9283 34.4565 19.3257 36.6775 19.3302 38.62C19.3367 41.5501 22.0534 45.5058 24.119 48.091C22.8088 48.9819 22.0886 50.1284 22.0896 51.3636ZM72.5377 35.4327C72.5499 39.7332 66.7532 53.2969 65.1159 57.042C62.6492 54.2515 57.9316 48.2651 57.9235 44.5202C57.9119 40.3196 60.4937 35.3082 63.9313 32.4937C65.7583 31.0004 68.4703 29.6842 70.5046 30.8557C71.8092 31.6064 72.5316 33.2321 72.5377 35.4327ZM52.7988 41.538C52.7833 36.73 56.1762 30.8502 60.3624 28.4307C62.2871 27.318 64.0742 27.1234 65.3942 27.8796L67.8906 29.3329C66.1138 29.5936 64.4101 30.6118 63.0467 31.7711C59.4521 34.822 56.7756 40.0884 56.7898 44.5236C56.8015 48.1146 60.3703 53.0795 62.6459 55.883L60.5183 54.6442C57.6289 51.5084 52.811 45.2858 52.7988 41.538ZM37.0874 33.4422C37.0929 36.5701 33.3044 46.0069 30.8171 51.6623C28.8084 49.3818 25.9432 45.625 25.0766 42.6841C24.0426 39.165 26.5225 33.9395 29.6481 31.2261C33.5194 27.8714 37.0792 28.8841 37.0874 33.4422ZM26.3421 50.6411L30.6968 53.1816C30.9537 53.3336 31.3546 53.1903 31.4788 52.9448C31.7696 52.3699 33.128 49.1496 33.5502 48.1282C34.1237 48.3077 34.668 48.5218 35.1466 48.7937C36.3953 49.514 37.0841 50.4371 37.0852 51.3934C37.0868 52.3381 36.4141 53.2502 35.1903 53.9616C30.7446 56.5455 23.2236 54.6257 23.2217 51.3624C23.2212 50.4949 23.8111 49.6628 24.8492 48.9808C25.4545 49.7022 25.9515 50.2549 26.21 50.5349C26.2481 50.5764 26.2934 50.6129 26.3421 50.6411Z" fill="white"/>
<path d="M23.4019 30.7264C23.9757 29.9669 24.6003 29.2892 25.2581 28.7121C25.4936 28.5059 25.5168 28.1483 25.3106 27.9133C25.1033 27.6779 24.7462 27.6552 24.5119 27.8608C23.796 28.4888 23.1189 29.2234 22.4987 30.0432C22.3102 30.293 22.3594 30.6479 22.6087 30.8364C22.8569 31.0242 23.2122 30.9762 23.4019 30.7264Z" fill="white"/>
<path d="M30.6592 32.6976C28.7262 33.8103 27.2154 36.4277 27.2199 38.6559C27.2244 41.0656 29.077 42.1989 31.2374 40.9554C33.1749 39.8394 34.6889 37.2264 34.6845 35.0059C34.6799 32.5583 32.7936 31.4702 30.6592 32.6976ZM30.6725 39.9748C29.3343 40.7443 28.3543 40.2534 28.3519 38.6537C28.3486 36.8555 29.6637 34.577 31.2241 33.6782C32.5578 32.9101 33.5501 33.3956 33.5524 35.0082C33.5557 36.7991 32.2368 39.0732 30.6725 39.9748Z" fill="white"/>
</svg>
