<svg width="93" height="92" viewBox="0 0 93 92" fill="none" xmlns="http://www.w3.org/2000/svg">
<rect x="0.5" width="92" height="92" rx="46" fill="white"/>
<path d="M25.2973 58.4405C25.2984 58.7528 25.5516 59.0049 25.8634 59.0049C26.1762 59.0038 26.4305 58.75 26.4294 58.4372L26.3808 41.3943C26.6278 41.5378 30.2779 43.6593 30.1438 43.5814C30.1627 50.206 30.2045 64.8978 30.2236 71.6185L26.4604 69.4312L26.4493 65.7249C26.4482 65.4126 26.195 65.1605 25.8833 65.1605C25.8833 65.1605 25.8822 65.1605 25.881 65.1605C25.5693 65.1616 25.3161 65.4159 25.3172 65.7282L25.3294 69.759C25.3305 69.9602 25.4377 70.146 25.6113 70.2466C25.7259 70.3132 30.6242 73.1596 30.5096 73.093C30.5102 73.0933 30.5104 73.0941 30.5111 73.0944C30.6857 73.195 30.9013 73.1945 31.076 73.0939L67.4716 52.0808C67.6473 51.9791 67.7557 51.7917 67.7546 51.5889L67.6717 22.2406C67.6712 22.1521 67.5576 21.8504 67.3897 21.7531L67.3884 21.7523C67.3881 21.7521 67.388 21.7516 67.3875 21.7514C67.3872 21.7512 67.3867 21.7513 67.3864 21.7511L62.4922 18.9068C62.3186 18.8051 62.1008 18.8051 61.9251 18.9057L25.5284 39.9188C25.3514 40.0212 25.2454 40.2097 25.2454 40.4085C25.2454 40.4089 25.2456 40.4092 25.2456 40.4096C25.2456 40.4101 25.2454 40.4103 25.2454 40.4107L25.2973 58.4405ZM31.3562 71.6243C31.3488 69.0472 31.2868 47.3198 31.2761 43.5816L66.5418 23.2215L66.6214 51.2644L31.3562 71.6243ZM62.207 20.05L65.9765 22.2404L30.7097 42.6012L26.9477 40.4151L26.9402 40.4107L62.207 20.05Z" fill="black"/>
<path d="M25.8777 63.7454C26.1906 63.7443 26.4438 63.4906 26.4427 63.1777L26.436 60.9136C26.4349 60.6012 26.1818 60.3492 25.87 60.3492C25.5571 60.3503 25.3029 60.604 25.304 60.9169L25.3106 63.181C25.3117 63.4933 25.566 63.7454 25.8777 63.7454Z" fill="black"/>
<path d="M64.7873 27.2437C64.7862 27.0414 64.6789 26.8551 64.5032 26.7545C64.3274 26.6534 64.1118 26.6545 63.9382 26.7556C21.958 50.9751 36.437 42.6217 33.3047 44.4288C33.129 44.53 33.0217 44.7179 33.0217 44.9208C33.0228 45.2235 33.1014 67.295 33.1024 67.5977C33.1035 67.7994 33.2108 67.9857 33.3866 68.0869C33.5612 68.1875 33.7768 68.1869 33.9515 68.0863L64.5739 50.4126C64.7497 50.3109 64.858 50.1235 64.8569 49.9206L64.7873 27.2437ZM60.3883 47.7897L34.2219 62.8975L34.1781 45.2453L60.3353 30.144L60.3883 47.7897ZM34.2312 66.6176L34.2252 64.2028L61.2385 48.6061C61.4143 48.5044 61.5226 48.317 61.5215 48.1142L61.4651 29.4918L63.6585 28.2254L63.7237 49.5961L34.2312 66.6176Z" fill="black"/>
<path d="M41.7367 52.302C42.2486 52.0112 42.7306 51.5121 43.0932 50.8968C44.5466 48.435 43.045 46.4177 41.1651 47.5233C40.6433 47.8229 40.1624 48.3226 39.8119 48.9256C38.3754 51.3425 39.828 53.4057 41.7367 52.302ZM40.7881 49.4989C41.0424 49.06 41.3774 48.7073 41.7334 48.5022C42.7875 47.8867 42.7021 49.3332 42.1181 50.3208C41.8583 50.7619 41.5156 51.1257 41.174 51.3197C40.1012 51.9373 40.2127 50.4674 40.7881 49.4989Z" fill="black"/>
<path d="M36.6921 53.6739L37.0934 53.6181C37.1564 53.8188 37.2272 53.9912 37.2979 54.1189L36.8601 55.2018C36.6877 55.5882 36.7794 56.0072 37.0735 56.2123L37.6517 56.6324C37.8958 56.7718 38.1695 56.7471 38.4156 56.6114C38.4809 56.5727 38.5759 56.5085 38.6445 56.4212L39.3885 55.5992C39.54 55.6147 39.6948 55.618 39.8473 55.6081L39.98 56.1763C40.0419 56.3781 40.1845 56.5417 40.3713 56.6246C40.5648 56.7098 40.7892 56.7053 41.0148 56.6003L41.8318 56.1868C42.0098 56.0862 42.2463 55.8701 42.3691 55.413L42.6543 54.3566C42.9263 54.1394 43.2015 53.8746 43.5409 53.5048L44.2993 53.6048C44.5204 53.6341 44.736 53.5324 44.8532 53.3439L45.731 51.9421C45.8371 51.7724 45.846 51.5585 45.7531 51.3799L45.3584 50.6287C45.4944 50.2816 45.6592 49.8366 45.7653 49.3911L46.6475 48.6387C46.8697 48.4519 47.0245 48.1473 47.0411 47.8566L47.0875 46.9213C47.1063 46.6018 46.956 46.4105 46.8642 46.3254C46.7503 46.2193 46.5558 46.0993 46.2175 46.1424L46.2119 46.143L45.8383 46.1966C45.7741 46.0037 45.6901 45.8362 45.6083 45.682L46.0682 44.5703C46.2296 44.0629 46.0295 43.7274 45.8294 43.6102L45.333 43.2525C45.0986 43.0524 44.767 43.0364 44.4983 43.2056C44.3988 43.2647 44.3104 43.341 44.2562 43.409L43.5221 44.2254C43.3674 44.2105 43.2137 44.2077 43.0567 44.2188L42.9329 43.7102C42.8876 43.4864 42.7494 43.3034 42.5526 43.2078C42.3492 43.1083 42.1082 43.1155 41.8926 43.2243L41.0568 43.6461C40.8025 43.7915 40.6245 44.0541 40.5305 44.4178L40.2453 45.473C39.9347 45.7295 39.6284 46.0247 39.362 46.321L38.7982 46.2563C38.6423 46.2253 38.4787 46.2497 38.2564 46.3619C38.0928 46.4636 37.9812 46.5996 37.9071 46.7107L37.309 47.6659C37.1166 47.9826 37.0978 48.332 37.2581 48.6564L37.5423 49.2059C37.3621 49.6376 37.2261 50.0527 37.1343 50.4402L36.2676 51.1776C36.0321 51.3667 35.8751 51.6679 35.8563 51.9731L35.8187 52.8951C35.7883 53.414 36.2011 53.7566 36.6921 53.6739ZM39.4438 55.5379L39.4449 55.5368C39.4493 55.5346 39.4549 55.5307 39.4637 55.5257C39.4571 55.5301 39.4504 55.534 39.4438 55.5379ZM36.9895 52.0499L37.8607 51.3086C38.0132 51.1831 38.1337 50.9985 38.2377 50.6995C38.3184 50.3518 38.4455 49.9731 38.6135 49.5773C38.7374 49.2905 38.7285 48.9986 38.6135 48.8178L38.3018 48.2098L38.7805 47.3917L39.3012 47.4525C39.519 47.4912 39.7246 47.4536 39.8219 47.3828C39.97 47.3237 40.064 47.2286 40.1292 47.1623C40.4001 46.8555 40.6809 46.5813 40.9827 46.332C41.1607 46.1728 41.2901 45.9584 41.3276 45.7759L41.6239 44.7113C41.6372 44.6571 41.6505 44.624 41.6438 44.6173L41.9512 44.462L42.0363 44.8097C42.1093 45.2 42.4796 45.4719 42.8721 45.3851C43.0976 45.3381 43.3077 45.3332 43.5 45.363C43.6205 45.3873 43.814 45.3912 44.0019 45.2834C44.1158 45.2265 44.1932 45.1491 44.2673 45.0745L44.9251 44.3514L44.9328 44.357L44.5216 45.3481C44.4055 45.6565 44.4331 45.96 44.5713 46.1441C44.6819 46.3508 44.7769 46.5294 44.8035 46.6969C44.8212 46.9102 44.9273 47.1065 45.0953 47.2347C45.2158 47.3276 45.4679 47.3928 45.616 47.3718L45.9366 47.3259L45.9167 47.7748L45.019 48.5398C44.935 48.6155 44.7316 48.825 44.6708 49.1119C44.5702 49.5232 44.4121 49.9427 44.2927 50.2468C44.1866 50.4933 44.1766 50.7492 44.2872 51.0179L44.5989 51.6165L44.0871 52.4352L43.5343 52.3622C43.3386 52.329 43.1529 52.3705 43.049 52.4451C42.9417 52.4987 42.8666 52.5712 42.7748 52.664C42.4442 53.0294 42.1889 53.2787 41.9678 53.4567C41.7787 53.5938 41.6339 53.811 41.5698 54.0493L41.2757 55.1167C41.2613 55.173 41.2458 55.2062 41.2547 55.2112L40.9518 55.3638L40.8545 54.9464C40.7539 54.6109 40.4277 54.3986 40.0419 54.4445C39.8075 54.4871 39.5886 54.4931 39.3819 54.4567C39.1951 54.4274 39.0016 54.4732 38.8966 54.5484C38.7805 54.607 38.6821 54.6844 38.6301 54.7518L37.9867 55.4787L37.9734 55.4688L38.3769 54.4688C38.472 54.2184 38.4753 53.9813 38.3504 53.6878C38.2487 53.5175 38.1647 53.2864 38.1039 53.0277C38.0353 52.6546 37.7225 52.4037 37.3156 52.4451L36.9696 52.4932L36.9895 52.0499Z" fill="black"/>
<path d="M48.8575 51.0428C48.9548 51.0428 49.0532 51.0173 49.1405 50.967C65.1348 41.7319 44.1732 53.835 58.4437 45.5957C58.6194 45.494 58.7278 45.3067 58.7267 45.1038L58.699 35.4253C58.6979 35.2235 58.5907 35.0373 58.4149 34.9361C58.2402 34.8355 58.0247 34.8361 57.85 34.9367L54.7467 36.7287C54.5709 36.8305 54.4637 37.0178 54.4637 37.2207L54.469 39.173L51.6534 40.7988C51.4776 40.9005 51.3693 41.0879 51.3704 41.2908L51.3792 44.4093L48.5634 46.0352C48.3876 46.1369 48.2793 46.3243 48.2804 46.5272L48.2915 50.4784C48.2932 50.7917 48.5466 51.0428 48.8575 51.0428ZM57.5703 36.4059L57.5935 44.7793L55.6201 45.9186L55.5969 37.5452L57.5703 36.4059ZM54.4725 40.4787L54.4891 46.5714L52.5204 47.7082C52.5201 47.592 52.5025 41.2218 52.5036 41.6152L54.4725 40.4787ZM51.3826 45.7151L51.3903 48.3613L49.4213 49.4978L49.4136 46.8516L51.3826 45.7151Z" fill="black"/>
</svg>
