<svg width="93" height="92" viewBox="0 0 93 92" fill="none" xmlns="http://www.w3.org/2000/svg">
<path d="M28.1577 47.6873C30.335 49.9369 31.9132 55.7198 32.5718 58.7654C31.6761 59.9338 31.1949 61.1976 31.1663 62.497C31.1285 62.7397 31.1233 73.317 31.1234 73.4953C31.1234 77.0514 34.262 79.7119 37.586 81.0553C38.7934 84.9594 42.3803 87.6601 46.5028 87.6601C50.5635 87.6601 54.1442 84.9998 55.3977 81.1561C56.0566 80.8798 56.6739 80.5859 57.2509 80.2506C60.2175 78.5198 61.8618 76.172 61.8821 73.6343C61.8577 61.2357 61.9202 62.9429 61.8504 62.5753C61.8151 61.158 61.2609 59.7801 60.2134 58.5153C60.5196 54.3884 62.2326 50.4781 65.1411 47.3881C70.1277 42.0864 72.5337 35.0051 71.9677 27.7738C71.6002 23.0482 70.0584 18.7585 67.527 15.1104C67.2952 14.7781 66.7436 14.5947 66.3175 14.8918C65.9234 15.1647 65.8259 15.7063 66.0997 16.0996C68.4268 19.4514 69.9302 23.5825 70.2528 28.0581C70.7323 34.7583 68.4836 41.3017 63.8714 46.2032C60.7195 49.5523 58.9017 53.7784 58.5028 57.9842C58.2536 60.5872 58.6124 62.4301 55.0915 64.3103C50.4006 67.0466 42.6882 67.0453 37.8989 64.3058C34.9063 62.5807 34.7812 61.0144 34.5059 59.57C34.4687 59.3613 34.4189 59.1023 34.3518 58.7754C34.3501 58.7669 34.3423 58.7616 34.3403 58.7532C33.5755 55.14 31.9526 49.1101 29.4019 46.4702C25.3342 42.2878 22.6874 36.3653 22.6874 29.9008C22.6874 14.3169 37.4233 2.60836 53.3555 7.01688C54.4962 7.32878 56.9991 8.27816 58.6978 9.26298C59.6977 9.84265 60.5729 8.32332 59.5691 7.75089C57.7741 6.72858 55.8217 5.89468 53.8365 5.34905C53.8271 5.3464 53.8182 5.34206 53.8089 5.33952C36.8491 0.644175 20.9507 13.1008 20.9507 29.9084C20.9507 36.8409 23.7894 43.1892 28.1577 47.6873ZM60.1463 68.1898C60.1463 68.1926 60.1446 68.1951 60.1446 68.1979C60.1344 70.0982 58.7961 71.9163 56.3729 73.3173C50.9975 76.4466 42.1801 76.4314 36.72 73.2843C34.2818 71.8781 32.9244 70.0726 32.8675 68.1878L32.8695 66.9049C33.638 67.8021 34.6395 68.6268 35.8631 69.3345C41.7979 72.7558 51.393 72.7639 57.2493 69.3684C58.4304 68.6846 59.3971 67.8869 60.1463 67.0185V68.1898ZM59.9242 61.3885C60.8367 64.1115 58.8571 66.4313 56.3788 67.8665C50.9949 70.9882 42.1809 70.9721 36.731 67.8318C34.5637 66.5782 33.2152 64.9686 32.933 63.3006C32.8253 62.6632 32.8736 62.0216 33.0737 61.3927C33.0853 61.4303 33.11 61.4653 33.1225 61.5028C33.7432 63.3634 35.3401 64.836 37.0276 65.8128C42.3007 68.829 50.8682 68.7999 55.938 65.8256C57.7169 64.8758 59.3263 63.3685 59.9088 61.4288C59.9129 61.4152 59.9202 61.4021 59.9242 61.3885ZM46.5028 85.9243C43.6184 85.9243 41.0409 84.3088 39.7475 81.8372C43.8655 83.056 49.0462 83.1247 53.208 81.933C51.8866 84.3478 49.3303 85.9243 46.5028 85.9243ZM56.3779 78.7503C54.2292 79.997 51.2099 80.926 47.4054 81.0428C41.7732 81.2141 32.8592 78.8742 32.8592 73.497L32.861 72.3761C33.6256 73.2618 34.6213 74.0777 35.8529 74.7879C38.8338 76.5059 42.7336 77.3654 46.6206 77.3654C50.4805 77.3654 54.3276 76.517 57.2442 74.8184C58.4343 74.1302 59.4008 73.3384 60.1463 72.4775V73.6275C60.131 75.5219 58.7919 77.3417 56.3779 78.7503Z" fill="black"/>
<path d="M63.8994 13.3848C64.2273 13.7323 64.7757 13.7502 65.1258 13.4195C65.4742 13.0907 65.4903 12.5414 65.1606 12.1931C64.4698 11.4608 63.729 10.7666 62.9603 10.1284C62.5916 9.82153 62.0457 9.87493 61.738 10.2419C61.4321 10.6106 61.4829 11.1582 61.8516 11.4641C62.567 12.0575 63.2552 12.7042 63.8994 13.3848Z" fill="black"/>
<path d="M46.4894 43.6045C46.9692 43.6045 47.3574 43.2163 47.3574 42.7366V38.9391C49.6444 37.3977 51.3846 34.2708 51.3766 31.5756C51.3678 28.3659 48.861 26.933 46.0809 28.5379C44.4624 29.4745 43.3833 28.8719 43.378 27.0054C43.372 24.7915 44.996 21.981 46.9234 20.8681C48.5195 19.945 49.6099 20.5275 49.6153 22.4073C49.617 22.8862 50.0052 23.2727 50.4832 23.2727H50.4858C50.9655 23.271 51.3529 22.8811 51.3512 22.4022C51.3443 19.8798 49.7494 18.2403 47.3574 18.8473V15.8648C47.3574 15.3851 46.9692 14.9969 46.4894 14.9969C46.0097 14.9969 45.6215 15.3851 45.6215 15.8648V19.664C43.3544 21.2204 41.6349 24.3274 41.6421 27.0105C41.6509 30.2169 44.1548 31.6533 46.9488 30.0415C48.5616 29.1106 49.6354 29.7165 49.6407 31.5807C49.6475 33.7878 48.0295 36.5899 46.1072 37.6994C44.4903 38.6341 43.4096 38.0355 43.4042 36.1788C43.4025 35.6999 43.0143 35.3134 42.5363 35.3134H42.5338C42.054 35.3151 41.6667 35.705 41.6684 36.1839C41.6756 38.8078 43.3587 40.2871 45.6215 39.7366V42.7366C45.6215 43.2163 46.0097 43.6045 46.4894 43.6045Z" fill="black"/>
</svg>
