<svg width="93" height="92" viewBox="0 0 93 92" fill="none" xmlns="http://www.w3.org/2000/svg">
<rect x="0.5" width="92" height="92" rx="46" fill="black"/>
<path d="M47.3751 28.2184L48.3032 27.6822C48.574 27.5263 48.6669 27.1803 48.5105 26.9094C48.3535 26.6386 48.0069 26.5446 47.7371 26.7027L46.809 27.2389C46.5382 27.3948 46.4453 27.7408 46.6017 28.0117C46.7594 28.2838 47.1074 28.3747 47.3751 28.2184Z" fill="white"/>
<path d="M72.1294 51.0932C71.9147 50.9227 63.4277 46.3358 63.2977 46.2651C63.432 45.8014 63.5658 45.3361 63.6741 44.8535L66.2417 43.6374C66.4401 43.5434 66.5662 43.3433 66.5656 43.1244L66.543 35.0418C66.5051 34.9258 66.52 34.6986 66.2638 34.5498L63.7047 33.0638C64.2672 32.1889 64.6312 31.6753 64.7334 31.4606C64.872 31.1732 64.7688 30.8684 64.5126 30.7247C50.9674 22.9465 55.6392 25.6292 54.6285 25.0488C54.3543 24.8918 54.0072 25.0007 53.858 25.2589C53.7925 25.3721 52.9277 27.0747 52.9949 26.9613L50.4347 25.4733C50.2578 25.3716 50.0416 25.3716 49.867 25.4733L49.134 25.8968C48.8637 26.0526 48.7708 26.3987 48.9272 26.6695C49.0831 26.9393 49.4292 27.0333 49.7011 26.8763L50.1494 26.6176C50.5208 26.8334 54.1179 28.9243 53.9077 28.8021L48.0007 32.2118L44.2418 30.0273L45.95 29.0409C46.2209 28.885 46.3137 28.539 46.1573 28.2682C45.9998 27.9973 45.6537 27.9033 45.384 28.0614C44.7403 28.4328 43.4529 29.1759 42.8092 29.5473C42.7116 29.6091 42.5454 29.8555 42.545 30.026C42.5447 30.14 42.7818 33.0077 42.7854 32.8937C42.1063 33.5191 41.4619 34.2028 40.8475 34.917C38.4954 33.5493 36.0848 32.1979 36.1306 32.2238C35.7253 31.9866 35.2476 31.8589 34.7842 31.8396L19.9604 30.1432C19.7387 30.1221 19.5226 30.2261 19.4087 30.4173C19.2954 30.6097 19.3053 30.8518 19.4347 31.0331C21.195 33.5102 28.2477 43.4685 28.4024 43.6501C28.6141 43.8989 28.8551 44.1154 29.138 44.2797L34.4596 47.1794L31.9898 48.3426C31.8597 48.4038 31.6745 48.6248 31.6653 48.8301C31.66 48.9481 31.6741 57.0671 31.6935 56.9515C31.694 57.1527 31.8013 57.3384 31.9749 57.4401L34.5316 58.926L33.5409 60.4549C33.4563 60.5843 33.4292 60.7435 33.4651 60.8938C33.5011 61.0442 33.5972 61.1735 33.731 61.252C34.7411 61.8346 30.0719 59.1415 43.6096 66.95C43.8896 67.1079 44.2471 67.0058 44.3951 66.7145L45.2474 65.0362L47.8079 66.5188C47.963 66.6091 48.1795 66.623 48.3562 66.5288C48.4699 66.4681 55.5283 62.4041 55.4146 62.4526C55.6053 62.3432 55.7147 62.132 55.6954 61.9131L55.4483 59.1028C55.7223 58.8506 55.9884 58.5782 56.2545 58.3082C71.6649 66.6789 52.5951 56.3233 65.0888 63.1001C66.2785 63.7734 67.6745 63.4534 68.8585 62.7699C71.5654 61.2089 73.6787 57.5473 73.6698 54.4363C73.6656 52.8804 73.114 51.7048 72.1294 51.0932ZM44.7395 50.771C44.8306 49.6934 45.097 48.6144 45.4256 47.6422C46.0264 45.8654 46.9659 44.1088 48.1521 42.596C48.7709 41.8072 49.4546 41.087 50.184 40.4617C50.1927 40.4543 50.2015 40.4465 50.2102 40.4391C50.2147 40.4355 50.219 40.432 50.2234 40.4284C50.3927 40.5207 65.488 48.7507 65.1286 48.5548C64.7803 48.6709 64.4247 48.8322 64.0654 49.0413C61.4011 50.5769 59.242 54.3103 59.2519 57.3671C59.2552 57.8773 59.3354 58.3302 59.4499 58.7539C57.0667 57.4466 46.6344 51.798 44.7395 50.771ZM51.2089 55.5726C49.4337 56.5391 47.8053 56.6952 46.6028 56.0029C45.4452 55.3372 44.7735 53.9369 44.6914 52.0391L51.2089 55.5726ZM58.5319 43.6615L51.2035 39.6642C52.766 38.5426 54.9691 37.7144 56.6356 38.6746C57.8656 39.3844 58.5455 40.9288 58.5504 43.0249C58.5504 43.236 58.5442 43.4482 58.5319 43.6615ZM61.432 59.7949C60.7637 59.408 60.3917 58.5434 60.384 57.3616C60.3751 54.7149 62.3198 51.3541 64.632 50.0219C65.3878 49.5824 66.2516 49.2946 67.0638 49.6099L69.3566 50.8599C69.0786 50.9479 68.6232 51.1425 68.2704 51.3452C66.2043 52.5455 64.1216 55.3335 63.5891 58.3035C63.4316 59.1736 63.3873 59.8867 63.5551 60.7589C63.5599 60.784 63.5633 60.8099 63.5685 60.8346C63.5791 60.8852 63.5839 60.9403 63.5959 60.9898L61.432 59.7949ZM64.9174 35.0775L63.4613 36.0655C63.2562 35.5161 63.0108 35.0142 62.7266 34.5631L63.0852 34.0135L64.9174 35.0775ZM54.5838 26.3335C54.6989 26.4003 58.7498 28.7535 58.4921 28.6038L57.0867 31.3548C56.7692 31.3454 55.7894 31.4184 55.4118 31.4831L55.6058 28.8464C55.5869 28.733 55.576 28.4713 55.3422 28.3245C55.2283 28.2531 53.862 27.459 53.9754 27.5311L54.5838 26.3335ZM43.9118 32.7806L43.7673 31.0637L47.4559 33.2074L47.601 34.9246L43.9118 32.7806ZM43.4572 33.8267L47.3181 36.0705C46.7548 36.6312 46.5506 36.7753 45.5504 37.9571C45.4361 37.8668 43.9784 36.7148 44.0927 36.8052L41.8331 35.4905C42.3489 34.9025 42.8954 34.35 43.4572 33.8267ZM36.3251 45.0578L38.5628 46.3581C38.6894 46.4071 40.4256 47.0776 40.3118 47.0336C40.0548 47.751 39.7773 48.6748 39.5739 49.4935L35.7099 47.2468C35.8794 46.5214 36.0795 45.7896 36.3251 45.0578ZM38.6417 45.0938C38.5271 45.0272 34.6208 42.7583 34.7354 42.8248L39.1227 35.2231C39.3029 35.328 43.2838 37.6452 43.0296 37.4972C42.9635 37.6117 38.3493 45.6 38.6417 45.0938ZM25.1998 31.8826L32.1269 32.6755C29.6592 34.2161 27.6872 37.5971 27.5421 40.5027L23.3968 34.6606C23.5457 33.6562 24.2547 32.5621 25.1998 31.8826ZM23.6927 31.7101C23.2027 32.2365 22.8131 32.8466 22.5586 33.4794L21.0919 31.4123L23.6927 31.7101ZM28.645 40.8592C28.6361 38.2114 30.5808 34.8506 32.8925 33.5184C33.6792 33.0611 34.7787 32.7433 35.5668 33.2055L38.1405 34.6601L33.4729 42.7474C33.317 43.0172 33.4093 43.3632 33.6791 43.5202L35.3358 44.4829C35.1504 45.0205 34.985 45.5579 34.8379 46.0954L29.693 43.2925C28.9141 42.8402 28.6506 41.7771 28.645 40.8592ZM35.0297 48.1619L38.7276 50.312L37.1501 51.062L33.4469 48.9075L35.0297 48.1619ZM32.8057 49.8472C32.9669 49.9409 36.713 52.118 36.5555 52.0265L36.574 58.8009C36.4594 58.7343 32.5779 56.4811 32.8245 56.6242L32.8057 49.8472ZM35.5113 59.4953C35.6305 59.5646 36.7555 60.2184 36.879 60.2902C37.0515 60.3804 37.2788 60.3681 37.4296 60.2802C37.5432 60.214 39.7778 58.6945 39.6645 58.7572C39.8721 59.309 40.116 59.8111 40.3941 60.257C40.318 60.3743 38.6125 63.0034 38.7181 62.8407L34.8139 60.571L35.5113 59.4953ZM46.0374 63.4807C46.5645 63.4905 47.1262 63.4518 47.7167 63.3492L47.5918 65.086L45.7608 64.0254L46.0374 63.4807ZM54.5362 61.6533L48.7332 65.0031L48.9035 62.6848C48.9326 62.2874 48.5674 62.0096 48.2064 62.0922C47.306 62.31 46.4807 62.3896 45.7494 62.3277C45.5207 62.3064 45.32 62.4257 45.2122 62.6192C45.0514 62.9078 43.595 65.7902 43.6549 65.672L39.6987 63.41C39.7728 63.2963 41.6692 60.3826 41.5494 60.5666C41.6754 60.3731 41.6716 60.1222 41.5389 59.9331C41.1166 59.3306 40.7711 58.5799 40.5124 57.7032C40.4 57.3197 39.9481 57.1885 39.6429 57.3981L37.7097 58.7178L37.691 52.0623C38.4064 51.7235 40.3261 50.7997 40.2088 50.8615C40.3708 50.7761 40.4799 50.5908 40.5041 50.4774C40.8208 48.9932 41.4883 47.1145 41.5682 46.9087C41.6805 46.6177 41.5369 46.2872 41.2421 46.1757L41.2399 46.1749C41.239 46.1746 41.2385 46.1738 41.2376 46.1735L39.675 45.5821C39.7411 45.4676 44.254 37.6637 43.9716 38.152C44.0858 38.2424 45.3987 39.2813 45.2845 39.1909C45.4657 39.3353 45.8581 39.3676 46.0722 39.1091C48.0243 36.8812 48.7554 36.2735 48.642 36.3773C48.7782 36.2525 48.8336 36.0251 48.8239 35.9119L48.5939 33.1801L54.3986 29.8292L54.2321 32.0881C54.1489 32.5221 54.5695 32.8265 54.9232 32.7423C55.329 32.6398 56.5879 32.4396 57.3647 32.5156C57.641 32.5289 57.8632 32.3243 57.9225 32.2094L59.4763 29.1703C59.5898 29.2347 63.6895 31.563 63.4286 31.4149L61.5741 34.258C61.447 34.4537 61.4525 34.7068 61.5874 34.8959C62.0202 35.5028 62.3657 36.2491 62.6144 37.1125C62.7207 37.4792 63.1558 37.641 63.4762 37.4243L65.4137 36.1087L65.4324 42.7673L62.9383 43.9492C62.7786 44.0255 62.6636 44.1703 62.6266 44.3427C62.5282 44.8071 62.416 45.2648 62.2922 45.7125L59.6023 44.2453C59.6424 43.8372 59.6825 43.4279 59.6825 43.0238C59.6764 40.5065 58.7953 38.6127 57.2011 37.694C53.9515 35.8207 49.803 38.7356 47.4063 41.7218C43.9513 46.0236 41.4588 54.349 46.0385 56.9846C47.8885 58.0483 50.1151 57.5111 51.9741 56.4418C52.1011 56.3681 52.2265 56.2769 52.3548 56.194L55.2256 57.7503C54.9809 57.9927 54.7312 58.2278 54.482 58.4517C54.3494 58.5711 54.2808 58.7446 54.2963 58.9226L54.5362 61.6533ZM68.2925 61.7904C65.695 63.2881 64.1469 61.5867 64.701 58.504C65.1338 56.1291 66.7929 53.5124 68.8287 52.3358C70.8654 51.1604 72.5307 51.9156 72.5378 54.4386C72.5455 57.1372 70.6412 60.435 68.2925 61.7904Z" fill="white"/>
</svg>
