<svg width="93" height="92" viewBox="0 0 93 92" fill="none" xmlns="http://www.w3.org/2000/svg">
<path d="M23.1216 57.2762H23.1241C23.603 57.2745 23.9912 56.8855 23.9895 56.4057L23.9751 51.2702C23.9734 50.7922 23.5852 50.4048 23.1072 50.4048H23.1046C22.6258 50.4065 22.2376 50.7956 22.2393 51.2753L22.2537 56.4108C22.2554 56.8889 22.6436 57.2762 23.1216 57.2762Z" fill="black"/>
<path d="M30.9916 87.5451C31.2555 87.6971 31.587 87.7007 31.8587 87.5442L70.4084 65.2876C70.6779 65.1316 70.8432 64.8443 70.8424 64.5332L70.7035 15.5051C70.7042 15.4909 70.7143 15.4794 70.7144 15.465C70.7161 15.1564 70.5542 14.8708 70.2889 14.7132C48.4355 1.76038 74.736 17.3237 52.827 4.45741C52.5566 4.29976 52.2252 4.30146 51.9565 4.45572L22.5912 21.4099C22.3199 21.567 22.158 21.8561 22.1572 22.1609C22.1572 22.1603 22.1572 22.1615 22.1572 22.1609C22.1572 22.3611 22.2222 45.8113 22.2242 46.0025C22.2259 46.4806 22.6141 46.8679 23.0921 46.8679C23.093 46.8679 23.0938 46.8679 23.0947 46.8679C23.5735 46.8662 23.9617 46.4772 23.96 45.9974L23.8973 23.6724L30.3878 27.4448L30.5524 85.282L24.0609 81.5103L24.005 61.6853C24.0033 61.2073 23.6151 60.82 23.137 60.82C23.1362 60.82 23.1353 60.82 23.1345 60.82C22.6556 60.8216 22.2674 61.2107 22.2691 61.6904L22.3267 82.0129C22.3276 82.3214 22.492 82.6062 22.759 82.7605L30.989 87.5425C30.9901 87.5432 30.9905 87.5444 30.9916 87.5451ZM32.2884 85.2914L32.124 27.4449C40.0129 22.8904 51.3475 16.3465 59.7568 11.4915L59.7831 20.7844C59.7849 21.45 60.5079 21.8671 61.085 21.5337L68.9718 16.9796L69.1048 64.0357L32.2884 85.2914ZM61.5147 19.2681C61.5141 19.0537 61.4923 11.3342 61.4928 11.5169L68.1276 15.4497L61.5147 19.2681ZM52.3888 6.21021L58.8888 9.98789L31.2556 25.9415C31.0797 25.8393 24.5359 22.0359 24.7568 22.1643L52.3888 6.21021Z" fill="black"/>
<path d="M64.2566 60.0529L52.5608 66.8056C52.1455 67.0455 52.0031 67.5761 52.243 67.9914C52.4835 68.4078 53.0157 68.5478 53.4287 68.3092L65.1245 61.5565C65.5399 61.3167 65.6822 60.7861 65.4424 60.3708C65.2025 59.9538 64.6694 59.8131 64.2566 60.0529Z" fill="black"/>
<path d="M64.2567 48.6775L36.1043 64.9307C35.689 65.1706 35.5466 65.7012 35.7864 66.1165C36.0269 66.5329 36.5591 66.673 36.9722 66.4343L65.1247 50.1811C65.54 49.9412 65.6824 49.4106 65.4425 48.9953C65.2026 48.5792 64.6695 48.4376 64.2567 48.6775Z" fill="black"/>
<path d="M64.2567 37.3021L36.1043 53.5553C35.689 53.7952 35.5466 54.3258 35.7864 54.7411C36.0269 55.1575 36.5591 55.2975 36.9722 55.0589L65.1247 38.8057C65.54 38.5658 65.6824 38.0352 65.4425 37.6199C65.2026 37.2038 64.6695 37.0614 64.2567 37.3021Z" fill="black"/>
<path d="M64.2569 25.9267L44.1624 37.5284C43.7471 37.7683 43.6047 38.2989 43.8445 38.7142C44.085 39.1306 44.6172 39.2706 45.0303 39.032L65.1248 27.4303C65.5401 27.1905 65.6825 26.6599 65.4426 26.2446C65.2028 25.8275 64.6696 25.686 64.2569 25.9267Z" fill="black"/>
<path d="M45.0303 27.6566L56.7948 20.8641C57.2101 20.6242 57.3525 20.0936 57.1126 19.6783C56.8719 19.2613 56.3388 19.1198 55.9268 19.3605L44.1624 26.153C43.7471 26.3929 43.6047 26.9235 43.8445 27.3388C44.085 27.7552 44.6172 27.8952 45.0303 27.6566Z" fill="black"/>
<path d="M38.0231 39.9101C37.7282 40.0822 37.5019 40.1059 37.4188 40.0576C37.3374 40.0101 37.2493 39.811 37.2484 39.4829C37.2476 39.0049 36.8586 38.6176 36.3805 38.6176H36.378C35.8991 38.6184 35.5117 39.0083 35.5126 39.488C35.5166 40.968 36.4295 41.8138 37.5214 41.8138C37.5346 41.8138 37.5488 41.808 37.5621 41.8078V42.8843C37.5621 43.364 37.9502 43.7522 38.43 43.7522C38.9097 43.7522 39.2979 43.364 39.2979 42.8843V41.1328C40.4969 40.2211 41.3859 38.5466 41.3821 37.0961C41.375 35.115 39.7308 34.1706 38.0096 35.1603C37.7129 35.3306 37.49 35.3535 37.4061 35.3077C37.3247 35.2603 37.2357 35.0586 37.2349 34.7263C37.2323 33.727 37.9935 32.4099 38.8639 31.9072C39.1564 31.7403 39.3793 31.7165 39.4606 31.7632C39.5429 31.8098 39.6318 32.0123 39.6327 32.3446C39.6335 32.8226 40.0226 33.21 40.5006 33.21H40.5032C40.982 33.2091 41.3694 32.8192 41.3685 32.3395C41.3649 31.0072 40.5889 29.9816 39.2979 30.0165V28.9517C39.2979 28.472 38.9097 28.0838 38.43 28.0838C37.9502 28.0838 37.5621 28.472 37.5621 28.9517V30.7033C36.3732 31.6212 35.4952 33.2868 35.499 34.7314C35.5044 36.708 37.151 37.6624 38.8775 36.6639C39.1699 36.4961 39.3937 36.4749 39.4734 36.5189C39.5564 36.5664 39.6454 36.769 39.6463 37.1012C39.6488 38.0963 38.8902 39.4092 38.0231 39.9101Z" fill="black"/>
<path d="M48.0331 67.793L47.8551 68.0456C47.3508 68.7644 47.3508 68.7644 46.1167 68.8534C45.5395 68.8907 44.6665 68.9475 44.1275 69.6526C43.7105 70.1976 43.724 70.8325 43.7367 71.4453C43.7376 71.5283 43.7325 71.597 43.724 71.6521C43.6537 71.5978 43.5579 71.5114 43.435 71.3758L42.0975 69.901C41.928 69.7154 41.6966 69.4611 41.3618 69.2924C40.849 69.0314 40.2693 69.0661 39.8404 69.3806C39.0123 69.9917 39.3234 71.0028 39.4751 71.4936C39.7311 72.3251 39.5132 73.3184 38.9318 73.966C38.3503 74.6135 37.3875 74.9356 36.5331 74.7703C36.0602 74.6763 35.6067 74.9848 35.5152 75.456C35.4236 75.9273 35.7305 76.3824 36.2009 76.474C36.4611 76.5248 36.7255 76.5494 36.9891 76.5494C38.2012 76.5494 39.4115 76.0307 40.2235 75.1255C41.0779 74.1745 41.4601 72.8328 41.2677 71.5707L42.1484 72.5421C43.1188 73.6125 43.9351 73.5702 44.4487 73.3515C45.109 73.0667 45.4819 72.3658 45.4692 71.2597C45.4658 71.091 45.459 70.7782 45.5065 70.7079C45.5667 70.6282 46.0481 70.5969 46.2295 70.585L46.4134 70.5723C48.0857 70.4519 48.3535 70.3587 49.2765 69.0424L49.4503 68.7949C49.7274 68.4042 49.6342 67.8625 49.2426 67.5854C48.8536 67.3091 48.3103 67.4023 48.0331 67.793Z" fill="black"/>
</svg>
