<svg width="93" height="92" viewBox="0 0 93 92" fill="none" xmlns="http://www.w3.org/2000/svg">
<path d="M6.02249 60.7311L14.4958 65.6267C14.9077 65.8649 15.4408 65.7242 15.6815 65.3088C15.9214 64.8944 15.779 64.3629 15.3637 64.1231L6.89466 59.23C6.6353 59.0783 6.57936 58.9528 6.57936 58.9325L6.59122 54.1528C48.0881 78.1108 33.7647 69.8413 36.872 71.6352C38.1391 72.3658 40.1072 72.3641 41.3489 71.6335C45.9606 68.9534 24.6559 81.3347 86.4157 45.4427L86.4038 50.227C86.4038 50.2448 86.3521 50.3668 86.1072 50.5101L40.4564 77.0436C39.7495 77.4581 38.4468 77.4564 37.7229 77.0402L24.0328 69.1306C23.6166 68.889 23.086 69.0323 22.847 69.4484C22.6071 69.8629 22.7495 70.3943 23.1649 70.6342L36.8559 78.5438C38.1253 79.2756 40.0937 79.2683 41.3319 78.5422L86.9827 52.0086C87.7176 51.578 88.1397 50.9288 88.1397 50.2295C88.1432 48.7789 88.1572 43.073 88.1566 43.3217C88.1566 43.3209 88.1566 43.32 88.1566 43.3192C88.1566 43.3109 88.1521 43.304 88.1519 43.2958C88.1566 42.8676 87.9999 42.1237 86.9743 41.5223L72.3105 33.0627L71.8237 30.1766C71.7229 29.897 71.5467 29.6838 71.3398 29.5086C71.2817 29.4455 71.2228 29.3825 71.1448 29.3375L65.7342 26.2044L64.5701 19.2521C64.5591 19.1868 64.5413 19.1241 64.5159 19.0631C64.3692 18.7088 64.1489 18.4257 63.8759 18.2401C63.8492 18.2203 63.802 18.2103 63.7702 18.1921C63.7631 18.1876 63.7585 18.1807 63.7513 18.1765L56.9707 14.2335C56.6562 14.036 55.9849 13.786 54.9882 14.3293C54.6034 14.559 54.2466 14.8913 53.9643 15.2752L51.8759 18.007C51.871 18.0134 51.8632 18.0181 51.8582 18.0246L51.063 17.384C50.7464 17.1473 46.0766 14.4726 43.9535 13.2359C43.1195 12.7392 42.0329 12.8147 40.9844 13.4351C39.6436 14.1996 38.462 15.7227 37.8984 17.4137L35.2777 25.3581C34.7555 26.5523 33.8995 27.5787 32.9824 28.1068C32.4925 28.3941 32.0416 28.4882 31.8543 28.428L31.1932 28.0347C30.3227 27.5296 29.2174 27.6067 28.0783 28.2551C26.5959 29.1069 25.3169 30.8012 24.7312 32.7074L22.5911 40.6376L6.02673 50.2558C5.30692 50.6784 4.90654 51.292 4.88377 51.9213C4.87826 51.9604 4.86056 51.9951 4.86046 52.0357L4.84351 58.9299C4.84351 59.6462 5.26052 60.2852 6.02249 60.7311ZM33.2553 37.1649C33.8021 35.3358 35.7476 33.1623 36.9465 33.4313C37.3755 33.5377 38.3996 34.8704 40.6207 33.6291C40.6505 33.6128 40.68 33.6061 40.7098 33.5889C41.633 33.058 42.479 32.1926 43.1407 31.1043C44.0253 29.6616 43.9039 29.1926 45.6548 24.172C45.9637 23.4821 46.6937 19.4578 49.1805 18.6977C50.0696 18.4218 50.1696 19.0479 51.354 19.8473C51.3593 19.8517 51.3611 19.8588 51.3665 19.8632L56.635 24.1019C57.7653 24.9496 59.4053 24.1021 60.0983 23.0297L62.1867 20.298C62.3651 20.0615 62.6454 19.8006 62.8913 19.7353L63.9217 25.8929C63.7946 25.9386 63.6657 25.9971 63.5369 26.0683C63.2233 26.2616 62.9266 26.5328 62.6419 26.8896L60.9384 29.1274C60.7636 29.0145 58.1838 27.3489 58.5189 27.5653L54.3194 25.1334C53.5693 24.6868 52.598 24.7503 51.6699 25.3021C51.4514 25.4264 51.2474 25.5918 51.0432 25.7556C50.143 26.4718 49.3937 27.5338 48.9865 28.7577C48.9283 28.9341 46.6267 35.9174 46.773 35.4734C45.0929 39.2506 43.6697 37.6087 43.4958 37.6828C43.3607 37.6051 43.2126 37.5633 43.0665 37.5163C41.9517 37.1464 40.6679 37.7571 39.7935 38.5581C38.9638 39.3162 38.1515 40.6555 37.8229 41.7266C37.7753 41.903 34.5977 53.6707 34.7972 52.932L27.9131 56.9115C34.9484 30.9065 32.8511 38.659 33.2553 37.1649ZM54.8 32.1192L53.6842 35.4927C52.7169 38.1037 52.826 38.8052 51.8367 40.0775C50.2379 42.1175 49.3045 41.0163 48.8968 40.8793L48.8856 40.8731C47.2392 40.3097 45.3521 41.8199 44.3475 43.5348C44.0575 44.0275 43.8012 44.5454 43.6331 45.0991C43.1522 46.8772 45.3741 38.662 38.9329 62.4776L34.6846 60.0176C35.1767 58.1968 32.9017 66.6137 39.4978 42.2097C39.9772 40.6045 41.7851 38.6984 42.6143 39.1838L43.3051 39.5796C45.3053 40.3328 47.498 38.1591 48.3923 36.0944L48.3933 36.0914C50.0431 31.1014 50.721 29.0512 50.6401 29.2959C50.9293 28.4262 51.4864 27.6302 52.1233 27.1125C52.2642 27.0001 52.4044 26.8847 52.5539 26.8015C52.9023 26.5879 53.2422 26.5218 53.4388 26.6396L57.2166 28.8282C56.1424 29.5549 55.1926 30.9374 54.8 32.1192ZM40.8607 62.0058C40.908 61.831 45.6046 44.4738 45.3054 45.5797C45.4457 45.111 45.6716 44.6681 45.9317 44.2556C47.748 41.3872 48.6116 42.8642 48.7864 42.8064C49.7942 43.3981 51.594 43.1868 53.1711 41.1771C54.4827 39.5143 54.4664 38.3232 55.2651 36.2349L56.4537 32.6574C56.8939 31.3121 58.587 29.4717 59.2916 30.0302L59.2939 30.0316L60.4398 30.969C60.4406 30.9697 60.4416 30.9694 60.4424 30.97C61.7537 32.025 65.1057 34.7218 64.9049 34.5603C65.6118 35.1032 66.9512 35.0636 68.0562 33.6355L68.9961 32.4007C69.0843 32.2865 68.6774 32.8139 69.8559 31.2881C69.9411 31.1834 70.0393 31.0895 70.1722 31.0014C70.1853 30.9929 70.1992 30.9855 70.2126 30.9774C70.2424 31.156 72.3882 43.9975 72.3585 43.8201C31.0434 67.674 44.206 60.0743 40.8607 62.0058ZM67.6344 31.3234L66.6747 32.5752C66.1776 33.2129 65.9236 33.0865 65.9716 33.1803L62.2909 30.2164L64.0107 27.9567C64.1539 27.7771 64.3091 27.6313 64.4108 27.5677C64.4591 27.5414 64.4989 27.5253 64.5269 27.516C64.532 27.5188 64.5381 27.5173 64.5432 27.5199L68.7241 29.9418C68.495 30.1766 67.8092 31.0973 67.6344 31.3234ZM53.2591 19.0546L55.3526 16.3169C55.5612 16.0329 55.773 15.8821 55.8476 15.8363C55.9985 15.7541 56.0943 15.7346 56.0773 15.7219L61.2679 18.7401C61.2662 18.7418 61.2645 18.7435 61.2628 18.7452C61.2448 18.7616 61.2293 18.7796 61.2125 18.797C61.2023 18.8067 61.1883 18.8186 61.1806 18.8266C61.0535 18.9546 60.9263 19.0859 60.8035 19.2504L58.7201 21.9754C58.1964 22.6486 57.8868 22.647 57.6971 22.7289L53.2129 19.1161C53.2283 19.0959 53.2438 19.0748 53.2591 19.0546ZM26.3992 33.1889C26.8451 31.7378 27.8435 30.3918 28.9394 29.7621C29.5082 29.44 30.0133 29.3569 30.3151 29.5315L31.0855 29.9782C31.9026 30.3105 32.8892 30.1749 33.8554 29.607C35.0759 28.9043 36.2024 27.5762 36.8965 25.9776L39.5452 17.9604C39.9792 16.6602 40.8598 15.5049 41.8566 14.9362C42.3439 14.6446 42.7966 14.5683 43.0746 14.7328L47.7575 17.4442C47.6218 17.5264 47.4983 17.6447 47.3668 17.7411C44.8669 19.5601 44.577 22.2371 44.1172 23.2961C42.5101 27.3982 42.554 29.9827 40.306 31.7494C38.3643 33.2624 38.5127 31.6973 36.7693 31.6939C36.7486 31.694 36.7269 31.6965 36.706 31.697C34.3971 31.7453 32.2632 34.4543 31.5788 36.6835C31.0069 38.7996 33.6504 29.0188 25.986 57.376C25.8102 57.2742 20.3654 54.1213 20.7056 54.3183L24.193 41.424C24.1978 41.406 24.1877 41.3885 24.1914 41.3704L26.3992 33.1889ZM6.90144 51.756L21.9485 43.019L18.849 54.5047C18.7435 54.8986 18.9278 55.297 19.2583 55.4879C26.5013 59.6871 26.0884 59.4582 26.0983 59.4639C26.4087 59.6415 26.7922 59.5643 26.9663 59.4639L34.1537 55.3093L32.829 60.2039C32.7224 60.5952 32.9041 60.9961 33.2367 61.1896L38.9952 64.5299C39.013 64.5421 39.0291 64.5564 39.0477 64.5672C39.2417 64.6782 39.4616 64.6809 39.6727 64.6321C39.7163 64.6217 39.7614 64.6234 39.8037 64.6062C39.8117 64.6029 39.8164 64.5951 39.8242 64.5916C39.8538 64.5788 39.8873 64.5835 39.9156 64.5672C43.3756 62.5685 27.3815 71.8078 73.7545 45.0194C74.0681 44.838 74.2368 44.4812 74.1766 44.1244C74.147 43.9486 72.5863 34.6938 72.6857 35.2832L86.1012 43.0234C86.3394 43.1624 86.4064 43.2675 86.4199 43.2937C86.4199 43.2971 86.4199 43.3014 86.4199 43.3056C86.4153 43.316 86.4132 43.3287 86.4093 43.3393C86.4033 43.3654 86.3898 43.3958 86.3528 43.4346C86.3047 43.4676 86.2417 43.5136 86.1844 43.5581C85.9632 43.699 41.0296 69.8047 40.464 70.1333C39.7597 70.5486 38.4654 70.5461 37.7458 70.129C34.5812 68.3022 49.1856 76.733 6.91839 52.3332C6.79835 52.265 6.72387 52.2005 6.67471 52.1482C6.65214 52.106 6.62926 52.061 6.60224 52.0272C6.61072 51.9967 6.68446 51.8831 6.90144 51.756Z" fill="white"/>
<path d="M20.216 68.9314C20.3525 69.0102 20.5016 69.0475 20.6491 69.0475C20.9492 69.0475 21.2407 68.8924 21.4018 68.6136C21.6416 68.1991 21.4992 67.6677 21.0839 67.4278L18.3929 65.8725C17.9784 65.6335 17.447 65.7733 17.2071 66.1903C16.9672 66.6048 17.1096 67.1362 17.5249 67.3761L20.216 68.9314Z" fill="white"/>
</svg>
