<svg width="93" height="93" viewBox="0 0 93 93" fill="none" xmlns="http://www.w3.org/2000/svg">
<path d="M74.7582 28.3316C71.3187 30.3175 68.6335 34.9801 68.6446 38.9468C68.6567 43.1826 71.8824 45.1332 75.6634 42.9541C79.1105 40.9632 81.8016 36.3074 81.7906 32.3543C81.7783 28.0613 78.5005 26.1736 74.7582 28.3316ZM74.7955 41.4505C72.2402 42.9288 70.3892 41.8968 70.3804 38.9417C70.3711 35.6522 72.7731 31.4821 75.6261 29.8352C78.1447 28.3798 80.0458 29.3437 80.0547 32.3593C80.064 35.6353 77.6552 39.7986 74.7955 41.4505Z" fill="black"/>
<path d="M9.07053 53.9574C9.07466 59.1039 16.2808 61.5289 21.4749 61.5289C24.5584 61.5289 27.6377 60.833 30.0312 59.4413C32.4647 58.0267 33.8038 56.0942 33.7996 53.9998C33.7971 52.4223 33.0338 50.9363 31.6148 49.6892C37.113 47.867 44.1886 48.3384 48.7391 50.9884C53.9382 54.0012 53.9123 58.618 48.6713 61.6365L35.0286 69.5174C31.4804 71.5614 31.4855 75.1666 34.9743 77.1829C38.2184 79.0642 43.2829 79.0398 46.5015 77.1838L71.2488 62.891C72.2317 63.4588 74.5785 64.8425 74.9218 65.0112C75.3082 65.1919 75.8508 65.0891 76.0749 64.6064C78.8736 58.5768 88.1792 36.4994 88.1602 29.525C88.1484 25.5329 86.7491 22.5254 84.2221 21.0415C84.2132 21.0359 84.2085 21.0265 84.1994 21.0212L84.1909 21.0162L76.3389 16.446C73.7521 14.9627 70.3948 15.2653 66.8875 17.2902C59.9882 21.2781 54.3967 30.971 54.4221 38.8968C54.4476 46.5157 64.7431 58.0301 66.807 60.2609C66.8655 60.3245 66.9341 60.3796 67.0087 60.4228L69.5199 61.8846L45.6344 75.6801C42.9713 77.2134 38.4901 77.2134 35.844 75.6801C33.4648 74.3065 33.5711 72.3597 35.8957 71.021L49.5384 63.1402C52.6422 61.3526 54.3526 58.9209 54.356 56.2917C54.3603 53.6794 52.6744 51.263 49.6112 49.4873C44.248 46.3648 36.0334 45.9694 29.8716 48.4715C29.0875 48.0332 28.216 47.685 27.3026 47.3892C30.258 40.1197 33.8103 30.535 33.803 26.4746C33.7971 23.0325 32.5876 20.435 30.4003 19.146C30.3915 19.1405 30.3869 19.1313 30.3779 19.126L30.3711 19.1218L23.6947 15.2272C21.4512 13.938 18.5524 14.1906 15.5249 15.9374C15.1104 16.1765 14.9672 16.7079 15.207 17.1232C15.4469 17.5377 15.9749 17.6784 16.3928 17.441C18.8584 16.0163 21.146 15.762 22.8251 16.7299L25.7687 18.4463C24.1481 18.7563 22.0847 19.6684 20.0507 21.3204C13.7879 26.3991 10.6332 35.2776 11.7884 40.359C12.7263 44.5069 16.0811 49.3405 18.7295 52.6716L16.5784 51.4164C12.8262 47.3302 6.58626 39.2527 6.57524 34.4139C6.56931 31.7126 7.42198 28.5952 8.97729 25.6346C9.20105 25.2108 9.03747 24.6862 8.61283 24.4633C8.19073 24.2412 7.66523 24.4048 7.44147 24.8277C5.75648 28.0333 4.83261 31.4389 4.83939 34.4173C4.84935 38.9101 9.01501 44.9756 12.1822 48.9395C10.1732 50.3056 9.06904 52.0635 9.07053 53.9574ZM86.4243 29.5301C86.443 36.1242 77.5547 56.922 75.0442 62.6643C71.2619 58.3857 64.0282 49.2064 64.0159 43.4644C63.9981 37.0234 67.9569 29.3392 73.2279 25.0236C76.0293 22.734 80.1876 20.7158 83.3069 22.5121C85.3072 23.6632 86.415 26.1559 86.4243 29.5301ZM56.158 38.8917C56.1342 31.5194 61.3367 22.5037 67.7555 18.7938C70.7067 17.0876 73.447 16.7893 75.471 17.9487L79.2987 20.1771C76.5743 20.5768 73.962 22.138 71.8714 23.9157C66.3597 28.5938 62.2557 36.6689 62.2775 43.4695C62.2955 48.9757 67.7676 56.5885 71.2568 60.8873L67.9945 58.9879C63.5642 54.1795 56.1766 44.6383 56.158 38.8917ZM32.0671 26.478C32.0756 31.2742 26.2666 45.7439 22.4527 54.4156C19.3726 50.9188 14.9794 45.1583 13.6505 40.6489C12.0651 35.2529 15.8676 27.2406 20.6602 23.08C26.5962 17.9362 32.0545 19.4889 32.0671 26.478ZM15.591 52.8497L22.2682 56.7451C22.6621 56.9781 23.2768 56.7584 23.4672 56.3821C23.9133 55.5005 25.9961 50.5628 26.6435 48.9965C27.5228 49.2718 28.3574 49.6 29.0913 50.017C31.006 51.1214 32.062 52.5369 32.0637 54.0032C32.0663 55.4517 31.0348 56.8502 29.1582 57.9411C22.3415 61.9031 10.8093 58.9594 10.8064 53.9557C10.8056 52.6256 11.7101 51.3496 13.302 50.3039C14.2301 51.41 14.9922 52.2575 15.3884 52.6869C15.4469 52.7505 15.5164 52.8064 15.591 52.8497Z" fill="black"/>
<path d="M11.0826 22.3138C11.9624 21.1492 12.9202 20.1101 13.9288 19.2252C14.2899 18.9091 14.3254 18.3607 14.0093 18.0005C13.6915 17.6394 13.1439 17.6046 12.7845 17.9199C11.6869 18.8828 10.6486 20.0092 9.69765 21.2662C9.40862 21.6493 9.48406 22.1934 9.86632 22.4825C10.2469 22.7705 10.7917 22.6969 11.0826 22.3138Z" fill="black"/>
<path d="M22.2107 25.3363C19.2467 27.0425 16.9302 31.0558 16.937 34.4724C16.944 38.1672 19.7846 39.905 23.0973 37.9983C26.068 36.287 28.3896 32.2805 28.3828 28.8758C28.3757 25.1227 25.4835 23.4543 22.2107 25.3363ZM22.231 36.4947C20.1792 37.6746 18.6765 36.9219 18.6729 34.469C18.6678 31.7118 20.6842 28.2181 23.0769 26.8399C25.1219 25.6622 26.6433 26.4066 26.6469 28.8792C26.652 31.6253 24.6297 35.1123 22.231 36.4947Z" fill="black"/>
</svg>
