<svg width="93" height="93" viewBox="0 0 93 93" fill="none" xmlns="http://www.w3.org/2000/svg">
<rect x="0.5" y="0.5" width="92" height="92" rx="46" fill="white"/>
<path d="M21.8901 66.3606C21.8901 67.0941 22.1797 67.6823 22.6849 67.9747C22.8985 68.0987 32.2842 73.5472 32.165 73.4787C32.7233 73.7997 33.3937 73.6837 33.957 73.3593L69.1542 53.0383C70.2885 52.3827 71.174 50.8476 71.1718 49.542L71.1066 26.6296C71.1044 25.9215 70.8277 25.3561 70.3526 25.0601C70.1833 24.9439 65.0456 21.9666 60.835 19.5133C60.3198 19.2291 59.6797 19.2783 59.033 19.6542L54.4029 22.3258C54.1321 22.4822 54.0392 22.8282 54.1962 23.0991C54.3499 23.3694 54.697 23.4623 54.969 23.3064L59.6001 20.6343C59.7681 20.5364 60.0777 20.3905 60.2778 20.4977L68.3958 25.2212C20.7142 52.751 37.1601 43.2557 33.602 45.31L25.2498 40.4555L29.6469 37.9189L29.6388 39.8116C29.6377 40.6617 30.1661 41.4356 31.1291 41.9917C32.8979 43.0138 35.762 43.0178 37.508 42.0028C38.4533 41.4539 38.9751 40.6877 38.9762 39.8469L38.9917 36.2241C38.9917 36.2237 38.9917 36.2244 38.9917 36.2241C38.9917 36.2237 38.9917 36.2223 38.9917 36.2219C38.9906 35.3678 38.4577 34.5901 37.487 34.0296C37.3203 33.9344 37.1581 33.8548 36.9972 33.7846L36.9973 33.6796L49.3086 26.5782C49.5795 26.4218 49.6723 26.0758 49.5165 25.8049C49.3595 25.5346 49.0134 25.4401 48.7426 25.5976L36.9981 32.372L37.0039 23.1234C37.0039 23.1209 37.005 23.1187 37.005 23.1162C37.0039 22.5817 36.6723 22.0836 36.0941 21.7498C35.0913 21.1721 33.5259 21.1738 32.5298 21.7536C31.968 22.0792 31.6466 22.5633 31.6379 23.0843C31.6377 23.0904 31.6343 23.0956 31.6343 23.1018C31.6343 23.1024 31.6343 23.103 31.6343 23.1035L31.6276 33.7821C31.4641 33.8532 31.298 33.9343 31.1246 34.0329C30.1069 34.6297 29.6568 35.4698 29.6543 36.1882L29.6525 36.6085L23.8369 39.9636C23.8291 39.9681 23.8259 39.9773 23.8183 39.9822C22.6972 40.642 21.8237 42.1597 21.8281 43.4516C21.8281 43.4523 21.8287 43.4528 21.8287 43.4535C21.8287 43.4542 21.8281 43.4547 21.8281 43.4554L21.8901 66.3606ZM37.8441 39.8436C37.843 40.2665 37.5224 40.6855 36.9398 41.0238C35.5291 41.843 33.1279 41.8386 31.6951 41.0111C31.107 40.6717 30.7698 40.235 30.7709 39.8149L30.7775 38.1328C32.5204 39.4012 35.9866 39.517 37.8508 38.1693L37.8441 39.8436ZM32.7653 24.5827C33.5619 24.9487 34.8868 25.0423 35.8707 24.5943C35.8682 28.7815 35.8665 31.5115 35.8641 35.4065C35.8641 35.4939 35.7768 35.6376 35.5336 35.7797C34.8912 36.1511 33.7536 36.15 33.098 35.773C32.8471 35.6276 32.7586 35.4812 32.7586 35.3911L32.7653 24.5827ZM33.098 22.732C33.7449 22.3567 34.8792 22.3561 35.528 22.7304C35.9981 23.0012 35.9697 23.2425 35.5413 23.4927C34.899 23.8652 33.7614 23.8636 33.1058 23.4855C32.6801 23.2397 32.6408 22.999 33.098 22.732ZM31.6268 35.0584L31.6266 35.3883C31.6244 35.9217 31.9549 36.4192 32.532 36.7531C33.5367 37.3324 35.1043 37.3381 36.1018 36.7581C36.67 36.4281 36.9962 35.9355 36.9962 35.4071L36.9964 35.0616C38.1846 35.7938 38.1146 36.7268 36.9553 37.4015C35.5625 38.2114 33.1147 38.2003 31.7095 37.3888C30.5331 36.7099 30.469 35.7789 31.6268 35.0584ZM23.0221 66.359L22.9624 44.4383C23.0757 44.504 31.8628 49.6065 31.3026 49.2812C31.3944 80.015 31.3627 69.4149 31.3696 71.708L23.2521 66.9952C23.1084 66.9117 23.0221 66.6746 23.0221 66.359ZM68.5882 52.0577L33.391 72.3786C32.843 72.6937 32.5077 72.5549 32.5077 71.8717C32.5004 69.5207 32.5339 80.3734 32.4369 48.9555C32.4347 48.0571 33.0914 46.9186 33.8727 46.4621C33.9866 46.3963 70.0829 25.5552 69.0779 26.1355C69.0796 26.1345 69.0812 26.1341 69.0829 26.1332C69.6157 25.8269 69.972 25.9441 69.9745 26.633L70.0397 49.5448C70.0419 50.4513 69.3764 51.6022 68.5882 52.0577ZM24.1443 41.1272L32.595 46.038C32.0429 46.5933 31.6143 47.3686 31.4332 48.0474C31.3185 47.9808 22.4196 42.81 22.9834 43.1376C23.0918 42.4057 23.5627 41.5904 24.1443 41.1272Z" fill="black"/>
<path d="M67.4307 37.1494C67.4804 37.0626 67.5059 36.9637 67.5048 36.8636L67.4517 30.9766C67.4495 30.7754 67.3411 30.5902 67.1665 30.4902C66.9918 30.3907 66.7773 30.3907 66.6026 30.4913L52.8641 38.423C52.6894 38.5242 52.5811 38.711 52.5811 38.9133V44.8689C52.5811 45.0712 52.6894 45.258 52.8641 45.3592C53.0346 45.4574 53.2496 45.463 53.4312 45.3586C67.3434 37.3014 67.3434 37.3014 67.4307 37.1494ZM64.7144 37.5096V36.846C64.7144 36.5331 64.4612 36.2799 64.1483 36.2799C63.8355 36.2799 63.5823 36.5331 63.5823 36.846V38.1667C63.0843 38.4557 62.5459 38.7679 61.9771 39.0979V38.4341C61.9771 38.1212 61.7239 37.868 61.411 37.868C61.0982 37.868 60.845 38.1212 60.845 38.4341V39.7543C60.3203 40.0585 59.7841 40.3693 59.2397 40.6849V40.0222C59.2397 39.7093 58.9866 39.4561 58.6737 39.4561C58.3608 39.4561 58.1077 39.7093 58.1077 40.0222V41.341C57.5678 41.6538 57.0302 41.9654 56.5024 42.2712V41.6103C56.5024 41.2974 56.2492 41.0443 55.9364 41.0443C55.6235 41.0443 55.3703 41.2974 55.3703 41.6103V42.9271C54.7914 43.2626 54.2334 43.5858 53.7131 43.8872V39.24L66.3285 31.9567L66.3694 36.5469C66.0535 36.7315 65.4669 37.0726 64.7144 37.5096Z" fill="black"/>
<path d="M43.1895 44.3056C38.5707 46.9727 34.9577 53.4135 34.972 58.5312C34.988 63.9799 38.9978 66.3404 43.8075 63.5614C48.3601 60.9332 52.0316 54.5368 52.0172 49.3408C52.0009 43.7462 47.8641 41.6076 43.1895 44.3056ZM36.104 58.5279C36.1025 57.9905 36.1497 57.4385 36.2289 56.8809L50.8359 48.4424C50.8652 48.732 50.8842 49.0306 50.8851 49.3441C50.8867 49.8776 50.84 50.4255 50.7619 50.9789L36.1519 59.4192C36.1233 59.1329 36.1049 58.8375 36.104 58.5279ZM50.618 47.2606L36.5248 55.4023C36.7965 54.3372 37.1929 53.2686 37.6924 52.2334L49.6049 45.3508C50.0631 45.8416 50.4045 46.4853 50.618 47.2606ZM43.7555 45.2862C45.5975 44.2221 47.3047 43.9985 48.6072 44.6196L38.7656 50.3056C40.106 48.2027 41.8475 46.388 43.7555 45.2862ZM36.3687 60.6015L50.4685 52.4561C50.1969 53.526 49.7992 54.5993 49.2979 55.6389L37.3854 62.522C36.9248 62.0293 36.5823 61.3818 36.3687 60.6015ZM43.2414 62.5808C41.3965 63.6462 39.689 63.8739 38.384 63.2527L48.226 57.5656C46.8869 59.6674 45.1473 61.4806 43.2414 62.5808Z" fill="black"/>
<path d="M62.374 42.5677C62.1993 42.4671 61.9837 42.4676 61.809 42.5682L59.2884 44.0237C59.1126 44.1254 59.0043 44.3128 59.0054 44.5157L59.0308 53.4026C59.0319 53.6043 59.1392 53.7906 59.3149 53.8918C59.4896 53.9923 59.7052 53.9918 59.8799 53.8912L62.4005 52.4358C62.5763 52.334 62.6846 52.1467 62.6835 51.9438L62.6581 43.0569C62.657 42.8551 62.5497 42.6688 62.374 42.5677ZM60.1596 52.4219L60.1386 44.8401L61.5293 44.0375L61.5503 51.6193L60.1596 52.4219Z" fill="black"/>
<path d="M56.4515 45.6621L53.9308 47.117C53.7551 47.2187 53.6478 47.4061 53.6478 47.609L53.6721 56.4959C53.6745 56.9318 54.1457 57.2008 54.5212 56.9845L57.0418 55.5296C57.2176 55.4279 57.3249 55.2405 57.3249 55.0377L57.3005 46.1508C57.2982 45.7169 56.8289 45.4447 56.4515 45.6621ZM54.802 55.5153L54.781 47.9334L56.1707 47.1314L56.1917 54.7132L54.802 55.5153Z" fill="black"/>
<path d="M67.7314 39.4744C67.5567 39.3738 67.3411 39.3743 67.1665 39.4749L64.6458 40.9304C64.47 41.0321 64.3617 41.2195 64.3628 41.4223L64.3882 50.3092C64.3893 50.511 64.4966 50.6973 64.6724 50.7984C64.847 50.899 65.0626 50.8985 65.2373 50.7979L67.7579 49.3425C67.9337 49.2407 68.042 49.0534 68.0409 48.8505L68.0155 39.9636C68.0144 39.7618 67.9072 39.5755 67.7314 39.4744ZM65.517 49.3286L65.496 41.7468L66.8868 40.9442L66.9078 48.526L65.517 49.3286Z" fill="black"/>
<path d="M52.6893 23.3174L50.8199 24.3964C50.549 24.5529 50.4561 24.8989 50.6131 25.1698C50.7671 25.4384 51.1126 25.5339 51.3859 25.3771L53.2554 24.298C53.5262 24.1416 53.6191 23.7956 53.4621 23.5247C53.3062 23.2539 52.9591 23.1615 52.6893 23.3174Z" fill="black"/>
</svg>
