<svg width="93" height="92" viewBox="0 0 93 92" fill="none" xmlns="http://www.w3.org/2000/svg">
<rect x="0.5" width="92" height="92" rx="46" fill="white"/>
<path d="M45.2137 70.8993C45.3764 70.9945 45.5731 70.9994 45.7355 70.9242C45.7441 70.9202 45.7489 70.9113 45.7572 70.9069C45.7648 70.903 45.7738 70.9048 45.7814 70.9004C48.4601 69.3539 70.6535 56.5404 73.3868 54.9624C73.6029 54.8374 73.7118 54.5854 73.6549 54.3421L71.5438 45.3723C71.515 45.2496 71.36 45.0642 71.273 45.0136L65.3308 41.5555L64.0997 36.3384C64.0695 36.2121 63.9134 36.0257 63.8332 35.9791L51.2411 28.6615C50.9713 28.5051 50.6242 28.5952 50.4672 28.866C50.3097 29.1363 50.402 29.4829 50.6723 29.6399L62.4192 36.4666L53.9189 41.3744L29.4448 27.1519L37.9447 22.2438L42.5217 24.9038C42.7925 25.0613 43.1391 24.9695 43.2956 24.6992C43.4531 24.4289 43.3608 24.0823 43.091 23.9254L38.2305 21.1007C38.0536 20.9979 37.8375 20.999 37.6628 21.0996L28.0324 26.6599C27.9487 26.7084 27.7825 26.9163 27.7583 27.0496L25.6997 38.4262C25.6577 38.6606 25.7666 38.8966 25.9723 39.016L27.8388 40.1007C27.0486 40.5576 21.5534 43.7358 21.6745 43.6659C21.5369 43.7449 21.4123 43.9726 21.3975 44.054L19.339 55.4306C19.297 55.6649 19.4059 55.901 19.6115 56.0204L45.2137 70.8993ZM65.0167 45.1551C62.4668 46.6271 71.4958 41.4149 52.6344 52.3031L54.4286 42.3876L63.1727 37.339L65.0167 45.1551ZM55.6019 51.9L58.6477 50.1416L60.7348 51.3506L59.231 59.6617L57.7389 53.3427C57.7158 53.2454 57.6091 53.0623 57.4714 52.9829L55.6019 51.9ZM46.2729 69.3095L48.0673 59.3915C51.0844 57.6522 56.9304 54.2766 56.8119 54.3438L58.656 62.1594L46.2729 69.3095ZM60.0798 61.3377L61.8761 51.4204C61.9927 51.3531 71.2032 46.0345 70.6163 46.3734L72.4564 54.1923L60.0798 61.3377ZM69.8601 45.5011C69.7468 45.5665 60.8008 50.7331 61.3654 50.407L59.7792 49.4883L65.9503 45.9251C66.1665 45.8002 66.2754 45.5481 66.2184 45.3049L65.6933 43.0761L69.8601 45.5011ZM28.7289 28.0452L53.2902 42.3183L51.4462 52.5103L26.8849 38.2372L28.7289 28.0452ZM28.965 40.7567L51.5711 53.8939C51.7243 53.9837 51.9241 53.9993 52.0968 53.9193C53.4412 53.145 54.5909 52.483 54.4698 52.5528L56.0574 53.4721C55.9407 53.5394 47.436 58.4456 47.5552 58.3768L23.0868 44.1568L28.965 40.7567ZM22.3682 45.0495L46.9289 59.3226L45.0849 69.5152L20.5241 55.2415L22.3682 45.0495Z" fill="black"/>
<path d="M46.0096 25.6212C45.7393 25.4648 45.3927 25.556 45.2358 25.8258C45.0782 26.0961 45.17 26.4427 45.4403 26.5997L48.1726 28.1878C48.4437 28.345 48.7897 28.2531 48.9465 27.9832C49.104 27.7129 49.0123 27.3663 48.742 27.2094L46.0096 25.6212Z" fill="black"/>
</svg>
