<svg width="93" height="92" viewBox="0 0 93 92" fill="none" xmlns="http://www.w3.org/2000/svg">
<path d="M8.77351 40.8867L18.8581 46.7356C24.2793 50.6544 29.0311 55.6969 32.9885 61.7209C33.0832 69.014 35.6332 74.483 40.2036 77.1234C42.3663 78.3634 47.0418 81.2991 48.9422 82.0038C54.0348 83.8915 59.8274 82.2051 64.5114 79.4958C77.5929 71.9457 88.202 53.56 88.1598 38.5096C88.1427 31.1466 85.5177 25.5549 81.011 22.8948C80.9808 22.8713 80.9604 22.8395 80.9265 22.8197L74.0933 18.8293C69.4113 16.1267 63.279 16.6779 56.8138 20.3605C54.1331 20.3023 51.5135 20.0856 49.0303 19.704C48.5421 19.6277 48.1132 19.9565 48.0403 20.4295C47.9674 20.9033 48.2929 21.3466 48.7659 21.4195C50.5263 21.6898 52.3494 21.8831 54.2133 21.9967C48.1105 26.2562 41.7921 33.5735 37.5513 42.6967C35.2604 47.6243 33.5153 53.2545 33.0864 58.7363C33.0855 58.7488 33.0831 58.7616 33.0822 58.7741C29.285 53.4352 24.8411 48.9117 19.8438 45.306C19.8319 45.2975 19.8177 45.2965 19.8056 45.2887C19.7926 45.2801 19.7854 45.2665 19.7717 45.2586L19.7514 45.2467C17.7672 44.0898 16.7188 41.7487 16.7188 38.4711C16.6882 31.1455 21.8593 22.1806 28.2442 18.4885C31.1946 16.7934 33.9179 16.495 35.9148 17.6545C36.0313 17.7224 36.1575 17.7521 36.2846 17.7613C36.9943 18.0905 37.711 18.4051 38.433 18.6818C38.8798 18.8531 39.382 18.6301 39.5535 18.1817C39.7255 17.7342 39.5009 17.2324 39.0534 17.0612C38.2592 16.7569 37.465 16.4187 36.6878 16.0466C36.6427 16.025 36.5945 16.0247 36.5477 16.0116L26.6558 10.122C24.0885 8.64047 20.7465 8.93458 17.2061 10.9806C13.7607 13.2522 11.0247 16.1102 8.59383 19.9743C8.58959 19.9811 8.58535 19.9888 8.58111 19.9955C6.15957 24.1055 4.83141 28.5273 4.83988 32.4482C4.85684 36.4335 6.2545 39.4306 8.77351 40.8867ZM86.424 38.5135C86.4646 53.0089 76.2453 70.72 63.6426 77.9931C58.4741 80.9842 53.4691 81.8292 49.5456 80.3765C43.7337 78.2215 41.5716 71.674 41.5716 65.4302C41.5664 64.178 41.6645 62.896 41.8079 61.6042C43.1679 49.4701 50.8354 36.0105 60.6195 28.4874C66.2543 24.5012 73.4225 20.7774 79.7418 24.1722C83.9966 26.4088 86.4078 31.4844 86.424 38.5135ZM73.2229 20.3303L74.5798 21.1237C69.0846 21.0337 63.228 24.1116 58.9775 27.5229C58.9567 27.5397 58.9468 27.5638 58.9278 27.582C49.0601 35.5055 41.414 49.2031 40.0711 61.5442C39.9272 62.8554 39.8279 64.1568 39.8315 65.4285C39.8315 68.5953 40.3933 72.034 41.6803 74.8859C41.7123 74.9579 42.31 76.232 42.4056 76.3954L41.074 75.6215C37.002 73.2692 34.7431 68.2376 34.7118 61.4537C34.7119 61.4486 34.7163 61.4449 34.7163 61.4398C34.6811 46.8551 45.082 29.1408 57.5222 21.9467C63.4867 18.5072 69.0646 17.9351 73.2229 20.3303ZM10.0703 20.888C12.3622 17.246 14.9337 14.5583 18.1181 12.4571C21.0558 10.7637 23.78 10.4679 25.7786 11.6197L31.9752 15.3092C30.5157 15.5127 28.9646 16.0729 27.3771 16.9849C20.51 20.9558 14.9498 30.5979 14.9829 38.4745C14.9829 40.2841 15.2643 41.7369 15.7093 42.9023L9.64314 39.384C7.67929 38.2491 6.59014 35.7835 6.57573 32.4431C6.56811 28.8333 7.80897 24.7301 10.0703 20.888Z" fill="white"/>
<path d="M42.5488 18.2699C42.0903 18.1351 41.6055 18.3953 41.4699 18.8538C41.3326 19.3132 41.5945 19.7964 42.0539 19.9328C42.9472 20.199 43.8533 20.4388 44.7695 20.6541C45.2494 20.7635 45.7053 20.4649 45.8129 20.0074C45.9222 19.5404 45.6323 19.0734 45.1662 18.964C44.2821 18.7572 43.41 18.5258 42.5488 18.2699Z" fill="white"/>
<path d="M76.7818 26.0337C71.4037 24.7027 65.4718 28.1003 61.2741 31.6106C56.3234 35.7415 52.2679 41.2725 49.4038 46.8797C45.9301 53.6869 44.4024 60.2004 44.4168 65.4226C44.4168 67.2898 44.6237 69.0341 45.0271 70.592C45.0281 70.5961 45.0298 70.5996 45.0307 70.6037C45.031 70.6048 45.031 70.6062 45.0313 70.6072C45.0312 70.6067 45.0315 70.6078 45.0313 70.6072C46.1308 75.1512 48.9429 78.2228 53.6241 78.2228C56.2228 78.2228 59.1953 77.2879 62.2144 75.5224C73.8339 68.8239 83.6184 51.8757 83.5803 38.5127C83.5616 31.754 81.0901 27.2076 76.7818 26.0337ZM54.4141 67.0923C51.6166 68.7286 48.9196 69.5872 46.5973 69.5538C46.3173 68.2668 46.154 66.9708 46.1532 65.43C46.1532 65.4263 46.1527 65.4228 46.1527 65.4191C46.1527 61.5328 47.0279 57.5749 48.2846 53.9256L57.2637 57.8621C57.2912 57.8742 57.3218 57.8711 57.3502 57.8799C58.9139 58.664 60.6167 58.2457 62.1152 57.357C65.5556 55.3177 68.2068 50.6094 68.15 46.6384C68.1203 44.561 67.3516 42.9955 65.9844 42.2293C65.9754 42.2243 65.9648 42.2238 65.9558 42.2188L58.3274 36.8897C59.5263 35.5551 60.6844 34.3654 62.2622 33.0399C65.4488 30.3559 70.2499 27.3824 74.4477 27.4581C74.4688 27.4584 74.493 27.4617 74.5142 27.4623C77.0709 39.7669 67.3737 59.6209 54.4141 67.0923ZM58.076 56.3143C58.0646 56.3073 58.0586 56.2946 58.0468 56.2882C57.2433 55.8474 56.7746 54.793 56.761 53.392C56.7129 49.9866 59.2524 45.7755 61.9271 44.1906C64.4194 42.7122 66.3708 43.6155 66.4142 46.6639C66.4616 50.0135 64.1367 54.1412 61.2303 55.8635C60.0008 56.5925 58.883 56.7476 58.076 56.3143ZM62.4322 42.0525C62.389 42.0672 62.3456 42.0862 62.3022 42.102C61.8865 42.2534 61.4654 42.4416 61.0396 42.6946C57.8452 44.5926 54.9652 49.2743 55.0235 53.4149C55.0237 53.4301 55.0278 53.4425 55.0282 53.4577C55.0352 53.8957 55.0871 54.3059 55.1638 54.6988C55.1805 54.7869 55.1941 54.8765 55.2141 54.9619C55.2231 54.9994 55.2266 55.0408 55.2362 55.0778L48.8713 52.2878C50.7814 47.3858 53.5809 42.5223 57.0984 38.2942C57.124 38.2635 57.1491 38.2321 57.1748 38.2015L62.5975 41.9895C62.543 42.0063 62.487 42.0338 62.4322 42.0525ZM61.3431 74.0213C58.585 75.6342 55.916 76.4869 53.6241 76.4869C50.4101 76.4869 48.2742 74.8316 47.0944 71.4234C47.0769 71.373 47.0629 71.3146 47.0454 71.2637C49.5624 71.1863 52.3981 70.2823 55.2854 68.5934C68.0224 61.2507 78.6859 41.4494 76.2865 27.7034C76.3047 27.7079 76.3263 27.7091 76.3444 27.7136C79.8229 28.6612 81.8275 32.5991 81.8444 38.5178C81.8809 51.3349 72.4947 67.5924 61.3431 74.0213Z" fill="white"/>
</svg>
