<svg width="93" height="92" viewBox="0 0 93 92" fill="none" xmlns="http://www.w3.org/2000/svg">
<rect x="0.5" width="92" height="92" rx="46" fill="white"/>
<path d="M20.7255 63.068C20.7249 63.2709 20.8327 63.4583 21.0085 63.56L23.5568 65.0315C23.8254 65.1873 24.1731 65.0956 24.3301 64.8242C24.4866 64.5533 24.3937 64.2073 24.1228 64.0508L21.8587 62.7435L21.8968 49.2449L37.2644 61.3975C37.2641 61.5156 37.2385 72.3015 37.2401 71.6238L32.4907 68.8821C32.2193 68.7251 31.8732 68.8185 31.7174 69.0894C31.5609 69.3602 31.6538 69.7063 31.9246 69.8627C32.0394 69.9289 37.6397 73.1606 37.5249 73.0943C37.5247 73.0942 37.5251 73.0945 37.5249 73.0943C37.703 73.1963 37.9184 73.1952 38.093 73.0936C38.2595 72.9968 40.6182 71.6252 48.9879 66.7578L57.4942 71.7007C57.6704 71.8037 57.8871 71.8021 58.0613 71.7018C58.0622 71.7012 58.0626 71.7001 58.0635 71.6995L71.9939 63.644C72.1692 63.5429 72.2769 63.3555 72.2764 63.1526L72.2659 59.81C72.2653 59.6077 72.157 59.4214 71.9818 59.3208C71.9816 59.3206 71.982 59.3209 71.9818 59.3208C71.9814 59.3206 71.9805 59.3199 71.9801 59.3197L66.8853 56.3604L68.8735 55.2071C69.0476 55.1059 69.1549 54.9202 69.1554 54.719L69.1892 43.2396C69.1897 43.0826 69.0484 42.855 68.9714 42.794L52.4689 29.7442C52.2865 29.6005 52.0345 29.5817 51.8333 29.6989C49.9214 30.8099 48.4833 31.6457 45.5269 33.3638L45.5062 23.0634C45.5057 22.8617 45.3979 22.6754 45.2232 22.5742C45.0474 22.4731 44.8324 22.4731 44.6577 22.5742L42.3587 23.8976L42.3494 19.3941C42.3488 19.1918 42.241 19.0055 42.0658 18.9049C41.8911 18.8043 41.6761 18.8043 41.5003 18.9049L28.7877 26.2385C28.6119 26.3397 28.5041 26.5276 28.5046 26.7305L28.5189 31.8827L25.649 33.5445C25.4738 33.6457 25.366 33.8336 25.3666 34.0359L25.4 45.0604L21.0494 47.5888C20.9103 47.6698 20.7836 47.842 20.7697 48.0376C20.7616 48.1523 20.7132 62.9506 20.7255 63.068ZM63.0788 54.143L61.2487 53.0774L63.0849 52.0115L63.0788 54.143ZM57.3554 55.4564L64.8361 59.8022L57.7722 63.8867L50.3071 59.5491L57.3554 55.4564ZM46.7594 65.4688L47.8565 66.1067L46.7549 66.7473L46.7594 65.4688ZM46.7638 64.162L46.771 62.1228C47.8384 62.7434 42.9074 59.8763 57.2018 68.1877L57.209 70.2259C56.3189 69.7091 49.0171 65.4701 46.7638 64.162ZM58.3427 70.2303L58.3366 68.1933L71.1371 60.7912L71.1432 62.8281L58.3427 70.2303ZM57.7699 67.2077C43.484 58.9003 48.4188 61.7699 47.3497 61.1483L49.0782 60.1443L57.4875 65.0304C57.6624 65.1326 57.8791 65.1328 58.0552 65.0309L66.2484 60.2931C66.4231 60.1925 66.5309 60.0057 66.5309 59.8039C66.5309 59.6021 66.4236 59.4153 66.249 59.3142L58.38 54.7428L60.1143 53.736L70.5672 59.8078L57.7699 67.2077ZM68.0245 54.3906L65.7598 55.704L64.209 54.8011L64.2197 51.0287C64.2203 50.8258 64.1125 50.6384 63.9367 50.5367C63.7621 50.4361 63.5454 50.4355 63.3696 50.5373C50.6351 57.9271 72.4883 45.2436 45.9446 60.6508C45.9427 60.6518 45.942 60.654 45.9402 60.655L45.9352 60.6579C45.7608 60.7599 45.6429 60.9956 45.6422 61.1565C45.6417 61.2928 45.6192 67.822 45.6207 67.407L38.3766 71.6199C38.3769 71.5018 38.4028 60.7763 38.4011 61.454C41.4526 59.6808 27.3854 67.855 68.0543 44.2229L68.0245 54.3906ZM46.7284 33.9751L51.7724 37.9634L32.7212 49.0343L27.6783 45.0466C56.0666 28.5763 24.5183 46.888 46.7284 33.9751ZM44.3764 24.0424L44.3963 34.0209L42.3821 35.1914L42.3614 25.2017L44.3764 24.0424ZM41.2195 20.3742C41.2603 41.5819 41.2462 34.2673 41.2493 35.8497C25.3951 45.004 30.8632 41.8466 29.6803 42.5297L29.6378 27.0555L41.2195 20.3742ZM28.5168 33.1918L28.5467 43.1832L26.5301 44.344L26.4997 34.3599L28.5168 33.1918ZM26.6261 45.6575L32.3215 50.1614C32.5066 50.3074 32.7587 50.3225 32.9567 50.2067L53.0599 38.5244C53.4037 38.3249 53.4407 37.8392 53.1267 37.5914L47.7803 33.3638L52.0693 30.8713L67.6171 43.166C67.5012 43.2334 38.0589 60.3384 37.881 60.4417L22.3374 48.1498L26.6261 45.6575Z" fill="black"/>
<path d="M29.6555 67.2453L26.9586 65.6882C26.6872 65.5312 26.3422 65.624 26.1852 65.8955C26.0288 66.1663 26.1217 66.5124 26.3925 66.6688L29.0895 68.2259C29.3594 68.3819 29.7063 68.2897 29.8628 68.0187C30.0193 67.7478 29.9264 67.4018 29.6555 67.2453Z" fill="black"/>
<path d="M59.4847 44.7835C60.4014 45.3126 61.8407 45.3132 62.761 44.7774C63.8745 44.1309 63.8682 42.889 62.7427 42.2385C61.8185 41.7056 60.384 41.7012 59.4742 42.2296C58.3513 42.8823 58.3529 44.1301 59.4847 44.7835ZM60.043 43.2081C60.6062 42.8815 61.6018 42.8869 62.1767 43.2191C62.5326 43.424 62.5564 43.5872 62.1922 43.799C61.6211 44.1301 60.6206 44.1317 60.0507 43.8028C59.6966 43.5987 59.6606 43.4313 60.043 43.2081Z" fill="black"/>
<path d="M55.3058 41.673C56.2237 42.2029 57.6644 42.2006 58.582 41.6669C59.6956 41.0204 59.6893 39.7786 58.5638 39.128C57.6396 38.5951 56.2046 38.5907 55.2958 39.1192C54.1708 39.7723 54.1739 41.0196 55.3058 41.673ZM55.8641 40.0976C56.4273 39.7711 57.4229 39.7764 57.9978 40.1086C58.3498 40.3112 58.3804 40.4747 58.0138 40.6885C57.4433 41.0202 56.4423 41.0218 55.8718 40.6924C55.5192 40.4891 55.4794 40.3215 55.8641 40.0976Z" fill="black"/>
</svg>
