<svg width="93" height="92" viewBox="0 0 93 92" fill="none" xmlns="http://www.w3.org/2000/svg">
<rect x="0.5" width="92" height="92" rx="46" fill="black"/>
<path d="M31.2534 53.3541H31.2551C31.5674 53.353 31.8206 53.0992 31.8195 52.7864L31.8101 49.4371C31.809 49.1254 31.5558 48.8727 31.244 48.8727H31.2424C30.93 48.8738 30.6769 49.1276 30.678 49.4404L30.6874 52.7897C30.6885 53.1014 30.9417 53.3541 31.2534 53.3541Z" fill="white"/>
<path d="M36.3859 73.0946C36.5581 73.1938 36.7742 73.1961 36.9514 73.0941L62.0925 58.5789C62.2683 58.4772 62.3761 58.2898 62.3756 58.0869L62.285 26.1121C62.2855 26.1028 62.292 26.0953 62.2921 26.0859C62.2932 25.8847 62.1876 25.6984 62.0146 25.5956C47.7624 17.1481 64.9149 27.2981 50.6264 18.907C50.4501 18.8042 50.2339 18.8053 50.0587 18.9059L30.9074 29.963C30.7305 30.0655 30.6249 30.254 30.6244 30.4528C30.6244 30.4524 30.6244 30.4532 30.6244 30.4528C30.6244 30.5833 30.6668 45.877 30.6681 46.0017C30.6692 46.3134 30.9223 46.566 31.2341 46.566C31.2346 46.566 31.2352 46.566 31.2358 46.566C31.5481 46.5649 31.8012 46.3112 31.8001 45.9984L31.7592 31.4386L35.9921 33.8988L36.0995 71.6187L31.8659 69.1589L31.8294 56.2296C31.8283 55.9178 31.5752 55.6652 31.2634 55.6652C31.2628 55.6652 31.2623 55.6652 31.2617 55.6652C30.9494 55.6663 30.6962 55.92 30.6974 56.2329L30.7349 69.4867C30.7355 69.6879 30.8427 69.8736 31.0169 69.9742L36.3843 73.093C36.385 73.0934 36.3852 73.0942 36.3859 73.0946ZM37.2317 71.6248L37.1244 33.8989C42.2694 30.9285 49.6615 26.6608 55.1459 23.4945L55.163 29.5551C55.1642 29.9892 55.6357 30.2612 56.0121 30.0437L61.1556 27.0737L61.2424 57.7624L37.2317 71.6248ZM56.2923 28.5662C56.2919 28.4264 56.2777 23.3919 56.278 23.5111L60.605 26.0759L56.2923 28.5662ZM50.3406 20.0502L54.5798 22.5139L36.5581 32.9184C36.4434 32.8517 32.1757 30.3713 32.3197 30.455L50.3406 20.0502Z" fill="white"/>
<path d="M58.0805 55.165L50.4528 59.5689C50.182 59.7253 50.0891 60.0714 50.2455 60.3422C50.4024 60.6138 50.7495 60.7051 51.0189 60.5495L58.6466 56.1456C58.9174 55.9892 59.0103 55.6431 58.8538 55.3723C58.6974 55.1003 58.3497 55.0085 58.0805 55.165Z" fill="white"/>
<path d="M58.0805 47.7462L39.7202 58.3462C39.4494 58.5026 39.3565 58.8486 39.5129 59.1195C39.6698 59.3911 40.0169 59.4824 40.2863 59.3268L58.6466 48.7268C58.9174 48.5704 59.0103 48.2244 58.8538 47.9535C58.6974 47.6821 58.3497 47.5898 58.0805 47.7462Z" fill="white"/>
<path d="M58.0805 40.3275L39.7202 50.9274C39.4494 51.0838 39.3565 51.4299 39.5129 51.7007C39.6698 51.9723 40.0169 52.0636 40.2863 51.908L58.6466 41.3081C58.9174 41.1516 59.0103 40.8056 58.8538 40.5347C58.6974 40.2633 58.3497 40.1705 58.0805 40.3275Z" fill="white"/>
<path d="M58.0805 32.9087L44.9754 40.4751C44.7046 40.6315 44.6117 40.9776 44.7681 41.2484C44.925 41.52 45.2721 41.6113 45.5415 41.4557L58.6466 33.8894C58.9174 33.7329 59.0103 33.3869 58.8538 33.116C58.6974 32.8441 58.3497 32.7518 58.0805 32.9087Z" fill="white"/>
<path d="M45.5415 34.0369L53.2139 29.607C53.4848 29.4506 53.5776 29.1045 53.4212 28.8337C53.2642 28.5617 52.9165 28.4694 52.6479 28.6264L44.9754 33.0563C44.7046 33.2127 44.6117 33.5588 44.7681 33.8296C44.925 34.1012 45.2721 34.1925 45.5415 34.0369Z" fill="white"/>
<path d="M40.9717 42.0284C40.7794 42.1406 40.6318 42.1561 40.5776 42.1246C40.5245 42.0936 40.467 41.9637 40.4665 41.7498C40.4659 41.438 40.2122 41.1854 39.9005 41.1854H39.8988C39.5865 41.1859 39.3339 41.4402 39.3344 41.7531C39.337 42.7183 39.9324 43.2699 40.6445 43.2699C40.6531 43.2699 40.6624 43.2661 40.671 43.266V43.968C40.671 44.2809 40.9242 44.5341 41.2371 44.5341C41.5499 44.5341 41.8031 44.2809 41.8031 43.968V42.8257C42.5851 42.2312 43.1648 41.1391 43.1624 40.1932C43.1577 38.9011 42.0854 38.2852 40.9629 38.9306C40.7694 39.0417 40.624 39.0567 40.5693 39.0268C40.5162 38.9959 40.4582 38.8643 40.4576 38.6476C40.456 37.9959 40.9524 37.1369 41.5201 36.8091C41.7108 36.7002 41.8562 36.6847 41.9092 36.7151C41.9628 36.7455 42.0209 36.8776 42.0214 37.0943C42.022 37.4061 42.2757 37.6587 42.5875 37.6587H42.5891C42.9014 37.6582 43.1541 37.4039 43.1535 37.091C43.1512 36.2221 42.6451 35.5532 41.8031 35.576V34.8816C41.8031 34.5687 41.5499 34.3156 41.2371 34.3156C40.9242 34.3156 40.671 34.5687 40.671 34.8816V36.0239C39.8957 36.6225 39.3231 37.7088 39.3256 38.6509C39.329 39.94 40.403 40.5625 41.5289 39.9113C41.7196 39.8018 41.8656 39.788 41.9175 39.8167C41.9717 39.8477 42.0297 39.9798 42.0303 40.1965C42.0319 40.8454 41.5372 41.7017 40.9717 42.0284Z" fill="white"/>
<path d="M47.5 60.2128L47.3839 60.3776C47.055 60.8463 47.055 60.8463 46.2502 60.9044C45.8737 60.9287 45.3044 60.9657 44.9528 61.4256C44.6808 61.781 44.6897 62.1951 44.698 62.5947C44.6985 62.6489 44.6952 62.6937 44.6897 62.7296C44.6438 62.6942 44.5813 62.6378 44.5012 62.5494L43.6289 61.5876C43.5184 61.4665 43.3675 61.3007 43.1491 61.1907C42.8147 61.0204 42.4366 61.0431 42.1569 61.2482C41.6168 61.6467 41.8197 62.3062 41.9186 62.6262C42.0856 63.1685 41.9435 63.8164 41.5643 64.2387C41.1851 64.661 40.5572 64.871 40 64.7633C39.6915 64.7019 39.3958 64.9031 39.3361 65.2104C39.2764 65.5178 39.4765 65.8146 39.7833 65.8743C39.953 65.9075 40.1255 65.9235 40.2974 65.9235C41.0878 65.9235 41.8772 65.5852 42.4067 64.9949C42.9639 64.3747 43.2132 63.4996 43.0878 62.6765L43.6621 63.31C44.295 64.0082 44.8273 63.9805 45.1623 63.8379C45.5929 63.6522 45.8361 63.195 45.8278 62.4737C45.8256 62.3637 45.8212 62.1597 45.8522 62.1138C45.8914 62.0619 46.2054 62.0414 46.3237 62.0337L46.4436 62.0254C47.5342 61.9469 47.7089 61.8861 48.3109 61.0276L48.4242 60.8662C48.605 60.6114 48.5442 60.2582 48.2888 60.0774C48.0351 59.8972 47.6807 59.958 47.5 60.2128Z" fill="white"/>
</svg>
