<svg width="93" height="92" viewBox="0 0 93 92" fill="none" xmlns="http://www.w3.org/2000/svg">
<path d="M9.63458 82.4573C9.63631 82.7717 9.80217 83.062 10.0752 83.2192L18.8885 88.3412C18.8882 88.341 18.8888 88.3414 18.8885 88.3412C18.8895 88.3417 18.891 88.3432 18.8919 88.3438C19.1648 88.5009 19.5018 88.5001 19.7748 88.3429L83.0404 51.8171C83.3151 51.6581 83.4844 51.3653 83.4827 51.0482L83.3652 9.54129C83.3642 9.36379 83.2576 8.97249 82.9246 8.77934L82.9226 8.77816C82.922 8.77783 82.9218 8.77708 82.9212 8.77675C82.9206 8.77643 82.9199 8.77654 82.9193 8.77621L74.1113 3.65825C73.84 3.4993 73.4997 3.4993 73.2249 3.65652L68.0866 6.62223C67.6633 6.86671 67.5181 7.4075 67.7635 7.8308C68.0071 8.2541 68.5479 8.39751 68.9712 8.15476L73.6655 5.44476L80.7148 9.54129C46.5242 29.2812 29.346 39.199 19.2162 45.0474L12.1675 40.9512L54.0312 16.7806C54.4545 16.5361 54.5996 15.9954 54.3543 15.5721C54.1107 15.147 53.5682 15.0045 53.1466 15.2481L9.9594 40.1823C9.68282 40.3425 9.51709 40.637 9.51709 40.9477C9.51709 40.9484 9.51752 40.9488 9.51752 40.9495C9.51752 40.9501 9.51709 40.9505 9.51709 40.9512L9.63458 82.4573ZM11.4021 81.945L11.2915 42.4881C11.8289 42.8004 18.7588 46.8273 18.3318 46.5792L18.3613 56.965L18.4427 86.0372L11.4021 81.945ZM20.2128 86.0462L20.1284 56.213L20.1014 46.5796C34.5304 38.2493 66.9742 19.5184 81.6012 11.0738L81.7117 50.5411L20.2128 86.0462Z" fill="black"/>
<path d="M59.7846 13.459L64.4616 10.7585C64.8849 10.514 65.0301 9.97325 64.7847 9.54995C64.5411 9.12405 63.9986 8.98238 63.577 9.22599L58.9 11.9265C58.4767 12.171 58.3315 12.7118 58.5769 13.1351C58.8177 13.5565 59.3588 13.7034 59.7846 13.459Z" fill="black"/>
<path d="M77.6981 16.9033L23.144 48.3987C22.8693 48.5576 22.6999 48.8505 22.7017 49.1675L22.7881 79.4535C22.7918 80.1387 23.5307 80.5537 24.115 80.2172L78.6674 48.7218C78.9421 48.5628 79.1115 48.27 79.1097 47.9529L79.0251 17.6669C79.0214 16.9879 78.2879 16.5636 77.6981 16.9033ZM24.5521 77.921L24.4726 49.6746L77.2593 19.1995L77.3388 47.4458L24.5521 77.921Z" fill="black"/>
<path d="M71.9358 33.0346C70.9804 32.4834 69.7709 32.5741 68.5356 33.286C66.2912 34.5818 64.5393 37.6106 64.5444 40.1823C64.5496 41.587 65.0766 42.6626 66.0303 43.2111C67.0953 43.8241 68.3812 43.577 69.4427 42.964C71.6784 41.6734 73.4234 38.6481 73.4182 36.0763C73.4131 34.6621 72.8878 33.5814 71.9358 33.0346ZM68.558 41.4315C67.898 41.8116 67.2968 41.9015 66.9132 41.6777C66.5348 41.46 66.3154 40.9132 66.3137 40.178C66.3085 38.2473 67.7322 35.793 69.4202 34.8185C70.0767 34.4393 70.6746 34.3503 71.0547 34.568C71.4296 34.7839 71.6473 35.336 71.649 36.0806C71.6542 38.0114 70.2374 40.4614 68.558 41.4315Z" fill="black"/>
<path d="M35.7845 53.9068C34.8273 53.3548 33.6196 53.4463 32.3842 54.1582C30.1398 55.454 28.3879 58.4828 28.3931 61.0545C28.3983 62.4592 28.9252 63.5347 29.879 64.0833C30.9425 64.6955 32.2281 64.4478 33.2913 63.8354C35.527 62.5456 37.2721 59.5211 37.2669 56.9485C37.2617 55.5343 36.7365 54.4536 35.7845 53.9068ZM32.4067 62.3028C31.7519 62.6821 31.1506 62.7737 30.7618 62.5499C30.3835 62.3322 30.164 61.7854 30.1623 61.0502C30.1571 59.1194 31.5808 56.6651 33.2688 55.6907C33.9254 55.3123 34.5232 55.2225 34.9033 55.4402C35.2782 55.6561 35.4959 56.2082 35.4976 56.9528C35.5028 58.8836 34.0861 61.3336 32.4067 62.3028Z" fill="black"/>
<path d="M50.4531 37.5604C45.2767 40.5495 41.0782 47.8026 41.0938 53.7297C41.1117 60.0209 45.8607 62.7617 51.3965 59.5644C56.5521 56.5866 60.7333 49.3429 60.7177 43.4167C60.6998 37.069 55.9762 34.3725 50.4531 37.5604ZM50.5118 58.0318C46.1929 60.5297 42.8774 58.6758 42.863 53.7245C42.8492 48.3624 46.6503 41.7986 51.3377 39.093C55.6735 36.5872 58.9342 38.4451 58.9485 43.4219C58.9641 48.7831 55.1785 55.3374 50.5118 58.0318Z" fill="black"/>
<path d="M52.682 47.6558C52.0531 47.2929 51.2463 47.3422 50.467 47.7888C50.2044 47.9409 50.0455 47.9409 50.0109 47.9227C49.9936 47.9123 49.9038 47.7931 49.9021 47.4752C49.9003 46.5949 50.5707 45.433 51.3378 44.9898C51.5953 44.8395 51.7594 44.8421 51.7871 44.8585C51.8164 44.8749 51.8976 45.0123 51.8976 45.3069C51.8994 45.7941 52.295 46.1889 52.7822 46.1889C53.2712 46.1872 53.6686 45.7906 53.6669 45.3017C53.6651 44.4084 53.3006 43.688 52.6699 43.3251C52.4016 43.1707 52.0971 43.1069 51.7801 43.1005V42.2168C51.7801 41.7278 51.3845 41.3322 50.8955 41.3322C50.4066 41.3322 50.0109 41.7278 50.0109 42.2168V43.8107C48.9207 44.6743 48.1283 46.1367 48.1328 47.4804C48.1346 48.3728 48.4991 49.0933 49.128 49.4561C49.7638 49.8207 50.5724 49.7723 51.3517 49.3213C51.6108 49.171 51.7732 49.1745 51.7991 49.1892C51.8182 49.1995 51.908 49.3187 51.9097 49.6384C51.9115 50.5161 51.2445 51.6728 50.4791 52.1143C50.2131 52.2672 50.0541 52.2663 50.0213 52.2473C50.004 52.2378 49.9159 52.1203 49.9142 51.8067C49.9124 51.3186 49.5168 50.9247 49.0295 50.9247C48.5406 50.9264 48.1432 51.323 48.1449 51.8119C48.1467 52.7008 48.5095 53.4187 49.1384 53.7807C49.403 53.9324 49.6997 54.0069 50.0109 54.0161V54.9037C50.0109 55.3927 50.4066 55.7884 50.8955 55.7884C51.3845 55.7884 51.7801 55.3927 51.7801 54.9037V53.3117C52.868 52.4554 53.6836 50.9602 53.679 49.6332C53.6772 48.7399 53.3127 48.0186 52.682 47.6558Z" fill="black"/>
</svg>
