<svg width="93" height="92" viewBox="0 0 93 92" fill="none" xmlns="http://www.w3.org/2000/svg">
<path d="M77.7512 64.6055L73.8585 66.868C73.4361 67.1133 73.2927 67.655 73.5389 68.0774C73.784 68.4992 74.3248 68.6428 74.7483 68.3971L78.641 66.1345C79.0634 65.8892 79.2068 65.3475 78.9606 64.9251C78.7144 64.5018 78.1728 64.3601 77.7512 64.6055Z" fill="black"/>
<path d="M86.4684 53.6117L59.8499 38.2436L59.7632 7.66263C59.6894 7.48556 59.7151 7.12793 59.3235 6.90068L59.3215 6.89949C59.3209 6.89917 59.3206 6.89842 59.3201 6.89809C59.3195 6.89777 59.3188 6.89788 59.3182 6.89755L53.7446 3.65853C53.469 3.49871 53.1312 3.49871 52.8573 3.6568L6.53166 30.4026C6.25513 30.5627 6.09017 30.8573 6.08936 31.168C6.08936 31.1686 6.08979 31.1691 6.08979 31.1697C6.08979 31.1704 6.08936 31.1708 6.08936 31.1715L6.17834 62.2652C6.1792 62.5796 6.34679 62.8699 6.61805 63.0271L11.7559 66.0129L11.7391 71.9545C11.7383 72.2733 11.9085 72.567 12.1849 72.7251L39.5401 88.3426L39.5441 88.3449C39.6806 88.4227 39.8317 88.4615 39.9829 88.4615C40.1358 88.4615 40.2887 88.4218 40.4261 88.3423C40.4258 88.3425 40.4264 88.3421 40.4261 88.3423L71.0378 70.5533C71.4602 70.3079 71.6045 69.7663 71.3583 69.3447C71.1129 68.9214 70.5695 68.778 70.1488 69.0242L40.8721 86.0374L40.885 81.6345C44.9063 79.2976 80.8832 58.3903 85.1372 55.9182L85.1242 60.3206L81.4069 62.4811C80.9845 62.7265 80.8411 63.2681 81.0873 63.6906C81.3326 64.1113 81.8734 64.253 82.2967 64.0102L86.452 61.5948C86.7233 61.4376 86.8909 61.1473 86.8917 60.8329L86.9107 54.3805C86.9107 54.3799 86.9103 54.3794 86.9103 54.3788C86.9103 54.3781 86.9107 54.3777 86.9107 54.3771C86.9099 54.0664 86.7449 53.7718 86.4684 53.6117ZM39.9976 80.1035C39.0643 79.5707 15.6838 66.2228 14.4187 65.5005L58.9702 39.7785L84.2612 54.3805C52.2394 72.9894 84.1262 54.459 39.9976 80.1035ZM57.9983 9.19515L58.0804 38.2337L13.5222 63.9744L13.4401 34.9209C34.633 22.6852 46.9586 15.569 57.9983 9.19515ZM53.2979 5.44504L57.1137 7.66263L12.555 33.3887L8.73888 31.1715L53.2979 5.44504ZM7.86291 32.7083L11.6706 34.9205L11.753 63.9653L7.94584 61.7529L7.86291 32.7083ZM13.5222 67.026L39.1156 81.6377L39.1026 86.0556L13.5101 71.4439L13.5222 67.026Z" fill="black"/>
<path d="M15.2787 59.3876C15.2795 59.7029 15.4488 59.9941 15.7218 60.1522C15.9909 60.3071 16.3287 60.3108 16.6056 60.1513L55.8647 37.4848C56.1394 37.3258 56.3079 37.033 56.307 36.7159L56.2422 13.7816C56.2414 13.4662 56.072 13.1751 55.7991 13.017C55.5252 12.8589 55.1874 12.8615 54.9153 13.0179L15.6562 35.6844C15.3815 35.8434 15.213 36.1362 15.2139 36.4533L15.2787 59.3876ZM54.4773 15.3141L54.5361 36.2088L17.0436 57.8551L16.9848 36.9604L54.4773 15.3141Z" fill="black"/>
<path d="M47.46 67.4416C45.1707 66.1112 41.5752 66.1112 39.2738 67.4399C36.6365 68.9638 36.6534 71.7018 39.2393 73.2037C41.5525 74.5484 45.1577 74.526 47.4427 73.2054C50.0765 71.6839 50.0389 68.9407 47.46 67.4416ZM46.5581 71.6729C44.8079 72.6828 41.8646 72.6819 40.1282 71.6746C38.7026 70.8445 38.7359 69.795 40.1584 68.9724C41.9036 67.9651 44.8399 67.9646 46.5702 68.9707C47.9886 69.7949 47.9791 70.8527 46.5581 71.6729Z" fill="black"/>
<path d="M51.2326 46.6634C48.5843 48.1934 48.6159 50.9373 51.198 52.4367C53.5023 53.7755 57.1102 53.7619 59.4101 52.4341C62.0093 50.9336 62.0419 48.1883 59.4274 46.6703C57.1363 45.3373 53.5357 45.3356 51.2326 46.6634ZM58.5255 50.9016C56.7735 51.9149 53.8251 51.9175 52.0869 50.9077C50.6666 50.082 50.6827 49.0251 52.1172 48.1959C53.8631 47.1879 56.8026 47.1917 58.5384 48.1994C59.9552 49.0226 59.948 50.0815 58.5255 50.9016Z" fill="black"/>
<path d="M63.1633 59.3911C65.4696 60.7321 69.0773 60.7143 71.3753 59.3876C73.9627 57.893 74.0166 55.1486 71.3935 53.6238C69.1042 52.2934 65.5087 52.2926 63.2073 53.6221C60.5492 55.1565 60.5929 57.8972 63.1633 59.3911ZM64.092 55.1546C65.8373 54.1471 68.7736 54.147 70.5037 55.1529C71.9492 55.9929 71.8826 57.0527 70.4907 57.8551C68.7379 58.8693 65.7886 58.8702 64.0531 57.862C62.6284 57.0343 62.6595 55.9821 64.092 55.1546Z" fill="black"/>
<path d="M59.4265 60.533C57.1372 59.2027 53.5417 59.2027 51.2403 60.5313C48.5938 62.0603 48.622 64.7948 51.2058 66.2951C53.5114 67.6354 57.1119 67.6219 59.4092 66.2969C62.0085 64.7963 62.0411 62.051 59.4265 60.533ZM58.5246 64.7643C56.7761 65.7751 53.8328 65.7751 52.0947 64.7661C50.6749 63.9396 50.6903 62.8931 52.125 62.0638C53.8702 61.0565 56.8073 61.0561 58.5376 62.0621C59.9543 62.8854 59.9472 63.9442 58.5246 64.7643Z" fill="black"/>
<path d="M35.494 60.4882C33.2004 59.1561 29.6014 59.1526 27.2992 60.4813C24.6569 62.0069 24.6939 64.7528 27.2733 66.2503C29.565 67.5825 33.1663 67.5851 35.4758 66.252C38.0632 64.7573 38.1171 62.0129 35.494 60.4882ZM34.5912 64.7195C32.8436 65.7302 29.8978 65.7285 28.1622 64.7212C26.7368 63.8918 26.7608 62.8344 28.1838 62.0138C29.9276 61.007 32.8693 61.0084 34.6042 62.0173C36.0497 62.8572 35.9831 63.9171 34.5912 64.7195Z" fill="black"/>
<path d="M39.2398 59.3409C41.5454 60.6812 45.1459 60.6677 47.4432 59.3426C50.0249 57.8513 50.0894 55.1051 47.4605 53.5788C45.1669 52.2458 41.568 52.245 39.2657 53.5728C36.6441 55.0861 36.6289 57.8236 39.2398 59.3409ZM40.1503 55.1053C41.8949 54.0973 44.8337 54.099 46.5716 55.1079C47.9886 55.9324 47.9796 56.9899 46.5586 57.8101C44.8092 58.8208 41.8643 58.8191 40.1287 57.8118C38.7032 56.9827 38.719 55.9293 40.1503 55.1053Z" fill="black"/>
</svg>
