<svg width="93" height="92" viewBox="0 0 93 92" fill="none" xmlns="http://www.w3.org/2000/svg">
<path d="M12.7002 51.2498C12.702 51.737 13.0976 52.1318 13.5848 52.1318C14.0358 52.1292 14.4712 51.7344 14.4695 51.2446L14.4366 39.0166L21.3932 43.0594C21.422 55.4922 21.4438 61.9904 21.5075 85.9243L14.5507 81.8813L14.5109 67.0208C14.5092 66.5336 14.1135 66.1388 13.6263 66.1388C13.6255 66.1388 13.6246 66.1388 13.6237 66.1388C13.1356 66.1405 12.74 66.5371 12.7417 67.026L12.7832 82.3936C12.784 82.7081 12.9516 82.9983 13.2229 83.1556L21.9515 88.2283C21.9523 88.2287 21.9532 88.2285 21.9539 88.2289C21.9535 88.2287 21.9544 88.2291 21.9539 88.2289C22.2243 88.3863 22.5641 88.3882 22.8388 88.23L79.8947 55.2884C80.1694 55.1295 80.3379 54.8366 80.337 54.5196C80.2953 38.9218 80.2586 25.2001 80.2169 9.60549C80.2164 9.42362 80.1064 9.03348 79.7738 8.84095C79.7727 8.8403 79.7714 8.84074 79.7703 8.84009L71.0477 3.77169C70.773 3.61101 70.4343 3.61274 70.1614 3.76996C39.3346 21.5671 71.2766 3.12596 13.1054 36.7107C12.8289 36.8708 12.6639 37.1654 12.6631 37.4761C12.6631 37.4767 12.6635 37.4771 12.6635 37.4778C12.6635 37.4784 12.6631 37.4789 12.6631 37.4795L12.7002 51.2498ZM35.98 25.5471L42.9399 29.5921L40.6214 30.9274L33.6643 26.8841L35.98 25.5471ZM57.2793 40.8776C57.2691 40.0432 57.1135 39.3094 56.8438 38.68L78.492 26.1685C78.4923 26.3466 78.4964 28.5178 78.4961 28.3396L57.2793 40.8776ZM47.0129 50.1856C47.6176 48.8785 47.935 47.3996 47.9319 46.3481C47.9292 45.267 47.5731 43.9537 46.7899 43.2027C48.7013 41.0257 53.1335 36.5995 54.9386 38.8724C55.7567 39.9074 55.5652 41.67 55.2152 42.9478C54.1627 46.7884 51.3472 49.6975 47.0129 50.1856ZM43.8181 74.052L41.6213 75.327L41.5779 57.0063L42.0913 55.1556C42.9166 54.8704 43.2699 54.6035 43.6044 54.3724L43.7724 54.7752L43.8181 74.052ZM23.2158 63.0477L28.8151 59.7426C29.8053 61.2568 31.9032 61.9201 34.3608 60.5573L31.1243 72.2015C31.0171 72.5885 31.1839 72.9998 31.5311 73.2028C31.8808 73.4047 32.3198 73.3476 32.6032 73.0628L34.8709 70.7899L35.8004 72.2836C35.9862 72.5816 36.3283 72.7432 36.6773 72.6922C37.0246 72.6421 37.3096 72.3907 37.4038 72.0529L39.8233 63.3312L39.8543 76.3627L23.277 85.9337C23.2623 80.4319 23.2304 68.5055 23.2158 63.0477ZM30.4806 53.6839C30.4857 53.6722 30.5001 53.6676 30.5048 53.6557C31.8669 50.2132 34.5582 48.0282 38.2974 47.5954C37.7884 48.6967 37.3752 50.2061 37.3788 51.4243C37.3816 52.5204 37.7366 53.8138 38.524 54.5668C37.4204 55.826 36.1516 57.0286 35.3132 57.7237C30.5601 61.6635 28.6207 58.3123 30.4806 53.6839ZM28.1615 58.0741L23.2104 60.9971C23.2103 60.8189 23.2075 57.9013 23.2076 58.0866L28.2028 55.205C28.0192 56.2123 27.9679 57.0729 28.1615 58.0741ZM36.6566 58.9064C37.6959 58.0242 39.0247 56.6892 39.8054 55.8016L39.8077 56.767L36.2376 69.6375L35.7832 68.9075C35.4818 68.4236 34.8072 68.3471 34.4061 68.7503L33.7323 69.4259L36.6566 58.9064ZM39.148 51.4191C39.1414 48.9126 40.9801 45.8207 43.083 44.6065C45.3651 43.2875 46.523 44.7941 46.0698 47.3877C45.6446 49.8226 43.8985 52.2 42.2277 53.1667C40.5007 54.1612 39.1548 53.619 39.148 51.4191ZM43.7462 42.4777C42.7661 42.6946 42.1751 43.0562 41.5496 43.5136L41.5211 32.4602L43.7171 31.1924L43.7462 42.4777ZM39.7541 33.4804L39.7847 45.1983C39.6309 45.3823 39.4884 45.568 39.3553 45.7564C34.8619 45.846 30.9554 48.0919 28.9517 52.7303L23.1973 56.0502L23.1627 43.0595L39.7541 33.4804ZM45.5364 52.5533C45.5975 52.4777 45.9171 52.0657 45.945 52.0264C46.695 52.0386 47.8799 51.9057 48.9617 51.6256L52.1797 59.3452L50.2506 59.6381C49.9292 59.6865 49.6606 59.9068 49.5509 60.2117L48.8105 62.2626L45.5408 54.4203L45.5364 52.5533ZM78.452 11.138L78.4866 24.1284L55.8071 37.2359C55.6139 37.0765 55.1641 36.8175 55.341 36.9181C52.1547 35.1076 47.9391 39.2403 45.5139 41.9691L45.4833 30.1726C52.897 25.8922 67.5971 17.4051 78.452 11.138ZM45.5847 73.0543L45.5517 59.0438L48.0529 65.0443C48.1902 65.3743 48.5125 65.5885 48.8693 65.5885C48.8762 65.5885 48.8831 65.5885 48.8909 65.5885C49.2554 65.579 49.5776 65.3475 49.7012 65.0045L51.0359 61.308L53.5645 60.9244C53.834 60.8838 54.0698 60.7214 54.2029 60.4838C54.3368 60.2471 54.3532 59.9612 54.2486 59.7098L50.6427 51.0601C53.8308 49.7266 56.237 46.3568 57.02 43.0861L78.5032 30.3906L78.5661 54.0125L45.5847 73.0543ZM70.6019 5.55822L77.5674 9.60549L44.7111 28.5752L37.7461 24.5274L70.6019 5.55822ZM31.8981 27.9039L38.863 31.9516L22.2777 41.5272C22.0005 41.3662 15.1335 37.3754 15.3126 37.4795L31.8981 27.9039Z" fill="black"/>
<path d="M13.6144 62.1572C14.1025 62.1555 14.4982 61.759 14.4964 61.27L14.4826 56.1109C14.4809 55.6237 14.0852 55.2289 13.598 55.2289H13.5954C13.1073 55.2306 12.7117 55.6271 12.7134 56.1161L12.7272 61.2752C12.7289 61.7624 13.1246 62.1572 13.6118 62.1572H13.6144Z" fill="black"/>
</svg>
