<svg width="93" height="92" viewBox="0 0 93 92" fill="none" xmlns="http://www.w3.org/2000/svg">
<path d="M47.1332 13.6923L50.974 11.4748C51.3973 11.2303 51.5425 10.6895 51.2971 10.2662C51.0535 9.84116 50.5093 9.69862 50.0894 9.94223L46.2486 12.1598C45.8253 12.4043 45.6802 12.9451 45.9255 13.3684C46.1663 13.7898 46.7075 13.9368 47.1332 13.6923Z" fill="black"/>
<path d="M17.1115 76.8292C17.8475 78.0447 18.8634 79.0356 20.1351 79.7742L31.4295 86.3371C31.4399 86.3431 31.4521 86.3404 31.4628 86.3461C34.9639 88.363 40.9687 88.3105 44.3151 87.0869C47.6894 85.8602 51.5959 86.5133 52.0296 86.5911C52.4132 86.6628 52.8054 86.4667 52.9781 86.1151C54.934 82.1905 61.458 76.729 61.7034 76.5217C69.9811 70.2145 74.8879 59.2285 75.4253 57.9836C80.1351 46.5985 76.322 37.7308 75.503 36.0548C75.3872 35.8285 75.2818 35.5935 75.1955 35.3404C73.0375 28.9779 76.8213 18.2416 77.2619 17.0321C77.3724 16.7272 77.3085 16.3868 77.0943 16.1441L72.4829 10.9167C72.4249 10.8508 72.3552 10.8021 72.284 10.7577C71.9741 10.5643 60.7828 4.06588 60.969 4.17412C60.6978 4.01517 60.3574 4.01517 60.0827 4.17239L54.2221 7.55622C53.7988 7.8007 53.6537 8.34149 53.899 8.76479C54.1409 9.18809 54.6834 9.33063 55.1067 9.08875L60.5233 5.96063L70.0536 11.499C67.1447 13.1785 36.4335 30.9104 31.7883 33.5924L22.2585 28.0544L42.0811 16.6088C42.5044 16.3644 42.6495 15.8236 42.4042 15.4003C42.1606 14.9744 41.6181 14.8327 41.1965 15.0763L20.0504 27.2856C19.9524 27.3421 19.7144 27.6211 19.6772 27.7097C19.2303 28.7781 21.2982 23.8405 15.3073 38.1583C15.1228 38.6626 15.5963 39.2612 15.4977 39.075C18.3572 42.0243 18.022 49.2143 17.5676 53.2392C16.9666 58.5953 13.1303 70.2809 17.1115 76.8292ZM73.5195 35.9088C73.6336 36.2466 73.7735 36.5593 73.9204 36.8461C74.6737 38.3882 78.2104 46.6236 73.796 57.2951C73.2828 58.4829 68.5505 69.0793 60.601 75.1386C59.9117 75.7139 54.0459 80.6666 51.703 84.7527C50.2655 84.5653 46.8083 84.294 43.7087 85.4248C40.7191 86.518 35.2024 86.5932 32.1051 84.647C27.7616 81.9055 28.0966 74.9414 28.8347 69.8345C29.5774 64.697 30.453 63.6969 30.8437 57.3372C31.08 53.4731 30.9096 47.8757 28.4562 44.8529C28.5321 44.6718 32.7455 34.6185 32.4886 35.2316C42.3358 29.5461 61.5994 18.4239 71.6346 12.6299L75.4218 16.9233C74.4111 19.8216 71.3616 29.5463 73.5195 35.9088ZM20.9195 29.3226L30.671 34.9897L26.9995 43.752L17.248 38.0841L20.9195 29.3226ZM19.3265 53.437C19.7757 49.4623 19.9105 44.5243 18.5956 40.9142L26.8454 45.7082C29.0931 48.11 29.2553 53.1621 29.1141 56.4474C28.8391 62.8447 27.8999 64.1892 27.1306 69.2388C26.528 73.1878 26.2258 78.4909 27.7839 82.1732L21.0231 78.2451C20.0124 77.6568 19.2055 76.8724 18.6233 75.9118C15.0681 70.0623 18.7778 58.2991 19.3265 53.437Z" fill="black"/>
<path d="M68.5695 39.4137C67.0836 35.0329 69.7133 27.5811 70.0191 26.7414C70.1297 26.4364 70.0657 26.0961 69.8515 25.8533L66.6154 22.1853C66.3372 21.8673 65.8724 21.7931 65.5096 22.0038L37.4162 38.2224C37.2486 38.3191 37.1173 38.4686 37.043 38.6465L33.9831 45.9498C33.8466 46.2763 33.9174 46.6539 34.1645 46.9078C35.5951 48.3833 36.0858 51.8371 35.545 56.6326C35.1133 60.4387 32.4049 68.6602 35.2599 73.3556C39.1822 79.8276 47.0479 74.7988 52.0175 75.7218C52.3993 75.7952 52.7915 75.5974 52.966 75.2458C54.0321 73.1085 57.2872 70.0521 59.0132 68.606C64.8617 64.1509 68.3432 56.3769 68.7267 55.4888C72.0734 47.3959 69.3573 41.0775 68.7699 39.8776C68.6939 39.7298 68.6248 39.5761 68.5695 39.4137ZM67.0974 54.8011C66.7381 55.6296 63.4311 63.0158 57.9075 67.2255C57.1248 67.8812 53.3582 71.1086 51.6944 73.8886C46.6681 73.3146 39.8102 77.4505 36.7717 72.4373C34.3406 68.4359 36.9051 60.3225 37.3039 56.8321C37.703 53.2859 37.7444 48.6563 35.8249 46.1321L38.5599 39.6054L65.7671 23.8983L68.1807 26.6334C67.4188 28.8518 65.3869 35.5409 66.8953 39.9847C66.9799 40.2326 67.0836 40.4641 67.189 40.6697C67.7091 41.7349 70.1487 47.421 67.0974 54.8011Z" fill="black"/>
<path d="M51.7237 38.9178C46.219 42.0969 41.7562 49.8027 41.7735 56.0961C41.7911 62.6857 46.6886 65.7063 52.6705 62.2547C58.2114 59.0558 62.5378 51.5357 62.5188 45.1352C62.5009 38.4172 57.5437 35.555 51.7237 38.9178ZM51.7859 60.7222C47.0872 63.4359 43.5571 61.4266 43.5427 56.0909C43.5254 50.3625 47.5926 43.3461 52.6083 40.4503C57.2728 37.7585 60.7353 39.8236 60.7495 45.1404C60.7668 50.8688 56.7446 57.8593 51.7859 60.7222Z" fill="black"/>
<path d="M56.7204 45.5913C56.2919 45.3511 55.7563 45.4971 55.5127 45.9222L51.1242 53.6237L48.4565 52.0678C48.0349 51.8242 47.4924 51.9642 47.247 52.3866C47 52.809 47.1434 53.3507 47.565 53.5969L51.0049 55.602C51.4217 55.8447 51.9695 55.7112 52.2196 55.2754L57.0504 46.7981C57.2923 46.374 57.1437 45.8332 56.7204 45.5913Z" fill="black"/>
</svg>
