<svg width="93" height="92" viewBox="0 0 93 92" fill="none" xmlns="http://www.w3.org/2000/svg">
<rect x="0.5" width="92" height="92" rx="46" fill="white"/>
<path d="M29.4174 59.2129C29.4185 59.5258 29.6717 59.7778 29.9835 59.7778C29.984 59.7778 29.9846 59.7778 29.9851 59.7778C30.2974 59.7767 30.5506 59.5225 30.5495 59.2107L30.5157 47.2634L35.4936 50.1557L35.5493 69.7841L30.5711 66.8909L30.5639 64.1281C30.5628 63.8153 30.3096 63.5632 29.9978 63.5632C29.9973 63.5632 29.9967 63.5632 29.9962 63.5632C29.6839 63.5643 29.4307 63.8186 29.4318 64.1304L29.4401 67.2181C29.4406 67.4193 29.5479 67.6051 29.7214 67.7068C29.836 67.7734 35.9511 71.3263 35.8365 71.2597C35.8363 71.2597 35.8366 71.2598 35.8365 71.2597C35.9498 71.3242 36.1941 71.3778 36.4022 71.26L40.5877 68.8463C41.0203 69.485 41.5586 70.0075 42.2052 70.3844C43.1415 70.9162 45.014 71.9797 45.9503 72.5115C48.0604 73.7273 50.5935 73.1135 52.7013 71.8957C57.5661 69.0876 61.5184 62.3269 61.6538 56.682L63.3681 55.6929C63.5439 55.5922 63.6516 55.4043 63.6511 55.202C63.557 22.7019 63.558 23.0725 63.5577 22.9434C63.557 22.7362 63.443 22.5519 63.2741 22.4542C63.2734 22.4538 63.2726 22.454 63.2719 22.4536L57.1638 18.9043C56.9885 18.8026 56.7719 18.8026 56.5966 18.9032L29.6319 34.4714C29.4555 34.5735 29.3494 34.7615 29.3489 34.9612C29.3489 34.9616 29.3492 34.9619 29.3492 34.9623C29.3492 34.9627 29.3489 34.963 29.3489 34.9634L29.4174 59.2129ZM62.4284 23.924L62.4566 33.9352C41.7346 45.8939 48.4562 42.0148 47.0641 42.8183L47.0635 42.8167L46.2371 40.7586C46.1763 40.6066 46.052 40.4883 45.8966 40.4347C45.7435 40.3816 45.5711 40.3971 45.429 40.4795L42.3186 42.2752L40.4214 43.3699C40.2832 43.4495 40.1854 43.5844 40.1511 43.7403L39.3889 47.253C39.2756 47.3184 36.4452 48.952 36.6218 48.85C36.6213 48.6748 36.5917 38.197 36.5935 38.8396C42.8203 35.2446 56.2934 27.466 62.4284 23.924ZM30.4837 35.9469L35.4612 38.8395L35.4896 48.844L30.512 45.952L30.4837 35.9469ZM42.7702 69.4038C41.5934 68.717 40.9436 67.4248 40.6758 66.0729C39.6039 60.6123 43.6909 52.7551 48.9159 49.7373C49.7638 49.247 50.8289 48.8111 51.8109 48.6763C52.7505 48.5459 53.713 48.6557 54.542 49.1403L55.4539 49.6572C54.6524 49.7614 53.9059 50.0125 53.2416 50.3003C53.1261 50.3502 52.77 50.4789 52.0783 50.8782C49.4378 52.4018 47.0703 55.0906 45.4279 58.1284C43.9817 60.8016 43.0948 63.7444 43.1007 66.4133C43.1064 67.7899 43.3702 69.0551 43.764 69.9687L42.7702 69.4038ZM52.1352 70.9162C47.6686 73.4934 44.2503 71.4821 44.2367 66.4111C44.2285 63.6077 45.2706 60.4809 46.9294 57.7504C48.5401 55.1006 50.9468 52.4879 53.7843 51.2992C55.9057 50.4107 58.1034 50.4804 59.4498 52.3522C60.2667 53.4873 60.5313 54.9506 60.5351 56.3495C60.5506 61.6982 56.7824 68.2319 52.1352 70.9162ZM61.6274 55.391C61.6253 55.3674 61.6206 55.346 61.6183 55.3225C61.6143 55.2789 61.6063 55.2386 61.6017 55.1954C61.4725 53.9911 61.1258 52.7842 60.4443 51.7889C59.9603 51.0823 59.352 50.5502 58.7613 50.2304L55.1113 48.1531C52.9962 46.9227 50.4542 47.5355 48.346 48.7589C42.8538 51.9293 38.3743 60.2789 39.5644 66.3046C39.6851 66.916 39.8901 67.5264 40.0334 67.8582L36.6825 69.7907L36.63 50.1522C36.8673 50.0153 40.3827 47.9862 40.1721 48.1077C40.172 48.1078 40.1723 48.1077 40.1721 48.1077L40.1777 48.1044C40.3159 48.0248 40.4143 47.891 40.448 47.7352L41.2097 44.2229L43.3917 42.9631L45.4273 41.7884L45.9986 43.2022L46.2582 43.8486C46.319 44.0006 46.4433 44.1189 46.5987 44.1725C46.7529 44.2251 46.9237 44.2096 47.0663 44.1278C48.6411 43.2187 41.3624 47.4205 62.4654 35.2381L62.5179 54.877L61.6274 55.391ZM56.8785 20.0474L61.8623 22.9434L36.0272 37.8591L31.0442 34.9634L56.8785 20.0474Z" fill="black"/>
<path d="M29.9945 63.0668C30.3074 63.0657 30.56 62.8115 30.5589 62.4986L30.5544 60.9895C30.5533 60.6778 30.3002 60.4257 29.9884 60.4257H29.9867C29.6739 60.4268 29.4213 60.6811 29.4224 60.9928L29.4268 62.5019C29.4279 62.8148 29.6811 63.0668 29.9928 63.0668H29.9945Z" fill="black"/>
<path d="M54.1103 35.797C55.1047 35.2226 55.8814 33.8772 55.878 32.7335C55.8746 31.3512 54.7356 30.6992 53.5343 31.3919C52.5365 31.9696 51.7566 33.3167 51.7599 34.4598C51.7634 35.8312 52.907 36.4907 54.1103 35.797ZM54.1003 32.3726C54.5386 32.1178 54.7448 32.2285 54.746 32.7363C54.7482 33.4737 54.1866 34.446 53.5442 34.8164C53.1097 35.067 52.8932 34.9652 52.892 34.4565C52.8898 33.7197 53.4541 32.7462 54.1003 32.3726Z" fill="black"/>
<path d="M48.5825 38.9865C49.5775 38.4121 50.3541 37.0661 50.3508 35.9224C50.3473 34.5379 49.2053 33.8912 48.0071 34.582C47.0088 35.1585 46.2294 36.5056 46.2327 37.6499C46.2362 39.0246 47.3832 39.68 48.5825 38.9865ZM48.5731 35.5626C48.9924 35.3198 49.2175 35.3964 49.2187 35.9258C49.221 36.6632 48.6593 37.6349 48.0159 38.0064C47.5911 38.2521 47.366 38.1654 47.3648 37.6465C47.3625 36.9091 47.9275 35.9352 48.5731 35.5626Z" fill="black"/>
<path d="M59.6313 32.6075C60.6296 32.0315 61.409 30.6838 61.4057 29.5401C61.4022 28.1627 60.2599 27.5074 59.0559 28.203C58.0576 28.7795 57.2782 30.1266 57.2815 31.2703C57.285 32.6483 58.4338 33.3 59.6313 32.6075ZM59.6219 29.1836C60.0604 28.9299 60.2726 29.0353 60.2737 29.5435C60.2759 30.2809 59.7109 31.2543 59.0653 31.6269C58.6443 31.87 58.4148 31.7917 58.4136 31.2676C58.4114 30.5302 58.9763 29.5562 59.6219 29.1836Z" fill="black"/>
<path d="M55.1019 60.0553C55.0928 60.0501 55.082 60.0491 55.0728 60.0441C55.6475 59.2223 55.8721 58.429 55.8697 57.7514C55.866 56.5705 55.0806 55.7826 53.9378 56.0678L53.9333 55.4905C53.9311 55.1799 53.678 54.9289 53.3673 54.9289H53.3629C53.0506 54.9311 52.799 55.1865 52.8013 55.4994L52.8097 56.6083L51.9729 57.0915L51.9693 56.6171C51.9671 56.3064 51.714 56.0555 51.4033 56.0555H51.3989C51.0866 56.0577 50.8351 56.3131 50.8373 56.6259L50.8458 57.7425C50.7323 57.8089 49.055 58.7907 49.1684 58.7243C48.8998 58.8834 48.8108 59.2317 48.97 59.5003C49.1283 59.7672 49.4735 59.8586 49.7455 59.6993L49.8705 59.6253L49.8788 62.5019L49.8884 66.0434L49.1684 66.4697C48.8998 66.6289 48.8108 66.9771 48.97 67.2458C49.1283 67.5126 49.4735 67.604 49.7455 67.4448C49.859 67.3784 50.9581 66.7351 50.8447 66.8016L50.8483 67.2856C50.8505 67.5962 51.1037 67.8472 51.4144 67.8472H51.4188C51.7311 67.845 51.9826 67.5896 51.9804 67.2767L51.9718 66.1507L52.8086 65.6676L52.8123 66.159C52.8145 66.4697 53.0677 66.7206 53.3784 66.7206H53.3828C53.6951 66.7184 53.9466 66.463 53.9444 66.1502L53.9358 65.0151C55.0173 64.3817 55.883 62.9208 55.8807 61.6241C55.8785 60.911 55.5944 60.3383 55.1019 60.0553ZM54.7376 57.7558C54.74 58.6524 54.0685 59.753 53.3435 60.1736L51.0081 61.5223L51.0009 58.9597C51.5475 58.644 54.0328 57.2084 53.8985 57.2859C54.4238 56.9826 54.7352 57.1066 54.7376 57.7558ZM53.354 64.0463L51.0186 65.394L51.0119 62.8269L53.9096 61.1531C54.45 60.841 54.7463 60.9976 54.7487 61.6274C54.751 62.5188 54.0888 63.6223 53.354 64.0463Z" fill="black"/>
</svg>
