<svg width="93" height="92" viewBox="0 0 93 92" fill="none" xmlns="http://www.w3.org/2000/svg">
<rect x="0.5" width="92" height="92" rx="46" fill="white"/>
<path d="M38.1593 23.9107L31.8632 27.5463C31.5923 27.7027 31.4995 28.0488 31.6565 28.3196C31.8105 28.5893 32.1568 28.6833 32.4292 28.5269L38.7253 24.8913C38.9961 24.7349 39.089 24.3889 38.932 24.118C38.7761 23.8455 38.429 23.7543 38.1593 23.9107Z" fill="black"/>
<path d="M49.5242 65.4813L53.7076 63.0497C54.0324 62.8619 54.0911 62.4068 53.8071 62.1442L40.8535 50.2226C40.671 50.054 40.4002 50.0258 40.1857 50.1497L36.0012 52.5813C35.6743 52.7703 35.6194 53.2258 35.9017 53.4867L48.8565 65.4084C49.0392 65.5769 49.3097 65.606 49.5242 65.4813ZM40.3936 51.3381L52.4749 62.4571L49.3164 64.2929L37.2339 53.1739L40.3936 51.3381Z" fill="black"/>
<path d="M63.0418 55.1406L56.78 58.7795C56.5091 58.9365 56.4173 59.2831 56.5743 59.5534C56.7301 59.8214 57.0756 59.9161 57.3482 59.7579L63.61 56.119C63.8809 55.9621 63.9726 55.6155 63.8156 55.3452C63.6575 55.0737 63.3093 54.9842 63.0418 55.1406Z" fill="black"/>
<path d="M51.1483 44.497L53.282 46.4605C53.4651 46.6284 53.7353 46.6575 53.9497 46.5329L56.6429 44.9669C56.7987 44.8768 56.9015 44.7176 56.9214 44.539C56.9413 44.3605 56.8739 44.183 56.7423 44.0614L54.6098 42.0985C54.4273 41.9294 54.1554 41.9018 53.942 42.0256L51.2478 43.591C50.9223 43.7792 50.8649 44.2339 51.1483 44.497ZM54.1499 43.214L55.4102 44.3743L53.7419 45.3444L52.4805 44.1836L54.1499 43.214Z" fill="black"/>
<path d="M50.2617 44.6242C50.0792 44.4567 49.8073 44.4274 49.5939 44.5517L46.9008 46.1177C46.7449 46.2078 46.6421 46.367 46.6222 46.5456C46.6023 46.7241 46.6697 46.9016 46.8013 47.0232L48.9339 48.9861C49.1166 49.1546 49.3871 49.1837 49.6016 49.059L52.2959 47.4936C52.6214 47.3054 52.6788 46.8508 52.3954 46.5876L50.2617 44.6242ZM49.3938 47.8706L48.1335 46.7103L49.8017 45.7402L51.0632 46.901L49.3938 47.8706Z" fill="black"/>
<path d="M45.2469 47.0785L42.5527 48.6439C42.3968 48.734 42.294 48.8927 42.2741 49.0718C42.2542 49.2503 42.3216 49.4277 42.4532 49.5499L44.5869 51.5133C44.7699 51.6813 45.0402 51.7104 45.2546 51.5858L47.9488 50.0198C48.2743 49.8316 48.3317 49.3769 48.0483 49.1138L45.9146 47.1509C45.7311 46.9834 45.4602 46.9535 45.2469 47.0785ZM45.0468 50.3973L43.7853 49.2365L45.4547 48.2664L46.7161 49.4272L45.0468 50.3973Z" fill="black"/>
<path d="M54.9845 48.0265L57.1171 49.9899C57.2998 50.1585 57.5703 50.1876 57.7848 50.0629L60.479 48.4969C60.6349 48.4068 60.7377 48.2476 60.7576 48.069C60.7775 47.8905 60.7101 47.713 60.5785 47.5909L58.4448 45.628C58.2624 45.4605 57.9916 45.4312 57.7771 45.5556L55.084 47.121C54.757 47.31 54.7022 47.7655 54.9845 48.0265ZM57.9849 46.744L59.2464 47.9043L57.577 48.8744L56.3167 47.7136L57.9849 46.744Z" fill="black"/>
<path d="M54.0978 48.1542C53.9143 47.9856 53.6446 47.9568 53.4301 48.0817L50.7359 49.6477C50.58 49.7378 50.4772 49.897 50.4573 50.0756C50.4374 50.2541 50.5048 50.4316 50.6364 50.5537L52.7701 52.5166C52.9532 52.6846 53.2234 52.7137 53.4378 52.589L56.132 51.0236C56.4575 50.8354 56.5149 50.3808 56.2315 50.1176L54.0978 48.1542ZM53.23 51.4011L51.9686 50.2403L53.6379 49.2702L54.8994 50.431L53.23 51.4011Z" fill="black"/>
<path d="M48.422 55.0428C48.6047 55.2114 48.8753 55.2404 49.0898 55.1158L51.784 53.5498C52.1088 53.362 52.1675 52.9068 51.8835 52.6443L49.7509 50.6814C49.5685 50.5128 49.2976 50.4846 49.0831 50.6085L46.3889 52.1739C46.062 52.3629 46.0071 52.8184 46.2894 53.0793L48.422 55.0428ZM49.291 51.7969L50.5513 52.9572L48.8819 53.9273L47.6216 52.767L49.291 51.7969Z" fill="black"/>
<path d="M58.8197 51.557L60.9534 53.5205C61.1365 53.6884 61.4067 53.7175 61.6211 53.5929L64.3153 52.0274C64.6408 51.8393 64.6982 51.3846 64.4148 51.1214L62.2811 49.158C62.0987 48.9899 61.8279 48.9607 61.6134 49.0856L58.9192 50.651C58.5937 50.8392 58.5363 51.2939 58.8197 51.557ZM61.8212 50.274L63.0827 51.4349L61.4133 52.4044L60.1519 51.2436L61.8212 50.274Z" fill="black"/>
<path d="M54.4727 54.0832L56.6053 56.0461C56.7879 56.2146 57.0585 56.2437 57.273 56.119L59.9672 54.5536C60.2942 54.3646 60.349 53.9091 60.0667 53.6481L57.9341 51.6847C57.7517 51.5161 57.4808 51.4879 57.2664 51.6117L54.5722 53.1777C54.2474 53.3655 54.1887 53.8207 54.4727 54.0832ZM57.4742 52.8002L58.7345 53.9605L57.0652 54.9306L55.8048 53.7703L57.4742 52.8002Z" fill="black"/>
<path d="M53.586 54.2109C53.4035 54.0434 53.1327 54.0141 52.9182 54.1385L50.224 55.7039C49.8985 55.8921 49.8411 56.3467 50.1245 56.6099L52.2582 58.5733C52.4413 58.7413 52.7115 58.7704 52.9259 58.6458L55.6202 57.0803C55.9457 56.8922 56.0031 56.4375 55.7197 56.1743L53.586 54.2109ZM52.7181 57.4573L51.4567 56.2965L53.126 55.3269L54.3875 56.4877L52.7181 57.4573Z" fill="black"/>
<path d="M52.4982 40.1904C52.5181 40.0118 52.4506 39.8344 52.3191 39.7128L44.3669 32.3946C44.1845 32.2255 43.9136 32.1973 43.6992 32.3217L25.5915 42.8448C25.4356 42.9349 25.3328 43.0935 25.3129 43.2726C25.293 43.4512 25.3604 43.6286 25.492 43.7502L33.4441 51.0684C33.6268 51.2369 33.8974 51.266 34.1119 51.1413L52.2196 40.6182C52.3755 40.5281 52.4783 40.3695 52.4982 40.1904ZM33.9041 49.9529L26.8242 43.4374L43.907 33.5101L50.9869 40.0257L33.9041 49.9529Z" fill="black"/>
<path d="M73.3398 58.5523L73.3509 54.7581C73.3512 54.6917 73.2716 54.4355 73.1685 54.3402L44.8191 28.2505C44.6366 28.0819 44.3658 28.0537 44.1513 28.1776L37.5664 32.0044L37.5587 29.061L40.9618 27.0963C41.1376 26.9946 41.2459 26.8072 41.2448 26.6044L41.2238 19.3946C41.2227 19.1928 41.1155 19.0065 40.9397 18.9054C40.765 18.8048 40.5494 18.8053 40.3748 18.9059L29.6344 25.1069C29.4587 25.2086 29.3503 25.396 29.3514 25.5989L29.3713 32.8087C29.3737 33.2446 29.8448 33.5136 30.2204 33.2973L33.7026 31.287L33.7187 34.2405L19.9698 42.2307C19.8271 42.3131 19.7117 42.4741 19.6912 42.6585C19.6785 42.7718 19.6812 45.5713 19.6492 56.2191C19.6481 56.422 19.7564 56.6093 19.9322 56.7111L24.1587 59.1504C24.4306 59.3069 24.7767 59.2146 24.9315 58.9431C25.0884 58.6723 24.9956 58.3263 24.7247 58.1698L20.7824 55.8946L20.8166 44.0071C25.2722 48.1076 41.096 62.6709 48.0351 69.0572C48.0348 69.1735 48.0275 71.7885 48.028 71.6245L31.0031 61.7949C30.7333 61.6396 30.3862 61.7308 30.2303 62.0022C30.0733 62.273 30.1662 62.6191 30.4371 62.7755L48.3082 73.0941C48.4828 73.1947 48.6984 73.1953 48.8731 73.0946L48.8745 73.0932C86.2274 51.3869 67.6676 62.1723 73.0579 59.0399C73.2326 58.9393 73.3387 58.7535 73.3398 58.5523ZM30.4846 25.9234L40.0951 20.3752L40.1117 26.2799L30.5012 31.8281L30.4846 25.9234ZM34.8316 30.6402L36.428 29.7192L36.4357 32.6615L34.8471 33.5848L34.8316 30.6402ZM44.3592 29.366L71.8363 54.6531L48.6785 68.1103L21.2025 42.8232C40.5807 31.5618 36.3998 33.9915 44.3592 29.366ZM49.1605 71.6187C49.1608 71.5025 49.1677 68.9801 49.1673 69.1356C54.458 66.061 66.597 59.0067 72.2155 55.7416L72.2089 58.2245L49.1605 71.6187Z" fill="black"/>
<path d="M28.7909 60.518L26.4306 59.1554C26.1597 59.0012 25.8137 59.0924 25.6578 59.3627C25.5008 59.6336 25.5937 59.9796 25.8645 60.136L28.2249 61.4986C28.3144 61.55 28.4117 61.5743 28.5079 61.5743C28.7025 61.5743 28.8937 61.4726 28.9976 61.2913C29.1546 61.0205 29.0618 60.6744 28.7909 60.518Z" fill="black"/>
</svg>
