<svg width="93" height="92" viewBox="0 0 93 92" fill="none" xmlns="http://www.w3.org/2000/svg">
<rect x="0.5" width="92" height="92" rx="46" fill="white"/>
<path d="M22.0365 63.9578C22.2452 64.0791 30.5529 68.9057 30.4336 68.8371C32.4559 69.9988 34.8861 69.4067 36.9083 68.2385C37.0215 68.173 39.0273 67.0136 38.8993 67.0876C39.5611 66.7054 38.9692 65.7337 38.33 66.1064C38.2168 66.1719 36.2131 67.3308 36.3411 67.2567C34.3503 68.4058 32.511 68.6321 31.1288 67.9161C28.3577 66.4699 28.5285 62.1617 29.4411 59.088C30.7919 54.5476 34.6722 49.2347 39.0453 48.195C39.435 48.1021 39.5233 47.5672 39.4781 47.6958C40.4096 37.5287 49.1458 28.741 55.0762 28.602C57.205 28.4739 59.0025 29.6309 59.9621 31.451C60.146 31.7999 60.5632 31.8144 60.8053 31.6286C68.47 25.6729 72.5209 29.2977 72.5377 35.0954C72.5554 41.2964 68.1785 48.876 62.7813 51.992L43.6592 63.0319C43.3884 63.1884 43.2955 63.5344 43.452 63.8052C43.6078 64.0761 43.9544 64.1673 44.2253 64.0125L63.3473 52.9726C69.058 49.6759 73.6885 41.6546 73.6697 35.0921C73.6605 31.8561 72.5404 29.4199 70.5206 28.2073C70.3938 28.1083 67.8445 26.6463 62.0837 23.291C59.9942 22.0793 57.2453 22.3275 54.3366 23.9936C53.804 24.3052 53.3059 24.6471 52.834 25.0033L50.1267 23.4341C47.7857 22.0694 44.7233 22.3452 41.5056 24.2119C35.6933 27.5654 30.8161 35.3077 30.0252 42.3517C29.3212 42.5559 28.6129 42.8401 27.9136 43.2438C23.1653 45.985 19.3146 52.6592 19.3301 58.1216C19.3384 60.8756 20.2997 62.9484 22.0365 63.9578ZM54.9037 24.9736C57.4426 23.5198 59.7891 23.27 61.5154 24.2699L66.9494 27.4279C64.6649 27.6155 62.3839 28.8689 60.61 30.3167C60.1259 29.5736 59.375 28.812 58.5407 28.321C58.5283 28.3125 58.521 28.2996 58.5078 28.2919C58.5072 28.2913 58.5061 28.2908 58.5056 28.2902L53.8962 25.6188C54.2184 25.3931 54.5557 25.1768 54.9037 24.9736ZM42.0728 25.192C44.9256 23.537 47.5817 23.2611 49.5579 24.4131C49.6725 24.4796 55.1515 27.6592 54.8112 27.4617C54.7804 27.4634 54.748 27.4716 54.7172 27.4737C46.8171 27.9899 39.5715 38.6312 38.4487 46.7196C38.3344 46.6531 30.6541 42.1852 31.1417 42.4688C31.8968 35.7549 36.5451 28.3809 42.0728 25.192ZM28.4796 44.2244C29.1385 43.8436 29.8024 43.5617 30.4558 43.3842C30.569 43.4501 38.0054 47.7736 37.5315 47.4981C37.503 47.5097 37.4748 47.5279 37.4464 47.5399C33.1403 49.3428 29.6125 54.4401 28.3125 58.9621C27.6401 61.2963 27.3764 64.041 28.2872 66.2811L22.6053 62.9794C21.23 62.1801 20.4688 60.4538 20.4622 58.1183C20.4478 53.0174 24.0442 46.7849 28.4796 44.2244Z" fill="black"/>
<path d="M40.8988 65.9334L42.1392 65.217C42.41 65.0606 42.5029 64.7145 42.3465 64.4437C42.1895 64.1717 41.8429 64.08 41.5731 64.2364L40.3327 64.9528C40.0619 65.1092 39.969 65.4553 40.1254 65.7261C40.2823 65.9977 40.6294 66.089 40.8988 65.9334Z" fill="black"/>
<path d="M45.5259 55.3274C45.6315 55.5065 45.82 55.6054 46.0135 55.6054C46.1113 55.6054 46.2108 55.58 46.3009 55.5264L47.8561 54.6062C47.8667 54.6009 47.8793 54.6031 47.8896 54.5972L48.5597 54.2102L48.57 55.5612C48.5722 55.8724 48.8254 56.1228 49.1361 56.1228H49.1405C49.4528 56.1206 49.7043 55.8652 49.7021 55.5524L49.6869 53.5595L50.8399 52.8938L50.8502 54.2445C50.8524 54.5557 51.1056 54.8061 51.4162 54.8061H51.4207C51.733 54.8039 51.9845 54.5485 51.9823 54.2357L51.9671 52.243L52.9668 51.6658C54.5981 50.7223 55.9309 48.4864 55.9263 46.53C55.9234 45.4335 55.4899 44.47 54.4376 44.1589C55.3099 43.0698 55.9134 41.7028 55.9086 40.3517C55.9029 38.2181 54.2304 37.2572 52.3659 38.3352L51.9748 38.561L51.9646 37.2252C51.9624 36.914 51.7092 36.6636 51.3985 36.6636H51.3941C51.0818 36.6658 50.8303 36.9212 50.8325 37.2341L50.8476 39.2117L49.6946 39.8773L49.6844 38.5419C49.6822 38.2307 49.429 37.9803 49.1184 37.9803H49.1139C48.8016 37.9825 48.5501 38.2379 48.5523 38.5508L48.5675 40.528C48.4542 40.5934 46.435 41.7762 45.7244 42.1924C45.4557 42.3516 45.3667 42.6988 45.5259 42.968C45.6858 43.2383 46.0338 43.3248 46.3014 43.1664L47.008 42.7481L47.0228 47.9297L47.0395 53.7745L45.7249 54.5524C45.4557 54.7116 45.3667 55.0587 45.5259 55.3274ZM54.7942 46.5333C54.7977 48.0739 53.6802 49.9451 52.4007 50.6852L48.1698 53.1279L48.156 48.2543L52.9491 45.487C54.046 44.8546 54.7907 45.2711 54.7942 46.5333ZM52.9319 39.3158C55.6996 37.7145 55.2051 42.8792 52.383 44.5063L48.1521 46.949L48.1383 42.083C48.2531 42.0167 53.0467 39.2496 52.9319 39.3158Z" fill="black"/>
</svg>
