<svg width="93" height="92" viewBox="0 0 93 92" fill="none" xmlns="http://www.w3.org/2000/svg">
<rect x="0.5" width="92" height="92" rx="46" fill="white"/>
<path d="M39.4654 27.0559C39.8573 26.7198 40.2575 26.4025 40.6649 26.1079C40.9181 25.9244 40.975 25.5706 40.7921 25.3175C40.6074 25.0643 40.2542 25.0074 40.0016 25.1903C39.5688 25.5037 39.1443 25.8398 38.728 26.1969C38.4909 26.4003 38.4638 26.7574 38.6672 26.9951C38.8708 27.233 39.2294 27.2589 39.4654 27.0559Z" fill="black"/>
<path d="M22.0365 63.9584C22.8944 64.457 18.9288 62.1519 30.427 68.8344C32.4448 69.9963 34.8751 69.4112 36.9066 68.2379C37.0658 68.1462 42.6421 64.9272 63.3473 52.9732C69.0574 49.6764 73.688 41.6552 73.6697 35.0921C73.6605 31.8639 72.5448 29.4321 70.5335 28.2167C68.4861 27.0235 61.6437 23.0359 62.0815 23.291C59.9881 22.0766 57.2375 22.3303 54.3349 24.0057C53.7717 24.3341 53.2859 24.6647 52.8337 25.0038L50.1267 23.4347C47.7873 22.071 44.7255 22.3469 41.5045 24.213C41.2342 24.37 41.1419 24.716 41.2989 24.9869C41.4564 25.2572 41.8019 25.3501 42.0728 25.1925C44.9245 23.5392 47.5828 23.2623 49.5579 24.4137C49.6725 24.4802 55.1481 27.6597 54.8078 27.4621C54.7787 27.4638 54.748 27.4715 54.7189 27.4734C49.3217 27.8253 44.1299 33.1699 41.2791 38.4377C39.706 41.3452 38.7823 44.3133 38.4481 46.7199C38.3338 46.6534 30.6536 42.1857 31.1412 42.4694C31.7017 37.5343 34.4816 31.9502 38.2935 28.1421C38.5146 27.9216 38.5146 27.5628 38.2935 27.3417C38.0724 27.1206 37.7142 27.1206 37.4931 27.3417C33.4458 31.3846 30.6202 37.1003 30.0313 42.3503C24.3282 43.9977 19.3126 51.9257 19.3301 58.1222C19.3379 60.8761 20.2991 62.949 22.0365 63.9584ZM72.5377 35.0954C72.5548 41.2964 68.178 48.8766 62.7813 51.9925C57.5764 54.9975 44.7348 62.412 36.3417 67.2573C31.9931 69.7684 28.849 67.7094 28.8356 62.9855C28.8182 56.8341 33.973 49.4007 39.0453 48.1956C39.3355 48.1261 39.4145 47.8748 39.4717 47.7114C39.5322 47.4325 39.6764 43.7006 42.3182 38.8624C45.0877 33.7938 51.4684 27.1227 56.9378 28.8474C58.1637 29.2342 59.2479 30.0971 59.9621 31.4521C60.1404 31.7893 60.5827 31.8377 60.8394 31.6108C62.7536 29.9076 65.478 28.3168 68.1171 28.5807C71.3026 28.9413 72.5284 31.912 72.5377 35.0954ZM54.9032 24.9847C57.4387 23.5232 59.7874 23.2694 61.5126 24.27L66.9497 27.4297C64.7148 27.6125 62.3381 28.9044 60.6094 30.3187C60.1416 29.6005 59.4112 28.8384 58.5456 28.3264C58.3688 28.2011 56.9656 27.4054 53.8985 25.6209C54.2078 25.407 54.5402 25.1964 54.9032 24.9847ZM30.4557 43.3848C30.569 43.4507 38.0051 47.7743 37.5312 47.4988C37.503 47.5103 37.475 47.5285 37.4467 47.5403C32.2287 49.7264 27.6867 57.0541 27.7035 62.9888C27.7076 64.2891 27.9586 65.4746 28.2872 66.2817L22.6053 62.98C21.23 62.1801 20.4688 60.4544 20.4622 58.1189C20.445 51.9984 25.5029 44.7287 30.4557 43.3848Z" fill="black"/>
<path d="M60.014 35.856L51.7905 41.8945C51.4613 42.1355 51.4888 42.6389 51.8452 42.8425L54.7716 44.5103L49.0935 54.3446L44.7747 51.8776C44.5038 51.7217 44.1595 51.8162 44.0036 52.086L40.0905 58.8635C39.9341 59.1343 40.0269 59.4804 40.2978 59.6368C40.5677 59.7927 40.9146 59.7006 41.0711 59.4295L44.7023 53.1401L49.0211 55.6071C49.2914 55.7619 49.6363 55.6685 49.7922 55.3987L55.7553 45.0709L58.8858 46.8551C59.236 47.0536 59.6809 46.8334 59.7283 46.4295L60.9112 36.3784C60.9377 36.1545 60.8288 35.9362 60.6337 35.8229C60.4391 35.7107 60.1954 35.7223 60.014 35.856ZM58.704 45.4483C58.3566 45.2503 52.889 42.1344 53.1636 42.2909L59.6348 37.5387L58.704 45.4483Z" fill="black"/>
</svg>
