<svg width="93" height="92" viewBox="0 0 93 92" fill="none" xmlns="http://www.w3.org/2000/svg">
<rect x="0.5" width="92" height="92" rx="46" fill="white"/>
<path d="M63.6705 24.1033C63.6496 24.0913 63.6263 24.0846 63.6053 24.0727L56.9742 20.2101C49.9325 16.1185 40.5086 21.8329 34.9673 27.9229C29.3832 33.9757 25.0794 42.339 23.7943 50.3366C23.7926 50.347 23.7909 50.3569 23.7898 50.3673C22.7602 56.814 23.6632 64.6269 29.2793 67.8971L33.9347 70.6186C36.067 72.6257 38.6811 73.132 40.6332 73.1722C40.6371 73.1722 40.6409 73.1722 40.6448 73.1722C40.9522 73.1722 41.2042 72.9263 41.2108 72.6178C41.2169 72.3055 40.9693 72.0468 40.6564 72.0402C30.0954 71.8228 29.7378 58.2275 33.2626 48.113C35.2291 42.4859 38.1529 37.5631 41.9664 33.2569C45.0822 29.7507 49.0857 26.416 53.567 24.7985C62.5388 21.5092 68.4206 27.2262 68.4481 36.89C68.4481 40.6124 67.5758 44.8339 65.8589 49.4279C62.4854 57.9826 56.2711 65.675 49.6412 69.5024C48.8778 69.9429 48.0702 70.3398 47.2399 70.6814C46.9508 70.8003 46.8132 71.1314 46.932 71.4205C47.052 71.7102 47.3814 71.8472 47.6711 71.7284C48.5472 71.3674 49.4007 70.9484 50.2072 70.483C57.0483 66.5335 63.4494 58.625 66.9158 49.8337C68.6836 45.1031 69.5802 40.7483 69.5802 36.8883C69.563 30.8266 67.4642 26.2862 63.6705 24.1033ZM56.4049 21.1885L59.1311 22.7766C59.1082 22.7755 59.0854 22.7748 59.0626 22.774C57.802 22.702 55.978 22.8659 54.2125 23.3903L48.8879 20.2838C49.8378 20.0748 50.7612 19.9636 51.6472 19.9636C53.3912 19.9636 54.9964 20.3699 56.4049 21.1885ZM47.3612 20.7031L52.8038 23.8785C50.3892 24.8004 48.3111 26.0784 46.3385 27.5907L40.6853 24.2977C42.6206 22.8731 44.6767 21.5779 47.3612 20.7031ZM33.8657 43.6509L28.106 40.2959C29.3424 37.6156 30.8671 35.0058 32.6319 32.5766L38.3762 35.9268C36.5792 38.4423 35.286 40.5737 33.8657 43.6509ZM32.0409 48.161C31.4384 49.9209 30.9412 51.9306 30.6578 53.4503L24.9666 50.1297C25.4652 47.2378 26.3781 44.2555 27.6371 41.3328L33.3887 44.683C32.8972 45.7946 32.2574 47.5238 32.0409 48.161ZM24.7904 51.337L30.4564 54.6429C30.018 57.5876 30.0432 60.197 30.3711 62.6424L25.0056 59.5146C24.4 56.7802 24.4187 54.1247 24.7904 51.337ZM35.802 28.6874C37.0229 27.3455 38.3323 26.1333 39.7066 25.0377L45.3877 28.3468C43.0293 30.2923 40.913 32.538 39.0479 35.0073L33.3064 31.6588C34.0963 30.628 34.9289 29.6338 35.802 28.6874ZM29.8497 66.9193C27.7937 65.7222 26.3018 63.7082 25.4272 61.0712L30.6158 64.096C30.9086 65.508 31.3832 66.9676 32.0863 68.2266L29.8497 66.9193Z" fill="black"/>
<path d="M43.0001 73.018C43.0272 73.018 43.0543 73.0164 43.082 73.0119C43.8448 72.9014 44.6303 72.7322 45.4158 72.51C45.7165 72.4249 45.8911 72.1126 45.806 71.8113C45.7214 71.5101 45.4086 71.3343 45.1073 71.4211C44.3694 71.6295 43.6331 71.7881 42.9194 71.892C42.6099 71.9368 42.3954 72.2242 42.4407 72.5332C42.4816 72.8151 42.7232 73.018 43.0001 73.018Z" fill="black"/>
<path d="M50.1868 64.0487C57.8189 59.6421 64.0072 48.91 63.9817 40.1254C63.9565 31.1094 57.4149 27.3339 49.5323 31.8863C41.8941 36.2958 35.7003 47.019 35.7252 55.7892C35.7505 64.8718 42.3301 68.5835 50.1868 64.0487ZM36.8572 55.7859C36.8335 47.3772 42.7736 37.0956 50.0983 32.8669C57.2093 28.7592 62.8267 31.9748 62.8497 40.1287C62.874 48.5518 56.9394 58.8427 49.6207 63.0681C42.5561 67.1445 36.8803 64.0295 36.8572 55.7859Z" fill="black"/>
<path d="M51.3221 51.0636C52.4039 50.439 53.4542 49.47 54.3602 48.261C54.5476 48.0106 54.4967 47.6563 54.2463 47.4684C53.9948 47.2815 53.641 47.3329 53.4536 47.5822C52.6394 48.6695 51.7063 49.5346 50.7561 50.083C48.2622 51.5256 46.374 50.4667 46.366 47.5856C46.3571 44.4619 48.5655 40.6411 51.2884 39.069C52.1939 38.5461 53.0578 38.3399 53.7803 38.4654C54.0893 38.5218 54.3817 38.3139 54.4359 38.0066C54.4906 37.6987 54.285 37.4052 53.9771 37.351C52.9854 37.1763 51.8611 37.4312 50.7224 38.0884C47.686 39.8412 45.224 44.1031 45.2339 47.5889C45.2442 51.3062 48.0339 52.9613 51.3221 51.0636Z" fill="black"/>
<path d="M56.0555 51.1968C55.8985 50.9254 55.5508 50.832 55.2822 50.9895L43.8586 57.5852C43.5877 57.7416 43.4949 58.0877 43.6513 58.3585C43.8081 58.6301 44.1552 58.7214 44.4246 58.5658L55.8482 51.9701C56.1191 51.8137 56.2119 51.4677 56.0555 51.1968Z" fill="black"/>
</svg>
