<svg width="93" height="92" viewBox="0 0 93 92" fill="none" xmlns="http://www.w3.org/2000/svg">
<rect x="0.5" width="92" height="92" rx="46" fill="white"/>
<path d="M64.9097 30.1138C53.9544 24.1721 37.3785 24.6492 27.3632 30.4692C22.2138 33.4613 19.3738 37.4694 19.3578 41.7598C19.3577 41.7632 19.3558 41.7661 19.3558 41.7695L19.3326 50.0943C19.3198 54.4473 22.2075 58.5163 27.4633 61.5504C32.9988 64.7463 40.2927 66.1246 46.5814 66.1246C54.0388 66.1246 60.8555 64.3318 65.6349 61.5543C70.7906 58.5588 73.6363 54.5435 73.6484 50.249C73.6514 48.1489 73.6845 42.038 73.6562 41.8435C73.6316 36.5981 69.5089 32.6375 64.9097 30.1138ZM27.9315 31.4476C37.7873 25.7244 54.0123 25.4906 64.3674 31.1077C68.6453 33.4543 72.6311 37.2032 72.5263 42.0785C72.4306 46.4984 68.8921 50.0414 65.0899 52.2512C54.1811 58.5907 35.7174 58.1651 25.8247 50.7596C22.8135 48.5061 20.4863 45.4373 20.4893 41.7906C20.4918 37.909 23.1336 34.236 27.9315 31.4476ZM41.6811 57.534V64.7402C39.134 64.4616 36.6446 63.9643 34.3022 63.2473V56.0853C36.6525 56.7795 39.1386 57.2631 41.6811 57.534ZM58.691 56.1377V63.2934C56.3538 64.0005 53.8676 64.4841 51.3242 64.7536V57.5509C53.8633 57.2913 56.3441 56.8196 58.691 56.1377ZM20.4646 50.0976L20.4751 46.3852C20.4864 46.4076 20.5011 46.4292 20.5125 46.4516C21.4849 48.3559 22.9885 49.9886 24.6712 51.3222V58.1887C21.9306 55.7908 20.4561 53.003 20.4646 50.0976ZM25.8033 59.0861V52.1589C27.3916 53.2567 28.7628 53.9595 30.5154 54.7117C31.3739 55.0803 32.2584 55.4165 33.1701 55.7186V62.8609C31.3414 62.2311 29.6038 61.4789 28.0293 60.5698C27.218 60.1016 26.491 59.6006 25.8033 59.0861ZM42.8132 64.8347V57.6285C45.2628 57.8282 47.7429 57.8342 50.1921 57.6453V64.8479C47.744 65.0439 45.2623 65.0394 42.8132 64.8347ZM65.0661 60.5759C63.4655 61.5061 61.6926 62.2726 59.8231 62.9101V55.7837C61.912 55.1017 63.8859 54.2602 65.6592 53.2296C66.1707 52.9324 66.6509 52.6218 67.1163 52.3053C67.1435 52.2867 67.1744 52.27 67.2014 52.2513V59.1491C66.5401 59.6435 65.8421 60.125 65.0661 60.5759ZM72.5163 50.2457C72.5081 53.1214 71.0433 55.8811 68.3335 58.2525V51.4123C70.0276 50.0761 71.5427 48.4583 72.5268 46.5278L72.5163 50.2457Z" fill="black"/>
<path d="M34.7101 49.0302C41.2568 52.81 51.8801 52.8161 58.3908 49.0318C65.1228 45.1209 65.1222 38.5911 58.3145 34.6609C51.7664 30.881 41.1433 30.8821 34.6327 34.6653C27.9064 38.5747 27.9069 45.1021 34.7101 49.0302ZM35.2015 35.6437C41.4287 32.026 51.5423 32.0584 57.7485 35.6415C63.7759 39.1207 63.8182 44.5681 57.8226 48.0534C51.6266 51.6525 41.5131 51.6509 35.2761 48.0496C29.241 44.5649 29.223 39.1189 35.2015 35.6437Z" fill="black"/>
<path d="M37.935 42.2167L45.8617 46.7931C46.8369 47.3559 48.3665 47.3566 49.3442 46.7887L54.4916 43.7971C55.6717 43.112 55.6719 41.8149 54.4866 41.1289L46.5599 36.553C46.2885 36.3966 45.9436 36.4895 45.7866 36.7603C45.6301 37.0312 45.723 37.3772 45.9939 37.5336L53.9206 42.1095C54.1588 42.2471 54.2434 42.387 54.244 42.4644C54.244 42.5417 54.16 42.681 53.9228 42.8187L48.7749 45.8103C48.1508 46.1729 47.0541 46.174 46.4278 45.8125L38.501 41.2361C38.2307 41.0797 37.8842 41.1725 37.7277 41.4434C37.5713 41.7142 37.6642 42.0603 37.935 42.2167Z" fill="black"/>
<path d="M40.2898 38.4822L44.5737 40.9719C44.8448 41.1291 45.1909 41.0372 45.3476 40.7673C45.5052 40.497 45.4129 40.1505 45.1431 39.9935L40.8591 37.5038C40.5883 37.3468 40.2428 37.438 40.0852 37.7083C39.9277 37.9786 40.02 38.3252 40.2898 38.4822Z" fill="black"/>
</svg>
