<svg width="93" height="92" viewBox="0 0 93 92" fill="none" xmlns="http://www.w3.org/2000/svg">
<rect x="0.5" width="92" height="92" rx="46" fill="white"/>
<path d="M43.3283 39.876L42.1333 41.3912C41.9398 41.6366 41.9818 41.9926 42.2272 42.1861C42.4734 42.3799 42.8287 42.3372 43.0221 42.0921L44.2172 40.577C44.4107 40.3315 44.3687 39.9755 44.1232 39.7821C43.8784 39.5892 43.5218 39.6306 43.3283 39.876Z" fill="black"/>
<path d="M31.5068 70.216C31.5162 70.2215 31.5255 70.227 31.5349 70.2326L31.539 70.2337C31.5438 70.2364 31.5478 70.2403 31.5526 70.2431C33.433 71.3256 35.6891 70.7923 37.5823 69.6992C39.1294 68.806 40.9391 67.2424 42.5573 64.8189L47.5183 65.3676C47.7137 67.4304 48.5698 69.01 49.9759 69.8362L54.6402 72.542C54.6424 72.5433 54.6448 72.5427 54.6469 72.5438C54.6514 72.5464 54.6552 72.55 54.6596 72.5526C56.5408 73.6355 58.7969 73.101 60.6887 72.0086C64.5829 69.7592 67.9523 64.6027 68.5419 59.7675C68.9194 57.2359 68.3891 54.1469 66.1657 52.8333C66.016 52.7299 62.7314 50.8335 61.473 50.1012C59.6064 48.9937 57.303 49.5308 55.4008 50.6291C53.4051 51.7759 51.5341 53.6896 50.0932 56.0325L45.5246 55.5251C45.5044 54.9718 45.4668 54.6225 45.3528 54.0736L54.8597 42.0121C56.6937 42.8862 58.8277 42.3467 60.6019 41.3232C64.517 39.0619 67.8668 33.8937 68.4551 29.0821C68.9108 26.0123 68.0114 22.4839 65.0065 21.7026L61.4216 19.6208C59.3401 18.4134 57.4135 18.7221 55.324 19.9343C50.9212 22.4847 47.3508 28.6725 47.3647 33.7259C47.3647 34.1212 47.3828 34.4244 47.4121 34.6996L44.6898 38.1508C44.4963 38.3963 44.5383 38.7522 44.7838 38.9457C45.0299 39.1395 45.3852 39.0969 45.5787 38.8517L47.7003 36.162C48.0808 37.4338 48.7691 38.4264 49.7394 39.0579C49.7477 39.0635 49.7559 39.0684 49.7648 39.0734L50.4508 39.4711L42.1501 49.9922L38.4751 47.8563L41.649 43.8322C41.8425 43.5868 41.8005 43.2308 41.555 43.0373C41.3096 42.8444 40.9542 42.887 40.7601 43.1313L37.4013 47.3895C35.6476 46.8702 33.8936 47.3902 32.3044 48.3097C27.9049 50.8607 24.3351 57.0429 24.3467 62.0897C24.3467 64.6579 25.2483 66.5859 26.8806 67.5146L31.5068 70.216ZM37.0162 68.7185C32.845 71.1296 29.7742 68.9515 30.1774 63.9128C30.519 59.7332 33.2536 54.9773 36.7029 52.542C37.8233 51.7515 39.3136 51.0276 40.6734 51.0276C43.7507 51.0276 44.7685 54.2248 44.3095 57.2994C43.7623 61.701 40.6952 66.5956 37.0162 68.7185ZM53.8628 41.4484L44.9502 52.7556C44.5283 51.7812 43.8396 51.0081 43.1373 50.569L51.4403 40.0445L53.8628 41.4484ZM45.5159 56.6811C45.5163 56.6754 45.5174 56.6694 45.5178 56.6637L50.1921 57.1827L52.4331 58.4881L45.3996 57.6989C45.4308 57.4664 45.4817 57.2221 45.5159 56.6811ZM45.1967 58.8157L54.1233 59.8173C53.3509 61.2592 52.6634 63.0564 52.3475 64.7621L48.1037 64.2897C48.0981 64.2892 48.0929 64.2919 48.0873 64.2915L43.2255 63.7535C44.0441 62.3403 44.8134 60.5182 45.1967 58.8157ZM50.547 68.8584C49.5157 68.2524 48.8584 67.0711 48.6616 65.4941L52.1781 65.883C52.1731 65.9289 52.1752 65.9833 52.1709 66.0298C52.019 67.6188 52.2183 68.9578 52.5937 69.973C52.6037 69.9999 52.6069 70.033 52.6171 70.0596L50.547 68.8584ZM67.4203 59.6155C66.8609 64.1996 63.637 68.9988 60.1226 71.028C58.2421 72.1142 56.5025 72.306 55.2245 71.5714C50.3756 68.7816 54.9445 57.5994 60.6439 54.326C65.1712 51.6739 68.1501 54.668 67.4203 59.6155ZM55.9658 51.6103C57.4791 50.7369 59.4047 50.1881 60.9004 51.0779L62.9523 52.2681C62.1432 52.3882 61.1095 52.7374 60.0729 53.3355C57.9854 54.5406 56.1367 56.5477 54.8453 58.5824L51.1683 56.4354C52.4839 54.3597 54.2096 52.6191 55.9658 51.6103ZM67.3335 28.9301C66.7732 33.5068 63.5611 38.3073 60.0358 40.3426C56.1694 42.5738 53.1726 40.8583 53.161 36.4295C53.1478 31.7326 56.4633 25.9904 60.5516 23.6301C62.0579 22.7606 63.4608 22.4599 64.6249 22.7661C67.0812 23.3354 67.7028 26.4381 67.3335 28.9301ZM48.4967 33.7242C48.484 29.0301 51.8012 23.2835 55.8917 20.9138C57.6287 19.9053 59.1371 19.6031 60.8534 20.6003L62.6123 21.6213C61.6934 21.801 60.776 22.1913 59.9833 22.6473C55.5805 25.1983 52.0101 31.3799 52.024 36.4262C52.024 37.5185 52.246 38.6296 52.5286 39.3669L50.3458 38.1016C48.9924 37.2128 48.4967 35.4928 48.4967 33.7242ZM25.4788 62.0886C25.4683 57.4005 28.7849 51.6589 32.8721 49.2892C34.3792 48.4178 35.686 48.046 37.3191 48.5418L39.7773 49.9674C38.7398 50.1348 37.4158 50.6449 36.0132 51.6478C32.3453 54.2622 29.4482 59.3001 29.0587 63.7596C28.9173 65.3496 29.1092 66.6364 29.4817 67.6504C29.4914 67.6771 29.4946 67.7099 29.5046 67.7363L27.4461 66.534C26.1775 65.8121 25.4788 64.2333 25.4788 62.0886Z" fill="black"/>
<path d="M38.5159 59.7725C38.0848 59.5248 37.5298 59.5591 36.9931 59.8681C36.799 59.9792 36.6509 59.9941 36.5967 59.9643C36.5425 59.9328 36.484 59.8001 36.4834 59.5823C36.4817 58.9279 36.9803 58.065 37.5503 57.7355C37.7415 57.6255 37.8885 57.6089 37.9427 57.641C37.9969 57.6725 38.056 57.8052 38.0566 58.0235C38.0577 58.3364 38.302 58.5475 38.6243 58.5879C38.9372 58.5868 39.1898 58.3325 39.1887 58.0202C39.1865 57.4039 38.9383 56.908 38.5071 56.6598C38.3055 56.5433 38.075 56.4949 37.8333 56.5018V55.803C37.8333 55.4902 37.5801 55.237 37.2672 55.237C36.9544 55.237 36.7012 55.4902 36.7012 55.803V56.9503C35.9232 57.5508 35.3488 58.6407 35.3513 59.5857C35.353 60.2014 35.6012 60.6973 36.0318 60.9449C36.4629 61.1931 37.0207 61.1588 37.5591 60.8487C37.7498 60.7387 37.8968 60.7221 37.9516 60.7537C38.0057 60.7852 38.0649 60.9178 38.0654 61.1362C38.0671 61.7879 37.5702 62.648 37.0019 62.9763C36.809 63.0869 36.6586 63.1046 36.6045 63.0725C36.5508 63.0416 36.4928 62.91 36.4922 62.695C36.4917 62.3832 36.238 62.1306 35.9262 62.1306H35.9246C35.6122 62.1312 35.3596 62.3854 35.3602 62.6983C35.3618 63.3119 35.6095 63.8055 36.0395 64.0537C36.2308 64.1631 36.4458 64.2179 36.673 64.2179C36.6822 64.2179 36.692 64.2139 36.7012 64.2137V64.9204C36.7012 65.2333 36.9544 65.4865 37.2672 65.4865C37.5801 65.4865 37.8333 65.2333 37.8333 64.9204V63.7737C38.618 63.1775 39.2 62.0821 39.1975 61.1329C39.1953 60.516 38.9471 60.0201 38.5159 59.7725Z" fill="black"/>
</svg>
