<svg width="93" height="92" viewBox="0 0 93 92" fill="none" xmlns="http://www.w3.org/2000/svg">
<rect x="0.5" width="92" height="92" rx="46" fill="white"/>
<path d="M38.7468 70.1934C38.9063 70.2857 39.0953 70.2939 39.2576 70.2232C39.5136 70.1109 44.948 67.009 73.3868 50.523C73.6162 50.3904 73.7229 50.1167 73.6438 49.8636L71.4825 42.9606C71.4506 42.858 71.2973 42.6811 71.2277 42.6405L66.3012 39.7742L65.7774 38.1039C65.7499 38.0158 65.5953 37.8267 65.5214 37.7839L60.6 34.9249L60.0728 33.2467C60.041 33.1454 59.8875 32.968 59.8174 32.9272L52.7883 28.8422C52.5175 28.6858 52.1709 28.777 52.0145 29.0468C51.8569 29.3171 51.9492 29.6637 52.219 29.8206L58.4033 33.4147L52.4585 36.8467L34.4513 26.3824L40.3963 22.9497L44.1397 25.1254C44.41 25.2818 44.7566 25.1917 44.9136 24.9209C45.0711 24.6506 44.9793 24.304 44.709 24.147L40.6821 21.8066C40.5069 21.7043 40.2896 21.7043 40.1144 21.8055L33.0389 25.8904C32.9357 25.9504 32.7892 26.17 32.7697 26.2564L30.7103 35.3821C30.5796 35.458 27.1805 37.4299 27.3907 37.308C27.2947 37.3634 27.1451 37.5485 27.1176 37.67L25.0508 46.8036L21.7314 48.7188C21.6226 48.782 21.4795 48.9977 21.4589 49.088L19.344 58.4597C19.2899 58.7007 19.3982 58.9495 19.6116 59.0733L38.7468 70.1934ZM31.2039 36.405C33.0456 37.4759 24.534 32.5265 49.2078 46.874C49.0944 46.9395 46.652 48.3497 46.8074 48.26C44.5022 46.9206 46.306 47.9687 28.802 37.7982L31.2039 36.405ZM66.7243 44.9047C67.1184 44.6769 59.0396 49.3467 56.8833 50.593C57.4913 47.9012 58.0504 45.4261 58.6604 42.7256C58.9135 42.5794 65.2767 38.9033 64.9084 39.1161C65.0943 39.7088 66.8301 45.2422 66.7243 44.9047ZM61.658 54.4133C61.6217 54.2978 60.164 49.6658 60.2555 49.9566L63.0304 48.3486L61.658 54.4133ZM54.5582 45.0925C54.6718 45.0269 57.5055 43.3915 57.3252 43.4955L55.9561 49.5562C55.8975 49.3689 54.467 44.8016 54.5582 45.0925ZM48.8979 56.514L51.664 54.9187L50.2959 60.9704L48.8979 56.514ZM61.0241 40.0524C60.9074 40.1198 51.0608 45.8038 51.18 45.735C51.2055 45.6217 53.018 37.5897 52.9553 37.8673L59.2044 34.2596L61.0241 40.0524ZM33.7045 27.2574L51.8141 37.7815C51.7783 37.9405 49.8487 46.4907 49.9604 45.9958C25.1453 31.561 33.7041 36.5396 31.8525 35.4626L33.7045 27.2574ZM47.3037 49.2812C47.4185 49.2149 53.6684 45.6063 53.5536 45.6726C53.5898 45.7882 55.4699 51.7917 55.3685 51.4677C41.8765 59.2511 46.5299 56.5666 45.5232 57.1473C45.5488 57.034 47.423 48.7539 47.3037 49.2812ZM39.8699 68.5607C39.8955 68.4474 41.763 60.1756 41.6439 60.7029L47.893 57.0933L49.7083 62.8808L39.8699 68.5607ZM51.2257 62.0102L53.0011 54.1422C53.1159 54.0759 59.6576 50.2985 59.2479 50.5351C59.2836 50.6487 61.188 56.7019 61.07 56.3266L51.2257 62.0102ZM62.5883 55.4498L64.3652 47.5826L70.6137 43.9737L72.4283 49.7691L62.5883 55.4498ZM69.8137 43.1277L67.7306 44.3305C67.6943 44.2149 66.7435 41.1842 66.8037 41.376L69.8137 43.1277ZM64.1069 38.2709L62.0323 39.4682L61.1042 36.5263L64.1069 38.2709ZM28.0518 38.6716L46.1612 49.1958C46.1353 49.3099 44.1723 57.9605 44.2971 57.4104L26.1923 46.8897L28.0518 38.6716ZM25.5456 47.825L43.5521 58.2884L41.1506 59.6803C39.3051 58.6073 47.8275 63.5621 23.1438 49.2113L25.5456 47.825ZM22.3937 50.0891C24.246 51.166 15.6849 46.1888 40.5022 60.617C40.4747 60.7385 38.5224 69.3764 38.6468 68.8262L20.5397 58.3033L22.3937 50.0891Z" fill="black"/>
<path d="M47.1417 26.87L49.3274 28.1397C49.5944 28.2955 49.9425 28.2077 50.1007 27.9346C50.2583 27.6643 50.166 27.3183 49.8956 27.1613L47.71 25.8916C47.4424 25.7351 47.0936 25.8252 46.9367 26.0966C46.7791 26.3669 46.8714 26.713 47.1417 26.87Z" fill="black"/>
</svg>
