<svg width="93" height="92" viewBox="0 0 93 92" fill="none" xmlns="http://www.w3.org/2000/svg">
<rect x="0.5" width="92" height="92" rx="46" fill="white"/>
<path d="M70.8567 37.9602C70.8567 36.7121 70.053 35.5595 68.5937 34.7138C68.3802 34.5902 68.1399 34.4939 67.9077 34.3893L65.5812 24.1727L66.356 23.7175C66.806 23.4367 67.0636 22.9027 67.0636 22.2521C67.0636 21.0803 66.2676 19.7061 65.2582 19.1273C64.6778 18.7835 64.0764 18.7393 63.6077 19.0134L48.622 27.818C48.622 27.704 48.6218 26.6084 48.622 26.7224C48.6209 26.1569 48.2661 25.6273 47.6481 25.2708C46.5569 24.6412 44.8521 24.6412 43.7676 25.2719C43.1663 25.6213 42.8213 26.1361 42.8087 26.6871C42.8034 26.9182 42.7993 31.3592 42.8036 31.2453C38.2572 33.9179 29.1647 39.2632 24.6186 41.936C24.1734 42.2081 23.9142 42.7323 23.912 43.3884C23.9098 44.5581 24.7003 45.9334 25.7141 46.5193C26.2304 46.8168 26.8309 46.9195 27.3475 46.6321C27.3533 46.6289 27.36 46.6305 27.3658 46.6271L27.381 46.6181L25.1765 54.3926C24.905 54.5119 24.6305 54.6279 24.3819 54.7728C22.9265 55.6157 22.1328 56.7671 22.1439 58.0152C22.1439 58.0164 22.1432 58.0174 22.1432 58.0186C22.1432 58.0199 22.1434 58.0211 22.1434 58.0224C22.1434 58.0234 22.1432 58.0243 22.1432 58.0253C22.1432 58.028 22.1439 58.0307 22.1439 58.0334C22.1521 62.0436 25.4162 65.3042 29.4398 65.3042C33.3092 65.3042 36.4987 62.2844 36.6999 58.4293C36.6999 58.4287 36.6996 58.4281 36.6996 58.4275C36.7001 58.4247 36.7016 58.4222 36.7021 58.4194C36.8444 56.7757 35.8942 55.6026 34.4622 54.7728C34.2473 54.6481 34.0077 54.5513 33.7757 54.4456L31.4487 44.2266L42.8036 37.551V57.3581C42.3446 57.5086 41.9162 57.6829 41.5576 57.8981C40.5534 58.4808 39.95 59.2495 39.765 60.0945C39.5183 60.206 39.283 60.3224 39.0779 60.4459C37.2262 61.5215 36.2042 62.9844 36.1918 64.567C36.1915 64.5735 36.188 64.579 36.188 64.5856L36.1769 67.3947C36.1714 69.0016 37.2106 70.4886 39.1033 71.5803C42.7639 73.6937 48.7045 73.6949 52.3499 71.5748C54.2072 70.4963 55.231 69.0282 55.2354 67.4428L55.2464 64.6392C55.2464 64.6386 55.2464 64.6381 55.2464 64.6375V64.6342C55.2464 64.6339 55.2462 64.6331 55.2462 64.6327C55.2462 64.6273 55.2476 64.622 55.2476 64.6165C55.2453 63.0135 54.2072 61.532 52.3179 60.4409C52.1079 60.3237 51.8884 60.2241 51.6697 60.1222C51.4871 59.2657 50.8769 58.4861 49.8558 57.897C49.4795 57.6809 49.0558 57.5073 48.622 57.3607V34.1344L61.5106 26.5637L59.3068 34.3363C59.0345 34.4545 58.7592 34.57 58.5122 34.7138C57.0568 35.5567 56.2631 36.7081 56.2742 37.9568C56.2742 37.958 56.2735 37.959 56.2735 37.9602C56.2735 37.9615 56.2737 37.9627 56.2737 37.964C56.2737 37.965 56.2735 37.9659 56.2735 37.9669C56.2735 37.9696 56.2742 37.9722 56.2743 37.975C56.2824 41.9852 59.5465 45.2452 63.5712 45.2452C67.4406 45.2452 70.6301 42.226 70.8313 38.3709C70.8313 38.3696 70.8307 38.3685 70.8307 38.3672C70.8313 38.3641 70.8329 38.3613 70.8335 38.3582C70.8456 38.2184 70.8567 38.0896 70.8567 37.9602ZM69.7246 37.9602C69.7246 38.0564 69.7147 38.152 69.708 38.246C69.6374 38.6602 69.4037 39.0597 69.0554 39.4296L68.2384 35.8412C69.1865 36.4519 69.7246 37.1937 69.7246 37.9602ZM60.2484 35.1687C62.3823 34.4068 64.9336 34.4592 66.93 35.1922L68.0706 40.2007C68.0626 40.2054 68.0567 40.2109 68.0486 40.2155C65.5877 41.6478 61.5757 41.6467 59.1037 40.2144C59.0144 40.163 58.9478 40.1024 58.8649 40.0483L60.2484 35.1687ZM66.6428 33.9307C65.9383 33.7335 65.1979 33.6078 64.4368 33.5526V24.8448L64.5577 24.7739L66.6428 33.9307ZM47.49 60.1313C47.49 60.2441 47.386 60.4248 47.0931 60.5929C46.3479 61.0252 45.0887 61.0246 44.337 60.589C44.086 60.4481 43.9356 60.2728 43.9356 60.1203C43.9356 48.2464 43.9356 39.7963 43.9356 28.2602C44.8601 28.7141 46.4301 28.7811 47.49 28.2563C47.49 51.7915 47.49 36.1034 47.49 60.1313ZM44.3358 26.2509C45.0786 25.8185 46.338 25.8222 47.082 26.2514C47.6183 26.5602 47.6211 26.8812 47.0931 27.1856C46.5994 27.471 45.8835 27.5511 45.2366 27.4609C44.2398 27.3162 43.427 26.7774 44.3358 26.2509ZM25.0441 43.3912C25.046 42.8945 25.2392 42.7305 25.7167 43.0009C25.7194 43.0025 25.7213 43.0027 25.724 43.0043C26.3863 43.3862 26.9656 44.389 26.9634 45.1496C26.9607 45.71 26.7108 45.7872 26.2801 45.5387C25.6201 45.1573 25.0419 44.1535 25.0441 43.3912ZM28.7941 45.7873L29.1744 45.5638V53.5548C28.2532 53.5735 27.3435 53.6998 26.485 53.9306L28.7941 45.7873ZM33.939 60.2592C33.931 60.2639 33.9253 60.2694 33.9172 60.2739C31.4563 61.7067 27.4443 61.7051 24.9723 60.2723C24.8825 60.2207 24.8166 60.1611 24.7335 60.1071L26.1171 55.2278C28.2004 54.4834 30.7483 54.4979 32.7986 55.251L33.939 60.2592ZM24.7516 55.8907L23.7875 59.2905C23.4641 58.887 23.2806 58.455 23.2753 58.012C23.266 57.2431 23.7999 56.5002 24.7516 55.8907ZM29.4276 64.1721C27.1358 64.1721 25.1326 62.9123 24.0746 61.0489C24.1807 61.1186 24.2913 61.1866 24.4062 61.2529C25.8235 62.0738 27.6388 62.4845 29.453 62.4845C31.2256 62.4845 33.2611 62.055 34.7773 61.0766C33.7182 62.9317 31.7161 64.1721 29.4276 64.1721ZM35.5766 58.3044C35.5053 58.7188 35.2719 59.1184 34.9239 59.4882L34.1069 55.9002C35.0307 56.4951 35.6547 57.2176 35.5766 58.3044ZM32.509 53.9791C31.8033 53.7774 31.0645 53.6483 30.3065 53.5916V44.8982L30.4253 44.8284L32.509 53.9791ZM28.0844 44.8914C28.0822 44.8692 28.0721 44.8462 28.0694 44.8238C27.945 43.7546 27.2714 42.6927 26.4847 42.1453L42.8036 32.558V36.2378L28.0844 44.8914ZM40.8092 62.8172C41.4207 63.3416 42.3477 63.8282 43.5219 64.1093C46.3248 64.7878 49.1951 64.0431 50.612 62.8377L50.6098 64.2506C50.6076 64.8813 50.1444 65.4976 49.3042 65.9863C47.3341 67.1311 44.1192 67.1322 42.1358 65.9879C41.2768 65.4916 40.8047 64.8664 40.807 64.2263L40.8092 62.8172ZM54.1033 67.439C54.1 68.6064 53.2753 69.728 51.7817 70.5964C48.4529 72.5322 43.018 72.5344 39.6694 70.5997C38.1437 69.7191 37.3046 68.5821 37.309 67.3986V67.3395C37.315 67.3462 37.3234 67.352 37.3294 67.3587C37.8018 67.8876 38.5207 68.4307 39.1133 68.7728C43.507 71.3091 51.072 70.7677 54.1033 67.3896V67.439ZM54.1155 64.6182C54.1155 64.6218 54.1146 64.6253 54.1146 64.6289C54.1146 64.6285 54.1146 64.6292 54.1146 64.6289L54.1144 64.631C54.0995 68.303 45.4333 71.114 39.6804 67.7911C38.4667 67.0906 37.3238 65.9998 37.3212 64.5994C37.3201 63.4242 38.1448 62.2971 39.6528 61.4204C39.6617 61.4151 39.6711 61.41 39.6801 61.4047L39.6749 64.2229C39.6705 65.2854 40.3437 66.2605 41.5698 66.9686C42.735 67.6413 44.2286 67.9779 45.7211 67.9779C47.2158 67.9779 48.7105 67.6402 49.8724 66.9647C51.0752 66.266 51.7386 65.3031 51.7419 64.2533L51.7471 61.4191C51.7508 61.4213 51.7547 61.4232 51.7585 61.4254C53.2764 62.3021 54.1144 63.4358 54.1155 64.6182ZM49.2909 58.8782C51.0685 59.9036 51.0093 61.3838 49.3097 62.3712C46.1005 64.2492 40.726 62.7642 40.8249 60.5588C40.8533 59.9482 41.306 59.3527 42.1336 58.8732C42.3348 58.7516 42.5592 58.6422 42.8036 58.5449V60.1203C42.8036 60.6963 43.1607 61.2269 43.7764 61.5724C44.7705 62.1493 46.5137 62.2383 47.6591 61.5735C48.2716 61.2219 48.622 60.6963 48.622 60.1313V58.5532C48.8575 58.6488 49.0819 58.7582 49.2909 58.8782ZM48.622 29.1308L64.1792 19.9907C64.2533 19.9476 64.4313 19.952 64.6878 20.1052C65.3622 20.4921 65.9315 21.4749 65.9315 22.2521C65.9315 22.4998 65.8663 22.6888 65.7701 22.7491L62.1707 24.8633C62.1651 24.8663 62.1601 24.8695 62.1546 24.8727L48.622 32.8217V29.1308ZM62.9234 25.7338L63.3047 25.5098V33.5168C62.3809 33.535 61.4693 33.6579 60.6129 33.8831L62.9234 25.7338ZM58.8831 35.8309L57.9203 39.2266C57.5971 38.8215 57.411 38.3883 57.4056 37.9533C57.3965 37.1837 57.9308 36.4404 58.8831 35.8309ZM63.559 44.1131C61.2672 44.1131 59.264 42.8539 58.2049 40.9905C59.7351 41.9948 61.7396 42.4255 63.5833 42.4255C65.3964 42.4255 67.2073 42.0154 68.6147 41.1967C68.7153 41.1387 68.8137 41.079 68.9087 41.0182C67.8496 42.8727 65.8475 44.1131 63.559 44.1131Z" fill="black"/>
</svg>
