<svg width="93" height="92" viewBox="0 0 93 92" fill="none" xmlns="http://www.w3.org/2000/svg">
<rect x="0.5" width="92" height="92" rx="46" fill="white"/>
<path d="M49.1196 24.5435C50.058 25.0857 51.4704 25.0834 52.4003 24.5429C53.5214 23.8913 53.5233 22.6448 52.3903 21.9913C51.4677 21.4585 50.0272 21.4596 49.1091 21.9924C47.9868 22.6442 47.99 23.8912 49.1196 24.5435ZM49.6784 22.9708C50.2471 22.64 51.2498 22.6394 51.8243 22.9719C52.1717 23.1717 52.2182 23.3397 51.8315 23.564C51.2533 23.9006 50.2704 23.9006 49.6856 23.5629C49.331 23.3583 49.2984 23.1916 49.6784 22.9708Z" fill="black"/>
<path d="M30.2363 59.6395C30.5486 59.6384 30.8018 59.3847 30.8007 59.0718L30.793 56.2925C30.7919 55.9807 30.5387 55.7281 30.2269 55.7281H30.2253C29.913 55.7292 29.6598 55.9829 29.6609 56.2958L29.6686 59.0751C29.6697 59.3869 29.9229 59.6395 30.2347 59.6395H30.2363Z" fill="black"/>
<path d="M46.2441 33.5962L51.0383 30.8285C51.3091 30.6721 51.402 30.326 51.2456 30.0552C51.0886 29.7843 50.7409 29.6915 50.4722 29.8479L45.6781 32.6156C45.4072 32.7721 45.3143 33.1181 45.4708 33.389C45.6276 33.6605 45.9747 33.7519 46.2441 33.5962Z" fill="black"/>
<path d="M48.8006 60.8644C47.8244 61.4283 47.0621 62.7461 47.0654 63.8649C47.0689 65.2132 48.1939 65.8631 49.376 65.1799C50.3456 64.62 51.1029 63.3049 51.0996 62.1867C51.0961 60.8328 49.9767 60.1887 48.8006 60.8644ZM48.81 64.1993C48.4152 64.4283 48.1986 64.3638 48.1975 63.8616C48.1953 63.1479 48.7414 62.206 49.3666 61.845C49.7477 61.6243 49.9664 61.6769 49.9675 62.1894C49.9697 62.903 49.4285 63.8422 48.81 64.1993Z" fill="black"/>
<path d="M33.0521 43.6561H33.0538C33.3661 43.655 33.6192 43.4013 33.6181 43.0884L33.6121 40.9304C33.611 40.6186 33.3578 40.366 33.046 40.366H33.0444C32.732 40.3671 32.4789 40.6209 32.48 40.9337L32.4861 43.0917C32.4872 43.4035 32.7403 43.6561 33.0521 43.6561Z" fill="black"/>
<path d="M32.4861 48.1932C32.4872 48.505 32.7403 48.7576 33.0521 48.7576H33.0538C33.3661 48.7565 33.6192 48.5028 33.6181 48.1899L33.6121 46.0319C33.611 45.7201 33.3578 45.4675 33.046 45.4675H33.0444C32.732 45.4686 32.4789 45.7224 32.48 46.0352L32.4861 48.1932Z" fill="black"/>
<path d="M48.1102 52.2036C47.7994 52.3819 47.6867 52.3392 47.6857 51.9665C47.684 51.3645 48.1434 50.5702 48.6679 50.2667C48.983 50.0844 49.0882 50.1435 49.0892 50.506C49.0903 50.8178 49.3434 51.0704 49.6552 51.0704H49.6569C49.9692 51.0693 50.2223 50.8156 50.2212 50.5027C50.219 49.7097 49.7748 49.0466 48.951 49.0471V48.4249C48.951 48.112 48.6978 47.8588 48.3849 47.8588C48.0721 47.8588 47.8189 48.112 47.8189 48.4249V49.5139C47.0939 50.0873 46.5512 51.0844 46.5536 51.9698C46.5571 53.2095 47.5943 53.8088 48.6762 53.1842C48.9796 53.0058 49.0964 53.0501 49.0975 53.4236C49.0991 54.0239 48.6414 54.8154 48.1185 55.1173C47.8099 55.295 47.695 55.2559 47.694 54.884C47.6929 54.5722 47.4397 54.3196 47.1279 54.3196H47.1263C46.814 54.3207 46.5608 54.5744 46.5619 54.8873C46.5642 55.7141 47.0501 56.3407 47.8189 56.3461V56.9702C47.8189 57.283 48.0721 57.5362 48.3849 57.5362C48.6978 57.5362 48.951 57.283 48.951 56.9702V55.8835C49.6824 55.314 50.232 54.3102 50.2295 53.4203C50.226 52.1791 49.1898 51.5848 48.1102 52.2036Z" fill="black"/>
<path d="M63.3965 34.1667L63.3888 32.2021C63.3884 32.0707 63.3125 31.8329 63.1047 31.7135C63.1036 31.7129 63.1022 31.7131 63.101 31.7125L60.4615 30.1785L60.4508 25.1355C60.444 24.1674 60.0943 23.4311 59.4791 23.0246C59.3333 22.9002 55.7299 20.7346 52.749 18.9185C52.0686 18.5354 51.1991 18.6023 50.3036 19.1097C39.6444 25.2644 43.1869 23.219 32.5205 29.3778C32.5203 29.3779 32.5207 29.3777 32.5205 29.3778C32.5199 29.3782 32.5186 29.379 32.518 29.3793L32.5154 29.3808C32.515 29.381 32.5149 29.3815 32.5144 29.3817C30.88 30.3293 29.6047 32.5343 29.6034 34.4119C29.6025 35.8306 29.6529 53.5481 29.6537 53.6624C29.6548 53.9741 29.908 54.2267 30.2197 54.2267C30.2203 54.2267 30.2209 54.2267 30.2214 54.2267C30.5337 54.2256 30.7869 53.9719 30.7858 53.659L30.7349 35.4303L36.2481 38.7772C36.3138 62.3606 36.3347 70.9554 36.3439 71.1084L31.312 68.0538C31.0036 67.8763 30.8295 67.4452 30.8223 66.8448L30.8073 61.4774C30.8062 61.1657 30.5531 60.9131 30.2413 60.9131C30.2408 60.9131 30.2402 60.9131 30.2396 60.9131C29.9273 60.9142 29.6742 61.1679 29.6753 61.4808L29.6902 66.8531C29.7024 67.8758 30.0782 68.6508 30.7366 69.0283C32.4035 70.0407 35.7373 72.0654 37.4041 73.0779C38.1681 73.5142 39.0653 73.3309 39.8358 72.8828L57.619 62.615C59.2579 61.6753 60.5415 59.456 60.5415 57.5611L60.5077 39.5848C62.1591 38.4097 63.4022 36.1346 63.3965 34.1667ZM56.8943 54.1234L39.9463 63.9074L39.8839 40.4836L44.1731 42.9762L44.18 44.6129C44.1868 46.9506 45.9933 48.0105 48.0499 46.8235C49.3162 46.092 50.3791 44.6858 50.929 43.1908C51.7894 44.0831 53.0117 43.9566 54.0812 43.3394C55.2396 42.6706 56.2379 41.4389 56.8208 40.0894L56.8943 54.1234ZM56.2337 37.6519C56.2387 39.35 54.9938 41.5053 53.5152 42.3587C52.2426 43.0943 51.3474 42.6143 51.3428 41.125L51.3356 39.4916L56.2293 36.666L56.2337 37.6519ZM50.2024 41.1355C50.2074 42.8336 48.9626 44.9894 47.4839 45.8429C46.2309 46.565 45.3168 46.12 45.3121 44.6091L45.3049 42.9734L50.198 40.1486L50.2024 41.1355ZM51.4037 33.2018C51.5204 33.2696 55.9415 35.8389 55.6686 35.6802L50.7663 38.5102L46.5012 36.0318L51.4037 33.2018ZM45.3706 36.684C45.8683 36.9732 49.8278 39.2742 49.6376 39.1637L44.7359 41.9941L40.4687 39.5142L45.3706 36.684ZM56.7991 35.028L52.534 32.5493L57.4277 29.7245L61.6924 32.2032L56.7991 35.028ZM50.8641 20.0931C51.3981 19.7908 51.8701 19.7228 52.178 19.8952L57.2613 22.9819C57.0033 23.1021 51.8486 26.0879 39.4527 33.2391C39.3394 33.1704 33.5467 29.658 33.914 29.8808L50.8641 20.0931ZM32.8084 30.5388C32.9217 30.6074 38.7997 34.1687 38.4251 33.9417C37.4809 34.7601 36.6205 36.1413 36.345 37.5093L30.7487 34.1142C30.8697 32.8171 31.7414 31.3062 32.8084 30.5388ZM57.0546 61.6339L39.2681 71.9033C38.2584 72.492 37.4969 72.1594 37.4725 70.921C37.4669 70.5386 37.4727 72.0948 37.3792 38.456C37.3792 38.4553 37.3798 38.4547 37.3798 38.454C37.3755 37.0578 38.4202 35.1455 39.7335 34.3922C53.567 26.4061 57.4527 24.1514 57.7407 24.0171C58.7276 23.5608 59.3114 24.0274 59.3187 25.1405L59.3281 29.5197L57.7118 28.5804C57.5393 28.4803 57.2783 28.4812 57.111 28.5776L39.032 39.015C38.8562 39.1167 38.7485 39.3041 38.749 39.507L38.817 64.888C38.8182 65.3221 39.2894 65.5936 39.6661 65.3767L57.745 54.9393C57.9208 54.8376 58.0291 54.6491 58.028 54.4462L57.9539 40.2843C58.3692 40.3849 58.7764 40.3818 59.3768 40.1812L59.4094 57.5622C59.4094 59.0375 58.3315 60.9015 57.0546 61.6339ZM59.5459 38.8774C58.2935 39.6003 57.3788 39.1546 57.3741 37.6436L57.3669 36.0093L62.2606 33.1838L62.2645 34.1705C62.2694 35.8681 61.0246 38.0239 59.5459 38.8774Z" fill="black"/>
</svg>
