<svg width="93" height="92" viewBox="0 0 93 92" fill="none" xmlns="http://www.w3.org/2000/svg">
<rect x="0.5" width="92" height="92" rx="46" fill="white"/>
<path d="M30.9472 59.338H30.9489C31.2612 59.3369 31.5144 59.0826 31.5133 58.7709L31.5072 56.5421C31.5061 56.2281 31.2756 56.0214 30.9395 55.9772C30.6272 55.9783 30.374 56.2326 30.3751 56.5443L30.3812 58.7731C30.3823 59.086 30.6355 59.338 30.9472 59.338Z" fill="black"/>
<path d="M61.5053 22.2987C59.7041 21.2513 55.7717 18.9646 56.0171 19.1073C55.3073 18.6795 54.3599 18.748 53.4169 19.2942C48.1038 22.3631 32.4118 31.4259 33.3513 30.8924C31.6299 31.9272 30.3038 34.2555 30.316 36.2421L30.3691 54.5112C30.3702 54.8241 30.6233 55.0761 30.9351 55.0761C30.9357 55.0761 30.9362 55.0761 30.9368 55.0761C31.2496 55.075 31.5022 54.8208 31.5011 54.509L31.4511 37.2853L35.7816 39.7378C35.7902 42.8919 35.7504 28.3137 35.8658 70.5803C35.8675 70.7085 35.8741 70.8323 35.8863 70.9528L32.0915 68.7462C31.735 68.5372 31.5382 68.0585 31.5382 67.3985L31.5199 60.9609C31.5188 60.647 31.2756 60.3938 30.9522 60.396C30.6399 60.3971 30.3868 60.6514 30.3879 60.9632L30.4061 67.3996C30.4061 68.4764 30.8013 69.3023 31.5205 69.7246L36.9802 72.8986C36.9812 72.8991 36.9833 72.8989 36.9843 72.8994C36.9865 72.9007 36.988 72.9029 36.9902 72.9041C37.8036 73.371 38.7568 73.1744 39.5738 72.7018L59.5637 61.161C61.3193 60.1484 62.6902 57.7703 62.6841 55.7483L62.5962 24.5919C62.5929 23.5279 62.2037 22.718 61.5053 22.2987ZM53.9835 20.2737C54.5589 19.942 55.0873 19.8701 55.4417 20.0824L59.2508 22.2924C58.9374 22.4333 54.1412 25.2184 39.1818 33.8526L34.8467 31.3241L53.9835 20.2737ZM33.7513 31.9952L38.1515 34.5617C36.9917 35.5495 36.1474 37.0679 35.8765 38.4893L31.4679 35.9924C31.5614 34.5387 32.5399 32.8312 33.7513 31.9952ZM58.9976 60.1815L39.0078 71.7223C37.826 72.4041 37.0053 71.9577 37.0007 70.577C36.9983 69.6681 36.911 37.3304 36.9159 39.3836C36.9291 37.7725 38.1019 35.7869 39.4666 34.9984C41.5215 33.8121 32.0633 39.2723 59.4537 23.4598C60.5611 22.8186 61.4591 23.1392 61.4641 24.5952L61.552 55.7516C61.557 57.3502 60.3873 59.3789 58.9976 60.1815Z" fill="black"/>
<path d="M59.3055 26.0413C59.1292 25.9418 58.9142 25.9407 58.7401 26.0424L39.0714 37.3985C38.8956 37.4991 38.7878 37.6871 38.7883 37.8905L38.8757 64.5772C38.8765 64.8857 39.1267 65.141 39.4417 65.141C39.5395 65.141 39.6374 65.1156 39.7247 65.0647L59.3929 53.7086C59.5687 53.608 59.6764 53.42 59.6759 53.2166L59.5891 26.5299C59.5886 26.3287 59.4802 26.1419 59.3055 26.0413ZM40.0044 63.5965L39.9215 38.2144L58.4604 27.5105L58.5427 52.8927L40.0044 63.5965Z" fill="black"/>
<path d="M48.9477 60.5121C48.0229 61.045 47.3005 62.2942 47.3032 63.3555C47.3079 64.6564 48.4026 65.2663 49.5226 64.617C50.4446 64.0852 51.1643 62.8382 51.161 61.779C51.1575 60.4806 50.0767 59.858 48.9477 60.5121ZM48.9566 63.6375C48.6006 63.8415 48.4364 63.7834 48.4353 63.3522C48.4336 62.6933 48.9378 61.8244 49.5138 61.4916C49.9049 61.2686 50.0279 61.3821 50.0289 61.7824C50.0312 62.4391 49.5298 63.3058 48.9566 63.6375Z" fill="black"/>
<path d="M45.8168 47.1052C45.9751 47.372 46.3203 47.4634 46.5923 47.3042L47.5649 46.7281C47.5713 46.7247 47.5788 46.7262 47.5851 46.7227L47.6909 46.6616L47.6946 47.145C47.6968 47.4556 47.9499 47.7066 48.2606 47.7066C48.2617 47.7066 48.2634 47.7066 48.265 47.7066C48.5773 47.7044 48.8289 47.449 48.8266 47.1361L48.8181 46.0106L49.6548 45.5274L49.6586 46.0184C49.6608 46.3291 49.9139 46.58 50.2246 46.58C50.2257 46.58 50.2274 46.58 50.229 46.58C50.5413 46.5778 50.7929 46.3225 50.7906 46.0096L50.782 44.8749C51.8708 44.2392 52.7315 42.7684 52.727 41.4846C52.7253 40.7704 52.4412 40.1989 51.9487 39.9147C51.9394 39.9094 51.9284 39.9085 51.9191 39.9034C52.4905 39.0861 52.7183 38.2947 52.7159 37.613C52.7132 36.4431 51.9424 35.6417 50.784 35.9284L50.7796 35.3499C50.7774 35.0393 50.5242 34.7883 50.2135 34.7883C50.2124 34.7883 50.2108 34.7883 50.2091 34.7883C49.8968 34.7905 49.6453 35.0459 49.6475 35.3588L49.6559 36.4677L48.8192 36.9509L48.8156 36.4765C48.8134 36.1658 48.5602 35.9149 48.2496 35.9149C48.2484 35.9149 48.2468 35.9149 48.2451 35.9149C47.9328 35.9171 47.6813 36.1725 47.6835 36.4853L47.692 37.6019C47.5785 37.6683 45.9018 38.6501 46.0152 38.5837C45.7466 38.744 45.6576 39.0911 45.8168 39.3597C45.9751 39.6266 46.3203 39.718 46.5923 39.5587L46.7168 39.485C46.7179 39.8715 46.7356 46.0694 46.7351 45.9026L46.0152 46.3291C45.7466 46.4894 45.6576 46.8365 45.8168 47.1052ZM50.2008 43.9057L47.8654 45.2534L47.8582 42.6863L50.7558 41.0136C51.2971 40.6991 51.5937 40.8583 51.5949 41.4879C51.5973 42.379 50.9345 43.4817 50.2008 43.9057ZM51.5839 37.6163C51.5862 38.5187 50.9052 39.62 50.1908 40.0334C50.1903 40.0337 50.1898 40.0339 50.1892 40.0341C50.0455 40.1171 47.7067 41.467 47.8543 41.3818L47.8471 38.8191C48.3937 38.5034 50.879 37.0678 50.7448 37.1453C51.2686 36.8428 51.5826 36.9652 51.5839 37.6163Z" fill="black"/>
<path d="M54.6031 46.3258C54.4278 46.2263 54.2117 46.2252 54.0376 46.3269L43.8461 52.2106C43.6704 52.3112 43.5626 52.4991 43.5631 52.7014L43.5775 57.8179C43.5783 58.1274 43.8281 58.3828 44.1435 58.3828C44.2414 58.3828 44.3392 58.3574 44.4265 58.3065L54.618 52.4228C54.7938 52.3222 54.9016 52.1343 54.901 51.932L54.8866 46.8155C54.8861 46.6132 54.7777 46.4264 54.6031 46.3258ZM44.7068 56.8384L44.6963 53.0264L53.7573 47.795L53.7678 51.6069L44.7068 56.8384Z" fill="black"/>
</svg>
