<svg width="93" height="92" viewBox="0 0 93 92" fill="none" xmlns="http://www.w3.org/2000/svg">
<rect x="0.5" width="92" height="92" rx="46" fill="white"/>
<path d="M58.7594 60.8019L60.7104 54.2603C61.1214 53.4384 61.3369 52.5744 61.3353 51.6873C61.3298 49.2628 59.7322 47.0075 56.8379 45.3376C54.7518 44.1236 52.1345 43.3358 49.2612 43.0129L49.2633 42.4859C50.4617 42.4614 53.343 42.2775 55.3598 41.1139C57.9612 39.6114 57.9225 37.2002 57.9092 36.9305C57.8948 36.6325 57.6516 36.3965 57.3542 36.3915C56.9319 36.386 53.1731 36.3639 50.732 37.7729C50.1043 38.1352 49.6353 38.5525 49.2774 38.9794L49.2849 37.1166C52.6322 34.599 55.1995 29.7847 55.1885 25.7695C55.1818 23.5225 54.3876 21.8287 52.953 20.9953C52.9527 20.9951 52.9532 20.9954 52.953 20.9953C52.2932 20.6199 49.9522 19.2878 50.0908 19.3667C48.6348 18.5199 46.7454 18.6841 44.7665 19.8294C40.9203 22.0504 37.8005 27.4516 37.8104 31.8699C37.8204 34.1219 38.6142 35.8222 40.0514 36.6607L42.9136 38.2892L42.9149 38.2869C42.9184 38.2889 42.9212 38.2916 42.9247 38.2936C43.1887 38.4453 43.4693 38.5575 43.7596 38.6432L43.7472 41.4873C43.3865 41.053 42.9082 40.6276 42.2669 40.2571C39.8247 38.848 36.0659 38.8679 35.6436 38.8757C35.344 38.8807 35.0997 39.1222 35.0875 39.4218C35.0775 39.6927 35.0576 42.1077 37.6391 43.598C37.992 43.8018 38.3748 43.9664 38.7661 44.1147C37.8022 44.4592 36.8993 44.8625 36.0847 45.337C33.2324 46.9904 31.6625 49.2274 31.6647 51.637C31.6659 52.8874 32.0908 53.6746 32.2529 54.1277L36.1698 67.0444C36.1742 67.0748 36.1809 67.1046 36.1908 67.1339C36.6109 68.4307 37.1858 70.2068 39.3306 71.4455C43.3124 73.739 49.7594 73.7437 53.6982 71.4455C56.223 69.9873 56.3878 68.0763 56.9839 66.5502C57.0745 66.2511 56.9043 65.9355 56.6058 65.8454C56.3017 65.7536 55.99 65.925 55.9004 66.224C55.4499 68.547 54.3153 69.7819 53.1299 70.4666C49.506 72.5809 43.5692 72.5798 39.8966 70.4649C38.1576 69.4611 37.6866 68.078 37.2875 66.847C37.2842 66.8227 37.2776 66.7989 37.2709 66.7752L34.1876 56.6053C34.7558 57.1061 35.4147 57.5721 36.1621 58.001C41.912 61.3113 51.2085 61.313 56.9054 58.011C56.9054 58.011 56.9054 58.0104 56.9065 58.0104C57.6265 57.591 58.264 57.1347 58.8162 56.6485L57.6737 60.478C57.5853 60.7776 57.7555 61.0932 58.0551 61.1822C58.3536 61.2712 58.6698 61.101 58.7594 60.8019ZM51.2981 38.7535C53.026 37.7563 55.5655 37.5629 56.7362 37.5291C56.6213 38.1947 56.21 39.3151 54.7938 40.1332C53.0813 41.1221 50.5142 41.3156 49.3556 41.351C49.4761 40.6844 49.8918 39.565 51.2981 38.7535ZM57.6034 51.9909C57.0769 51.4197 56.3981 50.8771 55.5677 50.396C53.8606 49.4177 51.6265 48.7376 49.2418 48.4304L49.2495 46.7018C51.4296 46.9976 53.4539 47.6366 55.0016 48.5238C56.2655 49.2559 57.8554 50.5564 57.6034 51.9909ZM55.058 54.8353C50.5299 57.4619 42.6108 57.4703 38.0028 54.8148C37.2556 54.3749 36.4452 53.7673 35.9169 53.0514C36.3606 52.4629 37.0617 51.8777 37.9321 51.3766C39.4817 50.4785 41.5155 49.8389 43.7119 49.5521L43.693 53.91C43.693 54.2261 43.8135 54.8265 44.6162 55.2908C45.6964 55.9302 47.3467 55.8594 48.291 55.3051C48.4925 55.1882 48.6511 55.063 48.7758 54.9361C49.1496 54.5552 49.2174 54.1588 49.2174 53.9238L49.2373 49.5547C51.4263 49.851 53.455 50.49 55.0016 51.3766C55.9044 51.8989 56.63 52.5076 57.086 53.1179C56.563 53.8205 55.8045 54.3948 55.058 54.8353ZM35.3495 51.6292C35.3407 50.6237 36.3058 49.4629 37.9321 48.5238C39.4818 47.6262 41.519 46.986 43.7243 46.6992L43.7167 48.4283C40.8433 48.7835 37.3601 49.8185 35.3982 51.9288C35.3807 51.8287 35.3495 51.7266 35.3495 51.6292ZM40.6163 35.6796C39.545 35.0549 38.9503 33.7001 38.9425 31.8665C38.9326 27.8103 41.7992 22.8503 45.3326 20.8095C46.6272 20.0608 48.2383 19.5984 49.5259 20.3479L49.9051 20.5635C49.8885 20.5667 49.8709 20.5751 49.8543 20.5785C49.1168 20.7313 48.2435 21.1031 47.6299 21.4573C47.6298 21.4573 47.6299 21.4573 47.6299 21.4573C47.6295 21.4575 47.6291 21.4577 47.6288 21.4579C43.8634 23.6326 40.6626 28.9959 40.6727 33.4983C40.6746 34.2077 40.7972 35.1561 41.0432 35.8773C41.0488 35.8938 41.0506 35.9137 41.0563 35.93L40.6163 35.6796ZM41.807 33.4956C41.7948 29.4388 44.6615 24.4782 48.1959 22.4379C51.1499 20.7325 54.0437 21.5764 54.0564 25.7728C54.0677 29.5622 51.5766 34.1335 48.3768 36.3869C47.2961 37.1702 45.7548 37.8489 44.4298 37.638C44.0925 37.583 43.7764 37.477 43.4896 37.3124C42.2248 36.5843 41.8114 34.9663 41.807 33.4956ZM44.9545 38.8176C45.8133 38.8176 46.9647 38.5457 48.1495 37.8801L48.0854 53.921C48.0854 54.0426 47.9494 54.1941 47.7205 54.3273C47.0484 54.7203 45.8665 54.7153 45.1877 54.314C44.9611 54.1825 44.8251 54.0316 44.8251 53.9122L44.8483 48.9201C44.8483 48.9179 44.8471 48.9162 44.8471 48.914L44.8914 38.8138C44.9127 38.8141 44.933 38.8176 44.9545 38.8176ZM36.2649 40.0133C37.4379 40.0476 39.9751 40.2416 41.7008 41.2377C42.8611 41.9078 43.4282 42.7913 43.6377 43.8364C41.9384 43.788 39.6846 43.4721 38.2051 42.6174C36.8 41.8059 36.3843 40.6827 36.2649 40.0133ZM36.654 46.316C37.8502 45.6189 39.2366 45.0667 40.7788 44.6737C41.6237 44.8297 42.7219 44.9497 43.6952 44.9702C43.7062 44.9705 43.721 44.9714 43.7317 44.9716L43.7291 45.5751C41.3234 45.8719 39.075 46.5535 37.3649 47.5437C35.3517 48.7067 34.2042 50.1992 34.2174 51.6342C34.2174 53.4198 35.8909 54.8848 37.4323 55.7927C42.3807 58.6434 50.7306 58.6533 55.6296 55.8126C59.9682 53.2523 59.7067 49.9417 55.5677 47.5431C53.8602 46.5647 51.6301 45.8843 49.2542 45.5783L49.2605 44.1331C51.9326 44.4465 54.3449 45.1966 56.2708 46.3171C58.8025 47.7775 60.1988 49.6857 60.2032 51.69C60.2083 54.0102 58.3262 55.8694 56.3316 57.032C50.9378 60.1653 42.1348 60.1368 36.7314 57.0193C34.6979 55.8456 32.7994 53.9748 32.7968 51.6359C32.7946 49.6475 34.1644 47.7587 36.654 46.316Z" fill="black"/>
<path d="M57.7069 62.2142C57.4095 62.1247 57.0922 62.2932 57.0015 62.5917L56.5903 63.9493C56.48 64.3131 56.7536 64.6796 57.132 64.6796C57.3752 64.6796 57.5996 64.522 57.6737 64.2777L58.085 62.9201C58.1756 62.621 58.0065 62.3049 57.7069 62.2142Z" fill="black"/>
<path d="M46.8029 30.2126C47.2065 30.4448 47.7216 30.4138 48.2169 30.1269C48.3905 30.0263 48.4867 30.0335 48.4955 30.0435C48.5066 30.0495 48.5618 30.1236 48.563 30.3237C48.5641 30.8787 48.1417 31.6106 47.6586 31.8897C47.4795 31.9936 47.3867 31.9809 47.3745 31.9749C47.3634 31.9682 47.3093 31.8958 47.3082 31.699C47.3071 31.3867 47.0539 31.1346 46.7421 31.1346C46.4293 31.1357 46.175 31.3895 46.1761 31.7023C46.1772 32.2684 46.4083 32.7255 46.8096 32.956C46.9768 33.052 47.1642 33.0988 47.3601 33.1051V33.6636C47.3601 33.9764 47.6133 34.2296 47.9262 34.2296C48.239 34.2296 48.4922 33.9764 48.4922 33.6636V32.655C49.1813 32.1108 49.6979 31.1628 49.695 30.3204C49.6928 29.7516 49.4618 29.2934 49.0604 29.0623C48.6569 28.8307 48.144 28.8611 47.6509 29.1463C47.4751 29.2475 47.38 29.2364 47.3668 29.2314C47.3568 29.2248 47.3015 29.1513 47.3004 28.9517C47.2993 28.3946 47.7238 27.6599 48.2092 27.3797C48.3816 27.2791 48.4778 27.2868 48.4878 27.2962C48.4988 27.3023 48.5541 27.3763 48.5552 27.5765C48.5563 27.8888 48.8095 28.1408 49.1213 28.1408C49.4341 28.1397 49.6884 27.886 49.6873 27.5731C49.6862 27.0043 49.454 26.5461 49.0527 26.315C48.8829 26.2173 48.6912 26.1769 48.4922 26.1718V25.6163C48.4922 25.3035 48.239 25.0503 47.9262 25.0503C47.6133 25.0503 47.3601 25.3035 47.3601 25.6163V26.6248C46.6681 27.173 46.1654 28.1014 46.1683 28.9551C46.1706 29.5233 46.4016 29.9816 46.8029 30.2126Z" fill="black"/>
</svg>
