<svg width="93" height="92" viewBox="0 0 93 92" fill="none" xmlns="http://www.w3.org/2000/svg">
<rect x="0.5" width="92" height="92" rx="46" fill="white"/>
<path d="M31.1888 59.7737C31.1899 60.086 31.4431 60.338 31.7548 60.338C32.0677 60.3369 32.322 60.0832 32.3209 59.7703L32.2501 35.4983C32.6173 35.7212 38.0045 38.9918 37.7246 38.8218L37.732 41.4103L37.8132 70.7384C37.8132 70.8125 37.8154 70.8855 37.8198 70.9573L32.8217 67.9237C32.5155 67.7479 32.343 67.3207 32.3364 66.7248L32.333 65.7254C32.3319 65.413 32.0788 65.161 31.767 65.161C31.7659 65.161 31.7659 65.161 31.7648 65.161C31.453 65.1621 31.1999 65.4164 31.201 65.7287L31.2043 66.7331C31.2164 67.7507 31.5901 68.5224 32.2457 68.8983C41.2796 74.3832 38.2101 72.5271 38.8668 72.918C38.8667 72.9179 38.8669 72.9181 38.8668 72.918C38.8676 72.9184 38.8682 72.9193 38.869 72.9197C39.6362 73.3614 40.5365 73.1727 41.3001 72.7317L58.9799 62.5248C60.6117 61.5818 61.8864 59.3735 61.882 57.4962L61.7902 25.2575C61.7881 24.2988 61.4427 23.567 60.8317 23.1611C60.7029 23.0479 56.1286 20.2884 54.1343 19.0731C53.4533 18.6912 52.591 18.7586 51.6988 19.2638C51.6977 19.2649 51.6966 19.2655 51.6955 19.266C51.5689 19.3391 33.8962 29.545 34.0118 29.4779C32.3876 30.4209 31.1187 32.6128 31.118 34.4797C31.1175 36.0053 31.1882 59.6597 31.1888 59.7737ZM58.4139 61.5442L40.7341 71.7511C39.613 72.3993 38.9497 71.8986 38.9475 70.7373L38.8557 38.4986C38.8524 37.0437 39.9215 35.1952 41.1917 34.4617C43.0006 33.4178 34.6406 38.2425 58.8749 24.2565C59.8847 23.6599 60.6557 23.9916 60.6581 25.2608L60.7499 57.4996C60.7532 58.9583 59.6842 60.8107 58.4139 61.5442ZM52.2593 20.2478C52.7911 19.9476 53.2587 19.8796 53.5628 20.0504L58.6129 23.1161C55.9142 24.3785 41.0426 33.2356 40.9132 33.3103C40.7998 33.2416 35.0461 29.7527 35.413 29.9752L52.2593 20.2478ZM34.3079 30.6334C34.4213 30.702 40.2571 34.2376 39.8861 34.0129C38.8393 34.9228 38.0694 36.3326 37.8221 37.5545C37.5785 37.4067 31.958 33.9967 32.2634 34.1819C32.3849 32.8946 33.249 31.3958 34.3079 30.6334Z" fill="black"/>
<path d="M32.3286 63.3606L32.3242 62.1401C32.3231 61.8284 32.0699 61.5763 31.7582 61.5763C31.4531 61.5879 31.191 61.8306 31.1921 62.1445L31.1966 63.3651C31.1977 63.6768 31.4508 63.9289 31.7626 63.9289C32.081 63.9427 32.3297 63.6746 32.3286 63.3606Z" fill="black"/>
<path d="M59.0375 28.6781C58.8628 28.5775 58.6472 28.578 58.4725 28.6786L40.4964 39.0575C40.3206 39.1592 40.2123 39.3466 40.2134 39.5494L40.2841 64.7818C40.2852 64.9835 40.3925 65.1698 40.5683 65.271C40.7429 65.3716 40.9585 65.371 41.1332 65.2704L59.1104 54.8922C59.2862 54.7904 59.3945 54.6031 59.3934 54.4002L59.3216 29.1673C59.3205 28.9655 59.2132 28.7792 59.0375 28.6781ZM41.414 63.8012L41.3466 39.8739L58.1928 30.1479L58.2603 54.0757L41.414 63.8012Z" fill="black"/>
<path d="M47.6669 33.6724L52.434 30.9201C52.7049 30.7637 52.7977 30.4177 52.6407 30.1468C52.4848 29.8743 52.1388 29.7836 51.868 29.9395L47.1009 32.6918C46.83 32.8482 46.7371 33.1942 46.8941 33.4651C47.0482 33.7347 47.3945 33.8288 47.6669 33.6724Z" fill="black"/>
<path d="M50.2053 60.7764C49.2346 61.3375 48.4762 62.6486 48.4784 63.763C48.483 65.0984 49.5953 65.755 50.7812 65.0725C51.7464 64.5153 52.5004 63.2064 52.4959 62.0936C52.4936 60.7451 51.3714 60.1004 50.2053 60.7764ZM50.2152 64.0919C49.8232 64.3181 49.6126 64.2562 49.6105 63.7597C49.6083 63.051 50.1511 62.1152 50.7713 61.757C51.2142 61.5003 51.3621 61.668 51.3639 62.097C51.3661 62.8051 50.8299 63.737 50.2152 64.0919Z" fill="black"/>
<path d="M34.5496 43.6736C34.8625 43.6731 35.1167 43.4188 35.1156 43.1059L35.1101 40.9606C35.109 40.6489 34.8558 40.3962 34.5441 40.3962C34.2312 40.3968 33.9769 40.6511 33.978 40.9639L33.9836 43.1093C33.9847 43.421 34.2378 43.6736 34.5496 43.6736Z" fill="black"/>
<path d="M33.9836 48.1815C33.9847 48.4933 34.2378 48.7459 34.5496 48.7459C34.8625 48.7453 35.1167 48.4911 35.1156 48.1782L35.1101 46.0329C35.109 45.7211 34.8558 45.4685 34.5441 45.4685C34.2312 45.4691 33.9769 45.7233 33.978 46.0362L33.9836 48.1815Z" fill="black"/>
<path d="M50.5225 24.6721C51.4619 25.2142 52.8666 25.2064 53.7883 24.671C54.9052 24.0222 54.9044 22.7787 53.7783 22.1288C52.8596 21.5992 51.4246 21.6003 50.5126 22.1299C49.3942 22.7784 49.3959 24.0219 50.5225 24.6721ZM51.0808 23.1089C51.6491 22.7792 52.6433 22.7808 53.2123 23.1094C53.5566 23.3083 53.5988 23.4713 53.22 23.692C52.6451 24.027 51.6678 24.0265 51.0885 23.6915C50.7406 23.4905 50.7041 23.3284 51.0808 23.1089Z" fill="black"/>
<path d="M54.9867 51.9841L44.1933 58.2155C43.9224 58.3719 43.8295 58.7179 43.9865 58.9888C44.1406 59.2584 44.4869 59.3525 44.7593 59.1961L55.5527 52.9647C55.8236 52.8082 55.9164 52.4622 55.7595 52.1914C55.6036 51.9188 55.2564 51.8282 54.9867 51.9841Z" fill="black"/>
<path d="M49.5032 37.466C46.1136 39.4228 43.3652 44.1822 43.3751 48.0759C43.3865 52.1963 46.4536 54.0327 50.1079 51.9232C53.4953 49.9669 56.2415 45.2037 56.2304 41.3045C56.2189 37.1577 53.1247 35.3738 49.5032 37.466ZM49.5419 50.9426C46.682 52.5921 44.5164 51.3639 44.5072 48.0726C44.4973 44.5409 46.9925 40.2227 50.0692 38.4466C52.9109 36.8065 55.0891 38.0119 55.0983 41.3078C55.1094 44.8455 52.6164 49.1676 49.5419 50.9426Z" fill="black"/>
<path d="M50.8486 44.1252C50.4694 43.9074 49.9852 43.9356 49.522 44.2021C49.4015 44.2717 49.3274 44.2772 49.3296 44.2855C49.3186 44.2734 49.2876 44.2081 49.2876 44.0738C49.2865 43.5874 49.6569 42.9467 50.0803 42.7024C50.1986 42.6338 50.2715 42.6283 50.2693 42.62C50.2793 42.6327 50.3113 42.698 50.3113 42.8323C50.3124 43.1446 50.5656 43.3967 50.8774 43.3967C51.1637 43.3718 51.4445 43.1424 51.4434 42.829C51.4412 42.2955 51.2223 41.8644 50.842 41.646C50.6968 41.5619 50.5329 41.5256 50.3633 41.5139V41.0629C50.3633 40.75 50.1101 40.4968 49.7973 40.4968C49.4844 40.4968 49.2312 40.75 49.2312 41.0629V41.9476C48.6053 42.4554 48.1526 43.2998 48.1555 44.0771C48.1577 44.61 48.3755 45.0412 48.7558 45.2595C49.1384 45.4795 49.6226 45.4519 50.088 45.1821C50.2063 45.1141 50.2793 45.108 50.276 45.0998C50.2859 45.1119 50.318 45.1777 50.318 45.3126C50.3191 45.788 49.9432 46.4391 49.5286 46.6785C49.4081 46.7487 49.3329 46.7542 49.3363 46.7625C49.3263 46.7503 49.2953 46.6862 49.2953 46.5541C49.2953 46.2418 49.0411 45.9892 48.7293 45.9892C48.4164 45.9897 48.1633 46.2434 48.1633 46.5563C48.1644 47.0875 48.3822 47.5176 48.7614 47.7365C48.9046 47.8188 49.0648 47.8584 49.2312 47.8713V48.3274C49.2312 48.6403 49.4844 48.8934 49.7973 48.8934C50.1101 48.8934 50.3633 48.6403 50.3633 48.3274V47.4447C50.9953 46.9393 51.453 46.0899 51.45 45.3093C51.4478 44.7753 51.2289 44.3441 50.8486 44.1252Z" fill="black"/>
</svg>
