<svg width="93" height="92" viewBox="0 0 93 92" fill="none" xmlns="http://www.w3.org/2000/svg">
<rect x="0.5" width="92" height="92" rx="46" fill="white"/>
<path d="M40.8322 54.7428L38.5872 65.7305C38.5386 65.9682 38.648 66.2109 38.857 66.3331L41.6789 67.9773L47.531 73.3571C47.8233 73.6264 48.277 73.5171 48.4321 73.1753L54.2793 60.9712C54.3379 60.849 54.35 60.7092 54.3147 60.5782L52.6551 54.4906C54.2424 53.6015 55.5573 52.2769 55.5573 50.4718C55.5577 50.3203 55.5527 52.0182 55.6358 23.9681C55.6358 22.2446 54.3265 20.8657 52.8399 20.0025C49.343 17.9877 43.676 17.9888 40.2035 20.0036C38.4265 21.039 37.4464 22.4491 37.4444 23.9752L37.4441 23.977C37.4444 23.8629 37.4264 29.9595 37.3645 50.982C37.3411 52.5012 39.2107 53.9698 40.8322 54.7428ZM41.8939 55.2036C42.524 55.4262 43.4236 55.6391 43.8349 55.7137L41.7008 66.2329L41.6197 66.6327L39.7779 65.5592L41.8939 55.2036ZM47.6018 62.3741C46.9847 62.7232 46.6767 62.5111 46.6698 61.8589C46.6698 60.9574 47.363 59.7634 48.1546 59.3035C48.7563 58.9594 49.0739 59.1436 49.081 59.8209C49.081 60.744 48.4022 61.9136 47.6018 62.3741ZM51.6193 54.9957L53.1671 60.6721L48.4729 70.4683L48.4486 63.1718C49.458 62.4366 50.2131 61.0314 50.2131 59.8153C50.1971 58.2625 48.9521 57.5417 47.5885 58.3228L47.5863 58.3245C46.4377 58.9917 45.5378 60.5444 45.5378 61.865C45.5451 62.5231 45.7743 63.1509 46.3448 63.4785C46.6356 63.6449 46.9639 63.7046 47.3177 63.6576L47.3453 71.6485L42.6362 67.3191C42.9709 65.669 44.4446 58.4053 44.9584 55.8724C46.1521 55.9952 47.0254 55.9314 47.7025 55.8761C49.1384 55.762 50.5892 55.4038 51.5385 55.0225C51.5642 55.0122 51.5938 55.0063 51.6193 54.9957ZM54.4252 50.4702C54.4252 53.3383 49.7851 54.7251 46.8768 54.8058C43.7409 54.8929 38.4599 53.268 38.4966 50.9925L38.5223 41.5719C38.944 42.0374 39.4765 42.4626 40.1173 42.8325C43.6113 44.8503 49.2857 44.8512 52.7592 42.8314C53.4409 42.4357 54.0081 41.9776 54.452 41.4798L54.4252 50.4702ZM54.496 26.7148C54.4951 26.8499 54.4236 38.6758 54.423 38.862C54.4197 39.9404 53.606 41.0305 52.1909 41.853C49.0279 43.6904 43.8662 43.6893 40.6833 41.8519C39.2957 41.0507 38.5312 39.9813 38.5296 38.8404L38.5629 26.6579C38.5673 26.6628 38.5736 26.667 38.578 26.6719C39.0072 27.1418 39.6881 27.6584 40.24 27.979C41.9856 28.9851 44.2763 29.4881 46.5659 29.4881L46.5685 29.4879C49.0587 29.4879 51.9165 28.8783 53.8498 27.3086C54.08 27.1215 54.2965 26.9288 54.4841 26.7257C54.4876 26.7219 54.4924 26.7186 54.496 26.7148ZM40.7729 20.9826C43.9328 19.1483 49.0953 19.1508 52.2727 20.9826C59.4817 25.1653 48.1444 31.2273 40.8071 26.9995C37.8127 25.2595 37.8645 22.6763 40.7729 20.9826Z" fill="black"/>
<path d="M43.2061 26.2527C45.0951 27.3426 48.033 27.3345 49.8947 26.2516C51.9562 25.0544 51.9458 22.9276 49.8704 21.7278C47.9887 20.6421 45.0546 20.6427 43.1885 21.7294C41.146 22.9152 41.1128 25.0447 43.2061 26.2527ZM43.7567 22.7078C45.2551 21.8371 47.7921 21.836 49.3043 22.7084C50.6183 23.4678 50.6332 24.5128 49.3264 25.2732C47.8273 26.1438 45.2824 26.1444 43.7722 25.2721C42.4633 24.5166 42.4447 23.4708 43.7567 22.7078Z" fill="black"/>
</svg>
