<svg width="93" height="92" viewBox="0 0 93 92" fill="none" xmlns="http://www.w3.org/2000/svg">
<rect x="0.5" width="92" height="92" rx="46" fill="white"/>
<path d="M25.5566 34.4292L25.6462 66.8581C25.6595 67.8807 26.0353 68.6551 26.692 69.0327C34.4316 73.703 33.1639 73.0002 33.4469 73.101C34.2345 73.5 35.0322 73.3201 35.7995 72.8833L49.7273 64.8559C50.0594 65.2718 50.4469 65.6248 50.9012 65.8896L54.0443 67.6784C54.0474 67.6802 54.051 67.6793 54.0541 67.681C54.0553 67.6817 54.0563 67.6827 54.0575 67.6834C55.8623 68.7203 58.0218 68.213 59.8384 67.1643C64.0461 64.7354 67.4567 58.8197 67.4434 53.9768C67.4368 51.5225 66.5689 49.6735 65.0024 48.772C64.889 48.7067 61.758 46.9269 61.8715 46.9926C60.3859 46.1283 58.4803 46.2497 56.4681 47.2997L56.4035 25.1404C56.4035 24.212 56.0637 23.4935 55.4944 23.0825C55.3492 22.918 55.8292 23.2674 48.7056 18.9223C48.0202 18.5381 47.1523 18.6072 46.2557 19.1169L39.6932 22.9061C39.4224 23.0626 39.3295 23.4086 39.4865 23.6795C39.6413 23.9503 39.9873 24.041 40.2592 23.8867L46.8184 20.0997C47.3546 19.794 47.8267 19.7277 48.134 19.8996L53.2176 22.9858C52.9221 23.1217 54.3033 22.3369 35.4092 33.2441C35.2959 33.1753 29.5031 29.6625 29.8704 29.8852L33.7786 27.629C34.0494 27.4726 34.1423 27.1265 33.9853 26.8557C33.8294 26.5837 33.4812 26.4925 33.2125 26.6484L28.472 29.3852C28.4708 29.3859 28.4704 29.3872 28.4692 29.3879C26.8362 30.3359 25.5619 32.5398 25.56 34.4168C25.5599 34.4212 25.5566 34.4248 25.5566 34.4292ZM27.268 68.0581C26.9607 67.8813 26.786 67.4495 26.7783 66.8492L26.692 35.4354C26.8053 35.5042 32.5669 39.0024 32.1997 38.7795L32.2373 50.6342C32.2884 68.3928 32.2892 70.9253 32.3004 71.1133L27.268 68.0581ZM35.2357 71.901C34.11 72.5439 33.4336 72.1047 33.4336 70.8861L33.3683 50.2732L33.3352 38.463C33.3352 38.4615 33.3363 38.4604 33.3363 38.4589C33.333 36.9768 34.43 35.1212 35.6878 34.3949C35.6914 34.3929 35.6927 34.3887 35.6962 34.3866C60.0587 20.3316 51.6558 25.1793 53.4738 24.1305C54.4884 23.5308 55.2714 23.8662 55.2714 25.1421L55.3377 47.9733C54.8831 48.2866 54.3377 48.7335 53.9766 49.0631L53.9238 29.0784C53.9238 28.8766 53.8154 28.6903 53.6396 28.5897C53.465 28.4891 53.2494 28.4891 53.0747 28.5897L34.9958 39.0271C34.82 39.1289 34.7127 39.3162 34.7127 39.5191L34.7802 64.9007C34.7802 65.1025 34.8885 65.2888 35.0643 65.3899C35.2389 65.4905 35.4546 65.49 35.6292 65.3894L48.8367 57.7591C48.4695 59.2817 48.3302 61.01 48.6679 62.5337C48.7766 63.0272 48.9264 63.4853 49.1227 63.8976L35.2357 71.901ZM50.6414 53.2806C49.9644 54.4679 49.6216 55.3124 49.3443 56.078C49.3317 56.1132 49.3138 56.1476 49.3015 56.183L35.91 63.9201L35.8459 39.8436L52.7939 30.059L52.847 50.1898C52.1887 50.9238 51.2943 52.1357 50.6414 53.2806ZM66.3114 53.9802C66.3246 58.4615 63.1661 63.9356 59.2724 66.1837C55.5799 68.3131 52.7578 66.6873 52.7464 62.4619C52.732 57.6368 56.4252 51.6273 60.7232 49.81C61.9185 49.3052 63.2989 49.1073 64.4261 49.7486L64.4507 49.7625C64.4506 49.7624 64.4509 49.7626 64.4507 49.7625C65.6444 50.4583 66.3058 51.9547 66.3114 53.9802ZM59.6494 47.5481C60.2585 47.5481 60.8179 47.6896 61.3066 47.9738L61.8549 48.2861C61.643 48.3228 61.0794 48.4664 60.718 48.595C58.0068 49.5619 55.6897 51.9965 54.1707 54.4307C52.5997 56.9472 51.6056 59.86 51.611 62.4646C51.6111 62.4981 51.6183 62.5264 51.6188 62.5596C51.6292 63.4364 51.7546 64.3274 52.0542 65.1585C52.0654 65.1897 52.0691 65.2276 52.0808 65.2584L51.4661 64.9085C50.5282 64.3618 50.0131 63.3545 49.7789 62.3089C48.4423 56.3678 54.6801 47.5481 59.6494 47.5481ZM28.7653 30.5434C28.8787 30.6121 34.7568 34.173 34.3822 33.9461C33.3391 34.8495 32.5514 36.2821 32.3016 37.5142C31.9343 37.2914 26.4087 33.9392 26.7053 34.1191C26.8268 32.8218 27.6975 31.3108 28.7653 30.5434Z" fill="black"/>
<path d="M37.5871 24.1216L35.3561 25.4107C35.0852 25.5671 34.9924 25.9137 35.1494 26.184C35.3054 26.4542 35.6501 26.5475 35.9221 26.3913L38.1531 25.1023C38.424 24.9458 38.5169 24.5992 38.3599 24.3289C38.2029 24.0564 37.8557 23.9658 37.5871 24.1216Z" fill="black"/>
<path d="M42.2006 33.6011L46.9942 30.8328C47.2651 30.6764 47.3579 30.3304 47.201 30.0595C47.0451 29.787 46.6979 29.6958 46.4282 29.8522L41.6345 32.6205C41.3637 32.7769 41.2708 33.123 41.4278 33.3938C41.5819 33.6635 41.9282 33.7575 42.2006 33.6011Z" fill="black"/>
<path d="M44.7566 60.8693C43.7804 61.4331 43.0176 62.7515 43.022 63.8692C43.0243 65.2268 44.1563 65.8634 45.3326 65.1848C46.3021 64.6248 47.0583 63.3098 47.0561 62.191C47.0538 60.8396 45.9339 60.1922 44.7566 60.8693ZM44.7665 64.2042C44.3672 64.4343 44.1562 64.3663 44.1541 63.8659C44.1519 63.1528 44.698 62.2103 45.3226 61.8499C45.767 61.5944 45.9222 61.7537 45.924 62.1932C45.9263 62.9074 45.3845 63.8471 44.7665 64.2042Z" fill="black"/>
<path d="M29.0026 40.3704C28.6897 40.3709 28.4354 40.6252 28.4365 40.9381L28.4421 43.0966C28.4432 43.4084 28.6963 43.661 29.0081 43.661C29.321 43.6605 29.5752 43.4062 29.5741 43.0933L29.5686 40.9347C29.5675 40.623 29.3143 40.3704 29.0026 40.3704Z" fill="black"/>
<path d="M29.0026 45.4724C28.6897 45.473 28.4354 45.7272 28.4365 46.0401L28.4421 48.1981C28.4432 48.5099 28.6963 48.7625 29.0081 48.7625C29.321 48.762 29.5752 48.5077 29.5741 48.1948L29.5686 46.0368C29.5675 45.725 29.3143 45.4724 29.0026 45.4724Z" fill="black"/>
<path d="M48.3574 24.5473C49.4794 23.8957 49.4793 22.6491 48.3475 21.9963C47.4254 21.4645 45.9838 21.4634 45.0662 21.9974C43.9433 22.6495 43.9455 23.8962 45.0762 24.5484C46.0094 25.0866 47.4201 25.0926 48.3574 24.5473ZM45.6345 22.9758C46.2079 22.6435 47.2102 22.6473 47.7814 22.9769C48.133 23.1795 48.1708 23.3457 47.7892 23.5689C47.2099 23.905 46.2259 23.905 45.6422 23.5678C45.2812 23.3596 45.2602 23.1945 45.6345 22.9758Z" fill="black"/>
<path d="M44.0501 39.4445C40.5113 41.4881 37.6424 46.4569 37.6535 50.5204C37.6649 54.85 40.8808 56.7011 44.656 54.5219C48.1926 52.4805 51.0593 47.5078 51.0482 43.4372C51.0368 39.1136 47.8136 37.2706 44.0501 39.4445ZM44.0899 53.5413C41.0825 55.2782 38.7947 53.9798 38.7855 50.517C38.7745 46.8151 41.3902 42.2879 44.6162 40.4251C47.6133 38.6925 49.907 39.9849 49.9162 43.4405C49.9272 47.1496 47.3126 51.6806 44.0899 53.5413Z" fill="black"/>
<path d="M45.5138 46.4033C45.1015 46.1656 44.5763 46.1994 44.0689 46.4907C43.892 46.5929 43.7781 46.594 43.7516 46.5786C43.7251 46.5636 43.672 46.468 43.6709 46.2684C43.6698 45.682 44.1164 44.9081 44.6272 44.6135C44.803 44.5112 44.9135 44.5117 44.9412 44.5261C44.9666 44.5416 45.0208 44.6372 45.0219 44.8379C45.023 45.1496 45.2761 45.4023 45.5879 45.4023C45.9008 45.4012 46.1551 45.1474 46.1539 44.8346C46.1528 44.2514 45.9163 43.7815 45.505 43.5449C45.3256 43.4417 45.1221 43.3992 44.9102 43.3975V42.7987C44.9102 42.4858 44.657 42.2327 44.3442 42.2327C44.0313 42.2327 43.7781 42.4858 43.7781 42.7987V43.8604C43.0678 44.4245 42.5369 45.4025 42.5388 46.2718C42.5399 46.8544 42.7765 47.3237 43.1867 47.5597C43.599 47.7974 44.1275 47.7637 44.6349 47.4713C44.8096 47.369 44.9235 47.3685 44.9489 47.3845C44.9754 47.3994 45.0296 47.495 45.0307 47.6952C45.0318 48.2794 44.5874 49.05 44.0777 49.3441C43.8997 49.4463 43.787 49.4474 43.7582 49.4325C43.7328 49.4176 43.6797 49.3231 43.6786 49.1257C43.6775 48.814 43.4244 48.5613 43.1126 48.5613C42.7997 48.5624 42.5455 48.8162 42.5466 49.129C42.5477 49.7095 42.7843 50.1776 43.1933 50.4137C43.371 50.5154 43.5691 50.565 43.7781 50.5682V51.1693C43.7781 51.4822 44.0313 51.7354 44.3442 51.7354C44.657 51.7354 44.9102 51.4822 44.9102 51.1693V50.1103C45.6272 49.5497 46.1647 48.5652 46.1628 47.6918C46.1617 47.1092 45.9251 46.6394 45.5138 46.4033Z" fill="black"/>
<path d="M61.2027 57.6373C61.6172 56.938 61.8494 56.1686 61.8472 55.4837C61.8425 53.8721 60.5337 53.1396 59.1519 53.9376C57.9557 54.628 57.0215 56.2449 57.0259 57.6174C57.027 58.3023 57.2592 58.8479 57.666 59.1685L56.8457 62.1258C56.7838 62.3475 56.8623 62.584 57.0436 62.725C57.2214 62.8622 57.4697 62.8849 57.6738 62.7676L61.95 60.2989C62.2098 60.1485 62.3082 59.8213 62.1722 59.5532L61.2027 57.6373ZM58.3061 61.0949L58.8788 59.0325C58.9197 58.8871 58.8998 58.7318 58.8258 58.6008C58.7506 58.4698 58.6268 58.3741 58.4819 58.3349C58.1901 58.2558 58.158 57.8053 58.158 57.6146C58.1547 56.6429 58.87 55.408 59.7179 54.9182C60.0197 54.7457 60.2939 54.6993 60.4564 54.7911C60.6178 54.8839 60.714 55.1443 60.7151 55.487C60.7173 56.0354 60.4819 56.7075 60.0861 57.2852C59.9689 57.4554 59.9545 57.6765 60.0474 57.8606L60.9196 59.5864L58.3061 61.0949Z" fill="black"/>
</svg>
