<svg width="93" height="92" viewBox="0 0 93 92" fill="none" xmlns="http://www.w3.org/2000/svg">
<rect x="0.5" width="92" height="92" rx="46" fill="white"/>
<path d="M70.3908 33.2284C70.3499 32.0847 69.6064 31.0383 68.2974 30.2821C66.9979 29.532 65.3125 29.1716 63.5381 29.249C61.4807 29.3463 59.5377 29.8708 58.0651 30.7265C58.015 30.7556 57.9721 30.788 57.9233 30.8177C55.1641 29.1407 51.9555 29.3014 49.7173 31.1624L49.7315 22.0021C49.7315 21.993 49.7267 21.9849 49.7263 21.9758C49.7144 21.3676 49.3424 20.819 48.6685 20.4301C47.4602 19.733 45.5752 19.7341 44.3757 20.4312C43.6488 20.8532 43.3251 21.4999 43.3243 21.9894L43.3128 31.3384C41.0321 29.3903 37.7962 29.1485 35.061 30.8079C35.0172 30.7815 34.9791 30.7525 34.9344 30.7265C33.4623 29.8708 31.5194 29.3463 29.4619 29.249C27.6936 29.1655 26.0027 29.532 24.7026 30.2821C23.3936 31.0383 22.6501 32.0847 22.6092 33.2278C22.5479 34.8977 21.5529 36.7551 19.6541 38.7478C19.3258 39.0905 19.2406 39.5344 19.4264 39.9357C19.6751 40.4724 20.3561 40.8135 21.151 40.8135C21.208 40.8135 21.266 40.8118 21.324 40.808C26.2354 40.5161 32.5762 39.8865 34.8946 38.5477C36.6662 37.5251 37.643 36.1321 37.6452 34.6269C37.6468 33.5005 37.1026 32.4381 36.0885 31.5478C38.6134 30.264 41.5188 30.7958 43.3108 32.9601L43.2908 49.1713C40.9413 46.0045 35.5359 44.8071 31.0777 45.244C26.997 45.5514 21.5857 47.8878 21.6112 51.9523C21.6112 51.9527 21.6109 51.9531 21.6109 51.9535V51.9557L21.5999 55.3066C21.5999 56.356 22.0126 57.3784 22.7577 58.3047C21.6531 59.3682 21.0687 60.5986 21.0678 61.8925C21.0678 61.8921 21.0678 61.8928 21.0678 61.8925L21.0676 61.8957L21.0559 65.2466C21.0559 67.1426 22.2864 68.8959 24.5213 70.1861C26.7285 71.4553 29.5835 72.0921 32.4353 72.0921C35.0957 72.0921 37.7413 71.5248 39.8657 70.4107C41.8518 71.2767 44.1972 71.735 46.5636 71.735C49.4253 71.735 52.2842 71.1015 54.4538 69.8346C54.8293 69.616 55.1649 69.3798 55.4818 69.1363C57.2694 69.7597 59.2397 70.0767 61.2021 70.0767C64.0704 70.0767 66.9083 69.4233 69.0807 68.1586C71.2841 66.8772 72.4979 65.1482 72.4979 63.2908L72.509 59.9145C72.509 58.0196 71.2785 56.2695 69.0276 54.9772C67.78 54.3138 66.7204 53.8926 65.5922 53.614C64.5841 53.3647 63.533 53.2153 62.4683 53.1409C61.6871 50.4397 58.4963 48.7226 55.7418 48.0565C53.8418 47.575 51.7672 47.4231 49.7215 47.5897C49.7123 27.2776 49.7155 34.2833 49.7148 32.7677C51.4839 30.6384 54.3304 30.1861 56.9164 31.5438C55.8995 32.4349 55.3532 33.4988 55.3548 34.6269C55.3571 36.1321 56.3338 37.5251 58.1054 38.5477C60.4238 39.8865 66.7646 40.5161 71.6749 40.808C71.7335 40.8118 71.7909 40.8135 71.8484 40.8135C72.6444 40.8135 73.3249 40.4724 73.5736 39.9357C73.7594 39.5344 73.6742 39.0905 73.347 38.7495C71.4471 36.7551 70.4521 34.8977 70.3908 33.2284ZM34.3285 37.5671C32.6929 38.5118 27.9285 39.2812 21.2555 39.6781C20.7823 39.7085 20.4954 39.5349 20.4722 39.53C22.5982 37.299 23.6672 35.2515 23.7402 33.2693C23.7667 32.5396 24.3239 31.8083 25.2686 31.2627C26.367 30.6293 27.8705 30.3086 29.4089 30.38C31.1509 30.4625 32.7751 30.8847 34.055 31.5542C33.492 32.0215 32.965 32.5231 32.4707 33.0321C31.9671 33.5518 31.4906 34.0421 30.9616 34.4771C29.8666 35.3781 28.2243 36.105 26.9048 35.4455C26.6251 35.3074 26.2846 35.419 26.1453 35.6987C26.0055 35.9784 26.1188 36.3184 26.3985 36.4582C26.9203 36.7191 27.467 36.8308 28.0137 36.8308C29.3602 36.8308 30.7068 36.1531 31.6813 35.3516C32.9148 34.3365 33.7383 33.1883 35.0717 32.1842C36.0036 32.9039 36.5144 33.7501 36.5131 34.6252C36.5114 35.7098 35.7359 36.7551 34.3285 37.5671ZM44.455 48.8745C44.4447 48.8791 44.4335 48.8821 44.4232 48.8867L44.4548 23.6041C44.467 23.6107 44.4829 23.6126 44.4952 23.6191C45.6916 24.2519 47.384 24.238 48.5489 23.631C48.5638 23.6232 48.5831 23.621 48.5978 23.6129C48.5618 45.8577 48.5844 28.4976 48.5895 47.7027C47.5637 47.8325 45.8629 48.2397 44.455 48.8745ZM44.944 21.4096C45.8001 20.9121 47.2492 20.9176 48.1025 21.4107C48.9317 21.8896 48.653 22.3711 47.77 22.7197C46.0681 23.3806 44.463 22.5408 44.4614 21.995C44.4614 21.8043 44.6416 21.5854 44.944 21.4096ZM31.1761 46.3716C35.0945 45.9869 40.4692 47.0066 42.4996 50.0022C42.4829 50.0145 42.4689 50.028 42.4523 50.0404C41.8683 50.4751 41.3844 50.9484 41.0014 51.451C40.9936 51.4613 40.9848 51.4712 40.9771 51.4815C40.3819 52.2731 39.9777 53.2698 39.9712 54.276C39.9709 54.2815 39.9679 54.2861 39.9679 54.2917L39.9631 55.998C39.6312 56.1376 39.3298 56.2783 39.0612 56.4182C38.8738 56.3337 38.6818 56.2627 38.4915 56.1874C35.6772 55.0741 33.1113 54.9899 30.0926 55.2414C28.74 55.3723 27.3531 55.7246 26.2085 56.1862C24.4826 55.2963 22.743 53.8917 22.743 51.9513C22.7198 48.5631 27.7432 46.6577 31.1761 46.3716ZM43.431 59.2258C44.5243 59.857 45.7872 60.3303 47.1345 60.646C47.1342 60.6459 47.1349 60.646 47.1345 60.646C51.1771 61.5929 55.9798 61.1198 59.2359 59.2269C60.2036 58.6652 61.0214 57.9495 61.5068 57.3532L61.5055 57.73C61.5055 58.541 61.1372 59.5332 60.1953 60.4634C58.5499 62.0832 55.9529 62.9001 53.6858 63.2045C49.5139 63.7566 42.8992 62.6275 41.3604 58.9366C41.1884 58.5214 41.091 58.0952 41.0939 57.6614V57.2958C41.6036 57.9295 42.4243 58.6449 43.431 59.2258ZM63.8559 61.0565C63.8349 61.0654 63.8145 61.0753 63.7946 61.0864C63.1539 61.4512 62.0743 61.4512 61.4348 61.0864C61.3722 61.0511 61.3054 61.0322 61.2383 61.0221C61.2864 60.9699 61.3275 60.9156 61.3732 60.8626C61.4503 60.7721 61.5234 60.6808 61.5932 60.5882C61.6856 60.4679 61.7734 60.3466 61.8538 60.2231C62.4945 60.0329 63.3143 60.0825 63.8012 60.3689C64.0422 60.5093 64.1279 60.6519 64.1273 60.7304C64.1273 60.8034 64.0549 60.9294 63.8559 61.0565ZM36.398 60.9161C36.7633 59.1132 38.3301 58.0696 39.9595 57.3074L39.9585 57.6647C39.9574 58.0777 40.0258 58.4824 40.1404 58.8789C41.4549 63.4715 49.0164 65.0517 54.11 64.2843C54.6902 64.1987 55.3705 64.0653 55.7757 63.9623C52.7235 67.5348 44.2866 68.4119 39.2244 65.4798C37.4727 64.4742 36.0064 62.889 36.398 60.9161ZM22.7331 54.9274C23.3798 55.7294 24.1096 56.2672 24.9159 56.7637C24.4739 56.9946 23.9632 57.3125 23.6026 57.5829C23.031 56.8643 22.7319 56.086 22.7319 55.3088L22.7331 54.9274ZM23.9088 58.7891C25.4526 57.4345 28.1918 56.5624 30.2353 56.3646C30.765 56.3536 34.2565 55.8248 37.8013 57.1243C37.8184 57.1306 37.8346 57.1391 37.8517 57.1454C36.5971 58.0325 35.5036 59.3133 35.2653 60.8181C35.2585 60.8574 35.2147 61.2473 35.2141 61.2604C34.2601 60.8883 32.9971 60.923 32.128 61.417C31.5 61.7774 30.3994 61.7785 29.766 61.4125C29.5559 61.2953 29.4592 61.1616 29.4559 61.0831C29.452 60.9681 29.5775 60.8222 29.7842 60.6995C30.4116 60.3368 31.5111 60.3368 32.1396 60.6995C32.411 60.8553 32.7565 60.7614 32.9123 60.4916C33.0688 60.2208 32.9753 59.8747 32.7045 59.7177C31.8201 59.209 30.4989 59.186 29.5222 59.6023L28.3498 59.0754C28.0645 58.9461 27.7301 59.0754 27.6013 59.3595C27.4731 59.6448 27.6002 59.9797 27.8854 60.108L28.5177 60.3922C28.3521 60.6769 28.3184 60.9454 28.3249 61.124C28.3437 61.6314 28.6682 62.0969 29.2071 62.3965C30.1855 62.9625 31.7178 62.9614 32.6907 62.3987C33.3291 62.0372 34.4297 62.0338 35.0648 62.4064C35.1163 62.4338 35.1502 62.4756 35.1927 62.5099L35.1911 63.004C35.1609 63.0293 35.1368 63.0601 35.103 63.0819C35.0814 63.0907 35.0604 63.1018 35.04 63.1129C34.4009 63.4766 33.3197 63.4777 32.6796 63.1129C32.4077 62.9592 32.0622 63.0532 31.9074 63.3251C31.7526 63.596 31.8477 63.942 32.1191 64.0968C32.6155 64.3798 33.2379 64.5202 33.8598 64.5202C34.3249 64.5202 34.7746 64.4179 35.1869 64.2602L35.1848 64.9072C35.1848 65.7087 35.4441 66.5503 35.8474 67.2313C32.6279 67.8756 29.2965 67.5627 26.674 66.5573C24.5665 65.7474 22.1996 64.1604 22.1996 61.8957C22.1996 60.7923 22.7867 59.7222 23.9088 58.7891ZM25.0862 69.2055C23.2173 68.1265 22.188 66.7202 22.188 65.2488L22.1891 64.8651C22.2 64.8786 22.2143 64.8912 22.2253 64.9046C23.27 66.1805 24.5985 66.952 26.1037 67.5562C29.2926 68.8361 33.2176 69.0423 36.6032 68.2448C36.7635 68.4198 37.0678 68.7042 37.3825 68.9603C37.7741 69.2792 38.3207 69.6437 38.5716 69.7903C34.543 71.5117 28.7389 71.3049 25.0862 69.2055ZM53.8839 68.8561C49.2762 71.5464 41.6688 71.0642 38.0324 68.0371C37.0839 67.2481 36.3169 66.1436 36.3169 64.9072L36.318 64.5279C36.3677 64.5901 36.4277 64.6485 36.4805 64.7096C37.0885 65.4138 37.8899 66.0194 38.6595 66.4604C40.9393 67.7812 43.9266 68.352 46.5376 68.352C46.5439 68.352 46.5503 68.3509 46.5567 68.3509C49.1515 68.3482 52.2084 67.7736 54.5511 66.4085C55.4776 65.8444 56.0839 65.3604 56.7416 64.5746C56.741 64.688 56.7365 64.9819 56.7363 64.9935C56.7204 66.6544 55.3185 68.0212 53.8839 68.8561ZM71.3659 63.2886C71.3659 64.7281 70.3521 66.11 68.5114 67.1801C65.3358 69.0294 60.4097 69.4496 56.4484 68.2708C56.9827 67.6935 57.4103 66.9729 57.6146 66.394C57.6184 66.3835 57.6258 66.3737 57.6295 66.3631C58.8975 66.6097 59.9578 66.679 60.9906 66.6891C63.3891 66.713 65.8961 66.2926 68.0269 65.3269C69.2826 64.7576 70.4105 64.0412 71.2926 62.9806C71.3147 62.9541 71.3456 62.9306 71.367 62.9039L71.3659 63.2886ZM62.6481 54.274C63.5596 54.3514 64.4557 54.4985 65.3202 54.7129C66.3544 54.9683 67.334 55.3586 68.4798 55.9677C70.348 57.0411 71.3766 58.4416 71.3769 59.914L71.3708 60.1677C71.1003 62.2224 69.2832 63.5529 67.3936 64.3755C65.4952 65.2017 63.3994 65.5417 61.313 65.5558C60.0489 65.5644 59.0042 65.4614 57.8622 65.2399C57.877 65.0159 57.8689 65.031 57.8807 63.2665C58.9975 62.8031 59.9114 62.2194 60.6012 61.6304C60.6182 61.8078 60.708 61.9755 60.8743 62.0703C61.3701 62.3533 61.9925 62.4938 62.6149 62.4938C63.1214 62.4938 63.6146 62.3804 64.0534 62.193L65.2273 62.7204C65.5071 62.847 65.8466 62.7251 65.9758 62.4363C66.104 62.151 65.9769 61.8161 65.6917 61.6878L65.0601 61.4041C65.1842 61.1947 65.2589 60.9692 65.2594 60.7337C65.2611 60.2108 64.9371 59.7211 64.3739 59.3927C63.8471 59.082 63.1403 58.9588 62.4403 58.9931C62.4421 58.9875 62.4429 58.9817 62.4446 58.9761C62.5353 58.6809 62.6397 58.2041 62.6409 57.73L62.6509 54.3559C62.6509 54.3541 62.6498 54.3526 62.6498 54.3508C62.6498 54.3466 62.6509 54.3424 62.6509 54.3382C62.6509 54.3279 62.6484 54.3179 62.6483 54.3076C62.6482 54.2964 62.6481 54.2854 62.6481 54.274ZM55.4698 49.1554C57.8888 49.7398 61.0351 51.3445 61.47 53.7949C61.749 55.7561 60.3928 57.2452 58.6671 58.2474C54.6374 60.5922 48.0566 60.5889 43.9971 58.2463C40.858 56.4334 41.157 54.424 41.105 54.3105C41.105 53.4792 41.4446 52.6599 42.0838 51.9109C42.087 51.9071 42.09 51.9033 42.0932 51.8997C43.6666 50.0657 46.7893 49.0108 49.1544 48.7751C49.1575 48.7751 49.1601 48.7733 49.1632 48.7733C51.3604 48.5133 53.5398 48.6663 55.4698 49.1554ZM71.7434 39.6781C65.0715 39.2812 60.3071 38.5118 58.6715 37.5671C57.2641 36.7551 56.4886 35.7098 56.4869 34.6252C56.4856 33.7501 56.9964 32.9038 57.9281 32.1841C58.5592 32.6594 59.1301 33.2164 59.7168 33.8204C60.2203 34.3395 60.7411 34.8762 61.3187 35.3516C62.2932 36.1531 63.6398 36.8308 64.9863 36.8308C65.533 36.8308 66.0797 36.7186 66.6015 36.4582C66.8812 36.3184 66.9946 35.9784 66.8547 35.6987C66.7148 35.419 66.3754 35.3074 66.0952 35.4455C64.7757 36.1072 63.1334 35.3787 62.0384 34.4771C61.5094 34.0421 61.0329 33.5518 60.5293 33.0321C60.035 32.523 59.5079 32.0215 58.9448 31.5541C60.2252 30.8846 61.8492 30.4625 63.5911 30.38C63.7338 30.3733 63.8753 30.37 64.0168 30.37C65.4009 30.37 66.7353 30.6878 67.7314 31.2627C68.6761 31.8083 69.2333 32.5396 69.2598 33.2698C69.3328 35.2515 70.4018 37.299 72.5471 39.4581C72.504 39.5349 72.2149 39.7069 71.7434 39.6781Z" fill="black"/>
<path d="M28.4244 50.1592L29.0599 50.4442C28.9361 50.6539 28.8614 50.8793 28.8611 51.1144C28.8605 51.6351 29.1811 52.1204 29.7411 52.4466C30.7184 53.0159 32.254 53.0148 33.2357 52.4477C33.8653 52.0829 34.9653 52.084 35.5894 52.4466C35.8271 52.5848 35.9117 52.7241 35.9111 52.8026C35.9111 52.8811 35.8254 53.0215 35.585 53.1608C34.941 53.5322 33.8609 53.5322 33.2247 53.1608C32.9543 53.0038 32.6078 53.0944 32.4508 53.3664C32.2932 53.6361 32.385 53.9833 32.6553 54.1403C33.1445 54.4244 33.773 54.5659 34.4026 54.5659C34.9099 54.5659 35.3984 54.4486 35.8333 54.2642L37.0111 54.7925C37.0863 54.8268 37.1648 54.8423 37.2422 54.8423C37.4583 54.8423 37.6651 54.7185 37.759 54.5084C37.8873 54.2232 37.7596 53.8882 37.4744 53.76L36.8428 53.4767C36.9677 53.2668 37.0427 53.0407 37.0432 52.8048C37.0443 52.283 36.722 51.7954 36.1582 51.4671C35.182 50.901 33.6508 50.901 32.6702 51.4671C32.0279 51.8374 30.9478 51.8396 30.3099 51.4671C30.0761 51.3311 29.9932 51.1929 29.9932 51.1155C29.9932 51.0359 30.0794 50.8933 30.3215 50.754C30.9522 50.3903 32.0511 50.3892 32.6752 50.7529C32.9444 50.911 33.2915 50.8181 33.4485 50.5473C33.6061 50.2775 33.5138 49.9304 33.2434 49.7734C32.3612 49.2603 31.038 49.2371 30.0639 49.6541L28.8876 49.1266C28.6035 48.9973 28.2674 49.1277 28.1397 49.4108C28.0115 49.6971 28.1392 50.031 28.4244 50.1592Z" fill="black"/>
<path d="M47.2479 51.4903C46.961 51.3621 46.6271 51.4903 46.4994 51.7745C46.3712 52.0597 46.4983 52.3947 46.7835 52.5229L47.4195 52.8086C47.296 53.0179 47.2213 53.2429 47.2208 53.4781C47.2202 53.9988 47.5408 54.4853 48.1014 54.8114C49.0787 55.3785 50.6148 55.3785 51.5965 54.8114C52.225 54.4488 53.3245 54.4488 53.9497 54.8114C54.1874 54.9496 54.2714 55.0889 54.2714 55.1663C54.2714 55.2448 54.1857 55.3863 53.9453 55.5245C53.3018 55.8948 52.2212 55.8948 51.5844 55.5256C51.3119 55.3675 50.9675 55.4603 50.8105 55.7312C50.6535 56.0021 50.7458 56.3481 51.0161 56.5051C51.5048 56.7881 52.1327 56.9307 52.7618 56.9307C53.269 56.9307 53.7579 56.8133 54.1932 56.6283L55.3709 57.1574C55.4466 57.1916 55.5251 57.2071 55.6025 57.2071C55.8186 57.2071 56.0253 57.0833 56.1193 56.8732C56.2475 56.588 56.1204 56.253 55.8352 56.1248L55.2028 55.8407C55.3281 55.6304 55.4032 55.4037 55.4035 55.1674C55.404 54.6456 55.0812 54.1591 54.5179 53.8319C53.5434 53.2658 52.01 53.267 51.031 53.8308C50.3887 54.2022 49.3081 54.2022 48.6702 53.8319C48.4358 53.6959 48.3529 53.5577 48.3529 53.4792C48.3534 53.4007 48.4391 53.2581 48.6818 53.1177C49.3119 52.7551 50.4108 52.7551 51.0344 53.1177C51.3052 53.2736 51.6518 53.1829 51.8082 52.9121C51.9658 52.6423 51.874 52.2963 51.6037 52.1382C50.7192 51.625 49.3954 51.601 48.4229 52.0182L47.2479 51.4903Z" fill="black"/>
</svg>
