<svg width="93" height="92" viewBox="0 0 93 92" fill="none" xmlns="http://www.w3.org/2000/svg">
<rect x="0.5" width="92" height="92" rx="46" fill="white"/>
<path d="M25.8244 53.7673C25.8476 53.77 25.8703 53.7711 25.8929 53.7711C26.1754 53.7711 26.4197 53.5605 26.4546 53.2731C26.5325 52.6264 26.6414 51.9569 26.7779 51.2831C26.8398 50.9769 26.6419 50.6784 26.3352 50.6159C26.0289 50.554 25.7304 50.7525 25.668 51.0587C25.5259 51.7613 25.412 52.4611 25.3302 53.1371C25.2932 53.4478 25.5143 53.7297 25.8244 53.7673Z" fill="black"/>
<path d="M67.8339 45.5171C67.8251 42.4401 67.0947 39.7911 65.7252 37.8447C65.6648 37.7297 65.6274 37.7195 65.5133 37.6175L58.3075 33.4314L58.2848 27.5349C58.2848 19.5841 51.6604 15.7848 44.7275 19.7812C39.0549 23.0547 34.6201 30.7393 34.6322 37.277L34.6429 41.4693L27.4412 45.6205C27.374 45.6591 27.2252 45.8427 27.1997 45.9079C26.8398 46.8344 26.5225 47.7691 26.2561 48.6862C26.1687 48.9863 26.3412 49.3008 26.6414 49.3876C26.9448 49.4739 27.2555 49.3014 27.3428 49.0024C27.5407 48.3208 27.7685 47.6293 28.0211 46.9383C32.7901 49.7098 36.1234 51.6469 38.8072 53.2065C37.7093 56.1537 36.9367 59.5652 36.9456 62.7006C36.9537 65.6389 37.6674 68.1102 38.584 69.6926L30.356 64.9111C27.7513 63.3976 26.3103 60.1799 26.2981 55.8517C26.297 55.5394 26.0278 55.2863 25.7304 55.2874C25.4181 55.2885 25.1649 55.5422 25.166 55.8551C25.1793 60.6023 26.8205 64.166 29.7866 65.8895C29.9031 65.9572 41.7136 72.8197 41.5944 72.7511C45.0664 74.7503 49.2579 73.695 52.7139 71.7002C61.0785 66.8707 67.8615 55.1248 67.8339 45.5171ZM41.4485 37.262C41.4368 33.0853 44.502 27.7809 48.1414 25.6798C50.3641 24.3946 51.4807 24.7237 51.4807 27.5609L51.4911 31.7381L41.4491 37.5319L41.4485 37.262ZM45.293 20.7618C51.4721 17.2009 57.1527 20.4571 57.1527 27.5371C57.1531 27.6518 57.1892 37.8438 57.187 37.2012C57.1854 37.2071 57.1837 37.2136 57.1827 37.2204C56.5313 38.6255 52.7211 38.263 52.6404 37.0415C52.6399 36.8759 52.6113 27.0526 52.6128 27.5592C52.6128 24.0574 50.7744 22.8499 47.5754 24.6992C43.628 26.9783 40.3037 32.7332 40.3164 37.2654L40.3187 38.4929C40.3184 38.5012 40.3125 38.5079 40.3125 38.5163L40.3296 46.8891C40.1332 48.2289 36.0067 48.1925 35.7886 46.8366L35.7643 37.2742C35.7532 31.1047 39.9388 23.8513 45.293 20.7618ZM34.6521 46.8355C34.6521 47.562 35.1361 48.0938 35.7621 48.4689C37.0473 49.2096 39.0688 49.2152 40.3838 48.4711C40.972 48.1073 41.4722 47.5305 41.4722 46.8106L41.4524 38.8369L51.4944 33.0434L51.5045 37.0481C51.5045 38.3594 52.9971 39.0867 54.3183 39.2374C55.9587 39.426 58.3235 38.7393 58.3235 37.0995L58.3157 34.7453L64.0999 38.105C31.7786 56.7672 42.1244 50.7936 39.5079 52.3043L28.8538 46.1129L34.6427 42.7759L34.6521 46.8355ZM42.1593 71.7699C39.1355 70.0295 38.0877 66.2689 38.0777 62.6973C38.0686 59.5486 38.8484 56.2873 39.9719 53.346C42.6403 51.8051 31.9925 57.9536 65.0485 38.8656C66.1242 40.5853 66.6941 42.8721 66.7018 45.5204C66.7283 54.7666 60.1996 66.0708 52.1479 70.7196C48.3454 72.9152 44.7971 73.2889 42.1593 71.7699Z" fill="black"/>
<path d="M51.8782 49.7608C48.1464 51.9149 45.1206 57.1541 45.1327 61.4392C45.1453 65.9757 48.502 67.9393 52.4862 65.6408C56.2147 63.4883 59.2378 58.2452 59.2256 53.953C59.213 49.4065 55.8357 47.4785 51.8782 49.7608ZM51.9202 64.6602C48.7208 66.5095 46.2751 65.1212 46.2648 61.4358C46.2537 57.5123 49.0259 52.7148 52.4442 50.7414C55.6135 48.9114 58.0831 50.2543 58.0936 53.9563C58.1046 57.8865 55.3352 62.6884 51.9202 64.6602Z" fill="black"/>
<path d="M53.736 57.3531C54.097 56.7329 54.2987 56.0524 54.2971 55.4438C54.2936 53.978 53.0929 53.2836 51.8135 54.0187C50.7361 54.6412 49.8948 56.0966 49.8981 57.3332C49.8998 57.9423 50.1015 58.4315 50.457 58.7306L49.7406 61.307C49.6792 61.5281 49.7577 61.7653 49.9396 61.9057C50.121 62.0474 50.3716 62.0631 50.5692 61.9488L54.3551 59.7631C54.6155 59.6128 54.7127 59.2855 54.5773 59.0175L53.736 57.3531ZM51.2021 60.2761L51.6675 58.6029C51.7079 58.4575 51.6885 58.3022 51.6139 58.1712C51.5387 58.0402 51.4149 57.944 51.2695 57.9047C51.049 57.8456 51.0307 57.4498 51.0302 57.3298C51.028 56.4902 51.646 55.4228 52.3795 54.9994C52.8906 54.7033 53.1638 54.8494 53.165 55.4471C53.1661 55.9208 52.9621 56.5018 52.6194 57.0021C52.5022 57.1723 52.4873 57.3929 52.5807 57.5775L53.3253 59.0501L51.2021 60.2761Z" fill="black"/>
</svg>
