<svg width="93" height="92" viewBox="0 0 93 92" fill="none" xmlns="http://www.w3.org/2000/svg">
<rect x="0.5" width="92" height="92" rx="46" fill="white"/>
<path d="M29.3602 69.2114C29.4056 69.2378 28.7246 68.842 36.0416 73.0946C36.2137 73.1938 36.4299 73.1961 36.607 73.0941L63.7343 57.4324C63.9101 57.3307 64.0179 57.1433 64.0173 56.9405C64.0169 56.7862 63.9241 24.1181 63.9217 23.2767C63.9212 23.1134 63.7516 22.8537 63.6403 22.7891L63.639 22.7884C63.1464 22.5021 56.5708 18.6801 56.9612 18.907C56.786 18.8042 56.5687 18.8053 56.3935 18.9059L29.2657 34.5681C29.0887 34.6706 28.9832 34.8591 28.9827 35.0579L28.9829 35.059L28.9827 35.0601L29.0529 59.7939C29.054 60.1056 29.3071 60.3582 29.6189 60.3582H29.6206C29.9329 60.3571 30.186 60.1034 30.1849 59.7905L30.143 45.0221L35.6887 48.2454L35.7552 71.6187L30.2093 68.3961L30.2004 65.0966C30.1993 64.7848 29.9461 64.5322 29.6344 64.5322C29.3569 64.5488 29.0672 64.7865 29.0683 65.0999L29.0783 68.7239C29.0788 68.9251 29.1861 69.1108 29.3602 69.2114ZM62.7924 24.2573L62.8145 31.9307L48.2572 40.3358L47.3297 38.0252C47.2003 37.7017 46.8143 37.5769 46.5215 37.746L41.0541 40.9024C40.9159 40.9825 40.8175 41.1168 40.7838 41.2727L39.9463 45.1338L36.8172 46.9402L36.8111 44.7963L36.7955 39.2663C42.9526 35.7116 56.6848 27.7835 62.7924 24.2573ZM36.8873 71.6248L36.821 48.2455L40.7296 45.989C40.8678 45.9088 40.9662 45.7745 40.9999 45.6186L41.8374 41.7575L46.5226 39.0528L47.4502 41.3634C47.5783 41.6835 47.9624 41.8141 48.2584 41.6425L62.8183 33.236L62.8841 56.616L36.8873 71.6248ZM56.6754 20.0502L62.2263 23.2767L36.2292 38.2859L30.678 35.0601L56.6754 20.0502ZM35.6633 39.266L35.685 46.9336L30.1396 43.711L30.1175 36.0435L35.6633 39.266Z" fill="black"/>
<path d="M29.631 63.9905C29.9439 63.9894 30.1965 63.7356 30.1954 63.4228L30.1904 61.7247C30.1893 61.4123 29.9362 61.1603 29.6244 61.1603H29.6227C29.3099 61.1614 29.0572 61.4151 29.0584 61.728L29.0633 63.4261C29.0644 63.7384 29.3176 63.9905 29.6294 63.9905H29.631Z" fill="black"/>
<path d="M55.0691 34.7368C55.9806 34.21 56.692 32.9768 56.6887 31.9293C56.6852 30.6428 55.614 30.0291 54.4942 30.6739C53.5799 31.2024 52.8663 32.4367 52.869 33.4848C52.8725 34.7606 53.9468 35.3843 55.0691 34.7368ZM55.0602 31.6545C55.4063 31.4553 55.5555 31.5086 55.5566 31.9326C55.5588 32.5788 55.0663 33.4306 54.503 33.7562C54.1492 33.9625 54.0022 33.8893 54.0011 33.4815C53.9994 32.8353 54.4942 31.9812 55.0602 31.6545Z" fill="black"/>
<path d="M50.0941 37.6078C51.0051 37.081 51.7165 35.8484 51.7137 34.8003C51.7102 33.5143 50.6407 32.9006 49.5192 33.545C48.6044 34.0734 47.8907 35.3083 47.8941 36.3558C47.8976 37.6398 48.9784 38.2516 50.0941 37.6078ZM50.0852 34.5256C50.4313 34.3264 50.5805 34.3797 50.5816 34.8036C50.5833 35.4498 50.0908 36.3022 49.528 36.6272C49.1748 36.8328 49.0272 36.7619 49.0261 36.3525C49.0239 35.7063 49.5192 34.8528 50.0852 34.5256Z" fill="black"/>
<path d="M60.0384 31.8662C60.9527 31.3383 61.6669 30.1039 61.6641 29.0559C61.6595 27.7706 60.5856 27.1579 59.4635 27.8039C58.5498 28.3312 57.8356 29.5655 57.8384 30.6141C57.8419 31.8926 58.9184 32.5124 60.0384 31.8662ZM60.0296 28.7845C60.4243 28.5566 60.5311 28.6914 60.532 29.0592C60.5337 29.7054 60.0384 30.5589 59.4724 30.8856C59.1272 31.0868 58.9716 31.0282 58.9705 30.6108C58.9688 29.9646 59.4635 29.1112 60.0296 28.7845Z" fill="black"/>
<path d="M49.5486 43.1776C45.1839 45.6971 41.6445 51.8285 41.6589 56.8449C41.6736 62.0548 45.5091 64.3681 50.1638 61.6811C54.5246 59.1632 58.0612 53.0407 58.0469 48.0331C58.032 42.7489 54.1439 40.525 49.5486 43.1776ZM49.5978 60.7004C45.7616 62.9146 42.8036 61.2431 42.7909 56.8416C42.7777 52.1867 46.0628 46.497 50.1146 44.1582C53.9575 41.9394 56.9022 43.6359 56.9148 48.0365C56.9281 52.6825 53.6457 58.3633 49.5978 60.7004Z" fill="black"/>
<path d="M53.0885 47.9689L51.2489 49.0314L50.7061 47.4488C50.5467 46.9977 50.0444 46.7848 49.5558 47.0635C49.2672 47.2304 49.0433 47.5383 48.956 47.8904L48.2894 50.6742C48.2794 50.7168 48.244 50.7637 48.2258 50.7759L46.0457 52.0346C45.6316 52.2745 45.3635 52.8002 45.4216 53.2579C45.463 53.5834 45.6742 53.8366 45.9848 53.9228L47.4243 54.286L46.8046 56.8393C46.5591 57.856 47.6996 58.3623 48.359 57.4346L50.0997 54.9742L51.7099 55.3938C51.9166 55.4391 52.1261 55.4037 52.3229 55.2898C52.7458 55.0455 53.0841 54.4308 52.91 53.8996L52.282 51.887L54.0431 49.3951C54.3604 48.9468 54.3754 48.4073 54.0796 48.0834C53.8298 47.8086 53.4401 47.7639 53.0885 47.9689ZM51.355 51.2375C51.119 51.5774 51.0477 51.9688 51.1599 52.2701L51.826 54.1893C51.8238 54.2042 51.8144 54.2263 51.8022 54.2479L50.192 53.8289C49.9853 53.7808 49.7735 53.8184 49.5768 53.9333C49.4336 54.0157 49.3004 54.1384 49.1887 54.2937L48.2728 55.5905L48.5779 54.3319C48.6885 53.8493 48.4817 53.4193 48.0384 53.275L46.7339 52.945L48.7918 51.7565C49.0842 51.5874 49.3147 51.269 49.3916 50.9318L49.9311 48.6792L50.318 49.8069C50.4658 50.2723 50.9859 50.489 51.4744 50.2082L52.5015 49.6151L51.355 51.2375Z" fill="black"/>
</svg>
