<svg width="93" height="92" viewBox="0 0 93 92" fill="none" xmlns="http://www.w3.org/2000/svg">
<path d="M75.1015 21.2387V21.2319C75.1015 21.2049 75.0885 21.182 75.0861 21.1557C75.0587 20.3676 74.5633 19.6345 73.7013 19.1367L49.2316 5.00922C47.6958 4.12095 45.2971 4.12095 43.7715 5.00922L19.4611 19.1367C18.5864 19.647 18.0847 20.403 18.0864 21.215C18.0864 21.2296 18.0928 21.2433 18.0931 21.2578L17.8982 70.7799C17.8982 71.5936 18.3898 72.331 19.2916 72.8633L43.7647 87.001C45.3134 87.883 47.7117 87.8695 49.2265 86.9976C70.19 74.7562 73.4888 72.984 74.1014 72.4632C74.6201 71.992 74.9066 71.4004 74.9066 70.7986L75.0236 41.14C75.0253 40.6602 74.6388 40.2703 74.159 40.2687H74.1556C73.6776 40.2687 73.2894 40.6552 73.2877 41.1332L73.1896 66.0064L48.5349 80.4593C47.528 81.0391 45.8294 81.0374 44.8191 80.4576L19.6527 66.0542L19.8205 23.5018L43.9546 37.4343C45.4802 38.3158 47.8738 38.3175 49.4045 37.4343L73.3572 23.5136L73.3318 29.5789C73.3301 30.0587 73.7166 30.4486 74.1963 30.4503H74.1997C74.6777 30.4503 75.0659 30.0638 75.0676 29.5857C75.0702 28.9537 75.1033 20.8035 75.1015 21.2387ZM20.3325 20.6386L44.6428 6.51113C45.6203 5.94007 47.3597 5.93401 48.3637 6.51113L72.8334 20.6386C73.2233 20.8641 73.3606 21.0946 73.3606 21.2235C73.3615 21.3064 73.311 21.4043 73.2215 21.504L73.2132 21.5106C72.942 21.8075 74.2858 20.9319 48.5366 35.9239C47.5331 36.5071 45.8294 36.5071 44.8157 35.9239L20.346 21.7964C20.0273 21.6117 19.8222 21.3828 19.8222 21.2116C19.8222 21.0777 19.9561 20.8573 20.3325 20.6386ZM43.9546 81.9612C45.4819 82.8444 47.8772 82.8444 49.4079 81.9595L73.1809 68.0236L73.1707 70.7952C73.1707 70.8994 73.084 71.0397 73.0331 71.0999C34.9471 93.3161 53.811 82.3125 48.3569 85.494C47.3534 86.0754 45.6413 86.072 44.6276 85.4957L20.1663 71.3648C19.7747 71.1325 19.634 70.9105 19.634 70.7833L19.6448 68.0493L43.9546 81.9612Z" fill="white"/>
<path d="M74.1879 32.837H74.1845C73.7064 32.837 73.3183 33.2235 73.3166 33.7016L73.3047 36.7936C73.303 37.2733 73.6895 37.6632 74.1692 37.6649H74.1726C74.6507 37.6649 75.0388 37.2784 75.0405 36.8003L75.0524 33.7084C75.0541 33.2286 74.6676 32.8387 74.1879 32.837Z" fill="white"/>
<path d="M68.4903 50.0599C68.0123 50.0599 67.6241 50.4464 67.6224 50.9245L67.5698 63.0279C67.5681 63.5077 67.9546 63.8976 68.4344 63.8993H68.4378C68.9158 63.8993 69.304 63.5128 69.3057 63.0347L69.3582 50.9313C69.3599 50.4515 68.9734 50.0616 68.4937 50.0599H68.4903Z" fill="white"/>
<path d="M63.3829 53.0095C62.9048 53.0095 62.5167 53.396 62.515 53.8741L62.4624 65.9775C62.4607 66.4573 62.8472 66.8472 63.3269 66.8488H63.3303C63.8084 66.8488 64.1966 66.4623 64.1983 65.9843L64.2508 53.8808C64.2525 53.4011 63.866 53.0112 63.3863 53.0095H63.3829Z" fill="white"/>
<path d="M58.2752 55.9574C57.7972 55.9574 57.409 56.3439 57.4073 56.8219L57.3547 68.9254C57.353 69.4051 57.7395 69.795 58.2193 69.7967H58.2227C58.7007 69.7967 59.0889 69.4102 59.0906 68.9322L59.1431 56.8287C59.1448 56.349 58.7583 55.9591 58.2786 55.9574H58.2752Z" fill="white"/>
<path d="M53.1678 58.907C52.6898 58.907 52.3016 59.2935 52.2999 59.7715L52.2473 71.8733C52.2456 72.3547 52.6304 72.7989 53.1152 72.7446C53.5933 72.7446 53.9815 72.3581 53.9832 71.8801L54.0357 59.7783C54.0374 59.2986 53.6509 58.9087 53.1712 58.907H53.1678Z" fill="white"/>
<path d="M24.211 50.0599H24.1992C23.7194 50.0667 23.3363 50.46 23.3431 50.9397L23.5075 63.0432C23.5143 63.5178 23.9008 63.8993 24.3755 63.8993H24.3873C24.8671 63.8925 25.2502 63.4992 25.2434 63.0195L25.079 50.916C25.0722 50.4413 24.6857 50.0599 24.211 50.0599Z" fill="white"/>
<path d="M29.4829 66.8488H29.4947C29.9745 66.8421 30.3576 66.4488 30.3508 65.9691L30.1864 53.8656C30.1796 53.3875 29.7355 53.0621 29.3066 53.0095C28.8269 53.0163 28.4437 53.4096 28.4505 53.8893L28.615 65.9928C28.6217 66.4674 29.0082 66.8488 29.4829 66.8488Z" fill="white"/>
<path d="M34.4143 55.9574C33.9345 55.9642 33.5514 56.3575 33.5582 56.8372L33.7226 68.9407C33.7294 69.4153 34.1159 69.7967 34.5905 69.7967H34.6024C35.0821 69.79 35.4653 69.3967 35.4585 68.9169L35.294 56.8135C35.2873 56.3354 34.8753 55.9303 34.4143 55.9574Z" fill="white"/>
<path d="M39.5335 58.907H39.5217C39.0419 58.9138 38.6588 59.307 38.6656 59.7868L38.83 71.8886C38.8368 72.3632 39.2233 72.7446 39.698 72.7446H39.7098C40.1896 72.7378 40.5727 72.3446 40.5659 71.8648L40.4015 59.763C40.3947 59.2884 40.0082 58.907 39.5335 58.907Z" fill="white"/>
<path d="M31.3459 23.4781L45.3446 31.5657C46.1674 32.0499 47.1879 32.0521 48.0077 31.5691C48.1862 31.4653 62.0345 23.4195 61.8521 23.5255C63.5951 22.5079 63.601 19.9761 61.8487 18.9537L47.8331 10.8643C47.0109 10.3829 45.9904 10.3829 45.1717 10.8626L31.3273 18.9079C29.5827 19.9208 29.5829 22.4629 31.3459 23.4781ZM46.2193 30.0672L35.7046 23.9915L46.0464 17.9823C46.3244 17.8196 46.6719 17.8196 46.9601 17.9857L57.4735 24.0612L47.1313 30.0706C46.8516 30.235 46.5058 30.235 46.2193 30.0672ZM32.2003 20.4081L46.0464 12.3612C46.3176 12.2024 46.6631 12.1933 46.9601 12.3646L60.9774 20.4539C61.3809 20.6895 61.4249 21.0828 61.4249 21.2404C61.4249 21.3981 61.3809 21.7914 60.9774 22.027L59.2037 23.0574L47.8331 16.4855C47.0109 16.0041 45.9904 16.0041 45.1717 16.4838L33.9718 22.9903L32.2138 21.9744C31.6092 21.6286 31.6051 20.7561 32.2003 20.4081Z" fill="white"/>
<path d="M28.5234 41.2129L28.5471 33.1795C28.5488 32.8676 28.3827 32.5794 28.1132 32.4251L24.4499 30.3112C24.1821 30.1553 23.8515 30.157 23.5837 30.3095C23.3141 30.4638 23.148 30.7503 23.148 31.0605L23.126 39.0939C23.126 39.4041 23.2904 39.6923 23.5599 39.8465L27.2215 41.9604C27.7867 42.2895 28.5197 41.8903 28.5234 41.2129ZM26.7926 39.7092L24.8635 38.5955L24.8805 32.5624L26.8096 33.6761L26.7926 39.7092Z" fill="white"/>
<path d="M36.0822 40.5162C36.089 38.8532 34.9515 36.8919 33.4937 36.0511C31.7178 35.0252 30.0274 35.9849 30.0203 38.0141C30.0169 39.6872 31.1543 41.6587 32.6105 42.5029C34.3932 43.5252 36.0786 42.5393 36.0822 40.5162ZM33.4784 40.9993C32.5579 40.467 31.7527 39.0736 31.7561 38.0192C31.7595 37.3174 32.0292 37.2102 32.6257 37.553C33.5462 38.0853 34.3497 39.4652 34.3463 40.5111C34.3432 41.2181 34.0668 41.3386 33.4784 40.9993Z" fill="white"/>
<path d="M42.7798 44.3828C42.7866 42.7198 41.6525 40.7619 40.1997 39.9228C38.4376 38.8993 36.7352 39.8493 36.728 41.8858C36.7246 43.5623 37.8621 45.5338 39.3182 46.3729C41.0737 47.3933 42.7762 46.4267 42.7798 44.3828ZM40.1862 44.871C39.2657 44.3387 38.4605 42.947 38.4639 41.8909C38.4669 41.263 38.6752 41.0475 39.3318 41.4247C40.2641 41.9638 41.0473 43.3149 41.0439 44.3777C41.0407 45.071 40.7875 45.2202 40.1862 44.871Z" fill="white"/>
</svg>
