<svg width="93" height="92" viewBox="0 0 93 92" fill="none" xmlns="http://www.w3.org/2000/svg">
<path d="M18.6179 58.551L54.7181 37.6971C54.9641 37.4946 55.3572 36.9489 55.3572 36.5528L55.2945 14.6572C55.2945 13.7549 54.3148 13.1836 53.5264 13.6367L17.4313 34.4856C17.189 34.6846 16.7871 35.2318 16.7871 35.6349L16.8481 57.5356C16.8555 58.4426 17.832 58.9985 18.6179 58.551ZM18.5365 35.8375L53.562 15.6209L53.6213 36.3308C53.618 36.3367 53.6129 36.3418 53.6095 36.3469L18.5806 56.5676L18.523 35.8578C18.528 35.851 18.5331 35.8442 18.5365 35.8375Z" fill="white"/>
<path d="M28.0634 80.7771C28.4811 81.0195 29.011 80.8748 29.25 80.4635C29.4907 80.049 29.35 79.5176 28.9347 79.2769L26.6191 77.9301C26.2055 77.6911 25.6732 77.8284 25.4325 78.2437C25.1918 78.6582 25.3325 79.1896 25.7478 79.4303L28.0634 80.7771Z" fill="white"/>
<path d="M84.1987 52.8713L61.1834 39.4965C60.4672 39.0789 59.5499 38.8731 58.6275 38.8621C59.0118 38.1129 59.249 37.3 59.2476 36.5426L59.1713 9.92516C59.1696 8.96665 58.7867 8.19641 58.1264 7.7937C58.1149 7.78629 58.1085 7.77421 58.0965 7.76722L58.0948 7.76552L58.0931 7.76467L52.6601 4.60404C51.9651 4.20313 51.0735 4.25992 50.2191 4.76254L10.1166 27.9193C8.62992 28.7644 7.46704 30.7706 7.46704 32.4895L7.54502 59.1027C7.54502 60.0715 7.93152 60.8589 8.61467 61.2692C9.17335 61.5933 6.59116 60.0945 14.0787 64.4385C14.1988 64.505 14.3265 64.5529 14.4572 64.5924C14.4556 64.6238 14.4428 64.6535 14.4426 64.6849C14.4421 64.8597 14.4383 71.7955 14.4393 71.6207C14.4393 72.42 14.9292 73.1548 15.775 73.6312L23.3541 78.0386C23.7644 78.2759 24.2983 78.1412 24.5407 77.725C24.7815 77.3105 24.6408 76.7791 24.2254 76.5384L16.6379 72.125C16.3175 71.9453 16.1751 71.7419 16.1751 71.6224L16.1819 66.9389L38.7954 80.0813C40.2826 80.9445 42.5939 80.9307 44.064 80.083L83.7918 57.1454L83.7969 61.815C83.7969 61.9311 83.6715 62.1362 83.3121 62.3388L43.1859 85.5151C42.2417 86.0601 40.6007 86.0618 39.6667 85.5168L31.1909 80.589C30.7773 80.3483 30.245 80.4864 30.0043 80.9026C29.7635 81.317 29.9042 81.8485 30.3196 82.0892L38.7937 87.0162C40.2636 87.8767 42.5732 87.8725 44.0538 87.0187L84.1715 63.8467C85.0361 63.3602 85.5328 62.6194 85.5328 61.8142L85.526 54.9347C85.5263 54.9198 85.5328 54.9059 85.5328 54.8911C85.5345 54.1003 85.048 53.3638 84.1987 52.8713ZM83.3274 54.3715C83.9033 54.7059 83.9176 54.8997 83.5546 55.2253C83.2317 55.5059 85.8424 53.9236 43.1943 78.5751C42.1669 79.171 40.4827 79.0473 39.6599 78.5751C17.8429 65.8731 16.4825 65.1417 16.2943 64.9202C16.12 64.7121 16.1042 64.5154 16.6227 64.1944C21.6582 61.2861 0.204686 73.6769 56.7845 40.9984C57.2642 40.7204 57.9084 40.5822 58.5525 40.5822C59.195 40.5822 59.8358 40.7204 60.3121 40.9967L83.3274 54.3715ZM56.55 9.4074C56.6941 9.33037 56.8181 9.28418 56.9209 9.26257C57.3514 9.17125 57.4335 9.48766 57.4354 9.9294L57.5117 36.5469C57.5151 37.6162 56.7052 39.0145 55.7737 39.5772C50.7487 42.4795 72.1773 30.103 15.6276 62.7643C15.2735 62.9685 14.8955 63.0823 14.7736 62.7007C14.6595 62.3738 14.7367 57.8082 14.6359 35.6374C14.6235 34.5193 15.5788 33.0588 16.4124 32.5853C38.8009 19.6544 56.7587 9.29586 56.55 9.4074ZM9.28087 59.1002L9.20289 32.487C9.20289 31.3944 10.0301 29.9654 10.9794 29.4255C23.377 22.267 30.3987 18.2124 51.0972 6.26022C51.3294 6.12291 51.5159 6.07544 51.643 6.07544C51.7075 6.07544 51.7583 6.08731 51.7922 6.1068L55.2724 8.13253C2.94454 38.3483 19.7473 28.6459 15.5377 31.0766C14.0157 31.9549 12.8915 33.9937 12.895 35.6451L12.9699 61.7952L9.49785 59.7749C9.39275 59.7122 9.28087 59.5028 9.28087 59.1002Z" fill="white"/>
<path d="M27.5803 62.1973C27.3379 61.7811 26.8056 61.6438 26.3937 61.8837L23.834 63.372C23.4186 63.6127 23.2779 64.1442 23.5187 64.5586C23.7574 64.9696 24.2873 65.1148 24.7053 64.8722L27.265 63.3839C27.6803 63.1432 27.821 62.6117 27.5803 62.1973Z" fill="white"/>
<path d="M31.0688 61.1717L33.6285 59.6834C34.0438 59.4426 34.1845 58.9112 33.9438 58.4967C33.7014 58.0814 33.1674 57.9441 32.7572 58.1831L30.1975 59.6715C29.7822 59.9122 29.6415 60.4436 29.8822 60.8581C30.121 61.2691 30.6508 61.4143 31.0688 61.1717Z" fill="white"/>
<path d="M37.4326 57.4712L39.9923 55.9828C40.4076 55.7421 40.5483 55.2107 40.3076 54.7962C40.0652 54.38 39.5312 54.2419 39.121 54.4826L36.5613 55.971C36.1459 56.2117 36.0052 56.7431 36.246 57.1576C36.4847 57.5685 37.0146 57.7137 37.4326 57.4712Z" fill="white"/>
<path d="M43.7961 53.7706L46.3558 52.2831C46.7711 52.0424 46.9118 51.511 46.6711 51.0965C46.4287 50.6803 45.8964 50.5422 45.4845 50.7829L42.9248 52.2704C42.5095 52.5111 42.3688 53.0425 42.6095 53.4562C42.8469 53.866 43.376 54.0144 43.7961 53.7706Z" fill="white"/>
<path d="M50.1599 50.0709L52.7196 48.5825C53.1349 48.3418 53.2756 47.8104 53.0349 47.3959C52.7925 46.9798 52.2585 46.8425 51.8483 47.0823L49.2886 48.5707C48.8732 48.8114 48.7325 49.3428 48.9733 49.7573C49.212 50.1683 49.7419 50.3134 50.1599 50.0709Z" fill="white"/>
<path d="M58.2118 43.3818L55.6521 44.8702C55.2368 45.1109 55.096 45.6423 55.3368 46.0568C55.5756 46.4677 56.1054 46.6129 56.5234 46.3704L59.0831 44.882C59.4984 44.6413 59.6391 44.1099 59.3984 43.6954C59.156 43.2801 58.622 43.1428 58.2118 43.3818Z" fill="white"/>
<path d="M31.6503 64.5637C31.4079 64.1484 30.874 64.0111 30.4637 64.2501L27.904 65.7384C27.4887 65.9792 27.348 66.5106 27.5887 66.9251C27.8275 67.336 28.3573 67.4812 28.7753 67.2387L31.335 65.7503C31.7504 65.5096 31.8911 64.9782 31.6503 64.5637Z" fill="white"/>
<path d="M38.0139 60.8632C37.7715 60.447 37.2375 60.3088 36.8273 60.5496L34.2676 62.0379C33.8522 62.2786 33.7115 62.8101 33.9523 63.2245C34.191 63.6355 34.7209 63.7807 35.1389 63.5381L37.6986 62.0498C38.1139 61.8091 38.2546 61.2776 38.0139 60.8632Z" fill="white"/>
<path d="M44.3776 57.1635C44.1352 56.7473 43.6029 56.6091 43.191 56.8498L40.6313 58.3382C40.216 58.5789 40.0753 59.1104 40.316 59.5248C40.5548 59.9358 41.0846 60.081 41.5026 59.8384L44.0623 58.3501C44.4777 58.1094 44.6184 57.5779 44.3776 57.1635Z" fill="white"/>
<path d="M46.6795 55.8243C46.9183 56.2353 47.4482 56.3805 47.8662 56.1379L50.4259 54.6496C50.8412 54.4088 50.9819 53.8774 50.7412 53.4629C50.4988 53.0468 49.9648 52.9095 49.5545 53.1493L46.9949 54.6377C46.5795 54.8784 46.4388 55.4098 46.6795 55.8243Z" fill="white"/>
<path d="M55.9183 49.4488L53.3586 50.9371C52.9433 51.1778 52.8026 51.7093 53.0433 52.1237C53.2821 52.5347 53.8119 52.6799 54.2299 52.4373L56.7896 50.949C57.205 50.7083 57.3457 50.1768 57.1049 49.7624C56.8625 49.3471 56.3286 49.2097 55.9183 49.4488Z" fill="white"/>
<path d="M59.4068 48.4232C59.6456 48.8342 60.1755 48.9794 60.5935 48.7368L63.1532 47.2493C63.5685 47.0086 63.7092 46.4772 63.4685 46.0635C63.2261 45.6457 62.6938 45.5101 62.2818 45.7491L59.7221 47.2366C59.3068 47.4773 59.1661 48.0087 59.4068 48.4232Z" fill="white"/>
<path d="M34.5338 66.6174L31.9741 68.1049C31.5588 68.3456 31.4181 68.8771 31.6588 69.2907C31.8962 69.7005 32.4254 69.8489 32.8454 69.6051L35.4051 68.1176C35.8204 67.8769 35.9611 67.3455 35.7204 66.931C35.478 66.5157 34.944 66.3784 34.5338 66.6174Z" fill="white"/>
<path d="M40.8973 62.9169L38.3376 64.4052C37.9223 64.6459 37.7816 65.1774 38.0223 65.5918C38.2611 66.0028 38.7909 66.148 39.2089 65.9054L41.7686 64.4171C42.184 64.1764 42.3247 63.6449 42.0839 63.2305C41.8415 62.8143 41.3092 62.6762 40.8973 62.9169Z" fill="white"/>
<path d="M48.1324 60.7166C48.5477 60.4759 48.6884 59.9444 48.4477 59.53C48.2053 59.1138 47.6713 58.9765 47.2611 59.2164L44.7014 60.7047C44.2861 60.9454 44.1454 61.4769 44.3861 61.8913C44.6249 62.3023 45.1547 62.4475 45.5727 62.2049L48.1324 60.7166Z" fill="white"/>
<path d="M53.6246 55.5158L51.0649 57.0041C50.6496 57.2448 50.5089 57.7763 50.7496 58.1907C50.9884 58.6017 51.5182 58.7469 51.9362 58.5044L54.4959 57.016C54.9112 56.7753 55.0519 56.2439 54.8112 55.8294C54.5688 55.4141 54.0348 55.2768 53.6246 55.5158Z" fill="white"/>
<path d="M57.1134 54.491C57.3522 54.902 57.882 55.0472 58.3 54.8046L60.8597 53.3163C61.275 53.0756 61.4157 52.5441 61.175 52.1297C60.9326 51.7144 60.4003 51.5771 59.9884 51.8161L57.4287 53.3044C57.0134 53.5451 56.8727 54.0766 57.1134 54.491Z" fill="white"/>
<path d="M63.4769 50.7905C63.7157 51.2015 64.2455 51.3467 64.6635 51.1041L67.2232 49.6158C67.6385 49.375 67.7792 48.8436 67.5385 48.4291C67.2961 48.013 66.7621 47.8748 66.3519 48.1155L63.7922 49.6039C63.3769 49.8446 63.2362 50.376 63.4769 50.7905Z" fill="white"/>
<path d="M58.3762 58.7892C58.1118 58.6332 57.7778 58.6332 57.5066 58.7875L45.693 65.608C45.4252 65.7631 45.259 66.0487 45.259 66.3589C45.259 66.6683 45.4235 66.9548 45.6913 67.1099L51.6786 70.5892C51.9435 70.7451 52.2775 70.7469 52.5482 70.5909L64.3619 63.7704C64.6297 63.6153 64.7958 63.3297 64.7958 63.0195C64.7958 62.7101 64.6314 62.4236 64.3635 62.2685L58.3762 58.7892ZM52.116 68.8364L47.8594 66.3623L57.9389 60.542L62.1954 63.0161L52.116 68.8364Z" fill="white"/>
<path d="M36.5883 44.6175C40.6075 42.2613 43.7215 36.7749 43.6775 32.1276C43.6281 27.1615 39.8477 25.0492 35.561 27.5684C31.6045 29.8883 28.421 35.4865 28.4651 40.0474C28.5142 45.0044 32.2693 47.151 36.5883 44.6175ZM36.4391 29.0653C39.5765 27.2275 41.9064 28.5237 41.9416 32.1445C41.9789 36.1595 39.1836 41.0831 35.7102 43.1207C32.5732 44.9622 30.2361 43.6678 30.2009 40.0304C30.1636 36.0239 32.9606 31.1054 36.4391 29.0653Z" fill="white"/>
<path d="M34.4134 41.0459C34.6762 41.0459 34.9305 40.9264 35.0983 40.7102L39.9159 34.5085C40.1075 34.2635 40.1516 33.9347 40.0346 33.6465C39.9159 33.3591 39.6532 33.1566 39.3447 33.1159L34.5084 32.4751C34.2592 32.4404 34.01 32.5192 33.8218 32.6836C33.6337 32.8489 33.5269 33.0871 33.5269 33.338L33.5455 40.1805C33.5477 40.6619 33.9391 41.0459 34.4134 41.0459ZM37.6173 34.6381L35.2746 37.6547L35.2661 34.3262L37.6173 34.6381Z" fill="white"/>
</svg>
